<?xml version="1.0" encoding="utf-8"?><svg xmlns="http://www.w3.org/2000/svg" xmlns:xlink="http://www.w3.org/1999/xlink"><symbol viewBox="0 0 192 512" id="angle-left" xmlns="http://www.w3.org/2000/svg"><path d="M25.1 247.5l117.8-116c4.7-4.7 12.3-4.7 17 0l7.1 7.1c4.7 4.7 4.7 12.3 0 17L64.7 256l102.2 100.4c4.7 4.7 4.7 12.3 0 17l-7.1 7.1c-4.7 4.7-12.3 4.7-17 0L25 264.5c-4.6-4.7-4.6-12.3.1-17z"/></symbol><symbol viewBox="0 0 192 512" id="angle-right" xmlns="http://www.w3.org/2000/svg"><path d="M166.9 264.5l-117.8 116c-4.7 4.7-12.3 4.7-17 0l-7.1-7.1c-4.7-4.7-4.7-12.3 0-17L127.3 256 25.1 155.6c-4.7-4.7-4.7-12.3 0-17l7.1-7.1c4.7-4.7 12.3-4.7 17 0l117.8 116c4.6 4.7 4.6 12.3-.1 17z"/></symbol><symbol viewBox="0 0 119.33 91.33" id="arr-trible" xmlns="http://www.w3.org/2000/svg"><defs><style>.ccls-1{fill:#1493bb}.ccls-2{fill:#2aabc5}.ccls-3{fill:#61c9da}</style></defs><g id="cСлой_2" data-name="Слой 2"><g id="cСлой_1-2" data-name="Слой 1"><path class="ccls-1" d="M0 68.67L5.33 74l55.34-62 53.35 60.51 5.31-5.84L59.67 0 0 68.67z"/><path class="ccls-2" d="M11.83 77.67l5.5 5.66L59.67 34l44.2 47.48 4.8-4.98-48-52.83-48.84 54z"/><path class="ccls-3" d="M23.17 86.33l4.83 5L60.67 56l32.66 35.33L98 86 60.67 43.33l-37.5 43z"/></g></g></symbol><symbol viewBox="0 0 512 512" id="call" xmlns="http://www.w3.org/2000/svg"><g data-name="Слой 2"><path d="M0 48c0 256.47 207.91 464 464 464a24 24 0 0 0 23.39-18.6l24-104a24 24 0 0 0-13.93-27.46l-112-48a24 24 0 0 0-28 6.86l-49.6 60.62a370.92 370.92 0 0 1-177.28-177.25l60.62-49.6a24 24 0 0 0 6.86-28l-48-112A24 24 0 0 0 122.6.62l-104 24A24 24 0 0 0 0 48z" data-name="Слой 1"/></g></symbol><symbol viewBox="0 0 512 512" id="check" xmlns="http://www.w3.org/2000/svg"><path d="M173.898 439.404l-166.4-166.4c-9.997-9.997-9.997-26.206 0-36.204l36.203-36.204c9.997-9.998 26.207-9.998 36.204 0L192 312.69 432.095 72.596c9.997-9.997 26.207-9.997 36.204 0l36.203 36.204c9.997 9.997 9.997 26.206 0 36.204l-294.4 294.401c-9.998 9.997-26.207 9.997-36.204-.001z"/></symbol><symbol viewBox="0 0 448 512" id="chevron-down" xmlns="http://www.w3.org/2000/svg"><path d="M207.029 381.476L12.686 187.132c-9.373-9.373-9.373-24.569 0-33.941l22.667-22.667c9.357-9.357 24.522-9.375 33.901-.04L224 284.505l154.745-154.021c9.379-9.335 24.544-9.317 33.901.04l22.667 22.667c9.373 9.373 9.373 24.569 0 33.941L240.971 381.476c-9.373 9.372-24.569 9.372-33.942 0z"/></symbol><symbol viewBox="0 0 384 512" id="clipboard-list" xmlns="http://www.w3.org/2000/svg"><path d="M280 240H168c-4.4 0-8 3.6-8 8v16c0 4.4 3.6 8 8 8h112c4.4 0 8-3.6 8-8v-16c0-4.4-3.6-8-8-8zm0 96H168c-4.4 0-8 3.6-8 8v16c0 4.4 3.6 8 8 8h112c4.4 0 8-3.6 8-8v-16c0-4.4-3.6-8-8-8zM112 232c-13.3 0-24 10.7-24 24s10.7 24 24 24 24-10.7 24-24-10.7-24-24-24zm0 96c-13.3 0-24 10.7-24 24s10.7 24 24 24 24-10.7 24-24-10.7-24-24-24zM336 64h-88.6c.4-2.6.6-5.3.6-8 0-30.9-25.1-56-56-56s-56 25.1-56 56c0 2.7.2 5.4.6 8H48C21.5 64 0 85.5 0 112v352c0 26.5 21.5 48 48 48h288c26.5 0 48-21.5 48-48V112c0-26.5-21.5-48-48-48zM192 32c13.3 0 24 10.7 24 24s-10.7 24-24 24-24-10.7-24-24 10.7-24 24-24zm160 432c0 8.8-7.2 16-16 16H48c-8.8 0-16-7.2-16-16V112c0-8.8 7.2-16 16-16h48v20c0 6.6 5.4 12 12 12h168c6.6 0 12-5.4 12-12V96h48c8.8 0 16 7.2 16 16v352z"/></symbol><symbol viewBox="0 0 72 72" id="fb" xmlns="http://www.w3.org/2000/svg"><g data-name="Слой 2"><path d="M72 12A12.44 12.44 0 0 0 60 0H12A12.44 12.44 0 0 0 0 12v48a12.44 12.44 0 0 0 12 12h24V44.8h-8.8v-12H36v-4.67c0-8.06 6.05-15.32 13.5-15.32h9.7v12h-9.7c-1.06 0-2.3 1.29-2.3 3.22v4.77h12v12h-12V72H60a12.44 12.44 0 0 0 12-12zm0 0" data-name="Layer 1"/></g></symbol><symbol viewBox="0 0 100.11 100.11" id="google-plus" xmlns="http://www.w3.org/2000/svg"><g data-name="Слой 2"><path d="M83.43 25V8.34h-8.34V25H58.4v8.34h16.69v16.72h8.34V33.37h16.68v48a18.8 18.8 0 0 1-18.77 18.77h-30.5a21.42 21.42 0 0 0 2.54-10.23 21.77 21.77 0 0 0-1.43-8 19 19 0 0 0-3.62-6.06q-2.18-2.38-4.69-4.63t-4.69-3.88a17.36 17.36 0 0 1-3.62-3.55 6.44 6.44 0 0 1-1.43-3.89 7.46 7.46 0 0 1 1.5-4.43 24.9 24.9 0 0 1 3.65-4q2.15-1.93 4.27-4.21a19.26 19.26 0 0 0 3.62-6.06 23 23 0 0 0 1.5-8.54 27.41 27.41 0 0 0-1.73-9.48 19.58 19.58 0 0 0-4.92-7.73 5.33 5.33 0 0 0-.91-.71c-.35-.22-.62-.38-.81-.49a2.36 2.36 0 0 1-.65-.62 6.09 6.09 0 0 1-.68-1.11h8.8l8.8-4.17H27.83a46.77 46.77 0 0 0-15.93 2.5A26.73 26.73 0 0 0 0 19.55 19.64 19.64 0 0 1 5.28 5.67 17.63 17.63 0 0 1 18.77 0h62.57a18.08 18.08 0 0 1 13.27 5.51 18.08 18.08 0 0 1 5.51 13.26V25zM13 47.61A16.66 16.66 0 0 0 18.06 52a12.66 12.66 0 0 0 6.32 1.7q6.33 0 9.16-3.95t2.83-10.45a35.92 35.92 0 0 0-1-8.34 40.56 40.56 0 0 0-3.06-8.47 19.07 19.07 0 0 0-5.48-6.78A12.35 12.35 0 0 0 19 13a11.08 11.08 0 0 0-9.42 4.5 17.48 17.48 0 0 0-3.32 10.79A29.87 29.87 0 0 0 7 34.74a33.38 33.38 0 0 0 2.31 6.78A31.75 31.75 0 0 0 13 47.61zm8 15.29a20.45 20.45 0 0 1 1.37-5.61 35.76 35.76 0 0 1-4.56.32Q6.71 57.62 0 49.93v28.22q9.84-5.09 25.09-5.54Q21 67.26 21 62.9zm22.28 27.6a8.17 8.17 0 0 0-1.14-2.25l-1.37-2A12.52 12.52 0 0 0 39 84.34c-.78-.74-1.38-1.29-1.79-1.66s-1.1-.92-2.09-1.66-1.65-1.24-2-1.5L31 78l-2-1.37a28.52 28.52 0 0 0-3.19-.13 52 52 0 0 0-7 .46 43 43 0 0 0-7 1.56 22.36 22.36 0 0 0-6.52 3.23 14.87 14.87 0 0 0-4.5 5.05 18 18 0 0 0 6.75 9.61 18.35 18.35 0 0 0 11.18 3.68h24.82a15.9 15.9 0 0 0 .65-4.62 11.52 11.52 0 0 0-.3-2.64c-.2-.85-.4-1.63-.62-2.35zm0 0" data-name="Layer 1"/></g></symbol><symbol viewBox="0 0 135.25 135.25" id="inst" xmlns="http://www.w3.org/2000/svg"><g data-name="Слой 2"><g data-name="Layer 1"><path d="M97.93 0H37.32A37.37 37.37 0 0 0 0 37.33v60.6a37.36 37.36 0 0 0 37.32 37.32h60.6a37.37 37.37 0 0 0 37.32-37.32v-60.6A37.37 37.37 0 0 0 97.93 0zm25.32 97.93a25.35 25.35 0 0 1-25.32 25.32H37.32A25.35 25.35 0 0 1 12 97.93v-60.6A25.35 25.35 0 0 1 37.32 12h60.6a25.35 25.35 0 0 1 25.32 25.33zm0 0"/><path d="M67.63 32.78a34.85 34.85 0 1 0 34.85 34.85 34.89 34.89 0 0 0-34.85-34.85zm0 57.69a22.85 22.85 0 1 1 22.85-22.84 22.88 22.88 0 0 1-22.85 22.84zm36.31-67.87a8.79 8.79 0 1 0 6.22 2.57 8.83 8.83 0 0 0-6.22-2.57zm0 0"/></g></g></symbol><symbol viewBox="0 0 175.14 97.06" id="logo" xmlns="http://www.w3.org/2000/svg"><defs><style>.kcls-1{fill:#065b73}</style></defs><g id="kСлой_2" data-name="Слой 2"><g id="kLayer_1" data-name="Layer 1"><path class="kcls-1" d="M148.36 77.76a2.64 2.64 0 0 1-2.73 2.53L4.42 80a2.64 2.64 0 0 1-2.72-2.57v-4.66a2.64 2.64 0 0 1 2.73-2.53l141.2.32a2.64 2.64 0 0 1 2.72 2.55zM43.3 55.23h2.48a8.61 8.61 0 0 1 5.06 1.21 4.33 4.33 0 0 1 1.64 3.75A3.69 3.69 0 0 1 51 63.37a7.28 7.28 0 0 1-4.34 1.09h-8v-15H51.3v3h-8zm0 6h2.38q2.18 0 2.19-1.57 0-1.38-2.18-1.39H43.3zm21.93.77H60l-.74 2.48h-4.77l5.68-15h5.06l5.61 15H66zm-1-3.25l-1.65-5.4L61 58.77zm22.93 5.81h-4.64V53.23h-3.6v4.62A20.87 20.87 0 0 1 78.6 62a2.86 2.86 0 0 1-1.42 2 7.69 7.69 0 0 1-3.59.62 10.76 10.76 0 0 1-1.74-.17v-3h.7a1.77 1.77 0 0 0 1.33-.45 2.24 2.24 0 0 0 .39-1.52v-9.93h12.89zm17.77.04H99.7l-1.8-3.9a6.83 6.83 0 0 0-1-1.72 1.37 1.37 0 0 0-1-.35v5.94h-4.62v-15h4.63v5.77a1.26 1.26 0 0 0 .94-.43 10.4 10.4 0 0 0 1.06-2.29 6.74 6.74 0 0 1 1.06-2 3.14 3.14 0 0 1 1.73-.87 19 19 0 0 1 3.76-.26v3.17h-.24a2.84 2.84 0 0 0-1.76.45 3.21 3.21 0 0 0-.95 1.46 5 5 0 0 1-.8 1.5 2.93 2.93 0 0 1-1.16.79 4.1 4.1 0 0 1 1.77 1.14 10.77 10.77 0 0 1 1.58 2.51zM122 49.62v15h-4.36v-8.24L112 64.61h-4.38v-15h4.37v8.31l5.67-8.29zm3.14.01h14.1v3.71h-4.74v11.31h-4.64V53.34h-4.73zM29 48.58l-.57 2.91-4.13 3.39v.32h-3.91l-4.12-3.41-.56-3.21h-3.66v20.79h20.41V48.58zm-12 9.21h2.08v3.38H17zm2.24 10.52h-2.06v-3.39h2.08zm2.45-10.51h2.08v3.38h-2.09zm2.24 10.52h-2.09v-3.39h2.08zm2-10.59H28v3.55h-2zm2.26 10.68h-2.06v-3.55h2.08zm32.28-33.83a3.75 3.75 0 0 0-2.31 1 2.92 2.92 0 0 0-.64 2.78.9.9 0 0 0 1.11.63.92.92 0 0 0 .63-1.11 2.17 2.17 0 0 1 1.48-2.41.51.51 0 0 0-.25-.94zm34.02-12.81c-.12.26-.3.5-.44.75s-.37.44-.39.74c0 .58.93.58.89 0a1.43 1.43 0 0 0-.19-.9.36.36 0 0 0-.51 0c-.22.24-.17.6-.19.9h.89v-.6a1.89 1.89 0 0 1 0-.86s-.05-.07-.07 0z"/><path class="kcls-1" d="M159 58.33a16.15 16.15 0 0 0-15.2 10.52L4.44 68.53A4.35 4.35 0 0 0 0 72.77v4.66a4.13 4.13 0 0 0 1.33 3 4.51 4.51 0 0 0 3.09 1.21L145 82a16.22 16.22 0 0 0 13.93 7.9 15.79 15.79 0 1 0 0-31.56zm-8.93 17.27V72.8a9 9 0 0 1 8.93-7.53v-.19.19a8.84 8.84 0 1 1-8.94 10.32zM4.43 78.28a1.12 1.12 0 0 1-.77-.28.75.75 0 0 1-.26-.55v-4.67a1 1 0 0 1 1-.84l138.6.31a15 15 0 0 0 .55 6.34zM159 89.7zm-40-45.57a5.56 5.56 0 0 0-1.74.08 3.22 3.22 0 0 0-1.56.49.09.09 0 0 0 .06.15 7.09 7.09 0 0 0 1.42-.17 17.19 17.19 0 0 1 1.82-.49v-.06z"/><path class="kcls-1" d="M137.43 48.08c-2.43-8.28-15.77-16.22-20.12-18.63-10.93-6.06-22.94-6.49-22.76-6.8 5.8-9.9 27.57-6.27 25.17-22.06a.64.64 0 0 0-1.07-.28c-5.42 5.38-13.16 3.61-20 3.52a12 12 0 0 0-5.79 1.3 7.66 7.66 0 0 0-2.63 2.4c-.51.68-.88 1.49-1 1.31C82.49-1.28 68.11 8.2 60.17.18a.64.64 0 0 0-1.07.28c-2.47 15.77 19.33 12.38 25.08 22.3v-.11c-18 .62-36.35 8.2-45.24 24.57 0 0-.3.6.15.4 5.2-2.29 11.43-2.64 17.14-3 8.8-.6 17.62-.9 26.45-.85 11 .06 22.05.32 33 1.29 6.55.58 13.61 1.14 19.86 3.44 1.66.86 2.08.24 1.89-.42zM82.27 15.79c-6.36-3.37-14.73-2.07-20.07-7.49a12.68 12.68 0 0 1-1-1.22 8.25 8.25 0 0 1-1.08-4.48c0-1.09 1.76.73 2.22 1 2.34 1.51 5.52 1.52 8.19 1.69 3.11.19 5.82-.39 8.9 0 2.75.38 7 1.69 9.31 5.06.4.58.81.5 1.2 0 1.85-2.33 3-3.71 5.9-4.77 3.2-1.16 6.91-.19 10.21-.12A29.23 29.23 0 0 0 115 4.43a7.44 7.44 0 0 0 2.4-1.28c2.26-1.77 1.25 1.34.8 2.79A14.15 14.15 0 0 1 116.85 8c-5.37 5.08-13.28 4.43-19.81 7.14-2 .85-5.36 5.67-6 7.2-.21.52-.9.5-1.25.47a1.16 1.16 0 0 1-.95-.61c-1.35-2.7-4.84-5.51-6.57-6.41zM123.62 44c-.72-.06-27.41-1.34-37.66-1.36-10 0-20 .36-29.9 1.3-5.44.51-11.53.93-16.64 3.09 10.31-15.17 30.22-20.49 47.8-21.74 21-1.5 36.65 12.11 36.75 12.19a19.65 19.65 0 0 1 3.18 3.52c.04.13 1.85 3.41-3.53 3zm8.05 34.59c.14-.2-.16-.41-.33-.25l-.43.39c-14.1 4.79-27.63 7.9-42.67 8a120.13 120.13 0 0 1-45.44-8.28c-.22-.22-.45-.42-.67-.64 0 0-.08 0 0 0l.47.49-.44-.17s-.06 0 0 .06l.63.28a58.38 58.38 0 0 0 30 16.72 28.85 28.85 0 0 0 4.14.81 73.54 73.54 0 0 0 10.82 1c15 .23 33.88-5.05 43.39-17.63l.6-.3a.32.32 0 0 0-.07-.48zM75.33 87c3.18.32 6.22.5 9.43.59 0 1.54 0 5.41-.15 6.12-.81 0-4.79-.06-5.95-.17-.87-.63-2.9-4.85-3.33-6.54zm18.25 1.46c-.29 1.5-.62 3.71-1.59 4.86-2.1.17-4.21.27-6.32.35-.07-.89-.38-4.54-.46-6.09.73.01 3.53.3 8.37.87zm9.22 1c2.78.18 2.78 1.26 1.45 1.75a59.06 59.06 0 0 1-11.14 2 18.8 18.8 0 0 0 1-4.74c1.37.19 7.18.87 8.69.97zM43 78.68a102.32 102.32 0 0 0 31.85 8.23 14.66 14.66 0 0 0 2 5.81l.35.64c-2.1-.22-4.21-.47-6.3-.76a14.4 14.4 0 0 1-1.78-1c-2.07-1.44-3.85-4.3-5.31-6.35a1.59 1.59 0 0 0-.58-.09c1 1.79 3.08 5.39 5 7.1C66.37 92 48.66 84.13 43 78.68z"/><path class="kcls-1" d="M112.53 35a3.56 3.56 0 0 1 2.23 1 3 3 0 0 1 .62 2.78.87.87 0 0 1-1.07.63.93.93 0 0 1-.61-1.11 2.17 2.17 0 0 0-1.42-2.41c-.43-.19-.22-1 .24-.94z"/></g></g></symbol><symbol viewBox="0 0 190.98 285.63" id="map-marker" xmlns="http://www.w3.org/2000/svg"><g data-name="Слой 2"><g data-name="Слой 1"><path d="M191 104c-17.77 67-57.12 122.77-94.26 179.65a25.15 25.15 0 0 1-1.81 2C58.27 227.39 17.63 171.78 0 104V84c1.06-.84.82-2.1 1-3.21A95.7 95.7 0 0 1 72.43 2.88C76.91 1.76 81.47 1 86 0h19a19.44 19.44 0 0 0 2.82.83c41.3 5.75 73.18 35.69 81.57 76.52.45 2.21 0 4.69 1.59 6.64zM95.4 264.53C101 255.9 106.22 248 111.26 240c21.12-33.51 41.6-67.39 57.05-104 5.37-12.73 10.53-25.67 10.76-39.76.66-40.3-28.55-75.55-68.46-82.93s-79.83 15.6-93.8 53.6c-8 21.69-5.07 42.43 3.34 63.17 13.3 32.82 30.85 63.36 49.28 93.46 8.32 13.6 17.05 26.95 25.97 40.99z"/><path d="M95.49 53.89a41.78 41.78 0 1 1-41.77 41.5 41.61 41.61 0 0 1 41.77-41.5zm-29.8 41.75a29.79 29.79 0 1 0 29.79-29.83 29.87 29.87 0 0 0-29.79 29.83z"/></g></g></symbol><symbol viewBox="0 0 40 40" id="med" xmlns="http://www.w3.org/2000/svg"><defs><style>.mcls-1{fill:#999}</style></defs><g id="mСлой_2" data-name="Слой 2"><g id="mСлой_1-2" data-name="Слой 1"><g id="mСлой_2-2" data-name="Слой 2"><path class="mcls-1" d="M19.9 0h6.7c.7 0 .9.2.8.9v10.7c0 .8.2 1 1 1H39c.8 0 1 .2 1 1v13c0 .7-.2.9-.9.9H28.4c-.7 0-.9.2-.9.9v10.5c0 .8-.2 1.1-1 1.1H13.7c-.9 0-1.1-.3-1.1-1.2V28.4c0-.8-.2-1-1-1H1c-.8 0-1-.2-1-1V13.5c0-.8.2-1 1-1h10.5c.8 0 1-.2 1-1V.9c0-.7.2-.9.9-.9 2.1.1 4.3 0 6.5 0z" id="mСлой_1-2-2" data-name="Слой 1-2"/></g></g></g></symbol><symbol viewBox="0 0 1021.34 826.42" id="metro" xmlns="http://www.w3.org/2000/svg"><g data-name="Слой 2"><path d="M0 453.79c.69-8.1 1.4-16.2 2.06-24.31a479.91 479.91 0 0 1 24.47-116.34c27-79.41 69.24-149.68 128.36-209.36C198.25 60 248 25.9 307.15 6.73c7.57-2.45 15.45-4 23.08-6.26 4.4-1.33 6.16.11 7.43 4.32 20 66.35 40.36 132.59 60.1 199q55.23 185.91 109.9 372c.46 1.57 1 3.12 1.93 6 1.13-2.93 1.93-4.66 2.48-6.46Q574.65 370 637.29 164.7C653.71 111.16 671 57.88 687.75 4.43c1.24-4 2.63-4.74 6.65-3.61 39.89 11.23 76 30.3 109.74 53.83 69.18 48.2 122 110.81 161.33 185a482.24 482.24 0 0 1 50 147.7 419.21 419.21 0 0 1 3.43 114.45q-14.48 132.69-80.2 248.91c-14.37 25.49-31.32 49.14-53.75 68.46a24.92 24.92 0 0 1-17.55 6.5c-65.66-.26-131.32-.19-197-.21h-6.21c8.2-5.44 15.22-10.08 22.22-14.75 48.8-32.49 93.22-70 131.25-114.78 47.38-55.74 80.78-118.66 96.14-190.55a388 388 0 0 0 7.55-112.65C917 338.17 903 286.39 877.23 238c-17.78-33.38-39.57-63.66-70-86.83C794 141.1 779.59 133 763 130.15c-14.4-2.47-28.36-.88-40.22 8.6a20.93 20.93 0 0 0-6.62 9.49Q656.8 337.85 597.82 527.57q-42.89 137.55-85.91 275.06c-.44 1.42-.93 2.83-1.84 5.59-1.24-3.5-2.17-5.86-2.93-8.28q-39.43-124-78.81-248-62.24-196.8-124.12-393.72c-4.75-15.22-24.48-27.22-36.56-27.8-15.15-.74-28.46 4.05-41 11.83-24.66 15.23-43 36.73-58.72 60.5-31.56 47.64-50.26 100.25-59.29 156.48a403.24 403.24 0 0 0 34.64 241.2c34.58 71.69 86.43 128.85 149.91 175.81 20.17 14.92 41.8 27.88 62.78 41.71a79.25 79.25 0 0 1 11.48 8.47h-29.57c-3 0-6-.31-9-.31q-88.24 0-176.49.06a14.57 14.57 0 0 1-10.71-4c-33.4-30.45-59.43-66.46-80.22-106.36A527.81 527.81 0 0 1 8.62 559c-4-23.88-5.33-48.23-7.88-72.36-.18-1.64-.49-3.22-.74-4.85z" data-name="Слой 1"/></g></symbol><symbol viewBox="0 0 512 512" id="phone" xmlns="http://www.w3.org/2000/svg"><path d="M0 48c0 256.5 207.9 464 464 464 11.3 0 20.9-7.8 23.4-18.6l24-104c2.6-11.3-3.3-22.9-13.9-27.5l-112-48c-9.8-4.2-21.3-1.4-28 6.9l-49.6 60.6c-78.3-36.7-141.3-100.6-177.2-177.2l60.6-49.6c8.3-6.8 11.1-18.2 6.9-28l-48-112C145.5 3.9 133.9-2 122.6.6l-104 24C7.7 27.1 0 36.8 0 48z"/></symbol><symbol viewBox="0 0 205 204.59" id="reset" xmlns="http://www.w3.org/2000/svg"><path d="M.24 202.62c8.93-8.4 17.84-16.42 26.26-24.92 3-3.07 4.51-3.1 7.73-.22 24.41 21.8 52.79 30.81 85.37 25.76 38.32-5.95 74.07-39.11 82.66-76.51.81-3.52-.47-3.94-3.38-3.91-8 .11-16 .21-24 0-4-.12-6 .93-7.62 5-18.31 45.18-74.07 58.61-111.1 27-2.74-2.34-3.24-3.54-.4-6.39 8.23-8.25 16-16.93 24-25.39a5.77 5.77 0 0 0-1.43-.18c-24.66 0-49.33.07-74-.1-4.12 0-4 2.08-4 5 .05 23.83 0 47.66.06 71.49-.04 1.31-.74 2.94-.15 3.37zM205 77.41c-.08-22 0-44 0-66V-.03c-9.84 9.41-18.53 17.63-27.09 26-2 1.9-3.13 2.58-5.59.34C151.11 7 125.91-1 97.53.09 53.15 1.72 13.4 34.31 3.07 77.45c-.94 3.93.29 4.56 3.75 4.48 8-.17 16-.3 24 0 4 .16 5.62-1.14 7.08-4.94 17.89-46.4 74.23-61.17 111-29.34 2.78 2.41 3.58 3.87.52 6.86-7.27 7.09-14.16 14.57-21.15 21.95-1.4 1.47-3.26 2.67-3.93 5a10.21 10.21 0 0 0 1.75.38c25 0 50 0 75 .1 3.55.06 3.91-1.6 3.91-4.53z" data-name="Слой 2"/></symbol><symbol viewBox="0 0 64.02 85.17" id="sale" xmlns="http://www.w3.org/2000/svg"><defs><style>.qcls-1{isolation:isolate;font-size:72px;fill:#999;font-family:ArialMT,Arial}</style></defs><g id="qСлой_2" data-name="Слой 2"><g id="qСлой_1-2" data-name="Слой 1"><g id="qСлой_2-2" data-name="Слой 2"><text class="qcls-1" transform="translate(0 61.79)" id="qСлой_1-2-2" data-name="Слой 1-2">%</text></g></g></g></symbol><symbol viewBox="0 0 512 512" id="search" xmlns="http://www.w3.org/2000/svg"><path d="M508.5 468.9L387.1 347.5c-2.3-2.3-5.3-3.5-8.5-3.5h-13.2c31.5-36.5 50.6-84 50.6-136C416 93.1 322.9 0 208 0S0 93.1 0 208s93.1 208 208 208c52 0 99.5-19.1 136-50.6v13.2c0 3.2 1.3 6.2 3.5 8.5l121.4 121.4c4.7 4.7 12.3 4.7 17 0l22.6-22.6c4.7-4.7 4.7-12.3 0-17zM208 368c-88.4 0-160-71.6-160-160S119.6 48 208 48s160 71.6 160 160-71.6 160-160 160z"/></symbol><symbol viewBox="0 0 51.48 48.07" id="shop" xmlns="http://www.w3.org/2000/svg"><defs><style>.scls-1{fill:#999}</style></defs><g id="sСлой_2" data-name="Слой 2"><g id="sСлой_1-2" data-name="Слой 1"><g id="sСлой_2-2" data-name="Слой 2"><path class="scls-1" d="M.1 1.23a2 2 0 0 1 .6-.9 1.72 1.72 0 0 1 1.7-.2l5.8 2.3 1.5.5a2 2 0 0 1 1.2 1.2c1.2 3.5 2.4 6.9 3.6 10.4l3.4 9.7c.6 1.8 1.2 3.5 1.8 5.3a.38.38 0 0 0 .5.3h21.1a.51.51 0 0 0 .5-.4c.3-.9.6-1.8.9-2.8.1-.4.1-.4-.3-.4H23.7a1.71 1.71 0 0 1-.8-3.3h20.5c.4 0 .5-.1.6-.5.3-1.1.7-2.3 1.1-3.4.1-.4 0-.5-.3-.5H21.9a2.77 2.77 0 0 1-1.3-.3 1.78 1.78 0 0 1-.7-1.8 1.89 1.89 0 0 1 1.4-1.2h24.4c.4 0 .6-.1.7-.5.3-.9.6-1.9.9-2.8.1-.5.1-.5-.4-.5h-29a1.54 1.54 0 0 1-1.5-1 1.7 1.7 0 0 1 .3-1.7 1.9 1.9 0 0 1 1.3-.5h31.5a1.76 1.76 0 0 1 1.9 1.2 1.39 1.39 0 0 1 0 .9l-2.3 7.3-2.5 7.8c-.7 2-1.3 4.1-2 6.1a1.68 1.68 0 0 1-1.9 1.3H18.8c-.7 0-.7 0-1 .6-.4 1-.7 2-1.1 3-.2.5-.2.5.4.5h25.4a1.7 1.7 0 0 1 .7.1 1.38 1.38 0 0 1 1 1.4 1.49 1.49 0 0 1-1.3 1.2h-1.2c-.1 0-.2-.1-.3.1s.1.2.1.3a4.92 4.92 0 0 1-3.5 7.9 4.22 4.22 0 0 1-2.2-.3 5 5 0 0 1-2.9-6.3 4.73 4.73 0 0 1 .7-1.2c.1-.1.2-.2.1-.3s0 .1-.1.1h-10a.37.37 0 0 0-.3.1c-.1.1.1.1.1.2a4.9 4.9 0 1 1-8.8 2.3 4.31 4.31 0 0 1 .9-2.2c.1-.1.2-.2.1-.3s0-.1-.1-.1h-.9a1.34 1.34 0 0 1-1.4-1.3.75.75 0 0 1 .1-.5c.8-2.3 1.6-4.6 2.5-6.9a1.34 1.34 0 0 1 .6-.7c.2-.1.2-.2.1-.4-.6-1.8-1.2-3.5-1.9-5.3l-3.1-9c-1.1-3.2-2.2-6.4-3.3-9.5a.9.9 0 0 0-.6-.6c-2.1-.8-4.1-1.6-6.2-2.4A2.54 2.54 0 0 1 0 2v-.8zm21.6 42.1a2.14 2.14 0 0 0-2.1-2.2 2.15 2.15 0 1 0-.1 4.3 2.07 2.07 0 0 0 2.2-2.1zm18.1 0a2.08 2.08 0 0 0-2-2.3 2.15 2.15 0 0 0-2.3 2v.3a2.16 2.16 0 0 0 4.3 0z" id="sСлой_1-2-2" data-name="Слой 1-2"/></g></g></g></symbol><symbol viewBox="0 0 576 512" id="star" xmlns="http://www.w3.org/2000/svg"><path d="M528.1 171.5L382 150.2 316.7 17.8c-11.7-23.6-45.6-23.9-57.4 0L194 150.2 47.9 171.5c-26.2 3.8-36.7 36.1-17.7 54.6l105.7 103-25 145.5c-4.5 26.3 23.2 46 46.4 33.7L288 439.6l130.7 68.7c23.2 12.2 50.9-7.4 46.4-33.7l-25-145.5 105.7-103c19-18.5 8.5-50.8-17.7-54.6zM405.8 317.9l27.8 162L288 403.5 142.5 480l27.8-162L52.5 203.1l162.7-23.6L288 32l72.8 147.5 162.7 23.6-117.7 114.8z"/></symbol><symbol viewBox="0 0 63.1 44.49" id="study" xmlns="http://www.w3.org/2000/svg"><defs><style>.ucls-1{fill:#999}</style></defs><g id="uСлой_2" data-name="Слой 2"><g id="uСлой_1-2" data-name="Слой 1"><g id="uСлой_2-2" data-name="Слой 2"><g id="uСлой_1-2-2" data-name="Слой 1-2"><path class="ucls-1" d="M49.3 30.08c0 2.2-.1 4.3 0 6.5a4.73 4.73 0 0 1-2.2 4.2 19 19 0 0 1-8 3 40.25 40.25 0 0 1-19.2-1 18.61 18.61 0 0 1-2.5-1c-2.7-1.2-4.3-3.1-4-6.3a104.6 104.6 0 0 0 0-11.2 5.18 5.18 0 0 1 3-5.2 25.11 25.11 0 0 1 9.3-2.8 39.56 39.56 0 0 1 17.1 1.3 21.85 21.85 0 0 1 2.3.9c2.8 1.2 4.6 3.1 4.2 6.5a29 29 0 0 0 0 5.1zm-18.4 2.5a33.25 33.25 0 0 0-7 .7 17.63 17.63 0 0 0-7.3 2.8c-1.2 1-1.2 1.6 0 2.6a7.61 7.61 0 0 0 2.8 1.5 36.27 36.27 0 0 0 23.9 0 7.61 7.61 0 0 0 2.8-1.5c1.1-.9 1.1-1.6 0-2.5a10.24 10.24 0 0 0-2.9-1.6 34.15 34.15 0 0 0-12.3-2z"/><path class="ucls-1" d="M63.1 15.28l-11.2 6.5c-.4.3-.7.3-1-.3-.9-2.3-2.9-3.5-5-4.5a28.33 28.33 0 0 0-9.9-2.5c-6-.5-11.9-.3-17.6 1.8-2.8 1-5.4 2.3-6.6 5.3-.3.7-.7.3-1 .1-1.9-1.1-3.9-2.2-6.1-3.5v5.3c0 2.5-.4 5.2 1.5 7.3.5.6.1.8-.5.8h-.1c-1.2-.1-2.9.5-3.6-.3s.9-1.9 1.4-2.9a4 4 0 0 0 .3-1.5v-8.3a1.68 1.68 0 0 0-1-1.8c-.9-.5-1.8-1-2.7-1.6.1-.6.6-.6 1-.8L30.5.28a2.13 2.13 0 0 1 1.9-.1c9.8 5 19.7 9.8 29.7 14.5a6.42 6.42 0 0 1 1 .6z"/></g></g></g></g></symbol><symbol viewBox="0 0 76.8 76.8" id="vk" xmlns="http://www.w3.org/2000/svg"><defs><style>.vcls-1{fill:none}.vcls-2{clip-path:url(#vclip-path)}</style><clipPath id="vclip-path"><path class="vcls-1" d="M0 0h76.8v77H0z"/></clipPath></defs><g id="vСлой_2" data-name="Слой 2"><path d="M42.54 42.33a8.87 8.87 0 0 0-4.33-.72h-4.57V51h4.19c1.55 0 3.53.11 4.87-.83a4.89 4.89 0 0 0 1.92-4 4.79 4.79 0 0 0-2.08-3.87zm-1.72-8a4.38 4.38 0 0 0 1.55-3.43 4 4 0 0 0-1.82-3.42c-1.23-.71-3.48-.55-4.92-.55h-2v8.28h2.63c1.5 0 3.26.11 4.54-.88zM63.3 0H13.5A13.5 13.5 0 0 0 0 13.5v49.8a13.5 13.5 0 0 0 13.5 13.5h49.8a13.5 13.5 0 0 0 13.5-13.5V13.5A13.5 13.5 0 0 0 63.3 0zM40.48 58H24.79V20.16h17.15c5 0 9.55 3.16 9.55 8.74 0 4.3-2.41 7.25-5.47 8.17v.11c4.54.94 7.79 3.41 7.79 9.36C53.8 52.05 50.05 58 40.48 58zm0 0" class="vcls-2" id="vLayer_1" data-name="Layer 1"/></g></symbol></svg>