<svg xmlns="http://www.w3.org/2000/svg" viewBox="0 0 40.55 40.09"><defs><style>.cls-1{opacity:0.4;}</style></defs><title>i-3</title><g id="Слой_2" data-name="Слой 2"><g id="Layer_1" data-name="Layer 1"><g class="cls-1"><path d="M20.91,40.09A17.36,17.36,0,0,1,4.12,27L2.37,30.61a1.25,1.25,0,1,1-2.24-1.1l3.58-7.3a1.25,1.25,0,0,1,2.37.55A14.85,14.85,0,0,0,20.91,37.59a1.25,1.25,0,1,1,0,2.5Z"/><path d="M7,15.89A1.25,1.25,0,0,1,5.94,14,17.35,17.35,0,0,1,26.63,6.39L24.84,1.7A1.25,1.25,0,1,1,27.17.8l2.88,7.53a1.25,1.25,0,0,1-1.79,1.53A14.85,14.85,0,0,0,8.1,15.28,1.25,1.25,0,0,1,7,15.89Z"/><path d="M39.3,37.06h-9a1.25,1.25,0,0,1-.73-2.26,14.85,14.85,0,0,0,4.08-19.62,1.25,1.25,0,1,1,2.15-1.28,17.35,17.35,0,0,1-2.21,20.66H39.3a1.25,1.25,0,0,1,0,2.5Z"/></g><path class="cls-1" d="M24.77,30.92H17.06a2.7,2.7,0,0,1-2.69-2.69V17.29a2.7,2.7,0,0,1,2.69-2.69h7.71a2.7,2.7,0,0,1,2.69,2.69V28.22A2.7,2.7,0,0,1,24.77,30.92ZM17.06,17.09a.19.19,0,0,0-.19.19V28.22a.19.19,0,0,0,.19.19h7.71a.19.19,0,0,0,.19-.19V17.29a.19.19,0,0,0-.19-.19Z"/></g></g></svg>