<?xml version="1.0" encoding="UTF-8" standalone="no"?>
<!-- Generator: Adobe Illustrator 19.0.0, SVG Export Plug-In . SVG Version: 6.00 Build 0)  -->

<svg
   xmlns:dc="http://purl.org/dc/elements/1.1/"
   xmlns:cc="http://creativecommons.org/ns#"
   xmlns:rdf="http://www.w3.org/1999/02/22-rdf-syntax-ns#"
   xmlns:svg="http://www.w3.org/2000/svg"
   xmlns="http://www.w3.org/2000/svg"
   xmlns:sodipodi="http://sodipodi.sourceforge.net/DTD/sodipodi-0.dtd"
   xmlns:inkscape="http://www.inkscape.org/namespaces/inkscape"
   version="1.1"
   id="Layer_1"
   x="0px"
   y="0px"
   viewBox="0 0 512 512"
   style="enable-background:new 0 0 512 512;"
   xml:space="preserve"
   width="512px"
   height="512px"
   sodipodi:docname="header__2.svg"
   inkscape:version="0.92.1 r15371"><metadata
     id="metadata79"><rdf:RDF><cc:Work
         rdf:about=""><dc:format>image/svg+xml</dc:format><dc:type
           rdf:resource="http://purl.org/dc/dcmitype/StillImage" /><dc:title></dc:title></cc:Work></rdf:RDF></metadata><defs
     id="defs77" /><sodipodi:namedview
     pagecolor="#ffffff"
     bordercolor="#666666"
     borderopacity="1"
     objecttolerance="10"
     gridtolerance="10"
     guidetolerance="10"
     inkscape:pageopacity="0"
     inkscape:pageshadow="2"
     inkscape:window-width="640"
     inkscape:window-height="480"
     id="namedview75"
     showgrid="false"
     inkscape:zoom="0.4609375"
     inkscape:cx="256"
     inkscape:cy="256"
     inkscape:window-x="0"
     inkscape:window-y="0"
     inkscape:window-maximized="0"
     inkscape:current-layer="Layer_1" /><g
     id="g6"><g
       id="g4"><path
         d="M476.158,231.363l-13.259-53.035c3.625-0.77,6.345-3.986,6.345-7.839v-8.551c0-18.566-15.105-33.67-33.67-33.67h-60.392    V110.63c0-9.136-7.432-16.568-16.568-16.568H50.772c-9.136,0-16.568,7.432-16.568,16.568V256c0,4.427,3.589,8.017,8.017,8.017    c4.427,0,8.017-3.589,8.017-8.017V110.63c0-0.294,0.239-0.534,0.534-0.534h307.841c0.295,0,0.534,0.241,0.534,0.534v145.372    c0,4.427,3.589,8.017,8.017,8.017c4.427,0,8.017-3.589,8.017-8.017v-9.088h94.569c0.008,0,0.014,0.002,0.021,0.002    c0.008,0,0.015-0.001,0.022-0.001c11.637,0.008,21.518,7.646,24.912,18.171h-24.928c-4.427,0-8.017,3.589-8.017,8.017v17.102    c0,13.851,11.268,25.119,25.119,25.119h9.086v35.273h-20.962c-6.886-19.884-25.787-34.205-47.982-34.205    s-41.097,14.321-47.982,34.205h-3.86v-60.393c0-4.427-3.589-8.017-8.017-8.017c-4.427,0-8.017,3.589-8.017,8.017v60.391H192.817    c-6.886-19.884-25.787-34.205-47.982-34.205s-41.097,14.321-47.982,34.205H50.772c-0.295,0-0.534-0.241-0.534-0.534v-17.637    h34.739c4.427,0,8.017-3.589,8.017-8.017s-3.589-8.017-8.017-8.017h-42.75c-0.002,0-0.003,0-0.005,0s-0.003,0-0.005,0H8.017    c-4.427,0-8.017,3.589-8.017,8.017s3.589,8.017,8.017,8.017h26.188v17.637c0,9.136,7.432,16.568,16.568,16.568h43.304    c-0.002,0.178-0.014,0.356-0.014,0.534c0,27.995,22.777,50.772,50.772,50.772s50.772-22.777,50.772-50.772    c0-0.178-0.012-0.356-0.014-0.534h180.67c-0.002,0.178-0.014,0.356-0.014,0.534c0,27.995,22.777,50.772,50.772,50.772    c27.995,0,50.772-22.777,50.772-50.772c0-0.178-0.012-0.356-0.014-0.534h26.203c4.427,0,8.017-3.589,8.017-8.017v-85.511    C512,251.989,496.423,234.448,476.158,231.363z M375.182,144.301h60.392c9.725,0,17.637,7.912,17.637,17.637v0.534h-78.029    V144.301z M375.182,230.881v-52.376h71.235l13.094,52.376H375.182z M144.835,401.904c-19.155,0-34.739-15.583-34.739-34.739    s15.584-34.739,34.739-34.739c19.155,0,34.739,15.583,34.739,34.739S163.99,401.904,144.835,401.904z M427.023,401.904    c-19.155,0-34.739-15.583-34.739-34.739s15.584-34.739,34.739-34.739c19.155,0,34.739,15.583,34.739,34.739    S446.178,401.904,427.023,401.904z M495.967,299.29h-9.086c-5.01,0-9.086-4.076-9.086-9.086v-9.086h18.171V299.29z"
         fill="#5298cc"
         id="path2" /></g></g><g
     id="g12"><g
       id="g10"><path
         d="M144.835,350.597c-9.136,0-16.568,7.432-16.568,16.568c0,9.136,7.432,16.568,16.568,16.568    c9.136,0,16.568-7.432,16.568-16.568C161.403,358.029,153.971,350.597,144.835,350.597z"
         fill="#5298cc"
         id="path8" /></g></g><g
     id="g18"><g
       id="g16"><path
         d="M427.023,350.597c-9.136,0-16.568,7.432-16.568,16.568c0,9.136,7.432,16.568,16.568,16.568    c9.136,0,16.568-7.432,16.568-16.568C443.591,358.029,436.159,350.597,427.023,350.597z"
         fill="#5298cc"
         id="path14" /></g></g><g
     id="g24"><g
       id="g22"><path
         d="M332.96,316.393H213.244c-4.427,0-8.017,3.589-8.017,8.017s3.589,8.017,8.017,8.017H332.96    c4.427,0,8.017-3.589,8.017-8.017S337.388,316.393,332.96,316.393z"
         fill="#5298cc"
         id="path20" /></g></g><g
     id="g30"><g
       id="g28"><path
         d="M127.733,282.188H25.119c-4.427,0-8.017,3.589-8.017,8.017s3.589,8.017,8.017,8.017h102.614    c4.427,0,8.017-3.589,8.017-8.017S132.16,282.188,127.733,282.188z"
         fill="#5298cc"
         id="path26" /></g></g><g
     id="g36"><g
       id="g34"><path
         d="M204.693,136.818c-42.141,0-76.426,34.285-76.426,76.426s34.285,76.426,76.426,76.426s76.426-34.285,76.426-76.426    S246.834,136.818,204.693,136.818z M204.693,273.637c-33.3,0-60.392-27.092-60.392-60.392s27.092-60.392,60.392-60.392    s60.392,27.092,60.392,60.392S237.993,273.637,204.693,273.637z"
         fill="#5298cc"
         id="path32" /></g></g><g
     id="g42"><g
       id="g40"><path
         d="M236.015,233.229l-23.305-23.305V179.04c0-4.427-3.589-8.017-8.017-8.017s-8.017,3.589-8.017,8.017v34.205    c0,2.126,0.844,4.164,2.348,5.668l25.653,25.653c1.565,1.565,3.617,2.348,5.668,2.348s4.104-0.782,5.668-2.348    C239.146,241.435,239.146,236.36,236.015,233.229z"
         fill="#5298cc"
         id="path38" /></g></g><g
     id="g44" /><g
     id="g46" /><g
     id="g48" /><g
     id="g50" /><g
     id="g52" /><g
     id="g54" /><g
     id="g56" /><g
     id="g58" /><g
     id="g60" /><g
     id="g62" /><g
     id="g64" /><g
     id="g66" /><g
     id="g68" /><g
     id="g70" /><g
     id="g72" /></svg>