<svg xmlns="http://www.w3.org/2000/svg" width="16" height="25" viewBox="0 0 16 25"><path fill="#f54a07" d="M7.92 12.72a3.73 3.73 0 0 1-2.74-1.14 3.8 3.8 0 0 1-1.13-2.77c0-1.08.38-2 1.13-2.76A3.7 3.7 0 0 1 7.92 4.9a3.7 3.7 0 0 1 2.74 1.15 3.77 3.77 0 0 1 1.14 2.76c0 1.08-.38 2-1.14 2.77a3.72 3.72 0 0 1-2.74 1.14zm5.48-9.44A7.42 7.42 0 0 0 7.92.99c-2.14 0-3.96.76-5.48 2.29A7.58 7.58 0 0 0 .17 8.81c0 1.11.17 2.02.5 2.74L6.2 23.37c.15.34.38.6.7.8a1.96 1.96 0 0 0 2.04 0c.32-.2.56-.46.72-.8l5.51-11.82c.34-.72.5-1.63.5-2.74 0-2.16-.75-4-2.27-5.53z"/></svg>