<svg xmlns="http://www.w3.org/2000/svg" width="22" height="22" viewBox="0 0 22 22"><path fill="#f54a07" d="M21.28 17.15c-.06-.18-.45-.45-1.15-.81l-.82-.46a52.82 52.82 0 0 1-1.77-1.01 12.08 12.08 0 0 0-.92-.59.98.98 0 0 0-.43-.11c-.2 0-.45.15-.76.44-.3.29-.58.6-.83.94-.25.35-.52.66-.8.95-.28.29-.52.44-.7.44-.09 0-.2-.03-.34-.08l-.31-.13-.36-.21a15.83 15.83 0 0 1-3.85-2.84c-.99-1-1.86-2.19-2.63-3.59l-.18-.29-.21-.36-.13-.32a.98.98 0 0 1-.07-.34c0-.18.14-.42.43-.7.29-.29.6-.56.94-.81.34-.26.65-.54.94-.84.28-.31.43-.56.43-.77a.98.98 0 0 0-.11-.43 5.27 5.27 0 0 0-.32-.55l-.27-.38-.47-.81-.53-.97-.45-.83C5.26.98 4.99.59 4.81.53a.85.85 0 0 0-.32-.05c-.27 0-.63.05-1.07.16-.44.1-.78.2-1.04.32-.5.21-1.04.83-1.6 1.86a5.92 5.92 0 0 0-.31 5.25l.31.85.27.74c.35 1 .77 1.89 1.26 2.68.8 1.29 1.89 2.64 3.27 4.03a22.4 22.4 0 0 0 3.99 3.3c.78.49 1.66.91 2.65 1.27l.75.27.84.32.71.22a5.29 5.29 0 0 0 1.67.24c.93 0 1.87-.26 2.82-.78 1.01-.57 1.63-1.11 1.84-1.62a5.95 5.95 0 0 0 .43-2.44z"/></svg>