<svg xmlns="http://www.w3.org/2000/svg" width="25" height="24" viewBox="0 0 25 24"><path fill="#f54a07" d="M14.18 6.27a.48.48 0 0 0-.35-.14h-.97a.46.46 0 0 0-.34.14.48.48 0 0 0-.14.35V12H8.99a.45.45 0 0 0-.35.14.46.46 0 0 0-.13.35v.98c0 .14.04.25.13.35.09.09.21.13.35.13h4.84c.14 0 .26-.04.35-.13a.5.5 0 0 0 .14-.35V6.62a.48.48 0 0 0-.14-.35zm2.33 12.92a7.93 7.93 0 0 1-4.13 1.12A8.27 8.27 0 0 1 4.15 12a8.3 8.3 0 0 1 4.1-7.2 8.02 8.02 0 0 1 4.13-1.11c1.49 0 2.87.37 4.13 1.11a8.3 8.3 0 0 1 4.11 7.2 8.27 8.27 0 0 1-4.11 7.19zm1.71-17.35A11.32 11.32 0 0 0 12.38.27 11.63 11.63 0 0 0 2.31 6.11 11.56 11.56 0 0 0 .75 12c0 2.13.52 4.09 1.56 5.89a11.63 11.63 0 0 0 15.91 4.27 11.63 11.63 0 0 0 4.23-4.27A11.56 11.56 0 0 0 24.01 12c0-2.13-.52-4.09-1.56-5.89a11.63 11.63 0 0 0-4.23-4.27z"/></svg>