<svg xmlns="http://www.w3.org/2000/svg" width="56" height="58" viewBox="0 0 56 58"><path fill="#0b7b37" d="M56 29.18c0 .65-.26 1.27-.72 1.73l-8.6 8.55a2.42 2.42 0 0 1-3.45-.05 2.5 2.5 0 0 1 .01-3.49l4.42-4.48H30.44v17.28l4.47-4.44a2.44 2.44 0 0 1 3.45 3.46l-8.61 8.56a2.44 2.44 0 0 1-3.44 0l-8.6-8.56a2.44 2.44 0 0 1 3.42-3.46l4.44 4.44V31.44H8.34l4.42 4.48c.95.95.96 2.58.01 3.54a2.42 2.42 0 0 1-3.44.01L.72 30.91a2.45 2.45 0 0 1 0-3.47l8.6-8.57c.96-.94 2.5-.96 3.45-.01.95.96.94 2.45 0 3.4l-4.43 4.3h17.23V9.28l-4.45 4.43a2.43 2.43 0 0 1-3.42-3.45l8.61-8.56a2.42 2.42 0 0 1 3.44 0l8.6 8.56a2.43 2.43 0 0 1-1.72 4.16c-.62 0-1.25-.23-1.72-.71l-4.47-4.43v17.28h17.22l-4.42-4.3a2.32 2.32 0 0 1-.01-3.35 2.43 2.43 0 0 1 3.44-.01l8.61 8.56c.46.45.72 1.07.72 1.72z"/></svg>