<svg xmlns="http://www.w3.org/2000/svg" width="25" height="32" viewBox="0 0 25 32"><path fill="#0a6f32" d="M6.99 32v-5.35c0-.23-.06-.36-.27-.5-3.25-2.06-5.26-4.99-5.65-8.83-.5-4.94 1.5-8.77 5.64-11.5.2-.14.29-.27.28-.52V.33 0H19v5.33c0 .23.06.35.26.47 3.25 2.07 5.27 5 5.65 8.84.5 4.94-1.48 8.77-5.62 11.5-.22.15-.3.28-.3.54.02 1.78.01 3.55.01 5.32H7zm6.05-26.02a10.01 10.01 0 1 0-.1 20.02 10.01 10.01 0 0 0 .1-20.02zM9.02 27.27v2.7h7.97v-2.7c-1.3.44-2.61.72-3.97.72a12.1 12.1 0 0 1-4-.72zM9 4.71c2.68-.98 5.33-.97 7.98 0V1.99H9.01v2.72zM13 15.99h4.88c.67 0 1.13.4 1.13.99s-.45 1-1.11 1h-5.82c-.67 0-1.08-.4-1.08-1.06V9.07c0-.64.4-1.09 1-1.09.59 0 1 .45 1 1.11V16z"/></svg>