<svg xmlns="http://www.w3.org/2000/svg" width="27" height="30" viewBox="0 0 27 30"><path fill="#0a6f32" d="M14 30c-.86-.85-1.72-1.66-2.53-2.51-.82-.86-1.66-1.68-2.87-1.98-4.15-2-6.72-5.21-7.44-9.71A12.8 12.8 0 0 1 11.21 1.3a13.08 13.08 0 0 1 14.6 7.17 12.79 12.79 0 0 1-7.58 17.5c-.16.06-.31.16-.43.28L14 30zm9.65-16.15A9.6 9.6 0 0 0 14 4.32a9.61 9.61 0 0 0-9.65 9.49A9.61 9.61 0 0 0 14 23.37c5.3 0 9.64-4.28 9.65-9.53zm-8.16 4.58h.9v1.46h-4.76v-1.45h.86v-5.3h-.86v-1.46l.3-.01h3.23c.26-.01.34.05.34.32V18.43zM14 10.75c-.82 0-1.49-.65-1.5-1.46a1.5 1.5 0 0 1 3 0c-.02.81-.68 1.46-1.5 1.46z"/></svg>