<svg xmlns="http://www.w3.org/2000/svg" width="30" height="29" viewBox="0 0 30 29"><path fill="#0a6f32" d="M27.49 11.5h.37c.88-.04 1.44.4 1.77 1.16.3.7.4 1.44.37 2.19a7.67 7.67 0 0 1-1.07 3.84c-.41.67-.94 1.24-1.78 1.37-.32.05-.65 0-.97.04a.75.75 0 0 0-.39.17l-1.32 1.2c-.14.13-.27.27-.34.43a14.72 14.72 0 0 1-3.95 5.3 7.16 7.16 0 0 1-4.99 1.8 7.5 7.5 0 0 1-4.7-2.07A15.19 15.19 0 0 1 6.53 21c-.08-.2-.17-.38-.22-.58-.06-.27-.21-.34-.49-.33-.46.03-.93 0-1.4.02-.86.04-1.51-.33-2.02-.97a6.58 6.58 0 0 1-1.25-3.04 6.43 6.43 0 0 1 .05-2.9c.1-.32.24-.65.42-.94.34-.54.71-.7 1.58-.76v-.32a9.9 9.9 0 0 1 .66-3.88 3.94 3.94 0 0 1 2.4-2.43.79.79 0 0 0 .36-.3A9.12 9.12 0 0 1 13.56.13c2.2-.29 4.37-.1 6.46.67 2.45.9 4.15 2.62 5.38 4.85.11.2.3.39.49.52.83.57 1.26 1.4 1.4 2.34.14.87.14 1.77.2 2.66v.33zm-5.5 11.3h-.16c-1.16.42-2.35.69-3.57.87-.1.01-.2.13-.24.22-.28.6-.75.92-1.42.93-.37.01-.75.01-1.12 0A1.49 1.49 0 0 1 14 23.36c0-.8.66-1.46 1.5-1.47h1.12c.5 0 .92.2 1.2.61.13.2.27.22.46.19 1.4-.21 2.77-.56 4.08-1.13a.96.96 0 0 0 .53-.55c.86-2 1.4-4.08 1.6-6.25.14-1.62.06-3.23-.43-4.8a7.1 7.1 0 0 0-1.21-2.4c-3.15 2.48-6.67 2.83-10.48 1.84l.12.09.25.1a13.14 13.14 0 0 0 7.8.25c.42-.12.78.06.9.44.12.37-.08.72-.49.86l-.15.04c-2.97.81-5.9.63-8.77-.4a7.8 7.8 0 0 1-3.47-2.32c-.14-.16-.26-.34-.4-.51a6.39 6.39 0 0 0-1.97 4.6c.13 3.15.86 6.16 2.18 9.02.83 1.8 1.95 3.4 3.55 4.65a5.48 5.48 0 0 0 7.11.03c.96-.73 1.73-1.63 2.41-2.6l.54-.84z"/></svg>