<?xml version="1.0" encoding="utf-8"?><svg xmlns="http://www.w3.org/2000/svg" xmlns:xlink="http://www.w3.org/1999/xlink"><symbol viewBox="0 0 13 13" id="Forma_1" xmlns="http://www.w3.org/2000/svg"><defs><path id="aa" d="M1235 390.5c0 3.6-2.9 6.5-6.5 6.5s-6.5-2.9-6.5-6.5 2.9-6.5 6.5-6.5 6.5 2.9 6.5 6.5zm-2.75-2.42l-.41-.42a.29.29 0 0 0-.41 0h-.03l-3.96 4.11a.14.14 0 0 1-.21 0l-1.63-1.74-.03-.03a.29.29 0 0 0-.4 0l-.42.41a.32.32 0 0 0-.1.2c0 .07.04.16.1.21l.06.06 2.3 2.49c.03.05.12.08.2.08.1 0 .16-.03.21-.08l4.73-4.9c.12-.13.12-.3 0-.4z"/></defs><use xlink:href="#aa" transform="translate(-1222 -384)"/></symbol><symbol viewBox="0 0 15 28" id="arr-next" xmlns="http://www.w3.org/2000/svg"><defs><path id="ba" d="M1203.69 3666.71c-.2.2-.43.29-.7.29a.99.99 0 0 1-.7-1.69l12.32-12.31-12.32-12.31a.99.99 0 1 1 1.4-1.4l13.02 13.01a.99.99 0 0 1 0 1.4z"/></defs><use xlink:href="#ba" transform="translate(-1202 -3639)"/></symbol><symbol viewBox="0 0 15 28" id="arr-prev" xmlns="http://www.w3.org/2000/svg"><defs><path id="ca" d="M667.31 3666.71c.2.2.43.29.7.29a.99.99 0 0 0 .7-1.69L656.4 3653l12.32-12.31a.99.99 0 1 0-1.4-1.4l-13.02 13.01a.99.99 0 0 0 0 1.4z"/></defs><use xlink:href="#ca" transform="translate(-654 -3639)"/></symbol><symbol viewBox="0 0 21 21" id="basket" xmlns="http://www.w3.org/2000/svg"><defs><path id="da" d="M1191.78 122.05c.18.24.25.53.2.87l-.87 5.25a1 1 0 0 1-.36.68c-.21.18-.45.26-.71.26h-12.83l-.26 1.5h12.23c.3 0 .55.1.77.32.21.22.32.5.32.81 0 .32-.1.6-.32.81-.22.22-.47.33-.77.33h-13.53c-.32 0-.6-.14-.83-.41a1.2 1.2 0 0 1-.26-.94l.58-3.28-.88-9.22-2.5-.82c-.3-.1-.5-.28-.64-.55a1.24 1.24 0 0 1-.08-.87c.1-.3.28-.52.55-.66s.54-.17.82-.09l3.2 1.07c.2.06.36.18.5.36.13.17.2.37.24.6l.18 1.83 14.5 1.7c.33.04.58.2.75.45zm-14.48 11.45c.46 0 .86.17 1.18.51.32.34.49.75.49 1.23s-.17.9-.5 1.24c-.31.35-.7.52-1.17.52s-.86-.17-1.18-.52a1.75 1.75 0 0 1-.49-1.24 1.7 1.7 0 0 1 1.67-1.74zm9.89 0c.46 0 .86.17 1.18.51.33.34.49.75.49 1.23s-.16.9-.49 1.24c-.32.35-.72.52-1.18.52-.46 0-.86-.17-1.18-.52a1.75 1.75 0 0 1-.49-1.24 1.7 1.7 0 0 1 1.67-1.74z"/></defs><use xlink:href="#da" transform="translate(-1171 -116)"/></symbol><symbol viewBox="0 0 344.96 344.96" id="check" xmlns="http://www.w3.org/2000/svg"><g data-name="Слой 2"><path d="M321.85 86.24l-40-23.11-23.1-40H212.5L172.48 0l-40 23.11H86.24l-23.11 40-40 23.1v46.21L0 172.48l23.11 40v46.21l40 23.11 23.11 40h46.21l40 23.1 40-23.11h46.21l23.11-40 40-23.11V212.5l23.11-40-23.11-40V86.24zM156.91 243.07a16.79 16.79 0 0 1-23.34 0l-50.45-50.44a16.19 16.19 0 0 1 0-22.89l13.35-13.35a16.19 16.19 0 0 1 22.89 0l25.87 25.87 80.34-80.35a16.19 16.19 0 0 1 22.89 0l13.35 13.35a16.19 16.19 0 0 1 0 22.89z" data-name="Capa 1"/></g></symbol><symbol viewBox="0 0 13 13" id="check-circle" xmlns="http://www.w3.org/2000/svg"><defs><path id="fa" d="M1235 390.5c0 3.6-2.9 6.5-6.5 6.5s-6.5-2.9-6.5-6.5 2.9-6.5 6.5-6.5 6.5 2.9 6.5 6.5zm-2.75-2.42l-.41-.42a.29.29 0 0 0-.41 0h-.03l-3.96 4.11a.14.14 0 0 1-.21 0l-1.63-1.74-.03-.03a.29.29 0 0 0-.4 0l-.42.41a.32.32 0 0 0-.1.2c0 .07.04.16.1.21l.06.06 2.3 2.49c.03.05.12.08.2.08.1 0 .16-.03.21-.08l4.73-4.9c.12-.13.12-.3 0-.4z"/></defs><use xlink:href="#fa" transform="translate(-1222 -384)"/></symbol><symbol viewBox="0 0 14 14" id="close" xmlns="http://www.w3.org/2000/svg"><path fill-rule="evenodd" clip-rule="evenodd" d="M6.867 7.707l5.565 5.565.707-.707L7.574 7l5.565-5.565-.707-.707-5.565 5.565L1.302.728l-.707.707L6.16 7 .595 12.565l.707.707 5.565-5.565z"/></symbol><symbol viewBox="0 0 17 16" id="like" xmlns="http://www.w3.org/2000/svg"><defs><path id="ha" d="M1215.97 11.77c-.24-2.77-2.18-4.77-4.6-4.77-1.61 0-3.09.88-3.92 2.28a4.4 4.4 0 0 0-3.82-2.28c-2.42 0-4.36 2-4.6 4.77-.02.12-.1.76.14 1.81a7.8 7.8 0 0 0 2.35 3.98l5.93 5.44 6.02-5.44a7.8 7.8 0 0 0 2.36-3.98c.24-1.05.16-1.69.14-1.81z"/><clipPath id="hb"><use xlink:href="#ha"/></clipPath></defs><g transform="translate(-1199 -7)"><use xlink:href="#ha"/><use fill-opacity="0" stroke-miterlimit="50" stroke-width="2" clip-path="url(#hb)" xlink:href="#ha"/></g></symbol><symbol viewBox="0 0 17 17" id="search" xmlns="http://www.w3.org/2000/svg"><defs><path id="ia" d="M1113.58 134.58a1.4 1.4 0 0 1-2 0l-3.7-3.69-.05-.06a6.99 6.99 0 1 1 2-2l.06.05 3.7 3.7c.55.55.55 1.45 0 2zm-5.02-9.6a4.57 4.57 0 1 0-9.14 0 4.57 4.57 0 0 0 9.14 0z"/></defs><use xlink:href="#ia" transform="translate(-1097 -118)"/></symbol><symbol viewBox="0 0 8 9" id="toggle" xmlns="http://www.w3.org/2000/svg"><defs><path id="ja" d="M845 1481.5l-8-4.5v9l8-4.5"/></defs><use xlink:href="#ja" transform="translate(-837 -1477)"/></symbol><symbol viewBox="0 0 21 20" id="view-1" xmlns="http://www.w3.org/2000/svg"><defs><path id="ka" d="M1227.32 540h-3.7a.62.62 0 0 1-.62-.62v-3.76c0-.34.28-.62.62-.62h3.7c.34 0 .62.28.62.62v3.76c0 .34-.28.62-.62.62zm8.03 0h-3.7a.62.62 0 0 1-.62-.62v-3.76c0-.34.28-.62.62-.62h3.7c.34 0 .62.28.62.62v3.76c0 .34-.28.62-.62.62zm8.03 0h-3.7a.62.62 0 0 1-.62-.62v-3.76c0-.34.28-.62.62-.62h3.7c.34 0 .62.28.62.62v3.76c0 .34-.28.62-.62.62zm-16.06 7.5h-3.7a.62.62 0 0 1-.62-.62v-3.75c0-.35.28-.63.62-.63h3.7c.34 0 .62.28.62.63v3.75c0 .34-.28.62-.62.62zm8.03 0h-3.7a.62.62 0 0 1-.62-.62v-3.75c0-.35.28-.63.62-.63h3.7c.34 0 .62.28.62.63v3.75c0 .34-.28.62-.62.62zm8.03 0h-3.7a.62.62 0 0 1-.62-.62v-3.75c0-.35.28-.63.62-.63h3.7c.34 0 .62.28.62.63v3.75c0 .34-.28.62-.62.62zm-16.06 7.5h-3.7a.62.62 0 0 1-.62-.62v-3.75c0-.35.28-.63.62-.63h3.7c.34 0 .62.28.62.63v3.75c0 .34-.28.62-.62.62zm8.03 0h-3.7a.62.62 0 0 1-.62-.62v-3.75c0-.35.28-.63.62-.63h3.7c.34 0 .62.28.62.63v3.75c0 .34-.28.62-.62.62zm8.03 0h-3.7a.62.62 0 0 1-.62-.62v-3.75c0-.35.28-.63.62-.63h3.7c.34 0 .62.28.62.63v3.75c0 .34-.28.62-.62.62z"/></defs><use xlink:href="#ka" transform="translate(-1223 -535)"/></symbol><symbol viewBox="0 0 22 21" id="view-2" xmlns="http://www.w3.org/2000/svg"><defs><path id="la" d="M1262.33 543.4h-6.29c-.57 0-1.04-.47-1.04-1.05v-6.3c0-.58.47-1.05 1.04-1.05h6.3c.57 0 1.04.47 1.04 1.05v6.3c0 .58-.47 1.05-1.05 1.05zm13.62 0h-6.28c-.58 0-1.05-.47-1.05-1.05v-6.3c0-.58.47-1.05 1.05-1.05h6.28c.58 0 1.05.47 1.05 1.05v6.3c0 .58-.47 1.05-1.05 1.05zm-13.62 12.6h-6.29c-.57 0-1.04-.47-1.04-1.05v-6.3c0-.58.47-1.05 1.04-1.05h6.3c.57 0 1.04.47 1.04 1.05v6.3c0 .58-.47 1.05-1.05 1.05zm13.62 0h-6.28c-.58 0-1.05-.47-1.05-1.05v-6.3c0-.58.47-1.05 1.05-1.05h6.28c.58 0 1.05.47 1.05 1.05v6.3c0 .58-.47 1.05-1.05 1.05z"/></defs><use xlink:href="#la" transform="translate(-1255 -535)"/></symbol><symbol viewBox="0 0 22 21" id="view-3" xmlns="http://www.w3.org/2000/svg"><defs><path id="ma" d="M1288 540v-5h22v5zm0 16v-5h22v5zm0-8v-5h22v5z"/></defs><use xlink:href="#ma" transform="translate(-1288 -535)"/></symbol></svg>