<svg xmlns="http://www.w3.org/2000/svg" width="50" height="50" viewBox="0 0 50 50"><path fill="#671fba" d="M25 0c-4.17 0-8.3 1.05-11.95 3.04a.99.99 0 0 0-.4 1.34 1 1 0 0 0 1.35.4A23.05 23.05 0 0 1 48.02 25 23.05 23.05 0 0 1 25 48.02 23.05 23.05 0 0 1 1.98 25c0-6.2 2.43-12.02 6.85-16.38a.99.99 0 0 0 0-1.4 1 1 0 0 0-1.4 0A24.81 24.81 0 0 0 0 25c0 13.78 11.22 25 25 25 13.79 0 25-11.22 25-25C50 11.21 38.79 0 25 0zm-8.72 39.28a1 1 0 0 0 1.38.24l19.49-13.71a1 1 0 0 0 .42-.81 1 1 0 0 0-.42-.81L17.66 10.48a1 1 0 0 0-1.56.81v18.74a.99.99 0 1 0 1.98 0V13.2L34.86 25 16.52 37.9a.99.99 0 0 0-.24 1.38z"/></svg>