<svg width="40" height="40" viewBox="0 0 40 40" fill="none" xmlns="http://www.w3.org/2000/svg">
<path d="M37.5 40H2.5C1.12152 40 0 38.8785 0 37.5V25.8334C0 25.3732 0.37323 25 0.833435 25C1.29333 25 1.66656 25.3732 1.66656 25.8334V37.5C1.66656 37.9584 2.0401 38.3334 2.5 38.3334H37.5C37.9599 38.3334 38.3334 37.9584 38.3334 37.5V2.5C38.3334 2.04163 37.9599 1.66656 37.5 1.66656H25.8334C25.3732 1.66656 25 1.29333 25 0.833435C25 0.37323 25.3732 0 25.8334 0H37.5C38.8785 0 40 1.12152 40 2.5V37.5C40 38.8785 38.8785 40 37.5 40Z" fill="white"/>
<path d="M34.1667 35.0001C33.9534 35.0001 33.74 34.9183 33.5768 34.7568L23.5768 24.7568C23.2518 24.4318 23.2518 23.9033 23.5768 23.5782C23.9018 23.2535 24.43 23.2535 24.7551 23.5782L34.755 33.5782C35.0801 33.9033 35.0801 34.4318 34.755 34.7568C34.5933 34.9183 34.38 35.0001 34.1667 35.0001Z" fill="white"/>
<path d="M24.1666 31.6666C23.7067 31.6666 23.3335 31.2934 23.3335 30.8335V24.1666C23.3335 23.7067 23.7067 23.3335 24.1666 23.3335H30.8335C31.2934 23.3335 31.6666 23.7067 31.6666 24.1666C31.6666 24.6268 31.2934 25.0001 30.8335 25.0001H25.0001V30.8335C25.0001 31.2934 24.6268 31.6666 24.1666 31.6666Z" fill="white"/>
<path d="M20.8334 23.3334H17.5C17.0401 23.3334 16.6666 22.9599 16.6666 22.5C16.6666 22.0401 17.0401 21.6666 17.5 21.6666H20.8334C20.9149 21.6666 20.9933 21.655 21.0666 21.6333C21.5115 21.5051 21.9717 21.7532 22.1017 22.1967C22.2318 22.6382 21.98 23.1018 21.5384 23.2318C21.3116 23.2983 21.0751 23.3334 20.8334 23.3334ZM12.5 23.3334H9.16656C8.70667 23.3334 8.33344 22.9599 8.33344 22.5C8.33344 22.0401 8.70667 21.6666 9.16656 21.6666H12.5C12.9599 21.6666 13.3334 22.0401 13.3334 22.5C13.3334 22.9599 12.9599 23.3334 12.5 23.3334ZM4.16656 23.3334H2.5C1.64337 23.3334 0.858459 22.9034 0.396729 22.1832C0.148315 21.7966 0.26001 21.2799 0.648193 21.0333C1.03821 20.7834 1.55182 20.8966 1.79993 21.2851C1.95343 21.5234 2.21497 21.6666 2.5 21.6666H4.16656C4.62677 21.6666 5 22.0401 5 22.5C5 22.9599 4.62677 23.3334 4.16656 23.3334ZM22.5 18.8083C22.0401 18.8083 21.6666 18.4351 21.6666 17.9749V14.6417C21.6666 14.1815 22.0401 13.8083 22.5 13.8083C22.9599 13.8083 23.3334 14.1815 23.3334 14.6417V17.9749C23.3334 18.4366 22.9599 18.8083 22.5 18.8083ZM0.833435 17.6184C0.37323 17.6184 0 17.2449 0 16.785V13.4515C0 12.9916 0.37323 12.6184 0.833435 12.6184C1.29333 12.6184 1.66656 12.9916 1.66656 13.4515V16.785C1.66656 17.2467 1.29333 17.6184 0.833435 17.6184ZM22.5 10.4749C22.0401 10.4749 21.6666 10.1016 21.6666 9.64172V6.30829C21.6666 5.84839 22.0401 5.47485 22.5 5.47485C22.9599 5.47485 23.3334 5.84839 23.3334 6.30829V9.64172C23.3334 10.1035 22.9599 10.4749 22.5 10.4749ZM0.833435 9.28497C0.37323 9.28497 0 8.91174 0 8.45154V5.11841C0 4.6582 0.37323 4.28497 0.833435 4.28497C1.29333 4.28497 1.66656 4.6582 1.66656 5.11841V8.45154C1.66656 8.91327 1.29333 9.28497 0.833435 9.28497ZM22.0917 2.24152C21.8582 2.24152 21.6266 2.14325 21.4633 1.95496C21.3049 1.77002 21.0751 1.66656 20.8334 1.66656H18.9282C18.4683 1.66656 18.0951 1.29333 18.0951 0.833435C18.0951 0.37323 18.4683 0 18.9282 0H20.8334C21.5582 0 22.2467 0.313416 22.7216 0.861816C23.0234 1.21002 22.9868 1.73492 22.6382 2.03827C22.4799 2.17499 22.2867 2.24152 22.0917 2.24152ZM2.37488 1.67664C1.96014 1.67664 1.5567 1.38153 1.49658 0.968323C1.43005 0.513306 1.68671 0.0949097 2.14172 0.0265503C2.25677 0.0100708 2.37671 0 2.5 0H5.59509C6.05499 0 6.42822 0.37323 6.42822 0.833435C6.42822 1.29333 6.05499 1.66656 5.59509 1.66656H2.5C2.45819 1.67328 2.41669 1.67664 2.37488 1.67664ZM13.9282 1.66656H10.5951C10.1349 1.66656 9.76166 1.29333 9.76166 0.833435C9.76166 0.37323 10.1349 0 10.5951 0H13.9282C14.3884 0 14.7617 0.37323 14.7617 0.833435C14.7617 1.29333 14.3884 1.66656 13.9282 1.66656Z" fill="white"/>
</svg>
