<svg width="38" height="38" viewBox="0 0 38 38" fill="none" xmlns="http://www.w3.org/2000/svg">
<g clip-path="url(#clip0)">
<path d="M35.332 1.69226H30.9995C30.6919 1.69226 30.4429 1.9413 30.4429 2.2489C30.4429 2.55621 30.6919 2.80554 30.9995 2.80554H35.332C35.4344 2.80554 35.5176 2.88875 35.5176 2.99109V24.801C35.5176 25.1083 35.7669 25.3576 36.0742 25.3576C36.3818 25.3576 36.6309 25.1083 36.6309 24.801V2.99109C36.6309 2.2747 36.0484 1.69226 35.332 1.69226Z" fill="white"/>
<path d="M36.0744 26.6684C35.7671 26.6684 35.5178 26.9174 35.5178 27.225V34.7336C35.5178 35.8799 34.5854 36.8126 33.4391 36.8126C32.2927 36.8126 31.3604 35.8799 31.3604 34.7336V22.3521C31.3604 20.592 29.9282 19.1601 28.1681 19.1601C26.408 19.1601 24.9761 20.592 24.9761 22.3521V26.1172C24.9761 27.2636 24.0434 28.196 22.8974 28.196C21.751 28.196 20.8184 27.2636 20.8184 26.1172V23.3387L23.6517 20.505C24.0385 20.1186 24.1687 19.5727 24.0463 19.0772L30.875 12.2485C31.4621 11.6614 31.4621 10.7058 30.875 10.1187L23.5616 2.80558H28.5754C28.883 2.80558 29.1321 2.55625 29.1321 2.24894C29.1321 1.94134 28.883 1.6923 28.5754 1.6923H22.4483L21.1225 0.366215C20.5351 -0.220867 19.5799 -0.220867 18.9928 0.366215L12.1646 7.19406C12.0469 7.16506 11.9255 7.14825 11.8008 7.14825C11.3987 7.14825 11.0203 7.3048 10.7359 7.58921L7.78254 10.5429C7.19546 11.13 7.19546 12.0852 7.78254 12.6723L11.6993 16.5894C9.97954 18.2692 7.96142 19.7965 5.69456 21.131C5.03529 21.5192 4.40675 22.0103 3.82604 22.5907C2.77886 23.6382 2.01522 24.8561 1.67601 26.0204C1.30347 27.3001 1.47771 28.3847 2.16713 29.0741C2.62694 29.5339 3.25809 29.7589 3.98694 29.7589C5.05384 29.7586 6.32948 29.2762 7.57989 28.3429C7.82603 28.1588 7.87677 27.8101 7.69296 27.5639C7.50886 27.3175 7.16009 27.2668 6.91395 27.4509C5.32259 28.6384 3.6576 28.99 2.95426 28.287C2.57099 27.9034 2.49474 27.1911 2.74494 26.3318C3.03254 25.3443 3.69616 24.2954 4.61346 23.3781C5.12748 22.8641 5.68122 22.4307 6.25932 22.0906C8.60765 20.708 10.7006 19.1227 12.4865 17.3768L13.8644 18.7545C12.1183 20.5407 10.5333 22.6336 9.15066 24.9819C8.97787 25.2753 8.77464 25.5708 8.54618 25.8598C8.35571 26.101 8.39688 26.4512 8.63809 26.6417C8.74014 26.7223 8.8619 26.7614 8.9828 26.7614C9.14718 26.7614 9.31012 26.689 9.42 26.5498C9.67976 26.221 9.91198 25.8836 10.11 25.5467C11.4448 23.2795 12.9721 21.2614 14.6518 19.5416L18.5686 23.4584C18.853 23.7431 19.2311 23.8997 19.6335 23.8997C19.6576 23.8997 19.6813 23.8973 19.7051 23.8962V26.1172C19.7051 27.8773 21.1373 29.3092 22.8974 29.3092C24.6575 29.3092 26.0894 27.8773 26.0894 26.1172V22.3521C26.0894 21.206 27.022 20.2734 28.1684 20.2734C29.3144 20.2734 30.2471 21.2058 30.2471 22.3521V34.7336C30.2471 36.494 31.679 37.9259 33.4391 37.9259C35.1994 37.9259 36.6313 36.494 36.6313 34.7336V27.225C36.6311 26.9174 36.382 26.6684 36.0744 26.6684ZM19.7799 1.15334C19.933 1.00026 20.182 1.00026 20.3351 1.15334L30.0876 10.9062C30.2407 11.0589 30.2407 11.3083 30.0876 11.4611L23.4126 18.1361L20.8088 15.5324L21.9366 14.4046C22.154 14.1869 22.154 13.8346 21.9366 13.6172C21.7192 13.4 21.3666 13.4 21.1495 13.6172L20.0214 14.745L16.0791 10.8027L17.2072 9.67488C17.4246 9.45773 17.4246 9.10519 17.2072 8.88775C16.9897 8.6706 16.6372 8.67031 16.42 8.88775L15.292 10.0155L14.6921 9.41569L19.1314 4.97648C19.3488 4.75875 19.3488 4.4065 19.1314 4.18906C18.9139 3.97163 18.5614 3.97163 18.3442 4.18906L13.9047 8.62828L13.1048 7.8284L19.7799 1.15334ZM19.356 22.6713L8.56967 11.8852C8.41659 11.7321 8.41659 11.4831 8.56967 11.33L11.5233 8.37663C11.5976 8.30241 11.6961 8.26153 11.8008 8.26153C11.9057 8.26153 12.0043 8.30241 12.0785 8.37663L22.8646 19.1627C23.0177 19.3158 23.0177 19.5648 22.8646 19.7179L19.9112 22.6713C19.837 22.7455 19.7384 22.7864 19.6335 22.7864C19.5285 22.7864 19.4303 22.7455 19.356 22.6713Z" fill="white"/>
<path d="M12.452 12.9007C12.2345 12.6833 11.882 12.6833 11.6645 12.9007C11.4471 13.1182 11.4471 13.4704 11.6645 13.6879L17.5533 19.5767C17.6621 19.6851 17.8044 19.7396 17.9471 19.7396C18.0894 19.7396 18.2317 19.6851 18.3405 19.5767C18.5579 19.3589 18.5579 19.0067 18.3405 18.7893L12.452 12.9007Z" fill="white"/>
<path d="M32.9174 13.4542H32.9117C32.604 13.4542 32.3579 13.7033 32.3579 14.0109C32.3579 14.3185 32.6098 14.5675 32.9174 14.5675C33.2251 14.5675 33.4741 14.3185 33.4741 14.0109C33.4741 13.7033 33.2251 13.4542 32.9174 13.4542Z" fill="white"/>
<path d="M33.3759 14.9757C33.0683 14.9798 32.8254 15.232 32.8291 15.5393C32.8329 15.8443 33.0843 16.089 33.3884 16.089H33.3956C33.703 16.0849 33.9491 15.8327 33.9453 15.5254C33.9416 15.2204 33.6931 14.9757 33.3887 14.9757C33.3864 14.9757 33.384 14.9757 33.3817 14.9757H33.3759Z" fill="white"/>
<path d="M29.9209 16.6906C29.6133 16.6906 29.3672 16.9396 29.3672 17.2472C29.3672 17.5545 29.6191 17.8038 29.9267 17.8038C30.2343 17.8038 30.4834 17.5545 30.4834 17.2472C30.4834 16.9396 30.2343 16.6906 29.9267 16.6906H29.9209Z" fill="white"/>
</g>
<defs>
<clipPath id="clip0">
<rect width="38" height="38" fill="white"/>
</clipPath>
</defs>
</svg>
