<svg width="40" height="40" viewBox="0 0 40 40" fill="none" xmlns="http://www.w3.org/2000/svg">
<path d="M25.8019 39.9999H13.0158C12.7196 39.9999 12.4591 39.8031 12.378 39.5179C12.2976 39.2324 12.4159 38.9283 12.6684 38.7732C12.6972 38.7543 16.216 36.3605 17.1726 26.1737C17.2068 25.81 17.5207 25.542 17.8946 25.5761C18.259 25.6102 18.5263 25.9333 18.4925 26.2976C17.8184 33.4709 15.9013 37.0374 14.6102 38.6746H24.2071C22.9156 37.0374 20.9989 33.4709 20.3251 26.2973C20.2913 25.9329 20.5587 25.6098 20.923 25.5757C21.2924 25.5431 21.6109 25.8096 21.645 26.1737C22.6126 36.4834 26.1136 38.7512 26.1492 38.7732C26.4014 38.9287 26.52 39.2324 26.4389 39.5179C26.3585 39.8031 26.0984 39.9999 25.8019 39.9999Z" fill="white"/>
<path d="M19.4092 26.8982C16.8342 26.8982 14.3639 25.8783 12.5291 24.0779C11.66 24.8173 10.5543 25.2302 9.4024 25.2302C6.73794 25.2302 4.56982 23.0629 4.56982 20.3984C4.56982 19.0148 5.15148 17.7287 6.15781 16.8209C5.1401 15.7714 4.56982 14.3798 4.56982 12.8934C4.56982 9.9882 6.76752 7.58689 9.58744 7.26384C9.76489 5.06842 11.6088 3.33559 13.8497 3.33559C14.3692 3.33559 14.8792 3.42925 15.3588 3.61125C16.0031 1.49963 17.9642 0 20.2434 0C22.4001 0 24.2983 1.34721 25.0312 3.33597C27.6668 3.36972 29.8004 5.52419 29.8004 8.16779C29.8004 8.23149 29.7993 8.29557 29.7967 8.35965C29.9476 8.34562 30.0989 8.3388 30.2498 8.3388C33.067 8.3388 35.3599 10.6313 35.3599 13.4493C35.3599 14.9243 34.7316 16.3003 33.6476 17.2627C34.39 18.131 34.804 19.237 34.804 20.3984C34.804 23.0629 32.6363 25.2306 29.9718 25.2306C28.6834 25.2306 27.456 24.7119 26.5566 23.8125C24.6998 25.7831 22.1373 26.8982 19.4092 26.8982ZM12.5446 22.4702C12.7342 22.4702 12.9151 22.5514 13.041 22.694C14.66 24.5238 16.9813 25.573 19.4088 25.573C21.9993 25.573 24.4188 24.4097 26.0462 22.3808C26.1771 22.2181 26.3757 22.1184 26.5843 22.1332C26.7917 22.1396 26.9855 22.2435 27.1053 22.4137C27.7631 23.3476 28.8347 23.905 29.9718 23.905C31.9056 23.905 33.4788 22.3318 33.4788 20.3981C33.4788 19.3557 33.0185 18.3736 32.2154 17.7044C32.0535 17.5694 31.9652 17.3647 31.9788 17.1538C31.9921 16.943 32.1047 16.7512 32.2829 16.6374C33.3795 15.9359 34.0347 14.7438 34.0347 13.4489C34.0347 11.362 32.3364 9.66401 30.2494 9.66401C29.8979 9.66401 29.5426 9.71558 29.1926 9.8172C28.9648 9.88242 28.7198 9.82175 28.548 9.65757C28.3774 9.493 28.308 9.24957 28.3657 9.01904C28.4381 8.72973 28.4749 8.44307 28.4749 8.16741C28.4749 6.23362 26.9017 4.66043 24.9683 4.66043C24.8488 4.66043 24.7305 4.66725 24.6141 4.67825C24.2983 4.70934 23.9877 4.49928 23.9066 4.18115C23.4823 2.49952 21.9758 1.32483 20.2426 1.32483C18.3232 1.32483 16.7083 2.76153 16.4861 4.6665C16.4596 4.89476 16.3166 5.09269 16.1085 5.18976C15.9003 5.28758 15.6565 5.27014 15.4646 5.14388C14.9827 4.82764 14.4242 4.66043 13.849 4.66043C12.2219 4.66043 10.8982 5.98413 10.8982 7.61154C10.8982 7.6851 10.9039 7.75752 10.9096 7.82957C10.9233 8.01309 10.8599 8.20002 10.7344 8.33539C10.6093 8.46999 10.4338 8.55265 10.2495 8.55265C10.2491 8.55265 10.2483 8.55265 10.248 8.55265C7.84096 8.55265 5.89466 10.4993 5.89466 12.8927C5.89466 14.2505 6.51688 15.5056 7.60132 16.3363C7.77422 16.4687 7.87091 16.6772 7.8603 16.8941C7.85006 17.1114 7.73403 17.3093 7.54937 17.4246C6.51309 18.0714 5.89466 19.1832 5.89466 20.3977C5.89466 22.3315 7.46785 23.9043 9.40164 23.9043C10.4129 23.9043 11.376 23.4644 12.0445 22.6974C12.1707 22.5533 12.327 22.4589 12.5446 22.4702Z" fill="white"/>
<path d="M20.2429 21.8946C19.8906 21.8946 19.5975 21.6175 19.5816 21.2622C19.0553 9.69281 13.5095 8.55188 13.4534 8.54164C13.0936 8.47642 12.8547 8.13137 12.9199 7.77154C12.9855 7.4117 13.3279 7.17472 13.6904 7.23766C13.9615 7.28695 20.3316 8.58904 20.9053 21.2023C20.9224 21.5678 20.6395 21.8772 20.274 21.8943C20.2634 21.8943 20.2531 21.8946 20.2429 21.8946Z" fill="white"/>
<path d="M18.6982 14.0408C18.3448 14.0408 18.0521 13.7617 18.0369 13.4057C17.9516 11.3638 18.5003 9.7307 19.667 8.55071C21.6144 6.58241 24.5595 6.64991 24.6824 6.65332C25.0479 6.66469 25.3353 6.97069 25.3243 7.33621C25.3125 7.70136 25.0111 7.99408 24.6429 7.97815C24.608 7.97777 22.1373 7.93189 20.6028 9.48954C19.7099 10.3969 19.2916 11.6956 19.361 13.3507C19.3766 13.7162 19.0926 14.0248 18.727 14.04C18.7172 14.0404 18.7081 14.0408 18.6982 14.0408Z" fill="white"/>
<path d="M24.1334 21.8946C23.8085 21.8946 23.5252 21.6565 23.4778 21.3259C23.4676 21.2538 23.2389 19.5437 24.4239 18.3213C25.3252 17.3908 26.7489 17.0249 28.6547 17.238C29.0183 17.2782 29.2807 17.6058 29.2405 17.9694C29.2003 18.3334 28.8689 18.6004 28.5087 18.5549C27.0311 18.3907 25.9777 18.6227 25.376 19.2438C24.6498 19.9927 24.7882 21.1272 24.7901 21.1382C24.8417 21.5007 24.5903 21.8362 24.2278 21.8878C24.196 21.8924 24.1645 21.8946 24.1334 21.8946Z" fill="white"/>
<path d="M13.5711 15.2234C13.2743 15.2237 13.0043 15.0224 12.9288 14.7217C12.6236 13.5004 12.0658 12.6465 11.2707 12.1824C10.1036 11.5002 8.76057 11.8593 8.7473 11.8631C8.39353 11.9598 8.0299 11.7551 7.9317 11.4039C7.83311 11.0528 8.03521 10.6881 8.38595 10.588C8.46216 10.566 10.2617 10.0685 11.9225 11.0278C13.0464 11.6773 13.8176 12.8118 14.2146 14.3998C14.3033 14.7551 14.0876 15.1149 13.7327 15.2036C13.6785 15.2173 13.6246 15.2234 13.5711 15.2234Z" fill="white"/>
</svg>
