<svg width="40" height="40" viewBox="0 0 40 40" fill="none" xmlns="http://www.w3.org/2000/svg">
<g clip-path="url(#clip0)">
<path d="M25.7196 27.4079V26.7114C25.9164 26.5524 26.1057 26.3783 26.2874 26.1966C27.7421 24.5948 28.6582 22.5773 28.9068 20.4278C30.2142 20.2286 31.3926 19.528 32.1924 18.4746C33.2901 16.9227 33.3885 14.6894 32.4725 11.8883C32.4186 11.7268 32.312 11.588 32.1697 11.4946L31.7533 11.2145C31.8147 8.6871 30.9412 6.22592 29.3004 4.30263C27.264 2.00876 24.1373 0.850468 19.9962 0.835327C15.8627 0.835327 12.7285 2.00876 10.6921 4.27235C9.05125 6.19564 8.1778 8.65682 8.23921 11.1842L7.82284 11.4643C7.68051 11.5577 7.57386 11.6965 7.52002 11.858C6.60398 14.6742 6.7024 16.8924 7.80012 18.4444C8.59683 19.5051 9.77528 20.2138 11.0857 20.4203C11.3354 22.5731 12.2542 24.5934 13.7127 26.1966C13.893 26.3779 14.0824 26.5498 14.2805 26.7114V27.4079C11.381 27.9681 -0.194353 30.6859 0.00248041 38.4078C0.00248041 38.8259 0.341451 39.1649 0.759533 39.1649H39.2405C39.6586 39.1649 39.9976 38.8259 39.9976 38.4078C40.1944 30.6859 28.6191 27.9681 25.7196 27.4079ZM10.6315 18.732C9.9882 18.516 9.4275 18.1062 9.02655 17.5586L9.0644 17.5662C8.30735 16.4609 8.23921 14.7878 8.91299 12.5772L9.46564 12.2063C9.69815 12.0511 9.82619 11.7804 9.79874 11.5022C9.67137 9.23956 10.4073 7.01278 11.8579 5.27165C13.5689 3.3336 16.317 2.36457 19.9962 2.34943C23.6755 2.33429 26.4236 3.3336 28.1648 5.27165C29.6155 7.01278 30.3514 9.23956 30.224 11.5022C30.1966 11.7804 30.3246 12.0511 30.5571 12.2063L31.1098 12.5772C31.7836 14.7802 31.7381 16.4609 30.9584 17.5662C30.5547 18.1142 29.9915 18.524 29.3458 18.7396C30.259 17.7006 30.7052 16.332 30.5798 14.9544C30.438 14.1255 30.0059 13.3742 29.361 12.8346C29.0355 5.26408 23.7285 4.41619 21.4422 4.41619C20.9583 4.41477 20.4749 4.45025 19.9962 4.52217C19.5177 4.45016 19.0342 4.41477 18.5503 4.41619C16.2791 4.41619 10.9797 5.24894 10.6315 12.8346C9.98242 13.3698 9.54504 14.1186 9.39751 14.9468C9.27127 16.3245 9.71755 17.6935 10.6315 18.732ZM27.8545 12.5242C24.6778 12.7078 21.5209 11.9153 18.8077 10.2531C18.5006 10.0374 18.0818 10.0793 17.8235 10.3515C16.3094 11.9791 13.5462 12.3577 12.2137 12.4409C12.6226 7.08858 15.8627 5.92272 18.5881 5.92272C19.0219 5.9196 19.4551 5.95508 19.8827 6.02871C19.9826 6.04915 20.0856 6.04915 20.1855 6.02871C20.6131 5.95527 21.0463 5.91979 21.4801 5.92272C24.1827 5.92272 27.4381 7.11886 27.8166 12.5166L27.8545 12.5242ZM12.4787 18.8759L12.509 18.8835C12.5106 18.6968 12.4432 18.5162 12.3197 18.3762C11.2826 17.1877 10.8056 16.1051 10.9343 15.2118C10.996 14.7142 11.2418 14.2578 11.6232 13.9323C12.6226 13.9323 16.1656 13.7431 18.4367 11.7823C20.9945 13.2528 23.8897 14.0353 26.84 14.0535C27.3472 14.0535 27.862 14.0535 28.3995 13.9702C28.7706 14.287 29.0129 14.7286 29.0809 15.2118C29.2096 16.0899 28.7326 17.1877 27.6955 18.3762C27.572 18.5162 27.5046 18.6968 27.5062 18.8835C27.5062 18.8835 27.5062 19.0349 27.5062 19.2771L23.1002 21.6391C22.2258 20.8113 20.8458 20.8491 20.0179 21.7234C19.1901 22.5978 19.2278 23.9779 20.1022 24.8057C20.9766 25.6335 22.3566 25.5958 23.1845 24.7214C23.5681 24.3162 23.7818 23.7793 23.7815 23.2214C23.7849 23.1532 23.7849 23.0851 23.7815 23.017L27.2564 21.1546C26.9581 22.6474 26.2564 24.0299 25.2275 25.1519C23.8854 26.444 22.0688 27.1235 20.2082 27.0293H19.8297C17.9731 27.1215 16.1604 26.4453 14.818 25.1594C12.4257 22.7747 12.4787 18.9137 12.4787 18.8759ZM22.2674 23.2214C22.2674 23.5935 21.9657 23.8951 21.5936 23.8951C21.2215 23.8951 20.9198 23.5935 20.9198 23.2214C20.9198 22.8493 21.2215 22.5476 21.5936 22.5476C21.9657 22.5476 22.2674 22.8493 22.2674 23.2214ZM19.2392 37.6054H1.5393C2.13737 31.9199 11.381 29.5428 14.2729 28.9295V30.2847C14.2729 32.0032 16.3624 33.3129 19.2392 33.5324V37.6054ZM15.787 30.2847V30.262V27.6728C17.0454 28.2564 18.4201 28.5464 19.807 28.5207H20.1855C21.5724 28.5464 22.947 28.2564 24.2055 27.6728V30.2847C24.2055 31.0039 22.5627 32.041 19.9962 32.041C17.4298 32.041 15.787 31.0039 15.787 30.2847ZM20.7533 37.6281V33.5249C23.6301 33.328 25.7196 32.0107 25.7196 30.2771V28.9523C28.6342 29.5579 37.8324 31.935 38.4532 37.6281H20.7533Z" fill="white"/>
</g>
<defs>
<clipPath id="clip0">
<rect width="40" height="40" fill="white"/>
</clipPath>
</defs>
</svg>
