<svg width="41" height="40" viewBox="0 0 41 40" fill="none" xmlns="http://www.w3.org/2000/svg">
<path d="M38.1298 18.0753L37.0681 13.9319C37.3584 13.8718 37.5762 13.6205 37.5762 13.3195V12.6514C37.5762 11.201 36.3666 10.021 34.8799 10.021H30.0439V8.64301C30.0439 7.92926 29.4487 7.34863 28.7171 7.34863H4.06573C3.33413 7.34863 2.73899 7.92926 2.73899 8.64301V20C2.73899 20.3459 3.02639 20.6264 3.38098 20.6264C3.73548 20.6264 4.02296 20.346 4.02296 20V8.64301C4.02296 8.61996 4.0421 8.60129 4.06573 8.60129H28.7171C28.7407 8.60129 28.7598 8.61996 28.7598 8.64301V20.0002C28.7598 20.3461 29.0472 20.6265 29.4018 20.6265C29.7563 20.6265 30.0438 20.3461 30.0438 20.0002V19.2902H37.6167C37.6173 19.2902 37.6178 19.2904 37.6184 19.2904C37.619 19.2904 37.6196 19.2903 37.6201 19.2903C38.552 19.2909 39.3433 19.8876 39.615 20.7099H37.6189C37.2644 20.7099 36.9769 20.9903 36.9769 21.3362V22.6723C36.9769 23.7544 37.8792 24.6347 38.9884 24.6347H39.7159V27.3904H38.0373C37.4859 25.8371 35.9724 24.7182 34.195 24.7182C32.4177 24.7182 30.9041 25.8371 30.3527 27.3904H30.0436V22.6722C30.0436 22.3264 29.7562 22.0459 29.4016 22.0459C29.0471 22.0459 28.7597 22.3263 28.7597 22.6722V27.3903H15.4404C14.889 25.8369 13.3754 24.718 11.5981 24.718C9.82078 24.718 8.30714 25.8369 7.75581 27.3903H4.06573C4.0421 27.3903 4.02296 27.3716 4.02296 27.3486V25.9707H6.8048C7.1593 25.9707 7.44678 25.6903 7.44678 25.3443C7.44678 24.9984 7.15938 24.718 6.8048 24.718H0.641986C0.28748 24.718 0 24.9984 0 25.3443C0 25.6903 0.2874 25.9707 0.641986 25.9707H2.73907V27.3486C2.73907 28.0623 3.33421 28.6429 4.06581 28.6429H7.53351C7.53335 28.6568 7.53239 28.6707 7.53239 28.6847C7.53239 30.8718 9.35633 32.6512 11.5981 32.6512C13.8399 32.6512 15.6638 30.8718 15.6638 28.6847C15.6638 28.6706 15.6629 28.6568 15.6627 28.6429H30.1304C30.1303 28.6568 30.1293 28.6707 30.1293 28.6847C30.1293 30.8718 31.9533 32.6512 34.195 32.6512C36.4368 32.6512 38.2608 30.8718 38.2608 28.6847C38.2608 28.6706 38.2598 28.6568 38.2596 28.6429H40.3579C40.7124 28.6429 40.9999 28.3625 40.9999 28.0166V21.3361C41 19.6867 39.7526 18.3163 38.1298 18.0753ZM30.0439 11.2736H34.8799C35.6587 11.2736 36.2923 11.8917 36.2923 12.6514V12.6932H30.0439V11.2736ZM30.0439 18.0376V13.9457H35.7482L36.7968 18.0376H30.0439ZM11.5981 31.3988C10.0642 31.3988 8.81628 30.1814 8.81628 28.6848C8.81628 27.1882 10.0642 25.9708 11.5981 25.9708C13.132 25.9708 14.3799 27.1882 14.3799 28.6848C14.3799 30.1814 13.132 31.3988 11.5981 31.3988ZM34.1952 31.3988C32.6613 31.3988 31.4134 30.1814 31.4134 28.6848C31.4134 27.1882 32.6613 25.9708 34.1952 25.9708C35.7291 25.9708 36.977 27.1882 36.977 28.6848C36.977 30.1814 35.7291 31.3988 34.1952 31.3988ZM39.7161 23.3821H38.9885C38.5873 23.3821 38.2609 23.0636 38.2609 22.6722V21.9624H39.716V23.3821H39.7161Z" fill="white"/>
<path d="M11.5982 27.3904C10.8666 27.3904 10.2715 27.971 10.2715 28.6848C10.2715 29.3985 10.8666 29.9791 11.5982 29.9791C12.3298 29.9791 12.925 29.3985 12.925 28.6848C12.925 27.971 12.3298 27.3904 11.5982 27.3904Z" fill="white"/>
<path d="M34.1949 27.3904C33.4633 27.3904 32.8682 27.971 32.8682 28.6848C32.8682 29.3985 33.4633 29.9791 34.1949 29.9791C34.9265 29.9791 35.5216 29.3985 35.5216 28.6848C35.5216 27.971 34.9265 27.3904 34.1949 27.3904Z" fill="white"/>
<path d="M26.6632 24.7181H17.0766C16.7221 24.7181 16.4346 24.9985 16.4346 25.3445C16.4346 25.6904 16.722 25.9708 17.0766 25.9708H26.6632C27.0177 25.9708 27.3052 25.6904 27.3052 25.3445C27.3052 24.9985 27.0178 24.7181 26.6632 24.7181Z" fill="white"/>
<path d="M10.2287 22.046H2.01161C1.65711 22.046 1.36963 22.3264 1.36963 22.6723C1.36963 23.0183 1.65703 23.2987 2.01161 23.2987H10.2287C10.5833 23.2987 10.8707 23.0183 10.8707 22.6723C10.8707 22.3264 10.5833 22.046 10.2287 22.046Z" fill="white"/>
<path d="M22.3232 13.5445C22.0725 13.2999 21.666 13.2999 21.4153 13.5446L15.7064 19.1142L12.7365 16.2167C12.4858 15.9721 12.0793 15.9721 11.8287 16.2167C11.5779 16.4613 11.5779 16.8578 11.8287 17.1024L15.2525 20.4427C15.3778 20.5651 15.5421 20.6262 15.7064 20.6262C15.8706 20.6262 16.035 20.5651 16.1603 20.4427L22.3231 14.4303C22.5738 14.1856 22.5738 13.7891 22.3232 13.5445Z" fill="white"/>
</svg>
