<svg width="40" height="40" viewBox="0 0 40 40" fill="none" xmlns="http://www.w3.org/2000/svg">
<path d="M39.6707 11.4252L20.3373 0.0918907C20.134 -0.0267812 19.884 -0.0307655 19.678 0.0832188L0.344687 10.7499C0.132031 10.8666 0 11.0906 0 11.3332V39.3332C0 39.7019 0.298672 39.9999 0.666641 39.9999H4C4.36797 39.9999 4.66664 39.7019 4.66664 39.3332V15.9999H35.3333V39.3333C35.3333 39.702 35.6312 39.9999 35.9999 39.9999H39.3333C39.702 39.9999 39.9999 39.702 39.9999 39.3333V11.9999C40 11.7632 39.8747 11.5445 39.6707 11.4252ZM38.6666 38.6666H36.6666V15.3332C36.6666 14.9652 36.3687 14.6666 36 14.6666H4C3.63203 14.6666 3.33336 14.9652 3.33336 15.3332V38.6666H1.33336V11.7266L19.99 1.43322L38.6666 12.3819V38.6666Z" fill="white"/>
<path d="M33.3331 30.6665H25.3331C24.9645 30.6665 24.6665 30.9645 24.6665 31.3331V39.3331C24.6665 39.7018 24.9645 39.9998 25.3331 39.9998H33.3331C33.7018 39.9998 33.9998 39.7018 33.9998 39.3331V31.3331C33.9998 30.9645 33.7018 30.6665 33.3331 30.6665ZM32.6664 38.6665H25.9998V31.9999H32.6664V38.6665Z" fill="white"/>
<path d="M29.9997 31.3331V33.3331H28.6664V31.3331H27.333V33.9998C27.333 34.3684 27.631 34.6664 27.9996 34.6664H30.6663C31.035 34.6664 31.3329 34.3684 31.3329 33.9998V31.3331H29.9997Z" fill="white"/>
<path d="M25.3331 30.6665H17.3331C16.9652 30.6665 16.6665 30.9645 16.6665 31.3331V39.3331C16.6665 39.7018 16.9652 39.9998 17.3331 39.9998H25.3331C25.7018 39.9998 25.9998 39.7018 25.9998 39.3331V31.3331C25.9998 30.9645 25.7018 30.6665 25.3331 30.6665ZM24.6664 38.6665H17.9998V31.9999H24.6664V38.6665Z" fill="white"/>
<path d="M22.0002 31.3331V33.3331H20.6669V31.3331H19.3335V33.9998C19.3335 34.3684 19.6322 34.6664 20.0001 34.6664H22.6668C23.0354 34.6664 23.3334 34.3684 23.3334 33.9998V31.3331H22.0002Z" fill="white"/>
<path d="M33.3331 22.6665H25.3331C24.9645 22.6665 24.6665 22.9645 24.6665 23.3331V31.3331C24.6665 31.7018 24.9645 31.9998 25.3331 31.9998H33.3331C33.7018 31.9998 33.9998 31.7018 33.9998 31.3331V23.3331C33.9998 22.9645 33.7018 22.6665 33.3331 22.6665ZM32.6664 30.6665H25.9998V23.9999H32.6664V30.6665Z" fill="white"/>
<path d="M29.9997 23.3331V25.3331H28.6664V23.3331H27.333V25.9998C27.333 26.3684 27.631 26.6664 27.9996 26.6664H30.6663C31.035 26.6664 31.3329 26.3684 31.3329 25.9998V23.3331H29.9997Z" fill="white"/>
<path d="M36 19.9998H4V21.3331H36V19.9998Z" fill="white"/>
<path d="M36 17.3331H4V18.6665H36V17.3331Z" fill="white"/>
<path d="M23.3333 9.33313H16.6666C16.2987 9.33313 16 9.6318 16 9.99977V12.6664C16 13.0344 16.2987 13.333 16.6666 13.333H23.3333C23.702 13.333 23.9999 13.0344 23.9999 12.6664V9.99977C23.9999 9.6318 23.702 9.33313 23.3333 9.33313ZM22.6666 11.9998H17.3332V10.6665H22.6666V11.9998Z" fill="white"/>
</svg>
