<svg xmlns="http://www.w3.org/2000/svg" width="24" height="23" viewBox="0 0 24 23"><path fill="#3c6f39" d="M12.6 0C6.8 0 2.1 4.59 2.1 10.24c0 2.37.83 4.55 2.22 6.29l-3.7 3.78c-.6.58-.59 1.5.01 2.07a1.55 1.55 0 0 0 2.15-.02l3.72-3.79a10.64 10.64 0 0 0 6.1 1.91c5.8 0 10.51-4.6 10.51-10.24C23.11 4.59 18.4 0 12.61 0zm0 17.88a7.74 7.74 0 0 1-7.8-7.64c0-4.22 3.5-7.64 7.8-7.64 4.31 0 7.81 3.42 7.81 7.64 0 4.21-3.5 7.64-7.8 7.64zm2.07-12.53a1.2 1.2 0 0 0-1.55.58c-.26.57 0 1.24.6 1.5.08.04 2.05.92 1.81 2.63-.09.62.37 1.19 1.01 1.27l.16.01c.59 0 1.1-.41 1.17-.98.47-3.4-3.05-4.94-3.2-5.01zm.71 7.5c.25.24.4.57.4.92 0 .34-.15.67-.4.91-.25.25-.6.38-.95.38-.36 0-.7-.13-.96-.38-.25-.24-.39-.57-.39-.91 0-.35.14-.68.4-.92a1.4 1.4 0 0 1 1.9 0z"/></svg>