<?xml version="1.0" encoding="UTF-8" standalone="no"?>
<!-- Generator: Adobe Illustrator 17.1.0, SVG Export Plug-In . SVG Version: 6.00 Build 0)  -->

<svg
   xmlns:dc="http://purl.org/dc/elements/1.1/"
   xmlns:cc="http://creativecommons.org/ns#"
   xmlns:rdf="http://www.w3.org/1999/02/22-rdf-syntax-ns#"
   xmlns:svg="http://www.w3.org/2000/svg"
   xmlns="http://www.w3.org/2000/svg"
   xmlns:sodipodi="http://sodipodi.sourceforge.net/DTD/sodipodi-0.dtd"
   xmlns:inkscape="http://www.inkscape.org/namespaces/inkscape"
   version="1.1"
   id="Capa_1"
   x="0px"
   y="0px"
   viewBox="0 0 512 512"
   style="enable-background:new 0 0 512 512;"
   xml:space="preserve"
   width="512px"
   height="512px"
   sodipodi:docname="type-6.svg"
   inkscape:version="0.92.1 r15371"><metadata
     id="metadata49"><rdf:RDF><cc:Work
         rdf:about=""><dc:format>image/svg+xml</dc:format><dc:type
           rdf:resource="http://purl.org/dc/dcmitype/StillImage" /><dc:title></dc:title></cc:Work></rdf:RDF></metadata><defs
     id="defs47" /><sodipodi:namedview
     pagecolor="#ffffff"
     bordercolor="#666666"
     borderopacity="1"
     objecttolerance="10"
     gridtolerance="10"
     guidetolerance="10"
     inkscape:pageopacity="0"
     inkscape:pageshadow="2"
     inkscape:window-width="640"
     inkscape:window-height="480"
     id="namedview45"
     showgrid="false"
     inkscape:zoom="0.4609375"
     inkscape:cx="256"
     inkscape:cy="256"
     inkscape:window-x="0"
     inkscape:window-y="0"
     inkscape:window-maximized="0"
     inkscape:current-layer="Capa_1" /><g
     id="g12"><path
       d="M112,356c-4.418,0-8,3.582-8,8c0,4.411-3.589,8-8,8s-8-3.589-8-8s3.589-8,8-8c4.418,0,8-3.582,8-8s-3.582-8-8-8   c-13.234,0-24,10.767-24,24s10.766,24,24,24s24-10.767,24-24C120,359.582,116.418,356,112,356z"
       fill="#ba0000"
       id="path2" /><path
       d="M432,356c-4.418,0-8,3.582-8,8c0,4.411-3.589,8-8,8s-8-3.589-8-8s3.589-8,8-8c4.418,0,8-3.582,8-8s-3.582-8-8-8   c-13.234,0-24,10.767-24,24s10.766,24,24,24s24-10.767,24-24C440,359.582,436.418,356,432,356z"
       fill="#ba0000"
       id="path4" /><path
       d="M512,252c0-2.231-0.915-4.247-2.388-5.698c-3.421-9.455-10.352-17.394-19.723-22.08c-0.25-0.125-0.505-0.236-0.767-0.334   l-26.439-9.925l-16.106-61.195c-0.023-0.088-0.047-0.176-0.074-0.263C441.389,135.456,425.992,124,408.191,124H352v-16   c0-8.822-7.178-16-16-16H16c-8.822,0-16,7.178-16,16v224c0,8.822,7.178,16,16,16h26.341c-0.775,2.594-1.368,5.265-1.761,8H8   c-4.418,0-8,3.582-8,8s3.582,8,8,8h32.581c3.895,27.102,27.258,48,55.419,48s51.525-20.898,55.419-48H168c0,13.233,10.766,24,24,24   h48c13.234,0,24-10.767,24-24h96.581c3.895,27.102,27.258,48,55.419,48s51.525-20.898,55.419-48H504c4.418,0,8-3.582,8-8   s-3.582-8-8-8h-32.581c-0.393-2.735-0.986-5.406-1.761-8H496c8.822,0,16-7.178,16-16v-72c0-1.88-0.131-3.735-0.383-5.558   C511.864,253.672,512,252.852,512,252z M496,300h-8v-8h8V300z M489.899,244H352v-16h102.549l28.531,10.71   C485.708,240.077,487.998,241.881,489.899,244z M408.191,140c10.638,0,19.846,6.819,22.951,16.982L445.622,212H352v-72H408.191z    M48.001,332H16v-40h248.004c4.418,0,8-3.582,8-8s-3.582-8-8-8H16V108h320v224h-96h-48h-47.998c-0.661,0-1.3,0.089-1.915,0.24   C131.975,317.61,115.092,308,96,308c-19.092,0-35.974,9.61-46.087,24.24C49.299,332.089,48.661,332,48.001,332z M96,404   c-22.056,0-40-17.944-40-40s17.944-40,40-40s40,17.944,40,40S118.056,404,96,404z M151.419,356c-0.393-2.735-0.986-5.406-1.761-8   h19.718c-0.888,2.504-1.376,5.196-1.376,8H151.419z M248,372c0,4.411-3.589,8-8,8h-48c-4.411,0-8-3.589-8-8v-7.981   c0-0.007,0.001-0.013,0.001-0.019S184,363.987,184,363.981V356c0-4.411,3.589-8,8-8h48c4.411,0,8,3.589,8,8V372z M262.624,348H344   h18.341c-0.775,2.594-1.368,5.265-1.761,8H264C264,353.196,263.512,350.504,262.624,348z M416,404c-22.056,0-40-17.944-40-40   s17.944-40,40-40s40,17.944,40,40S438.056,404,416,404z M464,332c-0.66,0-1.299,0.089-1.913,0.24   C451.974,317.61,435.092,308,416,308s-35.974,9.61-46.087,24.24c-0.614-0.151-1.252-0.24-1.912-0.24h-16v-72h144v16h-8   c-8.822,0-16,7.178-16,16v8c0,8.822,7.178,16,16,16h8v16H464z"
       fill="#ba0000"
       id="path6" /><path
       d="M200,356c-2.11,0-4.17,0.859-5.66,2.34c-1.49,1.49-2.34,3.56-2.34,5.66c0,2.109,0.85,4.17,2.34,5.66   c1.49,1.489,3.55,2.34,5.66,2.34c2.11,0,4.17-0.851,5.66-2.34c1.49-1.49,2.34-3.561,2.34-5.66c0-2.101-0.85-4.17-2.34-5.66   C204.17,356.859,202.11,356,200,356z"
       fill="#ba0000"
       id="path8" /><path
       d="M296.004,292H312c4.418,0,8-3.582,8-8s-3.582-8-8-8h-15.996c-4.418,0-8,3.582-8,8S291.585,292,296.004,292z"
       fill="#ba0000"
       id="path10" /></g><g
     id="g14" /><g
     id="g16" /><g
     id="g18" /><g
     id="g20" /><g
     id="g22" /><g
     id="g24" /><g
     id="g26" /><g
     id="g28" /><g
     id="g30" /><g
     id="g32" /><g
     id="g34" /><g
     id="g36" /><g
     id="g38" /><g
     id="g40" /><g
     id="g42" /></svg>