<?xml version="1.0" encoding="UTF-8" standalone="no"?>
<!-- Generator: Adobe Illustrator 19.0.0, SVG Export Plug-In . SVG Version: 6.00 Build 0)  -->

<svg
   xmlns:dc="http://purl.org/dc/elements/1.1/"
   xmlns:cc="http://creativecommons.org/ns#"
   xmlns:rdf="http://www.w3.org/1999/02/22-rdf-syntax-ns#"
   xmlns:svg="http://www.w3.org/2000/svg"
   xmlns="http://www.w3.org/2000/svg"
   xmlns:sodipodi="http://sodipodi.sourceforge.net/DTD/sodipodi-0.dtd"
   xmlns:inkscape="http://www.inkscape.org/namespaces/inkscape"
   version="1.1"
   id="Layer_1"
   x="0px"
   y="0px"
   viewBox="0 0 512 512"
   style="enable-background:new 0 0 512 512;"
   xml:space="preserve"
   width="512px"
   height="512px"
   sodipodi:docname="type-12.svg"
   inkscape:version="0.92.1 r15371"><metadata
     id="metadata85"><rdf:RDF><cc:Work
         rdf:about=""><dc:format>image/svg+xml</dc:format><dc:type
           rdf:resource="http://purl.org/dc/dcmitype/StillImage" /><dc:title></dc:title></cc:Work></rdf:RDF></metadata><defs
     id="defs83" /><sodipodi:namedview
     pagecolor="#ffffff"
     bordercolor="#666666"
     borderopacity="1"
     objecttolerance="10"
     gridtolerance="10"
     guidetolerance="10"
     inkscape:pageopacity="0"
     inkscape:pageshadow="2"
     inkscape:window-width="640"
     inkscape:window-height="480"
     id="namedview81"
     showgrid="false"
     inkscape:zoom="0.4609375"
     inkscape:cx="256"
     inkscape:cy="256"
     inkscape:window-x="0"
     inkscape:window-y="0"
     inkscape:window-maximized="0"
     inkscape:current-layer="Layer_1" /><g
     id="g48"><g
       id="g46"><g
         id="g44"><path
           d="M353.01,38.804c4.466,0,8.084-3.618,8.084-8.084v-1.078c0-4.466-3.618-8.084-8.084-8.084     c-4.466,0-8.084,3.618-8.084,8.084v1.078C344.926,35.186,348.545,38.804,353.01,38.804z"
           fill="#ba0000"
           id="path2" /><path
           d="M229.426,47.608c25.112,6.348,48.266,19.153,67.154,37.067c2.672,12.72,13.978,22.303,27.481,22.303     c15.485,0,28.083-12.598,28.083-28.082v-2c0-9.972-8.111-18.084-18.083-18.084h-19.999c-5.821,0-10.993,2.776-14.303,7.061     c-19.308-16.129-42.003-27.78-66.37-33.94c-4.33-1.086-8.724,1.528-9.819,5.857C222.474,42.118,225.097,46.513,229.426,47.608z      M312.145,76.896h0.001c0-1.056,0.859-1.915,1.914-1.915h19.999c1.055,0,1.914,0.859,1.914,1.915v2     c0,6.57-5.345,11.914-11.915,11.914c-6.57,0-11.914-5.344-11.914-11.914V76.896z"
           fill="#ba0000"
           id="path4" /><path
           d="M344.432,123.845c-1.89-4.045-6.699-5.795-10.745-3.903c-4.045,1.888-5.793,6.7-3.903,10.746     c6.024,12.901,10.163,26.512,12.356,40.557c-8.091,1.797-14.164,9.02-14.164,17.644v2c0,15.484,12.598,28.082,28.083,28.082     c15.485,0,28.083-12.598,28.083-28.082v-2c0-9.972-8.112-18.084-18.084-18.084h-7.627     C356.094,154.525,351.398,138.758,344.432,123.845z M367.973,188.887v2c0,6.57-5.345,11.914-11.915,11.914     c-6.57,0-11.915-5.344-11.915-11.914v-2c0-1.056,0.859-1.915,1.915-1.915h19.998     C367.114,186.972,367.973,187.831,367.973,188.887z"
           fill="#ba0000"
           id="path6" /><path
           d="M347.913,232.125c-4.286-1.255-8.776,1.204-10.029,5.49c-4.742,16.21-12.11,31.393-21.918,45.181h-1.905     c-9.972,0-18.083,8.112-18.083,18.084v1.998c0,15.485,12.598,28.083,28.082,28.083c15.485,0,28.083-12.598,28.083-28.083v-1.998     c0-9.549-7.445-17.374-16.832-18.021c7.822-12.699,13.889-26.336,18.091-40.706C354.655,237.868,352.198,233.378,347.913,232.125     z M335.974,300.879v1.998c0,6.57-5.345,11.915-11.915,11.915c-6.57,0-11.914-5.345-11.914-11.915v-1.998     c0-1.056,0.859-1.915,1.914-1.915h19.999C335.115,298.963,335.974,299.822,335.974,300.879z"
           fill="#ba0000"
           id="path8" /><path
           d="M377.263,244.143v1.078c0,4.466,3.618,8.084,8.084,8.084c4.466,0,8.084-3.618,8.084-8.084v-1.078     c0-4.466-3.618-8.084-8.084-8.084C380.882,236.059,377.263,239.677,377.263,244.143z"
           fill="#ba0000"
           id="path10" /><path
           d="M396.126,157.373c4.466,0,8.084-3.618,8.084-8.084v-1.078c0-4.466-3.618-8.084-8.084-8.084     c-4.466,0-8.084,3.618-8.084,8.084v1.078C388.042,153.754,391.661,157.373,396.126,157.373z"
           fill="#ba0000"
           id="path12" /><path
           d="M417.684,80.842h75.453c10.401,0,18.863-8.463,18.863-18.863c0-16.344-13.298-29.642-29.642-29.642h-2.695v-8.084     C479.663,10.88,468.783,0,455.411,0s-24.253,10.88-24.253,24.253v8.084h-2.695c-16.344,0-29.642,13.298-29.642,29.642     C398.821,72.38,407.284,80.842,417.684,80.842z M447.326,24.253c0-4.458,3.626-8.084,8.084-8.084s8.084,3.626,8.084,8.084v8.084     h-16.168V24.253z M428.463,48.505h53.895c7.43,0,13.474,6.044,13.474,13.474c0,1.486-1.208,2.695-2.695,2.695h-75.453     c-1.486,0-2.695-1.208-2.695-2.695C414.989,54.549,421.033,48.505,428.463,48.505z"
           fill="#ba0000"
           id="path14" /><path
           d="M247.916,202.105v1.078c0,4.466,3.619,8.084,8.084,8.084c4.466,0,8.084-3.619,8.084-8.084v-1.078     c0-4.466-3.619-8.084-8.084-8.084C251.534,194.021,247.916,197.64,247.916,202.105z"
           fill="#ba0000"
           id="path16" /><path
           d="M506.821,388.589l0.001-0.005c-1.022-0.472-4.945-2.306-5.959-2.791c-28.522-13.658-53.718-32.491-74.954-56.086     c-4.841-5.379-11.768-8.465-19.005-8.465s-14.165,3.085-19.007,8.465c-22.423,24.917-49.261,44.528-79.773,58.336h-13.991     l-20.693-46.051c5.696-3.163,11.234-6.671,16.591-10.52c3.626-2.605,4.454-7.656,1.849-11.282     c-2.605-3.625-7.657-4.456-11.282-1.849c-4.469,3.211-9.087,6.141-13.82,8.825l-10.503-23.372     c35.981-21.798,60.079-61.328,60.079-106.381c0-68.531-55.754-124.287-124.286-124.287c-68.531,0-124.283,55.755-124.283,124.287     c0,45.053,24.097,84.582,60.08,106.381l-10.508,23.386c-5.076-2.879-10.014-6.058-14.787-9.544     c-3.603-2.632-8.662-1.846-11.296,1.76c-2.633,3.606-1.845,8.663,1.76,11.296c5.69,4.156,11.592,7.92,17.668,11.296     l-11.683,25.999c-10.53-7.871-23.419-12.281-37.039-12.281c-19.676,0-37.748,9.033-49.579,24.781     c-2.682,3.57-1.962,8.637,1.607,11.319c3.568,2.682,8.637,1.963,11.319-1.607c8.749-11.646,22.109-18.324,36.653-18.324     c15.766,0,30.235,7.97,38.703,21.316c2.057,3.245,6.113,4.593,9.7,3.225c5.207-1.98,10.681-2.985,16.271-2.985     c21.702,0,40.582,15.41,44.892,36.64c0.764,3.767,4.077,6.476,7.923,6.476h17.248c16.344,0,29.642,13.298,29.642,29.642     c0,16.344-13.298,29.643-29.642,29.643h-3.953H51.2c-19.317,0-35.032-15.715-35.032-35.032v-43.116     c0-0.188,0.015-0.305,0.025-0.37c0.335-0.303,2.973-2.325,13.449-2.325c21.702,0,40.582,15.41,44.892,36.64     c0.764,3.767,4.077,6.476,7.922,6.476h17.248c11.942,0,22.664,7.108,27.315,18.102c0.702,1.663,1.254,3.393,1.637,5.144     c0.958,4.36,5.264,7.118,9.63,6.164c4.361-0.957,7.121-5.269,6.164-9.63c-0.596-2.716-1.45-5.397-2.537-7.973     c-7.191-16.994-23.758-27.976-42.209-27.976H88.693c-8.094-25.341-31.946-43.116-59.051-43.116     C5.143,398.821,0,409.079,0,417.684V460.8C0,489.031,22.969,512,51.2,512h194.021c4.466,0,8.084-3.618,8.084-8.084     c0-4.466-3.618-8.084-8.084-8.084h-13.618c6.805-7.996,10.923-18.345,10.923-29.642c0-25.26-20.55-45.81-45.81-45.81h-11.012     c-8.094-25.341-31.946-43.116-59.051-43.116c-5.054,0-10.04,0.615-14.896,1.819l13.45-29.93     c20.917,9.091,43.542,13.807,66.864,13.807c23.303,0,45.938-4.716,66.863-13.808l17.477,38.89h-74.305     c-4.466,0-8.084,3.618-8.084,8.084c0,4.466,3.618,8.084,8.084,8.084h86.775c0.01,0,0.019,0.002,0.029,0.002     c0.013,0,0.027-0.002,0.04-0.002h12.861v38.196c-0.844-0.299-1.748-0.47-2.695-0.47H256c-4.466,0-8.084,3.618-8.084,8.084     c0,4.466,3.619,8.084,8.084,8.084h43.116c0.946,0,1.851-0.171,2.695-0.47v35.502c0,0.917,0.088,1.812,0.216,2.695h-24.468     c-4.466,0-8.084,3.619-8.084,8.084c0,4.466,3.618,8.084,8.084,8.084h101.681c4.466,0,8.084-3.618,8.084-8.084     c0-4.466-3.619-8.084-8.084-8.084h-19.43l39.012-45.515v53.599c0,4.466,3.618,8.084,8.084,8.084h86.232     c10.401,0,18.863-8.463,18.863-18.863v-97.01C512,392.687,509.849,389.757,506.821,388.589z M83.953,197.412     c0-59.617,48.501-108.118,108.118-108.118c59.616,0,108.117,48.501,108.117,108.118c0,38.491-20.221,72.343-50.594,91.505     l-29.465-65.572c6.308-6.82,10.173-15.932,10.173-25.933c0-21.08-17.149-38.231-38.23-38.231s-38.231,17.15-38.231,38.231     c0,10.001,3.865,19.113,10.173,25.933l-29.465,65.572C104.174,269.755,83.953,235.904,83.953,197.412z M177.511,232.755     c4.491,1.857,9.407,2.888,14.56,2.888c5.153,0,10.07-1.032,14.56-2.888l28.649,63.755c-13.241,5.796-27.854,9.02-43.208,9.02     s-29.968-3.224-43.208-9.02L177.511,232.755z M170.009,197.412c0-12.165,9.897-22.062,22.062-22.062     c12.164,0,22.061,9.897,22.061,22.062s-9.897,22.062-22.061,22.062C179.905,219.474,170.009,209.578,170.009,197.412z      M192.07,346.79c-21.007,0-41.378-4.252-60.226-12.411l10.39-23.122c15.265,6.708,32.121,10.442,49.835,10.442     s34.571-3.734,49.835-10.442l10.388,23.117C233.439,342.533,213.06,346.79,192.07,346.79z M398.821,425.473l-60.307,70.358     h-11.912h-5.928c-1.486,0-2.695-1.208-2.695-2.695v-88.926h80.842V425.473z M495.832,493.137c0,1.486-1.208,2.695-2.695,2.695     h-78.147v-91.621h13.204c4.466,0,8.084-3.618,8.084-8.084c0-4.466-3.618-8.084-8.084-8.084h-85.475     c21.211-12.919,40.368-28.82,57.197-47.519c1.808-2.007,4.289-3.113,6.988-3.113s5.181,1.105,6.988,3.113     c16.829,18.699,35.987,34.6,57.197,47.519h-16.487c-4.466,0-8.084,3.618-8.084,8.084c0,4.466,3.618,8.084,8.084,8.084h41.229     V493.137z"
           fill="#ba0000"
           id="path18" /><path
           d="M503.916,334.147H460.8c-4.466,0-8.084,3.619-8.084,8.084c0,4.466,3.619,8.084,8.084,8.084h43.116     c4.466,0,8.084-3.618,8.084-8.084C512,337.766,508.382,334.147,503.916,334.147z"
           fill="#ba0000"
           id="path20" /><path
           d="M115.874,172.463c-4.466,0-8.084,3.619-8.084,8.084v1.078c0,4.466,3.618,8.084,8.084,8.084     c4.466,0,8.084-3.618,8.084-8.084v-1.078C123.958,176.082,120.339,172.463,115.874,172.463z"
           fill="#ba0000"
           id="path22" /><path
           d="M503.916,183.242c-4.466,0-8.084,3.618-8.084,8.084v1.078c0,4.466,3.619,8.084,8.084,8.084     c4.466,0,8.084-3.618,8.084-8.084v-1.078C512,186.861,508.382,183.242,503.916,183.242z"
           fill="#ba0000"
           id="path24" /><path
           d="M245.221,146.594c4.466,0,8.084-3.618,8.084-8.084v-1.078c0-4.466-3.618-8.084-8.084-8.084     c-4.466,0-8.084,3.619-8.084,8.084v1.078C237.137,142.975,240.755,146.594,245.221,146.594z"
           fill="#ba0000"
           id="path26" /><path
           d="M503.916,291.032h-24.253V98.986c0-4.466-3.618-8.084-8.084-8.084c-4.466,0-8.084,3.619-8.084,8.084v192.045h-16.168     V98.627c0-4.466-3.618-8.084-8.084-8.084c-4.466,0-8.084,3.619-8.084,8.084v192.404h-45.811c-4.466,0-8.084,3.619-8.084,8.084     c0,4.466,3.618,8.084,8.084,8.084h118.568c4.466,0,8.084-3.618,8.084-8.084C512,294.65,508.382,291.032,503.916,291.032z"
           fill="#ba0000"
           id="path28" /><path
           d="M8.084,350.316c4.466,0,8.084-3.618,8.084-8.084v-1.078c0-4.466-3.619-8.084-8.084-8.084S0,336.688,0,341.154v1.078     C0,346.697,3.619,350.316,8.084,350.316z"
           fill="#ba0000"
           id="path30" /><path
           d="M192.07,50.982c15.484,0,28.082-12.598,28.082-28.082v-2c0-9.972-8.111-18.084-18.083-18.084H182.07     c-9.972,0-18.083,8.112-18.083,18.084v2C163.988,38.384,176.585,50.982,192.07,50.982z M180.155,20.9h0.001     c0-1.056,0.859-1.915,1.914-1.915h19.999c1.055,0,1.914,0.859,1.914,1.915v2c0,6.57-5.344,11.914-11.914,11.914     S180.155,29.47,180.155,22.9V20.9z"
           fill="#ba0000"
           id="path32" /><path
           d="M31.998,300.879v1.998c0,15.485,12.598,28.083,28.082,28.083c15.485,0,28.083-12.598,28.083-28.083v-1.998     c0-9.972-8.111-18.084-18.083-18.084h-1.897c-10.906-15.329-18.772-32.305-23.38-50.506c-1.096-4.328-5.499-6.949-9.821-5.853     c-4.329,1.096-6.948,5.493-5.853,9.821c4.187,16.536,10.805,32.154,19.71,46.601C39.448,283.5,31.998,291.326,31.998,300.879z      M48.166,300.879h0.001c0-1.056,0.859-1.915,1.914-1.915H70.08c1.055,0,1.914,0.859,1.914,1.915v1.998     c0,6.57-5.345,11.915-11.915,11.915s-11.914-5.345-11.914-11.915V300.879z"
           fill="#ba0000"
           id="path34" /><path
           d="M83.537,37.726c4.466,0,8.084-3.618,8.084-8.084v-1.078c0-4.466-3.619-8.084-8.084-8.084s-8.084,3.618-8.084,8.084v1.078     C75.453,34.108,79.071,37.726,83.537,37.726z"
           fill="#ba0000"
           id="path36" /><path
           d="M60.08,106.978c13.635,0,25.027-9.769,27.555-22.675c0.487-0.288,0.954-0.625,1.387-1.025     c18.317-16.92,40.68-29.165,64.672-35.41c4.32-1.124,6.911-5.539,5.786-9.859c-1.123-4.32-5.534-6.911-9.859-5.786     c-23.856,6.209-46.242,17.789-65.24,33.646c-3.31-4.284-8.481-7.058-14.3-7.058H50.081c-9.972,0-18.083,8.112-18.083,18.084v2     C31.998,94.38,44.596,106.978,60.08,106.978z M48.166,76.896h0.001c0-1.056,0.859-1.915,1.914-1.915H70.08     c1.055,0,1.914,0.859,1.914,1.915v2c0,6.57-5.345,11.914-11.915,11.914s-11.914-5.344-11.914-11.914V76.896z"
           fill="#ba0000"
           id="path38" /><path
           d="M28.083,218.97c15.484,0,28.082-12.598,28.082-28.082v-2c0-8.624-6.073-15.847-14.164-17.644     c2.226-14.259,6.457-28.066,12.63-41.139c1.907-4.037,0.179-8.855-3.859-10.762c-4.036-1.906-8.856-0.179-10.762,3.859     c-7.131,15.102-11.925,31.088-14.293,47.602h-7.634C8.111,170.803,0,178.915,0,188.887v2C0,206.372,12.598,218.97,28.083,218.97z      M16.168,188.887c0-1.056,0.859-1.915,1.914-1.915h19.999c1.055,0,1.914,0.859,1.914,1.915v2c0,6.57-5.344,11.914-11.914,11.914     s-11.914-5.343-11.914-11.913V188.887z"
           fill="#ba0000"
           id="path40" /><path
           d="M8.084,22.097c4.466,0,8.084-3.618,8.084-8.084v-1.078c0-4.466-3.619-8.084-8.084-8.084S0,8.469,0,12.935v1.078     C0,18.478,3.619,22.097,8.084,22.097z"
           fill="#ba0000"
           id="path42" /></g></g></g><g
     id="g50" /><g
     id="g52" /><g
     id="g54" /><g
     id="g56" /><g
     id="g58" /><g
     id="g60" /><g
     id="g62" /><g
     id="g64" /><g
     id="g66" /><g
     id="g68" /><g
     id="g70" /><g
     id="g72" /><g
     id="g74" /><g
     id="g76" /><g
     id="g78" /></svg>