<?xml version="1.0" encoding="UTF-8" standalone="no"?>
<!-- Generator: Adobe Illustrator 19.0.0, SVG Export Plug-In . SVG Version: 6.00 Build 0)  -->

<svg
   xmlns:dc="http://purl.org/dc/elements/1.1/"
   xmlns:cc="http://creativecommons.org/ns#"
   xmlns:rdf="http://www.w3.org/1999/02/22-rdf-syntax-ns#"
   xmlns:svg="http://www.w3.org/2000/svg"
   xmlns="http://www.w3.org/2000/svg"
   xmlns:sodipodi="http://sodipodi.sourceforge.net/DTD/sodipodi-0.dtd"
   xmlns:inkscape="http://www.inkscape.org/namespaces/inkscape"
   version="1.1"
   id="Layer_1"
   x="0px"
   y="0px"
   viewBox="0 0 496 496"
   style="enable-background:new 0 0 496 496;"
   xml:space="preserve"
   width="512px"
   height="512px"
   sodipodi:docname="type-1.svg"
   inkscape:version="0.92.1 r15371"><metadata
     id="metadata51"><rdf:RDF><cc:Work
         rdf:about=""><dc:format>image/svg+xml</dc:format><dc:type
           rdf:resource="http://purl.org/dc/dcmitype/StillImage" /><dc:title></dc:title></cc:Work></rdf:RDF></metadata><defs
     id="defs49" /><sodipodi:namedview
     pagecolor="#ffffff"
     bordercolor="#666666"
     borderopacity="1"
     objecttolerance="10"
     gridtolerance="10"
     guidetolerance="10"
     inkscape:pageopacity="0"
     inkscape:pageshadow="2"
     inkscape:window-width="640"
     inkscape:window-height="480"
     id="namedview47"
     showgrid="false"
     inkscape:zoom="0.4609375"
     inkscape:cx="256"
     inkscape:cy="256"
     inkscape:window-x="0"
     inkscape:window-y="0"
     inkscape:window-maximized="0"
     inkscape:current-layer="Layer_1" /><g
     id="g14"><g
       id="g12"><g
         id="g10"><path
           d="M416,96V80c0-44.112-35.888-80-80-80c-16.248,0-31.368,4.896-44,13.256C279.368,4.896,264.248,0,248,0     c-44.112,0-80,35.888-80,80v16H96v38.024C40.472,151.144,0,202.928,0,264s40.472,112.856,96,129.976V496h288h16h96V96H416z      M292,33.648C304.288,45.312,312,61.76,312,80v16h-40V80C272,61.76,279.712,45.312,292,33.648z M184,80c0-35.288,28.712-64,64-64     c11.224,0,21.768,2.92,30.944,8.016C264.776,38.456,256,58.216,256,80v16h-72V80z M16,264c0-66.168,53.832-120,120-120h48     c66.168,0,120,53.832,120,120v167.64L242.744,384H136C69.832,384,16,330.168,16,264z M384,480H112v-82.248     c7.808,1.392,15.8,2.248,24,2.248h101.256L320,464.36V264c0-74.992-61.008-136-136-136h-48c-8.2,0-16.192,0.856-24,2.248V112h56     h88h72h56V480z M384,96h-56V80c0-21.784-8.776-41.544-22.944-55.984C314.232,18.92,324.776,16,336,16c35.288,0,64,28.712,64,64     v16H384z M409.392,480L440,444.288L470.608,480H409.392z M480,466.376l-32-37.336V408h-16v21.04l-32,37.336V112h16h16v280h16V112     h32V466.376z"
           fill="#ba0000"
           id="path2" /><path
           d="M128,224c0-17.648-14.352-32-32-32s-32,14.352-32,32s14.352,32,32,32S128,241.648,128,224z M80,224     c0-8.824,7.176-16,16-16s16,7.176,16,16c0,8.824-7.176,16-16,16S80,232.824,80,224z"
           fill="#ba0000"
           id="path4" /><path
           d="M192,312c0,17.648,14.352,32,32,32s32-14.352,32-32s-14.352-32-32-32S192,294.352,192,312z M240,312     c0,8.824-7.176,16-16,16c-8.824,0-16-7.176-16-16c0-8.824,7.176-16,16-16C232.824,296,240,303.176,240,312z"
           fill="#ba0000"
           id="path6" /><rect
           x="59.831"
           y="260.009"
           transform="matrix(0.7071 -0.7071 0.7071 0.7071 -143.8224 188.7999)"
           width="192.318"
           height="16"
           fill="#ba0000"
           id="rect8" /></g></g></g><g
     id="g16" /><g
     id="g18" /><g
     id="g20" /><g
     id="g22" /><g
     id="g24" /><g
     id="g26" /><g
     id="g28" /><g
     id="g30" /><g
     id="g32" /><g
     id="g34" /><g
     id="g36" /><g
     id="g38" /><g
     id="g40" /><g
     id="g42" /><g
     id="g44" /></svg>