<?xml version="1.0" encoding="UTF-8" standalone="no"?>
<!-- Generator: Adobe Illustrator 19.0.0, SVG Export Plug-In . SVG Version: 6.00 Build 0)  -->

<svg
   xmlns:dc="http://purl.org/dc/elements/1.1/"
   xmlns:cc="http://creativecommons.org/ns#"
   xmlns:rdf="http://www.w3.org/1999/02/22-rdf-syntax-ns#"
   xmlns:svg="http://www.w3.org/2000/svg"
   xmlns="http://www.w3.org/2000/svg"
   xmlns:sodipodi="http://sodipodi.sourceforge.net/DTD/sodipodi-0.dtd"
   xmlns:inkscape="http://www.inkscape.org/namespaces/inkscape"
   version="1.1"
   id="Capa_1"
   x="0px"
   y="0px"
   viewBox="0 0 480 480"
   style="enable-background:new 0 0 480 480;"
   xml:space="preserve"
   width="512px"
   height="512px"
   sodipodi:docname="type-8.svg"
   inkscape:version="0.92.1 r15371"><metadata
     id="metadata129"><rdf:RDF><cc:Work
         rdf:about=""><dc:format>image/svg+xml</dc:format><dc:type
           rdf:resource="http://purl.org/dc/dcmitype/StillImage" /><dc:title></dc:title></cc:Work></rdf:RDF></metadata><defs
     id="defs127" /><sodipodi:namedview
     pagecolor="#ffffff"
     bordercolor="#666666"
     borderopacity="1"
     objecttolerance="10"
     gridtolerance="10"
     guidetolerance="10"
     inkscape:pageopacity="0"
     inkscape:pageshadow="2"
     inkscape:window-width="640"
     inkscape:window-height="480"
     id="namedview125"
     showgrid="false"
     inkscape:zoom="0.4609375"
     inkscape:cx="256"
     inkscape:cy="256"
     inkscape:window-x="0"
     inkscape:window-y="0"
     inkscape:window-maximized="0"
     inkscape:current-layer="Capa_1" /><g
     id="g92"><path
       d="M472,408V216c2.572,0,4.986-1.236,6.49-3.322c1.504-2.086,1.913-4.768,1.1-7.208l-24-72   c-1.089-3.267-4.146-5.47-7.589-5.47H344v-24.998c0.001,0,0.002,0,0.003,0c3.446,0,6.628-2.245,7.663-5.717   c1.262-4.234-1.147-8.689-5.381-9.952l-104-31c-1.491-0.443-3.079-0.443-4.57,0l-104,31c-4.234,1.263-6.644,5.718-5.381,9.952   c1.035,3.472,4.219,5.71,7.667,5.711V128H32c-3.443,0-6.5,2.203-7.589,5.47l-24,72c-0.813,2.44-0.404,5.122,1.1,7.208   C3.014,214.764,5.428,216,8,216v192c-4.418,0-8,3.582-8,8s3.582,8,8,8h464c4.418,0,8-3.582,8-8S476.419,408,472,408z M456,408H344   V216h112V408z M152,360h32v48h-32V360z M200,360h80v48h-80V360z M296,360h32v48h-32V360z M442.234,144l18.667,56H344v-56H442.234z    M240,72.348l88,26.231V136v72v136H152V208v-72V98.579L240,72.348z M37.766,144H136v56H19.1L37.766,144z M24,216h112v192H24V216z"
       fill="#ba0000"
       id="path2" /><path
       d="M112,160c-4.418,0-8,3.582-8,8v16c0,4.418,3.582,8,8,8s8-3.582,8-8v-16   C120,163.582,116.419,160,112,160z"
       fill="#ba0000"
       id="path4" /><path
       d="M80,160c-4.418,0-8,3.582-8,8v16c0,4.418,3.582,8,8,8s8-3.582,8-8v-16C88,163.582,84.419,160,80,160   z"
       fill="#ba0000"
       id="path6" /><path
       d="M48,160c-4.418,0-8,3.582-8,8v16c0,4.418,3.582,8,8,8s8-3.582,8-8v-16C56,163.582,52.419,160,48,160   z"
       fill="#ba0000"
       id="path8" /><path
       d="M432,192c4.418,0,8-3.582,8-8v-16c0-4.418-3.582-8-8-8s-8,3.582-8,8v16   C424,188.418,427.582,192,432,192z"
       fill="#ba0000"
       id="path10" /><path
       d="M400,192c4.418,0,8-3.582,8-8v-16c0-4.418-3.582-8-8-8s-8,3.582-8,8v16   C392,188.418,395.582,192,400,192z"
       fill="#ba0000"
       id="path12" /><path
       d="M368,192c4.418,0,8-3.582,8-8v-16c0-4.418-3.582-8-8-8s-8,3.582-8,8v16   C360,188.418,363.582,192,368,192z"
       fill="#ba0000"
       id="path14" /><path
       d="M112,232c-4.418,0-8,3.582-8,8v24c0,4.418,3.582,8,8,8s8-3.582,8-8v-24   C120,235.582,116.419,232,112,232z"
       fill="#ba0000"
       id="path16" /><path
       d="M80,232c-4.418,0-8,3.582-8,8v24c0,4.418,3.582,8,8,8s8-3.582,8-8v-24C88,235.582,84.419,232,80,232   z"
       fill="#ba0000"
       id="path18" /><path
       d="M48,232c-4.418,0-8,3.582-8,8v24c0,4.418,3.582,8,8,8s8-3.582,8-8v-24C56,235.582,52.419,232,48,232   z"
       fill="#ba0000"
       id="path20" /><path
       d="M112,288c-4.418,0-8,3.582-8,8v24c0,4.418,3.582,8,8,8s8-3.582,8-8v-24   C120,291.582,116.419,288,112,288z"
       fill="#ba0000"
       id="path22" /><path
       d="M80,288c-4.418,0-8,3.582-8,8v24c0,4.418,3.582,8,8,8s8-3.582,8-8v-24C88,291.582,84.419,288,80,288   z"
       fill="#ba0000"
       id="path24" /><path
       d="M48,288c-4.418,0-8,3.582-8,8v24c0,4.418,3.582,8,8,8s8-3.582,8-8v-24C56,291.582,52.419,288,48,288   z"
       fill="#ba0000"
       id="path26" /><path
       d="M112,344c-4.418,0-8,3.582-8,8v24c0,4.418,3.582,8,8,8s8-3.582,8-8v-24   C120,347.582,116.419,344,112,344z"
       fill="#ba0000"
       id="path28" /><path
       d="M80,344c-4.418,0-8,3.582-8,8v24c0,4.418,3.582,8,8,8s8-3.582,8-8v-24C88,347.582,84.419,344,80,344   z"
       fill="#ba0000"
       id="path30" /><path
       d="M48,344c-4.418,0-8,3.582-8,8v24c0,4.418,3.582,8,8,8s8-3.582,8-8v-24C56,347.582,52.419,344,48,344   z"
       fill="#ba0000"
       id="path32" /><path
       d="M432,272c4.418,0,8-3.582,8-8v-24c0-4.418-3.582-8-8-8s-8,3.582-8,8v24   C424,268.418,427.582,272,432,272z"
       fill="#ba0000"
       id="path34" /><path
       d="M400,272c4.418,0,8-3.582,8-8v-24c0-4.418-3.582-8-8-8s-8,3.582-8,8v24   C392,268.418,395.582,272,400,272z"
       fill="#ba0000"
       id="path36" /><path
       d="M368,272c4.418,0,8-3.582,8-8v-24c0-4.418-3.582-8-8-8s-8,3.582-8,8v24   C360,268.418,363.582,272,368,272z"
       fill="#ba0000"
       id="path38" /><path
       d="M432,328c4.418,0,8-3.582,8-8v-24c0-4.418-3.582-8-8-8s-8,3.582-8,8v24   C424,324.418,427.582,328,432,328z"
       fill="#ba0000"
       id="path40" /><path
       d="M400,328c4.418,0,8-3.582,8-8v-24c0-4.418-3.582-8-8-8s-8,3.582-8,8v24   C392,324.418,395.582,328,400,328z"
       fill="#ba0000"
       id="path42" /><path
       d="M368,328c4.418,0,8-3.582,8-8v-24c0-4.418-3.582-8-8-8s-8,3.582-8,8v24   C360,324.418,363.582,328,368,328z"
       fill="#ba0000"
       id="path44" /><path
       d="M432,384c4.418,0,8-3.582,8-8v-24c0-4.418-3.582-8-8-8s-8,3.582-8,8v24   C424,380.418,427.582,384,432,384z"
       fill="#ba0000"
       id="path46" /><path
       d="M400,384c4.418,0,8-3.582,8-8v-24c0-4.418-3.582-8-8-8s-8,3.582-8,8v24   C392,380.418,395.582,384,400,384z"
       fill="#ba0000"
       id="path48" /><path
       d="M368,384c4.418,0,8-3.582,8-8v-24c0-4.418-3.582-8-8-8s-8,3.582-8,8v24   C360,380.418,363.582,384,368,384z"
       fill="#ba0000"
       id="path50" /><path
       d="M272,272c4.418,0,8-3.582,8-8v-24c0-4.418-3.582-8-8-8s-8,3.582-8,8v24   C264,268.418,267.582,272,272,272z"
       fill="#ba0000"
       id="path52" /><path
       d="M240,272c4.418,0,8-3.582,8-8v-24c0-4.418-3.582-8-8-8s-8,3.582-8,8v24   C232,268.418,235.582,272,240,272z"
       fill="#ba0000"
       id="path54" /><path
       d="M208,272c4.418,0,8-3.582,8-8v-24c0-4.418-3.582-8-8-8s-8,3.582-8,8v24   C200,268.418,203.582,272,208,272z"
       fill="#ba0000"
       id="path56" /><path
       d="M272,328c4.418,0,8-3.582,8-8v-24c0-4.418-3.582-8-8-8s-8,3.582-8,8v24   C264,324.418,267.582,328,272,328z"
       fill="#ba0000"
       id="path58" /><path
       d="M240,328c4.418,0,8-3.582,8-8v-24c0-4.418-3.582-8-8-8s-8,3.582-8,8v24   C232,324.418,235.582,328,240,328z"
       fill="#ba0000"
       id="path60" /><path
       d="M208,328c4.418,0,8-3.582,8-8v-24c0-4.418-3.582-8-8-8s-8,3.582-8,8v24   C200,324.418,203.582,328,208,328z"
       fill="#ba0000"
       id="path62" /><path
       d="M176,272c4.418,0,8-3.582,8-8v-24c0-4.418-3.582-8-8-8s-8,3.582-8,8v24   C168,268.418,171.582,272,176,272z"
       fill="#ba0000"
       id="path64" /><path
       d="M176,328c4.418,0,8-3.582,8-8v-24c0-4.418-3.582-8-8-8s-8,3.582-8,8v24   C168,324.418,171.582,328,176,328z"
       fill="#ba0000"
       id="path66" /><path
       d="M304,272c4.418,0,8-3.582,8-8v-24c0-4.418-3.582-8-8-8s-8,3.582-8,8v24   C296,268.418,299.582,272,304,272z"
       fill="#ba0000"
       id="path68" /><path
       d="M272,216c4.418,0,8-3.582,8-8v-24c0-4.418-3.582-8-8-8s-8,3.582-8,8v24   C264,212.418,267.582,216,272,216z"
       fill="#ba0000"
       id="path70" /><path
       d="M240,216c4.418,0,8-3.582,8-8v-24c0-4.418-3.582-8-8-8s-8,3.582-8,8v24   C232,212.418,235.582,216,240,216z"
       fill="#ba0000"
       id="path72" /><path
       d="M208,216c4.418,0,8-3.582,8-8v-24c0-4.418-3.582-8-8-8s-8,3.582-8,8v24   C200,212.418,203.582,216,208,216z"
       fill="#ba0000"
       id="path74" /><path
       d="M176,216c4.418,0,8-3.582,8-8v-24c0-4.418-3.582-8-8-8s-8,3.582-8,8v24   C168,212.418,171.582,216,176,216z"
       fill="#ba0000"
       id="path76" /><path
       d="M304,216c4.418,0,8-3.582,8-8v-24c0-4.418-3.582-8-8-8s-8,3.582-8,8v24   C296,212.418,299.582,216,304,216z"
       fill="#ba0000"
       id="path78" /><path
       d="M272,160c4.418,0,8-3.582,8-8v-24c0-4.418-3.582-8-8-8s-8,3.582-8,8v24   C264,156.418,267.582,160,272,160z"
       fill="#ba0000"
       id="path80" /><path
       d="M240,160c4.418,0,8-3.582,8-8v-24c0-4.418-3.582-8-8-8s-8,3.582-8,8v24   C232,156.418,235.582,160,240,160z"
       fill="#ba0000"
       id="path82" /><path
       d="M208,160c4.418,0,8-3.582,8-8v-24c0-4.418-3.582-8-8-8s-8,3.582-8,8v24   C200,156.418,203.582,160,208,160z"
       fill="#ba0000"
       id="path84" /><path
       d="M176,160c4.418,0,8-3.582,8-8v-24c0-4.418-3.582-8-8-8s-8,3.582-8,8v24   C168,156.418,171.582,160,176,160z"
       fill="#ba0000"
       id="path86" /><path
       d="M304,160c4.418,0,8-3.582,8-8v-24c0-4.418-3.582-8-8-8s-8,3.582-8,8v24   C296,156.418,299.582,160,304,160z"
       fill="#ba0000"
       id="path88" /><path
       d="M304,328c4.418,0,8-3.582,8-8v-24c0-4.418-3.582-8-8-8s-8,3.582-8,8v24   C296,324.418,299.582,328,304,328z"
       fill="#ba0000"
       id="path90" /></g><g
     id="g94" /><g
     id="g96" /><g
     id="g98" /><g
     id="g100" /><g
     id="g102" /><g
     id="g104" /><g
     id="g106" /><g
     id="g108" /><g
     id="g110" /><g
     id="g112" /><g
     id="g114" /><g
     id="g116" /><g
     id="g118" /><g
     id="g120" /><g
     id="g122" /></svg>