<?xml version="1.0" encoding="UTF-8" standalone="no"?>
<!-- Generator: Adobe Illustrator 19.0.0, SVG Export Plug-In . SVG Version: 6.00 Build 0)  -->

<svg
   xmlns:dc="http://purl.org/dc/elements/1.1/"
   xmlns:cc="http://creativecommons.org/ns#"
   xmlns:rdf="http://www.w3.org/1999/02/22-rdf-syntax-ns#"
   xmlns:svg="http://www.w3.org/2000/svg"
   xmlns="http://www.w3.org/2000/svg"
   xmlns:sodipodi="http://sodipodi.sourceforge.net/DTD/sodipodi-0.dtd"
   xmlns:inkscape="http://www.inkscape.org/namespaces/inkscape"
   version="1.1"
   id="Layer_1"
   x="0px"
   y="0px"
   viewBox="0 0 512 512"
   style="enable-background:new 0 0 512 512;"
   xml:space="preserve"
   width="512px"
   height="512px"
   sodipodi:docname="type-5.svg"
   inkscape:version="0.92.1 r15371"><metadata
     id="metadata59"><rdf:RDF><cc:Work
         rdf:about=""><dc:format>image/svg+xml</dc:format><dc:type
           rdf:resource="http://purl.org/dc/dcmitype/StillImage" /><dc:title></dc:title></cc:Work></rdf:RDF></metadata><defs
     id="defs57" /><sodipodi:namedview
     pagecolor="#ffffff"
     bordercolor="#666666"
     borderopacity="1"
     objecttolerance="10"
     gridtolerance="10"
     guidetolerance="10"
     inkscape:pageopacity="0"
     inkscape:pageshadow="2"
     inkscape:window-width="640"
     inkscape:window-height="480"
     id="namedview55"
     showgrid="false"
     inkscape:zoom="0.4609375"
     inkscape:cx="256"
     inkscape:cy="256"
     inkscape:window-x="0"
     inkscape:window-y="0"
     inkscape:window-maximized="0"
     inkscape:current-layer="Layer_1" /><g
     id="g22"><g
       id="g20"><g
         id="g18"><path
           d="M512,306.387v-3.32c0-11.906-9.687-21.593-21.593-21.593h-7.84l-6.738-142.151c-0.211-4.458-3.94-7.907-8.458-7.692     c-4.459,0.21-7.903,3.998-7.692,8.458l6.701,141.384h-66.044l9.448-199.34h47.148l1.402,29.583     c0.211,4.459,3.994,7.929,8.458,7.692c4.459-0.21,7.903-3.998,7.692-8.458l-1.728-36.46c0.015-0.275,0.016-0.552,0.003-0.829     l-1.457-30.338c-0.008-0.158-0.029-0.313-0.045-0.469l-1.266-26.685h2.193c4.466,0,8.084-3.619,8.084-8.084S476.652,0,472.186,0     h-10.669h-56.316h-10.669c-4.466,0-8.084,3.619-8.084,8.084s3.619,8.084,8.084,8.084h2.194l-1.264,26.688     c-0.016,0.155-0.038,0.309-0.045,0.467l-1.457,30.338c-0.013,0.277-0.012,0.554,0.003,0.829l-9.811,206.983h-10.64L363.7,74.489     c0.015-0.275,0.016-0.551,0.003-0.828l-1.457-30.338c-0.008-0.158-0.029-0.312-0.045-0.468l-1.266-26.686h2.194     c4.466,0,8.084-3.619,8.084-8.084S367.594,0,363.129,0H352.46h-56.316h-10.669c-4.466,0-8.084,3.619-8.084,8.084     s3.618,8.084,8.084,8.084h2.194l-1.265,26.688c-0.016,0.155-0.038,0.309-0.045,0.467l-1.457,30.338     c-0.013,0.277-0.012,0.554,0.003,0.829l-9.81,206.983h-12.189v-18.032c0-2.974-1.633-5.707-4.251-7.118     c-2.618-1.411-5.798-1.27-8.283,0.369l-64.86,42.758V263.44c0-2.974-1.633-5.707-4.251-7.118     c-2.618-1.411-5.798-1.27-8.283,0.369l-64.86,42.758v-36.009c0-2.974-1.633-5.707-4.251-7.118     c-2.618-1.411-5.798-1.27-8.283,0.369L18.192,307.71c-2.269,1.496-3.635,4.031-3.635,6.75v152.231     C6.099,469.621,0,477.646,0,487.087v3.32C0,502.313,9.687,512,21.593,512h468.813c11.906,0,21.593-9.687,21.593-21.593v-3.32     c0-9.835-6.616-18.138-15.625-20.737V327.124C505.384,324.525,512,316.222,512,306.387z M412.91,16.168h40.895l0.923,19.458     h-42.74L412.91,16.168z M411.222,51.795h44.272l0.672,14.17h-45.615L411.222,51.795z M303.854,16.168h40.894l0.923,19.458h-42.74     L303.854,16.168z M302.165,51.795h44.272l0.672,14.17h-45.615L302.165,51.795z M300.727,82.133h47.148l9.448,199.34h-66.044     L300.727,82.133z M262.903,327.981h138.614c4.466,0,8.084-3.618,8.084-8.084c0-4.466-3.619-8.084-8.084-8.084H262.903v-14.17     h19.899H365.8h26.059h82.998h15.55c2.991,0,5.425,2.434,5.425,5.425v3.32c0,2.991-2.434,5.425-5.425,5.425h-2.116h-59.109     c-4.466,0-8.084,3.619-8.084,8.084s3.619,8.084,8.084,8.084h51.024v137.511H262.903V327.981z M185.509,318.816l61.226-40.362     v11.103v30.338v145.596h-61.226V318.816z M108.116,318.816l61.226-40.362v36.008v151.029h-61.226V318.816z M30.724,318.816     l61.223-40.362v36.008v151.029H30.724V318.816z M495.833,490.407h-0.001c0,2.991-2.434,5.425-5.425,5.425H21.593     c-2.991,0-5.425-2.434-5.425-5.425v-3.32c0-2.991,2.434-5.425,5.425-5.425h1.047h77.392h77.394h77.394h233.472h2.116     c2.991,0,5.425,2.434,5.425,5.425V490.407z"
           fill="#ba0000"
           id="path2" /><path
           d="M457.925,342.538h-57.297h-57.297h-57.297c-4.466,0-8.084,3.618-8.084,8.084v46.115v46.115     c0,4.466,3.619,8.084,8.084,8.084h57.297h57.297h57.297c4.466,0,8.084-3.618,8.084-8.084v-46.115v-46.115     C466.009,346.156,462.391,342.538,457.925,342.538z M335.248,434.767H294.12v-29.946h41.128V434.767z M335.248,388.652H294.12     v-29.946h41.128V388.652z M392.544,434.767h-41.128v-29.946h41.128V434.767z M392.546,388.652h-41.128v-29.946h41.128V388.652z      M449.842,434.768h-41.128v-29.946h41.128V434.768z M449.842,388.652h-41.128v-29.946h41.128V388.652z"
           fill="#ba0000"
           id="path4" /><path
           d="M228.697,342.538h-25.152c-4.466,0-8.084,3.618-8.084,8.084c0,4.466,3.618,8.084,8.084,8.084h25.152     c4.466,0,8.084-3.618,8.084-8.084C236.781,346.156,233.163,342.538,228.697,342.538z"
           fill="#ba0000"
           id="path6" /><path
           d="M228.697,368.829h-25.152c-4.466,0-8.084,3.618-8.084,8.084c0,4.465,3.618,8.084,8.084,8.084h25.152     c4.466,0,8.084-3.618,8.084-8.084C236.781,372.447,233.163,368.829,228.697,368.829z"
           fill="#ba0000"
           id="path8" /><path
           d="M151.303,342.538h-25.149c-4.466,0-8.084,3.618-8.084,8.084c0,4.466,3.62,8.084,8.084,8.084h25.149     c4.466,0,8.084-3.618,8.084-8.084C159.387,346.156,155.769,342.538,151.303,342.538z"
           fill="#ba0000"
           id="path10" /><path
           d="M151.303,368.829h-25.149c-4.466,0-8.084,3.618-8.084,8.084c0,4.465,3.62,8.084,8.084,8.084h25.149     c4.466,0,8.084-3.618,8.084-8.084C159.387,372.447,155.769,368.829,151.303,368.829z"
           fill="#ba0000"
           id="path12" /><path
           d="M73.911,342.538H48.76c-4.466,0-8.084,3.618-8.084,8.084c0,4.466,3.618,8.084,8.084,8.084h25.152     c4.466,0,8.084-3.618,8.084-8.084C81.995,346.156,78.377,342.538,73.911,342.538z"
           fill="#ba0000"
           id="path14" /><path
           d="M73.911,368.829H48.76c-4.466,0-8.084,3.618-8.084,8.084c0,4.466,3.618,8.084,8.084,8.084h25.152     c4.466,0,8.084-3.618,8.084-8.084S78.377,368.829,73.911,368.829z"
           fill="#ba0000"
           id="path16" /></g></g></g><g
     id="g24" /><g
     id="g26" /><g
     id="g28" /><g
     id="g30" /><g
     id="g32" /><g
     id="g34" /><g
     id="g36" /><g
     id="g38" /><g
     id="g40" /><g
     id="g42" /><g
     id="g44" /><g
     id="g46" /><g
     id="g48" /><g
     id="g50" /><g
     id="g52" /></svg>