<?xml version="1.0" encoding="UTF-8" standalone="no"?>
<!-- Generator: Adobe Illustrator 17.1.0, SVG Export Plug-In . SVG Version: 6.00 Build 0)  -->

<svg
   xmlns:dc="http://purl.org/dc/elements/1.1/"
   xmlns:cc="http://creativecommons.org/ns#"
   xmlns:rdf="http://www.w3.org/1999/02/22-rdf-syntax-ns#"
   xmlns:svg="http://www.w3.org/2000/svg"
   xmlns="http://www.w3.org/2000/svg"
   xmlns:sodipodi="http://sodipodi.sourceforge.net/DTD/sodipodi-0.dtd"
   xmlns:inkscape="http://www.inkscape.org/namespaces/inkscape"
   version="1.1"
   id="Capa_1"
   x="0px"
   y="0px"
   viewBox="0 0 470 470"
   style="enable-background:new 0 0 470 470;"
   xml:space="preserve"
   width="512px"
   height="512px"
   sodipodi:docname="type-9.svg"
   inkscape:version="0.92.1 r15371"><metadata
     id="metadata47"><rdf:RDF><cc:Work
         rdf:about=""><dc:format>image/svg+xml</dc:format><dc:type
           rdf:resource="http://purl.org/dc/dcmitype/StillImage" /><dc:title></dc:title></cc:Work></rdf:RDF></metadata><defs
     id="defs45" /><sodipodi:namedview
     pagecolor="#ffffff"
     bordercolor="#666666"
     borderopacity="1"
     objecttolerance="10"
     gridtolerance="10"
     guidetolerance="10"
     inkscape:pageopacity="0"
     inkscape:pageshadow="2"
     inkscape:window-width="640"
     inkscape:window-height="480"
     id="namedview43"
     showgrid="false"
     inkscape:zoom="0.4609375"
     inkscape:cx="256"
     inkscape:cy="256"
     inkscape:window-x="0"
     inkscape:window-y="0"
     inkscape:window-maximized="0"
     inkscape:current-layer="Capa_1" /><g
     id="g10"><path
       d="M201.75,255.895c-4.411,0-8,3.589-8,8s3.589,8,8,8s8-3.589,8-8S206.161,255.895,201.75,255.895z"
       fill="#ba0000"
       id="path2" /><path
       d="M279.559,205.927c-4.411,0-8,3.589-8,8s3.589,8,8,8s8-3.589,8-8S283.971,205.927,279.559,205.927z"
       fill="#ba0000"
       id="path4" /><path
       d="M254.04,185.105c-4.411,0-8,3.589-8,8s3.589,8,8,8s8-3.589,8-8S258.451,185.105,254.04,185.105z"
       fill="#ba0000"
       id="path6" /><path
       d="M468.669,230.734c-10.803-15.623-25.833-27.214-43.233-33.632c13.5-12.537,23.086-29.063,27.079-47.583   c0.657-3.051-0.644-6.189-3.266-7.882c-15.918-10.273-34.383-15.179-52.793-14.499c7.765-16.842,10.197-35.665,6.789-54.351   c-0.56-3.07-2.962-5.473-6.032-6.033c-18.685-3.408-37.509-0.977-54.352,6.789c0.681-18.411-4.226-36.875-14.499-52.794   c-1.692-2.622-4.835-3.923-7.882-3.265c-18.52,3.992-35.046,13.579-47.583,27.078c-6.418-17.401-18.009-32.43-33.632-43.233   c-2.566-1.774-5.965-1.774-8.531,0c-15.623,10.803-27.213,25.833-33.632,43.233c-12.537-13.5-29.063-23.087-47.583-27.078   c-3.046-0.659-6.19,0.643-7.882,3.265c-10.273,15.919-15.179,34.383-14.499,52.794c-16.844-7.766-35.668-10.197-54.352-6.789   c-3.07,0.56-5.473,2.963-6.032,6.033c-3.408,18.686-0.977,37.509,6.789,54.351c-18.41-0.68-36.874,4.225-52.793,14.499   c-2.622,1.692-3.923,4.831-3.266,7.882c3.992,18.52,13.579,35.046,27.079,47.583c-17.401,6.418-32.43,18.009-43.233,33.632   c-1.774,2.567-1.774,5.964,0,8.531c10.803,15.623,25.833,27.214,43.233,33.632c-13.5,12.537-23.087,29.063-27.079,47.583   c-0.657,3.051,0.644,6.189,3.266,7.882c14.949,9.647,32.144,14.569,49.43,14.569c1.123,0,2.246-0.04,3.369-0.082   c-7.77,16.845-10.203,35.672-6.794,54.363c0.56,3.07,2.962,5.473,6.032,6.033c5.542,1.011,11.094,1.51,16.606,1.51   c13.072,0,25.898-2.825,37.745-8.287c-0.678,18.406,4.229,36.866,14.499,52.781c1.4,2.169,3.789,3.434,6.301,3.434   c0.524,0,1.055-0.055,1.581-0.169c18.52-3.992,35.046-13.579,47.583-27.078c6.418,17.401,18.009,32.43,33.632,43.233   c1.283,0.887,2.774,1.331,4.266,1.331s2.982-0.444,4.266-1.331c15.623-10.803,27.213-25.833,33.632-43.233   c12.537,13.5,29.063,23.087,47.583,27.078c0.526,0.114,1.057,0.169,1.581,0.169c2.511,0,4.901-1.265,6.301-3.434   c10.271-15.916,15.177-34.375,14.499-52.781c11.847,5.462,24.673,8.287,37.746,8.287c5.511,0,11.065-0.5,16.605-1.51   c3.07-0.56,5.473-2.963,6.032-6.033c3.409-18.691,0.976-37.518-6.794-54.363c1.123,0.042,2.246,0.082,3.368,0.082   c17.284,0,34.481-4.922,49.43-14.569c2.622-1.692,3.923-4.831,3.266-7.882c-3.992-18.52-13.579-35.046-27.079-47.583   c17.401-6.418,32.43-18.009,43.233-33.632C470.443,236.698,470.443,233.301,468.669,230.734z M436.551,151.515   c-6.405,22.111-22.512,40.241-43.919,49.108c-11.171,4.627-23.233,6.521-35.176,5.553c-3.152-13.396-8.455-25.97-15.518-37.343   c7.765-9.147,17.644-16.353,28.832-20.987C392.178,138.979,416.386,140.408,436.551,151.515z M235,345.793   c-61.092,0-110.793-49.702-110.793-110.793S173.908,124.207,235,124.207S345.793,173.908,345.793,235S296.092,345.793,235,345.793z    M389.257,80.743c1.874,17.063-2.117,34.519-11.232,48.978c-4.399,1.086-8.743,2.505-12.995,4.266   c-12.208,5.057-23.112,12.681-31.994,22.289c-5.723-7.112-12.201-13.591-19.313-19.313c9.609-8.882,17.233-19.786,22.289-31.994   c1.761-4.251,3.18-8.595,4.267-12.994C354.736,82.86,372.195,78.871,389.257,80.743z M318.485,33.449   c11.105,20.165,12.536,44.374,3.669,65.78c-4.635,11.188-11.84,21.067-20.987,28.833c-11.373-7.063-23.947-12.365-37.343-15.518   c-0.967-11.942,0.925-24.004,5.552-35.175C278.244,55.961,296.374,39.855,318.485,33.449z M235,16.848   c13.391,10.74,22.913,25.905,26.69,42.574c-2.342,3.878-4.411,7.954-6.172,12.205c-5.049,12.189-7.368,25.268-6.864,38.322   c-4.487-0.487-9.041-0.744-13.655-0.744s-9.168,0.257-13.655,0.744c0.505-13.054-1.814-26.134-6.864-38.322   c-1.761-4.252-3.83-8.327-6.172-12.206C212.088,42.753,221.609,27.588,235,16.848z M151.515,33.449   c22.111,6.405,40.241,22.512,49.109,43.919c4.627,11.171,6.519,23.233,5.552,35.175c-13.396,3.153-25.97,8.455-37.343,15.518   c-9.148-7.767-16.353-17.645-20.987-28.833C138.978,77.823,140.409,53.615,151.515,33.449z M80.743,80.743   c17.066-1.876,34.52,2.116,48.978,11.232c1.086,4.399,2.506,8.743,4.267,12.994c5.056,12.208,12.68,23.111,22.288,31.994   c-7.113,5.723-13.591,12.201-19.313,19.313c-8.882-9.609-19.785-17.233-31.994-22.29c-4.251-1.761-8.595-3.18-12.994-4.266   C82.86,115.264,78.869,97.807,80.743,80.743z M33.449,151.515c20.167-11.107,44.374-12.537,65.78-3.669   c11.188,4.634,21.067,11.84,28.832,20.987c-7.063,11.373-12.365,23.947-15.518,37.343c-11.942,0.967-24.004-0.926-35.176-5.553   C55.961,191.756,39.854,173.626,33.449,151.515z M16.843,235.007c10.741-13.394,25.908-22.919,42.579-26.698   c3.878,2.342,7.954,4.411,12.206,6.172c11.103,4.599,22.944,6.94,34.832,6.94c1.163,0,2.327-0.025,3.49-0.07   c-0.486,4.484-0.743,9.036-0.743,13.648c0,4.614,0.257,9.168,0.744,13.655c-13.052-0.504-26.133,1.815-38.323,6.864   c-4.253,1.762-8.329,3.831-12.208,6.174C42.529,257.895,27.651,248.563,16.843,235.007z M33.449,318.485   c6.405-22.111,22.512-40.241,43.919-49.108c11.171-4.627,23.233-6.521,35.176-5.553c3.152,13.396,8.455,25.97,15.518,37.343   c-7.765,9.147-17.644,16.353-28.832,20.987C77.821,331.021,53.614,329.591,33.449,318.485z M80.743,389.256   c-1.874-17.064,2.117-34.521,11.233-48.979c4.398-1.086,8.742-2.504,12.993-4.264c12.208-5.057,23.112-12.681,31.994-22.289   c5.723,7.112,12.201,13.591,19.313,19.313c-9.609,8.882-17.233,19.786-22.289,31.994c-1.761,4.251-3.18,8.595-4.267,12.994   C115.263,387.14,97.804,391.13,80.743,389.256z M151.515,436.55c-11.105-20.165-12.536-44.374-3.669-65.78   c4.635-11.188,11.84-21.067,20.987-28.833c11.373,7.063,23.947,12.365,37.343,15.518c0.967,11.942-0.925,24.004-5.552,35.175   C191.756,414.038,173.626,430.145,151.515,436.55z M235,453.151c-13.391-10.74-22.913-25.905-26.69-42.574   c2.342-3.878,4.411-7.954,6.172-12.205c5.049-12.189,7.368-25.268,6.864-38.322c4.487,0.487,9.041,0.744,13.655,0.744   s9.168-0.257,13.655-0.744c-0.505,13.054,1.814,26.133,6.864,38.322c1.761,4.252,3.83,8.327,6.172,12.206   C257.912,427.246,248.39,442.411,235,453.151z M318.485,436.55c-22.111-6.405-40.241-22.512-49.109-43.919   c-4.627-11.171-6.519-23.233-5.552-35.175c13.396-3.153,25.97-8.455,37.343-15.518c9.148,7.767,16.353,17.645,20.987,28.833   C331.021,392.177,329.591,416.385,318.485,436.55z M389.257,389.256c-17.069,1.875-34.521-2.116-48.978-11.232   c-1.086-4.399-2.506-8.743-4.267-12.995c-5.056-12.208-12.68-23.111-22.288-31.994c7.112-5.723,13.591-12.201,19.313-19.313   c8.882,9.609,19.785,17.233,31.994,22.29c4.251,1.761,8.595,3.178,12.993,4.264C387.139,354.735,391.131,372.192,389.257,389.256z    M436.551,318.485c-20.168,11.106-44.376,12.536-65.78,3.669c-11.188-4.634-21.067-11.84-28.832-20.987   c7.063-11.373,12.365-23.947,15.518-37.343c11.943-0.967,24.004,0.926,35.176,5.553   C414.039,278.244,430.145,296.373,436.551,318.485z M410.578,261.69c-3.878-2.342-7.954-4.411-12.206-6.172   c-12.189-5.048-25.269-7.367-38.323-6.864c0.487-4.487,0.744-9.041,0.744-13.655c0-4.611-0.257-9.164-0.743-13.648   c1.163,0.045,2.327,0.07,3.49,0.07c11.888,0,23.729-2.342,34.832-6.94c4.253-1.762,8.329-3.831,12.208-6.174   c16.89,3.797,31.768,13.129,42.577,26.685C442.416,248.387,427.249,257.912,410.578,261.69z"
       fill="#ba0000"
       id="path8" /></g><g
     id="g12" /><g
     id="g14" /><g
     id="g16" /><g
     id="g18" /><g
     id="g20" /><g
     id="g22" /><g
     id="g24" /><g
     id="g26" /><g
     id="g28" /><g
     id="g30" /><g
     id="g32" /><g
     id="g34" /><g
     id="g36" /><g
     id="g38" /><g
     id="g40" /></svg>