<?xml version="1.0" encoding="utf-8"?><svg xmlns="http://www.w3.org/2000/svg" xmlns:xlink="http://www.w3.org/1999/xlink"><symbol viewBox="0 0 344.96 344.96" id="check" xmlns="http://www.w3.org/2000/svg"><g data-name="Слой 2"><path d="M321.85 86.24l-40-23.11-23.1-40H212.5L172.48 0l-40 23.11H86.24l-23.11 40-40 23.1v46.21L0 172.48l23.11 40v46.21l40 23.11 23.11 40h46.21l40 23.1 40-23.11h46.21l23.11-40 40-23.11V212.5l23.11-40-23.11-40V86.24zM156.91 243.07a16.79 16.79 0 0 1-23.34 0l-50.45-50.44a16.19 16.19 0 0 1 0-22.89l13.35-13.35a16.19 16.19 0 0 1 22.89 0l25.87 25.87 80.34-80.35a16.19 16.19 0 0 1 22.89 0l13.35 13.35a16.19 16.19 0 0 1 0 22.89z" data-name="Capa 1"/></g></symbol><symbol viewBox="0 0 5 8" id="chevron-left" xmlns="http://www.w3.org/2000/svg"><defs><path id="ba" d="M1515.31 651.989l-1.3-1.3 2.69-2.69-2.69-2.688 1.3-1.301 3.679 3.678-.311.311.311.311z"/></defs><use xlink:href="#ba" transform="translate(-1514 -644)"/></symbol><symbol viewBox="0 0 5 8" id="chevron-right" xmlns="http://www.w3.org/2000/svg"><defs><path id="ca" d="M1484.01 648.31l.312-.31-.311-.312 3.678-3.678 1.3 1.3-2.689 2.69 2.69 2.688-1.301 1.3z"/></defs><use xlink:href="#ca" transform="translate(-1484 -644)"/></symbol><symbol viewBox="0 0 10 14" id="mark" xmlns="http://www.w3.org/2000/svg"><defs><path id="da" d="M950 64c2.761 0 5 2.35 5 5.25 0 5.195-5 8.75-5 8.75s-5-3.555-5-8.75c0-2.9 2.238-5.25 5-5.25zm-1.667 6.125c0 .966.746 1.75 1.667 1.75.92 0 1.667-.784 1.667-1.75 0-.967-.747-1.75-1.667-1.75s-1.667.783-1.667 1.75z"/></defs><use xlink:href="#da" transform="translate(-945 -64)"/></symbol></svg>