<svg xmlns="http://www.w3.org/2000/svg" width="19" height="18" viewBox="0 0 19 18"><path fill="#fff" d="M4.44 4.24l7.57-1.93-.4-.76c-.26-.49-.9-.69-1.43-.45L3.4 4.24zm9.93-1.88c-.1 0-.2.02-.29.04l-1.77.45-5.44 1.39h8.86l-.34-1.14a1.05 1.05 0 0 0-1.02-.74zm2.47 2.57H1.07c-.34 0-.64.15-.83.37a1 1 0 0 0-.24.63v11.08c0 .54.48.99 1.07.99h15.77c.59 0 1.06-.45 1.06-.99v-2.78h-6.33c-1 0-1.81-.76-1.81-1.69v-2.21c0-.46.2-.87.51-1.18.29-.27.66-.45 1.09-.5l.21-.01h6.33V5.93c0-.55-.47-1-1.06-1zm1.81 4.66a1.2 1.2 0 0 0-.37-.21 1.3 1.3 0 0 0-.35-.05h-6.36c-.59 0-1.06.45-1.06.99v2.22c0 .55.47.99 1.06.99h6.36a1.02 1.02 0 0 0 .72-.26.95.95 0 0 0 .35-.73v-2.22a.95.95 0 0 0-.35-.73zm-5.38 2.54h-.36c-.3 0-.53-.23-.53-.5v-.33c0-.16.08-.3.2-.39.1-.07.2-.11.33-.11h.36c.3 0 .53.22.53.5v.33c0 .27-.24.5-.53.5z"/></svg>