<svg xmlns="http://www.w3.org/2000/svg"  width="57" height="65"  viewBox="0 0 377.52 424.24"><title>advantages-1</title><g id="Слой_2" data-name="Слой 2"><g id="Capa_1" data-name="Capa 1"><path d="M105.93,245.56a14.53,14.53,0,0,1,10.34,4.28,8,8,0,1,0,11.31-11.31,30.62,30.62,0,0,0-43.31,0,8,8,0,0,0,11.31,11.31A14.52,14.52,0,0,1,105.93,245.56Z"/><path d="M249.94,238.53a8,8,0,0,0,11.31,11.31,14.64,14.64,0,0,1,20.68,0,8,8,0,1,0,11.31-11.31A30.66,30.66,0,0,0,249.94,238.53Z"/><path d="M271.55,317.45a117.21,117.21,0,0,1-165.58,0,8,8,0,1,0-11.31,11.31,133.23,133.23,0,0,0,188.21,0,8,8,0,0,0-11.31-11.31Z"/><path d="M377.52,254.18a44.43,44.43,0,0,0-36.37-43.63V76.72A51.67,51.67,0,0,0,272.34,28l-50.23-17C183.52-2.18,142.9-3.52,104.64,7c-50.09,13.82-78.81,43-83.24,84.59a60.73,60.73,0,0,0-9.16,17.25l-3.9,11.53a13.69,13.69,0,0,0,5.74,16.19,13.69,13.69,0,0,0,17.09-1.76,27.92,27.92,0,0,1,5.2-4v79.66a44.36,44.36,0,0,0,2.5,87.64,153.62,153.62,0,0,0,42,80.71,150.5,150.5,0,0,0,107.89,45.34h0A152.49,152.49,0,0,0,338.91,298.16,44.43,44.43,0,0,0,377.52,254.18ZM309.21,47a35.13,35.13,0,0,1,16,29.72V181.4a52,52,0,0,1-43.9-51.28l-.66-88A35,35,0,0,1,309.21,47ZM25.84,118.6l1.56-4.6A44.81,44.81,0,0,1,88.76,87.73,61.17,61.17,0,0,0,160,72.89l2-2.24a8,8,0,0,0-12-10.6l-2,2.24A45.08,45.08,0,0,1,95.52,73.22a60.88,60.88,0,0,0-49.61-.78c-1.44.62-2.85,1.31-4.23,2,9.3-24.79,31.81-42.25,67.21-52C144.05,12.76,181.43,14,217,26.07L264.6,42.24l.62,41.34a140.62,140.62,0,0,1-87.37,55.06A140.65,140.65,0,0,1,74.19,118.16,43.35,43.35,0,0,0,25.84,118.6ZM16,254.18A28.41,28.41,0,0,1,36.37,227v43.36q0,5.62.4,11.17A28.41,28.41,0,0,1,16,254.18ZM285.21,368.29a135.51,135.51,0,0,1-96.43,39.95h0a134.63,134.63,0,0,1-96.49-40.57,137.84,137.84,0,0,1-39.9-97.34V127.12a27.65,27.65,0,0,1,13.07,4.45,156.57,156.57,0,0,0,115.4,22.79,156.47,156.47,0,0,0,84.42-45.94v21.71a68,68,0,0,0,59.9,67.41v74.31A135.5,135.5,0,0,1,285.21,368.29Zm55.64-86.81c.2-3.19.31-6.4.31-9.63V227a28.36,28.36,0,0,1-.31,54.51Z"/></g></g></svg>