<svg xmlns="http://www.w3.org/2000/svg"  width="73" height="64"  viewBox="0 0 512 447.87"><title>advantages-2</title><g id="Слой_2" data-name="Слой 2"><g id="Capa_1" data-name="Capa 1"><path d="M315,329.62H287a7.5,7.5,0,0,0,0,15H315a7.5,7.5,0,0,0,0-15Z"/><path d="M480.25,249.33l-40.84-15.75-20.82-20.82a7.47,7.47,0,0,0-4.82-2.17V194a77.35,77.35,0,0,0,19.62-38.64,21.46,21.46,0,0,0,5.26-.42c10-2,17.22-11.3,17.22-22v-5.47a22.48,22.48,0,0,0-6.61-16c6.62-36,1.17-65.37-15.85-85C417,7.49,390.44-1.59,356.74.23c-31.14,1.68-51.24,16-57.6,21.25a39.52,39.52,0,0,0-15.43,5.24c-8.33,5-18.26,15.5-18.26,37.13a187.29,187.29,0,0,0,5.2,43.57,22.23,22.23,0,0,0-12.22,20.13v5.38c0,10.71,7.24,20,17.22,22a21.41,21.41,0,0,0,5.26.42A77.35,77.35,0,0,0,300.53,194v16.57a7.46,7.46,0,0,0-4.82,2.17l-20.82,20.82L234,249.33a49.66,49.66,0,0,0-10,5.25A7.5,7.5,0,1,0,232.44,267a34.7,34.7,0,0,1,7-3.66l37.9-14.62,29,43.47a21.46,21.46,0,0,0,15.8,9.48c.72.07,1.43.11,2.15.11A21.41,21.41,0,0,0,334.82,299L328.6,440a7.5,7.5,0,0,0,7.16,7.82h.34a7.5,7.5,0,0,0,7.49-7.17l5.77-130.94h15.57L370.7,440.7a7.5,7.5,0,0,0,7.49,7.17h.34a7.5,7.5,0,0,0,7.16-7.82L379.47,299A21.4,21.4,0,0,0,390,301.77c.71,0,1.43,0,2.15-.11a21.46,21.46,0,0,0,15.8-9.48l29-43.47,37.9,14.62a34.52,34.52,0,0,1,13.49,9.4l-25.93,25.93a49.28,49.28,0,0,0-14.53,35.07V440.37a7.5,7.5,0,0,0,15,0V333.73A34.38,34.38,0,0,1,473,309.26l22.76-22.76A34.56,34.56,0,0,1,497,297l-5.81,143.08a7.5,7.5,0,0,0,7.19,7.8h.31a7.5,7.5,0,0,0,7.49-7.2L512,297.59A49.59,49.59,0,0,0,480.25,249.33ZM295.59,152.28a14.6,14.6,0,0,0-15.19-11.9,6.43,6.43,0,0,1-1.74-.12c-3-.61-5.23-3.76-5.23-7.32v-5.39c0-3.48,2.33-6.61,5.29-7.13a6.52,6.52,0,0,1,6.42,2.46,10.46,10.46,0,0,0,14.37,2.26,54.45,54.45,0,0,0,12.3-12,7.5,7.5,0,0,0-12-8.95,39.81,39.81,0,0,1-5.84,6.31,21.46,21.46,0,0,0-8.13-4.34,172.49,172.49,0,0,1-5.36-42.27c0-11.49,3.54-19.56,10.52-24a24.35,24.35,0,0,1,11.21-3.6,7.57,7.57,0,0,0,5.17-2.07c.18-.17,18.62-17.28,50.19-19,28.9-1.56,51.21,5.74,64.52,21.1s17.88,39.27,13,69a32.51,32.51,0,0,0-6.4.45l-7-16.92a7.51,7.51,0,0,0-8.82-4.37c-.7.18-70,17.74-99-18.42a7.5,7.5,0,1,0-11.69,9.39c29.66,36.92,88.5,28.89,108.09,25l5.45,13.09a12.33,12.33,0,0,0,14.24,7.3,16.19,16.19,0,0,1,5.61-.41,7.08,7.08,0,0,1,5.32,7v5.47c0,3.56-2.25,6.71-5.23,7.32a6.36,6.36,0,0,1-1.74.12,14.61,14.61,0,0,0-15.19,11.9,62.59,62.59,0,0,1-123.11,0Zm33.27,132.58a6.53,6.53,0,0,1-10.05-1l-29.2-43.79,11.74-11.74,44.82,39.22ZM350,294.76l.45-10.31,6.67-6.67,6.67,6.67.45,10.31Zm7.12-37.55-41.62-36.42V206.44a77.62,77.62,0,0,0,83.24,0v14.35Zm38.34,26.65a6.53,6.53,0,0,1-10.06,1l-17.31-17.31,44.82-39.22,11.74,11.74Z"/><path d="M237.84,288.64l-36.62-16-20-20a7.46,7.46,0,0,0-4.82-2.17v-11.8A77.46,77.46,0,0,0,210,188.23a21.55,21.55,0,0,0,5.92-.56c9.6-2.27,16.56-11.47,16.56-21.87v-5.47a22.36,22.36,0,0,0-9.61-18.44,84.81,84.81,0,0,0,2.59-20.78C225.5,90,208.7,62.67,183.39,47,183.12,21,161,0,133.8,0S84.48,21,84.21,47C58.89,62.67,42.1,90,42.1,121.11a84.81,84.81,0,0,0,2.58,20.72,22.41,22.41,0,0,0-9.6,18.58v5.39c0,10.4,7,19.6,16.56,21.87a21.51,21.51,0,0,0,5.92.56,77.46,77.46,0,0,0,33.65,50.43v11.8a7.46,7.46,0,0,0-4.82,2.17l-20,20-36.62,16A49.91,49.91,0,0,0,0,336.19L4.47,440.69A7.5,7.5,0,0,0,12,447.87h.32a7.5,7.5,0,0,0,7.18-7.81L15,335.56a34.53,34.53,0,0,1,4.75-18.89l19.69,23.62a41.69,41.69,0,0,1,9.65,26.64v73.44a7.5,7.5,0,1,0,15,0V366.94A56.73,56.73,0,0,0,51,330.69L30.07,305.58a34,34,0,0,1,5.69-3.19l31.92-13.93,22.55,36.61A14.52,14.52,0,0,0,112,328.49l14.29-12.2V440.37a7.5,7.5,0,1,0,15,0V316.3l14.29,12.2a14.52,14.52,0,0,0,21.78-3.43l22.55-36.61,31.92,13.93a34,34,0,0,1,5.69,3.19l-20.93,25.11a56.72,56.72,0,0,0-13.12,36.24v73.44a7.5,7.5,0,0,0,15,0V366.94a41.7,41.7,0,0,1,9.65-26.64l19.68-23.62a34.53,34.53,0,0,1,4.76,18.89l-4.43,104.49a7.5,7.5,0,0,0,7.18,7.81h.32a7.5,7.5,0,0,0,7.49-7.18l4.43-104.49A49.92,49.92,0,0,0,237.84,288.64ZM133.8,15c16,0,29.42,10.18,33.4,24a95.11,95.11,0,0,0-66.8,0C104.38,25.18,117.84,15,133.8,15ZM72.25,185.14a14.61,14.61,0,0,0-15.19-11.9,6.48,6.48,0,0,1-2-.17c-2.86-.68-5-3.8-5-7.27v-5.39c0-3.48,2.33-6.61,5.29-7.13a6.52,6.52,0,0,1,6.42,2.46A10.46,10.46,0,0,0,76.17,158a54.4,54.4,0,0,0,12.14-11.81,7.5,7.5,0,0,0-12-9,39.76,39.76,0,0,1-5.72,6.15,21.49,21.49,0,0,0-11.32-5,69.85,69.85,0,0,1-2.17-17.24c0-40.36,34.41-73.19,76.7-73.19s76.7,32.83,76.7,73.19a69.82,69.82,0,0,1-2.16,17.2,34.4,34.4,0,0,0-5.84,1l-5.64-4.64a14.4,14.4,0,0,0-10-3.28c-11,.65-67.48,2.14-96.45-32.52a7.5,7.5,0,0,0-11.51,9.62c14.29,17.1,35.24,28.66,62.28,34.36a183.57,183.57,0,0,0,46.31,3.53l8.8,7.23a7.48,7.48,0,0,0,8.53.69,16.55,16.55,0,0,1,7.39-1,7.08,7.08,0,0,1,5.32,7v5.47c0,3.47-2.16,6.6-5,7.27a6.41,6.41,0,0,1-2,.17,14.62,14.62,0,0,0-15.19,11.9,62.59,62.59,0,0,1-123.11,0ZM102.7,316.71,80.14,280.1,91.7,268.54l31.06,31.06Zm31.1-27.29-27.58-27.58V246.33a77.54,77.54,0,0,0,55.17,0v15.52Zm31.1,27.29L144.84,299.6l31.06-31.06,11.56,11.56Z"/><path d="M105.73,362.7h-21a7.5,7.5,0,0,0,0,15h21.05a7.5,7.5,0,1,0,0-15Z"/></g></g></svg>