<svg xmlns="http://www.w3.org/2000/svg" viewBox="0 0 512 458"><title>armchair</title><g id="Слой_2" data-name="Слой 2"><g id="Capa_1" data-name="Capa 1"><path d="M263.07,2.93A10,10,0,0,0,246,10a10,10,0,1,0,17.07-7.07Z"/><path d="M512,191a42,42,0,0,0-73.6-27.62l15.91-51.84A86.24,86.24,0,0,0,371.86,0H299a10,10,0,0,0,0,20h72.86a66.24,66.24,0,0,1,63.33,85.67l-21.78,71A42,42,0,0,0,406,176H106a42,42,0,0,0-7.4.67l-21.78-71A66.24,66.24,0,0,1,140.14,20H212a10,10,0,0,0,0-20H140.14A86.24,86.24,0,0,0,57.69,111.54L73.6,163.38A42,42,0,0,0,8.65,216.51,352,352,0,0,1,24,319.37V394h0v54a10,10,0,0,0,10,10H74a10,10,0,0,0,10-10V404H428v44a10,10,0,0,0,10,10h40a10,10,0,0,0,10-10V394h0V319.37a352,352,0,0,1,15.34-102.86A41.78,41.78,0,0,0,512,191ZM64,438H44V404H64Zm0-220V384H44V319.37a372,372,0,0,0-10.35-87.21A42,42,0,0,0,42,233a10,10,0,0,0,0-20,22,22,0,1,1,22-22ZM428,384H84V322a22,22,0,0,1,22-22H406a22,22,0,0,1,22,22Zm0-126a22,22,0,0,1-22,22H106a22,22,0,0,1-21.9-20h92.38a10,10,0,0,0,0-20H84V218a22,22,0,0,1,22-22H406a22,22,0,0,1,22,22Zm20,180V404h20v34Zm22-225a10,10,0,0,0,0,20,42,42,0,0,0,8.35-.83A371.91,371.91,0,0,0,468,319.37V384H448V191a22,22,0,1,1,22,22Z"/><path d="M219.9,242.93a10,10,0,1,0,2.93,7.07A10.09,10.09,0,0,0,219.9,242.93Z"/></g></g></svg>