<svg xmlns="http://www.w3.org/2000/svg" viewBox="0 0 59 59"><title>blueprint</title><g id="Слой_2" data-name="Слой 2"><g id="Capa_1" data-name="Capa 1"><path d="M14,7A7,7,0,0,0,0,7V52H0s0,0,0,.06A7,7,0,0,0,6.94,59H59V7ZM2,7A5,5,0,0,1,6,2.1a1,1,0,0,0,2,0A5,5,0,0,1,12,7V47.1A7,7,0,0,0,7,45a7.12,7.12,0,0,0-.72,0l-.32,0-.38.06-.41.1-.26.07-.49.18-.15.06c-.2.08-.39.18-.58.28h0A7,7,0,0,0,2,47.1ZM57,57H6.94A5,5,0,1,1,12,52h2V9H57Z"/><path d="M46,21a1,1,0,0,0,1.15-1.64l-1.63-1.15a1,1,0,1,0-1.15,1.64Z"/><path d="M50.92,24.46a1,1,0,0,0,1.15-1.64l-1.63-1.15a1,1,0,1,0-1.15,1.63Z"/><path d="M37,41a1,1,0,0,0,1,1h2a1,1,0,0,0,0-2H38A1,1,0,0,0,37,41Z"/><path d="M51,27.38v2a1,1,0,1,0,2,0v-2a1,1,0,0,0-2,0Z"/><path d="M41.12,17.54a1,1,0,0,0,1.15-1.64l-1.63-1.15a1,1,0,1,0-1.15,1.64Z"/><path d="M43,41a1,1,0,0,0,1,1h2a1,1,0,0,0,0-2H44A1,1,0,0,0,43,41Z"/><path d="M29,41a1,1,0,0,0-1-1H26a1,1,0,0,0,0,2h2A1,1,0,0,0,29,41Z"/><path d="M52,36.38a1,1,0,0,0,1-1v-2a1,1,0,0,0-2,0v2A1,1,0,0,0,52,36.38Z"/><path d="M36.21,14.08a1,1,0,0,0,1.15-1.64l-1.63-1.15a1,1,0,1,0-1.15,1.64Z"/><path d="M51,40H50a1,1,0,0,0,0,2h3V39.38a1,1,0,0,0-2,0Z"/><path d="M20,42h2a1,1,0,0,0,0-2H20a1,1,0,0,0,0,2Z"/><path d="M18,28a1,1,0,0,0,1-1V25a1,1,0,0,0-2,0v2A1,1,0,0,0,18,28Z"/><path d="M20.45,23.27a1,1,0,0,0,.58-.18l1.63-1.15a1,1,0,1,0-1.16-1.64l-1.63,1.15a1,1,0,0,0,.58,1.82Z"/><path d="M25.35,19.81a1,1,0,0,0,.58-.18l1.63-1.15a1,1,0,0,0-1.16-1.64L24.77,18a1,1,0,0,0,.58,1.82Z"/><path d="M18,34a1,1,0,0,0,1-1V31a1,1,0,0,0-2,0v2A1,1,0,0,0,18,34Z"/><path d="M30.26,16.35a1,1,0,0,0,.58-.18L32.47,15a1,1,0,1,0-1.15-1.64l-1.63,1.15a1,1,0,0,0,.58,1.82Z"/><path d="M31,41a1,1,0,0,0,1,1h2a1,1,0,0,0,0-2H32A1,1,0,0,0,31,41Z"/><path d="M18,40a1,1,0,0,0,1-1V37a1,1,0,0,0-2,0v2A1,1,0,0,0,18,40Z"/><path d="M41,54H54V46H41Zm2-6h9v4H43Z"/><path d="M22,30v2a1,1,0,0,0,2,0V30a1,1,0,0,0-2,0Z"/><path d="M31,27a1,1,0,0,0-1,1v2a1,1,0,0,0,2,0V28A1,1,0,0,0,31,27Z"/><path d="M25,29h2a1,1,0,0,0,0-2H25a1,1,0,0,0,0,2Z"/><path d="M26,36a1,1,0,0,0-1-1H23a1,1,0,0,0,0,2h2A1,1,0,0,0,26,36Z"/><path d="M29,37h2a1,1,0,0,0,1-1V34a1,1,0,0,0-2,0v1H29a1,1,0,0,0,0,2Z"/><path d="M40,28a1,1,0,0,0,1,1h2a1,1,0,0,0,0-2H41A1,1,0,0,0,40,28Z"/><path d="M46,28v2a1,1,0,0,0,2,0V28a1,1,0,0,0-2,0Z"/><path d="M47,37a1,1,0,0,0,1-1V34a1,1,0,0,0-2,0v1H45a1,1,0,0,0,0,2Z"/><path d="M39,33a1,1,0,0,0,1-1V30a1,1,0,0,0-2,0v2A1,1,0,0,0,39,33Z"/><path d="M39,37h2a1,1,0,0,0,0-2H39a1,1,0,0,0,0,2Z"/><path d="M38,46H33a1,1,0,0,0,0,2h5a1,1,0,0,0,0-2Z"/><path d="M38,49H31a1,1,0,0,0,0,2h7a1,1,0,0,0,0-2Z"/><path d="M38,52H28a1,1,0,0,0,0,2H38a1,1,0,0,0,0-2Z"/><circle cx="4" cy="5" r="1"/><circle cx="10" cy="5" r="1"/><circle cx="7" cy="8" r="1"/><circle cx="4" cy="11" r="1"/><circle cx="10" cy="11" r="1"/><circle cx="4" cy="17" r="1"/><circle cx="10" cy="17" r="1"/><circle cx="7" cy="14" r="1"/><circle cx="7" cy="20" r="1"/><circle cx="4" cy="23" r="1"/><circle cx="10" cy="23" r="1"/><circle cx="4" cy="29" r="1"/><circle cx="10" cy="29" r="1"/><circle cx="7" cy="26" r="1"/><circle cx="7" cy="32" r="1"/><circle cx="4" cy="35" r="1"/><circle cx="10" cy="35" r="1"/><circle cx="4" cy="41" r="1"/><circle cx="10" cy="41" r="1"/><circle cx="7" cy="38" r="1"/><circle cx="7" cy="44" r="1"/></g></g></svg>