<svg xmlns="http://www.w3.org/2000/svg" viewBox="0 0 512 303.58"><title>bus-stop</title><g id="Слой_2" data-name="Слой 2"><g id="Capa_1" data-name="Capa 1"><path d="M504.5,288.58H496V95.16h.52a7.5,7.5,0,0,0,7.5-7.5V57.23A23.52,23.52,0,0,0,488.47,16H119.73a23.52,23.52,0,0,0-15.52,41.2V87.66a7.5,7.5,0,0,0,7.5,7.5h.52V288.58H79.13V256a23.57,23.57,0,0,0-16-22.3V7.5a7.5,7.5,0,0,0-15,0V16H15.52A15.54,15.54,0,0,0,0,31.55v48.1A15.53,15.53,0,0,0,15.52,95.16H48.1V233.7a23.57,23.57,0,0,0-16,22.3v32.58H7.5a7.5,7.5,0,0,0,0,15h497a7.5,7.5,0,0,0,0-15ZM15.52,80.16h0a.51.51,0,0,1-.52-.51V31.55a.52.52,0,0,1,.52-.52H48.1V80.16ZM64.13,288.58H47.06V256a8.53,8.53,0,1,1,17.06,0Zm240.49,0H175.32v-33.1H304.61Zm128.26,0H383.74V271.52h49.13Zm-64.65-32.06a.52.52,0,0,1-.52-.52V127.74a.52.52,0,0,1,.52-.52h80.16a.52.52,0,0,1,.52.52V256a.52.52,0,0,1-.52.52H368.23ZM481,288.58h-33.1V271.52h.52A15.53,15.53,0,0,0,463.9,256V223.42H481v65.16Zm0-80.16H463.9V127.74a15.53,15.53,0,0,0-15.52-15.52H368.23a15.53,15.53,0,0,0-15.52,15.52v80.68H183.86a7.5,7.5,0,0,0,0,15H352.71V256a15.53,15.53,0,0,0,15.52,15.52h.52v17.07H319.61v-33.1h8.53a7.5,7.5,0,0,0,0-15H151.79a7.5,7.5,0,0,0,0,15h8.53v33.1h-33.1V223.42h24.57a7.5,7.5,0,0,0,0-15H127.23V95.16H481V208.42ZM472.44,63.1H489V80.16H119.21V63.08H440.37a7.5,7.5,0,0,0,0-15H119.73a8.53,8.53,0,0,1,0-17.07H488.47a8.53,8.53,0,0,1,0,17.07h-16a7.5,7.5,0,0,0,0,15Z"/></g></g></svg>