<svg xmlns="http://www.w3.org/2000/svg"  width="65" height="65"  viewBox="0 0 60 60"><title>calendar</title><g id="Слой_2" data-name="Слой 2"><g id="Capa_1" data-name="Capa 1"><path d="M50.25,11C48.69,10.16,39,4.93,33.63,1.58a5,5,0,0,0-7.25,0C21,4.93,11.31,10.16,9.75,11H0V60H60V11Zm-18-8V3a3.08,3.08,0,0,1,.66,1.22s0,.09,0,.13A3,3,0,0,1,33,5a3,3,0,0,1-6,0,2.9,2.9,0,0,1,.07-.63s0-.09,0-.13A3.08,3.08,0,0,1,27.77,3V3a3,3,0,0,1,4.45,0ZM25,4.75q0,.12,0,.25A5,5,0,0,0,35,5q0-.12,0-.25c3.59,2.14,8,4.6,11.06,6.25H13.95C17,9.35,21.41,6.89,25,4.75ZM10,13H58v5H2V13ZM2,58V20H58V58Z"/><circle cx="23" cy="28" r="1"/><circle cx="30" cy="28" r="1"/><circle cx="37" cy="28" r="1"/><circle cx="44" cy="28" r="1"/><circle cx="51" cy="28" r="1"/><circle cx="9" cy="36" r="1"/><circle cx="16" cy="36" r="1"/><circle cx="23" cy="36" r="1"/><circle cx="30" cy="36" r="1"/><circle cx="37" cy="36" r="1"/><circle cx="44" cy="36" r="1"/><circle cx="51" cy="36" r="1"/><circle cx="9" cy="43" r="1"/><circle cx="16" cy="43" r="1"/><circle cx="23" cy="43" r="1"/><circle cx="30" cy="43" r="1"/><circle cx="37" cy="43" r="1"/><circle cx="44" cy="43" r="1"/><circle cx="51" cy="43" r="1"/><circle cx="9" cy="51" r="1"/><circle cx="16" cy="51" r="1"/><circle cx="23" cy="51" r="1"/><circle cx="30" cy="51" r="1"/><circle cx="37" cy="51" r="1"/></g></g></svg>