<svg xmlns="http://www.w3.org/2000/svg" viewBox="0 0 444.18 405.12"><title>caplay</title><g id="Слой_2" data-name="Слой 2"><g id="Слой_1-2" data-name="Слой 1"><path d="M0,107c6.07-5.16,9.2-4.46,12.95,2.86,5.08,9.91,10.18,19.8,15.72,30.57.84-2.06,1.41-3.44,2-4.84Q74.84,21.77,195.37,2.27c6.38-1,12.94-1,19.4-1.46A37.33,37.33,0,0,0,219,0h5c6.21.59,12.43,1.09,18.63,1.79,84.08,9.62,151,66.36,173.81,147.4.27,1,.49,1.93.72,2.9,1.11,4.79-.26,8.05-3.94,8.73-4.55.84-6.68-1.71-7.74-5.82-6.14-23.81-16.33-45.79-31.29-65.29-37.32-48.62-86.53-74.93-148-76.81-82.87-2.54-158.23,50-184.66,128.23-.36,1.06-.61,2.16-1.19,4.26l29.41-15.05q2.44-1.25,4.9-2.48c3.46-1.72,6.65-1.51,8.59,2.1,2,3.79.52,6.76-3.15,8.65q-20.85,10.76-41.72,21.47c-1.33.68-2.64,1.42-4,2.11-4.63,2.41-7.73,1.3-10.08-3.35Q12.7,135.91,1,113a5.12,5.12,0,0,0-1-1Z"/><path d="M404.14,260.21l-24.27,12.38c-3,1.51-5.91,3-8.89,4.54-4.81,2.41-8.13,1.9-9.94-1.49-1.91-3.58-.36-6.79,4.66-9.37q18.86-9.7,37.74-19.35c2.36-1.21,4.65-2.58,7-3.82,3.81-2,7.38-1,9.27,2.73q11.65,22.89,23.23,45.83c2.18,4.32,1.45,7.78-1.85,9.56s-6.5.52-8.8-3.87c-5.46-10.45-10.83-20.94-16.38-31.72-4,9.28-7.37,18.4-11.82,26.94-33.52,64.32-86.3,102.09-158.22,111-98.58,12.28-192-51.5-217.93-147.33-.52-1.91-1.49-4.17-.91-5.8.77-2.15,2.62-5,4.45-5.4s4.88,1.36,6.39,3.06,1.41,4.35,2.13,6.56c25,76.93,76.94,124,157.06,136.1,90.08,13.63,175.11-39.46,205.58-125.46C403.12,264,403.45,262.6,404.14,260.21Z"/><path d="M128.48,230.91c-.19-22.77,7.76-43.17,19.4-62.07,12.9-21,27.05-41.15,40.34-61.88C194.68,96.89,200.5,86.4,206.45,76c6.26-10.95,20.66-11.27,27.42-.75q22.65,35.25,45.67,70.27c11.21,17,22.37,33.89,29.24,53.21,18.87,53.09-11,109.59-65,122.72-41.27,10-82.17-6.26-102.4-40.91C132.48,265.23,128.68,248.53,128.48,230.91Zm91.34,82.59c57.37.15,96.87-53.08,79.87-107.78-5.85-18.81-16.46-35.16-27.19-51.44-15.65-23.75-31.08-47.63-46.73-71.37-1.25-1.9-3.64-4.49-5.26-4.33-2,.19-4.38,2.55-5.66,4.57-9.77,15.47-19.18,31.15-28.95,46.62-10,15.9-20.9,31.29-30.36,47.52-11.3,19.39-18.29,40-15.83,63.24C144.23,283.16,177,313.38,219.82,313.49Z"/><path d="M198.69,148.65c-1,2.05-1.54,3.42-2.28,4.67-8.32,14-16.73,27.9-25,41.91-2,3.34-4.58,4.47-7.86,2.69-3.45-1.87-3.49-5.07-1.74-8.18,5.7-10.13,11.42-20.24,17.31-30.26A102.94,102.94,0,0,1,188,146.24a7.72,7.72,0,0,1,6.33-2.12C196,144.43,197.23,147,198.69,148.65Z"/><path d="M165.53,208.23c-1.38,4.32-2,8-3.79,11.11-.85,1.48-4,2.57-5.84,2.24-1.52-.28-3.81-3-3.65-4.47a32.26,32.26,0,0,1,3.28-11.25c.68-1.3,4.14-2,6-1.57C163.17,204.64,164.35,207,165.53,208.23Z"/></g></g></svg>