<svg xmlns="http://www.w3.org/2000/svg" viewBox="0 0 512 512"><title>car</title><g id="Слой_2" data-name="Слой 2"><g id="Layer_1" data-name="Layer 1"><path d="M504.49,136.27a24.57,24.57,0,0,1-24.55-24.55,7.52,7.52,0,0,0-15,0,24.57,24.57,0,0,1-24.55,24.55,7.51,7.51,0,1,0,0,15,24.58,24.58,0,0,1,24.55,24.55,7.52,7.52,0,0,0,15,0,24.57,24.57,0,0,1,24.55-24.55,7.51,7.51,0,1,0,0-15Zm-32.06,16.4a40,40,0,0,0-8.88-8.88,40,40,0,0,0,8.88-8.88,40,40,0,0,0,8.88,8.88A40,40,0,0,0,472.42,152.66Z"/><path d="M71.64,136.27a24.58,24.58,0,0,1-24.55-24.55,7.51,7.51,0,1,0-15,0A24.58,24.58,0,0,1,7.51,136.27a7.51,7.51,0,1,0,0,15,24.58,24.58,0,0,1,24.55,24.55,7.51,7.51,0,1,0,15,0A24.58,24.58,0,0,1,71.64,151.3a7.51,7.51,0,1,0,0-15Zm-32.06,16.4a40,40,0,0,0-8.88-8.88,39.93,39.93,0,0,0,8.88-8.88,40,40,0,0,0,8.88,8.88A40,40,0,0,0,39.58,152.66Z"/><path d="M296.08,40.08A32.6,32.6,0,0,1,263.52,7.51a7.51,7.51,0,0,0-15,0,32.6,32.6,0,0,1-32.56,32.56,7.51,7.51,0,1,0,0,15,32.6,32.6,0,0,1,32.56,32.56,7.52,7.52,0,0,0,15,0,32.6,32.6,0,0,1,32.56-32.56,7.52,7.52,0,1,0,0-15ZM256,62a48,48,0,0,0-14.43-14.43A48,48,0,0,0,256,33.16a48,48,0,0,0,14.43,14.43A48,48,0,0,0,256,62Z"/><path d="M412.46,253.5l-29.23-82.82a15.55,15.55,0,0,0-14.64-10.36H141.42a15.55,15.55,0,0,0-14.65,10.36L97.54,253.5a7.59,7.59,0,0,0,7.09,10H405.37a7.52,7.52,0,0,0,7.09-10Zm-297.21-5,25.7-72.81a.52.52,0,0,1,.47-.33H368.58a.52.52,0,0,1,.47.34l25.7,72.81Z"/><path d="M399.28,352.69c-26.69,0-47.59,13.86-47.59,31.56s20.9,31.56,47.59,31.56,47.59-13.86,47.59-31.56S426,352.69,399.28,352.69Zm0,48.09c-18.64,0-32.56-8.73-32.56-16.53s13.92-16.53,32.56-16.53,32.56,8.73,32.56,16.53S417.92,400.78,399.28,400.78Z"/><path d="M110.72,352.69c-26.69,0-47.59,13.86-47.59,31.56S84,415.81,110.72,415.81s47.59-13.86,47.59-31.56S137.41,352.69,110.72,352.69Zm0,48.09c-18.64,0-32.56-8.73-32.56-16.53s13.93-16.53,32.56-16.53,32.56,8.73,32.56,16.53S129.36,400.78,110.72,400.78Z"/><path d="M495.47,240.47H455.39a7.51,7.51,0,0,0-7.29,5.69l-5.28,21.12L405.9,162.67a39.64,39.64,0,0,0-37.32-26.4H141.42a39.64,39.64,0,0,0-37.32,26.41L67.18,267.28,61.9,246.16a7.52,7.52,0,0,0-7.29-5.69H14.53A7.51,7.51,0,0,0,7,248V280a7.51,7.51,0,0,0,7.51,7.52H56L30.42,323.43a39.36,39.36,0,0,0-7.37,23v93.93a39.54,39.54,0,0,0,16,31.8c0,.09,0,.17,0,.26v24A15.55,15.55,0,0,0,54.61,512H102.7a15.55,15.55,0,0,0,15.53-15.53V479.94H391.76v16.53A15.55,15.55,0,0,0,407.29,512h48.09a15.55,15.55,0,0,0,15.53-15.53v-24c0-.09,0-.18,0-.26a39.54,39.54,0,0,0,16-31.8V346.43a39.36,39.36,0,0,0-7.37-23L454,287.56h41.51A7.51,7.51,0,0,0,503,280V248A7.51,7.51,0,0,0,495.47,240.47ZM22,272.53v-17h26.7l4.26,17ZM103.2,496.47a.5.5,0,0,1-.5.5H54.61a.5.5,0,0,1-.5-.5V479.94h49.1Zm352.69,0a.5.5,0,0,1-.5.5H407.3a.5.5,0,0,1-.5-.5V479.94h49.1Zm-8.52-31.56H62.62a24.59,24.59,0,0,1-23.37-17H470.74A24.59,24.59,0,0,1,447.37,464.91ZM319.62,383.75v17H190.37v-17Zm-128.07-15a24.59,24.59,0,0,1,23.37-17h80.16a24.59,24.59,0,0,1,23.37,17Zm128.07,47.09v17H190.37v-17Zm147.73-83.65a24.41,24.41,0,0,1,4.57,14.27v86.41H334.65V376.24a39.62,39.62,0,0,0-39.58-39.58H214.92a39.62,39.62,0,0,0-39.58,39.58v56.61H38.08V346.43a24.41,24.41,0,0,1,4.57-14.27l31.86-44.6H351.19a7.52,7.52,0,0,0,0-15H81.26l37-104.86a24.59,24.59,0,0,1,23.15-16.38H368.58a24.59,24.59,0,0,1,23.15,16.38l37,104.86H383.25a7.52,7.52,0,1,0,0,15h52.24ZM488,272.53H457l4.26-17H488Z"/><path d="M134.76,328.64H86.67a7.52,7.52,0,0,0,0,15h48.09a7.52,7.52,0,0,0,0-15Z"/><path d="M423.33,328.64H375.23a7.52,7.52,0,0,0,0,15h48.09a7.52,7.52,0,0,0,0-15Z"/></g></g></svg>