<svg xmlns="http://www.w3.org/2000/svg" viewBox="0 0 469.33 512"><title>celsius</title><g id="Слой_2" data-name="Слой 2"><g id="Layer_1" data-name="Layer 1"><path d="M213.33,53.33a53.33,53.33,0,0,0-106.67,0V385.41a74.67,74.67,0,1,0,106.67,0V53.33ZM160,490.67a53.4,53.4,0,0,1-53.33-53.33,52.61,52.61,0,0,1,17.81-39.47,10.7,10.7,0,0,0,3.52-7.93V53.33a32,32,0,0,1,64,0v336.6a10.7,10.7,0,0,0,3.52,7.93,52.61,52.61,0,0,1,17.81,39.47A53.4,53.4,0,0,1,160,490.67Z"/><path d="M170.67,407.3V224a10.67,10.67,0,0,0-21.33,0V407.3a32,32,0,1,0,21.33,0ZM160,448a10.67,10.67,0,1,1,10.67-10.67A10.67,10.67,0,0,1,160,448Z"/><path d="M74.67,341.33h-64a10.67,10.67,0,1,0,0,21.33h64a10.67,10.67,0,1,0,0-21.33Z"/><path d="M74.67,298.67H53.33a10.67,10.67,0,1,0,0,21.33H74.67a10.67,10.67,0,1,0,0-21.33Z"/><path d="M74.67,256H53.33a10.67,10.67,0,1,0,0,21.33H74.67a10.67,10.67,0,1,0,0-21.33Z"/><path d="M10.67,234.67h64a10.67,10.67,0,0,0,0-21.33h-64a10.67,10.67,0,0,0,0,21.33Z"/><path d="M10.67,106.67h64a10.67,10.67,0,0,0,0-21.33h-64a10.67,10.67,0,1,0,0,21.33Z"/><path d="M74.67,170.67H53.33a10.67,10.67,0,1,0,0,21.33H74.67a10.67,10.67,0,1,0,0-21.33Z"/><path d="M74.67,128H53.33a10.67,10.67,0,0,0,0,21.33H74.67a10.67,10.67,0,0,0,0-21.33Z"/><path d="M309.33,170.67h21.33a32,32,0,0,1,32,32,10.67,10.67,0,1,0,21.33,0,53.4,53.4,0,0,0-53.33-53.33H309.33A53.4,53.4,0,0,0,256,202.67V288a53.4,53.4,0,0,0,53.33,53.33h21.33A53.4,53.4,0,0,0,384,288a10.67,10.67,0,1,0-21.33,0,32,32,0,0,1-32,32H309.33a32,32,0,0,1-32-32V202.67A32,32,0,0,1,309.33,170.67Z"/><path d="M437.33,149.33a32,32,0,1,0,32,32A32,32,0,0,0,437.33,149.33Zm0,42.67A10.67,10.67,0,1,1,448,181.33,10.67,10.67,0,0,1,437.33,192Z"/></g></g></svg>