<svg xmlns="http://www.w3.org/2000/svg" viewBox="0 0 511.84 511.45"><title>clock-2</title><g id="Слой_2" data-name="Слой 2"><g id="Capa_1" data-name="Capa 1"><path d="M255.65,76.45c-99.3,0-180,80.68-180,180s80.68,180,180,180,180-80.68,180-180S354.95,76.45,255.65,76.45Zm0,344.44c-90.76,0-164.46-73.7-164.46-164.46S164.89,92,255.65,92s164.46,73.7,164.46,164.46S346.41,420.89,255.65,420.89Z"/><path d="M263.41,226.95V161.78a7.76,7.76,0,0,0-15.52,0v65.16c-12.41,3.88-22.5,15.51-22.5,29.48a32.09,32.09,0,0,0,3.88,14.74l-43.44,42.67a7.68,7.68,0,1,0,10.86,10.86l43.44-41.89a28,28,0,0,0,15.51,4.65c16.29,0,30.26-14,30.26-30.26A31.89,31.89,0,0,0,263.41,226.95Zm-7.76,44.22c-7.76,0-14.74-7-14.74-14.74a14.26,14.26,0,0,1,14.74-14.74c7.76,0,14.74,7,14.74,14.74A14.73,14.73,0,0,1,255.65,271.16Z"/><path d="M255.65,105.15a7.33,7.33,0,0,0-7.76,7.76v20.17a7.77,7.77,0,0,0,7.76,7.76,7.33,7.33,0,0,0,7.76-7.76V112.91A7.33,7.33,0,0,0,255.65,105.15Z"/><path d="M255.65,372a7.33,7.33,0,0,0-7.76,7.76v20.17a7.76,7.76,0,0,0,15.52,0V379.77A7.77,7.77,0,0,0,255.65,372Z"/><path d="M399.16,248.67H379a7.77,7.77,0,0,0-7.76,7.76,7.33,7.33,0,0,0,7.76,7.76h20.17a7.76,7.76,0,0,0,0-15.52Z"/><path d="M132.3,248.67H112.13a7.76,7.76,0,1,0,0,15.52H132.3a7.77,7.77,0,0,0,7.76-7.76A7.33,7.33,0,0,0,132.3,248.67Z"/><path d="M332.45,126.1c-3.88-2.33-8.53-.78-10.86,3.1L311.5,146.27c-2.33,3.88-.78,8.53,3.1,10.86s8.53.78,10.86-3.1L335.55,137C337.88,133.08,336.33,128.42,332.45,126.1Z"/><path d="M196.69,355.72c-3.88-2.33-8.53-.78-10.86,3.1l-10.09,17.07c-2.33,3.88-.78,8.53,3.1,10.86s8.53.78,10.86-3.1l10.09-17.07C202.12,362.7,200.57,358,196.69,355.72Z"/><path d="M382.87,322.36l-17.07-10.08c-3.88-2.33-8.53-.78-10.86,3.1s-.78,8.53,3.1,10.86l17.07,10.08c3.88,2.33,8.53.78,10.86-3.1S386.75,324.69,382.87,322.36Z"/><path d="M153.25,186.61l-17.07-10.09c-3.88-2.33-8.53-.78-10.86,3.1s-.78,8.53,3.1,10.86l17.07,10.09c3.88,2.33,8.53.78,10.86-3.1S157.13,188.93,153.25,186.61Z"/><path d="M384.42,177.3c-2.33-3.88-7-4.65-10.86-2.33L356.5,185.06c-3.1,3.1-4.65,7.76-2.33,10.86,2.33,3.88,7,4.65,10.86,2.33l17.07-10.09C386,185.83,386.75,181.18,384.42,177.3Z"/><path d="M157.13,316.16a8.35,8.35,0,0,0-10.86-2.33L129.2,323.92c-3.88,2.33-4.65,7-2.33,10.86s7,4.65,10.86,2.33L154.8,327C158.68,324.69,159.45,320,157.13,316.16Z"/><path d="M336.33,375.12,326.24,358c-2.33-3.88-7-4.65-10.86-2.33s-4.65,7-2.33,10.86l10.08,17.07c2.33,3.88,7,4.65,10.86,2.33S338.65,379,336.33,375.12Z"/><path d="M197.47,147,187.38,130c-2.33-3.88-7-4.65-10.86-2.33s-4.65,7-2.33,10.86l10.09,17.07c3.1,3.1,7.76,4.65,10.86,2.33C199,155.58,199.79,150.92,197.47,147Z"/><path d="M226.17,35.33a8,8,0,0,0-9.31-6.21C112.91,47,35.33,133.08,26.8,237L13.61,221.52c-3.1-3.1-7.76-3.88-10.86-.78S-1.13,228.5,2,231.6l26.38,30.26a7.5,7.5,0,0,0,10.86.78L67.14,234.7a7.68,7.68,0,0,0-10.86-10.86l-14,14C50.85,140.06,123,60.93,220,44.64A8,8,0,0,0,226.17,35.33Z"/><path d="M261.08,474.41l-27.93-27.93a7.68,7.68,0,0,0-10.86,10.86l14,14C139.28,462,58.61,386.75,43.87,289c-.78-3.88-4.65-7-8.53-6.21-4.66.78-7.76,4.65-7,8.53C43.87,396.06,130,476,233.15,486l-16.29,11.64a7.76,7.76,0,1,0,9.31,12.41l33.36-24.82c1.55-1.55,3.1-3.88,3.1-6.21C263.41,478.29,262.63,476,261.08,474.41Z"/><path d="M510.1,282l-26.38-30.26a7.5,7.5,0,0,0-10.86,0L444.93,279.7a7.68,7.68,0,1,0,10.86,10.86l14-14c-8.53,98.52-85.33,180.75-183.85,193.94a9.09,9.09,0,0,0-7,8.53,8.31,8.31,0,0,0,8.53,7C394.51,471.31,476,382.87,485.27,276.59l14,15.52c3.1,3.1,7.76,3.88,10.86.78A9.32,9.32,0,0,0,510.1,282Z"/><path d="M482.17,223.84c-14-106.28-101.62-187.73-206.35-197l15.52-13.19c3.1-3.1,3.88-7.76.78-10.86S284.35-1.13,281.25,2L251,27.58c-3.88,3.1-4.65,8.53-.78,11.64l27.93,27.93A7.68,7.68,0,1,0,289,56.28l-14-14c97.74,9.31,178.42,85.33,192.39,183.85.78,3.88,4.65,7,8.53,6.21S482.95,227.72,482.17,223.84Z"/></g></g></svg>