<svg xmlns="http://www.w3.org/2000/svg" viewBox="0 0 503.61 503.61"><title>engineer</title><g id="Слой_2" data-name="Слой 2"><g id="Layer_1" data-name="Layer 1"><path d="M478.43,418c-50.1-26.57-88.52-41.46-122.73-47.17l3.54-4.87a6.53,6.53,0,0,0,1.68-6.71l-7.87-31.46c20.8-29.41,33-66.18,33-101.15V193h25.18c5,0,8.39-3.36,8.39-8.39s-3.36-8.39-8.39-8.39h-8.39v-8.39c0-66.31-43.65-122.54-109.11-141V25.18A25.25,25.25,0,0,0,268.59,0H235a25.25,25.25,0,0,0-25.18,25.18v1.68c-65.47,18.47-109.11,74.7-109.11,141v8.39H92.33c-5,0-8.39,3.36-8.39,8.39S87.29,193,92.33,193h25.18v33.57c0,35,12.24,71.74,33,101.15l-7.87,31.46c0,1.68,0,5,1.68,6.71l3.54,4.87C113.7,376.53,75.27,391.43,25.18,418,9.23,425.55,0,441.49,0,459.12v36.09c0,5,3.36,8.39,8.39,8.39H495.21c5,0,8.39-3.36,8.39-8.39V459.12C503.61,442.33,493.53,426.39,478.43,418Zm-231.66-7.77,5.08-11.43,12.54,27.6,8.2,18.46H231.66Zm-21.49,51.42h53l4.8,25.18H220.24ZM339.93,344.13l3.36,15.11L334.72,371a7.48,7.48,0,0,0-1.5,1.66L298.31,421l-11.08,15.21L264.6,385.31c27-3.3,51.19-16.88,70.69-36.39l.65-.64.16-.16Q338,346.17,339.93,344.13ZM329,61.39q1.4.93,2.77,1.89a145.94,145.94,0,0,1,28.31,27.37L321.47,98.2ZM182.14,98.2l-38.61-7.55a145.92,145.92,0,0,1,28.31-27.37q1.37-1,2.77-1.89Zm-64.63,69.67A127.3,127.3,0,0,1,133.31,106l58.06,11.46h1.68c2.52,0,4.2-.84,6.71-1.68a6.77,6.77,0,0,0,2.52-7.55L190.76,52.2a139.22,139.22,0,0,1,19.08-7.49V67.15c0,5,3.36,8.39,8.39,8.39s8.39-3.36,8.39-8.39v-42A8.41,8.41,0,0,1,235,16.79h33.57A8.41,8.41,0,0,1,277,25.18v42c0,5,3.36,8.39,8.39,8.39s8.39-3.36,8.39-8.39V44.71a139.09,139.09,0,0,1,19.68,7.78l-11.29,55c0,2.52.84,5.88,2.52,7.55a7.62,7.62,0,0,0,5.88,2.52h1.68l57.69-12.14a127.29,127.29,0,0,1,16.17,62.51v8.39H117.51v-8.39ZM134.29,193h235v33.57a154.64,154.64,0,0,1-31.4,93.84l-.49.16-2.52,2.52a140.65,140.65,0,0,1-13.34,15.39c-19.76,18.41-43.34,29.56-66.05,30.67a9.46,9.46,0,0,0-3.71-.74,8,8,0,0,0-3.5.75c-13.9-.64-28.13-5-41.62-12.58-13.66-7.85-26.52-19.17-38-33.49l-2.52-2.52-.49-.16a154.64,154.64,0,0,1-31.4-93.84V193ZM239,385.31l-22.63,50.91L205.3,421l-34.91-48.34c-.27-.27-.56-.53-.87-.79l-9.2-12.64,3.36-15.11c1.14,1.23,2.29,2.42,3.46,3.59C186.83,367.88,211.41,381.94,239,385.31ZM16.79,459.12a28.81,28.81,0,0,1,15.95-26c53.5-28.42,92-42.69,126.32-46.95L209.15,455l-6.36,31.8h-186Zm470,27.7h-186L294.46,455l50.63-69.62c34.19,5.16,73.39,19.41,125.78,46.86,10.07,5.88,15.95,15.95,15.95,26.86Z"/></g></g></svg>