<svg xmlns="http://www.w3.org/2000/svg" viewBox="0 0 274 275.6"><defs><style>.cls-1{fill:none;stroke:#da4c26;stroke-linecap:round;stroke-miterlimit:10;stroke-width:7px;}</style></defs><title>flyover-bridge</title><g id="Слой_2" data-name="Слой 2"><g id="Capa_1" data-name="Capa 1"><path d="M120,168.2V268.6H68.9L85.2,168.2H120m7-7H79.2L61.3,271.6a3.24,3.24,0,0,0,.8,2.8,3.37,3.37,0,0,0,2.6,1.2H127V161.2Z"/><path d="M120,7v93.4H96.2L111.4,7H120m7-7H108.3a3.36,3.36,0,0,0-3.4,2.9l-17,104.5H127V0Z"/><path d="M188.8,168.2l16.3,100.4H154V168.2h34.8m6-7H147V275.6h62.3a3.22,3.22,0,0,0,2.6-1.2,3.58,3.58,0,0,0,.8-2.8L194.8,161.2Z"/><path d="M162.7,7l15.2,93.4H154V7h8.7m3-7H147V107.4h39.1L169.1,2.9A3.44,3.44,0,0,0,165.7,0Z"/><path class="cls-1" d="M16.5,122.4H7a3.54,3.54,0,0,0-3.5,3.5v16.8A3.54,3.54,0,0,0,7,146.2H37.7v34.1a2.8,2.8,0,0,0,2.8,2.8H53.8a2.8,2.8,0,0,0,2.8-2.8V146.2H217.3v34.1a2.8,2.8,0,0,0,2.8,2.8h13.4a2.8,2.8,0,0,0,2.8-2.8V146.2H267a3.54,3.54,0,0,0,3.5-3.5V125.9a3.54,3.54,0,0,0-3.5-3.5H48.5"/><line class="cls-1" x1="29.7" y1="122.4" x2="33.7" y2="122.4"/></g></g></svg>