<svg xmlns="http://www.w3.org/2000/svg" viewBox="0 0 511.99 512"><title>graphic-design</title><g id="Слой_2" data-name="Слой 2"><g id="Capa_1" data-name="Capa 1"><path d="M504.84,72.61,439.38,7.15a24.48,24.48,0,0,0-34.58,0L281.55,130.39a7.9,7.9,0,0,0,11.17,11.18L416,18.33a8.65,8.65,0,0,1,12.23,0l65.46,65.46a8.65,8.65,0,0,1,0,12.23L477.6,112.08,435.51,70a7.9,7.9,0,1,0-11.17,11.18l42.09,42.09-18.35,18.35-18.5-18.5a7.9,7.9,0,1,0-11.17,11.18l18.5,18.5-18.35,18.35L400,152.64a7.9,7.9,0,1,0-11.17,11.18l18.5,18.5L389,200.66l-42.09-42.09a7.9,7.9,0,0,0-11.17,11.18l42.09,42.09-18.35,18.35L341,211.69a7.9,7.9,0,0,0-11.17,11.18l18.5,18.5-15.53,15.53L255.09,179.2l14.45-14.45a7.9,7.9,0,1,0-11.17-11.18L243.92,168,98.15,22.26A53.68,53.68,0,0,0,22.24,98.17L168,243.94,7.15,404.8a24.48,24.48,0,0,0,0,34.58l65.46,65.46a24.45,24.45,0,0,0,34.58,0L268,344l11.46,11.46a7.9,7.9,0,0,0,11.17-11.18l-15.81-15.81a7.73,7.73,0,0,0-2.46-2.46L101.18,154.76l21.19-21.19,13.1,13.1a7.9,7.9,0,0,0,11.18-11.18l-13.1-13.1,21.19-21.19,83.58,83.58h0l88.08,88.08a7.11,7.11,0,0,0,1.55,1.55L445.24,391.7,424,412.89,305.73,294.58l-.21-.23-47.18-47.18-.24-.22L174.75,163.6a7.9,7.9,0,1,0-11.18,11.18L412.87,424.07l-21.19,21.19-75.1-75.1a7.9,7.9,0,1,0-11.17,11.18L386.09,462a8,8,0,0,0,2.73,1.78l95.48,37.07a12.82,12.82,0,0,0,16.59-16.6l-37.11-95.43a8,8,0,0,0-1.78-2.73l-118-118L504.84,107.19A24.48,24.48,0,0,0,504.84,72.61Zm-248,260.2-15.51,15.5-18.5-18.5A7.9,7.9,0,1,0,211.7,341l18.5,18.5-18.35,18.35-42.09-42.09a7.9,7.9,0,0,0-11.18,11.18L200.67,389l-18.35,18.35-18.5-18.5A7.9,7.9,0,1,0,152.64,400l18.5,18.5-18.35,18.35-18.5-18.5a7.9,7.9,0,1,0-11.18,11.18l18.5,18.5-18.35,18.35L81.17,424.33A7.9,7.9,0,1,0,70,435.51l42.09,42.09L96,493.66a8.65,8.65,0,0,1-12.23,0L18.33,428.2a8.66,8.66,0,0,1,0-12.23L179.19,255.12ZM33.42,87A37.87,37.87,0,0,1,87,33.44l25,25L58.39,112Zm83.37,29.81h0L90,143.59,69.57,123.15l53.56-53.56L143.57,90ZM483.7,483.68l-77.86-30.23,47.6-47.6Z"/></g></g></svg>