<svg xmlns="http://www.w3.org/2000/svg" viewBox="0 0 472 480.01"><title>idea</title><g id="Слой_2" data-name="Слой 2"><g id="Capa_1" data-name="Capa 1"><path d="M321,136a144,144,0,1,0-193,192.9V376H104v16h32v40a8,8,0,0,0,8,8h16v32a8,8,0,0,0,8,8h48a8,8,0,0,0,8-8V440h16a8,8,0,0,0,8-8V392h32V376H256V328.89A143.94,143.94,0,0,0,321,136ZM208,464H176V440h32Zm24-40H152V392h80Zm12.7-107.46a8,8,0,0,0-4.7,7.29V376H200V304H184v72H144V323.83a8,8,0,0,0-4.7-7.29,128,128,0,1,1,105.41,0Z"/><path d="M177.7,97a49.6,49.6,0,0,0-28.9,3A48.26,48.26,0,0,0,120,144a47.58,47.58,0,0,0,2,13.35A47.7,47.7,0,0,0,96,200a48.27,48.27,0,0,0,16.38,36.06c-.11,1.32-.38,2.61-.38,3.94a48.1,48.1,0,0,0,38.3,47h.1a46.08,46.08,0,0,0,9.6,1,48.64,48.64,0,0,0,19.14-3.92,8,8,0,0,0,4.86-7.36V104.8A8,8,0,0,0,177.7,97ZM168,271a33.21,33.21,0,0,1-14.3.38l-.1,0a32,32,0,0,1-25.1-26A47.8,47.8,0,0,0,144,248a46.11,46.11,0,0,0,9.7-1l-3.39-15.64a30,30,0,0,1-6.3.62,32,32,0,0,1-13.93-3.2,31.77,31.77,0,0,1,10.68-14.35l-9.66-12.8A47.78,47.78,0,0,0,117.6,218a32,32,0,0,1,11.28-46.22c.1.14.22.25.32.38.34.47.74.9,1.1,1.35a47.82,47.82,0,0,0,3.86,4.38c.61.61,1.23,1.18,1.87,1.76a50.15,50.15,0,0,0,4.14,3.32c.65.47,1.28,1,2,1.4A48.6,48.6,0,0,0,148.8,188l6.48-14.62a32.87,32.87,0,0,1-4.94-2.73,32.5,32.5,0,0,1-8.06-7.7,32.06,32.06,0,0,1,12.9-48.34A32.65,32.65,0,0,1,168,112V271Z"/><path d="M288,200a47.7,47.7,0,0,0-26-42.65A47.51,47.51,0,0,0,264,144a48.3,48.3,0,0,0-28.86-44.08A49.71,49.71,0,0,0,206.34,97,8,8,0,0,0,200,104.8V276.72a8,8,0,0,0,4.86,7.36A48.64,48.64,0,0,0,224,288a46.07,46.07,0,0,0,9.6-1h.08A48.1,48.1,0,0,0,272,240c0-1.35-.26-2.62-.38-3.94A48.27,48.27,0,0,0,288,200Zm-19.8,15.09a32.11,32.11,0,0,1-1.76,2.9,47.83,47.83,0,0,0-13.54-16.32l-9.66,12.8a31.84,31.84,0,0,1,10.68,14.34A32.09,32.09,0,0,1,240,232a30,30,0,0,1-6.3-.62L230.3,247a46,46,0,0,0,9.7,1,47.89,47.89,0,0,0,15.53-2.64,32,32,0,0,1-25.13,26l-.1,0A33.08,33.08,0,0,1,216,271V112a31.82,31.82,0,0,1,32,31.65c0,.12,0,.24,0,.35a32,32,0,0,1-3.33,14.2,32.47,32.47,0,0,1-15.91,15.2L235.24,188a48.14,48.14,0,0,0,6.7-3.7c.64-.42,1.25-.89,1.87-1.34a49.94,49.94,0,0,0,4.25-3.42c.61-.55,1.21-1.1,1.79-1.68a48.54,48.54,0,0,0,3.93-4.46c.34-.44.73-.85,1.06-1.3.1-.14.22-.25.31-.38A32,32,0,0,1,268.2,215.09Z"/><rect x="184" y="8" width="16" height="32"/><rect x="300.45" y="67.55" width="32" height="16" transform="translate(39.27 245.89) rotate(-45)"/><rect x="352" y="192" width="32" height="16"/><rect x="308.45" y="308.46" width="16" height="32" transform="translate(-136.74 318.8) rotate(-45)"/><rect x="59.55" y="59.55" width="16" height="32" transform="translate(-33.64 69.89) rotate(-45)"/><rect y="192" width="32" height="16"/><rect x="51.55" y="316.45" width="32" height="16" transform="translate(-209.63 142.8) rotate(-45)"/><path d="M448,0H432a24,24,0,0,0-24,24V48H392a8,8,0,0,0-8,8v80h16V64h8V424a8,8,0,0,0,.8,3.58l24,48a8,8,0,0,0,14.32,0l24-48A8,8,0,0,0,472,424V24A24,24,0,0,0,448,0Zm8,422.11-16,32-16-32V112h32ZM456,96H424V24a8,8,0,0,1,8-8h16a8,8,0,0,1,8,8Z"/></g></g></svg>