<svg xmlns="http://www.w3.org/2000/svg" xmlns:xlink="http://www.w3.org/1999/xlink" viewBox="0 0 211.09 67.11"><defs><style>.cls-1{fill:#231f20;}.cls-2{fill:#6d6e71;}.cls-3{fill:url(#Безымянный_градиент_48);}.cls-4{fill:url(#Безымянный_градиент_48-2);}.cls-5{fill:#c90000;}.cls-6{fill:#fff;}.cls-7{fill:#e6e7e8;}</style><linearGradient id="Безымянный_градиент_48" y1="33.55" x2="74.37" y2="33.55" gradientUnits="userSpaceOnUse"><stop offset="0" stop-color="#c13122"/><stop offset="1" stop-color="#f26524"/></linearGradient><linearGradient id="Безымянный_градиент_48-2" x1="0" y1="33.35" x2="41.2" y2="33.35" xlink:href="#Безымянный_градиент_48"/></defs><title>logo</title><g id="Слой_2" data-name="Слой 2"><g id="Слой_1-2" data-name="Слой 1"><path class="cls-1" d="M104.37,36.95h-3.15a.44.44,0,0,1-.38-.48v-10c0-.17-.07-.19-.12-.19s-.12,0-.19.17l-2.15,3.94a.77.77,0,0,1-.72.41H95.75a.77.77,0,0,1-.72-.41l-2.15-3.94c-.07-.12-.12-.17-.19-.17s-.12,0-.12.19v10a.44.44,0,0,1-.38.48H89c-.19,0-.41-.07-.41-.33V20a.79.79,0,0,1,.86-.81h2.24a1.11,1.11,0,0,1,1,.64l3.65,6.8c.1.19.17.31.26.31s.17-.12.26-.31l3.65-6.8a1.12,1.12,0,0,1,1.05-.64h2.24a.81.81,0,0,1,.86.84V36.61C104.77,36.87,104.56,36.95,104.37,36.95Z"/><path class="cls-1" d="M118.49,36.85a28.11,28.11,0,0,1-4.63.31c-3.08,0-5.8-.79-5.8-5.13V24.1c0-4.34,2.74-5.11,5.82-5.11a27.83,27.83,0,0,1,4.61.31c.33,0,.48.17.48.48V22a.48.48,0,0,1-.48.48h-4.84c-1.12,0-1.53.38-1.53,1.62v2.17h6.18a.48.48,0,0,1,.48.48V29a.48.48,0,0,1-.48.48h-6.18V32c0,1.24.4,1.62,1.53,1.62h4.84a.48.48,0,0,1,.48.48v2.22C119,36.66,118.82,36.8,118.49,36.85Z"/><path class="cls-1" d="M127.95,30.74c-.57,0-1.34,0-1.93-.07v5.8a.48.48,0,0,1-.48.48h-3.08a.46.46,0,0,1-.48-.45v-16c0-.81.33-1,1.07-1.15A35.23,35.23,0,0,1,127.9,19c3.6,0,7.16,1.27,7.16,5.75V25C135.06,29.43,131.5,30.74,127.95,30.74Zm3.06-6c0-1.69-1-2.36-3.06-2.36-.33,0-1.65,0-1.93.07v4.87c.26,0,1.67,0,1.93,0,2.12,0,3.06-.79,3.06-2.41Z"/><path class="cls-1" d="M137.53,19.66a.46.46,0,0,1,.48-.45h2.82a.46.46,0,0,1,.48.45v10.1c0,.17.07.21.12.21s.1,0,.19-.19l5.66-9.83c.29-.5.52-.74,1-.74h2.41a.91.91,0,0,1,.91.91V36.47a.48.48,0,0,1-.48.48H148.3a.48.48,0,0,1-.48-.48V26.8c0-.14,0-.19-.12-.19s-.12,0-.21.19L142,36.21a1.23,1.23,0,0,1-1.24.74h-2.34a.93.93,0,0,1-.93-.91Z"/><path class="cls-1" d="M153.87,33.84a.48.48,0,0,1,.48-.48h1.46l2.82-11.72c.55-2.29,2.32-2.65,4-2.65s3.39.36,3.94,2.65l2.82,11.72h1.53a.48.48,0,0,1,.48.48v5.51a.48.48,0,0,1-.48.48h-3.13a.48.48,0,0,1-.48-.48V36.95h-9.31v2.41a.48.48,0,0,1-.48.48h-3.13a.48.48,0,0,1-.48-.48Zm6.06-.48h5.25l-2.29-10.62c0-.24-.1-.36-.31-.36s-.28.12-.33.36Z"/><path class="cls-1" d="M177.25,36.95H174a.44.44,0,0,1-.43-.48V19.66a.42.42,0,0,1,.43-.45h3.2a.44.44,0,0,1,.45.45V36.47A.46.46,0,0,1,177.25,36.95Z"/><path class="cls-1" d="M194.49,36.95h-3.34a.51.51,0,0,1-.48-.43l-.86-3.91h-4.89l-.86,3.91a.5.5,0,0,1-.48.43h-3.34a.37.37,0,0,1-.41-.38,1.09,1.09,0,0,0,0-.12l3.56-14.8c.55-2.29,2.32-2.65,4-2.65s3.39.36,3.94,2.65l3.56,14.8a1.09,1.09,0,0,0,0,.12A.37.37,0,0,1,194.49,36.95Zm-6.8-14.2c0-.24-.1-.36-.31-.36s-.29.12-.33.36l-1.46,6.59h3.56Z"/><path class="cls-1" d="M210.61,36.95h-3.13a.48.48,0,0,1-.48-.48v-6.9h-5.9v6.9a.48.48,0,0,1-.48.48H197.5a.48.48,0,0,1-.48-.48V19.66a.46.46,0,0,1,.48-.45h3.13a.46.46,0,0,1,.48.45V26H207V19.66a.46.46,0,0,1,.48-.45h3.13a.46.46,0,0,1,.48.45V36.47A.48.48,0,0,1,210.61,36.95Z"/><path class="cls-2" d="M90.25,49.37a9.69,9.69,0,0,1-1.34-.07c-.19,0-.27-.1-.27-.31V43.35a.15.15,0,0,1,.15-.16h3.15a.17.17,0,0,1,.17.17v.34a.17.17,0,0,1-.17.17H89.39v1.9c.25,0,.55,0,.86,0,1.28,0,2.4.37,2.4,1.75v.14C92.65,49,91.53,49.37,90.25,49.37Zm1.65-1.89c0-.89-.63-1.11-1.65-1.11-.29,0-.58,0-.86,0V48.7c.27,0,.58,0,.86,0,1,0,1.65-.22,1.65-1.11Z"/><path class="cls-2" d="M95.8,48.12c-.33.86-.65,1.25-1.6,1.25a3,3,0,0,1-.52-.05c-.1,0-.17,0-.17-.13v-.38c0-.1.07-.14.18-.13a4,4,0,0,0,.51,0c.47,0,.62-.11.84-.7l.3-.77h0c-.31,0-.45-.12-.59-.5L93.47,43.4c-.05-.12,0-.21.11-.21h.5a.19.19,0,0,1,.15.11l1.16,3.09c0,.14.07.16.16.16h.05l1.26-3.24a.17.17,0,0,1,.14-.11h.51c.11,0,.17.08.11.21Z"/><path class="cls-2" d="M97.68,48.64l1.39-4.88a.81.81,0,0,1,.84-.63.8.8,0,0,1,.83.62l1.38,4.89h.23a.15.15,0,0,1,.15.16v1.33a.16.16,0,0,1-.15.17h-.45a.16.16,0,0,1-.15-.17v-.82H98v.82a.16.16,0,0,1-.15.17h-.45a.16.16,0,0,1-.15-.17V48.8a.15.15,0,0,1,.15-.16Zm.78,0h2.9l-1.29-4.71c0-.09-.07-.15-.16-.15s-.14.06-.17.15Z"/><path class="cls-2" d="M104,49.31h-.45a.16.16,0,0,1-.15-.17V43.35a.15.15,0,0,1,.15-.16H104a.15.15,0,0,1,.15.16v5.79A.16.16,0,0,1,104,49.31Z"/><path class="cls-2" d="M107.15,49.37a9.69,9.69,0,0,1-1.34-.07c-.19,0-.27-.1-.27-.31V43.51a.27.27,0,0,1,.26-.31,12.1,12.1,0,0,1,1.31-.07c1.31,0,2.41.35,2.41,1.59v.13a1.32,1.32,0,0,1-.88,1.29,1.35,1.35,0,0,1,.91,1.33v.14C109.55,49,108.43,49.37,107.15,49.37Zm1.62-4.64c0-.79-.66-1-1.66-1l-.81,0v2h1.27c1,0,1.21-.46,1.21-1Zm0,2.76c0-.54-.27-1-1.24-1h-1.27V48.7c.27,0,.57,0,.86,0,1,0,1.65-.22,1.65-1.11Z"/><path class="cls-2" d="M114.74,49.31h-.42a.16.16,0,0,1-.16-.17V46.41h-2.81v2.73a.17.17,0,0,1-.17.17h-.42a.17.17,0,0,1-.17-.17V43.36a.17.17,0,0,1,.17-.17h.42a.17.17,0,0,1,.17.17v2.39h2.81V43.36a.16.16,0,0,1,.16-.17h.42a.17.17,0,0,1,.17.17v5.78A.17.17,0,0,1,114.74,49.31Z"/><path class="cls-2" d="M116.18,43.35a.15.15,0,0,1,.15-.16h.44a.15.15,0,0,1,.15.16v4.81s0,0,0,0l0,0,2.53-4.8c.07-.12.11-.17.34-.17h.45a.23.23,0,0,1,.24.23v5.79c0,.08-.07.1-.15.1h-.43a.15.15,0,0,1-.15-.16V44.35s0,0,0,0l0,0-2.54,4.83a.27.27,0,0,1-.26.13h-.51a.24.24,0,0,1-.24-.24Z"/><path class="cls-2" d="M122.89,49.31c-.4,0-1.12-.07-1.12-1V43.36a.17.17,0,0,1,.17-.17h.42a.17.17,0,0,1,.17.17v4.93c0,.25,0,.35.37.35H125c.35,0,.37-.11.37-.35V43.36a.16.16,0,0,1,.16-.17h.42a.17.17,0,0,1,.17.17v4.92a1.53,1.53,0,0,1,0,.36h.43a.15.15,0,0,1,.15.16v1.33a.16.16,0,0,1-.15.17H126a.16.16,0,0,1-.15-.17v-.82Z"/><path class="cls-2" d="M130.82,43.84h-1.61v5.31a.16.16,0,0,1-.15.17h-.45a.16.16,0,0,1-.15-.17V43.84h-1.61c-.09,0-.17,0-.17-.13v-.36a.16.16,0,0,1,.17-.15h4a.15.15,0,0,1,.16.15v.36C131,43.79,130.91,43.84,130.82,43.84Z"/><path class="cls-2" d="M133.51,49.37a9.69,9.69,0,0,1-1.34-.07c-.19,0-.27-.1-.27-.31V43.51a.27.27,0,0,1,.26-.31,12.1,12.1,0,0,1,1.31-.07c1.31,0,2.41.35,2.41,1.59v.13a1.32,1.32,0,0,1-.88,1.29,1.35,1.35,0,0,1,.91,1.33v.14C135.91,49,134.79,49.37,133.51,49.37Zm1.62-4.64c0-.79-.66-1-1.66-1l-.81,0v2h1.27c1,0,1.21-.46,1.21-1Zm0,2.76c0-.54-.27-1-1.24-1h-1.27V48.7c.27,0,.57,0,.86,0,1,0,1.65-.22,1.65-1.11Z"/><path class="cls-2" d="M139,49.37c-1.29,0-2.23-.76-2.23-2.59V45.72c0-1.83.94-2.59,2.23-2.59s2.22.76,2.22,2.59v1.06C141.27,48.61,140.33,49.37,139,49.37Zm1.46-3.65c0-1.38-.56-1.91-1.46-1.91s-1.47.53-1.47,1.91v1.06c0,1.38.57,1.91,1.47,1.91s1.46-.53,1.46-1.91Z"/><path class="cls-2" d="M148.19,43.84h-1.61v5.31a.16.16,0,0,1-.15.17H146a.16.16,0,0,1-.15-.17V43.84h-1.61c-.09,0-.17,0-.17-.13v-.36a.16.16,0,0,1,.17-.15h4a.15.15,0,0,1,.16.15v.36C148.35,43.79,148.28,43.84,148.19,43.84Z"/><path class="cls-2" d="M152.84,49.31h-.49a.15.15,0,0,1-.14-.12l-.53-1.89h-2.13L149,49.19a.17.17,0,0,1-.15.12h-.49a.13.13,0,0,1-.14-.13.14.14,0,0,1,0-.06l1.52-5.36a.81.81,0,0,1,.84-.63.8.8,0,0,1,.83.62L153,49.12a.12.12,0,0,1,0,.06A.13.13,0,0,1,152.84,49.31Zm-2.07-5.37c0-.09-.07-.15-.16-.15s-.14.06-.16.15l-.75,2.71h1.82Z"/><path class="cls-2" d="M157.45,46.87c-.26,0-.61,0-.82,0v2.31a.16.16,0,0,1-.15.17H156a.16.16,0,0,1-.15-.17V43.41a.2.2,0,0,1,.2-.21,13.28,13.28,0,0,1,1.37-.07c1.33,0,2.3.46,2.3,1.79V45C159.75,46.4,158.78,46.87,157.45,46.87Zm1.56-2c0-.83-.49-1.15-1.56-1.15-.25,0-.63,0-.82,0v2.41l.82,0c1.13,0,1.56-.36,1.56-1.22Z"/><path class="cls-2" d="M164.08,49.33c-.31,0-1.12,0-1.61,0-1.15,0-1.75-.44-1.75-1.53V44.67c0-1.09.6-1.53,1.75-1.53.8,0,1.26,0,1.61.05a.12.12,0,0,1,.08.11v.41a.09.09,0,0,1-.09.1h-1.59c-.87,0-1,.23-1,.86v1.14H164a.16.16,0,0,1,.16.17v.31a.16.16,0,0,1-.16.17h-2.53v1.38c0,.63.14.86,1,.86h1.59a.09.09,0,0,1,.09.1v.42A.11.11,0,0,1,164.08,49.33Z"/><path class="cls-2" d="M170.07,49.31h-.4a.17.17,0,0,1-.17-.17V44.26s0,0,0,0l-1.18,2.44a.35.35,0,0,1-.37.24h-.38a.36.36,0,0,1-.37-.24L166,44.26s0,0,0,0v4.88a.17.17,0,0,1-.17.17h-.4a.17.17,0,0,1-.17-.17V43.43a.24.24,0,0,1,.24-.24H166c.15,0,.21,0,.26.14l1.36,2.82c0,.07.06.09.1.09s.07,0,.1-.09l1.36-2.82c0-.11.11-.14.26-.14H170a.24.24,0,0,1,.24.24v5.71A.16.16,0,0,1,170.07,49.31Z"/><path class="cls-2" d="M173.58,49.37c-1.29,0-2.23-.76-2.23-2.59V45.72c0-1.83.94-2.59,2.23-2.59s2.22.76,2.22,2.59v1.06C175.81,48.61,174.88,49.37,173.58,49.37ZM175,45.72c0-1.38-.56-1.91-1.46-1.91s-1.47.53-1.47,1.91v1.06c0,1.38.57,1.91,1.47,1.91s1.46-.53,1.46-1.91Z"/><path class="cls-2" d="M181.08,49.31h-.42a.16.16,0,0,1-.16-.17V46.41h-2.81v2.73a.17.17,0,0,1-.17.17h-.42a.17.17,0,0,1-.17-.17V43.36a.17.17,0,0,1,.17-.17h.42a.17.17,0,0,1,.17.17v2.39h2.81V43.36a.16.16,0,0,1,.16-.17h.42a.17.17,0,0,1,.17.17v5.78A.17.17,0,0,1,181.08,49.31Z"/><path class="cls-2" d="M186.29,43.84h-1.61v5.31a.16.16,0,0,1-.15.17h-.45a.16.16,0,0,1-.15-.17V43.84h-1.61c-.09,0-.17,0-.17-.13v-.36a.16.16,0,0,1,.17-.15h4a.15.15,0,0,1,.16.15v.36C186.45,43.79,186.38,43.84,186.29,43.84Z"/><path class="cls-2" d="M189.37,48.64l1.39-4.88a.81.81,0,0,1,.84-.63.8.8,0,0,1,.83.62l1.38,4.89H194a.15.15,0,0,1,.15.16v1.33a.16.16,0,0,1-.15.17h-.45a.16.16,0,0,1-.15-.17v-.82h-3.73v.82a.16.16,0,0,1-.15.17h-.45a.16.16,0,0,1-.15-.17V48.8a.15.15,0,0,1,.15-.16Zm.78,0H193l-1.29-4.71c0-.09-.07-.15-.16-.15s-.14.06-.17.15Z"/><path class="cls-2" d="M196.88,49.37c-1.29,0-2.23-.76-2.23-2.59V45.72c0-1.83.94-2.59,2.23-2.59s2.22.76,2.22,2.59v1.06C199.1,48.61,198.17,49.37,196.88,49.37Zm1.46-3.65c0-1.38-.56-1.91-1.46-1.91s-1.47.53-1.47,1.91v1.06c0,1.38.57,1.91,1.47,1.91s1.46-.53,1.46-1.91Z"/><path class="cls-2" d="M201.8,46.87c-.26,0-.61,0-.82,0v2.31a.16.16,0,0,1-.15.17h-.45a.16.16,0,0,1-.15-.17V43.41a.2.2,0,0,1,.2-.21,13.28,13.28,0,0,1,1.37-.07c1.33,0,2.3.46,2.3,1.79V45C204.1,46.4,203.13,46.87,201.8,46.87Zm1.56-2c0-.83-.49-1.15-1.56-1.15-.25,0-.63,0-.82,0v2.41l.82,0c1.13,0,1.56-.36,1.56-1.22Z"/><path class="cls-2" d="M205.75,49.31h-.45a.16.16,0,0,1-.15-.17V43.35a.15.15,0,0,1,.15-.16h.45a.15.15,0,0,1,.15.16v5.79A.16.16,0,0,1,205.75,49.31Z"/><path class="cls-2" d="M210.61,43.81H209c-.87,0-1,.23-1,.86v4.48a.17.17,0,0,1-.17.17h-.42a.17.17,0,0,1-.17-.17V44.67c0-1.09.6-1.53,1.75-1.53.49,0,1.26,0,1.61.05a.12.12,0,0,1,.08.11v.41A.09.09,0,0,1,210.61,43.81Z"/><path class="cls-3" d="M63.84,67.11H10.53c-4.31,0-7.75-1.68-9.44-4.6S-.32,55.77,1.83,52L28.48,5.87C30.64,2.14,33.81,0,37.19,0s6.55,2.14,8.7,5.87L72.54,52c2.15,3.73,2.42,7.55.73,10.47S68.15,67.11,63.84,67.11Z"/><path class="cls-4" d="M6.15,65.4c-1.75-3-1.47-7,.76-10.83L34.48,6.81A11.75,11.75,0,0,1,41.2,1.08a8.35,8.35,0,0,0-4-1.08c-3.38,0-6.55,2.14-8.7,5.87L1.83,52C-.32,55.77-.59,59.58,1.1,62.51a9.22,9.22,0,0,0,6,4.19A8.27,8.27,0,0,1,6.15,65.4Z"/><path class="cls-5" d="M53.51,57.15A2.87,2.87,0,0,1,51,55.71L41.58,39.35l-4.39,3.71-4.39-3.71L23.35,55.71a2.87,2.87,0,1,1-5-2.87l12.88-22.3,5.93,5,5.93-5L56,52.85a2.87,2.87,0,0,1-2.48,4.3Z"/><path class="cls-6" d="M59.91,59.45a4,4,0,0,1-3.46-2L43.3,34.68l-6.12,5.17-6.12-5.17L17.92,57.46a4,4,0,0,1-6.91-4l17.92-31,8.26,7,8.26-7,17.92,31a4,4,0,0,1-3.45,6Z"/><path class="cls-7" d="M63.39,53.52a4,4,0,0,1-6.94.07L43.3,30.82,37.19,36l-6.12-5.17L17.92,53.6A4,4,0,0,1,11,53.52a4,4,0,0,0,6.94,3.93L31.07,34.68l6.12,5.17,6.12-5.17L56.45,57.46a4,4,0,0,0,6.94-3.94Z"/></g></g></svg>