<svg xmlns="http://www.w3.org/2000/svg" viewBox="0 0 470 470"><title>pick-and-shovel</title><g id="Слой_2" data-name="Слой 2"><g id="Capa_1" data-name="Capa 1"><path d="M256.21,200.42a7.47,7.47,0,0,0,5.3-2.2l64.06-64.06,10.26,10.26-64.06,64.06a7.5,7.5,0,1,0,10.61,10.61l64.67-64.67a7.49,7.49,0,0,0,7.51-1.86L374,133.14,449.79,209a7.5,7.5,0,0,0,5.31,2.2h.08a7.51,7.51,0,0,0,7.08-9.79c-1.58-6.45-14.89-56.8-56.4-105.75l12.44-12.44a17.77,17.77,0,0,0,0-25.1l-6.37-6.37a17.77,17.77,0,0,0-25.1,0L374.38,64.14C323.19,20.73,270.48,8.16,268,7.6a7.5,7.5,0,0,0-7,12.61L336.85,96l-19.41,19.41a7.5,7.5,0,0,0-1.86,7.51l-64.67,64.67a7.5,7.5,0,0,0,5.3,12.8Zm145.1-138.1,6.37,6.37a2.76,2.76,0,0,1,0,3.89L395.83,84.43q-2.47-2.61-5.06-5.2t-5.2-5.06l11.86-11.85A2.76,2.76,0,0,1,401.32,62.31ZM380.16,89.84c29.58,29.58,47.25,62.31,57.07,85.35l-58-58-12.4-12.4a7.5,7.5,0,0,0-10.61,10.61l7.09,7.09-14.1,14.1-15.91-15.91,19.41-19.41a7.5,7.5,0,0,0,0-10.61l-58-58C317.86,42.58,350.58,60.26,380.16,89.84Z"/><path d="M208.48,271.78,35.77,444.49,25.51,434.23,198.22,261.52a7.5,7.5,0,0,0-10.61-10.61l-178,178a7.5,7.5,0,0,0,0,10.61L30.47,460.4a7.5,7.5,0,0,0,10.61,0l178-178a7.5,7.5,0,1,0-10.61-10.61Z"/><path d="M467.8,407.06l-19.46-19.46a7.5,7.5,0,0,0-10.61,0l-9.33,9.33L261.17,229.7,245,213.52a7.5,7.5,0,0,0-1.86-7.51L222.9,185.78l31.31-43.94a7.5,7.5,0,0,0-.8-9.65l-130-130A7.5,7.5,0,0,0,115,.67,234.18,234.18,0,0,0,.67,115a7.5,7.5,0,0,0,1.53,8.39l130,130a7.5,7.5,0,0,0,9.66.81l43.95-31.31L206,243.13a7.5,7.5,0,0,0,7.51,1.86l16.18,16.18L396.94,428.41l-9.33,9.33a7.5,7.5,0,0,0,0,10.61l19.46,19.46a7.5,7.5,0,0,0,10.61,0l50.14-50.14A7.5,7.5,0,0,0,467.8,407.06Zm-55.44,44.83L403.52,443,419.6,427A7.5,7.5,0,0,0,409,416.36l-1.45,1.45L224.74,235,235,224.74,423.11,412.85a7.5,7.5,0,0,0,10.61,0l9.33-9.33,8.85,8.85ZM182.24,207,138.3,238.32,16.52,116.54Q19.1,111.21,22,106l95.67,95.67a7.5,7.5,0,0,0,10.61-10.61L30,92.82A224.07,224.07,0,0,1,92.82,30l98.27,98.27a7.5,7.5,0,0,0,10.61-10.61L106,22q5.19-2.89,10.51-5.47L238.31,138.3,207,182.24a7.5,7.5,0,0,0,.8,9.65l19.41,19.41-15.91,15.91L191.9,207.81A7.5,7.5,0,0,0,182.24,207Z"/></g></g></svg>