<svg xmlns="http://www.w3.org/2000/svg" viewBox="0 0 512 409.6"><title>roller</title><g id="Слой_2" data-name="Слой 2"><g id="Layer_1" data-name="Layer 1"><path d="M253,316.13a8.53,8.53,0,0,0-14.4-9.17,110.72,110.72,0,0,1-186.84.31,8.53,8.53,0,0,0-14.35,9.23A127.79,127.79,0,0,0,253,316.13Z"/><path d="M145.24,238.93a8.58,8.58,0,1,0,.09,0Z"/><path d="M39.89,190.35a8.56,8.56,0,0,0,11.79-2.59,110.71,110.71,0,0,1,186.72-.06,8.53,8.53,0,0,0,14.37-9.21,127.79,127.79,0,0,0-215.47.06A8.54,8.54,0,0,0,39.89,190.35Z"/><path d="M17.07,290.13H263L329.8,315.2a8.88,8.88,0,0,0,3,.55,8.54,8.54,0,0,0,3-16.54l-68.27-25.6a8.81,8.81,0,0,0-3-.54H21.67c-1.85-3.75-4.61-11.67-4.61-25.6s2.79-21.95,4.57-25.6H256v25.6a8.53,8.53,0,0,0,17.07,0V213.33a8.53,8.53,0,0,0-8.53-8.53H17.07a8.55,8.55,0,0,0-6,2.5c-1.84,1.84-11,12.44-11,40.17s9.19,38.32,11,40.17A8.51,8.51,0,0,0,17.07,290.13Z"/><path d="M128,392.53H8.53a8.53,8.53,0,1,0,0,17.07H128a8.53,8.53,0,1,0,0-17.07Z"/><path d="M501,207.3l-51.2-51.2c-12.8-12.8-26.69-19.57-40.17-19.57H363.67l10.89-21.79a8.53,8.53,0,1,0-15.27-7.63l-14.7,29.41H290.13V17.07h85.33c2.13,0,7.1,0,8.7,10.19l17.07,86.06A8.53,8.53,0,0,0,418,110L401,24.29C398.59,9.08,389.06,0,375.47,0H281.6a8.53,8.53,0,0,0-8.53,8.53V145.07a8.53,8.53,0,0,0,8.53,8.53h128c8.85,0,18.57,5,28.1,14.57l51.2,51.2c6,6,6,11.72,6,19.57H486.4a8.53,8.53,0,0,0,0,17.07h8.53v51.2H477.18a59.73,59.73,0,1,0,0,17.07h26.28a8.53,8.53,0,0,0,8.53-8.53v-76.8C512,229.75,512,218.33,501,207.3ZM418.13,358.4a42.67,42.67,0,1,1,42.67-42.67A42.72,42.72,0,0,1,418.13,358.4Z"/><path d="M418.13,290.13a25.6,25.6,0,1,0,25.6,25.6A25.63,25.63,0,0,0,418.13,290.13Zm0,34.13a8.53,8.53,0,1,1,8.53-8.53A8.54,8.54,0,0,1,418.13,324.27Z"/><path d="M264.53,392.53H179.2a8.53,8.53,0,1,0,0,17.07h85.33a8.53,8.53,0,1,0,0-17.07Z"/><path d="M332.8,392.53H315.73a8.53,8.53,0,1,0,0,17.07H332.8a8.53,8.53,0,0,0,0-17.07Z"/><path d="M503.47,392.53H366.93a8.53,8.53,0,1,0,0,17.07H503.47a8.53,8.53,0,0,0,0-17.07Z"/></g></g></svg>