<svg xmlns="http://www.w3.org/2000/svg" viewBox="0 0 512 294.94"><title>sea</title><g id="Слой_2" data-name="Слой 2"><g id="Layer_1" data-name="Layer 1"><path d="M503.33,32.4c-14.29,0-21-6.14-29.47-13.92C464.41,9.82,453.7,0,432.66,0s-31.75,9.82-41.2,18.48C383,26.26,376.28,32.4,362,32.4s-21-6.14-29.47-13.92C323.08,9.82,312.37,0,291.33,0s-31.75,9.82-41.2,18.48C241.65,26.26,235,32.4,220.66,32.4s-21-6.14-29.46-13.92C181.75,9.82,171,0,150,0s-31.75,9.82-41.2,18.48C100.33,26.26,93.63,32.4,79.34,32.4s-21-6.14-29.47-13.92C40.43,9.82,29.72,0,8.68,0a8.68,8.68,0,0,0,0,17.36c14.29,0,21,6.14,29.47,13.92,9.45,8.66,20.15,18.48,41.2,18.48s31.75-9.82,41.2-18.48C129,23.5,135.72,17.36,150,17.36s21,6.14,29.46,13.92c9.45,8.66,20.15,18.48,41.2,18.48s31.75-9.82,41.2-18.48c8.48-7.78,15.18-13.92,29.47-13.92s21,6.14,29.47,13.92c9.45,8.66,20.16,18.48,41.2,18.48s31.75-9.82,41.2-18.48c8.48-7.78,15.18-13.92,29.47-13.92s21,6.14,29.47,13.92c9.45,8.66,20.15,18.48,41.2,18.48a8.68,8.68,0,0,0,0-17.36Z"/><path d="M503.32,114.13c-14.29,0-21-6.14-29.47-13.92-9.45-8.66-20.15-18.48-41.2-18.48s-31.75,9.82-41.2,18.48C383,108,376.28,114.13,362,114.13s-21-6.14-29.47-13.92c-9.45-8.66-20.15-18.48-41.2-18.48s-31.75,9.82-41.2,18.48c-8.48,7.78-15.18,13.92-29.46,13.92s-21-6.14-29.46-13.92c-1.08-1-2.16-2-3.26-3a8.68,8.68,0,1,0-11.55,13c1,.92,2.06,1.86,3.08,2.8,9.45,8.66,20.15,18.48,41.19,18.48s31.75-9.82,41.2-18.48c8.48-7.78,15.18-13.92,29.47-13.92s21,6.14,29.47,13.92c9.45,8.66,20.16,18.48,41.2,18.48s31.75-9.82,41.2-18.48c8.48-7.78,15.18-13.92,29.47-13.92s21,6.14,29.47,13.92c9.45,8.66,20.15,18.48,41.2,18.48a8.68,8.68,0,1,0,0-17.36Z"/><path d="M162.38,83A56.92,56.92,0,0,0,150,81.73c-21,0-31.75,9.82-41.2,18.48-8.48,7.78-15.18,13.92-29.47,13.92s-21-6.14-29.47-13.92c-9.45-8.66-20.16-18.48-41.2-18.48a8.68,8.68,0,0,0,0,17.36c14.29,0,21,6.14,29.47,13.92,9.45,8.66,20.15,18.48,41.2,18.48s31.75-9.82,41.2-18.48C129,105.23,135.72,99.09,150,99.09a39,39,0,0,1,8.59.88A8.68,8.68,0,1,0,162.38,83Z"/><path d="M503.32,277.58c-14.29,0-21-6.14-29.47-13.92-9.45-8.66-20.15-18.48-41.2-18.48s-31.75,9.82-41.2,18.48c-8.48,7.78-15.18,13.92-29.47,13.92s-21-6.14-29.47-13.92c-9.45-8.66-20.15-18.48-41.2-18.48s-31.75,9.82-41.2,18.48c-8.48,7.78-15.18,13.92-29.46,13.92s-21-6.14-29.46-13.92C181.75,255,171,245.19,150,245.19s-31.75,9.82-41.2,18.48c-8.48,7.78-15.18,13.92-29.47,13.92a8.68,8.68,0,0,0,0,17.36c21,0,31.75-9.82,41.2-18.48,8.48-7.78,15.18-13.92,29.47-13.92s21,6.14,29.46,13.92c9.45,8.66,20.15,18.48,41.2,18.48s31.75-9.82,41.2-18.48c8.48-7.78,15.18-13.92,29.47-13.92s21,6.14,29.47,13.92c9.45,8.66,20.16,18.48,41.2,18.48s31.75-9.82,41.2-18.48c8.48-7.78,15.18-13.92,29.47-13.92s21,6.14,29.47,13.92c9.45,8.66,20.15,18.48,41.2,18.48a8.68,8.68,0,0,0,0-17.36Z"/><path d="M59,271.39a94,94,0,0,1-9.15-7.72c-9.45-8.66-20.16-18.48-41.2-18.48a8.68,8.68,0,0,0,0,17.36c14.29,0,21,6.14,29.47,13.92A108.58,108.58,0,0,0,49,285.58a8.68,8.68,0,1,0,10-14.19Z"/><path d="M503.32,195.86c-14.29,0-21-6.14-29.47-13.92-9.45-8.66-20.15-18.48-41.2-18.48s-31.75,9.82-41.2,18.48a8.68,8.68,0,1,0,11.73,12.79c8.48-7.77,15.18-13.92,29.47-13.92s21,6.14,29.47,13.92c9.45,8.66,20.15,18.48,41.2,18.48a8.68,8.68,0,0,0,0-17.36Z"/><path d="M382.13,201a8.68,8.68,0,0,0-10.57-6.25,38.12,38.12,0,0,1-9.57,1.12c-14.29,0-21-6.14-29.47-13.92-9.45-8.66-20.15-18.48-41.2-18.48s-31.75,9.82-41.2,18.48c-8.48,7.78-15.18,13.92-29.46,13.92s-21-6.14-29.46-13.92c-9.45-8.66-20.15-18.48-41.2-18.48s-31.75,9.82-41.2,18.48c-8.48,7.78-15.18,13.92-29.47,13.92s-21-6.14-29.47-13.92c-9.45-8.66-20.16-18.48-41.2-18.48a8.68,8.68,0,1,0,0,17.36c14.29,0,21,6.14,29.46,13.92,9.45,8.66,20.15,18.48,41.2,18.48s31.75-9.82,41.2-18.48C129,187,135.72,180.81,150,180.81s21,6.14,29.46,13.92c9.45,8.66,20.15,18.48,41.2,18.48s31.75-9.82,41.2-18.48c8.48-7.78,15.18-13.92,29.47-13.92s21,6.14,29.47,13.92c9.45,8.66,20.16,18.48,41.2,18.48a56,56,0,0,0,13.89-1.66A8.68,8.68,0,0,0,382.13,201Z"/></g></g></svg>