<svg xmlns="http://www.w3.org/2000/svg" viewBox="0 0 512 294.71"><title>sea2</title><g id="Слой_2" data-name="Слой 2"><g id="Layer_1" data-name="Layer 1"><path d="M503.32,277.36c-14.29,0-21-6.14-29.47-13.92-9.45-8.66-20.15-18.48-41.2-18.48s-31.75,9.82-41.2,18.48c-8.48,7.78-15.18,13.92-29.47,13.92s-21-6.14-29.47-13.92c-9.45-8.66-20.15-18.48-41.2-18.48s-31.75,9.82-41.2,18.48c-8.48,7.78-15.18,13.92-29.46,13.92s-21-6.14-29.46-13.92C181.75,254.78,171,245,150,245s-31.75,9.82-41.2,18.48c-8.48,7.78-15.18,13.92-29.47,13.92a8.68,8.68,0,0,0,0,17.36c21,0,31.75-9.82,41.2-18.48,8.48-7.78,15.18-13.92,29.47-13.92s21,6.14,29.46,13.92c9.45,8.66,20.15,18.48,41.2,18.48s31.75-9.82,41.2-18.48c8.48-7.78,15.18-13.92,29.47-13.92s21,6.14,29.47,13.92c9.45,8.66,20.16,18.48,41.2,18.48s31.75-9.82,41.2-18.48c8.48-7.78,15.18-13.92,29.47-13.92s21,6.14,29.47,13.92c9.45,8.66,20.15,18.48,41.2,18.48a8.68,8.68,0,0,0,0-17.36Z"/><path d="M59,271.16a94,94,0,0,1-9.15-7.72C40.43,254.78,29.72,245,8.68,245a8.68,8.68,0,0,0,0,17.36c14.29,0,21,6.14,29.47,13.92A108.58,108.58,0,0,0,49,285.35a8.68,8.68,0,1,0,10-14.19Z"/><path d="M503.32,195.63c-14.29,0-21-6.14-29.47-13.92-9.45-8.66-20.15-18.48-41.2-18.48s-31.75,9.82-41.2,18.48a8.68,8.68,0,1,0,11.73,12.79c8.48-7.77,15.18-13.92,29.47-13.92s21,6.14,29.47,13.92c9.45,8.66,20.15,18.48,41.2,18.48a8.68,8.68,0,0,0,0-17.36Z"/><path d="M382.13,200.76a8.68,8.68,0,0,0-10.57-6.25,38.12,38.12,0,0,1-9.57,1.12c-14.29,0-21-6.14-29.47-13.92-9.45-8.66-20.15-18.48-41.2-18.48s-31.75,9.82-41.2,18.48c-8.48,7.78-15.18,13.92-29.46,13.92s-21-6.14-29.46-13.92c-9.45-8.66-20.15-18.48-41.2-18.48s-31.75,9.82-41.2,18.48c-8.48,7.78-15.18,13.92-29.47,13.92s-21-6.14-29.47-13.92c-9.45-8.66-20.16-18.48-41.2-18.48a8.68,8.68,0,1,0,0,17.36c14.29,0,21,6.14,29.46,13.92C47.59,203.17,58.3,213,79.34,213s31.75-9.82,41.2-18.48c8.48-7.78,15.18-13.92,29.47-13.92s21,6.14,29.46,13.92c9.45,8.66,20.15,18.48,41.2,18.48s31.75-9.82,41.2-18.48c8.48-7.78,15.18-13.92,29.47-13.92s21,6.14,29.47,13.92C330.24,203.17,341,213,362,213a56,56,0,0,0,13.89-1.66A8.68,8.68,0,0,0,382.13,200.76Z"/><rect x="100.34" y="50.95" width="311.33" height="17.92" rx="8.96" ry="8.96" transform="translate(512.01 119.81) rotate(180)"/><rect x="86.34" y="25.47" width="90" height="17.92" rx="8.96" ry="8.96" transform="translate(248.55 -34.09) rotate(135)"/><rect x="86.34" y="76.42" width="90" height="17.92" rx="8.96" ry="8.96" transform="translate(163.83 238.62) rotate(-135)"/><rect x="335.67" y="25.47" width="90" height="17.92" rx="8.96" ry="8.96" transform="translate(135.84 -259.09) rotate(45)"/><rect x="335.67" y="76.42" width="90" height="17.92" rx="8.96" ry="8.96" transform="translate(51.13 294.18) rotate(-45)"/></g></g></svg>