<svg xmlns="http://www.w3.org/2000/svg" viewBox="0 0 512 317.69"><title>sea3</title><g id="Слой_2" data-name="Слой 2"><g id="Layer_1" data-name="Layer 1"><path d="M503.32,114.13c-14.29,0-21-6.14-29.47-13.92-9.45-8.66-20.15-18.48-41.2-18.48s-31.75,9.82-41.2,18.48C383,108,376.28,114.13,362,114.13s-21-6.14-29.47-13.92c-9.45-8.66-20.15-18.48-41.2-18.48s-31.75,9.82-41.2,18.48c-8.48,7.78-15.18,13.92-29.46,13.92s-21-6.14-29.46-13.92C181.75,91.55,171,81.73,150,81.73s-31.75,9.82-41.2,18.48c-8.48,7.78-15.18,13.92-29.47,13.92a8.68,8.68,0,0,0,0,17.36c21,0,31.75-9.82,41.2-18.48C129,105.23,135.71,99.08,150,99.08s21,6.14,29.46,13.92c9.45,8.66,20.15,18.48,41.2,18.48s31.75-9.82,41.2-18.48c8.48-7.78,15.18-13.92,29.47-13.92s21,6.14,29.47,13.92c9.45,8.66,20.16,18.48,41.2,18.48s31.75-9.82,41.2-18.48c8.48-7.78,15.18-13.92,29.47-13.92s21,6.14,29.47,13.92c9.45,8.66,20.15,18.48,41.2,18.48a8.68,8.68,0,0,0,0-17.36Z"/><path d="M59,107.93a94,94,0,0,1-9.15-7.72c-9.45-8.66-20.16-18.48-41.2-18.48a8.68,8.68,0,0,0,0,17.36c14.29,0,21,6.14,29.47,13.92A108.58,108.58,0,0,0,49,122.12a8.68,8.68,0,1,0,10-14.19Z"/><path d="M503.32,32.4c-14.29,0-21-6.14-29.47-13.92C464.41,9.82,453.7,0,432.66,0s-31.75,9.82-41.2,18.48a8.68,8.68,0,1,0,11.73,12.79c8.48-7.77,15.18-13.92,29.47-13.92s21,6.14,29.47,13.92c9.45,8.66,20.15,18.48,41.2,18.48a8.68,8.68,0,0,0,0-17.36Z"/><path d="M382.13,37.53a8.68,8.68,0,0,0-10.57-6.25A38.12,38.12,0,0,1,362,32.4c-14.29,0-21-6.14-29.47-13.92C323.08,9.82,312.37,0,291.33,0s-31.75,9.82-41.2,18.48C241.65,26.26,235,32.4,220.66,32.4s-21-6.14-29.46-13.92C181.75,9.82,171,0,150,0s-31.75,9.82-41.2,18.48C100.33,26.26,93.63,32.4,79.34,32.4s-21-6.14-29.47-13.92C40.43,9.82,29.72,0,8.68,0a8.68,8.68,0,1,0,0,17.36c14.29,0,21,6.14,29.46,13.92,9.45,8.66,20.15,18.48,41.2,18.48s31.75-9.82,41.2-18.48C129,23.5,135.72,17.36,150,17.36s21,6.14,29.46,13.92c9.45,8.66,20.15,18.48,41.2,18.48s31.75-9.82,41.2-18.48c8.48-7.78,15.18-13.92,29.47-13.92s21,6.14,29.47,13.92C330.24,39.93,341,49.75,362,49.75a56,56,0,0,0,13.89-1.66A8.68,8.68,0,0,0,382.13,37.53Z"/><rect x="178.17" y="227.47" width="155.66" height="17.92" rx="8.96" ry="8.96" transform="translate(492.43 -19.58) rotate(90)"/><rect x="185.53" y="274.3" width="90" height="17.92" rx="8.96" ry="8.96" transform="translate(267.82 -80.04) rotate(45)"/><rect x="236.48" y="274.3" width="90" height="17.92" rx="8.96" ry="8.96" transform="translate(680.8 284.52) rotate(135)"/><path d="M333,204.28V185a1.84,1.84,0,0,0-3.55-.67l-8,20.63a1.84,1.84,0,0,1-1.71,1.17h-2.9a1.84,1.84,0,0,1-1.71-1.17l-8-20.57a1.84,1.84,0,0,0-3.55.66v19.24a1.84,1.84,0,0,1-1.84,1.84h-8.58a1.84,1.84,0,0,1-1.84-1.84V160.43a1.84,1.84,0,0,1,1.84-1.84H307.1a1.84,1.84,0,0,1,1.72,1.18l7.74,20.16a1.84,1.84,0,0,0,3.43,0l7.8-20.17a1.84,1.84,0,0,1,1.71-1.17h13.93a1.84,1.84,0,0,1,1.84,1.84v43.84a1.84,1.84,0,0,1-1.84,1.84h-8.58A1.84,1.84,0,0,1,333,204.28Z"/></g></g></svg>