<svg xmlns="http://www.w3.org/2000/svg" viewBox="0 0 512 512"><title>settings</title><g id="Слой_2" data-name="Слой 2"><g id="Capa_1" data-name="Capa 1"><path d="M262,352.37,159.63,250a8.52,8.52,0,0,0-12.07,0L122,275.57a8.52,8.52,0,0,0-2.07,8.73l6.87,20.59L16.67,415a56.78,56.78,0,0,0,40.05,97h.11A56.43,56.43,0,0,0,97,495.33L207.1,385.23l20.6,6.86a8.48,8.48,0,0,0,8.73-2.06l25.6-25.6A8.52,8.52,0,0,0,262,352.37ZM228.1,374.23l-20.6-6.86a8.5,8.5,0,0,0-8.73,2.06L84.93,483.26a39.49,39.49,0,0,1-28.11,11.67h-.08a39.74,39.74,0,0,1-28-67.87L142.57,313.23a8.52,8.52,0,0,0,2.07-8.73l-6.87-20.59,15.84-15.85,90.33,90.33Z"/><rect x="36.75" y="388.29" width="156.88" height="17.07" transform="translate(-246.86 197.68) rotate(-45)"/><path d="M509.5,36.64,475.37,2.5a8.51,8.51,0,0,0-10.17-1.42l-76.8,42.67a8.53,8.53,0,0,0-4.22,5.79l-8,40.13L181.71,284.1l12.07,12.07L390,99.9a8.62,8.62,0,0,0,2.33-4.36l7.76-38.8,67.72-37.62,25,25-37.62,67.73-38.8,7.76A8.46,8.46,0,0,0,412.1,122L215.83,318.23l12.07,12.07L422.34,135.87l40.13-8a8.58,8.58,0,0,0,5.79-4.22l42.67-76.8A8.54,8.54,0,0,0,509.5,36.64Z"/><path d="M510,439.13a8.54,8.54,0,0,0-7.18-3.93h-72l-27.31-34.13,27.31-34.13h72a8.46,8.46,0,0,0,7.15-3.91,8.56,8.56,0,0,0,.63-8.13,110.66,110.66,0,0,0-146-55.69l-1.15.53L304.67,241.4l-12,12.11,63.06,62.64a8.53,8.53,0,0,0,10,1.48c1.9-1,3.84-2,5.79-2.83a93.49,93.49,0,0,1,117,35.07H426.67a8.55,8.55,0,0,0-6.66,3.2l-34.13,42.67a8.54,8.54,0,0,0,0,10.67L420,449.06a8.54,8.54,0,0,0,6.66,3.2h61.65c-23.61,36-69.94,52-111.33,36.52A93.88,93.88,0,0,1,321.85,368a8.51,8.51,0,0,0-2-9l-66.39-66.39L241.44,304.7l62.62,62.62A110.78,110.78,0,0,0,409.44,511.71c42.19,0,82.57-24.22,101.09-64.4A8.5,8.5,0,0,0,510,439.13Z"/><path d="M192.11,153l66.39,66.39,12.07-12.07L207.87,144.6A110.93,110.93,0,0,0,1.53,65a8.53,8.53,0,0,0,7.7,12.22h0l72-.4,27.29,34.11L81.24,145.06h-72a8.53,8.53,0,0,0-7.77,12,110.64,110.64,0,0,0,146,55.69l1.13-.52,58.73,58.33,12-12.12-63.06-62.63a8.51,8.51,0,0,0-10-1.48c-1.89,1-3.83,2-5.79,2.84a93.48,93.48,0,0,1-117-35.07H85.33A8.51,8.51,0,0,0,92,158.92l34.13-42.67a8.53,8.53,0,0,0,0-10.66L92,62.93a8.54,8.54,0,0,0-6.67-3.2h0L24,60.07a93.88,93.88,0,0,1,166.1,84A8.53,8.53,0,0,0,192.11,153Z"/><rect x="200.53" y="166.83" width="17.07" height="84.47" transform="translate(-86.6 209.07) rotate(-45)"/><rect x="298.66" y="258.93" width="17.07" height="96.54" transform="translate(-127.25 307.2) rotate(-45)"/></g></g></svg>