<svg xmlns="http://www.w3.org/2000/svg" viewBox="0 0 426.67 512"><title>shield</title><g id="Слой_2" data-name="Слой 2"><g id="Layer_1" data-name="Layer 1"><path d="M416,90.67c-33.29,0-58.56-19.48-85.31-40.11C300,26.86,265.12,0,213.33,0S126.71,26.86,96,50.56C69.23,71.18,44,90.67,10.67,90.67A10.67,10.67,0,0,0,0,101.33C0,225.88,15.51,308.81,50.29,370.23c34.54,61,86,98.92,157.71,140.35a10.67,10.67,0,0,0,10.67,0c71.76-41.43,123.17-79.36,157.71-140.35,34.78-61.42,50.29-144.35,50.29-268.89A10.67,10.67,0,0,0,416,90.67ZM213.33,489C84.67,414,23.05,349.34,21.37,111.46c35.14-3.54,61.79-24.09,87.64-44,29.4-22.67,59.81-46.12,104.33-46.12s74.92,23.44,104.33,46.12c25.84,19.93,52.49,40.47,87.64,44C403.62,349.34,342,414,213.33,489Z"/><path d="M87.3,121.82a10.67,10.67,0,0,0-14.41-4.47c-1.32.7-2.67,1.38-4,2a10.67,10.67,0,1,0,9.42,19.14c1.52-.75,3-1.52,4.53-2.31A10.67,10.67,0,0,0,87.3,121.82Z"/><path d="M368.92,205.47c.33,0,.65,0,1,0a10.67,10.67,0,0,0,10.61-9.7c.13-1.36.24-2.73.36-4.09a10.67,10.67,0,1,0-21.26-1.8c-.11,1.32-.23,2.64-.35,4A10.67,10.67,0,0,0,368.92,205.47Z"/><path d="M108.39,118.13a10.61,10.61,0,0,0,6.23-2c6.18-4.46,12.2-9,18-13.47C159.86,81.9,183.38,64,213.33,64a10.67,10.67,0,0,0,0-21.33c-37.15,0-64.58,20.88-93.62,43C114,90,108.09,94.51,102.13,98.81a10.67,10.67,0,0,0,6.25,19.32Z"/><path d="M213.33,439.29c-27.3-16.83-60.27-39.43-85-68.58a10.67,10.67,0,1,0-16.27,13.8c28.4,33.49,66.08,58.42,95.73,76.4l.17.08c.26.15.52.28.79.4s.34.17.51.24.48.17.73.26.41.15.62.2.45.09.68.14.45.1.68.13.65.05,1,.07l.38,0h0l.38,0c.33,0,.65,0,1-.07s.45-.08.67-.13.46-.08.68-.14.41-.13.61-.2.49-.16.73-.26.34-.16.51-.24.53-.26.79-.4l.17-.08c29.65-18,67.33-42.91,95.73-76.41,32.39-38.2,52.8-89.9,62.41-158a10.67,10.67,0,0,0-21.12-3c-9,64-27.85,112.19-57.55,147.22C273.6,399.86,240.64,422.46,213.33,439.29Z"/><path d="M282.18,133.45,170.9,244.72l-26.4-26.41a34.67,34.67,0,1,0-49,49l51,51,.44.43.2.19.45.42.24.22.46.4.21.18.46.39.16.13.47.38.26.2.49.36.2.15.49.35.22.15.5.34.24.16.5.32.2.13.51.31.2.12.51.29.3.17.52.28.16.08.52.27.28.14.53.25.23.11.27.12.58.26.54.22.15.06.54.21.25.1.55.2.27.09.27.09.55.18.55.17.24.07.56.16.23.06.56.14.23.06.56.13.24.05.56.12.32.06.28,0,.51.09.57.09.26,0,.57.07.24,0,.27,0,.54.06.58,0,.32,0,.27,0,.54,0,.58,0h1.81l.58,0,.54,0,.27,0,.33,0,.57,0,.53-.06.27,0,.24,0,.58-.08.27,0,.57-.09.52-.09.27,0,.32-.06.56-.12.22,0,.57-.13.27-.07.56-.14.22-.06.56-.16.23-.07.56-.17.52-.17.27-.09.29-.1.55-.2.25-.1.54-.21.18-.07.54-.22.51-.23.28-.12.27-.12.53-.25.21-.11.52-.27.5-.27.27-.15.23-.13.52-.29.24-.15.51-.31.24-.15.5-.32.17-.11.5-.33.25-.18.49-.35.25-.18.48-.36.18-.14.47-.37.37-.3.27-.22.28-.24.46-.4.18-.16.45-.42.2-.19.44-.43.28-.29L331.22,182.47a34.67,34.67,0,0,0-49-49Zm33.95,33.95L180.33,303.18l-.07.07-1,.88,0,0-1.27.9-1.8.93h0l-1.19.44h0l-1.84.43H173l-.92.11H172l-.52,0h-1.19l-.53,0h-.06l-.92-.11-.08,0-1.84-.43h0l-1-.38-2-1L162,303.66l-51.43-51.4a13.34,13.34,0,0,1,18.87-18.87l33.95,34a10.67,10.67,0,0,0,15.09,0L297.26,148.53a13.34,13.34,0,0,1,18.86,18.86Z"/></g></g></svg>