<svg xmlns="http://www.w3.org/2000/svg" viewBox="0 0 512 508.45"><title>shipping</title><g id="Слой_2" data-name="Слой 2"><g id="Layer_1" data-name="Layer 1"><path d="M276.42,250.81H137a10.2,10.2,0,0,0-10.2,10.2V400.38a10.2,10.2,0,0,0,10.2,10.2H276.42a10.2,10.2,0,0,0,10.2-10.2V261A10.2,10.2,0,0,0,276.42,250.81Zm-10.2,20.4v39.08l-39.08-39.08Zm-119,119V350.83l39.35,39.36Zm119,0H215.45L147.25,322V285.63l63.81,63.81A10.2,10.2,0,1,0,225.48,335l-63.8-63.81H198.3l67.93,67.93Z"/><path d="M251.78,361.31l-2.85-2.85a10.2,10.2,0,0,0-14.42,14.43l2.85,2.85a10.2,10.2,0,0,0,14.42-14.43Z"/><path d="M442.79,167.55H351.5a10.2,10.2,0,0,0-10.2,10.2V401.36a10.2,10.2,0,0,0,10.2,10.2h91.29a10.2,10.2,0,0,0,10.2-10.2V177.75A10.2,10.2,0,0,0,442.79,167.55ZM361.69,188h28.92l42,42v33.33L362,192.67l-.31-.28Zm0,203.21V350.83L402,391.16Zm70.89,0h-1.71L361.7,322V285.63l70.89,70.89v34.64Zm0-63.49L362,257.09l-.31-.28v-35.6l70.89,70.89Zm0-126.59L419.46,188h13.13Z"/><path d="M276.42,37.27H137a10.2,10.2,0,0,0-10.2,10.2V186.85A10.2,10.2,0,0,0,137,197H276.42a10.2,10.2,0,0,0,10.2-10.2V47.47A10.2,10.2,0,0,0,276.42,37.27Zm-10.2,20.4V96.75L227.14,57.67Zm-119,119V137.29l39.35,39.35Zm68.2,0-68.2-68.2V72.1L251.8,176.65Zm50.78-14.42L161.67,57.67h36.62l67.93,67.93Z"/><path d="M501.8,427.46H489.87V141.73a10.2,10.2,0,0,0-10.2-10.2H324.07V10.2A10.2,10.2,0,0,0,313.87,0H99.77a10.2,10.2,0,0,0-10.2,10.2V427.46H79.94V133.1A44,44,0,0,0,36,89.18H14.94a10.2,10.2,0,1,0,0,20.4H36A23.55,23.55,0,0,1,59.54,133.1V416a47.1,47.1,0,1,0,32.64,31.89H415.49a40.23,40.23,0,1,0,69.36,0h17a10.2,10.2,0,1,0,0-20.4ZM47.08,488a26.68,26.68,0,1,1,26.68-26.68A26.71,26.71,0,0,1,47.08,488Zm256.59-60.59H110V234.13h193.7Zm0-285.73v72H110V20.4h193.7Zm20.4,285.73V151.93h145.4V427.46ZM450.16,488A19.83,19.83,0,1,1,470,468.22,19.86,19.86,0,0,1,450.16,488Z"/></g></g></svg>