<svg xmlns="http://www.w3.org/2000/svg" viewBox="0 0 424.78 499"><defs> </defs><title>stakan</title><g id="Слой_2" data-name="Слой 2"><g id="Layer_1" data-name="Layer 1"><path class="cls-1" d="M22.93,135.67,42.78,438.36A18.56,18.56,0,0,0,61.3,455.7H190a6.57,6.57,0,0,1,4.74,2.05A132.53,132.53,0,0,0,290,499h1.2a133.6,133.6,0,0,0,8.66-266.91,6.5,6.5,0,0,1-6.07-6.91l5.87-89.5a10.86,10.86,0,0,1,10.81-10.12h.78a11.35,11.35,0,0,0,11.35-11.35V52.48a11.35,11.35,0,0,0-11.35-11.35H226.89A10.83,10.83,0,0,1,216.06,30.3V11.47A11.47,11.47,0,0,0,204.59,0H118A11.47,11.47,0,0,0,106.5,11.47V30.3A10.83,10.83,0,0,1,95.67,41.13H11.35A11.35,11.35,0,0,0,0,52.48v61.72a11.35,11.35,0,0,0,11.35,11.35h.77A10.86,10.86,0,0,1,22.93,135.67Zm142.6,293.68a15.61,15.61,0,0,1-12.94,6.87H68.24a6.5,6.5,0,0,1-6.49-6.08L42.54,137.09a10.83,10.83,0,0,1,10.81-11.54H269.22A10.83,10.83,0,0,1,280,137.09l-5.29,80.7a19.37,19.37,0,0,1-14.8,17.7,133.6,133.6,0,0,0-92.84,179.43A15.46,15.46,0,0,1,165.53,429.36ZM371.84,284.73a113.07,113.07,0,0,1,33.4,84.45A114.31,114.31,0,0,1,295,479.46q-1.93.06-3.84.06a114.25,114.25,0,0,1-114-117.91A114.31,114.31,0,0,1,287.39,251.33,113.11,113.11,0,0,1,371.84,284.73ZM136.8,19.47h49a10.83,10.83,0,1,1,0,21.66h-49a10.83,10.83,0,0,1,0-21.66Zm-117.33,52A10.84,10.84,0,0,1,30.3,60.61h262a10.84,10.84,0,0,1,10.83,10.83V95.25a10.84,10.84,0,0,1-10.83,10.83H30.3A10.84,10.84,0,0,1,19.47,95.25Z"/><path class="cls-1" d="M282.82,387.52a11.83,11.83,0,0,1,16.71,0l27.13,27.13a.28.28,0,0,0,.4,0l13.37-13.37a.28.28,0,0,0,0-.4L313.3,373.75a11.81,11.81,0,0,1,0-16.71l27.13-27.13a.28.28,0,0,0,0-.4l-13.37-13.37a.28.28,0,0,0-.4,0l-27.13,27.13a11.83,11.83,0,0,1-16.71,0l-27.13-27.13a.28.28,0,0,0-.4,0l-13.37,13.37a.28.28,0,0,0,0,.4l26.85,26.85a12.33,12.33,0,0,1,3.66,7.25,11.77,11.77,0,0,1-3.38,9.74l-27.13,27.13a.28.28,0,0,0,0,.4l13.37,13.37a.28.28,0,0,0,.4,0Z"/></g></g></svg>