<svg xmlns="http://www.w3.org/2000/svg" viewBox="0 0 110.59 72.87"><defs><style>.cls-1{fill:#f7941d;}.cls-2{fill:#6d6e71;}.cls-3{fill:#939598;}.cls-4{fill:#414042;}.cls-5,.cls-6{fill:none;}.cls-5{stroke:#414042;stroke-miterlimit:10;}.cls-6{stroke:#d1d3d4;stroke-linecap:round;stroke-linejoin:round;stroke-width:0.5px;}</style></defs><title>step-1</title><g id="Слой_2" data-name="Слой 2"><g id="Слой_1-2" data-name="Слой 1"><rect class="cls-1" y="65.22" width="110.59" height="7.66"/><path class="cls-2" d="M110.59,60.18v5H0v-5H39.81c3.46,2.2,9.1,3.63,15.49,3.63s12-1.43,15.49-3.63Z"/><path class="cls-3" d="M39.81,60.18H0V57.65H37.06A8.94,8.94,0,0,0,39.81,60.18Z"/><path class="cls-3" d="M110.59,57.65v2.52H70.79a8.91,8.91,0,0,0,2.74-2.52Z"/><path class="cls-4" d="M36.25,55.14a4.5,4.5,0,0,0,.81,2.52H0V55.14Z"/><path class="cls-4" d="M110.59,55.14v2.52H73.53a4.5,4.5,0,0,0,.81-2.52Z"/><rect class="cls-5" x="49.78" y="17.87" width="11" height="3.14" rx="0.83" ry="0.83"/><rect class="cls-5" x="49.78" y="6.5" width="11" height="6.81" rx="0.83" ry="0.83"/><rect class="cls-5" x="50.92" y="0.5" width="8.72" height="6" rx="0.83" ry="0.83"/><rect class="cls-5" x="35.98" y="7.81" width="9.97" height="4.19" rx="0.83" ry="0.83"/><rect class="cls-5" x="45.95" y="8.88" width="3.83" height="2.06" rx="0.83" ry="0.83"/><rect class="cls-5" x="53.48" y="13.31" width="3.59" height="4.56" rx="0.83" ry="0.83"/><rect class="cls-5" x="49.89" y="13.31" width="3.59" height="4.56" rx="0.83" ry="0.83"/><rect class="cls-5" x="39.67" y="1.75" width="2.59" height="6.06" rx="0.41" ry="0.41"/><rect class="cls-5" x="38.79" y="40.94" width="4.34" height="3.03" rx="0.41" ry="0.41"/><rect class="cls-5" x="39.92" y="43.97" width="2.09" height="2.47" rx="0.41" ry="0.41"/><rect class="cls-5" x="39.67" y="12" width="2.59" height="28.94" rx="0.41" ry="0.41"/><rect class="cls-5" x="57.07" y="13.31" width="3.59" height="4.56" rx="0.83" ry="0.83"/><rect class="cls-5" x="51.69" y="21.01" width="7.18" height="26.05" rx="0.94" ry="0.94"/><path class="cls-6" d="M52.32,50.21a30.25,30.25,0,0,1-8.58,7.45"/><polyline class="cls-6" points="43.99 55.14 43.13 57.96 46.24 58.46"/><path class="cls-6" d="M58.27,50.21a30.25,30.25,0,0,0,8.58,7.45"/><polyline class="cls-6" points="66.6 55.14 67.46 57.96 64.35 58.46"/><polyline class="cls-6" points="57.85 57.76 55.3 60.31 52.74 57.76"/><line class="cls-6" x1="55.3" y1="60.31" x2="55.3" y2="50.21"/></g></g></svg>