<svg xmlns="http://www.w3.org/2000/svg" viewBox="0 0 110.59 72.87"><defs><style>.cls-1{fill:#f7941d;}.cls-2{fill:#6d6e71;}.cls-3{fill:#939598;}.cls-4{fill:#414042;}.cls-5,.cls-6{fill:none;}.cls-5{stroke:#d1d3d4;stroke-linecap:round;stroke-linejoin:round;stroke-width:0.5px;}.cls-6{stroke:#414042;stroke-miterlimit:10;}.cls-7{fill:#58595b;opacity:0.5;}</style></defs><title>step-4</title><g id="Слой_2" data-name="Слой 2"><g id="Слой_1-2" data-name="Слой 1"><rect class="cls-1" y="65.22" width="110.59" height="7.66"/><rect class="cls-2" y="60.18" width="110.59" height="5.04"/><rect class="cls-3" y="57.65" width="110.59" height="2.52"/><rect class="cls-4" y="55.14" width="110.59" height="2.52"/><polyline class="cls-5" points="73.83 41.9 76.38 44.45 73.83 47"/><polyline class="cls-5" points="68.53 47 65.98 44.45 68.53 41.9"/><line class="cls-5" x1="76.38" y1="44.45" x2="66.28" y2="44.45"/><rect class="cls-6" x="49.78" y="17.87" width="11" height="3.14" rx="0.83" ry="0.83"/><rect class="cls-6" x="49.78" y="6.5" width="11" height="6.81" rx="0.83" ry="0.83"/><rect class="cls-6" x="50.92" y="0.5" width="8.72" height="6" rx="0.83" ry="0.83"/><rect class="cls-6" x="35.98" y="7.81" width="9.97" height="4.19" rx="0.83" ry="0.83"/><rect class="cls-6" x="45.95" y="8.88" width="3.83" height="2.06" rx="0.83" ry="0.83"/><rect class="cls-6" x="53.48" y="13.31" width="3.59" height="4.56" rx="0.83" ry="0.83"/><rect class="cls-6" x="49.89" y="13.31" width="3.59" height="4.56" rx="0.83" ry="0.83"/><rect class="cls-6" x="39.67" y="1.75" width="2.59" height="6.06" rx="0.41" ry="0.41"/><rect class="cls-6" x="38.79" y="40.94" width="4.34" height="3.03" rx="0.41" ry="0.41"/><rect class="cls-6" x="39.92" y="43.97" width="2.09" height="2.47" rx="0.41" ry="0.41"/><rect class="cls-6" x="39.67" y="12" width="2.59" height="28.94" rx="0.41" ry="0.41"/><rect class="cls-6" x="57.07" y="13.31" width="3.59" height="4.56" rx="0.83" ry="0.83"/><rect class="cls-6" x="51.69" y="21.01" width="7.18" height="26.05" rx="0.94" ry="0.94"/><path class="cls-7" d="M72.33,55.13c-3.51,3.06-9.85,8.16-17.07,8.16s-13.53-5.09-17-8.14l1.21,0Z"/><path class="cls-2" d="M72.3,55.16l0,0h0C55.9,55.12,57.93,47,57.93,47H55.26v0H52.63s1.77,7.68-13.21,8.07l-1.21,0H72.3Z"/></g></g></svg>