<svg xmlns="http://www.w3.org/2000/svg" viewBox="0 0 110.59 73.74"><defs><style>.cls-1{fill:#231f20;}.cls-2,.cls-7{fill:none;}.cls-2{stroke:#d1d3d4;stroke-linecap:round;stroke-linejoin:round;stroke-width:0.5px;}.cls-3{fill:#f7941d;}.cls-4{fill:#6d6e71;}.cls-5{fill:#939598;}.cls-6{fill:#414042;}.cls-7{stroke:#414042;stroke-miterlimit:10;}</style></defs><title>step-2</title><g id="Слой_2" data-name="Слой 2"><g id="Слой_1-2" data-name="Слой 1"><path class="cls-1" d="M47.3,47.15S45.23,59.4,36.42,59.32C46,68.24,63.24,71.11,66.86,68.24s6.13-6.5,5.75-6.5S61.1,64.61,57.1,61.61c-4.55-3.42-4.56-13.69-4.56-13.69Z"/><path class="cls-2" d="M58.4,51s3.9,3.67,11,2.85"/><polyline class="cls-2" points="67.36 51.91 69.57 53.86 67.2 55.92"/><polyline class="cls-2" points="58.45 53.7 58.04 50.78 61.19 50.77"/><rect class="cls-3" y="66.08" width="110.59" height="7.66"/><path class="cls-4" d="M110.59,61v5H0V61H39.81c3.46,2.2,9.1,3.63,15.49,3.63s12-1.43,15.49-3.63Z"/><path class="cls-5" d="M39.81,61H0V58.51H37.06A8.94,8.94,0,0,0,39.81,61Z"/><path class="cls-5" d="M110.59,58.51V61H70.79a8.91,8.91,0,0,0,2.74-2.52Z"/><path class="cls-6" d="M36.25,56a4.5,4.5,0,0,0,.81,2.52H0V56Z"/><path class="cls-6" d="M110.59,56v2.52H73.53A4.5,4.5,0,0,0,74.34,56Z"/><rect class="cls-7" x="48.4" y="18.64" width="11" height="3.14" rx="0.83" ry="0.83" transform="translate(3.48 -7.56) rotate(8.29)"/><rect class="cls-7" x="49.78" y="7.36" width="11" height="6.81" rx="0.83" ry="0.83" transform="translate(2.13 -7.86) rotate(8.29)"/><rect class="cls-7" x="51.84" y="1.43" width="8.72" height="6" rx="0.83" ry="0.83" transform="translate(1.23 -8.06) rotate(8.29)"/><rect class="cls-7" x="36.13" y="6.61" width="9.97" height="4.19" rx="0.83" ry="0.83" transform="matrix(0.99, 0.14, -0.14, 0.99, 1.69, -5.84)"/><rect class="cls-7" x="46.02" y="8.67" width="3.83" height="2.06" rx="0.83" ry="0.83" transform="translate(1.9 -6.81) rotate(8.29)"/><rect class="cls-7" x="52.66" y="14.11" width="3.59" height="4.56" rx="0.83" ry="0.83" transform="translate(2.93 -7.68) rotate(8.29)"/><rect class="cls-7" x="49.11" y="13.6" width="3.59" height="4.56" rx="0.83" ry="0.83" transform="translate(2.82 -7.18) rotate(8.29)"/><rect class="cls-7" x="40.56" y="0.6" width="2.59" height="6.06" rx="0.41" ry="0.41" transform="translate(0.96 -6) rotate(8.29)"/><rect class="cls-7" x="34.25" y="39.39" width="4.34" height="3.03" rx="0.41" ry="0.41" transform="translate(6.28 -4.83) rotate(8.29)"/><rect class="cls-7" x="34.98" y="42.4" width="2.09" height="2.47" rx="0.41" ry="0.41" transform="translate(6.67 -4.74) rotate(8.29)"/><rect class="cls-7" x="37.43" y="10.62" width="2.59" height="28.94" rx="0.41" ry="0.41" transform="translate(4.02 -5.32) rotate(8.29)"/><rect class="cls-7" x="56.21" y="14.63" width="3.59" height="4.56" rx="0.83" ry="0.83" transform="matrix(0.99, 0.14, -0.14, 0.99, 3.05, -8.19)"/><rect class="cls-7" x="48.21" y="21.62" width="7.18" height="26.05" rx="0.94" ry="0.94" transform="translate(5.54 -7.11) rotate(8.29)"/></g></g></svg>