<svg xmlns="http://www.w3.org/2000/svg" viewBox="0 0 110.59 72.87"><defs><style>.cls-1{fill:#58595b;}.cls-2,.cls-7{fill:none;}.cls-2{stroke:#d1d3d4;stroke-linecap:round;stroke-linejoin:round;stroke-width:0.5px;}.cls-3{fill:#f7941d;}.cls-4{fill:#6d6e71;}.cls-5{fill:#939598;}.cls-6{fill:#414042;}.cls-7{stroke:#414042;stroke-miterlimit:10;}</style></defs><title>step-3</title><g id="Слой_2" data-name="Слой 2"><g id="Слой_1-2" data-name="Слой 1"><path class="cls-1" d="M57.93,47H55.26v0H52.63S51.31,60.18,37.06,60.18l10.8,6.45,7.41.75v0l7.41-.75,10.8-6.45C59.25,60.14,57.93,47,57.93,47Z"/><polyline class="cls-2" points="66.44 46.38 64.59 49.48 61.49 47.64"/><line class="cls-2" x1="64.59" y1="49.48" x2="62.1" y2="39.69"/><polyline class="cls-2" points="44.12 46.38 45.96 49.48 49.06 47.64"/><line class="cls-2" x1="45.96" y1="49.48" x2="48.45" y2="39.69"/><rect class="cls-3" y="65.22" width="110.59" height="7.66"/><path class="cls-4" d="M110.59,60.18v5H0v-5H39.81c3.46,2.2,9.1,3.63,15.49,3.63s12-1.43,15.49-3.63Z"/><path class="cls-5" d="M39.81,60.18H0V57.65H37.06A8.94,8.94,0,0,0,39.81,60.18Z"/><path class="cls-5" d="M110.59,57.65v2.52H70.79a8.91,8.91,0,0,0,2.74-2.52Z"/><path class="cls-6" d="M36.25,55.14a4.5,4.5,0,0,0,.81,2.52H0V55.14Z"/><path class="cls-6" d="M110.59,55.14v2.52H73.53a4.5,4.5,0,0,0,.81-2.52Z"/><rect class="cls-7" x="49.78" y="17.87" width="11" height="3.14" rx="0.83" ry="0.83"/><rect class="cls-7" x="49.78" y="6.5" width="11" height="6.81" rx="0.83" ry="0.83"/><rect class="cls-7" x="50.92" y="0.5" width="8.72" height="6" rx="0.83" ry="0.83"/><rect class="cls-7" x="35.98" y="7.81" width="9.97" height="4.19" rx="0.83" ry="0.83"/><rect class="cls-7" x="45.95" y="8.88" width="3.83" height="2.06" rx="0.83" ry="0.83"/><rect class="cls-7" x="53.48" y="13.31" width="3.59" height="4.56" rx="0.83" ry="0.83"/><rect class="cls-7" x="49.89" y="13.31" width="3.59" height="4.56" rx="0.83" ry="0.83"/><rect class="cls-7" x="39.67" y="1.75" width="2.59" height="6.06" rx="0.41" ry="0.41"/><rect class="cls-7" x="38.79" y="40.94" width="4.34" height="3.03" rx="0.41" ry="0.41"/><rect class="cls-7" x="39.92" y="43.97" width="2.09" height="2.47" rx="0.41" ry="0.41"/><rect class="cls-7" x="39.67" y="12" width="2.59" height="28.94" rx="0.41" ry="0.41"/><rect class="cls-7" x="57.07" y="13.31" width="3.59" height="4.56" rx="0.83" ry="0.83"/><rect class="cls-7" x="51.69" y="21.01" width="7.18" height="26.05" rx="0.94" ry="0.94"/></g></g></svg>