<svg xmlns="http://www.w3.org/2000/svg" viewBox="0 0 512 366.93"><title>truck</title><g id="Слой_2" data-name="Слой 2"><g id="Capa_1" data-name="Capa 1"><path d="M119.47,264.53a51.2,51.2,0,1,0,51.2,51.2A51.25,51.25,0,0,0,119.47,264.53Zm0,85.33a34.13,34.13,0,1,1,34.13-34.13A34.17,34.17,0,0,1,119.47,349.87Z"/><path d="M409.6,264.53a51.2,51.2,0,1,0,51.2,51.2A51.25,51.25,0,0,0,409.6,264.53Zm0,85.33a34.13,34.13,0,1,1,34.13-34.13A34.17,34.17,0,0,1,409.6,349.87Z"/><path d="M510.64,217.25,433.84,97.78a8.54,8.54,0,0,0-7.18-3.92H332.8a8.53,8.53,0,0,0-8.53,8.53V315.73a8.52,8.52,0,0,0,8.53,8.53h34.13V307.2h-25.6V110.93H422l72.93,113.44V307.2H452.27v17.07h51.2a8.52,8.52,0,0,0,8.53-8.53V221.87A8.51,8.51,0,0,0,510.64,217.25Z"/><path d="M375.47,204.8V145.07h68.27V128h-76.8a8.53,8.53,0,0,0-8.53,8.53v76.8a8.52,8.52,0,0,0,8.53,8.53h128V204.8H375.47Z"/><path d="M332.8,34.13H8.53A8.54,8.54,0,0,0,0,42.67V315.73a8.53,8.53,0,0,0,8.53,8.53H76.8V307.2H17.07V51.2h307.2v256H162.13v17.07H332.8a8.52,8.52,0,0,0,8.53-8.53V42.67A8.53,8.53,0,0,0,332.8,34.13Z"/><rect x="8.53" y="273.07" width="51.2" height="17.07"/><rect x="179.2" y="273.07" width="145.07" height="17.07"/><rect x="469.33" y="273.07" width="34.13" height="17.07"/><rect x="34.13" y="68.27" width="298.67" height="17.07"/><rect x="110.93" y="307.2" width="17.07" height="17.07"/><rect x="401.07" y="307.2" width="17.07" height="17.07"/><rect x="34.13" width="119.47" height="17.07"/><rect width="17.07" height="17.07"/></g></g></svg>