<svg xmlns="http://www.w3.org/2000/svg" viewBox="0 0 50 55"><title>umbrella</title><g id="Слой_2" data-name="Слой 2"><g id="Capa_1" data-name="Capa 1"><path d="M26.14,3A1,1,0,0,0,26,3V1a1,1,0,0,0-2,0V3a1,1,0,0,0-.14,0A25,25,0,0,0,0,28v2a1,1,0,0,0,2,0V28.39A6.72,6.72,0,0,1,7,26a6.72,6.72,0,0,1,5,2.39V30a1,1,0,0,0,2,0V28.39A6.72,6.72,0,0,1,19,26a6.72,6.72,0,0,1,5,2.39V37H23a1,1,0,0,0,0,2h1v2H22v7a1,1,0,0,1-1.88.47A2.89,2.89,0,0,0,17.54,47a3,3,0,0,0-2.6,1.51,3,3,0,0,0,0,3A7,7,0,0,0,28,48V41H26V28.39a6.43,6.43,0,0,1,10,0V30a1,1,0,0,0,2,0V28.39a6.43,6.43,0,0,1,10,0V30a1,1,0,0,0,2,0V28A25,25,0,0,0,26.14,3ZM26,48a5,5,0,0,1-9.31,2.53,1,1,0,0,1,0-1,1,1,0,0,1,.86-.5.91.91,0,0,1,.82.42A3,3,0,0,0,24,48V43h2ZM7,24a8.34,8.34,0,0,0-4.87,1.6,23,23,0,0,1,17.53-20c-4.22,3.75-7.16,11.19-7.59,20.1A8.37,8.37,0,0,0,7,24Zm12,0a8.36,8.36,0,0,0-4.94,1.65C14.61,15.34,18.73,7,24,5.33V25.69A8.37,8.37,0,0,0,19,24Zm12,0a8.37,8.37,0,0,0-5,1.69V5.33c5.27,1.7,9.39,10,9.94,20.32A8.36,8.36,0,0,0,31,24Zm12,0a8.37,8.37,0,0,0-5.06,1.74c-.43-8.92-3.37-16.35-7.59-20.1a23,23,0,0,1,17.53,20A8.35,8.35,0,0,0,43,24Z"/></g></g></svg>