<svg xmlns="http://www.w3.org/2000/svg" viewBox="0 0 512 506"><title>work-tools</title><g id="Слой_2" data-name="Слой 2"><g id="Layer_1" data-name="Layer 1"><path d="M384.14,129.87,354.86,5.79a7.51,7.51,0,0,0-14.63,3.45l29.28,124.08a7.51,7.51,0,1,0,14.63-3.45Z"/><path d="M470.72,496.75,389.85,154a7.51,7.51,0,0,0-14.63,3.45l80.88,342.7a7.51,7.51,0,0,0,14.63-3.45Z"/><path d="M61.87,442.23a7.52,7.52,0,0,0-9,5.59L41.28,496.75a7.51,7.51,0,1,0,14.63,3.45l11.55-48.94A7.51,7.51,0,0,0,61.87,442.23Z"/><path d="M166.18.2a7.52,7.52,0,0,0-9,5.59L60.3,416.15a7.51,7.51,0,1,0,14.63,3.45L171.77,9.24A7.52,7.52,0,0,0,166.18.2Z"/><path d="M511.72,496.43,372.9,5.47a7.51,7.51,0,1,0-14.46,4.09l138.81,491a7.51,7.51,0,0,0,14.46-4.09Z"/><path d="M148.37.29a7.51,7.51,0,0,0-9.27,5.19L.29,496.44a7.51,7.51,0,1,0,14.46,4.09l138.81-491A7.52,7.52,0,0,0,148.37.29Z"/><path d="M275.46,7.29a7.51,7.51,0,0,0-15,.46l.88,28.75H250.69l.88-28.75a7.51,7.51,0,0,0-15-.46l-1.12,36.5a7.51,7.51,0,0,0,7.51,7.75h26.13a7.51,7.51,0,0,0,7.51-7.75Z"/><path d="M277.16,62.66a7.51,7.51,0,0,0-7.51-7.28H242.35a7.51,7.51,0,0,0-7.51,7.28l-2,64.09a7.51,7.51,0,0,0,7.51,7.75h31.24a7.51,7.51,0,0,0,7.51-7.75Zm-29,56.8,1.51-49.06h12.72l1.51,49.06Z"/><path d="M279.87,150.84a7.51,7.51,0,0,0-7.51-7.28H239.64a7.51,7.51,0,0,0-7.51,7.28L229.87,224a7.51,7.51,0,0,0,7.51,7.75h37.23a7.51,7.51,0,0,0,7.51-7.75ZM245.13,216.7l1.79-58.11h18.15l1.79,58.11Z"/><path d="M283.17,258a7.51,7.51,0,0,0-7.51-7.28H236.34a7.51,7.51,0,0,0-7.51,7.28l-2.74,89.24A7.52,7.52,0,0,0,233.6,355H278.4a7.51,7.51,0,0,0,7.51-7.75Zm-41.83,82,2.28-74.21h24.74l2.28,74.21Z"/><path d="M287.24,390.23a7.52,7.52,0,0,0-7.51-7.28H232.27a7.51,7.51,0,0,0-7.51,7.28l-3.33,108a7.51,7.51,0,0,0,15,.46L239.56,398h32.88l3.1,100.74A7.51,7.51,0,0,0,283,506h.23a7.51,7.51,0,0,0,7.28-7.74Z"/></g></g></svg>