<svg width="247" height="92" viewBox="0 0 247 92" fill="none" xmlns="http://www.w3.org/2000/svg">
<path d="M81.2563 56.9258C88.6016 57.0577 92.3726 57.1237 92.5694 57.1237C93.8482 57.1237 94.4877 57.8163 94.4877 59.2014C94.4877 60.3227 94.2253 61.5925 93.7007 63.0106C93.4055 63.8351 92.4382 64.3463 90.7986 64.5442C89.159 64.7091 85.0765 65.0059 78.5509 65.4346C76.5179 72.1296 75.4358 77.5713 75.3046 81.7597C75.2718 82.4853 75.1898 83.4747 75.0586 84.7279C74.9603 85.9482 74.9111 86.9211 74.9111 87.6466C74.9111 88.3392 74.4192 88.9823 73.4355 89.576C72.4845 90.1696 71.4188 90.4664 70.2383 90.4664L50.6617 90.7633C47.2186 90.7633 45.497 89.3451 45.497 86.5088C45.497 81.5618 47.5957 75.1143 51.793 67.1661C38.9715 67.9246 30.167 68.3039 25.3794 68.3039C20.6246 68.3039 17.5914 68.04 16.2797 67.5124C14.9681 66.9517 13.4269 65.7974 11.6561 64.0495C9.88537 62.3015 9 60.8339 9 59.6466C9 59.2839 9.22954 58.8057 9.68862 58.212C10.1477 57.5854 11.4758 55.9694 13.6728 53.364C15.9026 50.7256 17.9521 48.1861 19.8212 45.7456C21.7231 43.2721 23.8054 40.3698 26.068 37.0389C30.9212 29.8163 34.3971 22.1484 36.4957 14.0353C37.0204 12.0565 37.7418 10.6879 38.66 9.92933C39.6109 9.17079 41.021 8.79152 42.8901 8.79152L70.0415 8C72.4025 8 73.583 8.85748 73.583 10.5724C73.583 11.364 73.3207 12.3369 72.796 13.4912C72.5665 13.9859 69.1562 17.4653 62.5651 23.9293C43.1196 42.9258 33.3969 53.1661 33.3969 54.6502C33.3969 56.1013 39.7749 56.8269 52.5308 56.8269C54.236 56.8269 55.9248 56.8269 57.5971 56.8269C58.253 55.7055 59.1383 54.2214 60.2532 52.3746C61.3682 50.5277 62.2371 49.0766 62.8602 48.0212C63.4832 46.9658 64.1554 45.7951 64.8769 44.5088C66.2541 42.0353 67.0739 40.2214 67.3362 39.0671C67.8281 36.8575 69.2381 35.7526 71.5663 35.7526L79.4855 35.8516C81.6825 35.8516 83.2237 36.2968 84.1091 37.1873C84.9945 38.0448 85.4372 39.5948 85.4372 41.8375C85.4372 44.0471 84.0435 49.0766 81.2563 56.9258Z" fill="#F2F2F2"/>
<path d="M125.196 24.6219C127.262 24.6219 128.295 25.2815 128.295 26.6007C128.295 27.4912 127.361 29.0247 125.491 31.2014C121.753 35.6207 118.851 41.4087 116.785 48.5654C114.752 55.689 113.736 62.9611 113.736 70.3816C113.736 79.9128 116.228 84.6784 121.212 84.6784C124.688 84.6784 128.033 82.2379 131.246 77.3569C134.46 72.4429 137.034 65.9293 138.969 57.8163C140.936 49.7032 141.92 41.2108 141.92 32.3392C141.92 27.6231 140.789 24.0448 138.526 21.6042C136.296 19.1637 133.607 17.9435 130.459 17.9435C128.721 17.9435 126.246 18.3227 123.032 19.0813C119.851 19.8398 118.064 20.2191 117.671 20.2191C116.162 20.2191 115.408 19.5595 115.408 18.2403C115.408 17.3498 116.047 16.3604 117.326 15.2721C118.638 14.1508 120.36 13.0954 122.491 12.106C127.574 9.69847 133.001 8.4947 138.772 8.4947C144.576 8.4947 149.347 9.30271 153.086 10.9187C156.824 12.5347 159.873 14.7774 162.234 17.6466C167.12 23.4841 169.563 30.8551 169.563 39.7597C169.563 45.96 168.711 51.8304 167.006 57.371C165.333 62.8787 163.005 67.7267 160.021 71.9152C157.037 76.0707 153.577 79.682 149.642 82.7491C141.609 88.9164 132.509 92 122.343 92C111.916 92 103.915 89.2792 98.34 83.8375C92.8966 78.5607 90.1749 71.4865 90.1749 62.6148C90.1749 56.8763 91.0767 51.616 92.8802 46.8339C94.6838 42.0518 97.1431 38.0448 100.258 34.8127C103.406 31.5807 107.112 29.0742 111.375 27.2933C115.67 25.5124 120.278 24.6219 125.196 24.6219Z" fill="#F2F2F2"/>
<path d="M233.769 56.9258C241.114 57.0577 244.885 57.1237 245.082 57.1237C246.361 57.1237 247 57.8163 247 59.2014C247 60.3227 246.738 61.5925 246.213 63.0106C245.918 63.8351 244.951 64.3463 243.311 64.5442C241.671 64.7091 237.589 65.0059 231.063 65.4346C229.03 72.1296 227.948 77.5713 227.817 81.7597C227.784 82.4853 227.702 83.4747 227.571 84.7279C227.473 85.9482 227.423 86.9211 227.423 87.6466C227.423 88.3392 226.932 88.9823 225.948 89.576C224.997 90.1696 223.931 90.4664 222.751 90.4664L203.174 90.7633C199.731 90.7633 198.009 89.3451 198.009 86.5088C198.009 81.5618 200.108 75.1143 204.305 67.1661C191.484 67.9246 182.679 68.3039 177.892 68.3039C173.137 68.3039 170.104 68.04 168.792 67.5124C167.48 66.9517 165.939 65.7974 164.168 64.0495C162.398 62.3015 161.512 60.8339 161.512 59.6466C161.512 59.2839 161.742 58.8057 162.201 58.212C162.66 57.5854 163.988 55.9694 166.185 53.364C168.415 50.7256 170.464 48.1861 172.334 45.7456C174.235 43.2721 176.318 40.3698 178.58 37.0389C183.434 29.8163 186.909 22.1484 189.008 14.0353C189.533 12.0565 190.254 10.6879 191.172 9.92933C192.123 9.17079 193.533 8.79152 195.402 8.79152L222.554 8C224.915 8 226.095 8.85748 226.095 10.5724C226.095 11.364 225.833 12.3369 225.308 13.4912C225.079 13.9859 221.669 17.4653 215.077 23.9293C195.632 42.9258 185.909 53.1661 185.909 54.6502C185.909 56.1013 192.287 56.8269 205.043 56.8269C206.748 56.8269 208.437 56.8269 210.109 56.8269C210.765 55.7055 211.651 54.2214 212.766 52.3746C213.881 50.5277 214.749 49.0766 215.373 48.0212C215.996 46.9658 216.668 45.7951 217.389 44.5088C218.766 42.0353 219.586 40.2214 219.849 39.0671C220.34 36.8575 221.75 35.7526 224.079 35.7526L231.998 35.8516C234.195 35.8516 235.736 36.2968 236.621 37.1873C237.507 38.0448 237.95 39.5948 237.95 41.8375C237.95 44.0471 236.556 49.0766 233.769 56.9258Z" fill="#F2F2F2"/>
<path d="M72.2563 48.9258C79.6016 49.0577 83.3726 49.1237 83.5694 49.1237C84.8482 49.1237 85.4877 49.8163 85.4877 51.2014C85.4877 52.3227 85.2253 53.5925 84.7007 55.0106C84.4055 55.8351 83.4382 56.3463 81.7986 56.5442C80.159 56.7091 76.0765 57.0059 69.5509 57.4346C67.5179 64.1296 66.4358 69.5713 66.3046 73.7597C66.2718 74.4853 66.1898 75.4747 66.0586 76.7279C65.9603 77.9482 65.9111 78.9211 65.9111 79.6466C65.9111 80.3392 65.4192 80.9823 64.4355 81.576C63.4845 82.1696 62.4188 82.4664 61.2383 82.4664L41.6617 82.7633C38.2186 82.7633 36.497 81.3451 36.497 78.5088C36.497 73.5618 38.5957 67.1143 42.793 59.1661C29.9715 59.9246 21.167 60.3039 16.3794 60.3039C11.6246 60.3039 8.5914 60.04 7.27973 59.5124C5.96807 58.9517 4.42686 57.7974 2.65612 56.0495C0.885373 54.3015 0 52.8339 0 51.6466C0 51.2839 0.229541 50.8057 0.688623 50.212C1.14771 49.5854 2.47576 47.9694 4.6728 45.364C6.90263 42.7256 8.9521 40.1861 10.8212 37.7456C12.7231 35.2721 14.8054 32.3698 17.068 29.0389C21.9212 21.8163 25.3971 14.1484 27.4957 6.03534C28.0204 4.05654 28.7418 2.68787 29.66 1.92933C30.6109 1.17079 32.021 0.791519 33.8901 0.791519L61.0415 0C63.4025 0 64.583 0.857479 64.583 2.57244C64.583 3.36396 64.3207 4.33687 63.796 5.49117C63.5665 5.98587 60.1562 9.46525 53.5651 15.9293C34.1196 34.9258 24.3969 45.1661 24.3969 46.6502C24.3969 48.1013 30.7749 48.8269 43.5308 48.8269C45.236 48.8269 46.9248 48.8269 48.5971 48.8269C49.253 47.7055 50.1383 46.2214 51.2532 44.3746C52.3682 42.5277 53.2371 41.0766 53.8602 40.0212C54.4832 38.9658 55.1554 37.7951 55.8769 36.5088C57.2541 34.0353 58.0739 32.2214 58.3362 31.0671C58.8281 28.8575 60.2381 27.7526 62.5663 27.7526L70.4855 27.8516C72.6825 27.8516 74.2237 28.2968 75.1091 29.1873C75.9945 30.0448 76.4372 31.5948 76.4372 33.8375C76.4372 36.0471 75.0435 41.0766 72.2563 48.9258Z" fill="#F55F00"/>
<path d="M116.196 16.6219C118.262 16.6219 119.295 17.2815 119.295 18.6007C119.295 19.4912 118.361 21.0247 116.491 23.2014C112.753 27.6207 109.851 33.4087 107.785 40.5654C105.752 47.689 104.736 54.9611 104.736 62.3816C104.736 71.9128 107.228 76.6784 112.212 76.6784C115.688 76.6784 119.033 74.2379 122.246 69.3569C125.46 64.4429 128.034 57.9293 129.969 49.8163C131.936 41.7032 132.92 33.2108 132.92 24.3392C132.92 19.6231 131.789 16.0448 129.526 13.6042C127.296 11.1637 124.607 9.94346 121.459 9.94346C119.721 9.94346 117.246 10.3227 114.032 11.0813C110.851 11.8398 109.064 12.2191 108.671 12.2191C107.162 12.2191 106.408 11.5595 106.408 10.2403C106.408 9.34982 107.047 8.36042 108.326 7.27208C109.638 6.15077 111.36 5.09541 113.491 4.10601C118.574 1.69847 124.001 0.4947 129.772 0.4947C135.576 0.4947 140.347 1.30271 144.086 2.91873C147.824 4.53475 150.873 6.77738 153.234 9.64664C158.12 15.4841 160.563 22.8551 160.563 31.7597C160.563 37.96 159.711 43.8304 158.006 49.371C156.333 54.8787 154.005 59.7267 151.021 63.9152C148.037 68.0707 144.577 71.682 140.642 74.7491C132.609 80.9164 123.509 84 113.343 84C102.916 84 94.9146 81.2792 89.34 75.8375C83.8966 70.5607 81.1749 63.4865 81.1749 54.6148C81.1749 48.8763 82.0767 43.616 83.8802 38.8339C85.6838 34.0518 88.1431 30.0448 91.2583 26.8127C94.4063 23.5807 98.1118 21.0742 102.375 19.2933C106.67 17.5124 111.278 16.6219 116.196 16.6219Z" fill="#F55F00"/>
<path d="M224.769 48.9258C232.114 49.0577 235.885 49.1237 236.082 49.1237C237.361 49.1237 238 49.8163 238 51.2014C238 52.3227 237.738 53.5925 237.213 55.0106C236.918 55.8351 235.951 56.3463 234.311 56.5442C232.671 56.7091 228.589 57.0059 222.063 57.4346C220.03 64.1296 218.948 69.5713 218.817 73.7597C218.784 74.4853 218.702 75.4747 218.571 76.7279C218.473 77.9482 218.423 78.9211 218.423 79.6466C218.423 80.3392 217.932 80.9823 216.948 81.576C215.997 82.1696 214.931 82.4664 213.751 82.4664L194.174 82.7633C190.731 82.7633 189.009 81.3451 189.009 78.5088C189.009 73.5618 191.108 67.1143 195.305 59.1661C182.484 59.9246 173.679 60.3039 168.892 60.3039C164.137 60.3039 161.104 60.04 159.792 59.5124C158.48 58.9517 156.939 57.7974 155.168 56.0495C153.398 54.3015 152.512 52.8339 152.512 51.6466C152.512 51.2839 152.742 50.8057 153.201 50.212C153.66 49.5854 154.988 47.9694 157.185 45.364C159.415 42.7256 161.464 40.1861 163.334 37.7456C165.235 35.2721 167.318 32.3698 169.58 29.0389C174.434 21.8163 177.909 14.1484 180.008 6.03534C180.533 4.05654 181.254 2.68787 182.172 1.92933C183.123 1.17079 184.533 0.791519 186.402 0.791519L213.554 0C215.915 0 217.095 0.857479 217.095 2.57244C217.095 3.36396 216.833 4.33687 216.308 5.49117C216.079 5.98587 212.669 9.46525 206.077 15.9293C186.632 34.9258 176.909 45.1661 176.909 46.6502C176.909 48.1013 183.287 48.8269 196.043 48.8269C197.748 48.8269 199.437 48.8269 201.109 48.8269C201.765 47.7055 202.651 46.2214 203.766 44.3746C204.881 42.5277 205.749 41.0766 206.373 40.0212C206.996 38.9658 207.668 37.7951 208.389 36.5088C209.766 34.0353 210.586 32.2214 210.849 31.0671C211.34 28.8575 212.75 27.7526 215.079 27.7526L222.998 27.8516C225.195 27.8516 226.736 28.2968 227.621 29.1873C228.507 30.0448 228.95 31.5948 228.95 33.8375C228.95 36.0471 227.556 41.0766 224.769 48.9258Z" fill="#F55F00"/>
</svg>
