<svg width="29" height="27" viewBox="0 0 29 27" fill="none" xmlns="http://www.w3.org/2000/svg">
<path d="M12.8696 12.4849H19.74V24.5745H12.8696V12.4849Z" fill="#FF5F00"/>
<path d="M13.3175 18.5297C13.3175 16.0778 14.4875 13.8929 16.3047 12.4849C14.9853 11.4653 13.2926 10.8341 11.4755 10.8341C7.14415 10.8341 3.63428 14.2814 3.63428 18.5297C3.63428 22.7781 7.14415 26.2253 11.4755 26.2253C13.3175 26.2253 14.9853 25.5941 16.3047 24.5745C14.4875 23.1665 13.3175 20.9816 13.3175 18.5297Z" fill="#EB001B"/>
<path d="M29 18.5297C29 22.7781 25.4901 26.2253 21.1588 26.2253C19.3167 26.2253 17.6489 25.5941 16.3296 24.5745C18.1467 23.1665 19.3167 20.9816 19.3167 18.5297C19.3167 16.0778 18.1467 13.8929 16.3047 12.4849C17.6489 11.4653 19.3416 10.8341 21.1588 10.8341C25.4901 10.8341 29 14.2814 29 18.5297Z" fill="#F79E1B"/>
<path d="M14.3133 0.371L12.3717 9.18332H10.0318L11.9983 0.371H14.3133ZM24.1708 6.05167L25.3906 2.75009L26.0876 6.07595H24.1708V6.05167ZM26.7845 9.18332H28.9502L27.0584 0.371H25.067C24.6189 0.371 24.2455 0.613764 24.0712 1.02646L20.5614 9.18332H23.0257L23.4987 7.8724H26.4858L26.7845 9.18332ZM20.6858 6.29444C20.7107 3.9639 17.3751 3.84252 17.4 2.79864C17.4 2.48305 17.6987 2.14318 18.3957 2.07035C18.7442 2.02179 19.6652 1.99752 20.7107 2.45877L21.109 0.613764C20.5365 0.395276 19.8146 0.225342 18.9185 0.225342C16.6034 0.225342 14.9854 1.41488 14.9605 3.13851C14.9356 4.40088 16.1305 5.12917 17.0017 5.54187C17.8979 5.97884 18.2215 6.27016 18.2215 6.63431C18.2215 7.24121 17.4747 7.48398 16.8275 7.50826C15.6575 7.53253 14.9605 7.19266 14.4129 6.9499L13.9897 8.89201C14.5373 9.13477 15.533 9.35326 16.5785 9.35326C19.0678 9.32898 20.6609 8.13944 20.6858 6.29444ZM11.0026 0.371L7.19399 9.18332H4.72961L2.83777 2.14318C2.7382 1.7062 2.63863 1.56054 2.31502 1.36633C1.74249 1.07501 0.821459 0.783698 0 0.613764L0.0497854 0.371H4.03262C4.55536 0.371 4.97854 0.710869 5.103 1.26923L6.09871 6.36727L8.5382 0.371H11.0026Z" fill="#2A2A6C"/>
</svg>
