<svg width="64" height="64" viewBox="0 0 64 64" fill="none" xmlns="http://www.w3.org/2000/svg">
<path d="M32.0411 63.3806C49.2675 63.3806 63.2322 49.4159 63.2322 32.1896C63.2322 14.9632 49.2675 0.998535 32.0411 0.998535C14.8148 0.998535 0.850098 14.9632 0.850098 32.1896C0.850098 49.4159 14.8148 63.3806 32.0411 63.3806Z" fill="#FFC61B"/>
<path d="M52.379 26.3784L50.4045 25.369L50.842 25.01L38.5915 12.7595V20.4273L42.5132 24.7001L37.1878 30.0255L12.1597 27.5359L25.9186 41.2948L24.2027 43.0107L42.702 61.51C53.2617 57.6693 61.1598 48.2871 62.8802 36.8796L52.379 26.3784Z" fill="#D48B07"/>
<path d="M37.2397 36.6025H26.8428V46.9995H37.2397V36.6025Z" fill="#FCD088"/>
<path d="M31.8664 36.6025H26.8428V46.9995H31.8664V36.6025Z" fill="#FCD088"/>
<path d="M37.2412 36.6025H31.8677V46.9995H37.2412V36.6025Z" fill="#DDAB62"/>
<path d="M25.1514 43.8197L19.6418 44.9216C16.8365 45.4828 14.8174 47.9458 14.8174 50.8065V58.0936C19.7436 61.3914 25.6672 63.3158 32.0407 63.3158C38.4141 63.3158 44.3377 61.3914 49.264 58.0936V50.8065C49.264 47.9457 47.2449 45.4825 44.4396 44.9216L38.93 43.8197L37.9563 42.3983C37.774 42.1322 37.4291 42.0319 37.1327 42.1589L36.0107 42.6422C33.4772 43.7338 30.6053 43.7311 28.0739 42.635L26.9792 42.1609C26.685 42.0326 26.3409 42.129 26.1563 42.3916L25.1514 43.8197Z" fill="#3A3A3A"/>
<path d="M44.4401 44.9218L38.9305 43.8199L37.9567 42.3985C37.7745 42.1324 37.4295 42.0322 37.1332 42.1591L36.0112 42.6424C34.6894 43.2118 33.2759 43.4805 31.8662 43.4546V63.3127C31.9248 63.3131 31.9826 63.3161 32.0412 63.3161C38.4146 63.3161 44.3382 61.3918 49.2645 58.094V50.8067C49.2645 47.9458 47.2452 45.4828 44.4401 44.9218Z" fill="#282828"/>
<path d="M42.8397 28.6036C42.8939 28.1028 42.9221 27.6093 42.9221 27.1279C42.9221 20.76 38.0504 15.5979 32.0411 15.5979C26.0319 15.5979 21.1602 20.76 21.1602 27.1279C21.1602 27.6093 21.1886 28.1028 21.2426 28.6036C20.1871 28.8779 19.685 30.5015 20.1212 32.2392C20.5587 33.9823 21.7744 35.1793 22.8367 34.9126C22.9336 34.8882 23.0239 34.8491 23.111 34.8032C25.0771 38.7498 28.3435 41.9519 32.0411 41.9519C35.7387 41.9519 39.005 38.7501 40.9713 34.8032C41.0584 34.8492 41.1489 34.8882 41.2455 34.9126C42.3077 35.1792 43.5236 33.9823 43.9611 32.2392C44.3974 30.5015 43.8952 28.8776 42.8397 28.6036Z" fill="#FFEDB5"/>
<path d="M42.8397 28.6036C42.8939 28.1028 42.9221 27.6093 42.9221 27.1279C42.9221 20.76 38.0504 15.5979 32.0412 15.5979C31.9826 15.5979 31.9246 15.6017 31.8662 15.6025V41.9471C31.9246 41.9488 31.9826 41.9518 32.0412 41.9518C35.7388 41.9518 39.0051 38.7499 40.9713 34.8031C41.0584 34.8491 41.149 34.8881 41.2456 34.9125C42.3078 35.179 43.5236 33.9822 43.9611 32.239C44.3975 30.5015 43.8952 28.8776 42.8397 28.6036Z" fill="#E8CF89"/>
<path d="M46.1032 44.874L40.8913 44.2075L32.0411 60.8774L23.1692 44.2142L17.9789 44.874C14.7974 45.4383 12.5073 47.9164 12.5073 50.7946V56.5045C17.8534 60.8052 24.646 63.3805 32.0411 63.3805C39.4362 63.3805 46.2287 60.8052 51.5748 56.5048V50.7949C51.5748 47.9167 49.2847 45.4386 46.1032 44.874Z" fill="#777777"/>
<path d="M46.1033 44.874L40.8914 44.2075L32.0412 60.8774L31.8662 60.5489V63.3786C31.9246 63.3788 31.9828 63.3805 32.0412 63.3805C39.4363 63.3805 46.2288 60.8052 51.5749 56.5048V50.7949C51.5749 47.9167 49.2848 45.4386 46.1033 44.874Z" fill="#666666"/>
<path d="M21.2458 28.6037C22.8703 29.401 22.9771 32.535 22.9771 32.535C22.9771 32.535 24.8585 26.0774 24.1467 23.7387C23.4349 21.4 25.333 21.2394 25.333 21.2394C27.7155 22.0235 29.9907 22.286 31.9705 22.2888V14.7402C20.7995 14.7947 19.6247 27.8078 21.2458 28.6037Z" fill="#3A3A3A"/>
<path d="M32.0411 14.7388C32.0174 14.7388 31.9947 14.74 31.9712 14.74V22.2886C35.9633 22.2943 38.7485 21.2392 38.7485 21.2392C38.7485 21.2392 40.6467 21.3994 39.9349 23.7385C39.2231 26.0774 41.1044 32.5347 41.1044 32.5347C41.1044 32.5347 41.2112 29.4009 42.8358 28.6034C44.4604 27.806 43.2781 14.7388 32.0411 14.7388Z" fill="#333333"/>
<path d="M37.2403 39.7866C37.2403 39.7866 33.8326 50.0953 31.2046 63.3694C31.4826 63.3767 31.7614 63.3807 32.0411 63.3807C33.0731 63.3807 34.0931 63.3293 35.0993 63.2313L42.6307 51.7234L40.3029 47.8728L44.8187 45.7724C44.8187 45.7724 41.2392 40.1975 37.2403 39.7866Z" fill="#383838"/>
<path d="M26.8415 39.7866C22.8426 40.1975 19.2632 45.7724 19.2632 45.7724L23.7791 47.8728L21.4509 51.7234L28.9824 63.2313C29.9886 63.3292 31.0084 63.3807 32.0405 63.3807C32.3203 63.3807 32.5991 63.3767 32.8771 63.3694C30.249 50.0953 26.8415 39.7866 26.8415 39.7866Z" fill="#4F4F4F"/>
<path d="M20.8042 23.6974C20.8042 23.6974 23.0065 7.66033 32.0414 12.065C41.0763 7.66045 43.2786 23.6974 43.2786 23.6974" fill="#777777"/>
<path d="M32.0412 12.0649C31.9822 12.0362 31.9246 12.0118 31.8662 11.9849V23.6974H43.2784C43.2784 23.6975 41.0761 7.66041 32.0412 12.0649Z" fill="#666666"/>
<path d="M32.042 20.9175C20.8092 20.9175 11.7031 23.3626 11.7031 26.3786C11.7031 28.1813 14.9569 29.7798 19.9726 30.7743C20.0295 29.6677 20.4972 28.7976 21.2434 28.6038C21.1892 28.103 21.1611 27.6094 21.1611 27.128C21.1611 26.8474 21.1739 26.5704 21.1924 26.2948C23.5656 24.7813 27.5388 23.7882 32.042 23.7882C36.5452 23.7882 40.5184 24.781 42.8916 26.2948C42.9101 26.5704 42.9229 26.8474 42.9229 27.128C42.9229 27.6094 42.8945 28.103 42.8406 28.6038C43.5868 28.7978 44.0546 29.6677 44.1113 30.7743C49.1271 29.7798 52.3809 28.1813 52.3809 26.3786C52.3809 23.3626 43.2748 20.9175 32.042 20.9175Z" fill="#4F4F4F"/>
<path d="M32.0412 20.9175C31.9826 20.9175 31.9246 20.9178 31.8662 20.9181V23.7903C31.9248 23.79 31.9823 23.788 32.0412 23.788C36.5445 23.788 40.5176 24.7809 42.8908 26.2946C42.9093 26.5702 42.9221 26.8473 42.9221 27.1279C42.9221 27.6093 42.8937 28.1029 42.8397 28.6036C43.586 28.7977 44.0537 29.6675 44.1105 30.7742C49.1263 29.7796 52.38 28.1812 52.38 26.3785C52.38 23.3626 43.274 20.9175 32.0412 20.9175Z" fill="#383838"/>
</svg>
