<svg width="75" height="68" viewBox="0 0 75 68" fill="none" xmlns="http://www.w3.org/2000/svg">
<path d="M42.4028 11.6328V6.6775C42.4028 3.94092 40.1841 1.72217 37.4475 1.72217C34.7109 1.72217 32.4922 3.94092 32.4922 6.6775V11.722" stroke="#DC9628" stroke-width="2" stroke-miterlimit="10" stroke-linecap="round" stroke-linejoin="round"/>
<path d="M20.7123 59.4985C33.9691 61.7866 41.3488 61.7866 54.6068 59.4985L66.3633 57.4693C60.5594 51.7001 57.2988 44.5669 57.2988 36.4091V25.2596C57.3459 17.7684 52.3967 12.2792 47.455 10.0208C41.2621 7.19003 34.0571 7.17888 27.874 10.0307C22.9769 12.2891 17.6735 17.7746 17.6264 25.2596V36.4091C17.6264 44.5669 14.7585 51.7001 8.95459 57.4693L20.7123 59.4985Z" fill="#EEAF4B"/>
<path d="M23.8204 28.9658C23.8179 28.9658 23.8154 28.9658 23.813 28.9658C23.1291 28.9609 22.5778 28.4034 22.5816 27.7196C22.6187 21.9193 27.2297 18.2512 29.9501 16.9987C34.7184 14.7998 40.5967 14.8035 45.3971 16.9962C46.019 17.2799 46.2928 18.0145 46.0091 18.6377C45.7254 19.2596 44.9908 19.5346 44.3664 19.2484C40.2114 17.3493 35.1136 17.3443 30.9883 19.2484C28.7993 20.2568 25.089 23.1792 25.0605 27.7344C25.0555 28.4158 24.5005 28.9658 23.8204 28.9658Z" fill="#FBD490"/>
<path d="M27.4199 60.5174C29.2088 64.5659 33.121 67.3805 37.6737 67.3805C42.2277 67.3805 46.1399 64.5647 47.9288 60.5137C40.585 61.4453 34.7588 61.4465 27.4199 60.5174Z" fill="#DC9628"/>
<path d="M5.35573 46.2793C5.03859 46.2793 4.72145 46.1579 4.47988 45.9164C1.77303 43.2095 0.282715 39.6058 0.282715 35.7691C0.282715 31.9312 1.77303 28.3287 4.47988 25.6231C4.96426 25.1387 5.74721 25.1387 6.23159 25.6231C6.71597 26.1074 6.71597 26.8904 6.23159 27.3748C3.99302 29.6133 2.76038 32.594 2.76038 35.7691C2.76038 38.9442 3.99302 41.9249 6.23159 44.1634C6.71597 44.6478 6.71597 45.4307 6.23159 45.9151C5.98878 46.1579 5.67288 46.2793 5.35573 46.2793Z" fill="#F2ECBF"/>
<path d="M10.5706 43.4586C10.2534 43.4586 9.9363 43.3372 9.69473 43.0957C5.56074 38.9617 5.56074 32.2336 9.69473 28.1008C10.1791 27.6165 10.9621 27.6165 11.4464 28.1008C11.9308 28.5852 11.9308 29.3682 11.4464 29.8525C8.2775 33.0215 8.2775 38.1763 11.4464 41.344C11.9308 41.8283 11.9308 42.6113 11.4464 43.0957C11.2049 43.3385 10.8877 43.4586 10.5706 43.4586Z" fill="#F2ECBF"/>
<path d="M69.5404 46.2793C69.2233 46.2793 68.9061 46.1579 68.6646 45.9164C68.1802 45.432 68.1802 44.649 68.6646 44.1647C70.9031 41.9249 72.1358 38.9442 72.1358 35.7691C72.1358 32.594 70.9031 29.6121 68.6646 27.3748C68.1802 26.8904 68.1802 26.1074 68.6646 25.6231C69.1489 25.1387 69.9319 25.1387 70.4163 25.6231C73.1231 28.3299 74.6134 31.9324 74.6134 35.7691C74.6134 39.6058 73.1231 43.2095 70.4163 45.9151C70.1747 46.1579 69.8575 46.2793 69.5404 46.2793Z" fill="#F2ECBF"/>
<path d="M64.3251 43.4586C64.0079 43.4586 63.6908 43.3372 63.4492 43.0957C62.9648 42.6113 62.9648 41.8283 63.4492 41.344C66.6182 38.175 66.6182 33.0202 63.4492 29.8525C62.9648 29.3682 62.9648 28.5852 63.4492 28.1008C63.9336 27.6165 64.7166 27.6165 65.2009 28.1008C69.3349 32.2348 69.3349 38.9629 65.2009 43.0957C64.9594 43.3385 64.6422 43.4586 64.3251 43.4586Z" fill="#F2ECBF"/>
</svg>
