<?xml version="1.0" encoding="utf-8"?><svg xmlns="http://www.w3.org/2000/svg" xmlns:xlink="http://www.w3.org/1999/xlink"><symbol viewBox="0 0 1000 1000" id="arrow" xmlns="http://www.w3.org/2000/svg"><path d="M767.4 978.2c-16.8 15.8-44 15.8-60.7 0L232.6 533.6c-16.8-15.6-16.8-41.2 0-56.8 16.8-15.7 43.9-15.7 60.7 0l474.2 444.6c16.7 15.6 16.7 41-.1 56.8zm0-899.6L293.2 523.2c-16.7 15.8-43.8 15.8-60.6 0-16.8-15.6-16.8-41.2 0-56.8L706.7 21.9c16.8-15.8 44-15.8 60.7 0 16.8 15.6 16.8 41.1 0 56.7z"/></symbol><symbol viewBox="0 0 512 473.77" id="basket" xmlns="http://www.w3.org/2000/svg"><defs><style>.bcls-1{fill:#fff}</style></defs><g id="bСлой_2" data-name="Слой 2"><g id="bLayer_1" data-name="Layer 1"><path class="bcls-1" d="M214.69 383.71a45 45 0 1 0 45 45 45.08 45.08 0 0 0-45-45zm0 64.91a19.89 19.89 0 1 1 19.89-19.89 19.91 19.91 0 0 1-19.89 19.9zm157.94-64.91a45 45 0 1 0 45 45 45.08 45.08 0 0 0-45-45zm0 64.91a19.89 19.89 0 1 1 19.89-19.89 19.91 19.91 0 0 1-19.89 19.9zm11.09-301.98H203.57a12.57 12.57 0 0 0 0 25.14h180.15a12.57 12.57 0 1 0 0-25.14zm-9.81 65.28H213.37a12.57 12.57 0 1 0 0 25.14h160.54a12.57 12.57 0 0 0 0-25.14z"/><path class="bcls-1" d="M506.34 90.63a25 25 0 0 0-19.49-9.26H95.28L87.37 43a25.17 25.17 0 0 0-14.61-18L17.58 1a12.57 12.57 0 0 0-10 23.06l55.18 24 60.83 295.26a25.24 25.24 0 0 0 24.63 20.07h301.14a12.57 12.57 0 0 0 0-25.14H148.2l-7.4-35.92h310.89a25.24 25.24 0 0 0 24.62-20.07l35.16-170.68a25 25 0 0 0-5.13-20.95zm-54.65 186.56H135.62l-35.16-170.68h386.39z"/></g></g></symbol><symbol viewBox="0 0 512 512" id="clock" xmlns="http://www.w3.org/2000/svg"><defs><style>.ccls-1{fill:#fff}</style></defs><g id="cСлой_2" data-name="Слой 2"><g id="cCapa_1" data-name="Capa 1"><path class="ccls-1" d="M256 0C114.84 0 0 114.84 0 256s114.84 256 256 256 256-114.84 256-256S397.16 0 256 0zm0 494.93C124.25 494.93 17.07 387.75 17.07 256S124.25 17.07 256 17.07 494.93 124.25 494.93 256 387.75 494.93 256 494.93z"/><path class="ccls-1" d="M264.53 222v-86.5a8.53 8.53 0 1 0-17.07 0V222a34.09 34.09 0 0 0-24.39 24.39h-60.94a8.53 8.53 0 0 0 0 17.07h60.95A34.06 34.06 0 1 0 264.53 222zM256 272a17.07 17.07 0 1 1 17.07-17A17.08 17.08 0 0 1 256 272zm0-187.7a8.53 8.53 0 0 0 8.53-8.53v-8.54a8.53 8.53 0 1 0-17.07 0v8.53A8.53 8.53 0 0 0 256 84.3zm0 341.33a8.53 8.53 0 0 0-8.53 8.53v8.53a8.53 8.53 0 1 0 17.07 0v-8.53a8.53 8.53 0 0 0-8.54-8.53zm187.73-179.2h-8.53a8.53 8.53 0 1 0 0 17.07h8.53a8.53 8.53 0 0 0 0-17.07zm-366.93 0h-8.53a8.53 8.53 0 0 0 0 17.07h8.53a8.53 8.53 0 0 0 0-17.07zm305.91-130.25l-6 6a8.53 8.53 0 1 0 12.07 12.07l6-6a8.53 8.53 0 0 0-12.07-12.07zM123.26 375.65l-6 6a8.53 8.53 0 1 0 12.07 12.07l6-6a8.53 8.53 0 1 0-12.07-12.07zm265.48 0a8.53 8.53 0 0 0-12.07 12.07l6 6a8.53 8.53 0 0 0 12.07-12.07zM129.29 116.18a8.53 8.53 0 0 0-12.07 12.07l6 6a8.53 8.53 0 1 0 12.07-12.07z"/></g></g></symbol><symbol viewBox="0 0 512 389.64" id="envelope" xmlns="http://www.w3.org/2000/svg"><defs><style>.dcls-1{fill:#fff}</style></defs><g id="dСлой_2" data-name="Слой 2"><g id="dCapa_1" data-name="Capa 1"><path class="dcls-1" d="M449.5 0H62.61A62.66 62.66 0 0 0 0 62.61V327a62.66 62.66 0 0 0 62.61 62.61h386.78A62.66 62.66 0 0 0 512 327V62.72A62.6 62.6 0 0 0 449.5 0zm34 327a34 34 0 0 1-34 34H62.61a34 34 0 0 1-34-34V62.72a34 34 0 0 1 34-34h386.78a34 34 0 0 1 34 34V327z"/><path class="dcls-1" d="M322.9 191.54l125.22-112.3a14.33 14.33 0 1 0-19.17-21.29l-172.68 155-33.69-30.09c-.11-.11-.21-.21-.21-.32a21.18 21.18 0 0 0-2.33-2L82.95 57.84a14.33 14.33 0 0 0-19.07 21.4l126.7 113.25L64.41 310.61a14.36 14.36 0 0 0-.64 20.23 14.63 14.63 0 0 0 10.49 4.56 14.33 14.33 0 0 0 9.74-3.81l128.09-119.82 34.75 31a14.26 14.26 0 0 0 19.07-.11l35.7-32 127.34 121a14.34 14.34 0 0 0 20.23-.53 14.36 14.36 0 0 0-.53-20.23z"/></g></g></symbol><symbol viewBox="0 0 381.84 512" id="hand" xmlns="http://www.w3.org/2000/svg"><defs><style>.ecls-1{fill:#fff}</style></defs><g id="eСлой_2" data-name="Слой 2"><g id="eCapa_1" data-name="Capa 1"><path class="ecls-1" d="M84.55 198.19v-19.82c-19.82-16.52-33-41.29-33-69.37 0-49.55 41.29-90.84 90.84-90.84S233.2 59.46 233.2 109c0 21.47-8.26 42.94-21.47 57.81 6.61 0 11.56 1.65 18.17 3.3 13.21-18.17 19.82-39.64 19.82-62.76a107.36 107.36 0 0 0-214.71 0c-.01 37.99 19.81 71.02 49.54 90.84z"/><path class="ecls-1" d="M216.68 107.35a74.32 74.32 0 0 0-148.65 0c0 18.17 6.61 34.68 16.52 46.25v-46.25c0-31.35 26.45-57.8 57.81-57.8s57.81 26.45 57.81 57.8v46.25c9.9-11.6 16.51-28.08 16.51-46.25z"/><path class="ecls-1" d="M340.55 231.23a40.57 40.57 0 0 0-24.77 8.26 40.89 40.89 0 0 0-41.29-41.29 44.85 44.85 0 0 0-28.08 9.91c-6.6-16.52-21.47-26.43-38-26.43a40.57 40.57 0 0 0-24.77 8.26v-82.59a41.29 41.29 0 0 0-82.58 0v147C68 224.62 31.7 201.5 8.58 224.62c-33 33 36.34 97.44 89.19 194.89 38 67.72 90.84 92.49 143.69 92.49a140.27 140.27 0 0 0 140.38-140.39v-99.1a40.89 40.89 0 0 0-41.29-41.28zm24.77 77.63v62.76c0 64.41-56.15 123.87-123.87 123.87-62.76 0-99.1-34.68-128.83-82.58C48.22 303.9 2 254.35 20.14 236.18S82.9 257.65 117.58 294V107.35c0-13.21 11.56-24.77 24.77-24.77s24.77 11.56 24.77 24.77v173.42h16.52V223c0-13.21 11.56-24.77 24.77-24.77S233.2 209.75 233.2 223v41.29h16.52v-24.81c0-13.21 11.56-24.77 24.77-24.77s24.77 11.56 24.77 24.77v41.29h16.52v-8.26c0-13.21 11.56-24.77 24.77-24.77s24.77 11.56 24.77 24.77v36.34z"/></g></g></symbol><symbol viewBox="0 0 511.26 512" id="i-call" xmlns="http://www.w3.org/2000/svg"><defs><style>.fcls-1{fill:#fff}</style></defs><g id="fСлой_2" data-name="Слой 2"><path class="fcls-1" d="M404.27 317.17c-10.48-10.91-23.13-16.75-36.52-16.75s-26 5.73-37 16.64l-34.15 34c-2.81-1.51-5.62-2.92-8.32-4.32-3.89-1.95-7.56-3.78-10.7-5.73-32-20.32-61.05-46.79-88.93-81-13.51-17.07-22.58-31.45-29.18-46 8.86-8.1 17.07-16.53 25.07-24.64 3-3 6.05-6.16 9.08-9.19 22.69-22.69 22.69-52.09 0-74.78l-29.5-29.5c-3.35-3.35-6.81-6.81-10-10.27-6.48-6.7-13.29-13.62-20.32-20.1-10.48-10.37-23-15.88-36.2-15.88S71.66 35.13 60.85 45.5l-.22.22-36.74 37.06A79.06 79.06 0 0 0 .44 133c-2.59 31.55 6.7 60.95 13.83 80.18 17.51 47.22 43.66 91 82.67 137.89 47.33 56.52 104.28 101.15 169.33 132.59 24.85 11.78 58 25.72 95.09 28.1 2.27.11 4.65.22 6.81.22 25 0 45.93-9 62.35-26.8.11-.22.32-.32.43-.54 5.62-6.81 12.1-13 18.91-19.56 4.65-4.43 9.4-9.08 14-13.94 10.7-11.13 16.32-24.1 16.32-37.39s-5.73-26.26-16.64-37.06zM443 431c-.11 0-.11.11 0 0-4.21 4.54-8.54 8.64-13.18 13.18a284.14 284.14 0 0 0-20.86 21.61c-10.91 11.67-23.77 17.18-40.63 17.18-1.62 0-3.35 0-5-.11-32.09-2.05-61.92-14.59-84.29-25.29-61.16-29.61-114.87-71.64-159.5-124.92-36.86-44.44-61.54-85.51-77.82-129.6-10-26.91-13.72-47.87-12.1-67.65a49.61 49.61 0 0 1 14.91-32.09l36.85-36.85c5.29-5 10.91-7.67 16.43-7.67 6.81 0 12.32 4.11 15.78 7.56l.32.32c6.59 6.16 12.86 12.54 19.45 19.34 3.35 3.46 6.81 6.92 10.27 10.48l29.5 29.5c11.45 11.45 11.45 22 0 33.5-3.13 3.13-6.16 6.27-9.29 9.29-9.08 9.29-17.72 17.94-27.12 26.37-.22.22-.43.32-.54.54-9.29 9.29-7.56 18.37-5.62 24.53l.32 1c7.67 18.59 18.48 36.09 34.9 56.95l.11.11c29.82 36.74 61.27 65.38 96 87.31a147.54 147.54 0 0 0 13.29 7.24c3.89 1.95 7.56 3.78 10.7 5.73.43.22.86.54 1.3.76a23.43 23.43 0 0 0 10.7 2.7c9 0 14.59-5.62 16.43-7.46l37-37c3.67-3.67 9.51-8.1 16.32-8.1s12.21 4.21 15.56 7.89l.22.22 59.54 59.54C454 408.15 454 419.5 443 431zM276.32 121.79A139.07 139.07 0 0 1 389.57 235a14.5 14.5 0 0 0 14.37 12.1 19.29 19.29 0 0 0 2.49-.22 14.6 14.6 0 0 0 12-16.86 168.16 168.16 0 0 0-137-137 14.66 14.66 0 0 0-16.86 11.89 14.43 14.43 0 0 0 11.75 16.88zM511 225.85A276.9 276.9 0 0 0 285.4.22 14.57 14.57 0 1 0 280.65 29a247.33 247.33 0 0 1 201.64 201.61 14.5 14.5 0 0 0 14.37 12.1 19.29 19.29 0 0 0 2.49-.22A14.32 14.32 0 0 0 511 225.85z" id="fCapa_1" data-name="Capa 1"/></g></symbol><symbol viewBox="0 0 512 449.6" id="i-compare" xmlns="http://www.w3.org/2000/svg"><defs><style>.gcls-1{fill:#fff}</style></defs><g id="gСлой_2" data-name="Слой 2"><path class="gcls-1" d="M499.9 425.41H12.1a12.1 12.1 0 0 0 0 24.19h487.8a12.1 12.1 0 0 0 0-24.19zM468.37 57.1h-84.95a12.1 12.1 0 0 0-12.1 12.1v82.24h-60.75V12.1A12.1 12.1 0 0 0 298.47 0h-84.95a12.1 12.1 0 0 0-12.1 12.1V241h-60.75V138.16a12.1 12.1 0 0 0-12.1-12.1H43.63a12.1 12.1 0 0 0-12.1 12.1v231.56a12.1 12.1 0 0 0 12.1 12.1h424.74a12.1 12.1 0 0 0 12.1-12.1V69.2a12.1 12.1 0 0 0-12.1-12.1zM116.48 357.63H55.72V150.25h60.76zm85 0h-60.81v-92.46h60.76zm84.95-194.09v194.09h-60.81V24.19h60.76zm85 194.09h-60.86v-182h60.76zm84.95 0h-60.86V81.3h60.76v276.33z" id="gLayer_1" data-name="Layer 1"/></g></symbol><symbol viewBox="0 0 180 255.8" id="i-map" xmlns="http://www.w3.org/2000/svg"><g data-name="Слой 2"><g data-name="Слой 1"><path d="M0 96.8v-16a23.69 23.69 0 0 0 .94-3.31 83.9 83.9 0 0 1 13.15-35.73C34 12 62.12-2.76 97.7.43c36.8 3.29 62.52 23.37 76.3 57.84 2.86 7.16 4.05 15 6 22.52v17a7.49 7.49 0 0 0-.69 1.83c-1.37 13.82-6.15 26.48-13.22 38.31q-33.26 55.65-66.7 111.19c-1.55 2.57-4.23 4.47-6.39 6.68h-4c-2.16-2.44-4.71-4.63-6.41-7.36-22.34-35.81-44.69-71.62-66.7-107.64a132.58 132.58 0 0 1-11.13-23.27c-2.43-6.6-3.23-13.8-4.76-20.73zm91.12 136.57c.76-1 1.29-1.61 1.69-2.28 20.45-34.14 41-68.22 61.28-102.45 9.12-15.38 13-32.07 10-49.89-5.19-30.33-22.55-51.12-51.66-60.36S56.78 16.24 35.6 38.46c-24.71 25.92-27.37 61.65-8 93q30.19 48.87 60.55 97.64c.85 1.36 1.85 2.63 2.97 4.27z"/><path d="M90 44.83c24.48 0 44.82 20.33 44.94 44.87s-20.6 45.3-45.2 45.06S44.92 114.15 45 89.66s20.56-44.84 45-44.83zm0 75a30 30 0 1 0-30-29.76 30.08 30.08 0 0 0 30 29.74z"/></g></g></symbol><symbol viewBox="0 0 512 493.33" id="map-loc" xmlns="http://www.w3.org/2000/svg"><defs><style>.icls-1{fill:#fff}</style></defs><g id="iСлой_2" data-name="Слой 2"><g id="iCapa_1" data-name="Capa 1"><path class="icls-1" d="M481 204.84H379.59a9.31 9.31 0 0 0 0 18.61h84.71l27 251.27H21.11l31.67-251.27h84.85a9.31 9.31 0 1 0 0-18.61H36.36L0 493.33h512z"/><path class="icls-1" d="M248 353.32c-1.37.81-2.83 1.53-4.14 2.37-2 1.32-4 2.71-6 4.14a9.31 9.31 0 0 0 11 15c1.66-1.22 3.34-2.39 5.1-3.53a102.3 102.3 0 0 1 9.44-5.41 9.24 9.24 0 0 0 4.3-11.81c.07-.07.17-.13.23-.2 16.83-17.83 73.57-84.65 97.05-196 4.76-22.58 5.83-44.24 3.18-64.39C360.22 32.35 322.2 0 258.28 0S156.37 32.35 148.35 93.54c-2.64 20.16-1.57 41.82 3.19 64.39 23.26 110.24 79.1 176.8 96.46 195.39zM166.8 96c6.82-52 36.75-77.34 91.49-77.34S343 43.93 349.77 96c2.37 18.05 1.38 37.63-2.94 58.14-21.12 100.07-71.46 163.57-88.54 182.83-17.1-19.28-67.43-82.81-88.54-182.83-4.32-20.55-5.31-40.14-2.95-58.14z"/><path class="icls-1" d="M258.29 176.1a68.36 68.36 0 1 0-68.36-68.36 68.44 68.44 0 0 0 68.36 68.36zm0-118.11a49.75 49.75 0 1 1-49.75 49.75A49.81 49.81 0 0 1 258.29 58zm34.19 278.6a9.31 9.31 0 0 0 3.89 18.2c5.45-1.15 11.36-2.13 17.55-2.91a9.3 9.3 0 0 0-2.29-18.46c-6.73.82-13.18 1.89-19.15 3.17zm48.12 3.78a9.3 9.3 0 0 0 9.29 8.91h.41l18.62-.77a9.3 9.3 0 0 0 8.87-9.72 9.54 9.54 0 0 0-9.72-8.88l-18.58.77a9.29 9.29 0 0 0-8.89 9.69zm-131.83 42.81c-4.78 3.61-9.72 7.08-14.7 10.3a9.31 9.31 0 0 0 10.14 15.62c5.33-3.46 10.65-7.18 15.77-11.06a9.31 9.31 0 0 0-11.21-14.86zm207.4-61.36c-3.15 2.21-7.23 3.81-12.53 4.9a9.31 9.31 0 1 0 3.77 18.23c7.84-1.62 14.2-4.21 19.51-7.94l1.25-.91a9.31 9.31 0 1 0-11.23-14.84zM82.45 394.58a9.3 9.3 0 1 0-18-4.86 62.24 62.24 0 0 0-2.05 13.08c0 1.07-.07 2.15-.07 3.29 0 1.82.09 3.65.27 5.46a9.31 9.31 0 0 0 9.25 8.36h1a9.33 9.33 0 0 0 8.32-10.21 37.59 37.59 0 0 1-.19-3.63c0-.77 0-1.54.07-2.31a43.36 43.36 0 0 1 1.4-9.18zM416 249.48a54.73 54.73 0 0 0-22.2 1.68 9.31 9.31 0 0 0 2.52 18.26 9.08 9.08 0 0 0 2.53-.35 36.32 36.32 0 0 1 14.66-1.14 9.31 9.31 0 0 0 2.49-18.45zm18.49 46.1a9.3 9.3 0 0 0 6.14 11.63 9.11 9.11 0 0 0 2.75.42 9.29 9.29 0 0 0 8.89-6.56 39.65 39.65 0 0 0 1.7-9c0-.77.07-1.55.07-2.33a37.14 37.14 0 0 0-2.37-13 9.3 9.3 0 1 0-17.45 6.47 18.66 18.66 0 0 1 1.21 6.48v1.09a21 21 0 0 1-.94 4.8zM162.68 411a256.6 256.6 0 0 1-16.51 7.06 9.31 9.31 0 0 0 3.36 18 9.2 9.2 0 0 0 3.35-.62c5.91-2.28 11.87-4.83 17.71-7.57a9.31 9.31 0 0 0-7.91-16.87zm-67.75-38.76a9.3 9.3 0 0 0 4.45-1.14 22.76 22.76 0 0 1 8.48-2.69 15.1 15.1 0 0 1 3.78 0 9.3 9.3 0 0 0 2.44-18.41 34.36 34.36 0 0 0-8.29-.07 41.36 41.36 0 0 0-15.32 4.85 9.31 9.31 0 0 0 4.47 17.48zM93 445.21a46.1 46.1 0 0 0 6.09 1.15 59.45 59.45 0 0 0 7.16.44 69 69 0 0 0 8.75-.58 9.3 9.3 0 0 0-2.33-18.46 45.6 45.6 0 0 1-11.32.14 31 31 0 0 1-3.67-.7 9.3 9.3 0 1 0-4.68 18z"/></g></g></symbol><symbol viewBox="0 0 512 373.03" id="mnu" xmlns="http://www.w3.org/2000/svg"><defs><style>.jcls-1{fill:#fff}</style></defs><g id="jСлой_2" data-name="Слой 2"><path class="jcls-1" d="M21.94 43.89h468.12a21.94 21.94 0 1 0 0-43.89H21.94a21.94 21.94 0 0 0 0 43.89zm0 164.57h468.12a21.94 21.94 0 1 0 0-43.89H21.94a21.94 21.94 0 0 0 0 43.89zm0 164.54h468.12a21.94 21.94 0 1 0 0-43.89H21.94a21.94 21.94 0 1 0 0 43.89z" id="jCapa_1" data-name="Capa 1"/></g></symbol><symbol viewBox="0 0 494.31 512" id="search" xmlns="http://www.w3.org/2000/svg"><defs><style>.kcls-1{fill:#fff}</style></defs><g id="kСлой_2" data-name="Слой 2"><path class="kcls-1" d="M486.8 466.35L364.94 339.61a206.05 206.05 0 0 0 48.5-132.89C413.44 92.74 320.7 0 206.72 0S0 92.74 0 206.72s92.74 206.72 206.72 206.72A204.51 204.51 0 0 0 325.15 376l122.78 127.7a27 27 0 1 0 38.86-37.38zM206.72 53.93c84.25 0 152.79 68.54 152.79 152.79S291 359.51 206.72 359.51 53.93 291 53.93 206.72 122.47 53.93 206.72 53.93z" id="kCapa_1" data-name="Capa 1"/></g></symbol><symbol viewBox="0 0 480 512" id="soc-1" xmlns="http://www.w3.org/2000/svg"><defs><style>.lcls-1{fill:#fff}</style></defs><g id="lСлой_2" data-name="Слой 2"><g id="lCapa_1" data-name="Capa 1"><path class="lcls-1" d="M32 0L0 96v352h128v64h64l64-64h96l128-136.32V0zm416 288l-89.6 96H244.93L176 434.14V384H64V32h384z"/><path class="lcls-1" d="M224 128h32v128h-32zm96 0h32v128h-32z"/></g></g></symbol><symbol viewBox="0 0 512 511.92" id="soc-2" xmlns="http://www.w3.org/2000/svg"><defs><style>.mcls-1{fill:#fff}</style></defs><g id="mСлой_2" data-name="Слой 2"><g id="mCapa_1" data-name="Capa 1"><path class="mcls-1" d="M168.41 394.27L118 374.82a62.23 62.23 0 1 0 26.77-67.4l49.74 19.18a36.27 36.27 0 1 1-26.14 67.67zM360.3 249a77.06 77.06 0 1 0-77.06-77 77.13 77.13 0 0 0 77.06 77zm0-131.35A54.28 54.28 0 1 1 306 172a54.34 54.34 0 0 1 54.3-54.31z"/><path class="mcls-1" d="M444.88 0H67.12A67.1 67.1 0 0 0 0 67.12v184.3l97.65 37.73a104.65 104.65 0 0 1 77.69-36.4L234 174.48a125.63 125.63 0 1 1 207.51 95.26 125.31 125.31 0 0 1-81.88 30.37c-3.29 0-6.54-.16-9.75-.43l-68.18 51.39c.16 2.15.23 4.34.23 6.54a104.89 104.89 0 1 1-209.78 0V357L0 329.15V444.8a67.13 67.13 0 0 0 67.12 67.12h377.76A67.13 67.13 0 0 0 512 444.8V67.16A67.16 67.16 0 0 0 444.88 0z"/></g></g></symbol><symbol viewBox="0 0 512 512" id="soc-3" xmlns="http://www.w3.org/2000/svg"><defs><style>.ncls-1{fill:#fff}</style></defs><g id="nСлой_2" data-name="Слой 2"><g id="nCapa_1" data-name="Capa 1"><path id="nFacebook_alt_" data-name="Facebook (alt)" class="ncls-1" d="M512 85.34C512 40.5 471.52 0 426.67 0H85.33C40.48 0 0 40.5 0 85.34v341.32C0 471.5 40.48 512 85.34 512H256V318.58h-62.58v-85.34H256V200c0-57.34 43.05-109 96-109h69v85.33h-69c-7.55 0-16.36 9.16-16.36 22.89v34H421v85.33h-85.36V512h91c44.85 0 85.33-40.5 85.33-85.34z"/></g></g></symbol><symbol viewBox="0 0 512 512" id="soc-4" xmlns="http://www.w3.org/2000/svg"><defs><style>.ocls-1{fill:#fff}</style></defs><g id="oСлой_2" data-name="Слой 2"><path class="ocls-1" d="M479.37 0H32.7A32.68 32.68 0 0 0 0 32.66v446.68A32.68 32.68 0 0 0 32.7 512h446.64A32.67 32.67 0 0 0 512 479.34V32.66A32.6 32.6 0 0 0 479.37 0zm-54.66 312c9.36 9.54 29.66 25.54 26 41.84-3.4 15-25.72 9.5-47.4 10.37-24.75 1-39.42 1.59-54.3-10.37-7-5.67-11.13-12.39-17.85-19.91-6.11-6.79-13.8-19-24.28-18.5-18.82.94-12.93 27.17-19.62 45.05-104.66 16.47-146.68-48.17-183.75-110.89C85.56 219.2 59.61 154 59.61 154l74-.25s23.74 43.18 30 54.3c5.35 9.47 11.24 17 17.31 25.44 5.09 7 13.15 20.74 22 19.62 14.34-1.84 16.95-57.48 8.06-76.13-3.54-7.55-12-10.19-20.81-12.75 3-18.72 83-22.62 95.93-8.09 18.79 21.1-13 79.85 12.72 97 36.13-18.93 67-98.2 67-98.2l86.64.54s-13.55 42.85-27.75 61.85c-8.27 11.13-35.73 35.91-34.65 54.3.83 14.48 23.16 28.65 34.65 40.37z" id="oCapa_1" data-name="Capa 1"/></g></symbol><symbol viewBox="0 0 512 512" id="soc-5" xmlns="http://www.w3.org/2000/svg"><defs><style>.pcls-1{fill:#fff}</style></defs><g id="pСлой_2" data-name="Слой 2"><g id="pLayer_1" data-name="Layer 1"><path class="pcls-1" d="M370.7 0H141.29C63.38 0 0 63.39 0 141.29V370.7C0 448.61 63.38 512 141.29 512H370.7c77.91 0 141.3-63.39 141.3-141.3V141.29C512 63.39 448.61 0 370.7 0zm95.87 370.7a96 96 0 0 1-95.87 95.87H141.29a96 96 0 0 1-95.86-95.87V141.29a96 96 0 0 1 95.86-95.87H370.7a96 96 0 0 1 95.87 95.87V370.7z"/><path class="pcls-1" d="M256 124.08c-72.75 0-131.93 59.18-131.93 131.93S183.25 387.93 256 387.93 387.93 328.75 387.93 256 328.75 124.08 256 124.08zm0 218.42a86.5 86.5 0 1 1 86.5-86.5 86.6 86.6 0 0 1-86.5 86.5zM393.46 85.56A33.29 33.29 0 1 0 417 95.31a33.44 33.44 0 0 0-23.54-9.75z"/></g></g></symbol><symbol viewBox="0 0 378 483.5" id="user" xmlns="http://www.w3.org/2000/svg"><g data-name="Слой 2"><path d="M378 471.2v-67.8c0-83.9-55-155.2-130.7-179.8a119.61 119.61 0 0 0 61.1-104.2C308.4 53.6 254.8 0 189 0S69.6 53.6 69.6 119.4a119.61 119.61 0 0 0 61.1 104.2C54.9 248.2 0 319.5 0 403.4v67.8a12.29 12.29 0 0 0 12.3 12.3h353.6a12.32 12.32 0 0 0 12.1-12.3zM94 119.4a94.9 94.9 0 1 1 94.9 94.9A95 95 0 0 1 94 119.4zm259.5 339.5H24.3v-55.6c0-90.7 73.8-164.6 164.6-164.6s164.6 73.8 164.6 164.6z" data-name="Capa 1"/></g></symbol></svg>