<?xml version="1.0" encoding="utf-8"?><svg xmlns="http://www.w3.org/2000/svg" xmlns:xlink="http://www.w3.org/1999/xlink"><symbol viewBox="0 0 1840 812" id="Yandexd" xmlns="http://www.w3.org/2000/svg"><g data-name="Слой 2"><path d="M1606 812H0V0h1605a26 26 0 0 1 1.73 2.36q22.52 39 45 78c8.24 14.26 16.56 28.48 24.79 42.74q13.58 23.52 27.08 47.09c9.33 16.27 18.57 32.6 28 48.85s19 32.38 28.34 48.63 18.42 32.3 27.69 48.42q14.15 24.6 28.44 49.11c7.94 13.63 16 27.21 24 40.82v1a25.75 25.75 0 0 0-2.68 3.31c-8.24 14.44-16.34 29-24.65 43.37-11.57 20-23.35 40-34.93 60-13.05 22.59-25.94 45.27-39 67.86q-20 34.74-40.23 69.39c-8.35 14.38-16.76 28.72-25.06 43.14-9.27 16.11-18.37 32.31-27.66 48.41-8 13.84-16.19 27.55-24.16 41.4-5.39 9.29-10.49 18.73-15.7 28.1zM77.2 744h6q734 0 1468 .12c4.46 0 6.8-1.47 8.88-5.13q22.87-40.2 46-80.25c13.89-24 28-47.88 41.93-71.88 17.74-30.64 35.3-61.38 53.05-92 16.52-28.52 33.24-56.93 49.65-85.51.92-1.59.52-4.75-.47-6.5-9.61-17.06-19.5-34-29.26-50.92-15.37-26.73-30.65-53.52-46.08-80.21-15.27-26.41-30.71-52.73-46-79.12-10.48-18.07-20.78-36.24-31.27-54.31-12.61-21.73-25.44-43.33-37.89-65.15-1.82-3.2-3.58-4.19-7.15-4.18q-735 .13-1470 .09H77.2z" data-name="Слой 1"/></g></symbol><symbol viewBox="0 0 512 425.26" id="arr-r" xmlns="http://www.w3.org/2000/svg"><defs><style>.abcls-1{fill:#fff}</style></defs><g id="abСлой_2" data-name="Слой 2"><path class="abcls-1" d="M0 200.16v23.71c0 15.43 13 28.73 28.4 28.73h343.4L262.88 361.14a26.9 26.9 0 0 0-8.17 19.41 27.73 27.73 0 0 0 8.17 19.78l16.76 16.77a28.06 28.06 0 0 0 39.57 0l184.63-184.62a28.23 28.23 0 0 0 0-39.71L319.21 8.16a28 28 0 0 0-39.57 0L262.88 25a28.29 28.29 0 0 0 0 39.77l107.7 107.94H28l.8-.17C13.35 172.48 0 184.74 0 200.16z" id="abLayer_1" data-name="Layer 1"/></g></symbol><symbol viewBox="0 0 1000 1000" id="arrow" xmlns="http://www.w3.org/2000/svg"><path d="M767.4 978.2c-16.8 15.8-44 15.8-60.7 0L232.6 533.6c-16.8-15.6-16.8-41.2 0-56.8 16.8-15.7 43.9-15.7 60.7 0l474.2 444.6c16.7 15.6 16.7 41-.1 56.8zm0-899.6L293.2 523.2c-16.7 15.8-43.8 15.8-60.6 0-16.8-15.6-16.8-41.2 0-56.8L706.7 21.9c16.8-15.8 44-15.8 60.7 0 16.8 15.6 16.8 41.1 0 56.7z"/></symbol><symbol viewBox="0 0 512 473.77" id="basket" xmlns="http://www.w3.org/2000/svg"><defs><style>.adcls-1{fill:#fff}</style></defs><g id="adСлой_2" data-name="Слой 2"><g id="adLayer_1" data-name="Layer 1"><path class="adcls-1" d="M214.69 383.71a45 45 0 1 0 45 45 45.08 45.08 0 0 0-45-45zm0 64.91a19.89 19.89 0 1 1 19.89-19.89 19.91 19.91 0 0 1-19.89 19.9zm157.94-64.91a45 45 0 1 0 45 45 45.08 45.08 0 0 0-45-45zm0 64.91a19.89 19.89 0 1 1 19.89-19.89 19.91 19.91 0 0 1-19.89 19.9zm11.09-301.98H203.57a12.57 12.57 0 0 0 0 25.14h180.15a12.57 12.57 0 1 0 0-25.14zm-9.81 65.28H213.37a12.57 12.57 0 1 0 0 25.14h160.54a12.57 12.57 0 0 0 0-25.14z"/><path class="adcls-1" d="M506.34 90.63a25 25 0 0 0-19.49-9.26H95.28L87.37 43a25.17 25.17 0 0 0-14.61-18L17.58 1a12.57 12.57 0 0 0-10 23.06l55.18 24 60.83 295.26a25.24 25.24 0 0 0 24.63 20.07h301.14a12.57 12.57 0 0 0 0-25.14H148.2l-7.4-35.92h310.89a25.24 25.24 0 0 0 24.62-20.07l35.16-170.68a25 25 0 0 0-5.13-20.95zm-54.65 186.56H135.62l-35.16-170.68h386.39z"/></g></g></symbol><symbol viewBox="0 0 512.16 418.13" id="card" xmlns="http://www.w3.org/2000/svg"><g data-name="Слой 2"><g data-name="Layer 1"><path d="M273.07 290.13H409.6c5.12 0 8.53-3.41 8.53-8.53v-76.8c0-5.12-3.41-8.53-8.53-8.53H273.07c-5.12 0-8.53 3.41-8.53 8.53v76.8c-.01 5.12 3.41 8.53 8.53 8.53zm8.53-76.8h119.47v59.73H281.6zM42.67 179.2h68.27c5.12 0 8.53-3.41 8.53-8.53s-3.41-8.53-8.53-8.53H42.67c-5.12 0-8.53 3.41-8.53 8.53s3.41 8.53 8.53 8.53zm102.4 0h68.27c5.12 0 8.53-3.41 8.53-8.53s-3.41-8.53-8.53-8.53h-68.27c-5.12 0-8.53 3.41-8.53 8.53s3.41 8.53 8.53 8.53zm-102.4 34.13H153.6c5.12 0 8.53-3.41 8.53-8.53s-3.41-8.53-8.53-8.53H42.67c-5.12 0-8.53 3.41-8.53 8.53s3.41 8.53 8.53 8.53zm170.66-17.06h-25.6c-5.12 0-8.53 3.41-8.53 8.53s3.41 8.53 8.53 8.53h25.6c5.12 0 8.53-3.41 8.53-8.53s-3.41-8.53-8.53-8.53z"/><path d="M504.32 90.45a31.79 31.79 0 0 0-23-12.8l-20.52-2.48v-41A34.23 34.23 0 0 0 426.67 0H34.13A34.23 34.23 0 0 0 0 34.13V307.2a34.26 34.26 0 0 0 24.45 32.72 33.21 33.21 0 0 0 30.16 33.84l394.24 44.37h3.41c17.07 0 32.43-12.8 34.13-29L512 115.2a33.17 33.17 0 0 0-7.68-24.75zM17.07 59.73h426.66v51.2H17.07zm17.06-42.66h392.54a17.12 17.12 0 0 1 17.07 17.07v8.53H17.07v-8.54a17.12 17.12 0 0 1 17.06-17.06zM17.07 307.2V128h426.66v179.2a17.12 17.12 0 0 1-17.07 17.07H34.13a17.12 17.12 0 0 1-17.06-17.07zm477.86-195.41l-25.6 273.92a17.21 17.21 0 0 1-18.77 15.36L57.17 356.69a17.25 17.25 0 0 1-15.36-15.36h384.86a34.23 34.23 0 0 0 34.13-34.13V91.31L480.43 93c4.27 0 8.53 2.56 11.09 6s4.27 8.52 3.41 12.79z"/></g></g></symbol><symbol viewBox="0 0 512 512" id="clock" xmlns="http://www.w3.org/2000/svg"><defs><style>.afcls-1{fill:#fff}</style></defs><g id="afСлой_2" data-name="Слой 2"><g id="afCapa_1" data-name="Capa 1"><path class="afcls-1" d="M256 0C114.84 0 0 114.84 0 256s114.84 256 256 256 256-114.84 256-256S397.16 0 256 0zm0 494.93C124.25 494.93 17.07 387.75 17.07 256S124.25 17.07 256 17.07 494.93 124.25 494.93 256 387.75 494.93 256 494.93z"/><path class="afcls-1" d="M264.53 222v-86.5a8.53 8.53 0 1 0-17.07 0V222a34.09 34.09 0 0 0-24.39 24.39h-60.94a8.53 8.53 0 0 0 0 17.07h60.95A34.06 34.06 0 1 0 264.53 222zM256 272a17.07 17.07 0 1 1 17.07-17A17.08 17.08 0 0 1 256 272zm0-187.7a8.53 8.53 0 0 0 8.53-8.53v-8.54a8.53 8.53 0 1 0-17.07 0v8.53A8.53 8.53 0 0 0 256 84.3zm0 341.33a8.53 8.53 0 0 0-8.53 8.53v8.53a8.53 8.53 0 1 0 17.07 0v-8.53a8.53 8.53 0 0 0-8.54-8.53zm187.73-179.2h-8.53a8.53 8.53 0 1 0 0 17.07h8.53a8.53 8.53 0 0 0 0-17.07zm-366.93 0h-8.53a8.53 8.53 0 0 0 0 17.07h8.53a8.53 8.53 0 0 0 0-17.07zm305.91-130.25l-6 6a8.53 8.53 0 1 0 12.07 12.07l6-6a8.53 8.53 0 0 0-12.07-12.07zM123.26 375.65l-6 6a8.53 8.53 0 1 0 12.07 12.07l6-6a8.53 8.53 0 1 0-12.07-12.07zm265.48 0a8.53 8.53 0 0 0-12.07 12.07l6 6a8.53 8.53 0 0 0 12.07-12.07zM129.29 116.18a8.53 8.53 0 0 0-12.07 12.07l6 6a8.53 8.53 0 1 0 12.07-12.07z"/></g></g></symbol><symbol viewBox="0 0 511.98 508.43" id="close" xmlns="http://www.w3.org/2000/svg"><defs><style>.agcls-1{fill:#fff}</style></defs><g id="agСлой_2" data-name="Слой 2"><path class="agcls-1" d="M231.51 254.29L4.88 480.92a16.11 16.11 0 1 0 22.78 22.79L256 275.38l228.32 228.33a16.11 16.11 0 1 0 22.78-22.79L280.49 254.29 507.26 27.51a16.11 16.11 0 0 0-22.79-22.79L256 233.2 27.51 4.72a16.11 16.11 0 0 0-22.79 22.8z" id="agСлой_1-2" data-name="Слой 1"/></g></symbol><symbol viewBox="0 0 512 389.64" id="envelope" xmlns="http://www.w3.org/2000/svg"><defs><style>.ahcls-1{fill:#fff}</style></defs><g id="ahСлой_2" data-name="Слой 2"><g id="ahCapa_1" data-name="Capa 1"><path class="ahcls-1" d="M449.5 0H62.61A62.66 62.66 0 0 0 0 62.61V327a62.66 62.66 0 0 0 62.61 62.61h386.78A62.66 62.66 0 0 0 512 327V62.72A62.6 62.6 0 0 0 449.5 0zm34 327a34 34 0 0 1-34 34H62.61a34 34 0 0 1-34-34V62.72a34 34 0 0 1 34-34h386.78a34 34 0 0 1 34 34V327z"/><path class="ahcls-1" d="M322.9 191.54l125.22-112.3a14.33 14.33 0 1 0-19.17-21.29l-172.68 155-33.69-30.09c-.11-.11-.21-.21-.21-.32a21.18 21.18 0 0 0-2.33-2L82.95 57.84a14.33 14.33 0 0 0-19.07 21.4l126.7 113.25L64.41 310.61a14.36 14.36 0 0 0-.64 20.23 14.63 14.63 0 0 0 10.49 4.56 14.33 14.33 0 0 0 9.74-3.81l128.09-119.82 34.75 31a14.26 14.26 0 0 0 19.07-.11l35.7-32 127.34 121a14.34 14.34 0 0 0 20.23-.53 14.36 14.36 0 0 0-.53-20.23z"/></g></g></symbol><symbol viewBox="0 0 381.84 512" id="hand" xmlns="http://www.w3.org/2000/svg"><defs><style>.aicls-1{fill:#fff}</style></defs><g id="aiСлой_2" data-name="Слой 2"><g id="aiCapa_1" data-name="Capa 1"><path class="aicls-1" d="M84.55 198.19v-19.82c-19.82-16.52-33-41.29-33-69.37 0-49.55 41.29-90.84 90.84-90.84S233.2 59.46 233.2 109c0 21.47-8.26 42.94-21.47 57.81 6.61 0 11.56 1.65 18.17 3.3 13.21-18.17 19.82-39.64 19.82-62.76a107.36 107.36 0 0 0-214.71 0c-.01 37.99 19.81 71.02 49.54 90.84z"/><path class="aicls-1" d="M216.68 107.35a74.32 74.32 0 0 0-148.65 0c0 18.17 6.61 34.68 16.52 46.25v-46.25c0-31.35 26.45-57.8 57.81-57.8s57.81 26.45 57.81 57.8v46.25c9.9-11.6 16.51-28.08 16.51-46.25z"/><path class="aicls-1" d="M340.55 231.23a40.57 40.57 0 0 0-24.77 8.26 40.89 40.89 0 0 0-41.29-41.29 44.85 44.85 0 0 0-28.08 9.91c-6.6-16.52-21.47-26.43-38-26.43a40.57 40.57 0 0 0-24.77 8.26v-82.59a41.29 41.29 0 0 0-82.58 0v147C68 224.62 31.7 201.5 8.58 224.62c-33 33 36.34 97.44 89.19 194.89 38 67.72 90.84 92.49 143.69 92.49a140.27 140.27 0 0 0 140.38-140.39v-99.1a40.89 40.89 0 0 0-41.29-41.28zm24.77 77.63v62.76c0 64.41-56.15 123.87-123.87 123.87-62.76 0-99.1-34.68-128.83-82.58C48.22 303.9 2 254.35 20.14 236.18S82.9 257.65 117.58 294V107.35c0-13.21 11.56-24.77 24.77-24.77s24.77 11.56 24.77 24.77v173.42h16.52V223c0-13.21 11.56-24.77 24.77-24.77S233.2 209.75 233.2 223v41.29h16.52v-24.81c0-13.21 11.56-24.77 24.77-24.77s24.77 11.56 24.77 24.77v41.29h16.52v-8.26c0-13.21 11.56-24.77 24.77-24.77s24.77 11.56 24.77 24.77v36.34z"/></g></g></symbol><symbol viewBox="0 0 511.26 512" id="i-call" xmlns="http://www.w3.org/2000/svg"><defs><style>.ajcls-1{fill:#fff}</style></defs><g id="ajСлой_2" data-name="Слой 2"><path class="ajcls-1" d="M404.27 317.17c-10.48-10.91-23.13-16.75-36.52-16.75s-26 5.73-37 16.64l-34.15 34c-2.81-1.51-5.62-2.92-8.32-4.32-3.89-1.95-7.56-3.78-10.7-5.73-32-20.32-61.05-46.79-88.93-81-13.51-17.07-22.58-31.45-29.18-46 8.86-8.1 17.07-16.53 25.07-24.64 3-3 6.05-6.16 9.08-9.19 22.69-22.69 22.69-52.09 0-74.78l-29.5-29.5c-3.35-3.35-6.81-6.81-10-10.27-6.48-6.7-13.29-13.62-20.32-20.1-10.48-10.37-23-15.88-36.2-15.88S71.66 35.13 60.85 45.5l-.22.22-36.74 37.06A79.06 79.06 0 0 0 .44 133c-2.59 31.55 6.7 60.95 13.83 80.18 17.51 47.22 43.66 91 82.67 137.89 47.33 56.52 104.28 101.15 169.33 132.59 24.85 11.78 58 25.72 95.09 28.1 2.27.11 4.65.22 6.81.22 25 0 45.93-9 62.35-26.8.11-.22.32-.32.43-.54 5.62-6.81 12.1-13 18.91-19.56 4.65-4.43 9.4-9.08 14-13.94 10.7-11.13 16.32-24.1 16.32-37.39s-5.73-26.26-16.64-37.06zM443 431c-.11 0-.11.11 0 0-4.21 4.54-8.54 8.64-13.18 13.18a284.14 284.14 0 0 0-20.86 21.61c-10.91 11.67-23.77 17.18-40.63 17.18-1.62 0-3.35 0-5-.11-32.09-2.05-61.92-14.59-84.29-25.29-61.16-29.61-114.87-71.64-159.5-124.92-36.86-44.44-61.54-85.51-77.82-129.6-10-26.91-13.72-47.87-12.1-67.65a49.61 49.61 0 0 1 14.91-32.09l36.85-36.85c5.29-5 10.91-7.67 16.43-7.67 6.81 0 12.32 4.11 15.78 7.56l.32.32c6.59 6.16 12.86 12.54 19.45 19.34 3.35 3.46 6.81 6.92 10.27 10.48l29.5 29.5c11.45 11.45 11.45 22 0 33.5-3.13 3.13-6.16 6.27-9.29 9.29-9.08 9.29-17.72 17.94-27.12 26.37-.22.22-.43.32-.54.54-9.29 9.29-7.56 18.37-5.62 24.53l.32 1c7.67 18.59 18.48 36.09 34.9 56.95l.11.11c29.82 36.74 61.27 65.38 96 87.31a147.54 147.54 0 0 0 13.29 7.24c3.89 1.95 7.56 3.78 10.7 5.73.43.22.86.54 1.3.76a23.43 23.43 0 0 0 10.7 2.7c9 0 14.59-5.62 16.43-7.46l37-37c3.67-3.67 9.51-8.1 16.32-8.1s12.21 4.21 15.56 7.89l.22.22 59.54 59.54C454 408.15 454 419.5 443 431zM276.32 121.79A139.07 139.07 0 0 1 389.57 235a14.5 14.5 0 0 0 14.37 12.1 19.29 19.29 0 0 0 2.49-.22 14.6 14.6 0 0 0 12-16.86 168.16 168.16 0 0 0-137-137 14.66 14.66 0 0 0-16.86 11.89 14.43 14.43 0 0 0 11.75 16.88zM511 225.85A276.9 276.9 0 0 0 285.4.22 14.57 14.57 0 1 0 280.65 29a247.33 247.33 0 0 1 201.64 201.61 14.5 14.5 0 0 0 14.37 12.1 19.29 19.29 0 0 0 2.49-.22A14.32 14.32 0 0 0 511 225.85z" id="ajCapa_1" data-name="Capa 1"/></g></symbol><symbol viewBox="0 0 512 449.6" id="i-compare" xmlns="http://www.w3.org/2000/svg"><defs><style>.akcls-1{fill:#fff}</style></defs><g id="akСлой_2" data-name="Слой 2"><path class="akcls-1" d="M499.9 425.41H12.1a12.1 12.1 0 0 0 0 24.19h487.8a12.1 12.1 0 0 0 0-24.19zM468.37 57.1h-84.95a12.1 12.1 0 0 0-12.1 12.1v82.24h-60.75V12.1A12.1 12.1 0 0 0 298.47 0h-84.95a12.1 12.1 0 0 0-12.1 12.1V241h-60.75V138.16a12.1 12.1 0 0 0-12.1-12.1H43.63a12.1 12.1 0 0 0-12.1 12.1v231.56a12.1 12.1 0 0 0 12.1 12.1h424.74a12.1 12.1 0 0 0 12.1-12.1V69.2a12.1 12.1 0 0 0-12.1-12.1zM116.48 357.63H55.72V150.25h60.76zm85 0h-60.81v-92.46h60.76zm84.95-194.09v194.09h-60.81V24.19h60.76zm85 194.09h-60.86v-182h60.76zm84.95 0h-60.86V81.3h60.76v276.33z" id="akLayer_1" data-name="Layer 1"/></g></symbol><symbol viewBox="0 0 180 255.8" id="i-map" xmlns="http://www.w3.org/2000/svg"><g data-name="Слой 2"><g data-name="Слой 1"><path d="M0 96.8v-16a23.69 23.69 0 0 0 .94-3.31 83.9 83.9 0 0 1 13.15-35.73C34 12 62.12-2.76 97.7.43c36.8 3.29 62.52 23.37 76.3 57.84 2.86 7.16 4.05 15 6 22.52v17a7.49 7.49 0 0 0-.69 1.83c-1.37 13.82-6.15 26.48-13.22 38.31q-33.26 55.65-66.7 111.19c-1.55 2.57-4.23 4.47-6.39 6.68h-4c-2.16-2.44-4.71-4.63-6.41-7.36-22.34-35.81-44.69-71.62-66.7-107.64a132.58 132.58 0 0 1-11.13-23.27c-2.43-6.6-3.23-13.8-4.76-20.73zm91.12 136.57c.76-1 1.29-1.61 1.69-2.28 20.45-34.14 41-68.22 61.28-102.45 9.12-15.38 13-32.07 10-49.89-5.19-30.33-22.55-51.12-51.66-60.36S56.78 16.24 35.6 38.46c-24.71 25.92-27.37 61.65-8 93q30.19 48.87 60.55 97.64c.85 1.36 1.85 2.63 2.97 4.27z"/><path d="M90 44.83c24.48 0 44.82 20.33 44.94 44.87s-20.6 45.3-45.2 45.06S44.92 114.15 45 89.66s20.56-44.84 45-44.83zm0 75a30 30 0 1 0-30-29.76 30.08 30.08 0 0 0 30 29.74z"/></g></g></symbol><symbol viewBox="0 0 512 493.33" id="map-loc" xmlns="http://www.w3.org/2000/svg"><defs><style>.amcls-1{fill:#fff}</style></defs><g id="amСлой_2" data-name="Слой 2"><g id="amCapa_1" data-name="Capa 1"><path class="amcls-1" d="M481 204.84H379.59a9.31 9.31 0 0 0 0 18.61h84.71l27 251.27H21.11l31.67-251.27h84.85a9.31 9.31 0 1 0 0-18.61H36.36L0 493.33h512z"/><path class="amcls-1" d="M248 353.32c-1.37.81-2.83 1.53-4.14 2.37-2 1.32-4 2.71-6 4.14a9.31 9.31 0 0 0 11 15c1.66-1.22 3.34-2.39 5.1-3.53a102.3 102.3 0 0 1 9.44-5.41 9.24 9.24 0 0 0 4.3-11.81c.07-.07.17-.13.23-.2 16.83-17.83 73.57-84.65 97.05-196 4.76-22.58 5.83-44.24 3.18-64.39C360.22 32.35 322.2 0 258.28 0S156.37 32.35 148.35 93.54c-2.64 20.16-1.57 41.82 3.19 64.39 23.26 110.24 79.1 176.8 96.46 195.39zM166.8 96c6.82-52 36.75-77.34 91.49-77.34S343 43.93 349.77 96c2.37 18.05 1.38 37.63-2.94 58.14-21.12 100.07-71.46 163.57-88.54 182.83-17.1-19.28-67.43-82.81-88.54-182.83-4.32-20.55-5.31-40.14-2.95-58.14z"/><path class="amcls-1" d="M258.29 176.1a68.36 68.36 0 1 0-68.36-68.36 68.44 68.44 0 0 0 68.36 68.36zm0-118.11a49.75 49.75 0 1 1-49.75 49.75A49.81 49.81 0 0 1 258.29 58zm34.19 278.6a9.31 9.31 0 0 0 3.89 18.2c5.45-1.15 11.36-2.13 17.55-2.91a9.3 9.3 0 0 0-2.29-18.46c-6.73.82-13.18 1.89-19.15 3.17zm48.12 3.78a9.3 9.3 0 0 0 9.29 8.91h.41l18.62-.77a9.3 9.3 0 0 0 8.87-9.72 9.54 9.54 0 0 0-9.72-8.88l-18.58.77a9.29 9.29 0 0 0-8.89 9.69zm-131.83 42.81c-4.78 3.61-9.72 7.08-14.7 10.3a9.31 9.31 0 0 0 10.14 15.62c5.33-3.46 10.65-7.18 15.77-11.06a9.31 9.31 0 0 0-11.21-14.86zm207.4-61.36c-3.15 2.21-7.23 3.81-12.53 4.9a9.31 9.31 0 1 0 3.77 18.23c7.84-1.62 14.2-4.21 19.51-7.94l1.25-.91a9.31 9.31 0 1 0-11.23-14.84zM82.45 394.58a9.3 9.3 0 1 0-18-4.86 62.24 62.24 0 0 0-2.05 13.08c0 1.07-.07 2.15-.07 3.29 0 1.82.09 3.65.27 5.46a9.31 9.31 0 0 0 9.25 8.36h1a9.33 9.33 0 0 0 8.32-10.21 37.59 37.59 0 0 1-.19-3.63c0-.77 0-1.54.07-2.31a43.36 43.36 0 0 1 1.4-9.18zM416 249.48a54.73 54.73 0 0 0-22.2 1.68 9.31 9.31 0 0 0 2.52 18.26 9.08 9.08 0 0 0 2.53-.35 36.32 36.32 0 0 1 14.66-1.14 9.31 9.31 0 0 0 2.49-18.45zm18.49 46.1a9.3 9.3 0 0 0 6.14 11.63 9.11 9.11 0 0 0 2.75.42 9.29 9.29 0 0 0 8.89-6.56 39.65 39.65 0 0 0 1.7-9c0-.77.07-1.55.07-2.33a37.14 37.14 0 0 0-2.37-13 9.3 9.3 0 1 0-17.45 6.47 18.66 18.66 0 0 1 1.21 6.48v1.09a21 21 0 0 1-.94 4.8zM162.68 411a256.6 256.6 0 0 1-16.51 7.06 9.31 9.31 0 0 0 3.36 18 9.2 9.2 0 0 0 3.35-.62c5.91-2.28 11.87-4.83 17.71-7.57a9.31 9.31 0 0 0-7.91-16.87zm-67.75-38.76a9.3 9.3 0 0 0 4.45-1.14 22.76 22.76 0 0 1 8.48-2.69 15.1 15.1 0 0 1 3.78 0 9.3 9.3 0 0 0 2.44-18.41 34.36 34.36 0 0 0-8.29-.07 41.36 41.36 0 0 0-15.32 4.85 9.31 9.31 0 0 0 4.47 17.48zM93 445.21a46.1 46.1 0 0 0 6.09 1.15 59.45 59.45 0 0 0 7.16.44 69 69 0 0 0 8.75-.58 9.3 9.3 0 0 0-2.33-18.46 45.6 45.6 0 0 1-11.32.14 31 31 0 0 1-3.67-.7 9.3 9.3 0 1 0-4.68 18z"/></g></g></symbol><symbol viewBox="0 0 512 373.03" id="mnu" xmlns="http://www.w3.org/2000/svg"><defs><style>.ancls-1{fill:#fff}</style></defs><g id="anСлой_2" data-name="Слой 2"><path class="ancls-1" d="M21.94 43.89h468.12a21.94 21.94 0 1 0 0-43.89H21.94a21.94 21.94 0 0 0 0 43.89zm0 164.57h468.12a21.94 21.94 0 1 0 0-43.89H21.94a21.94 21.94 0 0 0 0 43.89zm0 164.54h468.12a21.94 21.94 0 1 0 0-43.89H21.94a21.94 21.94 0 1 0 0 43.89z" id="anCapa_1" data-name="Capa 1"/></g></symbol><symbol viewBox="0 0 420.58 512" id="prod-i-1" xmlns="http://www.w3.org/2000/svg"><g data-name="Слой 2"><g data-name="Capa 1"><path d="M335.46 33.54a10 10 0 1 0 3.67 13.68 10 10 0 0 0-3.67-13.68zM210.29 0a10 10 0 1 0 10 10 10 10 0 0 0-10-10zm0 266.37a10 10 0 1 0 10 10 10 10 0 0 0-10-10zM98.8 37.2a10 10 0 1 0-3.67 13.68A10 10 0 0 0 98.8 37.2zm111.49 2.86a10 10 0 0 0-10 10v40.07a10 10 0 0 0 20 0V50.07a10 10 0 0 0-10-10.01zm-71.44 66.53l-20-34.7a10 10 0 0 0-17.35 10l20 34.7a10 10 0 1 0 17.35-10zm176.59-38.37a10 10 0 0 0-13.68 3.67l-20 34.7a10 10 0 1 0 17.35 10l20-34.7a10 10 0 0 0-3.67-13.67z"/><path d="M420.58 276.32v-1.34c0-.11 0-.25-.06-.38s0-.19 0-.28 0-.18-.07-.28-.07-.26-.1-.38-.05-.21-.09-.31l-.08-.21-.15-.41-.13-.32-.08-.16-.2-.42-.16-.32v-.05l-60-106.15-.1-.15a9.62 9.62 0 0 0-.55-.83l-.15-.21a10 10 0 0 0-.8-.93 10 10 0 0 0-.88-.78l-.23-.18c-.25-.18-.51-.36-.78-.52l-.26-.16a10 10 0 0 0-1.06-.53 10.18 10.18 0 0 0-1.13-.39l-.32-.08c-.3-.07-.6-.13-.9-.18h-.32a9.91 9.91 0 0 0-1.2-.08H70.11a10.07 10.07 0 0 0-1.25.08h-.29q-.45.07-.91.18l-.33.09a10.18 10.18 0 0 0-1 .34l-.16.06a9.8 9.8 0 0 0-1 .52l-.25.15q-.4.25-.78.53l-.24.19a9.85 9.85 0 0 0-.79.7l-.1.09a9.85 9.85 0 0 0-.8.92l-.14.19a9.76 9.76 0 0 0-.55.84l-.1.15-60 105.93-.12.21v.05l-.18.34c-.07.14-.14.28-.21.43l-.06.13c0 .11-.09.23-.14.35s-.11.28-.15.42l-.06.18c0 .11-.06.22-.09.33s-.07.26-.1.4 0 .16-.06.24 0 .2-.05.31 0 .26-.06.39 0 .2 0 .29v2.26c0 .1 0 .25.05.38s0 .2 0 .3 0 .2.06.3.06.24.09.36l.07.27.1.32.12.34.1.26.13.31.14.31.14.28.15.29.16.27.19.3.18.27.17.23.23.3.22.26.12.15 201.51 225.58a9.83 9.83 0 0 0 .79.78l.12.1a10.08 10.08 0 0 0 .9.7l.31.2q.44.28.9.51l.25.13a10.14 10.14 0 0 0 1.2.46l.3.08q.49.14 1 .23l.37.06a10 10 0 0 0 1.32.1 9.92 9.92 0 0 0 1.33-.1l.37-.06a10.08 10.08 0 0 0 1-.23l.3-.08a9.94 9.94 0 0 0 1.2-.47l.25-.13a9.92 9.92 0 0 0 .9-.51l.31-.2a10.14 10.14 0 0 0 .9-.7l.13-.11a10.15 10.15 0 0 0 .79-.79l199-225.6.1-.13.2-.23.25-.33.17-.23.16-.24.2-.32.16-.27.14-.26.15-.3.15-.31.11-.28.11-.28.12-.35.09-.29.08-.29c0-.12.07-.24.09-.37s0-.18.05-.28 0-.21.05-.32 0-.25.05-.38 0-.17 0-.25v-.91a.61.61 0 0 0 .14-.09zm-85.07-96.07L303 257.73l-70.17-77.48zm-147.64 0l-69.54 77.59-33.08-77.59zm-119 12.55l31.37 73.57h-73zm-36.48 93.6h76.35l69.72 163.52zm179.07 189.87l-81-189.87h39.73a10 10 0 1 0 0-20h-32.61l72.75-81.17 73.52 81.17h-33.5a10 10 0 0 0 0 20H291zm32.85-26.56l68.44-163.31h75.64zm76.83-183.34L351.9 193l41.5 73.42z"/></g></g></symbol><symbol viewBox="0 0 512 493.6" id="prod-i-2" xmlns="http://www.w3.org/2000/svg"><g data-name="Слой 2"><g data-name="Layer 1"><path d="M470.57 360.64a10.2 10.2 0 0 0-13.1-6l-106.07 39.1a10.2 10.2 0 1 0 7.06 19.14l106.07-39.14a10.2 10.2 0 0 0 6.04-13.1zm-135.23 49.9a10.2 10.2 0 0 0-13.1-6l-4.49 1.66a10.2 10.2 0 1 0 7.06 19.14l4.49-1.66a10.2 10.2 0 0 0 6.04-13.14zm135.23-91.47a10.2 10.2 0 0 0-13.1-6L373.65 344a10.2 10.2 0 1 0 7.06 19.14l83.83-30.93a10.2 10.2 0 0 0 6.03-13.14zm0-41.12a10.2 10.2 0 0 0-13.1-6l-83.82 30.93a10.2 10.2 0 1 0 7.06 19.12l83.83-31a10.2 10.2 0 0 0 6.03-13.05z"/><path d="M505.33 91.33L259.53.63a10.21 10.21 0 0 0-7.06 0L6.67 91.33A10.16 10.16 0 0 0 0 100.9v291.8a10.2 10.2 0 0 0 6.67 9.57L252.47 493a10.15 10.15 0 0 0 7.06 0l245.8-90.7a10.2 10.2 0 0 0 6.67-9.6V100.9a10.2 10.2 0 0 0-6.67-9.57zM245.8 468.76L20.4 385.59V115.53l45.9 16.94V256a10.2 10.2 0 0 0 6.7 9.61l110.15 40.64a10.2 10.2 0 0 0 13.73-9.57V180.64l49 18.06v270.06zm-69.35-295.65v108.94l-89.76-33.12V140zM106 125.28l80.65-29.78 80.69 29.77L186.65 155zm150 55.44L216 166l84.33-31.12a10.2 10.2 0 0 0 0-19.14L190.18 75.06a10.21 10.21 0 0 0-7.06 0L76.38 114.45 39.66 100.9 256 21.07l216.34 79.83zm235.6 204.87l-225.4 83.17V198.7l225.4-83.17z"/></g></g></symbol><symbol viewBox="0 0 512 486.65" id="prod-i-3" xmlns="http://www.w3.org/2000/svg"><g data-name="Слой 2"><g data-name="Capa 1"><path d="M163.95 84a10 10 0 1 0 0 14.17 10 10 0 0 0 0-14.17z"/><path d="M509.11 384.63L417 291.57a188.88 188.88 0 0 0 29.27-101.3C446.27 85.35 360.92 0 256 0S65.73 85.35 65.73 190.27A188.87 188.87 0 0 0 95 291.57L2.9 384.63a10 10 0 0 0 5.15 16.86L65.78 413a10 10 0 0 1 5.1 2.72 10.12 10.12 0 0 1 2.75 5.13l11.54 57.75a10 10 0 0 0 16.93 5.09l107.84-108.81a190.49 190.49 0 0 0 92.12 0l107.85 108.81a10 10 0 0 0 16.93-5.09l11.53-57.69a10 10 0 0 1 7.86-7.87L504 401.49a10 10 0 0 0 5.15-16.86zm-408 71.6l-7.85-39.3a30.24 30.24 0 0 0-2.41-7.11l34.7-35.56a10 10 0 1 0-14.33-14l-34.58 35.45a30 30 0 0 0-6.94-2.31l-39.49-7.9 76.55-77.34a191.41 191.41 0 0 0 81.67 60zm201.2-102.13a170.63 170.63 0 0 1-92.57 0h-.06a171.08 171.08 0 0 1-93.56-67 169 169 0 0 1-30.31-96.85C85.76 96.4 162.13 20 256 20s170.24 76.4 170.24 170.27a169 169 0 0 1-30.31 96.85 171.08 171.08 0 0 1-93.57 67zm140 39.29a30.05 30.05 0 0 0-6.94 2.31l-31.71-32.55a10 10 0 1 0-14.35 14l31.84 32.68a30.3 30.3 0 0 0-2.42 7.14l-7.85 39.27-87.31-88.1a191.42 191.42 0 0 0 81.67-60l76.55 77.34z"/><path d="M355.41 153.42a10 10 0 0 0-8.08-6.82l-57.18-8.31-25.56-51.79a10 10 0 0 0-9-5.58 10 10 0 0 0-9 5.58l-25.53 51.8-57.18 8.31a10 10 0 0 0-5.55 17.08L199.7 204l-9.76 57a10 10 0 0 0 14.53 10.56l51.14-26.89 51.13 26.89A10 10 0 0 0 321.27 261l-9.77-57 41.37-40.33a10 10 0 0 0 2.54-10.25zm-61.66 39.93a10 10 0 0 0-2.88 8.87l7.23 42.13-37.83-19.89a10 10 0 0 0-9.32 0l-37.84 19.9 7.23-42.14a10 10 0 0 0-2.88-8.86l-30.61-29.84 42.31-6.15a10 10 0 0 0 7.54-5.48l18.92-38.33 18.91 38.33a10 10 0 0 0 7.54 5.48l42.3 6.15z"/><path d="M256 40.06a150.27 150.27 0 0 0-71.83 18.31 10 10 0 0 0 9.6 17.58A130.26 130.26 0 1 1 141.68 128a10 10 0 0 0-17.57-9.61 150.18 150.18 0 0 0-18.32 71.85c0 82.83 67.39 150.21 150.21 150.21s150.21-67.39 150.21-150.21S338.83 40.06 256 40.06z"/></g></g></symbol><symbol viewBox="0 0 395.41 396.82" id="rocket-ship" xmlns="http://www.w3.org/2000/svg"><g data-name="Слой 2"><g data-name="Layer 1"><path d="M393.88 8.05a7.5 7.5 0 0 0-6.52-6.52A204.89 204.89 0 0 0 217.33 60l-50 50-72.13 9.28a7.5 7.5 0 0 0-4.35 2.14L21.29 191a7.5 7.5 0 0 0 3.94 12.68l52.6 9.74 10.33 10.34-22 11.91a7.5 7.5 0 0 0-1.73 11.9L147.86 331a7.5 7.5 0 0 0 11.9-1.73l11.92-22L182 317.58l9.74 52.6a7.5 7.5 0 0 0 12.68 3.94L274 304.55a7.5 7.5 0 0 0 2.14-4.34l9.31-72.15 50-50a206 206 0 0 0 48.88-78.26 206.05 206.05 0 0 0 9.55-91.75zM79 198.35l-37-6.85 57.67-57.68 50.33-6.48zm72.39 114.91L82.14 244l17.08-9.25 61.38 61.39zm110.22-17.51l-57.71 57.68-6.85-37 71-71zm63.23-128.29L189 303.32l-96.91-96.87L227.94 70.6a191 191 0 0 1 70.29-44.49 89.75 89.75 0 0 0 71.07 71.07 191 191 0 0 1-44.49 70.29zm49-84.7a74.82 74.82 0 0 1-61.18-61.18 191.37 191.37 0 0 1 67-5.81 191.34 191.34 0 0 1-5.84 67z"/><path d="M220.62 110.44A45.5 45.5 0 0 0 285 174.79a45.5 45.5 0 0 0-64.35-64.35zm53.74 53.74a30.49 30.49 0 1 1 0-43.13 30.54 30.54 0 0 1 0 43.13zM97.66 299.16a7.5 7.5 0 0 0-10.61 0L22.7 363.51a7.5 7.5 0 0 0 10.61 10.61l64.35-64.35a7.5 7.5 0 0 0 0-10.61zm9.9 20.51l-29 29a7.5 7.5 0 0 0 10.61 10.61l29-29a7.5 7.5 0 0 0-10.61-10.61zm-39.14 42.25a7.5 7.5 0 1 0 6.92 4.63 7.57 7.57 0 0 0-6.92-4.63zm6.92 4.63c.19.45-.18-.45 0 0zM47.2 380l-4 4a7.5 7.5 0 0 0 10.61 10.61l4-4A7.5 7.5 0 0 0 47.2 380zm-5.41-66a7.5 7.5 0 0 0-10.61 0l-29 29a7.5 7.5 0 0 0 10.62 10.61l29-29a7.5 7.5 0 0 0-.01-10.61zm11.97-2.86a7.5 7.5 0 1 0-8.07-3.14c-.06-.09-.11-.16 0 0s.08.12 0 0a7.59 7.59 0 0 0 8.07 3.14zm19.4-17.88l4-4a7.5 7.5 0 1 0-10.61-10.6l-4 4a7.5 7.5 0 0 0 10.61 10.6z"/></g></g></symbol><symbol viewBox="0 0 497.16 477.33" id="sber" xmlns="http://www.w3.org/2000/svg"><g data-name="Слой 2"><g data-name="Слой 1"><path d="M0 223.84c.12-1.11.29-2.21.35-3.32.14-2.6.23-5.21.35-8 .74.39 1.26.63 1.75.92q73.26 42.14 146.5 84.33a3.82 3.82 0 0 0 4.45 0q157.41-90.64 314.88-181.18c.55-.31 1.11-.61 1.88-1 2.08 4.44 4.18 8.76 6.13 13.15a235.41 235.41 0 0 1 17.52 58.81 266.33 266.33 0 0 1 3 28.2 256.74 256.74 0 0 1 0 29.21c-2.54 39.74-13.78 76.93-34.44 111q-50 82.41-142.22 111a232.45 232.45 0 0 1-38.8 8.29 248.41 248.41 0 0 1-268.16-167 223.35 223.35 0 0 1-10.52-44.62C1.6 254.78 1.1 245.85.33 237c-.08-.95-.22-1.89-.33-2.84z"/><path d="M11.17 155.86c2.12 1.21 4.16 2.36 6.2 3.53l132 76a3 3 0 0 0 3.48 0q142.79-82.17 285.58-164.27c.51-.29 1-.56 1.92-1.06l16 21.61c-.79.51-1.26.83-1.76 1.12l-275.5 158.47c-8.81 5.07-17.64 10.12-26.43 15.23a2.53 2.53 0 0 1-2.92 0Q77.82 225.12 5.86 183.77c-.94-.54-1.52-1.07-1.23-2.25Q7.68 169.25 10.7 157a8.2 8.2 0 0 1 .47-1.14z"/><path d="M399.64 30.92l21.55 18.48c-.9.54-1.39.85-1.88 1.13q-133.19 76.59-266.36 153.21a3.12 3.12 0 0 1-3.6 0Q86 167.26 22.7 130.87l-2-1.16a231.62 231.62 0 0 1 12-24c.61.33 1.13.59 1.63.88q57.47 33.06 114.93 66.16a3.23 3.23 0 0 0 3.75 0q122.16-70.31 244.36-140.56z"/><path d="M373.9 14c-.58.36-1 .64-1.46.9Q262.57 78.12 152.7 141.32a2.49 2.49 0 0 1-2.89.14Q99.4 112.38 48.94 83.38c-.36-.21-.72-.44-1.48-.9l17.07-21c.78.41 1.28.67 1.78 1q41.54 23.89 83.07 47.81a3.1 3.1 0 0 0 3.61 0Q248.14 55.43 343.33.68a3.58 3.58 0 0 1 3.85-.22c8.43 4.29 16.91 8.5 25.36 12.75.46.21.8.49 1.36.79z"/></g></g></symbol><symbol viewBox="0 0 494.31 512" id="search" xmlns="http://www.w3.org/2000/svg"><defs><style>.atcls-1{fill:#fff}</style></defs><g id="atСлой_2" data-name="Слой 2"><path class="atcls-1" d="M486.8 466.35L364.94 339.61a206.05 206.05 0 0 0 48.5-132.89C413.44 92.74 320.7 0 206.72 0S0 92.74 0 206.72s92.74 206.72 206.72 206.72A204.51 204.51 0 0 0 325.15 376l122.78 127.7a27 27 0 1 0 38.86-37.38zM206.72 53.93c84.25 0 152.79 68.54 152.79 152.79S291 359.51 206.72 359.51 53.93 291 53.93 206.72 122.47 53.93 206.72 53.93z" id="atCapa_1" data-name="Capa 1"/></g></symbol><symbol viewBox="0 0 480 512" id="soc-1" xmlns="http://www.w3.org/2000/svg"><defs><style>.aucls-1{fill:#fff}</style></defs><g id="auСлой_2" data-name="Слой 2"><g id="auCapa_1" data-name="Capa 1"><path class="aucls-1" d="M32 0L0 96v352h128v64h64l64-64h96l128-136.32V0zm416 288l-89.6 96H244.93L176 434.14V384H64V32h384z"/><path class="aucls-1" d="M224 128h32v128h-32zm96 0h32v128h-32z"/></g></g></symbol><symbol viewBox="0 0 512 511.92" id="soc-2" xmlns="http://www.w3.org/2000/svg"><defs><style>.avcls-1{fill:#fff}</style></defs><g id="avСлой_2" data-name="Слой 2"><g id="avCapa_1" data-name="Capa 1"><path class="avcls-1" d="M168.41 394.27L118 374.82a62.23 62.23 0 1 0 26.77-67.4l49.74 19.18a36.27 36.27 0 1 1-26.14 67.67zM360.3 249a77.06 77.06 0 1 0-77.06-77 77.13 77.13 0 0 0 77.06 77zm0-131.35A54.28 54.28 0 1 1 306 172a54.34 54.34 0 0 1 54.3-54.31z"/><path class="avcls-1" d="M444.88 0H67.12A67.1 67.1 0 0 0 0 67.12v184.3l97.65 37.73a104.65 104.65 0 0 1 77.69-36.4L234 174.48a125.63 125.63 0 1 1 207.51 95.26 125.31 125.31 0 0 1-81.88 30.37c-3.29 0-6.54-.16-9.75-.43l-68.18 51.39c.16 2.15.23 4.34.23 6.54a104.89 104.89 0 1 1-209.78 0V357L0 329.15V444.8a67.13 67.13 0 0 0 67.12 67.12h377.76A67.13 67.13 0 0 0 512 444.8V67.16A67.16 67.16 0 0 0 444.88 0z"/></g></g></symbol><symbol viewBox="0 0 512 512" id="soc-3" xmlns="http://www.w3.org/2000/svg"><defs><style>.awcls-1{fill:#fff}</style></defs><g id="awСлой_2" data-name="Слой 2"><g id="awCapa_1" data-name="Capa 1"><path id="awFacebook_alt_" data-name="Facebook (alt)" class="awcls-1" d="M512 85.34C512 40.5 471.52 0 426.67 0H85.33C40.48 0 0 40.5 0 85.34v341.32C0 471.5 40.48 512 85.34 512H256V318.58h-62.58v-85.34H256V200c0-57.34 43.05-109 96-109h69v85.33h-69c-7.55 0-16.36 9.16-16.36 22.89v34H421v85.33h-85.36V512h91c44.85 0 85.33-40.5 85.33-85.34z"/></g></g></symbol><symbol viewBox="0 0 512 512" id="soc-4" xmlns="http://www.w3.org/2000/svg"><defs><style>.axcls-1{fill:#fff}</style></defs><g id="axСлой_2" data-name="Слой 2"><path class="axcls-1" d="M479.37 0H32.7A32.68 32.68 0 0 0 0 32.66v446.68A32.68 32.68 0 0 0 32.7 512h446.64A32.67 32.67 0 0 0 512 479.34V32.66A32.6 32.6 0 0 0 479.37 0zm-54.66 312c9.36 9.54 29.66 25.54 26 41.84-3.4 15-25.72 9.5-47.4 10.37-24.75 1-39.42 1.59-54.3-10.37-7-5.67-11.13-12.39-17.85-19.91-6.11-6.79-13.8-19-24.28-18.5-18.82.94-12.93 27.17-19.62 45.05-104.66 16.47-146.68-48.17-183.75-110.89C85.56 219.2 59.61 154 59.61 154l74-.25s23.74 43.18 30 54.3c5.35 9.47 11.24 17 17.31 25.44 5.09 7 13.15 20.74 22 19.62 14.34-1.84 16.95-57.48 8.06-76.13-3.54-7.55-12-10.19-20.81-12.75 3-18.72 83-22.62 95.93-8.09 18.79 21.1-13 79.85 12.72 97 36.13-18.93 67-98.2 67-98.2l86.64.54s-13.55 42.85-27.75 61.85c-8.27 11.13-35.73 35.91-34.65 54.3.83 14.48 23.16 28.65 34.65 40.37z" id="axCapa_1" data-name="Capa 1"/></g></symbol><symbol viewBox="0 0 512 512" id="soc-5" xmlns="http://www.w3.org/2000/svg"><defs><style>.aycls-1{fill:#fff}</style></defs><g id="ayСлой_2" data-name="Слой 2"><g id="ayLayer_1" data-name="Layer 1"><path class="aycls-1" d="M370.7 0H141.29C63.38 0 0 63.39 0 141.29V370.7C0 448.61 63.38 512 141.29 512H370.7c77.91 0 141.3-63.39 141.3-141.3V141.29C512 63.39 448.61 0 370.7 0zm95.87 370.7a96 96 0 0 1-95.87 95.87H141.29a96 96 0 0 1-95.86-95.87V141.29a96 96 0 0 1 95.86-95.87H370.7a96 96 0 0 1 95.87 95.87V370.7z"/><path class="aycls-1" d="M256 124.08c-72.75 0-131.93 59.18-131.93 131.93S183.25 387.93 256 387.93 387.93 328.75 387.93 256 328.75 124.08 256 124.08zm0 218.42a86.5 86.5 0 1 1 86.5-86.5 86.6 86.6 0 0 1-86.5 86.5zM393.46 85.56A33.29 33.29 0 1 0 417 95.31a33.44 33.44 0 0 0-23.54-9.75z"/></g></g></symbol><symbol viewBox="0 0 512 512" id="terminal" xmlns="http://www.w3.org/2000/svg"><g data-name="Слой 2"><g data-name="Слой 1"><g data-name="Слой 2"><g data-name="Слой 1-2"><path d="M100 512c-9.15-3.87-12.15-10.8-12.13-20.61q.3-186.2.13-372.39v-6.77H64.41V80.35h383.27v31.51H424v6.62q0 186.45.13 372.91c0 9.8-3 16.73-12.13 20.61zm260-399.8v269.89c0 11.38-6.08 17.57-17.45 17.93-18.55.58-30 12-30.54 30.63C311.66 442 305.44 448 294 448h-75c-12.82 0-18.49-5.47-19.06-18.34-.77-17.46-12.1-28.84-29.5-29.62-13.14-.59-18.44-6.17-18.44-19.44V112.37h-31.6v367.37h271.31V112.2zM256.08 320c41.8 0 71.86-30.06 71.91-71.84 0-42.08-30-72.16-72.08-72.16-41.84 0-71.85 30-71.9 71.83C184 289.91 214 320 256.08 320zm71.92 1.62c-21 19.28-44.45 30.37-72.25 30.31s-51-11.27-71.74-30.22c0 15.93-.07 30.74.12 45.54a5.12 5.12 0 0 0 2.58 3.83c20.23 7.86 34.22 21.84 42.14 42a5.13 5.13 0 0 0 3.7 2.75q23.47.28 46.94 0a5.14 5.14 0 0 0 3.67-2.79c7.93-20.2 21.92-34.18 42.18-42a4.69 4.69 0 0 0 2.55-3.37c.11-14.92.11-29.89.11-46.05zM184.11 174.26c20.79-19.09 44.09-30.14 71.72-30.19 27.79-.05 51.21 11.07 71.84 30v-61.69H184.11z"/><path d="M512 164c-3.88 9.14-10.8 12.48-20.62 12.13-14.27-.5-28.57-.13-43.12-.13v-31.8h31.42V32.26H32.41v111.59h31.3V176h-4.6c-12.83 0-25.68-.38-38.49.12-9.81.38-16.75-3-20.62-12.12V12A21.36 21.36 0 0 1 12 0h488a21.37 21.37 0 0 1 12 12z"/></g></g></g></g></symbol><symbol viewBox="0 0 378 483.5" id="user" xmlns="http://www.w3.org/2000/svg"><g data-name="Слой 2"><path d="M378 471.2v-67.8c0-83.9-55-155.2-130.7-179.8a119.61 119.61 0 0 0 61.1-104.2C308.4 53.6 254.8 0 189 0S69.6 53.6 69.6 119.4a119.61 119.61 0 0 0 61.1 104.2C54.9 248.2 0 319.5 0 403.4v67.8a12.29 12.29 0 0 0 12.3 12.3h353.6a12.32 12.32 0 0 0 12.1-12.3zM94 119.4a94.9 94.9 0 1 1 94.9 94.9A95 95 0 0 1 94 119.4zm259.5 339.5H24.3v-55.6c0-90.7 73.8-164.6 164.6-164.6s164.6 73.8 164.6 164.6z" data-name="Capa 1"/></g></symbol></svg>