<?xml version="1.0" encoding="utf-8"?><svg xmlns="http://www.w3.org/2000/svg" xmlns:xlink="http://www.w3.org/1999/xlink"><symbol viewBox="0 0 43.01 11.98" id="arr-left" xmlns="http://www.w3.org/2000/svg"><path class="acls-1" d="M0 6.19L.2 6 0 5.79 5.65 0 7 1.36 3.45 5H43v2H3.44L7 10.61 5.65 12zM2.47 6l.53.52V5.45z"/></symbol><symbol viewBox="0 0 7 12" id="arr-r" xmlns="http://www.w3.org/2000/svg"><defs><path id="ba" d="M1792.988 884.8l-.194.2.194.2-5.647 5.788-1.33-1.364 4.51-4.624-4.51-4.625 1.33-1.364z"/></defs><g transform="translate(-1786 -879)"><use xlink:href="#ba"/><use xlink:href="#ba"/></g></symbol><symbol viewBox="0 0 344.96 344.96" id="check" xmlns="http://www.w3.org/2000/svg"><g data-name="Слой 2"><path d="M321.85 86.24l-40-23.11-23.1-40H212.5L172.48 0l-40 23.11H86.24l-23.11 40-40 23.1v46.21L0 172.48l23.11 40v46.21l40 23.11 23.11 40h46.21l40 23.1 40-23.11h46.21l23.11-40 40-23.11V212.5l23.11-40-23.11-40V86.24zM156.91 243.07a16.79 16.79 0 0 1-23.34 0l-50.45-50.44a16.19 16.19 0 0 1 0-22.89l13.35-13.35a16.19 16.19 0 0 1 22.89 0l25.87 25.87 80.34-80.35a16.19 16.19 0 0 1 22.89 0l13.35 13.35a16.19 16.19 0 0 1 0 22.89z" data-name="Capa 1"/></g></symbol><symbol viewBox="0 0 7 12" id="left" xmlns="http://www.w3.org/2000/svg"><defs><path id="da" d="M557.658 1351.011l1.332 1.365-4.512 4.624 4.512 4.624-1.332 1.364-5.647-5.788.195-.2-.195-.2z"/></defs><g transform="translate(-552 -1351)"><use xlink:href="#da"/><use xlink:href="#da"/></g></symbol><symbol viewBox="0 0 7 12" id="right" xmlns="http://www.w3.org/2000/svg"><defs><path id="ea" d="M1763.988 1356.8l-.194.2.194.2-5.647 5.788-1.33-1.364 4.51-4.624-4.51-4.624 1.33-1.365z"/></defs><g transform="translate(-1757 -1351)"><use xlink:href="#ea"/><use xlink:href="#ea"/></g></symbol></svg>