<svg width="96" height="96" viewBox="0 0 96 96" fill="none" xmlns="http://www.w3.org/2000/svg">
<path d="M57.375 15.5625C56.34 15.5625 55.5 16.4025 55.5 17.4375C55.5 18.4725 56.34 19.3125 57.375 19.3125C58.41 19.3125 59.25 18.4725 59.25 17.4375C59.25 16.4025 58.41 15.5625 57.375 15.5625Z" fill="#0C95ED"/>
<path d="M38.625 15.5625C37.59 15.5625 36.75 16.4025 36.75 17.4375C36.75 18.4725 37.59 19.3125 38.625 19.3125C39.66 19.3125 40.5 18.4725 40.5 17.4375C40.5 16.4025 39.66 15.5625 38.625 15.5625Z" fill="#0C95ED"/>
<path d="M88.7106 56.0404C90.3199 53.625 91.125 50.6113 91.125 48C91.125 44.0633 89.3762 40.4057 86.3753 37.9254C87.0394 36.3384 87.375 34.6879 87.375 33C87.375 27.7772 84.327 22.9119 79.7953 20.64C80.4829 14.9374 76.767 9.71025 71.2603 8.37694C69.105 3.3945 64.3078 0 59.25 0C54.5419 0 50.3192 2.74612 48 6.753C45.6806 2.74612 41.4579 0 36.75 0C31.6918 0 26.8946 3.3945 24.7397 8.37712C19.2 9.71887 15.519 14.9721 16.2047 20.64C11.6732 22.9118 8.625 27.7772 8.625 33C8.625 34.6879 8.96063 36.3384 9.62475 37.9254C6.62381 40.4059 4.875 44.0633 4.875 48C4.875 50.625 5.68687 53.6348 7.28944 56.0402C5.72344 58.2508 4.875 60.8708 4.875 63.5625C4.875 67.053 6.29025 70.3781 8.79356 72.8471C7.50656 80.6269 13.7109 88.5 21.75 88.5C21.8081 88.5 21.8653 88.4991 21.9214 88.4974C24.5867 93.0952 29.5341 96 34.875 96C40.4415 96 45.4155 92.6588 48 87.8449C50.5845 92.6588 55.5585 96 61.125 96C66.4659 96 71.4133 93.0952 74.0786 88.4974C74.1349 88.4991 74.1919 88.5 74.25 88.5C81.3645 88.5 87.375 82.2319 87.375 74.8125C87.375 74.1808 87.3195 73.5311 87.2064 72.8471C89.7098 70.3781 91.125 67.0532 91.125 63.5625C91.125 60.8708 90.2766 58.2508 88.7106 56.0404ZM46.125 28.3839C45.021 27.7436 43.7406 27.375 42.375 27.375C41.3394 27.375 40.5 28.2144 40.5 29.25C40.5 30.2856 41.3394 31.125 42.375 31.125C44.4427 31.125 46.125 32.8073 46.125 34.875V70.5317C43.3742 67.4115 39.3519 65.4375 34.875 65.4375C33.8394 65.4375 33 66.2769 33 67.3125C33 68.3481 33.8394 69.1875 34.875 69.1875C41.0783 69.1875 46.125 74.2343 46.125 80.4375C46.125 86.8404 40.9731 92.25 34.875 92.25C30.534 92.25 26.5378 89.6829 24.6939 85.71C24.354 84.9778 23.5841 84.546 22.7814 84.6364C22.6489 84.6516 22.5171 84.6692 22.3853 84.6872C17.049 85.4169 11.0396 79.3744 12.6664 72.6146C12.8334 71.9203 12.5916 71.1917 12.0427 70.7349C9.87075 68.9276 8.625 66.3133 8.625 63.5625C8.625 61.8617 9.10594 60.1973 10.0009 58.7378C12.2498 60.5809 15.0471 61.6875 18 61.6875C19.0356 61.6875 19.875 60.8481 19.875 59.8125C19.875 58.7769 19.0356 57.9375 18 57.9375C12.9114 57.9375 8.625 53.2931 8.625 48C8.625 44.7891 10.2617 41.8352 13.0035 40.0984C13.8482 39.5633 14.1244 38.4594 13.6311 37.5896C12.7976 36.1198 12.375 34.5756 12.375 33C12.375 27.9394 16.5004 23.0625 21.75 23.0625C26.7442 23.0625 31.125 27.7063 31.125 33C31.125 34.0356 31.9644 34.875 33 34.875C34.0356 34.875 34.875 34.0356 34.875 33C34.875 25.5806 28.8645 19.3125 21.75 19.3125C21.1222 19.3125 20.4979 19.3633 19.8797 19.4595C19.8787 19.4102 19.875 19.3622 19.875 19.3125C19.875 15.1281 23.2719 11.8125 27.375 11.8125C29.3779 11.8125 31.2619 12.5927 32.6798 14.0091C33.4123 14.7409 34.5994 14.7401 35.3314 14.0077C36.0632 13.275 36.0626 12.0879 35.3301 11.3561C33.6195 9.64744 31.4559 8.55769 29.1112 8.19656C30.7648 5.742 33.5145 3.75 36.75 3.75C41.7443 3.75 46.125 8.39363 46.125 13.6875V28.3839ZM78 61.6875C80.9531 61.6875 83.7504 60.5807 85.9993 58.7383C86.8941 60.1976 87.375 61.8619 87.375 63.5625C87.375 66.3133 86.1292 68.9276 83.9574 70.7349C83.4084 71.1917 83.1667 71.9205 83.3338 72.6146C83.5326 73.4402 83.625 74.1386 83.625 74.8123C83.625 80.6323 78.3609 85.3359 73.6149 84.6872C73.4831 84.6692 73.3511 84.6514 73.2186 84.6364C72.4147 84.5454 71.6458 84.9778 71.3062 85.71C69.4624 89.6829 65.4658 92.25 61.125 92.25C55.0269 92.25 49.875 86.8404 49.875 80.4375C49.875 74.2343 54.9217 69.1875 61.125 69.1875C62.1604 69.1875 63 68.3481 63 67.3125C63 66.2769 62.1604 65.4375 61.125 65.4375C56.6481 65.4375 52.6258 67.4115 49.875 70.5317V34.875C49.875 32.8073 51.5573 31.125 53.625 31.125C54.6604 31.125 55.5 30.2856 55.5 29.25C55.5 28.2144 54.6604 27.375 53.625 27.375C52.2594 27.375 50.979 27.7436 49.875 28.3839V13.6875C49.875 8.39363 54.2557 3.75 59.25 3.75C62.4855 3.75 65.235 5.742 66.8886 8.19637C64.5441 8.5575 62.3807 9.64725 60.6699 11.3559C59.9372 12.0877 59.9364 13.2748 60.6683 14.0076C61.4001 14.7403 62.5875 14.7409 63.3199 14.0091C64.7383 12.5927 66.6221 11.8125 68.625 11.8125C72.7487 11.8125 76.125 15.1476 76.125 19.3125C76.125 19.362 76.1213 19.4102 76.1203 19.4595C75.5021 19.3633 74.8777 19.3125 74.25 19.3125C67.1355 19.3125 61.125 25.5806 61.125 33C61.125 34.0356 61.9646 34.875 63 34.875C64.0354 34.875 64.875 34.0356 64.875 33C64.875 27.7063 69.2558 23.0625 74.25 23.0625C79.4966 23.0625 83.625 27.9369 83.625 33C83.625 34.5756 83.2024 36.1198 82.3689 37.5896C81.8758 38.4594 82.152 39.5633 82.9967 40.0984C85.7383 41.8352 87.375 44.7891 87.375 48C87.375 53.3121 83.0736 57.9375 78 57.9375C76.9646 57.9375 76.125 58.7769 76.125 59.8125C76.125 60.8481 76.9646 61.6875 78 61.6875Z" fill="#0C95ED"/>
<path d="M41.8974 40.1349C41.2071 39.3632 40.0219 39.2972 39.2499 39.9876C33.2372 45.366 23.625 41.0676 23.625 33C23.625 31.9644 22.7856 31.125 21.75 31.125C20.7144 31.125 19.875 31.9644 19.875 33C19.875 39.5091 24.6388 44.9241 30.8625 45.9482C30.1406 48.2222 28.0099 49.875 25.5 49.875C24.4644 49.875 23.625 50.7144 23.625 51.75C23.625 52.7856 24.4644 53.625 25.5 53.625C30.0669 53.625 33.8794 50.3419 34.7066 46.0121C37.3142 45.6711 39.7684 44.5553 41.7501 42.7824C42.5218 42.0921 42.5878 40.9067 41.8974 40.1349Z" fill="#0C95ED"/>
<path d="M21.75 72.9375C20.7144 72.9375 19.875 73.7769 19.875 74.8125C19.875 75.8481 20.7144 76.6875 21.75 76.6875C26.7442 76.6875 31.125 81.3313 31.125 86.625C31.125 87.6606 31.9644 88.5 33 88.5C34.0356 88.5 34.875 87.6606 34.875 86.625C34.875 79.2056 28.8645 72.9375 21.75 72.9375Z" fill="#0C95ED"/>
<path d="M36.7499 57.9375C30.3963 57.9375 24.9412 61.4222 22.0687 66.489C21.5581 67.3899 21.8744 68.5342 22.7752 69.0448C23.6761 69.5554 24.8203 69.2392 25.331 68.3383C27.5688 64.3903 31.8149 61.6875 36.7499 61.6875C37.7855 61.6875 38.6249 60.8481 38.6249 59.8125C38.6249 58.7769 37.7855 57.9375 36.7499 57.9375Z" fill="#0C95ED"/>
<path d="M70.5 49.875C67.9902 49.875 65.8594 48.2222 65.1375 45.9482C71.3612 44.9241 76.125 39.5091 76.125 33C76.125 31.9644 75.2854 31.125 74.25 31.125C73.2147 31.125 72.375 31.9644 72.375 33C72.375 38.1694 68.1694 42.375 63 42.375C60.6908 42.375 58.4713 41.5271 56.7501 39.9876C55.9785 39.2972 54.793 39.363 54.1026 40.1349C53.412 40.9067 53.4782 42.0921 54.25 42.7824C56.2317 44.5553 58.686 45.6711 61.2934 46.0121C62.1207 50.3419 65.9331 53.625 70.5 53.625C71.5354 53.625 72.375 52.7856 72.375 51.75C72.375 50.7144 71.5354 49.875 70.5 49.875Z" fill="#0C95ED"/>
<path d="M74.25 72.9375C67.1355 72.9375 61.125 79.2056 61.125 86.625C61.125 87.6606 61.9646 88.5 63 88.5C64.0354 88.5 64.875 87.6606 64.875 86.625C64.875 81.3313 69.2557 76.6875 74.25 76.6875C75.2854 76.6875 76.125 75.8481 76.125 74.8125C76.125 73.7769 75.2854 72.9375 74.25 72.9375Z" fill="#0C95ED"/>
<path d="M73.9312 66.4892C71.0659 61.4344 65.6182 57.9375 59.25 57.9375C58.2146 57.9375 57.375 58.7769 57.375 59.8125C57.375 60.8481 58.2146 61.6875 59.25 61.6875C64.1814 61.6875 68.4307 64.3896 70.6686 68.3383C71.1799 69.2404 72.3249 69.555 73.2244 69.045C74.1253 68.5344 74.4416 67.3901 73.9312 66.4892Z" fill="#0C95ED"/>
</svg>
