<svg width="93" height="93" viewBox="0 0 93 93" fill="none" xmlns="http://www.w3.org/2000/svg">
<g clip-path="url(#clip0)">
<path d="M57.6977 35.3024C56.9875 34.594 55.8377 34.594 55.1293 35.3024C54.4191 36.0126 54.4191 37.1624 55.1293 37.8706C55.8377 38.5808 56.9875 38.5808 57.6977 37.8706C58.4061 37.1622 58.4061 36.0126 57.6977 35.3024Z" fill="#0C95ED"/>
<path d="M90.8695 35.5228L88.3011 32.9546C88.3957 32.8161 91.1817 30.5475 91.1817 26.3131C91.1817 23.8867 90.2364 21.606 88.5205 19.8912L87.2361 18.6068L88.5196 17.3222C92.069 13.7779 92.0726 8.02697 88.5209 4.48007C84.9729 0.929734 79.2281 0.927554 75.6792 4.47898L74.3934 5.76391L73.1094 4.47989C69.5611 0.929007 63.8147 0.927736 60.2651 4.47953L60.0455 4.69913L57.4774 2.1311C54.6382 -0.707935 50.0431 -0.709933 47.2026 2.13056C44.3626 4.96832 44.3612 9.566 47.202 12.4047L57.4769 22.6795L22.6781 57.4782L12.4043 47.2044C9.56982 44.3654 4.96706 44.3612 2.1302 47.2028C-0.710475 50.0413 -0.710838 54.6382 2.12983 57.4791L4.69786 60.0471L4.47881 60.2662C0.927921 63.8145 0.926649 69.5609 4.47844 73.1105L5.76282 74.3949L4.47935 75.6794C0.929919 79.2238 0.926286 84.9747 4.47808 88.5218C8.02606 92.0717 13.7704 92.0745 17.32 88.5227L18.6059 87.2377L19.8899 88.5218C23.4382 92.0726 29.1846 92.0741 32.7342 88.5221L32.9536 88.3027L35.5217 90.8709C38.3611 93.7101 42.9564 93.7118 45.7967 90.8715C48.6366 88.0337 48.6381 83.436 45.7972 80.5973L35.5224 70.3225L70.321 35.5238L80.5948 45.7976C83.4293 48.6366 88.0321 48.6408 90.8689 45.7992C93.7096 42.9604 93.7099 38.3634 90.8695 35.5228ZM78.248 7.04792C80.3716 4.92273 83.8167 4.91129 85.9528 7.0492C88.0816 9.17493 88.084 12.6236 85.9516 14.7533L84.6677 16.0382L76.9622 8.33267L78.248 7.04792ZM62.8344 7.04792C64.9632 4.91765 68.4102 4.91637 70.5403 7.04829L85.9523 22.4603C88.0826 24.5891 88.0838 28.0361 85.9519 30.1662L85.7325 30.3858L62.6144 7.26789L62.8344 7.04792ZM14.7509 85.9537C12.6274 88.0789 9.1822 88.0904 7.04611 85.9525C4.91729 83.8267 4.91492 80.3781 7.04738 78.2484L8.33121 76.9634L16.0368 84.669L14.7509 85.9537ZM30.1646 85.9537C28.0357 88.084 24.5887 88.0853 22.4587 85.9534L7.04666 70.5414C4.91638 68.4125 4.91511 64.9656 7.04702 62.8355L7.26644 62.6159L30.3843 85.7338L30.1646 85.9537ZM43.2285 83.1663C44.6482 84.5843 44.6493 86.8821 43.2281 88.302C41.8048 89.7253 39.5079 89.7197 38.0901 88.302C36.5716 86.7835 6.36042 56.5723 4.69841 54.9103C3.29015 53.5021 3.26599 51.2036 4.6995 49.7712C6.11248 48.3558 8.41277 48.348 9.83447 49.7723L43.2285 83.1663ZM32.9533 67.7532L25.2472 60.0471L60.0458 25.2485L67.7519 32.9547L32.9533 67.7532ZM88.2994 43.2305C86.8865 44.6458 84.5862 44.6536 83.1645 43.2294L49.7704 9.83556C48.3509 8.41749 48.3498 6.11974 49.771 4.69986C51.1943 3.27653 53.491 3.28216 54.909 4.69986C56.5712 6.36205 86.8064 36.5972 88.3005 38.0915C89.7088 39.4996 89.7329 41.7983 88.2994 43.2305Z" fill="#0C95ED"/>
<path d="M52.5597 40.4406C51.8502 39.7311 50.7 39.7311 49.9907 40.4406L35.302 55.1293C34.5927 55.8386 34.5927 56.9887 35.302 57.6982C36.0113 58.4075 37.1615 58.4075 37.8708 57.6982L52.5595 43.0095C53.269 42.3 53.269 41.1501 52.5597 40.4406Z" fill="#0C95ED"/>
</g>
<defs>
<clipPath id="clip0">
<rect width="93" height="93" fill="white"/>
</clipPath>
</defs>
</svg>
