<svg width="92" height="93" viewBox="0 0 92 93" fill="none" xmlns="http://www.w3.org/2000/svg">
<path d="M75.3289 24V4.5H27.6341C26.9705 1.91821 24.6664 0 21.9095 0C18.636 0 15.974 2.69092 15.974 6C15.974 8.78833 17.8731 11.1167 20.4256 11.7869V18.7617L0.185425 34.5L20.4256 50.2383V57H10.0385V72H20.4256V81.2131C17.8731 81.8833 15.974 84.2117 15.974 87C15.974 90.3091 18.636 93 21.9095 93C25.183 93 27.845 90.3091 27.845 87C27.845 84.2117 25.9452 81.8833 23.3934 81.2131V72H33.7805V57H23.3934V50.2383L41.7041 36H56.0385V45H91.6514V24H75.3289ZM24.8772 87C24.8772 88.6545 23.5462 90 21.9095 90C20.2727 90 18.9418 88.6545 18.9418 87C18.9418 85.3455 20.2727 84 21.9095 84C23.5462 84 24.8772 85.3455 24.8772 87ZM30.8127 69H13.0063V60H30.8127V69ZM18.9418 6C18.9418 4.34546 20.2727 3 21.9095 3C23.5462 3 24.8772 4.34546 24.8772 6C24.8772 7.65454 23.5462 9 21.9095 9C20.2727 9 18.9418 7.65454 18.9418 6ZM21.9095 47.6067L5.0522 34.5L21.9095 21.3933L38.7661 34.5L21.9095 47.6067ZM41.7041 33L23.3934 18.7617V11.7869C25.4692 11.2412 27.0936 9.59839 27.6341 7.5H72.3611V24H56.0385V33H41.7041ZM88.6837 42H59.0063V27H88.6837V42Z" fill="#0C95ED"/>
<path d="M61.9741 30H85.7161V33H61.9741V30Z" fill="#0C95ED"/>
<path d="M61.9741 36H82.7483V39H61.9741V36Z" fill="#0C95ED"/>
<path d="M39.7159 82.5H87.1998V55.5H39.7159V82.5ZM42.6837 58.5H84.2321V79.5H42.6837V58.5Z" fill="#0C95ED"/>
<path d="M45.6515 61.5H48.6192V64.5H45.6515V61.5Z" fill="#0C95ED"/>
<path d="M51.5869 61.5H81.2643V64.5H51.5869V61.5Z" fill="#0C95ED"/>
<path d="M51.5869 67.5H81.2643V70.5H51.5869V67.5Z" fill="#0C95ED"/>
<path d="M45.6515 67.5H48.6192V70.5H45.6515V67.5Z" fill="#0C95ED"/>
<path d="M45.6515 73.5H48.6192V76.5H45.6515V73.5Z" fill="#0C95ED"/>
<path d="M51.5869 73.5H81.2643V76.5H51.5869V73.5Z" fill="#0C95ED"/>
</svg>
