<svg width="93" height="93" viewBox="0 0 93 93" fill="none" xmlns="http://www.w3.org/2000/svg">
<path d="M80.3027 7.11308C76.0966 2.45995 70.651 0 64.5546 0H38.475C33.2067 0 28.3358 2.00089 24.3879 5.78625C23.6642 6.48017 23.6401 7.63033 24.334 8.35405C25.0287 9.07848 26.1781 9.10261 26.9025 8.40797C30.1607 5.2839 34.1618 3.63281 38.475 3.63281H64.5546C70.9234 3.63281 75.1686 6.85055 77.6079 9.5489C81.8453 14.2375 84.174 21.308 83.5411 27.5633L80.0665 61.8756C79.3222 69.2285 74.0581 74.5656 67.5503 74.5656H61.173V65.8085C61.173 60.4828 56.8399 56.1504 51.5148 56.1504C46.1891 56.1504 41.8567 60.4828 41.8567 65.8085V74.5649H33.7666C26.3739 74.5649 16.6675 68.0372 11.6454 53.4527C7.85297 42.4379 8.60366 35.4824 13.9415 32.1887L16.0247 30.903L16.6654 43.3795C16.7165 44.3813 17.5722 45.1483 18.5726 45.1001C19.5745 45.049 20.345 44.1947 20.2932 43.1929L19.4971 27.686C19.4964 27.6633 19.495 27.6406 19.4936 27.6179C19.3389 24.5179 19.8398 21.1952 20.9417 18.0065C21.2688 17.0586 20.7658 16.0241 19.8178 15.697C18.8692 15.3692 17.8354 15.8723 17.5076 16.8202C16.378 20.0904 15.8054 23.5005 15.8345 26.7508L12.0335 29.0966C8.10485 31.521 5.96277 35.349 5.6669 40.4739C5.44126 44.3778 6.27355 49.0096 8.20986 54.6348C10.7401 61.9813 14.6446 68.0826 19.5035 72.2802C22.0678 74.4961 24.8513 76.1323 27.671 77.1164V91.1836C27.671 92.1869 28.4841 93 29.4874 93H73.5416C74.5449 93 75.358 92.1869 75.358 91.1836V76.0563C79.8777 73.3686 83.0607 68.3614 83.6808 62.2417L87.1547 27.9294C87.8983 20.5878 85.273 12.612 80.3027 7.11308ZM31.3038 78.0154C32.1304 78.1353 32.9527 78.1977 33.7666 78.1977H41.8567V89.3672H31.3038V78.0154ZM45.4895 65.8085C45.4895 62.4865 48.1921 59.7832 51.5148 59.7832C54.8369 59.7832 57.5402 62.4865 57.5402 65.8085V89.3672H45.4895V65.8085ZM71.7252 89.3672H61.1723V78.1984H67.5503C68.9977 78.1984 70.3955 77.9948 71.7252 77.6187V89.3672Z" fill="#0C95ED"/>
<path d="M54.0834 70.1254L55.4861 68.7226C56.1957 68.0131 56.1957 66.8629 55.4861 66.1541C54.7766 65.4446 53.6271 65.4446 52.9176 66.1541L51.5149 67.5568L50.1114 66.1534C49.4019 65.4446 48.2524 65.4446 47.5429 66.1534C46.8334 66.8629 46.8334 68.0131 47.5429 68.7226L48.9456 70.1254L47.5429 71.5281C46.8334 72.2376 46.8334 73.3878 47.5429 74.0973C47.8977 74.4521 48.3624 74.6295 48.8271 74.6295C49.2919 74.6295 49.7566 74.4521 50.1114 74.0973L51.5142 72.6946L52.9176 74.0973C53.2724 74.4521 53.7371 74.6295 54.2019 74.6295C54.6666 74.6295 55.1314 74.4521 55.4861 74.0973C56.1957 73.3878 56.1957 72.2376 55.4861 71.5281L54.0834 70.1254Z" fill="#0C95ED"/>
<path d="M54.0835 82.5493L55.4863 81.1465C56.1958 80.437 56.1958 79.2868 55.4863 78.5773C54.7768 77.8678 53.6273 77.8678 52.9178 78.5773L51.5143 79.9801L50.1116 78.5773C49.402 77.8678 48.2526 77.8678 47.5424 78.5773C46.8335 79.2868 46.8335 80.437 47.5424 81.1458L48.9458 82.5493L47.5424 83.952C46.8335 84.6616 46.8335 85.8117 47.5424 86.5213C47.8971 86.876 48.3626 87.0534 48.8273 87.0534C49.2921 87.0534 49.7568 86.876 50.1116 86.5213L51.5143 85.1178L52.9178 86.5213C53.2718 86.876 53.7373 87.0534 54.202 87.0534C54.6668 87.0534 55.1315 86.8753 55.4863 86.5213C56.1958 85.8117 56.1958 84.6616 55.4863 83.952L54.0835 82.5493Z" fill="#0C95ED"/>
<path d="M73.7228 62.9924L73.7178 63.035C73.5979 64.0312 74.3074 64.9358 75.3036 65.0557C75.3774 65.065 75.4512 65.0692 75.5236 65.0692C76.4296 65.0692 77.213 64.3923 77.3244 63.4699L77.3293 63.4274C77.4492 62.4319 76.7397 61.5265 75.7435 61.4066C74.748 61.2867 73.8427 61.9969 73.7228 62.9924Z" fill="#0C95ED"/>
<path d="M76.1429 59.8442C77.0504 59.8442 77.8351 59.1652 77.9444 58.2421L78.8228 50.8402C78.9413 49.844 78.2296 48.9408 77.2334 48.8223C76.2379 48.7045 75.334 49.4155 75.2155 50.4117L74.3371 57.8135C74.2186 58.8097 74.9303 59.7129 75.9265 59.8314C75.9995 59.8399 76.0719 59.8442 76.1429 59.8442Z" fill="#0C95ED"/>
<path d="M23.2046 12.7148C23.2046 13.7181 22.3908 14.5312 21.3882 14.5312C20.3849 14.5312 19.5718 13.7181 19.5718 12.7148C19.5718 11.7116 20.3849 10.8984 21.3882 10.8984C22.3908 10.8984 23.2046 11.7116 23.2046 12.7148Z" fill="#0C95ED"/>
</svg>
