<svg width="93" height="93" viewBox="0 0 93 93" fill="none" xmlns="http://www.w3.org/2000/svg">
<g clip-path="url(#clip0)">
<path d="M51 49.5H48V52.5H45V55.5H48V58.5H51V55.5H54V52.5H51V49.5Z" fill="#0C95ED"/>
<path d="M93 28.5V13.5H85.5V7.85376L89.4272 0H72.5728L76.5 7.85376V13.5H72.6658C71.625 11.7151 69.7112 10.5 67.5 10.5H43.5C40.1909 10.5 37.5 13.1909 37.5 16.5H30V10.5H7.5C3.36475 10.5 0 13.8647 0 18V19.5H16.5V22.5H0V24C0 28.1353 3.36475 31.5 7.5 31.5H30V25.5H37.5C37.5 28.8091 40.1909 31.5 43.5 31.5H44.4602L39.4951 47.3914C38.2368 49.2869 37.5 51.5581 37.5 54C37.5 60.6167 42.8833 66 49.5 66C50.0925 66 50.6711 65.9429 51.2417 65.8586L53.6697 78H51.5728L48.5728 84H45V93H93V84H89.4272L86.4272 78H84V66.6511L61.7249 53.2859L67.1697 31.5H67.5C69.7112 31.5 71.625 30.2849 72.6658 28.5H76.5V32.6462L72.5728 40.5H89.4272L85.5 32.6462V28.5H93ZM3.25635 16.5C3.87598 14.7539 5.5437 13.5 7.5 13.5H27V16.5H3.25635ZM27 28.5H7.5C5.5437 28.5 3.87598 27.2461 3.25635 25.5H27V28.5ZM30 22.5H19.5V19.5H37.5V22.5H30ZM40.5 54C40.5 49.0364 44.5364 45 49.5 45C54.4636 45 58.5 49.0364 58.5 54C58.5 58.9636 54.4636 63 49.5 63C44.5364 63 40.5 58.9636 40.5 54ZM61.2363 56.4917L71.1438 62.436L55.0979 69.8416L54.1428 65.064C57.7185 63.5581 60.4138 60.3677 61.2363 56.4917ZM74.0413 64.1748L79.2524 67.3022L56.6023 77.3687L55.7021 72.8672L74.1284 64.3638L74.0413 64.1748ZM90 90H48V87H90V90ZM86.0728 84H51.9272L53.4272 81H84.5728L86.0728 84ZM62.5679 78L81 69.8086V78H62.5679ZM59.9312 48.0916C57.8657 44.4602 53.9685 42 49.5 42C47.4705 42 45.5596 42.5098 43.8823 43.4041L47.6023 31.5H64.0803L59.9312 48.0916ZM70.5 25.5C70.5 27.1545 69.1545 28.5 67.5 28.5H43.5C41.8455 28.5 40.5 27.1545 40.5 25.5V16.5C40.5 14.8455 41.8455 13.5 43.5 13.5H67.5C69.1545 13.5 70.5 14.8455 70.5 16.5V25.5ZM84.5728 3L83.0728 6H78.9272L77.4272 3H84.5728ZM79.5 9H82.5V13.5H79.5V9ZM90 16.5V19.5H73.5V16.5H90ZM73.5 22.5H90V25.5H73.5V22.5ZM77.4272 37.5L78.9272 34.5H83.0728L84.5728 37.5H77.4272ZM82.5 31.5H79.5V28.5H82.5V31.5Z" fill="#0C95ED"/>
<path d="M49.5 16.5C47.0193 16.5 45 18.5193 45 21C45 23.4807 47.0193 25.5 49.5 25.5C51.9807 25.5 54 23.4807 54 21C54 18.5193 51.9807 16.5 49.5 16.5ZM49.5 22.5C48.6724 22.5 48 21.8262 48 21C48 20.1738 48.6724 19.5 49.5 19.5C50.3276 19.5 51 20.1738 51 21C51 21.8262 50.3276 22.5 49.5 22.5Z" fill="#0C95ED"/>
<path d="M61.5 16.5C59.0193 16.5 57 18.5193 57 21C57 23.4807 59.0193 25.5 61.5 25.5C63.9807 25.5 66 23.4807 66 21C66 18.5193 63.9807 16.5 61.5 16.5ZM61.5 22.5C60.6724 22.5 60 21.8262 60 21C60 20.1738 60.6724 19.5 61.5 19.5C62.3276 19.5 63 20.1738 63 21C63 21.8262 62.3276 22.5 61.5 22.5Z" fill="#0C95ED"/>
<path d="M31.3923 68.2698L33.8188 65.3628L27.6372 59.1797L24.7302 61.6077C24.0776 61.2795 23.4031 61.0005 22.7087 60.7712L22.3711 57H13.6289L13.2898 60.7727C12.5955 61.002 11.9202 61.281 11.2683 61.6099L8.36133 59.1812L2.17969 65.3643L4.6062 68.2712C4.27808 68.9224 3.99902 69.5969 3.76978 70.2913L0 70.6289V79.3711L3.77271 79.7102C4.00049 80.4031 4.28101 81.0798 4.60986 81.7302L2.18262 84.6372L8.36426 90.8203L11.2712 88.3923C11.9238 88.7205 12.5984 88.9995 13.2927 89.2288L13.6289 93H22.3711L22.7102 89.2273C23.4045 88.998 24.0798 88.719 24.7317 88.3901L27.6387 90.8189L33.8203 84.6357L31.3938 81.7288C31.7219 81.0776 32.001 80.4031 32.2302 79.7087L36 79.3711V70.6289L32.2273 70.2898C31.9995 69.5955 31.719 68.9202 31.3923 68.2698ZM33 76.6289L29.8813 76.9094L29.6206 77.9414C29.3372 79.0679 28.8918 80.1438 28.2957 81.1377L27.75 82.0518L29.7583 84.4563L27.4563 86.7598L25.0503 84.75L24.1377 85.2957C23.1453 85.8897 22.0693 86.3357 20.9399 86.6206L19.908 86.8813L19.6289 90H16.3711L16.0906 86.8813L15.0586 86.6206C13.9292 86.3357 12.8533 85.8897 11.8608 85.2957L10.9497 84.75L8.5437 86.7583L6.2417 84.4548L8.25 82.0518L7.70435 81.1377C7.11035 80.1438 6.66431 79.0679 6.37939 77.9414L6.11865 76.9094L3 76.6289V73.3711L6.11865 73.0906L6.37939 72.0586C6.66284 70.9321 7.10815 69.8562 7.70435 68.8623L8.25 67.9482L6.2417 65.5437L8.5437 63.2402L10.9497 65.25L11.8623 64.7043C12.8547 64.1104 13.9307 63.6643 15.0601 63.3794L16.092 63.1187L16.3711 60H19.6289L19.9094 63.1187L20.9414 63.3794C22.0708 63.6643 23.1467 64.1104 24.1392 64.7043L25.0503 65.25L27.4563 63.2417L29.7583 65.5452L27.75 67.9482L28.2957 68.8623C28.8896 69.8562 29.3357 70.9321 29.6206 72.0586L29.8813 73.0906L33 73.3711V76.6289Z" fill="#0C95ED"/>
<path d="M18 66C13.0364 66 9 70.0364 9 75C9 79.9636 13.0364 84 18 84C22.9636 84 27 79.9636 27 75C27 70.0364 22.9636 66 18 66ZM18 81C14.6909 81 12 78.3091 12 75C12 71.6909 14.6909 69 18 69C21.3091 69 24 71.6909 24 75C24 78.3091 21.3091 81 18 81Z" fill="#0C95ED"/>
<path d="M16.4999 34.5H19.4999V37.5H16.4999V34.5Z" fill="#0C95ED"/>
<path d="M16.4999 40.5H19.4999V43.5H16.4999V40.5Z" fill="#0C95ED"/>
<path d="M16.4999 46.5H19.4999V49.5H16.4999V46.5Z" fill="#0C95ED"/>
</g>
<defs>
<clipPath id="clip0">
<rect width="93" height="93" fill="white"/>
</clipPath>
</defs>
</svg>
