<svg width="93" height="93" viewBox="0 0 93 93" fill="none" xmlns="http://www.w3.org/2000/svg">
<path fill-rule="evenodd" clip-rule="evenodd" d="M72.83 62.8748C72.8225 62.87 72.8156 62.8647 72.8081 62.8605L68.4744 59.9951L71.6735 49.2331C71.9406 48.332 71.4272 47.3835 70.5261 47.1158C69.6245 46.8476 68.6764 47.3616 68.4088 48.2627L65.5045 58.0329L40.3997 41.4384C36.4402 38.8199 31.8297 37.4352 27.0662 37.4352C25.3829 37.4352 23.7391 37.6085 22.1523 37.9369L18.621 25.4176H22.7009C23.6415 25.4176 24.4039 24.6551 24.4039 23.7146C24.4039 22.7746 23.6415 22.0116 22.7009 22.0116H10.043C9.10242 22.0116 8.33995 22.7746 8.33995 23.7146C8.33995 24.6551 9.10242 25.4176 10.043 25.4176H15.0832L18.8748 38.8636C9.54977 42.2281 2.86621 51.1649 2.86621 61.6357C2.86621 74.9799 13.722 85.8357 27.0662 85.8357H66.6626C73.488 85.8357 78.9836 79.0951 78.9836 73.5142C78.9846 67.8122 75.6948 64.8333 72.83 62.8748ZM66.6626 82.4302H27.0662C15.6004 82.4302 6.27224 73.1015 6.27224 61.6357C6.27224 50.1689 15.6004 40.8407 27.0662 40.8407C31.1595 40.8407 35.1206 42.0297 38.5207 44.2787L65.5285 62.131C65.5322 62.1337 65.537 62.1364 65.5407 62.139L70.919 65.6938C73.7162 67.608 75.5781 69.672 75.5781 73.5142C75.5786 77.0215 71.7498 82.4302 66.6626 82.4302Z" fill="#0C95ED"/>
<path fill-rule="evenodd" clip-rule="evenodd" d="M46.974 76.1945H39.392L34.2472 68.8823C36.1145 67.0311 37.2736 64.4659 37.2736 61.6357C37.2736 56.0073 32.6946 51.4283 27.0662 51.4283C21.4384 51.4283 16.8599 56.0073 16.8599 61.6357C16.8599 67.2641 21.4384 71.8421 27.0662 71.8421C28.6402 71.8421 30.1315 71.4837 31.464 70.845L35.2278 76.1945H30.042C29.1014 76.1945 28.3389 76.957 28.3389 77.8975C28.3389 78.8381 29.1014 79.6005 30.042 79.6005H46.9751C47.9156 79.6005 48.6775 78.8381 48.6775 77.8975C48.677 76.957 47.9151 76.1945 46.974 76.1945ZM20.2648 61.6357C20.2648 57.8852 23.3163 54.8343 27.0662 54.8343C30.8167 54.8343 33.8681 57.8852 33.8681 61.6357C33.8681 65.3862 30.8167 68.4366 27.0662 68.4366C23.3163 68.4366 20.2648 65.3862 20.2648 61.6357Z" fill="#0C95ED"/>
<path fill-rule="evenodd" clip-rule="evenodd" d="M88.8361 6.80549C87.9344 6.53729 86.9859 7.05076 86.7182 7.95238L82.5401 22.0116H77.4695C77.4642 22.0116 77.4588 22.0116 77.4524 22.0116H71.1522C70.2122 22.0116 69.4492 22.774 69.4492 23.7146C69.4492 24.6551 70.2122 25.4176 71.1522 25.4176H75.1981L72.2901 35.2017C72.0229 36.1038 72.5364 37.0519 73.4375 37.319C73.5991 37.3675 73.7627 37.3904 73.9232 37.3904C74.6574 37.3904 75.3351 36.9122 75.5548 36.1721L78.7518 25.4176H83.8097C84.5636 25.4176 85.2274 24.9228 85.4423 24.2003L89.983 8.92279C90.2512 8.0217 89.7372 7.07368 88.8361 6.80549Z" fill="#0C95ED"/>
<path fill-rule="evenodd" clip-rule="evenodd" d="M71.9813 43.9204C72.9192 43.9204 73.6848 43.1553 73.6848 42.2174C73.6848 41.2795 72.9192 40.5144 71.9813 40.5144C71.0434 40.5144 70.2788 41.2795 70.2788 42.2174C70.2788 43.1553 71.0434 43.9204 71.9813 43.9204Z" fill="#0C95ED"/>
</svg>
