<svg width="93" height="93" viewBox="0 0 93 93" fill="none" xmlns="http://www.w3.org/2000/svg">
<g clip-path="url(#clip0)">
<path d="M7.5 84.276V68.3025L10.9545 66H16.5V63H10.0455L4.5 66.6975V84.276C2.757 84.897 1.5 86.547 1.5 88.5C1.5 90.981 3.519 93 6 93C8.481 93 10.5 90.981 10.5 88.5C10.5 86.547 9.2415 84.897 7.5 84.276ZM6 90C5.172 90 4.5 89.328 4.5 88.5C4.5 87.672 5.172 87 6 87C6.828 87 7.5 87.672 7.5 88.5C7.5 89.328 6.828 90 6 90Z" fill="#0C95ED"/>
<path d="M8.724 60H16.5V57H8.724C8.103 55.2585 6.453 54 4.5 54C2.019 54 0 56.019 0 58.5C0 60.981 2.019 63 4.5 63C6.453 63 8.103 61.7415 8.724 60ZM3 58.5C3 57.672 3.672 57 4.5 57C5.328 57 6 57.672 6 58.5C6 59.328 5.328 60 4.5 60C3.672 60 3 59.328 3 58.5Z" fill="#0C95ED"/>
<path d="M4.5 51C6.453 51 8.103 49.7415 8.724 48H16.5V45H8.724C8.103 43.257 6.453 42 4.5 42C2.019 42 0 44.019 0 46.5C0 48.981 2.019 51 4.5 51ZM4.5 45C5.328 45 6 45.672 6 46.5C6 47.328 5.328 48 4.5 48C3.672 48 3 47.328 3 46.5C3 45.672 3.672 45 4.5 45Z" fill="#0C95ED"/>
<path d="M16.5 51H10.5V54H16.5V51Z" fill="#0C95ED"/>
<path d="M16.5 39H10.5V42H16.5V39Z" fill="#0C95ED"/>
<path d="M16.5 33H0V36H16.5V33Z" fill="#0C95ED"/>
<path d="M11.379 30H16.5V27H12.621L9 23.379V20.724C10.7415 20.103 12 18.453 12 16.5C12 14.019 9.981 12 7.5 12C5.019 12 3 14.019 3 16.5C3 18.453 4.257 20.103 6 20.724V24.621L11.379 30ZM7.5 15C8.328 15 9 15.672 9 16.5C9 17.328 8.328 18 7.5 18C6.672 18 6 17.328 6 16.5C6 15.672 6.672 15 7.5 15Z" fill="#0C95ED"/>
<path d="M27 12.621V16.5H30V11.379L24.621 6H0V9H23.379L27 12.621Z" fill="#0C95ED"/>
<path d="M33 6.621V16.5H36V5.379L30.621 0H0V3H29.379L33 6.621Z" fill="#0C95ED"/>
<path d="M42 10.5H39V16.5H42V10.5Z" fill="#0C95ED"/>
<path d="M60 0H57V16.5H60V0Z" fill="#0C95ED"/>
<path d="M45 8.724V16.5H48V11.121L51 14.121V16.5H54V12.879L49.1985 8.0775C50.286 7.2555 51 5.9655 51 4.5C51 2.019 48.981 0 46.5 0C44.019 0 42 2.019 42 4.5C42 6.453 43.257 8.103 45 8.724ZM46.5 3C47.328 3 48 3.672 48 4.5C48 5.328 47.328 6 46.5 6C45.672 6 45 5.328 45 4.5C45 3.672 45.672 3 46.5 3Z" fill="#0C95ED"/>
<path d="M65.9999 9.621L69.6209 6H84.2759C84.7289 7.2705 85.7294 8.271 86.9999 8.724V29.379L83.3789 33H76.4999V36H84.6209L89.9999 30.621V8.724C91.7414 8.103 92.9999 6.453 92.9999 4.5C92.9999 2.019 90.9809 0 88.4999 0C86.5469 0 84.8969 1.2585 84.2759 3H68.3789L62.9999 8.379V16.5H65.9999V9.621ZM88.4999 3C89.3279 3 89.9999 3.672 89.9999 4.5C89.9999 5.328 89.3279 6 88.4999 6C87.6719 6 86.9999 5.328 86.9999 4.5C86.9999 3.672 87.6719 3 88.4999 3Z" fill="#0C95ED"/>
<path d="M77.6399 18.261L80.9999 21.621V23.379L77.3789 27H76.4999V30H78.6209L83.9999 24.621V20.379L78.6209 15H77.7239C77.1029 13.2585 75.4529 12 73.4999 12C71.0189 12 68.9999 14.019 68.9999 16.5C68.9999 18.981 71.0189 21 73.4999 21C75.3569 21 76.9529 19.869 77.6399 18.261ZM73.4999 18C72.6719 18 71.9999 17.328 71.9999 16.5C71.9999 15.672 72.6719 15 73.4999 15C74.3279 15 74.9999 15.672 74.9999 16.5C74.9999 17.328 74.3279 18 73.4999 18Z" fill="#0C95ED"/>
<path d="M93.0001 39H76.5001V42H93.0001V39Z" fill="#0C95ED"/>
<path d="M90.0001 84.276V50.379L84.6211 45H76.5001V48H83.3791L87.0001 51.621V59.379L84.6211 57H76.5001V60H83.3791L87.0001 63.621V84.276C85.2571 84.897 84.0001 86.547 84.0001 88.5C84.0001 90.981 86.0191 93 88.5001 93C90.9811 93 93.0001 90.981 93.0001 88.5C93.0001 86.547 91.7416 84.897 90.0001 84.276ZM88.5001 90C87.6721 90 87.0001 89.328 87.0001 88.5C87.0001 87.672 87.6721 87 88.5001 87C89.3281 87 90.0001 87.672 90.0001 88.5C90.0001 89.328 89.3281 90 88.5001 90Z" fill="#0C95ED"/>
<path d="M82.5001 51H76.5001V54H82.5001V51Z" fill="#0C95ED"/>
<path d="M83.9999 68.379L78.6209 63H76.4999V66H77.3789L80.9999 69.621V78H65.9999V76.5H62.9999V81H80.9999V83.379L77.3789 87H74.7239C74.1029 85.2585 72.4529 84 70.4999 84C68.0189 84 65.9999 86.019 65.9999 88.5C65.9999 90.981 68.0189 93 70.4999 93C72.4529 93 74.1029 91.7415 74.7239 90H78.6209L83.9999 84.621V68.379ZM70.4999 90C69.6719 90 68.9999 89.328 68.9999 88.5C68.9999 87.672 69.6719 87 70.4999 87C71.3279 87 71.9999 87.672 71.9999 88.5C71.9999 89.328 71.3279 90 70.4999 90Z" fill="#0C95ED"/>
<path d="M30 76.5H27V78H19.224C18.603 76.2585 16.953 75 15 75C12.519 75 10.5 77.019 10.5 79.5C10.5 81.981 12.519 84 15 84C16.953 84 18.603 82.7415 19.224 81H30V76.5ZM15 81C14.172 81 13.5 80.328 13.5 79.5C13.5 78.672 14.172 78 15 78C15.828 78 16.5 78.672 16.5 79.5C16.5 80.328 15.828 81 15 81Z" fill="#0C95ED"/>
<path d="M60 76.5H57V93H60V76.5Z" fill="#0C95ED"/>
<path d="M54 76.5H51V93H54V76.5Z" fill="#0C95ED"/>
<path d="M45 78.879L42 81.879V76.5H39V84.276C37.257 84.897 36 86.547 36 88.5C36 90.981 38.019 93 40.5 93C42.981 93 45 90.981 45 88.5C45 87.0345 44.286 85.7445 43.1985 84.9225L48 80.121V76.5H45V78.879ZM40.5 90C39.672 90 39 89.328 39 88.5C39 87.672 39.672 87 40.5 87C41.328 87 42 87.672 42 88.5C42 89.328 41.328 90 40.5 90Z" fill="#0C95ED"/>
<path d="M36.0001 76.5H33.0001V80.379L28.5001 84.879V93H31.5001V86.121L36.0001 81.621V76.5Z" fill="#0C95ED"/>
<path d="M62.9999 73.5H65.9999V70.5H70.4999V66H73.4999V63H70.4999V60H73.4999V57H70.4999V54H73.4999V51H70.4999V48H73.4999V45H70.4999V42H73.4999V39H70.4999V36H73.4999V33H70.4999V30H73.4999V27H70.4999V22.5H65.9999V19.5H62.9999V22.5H59.9999V19.5H56.9999V22.5H53.9999V19.5H50.9999V22.5H47.9999V19.5H44.9999V22.5H41.9999V19.5H38.9999V22.5H35.9999V19.5H32.9999V22.5H29.9999V19.5H26.9999V22.5H26.3789L22.4999 26.379V27H19.4999V30H22.4999V33H19.4999V36H22.4999V39H19.4999V42H22.4999V45H19.4999V48H22.4999V51H19.4999V54H22.4999V57H19.4999V60H22.4999V63H19.4999V66H22.4999V70.5H26.9999V73.5H29.9999V70.5H32.9999V73.5H35.9999V70.5H38.9999V73.5H41.9999V70.5H44.9999V73.5H47.9999V70.5H50.9999V73.5H53.9999V70.5H56.9999V73.5H59.9999V70.5H62.9999V73.5ZM25.4999 67.5V27.621L27.6209 25.5H67.4999V67.5H25.4999Z" fill="#0C95ED"/>
<path d="M59.7916 39.5715L62.4091 36.954L56.0461 30.591L53.4286 33.2085C52.6486 32.799 51.8371 32.463 51.0001 32.199V28.5H42.0001V32.199C41.1616 32.463 40.3501 32.799 39.5716 33.2085L36.9541 30.591L30.5911 36.954L33.2086 39.5715C32.8006 40.3515 32.4631 41.163 32.1991 42H28.5001V51H32.1991C32.4631 51.8385 32.7991 52.65 33.2086 53.4285L30.5911 56.046L36.9541 62.409L39.5716 59.7915C40.3516 60.1995 41.1616 60.537 42.0001 60.801V64.5H51.0001V60.801C51.8386 60.537 52.6501 60.201 53.4286 59.7915L56.0461 62.409L62.4091 56.046L59.7916 53.4285C60.1996 52.65 60.5371 51.8385 60.8011 51H64.5001V42H60.8011C60.5371 41.1615 60.2011 40.35 59.7916 39.5715ZM61.5001 48H58.4581L58.1926 49.167C57.8926 50.4825 57.3736 51.7305 56.6521 52.878L56.0131 53.892L58.1686 56.0475L56.0476 58.1685L53.8921 56.013L52.8781 56.652C51.7306 57.3735 50.4826 57.8925 49.1671 58.1925L48.0001 58.458V61.5H45.0001V58.458L43.8331 58.1925C42.5176 57.8925 41.2696 57.3735 40.1221 56.652L39.1081 56.013L36.9526 58.1685L34.8316 56.0475L36.9871 53.892L36.3481 52.878C35.6266 51.7305 35.1076 50.4825 34.8076 49.167L34.5421 48H31.5001V45H34.5421L34.8076 43.833C35.1076 42.5175 35.6266 41.2695 36.3481 40.122L36.9871 39.108L34.8316 36.9525L36.9526 34.8315L39.1081 36.9855L40.1221 36.3465C41.2696 35.625 42.5176 35.106 43.8331 34.806L45.0001 34.542V31.5H48.0001V34.542L49.1671 34.8075C50.4826 35.1075 51.7306 35.6265 52.8781 36.348L53.8921 36.987L56.0476 34.833L58.1686 36.954L56.0131 39.1095L56.6521 40.1235C57.3736 41.271 57.8926 42.519 58.1926 43.8345L58.4581 45H61.5001V48Z" fill="#0C95ED"/>
<path d="M46.5 39C42.3645 39 39 42.3645 39 46.5C39 50.6355 42.3645 54 46.5 54C50.6355 54 54 50.6355 54 46.5C54 42.3645 50.6355 39 46.5 39ZM46.5 51C44.019 51 42 48.981 42 46.5C42 44.019 44.019 42 46.5 42C48.981 42 51 44.019 51 46.5C51 48.981 48.981 51 46.5 51Z" fill="#0C95ED"/>
</g>
<defs>
<clipPath id="clip0">
<rect width="93" height="93" fill="white"/>
</clipPath>
</defs>
</svg>
