<svg width="95" height="96" viewBox="0 0 95 96" fill="none" xmlns="http://www.w3.org/2000/svg">
<g clip-path="url(#clip0)">
<path d="M25.3714 69.6057C25.2511 69.6057 25.13 69.5925 25.0097 69.5684C24.8908 69.5435 24.7741 69.5083 24.6633 69.4614C24.5516 69.4146 24.4436 69.356 24.3422 69.2886C24.2414 69.2212 24.145 69.1428 24.0602 69.0564C23.9747 68.97 23.8964 68.874 23.8297 68.7715C23.7631 68.6697 23.7058 68.5613 23.6594 68.447C23.613 68.3342 23.5775 68.2163 23.5536 68.0962C23.529 67.9761 23.5166 67.8523 23.5166 67.7307C23.5166 67.2378 23.7145 66.7537 24.0602 66.405C24.1458 66.3186 24.2414 66.2402 24.3422 66.1707C24.4444 66.1033 24.5516 66.0447 24.6633 65.9978C24.7741 65.9509 24.8908 65.9158 25.0097 65.8916C25.2496 65.8425 25.496 65.8425 25.7352 65.8916C25.8541 65.9158 25.9715 65.9509 26.0824 65.9978C26.194 66.0447 26.3013 66.1033 26.4035 66.1707C26.5035 66.2402 26.5984 66.3186 26.6854 66.405C27.0304 66.7537 27.229 67.2356 27.229 67.7307C27.229 67.8523 27.216 67.9761 27.1921 68.0962C27.1681 68.2163 27.1326 68.3342 27.0862 68.447C27.0398 68.5613 26.9826 68.6697 26.9159 68.7715C26.8471 68.874 26.771 68.97 26.6854 69.0564C26.5984 69.1428 26.5035 69.2212 26.4035 69.2886C26.3013 69.356 26.194 69.4146 26.0824 69.4614C25.9715 69.5083 25.8541 69.5435 25.7359 69.5684C25.6149 69.5925 25.4939 69.6057 25.3714 69.6057Z" fill="#0C95ED"/>
<path d="M75.9923 33.9675C75.8698 33.9675 75.7495 33.9565 75.6292 33.9316C75.5103 33.9075 75.3951 33.8716 75.282 33.8247C75.1704 33.7778 75.0631 33.72 74.9631 33.6526C74.8609 33.583 74.7659 33.5046 74.6804 33.4182C74.5934 33.3318 74.5173 33.2366 74.4485 33.1333C74.3818 33.0322 74.3245 32.9231 74.2781 32.8103C74.2318 32.696 74.1962 32.5781 74.1723 32.4602C74.1484 32.3379 74.1368 32.2148 74.1368 32.0925C74.1368 31.9709 74.1484 31.8472 74.1723 31.7271C74.1962 31.6069 74.2318 31.489 74.2781 31.3762C74.3245 31.262 74.3818 31.1528 74.4485 31.0518C74.5173 30.9485 74.5934 30.8533 74.6804 30.7668C74.7659 30.6804 74.8609 30.6021 74.9631 30.5347C75.0631 30.4666 75.1704 30.4087 75.282 30.3618C75.3951 30.3149 75.5103 30.2791 75.6292 30.2549C75.8683 30.2065 76.1148 30.2065 76.3547 30.2549C76.4728 30.2791 76.5902 30.3149 76.7011 30.3618C76.8127 30.4087 76.9222 30.4666 77.0222 30.5347C77.1244 30.6021 77.2186 30.6804 77.3042 30.7668C77.3897 30.8533 77.468 30.9485 77.5346 31.0518C77.6013 31.1528 77.6586 31.262 77.705 31.3762C77.7514 31.489 77.7869 31.6069 77.8108 31.7271C77.8347 31.8472 77.8477 31.9709 77.8477 32.0925C77.8477 32.2141 77.8347 32.3379 77.8108 32.4602C77.7869 32.5781 77.7514 32.696 77.705 32.8103C77.6586 32.9231 77.6013 33.0322 77.5346 33.1333C77.468 33.2366 77.3897 33.3318 77.3042 33.4182C77.2194 33.5046 77.1244 33.583 77.0222 33.6526C76.9222 33.72 76.8127 33.7778 76.7011 33.8247C76.5902 33.8716 76.4728 33.9075 76.3547 33.9316C76.2358 33.9565 76.1133 33.9675 75.9923 33.9675Z" fill="#0C95ED"/>
<path d="M94.8587 52.585C94.5716 51.884 93.8954 51.4277 93.1445 51.4277H77.8478V44.5723H84.434C84.4361 44.5723 84.4383 44.573 84.4412 44.573C84.4724 44.573 84.5043 44.5715 84.5354 44.5701C84.5412 44.5701 84.5463 44.5693 84.5521 44.5693C84.5608 44.5686 84.5702 44.5679 84.5797 44.5671C84.5913 44.5664 84.6036 44.5657 84.6152 44.5642C84.6181 44.5642 84.6202 44.5642 84.6224 44.5635C84.9167 44.5349 85.1899 44.4368 85.4277 44.2859C85.4277 44.2859 85.4277 44.2859 85.4284 44.2852C85.4393 44.2786 85.4509 44.2705 85.4617 44.2632C85.4646 44.2617 85.4668 44.2603 85.469 44.2588C85.4784 44.2522 85.4878 44.2456 85.4972 44.239C85.5009 44.2368 85.5045 44.2339 85.5081 44.2317C85.5161 44.2258 85.5233 44.2207 85.5313 44.2148C85.5364 44.2104 85.5415 44.2075 85.5465 44.2039C85.5523 44.1987 85.5589 44.1943 85.5647 44.1899C85.5712 44.1848 85.5777 44.1804 85.5835 44.1753C85.5886 44.1709 85.5936 44.1672 85.598 44.1628C85.6052 44.1577 85.6125 44.1519 85.6197 44.1453C85.6234 44.1431 85.6263 44.1394 85.6299 44.1372C85.6386 44.1299 85.6466 44.1226 85.6545 44.116C85.6567 44.1138 85.6589 44.1123 85.661 44.1101C85.6929 44.0823 85.7234 44.0537 85.7531 44.0229L94.4564 35.2288C94.8043 34.8765 95 34.3997 95 33.9023V2.4375C95 2.34155 94.9928 2.2478 94.979 2.15552C95.0283 1.8252 94.9906 1.48022 94.8587 1.15796C94.5716 0.457031 93.8954 0 93.1445 0H61.4501C60.9579 0 60.4861 0.197754 60.1382 0.549317L51.4356 9.34424C51.4255 9.35376 51.4161 9.36328 51.4066 9.37354C51.4045 9.37646 51.4016 9.37866 51.3994 9.38086C51.3921 9.38892 51.3856 9.39624 51.3784 9.40356C51.3755 9.40723 51.3726 9.41016 51.3697 9.41309C51.3631 9.42041 51.3566 9.42847 51.3501 9.43579C51.3472 9.43872 51.345 9.44165 51.3428 9.44458C51.3342 9.45483 51.3255 9.46436 51.3175 9.47461C51.3146 9.47827 51.3117 9.48193 51.3088 9.4856C51.303 9.49219 51.2979 9.49878 51.2921 9.5061C51.2885 9.51123 51.2841 9.51636 51.2805 9.52075C51.2769 9.52588 51.2733 9.53101 51.2689 9.53613C51.2646 9.54272 51.2595 9.54858 51.2551 9.55518C51.253 9.55737 51.2515 9.5603 51.2494 9.5625C51.0479 9.84009 50.921 10.1755 50.8964 10.5396V10.541C50.8949 10.5586 50.8942 10.5754 50.8935 10.593C50.8935 10.5996 50.8928 10.6062 50.8928 10.6128C50.8928 10.6194 50.892 10.6252 50.892 10.6318V10.6589V10.6699V20.2236H44.108V2.4375C44.108 2.34155 44.0993 1.48022 43.9666 1.15796C43.6796 0.457031 43.0034 0 42.2525 0H10.5588C10.0666 0 9.5948 0.197754 9.2469 0.549317L0.543594 9.34424C0.522575 9.36475 0.302963 9.64233 0.302238 9.6438C0.141335 9.89282 0.0369645 10.1829 0.00797273 10.4949C0.00724792 10.5015 0.00652312 10.5088 0.00652312 10.5154C0.00579834 10.5212 0.00507356 10.5264 0.00507356 10.5322C0.00144958 10.5828 0 42.6973 0 42.6973C0 43.7329 0.830612 44.5723 1.85547 44.5723H23.5173V51.4277H10.5588C10.0666 51.4277 9.5948 51.6255 9.2469 51.9771L0.543594 60.7712C0.522575 60.7925 0 61.3674 0 62.1123V94.125C0 95.1606 0.830612 96 1.85547 96H33.5419C34.3182 96 34.8589 95.4536 34.8618 95.4507L43.5644 86.6558C43.9123 86.3042 44.108 85.8274 44.108 85.3301V75.9639H50.892V94.125C50.892 95.1606 51.7226 96 52.7475 96H84.434C85.174 96 85.7234 95.4814 85.7531 95.4507L94.4564 86.6558C94.8043 86.3042 95 85.8274 95 85.3301V53.8652C95 53.7693 94.9913 52.9072 94.8587 52.585ZM88.6646 55.1777L83.6729 60.2219H57.2267L62.2191 55.1777H74.1368V56.7502C74.1368 57.7859 74.9675 58.6252 75.9923 58.6252C77.0164 58.6252 77.8478 57.7859 77.8478 56.7502V55.1777H88.6646ZM54.603 12.5449H74.1361V24.8738C74.1361 25.9094 74.9675 26.7488 75.9916 26.7488C77.0164 26.7488 77.8471 25.9094 77.8471 24.8738V12.5449H82.5858V40.8223H54.603V12.5449ZM86.2967 38.1709V11.4463L91.2891 6.4021V33.126L86.2967 38.1709ZM62.2191 3.75H88.6646L83.6729 8.79492H57.2267L62.2191 3.75ZM39.2004 23.9736H40.397V33.126L35.4054 38.1709V11.4463L40.397 6.4021V20.2236H39.2004C38.1755 20.2236 37.3449 21.063 37.3449 22.0986C37.3449 23.1343 38.1755 23.9736 39.2004 23.9736ZM11.3271 3.75H37.7733L32.7809 8.79492H6.33541L11.3271 3.75ZM3.71094 12.5449H31.6945V40.8223H3.71094V12.5449ZM11.3271 55.1777H23.5173V56.8748C23.5173 57.9104 24.348 58.7498 25.3728 58.7498C26.3969 58.7498 27.2283 57.9104 27.2283 56.8748V55.1777H37.7733L32.7809 60.2219H6.33541L11.3271 55.1777ZM3.71094 63.9719H31.6945V92.25H27.2283V74.9487C27.2283 73.9131 26.3969 73.0737 25.3728 73.0737C24.348 73.0737 23.5173 73.9131 23.5173 74.9487V92.25H3.71094V63.9719ZM40.397 84.5537L35.4054 89.5986V62.874L40.397 57.8291V72.2139H39.2004C38.1755 72.2139 37.3449 73.0532 37.3449 74.0889C37.3449 75.1245 38.1755 75.9639 39.2004 75.9639H40.397V84.5537ZM44.108 72.2139V54.0527C44.108 53.9238 44.1116 52.938 43.9666 52.585C43.6796 51.884 43.0034 51.4277 42.2525 51.4277H27.2283V44.5723H33.5419C33.5441 44.5723 33.7282 44.5642 33.7304 44.5635C34.0406 44.5334 34.3276 44.4258 34.5741 44.261C34.5748 44.261 34.8589 44.0259 34.8618 44.0229L43.5644 35.2288C43.9123 34.8772 44.108 34.4004 44.108 33.9031V23.9736H50.892V42.6973C50.892 43.7329 51.7226 44.5723 52.7475 44.5723H74.1368V51.4277H61.4501C60.9579 51.4277 60.4861 51.6255 60.1382 51.9771L51.4356 60.7712C51.4255 60.7808 50.892 61.2927 50.892 62.0969V72.2139H44.108ZM54.603 63.9719H82.5858V92.25H54.603V63.9719ZM86.2967 89.5986V62.874L91.2891 57.8291V84.5537L86.2967 89.5986Z" fill="#0C95ED"/>
</g>
<defs>
<clipPath id="clip0">
<rect width="95" height="96" fill="white"/>
</clipPath>
</defs>
</svg>
