<svg width="105" height="96" viewBox="0 0 105 104" fill="none" xmlns="http://www.w3.org/2000/svg">
<g clip-path="url(#clip0)">
<path d="M84.8632 34.9243C77.7095 17.2241 57.4232 8.61927 39.5529 15.7048C30.7034 19.2136 23.6912 26.1591 20.1486 34.9243C19.7554 35.8975 20.2334 37.0019 21.2159 37.391C22.1984 37.7801 23.3131 37.307 23.7063 36.3338C30.0867 20.57 48.161 12.9139 64.0764 19.2336C71.9475 22.3589 78.1854 28.5377 81.3411 36.3338C81.736 37.2923 82.8353 37.758 83.8077 37.3792C84.782 36.9881 85.2536 35.891 84.8632 34.9243Z" fill="#0C95ED"/>
<path d="M65.4735 42.618C64.4258 40.0567 62.6244 37.867 60.303 36.3338C53.9433 32.065 45.2936 33.7109 40.9838 40.01C40.4246 40.8273 39.9559 41.7015 39.5853 42.618C39.1922 43.5911 39.6701 44.6956 40.6526 45.0846C41.6351 45.474 42.7499 45.0007 43.143 44.0275C45.2082 38.893 51.085 36.3887 56.2688 38.4343C58.8467 39.4515 60.8888 41.4742 61.9158 44.0275C62.3089 45.0007 63.4237 45.4737 64.4062 45.0846C65.3887 44.6956 65.8666 43.5911 65.4735 42.618Z" fill="#0C95ED"/>
<path d="M98.335 55.198L98.2994 55.2097H95.0263C94.5958 54.3026 94.01 53.476 93.2949 52.7666C91.6661 51.1432 89.4508 50.23 87.1401 50.2294H17.8716C14.4918 50.2397 11.4209 52.179 9.98535 55.2097H6.70041C4.92096 55.2 3.21208 55.8983 1.9568 57.1478C0.694114 58.3903 -0.0109045 60.0835 6.50842e-05 61.8463V79.2305C0.00658754 82.8735 2.98676 85.8253 6.66483 85.8317H9.94978C11.401 88.8602 14.487 90.7868 17.8716 90.7769H43.6294C44.6839 90.7769 45.5387 89.9303 45.5387 88.8857V87.1003C45.5517 83.2978 48.6609 80.2183 52.4999 80.2054C56.339 80.2183 59.4481 83.2978 59.4612 87.1003V88.921C59.4804 89.9517 60.3298 90.7771 61.3705 90.7769H87.1401C89.4508 90.7763 91.6661 89.863 93.2949 88.2397C94.01 87.5302 94.5958 86.7036 95.0263 85.7965H98.3113C100.091 85.8062 101.8 85.1079 103.055 83.8584C104.312 82.6133 105.013 80.9207 105 79.16V61.7993C104.993 58.1562 102.013 55.2044 98.335 55.198ZM9.15522 82.0495H6.70041C5.13116 82.0431 3.86077 80.7848 3.85424 79.2305V61.7993C3.85424 60.2423 5.1285 58.9802 6.70041 58.9802H9.15522V82.0495ZM92.026 82.1905C92.013 84.8577 89.833 87.0169 87.1401 87.0299H63.2798C63.2083 81.1797 58.4069 76.4707 52.4999 76.4584C46.5929 76.4707 41.7912 81.1797 41.7201 87.0299H17.8716C15.1787 87.0169 12.9987 84.8577 12.9857 82.1905V58.851C12.9987 56.1838 15.1784 54.0246 17.8716 54.0116H87.1401C89.833 54.0246 92.013 56.1838 92.026 58.851V82.1905ZM101.122 79.2305C101.123 79.9752 100.825 80.6899 100.292 81.2155C99.761 81.7432 99.0394 82.0389 98.2876 82.0378H95.8327V58.992H98.2876C99.8568 58.9984 101.127 60.2567 101.134 61.811L101.122 79.2305Z" fill="#0C95ED"/>
<path d="M45.6214 59.3561H36.2409C35.1864 59.3561 34.3316 60.2027 34.3316 61.2473C34.3316 62.2918 35.1864 63.1384 36.2409 63.1384H45.6214C46.676 63.1384 47.5307 62.2918 47.5307 61.2473C47.5307 60.2027 46.676 59.3561 45.6214 59.3561Z" fill="#0C95ED"/>
<path d="M28.4972 59.3561H19.1167C18.0622 59.3561 17.2074 60.2027 17.2074 61.2473C17.2074 62.2918 18.0622 63.1384 19.1167 63.1384H28.4972C29.5518 63.1384 30.4065 62.2918 30.4065 61.2473C30.4065 60.2027 29.5518 59.3561 28.4972 59.3561Z" fill="#0C95ED"/>
<path d="M75.0319 38.8592C70.031 26.5173 55.8758 20.5277 43.4152 25.481C37.2586 27.9283 32.3792 32.7613 29.9084 38.8592C29.5156 39.8324 29.9932 40.9368 30.9757 41.3259C31.9582 41.7153 33.0733 41.2419 33.4661 40.2688C37.7004 29.8732 49.6415 24.8456 60.1373 29.0395C65.2993 31.1021 69.3918 35.156 71.4745 40.2688C71.8677 41.2419 72.9824 41.715 73.9649 41.3259C74.9472 40.9368 75.4251 39.8324 75.0319 38.8592Z" fill="#0C95ED"/>
</g>
<defs>
<clipPath id="clip0">
<rect width="105" height="104" fill="white"/>
</clipPath>
</defs>
</svg>
