<svg width="96" height="96" viewBox="0 0 96 96" fill="none" xmlns="http://www.w3.org/2000/svg">
<path d="M63.5845 81.2578H61.6018C60.5669 81.2578 59.7275 80.4185 59.7275 79.3835C59.7275 78.3479 60.5669 77.5085 61.6018 77.5085H63.5845C64.6201 77.5085 65.4595 78.3479 65.4595 79.3835C65.4595 80.4185 64.6201 81.2578 63.5845 81.2578Z" fill="#0C95ED"/>
<path d="M34.522 81.2578H32.54C31.5044 81.2578 30.665 80.4185 30.665 79.3835C30.665 78.3479 31.5044 77.5085 32.54 77.5085H34.522C35.5576 77.5085 36.397 78.3479 36.397 79.3835C36.397 80.4185 35.5576 81.2578 34.522 81.2578Z" fill="#0C95ED"/>
<path d="M19.2502 16.5527H12.3376C7.77319 16.5527 4.06055 12.8394 4.06055 8.27563C4.06055 3.71265 7.77246 0 12.3362 0H69.5427C70.5784 0 71.4177 0.839355 71.4177 1.875C71.4177 2.90991 70.5784 3.74927 69.5427 3.74927H12.3362C9.84009 3.74927 7.80981 5.78027 7.80981 8.27563C7.80981 10.7717 9.84082 12.8027 12.3376 12.8027H19.2502C20.2859 12.8027 21.1252 13.6421 21.1252 14.6777C21.1252 15.7134 20.2859 16.5527 19.2502 16.5527Z" fill="#0C95ED"/>
<path d="M27.0872 16.552C26.9656 16.552 26.8418 16.541 26.7217 16.5168C26.6016 16.4927 26.4836 16.4568 26.3708 16.4099C26.2566 16.363 26.1482 16.3052 26.0464 16.2371C25.9438 16.1682 25.8479 16.0891 25.7615 16.0027C25.675 15.917 25.5967 15.821 25.5293 15.7178C25.4619 15.6167 25.4033 15.5083 25.3564 15.3955C25.3096 15.2812 25.2722 15.1633 25.2495 15.0432C25.2253 14.9231 25.2122 14.7993 25.2122 14.6777C25.2122 14.5554 25.2253 14.4316 25.2495 14.3123C25.2722 14.1921 25.3096 14.0742 25.3564 13.9614C25.4033 13.8472 25.4612 13.738 25.5293 13.637C25.5967 13.5337 25.675 13.4385 25.7615 13.3521C25.8479 13.2656 25.9438 13.1873 26.0464 13.1199C26.1482 13.0525 26.2566 12.9939 26.3708 12.947C26.4836 12.9001 26.6016 12.8628 26.7217 12.8401C26.9634 12.7917 27.2124 12.7917 27.4526 12.8401C27.5728 12.8628 27.6907 12.9001 27.8049 12.947C27.9177 12.9939 28.0261 13.0525 28.1279 13.1199C28.2305 13.1873 28.3264 13.2656 28.4128 13.3521C28.4985 13.4385 28.5776 13.5337 28.645 13.637C28.7124 13.738 28.771 13.8472 28.8179 13.9614C28.8647 14.0742 28.9021 14.1921 28.9241 14.3123C28.949 14.4316 28.9622 14.5554 28.9622 14.6777C28.9622 14.7993 28.949 14.9231 28.9241 15.0432C28.9021 15.1633 28.8647 15.2812 28.8179 15.3955C28.771 15.5083 28.7124 15.6167 28.645 15.7178C28.5776 15.821 28.4985 15.917 28.4128 16.0027C28.3264 16.0891 28.2305 16.1682 28.1279 16.2371C28.0261 16.3052 27.9177 16.363 27.8049 16.4099C27.6907 16.4568 27.5728 16.4927 27.4526 16.5168C27.3325 16.541 27.2087 16.552 27.0872 16.552Z" fill="#0C95ED"/>
<path d="M94.9959 81.9221C94.9109 76.3184 93.4651 69.0476 90.5757 59.6938C88.0965 51.668 84.4834 45.3025 80.1262 41.2866C75.6182 37.1316 70.4202 35.6821 65.4903 37.2048C63.211 37.9087 59.562 38.603 56.4419 39.0337V36.4768C56.4419 33.6511 54.1436 31.3528 51.3179 31.3528H49.9527C50.4961 29.8015 51.9756 28.686 53.7107 28.686H68.7949C73.1748 28.686 76.7388 25.1235 76.7388 20.7444C76.7388 16.3652 73.1748 12.8027 68.7949 12.8027H34.3645C33.3289 12.8027 32.4895 13.6421 32.4895 14.6777C32.4895 15.7126 33.3289 16.552 34.3645 16.552H68.7949C71.1072 16.552 72.9888 18.4329 72.9888 20.7444C72.9888 23.0559 71.1072 24.936 68.7949 24.936H53.7107C49.8955 24.936 46.7168 27.7141 46.0921 31.3528H44.8067C41.981 31.3528 39.6826 33.6519 39.6826 36.4768V39.0337C36.5625 38.603 32.9136 37.9087 30.6343 37.2048C25.7044 35.6821 20.5064 37.1316 15.9976 41.2866C11.6411 45.3025 8.02737 51.668 5.54812 59.6938C2.65945 69.0476 1.21365 76.3184 1.12869 81.9221C1.01443 89.4727 3.44167 94.0686 8.34158 95.5825C9.24905 95.8623 10.2136 96 11.2273 96C16.0635 95.9993 21.9822 92.8652 27.7713 87.1604C29.3819 88.3564 31.3755 89.0647 33.531 89.0647C38.8697 89.0647 43.2129 84.7214 43.2129 79.3835C43.2129 78.791 43.1587 78.2102 43.0569 77.647H53.0684C52.9658 78.2102 52.9124 78.791 52.9124 79.3835C52.9124 84.7214 57.2549 89.0647 62.5935 89.0647C64.749 89.0647 66.7427 88.3564 68.3533 87.1604C74.1431 92.866 80.0611 96 84.8972 96C85.9102 96 86.8762 95.8623 87.783 95.5825C92.6829 94.0686 95.1094 89.4727 94.9959 81.9221ZM43.4319 36.4775C43.4319 35.7195 44.0486 35.1028 44.8067 35.1028H51.3172C52.0752 35.1028 52.6926 35.7195 52.6926 36.4775V39.4351C52.303 39.4592 43.8216 39.4592 43.4319 39.4351V36.4775ZM33.531 85.3147C30.26 85.3147 27.5991 82.6538 27.5991 79.3828C27.5991 76.1125 30.26 73.4517 33.531 73.4517C36.802 73.4517 39.4629 76.1125 39.4629 79.3828C39.4629 82.6538 36.802 85.3147 33.531 85.3147ZM56.6609 79.3835C56.6609 76.1125 59.3225 73.4517 62.5935 73.4517C65.8638 73.4517 68.5254 76.1125 68.5254 79.3835C68.5254 82.6538 65.8638 85.3147 62.5935 85.3147C59.3225 85.3147 56.6609 82.6538 56.6609 79.3835ZM86.6763 91.9995C82.8714 93.1743 76.7564 90.2014 70.8801 84.3845C71.7649 82.9241 72.2747 81.2124 72.2747 79.3835C72.2747 74.0449 67.9314 69.7024 62.5935 69.7024C59.2903 69.7024 56.3679 71.365 54.6204 73.897H41.5042C39.7559 71.365 36.8343 69.7024 33.531 69.7024C28.1924 69.7024 23.8491 74.0449 23.8491 79.3835C23.8491 81.2124 24.3589 82.9241 25.2437 84.3845C19.3675 90.2021 13.2517 93.175 9.44753 91.9995C8.28518 91.6406 4.74758 90.5479 4.87795 81.9792C4.95705 76.7366 6.34866 69.8086 9.13113 60.8005C11.4148 53.406 14.6682 47.6118 18.5391 44.0442C21.0044 41.7715 24.9126 39.3618 29.5276 40.7878C33.5867 42.041 41.3841 43.2217 44.4646 43.2217H51.6592C54.7405 43.2217 62.5371 42.041 66.5962 40.7878C71.2112 39.3618 75.1194 41.7715 77.5855 44.0442C81.4563 47.6118 84.709 53.406 86.9934 60.8005C89.7759 69.8086 91.1668 76.7366 91.2459 81.9792C91.3762 90.5479 87.8386 91.6406 86.6763 91.9995Z" fill="#0C95ED"/>
<path d="M74.0178 50.3555C74.0134 46.8611 71.1694 44.02 67.6743 44.02C64.1763 44.02 61.3308 46.8655 61.3308 50.3635C61.3308 50.4126 61.3308 50.4617 61.3323 50.5107C61.2832 50.51 61.2334 50.5093 61.1843 50.5093C57.6863 50.5093 54.8408 53.3547 54.8408 56.8528C54.8408 60.3479 57.6826 63.1919 61.1763 63.1963C61.1807 66.6899 64.0247 69.5317 67.5205 69.5317C71.0186 69.5317 73.864 66.6863 73.864 63.1882C73.864 63.1392 73.8633 63.0894 73.8625 63.0403C73.9116 63.0417 73.9607 63.0425 74.0105 63.0425C77.5078 63.0425 80.354 60.1963 80.354 56.699C80.354 53.2039 77.5122 50.3599 74.0178 50.3555ZM67.6743 47.7693C69.1047 47.7693 70.2686 48.9331 70.2686 50.3635C70.2686 51.7939 69.1047 52.957 67.6743 52.957C66.2439 52.957 65.0801 51.7939 65.0801 50.3635C65.0801 48.9331 66.2439 47.7693 67.6743 47.7693ZM58.5901 56.8528C58.5901 55.4224 59.7539 54.2593 61.1843 54.2593C62.6147 54.2593 63.7786 55.4224 63.7786 56.8528C63.7786 58.2832 62.6147 59.447 61.1843 59.447C59.7539 59.447 58.5901 58.2832 58.5901 56.8528ZM67.5205 65.7825C66.0901 65.7825 64.9263 64.6186 64.9263 63.189C64.9263 61.7585 66.0901 60.5947 67.5205 60.5947C68.9509 60.5947 70.1147 61.7585 70.1147 63.189C70.1147 64.6186 68.9509 65.7825 67.5205 65.7825ZM74.0105 59.2932C72.5793 59.2932 71.4163 58.1294 71.4163 56.699C71.4163 55.2693 72.5793 54.1055 74.0105 54.1055C75.4409 54.1055 76.604 55.2693 76.604 56.699C76.604 58.1294 75.4409 59.2932 74.0105 59.2932Z" fill="#0C95ED"/>
<path d="M31.1184 68.2844H23.3035C22.2686 68.2844 21.4292 67.4451 21.4292 66.4094V62.6272H17.6448C16.6099 62.6272 15.7705 61.7878 15.7705 60.7529V52.9402C15.7705 51.9045 16.6099 51.0652 17.6448 51.0652H21.4292V47.2837C21.4292 46.248 22.2686 45.4087 23.3035 45.4087H31.1184C32.1541 45.4087 32.9934 46.248 32.9934 47.2837V51.0652H36.7771C37.8127 51.0652 38.6521 51.9045 38.6521 52.9402V60.7529C38.6521 61.7878 37.8127 62.6272 36.7771 62.6272H32.9934V66.4094C32.9927 67.4451 32.1533 68.2844 31.1184 68.2844ZM25.1785 64.5352H29.2434V60.7529C29.2434 59.7173 30.0828 58.8779 31.1184 58.8779H34.9021V54.8152H31.1184C30.0828 54.8152 29.2434 53.9758 29.2434 52.9402V49.158H25.1785V52.9402C25.1785 53.9758 24.3391 54.8152 23.3035 54.8152H19.5198V58.8779H23.3035C24.3391 58.8779 25.1785 59.7173 25.1785 60.7529V64.5352Z" fill="#0C95ED"/>
</svg>
