<svg width="480" height="320" viewBox="0 0 480 320" fill="none" xmlns="http://www.w3.org/2000/svg">
<path fill-rule="evenodd" clip-rule="evenodd" d="M350.687 129.913C339.389 114.563 326.842 100.092 313.371 86.6209C280.202 53.4471 237.152 22.3447 192.151 7.78242C162.256 -1.89252 122.373 -6.45058 97.971 17.9544C96.1372 19.7881 94.435 21.7505 92.8764 23.8235C80.4196 40.3932 78.4549 62.1045 80.9328 82.0733C84.083 107.459 94.5188 133.068 106.922 155.387C112.185 146.485 117.928 137.803 124.024 129.406C120.023 121.099 116.512 112.542 113.675 103.772C107.554 84.8549 101.412 52.9778 117.202 37.1865C132.991 21.3956 164.864 27.5393 183.778 33.6599C224.609 46.8732 264.015 75.7236 294.141 105.854C309.45 121.165 323.612 138 335.807 155.919C341.28 147.475 346.295 138.777 350.687 129.913ZM355.975 190.593C359.976 198.901 363.489 207.459 366.326 216.228C372.447 235.145 378.589 267.022 362.799 282.813C347.01 298.604 315.137 292.46 296.223 286.34C255.392 273.126 215.985 244.276 185.86 214.146C170.55 198.834 156.388 181.999 144.192 164.079C138.718 172.522 133.704 181.22 129.312 190.084C140.611 205.436 153.158 219.907 166.629 233.38C199.799 266.552 242.848 297.655 287.849 312.218C317.745 321.892 357.627 326.451 382.029 302.046C383.865 300.21 385.567 298.247 387.127 296.173C399.582 279.603 401.545 257.892 399.067 237.924C395.916 212.539 385.481 186.931 373.077 164.611C367.814 173.514 362.071 182.196 355.975 190.593Z" fill="#0C95ED"/>
<path d="M121.503 248.519H86.8587V205.01H0V179.152L86.3637 74.4808H121.503V176.169H146.992V205.01H121.503V248.519ZM86.8587 119.482L39.3462 176.169H86.8587V119.482Z" fill="white"/>
<path d="M240.191 252C224.849 252 211.403 247.69 199.855 239.071C188.637 230.618 180.058 219.679 174.119 206.253C168.345 192.827 165.458 177.909 165.458 161.5C165.458 145.256 168.263 130.505 173.872 117.245C179.811 103.321 188.555 92.1332 200.103 83.6799C211.816 75.2266 225.179 71 240.191 71C262.958 71 281.022 79.8677 294.385 97.603C307.913 115.173 314.677 136.472 314.677 161.5C314.677 186.528 307.913 207.827 294.385 225.397C281.022 243.132 262.958 252 240.191 252ZM211.733 202.026C218.992 212.966 228.478 218.435 240.191 218.435C252.07 218.435 261.473 212.966 268.402 202.026C275.496 190.921 279.043 177.412 279.043 161.5C279.043 145.422 275.496 131.996 268.402 121.223C261.473 110.117 252.07 104.565 240.191 104.565C228.313 104.565 218.827 110.117 211.733 121.223C204.64 131.996 201.093 145.422 201.093 161.5C201.093 177.412 204.64 190.921 211.733 202.026Z" fill="white"/>
<path d="M454.512 248.519H419.867V205.01H333.008V179.152L419.372 74.4808H454.512V176.169H480V205.01H454.512V248.519ZM419.867 119.482L372.355 176.169H419.867V119.482Z" fill="white"/>
<path fill-rule="evenodd" clip-rule="evenodd" d="M209.915 49.3133C194.564 60.6113 180.093 73.1584 166.621 86.6292C133.447 119.799 102.345 162.848 87.7824 207.849C78.1074 237.745 73.5495 277.628 97.9543 302.03C99.7892 303.864 101.751 305.567 103.825 307.126C120.395 319.582 142.106 321.545 162.075 319.066C187.46 315.916 213.068 305.481 235.388 293.078C226.486 287.815 217.803 282.072 209.407 275.976C201.099 279.976 192.542 283.488 183.772 286.326C164.855 292.447 132.978 298.588 117.187 282.799C101.396 267.01 107.54 235.136 113.661 216.223C126.874 175.392 155.724 135.986 185.854 105.86C201.165 90.5499 218.001 76.3882 235.921 64.1922C227.477 58.7193 218.779 53.7047 209.915 49.3133ZM270.594 44.025C278.9 40.0233 287.458 36.5123 296.229 33.6743C315.145 27.5544 347.022 21.4113 362.813 37.2009C378.604 52.9904 372.461 84.8634 366.34 103.778C353.127 144.608 324.276 184.015 294.146 214.141C278.835 229.451 261.999 243.612 244.08 255.808C252.523 261.281 261.221 266.296 270.085 270.687C285.436 259.39 299.907 246.843 313.379 233.372C346.553 200.202 377.655 157.153 392.218 112.151C401.893 82.2558 406.45 42.3732 382.045 17.9709C380.211 16.1362 378.249 14.4338 376.174 12.8752C359.605 0.419307 337.894 -1.54536 317.925 0.933122C292.54 4.08346 266.932 14.5192 244.613 26.9229C253.514 32.1868 262.197 37.9283 270.594 44.025Z" fill="#EF202F"/>
</svg>
