<svg width="16" height="16" viewBox="0 0 16 16" fill="none" xmlns="http://www.w3.org/2000/svg">
<path d="M12.9549 11.0976C12.8914 11.0976 12.828 11.0744 12.7784 11.0274L9.80977 8.24246C9.70607 8.14547 9.70091 7.98192 9.79842 7.87822C9.89593 7.77348 10.0585 7.76884 10.1632 7.86686L13.1318 10.6519C13.2355 10.7488 13.2407 10.9124 13.1432 11.0161C13.0921 11.0703 13.024 11.0976 12.9549 11.0976Z" fill="black"/>
<path d="M3.04533 11.0981C2.97671 11.0981 2.90809 11.0708 2.85702 11.0166C2.75951 10.9129 2.76466 10.7494 2.86837 10.6524L5.83806 7.86738C5.94227 7.77038 6.10582 7.77451 6.20282 7.87873C6.30033 7.98243 6.29517 8.14598 6.19147 8.24297L3.22178 11.028C3.17225 11.0749 3.10879 11.0981 3.04533 11.0981Z" fill="black"/>
<path d="M14.7102 13.6871H1.28982C0.578873 13.6871 0 13.1087 0 12.3972V3.6022C0 2.89073 0.578873 2.31238 1.28982 2.31238H14.7102C15.4211 2.31238 16 2.89073 16 3.6022V12.3972C16 13.1087 15.4211 13.6871 14.7102 13.6871ZM1.28982 2.82831C0.86315 2.82831 0.515929 3.17553 0.515929 3.6022V12.3972C0.515929 12.8239 0.86315 13.1711 1.28982 13.1711H14.7102C15.1369 13.1711 15.4841 12.8239 15.4841 12.3972V3.6022C15.4841 3.17553 15.1369 2.82831 14.7102 2.82831H1.28982Z" fill="black"/>
<path d="M8.00015 9.29604C7.65706 9.29604 7.31396 9.18203 7.0529 8.9545L0.428371 3.17557C0.321058 3.08219 0.309707 2.91916 0.403091 2.81133C0.497506 2.70401 0.660023 2.69421 0.767337 2.78656L7.39187 8.56497C7.72155 8.85235 8.27875 8.85235 8.60791 8.56497L15.2242 2.79585C15.331 2.70247 15.4935 2.71279 15.5884 2.82061C15.6818 2.92844 15.671 3.09096 15.5637 3.18486L8.9474 8.95398C8.68582 9.18202 8.34324 9.29604 8.00015 9.29604Z" fill="black"/>
</svg>
