<svg width="238" height="43" viewBox="0 0 238 43" fill="none" xmlns="http://www.w3.org/2000/svg">
<path fill-rule="evenodd" clip-rule="evenodd" d="M36.4175 25.1485C36.9481 26.2439 37.404 27.3739 37.7822 28.5308C38.5931 31.0031 39.3991 35.2358 37.3174 37.3176C35.2357 39.3993 31.0277 38.5933 28.5306 37.7824C23.1458 36.0418 17.9439 32.2344 13.9683 28.2588C11.9343 26.2322 10.0935 24.0206 8.46974 21.6526C7.74407 22.7569 7.08364 23.9028 6.49184 25.0843C7.99538 27.1086 9.64824 29.0177 11.4366 30.7954C15.8127 35.1716 21.4942 39.2757 27.4328 41.1794C31.3886 42.4552 36.64 43.0535 39.859 39.8344C40.1066 39.5944 40.3363 39.3366 40.5463 39.0631C42.1929 36.8725 42.4501 34.0095 42.1237 31.374C41.7083 28.0264 40.3288 24.6491 38.692 21.7021C37.9998 22.8789 37.2432 24.0211 36.4372 25.1288L36.4175 25.1485ZM35.7202 17.143C34.2178 15.1178 32.5648 13.2087 30.7755 11.4318C26.4192 7.05572 20.7377 2.96641 14.799 1.02807C10.8778 -0.247678 5.5919 -0.850937 2.37287 2.37304C2.13041 2.61362 1.90566 2.87142 1.70038 3.14442C0.0537805 5.33 -0.203346 8.19795 0.123007 10.8335C0.538366 14.1811 1.91301 17.5584 3.54972 20.5054C4.24693 19.3286 5.00347 18.1863 5.80947 17.0787C5.27845 15.9842 4.82409 14.854 4.44966 13.6965C3.63872 11.1994 2.82778 6.99143 4.91447 4.90969C7.00115 2.82796 11.1992 3.63395 13.6963 4.44983C19.0812 6.19038 24.283 9.99784 28.2586 13.9734C30.291 15.9997 32.1316 18.2095 33.7572 20.5747C34.4778 19.47 35.1333 18.3241 35.7202 17.143Z" fill="#D0D0D0"/>
<path fill-rule="evenodd" clip-rule="evenodd" d="M25.149 5.80947C26.2436 5.27845 27.3737 4.82409 28.5312 4.44966C31.0036 3.63872 35.2363 2.82778 37.3181 4.91447C39.3998 7.00115 38.5938 11.2042 37.7829 13.7013C36.0423 19.0812 32.2349 24.283 28.2593 28.2586C26.2314 30.2912 24.02 32.1319 21.6531 33.7572C22.7574 34.4829 23.9033 35.1433 25.0848 35.7351C27.109 34.2313 29.018 32.5785 30.7959 30.7903C35.172 26.4142 39.2762 20.7327 41.1799 14.7941C42.4754 10.8778 43.0737 5.5919 39.8547 2.37287C39.6078 2.12966 39.3434 1.90489 39.0636 1.70038C36.8928 0.0537805 34.0298 -0.203346 31.3943 0.123007C28.0467 0.538366 24.6694 1.91301 21.7223 3.54972C22.8992 4.24693 24.0414 5.00347 25.149 5.80947ZM17.1435 6.50668C15.1181 8.00895 13.209 9.66189 11.4323 11.4514C7.0562 15.8226 2.9669 21.4893 1.02856 27.4279C-0.24719 31.3837 -0.850449 36.635 2.37353 39.8541C2.61341 40.1033 2.87123 40.3347 3.14491 40.5463C5.33049 42.1929 8.19844 42.4501 10.834 42.1237C14.1816 41.7083 17.5588 40.3288 20.5059 38.692C19.3291 37.9998 18.1868 37.2432 17.0792 36.4372C15.9838 36.9678 14.8539 37.4238 13.697 37.802C11.1999 38.6129 6.99192 39.4189 4.91018 37.3372C2.82844 35.2554 3.63444 31.0277 4.45032 28.5306C6.19087 23.1458 9.99833 17.9439 13.9739 13.9683C16.0002 11.936 18.21 10.0953 20.5751 8.46974C19.4705 7.74913 18.3246 7.09366 17.1435 6.50668Z" fill="#D0D0D0"/>
<path d="M237.999 30.3798L229.969 20.5793L237.075 11.8667H232.55L225.479 20.4409V11.8667H221.687V30.3798H225.479V20.7178L233.426 30.3798H237.999ZM208.791 20.5249V15.1846H211.965C213.676 15.1846 214.774 16.2527 214.774 17.8251C214.774 19.3975 213.731 20.5249 211.965 20.5249H208.791ZM204.998 30.3798H208.791V23.8379H211.965C215.842 23.8379 218.651 21.3655 218.651 17.8251C218.651 14.2847 215.842 11.8667 211.965 11.8667H204.998V30.3798ZM196.038 24.8466H191.094L193.566 18.5866L196.038 24.8466ZM198.397 30.3798H202.471L194.214 11.5057H192.948L184.66 30.3798H188.735L189.773 27.9668H197.359L198.397 30.3798ZM166.686 30.3798H170.479V15.2687H178.391V30.3798H182.178V11.8667H166.686V30.3798ZM164.16 30.3798L158.063 20.9452L163.764 11.8667H159.467L155.927 17.7114L152.361 11.8667H148.035L153.82 20.97L147.669 30.3798H151.995L155.927 24.2286L159.882 30.3798H164.16ZM133.344 30.3798H146.151V26.9531H137.136V22.2507H143.51V19.0366H137.136V15.2687H145.815V11.8667H133.344V30.3798ZM121.101 30.3798H124.888V15.2687H130.847V11.8667H115.172V15.2934H121.106L121.101 30.3798ZM114.134 24.906C114.158 24.0103 113.917 23.1273 113.442 22.3675C112.967 21.6077 112.279 21.0046 111.463 20.6337C112.036 20.193 112.5 19.6278 112.821 18.981C113.142 18.3342 113.312 17.6227 113.318 16.9004C113.318 13.5578 110.959 11.5057 107.166 11.5057C105.779 11.4535 104.406 11.8088 103.218 12.5275C102.03 13.2463 101.079 14.2972 100.481 15.5505L103.122 17.4345C104.051 15.8324 105.342 15.0165 106.969 15.0165C108.595 15.0165 109.584 15.8868 109.584 17.207C109.584 18.5273 108.684 19.3431 107.112 19.3431H104.946V22.4633H107.389C109.367 22.4633 110.395 23.3583 110.395 24.7082C110.395 26.251 108.966 27.2102 107.053 27.2102C105.139 27.2102 103.626 26.3103 102.419 24.5104L99.7789 26.424C101.129 29.0892 103.794 30.721 107.082 30.721C111.35 30.721 114.134 28.3871 114.134 24.906ZM95.3138 11.5057L84.47 23.2396V11.8667H80.6773V30.721H81.9135L92.792 18.8932V30.3798H96.5846V11.5057H95.3138ZM64.8393 25.44C61.6055 25.2966 59.7264 23.7835 59.7264 21.059C59.7264 18.3344 61.6648 16.7026 64.8393 16.5642V25.44ZM73.7992 20.9897C73.7992 23.7687 71.8609 25.3708 68.6319 25.44V16.5395C71.8856 16.673 73.7992 18.191 73.7992 20.9749V20.9897ZM68.6319 28.6788C73.8536 28.4514 77.5325 25.712 77.5325 21.0095C77.5325 16.3071 73.8536 13.538 68.6319 13.3105V11.2832H64.8393V13.3501C62.1692 13.4638 60.033 14.1957 58.4111 15.5159C56.7893 16.8362 55.9932 18.6311 55.9932 20.9551C55.9932 25.6477 59.6177 28.481 64.8443 28.7085V30.9534H68.6369L68.6319 28.6788Z" fill="#D0D0D0"/>
</svg>
