<svg width="488" height="594" viewBox="0 0 488 594" fill="none" xmlns="http://www.w3.org/2000/svg">
<path fill-rule="evenodd" clip-rule="evenodd" d="M617.206 426.219C626.198 444.783 633.926 463.934 640.335 483.541C654.079 525.443 667.739 597.179 632.458 632.46C597.176 667.742 525.859 654.082 483.538 640.338C392.276 610.839 304.114 546.31 236.736 478.932C202.264 444.585 171.065 407.103 143.546 366.97C131.247 385.686 120.054 405.105 110.024 425.129C135.506 459.438 163.519 491.793 193.828 521.923C267.995 596.089 364.285 665.647 464.934 697.911C531.977 719.533 620.977 729.673 675.533 675.117C679.729 671.048 683.622 666.679 687.182 662.043C715.089 624.918 719.446 576.396 713.915 531.728C706.876 474.993 683.494 417.755 655.755 367.808C644.023 387.753 631.201 407.112 617.541 425.884L617.206 426.219ZM605.389 290.54C579.925 256.217 551.911 223.861 521.585 193.747C447.754 119.58 351.463 50.2745 250.815 17.4233C184.358 -4.19807 94.7719 -14.4222 40.2155 40.218C36.1063 44.2954 32.2972 48.6646 28.8182 53.2914C0.911476 90.3327 -3.44633 138.939 2.08473 183.607C9.12426 240.342 32.4217 297.58 60.1608 347.527C71.9772 327.582 84.7992 308.223 98.4592 289.451C89.4595 270.9 81.7589 251.747 75.4132 232.129C61.6693 189.808 47.9255 118.491 83.2907 83.2094C118.656 47.928 189.806 61.588 232.126 75.4157C323.389 104.915 411.551 169.444 478.929 236.822C513.373 271.164 544.569 308.616 572.119 348.7C584.332 329.978 595.441 310.558 605.389 290.54Z" fill="#0C95ED"/>
<path fill-rule="evenodd" clip-rule="evenodd" d="M426.228 98.4592C444.778 89.4595 463.932 81.7589 483.55 75.4132C525.451 61.6693 597.188 47.9255 632.469 83.2907C667.751 118.656 654.091 189.889 640.347 232.21C610.848 323.389 546.319 411.551 478.94 478.929C444.572 513.377 407.092 544.573 366.978 572.119C385.694 584.418 405.114 595.611 425.138 605.641C459.444 580.155 491.799 552.143 521.932 521.837C596.098 447.67 665.655 351.379 697.92 250.731C719.877 184.358 730.017 94.7719 675.461 40.2155C671.276 36.0936 666.794 32.2843 662.052 28.8182C625.262 0.911476 576.74 -3.44633 532.072 2.08473C475.337 9.12426 418.099 32.4217 368.152 60.1608C388.097 71.9772 407.456 84.7992 426.228 98.4592ZM290.549 110.276C256.223 135.736 223.867 163.75 193.756 194.079C119.589 268.162 50.2833 364.201 17.4321 464.85C-4.18928 531.893 -14.4134 620.893 40.2268 675.449C44.2923 679.674 48.6618 683.595 53.3002 687.182C90.3415 715.089 138.948 719.446 183.615 713.915C240.351 706.876 297.589 683.494 347.536 655.755C327.59 644.023 308.232 631.201 289.46 617.541C270.895 626.534 251.744 634.261 232.138 640.671C189.817 654.414 118.5 668.075 83.2182 632.793C47.9368 597.512 61.5968 525.859 75.4244 483.538C104.923 392.276 169.452 304.114 236.831 236.736C271.172 202.291 308.625 171.095 348.709 143.546C329.987 131.333 310.567 120.224 290.549 110.276Z" fill="#0C95ED"/>
</svg>
