<svg width="904" height="900" viewBox="0 0 904 900" fill="none" xmlns="http://www.w3.org/2000/svg">
<path d="M607.32 0H218.227M607.32 0L521.729 211.814M607.32 0L337.592 328.893M607.32 0L415 327.504M607.32 0L536.996 24.0636M607.32 0L464.822 201.17L521.729 211.814M218.227 0L521.729 211.814M218.227 0L337.592 328.893M218.227 0L438 32M218.227 0L536.533 276.138M218.227 0L673 173M218.227 0L351.934 389.977M521.729 211.814L438 32M521.729 211.814L583.724 233.564L438 32M337.592 328.893L132.5 201.17M337.592 328.893L415 327.504M337.592 328.893L289.939 373.318M337.592 328.893L351.934 389.977M337.592 328.893L326.951 505.205M337.592 328.893L280.685 469.109M132.5 201.17L415 327.504M132.5 201.17L291.326 315.473M132.5 201.17L289.939 373.318M415 327.504L536.996 24.0636M415 327.504L291.326 315.473M536.996 24.0636L291.326 315.473M536.996 24.0636L282.073 292.797M536.996 24.0636L225.167 153.5L282.073 292.797M291.326 315.473L280.685 348.791M291.326 315.473C291.399 315.321 291.395 315.037 291.326 314.64M282.073 292.797L275.134 327.504L280.685 348.791M282.073 292.797L280.685 348.791M282.073 292.797C285.108 299.03 290.723 311.156 291.326 314.64M280.685 348.791L289.939 361.286M280.685 348.791L285.312 361.055M289.939 361.286L291.326 314.64M289.939 361.286V373.318M289.939 373.318L285.312 361.055M289.939 373.318H280.685M289.939 373.318L287.163 402.055M438 32L536.533 276.138M438 32L607.32 285.393M438 32L691.523 342.313M438 32L904 222.5L691.523 342.313M536.533 276.138L673 173M536.533 276.138L511.088 296.962M536.533 276.138L691.523 342.313M536.533 276.138L607.32 285.393M536.533 276.138L904 483.455M536.533 276.138L611 353.5M673 173L351.934 389.977M673 173L456.032 368.69M673 173L511.088 296.962M351.934 389.977L326.951 505.205M351.934 389.977L494.5 923M351.934 389.977L306 704.192M351.934 389.977L456.032 368.69M351.934 389.977L456.032 414.5M326.951 505.205L280.685 469.109M326.951 505.205L494.5 923M326.951 505.205L356.161 607.338M280.685 469.109L287.163 402.055M280.685 469.109L356.161 607.338M280.685 469.109L251.076 483.455M494.5 923L306 704.192M494.5 923L544.399 513.534M494.5 923L698 636M494.5 923C500.669 946.601 374.604 623.672 374.604 625.523M494.5 923L356.161 607.338M494.5 923L449.092 621.358M306 704.192L456.032 414.5M306 704.192L544.399 513.534M456.032 414.5L544.399 513.534M456.032 414.5L535.146 448.748M456.032 414.5V368.69M544.399 513.534L698 636M544.399 513.534C544.399 512.424 538.23 469.881 535.146 448.748M544.399 513.534L611 353.5M698 636L904 483.455M698 636L659.6 452.45M698 636L611 353.5M698 636L621.662 524.178M698 636L597.604 550.093M698 636L868 668M698 636L546.249 606.087M698 636L449.092 621.358M535.146 448.748L611 353.5M535.146 448.748L456.032 368.69M456.032 368.69L511.088 296.962M456.032 368.69L611 353.5M511.088 296.962L611 353.5M691.523 342.313L607.32 285.393M691.523 342.313L904 483.455M691.523 342.313L698 380.259L904 304M691.523 342.313L904 304M691.523 342.313L659.6 452.45M904 483.455L659.6 452.45M904 483.455L611 353.5M904 304L659.6 452.45M904 304L680.882 445.509L659.6 479.753M904 304L659.6 479.753M659.6 452.45V479.753M659.6 452.45L621.662 524.178M659.6 479.753L621.662 524.178M621.662 524.178L597.604 550.093M597.604 550.093L868 668M868 668L818.5 923M868 668L557.353 677.352M818.5 923L546.249 606.087M818.5 923L523.117 681.054M818.5 923L557.353 677.352M818.5 923L555.04 695.863M818.5 923L583.724 801M546.249 606.087L449.092 621.358M546.249 606.087L456.032 492.247M546.249 606.087L523.117 681.054M449.092 621.358L456.032 492.247M449.092 621.358L523.117 681.054M449.092 621.358L374.604 625.523M456.032 492.247L523.117 681.054M523.117 681.054L583.724 801M523.117 681.054L404.677 673.187M523.117 681.054L374.604 625.523M557.353 677.352L768 743.5L555.04 695.863M557.353 677.352L555.04 695.863M555.04 695.863L583.724 801M583.724 801L404.677 673.187M583.724 801C582.244 800.747 396.349 782.155 356.098 785.5M404.677 673.187L356.098 785.5M404.677 673.187L385.245 691.235M404.677 673.187L374.604 625.523M356.098 785.5L385.245 691.235M385.245 691.235L374.604 625.523M385.245 691.235L354.71 617.193M374.604 625.523L354.71 617.193M374.604 625.523L356.161 607.338M354.71 617.193L356.161 607.338M354.71 617.193L342.219 607.475M356.161 607.338L251.076 483.455M356.161 607.338L342.219 607.475M356.161 607.338L324.175 603.773M356.161 607.338L265.018 959.246M356.161 607.338L312.146 588.039M356.161 607.338L248.3 517.237M285.312 361.055L280.685 373.318M280.685 373.318L218.227 429.312M280.685 373.318L468 469.109M280.685 373.318L287.163 402.055M280.685 373.318L19 309.5M218.227 429.312L468 469.109M218.227 429.312L19 309.5M468 469.109L19 309.5M287.163 402.055L19 309.5M287.163 402.055L251.076 483.455M19 309.5L229.793 481.604M19 309.5L234.42 500.577M19 309.5L251.076 483.455M19 309.5L240.434 505.205M229.793 481.604L234.42 500.577M229.793 481.604L227.943 492.247L234.42 500.577M234.42 500.577L240.434 505.205M251.076 483.455L240.434 505.205M251.076 483.455L248.3 517.237M240.434 505.205L248.3 517.237M240.434 505.205V524.641M240.434 505.205L97.5 452.45M342.219 607.475L324.175 603.773M324.175 603.773L265.018 959.246M265.018 959.246L312.146 588.039M265.018 959.246L251.076 559.811M265.018 959.246L242.748 568.14M265.018 959.246L4 625.523M265.018 959.246L194.5 657L4 625.523M312.146 588.039L248.3 517.237M312.146 588.039L251.076 559.811M248.3 517.237L251.076 559.811M240.434 524.641L251.076 559.811M240.434 524.641L97.5 452.45M240.434 524.641L238.121 541.763M251.076 559.811L242.748 568.14M251.076 559.811L238.121 541.763M242.748 568.14L4 625.523M242.748 568.14L238.121 541.763M4 625.523L238.121 541.763M4 625.523L232.107 573.231L238.121 541.763M238.121 541.763L97.5 452.45" stroke="#E2E2E2"/>
<circle cx="455.472" cy="368.668" r="3.69869" fill="#0C95ED"/>
<circle cx="544.699" cy="513.699" r="3.69869" fill="#0C95ED"/>
<circle cx="414.699" cy="328.699" r="3.69869" fill="#0C95ED"/>
<circle cx="224.699" cy="153.699" r="3.69869" fill="#0C95ED"/>
<circle cx="290.616" cy="315.83" r="3.69869" fill="#0C95ED"/>
<circle cx="302.24" cy="315.83" r="3.69869" fill="#0C95ED"/>
<circle cx="351.908" cy="390.86" r="3.69869" fill="#0C95ED"/>
<circle cx="287.445" cy="402.485" r="3.69869" fill="#0C95ED"/>
<circle cx="247.288" cy="422.563" r="3.69869" fill="#0C95ED"/>
<circle cx="217.699" cy="429.961" r="3.69869" fill="#0C95ED"/>
<circle cx="280.048" cy="372.895" r="3.69869" fill="#0C95ED"/>
<circle cx="288.502" cy="372.895" r="3.69869" fill="#0C95ED"/>
<circle cx="281.105" cy="470.118" r="3.69869" fill="#0C95ED"/>
<circle cx="243.061" cy="459.55" r="3.69869" fill="#0C95ED"/>
<circle cx="251.515" cy="483.856" r="3.69869" fill="#0C95ED"/>
<circle cx="229.323" cy="483.856" r="3.69869" fill="#0C95ED"/>
<circle cx="233.55" cy="500.764" r="3.69869" fill="#0C95ED"/>
<circle cx="247.288" cy="517.673" r="3.69869" fill="#0C95ED"/>
<circle cx="226.153" cy="517.673" r="3.69869" fill="#0C95ED"/>
<circle cx="236.721" cy="543.035" r="3.69869" fill="#0C95ED"/>
<circle cx="239.891" cy="588.476" r="3.69869" fill="#0C95ED"/>
<circle cx="243.061" cy="567.341" r="3.69869" fill="#0C95ED"/>
<circle cx="251.515" cy="559.943" r="3.69869" fill="#0C95ED"/>
<circle cx="610.699" cy="352.699" r="3.69869" fill="#0C95ED"/>
<circle cx="698.699" cy="636.699" r="3.69869" fill="#0C95ED"/>
<circle cx="766.699" cy="742.699" r="3.69869" fill="#0C95ED"/>
<circle cx="310.694" cy="588.476" r="3.69869" fill="#0C95ED"/>
<circle cx="307.699" cy="702.699" r="3.69869" fill="#0C95ED"/>
<circle cx="325.489" cy="504.991" r="3.69869" fill="#0C95ED"/>
<circle cx="455.699" cy="493.699" r="3.69869" fill="#0C95ED"/>
<circle cx="194.699" cy="657.699" r="3.69869" fill="#0C95ED"/>
<circle cx="533.672" cy="448.983" r="3.69869" fill="#0C95ED"/>
<circle cx="464.699" cy="466.699" r="3.69869" fill="#0C95ED"/>
<circle cx="131.699" cy="201.699" r="3.69869" fill="#0C95ED"/>
<circle cx="536.843" cy="276.729" r="3.69869" fill="#0C95ED"/>
<circle cx="510.423" cy="296.808" r="3.69869" fill="#0C95ED"/>
<circle cx="608.703" cy="285.184" r="3.69869" fill="#0C95ED"/>
<circle cx="691.131" cy="343.306" r="3.69869" fill="#0C95ED"/>
<circle cx="22.6987" cy="311.699" r="3.69869" fill="#0C95ED"/>
<circle cx="659.428" cy="453.21" r="3.69869" fill="#0C95ED"/>
<circle cx="659.428" cy="479.629" r="3.69869" fill="#0C95ED"/>
<circle cx="3.69869" cy="624.699" r="3.69869" fill="#0C95ED"/>
<circle cx="448.074" cy="621.236" r="3.69869" fill="#0C95ED"/>
<circle cx="545.297" cy="606.441" r="3.69869" fill="#0C95ED"/>
<circle cx="520.991" cy="680.415" r="3.69869" fill="#0C95ED"/>
<circle cx="374.101" cy="625.463" r="3.69869" fill="#0C95ED"/>
<circle cx="404.747" cy="673.018" r="3.69869" fill="#0C95ED"/>
<circle cx="556.921" cy="677.245" r="3.69869" fill="#0C95ED"/>
<circle cx="553.751" cy="695.21" r="3.69869" fill="#0C95ED"/>
<circle cx="528.389" cy="695.21" r="3.69869" fill="#0C95ED"/>
<circle cx="406.86" cy="704.721" r="3.69869" fill="#0C95ED"/>
<circle cx="385.725" cy="692.039" r="3.69869" fill="#0C95ED"/>
<circle cx="352.965" cy="618.066" r="3.69869" fill="#0C95ED"/>
<circle cx="519.935" cy="212.267" r="3.69869" fill="#0C95ED"/>
<circle cx="582.284" cy="233.402" r="3.69869" fill="#0C95ED"/>
<circle cx="454.699" cy="415.699" r="3.69869" fill="#0C95ED"/>
<circle cx="462.869" cy="201.699" r="3.69869" fill="#0C95ED"/>
<circle cx="433.699" cy="28.6987" r="3.69869" fill="#0C95ED"/>
<circle cx="597.699" cy="550.699" r="3.69869" fill="#0C95ED"/>
<circle cx="671.699" cy="173.699" r="3.69869" fill="#0C95ED"/>
<circle cx="622.441" cy="525.07" r="3.69869" fill="#0C95ED"/>
<circle cx="337.114" cy="329.568" r="3.69869" fill="#0C95ED"/>
<circle cx="280.048" cy="348.59" r="3.69869" fill="#0C95ED"/>
<circle cx="273.707" cy="328.511" r="3.69869" fill="#0C95ED"/>
<circle cx="281.105" cy="293.638" r="3.69869" fill="#0C95ED"/>
</svg>
