<svg width="142" height="80" viewBox="0 0 142 80" fill="none" xmlns="http://www.w3.org/2000/svg">
<path fill-rule="evenodd" clip-rule="evenodd" d="M69.8428 6.86723C72.688 6.8714 75.4984 7.49341 78.0796 8.69026C80.6609 9.88712 82.9514 11.6303 84.7929 13.7992C86.6343 15.9682 87.9828 18.5111 88.745 21.2524C89.5073 23.9936 89.6651 26.8676 89.2076 29.6758C90.8736 32.03 92.3618 34.505 93.6597 37.0805C96.6743 43.1924 97.1345 47.8565 94.9473 50.0438C92.76 52.231 88.0959 51.7708 81.984 48.7562C79.8611 47.6957 77.8091 46.4987 75.841 45.1728C72.4112 46.2751 68.7441 46.4118 65.2417 45.5681C61.7393 44.7245 58.5367 42.9329 55.985 40.3898L56.7502 39.6194C59.0576 41.92 61.9307 43.5716 65.08 44.4077C68.2292 45.2438 71.5432 45.2349 74.6879 44.3817C70.7995 41.6494 67.1324 38.6151 63.7205 35.3069L62.3503 34.0038L61.0679 32.6594C55.199 26.5681 50.3798 20.0477 47.572 14.3443C44.5522 8.23234 44.0868 3.56824 46.2793 1.38097C48.4717 -0.806297 53.1307 -0.346092 59.2426 2.66851C61.8254 3.96601 64.3059 5.45778 66.6627 7.13095C67.7136 6.95464 68.7773 6.86643 69.8428 6.86723ZM56.7502 11.8985L56.7968 11.8571C58.1363 10.6608 59.6344 9.65511 61.2489 8.86835C60.4112 8.34092 59.5908 7.85831 58.7876 7.42051C53.6167 4.57655 49.7386 3.91468 48.0787 5.57969C46.4189 7.24471 47.0549 11.0815 49.9092 16.2782C51.6569 19.37 53.6598 22.3103 55.8971 25.0686C55.4745 24.0727 55.1287 23.0458 54.8629 21.9971C54.0045 18.6412 54.2631 15.6783 55.5506 13.5169C55.8723 12.9237 56.2762 12.3788 56.7502 11.8985ZM87.5064 35.0432C86.7125 36.6754 85.6981 38.1908 84.4918 39.547L84.4505 39.5935L84.2488 39.8003C82.077 41.9773 78.5609 42.6029 74.4242 41.5481C73.3539 41.273 72.3077 40.9116 71.2958 40.4674C74.1079 42.7605 77.1111 44.8087 80.2724 46.5896C85.4691 49.4336 89.3214 50.0955 90.9864 48.4356C92.6514 46.7758 91.9844 42.9184 89.1404 37.7217C88.6647 36.853 88.1321 35.9584 87.5581 35.0483L87.5064 35.0432Z" fill="white"/>
<path fill-rule="evenodd" clip-rule="evenodd" d="M109.451 64.9869H112.761V79.4653H109.451V78.488C108.202 79.3201 106.733 79.7611 105.232 79.7548C104.227 79.7812 103.227 79.606 102.291 79.2396C101.355 78.8732 100.501 78.3231 99.7811 77.6216C99.061 76.9201 98.4887 76.0815 98.0979 75.1553C97.7071 74.2291 97.5058 73.234 97.5058 72.2287C97.5058 71.2234 97.7071 70.2283 98.0979 69.302C98.4887 68.3758 99.061 67.5372 99.7811 66.8357C100.501 66.1343 101.355 65.5841 102.291 65.2177C103.227 64.8514 104.227 64.6762 105.232 64.7025C106.733 64.6962 108.202 65.1373 109.451 65.9694V64.9921V64.9869ZM141.216 79.4653H137.451L132.823 72.7432V79.4653H129.514V64.9869H132.823V71.2695L137.245 64.9869H141.009L136.128 72.0348L141.216 79.4653ZM121.758 71.8124C122.234 71.7873 122.682 71.5805 123.01 71.2346C123.338 70.8888 123.521 70.4302 123.521 69.9535C123.521 69.4768 123.338 69.0182 123.01 68.6724C122.682 68.3265 122.234 68.1197 121.758 68.0946H119.586V71.8124H121.758ZM121.758 64.9921C122.423 64.9706 123.085 65.083 123.706 65.3227C124.327 65.5624 124.893 65.9244 125.371 66.3872C125.849 66.8501 126.229 67.4043 126.489 68.0169C126.748 68.6296 126.882 69.2881 126.882 69.9535C126.882 70.6189 126.748 71.2774 126.489 71.8901C126.229 72.5027 125.849 73.0569 125.371 73.5198C124.893 73.9826 124.327 74.3446 123.706 74.5843C123.085 74.824 122.423 74.9364 121.758 74.9149H119.586V79.4653H116.277V64.9869L121.758 64.9921ZM105.211 76.5282C106.065 76.5447 106.905 76.3064 107.623 75.8438C108.342 75.3811 108.906 74.7151 109.244 73.9306C109.583 73.1461 109.68 72.2786 109.523 71.4386C109.367 70.5987 108.964 69.8245 108.365 69.2145C107.767 68.6045 107.001 68.1865 106.164 68.0137C105.327 67.8409 104.458 67.9211 103.667 68.2441C102.876 68.5672 102.199 69.1184 101.723 69.8276C101.246 70.5367 100.992 71.3717 100.992 72.2261C100.969 72.7901 101.062 73.3528 101.265 73.8796C101.468 74.4063 101.776 74.886 102.172 75.289C102.567 75.692 103.041 76.0098 103.563 76.223C104.086 76.4361 104.647 76.54 105.211 76.5282ZM94.7867 64.9921V79.4704H91.5239V68.1721H87.1804V79.4601H83.8711V64.9817L94.7867 64.9921ZM81.3425 79.4704H77.5782L75.1375 75.2924L72.6969 79.4704H68.9325L73.2553 72.0451L69.1187 64.9973H72.9089L75.1427 68.8237L77.3765 64.9973H81.1822L77.0456 72.0451L81.3425 79.4704ZM61.2797 76.2852H67.071V79.4704H57.9703V64.9921H66.9676V68.1773H61.2797V70.5714H66.4505V73.7153H61.2797V76.2852ZM55.4883 64.9973V68.1825H51.7653V79.4704H48.456V68.1721H44.7588V64.9869L55.4883 64.9973ZM41.527 71.9831C42.1384 72.3088 42.6464 72.7992 42.9937 73.3986C43.3409 73.9981 43.5135 74.6827 43.492 75.3751C43.492 78.0847 41.1754 79.76 38.1401 79.76C35.1049 79.76 33.4864 78.3742 32.6384 76.3266L35.4927 74.6926C35.6363 75.277 35.9793 75.7931 36.4626 76.1518C36.9458 76.5105 37.5391 76.6893 38.1401 76.6575C39.5208 76.6575 40.2085 76.0784 40.2085 75.1063C40.2085 74.1341 39.5259 73.555 38.1401 73.555H36.2993V70.618H37.7472C39.045 70.618 39.7069 70.1009 39.7069 69.196C39.7069 68.2911 39.1898 67.7688 38.0367 67.7688C37.5263 67.7582 37.0263 67.9139 36.6122 68.2124C36.198 68.5109 35.8922 68.9359 35.7409 69.4235L32.9072 67.7895C33.3526 66.8177 34.0799 66.0022 34.9946 65.449C35.9093 64.8957 36.9692 64.6302 38.0367 64.687C40.9065 64.687 43.0162 66.321 43.0162 68.9685C43.0318 69.5469 42.9084 70.1206 42.6565 70.6415C42.4046 71.1625 42.0315 71.6154 41.5684 71.9624L41.527 71.9831ZM26.9711 79.4601V71.6004L21.3866 79.4601H18.9046V64.9817H22.2346V72.8363L27.814 64.9817H30.296V79.4601H26.9711ZM9.72118 75.1373C11.8723 74.8477 12.9064 73.8756 12.9064 72.2209C12.9064 70.5662 11.8723 69.5941 9.72118 69.3097V75.1373ZM3.30934 72.2209C3.30934 73.8756 4.34351 74.8477 6.49458 75.1373V69.2942C4.34351 69.5786 3.30934 70.5507 3.30934 72.2054V72.2209ZM16.2364 72.2209C16.2364 75.5096 13.651 77.702 9.74704 78.1777V79.8738H6.49458V78.1777C2.58542 77.702 0 75.4992 0 72.2209C0 68.9426 2.58542 66.745 6.49458 66.2693V64.5732H9.72118V66.2693C13.6459 66.745 16.2106 68.9374 16.2106 72.2209H16.2364Z" fill="white"/>
<path fill-rule="evenodd" clip-rule="evenodd" d="M59.2425 48.7457C53.1306 51.7603 48.4665 52.2257 46.274 50.0384C44.0816 47.8511 44.547 43.1818 47.5719 37.0699C50.5969 30.958 55.9073 23.8998 62.3657 17.4207C68.8241 10.9416 75.8668 5.69323 81.9787 2.65795C88.0906 -0.377334 92.7547 -0.822027 94.942 1.37041C97.1293 3.56285 96.6691 8.22178 93.6545 14.3337C92.5475 16.5413 91.2951 18.6729 89.9056 20.7145C89.7815 20.2767 89.6419 19.8424 89.4868 19.4115C90.2314 18.2739 90.8984 17.1673 91.4879 16.0918C94.3318 10.921 94.9937 7.04282 93.3339 5.38298C91.674 3.72314 87.8166 4.38501 82.6199 7.24449C77.4232 10.104 71.3113 14.8767 65.6285 20.5646C59.9457 26.2525 55.1524 32.3593 52.3084 37.556C49.4644 42.7527 48.7974 46.6049 50.4624 48.2648C52.1274 49.9246 55.9797 49.2679 61.1712 46.424L62.2881 45.7931C62.738 45.9689 63.1982 46.1344 63.6687 46.3102C62.1537 47.2513 60.6697 48.0838 59.2425 48.787V48.7457Z" fill="white"/>
</svg>
