<svg width="205" height="40" viewBox="0 0 205 40" fill="none" xmlns="http://www.w3.org/2000/svg">
<path fill-rule="evenodd" clip-rule="evenodd" d="M16.2394 6.16416C14.3205 7.57641 12.5116 9.1448 10.8276 10.8287C6.68093 14.9749 2.79315 20.356 0.972803 25.9811C-0.236572 29.7181 -0.806312 34.7035 2.24429 37.7537C2.47365 37.983 2.71889 38.1959 2.97817 38.3908C5.04939 39.9477 7.76329 40.1932 10.2594 39.8833C13.4325 39.4895 16.6335 38.1852 19.4235 36.6348C18.3108 35.9768 17.2254 35.259 16.1758 34.497C15.1374 34.997 14.0678 35.436 12.9715 35.7908C10.6069 36.5559 6.62224 37.3235 4.64832 35.3498C2.6745 33.3763 3.44246 29.392 4.20758 27.0279C5.85921 21.924 9.46552 16.9983 13.2317 13.2325C15.1457 11.3187 17.2502 9.54853 19.4901 8.02402C18.4346 7.33992 17.3474 6.71309 16.2394 6.16416ZM23.8242 5.50313C24.8625 5.00291 25.9323 4.56403 27.0286 4.20929C29.3931 3.4443 33.3777 2.67642 35.3516 4.65011C37.3255 6.6238 36.5576 10.6079 35.7924 12.9723C34.1408 18.0761 30.5345 23.0019 26.7683 26.7677C24.8543 28.6813 22.7499 30.4515 20.51 31.976C21.5654 32.6601 22.6526 33.287 23.7606 33.8359C25.6795 32.4238 27.4884 30.8553 29.1724 29.1715C33.3191 25.0253 37.2069 19.6441 39.0272 14.0189C40.2366 10.282 40.8063 5.29664 37.7556 2.24637C37.5263 2.01702 37.2811 1.80422 37.0218 1.6094C34.9506 0.0524133 32.2367 -0.19317 29.7407 0.11664C26.5675 0.510433 23.3665 1.81489 20.5766 3.36536C21.6893 4.02335 22.7746 4.74103 23.8242 5.50313ZM33.8358 16.2391C32.4236 14.3204 30.8552 12.5115 29.1714 10.8276C25.0252 6.68089 19.644 2.79308 14.0189 0.972803C10.282 -0.236565 5.29668 -0.806322 2.24637 2.2443C2.01714 2.47352 1.80438 2.71882 1.60954 2.97794C0.0524437 5.04915 -0.193139 7.76306 0.116598 10.2592C0.510369 13.4324 1.81484 16.6335 3.36527 19.4234C4.02318 18.3106 4.74104 17.2253 5.50303 16.1758C5.00293 15.1374 4.56399 14.0677 4.20934 12.9715C3.44425 10.6069 2.67653 6.62223 4.65023 4.64831C6.62382 2.67445 10.608 3.44242 12.9723 4.20749C18.0761 5.85916 23.0018 9.46545 26.7676 13.2317C28.6813 15.1456 30.4515 17.2499 31.9759 19.4899C32.66 18.4344 33.2869 17.3472 33.8358 16.2391ZM34.4969 23.8241C34.997 24.8626 35.4361 25.9323 35.7907 27.0285C36.5559 29.3931 37.3236 33.3778 35.3499 35.3516C33.3763 37.3255 29.3921 36.5575 27.0278 35.7925C21.924 34.1408 16.9982 30.5345 13.2325 26.7683C11.3187 24.8543 9.54849 22.7499 8.024 20.5099C7.33979 21.5653 6.71295 22.6525 6.164 23.7605C7.57638 25.6795 9.14478 27.4884 10.8286 29.1724C14.9748 33.3191 20.356 37.2069 25.9811 39.0272C29.7181 40.2366 34.7034 40.8063 37.7537 37.7557C37.9831 37.5263 38.1959 37.2809 38.3909 37.0216C39.9477 34.9503 40.1931 32.2366 39.8833 29.7405C39.4895 26.5674 38.1851 23.3663 36.6347 20.5764C35.9767 21.6892 35.2589 22.7745 34.4969 23.8241ZM72 28.1715C76.1333 27.9886 79.0444 25.7715 79.0444 21.9314C79.0444 18.0686 76.1333 15.8514 72 15.6686V14H69V15.6686C66.8889 15.76 65.2 16.3543 63.9111 17.4286C62.6444 18.5029 62 19.9657 62 21.8629C62 25.68 64.8666 27.9886 69 28.1715V30H72V28.1715ZM76.0889 21.8857C76.0889 24.1486 74.5555 25.4515 72 25.52V18.2972C74.5778 18.3886 76.0889 19.6229 76.0889 21.8857ZM69 25.52C66.4444 25.4057 64.9555 24.1714 64.9555 21.9543C64.9555 19.7371 66.4889 18.4114 69 18.2972V25.52ZM93.1111 14.1828L84.5333 23.7143V14.4572H81.5333V29.8172H82.5111L91.1111 20.1943V29.5429H94.1111V14.1828H93.1111ZM108 25.0857C108 23.5086 107.222 22.2743 105.889 21.6115C106.8 20.8572 107.356 19.7829 107.356 18.5714C107.356 15.8514 105.489 14.1828 102.489 14.1828C100.067 14.1828 98.2 15.3943 97.2 17.4743L99.2889 19.0057C100.022 17.7029 101.044 17.04 102.333 17.04C103.644 17.04 104.4 17.7486 104.4 18.8229C104.4 19.8514 103.689 20.56 102.444 20.56H100.733V23.0971H102.667C104.244 23.0971 105.044 23.8286 105.044 24.9257C105.044 26.1829 103.911 26.96 102.4 26.96C100.911 26.96 99.6889 26.2286 98.7334 24.7658L96.6445 26.32C97.7111 28.4914 99.8222 29.8172 102.422 29.8172C105.8 29.8172 108 27.92 108 25.0857ZM112.68 29H115.675V16.9911H120.377V14.2679H108V16.9911H112.68V29ZM122.351 29H132.466V26.2768H125.346V22.5491H130.381V19.9822H125.346V16.9911H132.2V14.2679H122.351V29ZM146.685 29L141.871 21.5L146.374 14.2679H142.98L140.185 18.9107L137.368 14.2679H133.952L138.522 21.5L133.664 29H137.08L140.185 24.1116L143.291 29H146.685ZM148.681 29H151.676V16.9911H157.931V29H160.925V14.2679H148.681V29ZM173.724 29H176.94L170.419 14H169.421L162.877 29H166.094L166.914 27.0803H172.903L173.724 29ZM167.957 24.6027L169.909 19.625L171.861 24.6027H167.957ZM178.937 29H181.931V23.7991H184.438C187.499 23.7991 189.717 21.8348 189.717 19.0223C189.717 16.1875 187.499 14.2679 184.438 14.2679H178.937V29ZM181.931 21.1652V16.9241H184.438C185.791 16.9241 186.656 17.7723 186.656 19.0223C186.656 20.2947 185.835 21.1652 184.438 21.1652H181.931ZM205 29L198.656 21.2098L204.268 14.2679H200.697L195.107 21.0982V14.2679H192.113V29H195.107V21.3214L201.384 29H205Z" fill="white"/>
</svg>
