<svg width="238" height="43" viewBox="0 0 238 43" fill="none" xmlns="http://www.w3.org/2000/svg">
<path fill-rule="evenodd" clip-rule="evenodd" d="M36.4175 25.149C36.9481 26.2444 37.404 27.3744 37.7822 28.5312C38.5931 31.0036 39.3991 35.2363 37.3174 37.3181C35.2357 39.3998 31.0277 38.5938 28.5306 37.7829C23.1458 36.0423 17.9439 32.2349 13.9683 28.2593C11.9343 26.2327 10.0935 24.0211 8.46974 21.6531C7.74407 22.7574 7.08364 23.9033 6.49184 25.0848C7.99538 27.1091 9.64824 29.0182 11.4366 30.7959C15.8127 35.172 21.4942 39.2762 27.4328 41.1799C31.3886 42.4557 36.64 43.054 39.859 39.8349C40.1066 39.5949 40.3363 39.3371 40.5463 39.0636C42.1929 36.873 42.4501 34.01 42.1237 31.3745C41.7083 28.0269 40.3288 24.6496 38.692 21.7025C37.9998 22.8794 37.2432 24.0216 36.4372 25.1293L36.4175 25.149ZM35.7202 17.1435C34.2178 15.1183 32.5648 13.2091 30.7755 11.4323C26.4192 7.0562 20.7377 2.9669 14.799 1.02856C10.8778 -0.24719 5.5919 -0.850449 2.37287 2.37353C2.13041 2.61411 1.90566 2.87191 1.70038 3.14491C0.0537805 5.33049 -0.203346 8.19844 0.123007 10.834C0.538366 14.1816 1.91301 17.5588 3.54972 20.5059C4.24693 19.3291 5.00347 18.1868 5.80947 17.0792C5.27845 15.9846 4.82409 14.8545 4.44966 13.697C3.63872 11.1999 2.82778 6.99192 4.91447 4.91018C7.00115 2.82844 11.1992 3.63444 13.6963 4.45032C19.0812 6.19087 24.283 9.99833 28.2586 13.9739C30.291 16.0002 32.1316 18.21 33.7572 20.5751C34.4778 19.4705 35.1333 18.3246 35.7202 17.1435Z" fill="white"/>
<path fill-rule="evenodd" clip-rule="evenodd" d="M25.1485 5.80947C26.2431 5.27845 27.3732 4.82409 28.5308 4.44966C31.0031 3.63872 35.2358 2.82778 37.3176 4.91447C39.3993 7.00115 38.5933 11.2042 37.7824 13.7013C36.0418 19.0812 32.2344 24.283 28.2588 28.2586C26.2309 30.2912 24.0195 32.1319 21.6526 33.7572C22.7569 34.4829 23.9028 35.1433 25.0843 35.7351C27.1085 34.2313 29.0175 32.5785 30.7955 30.7903C35.1716 26.4142 39.2757 20.7327 41.1794 14.7941C42.4749 10.8778 43.0733 5.5919 39.8542 2.37287C39.6073 2.12966 39.3429 1.90489 39.0631 1.70038C36.8923 0.0537805 34.0293 -0.203346 31.3938 0.123007C28.0462 0.538366 24.6689 1.91301 21.7218 3.54972C22.8987 4.24693 24.0409 5.00347 25.1485 5.80947ZM17.143 6.50668C15.1176 8.00895 13.2085 9.66189 11.4318 11.4514C7.05572 15.8226 2.96641 21.4893 1.02807 27.4279C-0.247678 31.3837 -0.850937 36.635 2.37304 39.8541C2.61292 40.1033 2.87074 40.3347 3.14442 40.5463C5.33 42.1929 8.19795 42.4501 10.8335 42.1237C14.1811 41.7083 17.5584 40.3288 20.5054 38.692C19.3286 37.9998 18.1863 37.2432 17.0787 36.4372C15.9834 36.9678 14.8534 37.4238 13.6965 37.802C11.1994 38.6129 6.99143 39.4189 4.90969 37.3372C2.82796 35.2554 3.63395 31.0277 4.44983 28.5306C6.19038 23.1458 9.99784 17.9439 13.9734 13.9683C15.9997 11.936 18.2095 10.0953 20.5747 8.46974C19.47 7.74913 18.3241 7.09366 17.143 6.50668Z" fill="white"/>
<path d="M238 30.3798L229.97 20.5793L237.075 11.8667H232.551L225.48 20.4409V11.8667H221.687V30.3798H225.48V20.7178L233.426 30.3798H238ZM208.791 20.5249V15.1846H211.966C213.677 15.1846 214.774 16.2527 214.774 17.8251C214.774 19.3975 213.731 20.5249 211.966 20.5249H208.791ZM204.999 30.3798H208.791V23.8379H211.966C215.843 23.8379 218.651 21.3655 218.651 17.8251C218.651 14.2847 215.843 11.8667 211.966 11.8667H204.999V30.3798ZM196.039 24.8466H191.094L193.566 18.5866L196.039 24.8466ZM198.397 30.3798H202.472L194.214 11.5057H192.948L184.661 30.3798H188.735L189.774 27.9668H197.359L198.397 30.3798ZM166.687 30.3798H170.479V15.2687H178.391V30.3798H182.179V11.8667H166.687V30.3798ZM164.16 30.3798L158.063 20.9452L163.764 11.8667H159.467L155.927 17.7114L152.362 11.8667H148.035L153.821 20.97L147.669 30.3798H151.996L155.927 24.2286L159.883 30.3798H164.16ZM133.344 30.3798H146.151V26.9531H137.137V22.2507H143.511V19.0366H137.137V15.2687H145.815V11.8667H133.344V30.3798ZM121.101 30.3798H124.889V15.2687H130.847V11.8667H115.172V15.2934H121.106L121.101 30.3798ZM114.134 24.906C114.158 24.0103 113.918 23.1273 113.443 22.3675C112.968 21.6077 112.279 21.0046 111.464 20.6337C112.036 20.193 112.5 19.6278 112.822 18.981C113.143 18.3342 113.313 17.6227 113.318 16.9004C113.318 13.5578 110.959 11.5057 107.167 11.5057C105.779 11.4535 104.407 11.8088 103.219 12.5275C102.031 13.2463 101.079 14.2972 100.482 15.5505L103.122 17.4345C104.052 15.8324 105.342 15.0165 106.969 15.0165C108.596 15.0165 109.585 15.8868 109.585 17.207C109.585 18.5273 108.685 19.3431 107.112 19.3431H104.947V22.4633H107.389C109.367 22.4633 110.396 23.3583 110.396 24.7082C110.396 26.251 108.967 27.2102 107.053 27.2102C105.139 27.2102 103.626 26.3103 102.42 24.5104L99.7794 26.424C101.129 29.0892 103.795 30.721 107.083 30.721C111.35 30.721 114.134 28.3871 114.134 24.906ZM95.3143 11.5057L84.4705 23.2396V11.8667H80.6778V30.721H81.914L92.7925 18.8932V30.3798H96.5851V11.5057H95.3143ZM64.8398 25.44C61.6059 25.2966 59.7269 23.7835 59.7269 21.059C59.7269 18.3344 61.6653 16.7026 64.8398 16.5642V25.44ZM73.7997 20.9897C73.7997 23.7687 71.8614 25.3708 68.6324 25.44V16.5395C71.8861 16.673 73.7997 18.191 73.7997 20.9749V20.9897ZM68.6324 28.6788C73.8541 28.4514 77.533 25.712 77.533 21.0095C77.533 16.3071 73.8541 13.538 68.6324 13.3105V11.2832H64.8398V13.3501C62.1696 13.4638 60.0335 14.1957 58.4116 15.5159C56.7898 16.8362 55.9937 18.6311 55.9937 20.9551C55.9937 25.6477 59.6182 28.481 64.8448 28.7085V30.9534H68.6374L68.6324 28.6788Z" fill="white"/>
</svg>
