<svg width="158" height="83" viewBox="0 0 158 83" fill="none" xmlns="http://www.w3.org/2000/svg">
<path fill-rule="evenodd" clip-rule="evenodd" d="M102.259 65.4348V82.1476H98.4384V69.1116H93.4246V82.1476H89.6045V65.5303L86.7872 60.7074L83.9699 65.5303H79.6246L84.6146 56.959L79.8395 48.8175H84.1848L86.7634 53.2344L89.3419 48.8175H93.6872L88.9121 56.959L93.8484 65.4348H102.259ZM133.368 73.3137C133.91 73.2732 134.417 73.0293 134.787 72.6308C135.157 72.2322 135.363 71.7086 135.363 71.1649C135.363 70.6211 135.157 70.0975 134.787 69.699C134.417 69.3005 133.91 69.0565 133.368 69.0161H130.861V73.3137H133.368ZM133.368 65.4348C134.888 65.4348 136.345 66.0385 137.42 67.1131C138.495 68.1877 139.098 69.6451 139.098 71.1649C139.098 72.6846 138.495 74.1421 137.42 75.2167C136.345 76.2913 134.888 76.895 133.368 76.895H130.861V82.1476H127.017V65.4348H133.368ZM114.268 78.7573C115.254 78.7762 116.223 78.5012 117.052 77.9671C117.882 77.4331 118.533 76.6643 118.923 75.7587C119.314 74.8531 119.426 73.8517 119.245 72.8822C119.065 71.9127 118.599 71.0189 117.909 70.3148C117.218 69.6107 116.334 69.1281 115.368 68.9286C114.402 68.7292 113.399 68.8218 112.486 69.1947C111.573 69.5676 110.791 70.2039 110.241 71.0225C109.691 71.8411 109.397 72.8049 109.397 73.7912C109.371 74.4422 109.478 75.0918 109.713 75.6998C109.947 76.3079 110.303 76.8615 110.759 77.3268C111.216 77.792 111.762 78.1589 112.366 78.4049C112.969 78.6509 113.616 78.7708 114.268 78.7573V78.7573ZM119.138 65.4348H122.959V82.1476H119.138V81.0195C117.695 81.9774 116 82.4862 114.268 82.4818C111.963 82.4818 109.752 81.5662 108.123 79.9364C106.493 78.3066 105.577 76.0961 105.577 73.7912C105.577 71.4863 106.493 69.2758 108.123 67.6459C109.752 66.0161 111.963 65.1005 114.268 65.1005C116 65.0961 117.695 65.605 119.138 66.5629V65.4348ZM155.805 82.1476H151.49L146.118 74.388V82.1476H142.298V65.4348H146.118V72.6929L151.221 65.4348H155.566L149.938 73.5763L155.805 82.1476V82.1476ZM70.737 61.8534H77.4758V65.5303H66.9706V48.8175H77.3564V52.4943H70.7907V55.2638H76.7595V58.8929H70.7907V61.8773L70.737 61.8534ZM64.0518 48.8175V52.4943H59.7543V65.5303H55.9879V52.4943H51.6903V48.8175H64.0518ZM47.9359 56.8873C48.6416 57.2634 49.2281 57.8294 49.6289 58.5214C50.0297 59.2133 50.229 60.0037 50.2041 60.8029C50.2041 63.9306 47.53 65.8645 44.0203 65.8645C40.5107 65.8645 38.6484 64.2649 37.6695 61.9012L40.9643 60.015C41.1309 60.695 41.5313 61.2948 42.0954 61.7094C42.6596 62.124 43.3515 62.3271 44.0502 62.2832C45.6498 62.2832 46.4377 61.6147 46.4377 60.4925C46.4377 59.3704 45.6498 58.7019 44.0502 58.7019H41.8954V55.3593H43.5428C45.047 55.3593 45.811 54.7624 45.811 53.7119C45.811 52.6614 45.2141 52.0645 43.8771 52.0645C43.2882 52.0532 42.7115 52.2333 42.2336 52.5777C41.7557 52.9221 41.4025 53.4123 41.2269 53.9746L37.956 52.0884C38.4701 50.9666 39.3096 50.0253 40.3655 49.3866C41.4214 48.748 42.6448 48.4416 43.8771 48.5071C47.1958 48.5071 49.6311 50.3932 49.6311 53.4493C49.65 54.118 49.5081 54.7815 49.2172 55.3839C48.9264 55.9863 48.4952 56.5101 47.9598 56.9112L47.9359 56.8873ZM31.1037 65.5303V56.4576L24.6574 65.5303H21.8222V48.8175H25.6363V57.8662L32.1125 48.8175H34.9775V65.5303H31.1037ZM11.2215 60.5403C13.7045 60.206 14.8983 59.0839 14.8983 57.1739C14.8983 55.2638 13.7045 54.1417 11.2215 53.8074V60.5403ZM3.82007 57.1739C3.82007 59.0839 5.01384 60.206 7.49689 60.5403V53.8074C5.01384 54.1417 3.82007 55.2638 3.82007 57.1739V57.1739ZM18.7124 57.1739C18.7124 60.9701 15.7279 63.5008 11.2155 64.05V66.0078H7.49689V64.05C2.96056 63.5008 0 60.9701 0 57.1739C0 53.3777 2.98443 50.8469 7.49689 50.2977V48.3161H11.2215V50.2739C15.7578 50.823 18.7183 53.3538 18.7183 57.15L18.7124 57.1739Z" fill="white"/>
<path fill-rule="evenodd" clip-rule="evenodd" d="M127.447 7.95465C130.731 7.95959 133.974 8.67747 136.953 10.0587C139.932 11.4399 142.576 13.4515 144.702 15.9545C146.827 18.4575 148.384 21.3922 149.264 24.5557C150.144 27.7192 150.327 31.0362 149.8 34.2773C151.722 36.9956 153.44 39.8525 154.939 42.8247C158.419 49.8799 158.951 55.2638 156.426 57.7946C153.901 60.3254 148.517 59.7882 141.462 56.3084C139.014 55.0796 136.648 53.696 134.377 52.166C130.417 53.4436 126.182 53.6042 122.137 52.63C118.092 51.6559 114.394 49.5849 111.45 46.6448L112.334 45.7614C114.997 48.4171 118.314 50.3236 121.949 51.2888C125.584 52.2539 129.41 52.2435 133.04 51.2587C128.551 48.1026 124.318 44.598 120.38 40.7774L118.798 39.2792L117.318 37.7214C110.543 30.696 104.98 23.1633 101.733 16.5856C98.2532 9.53042 97.716 4.14652 100.247 1.61572C102.778 -0.915076 108.156 -0.371909 115.211 3.10794C118.191 4.60576 121.054 6.32566 123.776 8.25309C124.99 8.05448 126.217 7.95467 127.447 7.95465V7.95465ZM112.334 13.7683L112.387 13.7146C113.935 12.3373 115.664 11.1785 117.527 10.2706C116.56 9.67368 115.611 9.07679 114.691 8.59928C108.723 5.3164 104.246 4.5524 102.324 6.46841C100.402 8.38441 101.172 12.8372 104.455 18.8299C106.469 22.41 108.782 25.8142 111.367 29.0068C110.88 27.8548 110.481 26.6676 110.173 25.4554C109.182 21.5875 109.475 18.1614 110.967 15.6664C111.344 14.9756 111.819 14.3424 112.376 13.7862L112.334 13.7683ZM147.837 40.479C146.922 42.3662 145.751 44.1177 144.357 45.6838L144.309 45.7375L144.082 45.9823C141.569 48.4892 137.486 49.2174 132.741 47.9997C131.505 47.6778 130.296 47.2607 129.124 46.7522C132.372 49.3956 135.838 51.7578 139.486 53.8134C145.485 57.0963 149.932 57.8663 151.854 55.9443C153.776 54.0223 153.006 49.5755 149.723 43.5828C149.174 42.58 148.565 41.5494 147.896 40.4909L147.837 40.479Z" fill="#0C95ED"/>
<path fill-rule="evenodd" clip-rule="evenodd" d="M115.211 56.2964C108.156 59.7763 102.772 60.3135 100.247 57.7827C97.7221 55.2519 98.2533 49.8739 101.733 42.8187C105.213 35.7636 111.355 27.6161 118.804 20.1371C126.253 12.6581 134.401 6.54598 141.456 3.06017C148.511 -0.425647 153.895 -0.950901 156.426 1.57393C158.957 4.09875 158.419 9.48863 154.934 16.5438C153.658 19.0901 152.214 21.5487 150.612 23.9034C150.469 23.402 150.302 22.9007 150.129 22.4052C150.982 21.0921 151.758 19.8088 152.433 18.5732C155.716 12.5745 156.486 8.12774 154.564 6.20577C152.642 4.2838 148.195 5.05376 142.196 8.33664C136.197 11.6195 129.148 17.1526 122.582 23.7124C116.017 30.2722 110.489 37.3334 107.207 43.3261C103.924 49.3188 103.16 53.7716 105.076 55.6936C106.992 57.6155 111.445 56.8456 117.443 53.5627L118.727 52.8345C119.252 53.0434 119.783 53.2344 120.32 53.4015C118.667 54.4423 116.961 55.3986 115.211 56.2666V56.2964Z" fill="#E42A20"/>
</svg>
