<svg width="173" height="73" viewBox="0 0 173 73" fill="none" xmlns="http://www.w3.org/2000/svg">
<path d="M117 4.10412C112.697 3.79771 108.38 4.4375 104.343 5.97987C97.0201 8.76719 90.1807 12.7219 84.0816 17.6953C80.3201 20.5997 76.7737 23.7809 73.471 27.2134C73.2379 27.4784 72.949 27.6864 72.6257 27.8219C72.3024 27.9574 71.9532 28.0169 71.6041 27.9959C69.0938 27.9959 66.5835 27.9959 64.1154 27.9959C63.9045 27.7279 64.0311 27.5671 64.1154 27.4064C73.5237 16.8271 84.1027 7.84491 97.3397 2.3677C101.392 0.511272 105.84 -0.274077 110.271 0.0846382C111.629 0.148095 112.952 0.54733 114.125 1.24774C115.298 1.94815 116.284 2.9286 117 4.10412Z" fill="white"/>
<path d="M108 48.0664C107.751 48.3785 107.675 48.5138 107.567 48.6178C99.2448 57.1187 89.9479 64.4334 78.7656 69.4278C74.5079 71.4956 69.8539 72.7032 65.0911 72.9759C62.8415 73.113 60.5951 72.6636 58.5897 71.6753C57.519 71.1239 56.624 70.304 56 69.3029C56 69.0324 56.2384 69.0428 56.4009 69.0532C61.9812 69.3966 67.1282 67.8879 72.1342 65.8069C81.6804 61.8426 89.8179 55.9533 97.3053 49.2317C97.7014 48.8217 98.1857 48.4995 98.7246 48.2874C99.2635 48.0754 99.8441 47.9786 100.426 48.0039C102.864 48.1288 105.302 48.0664 108 48.0664Z" fill="white"/>
<path d="M0.0739104 37.1166C0.125636 36.4128 0.125636 35.7055 0.0739104 35.0016C-0.0741798 34.2029 0.00392829 33.3735 0.297714 32.6251C0.591499 31.8766 1.08685 31.2452 1.71704 30.8158C2.18374 30.3618 2.78714 30.1145 3.41026 30.1218C4.67266 30.1218 5.93506 30.1218 7.19746 30.1218C7.78858 30.1218 8.11921 29.9566 8.01902 29.2405C7.86873 28.2051 8.30957 27.8967 9.15117 28.0288C9.38732 28.0623 9.62638 28.0623 9.86253 28.0288C10.634 27.9297 11.1049 28.161 10.9546 29.1304C10.8444 29.8794 11.145 30.1218 11.8162 30.0998C13.0786 30.0998 14.341 30.0998 15.6034 30.0998C16.226 30.1104 16.824 30.3687 17.2866 30.8268C17.9042 31.2623 18.3908 31.8891 18.6849 32.6281C18.9791 33.3671 19.0678 34.1853 18.9398 34.9796C18.7715 36.3356 18.7715 37.7104 18.9398 39.0664C19.2604 41.2034 18.2585 42.371 16.936 43.5497C16.6185 43.8069 16.2268 43.9283 15.8339 43.8911C14.5314 43.8911 13.2289 43.8911 11.9264 43.8911C11.2652 43.8911 10.8244 43.9903 10.9245 44.8715C11.0247 45.7528 10.644 46.1053 9.86253 45.9731C9.54988 45.9289 9.23338 45.9289 8.92073 45.9731C8.19936 46.0722 7.91883 45.7858 7.99898 44.9597C8.07913 44.1335 7.76854 43.8581 6.99708 43.8581C5.77475 43.9242 4.55243 43.8581 3.3301 43.8581C2.74848 43.8611 2.18447 43.6388 1.73707 43.2302C1.11467 42.8038 0.622066 42.183 0.322235 41.4472C0.0224044 40.7113 -0.0710313 39.8939 0.0538723 39.0994C0.105209 38.4399 0.111907 37.7772 0.0739104 37.1166ZM8.009 37.0175C8.009 36.0041 8.009 34.9906 8.009 33.9882C8.009 33.2282 7.87875 32.8867 7.10729 32.8867C6.33582 32.8867 5.29384 32.8867 4.3821 32.8867C3.47037 32.8867 2.89928 33.3493 2.91932 34.4839C2.91932 36.2023 2.91932 37.9171 2.91932 39.6282C2.88504 39.84 2.89639 40.0577 2.95246 40.2638C3.00853 40.47 3.10776 40.6588 3.24219 40.8152C3.37662 40.9715 3.5425 41.0911 3.72654 41.1642C3.91058 41.2374 4.10765 41.2621 4.30195 41.2364C5.30386 41.2364 6.30576 41.2364 7.30767 41.2364C7.96892 41.2364 8.09917 40.939 8.08915 40.2891C8.009 39.2206 8.009 38.119 8.009 37.0175ZM10.9346 37.3259C11.0548 38.4275 10.4136 40.1459 11.185 41.0271C11.9565 41.9084 13.3592 41.1924 14.5013 41.2364C14.7042 41.277 14.9128 41.264 15.1102 41.1986C15.3076 41.1333 15.488 41.0173 15.6367 40.8603C15.7854 40.7033 15.898 40.5097 15.9654 40.2955C16.0328 40.0813 16.0529 39.8526 16.0242 39.6282C16.0242 37.9538 16.0242 36.3235 16.0242 34.6051C16.0547 34.3876 16.0393 34.1654 15.979 33.9556C15.9187 33.7457 15.8153 33.554 15.6767 33.3953C15.5381 33.2365 15.3681 33.115 15.1799 33.0402C14.9917 32.9653 14.7904 32.9392 14.5915 32.9638C13.6397 32.9638 12.6979 32.9638 11.7461 32.9638C11.1349 32.9638 10.9045 33.1731 10.9245 33.8671C11.0147 34.9025 10.9546 36.0041 10.9546 37.3369L10.9346 37.3259Z" fill="white"/>
<path d="M33.5175 35.4237C33.002 36.0322 32.4865 36.6294 31.9822 37.2491L25.7627 44.8552C25.3362 45.2993 24.801 45.6227 24.2109 45.7928C23.6207 45.9629 22.9964 45.9738 22.4007 45.8243C21.9076 45.6778 22.0085 45.3285 22.0085 45.0017C22.0085 40.3141 22.0085 35.6265 22.0085 30.9277C22.0085 30.3642 22.1094 30.0938 22.7705 30.06C25.1687 29.9022 25.1687 29.8797 25.1687 32.3137C25.1687 34.7476 25.1687 36.821 25.1687 39.1535C25.1687 39.5704 25.1687 39.9761 25.236 40.393C25.8299 40.393 25.9644 39.9986 26.1885 39.7282C28.5717 36.836 30.9475 33.94 33.3158 31.0403C33.7653 30.634 34.3053 30.3421 34.8903 30.1891C35.4753 30.0362 36.0883 30.0267 36.6777 30.1614C37.0812 30.3192 36.9915 30.6347 36.9915 30.9051C36.9915 35.6378 36.9915 40.3705 36.9915 45.1031C36.9915 45.6327 36.8346 45.8468 36.2743 45.9032C33.8761 46.1398 33.8201 46.1173 33.8201 43.7509V35.6378L33.5175 35.4237Z" fill="white"/>
<path d="M89 66.7179L94.2317 63.1463C94.7862 62.7687 95.1734 63.2177 95.5815 63.4218C100.222 65.9335 105.224 67.7498 110.419 68.8098C112.592 69.1669 114.801 69.2765 117 69.1363C116.352 70.3997 115.255 71.3899 113.913 71.9222C110.774 73.3304 107.499 73.1467 104.235 72.5651C98.9964 71.4917 93.9738 69.5889 89.3662 66.9322L89 66.7179Z" fill="white"/>
<path d="M84 6.30987C82.1919 7.54639 80.551 8.6194 78.9728 9.76395C78.3457 10.2238 77.9276 9.91724 77.4155 9.64132C72.9402 7.19033 68.1237 5.38988 63.1176 4.2967C60.773 3.86011 58.3791 3.73294 56 3.91859C56.5158 2.98422 57.2437 2.17784 58.1279 1.56137C59.012 0.944889 60.0289 0.534711 61.1004 0.362324C64.2892 -0.242561 67.58 -0.0883389 70.695 0.811967C75.3588 2.06244 79.8326 3.91114 84 6.30987Z" fill="white"/>
<path d="M109 27H100.728C100.2 27 99.9357 26.5759 99.6716 26.2436C96.4877 22.7519 93.0811 19.508 89.4769 16.5359C88.7902 15.9743 88.8747 15.6763 89.5403 15.2408C90.9665 14.2781 92.3716 13.2924 93.7661 12.2838C93.9428 12.1016 94.1773 12 94.4211 12C94.6649 12 94.8993 12.1016 95.0761 12.2838C100.084 16.5351 104.707 21.2939 108.884 26.4957C108.939 26.6588 108.978 26.8278 109 27Z" fill="white"/>
<path d="M74.0195 37.8655C74.0195 35.6311 74.0195 33.2962 74.0195 31.0171C74.0195 30.2127 74.2144 29.9892 74.9063 30.0004C78.2296 30.0004 81.5528 30.0674 84.8761 30.0004C85.9384 30.0004 85.763 30.6707 85.7727 31.3857C85.7825 32.1007 85.8897 32.7822 84.8566 32.7487C82.4689 32.6593 80.0813 32.7487 77.6936 32.7487C76.9627 32.7487 76.719 32.9833 76.719 33.8659C76.719 36.6478 76.719 36.6478 79.0872 36.6478C80.2859 36.6478 81.4846 36.726 82.6736 36.6478C83.6482 36.5696 83.6482 37.1729 83.6482 37.9884C83.6482 38.804 83.7749 39.4184 82.7321 39.3514C81.0168 39.2509 79.3016 39.3514 77.5766 39.3514C76.9724 39.3514 76.7483 39.5078 76.7288 40.2675C76.6703 43.2169 76.6411 43.2169 79.1554 43.2169C81.1046 43.2169 83.0537 43.284 85.0028 43.2169C85.9774 43.2169 86.0553 43.6303 85.9774 44.5017C85.8994 45.3731 86.1918 46.0323 85.0515 45.9988C81.6893 45.9206 78.3271 45.9988 74.9746 45.9988C74.2534 45.9988 74 45.7865 74 44.8816C74.0585 42.4349 74.0195 40.1446 74.0195 37.8655Z" fill="white"/>
<path d="M105.054 37.9641C105.054 35.7049 105.054 33.344 105.054 31.0396C105.054 30.2489 105.291 29.9891 106.159 30.0004C110.706 30.0004 115.257 30.0004 119.812 30.0004C120.774 30.0004 121 30.3166 121 31.13C121 35.7087 121 40.2836 121 44.8547C121 45.6906 120.774 46.086 119.812 45.9843C119.441 45.9426 119.066 45.9426 118.695 45.9843C117.792 46.0747 117.507 45.7584 117.507 44.8547C117.507 41.24 117.507 37.6252 117.507 33.9992C117.507 32.9599 117.221 32.6436 116.116 32.6888C114.025 32.7679 111.934 32.7679 109.854 32.6888C108.797 32.6888 108.416 32.8922 108.44 33.9653C108.523 37.5349 108.44 41.1157 108.5 44.6853C108.5 45.9505 107.917 46.0408 106.919 45.9392C105.921 45.8375 104.911 46.3797 105.006 44.7305C105.149 42.5051 105.054 40.2346 105.054 37.9641Z" fill="white"/>
<path d="M131.96 41.7276C128.907 40.8242 127.466 42.3487 126.767 45.0136C126.402 46.4138 125.252 45.9056 124.37 45.9282C122.768 45.9282 122.758 45.9282 123.392 44.5619C125.402 40.1467 127.434 35.7316 129.391 31.2938C129.778 30.413 130.283 30.1646 131.229 30.063C133.519 29.7355 134.54 30.6953 135.346 32.7053C136.905 36.601 138.776 40.3839 140.507 44.2118C141.291 45.9395 141.281 45.8492 139.432 45.9734C138.109 46.0637 137.281 45.6685 137.056 44.3925C136.561 42.1341 135.196 41.2646 132.906 41.7163C132.592 41.7504 132.275 41.7542 131.96 41.7276ZM132.035 33.2586C131.186 35.1782 130.487 36.7365 129.788 38.3061C129.53 38.882 129.713 39.074 130.326 39.0627C131.465 39.0627 132.605 39.0627 133.745 39.0627C134.314 39.0627 134.572 38.9498 134.293 38.3287C133.573 36.7365 132.895 35.167 132.035 33.236V33.2586Z" fill="white"/>
<path d="M142 37.899C142 35.6422 142 33.3853 142 31.1284C142 30.3272 142.156 30 143.116 30C146.465 30 149.814 30 153.095 30C154.535 30 156.89 32.4148 156.902 33.8254C156.856 34.3887 156.856 34.9548 156.902 35.518C157.099 36.4549 156.997 37.4312 156.61 38.3055C156.223 39.1799 155.57 39.907 154.747 40.3816C154.177 40.8432 153.468 41.094 152.738 41.0925C150.595 41.0925 148.452 41.0925 146.297 41.0925C145.516 41.0925 145.181 41.2843 145.237 42.1081C145.293 42.9319 145.237 44.0152 145.237 44.9743C145.237 45.6062 145.103 45.8996 144.389 45.9448C142.011 46.0915 142.011 46.114 142.011 43.7669C142.004 41.8034 142 39.8475 142 37.899ZM148.887 32.7082C148.016 32.7082 147.135 32.7082 146.264 32.7082C145.393 32.7082 145.148 32.8549 145.148 33.7013C145.215 34.9538 145.148 36.2177 145.148 37.4702C145.148 38.1924 145.337 38.4745 146.108 38.452C147.938 38.452 149.78 38.452 151.622 38.452C152.024 38.4695 152.42 38.3415 152.738 38.0909C153.029 37.8787 153.265 37.5986 153.427 37.2745C153.588 36.9504 153.669 36.5917 153.664 36.229C153.843 33.2048 153.006 32.539 150.193 32.7308C149.814 32.7082 149.322 32.7082 148.887 32.7082Z" fill="white"/>
<path d="M46.6361 46C44.7625 46 42.9008 46 41.0272 46C39.4042 46 40.2277 44.9335 40.0845 44.3273C39.9413 43.7211 40.0845 43.2047 41.075 43.2047C44.1419 43.272 47.2089 43.2047 50.2759 43.2047C51.8631 43.2047 52.3882 42.8005 52.424 41.5881C52.424 40.0613 51.7079 39.152 50.252 39.1183C48.4381 39.1183 46.6122 39.051 44.7864 39.1183C43.593 39.1183 43.7959 38.4448 43.8436 37.8498C43.8913 37.2548 43.3782 36.3679 44.7625 36.4128C46.4332 36.4128 48.1159 36.4128 49.7866 36.4128C50.0889 36.454 50.397 36.4324 50.6894 36.3494C50.9818 36.2664 51.2513 36.124 51.4789 35.9324C51.7064 35.7408 51.8866 35.5046 52.0066 35.2404C52.1266 34.9762 52.1835 34.6905 52.1734 34.4033C52.1734 33.1684 51.6244 32.7868 49.8821 32.7755C47.1492 32.7755 44.4164 32.7082 41.6955 32.7755C40.5022 32.7755 40.2754 32.3714 40.3351 31.4284C40.3947 30.4854 40.2157 29.9577 41.612 30.0027C45.0131 30.1037 48.4142 30.0027 51.8153 30.0027C52.7636 30.1362 53.6442 30.5441 54.3349 31.1697C55.0256 31.7953 55.4922 32.6076 55.6699 33.494C55.6699 34.9197 55.8967 36.3567 54.1663 37.2211C53.5577 37.5242 53.9992 37.9284 54.3572 38.1192C56.744 39.3541 55.8012 41.4871 55.8848 43.2384C55.8848 44.0017 53.0803 45.8541 52.1137 45.8653L46.6361 46Z" fill="white"/>
<path d="M172.642 30.1145C170.819 32.5481 169.231 34.7451 167.542 36.8744C167.41 36.9928 167.305 37.1378 167.233 37.2999C167.161 37.462 167.124 37.6376 167.124 37.8152C167.124 37.9928 167.161 38.1684 167.233 38.3305C167.305 38.4926 167.41 38.6376 167.542 38.756C169.365 41.0093 171.11 43.3865 173 45.8652C170.886 46.0342 169.029 46.4173 167.821 44.1639C166.948 42.7707 165.969 41.4485 164.891 40.2094C164.436 39.8137 163.895 39.5327 163.312 39.3896C162.728 39.2466 162.119 39.2457 161.535 39.3869C161.11 39.601 161.256 39.984 161.256 40.2882C161.256 41.8092 161.256 43.3189 161.256 44.7949C161.256 45.6399 161.043 45.9215 160.137 45.9215C157.531 45.8652 158.045 46.1018 158.034 43.9161C158.034 39.6686 158.034 35.4211 158.034 31.1735C158.034 30.2497 158.314 29.9117 159.153 30.0469C159.525 30.0857 159.899 30.0857 160.271 30.0469C160.965 29.9793 161.155 30.306 161.144 30.9707C161.144 32.3115 161.144 33.6635 161.144 35.0042C161.144 35.545 160.73 36.4576 161.524 36.559C162.318 36.6604 163.571 37.0772 164.343 35.9506C165.372 34.4521 166.58 33.0776 167.553 31.5566C167.811 31.0125 168.241 30.5695 168.775 30.2965C169.309 30.0235 169.917 29.9357 170.506 30.0469C171.215 30.1211 171.929 30.1437 172.642 30.1145Z" fill="white"/>
<path d="M104 45.9424C102.819 45.9424 101.964 45.9424 101.119 45.9424C100.601 45.9424 100.36 45.5694 100.092 45.1964C99.0448 43.7383 97.9789 42.2801 96.9609 40.7881C96.5288 40.1664 96.2503 40.1551 95.8182 40.7881C94.9539 42.0767 93.9648 43.2748 93.1485 44.5973C92.8914 45.1007 92.5103 45.5 92.0557 45.7423C91.6012 45.9846 91.0947 46.0583 90.6037 45.9537C90.0698 45.911 89.534 45.911 89 45.9537C89.1023 45.4661 89.3304 45.0278 89.653 44.699C91.0935 42.6305 92.5339 40.5733 94.0128 38.55C94.1129 38.4557 94.1937 38.3362 94.2492 38.2002C94.3048 38.0642 94.3336 37.9153 94.3336 37.7644C94.3336 37.6135 94.3048 37.4646 94.2492 37.3286C94.1937 37.1926 94.1129 37.0731 94.0128 36.9788C92.4379 34.7181 90.9014 32.5253 89.2113 30.0611H92.2362C92.7164 30.0611 92.8892 30.4906 93.1197 30.8297C94.08 32.1749 94.9923 33.5087 95.895 34.8764C96.2887 35.4641 96.548 35.4641 96.9321 34.8764C97.71 33.6782 98.5839 32.5592 99.3233 31.3271C99.5513 30.8574 99.8967 30.4817 100.313 30.2511C100.728 30.0206 101.194 29.9463 101.647 30.0385C102.303 30.0838 102.96 30.0838 103.616 30.0385C101.974 32.4009 100.533 34.5599 99.0064 36.6397C98.4206 37.4422 98.3246 37.9735 99.0064 38.8326C100.629 41.048 102.195 43.3878 104 45.9424Z" fill="white"/>
<path d="M67 48H75.0146C75.1664 48.0098 75.3146 48.049 75.4503 48.1152C75.586 48.1814 75.7066 48.2732 75.8046 48.3853C78.2639 50.5255 80.8374 52.5405 83.5147 54.422C84.0477 54.7981 84.2666 55.0367 83.5147 55.4403C82.1535 56.1834 80.84 56.9908 79.5169 57.7798C79.3445 57.9219 79.1251 58 78.8982 58C78.6713 58 78.4519 57.9219 78.2795 57.7798C74.2848 54.9215 70.5322 51.7617 67.0571 48.3303C67.0571 48.3303 67.0286 48.2018 67 48Z" fill="white"/>
<path d="M52.9516 7C52.4682 14.3438 54.7843 20.6385 57.7047 26.7405C58.1578 27.6825 58.1981 28.0572 57.04 27.993C55.5799 27.9074 54.1197 27.993 52.6495 27.993C52.2165 27.993 51.7734 28.0572 51.5518 27.4792C49.8097 22.7474 48.4301 17.9194 49.2357 12.813C49.4042 11.6094 49.8258 10.4617 50.4691 9.4553C51.1125 8.44888 51.961 7.60964 52.9516 7Z" fill="white"/>
<path d="M122.07 7C123.237 7.76721 124.204 8.83396 124.883 10.1024C125.562 11.3708 125.93 12.8003 125.954 14.2596C126.246 18.8316 125.099 23.1146 123.539 27.2905C123.46 27.5257 123.306 27.724 123.104 27.8511C122.902 27.9782 122.664 28.0261 122.433 27.9864C120.893 27.9864 119.353 27.9864 117.814 27.9864C116.807 27.9864 116.878 27.6759 117.26 26.9157C119.157 23.1733 120.591 19.1856 121.527 15.0519C122.085 12.4119 122.268 9.69779 122.07 7Z" fill="white"/>
<path d="M56 48.0401C53.8099 53.1841 51.9952 58.2693 52.4243 64C52.1434 63.9528 51.8749 63.8412 51.6361 63.6727C51.3974 63.5042 51.1938 63.2825 51.0387 63.0221C50.2921 62.1055 49.729 61.0281 49.3857 59.8593C49.0424 58.6905 48.9264 57.456 49.0452 56.2352C49.1534 53.7179 49.6054 51.2325 50.3861 48.8616C50.5828 48.2455 50.8241 47.9815 51.4588 48.001C52.898 48.1281 54.3641 48.0401 56 48.0401Z" fill="white"/>
<path d="M117 48.0046H123.219C123.416 47.9852 123.614 48.0271 123.777 48.1225C123.94 48.2179 124.057 48.3604 124.106 48.5234C125.603 52.1058 126.57 55.747 125.626 59.5643C125.222 61.2707 124.069 62.7826 122.401 63.7927C121.929 64.0864 121.584 64.1353 121.63 63.4893C121.964 58.1548 119.868 53.3293 117.207 48.6115C117.121 48.4137 117.052 48.2109 117 48.0046Z" fill="white"/>
<path d="M63.641 30C65.7811 30 67.9212 30 70.0501 30C71.159 30 70.9926 30.6976 70.9815 31.3614C70.9704 32.0252 71.2366 32.8128 70.0612 32.7453C68.8858 32.6778 67.4998 32.7453 66.2135 32.7453C65.3708 32.7453 65.1047 32.9815 65.1047 33.8704C65.1047 37.4707 65.1047 41.0711 65.1047 44.6715C65.1047 45.6841 64.8719 46.1341 63.8295 45.9653C63.5316 45.9226 63.2293 45.9226 62.9314 45.9653C62.133 46.0666 61.9113 45.7291 61.9224 44.9415C61.9224 41.3411 61.9224 37.7408 61.9224 34.1404C61.9224 33.0153 61.623 32.7003 60.5585 32.779C59.3277 32.869 58.0858 32.779 56.8439 32.779C55.602 32.779 56.101 31.9577 56.0899 31.4176C56.0788 30.8776 55.6907 30.0338 56.8439 30.0563C59.1946 30.0225 61.4234 30 63.641 30Z" fill="white"/>
</svg>
