<svg width="197" height="35" viewBox="0 0 197 35" fill="none" xmlns="http://www.w3.org/2000/svg">
<path fill-rule="evenodd" clip-rule="evenodd" d="M29.5497 13.8768C28.3164 12.2374 26.9467 10.6919 25.4762 9.25315C21.8552 5.71016 17.1557 2.38839 12.2431 0.833124C8.97952 -0.20017 4.62573 -0.686975 1.96181 1.9195C1.76163 2.11535 1.57581 2.32493 1.40566 2.54633C0.0458006 4.31599 -0.168674 6.63478 0.101828 8.76747C0.445719 11.4787 1.58495 14.2138 2.93898 16.5975C3.51355 15.6467 4.14048 14.7194 4.80594 13.8227C4.36919 12.9355 3.98585 12.0215 3.67613 11.0849C3.00796 9.06454 2.33749 5.66004 4.06117 3.97351C5.78475 2.28703 9.26426 2.94318 11.329 3.59687C15.7863 5.00807 20.0881 8.08931 23.3768 11.3073C25.0481 12.9425 26.5941 14.7405 27.9254 16.6543C28.5229 15.7525 29.0703 14.8235 29.5497 13.8768ZM30.1271 20.3574C30.5638 21.2447 30.9473 22.1588 31.257 23.0953C31.9252 25.1157 32.5957 28.5202 30.872 30.2066C29.1484 31.8932 25.6689 31.237 23.6041 30.5833C19.1468 29.1721 14.845 26.0909 11.5563 22.873C9.88494 21.2376 8.33895 19.4397 7.00757 17.5258C6.41003 18.4275 5.8626 19.3564 5.38318 20.3032C6.61665 21.9427 7.98638 23.4883 9.45692 24.9271C13.0779 28.47 17.7774 31.7918 22.69 33.3472C25.9536 34.3804 30.3074 34.8672 32.9713 32.2607C33.1716 32.0647 33.3575 31.8551 33.5278 31.6335C34.8874 29.8638 35.1017 27.5451 34.8312 25.4125C34.4872 22.7014 33.3481 19.9663 31.994 17.5826C31.4194 18.5334 30.7925 19.4607 30.1271 20.3574Z" fill="#0C95ED"/>
<path fill-rule="evenodd" clip-rule="evenodd" d="M14.1826 5.26731C12.507 6.47408 10.9275 7.81428 9.45692 9.25315C5.83592 12.7961 2.44101 17.3943 0.851431 22.201C-0.204628 25.3943 -0.702141 29.6543 1.96173 32.2608C2.16201 32.4567 2.37616 32.6386 2.60257 32.8051C4.41122 34.1355 6.78107 34.3453 8.9607 34.0805C11.7316 33.744 14.5268 32.6294 16.963 31.3046C15.9914 30.7424 15.0436 30.129 14.1271 29.4779C13.2203 29.9052 12.2863 30.2802 11.329 30.5834C9.26417 31.2372 5.78467 31.8932 4.06099 30.2066C2.3374 28.5202 3.008 25.1156 3.67613 23.0954C5.11838 18.7341 8.2675 14.5251 11.5563 11.3073C13.2276 9.67192 15.0653 8.15927 17.0212 6.85657C16.0996 6.272 15.1502 5.73637 14.1826 5.26731ZM20.8059 4.70245C21.7126 4.27502 22.6467 3.89999 23.604 3.59686C25.6688 2.94317 29.1483 2.28701 30.8719 3.97354C32.5956 5.66008 31.925 9.06453 31.2569 11.0849C29.8146 15.4461 26.6655 19.6553 23.3767 22.8731C21.7054 24.5084 19.8678 26.021 17.9118 27.3237C18.8334 27.9083 19.7828 28.4439 20.7503 28.913C22.426 27.7063 24.0056 26.366 25.4761 24.9272C29.0971 21.3842 32.492 16.786 34.0816 11.9792C35.1376 8.78601 35.6351 4.52601 32.9712 1.91953C32.771 1.72355 32.5568 1.54172 32.3304 1.37524C30.5218 0.0447875 28.1519 -0.165065 25.9723 0.0996698C23.2014 0.436168 20.4062 1.55084 17.97 2.87572C18.9416 3.43797 19.8894 4.05124 20.8059 4.70245Z" fill="#EF202F"/>
<path d="M56.7969 23.2281C61.1216 23.0462 64.1675 20.8409 64.1675 17.0212C64.1675 13.1788 61.1216 10.9734 56.7969 10.7916V9.13184H53.658V10.7916C51.4492 10.8825 49.6821 11.4736 48.3336 12.5422C47.0083 13.6108 46.334 15.0659 46.334 16.953C46.334 20.7499 49.3333 23.0462 53.658 23.2281V25.047H56.7969V23.2281ZM61.0751 16.9757C61.0751 19.2266 59.4708 20.5226 56.7969 20.5908V13.4062C59.494 13.4971 61.0751 14.7249 61.0751 16.9757ZM53.658 20.5908C50.9842 20.4771 49.4263 19.2493 49.4263 17.044C49.4263 14.8386 51.0307 13.5199 53.658 13.4062V20.5908ZM78.8854 9.31371L69.9105 18.7946V9.58658H66.7716V24.8651H67.7947L76.7928 15.2933V24.5923H79.9316V9.31371H78.8854ZM94.4635 20.1587C94.4635 18.59 93.6498 17.3623 92.2547 16.7029C93.208 15.9526 93.7892 14.8841 93.7892 13.679C93.7892 10.9734 91.8362 9.31371 88.6973 9.31371C86.1629 9.31371 84.2098 10.5187 83.1636 12.5877L85.3491 14.111C86.1164 12.8151 87.186 12.1557 88.5345 12.1557C89.9063 12.1557 90.6969 12.8605 90.6969 13.9291C90.6969 14.9522 89.9528 15.6571 88.6508 15.6571H86.8604V18.1807H88.8833C90.5341 18.1807 91.3712 18.9083 91.3712 19.9996C91.3712 21.2501 90.1854 22.0231 88.6043 22.0231C87.0465 22.0231 85.7676 21.2956 84.7679 19.8405L82.5823 21.3865C83.6983 23.5464 85.9072 24.8651 88.6275 24.8651C92.1617 24.8651 94.4635 22.978 94.4635 20.1587Z" fill="white"/>
<path d="M100.229 24.593H103.368V12.3611H108.297V9.58731H95.3232V12.3611H100.229V24.593ZM110.367 24.593H120.969V21.8192H113.506V18.0224H118.783V15.4077H113.506V12.3611H120.69V9.58731H110.367V24.593ZM135.873 24.593L130.827 16.9538L135.547 9.58731H131.99L129.06 14.3164L126.108 9.58731H122.527L127.317 16.9538L122.225 24.593H125.805L129.06 19.6138L132.316 24.593H135.873ZM137.966 24.593H141.104V12.3611H147.661V24.593H150.8V9.58731H137.966V24.593ZM164.216 24.593H167.587L160.752 9.31445H159.705L152.846 24.593H156.218L157.078 22.6377H163.356L164.216 24.593ZM162.263 20.114H158.171L160.217 15.0439L162.263 20.114ZM169.68 24.593H172.819V19.2955H175.446C178.655 19.2955 180.98 17.2948 180.98 14.43C180.98 11.5426 178.655 9.58731 175.446 9.58731H169.68V24.593ZM172.819 16.6127V12.2929H175.446C176.864 12.2929 177.771 13.1569 177.771 14.43C177.771 15.726 176.911 16.6127 175.446 16.6127H172.819ZM197 24.593L190.35 16.6582L196.233 9.58731H192.489L186.63 16.5445V9.58731H183.491V24.593H186.63V16.7718L193.21 24.593H197Z" fill="white"/>
</svg>
