<svg width="154" height="66" viewBox="0 0 154 66" fill="none" xmlns="http://www.w3.org/2000/svg">
<path d="M104 3.66439C100.185 3.39081 96.3562 3.96205 92.776 5.33917C86.282 7.82785 80.2168 11.3588 74.8082 15.7994C71.4726 18.3925 68.3276 21.233 65.3988 24.2977C65.1921 24.5343 64.9359 24.72 64.6492 24.841C64.3625 24.9619 64.0528 25.015 63.7432 24.9963C61.5171 24.9963 59.2911 24.9963 57.1024 24.9963C56.9153 24.7571 57.0275 24.6135 57.1024 24.47C65.4455 15.0242 74.8269 7.00438 86.5654 2.11402C90.1588 0.456493 94.1034 -0.244711 98.0326 0.0755698C99.2375 0.132228 100.411 0.488687 101.451 1.11405C102.49 1.73942 103.365 2.61482 104 3.66439Z" fill="#EF202F"/>
<path d="M96 44.0584C95.7795 44.3331 95.7124 44.4521 95.6166 44.5437C88.2551 52.0245 80.0308 58.4614 70.1388 62.8565C66.3724 64.6761 62.2554 65.7388 58.0421 65.9788C56.0521 66.0994 54.0649 65.704 52.2909 64.8342C51.3437 64.349 50.552 63.6276 50 62.7466C50 62.5085 50.2109 62.5177 50.3547 62.5268C55.2911 62.829 59.8441 61.5013 64.2726 59.67C72.7172 56.1815 79.9158 50.9989 86.5393 45.0839C86.8897 44.7231 87.3181 44.4395 87.7949 44.2529C88.2716 44.0663 88.7852 43.9812 89.2999 44.0035C91.4566 44.1133 93.6133 44.0584 96 44.0584Z" fill="#EF202F"/>
<path d="M0.0661304 33.1037C0.112411 32.478 0.112411 31.8493 0.0661304 31.2237C-0.0663714 30.5137 0.00351479 29.7764 0.266375 29.1112C0.529236 28.4459 0.972442 27.8846 1.53629 27.5029C1.95388 27.0994 2.49376 26.8795 3.05128 26.886C4.1808 26.886 5.31031 26.886 6.43983 26.886C6.96873 26.886 7.26456 26.7392 7.17491 26.1027C7.04045 25.1823 7.43488 24.9081 8.18789 25.0256C8.39918 25.0553 8.61308 25.0553 8.82437 25.0256C9.51463 24.9375 9.93595 25.1431 9.80149 26.0048C9.70288 26.6706 9.97181 26.886 10.5724 26.8664C11.7019 26.8664 12.8315 26.8664 13.961 26.8664C14.518 26.8759 15.053 27.1055 15.467 27.5127C16.0196 27.8998 16.4549 28.457 16.7181 29.1139C16.9813 29.7708 17.0607 30.498 16.9461 31.2041C16.7955 32.4094 16.7955 33.6315 16.9461 34.8368C17.233 36.7363 16.3365 37.7742 15.1532 38.8219C14.8692 39.0506 14.5187 39.1585 14.1672 39.1255C13.0018 39.1255 11.8364 39.1255 10.671 39.1255C10.0794 39.1255 9.68495 39.2136 9.77459 39.9969C9.86424 40.7802 9.52359 41.0936 8.82437 40.9761C8.54463 40.9368 8.26145 40.9368 7.98171 40.9761C7.33627 41.0642 7.08527 40.8096 7.15698 40.0752C7.2287 39.3409 6.9508 39.0961 6.26054 39.0961C5.16688 39.1548 4.07322 39.0961 2.97957 39.0961C2.45917 39.0988 1.95453 38.9012 1.55422 38.538C0.997335 38.1589 0.556585 37.6071 0.288316 36.953C0.020046 36.299 -0.0635543 35.5724 0.0482015 34.8661C0.0941347 34.2799 0.100127 33.6908 0.0661304 33.1037ZM7.16595 33.0155C7.16595 32.1147 7.16595 31.2139 7.16595 30.3229C7.16595 29.6472 7.04941 29.3437 6.35915 29.3437C5.66889 29.3437 4.73659 29.3437 3.92083 29.3437C3.10507 29.3437 2.5941 29.755 2.61202 30.7635C2.61202 32.291 2.61202 33.8152 2.61202 35.3361C2.58135 35.5244 2.59151 35.718 2.64168 35.9012C2.69185 36.0844 2.78063 36.2523 2.90091 36.3913C3.02118 36.5303 3.16961 36.6365 3.33428 36.7016C3.49894 36.7666 3.67527 36.7885 3.84911 36.7657C4.74556 36.7657 5.642 36.7657 6.53844 36.7657C7.13009 36.7657 7.24663 36.5013 7.23766 35.9236C7.16595 34.9738 7.16595 33.9947 7.16595 33.0155ZM9.78356 33.2897C9.89113 34.2689 9.31741 35.7963 10.0077 36.5797C10.6979 37.363 11.9529 36.7265 12.9749 36.7657C13.1564 36.8018 13.3431 36.7903 13.5197 36.7321C13.6963 36.674 13.8577 36.5709 13.9907 36.4314C14.1238 36.2918 14.2246 36.1198 14.2848 35.9293C14.3451 35.7389 14.3632 35.5356 14.3375 35.3361C14.3375 33.8478 14.3375 32.3987 14.3375 30.8712C14.3648 30.6779 14.3509 30.4803 14.297 30.2938C14.2431 30.1073 14.1505 29.9369 14.0265 29.7958C13.9025 29.6547 13.7504 29.5467 13.5821 29.4802C13.4137 29.4136 13.2335 29.3904 13.0556 29.4122C12.2039 29.4122 11.3613 29.4122 10.5097 29.4122C9.96285 29.4122 9.75666 29.5983 9.77459 30.2152C9.85527 31.1356 9.80149 32.1147 9.80149 33.2995L9.78356 33.2897Z" fill="white"/>
<path d="M29.9818 31.7457C29.5351 32.2782 29.0883 32.8007 28.6513 33.343L23.261 39.9983C22.8914 40.3869 22.4275 40.6698 21.9161 40.8187C21.4046 40.9675 20.8635 40.977 20.3473 40.8463C19.92 40.7181 20.0074 40.4124 20.0074 40.1265C20.0074 36.0248 20.0074 31.9232 20.0074 27.8117C20.0074 27.3187 20.0948 27.0821 20.6678 27.0525C22.7462 26.9145 22.7462 26.8947 22.7462 29.0244C22.7462 31.1541 22.7462 32.9683 22.7462 35.0093C22.7462 35.3741 22.7462 35.7291 22.8045 36.0939C23.3192 36.0939 23.4358 35.7488 23.63 35.5121C25.6955 32.9815 27.7545 30.4475 29.807 27.9103C30.1966 27.5547 30.6646 27.2993 31.1716 27.1655C31.6786 27.0317 32.2099 27.0234 32.7207 27.1412C33.0703 27.2793 32.9926 27.5553 32.9926 27.792C32.9926 31.9331 32.9926 36.0741 32.9926 40.2152C32.9926 40.6786 32.8567 40.866 32.3711 40.9153C30.2926 41.1223 30.2441 41.1026 30.2441 39.0321V31.9331L29.9818 31.7457Z" fill="white"/>
<path d="M79 60.3461L83.6712 57.1316C84.1663 56.7918 84.512 57.1959 84.8763 57.3796C89.0197 59.6401 93.4855 61.2748 98.1237 62.2288C100.064 62.5502 102.036 62.6488 104 62.5227C103.422 63.6597 102.442 64.5509 101.244 65.03C98.4413 66.2974 95.5172 66.132 92.6024 65.6086C87.9254 64.6425 83.4409 62.93 79.327 60.5389L79 60.3461Z" fill="#0C95ED"/>
<path d="M75 5.67889C73.3856 6.79175 71.9205 7.75746 70.5114 8.78755C69.9515 9.20143 69.5782 8.92551 69.1209 8.67719C65.1252 6.4713 60.8247 4.85089 56.355 3.86703C54.2616 3.4741 52.1242 3.35965 50 3.52673C50.4605 2.6858 51.1104 1.96006 51.8999 1.40523C52.6893 0.8504 53.5972 0.48124 54.5539 0.326092C57.4011 -0.218305 60.3393 -0.079505 63.1206 0.73077C67.2846 1.8562 71.2791 3.52003 75 5.67889Z" fill="#0C95ED"/>
<path d="M97 24H89.5552C89.0798 24 88.8421 23.6325 88.6044 23.3444C85.739 20.3183 82.673 17.507 79.4292 14.9311C78.8112 14.4444 78.8873 14.1861 79.4863 13.8087C80.7698 12.9743 82.0344 12.1201 83.2895 11.246C83.4485 11.0881 83.6596 11 83.879 11C84.0984 11 84.3094 11.0881 84.4685 11.246C88.9754 14.9304 93.1365 19.0547 96.8954 23.5629C96.9453 23.7043 96.9803 23.8508 97 24Z" fill="#0C95ED"/>
<path d="M66.0179 33.8823C66.0179 31.9272 66.0179 29.8841 66.0179 27.8899C66.0179 27.1861 66.1965 26.9906 66.8308 27.0003C69.8771 27.0003 72.9234 27.059 75.9698 27.0003C76.9435 27.0003 76.7827 27.5869 76.7916 28.2125C76.8006 28.8381 76.8988 29.4345 75.9519 29.4051C73.7632 29.3269 71.5745 29.4051 69.3858 29.4051C68.7158 29.4051 68.4924 29.6104 68.4924 30.3827C68.4924 32.8168 68.4924 32.8168 70.6633 32.8168C71.7621 32.8168 72.8609 32.8852 73.9508 32.8168C74.8441 32.7484 74.8441 33.2762 74.8441 33.9899C74.8441 34.7035 74.9603 35.2411 74.0044 35.1825C72.4321 35.0945 70.8598 35.1825 69.2786 35.1825C68.7247 35.1825 68.5192 35.3193 68.5014 35.9841C68.4478 38.5648 68.421 38.5648 70.7258 38.5648C72.5125 38.5648 74.2992 38.6235 76.0859 38.5648C76.9792 38.5648 77.0507 38.9265 76.9792 39.689C76.9078 40.4515 77.1758 41.0283 76.1306 40.9989C73.0485 40.9305 69.9665 40.9989 66.8933 40.9989C66.2323 40.9989 66 40.8132 66 40.0214C66.0536 37.8805 66.0179 35.8765 66.0179 33.8823Z" fill="white"/>
<path d="M94.047 33.9686C94.047 31.9918 94.047 29.926 94.047 27.9096C94.047 27.2178 94.255 26.9904 95.014 27.0003C98.9926 27.0003 102.975 27.0003 106.96 27.0003C107.802 27.0003 108 27.2771 108 27.9887C108 31.9951 108 35.9981 108 39.9979C108 40.7293 107.802 41.0753 106.96 40.9863C106.636 40.9498 106.308 40.9498 105.983 40.9863C105.193 41.0654 104.943 40.7886 104.943 39.9979C104.943 36.835 104.943 33.6721 104.943 30.4993C104.943 29.5899 104.694 29.3132 103.727 29.3527C101.897 29.4219 100.067 29.4219 98.2475 29.3527C97.3221 29.3527 96.9894 29.5306 97.0102 30.4696C97.083 33.593 97.0102 36.7263 97.0622 39.8496C97.0622 40.9566 96.5527 41.0357 95.6794 40.9468C94.806 40.8578 93.9223 41.3322 94.0054 39.8892C94.1302 37.942 94.047 35.9553 94.047 33.9686Z" fill="white"/>
<path d="M117.964 37.2617C115.25 36.4712 113.97 37.8051 113.349 40.1369C113.024 41.3621 112.001 40.9174 111.218 40.9372C109.794 40.9372 109.784 40.9372 110.348 39.7417C112.135 35.8784 113.941 32.0151 115.681 28.1321C116.025 27.3614 116.474 27.144 117.315 27.0551C119.35 26.7686 120.258 27.6084 120.975 29.3671C122.36 32.7759 124.023 36.0859 125.561 39.4354C126.259 40.9471 126.249 40.868 124.606 40.9767C123.43 41.0558 122.695 40.7099 122.494 39.5935C122.054 37.6174 120.841 36.8566 118.805 37.2518C118.526 37.2816 118.244 37.2849 117.964 37.2617ZM118.031 29.8513C117.276 31.531 116.655 32.8945 116.034 34.2679C115.805 34.7718 115.967 34.9397 116.512 34.9299C117.525 34.9299 118.538 34.9299 119.551 34.9299C120.057 34.9299 120.287 34.8311 120.038 34.2876C119.398 32.8945 118.796 31.5211 118.031 29.8315V29.8513Z" fill="white"/>
<path d="M127 33.9117C127 31.9369 127 29.9621 127 27.9874C127 27.2863 127.135 27 127.967 27C130.87 27 133.772 27 136.616 27C137.864 27 139.905 29.113 139.915 30.3472C139.875 30.8401 139.875 31.3354 139.915 31.8283C140.086 32.6481 139.998 33.5023 139.662 34.2673C139.326 35.0324 138.761 35.6686 138.048 36.0839C137.554 36.4878 136.939 36.7072 136.306 36.7059C134.449 36.7059 132.592 36.7059 130.724 36.7059C130.047 36.7059 129.757 36.8738 129.805 37.5946C129.854 38.3154 129.805 39.2633 129.805 40.1025C129.805 40.6555 129.689 40.9122 129.07 40.9517C127.01 41.08 127.01 41.0998 127.01 39.046C127.003 37.328 127 35.6165 127 33.9117ZM132.969 29.3697C132.214 29.3697 131.45 29.3697 130.695 29.3697C129.941 29.3697 129.728 29.4981 129.728 30.2386C129.786 31.3346 129.728 32.4405 129.728 33.5365C129.728 34.1684 129.892 34.4152 130.56 34.3955C132.147 34.3955 133.743 34.3955 135.339 34.3955C135.688 34.4108 136.031 34.2988 136.306 34.0795C136.559 33.8938 136.763 33.6488 136.903 33.3652C137.043 33.0816 137.114 32.7678 137.109 32.4503C137.264 29.8042 136.538 29.2216 134.101 29.3895C133.772 29.3697 133.346 29.3697 132.969 29.3697Z" fill="white"/>
<path d="M41.8066 41C40.1672 41 38.5382 41 36.8988 41C35.4787 41 36.1992 40.0668 36.0739 39.5364C35.9486 39.0059 36.0739 38.5541 36.9406 38.5541C39.6242 38.613 42.3078 38.5541 44.9914 38.5541C46.3802 38.5541 46.8396 38.2005 46.871 37.1396C46.871 35.8037 46.2444 35.008 44.9705 34.9785C43.3833 34.9785 41.7857 34.9196 40.1881 34.9785C39.1439 34.9785 39.3214 34.3892 39.3632 33.8686C39.4049 33.3479 38.9559 32.5719 40.1672 32.6112C41.6291 32.6112 43.1014 32.6112 44.5633 32.6112C44.8278 32.6473 45.0974 32.6283 45.3533 32.5557C45.6091 32.4831 45.8449 32.3585 46.044 32.1909C46.2431 32.0232 46.4008 31.8165 46.5057 31.5854C46.6107 31.3542 46.6606 31.1042 46.6517 30.8529C46.6517 29.7724 46.1714 29.4384 44.6468 29.4286C42.2556 29.4286 39.8644 29.3696 37.4836 29.4286C36.4394 29.4286 36.241 29.075 36.2932 28.2498C36.3454 27.4247 36.1888 26.963 37.4105 27.0023C40.3865 27.0907 43.3624 27.0023 46.3384 27.0023C47.1682 27.1192 47.9387 27.4761 48.543 28.0235C49.1474 28.5709 49.5557 29.2817 49.7112 30.0573C49.7112 31.3048 49.9096 32.5621 48.3955 33.3185C47.863 33.5837 48.2493 33.9373 48.5626 34.1043C50.651 35.1848 49.8261 37.0512 49.8992 38.5836C49.8992 39.2515 47.4453 40.8723 46.5995 40.8821L41.8066 41Z" fill="white"/>
<path d="M153.69 27.1002C152.11 29.2296 150.733 31.1519 149.269 33.0151C149.155 33.1187 149.064 33.2456 149.002 33.3874C148.94 33.5293 148.907 33.6829 148.907 33.8383C148.907 33.9937 148.94 34.1474 149.002 34.2892C149.064 34.431 149.155 34.5579 149.269 34.6615C150.85 36.6331 152.362 38.7132 154 40.882C152.168 41.0299 150.559 41.3651 149.512 39.3934C148.755 38.1744 147.906 37.0174 146.972 35.9332C146.578 35.587 146.109 35.3411 145.603 35.2159C145.098 35.0908 144.57 35.09 144.064 35.2135C143.695 35.4008 143.821 35.736 143.821 36.0022C143.821 37.3331 143.821 38.6541 143.821 39.9455C143.821 40.6849 143.637 40.9313 142.852 40.9313C140.593 40.882 141.039 41.0891 141.03 39.1766C141.03 35.46 141.03 31.7434 141.03 28.0269C141.03 27.2185 141.272 26.9227 141.999 27.041C142.321 27.075 142.646 27.075 142.968 27.041C143.569 26.9819 143.734 27.2678 143.725 27.8494C143.725 29.0225 143.725 30.2055 143.725 31.3787C143.725 31.8519 143.366 32.6504 144.054 32.7391C144.742 32.8278 145.828 33.1926 146.497 32.2068C147.389 30.8956 148.436 29.6929 149.279 28.362C149.503 27.8859 149.875 27.4983 150.338 27.2594C150.801 27.0205 151.328 26.9438 151.838 27.041C152.453 27.106 153.072 27.1258 153.69 27.1002Z" fill="white"/>
<path d="M93 40.9496C91.8976 40.9496 91.0999 40.9496 90.3111 40.9496C89.8271 40.9496 89.6031 40.6232 89.3521 40.2968C88.3752 39.021 87.3803 37.7451 86.4302 36.4396C86.0269 35.8956 85.767 35.8857 85.3636 36.4396C84.557 37.5671 83.6338 38.6155 82.872 39.7726C82.632 40.2131 82.2762 40.5625 81.852 40.7745C81.4277 40.9865 80.9551 41.0511 80.4968 40.9595C79.9984 40.9221 79.4984 40.9221 79 40.9595C79.0955 40.5329 79.3084 40.1493 79.6095 39.8617C80.9539 38.0517 82.2983 36.2516 83.6786 34.4812C83.772 34.3988 83.8475 34.2942 83.8993 34.1752C83.9511 34.0562 83.978 33.9259 83.978 33.7938C83.978 33.6618 83.9511 33.5315 83.8993 33.4125C83.8475 33.2935 83.772 33.1889 83.6786 33.1065C82.2087 31.1284 80.7746 29.2096 79.1972 27.0535H82.0205C82.4686 27.0535 82.63 27.4293 82.8451 27.726C83.7414 28.903 84.5928 30.0701 85.4353 31.2668C85.8028 31.7811 86.0448 31.7811 86.4033 31.2668C87.1293 30.2184 87.9449 29.2393 88.6351 28.1612C88.8479 27.7502 89.1703 27.4215 89.5583 27.2197C89.9464 27.018 90.3814 26.953 90.8041 27.0337C91.416 27.0733 92.0295 27.0733 92.6415 27.0337C91.1088 29.1008 89.7644 30.9899 88.3393 32.8097C87.7926 33.512 87.7029 33.9768 88.3393 34.7285C89.854 36.667 91.315 38.7144 93 40.9496Z" fill="white"/>
<path d="M60 44H67.0717C67.2056 44.0088 67.3364 44.0441 67.4562 44.1037C67.5759 44.1632 67.6823 44.2459 67.7688 44.3468C69.9387 46.273 72.2095 48.0864 74.5718 49.7798C75.0421 50.1183 75.2353 50.333 74.5718 50.6963C73.3708 51.3651 72.2117 52.0917 71.0443 52.8018C70.8922 52.9297 70.6986 53 70.4984 53C70.2982 53 70.1046 52.9297 69.9525 52.8018C66.4278 50.2294 63.1167 47.3856 60.0504 44.2972C60.0504 44.2972 60.0252 44.1817 60 44Z" fill="#0C95ED"/>
<path d="M47.5125 6C47.0829 12.6444 49.1416 18.3396 51.7375 23.8604C52.1403 24.7128 52.1761 25.0518 51.1467 24.9937C49.8488 24.9162 48.5509 24.9937 47.244 24.9937C46.8591 24.9937 46.4652 25.0518 46.2683 24.5288C44.7198 20.2477 43.4934 15.8794 44.2095 11.2593C44.3593 10.1704 44.734 9.13203 45.3059 8.22146C45.8777 7.31089 46.632 6.55158 47.5125 6Z" fill="#0C95ED"/>
<path d="M108.507 6C109.544 6.69414 110.404 7.6593 111.007 8.80691C111.61 9.95453 111.938 11.2478 111.96 12.5682C112.219 16.7048 111.199 20.5799 109.813 24.358C109.742 24.5708 109.606 24.7503 109.426 24.8653C109.246 24.9803 109.035 25.0236 108.829 24.9877C107.46 24.9877 106.092 24.9877 104.723 24.9877C103.829 24.9877 103.891 24.7068 104.231 24.019C105.917 20.6329 107.192 17.0251 108.024 13.2851C108.52 10.8965 108.683 8.44086 108.507 6Z" fill="#EF202F"/>
<path d="M50 44.0351C48.1227 48.536 46.5673 52.9856 46.9351 58C46.6944 57.9587 46.4642 57.8611 46.2595 57.7136C46.0549 57.5662 45.8804 57.3722 45.7474 57.1443C45.1075 56.3423 44.6249 55.3996 44.3306 54.3769C44.0363 53.3542 43.9369 52.274 44.0387 51.2058C44.1315 49.0032 44.5189 46.8285 45.1881 44.7539C45.3567 44.2148 45.5635 43.9838 46.1076 44.0009C47.3412 44.1121 48.5978 44.0351 50 44.0351Z" fill="#EF202F"/>
<path d="M104 44.0041H109.528C109.703 43.9871 109.879 44.0237 110.024 44.1072C110.169 44.1907 110.273 44.3153 110.316 44.458C111.647 47.5926 112.507 50.7786 111.667 54.1188C111.308 55.6119 110.284 56.9347 108.801 57.8186C108.381 58.0756 108.074 58.1184 108.115 57.5531C108.412 52.8855 106.549 48.6632 104.184 44.5351C104.108 44.362 104.046 44.1845 104 44.0041Z" fill="#0C95ED"/>
<path d="M56.6222 27C58.477 27 60.3317 27 62.1768 27C63.1378 27 62.9936 27.6104 62.984 28.1912C62.9744 28.7721 63.205 29.4612 62.1864 29.4021C61.1677 29.343 59.9665 29.4021 58.8517 29.4021C58.1214 29.4021 57.8907 29.6089 57.8907 30.3866C57.8907 33.5369 57.8907 36.6872 57.8907 39.8375C57.8907 40.7235 57.6889 41.1173 56.7856 40.9697C56.5274 40.9322 56.2654 40.9322 56.0072 40.9697C55.3153 41.0583 55.1231 40.7629 55.1327 40.0738C55.1327 36.9235 55.1327 33.7732 55.1327 30.6229C55.1327 29.6384 54.8732 29.3627 53.9507 29.4316C52.884 29.5104 51.8077 29.4316 50.7314 29.4316C49.6551 29.4316 50.0875 28.713 50.0779 28.2404C50.0683 27.7679 49.7319 27.0295 50.7314 27.0492C52.7687 27.0197 54.7003 27 56.6222 27Z" fill="white"/>
</svg>
