<svg width="143" height="16" viewBox="0 0 143 16" fill="none" xmlns="http://www.w3.org/2000/svg">
<path d="M10 14.1715C14.1333 13.9886 17.0445 11.7715 17.0445 7.93143C17.0445 4.06859 14.1333 1.85142 10 1.66857V0H6.99997V1.66857C4.88887 1.75999 3.19997 2.35428 1.91113 3.42857C0.644446 4.50286 0 5.96573 0 7.86289C0 11.68 2.86665 13.9886 6.99997 14.1715V16H10V14.1715ZM14.0889 7.88573C14.0889 10.1486 12.5555 11.4515 10 11.52V4.29717C12.5778 4.38859 14.0889 5.62288 14.0889 7.88573ZM6.99997 11.52C4.44445 11.4057 2.95553 10.1714 2.95553 7.95431C2.95553 5.73715 4.48887 4.41144 6.99997 4.29717V11.52ZM31.1111 0.182848L22.5333 9.7143V0.457165H19.5333V15.8172H20.5111L29.1111 6.19431V15.5429H32.1111V0.182848H31.1111ZM46 11.0857C46 9.50857 45.2222 8.27432 43.8889 7.61146C44.8 6.85718 45.3556 5.78289 45.3556 4.57144C45.3556 1.85142 43.4889 0.182848 40.4889 0.182848C38.0667 0.182848 36.2 1.3943 35.2 3.4743L37.2889 5.00571C38.0222 3.70288 39.0444 3.04002 40.3333 3.04002C41.6444 3.04002 42.4 3.74857 42.4 4.82286C42.4 5.85142 41.6889 6.56001 40.4444 6.56001H38.7333V9.09714H40.6667C42.2445 9.09714 43.0445 9.82858 43.0445 10.9257C43.0445 12.1829 41.9111 12.96 40.4 12.96C38.9111 12.96 37.6889 12.2286 36.7334 10.7658L34.6445 12.32C35.7111 14.4914 37.8222 15.8172 40.4222 15.8172C43.8 15.8172 46 13.92 46 11.0857Z" fill="white"/>
<path d="M50.6803 15H53.6748V2.99108H58.3773V0.267887H46V2.99108H50.6803V15ZM60.3515 15H70.4663V12.2768H63.346V8.54914H68.3812V5.98215H63.346V2.99108H70.2001V0.267887H60.3515V15ZM84.6847 15L79.8713 7.50002L84.3741 0.267887H80.9803L78.1854 4.91074L75.3684 0.267887H71.9524L76.5219 7.50002L71.6641 15H75.0801L78.1854 10.1116L81.2909 15H84.6847ZM86.681 15H89.6755V2.99108H95.9307V15H98.9253V0.267887H86.681V15ZM111.724 15H114.94L108.419 0H107.421L100.877 15H104.094L104.914 13.0803H110.903L111.724 15ZM109.861 10.6027H105.957L107.909 5.62503L109.861 10.6027ZM116.937 15H119.931V9.79912H122.438C125.499 9.79912 127.717 7.83484 127.717 5.02233C127.717 2.18751 125.499 0.267887 122.438 0.267887H116.937V15ZM119.931 7.16521V2.92411H122.438C123.791 2.92411 124.656 3.77235 124.656 5.02233C124.656 6.29466 123.835 7.16521 122.438 7.16521H119.931ZM143 15L136.656 7.20983L142.268 0.267887H138.697L133.107 7.09824V0.267887H130.113V15H133.107V7.32142L139.384 15H143Z" fill="white"/>
</svg>
