<svg width="15" height="15" viewBox="0 0 15 15" fill="none" xmlns="http://www.w3.org/2000/svg">
<g clip-path="url(#clip0)">
<path d="M12.0557 15C11.4316 15 10.6779 14.8436 9.84894 14.5308C8.03164 13.8457 6.05442 12.4915 4.28152 10.7187C2.50812 8.94525 1.15397 6.96752 0.468326 5.15022C-0.154761 3.4979 -0.156274 2.14174 0.464795 1.52118C0.554095 1.43188 0.64491 1.33602 0.738751 1.23713C1.30533 0.64129 1.94557 -0.0292217 2.79418 0.00104971C3.37892 0.0252669 3.94551 0.388524 4.52571 1.1105C6.24008 3.24262 5.46715 4.00243 4.57263 4.88333L4.41471 5.03973C4.2684 5.18604 3.99192 5.86362 6.56398 8.43568C7.40351 9.27521 8.11943 9.88972 8.69156 10.2616C9.05179 10.4957 9.69607 10.8498 9.96044 10.5855L10.1194 10.425C10.9993 9.53251 11.7591 8.76211 13.8897 10.475C14.6116 11.0552 14.9744 11.6212 14.9986 12.207C15.0334 13.0551 14.3579 13.6969 13.7615 14.2629C13.6631 14.3568 13.5673 14.4476 13.478 14.5364C13.1697 14.8452 12.6768 15 12.0557 15ZM2.73364 0.504565C2.13073 0.504565 1.58635 1.0777 1.10453 1.58475C1.00766 1.68666 0.913821 1.78555 0.821493 1.87788C0.358845 2.34002 0.405765 3.55441 0.940561 4.97263C1.60149 6.72433 2.91476 8.6385 4.63872 10.3625C6.36217 12.0854 8.27533 13.3987 10.0275 14.0591C11.4458 14.5949 12.6601 14.6403 13.1218 14.1787C13.2141 14.0863 13.313 13.9925 13.4149 13.8961C13.9331 13.4037 14.5208 12.8457 14.4951 12.2267C14.4774 11.8014 14.1677 11.3438 13.5743 10.867C11.7989 9.43918 11.3025 9.9432 10.4791 10.7782L10.3176 10.9411C9.92411 11.3352 9.28488 11.2479 8.4171 10.6838C7.8152 10.2923 7.07154 9.65562 6.20779 8.79137C4.07315 6.65723 3.39053 5.35102 4.05852 4.68152L4.21946 4.52259C5.05647 3.69921 5.5615 3.20225 4.13319 1.42583C3.6554 0.83301 3.19831 0.523232 2.77299 0.505069C2.75987 0.504565 2.74676 0.504565 2.73364 0.504565Z" fill="black"/>
</g>
<defs>
<clipPath id="clip0">
<rect width="15" height="15" fill="white"/>
</clipPath>
</defs>
</svg>
