<svg width="107" height="107" viewBox="0 0 107 107" fill="none" xmlns="http://www.w3.org/2000/svg">
<path fill-rule="evenodd" clip-rule="evenodd" d="M51.9057 14.2435C57.8318 14.2389 63.6879 15.5253 69.0671 18.0134C74.4463 20.5016 79.2196 24.1317 83.0554 28.6517C86.8912 33.1717 89.6975 38.4731 91.2793 44.1877C92.8611 49.9022 93.1805 55.8929 92.2153 61.7434C95.6825 66.6511 98.7803 71.81 101.483 77.1773C107.758 89.9053 108.72 99.6384 104.166 104.173C99.6123 108.708 89.8957 107.767 77.1753 101.489C72.7395 99.2785 68.4544 96.7774 64.3481 94.0017C57.2214 96.3025 49.5995 96.5975 42.3165 94.8544C35.0335 93.1113 28.37 89.3974 23.0551 84.1189L24.6478 82.5145C29.4538 87.3017 35.4342 90.7391 41.9882 92.4813C48.5422 94.2236 55.439 94.2094 61.9858 92.4402C53.8942 86.722 46.2603 80.3816 39.1533 73.4766L36.3099 70.7706L33.6483 67.9576C21.4196 55.2403 11.393 41.6888 5.53525 29.8165C-0.7394 17.0886 -1.7442 7.37685 2.85222 2.83116C7.44865 -1.71453 17.1225 -0.762613 29.8429 5.51579C35.2158 8.21662 40.3789 11.3164 45.289 14.789C47.4757 14.4243 49.6888 14.2418 51.9057 14.2435ZM24.6478 24.7361L24.744 24.6398C27.5323 22.148 30.6509 20.0532 34.0117 18.4149C32.2693 17.3453 30.559 16.2757 28.9022 15.3987C18.0525 9.45183 10.0141 8.07208 6.57212 11.5375C3.13015 15.0029 4.43425 23.0247 10.4096 33.8488C14.0317 40.3049 18.1902 46.4445 22.8413 52.2028C21.936 50.1264 21.1996 47.9802 20.6393 45.7853C18.8542 38.801 19.3887 32.6188 22.0717 28.1266C22.7506 26.8783 23.6036 25.7331 24.6051 24.7254L24.6478 24.7361ZM88.6664 72.9418C87.0185 76.3439 84.9068 79.5007 82.3918 82.322L82.2956 82.4075L81.8787 82.8461C77.3571 87.3704 69.9814 88.6753 61.3978 86.4826C59.1669 85.9082 56.9862 85.1535 54.8773 84.2258C60.7162 88.9891 66.9492 93.247 73.5089 96.9538C84.3265 102.879 92.3435 104.259 95.8069 100.794C99.2702 97.3281 97.9448 89.3063 91.9694 78.4929C90.9789 76.6818 89.8779 74.8243 88.6664 72.9204V72.9418Z" fill="#E5E5E5"/>
<path fill-rule="evenodd" clip-rule="evenodd" d="M29.8349 101.481C17.1083 107.758 7.37612 108.72 2.83088 104.165C-1.71436 99.6096 -0.762537 89.8894 5.51524 77.1643C11.793 64.4393 22.862 49.7466 36.3159 36.3051C49.7698 22.8636 64.4536 11.7961 77.1803 5.51909C89.907 -0.757887 99.6391 -1.72029 104.174 2.83507C108.708 7.39042 107.767 17.1 101.489 29.825C99.1858 34.4223 96.5813 38.8625 93.6929 43.1168C93.4255 42.1972 93.1368 41.2989 92.8159 40.4007C94.356 38.0375 95.757 35.7277 96.9762 33.4928C102.901 22.6712 104.281 14.6512 100.816 11.1972C97.3505 7.7433 89.3295 9.05858 78.5171 15.0361C67.7048 21.0137 54.9461 30.9264 43.1819 42.7639C31.4178 54.6014 21.3113 67.3265 15.3757 78.1481C9.44019 88.9697 8.07127 96.9897 11.5257 100.444C14.98 103.898 23.0117 102.582 33.8348 96.6048L36.1555 95.2895C37.0966 95.6637 38.0592 96.0059 39.0217 96.3588C35.8774 98.3264 32.7867 100.048 29.8136 101.524L29.8349 101.481Z" fill="#E5E5E5"/>
</svg>
