<svg width="52" height="52" viewBox="0 0 52 52" fill="none" xmlns="http://www.w3.org/2000/svg">
<path d="M34.0872 10.96C33.8005 10.96 33.524 10.8054 33.3804 10.5352C33.1735 10.1452 33.3222 9.66139 33.7122 9.45448C35.0262 8.75832 35.7494 7.95375 35.7494 7.188C35.7494 5.29798 31.3794 3.1919 25.1092 3.1919C18.8392 3.1919 14.4692 5.29798 14.4692 7.188C14.4692 7.94642 15.1819 8.74586 16.4764 9.43837C16.865 9.64675 17.0122 10.1305 16.8042 10.5198C16.5958 10.9083 16.1124 11.0545 15.7224 10.8476C13.3658 9.58742 12.8711 8.16176 12.8711 7.188C12.8711 3.99903 18.1328 1.59375 25.1092 1.59375C32.0866 1.59375 37.3483 3.99903 37.3483 7.188C37.3483 8.16835 36.847 9.60207 34.4607 10.8673C34.3414 10.9303 34.2135 10.96 34.0872 10.96Z" fill="#0C95ED"/>
<path d="M25.677 26.9899C24.5619 26.9899 23.4336 26.6636 22.4284 26.0084C19.8865 24.3543 18.2524 22.2548 17.5625 19.762C16.1398 19.5338 15.0488 18.2777 15.0488 16.7667C15.0488 15.3759 15.9724 14.2011 17.2278 13.8444V13.822C17.2278 13.3804 17.5859 13.0226 18.0272 13.0226C18.4685 13.0226 18.8259 13.3804 18.8259 13.822V14.5332C18.8259 14.9749 18.4685 15.3323 18.0272 15.3323C17.2662 15.3323 16.647 15.9761 16.647 16.7667C16.647 17.5574 17.2662 18.2008 18.0272 18.2008C18.0411 18.1979 18.114 18.1876 18.1287 18.1865C18.5242 18.1477 18.8941 18.4238 18.9768 18.8186C19.4734 21.1851 20.8881 23.0989 23.3007 24.6696C24.8054 25.6499 26.6783 25.6269 28.0702 24.611C29.9456 23.2439 31.2918 21.3122 32.1864 18.7055C32.3124 18.3378 32.6852 18.1118 33.0698 18.1755C33.139 18.1865 33.2078 18.2008 33.2803 18.2008C34.0406 18.2008 34.6595 17.5574 34.6595 16.7667C34.6595 15.9761 34.0402 15.3323 33.2803 15.3323C32.8383 15.3323 32.4809 14.9749 32.4809 14.5332V13.7971C32.4809 13.3551 32.8383 12.998 33.2803 12.998C33.7216 12.998 34.079 13.3551 34.079 13.7971V13.8444C35.3344 14.2011 36.2576 15.3759 36.2576 16.7667C36.2576 18.3649 35.0363 19.6792 33.4931 19.7909C32.49 22.435 31.0201 24.4389 29.0118 25.9019C28.0193 26.6259 26.8551 26.9892 25.677 26.9899Z" fill="#0C95ED"/>
<path d="M47.4429 50.3442H4.28699C3.8457 50.3442 3.48828 49.9867 3.48828 49.5451V40.3155C3.48828 34.7805 6.69703 29.8081 11.6632 27.6493C12.0664 27.4717 12.5385 27.6581 12.715 28.0638C12.8911 28.4678 12.7055 28.9395 12.3012 29.1149C7.91835 31.0203 5.08643 35.4166 5.08643 40.3155V48.7456H46.6438V40.3155C46.6438 35.4166 43.8122 31.0203 39.4294 29.1149C39.0248 28.9395 38.8395 28.4678 39.0156 28.0638C39.191 27.6592 39.662 27.4721 40.0674 27.6493C45.0332 29.8081 48.2423 34.7805 48.2423 40.3155V49.5451C48.2423 49.9867 47.8842 50.3442 47.4429 50.3442Z" fill="black"/>
<path d="M38.7272 49.2825C38.2859 49.2825 37.9277 48.9251 37.9277 48.483V43.7252C37.9277 43.2832 38.2859 42.9258 38.7272 42.9258C39.1685 42.9258 39.5266 43.2832 39.5266 43.7252V48.483C39.5266 48.9251 39.1685 49.2825 38.7272 49.2825Z" fill="black"/>
<path d="M13.0784 49.5457C12.6371 49.5457 12.2793 49.1883 12.2793 48.7462V43.9511C12.2793 43.5094 12.6371 43.1523 13.0784 43.1523C13.5197 43.1523 13.8775 43.5094 13.8775 43.9511V48.7462C13.8775 49.1883 13.5197 49.5457 13.0784 49.5457Z" fill="black"/>
<path d="M38.7266 35.8074C38.6062 35.8074 38.4846 35.7803 38.37 35.7228L36.1906 34.6337C35.7962 34.4363 35.6362 33.9559 35.8336 33.5614C36.0306 33.1667 36.5103 33.0077 36.9058 33.2037L38.3802 33.9412L39.5107 31.7615L35.8284 29.443C35.4553 29.2076 35.3428 28.7139 35.578 28.34C35.8131 27.9665 36.306 27.8548 36.6803 28.0899L40.9847 30.8006C41.3363 31.0214 41.4593 31.4762 41.2682 31.8443L39.4367 35.376C39.295 35.65 39.016 35.8074 38.7266 35.8074Z" fill="black"/>
<path d="M11.4919 35.807C11.3608 35.807 11.2304 35.7752 11.1129 35.7111C10.9184 35.6067 10.7763 35.4262 10.7196 35.213L9.90988 32.168C9.82162 31.838 9.95383 31.4876 10.2387 31.2979L15.0339 28.1012C15.4005 27.8562 15.8963 27.9555 16.1417 28.3228C16.3863 28.6905 16.2878 29.1859 15.9205 29.4313L11.6014 32.3101L12.046 33.9807L14.508 33.1608C14.9284 33.0213 15.3796 33.2476 15.5191 33.6658C15.6583 34.0851 15.432 34.5374 15.0138 34.6762L11.745 35.766C11.6626 35.7938 11.5772 35.807 11.4919 35.807Z" fill="black"/>
<path d="M25.6535 42.3449C25.6458 42.3449 25.6374 42.3449 25.629 42.3449C25.3162 42.3346 25.0368 42.1427 24.9163 41.8531L22.2514 35.4682C22.1668 35.2667 22.169 35.039 22.2569 34.8394L23.8151 31.297C23.9503 30.9923 24.2645 30.8081 24.5911 30.8209L26.7873 30.9425C27.0521 30.9564 27.292 31.1018 27.4289 31.3289L29.4834 34.7497C29.6233 34.9818 29.6354 35.27 29.5149 35.5139L26.3706 41.8985C26.2362 42.1724 25.9579 42.3449 25.6535 42.3449ZM23.8584 35.1693L25.714 39.6148L27.8889 35.199L26.2765 32.5139L25.0559 32.4473L23.8584 35.1693Z" fill="black"/>
<path d="M33.8265 14.3812H16.3948C15.9535 14.3812 15.5957 14.0234 15.5957 13.5818V10.0995C15.5957 9.7472 15.8261 9.43628 16.1637 9.33484C22.0799 7.547 28.1 7.54773 34.0564 9.33411C34.3937 9.43555 34.6255 9.74683 34.6255 10.0995V13.5818C34.6252 14.0234 34.2678 14.3812 33.8265 14.3812ZM17.1939 12.7827H33.027V10.6997C27.7539 9.22571 22.4336 9.22278 17.1939 10.699V12.7827Z" fill="#0C95ED"/>
<path d="M25.6534 49.9699C25.3864 49.9699 25.137 49.8362 24.9887 49.6139L16.2729 36.5402C16.0616 36.2234 16.1037 35.8012 16.3732 35.532L17.113 34.7912L16.1795 31.9915C16.066 31.6502 16.1949 31.2737 16.4948 31.0737L19.7629 28.8948C19.9577 28.7655 20.2005 28.7271 20.4257 28.7912C20.651 28.856 20.8374 29.016 20.9337 29.2288L25.6534 39.6131L30.3735 29.2288C30.4702 29.016 30.6562 28.856 30.8818 28.7912C31.1081 28.7271 31.3491 28.7655 31.5443 28.8948L34.8123 31.0737C35.1123 31.2737 35.2412 31.6502 35.1273 31.9915L34.1938 34.7912L34.9339 35.532C35.2031 35.8012 35.2452 36.2234 35.0339 36.5402L26.3184 49.6139C26.1701 49.8362 25.9211 49.9699 25.6534 49.9699ZM17.9663 36.1989L25.6538 47.7298L33.3416 36.1989L32.7154 35.5727C32.5016 35.3588 32.4268 35.0417 32.5221 34.7545L33.4182 32.0651L31.4399 30.746L26.3814 41.8752C26.2522 42.1601 25.9672 42.3435 25.6538 42.3435C25.3407 42.3435 25.0561 42.1601 24.9265 41.8752L19.8684 30.746L17.8894 32.0651L18.7858 34.7545C18.8818 35.0417 18.8067 35.3588 18.5928 35.5727L17.9663 36.1989Z" fill="black"/>
<path d="M25.6531 32.5383C24.0114 32.5383 22.6758 31.202 22.6758 29.5603C22.6758 27.9182 24.0114 26.583 25.6531 26.583C27.2952 26.583 28.6315 27.9182 28.6315 29.5603C28.6315 31.202 27.2952 32.5383 25.6531 32.5383ZM25.6531 28.1812C24.8928 28.1812 24.2739 28.7997 24.2739 29.5599C24.2739 30.3213 24.8932 30.9398 25.6531 30.9398C26.4144 30.9398 27.0333 30.3209 27.0333 29.5599C27.0333 28.7997 26.4144 28.1812 25.6531 28.1812Z" fill="black"/>
</svg>
