<svg width="44" height="44" viewBox="0 0 44 44" fill="none" xmlns="http://www.w3.org/2000/svg">
<path d="M23.9903 38.1278C23.8363 38.1278 4.03918 38.1278 4.03918 38.1278C2.82442 38.1278 1.8395 37.1429 1.8395 35.9281V12.4649H39.9673V26.0002C39.9673 26.4051 40.2956 26.7334 40.7005 26.7334C41.1054 26.7334 41.4337 26.4051 41.4337 26.0002V7.33227C41.4337 5.30766 39.7922 3.66613 37.7676 3.66613H36.3012V2.93291C36.3012 2.52799 35.9729 2.19968 35.5679 2.19968C35.163 2.19968 34.8347 2.52799 34.8347 2.93291V5.86581C34.8347 6.67566 34.1781 7.33227 33.3683 7.33227C32.5584 7.33227 31.9018 6.67566 31.9018 5.86581V2.93291C31.9018 2.12306 32.5584 1.46645 33.3683 1.46645C33.7732 1.46645 34.1015 1.13815 34.1015 0.733227C34.1015 0.328305 33.7732 0 33.3683 0C31.7486 0 30.4353 1.31322 30.4353 2.93291V3.66613H23.8363V2.93291C23.8363 2.52799 23.508 2.19968 23.1031 2.19968C22.6982 2.19968 22.3699 2.52799 22.3699 2.93291V5.86581C22.3699 6.67566 21.7132 7.33227 20.9034 7.33227C20.0936 7.33227 19.4369 6.67566 19.4369 5.86581V2.93291C19.4369 2.12306 20.0936 1.46645 20.9034 1.46645C21.3083 1.46645 21.6366 1.13815 21.6366 0.733227C21.6366 0.328305 21.3083 0 20.9034 0C19.2837 0 17.9705 1.31322 17.9705 2.93291V3.66613H11.3714V2.93291C11.3714 2.52799 11.0431 2.19968 10.6382 2.19968C10.2333 2.19968 9.90499 2.52799 9.90499 2.93291V5.86581C9.90499 6.67566 9.24838 7.33227 8.43854 7.33227C7.6287 7.33227 6.97209 6.67566 6.97209 5.86581V2.93291C6.97209 2.12306 7.6287 1.46645 8.43854 1.46645C8.84346 1.46645 9.17177 1.13815 9.17177 0.733227C9.17177 0.328305 8.84346 0 8.43854 0C6.81885 0 5.50563 1.31322 5.50563 2.93291V3.66613H4.03918C2.01457 3.66613 0.373047 5.30766 0.373047 7.33227V35.9281C0.373047 37.9527 2.01457 39.5942 4.03918 39.5942H20.9034C24.7528 39.5942 24.7528 39.5942 24.7528 38.861C24.7539 38.6663 24.6773 38.4787 24.5402 38.3405C24.3948 38.1958 24.1954 38.1185 23.9903 38.1278ZM4.03918 5.13259H5.50563V5.86581C5.50563 7.4855 6.81885 8.79872 8.43854 8.79872C10.0582 8.79872 11.3714 7.4855 11.3714 5.86581V5.13259H17.9705V5.86581C17.9705 7.4855 19.2837 8.79872 20.9034 8.79872C22.5231 8.79872 23.8363 7.4855 23.8363 5.86581V5.13259H30.4353V5.86581C30.4353 7.4855 31.7486 8.79872 33.3683 8.79872C34.9879 8.79872 36.3012 7.4855 36.3012 5.86581V5.13259H37.7676C38.9824 5.13259 39.9673 6.1175 39.9673 7.33227V10.9984H1.8395V7.33227C1.8395 6.1175 2.82442 5.13259 4.03918 5.13259Z" fill="black"/>
<path d="M13.5706 15.3983C13.5706 14.9933 13.2422 14.665 12.8373 14.665H6.97151C6.56659 14.665 6.23828 14.9933 6.23828 15.3983V21.2641C6.23828 21.669 6.56659 21.9973 6.97151 21.9973H12.8373C13.2422 21.9973 13.5706 21.669 13.5706 21.2641V15.3983ZM12.1041 20.5309H7.70474V16.1315H12.1041V20.5309Z" fill="black"/>
<path d="M12.8373 26.3961C13.2422 26.3961 13.5706 26.0678 13.5706 25.6629C13.5706 25.258 13.2422 24.9297 12.8373 24.9297H6.97151C6.56659 24.9297 6.23828 25.258 6.23828 25.6629V31.5287C6.23828 31.9336 6.56659 32.2619 6.97151 32.2619H12.8373C13.2422 32.2619 13.5706 31.9336 13.5706 31.5287V28.5958C13.5706 28.1909 13.2422 27.8626 12.8373 27.8626C12.4324 27.8626 12.1041 28.1909 12.1041 28.5958V30.7955H7.70474V26.3961H12.8373Z" fill="black"/>
<path d="M17.2371 24.9297C16.8322 24.9297 16.5039 25.258 16.5039 25.6629V31.5287C16.5039 31.9336 16.8322 32.2619 17.2371 32.2619H23.1029C23.5079 32.2619 23.8362 31.9336 23.8362 31.5287V25.6629C23.8362 25.258 23.5079 24.9297 23.1029 24.9297H17.2371ZM22.3697 30.7955H17.9704V26.3961H22.3697V30.7955Z" fill="black"/>
<path d="M33.3686 20.5309C33.7735 20.5309 34.1018 20.2025 34.1018 19.7976V15.3983C34.1018 14.9933 33.7735 14.665 33.3686 14.665H27.5028C27.0978 14.665 26.7695 14.9933 26.7695 15.3983V21.2641C26.7695 21.669 27.0978 21.9973 27.5028 21.9973C27.9077 21.9973 28.236 21.669 28.236 21.2641V16.1315H32.6354V19.7976C32.6354 20.2025 32.9637 20.5309 33.3686 20.5309Z" fill="black"/>
<path d="M23.6239 14.8771C23.4861 14.7382 23.2988 14.6602 23.1033 14.6602C22.9079 14.6602 22.7203 14.7382 22.5828 14.8771L20.1704 17.2966L17.7581 14.8771C17.4706 14.5896 17.0045 14.5896 16.717 14.8771C16.4295 15.1646 16.4295 15.6308 16.717 15.9182L19.1365 18.3306L16.717 20.7429C16.578 20.8804 16.5 21.068 16.5 21.2635C16.5 21.459 16.578 21.6466 16.717 21.7841C16.8544 21.923 17.042 22.001 17.2375 22.001C17.433 22.001 17.6202 21.923 17.7581 21.7841L20.1704 19.3646L22.5828 21.7841C22.7203 21.923 22.9079 22.001 23.1033 22.001C23.2988 22.001 23.4861 21.923 23.6239 21.7841C23.7628 21.6466 23.8409 21.459 23.8409 21.2635C23.8409 21.068 23.7628 20.8804 23.6239 20.7429L21.2044 18.3306L23.6239 15.9182C23.7628 15.7808 23.8409 15.5932 23.8409 15.3977C23.8409 15.2022 23.7628 15.0146 23.6239 14.8771Z" fill="black"/>
<path fill-rule="evenodd" clip-rule="evenodd" d="M38.5009 24.9295V27.2025C42.2612 28.9261 44.313 33.0361 43.4312 37.0771C42.549 41.1185 38.971 43.9998 34.8348 43.9998C30.6982 43.9998 27.1205 41.1185 26.2383 37.0771C25.3565 33.0361 27.4083 28.9261 31.1686 27.2025V24.9295C31.1686 24.5245 31.4969 24.1962 31.9019 24.1962H34.1015V23.463C34.1015 21.4384 35.7431 19.7969 37.7677 19.7969C38.1726 19.7969 38.5009 20.1252 38.5009 20.5301C38.5009 20.935 38.1726 21.2633 37.7677 21.2633C36.5529 21.2633 35.568 22.2482 35.568 23.463V24.1962H37.7677C38.1726 24.1962 38.5009 24.5245 38.5009 24.9295ZM35.568 41.7937V42.5269C39.0644 42.1918 41.8319 39.4243 42.167 35.9279H41.4338C41.0289 35.9279 40.7006 35.5996 40.7006 35.1946C40.7006 34.7897 41.0289 34.4614 41.4338 34.4614H42.167C41.8777 31.7054 40.0594 29.3482 37.4669 28.3683C37.1848 28.2594 36.9986 27.9888 36.9979 27.6862V25.6627H32.5986V27.6862C32.5975 27.9888 32.4113 28.2594 32.1292 28.3683C29.5654 29.37 27.7789 31.7229 27.5025 34.4614H28.2357C28.6406 34.4614 28.9689 34.7897 28.9689 35.1946C28.9689 35.5996 28.6406 35.9279 28.2357 35.9279H27.5025C27.8376 39.4243 30.6051 42.1918 34.1015 42.5269V41.7937C34.1015 41.3888 34.4298 41.0605 34.8348 41.0605C35.2397 41.0605 35.568 41.3888 35.568 41.7937ZM32.131 40H33.561V36.243H36.044C36.9973 36.243 37.7383 35.9917 38.267 35.489C38.813 34.9777 39.086 34.3277 39.086 33.539C39.086 32.7503 38.813 32.1177 38.267 31.641C37.7383 31.147 36.9973 30.9 36.044 30.9H32.131V40ZM33.561 34.93V32.213H35.927C36.473 32.213 36.8933 32.33 37.188 32.564C37.4913 32.798 37.643 33.1317 37.643 33.565C37.643 33.9983 37.4913 34.3363 37.188 34.579C36.8847 34.813 36.4643 34.93 35.927 34.93H33.561Z" fill="#0C95ED"/>
</svg>
