<svg width="64" height="50" viewBox="0 0 64 50" fill="none" xmlns="http://www.w3.org/2000/svg">
<path d="M29.5391 15.5479V49.3309C29.5391 49.6897 29.8299 49.9806 30.1888 49.9806H54.8764C55.235 49.9806 55.5259 49.6897 55.5259 49.3309V22.0448C55.5259 22.0304 55.519 22.0181 55.5176 22.0039C55.5144 21.9469 55.5032 21.8907 55.4844 21.8369C55.4772 21.816 55.4721 21.7959 55.463 21.7756C55.4314 21.705 55.3876 21.6405 55.333 21.5853L48.8363 15.0887C48.7812 15.0338 48.7164 14.99 48.6453 14.9586C48.6257 14.9504 48.6059 14.9434 48.5856 14.9372C48.5313 14.9185 48.4748 14.9073 48.4173 14.9035C48.4063 14.9054 48.3934 14.8984 48.3798 14.8984H30.1888C29.8299 14.8984 29.5391 15.1891 29.5391 15.5479ZM53.308 21.3951H49.0293V17.1163L53.308 21.3951ZM30.8383 16.1977H47.73V22.0448C47.73 22.4034 48.0209 22.6943 48.3795 22.6943H54.2267V48.6814H30.8383V16.1977Z" fill="black"/>
<path d="M56.8239 44.783V46.0822H58.7729C59.1318 46.0822 59.4227 45.7916 59.4227 45.4327V11.6497C59.4227 11.2909 59.1318 11 58.7729 11H34.0853C33.7264 11 33.4355 11.2909 33.4355 11.6497V13.5987H34.735V12.2992H58.1232V44.783H56.8239Z" fill="black"/>
<path d="M34.7363 23.9941H50.3283V25.2934H34.7363V23.9941Z" fill="black"/>
<path d="M34.7363 20.0947H39.9338V21.3942H34.7363V20.0947Z" fill="black"/>
<path d="M34.7363 27.8916H45.1312V29.1911H34.7363V27.8916Z" fill="black"/>
<path d="M46.4297 27.8916H50.3276V29.1911H46.4297V27.8916Z" fill="black"/>
<path d="M34.7363 31.7891H50.3283V33.0885H34.7363V31.7891Z" fill="black"/>
<path d="M34.7363 39.5859H50.3283V40.8854H34.7363V39.5859Z" fill="black"/>
<path d="M40.582 35.6875H50.3271V36.9868H40.582V35.6875Z" fill="black"/>
<path d="M34.7363 35.6875H39.284V36.9868H34.7363V35.6875Z" fill="black"/>
<path d="M34.7363 43.4834H37.335V44.7826H34.7363V43.4834Z" fill="black"/>
<path d="M38.6348 43.4834H50.3288V44.7826H38.6348V43.4834Z" fill="black"/>
<path fill-rule="evenodd" clip-rule="evenodd" d="M0 17.1389C0 8.15305 7.38863 0.866211 16.5 0.866211C20.7199 0.866211 24.5703 2.42929 27.4883 5.00031H26V5.58584C23.4087 3.50961 20.1043 2.26317 16.5 2.26317C8.15429 2.26317 1.41647 8.94591 1.41647 17.1389C1.41647 25.3319 8.15429 32.0146 16.5 32.0146C20.1043 32.0146 23.4087 30.7682 26 28.6919V30.4446C23.3138 32.3137 20.0367 33.4116 16.5 33.4116C7.38863 33.4116 0 26.1247 0 17.1389Z" fill="#0C95ED"/>
<path d="M11.1396 23.2686C9.45514 23.2686 8.11523 24.6085 8.11523 26.2929C8.11523 27.9774 9.45514 29.3173 11.1396 29.3173C12.8241 29.3173 14.164 27.9391 14.164 26.2929C14.164 24.6085 12.8241 23.2686 11.1396 23.2686Z" fill="#0C95ED"/>
<path d="M21.8584 23.2686C20.1739 23.2686 18.834 24.6085 18.834 26.2929C18.834 27.9391 20.2122 29.3173 21.8584 29.3173C23.5428 29.3173 24.8827 27.9774 24.8827 26.2929C24.8827 24.6085 23.5428 23.2686 21.8584 23.2686Z" fill="#0C95ED"/>
<path d="M26.569 33.5673C26.4541 33.529 15.5818 30.964 10.8347 39.0035C10.605 39.3863 10.7198 39.884 11.1026 40.1137C11.2175 40.1903 11.3706 40.2285 11.5237 40.2285C11.7917 40.2285 12.0597 40.0754 12.2128 39.8457C16.3091 32.8016 26.0713 35.0986 26.1862 35.0986C26.6073 35.2134 27.0667 34.9455 27.1432 34.5243C27.2581 34.1032 26.9901 33.6821 26.569 33.5673Z" fill="#0C95ED"/>
</svg>
