<svg width="59" height="50" viewBox="0 0 59 50" fill="none" xmlns="http://www.w3.org/2000/svg">
<path fill-rule="evenodd" clip-rule="evenodd" d="M38.3574 40.9019L57.7061 29.7307C57.9832 29.5707 58.154 29.2751 58.154 28.955V19.0229C58.1539 18.7029 57.9832 18.4072 57.706 18.2472L48.5371 12.9542C49.4173 11.6656 50.5829 10.566 51.9745 9.76323C52.2517 9.60331 52.4226 9.30761 52.4226 8.98754C52.4226 8.66747 52.252 8.37177 51.9748 8.21173L43.3739 3.24602C43.0997 3.08777 42.7625 3.08586 42.4869 3.241L42.4753 3.24757C40.8087 4.2098 39.4182 5.53546 38.3809 7.09066L38.3574 7.07707V11.5861C38.9722 8.92256 40.6075 6.56151 42.9381 5.06276L49.827 9.04009C47.151 11.0563 45.3968 14.0942 44.9882 17.4197L38.3574 13.5886V15.6576L45.3443 19.6943C45.483 19.7743 45.6376 19.8145 45.7924 19.8145C45.9471 19.8145 46.1017 19.7744 46.2403 19.6944C46.5175 19.5344 46.6883 19.2387 46.6881 18.9185C46.688 18.3835 46.7302 17.8538 46.8097 17.3331L49.736 19.0228L45.7936 21.2988L38.3574 17.0057V19.0745L45.3455 23.109C45.4841 23.189 45.6387 23.229 45.7934 23.229C45.948 23.229 46.1027 23.189 46.2412 23.109L51.9749 19.7987C52.252 19.6387 52.4227 19.3431 52.4227 19.023C52.4227 18.703 52.252 18.4073 51.9749 18.2473L47.2521 15.5202C47.3689 15.1773 47.5034 14.8413 47.6542 14.5131L55.4678 19.0237L45.7931 24.6115L38.3574 20.3175V22.3861L44.2556 25.7922L38.3574 30.8994V33.2692L46.315 26.3788L56.3626 20.5757V28.4379L38.3574 38.8334V40.9019ZM38.3574 29.1522L41.0367 26.8322C41.2559 26.6425 41.3696 26.3585 41.3421 26.0701C41.3147 25.7817 41.1493 25.5243 40.8984 25.3795L38.3574 23.9121V25.9807L38.913 26.3016L38.3574 26.7827V29.1522Z" fill="black"/>
<path fill-rule="evenodd" clip-rule="evenodd" d="M31.0633 9.33691L24.2337 13.2808C24.1845 13.3093 24.1381 13.3422 24.0951 13.3795L1.15961 33.245L1.1608 33.2463C0.966728 33.4144 0.850405 33.659 0.850286 33.9213L0.847656 37.2303C0.847419 37.5506 1.0182 37.8467 1.29552 38.0067L21.3669 49.5921C21.5054 49.672 21.6601 49.712 21.8148 49.712C21.9695 49.712 22.1243 49.672 22.263 49.5919L31.0633 44.5109V42.4424L22.7093 47.2656L22.7083 45.9162L31.0633 38.6818V36.3121L21.708 44.4127L3.2834 33.7752L24.7865 15.1507L31.0633 18.7755V16.7069L26.4734 14.0563L31.0633 11.4057V9.33691ZM31.0633 12.648L29.9674 13.281C29.6904 13.441 29.5197 13.7367 29.5197 14.0566C29.5197 14.3767 29.6905 14.6723 29.9676 14.8323L31.0633 15.4649V12.648ZM31.0633 20.3015L25.4911 17.0837C25.1605 16.8927 24.7452 16.9322 24.4567 17.1823L20.0641 20.987C19.8451 21.1766 19.7314 21.4606 19.7589 21.749C19.7864 22.0373 19.9519 22.2947 20.2028 22.4396L31.0633 28.7099V26.6413L22.1882 21.5172L25.1477 18.9538L31.0633 22.3701V20.3015ZM31.0633 29.9501L18.808 22.8732C18.4773 22.6823 18.0623 22.7218 17.7736 22.9718L6.50098 32.7357C6.28183 32.9254 6.16813 33.2094 6.1956 33.4979C6.22307 33.7863 6.38848 34.0437 6.6394 34.1885L21.0021 42.4808C21.1416 42.5613 21.296 42.6008 21.4498 42.6008C21.6604 42.6008 21.8695 42.5267 22.0364 42.3823L31.0633 34.566V32.1963L21.3456 40.6107L8.62466 33.2662L18.4643 24.7435L31.0633 32.019V29.9501ZM2.6404 35.4727L2.63944 36.714L20.9179 47.2644L20.9169 46.0247L2.6404 35.4727Z" fill="black"/>
<rect x="34.1895" width="1.04192" height="48.9702" fill="#0C95ED"/>
</svg>
