<svg width="62" height="63" viewBox="0 0 62 63" fill="none" xmlns="http://www.w3.org/2000/svg">
<g clip-path="url(#clip0)">
<path d="M58.9 15.0477H57.8667V11.9477C57.8646 10.2362 56.4781 8.84967 54.7667 8.84766H52.7V10.9143H54.7667C55.3373 10.9148 55.7995 11.377 55.8 11.9477V15.0477H6.2V11.9477C6.2005 11.377 6.66268 10.9148 7.23333 10.9143H9.3V8.84766H7.23333C5.52187 8.84967 4.13535 10.2362 4.13333 11.9477V15.0477H3.1C1.38854 15.0497 0.00201823 16.4362 0 18.1477V45.0143C0.00201823 46.7258 1.38854 48.1123 3.1 48.1143H9.3V46.0476H7.23333V35.7143C7.23384 35.1437 7.69601 34.6815 8.26667 34.681H53.7333C54.304 34.6815 54.7662 35.1437 54.7667 35.7143V46.0476H52.7V48.1143H58.9C60.6115 48.1123 61.998 46.7258 62 45.0143V18.1477C61.998 16.4362 60.6115 15.0497 58.9 15.0477ZM3.1 17.1143H20.6667V26.4143C20.6662 26.985 20.204 27.4471 19.6333 27.4477H2.06667V18.1477C2.06717 17.577 2.52935 17.1148 3.1 17.1143ZM59.9333 45.0143C59.9328 45.585 59.4707 46.0471 58.9 46.0476H56.8333V35.7143C56.8313 34.0029 55.4448 32.6163 53.7333 32.6143H8.26667C6.55521 32.6163 5.16868 34.0029 5.16667 35.7143V46.0476H3.1C2.52935 46.0471 2.06717 45.585 2.06667 45.0143V29.5143H19.6333C21.3448 29.5123 22.7313 28.1258 22.7333 26.4143V17.1143H58.9C59.4707 17.1148 59.9328 17.577 59.9333 18.1477V45.0143Z" fill="white"/>
<path d="M13.4339 3.68106C13.4344 3.1104 13.8965 2.64823 14.4672 2.64772H47.5338C48.1045 2.64823 48.5667 3.1104 48.5672 3.68106V12.9811H50.6339V3.68106C50.6318 1.9696 49.2453 0.583073 47.5338 0.581055H14.4672C12.7557 0.583073 11.3692 1.9696 11.3672 3.68106V12.9811H13.4339V3.68106Z" fill="white"/>
<path d="M48.5672 59.4809C48.5667 60.0515 48.1045 60.5137 47.5338 60.5142H14.4672C13.8965 60.5137 13.4344 60.0515 13.4339 59.4809V36.7476H11.3672V59.4809C11.3692 61.1924 12.7557 62.5789 14.4672 62.5809H47.5338C49.2453 62.5789 50.6318 61.1924 50.6339 59.4809V36.7476H48.5672V59.4809Z" fill="white"/>
<path d="M8.26615 21.2478C8.26615 22.3891 7.34079 23.3145 6.19948 23.3145C5.05817 23.3145 4.13281 22.3891 4.13281 21.2478C4.13281 20.1065 5.05817 19.1812 6.19948 19.1812C7.34079 19.1812 8.26615 20.1065 8.26615 21.2478Z" fill="white"/>
<path d="M20.6667 41.9146H17.5667C16.4259 41.9161 15.5015 42.8404 15.5 43.9812V47.0812C15.5015 48.222 16.4259 49.1464 17.5667 49.1479H20.6667C21.8075 49.1464 22.7318 48.222 22.7333 47.0812V43.9812C22.7318 42.8404 21.8075 41.9161 20.6667 41.9146ZM17.5667 47.0812V43.9812H20.6667L20.6682 47.0812H17.5667Z" fill="white"/>
<path d="M24.7998 42.9478H26.8665V45.0144H24.7998V42.9478Z" fill="white"/>
<path d="M44.4336 42.9478H46.5003V45.0144H44.4336V42.9478Z" fill="white"/>
<path d="M28.9336 42.9478H42.3669V45.0144H28.9336V42.9478Z" fill="white"/>
<path d="M24.7998 47.0811H26.8665V49.1477H24.7998V47.0811Z" fill="white"/>
<path d="M44.4336 47.0811H46.5003V49.1477H44.4336V47.0811Z" fill="white"/>
<path d="M28.9336 47.0811H42.3669V49.1477H28.9336V47.0811Z" fill="white"/>
<path d="M44.4336 55.3477H46.5003V57.4143H44.4336V55.3477Z" fill="white"/>
<path d="M15.5 55.3477H17.5667V57.4143H15.5V55.3477Z" fill="white"/>
<path d="M19.6328 55.3477H42.3661V57.4143H19.6328V55.3477Z" fill="white"/>
<path d="M44.4336 51.2144H46.5003V53.281H44.4336V51.2144Z" fill="white"/>
<path d="M19.6328 51.2144H42.3661V53.281H19.6328V51.2144Z" fill="white"/>
<path d="M15.5 51.2144H17.5667V53.281H15.5V51.2144Z" fill="white"/>
<path d="M54.7661 20.2144H52.6995C51.5587 20.2159 50.6343 21.1402 50.6328 22.281V24.3477C50.6343 25.4885 51.5587 26.4128 52.6995 26.4144H54.7661C55.907 26.4128 56.8313 25.4885 56.8328 24.3477V22.281C56.8313 21.1402 55.907 20.2159 54.7661 20.2144ZM52.6995 24.3477V22.281H54.7661L54.7677 24.3477H52.6995Z" fill="white"/>
</g>
<defs>
<clipPath id="clip0">
<rect width="62" height="62" fill="white" transform="translate(0 0.581055)"/>
</clipPath>
</defs>
</svg>
