<svg width="66" height="67" viewBox="0 0 66 67" fill="none" xmlns="http://www.w3.org/2000/svg">
<g clip-path="url(#clip0)">
<path d="M48.3999 54.7166V42.4333C48.3999 40.5349 46.97 39.0833 45.0999 39.0833H44.5499C43.9999 39.0833 43.5599 38.7483 43.45 38.3017L39.6 24.6784V24.5668C38.7199 22.5568 36.74 21.2168 34.54 21.2168H13.8599C11.6599 21.2168 9.67995 22.5568 8.79992 24.5668V24.6784L4.94993 38.3017C4.72989 38.7483 4.28994 39.0833 3.84999 39.0833H3.29995C1.42994 39.0833 0 40.5349 0 42.4333V54.7166C0 56.615 1.42994 58.0666 3.29995 58.0666V63.6499C3.29995 65.5482 4.72989 66.9998 6.59991 66.9998H8.79992C10.6699 66.9998 12.0999 65.5482 12.0999 63.6499V58.0666H36.2999V63.6499C36.2999 65.5482 37.7298 66.9998 39.5998 66.9998H41.7999C43.6699 66.9998 45.0998 65.5482 45.0998 63.6499V58.0666C46.97 58.0666 48.3999 56.615 48.3999 54.7166ZM9.89999 63.6499C9.89999 64.3198 9.46004 64.7665 8.80005 64.7665H6.60004C5.94005 64.7665 5.5001 64.3198 5.5001 63.6499V58.0666H9.90012V63.6499H9.89999ZM42.8999 63.6499C42.8999 64.3198 42.46 64.7665 41.8 64.7665H39.6C38.94 64.7665 38.5 64.3198 38.5 63.6499V58.0666H42.9001V63.6499H42.8999ZM46.2 54.7166C46.2 55.3866 45.7601 55.8332 45.1001 55.8332H44.0001H37.4001H10.9999H4.40003H3.29995C2.63996 55.8332 2.20001 55.3866 2.20001 54.7166V42.4333C2.20001 41.7633 2.63996 41.3167 3.29995 41.3167H3.84999C5.27993 41.3167 6.60004 40.3117 7.03999 38.8599L10.89 25.3482C11.44 24.2316 12.54 23.4499 13.8599 23.4499H34.54C35.75 23.4499 36.96 24.1199 37.5099 25.3482L41.3599 38.8599C41.7999 40.3115 43.12 41.3167 44.5499 41.3167H45.0999C45.7599 41.3167 46.1999 41.7633 46.1999 42.4333V54.7166H46.2Z" fill="white"/>
<path d="M9.90003 43.5498C7.47997 43.5498 5.5 45.5598 5.5 48.0165C5.5 50.4732 7.47997 52.4832 9.90003 52.4832C12.3201 52.4832 14.3001 50.4732 14.3001 48.0165C14.3001 45.5598 12.3201 43.5498 9.90003 43.5498ZM9.90003 50.2498C8.69 50.2498 7.70001 49.2449 7.70001 48.0165C7.70001 46.7881 8.69 45.7832 9.90003 45.7832C11.1101 45.7832 12.1 46.7881 12.1 48.0165C12.1 49.2449 11.1101 50.2498 9.90003 50.2498Z" fill="white"/>
<path d="M38.4996 43.5498C36.0796 43.5498 34.0996 45.5598 34.0996 48.0165C34.0996 50.4732 36.0796 52.4832 38.4996 52.4832C40.9197 52.4832 42.8997 50.4732 42.8997 48.0165C42.8997 45.5598 40.9196 43.5498 38.4996 43.5498ZM38.4996 50.2498C37.2896 50.2498 36.2996 49.2449 36.2996 48.0165C36.2996 46.7881 37.2896 45.7832 38.4996 45.7832C39.7097 45.7832 40.6997 46.7881 40.6997 48.0165C40.6997 49.2449 39.7095 50.2498 38.4996 50.2498Z" fill="white"/>
<path d="M26.4004 49.1333H22.0003C21.3403 49.1333 20.9004 49.5799 20.9004 50.2499C20.9004 50.9199 21.3403 51.3665 22.0003 51.3665H26.4004C27.0603 51.3665 27.5003 50.9199 27.5003 50.2499C27.5003 49.5801 27.0603 49.1333 26.4004 49.1333Z" fill="white"/>
<path d="M28.5992 44.6665H19.7992C19.1392 44.6665 18.6992 45.1131 18.6992 45.7831C18.6992 46.4531 19.1392 46.8997 19.7992 46.8997H28.5992C29.2592 46.8997 29.6992 46.4531 29.6992 45.7831C29.6993 45.1131 29.2593 44.6665 28.5992 44.6665Z" fill="white"/>
<path d="M13.6395 39.0832H34.8694C35.5294 39.0832 36.1894 38.7482 36.6295 38.1898C37.0696 37.6315 37.1795 36.8498 36.9595 36.1799L34.3194 27.2465C34.0994 26.3531 33.2193 25.6831 32.2293 25.6831H16.2795C15.2895 25.6831 14.5194 26.2415 14.1894 27.2465L11.5495 36.1799C11.3294 36.8498 11.4395 37.6315 11.8795 38.1898C12.3195 38.7481 12.9795 39.0832 13.6395 39.0832ZM16.2795 27.9165H32.2295L34.8694 36.8498H13.6395L16.2795 27.9165Z" fill="white"/>
<path d="M64.9004 0H46.2005C45.5405 0 45.1006 0.446616 45.1006 1.11661V20.1C45.1006 20.77 45.5405 21.2166 46.2005 21.2166H53.9005V55.8333H51.7005C51.0405 55.8333 50.6006 56.2799 50.6006 56.9499V60.2998H48.4005C47.7406 60.2998 47.3006 60.7464 47.3006 61.4164V65.8831C47.3006 66.5531 47.7406 66.9997 48.4005 66.9997H61.6005C62.2605 66.9997 62.7004 66.5531 62.7004 65.8831V61.4164C62.7004 60.7464 62.2605 60.2998 61.6005 60.2998H59.4005V56.9499C59.4005 56.2799 58.9605 55.8333 58.3005 55.8333H56.1005V21.2166H64.9006C65.5606 21.2166 66.0005 20.77 66.0005 20.1V1.11661C66.0005 0.446616 65.5604 0 64.9004 0ZM60.5004 64.7667H49.5005V62.5333H51.7005H58.3005H60.5006V64.7667H60.5004ZM57.2005 60.3H52.8004V58.0666H57.2005V60.3ZM63.8005 18.9834H47.3005V2.23335H63.8005V18.9834Z" fill="white"/>
<path d="M53.8999 16.7498C54.5599 16.7498 54.9998 16.3032 54.9998 15.6332V13.3997H56.0998C58.5198 13.3997 60.4998 11.3897 60.4998 8.933C60.4998 6.47628 58.5198 4.46631 56.0998 4.46631H53.8997C53.2398 4.46631 52.7998 4.91292 52.7998 5.58291V12.283V15.6329C52.7998 16.303 53.2399 16.7498 53.8999 16.7498ZM58.2998 8.93313C58.2998 10.1615 57.3098 11.1665 56.0998 11.1665H54.9998V6.69979H56.0998C57.3098 6.69979 58.2998 7.70477 58.2998 8.93313Z" fill="white"/>
</g>
<defs>
<clipPath id="clip0">
<rect width="66" height="67" fill="white"/>
</clipPath>
</defs>
</svg>
