<svg width="66" height="69" viewBox="0 0 66 69" fill="none" xmlns="http://www.w3.org/2000/svg">
<g clip-path="url(#clip0)">
<path d="M64.7465 27.7837C64.6209 27.8105 61.6394 28.4487 59.121 29.2264C55.7513 30.267 53.8186 32.4585 53.8186 35.2384V47.7873H45.2878C43.181 47.7873 41.4668 49.5533 41.4668 51.7242V68.0441H43.5508V51.7242C43.5508 50.7374 44.3299 49.9346 45.2877 49.9346H55.9027V35.2386C55.9027 32.8227 58.2941 31.7236 59.7194 31.2834C61.1676 30.8362 62.8145 30.4282 63.9154 30.1701V51.0265C63.9154 53.5919 61.8896 55.6792 59.3996 55.6792H47.8621L46.3559 68.0444H48.4231L49.6959 57.8265H59.3998C63.039 57.8265 65.9998 54.7759 65.9998 51.0265V27.5166L64.7465 27.7837Z" fill="white"/>
<path d="M59.9567 11.0142H59.9556C56.6989 11.0142 54.0356 13.6814 53.9161 17.0072L51.001 23.8984H53.9119V27.4773H59.6783C63.1643 27.4773 66.0004 24.5553 66.0004 20.9637V17.2409C66.0004 13.8075 63.2891 11.0142 59.9567 11.0142ZM63.9162 20.9637C63.9162 23.3713 62.015 25.33 59.6783 25.33H55.9962V21.751H54.1829L55.9962 17.4648V17.2411C55.9962 14.9916 57.7724 13.1616 59.9557 13.1616H59.9569C62.1401 13.1616 63.9163 14.9916 63.9163 17.2411V20.9637H63.9162Z" fill="white"/>
<path d="M20.7118 47.7875H12.1811V35.2386C12.1811 32.4585 10.2485 30.2673 6.87868 29.2266C4.36025 28.4488 1.37891 27.8106 1.25322 27.7838L0 27.5166V51.0265C0 54.7759 2.96084 57.8265 6.59999 57.8265H16.3039L17.5766 68.0444H19.6437L18.1376 55.6792H6.59999C4.10991 55.6792 2.08415 53.5919 2.08415 51.0265V30.1701C3.18449 30.4278 4.83088 30.8358 6.28017 31.2834C7.70549 31.7237 10.0968 32.8229 10.0968 35.2386V49.9348H20.7118C21.6696 49.9348 22.4487 50.7375 22.4487 51.7243V68.0443H24.5329V51.7243C24.5329 49.5535 22.8187 47.7875 20.7118 47.7875Z" fill="white"/>
<path d="M12.0843 17.0072C11.9647 13.6814 9.30147 11.0142 6.04479 11.0142H6.04363C2.71128 11.0142 0 13.8075 0 17.2409V20.9637C0 24.5553 2.83606 27.4773 6.32207 27.4773H12.0884V23.8984H14.9994L12.0843 17.0072ZM10.0041 21.751V25.3299H6.32207C3.98539 25.3299 2.08415 23.3711 2.08415 20.9635V17.2408C2.08415 14.9914 3.86035 13.1613 6.04363 13.1613H6.04479C8.22807 13.1613 10.0043 14.9914 10.0043 17.2408V17.4646L11.8176 21.7508H10.0041V21.751Z" fill="white"/>
<path d="M15.6318 36.9072V43.3493H30.2558V68.044H32.34V43.3493H34.4241V68.044H36.5083V43.3493H50.3684V36.9072H15.6318ZM48.2844 41.202H17.7161V39.0547H48.2845V41.202H48.2844Z" fill="white"/>
<path d="M47.1027 12.2946V6.84401H41.2669V1.11768H16.9512V6.56829L11.9004 12.9281H16.9513V17.5808H21.305V15.4335H19.0356V10.7808H16.2989L19.0356 7.33488V3.26498H39.183V6.84388H22.787V23.307H47.1028V18.6543H52.1537L47.1027 12.2946ZM45.0185 16.5072V21.1598H24.8712V17.5808H41.267V10.3703H39.1828V15.4335H24.8712V8.99132H45.0185V13.0612L47.7552 16.5072H45.0185Z" fill="white"/>
<path d="M28.2062 29.1768H26.1221V31.3241H28.2062V29.1768Z" fill="white"/>
<path d="M34.0422 29.1768H31.958V31.3241H34.0422V29.1768Z" fill="white"/>
<path d="M39.8781 29.1768H37.7939V31.3241H39.8781V29.1768Z" fill="white"/>
</g>
<defs>
<clipPath id="clip0">
<rect width="66" height="68" fill="white" transform="translate(0 0.581055)"/>
</clipPath>
</defs>
</svg>
