<svg xmlns="http://www.w3.org/2000/svg" width="67" hight="66" viewBox="0 0 66 66.93"><defs><style>.cls-1{fill:#fff;}</style></defs><title>rent-i-5</title><g id="Слой_2" data-name="Слой 2"><g id="Слой_1-2" data-name="Слой 1"><path class="cls-1" d="M64.75,26.67c-.13,0-3.11.66-5.63,1.44-3.37,1-5.3,3.23-5.3,6V46.67H45.29a3.89,3.89,0,0,0-3.82,3.94V66.93h2.08V50.61a1.77,1.77,0,0,1,1.74-1.79H55.9V34.12c0-2.41,2.39-3.51,3.82-3.95s3.09-.86,4.2-1.12V49.91a4.6,4.6,0,0,1-4.52,4.65H47.86l-1.5,12.37h2.06L49.7,56.71h9.7a6.71,6.71,0,0,0,6.6-6.8V26.4Z"/><path class="cls-1" d="M60,9.9h0a6.13,6.13,0,0,0-6,6L51,22.78h2.91v3.58h5.77A6.43,6.43,0,0,0,66,19.85V16.12A6.14,6.14,0,0,0,60,9.9Zm4,10a4.31,4.31,0,0,1-4.24,4.36H56V20.63H54.18L56,16.35v-.23A4,4,0,0,1,60,12h0a4,4,0,0,1,4,4.08v3.73Z"/><path class="cls-1" d="M20.71,46.67H12.18V34.12c0-2.78-1.93-5-5.3-6-2.52-.78-5.5-1.42-5.63-1.44L0,26.4V49.91a6.71,6.71,0,0,0,6.6,6.8h9.7l1.28,10.22h2.06l-1.5-12.37H6.6a4.6,4.6,0,0,1-4.52-4.65V29.05c1.1.26,2.75.67,4.2,1.12s3.82,1.54,3.82,3.95v14.7H20.71a1.77,1.77,0,0,1,1.74,1.79V66.93h2.08V50.61A3.89,3.89,0,0,0,20.71,46.67Z"/><path class="cls-1" d="M12.08,15.89a6.13,6.13,0,0,0-6-6H6a6.14,6.14,0,0,0-6,6.22v3.73a6.43,6.43,0,0,0,6.32,6.51h5.77V22.78H15ZM10,20.63v3.58H6.32a4.31,4.31,0,0,1-4.24-4.36V16.12A4,4,0,0,1,6,12H6a4,4,0,0,1,4,4.08v.23l1.82,4.28Z"/><path class="cls-1" d="M15.63,35.79v6.44H30.26v24.7h2.08V42.23h2.08v24.7h2.09V42.23H50.37V35.79Zm32.65,4.29H17.72V37.94H48.28v2.14Z"/><path class="cls-1" d="M47.1,11.18V5.73H41.27V0H17V5.45l-5,6.36h5v4.65h4.36V14.32H19V9.66H16.3L19,6.22V2.15H39.18V5.73H22.79V22.19H47.1V17.54h5ZM45,15.39V20H24.87V16.46h16.4V9.25H39.18v5.07H24.87V7.87H45v4.07l2.74,3.45Z"/><path class="cls-1" d="M28.21,28.06H26.12v2.15h2.09Z"/><path class="cls-1" d="M34,28.06H32v2.15H34Z"/><path class="cls-1" d="M39.88,28.06H37.79v2.15h2.09Z"/></g></g></svg>