<svg width="62" height="63" viewBox="0 0 62 63" fill="none" xmlns="http://www.w3.org/2000/svg">
<g clip-path="url(#clip0)">
<path d="M50.6335 0.581055H11.3669C8.51486 0.584413 6.20355 2.89572 6.2002 5.74772V33.6477C6.20355 36.4997 8.51486 38.811 11.3669 38.8144H25.4967L24.0211 43.9811H20.6669V46.0477H41.3335V43.9811H37.9793L36.5037 38.8144H50.6335C53.4855 38.811 55.7968 36.4997 55.8002 33.6477V5.74772C55.7968 2.89572 53.4855 0.584413 50.6335 0.581055ZM26.1704 43.9811L27.646 38.8144H34.3544L35.83 43.9811H26.1704ZM53.7335 33.6477C53.7335 35.3598 52.3456 36.7477 50.6335 36.7477H11.3669C9.65476 36.7477 8.26686 35.3598 8.26686 33.6477V31.5811H53.7335V33.6477ZM53.7335 29.5144H8.26686V5.74772C8.26686 4.03562 9.65476 2.64772 11.3669 2.64772H50.6335C52.3456 2.64772 53.7335 4.03562 53.7335 5.74772V29.5144Z" fill="white"/>
<path d="M39.2665 48.1143H10.3331C9.76248 48.1143 9.2998 48.5769 9.2998 49.1476V61.5476C9.2998 62.1183 9.76248 62.5809 10.3331 62.5809H39.2665C39.8371 62.5809 40.2998 62.1183 40.2998 61.5476V49.1476C40.2998 48.5769 39.8371 48.1143 39.2665 48.1143ZM38.2331 60.5143H11.3665V50.1809H38.2331V60.5143Z" fill="white"/>
<path d="M15.5003 56.3809H13.4336V58.4475H15.5003V56.3809Z" fill="white"/>
<path d="M15.5003 52.2476H13.4336V54.3142H15.5003V52.2476Z" fill="white"/>
<path d="M19.6331 52.2476H17.5664V54.3142H19.6331V52.2476Z" fill="white"/>
<path d="M23.7669 52.2476H21.7002V54.3142H23.7669V52.2476Z" fill="white"/>
<path d="M32.0335 52.2476H29.9668V54.3142H32.0335V52.2476Z" fill="white"/>
<path d="M27.8997 52.2476H25.833V54.3142H27.8997V52.2476Z" fill="white"/>
<path d="M36.1663 56.3809H34.0996V58.4475H36.1663V56.3809Z" fill="white"/>
<path d="M36.1663 52.2476H34.0996V54.3142H36.1663V52.2476Z" fill="white"/>
<path d="M32.0331 56.3809H17.5664V58.4475H32.0331V56.3809Z" fill="white"/>
<path d="M47.5329 48.1143C44.6795 48.1143 42.3662 50.4275 42.3662 53.2809V57.4143C42.3662 60.2677 44.6795 62.5809 47.5329 62.5809C50.3863 62.5809 52.6996 60.2677 52.6996 57.4143V53.2809C52.6996 50.4275 50.3863 48.1143 47.5329 48.1143ZM50.6329 57.4143C50.6329 59.1264 49.245 60.5143 47.5329 60.5143C45.8208 60.5143 44.4329 59.1264 44.4329 57.4143V53.2809C44.4329 51.5688 45.8208 50.1809 47.5329 50.1809C49.245 50.1809 50.6329 51.5688 50.6329 53.2809V57.4143Z" fill="white"/>
<path d="M48.5667 52.2476H46.5V54.3142H48.5667V52.2476Z" fill="white"/>
<path d="M32.0688 9.61878L27.9316 24.0771L29.9177 24.6454L34.0548 10.1871L32.0688 9.61878Z" fill="white"/>
<path d="M25.4616 12.7415L24.1389 11.1543L17.9389 16.321C17.5007 16.6865 17.4416 17.338 17.8072 17.7764C17.8471 17.8242 17.8911 17.8684 17.9389 17.9082L24.1389 23.0748L25.4616 21.4876L20.2143 17.1146L25.4616 12.7415Z" fill="white"/>
<path d="M44.1935 16.4527C44.1536 16.4049 44.1095 16.3607 44.0617 16.321L37.8617 11.1543L36.5391 12.7415L41.7863 17.1146L36.5391 21.4876L37.8617 23.0748L44.0617 17.9082C44.5 17.5426 44.559 16.8911 44.1935 16.4527Z" fill="white"/>
</g>
<defs>
<clipPath id="clip0">
<rect width="62" height="62" fill="white" transform="translate(0 0.581055)"/>
</clipPath>
</defs>
</svg>
