<svg width="60" height="61" viewBox="0 0 60 61" fill="none" xmlns="http://www.w3.org/2000/svg">
<path d="M59 6.01465H1C0.447 6.01465 0 6.46165 0 7.01465V45.0146C0 45.5676 0.447 46.0146 1 46.0146H27V49.0146H22V54.0146H38V49.0146H33V46.0146H59C59.553 46.0146 60 45.5676 60 45.0146V7.01465C60 6.46165 59.553 6.01465 59 6.01465ZM36 51.0146V52.0146H24V51.0146H29V46.0146H31V51.0146H36ZM58 44.0146H33H27H2V8.01465H58V44.0146Z" fill="white"/>
<path d="M55 34.0146H42.374L42.289 33.9396C41.936 33.6276 41.559 33.3687 41.164 33.1646L36.543 30.1756L36.447 30.1206C36.097 29.9457 35.709 29.8646 35.367 29.7926C35.258 29.7706 35.116 29.7396 35 29.7096V28.4076C35.045 28.3776 35.092 28.3447 35.14 28.3116C35.817 27.8456 36.134 27.6126 36.325 27.3436C37.018 26.3626 37.712 25.3067 38.155 24.1726C39.116 23.7326 40.001 22.8826 40.001 21.8036V19.5586C40.001 19.1456 39.839 18.7426 39.521 18.3626C39.284 18.0786 39.001 17.6186 39.001 17.0426V15.9886C38.937 13.5766 37.183 9.01465 31 9.01465C24.817 9.01465 23.063 13.5766 23 16.0146V17.0416C23 17.6176 22.718 18.0776 22.481 18.3606C22.162 18.7426 22 19.1456 22 19.5586V21.8036C22 22.7676 22.793 23.4506 23.353 23.8436C24.019 25.8596 26.035 27.3586 27 27.9816V29.3086C26.739 29.5626 25.941 29.9416 25.584 30.1116C25.364 30.2166 25.17 30.3096 25.004 30.4006L20.319 33.1206C19.923 33.3366 19.542 33.6166 19.187 33.9506L19.119 34.0146H14V41.0146H55V34.0146ZM25.985 32.1437C26.102 32.0797 26.262 32.0036 26.443 31.9176C27.582 31.3756 29 30.7016 29 29.4696V26.8246L28.479 26.5406C27.692 26.1116 25.567 24.6386 25.19 22.9936L25.099 22.5976L24.758 22.3766C24.14 21.9776 24.024 21.7726 24 21.8036V19.6626C24.004 19.6586 24.009 19.6526 24.016 19.6426C24.65 18.8836 25 17.9586 25 17.0416V16.0406C25.005 15.8356 25.199 11.0146 31 11.0146C36.656 11.0146 36.982 15.5306 37 16.0146V17.0416C37 17.9466 37.34 18.8576 38 19.6686L38.001 21.7896C37.968 21.9316 37.563 22.2996 37.072 22.4496L36.575 22.6026L36.415 23.0986C36.076 24.1516 35.387 25.2046 34.742 26.1246C34.639 26.2266 34.226 26.5106 34.005 26.6636C33.581 26.9556 33.388 27.0916 33.249 27.2486L33 27.5336V30.0146C33 31.3396 34.321 31.6166 34.956 31.7496C35.159 31.7916 35.387 31.8396 35.516 31.8926L38.796 34.0146H22.761L25.985 32.1437ZM53 39.0146H16V36.0146H20.069H41.448H53V39.0146Z" fill="white"/>
<path d="M55 10.0146H49V16.0146H55V10.0146ZM53 14.0146H51V12.0146H53V14.0146Z" fill="white"/>
<path d="M12 34.0146H5V41.0146H12V34.0146ZM10 39.0146H7V36.0146H10V39.0146Z" fill="white"/>
</svg>
