<svg width="79" height="80" viewBox="0 0 79 80" fill="none" xmlns="http://www.w3.org/2000/svg">
<g clip-path="url(#clip0)">
<path d="M65.0374 77.008H56.6032L31.7576 0.921356C31.5278 0.217437 30.7781 -0.16468 30.0828 0.0683488C29.3877 0.30102 29.0107 1.06024 29.2402 1.76416L42.991 43.8742L13.9623 43.8733C13.23 43.8733 12.6367 44.4743 12.6367 45.2156V65.7714C12.6367 66.1725 12.814 66.5527 13.1198 66.8077C13.3591 67.0073 13.6574 67.1138 13.9623 67.1138C14.0469 67.1138 14.1323 67.1055 14.2168 67.0887L15.0892 66.9158L16.4372 78.8107C16.5141 79.4884 17.0805 80 17.7541 80H39.5589C40.2326 80 40.7991 79.4884 40.8758 78.8107L41.8654 70.0816C41.873 70.0801 41.8807 70.0796 41.8883 70.078C45.0633 69.4301 46.9822 67.9614 47.5919 65.7131C48.3243 63.0132 46.9744 59.3914 43.5819 54.9408L44.3609 48.0689L53.8107 77.0078H45.6472C44.915 77.0078 44.3217 77.6088 44.3217 78.3502C44.3217 79.0915 44.915 79.6925 45.6472 79.6925H65.0373C65.7695 79.6925 66.3628 79.0915 66.3628 78.3502C66.3628 77.6088 65.7697 77.008 65.0374 77.008ZM15.2878 64.1411V46.5589H26.5734V61.9051L15.2878 64.1411ZM38.3767 77.3153H18.9361L17.6989 66.3987L28.1533 64.3274C28.7754 64.2043 29.2243 63.6521 29.2243 63.0102V46.5589H41.8638L41.2358 52.0975C39.1918 49.7891 37.4414 48.1804 37.348 48.0949C36.8055 47.598 35.9672 47.6406 35.476 48.1904C34.9852 48.7403 35.0273 49.589 35.57 50.0863C37.1897 51.5701 39.1215 53.5941 40.824 55.729L38.3767 77.3153ZM45.0355 65.0027C44.757 66.029 43.7991 66.7807 42.187 67.2449L43.128 58.9445C44.584 61.2682 45.4514 63.471 45.0355 65.0027Z" fill="white"/>
<path d="M19.7935 42.8225C21.7226 42.8225 23.2923 41.2332 23.2923 39.2797C23.2923 37.3261 21.7226 35.7368 19.7935 35.7368C17.8644 35.7368 16.2949 37.3261 16.2949 39.2797C16.2949 41.2332 17.8644 42.8225 19.7935 42.8225ZM19.7935 38.4213C20.261 38.4213 20.6412 38.8063 20.6412 39.2795C20.6412 39.7527 20.261 40.1377 19.7935 40.1377C19.3262 40.1377 18.946 39.7527 18.946 39.2795C18.946 38.8063 19.3262 38.4213 19.7935 38.4213Z" fill="white"/>
<path d="M30.7517 38.1688C33.3165 38.1688 35.403 36.0558 35.403 33.4587C35.403 30.8615 33.3164 28.7485 30.7517 28.7485C28.187 28.7485 26.1006 30.8615 26.1006 33.4587C26.1006 36.0558 28.187 38.1688 30.7517 38.1688ZM30.7517 31.433C31.8545 31.433 32.7519 32.3417 32.7519 33.4585C32.7519 34.5753 31.8545 35.484 30.7517 35.484C29.6488 35.484 28.7517 34.5753 28.7517 33.4585C28.7517 32.3417 29.6488 31.433 30.7517 31.433Z" fill="white"/>
<path d="M22.9999 29.956C23.2152 30.4715 23.7336 30.8115 24.2889 30.7831C24.8422 30.7546 25.3299 30.3682 25.4918 29.8322C25.8445 28.6636 24.5252 27.6538 23.5096 28.3116C22.9782 28.6557 22.7542 29.3647 22.9999 29.956C23.0337 30.0366 22.9665 29.8753 22.9999 29.956Z" fill="white"/>
</g>
<defs>
<clipPath id="clip0">
<rect width="79" height="80" fill="white"/>
</clipPath>
</defs>
</svg>
