<svg width="75" height="75" viewBox="0 0 75 75" fill="none" xmlns="http://www.w3.org/2000/svg">
<g clip-path="url(#clip0)">
<path d="M73.7835 49.5003C74.3986 49.5003 74.8976 49.0013 74.8976 48.3862V21.5069C74.8976 19.9831 74.3048 18.5492 73.2262 17.466C72.1458 16.3902 70.7119 15.7974 69.1881 15.7974H56.5144V1.11351C56.5144 0.49839 56.016 0 55.4008 0H28.1994C27.5843 0 27.0859 0.49839 27.0859 1.11351V16.9069C27.0859 17.522 27.5843 18.0204 28.1994 18.0204C28.8145 18.0204 29.3129 17.522 29.3129 16.9069V2.22759H54.2873V15.7974H41.9878C41.9872 15.7974 41.9861 15.798 41.9849 15.798C40.4623 15.7986 39.0289 16.3908 37.9469 17.4694C37.3701 18.0485 36.9255 18.7483 36.6405 19.5076C36.3888 19.471 36.1313 19.4515 35.8698 19.4515H11.5065C10.8913 19.4515 10.393 19.9499 10.393 20.565C10.393 21.1802 10.8913 21.6785 11.5065 21.6785H35.8698C37.5927 21.6785 38.994 23.0799 38.994 24.8028V69.6487C38.994 71.3711 37.5927 72.773 35.8698 72.773H5.49831C3.77541 72.773 2.37408 71.3717 2.37408 69.6487V24.8028C2.37408 23.0804 3.77541 21.6785 5.49831 21.6785H7.794C8.40912 21.6785 8.90751 21.1802 8.90751 20.565C8.90751 19.9499 8.40912 19.4515 7.794 19.4515H5.49831C2.54688 19.4515 0.146484 21.8519 0.146484 24.8028V69.6487C0.146484 72.5996 2.54688 75 5.49831 75H35.8698C38.8206 75 41.2216 72.5996 41.2216 69.6487V27.2163H45.4702V69.3232C45.4702 69.9383 45.9686 70.4367 46.5837 70.4367H73.7841C74.3992 70.4367 74.8976 69.9383 74.8976 69.3232V52.0987C74.8976 51.4835 74.3992 50.9851 73.7841 50.9851C73.1689 50.9851 72.67 51.4835 72.67 52.0987V68.2091H47.6973V21.5069C47.6973 20.232 47.2824 19.0201 46.5157 18.025H69.1881C70.1185 18.025 70.9946 18.3872 71.6509 19.0413C72.3083 19.7004 72.67 20.5765 72.67 21.5069V48.3862C72.67 49.0013 73.1689 49.5003 73.7835 49.5003ZM44.45 19.0418C45.108 19.701 45.4702 20.5759 45.4702 21.5069V24.9893H41.221V24.8028C41.221 22.9025 40.2243 21.2311 38.7274 20.2818C38.899 19.8212 39.1668 19.4006 39.5222 19.0441C40.1814 18.3867 41.0574 18.025 41.9878 18.025H41.9907C42.9193 18.0256 43.7937 18.3878 44.45 19.0418Z" fill="#0C95ED"/>
<path d="M36.7669 25.0198C36.7669 24.4046 36.2685 23.9062 35.6534 23.9062H5.71507C5.10052 23.9062 4.60156 24.4046 4.60156 25.0198V36.0353C4.60156 36.6504 5.10052 37.1494 5.71507 37.1494H35.6534C36.2685 37.1494 36.7669 36.6504 36.7669 36.0353V25.0198ZM34.5399 34.9218H6.82915V26.1333H34.5399V34.9218Z" fill="#0C95ED"/>
<path d="M35.6534 39.6172H5.71507C5.10052 39.6172 4.60156 40.1156 4.60156 40.7307V69.5526C4.60156 70.1678 5.10052 70.6667 5.71507 70.6667H35.6534C36.2685 70.6667 36.7669 70.1678 36.7669 69.5526V40.7307C36.7669 40.1156 36.2685 39.6172 35.6534 39.6172ZM34.5399 49.4671H26.9959V41.8442H34.5399V49.4671ZM34.5399 58.5892H26.9959V51.6941H34.5399V58.5892ZM6.82915 51.6941H14.3725V58.5892H6.82915V51.6941ZM16.5995 51.6941H24.7689V58.5892H16.5995V51.6941ZM24.7689 41.8442V49.4671H16.5995V41.8442H24.7689ZM14.3725 41.8442V49.4671H6.82915V41.8442H14.3725ZM6.82915 60.8168H14.3725V68.4391H6.82915V60.8168ZM16.5995 68.4391V60.8168H24.7689V68.4391H16.5995ZM26.9965 68.4391V60.8168H34.5399V68.4391H26.9965Z" fill="#0C95ED"/>
<path d="M53.9002 21.4355H50.9305C50.3154 21.4355 49.8164 21.9339 49.8164 22.5491C49.8164 23.1642 50.3154 23.6626 50.9305 23.6626H53.9002C54.5148 23.6626 55.0137 23.1642 55.0137 22.5491C55.0137 21.9339 54.5148 21.4355 53.9002 21.4355Z" fill="#0C95ED"/>
<path d="M69.4908 21.4355H57.7606C57.1454 21.4355 56.6465 21.9339 56.6465 22.5491C56.6465 23.1642 57.1454 23.6626 57.7606 23.6626H69.4908C70.1059 23.6626 70.6043 23.1642 70.6043 22.5491C70.6043 21.9339 70.1059 21.4355 69.4908 21.4355Z" fill="#0C95ED"/>
<path d="M53.9002 46.5303H50.9305C50.3154 46.5303 49.8164 47.0292 49.8164 47.6444C49.8164 48.2595 50.3154 48.7579 50.9305 48.7579H53.9002C54.5148 48.7579 55.0137 48.2595 55.0137 47.6444C55.0137 47.0292 54.5148 46.5303 53.9002 46.5303Z" fill="#0C95ED"/>
<path d="M70.6043 47.6444C70.6043 47.0292 70.1059 46.5303 69.4908 46.5303H57.7606C57.1454 46.5303 56.6465 47.0292 56.6465 47.6444C56.6465 48.2595 57.1454 48.7579 57.7606 48.7579H69.4908C70.1059 48.7579 70.6043 48.2595 70.6043 47.6444Z" fill="#0C95ED"/>
<path d="M53.9002 40.2568H50.9305C50.3154 40.2568 49.8164 40.7552 49.8164 41.3703C49.8164 41.9855 50.3154 42.4839 50.9305 42.4839H53.9002C54.5148 42.4839 55.0137 41.9855 55.0137 41.3703C55.0137 40.7552 54.5148 40.2568 53.9002 40.2568Z" fill="#0C95ED"/>
<path d="M69.4908 40.2568H57.7606C57.1454 40.2568 56.6465 40.7552 56.6465 41.3703C56.6465 41.9855 57.1454 42.4839 57.7606 42.4839H69.4908C70.1059 42.4839 70.6043 41.9855 70.6043 41.3703C70.6043 40.7552 70.1059 40.2568 69.4908 40.2568Z" fill="#0C95ED"/>
<path d="M53.9002 33.9824H50.9305C50.3154 33.9824 49.8164 34.4808 49.8164 35.0959C49.8164 35.7111 50.3154 36.2094 50.9305 36.2094H53.9002C54.5148 36.2094 55.0137 35.7111 55.0137 35.0959C55.0137 34.4808 54.5148 33.9824 53.9002 33.9824Z" fill="#0C95ED"/>
<path d="M69.4908 33.9824H57.7606C57.1454 33.9824 56.6465 34.4808 56.6465 35.0959C56.6465 35.7111 57.1454 36.2094 57.7606 36.2094H69.4908C70.1059 36.2094 70.6043 35.7111 70.6043 35.0959C70.6043 34.4808 70.1059 33.9824 69.4908 33.9824Z" fill="#0C95ED"/>
<path d="M53.9002 27.709H50.9305C50.3154 27.709 49.8164 28.2074 49.8164 28.8225C49.8164 29.4376 50.3154 29.936 50.9305 29.936H53.9002C54.5148 29.936 55.0137 29.4376 55.0137 28.8225C55.0137 28.2074 54.5148 27.709 53.9002 27.709Z" fill="#0C95ED"/>
<path d="M69.4908 27.709H57.7606C57.1454 27.709 56.6465 28.2074 56.6465 28.8225C56.6465 29.4376 57.1454 29.936 57.7606 29.936H69.4908C70.1059 29.936 70.6043 29.4376 70.6043 28.8225C70.6043 28.2074 70.1059 27.709 69.4908 27.709Z" fill="#0C95ED"/>
<path d="M32.5178 7.41998H35.4875C36.1027 7.41998 36.6016 6.92101 36.6016 6.30589C36.6016 5.69077 36.1027 5.19238 35.4875 5.19238H32.5178C31.9027 5.19238 31.4043 5.69077 31.4043 6.30589C31.4043 6.92101 31.9027 7.41998 32.5178 7.41998Z" fill="#0C95ED"/>
<path d="M39.3479 7.41998H51.0787C51.6938 7.41998 52.1922 6.92101 52.1922 6.30589C52.1922 5.69077 51.6938 5.19238 51.0787 5.19238H39.3479C38.7333 5.19238 38.2344 5.69077 38.2344 6.30589C38.2344 6.92101 38.7333 7.41998 39.3479 7.41998Z" fill="#0C95ED"/>
<path d="M32.5178 13.6934H35.4875C36.1027 13.6934 36.6016 13.1945 36.6016 12.5793C36.6016 11.9642 36.1027 11.4658 35.4875 11.4658H32.5178C31.9027 11.4658 31.4043 11.9642 31.4043 12.5793C31.4043 13.1945 31.9027 13.6934 32.5178 13.6934Z" fill="#0C95ED"/>
<path d="M39.3479 13.6934H51.0787C51.6938 13.6934 52.1922 13.1945 52.1922 12.5793C52.1922 11.9642 51.6938 11.4658 51.0787 11.4658H39.3479C38.7333 11.4658 38.2344 11.9642 38.2344 12.5793C38.2344 13.1945 38.7333 13.6934 39.3479 13.6934Z" fill="#0C95ED"/>
<path d="M29.7717 33.6114H32.1475C32.7626 33.6114 33.261 33.1124 33.261 32.4979C33.261 31.8828 32.7626 31.3838 32.1475 31.3838H29.7717C29.1566 31.3838 28.6582 31.8828 28.6582 32.4979C28.6582 33.1124 29.1566 33.6114 29.7717 33.6114Z" fill="#0C95ED"/>
</g>
<defs>
<clipPath id="clip0">
<rect width="75" height="75" fill="white"/>
</clipPath>
</defs>
</svg>
