<svg width="62" height="62" viewBox="0 0 62 62" fill="none" xmlns="http://www.w3.org/2000/svg">
<g clip-path="url(#clip0)">
<path d="M58.9 14.4666H57.8667V11.3666C57.8646 9.65514 56.4781 8.26862 54.7667 8.2666H52.7V10.3333H54.7667C55.3373 10.3338 55.7995 10.7959 55.8 11.3666V14.4666H6.2V11.3666C6.2005 10.7959 6.66268 10.3338 7.23333 10.3333H9.3V8.2666H7.23333C5.52187 8.26862 4.13535 9.65514 4.13333 11.3666V14.4666H3.1C1.38854 14.4686 0.00201823 15.8551 0 17.5666V44.4333C0.00201823 46.1447 1.38854 47.5312 3.1 47.5333H9.3V45.4666H7.23333V35.1333C7.23384 34.5626 7.69601 34.1004 8.26667 34.0999H53.7333C54.304 34.1004 54.7662 34.5626 54.7667 35.1333V45.4666H52.7V47.5333H58.9C60.6115 47.5312 61.998 46.1447 62 44.4333V17.5666C61.998 15.8551 60.6115 14.4686 58.9 14.4666ZM3.1 16.5333H20.6667V25.8333C20.6662 26.4039 20.204 26.8661 19.6333 26.8666H2.06667V17.5666C2.06717 16.9959 2.52935 16.5338 3.1 16.5333ZM59.9333 44.4333C59.9328 45.0039 59.4707 45.4661 58.9 45.4666H56.8333V35.1333C56.8313 33.4218 55.4448 32.0353 53.7333 32.0333H8.26667C6.55521 32.0353 5.16868 33.4218 5.16667 35.1333V45.4666H3.1C2.52935 45.4661 2.06717 45.0039 2.06667 44.4333V28.9333H19.6333C21.3448 28.9312 22.7313 27.5447 22.7333 25.8333V16.5333H58.9C59.4707 16.5338 59.9328 16.9959 59.9333 17.5666V44.4333Z" fill="#0C95ED"/>
<path d="M13.4339 3.1C13.4344 2.52935 13.8965 2.06717 14.4672 2.06667H47.5338C48.1045 2.06717 48.5667 2.52935 48.5672 3.1V12.4H50.6339V3.1C50.6318 1.38854 49.2453 0.00201823 47.5338 0H14.4672C12.7557 0.00201823 11.3692 1.38854 11.3672 3.1V12.4H13.4339V3.1Z" fill="#0C95ED"/>
<path d="M48.5672 58.8998C48.5667 59.4705 48.1045 59.9327 47.5338 59.9332H14.4672C13.8965 59.9327 13.4344 59.4705 13.4339 58.8998V36.1665H11.3672V58.8998C11.3692 60.6113 12.7557 61.9978 14.4672 61.9998H47.5338C49.2453 61.9978 50.6318 60.6113 50.6339 58.8998V36.1665H48.5672V58.8998Z" fill="#0C95ED"/>
<path d="M8.26615 20.6668C8.26615 21.8081 7.34079 22.7334 6.19948 22.7334C5.05817 22.7334 4.13281 21.8081 4.13281 20.6668C4.13281 19.5255 5.05817 18.6001 6.19948 18.6001C7.34079 18.6001 8.26615 19.5255 8.26615 20.6668Z" fill="#0C95ED"/>
<path d="M20.6667 41.3335H17.5667C16.4259 41.335 15.5015 42.2594 15.5 43.4002V46.5002C15.5015 47.641 16.4259 48.5653 17.5667 48.5668H20.6667C21.8075 48.5653 22.7318 47.641 22.7333 46.5002V43.4002C22.7318 42.2594 21.8075 41.335 20.6667 41.3335ZM17.5667 46.5002V43.4002H20.6667L20.6682 46.5002H17.5667Z" fill="#0C95ED"/>
<path d="M24.7998 42.3667H26.8665V44.4334H24.7998V42.3667Z" fill="#0C95ED"/>
<path d="M44.4336 42.3667H46.5003V44.4334H44.4336V42.3667Z" fill="#0C95ED"/>
<path d="M28.9336 42.3667H42.3669V44.4334H28.9336V42.3667Z" fill="#0C95ED"/>
<path d="M24.7998 46.5H26.8665V48.5667H24.7998V46.5Z" fill="#0C95ED"/>
<path d="M44.4336 46.5H46.5003V48.5667H44.4336V46.5Z" fill="#0C95ED"/>
<path d="M28.9336 46.5H42.3669V48.5667H28.9336V46.5Z" fill="#0C95ED"/>
<path d="M44.4336 54.7666H46.5003V56.8333H44.4336V54.7666Z" fill="#0C95ED"/>
<path d="M15.5 54.7666H17.5667V56.8333H15.5V54.7666Z" fill="#0C95ED"/>
<path d="M19.6328 54.7666H42.3661V56.8333H19.6328V54.7666Z" fill="#0C95ED"/>
<path d="M44.4336 50.6333H46.5003V52.7H44.4336V50.6333Z" fill="#0C95ED"/>
<path d="M19.6328 50.6333H42.3661V52.7H19.6328V50.6333Z" fill="#0C95ED"/>
<path d="M15.5 50.6333H17.5667V52.7H15.5V50.6333Z" fill="#0C95ED"/>
<path d="M54.7661 19.6333H52.6995C51.5587 19.6348 50.6343 20.5592 50.6328 21.7V23.7666C50.6343 24.9074 51.5587 25.8318 52.6995 25.8333H54.7661C55.907 25.8318 56.8313 24.9074 56.8328 23.7666V21.7C56.8313 20.5592 55.907 19.6348 54.7661 19.6333ZM52.6995 23.7666V21.7H54.7661L54.7677 23.7666H52.6995Z" fill="#0C95ED"/>
</g>
<defs>
<clipPath id="clip0">
<rect width="62" height="62" fill="white"/>
</clipPath>
</defs>
</svg>
