<svg width="62" height="62" viewBox="0 0 62 62" fill="none" xmlns="http://www.w3.org/2000/svg">
<g clip-path="url(#clip0)">
<path d="M50.6335 0H11.3669C8.51486 0.00335833 6.20355 2.31467 6.2002 5.16667V33.0667C6.20355 35.9187 8.51486 38.23 11.3669 38.2333H25.4967L24.0211 43.4H20.6669V45.4667H41.3335V43.4H37.9793L36.5037 38.2333H50.6335C53.4855 38.23 55.7968 35.9187 55.8002 33.0667V5.16667C55.7968 2.31467 53.4855 0.00335833 50.6335 0ZM26.1704 43.4L27.646 38.2333H34.3544L35.83 43.4H26.1704ZM53.7335 33.0667C53.7335 34.7788 52.3456 36.1667 50.6335 36.1667H11.3669C9.65476 36.1667 8.26686 34.7788 8.26686 33.0667V31H53.7335V33.0667ZM53.7335 28.9333H8.26686V5.16667C8.26686 3.45456 9.65476 2.06667 11.3669 2.06667H50.6335C52.3456 2.06667 53.7335 3.45456 53.7335 5.16667V28.9333Z" fill="#0C95ED"/>
<path d="M39.2665 47.5332H10.3331C9.76248 47.5332 9.2998 47.9959 9.2998 48.5665V60.9665C9.2998 61.5372 9.76248 61.9999 10.3331 61.9999H39.2665C39.8371 61.9999 40.2998 61.5372 40.2998 60.9665V48.5665C40.2998 47.9959 39.8371 47.5332 39.2665 47.5332ZM38.2331 59.9332H11.3665V49.5999H38.2331V59.9332Z" fill="#0C95ED"/>
<path d="M15.5003 55.7998H13.4336V57.8665H15.5003V55.7998Z" fill="#0C95ED"/>
<path d="M15.5003 51.6665H13.4336V53.7332H15.5003V51.6665Z" fill="#0C95ED"/>
<path d="M19.6331 51.6665H17.5664V53.7332H19.6331V51.6665Z" fill="#0C95ED"/>
<path d="M23.7669 51.6665H21.7002V53.7332H23.7669V51.6665Z" fill="#0C95ED"/>
<path d="M32.0335 51.6665H29.9668V53.7332H32.0335V51.6665Z" fill="#0C95ED"/>
<path d="M27.8997 51.6665H25.833V53.7332H27.8997V51.6665Z" fill="#0C95ED"/>
<path d="M36.1663 55.7998H34.0996V57.8665H36.1663V55.7998Z" fill="#0C95ED"/>
<path d="M36.1663 51.6665H34.0996V53.7332H36.1663V51.6665Z" fill="#0C95ED"/>
<path d="M32.0331 55.7998H17.5664V57.8665H32.0331V55.7998Z" fill="#0C95ED"/>
<path d="M47.5329 47.5332C44.6795 47.5332 42.3662 49.8464 42.3662 52.6999V56.8332C42.3662 59.6866 44.6795 61.9999 47.5329 61.9999C50.3863 61.9999 52.6996 59.6866 52.6996 56.8332V52.6999C52.6996 49.8464 50.3863 47.5332 47.5329 47.5332ZM50.6329 56.8332C50.6329 58.5453 49.245 59.9332 47.5329 59.9332C45.8208 59.9332 44.4329 58.5453 44.4329 56.8332V52.6999C44.4329 50.9878 45.8208 49.5999 47.5329 49.5999C49.245 49.5999 50.6329 50.9878 50.6329 52.6999V56.8332Z" fill="#0C95ED"/>
<path d="M48.5667 51.6665H46.5V53.7332H48.5667V51.6665Z" fill="#0C95ED"/>
<path d="M32.0688 9.03773L27.9316 23.4961L29.9177 24.0644L34.0548 9.60602L32.0688 9.03773Z" fill="#0C95ED"/>
<path d="M25.4616 12.1604L24.1389 10.5732L17.9389 15.7399C17.5007 16.1054 17.4416 16.757 17.8072 17.1954C17.8471 17.2431 17.8911 17.2873 17.9389 17.3271L24.1389 22.4938L25.4616 20.9066L20.2143 16.5335L25.4616 12.1604Z" fill="#0C95ED"/>
<path d="M44.1935 15.8717C44.1536 15.8239 44.1095 15.7797 44.0617 15.7399L37.8617 10.5732L36.5391 12.1604L41.7863 16.5335L36.5391 20.9066L37.8617 22.4938L44.0617 17.3271C44.5 16.9616 44.559 16.31 44.1935 15.8717Z" fill="#0C95ED"/>
</g>
<defs>
<clipPath id="clip0">
<rect width="62" height="62" fill="white"/>
</clipPath>
</defs>
</svg>
