<svg width="64" height="64" viewBox="0 0 64 64" fill="none" xmlns="http://www.w3.org/2000/svg">
<g clip-path="url(#clip0)">
<path d="M39.4655 47.9496C45.9456 47.9496 51.1986 42.696 51.1986 36.2165C51.1986 29.7364 45.9456 24.4834 39.4655 24.4834C32.9854 24.4834 27.7324 29.7364 27.7324 36.2165C27.7402 42.6929 32.9886 47.9418 39.4655 47.9496ZM39.4655 26.6167C44.7675 26.6167 49.0653 30.9145 49.0653 36.2165C49.0653 41.5179 44.7675 45.8163 39.4655 45.8163C34.1635 45.8163 29.8657 41.5179 29.8657 36.2165C29.8714 30.9166 34.1661 26.6224 39.4655 26.6167Z" fill="white"/>
<path d="M35.1998 34.0835C35.7889 34.0835 36.2665 33.6059 36.2665 33.0168C36.2389 32.7241 36.3436 32.4345 36.5524 32.2277C36.7613 32.021 37.0519 31.9189 37.3436 31.9501C37.9332 31.947 38.4082 31.4668 38.405 30.8777C38.4024 30.2887 37.9222 29.8137 37.3332 29.8168C36.4769 29.7913 35.6483 30.1205 35.0431 30.7262C34.4373 31.3319 34.1082 32.1606 34.1332 33.0168C34.1332 33.6059 34.6108 34.0835 35.1998 34.0835Z" fill="white"/>
<path d="M9.59985 40.4834C9.0108 40.4834 8.5332 40.9605 8.5332 41.55V52.2165C8.5332 52.8056 9.0108 53.2832 9.59985 53.2832C10.1889 53.2832 10.6665 52.8056 10.6665 52.2165V41.55C10.6665 40.9605 10.1889 40.4834 9.59985 40.4834Z" fill="white"/>
<path d="M13.8664 40.4834C13.2774 40.4834 12.7998 40.9605 12.7998 41.55V52.2165C12.7998 52.8056 13.2774 53.2832 13.8664 53.2832C14.4555 53.2832 14.9331 52.8056 14.9331 52.2165V41.55C14.9331 40.9605 14.4555 40.4834 13.8664 40.4834Z" fill="white"/>
<path d="M18.133 40.4834C17.544 40.4834 17.0664 40.9605 17.0664 41.55V52.2165C17.0664 52.8056 17.544 53.2832 18.133 53.2832C18.7221 53.2832 19.1997 52.8056 19.1997 52.2165V41.55C19.1997 40.9605 18.7221 40.4834 18.133 40.4834Z" fill="white"/>
<path d="M23.8924 15.0968C23.4211 15.4504 23.3258 16.1186 23.6794 16.59C24.0325 17.0613 24.7013 17.1572 25.1726 16.8035C25.295 16.7129 37.6041 7.72974 53.8757 16.879C54.0351 16.9697 54.2153 17.0171 54.3986 17.0171C54.8835 17.0165 55.3069 16.69 55.4298 16.2207C55.5532 15.752 55.3444 15.2593 54.9225 15.0213C37.4536 5.19385 24.0258 14.9968 23.8924 15.0968Z" fill="white"/>
<path d="M58.1327 12.7505C58.6176 12.75 59.041 12.4234 59.1639 11.9541C59.2874 11.4854 59.0785 10.9927 58.6566 10.7547C36.9638 -1.44871 20.3267 10.7052 20.16 10.8302C19.6887 11.1838 19.5934 11.8521 19.947 12.3234C20.3001 12.7947 20.9689 12.8906 21.4402 12.5369C22.0725 12.0656 37.1732 1.12363 57.6113 12.6114C57.7702 12.7026 57.9499 12.75 58.1327 12.7505Z" fill="white"/>
<path d="M62.9322 9.6685C63.4025 9.66902 63.8176 9.36174 63.9541 8.91174C64.0905 8.46175 63.9165 7.97531 63.5254 7.71437C37.577 -9.58475 15.555 7.59354 15.3342 7.76854C14.8738 8.13676 14.7993 8.80862 15.1676 9.26903C15.5353 9.72944 16.2071 9.80391 16.6675 9.43569C20.7091 6.517 25.2793 4.41184 30.1245 3.23634C41.1472 0.483791 51.984 2.58583 62.3369 9.48934C62.5135 9.60652 62.7202 9.66902 62.9322 9.6685Z" fill="white"/>
<path d="M58.6655 36.2167H56.5322C56.5322 26.7909 48.8912 19.1504 39.4659 19.1504C30.0405 19.1504 22.3995 26.7909 22.3995 36.2167H5.33322C2.38901 36.2198 0.00364577 38.6057 0 41.5499V52.2164C0.00364577 55.1601 2.38901 57.546 5.33322 57.5496H10.6664V62.8828C10.6664 63.4719 11.144 63.9495 11.7331 63.9495H20.2663C20.8553 63.9495 21.3329 63.4719 21.3329 62.8828V57.5496H41.5992V62.8828C41.5992 63.4719 42.0767 63.9495 42.6658 63.9495H51.199C51.788 63.9495 52.2656 63.4719 52.2656 62.8828V57.5496H58.6655C61.6097 57.546 63.995 55.1601 63.9987 52.2164V41.5499C63.995 38.6057 61.6097 36.2198 58.6655 36.2167ZM39.4659 21.2837C47.7131 21.2837 54.3989 27.969 54.3989 36.2167C54.3989 44.4639 47.7131 51.1497 39.4659 51.1497C31.2186 51.1497 24.5328 44.4639 24.5328 36.2167C24.5417 27.9726 31.2223 21.292 39.4659 21.2837ZM19.1996 61.8162H12.7997V57.5496H19.1996V61.8162ZM50.1323 61.8162H43.7324V57.5496H50.1323V61.8162ZM61.8654 52.2164C61.8654 53.9835 60.4326 55.4163 58.6655 55.4163H5.33322C3.56607 55.4163 2.13329 53.9835 2.13329 52.2164V41.5499C2.13329 39.7823 3.56607 38.35 5.33322 38.35H22.548C23.6167 46.88 30.8686 53.2804 39.4659 53.2804C48.0631 53.2804 55.315 46.88 56.3837 38.35H58.6655C60.4326 38.35 61.8654 39.7823 61.8654 41.5499V52.2164Z" fill="white"/>
</g>
<defs>
<clipPath id="clip0">
<rect width="64" height="64" fill="white"/>
</clipPath>
</defs>
</svg>
