<svg width="75" height="75" viewBox="0 0 75 75" fill="none" xmlns="http://www.w3.org/2000/svg">
<path d="M46.9564 4.41016H14.957V28.6917H46.9564V4.41016ZM44.7265 26.4612H17.1869V6.64004H44.7265V26.4612Z" fill="#0C95ED"/>
<path d="M41.4443 37.5125V30.8721H20.4707V37.5125H41.4443ZM22.7006 33.102H39.2144V35.2826H22.7006V33.102Z" fill="#0C95ED"/>
<path d="M21.5964 40.7949H16.0586V46.3327H21.5964V40.7949ZM19.3665 44.1028H18.289V43.0248H19.3665V44.1028Z" fill="#0C95ED"/>
<path d="M23.7773 46.3327H29.3151V40.7949H23.7773V46.3327ZM26.0072 43.0248H27.0847V44.1028H26.0072V43.0248Z" fill="#0C95ED"/>
<path d="M31.4961 46.3327H37.0339V40.7949H31.4961V46.3327ZM33.726 43.0248H34.804V44.1028H33.726V43.0248Z" fill="#0C95ED"/>
<path d="M21.5964 48.5137H16.0586V54.0515H21.5964V48.5137ZM19.3665 51.8216H18.289V50.7436H19.3665V51.8216Z" fill="#0C95ED"/>
<path d="M23.7773 54.0515H29.3151V48.5137H23.7773V54.0515ZM26.0072 50.7436H27.0847V51.8216H26.0072V50.7436Z" fill="#0C95ED"/>
<path d="M31.4961 54.0515H37.0339V48.5137H31.4961V54.0515ZM33.726 50.7436H34.804V51.8216H33.726V50.7436Z" fill="#0C95ED"/>
<path d="M21.5964 56.2314H16.0586V61.7692H21.5964V56.2314ZM19.3665 59.5394H18.289V58.4619H19.3665V59.5394Z" fill="#0C95ED"/>
<path d="M23.7773 61.7692H29.3151V56.2314H23.7773V61.7692ZM26.0072 58.4619H27.0847V59.5394H26.0072V58.4619Z" fill="#0C95ED"/>
<path d="M16.0586 69.487H29.3149V63.9492H16.0586V69.487ZM18.289 66.1791H27.0844V67.2566H18.289V66.1791Z" fill="#0C95ED"/>
<path d="M31.4961 69.487H37.0339V63.9492H31.4961V69.487ZM33.726 66.1791H34.804V67.2566H33.726V66.1791Z" fill="#0C95ED"/>
<path d="M31.4961 61.7692H37.0339V56.2314H31.4961V61.7692ZM33.726 58.4619H34.804V59.5394H33.726V58.4619Z" fill="#0C95ED"/>
<path d="M40.3164 48.538H46.9568V40.7949H40.3164V48.538ZM42.5463 43.0248H44.727V46.3075H42.5463V43.0248Z" fill="#0C95ED"/>
<path d="M40.3164 69.4876H46.9568V50.7188H40.3164V69.4876ZM42.5463 52.9486H44.727V67.2572H42.5463V52.9486Z" fill="#0C95ED"/>
<path d="M19.3809 8.82031H21.5856V11.0502H19.3809V8.82031Z" fill="#0C95ED"/>
<path d="M23.7891 8.82031H25.9943V11.0502H23.7891V8.82031Z" fill="#0C95ED"/>
<path d="M28.2012 8.82031H30.4064V11.0502H28.2012V8.82031Z" fill="#0C95ED"/>
<path d="M40.3281 22.0518H42.5328V24.2816H40.3281V22.0518Z" fill="#0C95ED"/>
<path d="M32.6113 22.0518H38.1245V24.2816H32.6113V22.0518Z" fill="#0C95ED"/>
<path d="M24.8926 22.0518H30.4058V24.2816H24.8926V22.0518Z" fill="#0C95ED"/>
<path d="M61.0073 7.7179H51.3668V0H10.5469V75H51.3668V37.5126H61.0073C62.9871 37.5126 64.5979 35.9018 64.5979 33.922V11.3085C64.5979 9.32865 62.9871 7.7179 61.0073 7.7179ZM12.7768 72.7701V33.102H18.2774V30.8722H12.7768V2.22988H49.1369V30.8722H43.3611V33.102H49.1369V72.7701H12.7768ZM62.368 33.922C62.368 34.6722 61.7575 35.2827 61.0073 35.2827H51.3668V9.94778H61.0073C61.7575 9.94778 62.368 10.5583 62.368 11.3085V33.922Z" fill="#0C95ED"/>
<path d="M57.957 12.1406H60.1875V15.4485H57.957V12.1406Z" fill="#0C95ED"/>
<path d="M57.957 17.6533H60.1875V20.9612H57.957V17.6533Z" fill="#0C95ED"/>
<path d="M57.957 23.166H60.1875V26.4739H57.957V23.166Z" fill="#0C95ED"/>
<path d="M53.5469 12.1406H55.7768V18.7565H53.5469V12.1406Z" fill="#0C95ED"/>
<path d="M57.957 30.8848H60.1875V33.0895H57.957V30.8848Z" fill="#0C95ED"/>
<path d="M57.957 39.7051H60.1875V48.5256H57.957V39.7051Z" fill="#0C95ED"/>
<path d="M53.5469 41.9102H55.7768V44.1154H53.5469V41.9102Z" fill="#0C95ED"/>
<path d="M53.5469 46.3203H55.7768V56.2435H53.5469V46.3203Z" fill="#0C95ED"/>
</svg>
