<svg width="60" height="60" viewBox="0 0 60 60" fill="none" xmlns="http://www.w3.org/2000/svg">
<path d="M59 6H1C0.447 6 0 6.447 0 7V45C0 45.553 0.447 46 1 46H27V49H22V54H38V49H33V46H59C59.553 46 60 45.553 60 45V7C60 6.447 59.553 6 59 6ZM36 51V52H24V51H29V46H31V51H36ZM58 44H33H27H2V8H58V44Z" fill="#0C95ED"/>
<path d="M55 34H42.374L42.289 33.925C41.936 33.613 41.559 33.354 41.164 33.15L36.543 30.161L36.447 30.106C36.097 29.931 35.709 29.85 35.367 29.778C35.258 29.756 35.116 29.725 35 29.695V28.393C35.045 28.363 35.092 28.33 35.14 28.297C35.817 27.831 36.134 27.598 36.325 27.329C37.018 26.348 37.712 25.292 38.155 24.158C39.116 23.718 40.001 22.868 40.001 21.789V19.544C40.001 19.131 39.839 18.728 39.521 18.348C39.284 18.064 39.001 17.604 39.001 17.028V15.974C38.937 13.562 37.183 9 31 9C24.817 9 23.063 13.562 23 16V17.027C23 17.603 22.718 18.063 22.481 18.346C22.162 18.728 22 19.131 22 19.544V21.789C22 22.753 22.793 23.436 23.353 23.829C24.019 25.845 26.035 27.344 27 27.967V29.294C26.739 29.548 25.941 29.927 25.584 30.097C25.364 30.202 25.17 30.295 25.004 30.386L20.319 33.106C19.923 33.322 19.542 33.602 19.187 33.936L19.119 34H14V41H55V34ZM25.985 32.129C26.102 32.065 26.262 31.989 26.443 31.903C27.582 31.361 29 30.687 29 29.455V26.81L28.479 26.526C27.692 26.097 25.567 24.624 25.19 22.979L25.099 22.583L24.758 22.362C24.14 21.963 24.024 21.758 24 21.789V19.648C24.004 19.644 24.009 19.638 24.016 19.628C24.65 18.869 25 17.944 25 17.027V16.026C25.005 15.821 25.199 11 31 11C36.656 11 36.982 15.516 37 16V17.027C37 17.932 37.34 18.843 38 19.654L38.001 21.775C37.968 21.917 37.563 22.285 37.072 22.435L36.575 22.588L36.415 23.084C36.076 24.137 35.387 25.19 34.742 26.11C34.639 26.212 34.226 26.496 34.005 26.649C33.581 26.941 33.388 27.077 33.249 27.234L33 27.519V30C33 31.325 34.321 31.602 34.956 31.735C35.159 31.777 35.387 31.825 35.516 31.878L38.796 34H22.761L25.985 32.129ZM53 39H16V36H20.069H41.448H53V39Z" fill="#0C95ED"/>
<path d="M55 10H49V16H55V10ZM53 14H51V12H53V14Z" fill="#0C95ED"/>
<path d="M12 34H5V41H12V34ZM10 39H7V36H10V39Z" fill="#0C95ED"/>
</svg>
