<svg width="70" height="70" viewBox="0 0 70 70" fill="none" xmlns="http://www.w3.org/2000/svg">
<path d="M59.4994 5.83333C59.4994 2.56689 56.9325 0 53.666 0H10.4993C7.23291 0 4.66602 2.56689 4.66602 5.83333V15.1667H13.9993V64.1667C13.9993 67.4331 16.5662 70 19.8327 70H59.4994C62.7658 70 65.3327 67.4331 65.3327 64.1667V58.3333H59.4994V5.83333ZM13.9993 12.8333H6.99935V5.83333C6.99935 3.84977 8.51579 2.33333 10.4993 2.33333C12.4829 2.33333 13.9993 3.84977 13.9993 5.83333V12.8333ZM16.3327 64.1667V5.83333C16.3327 4.54989 15.8661 3.38322 15.166 2.33333H53.666C55.6496 2.33333 57.166 3.84977 57.166 5.83333V58.3333H23.3327V64.1667C23.3327 66.1502 21.8162 67.6667 19.8327 67.6667C17.8491 67.6667 16.3327 66.1502 16.3327 64.1667ZM62.9994 60.6667V64.1667C62.9994 66.1502 61.4829 67.6667 59.4994 67.6667H24.4993C25.3162 66.6168 25.666 65.4501 25.666 64.1667V60.6667H62.9994Z" fill="#0C95ED"/>
<path d="M45.5 37.333H54.8333V39.6663H45.5V37.333Z" fill="#0C95ED"/>
<path d="M18.666 37.333H43.166V39.6663H18.666V37.333Z" fill="#0C95ED"/>
<path d="M31.5 42H54.8333V44.3333H31.5V42Z" fill="#0C95ED"/>
<path d="M18.666 42H29.166V44.3333H18.666V42Z" fill="#0C95ED"/>
<path d="M39.666 51.333H54.8327V53.6663H39.666V51.333Z" fill="#0C95ED"/>
<path d="M18.666 51.333H37.3327V53.6663H18.666V51.333Z" fill="#0C95ED"/>
<path d="M34.7664 23.8002L36.1667 24.7339L37.5669 23.8002C41.7664 21.0003 44.3333 16.2169 44.3333 11.2004V7.3501L36.1667 4.66699L28 7.3501V11.2004C28 16.2169 30.5669 21.0003 34.7664 23.8002ZM30.3333 8.98389L36.1667 7.00033L42 8.98389V11.2004C42 15.5168 39.9002 19.4839 36.2834 21.9334H36.1667L36.0499 21.8172C32.4331 19.4839 30.3333 15.4006 30.3333 11.0837V8.98389Z" fill="#0C95ED"/>
<path d="M39.666 11.7834L37.3327 11.5498C37.0991 13.5334 36.0492 15.4001 34.416 16.5668L35.6995 18.5498C37.916 16.9166 39.4325 14.4665 39.666 11.7834Z" fill="#0C95ED"/>
<path d="M25.666 46.667H54.8327V49.0003H25.666V46.667Z" fill="#0C95ED"/>
<path d="M18.666 46.667H23.3327V49.0003H18.666V46.667Z" fill="#0C95ED"/>
<path d="M31.5 32.667H54.8333V35.0003H31.5V32.667Z" fill="#0C95ED"/>
<path d="M18.666 32.667H29.166V35.0003H18.666V32.667Z" fill="#0C95ED"/>
<path d="M28 26.833H44.3333V29.1663H28V26.833Z" fill="#0C95ED"/>
</svg>
