<svg width="70" height="70" viewBox="0 0 70 70" fill="none" xmlns="http://www.w3.org/2000/svg">
<path d="M45.9364 14.2191H38.2802V13.1253C38.2802 12.6233 37.9389 12.1858 37.4522 12.0644L28.7022 9.87688C28.3555 9.79156 27.988 9.87797 27.7189 10.1131C27.4499 10.3483 27.311 10.6994 27.3503 11.0548L30.6316 41.6798C30.6896 42.2344 31.1588 42.6566 31.7177 42.6566H37.1864C37.7902 42.6566 38.2802 42.1677 38.2802 41.5628V40.4691H47.0302V45.9378C47.0302 46.5427 47.5202 47.0316 48.1239 47.0316H49.2177V53.5941H48.1239C47.5202 53.5941 47.0302 54.083 47.0302 54.6878V63.4378C47.0302 66.4533 49.4835 68.9066 52.4989 68.9066H63.4364C64.0402 68.9066 64.5302 68.4177 64.5302 67.8128V40.4691H65.6239C67.433 40.4691 68.9052 38.9969 68.9052 37.1878C68.9052 24.5222 58.6021 14.2191 45.9364 14.2191ZM36.0927 40.4691H32.6999L29.691 12.3783L36.0927 13.9795V15.3128V39.3753V40.4691ZM51.4052 47.0316H53.5927V53.5941H51.4052V47.0316ZM62.3427 66.7191H52.4989C50.6899 66.7191 49.2177 65.2469 49.2177 63.4378V55.7816H54.6864C55.2902 55.7816 55.7802 55.2927 55.7802 54.6878V45.9378C55.7802 45.333 55.2902 44.8441 54.6864 44.8441H49.2177V40.4691H62.3427V66.7191ZM65.6239 38.2816H38.2802V16.4066H45.9364C57.3957 16.4066 66.7177 25.7286 66.7177 37.1878C66.7177 37.7916 66.2266 38.2816 65.6239 38.2816Z" fill="#0C95ED"/>
<path d="M60.1562 25.1562H49.2188V27.3438H60.1562V25.1562Z" fill="#0C95ED"/>
<path d="M60.1562 29.5312H49.2188V31.7188H60.1562V29.5312Z" fill="#0C95ED"/>
<path d="M60.1562 33.9062H49.2188V36.0938H60.1562V33.9062Z" fill="#0C95ED"/>
<path d="M24.0625 1.09375H2.1875C1.58375 1.09375 1.09375 1.58375 1.09375 2.1875V48.125C1.09375 48.7298 1.58375 49.2188 2.1875 49.2188H24.0625C24.6663 49.2188 25.1562 48.7298 25.1562 48.125V2.1875C25.1562 1.58375 24.6663 1.09375 24.0625 1.09375ZM22.9688 47.0312H3.28125V3.28125H22.9688V47.0312Z" fill="#0C95ED"/>
<path d="M20.7812 31.7188H5.46875V33.9062H20.7812V31.7188Z" fill="#0C95ED"/>
<path d="M20.7812 42.6562H5.46875V44.8438H20.7812V42.6562Z" fill="#0C95ED"/>
<path d="M20.7812 27.3438H5.46875V29.5312H20.7812V27.3438Z" fill="#0C95ED"/>
<path d="M20.7812 16.4062H5.46875V18.5938H20.7812V16.4062Z" fill="#0C95ED"/>
<path d="M20.7812 5.46875H5.46875V7.65625H20.7812V5.46875Z" fill="#0C95ED"/>
<path d="M20.7812 36.0938H5.46875V40.4688H20.7812V36.0938Z" fill="#0C95ED"/>
<path d="M20.7812 20.7812H5.46875V25.1562H20.7812V20.7812Z" fill="#0C95ED"/>
<path d="M20.7812 9.84375H5.46875V14.2188H20.7812V9.84375Z" fill="#0C95ED"/>
</svg>
