<svg width="67" height="68" viewBox="0 0 67 68" fill="none" xmlns="http://www.w3.org/2000/svg">
<g clip-path="url(#clip0)">
<path d="M59.7184 44.4117C59.6537 44.3017 59.5855 44.1964 59.5174 44.1035C58.8408 43.1435 57.8346 42.5089 56.6867 42.3173C55.5443 42.1257 54.3863 42.3988 53.4439 43.0857L40.9595 52.1332H27.9169C27.3016 52.1332 26.8002 51.6254 26.8002 50.9999C26.8002 50.3743 27.3016 49.8666 27.9169 49.8666H35.1752C37.3304 49.8666 39.0836 48.0873 39.0836 45.8999C39.0836 45.8874 39.0824 45.7831 39.0814 45.7718C39.0122 43.5856 37.1953 41.8811 35.086 41.9333H20.5593C19.2718 41.9446 18.0177 42.4128 17.0295 43.2491L11.569 47.8618C11.3143 48.0783 11.167 48.3967 11.167 48.7333V62.3333C11.167 62.96 11.6673 63.4666 12.2836 63.4666H39.9893C41.8027 63.4643 43.5693 62.8161 44.9652 61.6431L58.5026 50.2905C60.3416 48.9608 60.8754 46.3792 59.7184 44.4117ZM57.1446 48.494L43.5424 59.8964C42.5441 60.7352 41.2811 61.1975 39.988 61.1997H13.4002V49.2645L18.4598 44.9896C19.0539 44.4875 19.8054 44.2064 20.5692 44.1996L35.1216 44.1985C36.0473 44.1973 36.82 44.908 36.8502 45.8997C36.8502 46.837 36.0987 47.5997 35.1752 47.5997H27.9169C26.0699 47.5997 24.5669 49.1252 24.5669 50.9997C24.5669 52.8743 26.0699 54.3997 27.9169 54.3997H41.3169C41.5491 54.3997 41.7758 54.326 41.9679 54.189L54.7447 44.9285C55.2048 44.593 55.7643 44.4627 56.3249 44.5533C56.8843 44.6473 57.3734 44.9556 57.7095 45.4316C57.743 45.4781 57.7731 45.5256 57.8021 45.5743C58.3673 46.5345 58.1048 47.7958 57.1446 48.494Z" fill="#0C95ED"/>
<path d="M12.2499 46.4668H0V48.7335H11.1331V65.7335H0V68.0001H12.2499C12.8662 68.0001 13.3665 67.4935 13.3665 66.8668V47.6001C13.3665 46.9733 12.8662 46.4668 12.2499 46.4668Z" fill="#0C95ED"/>
<path d="M5.5834 56.6665C3.73645 56.6665 2.2334 58.192 2.2334 60.0665C2.2334 61.941 3.73645 63.4665 5.5834 63.4665C7.43035 63.4665 8.9334 61.941 8.9334 60.0665C8.9334 58.192 7.43035 56.6665 5.5834 56.6665ZM5.5834 61.1998C4.9681 61.1998 4.46678 60.6921 4.46678 60.0665C4.46678 59.441 4.9681 58.9332 5.5834 58.9332C6.1987 58.9332 6.70002 59.441 6.70002 60.0665C6.70002 60.6921 6.1987 61.1998 5.5834 61.1998Z" fill="#0C95ED"/>
<path d="M65.8834 35.1333H1.11662C0.500275 35.1333 0 35.6399 0 36.2666C0 40.6401 3.50638 44.1999 7.81662 44.1999H59.1832C63.4924 44.1999 66.9999 40.6401 66.9999 36.2666C67 35.64 66.5009 35.1333 65.8834 35.1333ZM59.1834 41.9333H7.81662C5.11987 41.9333 2.86425 39.9828 2.34605 37.4H64.6538C64.1357 39.9828 61.8801 41.9333 59.1834 41.9333Z" fill="#0C95ED"/>
<path d="M33.5002 5.6665C17.4916 5.6665 4.4668 18.8857 4.4668 35.1332V36.2665C4.4668 36.8932 4.96707 37.3998 5.58342 37.3998H61.4168C62.0343 37.3998 62.5334 36.8932 62.5334 36.2665V35.1332C62.5335 18.8856 49.5098 5.6665 33.5002 5.6665ZM6.70017 35.1331C6.70017 20.1356 18.7233 7.93308 33.5002 7.93308C48.2771 7.93308 60.3002 20.1356 60.3002 35.1331H6.70017Z" fill="#0C95ED"/>
<path d="M15.1331 18.5947C14.3525 19.4855 13.629 20.4387 12.9824 21.4292L14.8439 22.6815C15.4335 21.7793 16.0923 20.91 16.8025 20.0998L15.1331 18.5947Z" fill="#0C95ED"/>
<path d="M33.4999 10.2002C27.2287 10.2036 21.2578 12.6085 16.6885 16.9685L18.2184 18.6197C22.3724 14.6553 27.8004 12.4702 33.501 12.4669L33.4999 10.2002Z" fill="#0C95ED"/>
<path d="M36.8494 0H30.1494V2.26671H36.8494V0Z" fill="#0C95ED"/>
<path d="M34.6171 1.1333H32.3838V6.80001H34.6171V1.1333Z" fill="#0C95ED"/>
</g>
<defs>
<clipPath id="clip0">
<rect width="67" height="68" fill="white"/>
</clipPath>
</defs>
</svg>
