<svg width="62" height="62" viewBox="0 0 62 62" fill="none" xmlns="http://www.w3.org/2000/svg">
<path d="M60.9667 0H1.03333C0.4619 0 0 0.462933 0 1.03333V38.2333C0 38.8037 0.4619 39.2667 1.03333 39.2667H11.3667V41.1391C9.517 42.2127 8.26667 44.2112 8.26667 46.5C8.26667 48.5098 9.23283 50.2944 10.7198 51.428C7.45343 52.8726 5.16667 56.1389 5.16667 59.9333V60.9667C5.16667 61.5371 5.62857 62 6.2 62H22.7333H39.2667H55.8C56.3714 62 56.8333 61.5371 56.8333 60.9667V59.9333C56.8333 56.1389 54.5466 52.8726 51.2802 51.428C52.7672 50.2944 53.7333 48.5098 53.7333 46.5C53.7333 44.2112 52.483 42.2127 50.6333 41.1391V39.2667H60.9667C61.5381 39.2667 62 38.8037 62 38.2333V1.03333C62 0.462933 61.5381 0 60.9667 0ZM10.3333 46.5C10.3333 44.2205 12.1871 42.3667 14.4667 42.3667C16.7462 42.3667 18.6 44.2205 18.6 46.5C18.6 48.7795 16.7462 50.6333 14.4667 50.6333C12.1871 50.6333 10.3333 48.7795 10.3333 46.5ZM7.23333 59.9333C7.23333 55.9447 10.479 52.7 14.4667 52.7C18.4543 52.7 21.7 55.9447 21.7 59.9333H7.23333ZM18.2135 51.428C19.7005 50.2944 20.6667 48.5098 20.6667 46.5C20.6667 44.9107 20.0611 43.4651 19.0753 42.3667H26.3924C25.4055 43.4651 24.8 44.9107 24.8 46.5C24.8 48.5098 25.7662 50.2944 27.2531 51.428C25.3022 52.2908 23.7057 53.8036 22.7333 55.6915C21.761 53.8036 20.1645 52.2908 18.2135 51.428ZM26.8667 46.5C26.8667 44.2205 28.7205 42.3667 31 42.3667C33.2795 42.3667 35.1333 44.2205 35.1333 46.5C35.1333 48.7795 33.2795 50.6333 31 50.6333C28.7205 50.6333 26.8667 48.7795 26.8667 46.5ZM23.7667 59.9333C23.7667 55.9447 27.0124 52.7 31 52.7C34.9876 52.7 38.2333 55.9447 38.2333 59.9333H23.7667ZM34.7469 51.428C36.2338 50.2944 37.2 48.5098 37.2 46.5C37.2 44.9107 36.5945 43.4651 35.6087 42.3667H42.9257C41.9389 43.4651 41.3333 44.9107 41.3333 46.5C41.3333 48.5098 42.2995 50.2944 43.7865 51.428C41.8355 52.2908 40.239 53.8036 39.2667 55.6915C38.2943 53.8036 36.6978 52.2908 34.7469 51.428ZM54.7667 59.9333H40.3C40.3 55.9447 43.5457 52.7 47.5333 52.7C51.521 52.7 54.7667 55.9447 54.7667 59.9333ZM51.6667 46.5C51.6667 48.7795 49.8129 50.6333 47.5333 50.6333C45.2538 50.6333 43.4 48.7795 43.4 46.5C43.4 44.2205 45.2538 42.3667 47.5333 42.3667C49.8129 42.3667 51.6667 44.2205 51.6667 46.5ZM49.6 32.0333H46.5V34.1H48.5667V40.3H13.4333V33.0667C13.4333 32.4963 12.9714 32.0333 12.4 32.0333H9.3V29.9667H22.7333H39.2667H52.7V32.0333H49.6ZM37.0915 16.5333C38.2602 16.5333 39.4062 16.9353 40.3186 17.6659L43.7865 20.4404C44.0086 20.6181 44.2949 20.6977 44.5749 20.6574C44.8549 20.6181 45.1091 20.4652 45.2734 20.2337L49.8253 13.8611L52.298 15.7149L47.2275 22.6879C46.718 23.3895 45.9627 23.8338 45.1029 23.9413C44.2401 24.0477 43.4021 23.8018 42.7366 23.2469L39.928 20.9064C39.6201 20.6501 39.1902 20.5954 38.8285 20.7638C38.4658 20.9343 38.2333 21.2991 38.2333 21.7V27.9H32.0333V18.6H29.9667V27.9H23.7667V21.7C23.7667 21.2991 23.5342 20.9343 23.1715 20.7638C22.8119 20.5954 22.381 20.6491 22.072 20.9064L19.2634 23.2469C18.5969 23.8028 17.7609 24.0477 16.8971 23.9413C16.0373 23.8338 15.283 23.3895 14.7725 22.6879L9.70197 15.7149L12.1747 13.8611L16.7266 20.2337C16.8909 20.4652 17.144 20.6181 17.4251 20.6574C17.7062 20.6987 17.9914 20.6181 18.2135 20.4404L21.6814 17.6659C22.5928 16.9353 23.7398 16.5333 24.9075 16.5333H37.0915ZM26.8667 10.3333C26.8667 8.0538 28.7205 6.2 31 6.2C33.2795 6.2 35.1333 8.0538 35.1333 10.3333C35.1333 12.6129 33.2795 14.4667 31 14.4667C28.7205 14.4667 26.8667 12.6129 26.8667 10.3333ZM59.9333 37.2H50.6333V34.1H53.7333C54.3048 34.1 54.7667 33.6371 54.7667 33.0667V28.9333C54.7667 28.3629 54.3048 27.9 53.7333 27.9H40.3V23.9062L41.4129 24.8341C42.5082 25.7465 43.9508 26.1681 45.3571 25.9925C46.7697 25.8178 48.0603 25.0563 48.8984 23.9041L54.5683 16.1086C54.9 15.6519 54.8049 15.0123 54.3523 14.6744L50.219 11.5744C49.9968 11.407 49.7209 11.3377 49.4409 11.3801C49.166 11.4225 48.9201 11.5744 48.7589 11.8007L44.2267 18.1453L41.6113 16.0528C40.3331 15.0298 38.7283 14.4667 37.0925 14.4667H35.6087C36.5945 13.3682 37.2 11.9226 37.2 10.3333C37.2 6.91403 34.4193 4.13333 31 4.13333C27.5807 4.13333 24.8 6.91403 24.8 10.3333C24.8 11.9226 25.4055 13.3682 26.3913 14.4667H24.9075C23.2707 14.4667 21.6659 15.0298 20.3887 16.0518L17.7733 18.1453L13.2401 11.7996C13.0789 11.5733 12.8319 11.4214 12.5581 11.3791C12.2781 11.3377 12.0022 11.407 11.78 11.5733L7.64667 14.6733C7.19407 15.0123 7.099 15.6509 7.4307 16.1076L13.1006 23.9031C13.9386 25.0542 15.2293 25.8158 16.6418 25.9914C18.0461 26.1661 19.4918 25.7455 20.5861 24.8331L21.7 23.9062V27.9H8.26667C7.69523 27.9 7.23333 28.3629 7.23333 28.9333V33.0667C7.23333 33.6371 7.69523 34.1 8.26667 34.1H11.3667V37.2H2.06667V2.06667H59.9333V37.2Z" fill="#0C95ED"/>
<path d="M57.8665 4.1333H55.7998V6.19997H57.8665V4.1333Z" fill="#0C95ED"/>
<path d="M53.7337 4.1333H51.667V6.19997H53.7337V4.1333Z" fill="#0C95ED"/>
<path d="M49.5999 4.1333H47.5332V6.19997H49.5999V4.1333Z" fill="#0C95ED"/>
<path d="M44.4329 32.0332H42.3662V34.0999H44.4329V32.0332Z" fill="#0C95ED"/>
</svg>
