<svg width="65" height="65" viewBox="0 0 65 65" fill="none" xmlns="http://www.w3.org/2000/svg">
<path d="M33.5977 0.371972C33.3616 0.13584 33.0341 0 32.7002 0C32.3663 0 32.0388 0.135713 31.8026 0.371972C31.5665 0.608231 31.4307 0.935643 31.4307 1.26953C31.4307 1.60342 31.5665 1.93095 31.8026 2.16696C32.0388 2.40322 32.3663 2.53906 32.7002 2.53906C33.0341 2.53906 33.3603 2.40322 33.5977 2.16696C33.8339 1.93095 33.9697 1.60342 33.9697 1.26953C33.9697 0.935643 33.8339 0.608104 33.5977 0.371972Z" fill="white"/>
<path d="M62.4608 12.269V8.69526C62.4608 6.76964 60.8942 5.20304 58.9686 5.20304H56.7644C56.2238 2.24783 53.6314 0 50.5222 0H38.1283C37.4271 0 36.8587 0.568495 36.8587 1.26953C36.8587 1.97056 37.4271 2.53906 38.1283 2.53906H50.5222C52.6222 2.53906 54.3308 4.24759 54.3308 6.34764V10.1562H42.1484V6.34764C42.1484 5.64661 41.58 5.07812 40.8788 5.07812H24.121C23.4199 5.07812 22.8515 5.64661 22.8515 6.34764V10.1562H10.6807V6.34764C10.6807 4.24759 12.3892 2.53906 14.4893 2.53906H27.2314C27.9326 2.53906 28.5009 1.97056 28.5009 1.26953C28.5009 0.568495 27.9326 0 27.2314 0H14.4893C11.3802 0 8.78768 2.2477 8.24699 5.20304H6.03128C4.10566 5.20304 2.53906 6.76964 2.53906 8.69526V12.269C1.06145 12.793 0 14.2041 0 15.8592V20.6033C0 22.7034 1.70853 24.4119 3.80859 24.4119C5.90864 24.4119 7.61717 22.7034 7.61717 20.6033V15.8592C7.61717 14.2043 6.55572 12.793 5.07812 12.269V8.69526C5.07812 8.16967 5.50569 7.74209 6.03128 7.74209H8.14174V49.8925C8.14174 52.4425 9.65401 54.6447 11.8281 55.6531V60.1757C11.8281 62.8357 13.9922 64.9999 16.6523 64.9999C19.3123 64.9999 21.4765 62.8357 21.4765 60.1757V56.2401H43.5559V60.1757C43.5559 62.8357 45.7201 64.9999 48.3801 64.9999C51.0401 64.9999 53.2043 62.8357 53.2043 60.1757V55.6438C55.3673 54.631 56.8699 52.4345 56.8699 49.8925V7.74209H58.9687C59.4943 7.74209 59.9219 8.16967 59.9219 8.69526V12.269C58.4443 12.793 57.3828 14.2041 57.3828 15.8592V20.6033C57.3828 22.7034 59.0914 24.4119 61.1914 24.4119C63.2915 24.4119 65 22.7034 65 20.6033V15.8592C64.9999 14.2041 63.9384 12.7932 62.4608 12.269ZM5.07812 20.6034C5.07812 21.3035 4.50861 21.873 3.80859 21.873C3.10857 21.873 2.53906 21.3035 2.53906 20.6034V15.8593C2.53906 15.1593 3.10857 14.5898 3.80859 14.5898C4.50861 14.5898 5.07812 15.1593 5.07812 15.8593V20.6034ZM41.4684 12.6953L37.5137 16.65C37.0179 17.1458 37.0179 17.9496 37.5137 18.4455C37.7616 18.6933 38.0865 18.8173 38.4114 18.8173C38.7362 18.8173 39.0612 18.6933 39.3091 18.4455L45.0593 12.6953H52.5292L33.77 31.4544V12.6953H41.4684ZM25.3906 7.61717H39.6093V10.1562H25.3906V7.61717ZM25.8072 29.7831C25.3115 29.2877 24.5077 29.2875 24.0117 29.7831L16.1205 37.6744H15.3068L11.3806 33.7481L31.2309 13.8978V37.6744H19.7113L25.8072 31.5785C26.303 31.0828 26.3031 30.2789 25.8072 29.7831ZM10.6807 12.6953H28.8426L10.6807 30.8572V12.6953ZM18.9373 60.1757C18.9373 61.4357 17.9122 62.4608 16.6522 62.4608C15.3921 62.4608 14.367 61.4357 14.367 60.1757V56.2401H14.4893H18.9373V60.1757ZM50.6651 60.1757C50.6651 61.4357 49.64 62.4608 48.38 62.4608C47.12 62.4608 46.0948 61.4357 46.0948 60.1757V56.2401H50.5222H50.6651V60.1757ZM54.3308 49.8925C54.3308 51.9925 52.6222 53.7011 50.5222 53.7011H14.4893C12.3892 53.7011 10.6807 51.9925 10.6807 49.8925V36.6391L13.8833 39.8418C14.1214 40.0798 14.4443 40.2136 14.781 40.2136H50.2189C50.5556 40.2136 50.8785 40.0798 51.1166 39.8418L54.3308 36.6276V49.8925ZM54.3308 33.0367L49.693 37.6744H33.77V35.0452L54.3308 14.4846V33.0367ZM62.4608 20.6034C62.4608 21.3035 61.8913 21.873 61.1913 21.873C60.4913 21.873 59.9218 21.3035 59.9218 20.6034V15.8593C59.9218 15.1593 60.4913 14.5898 61.1913 14.5898C61.8913 14.5898 62.4608 15.1593 62.4608 15.8593V20.6034Z" fill="white"/>
<path d="M17.7793 43.1489C15.6792 43.1489 13.9707 44.8575 13.9707 46.9575C13.9707 49.0576 15.6792 50.7661 17.7793 50.7661C19.8793 50.7661 21.5879 49.0576 21.5879 46.9575C21.5879 44.8575 19.8793 43.1489 17.7793 43.1489ZM17.7793 48.227C17.0793 48.227 16.5098 47.6575 16.5098 46.9575C16.5098 46.2575 17.0793 45.688 17.7793 45.688C18.4793 45.688 19.0488 46.2575 19.0488 46.9575C19.0488 47.6575 18.4793 48.227 17.7793 48.227Z" fill="white"/>
<path d="M47.2207 43.1489C45.1206 43.1489 43.4121 44.8575 43.4121 46.9575C43.4121 49.0576 45.1206 50.7661 47.2207 50.7661C49.3207 50.7661 51.0293 49.0576 51.0293 46.9575C51.0293 44.8575 49.3207 43.1489 47.2207 43.1489ZM47.2207 48.227C46.5207 48.227 45.9512 47.6575 45.9512 46.9575C45.9512 46.2575 46.5207 45.688 47.2207 45.688C47.9207 45.688 48.4902 46.2575 48.4902 46.9575C48.4902 47.6575 47.9207 48.227 47.2207 48.227Z" fill="white"/>
<path d="M39.1123 43.1489H25.9092C25.208 43.1489 24.6396 43.7174 24.6396 44.4185V49.4966C24.6396 50.1976 25.208 50.7661 25.9092 50.7661H39.1123C39.8134 50.7661 40.3818 50.1976 40.3818 49.4966V44.4185C40.3818 43.7173 39.8134 43.1489 39.1123 43.1489ZM37.8427 48.227H27.1787V45.688H37.8427V48.227Z" fill="white"/>
</svg>
