<svg width="54" height="54" viewBox="0 0 54 54" fill="none" xmlns="http://www.w3.org/2000/svg">
<g clip-path="url(#clip0)">
<path d="M53.9994 10.7865L27.0329 0L0.0664062 10.7865V15.7251H5.28573V47.041H13.9846V54.0001H40.0812V47.041H48.7801V15.7251H53.9994V10.7865ZM48.6131 10.5058H5.45265L27.0329 1.87357L48.6131 10.5058ZM27.9028 35.7325C27.9028 37.1928 27.351 38.5821 26.3508 39.6461L15.7244 50.9364V20.5286L26.3508 31.8188C27.351 32.8824 27.9028 34.2718 27.9028 35.7325ZM27.6174 40.8384C27.7809 40.6647 27.9351 40.4846 28.0803 40.2986L37.4278 52.2604H16.8674L27.6174 40.8384ZM29.0275 38.6849C29.4259 37.7619 29.6426 36.7612 29.6426 35.7325C29.6426 34.7033 29.4259 33.703 29.0275 32.7801L38.3414 20.8607V50.603L29.0275 38.6849ZM40.0812 19.2046H41.821V22.6842H40.0812V19.2046ZM28.0795 31.1664C27.9351 30.98 27.78 30.8003 27.6165 30.6262L16.8674 19.2046H37.4269L28.0795 31.1664ZM13.9846 22.6842H12.2448V19.2046H13.9846V22.6842ZM47.0403 45.3013H40.0812V24.424H43.5608V17.4649H10.505V24.424H13.9846V45.3013H7.0255V15.7251H47.0403V45.3013ZM1.80618 13.9853V12.2455H52.2596V13.9853H1.80618Z" fill="white"/>
</g>
<defs>
<clipPath id="clip0">
<rect width="54" height="54" fill="white" transform="matrix(1 0 0 -1 0 54)"/>
</clipPath>
</defs>
</svg>
