<svg width="60" height="60" viewBox="0 0 60 60" fill="none" xmlns="http://www.w3.org/2000/svg">
<path fill-rule="evenodd" clip-rule="evenodd" d="M44.0625 0H15.9375C13.3525 0 11.25 2.10251 11.25 4.6875V50.625C11.25 53.21 13.3525 55.3125 15.9375 55.3125H17.1094H19.4531H21.7969H24.1406H35.8594H38.2031H40.5469H42.8906H44.0625C46.6475 55.3125 48.75 53.21 48.75 50.625V4.6875C48.75 2.10251 46.6475 0 44.0625 0ZM44.0625 52.9688C45.3552 52.9688 46.4062 51.9177 46.4062 50.625V22.5H13.5938V50.625C13.5938 51.9177 14.6448 52.9688 15.9375 52.9688H44.0625ZM13.5938 20.1562H46.4062V4.6875C46.4062 3.39478 45.3552 2.34375 44.0625 2.34375H15.9375C14.6448 2.34375 13.5938 3.39478 13.5938 4.6875V20.1562Z" fill="#0C95ED"/>
<path d="M26.5059 17.8125H18.3027C17.0105 17.8125 15.959 16.761 15.959 15.4688V14.2969C15.959 12.3582 17.536 10.7812 19.4746 10.7812H25.334C27.2726 10.7812 28.8496 12.3582 28.8496 14.2969V15.4688C28.8496 16.761 27.7981 17.8125 26.5059 17.8125ZM19.4746 13.125C18.8282 13.125 18.3027 13.6505 18.3027 14.2969V15.4688H26.5063L26.5059 14.2969C26.5059 13.6505 25.9803 13.125 25.334 13.125H19.4746Z" fill="#0C95ED"/>
<path d="M25.334 31.875H19.4746C17.536 31.875 15.959 30.298 15.959 28.3594V27.1875C15.959 25.8952 17.0105 24.8438 18.3027 24.8438H26.5059C27.7981 24.8438 28.8496 25.8952 28.8496 27.1875V28.3594C28.8496 30.298 27.2726 31.875 25.334 31.875ZM18.3027 27.1875V28.3594C18.3027 29.0057 18.8282 29.5312 19.4746 29.5312H25.334C25.9803 29.5312 26.5059 29.0057 26.5059 28.3594V27.1875H18.3027Z" fill="#0C95ED"/>
<path d="M42.8906 50.625C42.2433 50.625 41.7188 50.1004 41.7188 49.4531V40.0781C41.7188 39.4308 42.2433 38.9062 42.8906 38.9062C43.5379 38.9062 44.0625 39.4308 44.0625 40.0781V49.4531C44.0625 50.1004 43.5379 50.625 42.8906 50.625Z" fill="#0C95ED"/>
<path d="M42.893 36.5625C42.2458 36.5625 41.7207 36.0379 41.7207 35.3906C41.7207 34.7433 42.2448 34.2188 42.8921 34.2188H42.893C43.5403 34.2188 44.0649 34.7433 44.0649 35.3906C44.0649 36.0379 43.5403 36.5625 42.893 36.5625Z" fill="#0C95ED"/>
</svg>
