<svg width="64" height="62" viewBox="0 0 64 62" fill="none" xmlns="http://www.w3.org/2000/svg">
<g clip-path="url(#clip0)">
<path d="M60.8 0H9.6C7.83281 0 6.4 1.38804 6.4 3.1V51.6667H1.06667C0.477604 51.6667 0 52.1293 0 52.7V58.9C0 60.612 1.43281 62 3.2 62H52.2667C54.0339 62 55.4667 60.612 55.4667 58.9V49.6H53.3333V58.9C53.3333 59.4707 52.8557 59.9333 52.2667 59.9333H48C47.4109 59.9333 46.9333 59.4707 46.9333 58.9V52.7C46.9333 52.1293 46.4557 51.6667 45.8667 51.6667H8.53333V3.1C8.53333 2.52935 9.01094 2.06667 9.6 2.06667H53.5297C53.4031 2.39766 53.337 2.74731 53.3333 3.1V20.6667H55.4667V12.4H62.9333C63.5224 12.4 64 11.9373 64 11.3667V3.1C64 1.38804 62.5672 0 60.8 0ZM44.9823 59.9333H3.2C2.61094 59.9333 2.13333 59.4707 2.13333 58.9V53.7333H44.8V58.9C44.8 59.2522 44.8615 59.6013 44.9823 59.9333ZM61.8667 10.3333H55.4667V3.1C55.4667 2.52935 55.9443 2.06667 56.5333 2.06667H60.8C61.3891 2.06667 61.8667 2.52935 61.8667 3.1V10.3333Z" fill="#0C95ED"/>
<path d="M61.8663 22.7334H27.7329C26.5548 22.7334 25.5996 23.6588 25.5996 24.8001V45.4667C25.5996 46.608 26.5548 47.5334 27.7329 47.5334H61.8663C63.0444 47.5334 63.9996 46.608 63.9996 45.4667V24.8001C63.9996 23.6588 63.0444 22.7334 61.8663 22.7334ZM27.7329 24.8001H61.8663V35.7389L57.3309 31.3452C56.9142 30.942 56.2392 30.942 55.8225 31.3452L46.9767 39.9146L41.3371 34.4512C40.9204 34.0481 40.2454 34.0481 39.8288 34.4512L28.4574 45.4667H27.7329V24.8001ZM49.6913 45.4667H31.4736L40.5829 36.643L49.6913 45.4667ZM52.7079 45.4667L48.485 41.3758L56.5767 33.537L61.8663 38.6613V45.4667H52.7079Z" fill="#0C95ED"/>
<path d="M49.0662 33.0667C50.8334 33.0667 52.2662 31.6787 52.2662 29.9667C52.2662 28.2547 50.8334 26.8667 49.0662 26.8667C47.299 26.8667 45.8662 28.2547 45.8662 29.9667C45.8662 31.6787 47.299 33.0667 49.0662 33.0667ZM49.0662 28.9334C49.6553 28.9334 50.1329 29.396 50.1329 29.9667C50.1329 30.5374 49.6553 31 49.0662 31C48.4772 31 47.9995 30.5374 47.9995 29.9667C47.9995 29.396 48.4772 28.9334 49.0662 28.9334Z" fill="#0C95ED"/>
<path d="M29.8665 17.5669V7.23353C29.8665 6.66287 29.3889 6.2002 28.7998 6.2002H13.8665C13.2774 6.2002 12.7998 6.66287 12.7998 7.23353V17.5669C12.7998 18.1375 13.2774 18.6002 13.8665 18.6002H28.7998C29.3889 18.6002 29.8665 18.1375 29.8665 17.5669ZM27.7331 16.5335H14.9331V8.26686H27.7331V16.5335Z" fill="#0C95ED"/>
<path d="M34.1338 11.3667H49.0671V13.4334H34.1338V11.3667Z" fill="#0C95ED"/>
<path d="M34.1338 15.5H49.0671V17.5667H34.1338V15.5Z" fill="#0C95ED"/>
<path d="M34.1338 7.2334H38.4005V9.30007H34.1338V7.2334Z" fill="#0C95ED"/>
<path d="M40.5332 7.2334H46.9332V9.30007H40.5332V7.2334Z" fill="#0C95ED"/>
<path d="M12.7998 23.7666H21.3331V25.8333H12.7998V23.7666Z" fill="#0C95ED"/>
<path d="M12.7998 27.8999H21.3331V29.9666H12.7998V27.8999Z" fill="#0C95ED"/>
<path d="M12.7998 32.0332H21.3331V34.0999H12.7998V32.0332Z" fill="#0C95ED"/>
<path d="M12.7998 36.1665H21.3331V38.2332H12.7998V36.1665Z" fill="#0C95ED"/>
<path d="M12.7998 40.2998H21.3331V42.3665H12.7998V40.2998Z" fill="#0C95ED"/>
</g>
<defs>
<clipPath id="clip0">
<rect width="64" height="62" fill="white"/>
</clipPath>
</defs>
</svg>
