<svg width="65" height="65" viewBox="0 0 65 65" fill="none" xmlns="http://www.w3.org/2000/svg">
<path d="M63.9167 0H1.08333C0.48425 0 0 0.485333 0 1.08333V40.0833C0 40.6813 0.48425 41.1667 1.08333 41.1667H11.9167V43.1297C9.9775 44.2553 8.66667 46.3504 8.66667 48.75C8.66667 50.8571 9.67958 52.728 11.2385 53.9164C7.81408 55.4309 5.41667 58.8553 5.41667 62.8333V63.9167C5.41667 64.5147 5.90092 65 6.5 65H23.8333H41.1667H58.5C59.0991 65 59.5833 64.5147 59.5833 63.9167V62.8333C59.5833 58.8553 57.1859 55.4309 53.7615 53.9164C55.3204 52.728 56.3333 50.8571 56.3333 48.75C56.3333 46.3504 55.0225 44.2553 53.0833 43.1297V41.1667H63.9167C64.5158 41.1667 65 40.6813 65 40.0833V1.08333C65 0.485333 64.5158 0 63.9167 0ZM10.8333 48.75C10.8333 46.3602 12.7768 44.4167 15.1667 44.4167C17.5565 44.4167 19.5 46.3602 19.5 48.75C19.5 51.1398 17.5565 53.0833 15.1667 53.0833C12.7768 53.0833 10.8333 51.1398 10.8333 48.75ZM7.58333 62.8333C7.58333 58.6517 10.9861 55.25 15.1667 55.25C19.3472 55.25 22.75 58.6517 22.75 62.8333H7.58333ZM19.0948 53.9164C20.6537 52.728 21.6667 50.8571 21.6667 48.75C21.6667 47.0838 21.0318 45.5683 19.9983 44.4167H27.6694C26.6348 45.5683 26 47.0838 26 48.75C26 50.8571 27.0129 52.728 28.5718 53.9164C26.5265 54.821 24.8528 56.407 23.8333 58.3863C22.8139 56.407 21.1402 54.821 19.0948 53.9164ZM28.1667 48.75C28.1667 46.3602 30.1102 44.4167 32.5 44.4167C34.8898 44.4167 36.8333 46.3602 36.8333 48.75C36.8333 51.1398 34.8898 53.0833 32.5 53.0833C30.1102 53.0833 28.1667 51.1398 28.1667 48.75ZM24.9167 62.8333C24.9167 58.6517 28.3194 55.25 32.5 55.25C36.6806 55.25 40.0833 58.6517 40.0833 62.8333H24.9167ZM36.4282 53.9164C37.9871 52.728 39 50.8571 39 48.75C39 47.0838 38.3652 45.5683 37.3317 44.4167H45.0028C43.9682 45.5683 43.3333 47.0838 43.3333 48.75C43.3333 50.8571 44.3463 52.728 45.9052 53.9164C43.8598 54.821 42.1861 56.407 41.1667 58.3863C40.1473 56.407 38.4735 54.821 36.4282 53.9164ZM57.4167 62.8333H42.25C42.25 58.6517 45.6528 55.25 49.8333 55.25C54.0139 55.25 57.4167 58.6517 57.4167 62.8333ZM54.1667 48.75C54.1667 51.1398 52.2232 53.0833 49.8333 53.0833C47.4435 53.0833 45.5 51.1398 45.5 48.75C45.5 46.3602 47.4435 44.4167 49.8333 44.4167C52.2232 44.4167 54.1667 46.3602 54.1667 48.75ZM52 33.5833H48.75V35.75H50.9167V42.25H14.0833V34.6667C14.0833 34.0687 13.5991 33.5833 13 33.5833H9.75V31.4167H23.8333H41.1667H55.25V33.5833H52ZM38.8863 17.3333C40.1115 17.3333 41.3129 17.7548 42.2695 18.5207L45.9052 21.4294C46.1381 21.6158 46.4382 21.6992 46.7318 21.6569C47.0253 21.6157 47.2918 21.4554 47.4641 21.2127L52.2362 14.5318L54.8286 16.4753L49.5127 23.7857C48.9786 24.5212 48.1867 24.9871 47.2853 25.0998C46.3807 25.2113 45.5022 24.9535 44.8045 24.3717L41.86 21.918C41.5372 21.6493 41.0865 21.5919 40.7073 21.7685C40.3271 21.9473 40.0833 22.3297 40.0833 22.75V29.25H33.5833V19.5H31.4167V29.25H24.9167V22.75C24.9167 22.3297 24.6729 21.9473 24.2927 21.7685C23.9157 21.5919 23.4639 21.6483 23.14 21.918L20.1955 24.3717C19.4968 24.9546 18.6203 25.2113 17.7147 25.0998C16.8133 24.9871 16.0225 24.5212 15.4873 23.7857L10.1714 16.4753L12.7638 14.5318L17.5359 21.2127C17.7082 21.4554 17.9736 21.6157 18.2683 21.6569C18.5629 21.7003 18.8619 21.6158 19.0948 21.4294L22.7305 18.5207C23.686 17.7548 24.8885 17.3333 26.1127 17.3333H38.8863ZM28.1667 10.8333C28.1667 8.4435 30.1102 6.5 32.5 6.5C34.8898 6.5 36.8333 8.4435 36.8333 10.8333C36.8333 13.2232 34.8898 15.1667 32.5 15.1667C30.1102 15.1667 28.1667 13.2232 28.1667 10.8333ZM62.8333 39H53.0833V35.75H56.3333C56.9324 35.75 57.4167 35.2647 57.4167 34.6667V30.3333C57.4167 29.7353 56.9324 29.25 56.3333 29.25H42.25V25.0629L43.4168 26.0358C44.5651 26.9923 46.0774 27.4343 47.5518 27.2502C49.0328 27.0671 50.3858 26.2687 51.2644 25.0608L57.2087 16.8881C57.5564 16.4093 57.4568 15.7387 56.9823 15.3844L52.6489 12.1344C52.416 11.9589 52.1268 11.8863 51.8332 11.9307C51.545 11.9752 51.2872 12.1344 51.1182 12.3717L46.3667 19.0233L43.6248 16.8296C42.2847 15.7571 40.6023 15.1667 38.8873 15.1667H37.3317C38.3652 14.0151 39 12.4995 39 10.8333C39 7.24858 36.0848 4.33333 32.5 4.33333C28.9153 4.33333 26 7.24858 26 10.8333C26 12.4995 26.6348 14.0151 27.6683 15.1667H26.1127C24.3967 15.1667 22.7143 15.7571 21.3753 16.8285L18.6333 19.0233L13.8808 12.3706C13.7118 12.1333 13.4528 11.9741 13.1658 11.9297C12.8722 11.8863 12.5829 11.9589 12.35 12.1333L8.01667 15.3833C7.54217 15.7387 7.4425 16.4082 7.79025 16.887L13.7345 25.0597C14.6131 26.2665 15.9662 27.0649 17.4471 27.2491C18.9193 27.4322 20.4349 26.9913 21.5822 26.0347L22.75 25.0629V29.25H8.66667C8.06758 29.25 7.58333 29.7353 7.58333 30.3333V34.6667C7.58333 35.2647 8.06758 35.75 8.66667 35.75H11.9167V39H2.16667V2.16667H62.8333V39Z" fill="white"/>
<path d="M60.6667 4.3335H58.5V6.50016H60.6667V4.3335Z" fill="white"/>
<path d="M56.3337 4.3335H54.167V6.50016H56.3337V4.3335Z" fill="white"/>
<path d="M51.9997 4.3335H49.833V6.50016H51.9997V4.3335Z" fill="white"/>
<path d="M46.5837 33.5835H44.417V35.7502H46.5837V33.5835Z" fill="white"/>
</svg>
