<svg width="66" height="68" viewBox="0 0 66 68" fill="none" xmlns="http://www.w3.org/2000/svg">
<g clip-path="url(#clip0)">
<path d="M64.7465 27.2026C64.6209 27.2295 61.6394 27.8676 59.121 28.6454C55.7513 29.686 53.8186 31.8775 53.8186 34.6574V47.2063H45.2878C43.181 47.2063 41.4668 48.9723 41.4668 51.1431V67.4631H43.5508V51.1431C43.5508 50.1563 44.3299 49.3536 45.2877 49.3536H55.9027V34.6575C55.9027 32.2417 58.2941 31.1425 59.7194 30.7024C61.1676 30.2552 62.8145 29.8472 63.9154 29.589V50.4454C63.9154 53.0108 61.8896 55.0981 59.3996 55.0981H47.8621L46.3559 67.4633H48.4231L49.6959 57.2454H59.3998C63.039 57.2454 65.9998 54.1949 65.9998 50.4454V26.9355L64.7465 27.2026Z" fill="white"/>
<path d="M59.9567 10.4331H59.9556C56.6989 10.4331 54.0356 13.1004 53.9161 16.4261L51.001 23.3174H53.9119V26.8962H59.6783C63.1643 26.8962 66.0004 23.9742 66.0004 20.3826V16.6599C66.0004 13.2264 63.2891 10.4331 59.9567 10.4331ZM63.9162 20.3826C63.9162 22.7902 62.015 24.7489 59.6783 24.7489H55.9962V21.1699H54.1829L55.9962 16.8838V16.66C55.9962 14.4106 57.7724 12.5805 59.9557 12.5805H59.9569C62.1401 12.5805 63.9163 14.4106 63.9163 16.66V20.3826H63.9162Z" fill="white"/>
<path d="M20.7118 47.2064H12.1811V34.6575C12.1811 31.8775 10.2485 29.6862 6.87868 28.6455C4.36025 27.8678 1.37891 27.2296 1.25322 27.2028L0 26.9355V50.4454C0 54.1949 2.96084 57.2454 6.59999 57.2454H16.3039L17.5766 67.4633H19.6437L18.1376 55.0981H6.59999C4.10991 55.0981 2.08415 53.0108 2.08415 50.4454V29.589C3.18449 29.8468 4.83088 30.2548 6.28017 30.7024C7.70549 31.1426 10.0968 32.2418 10.0968 34.6575V49.3537H20.7118C21.6696 49.3537 22.4487 50.1564 22.4487 51.1432V67.4632H24.5329V51.1432C24.5329 48.9724 22.8187 47.2064 20.7118 47.2064Z" fill="white"/>
<path d="M12.0843 16.4261C11.9647 13.1004 9.30147 10.4331 6.04479 10.4331H6.04363C2.71128 10.4331 0 13.2264 0 16.6599V20.3826C0 23.9742 2.83606 26.8962 6.32207 26.8962H12.0884V23.3174H14.9994L12.0843 16.4261ZM10.0041 21.1699V24.7488H6.32207C3.98539 24.7488 2.08415 22.7901 2.08415 20.3825V16.6597C2.08415 14.4103 3.86035 12.5803 6.04363 12.5803H6.04479C8.22807 12.5803 10.0043 14.4103 10.0043 16.6597V16.8835L11.8176 21.1698H10.0041V21.1699Z" fill="white"/>
<path d="M15.6318 36.3262V42.7682H30.2558V67.4629H32.34V42.7682H34.4241V67.4629H36.5083V42.7682H50.3684V36.3262H15.6318ZM48.2844 40.6209H17.7161V38.4736H48.2845V40.6209H48.2844Z" fill="white"/>
<path d="M47.1027 11.7136V6.26295H41.2669V0.536621H16.9512V5.98724L11.9004 12.3471H16.9513V16.9998H21.305V14.8525H19.0356V10.1998H16.2989L19.0356 6.75383V2.68393H39.183V6.26282H22.787V22.726H47.1028V18.0733H52.1537L47.1027 11.7136ZM45.0185 15.9261V20.5788H24.8712V16.9998H41.267V9.78925H39.1828V14.8525H24.8712V8.41026H45.0185V12.4802L47.7552 15.9261H45.0185Z" fill="white"/>
<path d="M28.2062 28.5957H26.1221V30.743H28.2062V28.5957Z" fill="white"/>
<path d="M34.0422 28.5957H31.958V30.743H34.0422V28.5957Z" fill="white"/>
<path d="M39.8781 28.5957H37.7939V30.743H39.8781V28.5957Z" fill="white"/>
</g>
<defs>
<clipPath id="clip0">
<rect width="66" height="68" fill="white"/>
</clipPath>
</defs>
</svg>
