<svg width="119" height="131" viewBox="0 0 119 131" fill="none" xmlns="http://www.w3.org/2000/svg">
<path d="M73.6615 79.6079H45.2266V106.012H73.6615V79.6079Z" fill="#FCB47E"/>
<path d="M67.6245 106.506C62.7408 109.611 59.4999 110.074 59.4999 110.074C59.4999 110.074 56.2599 109.611 51.3772 106.507C51.3772 106.507 48.4428 99.0725 49.289 99.9187C50.1352 100.765 59.4999 99.9187 59.4999 99.9187L67.5686 101.95L67.6245 106.506Z" fill="#4296D9"/>
<path d="M83.817 89.7632L104.956 93.3234C113.468 95.7081 118.401 104.062 118.401 111.887V125.049C118.401 127.996 115.673 130.385 112.308 130.385H6.69185C3.32662 130.385 0.598633 127.996 0.598633 125.049V111.887C0.598633 104.062 5.5316 95.7081 14.0431 93.3234L35.0712 89.7632L59.4997 99.9185L83.817 89.7632Z" fill="#996459"/>
<path d="M25.626 91.3626C25.6575 91.4276 25.6572 91.5023 25.6958 91.5642C41.137 116.465 56.1697 119.757 57.8319 120.049L59.147 120.281C59.2641 120.303 59.3811 120.313 59.5002 120.313C59.6193 120.313 59.7363 120.303 59.8533 120.281L61.1685 120.049C62.8306 119.757 77.8634 116.465 93.3046 91.5642C93.3414 91.5051 93.3399 91.434 93.3701 91.372L83.8177 89.7632L59.5004 99.9185L35.072 89.7632L25.626 91.3626Z" fill="#7E5C62"/>
<path d="M41.2205 79.6079L33.5537 89.7633L45.9346 108.038C46.6501 109.094 48.1503 109.237 49.0523 108.335L59.5002 99.9186L41.2205 79.6079Z" fill="#4BB9EC"/>
<path d="M77.7796 79.6079L85.4464 89.7633L73.0655 108.038C72.3501 109.094 70.8499 109.237 69.9478 108.335L59.5 99.9186L77.7796 79.6079Z" fill="#4BB9EC"/>
<path d="M87.9829 44.7043L83.8731 34.9246C83.8731 34.9246 66.1012 25.1077 37.1584 28.8314H37.1028C31.9078 35.3885 28.9785 43.4425 28.9785 53.2043C28.9785 73.3954 42.6187 89.7636 59.4446 89.7636C76.2705 89.7636 89.9107 73.3954 89.9107 53.2043C89.9107 49.9277 89.5177 46.7678 88.8438 43.7463C88.3181 44.3338 87.9829 44.7043 87.9829 44.7043Z" fill="#FFDCAD"/>
<path d="M47.2571 61.3287C51.744 61.3287 55.3814 57.6913 55.3814 53.2044C55.3814 48.7174 51.744 45.0801 47.2571 45.0801C42.7702 45.0801 39.1328 48.7174 39.1328 53.2044C39.1328 57.6913 42.7702 61.3287 47.2571 61.3287Z" fill="#AEEFFF"/>
<path d="M47.2571 45.0801C45.028 45.0801 43.0107 45.9806 41.543 47.4343L53.0272 58.9185C54.4812 57.4506 55.3814 55.4335 55.3814 53.2044C55.3814 48.7175 51.7443 45.0801 47.2571 45.0801Z" fill="white"/>
<path d="M71.6301 61.3287C76.1171 61.3287 79.7544 57.6913 79.7544 53.2044C79.7544 48.7174 76.1171 45.0801 71.6301 45.0801C67.1432 45.0801 63.5059 48.7174 63.5059 53.2044C63.5059 57.6913 67.1432 61.3287 71.6301 61.3287Z" fill="#AEEFFF"/>
<path d="M71.6858 45.0801C69.4567 45.0801 67.4394 45.9806 65.9717 47.4343L77.4559 58.9185C78.9099 57.4506 79.8101 55.4335 79.8101 53.2044C79.8101 48.7175 76.173 45.0801 71.6858 45.0801Z" fill="white"/>
<path d="M91.8247 5.67016C91.4596 4.83717 90.5928 4.35327 89.6786 4.47818C84.589 5.21393 78.4183 3.96635 71.8907 2.65732C60.942 0.459704 49.6263 -1.81332 40.78 4.49798C40.651 4.47209 40.5162 4.45838 40.3774 4.45838C31.3068 4.45838 24.9717 11.9756 24.9717 22.738C24.9717 31.5029 28.8574 48.2653 29.0239 48.9754C29.2321 49.866 30.0118 50.5086 30.926 50.5424C30.9519 50.5444 30.9776 50.5444 31.0014 50.5444C31.886 50.5444 32.6735 49.9691 32.9393 49.1204L38.7053 30.6879C62.9611 27.8853 79.0469 34.8374 82.29 36.4003L86.1102 45.4924C86.4395 46.2738 87.221 46.8133 88.072 46.7341C88.923 46.6965 89.6588 46.1332 89.9185 45.3218C96.0059 26.2447 93.7765 10.105 91.8247 5.67016Z" fill="#7E5C62"/>
<path d="M63.5616 55.2351C62.4389 55.2351 61.5305 54.3267 61.5305 53.2041C61.5305 52.0834 60.6201 51.173 59.4995 51.173C58.3788 51.173 57.4684 52.0834 57.4684 53.2041C57.4684 54.3267 56.56 55.2351 55.4373 55.2351C54.3146 55.2351 53.4062 54.3267 53.4062 53.2041C53.4062 49.8442 56.1396 47.1108 59.4995 47.1108C62.8594 47.1108 65.5927 49.8442 65.5927 53.2041C65.5927 54.3267 64.6843 55.2351 63.5616 55.2351Z" fill="#5C546A"/>
<path d="M39.1893 53.2042H28.9783C27.8557 53.2042 26.9473 52.2958 26.9473 51.1732C26.9473 50.0505 27.8557 49.1421 28.9783 49.1421H39.1893C40.312 49.1421 41.2204 50.0505 41.2204 51.1732C41.2204 52.2958 40.312 53.2042 39.1893 53.2042Z" fill="#5C546A"/>
<path d="M89.9101 53.2042H79.8104C78.6877 53.2042 77.7793 52.2958 77.7793 51.1732C77.7793 50.0505 78.6877 49.1421 79.8104 49.1421H89.9101C91.0328 49.1421 91.9412 50.0505 91.9412 51.1732C91.9412 52.2958 91.0328 53.2042 89.9101 53.2042Z" fill="#5C546A"/>
<path d="M47.3136 63.3595C41.7141 63.3595 37.1582 58.8036 37.1582 53.2042C37.1582 47.6048 41.7141 43.0488 47.3136 43.0488C52.913 43.0488 57.4689 47.6048 57.4689 53.2042C57.4689 58.8036 52.913 63.3595 47.3136 63.3595ZM47.3136 47.111C43.9537 47.111 41.2203 49.8443 41.2203 53.2042C41.2203 56.5641 43.9537 59.2974 47.3136 59.2974C50.6735 59.2974 53.4068 56.5641 53.4068 53.2042C53.4068 49.8443 50.6735 47.111 47.3136 47.111Z" fill="#868491"/>
<path d="M71.6866 63.3595C66.0872 63.3595 61.5312 58.8036 61.5312 53.2042C61.5312 47.6048 66.0872 43.0488 71.6866 43.0488C77.286 43.0488 81.842 47.6048 81.842 53.2042C81.842 58.8036 77.286 63.3595 71.6866 63.3595ZM71.6866 47.111C68.3267 47.111 65.5934 49.8443 65.5934 53.2042C65.5934 56.5641 68.3267 59.2974 71.6866 59.2974C75.0465 59.2974 77.7798 56.5641 77.7798 53.2042C77.7798 49.8443 75.0465 47.111 71.6866 47.111Z" fill="#868491"/>
<path d="M20.9089 130.385V116.804C20.9089 111.921 19.0068 107.331 15.5555 103.88L8.05092 96.375C6.97445 97.2171 6.00182 98.17 5.14648 99.2147L12.6835 106.752C15.3691 109.437 16.8467 113.008 16.8467 116.804V130.385L20.9089 130.385Z" fill="#7E5C62"/>
<path d="M110.948 96.375L103.443 103.88C99.9899 107.331 98.0898 111.921 98.0898 116.804V130.385H102.152V116.804C102.152 113.007 103.63 109.437 106.315 106.751L113.852 99.2142C112.997 98.17 112.024 97.2174 110.948 96.375Z" fill="#7E5C62"/>
</svg>
