<svg width="22" height="22" viewBox="0 0 22 22" fill="none" xmlns="http://www.w3.org/2000/svg">
<path d="M11.6538 13.8697H10.3654L10.1154 7H11.9038L11.6538 13.8697ZM11 17C10.7179 17 10.4808 16.9292 10.2885 16.7875C10.0962 16.6459 10 16.4712 10 16.2635C10 16.0557 10.0962 15.881 10.2885 15.7394C10.4808 15.5977 10.7179 15.5269 11 15.5269C11.2821 15.5269 11.5192 15.5977 11.7115 15.7394C11.9038 15.881 12 16.0557 12 16.2635C12 16.4712 11.9038 16.6459 11.7115 16.7875C11.5192 16.9292 11.2821 17 11 17Z" fill="#EF202F"/>
<path fill-rule="evenodd" clip-rule="evenodd" d="M12.3098 1.78632C11.7701 0.706651 10.2298 0.706651 9.69017 1.78632L1.13404 18.9035C0.647191 19.8775 1.35524 21.0234 2.44387 21.0234H19.5561C20.6448 21.0234 21.3528 19.8775 20.866 18.9035L12.3098 1.78632ZM8.81695 1.34958C9.71642 -0.449861 12.2836 -0.449861 13.183 1.34958L21.7392 18.4667C22.5506 20.09 21.3705 22 19.5561 22H2.44387C0.629484 22 -0.550597 20.09 0.260823 18.4667L8.81695 1.34958Z" fill="#EF202F"/>
</svg>
