<svg xmlns="http://www.w3.org/2000/svg" width="20" height="15" viewBox="0 0 20 15"><path fill="#595959" d="M4.35 10.67c-.44 0-.83-.26-.97-.66l-2.32-6.2a.93.93 0 0 1 .12-.9c.2-.25.51-.4.85-.4h12.38l.36-1.01A2.41 2.41 0 0 1 16.96 0h2.01A1 1 0 0 1 20 1a1 1 0 0 1-1.03.98h-2.01c-.07 0-.2.1-.23.16L13.93 10a1 1 0 0 1-.75.64 1.07 1.07 0 0 1-.26.03zm-.86-6.2L5.08 8.7h7.13l1.5-4.23zM4.7 15c-.99 0-1.8-.77-1.8-1.72 0-.94.81-1.7 1.8-1.7s1.8.76 1.8 1.7c0 .95-.81 1.72-1.8 1.72zm8.57 0c-1 0-1.8-.77-1.8-1.72 0-.94.8-1.7 1.8-1.7.99 0 1.8.76 1.8 1.7 0 .95-.81 1.72-1.8 1.72z"/></svg>