<svg xmlns="http://www.w3.org/2000/svg" xmlns:xlink="http://www.w3.org/1999/xlink" viewBox="0 0 515.32 246.99"><defs><style>.cls-1{fill:#a77543;}.cls-2{fill:#e5d9b6;}.cls-3{fill:#c19a71;}.cls-4{fill:#a16e36;}.cls-5{fill:#bb9360;}.cls-6{fill:#d3bfa2;}.cls-7{fill:#c9a37a;}.cls-8{isolation:isolate;}.cls-9{clip-path:url(#clip-path);}.cls-10{fill:#b78055;}.cls-10,.cls-13,.cls-19,.cls-22,.cls-25,.cls-30{fill-rule:evenodd;}.cls-11,.cls-20,.cls-28{opacity:0.4;mix-blend-mode:multiply;}.cls-11{fill:url(#linear-gradient);}.cls-12{clip-path:url(#clip-path-2);}.cls-13,.cls-33{fill:#d3b593;}.cls-14{clip-path:url(#clip-path-3);}.cls-15{fill:#a58052;}.cls-16,.cls-23{opacity:0.7;}.cls-16,.cls-23,.cls-31,.cls-34{mix-blend-mode:soft-light;}.cls-16{fill:url(#linear-gradient-2);}.cls-17{fill:#492c1d;}.cls-18{clip-path:url(#clip-path-4);}.cls-19,.cls-27{fill:#b27e4b;}.cls-20{fill:url(#linear-gradient-3);}.cls-21{clip-path:url(#clip-path-5);}.cls-22{fill:#ceab88;}.cls-23{fill:url(#linear-gradient-4);}.cls-24{clip-path:url(#clip-path-6);}.cls-25{fill:#bf9e77;}.cls-26{clip-path:url(#clip-path-7);}.cls-28{fill:url(#linear-gradient-5);}.cls-29{clip-path:url(#clip-path-8);}.cls-30{fill:#bc9074;}.cls-31{fill:url(#linear-gradient-6);}.cls-32{clip-path:url(#clip-path-9);}.cls-34{fill:url(#linear-gradient-7);}</style><clipPath id="clip-path"><polygon id="_Обтравочный_контур_" data-name="&lt;Обтравочный контур&gt;" class="cls-1" points="7.68 152.04 135.72 205.32 135.72 243.22 7.68 184.25 7.68 152.04"/></clipPath><linearGradient id="linear-gradient" x1="7.68" y1="197.63" x2="135.71" y2="197.63" gradientUnits="userSpaceOnUse"><stop offset="0" stop-color="#fff"/><stop offset="0.47" stop-color="#cebcaf"/><stop offset="1" stop-color="#997458"/></linearGradient><clipPath id="clip-path-2"><polygon id="_Обтравочный_контур_2" data-name="&lt;Обтравочный контур&gt;" class="cls-2" points="383.62 46.78 499.88 68.44 135.72 205.32 7.68 152.04 383.62 46.78"/></clipPath><clipPath id="clip-path-3"><polygon id="_Обтравочный_контур_3" data-name="&lt;Обтравочный контур&gt;" class="cls-3" points="499.88 68.44 135.72 205.32 135.72 243.22 499.88 93.8 499.88 68.44"/></clipPath><linearGradient id="linear-gradient-2" x1="135.71" y1="155.83" x2="499.88" y2="155.83" gradientUnits="userSpaceOnUse"><stop offset="0" stop-color="#644939"/><stop offset="0.61" stop-color="#b2a084"/><stop offset="1" stop-color="#e5d9b6"/></linearGradient><clipPath id="clip-path-4"><polygon id="_Обтравочный_контур_4" data-name="&lt;Обтравочный контур&gt;" class="cls-4" points="45.14 129.85 125.06 159.99 125.06 191.98 45.14 158.69 45.14 129.85"/></clipPath><linearGradient id="linear-gradient-3" x1="45.14" y1="160.92" x2="125.06" y2="160.92" xlink:href="#linear-gradient"/><clipPath id="clip-path-5"><polygon id="_Обтравочный_контур_5" data-name="&lt;Обтравочный контур&gt;" class="cls-5" points="489.35 40.15 125.06 159.99 125.06 191.98 489.35 61.66 489.35 40.15"/></clipPath><linearGradient id="linear-gradient-4" x1="125.06" y1="116.07" x2="489.35" y2="116.07" gradientUnits="userSpaceOnUse"><stop offset="0" stop-color="#e5d9b6"/><stop offset="0.15" stop-color="#c8b798"/><stop offset="0.41" stop-color="#998167"/><stop offset="0.63" stop-color="#775a43"/><stop offset="0.81" stop-color="#62422d"/><stop offset="0.92" stop-color="#5a3925"/></linearGradient><clipPath id="clip-path-6"><polygon id="_Обтравочный_контур_6" data-name="&lt;Обтравочный контур&gt;" class="cls-6" points="417.48 27.95 489.35 40.15 125.06 159.99 45.46 129.97 417.48 27.95"/></clipPath><clipPath id="clip-path-7"><polygon id="_Обтравочный_контур_7" data-name="&lt;Обтравочный контур&gt;" class="cls-1" points="71.74 93.26 128.21 118.5 128.21 144.74 71.74 117.16 71.74 93.26"/></clipPath><linearGradient id="linear-gradient-5" x1="71.74" y1="119" x2="128.2" y2="119" xlink:href="#linear-gradient"/><clipPath id="clip-path-8"><polygon id="_Обтравочный_контур_8" data-name="&lt;Обтравочный контур&gt;" class="cls-7" points="502.36 19.63 128.21 118.74 128.21 144.74 502.36 40.55 502.36 19.63"/></clipPath><linearGradient id="linear-gradient-6" x1="128.2" y1="83.29" x2="502.36" y2="83.29" xlink:href="#linear-gradient-2"/><clipPath id="clip-path-9"><polygon id="_Обтравочный_контур_9" data-name="&lt;Обтравочный контур&gt;" class="cls-2" points="448.6 3.22 502.36 19.63 128.21 118.5 73 93.69 448.6 3.22"/></clipPath><linearGradient id="linear-gradient-7" x1="73" y1="60.86" x2="502.36" y2="60.86" gradientUnits="userSpaceOnUse"><stop offset="0" stop-color="#997458"/><stop offset="0.53" stop-color="#cebcaf"/><stop offset="1" stop-color="#fff"/></linearGradient></defs><title>calc-1</title><g class="cls-8"><g id="Слой_2" data-name="Слой 2"><g id="lumber"><polygon id="_Обтравочный_контур_10" data-name="&lt;Обтравочный контур&gt;" class="cls-1" points="7.68 152.04 135.72 205.32 135.72 243.22 7.68 184.25 7.68 152.04"/><g class="cls-9"><path class="cls-10" d="M29.72,156.25l-.21-.08.67,44.35.21.09Q30.06,178.41,29.72,156.25Z"/><path class="cls-10" d="M23.06,192.71l0,.08,0-.1Z"/><path class="cls-10" d="M23.47,194.9a8.28,8.28,0,0,0-.39-2.11,11.89,11.89,0,0,0-.22,2.13l0,2.33.62.28Q23.49,196.21,23.47,194.9Z"/><path class="cls-10" d="M14.83,150.49l-.31-.12q.33,21.71.66,43.41l.33.15Q15.17,172.21,14.83,150.49Z"/><path class="cls-10" d="M20,152.49q.33,21.88.66,43.75l.8.36q-.19-21.85-.3-43.66Z"/><path class="cls-10" d="M17.58,151.55l-1.24-.48q-.14,11.08-.23,22.18,0,10.48,0,21l2.11.95Q17.92,173.37,17.58,151.55Z"/><path class="cls-10" d="M44.34,192.92h-.56q.11,6.89.21,13.78l.57.26Q44.45,200,44.34,192.92Z"/><path class="cls-10" d="M48,163.31l-.46-.18.73,45.5.46.21Q48.35,186.07,48,163.31Z"/><path class="cls-10" d="M31.37,192.09c.15,0,.16.09.32.13q-.22-14.24-.43-28.47h-.31Q31.15,177.92,31.37,192.09Z"/><path class="cls-10" d="M41.91,190.92c0-3.63.46-7.26.4-10.88q-.11-9.51-.27-19l-1.84-.71q.14,22.42.27,44.84l1.42.64a46.74,46.74,0,0,0,.73-5.65C42.68,197,41.94,194,41.91,190.92Z"/><path class="cls-10" d="M7.22,147.55l-.77-.3c.28,14.31.54,28.62.71,42.93l.77.35Q7.58,169,7.22,147.55Z"/><path class="cls-10" d="M33.67,169.54c-.06-4-.18-7.92-.31-11.89l-1.12-.43c.05,4.69.07,9.37,0,14-.21,10.09.25,20.2.3,30.32l1.16.52C33.73,191.24,33.82,180.42,33.67,169.54Z"/><path class="cls-10" d="M3,145.9c.18,12.31.33,24.61.52,36.91,0,2,.06,3.87.11,5.77l1.79.8Q5,168,4.72,146.58Z"/><path class="cls-10" d="M37.4,159.22l-.4-.15q.21,13.69.42,27.41a8.09,8.09,0,0,1-.68-3.07,2.86,2.86,0,0,0-.18-.52c-.23-.51-.58-1-.81-1.52,0,0,0-.06,0-.09s0-.32,0-.48q.52-8.65,1-17.29l-1.15,0q0,2.7.08,5.29c.05,4,0,7.94,0,12l0,.58h0l0,.08c.2,7.3.36,14.57.5,21.85l1.86.83Q37.75,181.65,37.4,159.22Z"/><path class="cls-10" d="M94.14,181.17q.37,24.22.74,48.41l1,.47q-.28-24.19-.55-48.41Z"/><path class="cls-10" d="M79.58,212.37a9.34,9.34,0,0,0-.39-2.11v-.08h0c-.6-7.6-1.2-15.17-1.87-23.53.18,12.08.36,23.73.54,35.26l.43.2c0-2.95,0-5.89,0-8.86a2.68,2.68,0,0,1,0-.37l0-.08c0-.1,0-.2.06-.3v0c.2-.72.59-1.45.81-2.22h0a9.19,9.19,0,0,0-.21,1.86c0,3.46.11,6.93.16,10.39l.62.28C79.69,219.31,79.64,215.85,79.58,212.37Z"/><path class="cls-10" d="M2.79,170h-1Q1.91,179,2,187.88l1,.46Q2.93,179.19,2.79,170Z"/><path class="cls-10" d="M9.34,148.37l-1-.37q.34,21.52.69,43l.95.42Q9.68,169.91,9.34,148.37Z"/><path class="cls-10" d="M50.9,173.89l.78,0-.14-9.24-.79-.31Q50.83,169.14,50.9,173.89Z"/><path class="cls-10" d="M1.1,168.85c.42-7.24.83-14.37,1.18-21.51,0-.71,0-1.81-.35-1.84L0,162.39q.06,3.76.12,7.55C.81,169.24,1.09,169,1.1,168.85Z"/><path class="cls-10" d="M11,150.64h.21l0-1.54L11,149Q11,149.82,11,150.64Z"/><path class="cls-10" d="M.38,175.24c.06,4,.12,8,.18,12l.55.25Q1,181.35.93,175.21Z"/><path class="cls-10" d="M117.39,227.37a.86.86,0,0,1,.32.14c-.08-5.56-.16-11.12-.25-16.64h-.32C117.23,216.38,117.31,221.86,117.39,227.37Z"/><path class="cls-10" d="M111.53,187.89l-.76-.29q.38,24.72.75,49.46l.77.35Q111.92,212.65,111.53,187.89Z"/><path class="cls-10" d="M105.36,185.5q.38,24.58.79,49.13l.56.25c-.53-16.4-.79-32.81-.92-49.22Z"/><path class="cls-10" d="M104,188.12c0-1.06,0-2.11-.07-3.17l-2.78-1.08c.17,5.29.87,10.58.81,15.9,0,3.83,1.21,7.6-1,11.49-.76,1.39.76,3.55,1,5.4s.75,3.73,0,5.22c-1.27,2.42-.65,4.38.11,6.78a16.18,16.18,0,0,1,.52,4.38l2.51,1.13Q104.54,211.13,104,188.12Z"/><path class="cls-10" d="M96.88,215.79s.17.07.33.06c-.18-11.23-.35-22.49-.52-33.7l-.35-.13Q96.61,198.85,96.88,215.79Z"/><path class="cls-10" d="M109.75,233.25H110q-.37-23.12-.74-46.24l-.21-.08Q109.39,210.06,109.75,233.25Z"/><path class="cls-10" d="M131.3,221.24h.92q-.21-12.75-.41-25.5l-.92-.36Q131.09,208.3,131.3,221.24Z"/><path class="cls-10" d="M114.65,221.19H115c-.11-7.35-.22-14.71-.34-22.13-.16,0-.17-.09-.32-.14C114.42,206.38,114.54,213.83,114.65,221.19Z"/><path class="cls-10" d="M133.63,246.88a2.44,2.44,0,0,0-.32-.09s0,0,0,.06l.32.14S133.63,246.91,133.63,246.88Z"/><path class="cls-10" d="M129.55,228.69h-.42q.13,8.19.26,16.39l.41.18Q129.67,237,129.55,228.69Z"/><path class="cls-10" d="M92.87,191.51l.42.1q-.09-5.42-.17-10.84l-.42-.16Q92.79,186.06,92.87,191.51Z"/><path class="cls-10" d="M72,178.08c0-1.08,0-2.06,0-3h-.92q.35,22.07.71,44.15l.92.41C72.41,205.79,72.24,191.89,72,178.08Z"/><path class="cls-10" d="M91.86,217.37q.08,5.43.17,10.93l.32.14q-.08-5.56-.17-11.08Z"/><path class="cls-10" d="M53.37,165.39l-.32-.12q.35,22.91.7,45.83l.32.14Q53.72,188.34,53.37,165.39Z"/><path class="cls-10" d="M75.89,174.1l-1.07-.41c.12,7.38.22,14.76.26,22.13,0,3.58.14,7.15.16,10.74q0,7.12.07,14.22l1.3.58Q76.25,197.73,75.89,174.1Z"/><path class="cls-10" d="M73.74,209.8c-.19-12.28-.37-24.5-.56-36.75l-.33-.12c.2,12.29.39,24.56.59,36.88Z"/><path class="cls-10" d="M68.39,203.63h.38q-.26-16.28-.52-32.47L67.9,171Q68.14,187.3,68.39,203.63Z"/><path class="cls-10" d="M49.5,199.52h-.32q.07,4.78.15,9.6l.32.14Q49.58,204.38,49.5,199.52Z"/><path class="cls-10" d="M81.78,216h.43c.24-4.86.72-9.84.71-14.71,0-3.74-.67-7.48-.77-11.24q-.18-6.85-.35-13.69l-.63-.24Q81.47,196.12,81.78,216Z"/><path class="cls-10" d="M90.4,179.72l-.95-.37q.29,18.29.57,36.57h-.46c-.19-12.28-.39-24.5-.58-36.76l-1.38-.54c.09,5.47.18,10.93.26,16.44.17,10.51.22,21,.42,31.54l2.88,1.29Q90.77,203.81,90.4,179.72Z"/><path class="cls-10" d="M80.86,191.61q-.12-7.84-.24-15.68L80,175.7l.24,15.92Z"/></g><polygon id="_Контур_" data-name="&lt;Контур&gt;" class="cls-11" points="7.68 152.04 135.72 205.32 135.72 243.22 7.68 184.25 7.68 152.04"/><polygon id="_Обтравочный_контур_11" data-name="&lt;Обтравочный контур&gt;" class="cls-2" points="383.62 46.78 499.88 68.44 135.72 205.32 7.68 152.04 383.62 46.78"/><g class="cls-12"><path class="cls-13" d="M252.12,128.65a.73.73,0,0,0,.18-.32l-93.68,31.38a1.37,1.37,0,0,0,.14.24Z"/><path class="cls-13" d="M338.54,108.25l.15-.37L301.37,120.4c0,.07.09.16.14.26Z"/><path class="cls-13" d="M315.69,64.58l-51.8,17.35a.84.84,0,0,1,.09.13l51.79-17.35A.7.7,0,0,1,315.69,64.58Z"/><path class="cls-13" d="M126.9,144.14c33.44-11.07,66.73-21.88,100.13-33.06,28.49-9.53,56.92-19.45,85.28-29.08,24.67-8.3,49.4-16.49,74.06-24.85q17.78-6,35.58-12l-1.6-.4L389.2,55.17c-28.07,9.48-56,19.18-84.06,28.7-27.38,9.28-55,18.67-82.55,27.6-37.33,12.07-74.25,25.28-112,36.78C86.21,155.7,62,163.69,37.86,171.82l2,.84,16.66-5.44a45.06,45.06,0,0,1,5.32-1.06l-.83.3,1-.32h0c2.52-.94,4.79-1.83,7.1-2.6C88.29,157.09,107.67,150.57,126.9,144.14Z"/><path class="cls-13" d="M123.3,157.16a1.29,1.29,0,0,1,.08.21l38.9-13-.11-.21Z"/><path class="cls-13" d="M84.36,145q150.87-50.56,302-101.23l-.08-.17-302,101.18A1.38,1.38,0,0,1,84.36,145Z"/><path class="cls-13" d="M145.94,167.92l108.19-36.25-.11-.22L145.84,167.73Z"/><path class="cls-13" d="M439.7,50.92c-.09-.18-.14-.27-.23-.45L387.59,67.85l.24.45Z"/><path class="cls-13" d="M41.46,173.3,45.29,172c5.45-1.84,10.61-3.7,15.77-5.55L41,173.1Z"/><path class="cls-13" d="M448.3,51.72l-.33-.08L417,62a.87.87,0,0,1,.1.15Z"/><path class="cls-13" d="M396.91,58.1c6.57-2.07,13.29-4.13,20-6.37q6.63-2.25,13.27-4.55l-1.59-.4-25.83,8.66A59.12,59.12,0,0,0,396.91,58.1Z"/><path class="cls-13" d="M394.94,58.79l1.79-.6h0l.17-.08-.25.08Z"/><path class="cls-13" d="M365.63,68.92c9.89-3.34,19.52-6.72,29.31-10.13L342.78,76.26C350.49,74,358.07,71.47,365.63,68.92Z"/><path class="cls-13" d="M218.45,89.48c17-5.28,33.67-10.5,50.37-15.74,1.67-.52,4.23-1.4,4.16-1.64,1.31-3,7.06-3.57,10.52-4.81,6.56-2.29,13.12-4,19.64-6.13,7.87-2.51,15.73-5.33,23.72-7.85,9.27-3,18.6-5.85,28-8.68-.07-.24-.1-.39-.16-.61-3.47,1.12-7,2.17-10.45,3.22,0,0,0-.09,0-.16l-14.39,4.33L215.59,89.69A19,19,0,0,0,218.45,89.48Z"/><path class="cls-13" d="M311.92,143.46l.21-.06h0l0,0-.13,0Z"/><path class="cls-13" d="M217.33,175c-.86.28-1.67.66-2.51,1a9.38,9.38,0,0,0,2.73-.59c29.68-9.94,59.62-20,89.54-30,1.65-.55,3.24-1.23,4.82-1.89-1.44.39-3,.83-4.44,1.32C277.52,154.8,247.29,164.93,217.33,175Z"/><path class="cls-13" d="M314,142a7.82,7.82,0,0,0-1.83,1.33c6.38-1.87,13-3.51,19.31-5.63l5.92-2L352.65,130l-12.15,4.07c-.08-.16-.12-.25-.2-.38l10.07-3.37C338,134,326,138,314,142Z"/><path class="cls-13" d="M279.5,151.27,118.78,205.12l.77.32,160.2-53.7C279.66,151.57,279.6,151.45,279.5,151.27Z"/><path class="cls-13" d="M64.76,175.77,55.22,179l.31.13L64.87,176A.72.72,0,0,1,64.76,175.77Z"/><path class="cls-13" d="M366.29,59.78l48.79-16.35L414,43.16c-16.11,5.38-32.2,10.78-48,16.08Z"/><path class="cls-13" d="M366.44,120.21q-34,11.49-68.1,22.85c-10,3.34-19.68,6.64-29.7,9.87-9.18,2.93-18.4,5.7-27.59,8.58l.24.72,10-3.35c0,.16.07.32.11.51L117,204.4l.23.1Q285.74,148,454.24,91.55l18.59-7c-20,6.63-40.19,13-60.21,19.71C397.24,109.35,381.92,114.95,366.44,120.21Z"/><path class="cls-13" d="M234.22,155.65l-95,31.83c-.09,0-.09.16,0,.26l95.11-31.86A2.15,2.15,0,0,0,234.22,155.65Z"/><path class="cls-13" d="M303,131l-38.62,12.94a.46.46,0,0,1-.11.3l38.83-13A.75.75,0,0,0,303,131Z"/><path class="cls-13" d="M219.17,142.46l7.05-2.37-.31-.58L79,188.76l1,.43q18.23-6.18,36.5-12.33C150.67,165.37,185,153.9,219.17,142.46Z"/><path class="cls-13" d="M183.73,186.13c.05-.14.16-.18.22-.31l-51.67,17.31.12.2Z"/><path class="cls-13" d="M504.1,72.68l11.23-4.25-.84-.21q-40.59,13.4-81.07,26.89c-26.94,9-53.81,18.45-80.84,27.58-12.76,4.32-25.75,8.16-38.46,12.39-10.19,3.39-20.14,7.24-30.31,10.66q-85.34,28.67-170.44,57.15l.47.2C243.62,159.09,374.43,116.94,504.1,72.68Z"/><path class="cls-13" d="M134,185.45,99.27,197.09l.32.13,34.54-11.57Z"/><path class="cls-13" d="M438,49.14,248,112.82l.07.13,190.2-63.72Z"/><path class="cls-13" d="M186.74,101.74c-6.73,2.26-13.23,4.41-19.67,6.64a43.3,43.3,0,0,0-4.34,2.14c.34.16.63.21.91.32q111.28-37.31,222.58-74.6l-2.49-.62q-25.87,8.74-51.79,17.46Q259.34,77.57,186.74,101.74Z"/><path class="cls-13" d="M128.07,122c-38.62,13-77.15,26.15-115.89,39.22l.61.25,134.75-45.14C141,118.07,134.47,119.87,128.07,122Z"/><path class="cls-13" d="M95,139.68l-.34-.66L19.43,164.23l1,.42Z"/><path class="cls-13" d="M5.33,158.43l42.75-14.33c-11.44,3.13-22.87,6.42-33.91,10.28Q9.07,156.14,4,157.87Z"/><path class="cls-13" d="M105.53,123.09l52.79-17.7a1.62,1.62,0,0,0,.21-.37l-53.15,17.8C105.43,122.92,105.49,123,105.53,123.09Z"/><path class="cls-13" d="M135.26,115.52l.09.15,37.59-12.59-.1-.16Z"/><path class="cls-13" d="M203.6,94.25c-.09-.14-.15-.21-.24-.33l-54.43,18.24c.12.12.2.17.34.3Z"/><path class="cls-13" d="M334.14,60c.09.13.16.18.25.29l3.07-1,60.16-20.16-.87-.22L337.83,58.62C336.67,59,335.26,59.53,334.14,60Z"/><path class="cls-13" d="M228.64,173.13c.1.19.16.31.24.49l74.66-25,12.6-4.77Z"/><path class="cls-13" d="M380.76,116.79l.3.51,44.65-15L439.92,97Z"/><path class="cls-13" d="M96.77,143l-71,23.8.95.39,70.25-23.88Z"/><path class="cls-13" d="M157,196.83l-32.2,10.78.32.13,32-10.71Z"/><path class="cls-13" d="M215.87,90.84,9.27,160.05l1.05.43,205.89-69Z"/><path class="cls-13" d="M66.93,180.53c0-.11-.16-.31-.21-.41l-4.8,1.61.65.27Z"/><path class="cls-13" d="M494.55,63.25q-178.8,59.91-357.74,119.89l-.16-.3L245,146.52l-.46-.88-60,20.11c-29.67,9.95-59.41,19.8-89,29.82l2.83,1.16q198.69-66.6,397.4-133.17Z"/><path class="cls-13" d="M30.76,168.9Q97.82,146.44,164.89,124c1.64-.55,3.22-1.22,4.81-1.88-1.7.47-3.4,1-5,1.5L30.14,168.64Z"/><path class="cls-13" d="M294.23,85.6,61.64,163.52c0,.07,0,.07.07.13L294.3,85.73Z"/><path class="cls-13" d="M169.85,122l-.15.06.21-.06Z"/><path class="cls-13" d="M173.67,127.21l66.05-22.13-.11-.2-65.74,22C173.82,127,173.72,127.08,173.67,127.21Z"/><path class="cls-13" d="M29,162.23l.12.21L164.83,117a2.3,2.3,0,0,0-.11-.21Z"/><path class="cls-13" d="M48.66,145,6.73,159l.41.17,41.66-14C48.77,145.16,48.72,145.06,48.66,145Z"/><path class="cls-13" d="M22.32,165.43l3.17,1.3q153.64-51.47,307.43-103c-1,.21-1.56.23-2.24.45Q271.89,83.29,212.9,102.58c-49.39,16.26-98.68,32.74-148.07,49-14,4.61-27.89,8.91-41.89,13.59Z"/><path class="cls-13" d="M474.36,58.22,396.3,84.37l.07.12,78.25-26.21Z"/><path class="cls-13" d="M387.15,37.82l-.23-.48,1.59-.53-.2,0C263.39,78.51,138.8,121.13,13.05,161.61l2.12.87Q162,113.38,308.68,64.08C314.92,62,321,59.43,327.12,57.4c8.49-2.82,17.11-5.4,25.68-8.07,1.11-.34,2.45-.68,3.49-1,.11.25.19.42.28.59L16.35,163l.93.38Q204.7,100.52,392.14,37.71L389.46,37Z"/><path class="cls-13" d="M146.75,171.72l-.19.08.21-.06Z"/><path class="cls-13" d="M194.42,158.22Q298.09,123.1,402.09,88l6.62-2.22a1.69,1.69,0,0,1-.14-.2L273,131a2.94,2.94,0,0,0-.16-.26L284,127a2.15,2.15,0,0,1-.15-.23l-93.62,31.37c.08.14.12.23.2.39l66-22.12.17.35L134,177.91a2.65,2.65,0,0,1,.15.28c11.38-3.58,23.09-7.09,34.41-10.83C177.22,164.45,185.73,161.17,194.42,158.22Z"/><path class="cls-13" d="M141.79,173.67c1.63-.55,3.19-1.21,4.76-1.87-1.57.42-3,.82-4.35,1.28L86.37,191.78,87,192Z"/><path class="cls-13" d="M146.08,176l-54,18.09.31.13,53.79-18Z"/></g><polygon id="_Обтравочный_контур_12" data-name="&lt;Обтравочный контур&gt;" class="cls-3" points="499.88 68.44 135.72 205.32 135.72 243.22 499.88 93.8 499.88 68.44"/><g class="cls-14"><path class="cls-15" d="M469.75,91.2l.13-.05-.13,0S469.75,91.2,469.75,91.2Z"/><path class="cls-15" d="M417.8,120.77l0,.08,85.3-32.6v-.37L420.49,119.6C419.55,120,418.69,120.38,417.8,120.77Z"/><path class="cls-15" d="M183.27,196.64l-27.38,10.46.09.14,27.38-10.47A.56.56,0,0,1,183.27,196.64Z"/><path class="cls-15" d="M491.34,83.12c3.82-1.46,7.68-3,11.52-4.51v-.18c-3.14,1.16-6.27,2.33-9.44,3.55-7.89,3-15.65,6.07-23.54,9.17C477,88.49,484.22,85.84,491.34,83.12Z"/><path class="cls-15" d="M470.86,89.79a1.15,1.15,0,0,0,.14.15l31.85-12.16v0l-19,7.12C479.48,86.46,475.18,88.13,470.86,89.79Z"/><path class="cls-15" d="M293.13,168.27l5-1.9-.25-.41-164.5,62.87v.11l17.28-6.6c-5.64,2.43-11.45,4.71-17.24,7l0,.34Q177,212.82,220.67,196C244.76,186.72,269,177.48,293.13,168.27Z"/><path class="cls-15" d="M316.4,157.16l-66.15,25.26a1.08,1.08,0,0,0,.11.17l65.92-25.2A.52.52,0,0,0,316.4,157.16Z"/><path class="cls-15" d="M317.86,159.51l-.09-.15-76.4,29.2.08.13Z"/><path class="cls-15" d="M150,220.7l-16.81,6.43,0,.21,16.89-6.45Z"/><path class="cls-15" d="M328.69,144.88c-4.55,1.69-9.2,3.5-13.79,5.26l.13.15,35.67-13.62Z"/><path class="cls-15" d="M132.16,218.79l58-22.15,5.82-2.22c-9.74,3.28-18.25,6.05-26.76,9-3.24,1.19-6.44,2.82-9.75,4.09L132.07,218Z"/><path class="cls-15" d="M184.88,199.72l-52.6,20.09,0,.34L185,200Z"/><path class="cls-15" d="M502.4,65.32a4.26,4.26,0,0,1-.17-.41C493,68.24,483.66,71.6,474.32,75c.05.12.16.29.21.4C483.84,72,493.23,68.67,502.4,65.32Z"/><path class="cls-15" d="M235.55,199.92l-.13-.21L312,170.47l-.37-.62L269.24,186c-40.1,15.33-80.4,30.38-119.92,46.6-.84.32-1.81.81-2.6,1.21l.39.39q154.35-59,308.73-117.93L473.47,109Z"/><path class="cls-15" d="M395.27,104.14l.28.38,37.72-14.4c0-.08-.12-.22-.17-.29-1.13.39-2.12.69-3.07,1Z"/><path class="cls-15" d="M130.86,208c15.41-5.82,30.84-11.55,46.13-17.26a32.44,32.44,0,0,1,3.8-.91l-.54.22.64-.24h0c1.77-.75,3.37-1.45,5-2.08,13.55-5.18,27.24-10.43,40.82-15.6,23.62-8.92,47.14-17.65,70.73-26.65,20.12-7.67,40.18-15.63,60.2-23.37,17.42-6.68,34.89-13.28,52.3-20,30.24-11.6,60.54-23.38,90.72-35,.56-.22,1.09-.49,1.89-.85V66a6,6,0,0,0-.83.22q-44.91,17.13-89.81,34.3C392,108.18,372.32,116,352.53,123.61c-19.33,7.46-38.85,15-58.3,22.23-26.38,9.75-52.42,20.32-79.16,29.67-28.28,9.94-56.21,20.94-84.3,31.68Z"/><path class="cls-15" d="M197.34,215.53a.33.33,0,0,0-.13.23l36.52-13.95-.09-.15Z"/><path class="cls-15" d="M304.56,177.36,237.51,203c-.06,0-.06.12,0,.19l67.16-25.65Z"/><path class="cls-15" d="M344.73,125.17,180.49,187.9l.06.09,164.24-62.73Z"/><path class="cls-15" d="M253.17,156.46c1.16-.44,2.27-1,3.39-1.5-1.21.39-2.41.78-3.57,1.23L151.36,195c-.81.31-1.57.63-2.18.93a7.59,7.59,0,0,0,1.94-.49Q202.15,176,253.17,156.46Z"/><path class="cls-15" d="M132.5,208.12c12.41-4.4,24.5-9,36.57-13.64,3.87-1.49,7.51-3,11.17-4.46q-22.06,8.31-44.1,16.68C134.92,207.16,133.7,207.63,132.5,208.12Z"/><path class="cls-15" d="M259.65,158.56l46.65-17.82-.08-.14-46.43,17.73C259.75,158.43,259.68,158.46,259.65,158.56Z"/><path class="cls-15" d="M256.67,154.91l-.1,0,.15,0Z"/><path class="cls-15" d="M406.23,132.12c-9.71,3.73-19.74,7.24-29.57,10.9-22.93,8.62-46,17.24-69,26q-59.49,22.43-118.9,45c-9.28,3.54-18.45,7.36-27.81,11l-26.82,10.41.16,1.37q137.4-52.48,274.74-105l.22.34-36.63,14,.22.36L503.38,96.68l-.06-1.94Q454.76,113.43,406.23,132.12Zm-211,80.41c.06,0,.09-.12.13-.22l46.51-17.77.09.14Z"/><path class="cls-15" d="M353.15,135.73l-2.45.93,2.44-.91S353.15,135.73,353.15,135.73Z"/><path class="cls-15" d="M131.11,210.07h0l0,0Z"/><path class="cls-15" d="M421.62,100.37a41.48,41.48,0,0,0-4.07,2.08c4.65-1.67,9.4-3.35,14.11-5.15,12-4.64,24-9.46,36.09-14.13q17.44-6.73,34.86-13.35v-.39l-2,.76Z"/><path class="cls-15" d="M416.2,103l1.22-.47h0l.12-.06-.17.06Z"/><path class="cls-15" d="M489.41,81.32c4.41-1.67,8.9-3.34,13.39-5v-.5l-13.26,5.06C489.5,81,489.44,81.15,489.41,81.32Z"/><path class="cls-15" d="M439.08,95.22l.15.26,63.42-24.22v-.33Z"/><path class="cls-15" d="M347.15,128.58l-.09-.18-76.52,29.22a44,44,0,0,1,4.88-2.21c1.1-.5,2-1.13,3-1.7-15.63,6-31.13,12-46.8,18-3.42,1.31-6.88,2.26-10.13,3.59-9.06,3.6-18,7.55-27.13,11.06q-31.58,12.1-63.23,24.19l.07.55Z"/><path class="cls-15" d="M192.81,191.91c-4,1.32-29.43,11-61.11,23.06l.09.78C152.26,208,172.77,200.29,192.81,191.91Z"/><path class="cls-15" d="M503.16,89,418.27,121.4l.06.09,84.84-32.4Z"/><path class="cls-15" d="M278.6,153.65h0l1-.37Z"/><path class="cls-15" d="M278.59,153.65l-.13.08.19-.07Z"/><path class="cls-15" d="M307.86,142.58l-8.66,3.31c-6.52,2.49-13,4.91-19.56,7.39l28.46-10.15Z"/><path class="cls-15" d="M395.48,111.12c7-2.69,13.81-5.4,20.73-8.15l-36.88,14.08C384.78,115.21,390.14,113.17,395.48,111.12Z"/><path class="cls-15" d="M447.89,95.75l-36.63,14,.19.32,36.63-14C448,95.94,448,95.88,447.89,95.75Z"/><path class="cls-15" d="M432.22,104.7l.08.11,27.22-10.4a.63.63,0,0,0-.08-.11Z"/><path class="cls-15" d="M312.63,146.09l.06.09L457.42,90.9l-.07-.12Z"/><path class="cls-15" d="M377.69,140.25l.09-.27-26.35,10.07.11.19Z"/><path class="cls-15" d="M234.66,177.41l164.07-62.71-.12-.21L234.47,177.23A.89.89,0,0,0,234.66,177.41Z"/><path class="cls-15" d="M429.37,104.52,294.64,156a3,3,0,0,1,.14.38L429.6,104.9Z"/><path class="cls-15" d="M238.72,193c1.15-.44,2.24-1,3.34-1.48-1.1.35-2.1.67-3.07,1q-31.41,12-62.81,24c-.6.23-1.19.49-1.76.78a8.16,8.16,0,0,0,1.95-.5C197.1,208.86,217.84,200.95,238.72,193Z"/><path class="cls-15" d="M224.73,181.72l27.47-10.49-.09-.14-27.45,10.48A1.34,1.34,0,0,1,224.73,181.72Z"/><path class="cls-15" d="M257.72,187.64c6.13-2.33,12.12-4.94,18.26-7.31q73.19-28.24,146.63-56.46l4.67-1.79-.11-.14-95.75,36.57-.12-.18,7.92-3-.12-.16L273,180.42c.06.1.1.16.16.27l46.64-17.81.13.25-86.65,33.1a1.48,1.48,0,0,1,.12.19C241.44,193.52,249.73,190.66,257.72,187.64Z"/><path class="cls-15" d="M242.21,191.41l-.15.07.17-.05Z"/><path class="cls-15" d="M167.74,205.92l153.87-58.77a.23.23,0,0,0,0-.17l-153.94,58.8Z"/><path class="cls-15" d="M191,210.12,133.75,232l0,.17,57.3-21.89Z"/></g><polygon id="_Контур_2" data-name="&lt;Контур&gt;" class="cls-16" points="499.88 68.44 135.72 205.32 135.72 243.22 499.88 93.8 499.88 68.44"/><polygon class="cls-17" points="125.06 160.7 45.14 130.56 45.14 158.85 125.06 192.69 489.35 61.66 489.35 40.86 125.06 160.7"/><polygon id="_Обтравочный_контур_13" data-name="&lt;Обтравочный контур&gt;" class="cls-4" points="45.14 129.85 125.06 159.99 125.06 191.98 45.14 158.69 45.14 129.85"/><g class="cls-18"><path class="cls-19" d="M59.29,172.54q.32-5.3.63-10.59l-.95,0q0,2.23.07,4.35c0,1.65,0,3.3,0,4.95,0,.41,0,.83,0,1.24Z"/><path class="cls-19" d="M63.76,128.75l-1.23-.43q.15,22.75.29,45.5l1.63.59c-.17-13.71-.41-27.43-.62-41.16C63.81,131.75,63.78,130.25,63.76,128.75Z"/><path class="cls-19" d="M60.18,142.41h-.32c.15,10.19.31,20.34.46,30.51l.34.12Q60.42,157.72,60.18,142.41Z"/><path class="cls-19" d="M66.86,160.75H67q-.24-15.5-.47-31l-.19-.07Q66.62,145.21,66.86,160.75Z"/><path class="cls-19" d="M68.65,130.45l-.38-.13q.36,22.85.73,45.73l.38.14Q69,153.29,68.65,130.45Z"/><path class="cls-19" d="M83.79,135.73l-.75-.26q.08,5.18.16,10.37h-.37q-.08-5.26-.16-10.5l-1.38-.48q.15,7.31.29,14.63c0,.6.06,1.64.28,1.71,2.19.45,1.48,1.78,1.47,2.79-.25,5.24-.87,10.39-.85,15.63,0,3.81.21,7.63.39,11.44l1.64.59Q84.16,158.69,83.79,135.73Z"/><path class="cls-19" d="M73.21,157.24l.31,20.44.26.09q-.16-10.25-.31-20.51A1.1,1.1,0,0,0,73.21,157.24Z"/><path class="cls-19" d="M55.36,162.14h-.26q.07,4.46.13,8.93l.26.09Q55.43,166.66,55.36,162.14Z"/><path class="cls-19" d="M71.55,170.49l.64,0-.59-39-.67-.23Q71.24,150.86,71.55,170.49Z"/><path class="cls-19" d="M53.9,142.62h-.17q.21,14,.43,28.07l.17.06Q54.12,156.68,53.9,142.62Z"/><path class="cls-19" d="M97.27,183.83Q96.69,162,96.2,140.06l-.53-.19q.12,8,.24,15.95h-.34c0-1.3,0-2.68-.06-4h-.3q.26,16.62.51,33.22h.5q-.18-11.72-.36-23.43h.45q.18,12.21.37,24.39l.74.27C97.35,185.48,97.3,184.66,97.27,183.83Z"/><path class="cls-19" d="M108,166.6h-1q.18,11.65.36,23.29l1,.35q-.12-10.45-.24-20.9C108.07,168.43,108.05,167.51,108,166.6Z"/><path class="cls-19" d="M89.49,161.67q.18,11,.35,21.9l.26.09q-.17-11-.34-22Z"/><path class="cls-19" d="M56.33,136.57c-.07-3.49-.11-7-.16-10.48l-.86-.3c.17,4.41.35,8.82.47,13.24.27,9.73.55,19.56.39,29.29,0,1,0,2.06,0,3.09l1.24.45c0-1.65,0-3.3,0-4.95C57.22,156.8,56.63,146.65,56.33,136.57Z"/><path class="cls-19" d="M126,175.58h.62q-.2-12.52-.4-25l-.6-.21Z"/><path class="cls-19" d="M38.89,151.34c-.09-6.11-.18-12.22-.28-18.38h-.17c.1,6.16.19,12.27.28,18.38Z"/><path class="cls-19" d="M41.36,120.93l-.23-.08.69,45.38.26.1Q41.72,143.62,41.36,120.93Z"/><path class="cls-19" d="M39.92,125.32a7.22,7.22,0,0,0,.15,1.33l.41,0c0-.36,0-.7,0-1.09q0-2.47-.08-4.93l-.54-.19Z"/><path class="cls-19" d="M33.43,142.18l-1.25,12.11q.06,4.26.12,8.51l1.46.53Q33.59,152.75,33.43,142.18Z"/><path class="cls-19" d="M133.88,169.87h.59q-.13-8.28-.27-16.55l-.58-.2Q133.75,161.48,133.88,169.87Z"/><path class="cls-19" d="M115.38,146.75c.2,2.64.54,5.29.59,7.93q.35,19.3.63,38.55l.29.1c-.21-15.39-.26-30.78-.31-46.17Z"/><path class="cls-19" d="M106.1,185l.35.08q-.34-20.84-.67-41.68l-.32-.11Q105.79,164.14,106.1,185Z"/><path class="cls-19" d="M108.87,171.29q.16,9.59.31,19.26l.28.1q-.15-9.7-.29-19.36Z"/><path class="cls-19" d="M106.69,146.66c.07,4.51.14,9.11.21,13.71a.9.9,0,0,1,.29.08c-.07-4.62-.15-9.24-.22-13.78Z"/><path class="cls-19" d="M115.26,182.21c-.2-8.25-.26-16.43-.39-24.69-.05-3.66-.08-7.33-.13-11l-2-.69c.13,2.68.25,5.36.29,8,.11,7.78-.25,15.61-.18,23.43,0,4.82.76,9.64.7,14.5,0,.11,0,.22,0,.34l1.93.7Q115.38,187.53,115.26,182.21Z"/><path class="cls-19" d="M118.25,147.75l0,2.11c0,3.54.16,7,.07,10.53-.11,3.24-.41,6.46-.58,9.69l.88,0c0-1.18,0-2.37-.06-3.55l.6,0q.21,13.84.42,27.72l.18.07q-.37-23.18-.73-46.35Z"/><path class="cls-19" d="M137.62,154.5l-.76-.27.17,10.64.7-3.83Q137.67,157.78,137.62,154.5Z"/><path class="cls-19" d="M124,191.21c-.13,0-.14-.08-.26-.11q0,2.38.07,4.75l.26.09C124.07,194.36,124,192.79,124,191.21Z"/><path class="cls-19" d="M121.07,156.81h-.61q.29,19,.58,38l.63.23Q121.38,175.95,121.07,156.81Z"/><path class="cls-19" d="M124.12,180.21a1.1,1.1,0,0,0,.34-.92c-.14-9.79-.29-19.66-.46-29.53l-.5-.17c.13,9.89.29,19.84.45,29.72A7.41,7.41,0,0,0,124.12,180.21Z"/><path class="cls-19" d="M89.63,156q-.14-9.15-.28-18.29l-.24-.08q.15,9.19.3,18.38Z"/><path class="cls-19" d="M91.63,138.46l-.81-.28c.06,15.32.45,30.64.59,46l.92.33Z"/><path class="cls-19" d="M88.94,173.94c0-.89,0-1.7,0-2.5h-.75q.09,5.79.19,11.58l.75.27Q89,178.62,88.94,173.94Z"/><path class="cls-19" d="M85.44,161.73q.15,10.16.31,20.36l.3.11c-.11-6.79-.22-13.6-.33-20.37A.94.94,0,0,0,85.44,161.73Z"/><path class="cls-19" d="M94.51,145.58h.34l-.09-6-.35-.12C94.45,141.48,94.48,143.53,94.51,145.58Z"/><path class="cls-19" d="M92.84,160.62h.56c-.11-7.23-.22-14.43-.33-21.65l-.56-.2C92.61,146.05,92.73,153.32,92.84,160.62Z"/><path class="cls-19" d="M100.09,141.42l-1.91-.67c0,9.09-.07,18.21,0,27.32,0,6.18,0,12.36.06,18.54l2.56.92Q100.45,164.47,100.09,141.42Z"/><path class="cls-19" d="M93.28,181c0,1.28,0,2.56.06,3.83l.26.09Z"/></g><polygon id="_Контур_3" data-name="&lt;Контур&gt;" class="cls-20" points="45.14 129.85 125.06 159.99 125.06 191.98 45.14 158.69 45.14 129.85"/><polygon id="_Обтравочный_контур_14" data-name="&lt;Обтравочный контур&gt;" class="cls-5" points="489.35 40.15 125.06 159.99 125.06 191.98 489.35 61.66 489.35 40.15"/><g class="cls-21"><path class="cls-22" d="M209.35,152.57l27.79-9.47-.08-.15-27.56,9.39A.51.51,0,0,1,209.35,152.57Z"/><path class="cls-22" d="M142.33,181.84l67.77-23.1-.1-.19-67.76,23.12Z"/><path class="cls-22" d="M220.43,129.57c8.19-2.63,16.63-5.2,24.78-7.94,6.25-2.12,12.37-4.52,18.63-6.68q74.63-25.72,149.51-51.41l4.77-1.62-.1-.14L320.4,95.05l-.12-.19,8.08-2.75-.11-.16-67.4,23,.14.28L308.53,99l.12.25-88.34,30.12A1.36,1.36,0,0,1,220.43,129.57Z"/><path class="cls-22" d="M180.58,170.87a1,1,0,0,0,.08-.2l-27.09,9.23.07.15Z"/><path class="cls-22" d="M229.35,124.92l.17,0v0Z"/><path class="cls-22" d="M367.7,78.1l-26.87,9.17.1.19,26.66-9.09Z"/><path class="cls-22" d="M121.19,160.95l0,.17L177.4,142l-.09-.16Z"/><path class="cls-22" d="M162.2,147.68c-.61.21-1.22.45-1.8.72a8.2,8.2,0,0,0,2-.44c21.14-7.2,42.28-14.4,63.58-21.67,1.17-.4,2.29-.88,3.41-1.36-1.12.31-2.13.6-3.12.93Q194.21,136.76,162.2,147.68Z"/><path class="cls-22" d="M471.07,66.5l22.7-7.74,0-.21c-7.4,2.77-15.23,5.14-22.8,7.72C471,66.3,471,66.4,471.07,66.5Z"/><path class="cls-22" d="M219.32,147.73l37-12.59c0-.1.11-.13.16-.23l-37.2,12.68Z"/><path class="cls-22" d="M288.8,125.94,407.32,85.51c-.06-.1-.11-.21-.17-.32L288.62,125.59Z"/><path class="cls-22" d="M350.08,102.84a5.48,5.48,0,0,0-1.31,1c4.59-1.37,9.35-2.58,13.9-4.13q65.25-22.2,130.47-44.45l-.09-.48L369.15,97c-.06-.11-.09-.18-.15-.28l7.25-2.47C367.35,96.92,358.7,99.86,350.08,102.84Z"/><path class="cls-22" d="M389.7,96.75c0-.12,0-.25,0-.37l-87.3,29.76.18.33Z"/><path class="cls-22" d="M223.18,155.79l155.13-52.91c-2.07.56-4.14,1.1-6.27,1.69-3.85,1.4-7.68,2.82-11.67,4.17-2.65.9-5.57,1.74-8.26,2.57L223,155.37Z"/><path class="cls-22" d="M380.56,102.11l-2.25.77,2.33-.63Z"/><path class="cls-22" d="M348.73,103.84l0,0-.1,0Z"/><path class="cls-22" d="M135.78,174.41l-12.65,4.31,0,.38L136,174.74Z"/><path class="cls-22" d="M472,70.52l.12-.12-.28.1Z"/><path class="cls-22" d="M428.26,65.78c-2.23.76-4.4,1.22-6.67,1.94-2.79.93-5.67,1.91-8.57,2.9l.42.6,29-9.9c.07.13.11.22.19.38l-128,43.63,0,.07L491.35,45.15l-.14-.8Q459.68,55.09,428.26,65.78Z"/><path class="cls-22" d="M409.2,61l69.74-23.77-6.17,2L409.15,60.93Z"/><path class="cls-22" d="M472.49,58C455.42,63.87,438.15,69.4,421,75.2,410,79,398.94,83,387.79,86.9q-24.5,8.42-49,16.74c-7.19,2.44-14.17,4.87-21.38,7.23-6.61,2.15-13.25,4.18-19.87,6.29l.18.52,7.2-2.46c0,.11,0,.23.08.37L197.9,152.08l.07.1Q331.73,106.56,465.51,61l.22.38-67.62,23,.22.37L492.68,52.6l-.25-1.41Z"/><path class="cls-22" d="M401.47,90.75l.11.21L493.9,59.46l0-.2Z"/><path class="cls-22" d="M494.37,62.14q-10.46,3.54-20.88,7.11a4.28,4.28,0,0,0-1.4,1.16l22.35-7.87Z"/><path class="cls-22" d="M301.87,109.28c-.12-.21-.22-.4-.31-.58L122.16,169.85l0,.45,174.1-59.12Z"/><path class="cls-22" d="M314.15,104.59l28-9.54a.52.52,0,0,0-.07-.16l-27.81,9.48C314.21,104.46,314.2,104.55,314.15,104.59Z"/><path class="cls-22" d="M183.25,147.65,220.48,135l-.08-.15-37,12.61A.34.34,0,0,0,183.25,147.65Z"/><path class="cls-22" d="M399.39,71l.2.34L362.25,84.11l.2.37L490.58,40.81l-.32-1.8q-46.87,16.11-93.72,32.21c-9.9,3.4-20.11,6.56-30.13,9.88-23.37,7.83-46.86,15.66-70.29,23.6q-60.64,20.38-121.2,40.9c-9.46,3.22-18.82,6.72-28.38,10.06l-25,8.67.15,1.36Q260.58,118.37,399.39,71Z"/><path class="cls-22" d="M120.66,156.14l0,.21,15.2-5.18a1.52,1.52,0,0,0-.1-.19Z"/><path class="cls-22" d="M492.14,49.6Q464,59,436,68.55c-19.39,6.59-38.74,13.51-58.19,20.2-9.19,3.16-18.54,6-27.69,9.08-7.34,2.49-14.49,5.3-21.82,7.8q-74.14,25.33-148,50.51c-4.48,1.53-8.77,3.33-13,4.93,107.85-37.79,217-73.25,325-110.83Z"/><path class="cls-22" d="M145.1,168.87c-.08-.11-.18-.24-.26-.33l-18.43,6.28c4.16-1.81,8.32-3.55,12.63-5,44.28-15.27,88.79-30.54,133.09-45.77,16.71-5.75,33.33-11.37,50.09-17.08,13.06-4.45,26.15-8.84,39.26-13.39,18.94-6.57,38-13.28,57.15-19.86,9.9-3.39,20.06-6.56,30.18-9.91,14.42-4.83,28.92-9.5,43.29-14.39l-.27-1.54q-58,19.62-115.92,39.27c-15.67,5.31-31.2,11-46.78,16.31-15.79,5.38-31.79,10.52-47.69,15.9-9.78,3.31-19.4,7-29.28,10.3-6.42,2.13-12.45,4.84-19.45,6-2.5.43-5.78,2.36-8.82,3.48a59.8,59.8,0,0,1-8.74,2.95,45.93,45.93,0,0,0-11.33,3.86c-5.68,2.45-12,4.2-18.15,6.28l-.08-.14c2.66-1,5.41-2,8.16-2.92-6.52,2-13,4.18-19.32,6.35-6.81,2.32-13.66,4.7-20.53,7q-14.13,4.79-28.35,9.59a2.57,2.57,0,0,0-.48.19,26.4,26.4,0,0,1-2.51,1.35l.3,2.79,17.67-6Z"/><path class="cls-22" d="M224.17,136.46l68.47-23.34-.08-.16-68.36,23.31C224.13,136.3,224.13,136.38,224.17,136.46Z"/></g><polygon id="_Контур_4" data-name="&lt;Контур&gt;" class="cls-23" points="489.35 40.15 125.06 159.99 125.06 191.98 489.35 61.66 489.35 40.15"/><polygon id="_Обтравочный_контур_15" data-name="&lt;Обтравочный контур&gt;" class="cls-6" points="417.48 27.95 489.35 40.15 125.06 159.99 45.46 129.97 417.48 27.95"/><g class="cls-24"><path class="cls-25" d="M308.61,83.93l28-9.4a.6.6,0,0,0-.07-.16l-27.88,9.34A.34.34,0,0,1,308.61,83.93Z"/><path class="cls-25" d="M391.27,51c-9.93,3.35-20.16,6.46-30.2,9.74-23.43,7.72-47,15.43-70.47,23.26Q229.8,104,169.08,124.26c-9.48,3.17-18.87,6.63-28.45,9.92q-25.21,8.58-50.47,17.2l1.69.7Q243,101.44,394.12,50.79l.2.35L356.87,63.68l.2.38,95.63-32-3.37-.67Q420.29,41.17,391.27,51ZM175.65,123.05c.06,0,.1-.12.14-.21l47.54-15.93.08.14Z"/><path class="cls-25" d="M177.38,126.35l37.33-12.5-.08-.15-37.1,12.43A.33.33,0,0,0,177.38,126.35Z"/><path class="cls-25" d="M146.5,140.27a2,2,0,0,0-1.14,0L100,155.47l.51.21,41.35-13.87Z"/><path class="cls-25" d="M454.37,32.36,216.65,112l-.11-.22,78.23-26.22-.33-.64L251.15,99.47c-41,13.75-82.16,27.21-122.62,41.86-.86.29-1.85.74-2.67,1.11l.37.41Q290.77,87.69,455.35,32.56Z"/><path class="cls-25" d="M107.5,154.84a24.59,24.59,0,0,0-4.75,1.26l-.66.23.43.18Z"/><path class="cls-25" d="M129.71,152.87l-19.89,6.66.52.21,19.55-6.55Z"/><path class="cls-25" d="M287,92.18l-68.54,23c-.07,0-.07.12,0,.19l68.65-23Z"/><path class="cls-25" d="M338,52.51l-2.43.81,2.42-.79A0,0,0,0,0,338,52.51Z"/><path class="cls-25" d="M404,40.82l34.65-11.61-.2,0-34.5,11.56Z"/><path class="cls-25" d="M314.82,74.24l8.1-2.71-.11-.16L255.23,94l.14.28,47.67-16,.12.26L214.6,108.25a1.56,1.56,0,0,1,.11.2c8.21-2.58,16.67-5.12,24.84-7.82,6.27-2.09,12.41-4.46,18.68-6.59q74.83-25.35,149.9-50.67l4.78-1.6-.1-.14L314.94,74.42Z"/><path class="cls-25" d="M335.53,66.93l26.73-9,.11-.27-26.94,9Z"/><path class="cls-25" d="M223.82,103.78l-.15.06.16,0Z"/><path class="cls-25" d="M171.5,120.47l-86.2,28.9.23.09,86.06-28.83Z"/><path class="cls-25" d="M220.24,105.19c1.17-.4,2.3-.87,3.43-1.35-1.13.3-2.14.59-3.13.92q-32.11,10.74-64.21,21.51c-.61.21-1.22.45-1.81.71a8.25,8.25,0,0,0,2-.42C177.7,119.45,198.89,112.36,220.24,105.19Z"/><path class="cls-25" d="M398.08,29l-.25.07h0Z"/><path class="cls-25" d="M278.47,70.86,416.19,24.72l-.85-.17-137,45.92A2.78,2.78,0,0,1,278.47,70.86Z"/><path class="cls-25" d="M343,83.4l.18,0h0l0,0-.1,0Z"/><path class="cls-25" d="M83.6,127.51l28.13-9.43-.09-.15-28.12,9.43Z"/><path class="cls-25" d="M323.61,82.84c-15.83,5.3-31.87,10.36-47.81,15.66-9.81,3.26-19.45,6.92-29.36,10.16-6.44,2.1-12.49,4.78-19.5,5.91-2.5.41-5.79,2.33-8.84,3.44a60.36,60.36,0,0,1-8.76,2.91A46,46,0,0,0,198,124.71c-5.7,2.42-12.08,4.14-18.2,6.19l-.08-.14c2.67-1,5.43-1.95,8.18-2.87-6.54,2-13,4.11-19.37,6.25-6.83,2.29-13.69,4.63-20.58,6.92q-14.17,4.72-28.43,9.45a2.43,2.43,0,0,0-.48.19c-4.63,2.84-10.47,4.15-16,6l3.62,1.5,27.88-9.31,4.57-1.53-.25-.33-18.47,6.19c4.17-1.79,8.34-3.51,12.67-5,44.4-15.05,89-30.1,133.44-45.12,16.75-5.67,33.41-11.2,50.22-16.83,13.09-4.39,26.21-8.72,39.37-13.2,19-6.48,38.1-13.1,57.3-19.58,9.92-3.34,20.11-6.46,30.26-9.76,8.61-2.83,17.24-5.61,25.86-8.41l-2.92-.58q-48,16-96,32C354.8,72,339.23,77.61,323.61,82.84Z"/><path class="cls-25" d="M274.77,106.14c-.62.21-1.21.47-1.82.7a6.78,6.78,0,0,0,2-.42c21.43-7.17,43-14.41,64.64-21.66,1.18-.4,2.32-.88,3.45-1.36-1,.28-2.15.59-3.18.94C318.21,91.57,296.39,98.88,274.77,106.14Z"/><path class="cls-25" d="M209.49,83.88q21.1-7,42.12-13.87l-13.67,3.82c-13.34,4.47-26.72,8.9-40.25,13-31.68,9.68-63,20.67-94.58,31.17-8.6,2.84-17.2,5.75-25.9,8.67l-4.5,1.5c.12.22.24.44.37.66,11.3-3.79,22.4-7.57,33.72-11.29,17.33-5.77,34.71-11.4,51.92-17a32.92,32.92,0,0,1,3.85-.77L162,100l.69-.23h0c1.82-.68,3.46-1.32,5.13-1.88C181.62,93.23,195.61,88.51,209.49,83.88Z"/><path class="cls-25" d="M177.45,105c-9.93,2.9-18.59,5.33-27.28,8-3.31,1.06-6.61,2.57-10,3.7q-36.95,12.42-73.93,24.79l1,.42L171.51,107Z"/><path class="cls-25" d="M90.31,131.86l4.31-1.44-.18-.31-28.1,9.41c35.69-13,72.55-24,108.12-37.17-6,1.73-60.46,19.92-112.32,37.41l2.16.89,19.44-6.59C86,133.31,88.18,132.58,90.31,131.86Z"/><path class="cls-25" d="M136.73,116.23l28-9.38a.52.52,0,0,1-.08-.13l-28,9.38Z"/><path class="cls-25" d="M113.22,116.19c12.66-3.91,25-8,37.37-12.2,3.94-1.33,7.66-2.68,11.4-4q-22.53,7.44-45,14.93C115.7,115.33,114.45,115.75,113.22,116.19Z"/><path class="cls-25" d="M319.64,89,142.47,148.38c0,.16,0,.25,0,.41L319.82,89.36Z"/><path class="cls-25" d="M472.88,39l.08.16,5.83-2-.35-.07Z"/><path class="cls-25" d="M372.4,68.39c-9.22,3.12-18.59,5.89-27.76,8.95-7.35,2.45-14.53,5.23-21.88,7.69q-74.33,25-148.43,49.78c-4.49,1.51-8.8,3.29-13.06,4.87C264.21,104.22,368.32,70.86,471.5,35.79l-1.56-.31q-19.61,6.49-39.19,13C411.3,55,391.9,61.8,372.4,68.39Z"/><path class="cls-25" d="M467.31,38.14c-17.12,5.76-34.42,11.21-51.58,16.92-11.1,3.7-22.16,7.73-33.33,11.54q-24.56,8.3-49.16,16.49C326,85.5,319,87.89,311.8,90.22c-6.62,2.11-13.28,4.12-19.92,6.2l.17.52,7.22-2.42.08.37L192,130.85l.07.11Q326.18,86,460.31,41l.22.38-67.8,22.71.22.37,83-27.82-2.74-.55Z"/><path class="cls-25" d="M203.45,131.39l27.86-9.33-.08-.15-27.63,9.25A.5.5,0,0,1,203.45,131.39Z"/><path class="cls-25" d="M480.26,37.54,363.67,76.6c-.06-.11-.08-.18-.14-.28l7.27-2.44c-8.92,2.63-17.6,5.53-26.24,8.47a5.49,5.49,0,0,0-1.31,1c4.61-1.35,9.37-2.53,13.93-4.06q62-20.74,124-41.53Z"/><path class="cls-25" d="M283.11,105.15,401.93,65.31c-.06-.1-.11-.21-.17-.32L282.93,104.8Z"/><path class="cls-25" d="M250.67,114l-37.3,12.5.08.14,37.06-12.41C250.55,114.08,250.62,114.05,250.67,114Z"/><path class="cls-25" d="M369.85,36.95l-2.28.64L296.92,61.27l.05.09Z"/><path class="cls-25" d="M49.84,126.43l-10,2.81-1.68.56.74.31Z"/><path class="cls-25" d="M47.31,133.61l1,.43L178.11,90.56l-13.95,3.9Z"/><path class="cls-25" d="M112.57,108.89l-11.38,3.18-21.81,7.31c0-.06,0-.07,0-.11l19.51-6.54-10.19,2.85L41.73,131.3l2.21.92Z"/><path class="cls-25" d="M61.88,123.07l-22.24,7.37L41,131,79.28,118.2Z"/><path class="cls-25" d="M423,45.68c-2.24.75-4.41,1.2-6.69,1.91-2.79.91-5.68,1.88-8.59,2.86l.42.6,29.09-9.76c.07.13.11.22.19.38l-128.36,43,0,.07,152.14-51-1.61-.32Z"/><path class="cls-25" d="M464.64,44l17.89-6-.39-.08-17.59,5.9Z"/><path class="cls-25" d="M395.14,72.11a12.81,12.81,0,0,0,3.36-.19c2.26-.72,4.51-1.64,6.81-2.47C415,66,424.54,62.54,434.17,59.27c4.91-1.67,10.11-2.76,15.08-4.37,2.81-.89,5.62-1.81,8.43-2.71l35.65-12-1.45-.29-25.13,8.42-.17-.31,24.62-8.25-.52-.1L395.56,71.48A6.94,6.94,0,0,1,395.14,72.11Z"/><path class="cls-25" d="M484,38.29,326.34,91.15c-11,3.67-21.76,7.6-32.71,11.3Q251.36,116.72,209,130.84l-5.09,1.7.19.35L342.76,86.42l.2.38L214.85,129.72c0,.06.08.19.11.27,9.44-3,18.84-5.95,28.07-8.89-14,4.33-27.2,10.09-41.82,13.62-8.39,2-17,5.33-25.49,8a19.81,19.81,0,0,0-2.54,1.13c.11.07.25.22.35.29l19.52-6.54a17.62,17.62,0,0,1-4.3,1.86c-9.68,3.12-19.56,6.07-29.15,9.21q-21.19,6.86-42.24,13.93l.67.28,24.88-8.34a1.88,1.88,0,0,1,.13.26l-24.6,8.25,1.76.73L373.41,79l-.29-.54L245.9,121.1C256.78,117,267.74,112.79,279,109c26.69-9.13,53.56-18,80.35-27,10.42-3.52,20.66-7.23,30.94-10.75,11.15-3.77,22.37-7.51,33.66-11.3l44.35-14.86,4.6-1.54-.24-.48-48,16.09-.17-.41,60.5-20.28Z"/><path class="cls-25" d="M78.21,143.93a.77.77,0,0,1,.19-.24l-3.75,1.26.23.1Z"/><path class="cls-25" d="M287.81,59.89,254.18,71.15a45.33,45.33,0,0,1,5-2c1.14-.46,2.1-1.06,3.15-1.58-16,5.42-31.83,10.76-47.85,16.14-3.5,1.17-7,2-10.34,3.19-9.26,3.25-18.4,6.84-27.78,10Q116.28,117.07,56,137.23l.76.31L291.71,58.79Z"/><path class="cls-25" d="M273.28,64l-9.77,3.22,15.69-4.87Z"/><path class="cls-25" d="M119.09,108.82l-18.63,6.24c.09.13.15.22.21.33l57.15-19.16-26,7.26q-26.57,8.84-53.08,17.69-17,5.66-34,11.37l.79.33,73.25-24.56Z"/><path class="cls-25" d="M262.48,67.49h0l1-.32Z"/><path class="cls-25" d="M299.07,65.56,335.6,53.32,313,60.69c-4.65,1.52-9.4,3.14-14.1,4.71Z"/><path class="cls-25" d="M99.25,117.58,49.14,134.37l.8.33L99.5,118.1C99.41,117.92,99.33,117.75,99.25,117.58Z"/><path class="cls-25" d="M60.36,132.64l-.11-.2-8.73,2.93.32.13Z"/><path class="cls-25" d="M262.47,67.49l-.13.07.19-.06Z"/><path class="cls-25" d="M396.15,70.72,489.57,39.4l-.4-.08L396,70.52Z"/><path class="cls-25" d="M166.2,110.14l-.15-.3L77.67,139.46l.16.3Z"/><path class="cls-25" d="M207,93.43,235,84l-.08-.15-28.06,9.4A.83.83,0,0,1,207,93.43Z"/><path class="cls-25" d="M162.44,98l54.48-18.25-2,.57-52.5,17.59Z"/><path class="cls-25" d="M148.55,115.37,305.83,62.68a.21.21,0,0,0,0-.17L148.47,115.23Z"/><path class="cls-25" d="M217.13,89.51,384.84,33.28l-.11-.21L217,89.33A.92.92,0,0,0,217.13,89.51Z"/><path class="cls-25" d="M232.5,95.29,299.88,72.7a.5.5,0,0,0,.13-.23L232.4,95.12A.85.85,0,0,0,232.5,95.29Z"/><path class="cls-25" d="M223.23,101l78.1-26.17-.08-.15-78.09,26.19Z"/><path class="cls-25" d="M403.52,40.09l0,.08,33.57-11.25-.53-.11L406.27,39C405.32,39.34,404.44,39.73,403.52,40.09Z"/><path class="cls-25" d="M142.5,132.43c-12.51,3.94-25.22,7.94-37.8,11.86l-.16-.31,17.32-5.8a.74.74,0,0,1,.23-.15L86.62,149.92l2,.83,54-18.09A1.62,1.62,0,0,0,142.5,132.43Z"/><path class="cls-25" d="M296.3,88.56c-.12-.21-.21-.41-.31-.58L97.57,154.46l.59.24L290.72,90.42Z"/><path class="cls-25" d="M120.22,158.39l-7.28,2.44.47.2,7-2.33C120.31,158.57,120.28,158.5,120.22,158.39Z"/><path class="cls-25" d="M308.26,102.18,256.6,119.5c-5.68,1.89-11.7,3.55-17.35,5.45-6.7,2.25-13.27,4.8-20,7-7.11,2.38-14.27,4.43-21.32,6.78q-38.26,12.75-76.47,25.59l1.88.78L400,71.68Z"/><path class="cls-25" d="M384.25,76.09l-87.53,29.33.18.33,87.33-29.28C384.24,76.35,384.24,76.21,384.25,76.09Z"/><path class="cls-25" d="M101.94,139l28.06-9.4-.09-.19-28.06,9.41Z"/><path class="cls-25" d="M202,107.49c24.62-8.29,49.43-16.57,74.06-24.83L281.19,81l-.22-.42L111.82,137.24s0,.06,0,.11l18.66-6.25c-8.11,3.1-16.56,5.9-24.79,8.69a26.4,26.4,0,0,0-3.27,1.59c.81-.29,1.75-.73,2.56-1Q153.45,124,202,107.49Z"/><path class="cls-25" d="M82.22,148.09c6.72-2.22,13.39-4.42,20.16-6.69h0c-3.36,1.11-6.75,2.1-9.94,3.15L82,148Z"/><path class="cls-25" d="M465.83,46.61l22.34-7.49-.39-.08c-7.19,2.61-14.76,4.88-22.09,7.33C465.71,46.42,465.77,46.51,465.83,46.61Z"/></g><polygon class="cls-17" points="128.21 119.84 128.21 119.6 71.74 94.36 71.74 117.16 128.21 145.47 502.36 40.55 502.36 20.73 128.21 119.84"/><polygon id="_Обтравочный_контур_16" data-name="&lt;Обтравочный контур&gt;" class="cls-1" points="71.74 93.26 128.21 118.5 128.21 144.74 71.74 117.16 71.74 93.26"/><g class="cls-26"><path class="cls-27" d="M115.31,141.35c0-1.11,0-2.23-.05-3.34a.9.9,0,0,0-.28-.1l0,3.3Z"/><path class="cls-27" d="M113.58,140.54q0-.87,0-1.74c.05.27.62.53,1,.79-.31-6.5-.62-13-1-19.48a.49.49,0,0,0-.2.3q0,4.06.05,8.14-.16-9.83-.32-19.65l-.58-.27q.24,15.79.48,31.61Z"/><path class="cls-27" d="M113.53,120s0,.1,0,.15l.08-.06Z"/><path class="cls-27" d="M119.16,132.14q-.15-9.4-.29-18.8h-.24q.15,9.4.3,18.8Z"/><path class="cls-27" d="M114.7,139.68l-.12-.08v.14Z"/><path class="cls-27" d="M119.11,143.14l.27.13c0-1.81-.05-3.61-.08-5.42H119Z"/><path class="cls-27" d="M124.38,121.75c0-2.55-.08-5.11-.12-7.67l-.35-.16c0,2.62.08,5.22.13,7.84Z"/><path class="cls-27" d="M125.51,146.15q-.06-4.16-.13-8.33h.45q.06,4.27.13,8.54l.5.24q-.4-15.92-.77-31.86l-.52-.24q.13,8.75.27,17.49h-.35c0-1.29,0-2.68-.06-4h-.3q.14,8.94.27,17.88Z"/><path class="cls-27" d="M121.89,132.76q-.16-10-.32-19.93l-.76-.35q.16,10.14.32,20.28Z"/><path class="cls-27" d="M93.71,131.18q-.17-10.88-.35-21.76-.07-4.84-.15-9.7L92,99.17q.11,15.65.2,31.31Z"/><path class="cls-27" d="M85.63,127.38l.8.38c-.2-5-.42-10-.56-15-.1-5.51-.16-11-.25-16.54l-1-.46c.24,6.49.53,13,.71,19.46Q85.49,121.28,85.63,127.38Z"/><path class="cls-27" d="M83.55,126.41c0-2.54-.08-5.08-.12-7.61h-.17l.11,7.53Z"/><path class="cls-27" d="M103,135.58l0-2.13a1.07,1.07,0,0,0-.26,0q0,1,0,2Z"/><path class="cls-27" d="M71.26,120.62Q71,105,70.76,89.34l-.22-.1q.24,15.62.48,31.27Z"/><path class="cls-27" d="M78,123.79q-.18-11-.35-22h-.18q.17,11,.33,21.94Z"/><path class="cls-27" d="M90.84,98.63l-.31-.14c0,1.37,0,2.74.06,4.11C90.75,101.27,90.82,100,90.84,98.63Z"/><path class="cls-27" d="M98.6,133.49,98.1,102l-.38-.18q.25,15.74.5,31.5Z"/><path class="cls-27" d="M101.54,134.87l-.48-31.52-.67-.31q.25,15.76.5,31.52Z"/><path class="cls-27" d="M96.49,132.5,96,101l-.19-.09q.25,15.75.51,31.49Z"/></g><polygon id="_Контур_5" data-name="&lt;Контур&gt;" class="cls-28" points="71.74 93.26 128.21 118.5 128.21 144.74 71.74 117.16 71.74 93.26"/><polygon id="_Обтравочный_контур_17" data-name="&lt;Обтравочный контур&gt;" class="cls-7" points="502.36 19.63 128.21 118.74 128.21 144.74 502.36 40.55 502.36 19.63"/><g class="cls-29"><path class="cls-30" d="M172.62,128.07c2-.49,4.07-1,6-1.55,3.87-1,7.73-2.15,11.54-3.21,4.07-1.13,8.11-2.25,12.2-3.43.47-.16,1-.47,1.47-.62,18.67-5.53,37.3-11.18,56.07-16.68,14.24-4.17,28.6-8.28,42.85-12.4l2.95-.85-.26-.57-97.87,28.32s0,.06,0,.13l10.8-3.12c-4.6,1.81-9.5,3.19-14.25,4.61a7,7,0,0,0-1.78,1.15c-2,.54-4,.93-5.8,1.44-8,2.25-15.94,4.52-24,6.76-.93.36-1.86.71-2.89,1q-17,4.93-33.91,9.81l-2.57.74c13-3.21,25.89-6.93,38.73-10.68C172.29,128.87,172.4,128.35,172.62,128.07Zm100.85-24.74a14.8,14.8,0,0,0-1.94.39q-18.58,5.34-37.16,10.73a5.34,5.34,0,0,0-1,.42,2.38,2.38,0,0,0,1.21,0c12.27-3.54,24.53-7.08,36.89-10.66a13.57,13.57,0,0,0,2-.85l22.39-7.52-45.43,13.12c6.72-1.6,13.19-3.5,19.8-5.33A21.13,21.13,0,0,1,273.47,103.33ZM143.93,122,120,128.88c1.11.19,1.28.36,1.46.31,7.39-2.39,14.82-4.72,22.23-7.07,0,0,.08-.08.17-.15,2.92-.74,5.86-1.43,8.73-2.26q43.44-12.5,86.85-25.07l3.44-1c-5.86,1.14-11,2-16.09,3.16-1.93.49-3.73,1.53-5.69,2.1Q191,107.7,160.75,116.39c-5,1.45-10.07,2.87-15.06,4.4A7,7,0,0,0,143.93,122ZM455.78,41.5a1.81,1.81,0,0,1,0,.33L507,27c-.05-.25-.08-.51-.11-.77a13.12,13.12,0,0,0-2.63.26c-9.71,2.76-19.41,5.58-29,8.35l-2.49.72-.2-.45,33.22-9.59a4.75,4.75,0,0,0-2.32.18Q416.4,51.21,329.27,76.62c-.71.21-1.92.58-1.93.77.18,1.8-1.62,1.7-2.82,2-6.27,1.53-12.56,2.75-18.75,4.49-9.17,2.63-18.17,5.61-27.31,8.33-11.86,3.53-23.73,6.88-35.6,10.3-.6.17-1.28.27-2,.42a1,1,0,0,0-.05-.21c7.17-2.31,14.25-4.58,20.76-6.74L188.5,117.18l.25.57,44.6-12.9c-16,5.08-32.26,9.66-48.4,14.46s-32.6,8.88-48.28,14.65a6.82,6.82,0,0,0,1.67-.23c18.08-5,36.17-10,54.28-15.19,3.51-1,6.61-2.83,10.07-3.87,11.64-3.43,23.32-6.75,35-10.13.72-.21,1.47-.39,2.21-.56l.16.44-33.73,9.74,0,.05Q313.24,83.33,420.12,52.4l-.24-.55L334.11,76.64l-.12-.28L483.17,33.27l.13.28ZM177.93,109c20.38-7.24,42.06-11.77,62.33-19.21-6.85,1.25-116.34,33.34-121,35.43.13,2.17,1.82,1.23,3,.87q32.84-9.77,65.83-19.54c1.29-.38,2.57-.74,3.81-1.1l2.49-.72-.2-.43ZM309.76,80.83,482.25,31c-8.77,1.78-17.51,3.62-26,6-9.23,2.63-18.14,6-27.34,8.72-29,8.53-58.08,16.77-87,25.23-10.67,3.12-21.26,6.46-31.92,9.76C309.75,80.81,309.66,80.93,309.76,80.83Zm106.51-39c0,.18,0,.31,0,.5,4.49-1.26,9.12-2.5,13.66-3.64,4.89-1.33,9.85-2.52,14.85-3.87s9.61-2.75,14.51-4.17L474,26.36l14.48-4.18L502.93,18l-.5-1.11Zm-147.8,64.73.13.27c4.79-1.17,9.77-2.22,14.5-3.54,3.63-1,7.1-2.44,10.73-3.52,28.82-8.57,57.7-17,86.64-25.59l2.77-.8-.11-.2L326.49,89.5l-.12-.25L331,87.89l-.11-.22L291.83,99l.17.37,27.58-8,.15.34ZM508.4,31a4.46,4.46,0,0,0,.51-.63c-.8-.21-1.73-.68-2.26-.48-2.93,1-5.62,2.46-8.49,3.31q-60,17.63-120.06,35.19a14.21,14.21,0,0,0-1.56.64l0,.1ZM267.53,77.79l-.11-.42q-54.49,15.76-109.1,31.53l.18.38Zm191.7-25.21a1.23,1.23,0,0,0-.22-.23q-54.34,15.72-108.65,31.4l.11.24ZM265.17,84.1a2.24,2.24,0,0,0,.16.27l97-28.08-.12-.28Zm36-8.17c.06.17.11.29.17.5l79.75-23-.23-.52ZM206,98.22l.16.36L280.84,77c-.06-.14-.13-.28-.16-.34ZM317.41,73a.69.69,0,0,0-.05-.21L226.3,99.14l.09.19ZM396.79,44.6l-.08-.17L311.12,69.2l.05.13ZM118.16,122.93l.34.73,2.63-.76c7-2.54,14.64-3.6,21.4-7,4.58-2.27,10.2-3.11,15.39-4.61C144.48,114.89,130.94,118,118.16,122.93ZM445.22,50.37l-.06-.12L377,69.93l.05.12ZM187,117.16a.61.61,0,0,1,.06-.24L124.32,135l.09.2Zm-1.51-5.56.18.4,51.14-14.77-.18-.4Zm6.91,14.08.09.19,50.61-14.61L243,111Zm-19,4.77-.09-.21-45.19,13.08.08.18Zm144.2-43.65-.09-.21L272.28,99.66l.08.18Zm-1.53-3a.53.53,0,0,0,0-.25l-39.13,11.3.11.23ZM497.6,21.37a.75.75,0,0,0-.07-.2l-33.66,9.72.08.2ZM454.75,28c0-.11,0-.22,0-.31l-33.64,9.73.12.26Zm21.09,14.38.06.13L509,32.91l-.06-.13Zm-26.51,2.42c0-.16-.06-.32-.09-.46L427,50.73l.19.42Zm-298.51,76.6.1.2,27.66-8-.1-.21Zm244-55.67c.07.08.1.09.18.18l27.64-8-.09-.2Zm-3.22-17.58-.2-.43-21.67,6.25.2.43Zm111.2-29.23-.07-.15-27.2,7.85.07.15ZM491.63,37.05c0-.11,0-.22.06-.25l-22.21,6.42.09.2ZM324.18,84.64l.08.17,22.13-6.39-.09-.18ZM171,125.67a.6.6,0,0,1,0-.22l-22.23,6.42.09.2ZM116,116.55a.4.4,0,0,1,.06.21l21.59-6.23-.09-.19ZM468.63,44.61l-.07-.15-21.68,6.27.07.14Zm8.9-13.73a.85.85,0,0,0,.06.21l21.58-6.23-.09-.2Zm-218,55.6.08.2L275.82,82l-.09-.2Zm-58.12,30.17.11.24,16.23-4.69-.11-.25ZM152,138.82c0,.09,0,.11.07.2l16.21-4.68-.09-.2ZM399,49.41l-.08-.16-16.1,4.66.08.15Zm-164,43.44-.09-.18-16.2,4.67.09.2Zm118.78-12c0-.11,0-.22,0-.3l-15.59,4.51.12.26ZM140.16,114.69l-.38-.7c-3.46,1.27-7,2.46-10.46,3.67l.07.14Z"/><path class="cls-30" d="M246.42,114.94c0,.11,0,.21,0,.23l27.64-8-.09-.19Z"/><path class="cls-30" d="M177.93,109l16.26-4.7.2.43-2.49.72c-1.23.36-2.52.72-3.81,1.1q-32.93,9.84-65.83,19.54c-1.21.36-2.89,1.3-3-.87,4.67-2.09,114.17-34.18,121-35.43C220,97.18,198.31,101.71,177.93,109Z"/><path class="cls-30" d="M416.27,41.79l86.16-24.88.5,1.11-14.41,4.16L474,26.36l-14.73,4.26c-4.9,1.42-9.66,2.88-14.51,4.17s-10,2.54-14.85,3.87c-4.54,1.15-9.17,2.38-13.66,3.64C416.27,42.11,416.28,42,416.27,41.79Z"/><path class="cls-30" d="M143.94,122a6.82,6.82,0,0,1,1.74-1.2c5-1.52,10-2.94,15.06-4.4q30.21-8.72,60.41-17.47c2-.57,3.76-1.61,5.69-2.1,5.09-1.14,10.23-2,16.09-3.16l-3.44,1q-43.43,12.54-86.85,25.07c-2.88.83-5.82,1.52-8.73,2.26Z"/><path class="cls-30" d="M268.47,106.52l51.25-14.81-.15-.34-27.58,8-.17-.37,39.11-11.3.11.22-4.68,1.35.12.25,56.64-16.36.11.2-2.77.8c-28.94,8.57-57.82,17-86.64,25.59-3.63,1.08-7.1,2.48-10.73,3.52-4.74,1.32-9.71,2.37-14.5,3.54Z"/><path class="cls-30" d="M267.53,77.79l-109,31.49-.18-.38q54.58-15.77,109.1-31.53Z"/><path class="cls-30" d="M459.23,52.58,350.46,84l-.11-.24Q404.65,68.07,459,52.35A1.23,1.23,0,0,1,459.23,52.58Z"/><path class="cls-30" d="M265.17,84.1,362.25,56l.13.28-97,28.08A2.24,2.24,0,0,1,265.17,84.1Z"/><path class="cls-30" d="M301.14,75.93l79.69-23.05.23.52-79.75,23C301.26,76.23,301.2,76.11,301.14,75.93Z"/><path class="cls-30" d="M206,98.22l74.66-21.56c0,.07.1.2.16.34L206.18,98.58Z"/><path class="cls-30" d="M317.41,73l-91,26.29-.09-.19,91.06-26.3A.69.69,0,0,1,317.41,73Z"/><path class="cls-30" d="M396.79,44.6,311.18,69.33l-.05-.13,85.6-24.77Z"/><path class="cls-30" d="M118.16,122.93c12.78-4.94,26.32-8,39.76-11.63-5.2,1.5-10.81,2.34-15.39,4.61-6.76,3.39-14.43,4.45-21.4,7l-2.63.76Z"/><path class="cls-30" d="M445.22,50.37,377.06,70l-.05-.12,68.15-19.68Z"/><path class="cls-30" d="M187,117.16l-62.56,18.07-.09-.2L187,116.91A.61.61,0,0,0,187,117.16Z"/><path class="cls-30" d="M185.45,111.59,236.6,96.82l.18.4L185.63,112Z"/><path class="cls-30" d="M146,127.06c-3.84,1.29-7.65,2.58-11.46,3.82-3.65.89-7.26,1.77-10.91,2.57l-.18-.4,27.64-8-.09-.2C149.33,125.63,147.65,126.36,146,127.06Z"/><path class="cls-30" d="M192.36,125.67,243,111l.1.22-50.61,14.61Z"/><path class="cls-30" d="M273.47,103.33a20.79,20.79,0,0,0-3.25.24c-6.62,1.83-13.08,3.73-19.8,5.33l45.43-13.12-22.39,7.52Z"/><path class="cls-30" d="M173.36,130.44l-45.2,13.05-.08-.18,45.19-13.08Z"/><path class="cls-30" d="M317.55,86.79,272.36,99.84l-.08-.18,45.19-13.08Z"/><path class="cls-30" d="M172.62,128.07c-.22.28-.33.8-.64.89-12.84,3.75-25.71,7.47-38.73,10.68l2.57-.74q16.94-4.89,33.91-9.81c1-.3,2-.65,2.89-1Z"/><path class="cls-30" d="M316,83.79,277,95.08l-.11-.23,39.13-11.3A.53.53,0,0,1,316,83.79Z"/><path class="cls-30" d="M273.46,103.31a13.57,13.57,0,0,1-2,.85c-12.35,3.59-24.62,7.12-36.89,10.66a2.38,2.38,0,0,1-1.21,0,5.34,5.34,0,0,1,1-.42q18.57-5.38,37.16-10.73a14.33,14.33,0,0,1,1.94-.38Z"/><path class="cls-30" d="M485.32,36c-2,.34-3.92.74-5.79,1.12.13-.21.2-.46.47-.53,9-2.63,18.13-5.26,27.26-7.68C499.93,31.25,492.63,33.65,485.32,36Z"/><path class="cls-30" d="M497.6,21.37,464,31.09l-.08-.2,33.66-9.72A.75.75,0,0,1,497.6,21.37Z"/><path class="cls-30" d="M454.75,28l-33.51,9.68-.12-.26,33.64-9.73C454.76,27.73,454.75,27.84,454.75,28Z"/><path class="cls-30" d="M143.9,122c-.09.07-.17.15-.17.15-7.41,2.35-14.84,4.67-22.23,7.07-.18.05-.35-.12-1.46-.31l23.9-6.9Z"/><path class="cls-30" d="M475.84,42.33l33.05-9.55.06.13L475.9,42.46Z"/><path class="cls-30" d="M202.39,119.88c-4.09,1.18-8.13,2.3-12.2,3.43-3.81,1.06-7.67,2.17-11.54,3.21-2,.53-4,1.06-6,1.55h0c8-2.24,15.95-4.52,24-6.76,1.85-.51,3.85-.91,5.8-1.44Z"/><path class="cls-30" d="M429.26,41.48l-.37-.83v0c6.9-1.89,13.87-3.81,20.77-5.79a39.1,39.1,0,0,1,7.57-1.65c-3.91,1.13-7.83,2.23-11.72,3.39l-16.29,4.85Z"/><path class="cls-30" d="M449.33,44.75l-22.16,6.4-.19-.42,22.26-6.44C449.27,44.44,449.3,44.59,449.33,44.75Z"/><path class="cls-30" d="M150.82,121.36l27.66-8,.1.21-27.66,8Z"/><path class="cls-30" d="M391.62,48.12l-21.67,6.25-.2-.43,21.67-6.25Z"/><path class="cls-30" d="M502.82,18.89l-27.2,7.85-.07-.15,27.2-7.85Z"/><path class="cls-30" d="M429.22,41.47c-3.71,1.2-7.49,2.45-11.24,3.54-4.24,1.22-8.53,2.35-12.81,3.49h0c4.67-1.46,9.27-2.88,14-4.27,3.38-1,6.71-1.83,10.12-2.75Z"/><path class="cls-30" d="M491.63,37.05l-22.05,6.37-.09-.2,22.21-6.42S491.64,36.94,491.63,37.05Z"/><path class="cls-30" d="M324.18,84.64l22.12-6.4.09.18-22.13,6.39Z"/><path class="cls-30" d="M171,125.67l-22.19,6.41-.09-.2L171,125.45A.6.6,0,0,0,171,125.67Z"/><path class="cls-30" d="M116,116.55l21.55-6.22.09.19L116,116.76A.4.4,0,0,0,116,116.55Z"/><path class="cls-30" d="M468.63,44.61l-21.69,6.26-.07-.14,21.68-6.27Z"/><path class="cls-30" d="M477.52,30.88l21.55-6.22.09.2-21.58,6.23A.85.85,0,0,1,477.52,30.88Z"/><path class="cls-30" d="M259.49,86.49l16.24-4.69.09.2-16.25,4.69Z"/><path class="cls-30" d="M201.38,116.66l16.23-4.7.11.25-16.23,4.69Z"/><path class="cls-30" d="M152,138.82l16.2-4.68.09.2L152.12,139C152.08,138.93,152.08,138.92,152,138.82Z"/><path class="cls-30" d="M399,49.41l-16.1,4.65-.08-.15,16.1-4.66Z"/><path class="cls-30" d="M234.94,92.85l-16.2,4.69-.09-.2,16.2-4.67Z"/><path class="cls-30" d="M353.72,80.87l-15.47,4.47-.12-.26,15.59-4.51C353.72,80.65,353.72,80.76,353.72,80.87Z"/><path class="cls-30" d="M140.16,114.69l-10.77,3.11-.07-.14c3.49-1.21,7-2.4,10.46-3.67Z"/><path class="cls-30" d="M246.42,114.94,273.94,107l.09.19-27.64,8S246.42,115,246.42,114.94Z"/></g><polygon id="_Контур_6" data-name="&lt;Контур&gt;" class="cls-31" points="502.36 20.73 128.21 119.84 128.21 145.84 502.36 41.65 502.36 20.73"/><polygon id="_Обтравочный_контур_18" data-name="&lt;Обтравочный контур&gt;" class="cls-2" points="448.6 3.22 502.36 19.63 128.21 118.5 73 93.69 448.6 3.22"/><g class="cls-32"><path class="cls-33" d="M407.39,22.22,266,60.54a3.52,3.52,0,0,1,.08.39L407.57,22.62Z"/><path class="cls-33" d="M323.3,60.21l27.45-7.43.13-.26L323.22,60Z"/><path class="cls-33" d="M427.09,15.27,388.63,25.68l.14.33L427.23,15.6C427.18,15.47,427.14,15.41,427.09,15.27Z"/><path class="cls-33" d="M224.58,88.44c6.44-1.74,12.77-3.75,19.22-5.52q76.87-21.09,154-42.12l4.91-1.33-.09-.15L302.1,66.53l-.1-.19,8.31-2.25-.1-.17-69.4,18.79c0,.11.07.17.12.29l49-13.25.1.26L199,94.63a1.47,1.47,0,0,1,.09.21C207.54,92.72,216.2,90.67,224.58,88.44Z"/><path class="cls-33" d="M204.93,91.9c1.2-.33,2.37-.74,3.54-1.15-1.15.24-2.18.47-3.2.74q-33,8.9-65.94,17.84c-.63.18-1.26.38-1.87.6a8.4,8.4,0,0,0,2-.31C161.23,103.74,183,97.85,204.93,91.9Z"/><path class="cls-33" d="M285.29,52.39l0,.1L437.27,11.36l-.05-.13Z"/><path class="cls-33" d="M192.71,79.42l28.84-7.81-.07-.15-28.82,7.8A.75.75,0,0,1,192.71,79.42Z"/><path class="cls-33" d="M349.32,55.44C325.27,61.82,301.1,68.19,277,74.68Q214.57,91.29,152.22,108c-9.74,2.63-19.41,5.55-29.26,8.29L109.87,120l1.78,1Q247.44,84.17,383.16,47.4l.17.36L344.87,58.17l.16.38,154.07-41.7-2.52-1.22Q438.42,31.51,380.3,47.42C370.11,50.21,359.63,52.73,349.32,55.44ZM158.88,107.21c.06,0,.11-.12.16-.2l48.83-13.22.06.15Z"/><path class="cls-33" d="M203.21,76.08,375.45,29.42s-.05-.13-.09-.22L203.05,75.89A.91.91,0,0,0,203.21,76.08Z"/><path class="cls-33" d="M438.84,15a.65.65,0,0,0-.07-.12L410.2,22.67l.06.11Z"/><path class="cls-33" d="M132.52,98,294,54.3a.22.22,0,0,0,0-.17L132.45,97.88Z"/><path class="cls-33" d="M149.33,90.29l-28.75,7.78.07.15,28.75-7.79A.53.53,0,0,1,149.33,90.29Z"/><path class="cls-33" d="M301.42,52.72c-4.77,1.25-9.66,2.6-14.48,3.91l.11.16,37.66-10.2Z"/><path class="cls-33" d="M327.07,46l-2.36.64,2.35-.62S327.07,46,327.07,46Z"/><path class="cls-33" d="M208.28,87.93l80.21-21.71-.06-.16L208.22,87.79Z"/><path class="cls-33" d="M89.53,109l66.63-18,6.11-1.65c-10.16,2.34-19,4.28-27.92,6.44-3.39.87-6.82,2.19-10.29,3.13L88.6,108.47Z"/><path class="cls-33" d="M200.64,98.3,281,76.54l-.27-.65-44.46,12c-41,11.12-82.22,22-122.85,33.94l1,.53Q307.65,70.05,500.94,17.74l-.68-.33Q350.58,57.94,200.74,98.52Z"/><path class="cls-33" d="M112.67,111l-12.9,3.5.26.14,12.71-3.44Z"/><path class="cls-33" d="M90.78,109.65l.42.23L150.59,93.8c0-.08-.09-.23-.12-.31Z"/><path class="cls-33" d="M155,104.4l-49.22,13.33.22.12L155,104.57Z"/><path class="cls-33" d="M208.62,90.7l-.16.05.17,0Z"/><path class="cls-33" d="M102,115.71l11.12-3c-3.55,1.12-7.15,2.17-10.77,3.2l.46.25q41.81-11.48,83.75-23c25.29-6.89,50.76-13.75,76.06-20.61l5.23-1.42-.19-.43-165.8,44.92Z"/><path class="cls-33" d="M218,82.71,287.23,64a.53.53,0,0,0,.15-.22l-69.45,18.8A1.16,1.16,0,0,0,218,82.71Z"/><path class="cls-33" d="M250.38,56.67h0l1-.27Z"/><path class="cls-33" d="M279.73,46.34,231,59.53c0,.09-.12.12-.17.21l49-13.25Z"/><path class="cls-33" d="M147.95,83.23l-.69.2.74-.2Z"/><path class="cls-33" d="M228.41,55.84l-.12,0,.17,0Z"/><path class="cls-33" d="M147.26,83.43Q124.13,89.58,101,95.79c-1.28.35-2.56.7-3.83,1.07,13-3.19,25.67-6.6,38.35-10.07C139.59,85.68,143.42,84.55,147.26,83.43Z"/><path class="cls-33" d="M147.9,81.44,320.32,34.77l0-.1L147.86,81.34Z"/><path class="cls-33" d="M224.71,57c1.22-.33,2.4-.75,3.58-1.16-1.25.27-2.5.55-3.72.88L117.88,85.64c-.85.23-1.65.48-2.31.71a7.88,7.88,0,0,0,2-.31Q171.14,71.56,224.71,57Z"/><path class="cls-33" d="M503.93,19.19q-45.83,12.4-91.48,24.74c-2.29.62-4.5.95-6.84,1.53-2.87.75-5.84,1.56-8.82,2.37l.36.63L427,40.35c.05.13.09.23.15.39L295.36,76.43l0,.08L505,19.72Z"/><path class="cls-33" d="M323.69,67.69l-28.63,7.75c0,.09,0,.18-.1.21l28.79-7.8A.69.69,0,0,0,323.69,67.69Z"/><path class="cls-33" d="M78.82,103.19l16.73-4.53-.08-.16-16.87,4.57Z"/><path class="cls-33" d="M202.23,101.74c-.07,0-.08.11,0,.19l70.5-19.09a1.36,1.36,0,0,0-.06-.17Z"/><path class="cls-33" d="M160.48,110.38a.35.35,0,0,0-.16.21l38.34-10.37-.07-.15Z"/><path class="cls-33" d="M395.84,19.09,396,19l-.2,0-1.48.42,1.53-.41Z"/><path class="cls-33" d="M449.47,12.83l.12,0-.12,0S449.47,12.83,449.47,12.83Z"/><path class="cls-33" d="M449.59,12.8c7.51-2,15-3.91,22.52-5.94l4.08-1.13-.39-.19-1.46.39C466,8.19,457.89,10.47,449.59,12.8Z"/><path class="cls-33" d="M393.48,37.26l0,.08,94.86-25.7-.48-.23L396.33,36.34C395.34,36.61,394.43,37,393.48,37.26Z"/><path class="cls-33" d="M485,10l-.44-.21c0,.09.09.2.13.3Z"/><path class="cls-33" d="M450.77,11.53a1,1,0,0,0,.12.16L475,5.16l-.14-.07L464.37,7.86C459.84,9,455.31,10.3,450.77,11.53Z"/><path class="cls-33" d="M281.08,48.46,272,50.92c-6.86,1.85-13.65,3.65-20.55,5.48L281.23,49Z"/><path class="cls-33" d="M250.37,56.67l-.13.06.19-.05Z"/><path class="cls-33" d="M247,58.12c1.18-.4,2.2-.94,3.28-1.4-16.42,4.5-32.7,8.95-49.16,13.41-3.59,1-7.17,1.59-10.59,2.6-9.53,2.72-19,5.79-28.58,8.4q-41.2,11.2-82.49,22.38l.68.36L322.17,38.29l-.06-.18L241.78,59.85A46.8,46.8,0,0,1,247,58.12Z"/><path class="cls-33" d="M394.3,19.5,355.83,29.92c5.7-1.32,11.32-2.83,16.92-4.36C380,23.57,387.11,21.55,394.3,19.5Z"/><path class="cls-33" d="M448.68,4.66,464.89.24,464.4,0,400.31,17.36A43.44,43.44,0,0,0,396,19c4.86-1.22,9.82-2.43,14.76-3.77C423.32,11.8,435.94,8.15,448.68,4.66Z"/><path class="cls-33" d="M393.9,38l95.54-25.86-.14-.07L393.86,37.93Z"/></g><polygon id="_Контур_7" data-name="&lt;Контур&gt;" class="cls-34" points="448.6 3.22 502.36 19.63 128.21 118.5 73 93.69 448.6 3.22"/></g></g></g></svg>