<svg xmlns="http://www.w3.org/2000/svg" viewBox="0 0 8.17 6.02"><defs><style>.cls-1{fill:#fff;fill-rule:evenodd;}</style></defs><title>steps-5</title><g id="Слой_2" data-name="Слой 2"><g id="Слой_1-2" data-name="Слой 1"><path class="cls-1" d="M6.76,4.42a.73.73,0,0,0-.52.21h0a.73.73,0,1,0,.52-.22ZM4.4,1.11a.07.07,0,1,1,.14,0V3.26a.07.07,0,1,1-.14,0V1.11Zm-.77,0a.07.07,0,1,1,.14,0V3.26a.07.07,0,1,1-.14,0V1.11ZM3,3.26a.07.07,0,0,1-.07.07.07.07,0,0,1-.07-.07V1.32a.07.07,0,0,1,.07-.07A.07.07,0,0,1,3,1.32V3.26ZM2.08,1.54a.07.07,0,0,1,.14,0V3.26a.07.07,0,1,1-.14,0V1.54ZM1.45,3.26a.07.07,0,0,1-.14,0V1.75a.07.07,0,0,1,.14,0V3.26Zm-.77,0a.07.07,0,1,1-.14,0V2A.07.07,0,0,1,.67,2V3.26Zm4,.24A.29.29,0,0,0,5,3.21V.6a.07.07,0,0,1,0,0L5.25.29V.16l-1,.22L3.71.86l0,0L.36,1.79a.28.28,0,0,0-.21.28V3.21a.29.29,0,0,0,.29.29H4.72Zm.31,0a.43.43,0,0,1-.31.13H4.37v.17h.89V1.46a.07.07,0,0,1,.07-.07h2a.43.43,0,0,1,.26.09h0a.44.44,0,0,1,.16.23l.42,1.5h0v.05a.57.57,0,0,1,0,.06V5.14a.07.07,0,0,1-.07.07H7.85a.07.07,0,0,1-.07-.07,1,1,0,0,0-2,0,.07.07,0,0,1-.07.07H5.41v.14a.07.07,0,0,1-.07.07H3.63a.07.07,0,0,1-.07-.07V5.21H3.39a.07.07,0,0,1-.07-.07h0a1,1,0,0,0-2,0,.07.07,0,0,1-.07.07h0a.43.43,0,0,1-.31-.13.43.43,0,0,1-.13-.31V3.88a.07.07,0,0,1,.07-.07h.32V3.64H.43A.43.43,0,0,1,0,3.21V2.07a.43.43,0,0,1,.32-.42L3.63.74,4.18.26l0,0L5.3,0h0a.07.07,0,0,1,.07.07V.31a.07.07,0,0,1,0,.05L5.15.63V3.21A.43.43,0,0,1,5,3.51Zm.8-1.7a.07.07,0,0,0-.07.07V3.25a.07.07,0,0,0,.07.07H7.67a.07.07,0,0,0,0-.09L7.37,2h0a.25.25,0,0,0-.09-.13h0a.25.25,0,0,0-.15-.05ZM7.13,2H5.9V3.18H7.55L7.23,2h0A.1.1,0,0,0,7.2,2h0L7.13,2ZM4.23,3.81V3.64H1.28v.17H4.23ZM3.56,4H.89v.82a.29.29,0,0,0,.26.29,1.16,1.16,0,0,1,2.32,0h.1V4Zm1.7,0H3.71V5.29H5.26V4Zm2-2.42a.29.29,0,0,1,.17.06h0a.28.28,0,0,1,.1.15L8,3.25H8v0s0,0,0,0V5.07h-.1a1.16,1.16,0,0,0-2.32,0h-.2V1.53Zm-5,3.28A.33.33,0,0,0,2,5.15a.33.33,0,0,0,.1.24h0a.33.33,0,0,0,.47,0h0a.34.34,0,0,0-.24-.57ZM2,4.81a.48.48,0,0,0,0,.68H2a.48.48,0,0,0,.68,0h0a.48.48,0,0,0,.14-.33A.48.48,0,0,0,2,4.81Zm4.8,0A.33.33,0,0,1,7,4.91H7a.33.33,0,0,1,0,.47H7a.33.33,0,0,1-.47-.47h0a.34.34,0,0,1,.24-.1Zm-.34,0a.48.48,0,0,1,.67,0h0a.48.48,0,0,1,0,.68h0a.48.48,0,0,1-.68,0h0a.48.48,0,0,1,0-.68ZM2.3,4.42a.73.73,0,0,0-.52.21h0a.73.73,0,0,0,0,1h0a.73.73,0,0,0,1-1h0a.73.73,0,0,0-.51-.21Zm-.62.11h0a.88.88,0,0,0,0,1.24h0A.87.87,0,0,0,2.92,4.53h0a.87.87,0,0,0-1.23,0Zm4.46,0a.88.88,0,1,1-.25.62.88.88,0,0,1,.25-.62Z"/></g></g></svg>