<svg xmlns="http://www.w3.org/2000/svg" viewBox="0 0 6.94 6.9"><defs><style>.cls-1{fill:#fff;fill-rule:evenodd;}</style></defs><title>steps-1</title><g id="Слой_2" data-name="Слой 2"><g id="Слой_1-2" data-name="Слой 1"><path class="cls-1" d="M.57.16H2.06V.07A.09.09,0,0,1,2.16,0H4.78c.05,0,.09,0,.09.07V.16H6.37a.67.67,0,0,1,.4.13h0a.39.39,0,0,1,.17.31V6.47a.39.39,0,0,1-.17.31h0a.67.67,0,0,1-.4.13H.57a.67.67,0,0,1-.4-.13A.39.39,0,0,1,0,6.47V.59A.39.39,0,0,1,.17.28.67.67,0,0,1,.57.16Zm1.2,4.23h-.3a.09.09,0,0,0-.09.07s0,.07.09.07h.3a.07.07,0,1,0,0-.14Zm0-.83h-.3a.08.08,0,1,0,0,.14h.3a.08.08,0,1,0,0-.14Zm0-.78h-.3c-.05,0-.09,0-.09.07a.09.09,0,0,0,.09.07h.3a.08.08,0,1,0,0-.14Zm0-.78h-.3a.09.09,0,0,0-.09.07s0,.07.09.07h.3a.09.09,0,0,0,.1-.07A.09.09,0,0,0,1.77,2ZM5.39,2h-3a.09.09,0,0,0-.09.07.09.09,0,0,0,.09.07h3c.05,0,.1,0,.1-.07A.09.09,0,0,0,5.39,2Zm0,.78h-3c-.05,0-.09,0-.09.07a.09.09,0,0,0,.09.07h3a.09.09,0,0,0,.1-.07s0-.07-.1-.07Zm-.68,1.6H2.43a.07.07,0,1,0,0,.14H4.71a.07.07,0,1,0,0-.14Zm.68-.83h-3a.08.08,0,1,0,0,.14h3a.08.08,0,1,0,0-.14ZM2.25.23V1H4.68V.14H2.25V.23ZM.8.64H2.06V.3H.57A.45.45,0,0,0,.3.39a.26.26,0,0,0-.11.2V6.47a.26.26,0,0,0,.11.2.45.45,0,0,0,.27.08h5.8a.44.44,0,0,0,.27-.08h0a.26.26,0,0,0,.11-.2V.59a.26.26,0,0,0-.11-.2h0A.44.44,0,0,0,6.37.3H4.87V.64H6.14a.09.09,0,0,1,.09.07V6.35a.09.09,0,0,1-.09.07H.8a.09.09,0,0,1-.1-.07V.71A.09.09,0,0,1,.8.64ZM2.06.78H.9V6.28H6V.78H4.87V1a.09.09,0,0,1-.09.07H2.16A.09.09,0,0,1,2.06,1Z"/></g></g></svg>