<svg xmlns="http://www.w3.org/2000/svg" viewBox="0 0 6.13 5.66"><defs><style>.cls-1{fill:#fff;fill-rule:evenodd;}</style></defs><title>steps-2</title><g id="Слой_2" data-name="Слой 2"><g id="Слой_1-2" data-name="Слой 1"><path class="cls-1" d="M1.17,4.13a.67.67,0,0,0,.19.45.6.6,0,0,0,.43.18h.63a.07.07,0,0,1,.07.07h0v.3l1-.65-1-.65v.3a.07.07,0,0,1-.07.07H2A1.72,1.72,0,0,1,1.41,4a1.16,1.16,0,0,1-.25-.13v.22Zm.09.55A.81.81,0,0,1,1,4.13v-.4H1a.07.07,0,0,1,.13,0,.66.66,0,0,0,.32.22A1.55,1.55,0,0,0,2,4h.35V3.67h0a.08.08,0,0,1,0,0,.07.07,0,0,1,.1,0l1.17.79,0,0a.07.07,0,0,1,0,.1l-1.17.79,0,0a.07.07,0,0,1-.07-.07V4.89H1.8A.74.74,0,0,1,1.26,4.68Z"/><path class="cls-1" d="M4.85,1.79a.67.67,0,0,0-.19-.45.59.59,0,0,0-.43-.18H3.6a.07.07,0,0,1-.07-.07h0V.8l-1,.65,1,.65v-.3a.07.07,0,0,1,.07-.07H4a1.72,1.72,0,0,1,.59.13A1.19,1.19,0,0,1,4.85,2V1.79Zm-.09-.55A.81.81,0,0,1,5,1.78v.4H5a.07.07,0,0,1-.13,0A.66.66,0,0,0,4.55,2,1.57,1.57,0,0,0,4,1.88H3.67v.36h0a.08.08,0,0,1,0,0,.07.07,0,0,1-.1,0L2.38,1.52l0,0a.07.07,0,0,1,0-.1L3.55.61l0,0a.07.07,0,0,1,.07.07V1h.56A.74.74,0,0,1,4.75,1.24Z"/><path class="cls-1" d="M1.2,1.38a1.2,1.2,0,0,1,1.2,1.2.07.07,0,0,1-.07.07H.07A.07.07,0,0,1,0,2.58a1.2,1.2,0,0,1,1.2-1.2Zm.75.45a1.05,1.05,0,0,0-1.8.67h2.1A1.06,1.06,0,0,0,1.94,1.84Z"/><path class="cls-1" d="M1.2,0a.76.76,0,0,1,.54,1.3h0A.76.76,0,1,1,1.2,0Zm.44.33a.62.62,0,1,0,0,.88h0a.62.62,0,0,0,0-.88Z"/><path class="cls-1" d="M4.93,4.39a1.2,1.2,0,0,1,1.2,1.2.07.07,0,0,1-.07.07H3.81a.07.07,0,0,1-.07-.07,1.2,1.2,0,0,1,1.2-1.2Zm.74.45a1.05,1.05,0,0,0-1.79.67H6A1,1,0,0,0,5.68,4.84Z"/><path class="cls-1" d="M4.93,3a.76.76,0,0,1,.54,1.3h0A.76.76,0,1,1,4.93,3Zm.44.33a.62.62,0,1,0,0,.88h0a.62.62,0,0,0,0-.88Z"/></g></g></svg>