<svg xmlns="http://www.w3.org/2000/svg" viewBox="0 0 7.87 5.23"><defs><style>.cls-1{fill:#231f20;fill-rule:evenodd;}</style></defs><title>work-4</title><g id="Слой_2" data-name="Слой 2"><g id="Слой_1-2" data-name="Слой 1"><path class="cls-1" d="M2.67,5.08H4.35a.84.84,0,0,0,.59-.25h0a.84.84,0,0,0,0-1.18h0a.83.83,0,0,0-.59-.24H1A.84.84,0,0,0,.39,4.84h0A.83.83,0,0,0,1,5.09H2.67Zm0-4.55H1a.11.11,0,0,0-.08,0,.11.11,0,0,0,0,.08v.88a.11.11,0,0,0,0,.08h0a.11.11,0,0,0,.08,0H2.64a.11.11,0,0,0,.11-.11V.63a.11.11,0,0,0,0-.08h0a.11.11,0,0,0-.07,0ZM1,.38H2.64a.25.25,0,0,1,.17.07h0a.25.25,0,0,1,.07.18v.88a.25.25,0,0,1-.25.25H1a.26.26,0,0,1-.18-.07h0a.25.25,0,0,1-.08-.18V.63A.25.25,0,0,1,1,.38ZM7.44,5.23H5.51a.07.07,0,0,1-.07-.07.08.08,0,0,1,0,0l1.16-2h0a.43.43,0,0,1,.16-.16h0A.43.43,0,0,1,7,2.88h.23V1.1a.11.11,0,0,0,0-.08h0a.11.11,0,0,0-.08,0h-2l0,0L4.42,2.18V3.27A1,1,0,0,1,5,3.55H5A1,1,0,0,1,5,4.94H5a1,1,0,0,1-.69.29H1a1,1,0,0,1-.69-.29h0A1,1,0,0,1,.91,3.27V2.7H.73A.43.43,0,0,1,.3,2.26V.43A.43.43,0,0,1,.43.13h0A.43.43,0,0,1,.73,0H2.89A.43.43,0,0,1,3.2.13a.43.43,0,0,1,.13.31V2h.44L4.61.55A.43.43,0,0,1,4.77.39h0A.43.43,0,0,1,5,.34H7.44a.43.43,0,0,1,.43.43v4a.43.43,0,0,1-.13.31h0a.43.43,0,0,1-.3.13Zm-1.8-.14h1.8A.29.29,0,0,0,7.64,5h0a.29.29,0,0,0,.08-.2V3H7a.29.29,0,0,0-.15,0h0a.27.27,0,0,0-.1.11h0L5.64,5.08Zm-.18,0,.06,0a.08.08,0,0,0-.06,0ZM2.89.14a.28.28,0,0,1,.2.08.29.29,0,0,1,.08.2V2.26a.29.29,0,0,1-.08.2h0a.29.29,0,0,1-.2.08H.73a.29.29,0,0,1-.29-.29V.43A.29.29,0,0,1,.53.23h0A.28.28,0,0,1,.73.14ZM4.74.63,3.93,2h.42L5,1A.25.25,0,0,1,5,.88H5a.26.26,0,0,1,.13,0H7.11a.25.25,0,0,1,.18.07h0a.25.25,0,0,1,.07.18V2.88h.36V.77A.29.29,0,0,0,7.44.48H5a.29.29,0,0,0-.15,0h0a.29.29,0,0,0-.1.11ZM4.28,3.27V2.17h-1v.09a.43.43,0,0,1-.13.31h0a.43.43,0,0,1-.31.13H1.05v.57H4.28ZM1,3.86a.39.39,0,0,1,.28.66h0a.39.39,0,0,1-.55,0h0A.39.39,0,0,1,.7,4h0A.39.39,0,0,1,1,3.86Zm-.38,0A.53.53,0,0,1,1,3.72a.53.53,0,0,1,.38.91h0a.53.53,0,0,1-.75,0h0a.53.53,0,0,1,0-.75Zm2.06,0A.38.38,0,0,1,2.94,4h0a.39.39,0,1,1-.55,0h0a.39.39,0,0,1,.28-.11Zm-.38,0a.54.54,0,0,1,.75,0H3a.53.53,0,1,1-.76,0Zm2.06,0A.39.39,0,1,1,4.08,4h0a.39.39,0,0,1,.28-.11ZM4,3.87a.53.53,0,1,1-.16.38A.53.53,0,0,1,4,3.87Z"/></g></g></svg>