<svg xmlns="http://www.w3.org/2000/svg" viewBox="0 0 4.72 6.08"><defs><style>.cls-1{fill:#231f20;fill-rule:evenodd;}</style></defs><title>work-5</title><g id="Слой_2" data-name="Слой 2"><g id="Слой_1-2" data-name="Слой 1"><path class="cls-1" d="M4.29.14H.43a.28.28,0,0,0-.2.08h0a.29.29,0,0,0-.08.2V5.65a.29.29,0,0,0,.29.29H4.29a.29.29,0,0,0,.2-.08h0a.29.29,0,0,0,.08-.2V.43A.29.29,0,0,0,4.29.14ZM3.43,5a.07.07,0,0,1-.14,0V4.86a.07.07,0,0,1,.14,0V5Zm0-.54a.07.07,0,0,1-.14,0V4.33a.07.07,0,1,1,.14,0v.15ZM3,4.75A.07.07,0,0,1,3,4.6H3.7a.07.07,0,1,1,0,.14ZM1.07,4.48a.07.07,0,1,1,.1-.1l.19.19.19-.19a.07.07,0,0,1,.1.1l-.19.19.19.19a.07.07,0,0,1,0,.1.07.07,0,0,1-.1,0l-.19-.19L1.18,5a.07.07,0,1,1-.1-.1l.19-.19-.19-.19Zm.63-1.65a.07.07,0,1,1,0,.14H1.44v.28a.07.07,0,1,1-.14,0V3H1a.07.07,0,1,1,0-.14h.27V2.57a.07.07,0,1,1,.14,0v.26ZM3,3a.07.07,0,0,1,0-.14H3.7A.07.07,0,1,1,3.7,3Zm-.44.91H4.13A.07.07,0,0,1,4.21,4V5.33a.07.07,0,0,1-.07.07H2.57a.07.07,0,0,1-.07-.07V4a.07.07,0,0,1,.07-.07ZM4.06,4V5.26H2.65V4ZM2.57,2.16H4.13a.07.07,0,0,1,.07.07V3.59a.07.07,0,0,1-.07.07H2.57a.07.07,0,0,1-.07-.07V2.23a.07.07,0,0,1,.07-.07Zm1.49.14V3.52H2.65V2.3ZM.59,3.9H2.15A.07.07,0,0,1,2.22,4V5.33a.07.07,0,0,1-.07.07H.59a.07.07,0,0,1-.07-.07V4A.07.07,0,0,1,.59,3.9ZM2.07,4V5.26H.66V4ZM.59,2.16H2.15a.07.07,0,0,1,.07.07V3.59a.07.07,0,0,1-.07.07H.59a.07.07,0,0,1-.07-.07V2.23a.07.07,0,0,1,.07-.07Zm1.49.14V3.52H.66V2.3ZM.59.61H4.13a.07.07,0,0,1,.07.07V1.77a.07.07,0,0,1-.07.07H.59a.07.07,0,0,1-.07-.07V.68A.07.07,0,0,1,.59.61ZM4.06.75V1.7H.66V.75ZM.43,0H4.29a.43.43,0,0,1,.43.43V5.65A.43.43,0,0,1,4.59,6h0a.43.43,0,0,1-.3.13H.43A.43.43,0,0,1,0,5.65V.43A.43.43,0,0,1,.13.13h0A.43.43,0,0,1,.43,0Z"/></g></g></svg>