<svg xmlns="http://www.w3.org/2000/svg" viewBox="0 0 6.7 6.62"><defs><style>.cls-1{fill:#231f20;fill-rule:evenodd;}</style></defs><title>work-3</title><g id="Слой_2" data-name="Слой 2"><g id="Слой_1-2" data-name="Слой 1"><path class="cls-1" d="M1.25,4A1.25,1.25,0,0,1,1,1.48,1.76,1.76,0,0,1,3.55.2a1.77,1.77,0,0,1,.6.51l.13,0h.18a1.26,1.26,0,0,1,1.17.8A1.25,1.25,0,0,1,5.45,4H5l-.2.36h.61a.07.07,0,0,1,.07.07.08.08,0,0,1,0,0L4.24,6.58a.07.07,0,0,1-.13,0h0V5.11H3.77A.07.07,0,0,1,3.7,5V4H3.23l-1,1.75a.07.07,0,1,1-.12-.07L3.06,4H2l-1,1.75a.07.07,0,1,1-.12-.07L1.79,4ZM4.81,4h-1V5h.33A.07.07,0,0,1,4.25,5V6.27l1-1.81H4.61a.07.07,0,0,1,0-.1L4.81,4ZM.47,3.49a1.1,1.1,0,0,0,.78.33H5.45a1.11,1.11,0,0,0,.12-2.21.07.07,0,0,1-.06,0,1.11,1.11,0,0,0-1-.75H4.3l-.16,0h0a.07.07,0,0,1-.08,0,1.62,1.62,0,0,0-.58-.5,1.61,1.61,0,0,0-1.8.22,1.61,1.61,0,0,0-.53,1,.07.07,0,0,1-.06.07A1.11,1.11,0,0,0,.47,3.49Z"/></g></g></svg>