<svg xmlns="http://www.w3.org/2000/svg" viewBox="0 0 5.82 7.52"><defs><style>.cls-1{fill:#231f20;fill-rule:evenodd;}</style></defs><title>work-2</title><g id="Слой_2" data-name="Слой 2"><g id="Слой_1-2" data-name="Слой 1"><path class="cls-1" d="M4.37,2.18l-.49-.06h0c-.29,0-.63,0-1,0a8.08,8.08,0,0,0-1.44.1l.1.05a9.21,9.21,0,0,0,1.35.1,9.54,9.54,0,0,0,1.39-.11l.1-.05ZM4,.46V2a3.78,3.78,0,0,1,.55.08h0c0-.68,0-1.29-.55-1.58ZM3.81,2V.33l-.15,0-.15,0v1.7l.29,0Zm-.44,0V.17l-.18,0H2.64l-.18,0V1.94h.91Zm-1.06,0V.25l-.15,0L2,.33v0H2V2l.29,0ZM1.87,2V.46c-.57.29-.56.9-.55,1.57v0A3.74,3.74,0,0,1,1.87,2Zm-.39.39v.08s0,.06,0,.08v0h0a1.87,1.87,0,0,0,.12.63,2.2,2.2,0,0,0,.33.6l.12.14h0a1.62,1.62,0,0,0,.35.28,1,1,0,0,0,.5.15,1,1,0,0,0,.5-.15,1.74,1.74,0,0,0,.48-.43,2.2,2.2,0,0,0,.33-.6,1.85,1.85,0,0,0,.12-.63h0a0,0,0,0,1,0,0s0,0,0,0h0v0s0,0,0-.09h0a9.66,9.66,0,0,1-1.42.11,9.18,9.18,0,0,1-1.38-.1h0ZM2.13.14l.18,0A.07.07,0,0,1,2.37,0l.25,0H3.2l.25,0A.07.07,0,0,1,3.51.1l.18,0L3.9.21A.07.07,0,0,1,4,.28v0c.72.31.71,1,.69,1.75v.1h0l-.11.06v.17s0,0,0,0v0h0a2,2,0,0,1-.13.68A2.35,2.35,0,0,1,4,3.87L3.89,4s0,.09,0,.15A4.92,4.92,0,0,0,4,4.7l.24.15a3,3,0,0,1,1.19.48,1,1,0,0,1,.44.78h0v1a.43.43,0,0,1-.13.31h0a.43.43,0,0,1-.31.13h-5A.43.43,0,0,1,0,7.09v-1a1,1,0,0,1,.44-.78,3.07,3.07,0,0,1,1.19-.48l.25-.16a4.77,4.77,0,0,0,0-.55c0-.06,0-.11,0-.15l-.11-.13a2.38,2.38,0,0,1-.35-.64,2,2,0,0,1-.13-.68h0s0-.06,0-.08,0-.09,0-.1V2.29l-.1-.06a.07.07,0,0,1,0,0,.1.1,0,0,1,0,0V2c0-.75,0-1.42.69-1.73v0h0a.07.07,0,0,1,0-.07L2.13.14Zm1.62,4v0c0,.18,0,.42.05.55l-.89.51L2,4.71a5.35,5.35,0,0,0,0-.55v0a1.67,1.67,0,0,0,.27.2,1.15,1.15,0,0,0,.58.17,1.15,1.15,0,0,0,.58-.17,1.7,1.7,0,0,0,.27-.19Zm-1.81.69-.17.11.83.79.06-.11h0l.16-.29-.88-.5ZM1.6,5a2.85,2.85,0,0,0-1.08.44.83.83,0,0,0-.38.66v1a.29.29,0,0,0,.29.29H2.71l-.12-.22h0l-.21-.38h0A6.66,6.66,0,0,1,1.6,5ZM3.12,7.38H5.39a.29.29,0,0,0,.29-.29v-1h0a.84.84,0,0,0-.38-.66A2.84,2.84,0,0,0,4.22,5a6.67,6.67,0,0,1-.76,1.77h0l-.2.35h0l-.14.25Zm.94-2.44-.17-.1L3,5.33l.16.29h0l.06.11.82-.79ZM1.8,5.16A6.56,6.56,0,0,0,2.49,6.7h0l.11.19,0-.24c0-.25.07-.49.1-.78h0a0,0,0,0,0,0,0v0h0l0,.06h0v0a.07.07,0,0,1-.1,0L1.8,5.16ZM3.23,6.87l.09-.17h0A6.61,6.61,0,0,0,4,5.17l-.75.73a.07.07,0,0,1-.1,0v0h0l0-.06h0v0a0,0,0,0,0,0,0c0,.29.07.53.1.78l0,.22ZM3,5.66l-.11-.21-.11.21,0,.11,0,.05a.19.19,0,0,1,0,.07h0c0,.27-.07.53-.1.78l-.06.43h0l.15.27H3l.17-.3h0l-.05-.41C3,6.42,3,6.17,3,5.9a.16.16,0,0,1,0-.07l0-.05Z"/></g></g></svg>