<svg xmlns="http://www.w3.org/2000/svg" xmlns:xlink="http://www.w3.org/1999/xlink" height="91" width="57" viewBox="0 0 35.6 58.68"><defs><style>.cls-1{fill:url(#linear-gradient);}.cls-2{fill:url(#linear-gradient-2);}.cls-3{fill:url(#linear-gradient-3);}.cls-4{fill:url(#linear-gradient-4);}.cls-5{fill:url(#linear-gradient-5);}.cls-6{fill:url(#linear-gradient-6);}.cls-7{fill:url(#linear-gradient-7);}.cls-8{fill:url(#linear-gradient-8);}.cls-9{fill:url(#linear-gradient-9);}.cls-10{fill:url(#linear-gradient-10);}.cls-11{fill:url(#linear-gradient-11);}.cls-12{fill:url(#linear-gradient-12);}.cls-13{fill:url(#linear-gradient-13);}.cls-14{fill:url(#linear-gradient-14);}.cls-15{fill:url(#linear-gradient-15);}.cls-16{fill:url(#linear-gradient-16);}</style><linearGradient id="linear-gradient" x1="4.48" y1="45.4" x2="4.48" y2="-16.57" gradientUnits="userSpaceOnUse"><stop offset="0" stop-color="#fff"/><stop offset="1" stop-color="#1f1f1f"/></linearGradient><linearGradient id="linear-gradient-2" x1="19.32" y1="45.4" x2="19.32" y2="-16.57" xlink:href="#linear-gradient"/><linearGradient id="linear-gradient-3" x1="19.14" y1="45.4" x2="19.14" y2="-16.57" xlink:href="#linear-gradient"/><linearGradient id="linear-gradient-4" x1="2.48" y1="45.4" x2="2.48" y2="-16.57" xlink:href="#linear-gradient"/><linearGradient id="linear-gradient-5" x1="10.96" y1="45.4" x2="10.96" y2="-16.57" xlink:href="#linear-gradient"/><linearGradient id="linear-gradient-6" x1="19.43" y1="45.4" x2="19.43" y2="-16.57" xlink:href="#linear-gradient"/><linearGradient id="linear-gradient-7" x1="15.09" y1="45.4" x2="15.09" y2="-16.56" xlink:href="#linear-gradient"/><linearGradient id="linear-gradient-8" x1="6.82" y1="45.4" x2="6.82" y2="-16.56" xlink:href="#linear-gradient"/><linearGradient id="linear-gradient-9" x1="4.48" y1="-157.88" x2="4.48" y2="-124.09" xlink:href="#linear-gradient"/><linearGradient id="linear-gradient-10" x1="19.32" y1="-157.88" x2="19.32" y2="-124.09" xlink:href="#linear-gradient"/><linearGradient id="linear-gradient-11" x1="19.14" y1="-157.9" x2="19.14" y2="-124.1" xlink:href="#linear-gradient"/><linearGradient id="linear-gradient-12" x1="2.48" y1="-157.85" x2="2.48" y2="-124.06" xlink:href="#linear-gradient"/><linearGradient id="linear-gradient-13" x1="10.96" y1="-157.85" x2="10.96" y2="-124.06" xlink:href="#linear-gradient"/><linearGradient id="linear-gradient-14" x1="19.43" y1="-157.85" x2="19.43" y2="-124.06" xlink:href="#linear-gradient"/><linearGradient id="linear-gradient-15" x1="15.09" y1="-157.91" x2="15.09" y2="-124.11" xlink:href="#linear-gradient"/><linearGradient id="linear-gradient-16" x1="6.82" y1="-157.91" x2="6.82" y2="-124.11" xlink:href="#linear-gradient"/></defs><title>basket</title><g id="Слой_2" data-name="Слой 2"><g id="Layer_1" data-name="Layer 1"><circle class="cls-1" cx="4.48" cy="33.45" r="4.05"/><circle class="cls-2" cx="19.32" cy="33.45" r="4.05"/><path class="cls-3" d="M34.37,58.68H30.55A1.37,1.37,0,0,1,29.42,58L20.85,42.17H3.92a1.37,1.37,0,0,1,0-2.72H21.78a1.12,1.12,0,0,1,1,.54l8.81,16.24h2.79a1.23,1.23,0,1,1,0,2.45Z"/><path class="cls-4" d="M2.06,50.05h.83A2.07,2.07,0,0,1,5,52.12v.82A2.07,2.07,0,0,1,2.9,55H2.07A2.07,2.07,0,0,1,0,52.94v-.83A2.06,2.06,0,0,1,2.06,50.05Z"/><path class="cls-5" d="M10.54,50.05h.83a2.06,2.06,0,0,1,2.06,2.06v.83A2.07,2.07,0,0,1,11.37,55h-.83a2.07,2.07,0,0,1-2.07-2.07v-.83A2.06,2.06,0,0,1,10.54,50.05Z"/><path class="cls-6" d="M19,50.05h.83a2.06,2.06,0,0,1,2.06,2.06v.83A2.07,2.07,0,0,1,19.84,55H19a2.07,2.07,0,0,1-2.07-2.07v-.83A2.07,2.07,0,0,1,19,50.05Z"/><rect class="cls-7" x="12.61" y="44.68" width="4.96" height="4.96" rx="2.07" ry="2.07"/><rect class="cls-8" x="4.34" y="44.68" width="4.96" height="4.96" rx="2.07" ry="2.07"/><circle class="cls-9" cx="4.48" cy="25.23" r="4.05"/><circle class="cls-10" cx="19.32" cy="25.23" r="4.05"/><path class="cls-11" d="M34.37,0H30.55a1.37,1.37,0,0,0-1.14.72L20.85,16.51H3.92a1.37,1.37,0,0,0,0,2.72H21.78a1.12,1.12,0,0,0,1-.54L31.58,2.45h2.79a1.23,1.23,0,1,0,0-2.45Z"/><rect class="cls-12" y="3.67" width="4.96" height="4.96" rx="2.07" ry="2.07"/><path class="cls-13" d="M10.54,3.67h.83a2.07,2.07,0,0,1,2.07,2.07v.83a2.07,2.07,0,0,1-2.07,2.07h-.83A2.07,2.07,0,0,1,8.48,6.56V5.73A2.06,2.06,0,0,1,10.54,3.67Z"/><path class="cls-14" d="M19,3.67h.83a2.06,2.06,0,0,1,2.06,2.06v.83a2.07,2.07,0,0,1-2.07,2.07H19a2.07,2.07,0,0,1-2.07-2.07V5.73A2.06,2.06,0,0,1,19,3.67Z"/><rect class="cls-15" x="12.61" y="9.04" width="4.96" height="4.96" rx="2.07" ry="2.07"/><rect class="cls-16" x="4.34" y="9.04" width="4.96" height="4.96" rx="2.07" ry="2.07"/></g></g></svg>