<?xml version="1.0" encoding="UTF-8" standalone="no"?>
<svg
   xmlns:dc="http://purl.org/dc/elements/1.1/"
   xmlns:cc="http://creativecommons.org/ns#"
   xmlns:rdf="http://www.w3.org/1999/02/22-rdf-syntax-ns#"
   xmlns:svg="http://www.w3.org/2000/svg"
   xmlns="http://www.w3.org/2000/svg"
   id="svg8"
   version="1.1"
   viewBox="0 0 43.91301 43.908932"
   height="43.908932mm"
   width="43.91301mm">
  <defs
     id="defs2" />
  <metadata
     id="metadata5">
    <rdf:RDF>
      <cc:Work
         rdf:about="">
        <dc:format>image/svg+xml</dc:format>
        <dc:type
           rdf:resource="http://purl.org/dc/dcmitype/StillImage" />
        <dc:title></dc:title>
      </cc:Work>
    </rdf:RDF>
  </metadata>
  <g
     transform="translate(78.649021,-89.087187)"
     id="layer1">
    <path
       id="path23"
       d="m -44.936434,126.89816 -6.097964,-6.09796 -1.574242,0.94968 c -2.71432,1.63745 -4.739585,2.11972 -8.850286,2.1075 -3.346243,-0.01 -3.708844,-0.0628 -5.740166,-0.83611 -2.855638,-1.08718 -4.701678,-2.3463 -6.915464,-4.7168 -3.118516,-3.33928 -4.534465,-7.01358 -4.534465,-11.76668 0,-5.26145 1.739424,-9.238302 5.634322,-12.881787 5.504536,-5.149224 14.266994,-6.059058 20.725983,-2.152045 3.531989,2.136484 6.172679,5.418756 7.599945,9.446422 0.737394,2.08089 0.807696,2.5691 0.804619,5.58741 -0.003,2.92686 -0.08794,3.55077 -0.738574,5.42396 -0.404362,1.16416 -1.083709,2.684 -1.509659,3.37741 -0.425953,0.69341 -0.774457,1.34922 -0.774457,1.45737 0,0.10814 2.738438,2.93311 6.085417,6.27772 3.966012,3.9632 6.085412,6.2693 6.085412,6.62146 0,0.78204 -2.63146,3.30041 -3.448609,3.30041 -0.50011,0 -2.087676,-1.43382 -6.751812,-6.09796 z m -12.739169,-9.2507 c 1.930963,-0.59641 4.421857,-2.29426 5.559639,-3.78957 1.098656,-1.44389 2.048161,-3.68534 2.378776,-5.61546 0.832673,-4.86111 -1.947378,-10.006451 -6.600473,-12.216195 -5.841568,-2.774149 -12.710339,-0.246768 -15.535739,5.716415 -0.780976,1.64829 -0.830318,1.93324 -0.830318,4.79514 0,2.87457 0.04681,3.14152 0.847051,4.8309 2.562175,5.40896 8.494006,8.03533 14.181064,6.27877 z"
       style="fill:#469da3;stroke-width:0.26458335" />
    <path
       id="path21"
       d=""
       style="fill:#000000;stroke-width:0.26458335" />
  </g>
</svg>
