<svg xmlns="http://www.w3.org/2000/svg" xmlns:xlink="http://www.w3.org/1999/xlink" width="38" height="34" viewBox="0 0 38 34"><defs><path id="a" d="M1329.14 986.62c0 1-.66 1.81-1.74 2.06-.01 0-.07 0-.07.08v.76c0 .21-.17.38-.38.38h-.34a.38.38 0 0 1-.38-.38v-.72c0-.06-.05-.08-.07-.08-.04 0-.99-.16-1.47-.42a.32.32 0 0 1-.16-.39l.17-.48a.36.36 0 0 1 .5-.2s.8.38 1.4.38c.68 0 1.17-.37 1.17-.91 0-.5-.34-.83-1.18-1.17-1.04-.4-2-.94-2-2.12 0-.96.63-1.71 1.64-1.96.02 0 .08-.03.08-.08v-.73c0-.2.17-.38.38-.38h.33c.21 0 .38.17.38.38v.7c0 .04.05.05.06.06.01 0 .81.14 1.23.32.12.06.22.2.15.38l-.18.48a.35.35 0 0 1-.5.18s-.52-.27-1.19-.27c-.75 0-1.02.42-1.02.78 0 .45.3.7 1.3 1.11 1.33.53 1.9 1.2 1.9 2.24zm6.61-1.54a9 9 0 0 1-8.92 9.08 9 9 0 0 1-8.93-9.08 9 9 0 0 1 8.93-9.08 9 9 0 0 1 8.92 9.08zm-2.07 0a6.92 6.92 0 0 0-6.85-6.98 6.92 6.92 0 0 0-6.86 6.98 6.92 6.92 0 0 0 6.86 6.98 6.92 6.92 0 0 0 6.85-6.98zm1.27 16.02c-1.06 1.04-6.6 4.38-8.57 4.85-1.37.32-11.3-1.53-12.44-1.8-.73-.16-1.52.38-2.09.87-.51.44-.58-.2-.57-.24l.54-8.6c.03-.46.32-.45.78-.52 1.35-.23 4.14-.66 5.27-.63 2.4.07 8.01 2.17 8.97 2.39.97.22 1.22 1.9-.55 2.39-2.32.63-6.14-.75-6.14-.36 0 1.06 4.36 1.95 6.68 1.58 2.6-.42 5.2-1.4 7.1-2.47 1.39-.77 2.67.93 1.02 2.54zm-25.2-4.75l-.63 8.42a.77.77 0 0 1-.79.71h-5.76c-.4-.01-.65-.35-.55-.75l.95-8.73c.1-.4.5-.7.9-.69l5.21.26c.4.02.7.37.67.78zm-2.3 6.51c0-.8-.64-1.46-1.43-1.46-.8 0-1.44.65-1.44 1.46 0 .81.64 1.46 1.44 1.46.8 0 1.44-.65 1.44-1.46z"/></defs><g transform="translate(-1300 -974)"><use fill="#479ea4" xlink:href="#a"/></g></svg>