<svg xmlns="http://www.w3.org/2000/svg" xmlns:xlink="http://www.w3.org/1999/xlink" width="45" height="40" viewBox="0 0 45 40"><defs><path id="a" d="M1338.96 1074.58l-.48 3.02-28.97-6.04.47-3.02a1.98 1.98 0 0 1 2.34-1.5l25.11 5.24a1.95 1.95 0 0 1 1.53 2.3zm-11.66 5.2l10.09 2.1-1.77 8.24a1.98 1.98 0 0 1-2.34 1.5l-2.8-.58.74 2.65a1.97 1.97 0 0 1-1.38 2.42l-24.96 6.82a2 2 0 0 1-2.46-1.37l-4.35-15.44a1.96 1.96 0 0 1 1.39-2.42l7.72-2.11 1.24-5.75 11.23 2.34 4.77-1.3a2 2 0 0 1 2.45 1.36zm3.08 7.26l2.92.61c.44.1.87-.19.96-.62l.62-2.87a.8.8 0 0 0-.63-.95l-2.91-.6a.81.81 0 0 0-.97.61l-.61 2.87a.8.8 0 0 0 .62.95zm-30.74-1.35l.85 3.02 25.67-7.02-.65-2.29-.2-.73a.38.38 0 0 0-.46-.25l-1.75.48-16.3 4.45-6.9 1.9a.37.37 0 0 0-.26.44zm29.05 4.97l-1.57-5.55-25.67 7.02 2.54 9a.38.38 0 0 0 .45.26l24.96-6.83a.36.36 0 0 0 .22-.17.35.35 0 0 0 .04-.27zm-19.4 6.94a.8.8 0 0 1-.57.99l-2.92.8a.82.82 0 0 1-1-.56l-.8-2.87a.8.8 0 0 1 .56-.99l2.91-.8a.82.82 0 0 1 1 .56z"/></defs><g transform="translate(-1296 -1065)"><use fill="#479ea4" xlink:href="#a"/></g></svg>