<?xml version="1.0" encoding="UTF-8" standalone="no"?>
<!-- Created with Inkscape (http://www.inkscape.org/) -->

<svg
   xmlns:dc="http://purl.org/dc/elements/1.1/"
   xmlns:cc="http://creativecommons.org/ns#"
   xmlns:rdf="http://www.w3.org/1999/02/22-rdf-syntax-ns#"
   xmlns:svg="http://www.w3.org/2000/svg"
   xmlns="http://www.w3.org/2000/svg"
   xmlns:sodipodi="http://sodipodi.sourceforge.net/DTD/sodipodi-0.dtd"
   xmlns:inkscape="http://www.inkscape.org/namespaces/inkscape"
   width="43.040462mm"
   height="43.083858mm"
   viewBox="0 0 43.040463 43.083859"
   version="1.1"
   id="svg8"
   inkscape:version="0.92.1 r15371"
   sodipodi:docname="te.svg">
  <defs
     id="defs2" />
  <sodipodi:namedview
     id="base"
     pagecolor="#ffffff"
     bordercolor="#666666"
     borderopacity="1.0"
     inkscape:pageopacity="0.0"
     inkscape:pageshadow="2"
     inkscape:zoom="0.35"
     inkscape:cx="1161.5136"
     inkscape:cy="-58.556934"
     inkscape:document-units="mm"
     inkscape:current-layer="layer1"
     showgrid="false"
     inkscape:window-width="1366"
     inkscape:window-height="715"
     inkscape:window-x="-8"
     inkscape:window-y="-8"
     inkscape:window-maximized="1"
     fit-margin-top="0"
     fit-margin-left="0"
     fit-margin-right="0"
     fit-margin-bottom="0" />
  <metadata
     id="metadata5">
    <rdf:RDF>
      <cc:Work
         rdf:about="">
        <dc:format>image/svg+xml</dc:format>
        <dc:type
           rdf:resource="http://purl.org/dc/dcmitype/StillImage" />
        <dc:title></dc:title>
      </cc:Work>
    </rdf:RDF>
  </metadata>
  <g
     inkscape:label="Layer 1"
     inkscape:groupmode="layer"
     id="layer1"
     transform="translate(201.48381,-90.256287)">
    <path
       style="fill:#000000;stroke-width:0.26458335"
       d=""
       id="path21"
       inkscape:connector-curvature="0" />
    <path
       style="fill:#ffffff;stroke-width:0.26458332"
       d="m -171.41033,132.97534 c -6.40381,-1.15804 -14.30091,-6.31559 -20.73436,-13.54149 -5.44471,-6.11536 -8.82822,-12.63297 -9.26974,-17.85619 -0.25301,-2.993072 0.0182,-3.525843 3.71659,-7.302275 4.10795,-4.194571 4.97063,-4.659449 6.33573,-3.414154 0.35893,0.327422 1.79432,2.7658 3.18976,5.418618 3.16038,6.008071 3.16762,6.075321 0.90777,8.428721 l -1.62939,1.69684 0.30731,1.02571 c 1.15824,3.86588 8.92596,11.69454 12.90719,13.00847 0.94845,0.31302 0.95186,0.31129 2.58391,-1.30625 1.75084,-1.73528 2.86161,-2.24344 4.1169,-1.88342 1.2966,0.37185 9.76561,5.52312 10.21966,6.21609 0.76909,1.17379 0.31292,1.92837 -3.40376,5.63031 -4.53047,4.5125 -4.8962,4.66591 -9.24757,3.87902 z"
       id="path36"
       inkscape:connector-curvature="0" />
  </g>
</svg>
