<svg xmlns="http://www.w3.org/2000/svg" viewBox="0 0 49.33 49.33"><defs><style>.cls-1{fill:#fff;}.cls-2{fill:#3baae3;}.cls-3{fill:#4a494a;}</style></defs><title>Ресурс 1</title><g id="Слой_2" data-name="Слой 2"><g id="Слой_1-2" data-name="Слой 1"><path class="cls-1" d="M24.67,46.33A21.67,21.67,0,1,1,46.33,24.67,21.69,21.69,0,0,1,24.67,46.33Z"/><path class="cls-2" d="M24.67,4A20.67,20.67,0,1,1,4,24.67,20.69,20.69,0,0,1,24.67,4m0-2A22.67,22.67,0,1,0,47.33,24.67,22.67,22.67,0,0,0,24.67,2Z"/><path class="cls-3" d="M24.67,2A22.67,22.67,0,1,1,2,24.67,22.67,22.67,0,0,1,24.67,2m0-2A24.67,24.67,0,1,0,49.33,24.67,24.69,24.69,0,0,0,24.67,0Z"/><path class="cls-2" d="M16.55,30.92l-5.18-9.59v9.27a.75.75,0,0,1-.74.74.72.72,0,0,1-.7-.74V19.08a.76.76,0,0,1,.77-.79.86.86,0,0,1,.76.43l5.18,9.57V19a.75.75,0,0,1,.74-.74.72.72,0,0,1,.7.74V30.54a.78.78,0,0,1-.79.79A.88.88,0,0,1,16.55,30.92Z"/><path class="cls-2" d="M26.62,31.15H21.86c-.59,0-1.13-.2-1.13-.85v-11a.87.87,0,0,1,.85-.85h4.88a.72.72,0,0,1,.72.72.69.69,0,0,1-.72.68H22.16v4.21H26.1a.71.71,0,0,1,.7.7.69.69,0,0,1-.7.7H22.16v4.26h4.46a.71.71,0,0,1,.72.67A.73.73,0,0,1,26.62,31.15Z"/><path class="cls-2" d="M35.23,21.26l-2.09,9.07c-.13.47-.36,1-1,1s-.85-.47-1-1L28.53,19.19s0-.2,0-.2c0-.4.43-.63.81-.63a.64.64,0,0,1,.65.52l2.23,9.59,2.09-9.14c.16-.67.32-1,.94-1s.77.41.92,1l2.09,9.14,2.23-9.59a.66.66,0,0,1,.61-.52c.38,0,.86.2.86.65a1.59,1.59,0,0,1,0,.2L39.22,30.32c-.13.52-.41,1-1,1s-.85-.5-1-1Z"/></g></g></svg>