<svg xmlns="http://www.w3.org/2000/svg" viewBox="0 0 40.07 36.99"><defs><style>.cls-1{opacity:0.4;}</style></defs><title>i-1</title><g id="Слой_2" data-name="Слой 2"><g id="Layer_1" data-name="Layer 1"><g class="cls-1"><path d="M11.48,37h0a3.86,3.86,0,0,1-3.53-2.31L.53,17.76C-1.33,13.51,2.18,7.24,3.68,4.57L4,4A7.52,7.52,0,0,1,12.54.24L13,.37c.54.13,1.3.32,2.17.57a1.42,1.42,0,0,1,.34,2.58,4.65,4.65,0,0,0-1.73,1.8L13.46,6c-1.07,1.91-4.32,7.7-3,10.67L17.65,33.1A1.42,1.42,0,0,1,16.92,35L13,36.67A3.83,3.83,0,0,1,11.48,37ZM10.64,2.83A4.69,4.69,0,0,0,6.51,5.31L6.15,6c-1.07,1.91-4.32,7.7-3,10.67l7.42,16.92a1,1,0,0,0,.94.61h0a1,1,0,0,0,.41-.09l2.59-1.14L7.83,17.76C6,13.51,9.48,7.24,11,4.57L11.31,4a7.24,7.24,0,0,1,.62-1l-.1,0A4.65,4.65,0,0,0,10.64,2.83Z"/><path d="M18.78,37h0a3.86,3.86,0,0,1-3.53-2.31L7.83,17.76C6,13.51,9.48,7.24,11,4.57L11.31,4a7.48,7.48,0,0,1,2.78-2.9,7.47,7.47,0,0,1,.84-.45A7.53,7.53,0,0,1,19.84.24l.52.13C24.71,1.44,30.69,3.3,32.33,7L39.74,24a3.86,3.86,0,0,1-2,5.08L20.33,36.67A3.83,3.83,0,0,1,18.78,37ZM17.94,2.83a4.65,4.65,0,0,0-1.88.4,4.23,4.23,0,0,0-.47.26,4.7,4.7,0,0,0-1.78,1.83L13.46,6c-1.07,1.91-4.32,7.7-3,10.67l7.42,16.92a1,1,0,0,0,.94.61h0a1,1,0,0,0,.41-.09l17.43-7.64a1,1,0,0,0,.53-1.35L29.73,8.17c-.84-1.91-4.22-3.61-10-5L19.12,3A4.68,4.68,0,0,0,17.94,2.83Z"/><path d="M19.12,13.32a3.5,3.5,0,0,1-3.5-3.5,2.46,2.46,0,0,1,0-.34,3.49,3.49,0,0,1,6.95,0,3.26,3.26,0,0,1,0,.38,3.5,3.5,0,0,1-3.5,3.5Zm0-4.5a1,1,0,0,0-1,.89v.11a1,1,0,0,0,2,0V9.7a1,1,0,0,0-.22-.52A1,1,0,0,0,19.12,8.82Z"/></g></g></g></svg>