<svg xmlns="http://www.w3.org/2000/svg" xmlns:xlink="http://www.w3.org/1999/xlink" viewBox="0 0 165.92 57.3"><defs><style>.cls-1{fill:url(#linear-gradient);}</style><linearGradient id="linear-gradient" x1="64.32" y1="-2.51" x2="98.47" y2="54.58" gradientUnits="userSpaceOnUse"><stop offset="0" stop-color="#00adee"/><stop offset="1" stop-color="#652d90"/></linearGradient></defs><title>link-1</title><g id="Слой_2" data-name="Слой 2"><g id="Layer_1" data-name="Layer 1"><path class="cls-1" d="M66,30.22a4.94,4.94,0,0,0-4.49,2.37H61.5l-.16-2.11h-2.6q.11,2.24.11,4.37V49.19h3v-7a4.09,4.09,0,0,0,3.8,1.89,5.42,5.42,0,0,0,4.1-1.75A7.52,7.52,0,0,0,71.55,37,7.34,7.34,0,0,0,70,32.08,4.94,4.94,0,0,0,66,30.22Zm1.56,10.26A3,3,0,0,1,65,41.77a3,3,0,0,1-2.31-1,3.54,3.54,0,0,1-.89-2.45V36.1a4,4,0,0,1,.13-.9,3.4,3.4,0,0,1,1.16-1.91,3.13,3.13,0,0,1,4.56.59,5.46,5.46,0,0,1,.87,3.2A5.67,5.67,0,0,1,67.61,40.48ZM30,11.19H17a3,3,0,0,0-3,3V43.1a3,3,0,0,0,3,3H30a3,3,0,0,0,3-3V14.22A3,3,0,0,0,30,11.19Zm-8,3.07h3A.36.36,0,1,1,25,15H22a.36.36,0,0,1,0-.71Zm1.51,30.25A1.57,1.57,0,1,1,25,42.95,1.57,1.57,0,0,1,23.47,44.51ZM31.16,40H15.79V17.29H31.16ZM47.4,25.34,41.47,43.79h3.06l1.64-5.41h6l1.72,5.41H57l-6-18.45ZM46.69,36.1l1.53-4.82c.41-1.54.69-2.69.88-3.48h.05q.68,2.73.94,3.48l1.55,4.82Zm95-5.91A5.69,5.69,0,0,0,137,32.32a7.66,7.66,0,0,0-1.64,5,6.72,6.72,0,0,0,1.77,4.88A6.45,6.45,0,0,0,142,44a11,11,0,0,0,4.46-.82L146,41.16a9.67,9.67,0,0,1-3.59.63,4.37,4.37,0,0,1-2.9-.93,3.84,3.84,0,0,1-1.29-3h8.87a7.41,7.41,0,0,0,.11-1.34A7.21,7.21,0,0,0,146,32.32,4.94,4.94,0,0,0,141.65,30.19Zm-3.45,5.55a4.39,4.39,0,0,1,.88-2.29,2.83,2.83,0,0,1,2.35-1.21,2.6,2.6,0,0,1,2.36,1.23,4.05,4.05,0,0,1,.57,2.27Zm-29.81-8.56-2.9.88v2.44h-1.94V32.7h1.94v6.71a5.19,5.19,0,0,0,1,3.58,3.52,3.52,0,0,0,2.74,1.07,6.68,6.68,0,0,0,2.3-.33l-.08-2.24a5.39,5.39,0,0,1-1.31.13c-1.15,0-1.73-.81-1.73-2.46V32.7h3.26V30.49h-3.26Zm-10.15,6a9.71,9.71,0,0,1-2.68-1.42,2.28,2.28,0,0,1-.85-1.81,2.22,2.22,0,0,1,.74-1.68,3.68,3.68,0,0,1,2.45-.76,7.32,7.32,0,0,1,3.54.85l.75-2.41A9,9,0,0,0,98,25.07a6.79,6.79,0,0,0-4.53,1.45,4.66,4.66,0,0,0-1.71,3.73q0,3.47,4.84,5.28a7.22,7.22,0,0,1,2.54,1.42,2.58,2.58,0,0,1,.76,1.88,2.46,2.46,0,0,1-.93,2,4.05,4.05,0,0,1-2.6.75,8.26,8.26,0,0,1-4.26-1.15l-.69,2.46a8.81,8.81,0,0,0,4.78,1.15,7.28,7.28,0,0,0,5-1.61,4.93,4.93,0,0,0,1.64-3.83,4.7,4.7,0,0,0-1.12-3.2A9,9,0,0,0,98.23,33.17Zm20.88-3a6.19,6.19,0,0,0-4.83,2,7.23,7.23,0,0,0-1.79,5.06,7.08,7.08,0,0,0,1.73,4.9,6,6,0,0,0,4.67,1.94,6.27,6.27,0,0,0,4.87-2,7.3,7.3,0,0,0,1.75-5,7,7,0,0,0-1.69-4.87A6.06,6.06,0,0,0,119.12,30.22Zm2.52,10A2.94,2.94,0,0,1,119,41.87a3,3,0,0,1-2.68-1.58,5.88,5.88,0,0,1-.8-3.14,6,6,0,0,1,.8-3.19,3.07,3.07,0,0,1,5.37,0,6,6,0,0,1,.79,3.14A5.85,5.85,0,0,1,121.63,40.26ZM158.2,0H7.72A7.73,7.73,0,0,0,0,7.72V49.59A7.73,7.73,0,0,0,7.72,57.3H158.2a7.73,7.73,0,0,0,7.72-7.71V7.72A7.73,7.73,0,0,0,158.2,0Zm5.72,49.59a5.73,5.73,0,0,1-5.72,5.71H7.72A5.73,5.73,0,0,1,2,49.59V7.72A5.73,5.73,0,0,1,7.72,2H158.2a5.73,5.73,0,0,1,5.72,5.72ZM131.55,30.93a4.47,4.47,0,0,0-1.48,2.1H130l-.11-2.55H127.3q.08,1.9.08,4.18v9.12h3v-7a4.4,4.4,0,0,1,.74-2.62A2.8,2.8,0,0,1,133.49,33a5.26,5.26,0,0,1,.93.08V30.27a4.64,4.64,0,0,0-.73,0A3.55,3.55,0,0,0,131.55,30.93Zm-50.89-.71a4.94,4.94,0,0,0-4.49,2.37h-.05l-.17-2.11H73.35q.11,2.24.11,4.37V49.19h3v-7a4.09,4.09,0,0,0,3.79,1.89,5.42,5.42,0,0,0,4.1-1.75A7.52,7.52,0,0,0,86.16,37a7.32,7.32,0,0,0-1.58-4.9A4.93,4.93,0,0,0,80.66,30.22Zm1.56,10.26a3,3,0,0,1-2.61,1.29,3,3,0,0,1-2.31-1,3.54,3.54,0,0,1-.89-2.45V36.1a3.89,3.89,0,0,1,.13-.9,3.41,3.41,0,0,1,1.17-1.91,3.14,3.14,0,0,1,4.56.59,5.48,5.48,0,0,1,.88,3.2A5.66,5.66,0,0,1,82.22,40.48ZM45.55,20.67a4.54,4.54,0,0,0,1.77-.3l-.2-1a3.76,3.76,0,0,1-1.36.24,2.23,2.23,0,0,1-2.38-2.46,2.27,2.27,0,0,1,2.39-2.51,3.35,3.35,0,0,1,1.34.26l.26-1a3.86,3.86,0,0,0-1.65-.3,3.44,3.44,0,0,0-3.65,3.6A3.22,3.22,0,0,0,45.55,20.67Zm30.63-7.26c.88,0,1.38-.39,1.44-1.18h-.87c0,.37-.16.63-.54.63s-.5-.26-.53-.63H74.8A1.2,1.2,0,0,0,76.18,13.41Zm-13.4,4.72a3.25,3.25,0,0,0,1.57-.38h0v2.88h1.25V13.74H64.38v3.08a2.44,2.44,0,0,1-1.15.31A1.15,1.15,0,0,1,62,15.83v-2.1H60.71V16A1.89,1.89,0,0,0,62.78,18.13Zm-13.17-.55h.28c1,0,1.35.6,1.62,1.43a10.68,10.68,0,0,0,.57,1.55h1.34a19.67,19.67,0,0,1-.77-2.05,2.2,2.2,0,0,0-1.72-1.69l2.47-3.08H51.9l-2.09,2.93h-.19V13.74H48.38v6.82h1.23Zm27,.09a20.62,20.62,0,0,0,1.2-2.36h0c-.08.88-.1,1.75-.1,2.84v2.41h1.15V13.74H77.65l-1.8,3.06c-.45.77-.88,1.59-1.24,2.36h0c.06-.91.08-1.91.08-3V13.74H73.51v6.82H74.9Zm9.95-1.2H83.69V13.74H82.44v6.82h1.25v-3h2.88v3h1.25V13.74H86.57Zm6.82,4.09h1.35l-2.22-6.82H90.93l-2.19,6.82H90l.59-1.93h2.16Zm-2.57-2.87L91.34,16c.11-.41.22-.88.32-1.28h0c.1.39.21.86.34,1.28l.54,1.68ZM68.75,13.74l-2.19,6.82h1.29l.59-1.93h2.16l.62,1.93h1.35l-2.22-6.82Zm-.11,3.95L69.16,16c.11-.41.22-.88.32-1.28h0c.1.39.21.86.34,1.28l.54,1.68Zm-11-3.95H56l-2.19,6.82h1.29l.59-1.93h2.16l.62,1.93h1.35Zm-1.7,3.95L56.42,16c.11-.41.22-.88.32-1.28h0c.1.39.21.86.34,1.28l.54,1.68Z"/></g></g></svg>