<svg xmlns="http://www.w3.org/2000/svg" xmlns:xlink="http://www.w3.org/1999/xlink" viewBox="0 0 165.9 57.25"><defs><style>.cls-1{fill:url(#linear-gradient);}</style><linearGradient id="linear-gradient" x1="72.09" y1="-4.88" x2="89.33" y2="48.31" gradientUnits="userSpaceOnUse"><stop offset="0" stop-color="#f07090"/><stop offset="0.53" stop-color="#fcbf7d"/><stop offset="1" stop-color="#98004f"/></linearGradient></defs><title>link-2</title><g id="Слой_2" data-name="Слой 2"><g id="Layer_1" data-name="Layer 1"><path class="cls-1" d="M157.44,0H8.47A8.48,8.48,0,0,0,0,8.47V48.79a8.48,8.48,0,0,0,8.47,8.47h149a8.48,8.48,0,0,0,8.47-8.47V8.47A8.48,8.48,0,0,0,157.44,0Zm6.47,48.79a6.47,6.47,0,0,1-6.47,6.47H8.47A6.48,6.48,0,0,1,2,48.79V8.47A6.47,6.47,0,0,1,8.47,2h149a6.47,6.47,0,0,1,6.47,6.47ZM30.44,29.32c.23.23.34.13.51,0q2.39-2.39,4.79-4.77c.25-.25.26-.35-.07-.54L14.12,11.91a1.94,1.94,0,0,0-1-.28l.18.23Q21.86,20.58,30.44,29.32Zm-.78.64q-3.45-3.47-6.88-7-5.3-5.39-10.6-10.78c-.22-.22-.34-.17-.52,0a2.36,2.36,0,0,0-.58,1.72q0,7.86,0,15.73h0q0,3.29,0,6.59,0,4.66,0,9.32a2.14,2.14,0,0,0,.83,1.82.58.58,0,0,0,.91-.05q8.41-8.42,16.84-16.8C29.9,30.3,29.88,30.18,29.66,30ZM152.23,36.1h0L149,28.52h-2.15l4.35,9.88-2.45,5.32h2l6.61-15.2h-2.15Zm-40.59-7.92a4.72,4.72,0,0,0-3.71,1.66,5.81,5.81,0,0,0-1.45,4,5.64,5.64,0,0,0,1.5,4,5.08,5.08,0,0,0,3.89,1.59,4.94,4.94,0,0,0,2.91-.83,4.72,4.72,0,0,0,1.7-2.06l-1.76-.73a2.84,2.84,0,0,1-2.88,1.81,3.22,3.22,0,0,1-2.29-.93,3.57,3.57,0,0,1-1.07-2.52h8.33l0-.37a5.8,5.8,0,0,0-1.41-4.09A4.86,4.86,0,0,0,111.64,28.18Zm-3.06,4.35a3.51,3.51,0,0,1,1.11-1.85,2.83,2.83,0,0,1,1.9-.69,3,3,0,0,1,2.27.82,2.82,2.82,0,0,1,.83,1.72Zm19.29-8.87h-5.25V39.07h2V32.83h3.27a4.86,4.86,0,0,0,3.39-1.3,4.48,4.48,0,0,0,0-6.57A4.87,4.87,0,0,0,127.87,23.66Zm2,6.44a2.56,2.56,0,0,1-2,.84H124.6V25.55h3.32a2.56,2.56,0,0,1,2,.84,2.65,2.65,0,0,1,0,3.7ZM31.1,31.41c-.29-.3-.44-.34-.76,0q-7.8,7.92-15.63,15.81A3,3,0,0,1,15,47L35,36c.32-.18.3-.27.07-.51C33.76,34.14,32.42,32.78,31.1,31.41Zm72.23,7.67h2V23.66h-2ZM99.56,30h-.09A4,4,0,0,0,98,28.7a4.38,4.38,0,0,0-2.13-.52,4.65,4.65,0,0,0-3.53,1.61,6.14,6.14,0,0,0,0,8,4.64,4.64,0,0,0,3.53,1.61A4.38,4.38,0,0,0,98,38.9a4,4,0,0,0,1.46-1.29h.09v1a3.68,3.68,0,0,1-.94,2.66,3.39,3.39,0,0,1-2.57,1,3.06,3.06,0,0,1-1.84-.58,3,3,0,0,1-1.11-1.44L91.29,41A5.52,5.52,0,0,0,93,43.13a4.78,4.78,0,0,0,3.06.94,5.54,5.54,0,0,0,3.83-1.41,5.26,5.26,0,0,0,1.57-4.12v-10h-1.9Zm-1,6.59a3.23,3.23,0,0,1-4.75,0,3.85,3.85,0,0,1-1-2.77,3.86,3.86,0,0,1,1-2.77,3.23,3.23,0,0,1,4.75,0,3.87,3.87,0,0,1,1,2.78A3.87,3.87,0,0,1,98.58,36.58Zm-13.81-8.4a5.15,5.15,0,0,0-3.9,1.61,5.59,5.59,0,0,0-1.53,4,5.59,5.59,0,0,0,1.53,4,5.54,5.54,0,0,0,7.79,0,5.6,5.6,0,0,0,1.53-4,5.59,5.59,0,0,0-1.53-4A5.16,5.16,0,0,0,84.77,28.18Zm2.42,8.39a3.33,3.33,0,0,1-4.84,0,3.78,3.78,0,0,1-1-2.77,3.79,3.79,0,0,1,1-2.77,3.33,3.33,0,0,1,4.84,0,3.79,3.79,0,0,1,1,2.77A3.78,3.78,0,0,1,87.19,36.57ZM134,39.07h2V23.66h-2ZM73.25,28.18a5.15,5.15,0,0,0-3.9,1.61,5.59,5.59,0,0,0-1.53,4,5.6,5.6,0,0,0,1.53,4,5.54,5.54,0,0,0,7.79,0,5.6,5.6,0,0,0,1.53-4,5.59,5.59,0,0,0-1.53-4A5.15,5.15,0,0,0,73.25,28.18Zm2.42,8.39a3.33,3.33,0,0,1-4.85,0,3.78,3.78,0,0,1-1-2.77,3.79,3.79,0,0,1,1-2.77,3.33,3.33,0,0,1,4.85,0,3.79,3.79,0,0,1,1,2.77A3.78,3.78,0,0,1,75.67,36.57Zm66.15-8.39A4.62,4.62,0,0,0,139,29a4.11,4.11,0,0,0-1.44,1.75l1.81.77a2.11,2.11,0,0,1,1-1.12,3.05,3.05,0,0,1,1.56-.41,2.86,2.86,0,0,1,2,.7,2.35,2.35,0,0,1,.79,1.86v.3a5.67,5.67,0,0,0-2.86-.65,5.42,5.42,0,0,0-3.29,1,3.17,3.17,0,0,0-1.34,2.7,3.21,3.21,0,0,0,1.13,2.56,4.17,4.17,0,0,0,2.81,1,3.89,3.89,0,0,0,3.47-1.81h.08v1.46h1.9V32.7a4.22,4.22,0,0,0-1.33-3.34A4.88,4.88,0,0,0,141.83,28.18Zm1.8,8.52a3.23,3.23,0,0,1-2.23.91,2.66,2.66,0,0,1-1.53-.45,1.41,1.41,0,0,1-.67-1.23,1.88,1.88,0,0,1,.73-1.46,3.28,3.28,0,0,1,2.18-.62,3.9,3.9,0,0,1,2.52.69A2.83,2.83,0,0,1,143.62,36.7Zm-84.2-5.87v1.85H65a4.84,4.84,0,0,1-1.29,3.12,6,6,0,0,1-10.29-4.44,6,6,0,0,1,6-6.16A5.21,5.21,0,0,1,63.65,27L65,25.68A6.31,6.31,0,0,0,62.59,24a7.94,7.94,0,0,0-3.17-.65,7.94,7.94,0,0,0-8,8.05,7.94,7.94,0,0,0,8,8.05,7.47,7.47,0,0,0,5.66-2.28A7,7,0,0,0,67,32a6.64,6.64,0,0,0-.11-1.16ZM43.35,28.28c-2-1.12-4-2.24-6-3.37a.41.41,0,0,0-.59.08q-2.52,2.54-5.07,5c-.22.21-.21.33,0,.54Q33.87,32.78,36,35a.45.45,0,0,0,.66.09c2-1.13,4-2.23,6.07-3.35a8.84,8.84,0,0,0,1-.61,1.64,1.64,0,0,0,.72-1.32A1.84,1.84,0,0,0,43.35,28.28ZM96,17a19.23,19.23,0,0,0,1.13-2.21h0c-.08.83-.1,1.64-.1,2.66v2.26H98.2V13.28H97l-1.69,2.87c-.42.72-.83,1.49-1.16,2.22h0c.06-.86.08-1.8.08-2.82V13.28H93.12v6.41h1.3Zm13.14.89h2l.58,1.82h1.26L111,13.28h-1.49l-2.05,6.41h1.21Zm.68-2.46c.11-.38.21-.83.3-1.2h0c.09.37.2.81.32,1.2L111,17h-1.64ZM91.46,19.17a1.72,1.72,0,0,0,.61-1.33,1.62,1.62,0,0,0-1.29-1.58v0a1.48,1.48,0,0,0,1.07-1.38,1.35,1.35,0,0,0-.67-1.21,3.07,3.07,0,0,0-1.83-.41,9.54,9.54,0,0,0-1.71.14v6.29a11.24,11.24,0,0,0,1.43.09A3.63,3.63,0,0,0,91.46,19.17Zm-2.66-5a3.19,3.19,0,0,1,.66,0c.74,0,1.2.28,1.2.88s-.45.92-1.26.92h-.6Zm0,2.61h.58c.81,0,1.46.3,1.46,1.05s-.68,1.07-1.43,1.07a3.6,3.6,0,0,1-.62,0Zm-27.46,3A4.26,4.26,0,0,0,63,19.51l-.19-.92a3.53,3.53,0,0,1-1.27.23,2.1,2.1,0,0,1-2.23-2.31,2.13,2.13,0,0,1,2.24-2.36,3.15,3.15,0,0,1,1.25.25l.25-.93a3.64,3.64,0,0,0-1.55-.29,3.23,3.23,0,0,0-3.43,3.38A3,3,0,0,0,61.34,19.79ZM54.76,18a1.22,1.22,0,0,1-1,.82,1.53,1.53,0,0,1-.41,0l-.08.94a1.57,1.57,0,0,0,.6.09A2,2,0,0,0,55.42,19a11.18,11.18,0,0,0,1.24-2.5l1.26-3.22H56.68l-.83,2.48c-.16.5-.28.9-.37,1.2h0c-.14-.38-.29-.76-.46-1.18l-1.08-2.5H52.59l2.15,4.39A.38.38,0,0,1,54.76,18Zm28.8,1.78c1.76,0,3.06-1.23,3.06-3.37a3,3,0,0,0-3-3.25,3.08,3.08,0,0,0-3.05,3.37A3,3,0,0,0,83.57,19.79Zm.06-5.68c1.17,0,1.77,1.14,1.77,2.35s-.64,2.4-1.77,2.4-1.78-1-1.78-2.35S82.46,14.11,83.63,14.11Zm22.93,5.58V13.28h-1.17v2.57h-2.71V13.28h-1.17v6.41h1.17V16.87h2.71v2.82Zm-41.08,0h1.17V14.26h1.84v-1H63.65v1h1.83Zm10.25-2.82h2.71v2.82H79.6V13.28H78.43v2.57H75.72V13.28H74.55v6.41h1.17Zm-6.49,2.82.55-1.82h2l.58,1.82h1.26l-2.08-6.41H70.08L68,19.69Zm1.24-4.28c.11-.38.21-.83.3-1.2h0c.09.37.2.81.32,1.2l.5,1.58H70Z"/></g></g></svg>