<?xml version="1.0" encoding="utf-8"?><svg xmlns="http://www.w3.org/2000/svg" xmlns:xlink="http://www.w3.org/1999/xlink"><symbol viewBox="0 0 344.96 344.96" id="check" xmlns="http://www.w3.org/2000/svg"><g data-name="Слой 2"><path d="M321.85 86.24l-40-23.11-23.1-40H212.5L172.48 0l-40 23.11H86.24l-23.11 40-40 23.1v46.21L0 172.48l23.11 40v46.21l40 23.11 23.11 40h46.21l40 23.1 40-23.11h46.21l23.11-40 40-23.11V212.5l23.11-40-23.11-40V86.24zM156.91 243.07a16.79 16.79 0 0 1-23.34 0l-50.45-50.44a16.19 16.19 0 0 1 0-22.89l13.35-13.35a16.19 16.19 0 0 1 22.89 0l25.87 25.87 80.34-80.35a16.19 16.19 0 0 1 22.89 0l13.35 13.35a16.19 16.19 0 0 1 0 22.89z" data-name="Capa 1"/></g></symbol><symbol id="envelope" viewBox="0 0 512 512" xml:space="preserve" xmlns="http://www.w3.org/2000/svg"><style>.bst0{fill:#fff}</style><path class="bst0" d="M449.5 61.2H62.6C28.1 61.2 0 89.3 0 123.8v264.4c0 34.5 28.1 62.6 62.6 62.6h386.8c34.5 0 62.6-28.1 62.6-62.6V123.9c.1-34.5-28-62.7-62.5-62.7zm34 327c0 18.8-15.3 34-34 34H62.6c-18.8 0-34-15.3-34-34V123.9c0-18.8 15.3-34 34-34h386.8c18.8 0 34 15.3 34 34v264.3h.1z"/><path class="bst0" d="M322.9 252.7l125.2-112.3c5.8-5.3 6.4-14.3 1.1-20.2-5.3-5.8-14.3-6.4-20.2-1.1l-172.7 155-33.7-30.1c-.1-.1-.2-.2-.2-.3-.7-.7-1.5-1.4-2.3-2L82.9 119c-5.9-5.3-14.9-4.8-20.2 1.2-5.3 5.9-4.8 14.9 1.2 20.2l126.7 113.2L64.4 371.8c-5.7 5.4-6 14.4-.6 20.2 2.9 3 6.7 4.6 10.5 4.6 3.5 0 7-1.3 9.7-3.8L212.1 273l34.7 31c2.8 2.4 6.1 3.6 9.5 3.6 3.4 0 6.9-1.3 9.5-3.7l35.7-32 127.3 121c2.8 2.6 6.4 3.9 9.9 3.9 3.8 0 7.5-1.5 10.4-4.4 5.4-5.7 5.2-14.8-.5-20.2L322.9 252.7z"/></symbol><symbol viewBox="0 0 473.806 473.806" id="phone-call" xmlns="http://www.w3.org/2000/svg"><path d="M374.456 293.506c-9.7-10.1-21.4-15.5-33.8-15.5-12.3 0-24.1 5.3-34.2 15.4l-31.6 31.5c-2.6-1.4-5.2-2.7-7.7-4-3.6-1.8-7-3.5-9.9-5.3-29.6-18.8-56.5-43.3-82.3-75-12.5-15.8-20.9-29.1-27-42.6 8.2-7.5 15.8-15.3 23.2-22.8 2.8-2.8 5.6-5.7 8.4-8.5 21-21 21-48.2 0-69.2l-27.3-27.3c-3.1-3.1-6.3-6.3-9.3-9.5-6-6.2-12.3-12.6-18.8-18.6-9.7-9.6-21.3-14.7-33.5-14.7s-24 5.1-34 14.7l-.2.2-34 34.3c-12.8 12.8-20.1 28.4-21.7 46.5-2.4 29.2 6.2 56.4 12.8 74.2 16.2 43.7 40.4 84.2 76.5 127.6 43.8 52.3 96.5 93.6 156.7 122.7 23 10.9 53.7 23.8 88 26 2.1.1 4.3.2 6.3.2 23.1 0 42.5-8.3 57.7-24.8.1-.2.3-.3.4-.5 5.2-6.3 11.2-12 17.5-18.1 4.3-4.1 8.7-8.4 13-12.9 9.9-10.3 15.1-22.3 15.1-34.6 0-12.4-5.3-24.3-15.4-34.3l-54.9-55.1zm35.8 105.3c-.1 0-.1.1 0 0-3.9 4.2-7.9 8-12.2 12.2-6.5 6.2-13.1 12.7-19.3 20-10.1 10.8-22 15.9-37.6 15.9-1.5 0-3.1 0-4.6-.1-29.7-1.9-57.3-13.5-78-23.4-56.6-27.4-106.3-66.3-147.6-115.6-34.1-41.1-56.9-79.1-72-119.9-9.3-24.9-12.7-44.3-11.2-62.6 1-11.7 5.5-21.4 13.8-29.7l34.1-34.1c4.9-4.6 10.1-7.1 15.2-7.1 6.3 0 11.4 3.8 14.6 7l.3.3c6.1 5.7 11.9 11.6 18 17.9 3.1 3.2 6.3 6.4 9.5 9.7l27.3 27.3c10.6 10.6 10.6 20.4 0 31-2.9 2.9-5.7 5.8-8.6 8.6-8.4 8.6-16.4 16.6-25.1 24.4-.2.2-.4.3-.5.5-8.6 8.6-7 17-5.2 22.7l.3.9c7.1 17.2 17.1 33.4 32.3 52.7l.1.1c27.6 34 56.7 60.5 88.8 80.8 4.1 2.6 8.3 4.7 12.3 6.7 3.6 1.8 7 3.5 9.9 5.3.4.2.8.5 1.2.7 3.4 1.7 6.6 2.5 9.9 2.5 8.3 0 13.5-5.2 15.2-6.9l34.2-34.2c3.4-3.4 8.8-7.5 15.1-7.5 6.2 0 11.3 3.9 14.4 7.3l.2.2 55.1 55.1c10.3 10.2 10.3 20.7.1 31.3zm-154.2-286.1c26.2 4.4 50 16.8 69 35.8s31.3 42.8 35.8 69c1.1 6.6 6.8 11.2 13.3 11.2.8 0 1.5-.1 2.3-.2 7.4-1.2 12.3-8.2 11.1-15.6-5.4-31.7-20.4-60.6-43.3-83.5s-51.8-37.9-83.5-43.3c-7.4-1.2-14.3 3.7-15.6 11s3.5 14.4 10.9 15.6zm217.2 96.3c-8.9-52.2-33.5-99.7-71.3-137.5s-85.3-62.4-137.5-71.3c-7.3-1.3-14.2 3.7-15.5 11-1.2 7.4 3.7 14.3 11.1 15.6 46.6 7.9 89.1 30 122.9 63.7 33.8 33.8 55.8 76.3 63.7 122.9 1.1 6.6 6.8 11.2 13.3 11.2.8 0 1.5-.1 2.3-.2 7.3-1.1 12.3-8.1 11-15.4z"/></symbol><symbol id="placeholder" viewBox="0 0 512 512" xml:space="preserve" xmlns="http://www.w3.org/2000/svg"><style>.dst0{fill:#fff}</style><path class="dst0" d="M256 0C156.7 0 76 80.7 76 180c0 33.5 9.3 66.3 26.9 94.7L245.8 505c2.7 4.4 7.6 7.1 12.7 7.1h.1c5.2 0 10.1-2.8 12.8-7.3l139.2-232.5c16.6-27.8 25.4-59.7 25.4-92.2C436 80.7 355.3 0 256 0zm128.9 256.8L258.3 468.2 128.4 258.8c-14.6-23.6-22.6-50.9-22.6-78.8 0-82.7 67.5-150.2 150.2-150.2S406.1 97.3 406.1 180c0 27.1-7.4 53.7-21.2 76.8z"/><path class="dst0" d="M256 90c-49.6 0-90 40.4-90 90 0 49.3 39.7 90 90 90 50.9 0 90-41.2 90-90 0-49.6-40.4-90-90-90zm0 150.2c-33.3 0-60.2-27-60.2-60.2 0-33.1 27.1-60.2 60.2-60.2s60.1 27.1 60.1 60.2c0 32.7-26.3 60.2-60.1 60.2z"/></symbol></svg>