<?xml version="1.0" encoding="UTF-8" standalone="no"?>
<svg
   xmlns:dc="http://purl.org/dc/elements/1.1/"
   xmlns:cc="http://creativecommons.org/ns#"
   xmlns:rdf="http://www.w3.org/1999/02/22-rdf-syntax-ns#"
   xmlns:svg="http://www.w3.org/2000/svg"
   xmlns="http://www.w3.org/2000/svg"
   xml:space="preserve"
   style="enable-background:new 0 0 512 512;"
   viewBox="0 0 512 512"
   y="0px"
   x="0px"
   id="Capa_1"
   version="1.1"><metadata
     id="metadata61"><rdf:RDF><cc:Work
         rdf:about=""><dc:format>image/svg+xml</dc:format><dc:type
           rdf:resource="http://purl.org/dc/dcmitype/StillImage" /><dc:title></dc:title></cc:Work></rdf:RDF></metadata><defs
     id="defs59" /><polygon
     id="polygon2"
     points="447.322,166.54 376.331,226.488 351.653,113.791 324.667,108.462 256,207.648   187.333,108.462 160.347,113.791 135.669,226.488 64.678,166.54 40.181,180.32 71.181,378.32 440.819,378.32 471.819,180.32 "
     style="fill:#FFC739;" /><polygon
     id="polygon4"
     points="447.322,166.54 376.331,226.488 351.653,113.791 324.667,108.462 256,207.648 256,378.32   440.819,378.32 471.819,180.32 "
     style="fill:#F79F20;" /><path
     id="path6"
     d="M471,470H41V366.999l12.775-1.916c134.187-20.128,270.264-20.128,404.45,0L471,366.999V470z"
     style="fill:#FF672A;" /><path
     id="path8"
     d="M458.225,365.083C391.132,355.019,323.566,349.987,256,349.987V470h215V366.999L458.225,365.083z"
     style="fill:#FD2D12;" /><g
     id="g14"><path
       id="path10"
       d="M256,430c-11.028,0-20-8.972-20-20s8.972-20,20-20c11.028,0,20,8.972,20,20S267.028,430,256,430z"
       style="fill:#FFE569;" /><path
       id="path12"
       d="M45,192.667c-24.813,0-45-20.187-45-45s20.187-45,45-45s45,20.187,45,45S69.813,192.667,45,192.667z   "
       style="fill:#FFE569;" /></g><path
     id="path16"
     d="M467,192.667c-24.813,0-45-20.187-45-45s20.187-45,45-45s45,20.187,45,45  S491.813,192.667,467,192.667z"
     style="fill:#FFC739;" /><path
     id="path18"
     d="M175,132c-24.813,0-45-20.187-45-45s20.187-45,45-45s45,20.187,45,45S199.813,132,175,132z"
     style="fill:#FFE569;" /><g
     id="g24"><path
       id="path20"
       d="M337,132c-24.813,0-45-20.187-45-45s20.187-45,45-45s45,20.187,45,45S361.813,132,337,132z"
       style="fill:#FFC739;" /><path
       id="path22"
       d="M256,390v40c11.028,0,20-8.972,20-20S267.028,390,256,390z"
       style="fill:#FFC739;" /></g><g
     id="g26" /><g
     id="g28" /><g
     id="g30" /><g
     id="g32" /><g
     id="g34" /><g
     id="g36" /><g
     id="g38" /><g
     id="g40" /><g
     id="g42" /><g
     id="g44" /><g
     id="g46" /><g
     id="g48" /><g
     id="g50" /><g
     id="g52" /><g
     id="g54" /></svg>