<svg xmlns="http://www.w3.org/2000/svg" viewBox="0 0 388.2 512" style="width: 37px;
height: 49px;"><title>medal</title><g id="Слой_2" data-name="Слой 2"><g id="Layer_1" data-name="Layer 1"><path style="fill:#edc770" d="M259.46,63.8A145.49,145.49,0,0,0,90.65,90.87c-51.9,51.89-57.09,134.64-12.08,192.47a8.07,8.07,0,0,0,12.74-9.91c-40-51.42-35.39-125,10.76-171.15A129.38,129.38,0,0,1,252.18,78.2a8.07,8.07,0,1,0,7.28-14.4Z"/><path style="fill:#edc770" d="M323.89,128.24a8.07,8.07,0,0,0-14.41,7.27,129.39,129.39,0,0,1-24.1,150.1c-46.15,46.15-119.73,50.77-171.15,10.76a8.07,8.07,0,1,0-9.91,12.73A145.8,145.8,0,0,0,323.89,128.24Z"/><path style="fill:#edc770" d="M303,97.51c-2-2.26-4.1-4.5-6.24-6.64s-4.38-4.24-6.64-6.24a8.07,8.07,0,0,0-10.69,12.09c2,1.78,4,3.65,5.92,5.56s3.78,3.9,5.56,5.91A8.07,8.07,0,0,0,303,97.51Z"/><path style="fill:#edc770" d="M384.17,208.41a27.38,27.38,0,0,0,0-28.62l-10.61-17.41a11.36,11.36,0,0,1-1.52-7.67l3.16-20.1a27.37,27.37,0,0,0-11-26.5l-16.45-12a11.36,11.36,0,0,1-4.35-6.51l-4.79-19.8A27.37,27.37,0,0,0,318.37,49.6l-19.8-4.79a11.35,11.35,0,0,1-6.51-4.35L280.09,24a27.36,27.36,0,0,0-26.5-11l-20.11,3.16a11.36,11.36,0,0,1-7.67-1.52L208.41,4a27.38,27.38,0,0,0-28.62,0L162.39,14.65a11.36,11.36,0,0,1-7.67,1.52L134.61,13a27.37,27.37,0,0,0-26.5,11l-12,16.45a11.36,11.36,0,0,1-6.51,4.35l-19.8,4.79A27.38,27.38,0,0,0,49.59,69.83L44.8,89.63a11.35,11.35,0,0,1-4.35,6.51L24,108.11a27.37,27.37,0,0,0-11,26.5l3.16,20.11a11.36,11.36,0,0,1-1.52,7.67L4,179.8a27.38,27.38,0,0,0,0,28.62l10.61,17.41a11.36,11.36,0,0,1,1.52,7.67L13,253.59a27.37,27.37,0,0,0,11,26.5l16.45,12a11.35,11.35,0,0,1,4.35,6.51l4.79,19.8a27.37,27.37,0,0,0,20.25,20.25l8.27,2-56,124.81a8.07,8.07,0,0,0,8.32,11.31l45-5.38,25.94,37.19A8.07,8.07,0,0,0,108,512c.25,0,.51,0,.76,0a8.07,8.07,0,0,0,6.61-4.73l57.15-127.48,7.24,4.42a27.38,27.38,0,0,0,28.62,0l7.5-4.57,57.22,127.64a8.07,8.07,0,0,0,6.61,4.73c.25,0,.51,0,.76,0a8.07,8.07,0,0,0,6.62-3.45L313,471.36l45,5.38a8.07,8.07,0,0,0,8.32-11.31l-56-124.88,8-1.92a27.38,27.38,0,0,0,20.25-20.25l4.79-19.8a11.35,11.35,0,0,1,4.35-6.51l16.45-12a27.37,27.37,0,0,0,11-26.5L372,233.49a11.36,11.36,0,0,1,1.52-7.67ZM106.51,487.63,86,458.15a8.06,8.06,0,0,0-7.58-3.4L42.7,459l51-113.72a11.28,11.28,0,0,1,2.46,2.45l12,16.45a27.73,27.73,0,0,0,3.81,4.24L85.08,428.31a8.07,8.07,0,1,0,14.72,6.6l26.74-59.64a27.62,27.62,0,0,0,8.06-.07L154.71,372a11.33,11.33,0,0,1,3.61,0ZM345.83,459l-35.68-4.26a8.06,8.06,0,0,0-7.58,3.4L282,487.63,230.19,372a11.36,11.36,0,0,1,3.29,0l20.1,3.16a27.63,27.63,0,0,0,8.38,0l26.76,59.69a8.07,8.07,0,1,0,14.72-6.6l-26.93-60.08a27.77,27.77,0,0,0,3.57-4l12-16.45a11.33,11.33,0,0,1,2.72-2.64Zm24.55-259-10.62,17.41A27.52,27.52,0,0,0,356.09,236l3.16,20.11A11.3,11.3,0,0,1,354.72,267l-16.46,12a27.51,27.51,0,0,0-10.55,15.76l-4.79,19.8a11.3,11.3,0,0,1-8.36,8.36l-19.8,4.79A27.51,27.51,0,0,0,279,338.27l-12,16.45a11.29,11.29,0,0,1-10.94,4.53L236,356.09a27.52,27.52,0,0,0-18.58,3.68L200,370.39a11.31,11.31,0,0,1-11.81,0l-17.41-10.62a27.5,27.5,0,0,0-18.58-3.68l-20.11,3.16a11.3,11.3,0,0,1-10.94-4.53l-12-16.45a27.51,27.51,0,0,0-15.76-10.55l-19.8-4.79a11.3,11.3,0,0,1-8.36-8.36l-4.79-19.8A27.51,27.51,0,0,0,49.93,279L33.48,267a11.3,11.3,0,0,1-4.53-10.94L32.11,236a27.51,27.51,0,0,0-3.68-18.58L17.81,200a11.3,11.3,0,0,1,0-11.81l10.62-17.41a27.51,27.51,0,0,0,3.68-18.58L28.95,132.1a11.3,11.3,0,0,1,4.53-10.94l16.46-12A27.51,27.51,0,0,0,60.48,93.43l4.79-19.8a11.3,11.3,0,0,1,8.36-8.36l19.8-4.79A27.51,27.51,0,0,0,109.2,49.93l12-16.45a11.29,11.29,0,0,1,10.94-4.53l20.1,3.16a27.5,27.5,0,0,0,18.58-3.68l17.41-10.61a11.31,11.31,0,0,1,11.81,0l17.41,10.62A27.5,27.5,0,0,0,236,32.11L256.11,29A11.3,11.3,0,0,1,267,33.48l12,16.46a27.51,27.51,0,0,0,15.76,10.54l19.8,4.79a11.3,11.3,0,0,1,8.36,8.36l4.79,19.8a27.51,27.51,0,0,0,10.55,15.76l16.45,12a11.3,11.3,0,0,1,4.53,10.94l-3.16,20.1a27.51,27.51,0,0,0,3.68,18.58l10.61,17.41A11.3,11.3,0,0,1,370.39,200Z"/><path style="fill:#edc770" d="M288.52,169a14.44,14.44,0,0,0-12.15-10l-48.55-5.76-20.48-44.4a14.58,14.58,0,0,0-26.48,0l-20.48,44.4L111.83,159a14.58,14.58,0,0,0-8.18,25.18l35.9,33.2-9.53,48A14.63,14.63,0,0,0,144.3,282.8a14.59,14.59,0,0,0,7.14-1.88L194.1,257l42.66,23.88a14.58,14.58,0,0,0,21.42-15.56l-9.53-48,35.89-33.2A14.44,14.44,0,0,0,288.52,169Zm-54.13,39.62a8.07,8.07,0,0,0-2.44,7.5l9.75,49.07L198,240.75a8.07,8.07,0,0,0-7.88,0L146.5,265.19l9.75-49.07a8.06,8.06,0,0,0-2.44-7.5l-36.73-34,49.69-5.89a8.07,8.07,0,0,0,6.38-4.63l21-45.43,21,45.43a8.07,8.07,0,0,0,6.38,4.63l49.68,5.89Z"/></g></g></svg>