<?xml version="1.0" encoding="utf-8"?><svg xmlns="http://www.w3.org/2000/svg" xmlns:xlink="http://www.w3.org/1999/xlink"><symbol viewBox="0 0 40 53" id="basket" xmlns="http://www.w3.org/2000/svg"><title>basket</title><g data-name="Ğ¡Ğ»Ğ¾Ğ¹ 2"><path d="M36.44 6H27V3a3 3 0 0 0-3-3h-8a3 3 0 0 0-3 3v3H3.56A3.56 3.56 0 0 0 0 9.56V14h40V9.56A3.56 3.56 0 0 0 36.44 6zM25 6H15V3a1 1 0 0 1 1-1h8a1 1 0 0 1 1 1zM2 49.27A3.73 3.73 0 0 0 5.73 53h28.54A3.73 3.73 0 0 0 38 49.27V16H2v33.27z" data-name="Capa 1"/></g></symbol></svg>