<?xml version="1.0" encoding="UTF-8" standalone="no"?>
<svg
   xmlns:dc="http://purl.org/dc/elements/1.1/"
   xmlns:cc="http://creativecommons.org/ns#"
   xmlns:rdf="http://www.w3.org/1999/02/22-rdf-syntax-ns#"
   xmlns:svg="http://www.w3.org/2000/svg"
   xmlns="http://www.w3.org/2000/svg"
   id="svg8"
   version="1.1"
   viewBox="0 0 135.31712 101.57744"
   height="101.57744mm"
   width="135.31712mm">
  <defs
     id="defs2" />
  <metadata
     id="metadata5">
    <rdf:RDF>
      <cc:Work
         rdf:about="">
        <dc:format>image/svg+xml</dc:format>
        <dc:type
           rdf:resource="http://purl.org/dc/dcmitype/StillImage" />
        <dc:title></dc:title>
      </cc:Work>
    </rdf:RDF>
  </metadata>
  <g
     transform="translate(-26.86803,-57.967866)"
     id="layer1">
    <path
       id="path21"
       d="m 52.425303,159.38881 c -6.84246,-1.10677 -12.25747,-3.83065 -16.95617,-8.52935 -4.1705,-4.1705 -6.6549,-8.65907 -8.11424,-14.66 -0.64915,-2.66937 -0.64915,-9.86049 0,-12.52985 0.5685,-2.3377 1.63323,-5.33767 2.51867,-7.09653 3.30677,-6.56866 10.45061,-12.7806 16.89183,-14.68831 l 1.08696,-0.32193 0.15947,-3.078221 c 0.37986,-7.33206 3.28526,-13.76963 8.62397,-19.108346 4.0624,-4.062396 8.22754,-6.42183 14.04576,-7.956524 2.74577,-0.724261 8.92511,-0.93728 11.64167,-0.401321 l 1.98437,0.391503 0.76702,-0.966345 c 1.6139,-2.033314 5.081473,-5.14522 7.606033,-6.825886 5.61805,-3.740091 11.950744,-5.649834 18.734774,-5.649834 9.08066,0 17.52855,3.50045 23.95337,9.925267 6.6727,6.672702 10.1154,15.299856 9.88609,24.773796 l -0.0874,3.61052 2.11381,1.39768 c 2.65376,1.75471 7.30229,6.366821 9.04907,8.978171 3.77319,5.64074 5.56756,11.11566 5.81981,17.75728 0.17018,4.48079 -0.27,7.81352 -1.54918,11.72903 -3.3755,10.33237 -11.47088,18.43049 -21.78924,21.79665 -5.20241,1.69718 -3.39613,1.63526 -46.547143,1.59558 -21.547824,-0.0198 -39.475514,-0.0842 -39.839314,-0.14303 z m 81.992657,-9.02827 c 4.46405,-1.19078 8.60872,-3.56819 11.82132,-6.78079 9.24683,-9.24683 9.95195,-23.66266 1.65904,-33.91835 -2.61659,-3.23588 -7.51969,-6.58857 -11.55182,-7.89901 -0.91581,-0.29764 -1.36158,-0.57545 -1.277,-0.79585 0.618,-1.610491 1.22272,-4.126051 1.49268,-6.209361 1.61208,-12.44048 -6.80617,-24.520159 -19.21421,-27.571226 -3.30668,-0.813094 -8.53447,-0.813094 -11.84116,0 -2.71516,0.667642 -5.981764,2.130135 -8.398364,3.760036 -3.30891,2.231726 -6.996686,6.531193 -8.524001,9.93786 l -0.485648,1.08324 -2.027893,-0.87616 c -3.299341,-1.425498 -5.084141,-1.792809 -8.642471,-1.778617 -3.89675,0.01554 -6.24017,0.588649 -9.7297,2.379497 -2.00042,1.02662 -2.8973,1.70897 -4.96787,3.77953 -2.07057,2.07057 -2.75291,2.96745 -3.77954,4.96787 -2.99171,5.82948 -3.27297,11.782121 -0.8535,18.064071 0.12884,0.33452 -0.25286,0.40326 -2.4291,0.4375 -3.28488,0.0517 -5.943,0.74536 -9.13666,2.38436 -2.00042,1.02663 -2.8973,1.70897 -4.96786,3.77953 -2.07057,2.07057 -2.75291,2.96745 -3.77954,4.96787 -1.82326,3.55271 -2.36918,5.82516 -2.36918,9.86199 0,4.03684 0.54592,6.30929 2.36918,9.86199 1.02663,2.00042 1.70897,2.8973 3.77954,4.96787 2.06599,2.066 2.96093,2.74753 4.90798,3.7376 5.37134,2.73133 2.29665,2.56733 46.963533,2.50502 l 38.761464,-0.0541 z m -52.756197,-20.42601 -12.69793,-12.7 h 8.53178 8.531775 v -12.7 -12.700001 h 8.466668 8.466664 v 12.700001 12.7 h 8.53178 8.53178 l -12.69793,12.7 c -6.98386,6.985 -12.758394,12.7 -12.832294,12.7 -0.0739,0 -5.848431,-5.715 -12.832293,-12.7 z"
       style="fill:#010101;stroke-width:0.26458332" />
  </g>
</svg>
