<svg xmlns="http://www.w3.org/2000/svg"  width="79px"   height="73px" fill="#fad546"   viewBox="0 0 512 510.36"><defs><style>.cls-1{fill:#ffc637;}</style></defs><title>fomr-i-2</title><g id="Слой_2" data-name="Слой 2"><g id="Capa_1" data-name="Capa 1"><path class="cls-1" d="M453,360.5a7.51,7.51,0,0,0-8.19,1.63l-82.13,82.13A7.52,7.52,0,0,0,368,457.08h82.13a7.51,7.51,0,0,0,7.52-7.52V367.44A7.52,7.52,0,0,0,453,360.5Zm-66.86,81.55,56.47-56.47v56.47Z"/><path class="cls-1" d="M507.36,240a7.51,7.51,0,0,0-8.19,1.63l-22.51,22.51v-153a7.51,7.51,0,0,0-7.52-7.51H411.41l21-21h0l20.2-20.2a22.92,22.92,0,0,0,0-32.41L429.22,6.71a22.92,22.92,0,0,0-32.41,0L376.61,26.92,352.19,51.33l-52.3,52.3H66.62V29.29a7.51,7.51,0,0,0-7.51-7.51A59.17,59.17,0,0,0,0,80.88V400.07a7.53,7.53,0,0,0,.18,1.61,56.92,56.92,0,0,0,56.75,52.6H286.57l-43.25,43.25a7.52,7.52,0,0,0,5.31,12.83H504.48a7.51,7.51,0,0,0,7.52-7.52V247A7.52,7.52,0,0,0,507.36,240ZM407.44,17.34a7.89,7.89,0,0,1,11.15,0l23.36,23.35a7.89,7.89,0,0,1,0,11.15L427.06,66.74,392.55,32.23ZM381.92,42.86l34.51,34.5L402.64,91.15l-34.5-34.5ZM497,331.43H483.11a7.52,7.52,0,0,0,0,15H497v22.65H483.11a7.52,7.52,0,0,0,0,15H497v22.64H483.11a7.52,7.52,0,0,0,0,15H497v22.65H483.11a7.52,7.52,0,0,0,0,15H497v35.84H266.77l75.91-75.91a7.52,7.52,0,0,0-10.63-10.63l-30.46,30.46H56.93a41.66,41.66,0,0,1-41.86-40.54q.06-2.14.33-4.24v0q.13-1,.3-2l0-.23q.16-.88.35-1.75l.11-.48q.17-.74.37-1.47c.07-.26.15-.52.22-.79s.22-.76.34-1.14.25-.75.38-1.12.18-.52.28-.78c.18-.49.38-1,.58-1.46l.17-.42c.26-.6.52-1.19.81-1.78l0-.08a44.24,44.24,0,0,1,30.75-24l.11,0c.62-.13,1.25-.24,1.88-.34l.32-.05c.57-.09,1.15-.15,1.72-.22l.49-.06c.56-.06,1.12-.09,1.68-.13l.53,0Q58,356,59.1,356a7.51,7.51,0,0,0,7.52-7.52V294a7.51,7.51,0,1,0-15,0v47.45a58.7,58.7,0,0,0-33.76,16.33c-1,1-1.9,1.95-2.81,3V80.88A44.15,44.15,0,0,1,51.59,37.45V263.93h0a7.51,7.51,0,1,0,15,0h0V118.67H284.86l-41.54,41.54a7.51,7.51,0,1,0,10.63,10.63l54.37-54.37h0l49.18-49.19L392,101.78l-4,4h0L236.42,257.37l-34.5-34.5L231.79,193a7.51,7.51,0,0,0-10.63-10.63L186,217.55a7.55,7.55,0,0,0-.53.59l-.16.21c-.11.14-.21.28-.31.43l-.16.26c-.08.14-.16.28-.24.43l-.13.29c-.07.15-.13.3-.19.45l-.07.16-14.64,41.48-10,28.28a7.6,7.6,0,0,0-.3,1.14h-25a7.52,7.52,0,0,0,0,15H342.41a7.52,7.52,0,1,0,0-15H193.09l45.83-16.18.11,0,.53-.22.21-.1c.18-.09.36-.19.53-.3l.17-.1c.18-.12.36-.24.53-.38l.13-.1a7.54,7.54,0,0,0,.61-.54L396.38,118.67h65.26V279.21l-107.5,107.5a7.51,7.51,0,0,0,0,10.63,7.68,7.68,0,0,0,.57.52,7.51,7.51,0,0,0,10.06-.52h0L497,265.13ZM222.68,264.88l-21.53,7.6-14.34-14.34,7.6-21.53Z"/></g></g></svg>