<svg xmlns="http://www.w3.org/2000/svg" viewBox="0 0 512 381.8"  width="85px"   height="85px" fill="#fad546"  ><defs><style>.cls-1{fill:#ffc637;}</style></defs><title>fomr-i-1</title><g id="Слой_2" data-name="Слой 2"><g id="Capa_1" data-name="Capa 1"><path class="cls-1" d="M386.05,263.3A45.75,45.75,0,1,0,431.8,309,45.8,45.8,0,0,0,386.05,263.3Zm0,76.5A30.75,30.75,0,1,1,416.8,309,30.79,30.79,0,0,1,386.05,339.8Z"/><path class="cls-1" d="M347.23,174.4H329.92a7.5,7.5,0,0,0,0,15h17.32a7.5,7.5,0,0,0,0-15Z"/><path class="cls-1" d="M118.74,303.75a7.32,7.32,0,0,0-1.13-.94,8,8,0,0,0-1.3-.69,7.45,7.45,0,0,0-1.4-.42,7.23,7.23,0,0,0-2.93,0,7.76,7.76,0,0,0-1.41.42,8,8,0,0,0-1.29.69,7.4,7.4,0,0,0-1.14.94,7.51,7.51,0,0,0-2.2,5.3,7.24,7.24,0,0,0,.15,1.46,7.9,7.9,0,0,0,.43,1.41,7,7,0,0,0,.69,1.29,6.82,6.82,0,0,0,.93,1.14,7.3,7.3,0,0,0,1.14.94,7.91,7.91,0,0,0,1.29.69,7.78,7.78,0,0,0,1.41.42,7.09,7.09,0,0,0,1.46.15,7.34,7.34,0,0,0,1.47-.15,7.45,7.45,0,0,0,1.4-.42,8.09,8.09,0,0,0,1.3-.69,7.88,7.88,0,0,0,2.07-2.08,7.52,7.52,0,0,0,.69-1.29,8.81,8.81,0,0,0,.43-1.41,7.94,7.94,0,0,0,.14-1.46A7.51,7.51,0,0,0,118.74,303.75Z"/><path class="cls-1" d="M393.4,307.58a7.5,7.5,0,0,0-.42-1.4,7.6,7.6,0,0,0-.69-1.29,7.45,7.45,0,0,0-.93-1.14,7.32,7.32,0,0,0-2.44-1.63A7.51,7.51,0,0,0,378.55,309a7.61,7.61,0,0,0,.58,2.87,6.91,6.91,0,0,0,.68,1.29,7.4,7.4,0,0,0,.94,1.14,7.53,7.53,0,0,0,5.3,2.2,7.34,7.34,0,0,0,1.47-.15,7.46,7.46,0,0,0,1.4-.42,7.43,7.43,0,0,0,3.37-2.77,7.53,7.53,0,0,0,.69-1.29,7.87,7.87,0,0,0,.42-1.41,7.16,7.16,0,0,0,.15-1.46A7.4,7.4,0,0,0,393.4,307.58Z"/><path class="cls-1" d="M468.11,146.36H447.76L395.51,61.1a44.7,44.7,0,0,0-37.88-21.21H308V16.55A16.57,16.57,0,0,0,291.48,0H243.6a7.5,7.5,0,0,0,0,15h47.88A1.55,1.55,0,0,1,293,16.55V239.9H136a72.82,72.82,0,0,0-45.19,0H15v-26.7a7.5,7.5,0,1,0-15,0v80.24a18.52,18.52,0,0,0,18.5,18.5H40.76a72.73,72.73,0,0,0,145.36,0H245a7.5,7.5,0,1,0,0-15H185.17a72,72,0,0,0-3.68-13.61H318a72.09,72.09,0,0,0-3.68,13.61H280a7.5,7.5,0,1,0,0,15h33.34a72.73,72.73,0,0,0,145.36,0H488a24,24,0,0,0,24-24V190.25A44,44,0,0,0,468.11,146.36ZM41.71,296.95H18.5A3.5,3.5,0,0,1,15,293.45V283.34H45.39A72.18,72.18,0,0,0,41.71,296.95ZM15,268.34V254.9H64.91a75.55,75.55,0,0,0-11.74,13.43Zm98.44,98.46A57.78,57.78,0,0,1,55.85,305c3.59-51.33,67.65-72.49,101.34-33.55C188.79,308.11,163.32,366.8,113.44,366.8ZM293,268.34H173.71A74.59,74.59,0,0,0,162,254.9H293v13.43ZM308,54.89h49.6a29.61,29.61,0,0,1,25.09,14.05l47.45,77.42H308Zm78,311.91A57.74,57.74,0,1,1,443.81,309,57.82,57.82,0,0,1,386.05,366.8ZM497,288a9,9,0,0,1-9,9H457.78a72,72,0,0,0-3.68-13.61H497V288Zm0-19.65H446.32c-28.74-42.42-91.42-43-120.53,0H308v-107H468.11a28.88,28.88,0,0,1,24.13,13H472.45A19.52,19.52,0,0,0,453,193.9v23.5a19.52,19.52,0,0,0,19.5,19.5H497v8.33H466.43a7.5,7.5,0,0,0,0,15H497v8.1ZM472.45,221.9a4.56,4.56,0,0,1-4.5-4.5V193.9a4.56,4.56,0,0,1,4.5-4.5H497c0,1.41,0-.82,0,32.5Z"/><path class="cls-1" d="M113.44,263.3A45.75,45.75,0,1,0,159.19,309,45.8,45.8,0,0,0,113.44,263.3Zm0,76.5A30.75,30.75,0,1,1,144.19,309,30.78,30.78,0,0,1,113.44,339.8Z"/><path class="cls-1" d="M43.93,31.68a7.5,7.5,0,0,0-7.5,7.5V219.33a7.5,7.5,0,0,0,15,0V39.18A7.5,7.5,0,0,0,43.93,31.68Z"/><path class="cls-1" d="M80.37,31.68a7.5,7.5,0,0,0-7.5,7.5V219.33a7.5,7.5,0,0,0,15,0V39.18A7.5,7.5,0,0,0,80.37,31.68Z"/><path class="cls-1" d="M116.8,31.68a7.5,7.5,0,0,0-7.5,7.5V219.33a7.5,7.5,0,0,0,15,0V39.18A7.5,7.5,0,0,0,116.8,31.68Z"/><path class="cls-1" d="M153.23,31.68a7.5,7.5,0,0,0-7.5,7.5V219.33a7.5,7.5,0,0,0,15,0V39.18A7.5,7.5,0,0,0,153.23,31.68Z"/><path class="cls-1" d="M189.66,31.68a7.5,7.5,0,0,0-7.5,7.5V219.33a7.5,7.5,0,0,0,15,0V39.18A7.5,7.5,0,0,0,189.66,31.68Z"/><path class="cls-1" d="M226.1,31.68a7.5,7.5,0,0,0-7.5,7.5V219.33a7.5,7.5,0,0,0,15,0V39.18A7.5,7.5,0,0,0,226.1,31.68Z"/><path class="cls-1" d="M262.53,31.68a7.5,7.5,0,0,0-7.5,7.5V219.33a7.5,7.5,0,1,0,15,0V39.18A7.5,7.5,0,0,0,262.53,31.68Z"/><path class="cls-1" d="M208.6,0H17.07A17.09,17.09,0,0,0,0,17.07V178.21a7.5,7.5,0,0,0,15,0V17.07A2.07,2.07,0,0,1,17.07,15H208.6a7.5,7.5,0,0,0,0-15Z"/></g></g></svg>