<svg xmlns="http://www.w3.org/2000/svg"  width="84px"   height="84px" fill="#fad546"   viewBox="0 0 514.56 512"><title>preim-3</title><g id="Слой_2" data-name="Слой 2"><g id="Capa_1" data-name="Capa 1"><circle cx="256" cy="230.4" r="51.2"/><path d="M501.76,227.84,455.68,217.6c-5.12-28.16-15.36-53.76-30.72-74.24l25.6-41c2.56-5.12,2.56-10.24-2.56-15.36L425,64c-5.12-5.12-10.24-5.12-15.36-2.56l-41,23c-20.48-15.36-46.08-25.6-74.24-30.72L284.16,7.68C281.6,5.12,276.48,0,271.36,0H240.64c-5.12,0-10.24,5.12-12.8,10.24L217.6,56.32A202,202,0,0,0,140.8,87l-38.4-25.6C97.28,58.88,89.6,58.88,87,64L64,87c-5.12,2.56-5.12,10.24-2.56,15.36l23,41A208,208,0,0,0,53.76,217.6L10.24,227.84C5.12,230.4,0,235.52,0,240.64v30.72c0,5.12,5.12,10.24,10.24,12.8L56.32,297C61.44,325.12,71.68,350.72,87,371.2l-25.6,38.4C58.88,414.72,58.88,419.84,64,425l23,23c5.12,5.12,10.24,5.12,15.36,2.56l41-23c23,15.36,46.08,25.6,74.24,30.72l10.24,46.08c2.56,2.56,7.68,7.68,12.8,7.68h30.72c5.12,0,10.24-5.12,12.8-10.24l10.24-46.08c28.16-5.12,53.76-15.36,74.24-30.72l41,25.6c5.12,2.56,12.8,2.56,15.36-2.56l23-23c5.12-5.12,5.12-10.24,2.56-15.36l-23-41c15.36-23,25.6-46.08,30.72-74.24l46.08-10.24c5.12,0,10.24-7.68,10.24-12.8V240.64A30.85,30.85,0,0,0,501.76,227.84ZM330.24,363.52C320,330.24,291.84,307.2,256,307.2c-33.28,0-64,23-74.24,53.76-33.28-23-53.76-61.44-53.76-105,0-71.68,58.88-128,128-128C389.12,128,427.52,307.2,330.24,363.52Z"/></g></g></svg>