<svg xmlns="http://www.w3.org/2000/svg"  width="92px"   height="81px" fill="#fad546"   viewBox="0 0 297 261.2"><title>preim-2</title><g id="Слой_2" data-name="Слой 2"><g id="Capa_1" data-name="Capa 1"><path d="M289.9,0H7.09A7.09,7.09,0,0,0,0,7.09V65.67a7.09,7.09,0,0,0,6.23,7l283.68.06a7.09,7.09,0,0,0,7.1-7.1V7.09A7.09,7.09,0,0,0,289.9,0ZM59.25,41.4a7.11,7.11,0,1,1,2.08-5A7.16,7.16,0,0,1,59.25,41.4Zm47.14,0a7.11,7.11,0,1,1,2.08-5A7.16,7.16,0,0,1,106.38,41.4Zm47.13,0a7.11,7.11,0,1,1,2.08-5A7.16,7.16,0,0,1,153.52,41.4Zm47.13,0a7.11,7.11,0,1,1,2.08-5A7.14,7.14,0,0,1,200.65,41.4Zm47.13,0a7.09,7.09,0,1,1,2.09-5A7.14,7.14,0,0,1,247.78,41.4Z"/><path d="M148.5,115.9a67,67,0,0,0-66.9,66.92V261.2h16a39.61,39.61,0,0,1-3.86-17.4c0-15.45,17.75-50.65,19.77-54.61a7.09,7.09,0,0,1,6.32-3.87h0a7.09,7.09,0,0,1,6.32,3.87c.12.23,1.65,3.24,3.81,7.8,5.91-13.84,11.84-25.49,12.18-26.15a7.1,7.1,0,0,1,12.64,0c.34.66,6.27,12.31,12.18,26.15,2.16-4.56,3.69-7.56,3.81-7.79a7.1,7.1,0,0,1,6.32-3.87h0a7.09,7.09,0,0,1,6.32,3.87c2,4,19.78,39.16,19.78,54.61a39.59,39.59,0,0,1-3.87,17.4h16V182.82A67,67,0,0,0,148.5,115.9Z"/><path d="M173.14,218a7.1,7.1,0,0,1-13.22-.34c-3.37-9.4-7.82-19.51-11.42-27.26-3.6,7.75-8,17.86-11.42,27.26a7.1,7.1,0,0,1-13.22.34c-1.34-3.2-2.71-6.31-4-9.14-5.95,13.11-11.89,28.34-11.89,35,0,7.85,3.31,14.73,7.82,17.4h65.43c4.51-2.67,7.82-9.55,7.82-17.4,0-6.62-5.94-21.85-11.89-35C175.85,211.66,174.48,214.77,173.14,218Z"/><path d="M23,254.1a7.09,7.09,0,0,0,7.09,7.1h37.3V182.82a81.09,81.09,0,1,1,162.19,0V261.2h37.3a7.09,7.09,0,0,0,7.1-7.1V86.9H23Z"/></g></g></svg>