<svg xmlns="http://www.w3.org/2000/svg" viewBox="0 0 512 458"><defs><style>.cls-1{fill:#ffc637;}</style></defs><title>work-5</title><g id="Слой_2" data-name="Слой 2"><g id="Capa_1" data-name="Capa 1"><path class="cls-1" d="M512,268a46.07,46.07,0,0,0-37.54-45.21A46,46,0,0,0,437.11,150H324.21l16.65-49.45a73.82,73.82,0,0,0-48.49-94.2L272.9.43A10,10,0,0,0,260.58,6.6L230,91.21A105.43,105.43,0,0,1,181.21,148L149.77,165.1A35,35,0,0,0,121,150H35A35,35,0,0,0,0,185V423a35,35,0,0,0,35,35h86a35,35,0,0,0,30.7-18.2l16.56,6.49A168.92,168.92,0,0,0,230.18,458H412a46,46,0,0,0,37.25-72.94A46,46,0,0,0,477,312.67,46.07,46.07,0,0,0,512,268Zm-46,26H364a10,10,0,0,0,0,20h76a26,26,0,0,1,0,52H364a10,10,0,0,0,0,20h48a26,26,0,1,1,0,52H230.18a149,149,0,0,1-54.62-10.33L156,420V299.25a10,10,0,0,0-20,0V423a15,15,0,0,1-15,15H35a15,15,0,0,1-15-15V185a15,15,0,0,1,15-15h5V289.9a10,10,0,0,0,20,0V170h61a15,15,0,0,1,15,15v39.75a10,10,0,0,0,20,0V185c0-.17,0-.34,0-.51l34.79-18.94a125.4,125.4,0,0,0,58-67.53l27.38-75.68,10.4,3.16a53.82,53.82,0,0,1,35.35,68.68l-21.1,62.64A10,10,0,0,0,310.29,170H437.11a26,26,0,0,1,0,52H364a10,10,0,1,0,0,20H466a26,26,0,0,1,0,52Z"/></g></g></svg>