<svg xmlns="http://www.w3.org/2000/svg"   width="70px"   height="58px" viewBox="0 0 512 415.81"><defs><style>.cls-1{fill:#ffc637;}</style></defs><title>work-4</title><g id="Слой_2" data-name="Слой 2"><g id="Capa_1" data-name="Capa 1"><path class="cls-1" d="M479.94,79.13h8.53a7.5,7.5,0,0,0,7.5-7.5V47.07h8.53a7.5,7.5,0,0,0,7.5-7.5V7.5A7.5,7.5,0,0,0,504.5,0H7.5A7.5,7.5,0,0,0,0,7.5V39.56a7.5,7.5,0,0,0,7.5,7.5H16V71.63a7.5,7.5,0,0,0,7.5,7.5h8.53V368.74H23.53a7.5,7.5,0,0,0-7.5,7.5v24.56H7.5a7.5,7.5,0,0,0,0,15h497a7.5,7.5,0,0,0,0-15H496V376.24a7.5,7.5,0,0,0-7.5-7.5h-8.53V79.13Zm1,304.61v17.06H31V383.74H55.6a7.5,7.5,0,1,0,0-15H47.06V175.32h40.6a7.5,7.5,0,0,0,0-15H79.13v-33.1h40.6a7.5,7.5,0,0,0,0-15H47.06V79.13H464.93v81.19H392.27a7.5,7.5,0,0,0,0,15h40.6v33.1h-8.53a7.5,7.5,0,1,0,0,15h40.6v33.1H456.4a7.5,7.5,0,0,0,0,15h8.53v97.23H399.77V288.07c0-79.28-64.5-143.77-143.77-143.77s-143.77,64.5-143.77,143.77v80.68H87.66a7.5,7.5,0,0,0,0,15H481ZM47.06,160.32v-33.1H64.13v33.1Zm417.87,15v33.1H447.87v-33.1ZM274.51,319.4c-6.09-10.5-12.09-19.2-12.34-19.57a7.5,7.5,0,0,0-12.34,0c-.25.36-6.25,9.07-12.34,19.57-11.68,20.14-13,28.36-13,32.79,0,.51,0,1,0,1.51a40.4,40.4,0,0,1-9.09-25.56c0-17.3,25.28-63.75,40.6-89.69,15.31,25.94,40.6,72.39,40.6,89.69a40.4,40.4,0,0,1-9.09,25.56c0-.5,0-1,0-1.51C287.55,347.76,286.2,339.54,274.51,319.4Zm-2,32.79a16.55,16.55,0,1,1-33.1,0c0-5.48,7.78-20.53,16.55-34.47C264.77,331.66,272.55,346.71,272.55,352.19Zm39-24c0-27.89-44.18-100-49.22-108.16a7.5,7.5,0,0,0-12.75,0c-5,8.13-49.22,80.27-49.22,108.16a55.44,55.44,0,0,0,17.67,40.6H127.22V288.06a128.77,128.77,0,1,1,257.55,0v80.68H293.93A55.44,55.44,0,0,0,311.6,328.15ZM31,64.13V47.07H424.34a7.5,7.5,0,0,0,0-15H15V15H497V32.06H456.4a7.5,7.5,0,0,0,0,15H481V64.13Z"/></g></g></svg>