<svg xmlns="http://www.w3.org/2000/svg" viewBox="0 0 512 512"><defs><style>.cls-1{fill:#ffc637;}</style></defs><title>work-1</title><g id="Слой_2" data-name="Слой 2"><g id="Capa_1" data-name="Capa 1"><path class="cls-1" d="M264.26,198.19V512H512V198.19ZM495.48,495.48H280.77V214.71H495.48Z"/><path class="cls-1" d="M16.52,363.35V338.58H165.16V322.06H0v41.29a41.34,41.34,0,0,0,41.29,41.29H247.74V388.13H41.29A24.8,24.8,0,0,1,16.52,363.35Z"/><path class="cls-1" d="M181.68,346.84a24.8,24.8,0,0,0,24.77,24.77h41.29V355.1H206.45a8.27,8.27,0,0,1-8.26-8.26v-8.26h49.55V322.06H181.68Z"/><path class="cls-1" d="M33,41.29A24.8,24.8,0,0,1,57.81,16.52H454.19A24.8,24.8,0,0,1,479,41.29V181.68h16.52V41.29A41.34,41.34,0,0,0,454.19,0H57.81A41.34,41.34,0,0,0,16.52,41.29V305.55H33Z"/><path class="cls-1" d="M462.45,181.68V49.55A16.53,16.53,0,0,0,445.94,33H66.06A16.53,16.53,0,0,0,49.55,49.55v256H66.06v-256H445.94V181.68Z"/><path class="cls-1" d="M173.42,82.58H90.84v82.58h82.58ZM156.9,148.65H107.35V99.1H156.9Z"/><rect class="cls-1" x="189.94" y="82.58" width="198.19" height="16.52"/><rect class="cls-1" x="404.65" y="82.58" width="16.52" height="16.52"/><rect class="cls-1" x="189.94" y="115.61" width="231.23" height="16.52"/><rect class="cls-1" x="189.94" y="148.65" width="231.23" height="16.52"/><rect class="cls-1" x="99.1" y="264.26" width="115.61" height="16.52"/><rect class="cls-1" x="231.23" y="264.26" width="16.52" height="16.52"/><rect class="cls-1" x="99.1" y="198.19" width="115.61" height="16.52"/><rect class="cls-1" x="231.23" y="198.19" width="16.52" height="16.52"/><rect class="cls-1" x="99.1" y="231.23" width="148.65" height="16.52"/><polygon class="cls-1" points="429.42 305.55 412.9 305.55 412.9 330.32 346.84 330.32 346.84 264.26 412.9 264.26 412.9 247.74 330.32 247.74 330.32 346.84 429.42 346.84 429.42 305.55"/><polygon class="cls-1" points="369.19 274.94 357.52 286.61 387.44 316.54 467.52 254.27 457.38 241.22 388.81 294.56 369.19 274.94"/><polygon class="cls-1" points="429.42 421.16 412.9 421.16 412.9 445.94 346.84 445.94 346.84 379.87 412.9 379.87 412.9 363.36 330.32 363.36 330.32 462.45 429.42 462.45 429.42 421.16"/><polygon class="cls-1" points="369.19 390.55 357.52 402.23 387.44 432.15 467.52 369.87 457.38 356.84 388.81 410.17 369.19 390.55"/></g></g></svg>