<svg xmlns="http://www.w3.org/2000/svg" viewBox="0 0 503.45 512"><defs><style>.cls-1{fill:#ffc637;}</style></defs><title>work-3</title><g id="Слой_2" data-name="Слой 2"><g id="Layer_1" data-name="Layer 1"><path class="cls-1" d="M497.16,132.64a8,8,0,1,0-15.22,5c4.53,13.69,5.48,20.75,5.48,24.26a51.84,51.84,0,1,1-103.68,0c0-22.34,32.73-90.79,51.83-128,7.81,15.24,20.73,41.15,31.7,66.34a8,8,0,0,0,14.7-6.4c-17.21-39.5-39.09-80.65-39.31-81.06a8.09,8.09,0,0,0-14.15,0c-6.22,11.68-60.8,115.06-60.8,149.14A67.71,67.71,0,0,0,370,179.58H276.09l1.28-2.33c13.78-25.1,29.4-53.55,29.4-92.27a85,85,0,1,0-170,0,141,141,0,0,0,2.55,26.7,8,8,0,0,0,15.74-3A123.25,123.25,0,0,1,152.85,85a68.94,68.94,0,0,1,137.89,0c0,34.6-13.94,60-27.42,84.55-11,20-21.44,39-23.51,61.35h-36c-2.08-22.31-12.52-41.33-23.51-61.35-4.63-8.43-9.41-17.14-13.61-26.24A8,8,0,1,0,152.11,150c4.43,9.61,9.35,18.58,14.11,27.24l1.28,2.33H106.35a8.11,8.11,0,0,0-5.67,2.35L2.35,280.26A8.11,8.11,0,0,0,0,285.93V504a8,8,0,0,0,8,8h94.42a8,8,0,1,0,0-16H16v-202h90.32a8,8,0,0,0,8-8V195.61H176c7.09,14.25,12.14,28,12.14,43.29,0,19-15.06,46.18-40.27,72.63C123.55,337,100.69,350.6,93.53,350.6H76.42a8,8,0,0,0-8,8v42.76a8,8,0,0,0,8,8h26.19v34.74a8,8,0,0,0,8,8H333a8,8,0,0,0,8-8V409.39h26.19a8,8,0,0,0,8-8V358.61a8,8,0,0,0-8-8h-17.1c-7.16,0-30-13.58-54.32-39.07-25.22-26.45-40.27-53.61-40.27-72.63,0-15.33,5-29,12.14-43.29H376.68a68,68,0,0,0,50.88,33.71V496H143.05a8,8,0,0,0,0,16H435.57a8,8,0,0,0,8-8V229.32a68,68,0,0,0,59.86-67.39C503.45,155,501.39,145.43,497.16,132.64ZM98.34,277.91h-71l71-71Zm226.6,158.2H118.65V409.39h206.3v26.72Zm34.21-69.48v26.72H84.44V366.63Zm-75-44a248.29,248.29,0,0,0,31.48,28H128a248.22,248.22,0,0,0,31.48-28c12.37-13,39.82-44.8,44.13-75.68H240C244.32,277.79,271.77,309.62,284.13,322.59Z"/></g></g></svg>