<svg xmlns="http://www.w3.org/2000/svg" viewBox="0 0 76.2 79.56"><defs><style>.cls-1{fill:#002882;}</style></defs><title>rem-2</title><g id="Слой_2" data-name="Слой 2"><g id="Слой_1-2" data-name="Слой 1"><path class="cls-1" d="M29.94,79.56a4.08,4.08,0,0,1-2.9-1.2L22.9,74.22h0l-1.14-1.14a4.1,4.1,0,0,1,0-5.8L40,49l-.83-.83a1.11,1.11,0,0,1,1.57-1.57l2.67,2.67,2.91-2.91a1.11,1.11,0,0,1,1.57,0l.86.86L70.28,25.72a1.14,1.14,0,0,1,.5-.29l3.15-1.38a1.63,1.63,0,0,1,2.14,2.15l-1.38,3.15a1.12,1.12,0,0,1-.29.5L52.91,51.33l.86.86a1.11,1.11,0,0,1,0,1.57l-2.91,2.91,2.67,2.67A1.11,1.11,0,0,1,52,60.92l-.83-.83L32.84,78.36a4.08,4.08,0,0,1-2.9,1.2Zm-1.69-3.13.36.36a1.87,1.87,0,0,0,2.65,0L49.54,58.51l-6.89-6.89h0l-1-1L23.33,68.85a1.87,1.87,0,0,0,0,2.65l.36.36L39.93,55.61a3.23,3.23,0,0,1,5.52,2.29,3.2,3.2,0,0,1-.95,2.29Zm-3-3,1.42,1.42L42.93,58.61a1,1,0,1,0-1.42-1.42ZM45,50.83l4.26,4.26L51.4,53l-4.26-4.26Zm5.71-1.68.61.61L72.65,28.44l.76-1.73-1.73.76L50.36,48.78ZM12.21,60.74a5.5,5.5,0,0,1-1.44-.19L9,60.06a1.11,1.11,0,0,1-.5-1.86l4.49-4.49a2.76,2.76,0,0,0,0-3.89l-2-2a2.77,2.77,0,0,0-3.9,0L2.54,52.28a1.11,1.11,0,0,1-1.86-.5L.19,50a5.62,5.62,0,0,1,1.45-5.41l3.82-3.82a5.62,5.62,0,0,1,5.41-1.45l2.67.72L40,13.55l-.72-2.67a5.62,5.62,0,0,1,1.45-5.41l3.82-3.82A5.62,5.62,0,0,1,50,.19l1.82.49a1.13,1.13,0,0,1,.79.79,1.11,1.11,0,0,1-.29,1.07L47.8,7a2.76,2.76,0,0,0,0,3.89l2,2a2.76,2.76,0,0,0,3.89,0L58.2,8.45a1.11,1.11,0,0,1,1.86.5l.49,1.82a5.62,5.62,0,0,1-1.45,5.41L55.28,20a5.62,5.62,0,0,1-5.41,1.45l-2.67-.72L20.74,47.19l.71,2.68A5.61,5.61,0,0,1,20,55.28L16.18,59.1a5.62,5.62,0,0,1-4,1.64Zm-.82-2.33a3.38,3.38,0,0,0,3.22-.89l3.82-3.82a3.38,3.38,0,0,0,.87-3.26l-.88-3.3a1.11,1.11,0,0,1,.29-1.07L46.07,18.71a1.11,1.11,0,0,1,1.08-.29l3.29.88a3.38,3.38,0,0,0,3.26-.87l3.82-3.82a3.38,3.38,0,0,0,.89-3.22l-3.12,3.12a5,5,0,0,1-7,0l-2-2a5,5,0,0,1,0-7l3.12-3.12a3.38,3.38,0,0,0-3.22.89L42.31,7a3.38,3.38,0,0,0-.87,3.26l.88,3.3A1.11,1.11,0,0,1,42,14.67L14.67,42a1.12,1.12,0,0,1-1.08.29l-3.29-.88A3.38,3.38,0,0,0,7,42.31L3.21,46.13a3.39,3.39,0,0,0-.88,3.22l3.12-3.12a5,5,0,0,1,7,0l2,2a5,5,0,0,1,0,7Zm0,0"/></g></g></svg>