<svg xmlns="http://www.w3.org/2000/svg" viewBox="0 0 70.13 74.59"><defs><style>.cls-1{fill:#002882;}</style></defs><title>rem-1</title><g id="Слой_2" data-name="Слой 2"><g id="Слой_1-2" data-name="Слой 1"><path class="cls-1" d="M37.09,47.22a4.39,4.39,0,0,0,3.24-1.81L52,29.32a1.25,1.25,0,0,0-1.74-1.74L34.14,39.22a4.43,4.43,0,0,0,2.6,8Zm-2.28-4.56a2,2,0,0,1,.8-1.42l9.82-7.1L38.33,44a1.95,1.95,0,0,1-3.52-1.29Zm0,0"/><path class="cls-1" d="M64.94,24.32s0-.05,0-.08l-.05-.07a34,34,0,0,0-4.43-6l2.66-2.66,1.76,1.75L70.13,12,64.86,6.74,59.58,12l1.76,1.76-2.67,2.67a33.78,33.78,0,0,0-6-4.43L52.63,12l-.08,0A33.34,33.34,0,0,0,39.78,7.7V6.22h1.86a3.11,3.11,0,0,0,0-6.22H30.46a3.11,3.11,0,0,0,0,6.22h1.86V7.65a33.34,33.34,0,0,0-4,.66,1.24,1.24,0,1,0,.55,2.42,32,32,0,0,1,3.45-.59l1.34-.1L34.8,10v2.46a1.24,1.24,0,0,0,2.49,0V10a30.81,30.81,0,0,1,13,3.53l-1.23,2.13a1.25,1.25,0,0,0,.46,1.7,1.3,1.3,0,0,0,.63.16,1.25,1.25,0,0,0,1.07-.62l1.22-2.12a31.23,31.23,0,0,1,9.66,9.66L60,25.65A1.24,1.24,0,0,0,60.61,28a1.3,1.3,0,0,0,.63-.16l2.12-1.23a30.85,30.85,0,0,1,3.54,13.2H64.44a1.24,1.24,0,1,0,0,2.49H66.9a30.87,30.87,0,0,1-3.54,13.2l-2.12-1.23A1.24,1.24,0,1,0,60,56.4l2.12,1.22a31.37,31.37,0,0,1-9.66,9.66l-1.22-2.12a1.24,1.24,0,0,0-2.15,1.24l1.23,2.12a30.86,30.86,0,0,1-13,3.54V69.62a1.24,1.24,0,1,0-2.48,0v2.45a31.34,31.34,0,0,1-5.94-.76,1.24,1.24,0,1,0-.56,2.42,33.7,33.7,0,0,0,7.53.86h.23a33.36,33.36,0,0,0,16.43-4.44l.12,0s0,0,.07-.05A33.78,33.78,0,0,0,64.84,57.9a.57.57,0,0,0,.07-.1s0-.05,0-.08a33.45,33.45,0,0,0,0-33.4Zm-.08-14.06L66.61,12l-1.75,1.76L63.1,12ZM34.8,7.48V3.73H30.46a.62.62,0,1,1,0-1.24H41.65a.62.62,0,0,1,0,1.24H37.29V7.48L36,7.46h-.2l-.61,0Zm0,0"/><path class="cls-1" d="M24.86,17.4H18.65a1.24,1.24,0,0,0,0,2.49h6.22a1.24,1.24,0,0,0,0-2.49Zm0,0"/><path class="cls-1" d="M24.86,26.11H12.43a1.24,1.24,0,1,0,0,2.48H24.86a1.24,1.24,0,1,0,0-2.48Zm0,0"/><path class="cls-1" d="M24.86,34.81H6.22a1.24,1.24,0,0,0,0,2.49H24.86a1.24,1.24,0,0,0,0-2.49Zm0,0"/><path class="cls-1" d="M24.86,43.51H1.24a1.24,1.24,0,1,0,0,2.49H24.86a1.24,1.24,0,1,0,0-2.49Zm0,0"/><path class="cls-1" d="M24.86,52.21H8.71a1.24,1.24,0,1,0,0,2.48H24.86a1.24,1.24,0,1,0,0-2.48Zm0,0"/><path class="cls-1" d="M24.86,60.91H16.16a1.24,1.24,0,0,0,0,2.49h8.71a1.24,1.24,0,0,0,0-2.49Zm0,0"/></g></g></svg>