<svg xmlns="http://www.w3.org/2000/svg" viewBox="0 0 60.33 62.41"><defs><style>.cls-1{fill:#002882;}</style></defs><title>rem-3</title><g id="Слой_2" data-name="Слой 2"><g id="Слой_1-2" data-name="Слой 1"><path class="cls-1" d="M59.29,45.77a1,1,0,0,0-1,1v10.4a3.13,3.13,0,0,1-3.12,3.12H5.2a3.13,3.13,0,0,1-3.12-3.12V15.6c0-1.89,1.76-3.23,3.42-3.68L36.8,2.52c.63-.25,2.68-.81,3.81,0a3.09,3.09,0,0,1,1,2.72,1,1,0,1,0,2.08,0c0-2.09-.65-3.58-1.92-4.44-2.24-1.51-5.4-.31-5.66-.2L4.93,9.91C2.47,10.58,0,12.6,0,15.6V57.21a5.21,5.21,0,0,0,5.2,5.2H55.13a5.21,5.21,0,0,0,5.2-5.2V46.8a1,1,0,0,0-1-1Zm0,0"/></g></g></svg>