<svg xmlns="http://www.w3.org/2000/svg" viewBox="0 0 31.99 31.99"><defs><style>.cls-1{fill:#002882;}</style></defs><title>work-i-1</title><g id="Слой_2" data-name="Слой 2"><g id="Слой_1-2" data-name="Слой 1"><path class="cls-1" d="M30.19,21.47A6.16,6.16,0,0,0,23.93,20L12,8.06A6.16,6.16,0,0,0,3.91.43a.56.56,0,0,0-.19.92L7.28,4.91,4.91,7.28,1.34,3.72a.56.56,0,0,0-.92.19A6.16,6.16,0,0,0,8.06,12l4.45,4.45L7,22,3.45,24a.56.56,0,0,0-.23.24L1.63,27.4a.56.56,0,0,0,.1.65l2,2a.56.56,0,0,0,.65.1l3.17-1.58a.56.56,0,0,0,.24-.23l2-3.53,5.54-5.54L20,23.93a6.16,6.16,0,0,0,8.11,7.64.56.56,0,0,0,.19-.92l-3.56-3.56,2.38-2.38,3.56,3.56a.56.56,0,0,0,.92-.19,6.16,6.16,0,0,0-1.38-6.61ZM8.9,24.05a.57.57,0,0,0-.09.12L6.88,27.62,4.23,28.95,2.82,27.54l1.33-2.65L7.59,23l.12-.09,5.6-5.6,1.19,1.19Zm21.88,2.76-3.29-3.29a.56.56,0,0,0-.79,0l-3.17,3.17a.56.56,0,0,0,0,.79l3.29,3.29A5,5,0,0,1,21.14,24a.56.56,0,0,0-.13-.6L8.6,11a.56.56,0,0,0-.4-.16.55.55,0,0,0-.2,0A5,5,0,0,1,1.22,5.18L4.51,8.47a.56.56,0,0,0,.79,0L8.47,5.3a.56.56,0,0,0,0-.79L5.18,1.22A5,5,0,0,1,10.86,8a.56.56,0,0,0,.13.6L23.39,21a.56.56,0,0,0,.6.13,5,5,0,0,1,6.79,5.68Zm0,0"/></g></g></svg>