<svg xmlns="http://www.w3.org/2000/svg" viewBox="0 0 38.34 38.34"><defs><style>.cls-1{fill:#002882;}</style></defs><title>work-i-2</title><g id="Слой_2" data-name="Слой 2"><g id="Слой_1-2" data-name="Слой 1"><path class="cls-1" d="M36.44,32.78h0V29.06a13.84,13.84,0,0,0-.67-4l-2-4.7H30.51l-2,4.75a13.75,13.75,0,0,0-.65,3.91V30.3H26a1.86,1.86,0,0,1-1.86-1.86V25.87a9.89,9.89,0,0,0,4.95-8.56v-.09a2.47,2.47,0,0,0,1.86-2.39,3.45,3.45,0,0,0-.65-2.12,2.09,2.09,0,0,0,0-.35V11.13A11.13,11.13,0,0,0,8,11.13v1.24a2,2,0,0,0,0,.35,3.45,3.45,0,0,0-.65,2.12,2.47,2.47,0,0,0,1.85,2.39v.09a9.9,9.9,0,0,0,4.95,8.56v2.58a1.86,1.86,0,0,1-1.86,1.86H9.28v-.87a3.93,3.93,0,0,0-1.1-7.15l-.75-.17v3.25H6.18V22.11l-.76.17a3.93,3.93,0,0,0-1.1,7.15V31A7.42,7.42,0,0,0,0,37.72v.62H1.24v-.62A6.19,6.19,0,0,1,6.8,31.57v6.77H8v-6.8H9.89v6.8h1.24v-6.8h1.24a3.08,3.08,0,0,0,.73-.1,6.18,6.18,0,0,0,12.15,0,3.1,3.1,0,0,0,.73.1h1.24v6.8h1.24v-6.8H30.3v6.8h1.24V31.57a6.19,6.19,0,0,1,5.57,6.15v.62h1.24v-.62a7.38,7.38,0,0,0-1.91-4.95ZM8.38,28.51,8,28.68V30.3H7.42a7.37,7.37,0,0,0-1.86.24V28.68l-.34-.17a2.72,2.72,0,0,1-.28-4.72v2.8H8.66V23.79a2.73,2.73,0,0,1-.28,4.73Zm20.68-14.2a4,4,0,0,0,.47-.36,2.6,2.6,0,0,1,.15.89,1.24,1.24,0,0,1-.62,1.06Zm-10.51-13v4.3h1.24V1.27A9.89,9.89,0,0,1,29,10.81c-2.2-1.17-6.82-1.53-9.88-1.53s-7.68.36-9.88,1.53a9.89,9.89,0,0,1,9.26-9.54ZM9.28,15.91a1.23,1.23,0,0,1-.62-1.06A2.62,2.62,0,0,1,8.8,14a4,4,0,0,0,.47.36Zm0-3.54c.12-.63,3.72-1.86,9.89-1.86s9.78,1.23,9.89,1.86c0,1.22-3.7,2.47-9.89,2.47s-9.89-1.26-9.89-2.47Zm1.24,4.94V14.92c2.73,1,7,1.15,8.66,1.15s5.93-.11,8.66-1.15v2.39a8.66,8.66,0,1,1-17.32,0Zm8.66,17.93a5,5,0,0,1-4.91-4.37,3.08,3.08,0,0,0,1.2-2.43v-2a9.81,9.81,0,0,0,7.42,0v2a3.07,3.07,0,0,0,1.2,2.43,5,5,0,0,1-4.91,4.37ZM30.78,30.3H29.06V29.06a12.62,12.62,0,0,1,.57-3.47l1.7-4h.21v5.68a1.84,1.84,0,0,0-.75,3Zm1.37-.62a.62.62,0,1,1,.62-.62.62.62,0,0,1-.62.62Zm3.09,2a7.39,7.39,0,0,0-2.12-1.07,1.84,1.84,0,0,0-.35-3.31V21.64H33l1.68,3.91a12.71,12.71,0,0,1,.59,3.52Zm0,0"/><path class="cls-1" d="M19.79,17.93h5.56V16.7h-6.8v6.18h1.24Zm0,0"/><rect class="cls-1" x="11.13" y="8.04" width="1.24" height="1.24"/><rect class="cls-1" x="13.6" y="7.42" width="1.24" height="1.24"/></g></g></svg>