<?xml version="1.0" encoding="utf-8"?><svg xmlns="http://www.w3.org/2000/svg" xmlns:xlink="http://www.w3.org/1999/xlink"><symbol viewBox="0 0 71 71" id="advantages-1" xmlns="http://www.w3.org/2000/svg"><defs><path id="aa" d="M595.78 2846.28a2.8 2.8 0 0 1-2.6 1.74h-65.37a2.82 2.82 0 0 1-2.81-2.81v-65.38a2.8 2.8 0 0 1 4.8-1.99l28.96 28.96a1.39 1.39 0 0 1-1.96 1.97l-28.96-28.97a.08.08 0 0 0-.02-.01l-.05.02v21.77h2.52a1.39 1.39 0 1 1 0 2.77h-2.52v5h.86a1.39 1.39 0 0 1 0 2.78h-.86v5h2.52a1.39 1.39 0 0 1 0 2.77h-2.52v5h.86a1.39 1.39 0 0 1 0 2.78h-.86v5h2.52a1.39 1.39 0 0 1 0 2.78h-2.52v9.75c0 .02.02.04.04.04h9.75v-2.78a1.39 1.39 0 0 1 2.78 0v2.78h5v-1.11a1.39 1.39 0 1 1 2.77 0v1.1h5v-2.77a1.39 1.39 0 0 1 2.78 0v2.78h5v-1.11a1.39 1.39 0 1 1 2.77 0v1.1h5v-2.77a1.39 1.39 0 0 1 2.78 0v2.78h21.77l.02-.06-.02-.01-28.89-28.9a1.39 1.39 0 0 1 1.97-1.95l28.88 28.88c.81.81 1.05 2.02.61 3.07zm-32.84-34.72a1.39 1.39 0 0 1-2.77 0 1.39 1.39 0 0 1 2.77 0zm4.64 23.04c-.22.52-.72.86-1.28.86h-27.35c-.77 0-1.39-.63-1.39-1.4v-27.34a1.39 1.39 0 0 1 2.37-.98l27.35 27.35c.4.4.51 1 .3 1.5zm-4.63-1.92l-22.61-22.61v22.61zm32.24-14.2l-5.7 5.69a2.77 2.77 0 0 1-3.92 0l-30.64-30.64a1.39 1.39 0 0 1-.28-.4l-6.49-14.15a1.39 1.39 0 0 1 1.84-1.84l14.15 6.5c.15.06.29.16.4.27l9.64 9.64a1.39 1.39 0 0 1-1.96 1.96l-8.66-8.65-5.7 5.7 24.09 24.08 5.7-5.7-8.7-8.7a1.39 1.39 0 0 1 1.96-1.96l14.27 14.27a2.78 2.78 0 0 1 0 3.92zm-38.85-28.32l4.84-4.84-8.94-4.1zm36.89 26.35l-3.61-3.6-5.7 5.7 3.6 3.6zm-15.14-18.49a1.39 1.39 0 0 1-2.37.98 1.4 1.4 0 0 1 0-1.96 1.4 1.4 0 0 1 2.37.98z"/></defs><use xlink:href="#aa" transform="translate(-525 -2777)"/></symbol><symbol viewBox="0 0 75 75" id="advantages-2" xmlns="http://www.w3.org/2000/svg"><defs><path id="ba" d="M999 2777.76v56.26a3.75 3.75 0 0 1-3.75 3.75h-11.26a21.23 21.23 0 0 1-37.48 0h-18.76a3.75 3.75 0 0 1-3.75-3.75v-56.26a3.75 3.75 0 0 1 3.75-3.75h67.5a3.75 3.75 0 0 1 3.75 3.75zm-67.5 6.25h-5v50c0 .7.56 1.26 1.25 1.26h3.75zm0-7.5h-3.75c-.69 0-1.25.56-1.25 1.25v3.75h5zm52.5 51.26a18.75 18.75 0 1 0-37.5 0 18.75 18.75 0 0 0 37.5 0zm-12.5-21.25v-5H959v5zm25 27.5v-50H934v51.25h11.4a21.17 21.17 0 0 1 11.72-27.13 2.48 2.48 0 0 1-.62-1.62v-5a2.5 2.5 0 0 1 2.5-2.5h12.5a2.5 2.5 0 0 1 2.5 2.5v5c0 .6-.22 1.17-.62 1.62a21.17 21.17 0 0 1 11.73 27.13h10.14c.69 0 1.25-.56 1.25-1.25zm0-52.5v-3.76c0-.69-.56-1.25-1.25-1.25H934v5zm-60 12.5v-5a2.5 2.5 0 0 1 2.5-2.5h12.5a2.5 2.5 0 0 1 2.5 2.5v5a2.5 2.5 0 0 1-2.5 2.5H939a2.5 2.5 0 0 1-2.5-2.5zm2.5 0h12.5v-5H939zm17.5 0v-5a2.5 2.5 0 0 1 2.5-2.5h12.5a2.5 2.5 0 0 1 2.5 2.5v5a2.5 2.5 0 0 1-2.5 2.5H959a2.5 2.5 0 0 1-2.5-2.5zm2.5-5v5h12.5v-5zm17.5 5v-5a2.5 2.5 0 0 1 2.5-2.5h12.5a2.5 2.5 0 0 1 2.5 2.5v5a2.5 2.5 0 0 1-2.5 2.5H979a2.5 2.5 0 0 1-2.5-2.5zm2.5-5v5h12.5v-5zm-42.5 17.5v-5a2.5 2.5 0 0 1 2.5-2.5h12.5a2.5 2.5 0 0 1 2.5 2.5v5a2.5 2.5 0 0 1-2.5 2.5H939a2.5 2.5 0 0 1-2.5-2.5zm2.5 0h12.5v-5H939zm37.5 0v-5a2.5 2.5 0 0 1 2.5-2.5h12.5a2.5 2.5 0 0 1 2.5 2.5v5a2.5 2.5 0 0 1-2.5 2.5H979a2.5 2.5 0 0 1-2.5-2.5zm2.5-5v5h12.5v-5zm-42.5 17.5v-5a2.5 2.5 0 0 1 2.5-2.5h7.5a1.25 1.25 0 0 1 0 2.5H939v5h2.5a1.25 1.25 0 0 1 0 2.5H939a2.5 2.5 0 0 1-2.5-2.5zm57.5-5v5a2.5 2.5 0 0 1-2.5 2.5H989a1.25 1.25 0 1 1 0-2.5h2.5v-5H984a1.25 1.25 0 0 1 0-2.5h7.5a2.5 2.5 0 0 1 2.5 2.5zm-25 13.75c0 .69-.56 1.25-1.25 1.25h-2.5c-.69 0-1.25-.56-1.25-1.25v-6.25a1.25 1.25 0 0 1 2.5 0v5h1.25c.69 0 1.25.56 1.25 1.25zm10.28-8.17l.04.04.02.05c2.88 5 2.88 11.16 0 16.16l-.02.04-.05.07a15.93 15.93 0 0 1-5.85 5.84l-.04.04a16.18 16.18 0 0 1-16.19.03l-.06-.03c-.02 0-.03-.03-.05-.04a15.91 15.91 0 0 1-5.9-5.9l-.02-.05a16.18 16.18 0 0 1 0-16.16c0-.02 0-.03.02-.05 0-.02.02-.02.03-.04a15.95 15.95 0 0 1 5.87-5.87c.02 0 .03-.03.04-.04l.05-.01c5-2.88 11.16-2.88 16.16 0l.04.01.05.04a15.94 15.94 0 0 1 5.86 5.87zm-1.56 2.4l-1.02.6a1.25 1.25 0 1 1-1.25-2.17l1.02-.59a13.77 13.77 0 0 0-3.3-3.3l-.59 1.03a1.25 1.25 0 1 1-2.16-1.25l.59-1.03a13.64 13.64 0 0 0-4.51-1.21v1.19a1.25 1.25 0 0 1-2.5 0v-1.2c-1.56.15-3.09.56-4.51 1.22l.59 1.03a1.25 1.25 0 0 1-2.16 1.25l-.6-1.03a13.8 13.8 0 0 0-3.3 3.3l1.03.6a1.25 1.25 0 1 1-1.25 2.16l-1.03-.6a13.64 13.64 0 0 0-1.2 4.52h1.18a1.25 1.25 0 0 1 0 2.5h-1.19c.14 1.56.55 3.09 1.22 4.51l1.02-.6a1.25 1.25 0 0 1 1.25 2.17l-1.02.6a13.77 13.77 0 0 0 3.3 3.3l.59-1.03a1.25 1.25 0 0 1 2.16 1.25l-.59 1.03c1.42.66 2.95 1.07 4.51 1.2v-1.18a1.25 1.25 0 1 1 2.5 0v1.19a13.6 13.6 0 0 0 4.51-1.21l-.6-1.03a1.25 1.25 0 1 1 2.17-1.25l.6 1.02a13.8 13.8 0 0 0 3.3-3.3l-1.03-.59a1.25 1.25 0 0 1 1.25-2.16l1.03.59a13.63 13.63 0 0 0 1.2-4.51h-1.18a1.25 1.25 0 0 1 0-2.5h1.19a13.63 13.63 0 0 0-1.22-4.52z"/></defs><use xlink:href="#ba" transform="translate(-924 -2774)"/></symbol><symbol viewBox="0 0 83 75" id="advantages-3" xmlns="http://www.w3.org/2000/svg"><defs><path id="ca" d="M1402 2779.57c0 .77-.62 1.39-1.38 1.39h-6.92v44.45a5.54 5.54 0 0 1-5.53 5.55h-4.15v16.67a1.39 1.39 0 0 1-2.36.98l-7.33-7.35-7.32 7.35a1.38 1.38 0 0 1-2.36-.98v-16.67h-40.12a5.54 5.54 0 0 1-5.53-5.55c0-.77.62-1.4 1.38-1.4h6.92v-44.44a5.55 5.55 0 0 1 5.53-5.56h63.64a5.55 5.55 0 0 1 5.53 5.56zm-10.3-2.78h-58.87a2.77 2.77 0 0 0-2.76 2.78v44.45h33.2v2.78h-41.13c.5.85 1.4 1.38 2.4 1.38h40.11v-1.38h2.77v17.48l5.94-5.97a1.38 1.38 0 0 1 1.95 0l5.94 5.97v-17.48h2.77v1.38h4.15c.98 0 1.9-.53 2.4-1.38h-5.17v-2.78h5.53v-44.45c0-.98.27-1.94.77-2.78zm7.16 1.39a2.77 2.77 0 0 0-4.79 0zm-11.43 39.4c.31.7 0 1.53-.69 1.85l-3.3 1.52-.42 3.62c-.05.39-.25.73-.56.96-.3.23-.7.32-1.08.24l-3.56-.7-2.47 2.67a1.38 1.38 0 0 1-2.03 0l-2.47-2.68-3.56.71-.11.02c-.76.09-1.45-.46-1.54-1.22l-.42-3.63-3.3-1.52a1.4 1.4 0 0 1-.63-1.95l1.77-3.18-1.77-3.18a1.4 1.4 0 0 1 .63-1.94l3.3-1.52.42-3.63.02-.1c.15-.76.88-1.25 1.63-1.1l3.56.71 2.47-2.68.01-.02a1.42 1.42 0 0 1 2.02.02l2.47 2.68 3.56-.7.1-.03c.76-.09 1.45.46 1.54 1.22l.43 3.63 3.3 1.51.1.06c.67.37.9 1.22.53 1.89l-1.78 3.18 1.77 3.2.06.1zm-4.62-3.97l1.42-2.55-2.64-1.21c-.44-.2-.74-.62-.8-1.1l-.34-2.91-2.86.57c-.47.1-.96-.06-1.28-.42l-1.98-2.15-1.97 2.16c-.33.35-.81.5-1.29.41l-2.86-.57-.34 2.91c-.05.48-.35.9-.8 1.1l-2.64 1.22 1.43 2.55c.24.42.23.93 0 1.35l-1.43 2.55 2.65 1.22c.44.2.74.62.8 1.1l.33 2.9 2.86-.56.27-.03c.39 0 .76.16 1.02.45l1.97 2.15 1.98-2.15c.32-.36.81-.52 1.28-.42l2.86.57.34-2.91c.06-.48.36-.9.8-1.1l2.64-1.22-1.42-2.55a1.4 1.4 0 0 1 0-1.36zm-1.56.68c0 3.84-3.1 6.95-6.92 6.95a6.94 6.94 0 0 1 0-13.9c3.82 0 6.92 3.12 6.92 6.95zm-2.77 0a4.16 4.16 0 1 0-8.31-.01 4.16 4.16 0 0 0 8.31.01zm-29.05-31.94h22.14v2.77h-22.14zm-13.83 8.33h49.8v2.78h-49.8zm0 5.56h49.8v2.77h-49.8zm1.38 18.05h17.99v2.78h-17.99z"/></defs><use xlink:href="#ca" transform="translate(-1319 -2774)"/></symbol><symbol viewBox="0 0 74 74" id="advantages-4" xmlns="http://www.w3.org/2000/svg"><defs><path id="da" d="M548.74 3118.78l-5.32 5.32c-.23.23-.46.35-.8.35-.24 0-.58-.12-.81-.35l-1.97-1.96a1.12 1.12 0 0 1 0-1.62 1.12 1.12 0 0 1 1.62 0l1.16 1.16 4.5-4.52a1.12 1.12 0 0 1 1.62 0c.47.35.47 1.16 0 1.62zm0 8.8c.47.45.47 1.15 0 1.61l-5.32 5.32c-.23.23-.46.35-.8.35-.24 0-.58-.12-.81-.35l-1.97-1.97a1.12 1.12 0 0 1 0-1.61 1.12 1.12 0 0 1 1.62 0l1.16 1.15 4.5-4.5c.35-.47 1.16-.47 1.62 0zm22.67 8.78c.69 0 1.15.46 1.15 1.16s-.46 1.15-1.15 1.15h-2.32c-.69 0-1.15-.46-1.15-1.15 0-.7.46-1.16 1.15-1.16zm26.59 0v20.7h-13.53l-11.21 4.5-10.3 9.14c-.11 0-.11.12-.23.12 0 .12-.11.12-.11.12-.23.11-.35.11-.46.11h-.47l-.11-.11c-.12 0-.12 0-.23-.12l-1.28-1.27c-.34.23-.69.58-1.15.8a4.14 4.14 0 0 1-4.4-.7l-15.84-12.47h-3.12c-.7 0-1.15-.47-1.15-1.16 0-.7.46-1.16 1.15-1.16h2.31v-16.19h-11.56v16.2h4.63c.7 0 1.15.46 1.15 1.15 0 .7-.46 1.16-1.15 1.16H524v-20.82h30.52l3.13 3 4.16-3h2.66c.7 0 1.15.46 1.15 1.16s-.46 1.15-1.15 1.15h-1.74l-4.16 3.01c-.11 0-.11.12-.11.12a.88.88 0 0 1-.47.23l-9.82 7.17c-.24.11-.24.34-.24.46 0 .11.12.35.35.46l1.5.46c1.28.47 2.66.35 3.94-.23l7.63-3.81 11.56 12.72 10.06-4.05v-16.54h-6.94c-.7 0-1.16-.46-1.16-1.15 0-.7.47-1.16 1.16-1.16zm-26.94 24.28l-10.18-11.21-6.12 3a7.76 7.76 0 0 1-5.79.47l-1.38-.47a2.88 2.88 0 0 1-1.97-2.3 3.11 3.11 0 0 1 1.16-2.78l8.9-6.6-2.08-2.08h-13.41v16.77l15.72 12.37c.58.47 1.39.58 1.97.35.23-.11.34-.23.58-.35l-7.52-7.51a1.12 1.12 0 0 1 0-1.62 1.12 1.12 0 0 1 1.62 0l9.6 9.6 1.96-1.74-9.71-9.71a1.12 1.12 0 0 1 0-1.62 1.12 1.12 0 0 1 1.62 0l9.83 9.83 1.96-1.74-9.94-9.94a1.12 1.12 0 0 1 0-1.62 1.12 1.12 0 0 1 1.62 0l10.06 10.06zm24.63-21.97h-10.4v16.2h10.4zm-47.4-27.75h-1.17c-.69 0-1.15-.46-1.15-1.16 0-.69.46-1.15 1.15-1.15h1.16c.7 0 1.16.46 1.16 1.15 0 .7-.47 1.16-1.16 1.16zm2.3-1.16c0-.69.47-1.15 1.16-1.15h1.16c.69 0 1.15.46 1.15 1.15 0 .7-.46 1.16-1.15 1.16h-1.16c-.7 0-1.16-.46-1.16-1.16zm-9.25 0c0-.69.47-1.15 1.16-1.15h1.16c.69 0 1.15.46 1.15 1.15 0 .7-.46 1.16-1.15 1.16h-1.16c-.7 0-1.16-.46-1.16-1.16zm-8.09 24.29v-35.85c0-.58.46-1.16 1.16-1.16h41.62c.35 0 .58.12.81.35l11.56 11.56c.23.24.35.47.35.81v23.13c0 .58-.46 1.16-1.16 1.16-.69 0-1.15-.46-1.15-1.16v-21.97h-10.4c-.7 0-1.17-.46-1.17-1.16v-10.4h-39.3v34.69c0 .58-.47 1.15-1.16 1.15-.7 0-1.16-.46-1.16-1.15zm43.94-25.44h7.51l-7.51-7.52zm-19.66-2.31H542.5c-.7 0-1.16-.47-1.16-1.16 0-.7.47-1.16 1.16-1.16h15.03c.7 0 1.16.46 1.16 1.16s-.47 1.16-1.16 1.16zm11.56 18.5c-.69 0-1.15-.47-1.15-1.16 0-.7.46-1.16 1.15-1.16h1.16c.7 0 1.16.47 1.16 1.16 0 .7-.47 1.16-1.16 1.16zm4.63 0c-.7 0-1.16-.47-1.16-1.16 0-.7.46-1.16 1.16-1.16h1.15c.7 0 1.16.47 1.16 1.16 0 .7-.46 1.16-1.16 1.16zm-9.25 0c-.7 0-1.16-.47-1.16-1.16 0-.7.46-1.16 1.16-1.16h1.15c.7 0 1.16.47 1.16 1.16 0 .7-.46 1.16-1.16 1.16zm16.19-5.79c0 .7-.47 1.16-1.16 1.16h-24.28c-.7 0-1.16-.46-1.16-1.16 0-.69.46-1.15 1.16-1.15h24.28c.7 0 1.16.46 1.16 1.15zm-26.6 4.63c0-.7.46-1.16 1.16-1.16H561c.7 0 1.16.47 1.16 1.16 0 .7-.47 1.16-1.16 1.16h-5.78c-.7 0-1.16-.47-1.16-1.16zm25.44 8.1h-24.28c-.7 0-1.16-.47-1.16-1.16 0-.7.46-1.16 1.16-1.16h24.28c.7 0 1.16.46 1.16 1.16s-.47 1.16-1.16 1.16z"/></defs><use xlink:href="#da" transform="translate(-524 -3097)"/></symbol><symbol viewBox="0 0 77 77" id="advantages-5" xmlns="http://www.w3.org/2000/svg"><defs><path id="ea" d="M998.56 3140.35a6.2 6.2 0 0 0-.87 4.47 9.3 9.3 0 0 1-3.78 9.35 6.38 6.38 0 0 0-2.54 3.87 9.3 9.3 0 0 1-6.98 7.1c-1.62.38-3 1.29-3.86 2.55a9.31 9.31 0 0 1-9.28 3.94 6.19 6.19 0 0 0-4.46.9 9.3 9.3 0 0 1-10.1.09 6.2 6.2 0 0 0-4.46-.88 9.3 9.3 0 0 1-9.35-3.78 6.38 6.38 0 0 0-3.87-2.54 9.3 9.3 0 0 1-7.1-6.98c-.38-1.62-1.29-3-2.55-3.86a9.3 9.3 0 0 1-3.94-9.28 6.2 6.2 0 0 0-.9-4.46 9.3 9.3 0 0 1-.09-10.1 6.2 6.2 0 0 0 .88-4.46 9.3 9.3 0 0 1 3.78-9.36 6.38 6.38 0 0 0 2.54-3.86 9.3 9.3 0 0 1 6.98-7.1 6.4 6.4 0 0 0 3.86-2.56 9.3 9.3 0 0 1 9.28-3.94 6.2 6.2 0 0 0 4.46-.9 9.3 9.3 0 0 1 10.1-.08 6.2 6.2 0 0 0 4.46.88 9.3 9.3 0 0 1 9.35 3.78 6.37 6.37 0 0 0 3.87 2.54 9.3 9.3 0 0 1 7.1 6.97c.38 1.63 1.29 3 2.55 3.86a9.31 9.31 0 0 1 3.94 9.29 6.2 6.2 0 0 0 .9 4.46 9.3 9.3 0 0 1 .08 10.09zm-1.63-4.98c0-1.22-.35-2.4-1.02-3.43a9.25 9.25 0 0 1-1.35-6.66 6.25 6.25 0 0 0-2.65-6.23 9.44 9.44 0 0 1-3.81-5.7 6.25 6.25 0 0 0-4.76-4.67 9.44 9.44 0 0 1-5.72-3.77 6.25 6.25 0 0 0-6.28-2.54 9.25 9.25 0 0 1-6.67-1.3 6.26 6.26 0 0 0-6.78.06 9.25 9.25 0 0 1-6.66 1.36 6.25 6.25 0 0 0-6.23 2.64 9.44 9.44 0 0 1-5.69 3.82 6.25 6.25 0 0 0-4.68 4.76 9.43 9.43 0 0 1-3.77 5.72 6.25 6.25 0 0 0-2.53 6.28 9.25 9.25 0 0 1-1.3 6.67 6.25 6.25 0 0 0 .06 6.77 9.25 9.25 0 0 1 1.35 6.67 6.25 6.25 0 0 0 2.65 6.23 9.44 9.44 0 0 1 3.81 5.7 6.25 6.25 0 0 0 4.76 4.67 9.44 9.44 0 0 1 5.72 3.77 6.25 6.25 0 0 0 6.28 2.53 9.33 9.33 0 0 1 6.67 1.3 6.25 6.25 0 0 0 6.78-.06 9.25 9.25 0 0 1 6.66-1.35 6.24 6.24 0 0 0 6.23-2.65 9.45 9.45 0 0 1 5.69-3.81 6.26 6.26 0 0 0 4.68-4.76 9.44 9.44 0 0 1 3.76-5.72 6.25 6.25 0 0 0 2.54-6.28 9.26 9.26 0 0 1 1.3-6.68c.63-1 .96-2.15.96-3.34zm-46.15 1.27c-3.47 0-6.13-1.52-6.13-5.6v-7.13c0-4.09 2.66-5.6 6.13-5.6 3.42 0 6.13 1.51 6.13 5.6v7.13c0 4.08-2.71 5.6-6.13 5.6zm3.28-12.73c0-2.09-1.24-3.09-3.28-3.09s-3.28 1-3.28 3.1v7.12c0 2.09 1.24 3.09 3.28 3.09s3.28-1 3.28-3.1zm23.51 16.54v7.12c0 4.09-2.7 5.6-6.13 5.6-3.46 0-6.12-1.51-6.12-5.6v-7.12c0-4.1 2.66-5.61 6.12-5.61 3.43 0 6.13 1.52 6.13 5.6zm-2.85 0c0-2.1-1.23-3.1-3.28-3.1-2.04 0-3.27 1-3.27 3.1v7.12c0 2.1 1.23 3.09 3.27 3.09 2.05 0 3.28-1 3.28-3.09zm-3.23-21.77l-17.77 35.02c-.23.52-.76.76-1.33.76-.85 0-1.52-.66-1.52-1.42 0-.2.05-.43.15-.62l17.81-35.26a1.3 1.3 0 0 1 1.19-.7c.76 0 1.61.66 1.61 1.56 0 .24-.04.43-.14.66z"/></defs><use xlink:href="#ea" transform="translate(-923 -3097)"/></symbol><symbol viewBox="0 0 61 74" id="advantages-6" xmlns="http://www.w3.org/2000/svg"><defs><path id="fa" d="M1382.66 3120.46c0 .8-.65 1.45-1.44 1.45h-20.72c-.8 0-1.44-.65-1.44-1.45 0-.8.65-1.45 1.44-1.45h20.72c.8 0 1.44.65 1.44 1.45zm-6.06 6.94a1.44 1.44 0 0 1-2.46 1.02 1.46 1.46 0 0 1 0-2.04c.28-.27.65-.43 1.03-.43a1.45 1.45 0 0 1 1.43 1.45zm-14.66-22.7a1.45 1.45 0 0 1-2.46 1.02 1.46 1.46 0 0 1 0-2.04 1.45 1.45 0 0 1 2.46 1.02zm8.61 22.7c0 .8-.64 1.44-1.44 1.44h-8.61a1.44 1.44 0 1 1 0-2.9h8.61c.8.01 1.44.66 1.44 1.46zm12.1 8.67c0 .8-.64 1.45-1.43 1.45h-20.72c-.8 0-1.44-.65-1.44-1.45 0-.8.65-1.44 1.44-1.44h20.72c.8 0 1.44.64 1.44 1.44zm-6.05 6.94a1.44 1.44 0 0 1-2.46 1.02 1.46 1.46 0 0 1 0-2.04 1.44 1.44 0 0 1 2.04 0c.27.27.42.64.42 1.02zm-6.05 0c0 .8-.64 1.44-1.44 1.44h-8.61a1.44 1.44 0 0 1 0-2.89h8.61c.8 0 1.44.65 1.44 1.45zm12.1 8.67c0 .8-.64 1.45-1.43 1.45h-20.72a1.44 1.44 0 0 1 0-2.9h20.72c.8 0 1.44.65 1.44 1.45zm-6.05 6.94a1.45 1.45 0 0 1-1.44 1.45 1.45 1.45 0 0 1 0-2.9 1.45 1.45 0 0 1 1.44 1.45zm-6.05 0c0 .8-.64 1.45-1.44 1.45h-8.61a1.44 1.44 0 0 1 0-2.9h8.61c.8 0 1.44.65 1.44 1.45zm20.45-48.9V3164a7.04 7.04 0 0 1-7.01 7.05H1337a7.04 7.04 0 0 1-7.01-7.05v-54.27a7.04 7.04 0 0 1 7.01-7.05h11a8.8 8.8 0 0 1 6.1-2.46h1.26a5.77 5.77 0 0 1 5.14-3.18c2.2 0 4.18 1.27 5.14 3.18h1.26c2.36 0 4.5.94 6.1 2.46h10.99a7.04 7.04 0 0 1 7.01 7.05zm-42.85-1.11h24.7a5.99 5.99 0 0 0-5.95-5.5h-2.24c-.65 0-1.21-.43-1.39-1.06a2.89 2.89 0 0 0-2.77-2.11c-1.29 0-2.43.87-2.77 2.11a1.44 1.44 0 0 1-1.39 1.07h-2.24a5.99 5.99 0 0 0-5.95 5.49zm39.97 1.12c0-2.3-1.85-4.16-4.13-4.16H1375c.47 1.09.74 2.29.74 3.54v.94c0 .8-.65 1.45-1.44 1.45h-27.62c-.8 0-1.44-.65-1.44-1.45v-.94c0-1.25.26-2.45.73-3.54H1337a4.15 4.15 0 0 0-4.13 4.16V3164c0 2.3 1.85 4.16 4.13 4.16h47a4.15 4.15 0 0 0 4.13-4.16zm-36.77 10.98l-7.17 7.2a1.43 1.43 0 0 1-2.03 0l-2.92-2.92a1.45 1.45 0 0 1 0-2.05 1.43 1.43 0 0 1 2.04 0l1.9 1.9 6.15-6.17a1.43 1.43 0 0 1 2.03 0c.56.56.56 1.48 0 2.04zm-2.07 30.97v6.94c0 .8-.65 1.45-1.44 1.45h-6.9c-.8 0-1.44-.65-1.44-1.45v-6.94c0-.8.64-1.44 1.43-1.44h6.91c.8 0 1.44.64 1.44 1.44zm-2.88 1.45h-4.03v4.05h4.03zm2.88-17.06v6.94c0 .8-.65 1.44-1.44 1.44h-6.9c-.8 0-1.44-.64-1.44-1.44v-6.94c0-.8.64-1.44 1.43-1.44h6.91c.8 0 1.44.64 1.44 1.44zm-2.88 1.45h-4.03v4.04h4.03z"/></defs><use xlink:href="#fa" transform="translate(-1330 -3097)"/></symbol><symbol viewBox="0 0 16 26" id="arr-r" xmlns="http://www.w3.org/2000/svg"><defs><path id="ga" d="M755.03 4791l-3.03 3.03 9.95 9.97-9.95 9.97 3.03 3.03 12.97-13z"/></defs><use xlink:href="#ga" transform="translate(-752 -4791)"/></symbol><symbol viewBox="0 0 344.96 344.96" id="check" xmlns="http://www.w3.org/2000/svg"><defs><style>.hcls-1{fill:#e75713}</style></defs><g id="hСлой_2" data-name="Слой 2"><path class="hcls-1" d="M321.85 86.24l-40-23.11-23.1-40H212.5L172.48 0l-40 23.11H86.24l-23.11 40-40 23.1v46.21L0 172.48l23.11 40v46.21l40 23.11 23.11 40h46.21l40 23.1 40-23.11h46.21l23.11-40 40-23.11V212.5l23.11-40-23.11-40V86.24zM156.91 243.07a16.79 16.79 0 0 1-23.34 0l-50.45-50.44a16.19 16.19 0 0 1 0-22.89l13.35-13.35a16.19 16.19 0 0 1 22.89 0l25.87 25.87 80.34-80.35a16.19 16.19 0 0 1 22.89 0l13.35 13.35a16.19 16.19 0 0 1 0 22.89z" id="hCapa_1" data-name="Capa 1"/></g></symbol><symbol viewBox="0 0 19 34" id="chevron-left" xmlns="http://www.w3.org/2000/svg"><defs><path id="ia" d="M388.68 7296.68l14.34 14.62c.92.93 2.4.93 3.3 0 .92-.94.92-2.44 0-3.37l-12.68-12.94 12.69-12.93c.9-.93.9-2.44 0-3.37a2.3 2.3 0 0 0-3.3 0l-14.35 14.62a2.4 2.4 0 0 0 0 3.37z"/></defs><use xlink:href="#ia" transform="translate(-388 -7278)"/></symbol><symbol viewBox="0 0 19 34" id="chevron-right" xmlns="http://www.w3.org/2000/svg"><defs><path id="ja" d="M1534.32 7296.68l-14.34 14.62a2.3 2.3 0 0 1-3.3 0 2.41 2.41 0 0 1 0-3.37l12.68-12.94-12.69-12.93a2.42 2.42 0 0 1 0-3.37 2.3 2.3 0 0 1 3.3 0l14.35 14.62a2.4 2.4 0 0 1 0 3.37z"/></defs><use xlink:href="#ja" transform="translate(-1516 -7278)"/></symbol><symbol viewBox="0 0 25 18" id="email" xmlns="http://www.w3.org/2000/svg"><defs><path id="ka" d="M596.5 8742.56l3.1-2.74 8.84 7.66c-.32.3-.75.49-1.23.49H585.8a1.8 1.8 0 0 1-1.24-.49l8.85-7.66zm11.95-12.14l-11.94 10.33-11.94-10.32c.32-.3.75-.5 1.23-.5h21.41c.48 0 .92.19 1.24.5zm-24.45 1.1l8.63 7.57-8.63 7.41zm16.38 7.57l8.63-7.58v14.99z"/></defs><use xlink:href="#ka" transform="translate(-584 -8730)"/></symbol><symbol viewBox="0 0 108 137" id="head-i-1" xmlns="http://www.w3.org/2000/svg"><defs><path id="la" d="M508 1001a4 4 0 0 1-2.88-1.22c-2.09-2.2-51.12-53.88-51.12-82.42 0-29.42 24.23-53.36 54-53.36s54 23.94 54 53.36c0 28.54-49.03 80.23-51.12 82.42A4 4 0 0 1 508 1001zm0-129.18c-25.4 0-46.07 20.43-46.07 45.54 0 19.76 30.94 57.5 46.07 73.96 15.14-16.47 46.07-54.2 46.07-73.96 0-25.1-20.67-45.54-46.07-45.54zm0 62.24c-12.6 0-22.84-10.12-22.84-22.57 0-12.44 10.24-22.57 22.84-22.57s22.84 10.13 22.84 22.57c0 12.45-10.24 22.57-22.84 22.57zm0-37.3a14.85 14.85 0 0 0-14.92 14.73c0 8.14 6.69 14.75 14.92 14.75s14.92-6.61 14.92-14.75c0-8.13-6.7-14.74-14.92-14.74z"/></defs><g clip-path="url(#clip-493)" transform="translate(-454 -864)"><use xlink:href="#la"/></g></symbol><symbol viewBox="0 0 138 138" id="head-i-2" xmlns="http://www.w3.org/2000/svg"><defs><path id="ma" d="M876.7 959.2l-31.92 29.7a17.2 17.2 0 0 1-11.75 4.63h-41.76a2.7 2.7 0 0 1 0-5.39h41.76c3 0 5.88-1.13 8.08-3.18l31.91-29.7a4.96 4.96 0 0 0-.42-7.65 4.98 4.98 0 0 0-6.36.36l-23.17 21.57a17.51 17.51 0 0 1-11.97 4.72h-13.36l-.31-.02h-8.5a2.7 2.7 0 0 1 0-5.4h21.63c2.26 0 4.12-1.68 4.35-3.93a4.34 4.34 0 0 0-3.27-4.66l-27.18-6.9a20.6 20.6 0 0 0-11.44.38l-20.45 6.64v36.93a2.7 2.7 0 0 1-2.7 2.7H744.7a2.7 2.7 0 0 1-2.7-2.7v-48a2.7 2.7 0 0 1 2.7-2.7h25.17a2.7 2.7 0 0 1 2.7 2.7v5.4l18.79-6.1a25.98 25.98 0 0 1 14.43-.47l27.17 6.9a9.69 9.69 0 0 1 7.35 9.72l22.25-20.73a10.37 10.37 0 1 1 14.13 15.18zm-109.52 35.4V952h-19.79v42.62zm15.9-3.76a2.71 2.71 0 0 1-2.69 2.7 2.71 2.71 0 0 1-1.9-4.6 2.71 2.71 0 0 1 3.8-.01c.51.5.8 1.2.8 1.9zm-23.1-2.79c0 .71-.29 1.4-.79 1.9s-1.2.8-1.9.8a2.72 2.72 0 0 1-2.7-2.7 2.71 2.71 0 0 1 4.6-1.9c.5.5.79 1.19.79 1.9zm43.35-123.36a2.7 2.7 0 0 1-2.7 2.7h-2.92a18.39 18.39 0 0 0-18.36 18.36v37.66a2.7 2.7 0 0 1-2.7 2.69h-1.08c-9.21 0-16.7-7.5-16.7-16.71 0-8.67 6.63-15.82 15.09-16.63v-7A23.78 23.78 0 0 1 797.7 862h2.93a2.7 2.7 0 0 1 2.7 2.7zm-29.37 33.5c-5.48.78-9.7 5.5-9.7 11.2 0 5.7 4.22 10.42 9.7 11.2zm39.84-33.5a2.7 2.7 0 0 1-2.7 2.7h-.1a2.7 2.7 0 0 1 0-5.39h.1a2.7 2.7 0 0 1 2.7 2.7zm49.32 44.7c0 8.67-6.63 15.81-15.1 16.63v4.93a7.06 7.06 0 0 1-7.04 7.06h-20.06a7.01 7.01 0 0 1-6.47 4.31h-6.17c-3.86 0-7-3.14-7-7v-.01c0-3.86 3.14-7 7-7h6.17c2.91 0 5.4 1.78 6.47 4.3h20.06c.91 0 1.66-.74 1.66-1.66v-45.2a18.38 18.38 0 0 0-18.36-18.36h-3.02a2.7 2.7 0 0 1 0-5.39h3.02a23.78 23.78 0 0 1 23.75 23.75v7c8.46.82 15.1 7.97 15.1 16.64zm-47.05 25.93c0-.9-.73-1.63-1.62-1.63h-6.17a1.62 1.62 0 1 0 0 3.23h6.17c.9 0 1.62-.71 1.62-1.6zm41.66-25.93c0-5.7-4.22-10.42-9.7-11.2v22.4c5.48-.78 9.7-5.5 9.7-11.2zm-20.33-14.83v8.48a2.7 2.7 0 0 1-2.7 2.7h-2.51a22.06 22.06 0 0 1-1.3 3.14l1.78 1.79a2.7 2.7 0 0 1 0 3.8l-6 6a2.7 2.7 0 0 1-3.81 0l-1.8-1.79c-1 .52-2.05.95-3.13 1.3v2.54a2.7 2.7 0 0 1-2.7 2.7h-8.48a2.7 2.7 0 0 1-2.7-2.7v-2.55a21.94 21.94 0 0 1-3.12-1.3l-1.8 1.8a2.7 2.7 0 0 1-3.81 0l-6-6a2.7 2.7 0 0 1 0-3.8l1.8-1.8c-.51-1.01-.94-2.06-1.3-3.13h-2.54a2.7 2.7 0 0 1-2.7-2.7v-8.48a2.7 2.7 0 0 1 2.7-2.7h2.54c.35-1.07.78-2.12 1.3-3.13l-1.8-1.8a2.7 2.7 0 0 1 0-3.8l6-6a2.7 2.7 0 0 1 3.8 0l1.8 1.78c1-.52 2.06-.95 3.14-1.3v-2.53a2.7 2.7 0 0 1 2.69-2.7h8.48a2.7 2.7 0 0 1 2.7 2.7v2.52c1.08.35 2.13.79 3.15 1.3l1.78-1.78a2.7 2.7 0 0 1 3.8 0l6 6a2.7 2.7 0 0 1 0 3.81l-1.77 1.78c.51 1.02.95 2.07 1.3 3.15h2.52a2.7 2.7 0 0 1 2.7 2.7zm-5.39 5.79v-3.1h-1.87a2.7 2.7 0 0 1-2.65-2.16 16.77 16.77 0 0 0-2.22-5.37 2.7 2.7 0 0 1 .36-3.37l1.32-1.32-2.19-2.19-1.32 1.33a2.7 2.7 0 0 1-3.36.36 16.75 16.75 0 0 0-5.45-2.25 2.73 2.73 0 0 1-2.1-2.64v-1.86h-3.08v1.88c0 1.3-.93 2.4-2.16 2.64a16.74 16.74 0 0 0-5.38 2.24 2.7 2.7 0 0 1-3.35-.36l-1.34-1.34-2.19 2.19 1.35 1.34c.89.9 1.04 2.29.36 3.35a16.74 16.74 0 0 0-2.27 5.54 2.7 2.7 0 0 1-2.6 2h-1.9v3.09h1.9a2.7 2.7 0 0 1 2.64 2.11 16.75 16.75 0 0 0 2.24 5.4 2.7 2.7 0 0 1-.37 3.36l-1.35 1.35 2.2 2.19 1.34-1.35a2.7 2.7 0 0 1 3.36-.37 16.76 16.76 0 0 0 5.4 2.25 2.7 2.7 0 0 1 2.12 2.63v1.9h3.09v-1.9a2.7 2.7 0 0 1 2.12-2.63 16.76 16.76 0 0 0 5.4-2.24 2.7 2.7 0 0 1 3.36.37l1.34 1.34 2.2-2.19-1.34-1.33a2.7 2.7 0 0 1-.37-3.36 16.75 16.75 0 0 0 2.25-5.4 2.71 2.71 0 0 1 2.64-2.13zm-10.78-1.55c0 5.65-4.6 10.24-10.24 10.24a10.25 10.25 0 0 1 0-20.48c5.65 0 10.24 4.6 10.24 10.24zm-5.39 0a4.86 4.86 0 1 0-9.7.01 4.86 4.86 0 0 0 9.7 0zm-55.86 60.77v18.6a2.7 2.7 0 0 1-5.39 0v-18.6a2.7 2.7 0 1 1 5.39 0z"/></defs><g clip-path="url(#clip-484)" transform="translate(-742 -862)"><use xlink:href="#ma"/></g></symbol><symbol viewBox="0 0 123 139" id="head-i-3" xmlns="http://www.w3.org/2000/svg"><defs><path id="na" d="M1129.53 931.55c0 8.48-6.66 15.35-14.87 15.35h-7.44v3.78h14.1c1.22 0 2.23 1 2.23 2.2 0 1.2-1.01 2.18-2.23 2.18h-14.1v11.41a2.22 2.22 0 0 1-4.45 0v-11.4h-3.08c-1.22 0-2.22-1-2.22-2.2 0-1.2 1-2.2 2.22-2.2h3.08v-3.77h-3.08c-1.22 0-2.22-.99-2.22-2.19s1-2.2 2.22-2.2h3.08v-24.33c0-1.2 1-2.2 2.22-2.2h9.73c8.32.27 14.81 7.11 14.81 15.57zm-4.44 0c0-6.06-4.6-10.97-10.46-11.18h-7.41v22.15h7.44c5.75 0 10.43-4.92 10.43-10.97zm49.91 7.16c0 .59-.24 1.14-.65 1.55l-59.16 58.1c-.45.44-1 .64-1.57.64-.56 0-1.13-.24-1.57-.64l-59.4-58.1a2.18 2.18 0 0 1 0-3.1l59.4-58.32a2.26 2.26 0 0 1 3.14 0l12.8 12.6a16.93 16.93 0 0 0 3.06-10.9c-.63-9.2-8.21-16.12-17.67-16.12-9.3 0-16.8 7.02-17.43 16.32a2.22 2.22 0 1 1-4.45-.3 21.85 21.85 0 0 1 21.87-20.45c5.7 0 11.1 2.06 15.19 5.83a21.42 21.42 0 0 1 6.9 14.36 21.14 21.14 0 0 1-4.33 14.34l43.22 42.58c.41.41.65.97.65 1.61zm-5.36-.06l-41.53-40.92a20.25 20.25 0 0 1-5.13 3.34 9.33 9.33 0 0 1-9.36 8.95c-5.3 0-9.6-4.16-9.6-9.25 0-5.32 4.2-9.47 9.6-9.47 3.7 0 6.9 2.16 8.42 5.32a16.61 16.61 0 0 0 2.93-1.99l-11.35-11.2-56.23 55.22 56.23 55zm-53.98-40.07c.74-.09 1.49-.2 2.2-.38a4.83 4.83 0 0 0-4.27-2.51 5.02 5.02 0 0 0-5.16 5.08c0 2.73 2.25 4.86 5.16 4.86a5.02 5.02 0 0 0 4.53-2.98c-.65.14-1.33.26-1.98.32h-.24c-1.1 0-2.07-.85-2.2-1.96a2.23 2.23 0 0 1 1.96-2.43z"/></defs><g clip-path="url(#clip-487)" transform="translate(-1052 -860)"><use xlink:href="#na"/></g></symbol><symbol viewBox="0 0 141 141" id="head-i-4" xmlns="http://www.w3.org/2000/svg"><defs><path id="oa" d="M1492 930.5v14.1c0 3.9-3.16 7.05-7.05 7.05h-108.1a7.05 7.05 0 0 1-7.05-7.05v-14.1c0-1.3 1.05-2.35 2.35-2.35h117.5c1.3 0 2.35 1.05 2.35 2.35zm-4.7 2.35h-11.75v2.35h-4.7v-2.35h-9.4v7.05h-4.7v-7.05h-9.4v2.35h-4.7v-2.35h-9.4v7.05h-4.7v-7.05h-9.4v2.35h-4.7v-2.35h-9.4v7.05h-4.7v-7.05h-9.4v2.35h-4.7v-2.35h-11.75v11.75c0 1.3 1.05 2.35 2.35 2.35h108.1c1.3 0 2.35-1.05 2.35-2.35zm-32.9 49.35h4.7v16.45c0 1.3-1.05 2.35-2.35 2.35h-103.4a2.35 2.35 0 0 1-2.35-2.35v-136.3c0-1.3 1.05-2.35 2.35-2.35h82.25l.11.02c.22.01.43.06.64.13l.2.07c.26.11.5.27.7.47l21.15 21.15c.2.2.36.43.47.69l.08.22c.07.2.1.4.12.6l.03.15v39.95h-4.7v-37.6h-14.1a7.05 7.05 0 0 1-7.05-7.05v-14.1h-77.55v131.6h98.7zm-16.45-103.4c0 1.3 1.05 2.35 2.35 2.35h10.78l-13.13-13.13zm-72.85 0h9.4v4.7h-9.4zm14.1 0h47v4.7h-47zm-14.1 14.1h61.1v4.7h-61.1zm0 14.1h4.7v4.7h-4.7zm9.4 0h68.15v4.7h-68.15zm115.15 61.1c0 6.49-5.26 11.75-11.75 11.75h-96.35c-.62 0-1.22-.25-1.66-.69l-9.4-9.4a2.35 2.35 0 0 1 0-3.32l9.4-9.4a2.35 2.35 0 0 1 1.66-.7h96.35c6.49 0 11.75 5.27 11.75 11.76zm-110.45-3.73l-3.73 3.73 3.73 3.73zm84.6 6.08h-79.9v4.7h79.9zm0-9.4h-79.9v4.7h79.9zm7.05 0h-2.35v14.1h2.35zm14.1 7.05c0-3.9-3.16-7.05-7.05-7.05h-2.35v14.1h2.35c3.9 0 7.05-3.16 7.05-7.05z"/></defs><g clip-path="url(#clip-490)" transform="translate(-1351 -860)"><use xlink:href="#oa"/></g></symbol><symbol viewBox="0 0 21 29" id="map" xmlns="http://www.w3.org/2000/svg"><defs><path id="pa" d="M908.8 8740.7l-7.73 12.74a.84.84 0 0 1-1.42.01l-7.95-12.61a9.74 9.74 0 0 1-1.5-5.19 9.95 9.95 0 0 1 10.01-9.86c5.52 0 10 4.42 10 9.86 0 1.78-.48 3.53-1.4 5.05zm-8.59-10.42a5.08 5.08 0 0 0-5.11 5.04 5.08 5.08 0 0 0 5.11 5.04 5.08 5.08 0 0 0 5.12-5.04 5.08 5.08 0 0 0-5.12-5.04z"/></defs><use xlink:href="#pa" transform="translate(-890 -8725)"/></symbol><symbol viewBox="0 0 24 25" id="phone" xmlns="http://www.w3.org/2000/svg"><defs><path id="qa" d="M607 8670.78c.05.39-.07.73-.36 1.02l-3.38 3.36a2.45 2.45 0 0 1-1.8.69 11.56 11.56 0 0 1-4.2-.99 22.23 22.23 0 0 1-3.55-1.94 26.44 26.44 0 0 1-4.22-3.57 28 28 0 0 1-2.95-3.36 23.96 23.96 0 0 1-1.88-2.97c-.48-.9-.83-1.73-1.07-2.47-.24-.74-.4-1.38-.48-1.91a6.32 6.32 0 0 1-.08-1.77 2.49 2.49 0 0 1 .66-1.33l3.38-3.39c.24-.23.5-.35.81-.35.22 0 .42.06.59.19.17.13.31.28.43.47l2.72 5.17c.15.27.2.57.13.9-.07.31-.21.59-.43.8l-1.25 1.26a.42.42 0 0 0-.09.16.62.62 0 0 0-.04.2c.07.35.22.76.46 1.22.2.4.52.9.94 1.49.42.58 1.03 1.26 1.8 2.02.77.78 1.45 1.39 2.04 1.82.6.44 1.09.75 1.49.96.4.2.7.32.91.37l.32.06c.03 0 .09-.01.16-.04a.43.43 0 0 0 .17-.09l1.45-1.47c.3-.28.66-.41 1.07-.41.28 0 .51.05.68.15h.03l4.9 2.9c.36.23.57.5.64.85z"/></defs><use xlink:href="#qa" transform="translate(-583 -8651)"/></symbol><symbol viewBox="0 0 14 15" id="play" xmlns="http://www.w3.org/2000/svg"><defs><path id="ra" d="M70.2 60.62l-12.7 7.33V53.3z"/></defs><use xlink:href="#ra" transform="translate(-57 -53)"/></symbol><symbol viewBox="0 0 17 17" id="tel" xmlns="http://www.w3.org/2000/svg"><defs><path id="sa" d="M1079.6 37.05h-.09a.48.48 0 0 1-.47-.4 8.2 8.2 0 0 0-6.72-6.7.48.48 0 0 1 .16-.95 9.14 9.14 0 0 1 4.95 2.57 9.09 9.09 0 0 1 2.56 4.93.48.48 0 0 1-.4.55zm-7.26-4.96a5.56 5.56 0 0 1 4.57 4.55.48.48 0 0 1-.4.56h-.08a.48.48 0 0 1-.48-.4 4.57 4.57 0 0 0-3.77-3.76.48.48 0 0 1-.4-.56c.05-.26.3-.43.56-.4zm-.12 8.23c.1.07.23.13.36.2l.27.14 1.14-1.13c.36-.37.79-.56 1.23-.56.45 0 .87.2 1.22.56l1.97 1.98c.37.36.56.78.56 1.23 0 .44-.19.87-.55 1.24l-.46.46c-.23.22-.45.43-.63.65l-.02.02a2.72 2.72 0 0 1-2.3.88 8.8 8.8 0 0 1-3.17-.93 16.92 16.92 0 0 1-5.64-4.4 15.44 15.44 0 0 1-2.75-4.58 6.27 6.27 0 0 1-.46-2.66c.06-.65.32-1.21.78-1.67l1.22-1.23.01-.01c.36-.34.78-.53 1.22-.53.44 0 .86.19 1.2.53a17.78 17.78 0 0 1 1.02 1l.98.99c.76.75.76 1.73 0 2.48l-.3.3c-.27.27-.54.55-.83.82.21.49.52.97.97 1.53.93 1.14 1.9 2.02 2.96 2.7zm-3.73-2.08c-.54-.7-.9-1.28-1.16-1.9v-.03c-.07-.2-.13-.5.18-.81l.02-.02c.3-.28.6-.57.9-.88l.3-.3c.39-.38.39-.74 0-1.12l-.97-.98-.35-.34-.64-.65h-.01a.77.77 0 0 0-.53-.26.82.82 0 0 0-.55.26l-1.22 1.22c-.3.3-.46.65-.5 1.07a5.1 5.1 0 0 0 .4 2.24 14.55 14.55 0 0 0 2.6 4.3 15.98 15.98 0 0 0 5.3 4.15 7.86 7.86 0 0 0 2.98.84c.56 0 .99-.18 1.35-.57.22-.26.46-.5.7-.71l.44-.44c.36-.38.36-.76 0-1.12l-2-1.98c-.11-.13-.3-.27-.52-.27-.22 0-.42.15-.54.27l-1.23 1.23a.78.78 0 0 1-.55.24.79.79 0 0 1-.35-.09l-.05-.02a4.6 4.6 0 0 0-.35-.2 4.9 4.9 0 0 1-.45-.23 13.2 13.2 0 0 1-3.2-2.9z"/></defs><use xlink:href="#sa" transform="translate(-1063 -29)"/></symbol><symbol viewBox="0 0 19 18" id="time" xmlns="http://www.w3.org/2000/svg"><defs><path id="ta" d="M1174.22 8728.95a9.01 9.01 0 1 1-18.03.01 9.01 9.01 0 0 1 18.03 0zm-8.38 1.1v-6.37a.62.62 0 1 0-1.25 0v5.38l-2.56-1.21a.62.62 0 0 0-.53 1.13l3.45 1.63.1.03.03.01.11.01h.14l.03-.01.08-.03h.02a.63.63 0 0 0 .1-.06l.02-.01a.6.6 0 0 0 .08-.08.6.6 0 0 0 .07-.07v-.01a.53.53 0 0 0 .05-.08v-.01l.02-.07.02-.05v-.05l.02-.08z"/></defs><use xlink:href="#ta" transform="translate(-1156 -8720)"/></symbol><symbol viewBox="0 0 17 17" id="work-1" xmlns="http://www.w3.org/2000/svg"><defs><path id="ua" d="M1079.6 37.05h-.09a.48.48 0 0 1-.47-.4 8.2 8.2 0 0 0-6.72-6.7.48.48 0 0 1 .16-.95 9.14 9.14 0 0 1 4.95 2.57 9.09 9.09 0 0 1 2.56 4.93.48.48 0 0 1-.4.55zm-7.26-4.96a5.56 5.56 0 0 1 4.57 4.55.48.48 0 0 1-.4.56h-.08a.48.48 0 0 1-.48-.4 4.57 4.57 0 0 0-3.77-3.76.48.48 0 0 1-.4-.56c.05-.26.3-.43.56-.4zm-.12 8.23c.1.07.23.13.36.2l.27.14 1.14-1.13c.36-.37.79-.56 1.23-.56.45 0 .87.2 1.22.56l1.97 1.98c.37.36.56.78.56 1.23 0 .44-.19.87-.55 1.24l-.46.46c-.23.22-.45.43-.63.65l-.02.02a2.72 2.72 0 0 1-2.3.88 8.8 8.8 0 0 1-3.17-.93 16.92 16.92 0 0 1-5.64-4.4 15.44 15.44 0 0 1-2.75-4.58 6.27 6.27 0 0 1-.46-2.66c.06-.65.32-1.21.78-1.67l1.22-1.23.01-.01c.36-.34.78-.53 1.22-.53.44 0 .86.19 1.2.53a17.78 17.78 0 0 1 1.02 1l.98.99c.76.75.76 1.73 0 2.48l-.3.3c-.27.27-.54.55-.83.82.21.49.52.97.97 1.53.93 1.14 1.9 2.02 2.96 2.7zm-3.73-2.08c-.54-.7-.9-1.28-1.16-1.9v-.03c-.07-.2-.13-.5.18-.81l.02-.02c.3-.28.6-.57.9-.88l.3-.3c.39-.38.39-.74 0-1.12l-.97-.98-.35-.34-.64-.65h-.01a.77.77 0 0 0-.53-.26.82.82 0 0 0-.55.26l-1.22 1.22c-.3.3-.46.65-.5 1.07a5.1 5.1 0 0 0 .4 2.24 14.55 14.55 0 0 0 2.6 4.3 15.98 15.98 0 0 0 5.3 4.15 7.86 7.86 0 0 0 2.98.84c.56 0 .99-.18 1.35-.57.22-.26.46-.5.7-.71l.44-.44c.36-.38.36-.76 0-1.12l-2-1.98c-.11-.13-.3-.27-.52-.27-.22 0-.42.15-.54.27l-1.23 1.23a.78.78 0 0 1-.55.24.79.79 0 0 1-.35-.09l-.05-.02a4.6 4.6 0 0 0-.35-.2 4.9 4.9 0 0 1-.45-.23 13.2 13.2 0 0 1-3.2-2.9z"/></defs><use xlink:href="#ua" transform="translate(-1063 -29)"/></symbol><symbol viewBox="0 0 56 60" id="work-2" xmlns="http://www.w3.org/2000/svg"><defs><path id="va" d="M961.34 4717a3.57 3.57 0 0 1-2.08-6.45l12.86-9.36a1 1 0 0 1 1.28.1 1 1 0 0 1 .1 1.3l-9.3 12.94a3.53 3.53 0 0 1-2.86 1.47zm-1.1-2.46a1.55 1.55 0 0 0 2.35-.19l5.68-7.89-7.84 5.71a1.56 1.56 0 0 0-.18 2.37zm27.2-2.54c0 4.89-1.31 9.48-3.58 13.44-.01.02 0 .04-.02.06l-.06.08a27.1 27.1 0 0 1-9.7 9.76l-.05.04-.1.04a26.49 26.49 0 0 1-13.12 3.57h-.19c-2 0-4.03-.22-6.01-.68a1 1 0 0 1-.75-1.2.99.99 0 0 1 1.2-.75c1.56.36 3.15.56 4.73.62V4735a1 1 0 0 1 1-1 1 1 0 0 1 .99 1v1.97a24.49 24.49 0 0 0 10.38-2.85l-.98-1.7a1 1 0 0 1 .37-1.37.99.99 0 0 1 1.35.37l.98 1.7a25.11 25.11 0 0 0 7.72-7.77l-1.7-.99a1 1 0 0 1-.36-1.36.99.99 0 0 1 1.36-.37l1.7.99c1.67-3.2 2.67-6.8 2.82-10.62h-1.96a1 1 0 0 1-1-1 1 1 0 0 1 1-1h1.96a24.96 24.96 0 0 0-2.83-10.62l-1.7.99a.99.99 0 0 1-1.36-.37 1 1 0 0 1 .37-1.37l1.7-.98a25.1 25.1 0 0 0-7.72-7.77l-.98 1.7a1 1 0 0 1-1.36.37 1 1 0 0 1-.36-1.37l.98-1.7a24.49 24.49 0 0 0-10.38-2.85v1.97a1 1 0 0 1-1 1 1 1 0 0 1-.99-1v-1.98l-.91.06-1.07.08c-.92.1-1.85.27-2.76.48a1 1 0 0 1-.44-1.95 27.3 27.3 0 0 1 3.2-.53V4684h-1.5a2.5 2.5 0 0 1-2.47-2.5 2.5 2.5 0 0 1 2.48-2.5h8.93a2.5 2.5 0 0 1 2.49 2.5 2.5 2.5 0 0 1-2.49 2.5h-1.48v1.2a26.5 26.5 0 0 1 10.2 3.4c.02 0 .04 0 .06.02.02 0 .03.03.05.04a26.96 26.96 0 0 1 4.77 3.57l2.14-2.15-1.4-1.42 4.2-4.24 4.22 4.24-4.22 4.25-1.4-1.42-2.13 2.15a27.13 27.13 0 0 1 3.54 4.81l.04.05.02.06a26.96 26.96 0 0 1 3.57 13.44zm-5.05-23.34l1.4 1.42 1.4-1.42-1.4-1.4zm-22.25-3.65l.48-.01h.18c.31 0 .64 0 .99.02V4682h3.47a.5.5 0 0 0 0-1h-8.93a.5.5 0 0 0 0 1h3.47v3.02h.35zm-7.3 8.99a1 1 0 0 1-1 1h-4.96a1 1 0 0 1-.99-1 1 1 0 0 1 1-1h4.96a1 1 0 0 1 1 1zm0 7a1 1 0 0 1-1 1h-9.92a1 1 0 0 1-1-1 1 1 0 0 1 1-1h9.93a1 1 0 0 1 1 1zm0 7a1 1 0 0 1-1 1h-14.88a1 1 0 0 1-1-1 1 1 0 0 1 1-1h14.89a1 1 0 0 1 1 1zm0 7a1 1 0 0 1-1 1h-18.86a1 1 0 0 1-.99-1 1 1 0 0 1 1-1h18.86a1 1 0 0 1 1 1zm0 7a1 1 0 0 1-1 1h-12.9a1 1 0 0 1-1-1 1 1 0 0 1 1-1h12.9a1 1 0 0 1 1 1zm0 7a1 1 0 0 1-1 1h-6.94a1 1 0 0 1-1-1 1 1 0 0 1 1-1h6.95a1 1 0 0 1 1 1z"/></defs><use xlink:href="#va" transform="translate(-932 -4679)"/></symbol><symbol viewBox="0 0 56 51" id="work-3" xmlns="http://www.w3.org/2000/svg"><defs><path id="wa" d="M1378.53 4715.54v16.43a3.03 3.03 0 0 1-3.04 3.03h-36.45a3.03 3.03 0 0 1-3.04-3.03v-44.94a3.03 3.03 0 0 1 3.04-3.03h36.45a3.03 3.03 0 0 1 3.04 3.03v6.06a1.01 1.01 0 0 1-2.02 0v-6.06c0-.56-.46-1.01-1.02-1.01h-36.45c-.56 0-1.01.45-1.01 1.01v44.94c0 .56.45 1 1 1h36.46c.56 0 1.02-.44 1.02-1v-16.43a1.01 1.01 0 0 1 2.02 0zm-8.1-21.44c0 .56-.45 1.01-1.01 1.01h-24.3a1.01 1.01 0 1 1 0-2.02h24.3c.56 0 1.01.45 1.01 1.01zm-1.01 7.08h-24.3a1.01 1.01 0 1 1 0-2.02h24.3a1.01 1.01 0 1 1 0 2.02zm-6.08 4.04a1.01 1.01 0 1 1 0 2.02h-18.23a1.01 1.01 0 1 1 0-2.02zm27.2-7.05l-6.67 6.65-19.9 19.87-.03.02a.98.98 0 0 1-.29.2h-.02l-10 4.28a1.01 1.01 0 0 1-1.33-1.32l4.29-9.99v-.02a1 1 0 0 1 .2-.28c0-.01 0-.02.02-.03l19.9-19.87 6.66-6.66a5.07 5.07 0 0 1 7.15.02 5.04 5.04 0 0 1 .01 7.13zm-29.06 25.47l-3.62-3.6-2.7 6.3zm20.24-19.53l-4.3-4.29-18.46 18.44 4.3 4.29zm3.08-3.08l-4.3-4.3-1.65 1.66 4.3 4.29zm5.09-7.21a3.03 3.03 0 0 0-5.09-1.36l-2.86 2.85 4.3 4.3 2.86-2.87a3.03 3.03 0 0 0 .79-2.92zm-32.95 17.65a1.01 1.01 0 1 1 0 2.02h-11.83a1.01 1.01 0 1 1 0-2.02zm-6.03 6.5a1.01 1.01 0 1 1 0 2.02h-5.8a1.01 1.01 0 1 1 0-2.02z"/></defs><use xlink:href="#wa" transform="translate(-1336 -4684)"/></symbol><symbol viewBox="0 0 55 56" id="work-4" xmlns="http://www.w3.org/2000/svg"><defs><path id="xa" d="M542.17 5084.87v52.26c0 1.03-.82 1.87-1.84 1.87h-5.5a1.85 1.85 0 0 1-1.83-1.87v-52.26c0-1.03.82-1.86 1.83-1.86h5.5c1.02 0 1.84.83 1.84 1.86zm-1.84 0h-5.5v1.87h.92c.5 0 .92.42.92.93 0 .52-.41.94-.92.94h-.92v2.8h.92c.5 0 .92.41.92.93 0 .51-.41.93-.92.93h-.92v2.8h1.84c.5 0 .91.42.91.94 0 .51-.4.93-.91.93h-1.84v2.8h.92c.5 0 .92.42.92.93 0 .52-.41.93-.92.93h-.92v2.8h.92c.5 0 .92.42.92.94 0 .51-.41.93-.92.93h-.92v2.8h1.84c.5 0 .91.42.91.93 0 .52-.4.94-.91.94h-1.84v2.8h.92c.5 0 .92.41.92.93s-.41.93-.92.93h-.92v2.8h.92c.5 0 .92.42.92.94 0 .51-.41.93-.92.93h-.92v2.8h1.84c.5 0 .91.42.91.93 0 .52-.4.94-.91.94h-1.84v2.8h.92c.5 0 .92.41.92.93 0 .51-.41.93-.92.93h-.92v2.8h.92c.5 0 .92.42.92.93 0 .52-.41.94-.92.94h-.92v1.86h5.5zm47.67 8.4v41.06a4.63 4.63 0 0 1-4.58 4.67 4.63 4.63 0 0 1-4.59-4.67v-41.06a1 1 0 0 1 .04-.16c0-.07.01-.13.03-.19l3.66-9.33a.92.92 0 0 1 .86-.6c.37 0 .7.24.85.6l3.66 9.33a.9.9 0 0 1 .04.19l.03.16zm-5.41-4.7c.55.04 1.1.04 1.66 0l-.83-2.12zm-1.49 3.77h4.63l-.78-1.98a11.35 11.35 0 0 1-3.07 0zm5.07 40.13h-5.5v1.86c0 1.55 1.23 2.8 2.75 2.8a2.78 2.78 0 0 0 2.75-2.8zm0-4.67h-5.5v2.8h5.5zm0-33.6h-5.5v31.74h5.5zm-16.69 7.19a9.18 9.18 0 0 1-8.99 7.66 9.18 9.18 0 0 1-8.98-7.66 9.32 9.32 0 0 1 5.83-10.36 9.2 9.2 0 0 1 6.31 0 9.32 9.32 0 0 1 5.83 10.36zm-1.82-3.2a7.43 7.43 0 0 0-4.64-5.4 7.37 7.37 0 0 0-5.05 0 7.46 7.46 0 0 0-4.79 6.8 7.47 7.47 0 0 0 4.43 7.05c2.75 1.21 5.95.6 8.07-1.56a7.56 7.56 0 0 0 1.98-6.88zm-2.67 2.4a4.59 4.59 0 0 1-4.5 3.84 4.66 4.66 0 0 1-1.58-9.01 4.57 4.57 0 0 1 6.08 5.18zm-1.8-1.38c-.2-.94-.86-1.7-1.75-2.03a2.78 2.78 0 0 0-1.9 0 2.85 2.85 0 0 0-1 4.6 2.78 2.78 0 0 0 3.9 0v.01c.67-.67.95-1.65.75-2.58zm13.7-1.32c.15 1.27.15 2.56 0 3.83a.93.93 0 0 1-.55.75l-3.46 1.52c-.2.6-.44 1.2-.73 1.77l1.4 3.56c.13.31.08.67-.13.93-.78 1-1.67 1.92-2.67 2.71a.9.9 0 0 1-.9.14l-3.5-1.43c-.57.3-1.15.54-1.75.74l-1.48 3.53c-.13.3-.41.52-.74.56-1.25.15-2.51.15-3.77 0a.92.92 0 0 1-.73-.56l-1.49-3.53c-.6-.2-1.18-.45-1.74-.74l-3.5 1.43a.9.9 0 0 1-.9-.14c-1-.8-1.9-1.7-2.67-2.71a.95.95 0 0 1-.13-.93l1.4-3.57c-.29-.57-.53-1.16-.73-1.77l-3.46-1.51a.93.93 0 0 1-.55-.75 16.76 16.76 0 0 1 0-3.84.93.93 0 0 1 .55-.74l3.46-1.52c.2-.6.44-1.2.72-1.77l-1.4-3.57a.95.95 0 0 1 .13-.92 16 16 0 0 1 2.67-2.71.9.9 0 0 1 .91-.13l3.5 1.42a11.77 11.77 0 0 1 1.75-.74l1.48-3.52c.13-.31.4-.52.73-.56 1.26-.15 2.52-.15 3.77 0 .33.04.6.25.74.56l1.49 3.52a9.75 9.75 0 0 1 1.73.74l3.51-1.43a.9.9 0 0 1 .9.14 16.19 16.19 0 0 1 2.67 2.71c.2.27.25.62.13.93l-1.4 3.56c.29.58.53 1.17.72 1.78l3.47 1.51c.3.13.51.42.55.75zm-1.72 1.91c0-.39-.02-.78-.05-1.16l-3.35-1.47a.93.93 0 0 1-.52-.6c-.22-.77-.53-1.51-.9-2.22a.95.95 0 0 1-.05-.8l1.35-3.45a14.27 14.27 0 0 0-1.62-1.65l-3.4 1.39a.9.9 0 0 1-.78-.05 11.2 11.2 0 0 0-2.16-.92.95.95 0 0 1-.6-.53l-1.44-3.42c-.77-.06-1.53-.06-2.3 0l-1.44 3.42a.92.92 0 0 1-.58.52l-.7.22c-.5.2-1 .44-1.48.71a.9.9 0 0 1-.78.05l-3.4-1.38a14.86 14.86 0 0 0-1.62 1.64l1.36 3.46c.1.26.08.55-.05.8-.38.7-.68 1.44-.9 2.22a.93.93 0 0 1-.52.6l-3.36 1.46a14.92 14.92 0 0 0 0 2.33l3.36 1.47c.25.1.44.33.51.6.23.77.53 1.51.91 2.22.13.24.15.53.05.8l-1.36 3.45a14.44 14.44 0 0 0 1.62 1.64l3.4-1.37a.9.9 0 0 1 .77.04 11 11 0 0 0 2.19.93c.26.07.48.27.58.52l1.44 3.42c.77.06 1.53.06 2.3 0l1.44-3.42c.1-.25.32-.45.58-.53.76-.22 1.5-.53 2.19-.92a.9.9 0 0 1 .78-.04l3.39 1.37a14.84 14.84 0 0 0 1.62-1.65l-1.36-3.45a.95.95 0 0 1 .05-.8c.38-.7.68-1.45.9-2.22a.93.93 0 0 1 .52-.6l3.36-1.46c.03-.38.05-.77.05-1.17zm-14.67 28c0 3.1-2.46 5.6-5.5 5.6s-5.5-2.5-5.5-5.6c0-3.1 2.46-5.6 5.5-5.6s5.5 2.5 5.5 5.6zm-1.83 0a3.7 3.7 0 0 0-3.67-3.73 3.7 3.7 0 0 0-3.67 3.73 3.7 3.7 0 0 0 3.67 3.73 3.7 3.7 0 0 0 3.67-3.73zm7.24-1.39c.12.92.12 1.86 0 2.78a.93.93 0 0 1-.62.77l-1.51.51a9.3 9.3 0 0 1-.72 1.76l.71 1.46c.16.32.12.7-.09.98-.55.74-1.2 1.4-1.93 1.97a.9.9 0 0 1-.97.1l-1.43-.73c-.55.3-1.13.54-1.73.73l-.5 1.54a.92.92 0 0 1-.75.63c-.9.12-1.83.12-2.74 0a.92.92 0 0 1-.75-.63l-.5-1.54a8.92 8.92 0 0 1-1.73-.73l-1.43.72a.9.9 0 0 1-.97-.09 10.52 10.52 0 0 1-1.93-1.97.95.95 0 0 1-.1-.98l.72-1.46a9.3 9.3 0 0 1-.72-1.76l-1.51-.51a.93.93 0 0 1-.62-.77c-.12-.92-.12-1.86 0-2.78a.93.93 0 0 1 .62-.76l1.51-.52c.18-.6.42-1.2.72-1.76l-.71-1.45a.95.95 0 0 1 .09-.99c.56-.74 1.2-1.4 1.93-1.97a.9.9 0 0 1 .97-.09l1.43.73a9 9 0 0 1 1.73-.73l.5-1.54c.11-.34.4-.59.75-.63.91-.13 1.83-.13 2.74 0 .35.04.64.29.75.63l.5 1.54a9 9 0 0 1 1.73.73l1.43-.73a.9.9 0 0 1 .97.1c.72.56 1.38 1.22 1.93 1.96.21.29.25.67.1.99l-.72 1.45c.3.56.54 1.15.72 1.76l1.51.52c.34.11.58.4.62.76zm-1.74 1.4l-.02-.58-1.42-.48a.93.93 0 0 1-.6-.67 7.5 7.5 0 0 0-.9-2.19.95.95 0 0 1-.03-.9l.67-1.37-.39-.42a11 11 0 0 0-.41-.4l-1.34.7a.9.9 0 0 1-.9-.05 7.15 7.15 0 0 0-2.13-.9.92.92 0 0 1-.66-.62l-.48-1.44a8.76 8.76 0 0 0-1.12 0l-.48 1.44c-.1.3-.35.54-.66.62-.75.18-1.48.48-2.14.9a.9.9 0 0 1-.89.04l-1.34-.68c-.14.13-.28.25-.41.4-.14.13-.26.27-.39.41l.67 1.37c.14.28.13.63-.04.9a7.5 7.5 0 0 0-.89 2.19.93.93 0 0 1-.6.67l-1.42.48a8.54 8.54 0 0 0 0 1.15l1.42.48c.3.1.53.35.6.67.18.77.48 1.5.9 2.18.16.28.17.62.03.9l-.67 1.37.39.42.41.4 1.34-.69a.9.9 0 0 1 .9.04c.65.42 1.38.72 2.13.9.31.08.56.31.66.62l.48 1.45c.37.02.75.02 1.12 0l.48-1.45c.1-.3.35-.54.66-.61a7.17 7.17 0 0 0 2.14-.9.9.9 0 0 1 .9-.05l1.33.68a9.22 9.22 0 0 0 .8-.81l-.67-1.36a.95.95 0 0 1 .04-.9c.4-.68.7-1.42.89-2.2.07-.3.3-.56.6-.66l1.42-.48.02-.58zm-8.33-.36c.1.22.1.48 0 .7-.04.12-.1.22-.19.31l-.14.12a.72.72 0 0 1-.16.08.6.6 0 0 1-.17.06l-.18.01a.91.91 0 0 1-.35-.07 1.06 1.06 0 0 1-.3-.2c-.08-.09-.15-.2-.2-.3a.9.9 0 0 1 0-.71.83.83 0 0 1 .5-.5.86.86 0 0 1 .7 0c.06.01.11.04.16.08l.14.1c.08.1.15.2.2.32z"/></defs><use xlink:href="#xa" transform="translate(-533 -5083)"/></symbol><symbol viewBox="0 0 55 58" id="work-5" xmlns="http://www.w3.org/2000/svg"><defs><path id="ya" d="M942 5111h17v2h-17zm0 4h17v2h-17zm0 4h12v2h-12zm6-12h11v2h-11zm5-14h18v2h-18zm0 4h14v2h-14zm6-8h12v2h-12zm28 43a4 4 0 0 1-4 4v3a1 1 0 0 1-1 1h-20a1 1 0 0 1-1-1v-3a4 4 0 0 1-3.86-3H936a4 4 0 0 1-4-4v-4a1 1 0 0 1 1-1h4v-38a4 4 0 0 1 4-4h37a4 4 0 0 1 4 4v5a1 1 0 0 1-1 1h-5v11.51a9.77 9.77 0 0 1 5.35 11.89l-3.99 12.6H983a4 4 0 0 1 4 4zm-11-42h4v-4a2 2 0 1 0-4 0zm-9.52 16.93l-.2.2a7.83 7.83 0 0 0-2.03 7.5l3.52 13.37h7.5l4.17-13.2a7.8 7.8 0 0 0-12.96-7.87zM939 5124h25.65l-2.33-8.86a9.83 9.83 0 0 1 2.55-9.42l.2-.2a9.8 9.8 0 0 1 8.93-2.66V5086c0-.7.2-1.4.56-2H941a2 2 0 0 0-2 2zm22 4h4.7l-.52-2H934v3c0 1.1.9 2 2 2h21.14a4 4 0 0 1 3.86-3zm20 8h-18v2h18zm4-4a2 2 0 0 0-2-2h-22a2 2 0 1 0 0 4h22a2 2 0 0 0 2-2zm-30-43h2v2h-2zm-11 18h2v2h-2zm24.33 7.6l-1.83.8a5.96 5.96 0 0 1 1.9-7.2l1.2 1.6a4 4 0 0 0-1.27 4.8zm4.87-7.48l-.4 1.96c-.53-.1-1.07-.1-1.6 0l-.4-1.96c.8-.16 1.6-.16 2.4 0zm-22.2-15.28c0 1.5-1.22 2.72-2.71 2.72h-2.72v1.36h2.04a.68.68 0 0 1 0 1.36h-2.04v2.04a.68.68 0 1 1-1.36 0v-2.04h-2.03a.68.68 0 0 1 0-1.36h2.03v-6.12c0-.37.3-.68.68-.68h3.4c1.5 0 2.71 1.22 2.71 2.72zm-1.36 0c0-.74-.6-1.36-1.35-1.36h-2.72v2.72h2.72c.74 0 1.35-.6 1.35-1.36z"/></defs><use xlink:href="#ya" transform="translate(-932 -5082)"/></symbol><symbol viewBox="0 0 64 64" id="work-6" xmlns="http://www.w3.org/2000/svg"><defs><path id="za" d="M1393 5096v34.13a5.34 5.34 0 0 1-5.33 5.34h-49.07v7.46c0 .6-.48 1.07-1.07 1.07h-3.2a5.34 5.34 0 0 1-5.33-5.33v-34.14a5.34 5.34 0 0 1 5.33-5.33h2.14a1.07 1.07 0 1 1 0 2.13h-2.14a3.2 3.2 0 0 0-3.2 3.2v29.9a5.28 5.28 0 0 1 3.2-1.1h53.34a3.2 3.2 0 0 0 0-6.4h-2.14c-.59 0-1.06-.48-1.06-1.06v-24.54h-3.2a1.07 1.07 0 1 1 0-2.13h3.2v-7.47c0-.59.47-1.06 1.06-1.06h2.14a5.34 5.34 0 0 1 5.33 5.33zm-56.53 39.47h-2.14a3.2 3.2 0 1 0 0 6.4h2.14zm54.4-39.47a3.2 3.2 0 0 0-3.2-3.2h-1.07v32h1.07c1.15 0 2.28.39 3.2 1.1zm-42.52 5.06a10.67 10.67 0 1 1 21.02-3.74 10.67 10.67 0 0 1-21.02 3.74zm3.04 2.26a8.55 8.55 0 1 0 1.45-10.15 8.55 8.55 0 0 0-1.45 10.15zm2.2-3.19a5.33 5.33 0 0 1 9.05-4.7 5.33 5.33 0 1 1-9.05 4.7zm2.08-.93c0 .85.33 1.66.93 2.26a3.27 3.27 0 0 0 4.53 0 3.2 3.2 0 1 0-4.52-4.52 3.2 3.2 0 0 0-.94 2.26zm-15.88 2.2a18.85 18.85 0 0 1 0-4.4c.05-.37.3-.7.64-.85l4.03-1.73c.23-.7.51-1.37.84-2.03l-1.63-4.07c-.14-.35-.08-.76.16-1.05.9-1.16 1.95-2.2 3.1-3.1.3-.24.7-.3 1.06-.16l4.08 1.63a13.84 13.84 0 0 1 2.03-.85l1.72-4.02c.15-.35.48-.6.86-.64 1.45-.17 2.92-.17 4.38 0 .38.04.7.29.85.64l1.73 4.02.45.15a14 14 0 0 1 1.57.7l4.09-1.63c.35-.14.75-.09 1.05.15 1.15.91 2.2 1.95 3.1 3.1.24.3.3.7.15 1.06l-1.62 4.08c.33.65.6 1.33.84 2.02l4.03 1.73c.35.15.6.48.64.86.17 1.45.17 2.93 0 4.38-.04.38-.29.7-.64.86l-4.03 1.73c-.23.7-.5 1.37-.84 2.03l1.63 4.07c.14.35.08.76-.15 1.05-.91 1.16-1.95 2.2-3.1 3.1-.3.24-.71.3-1.06.16l-4.08-1.63c-.66.33-1.34.61-2.03.85l-1.73 4.03c-.15.35-.48.6-.86.64-1.45.17-2.92.17-4.38 0-.38-.05-.7-.3-.85-.64l-1.73-4.03c-.7-.24-1.37-.52-2.03-.85l-4.07 1.63c-.36.14-.76.08-1.06-.15a18.76 18.76 0 0 1-3.1-3.1c-.23-.3-.3-.7-.15-1.06l1.63-4.07c-.33-.66-.61-1.34-.84-2.03l-4.04-1.73c-.35-.15-.6-.48-.64-.86zm2.01-2.2c0 .45.02.9.05 1.33l3.9 1.68c.3.13.52.37.61.68.26.88.62 1.74 1.06 2.54.15.28.17.62.05.91l-1.58 3.95a17.07 17.07 0 0 0 1.89 1.88l3.95-1.57c.3-.12.62-.1.9.05.81.44 1.66.8 2.55 1.06.3.09.55.3.68.6l1.67 3.9a17 17 0 0 0 2.67 0l1.68-3.9c.12-.3.37-.51.68-.6a13 13 0 0 0 2.54-1.06c.28-.15.61-.17.9-.05l3.95 1.57a16.56 16.56 0 0 0 1.89-1.88l-1.58-3.95c-.11-.3-.1-.63.06-.9.44-.81.8-1.67 1.05-2.55.1-.3.31-.56.6-.68l3.91-1.68a16.63 16.63 0 0 0 0-2.66l-3.9-1.68c-.3-.13-.51-.38-.6-.68-.26-.88-.62-1.74-1.06-2.54a1.07 1.07 0 0 1-.05-.91l1.57-3.95a15.26 15.26 0 0 0-1.88-1.88l-3.97 1.58c-.3.12-.63.1-.9-.06a12.7 12.7 0 0 0-1.73-.8c-.26-.1-.53-.18-.8-.25-.3-.1-.56-.31-.68-.6l-1.68-3.91a16.6 16.6 0 0 0-2.67 0l-1.67 3.9c-.13.3-.38.52-.69.6a12.7 12.7 0 0 0-2.52 1.06c-.28.16-.62.18-.91.06l-3.96-1.58a16.77 16.77 0 0 0-1.89 1.88l1.58 3.95c.12.3.1.63-.06.9-.44.81-.79 1.67-1.05 2.55-.09.3-.3.56-.6.68l-3.9 1.68c-.04.43-.06.88-.06 1.33z"/></defs><use xlink:href="#za" transform="translate(-1329 -5080)"/></symbol></svg>