<svg xmlns="http://www.w3.org/2000/svg" xmlns:xlink="http://www.w3.org/1999/xlink" width="52" height="43" viewBox="0 0 52 43"><defs><path id="pevfa" d="M1060.49 303.86a1 1 0 0 1 1.03-1.72l4.65 2.8.42-.62a2.94 2.94 0 0 1 5.31.88 3 3 0 0 1 4 2 3 3 0 0 1 4 2c.34-.13.7-.2 1.08-.2a2.98 2.98 0 0 1 2.98 2.46l4.51 3.84c.56.44 1.29.7 2.03.7a1.5 1.5 0 0 0 .99-2.62l-9.13-7.61a1 1 0 1 1 1.28-1.54l9.1 7.59c.02 0 .03.02.04.03l2.1 1.75c.31.26.7.4 1.1.4h.3a1.72 1.72 0 0 0 1.14-3.01l-11.06-9.22a1 1 0 1 1 1.28-1.53l11.02 9.18.06.05.16.13c.31.26.7.4 1.11.4h.27a1.74 1.74 0 0 0 1.14-3.06l-14.56-12.75c-1.31.73-3.45 2.52-4.93 3.76l-1.31 1.08c-.77.63-1.74.97-2.73.97h-.8a4.33 4.33 0 0 1-3.07-7.41l5.3-5.3a.92.92 0 0 1 .19-.15l1.02-.64a29.96 29.96 0 0 0-10.74-.03 7.04 7.04 0 0 1-5.6-1.53l-3.81-3.17a1 1 0 1 1 1.28-1.54l3.8 3.17a5.01 5.01 0 0 0 4.02 1.1c5.07-.8 9.6-.63 13.45.54A8.87 8.87 0 0 1 1087 284c1.57 0 3 .47 4.53.98 2.18.71 4.63 1.53 8.04 1.07l6.78-5.8a1 1 0 1 1 1.3 1.52l-7 6a.98.98 0 0 1-.5.22c-4.02.62-6.91-.34-9.24-1.11-1.43-.47-2.66-.88-3.91-.88-2.1 0-3.73 1.07-5.3 2.1l-1.08.7-5.21 5.2a2.34 2.34 0 0 0 1.65 4h.8a2.3 2.3 0 0 0 1.48-.52c.38-.3.81-.68 1.28-1.07 2.54-2.12 4.6-3.79 5.98-4.33a1 1 0 0 1 1.07.18l14.35 12.56 4.46-2.68a1 1 0 0 1 1.03 1.72l-4.06 2.44a3.74 3.74 0 0 1-3.19 5.7h-.27l.01.27a3.73 3.73 0 0 1-3.72 3.73h-.3c-.74 0-1.47-.23-2.09-.64a3.5 3.5 0 0 1-3.39 2.64 5.3 5.3 0 0 1-2.4-.58 4.04 4.04 0 0 1-.98 1.7 2.99 2.99 0 0 1-4.24 0l-1.95-1.82a3 3 0 0 1-4.83-1.5c-.34.13-.7.2-1.08.2a3 3 0 0 1-2.92-2.2c-.34.13-.7.2-1.08.2a2.97 2.97 0 0 1-3.02-2.96V311a2.96 2.96 0 0 1-3-2.96v-.45c0-.32.05-.63.15-.93zm23.78 13.83a1 1 0 0 0 1.44.02c.5-.5.7-1.49.45-1.76l-2.54-2.15c-.06.1-.13.22-.21.32l-1.22 1.63zM1070 305.95a.96.96 0 0 0-1.75-.53l-1.09 1.64a.95.95 0 0 0-.16.53v.46a.96.96 0 0 0 1.75.53l1.09-1.64c.1-.16.16-.34.16-.53zm4 2a.96.96 0 0 0-.95-.95 1 1 0 0 0-.84.38l-2.02 2.7a.97.97 0 0 0-.19.57v.4c0 .52.43.95.95.95a1 1 0 0 0 .84-.38l2.02-2.7a.97.97 0 0 0 .19-.57zm4 2a.96.96 0 0 0-.95-.95 1 1 0 0 0-.84.38l-2.02 2.7a.97.97 0 0 0-.19.57v.4c0 .52.43.95.95.95a1 1 0 0 0 .84-.38l2.02-2.7a.97.97 0 0 0 .19-.57zm3.05 1.05a1 1 0 0 0-.84.38l-2.02 2.7a.97.97 0 0 0-.19.57v.4c0 .52.43.95.95.95a1 1 0 0 0 .84-.38l2.02-2.7a.97.97 0 0 0 .19-.57v-.38a.96.96 0 0 0-.95-.97z"/></defs><g><g transform="translate(-1058 -278)"><use fill="#ffa200" xlink:href="#pevfa"/></g></g></svg>