<svg xmlns="http://www.w3.org/2000/svg" xmlns:xlink="http://www.w3.org/1999/xlink" width="126" height="46" viewBox="0 0 126 46"><defs><path id="86bka" d="M1083.4 1708.25c.18 0 .33.14.33.31v7.2c0 .18-.15.32-.33.32h-3.93a.32.32 0 0 1-.32-.32v-7.2c0-.17.14-.31.32-.31zm-2.2.5c0 .13.1.23.24.23.13 0 .24-.1.24-.23s-.1-.24-.24-.24c-.14 0-.25.1-.25.24zm.59 6.74a.33.33 0 0 0-.34-.33.33.33 0 0 0-.34.33c0 .18.15.33.34.33.19 0 .34-.15.34-.33zm1.53-6.09a.16.16 0 0 0-.16-.16h-3.45a.16.16 0 0 0-.16.16v5.24c0 .09.07.16.16.16h3.45c.09 0 .16-.07.16-.16zm13.58-3.9h6.34c.33 0 .62.12.86.35.24.23.36.52.36.85v8.14c0 .33-.12.61-.36.85-.24.23-.53.35-.86.35h-6.34c-.33 0-.62-.12-.86-.35a1.15 1.15 0 0 1-.36-.85v-8.14c0-.33.12-.62.36-.85.24-.23.53-.35.86-.35zm3.66 9.58a.46.46 0 0 0-.15-.34.47.47 0 0 0-.34-.14.47.47 0 0 0-.34.14c-.1.1-.15.2-.15.34 0 .13.05.24.15.34.1.09.2.14.34.14.13 0 .25-.05.34-.14.1-.1.15-.21.15-.34zm2.68-8.62h-6.34a.23.23 0 0 0-.17.07.23.23 0 0 0-.07.17v7.18c0 .07.02.12.07.17.05.05.1.07.17.07h6.34c.07 0 .12-.02.17-.07.05-.05.07-.1.07-.17v-7.18a.23.23 0 0 0-.07-.17.24.24 0 0 0-.17-.07zm-10.98 7.47v-1.85h-1.06v-.17h1.2v2.5a.81.81 0 0 1-.14-.48zm-4.99.83l-1.38-2.85h.37l1.4 2.85h-.02zm2.05-2.68h-.36l-.05-.17h.35l.06.17zm-1.03-19.67c-.42-.25-.5-.24-.48-.81-.34-.05-.72-.16-.72-.71h4.6v-.96c-.23-.02-.39-.24-.38-.44 0-.34.33-.5.61-.49.27 0 .62.14.62.48 0 .23-.18.44-.37.45v.96l3.83 5.85h-.5l-3.33-5.11v3.07c.66-.01.6.88 0 .87v.1l.97 1.07h-.62l-.35-.4v.4h-.73v-.41l-.4.41h-.65l1.06-1.06v-.12c-.68 0-.67-.87-.01-.86v-.72h-1.2l-2.09 2.76h-.5l2.1-2.76h-2.66c.02-.18.15-.6.72-.71 0-.29.17-.74.48-.86zm1.52 0l-.73.71.26.22.71-.7.73.72.24-.24-.73-.71.74-.72-.25-.23-.73.71-.72-.7-.25.23zm20.23 18.48c-.03.27-.2.46-.44.48l-1.94 6.9c-.93.92-1.84 1.7-2.42 2.86-.45 1.19-.1 2.08.72 2.38l-.48 2.15h-13.02l.05 2.7c.83.25 1.44.95 1.44 1.78 0 1.02-.93 1.86-2.08 1.86-1.14 0-2.08-.84-2.08-1.86 0-.78.53-1.44 1.28-1.72l.07-2.76h-11.9c-.16-.99-2.05-3.31-2.8-4.05l-1.7-1.9c-.7-.85-.9-1.68-.48-2.63l-3.82-3.8.43-.48v-1.67H1067c.06-.54.32-.65.48-.72 0-.24.34-.55.73-.6-.31-.06-.7-.18-.73-.59-.24-.04-.48-.38-.48-.71h3.87v-.95a.48.48 0 0 1-.37-.47c0-.3.25-.51.6-.5.32 0 .48.1.55.27h1.95c.07-1.26.43-2.22.9-3.11h-.97v-.48h1.7l3.38-3.02v-.55h-4.35c0-.6.32-.64.48-.72.03-.47.36-.61.73-.71a1 1 0 0 1-.73-.67c-.28-.05-.49-.06-.48-.76h4.35v-.95c-.12-.02-.35-.2-.35-.41 0-.29.33-.48.6-.49.26 0 .6.2.58.49 0 .29-.26.38-.34.4v3.34h.74v.48h-.5v.56l.5.44v.6l-.5-.45v2.42h.5v.48h-.5v.68c.16 0 .34-.07.5-.17v3.63h-.5a.57.57 0 0 0-.57.56v7.3c0 .32.26.57.58.57h.25l-.06.05h1.98l-.02-.05h.32l.02.05h.69l-.03-.05h.3l.02.05h.97l-.09-.18a.56.56 0 0 0 .21-.36l.27.54h1.37l-1.63-3.4v-.74l.05.1.52-.42h.49l-.86.7 1.82 3.76h2.11l-.02-.05h.4l.02.05h2.75v-.05h1.2v.05h2.43l-.1-.26a.78.78 0 0 0 .2-.29l.2.55h.67l-.29-.72h-.53a.7.7 0 0 0 0-.11v-.12h.45l-.27-.72h-.66l.06.15a.79.79 0 0 0-.34-.09l-1.09-2.85h.31l.25.65h.62l-.25-.65h.26l.26.65h.71l-.28-.65h.28l.17.39v.63l-.06-.13h-.72l.28.71h.5v.24h-.41l.29.71h.12v.24h-.04l.04.08v.08c0 .4.14.75.43 1.03l.03.02.17.45h.83l-.02-.04H1097.23l.02.05h.73l-.02-.05h.37l.13.29h.24c.01-.1.04-.2.07-.3h4.6a1.45 1.45 0 0 0 1.25-.66h3.04l.24-.95h-3.04v-5.1l.14-.05-.14-.07v-2.9c0-.4-.14-.74-.43-1.02a1.45 1.45 0 0 0-1.05-.43h-2.48v-1.1c.67.11 1.72-.2 1.92-.52h-1.92v-.48h2.16v-1.9l-2.16 1.7v-.55l2.16-1.63h-2.16V1698c0-.07 0-.13-.02-.2h2.18v-1.19c-.22-.03-.4-.16-.39-.48 0-.24.29-.43.63-.42.32 0 .56.23.57.42 0 .2-.1.45-.33.48v3.94l3.15 2.5h1.7l-.01.46h-.65v5.08l.88-.28.01.5c-.4.23-.54.37-.9.63v2.65h1.15l.24-.73c-.15-.06-.29-.2-.25-.46.05-.39.35-.46.63-.46.24 0 .55.1.55.46zm-7.9-11.6l.74-.71-.25-.24-.73.72-.72-.72-.24.24.72.71-.72.72.25.22.71-.7.73.72.24-.24zm-8.1 14.22h.65l-.28-.71h-.63zm1.01.95l-.28-.71h-.63l.26.71zm-17.65-16.2l.74-.7-.25-.24-.73.71-.72-.71-.24.24.72.7-.72.72.25.22.71-.7.73.72.24-.24zm-7.72 11.56l.74-.71-.25-.24-.73.71-.72-.7-.25.23.73.71-.73.72.26.22.71-.7.73.71.24-.23zm5.3-6.07c.29.71 1.25.72 1.86 0zm0 5.95h1.94c-.24-.76-1.95-.64-1.94 0zm1.94.95c-.36.22-.9.41-1.7.33.14.57.48 1.53.86 2.22l1.95-2.1c-.34-.05-.87-.1-1.11-.45zm-4.84 2.86l2.42-2.38.18-.2c-.44 0-1.46-.33-1.63-.77h-.24v-.46h1.93c-.35-.18-1.1-1.46-1.14-2.36h-1.95c-.06.12-.2.2-.3.22v5.19zm3.78-.04c-.28-.5-.77-1.62-.94-2.26l-2.6 2.54 1.7 1.67zm.34 4.09h.96v-1.21h.75c-.62-.7-1.43-1.72-1.88-2.55l-1.74 1.87zm1.83 3.26l-2.04-2.02c-.42.51.12 1.09.66 1 0 .61.63 1.22 1.38 1.02zm.34-9.53l-2.1 2.26c.68 1.29 1.5 2.13 1.86 2.58.07.08.15.16.24.22zm.24-2.3c-.53.05-1.25.11-1.45.7h1.45zm0-5.24h-1.45c-.08.45.95.88 1.45.78zm0-2.91l-2.76 2.43h2.76zm3.63 19.34h-1.2v1.19h1.2zm0-1.2h1.21v-1.18h-1.2zm2.42 1.2h-1.2v1.19h1.2zm0-1.2h1.21v-1.18h-1.2zm2.43 1.2h-1.22v1.19h1.22zm0-1.2h1.2v-1.18h-1.2zm2.41 1.2h-1.2v1.19h1.2zm.97-2.38h-1.2v1.19h1.2zm2.18 1.19h1.21v-1.2h-1.2zm2.42 1.19h-1.2v1.19h1.2zm.24-1.2h1.21v-1.18h-1.2zm2.42 1.2h-1.2v1.19h1.2zm0-1.2h1.21v-1.18h-1.2zm2.42 1.2h-1.2v1.19h1.2zm1.45-2.38h-1.2v1.19h1.2zm5.03-8.87c.52-.23.65-.2.78-.28v-5.13c-1.65 1.63-2.45 4.21-.78 5.41zm-3.09-5.9h2.42l-2.42-1.94zm2.9.48h-2.66c-.05.33 1.33 1.44 2.67 0zm-1.2 8.57h2.17v-2.49a8.08 8.08 0 0 0-2.17 2.5zm2 1.27l.74-.71-.25-.24-.73.71-.72-.7-.24.23.72.71-.72.72.25.22.71-.7.73.71.24-.23zm-21.19 2.19c0-.3.24-.53.54-.53h1.08c.6 0 1.07-.47 1.07-1.06v-1.58h3.23v1.58c0 .59.49 1.06 1.08 1.06h1.08c.3 0 .53.24.53.53 0 .29-.24.52-.53.52h-7.54a.53.53 0 0 1-.54-.52zm-4.74-7.65h-1.08v-9.64c0-.54.42-.98.94-.98h18.37c.52 0 .95.44.95.98v6.9h-1.08v-6.83h-18.1zm14.16 3.83h-11.55v-1.05h11.55z"/></defs><g><g transform="translate(-1065 -1687)"><g fill="#e1e1e1" font-family="BebasNeueBold" font-size="16" font-style="none" font-weight="400" style="text-transform:uppercase;line-height:14px"><text dominant-baseline="text-before-edge" font-family="Helvetica, Arial, sans-serif" transform="translate(1113 1713)"><tspan font-family="'Montserrat','Montserrat-Regular'" font-size="12" letter-spacing="1.2" style="font-kerning:normal"></tspan><tspan font-family="BebasNeueBold" letter-spacing="1.6" style="font-kerning:normal">WebSurfers</tspan></text></g></g><g transform="translate(-1065 -1687)"><g fill="#e1e1e1" font-family="'Montserrat','Montserrat-Regular'" font-size="10" font-style="none" font-weight="400" style="line-height:14px"><text dominant-baseline="text-before-edge" font-family="Helvetica, Arial, sans-serif" transform="translate(1113 1702)"><tspan style="font-kerning:normal">Разработано</tspan></text></g></g><g transform="translate(-1065 -1687)"><use fill="#e1e1e1" xlink:href="#86bka"/></g></g></svg>