<svg xmlns="http://www.w3.org/2000/svg" xmlns:xlink="http://www.w3.org/1999/xlink" width="63" height="47" viewBox="0 0 63 47"><defs><path id="indna" d="M1115 497.5c0 .5-.4.92-.9.92h-1.01v20.66c0 .5-.4.92-.9.92a.9.9 0 0 1-.89-.92v-3h-2.92a.9.9 0 0 1-.9-.92c0-.5.4-.92.9-.92h2.92v-15.82h-53.6v15.82h46.86c.49 0 .89.41.89.92 0 .5-.4.92-.9.92h-46.85v3c0 .5-.4.92-.9.92a.9.9 0 0 1-.89-.92v-20.66h-1.02a.9.9 0 0 1-.89-.92c0-.5.4-.92.9-.92h2.92v-13.96c0-2.04 1.61-3.7 3.6-3.7.95 0 1.86.39 2.54 1.09l.6.62a3.69 3.69 0 0 1 4.62.57l.67.7c.35.36.35.94 0 1.3l-4.05 4.16a.88.88 0 0 1-1.26 0l-.68-.7a3.95 3.95 0 0 1-.56-4.73l-.6-.63c-.35-.35-.8-.54-1.29-.54-1 0-1.8.83-1.8 1.86v13.96h2.99v-6.93c0-.5.4-.92.89-.92h7.64c.5 0 .9.42.9.92v3h1c.5 0 .9.42.9.93v3h2.04v-4.73c0-1.1.59-2.09 1.55-2.58l4.14-2.13a.06.06 0 0 0 .04-.06v-1.39a4.88 4.88 0 0 1-1.91-3.89v-1.96-.03-.01a4.78 4.78 0 0 1 4.71-4.8c2.6 0 4.71 2.17 4.71 4.84v1.96c0 1.6-.75 3.01-1.9 3.9v1.38c0 .03 0 .05.03.06l4.14 2.13c.96.49 1.55 1.48 1.55 2.58v4.73h7.85l.2-2.09h-2.25c-1.55 0-2.8-1.29-2.8-2.88v-7.84a2.85 2.85 0 0 1 2.8-2.88h11.46c1.54 0 2.8 1.29 2.8 2.88v7.84a2.85 2.85 0 0 1-2.8 2.88h-2.26l.2 2.1h5.88c.49 0 .89.4.89.91zm-49.88-12.13l.05.04 2.79-2.86-.05-.05a1.94 1.94 0 0 0-2.79 0 2.07 2.07 0 0 0 0 2.87zm-.74 7.29h5.86v-2.09h-5.86zm7.77 1.83h-7.77v2.1h7.77zm9.5-15.36c1.15.24 3.41.66 5.78.76v-.05c0-1.66-1.32-3-2.93-3-1.37 0-2.53.97-2.84 2.29zm2.85 5.68a2.97 2.97 0 0 0 2.93-3v-.09a36.26 36.26 0 0 1-5.86-.74v.82c0 1.66 1.32 3.01 2.93 3.01zm-.9 7.18l-2.46-2.53-2.82 1.45c-.35.18-.57.54-.57.94v4.73h2.04v-2.02c0-.51.4-.92.89-.92.5 0 .9.41.9.92v2.02h2.03zm.9-1.67l1.7-1.76a1.9 1.9 0 0 1-.68-1.48v-.55a4.59 4.59 0 0 1-2.04 0v.55a1.9 1.9 0 0 1-.69 1.48zm6.75 1.53c0-.4-.22-.76-.57-.94l-2.82-1.45-2.47 2.53v4.6h2.04v-2.03c0-.51.4-.92.89-.92.5 0 .9.41.9.92v2.02h2.03zm15.18 4.73l-.77-7.92a.06.06 0 0 0-.06-.05h-2.09a.06.06 0 0 0-.06.05l-.77 7.92zm1.42-3.92h2.44c.56 0 1.01-.47 1.01-1.05v-7.84c0-.58-.45-1.05-1.01-1.05h-11.46c-.56 0-1.02.47-1.02 1.05v7.84c0 .58.46 1.05 1.02 1.05h2.43l.41-4.18c.1-.97.89-1.7 1.84-1.7h2.1c.95 0 1.74.73 1.83 1.7z"/></defs><g><g transform="translate(-1053 -474)"><use fill="#3a7ab9" xlink:href="#indna"/></g></g></svg>