<svg xmlns="http://www.w3.org/2000/svg" xmlns:xlink="http://www.w3.org/1999/xlink" width="29" height="29" viewBox="0 0 29 29"><defs><path id="avroa" d="M132.29 467.29c-.95.95-2.5.95-3.45 0l-5.97-5.97a11.48 11.48 0 0 0 3.45-3.45l5.97 5.97c.95.95.95 2.5 0 3.45zm-15.54-5.79a9.75 9.75 0 1 1 0-19.5 9.75 9.75 0 0 1 0 19.5zm0-17.06a7.32 7.32 0 1 0 .02 14.64 7.32 7.32 0 0 0-.02-14.64zm-4.06 7.31h-1.63a5.7 5.7 0 0 1 5.69-5.69v1.63a4.07 4.07 0 0 0-4.06 4.06z"/></defs><g><g transform="translate(-106 -441)"><use fill="#fff" xlink:href="#avroa"/></g></g></svg>