<?xml version="1.0" encoding="UTF-8" standalone="no"?>
<!-- Created with Inkscape (http://www.inkscape.org/) -->

<svg
   xmlns:dc="http://purl.org/dc/elements/1.1/"
   xmlns:cc="http://creativecommons.org/ns#"
   xmlns:rdf="http://www.w3.org/1999/02/22-rdf-syntax-ns#"
   xmlns:svg="http://www.w3.org/2000/svg"
   xmlns="http://www.w3.org/2000/svg"
   xmlns:sodipodi="http://sodipodi.sourceforge.net/DTD/sodipodi-0.dtd"
   xmlns:inkscape="http://www.inkscape.org/namespaces/inkscape"
   width="86.60054mm"
   height="153.49362mm"
   viewBox="0 0 86.60054 153.49361"
   version="1.1"
   id="svg8"
   inkscape:version="0.92.1 r15371"
   sodipodi:docname="right.svg">
  <defs
     id="defs2" />
  <sodipodi:namedview
     id="base"
     pagecolor="#ffffff"
     bordercolor="#666666"
     borderopacity="1.0"
     inkscape:pageopacity="0.0"
     inkscape:pageshadow="2"
     inkscape:zoom="0.35"
     inkscape:cx="1316.9727"
     inkscape:cy="126.01997"
     inkscape:document-units="mm"
     inkscape:current-layer="layer1"
     showgrid="false"
     fit-margin-top="0"
     fit-margin-left="0"
     fit-margin-right="0"
     fit-margin-bottom="0"
     inkscape:window-width="1366"
     inkscape:window-height="715"
     inkscape:window-x="-8"
     inkscape:window-y="-8"
     inkscape:window-maximized="1" />
  <metadata
     id="metadata5">
    <rdf:RDF>
      <cc:Work
         rdf:about="">
        <dc:format>image/svg+xml</dc:format>
        <dc:type
           rdf:resource="http://purl.org/dc/dcmitype/StillImage" />
        <dc:title></dc:title>
      </cc:Work>
    </rdf:RDF>
  </metadata>
  <g
     inkscape:label="Layer 1"
     inkscape:groupmode="layer"
     id="layer1"
     transform="translate(242.61569,-28.682486)">
    <path
       style="fill:#000000;stroke-width:0.26458335"
       d="m -233.9338,182.08718 c -6.66185,-0.90663 -10.48831,-8.24027 -7.745,-14.84375 0.52344,-1.25998 3.85727,-4.68816 30.70838,-31.57749 l 30.12119,-30.16407 -29.90682,-29.896356 c -26.1776,-26.168435 -30.00497,-30.094307 -30.69394,-31.483854 -3.07116,-6.194037 0.18497,-13.507135 6.73353,-15.123154 1.5553,-0.38381 2.08968,-0.403844 3.64729,-0.136743 3.67587,0.63034 1.68292,-1.215257 39.14754,36.253037 33.44323,33.446516 34.58522,34.620926 35.15859,36.15687 1.24099,3.32433 0.9186,7.20907 -0.8258,9.95077 -0.86924,1.3662 -67.49099,67.95424 -69.29907,69.26401 -1.80142,1.30494 -4.58033,1.93627 -7.04589,1.60073 z"
       id="path73"
       inkscape:connector-curvature="0" />
  </g>
</svg>
