<?xml version="1.0" encoding="UTF-8" standalone="no"?>
<!-- Created with Inkscape (http://www.inkscape.org/) -->

<svg
   xmlns:dc="http://purl.org/dc/elements/1.1/"
   xmlns:cc="http://creativecommons.org/ns#"
   xmlns:rdf="http://www.w3.org/1999/02/22-rdf-syntax-ns#"
   xmlns:svg="http://www.w3.org/2000/svg"
   xmlns="http://www.w3.org/2000/svg"
   xmlns:sodipodi="http://sodipodi.sourceforge.net/DTD/sodipodi-0.dtd"
   xmlns:inkscape="http://www.inkscape.org/namespaces/inkscape"
   width="131.70613mm"
   height="130.50229mm"
   viewBox="0 0 131.70613 130.50228"
   version="1.1"
   id="svg8"
   inkscape:version="0.92.1 r15371"
   sodipodi:docname="soc-1.svg">
  <defs
     id="defs2" />
  <sodipodi:namedview
     id="base"
     pagecolor="#ffffff"
     bordercolor="#666666"
     borderopacity="1.0"
     inkscape:pageopacity="0.0"
     inkscape:pageshadow="2"
     inkscape:zoom="0.35"
     inkscape:cx="1424.9447"
     inkscape:cy="90.525052"
     inkscape:document-units="mm"
     inkscape:current-layer="layer1"
     showgrid="false"
     fit-margin-top="0"
     fit-margin-left="0"
     fit-margin-right="0"
     fit-margin-bottom="0"
     inkscape:window-width="1366"
     inkscape:window-height="715"
     inkscape:window-x="-8"
     inkscape:window-y="-8"
     inkscape:window-maximized="1" />
  <metadata
     id="metadata5">
    <rdf:RDF>
      <cc:Work
         rdf:about="">
        <dc:format>image/svg+xml</dc:format>
        <dc:type
           rdf:resource="http://purl.org/dc/dcmitype/StillImage" />
        <dc:title></dc:title>
      </cc:Work>
    </rdf:RDF>
  </metadata>
  <g
     inkscape:label="Layer 1"
     inkscape:groupmode="layer"
     id="layer1"
     transform="translate(271.18329,-42.282458)">
    <path
       style="fill:#000000;stroke-width:0.26458332"
       d="m -213.01867,172.51872 c -20.27549,-2.28872 -39.04188,-14.51572 -49.35497,-32.15658 -4.4844,-7.67072 -7.28783,-15.98451 -8.50238,-25.21443 -0.46665,-3.54632 -0.38752,-12.6725 0.14064,-16.220336 2.13684,-14.353841 8.32824,-26.934025 18.20853,-36.997575 10.15228,-10.340569 23.87721,-17.178336 38.47761,-19.169557 5.01919,-0.684524 13.32188,-0.626311 18.30703,0.128356 24.80399,3.754902 44.89329,20.362911 52.9384,43.76466 2.39376,6.963019 3.31175,12.6725 3.3265,20.689242 0.0199,10.82292 -1.87926,19.23658 -6.45007,28.57499 -10.01463,20.46042 -29.55237,34.17118 -52.19805,36.63037 -3.02909,0.32894 -11.87436,0.31164 -14.89324,-0.0291 z m 12.02087,-46.91083 c 1.09622,-0.56688 1.49513,-1.57901 1.72424,-4.37477 0.23891,-2.91547 0.57003,-3.43958 2.17303,-3.43958 1.08331,0 1.31468,0.11058 2.04442,0.97714 2.28598,2.71459 5.35328,5.63762 6.83676,6.51521 1.61128,0.9532 1.70445,0.97394 4.29883,0.95738 1.45852,-0.009 4.34582,-0.1075 6.41623,-0.2182 4.40375,-0.23546 4.83458,-0.43947 4.83458,-2.28927 0,-1.67192 -1.57833,-3.8297 -6.14119,-8.3958 -2.30537,-2.30701 -3.97858,-4.198 -4.08313,-4.61459 -0.0974,-0.38821 -0.0326,-1.24649 0.14418,-1.90729 0.34016,-1.27181 0.79081,-1.94511 3.28982,-4.91521 2.02522,-2.40698 5.0487,-6.7494 5.99855,-8.615295 1.09122,-2.143606 1.22171,-3.141657 0.52635,-4.025664 l -0.56674,-0.720495 h -6.94613 c -6.86807,0 -6.95216,0.0067 -7.48256,0.595312 -0.29504,0.327422 -1.2693,2.172439 -2.16503,4.100039 -2.57974,5.551583 -5.09592,9.338243 -7.15182,10.762993 -1.33537,0.92541 -1.70321,0.71154 -2.29858,-1.33646 -0.35717,-1.22863 -0.37584,-2.17469 -0.13894,-7.04197 0.40122,-8.243469 0.35475,-8.299331 -7.22739,-8.6883 -5.80017,-0.297553 -7.48345,-0.03384 -9.08291,1.422987 -0.64266,0.585346 -0.79024,1.243732 -0.2788,1.243732 0.6915,0 2.34058,1.443683 2.84918,2.49432 0.48193,0.995532 0.53843,1.624494 0.53807,5.989731 -2.7e-4,4.11346 -0.0729,5.02246 -0.46303,5.80345 -1.12189,2.24579 -2.9282,0.75691 -6.53714,-5.38835 -0.8431,-1.435631 -2.22855,-4.075426 -3.07877,-5.866216 -0.85022,-1.790787 -1.81418,-3.44392 -2.14213,-3.673623 -0.49568,-0.347189 -1.50278,-0.417645 -5.96985,-0.417645 -6.4222,0 -7.30782,0.206298 -7.03449,1.638636 0.71524,3.748233 4.50049,10.870438 10.51642,19.787368 3.97482,5.89155 9.34121,11.00124 13.47301,12.82852 1.26652,0.56011 2.93333,0.96879 5.33743,1.30865 1.87765,0.26544 6.93779,-0.0573 7.78753,-0.49674 z"
       id="path60"
       inkscape:connector-curvature="0" />
  </g>
</svg>
