<?xml version="1.0" encoding="utf-8"?>
<!-- Generator: Adobe Illustrator 21.0.0, SVG Export Plug-In . SVG Version: 6.00 Build 0)  -->
<svg version="1.1" id="Shape_1_1_" xmlns="http://www.w3.org/2000/svg" xmlns:xlink="http://www.w3.org/1999/xlink" x="0px" y="0px"
	 viewBox="0 0 512 434" style="enable-background:new 0 0 512 434;" xml:space="preserve" width="52" height="45" >
<style type="text/css">
	.st0{fill-rule:evenodd;clip-rule:evenodd;}
</style>
<g id="Shape_1">
	<g>
		<path class="st0" d="M507.1,196.5c-3.2-3.2-7.4-4.9-11.9-4.9h0l-20.9,0c-0.3,0-0.4-0.3-0.5-0.6c-5.8-28.2-18.7-54.8-37.3-76.9
			c-18-21.4-41.1-38.2-66.9-48.7c-4.2-17.5-12.9-35.6-30.2-49.2C322.6,3,305.7,0.4,305,0.3c-2.3-0.3-4.7,0.4-6.5,1.9
			c-1.8,1.5-2.8,3.8-2.8,6.2v44h-29.6c-7.3-25.1-30.5-43.5-57.9-43.5c-28,0-51.6,19.2-58.4,45.1c-40.3,5.5-77.4,25-104.9,55.4
			C15.9,141.4,0,182.7,0,225.8c0,96.8,50.3,175.6,65.7,197.4C70.4,430,78.2,434,86.5,434h34.7c14.1,0,25.5-11.5,25.5-25.5v-11.3
			c8.8,1.4,17.7,2,26.6,2h78.8v9.2c0,14.1,11.5,25.5,25.5,25.5h38.1c12,0,22.5-8.5,25-20.2l4.2-19.5c53.6-13,96.7-50.6,117.9-99.4
			h32.3c9.3,0,16.8-7.6,16.8-16.8v-69.6C512,203.9,510.2,199.7,507.1,196.5z M208.2,25.3c24.3,0,44,19.8,44,44
			c0,6.2-1.3,12.3-3.8,17.9H168c-2.5-5.6-3.8-11.7-3.8-17.9C164.1,45,183.9,25.3,208.2,25.3z M495.7,278L495.7,278
			c0,0.3-0.2,0.5-0.5,0.5H469c4.4-13.9,7.2-28.5,8-43.6c0.2-4.5-3.2-8.3-7.7-8.6c-4.5-0.2-8.3,3.2-8.6,7.7
			c-3.5,66.6-48.8,123.5-111.8,142.3l11.4-53.2c0.9-4.4-1.9-8.7-6.3-9.7c-4.4-0.9-8.7,1.9-9.7,6.3l-19.4,90.6
			c-0.9,4.2-4.7,7.3-9,7.3h-38.1c-5.1,0-9.2-4.1-9.2-9.2v-34.8c0-4.5-3.7-8.2-8.2-8.2c-4.5,0-8.2,3.7-8.2,8.2v9.2h-78.8
			c-8.9,0-17.9-0.8-26.6-2.3v-59.2c0-4.5-3.7-8.2-8.2-8.2s-8.2,3.7-8.2,8.2v87c0,5.1-4.1,9.2-9.2,9.2H86.5c-3,0-5.8-1.4-7.5-3.9
			c-14.7-20.8-62.7-96-62.7-188c0-39.1,14.4-76.5,40.7-105.4c24-26.5,56-43.9,90.9-49.6c0.1,5.6,1.1,11.1,2.7,16.4h-3.3
			c-4.5,0-8.2,3.7-8.2,8.2c0,4.5,3.6,8.2,8.2,8.2H269c4.5,0,8.2-3.7,8.2-8.2c0-4.5-3.7-8.2-8.2-8.2h-3.3c1.8-5.8,2.7-11.8,2.7-17.9
			c0-0.2,0-0.4,0-0.5h27.2v17.9c0,4.5,3.7,8.2,8.2,8.2c4.5,0,8.2-3.7,8.2-8.2V19.1c15.5,5.9,44.6,23.8,44.6,76.3
			c0,4.5,3.7,8.2,8.2,8.2c4.5,0,8.2-3.7,8.2-8.2c0-3.5-0.1-7.1-0.4-10.9c19.7,9.6,37.3,23.3,51.5,40.1c16.9,20,28.6,44.1,33.8,69.7
			c1.6,7.9,8.5,13.6,16.5,13.6l20.9,0c0.1,0,0.2,0,0.4,0.2s0.2,0.3,0.2,0.4V278z M391.2,174.2c-14.9,0-28.3,9.1-33.3,22.7
			c-1.6,4.2,0.6,8.9,4.8,10.5c4.2,1.6,8.9-0.6,10.5-4.8c2.7-7.2,10-12.1,18-12.1c8.1,0,15.4,4.9,18,12.1c1.2,3.3,4.3,5.3,7.6,5.3
			c0.9,0,1.9-0.2,2.8-0.5c4.2-1.6,6.4-6.3,4.8-10.5C419.5,183.3,406.1,174.2,391.2,174.2z"/>
	</g>
</g>
</svg>
