<?xml version="1.0" encoding="utf-8"?>
<!-- Generator: Adobe Illustrator 21.0.0, SVG Export Plug-In . SVG Version: 6.00 Build 0)  -->
<svg version="1.1" id="Shape_1_1_" xmlns="http://www.w3.org/2000/svg" xmlns:xlink="http://www.w3.org/1999/xlink" x="0px" y="0px"
	 viewBox="0 0 512 324" style="enable-background:new 0 0 512 324;" xml:space="preserve" width="58" height="37" >
<style type="text/css">
	.st0{fill-rule:evenodd;clip-rule:evenodd;}
</style>
<g id="Shape_1">
	<g>
		<path class="st0" d="M476.2,137.4l-13.3-53.1c3.6-0.8,6.3-4,6.3-7.8v-8.6c0-18.6-15.1-33.7-33.7-33.7h-60.4V16.6
			c0-9.1-7.4-16.6-16.6-16.6H50.8c-9.1,0-16.6,7.4-16.6,16.6V162c0,4.4,3.6,8,8,8c4.4,0,8-3.6,8-8V16.6c0-0.3,0.2-0.5,0.5-0.5h307.8
			c0.3,0,0.5,0.2,0.5,0.5V162c0,4.4,3.6,8,8,8c4.4,0,8-3.6,8-8v-9.1h94.6c0,0,0,0,0,0c0,0,0,0,0,0c11.6,0,21.5,7.6,24.9,18.2h-24.9
			c-4.4,0-8,3.6-8,8v17.1c0,13.9,11.3,25.1,25.1,25.1h9.1v35.3h-21c-6.9-19.9-25.8-34.2-48-34.2s-41.1,14.3-48,34.2h-3.9v-60.4
			c0-4.4-3.6-8-8-8c-4.4,0-8,3.6-8,8v60.4H192.8c-6.9-19.9-25.8-34.2-48-34.2s-41.1,14.3-48,34.2H50.8c-0.3,0-0.5-0.2-0.5-0.5v-17.6
			H85c4.4,0,8-3.6,8-8c0-4.4-3.6-8-8-8H8c-4.4,0-8,3.6-8,8c0,4.4,3.6,8,8,8h26.2v17.6c0,9.1,7.4,16.6,16.6,16.6h43.3
			c0,0.2,0,0.4,0,0.5c0,28,22.8,50.8,50.8,50.8s50.8-22.8,50.8-50.8c0-0.2,0-0.4,0-0.5h180.7c0,0.2,0,0.4,0,0.5
			c0,28,22.8,50.8,50.8,50.8s50.8-22.8,50.8-50.8c0-0.2,0-0.4,0-0.5H504c4.4,0,8-3.6,8-8v-85.5C512,158,496.4,140.4,476.2,137.4z
			 M375.2,50.3h60.4c9.7,0,17.6,7.9,17.6,17.6v0.5h-78V50.3z M375.2,136.9V84.5h71.2l13.1,52.4H375.2z M144.8,308
			c-19.2,0-34.7-15.6-34.7-34.8s15.6-34.8,34.7-34.8c19.2,0,34.7,15.6,34.7,34.8S164,308,144.8,308z M427,308
			c-19.2,0-34.7-15.6-34.7-34.8s15.6-34.8,34.7-34.8c19.2,0,34.7,15.6,34.7,34.8S446.2,308,427,308z M496,205.3h-9.1
			c-5,0-9.1-4.1-9.1-9.1v-9.1H496V205.3z M144.8,256.6c-9.1,0-16.6,7.4-16.6,16.6c0,9.1,7.4,16.6,16.6,16.6
			c9.1,0,16.6-7.4,16.6-16.6C161.4,264.1,154,256.6,144.8,256.6z M427,256.6c-9.1,0-16.6,7.4-16.6,16.6c0,9.1,7.4,16.6,16.6,16.6
			s16.6-7.4,16.6-16.6C443.6,264.1,436.2,256.6,427,256.6z M205.2,230.4c0,4.4,3.6,8,8,8H333c4.4,0,8-3.6,8-8c0-4.4-3.6-8-8-8H213.2
			C208.8,222.4,205.2,226,205.2,230.4z M25.1,204.2h102.6c4.4,0,8-3.6,8-8s-3.6-8-8-8H25.1c-4.4,0-8,3.6-8,8S20.7,204.2,25.1,204.2z
			 M204.7,42.8c-42.1,0-76.4,34.3-76.4,76.5c0,42.2,34.3,76.5,76.4,76.5s76.4-34.3,76.4-76.5C281.1,77.1,246.8,42.8,204.7,42.8z
			 M204.7,179.6c-33.3,0-60.4-27.1-60.4-60.4s27.1-60.4,60.4-60.4s60.4,27.1,60.4,60.4S238,179.6,204.7,179.6z M212.7,115.9V85
			c0-4.4-3.6-8-8-8s-8,3.6-8,8v34.2c0,2.1,0.8,4.2,2.3,5.7l25.7,25.7c1.6,1.6,3.6,2.3,5.7,2.3c2.1,0,4.1-0.8,5.7-2.3
			c3.1-3.1,3.1-8.2,0-11.3L212.7,115.9z"/>
	</g>
</g>
</svg>
