<?xml version="1.0" encoding="UTF-8" standalone="no"?>
<!-- Generator: Adobe Illustrator 21.0.0, SVG Export Plug-In . SVG Version: 6.00 Build 0)  -->

<svg
   xmlns:dc="http://purl.org/dc/elements/1.1/"
   xmlns:cc="http://creativecommons.org/ns#"
   xmlns:rdf="http://www.w3.org/1999/02/22-rdf-syntax-ns#"
   xmlns:svg="http://www.w3.org/2000/svg"
   xmlns="http://www.w3.org/2000/svg"
   xmlns:sodipodi="http://sodipodi.sourceforge.net/DTD/sodipodi-0.dtd"
   xmlns:inkscape="http://www.inkscape.org/namespaces/inkscape"
   version="1.1"
   id="Forma_1_1_"
   x="0px"
   y="0px"
   viewBox="0 0 550.11257 49"
   xml:space="preserve"
   width="49.010029"
   heigh="49p"
   sodipodi:docname="lupa.svg"
   height="49"
   inkscape:version="0.92.1 r15371"><metadata
     id="metadata14"><rdf:RDF><cc:Work
         rdf:about=""><dc:format>image/svg+xml</dc:format><dc:type
           rdf:resource="http://purl.org/dc/dcmitype/StillImage" /><dc:title></dc:title></cc:Work></rdf:RDF></metadata><defs
     id="defs12" /><sodipodi:namedview
     pagecolor="#ffffff"
     bordercolor="#666666"
     borderopacity="1"
     objecttolerance="10"
     gridtolerance="10"
     guidetolerance="10"
     inkscape:pageopacity="0"
     inkscape:pageshadow="2"
     inkscape:window-width="640"
     inkscape:window-height="480"
     id="namedview10"
     showgrid="false"
     fit-margin-top="0"
     fit-margin-left="0"
     fit-margin-right="0"
     fit-margin-bottom="0"
     inkscape:zoom="0.42909091"
     inkscape:cx="24.5"
     inkscape:cy="-203.68273"
     inkscape:window-x="0"
     inkscape:window-y="0"
     inkscape:window-maximized="0"
     inkscape:current-layer="Forma_1_1_" /><style
     type="text/css"
     id="style2">
	.st0{fill-rule:evenodd;clip-rule:evenodd;}
</style><g
     id="Forma_1"
     style="fill:#ffffff"
     transform="translate(0,-250.5)"><g
       id="g6"
       style="fill:#ffffff"><path
         class="st0"
         d="M 544.4,516.8 378.3,350.7 C 409.2,313.7 428.1,265.8 428.1,214 428.1,95.8 332.2,0 214,0 96.4,0 0,96.3 0,214 c 0,118.2 96.4,214 214.1,214 52.2,0 99.7,-18.5 136.7,-49.8 l 166.1,166.1 c 3.8,3.8 8.5,5.7 13.8,5.7 5.3,0 10,-1.9 13.8,-5.7 7.5,-7.6 7.5,-19.9 -0.1,-27.5 z M 214.1,389.1 C 117.3,389.1 39,310.3 39,214 39,117.7 117.7,38.9 214.1,38.9 c 96.8,0 175.1,78.8 175.1,175.1 0,96.8 -78.3,175.1 -175.1,175.1 z"
         id="path4"
         style="clip-rule:evenodd;fill:#ffffff;fill-rule:evenodd"
         inkscape:connector-curvature="0" /></g></g></svg>