<?xml version="1.0" encoding="utf-8"?>
<!-- Generator: Adobe Illustrator 21.0.0, SVG Export Plug-In . SVG Version: 6.00 Build 0)  -->
<svg version="1.1" xmlns="http://www.w3.org/2000/svg" xmlns:xlink="http://www.w3.org/1999/xlink" x="0px" y="0px"
	 viewBox="0 0 692 633" style="enable-background:new 0 0 692 633;" xml:space="preserve" width="62"
height="55">
<style type="text/css">
	.st0{enable-background:new    ;}
	.st1{fill-rule:evenodd;clip-rule:evenodd;}
</style>
<g id="Forma_1_1_" class="st0">
	<g id="Forma_1">
		<g>
			<path class="st1" d="M175,40H66.7C52,40,40,52,40,66.7V175c0,14.7,12,26.7,26.7,26.7H175c14.8,0,26.8-12,26.8-26.7V66.7
				C201.8,52,189.8,40,175,40z M184.3,175c0,5.1-4.2,9.3-9.3,9.3H66.7c-5.1,0-9.3-4.2-9.3-9.3V66.7c0-5.1,4.2-9.3,9.3-9.3H175
				c5.1,0,9.3,4.2,9.3,9.3V175z M269.4,85.9h373.9c4.8,0,8.7-3.9,8.7-8.7c0-4.8-3.9-8.7-8.7-8.7H269.4c-4.8,0-8.7,3.9-8.7,8.7
				C260.7,82,264.6,85.9,269.4,85.9z M269.4,129.6h295.5c4.8,0,8.7-3.9,8.7-8.7c0-4.8-3.9-8.7-8.7-8.7H269.4c-4.8,0-8.7,3.9-8.7,8.7
				C260.7,125.6,264.6,129.6,269.4,129.6z M643.3,155.8H269.4c-4.8,0-8.7,3.9-8.7,8.7c0,4.8,3.9,8.7,8.7,8.7h373.9
				c4.8,0,8.7-3.9,8.7-8.7C652,159.7,648.1,155.8,643.3,155.8z M643.3,264.1H269.4c-4.8,0-8.7,3.9-8.7,8.7c0,4.8,3.9,8.7,8.7,8.7
				h373.9c4.8,0,8.7-3.9,8.7-8.7C652,268,648.1,264.1,643.3,264.1z M269.4,325.2h295.5c4.8,0,8.7-3.9,8.7-8.7c0-4.8-3.9-8.7-8.7-8.7
				H269.4c-4.8,0-8.7,3.9-8.7,8.7C260.7,321.3,264.6,325.2,269.4,325.2z M643.3,351.4H269.4c-4.8,0-8.7,3.9-8.7,8.7s3.9,8.7,8.7,8.7
				h373.9c4.8,0,8.7-3.9,8.7-8.7S648.1,351.4,643.3,351.4z M643.3,459.8H269.4c-4.8,0-8.7,3.9-8.7,8.7c0,4.8,3.9,8.7,8.7,8.7h373.9
				c4.8,0,8.7-3.9,8.7-8.7C652,463.7,648.1,459.8,643.3,459.8z M269.4,520.9h295.5c4.8,0,8.7-3.9,8.7-8.7c0-4.8-3.9-8.7-8.7-8.7
				H269.4c-4.8,0-8.7,3.9-8.7,8.7C260.7,517,264.6,520.9,269.4,520.9z M643.3,547.1H269.4c-4.8,0-8.7,3.9-8.7,8.7
				c0,4.8,3.9,8.7,8.7,8.7h373.9c4.8,0,8.7-3.9,8.7-8.7S648.1,547.1,643.3,547.1z M175,235.7H66.7c-14.7,0-26.7,12-26.7,26.7v108.2
				c0,14.7,12,26.7,26.7,26.7H175c14.8,0,26.8-12,26.8-26.7V262.4C201.8,247.7,189.8,235.7,175,235.7z M184.3,370.6
				c0,5.1-4.2,9.3-9.3,9.3H66.7c-5.1,0-9.3-4.2-9.3-9.3V262.4c0-5.1,4.2-9.3,9.3-9.3H175c5.1,0,9.3,4.2,9.3,9.3V370.6z M175,431.3
				H66.7C52,431.3,40,443.3,40,458v108.2C40,581,52,593,66.7,593H175c14.8,0,26.8-12,26.8-26.7V458
				C201.8,443.3,189.8,431.3,175,431.3z M184.3,566.3c0,5.1-4.2,9.3-9.3,9.3H66.7c-5.1,0-9.3-4.2-9.3-9.3V458c0-5.1,4.2-9.3,9.3-9.3
				H175c5.1,0,9.3,4.2,9.3,9.3V566.3z"/>
		</g>
	</g>
</g>
<g id="Прямоугольник_x2C__скругл._углы_1_1_" class="st0">
	<g id="Прямоугольник_x2C__скругл._углы_1">
		<g>
			<path d="M675,17v599H17V17H675 M677,0H15C6.7,0,0,6.7,0,15v603c0,8.3,6.7,15,15,15h662c8.3,0,15-6.7,15-15V15
				C692,6.7,685.3,0,677,0L677,0z"/>
		</g>
	</g>
</g>
</svg>
