<?xml version="1.0" encoding="utf-8"?>
<!-- Generator: Adobe Illustrator 21.0.0, SVG Export Plug-In . SVG Version: 6.00 Build 0)  -->
<svg version="1.1" id="Forma_1_1_" xmlns="http://www.w3.org/2000/svg" xmlns:xlink="http://www.w3.org/1999/xlink" x="0px" y="0px"
	 viewBox="0 0 512 512" style="enable-background:new 0 0 512 512;" xml:space="preserve" width="59"
height="59">
<style type="text/css">
	.st0{fill-rule:evenodd;clip-rule:evenodd;}
</style>
<g id="Forma_1">
	<g>
		<path class="st0" d="M512,387.3V128.3c0-1.2-0.3-2.3-0.7-3.2l0,0L454.1,4.4c-1.3-2.7-3.9-4.4-6.9-4.4H286.1c0,0,0,0,0,0h-60.2
			c0,0,0,0,0,0H64.7c-2.9,0-5.6,1.7-6.9,4.4L0.7,125.1l0,0c-0.5,1-0.7,2.1-0.7,3.2v376.1c0,4.2,3.4,7.6,7.6,7.6h496.8
			c4.2,0,7.6-3.4,7.6-7.6L512,387.3L512,387.3z M442.5,15.2l49.9,105.5H302.2l-7.9-105.5H442.5z M232.9,15.2H279l7.9,105.5h-61.8
			L232.9,15.2z M224.5,135.9h63v89.2h-63V135.9z M69.5,15.2h148.2l-7.9,105.5H19.6L69.5,15.2z M287.5,496.8h-63v-89.2h63V496.8z
			 M496.8,496.8H302.7V400c0-4.2-3.4-7.6-7.6-7.6h-78.2c-4.2,0-7.6,3.4-7.6,7.6v96.8H15.2V135.9h194.1v96.8c0,4.2,3.4,7.6,7.6,7.6
			h78.2c4.2,0,7.6-3.4,7.6-7.6v-96.8h194.1V397h0V496.8z M173.8,456.2H47.6c-4.2,0-7.6,3.4-7.6,7.6c0,4.2,3.4,7.6,7.6,7.6h126.2
			c4.2,0,7.6-3.4,7.6-7.6C181.4,459.6,178,456.2,173.8,456.2z M466.4,172.4H331.1c-4.2,0-7.6,3.4-7.6,7.6V285c0,4.2,3.4,7.6,7.6,7.6
			h135.3c4.2,0,7.6-3.4,7.6-7.6V180C474,175.8,470.6,172.4,466.4,172.4z M458.8,277.3H338.7v-89.7h120.1V277.3z M360.5,221.9H438
			c4.2,0,7.6-3.4,7.6-7.6c0-4.2-3.4-7.6-7.6-7.6h-77.6c-4.2,0-7.6,3.4-7.6,7.6C352.9,218.5,356.3,221.9,360.5,221.9z M360.5,258.3
			H438c4.2,0,7.6-3.4,7.6-7.6c0-4.2-3.4-7.6-7.6-7.6h-77.6c-4.2,0-7.6,3.4-7.6,7.6C352.9,254.9,356.3,258.3,360.5,258.3z
			 M173.8,420.2H47.6c-4.2,0-7.6,3.4-7.6,7.6c0,4.2,3.4,7.6,7.6,7.6h126.2c4.2,0,7.6-3.4,7.6-7.6C181.4,423.6,178,420.2,173.8,420.2
			z"/>
	</g>
</g>
</svg>
