<?xml version="1.0" encoding="utf-8"?>
<!-- Generator: Adobe Illustrator 21.0.0, SVG Export Plug-In . SVG Version: 6.00 Build 0)  -->
<svg version="1.1" id="Forma_1_1_" xmlns="http://www.w3.org/2000/svg" xmlns:xlink="http://www.w3.org/1999/xlink" x="0px" y="0px"
	 viewBox="0 0 340 326" style="enable-background:new 0 0 340 326;" xml:space="preserve">
<style type="text/css">
	.st0{fill-rule:evenodd;clip-rule:evenodd;}
</style>
<g id="Forma_1">
	<g>
		<path class="st0" d="M311.6,203.8c4.4-14.4,6.4-29.6,6.4-44.7C318,71.5,246.8,0,158.8,0S0,71.5,0,159s71.2,159,159.2,159
			c22.4,0,44-4.8,64.4-13.6c12.4,13.2,30,21.6,49.2,21.6c37.2,0,67.2-30.4,67.2-67.1C340,236.1,328.8,215.7,311.6,203.8z
			 M158.8,305.2C78,305.2,12.4,239.7,12.4,159S78,12.8,158.8,12.8S305.2,78.3,305.2,159c0,13.2-1.6,26-5.2,38.4
			c-8.4-3.6-17.6-6-27.2-6c-37.2,0-67.2,30.4-67.2,67.1c0,12.8,3.6,25.2,10,35.2C197.6,301.2,178.8,305.2,158.8,305.2z M272.8,313.2
			c-30,0-54.8-24.4-54.8-54.7c0-30,24.4-54.7,54.8-54.7c30,0,54.8,24.4,54.8,54.7S302.8,313.2,272.8,313.2z M165.2,133.4V73.1
			c0-3.6-2.8-6.4-6.4-6.4s-6.4,2.8-6.4,6.4v60.3c-11.6,2.8-20,13.2-20,25.6c0,5.6,2,10.8,4.8,15.2L112.8,203c-2.4,2.8-2,6.8,0.8,8.8
			c1.2,1.2,2.8,1.6,4,1.6c1.6,0,3.6-0.8,4.8-2.4l24.4-28.4c3.6,2,7.6,2.8,12,2.8c14.8,0,26.4-12,26.4-26.4
			C185.6,146.6,176.8,136.2,165.2,133.4z M158.8,173c-7.6,0-13.6-6-13.6-13.6c0-7.6,6-13.6,13.6-13.6s13.6,6,13.6,13.6
			C172.8,166.6,166.4,173,158.8,173z M52.8,152.6H27.2c-3.6,0-6.4,2.8-6.4,6.4c0,3.6,2.8,6.4,6.4,6.4h25.6c3.6,0,6.4-2.8,6.4-6.4
			C59.2,155.4,56.4,152.6,52.8,152.6z M158.8,59.5c3.6,0,6.4-2.8,6.4-6.4V27.6c0-3.6-2.8-6.4-6.4-6.4s-6.4,2.8-6.4,6.4v25.6
			C152.4,56.7,155.6,59.5,158.8,59.5z M265.2,165.4h25.6c3.6,0,6.4-2.8,6.4-6.4c0-3.6-2.8-6.4-6.4-6.4h-25.6c-3.6,0-6.4,2.8-6.4,6.4
			C258.8,162.6,261.6,165.4,265.2,165.4z M158.8,258.5c-3.6,0-6.4,2.8-6.4,6.4v25.6c0,3.6,2.8,6.4,6.4,6.4s6.4-2.8,6.4-6.4v-25.6
			C165.2,261.3,162.4,258.5,158.8,258.5z M254.8,270.1c7.2-6.4,13.2-13.2,13.2-21.2c0-9.2-6-15.6-17.6-15.6
			c-6.8,0-12.4,2.4-16.4,5.2l3.2,8.4c2.4-2,6.4-4,10.8-4c5.6,0,8,3.2,8,7.2c0,5.6-5.6,11.2-16.4,21.2l-5.6,5.6v7.2h35.2v-9.6
			l-18.8-0.4L254.8,270.1z M308,263.3v-29.2h-14l-18.8,30.4v7.6h22v12H308v-12h6v-8.8H308z M296.8,252.5v10.8h-11.2l6.8-10.8
			c1.6-3.2,2.8-6,4.4-9.2h0.4C296.8,246.5,296.8,249.3,296.8,252.5z"/>
	</g>
</g>
</svg>
