<?xml version="1.0" encoding="utf-8"?>
<!-- Generator: Adobe Illustrator 21.0.0, SVG Export Plug-In . SVG Version: 6.00 Build 0)  -->
<svg version="1.1" id="Forma_1_1_" xmlns="http://www.w3.org/2000/svg" xmlns:xlink="http://www.w3.org/1999/xlink" x="0px" y="0px"
	 viewBox="0 0 496 512" style="enable-background:new 0 0 496 512;" xml:space="preserve">
<style type="text/css">
	.st0{fill-rule:evenodd;clip-rule:evenodd;}
</style>
<g id="Forma_1">
	<g>
		<path class="st0" d="M479.6,299.8h-7.7v-69c0-10.9-5.4-20.6-13.7-26.5v-9.4c0-13.6-11.1-24.7-24.7-24.7h-5.7l21.9-32.1
			c7.3-10.8,4.5-25.5-6.2-32.8L294.9,3.9c-5.2-3.6-11.5-4.9-17.7-3.7c-6.2,1.2-11.6,4.7-15.1,9.9L133.8,198.3H98.2l8.6-87.2
			c0.1-1,0.7-1.8,1.6-2.2c11.1-4.2,20.7-12,27.1-22c0.5-0.8,1.4-1.2,2.4-1.1l56,5.5c4,0.4,7.6-2.5,8-6.5c0.4-4-2.5-7.6-6.5-8
			l-56-5.5c-6.5-0.6-12.7,2.4-16.2,7.8c-4.7,7.4-11.7,13.1-19.9,16.2c-6.1,2.3-10.4,7.8-11,14.4l-8.7,88.6h-9.3L87.8,60.4
			c0.5-5,4.9-8.6,9.9-8.1l113.1,11.2c4,0.4,7.6-2.5,8-6.5c0.4-4-2.5-7.6-6.5-8L99.1,37.8C86.2,36.5,74.6,46,73.3,59l-11,111.1H43.6
			c-13.6,0-24.7,11.1-24.7,24.7v6.4C7.8,206.4,0,217.7,0,230.7v248.8C0,497.4,14.5,512,32.4,512h407.1c17.9,0,32.4-14.6,32.4-32.4
			v-69h7.7c9,0,16.4-7.4,16.4-16.4v-77.9C496,307.2,488.6,299.8,479.6,299.8z M433.5,184.7c5.6,0,10.1,4.5,10.1,10.1v3.7
			c-1.3-0.2-2.7-0.3-4.1-0.3h-31l9.3-13.6H433.5z M274.1,18.3c1.4-2,3.4-3.3,5.8-3.8c0.6-0.1,1.1-0.2,1.7-0.2c1.8,0,3.6,0.5,5.1,1.6
			l148.5,101.3c4.1,2.8,5.2,8.4,2.4,12.6l-46.7,68.5h-11.2l22.9-33.6c3.7-5.4,4-12.4,0.8-18.1c-4.3-7.6-6-16.5-4.9-25.2
			c0.8-6.4-2-12.7-7.4-16.4l-77-52.5c-5.4-3.7-12.3-4-17.9-0.9c-7.6,4.2-16.6,5.9-25.2,4.7c-6.4-0.9-12.9,2-16.5,7.4l-91.7,134.6
			h-11.2L274.1,18.3z M277.3,142.3c-31.8,0-57.9,24.8-60,56h-37l86.1-126.4c0,0,0,0,0,0c0.5-0.7,1.3-1.1,2.1-1.1c0.1,0,0.2,0,0.3,0
			c11.7,1.6,23.9-0.6,34.3-6.3c0.8-0.5,1.9-0.4,2.7,0.2l77,52.5c0.8,0.6,1.2,1.5,1.1,2.4c-1.5,11.8,0.8,23.9,6.6,34.2
			c0.5,0.8,0.4,1.9-0.1,2.7L362,198.3h-24.7C335.2,167,309.1,142.3,277.3,142.3z M322.7,198.3H232c2.1-23.2,21.6-41.4,45.3-41.4
			C301,156.9,320.6,175.1,322.7,198.3z M33.5,194.9c0-5.6,4.5-10.1,10.1-10.1h17.2l-1.3,13.6h-26V194.9z M14.6,230.7
			c0-9.8,8-17.8,17.8-17.8h407.1c9.8,0,17.8,8,17.8,17.8V251H14.6V230.7z M457.3,479.6c0,9.8-8,17.8-17.8,17.8H32.4
			c-9.8,0-17.8-8-17.8-17.8v-20.3h39.3c4,0,7.3-3.3,7.3-7.3c0-4-3.3-7.3-7.3-7.3H14.6V265.6h442.8v34.2H388
			c-21.9,0-40.8,12.7-49.8,31.2c0,0.1-0.1,0.1-0.1,0.2c-0.1,0.2-0.1,0.3-0.2,0.5c-1.1,2.3-2,4.6-2.8,7.1c0,0,0,0,0,0
			c-1.6,5.2-2.5,10.7-2.5,16.4c0,30.5,24.8,55.4,55.3,55.4h69.4v34.2H100.7c-4,0-7.3,3.3-7.3,7.3s3.3,7.3,7.3,7.3h356.7V479.6z
			 M481.4,394.1c0,1-0.8,1.8-1.8,1.8H388c-15.4,0-28.9-8.6-35.8-21.3c-0.3-0.6-0.6-1.2-0.9-1.8c-0.6-1.2-1.1-2.4-1.5-3.7
			c-1.6-4.4-2.5-9.1-2.5-14c0-4.9,0.9-9.6,2.5-14c0.5-1.2,1-2.5,1.5-3.7c0.3-0.6,0.6-1.2,0.9-1.8c6.9-12.7,20.4-21.3,35.8-21.3h91.6
			c1,0,1.8,0.8,1.8,1.8V394.1z M389.7,325.5c-16.3,0-29.6,13.3-29.6,29.6c0,16.3,13.3,29.6,29.6,29.6s29.6-13.3,29.6-29.6
			C419.3,338.8,406,325.5,389.7,325.5z M389.7,370.2c-8.3,0-15-6.7-15-15c0-8.3,6.7-15,15-15s15,6.7,15,15
			C404.7,363.4,398,370.2,389.7,370.2z"/>
	</g>
</g>
</svg>
