<?xml version="1.0" encoding="utf-8"?>
<!-- Generator: Adobe Illustrator 21.0.0, SVG Export Plug-In . SVG Version: 6.00 Build 0)  -->
<svg version="1.1" id="Shape_1_1_" xmlns="http://www.w3.org/2000/svg" xmlns:xlink="http://www.w3.org/1999/xlink" x="0px" y="0px"
	 viewBox="0 0 512 324" style="enable-background:new 0 0 512 324;" xml:space="preserve">
<style type="text/css">
	.st0{fill-rule:evenodd;clip-rule:evenodd;}
</style>
<g id="Shape_1">
	<g>
		<path class="st0" d="M503.3,149.6c-5.3-6.3-12.6-10.5-20.9-12l-3.9-53.1c3.9,0,7.1-2.8,7.8-6.6l1.5-8.6c1.6-9.2-0.6-18.2-6.2-24.8
			c-5.5-6.6-13.6-10.2-22.8-10.2H400l2.9-16.3c0.8-4.6-0.4-9.2-3.2-12.6c-2.8-3.4-7.1-5.3-11.7-5.3H98.5C89.9,0,82,6.7,80.5,15.2
			L54.9,160.6c-0.8,4.4,2.1,8.5,6.5,9.3c0.5,0.1,0.9,0.1,1.4,0.1c3.8,0,7.2-2.7,7.9-6.6L96.3,18c0.2-1,1.4-1.9,2.2-1.9l288.5,0
			l-25.5,144.6c-0.8,4.4,2.1,8.5,6.5,9.3c4.4,0.8,8.5-2.1,9.3-6.5l1.8-10.5h95.8c6.6,0,12.3,2.5,16.1,7c2.6,3.1,4.1,6.9,4.5,11.2
			h-26.6c-3.9,0-7.2,2.8-7.9,6.6l-3,17.1c-1.2,6.9,0.5,13.7,4.7,18.7c4.1,4.9,10.4,7.8,17.3,7.8h7.5l-6.2,35.3h-21.1
			c-1.4-7.1-4.4-13.5-9.1-19.1c-8.2-9.8-20.3-15.2-33.9-15.2c-22,0-43.2,14.4-53.1,34.2h-3.2l10.4-59c0.8-4.4-2.1-8.5-6.5-9.3
			c-4.4-0.8-8.5,2.1-9.3,6.5l-10.9,61.8H196.3c-1.4-7.1-4.4-13.5-9.1-19.1c-8.2-9.8-20.3-15.2-33.9-15.2c-22,0-43.2,14.4-53.1,34.2
			l-45.9,0l3.2-18.2h36c4.4,0,8-3.6,8-8c0-4.4-3.6-8-8-8H8c-4.4,0-8,3.6-8,8c0,4.4,3.6,8,8,8h33.2l-2.9,16.3
			c-0.8,4.6,0.4,9.2,3.2,12.6c2.8,3.4,7.1,5.3,11.7,5.3H95c-2.2,13.6,1.1,26.4,9.3,36.2c8.2,9.8,20.2,15.2,33.9,15.2
			c27.3,0,53.3-22.2,58.1-49.4c0.1-0.6,0.2-1.3,0.3-1.9h162.2c-2.2,13.6,1.1,26.4,9.3,36.2c8.2,9.8,20.3,15.2,33.9,15.2
			c27.3,0,53.3-22.2,58.1-49.4c0.1-0.6,0.2-1.3,0.3-1.9H488c3.9,0,7.2-2.8,7.9-6.6l15.1-85.5C513,168.9,510.3,157.9,503.3,149.6z
			 M381.9,136.9l9.2-52.4h71.3l3.9,52.4H381.9z M472,66.5l-0.3,1.9H394l3.2-18.2h61.6c4.4,0,8.1,1.6,10.5,4.5
			C471.9,57.8,472.8,62,472,66.5z M180.6,271.8c-3.5,19.9-22.5,36.1-42.4,36.1c-8.9,0-16.6-3.3-21.7-9.4c-5.2-6.3-7.2-14.8-5.6-23.9
			c3.5-19.9,22.5-36.1,42.4-36.1c8.9,0,16.6,3.3,21.7,9.4C180.2,254.1,182.2,262.6,180.6,271.8z M444.4,271.8
			c-3.5,19.9-22.5,36.1-42.4,36.1c-8.9,0-16.6-3.3-21.7-9.4c-5.2-6.3-7.2-14.8-5.6-23.9c3.5-19.9,22.5-36.1,42.4-36.1
			c8.9,0,16.6,3.3,21.7,9.4C444,254.1,446,262.6,444.4,271.8z M490.3,205.3h-10.4v0c-2.1,0-3.9-0.7-5-2.1c-1.2-1.4-1.6-3.4-1.2-5.6
			l1.8-10.5h17.9L490.3,205.3z M147.2,256.6c-8.6,0-16.4,6.7-17.9,15.2c-0.8,4.6,0.4,9.2,3.2,12.6c2.8,3.4,7.1,5.3,11.7,5.3
			c8.6,0,16.4-6.7,17.9-15.2c0.8-4.6-0.4-9.2-3.2-12.6C156.1,258.6,151.8,256.6,147.2,256.6z M411.1,256.6
			c-8.6,0-16.4,6.7-17.9,15.2c-0.8,4.6,0.4,9.2,3.2,12.6c2.8,3.4,7.1,5.3,11.7,5.3c8.6,0,16.4-6.7,17.9-15.2
			c0.8-4.6-0.4-9.2-3.2-12.6C420,258.6,415.7,256.6,411.1,256.6z M323.1,238.5c4.4,0,8-3.6,8-8c0-4.4-3.6-8-8-8H221.6
			c-4.4,0-8,3.6-8,8c0,4.4,3.6,8,8,8H323.1z M31.1,204.2h147.8c4.4,0,8-3.6,8-8c0-4.4-3.6-8-8-8H31.1c-4.4,0-8,3.6-8,8
			C23.1,200.6,26.7,204.2,31.1,204.2z"/>
	</g>
</g>
</svg>
