<?xml version="1.0" encoding="utf-8"?>
<!-- Generator: Adobe Illustrator 21.0.0, SVG Export Plug-In . SVG Version: 6.00 Build 0)  -->
<svg version="1.1" id="Forma_1_1_" xmlns="http://www.w3.org/2000/svg" xmlns:xlink="http://www.w3.org/1999/xlink" x="0px" y="0px"
	 viewBox="0 0 303 363" style="enable-background:new 0 0 303 363;" xml:space="preserve">
<style type="text/css">
	.st0{fill-rule:evenodd;clip-rule:evenodd;}
</style>
<g id="Forma_1">
	<g>
		<path class="st0" d="M303,158.5V53.2c0-2.8-1.6-5.2-4.4-6L155.5,0.4c-1.6-0.4-2.8-0.4-4.4,0c-1.2-0.4-2.8-0.4-4.4,0L4.4,46.8
			C1.6,47.6,0,50,0,52.8v105.3c0,1.6-4,154.5,147.9,204.5c0.8,0.4,1.2,0.4,2,0.4h2.8c0.8,0,1.2,0,2-0.4
			C307,312.6,303,159.7,303,158.5z M151.9,350.6h-0.8C9.2,303,12.4,164.9,12.8,158.5V57.6l138.3-45.2c0,0,0,0,0.4,0c0,0,0,0,0.4,0
			l138.3,45.2v100.9C290.2,160.1,293.8,302.6,151.9,350.6z M261.8,72L154.7,36c-0.8-0.4-2-0.4-2.8-0.4s-2,0-2.8,0.4L42,72
			c-2.4,0.8-4.4,3.2-4.4,6v82c0,1.2,5.2,118.5,111.9,159.7c0.8,0.4,1.6,0.4,2.4,0.4s1.6,0,2.4-0.4
			c106.3-41.2,111.9-158.5,111.9-160.1V78C266.2,75.2,264.2,72.8,261.8,72z M253.4,160.1c0,0.8-4.8,108.1-101.5,147.3
			C55.6,268.1,50.4,160.9,50.4,160.1V82.8l101.5-34l101.5,34V160.1z M92.3,173.7c-2.4-2.4-6.4-2.8-9.2-0.4c-2.4,2.4-2.8,6.4-0.4,9.2
			l54.4,57.2c1.2,1.2,2.8,2,4.8,2c0,0,0,0,0.4,0c2,0,3.6-0.8,4.8-2.4l81.1-97.3c2.4-2.8,2-6.8-0.8-8.8c-2.8-2.4-6.8-2-8.8,0.4
			l-76.8,92.1L92.3,173.7z"/>
	</g>
</g>
</svg>
