<?xml version="1.0" encoding="utf-8"?>
<!-- Generator: Adobe Illustrator 21.0.0, SVG Export Plug-In . SVG Version: 6.00 Build 0)  -->
<svg version="1.1" id="Shape_1_1_" xmlns="http://www.w3.org/2000/svg" xmlns:xlink="http://www.w3.org/1999/xlink" x="0px" y="0px"
	 viewBox="0 0 512 512" style="enable-background:new 0 0 512 512;" xml:space="preserve">
<style type="text/css">
	.st0{fill-rule:evenodd;clip-rule:evenodd;}
</style>
<g id="Shape_1">
	<g>
		<path class="st0" d="M486.4,425c-50.9-27-90-42.2-124.8-48l3.6-4.9c1.7-1.7,2.6-4.3,1.7-6.8l-8-32c2.9-4.1,5.6-8.3,8.2-12.7
			c31.8-10.8,47.9-29.1,50.6-56.1c14-0.7,26-13.2,26-27.3v-64c0-14-11.1-26.4-25.8-27.3C416.1,96.7,394.4,0,256,0
			C117.6,0,95.9,96.7,94,146c-13.9,0.8-25.7,12.4-25.7,27.3v64c0,14.5,12.8,27.3,28.2,27.3h12.8c4.7,0,9.2-1.4,13.2-3.7
			c4.8,25.7,15.5,50.9,30.7,72.4l-8,32c0,1.7,0,4.3,1.7,6.8l3.6,4.9c-34.8,5.8-73.8,21-124.8,48C9.4,432.6,0,448.9,0,466.8v36.7
			c0,5.1,3.4,8.5,8.5,8.5h494.9c5.1,0,8.5-3.4,8.5-8.5v-36.7C512,449.7,501.8,433.5,486.4,425z M378.9,296.8
			c4.8-11.7,8.4-23.9,10.7-36.2c3.2,2,6.9,3.3,10.9,3.7C399.1,276.4,393.8,287.8,378.9,296.8z M415.6,162.1
			c5.1,0,10.2,4.3,10.2,10.2v64c0,5.1-4.3,10.2-10.2,10.2h-12.8c-5.1,0-10.2-4.3-10.2-10.2v-64c0-5.1,4.3-10.2,10.2-10.2H415.6z
			 M118.6,236.4c0,5.1-4.3,10.2-10.2,10.2H95.6c-5.1,0-10.2-4.3-10.2-10.2v-64c0-5.1,4.3-10.2,10.2-10.2h12.8
			c5.1,0,10.2,4.3,10.2,10.2V236.4z M121.2,149.2c-3.1-1.6-6.5-2.7-10.1-3.1c3.8-111.8,92.3-129,144.9-129
			c52.6,0,141.1,17.2,144.9,129c-3.6,0.4-7,1.5-10.1,3.1c-10.4-65-67-115-134.8-115C188.2,34.1,131.6,84.2,121.2,149.2z
			 M136.5,230.4v-59.7c0-65.7,53.8-119.5,119.5-119.5S375.5,105,375.5,170.7v59.7c0,28.2-7.3,54.1-19.3,75.9
			c-20.4,5.9-49.7,9.4-91.7,9.4c-5.1,0-8.5,3.4-8.5,8.5s3.4,8.5,8.5,8.5c30.7,0,56.5-1.9,77.5-5.8c-0.5,0.5-1,1-1.6,1.6
			c-4.3,5.7-8.8,10.9-13.6,15.6c-20.1,18.7-44.1,30.1-67.2,31.2c-1.2-0.5-2.5-0.8-3.8-0.8c-1.3,0-2.5,0.3-3.6,0.8
			c-14.1-0.6-28.6-5.1-42.3-12.8c-13.9-8-27-19.5-38.6-34c-0.9-0.9-1.7-1.7-2.6-2.6l-0.5-0.2C149.3,300.7,136.5,267.6,136.5,230.4z
			 M276.5,452.3h-41.2l20.8-46.8L276.5,452.3z M206.2,494.9H17.1v-28.2c0-11.1,6-21.3,16.2-26.5c54.4-28.9,93.5-43.4,128.4-47.7
			l50.9,70L206.2,494.9z M208.7,428l-35.5-49.1c-0.3-0.3-0.6-0.5-0.9-0.8l-9.4-12.8l3.4-15.4c1.2,1.2,2.3,2.5,3.5,3.6
			c20,20.5,45,34.8,73.1,38.2l-23,51.8L208.7,428z M223.9,494.9l5.1-25.6h53.9l5,25.6H223.9z M292,443.5l-23-51.8
			c28.1-3.4,53-17.7,73.1-38.2c1.2-1.2,2.4-2.4,3.5-3.7l3.4,15.4l-8.7,12c-0.6,0.5-1.1,1-1.5,1.7L303.3,428L292,443.5z M494.9,494.9
			H305.8l-6.5-32.3l51.5-70.8c34.8,5.2,74.6,19.7,127.9,47.6c10.2,6,16.2,16.2,16.2,27.3V494.9z"/>
	</g>
</g>
</svg>
