<?xml version="1.0" encoding="utf-8"?>
<!-- Generator: Adobe Illustrator 21.0.0, SVG Export Plug-In . SVG Version: 6.00 Build 0)  -->
<svg version="1.1" id="Forma_1_1_" xmlns="http://www.w3.org/2000/svg" xmlns:xlink="http://www.w3.org/1999/xlink" x="0px" y="0px"
	 viewBox="0 0 459 612" style="enable-background:new 0 0 459 612;" xml:space="preserve">
<style type="text/css">
	.st0{fill-rule:evenodd;clip-rule:evenodd;}
</style>
<g id="Forma_1">
	<g>
		<path class="st0" d="M344.3,439.9c10.5,0,19.1,8.6,19.1,19.1c0,5.3,4.3,9.6,9.6,9.6s9.6-4.3,9.6-9.6c0-21.1-17.2-38.3-38.3-38.3
			c-5.3,0-9.6,4.3-9.6,9.6C334.7,435.6,339,439.9,344.3,439.9z M430.3,0H28.7C12.9,0,0,12.9,0,28.7v516.4
			c0,15.8,12.9,28.7,28.7,28.7h210.5c0.1,0.9,0.4,1.9,0.8,2.7c1.3,2.8,3.9,4.8,7,5.4l24.8,4.5l21.9,22.7c1.8,1.9,4.3,2.9,6.9,2.9
			c0.4,0,0.8,0,1.2-0.1c3-0.4,5.6-2.1,7.1-4.7l19.1-33.4h32.4l18.9,33.4c1.5,2.6,4.1,4.4,7.1,4.8c0.4,0.1,0.8,0.1,1.2,0.1
			c2.6,0,5.1-1,6.9-2.9l21.9-22.7l24.8-4.5c3.1-0.6,5.7-2.6,7-5.4c1.3-2.8,1.2-6-0.4-8.7c7-5.4,11.2-13.8,11.2-22.7V28.7
			C459,12.9,446.1,0,430.3,0z M298.6,586.6l-15.2-15.8c-1.4-1.4-3.2-2.4-5.2-2.8l-14.4-2.6l29-50c9.9,9.1,22.3,15.5,35.9,18.4
			L298.6,586.6z M286.9,459c0-31.6,25.7-57.4,57.4-57.4s57.4,25.7,57.4,57.4s-25.7,57.4-57.4,57.4S286.9,490.6,286.9,459z
			 M338.9,554.6l5.3-9.4l5.3,9.4H338.9z M409.9,568.1c-2,0.4-3.8,1.3-5.2,2.8l-15.2,15.7l-29.8-52.7c13.7-2.8,26-9.3,35.9-18.3
			l28.7,49.9L409.9,568.1z M439.9,545.1c0,2.1-0.7,4-1.9,5.6L408.8,500c7.6-11.9,12-25.9,12-41c0-42.2-34.3-76.5-76.5-76.5
			s-76.5,34.3-76.5,76.5c0,15.1,4.4,29.1,11.9,41l-31.8,54.7H28.7c-5.3,0-9.6-4.3-9.6-9.6V28.7c0-5.3,4.3-9.6,9.6-9.6h401.6
			c5.3,0,9.6,4.3,9.6,9.6V545.1z M306,143.4c5.3,0,9.6-4.3,9.6-9.6c0-5.3-4.3-9.6-9.6-9.6H153c-5.3,0-9.6,4.3-9.6,9.6
			c0,5.3,4.3,9.6,9.6,9.6H306z M353.8,172.1H105.2c-5.3,0-9.6,4.3-9.6,9.6c0,5.3,4.3,9.6,9.6,9.6h248.6c5.3,0,9.6-4.3,9.6-9.6
			C363.4,176.4,359.1,172.1,353.8,172.1z M133.9,267.8h9.6c5.3,0,9.6-4.3,9.6-9.6c0-5.3-4.3-9.6-9.6-9.6h-9.6
			c-5.3,0-9.6,4.3-9.6,9.6C124.3,263.5,128.6,267.8,133.9,267.8z M133.9,315.6h9.6c5.3,0,9.6-4.3,9.6-9.6c0-5.3-4.3-9.6-9.6-9.6
			h-9.6c-5.3,0-9.6,4.3-9.6,9.6C124.3,311.3,128.6,315.6,133.9,315.6z M133.9,363.4h9.6c5.3,0,9.6-4.3,9.6-9.6
			c0-5.3-4.3-9.6-9.6-9.6h-9.6c-5.3,0-9.6,4.3-9.6,9.6C124.3,359.1,128.6,363.4,133.9,363.4z M325.1,248.6H181.7
			c-5.3,0-9.6,4.3-9.6,9.6c0,5.3,4.3,9.6,9.6,9.6h143.4c5.3,0,9.6-4.3,9.6-9.6C334.7,252.9,330.4,248.6,325.1,248.6z M325.1,296.4
			H181.7c-5.3,0-9.6,4.3-9.6,9.6c0,5.3,4.3,9.6,9.6,9.6h143.4c5.3,0,9.6-4.3,9.6-9.6C334.7,300.7,330.4,296.4,325.1,296.4z
			 M325.1,344.3H181.7c-5.3,0-9.6,4.3-9.6,9.6c0,5.3,4.3,9.6,9.6,9.6h143.4c5.3,0,9.6-4.3,9.6-9.6
			C334.7,348.5,330.4,344.3,325.1,344.3z M95.6,449.4c0,5.3,4.3,9.6,9.6,9.6h86.1c5.3,0,9.6-4.3,9.6-9.6c0-5.3-4.3-9.6-9.6-9.6
			h-86.1C99.9,439.9,95.6,444.2,95.6,449.4z M411.2,76.5c-15.8,0-28.7-12.9-28.7-28.7c0-5.3-4.3-9.6-9.6-9.6H86.1
			c-5.3,0-9.6,4.3-9.6,9.6c0,15.8-12.9,28.7-28.7,28.7c-5.3,0-9.6,4.3-9.6,9.6v401.6c0,5.3,4.3,9.6,9.6,9.6
			c15.8,0,28.7,12.9,28.7,28.7c0,5.3,4.3,9.6,9.6,9.6h143.4c5.3,0,9.6-4.3,9.6-9.6c0-5.3-4.3-9.6-9.6-9.6H94.7
			c-3.8-18.7-18.6-33.5-37.3-37.3V94.7c18.7-3.8,33.5-18.6,37.3-37.3h269.7c3.8,18.7,18.6,33.5,37.3,37.3v287.8
			c0,5.3,4.3,9.6,9.6,9.6c5.3,0,9.6-4.3,9.6-9.6V86.1C420.7,80.8,416.5,76.5,411.2,76.5z"/>
	</g>
</g>
</svg>
