<svg xmlns="http://www.w3.org/2000/svg" xmlns:xlink="http://www.w3.org/1999/xlink" width="42" height="38" viewBox="0 0 42 38"><defs><path id="blqla" d="M428 7191.2v2.8h-42v-2.62c0-2.01 1.1-3.85 2.9-4.81l4.65-2.89c.52-.28.82-.78.82-1.32v-1.9c-.55-.56-1.97-2.19-2.55-4.34a2.45 2.45 0 0 1-.92-1.9v-2.4c0-.55.25-1.12.7-1.6v-3.17c0-.1.43-6.22 7.7-6.22 1.6 0 3.02.31 4.22.93.1-.92.44-2.2 1.44-3.32 1.44-1.62 3.78-2.44 6.94-2.44 3.16 0 5.5.82 6.94 2.44a6.13 6.13 0 0 1 1.46 4.5v3.68c.45.5.7 1.15.7 1.82v2.76c0 1.09-.64 2.05-1.63 2.5a15.75 15.75 0 0 1-2.57 4.66v2.34c0 .7.4 1.32 1.02 1.63l6.69 3.3a6.19 6.19 0 0 1 3.49 5.57zm-28.9-5.6l3.93-2.12.13-.28.32.03 1.86-1c.59-.32.96-.93.96-1.6v-2.29l-.05-.06-.09-.12-.44-.63-.06-.1a15.32 15.32 0 0 1-.62-1.06l-.13-.25-.03-.07-.2-.43c-.03-.04-.05-.07-.06-.11l-.04-.09-.04-.1-.18-.42-.07-.17c-.05-.13-.1-.26-.13-.38l-.08-.22-.03-.1-.06-.18-.13-.47-.01-.03a2.79 2.79 0 0 1-.77-.95c-.06-.12-.09-.24-.13-.35l-.08-.24c-.05-.2-.07-.4-.07-.61v-2.76c0-.67.25-1.31.7-1.82v-3.27a7.36 7.36 0 0 0-4.2-1.13c-5.92 0-6.29 4.68-6.3 4.87v3.72l-.23.2c-.3.27-.47.57-.47.82v2.38c0 .37.2.72.51.93l.24.15.07.27a9.18 9.18 0 0 0 2.43 4.11l.22.21v2.48c0 1.05-.58 2.01-1.52 2.52l-4.65 2.88a4.1 4.1 0 0 0-2.2 3.62v1.24h8.4v-1.55a6.22 6.22 0 0 1 3.3-5.47zm27.5 5.6a4.82 4.82 0 0 0-2.72-4.33l-6.68-3.3a3.19 3.19 0 0 1-1.8-2.87v-2.85l.17-.2a14.36 14.36 0 0 0 2.57-4.7l.12-.33.34-.11c.6-.18 1-.7 1-1.31v-2.76c0-.4-.17-.75-.47-1.02l-.23-.21v-4.4s.23-1.96-1.13-3.48c-1.16-1.3-3.14-1.95-5.87-1.95-2.74 0-4.72.66-5.88 1.97a4.74 4.74 0 0 0-1.14 3.3l.02.01v4.55l-.23.2c-.3.28-.47.64-.47 1.03v2.76c0 .46.24.9.65 1.16l.24.15.06.27c.05.23.12.46.18.67l.02.04.03.13.2.59.12.28.04.1.12.27.03.09.27.55c.17.33.34.62.5.89l.01.03.22.34v.01a12.57 12.57 0 0 0 .65.9l.02.03.14.16v2.77a3.2 3.2 0 0 1-1.7 2.82l-6.24 3.36a4.84 4.84 0 0 0-2.56 4.26v1.55h29.4z"/></defs><g><g transform="translate(-386 -7156)"><use fill="#fff" xlink:href="#blqla"/></g></g></svg>