<svg id="Layer_14" data-name="Layer 14" xmlns="http://www.w3.org/2000/svg" viewBox="0 0 185 88"><title>_</title><path d="M18.48,50.28H16.86L10.22,65.84V64.32H3v-14H.68v16H12.33l2-4.72h6.81l2.14,4.72h2.35ZM15.25,59.6l2.39-5.8,2.58,5.8Z"/><path d="M37.08,50.37c3.24,0,5.26,1.71,5.26,4.48a4,4,0,0,1-2.68,3.92c1.45,1,2.35,2.44,3.57,4.44.68,1.1,1.08,1.64,2.19,3.17H42.67L40.56,63.1c-2.11-3.29-3.08-3.66-4.25-3.66h-1v7H33v-16Zm-1.74,7h1.48c2.47,0,3.17-1.27,3.15-2.61,0-1.5-.92-2.42-3.15-2.42H35.34Z"/><path d="M53.66,50.16c5.29,0,8.62,3.76,8.62,8.22S59,66.6,53.61,66.6a8.23,8.23,0,1,1,0-16.44Zm0,14.33a6.11,6.11,0,1,0-6.22-6.11A6,6,0,0,0,53.66,64.49Z"/><path d="M78.27,53.94a10.55,10.55,0,0,0-5.52-1.67,6.1,6.1,0,0,0-6.39,6.13c0,3.59,2.63,6.08,6.48,6.08a10.47,10.47,0,0,0,5.59-1.81v2.51a11.74,11.74,0,0,1-5.8,1.41c-6,0-8.64-4.63-8.64-8,0-4.89,3.69-8.46,8.78-8.46a13.9,13.9,0,0,1,5.5,1.32Z"/><path d="M94.35,66.39h-2.3v-7h-9v7h-2.3v-16h2.3v7h9v-7h2.3Z"/><path d="M107,52.44H100.2v4.84h6.55v2.07H100.2v5h7v2.07h-9.3v-16H107Z"/><path d="M114.76,62.3h-5.71V60.12h5.71Z"/><path d="M121.87,50.37c3.5,0,5.1,2.07,5.1,4.6s-1.69,4.49-5.4,4.49h-2.39v6.93h-2.3v-16Zm-2.7,7h2.61c1.71,0,2.82-.92,2.82-2.51,0-1.17-.63-2.44-2.72-2.44h-2.7Z"/><path d="M136.39,50.16c5.28,0,8.62,3.76,8.62,8.22s-3.24,8.22-8.67,8.22a8.23,8.23,0,1,1,0-16.44Zm0,14.33a6.11,6.11,0,1,0-6.23-6.11A6,6,0,0,0,136.39,64.49Z"/><path d="M155,53.89a5.38,5.38,0,0,0-3.76-1.67c-1.48,0-2.54.78-2.54,1.9,0,3.08,6.93,3,6.93,8.13a4.29,4.29,0,0,1-4.49,4.35,7.06,7.06,0,0,1-4.48-1.48V62.21a5.4,5.4,0,0,0,4.23,2.32c1.79,0,2.61-1.13,2.61-2,0-3.31-6.93-3.69-6.93-8.08,0-2.61,1.93-4.27,4.86-4.27A6.43,6.43,0,0,1,155,51.29Z"/><path d="M172,66.39h-2.35l-2.14-4.72h-6.81l-2,4.72h-2.35l6.88-16.11h1.62ZM161.6,59.6h5L164,53.8Z"/><path d="M181.54,50.37h2.77l-5.94,7.56v8.45h-2.3V57.91l-5.95-7.54h2.77l4.3,5.52Z"/><path d="M9.81,71.76H9l-3.4,9v-.85H1.86V71.82H.68v9.29h6l1-2.74h3.5l1.1,2.74h1.21ZM8.15,77.17l1.23-3.36,1.33,3.36Z"/><path d="M14.38,71.82h2.39a2.31,2.31,0,0,1,2.53,2.37,2,2,0,0,1-1.25,2v0a2.36,2.36,0,0,1,2,2.43,2.5,2.5,0,0,1-2.82,2.48H14.38Zm1.18,4h.78c1.17,0,1.74-.49,1.74-1.49,0-.69-.35-1.29-1.43-1.29H15.56Zm0,4.11H17c1.39,0,1.76-.78,1.76-1.47S18.22,77,17,77H15.56Z"/><path d="M25.32,71.7a4.78,4.78,0,1,1-4.41,4.77A4.47,4.47,0,0,1,25.32,71.7Zm0,8.31a3.56,3.56,0,1,0-3.19-3.54A3.3,3.3,0,0,0,25.32,80Z"/><path d="M41.67,71.76h-.83L37.35,81c-.5-.79-.7-1.1-1-1.71a7.52,7.52,0,0,0-1.83-2.58,2.34,2.34,0,0,0,1.37-2.27,2.46,2.46,0,0,0-2.7-2.6H31.09v9.29h1.18v-4h.49c.6,0,1.1.22,2.18,2.12L36,81.11h2.48l1-2.74H43l1.1,2.74h1.21ZM33,75.88h-.76V73H33c1.15,0,1.6.53,1.62,1.4S34.29,75.88,33,75.88Zm7,1.29,1.23-3.36,1.33,3.36Z"/><path d="M51.68,73H48.84v8.09H47.66V73H44.81v-1.2h6.87Z"/><path d="M56.11,71.7a4.78,4.78,0,1,1-4.41,4.77A4.47,4.47,0,0,1,56.11,71.7Zm0,8.31a3.56,3.56,0,1,0-3.19-3.54A3.3,3.3,0,0,0,56.11,80Z"/><path d="M63.16,81.11H62V71.82h1.18Z"/><path d="M67.31,71.82a2.46,2.46,0,0,1,2.7,2.6,2.34,2.34,0,0,1-1.37,2.27,7.48,7.48,0,0,1,1.83,2.58c.35.64.55,1,1.12,1.84H70.18L69.09,79.2c-1.08-1.91-1.58-2.12-2.18-2.12h-.49v4H65.23V71.82Zm-.89,4.06h.76c1.27,0,1.63-.74,1.61-1.51S68.32,73,67.18,73h-.76Z"/><path d="M76.9,73H73.42v2.81h3.36V77H73.42v2.89H77v1.2H72.23V71.82H76.9Z"/><path d="M84.25,71.82a2.45,2.45,0,0,1,2.62,2.67,2.47,2.47,0,0,1-2.77,2.6H82.87v4H81.69V71.82Zm-1.38,4.07h1.34a1.34,1.34,0,0,0,1.45-1.46A1.29,1.29,0,0,0,84.25,73H82.87Z"/><path d="M94.85,81.11H93.67v-4H89.06v4H87.88V71.82h1.18v4h4.61v-4h1.18Z"/><path d="M103.55,81.11h-1.21l-1.1-2.74h-3.5l-1,2.74H95.51L99,71.76h.83Zm-5.34-3.94h2.56l-1.33-3.36Z"/><path d="M106.3,71.82a2.46,2.46,0,0,1,2.7,2.6,2.33,2.33,0,0,1-1.37,2.27,7.45,7.45,0,0,1,1.83,2.58c.35.64.56,1,1.12,1.84h-1.41l-1.08-1.91c-1.09-1.91-1.58-2.12-2.18-2.12h-.49v4h-1.18V71.82Zm-.89,4.06h.76c1.26,0,1.63-.74,1.61-1.51s-.47-1.4-1.61-1.4h-.76Z"/><path d="M119.11,81.11h-1.18V73.88h0l-2.53,3.6h-.19l-2.53-3.6h0v7.23h-1.18V71.82h1.11l2.73,3.81L118,71.82h1.1Z"/><path d="M127.76,81.11h-1.21l-1.09-2.74H122l-1,2.74h-1.21l3.53-9.35h.83Zm-5.34-3.94H125l-1.33-3.36Z"/><path d="M135.3,73.89a5,5,0,0,0-2.83-1,3.33,3.33,0,0,0-3.28,3.56A3.27,3.27,0,0,0,132.51,80a5,5,0,0,0,2.87-1v1.46a5.51,5.51,0,0,1-3,.82A4.49,4.49,0,0,1,128,76.6c0-2.83,1.89-4.9,4.51-4.9a6.46,6.46,0,0,1,2.82.76Z"/><path d="M141.48,73H138v2.81h3.36V77H138v2.89h3.59v1.2h-4.77V71.82h4.66Z"/><path d="M149.86,77.46c0,2.28-1.2,3.77-3.65,3.77a3.32,3.32,0,0,1-3.42-3.64V71.82H144v5.49a2.51,2.51,0,0,0,.49,1.91,2.27,2.27,0,0,0,1.77.79,2.51,2.51,0,0,0,1.93-.75,3,3,0,0,0,.52-2V71.82h1.18Z"/><path d="M157.52,73h-2.84v8.09H153.5V73h-2.84v-1.2h6.87Z"/><path d="M159.45,81.11h-1.18V71.82h1.18Z"/><path d="M166.09,81.1v0c1.45.69,2.27.91,3.08.65l0,0L168.14,83a7.33,7.33,0,0,1-4-1.89,4.56,4.56,0,0,1-3.45-4.64,4.44,4.44,0,1,1,8.86,0,4.61,4.61,0,0,1-3.43,4.62Zm-4.22-4.62a3.23,3.23,0,0,0,3.3,3.53,3.55,3.55,0,1,0-3.3-3.53Z"/><path d="M177.71,77.46c0,2.28-1.21,3.77-3.65,3.77a3.32,3.32,0,0,1-3.42-3.64V71.82h1.18v5.49a2.51,2.51,0,0,0,.49,1.91,2.26,2.26,0,0,0,1.77.79,2.51,2.51,0,0,0,1.93-.75,3,3,0,0,0,.52-2V71.82h1.18Z"/><path d="M184,73h-3.48v2.81h3.32V77h-3.32v2.89h3.42v1.2h-4.6V71.82H184Z"/><rect x="77.83" y="5.15" width="28.67" height="39.24"/></svg>