<svg id="Layer_14" data-name="Layer 14" xmlns="http://www.w3.org/2000/svg" viewBox="0 0 185 88"><defs><style>.cls-1{fill-rule:evenodd;}</style></defs><title>_</title><path class="cls-1" d="M155.16,58.15h15s.94,0,.94-.76c.28-11.79-14.77-12.22-16.32.51-.08.31.34.26.34.26M177,59h0l-22,0s-.39,0-.35.27c-1.91,19.35,18.16,20.12,22.22,10.72l.66.2c-1.33,3.7-4.85,6-8.27,6.95-26,5.15-28-27.37-6.73-29.32C174,46.84,176.91,56.21,177,59"/><path class="cls-1" d="M113.15,53.74c0,7.69,0,15.37,0,23.06h5.16l0-19c0-6.68,4.08-8.72,8.33-9,5.88-.33,7.92,2.36,7.91,7.75q0,10.12,0,20.23h5.08c0-6.75,0-13.47,0-20.23,0-5.61-1.83-8.94-9-9.35-3-.17-6.33.27-11.12,3.41-.58.36-1.15.94-1.21,0V47.73c0-.14,0-.28-.32-.24l-4.78.55Z"/><polygon class="cls-1" points="69.34 53.41 62.2 70.18 61.9 70.9 53.13 52.25 51.23 47.93 45.54 47.93 47.46 52.44 58.88 76.86 60.52 76.87 70.76 52.76 72.82 47.98 71.67 47.98 69.34 53.41"/><polygon class="cls-1" points="81.34 33.77 81.34 33.77 94.05 45.39 94.46 45.19 90.33 33.78 81.34 33.77"/><path class="cls-1" d="M82.9,58.15h15s.94,0,.94-.76c.28-11.79-14.77-12.22-16.33.51-.08.31.34.26.34.26m21.87.9h0l-22,0s-.39,0-.36.27c-1.91,19.35,18.17,20.12,22.22,10.72l.66.2c-1.34,3.7-4.86,6-8.27,6.95-26,5.15-28-27.37-6.73-29.32,11.49-1,14.37,8.33,14.49,11.17"/><path class="cls-1" d="M29,56.54h0L21.75,40.31c-.12-.26-.18-.25-.26,0,0,0-6.81,16.25-6.82,16.25ZM6.41,76.91H4.26q9.79-23.53,19.42-47.08h2L47,76.9H38l-8.34-19H14.1Z"/><polygon class="cls-1" points="132.15 23.65 127.53 14.86 125.67 23.17 123.94 23.17 126.95 10.46 132.15 20.57 137.34 10.46 140.36 23.17 138.63 23.17 136.75 14.86 132.15 23.65"/><path class="cls-1" d="M152.13,13.63l-2.28,4.5h4.57Zm0-3.22,6.53,12.71h-1.85l-1.86-3.75h-5.6l-1.86,3.75h-1.85Z"/><path class="cls-1" d="M20.64,13.66l-2.28,4.5h4.57Zm0-3.22,6.53,12.71H25.31L23.45,19.4h-5.6L16,23.15H14.14Z"/><polygon class="cls-1" points="165.26 23.28 165.26 11.05 166.72 11.05 166.72 21.9 171.34 21.9 171.34 23.28 165.26 23.28"/><polygon class="cls-1" points="177.26 23.28 177.26 11.05 184.64 11.05 184.64 12.39 178.93 12.39 178.93 15.89 184.64 15.89 184.64 17.25 178.93 17.25 178.93 21.93 184.64 21.93 184.64 23.28 177.26 23.28"/><polygon class="cls-1" points="0.18 23.2 0.18 10.97 7.87 10.97 7.87 12.3 1.92 12.3 1.92 15.81 7.87 15.81 7.87 17.16 1.92 17.16 1.92 21.85 7.87 21.85 7.87 23.2 0.18 23.2"/><path class="cls-1" d="M109.65,23.23V11h3a9.5,9.5,0,0,1,1.9.14,2.94,2.94,0,0,1,1.07.47,2.79,2.79,0,0,1,.89,1.14,3.81,3.81,0,0,1,.32,1.58,2.88,2.88,0,0,1-.89,2.28,3.83,3.83,0,0,1-2.6.78h-.27L118,23.23h-2l-4.72-5.83h-.22v5.83Zm1.5-11v4.09h1.17a4.52,4.52,0,0,0,2.42-.44,1.76,1.76,0,0,0,.61-1.53,1.94,1.94,0,0,0-.63-1.65,4.28,4.28,0,0,0-2.4-.47Z"/><polygon class="cls-1" points="94.64 23.23 94.64 11 101.95 11 101.95 12.33 96.29 12.33 96.29 15.84 101.95 15.84 101.95 17.19 96.29 17.19 96.29 21.88 101.95 21.88 101.95 23.23 94.64 23.23"/><polygon class="cls-1" points="76.25 23.17 76.25 10.94 77.89 10.94 77.89 15.64 85.23 15.64 85.23 10.94 86.89 10.94 86.89 23.17 85.23 23.17 85.23 17.03 77.89 17.03 77.89 23.17 76.25 23.17"/><polygon class="cls-1" points="64.66 23.17 64.66 12.32 61.2 12.32 61.2 10.94 69.56 10.94 69.56 12.32 66.13 12.32 66.13 23.17 64.66 23.17"/><path class="cls-1" d="M33.59,11h1.61v7.61a3.72,3.72,0,0,0,.86,2.72,3.68,3.68,0,0,0,2.71.87,3.68,3.68,0,0,0,2.71-.87,3.73,3.73,0,0,0,.86-2.72V11h1.61v7.61a4.91,4.91,0,0,1-1.29,3.71,5.45,5.45,0,0,1-3.89,1.23,5.44,5.44,0,0,1-3.88-1.23,4.91,4.91,0,0,1-1.29-3.71Z"/></svg>