<svg id="Layer_14" data-name="Layer 14" xmlns="http://www.w3.org/2000/svg" viewBox="0 0 238 30"><defs><style>.cls-1{fill-rule:evenodd;}</style></defs><title>_</title><path class="cls-1" d="M91.31,1.4a.2.2,0,0,0-.38-.05c-1,2.91-4.77,4.05-9.1,5.38-1.16.35-2.35.72-3.54,1.13C72.77,9.78,67.6,12.38,67.14,18.33a4.94,4.94,0,0,0,.5,3A39.39,39.39,0,0,1,72,17.64S67.17,22,65,25.73a8.74,8.74,0,0,0-1,2.77.27.27,0,0,0,0,.19s.09.1.15.1h1a.23.23,0,0,0,.19-.19,17.43,17.43,0,0,1,3.28-6.17,9.05,9.05,0,0,0,4.59.88h0c.56,0,1.19,0,1.85-.06a16.42,16.42,0,0,0,11.49-5.6c3.5-4,5.15-9.8,4.66-16.25"/><path class="cls-1" d="M113.12,14.83c0,5.59-3.4,8.55-7.54,8.55s-7.3-3.33-7.3-8.24c0-5.16,3.2-8.53,7.54-8.53s7.3,3.4,7.3,8.22m-12.6.27c0,3.47,1.88,6.58,5.18,6.58s5.21-3.06,5.21-6.75c0-3.23-1.69-6.6-5.18-6.6s-5.21,3.21-5.21,6.77"/><path class="cls-1" d="M115.77,14.61c0-1.2,0-2.19-.1-3.16h1.88l.12,1.93h0a4.29,4.29,0,0,1,3.86-2.19c1.61,0,4.12,1,4.12,5v7h-2.12V16.4c0-1.88-.7-3.45-2.7-3.45A3,3,0,0,0,118,15.12a3.05,3.05,0,0,0-.14,1v7h-2.12Z"/><path class="cls-1" d="M130.33,17.67a3.74,3.74,0,0,0,4,4,7.67,7.67,0,0,0,3.23-.6l.36,1.52a9.45,9.45,0,0,1-3.88.72c-3.59,0-5.74-2.36-5.74-5.88s2.07-6.29,5.47-6.29c3.81,0,4.82,3.35,4.82,5.49a8,8,0,0,1-.07,1Zm6.22-1.52c0-1.35-.55-3.45-2.94-3.45-2.14,0-3.08,2-3.25,3.45Z"/><path class="cls-1" d="M141.29,7.1a20.32,20.32,0,0,1,3.83-.34,6.71,6.71,0,0,1,4.46,1.18,3.41,3.41,0,0,1,1.35,2.87,3.86,3.86,0,0,1-2.75,3.57v0a4.19,4.19,0,0,1,3.35,4.07,4.38,4.38,0,0,1-1.37,3.25c-1.13,1-3,1.52-5.61,1.52a24.52,24.52,0,0,1-3.25-.19Zm2.1,6.65h1.9c2.22,0,3.52-1.16,3.52-2.72,0-1.9-1.45-2.65-3.57-2.65a9,9,0,0,0-1.86.14Zm0,7.78a11.2,11.2,0,0,0,1.76.1c2.17,0,4.17-.8,4.17-3.16s-1.9-3.13-4.19-3.13h-1.73Z"/><rect x="154.35" y="6.88" width="2.1" height="16.24"/><path class="cls-1" d="M174,14.83c0,5.59-3.4,8.55-7.54,8.55s-7.3-3.33-7.3-8.24c0-5.16,3.2-8.53,7.54-8.53S174,10,174,14.83m-12.6.27c0,3.47,1.88,6.58,5.18,6.58s5.21-3.06,5.21-6.75c0-3.23-1.69-6.6-5.18-6.6s-5.21,3.21-5.21,6.77"/></svg>