<svg id="Layer_14" data-name="Layer 14" xmlns="http://www.w3.org/2000/svg" viewBox="0 0 185 88"><title>_</title><path d="M28.57,59.54H26.92v6.53h5.56V64.84H28.57Z"/><path d="M41.39,59.54H39.49L36,66.07h1.74s.89-1.69,1-1.88h3.51l1.09,1.88h1.8l-3.6-6.53ZM39.31,63l1.14-2.11L41.6,63Z"/><path d="M55.08,62.73a1.51,1.51,0,0,0,1.11-1.42c0-1.06-.94-1.76-2.32-1.76H49.19v6.53h4.6c1.56,0,2.53-.71,2.53-1.86C56.32,63.73,56.06,63.11,55.08,62.73Zm-.54-1.34c0,.7-.9.75-1.17.75H50.83v-1.4h2.61C54.08,60.74,54.54,61,54.54,61.39Zm-3.71,2h2.51c.62,0,1.27.21,1.27.82s-.41.73-1.18.73h-2.6Z"/><path d="M65.15,59.4c-2.73,0-4.34,1.28-4.34,3.41s1.61,3.4,4.34,3.4,4.33-1.27,4.33-3.4S67.86,59.4,65.15,59.4Zm0,1.27c1.57,0,2.62.86,2.62,2.14S66.72,65,65.15,65s-2.64-.88-2.64-2.14S63.56,60.67,65.15,60.67Z"/><path d="M81.36,61.32c0-.89-.68-1.78-2.23-1.78h-5v6.53H75.8V63.34h2.57c.72,0,1,.15,1,.61l.23,2.12h1.65L81,63.67a1.14,1.14,0,0,0-.65-.92A1.47,1.47,0,0,0,81.36,61.32Zm-5.56-.56h2.64c1.12,0,1.25.35,1.25.66s-.32.68-1.25.68H75.8Z"/><path d="M90.67,59.54H88.78l-3.55,6.53H87l1-1.88H91.5c.11.18,1.08,1.88,1.08,1.88H94.4L90.8,59.54ZM88.6,63l1.13-2.11L90.89,63Z"/><path d="M97.7,59.54v1.19h2.49v5.33h1.65V60.74h2.51V59.54H97.7Z"/><path d="M112.58,59.4c-2.71,0-4.33,1.28-4.33,3.41s1.62,3.4,4.33,3.4,4.34-1.27,4.34-3.4S115.29,59.4,112.58,59.4Zm0,1.27c1.58,0,2.63.86,2.63,2.14S114.16,65,112.58,65s-2.64-.88-2.64-2.14S111,60.67,112.58,60.67Z"/><polygon points="121.59 59.54 121.59 66.07 123.25 66.07 123.25 59.54 123.02 59.54 121.59 59.54"/><path d="M135.48,61.32c0-.89-.69-1.78-2.23-1.78h-5v6.53h1.64V63.34h2.58c.71,0,1,.15,1,.61l.21,2.12h1.66l-.25-2.4a1.12,1.12,0,0,0-.64-.92A1.47,1.47,0,0,0,135.48,61.32Zm-5.57-.56h2.65c1.1,0,1.24.35,1.24.66s-.32.68-1.24.68h-2.65Z"/><path d="M141.92,63.3h4.66V62.07h-4.66V60.79h4.63V59.54h-6.27v6.53h6.31V64.84h-4.68Z"/><path d="M156,62.31,154,62c-1-.17-1.33-.31-1.33-.68s.64-.73,1.73-.73c1.31,0,2,.37,2.1,1.15l0,.16h1.7l0-.22c-.14-1-.88-2.28-3.67-2.28-2.63,0-3.58,1-3.58,2s.7,1.59,2.32,1.85l2,.32c.88.14,1.21.31,1.21.68,0,.71-1,.86-1.78.86-1.39,0-2.16-.45-2.16-1.25v-.19H150.8v.18a1.85,1.85,0,0,0,.64,1.44,4.86,4.86,0,0,0,3.16,1c2.33,0,3.68-.76,3.68-2.1S157,62.5,156,62.31Z"/><path d="M15.07,21.67c-5.47,0-9.56,2.56-10.92,5.12V22.42H0V46.88H4.15V33.62c0-5.72,3.67-8.75,10.63-8.75,5.3,0,7.87,2.06,7.87,6.28V46.88h4.13V31.77C26.78,25,22.95,21.67,15.07,21.67Z"/><path d="M81.5,21.67c-5.46,0-9.57,2.57-10.94,5.12V22.42H66.44V46.88h4.12V33.62c0-5.72,3.67-8.75,10.63-8.75,3.59,0,7.87,1.15,7.87,6.59v.17h4.13v-.17C93.19,24.78,89.47,21.67,81.5,21.67Z"/><path d="M47,21.67c-11.26,0-15.25,7-15.25,13s4,13,15.25,13,15.29-7,15.29-13S58.26,21.67,47,21.67Zm11.15,13c0,5.93-4.38,9.77-11.15,9.77s-11.13-3.84-11.13-9.77S40.22,24.88,47,24.88,58.13,28.71,58.13,34.64Z"/><path d="M109.54,21.67c-10.82,0-14.66,7-14.66,13,0,6.27,3.85,13,14.66,13,9.95,0,13.36-5.36,14.5-8.55l.08-.23-4.19.11c-1.39,3.83-4.49,5.46-10.39,5.46-6.13,0-10.44-3.59-10.54-8.76h25.7v-.17C124.71,23.47,115.2,21.67,109.54,21.67Zm11,11H99c1-5.77,6.17-7.84,10.76-7.84C112.58,24.88,119.15,25.65,120.56,32.72Z"/><polygon points="141.14 42.4 130.69 22.42 126.31 22.42 139.09 46.88 143.29 46.88 155.96 22.42 151.43 22.51 141.14 42.4"/><path d="M184.64,46.59a21.14,21.14,0,0,1-.53-5V29c0-5.05-3.81-7.3-12.36-7.3-8.36,0-12.21,2.49-12.87,8.31l0,.19h3.84V30c.24-3.65,2.84-5.14,8.95-5.14s8.63,1.28,8.63,4.56v3h-7.56l-1.6.08c-4.69.23-13.43.66-13.43,7.74,0,5.47,5.67,7.4,10.51,7.4,8.49,0,11.21-3.07,12.37-4.58a17.34,17.34,0,0,0,.31,3.67l0,.13h3.84ZM173.31,35.28h7v2.1c0,4.74-5.64,7.3-10.94,7.3-5,0-7.5-1.59-7.5-4.71,0-2.56,2.09-3.88,6.79-4.27l1.14-.1Z"/></svg>