<svg id="Layer_14" data-name="Layer 14" xmlns="http://www.w3.org/2000/svg" viewBox="0 0 185 88"><title>_</title><path d="M161.39,12h21L180,16.14H166V30h13.45L177,34.24H166V48.49h18.48l-2.39,4.19H161.39Z"/><path d="M66.3,11.83h4.62V52.68H66.3Z"/><rect x="30.54" y="11.95" width="4.59" height="40.73"/><path d="M47,36.27a16.33,16.33,0,0,0,8.31-4.06,11.55,11.55,0,0,0,3.15-8.15,11.26,11.26,0,0,0-3.15-8C52.73,13.47,48.71,12,43.71,12H38V16.2h5.35c6.58,0,10.42,3,10.42,8C53.77,34.73,38,32.72,38,32.72L62.59,62h6Z"/><path d="M113,52.68h4.95l-18.56-41H95.05l-18.57,41H81.2l7.06-15.79H106Zm-22.83-20,7-15.69,6.95,15.69Z"/><path d="M150.62,34.47V45.18a19.25,19.25,0,0,1-11.76,4.07c-9.89,0-16.11-7.21-16.11-16.93V32.2c0-9.08,6.46-16.7,15.48-16.7a17.34,17.34,0,0,1,12.39,4.66l3-3.5c-4.07-3.43-8.32-5.41-15.19-5.41-12.22,0-20.43,9.89-20.43,21.06v.11c0,11.64,7.92,20.95,20.72,20.95A24.7,24.7,0,0,0,155,47.15V30Z"/><path d="M17.11,49.07c-7.8,0-12.27-5.23-12.27-13.18V12H.26V36.87c0,9.74,6,16.77,16.28,16.77a15.08,15.08,0,0,0,11.13-4.45V44A13.09,13.09,0,0,1,17.11,49.07Z"/><path d="M2.14,71.93v3.35H7.83v1.14h-7V66.58H7.67v1.16H2.14v3h4.8v1.16Z"/><path d="M21.75,73.41H18l-1.1,3H15.5l3.75-9.85h1.37l3.58,9.85H22.83Zm-.39-1.1-1.44-4.1-1.51,4.1Z"/><path d="M39.78,66.56v6.29a6,6,0,0,1-.13,1.28A3.46,3.46,0,0,1,36,76.66a3.68,3.68,0,0,1-3-1.31,3.74,3.74,0,0,1-.64-2.68V66.56h1.33v5.93a3.31,3.31,0,0,0,.5,2.3,2.28,2.28,0,0,0,1.84.77,2.25,2.25,0,0,0,2.36-1.63,6.28,6.28,0,0,0,.13-1.46v-5.9Z"/><path d="M63.36,67.72v8.7H62v-8.7h-3V66.56H66.3v1.16Z"/><path d="M81.42,71.92H76.07v4.51H74.76V66.56h1.31v4.2h5.36v-4.2h1.33v9.86H81.42Z"/><path d="M93.92,71.93v3.35h5.69v1.14h-7V66.58h6.79v1.16H93.92v3h4.8v1.16Z"/><path d="M110.1,72.24v4.18h-1.28V66.58h3.65c1.37,0,2.18,0,2.94.6a2.72,2.72,0,0,1,1,2.27,2.55,2.55,0,0,1-2.33,2.71l2.76,4.27h-1.56l-2.68-4.18Zm0-1.09h2.61a4.86,4.86,0,0,0,1.2-.1,1.51,1.51,0,0,0,1.23-1.59,1.76,1.76,0,0,0-.59-1.38,2.78,2.78,0,0,0-1.91-.42H110.1Z"/><path d="M135.17,66.58v9.85h-1.3l.18-8.26-3.11,8.26h-1l-3.06-8.13.14,8.13h-1.28V66.58h1.69l3,8.08,3-8.08Z"/><path d="M149.64,73.41h-3.75l-1.1,3h-1.39l3.75-9.85h1.37l3.58,9.85h-1.38Zm-.39-1.1-1.44-4.1-1.51,4.1Z"/><path d="M161.68,75.25h4.77v1.17h-6.08V66.56h1.31Z"/><path d="M176.2,71.93v3.35h5.69v1.14h-7V66.58h6.79v1.16H176.2v3H181v1.16Z"/></svg>