<svg id="Layer_14" data-name="Layer 14" xmlns="http://www.w3.org/2000/svg" viewBox="0 0 185 88"><title>_</title><polygon points="28.74 9 49.09 9 49.09 12.33 32.22 12.33 32.22 20.95 47.45 20.95 47.45 24.27 32.22 24.27 32.22 34.13 49.09 34.13 49.09 37.49 28.74 37.49 28.74 9"/><polygon points="87.11 9 83.61 9 83.61 37.49 101.77 37.49 101.77 34.13 87.11 34.13 87.11 9"/><path d="M126.3.36c-3.4,1.26-8.33-1-13.46.57a7.7,7.7,0,0,0-4.17,2.75,10.83,10.83,0,0,1,2.88-.91c3.52-.51,6.91.25,9.17-.22-1.31,1.16-8.41,1.79-12.53,1.74h0l-2.13,0v.29l2.48-.07C114.35,7.62,124.26,4,126.3.36Z"/><path d="M23.81,23.21c0,8.82-5.06,14.28-12.93,14.28H.32V9H10.88C18.75,9,23.81,14.38,23.81,23.21Zm-3.57,0c0-7.81-4.15-10.88-9.36-10.88H3.81v21.8h7.07C16.13,34.13,20.24,30.89,20.24,23.21Z"/><polygon points="106.13 37.49 126.48 37.49 126.48 34.13 109.61 34.13 109.61 24.27 124.84 24.27 124.84 20.95 109.61 20.95 109.61 12.33 126.48 12.33 126.48 9 106.13 9 106.13 37.49"/><path d="M66.21,11.62a9.87,9.87,0,0,1,9.4,6.17h3.65a13.22,13.22,0,0,0-13-9.48c-7.8,0-14.12,6.65-14.12,14.82S58.41,38,66.21,38a13.5,13.5,0,0,0,13-9.52H75.61a10.17,10.17,0,0,1-9.4,6.16c-5.87,0-10.67-5.22-10.67-11.5S60.34,11.62,66.21,11.62Z"/><path d="M163.28,46.79a1.68,1.68,0,0,1,.87,1.6v1.87h-1V48.4c0-.49-.15-1.15-1.4-1.15h-2.63v3h-1V42.61h3.64c1.67,0,2.65,1,2.65,2.32A2,2,0,0,1,163.28,46.79Zm.11-1.86c0-1-.61-1.42-1.65-1.42h-2.62v2.83h2.65A1.43,1.43,0,0,0,163.4,44.93Z"/><rect x="170.74" y="42.62" width="1.02" height="7.65"/><path d="M181.19,45.84c-1.67-.29-2.05-.62-2.05-1.28s.59-1.24,1.86-1.24,1.88.6,1.88,1.49h1c0-1.49-1.12-2.38-2.92-2.38s-2.86.85-2.86,2.16,1,1.84,2.86,2.14,2.11.73,2.11,1.37c0,.85-.67,1.41-2.07,1.41s-2.1-.64-2.1-1.67h-1c0,1.53,1.24,2.56,3.14,2.56s3.09-.81,3.09-2.3S183,46.16,181.19,45.84Z"/><path d="M183.59,34a11,11,0,0,0,.62,3.45h-3.54a8,8,0,0,1-.53-3.08V30.52c0-2.75-1.44-4.27-4.68-4.27h-9.32V37.49h-3.49V9h12.6c5.83,0,9.24,3.54,9.24,8.62a7.71,7.71,0,0,1-3.9,6.89c1.93,1.15,3,3.12,3,6ZM181,17.63c0-3.69-2.22-5.3-5.71-5.3h-9.11V22.89h9.24C178.74,22.89,181,20.87,181,17.63Z"/><path d="M140.74,44.93a2.32,2.32,0,0,1-2.63,2.32h-2.45v3h-1V42.61h3.45C139.81,42.61,140.74,43.58,140.74,44.93Zm-1,0c0-1-.68-1.42-1.65-1.42h-2.45v2.84h2.45C139.08,46.35,139.76,45.94,139.76,44.93Z"/><path d="M149.32,42.61l3,7.65h-1.12L150.37,48h-3.32l-.87,2.22h-1.09l3.1-7.65Zm.72,4.56-1.31-3.41-1.34,3.41Z"/><path d="M157.72,23.13c0,8.29-6.32,14.86-14.12,14.86s-14.12-6.53-14.12-14.86S135.8,8.31,143.6,8.31,157.72,14.67,157.72,23.13Zm-3.45,0c0-6.57-4.68-11.5-10.67-11.5s-10.68,5.06-10.68,11.5,4.8,11.5,10.68,11.5S154.27,29.57,154.27,23.13Z"/><rect x="134.67" y="64" width="49.54" height="1.02"/><path d="M3.14,88C2,88,1.53,87.6.56,87.6c0-.7-.09-1.59-.16-2.21,0-.06.09-.1.19-.1s.14,0,.17.1c.47,1.61,1.12,2.2,2.43,2.2a1.54,1.54,0,0,0,1.65-1.73c0-2.09-4.26-2.26-4.26-4.78a2.6,2.6,0,0,1,2.77-2.52c.9,0,1.18.23,2,.23.05.74.1,1.3.21,2,0,.05-.08.1-.17.1s-.18,0-.2-.1C4.9,79.47,4.34,79,3.34,79a1.48,1.48,0,0,0-1.59,1.59C1.75,82.42,6,82.79,6,85.18A2.64,2.64,0,0,1,3.14,88Z"/><path d="M20.07,87.79c-.86,0-1.21-.08-2-.08s-1.35.08-2.21.08c-.05,0-.1-.08-.1-.18s0-.17.09-.18c.6-.07.88-.2.88-.42s-.09-.27-.29-.47l-2.59-2.63a.89.89,0,0,0-.78-.34v2.76c0,.66.09.95,1.35,1.09a.17.17,0,0,1,.1.18c0,.1-.05.18-.1.18-.86,0-1.21-.08-2-.08s-1.14.08-2,.08c-.05,0-.1-.08-.1-.18a.17.17,0,0,1,.1-.18c1.26-.14,1.35-.43,1.35-1.09V80.21c0-.68-.09-.95-1.35-1.1-.05,0-.1-.08-.1-.18s.05-.18.1-.18c.86,0,1.21.08,2,.08s1.16-.08,2-.08c.05,0,.1.09.1.18s-.05.18-.1.18c-1.26.16-1.35.43-1.35,1.1v3a.94.94,0,0,0,.78-.34L16.7,80c.21-.2.35-.34.35-.48s-.23-.34-.83-.42c-.06,0-.1-.08-.1-.18s.05-.18.12-.18c.62,0,1,.08,1.69.08s.86-.08,1.39-.08c.05,0,.09.09.09.18s-.05.18-.1.18a2.71,2.71,0,0,0-1.85.9l-3,2.83,3.69,3.74a2.54,2.54,0,0,0,1.87.85.17.17,0,0,1,.12.18C20.17,87.71,20.12,87.79,20.07,87.79Z"/><path d="M28.52,87.79c-.86,0-1.2-.08-2-.08s-1.14.08-2,.08c-.05,0-.1-.08-.1-.18a.17.17,0,0,1,.1-.18c1.26-.14,1.35-.43,1.35-1.09V80.21c0-.68-.09-.95-1.35-1.1-.05,0-.1-.08-.1-.18s.05-.18.1-.18c.87,0,1.21.08,2,.08s1.14-.08,2-.08c.06,0,.1.09.1.18s0,.18-.1.18c-1.26.16-1.34.43-1.34,1.1v6.12c0,.66.08.95,1.34,1.09.06,0,.1.08.1.18S28.59,87.79,28.52,87.79Z"/><path d="M43.91,79.12c-1.27.14-1.42.43-1.43,1.09l-.14,7.66c0,.08-.05.13-.16.13a.32.32,0,0,1-.21-.1l-6.71-7.58-.09,6c0,.66.18.95,1.43,1.09.06,0,.1.08.1.18s-.05.18-.1.18c-.66,0-1.17-.08-1.78-.08s-1.1.08-1.7.08c-.05,0-.1-.06-.1-.18a.17.17,0,0,1,.12-.18c1.26-.14,1.4-.43,1.42-1.09l.23-6.12c0-.68-.18-.95-1.44-1.1-.05,0-.09-.08-.09-.18s0-.18.1-.18c.44,0,.81.08,1.18.08s.64-.08,1.11-.08l6.26,7V80.21c0-.66-.23-.95-1.48-1.09-.07,0-.1-.08-.1-.18s.05-.18.1-.18c.68,0,1.17.06,1.78.06s1.1-.06,1.7-.06c.06,0,.1.06.1.18A.17.17,0,0,1,43.91,79.12Z"/><path d="M54.05,84.87a.87.87,0,1,1,.88-.88A.88.88,0,0,1,54.05,84.87Z"/><path d="M69.4,87.79c-.86,0-1.59-.08-2.39-.08s-1.34.08-2.2.08c-.05,0-.1-.08-.1-.18a.17.17,0,0,1,.1-.18c1.26-.14,1.35-.43,1.35-1.09V80.21c0-.68-.09-.95-1.35-1.1-.05,0-.1-.08-.1-.18s.05-.18.1-.18c.86,0,1.26.08,2.07.08s1.3-.08,2.16-.08c1.62,0,2.72.85,2.72,2.11a2.31,2.31,0,0,1-1.92,2c1.4.27,2.52,1.08,2.52,2.29A2.65,2.65,0,0,1,69.4,87.79Zm-.83-8.6h-.26c-.61,0-.82.27-.82.7v2.83h.94c1.38,0,1.89-.61,1.89-1.87C70.31,79.76,69.8,79.19,68.57,79.19Zm.34,4H67.49v3.2c0,.66.23,1,1.49,1a2,2,0,0,0,1.94-2.22A1.85,1.85,0,0,0,68.9,83.14Z"/><path d="M81.61,88a4.52,4.52,0,0,1-4.78-4.68,4.79,4.79,0,0,1,9.58,0A4.52,4.52,0,0,1,81.61,88Zm0-9c-2.13,0-3.35,1.95-3.35,4.35s1.22,4.26,3.35,4.26S85,85.72,85,83.32,83.74,79,81.61,79Z"/><path d="M95.65,87.79c-.57,0-1.75-.05-2.35-.05s-1.78,0-2.35.05c-.06,0-.1-.08-.1-.18s0-.17.1-.18c1.26-.14,1.34-.43,1.34-1.09v-6.1c0-.68-.08-.95-1.34-1.1-.06,0-.1-.08-.1-.18s0-.18.1-.18c.57,0,1.74.05,2.35.05l2.35,0c3.12,0,5,2,5,4.55S99,87.79,95.65,87.79Zm-.05-8.58-1.22,0c-.36,0-.77.12-.77.75v6.59c0,.64.4.74.77.74l1.22,0a3.75,3.75,0,0,0,3.59-4C99.18,80.93,97.62,79.19,95.6,79.21Z"/><path d="M113.76,79.11a2,2,0,0,0-1.75,1.1l-2.43,3.51v2.61c0,.66,0,.95,1.25,1.09a.17.17,0,0,1,.1.18c0,.1-.05.18-.1.18-.86,0-1.11-.08-1.91-.08s-1.14.08-2,.08c-.05,0-.1-.08-.1-.18a.17.17,0,0,1,.1-.18c1.26-.14,1.35-.43,1.35-1.09V83.75L106,80.21a2,2,0,0,0-1.75-1.1c-.05,0-.1-.08-.1-.18s.05-.18.1-.18c.62,0,1.07.08,1.75.08s1.2-.08,2.05-.08c.06,0,.1.09.1.18s-.05.18-.1.18c-.64.09-.85.23-.85.44a1.06,1.06,0,0,0,.27.66l1.87,2.94,2-2.94a.9.9,0,0,0,.21-.53c0-.3-.22-.47-1-.57-.05,0-.08-.08-.08-.18s0-.18.1-.18c.75,0,1.11.08,1.83.08s.74-.08,1.42-.08c.06,0,.1.09.1.18A.17.17,0,0,1,113.76,79.11Z"/><path d="M123.91,84.87a.87.87,0,1,1,.88-.88A.88.88,0,0,1,123.91,84.87Z"/><path d="M146.47,87.79c-.86,0-1.25-.08-2.05-.08s-1.14.08-2,.08c-.07,0-.12-.08-.12-.18s0-.17.1-.18c1.25-.14,1.33-.43,1.31-1.09l-.27-6.3-3.13,7.86a.18.18,0,0,1-.18.1.17.17,0,0,1-.18-.1l-3-7.55-.47,6c-.05.66.1.95,1.35,1.09.06,0,.09.08.09.18s-.06.18-.12.18c-.66,0-1.16-.08-1.77-.08s-1.12.08-1.72.08c-.05,0-.09-.08-.09-.18a.18.18,0,0,1,.12-.18c1.27-.14,1.44-.43,1.49-1.09l.68-6.12c.07-.68-.13-.95-1.38-1.1-.05,0-.09-.08-.09-.18s.06-.18.12-.18c.45,0,.87.08,1.24.08s.86-.08,1.33-.08L140.57,86l2.89-7.24c.51,0,.83.08,1.29.08s.77-.08,1.34-.08c.07,0,.12.09.12.18s0,.18-.1.18c-1.25.16-1.33.43-1.31,1.1l.3,6.12c0,.66.12.95,1.39,1.09a.17.17,0,0,1,.1.18C146.58,87.71,146.54,87.79,146.47,87.79Z"/><path d="M155.18,87.79c-.86,0-1.2-.08-2-.08s-1.14.08-2,.08c-.05,0-.1-.08-.1-.18a.17.17,0,0,1,.1-.18c1.26-.14,1.35-.43,1.35-1.09V80.21c0-.68-.09-.95-1.35-1.1-.05,0-.1-.08-.1-.18s.05-.18.1-.18c.87,0,1.21.08,2,.08s1.14-.08,2-.08c.06,0,.1.09.1.18s0,.18-.1.18c-1.26.16-1.34.43-1.34,1.1v6.12c0,.66.08.95,1.34,1.09.06,0,.1.08.1.18S155.24,87.79,155.18,87.79Z"/><path d="M170.57,79.12c-1.27.14-1.42.43-1.43,1.09L169,87.87c0,.08-.05.13-.16.13a.32.32,0,0,1-.21-.1l-6.71-7.58-.09,6c0,.66.18.95,1.43,1.09.06,0,.1.08.1.18s-.05.18-.1.18c-.66,0-1.17-.08-1.78-.08s-1.1.08-1.7.08c-.05,0-.1-.06-.1-.18a.17.17,0,0,1,.12-.18c1.26-.14,1.4-.43,1.42-1.09l.23-6.12c0-.68-.18-.95-1.44-1.1-.05,0-.09-.08-.09-.18s0-.18.1-.18c.44,0,.81.08,1.18.08s.64-.08,1.11-.08l6.26,7V80.21c0-.66-.23-.95-1.48-1.09-.07,0-.1-.08-.1-.18s.05-.18.1-.18c.68,0,1.17.06,1.78.06s1.1-.06,1.7-.06c.06,0,.1.06.1.18A.17.17,0,0,1,170.57,79.12Z"/><path d="M179.35,87.79c-.57,0-1.75-.05-2.35-.05s-1.78,0-2.35.05c-.06,0-.1-.08-.1-.18s0-.17.1-.18c1.26-.14,1.34-.43,1.34-1.09v-6.1c0-.68-.08-.95-1.34-1.1-.06,0-.1-.08-.1-.18s0-.18.1-.18c.57,0,1.74.05,2.35.05l2.35,0c3.12,0,5,2,5,4.55S182.68,87.79,179.35,87.79Zm-.05-8.58-1.22,0c-.36,0-.77.12-.77.75v6.59c0,.64.4.74.77.74l1.22,0a3.75,3.75,0,0,0,3.59-4C182.89,80.93,181.33,79.19,179.3,79.21Z"/></svg>