<svg id="Layer_14" data-name="Layer 14" xmlns="http://www.w3.org/2000/svg" viewBox="0 0 238 30"><defs><style>.cls-1{fill-rule:evenodd;}</style></defs><title>_</title><path class="cls-1" d="M28.52,8.59A6.75,6.75,0,0,0,26,8.16H20.23l-.1.35h1.82L18.9,20.73H17.08l-.08.35h5.75l.1-.35H21l1.37-5.51h2.25a7,7,0,0,0,3.44-.66,3.73,3.73,0,0,0,2-3.34A2.63,2.63,0,0,0,28.52,8.59ZM27.81,11l-.49,2a2.33,2.33,0,0,1-.78,1.37,2.59,2.59,0,0,1-1.66.51H22.49l1.58-6.35h2.11a2,2,0,0,1,1.19.39,1.75,1.75,0,0,1,.53,1.31A3.9,3.9,0,0,1,27.81,11Zm14-2.5h1.8l-1.29,5.16h-5.2l1.29-5.16h1.8l.1-.35H34.6l-.1.35h1.8L33.25,20.73H31.43l-.08.35h5.77l.08-.35H35.4L37.06,14h5.22L40.6,20.73H38.8l-.1.35h5.75l.1-.35h-1.8L45.8,8.51h1.82l.08-.35H41.93ZM56,8h-.18L50,18.52a6.81,6.81,0,0,1-1,1.37,2.32,2.32,0,0,1-1.15.84l-.1.35h3.34l.08-.35H51a1,1,0,0,1-.63-.18.81.81,0,0,1-.37-.7,2.87,2.87,0,0,1,.33-1.17l1.21-2.25h3.89l.63,4.3H54.68l-.1.35h4.79l.1-.35H58Zm-4.24,8.08L54.54,11l.84,5.08Zm22.33,3.64a1,1,0,0,1-.76.43c-.55,0-.57-.61-.57-.82V17.48a2.6,2.6,0,0,0-.86-2.17,4.26,4.26,0,0,0-1.66-.88V14.3a7.28,7.28,0,0,0,3.13-.74,2.72,2.72,0,0,0,1.39-2.46,2.69,2.69,0,0,0-1-2.05,4.59,4.59,0,0,0-3.13-.88H64.51l-.08.35h1.8L63.18,20.73h-1.8l-.1.35H67l.1-.35H65.31l1.58-6.35h1.47a2.07,2.07,0,0,1,1.76.63,2.67,2.67,0,0,1,.49,1.7l-.06,1.47c-.06,1.1-.1,1.88.51,2.5a2,2,0,0,0,1.47.57,1.89,1.89,0,0,0,1.33-.53,4.15,4.15,0,0,0,.8-.9,5.37,5.37,0,0,0,.45-.74l-.41-.2A3.94,3.94,0,0,1,74.09,19.71Zm-5-5.69H67l1.37-5.51h1.82A2.45,2.45,0,0,1,71.92,9a2.14,2.14,0,0,1,.63,1.7,3.71,3.71,0,0,1-.55,2A3.46,3.46,0,0,1,69.13,14Zm15.29,4.5L83.5,8.16H79.41l-.08.35h.8a.79.79,0,0,1,.72.31,1.75,1.75,0,0,1,.2.88,4.08,4.08,0,0,1-.12.94l-2,7.78a4.32,4.32,0,0,1-.82,1.6,2.55,2.55,0,0,1-1.39.7l-.08.35h3.85l.1-.35a1.94,1.94,0,0,1-1.1-.47,1.28,1.28,0,0,1-.33-.94,3.1,3.1,0,0,1,.14-.8l2.23-9.19,1.25,11.91h.35l7.2-12L87.51,20.73H85.69l-.08.35h5.75l.08-.35h-1.8L92.69,8.51h1.8l.08-.35h-4ZM102.88,8h-.18L96.85,18.52a6.81,6.81,0,0,1-1,1.37,2.32,2.32,0,0,1-1.15.84l-.1.35h3.34l.08-.35h-.16a1,1,0,0,1-.63-.18.81.81,0,0,1-.37-.7,2.87,2.87,0,0,1,.33-1.17l1.21-2.25h3.89l.63,4.3h-1.39l-.1.35h4.79l.1-.35h-1.43Zm-4.24,8.08L101.41,11l.84,5.08ZM115.3,20.4c-3.44,0-4.48-2.84-4.48-5.67,0-3,1.32-5.6,4.37-5.6,2.16,0,3.49.82,4,3h1.23a4.55,4.55,0,0,0-4.9-4c-3.35,0-5.88,1.83-5.88,6.65,0,3.58,1.54,6.65,5.44,6.65,3.39,0,4.91-2.05,5.48-4.49H119.3A4.06,4.06,0,0,1,115.3,20.4ZM130,8.11c-3.77,0-5.83,3-5.83,6.67s2,6.63,5.88,6.63,5.9-3,5.9-6.63S133.92,8.11,130,8.11ZM130,20.4c-3.3,0-4.7-2.63-4.7-5.62s1.42-5.65,4.67-5.65c2.91,0,4.72,2.14,4.72,5.65C134.73,17.73,133.33,20.4,130,20.4Zm10.78-8.85c0-1.19.93-2.42,3.12-2.42,1.62,0,3.11.82,3.11,2.76h1.14c0-2.07-1.4-3.77-4.25-3.77s-4.28,1.63-4.28,3.39c0,5,7.71,2.37,7.71,6.28,0,1.39-.95,2.62-3.21,2.62-1.93,0-3.44-.83-3.63-3.09h-1.16c0,2.74,1.95,4.11,4.58,4.11,2.91,0,4.62-1.37,4.62-3.69C148.56,12.66,140.82,15.36,140.82,11.55Zm18,8h0L154.62,8.44h-1.83V21.08H154V9.81h0l4.16,11.27h1.12l4.14-11.27h0V21.08h1.19V8.44h-1.81Zm11.67-4.7H177v-1h-6.51V9.46h7.21v-1h-8.41V21.08h8.58v-1h-7.39Zm10.14-5.42h4V21.08h1.19V9.46h4v-1h-9.2Zm12.65,11.62h1.19V8.44h-1.19Zm11-.68c-3.44,0-4.48-2.84-4.48-5.67,0-3,1.32-5.6,4.37-5.6,2.16,0,3.49.82,4,3h1.23a4.55,4.55,0,0,0-4.9-4c-3.35,0-5.88,1.83-5.88,6.65,0,3.58,1.54,6.65,5.44,6.65,3.39,0,4.91-2.05,5.48-4.49h-1.25A4.06,4.06,0,0,1,204.24,20.4Zm13-12-5,12.64h1.23l1.49-4h5.76l1.46,4h1.23L218.56,8.44Zm-1.84,7.65,2.48-6.63,2.47,6.63Z"/></svg>