<svg id="Layer_14" data-name="Layer 14" xmlns="http://www.w3.org/2000/svg" viewBox="0 0 238 30"><defs><style>.cls-1{fill-rule:evenodd;}</style></defs><title>PHARMA_MOBWEB_smart_icons</title><path class="cls-1" d="M59.15,7.37a27.34,27.34,0,0,1-2.62,2c-2.29,1.46-6,.77-9-.85a11.4,11.4,0,0,0-6.23-1.5,8.73,8.73,0,0,0-6.35,3v3.21l-.63.52s0,2.92,0,2.94l-.08.16,0,5.9,1.09-.72s3-2.14,5.78-2.14h.36A10.71,10.71,0,0,1,46,21.13a12.76,12.76,0,0,0,5.34,1.77c.29,0,.59,0,.89,0h0a10.2,10.2,0,0,0,6-2.37l.31-.24V17.17c.09-.07.54-.38.54-.38v-4.4l.12-.12ZM53.63,19.18a6.39,6.39,0,0,0,3.33-1v1.45c-.55.36-1.52,1.71-5.62,1.71-3,0-5.38-3.17-10.27-3.17a11.11,11.11,0,0,0-5.27,1.52l0-1.65c3.24-2.58,8.12-2.41,11.38-.75A15,15,0,0,0,53.63,19.18ZM41.86,14.47a9.51,9.51,0,0,0-5.26,1.4l0-2.19A7.28,7.28,0,0,1,41,12.37c.27,0,.55,0,.82,0a13.67,13.67,0,0,1,5.11,1.54,12.07,12.07,0,0,0,4.64,1.49l.64,0a7.73,7.73,0,0,0,4.7-1.25l0,2.09a4.55,4.55,0,0,1-3.39,1.38h-.39A14,14,0,0,1,47.72,16,12.21,12.21,0,0,0,41.86,14.47Zm0-3.7h-.16c-.27,0-.55,0-.82,0a8.8,8.8,0,0,0-4.33,1.17V10.54a8.38,8.38,0,0,1,4.8-1.91A11.64,11.64,0,0,1,47,10a18.45,18.45,0,0,0,4.65,1.69,8.25,8.25,0,0,0,6-1V12a9.15,9.15,0,0,1-5.49,1.78l-.53,0a11,11,0,0,1-4.15-1.32A15,15,0,0,0,41.88,10.76Z"/><path class="cls-1" d="M82.46,8.59l-1.91,3.5-.33-.17c0-.07,0-.13,0-.17q0-.37-.68-.79a8.83,8.83,0,0,0-4.9-1.35,7.71,7.71,0,0,0-2.19.28,2.66,2.66,0,0,0-1.12.65,1.33,1.33,0,0,0-.43.95q0,.84,1.09,1.14a18.34,18.34,0,0,0,2.42.33l1.84.17a16.19,16.19,0,0,1,2.66.45,6.47,6.47,0,0,1,1.8.79A3.82,3.82,0,0,1,82,15.76a3.9,3.9,0,0,1,.46,1.86,4.05,4.05,0,0,1-1.09,2.78A6,6,0,0,1,78.29,22a13.17,13.17,0,0,1-3.32.4A15,15,0,0,1,68.69,21a3.5,3.5,0,0,0-.79-.28,1,1,0,0,0-.48.24l-.34-.16,1.74-3.65.34.15v.14a1.17,1.17,0,0,0,.5.9A6.59,6.59,0,0,0,72,19.46a11,11,0,0,0,3,.46,6.55,6.55,0,0,0,2.66-.49,2.56,2.56,0,0,0,1-.72,1.48,1.48,0,0,0,.36-.94,1.1,1.1,0,0,0-.86-1.05,12.19,12.19,0,0,0-2.42-.4L74,16.14q-1.82-.17-2.57-.33a7,7,0,0,1-1.5-.51,3.79,3.79,0,0,1-1.68-1.47,3.74,3.74,0,0,1-.55-2,4,4,0,0,1,1.4-3.12,8.06,8.06,0,0,1,5.49-1.62,13.4,13.4,0,0,1,2.86.29,22.84,22.84,0,0,1,3.31,1.07,3.82,3.82,0,0,0,.83.25,1,1,0,0,0,.57-.25Z"/><path class="cls-1" d="M95.25,7.07A10.22,10.22,0,0,1,102,9.17a7,7,0,0,1,2.65,5.68,6.91,6.91,0,0,1-1.27,4q-2.48,3.61-8.13,3.61a10.16,10.16,0,0,1-6.74-2.1,7.34,7.34,0,0,1-2-2.69,7.24,7.24,0,0,1,.65-7q2.41-3.54,8.11-3.6m0,2.53a6,6,0,0,0-3.9,1.26,4.77,4.77,0,0,0-1.85,3.9,4.77,4.77,0,0,0,1.85,3.9,6.7,6.7,0,0,0,7.83,0,5,5,0,0,0,1.41-1.84,4.86,4.86,0,0,0,.43-2,4.77,4.77,0,0,0-1.85-4,6.25,6.25,0,0,0-3.93-1.26"/><path class="cls-1" d="M121.37,17.08l2.1,3.1-.29.2a.87.87,0,0,0-.51-.28,4,4,0,0,0-1.12.52,15.65,15.65,0,0,1-3.2,1.46,11.19,11.19,0,0,1-3.09.38,9.72,9.72,0,0,1-5.86-1.67,7,7,0,0,1-2.12-2.41,7.45,7.45,0,0,1-.9-3.62,7.25,7.25,0,0,1,1.6-4.69q2.41-3,7.29-3a11.2,11.2,0,0,1,3.07.37,15.8,15.8,0,0,1,3.21,1.46,4,4,0,0,0,1.12.51.87.87,0,0,0,.51-.28l.29.2-2.1,3.1-.3-.2a2.34,2.34,0,0,0,0-.29.83.83,0,0,0-.28-.59,4.66,4.66,0,0,0-1-.67,8.43,8.43,0,0,0-4.15-1.08,6.27,6.27,0,0,0-4.13,1.27,4.8,4.8,0,0,0-1.81,3.89,4.8,4.8,0,0,0,1.81,3.89,6.27,6.27,0,0,0,4.13,1.27,8.41,8.41,0,0,0,4.15-1.09,4.66,4.66,0,0,0,1-.67.84.84,0,0,0,.28-.59,2.12,2.12,0,0,0,0-.28Z"/><path class="cls-1" d="M151.66,19.34h9.88a.87.87,0,0,0,.55-.15,1.07,1.07,0,0,0,.31-.54h.38v3.8h-.38a1.07,1.07,0,0,0-.31-.54.87.87,0,0,0-.55-.15H147.39v-.34a1.24,1.24,0,0,0,.59-.28.7.7,0,0,0,.16-.51V8.2a.7.7,0,0,0-.16-.51,1.25,1.25,0,0,0-.59-.28V7.07h5v.34a1.15,1.15,0,0,0-.59.27.72.72,0,0,0-.16.51Z"/><path class="cls-1" d="M173.24,7.07a8.74,8.74,0,0,1,6.16,2.1,7.34,7.34,0,0,1,2.41,5.68,7.39,7.39,0,0,1-1.15,4q-2.25,3.61-7.4,3.61a8.68,8.68,0,0,1-6.13-2.1,7.31,7.31,0,0,1-1.85-2.69,7.72,7.72,0,0,1-.55-2.91,7.62,7.62,0,0,1,1.14-4.08q2.19-3.54,7.37-3.6m0,2.53a5.13,5.13,0,0,0-3.54,1.26,5,5,0,0,0-1.68,3.9,5,5,0,0,0,1.68,3.9,5.65,5.65,0,0,0,7.11,0,5,5,0,0,0,1.29-1.84,5.29,5.29,0,0,0,.39-2,5,5,0,0,0-1.68-4,5.34,5.34,0,0,0-3.57-1.26"/><path class="cls-1" d="M135.41,7.07a8.74,8.74,0,0,1,6.16,2.1A7.34,7.34,0,0,1,144,14.85a7.39,7.39,0,0,1-1.15,4q-2.25,3.61-7.4,3.61a8.69,8.69,0,0,1-6.13-2.1,7.32,7.32,0,0,1-1.85-2.69,7.72,7.72,0,0,1-.55-2.91A7.62,7.62,0,0,1,128,10.67q2.19-3.54,7.37-3.6m0,2.53a5.13,5.13,0,0,0-3.54,1.26,5,5,0,0,0-1.68,3.9,5,5,0,0,0,1.68,3.9,5.65,5.65,0,0,0,7.11,0,5,5,0,0,0,1.29-1.84,5.29,5.29,0,0,0,.39-2,5,5,0,0,0-1.68-4,5.34,5.34,0,0,0-3.57-1.26"/><path class="cls-1" d="M190.84,16.17v5.1a.76.76,0,0,0,.17.52,1.12,1.12,0,0,0,.57.29v.36h-4.88v-.36a1.18,1.18,0,0,0,.57-.29.75.75,0,0,0,.16-.52v-13a.77.77,0,0,0-.16-.53,1.18,1.18,0,0,0-.57-.29V7.07h9.78a15.59,15.59,0,0,1,2.83.2,5.08,5.08,0,0,1,1.83.71,3.59,3.59,0,0,1,1.35,1.59,5.12,5.12,0,0,1,.42,2.07q0,3.76-4.25,4.4l3,4.25a9.55,9.55,0,0,0,1.17,1.44,1.5,1.5,0,0,0,.91.35v.36h-5.65v-.36q.58-.09.58-.41a2.85,2.85,0,0,0-.54-1L195,16.17Zm0-2.53h5.27a13.65,13.65,0,0,0,1.65-.07,2.63,2.63,0,0,0,.88-.28,1.72,1.72,0,0,0,.87-1.67,1.72,1.72,0,0,0-.87-1.67,2.5,2.5,0,0,0-.88-.29,14.69,14.69,0,0,0-1.66-.06h-5.27Z"/></svg>