<svg id="Layer_14" data-name="Layer 14" xmlns="http://www.w3.org/2000/svg" viewBox="0 0 185 88"><defs><style>.cls-1{isolation:isolate;}.cls-2{mix-blend-mode:multiply;}</style></defs><title>_</title><g class="cls-1"><g class="cls-2"><path d="M157.24,26.83h-1.17l-8.7,17-8.8-17h-1.28l-2.45,18.61a10.44,10.44,0,0,1-1,3.47h2.44a11,11,0,0,1,.09-3.64l1.52-11.39,7.8,15h.91l7.81-15,1.45,11.16a13.07,13.07,0,0,1,0,3.86h4.88a9.85,9.85,0,0,1-1-3.49Z"/><path d="M46.48,26.54c-7.1,0-12.67,5-12.67,11.43S39.38,49.4,46.48,49.4s12.67-5,12.67-11.43S53.59,26.54,46.48,26.54Zm.36,21.16c-4.91,0-8.82-4.18-9-9.72s3-9.73,8.3-9.73c4.92,0,8.81,4.18,9,9.73S51.75,47.7,46.84,47.7Z"/><path d="M179.19,48.91h5a10.63,10.63,0,0,1-2.4-3.61l-7.89-18.47H173l-8,19a11.89,11.89,0,0,1-1.85,3.1h2.28l3.06-7.38h7.71ZM169.07,40l3.24-7.79L175.53,40Z"/><path d="M12.29,36.05c1.63-.77,3.06-2.07,3.06-4a4.4,4.4,0,0,0-3-4.41,15,15,0,0,0-5.19-.73H.63a5.42,5.42,0,0,1,.61,2.86V45.94a5.09,5.09,0,0,1-.63,3H7.7a16.31,16.31,0,0,0,6-1A5.75,5.75,0,0,0,17,42.35C17,38.61,14.21,36.89,12.29,36.05ZM5,28.36c.34,0,.87,0,1.57,0a11.23,11.23,0,0,1,2.12.19,3.47,3.47,0,0,1,2.91,3.53,3,3,0,0,1-2.67,3.11c-.35.05-1.35.14-1.71.14L5,35.29ZM9.37,47.3a14.49,14.49,0,0,1-1.85.18L5,47.46V36.78l2,0A13,13,0,0,1,9,36.95c2.55.55,4.1,2.33,4.07,5.48A4.58,4.58,0,0,1,9.37,47.3Z"/><path d="M96.44,47.41V36.82h7.81l.53-1.5H96.44V28.41h6.05a7.24,7.24,0,0,1,3.81.87l-1.09-2.38H92.14a5.7,5.7,0,0,1,.58,2.86V45.94a5.31,5.31,0,0,1-.6,3h14.38l1.13-2.39a8.72,8.72,0,0,1-4.24.88Z"/><path d="M77.74,27.34a23.59,23.59,0,0,0-4-.43H64.8a5.63,5.63,0,0,1,.58,2.86V45.94a5.28,5.28,0,0,1-.6,3h8.35a33.32,33.32,0,0,0,3.74-.26c6.26-.87,9.91-5,9.91-10.59S83.07,28.65,77.74,27.34Zm-2.32,20a24.33,24.33,0,0,1-2.64.14c-1.81,0-3,0-3.66-.05V28.51c.7,0,2.2-.07,3-.07a16.71,16.71,0,0,1,4.46.63,9,9,0,0,1,6,8.93C82.67,43,80.47,46.58,75.42,47.29Z"/><path d="M28.21,26.9H23.35a5.63,5.63,0,0,1,.58,2.86V45.94a5.31,5.31,0,0,1-.6,3h4.85A5.61,5.61,0,0,1,27.61,46V29.89A5.29,5.29,0,0,1,28.21,26.9Z"/><path d="M121.36,38.65c2.91-.29,6.48-1.89,6.48-5.62s-2.36-5.1-5-5.7A26.83,26.83,0,0,0,117,26.9H112.4a5.61,5.61,0,0,1,.58,2.86V45.94a5.28,5.28,0,0,1-.6,3h5a5.79,5.79,0,0,1-.63-3V28.39a16.41,16.41,0,0,1,3.61.21,4.22,4.22,0,0,1,3.7,4.48c0,2.48-1.56,5.35-6,4.37l-.5.33c3.77,5.8,7.06,9.22,9.5,11.12h5.63A49.73,49.73,0,0,1,121.36,38.65Z"/></g><g class="cls-2"><path d="M1.77,59.18H4.22v.75H.63V54H1.78Z"/><path d="M6.95,59.94h-1L8.62,54H9.3l2.43,6H10.55l-.6-1.47H7.59Zm1.86-4.3-.92,2.14H9.67Z"/><path d="M14.12,54H16c1.34,0,2.16.6,2.16,1.37a1.48,1.48,0,0,1-1.08,1.34,1.66,1.66,0,0,1,1.64,1.48c0,1-1.16,1.74-2.38,1.74H14.11Zm3.43,4.23c0-.56-.46-1-1.38-1h-.93v2h.88C17,59.27,17.55,58.84,17.55,58.24Zm-1.74-1.66c.74,0,1.23-.39,1.23-1s-.39-.88-1.24-.89h-.55v1.89Z"/><path d="M27.77,57a3.12,3.12,0,0,1-3.34,3.08A3.06,3.06,0,0,1,21.09,57a3.13,3.13,0,0,1,3.35-3.08A3,3,0,0,1,27.77,57Zm-5.46,0a2.13,2.13,0,1,0,2.12-2.34A2.12,2.12,0,0,0,22.31,57Z"/><path d="M34.16,60.05l-1.84-2.76h-.68V60H30.5V54h1.84c1.59,0,2.36.78,2.36,1.53a1.71,1.71,0,0,1-1.27,1.51l2,2.89ZM32.24,56.6c.92,0,1.34-.5,1.34-1s-.39-.92-1.32-.92h-.61V56.6Z"/><path d="M38,60H37l2.69-6h.68l2.43,6H41.59L41,58.5H38.63Zm1.86-4.3-.92,2.14H40.7Z"/><path d="M43.69,54H49v.76h-2.1V60H45.79V54.81H43.69Z"/><path d="M57.19,57a3.12,3.12,0,0,1-3.35,3.08A3.06,3.06,0,0,1,50.51,57a3.13,3.13,0,0,1,3.34-3.09A3,3,0,0,1,57.19,57Zm-5.47,0a2.14,2.14,0,1,0,2.13-2.34A2.12,2.12,0,0,0,51.72,57Z"/><path d="M59.91,60V54.05H61V60Z"/><path d="M67.7,60.08l-1.85-2.76h-.68V60H64V54.06h1.84c1.59,0,2.36.78,2.36,1.53A1.72,1.72,0,0,1,67,57.1L69,60Zm-1.92-3.46c.92,0,1.33-.5,1.33-1s-.39-.92-1.32-.92h-.61v1.88Z"/><path d="M75.36,60h-4V54.06h3.86v.76H72.51v1.75h2v.76h-2v1.92h2.85Z"/><path d="M82,54.07h2c2.13,0,3.58,1.12,3.58,3S85.89,60,84,60h-2ZM84,59.25A2.3,2.3,0,0,0,86.36,57,2.14,2.14,0,0,0,84,54.83h-.92v4.42Z"/><path d="M94.28,60h-4V54.08h3.86v.76H91.44v1.74h2v.76h-2v1.92h2.84Z"/><path d="M100.49,60.11l-1.85-2.76H98V60H96.83V54.08h1.84c1.58,0,2.36.78,2.36,1.53a1.73,1.73,0,0,1-1.27,1.51l2,2.89Zm-1.92-3.45c.92,0,1.33-.5,1.33-1s-.39-.93-1.32-.93H98v1.88Z"/><path d="M110.69,60h-1.11l-.07-4-1.89,4.06h-.71l-1.82-4L104.92,60H104l.26-5.93h1.07l2.07,4.61,2.13-4.61h1Z"/><path d="M114,60h-1l2.68-6h.68l2.43,6h-1.18l-.6-1.47h-2.35Zm1.86-4.31-.92,2.14h1.78Z"/><path d="M119.67,54.1H125v.76h-2.1V60h-1.14V54.87h-2.11Z"/><path d="M133.17,57.08a3.11,3.11,0,0,1-3.34,3.07,3.06,3.06,0,0,1-3.34-3.08A3.13,3.13,0,0,1,129.83,54,3,3,0,0,1,133.17,57.08Zm-5.47,0a2.13,2.13,0,1,0,2.13-2.34A2.13,2.13,0,0,0,127.7,57.08Z"/><path d="M137,59.29h2.45V60H135.9V54.11H137Z"/><path d="M147.88,57.09a3.12,3.12,0,0,1-3.35,3.08,3.06,3.06,0,0,1-3.34-3.08A3.13,3.13,0,0,1,144.54,54,3,3,0,0,1,147.88,57.09Zm-5.47,0a2.13,2.13,0,1,0,2.12-2.34A2.13,2.13,0,0,0,142.41,57.09Z"/><path d="M153.82,60.18a3.11,3.11,0,1,1,0-6.17,5.24,5.24,0,0,1,2.19.4l-.34.73a4.6,4.6,0,0,0-1.81-.34,2.29,2.29,0,1,0,.07,4.58,3.38,3.38,0,0,0,1.19-.15V57.51h1.12v2.22A5.85,5.85,0,0,1,153.82,60.18Z"/><path d="M158.89,60.06V54.13H160v5.93Z"/><path d="M169.35,60.47l-.37.84-3.88-1.23a3,3,0,0,1-2.35-3A3.13,3.13,0,0,1,166.09,54a3,3,0,0,1,3.34,3.09,2.9,2.9,0,0,1-2.21,2.84ZM164,57.11a2.14,2.14,0,1,0,2.12-2.34A2.13,2.13,0,0,0,164,57.11Z"/><path d="M177.3,58.1c0,1-.75,2.09-2.66,2.09-1.73,0-2.66-.83-2.65-2.06v-4h1.14V58c0,.93.49,1.39,1.6,1.39A1.39,1.39,0,0,0,176.27,58V54.14h1Z"/><path d="M184.21,60.08h-4V54.15h3.87v.76h-2.73v1.74h2v.76h-2v1.92h2.85Z"/></g></g></svg>