<svg id="Layer_14" data-name="Layer 14" xmlns="http://www.w3.org/2000/svg" viewBox="0 0 185 88"><defs><style>.cls-1{fill-rule:evenodd;}</style></defs><title>_</title><polygon class="cls-1" points="132.34 56.52 132.34 38.89 109.84 38.89 109.84 56.52 103.44 56.52 103.44 17.16 109.84 17.16 109.84 34.03 132.34 34.03 132.34 17.16 138.74 17.16 138.74 56.52 132.34 56.52"/><path class="cls-1" d="M32.51,67.73l1.3-3.25,1.3,3.25Zm3.79,3h1l-3.5-8.24-3.5,8.24h1l.9-2.25H35.4Z"/><path class="cls-1" d="M89,67.73l1.3-3.25,1.3,3.25Zm3.79,3h1l-3.5-8.24-3.5,8.24h1l.9-2.25h3.19Z"/><rect x="128.69" y="62.98" width="1" height="7.74"/><rect x="47.49" y="17.16" width="6.4" height="39.36"/><path d="M31.95,17.15,19.33,43.82c.07-.07-12.75-26.67-12.75-26.67H-.06L19.28,56.52l19.3-39.38Z"/><path d="M83.8,51.25c-9.4,0-16.27-6-16.27-14.41S74.4,22.43,83.8,22.43a18.26,18.26,0,0,1,10.88,3.5V19.7A24.12,24.12,0,0,0,83.8,17.15c-12.21,0-22.1,8.81-22.1,19.69s9.9,19.69,22.1,19.69A24.13,24.13,0,0,0,94.68,54V47.75a18.26,18.26,0,0,1-10.88,3.5"/><path d="M46,70.72V63h1.28q2.59,0,2.59,2.1a1.69,1.69,0,0,1-.76,1.51,1.79,1.79,0,0,1,1.07.72,2.07,2.07,0,0,1,.31,1.27,1.88,1.88,0,0,1-.81,1.66,3.13,3.13,0,0,1-1.88.5Zm.75-7v2.5h.44A2.9,2.9,0,0,0,48.51,66a.91.91,0,0,0,.53-1,1.22,1.22,0,0,0-.5-1.13,2.9,2.9,0,0,0-1.3-.21Zm0,3.25v3h1c1.32,0,1.9-.54,1.9-1.48s-.62-1.52-2-1.52Z"/><path d="M63.14,62.74a4,4,0,0,1,2.91,1.17,3.9,3.9,0,0,1,0,5.65,4.24,4.24,0,0,1-5.83,0,3.9,3.9,0,0,1,0-5.65,4,4,0,0,1,2.91-1.17m0,.8a3.15,3.15,0,0,0-2.3.94,3.15,3.15,0,0,0,0,4.51,3.27,3.27,0,0,0,4.59,0,3.16,3.16,0,0,0,0-4.51,3.15,3.15,0,0,0-2.3-.94"/><path d="M116,62.74a4,4,0,0,1,2.91,1.17,3.89,3.89,0,0,1,0,5.65,4.24,4.24,0,0,1-5.83,0,3.9,3.9,0,0,1,0-5.65A4,4,0,0,1,116,62.74m0,.8a3.15,3.15,0,0,0-2.3.94,3.15,3.15,0,0,0,0,4.51,3.27,3.27,0,0,0,4.59,0,3.16,3.16,0,0,0,0-4.51,3.14,3.14,0,0,0-2.3-.94"/><path d="M168.48,63.94l-.68.44a1.47,1.47,0,0,0-1.33-.84,1.31,1.31,0,0,0-.9.34,1.1,1.1,0,0,0-.38.86,1,1,0,0,0,.41.77,3.88,3.88,0,0,0,.8.44l.51.22a4.36,4.36,0,0,1,1.3.79,1.85,1.85,0,0,1,.55,1.38,2.27,2.27,0,0,1-.71,1.69,2.5,2.5,0,0,1-3.29.14,2.47,2.47,0,0,1-.83-1.45l.84-.24a1.7,1.7,0,0,0,.51,1,1.43,1.43,0,0,0,1,.41,1.6,1.6,0,0,0,1.11-.43,1.39,1.39,0,0,0,.48-1.07,1.24,1.24,0,0,0-.44-1,4,4,0,0,0-1-.55l-.47-.21a3.8,3.8,0,0,1-1.18-.72,1.71,1.71,0,0,1-.5-1.26,1.8,1.8,0,0,1,.65-1.43,2.22,2.22,0,0,1,1.5-.53,2.12,2.12,0,0,1,2,1.2"/><polygon points="152.17 70.72 152.17 62.99 156.42 62.99 156.42 63.79 153.03 63.79 153.03 66.09 156.17 66.09 156.17 66.89 153.03 66.89 153.03 69.92 156.42 69.92 156.42 70.72 152.17 70.72"/><polygon points="20.19 62.98 20.19 69.92 22.33 69.92 22.33 70.72 19.33 70.72 19.33 62.98 20.19 62.98"/><polygon points="103.16 63.78 103.16 70.72 102.29 70.72 102.29 63.78 100.42 63.78 100.42 62.98 105.05 62.98 105.05 63.78 103.16 63.78"/><path d="M75.88,67.32v3.4H75V63h1.12Q79,63,79,65.12a2.14,2.14,0,0,1-.53,1.48,2,2,0,0,1-1.42.66l2.47,3.47H78.43l-2.34-3.4Zm0-3.54v2.78h.27a2.87,2.87,0,0,0,1.35-.25,1.18,1.18,0,0,0,.62-1.14,1.22,1.22,0,0,0-.6-1.18,3.21,3.21,0,0,0-1.38-.22Z"/><path d="M140.05,67.32v3.4h-.86V63h1.12q2.83,0,2.84,2.13a2.13,2.13,0,0,1-.52,1.48,2,2,0,0,1-1.42.66l2.47,3.47h-1.06l-2.34-3.4Zm0-3.54v2.78h.27a2.87,2.87,0,0,0,1.35-.25,1.18,1.18,0,0,0,.62-1.14,1.22,1.22,0,0,0-.6-1.18,3.21,3.21,0,0,0-1.38-.22Z"/><polyline points="185.05 17.16 167.63 39.61 167.63 56.52 161.7 56.52 161.7 39.61 144.28 17.16 151.12 17.16 164.67 34.7 178.21 17.16 185.05 17.16"/></svg>