<svg id="Layer_14" data-name="Layer 14" xmlns="http://www.w3.org/2000/svg" viewBox="0 0 185 88"><title>_</title><polygon points="26.22 61.07 7.07 43.56 0.5 43.56 0.5 70.47 7.69 70.47 7.69 52.44 27.3 70.37 27.42 70.47 33.41 70.47 33.41 43.56 26.22 43.56 26.22 61.07"/><path d="M79.3,59c0,4.4-3.14,6.82-8.84,6.82s-8.9-2.49-8.9-7V43.56h-7.3V59c0,7.56,5.87,11.9,16.09,11.9s16.25-4.42,16.25-12.12V43.56H79.3Z"/><polygon points="137.7 43.56 129.1 43.56 120.08 52.84 111.1 43.56 102.3 43.56 115.49 56.79 101.77 70.47 110.36 70.47 119.86 60.7 129.42 70.47 138.22 70.47 124.45 56.72 137.7 43.56"/><polygon points="162.59 59.41 180.56 59.41 180.56 54.15 162.66 54.15 162.66 48.78 185 48.78 185 43.56 155.72 43.56 155.72 70.47 185 70.47 185 65.14 162.59 65.14 162.59 59.41"/><path d="M93.7,35.46c-.37,0-2.46-.13-2.7.28a3.05,3.05,0,0,1-.9.74h5.72c-1-.46-1.43-1-2.12-1"/><path d="M88.51,25.09s2.32-1.35,1-4.44c-.38-.94-.9.12-.9.12A7.17,7.17,0,0,0,88,25.09c0,.2.46,0,.46,0"/><path d="M87.12,23.77c.37-.64.31-2.28.81-3,.29-.42-2.12,1.17-2.55,3.55-.06.33,1.47-.07,1.74-.54"/><path d="M99.05,23.46c.43.19.13-1.51.13-1.51s-.6.18-.8-.22a6.31,6.31,0,0,1-.26-1.82,6.79,6.79,0,0,0-1.58-.73c-.26,0-.31,2,2.51,4.28"/><path d="M94.52,22.72a3.49,3.49,0,0,0,1.23-1.86,5.76,5.76,0,0,0,0-2.59c-.07-.1-.42,0-.42,0a3.45,3.45,0,0,0-1.39,3.06,5,5,0,0,0,.14,1.56c0,.18.13.11.44-.17"/><path d="M93,23.73a6.46,6.46,0,0,0-.09-2,3.72,3.72,0,0,0-1.53-2.56c-.23-.16-.37.19-.37.19a4.06,4.06,0,0,0,1.23,4.37c.55.52.72.15.75,0"/><path d="M101,18c-.33-.59-.48-.62-.48-.62a3.57,3.57,0,0,0-1.72,2.17,3.83,3.83,0,0,0,0,1.53c0,.14.35.13.61,0,.42-.28,1.06-1,1.55-3"/><path d="M98,18.75a3.78,3.78,0,0,0,0-1.72A3.93,3.93,0,0,0,95,14.49a5.17,5.17,0,0,0,3,4.26"/><path d="M102,23.85c.13-.17.76-1.22.49-1.55a12.23,12.23,0,0,1-1-2.22c-.39.44-.5.73-.5,4.36,0,.35.88-.46,1-.59"/><path d="M105.45,22.72a5.61,5.61,0,0,1-.81-3,3.15,3.15,0,0,1-1,1.75,7.12,7.12,0,0,0,.15,3.52s1.68-1.46,1.68-2.22"/><path d="M98.06,14.64c-.2.22,1,2.78,1,2.78a5.45,5.45,0,0,0,.73-1.4c.18-.74.16-2.13,0-2.14a2.34,2.34,0,0,1-1.24-.39,3.78,3.78,0,0,1-.43,1.14"/><path d="M100.61,13.94a5.28,5.28,0,0,0,.12,2.68c.41,1.06,2.14,1.7,2.25,1.72s.13-1.12.1-1.31c-.28-1.34-2.47-3.09-2.47-3.09"/><path d="M103.7,17.88c.06,2.19-1.18,1.19-1.49,1,0,0,0,2,.63,2.67a2.94,2.94,0,0,0,.86-3.68"/><path d="M108,23.87a3.23,3.23,0,0,0-2.79-3.79c.15.44,0,2.09,2.79,3.79"/><path d="M107.29,19.82c-.41-2.18-3.19-2.4-3.19-2.4a3.08,3.08,0,0,1,.51,1.47,4.27,4.27,0,0,0,2.68.93"/><path d="M109,18a4.51,4.51,0,0,0,.32,4.95A3.18,3.18,0,0,0,109,18"/><path d="M102.39,14.59c0,.71,1.07,2,4.08,2.42a3.94,3.94,0,0,0-2-2.2,3.3,3.3,0,0,0-2-.21"/><path d="M109.15,15.46l-.09-.24s-.82-1.88-4.32-2c-.53,0,.88,2.51,4.41,2.23"/><path d="M108.25,16.14a2.68,2.68,0,0,1-1.51-.37s1.13,1.55.86,1.92-.86,0-.86,0,1.2,1.58,1.25,1.45a2,2,0,0,1,.29-.84s.69-1.72,0-2.2"/><path d="M112.58,20.71a.13.13,0,0,0,.19-.11c0-.18.5-3-3.34-3.23v.51A6.1,6.1,0,0,1,111,19.54a3.77,3.77,0,0,0,1.59,1.17"/><path d="M109.73,16c0,.26.29.54.29.54s1.11,1.51,4.33,1.5c.1-1-1.26-2.58-3.75-2.55-.18.06,0,.57-.86.51"/><path d="M109.35,14.1a3.11,3.11,0,0,1,.76.88s2.49.17,3.52-1.75c-2.11-1.09-4.48.7-4.29.87"/><path d="M107.73,13.23c.56.13.84.26,1,.43a3.77,3.77,0,0,0,1.63-3c-.44-.11-2.8.81-2.59,2.62"/><path d="M107.52,10.86a5.51,5.51,0,0,0,1-1.17c.1-.21-1.94-.3-2.4.11a10.2,10.2,0,0,0,1.35,1.06"/><path d="M104.1,9.69c0,.66.36,2.28,2.64,3.2,0,0,.4-.09.63-.76s-1.74-2.55-3.27-2.44"/><path d="M102.05,9.38c-.49.31.46,3.51,1.41,4.56,0,0,.54,0,.56-1.41,0-2-1.61-3.38-2-3.15"/><path d="M99.47,9.52c.23,0,3,.25,3.24-3.72a4.85,4.85,0,0,0-3.42,3.55s-.05.2.18.17"/><path d="M98.65,10.61a2.77,2.77,0,0,0-.08-2.29A4.38,4.38,0,0,0,96.8,6.59s-.22-.06-.26.08c-.26,1.63,1.44,3.66,2.11,3.94"/><path d="M100.22,10.41c-.17,0-.11.78-.06,1s1.08.39,1.74,1.35c-.67-1.51-.48-1.94-.48-1.94a4.88,4.88,0,0,0-1.2-.4"/><path d="M98.76,13.09a5.39,5.39,0,0,0,2.34.32,2.73,2.73,0,0,0-2.61-1.83,3.07,3.07,0,0,1,.27,1.51"/><path d="M97.33,11.11c-.76.27-1.19,2.43-1.12,3.22a1.93,1.93,0,0,1,1.12.61c.57-.41.65-3.23,0-3.83"/><path d="M94.35,13.61c-.1.44.54-.16.77-.39a5.08,5.08,0,0,0,1.26-3.75C96.06,9,94.25,11,94.25,11a8,8,0,0,1,.1,2.63"/><path d="M94,10.4c.54-.82.77-3.33.27-3.28S92.84,8.48,92.6,8.89c0,0,.68.1,1.4,1.51"/><path d="M92.44,10a3.77,3.77,0,0,0-.16,2.57c0,.07.62,2.43,1.13,2a4.46,4.46,0,0,0,.49-2.73C93.84,11.36,93,10,92.44,10"/><path d="M92.8,7.71S92,6,91,5.88c-.27.1-.67,1.89.65,4.42.52-2.5,1.2-2.59,1.2-2.59"/><path d="M89.29,9.69c.28-.34,1.39-2.69.37-4.1-1.64.47-2,2.85-1.86,3.76.06.38.44-.33,1.49.34"/><path d="M86.21,7.64c.5.41.72,2.46,1,1.56a4.87,4.87,0,0,0-.32-4c-.26-.4-1.23,1.38-1.23,1.91,0,.34.05.09.58.52"/><path d="M86.31,9.29a3.46,3.46,0,0,0-3.52-2.6,2.83,2.83,0,0,0,3.52,2.6"/><path d="M84.55,11.15c-.46-2.62-3.32-2.6-4-2.56a3.27,3.27,0,0,0,4,2.56"/><path d="M90.59,11.11a.18.18,0,0,0,0-.22c-1.28-1.5-4.8-1.09-5.26-.61,1.76,2.22,5.26.83,5.26.83"/><path d="M90.29,16.13c0,.23.42-.1.5-.21s1.1-1.23,1.13-1.91a19.66,19.66,0,0,0-.18-2.37c-.07-.53-.44-.06-.44-.06a3.68,3.68,0,0,0-1,1.86,11.13,11.13,0,0,0,0,2.69"/><path d="M83,12.63c.35.41,2,1,2.37.57.89-.89,1.76-1.08,1.56-1.22-1.36-.92-4.25.28-3.93.65"/><path d="M87.77,12.62A6.08,6.08,0,0,0,84,15.22c-.27.48.21.37.4.38.54,0,1.72,0,2.21-.63,1.11-1.46,1.59-2.47,1.16-2.34"/><path d="M88,14.94c-.1.44,1.06-.12,1.56-.13.25-2.63,1-3.13,1-3.13A5.22,5.22,0,0,0,88,14.94"/><path d="M84.37,18.07A1.9,1.9,0,0,0,86.2,18a5.91,5.91,0,0,1,1.53-2.44,4,4,0,0,0-3.35,2.54"/><path d="M86.62,20.51c2.95-.91,2.11-4.71,2.11-4.71-.45.39-2.16.83-2.11,4.71"/><path d="M91.82,16c-.07-.47-2.28,1.24-3.19,3.54.94.32,3.54-1.1,3.19-3.54"/><path d="M93.44,18.75a3.35,3.35,0,0,0,1.48-1.69c0-.18.28-1-.11-1.14s-.22-1.82-.22-1.82c-.32.22-1.42.74-1.15,4.65"/><path d="M94.09,19.14c.31-.69-.74.31-.94.19A12.5,12.5,0,0,1,92.92,16c0-.15-.29-.1-.29-.1,0,.27-.47,1.84-.75,1.93a3.69,3.69,0,0,0,.32,1.28,6.48,6.48,0,0,0,1,1.64c.27.24.74-1.4.87-1.64"/><path d="M83.37,17.3a3.32,3.32,0,0,0-.46,4.34s.25.32.22-.07c0-.57.62-.7.93-1.48s-.36-2.1-.69-2.79"/><path d="M85.45,22.33a4,4,0,0,0,.09-2.27c-.09-.31-.26-.46-.82.21a5.41,5.41,0,0,0-1.25,2.15,13.6,13.6,0,0,0-.25,1.94,3,3,0,0,0,2.22-2"/><path d="M81.88,24c.82-2.49-1.09-4.76-1.09-4.76-.35.67-1.65,2.74,1.09,4.76"/><path d="M77.31,23.48c0,.74,1.82-.62,2.28-.81,0-.08-.51-2.12.12-2.78.19-.2-2.61,1.41-2.39,3.6"/><path d="M77.46,20.34a3.82,3.82,0,0,0-.08-1.68c-.9.32-3.38,2.3-3,4.29,1.81.07,2.9-1.78,3.06-2.61"/><path d="M71.75,20.59a5.11,5.11,0,0,0,4.75-2.41,4.27,4.27,0,0,0-4.75,2.41"/><path d="M73.39,18c.09,0,.37-.48,2.32-.32-1.54-2.09-3.5-2-4.12-1.72C71.7,17,73.3,18,73.39,18"/><path d="M78.66,14.83A5.73,5.73,0,0,0,73.4,15c.66,1.24,4,1.53,5.26-.21"/><path d="M76.22,17.41c.29.39,1.66.41,1.66.41a10.88,10.88,0,0,1,2.07-2.59,6.88,6.88,0,0,0-3.72,2.17"/><path d="M74.72,14c2.4-1.1,4.07,1,4.5.31-2-2.48-4.58-1.7-5.19-1.12,0,0-.37.28.7.81"/><path d="M82.22,11.64a3.85,3.85,0,0,0-5.44.12,5.19,5.19,0,0,0,5.44-.12"/><path d="M78.85,13a5.12,5.12,0,0,0,2.28,1.72,4.26,4.26,0,0,1,2.7-.84,6.13,6.13,0,0,0-5-.88"/><path d="M80.72,15.38c-.09-.35-2.35,1.52-2.21,4.49,0,.23.18.06.3,0a4,4,0,0,0,1.91-4.49"/><path d="M81.23,15.6a5.37,5.37,0,0,1-.32,3.13c1-.28,2.55-3.19,2.51-4.3-.41-.15-2.39.91-2.18,1.17"/><path d="M103.82,35.44l-3.71-.09-.6,0a3.26,3.26,0,0,1-3.13-1.88.72.72,0,0,0-.13-.16l-.07-.08a1.13,1.13,0,0,0-1.08-.46,10.49,10.49,0,0,1-1.3.1s-.79.1-.79-1.06,1.89-3.17,2.2-4a8.44,8.44,0,0,0,.14-2.39s0-.48.36-.58a1.91,1.91,0,0,0,.85-.68C97.39,23,97.94,23,97.94,23l-1.1-1.24s-.44.14-.31,1c-.28-.12-.24.32-.27.52s-.14.46-.3.42-.3-.08-.34-1.12-.28-.1-.28-.1-.1.58-.44.63-.12,1-.12,1-1.12.32-1.34.68-1.92-.4-3-2.52c-.24-.09,0,1.48,0,1.48s-.24.21-.11.37-.69.32-.28.74,2.08.14,2.26.65.48,1.84.16,2.28c-.41,1-2.92,1.85-3.32,4.31a8.24,8.24,0,0,1-.4,1.33c-.41,1.34-1.16,1.7-3.13,1.88l-1.4.08c-.86,0-3,.06-3,.06L.31,36v.5H85c4,0,5-1.29,5.43-3.06h.07s0,0-.07,0a6.24,6.24,0,0,0,.21-1.06,5.69,5.69,0,0,1,1.87-2.59,5.79,5.79,0,0,0,1.72-2.9c.44-1,.36-.11.38,0a1.41,1.41,0,0,1-.08,1.25c-.68,1-1.75,2.12-2.19,2.91-.16.27-.84,2.7,2,2.36a1.56,1.56,0,0,1,1,.06c.83.33.7,3.06,4.73,3.06H185V36Z"/><path d="M61.3,80H57.92v-1.8h3.31c.77,0,1.15.31,1.15.93S62,80,61.3,80m.16-2.65H57v5.63h.93V80.8h3.36a2.31,2.31,0,0,0,1.53-.44,1.59,1.59,0,0,0,.53-1.29,1.67,1.67,0,0,0-.5-1.28,1.94,1.94,0,0,0-1.38-.48"/><path d="M75.86,80.84l1.45-2.72,1.44,2.72Zm.86-3.53-3,5.63h1l.65-1.26h3.79l.65,1.26h1l-3-5.63Z"/><path d="M92,80v-1.8h3.29q1.17,0,1.17.93c0,.58-.36.87-1.09.87Zm5,.28a1.62,1.62,0,0,0,.41-1.15,1.69,1.69,0,0,0-.51-1.3,2,2,0,0,0-1.39-.48H91v5.63H92V80.8h2.84l1.53,2.15h1.08l-1.51-2.19A1.79,1.79,0,0,0,97,80.24"/><rect x="109.24" y="77.29" width="0.94" height="5.63"/><path d="M127.83,80.12a3.46,3.46,0,0,0-1.57-.52l-1.54-.13a4.69,4.69,0,0,1-1.14-.17c-.33-.12-.49-.3-.49-.55s.15-.43.45-.56a3.45,3.45,0,0,1,1.33-.2,5.58,5.58,0,0,1,2.55.64L128,78a5.33,5.33,0,0,0-3-.83,4,4,0,0,0-2.1.46,1.41,1.41,0,0,0-.74,1.25,1.13,1.13,0,0,0,.65,1.1,5.86,5.86,0,0,0,2,.37,14.56,14.56,0,0,1,1.93.2c.46.12.69.36.69.72a.81.81,0,0,1-.52.72,3.48,3.48,0,0,1-1.53.27,5.37,5.37,0,0,1-2.85-.81l-.51.67a5.27,5.27,0,0,0,3.35,1,4.34,4.34,0,0,0,2.28-.49,1.55,1.55,0,0,0,.79-1.39,1.28,1.28,0,0,0-.5-1.08"/></svg>