<svg width="732" height="84" viewBox="0 0 732 84" fill="none" xmlns="http://www.w3.org/2000/svg">
<path fill-rule="evenodd" clip-rule="evenodd" d="M16 1.67935L14.0107 5.5462L13.6691 5.35355C13.677 5.27365 13.6812 5.20906 13.6812 5.16089C13.6812 4.88834 13.4449 4.59526 12.9734 4.28239C11.5252 3.28777 9.8248 2.79046 7.87181 2.79046C7.00949 2.79046 6.24867 2.89463 5.58972 3.10296C5.10952 3.2635 4.72134 3.50394 4.42406 3.82428C4.12677 4.14462 3.9787 4.49333 3.9787 4.87005C3.9787 5.48683 4.35703 5.90761 5.11368 6.13199C5.50413 6.24437 6.34221 6.36459 7.62792 6.49265L9.54418 6.68493C10.6833 6.80515 11.6047 6.9698 12.3084 7.17776C13.012 7.38647 13.6365 7.6788 14.1818 8.05552C14.7351 8.44829 15.1721 8.96539 15.4937 9.60607C15.8152 10.2475 15.9758 10.933 15.9758 11.6621C15.9758 12.8166 15.5974 13.8425 14.8408 14.7401C14.1572 15.5574 13.0957 16.1629 11.6555 16.5553C10.5815 16.8518 9.43019 17 8.20166 17C5.99683 17 3.8204 16.4788 1.67237 15.436C1.21641 15.2273 0.944117 15.1231 0.854742 15.1231C0.749083 15.1231 0.582073 15.2113 0.35447 15.3879L0 15.2079L1.80643 11.1771L2.16052 11.3455V11.502C2.16052 11.863 2.33549 12.1957 2.68541 12.5007C3.21409 12.9659 4.0321 13.3669 5.13868 13.704C6.24488 14.0408 7.29466 14.2099 8.28725 14.2099C9.36922 14.2099 10.2929 14.0296 11.0575 13.6693C11.4805 13.4692 11.8183 13.203 12.0705 12.8707C12.3228 12.5384 12.4489 12.1923 12.4489 11.8316C12.4489 11.2877 12.1516 10.8994 11.5578 10.6671C11.1427 10.5073 10.3046 10.3588 9.04353 10.2228L7.164 10.0306C5.90253 9.90214 5.01181 9.77968 4.49109 9.66356C3.97037 9.54708 3.44964 9.3604 2.92892 9.10353C2.18855 8.74249 1.60648 8.20076 1.18384 7.47794C0.801344 6.82793 0.610097 6.08122 0.610097 5.23818C0.610097 3.84967 1.09409 2.7016 2.06244 1.79435C3.33187 0.598116 5.23563 0 7.7741 0C8.83978 0 9.83237 0.10678 10.7519 0.320339C11.6714 0.533898 12.8185 0.926669 14.1936 1.49828C14.6654 1.68383 14.9544 1.77643 15.06 1.77643C15.2308 1.77643 15.4304 1.68383 15.658 1.49828L16 1.67935Z" transform="translate(0 12) scale(4)" fill="#F06402"/>
<path fill-rule="evenodd" clip-rule="evenodd" d="M9.4817 2.79102C7.90661 2.79102 6.59435 3.25581 5.54417 4.18503C4.30045 5.28263 3.67877 6.7207 3.67877 8.49962C3.67877 10.2785 4.30045 11.7166 5.54417 12.8146C6.59398 13.7438 7.91468 14.2086 9.50589 14.2086C11.0967 14.2086 12.4134 13.7438 13.4552 12.8146C14.0768 12.262 14.5534 11.5845 14.8847 10.7837C15.1754 10.0706 15.3206 9.33327 15.3206 8.57205C15.3206 6.71323 14.6985 5.25089 13.4552 4.18541C12.3973 3.27224 11.0729 2.80744 9.4817 2.79102ZM9.46958 0C12.3514 0 14.6362 0.774288 16.3238 2.32212C18.1078 3.94238 19 6.03564 19 8.60229C19 10.1744 18.5722 11.6423 17.7167 13.0057C16.0456 15.6687 13.3045 17 9.49413 17C6.63647 17 4.36347 16.2261 2.67622 14.6779C1.77193 13.8517 1.08574 12.8613 0.617645 11.7062C0.205637 10.6873 0 9.61663 0 8.49403C0 6.84988 0.423737 5.3461 1.27158 3.98232C2.89395 1.37572 5.62662 0.0481597 9.46958 0Z" transform="translate(76 12) scale(4)" fill="#F06402"/>
<path fill-rule="evenodd" clip-rule="evenodd" d="M15.786 11.0689L17.9996 14.4916L17.6965 14.7089C17.4792 14.4994 17.3005 14.3949 17.1607 14.3949C17.021 14.3949 16.6287 14.5887 15.9838 14.9743C14.6481 15.7702 13.5237 16.3064 12.6114 16.5837C11.6986 16.8611 10.6132 17 9.35501 17C6.84615 17 4.78841 16.3859 3.18066 15.1591C2.23272 14.4453 1.4871 13.559 0.943819 12.5002C0.314731 11.2892 0 9.95375 0 8.49403C0 6.50455 0.563144 4.7764 1.68943 3.30809C3.38261 1.10282 5.94167 0 9.367 0C10.6252 0 11.7046 0.136639 12.6057 0.409171C13.5068 0.681702 14.6328 1.2193 15.9842 2.02121C16.629 2.3979 17.0213 2.58681 17.1611 2.58681C17.3008 2.58681 17.4796 2.48228 17.6969 2.27359L18 2.49012L15.7864 5.91954L15.4717 5.70338C15.4874 5.57607 15.4949 5.46818 15.4949 5.38007C15.4949 5.14861 15.3975 4.93096 15.2038 4.72712C15.0093 4.52328 14.6638 4.27763 14.1666 3.98979C12.7919 3.19049 11.3356 2.7914 9.79788 2.7914C7.98031 2.7914 6.5318 3.25993 5.45234 4.19773C4.17843 5.29533 3.54185 6.72929 3.54185 8.49963C3.54185 10.2707 4.17843 11.705 5.45234 12.8026C6.5318 13.7401 7.98068 14.2086 9.79788 14.2086C11.3356 14.2086 12.7919 13.808 14.1666 13.0054C14.6635 12.7171 15.0093 12.47 15.2038 12.2662C15.3978 12.0608 15.4949 11.8424 15.4949 11.6098C15.4949 11.5221 15.487 11.4176 15.4717 11.297L15.786 11.0689Z" transform="translate(168 12) scale(4)" fill="#F06402"/>
<path fill-rule="evenodd" clip-rule="evenodd" d="M9.48163 2.95557C7.90657 2.95557 6.59413 3.44738 5.54433 4.43179C4.30058 5.59405 3.67871 7.11667 3.67871 9.00003C3.67871 10.883 4.30058 12.4064 5.54433 13.5687C6.59413 14.5523 7.91501 15.0445 9.50588 15.0445C11.0967 15.0445 12.4132 14.5523 13.4553 13.5687C14.0768 12.9833 14.5536 12.266 14.8849 11.4181C15.1758 10.663 15.3213 9.88236 15.3213 9.0762C15.3213 7.10855 14.6994 5.56003 13.4557 4.43179C12.3971 3.46478 11.0729 2.97258 9.48163 2.95557ZM9.46951 0C12.3515 0 14.6362 0.819693 16.3237 2.45869C18.1078 4.17425 19 6.39051 19 9.10826C19 10.7732 18.5721 12.3271 17.7166 13.7708C16.0453 16.5903 13.3043 18 9.49376 18C6.636 18 4.3634 17.1807 2.67593 15.5417C1.77195 14.6667 1.08543 13.6177 0.617465 12.3952C0.205699 11.3164 0 10.1824 0 8.99381C0 7.25313 0.423887 5.66052 1.27129 4.21678C2.89375 1.4565 5.62661 0.0510375 9.46951 0Z" transform="translate(256 12) scale(4)" fill="#F06402"/>
<path fill-rule="evenodd" clip-rule="evenodd" d="M4.43479 14.3599H14.7132C14.9664 14.3599 15.1587 14.3017 15.2895 14.184C15.4203 14.066 15.5263 13.8561 15.6081 13.5539H16V18H15.6081C15.5263 17.6979 15.4203 17.4876 15.2895 17.3703C15.1587 17.2531 14.9664 17.194 14.7132 17.194H0V16.7915C0.293853 16.707 0.497992 16.5984 0.612417 16.4639C0.726841 16.3291 0.783863 16.1317 0.783863 15.8714V1.32307C0.783863 1.06236 0.726841 0.864979 0.612417 0.730522C0.497992 0.596847 0.293853 0.487015 0 0.402979V0H5.21904V0.40337C4.9248 0.478807 4.72066 0.585903 4.60624 0.724659C4.49182 0.863024 4.43479 1.06276 4.43479 1.32307V14.3599Z" transform="translate(348 12) scale(4)" fill="#F06402"/>
<path fill-rule="evenodd" clip-rule="evenodd" d="M9.48103 2.79102C7.90681 2.79102 6.59433 3.25581 5.54434 4.18503C4.30021 5.28263 3.67908 6.7207 3.67908 8.49962C3.67908 10.2785 4.29983 11.7166 5.54434 12.8146C6.59433 13.7438 7.91432 14.2086 9.50544 14.2086C11.0973 14.2086 12.4139 13.7438 13.4553 12.8146C14.0772 12.262 14.5545 11.5845 14.8853 10.7837C15.1752 10.0706 15.3217 9.33327 15.3217 8.57205C15.3217 6.71323 14.6994 5.25089 13.4553 4.18541C12.3967 3.27224 11.0725 2.80744 9.48103 2.79102ZM9.46939 0C12.3512 0 14.636 0.774288 16.3236 2.32212C18.1074 3.94238 19 6.03564 19 8.60229C19 10.1744 18.5711 11.6423 17.7164 13.0057C16.0449 15.6687 13.3039 17 9.49343 17C6.63564 17 4.36292 16.2261 2.67641 14.6779C1.77213 13.8517 1.08566 12.8613 0.617373 11.7062C0.205416 10.6873 0 9.61663 0 8.49403C0 6.84988 0.423975 5.3461 1.27117 3.98232C2.89384 1.37572 5.62583 0.0481597 9.46939 0Z" transform="translate(420 12) scale(4)" fill="#F06402"/>
<path fill-rule="evenodd" clip-rule="evenodd" d="M4.36731 7.26086H9.91683C10.7371 7.26086 11.3162 7.23612 11.6542 7.18627C11.9923 7.13642 12.3011 7.03285 12.5823 6.87478C13.194 6.53431 13.4995 5.92023 13.4995 5.03137C13.4995 4.1429 13.194 3.52881 12.5823 3.18795C12.2933 3.02178 11.9852 2.91589 11.6595 2.87028C11.3334 2.82468 10.7531 2.80188 9.91683 2.80188H4.36731V7.26086ZM4.36729 10.063V15.705C4.36729 15.9542 4.42457 16.1471 4.54212 16.2843C4.65817 16.4211 4.85808 16.527 5.1396 16.6016V17H0V16.6016C0.289006 16.5185 0.490787 16.4106 0.60272 16.2781C0.715403 16.1448 0.771931 15.9539 0.771931 15.705V1.30778C0.771931 1.0504 0.715777 0.855237 0.60272 0.722294C0.490412 0.589738 0.289006 0.481529 0 0.398441V0H10.3024C11.5576 0 12.5527 0.0745868 13.2883 0.224147C14.0247 0.373707 14.6659 0.634954 15.2129 1.00866C15.8482 1.44034 16.3229 2.02582 16.6362 2.76474C16.9338 3.47892 17.0832 4.24256 17.0832 5.05645C17.0832 7.82968 15.5906 9.45282 12.607 9.92623L15.8044 14.6213C16.3674 15.4433 16.7792 15.9724 17.0409 16.2093C17.3018 16.4454 17.6223 16.5764 18 16.6016V17H12.0495V16.6016C12.4591 16.5351 12.6646 16.3855 12.6646 16.1533C12.6646 16.0037 12.4759 15.6428 12.0975 15.0696L8.76303 10.063H4.36729Z" transform="translate(512 12) scale(4)" fill="#F06402"/>
<mask id="mask0" mask-type="alpha" maskUnits="userSpaceOnUse" x="616" y="0" width="116" height="85">
<path fill-rule="evenodd" clip-rule="evenodd" d="M0 0H28.7871V20.947H0V0Z" transform="translate(616.428 0.211914) scale(4)" fill="white"/>
</mask>
<g mask="url(#mask0)">
<path fill-rule="evenodd" clip-rule="evenodd" d="M20.2351 9.33843C18.2677 9.33843 16.8448 8.7306 15.3399 8.08699C13.6747 7.37532 11.7862 6.56838 8.94804 6.52365C8.88622 6.52288 8.82517 6.52249 8.76373 6.52249C5.73781 6.52249 3.39263 7.68915 2.12731 8.50232L2.09106 5.64982C2.92939 5.07465 6.02133 3.09871 8.91141 3.09871C11.5592 3.09871 13.2957 3.90954 14.9755 4.69432C16.5201 5.41532 18.1155 6.16121 20.2851 6.16121C23.4053 6.16121 26.2958 3.93093 27.7126 2.63477L27.7316 6.02238C27.0292 6.68388 23.9807 9.33843 20.2351 9.33843ZM27.5813 11.571C27.0063 12.1202 24.7923 14.0455 22.0236 14.0455C19.4998 14.0455 17.6259 13.2199 15.6421 12.3449C13.672 11.4769 11.6347 10.5786 8.9217 10.528C8.8782 10.5269 8.83508 10.5265 8.79196 10.5265C6.061 10.5265 3.42162 12.1217 1.86707 13.2771L1.95292 9.93266C2.63557 9.39793 5.28907 7.54838 8.93238 7.59699C11.5672 7.63782 13.2778 8.36932 14.9327 9.07671C16.5384 9.76349 18.0556 10.4122 20.2359 10.4122C23.4827 10.4122 26.1736 8.68549 27.5817 7.56238V11.571H27.5813ZM26.9685 16.994C26.1313 17.4614 23.2325 18.9338 19.9123 18.9338C17.4847 18.9338 15.9103 18.1953 14.244 17.4136C12.6276 16.6549 10.9559 15.8713 8.53976 15.8713C5.78552 15.8713 2.6623 17.7313 1.15887 18.7494L1.33211 15.0861C2.09336 14.409 5.51345 11.5336 8.90226 11.6013C11.4066 11.6476 13.2614 12.4654 15.2235 13.3303C17.2188 14.2099 19.282 15.1192 22.0232 15.1192C24.1269 15.1192 25.9111 14.1839 27.0696 13.3653L26.9685 16.994ZM28.7501 0L27.8427 1.00878C27.806 1.04922 24.1307 5.08628 20.2847 5.08628C18.3459 5.08628 16.9215 4.42128 15.4139 3.717C13.7139 2.92328 11.7877 2.02378 8.91101 2.02378C5.20588 2.02378 1.40917 4.81756 1.24967 4.93617L1.03064 5.0995L1.08254 9.26839L0.911211 9.42083L0.793684 14.1384C0.602132 14.3061 0.481171 14.4192 0.454842 14.4437L0.300303 14.5923L0 20.9471L0.899763 20.2467C0.942118 20.2133 5.18528 16.9451 8.53936 16.9451C10.7247 16.9451 12.2197 17.6462 13.8032 18.3886C15.4994 19.1843 17.2542 20.0068 19.9123 20.0068C24.1349 20.0068 27.6168 17.8593 27.7625 17.7676L28.0052 17.6155L28.1476 12.4985C28.3498 12.3142 28.4669 12.1901 28.4898 12.1668L28.6352 12.0116V6.62628L28.636 6.62589L28.7871 6.468L28.7501 0Z" transform="translate(616.428 0.211914) scale(4)" fill="#F06402"/>
</g>
</svg>
