<svg width="460" height="108" viewBox="0 0 460 108" fill="none" xmlns="http://www.w3.org/2000/svg">
<mask id="mask0" mask-type="alpha" maskUnits="userSpaceOnUse" x="0" y="0" width="108" height="108">
<path fill-rule="evenodd" clip-rule="evenodd" d="M0 0H26.8918V26.9368H0V0Z" transform="translate(0 0.252441) scale(4)" fill="white"/>
</mask>
<g mask="url(#mask0)">
<path fill-rule="evenodd" clip-rule="evenodd" d="M26.8075 0.176963C26.8005 0.0869202 26.7311 0.0135617 26.6413 0.00171739C26.5515 -0.0102543 26.4653 0.0413259 26.4351 0.126401C25.4245 2.97235 21.751 4.08763 17.4972 5.38121C16.3617 5.72648 15.1875 6.0799 14.0263 6.48376C8.60503 8.3693 3.52584 10.9077 3.0717 16.7188C2.97368 17.9729 3.12979 18.9085 3.55885 19.6238C4.6615 18.55 6.07011 17.3507 7.86964 16.0481C7.86964 16.0481 3.09883 20.3258 0.954821 23.952C0.482385 24.8355 0.140471 25.7452 0.00214355 26.654C-0.00617399 26.709 0.00994923 26.7965 0.0464184 26.8387C0.0828876 26.881 0.135992 26.9369 0.191911 26.9369H1.21561C1.30621 26.9369 1.38439 26.8424 1.40333 26.7541C1.41113 26.7178 2.01204 24.0785 4.62784 20.7252C5.60048 21.309 7.06181 21.5877 9.1339 21.5877H9.13429C9.68734 21.5877 10.299 21.5657 10.9524 21.5257C15.3683 21.2568 19.3748 19.3233 22.2336 16.0568C25.6689 12.1313 27.2931 6.48159 26.8075 0.176963Z" transform="translate(0 0.252441) scale(4)" fill="#92D14F"/>
</g>
<path fill-rule="evenodd" clip-rule="evenodd" d="M2.38959 9.09046C2.38959 12.8351 4.41549 16.1665 8 16.1665C11.5844 16.1665 13.6103 12.8867 13.6103 8.93567C13.6103 5.4491 11.7921 1.83362 8.0259 1.83362C4.25968 1.83349 2.38959 5.29418 2.38959 9.09046ZM16 8.83227C16 14.7978 12.3375 18 7.87009 18C3.22083 18 0 14.4105 0 9.14197C0 3.61561 3.42857 0 8.10374 0C12.9091 0 16 3.64149 16 8.83227Z" transform="translate(128 20) scale(4)" fill="#92D14F"/>
<path fill-rule="evenodd" clip-rule="evenodd" d="M0 17V0H2.46641L7.99007 8.60087C9.24902 10.5933 10.277 12.3842 11.0731 14.1247L11.1501 14.0995C10.9446 11.8294 10.8932 9.76111 10.8932 7.11274V0H13V17H10.7393L5.24105 8.37373C4.03347 6.48225 2.87726 4.54009 2.02955 2.6988L1.95242 2.72396C2.08079 4.86798 2.10667 6.91088 2.10667 9.73595V17H0Z" transform="translate(204 20) scale(4)" fill="#92D14F"/>
<path fill-rule="evenodd" clip-rule="evenodd" d="M8.26565 9.02975H2.08401V15.1587H9V17H0V0H8.64475V1.84117H2.08413V7.21374H8.26577V9.02975H8.26565Z" transform="translate(272 20) scale(4)" fill="#92D14F"/>
<path fill-rule="evenodd" clip-rule="evenodd" d="M2.25183 15.2133C2.71774 15.2873 3.33891 15.3124 4.14128 15.3124C6.47071 15.3124 8.61893 14.4935 8.61893 12.0614C8.61893 9.80294 6.57409 8.83521 4.11522 8.83521H2.25183V15.2133ZM2.25183 7.22197H4.29642C6.65191 7.22197 8.04951 6.00587 8.04951 4.39278C8.04951 2.45707 6.52246 1.66284 4.24466 1.66284C3.20946 1.66284 2.61423 1.73734 2.25183 1.81171V7.22197ZM0 0.372365C0.983446 0.148995 2.5625 0 4.11524 0C6.3671 0 7.81658 0.372365 8.87798 1.21597C9.78385 1.86133 10.353 2.85406 10.353 4.16928C10.353 5.80725 9.21418 7.22196 7.40255 7.84245V7.9167C9.05918 8.28919 11 9.60417 11 12.0861C11 13.5256 10.4048 14.6423 9.49902 15.4365C8.30843 16.5036 6.34128 17 3.49433 17C1.94133 17 0.750619 16.9006 0 16.8014V0.372365Z" transform="translate(320 20) scale(4)" fill="#92D14F"/>
<mask id="mask1" mask-type="alpha" maskUnits="userSpaceOnUse" x="0" y="0" width="460" height="108">
<path fill-rule="evenodd" clip-rule="evenodd" d="M0 27H115V0H0V27Z" transform="scale(4)" fill="white"/>
</mask>
<g mask="url(#mask1)">
<path fill-rule="evenodd" clip-rule="evenodd" d="M0 17H2V0H0V17Z" transform="translate(376 20) scale(4)" fill="#92D14F"/>
<path fill-rule="evenodd" clip-rule="evenodd" d="M2.38977 9.09046C2.38977 12.8351 4.41609 16.1665 8.0004 16.1665C11.5847 16.1665 13.6103 12.8867 13.6103 8.93567C13.6103 5.4491 11.7922 1.83362 8.02605 1.83362C4.2599 1.83362 2.38977 5.29418 2.38977 9.09046ZM16 8.83227C16 14.7978 12.3376 18 7.87009 18C3.22062 18 0 14.4105 0 9.14197C0 3.61561 3.42863 0 8.10426 0C12.9092 0 16 3.64149 16 8.83227Z" transform="translate(396 20) scale(4)" fill="#92D14F"/>
</g>
</svg>
