<svg xmlns="http://www.w3.org/2000/svg" viewBox="0 0 512 512" width="51" height="51"><title>head-1</title><g id="Слой_2" data-name="Слой 2"><g id="Capa_1" data-name="Capa 1"><g id="SVGCleanerId_0" data-name="SVGCleanerId 0"><path d="M366.93,307.2H145.07a8.53,8.53,0,0,0-8.53,8.53V503.47a8.53,8.53,0,0,0,8.53,8.53H366.93a8.52,8.52,0,0,0,8.53-8.53V315.73A8.53,8.53,0,0,0,366.93,307.2ZM358.4,494.93H153.6V324.27H358.4V494.93Z"/></g><path d="M366.93,307.2H145.07a8.53,8.53,0,0,0-8.53,8.53V503.47a8.53,8.53,0,0,0,8.53,8.53H366.93a8.52,8.52,0,0,0,8.53-8.53V315.73A8.53,8.53,0,0,0,366.93,307.2ZM358.4,494.93H153.6V324.27H358.4V494.93Z"/><path d="M145.07,307.2H8.53A8.53,8.53,0,0,0,0,315.73V503.47A8.53,8.53,0,0,0,8.53,512H145.07a8.53,8.53,0,0,0,8.53-8.53V315.73A8.53,8.53,0,0,0,145.07,307.2Zm-8.53,187.73H17.07V324.27H136.53V494.93Z"/><path d="M503.47,307.2H366.93a8.52,8.52,0,0,0-8.53,8.53V503.47a8.52,8.52,0,0,0,8.53,8.53H503.47a8.52,8.52,0,0,0,8.53-8.53V315.73A8.52,8.52,0,0,0,503.47,307.2Zm-8.53,187.73H375.47V324.27H494.93V494.93Z"/><path d="M332.8,375.47H179.2a8.53,8.53,0,0,0-8.53,8.53v85.33a8.53,8.53,0,0,0,8.53,8.53H332.8a8.52,8.52,0,0,0,8.53-8.53V384A8.52,8.52,0,0,0,332.8,375.47Zm-8.53,85.33H187.73V392.53H324.27V460.8Z"/><rect x="264.53" y="341.33" width="17.07" height="17.07"/><rect x="230.4" y="341.33" width="17.07" height="17.07"/><rect x="196.27" y="341.33" width="17.07" height="17.07"/><rect x="298.67" y="341.33" width="17.07" height="17.07"/><rect x="8.53" y="375.47" width="136.53" height="17.07"/><rect x="59.73" y="341.33" width="34.13" height="17.07"/><rect x="59.73" y="409.6" width="34.13" height="17.07"/><rect x="366.93" y="375.47" width="136.53" height="17.07"/><rect x="426.67" y="384" width="17.07" height="119.47"/><rect x="418.13" y="341.33" width="34.13" height="17.07"/><rect x="392.53" y="426.67" width="17.07" height="25.6"/><rect x="460.8" y="426.67" width="17.07" height="25.6"/><path d="M364.43,139,332.8,107.4V8.53A8.53,8.53,0,0,0,324.27,0H187.73a8.54,8.54,0,0,0-8.53,8.53V107.4L147.57,139a8.53,8.53,0,0,0,6,14.57H358.4a8.53,8.53,0,0,0,6-14.56Zm-190.23-2.5L193.77,117a8.51,8.51,0,0,0,2.5-6V17.07H315.73v93.87a8.51,8.51,0,0,0,2.5,6l19.57,19.57H174.2Z"/><path d="M460.8,187.73a34.17,34.17,0,0,0-34.13,34.13v8.53h17.07v-8.53a17.07,17.07,0,1,1,34.13,0v93.87h17.07V221.87A34.17,34.17,0,0,0,460.8,187.73Z"/><rect x="460.8" y="273.07" width="25.6" height="17.07"/><path d="M247.47,256H162.13a8.53,8.53,0,0,0-8.53,8.53v51.2a8.53,8.53,0,0,0,8.53,8.53h85.33a8.53,8.53,0,0,0,8.53-8.53v-51.2A8.53,8.53,0,0,0,247.47,256Zm-8.53,51.2H170.67V273.07h68.27Z"/><rect x="136.53" y="273.07" width="25.6" height="17.07"/><rect x="247.47" y="273.07" width="25.6" height="17.07"/><path d="M145.07,0H8.53A8.54,8.54,0,0,0,0,8.53v102.4a8.54,8.54,0,0,0,8.53,8.53H145.07a8.54,8.54,0,0,0,8.53-8.53V8.53A8.53,8.53,0,0,0,145.07,0Zm-8.53,102.4H17.07V17.07H136.53V102.4Z"/><rect x="102.4" y="51.2" width="17.07" height="34.13"/><path d="M503.47,0H366.93a8.53,8.53,0,0,0-8.53,8.53v102.4a8.53,8.53,0,0,0,8.53,8.53H503.47a8.53,8.53,0,0,0,8.53-8.53V8.53A8.53,8.53,0,0,0,503.47,0Zm-8.53,102.4H375.47V17.07H494.93V102.4Z"/><rect x="392.53" y="51.2" width="17.07" height="34.13"/><rect y="170.67" width="153.6" height="17.07"/><rect x="17.07" y="153.6" width="17.07" height="76.8"/><path d="M25.6,221.87a25.6,25.6,0,1,0,25.6,25.6A25.63,25.63,0,0,0,25.6,221.87Zm0,34.13a8.53,8.53,0,1,1,8.53-8.53A8.55,8.55,0,0,1,25.6,256Z"/><rect x="51.2" y="153.6" width="17.07" height="76.8"/><path d="M59.73,221.87a25.6,25.6,0,1,0,25.6,25.6A25.63,25.63,0,0,0,59.73,221.87Zm0,34.13a8.53,8.53,0,1,1,8.53-8.53A8.55,8.55,0,0,1,59.73,256Z"/><rect x="85.33" y="153.6" width="17.07" height="76.8"/><path d="M93.87,221.87a25.6,25.6,0,1,0,25.6,25.6A25.63,25.63,0,0,0,93.87,221.87Zm0,34.13a8.53,8.53,0,1,1,8.53-8.53A8.55,8.55,0,0,1,93.87,256Z"/></g></g></svg>