<svg xmlns="http://www.w3.org/2000/svg" viewBox="0 0 56 59" width="52" height="53"><title>head-3</title><g id="Слой_2" data-name="Слой 2"><g id="Capa_1" data-name="Capa 1"><path d="M55,0H1A1,1,0,0,0,0,1V58a1,1,0,0,0,1,1H55a1,1,0,0,0,1-1V1A1,1,0,0,0,55,0ZM2,2H54v8H2ZM2,57V12H54V57Z"/><path d="M9,3H5A1,1,0,0,0,4,4V8A1,1,0,0,0,5,9H9a1,1,0,0,0,1-1V4A1,1,0,0,0,9,3ZM8,7H6V5H8Z"/><path d="M16,3H12a1,1,0,0,0-1,1V8a1,1,0,0,0,1,1h4a1,1,0,0,0,1-1V4A1,1,0,0,0,16,3ZM15,7H13V5h2Z"/><path d="M52,3H28a1,1,0,0,0-1,1V8a1,1,0,0,0,1,1H52a1,1,0,0,0,1-1V4A1,1,0,0,0,52,3ZM51,7H29V5H51Z"/><path d="M50,17H6a1,1,0,0,0-1,1V53a1,1,0,0,0,1,1H50a1,1,0,0,0,1-1V18A1,1,0,0,0,50,17Zm-1,2V32H47V28a4,4,0,0,0-3-3.86V22h1a1,1,0,0,0,0-2H41a1,1,0,0,0,0,2h1v2.14A4,4,0,0,0,39,28v4H37V28a4,4,0,0,0-3-3.86V22h1a1,1,0,0,0,0-2H31a1,1,0,0,0,0,2h1v2.14A4,4,0,0,0,29,28v4H27V28a4,4,0,0,0-3-3.86V22h1a1,1,0,0,0,0-2H21a1,1,0,0,0,0,2h1v2.14A4,4,0,0,0,19,28v4H17V28a4,4,0,0,0-3-3.86V22h1a1,1,0,0,0,0-2H11a1,1,0,0,0,0,2h1v2.14A4,4,0,0,0,9,28v4H7V19Zm-6,7a2,2,0,0,1,2,2v4H41V28A2,2,0,0,1,43,26ZM33,26a2,2,0,0,1,2,2v4H31V28A2,2,0,0,1,33,26ZM23,26a2,2,0,0,1,2,2v4H21V28A2,2,0,0,1,23,26ZM13,26a2,2,0,0,1,2,2v4H11V28A2,2,0,0,1,13,26Zm2.18,12.83.36.17.54.26.3.17c.23.13.45.26.66.4l.13.08a11.07,11.07,0,0,1,2,1.82q.28.32.54.66l.11.14q.24.33.46.68l.11.18c.14.23.26.46.38.69l.11.22c.11.23.21.45.3.69l.11.29c.08.22.15.44.22.66s.07.25.1.38.1.4.14.6h0c0,.18.06.35.08.53s0,.25.05.38,0,.1,0,.14c0,.34.05.67.05,1a10.29,10.29,0,0,1-.1,1.34c0,.09,0,.18,0,.27a11.07,11.07,0,0,1-.29,1.3l0,.09H19.46A8.92,8.92,0,0,0,20,49a9,9,0,0,0-9-9,8.89,8.89,0,0,0-4,.94V38.76a10.91,10.91,0,0,1,8.18.07Zm3.07-.62-.07-.06A10.56,10.56,0,0,1,20,38a10.92,10.92,0,0,1,4.18.83l.36.17.54.26.3.17c.23.13.45.26.66.4l.13.08a11.07,11.07,0,0,1,2,1.82q.28.32.54.66l.11.14q.24.33.46.68l.11.18c.14.23.26.46.38.69l.11.22c.11.23.21.45.3.69l.11.29c.08.22.15.44.22.66s.07.25.1.38.1.4.14.6h0c0,.18.06.35.08.53s0,.25.05.38,0,.1,0,.14c0,.34.05.67.05,1a10.29,10.29,0,0,1-.1,1.34c0,.09,0,.18,0,.27a11.07,11.07,0,0,1-.29,1.3l0,.09H28.46a8.93,8.93,0,0,0-8.08-12l-.08-.08-.41-.39c-.2-.19-.39-.37-.6-.55A13,13,0,0,0,18.25,38.22Zm9,0-.07-.06A10.56,10.56,0,0,1,29,38a10.92,10.92,0,0,1,4.18.83l.37.17.54.26.3.17c.22.13.45.26.66.4l.13.08a11.07,11.07,0,0,1,2,1.82q.28.32.54.66l.11.14q.24.33.46.68l.11.18c.13.23.26.46.38.69l.11.22c.11.23.21.45.3.69l.11.29c.08.22.15.44.22.66s.07.25.1.38.1.4.14.6h0c0,.18.06.35.08.53s0,.25.05.38,0,.1,0,.14c0,.34.05.67.05,1a10.29,10.29,0,0,1-.1,1.34c0,.09,0,.18,0,.27a11.07,11.07,0,0,1-.29,1.3l0,.09H37.46a8.93,8.93,0,0,0-8.07-12l-.08-.08-.41-.39c-.2-.19-.39-.37-.6-.55A13,13,0,0,0,27.25,38.22ZM7,52V43.26A6.9,6.9,0,0,1,11,42a7,7,0,0,1,6.32,10Zm16.63,0c0-.07,0-.15,0-.22q.12-.53.2-1.06c0-.12,0-.25,0-.38A12.1,12.1,0,0,0,24,49c0-.39,0-.78-.06-1.16,0-.11,0-.22,0-.33h0c0-.07,0-.13,0-.2,0-.25-.08-.5-.12-.74l-.08-.37,0-.16c0-.14-.06-.28-.1-.42l-.07-.24c0-.16-.1-.31-.15-.47l-.12-.34c-.06-.17-.12-.34-.19-.5s-.14-.31-.22-.47-.14-.32-.22-.47-.25-.46-.38-.69l0-.07A7,7,0,0,1,27,49a6.94,6.94,0,0,1-.68,3Zm9,0c0-.07,0-.15,0-.22q.12-.53.2-1.06c0-.12,0-.25,0-.38A12.1,12.1,0,0,0,33,49c0-.39,0-.78-.06-1.16,0-.11,0-.22,0-.33h0c0-.07,0-.13,0-.2,0-.25-.08-.5-.12-.74l-.08-.37,0-.16c0-.14-.06-.28-.1-.42l-.07-.24c0-.16-.1-.31-.15-.47l-.12-.34c-.06-.17-.12-.34-.19-.5s-.14-.31-.22-.47-.14-.32-.22-.47-.25-.46-.38-.69l0-.07A7,7,0,0,1,36,49a6.94,6.94,0,0,1-.68,3Zm9,0c0-.07,0-.15,0-.22q.12-.53.2-1.06c0-.12,0-.25,0-.38A12.1,12.1,0,0,0,42,49c0-.39,0-.78-.06-1.16,0-.11,0-.22,0-.33h0c0-.07,0-.13,0-.2,0-.25-.08-.5-.12-.74l-.08-.37,0-.16c0-.14-.06-.28-.1-.42l-.07-.24c0-.16-.1-.31-.15-.47l-.12-.34c-.06-.17-.12-.34-.19-.5s-.14-.31-.22-.47-.14-.32-.22-.47-.25-.46-.38-.69l0-.07A7,7,0,0,1,45,49a6.94,6.94,0,0,1-.68,3Zm6.93,0h-2.1a8.93,8.93,0,0,0-8.07-12l-.08-.08-.4-.39c-.2-.19-.39-.37-.6-.55a13,13,0,0,0-1.05-.79l-.07-.06A10.56,10.56,0,0,1,38,38,11,11,0,0,1,49,49,10.66,10.66,0,0,1,48.56,52ZM38,36a12.8,12.8,0,0,0-4.47.83,12.6,12.6,0,0,0-9,0,12.6,12.6,0,0,0-9,0A12.77,12.77,0,0,0,7,36.64V34H49v8.1A13,13,0,0,0,38,36Z"/></g></g></svg>