<svg xmlns="http://www.w3.org/2000/svg" width="48" height="48" viewBox="0 0 512 512"><title>head-4</title><g id="Слой_2" data-name="Слой 2"><g id="Layer_1" data-name="Layer 1"><path d="M503.2,444.13,390.89,331.81l7.11-19a9.64,9.64,0,0,0-2.21-10.2L379,285.88a9.64,9.64,0,0,0-13.64,0l-21.05,21.05-44-44,97.59-97.58a85.75,85.75,0,0,1,34.29-20.77,74.57,74.57,0,0,0,29.74-18.18,74.41,74.41,0,0,0-1.73-106.9,9.64,9.64,0,0,0-15.8,4.16L432.19,62.84a19,19,0,1,1-36.26-11.32L408,12.78A9.64,9.64,0,0,0,397.26.39a73.75,73.75,0,0,0-37,17.41A74.58,74.58,0,0,0,335.39,82c2.76,24.79-6.07,49.43-24.24,67.6l-62,62-134-134-2.43-26.27a9.64,9.64,0,0,0-4.48-7.28L40.15,1.47A9.64,9.64,0,0,0,28.21,2.82L2.82,28.21A9.64,9.64,0,0,0,1.47,40.15l42.7,68.09a9.64,9.64,0,0,0,7.28,4.48l26.27,2.43,134,134-97.59,97.57a85.81,85.81,0,0,1-34.3,20.77,74.4,74.4,0,0,0-28,125.09,9.64,9.64,0,0,0,15.8-4.15l12.24-39.19a19,19,0,0,1,23.42-12.6l.37.13a19,19,0,0,1,12.47,23.79L104,499.24a9.64,9.64,0,0,0,10.75,12.39A74.25,74.25,0,0,0,176.64,430c-2.77-24.77,6.06-49.41,24.24-67.59l62-62,44,44L285.88,365.4a9.64,9.64,0,0,0,0,13.64l16.76,16.76a9.65,9.65,0,0,0,10.2,2.21l19-7.11L444.13,503.2a30.12,30.12,0,0,0,42.55,0l16.52-16.52A30.13,30.13,0,0,0,503.2,444.13ZM324.78,163.28c22.34-22.34,33.19-52.72,29.77-83.37A55.29,55.29,0,0,1,373,32.27a54,54,0,0,1,11-7.52l-6.56,21a38.28,38.28,0,1,0,73.08,22.8l6.81-21.84a55.14,55.14,0,0,1-31.11,79.47,105.09,105.09,0,0,0-42,25.5L286.7,249.28l-24-24ZM187.25,348.73c-22.35,22.35-33.2,52.74-29.77,83.37A55.37,55.37,0,0,1,139,479.74,54.23,54.23,0,0,1,128,487.25l6.56-21a38.33,38.33,0,0,0-24.62-47.77l-.53-.18a38.28,38.28,0,0,0-47.93,25.15l-6.82,21.84a55.16,55.16,0,0,1,31.1-79.49,105.16,105.16,0,0,0,42-25.49l97.59-97.57,24,24ZM87.93,98.08a9.65,9.65,0,0,0-10-2.28L58,94,21.89,36.41,36.41,21.89,94,58l1.84,20a9.64,9.64,0,0,0,2.28,10L330.71,320.57l-10.14,10.15Zm241,273.31-17,6.38-5.55-5.55,65.89-65.89,5.55,5.55-6.38,17ZM489.57,473,473,489.56a10.82,10.82,0,0,1-15.28,0L347.88,379.68l31.81-31.81L489.57,457.76A10.82,10.82,0,0,1,489.57,473Z"/></g></g></svg>