<svg xmlns="http://www.w3.org/2000/svg" width="55" height="55" viewBox="0 0 512 512"><title>head-2</title><g id="Слой_2" data-name="Слой 2"><g id="Layer_1" data-name="Layer 1"><path d="M503.47,0H162.13a8.53,8.53,0,0,0-8.53,8.53V221.87H136.53A8.53,8.53,0,0,0,128,230.4v42.67H85.33V230.4a8.53,8.53,0,0,0-8.53-8.53H25.6a8.53,8.53,0,0,0-8.53,8.53v42.67H8.53A8.53,8.53,0,0,0,0,281.6V384a8.53,8.53,0,0,0,8.53,8.53H25.6v102.4H8.53a8.53,8.53,0,0,0,0,17.07H503.47a8.53,8.53,0,0,0,0-17.07H486.4V392.53h17.07A8.53,8.53,0,0,0,512,384V8.53A8.53,8.53,0,0,0,503.47,0Zm-8.53,273.07H341.33v-256h153.6Zm-324.27-256h153.6v256H307.2V230.4a8.53,8.53,0,0,0-8.53-8.53h-51.2a8.53,8.53,0,0,0-8.53,8.53v42.67H196.27V230.4a8.53,8.53,0,0,0-8.53-8.53H170.67V17.07Zm119.47,256H256V238.93h34.13ZM145.07,238.93H179.2v34.13H145.07Zm-110.93,0H68.27v34.13H34.13Zm8.53,256V392.53H76.8v102.4Zm375.47-102.4v102.4H93.87V392.53Zm51.2,102.4H435.2V392.53h34.13Zm25.6-119.47H17.07V290.13H494.93v85.33Z"/><path d="M366.93,119.47h102.4a8.53,8.53,0,0,0,8.53-8.53V42.67a8.53,8.53,0,0,0-8.53-8.53H366.93a8.53,8.53,0,0,0-8.53,8.53v68.27A8.53,8.53,0,0,0,366.93,119.47Zm8.53-68.27H460.8v51.2H375.47V51.2Z"/><path d="M204.8,179.2h85.33a8.53,8.53,0,0,0,8.53-8.53V102.4a8.53,8.53,0,0,0-8.53-8.53H204.8a8.53,8.53,0,0,0-8.53,8.53v68.27A8.53,8.53,0,0,0,204.8,179.2Zm8.53-68.27H281.6v51.2H213.33v-51.2Z"/><path d="M366.93,179.2a8.53,8.53,0,0,0,8.53-8.53v-25.6a8.53,8.53,0,1,0-17.07,0v25.6A8.53,8.53,0,0,0,366.93,179.2Z"/><path d="M469.33,136.53a8.53,8.53,0,0,0-8.53,8.53v25.6a8.53,8.53,0,1,0,17.07,0v-25.6A8.53,8.53,0,0,0,469.33,136.53Z"/><path d="M435.2,179.2a8.53,8.53,0,0,0,8.53-8.53v-25.6a8.53,8.53,0,1,0-17.07,0v25.6A8.53,8.53,0,0,0,435.2,179.2Z"/><path d="M401.07,136.53a8.53,8.53,0,0,0-8.53,8.53v25.6a8.53,8.53,0,1,0,17.07,0v-25.6A8.53,8.53,0,0,0,401.07,136.53Z"/><path d="M366.93,247.47h34.13a8.53,8.53,0,0,0,8.53-8.53V204.8a8.53,8.53,0,0,0-8.53-8.53H366.93a8.53,8.53,0,0,0-8.53,8.53v34.13A8.53,8.53,0,0,0,366.93,247.47Zm8.53-34.13h17.07V230.4H375.47Z"/><path d="M469.33,196.27H435.2a8.53,8.53,0,0,0-8.53,8.53v34.13a8.53,8.53,0,0,0,8.53,8.53h34.13a8.53,8.53,0,0,0,8.53-8.53V204.8A8.53,8.53,0,0,0,469.33,196.27ZM460.8,230.4H443.73V213.33H460.8Z"/><path d="M85.33,307.2a25.6,25.6,0,1,0,25.6,25.6A25.6,25.6,0,0,0,85.33,307.2Zm0,34.13a8.53,8.53,0,1,1,8.53-8.53A8.53,8.53,0,0,1,85.33,341.33Z"/><path d="M153.6,307.2a25.6,25.6,0,1,0,25.6,25.6A25.6,25.6,0,0,0,153.6,307.2Zm0,34.13a8.53,8.53,0,1,1,8.53-8.53A8.53,8.53,0,0,1,153.6,341.33Z"/><path d="M221.87,307.2a25.6,25.6,0,1,0,25.6,25.6A25.6,25.6,0,0,0,221.87,307.2Zm0,34.13a8.53,8.53,0,1,1,8.53-8.53A8.53,8.53,0,0,1,221.87,341.33Z"/><path d="M290.13,307.2a25.6,25.6,0,1,0,25.6,25.6A25.6,25.6,0,0,0,290.13,307.2Zm0,34.13a8.53,8.53,0,1,1,8.53-8.53A8.53,8.53,0,0,1,290.13,341.33Z"/><path d="M358.4,358.4a25.6,25.6,0,1,0-25.6-25.6A25.6,25.6,0,0,0,358.4,358.4Zm0-34.13a8.53,8.53,0,1,1-8.53,8.53A8.53,8.53,0,0,1,358.4,324.27Z"/><path d="M426.67,358.4a25.6,25.6,0,1,0-25.6-25.6A25.6,25.6,0,0,0,426.67,358.4Zm0-34.13a8.53,8.53,0,1,1-8.53,8.53A8.53,8.53,0,0,1,426.67,324.27Z"/></g></g></svg>