<svg xmlns="http://www.w3.org/2000/svg" width="44" height="44" viewBox="0 0 511.97 511.98"><title>work-3</title><g id="Слой_2" data-name="Слой 2"><g id="Capa_1" data-name="Capa 1"><path d="M512,46.34a46.76,46.76,0,0,0-12.8-32.26A45.74,45.74,0,0,0,466.31,0a50.6,50.6,0,0,0-35.67,14.42l-40,39.94L338.82,2.48A8.52,8.52,0,0,0,336.35.77h-.77a8.51,8.51,0,0,0-2.3-.77H111.41A43.35,43.35,0,0,0,68.23,43.26V371.46l-5.38,5.29a8.54,8.54,0,0,0-1.11,1.62s-.43,0-.6.68L.9,499.63a8.53,8.53,0,0,0,11.95,11.18l66.82-38.66a43.27,43.27,0,0,0,31.83,14.25H399.24a43.26,43.26,0,0,0,43.26-43.18l1.2-195.76V158.21l21.42-21.68a25.46,25.46,0,0,0,4.86-29.1l28.16-28.25A46.51,46.51,0,0,0,512,46.34ZM341.3,29.1,379,66.39l-29.18,29a26.11,26.11,0,0,1-8.53-19.2V29.1ZM85.3,43.26a26.2,26.2,0,0,1,26.2-26.2H324.23V76.2a43.18,43.18,0,0,0,13.31,31.15l-90.71,88.92H119.43a8.53,8.53,0,0,0,0,17.07H229.51L212.44,230.4h-93a8.53,8.53,0,0,0,0,17.07h75.26l-17.07,17.07h-58.2a8.53,8.53,0,1,0,0,17.07h40.45l-17.07,17.07H119.43a8.53,8.53,0,1,0,0,17.07h5.63l-39.76,39Zm0,335.36,66.65-65.36L350.34,118.7l30.21,30.21-78.34,78.42a8.53,8.53,0,0,0,0,12l6,6-57.26,55.72L123.27,425.13l-38-38Zm247-157.35,12.12,12.12L332.34,245.5l-12.12-12.12ZM28.89,481.79l42.24-84.57,38.14,38ZM426.63,247.47l-1.2,195.76a26.2,26.2,0,0,1-26.2,26.11H111.49a26.2,26.2,0,0,1-17.07-6L127,444.5a8.57,8.57,0,0,0,1.71-1.28l131.5-127.49H384a8.53,8.53,0,1,0,0-17.07H277.81l42.67-41.22,6.14,6.14a6.83,6.83,0,0,0,4.69,2.22h1.28a8.52,8.52,0,0,0,2.39-.43h.85a8.53,8.53,0,0,0,2.82-1.88l88-88.24v72.19ZM453,124.62l-.14.14.08.17-23.81,23.81-72.7,72.7-12.12-12.12L398.64,155l35.5-35.5h1a8.67,8.67,0,0,0,8.53-8.53,8.53,8.53,0,0,1,2.82-.51h.77a8.53,8.53,0,0,1,2.3.43h.68A8.5,8.5,0,0,1,453,124.62Zm41.93-78.2a29.44,29.44,0,0,1-8.53,21L458.29,95.57h-.94L456,95.06l-3.07-.85h-1.36a25.71,25.71,0,0,0-3.92,0h-.51a25.68,25.68,0,0,0-4.44,0h-1.2l-3.16.94-1.36.6-2.9,1.54-1.2.77a25.54,25.54,0,0,0-3.67,3l-2.56,1.36-2.3,2.3L392.5,136.53l-30-29.87,34.13-34.13,45.74-45.74a32.08,32.08,0,0,1,23.72-9.73,28.76,28.76,0,0,1,20.31,8.53,29.69,29.69,0,0,1,8.53,20.48v.34Z"/></g></g></svg>