<svg xmlns="http://www.w3.org/2000/svg" width="47" height="49" viewBox="0 0 380.8 394.4"><title>work-1</title><g id="Слой_2" data-name="Слой 2"><g id="Capa_1" data-name="Capa 1"><path d="M118.4,51.2C96,51.2,78.4,64,78.4,80s17.6,28.8,40,28.8,40-12.8,40-28.8S140.8,51.2,118.4,51.2Zm0,41.6c-13.6,0-24-7.2-24-12.8,0-6.4,10.4-12.8,24-12.8s24,7.2,24,12.8C142.4,86.4,132,92.8,118.4,92.8Z"/><path d="M340.8,144h-104V80c0-44-52.8-80-118.4-80S0,36,0,80V243.2c0,36,36,68,87.2,77.6v65.6a7.56,7.56,0,0,0,8,8H340.8a39.61,39.61,0,0,0,40-40V184A39.61,39.61,0,0,0,340.8,144ZM118.4,16c56.8,0,102.4,28.8,102.4,64s-45.6,64-102.4,64S16,115.2,16,80,61.6,16,118.4,16ZM220.8,120v24h-32C201.6,137.6,212.8,129.6,220.8,120ZM87.2,216v88C45.6,295.2,16,271.2,16,243.2V120c20.8,24,58.4,40,102.4,40H340.8a24,24,0,0,1,0,48H95.2A7.56,7.56,0,0,0,87.2,216ZM366.4,353.6h-1.6a23.57,23.57,0,0,1-24,24h-9.6V340.8a8,8,0,0,0-16,0v36.8H285.6V340.8a8,8,0,0,0-16,0v36.8H240V340.8a8,8,0,0,0-16,0v36.8H194.4V340.8a8,8,0,0,0-16,0v36.8H148.8V340.8a8,8,0,0,0-16,0v36.8h-28V316a2.79,2.79,0,0,1,.8-1.6,7.21,7.21,0,0,0-.8-4V224H342.4a41.13,41.13,0,0,0,24-8V353.6Z"/></g></g></svg>