<?xml version="1.0" encoding="UTF-8" standalone="no"?>
<svg
   xmlns:dc="http://purl.org/dc/elements/1.1/"
   xmlns:cc="http://creativecommons.org/ns#"
   xmlns:rdf="http://www.w3.org/1999/02/22-rdf-syntax-ns#"
   xmlns:svg="http://www.w3.org/2000/svg"
   xmlns="http://www.w3.org/2000/svg"
   viewBox="0 0 737.33331 250.66667"
   height="92"
   width="271"
   xml:space="preserve"
   id="svg2"
   version="1.1"><metadata
     id="metadata8"><rdf:RDF><cc:Work
         rdf:about=""><dc:format>image/svg+xml</dc:format><dc:type
           rdf:resource="http://purl.org/dc/dcmitype/StillImage" /></cc:Work></rdf:RDF></metadata><defs
     id="defs6" /><g
     transform="matrix(1.3333333,0,0,-1.3333333,0,250.66667)"
     id="g10"><g
       transform="scale(0.1)"
       id="g12"><path
         id="path14"
         style="fill:#fff;fill-opacity:1;fill-rule:evenodd;stroke:none"
         d="m 1192.05,1219.02 c 26.18,47.62 156.99,314.69 156.09,445.71 C 1344.86,2141.59 4.42188,1294.31 4.42188,623.289 4.42188,320.824 136.305,190.09 316.973,190.09 c 313.504,0 650.523,232.535 933.667,688.558 0,0 -59.99,-366.945 154.84,-366.945 214.83,0 281.79,192.574 281.79,192.574 0,0 28.6,-152.089 110.9,-152.089 82.3,0 224.39,131.164 224.39,131.164 0,0 48.92,-99.649 157.73,-99.649 79.41,0 163.17,79.102 203.61,126.715 2.64,3.109 -33.81,-106.984 -21.81,-108.043 223.59,-19.691 190.09,62.914 240.37,228.844 55.79,184.131 61.38,214.821 61.38,214.821 0,0 196.59,125.56 182.64,-11.15 -13.95,-136.714 -121.8,-382.23 28.86,-382.23 150.66,0 200.87,46.309 266.44,96.528 0,0 55.08,-70.598 150.13,-70.598 149.92,0 258.79,67.926 354,155.418 21.34,-42.676 84.7,-87.863 139.57,-87.863 119.28,0 212.93,65.585 259.4,135.293 0,0 -5.58,-78.122 75.33,-72.54 80.9,5.579 147.86,47.43 189.72,83.7 22.77,-70.582 105.94,-90.168 162.27,-90.168 134.83,0 217.33,90.488 247.85,151.543 0,0 23.14,-100.438 115.21,-100.438 92.07,0 235.63,101.137 309.57,201.575 54.4,-8.37 189.02,-39.75 189.02,-170.883 0,-237.153 -713.9,-309.688 -1869.28,-309.688 -1133.44,0 -2431.46,-445.043 -2618.648,-507.3359 -14.484,-4.8203 -3.926,-22.7617 -3.926,-22.7617 0,0 664.014,72.5386 982.074,27.9024 C 2142.12,27.7031 2153.28,5.38281 2153.28,5.38281 3447.21,655.164 5526.36,321.543 5526.36,906.547 c 0,237.143 -254.16,288.753 -294.62,298.523 41.85,64.17 75.44,200.88 -58.47,200.88 -206.14,0 -262.08,-201.07 -98.89,-326.43 -39.33,-53.21 -113.54,-108.508 -176.07,-103.895 -158.62,11.703 14.95,429.805 47.73,500.075 30.56,65.48 110.06,232.34 134.37,268.56 106.38,158.44 4.73,102.06 -101.12,103.22 -67.26,0.73 -213.4,-402.2 -245.28,-532.21 -7.68,11.16 -46.44,75.88 -128.78,75.88 -269.07,0 -325.46,-365.76 -309.28,-436.056 -19.49,-16.051 -51.55,-66.223 -131.72,-66.223 -46.35,0 57.77,283.189 70.37,319.539 0,0 -113.92,20.7 -143.68,-8.37 -89.74,-87.65 -52.17,-332.466 -216.58,-332.466 -39.3,0 -65.84,41.578 -65.84,114.395 0,121.201 100.63,299.891 223.02,299.891 53.6,0 39.68,-28.9 143.88,-31.16 128.33,-2.79 -24.5,103.63 -136.1,103.63 -244.78,0 -401.75,-247.1 -401.75,-456.857 -32.78,-32.785 -159.94,-127.364 -244.34,-127.364 -84.39,0 -99.82,56.868 -102.61,81.278 13.95,1.394 319.79,171.173 319.79,354.023 0,81.09 -48.46,125.38 -128.1,125.38 -220.54,0 -361.36,-251.5 -361.36,-507.95 -34.88,-44.637 -56.22,-79.074 -124.57,-79.074 -68.35,0 -3.28,214.402 32.97,339.944 33.1,114.58 -90.67,185.63 -337.43,58.55 -4.59,-2.36 47.28,206.49 47.28,206.49 277.53,-28.94 454.54,223.15 454.54,351.92 0,160.1 -142.1,172.22 -231.34,172.22 -329.41,0 -442.93,-746.6 -545.48,-1007.734 -19.64,-50.015 -99.32,-163.359 -168.87,-163.359 -129.19,0 83.87,585.833 120.5,658.113 h 147.87 l 23.71,66.96 -145.07,2.79 161.87,400.76 c 13.76,34.08 -4.94,44.62 -39.54,44.62 -55.48,0 -145.43,-30.58 -162.72,-54.79 -55.79,-78.11 -135.42,-381.61 -135.42,-381.61 -440.07,-13.74 -725.49,173.9 -801.53,-53.01 -6.52,-19.44 24.06,-12.67 42.47,-12.78 l 729.81,-4.57 c -17.68,-85.26 -111.3,-343.55 -167.41,-591.475 -328.21,-381.75 -81.08,404.545 -77.63,475.185 0.92,18.9 -14.4,11.12 -98.38,11.12 -69.32,0 -127.91,-26.33 -189.37,-362.801 -40.38,-221.071 -224.58,-381.219 -224.58,-186.856 0,510.887 251.71,541.427 5.93,534.477 -38.2,-1.09 -74.68,-7.79 -87.45,-27.52 -30.68,-47.43 -457.477,-836.996 -838.309,-836.996 -143.156,0 -212.234,142.508 -212.234,291.438 0,568.858 832.513,1085.208 832.513,947.998 0,-111.49 -207.455,-381.91 -207.455,-430.2 0,-16.18 20.653,-20.15 86.185,-20.15 161.58,0 175.46,37.79 180.26,46.52 z m 1561.08,198.09 c 28.25,113.34 110.78,355 220.32,355 171.75,0 41.18,-355 -220.32,-355 z m 527,-518.95 c 108.81,75.328 180.7,192.57 180.7,272.09 0,38.37 -3.74,55.33 -21.65,55.33 -90.88,0 -155.86,-140.73 -159.05,-327.42 z m 1882.14,333.4 c -71.28,37.85 -42.02,102.67 -0.6,102.67 33.21,0 39.42,-57.54 0.6,-102.67 z m -446.39,-1.39 c 0,0 -43.94,78.8 -92.65,78.32 -175.76,-1.72 -234.66,-392.252 -92.02,-392.252 80.63,0 159.91,102.012 184.67,313.932" /><path
         id="path16"
         style="fill:#fff;fill-opacity:1;fill-rule:nonzero;stroke:none"
         d="m 3306.16,1487.97 h 70.03 c 15.46,0 29.56,17.3 29.56,35.6 v 139.84 c 0,8.14 -6.37,16.78 -15.01,21.87 8.64,4.57 15.01,13.72 15.01,21.86 v 108.82 c 0,18.31 -14.12,35.6 -29.56,35.6 h -70.03 z m 33.64,26.96 v 157.12 h 25.93 c 3.18,0 6.37,-3.58 6.37,-7.12 v -142.88 c 0,-3.54 -3.21,-7.12 -6.37,-7.12 z m 0,183.57 v 126.11 h 25.93 c 3.18,0 6.37,-3.59 6.37,-7.12 v -111.88 c 0,-3.53 -3.21,-7.11 -6.37,-7.11 z m 107.26,-210.53 h 30.92 l 5.92,69.16 h 42.29 l 5.91,-69.16 h 31.38 l -35.93,363.59 h -44.56 z m 39.57,99.67 17.27,204.93 h 1.82 l 17.74,-204.93 z m 118.16,-99.67 h 33.66 v 163.74 h 25.91 c 3.19,-0.5 6.37,-4.07 6.37,-7.11 v -156.63 h 33.65 v 155.1 c 0,8.14 -6.36,16.78 -15,21.86 8.64,4.58 15,13.74 15,21.87 v 129.16 c 0,18.31 -14.09,35.6 -29.56,35.6 h -70.03 z m 33.66,190.19 v 146.45 h 25.91 c 3.19,0 6.37,-3.56 6.37,-7.12 v -132.21 c 0,-3.05 -3.18,-7.12 -6.37,-7.12 z m 114.52,-190.19 H 3823 c 15.47,0 29.57,17.3 29.57,35.6 v 139.84 c 0,8.14 -6.37,16.78 -15.01,21.87 8.64,4.57 15.01,13.72 15.01,21.86 v 108.82 c 0,18.31 -14.11,35.6 -29.57,35.6 h -70.03 z m 33.66,26.96 v 157.12 h 25.92 c 3.18,0 6.36,-3.57 6.36,-7.12 v -142.88 c 0,-3.55 -3.19,-7.12 -6.36,-7.12 z m 0,183.57 v 126.11 h 25.92 c 3.18,0 6.36,-3.58 6.36,-7.12 v -111.88 c 0,-3.54 -3.19,-7.11 -6.36,-7.11 z m 115.64,-210.53 h 85.94 v 32.04 h -52.3 v 149.5 h 43.21 v 31.02 h -43.21 v 118.99 h 52.3 v 32.04 h -85.94 z m 132.26,0 h 33.65 v 163.74 h 25.92 c 3.22,0 6.37,-4.1 6.37,-7.11 v -156.63 h 33.65 v 155.1 c 0,8.14 -6.36,16.78 -15,21.86 8.64,4.58 15,13.74 15,21.87 v 129.16 c 0,18.31 -14.14,35.6 -29.56,35.6 h -70.03 z m 33.65,190.19 v 146.45 h 25.92 c 3.19,0 6.37,-3.61 6.37,-7.12 v -132.21 c 0,-3.01 -3.22,-7.12 -6.37,-7.12 z m 114.53,-150.52 c 0,-20.28 13.65,-39.67 37.74,-39.67 h 22.29 c 25.01,0 40.02,20.35 40.02,45.77 v 93.06 c 0,25.93 -10.22,38.36 -23.65,48.31 l -36.38,26.95 c -4.06,3.01 -6.37,7.12 -6.37,12.2 v 102.72 c 0,3.6 3.19,6.61 6.82,6.61 h 19.11 c 3.18,0 6.36,-3.61 6.36,-7.12 v -93.06 h 34.11 v 87.47 c 0,20.85 -14.15,40.68 -37.74,40.68 h -22.29 c -24.96,0 -40.02,-20.4 -40.02,-46.78 v -87.47 c 0,-19.27 7.35,-35.68 22.74,-47.29 l 37.75,-28.48 c 3.55,-2.68 5.45,-7.68 5.45,-11.69 v -108.82 c 0,-2.54 -2.32,-5.6 -5.45,-5.6 h -20.93 c -3.13,0 -5.91,3.56 -5.91,7.12 v 95.6 h -33.65 z m 148.64,-39.67 H 4365 v 185.1 h 32.29 v -185.1 h 33.65 v 363.59 h -33.65 V 1699.52 H 4365 v 152.04 h -33.65 z m 148.18,33.57 c 0,-17.21 14.55,-33.57 29.1,-33.57 h 43.21 c 14.09,0 27.28,16.28 27.28,33.57 V 1818 c 0,17.29 -13.26,33.56 -27.28,33.56 h -43.21 c -14.48,0 -29.1,-16.36 -29.1,-33.56 z m 40.02,-6.61 c -3.57,0 -6.37,3.55 -6.37,7.12 v 296.96 c 0,3.56 2.73,7.12 6.37,7.12 h 19.55 c 3.19,0 6.37,-3.64 6.37,-7.12 v -296.96 c 0,-3.48 -3.26,-7.12 -6.37,-7.12 z m 107.05,-26.96 h 33.65 v 137.81 h 36.84 c 15,0 29.1,17.29 29.1,35.6 v 154.58 c 0,18.31 -14.18,35.6 -29.56,35.6 h -70.03 z m 33.65,164.76 v 171.88 h 25.92 c 3.19,0 6.37,-3.66 6.37,-7.12 v -157.64 c 0,-3.46 -3.27,-7.12 -6.37,-7.12 h -25.92" /></g></g></svg>
