<?xml version="1.0" encoding="utf-8"?><svg xmlns="http://www.w3.org/2000/svg" xmlns:xlink="http://www.w3.org/1999/xlink"><symbol viewBox="0 0 344.96 344.96" id="check" xmlns="http://www.w3.org/2000/svg"><defs><style>.acls-1{fill:#e75713}</style></defs><g id="aСлой_2" data-name="Слой 2"><path class="acls-1" d="M321.85 86.24l-40-23.11-23.1-40H212.5L172.48 0l-40 23.11H86.24l-23.11 40-40 23.1v46.21L0 172.48l23.11 40v46.21l40 23.11 23.11 40h46.21l40 23.1 40-23.11h46.21l23.11-40 40-23.11V212.5l23.11-40-23.11-40V86.24zM156.91 243.07a16.79 16.79 0 0 1-23.34 0l-50.45-50.44a16.19 16.19 0 0 1 0-22.89l13.35-13.35a16.19 16.19 0 0 1 22.89 0l25.87 25.87 80.34-80.35a16.19 16.19 0 0 1 22.89 0l13.35 13.35a16.19 16.19 0 0 1 0 22.89z" id="aCapa_1" data-name="Capa 1"/></g></symbol><symbol viewBox="0 0 23 19" id="envelope" xmlns="http://www.w3.org/2000/svg"><defs><path id="ba" d="M1114.98 36.74v17.54c0 .4-.32.73-.72.73h-21.54a.73.73 0 0 1-.72-.73V36.72c0-.18.07-.37.2-.51a.7.7 0 0 1 .62-.2h21.34a.7.7 0 0 1 .61.2.72.72 0 0 1 .2.53zm-21.54 16.08c0 .4.32.73.71.73h18.67c.4 0 .72-.33.72-.73v-14.6l-9.47 7.72a.7.7 0 0 1-.58.3.7.7 0 0 1-.59-.3l-9.46-7.72zm1.31-15.35l8.74 7.12 8.74-7.12z"/></defs><use xlink:href="#ba" transform="translate(-1092 -36)"/></symbol></svg>