<svg xmlns="http://www.w3.org/2000/svg" xmlns:xlink="http://www.w3.org/1999/xlink" width="14" height="16" viewBox="0 0 14 16"><defs><path id="o9tja" d="M777.662 615.666a.334.334 0 1 0 .67 0c0-.392.139-.773.391-1.073a6.878 6.878 0 0 0 1.25-2.147.335.335 0 0 0-.315-.446h-3.323a.335.335 0 0 0-.316.446 6.89 6.89 0 0 0 1.25 2.147c.253.3.392.681.393 1.073z"/><path id="o9tjb" d="M778.14 618.345a.345.345 0 0 0-.69 0c0 .498-.298.99-.838 1.39-1.154.852-2.018 1.778-2.567 2.75a.343.343 0 0 0 .3.514h6.9a.345.345 0 0 0 .3-.513c-.55-.973-1.414-1.9-2.568-2.752-.54-.399-.837-.891-.838-1.39z"/><path id="o9tjc" d="M773.352 622.233c.268-2.502 1.896-4.428 3.112-5.868l.065-.077a.71.71 0 0 0 0-.917l-.065-.077c-1.216-1.44-2.844-3.366-3.112-5.868h9.182c-.268 2.502-1.896 4.428-3.112 5.868l-.065.077a.71.71 0 0 0 0 .917l.065.077c1.216 1.44 2.844 3.366 3.112 5.868zm10.822.01h-.213c-.245-2.771-1.868-4.898-3.129-6.41 1.262-1.51 2.884-3.638 3.13-6.409h.212a.712.712 0 0 0 0-1.424h-12.462a.712.712 0 0 0 0 1.424h.213c.245 2.772 1.867 4.9 3.129 6.41-1.262 1.51-2.884 3.638-3.13 6.409h-.212a.712.712 0 1 0 0 1.424H784.174a.712.712 0 1 0 0-1.424z"/></defs><g><g transform="translate(-771 -608)"><g><use fill="#848e99" xlink:href="#o9tja"/></g><g><use fill="#848e99" xlink:href="#o9tjb"/></g><g><use fill="#848e99" xlink:href="#o9tjc"/></g></g></g></svg>