<?xml version="1.0" encoding="utf-8"?><svg xmlns="http://www.w3.org/2000/svg" xmlns:xlink="http://www.w3.org/1999/xlink"><symbol viewBox="0 0 25.89 21" id="basket" xmlns="http://www.w3.org/2000/svg"><defs><style>.acls-2{fill:#fff}</style></defs><g id="aСлой_2" data-name="Слой 2"><g id="aСлой_1-2" data-name="Слой 1"><path id="arjsla" d="M0 1h6l4.12 12.85h11.53l2.9-9.53H6.85" fill-opacity="0" stroke-miterlimit="50" stroke-width="2"/><path id="arjslb" class="acls-2" d="M8.7 19.42A1.63 1.63 0 1 1 10.33 21a1.61 1.61 0 0 1-1.63-1.58z"/><path id="arjslc" class="acls-2" d="M18.48 19.42A1.63 1.63 0 1 1 20.11 21a1.61 1.61 0 0 1-1.63-1.58z"/></g></g></symbol><symbol viewBox="0 0 344.96 344.96" id="check" xmlns="http://www.w3.org/2000/svg"><g data-name="Слой 2"><path d="M321.85 86.24l-40-23.11-23.1-40H212.5L172.48 0l-40 23.11H86.24l-23.11 40-40 23.1v46.21L0 172.48l23.11 40v46.21l40 23.11 23.11 40h46.21l40 23.1 40-23.11h46.21l23.11-40 40-23.11V212.5l23.11-40-23.11-40V86.24zM156.91 243.07a16.79 16.79 0 0 1-23.34 0l-50.45-50.44a16.19 16.19 0 0 1 0-22.89l13.35-13.35a16.19 16.19 0 0 1 22.89 0l25.87 25.87 80.34-80.35a16.19 16.19 0 0 1 22.89 0l13.35 13.35a16.19 16.19 0 0 1 0 22.89z" data-name="Capa 1"/></g></symbol><symbol viewBox="0 0 24 24" id="phone" xmlns="http://www.w3.org/2000/svg"><path d="M15.599 12.853a2.003 2.003 0 0 1 2.83.002l2.827 2.826a2 2 0 0 1 0 2.828l-2.83 2.831a1 1 0 0 1-.952.263c-.199-.05-.547-.15-1.015-.304a26.651 26.651 0 0 1-2.467-.952c-2.474-1.095-4.725-2.516-6.526-4.309-1.807-1.8-3.233-4.06-4.327-6.545-.38-.861-.692-1.69-.942-2.458-.151-.465-.25-.812-.299-1.01a1 1 0 0 1 .264-.948l2.83-2.831a2.002 2.002 0 0 1 2.831.002l2.826 2.826a2 2 0 0 1 0 2.829l-.944.944c.493 1.094 1.195 2.142 2.002 2.946.734.732 1.588 1.282 2.979 1.973l.913-.913zm1.417 1.416c-.001-.001-.474.47-1.42 1.414a1 1 0 0 1-1.136.196c-1.97-.936-3.12-1.626-4.165-2.67-1.16-1.155-2.118-2.685-2.705-4.244a1 1 0 0 1 .229-1.06l1.416-1.417L6.41 3.662s-.807.804-2.418 2.414l.108.34c.23.707.519 1.474.87 2.27 1.002 2.276 2.3 4.332 3.909 5.935 1.606 1.6 3.657 2.893 5.924 3.898a24.661 24.661 0 0 0 2.626.99l2.414-2.414-2.826-2.826z"/></symbol><symbol viewBox="0 0 20 21" id="search" xmlns="http://www.w3.org/2000/svg"><g transform="translate(1 1)" stroke-width="2" fill-rule="evenodd"><circle cx="8" cy="8" r="8"/><path d="M13.5 14.5l4.243 4.243" stroke-linecap="round" stroke-linejoin="round"/></g></symbol><symbol viewBox="0 0 14 13" id="star" xmlns="http://www.w3.org/2000/svg"><defs><path id="ea" d="M570 861.5l-4.114 2.163.785-4.581-3.328-3.245 4.6-.669L570 851l2.057 4.168 4.6.669-3.328 3.245.785 4.581z"/><clipPath id="eb"><use xlink:href="#ea"/></clipPath></defs><use fill-opacity="0" stroke-miterlimit="50" stroke-width="4" clip-path="url(#eb)" xlink:href="#ea" transform="translate(-563 -851)"/></symbol><symbol viewBox="0 0 14 13" id="star-active" xmlns="http://www.w3.org/2000/svg"><defs><path id="fa" d="M538 861.5l-4.114 2.163.785-4.581-3.328-3.245 4.6-.669L538 851l2.057 4.168 4.6.669-3.328 3.245.785 4.581z"/></defs><use xlink:href="#fa" transform="translate(-531 -851)"/></symbol><symbol viewBox="0 0 18 17" id="user" xmlns="http://www.w3.org/2000/svg"><g transform="translate(1 1)" stroke-width="2" fill-rule="evenodd"><circle cx="8" cy="4" r="4"/><path d="M16 16a8 8 0 1 0-16 0"/></g></symbol><symbol viewBox="0 0 31 32" id="why-1" xmlns="http://www.w3.org/2000/svg"><defs><path id="ha" d="M424.274 1723.893l-2.392 1.27a2.76 2.76 0 0 0-1.435 1.974l-.468 2.666a.937.937 0 0 1-1.058.768l-2.681-.379a2.762 2.762 0 0 0-2.322.754l-1.946 1.882a.937.937 0 0 1-1.308 0l-1.946-1.882a2.76 2.76 0 0 0-2.322-.754l-2.681.38a.937.937 0 0 1-1.058-.77l-.468-2.666a2.76 2.76 0 0 0-1.435-1.974l-2.392-1.269a.936.936 0 0 1-.405-1.243l1.19-2.432a2.76 2.76 0 0 0 0-2.44l-1.19-2.432a.936.936 0 0 1 .405-1.244l2.392-1.268a2.761 2.761 0 0 0 1.435-1.975l.468-2.666a.936.936 0 0 1 1.057-.768l2.682.379a2.762 2.762 0 0 0 2.322-.754l1.946-1.882a.937.937 0 0 1 1.308 0l1.946 1.882c.62.6 1.467.875 2.322.754l2.681-.38a.937.937 0 0 1 1.058.769l.468 2.666c.15.85.672 1.57 1.435 1.975l2.392 1.268c.45.24.628.786.404 1.244l-1.189 2.432a2.76 2.76 0 0 0 0 2.44l1.19 2.432a.936.936 0 0 1-.405 1.243zm.857-4.482a.934.934 0 0 1 0-.826l1.19-2.432a2.767 2.767 0 0 0-1.195-3.675l-2.391-1.268a.934.934 0 0 1-.486-.668l-.467-2.667a2.767 2.767 0 0 0-3.126-2.27l-2.68.378a.934.934 0 0 1-.786-.255l-1.945-1.882a2.767 2.767 0 0 0-3.864 0l-1.946 1.882a.934.934 0 0 1-.785.256l-2.68-.38a2.767 2.767 0 0 0-3.126 2.271l-.468 2.667a.934.934 0 0 1-.485.668l-2.391 1.269a2.767 2.767 0 0 0-1.194 3.674l1.189 2.432a.934.934 0 0 1 0 .826l-1.19 2.432a2.767 2.767 0 0 0 1.195 3.675l2.391 1.268c.258.137.435.38.485.668l.468 2.667a2.765 2.765 0 0 0 3.126 2.27l2.68-.378a.934.934 0 0 1 .786.255l1.945 1.882a2.77 2.77 0 0 0 3.864 0l1.945-1.882a.935.935 0 0 1 .786-.255l2.68.379a2.767 2.767 0 0 0 3.126-2.271l.468-2.667a.934.934 0 0 1 .485-.668l2.391-1.268a2.767 2.767 0 0 0 1.194-3.675z"/><path id="hb" d="M418.032 1712.28a.92.92 0 0 0-1.3 0l-12.133 12.132a.92.92 0 0 0 1.3 1.3l12.133-12.133a.92.92 0 0 0 0-1.3z"/><path id="hc" d="M407.64 1715.633a1.534 1.534 0 0 1-1.531-1.533c0-.844.687-1.532 1.532-1.532.844 0 1.532.688 1.532 1.532 0 .845-.688 1.533-1.532 1.533zm0-4.903a3.374 3.374 0 0 0-3.37 3.37 3.374 3.374 0 0 0 3.37 3.371 3.374 3.374 0 0 0 3.371-3.37 3.374 3.374 0 0 0-3.37-3.371z"/><path id="hd" d="M414.99 1725.433a1.534 1.534 0 0 1-1.532-1.532 1.534 1.534 0 0 1 3.064 0c0 .844-.687 1.532-1.531 1.532zm0-4.903a3.374 3.374 0 0 0-3.37 3.37 3.374 3.374 0 0 0 3.37 3.371 3.374 3.374 0 0 0 3.371-3.37 3.374 3.374 0 0 0-3.37-3.371z"/></defs><use xlink:href="#ha" transform="translate(-396 -1703)"/><use xlink:href="#hb" transform="translate(-396 -1703)"/><use xlink:href="#hc" transform="translate(-396 -1703)"/><use xlink:href="#hd" transform="translate(-396 -1703)"/></symbol><symbol viewBox="0 0 24 32" id="why-2" xmlns="http://www.w3.org/2000/svg"><defs><path id="ia" d="M653.63 1733.676h-21.3v-29.343h16.638v4.669h4.66zM650.3 1705l2.662 2.667h-2.661zm-.113-2H631v32h23.959v-27.219z"/><path id="ib" d="M650.205 1726.3h-3.939a.656.656 0 1 0 0 1.313h3.94a.656.656 0 1 0 0-1.313z"/><path id="ic" d="M650.355 1714.98h-14.591a.66.66 0 0 0-.664.656.66.66 0 0 0 .664.657h14.591a.66.66 0 0 0 .663-.657.66.66 0 0 0-.663-.656z"/><path id="id" d="M650.355 1718.92h-14.591a.66.66 0 0 0-.664.656.66.66 0 0 0 .664.657h14.591a.66.66 0 0 0 .663-.657.659.659 0 0 0-.663-.656z"/><path id="ie" d="M643.128 1711.04h-7.359a.662.662 0 0 0-.669.656c0 .363.3.657.67.657h7.358c.37 0 .67-.294.67-.657 0-.362-.3-.656-.67-.656z"/><path id="if" d="M638.46 1727.365c-1.111 0-2.014-.9-2.014-2.004a2.01 2.01 0 0 1 2.013-2.004 2.01 2.01 0 0 1 2.013 2.004 2.012 2.012 0 0 1-2.013 2.004zm.677 2.154l-.248-.081-.425-.14-.426.14-.247.081v-.885a3.382 3.382 0 0 0 1.346 0zm-.673-7.499c-1.858 0-3.364 1.495-3.364 3.341 0 1.092.529 2.063 1.346 2.672v3.34l2.018-.669 2.018.67v-3.341a3.326 3.326 0 0 0 1.346-2.672c0-1.846-1.506-3.341-3.364-3.341z"/><path id="ig" d="M638.386 1725.65a.657.657 0 1 0 .001 1.313.657.657 0 0 0 0-1.313z"/></defs><use xlink:href="#ia" transform="translate(-631 -1703)"/><use xlink:href="#ib" transform="translate(-631 -1703)"/><use xlink:href="#ic" transform="translate(-631 -1703)"/><use xlink:href="#id" transform="translate(-631 -1703)"/><use xlink:href="#ie" transform="translate(-631 -1703)"/><use xlink:href="#if" transform="translate(-631 -1703)"/><use xlink:href="#ig" transform="translate(-631 -1703)"/></symbol><symbol viewBox="0 0 32 32" id="why-3" xmlns="http://www.w3.org/2000/svg"><defs><path id="ja" d="M873.552 1731.353h-29.104v-3.69h29.104zm-26.97 2.199v-.75h24.836v.75zm8.36-8.264h8.116c.651 0 1.215.379 1.484.927h-11.084a1.653 1.653 0 0 1 1.484-.927zm4.053-20.84a3.335 3.335 0 0 1 3.329 3.334c0 1.098-.315 2.464-.648 3.91-.616 2.677-1.3 5.648-.124 7.826h-.172a.723.723 0 0 0 0 1.447h.944v2.875h-6.658v-2.875h2.823a.723.723 0 0 0 0-1.447h-2.051c1.176-2.178.492-5.15-.124-7.826-.333-1.446-.648-2.812-.648-3.91a3.335 3.335 0 0 1 3.329-3.334zm15.281 21.767h-8.205a3.11 3.11 0 0 0-2.289-2.289v-3.685a.745.745 0 0 0-.004-.076l-.002-.014a.73.73 0 0 0-.01-.061l-.004-.016a.749.749 0 0 0-.016-.057l-.007-.018a.725.725 0 0 0-.02-.051l-.01-.02a.74.74 0 0 0-.023-.045l-.014-.023a.764.764 0 0 0-.124-.15l-.015-.015c-1.839-1.6-1.126-4.69-.437-7.678.353-1.528.686-2.972.686-4.235A4.788 4.788 0 0 0 859 1703a4.787 4.787 0 0 0-4.782 4.782c0 1.263.333 2.707.686 4.235.689 2.988 1.402 6.077-.437 7.678l-.015.015a.681.681 0 0 0-.032.03l-.02.024a.71.71 0 0 0-.11.163l-.01.021a.725.725 0 0 0-.02.051l-.006.018a.737.737 0 0 0-.016.057c0 .005-.003.01-.004.016a.735.735 0 0 0-.01.06l-.002.015a.724.724 0 0 0-.004.077v3.684a3.109 3.109 0 0 0-2.29 2.29h-8.204c-.4 0-.724.324-.724.724v5.137c0 .4.324.724.724.724h1.41v1.475c0 .4.324.724.724.724h26.284c.4 0 .724-.324.724-.724v-1.475h1.41c.4 0 .724-.324.724-.724v-5.138c0-.4-.324-.724-.724-.724z"/></defs><use xlink:href="#ja" transform="translate(-843 -1703)"/></symbol><symbol viewBox="0 0 51 32" id="why-4" xmlns="http://www.w3.org/2000/svg"><defs><path id="ka" d="M1206.087 1723.293a.903.903 0 0 1-.897-.907v-.907h1.794v1.814zm-5.907 10.122a3.44 3.44 0 0 1-3.436-3.435 3.44 3.44 0 0 1 3.436-3.435 3.44 3.44 0 0 1 3.436 3.435 3.44 3.44 0 0 1-3.436 3.435zm-27.87 0a3.44 3.44 0 0 1-3.436-3.435 3.44 3.44 0 0 1 3.436-3.435 3.44 3.44 0 0 1 3.436 3.435 3.44 3.44 0 0 1-3.436 3.435zm22.745-16.886v-5.182h7.027l1.292 5.182zm0-8.559h5.957c.96 0 1.74.79 1.74 1.761v.053h-7.697zm9.973 8.6l-1.31-5.237a.792.792 0 0 0 .627-.775v-.844a3.33 3.33 0 0 0-3.325-3.326h-5.965v-1.742c0-.902-.734-1.636-1.636-1.636h-30.404c-.903 0-1.637.734-1.637 1.636v14.358a.792.792 0 0 0 1.584 0v-14.358c0-.029.023-.052.053-.052h30.404c.029 0 .052.023.052.052v14.358a.792.792 0 0 0 1.584 0v-.898h9.344a2.59 2.59 0 0 1 2.46 1.795h-2.461a.792.792 0 0 0-.792.792v1.69a2.484 2.484 0 0 0 2.48 2.48h.898v3.484h-2.07a5.022 5.022 0 0 0-4.74-3.378 5.022 5.022 0 0 0-4.738 3.378h-.381v-5.965a.792.792 0 0 0-1.584 0v5.965h-16.427a5.022 5.022 0 0 0-4.74-3.379 5.022 5.022 0 0 0-4.738 3.379h-4.551a.053.053 0 0 1-.053-.053v-1.742h3.43a.792.792 0 0 0 0-1.584h-7.6a.792.792 0 0 0 0 1.584h2.586v1.742c0 .902.734 1.636 1.637 1.636h4.277l-.002.053a5.02 5.02 0 0 0 5.015 5.014 5.02 5.02 0 0 0 5.014-5.014l-.001-.053h17.844l-.002.053a5.02 5.02 0 0 0 5.015 5.014 5.02 5.02 0 0 0 5.014-5.014v-.053h2.587a.792.792 0 0 0 .792-.792v-8.445a4.176 4.176 0 0 0-3.54-4.122z"/><path id="kb" d="M1172.306 1728.34c-.902 0-1.636.734-1.636 1.636 0 .903.734 1.637 1.636 1.637.903 0 1.637-.734 1.637-1.637 0-.902-.734-1.636-1.637-1.636z"/><path id="kc" d="M1200.176 1728.34c-.902 0-1.636.734-1.636 1.636 0 .903.734 1.637 1.636 1.637.903 0 1.637-.734 1.637-1.637 0-.902-.734-1.636-1.637-1.636z"/><path id="kd" d="M1190.886 1724.96h-11.824a.792.792 0 0 0 0 1.584h11.824a.792.792 0 1 0 0-1.584z"/><path id="ke" d="M1170.617 1721.59h-10.135a.792.792 0 0 0 0 1.584h10.135a.792.792 0 0 0 0-1.584z"/><path id="kf" d="M1185.535 1710.842a.792.792 0 0 0-1.12 0l-7.04 7.041-3.663-3.663a.792.792 0 1 0-1.12 1.12l4.223 4.223a.789.789 0 0 0 1.12 0l7.6-7.601a.79.79 0 0 0 0-1.12z"/></defs><use xlink:href="#ka" transform="translate(-1158 -1703)"/><use xlink:href="#kb" transform="translate(-1158 -1703)"/><use xlink:href="#kc" transform="translate(-1158 -1703)"/><use xlink:href="#kd" transform="translate(-1158 -1703)"/><use xlink:href="#ke" transform="translate(-1158 -1703)"/><use xlink:href="#kf" transform="translate(-1158 -1703)"/></symbol></svg>