<?xml version="1.0" encoding="utf-8"?><svg xmlns="http://www.w3.org/2000/svg" xmlns:xlink="http://www.w3.org/1999/xlink"><symbol viewBox="0 0 26 21" id="basket" xmlns="http://www.w3.org/2000/svg"><g transform="translate(0 1)" fill-rule="evenodd"><path d="M0 0h5.97l4.12 12.853h11.555l2.898-9.534H6.848"/><ellipse cx="10.326" cy="18.421" rx="1.63" ry="1.579"/><ellipse cx="20.109" cy="18.421" rx="1.63" ry="1.579"/></g></symbol><symbol viewBox="0 0 344.96 344.96" id="check" xmlns="http://www.w3.org/2000/svg"><g data-name="Слой 2"><path d="M321.85 86.24l-40-23.11-23.1-40H212.5L172.48 0l-40 23.11H86.24l-23.11 40-40 23.1v46.21L0 172.48l23.11 40v46.21l40 23.11 23.11 40h46.21l40 23.1 40-23.11h46.21l23.11-40 40-23.11V212.5l23.11-40-23.11-40V86.24zM156.91 243.07a16.79 16.79 0 0 1-23.34 0l-50.45-50.44a16.19 16.19 0 0 1 0-22.89l13.35-13.35a16.19 16.19 0 0 1 22.89 0l25.87 25.87 80.34-80.35a16.19 16.19 0 0 1 22.89 0l13.35 13.35a16.19 16.19 0 0 1 0 22.89z" data-name="Capa 1"/></g></symbol><symbol viewBox="0 0 24 24" id="phone" xmlns="http://www.w3.org/2000/svg"><path d="M15.599 12.853a2.003 2.003 0 0 1 2.83.002l2.827 2.826a2 2 0 0 1 0 2.828l-2.83 2.831a1 1 0 0 1-.952.263c-.199-.05-.547-.15-1.015-.304a26.651 26.651 0 0 1-2.467-.952c-2.474-1.095-4.725-2.516-6.526-4.309-1.807-1.8-3.233-4.06-4.327-6.545-.38-.861-.692-1.69-.942-2.458-.151-.465-.25-.812-.299-1.01a1 1 0 0 1 .264-.948l2.83-2.831a2.002 2.002 0 0 1 2.831.002l2.826 2.826a2 2 0 0 1 0 2.829l-.944.944c.493 1.094 1.195 2.142 2.002 2.946.734.732 1.588 1.282 2.979 1.973l.913-.913zm1.417 1.416c-.001-.001-.474.47-1.42 1.414a1 1 0 0 1-1.136.196c-1.97-.936-3.12-1.626-4.165-2.67-1.16-1.155-2.118-2.685-2.705-4.244a1 1 0 0 1 .229-1.06l1.416-1.417L6.41 3.662s-.807.804-2.418 2.414l.108.34c.23.707.519 1.474.87 2.27 1.002 2.276 2.3 4.332 3.909 5.935 1.606 1.6 3.657 2.893 5.924 3.898a24.661 24.661 0 0 0 2.626.99l2.414-2.414-2.826-2.826z"/></symbol><symbol viewBox="0 0 20 21" id="search" xmlns="http://www.w3.org/2000/svg"><g transform="translate(1 1)" stroke-width="2" fill-rule="evenodd"><circle cx="8" cy="8" r="8"/><path d="M13.5 14.5l4.243 4.243"/></g></symbol><symbol viewBox="0 0 18 17" id="user" xmlns="http://www.w3.org/2000/svg"><g transform="translate(1 1)" stroke-width="2" fill-rule="evenodd"><circle cx="8" cy="4" r="4"/><path d="M16 16a8 8 0 1 0-16 0"/></g></symbol></svg>