<?xml version="1.0" encoding="utf-8"?><svg xmlns="http://www.w3.org/2000/svg" xmlns:xlink="http://www.w3.org/1999/xlink"><symbol viewBox="0 0 256 512" id="angle-down" xmlns="http://www.w3.org/2000/svg"><path d="M119.5 326.9L3.5 209.1c-4.7-4.7-4.7-12.3 0-17l7.1-7.1c4.7-4.7 12.3-4.7 17 0L128 287.3l100.4-102.2c4.7-4.7 12.3-4.7 17 0l7.1 7.1c4.7 4.7 4.7 12.3 0 17L136.5 327c-4.7 4.6-12.3 4.6-17-.1z"/></symbol><symbol viewBox="0 0 256 512" id="angle-up" xmlns="http://www.w3.org/2000/svg"><path d="M136.5 185.1l116 117.8c4.7 4.7 4.7 12.3 0 17l-7.1 7.1c-4.7 4.7-12.3 4.7-17 0L128 224.7 27.6 326.9c-4.7 4.7-12.3 4.7-17 0l-7.1-7.1c-4.7-4.7-4.7-12.3 0-17l116-117.8c4.7-4.6 12.3-4.6 17 .1z"/></symbol><symbol viewBox="0 0 12 8" id="arr-down" xmlns="http://www.w3.org/2000/svg"><defs><path id="ca" d="M67 1159v-24h24v24z"/></defs><use xlink:href="#ca" transform="translate(-73 -1144)"/></symbol><symbol viewBox="0 0 12 8" id="arr-up" xmlns="http://www.w3.org/2000/svg"><defs><path id="da" d="M128 1367v-24h24v24z"/></defs><use xlink:href="#da" transform="translate(-134 -1350)"/></symbol><symbol viewBox="0 0 448 512" id="arrow-left" xmlns="http://www.w3.org/2000/svg"><path d="M229.9 473.899l19.799-19.799c4.686-4.686 4.686-12.284 0-16.971L94.569 282H436c6.627 0 12-5.373 12-12v-28c0-6.627-5.373-12-12-12H94.569l155.13-155.13c4.686-4.686 4.686-12.284 0-16.971L229.9 38.101c-4.686-4.686-12.284-4.686-16.971 0L3.515 247.515c-4.686 4.686-4.686 12.284 0 16.971L212.929 473.9c4.686 4.686 12.284 4.686 16.971-.001z"/></symbol><symbol viewBox="0 0 448 512" id="arrow-right" xmlns="http://www.w3.org/2000/svg"><path d="M218.101 38.101L198.302 57.9c-4.686 4.686-4.686 12.284 0 16.971L353.432 230H12c-6.627 0-12 5.373-12 12v28c0 6.627 5.373 12 12 12h341.432l-155.13 155.13c-4.686 4.686-4.686 12.284 0 16.971l19.799 19.799c4.686 4.686 12.284 4.686 16.971 0l209.414-209.414c4.686-4.686 4.686-12.284 0-16.971L235.071 38.101c-4.686-4.687-12.284-4.687-16.97 0z"/></symbol><symbol viewBox="0 0 615.36 501.65" id="basket" xmlns="http://www.w3.org/2000/svg"><g data-name="Слой 2"><path d="M469.65 501.65c-1.78-1.73-3.27-4.3-5.39-5.05-17.69-6.24-25.25-26.51-22.69-41.09 3.75-21.34 23.22-36.07 44.58-32.48 16.92 2.84 31.49 17.63 32.32 36.56.62 14.09-5.57 24.23-15.56 32.82-1.93 1.66-4.87 2.09-7 3.58a60.69 60.69 0 0 0-6.24 5.67zm-233 0c-1.26-1.51-2.23-3.81-3.83-4.41C209 488.29 205 463.08 212.19 445s33.2-28.63 50.61-18.84c7.13 4 14 7.68 17.38 15.45a65 65 0 0 1 4.46 13.44c.74 3.86.24 8 .17 12-.22 11.71-9.66 24.48-20.55 28.79-2.57 1-4.42 3.85-6.61 5.84zm143.07-149.07H235.25c-10.3 0-10.29-.37-13-10.31-2.52-9.12-5.9-18-8.81-27-2.5-7.75-4.9-15.53-7.32-23.31-2.56-8.23-5.07-16.47-7.67-24.68-3.45-10.91-6.98-21.78-10.45-32.66-2.58-8.06-5.2-16.12-7.78-24.18-3-9.33-5.91-18.67-8.88-28-2-6.17-3.91-12.34-6-18.48-2.95-8.78-6.13-17.49-8.95-26.31s-5.17-17.81-8-26.64c-2.71-8.5-5.76-16.88-8.62-25.33-.85-2.51-1.58-5.06-2.36-7.59-2.52-8.25-4.74-16.6-7.65-24.71-1.75-4.88-6-6.73-11.22-6.72q-52.49.11-105 .1c-1.67 0-3.34.05-5 0C1.6 46.39 0 44.65 0 37.65v-29C.06 3.36 3.32 0 8.57 0H154c3.8 0 8.21 4.56 9.85 9.74 5.52 17.37 11.15 34.7 16.65 52.08 1.3 4.11 2 8.4 3.39 12.49s4.43 6.1 8.79 6h414.98c8.4 0 8.89.59 6.35 8.49-4.86 15.16-9.94 30.26-14.65 45.47-2.69 8.69-4.76 17.57-7.26 26.32-1.87 6.54-3.93 13-6 19.5-5 16-10.22 31.94-15.18 48-2.5 8.07-4.47 16.3-7 24.38-3 9.81-6.38 19.52-9.46 29.31-1.89 6-3.53 12.09-5.31 18.14-2.62 8.93-5.27 17.86-7.89 26.79-2.19 7.48-4.11 15.05-6.72 22.38-.56 1.57-3.48 3.08-5.43 3.24-5.46.45-11 .21-16.48.21zm-.58-227.25H220.65c-4.49 0-9-.22-13.46 0-3 .18-5.18 1.84-4.25 5.31 1.63 6.08 3.4 12.12 5.23 18.14 2.65 8.71 5.42 17.38 8.12 26.07.83 2.69 1.51 5.43 2.41 8.09 2.73 8 5.71 16 8.27 24 4.77 15 9.29 30.14 14 45.21q2.65 8.56 5.46 17.08c3 9.13 6.48 18.13 9 27.4s4.21 11.07 13.56 11.06h216c3 0 6.21.55 8.93-.34s6.24-2.75 7.19-5.09c2.94-7.19 4.88-14.8 7.1-22.28 2.65-8.91 5.2-17.86 7.78-26.79 1.66-5.73 3.16-11.52 5-17.19 2.89-9 6.09-17.84 9-26.81 2.24-6.94 4.22-14 6.32-21q5-16.68 10.07-33.36c2.31-7.63 4.88-15.19 6.89-22.89 1.27-4.86-1.1-7.31-6.08-7.13-3.49.13-7 .45-10.48.45q-78.83.09-157.57.06z" data-name="Слой 1"/></g></symbol><symbol viewBox="0 0 512 512" id="check" xmlns="http://www.w3.org/2000/svg"><path d="M435.848 83.466L172.804 346.51l-96.652-96.652c-4.686-4.686-12.284-4.686-16.971 0l-28.284 28.284c-4.686 4.686-4.686 12.284 0 16.971l133.421 133.421c4.686 4.686 12.284 4.686 16.971 0l299.813-299.813c4.686-4.686 4.686-12.284 0-16.971l-28.284-28.284c-4.686-4.686-12.284-4.686-16.97 0z"/></symbol><symbol viewBox="0 0 16 16" id="close" xmlns="http://www.w3.org/2000/svg"><defs><path id="ia" d="M1024 144.6l-1.6-1.6-6.4 6.4-6.4-6.4-1.6 1.6 6.4 6.4-6.4 6.4 1.6 1.6 6.4-6.4 6.4 6.4 1.6-1.6-6.4-6.4z"/></defs><use xlink:href="#ia" transform="translate(-1008 -143)"/></symbol><symbol viewBox="0 0 12 12" id="compare" xmlns="http://www.w3.org/2000/svg"><path d="M0 4h2v8H0V4zm5-4h2v12H5V0zm5 2h2v10h-2V2z"/></symbol><symbol viewBox="0 0 24 24" id="phone" xmlns="http://www.w3.org/2000/svg"><path d="M15.599 12.853a2.003 2.003 0 0 1 2.83.002l2.827 2.826a2 2 0 0 1 0 2.828l-2.83 2.831a1 1 0 0 1-.952.263c-.199-.05-.547-.15-1.015-.304a26.651 26.651 0 0 1-2.467-.952c-2.474-1.095-4.725-2.516-6.526-4.309-1.807-1.8-3.233-4.06-4.327-6.545-.38-.861-.692-1.69-.942-2.458-.151-.465-.25-.812-.299-1.01a1 1 0 0 1 .264-.948l2.83-2.831a2.002 2.002 0 0 1 2.831.002l2.826 2.826a2 2 0 0 1 0 2.829l-.944.944c.493 1.094 1.195 2.142 2.002 2.946.734.732 1.588 1.282 2.979 1.973l.913-.913zm1.417 1.416c-.001-.001-.474.47-1.42 1.414a1 1 0 0 1-1.136.196c-1.97-.936-3.12-1.626-4.165-2.67-1.16-1.155-2.118-2.685-2.705-4.244a1 1 0 0 1 .229-1.06l1.416-1.417L6.41 3.662s-.807.804-2.418 2.414l.108.34c.23.707.519 1.474.87 2.27 1.002 2.276 2.3 4.332 3.909 5.935 1.606 1.6 3.657 2.893 5.924 3.898a24.661 24.661 0 0 0 2.626.99l2.414-2.414-2.826-2.826z"/></symbol><symbol viewBox="0 0 20 21" id="search" xmlns="http://www.w3.org/2000/svg"><g transform="translate(1 1)" stroke-width="2" fill-rule="evenodd"><circle cx="8" cy="8" r="8"/><path d="M13.5 14.5l4.243 4.243"/></g></symbol><symbol viewBox="0 0 14 13" id="star" xmlns="http://www.w3.org/2000/svg"><defs><path id="ma" d="M570 861.5l-4.114 2.163.785-4.581-3.328-3.245 4.6-.669L570 851l2.057 4.168 4.6.669-3.328 3.245.785 4.581z"/><clipPath id="mb"><use xlink:href="#ma"/></clipPath></defs><use fill-opacity="0" stroke-miterlimit="50" stroke-width="4" clip-path="url(#mb)" xlink:href="#ma" transform="translate(-563 -851)"/></symbol><symbol viewBox="0 0 14 13" id="star-active" xmlns="http://www.w3.org/2000/svg"><defs><path id="na" d="M538 861.5l-4.114 2.163.785-4.581-3.328-3.245 4.6-.669L538 851l2.057 4.168 4.6.669-3.328 3.245.785 4.581z"/></defs><use xlink:href="#na" transform="translate(-531 -851)"/></symbol><symbol viewBox="0 0 18 17" id="user" xmlns="http://www.w3.org/2000/svg"><g transform="translate(1 1)" stroke-width="2" fill-rule="evenodd"><circle cx="8" cy="4" r="4"/><path d="M16 16a8 8 0 1 0-16 0"/></g></symbol><symbol viewBox="0 0 15 15" id="view-1" xmlns="http://www.w3.org/2000/svg"><defs><path id="pa" d="M1255 347v-3h3v3zm6 0v-3h3v3zm6 0v-3h3v3zm-12 6v-3h3v3zm6 0v-3h3v3zm6 0v-3h3v3zm-12 6v-3h3v3zm6 0v-3h3v3zm6 0v-3h3v3z"/></defs><use xlink:href="#pa" transform="translate(-1255 -344)"/></symbol><symbol viewBox="0 0 16 15" id="view-2" xmlns="http://www.w3.org/2000/svg"><g data-name="Слой 2"><path d="M0 3V0h3v3zm6 0V0h10v3zM0 9V6h3v3zm6 0V6h10v3zm-6 6v-3h3v3zm6 0v-3h10v3z" data-name="Слой 1"/></g></symbol><symbol viewBox="0 0 31 32" id="why-1" xmlns="http://www.w3.org/2000/svg"><defs><path id="ra" d="M424.274 1723.893l-2.392 1.27a2.76 2.76 0 0 0-1.435 1.974l-.468 2.666a.937.937 0 0 1-1.058.768l-2.681-.379a2.762 2.762 0 0 0-2.322.754l-1.946 1.882a.937.937 0 0 1-1.308 0l-1.946-1.882a2.76 2.76 0 0 0-2.322-.754l-2.681.38a.937.937 0 0 1-1.058-.77l-.468-2.666a2.76 2.76 0 0 0-1.435-1.974l-2.392-1.269a.936.936 0 0 1-.405-1.243l1.19-2.432a2.76 2.76 0 0 0 0-2.44l-1.19-2.432a.936.936 0 0 1 .405-1.244l2.392-1.268a2.761 2.761 0 0 0 1.435-1.975l.468-2.666a.936.936 0 0 1 1.057-.768l2.682.379a2.762 2.762 0 0 0 2.322-.754l1.946-1.882a.937.937 0 0 1 1.308 0l1.946 1.882c.62.6 1.467.875 2.322.754l2.681-.38a.937.937 0 0 1 1.058.769l.468 2.666c.15.85.672 1.57 1.435 1.975l2.392 1.268c.45.24.628.786.404 1.244l-1.189 2.432a2.76 2.76 0 0 0 0 2.44l1.19 2.432a.936.936 0 0 1-.405 1.243zm.857-4.482a.934.934 0 0 1 0-.826l1.19-2.432a2.767 2.767 0 0 0-1.195-3.675l-2.391-1.268a.934.934 0 0 1-.486-.668l-.467-2.667a2.767 2.767 0 0 0-3.126-2.27l-2.68.378a.934.934 0 0 1-.786-.255l-1.945-1.882a2.767 2.767 0 0 0-3.864 0l-1.946 1.882a.934.934 0 0 1-.785.256l-2.68-.38a2.767 2.767 0 0 0-3.126 2.271l-.468 2.667a.934.934 0 0 1-.485.668l-2.391 1.269a2.767 2.767 0 0 0-1.194 3.674l1.189 2.432a.934.934 0 0 1 0 .826l-1.19 2.432a2.767 2.767 0 0 0 1.195 3.675l2.391 1.268c.258.137.435.38.485.668l.468 2.667a2.765 2.765 0 0 0 3.126 2.27l2.68-.378a.934.934 0 0 1 .786.255l1.945 1.882a2.77 2.77 0 0 0 3.864 0l1.945-1.882a.935.935 0 0 1 .786-.255l2.68.379a2.767 2.767 0 0 0 3.126-2.271l.468-2.667a.934.934 0 0 1 .485-.668l2.391-1.268a2.767 2.767 0 0 0 1.194-3.675z"/><path id="rb" d="M418.032 1712.28a.92.92 0 0 0-1.3 0l-12.133 12.132a.92.92 0 0 0 1.3 1.3l12.133-12.133a.92.92 0 0 0 0-1.3z"/><path id="rc" d="M407.64 1715.633a1.534 1.534 0 0 1-1.531-1.533c0-.844.687-1.532 1.532-1.532.844 0 1.532.688 1.532 1.532 0 .845-.688 1.533-1.532 1.533zm0-4.903a3.374 3.374 0 0 0-3.37 3.37 3.374 3.374 0 0 0 3.37 3.371 3.374 3.374 0 0 0 3.371-3.37 3.374 3.374 0 0 0-3.37-3.371z"/><path id="rd" d="M414.99 1725.433a1.534 1.534 0 0 1-1.532-1.532 1.534 1.534 0 0 1 3.064 0c0 .844-.687 1.532-1.531 1.532zm0-4.903a3.374 3.374 0 0 0-3.37 3.37 3.374 3.374 0 0 0 3.37 3.371 3.374 3.374 0 0 0 3.371-3.37 3.374 3.374 0 0 0-3.37-3.371z"/></defs><use xlink:href="#ra" transform="translate(-396 -1703)"/><use xlink:href="#rb" transform="translate(-396 -1703)"/><use xlink:href="#rc" transform="translate(-396 -1703)"/><use xlink:href="#rd" transform="translate(-396 -1703)"/></symbol><symbol viewBox="0 0 24 32" id="why-2" xmlns="http://www.w3.org/2000/svg"><defs><path id="sa" d="M653.63 1733.676h-21.3v-29.343h16.638v4.669h4.66zM650.3 1705l2.662 2.667h-2.661zm-.113-2H631v32h23.959v-27.219z"/><path id="sb" d="M650.205 1726.3h-3.939a.656.656 0 1 0 0 1.313h3.94a.656.656 0 1 0 0-1.313z"/><path id="sc" d="M650.355 1714.98h-14.591a.66.66 0 0 0-.664.656.66.66 0 0 0 .664.657h14.591a.66.66 0 0 0 .663-.657.66.66 0 0 0-.663-.656z"/><path id="sd" d="M650.355 1718.92h-14.591a.66.66 0 0 0-.664.656.66.66 0 0 0 .664.657h14.591a.66.66 0 0 0 .663-.657.659.659 0 0 0-.663-.656z"/><path id="se" d="M643.128 1711.04h-7.359a.662.662 0 0 0-.669.656c0 .363.3.657.67.657h7.358c.37 0 .67-.294.67-.657 0-.362-.3-.656-.67-.656z"/><path id="sf" d="M638.46 1727.365c-1.111 0-2.014-.9-2.014-2.004a2.01 2.01 0 0 1 2.013-2.004 2.01 2.01 0 0 1 2.013 2.004 2.012 2.012 0 0 1-2.013 2.004zm.677 2.154l-.248-.081-.425-.14-.426.14-.247.081v-.885a3.382 3.382 0 0 0 1.346 0zm-.673-7.499c-1.858 0-3.364 1.495-3.364 3.341 0 1.092.529 2.063 1.346 2.672v3.34l2.018-.669 2.018.67v-3.341a3.326 3.326 0 0 0 1.346-2.672c0-1.846-1.506-3.341-3.364-3.341z"/><path id="sg" d="M638.386 1725.65a.657.657 0 1 0 .001 1.313.657.657 0 0 0 0-1.313z"/></defs><use xlink:href="#sa" transform="translate(-631 -1703)"/><use xlink:href="#sb" transform="translate(-631 -1703)"/><use xlink:href="#sc" transform="translate(-631 -1703)"/><use xlink:href="#sd" transform="translate(-631 -1703)"/><use xlink:href="#se" transform="translate(-631 -1703)"/><use xlink:href="#sf" transform="translate(-631 -1703)"/><use xlink:href="#sg" transform="translate(-631 -1703)"/></symbol><symbol viewBox="0 0 32 32" id="why-3" xmlns="http://www.w3.org/2000/svg"><defs><path id="ta" d="M873.552 1731.353h-29.104v-3.69h29.104zm-26.97 2.199v-.75h24.836v.75zm8.36-8.264h8.116c.651 0 1.215.379 1.484.927h-11.084a1.653 1.653 0 0 1 1.484-.927zm4.053-20.84a3.335 3.335 0 0 1 3.329 3.334c0 1.098-.315 2.464-.648 3.91-.616 2.677-1.3 5.648-.124 7.826h-.172a.723.723 0 0 0 0 1.447h.944v2.875h-6.658v-2.875h2.823a.723.723 0 0 0 0-1.447h-2.051c1.176-2.178.492-5.15-.124-7.826-.333-1.446-.648-2.812-.648-3.91a3.335 3.335 0 0 1 3.329-3.334zm15.281 21.767h-8.205a3.11 3.11 0 0 0-2.289-2.289v-3.685a.745.745 0 0 0-.004-.076l-.002-.014a.73.73 0 0 0-.01-.061l-.004-.016a.749.749 0 0 0-.016-.057l-.007-.018a.725.725 0 0 0-.02-.051l-.01-.02a.74.74 0 0 0-.023-.045l-.014-.023a.764.764 0 0 0-.124-.15l-.015-.015c-1.839-1.6-1.126-4.69-.437-7.678.353-1.528.686-2.972.686-4.235A4.788 4.788 0 0 0 859 1703a4.787 4.787 0 0 0-4.782 4.782c0 1.263.333 2.707.686 4.235.689 2.988 1.402 6.077-.437 7.678l-.015.015a.681.681 0 0 0-.032.03l-.02.024a.71.71 0 0 0-.11.163l-.01.021a.725.725 0 0 0-.02.051l-.006.018a.737.737 0 0 0-.016.057c0 .005-.003.01-.004.016a.735.735 0 0 0-.01.06l-.002.015a.724.724 0 0 0-.004.077v3.684a3.109 3.109 0 0 0-2.29 2.29h-8.204c-.4 0-.724.324-.724.724v5.137c0 .4.324.724.724.724h1.41v1.475c0 .4.324.724.724.724h26.284c.4 0 .724-.324.724-.724v-1.475h1.41c.4 0 .724-.324.724-.724v-5.138c0-.4-.324-.724-.724-.724z"/></defs><use xlink:href="#ta" transform="translate(-843 -1703)"/></symbol><symbol viewBox="0 0 51 32" id="why-4" xmlns="http://www.w3.org/2000/svg"><defs><path id="ua" d="M1206.087 1723.293a.903.903 0 0 1-.897-.907v-.907h1.794v1.814zm-5.907 10.122a3.44 3.44 0 0 1-3.436-3.435 3.44 3.44 0 0 1 3.436-3.435 3.44 3.44 0 0 1 3.436 3.435 3.44 3.44 0 0 1-3.436 3.435zm-27.87 0a3.44 3.44 0 0 1-3.436-3.435 3.44 3.44 0 0 1 3.436-3.435 3.44 3.44 0 0 1 3.436 3.435 3.44 3.44 0 0 1-3.436 3.435zm22.745-16.886v-5.182h7.027l1.292 5.182zm0-8.559h5.957c.96 0 1.74.79 1.74 1.761v.053h-7.697zm9.973 8.6l-1.31-5.237a.792.792 0 0 0 .627-.775v-.844a3.33 3.33 0 0 0-3.325-3.326h-5.965v-1.742c0-.902-.734-1.636-1.636-1.636h-30.404c-.903 0-1.637.734-1.637 1.636v14.358a.792.792 0 0 0 1.584 0v-14.358c0-.029.023-.052.053-.052h30.404c.029 0 .052.023.052.052v14.358a.792.792 0 0 0 1.584 0v-.898h9.344a2.59 2.59 0 0 1 2.46 1.795h-2.461a.792.792 0 0 0-.792.792v1.69a2.484 2.484 0 0 0 2.48 2.48h.898v3.484h-2.07a5.022 5.022 0 0 0-4.74-3.378 5.022 5.022 0 0 0-4.738 3.378h-.381v-5.965a.792.792 0 0 0-1.584 0v5.965h-16.427a5.022 5.022 0 0 0-4.74-3.379 5.022 5.022 0 0 0-4.738 3.379h-4.551a.053.053 0 0 1-.053-.053v-1.742h3.43a.792.792 0 0 0 0-1.584h-7.6a.792.792 0 0 0 0 1.584h2.586v1.742c0 .902.734 1.636 1.637 1.636h4.277l-.002.053a5.02 5.02 0 0 0 5.015 5.014 5.02 5.02 0 0 0 5.014-5.014l-.001-.053h17.844l-.002.053a5.02 5.02 0 0 0 5.015 5.014 5.02 5.02 0 0 0 5.014-5.014v-.053h2.587a.792.792 0 0 0 .792-.792v-8.445a4.176 4.176 0 0 0-3.54-4.122z"/><path id="ub" d="M1172.306 1728.34c-.902 0-1.636.734-1.636 1.636 0 .903.734 1.637 1.636 1.637.903 0 1.637-.734 1.637-1.637 0-.902-.734-1.636-1.637-1.636z"/><path id="uc" d="M1200.176 1728.34c-.902 0-1.636.734-1.636 1.636 0 .903.734 1.637 1.636 1.637.903 0 1.637-.734 1.637-1.637 0-.902-.734-1.636-1.637-1.636z"/><path id="ud" d="M1190.886 1724.96h-11.824a.792.792 0 0 0 0 1.584h11.824a.792.792 0 1 0 0-1.584z"/><path id="ue" d="M1170.617 1721.59h-10.135a.792.792 0 0 0 0 1.584h10.135a.792.792 0 0 0 0-1.584z"/><path id="uf" d="M1185.535 1710.842a.792.792 0 0 0-1.12 0l-7.04 7.041-3.663-3.663a.792.792 0 1 0-1.12 1.12l4.223 4.223a.789.789 0 0 0 1.12 0l7.6-7.601a.79.79 0 0 0 0-1.12z"/></defs><use xlink:href="#ua" transform="translate(-1158 -1703)"/><use xlink:href="#ub" transform="translate(-1158 -1703)"/><use xlink:href="#uc" transform="translate(-1158 -1703)"/><use xlink:href="#ud" transform="translate(-1158 -1703)"/><use xlink:href="#ue" transform="translate(-1158 -1703)"/><use xlink:href="#uf" transform="translate(-1158 -1703)"/></symbol></svg>