<svg width="102" height="102" viewBox="0 0 102 102" fill="none" xmlns="http://www.w3.org/2000/svg">
<path d="M100.95 0.131086C100.744 0.0452227 100.523 0.000796875 100.3 0H90.1001C89.649 0.00258984 89.2169 0.181887 88.8966 0.499441L59.5001 29.8962V1.69993C59.4967 0.76241 58.7375 0.00338672 57.8001 0H47.6001C47.1491 0.00258984 46.717 0.181887 46.3967 0.499441L0.499242 46.3969C0.181887 46.7172 0.00259001 47.1491 1.66022e-07 47.5999V100.3C-0.000199053 100.751 0.178899 101.183 0.497848 101.502C0.816598 101.821 1.2491 102 1.70013 102H54.4001C54.8511 101.998 55.2832 101.818 55.6035 101.501L101.501 55.6031C101.818 55.283 101.998 54.8509 102 54.4001V1.69993C101.997 1.01323 101.583 0.395051 100.95 0.131086ZM13.6001 85.9962V48.304L56.1 5.80384V33.296L42.9992 46.3969C42.6818 46.7172 42.5025 47.1491 42.4999 47.5999V57.0961L13.6001 85.9962ZM42.4999 61.9038V88.3999H16.0038L42.4999 61.9038ZM48.304 3.40007H53.6962L11.1961 45.9H5.80384L48.304 3.40007ZM52.6999 98.5999H3.40007V49.3001H10.2V90.1001C10.2036 91.0374 10.9626 91.7964 11.8999 91.8H44.1999C44.6507 91.8002 45.0832 91.6211 45.4022 91.3022C45.7209 90.9834 45.9 90.5509 45.9 90.0999V49.2999H52.6999V98.5999ZM53.696 45.9H48.3038L59.0006 35.2031L59.0032 35.2006L90.8039 3.40007H96.1962L53.696 45.9ZM98.5999 53.696L56.1 96.1962V48.304L98.5999 5.80384V53.696Z" fill="black"/>
</svg>
