<svg width="102" height="102" viewBox="0 0 102 102" fill="none" xmlns="http://www.w3.org/2000/svg">
<path d="M96.9311 87.1933H97.0644V77.3225C97.0644 77.1104 97.0447 72.0611 95.2859 66.8032L89.9226 54.2902H85.5481H81.1736L75.7609 66.9314C74.0515 72.0611 74.0318 77.11 74.0318 77.3222V80.6125H69.0966C66.3755 80.6125 64.161 78.398 64.161 75.677V68.825C72.0149 64.2646 77.3222 55.7823 77.3222 46.0643V45.8307C80.1517 45.0952 82.2577 42.5421 82.2577 39.4838C82.2577 36.5275 81.1439 34.6602 80.5203 33.8442C80.5763 33.5398 80.6125 33.2289 80.6125 32.9031V29.6127C80.6125 13.2848 67.328 0 50.9998 0C34.6716 0 21.3871 13.2845 21.3871 29.6127V32.9031C21.3871 33.2289 21.4234 33.5398 21.4794 33.8442C20.8558 34.6602 19.7419 36.5275 19.7419 39.4838C19.7419 42.5421 21.8476 45.0955 24.6775 45.8307V46.0643C24.6775 55.7823 29.9848 64.2646 37.8387 68.825V75.677C37.8387 78.398 35.6241 80.6125 32.9031 80.6125H24.6771V78.2943C27.9116 76.3334 29.6127 73.1746 29.6127 69.0962C29.6127 65.0921 26.9114 60.4294 21.7488 59.2648L19.7416 58.8122V67.451H16.4512V58.8091L14.4408 59.2648C9.28001 60.4395 6.58041 65.0986 6.58041 69.0962C6.58041 73.1746 8.28157 76.3317 11.516 78.2943V82.4322C4.73139 85.5581 0 92.4066 0 100.355V102H3.29038V100.355C3.29038 91.8393 9.79547 84.8146 18.0967 83.9872V102H21.3871V83.9033H26.3223V102H29.6127V83.9033H32.9031C33.5744 83.9033 34.2159 83.7996 34.8412 83.6483C36.2709 91.2721 42.9667 97.0644 50.9998 97.0644C59.033 97.0644 65.7288 91.2717 67.1584 83.6483C67.7837 83.7996 68.4253 83.9033 69.0966 83.9033H72.3869V102H75.6773V83.9033H80.6129V102H83.9033V83.9869C92.2049 84.816 98.7096 91.8393 98.7096 100.354V102H102V100.354C102 95.2956 100.072 90.691 96.9311 87.1933ZM22.2999 75.8483L21.3868 76.3023V80.6125H19.7416C18.0356 80.6125 16.3869 80.8526 14.806 81.2624V76.3023L13.8932 75.8483C11.1871 74.5044 9.87079 72.2964 9.87079 69.0966C9.87079 66.9826 10.9943 64.5939 13.1612 63.2811V70.7417H23.032V63.2776C25.1985 64.587 26.3223 66.9791 26.3223 69.0966C26.3223 72.2964 25.006 74.5041 22.2999 75.8483ZM77.3225 38.0725C77.7799 37.773 78.2011 37.4572 78.5745 37.1201C78.7901 37.7174 78.9677 38.5003 78.9677 39.4842C78.9674 40.6965 78.3013 41.7461 77.3225 42.3172V38.0725ZM49.3546 3.37468V14.8067H52.645V3.37468C66.104 4.21385 76.8336 15.1867 77.2779 28.748C71.4227 25.6272 59.1335 24.6778 50.9998 24.6778C42.8661 24.6778 30.577 25.6272 24.7217 28.7462C25.166 15.1864 35.8957 4.21144 49.3546 3.37468ZM24.6775 42.3154C23.6984 41.7461 23.0323 40.6965 23.0323 39.4842C23.0323 38.4989 23.2099 37.7157 23.4255 37.1183C23.7989 37.4572 24.2201 37.773 24.6775 38.0708V42.3154ZM24.6789 32.9083C25.0012 31.2303 34.5711 27.9679 50.9998 27.9679C67.4382 27.9679 77.0112 31.2334 77.3222 32.9034C77.3225 36.1375 67.4762 39.4838 50.9998 39.4838C34.5317 39.4838 24.6872 36.141 24.6789 32.9083ZM27.9675 46.0643V39.7056C35.2209 42.4695 46.4623 42.7739 50.9998 42.7739C55.5374 42.7739 66.7784 42.4695 74.0321 39.7056V46.0643C74.0321 58.7649 63.7005 69.0966 50.9998 69.0966C38.2992 69.0966 27.9675 58.7649 27.9675 46.0643ZM50.9998 93.774C44.2595 93.774 38.6923 88.6775 37.934 82.1361C39.8639 80.6308 41.129 78.3095 41.129 75.6773V70.4491C44.1807 71.6894 47.5091 72.3873 50.9998 72.3873C54.4906 72.3873 57.819 71.6898 60.8706 70.4491V75.6773C60.8706 78.3095 62.1358 80.6308 64.0656 82.1361C63.3073 88.6771 57.7402 93.774 50.9998 93.774ZM81.896 80.6129H77.3225V77.3225C77.3225 77.2766 77.3405 72.6008 78.8343 68.0998L83.3422 57.5806H83.9033V72.6896C81.9931 73.3705 80.6129 75.1805 80.6129 77.3225C80.6129 78.5911 81.108 79.7374 81.896 80.6129ZM85.5481 78.9677C84.6416 78.9677 83.9029 78.2308 83.9029 77.3225C83.9029 76.4142 84.6416 75.6773 85.5481 75.6773C86.4547 75.6773 87.1933 76.4142 87.1933 77.3225C87.1933 78.2308 86.4547 78.9677 85.5481 78.9677ZM93.774 84.352C92.0729 83.1249 90.181 82.1458 88.1361 81.506C89.5395 80.6357 90.4837 79.0924 90.4837 77.3222C90.4837 75.1802 89.1035 73.3705 87.1933 72.6892V57.5802H87.7544L92.2128 67.9713C93.7495 72.5776 93.774 77.2762 93.774 77.3239V84.352Z" fill="black"/>
</svg>
