<?xml version="1.0" encoding="utf-8"?><svg xmlns="http://www.w3.org/2000/svg" xmlns:xlink="http://www.w3.org/1999/xlink"><symbol viewBox="0 0 11 21" id="arr-bot" xmlns="http://www.w3.org/2000/svg"><path d="M.75 20.25l9.5-9.5-9.5-9.5"/></symbol><symbol viewBox="0 0 20 20" id="calculator" xmlns="http://www.w3.org/2000/svg"><path d="M16.819 0H3.182a.91.91 0 0 0-.909.91v18.18c0 .503.407.91.91.91h13.636a.91.91 0 0 0 .909-.91V.91a.91.91 0 0 0-.91-.91zm-.91 1.818v2.727H4.091V1.818H15.91zM4.091 18.182V6.363H15.91v11.818H4.091v.001z"/><path d="M7.342 7.168H5.454A.455.455 0 0 0 5 7.622V9.51c0 .252.204.455.454.455h1.888a.455.455 0 0 0 .454-.455V7.622a.453.453 0 0 0-.454-.454zm3.601 0H9.057a.455.455 0 0 0-.455.454V9.51c0 .252.204.455.455.455h1.886a.455.455 0 0 0 .455-.455V7.622a.454.454 0 0 0-.455-.454zm3.603 0h-1.888a.454.454 0 0 0-.454.454V9.51c0 .252.204.455.454.455h1.888A.455.455 0 0 0 15 9.51V7.622a.454.454 0 0 0-.454-.454zm-7.204 3.706H5.454a.454.454 0 0 0-.454.454v1.889c0 .25.204.454.454.454h1.888a.454.454 0 0 0 .454-.454v-1.889a.453.453 0 0 0-.454-.454zm3.601 0H9.057a.454.454 0 0 0-.455.454v1.889c0 .25.204.454.455.454h1.886a.454.454 0 0 0 .455-.454v-1.889a.454.454 0 0 0-.455-.454zm-3.601 3.707H5.454a.454.454 0 0 0-.454.454v1.888c0 .252.204.455.454.455h1.888a.455.455 0 0 0 .454-.455v-1.888a.453.453 0 0 0-.454-.454zm3.601 0H9.057a.454.454 0 0 0-.455.454v1.888c0 .252.204.455.455.455h1.886a.455.455 0 0 0 .455-.455v-1.888a.453.453 0 0 0-.455-.454zm3.603-3.707h-1.888a.454.454 0 0 0-.454.454v5.595c0 .252.204.455.454.455h1.888a.455.455 0 0 0 .454-.455v-5.595a.454.454 0 0 0-.454-.454z"/></symbol><symbol viewBox="0 0 344.96 344.96" id="check" xmlns="http://www.w3.org/2000/svg"><g data-name="Слой 2"><path d="M321.85 86.24l-40-23.11-23.1-40H212.5L172.48 0l-40 23.11H86.24l-23.11 40-40 23.1v46.21L0 172.48l23.11 40v46.21l40 23.11 23.11 40h46.21l40 23.1 40-23.11h46.21l23.11-40 40-23.11V212.5l23.11-40-23.11-40V86.24zM156.91 243.07a16.79 16.79 0 0 1-23.34 0l-50.45-50.44a16.19 16.19 0 0 1 0-22.89l13.35-13.35a16.19 16.19 0 0 1 22.89 0l25.87 25.87 80.34-80.35a16.19 16.19 0 0 1 22.89 0l13.35 13.35a16.19 16.19 0 0 1 0 22.89z" data-name="Capa 1"/></g></symbol><symbol viewBox="0 0 18 18" id="clock" xmlns="http://www.w3.org/2000/svg"><path d="M9 0a9 9 0 1 0 0 18A9 9 0 0 0 9 0zm3.89 10.712H9.076c-.013 0-.025-.003-.038-.004-.012 0-.024.004-.037.004a.622.622 0 0 1-.623-.623V3.735a.622.622 0 0 1 1.245 0v5.732h3.268a.622.622 0 0 1 0 1.245z"/></symbol><symbol viewBox="0 0 20 20" id="envelope" xmlns="http://www.w3.org/2000/svg"><g clip-path="url(#eclip0)"><path d="M1.92 6.987c.253.178 1.015.708 2.288 1.59a559.43 559.43 0 0 1 2.924 2.037c.074.052.232.165.474.34.242.175.443.317.603.424.16.108.353.23.58.363.227.134.44.235.642.301.2.067.387.1.558.1h.022c.171 0 .357-.033.558-.1.201-.066.415-.167.642-.3.227-.135.42-.256.58-.364.16-.107.361-.249.603-.424s.4-.288.474-.34l5.224-3.628a5.298 5.298 0 0 0 1.361-1.372c.365-.536.547-1.098.547-1.685a1.71 1.71 0 0 0-.53-1.261 1.725 1.725 0 0 0-1.256-.525H1.786c-.573 0-1.014.193-1.323.58C.154 3.11 0 3.593 0 4.174c0 .469.205.977.614 1.524.409.547.844.976 1.306 1.289z"/><path d="M18.884 8.18c-2.44 1.652-4.293 2.936-5.558 3.851-.424.313-.768.556-1.032.731a6.373 6.373 0 0 1-1.055.536c-.439.182-.848.273-1.228.273H9.99c-.38 0-.789-.09-1.228-.273a6.378 6.378 0 0 1-1.055-.536 26.482 26.482 0 0 1-1.032-.73c-1.004-.737-2.853-2.02-5.547-3.851A5.912 5.912 0 0 1 0 7.21v8.861c0 .492.175.912.525 1.261.35.35.77.525 1.26.525h16.43a1.72 1.72 0 0 0 1.26-.524c.35-.35.525-.77.525-1.262V7.21c-.32.357-.692.68-1.116.97z"/></g><defs><clipPath id="eclip0"><path d="M0 0h20v20H0z"/></clipPath></defs></symbol></svg>