<svg xmlns="http://www.w3.org/2000/svg" xmlns:xlink="http://www.w3.org/1999/xlink" width="26" height="26" viewBox="0 0 26 26"><defs><path id="a33ba" d="M151.94 1441.81a1.44 1.44 0 0 1-2.88 0v-4.31a1.44 1.44 0 0 1 2.88 0zm-1.44-7.19a1.44 1.44 0 1 1 0-2.87 1.44 1.44 0 0 1 0 2.87zm0-7.18a10.07 10.07 0 0 0 0 20.12 10.07 10.07 0 0 0 0-20.12s5.55 0 0 0zm0-1.44a11.5 11.5 0 1 1 0 23 11.5 11.5 0 0 1 0-23z"/></defs><g><g transform="translate(-137 -1424)"><use fill="#fff" xlink:href="#a33ba"/></g></g></svg>