<svg width="44" height="57" viewBox="0 0 44 57" fill="none" xmlns="http://www.w3.org/2000/svg">
<path d="M31.3187 0.487061H2.29674C1.48874 0.487061 0.83374 1.14206 0.83374 2.41306V55.4871C0.83374 55.8321 1.48874 56.4871 2.29674 56.4871H42.3707C43.1787 56.4871 43.8337 55.8321 43.8337 55.4871V13.4651C43.8337 12.7691 43.7407 12.5451 43.5767 12.3801L31.9407 0.744061C31.7757 0.580061 31.5517 0.487061 31.3187 0.487061Z" fill="#E9E9E0"/>
<path d="M31.8337 0.638062V12.4871H43.6827L31.8337 0.638062Z" fill="#D9D7CA"/>
<path d="M12.8337 13.4871H6.83374C6.28174 13.4871 5.83374 13.0391 5.83374 12.4871C5.83374 11.9351 6.28174 11.4871 6.83374 11.4871H12.8337C13.3857 11.4871 13.8337 11.9351 13.8337 12.4871C13.8337 13.0391 13.3857 13.4871 12.8337 13.4871Z" fill="#8697CB"/>
<path d="M15.8337 18.4871H6.83374C6.28174 18.4871 5.83374 18.0391 5.83374 17.4871C5.83374 16.9351 6.28174 16.4871 6.83374 16.4871H15.8337C16.3857 16.4871 16.8337 16.9351 16.8337 17.4871C16.8337 18.0391 16.3857 18.4871 15.8337 18.4871Z" fill="#8697CB"/>
<path d="M19.8337 18.4871C19.5737 18.4871 19.3137 18.3771 19.1237 18.1971C18.9437 18.0071 18.8337 17.7471 18.8337 17.4871C18.8337 17.2271 18.9437 16.9671 19.1237 16.7771C19.4937 16.4071 20.1737 16.4071 20.5437 16.7771C20.7237 16.9671 20.8337 17.2271 20.8337 17.4871C20.8337 17.7471 20.7237 18.0071 20.5437 18.1971C20.3537 18.3771 20.0937 18.4871 19.8337 18.4871Z" fill="#8697CB"/>
<path d="M31.8337 18.4871H23.8337C23.2817 18.4871 22.8337 18.0391 22.8337 17.4871C22.8337 16.9351 23.2817 16.4871 23.8337 16.4871H31.8337C32.3857 16.4871 32.8337 16.9351 32.8337 17.4871C32.8337 18.0391 32.3857 18.4871 31.8337 18.4871Z" fill="#8697CB"/>
<path d="M6.83374 33.4871C6.57374 33.4871 6.31374 33.3771 6.12374 33.1971C5.94374 33.0071 5.83374 32.7471 5.83374 32.4871C5.83374 32.2271 5.94374 31.9671 6.12374 31.7771C6.49374 31.4071 7.17374 31.4071 7.54374 31.7771C7.72374 31.9671 7.83374 32.2171 7.83374 32.4871C7.83374 32.7471 7.72374 33.0071 7.54374 33.1971C7.35374 33.3771 7.09374 33.4871 6.83374 33.4871Z" fill="#8697CB"/>
<path d="M18.8337 33.4871H10.8337C10.2817 33.4871 9.83374 33.0391 9.83374 32.4871C9.83374 31.9351 10.2817 31.4871 10.8337 31.4871H18.8337C19.3857 31.4871 19.8337 31.9351 19.8337 32.4871C19.8337 33.0391 19.3857 33.4871 18.8337 33.4871Z" fill="#8697CB"/>
<path d="M37.8337 18.4871H35.8337C35.2817 18.4871 34.8337 18.0391 34.8337 17.4871C34.8337 16.9351 35.2817 16.4871 35.8337 16.4871H37.8337C38.3857 16.4871 38.8337 16.9351 38.8337 17.4871C38.8337 18.0391 38.3857 18.4871 37.8337 18.4871Z" fill="#8697CB"/>
<path d="M28.8337 23.4871H6.83374C6.28174 23.4871 5.83374 23.0391 5.83374 22.4871C5.83374 21.9351 6.28174 21.4871 6.83374 21.4871H28.8337C29.3857 21.4871 29.8337 21.9351 29.8337 22.4871C29.8337 23.0391 29.3857 23.4871 28.8337 23.4871Z" fill="#8697CB"/>
<path d="M37.8337 23.4871H31.8337C31.2817 23.4871 30.8337 23.0391 30.8337 22.4871C30.8337 21.9351 31.2817 21.4871 31.8337 21.4871H37.8337C38.3857 21.4871 38.8337 21.9351 38.8337 22.4871C38.8337 23.0391 38.3857 23.4871 37.8337 23.4871Z" fill="#8697CB"/>
<path d="M10.8337 28.4871H6.83374C6.28174 28.4871 5.83374 28.0391 5.83374 27.4871C5.83374 26.9351 6.28174 26.4871 6.83374 26.4871H10.8337C11.3857 26.4871 11.8337 26.9351 11.8337 27.4871C11.8337 28.0391 11.3857 28.4871 10.8337 28.4871Z" fill="#8697CB"/>
<path d="M24.8337 28.4871H14.8337C14.2817 28.4871 13.8337 28.0391 13.8337 27.4871C13.8337 26.9351 14.2817 26.4871 14.8337 26.4871H24.8337C25.3857 26.4871 25.8337 26.9351 25.8337 27.4871C25.8337 28.0391 25.3857 28.4871 24.8337 28.4871Z" fill="#8697CB"/>
<path d="M37.8337 28.4871H28.8337C28.2817 28.4871 27.8337 28.0391 27.8337 27.4871C27.8337 26.9351 28.2817 26.4871 28.8337 26.4871H37.8337C38.3857 26.4871 38.8337 26.9351 38.8337 27.4871C38.8337 28.0391 38.3857 28.4871 37.8337 28.4871Z" fill="#8697CB"/>
<path d="M42.3707 56.4871H2.29674C1.48874 56.4871 0.83374 55.8321 0.83374 55.0241V39.4871H43.8337V55.0241C43.8337 55.8321 43.1787 56.4871 42.3707 56.4871Z" fill="#0096E6"/>
<path d="M17.8337 48.1691C17.8337 48.9981 17.7447 49.7071 17.5667 50.2951C17.3887 50.8831 17.1637 51.3751 16.8897 51.7721C16.6157 52.1691 16.3087 52.4811 15.9667 52.7091C15.6247 52.9371 15.2947 53.1071 14.9757 53.2221C14.6567 53.3361 14.3647 53.4091 14.1007 53.4411C13.8367 53.4711 13.6407 53.4871 13.5137 53.4871H9.69971V43.4111H12.7337C13.5817 43.4111 14.3267 43.5461 14.9687 43.8141C15.6107 44.0821 16.1447 44.4411 16.5687 44.8871C16.9927 45.3331 17.3087 45.8421 17.5187 46.4111C17.7287 46.9811 17.8337 47.5671 17.8337 48.1691ZM12.9667 52.2841C14.0787 52.2841 14.8807 51.9291 15.3727 51.2181C15.8647 50.5071 16.1107 49.4771 16.1107 48.1281C16.1107 47.7091 16.0607 47.2941 15.9607 46.8841C15.8597 46.4741 15.6667 46.1031 15.3797 45.7701C15.0927 45.4371 14.7027 45.1681 14.2107 44.9631C13.7187 44.7581 13.0807 44.6551 12.2967 44.6551H11.3397V52.2841H12.9667Z" fill="white"/>
<path d="M27.8087 48.4011C27.8087 49.2491 27.7017 49.9961 27.4877 50.6431C27.2737 51.2901 26.9767 51.8281 26.5987 52.2561C26.2207 52.6851 25.7787 53.0081 25.2727 53.2271C24.7667 53.4461 24.2127 53.5551 23.6117 53.5551C23.0107 53.5551 22.4567 53.4461 21.9507 53.2271C21.4447 53.0081 21.0027 52.6851 20.6247 52.2561C20.2467 51.8271 19.9497 51.2901 19.7357 50.6431C19.5217 49.9961 19.4147 49.2481 19.4147 48.4011C19.4147 47.5541 19.5217 46.8081 19.7357 46.1661C19.9497 45.5231 20.2457 44.9881 20.6247 44.5601C21.0027 44.1311 21.4447 43.8061 21.9507 43.5821C22.4567 43.3581 23.0107 43.2471 23.6117 43.2471C24.2127 43.2471 24.7667 43.3581 25.2727 43.5821C25.7787 43.8061 26.2207 44.1311 26.5987 44.5601C26.9767 44.9891 27.2727 45.5241 27.4877 46.1661C27.7007 46.8081 27.8087 47.5531 27.8087 48.4011ZM23.5697 52.2161C23.9067 52.2161 24.2277 52.1501 24.5337 52.0181C24.8387 51.8861 25.1127 51.6691 25.3537 51.3691C25.5947 51.0681 25.7847 50.6741 25.9207 50.1861C26.0567 49.6981 26.1297 49.1041 26.1397 48.4021C26.1307 47.7181 26.0597 47.1371 25.9277 46.6591C25.7957 46.1801 25.6137 45.7861 25.3807 45.4761C25.1477 45.1661 24.8837 44.9431 24.5877 44.8061C24.2917 44.6691 23.9797 44.6011 23.6507 44.6011C23.3137 44.6011 22.9917 44.6641 22.6867 44.7921C22.3807 44.9201 22.1077 45.1361 21.8667 45.4411C21.6247 45.7471 21.4357 46.1401 21.2997 46.6241C21.1637 47.1081 21.0897 47.6991 21.0807 48.4011C21.0897 49.0851 21.1607 49.6681 21.2927 50.1511C21.4247 50.6341 21.6067 51.0281 21.8397 51.3341C22.0727 51.6401 22.3367 51.8621 22.6327 52.0041C22.9297 52.1451 23.2417 52.2161 23.5697 52.2161Z" fill="white"/>
<path d="M36.9406 52.4621C36.5666 52.8261 36.1426 53.1001 35.6696 53.2821C35.1956 53.4651 34.6856 53.5551 34.1386 53.5551C33.5366 53.5551 32.9836 53.4461 32.4776 53.2271C31.9716 53.0081 31.5296 52.6851 31.1516 52.2561C30.7736 51.8271 30.4766 51.2901 30.2626 50.6431C30.0486 49.9961 29.9417 49.2481 29.9417 48.4011C29.9417 47.5541 30.0486 46.8081 30.2626 46.1661C30.4766 45.5231 30.7726 44.9881 31.1516 44.5601C31.5296 44.1311 31.9736 43.8061 32.4846 43.5821C32.9946 43.3581 33.5466 43.2471 34.1386 43.2471C34.6856 43.2471 35.1956 43.3381 35.6696 43.5201C36.1436 43.7031 36.5666 43.9761 36.9406 44.3401L35.8056 45.3521C35.5776 45.0871 35.3246 44.8961 35.0466 44.7781C34.7687 44.6601 34.4797 44.6001 34.1786 44.6001C33.8417 44.6001 33.5196 44.6631 33.2146 44.7911C32.9086 44.9191 32.6356 45.1351 32.3946 45.4401C32.1526 45.7461 31.9636 46.1391 31.8276 46.6231C31.6916 47.1071 31.6177 47.6981 31.6087 48.4001C31.6177 49.0841 31.6886 49.6671 31.8206 50.1501C31.9526 50.6331 32.1346 51.0271 32.3676 51.3331C32.6006 51.6391 32.8646 51.8611 33.1606 52.0031C33.4566 52.1451 33.7686 52.2151 34.0976 52.2151C34.4266 52.2151 34.7336 52.1551 35.0206 52.0371C35.3076 51.9191 35.5696 51.7271 35.8066 51.4631L36.9406 52.4621Z" fill="white"/>
</svg>
