<?xml version="1.0" encoding="utf-8"?><svg xmlns="http://www.w3.org/2000/svg" xmlns:xlink="http://www.w3.org/1999/xlink"><symbol viewBox="0 0 13 24" id="arr-left" xmlns="http://www.w3.org/2000/svg"><path d="M12.377.563L1.33 11.611l11.047 11.047"/></symbol><symbol viewBox="0 0 13 24" id="arr-right" xmlns="http://www.w3.org/2000/svg"><path d="M.623 22.84L11.67 11.793.623.745"/></symbol><symbol viewBox="0 0 14 18" id="calculator" xmlns="http://www.w3.org/2000/svg"><path d="M13.177.23H1.74a.763.763 0 0 0-.763.763v15.25c0 .42.342.762.763.762h11.437a.763.763 0 0 0 .763-.762V.992a.763.763 0 0 0-.763-.763zm-.762 1.525v2.287H2.502V1.755h9.913zM2.502 15.48V5.567h9.913v9.912H2.502v.002z"/><path d="M5.229 6.242H3.646a.381.381 0 0 0-.382.381v1.584c0 .21.171.381.382.381h1.583c.21 0 .38-.17.38-.38V6.622a.38.38 0 0 0-.38-.381zm3.021 0H6.666a.381.381 0 0 0-.381.381v1.584c0 .21.17.381.38.381H8.25a.38.38 0 0 0 .382-.38V6.622a.38.38 0 0 0-.382-.381zm3.02 0H9.689a.38.38 0 0 0-.381.381v1.584c0 .21.17.381.38.381h1.584c.21 0 .38-.17.38-.38V6.622a.38.38 0 0 0-.38-.381zM5.229 9.35H3.646a.382.382 0 0 0-.382.382v1.584c0 .21.171.38.382.38h1.583c.21 0 .38-.17.38-.38V9.732a.38.38 0 0 0-.38-.381zm3.021 0H6.666a.382.382 0 0 0-.381.382v1.584c0 .21.17.38.38.38H8.25a.38.38 0 0 0 .382-.38V9.732a.38.38 0 0 0-.382-.381zm-3.021 3.11H3.646a.38.38 0 0 0-.382.38v1.584a.38.38 0 0 0 .382.382h1.583a.38.38 0 0 0 .38-.382V12.84a.38.38 0 0 0-.38-.38zm3.021 0H6.666a.38.38 0 0 0-.381.38v1.584c0 .212.17.382.38.382H8.25a.382.382 0 0 0 .382-.382V12.84a.38.38 0 0 0-.382-.38zm3.02-3.11H9.689a.38.38 0 0 0-.381.382v4.692c0 .212.17.382.38.382h1.584a.38.38 0 0 0 .38-.382V9.732a.38.38 0 0 0-.38-.381z"/></symbol><symbol viewBox="0 0 17 13" id="check" xmlns="http://www.w3.org/2000/svg"><path d="M1.095 6.72l4.954 4.953L16.604 1.12"/></symbol><symbol viewBox="0 0 11 14" id="maps" xmlns="http://www.w3.org/2000/svg"><path d="M5.035.105a5.027 5.027 0 0 1 5.021 5.022c0 3.436-4.494 8.48-4.685 8.694-.18.2-.493.2-.673 0C4.507 13.608.013 8.563.013 5.127A5.027 5.027 0 0 1 5.035.105zm0 7.548A2.53 2.53 0 0 0 7.56 5.127 2.53 2.53 0 0 0 5.035 2.6a2.53 2.53 0 0 0-2.527 2.527 2.53 2.53 0 0 0 2.527 2.526z"/></symbol><symbol viewBox="0 0 46 46" id="servises-1" xmlns="http://www.w3.org/2000/svg"><path d="M11.02 5.685A5.38 5.38 0 0 0 5.645.31 5.38 5.38 0 0 0 .272 5.685v34.543h.003c0 .015-.003.03-.003.046A5.333 5.333 0 0 0 5.6 45.6h39.962V5.685H11.02zm-9.212 0a3.843 3.843 0 0 1 3.086-3.762.76.76 0 0 0 .752.691.76.76 0 0 0 .752-.691 3.843 3.843 0 0 1 3.086 3.762V36.47a5.358 5.358 0 0 0-4.39-1.587c-.081.008-.161.024-.242.037-.098.014-.197.026-.294.046-.106.021-.208.052-.31.08-.068.018-.137.032-.204.053a5 5 0 0 0-.377.139c-.038.015-.078.026-.115.043a5.252 5.252 0 0 0-.447.216l-.02.01a5.408 5.408 0 0 0-1.277.963V5.685zm42.22 38.381H5.6c-2.091 0-3.792-1.701-3.792-3.838a3.843 3.843 0 0 1 3.838-3.838 3.843 3.843 0 0 1 3.838 3.838h1.535V7.22h33.008v36.846z"/><path d="M35.596 16.432a.77.77 0 0 0 1.07-.184.77.77 0 0 0-.184-1.07l-1.254-.886a.77.77 0 0 0-1.071.184.77.77 0 0 0 .184 1.071l1.255.885zm3.764 2.656a.766.766 0 0 0 1.07-.185.769.769 0 0 0-.186-1.07l-1.255-.885a.769.769 0 0 0-.885 1.255l1.256.885zM28.675 31.784c0 .425.343.768.767.768h1.536a.767.767 0 1 0 0-1.536h-1.536a.767.767 0 0 0-.767.768zm10.746-10.453v1.536a.767.767 0 1 0 1.536 0V21.33a.767.767 0 1 0-1.536 0zm-7.587-7.555a.77.77 0 0 0 1.07-.184.77.77 0 0 0-.185-1.07l-1.254-.886a.77.77 0 0 0-.887 1.255l1.256.885zm1.446 18.008c0 .425.343.768.768.768h1.535a.767.767 0 1 0 0-1.536h-1.535a.767.767 0 0 0-.768.768zm-10.746 0a.767.767 0 0 0-.768-.768h-1.535a.767.767 0 1 0 0 1.536h1.535a.767.767 0 0 0 .768-.768zm17.655-3.544a.767.767 0 0 0 .768-.768v-1.535a.767.767 0 1 0-1.536 0v1.535c0 .425.343.768.768.768zM28.07 11.12a.77.77 0 0 0 1.07-.184.77.77 0 0 0-.184-1.07l-1.254-.886a.772.772 0 0 0-1.07.184.77.77 0 0 0 .183 1.071l1.255.885zm11.352 19.897h-.768a.767.767 0 1 0 0 1.535h2.303v-2.01a.767.767 0 1 0-1.535 0v.474zm-23.797 1.535h1.535a.767.767 0 1 0 0-1.536h-1.535a.767.767 0 1 0 0 1.536zM14.09 21.805a.767.767 0 0 0 .768-.768v-1.535a.767.767 0 1 0-1.536 0v1.535c0 .425.343.768.768.768zm1.882-3.631a.77.77 0 0 0 .442-.14l1.255-.886a.769.769 0 0 0-.887-1.255l-1.254.886a.768.768 0 0 0 .444 1.395zm3.763-2.656a.77.77 0 0 0 .442-.14l1.254-.886a.769.769 0 0 0-.886-1.255l-1.255.886a.769.769 0 0 0 .445 1.395zM14.09 26.41a.767.767 0 0 0 .768-.767v-1.535a.767.767 0 1 0-1.536 0v1.535c0 .424.343.768.768.768zm9.408-13.548a.77.77 0 0 0 .442-.14l1.254-.886a.769.769 0 0 0-.886-1.255l-1.255.886a.768.768 0 0 0 .445 1.395zm.571 18.922c0 .425.343.768.768.768h1.535a.767.767 0 1 0 0-1.536h-1.535a.767.767 0 0 0-.768.768zm-9.979-.768a.767.767 0 0 0 .768-.767v-1.536a.767.767 0 1 0-1.536 0v1.536c0 .424.343.767.768.767zm17.655 10.747h9.98v-6.14h-9.98v6.14zm1.535-4.606h6.909v3.07H33.28v-3.07zM17.16 23.34v1.535a.767.767 0 1 0 1.535 0V23.34a.767.767 0 1 0-1.535 0zm6.909-2.303a.767.767 0 0 0-.768.768v1.535a.767.767 0 1 0 1.536 0v-1.535a.767.767 0 0 0-.768-.768zm-4.606 1.536h1.535a.767.767 0 1 0 0-1.536h-1.535a.767.767 0 1 0 0 1.536zm.767 5.373a.767.767 0 0 0-.767-.768h-1.535a.767.767 0 1 0 0 1.535h1.535a.767.767 0 0 0 .768-.767zm2.304.768h1.535a.767.767 0 0 0 .768-.768V26.41a.767.767 0 1 0-1.536 0v.767h-.767a.767.767 0 1 0 0 1.536zm8.443-6.909c0 .424.344.768.768.768h1.535a.767.767 0 1 0 0-1.536h-1.535a.767.767 0 0 0-.768.768zm4.607 0v1.535a.767.767 0 1 0 1.535 0v-1.535a.767.767 0 1 0-1.535 0zm.766 6.909a.767.767 0 0 0 .768-.768V26.41a.767.767 0 1 0-1.535 0v.767h-.767a.767.767 0 1 0 0 1.536h1.535zm-6.14-3.071a.767.767 0 0 0 .768-.768V23.34a.767.767 0 1 0-1.536 0v1.535c0 .425.343.768.768.768zm0 3.07h1.535a.767.767 0 1 0 0-1.535H30.21a.767.767 0 1 0 0 1.535zm-.768 6.909h-3.838a.767.767 0 1 0 0 1.535h3.838a.767.767 0 1 0 0-1.535zm0 2.303H24.07a.767.767 0 1 0 0 1.535h5.373a.767.767 0 1 0 0-1.535zm0 2.303h-7.676a.767.767 0 1 0 0 1.535h7.676a.767.767 0 1 0 0-1.535zM3.343 4.917a.768.768 0 1 0 0-1.535.768.768 0 0 0 0 1.535zm4.606 0a.768.768 0 1 0 0-1.535.768.768 0 0 0 0 1.535zM5.646 7.22a.768.768 0 1 0 0-1.535.768.768 0 0 0 0 1.535zM3.343 9.523a.768.768 0 1 0 0-1.535.768.768 0 0 0 0 1.535zm4.606 0a.768.768 0 1 0 0-1.535.768.768 0 0 0 0 1.535zm-4.606 4.606a.768.768 0 1 0 0-1.536.768.768 0 0 0 0 1.536zm4.606 0a.768.768 0 1 0 0-1.536.768.768 0 0 0 0 1.536zm-2.303-2.303a.768.768 0 1 0 0-1.535.768.768 0 0 0 0 1.535zm0 4.605a.768.768 0 1 0 0-1.535.768.768 0 0 0 0 1.535zm-2.303 2.303a.768.768 0 1 0 0-1.535.768.768 0 0 0 0 1.535zm4.606 0a.768.768 0 1 0 0-1.535.768.768 0 0 0 0 1.535zM3.343 23.34a.768.768 0 1 0 0-1.535.768.768 0 0 0 0 1.535zm4.606 0a.768.768 0 1 0 0-1.535.768.768 0 0 0 0 1.535zm-2.303-2.303a.768.768 0 1 0 0-1.535.768.768 0 0 0 0 1.535zm0 4.606a.768.768 0 1 0 0-1.535.768.768 0 0 0 0 1.535zm-2.303 2.303a.768.768 0 1 0 0-1.535.768.768 0 0 0 0 1.535zm4.606 0a.768.768 0 1 0 0-1.535.768.768 0 0 0 0 1.535zm-4.606 4.606a.768.768 0 1 0 0-1.536.768.768 0 0 0 0 1.536zm4.606 0a.768.768 0 1 0 0-1.536.768.768 0 0 0 0 1.536zm-2.303-2.303a.768.768 0 1 0 0-1.536.768.768 0 0 0 0 1.536zm0 4.606a.768.768 0 1 0 0-1.536.768.768 0 0 0 0 1.536z"/></symbol><symbol viewBox="0 0 56 51" id="servises-10" xmlns="http://www.w3.org/2000/svg"><path d="M25.72 40.21a.736.736 0 0 0 .37-1.372l-.358-.208a.736.736 0 0 0-.739 1.273l.36.208a.728.728 0 0 0 .368.099zm-1.425-2.414l-.359-.209a.735.735 0 1 0-.738 1.273l.359.209a.736.736 0 0 0 .738-1.273zM22.5 36.754l-.36-.209a.736.736 0 1 0-.738 1.273l.359.208a.736.736 0 1 0 .739-1.273zm-1.796-1.043l-.359-.208a.736.736 0 0 0-.738 1.273l.359.208a.736.736 0 1 0 .738-1.273zm-1.795-1.042l-.36-.208a.736.736 0 1 0-.738 1.273l.36.208a.736.736 0 0 0 .738-1.273zm-1.795-1.042l-.36-.209a.736.736 0 0 0-.738 1.273l.36.208a.736.736 0 0 0 .738-1.273zm-1.796-1.043l-.36-.208a.736.736 0 0 0-.738 1.273l.36.208a.736.736 0 0 0 .738-1.273zm-1.795-1.041l-.359-.209a.736.736 0 0 0-.74 1.272l.359.208a.736.736 0 0 0 .74-1.271zm-1.795-1.042l-.36-.209a.736.736 0 0 0-.74 1.272l.36.209a.736.736 0 0 0 .74-1.272zm-1.797-1.042l-1.435-.834a.735.735 0 1 0-.739 1.271l.358.209-.437.262a.736.736 0 0 0 .757 1.261l1.506-.903a.735.735 0 0 0-.01-1.266zm30.294-2.935l.36.208a.736.736 0 0 0 .738-1.273l-.36-.208a.736.736 0 1 0-.738 1.273zm1.795 1.042l.719.417a.736.736 0 1 0 .738-1.273l-.718-.417a.736.736 0 0 0-.739 1.273zm3.253.186l-.36-.208a.736.736 0 0 0-.738 1.273l.36.208a.736.736 0 0 0 .738-1.273zm2.872 1.668l-.358-.208.437-.262a.736.736 0 1 0-.757-1.261l-1.506.903a.736.736 0 0 0 .01 1.267l1.436.833a.736.736 0 0 0 .738-1.273zm-4.065.301l-.377.226a.735.735 0 1 0 .756 1.261l.376-.225a.735.735 0 0 0-.755-1.262zm-1.884 1.129l-.377.227a.736.736 0 0 0 .759 1.261l.376-.226a.736.736 0 0 0-.758-1.262zm-1.881 1.13l-.376.226a.735.735 0 1 0 .755 1.261l.377-.225a.735.735 0 0 0-.756-1.262zm-1.882 1.129l-.377.225a.736.736 0 1 0 .756 1.263l.377-.226a.736.736 0 1 0-.756-1.262zm-1.148 1.116a.736.736 0 0 0-.736.014l-.376.226a.736.736 0 0 0 .758 1.261l.377-.226a.736.736 0 0 0-.023-1.275zm-1.88 1.13a.735.735 0 0 0-.736.014l-.377.225a.735.735 0 1 0 .756 1.261l.376-.225a.735.735 0 0 0-.019-1.275zm-1.882 1.129a.735.735 0 0 0-.737.014l-.377.225a.735.735 0 1 0 .756 1.262l.377-.226a.735.735 0 0 0-.02-1.275zm-1.884 1.129a.736.736 0 0 0-.737.014l-.376.226a.736.736 0 0 0 .759 1.262l.376-.227a.736.736 0 0 0-.022-1.275zm-2.619 1.143l-.377.226a.736.736 0 0 0 .759 1.262l.376-.227a.736.736 0 0 0-.758-1.26zM15.21 27.442a.735.735 0 0 0 .379-.105l.376-.226a.736.736 0 1 0-.758-1.261l-.377.226a.736.736 0 0 0 .38 1.366zm-2.26 1.355a.728.728 0 0 0 .378-.105l.753-.451a.735.735 0 1 0-.756-1.262l-.753.451a.735.735 0 0 0 .379 1.367zm-1.88 1.13a.735.735 0 0 0 .378-.105l.376-.226a.736.736 0 1 0-.758-1.262l-.377.226a.736.736 0 0 0 .38 1.367zm18.253 10.787l-1.437-.834a.737.737 0 0 0-.747.006l-1.506.904a.736.736 0 1 0 .757 1.26l1.133-.68 1.061.616a.736.736 0 1 0 .739-1.272z"/><path d="M55.848 28.745a.73.73 0 0 0-.309-.367l-15.601-9.056L32.535 6.29l-.003-.004-.009-.01a.732.732 0 0 0-.185-.21c-.01-.007-.023-.009-.034-.016a.734.734 0 0 0-.218-.106.742.742 0 0 0-.134-.01.722.722 0 0 0-.144-.01.736.736 0 0 0-.25.081c-.008.005-.017.004-.026.01l-.005.001-8.884 5.129c-.004.002-.006.007-.01.01l-.012.004-9.101 5.686a.736.736 0 0 0-.252.982l1.714 3.074-14.621 8.77a.733.733 0 0 0-.123.097c-.008.008-.019.013-.027.021a.728.728 0 0 0-.163.275.724.724 0 0 0-.038.189c-.001.017-.01.033-.01.05v4.414a.692.692 0 0 0 .023.115c.005.036.012.07.021.105a.77.77 0 0 0 .08.166.686.686 0 0 0 .053.077c.042.05.092.093.147.13.017.012.027.03.046.041l26.568 15.424c.016.01.034.014.051.022a.737.737 0 0 0 .292.075c.01 0 .018.005.028.005.012 0 .023-.007.035-.008a.729.729 0 0 0 .294-.079c.015-.008.033-.011.048-.02l27.862-16.712a.698.698 0 0 0 .08-.072.783.783 0 0 0 .224-.313.717.717 0 0 0 .038-.188c.001-.02.012-.038.012-.059v-4.388c0-.01.003-.019.003-.029a.729.729 0 0 0-.057-.264zM31.622 7.66l8.523 15.006-7.607 4.393-8.527-15.005 7.61-4.394zm5.145 18.656v4.204l-7.415 4.28v-5.178l.116.197a.736.736 0 0 0 1.03.246l2.144-1.369 4.125-2.381zm-21.874-8.594l7.857-4.91 8.53 15.01-.931.594-6.704-11.377a.736.736 0 0 0-.997-.267l-6.294 3.57-1.46-2.62zm9.823 10.353l-2.847-1.643a.735.735 0 0 0-1.103.637v3.624l-2.802-1.617v-7.957l4.78-2.71 5.164 8.763a.693.693 0 0 0-.027.135V34.8l-2.797-1.615v-4.473a.736.736 0 0 0-.368-.638zm-1.103 1.062v3.2l-1.376-.794v-3.2l1.376.794zm2.96 19.725L1.471 34.289v-2.712L26.573 46.15v2.712zm.729-3.99L2.186 30.292l13.729-8.235a.74.74 0 0 0 .52-.07l.058-.034V29.5c0 .263.14.506.368.638l4.272 2.466.198.114 6.918 3.994.003.001a.72.72 0 0 0 .128.053c.016.006.032.016.049.02.042.01.084.015.126.017.02.002.041.008.061.008h.001a.733.733 0 0 0 .367-.099l8.883-5.129a.74.74 0 0 0 .056-.05.715.715 0 0 0 .134-.117.996.996 0 0 0 .136-.245.707.707 0 0 0 .022-.11.694.694 0 0 0 .023-.115v-5.48l.105-.06a.69.69 0 0 0 .086.075l.36.209a.734.734 0 0 0 .946-1.088l1.78-1.028a.736.736 0 0 0 .27-1.005l-.007-.006-.399-.702 12.343 7.163-26.42 15.848zM54.43 33.013L28.044 48.84v-2.698l26.387-15.826v2.698z"/></symbol><symbol viewBox="0 0 50 50" id="servises-2" xmlns="http://www.w3.org/2000/svg"><path d="M49.158 41l-11.674-5.45c-.016-.018-.036-.033-.055-.05a.984.984 0 0 0-.062-.053c-.015-.012-.027-.026-.042-.037-.027-.018-.056-.027-.084-.041-.015-.008-.027-.02-.043-.027l-5.783-2.478-9.203-3.944 2.542-.847 6.173 2.555h.001l16.935 7.007a.81.81 0 0 0 .757-.074.809.809 0 0 0 .358-.671V11.084a.806.806 0 0 0-.498-.745l-6.452-2.67L25.092.66a.786.786 0 0 0-.184-.05l-.004-.002a.811.811 0 0 0-.36.031c-.005.002-.01 0-.015.002L.334 8.706l.511 1.53 23.132-7.711v24.107l-3.226 1.075v-6.945a.808.808 0 0 0-1.041-.772L1.161 25.635a.807.807 0 0 0-.572.772V39.31c0 .311.179.594.458.728l8.58 4.103L5.9 45.835a.804.804 0 0 0-.012 1.463l4.843 2.294.69-1.458-3.273-1.55 3.376-1.534 8.07 3.86c.024.011.049.015.072.023.027.01.053.02.08.027a.772.772 0 0 0 .142.02c.02.002.037.008.056.008.007 0 .013-.002.02-.003a.82.82 0 0 0 .147-.021c.02-.005.042-.006.063-.012.021-.007.041-.017.062-.025.009-.003.017-.002.025-.005l16.936-7.258a.803.803 0 0 0 .49-.74v-3.498l9.2 4.295-14.374 6.533.668 1.468 15.968-7.258a.806.806 0 0 0 .008-1.465zm-6.632-11.367V9.62l4.839 2.002v24.06l-4.839-2.002v-4.048zm-1.613 3.381l-7.487-3.098 4.204-1.05 3.283 1.313v2.835zm-5.645-5.22V21.39l1.613-.403v6.402l-1.613.403zm5.645.648l-2.42-.968v-6.328l1.21.484 1.21.484v6.328zm0-8.065l-1.21-.484-1.21-.484V17.92l2.42.968v1.489zM32.042 5.282l8.871 3.671v8.198l-2.42-.968v-2.68h-1.612V16.1l-4.84 1.21V5.282zm0 13.69l4.839-1.21v1.563l-4.84 1.21v-1.563zm0 3.226l1.613-.403v6.401l-1.613.404v-6.402zM25.59 2.613l4.839 2.002v24.061l-4.839-2.002V2.613zm-5.692 27.07l9.171 3.931-14.407 6.309-11.047-5.284 1.24-.378 4.84-1.473 2.062-.627 1.164-.354 4.84-1.473 2.137-.65zm-14.47 2.718v-2.187l3.226-1.075v2.28l-3.226.982zm8.065-2.454v-2.152l3.226-1.075v2.245l-1.345.409-1.881.573zm-11.29-2.942l16.935-5.155v6.38l-.806.245V25.6a.805.805 0 0 0-1.062-.765l-4.838 1.613a.806.806 0 0 0-.552.765v3.225l-1.613.49V28.02a.806.806 0 0 0-1.061-.765l-4.84 1.612a.807.807 0 0 0-.55.766v3.26l-1.614.49v-6.379zm16.935 19.897l-7.255-3.47-9.68-4.63v-3.05l16.935 8.099v3.05zm.825-4.445l-3.38-1.616 14.518-6.356 3.732 1.6-14.87 6.372zm16.111-2.065l-15.323 6.567v-3.084l15.323-6.567v3.084z"/><path d="M17.997 7.204a.807.807 0 0 0-.727-.111L2.754 11.93a.807.807 0 0 0-.552.766v9.677a.806.806 0 0 0 1.061.766L17.78 18.3a.806.806 0 0 0 .552-.764V7.858a.806.806 0 0 0-.335-.654zm-1.278 9.75L3.815 21.257v-7.978l12.904-4.3v7.977z"/><path d="M13.729 12.126L10.854 15l-1.946-.65a.811.811 0 0 0-.702.095l-2.42 1.613.894 1.342 2.092-1.394 2.045.681c.29.097.61.02.825-.195l3.226-3.226-1.14-1.14z"/></symbol><symbol viewBox="0 0 47 47" id="servises-3" xmlns="http://www.w3.org/2000/svg"><path d="M46.406 22.5a3.073 3.073 0 0 0-1.153-2.089l-4.217-3.121V9.65h-6.159v3.082l-11.5-8.51L1.438 19.658a3.058 3.058 0 0 0-1.176 2.043 3.06 3.06 0 0 0 .613 2.275c1.036 1.346 2.971 1.598 4.287.587l.463-.322v1.846a2.69 2.69 0 0 0-1.54 2.424c0 1.07.633 1.99 1.54 2.424v2.85a2.69 2.69 0 0 0-1.54 2.423 2.69 2.69 0 0 0 1.54 2.424v2.85a2.69 2.69 0 0 0-1.54 2.424A2.697 2.697 0 0 0 6.78 46.6h33.1a2.697 2.697 0 0 0 2.695-2.694 2.69 2.69 0 0 0-2.31-2.655v-2.388a2.69 2.69 0 0 0 2.31-2.655 2.69 2.69 0 0 0-2.31-2.655v-2.387a2.69 2.69 0 0 0 2.31-2.655 2.69 2.69 0 0 0-2.31-2.655v-1.468l1.16.846c.566.45 1.242.67 1.916.67a3.078 3.078 0 0 0 3.065-3.405zm-9.989-11.308h3.079v4.959l-3.079-2.279v-2.68zM17.942 38.904v2.309H7.166v-2.31h10.776zM7.166 33.515v-2.31h10.776v2.31H7.166zm-.385 1.54h11.162v2.309H6.78a1.156 1.156 0 0 1-1.155-1.155c0-.636.518-1.154 1.155-1.154zm11.162 10.007H6.78a1.156 1.156 0 0 1-1.155-1.155c0-.636.518-1.155 1.155-1.155h11.162v2.31zm9.237 0h-7.698V31.205h7.698v13.857zm1.54-11.547v-2.31h10.006v2.31H28.72zm0 7.698v-2.31h10.006v2.31H28.72zm12.316 2.694c0 .637-.519 1.155-1.155 1.155H28.719v-2.31h11.162c.636 0 1.155.518 1.155 1.155zm0-7.698c0 .637-.519 1.155-1.155 1.155H28.719v-2.31h11.162c.636 0 1.155.519 1.155 1.155zm0-7.697c0 .636-.519 1.154-1.155 1.154H6.78a1.156 1.156 0 0 1-1.155-1.154c0-.637.518-1.155 1.155-1.155h33.1c.637 0 1.156.518 1.156 1.155zM26.41 25.817H24.1v-2.309h2.31v2.31zm0-3.848H24.1v-2.31h2.31v2.31zm-3.849 0h-2.31v-2.31h2.31v2.31zm-2.31 1.54h2.31v2.308h-2.31v-2.309zm10.778 0h7.697v2.308H27.95V18.12h-9.238v7.697H7.166v-2.309h8.467a.77.77 0 1 0 0-1.54H8.905l3.331-2.309h4.167v-1.54h-1.946l3.33-2.309H28.51l1.844 1.346 1.321.964H30.26v1.54h3.525l3.165 2.309h-5.92a.769.769 0 1 0-.001 1.54zM20.008 14.27l3.277-2.273L26.4 14.27h-6.392zm24.534 9.523a1.542 1.542 0 0 1-2.166.23l-2.155-1.572-.659-.483h-.003l-3.164-2.31h.001l-7.385-5.388-5.704-4.162-6.002 4.162-7.772 5.388h.002l-3.379 2.343h-.004l-.273.192-1.624 1.126a1.542 1.542 0 0 1-2.16-.28 1.53 1.53 0 0 1-.305-1.14 1.52 1.52 0 0 1 .56-1.001L23.355 6.12l11.523 8.527L36.57 15.9l7.743 5.73c.32.258.52.626.563 1.035a1.53 1.53 0 0 1-.333 1.13z"/><path d="M21.021 38.904a.77.77 0 1 0 0-1.54.77.77 0 0 0 0 1.54zM36.417 8.883c.2 0 .4-.085.547-.224a.81.81 0 0 0 .223-.546c0-.2-.085-.401-.223-.547-.285-.285-.809-.285-1.094 0a.804.804 0 0 0-.223.547c0 .2.084.4.223.546a.812.812 0 0 0 .547.224zm3.079-.001a.77.77 0 0 0 .77-.77V5.035a.77.77 0 1 0-1.54 0v3.079c0 .425.344.77.77.77zm0-5.388a.77.77 0 0 0 .77-.77v-1.54a.77.77 0 1 0-1.54 0v1.54c0 .425.344.77.77.77zm-3.079 3.079a.77.77 0 0 0 .77-.77v-1.54a.77.77 0 1 0-1.54 0v1.54c0 .425.344.77.77.77zm0-3.849a.77.77 0 0 0 .77-.77v-.77a.77.77 0 1 0-1.54 0v.77c0 .425.344.77.77.77z"/></symbol><symbol viewBox="0 0 46 46" id="servises-4" xmlns="http://www.w3.org/2000/svg"><path d="M44.608 43.844h-3.867V36.9a.879.879 0 0 0-1.758 0v6.944H28.436v-16.7a.879.879 0 0 0-.878-.878h-9.141a.879.879 0 0 0-.879.878v16.7H6.991V23.98h.338a.88.88 0 0 0 .622-.257L22.987 8.686l15.037 15.037a.88.88 0 0 0 .621.257h.338v6.592a.879.879 0 0 0 1.758 0V23.98h3.867a.879.879 0 0 0 .622-1.5L23.609.859a.88.88 0 0 0-1.243 0L14.104 9.12a.879.879 0 0 0 1.243 1.243l7.64-7.64 19.5 19.5h-3.478L23.61 6.821a.88.88 0 0 0-1.243 0l-15.4 15.4h-3.48l6.937-6.937a.88.88 0 0 0-1.243-1.243L.745 22.48a.88.88 0 0 0 .621 1.5h3.867v19.863H1.366a.879.879 0 0 0 0 1.758h43.242a.879.879 0 0 0 0-1.757zm-17.93 0h-7.382v-15.82h7.383v15.82z"/><path d="M36.17 26.265h-4.92a.879.879 0 0 0-.88.88v8.789c0 .485.394.878.88.878h4.922a.879.879 0 0 0 .879-.878v-8.79a.879.879 0 0 0-.88-.878zm-.878 8.79h-3.164v-7.032h3.164v7.032zm-20.567-8.79H9.803a.879.879 0 0 0-.878.88v8.789c0 .485.393.878.878.878h4.922a.879.879 0 0 0 .88-.878v-8.79a.879.879 0 0 0-.88-.878zm-.879 8.79h-3.164v-7.032h3.164v7.032zm9.141-20.011a4.048 4.048 0 0 0-4.043 4.043 4.048 4.048 0 0 0 4.043 4.043 4.048 4.048 0 0 0 4.043-4.043 4.048 4.048 0 0 0-4.043-4.043zm0 6.328a2.288 2.288 0 0 1-2.285-2.285 2.288 2.288 0 0 1 2.285-2.286 2.288 2.288 0 0 1 2.286 2.286 2.288 2.288 0 0 1-2.286 2.285zm-1.048 13.94a.885.885 0 0 0-.622-.257.885.885 0 0 0-.621.257.885.885 0 0 0-.258.622.882.882 0 0 0 .879.878.886.886 0 0 0 .622-.257.886.886 0 0 0 .257-.621.886.886 0 0 0-.257-.622zM12.798 11.67a.885.885 0 0 0-.621-.258.886.886 0 0 0-.622.257.886.886 0 0 0-.257.622c0 .23.094.458.257.621.164.164.39.258.622.258a.885.885 0 0 0 .62-.258.886.886 0 0 0 .258-.621.885.885 0 0 0-.257-.622zm27.686 21.21a.886.886 0 0 0-.622-.258.886.886 0 0 0-.621.258.887.887 0 0 0-.258.621c0 .232.094.458.258.623a.884.884 0 0 0 1.243 0 .887.887 0 0 0 .257-.623.885.885 0 0 0-.257-.621z"/></symbol><symbol viewBox="0 0 24 46" id="servises-5" xmlns="http://www.w3.org/2000/svg"><path d="M3.404 45.727a.684.684 0 0 1-.644-.92L9.914 25.14l-8.647-2.467a.686.686 0 0 1-.337-1.1L18.47.737a.685.685 0 0 1 1.182.631L14.595 18.91l8.693 2.481a.682.682 0 0 1 .333 1.104L3.924 45.49a.69.69 0 0 1-.52.238zm-.745-24.081l8.337 2.376a.682.682 0 0 1 .456.892L5.336 41.732l16.55-19.32-8.326-2.374a.687.687 0 0 1-.471-.848l4.356-15.107L2.659 21.646z"/></symbol><symbol viewBox="0 0 46 42" id="servises-6" xmlns="http://www.w3.org/2000/svg"><path d="M43.926 22.848l1.294-1.877a1.824 1.824 0 0 0-.462-2.513l-4.379-3.018a.656.656 0 1 0-.745 1.08l4.379 3.019a.5.5 0 0 1 .126.687l-1.294 1.877a.504.504 0 0 1-.687.126L17.692 5.364a.656.656 0 0 0-.373-.116H2.05V1.98h15.983c.333 0 .654.1.928.288l18.48 12.74a.656.656 0 0 0 .746-1.08L19.705 1.188a2.934 2.934 0 0 0-1.673-.52H1.392a.656.656 0 0 0-.656.656v32.145a.656.656 0 1 0 1.313 0V18.554H21.23v6.931c0 .363.294.657.656.657h9.591v6.93c0 .363.294.657.656.657h9.591v6.275H2.05v-3.91a.656.656 0 0 0-1.313 0v4.566c0 .362.294.656.657.656h40.989a.656.656 0 0 0 .656-.656v-7.028a2.286 2.286 0 0 0 1.626-2.186c0-1.03-.686-1.903-1.626-2.186v-5.735c.349-.122.663-.35.888-.677zm-4.08-.618l1.568 1.08c.097.068.203.126.311.172v5.682h-1.88V22.23zm-7.055-4.864l5.742 3.959v7.839h-5.742v-3.12a2.286 2.286 0 0 0 1.626-2.185c0-1.03-.686-1.903-1.626-2.186v-4.307zm-3.193-2.2l.026.017 1.854 1.278v5.115h-1.88v-6.41zm-7.054-4.864l5.742 3.959v7.315h-5.742v-3.119a2.286 2.286 0 0 0 1.626-2.185c0-1.03-.687-1.904-1.627-2.186v-3.784zm-3.193-2.2l1.88 1.295v4.592h-1.88V8.102zM5.241 6.56h11.874l.924.637v6.792H5.24V6.56zm-3.192 0h1.88v7.429h-1.88V6.56zm0 10.681v-1.94h19.838a.971.971 0 0 1 0 1.94H2.05zm20.495 7.588v-1.94h9.59a.971.971 0 0 1 0 1.94h-9.59zm20.808 6.617a.97.97 0 0 1-.97.97H32.79v-1.94h9.59a.97.97 0 0 1 .97.97z"/></symbol><symbol viewBox="0 0 51 30" id="servises-7" xmlns="http://www.w3.org/2000/svg"><path d="M43.913 4.604c-1.79 0-2.702-.835-3.507-1.571-.727-.665-1.301-1.19-2.528-1.19-1.226 0-1.8.525-2.527 1.19-.805.736-1.717 1.571-3.508 1.571s-2.703-.835-3.508-1.571c-.727-.665-1.3-1.19-2.527-1.19s-1.8.525-2.527 1.19c-.805.736-1.717 1.571-3.508 1.571-1.79 0-2.703-.835-3.508-1.571-.726-.665-1.3-1.19-2.526-1.19-1.227 0-1.8.525-2.528 1.19-.804.736-1.716 1.571-3.507 1.571-1.791 0-2.703-.835-3.508-1.571-.727-.665-1.3-1.19-2.528-1.19a.726.726 0 0 1 0-1.453c1.791 0 2.703.835 3.508 1.571.727.666 1.301 1.191 2.528 1.191 1.226 0 1.8-.525 2.527-1.19.805-.737 1.717-1.572 3.508-1.572 1.79 0 2.702.835 3.507 1.572.727.665 1.3 1.19 2.527 1.19s1.8-.525 2.527-1.19C23.105 1.225 24.017.39 25.808.39c1.79 0 2.703.835 3.508 1.572.726.665 1.3 1.19 2.527 1.19s1.8-.525 2.527-1.19C35.175 1.225 36.087.39 37.878.39s2.703.835 3.508 1.572c.727.665 1.3 1.19 2.527 1.19 1.228 0 1.802-.525 2.528-1.19C47.246 1.224 48.16.39 49.95.39a.726.726 0 0 1 0 1.452c-1.227 0-1.801.526-2.528 1.19-.805.737-1.717 1.572-3.508 1.572zm0 6.293c-1.79 0-2.702-.835-3.507-1.572-.727-.665-1.301-1.19-2.528-1.19-1.226 0-1.8.525-2.527 1.19-.805.737-1.717 1.572-3.508 1.572s-2.703-.835-3.508-1.572c-.727-.665-1.3-1.19-2.527-1.19s-1.8.525-2.527 1.19c-.805.737-1.717 1.572-3.508 1.572-1.79 0-2.703-.835-3.508-1.572-.726-.665-1.3-1.19-2.526-1.19-1.227 0-1.8.525-2.528 1.19-.804.737-1.716 1.572-3.507 1.572-1.791 0-2.703-.835-3.508-1.572-.727-.665-1.3-1.19-2.528-1.19a.726.726 0 0 1 0-1.452c1.791 0 2.703.834 3.508 1.571.727.665 1.301 1.19 2.528 1.19 1.226 0 1.8-.525 2.527-1.19.805-.737 1.717-1.571 3.508-1.571 1.79 0 2.702.835 3.507 1.571.727.665 1.3 1.19 2.527 1.19s1.8-.525 2.527-1.19c.805-.737 1.717-1.571 3.508-1.571 1.79 0 2.703.834 3.508 1.571.726.665 1.3 1.19 2.527 1.19s1.8-.525 2.527-1.19c.805-.737 1.717-1.571 3.508-1.571s2.703.834 3.508 1.571c.727.665 1.3 1.19 2.527 1.19 1.228 0 1.802-.525 2.528-1.19.805-.737 1.718-1.571 3.509-1.571a.726.726 0 0 1 0 1.452c-1.227 0-1.801.525-2.528 1.19-.805.737-1.717 1.572-3.508 1.572zm0 6.293c-1.79 0-2.702-.836-3.507-1.572-.727-.665-1.301-1.19-2.528-1.19-1.226 0-1.8.525-2.527 1.19-.805.736-1.717 1.571-3.508 1.571s-2.703-.835-3.508-1.571c-.727-.665-1.3-1.19-2.527-1.19s-1.8.525-2.527 1.19c-.805.736-1.717 1.571-3.508 1.571-1.79 0-2.703-.835-3.508-1.571-.726-.665-1.3-1.19-2.526-1.19-1.227 0-1.8.525-2.528 1.19-.804.736-1.716 1.571-3.507 1.571-1.791 0-2.703-.835-3.508-1.571-.727-.665-1.301-1.19-2.528-1.19a.726.726 0 0 1 0-1.453c1.791 0 2.703.835 3.508 1.572.727.665 1.301 1.19 2.528 1.19 1.226 0 1.8-.525 2.527-1.19.805-.737 1.717-1.572 3.508-1.572 1.79 0 2.702.835 3.507 1.572.727.665 1.3 1.19 2.527 1.19s1.8-.525 2.527-1.19c.805-.737 1.717-1.572 3.508-1.572 1.79 0 2.703.835 3.508 1.572.726.665 1.3 1.19 2.527 1.19s1.8-.525 2.527-1.19c.805-.737 1.717-1.572 3.508-1.572s2.703.835 3.508 1.572c.727.665 1.3 1.19 2.527 1.19 1.228 0 1.802-.525 2.528-1.19.805-.737 1.718-1.572 3.509-1.572a.726.726 0 0 1 0 1.452c-1.227 0-1.801.526-2.528 1.19-.805.737-1.717 1.572-3.508 1.572zm0 6.292c-1.79 0-2.702-.835-3.507-1.572-.727-.665-1.301-1.19-2.528-1.19-1.226 0-1.8.525-2.527 1.19-.805.737-1.717 1.572-3.508 1.572s-2.703-.835-3.508-1.572c-.727-.665-1.3-1.19-2.527-1.19s-1.8.525-2.527 1.19c-.805.737-1.717 1.572-3.508 1.572-1.79 0-2.703-.835-3.508-1.572-.726-.665-1.3-1.19-2.526-1.19-1.227 0-1.8.525-2.528 1.19-.804.737-1.716 1.572-3.507 1.572-1.791 0-2.703-.835-3.508-1.572-.727-.665-1.301-1.19-2.528-1.19a.726.726 0 0 1 0-1.452c1.791 0 2.703.834 3.508 1.571.727.665 1.301 1.19 2.528 1.19 1.226 0 1.8-.525 2.527-1.19.805-.736 1.717-1.571 3.508-1.571 1.79 0 2.702.834 3.507 1.571.727.665 1.3 1.19 2.527 1.19s1.8-.525 2.527-1.19c.805-.736 1.717-1.571 3.508-1.571 1.79 0 2.703.834 3.508 1.571.726.665 1.3 1.19 2.527 1.19s1.8-.525 2.527-1.19c.805-.736 1.717-1.571 3.508-1.571s2.703.834 3.508 1.571c.727.665 1.3 1.19 2.527 1.19 1.228 0 1.802-.525 2.528-1.19.805-.736 1.718-1.571 3.509-1.571a.726.726 0 0 1 0 1.452c-1.227 0-1.801.525-2.528 1.19-.805.737-1.717 1.572-3.508 1.572zm0 6.292c-1.79 0-2.702-.834-3.507-1.571-.727-.665-1.301-1.19-2.528-1.19-1.226 0-1.8.525-2.527 1.19-.805.737-1.717 1.572-3.508 1.572s-2.703-.835-3.508-1.572c-.727-.665-1.3-1.19-2.527-1.19s-1.8.525-2.527 1.19c-.805.737-1.717 1.572-3.508 1.572-1.79 0-2.703-.835-3.508-1.572-.726-.665-1.3-1.19-2.526-1.19-1.227 0-1.8.525-2.528 1.19-.804.737-1.716 1.572-3.507 1.572-1.791 0-2.703-.835-3.508-1.572-.727-.665-1.301-1.19-2.528-1.19a.726.726 0 0 1 0-1.453c1.791 0 2.703.835 3.508 1.572.727.665 1.301 1.19 2.528 1.19 1.226 0 1.8-.525 2.527-1.19.805-.737 1.717-1.572 3.508-1.572 1.79 0 2.702.835 3.507 1.572.727.665 1.3 1.19 2.527 1.19s1.8-.525 2.527-1.19c.805-.737 1.717-1.572 3.508-1.572 1.79 0 2.703.835 3.508 1.572.726.665 1.3 1.19 2.527 1.19s1.8-.525 2.527-1.19c.805-.737 1.717-1.572 3.508-1.572s2.703.835 3.508 1.572c.727.665 1.3 1.19 2.527 1.19 1.228 0 1.802-.525 2.528-1.19.805-.737 1.718-1.572 3.509-1.572a.726.726 0 1 1 0 1.452c-1.227 0-1.801.526-2.528 1.191-.805.737-1.717 1.572-3.508 1.572z"/></symbol><symbol viewBox="0 0 26 54" id="servises-8" xmlns="http://www.w3.org/2000/svg"><path d="M24.848.248H1.811C1.175.248.66.764.66 1.4v16.126a1.15 1.15 0 0 0 1.151 1.151h1.152v3.456c0 .636.516 1.152 1.152 1.152h5.76v6.906l-1.06.439a3.433 3.433 0 0 0-1.87 1.87 3.457 3.457 0 0 0 2.93 4.766v2.14l-1.06.438a3.46 3.46 0 0 0-1.87 4.515 3.457 3.457 0 0 0 2.93 2.122v3.296a3.46 3.46 0 0 0 3.455 3.456 3.46 3.46 0 0 0 3.455-3.456v-5.754l1.06-.439a3.433 3.433 0 0 0 1.87-1.87 3.457 3.457 0 0 0-2.93-4.766v-2.14l1.06-.438a3.46 3.46 0 0 0 1.87-4.515 3.457 3.457 0 0 0-2.93-2.122v-4.448h5.76c.636 0 1.151-.516 1.151-1.152v-3.455h1.152c.636 0 1.152-.516 1.152-1.152V1.4c0-.636-.515-1.152-1.152-1.152zm-7.261 30.489a1.15 1.15 0 0 1-.624 1.505l-1.77.733c-.43.178-.711.598-.711 1.064v4.228a1.154 1.154 0 0 0 1.6 1.061 1.153 1.153 0 0 1 .881 2.128l-1.77.734c-.43.178-.711.598-.711 1.064v6.523a1.153 1.153 0 0 1-2.304 0v-4.615a1.153 1.153 0 0 0-1.155-1.15c-.15 0-.302.03-.444.089a1.153 1.153 0 0 1-1.506-1.505c.118-.284.34-.505.624-.623l1.77-.734c.43-.178.711-.598.711-1.064v-4.228c0-.384-.196-.742-.515-.956a1.158 1.158 0 0 0-1.085-.105 1.153 1.153 0 0 1-1.505-1.505c.118-.284.34-.505.624-.623l1.77-.734c.43-.178.711-.598.711-1.064v-7.675h2.304v5.767a1.157 1.157 0 0 0 1.6 1.061 1.153 1.153 0 0 1 1.505.624zm6.11-14.363H20.24a1.152 1.152 0 0 0 0 2.303h1.152v2.304H5.267v-2.304h8.063a1.152 1.152 0 1 0 0-2.303H2.963V6.007h5.76a1.152 1.152 0 1 0 0-2.303h-5.76V2.552h20.734v13.822z"/><path d="M12.992 4.041a1.16 1.16 0 0 0-.814-.337c-.303 0-.6.123-.814.337a1.16 1.16 0 0 0-.338.815c0 .303.124.6.338.814.214.214.511.337.814.337.303 0 .6-.123.814-.337a1.16 1.16 0 0 0 .338-.814c0-.303-.123-.6-.338-.815zM17.6 16.712a1.16 1.16 0 0 0-.815-.338c-.303 0-.6.123-.814.338a1.16 1.16 0 0 0-.338.814c0 .303.124.6.338.814.214.214.511.338.814.338.303 0 .6-.124.815-.338a1.16 1.16 0 0 0 .337-.814c0-.303-.123-.6-.337-.814z"/></symbol><symbol viewBox="0 0 44 41" id="servises-9" xmlns="http://www.w3.org/2000/svg"><path d="M24.514 2.164a.669.669 0 0 1-.67-.667c0-.37.295-.667.663-.667h.007a.666.666 0 1 1 0 1.334zm-5.334 0a.669.669 0 0 1-.67-.667c0-.37.294-.667.662-.667h.007a.666.666 0 1 1 0 1.334zm-5.335 0a.669.669 0 0 1-.67-.667c0-.37.294-.667.663-.667h.007a.666.666 0 1 1 0 1.334zm-5.335 2a.669.669 0 0 1-.67-.667c0-.369.295-.667.663-.667h.007a.666.666 0 1 1 0 1.334zm21.339-2a.669.669 0 0 1-.67-.667c0-.37.294-.667.663-.667h.007a.666.666 0 1 1 0 1.334zm5.335 2a.669.669 0 0 1-.67-.667c0-.369.294-.667.662-.667h.008a.666.666 0 1 1 0 1.334zM1.155 40.84a.666.666 0 0 1-.667-.667V12.166a.666.666 0 1 1 1.334 0v28.007a.666.666 0 0 1-.667.667zm2.001 0a.666.666 0 0 1-.667-.667V12.166a.666.666 0 1 1 1.333 0v28.007a.666.666 0 0 1-.666.667z"/><path d="M19.16 28.626a.666.666 0 0 1-.667-.667V2.83a.666.666 0 1 1 1.333 0v25.128a.667.667 0 0 1-.666.667zm-2.668 1.544a.666.666 0 0 1-.667-.666V2.83a.666.666 0 1 1 1.334 0v26.673a.666.666 0 0 1-.667.667zm-2.667 6.002a.666.666 0 0 1-.667-.667V2.831a.666.666 0 1 1 1.334 0v32.674a.666.666 0 0 1-.667.667zm-2.667 0a.666.666 0 0 1-.667-.667V3.497a.666.666 0 1 1 1.333 0v32.008a.666.666 0 0 1-.666.667zm-2.668 0a.666.666 0 0 1-.667-.667V4.831a.666.666 0 1 1 1.334 0v30.674a.666.666 0 0 1-.667.667zM3.156 12.833h-2a.666.666 0 1 1 0-1.334h2a.666.666 0 1 1 0 1.334zM42.499 40.84a.666.666 0 0 1-.667-.667V12.166a.666.666 0 1 1 1.334 0v28.007a.666.666 0 0 1-.667.667zm-2.001 0a.666.666 0 0 1-.667-.667V12.166a.666.666 0 1 1 1.334 0v28.007a.666.666 0 0 1-.667.667z"/><path d="M42.499 12.833h-2a.666.666 0 1 1 0-1.334h2a.666.666 0 1 1 0 1.334zM37.83 40.84H5.824a.666.666 0 1 1 0-1.334H37.83a.666.666 0 1 1 0 1.334zm0-3.334H5.824a.666.666 0 1 1 0-1.334H37.83a.666.666 0 1 1 0 1.334zm0-2.001H5.824a.666.666 0 1 1 0-1.333H37.83a.666.666 0 1 1 0 1.333z"/><path d="M21.827 40.84a.666.666 0 0 1-.667-.667V2.831a.666.666 0 1 1 1.334 0v37.342a.666.666 0 0 1-.667.667zm-16.004 0a.666.666 0 0 1-.667-.667V12.166a.666.666 0 1 1 1.334 0v28.007a.666.666 0 0 1-.667.667z"/><path d="M21.827 4.831h-8.002a.666.666 0 1 1 0-1.334h8.002a.666.666 0 1 1 0 1.334z"/><path d="M5.823 12.833a.666.666 0 0 1-.667-.667c0-4.78 3.889-8.669 8.669-8.669a.666.666 0 1 1 0 1.334c-4.044 0-7.335 3.29-7.335 7.335a.666.666 0 0 1-.667.667zm16.004.667h-8.002a.666.666 0 1 1 0-1.334h8.002a.666.666 0 1 1 0 1.334z"/><path d="M5.823 21.502a.666.666 0 0 1-.667-.667c0-4.78 3.889-8.669 8.669-8.669a.666.666 0 1 1 0 1.334c-4.044 0-7.335 3.29-7.335 7.335a.666.666 0 0 1-.667.667zm8.002 14.003a.666.666 0 0 1-.667-.666c0-4.78 3.89-8.67 8.669-8.67a.666.666 0 1 1 0 1.334c-4.044 0-7.335 3.291-7.335 7.336a.666.666 0 0 1-.667.666zm10.669-6.879a.666.666 0 0 1-.667-.667V2.83a.666.666 0 1 1 1.334 0v25.128a.667.667 0 0 1-.667.667zm2.668 1.544a.666.666 0 0 1-.667-.666V2.83a.666.666 0 1 1 1.333 0v26.673a.666.666 0 0 1-.666.667zm2.667 6.002a.666.666 0 0 1-.667-.667V2.831a.666.666 0 1 1 1.334 0v32.674a.666.666 0 0 1-.667.667zm2.667 0a.666.666 0 0 1-.667-.667V3.497a.666.666 0 1 1 1.334 0v32.008a.666.666 0 0 1-.667.667zm2.668 0a.666.666 0 0 1-.667-.667V4.831a.666.666 0 1 1 1.334 0v30.674a.666.666 0 0 1-.667.667zm2.666 4.668a.666.666 0 0 1-.666-.667V12.166a.666.666 0 1 1 1.334 0v28.007a.666.666 0 0 1-.667.667z"/><path d="M29.829 4.831h-8.002a.666.666 0 1 1 0-1.334h8.002a.666.666 0 1 1 0 1.334z"/><path d="M37.83 12.833a.666.666 0 0 1-.666-.667c0-4.044-3.29-7.335-7.335-7.335a.666.666 0 1 1 0-1.334c4.78 0 8.669 3.89 8.669 8.67a.666.666 0 0 1-.667.666zm-8.001.667h-8.002a.666.666 0 1 1 0-1.334h8.002a.666.666 0 1 1 0 1.334z"/><path d="M37.83 21.502a.666.666 0 0 1-.666-.667c0-4.044-3.29-7.335-7.335-7.335a.666.666 0 1 1 0-1.334c4.78 0 8.669 3.89 8.669 8.669a.666.666 0 0 1-.667.667zm-8.001 14.003a.666.666 0 0 1-.667-.666c0-4.045-3.29-7.336-7.335-7.336a.666.666 0 1 1 0-1.333c4.78 0 8.669 3.889 8.669 8.669a.666.666 0 0 1-.667.666zM2.155 11.5a1.669 1.669 0 0 1 0-3.334 1.668 1.668 0 0 1 0 3.333zm0-2.001a.334.334 0 0 0-.333.333c0 .184.15.334.333.334a.334.334 0 0 0 0-.667zM41.498 11.5a1.669 1.669 0 0 1 0-3.334 1.668 1.668 0 0 1 0 3.333zm0-2.001a.334.334 0 0 0-.333.333c0 .184.15.334.333.334a.334.334 0 0 0 0-.667z"/><path d="M25.828 35.505a.666.666 0 0 1-.667-.666 3.338 3.338 0 0 0-3.334-3.335 3.338 3.338 0 0 0-3.334 3.335.666.666 0 1 1-1.334 0 4.674 4.674 0 0 1 4.668-4.668 4.674 4.674 0 0 1 4.668 4.668.666.666 0 0 1-.667.666zm-20.005 0H3.156a.666.666 0 1 1 0-1.333h2.667a.666.666 0 1 1 0 1.333zm0-2.667H3.156a.666.666 0 1 1 0-1.334h2.667a.666.666 0 1 1 0 1.334zm0-11.336H3.156a.666.666 0 1 1 0-1.334h2.667a.666.666 0 1 1 0 1.334zm0-2.668H3.156a.666.666 0 1 1 0-1.333h2.667a.666.666 0 1 1 0 1.333zm34.675 16.671h-2.667a.666.666 0 1 1 0-1.333h2.667a.666.666 0 1 1 0 1.333zm0-2.667h-2.667a.666.666 0 1 1 0-1.334h2.667a.666.666 0 1 1 0 1.334zm0-11.336h-2.667a.666.666 0 1 1 0-1.334h2.667a.666.666 0 1 1 0 1.334zm0-2.668h-2.667a.666.666 0 1 1 0-1.333h2.667a.666.666 0 1 1 0 1.333zM3.156 40.84h-2a.666.666 0 1 1 0-1.334h2a.666.666 0 1 1 0 1.334zm39.343 0h-2a.666.666 0 1 1 0-1.334h2a.666.666 0 1 1 0 1.334z"/></symbol><symbol viewBox="0 0 10 19" id="triangle" xmlns="http://www.w3.org/2000/svg"><path d="M8.99 9.352C6.695 6.69 1.887 1.363 1 1.363v15.979l7.99-7.99z"/></symbol></svg>