<?xml version="1.0" encoding="utf-8"?>
<!-- Generator: Adobe Illustrator 21.0.0, SVG Export Plug-In . SVG Version: 6.00 Build 0)  -->
<svg version="1.1" id="Слой_1" xmlns="http://www.w3.org/2000/svg" xmlns:xlink="http://www.w3.org/1999/xlink" x="0px" y="0px"
	 viewBox="0 0 841.89 595.28" enable-background="new 0 0 841.89 595.28" xml:space="preserve">
<g>
	<g>
		<path fill="#01B359" d="M255.512,245.335c-0.051-2.181,0.117-4.681,0.271-7.179c0.124-2.013,0.342-4.02,0.597-6.023
			c0.509-4.008,1.249-7.97,2.238-11.886c1.818-7.194,4.43-14.078,8.056-20.563c2.692-4.814,5.881-9.267,9.697-13.261
			c3.622-3.791,7.677-7.03,12.256-9.597c4.253-2.385,8.76-4.109,13.53-5.125c1.934-0.412,3.891-0.682,5.865-0.857
			c1.896-0.168,3.79-0.204,5.687-0.152c1.493,0.041,2.98,0.185,4.464,0.364c7.509,0.905,14.514,3.362,21.174,6.876
			c4.765,2.514,9.198,5.529,13.377,8.924c5.601,4.55,10.614,9.684,15.175,15.267c2.735,3.349,5.279,6.838,7.656,10.45
			c0.177,0.269,0.347,0.545,0.506,0.825c0.034,0.059,0.035,0.169,0.002,0.228c-0.097,0.176-0.211,0.344-0.333,0.504
			c-1.666,2.182-3.301,4.388-5.008,6.538c-5.535,6.968-11.54,13.505-18.039,19.585c-0.324,0.303-0.649,0.607-0.977,0.906
			c-0.664,0.603-0.644,0.613-1.13-0.133c-1.721-2.642-3.587-5.175-5.64-7.571c-2.743-3.201-5.761-6.108-9.196-8.566
			c-2.837-2.031-5.873-3.687-9.171-4.852c-3.582-1.265-7.265-1.82-11.06-1.721c-4.128,0.108-8.067,1.066-11.882,2.585
			c-2.141,0.852-4.204,1.865-6.152,3.104c-3.814,2.427-6.916,5.547-9.196,9.463c-1.493,2.565-2.546,5.306-3.235,8.188
			c-0.574,2.4-0.89,4.835-1.035,7.301c-0.138,2.346-0.051,4.684,0.113,7.02c0.113,1.609,0.326,3.21,0.575,4.807
			c0.725,4.637,1.889,9.162,3.376,13.609c0.076,0.228,0.129,0.465,0.172,0.702c0.011,0.059-0.041,0.17-0.092,0.192
			c-0.22,0.095-0.444,0.194-0.677,0.242c-2.291,0.478-4.585,0.93-6.896,1.307c-2.072,0.338-4.152,0.608-6.235,0.859
			c-1.242,0.149-2.494,0.207-3.738,0.337c-2.292,0.24-4.596,0.24-6.895,0.34c-1.007,0.044-2.018,0.013-3.027,0.009
			c-0.171-0.001-0.311-0.096-0.37-0.262c-0.095-0.265-0.182-0.534-0.261-0.805c-0.975-3.332-1.784-6.703-2.446-10.111
			c-0.431-2.219-0.806-4.447-1.101-6.687c-0.258-1.96-0.466-3.927-0.615-5.901C255.666,251.632,255.502,248.65,255.512,245.335z"/>
		<path fill="#1527AB" d="M498.761,273.407c0.064-0.095,0.106-0.231,0.195-0.277c0.869-0.452,1.588-1.1,2.316-1.735
			c4.904-4.274,9.568-8.797,14.018-13.541c10.81-11.524,20.205-24.121,28.478-37.568c6.903-11.219,12.926-22.899,18.218-34.958
			c4.704-10.719,8.796-21.668,12.368-32.814c2.228-6.952,4.239-13.966,6.079-21.03c0.478-1.834,0.977-3.662,1.471-5.492
			c0.012-0.046,0.084-0.076,0.128-0.114c0.024,0.032,0.059,0.061,0.07,0.097c0.08,0.27,0.171,0.539,0.229,0.814
			c0.475,2.249,0.969,4.494,1.404,6.751c0.313,1.623,0.564,3.259,0.804,4.895c0.24,1.636,0.438,3.279,0.642,4.92
			c0.099,0.801,0.182,1.604,0.253,2.408c0.117,1.327,0.23,2.654,0.323,3.982c0.134,1.933,0.254,3.866,0.369,5.8
			c0.046,0.765,0.072,1.532,0.093,2.299c0.127,4.642,0.14,9.284,0.01,13.926c-0.071,2.542-0.208,5.081-0.41,7.616
			c-0.112,1.408-0.203,2.818-0.328,4.225c-0.107,1.205-0.246,2.408-0.379,3.611c-0.093,0.842-0.201,1.682-0.298,2.524
			c-0.309,2.686-0.724,5.356-1.169,8.022c-0.565,3.383-1.234,6.743-1.994,10.087c-2.701,11.885-6.637,23.338-11.972,34.304
			c-0.582,1.197-1.159,2.396-1.745,3.592c-0.105,0.215-0.24,0.416-0.367,0.62c-0.018,0.03-0.063,0.047-0.1,0.058
			c-0.013,0.004-0.049-0.024-0.054-0.042c-0.009-0.038-0.009-0.08-0.005-0.12c0.318-2.536,0.272-5.071,0.005-7.609
			c-0.271-2.576-0.804-5.097-1.529-7.58c-0.09-0.31-0.185-0.618-0.292-0.922c-0.023-0.065-0.108-0.108-0.165-0.161
			c-0.019-0.152-0.033-0.306-0.057-0.457c-0.018-0.113-0.066-0.144-0.119-0.088c-0.025,0.026-0.054,0.061-0.057,0.094
			c-0.021,0.194-0.039,0.39,0.134,0.536c-0.022,0.077-0.069,0.157-0.062,0.231c0.083,0.844,0.189,1.685,0.259,2.53
			c0.258,3.1,0.416,6.196,0.194,9.313c-0.345,4.842-1.517,9.467-3.368,13.937c-1.655,3.998-3.642,7.827-5.868,11.534
			c-5.366,8.938-11.694,17.13-19.067,24.508c-2.143,2.144-4.385,4.177-6.778,6.042c-1.37,1.067-2.725,2.152-4.091,3.224
			c-0.156,0.122-0.336,0.213-0.509,0.313c-0.02,0.011-0.069-0.007-0.091-0.027c-0.029-0.026-0.069-0.077-0.06-0.101
			c0.111-0.301,0.217-0.605,0.351-0.896c1.164-2.53,2.239-5.097,3.168-7.723c0.498-1.407,0.953-2.828,1.281-4.286
			c0.012-0.054-0.045-0.123-0.07-0.185c-0.034,0.021-0.077,0.036-0.101,0.065c-0.076,0.093-0.154,0.187-0.214,0.29
			c-0.101,0.175-0.186,0.358-0.28,0.536c-2.382,4.507-5.131,8.78-8.218,12.836c-3.632,4.771-7.676,9.158-12.238,13.057
			c-4.068,3.478-8.457,6.473-13.273,8.832c-3.567,1.747-7.276,3.087-11.152,3.953c-1.772,0.396-3.564,0.676-5.373,0.872
			c-2.378,0.258-4.756,0.247-7.138,0.183c-1.293-0.035-2.576-0.197-3.856-0.367c-7.252-0.964-14.015-3.405-20.421-6.865
			c-7.633-4.122-14.717-9.039-21.139-14.886c-4.586-4.176-8.694-8.773-12.163-13.926c-2.215-3.291-4.116-6.75-5.591-10.439
			c-0.751-1.878-1.289-3.819-1.775-5.778c-0.038-0.152,0.054-0.317,0.221-0.379c0.377-0.141,0.755-0.281,1.137-0.41
			c3.48-1.172,7.011-2.173,10.549-3.146c4.59-1.262,9.203-2.432,13.831-3.544c2.433-0.585,4.894-1.022,7.377-1.352
			c2.043-0.271,4.095-0.418,6.144-0.617c0.08-0.008,0.161-0.012,0.242-0.017c1.613-0.082,3.226-0.175,4.839-0.242
			c2.259-0.094,4.519-0.189,6.779-0.242c1.859-0.044,3.712-0.166,5.561-0.331c3.018-0.27,6.009-0.718,8.912-1.634
			c1.002-0.316,1.991-0.665,2.946-1.1c3.196-1.456,6.346-3.005,9.378-4.783c0.696-0.408,1.371-0.85,2.05-1.285
			c0.045-0.029,0.055-0.137,0.055-0.208c-0.001-0.099-0.07-0.129-0.172-0.124c-0.12,0.006-0.242-0.011-0.363-0.013
			c-2.705-0.04-5.411-0.105-8.116-0.109c-1.897-0.003-3.797,0.038-5.691,0.134c-1.49,0.076-2.975,0.264-4.461,0.404
			c-1.568,0.148-3.122,0.397-4.673,0.66c-2.548,0.432-5.065,0.996-7.546,1.722c-0.071,0.021-0.157-0.007-0.234-0.021
			c-0.007-0.001-0.013-0.065-0.004-0.094c0.088-0.285,0.325-0.456,0.52-0.656c1.497-1.533,3.1-2.951,4.769-4.293
			c4.421-3.556,9.197-6.559,14.231-9.162c6.003-3.104,12.264-5.565,18.737-7.494c1.584-0.472,3.188-0.88,4.78-1.328
			c3.393-0.955,6.617-2.328,9.736-3.96c3.225-1.688,6.298-3.618,9.259-5.73c4.58-3.267,8.866-6.881,12.822-10.883
			c3.105-3.141,5.876-6.549,8.165-10.336c0.061-0.101,0.148-0.186,0.231-0.272c0.018-0.019,0.072-0.014,0.106-0.006
			c0.035,0.008,0.092,0.031,0.094,0.052c0.064,0.808,0.015,1.611-0.065,2.416c-0.402,4.047-1.512,7.916-2.922,11.71
			c-1.593,4.284-3.588,8.379-5.822,12.362c-2.966,5.29-6.326,10.323-9.937,15.192c-4.262,5.746-8.841,11.23-13.66,16.515
			c-1.959,2.148-3.97,4.248-5.962,6.367c-0.801,0.852-1.65,1.661-2.351,2.605c-0.099,0.133-0.241,0.208-0.419,0.172
			c0.001,0-0.03,0.029-0.03,0.029L498.761,273.407z M582.333,165.562c0.014-4.541-0.155-8.615-0.39-12.688
			c-0.145-2.5-0.381-4.991-0.593-7.485c-0.017-0.195-0.085-0.386-0.139-0.577c-0.008-0.03-0.061-0.054-0.098-0.066
			c-0.025-0.008-0.079,0.003-0.085,0.019c-0.127,0.336-0.267,0.669-0.37,1.013c-3.102,10.447-6.63,20.746-10.666,30.871
			c-5.132,12.873-11.038,25.377-17.876,37.436c-6.804,11.999-14.454,23.425-23.122,34.162c-6.555,8.12-13.636,15.748-21.307,22.829
			c-5.054,4.666-10.418,8.934-16.125,12.773c-6.138,4.129-12.54,7.801-19.149,11.116c-8.16,4.093-16.553,7.64-25.158,10.685
			c-2.586,0.915-5.189,1.776-7.81,2.585c-0.383,0.118-0.781,0.191-1.172,0.283c-0.077,0.018-0.158,0.042-0.235,0.036
			c-0.076-0.006-0.094-0.006-0.056,0.049c0.057,0.083,0.082,0.071,0.12-0.019c0.03-0.071,0.086-0.147,0.152-0.185
			c0.381-0.225,0.764-0.446,1.152-0.658c3.684-2.011,7.364-4.028,11.054-6.026c7.067-3.826,13.993-7.886,20.705-12.309
			c9.423-6.21,18.379-13.025,26.696-20.663c6.796-6.241,13.086-12.95,18.702-20.279c4.38-5.716,8.295-11.729,11.588-18.141
			c1.383-2.694,2.634-5.448,3.755-8.261c0.075-0.187,0.161-0.372,0.212-0.566c0.028-0.106-0.006-0.229-0.011-0.344
			c-0.067,0.028-0.15,0.04-0.198,0.087c-0.692,0.679-1.38,1.361-2.066,2.045c-2.376,2.368-4.839,4.638-7.461,6.733
			c-6.621,5.288-14.012,9.039-22.22,11.173c-7.595,1.975-14.941,4.643-22.041,7.984c-2.521,1.186-4.995,2.461-7.39,3.887
			c-0.241,0.143-0.465,0.316-0.692,0.481c-0.02,0.015-0.013,0.079-0.005,0.116c0.006,0.027,0.037,0.07,0.054,0.069
			c0.683-0.051,1.365-0.119,2.048-0.158c2.661-0.151,5.321-0.289,7.989-0.284c3.191,0.006,6.38,0.05,9.567,0.225
			c1.975,0.109,3.951,0.219,5.926,0.332c0.201,0.011,0.402,0.039,0.602,0.065c0.079,0.01,0.155,0.037,0.233,0.055
			c0.092,0.022,0.169,0.215,0.117,0.302c-0.628,1.045-1.435,1.949-2.274,2.823c-1.771,1.842-3.758,3.425-5.871,4.854
			c-2.917,1.973-6.024,3.597-9.241,5.023c-3.003,1.331-6.121,2.266-9.353,2.845c-1.789,0.321-3.586,0.567-5.395,0.738
			c-2.212,0.209-4.426,0.352-6.645,0.448c-3.187,0.139-6.376,0.201-9.561,0.404c-2.58,0.165-5.15,0.392-7.711,0.748
			c-2,0.278-3.985,0.636-5.947,1.109c-4.353,1.048-8.695,2.137-13.016,3.311c-2.763,0.751-5.522,1.521-8.253,2.385
			c-0.151,0.048-0.303,0.105-0.44,0.184c-0.058,0.033-0.122,0.145-0.107,0.199c0.078,0.27,0.17,0.537,0.278,0.797
			c2.01,4.878,4.631,9.408,7.789,13.629c3.695,4.94,7.977,9.32,12.703,13.273c4.191,3.505,8.669,6.601,13.358,9.397
			c3.473,2.071,7.068,3.894,10.851,5.33c5.091,1.932,10.332,3.155,15.795,3.347c3.08,0.108,6.136-0.1,9.162-0.664
			c3.545-0.661,6.952-1.768,10.235-3.266c4.324-1.972,8.282-4.524,11.969-7.509c4.318-3.496,8.155-7.469,11.657-11.772
			c3.935-4.834,7.388-9.996,10.443-15.425c1.643-2.92,3.186-5.892,4.465-8.993c0.569-1.38,1.153-2.754,1.731-4.13
			c0.063-0.149,0.136-0.293,0.201-0.441c0.047-0.108,0.1-0.221,0.241-0.181c0.132,0.037,0.172,0.171,0.189,0.287
			c0.177,1.239,0.378,2.475,0.512,3.718c0.242,2.25,0.345,4.508,0.31,6.772c-0.033,2.146-0.229,4.271-0.704,6.367
			c-0.026,0.114-0.014,0.238-0.011,0.358c0.001,0.029,0.028,0.071,0.053,0.082c0.035,0.014,0.091,0.02,0.118,0.001
			c0.593-0.426,1.059-0.986,1.558-1.508c5.456-5.709,10.296-11.906,14.648-18.49c2.272-3.437,4.361-6.982,6.195-10.675
			c1.73-3.484,3.087-7.099,3.921-10.904c0.372-1.696,0.685-3.4,0.906-5.123c0.19-1.483,0.352-2.968,0.41-4.46
			c0.142-3.636,0.06-7.264-0.411-10.881c-0.292-2.243-0.666-4.468-1.162-6.675c-0.683-3.036-1.556-6.012-2.701-8.908
			c-0.04-0.101-0.026-0.23-0.011-0.342c0.013-0.101,0.174-0.058,0.396,0.115c1.567,1.224,3.01,2.578,4.141,4.222
			c2.016,2.93,3.831,5.98,5.359,9.196c0.832,1.751,1.553,3.547,2.153,5.391c0.048,0.147,0.131,0.282,0.207,0.418
			c0.014,0.025,0.096,0.045,0.109,0.032c0.077-0.08,0.167-0.16,0.208-0.259c0.817-1.933,1.55-3.898,2.264-5.871
			c2.323-6.42,4.189-12.973,5.675-19.634c0.694-3.111,1.29-6.242,1.813-9.387c0.411-2.469,0.767-4.945,1.084-7.427
			c0.235-1.841,0.381-3.694,0.588-5.539c0.301-2.69,0.479-5.391,0.606-8.091C582.217,172.046,582.391,168.576,582.333,165.562z"/>
		<path fill="#1527AB" d="M386.383,364.41c-1.494-0.018-2.987-0.032-4.481-0.055c-0.686-0.01-1.372-0.039-2.058-0.053
			c-2.584-0.051-5.16-0.246-7.736-0.45c-1.972-0.156-3.938-0.369-5.903-0.589c-1.483-0.166-2.961-0.383-4.437-0.604
			c-1.715-0.256-3.429-0.527-5.139-0.816c-2.864-0.484-5.704-1.09-8.526-1.777c-0.232-0.056-0.451-0.164-0.675-0.252
			c-0.006-0.002-0.004-0.063,0.009-0.07c0.104-0.059,0.207-0.13,0.32-0.162c0.581-0.166,1.165-0.326,1.75-0.48
			c5.306-1.395,10.548-3.004,15.74-4.775c6.873-2.345,13.672-4.883,20.344-7.755c10.951-4.713,21.527-10.148,31.628-16.491
			c4.857-3.05,9.583-6.288,14.099-9.829c0.572-0.448,1.135-0.907,1.706-1.358c0.247-0.195,0.357-0.193,0.647-0.001
			c0.169,0.111,0.336,0.224,0.502,0.338c6.681,4.602,13.859,8.244,21.443,11.101c5.028,1.894,10.171,3.406,15.421,4.539
			c2.563,0.553,5.143,1.017,7.749,1.335c0.923,0.113,1.845,0.198,2.771,0.262c0.443,0.031,0.883,0.088,1.323,0.146
			c0.049,0.006,0.095,0.089,0.125,0.146c0.01,0.018-0.025,0.08-0.054,0.097c-0.173,0.103-0.35,0.201-0.527,0.298
			c-10.101,5.527-20.528,10.346-31.311,14.39c-8.014,3.006-16.175,5.538-24.488,7.575c-3.761,0.922-7.549,1.728-11.36,2.411
			c-2.223,0.399-4.459,0.73-6.692,1.068c-1.516,0.23-3.035,0.435-4.557,0.624c-1.081,0.134-2.167,0.229-3.252,0.333
			c-1.326,0.127-2.652,0.247-3.978,0.369c-0.201,0.019-0.402,0.041-0.603,0.05c-2.339,0.107-4.672,0.321-7.016,0.331
			c-0.928,0.004-1.857,0.044-2.785,0.068C386.383,364.387,386.383,364.398,386.383,364.41z"/>
		<path fill="#F63701" d="M374.825,311.293c-0.046,0.062-0.078,0.147-0.139,0.183c-0.311,0.185-0.626,0.365-0.946,0.534
			c-5.282,2.785-10.685,5.313-16.181,7.644c-9.436,4.002-19.087,7.403-28.91,10.319c-0.193,0.057-0.388,0.108-0.583,0.16
			c-0.253,0.068-0.475,0.027-0.659-0.173c-0.164-0.178-0.335-0.349-0.499-0.527c-6.065-6.564-11.576-13.561-16.474-21.039
			c-0.133-0.202-0.268-0.403-0.394-0.61c-0.126-0.206-0.055-0.408,0.163-0.461c1.332-0.323,2.666-0.637,3.996-0.964
			c12.991-3.196,25.603-7.483,37.756-13.094c2.819-1.302,5.604-2.674,8.352-4.12c0.285-0.15,0.571-0.3,0.859-0.444
			c0.206-0.103,0.385-0.041,0.501,0.174c0.153,0.284,0.301,0.57,0.447,0.858c3.668,7.195,7.699,14.176,12.285,20.83
			c0.137,0.199,0.255,0.411,0.379,0.617C374.8,311.215,374.81,311.256,374.825,311.293z"/>
		<path fill="#01B359" d="M292.068,259.409c-0.021-3.416,0.3-6.46,0.974-9.465c0.46-2.053,1.113-4.045,1.993-5.957
			c2.61-5.675,6.795-9.746,12.52-12.236c1.296-0.564,2.623-1.049,4.005-1.359c0.827-0.186,1.66-0.327,2.509-0.389
			c3.382-0.247,6.579,0.444,9.644,1.846c2.513,1.15,4.791,2.668,6.931,4.404c2.295,1.863,4.375,3.949,6.336,6.154
			c1.746,1.963,3.367,4.025,4.915,6.146c0.142,0.195,0.261,0.407,0.396,0.607c0.092,0.135,0.006,0.239-0.069,0.318
			c-0.137,0.145-0.294,0.275-0.452,0.398c-10.487,8.14-21.823,14.812-34.165,19.741c-3.936,1.572-7.936,2.958-12.009,4.128
			c-0.155,0.045-0.309,0.092-0.465,0.132c-0.215,0.055-0.426-0.042-0.498-0.224c-0.044-0.112-0.091-0.224-0.125-0.34
			c-0.529-1.82-1.066-3.638-1.58-5.463c-0.318-1.13-0.456-2.297-0.571-3.46C292.179,262.625,291.996,260.855,292.068,259.409z"/>
		<path fill="#FEA501" d="M306.376,301.492c-0.088-0.051-0.219-0.086-0.281-0.171c-0.166-0.227-0.311-0.471-0.45-0.716
			c-2.719-4.773-5.153-9.687-7.286-14.75c-0.548-1.301-1.067-2.614-1.596-3.923c-0.08-0.198,0.034-0.394,0.257-0.459
			c0.116-0.034,0.235-0.059,0.352-0.09c0.546-0.145,1.091-0.293,1.636-0.436c8.212-2.162,16.163-5.047,23.87-8.606
			c8.487-3.919,16.525-8.613,24.146-14.025c0.228-0.162,0.472-0.304,0.718-0.437c0.05-0.027,0.182,0.001,0.21,0.046
			c0.129,0.202,0.253,0.411,0.346,0.631c0.88,2.08,1.766,4.159,2.627,6.247c2.045,4.96,4.121,9.907,6.338,14.794
			c0.083,0.183,0.159,0.37,0.233,0.557c0.052,0.13-0.008,0.377-0.11,0.443c-0.237,0.153-0.475,0.305-0.718,0.449
			c-4.448,2.631-9.002,5.064-13.666,7.288c-7.437,3.546-15.075,6.59-22.901,9.165c-4.406,1.45-8.857,2.747-13.345,3.916
			C306.639,301.442,306.52,301.462,306.376,301.492z"/>
		<path fill="#0286F2" d="M395.739,334.387c-0.023,0.073-0.023,0.183-0.073,0.214c-0.339,0.216-0.684,0.425-1.036,0.621
			c-4.131,2.293-8.371,4.365-12.692,6.277c-8.271,3.662-16.717,6.866-25.307,9.693c-1.073,0.353-2.151,0.692-3.224,1.045
			c-0.211,0.07-0.399,0.046-0.571-0.079c-0.883-0.639-1.769-1.274-2.643-1.926c-5.898-4.398-11.51-9.136-16.844-14.204
			c-0.292-0.278-0.572-0.569-0.855-0.856c-0.077-0.078-0.019-0.239,0.103-0.283c0.189-0.067,0.378-0.138,0.572-0.19
			c4.17-1.116,8.317-2.31,12.433-3.612c8.857-2.802,17.539-6.06,25.975-9.96c2.271-1.05,4.521-2.144,6.743-3.296
			c0.214-0.111,0.434-0.21,0.66-0.294c0.061-0.023,0.174,0.004,0.223,0.051c0.173,0.167,0.339,0.344,0.491,0.53
			c1.377,1.692,2.798,3.345,4.262,4.961c3.504,3.866,7.246,7.482,11.278,10.797c0.155,0.128,0.3,0.268,0.447,0.406
			C395.707,334.311,395.72,334.353,395.739,334.387z"/>
		<path fill="#FEA501" d="M382.69,223.97c0.067,0.028,0.166,0.037,0.198,0.088c0.151,0.237,0.293,0.482,0.423,0.731
			c4.151,8,7.577,16.301,10.319,24.886c0.049,0.154,0.107,0.304,0.15,0.46c0.046,0.167-0.002,0.326-0.11,0.45
			c-0.666,0.757-1.328,1.518-2.01,2.262c-5.412,5.9-11.265,11.324-17.559,16.274c-2.506,1.971-5.067,3.867-7.689,5.679
			c-0.164,0.113-0.341,0.212-0.523,0.293c-0.053,0.024-0.181-0.015-0.211-0.064c-0.125-0.204-0.24-0.418-0.334-0.638
			c-1.089-2.56-2.168-5.124-3.26-7.683c-1.692-3.968-3.389-7.935-5.09-11.899c-0.334-0.778-0.697-1.544-1.044-2.316
			c-0.066-0.147-0.131-0.295-0.183-0.447c-0.056-0.162-0.038-0.329,0.083-0.45c0.2-0.199,0.414-0.383,0.631-0.564
			c2.605-2.17,5.138-4.42,7.608-6.743c2.411-2.267,4.753-4.605,7.024-7.012c2.438-2.583,4.815-5.22,7.083-7.954
			c1.365-1.646,2.696-3.319,4.046-4.977C382.365,224.196,382.462,224.003,382.69,223.97z"/>
		<path fill="#F63701" d="M406.941,289.373c-0.03,0.074-0.041,0.167-0.094,0.218c-0.319,0.309-0.643,0.612-0.973,0.909
			c-2.881,2.596-5.905,5.016-9.04,7.297c-4.212,3.065-8.587,5.88-13.051,8.561c-0.622,0.374-1.249,0.74-1.876,1.107
			c-0.152,0.089-0.33,0.047-0.417-0.097c-0.188-0.311-0.372-0.623-0.554-0.938c-3.132-5.415-5.979-10.979-8.662-16.628
			c-0.865-1.821-1.702-3.656-2.55-5.485c-0.109-0.236-0.078-0.376,0.118-0.527c1.022-0.789,2.044-1.578,3.07-2.362
			c7.76-5.929,15.521-11.856,23.282-17.784c0.257-0.196,0.516-0.388,0.777-0.578c0.126-0.092,0.329-0.008,0.379,0.162
			c0.123,0.425,0.252,0.85,0.355,1.28c2.009,8.434,4.942,16.524,8.987,24.201c0.075,0.143,0.155,0.283,0.218,0.431
			C406.939,289.21,406.932,289.295,406.941,289.373z"/>
		<path fill="#F63701" d="M300.539,336.901c-0.105-0.034-0.228-0.054-0.329-0.111c-0.139-0.079-0.264-0.184-0.391-0.284
			c-8.408-6.623-15.99-14.065-22.415-22.651c-0.265-0.354-0.519-0.717-0.774-1.079c-0.096-0.136,0.011-0.326,0.188-0.341
			c1.085-0.094,2.171-0.178,3.255-0.282c1.164-0.112,2.327-0.239,3.489-0.367c0.802-0.088,1.602-0.185,2.403-0.284
			c1.521-0.187,3.043-0.363,4.561-0.571c1.318-0.18,2.632-0.39,3.945-0.603c1.592-0.258,3.182-0.522,4.77-0.805
			c1.587-0.283,3.169-0.592,4.754-0.889c0.238-0.045,0.476-0.084,0.714-0.127c0.303-0.055,0.552,0.003,0.722,0.294
			c0.142,0.243,0.311,0.471,0.468,0.706c4.969,7.43,10.533,14.384,16.675,20.877c0.222,0.234,0.446,0.467,0.663,0.706
			c0.168,0.185,0.121,0.397-0.104,0.458c-1.477,0.404-2.953,0.815-4.434,1.204c-4.288,1.128-8.603,2.143-12.933,3.095
			c-1.574,0.346-3.156,0.658-4.736,0.982C300.875,336.864,300.713,336.877,300.539,336.901z"/>
		<path fill="#0286F2" d="M411.305,297.197c0.102,0.031,0.194,0.032,0.241,0.079c0.113,0.113,0.213,0.242,0.304,0.375
			c3.097,4.524,6.815,8.492,10.878,12.15c1.02,0.918,2.057,1.817,3.083,2.728c0.15,0.133,0.294,0.275,0.421,0.429
			c0.039,0.047,0.047,0.175,0.011,0.217c-0.208,0.244-0.42,0.487-0.654,0.706c-1.799,1.682-3.657,3.296-5.582,4.834
			c-3.472,2.774-7.094,5.34-10.832,7.737c-2.649,1.699-5.34,3.331-8.014,4.992c-0.171,0.106-0.347,0.206-0.524,0.301
			c-0.162,0.086-0.315,0.028-0.451-0.063c-0.1-0.067-0.188-0.152-0.279-0.232c-1.701-1.492-3.316-3.072-4.856-4.729
			c-3.442-3.703-6.53-7.688-9.373-11.865c-0.135-0.199-0.257-0.409-0.364-0.624c-0.027-0.054,0.004-0.182,0.052-0.219
			c0.19-0.146,0.39-0.281,0.6-0.397c1.729-0.959,3.466-1.902,5.189-2.87c1.371-0.771,2.728-1.568,4.088-2.361
			c3.946-2.3,7.674-4.924,11.344-7.633c1.461-1.078,2.894-2.195,4.34-3.293C411.053,297.363,411.189,297.277,411.305,297.197z"/>
		<path fill="#FEA501" d="M273.5,307.334c-0.193-0.009-0.319,0.006-0.432-0.026c-0.109-0.031-0.231-0.088-0.3-0.173
			c-0.153-0.186-0.28-0.394-0.41-0.598c-3.958-6.254-7.283-12.826-9.938-19.736c-0.1-0.261-0.178-0.531-0.247-0.802
			c-0.012-0.046,0.064-0.156,0.116-0.168c0.154-0.037,0.317-0.051,0.476-0.053c0.645-0.008,1.291-0.017,1.936-0.01
			c2.544,0.029,5.081-0.152,7.615-0.32c2.049-0.136,4.1-0.307,6.138-0.597c1.476-0.21,2.962-0.351,4.436-0.573
			c1.673-0.252,3.339-0.552,5.006-0.845c1.071-0.189,2.138-0.403,3.207-0.604c0.119-0.022,0.24-0.031,0.36-0.043
			c0.17-0.017,0.334,0.063,0.402,0.201c0.071,0.144,0.145,0.288,0.203,0.437c2.415,6.215,5.395,12.156,8.732,17.922
			c0.121,0.209,0.241,0.42,0.365,0.627c0.462,0.766,0.324,0.724-0.431,0.902c-1.607,0.38-3.225,0.718-4.844,1.044
			c-1.975,0.397-3.952,0.785-5.935,1.139c-1.706,0.305-3.419,0.563-5.132,0.829c-1.433,0.223-2.869,0.432-4.305,0.64
			c-0.638,0.092-1.278,0.172-1.919,0.245c-1.001,0.114-2.004,0.214-3.006,0.324C274.871,307.175,274.15,307.26,273.5,307.334z"/>
		<path fill="#0286F2" d="M338.484,356.298c-0.212-0.061-0.447-0.118-0.674-0.196c-1.525-0.523-3.058-1.023-4.569-1.581
			c-9.265-3.422-18.047-7.807-26.294-13.249c-0.234-0.154-0.454-0.33-0.676-0.502c-0.023-0.018-0.024-0.075-0.023-0.113
			c0.001-0.031,0.016-0.084,0.035-0.089c0.312-0.08,0.621-0.176,0.938-0.227c3.224-0.515,6.428-1.142,9.626-1.794
			c3.356-0.685,6.695-1.447,10.027-2.243c0.078-0.019,0.152-0.057,0.231-0.071c1.262-0.234,0.932-0.418,1.915,0.485
			c5.592,5.142,11.538,9.836,17.81,14.119c0.966,0.659,1.945,1.298,2.918,1.948c0.131,0.088,0.277,0.167,0.316,0.341
			c0.009,0.038,0.015,0.108-0.002,0.116c-0.105,0.054-0.214,0.104-0.327,0.139c-2.923,0.918-5.876,1.725-8.862,2.411
			c-0.589,0.135-1.176,0.279-1.766,0.411C338.912,356.246,338.71,356.264,338.484,356.298z"/>
	</g>
</g>
<g>
	<path fill="#1526AB" d="M142.879,461.979c8.985,0,14.377-5.392,17.76-31.503l4.546-34.782h39.643v70.513h-6.131v-65.015h-28.121
		l-3.805,29.812c-4.123,31.609-12.157,36.472-23.892,36.472V461.979z"/>
	<path fill="#1526AB" d="M272.203,466.208l-6.977-17.338h-37.318l-6.977,17.338h-6.977l28.861-70.513h7.506l28.861,70.513H272.203z
		 M246.514,402.144l-16.597,41.23h33.3L246.514,402.144z"/>
	<path fill="#1526AB" d="M288.481,466.208v-70.513h6.026v59.73l44.189-59.73h6.132v70.513h-6.026v-60.576L294.4,466.208H288.481z
		 M316.707,391.361c-7.506,0-14.271-3.594-18.606-9.303l3.066-2.643c3.489,4.863,8.986,7.929,15.54,7.929
		c6.449,0,11.946-3.065,15.54-7.929l2.96,2.643C330.979,387.767,324.319,391.361,316.707,391.361z"/>
	<path fill="#1526AB" d="M377.11,466.208v-65.015h-23.046v-5.498h52.224v5.498h-23.046v65.015H377.11z"/>
	<path fill="#1526AB" d="M407.907,431.29c0-22.506,17.017-37.877,38.974-37.877c16.139,0,25.47,8.784,30.63,17.896l-13.394,6.587
		c-3.074-5.929-9.661-10.65-17.236-10.65c-13.284,0-22.945,10.211-22.945,24.044s9.661,24.044,22.945,24.044
		c7.575,0,14.162-4.611,17.236-10.65l13.394,6.478c-5.269,9.112-14.491,18.005-30.63,18.005
		C424.923,469.167,407.907,453.796,407.907,431.29z"/>
	<path fill="#1526AB" d="M504.014,467.849v-59.504h-21.409v-13.724h58.407v13.724h-21.299v59.504H504.014z"/>
	<path fill="#1526AB" d="M546.166,451.162l13.394-6.478c3.074,6.039,9.661,10.65,17.457,10.65c11.308,0,19.652-7.246,22.067-17.785
		h-35.132v-13.724h34.802c-2.744-9.881-10.868-16.578-21.737-16.578c-7.796,0-14.383,4.721-17.457,10.65l-13.394-6.587
		c5.16-9.112,14.381-17.896,30.52-17.896c22.067,0,38.975,15.371,38.975,37.877s-16.908,37.877-38.975,37.877
		C560.547,469.167,551.326,460.274,546.166,451.162z"/>
	<path fill="#1526AB" d="M674.41,467.849v-59.504h-34.583v59.504h-15.589v-73.228h65.871v73.228H674.41z"/>
</g>
</svg>
