<svg xmlns="http://www.w3.org/2000/svg" xmlns:xlink="http://www.w3.org/1999/xlink" width="13" height="18" viewBox="0 0 13 18"><defs><path id="e3b7a" d="M71 18V0h13v18zm6.5-2c2.49 0 4.5-1.34 4.5-3 0-.77-.43-1.47-1.15-2 .72-.53 1.15-1.23 1.15-2s-.43-1.47-1.15-2C81.57 6.47 82 5.77 82 5c0-1.66-2.01-3-4.5-3S73 3.34 73 5c0 .77.43 1.47 1.15 2-.72.53-1.15 1.23-1.15 2s.43 1.47 1.15 2c-.72.53-1.15 1.23-1.15 2 0 1.66 2.01 3 4.5 3z"/><path id="e3b7b" d="M73 13c0-.77.43-1.47 1.15-2-.72-.53-1.15-1.23-1.15-2s.43-1.47 1.15-2C73.43 6.47 73 5.77 73 5c0-1.66 2.01-3 4.5-3S82 3.34 82 5c0 .77-.43 1.47-1.15 2 .72.53 1.15 1.23 1.15 2s-.43 1.47-1.15 2c.72.53 1.15 1.23 1.15 2 0 1.66-2.01 3-4.5 3S73 14.66 73 13z"/><clipPath id="e3b7c"><use fill="#fff" xlink:href="#e3b7a"/></clipPath></defs><g><g transform="translate(-71)"><use fill="#fff" fill-opacity="0" stroke="#ff7200" stroke-miterlimit="50" stroke-width="4" clip-path="url(&quot;#e3b7c&quot;)" xlink:href="#e3b7b"/></g></g></svg>