<svg xmlns="http://www.w3.org/2000/svg" xmlns:xlink="http://www.w3.org/1999/xlink" width="16" height="16" viewBox="0 0 16 16"><defs><path id="bbxja" d="M32.8 4.72a4.15 4.15 0 0 1 1.28 3.05 4.13 4.13 0 0 1-1.27 3.04 4.16 4.16 0 0 1-3.04 1.27 4.13 4.13 0 0 1-3.04-1.27 4.12 4.12 0 0 1-1.27-3.04 4.13 4.13 0 0 1 1.27-3.05 4.14 4.14 0 0 1 3.04-1.26 4.15 4.15 0 0 1 3.04 1.26zm5.83 11.91c.25-.24.37-.53.37-.86 0-.34-.12-.63-.36-.87l-3.3-3.3a6.6 6.6 0 0 0 1.2-3.83c0-.92-.18-1.8-.54-2.64a6.66 6.66 0 0 0-3.6-3.6A6.75 6.75 0 1 0 27.14 14a6.6 6.6 0 0 0 6.47-.66l3.29 3.3c.23.24.52.36.87.36.33 0 .62-.12.86-.37z"/></defs><g><g transform="translate(-23 -1)"><use fill="#ff7200" xlink:href="#bbxja"/></g></g></svg>