<svg xmlns="http://www.w3.org/2000/svg" xmlns:xlink="http://www.w3.org/1999/xlink" width="20" height="18" viewBox="0 0 20 18"><defs><path id="o3s2a" d="M206.19 11.34c-.53 0-.88.43-.88.95v2.53c0 .6-.4 1.2-1.01 1.2h-7.03c-.61 0-1.26-.6-1.26-1.2V2.84c0-.6.65-.87 1.26-.87h7.03c.61 0 1.01.28 1.01.87v2.53c0 .53.35.95.88.95.54 0 .88-.42.88-.95V2.84c0-1.64-1.09-2.84-2.77-2.84h-7.03C195.59 0 194 1.2 194 2.84v11.98c0 1.65 1.59 3.18 3.27 3.18h7.03c1.68 0 2.77-1.53 2.77-3.18v-2.53c0-.52-.34-.95-.88-.95z"/><path id="o3s2b" d="M213.91 8.5l-.03-.1a.85.85 0 0 0-.22-.32l-2.59-2.54a1.01 1.01 0 0 0-1.4 0 1 1 0 0 0 0 1.4l.93.95h-8.8a.99.99 0 0 0 0 1.97h8.93l-1.02.95a.93.93 0 0 0 0 1.35c.4.38 1.02.36 1.41-.02l2.6-2.55c.3-.3.36-.73.2-1.1z"/></defs><g><g transform="translate(-194)"><use fill="#8e9aa9" xlink:href="#o3s2a"/></g><g transform="translate(-194)"><use fill="#ff7200" xlink:href="#o3s2b"/></g></g></svg>