<svg xmlns="http://www.w3.org/2000/svg" xmlns:xlink="http://www.w3.org/1999/xlink" width="18" height="12" viewBox="0 0 18 12"><defs><path id="2e5ia" d="M4.99 17a3.1 3.1 0 0 1-2.12-.85A2.76 2.76 0 0 1 2 14.14V7.86c0-.75.3-1.48.87-2.01A3.1 3.1 0 0 1 4.99 5H17c.8 0 1.56.31 2.12.85.56.53.88 1.26.87 2.01v6.28c0 .75-.3 1.48-.87 2.01a3.1 3.1 0 0 1-2.12.85zM4 7.09v7.83c0 .6.51 1.08 1.16 1.08h11.67c.64 0 1.16-.47 1.16-1.08V7.1c0-.6-.51-1.09-1.16-1.09H5.16C4.52 6 4 6.48 4 7.09zm5.42.97l4.39 2.68c.24.15.24.37 0 .52l-4.39 2.68c-.25.13-.43.05-.43-.2V8.26c0-.24.2-.32.43-.19z"/></defs><g><g transform="translate(-2 -5)"><g><use fill="#f37818" xlink:href="#2e5ia"/></g></g></g></svg>