<svg xmlns="http://www.w3.org/2000/svg" xmlns:xlink="http://www.w3.org/1999/xlink" width="18" height="18" viewBox="0 0 18 18"><defs><path id="z51ra" d="M2 6c0-1.1.9-2 2-2h14a2 2 0 0 1 2 2v12a2 2 0 0 1-2 2H4a2 2 0 0 1-2-2z"/><path id="z51rc" d="M6 3v1.72"/><path id="z51rd" d="M16 3v1.72"/><path id="z51re" d="M6 12a1 1 0 0 1 2 0 1 1 0 0 1-2 0z"/><path id="z51rf" d="M6 15a1 1 0 0 1 2 0 1 1 0 0 1-2 0z"/><path id="z51rg" d="M14 12a1 1 0 0 1 2 0 1 1 0 0 1-2 0z"/><path id="z51rh" d="M14 15a1 1 0 0 1 2 0 1 1 0 0 1-2 0z"/><path id="z51ri" d="M10 12a1 1 0 0 1 2 0 1 1 0 0 1-2 0z"/><path id="z51rj" d="M10 15a1 1 0 0 1 2 0 1 1 0 0 1-2 0z"/><path id="z51rk" d="M3.5 8.5h15"/><clipPath id="z51rb"><use fill="#fff" xlink:href="#z51ra"/></clipPath></defs><g><g transform="translate(-2 -2)"><use fill="#fff" fill-opacity="0" stroke="#ff7200" stroke-miterlimit="50" stroke-width="4" clip-path="url(&quot;#z51rb&quot;)" xlink:href="#z51ra"/></g><g transform="translate(-2 -2)"><use fill="#fff" fill-opacity="0" stroke="#ff7200" stroke-linecap="round" stroke-miterlimit="50" stroke-width="2" xlink:href="#z51rc"/></g><g transform="translate(-2 -2)"><use fill="#fff" fill-opacity="0" stroke="#ff7200" stroke-linecap="round" stroke-miterlimit="50" stroke-width="2" xlink:href="#z51rd"/></g><g transform="translate(-2 -2)"><use fill="#ff7200" xlink:href="#z51re"/></g><g transform="translate(-2 -2)"><use fill="#ff7200" xlink:href="#z51rf"/></g><g transform="translate(-2 -2)"><use fill="#ff7200" xlink:href="#z51rg"/></g><g transform="translate(-2 -2)"><use fill="#ff7200" xlink:href="#z51rh"/></g><g transform="translate(-2 -2)"><use fill="#ff7200" xlink:href="#z51ri"/></g><g transform="translate(-2 -2)"><use fill="#ff7200" xlink:href="#z51rj"/></g><g transform="translate(-2 -2)"><use fill="#fff" fill-opacity="0" stroke="#ff7200" stroke-linecap="square" stroke-miterlimit="50" xlink:href="#z51rk"/></g></g></svg>