<svg xmlns="http://www.w3.org/2000/svg" xmlns:xlink="http://www.w3.org/1999/xlink" width="18" height="13" viewBox="0 0 18 13"><defs><path id="r2ira" d="M18.6 17H3.4c-.77 0-1.4-.6-1.4-1.36V5.35C2 4.61 2.63 4 3.4 4h15.2c.77 0 1.4.6 1.4 1.35v10.3c0 .74-.63 1.35-1.4 1.35z"/><path id="r2irc" d="M5 12a1 1 0 0 1 1-1h3a1 1 0 0 1 0 2H6a1 1 0 0 1-1-1z"/><path id="r2ird" d="M3 9V8h16v1z"/><clipPath id="r2irb"><use fill="#ff7200" xlink:href="#r2ira"/></clipPath></defs><g><g transform="translate(-2 -4)"><use fill="#ff7200" fill-opacity="0" stroke="#ff7200" stroke-miterlimit="50" stroke-width="4" clip-path="url(&quot;#r2irb&quot;)" xlink:href="#r2ira"/></g><g transform="translate(-2 -4)"><use fill="#ff7200" xlink:href="#r2irc"/></g><g transform="translate(-2 -4)"><use fill="#ff7200" xlink:href="#r2ird"/></g></g></svg>