<svg xmlns="http://www.w3.org/2000/svg" xmlns:xlink="http://www.w3.org/1999/xlink" width="14" height="18" viewBox="0 0 14 18"><defs><path id="mwmsa" d="M8 10V9H7v1z"/><path id="mwmsb" d="M8 13v-1H7v1z"/><path id="mwmsc" d="M8 16v-1H7v1z"/><path id="mwmsd" d="M15 10V9H9v1z"/><path id="mwmse" d="M15 13v-1H9v1z"/><path id="mwmsf" d="M15 16v-1H9v1z"/><path id="mwmsg" d="M4.6 2a.6.6 0 0 0-.6.58v16.84c0 .27.23.58.6.58h12.8c.32 0 .6-.29.6-.6V5.33c0-.15-.06-.3-.17-.4l-2.8-2.74A.62.62 0 0 0 14.6 2z"/><path id="mwmsh" d="M11.99 7.24v-3.5h5v3.5zm4.1-1.22L13.95 3.9v2.12z"/><path id="mwmsp" d="M13.96 6.02V3.9l2.12 2.12z"/><clipPath id="mwmsi"><use fill="#fff" xlink:href="#mwmsa"/></clipPath><clipPath id="mwmsj"><use fill="#fff" xlink:href="#mwmsb"/></clipPath><clipPath id="mwmsk"><use fill="#fff" xlink:href="#mwmsc"/></clipPath><clipPath id="mwmsl"><use fill="#fff" xlink:href="#mwmsd"/></clipPath><clipPath id="mwmsm"><use fill="#fff" xlink:href="#mwmse"/></clipPath><clipPath id="mwmsn"><use fill="#fff" xlink:href="#mwmsf"/></clipPath><clipPath id="mwmso"><use fill="#fff" xlink:href="#mwmsg"/></clipPath><clipPath id="mwmsq"><use fill="#fff" xlink:href="#mwmsh"/></clipPath></defs><g><g transform="translate(-4 -2)"><g><use fill="#fff" fill-opacity="0" stroke="#ff7200" stroke-miterlimit="50" stroke-width="4" clip-path="url(&quot;#mwmsi&quot;)" xlink:href="#mwmsa"/></g><g><use fill="#fff" fill-opacity="0" stroke="#ff7200" stroke-miterlimit="50" stroke-width="4" clip-path="url(&quot;#mwmsj&quot;)" xlink:href="#mwmsb"/></g><g><use fill="#fff" fill-opacity="0" stroke="#ff7200" stroke-miterlimit="50" stroke-width="4" clip-path="url(&quot;#mwmsk&quot;)" xlink:href="#mwmsc"/></g><g><use fill="#fff" fill-opacity="0" stroke="#ff7200" stroke-miterlimit="50" stroke-width="4" clip-path="url(&quot;#mwmsl&quot;)" xlink:href="#mwmsd"/></g><g><use fill="#fff" fill-opacity="0" stroke="#ff7200" stroke-miterlimit="50" stroke-width="4" clip-path="url(&quot;#mwmsm&quot;)" xlink:href="#mwmse"/></g><g><use fill="#fff" fill-opacity="0" stroke="#ff7200" stroke-miterlimit="50" stroke-width="4" clip-path="url(&quot;#mwmsn&quot;)" xlink:href="#mwmsf"/></g><g><use fill="#fff" fill-opacity="0" stroke="#ff7200" stroke-miterlimit="50" stroke-width="4" clip-path="url(&quot;#mwmso&quot;)" xlink:href="#mwmsg"/></g><g><use fill="#fff" fill-opacity="0" stroke="#ff7200" stroke-linecap="round" stroke-linejoin="round" stroke-miterlimit="50" stroke-width="2" clip-path="url(&quot;#mwmsq&quot;)" xlink:href="#mwmsp"/></g></g></g></svg>