<svg xmlns="http://www.w3.org/2000/svg" xmlns:xlink="http://www.w3.org/1999/xlink" width="18" height="18" viewBox="0 0 18 18"><defs><path id="ienba" d="M16.56 20H4c-1.24 0-2-.76-2-2V4c0-1 .5-2 2-2h10c1.5 0 2 1 2 2v14c0 .62 1 1 1.5 1s1.5-.38 1.5-1V9c0-.2.1-.5.5-.5s.5.3.5.5v9c0 .71-.33 1.26-.84 1.6-.38.26-.63.4-1.16.4h-1.44z"/><path id="ienbb" d="M5 13v-1h8v1z"/><path id="ienbc" d="M5 10V9h8v1z"/><path id="ienbd" d="M5 7V6h8v1z"/><path id="ienbe" d="M17.5 17c-.4 0-.5-.4-.5-.54V7.54c0-.3.22-.54.5-.54s.5.24.5.54v8.92c0 .3-.22.54-.5.54z"/><clipPath id="ienbf"><use fill="#fff" xlink:href="#ienba"/></clipPath><clipPath id="ienbg"><use fill="#fff" xlink:href="#ienbb"/></clipPath><clipPath id="ienbh"><use fill="#fff" xlink:href="#ienbc"/></clipPath><clipPath id="ienbi"><use fill="#fff" xlink:href="#ienbd"/></clipPath><clipPath id="ienbj"><use fill="#fff" xlink:href="#ienbe"/></clipPath></defs><g><g transform="translate(-2 -2)"><g><use fill="#fff" fill-opacity="0" stroke="#ff7200" stroke-miterlimit="50" stroke-width="4" clip-path="url(&quot;#ienbf&quot;)" xlink:href="#ienba"/></g><g><use fill="#fff" fill-opacity="0" stroke="#ff7200" stroke-linecap="round" stroke-linejoin="round" stroke-miterlimit="50" stroke-width="4" clip-path="url(&quot;#ienbg&quot;)" xlink:href="#ienbb"/></g><g><use fill="#fff" fill-opacity="0" stroke="#ff7200" stroke-linecap="round" stroke-linejoin="round" stroke-miterlimit="50" stroke-width="4" clip-path="url(&quot;#ienbh&quot;)" xlink:href="#ienbc"/></g><g><use fill="#fff" fill-opacity="0" stroke="#ff7200" stroke-linecap="round" stroke-linejoin="round" stroke-miterlimit="50" stroke-width="4" clip-path="url(&quot;#ienbi&quot;)" xlink:href="#ienbd"/></g><g><use fill="#fff" fill-opacity="0" stroke="#ff7200" stroke-miterlimit="50" stroke-width="4" clip-path="url(&quot;#ienbj&quot;)" xlink:href="#ienbe"/></g></g></g></svg>