<svg xmlns="http://www.w3.org/2000/svg" xmlns:xlink="http://www.w3.org/1999/xlink" width="18" height="18" viewBox="0 0 18 18"><defs><path id="umq2a" d="M10.63 17.2V17A3.61 3.61 0 0 1 9 13.92v-.43c.04-1.97 1.42-3.53 3.09-3.49h4.81a2.8 2.8 0 0 1 2.17.99c.58.65.91 1.55.93 2.5v.44A3.6 3.6 0 0 1 18.36 17v.22c-.03 1.57-1.13 2.81-2.46 2.79h-2.83a2.2 2.2 0 0 1-1.72-.79 3.06 3.06 0 0 1-.72-2z"/><path id="umq2b" d="M9 20H6.07a2.2 2.2 0 0 1-1.72-.79 3.06 3.06 0 0 1-.72-2v-.22A3.61 3.61 0 0 1 2 13.92v-.43c.04-1.97 1.42-3.53 3.09-3.49H8"/><path id="umq2c" d="M14.5 9a3.5 3.5 0 1 0 0-7 3.5 3.5 0 0 0 0 7z"/><path id="umq2d" d="M6.5 9a3.5 3.5 0 1 0 0-7 3.5 3.5 0 0 0 0 7z"/><path id="umq2g" d="M7 19h2"/><path id="umq2h" d="M6 11h2"/><clipPath id="umq2e"><use fill="#fff" xlink:href="#umq2a"/></clipPath><clipPath id="umq2f"><use fill="#fff" xlink:href="#umq2b"/></clipPath><clipPath id="umq2i"><use fill="#fff" xlink:href="#umq2c"/></clipPath><clipPath id="umq2j"><use fill="#fff" xlink:href="#umq2d"/></clipPath></defs><g><g transform="translate(-2 -2)"><g><use fill="#fff" fill-opacity="0" stroke="#ff7200" stroke-miterlimit="50" stroke-width="4" clip-path="url(&quot;#umq2e&quot;)" xlink:href="#umq2a"/></g><g><use fill="#fff" fill-opacity="0" stroke="#ff7200" stroke-linecap="round" stroke-linejoin="round" stroke-miterlimit="50" stroke-width="4" clip-path="url(&quot;#umq2f&quot;)" xlink:href="#umq2b"/></g><g><use fill="#fff" fill-opacity="0" stroke="#ff7200" stroke-linecap="round" stroke-miterlimit="50" stroke-width="2" xlink:href="#umq2g"/></g><g><use fill="#fff" fill-opacity="0" stroke="#ff7200" stroke-linecap="round" stroke-miterlimit="50" stroke-width="2" xlink:href="#umq2h"/></g><g><use fill="#fff" fill-opacity="0" stroke="#ff7200" stroke-miterlimit="50" stroke-width="4" clip-path="url(&quot;#umq2i&quot;)" xlink:href="#umq2c"/></g><g><use fill="#fff" fill-opacity="0" stroke="#ff7200" stroke-miterlimit="50" stroke-width="4" clip-path="url(&quot;#umq2j&quot;)" xlink:href="#umq2d"/></g></g></g></svg>