<svg xmlns="http://www.w3.org/2000/svg" xmlns:xlink="http://www.w3.org/1999/xlink" width="18" height="18" viewBox="0 0 18 18"><defs><path id="pisra" d="M12.96 2.72c-.4-.44-1-.72-1.96-.72-.97 0-1.56.28-1.97.72L2.3 9.22a1.14 1.14 0 0 0 0 1.56c.39.4.98.42 1.4.1v6.88c0 1.24 1 2.24 2.2 2.24h10.14c1.24 0 2.22-1 2.22-2.24v-6.88c.43.32 1.02.3 1.42-.1.4-.44.4-1.14 0-1.56z"/><path id="pisrc" d="M11 18.5v-5"/><clipPath id="pisrb"><use fill="#fff" xlink:href="#pisra"/></clipPath></defs><g><g transform="translate(-2 -2)"><g><use fill="#fff" fill-opacity="0" stroke="#ff7200" stroke-miterlimit="50" stroke-width="4" clip-path="url(&quot;#pisrb&quot;)" xlink:href="#pisra"/></g><g><use fill="#fff" fill-opacity="0" stroke="#ff7200" stroke-linecap="round" stroke-linejoin="round" stroke-miterlimit="50" stroke-width="2" xlink:href="#pisrc"/></g></g></g></svg>