<?xml version="1.0" encoding="utf-8"?><svg xmlns="http://www.w3.org/2000/svg" xmlns:xlink="http://www.w3.org/1999/xlink"><symbol viewBox="0 0 344.96 344.96" id="check" xmlns="http://www.w3.org/2000/svg"><g data-name="Слой 2"><path d="M321.85 86.24l-40-23.11-23.1-40H212.5L172.48 0l-40 23.11H86.24l-23.11 40-40 23.1v46.21L0 172.48l23.11 40v46.21l40 23.11 23.11 40h46.21l40 23.1 40-23.11h46.21l23.11-40 40-23.11V212.5l23.11-40-23.11-40V86.24zM156.91 243.07a16.79 16.79 0 0 1-23.34 0l-50.45-50.44a16.19 16.19 0 0 1 0-22.89l13.35-13.35a16.19 16.19 0 0 1 22.89 0l25.87 25.87 80.34-80.35a16.19 16.19 0 0 1 22.89 0l13.35 13.35a16.19 16.19 0 0 1 0 22.89z" data-name="Capa 1"/></g></symbol><symbol viewBox="0 0 503.93 294.78" id="mouse" xmlns="http://www.w3.org/2000/svg"><g data-name="Слой 2"><g data-name="Слой 1"><path d="M133.21 0l238.22.7c5.41.83 10.85 1.48 16.22 2.52C460.59 17.31 510.63 87 503.2 164c-7 73-67 130.44-137.39 130.67-73.73.25-147.46-.17-221.19-.62-10.94-.06-22.11-.69-32.76-3.08-75.13-16.8-121.67-87.88-110.1-167.35C10.4 64.24 57.62 13.72 114.54 3c6.2-1.14 12.46-2 18.67-3zm118.91 33c-36.19-.11-72.39-.16-108.58-.34-22.25-.1-43.12 5.23-61.5 18.44-37.55 27-55.63 64.45-49.88 111.82 7 57.81 53.39 98.73 109.42 98.92q109.83.39 219.67.62a129 129 0 0 0 15-.89c57.64-6.57 100.62-60.9 96.16-121.45-4.5-60.37-52.63-106.77-110.71-106.8-36.52-.01-73.05-.2-109.58-.32z"/><path d="M353.92 164.29c-12.5 0-25 0-37.52-.12-10.07-.06-17.17-6.83-17.12-16.25s7.14-16 17.28-16q37.77.06 75.54.2c10.58 0 17.41 6.63 17.26 16.48-.13 9.51-7.07 15.84-17.41 15.83-12.68-.04-25.35-.1-38.03-.14z"/></g></g></symbol></svg>