<svg xmlns="http://www.w3.org/2000/svg" viewBox="0 0 638.44 218.21"><defs><style>.cls-1{opacity:0.38;}.cls-2{fill:#f1f2f2;}</style></defs><title>arbor</title><g id="Слой_2" data-name="Слой 2"><g id="Слой_1-2" data-name="Слой 1"><g class="cls-1"><path class="cls-2" d="M39.55,1.88H77l39.67,214.45H83.74l-5.9-38.42H38.67L33,216.33H0ZM74.08,153.43,59,46.58H57.63L42.44,153.43Z"/><path class="cls-2" d="M137.36,1.88h35.28q6,0,13.25.5a75.66,75.66,0,0,1,14.44,2.45,57.83,57.83,0,0,1,13.94,5.84,41,41,0,0,1,11.93,10.67,53.42,53.42,0,0,1,8.35,17q3.14,10.23,3.14,24.8v5.4q0,24.48-7,39.86t-20.72,22.16l34.4,85.75h-34.4l-28.5-80.23H169.25v80.23H137.36Zm36.79,110.74a48,48,0,0,0,14.44-1.88,19.75,19.75,0,0,0,9.54-6.34,28,28,0,0,0,5.27-11.8A85.35,85.35,0,0,0,205,74.45v-17a59.57,59.57,0,0,0-1.51-14.31,22.36,22.36,0,0,0-5.08-9.92A21.41,21.41,0,0,0,189,27.5a49.49,49.49,0,0,0-14.81-1.88h-4.9v87Z"/><path class="cls-2" d="M268.94,1.88h32.89q7.28,0,15.07.5a100.78,100.78,0,0,1,15.19,2.13,64.26,64.26,0,0,1,14.06,4.83A38,38,0,0,1,357.77,18a40.06,40.06,0,0,1,7.91,13.37,55.33,55.33,0,0,1,3,19.15V60.89a48.22,48.22,0,0,1-2.45,15.69,46.57,46.57,0,0,1-6.47,12.62,39.09,39.09,0,0,1-9.17,9A30.59,30.59,0,0,1,340,103.08v1q15.94,2.89,24,15.13t8.1,31.33v10.92a71.12,71.12,0,0,1-2.57,20.28,45.46,45.46,0,0,1-7.22,14.69,39.78,39.78,0,0,1-11,10,57.35,57.35,0,0,1-14.06,6.09,89.55,89.55,0,0,1-16.32,3q-8.66.82-17.83.82H268.94ZM307.1,93.66A42.59,42.59,0,0,0,319,92.09a24.13,24.13,0,0,0,9.23-4.9,21.55,21.55,0,0,0,5.9-8.66,35.59,35.59,0,0,0,2.07-12.87V56.88a52.93,52.93,0,0,0-1.51-13.31,24.13,24.13,0,0,0-5-9.79,21.52,21.52,0,0,0-9-6.09,39.38,39.38,0,0,0-13.62-2.07h-6.28V93.66Zm3,100.07A39.11,39.11,0,0,0,322,192a23.79,23.79,0,0,0,9.17-5.27,23.53,23.53,0,0,0,5.9-9.1,37.15,37.15,0,0,0,2.07-13.06V147.9a53.69,53.69,0,0,0-1.51-13.37,23.59,23.59,0,0,0-5-9.79,21.85,21.85,0,0,0-9-6,38.84,38.84,0,0,0-13.56-2.07h-9.29v77.09Z"/><path class="cls-2" d="M447.85,218.21a83.81,83.81,0,0,1-11.17-.82,43.46,43.46,0,0,1-11.93-3.45,43.72,43.72,0,0,1-21-20.21A75.8,75.8,0,0,1,397,174.21a132.59,132.59,0,0,1-2.51-27.68v-76a128.41,128.41,0,0,1,2.57-27.69,74.73,74.73,0,0,1,6.84-19.33A43.34,43.34,0,0,1,413.64,11,42.69,42.69,0,0,1,425.06,4,46.81,46.81,0,0,1,436.93.75,86.69,86.69,0,0,1,447.85,0a91.31,91.31,0,0,1,10.61.69,46.2,46.2,0,0,1,11.68,3,42.48,42.48,0,0,1,11.36,6.9A41.93,41.93,0,0,1,491.29,23a74.72,74.72,0,0,1,6.84,19.46,131.72,131.72,0,0,1,2.57,28.06v76A124.14,124.14,0,0,1,498.07,174a78.6,78.6,0,0,1-6.91,19.46,44.38,44.38,0,0,1-9.86,12.81,49,49,0,0,1-11.42,7.53,43.09,43.09,0,0,1-11.61,3.58A70.18,70.18,0,0,1,447.85,218.21Zm0-24.48a20,20,0,0,0,8.35-1.63,13.18,13.18,0,0,0,5.9-5.65,33.16,33.16,0,0,0,3.51-10.61,96,96,0,0,0,1.19-16.64V61.65a103.61,103.61,0,0,0-1.19-17.2,35.86,35.86,0,0,0-3.51-11.11,13.77,13.77,0,0,0-5.9-6,18.74,18.74,0,0,0-8.35-1.76,19.44,19.44,0,0,0-8.54,1.76,14,14,0,0,0-6,6,34.65,34.65,0,0,0-3.58,11.11,103.51,103.51,0,0,0-1.19,17.2V159.2a95.94,95.94,0,0,0,1.19,16.64,32.05,32.05,0,0,0,3.58,10.61,13.42,13.42,0,0,0,6,5.65A20.71,20.71,0,0,0,447.85,193.73Z"/><path class="cls-2" d="M531.47,1.88h35.28q6,0,13.25.5a75.65,75.65,0,0,1,14.44,2.45,57.79,57.79,0,0,1,13.94,5.84A41,41,0,0,1,620.3,21.34a53.42,53.42,0,0,1,8.35,17q3.14,10.23,3.14,24.8v5.4q0,24.48-7,39.86T604,130.58l34.4,85.75H604l-28.5-80.23H563.36v80.23H531.47Zm36.79,110.74a48,48,0,0,0,14.44-1.88,19.75,19.75,0,0,0,9.54-6.34,28,28,0,0,0,5.27-11.8,85.35,85.35,0,0,0,1.63-18.14v-17a59.62,59.62,0,0,0-1.51-14.31,22.38,22.38,0,0,0-5.08-9.92,21.41,21.41,0,0,0-9.48-5.78,49.5,49.5,0,0,0-14.82-1.88h-4.9v87Z"/></g></g></g></svg>