<svg xmlns="http://www.w3.org/2000/svg" xmlns:xlink="http://www.w3.org/1999/xlink" viewBox="0 0 372.93 178.99"><defs><style>.cls-1{fill:url(#linear-gradient);}.cls-2{fill:#ee9f6f;}.cls-3{isolation:isolate;}.cls-4{fill:url(#New_Gradient_Swatch_copy_5);}.cls-5{clip-path:url(#clip-path);}.cls-6{fill:#eca880;}.cls-7{fill:#dd7440;}.cls-8{opacity:0.7;mix-blend-mode:multiply;fill:url(#linear-gradient-3);}.cls-9{fill:url(#linear-gradient-4);}.cls-10{fill:url(#linear-gradient-5);}.cls-11{mix-blend-mode:soft-light;fill:url(#linear-gradient-6);}.cls-12{fill:url(#linear-gradient-7);}.cls-13{fill:url(#linear-gradient-8);}.cls-14{clip-path:url(#clip-path-2);}.cls-15{fill:url(#linear-gradient-9);}</style><linearGradient id="linear-gradient" x1="90.34" y1="40.7" x2="97.99" y2="65.04" gradientUnits="userSpaceOnUse"><stop offset="0.03" stop-color="#ee9f6f"/><stop offset="0.66" stop-color="#df7b49"/><stop offset="0.78" stop-color="#e47d49"/><stop offset="0.92" stop-color="#f48249"/><stop offset="1" stop-color="#ff8549"/></linearGradient><linearGradient id="New_Gradient_Swatch_copy_5" x1="146.57" y1="121.64" x2="85.68" y2="75.97" gradientUnits="userSpaceOnUse"><stop offset="0" stop-color="#d55929"/><stop offset="0.52" stop-color="#df7b49"/><stop offset="1" stop-color="#ff8d56"/></linearGradient><clipPath id="clip-path"><polygon id="_Обтравочный_контур_" data-name="&lt;Обтравочный контур&gt;" class="cls-1" points="43.42 79.43 175.24 32.08 136.32 21.38 10.12 64.21 43.42 79.43"/></clipPath><linearGradient id="linear-gradient-3" x1="198.71" y1="146.55" x2="276.96" y2="168.21" gradientUnits="userSpaceOnUse"><stop offset="0.16" stop-color="#86726a"/><stop offset="0.68" stop-color="#fff"/></linearGradient><linearGradient id="linear-gradient-4" x1="233.94" y1="124.09" x2="302.6" y2="132.57" gradientUnits="userSpaceOnUse"><stop offset="0.22" stop-color="#721e15"/><stop offset="0.33" stop-color="#852918"/><stop offset="0.63" stop-color="#b2421f"/><stop offset="0.86" stop-color="#ce5223"/><stop offset="1" stop-color="#d85825"/></linearGradient><linearGradient id="linear-gradient-5" x1="258.9" y1="96.62" x2="318.56" y2="95.15" gradientUnits="userSpaceOnUse"><stop offset="0" stop-color="#b03619"/><stop offset="0.5" stop-color="#ca572e"/><stop offset="1" stop-color="#e77d46"/></linearGradient><linearGradient id="linear-gradient-6" x1="261.51" y1="87.49" x2="355.93" y2="115.81" gradientUnits="userSpaceOnUse"><stop offset="0" stop-color="#231f20"/><stop offset="0.67" stop-color="#b5b5b5"/></linearGradient><linearGradient id="linear-gradient-7" x1="145.85" y1="151.28" x2="198.33" y2="164.54" gradientUnits="userSpaceOnUse"><stop offset="0" stop-color="#ce6236"/><stop offset="1" stop-color="#b25a2e"/></linearGradient><linearGradient id="linear-gradient-8" x1="279.01" y1="34.01" x2="202.78" y2="171" gradientUnits="userSpaceOnUse"><stop offset="0" stop-color="#e16838"/><stop offset="1" stop-color="#df7b49"/></linearGradient><clipPath id="clip-path-2"><polygon id="_Обтравочный_контур_2" data-name="&lt;Обтравочный контур&gt;" class="cls-2" points="124.11 134.92 222.78 16.52 281.74 15.99 180.27 147.62 124.11 134.92"/></clipPath><linearGradient id="linear-gradient-9" x1="183.45" y1="89.45" x2="237.21" y2="19.15" gradientUnits="userSpaceOnUse"><stop offset="0.26" stop-color="#efab80"/><stop offset="0.83" stop-color="#f3bc8c"/></linearGradient></defs><title>calc-3</title><g class="cls-3"><g id="Слой_2" data-name="Слой 2"><g id="brick"><polygon class="cls-4" points="43.42 79.43 175.24 32.08 175.24 101.22 43.42 155.33 43.42 79.43"/><polygon id="_Обтравочный_контур_3" data-name="&lt;Обтравочный контур&gt;" class="cls-1" points="43.42 79.43 175.24 32.08 136.32 21.38 10.12 64.21 43.42 79.43"/><g class="cls-5"><polygon class="cls-6" points="193.38 23.02 0 69.56 123.01 7.47 193.38 23.02"/></g><polygon class="cls-7" points="43.42 79.43 43.42 155.33 10.12 140.11 10.12 64.21 43.42 79.43"/><polygon id="_Контур_" data-name="&lt;Контур&gt;" class="cls-8" points="204.22 178.99 242.12 166.6 273.22 159.97 285.4 144.07 215.89 120.39 204.22 178.99"/><polygon class="cls-7" points="372.93 137.5 308.3 156.1 308.3 112.11 372.93 97.04 372.93 137.5"/><polygon id="_Контур_2" data-name="&lt;Контур&gt;" class="cls-9" points="223.59 140.46 308.3 156.1 308.3 112.11 223.59 99.98 223.59 140.46"/><polygon id="_Контур_3" data-name="&lt;Контур&gt;" class="cls-10" points="260.28 79.88 372.93 97.04 308.3 112.11 223.59 99.98 260.28 79.88"/><polygon id="_Контур_4" data-name="&lt;Контур&gt;" class="cls-11" points="260.28 79.88 372.93 97.04 308.3 112.11 223.59 99.98 260.28 79.88"/><polygon class="cls-12" points="204.22 178.38 148.24 163.82 124.11 134.92 180.27 147.62 204.22 178.38"/><polygon class="cls-13" points="204.22 178.38 307.27 47.05 281.74 15.99 180.27 147.62 204.22 178.38"/><polygon id="_Обтравочный_контур_4" data-name="&lt;Обтравочный контур&gt;" class="cls-2" points="124.11 134.92 222.78 16.52 281.74 15.99 180.27 147.62 124.11 134.92"/><g class="cls-14"><polygon class="cls-15" points="216.88 0 279.21 9.95 127.87 119.69 216.88 0"/></g></g></g></g></svg>