<svg xmlns="http://www.w3.org/2000/svg" viewBox="0 0 585 569.86"><defs><style>.cls-1{opacity:0.14;}.cls-2{fill:#d1d3d4;}</style></defs><title>circle</title><g id="Слой_2" data-name="Слой 2"><g id="Слой_1-2" data-name="Слой 1"><g class="cls-1"><path class="cls-2" d="M585,284.93c0,31.12-12.73,59.86-21.85,87.94-9.45,29.11-16.36,59.77-34,84-17.81,24.47-45,40.44-69.43,58.25-24.23,17.63-47.71,38.62-76.82,48.07-28.08,9.12-59.29,6.24-90.41,6.24s-62.33,2.88-90.41-6.24c-29.11-9.45-52.6-30.44-76.82-48.07-24.47-17.81-51.62-33.78-69.43-58.25-17.63-24.23-24.54-54.89-34-84C12.73,344.79,0,316.05,0,284.93S12.73,225.07,21.85,197c9.45-29.11,16.36-59.77,34-84,17.81-24.47,45-40.44,69.43-58.25C149.49,37.11,173,16.12,202.09,6.67,230.17-2.45,261.38.43,292.5.43s62.33-2.88,90.41,6.24c29.11,9.45,52.6,30.44,76.82,48.07C484.2,72.55,511.35,88.52,529.16,113c17.63,24.23,24.54,54.89,34,84C572.27,225.07,585,253.81,585,284.93ZM292.5,27.54c-28.2,0-56.59-3.34-82,4.92C184.1,41,163.16,60.71,141.21,76.68,119,92.82,93.92,106.76,77.78,128.93c-16,21.95-21.58,50.07-30.14,76.44-8.26,25.44-20.53,51.36-20.53,79.56S39.38,339,47.64,364.49c8.56,26.37,14.16,54.49,30.14,76.44C93.92,463.1,119,477,141.21,493.18c21.95,16,42.89,35.65,69.26,44.22,25.44,8.26,53.83,4.92,82,4.92s56.59,3.34,82-4.92c26.37-8.56,47.31-28.24,69.26-44.22C466,477,491.08,463.1,507.22,440.93c16-21.95,21.58-50.07,30.14-76.44,8.26-25.44,20.53-51.36,20.53-79.56s-12.27-54.12-20.53-79.56c-8.56-26.37-14.17-54.49-30.14-76.44C491.08,106.76,466,92.82,443.79,76.68c-21.95-16-42.89-35.65-69.26-44.22C349.09,24.2,320.7,27.54,292.5,27.54Z"/></g><g class="cls-1"><path class="cls-2" d="M545.93,284.93c0,26.91-12.06,51.59-19.95,75.86C517.81,386,512.79,413,497.55,433.9c-15.4,21.16-39.63,34.21-60.78,49.6C415.82,498.75,396,517.85,370.83,526c-24.28,7.88-51.43,4.34-78.34,4.34s-54.06,3.54-78.34-4.34c-25.16-8.17-45-27.27-65.93-42.51-21.16-15.4-45.38-28.45-60.78-49.6C72.21,413,67.19,386,59,360.8c-7.88-24.28-19.95-49-19.95-75.86S51.13,233.35,59,209.07C67.19,183.9,72.21,156.9,87.45,136c15.4-21.16,39.62-34.21,60.78-49.6C169.18,71.11,189,52,214.16,43.84,238.44,36,265.59,39.5,292.5,39.5s54.06-3.54,78.34,4.34c25.16,8.17,45,27.27,65.93,42.51,21.16,15.4,45.38,28.45,60.78,49.6,15.24,20.95,20.27,47.94,28.44,73.11C533.87,233.35,545.93,258,545.93,284.93ZM292.5,56.92c-25,0-50.37-3.84-72.95,3.49-23.41,7.6-41.59,25.86-61.07,40-19.68,14.32-42.6,26.07-56.92,45.75-14.18,19.48-18.36,44.85-26,68.25-7.33,22.58-19.1,45.45-19.1,70.48s11.77,47.89,19.1,70.48c7.6,23.41,11.78,48.77,26,68.25,14.32,19.68,37.25,31.43,56.92,45.75,19.48,14.18,37.67,32.44,61.07,40,22.58,7.33,47.92,3.49,72.95,3.49s50.37,3.84,72.95-3.49c23.41-7.6,41.59-25.86,61.07-40,19.68-14.32,42.6-26.07,56.93-45.75,14.18-19.48,18.36-44.85,26-68.25,7.33-22.58,19.1-45.45,19.1-70.48s-11.77-47.89-19.1-70.48c-7.6-23.41-11.78-48.77-26-68.25-14.32-19.68-37.25-31.43-56.93-45.75C407,86.27,388.85,68,365.45,60.41,342.86,53.08,317.53,56.92,292.5,56.92Z"/></g><g class="cls-1"><path class="cls-2" d="M518,284.93c0,23.89-11.59,45.67-18.59,67.23-7.26,22.35-10.93,46.72-24.46,65.32-13.67,18.79-35.81,29.75-54.6,43.42-18.6,13.54-35.8,31.29-58.15,38.54-21.56,7-45.81,3-69.7,3s-48.14,4-69.7-3c-22.35-7.26-39.55-25-58.15-38.54-18.79-13.67-40.93-24.64-54.6-43.42-13.54-18.6-17.21-43-24.46-65.32C78.59,330.6,67,308.83,67,284.93s11.59-45.67,18.59-67.23c7.26-22.35,10.93-46.72,24.46-65.32,13.67-18.79,35.81-29.75,54.6-43.42,18.6-13.54,35.8-31.29,58.15-38.54,21.56-7,45.81-3,69.7-3s48.14-4,69.7,3c22.35,7.26,39.55,25,58.15,38.54,18.79,13.67,40.93,24.64,54.6,43.42,13.54,18.6,17.21,43,24.46,65.32C506.41,239.26,518,261,518,284.93ZM292.5,81c-22.43,0-45.26-4.25-65.5,2.32-21,6.81-36.9,23.9-54.35,36.61-17.63,12.83-38.76,22.78-51.59,40.41-12.71,17.46-15.72,40.56-22.53,61.53-6.57,20.24-17.93,40.6-17.93,63S92,327.72,98.53,348c6.81,21,9.83,44.07,22.53,61.53,12.83,17.63,34,27.58,51.59,40.41C190.11,462.61,206,479.7,227,486.51c20.24,6.57,43.07,2.32,65.5,2.32s45.26,4.25,65.5-2.32c21-6.81,36.9-23.9,54.35-36.61,17.63-12.83,38.76-22.78,51.59-40.41C476.64,392,479.66,368.93,486.47,348c6.57-20.24,17.93-40.6,17.93-63s-11.36-42.79-17.93-63c-6.81-21-9.83-44.07-22.53-61.53-12.83-17.63-34-27.58-51.59-40.41C394.89,107.25,379,90.16,358,83.35,337.76,76.78,314.93,81,292.5,81Z"/></g></g></g></svg>