<svg xmlns="http://www.w3.org/2000/svg" viewBox="0 0 44.97 33"><defs><style>.cls-1{fill:#c49a6c;}</style></defs><title>icon-2</title><g id="Слой_2" data-name="Слой 2"><g id="Слой_1-2" data-name="Слой 1"><path class="cls-1" d="M44.31,31.68H42.15V22.63A2.07,2.07,0,0,0,40.79,19H36.48L35.81,8.36a.66.66,0,0,0-.66-.62H32.34a.66.66,0,0,0-.66.62L31,19H29.44L28.77,8.36a.66.66,0,0,0-.66-.62H25.3a.66.66,0,0,0-.66.62L24,19H22.4L21.73,8.36a.66.66,0,0,0-.66-.62H18.26a.66.66,0,0,0-.66.62L16.94,19H15.1L14.69.64A.66.66,0,0,0,14,0H9.81a.66.66,0,0,0-.66.64L8.68,21.82H3.48a2.07,2.07,0,0,0-1.36,3.62v6.24H.66A.66.66,0,1,0,.66,33H44.31a.66.66,0,1,0,0-1.32Zm-35.69-7H6.29a.66.66,0,1,0,0,1.32h2.3l-.13,5.72h-5V26h0a.66.66,0,0,0,0-1.32.75.75,0,1,1,0-1.5H8.65ZM33,9.06h1.58L35.16,19H32.34Zm-7,0H27.5L28.12,19H25.3Zm-7,0h1.58L21.08,19H18.26ZM11.26,31.68H9.78l.67-30.36h2.94L13.78,19H12.63a2.07,2.07,0,0,0-1.36,3.62Zm29.52-9.86H39.38a.66.66,0,0,0,0,1.32h1.45v8.54H12.58V23.14h24a.66.66,0,1,0,0-1.32H12.63a.75.75,0,0,1,0-1.5H40.79a.75.75,0,0,1,0,1.5Z"/><path class="cls-1" d="M16.85,24.64a.66.66,0,0,0-.66.66v1.41a.66.66,0,1,0,1.32,0V25.3A.66.66,0,0,0,16.85,24.64Z"/><path class="cls-1" d="M19.67,24.64a.66.66,0,0,0-.66.66v1.41a.66.66,0,1,0,1.32,0V25.3A.66.66,0,0,0,19.67,24.64Z"/><path class="cls-1" d="M22.48,24.64a.66.66,0,0,0-.66.66v1.41a.66.66,0,1,0,1.32,0V25.3A.66.66,0,0,0,22.48,24.64Z"/><path class="cls-1" d="M25.3,24.64a.66.66,0,0,0-.66.66v1.41a.66.66,0,0,0,1.32,0V25.3A.66.66,0,0,0,25.3,24.64Z"/><path class="cls-1" d="M28.12,24.64a.66.66,0,0,0-.66.66v1.41a.66.66,0,1,0,1.32,0V25.3A.66.66,0,0,0,28.12,24.64Z"/><path class="cls-1" d="M30.93,24.64a.66.66,0,0,0-.66.66v1.41a.66.66,0,1,0,1.32,0V25.3A.66.66,0,0,0,30.93,24.64Z"/><path class="cls-1" d="M33.75,24.64a.66.66,0,0,0-.66.66v1.41a.66.66,0,1,0,1.32,0V25.3A.66.66,0,0,0,33.75,24.64Z"/><path class="cls-1" d="M36.56,24.64a.66.66,0,0,0-.66.66v1.41a.66.66,0,1,0,1.32,0V25.3A.66.66,0,0,0,36.56,24.64Z"/></g></g></svg>