<svg xmlns="http://www.w3.org/2000/svg" viewBox="0 0 34 34"><defs><style>.cls-1{fill:#c49a6c;}</style></defs><title>icon-1</title><g id="Слой_2" data-name="Слой 2"><g id="Слой_1-2" data-name="Слой 1"><path class="cls-1" d="M33.81,14.88,29.47,11V1.7a.57.57,0,0,0-.57-.57H22.67a.56.56,0,0,0-.57.57V4.38L17.38.14a.57.57,0,0,0-.75,0L.19,14.88A.56.56,0,0,0,0,15.5a.56.56,0,0,0,.53.36H2.83v15.3A2.84,2.84,0,0,0,5.67,34H28.33a2.84,2.84,0,0,0,2.83-2.83V15.87h2.27a.57.57,0,0,0,.38-1ZM23.23,2.27h5.1V10l-5.1-4.58Zm-6.8,30.6H11.9v-4h4.53Zm0-5.1H11.9V23.23h4.53Zm0-5.67H11.9v-4h4.53ZM22.1,32.86H17.57v-4H22.1Zm0-5.1H17.57V23.23H22.1Zm0-5.67H17.57v-4H22.1Zm8.5-7.37a.57.57,0,0,0-.57.57V31.17a1.7,1.7,0,0,1-1.7,1.7h-5.1V17.57a.57.57,0,0,0-.56-.57H11.33a.57.57,0,0,0-.56.57v15.3H5.67A1.7,1.7,0,0,1,4,31.17V15.3a.57.57,0,0,0-.57-.57H2L17,1.33l15,13.4Z"/><rect class="cls-1" x="19.83" y="24.93" width="1.14" height="1.14"/><path class="cls-1" d="M17,5.1a2.83,2.83,0,0,0-2.83,2.83v4a.57.57,0,0,0,.56.57h4.53a.57.57,0,0,0,.56-.57v-4A2.83,2.83,0,0,0,17,5.1Zm-.57,6.23H15.3V9.64h1.13Zm0-2.83H15.3V7.93a1.7,1.7,0,0,1,1.13-1.6Zm2.27,2.83H17.57V9.64H18.7Zm0-2.83H17.57V6.34a1.71,1.71,0,0,1,1.13,1.6Z"/><rect class="cls-1" x="14.17" y="13.6" width="1.13" height="1.13"/><rect class="cls-1" x="16.43" y="13.6" width="1.14" height="1.13"/><rect class="cls-1" x="18.7" y="13.6" width="1.13" height="1.13"/></g></g></svg>