<svg xmlns="http://www.w3.org/2000/svg" viewBox="0 0 50 56.96"><defs><style>.cls-1{fill:#c49a6c;}</style></defs><title>img-2</title><g id="Слой_2" data-name="Слой 2"><g id="Слой_1-2" data-name="Слой 1"><path class="cls-1" d="M49.13,57H.87A.87.87,0,0,1,0,56.08V52.29a.87.87,0,0,1,.87-.87H4.25V.87A.87.87,0,0,1,5.12,0H44.88a.87.87,0,0,1,.87.87V51.42h3.38a.87.87,0,0,1,.87.87v3.79A.87.87,0,0,1,49.13,57ZM1.74,55.21H48.26v-2H1.74ZM6,51.42H44V1.74H6Zm35.39-1.79H26.74a.87.87,0,0,1-.87-.87V4.13a.87.87,0,0,1,.87-.87H41.39a.87.87,0,0,1,.87.87V42.22h0v6.54A.87.87,0,0,1,41.39,49.63ZM27.62,47.89h12.9V42.55c-.88-1-4-5.16-6.51-13.41S30.3,8.32,30,5H27.62V47.89ZM31.78,5c.3,3.46,1.49,15.74,3.9,23.63a44,44,0,0,0,4.84,10.94V5H37.68a58.29,58.29,0,0,0,1.41,9.41.87.87,0,0,1-1.68.47A59.94,59.94,0,0,1,35.93,5H35c.23,2.47.89,9.25,1.75,13.48a.87.87,0,1,1-1.71.35C34.11,14.36,33.44,7.36,33.23,5ZM23.26,49.63H8.61a.87.87,0,0,1-.87-.87V42.22h0V4.13a.87.87,0,0,1,.87-.87H23.26a.87.87,0,0,1,.87.87V48.76A.87.87,0,0,1,23.26,49.63ZM9.48,47.89h12.9V5H20c-.28,3.32-1.45,15.87-4,24.14S10.36,41.5,9.48,42.55v5.34ZM9.48,5V39.56a44.09,44.09,0,0,0,4.85-10.93c2.41-7.89,3.6-20.17,3.9-23.63h-1.8c-.21,2.36-.88,9.36-1.8,13.83a.87.87,0,1,1-1.71-.35c.87-4.24,1.53-11,1.76-13.48h-.95a59.88,59.88,0,0,1-1.48,9.88.87.87,0,0,1-1.68-.47A58.23,58.23,0,0,0,12,5Z"/></g></g></svg>