<svg xmlns="http://www.w3.org/2000/svg" viewBox="0 0 50 37.9"><defs><style>.cls-1{fill:#c49a6c;}</style></defs><title>img-5</title><g id="Слой_2" data-name="Слой 2"><g id="Слой_1-2" data-name="Слой 1"><path class="cls-1" d="M49.19,36.28H47.41V34.5a1.67,1.67,0,0,0-.9-1.48.81.81,0,0,0,0-.24V13.71h1.78A.81.81,0,0,0,49,12.47L41.23.37A.81.81,0,0,0,40.55,0H9.45a.81.81,0,0,0-.68.37L1,12.47a.81.81,0,0,0,.68,1.25H3.45V32.78a.81.81,0,0,0,0,.24,1.68,1.68,0,0,0-.9,1.48v1.78H.81a.81.81,0,1,0,0,1.62H49.19a.81.81,0,0,0,0-1.62Zm-9.56-3.46v-7h1.84v7Zm-3.46,0v-7H38v7Zm-3.45,0v-7h1.84v7Zm-13.82,0V18.42l4.71-4.71h2.79l4.71,4.71V32.83Zm-3.46,0v-7h1.84v7Zm-3.46,0v-7h1.83v7Zm-3.46,0v-7h1.84v7Zm-3.46,0a.48.48,0,0,0,0-.05v-7H6.91v7Zm7.5-19.11,4.71,4.71v5.77H5.08V18.42l4.71-4.71ZM30,1.62,32.6,12.09H17.4L20,1.62Zm10.2,12.1,4.71,4.71v5.77H32.72V18.42l4.71-4.71Zm-11.53,0H31.1v2.42Zm4,2.42V13.71h2.42Zm-13.82,0V13.71h2.42Zm-1.62-2.42v2.42l-2.42-2.42ZM43.09,25.81h1.84v7s0,0,0,.05H43.09Zm1.84-9.68-2.42-2.42h2.42Zm1.92-4H34.27L31.68,1.62h8.42ZM9.89,1.62h8.42L15.73,12.09H3.16Zm-2.4,12.1L5.08,16.13V13.71ZM4.21,34.5a.05.05,0,0,1,.05-.05H45.73a.05.05,0,0,1,.05.05v1.78H4.21Z"/></g></g></svg>