<svg xmlns="http://www.w3.org/2000/svg" viewBox="0 0 50 52.17"><defs><style>.cls-1{fill:#c49a6c;}</style></defs><title>img-1</title><g id="Слой_2" data-name="Слой 2"><g id="Слой_1-2" data-name="Слой 1"><path class="cls-1" d="M48.91,17.39H41.3V2.17h7.61a1.09,1.09,0,0,0,0-2.17h-8.7l-.1,0-.2,0a1.18,1.18,0,0,0-.31.15h0l-.16.12L30.86,6.77l-.12.09-8.61,6.46s-.05,0-.08.06L13.4,19.87l0,0-8.7,6.51L.44,29.58a1.09,1.09,0,0,0,1.3,1.74l2.61-2V43.48H1.09A1.09,1.09,0,0,0,0,44.57v6.52a1.09,1.09,0,0,0,1.09,1.09H48.91A1.09,1.09,0,0,0,50,51.09V18.48A1.09,1.09,0,0,0,48.91,17.39ZM32.61,8.17l6.52-4.89V17.39H38A1.09,1.09,0,0,0,37,18.48v5.43H32.61V8.17Zm-8.7,6.52L30.43,9.8V23.91H29.35A1.09,1.09,0,0,0,28.26,25v4.35H23.91V14.7Zm-8.7,6.51,6.52-4.89v13H19.57a1.09,1.09,0,0,0-1.09,1.09V37H15.22Zm-8.7,6.52L13,22.84V37H10.87A1.09,1.09,0,0,0,9.78,38v5.43H6.52V27.73ZM47.83,50H2.17V45.65h8.7A1.09,1.09,0,0,0,12,44.57V39.13h7.61A1.09,1.09,0,0,0,20.65,38V31.52h8.7a1.09,1.09,0,0,0,1.09-1.09V26.09H38A1.09,1.09,0,0,0,39.13,25V19.57h8.7Z"/></g></g></svg>