<svg xmlns="http://www.w3.org/2000/svg" viewBox="0 0 50 53.57"><defs><style>.cls-1{fill:#c49a6c;}</style></defs><title>img-3</title><g id="Слой_2" data-name="Слой 2"><g id="Слой_1-2" data-name="Слой 1"><path class="cls-1" d="M49.11,51.79H43.75V.89A.84.84,0,0,0,42.86,0H7.14a.84.84,0,0,0-.89.89V51.79H.89a.89.89,0,0,0,0,1.79H49.11a.89.89,0,0,0,0-1.79Zm-37.5,0V5.36H38.39V51.79Zm28.57,0V4.46a.84.84,0,0,0-.89-.89H10.71a.84.84,0,0,0-.89.89V51.79H8v-50H42v50Z"/><path class="cls-1" d="M35.71,25.89H32.14a.84.84,0,0,0-.89.89v.89H29.46a.89.89,0,0,0,0,1.79h1.79v.89a.84.84,0,0,0,.89.89h3.57a.84.84,0,0,0,.89-.89V26.79A.84.84,0,0,0,35.71,25.89Zm-.89,3.57H33V27.68h1.79v1.79Z"/></g></g></svg>