<svg xmlns="http://www.w3.org/2000/svg" viewBox="0 0 38 51.21"><defs><style>.cls-1{fill:#c49a6c;}</style></defs><title>img-4</title><g id="Слой_2" data-name="Слой 2"><g id="Слой_1-2" data-name="Слой 1"><path class="cls-1" d="M36.24,29.95V2.28A2.29,2.29,0,0,0,34,0H31.78A2.28,2.28,0,0,0,29.5,2.28v.27H8.5V2.28A2.28,2.28,0,0,0,6.21,0H4A2.29,2.29,0,0,0,1.76,2.28v8.29c0,.42.29.1.7.1s.8.07.8-.34v-8A.79.79,0,0,1,4,1.5H6.21A.78.78,0,0,1,7,2.28v24H7a15.72,15.72,0,0,0-2.19.78,8,8,0,0,0-1.52.87V10.3a.75.75,0,1,0-1.5,0V29.95A2.52,2.52,0,0,0,0,32.35v2.28A2.51,2.51,0,0,0,1.76,37v11.9A2.29,2.29,0,0,0,4,51.21H6.21A2.28,2.28,0,0,0,8.5,48.93V37.14h21V48.93a2.28,2.28,0,0,0,2.28,2.28H34a2.29,2.29,0,0,0,2.29-2.28V37A2.51,2.51,0,0,0,38,34.63V32.35A2.52,2.52,0,0,0,36.24,29.95ZM31,2.28h0a.78.78,0,0,1,.78-.78H34a.79.79,0,0,1,.78.78V27.93a7.9,7.9,0,0,0-1.52-.87A15.2,15.2,0,0,0,31,26.28ZM8.5,4.05h21v7.46H8.5Zm0,9h21v12.9c-.67-.15-1.39-.28-2.14-.39A64.12,64.12,0,0,0,19,24.85a64.11,64.11,0,0,0-8.35.67c-.76.11-1.48.25-2.14.39V13ZM7,48.93a.78.78,0,0,1-.78.78H4a.79.79,0,0,1-.78-.78V37.14H7Zm27,.78H31.78a.78.78,0,0,1-.78-.78V37.14h3.73V48.93h0A.79.79,0,0,1,34,49.71ZM36.5,34.63a1,1,0,0,1-1,1h-33a1,1,0,0,1-1-1V32.35a1,1,0,0,1,1-1H24.71a.75.75,0,1,0,0-1.5H3.5a3.59,3.59,0,0,1,1.4-1.16h0A19.81,19.81,0,0,1,10.85,27,63.83,63.83,0,0,1,19,26.35a63.72,63.72,0,0,1,8.14.65,19.91,19.91,0,0,1,6,1.66,3.62,3.62,0,0,1,1.42,1.17H27.7a.75.75,0,0,0,0,1.5h7.79a1,1,0,0,1,1,1v2.28Z"/></g></g></svg>