<svg xmlns="http://www.w3.org/2000/svg" viewBox="0 0 94.74 91.61"><defs><style>.cls-1,.cls-4{fill:#c49a6c;}.cls-2{fill:#f7941e;}.cls-3{fill:#8dc63f;}.cls-4{font-size:25.08px;font-family:FjallaOne-Regular, FjallaOne Regular;}.cls-5{font-size:5.97px;}.cls-12,.cls-13,.cls-5{fill:#d1b293;}.cls-13,.cls-5{font-family:BebasNeueRegular, BebasNeueRegular;}.cls-6{letter-spacing:0em;}.cls-7{letter-spacing:0em;}.cls-8{letter-spacing:0em;}.cls-9{letter-spacing:0.03em;}.cls-10{letter-spacing:0em;}.cls-11{letter-spacing:0em;}.cls-13{font-size:6.37px;}.cls-14{letter-spacing:-0.02em;}.cls-15{letter-spacing:-0.01em;}.cls-16{fill:#c2b59b;}</style></defs><title>logo</title><g id="Слой_2" data-name="Слой 2"><g id="Слой_1-2" data-name="Слой 1"><path class="cls-1" d="M94.74,45.81c0,5-2.74,9.51-4.21,14-1.52,4.68-2,9.93-4.84,13.82S78,79.65,74,82.51s-7.35,6.84-12,8.35c-4.51,1.47-9.64.31-14.64.31s-10.13,1.16-14.64-.31c-4.68-1.52-8.13-5.52-12-8.35S11.91,77.58,9,73.65,5.73,64.51,4.21,59.83c-1.47-4.51-4.21-9-4.21-14s2.74-9.51,4.21-14C5.73,27.1,6.21,21.85,9,18S16.77,12,20.7,9.1s7.35-6.84,12-8.35C37.24-.72,42.37.44,47.37.44S57.5-.72,62,.74c4.68,1.52,8.13,5.52,12,8.35S82.83,14,85.7,18,89,27.1,90.53,31.78C92,36.29,94.74,40.8,94.74,45.81ZM47.37,2.43c-4.79,0-9.71-1.19-14,.21C28.87,4.09,25.6,8,21.87,10.71s-8.48,4.66-11.22,8.42S7.56,27.92,6.1,32.4C4.7,36.72,2,41,2,45.81S4.7,54.89,6.1,59.21c1.45,4.48,1.84,9.54,4.55,13.27s7.45,5.68,11.22,8.42,7,6.62,11.47,8.07c4.32,1.4,9.24.21,14,.21s9.71,1.19,14-.21c4.48-1.45,7.74-5.36,11.47-8.07s8.48-4.66,11.22-8.42,3.1-8.79,4.55-13.27c1.4-4.32,4.11-8.62,4.11-13.41S90,36.72,88.64,32.4c-1.45-4.48-1.84-9.54-4.55-13.27s-7.45-5.68-11.22-8.42-7-6.62-11.47-8.07C57.08,1.23,52.16,2.43,47.37,2.43Z"/><path class="cls-2" d="M91.36,46c0,4.64-2.69,8.79-4,13C85.9,63.32,85.58,68.25,83,71.86S75.69,77.32,72,80,65.3,86.44,61,87.85c-4.18,1.36-9,.14-13.6.14s-9.41,1.22-13.6-.14C29.44,86.44,26.3,82.6,22.69,80s-8.26-4.47-10.91-8.11S8.84,63.32,7.43,59c-1.36-4.18-4-8.34-4-13s2.69-8.79,4-13c1.41-4.34,1.73-9.27,4.35-12.88S19,14.69,22.69,12s6.75-6.47,11.08-7.87C38,2.8,42.73,4,47.37,4S56.78,2.8,61,4.16C65.3,5.57,68.44,9.41,72,12S80.3,16.5,83,20.15,85.9,28.69,87.31,33C88.67,37.21,91.36,41.37,91.36,46Zm-44-40.39c-4.47,0-9.07-1.24-13.1.06s-7.16,5.12-10.64,7.65-8,4.25-10.56,7.76S10.3,29.34,8.94,33.52,5,41.54,5,46s2.66,8.46,4,12.49,1.6,9,4.13,12.43,7,5.21,10.56,7.76S30.09,85,34.27,86.33s8.64.06,13.1.06,9.07,1.24,13.1-.06,7.16-5.12,10.64-7.65,8-4.25,10.56-7.76,2.77-8.26,4.13-12.43,4-8,4-12.49-2.66-8.46-4-12.49-1.6-9-4.13-12.43-7-5.21-10.56-7.76S64.65,7,60.47,5.67,51.84,5.61,47.37,5.61Z"/><path class="cls-3" d="M88.17,45.9c0,4.29-2.63,8.12-3.89,12s-1.47,8.65-3.9,12-6.83,5-10.2,7.41S64,83.42,60,84.72s-8.32,0-12.61,0-8.74,1.27-12.61,0-6.85-5-10.2-7.42-7.75-4-10.2-7.41-2.6-8-3.9-12-3.89-7.7-3.89-12,2.63-8.12,3.89-12,1.47-8.65,3.9-12,6.83-5,10.2-7.41,6.18-6.12,10.2-7.42,8.32,0,12.61,0,8.74-1.27,12.61,0,6.85,5,10.2,7.42,7.75,4,10.2,7.41,2.6,8,3.9,12S88.17,41.61,88.17,45.9ZM47.37,8.14c-4.18,0-8.52-1.29-12.29-.06s-6.65,4.9-9.91,7.27-7.58,3.89-10,7.18-2.48,7.79-3.75,11.7S7.61,41.72,7.61,45.9s2.61,7.9,3.84,11.67S12.83,66,15.2,69.28s6.69,4.79,10,7.18,6,6,9.9,7.27,8.11-.06,12.29-.06,8.52,1.29,12.29.06,6.65-4.9,9.91-7.27,7.58-3.89,10-7.18,2.48-7.79,3.75-11.7,3.84-7.49,3.84-11.67S84.52,38,83.29,34.23s-1.38-8.45-3.75-11.7-6.69-4.79-10-7.18-6-6-9.9-7.27S51.55,8.14,47.37,8.14Z"/><text class="cls-4" transform="translate(15.82 49.66)">ARBOR</text><text class="cls-5" transform="translate(8.31 56.73)"><tspan class="cls-6">д</tspan><tspan class="cls-7" x="3.14" y="0">ере</tspan><tspan class="cls-8" x="12.52" y="0">в</tspan><tspan class="cls-7" x="15.53" y="0">янные </tspan><tspan class="cls-9" x="33.24" y="0">к</tspan><tspan x="36.26" y="0">лееные из</tspan><tspan class="cls-10" x="62.64" y="0">д</tspan><tspan class="cls-8" x="65.78" y="0">е</tspan><tspan x="68.8" y="0">л</tspan><tspan class="cls-11" x="71.83" y="0">и</tspan><tspan class="cls-7" x="75.16" y="0">я</tspan></text><rect class="cls-12" x="35.43" y="59.43" width="23.88" height="0.8"/><text class="cls-13" transform="translate(31.95 67.7)">с 1999 <tspan class="cls-14" x="18.62" y="0">г</tspan><tspan class="cls-15" x="20.94" y="0">о</tspan><tspan x="24.4" y="0">да</tspan></text><path class="cls-16" d="M49.07,20.54a.17.17,0,0,0-.17.17V22a.17.17,0,1,0,.34,0V20.71A.17.17,0,0,0,49.07,20.54Z"/><path class="cls-16" d="M45.67,20.54a.17.17,0,0,0-.17.17V22a.17.17,0,1,0,.34,0V20.71A.17.17,0,0,0,45.67,20.54Z"/><path class="cls-16" d="M52.73,20l-1.8-5.4a.17.17,0,0,0-.33,0l-.54,1.62-.83-2.5a.17.17,0,0,0-.33,0L48.49,15l-1-2.87a.17.17,0,0,0-.33,0l-1,2.87-.42-1.26a.17.17,0,0,0-.33,0l-.83,2.5-.54-1.62a.17.17,0,0,0-.33,0L42,20a.17.17,0,0,0,.16.23H43.8V22a.17.17,0,1,0,.34,0V20.2H47.2V22a.17.17,0,1,0,.34,0V20.2H50.6V22a.17.17,0,1,0,.34,0V20.2h1.63a.17.17,0,0,0,.16-.23ZM49.07,14.3l.82,2.44-.4,1.2-.81-2.44Zm-3.4,0,.4,1.2-.82,2.44-.4-1.2ZM44,18.62a.17.17,0,0,0-.17.17v1.07H42.41L44,15.17l1.1,3.31-.46,1.37h-.48V18.79A.17.17,0,0,0,44,18.62Zm3.57.3.88-.95a.17.17,0,1,0-.25-.23l-.63.68V17.07a.17.17,0,1,0-.34,0V18.4l-.63-.67a.17.17,0,1,0-.25.24l.88.93v1H45l2.39-7.17,2.39,7.17H47.54Zm3.4.94V18.79a.17.17,0,0,0-.34,0v1.07h-.48l-.46-1.37,1.1-3.31,1.56,4.68Z"/></g></g></svg>