<svg xmlns="http://www.w3.org/2000/svg" viewBox="0 0 62.07 61.87"><defs><style>.cls-1{fill:#c49a6c;}</style></defs><title>service-1</title><g id="Слой_2" data-name="Слой 2"><g id="Слой_1-2" data-name="Слой 1"><path class="cls-1" d="M54.92,43.71a.91.91,0,0,0-1,.2l-10,10a.91.91,0,0,0,.64,1.56h10a.91.91,0,0,0,.91-.91v-10A.91.91,0,0,0,54.92,43.71Zm-8.11,9.89,6.85-6.85v6.85Z"/><path class="cls-1" d="M61.51,29.1a.91.91,0,0,0-1,.2L57.79,32V13.48a.91.91,0,0,0-.91-.91h-7L52.42,10h0l2.45-2.45a2.78,2.78,0,0,0,0-3.93L52,.81a2.78,2.78,0,0,0-3.93,0L45.66,3.26l-3,3-6.34,6.34H8.08v-9a.91.91,0,0,0-.91-.91A7.17,7.17,0,0,0,0,9.81V48.5a.92.92,0,0,0,0,.2A6.9,6.9,0,0,0,6.9,55.08H34.74L29.5,60.32a.91.91,0,0,0,.64,1.56h31a.91.91,0,0,0,.91-.91v-31A.91.91,0,0,0,61.51,29.1ZM49.4,2.1a1,1,0,0,1,1.35,0l2.83,2.83a1,1,0,0,1,0,1.35L51.78,8.09,47.59,3.91ZM46.3,5.2l4.18,4.18-1.67,1.67L44.63,6.87Zm13.95,35H58.57a.91.91,0,0,0,0,1.82h1.68v2.75H58.57a.91.91,0,0,0,0,1.82h1.68v2.75H58.57a.91.91,0,0,0,0,1.82h1.68v2.75H58.57a.91.91,0,0,0,0,1.82h1.68v4.35H32.34l9.2-9.2a.91.91,0,0,0,0-1.29l-.13-.11a.91.91,0,0,0-1.16.11l-3.69,3.69H6.9a5.05,5.05,0,0,1-5.08-4.92c0-.17,0-.34,0-.51h0c0-.08,0-.16,0-.24v0c0-.07,0-.14,0-.21v-.06l0-.18L2,47l0-.14,0-.14,0-.09.07-.18,0-.05.1-.22h0a5.36,5.36,0,0,1,3.73-2.92h0l.23,0h0l.21,0h.06l.2,0h.33a.91.91,0,0,0,.91-.91V35.64a.91.91,0,0,0-1.82,0V41.4a7.11,7.11,0,0,0-4.09,2l-.34.36V9.81A5.35,5.35,0,0,1,6.25,4.54V32h0a.91.91,0,0,0,1.82,0h0V14.39H34.54l-5,5a.91.91,0,0,0,1.29,1.29l6.59-6.59h0l6-6,4.18,4.18-.49.49h0L28.66,31.2,24.48,27,28.1,23.4a.91.91,0,0,0-1.29-1.29l-4.27,4.27-.06.07,0,0,0,.05,0,0,0,.05,0,0,0,.05v0l-1.78,5-1.21,3.43a.94.94,0,0,0,0,.14h-3a.91.91,0,1,0,0,1.82H41.51a.91.91,0,1,0,0-1.82H23.41l5.56-2h0l.06,0h0l.06,0h0l.06,0h0l.07-.07L48.06,14.39H56V33.85l-13,13a.91.91,0,0,0,0,1.29l.07.06a.91.91,0,0,0,1.15,0l.07-.06h0l16-16ZM27,32.11,24.39,33,22.65,31.3l.92-2.61Z"/></g></g></svg>