<svg xmlns="http://www.w3.org/2000/svg" viewBox="0 0 58.33 54.72"><defs><style>.cls-1{fill:#c49a6c;}</style></defs><title>service-4</title><g id="Слой_2" data-name="Слой 2"><g id="Слой_1-2" data-name="Слой 1"><path class="cls-1" d="M53.12,27.36c3.07-2,5.21-7.1,5.21-13.23C58.33,6.21,54.76,0,50.21,0H26.16V1.8H50.21c3.42,0,6.31,5.64,6.31,12.33a20.52,20.52,0,0,1-1.35,7.52h-32v1.8H54.29c-1.11,1.86-2.54,3-4.08,3H12.15A15.17,15.17,0,0,0,15.93,18H46.6v-1.8H16.15q.09-1,.09-2.1c0-5.36-1.63-9.93-4.09-12.33H23.75V0H8.12C3.57,0,0,6.21,0,14.13c0,6.13,2.13,11.23,5.21,13.23C2.13,29.36,0,34.46,0,40.59c0,7.92,3.57,14.13,8.12,14.13H37.58v-1.8H12.15c2.46-2.4,4.09-7,4.09-12.33a23.1,23.1,0,0,0-1-6.91H45.4v-1.8H14.55a11.59,11.59,0,0,0-2.4-3.61H50.21c3.42,0,6.31,5.65,6.31,12.33s-2.89,12.33-6.31,12.33H40v1.8H50.21c4.55,0,8.12-6.21,8.12-14.13C58.33,34.46,56.19,29.36,53.12,27.36ZM14.43,40.59c0,6.68-2.89,12.33-6.31,12.33S1.8,47.27,1.8,40.59,4.7,28.26,8.12,28.26,14.43,33.91,14.43,40.59ZM8.12,26.46c-3.42,0-6.31-5.64-6.31-12.33S4.7,1.8,8.12,1.8s6.31,5.64,6.31,12.33S11.54,26.46,8.12,26.46Z"/><path class="cls-1" d="M5.16,35.74a14.59,14.59,0,0,0-1,5.45H6c0-4.09,1.39-6.31,2.1-6.31v-1.8C6.93,33.07,5.88,34,5.16,35.74Z"/><path class="cls-1" d="M10.22,41.19c0,4.09-1.39,6.31-2.1,6.31v1.8c1.19,0,2.24-.95,3-2.67a14.61,14.61,0,0,0,1-5.45Z"/><rect class="cls-1" x="4.21" y="42.99" width="1.8" height="2.41"/><rect class="cls-1" x="10.22" y="36.98" width="1.8" height="2.41"/><rect class="cls-1" x="47.2" y="31.87" width="2.4" height="1.8"/><rect class="cls-1" x="21.95" y="37.28" width="31.27" height="1.8"/><rect class="cls-1" x="24.95" y="42.09" width="18.64" height="1.8"/><rect class="cls-1" x="47.8" y="42.09" width="2.41" height="1.8"/><rect class="cls-1" x="17.14" y="48.11" width="32.47" height="1.8"/><path class="cls-1" d="M5.16,9.28a14.59,14.59,0,0,0-1,5.45H6c0-4.09,1.39-6.31,2.1-6.31V6.61C6.93,6.61,5.88,7.56,5.16,9.28Z"/><path class="cls-1" d="M10.22,14.73c0,4.09-1.39,6.31-2.1,6.31v1.8c1.19,0,2.24-.95,3-2.67a14.61,14.61,0,0,0,1-5.45Z"/><rect class="cls-1" x="4.21" y="16.54" width="1.8" height="2.41"/><rect class="cls-1" x="10.22" y="10.52" width="1.8" height="2.41"/><rect class="cls-1" x="18.94" y="21.65" width="2.41" height="1.8"/><rect class="cls-1" x="24.95" y="11.43" width="18.64" height="1.8"/><rect class="cls-1" x="18.34" y="11.43" width="2.41" height="1.8"/><rect class="cls-1" x="18.94" y="5.41" width="32.47" height="1.8"/></g></g></svg>