<svg xmlns="http://www.w3.org/2000/svg" viewBox="0 0 60.71 60.71"><defs><style>.cls-1{fill:#c49a6c;}</style></defs><title>service-2</title><g id="Слой_2" data-name="Слой 2"><g id="Слой_1-2" data-name="Слой 1"><path class="cls-1" d="M57.19,0H12.46a1,1,0,0,0,0,1.92H57.19a1.6,1.6,0,0,1,1.6,1.6v31H53.36a1,1,0,1,0,0,1.92h5.43v9.27a1.6,1.6,0,0,1-.8,1.38,1,1,0,0,0,.48,1.79,1,1,0,0,0,.48-.13,3.53,3.53,0,0,0,1.76-3V3.51A3.52,3.52,0,0,0,57.19,0Z"/><path class="cls-1" d="M49.84,41.86a3.51,3.51,0,1,0,3.51-3.51A3.52,3.52,0,0,0,49.84,41.86Zm3.51-1.6a1.6,1.6,0,1,1-1.6,1.6A1.6,1.6,0,0,1,53.36,40.26Z"/><path class="cls-1" d="M21.09,48.25a1,1,0,0,0-1-1H3.51a1.6,1.6,0,0,1-1.6-1.6V36.42H25.24a1,1,0,0,0,0-1.92H1.92v-31a1.6,1.6,0,0,1,1.6-1.6H8.63A1,1,0,0,0,8.63,0H3.51A3.52,3.52,0,0,0,0,3.51V45.69A3.52,3.52,0,0,0,3.51,49.2H20.13A1,1,0,0,0,21.09,48.25Z"/><path class="cls-1" d="M53.82,47.51,45.37,45V42a8.63,8.63,0,0,0,4.82-6.48l1.06-6.93a2.77,2.77,0,0,0,1-4.54h0l-1.87-1.87-1.32-4a6.06,6.06,0,0,0-5.15-4.12,2.24,2.24,0,0,0-2-1.31H36.74a2.24,2.24,0,0,0-2,1.31,6.06,6.06,0,0,0-5.15,4.12l-1.32,4L26.37,24a2.77,2.77,0,0,0,1,4.54l1.07,6.93A8.62,8.62,0,0,0,33.23,42v3l-8.45,2.54a6,6,0,0,0-4.33,5.81v5.14a2.24,2.24,0,0,0,2.24,2.24h23a1,1,0,0,0,0-1.92h-15V55.91a1,1,0,1,0-1.92,0v2.88H22.69a.32.32,0,0,1-.32-.32V53.33a4.13,4.13,0,0,1,3-4l9-2.7h9.94l9,2.7a4.13,4.13,0,0,1,3,4v5.14a.32.32,0,0,1-.32.32H49.84V55.91a1,1,0,1,0-1.92,0v3.83a1,1,0,0,0,1,1h7a2.24,2.24,0,0,0,2.24-2.24V53.33A6,6,0,0,0,53.82,47.51ZM28.33,26.84a.85.85,0,0,1-.6-1.45l2-2A1,1,0,0,0,30,23l1.39-4.17a4.15,4.15,0,0,1,3.13-2.76v4.07a1,1,0,1,0,1.92,0V15a.32.32,0,0,1,.32-.32h5.11a.32.32,0,0,1,.32.32v5.11a1,1,0,1,0,1.92,0V16.05a4.15,4.15,0,0,1,3.13,2.76L48.61,23a1,1,0,0,0,.23.37l2,2a.85.85,0,0,1-.6,1.45H28.33Zm13.34,16a8.66,8.66,0,0,0,1.79-.19v2.1H35.15v-2.1a8.66,8.66,0,0,0,1.79.19H38a1,1,0,1,0,0-1.92H36.93a6.67,6.67,0,0,1-6.63-5.69l-1-6.45h20l-1,6.45a6.67,6.67,0,0,1-6.63,5.69,1,1,0,1,0,0,1.92Z"/><path class="cls-1" d="M7.35,38.34a3.51,3.51,0,1,0,0,7h8.95a3.51,3.51,0,0,0,0-7Zm10.54,3.51a1.6,1.6,0,0,1-1.6,1.6H7.35a1.6,1.6,0,1,1,0-3.19h8.95A1.6,1.6,0,0,1,17.89,41.86Z"/><path class="cls-1" d="M18.21,5.11H9.27a1.6,1.6,0,0,0-1.6,1.6v3.83a1.6,1.6,0,0,0,1.6,1.6h3.51v2.28L8.55,16.54A1.59,1.59,0,0,0,7.67,18v.49a1.59,1.59,0,0,0,.88,1.43L12.78,22v2.28H9.27a1.6,1.6,0,0,0-1.6,1.6v3.83a1.6,1.6,0,0,0,1.6,1.6h8.95a1.6,1.6,0,0,0,1.6-1.6v-1h2.88a1,1,0,0,0,0-1.92H19.81v-1a1.6,1.6,0,0,0-1.6-1.6H14.7V22l4.23-2.11a1.59,1.59,0,0,0,.88-1.43V18a1.59,1.59,0,0,0-.88-1.43L14.7,14.42V12.14h3.51a1.6,1.6,0,0,0,1.6-1.6v-1H51.12v9.27a1,1,0,1,0,1.92,0V8.63a1,1,0,0,0-1-1H19.81v-1A1.6,1.6,0,0,0,18.21,5.11ZM17.89,26.2v3.19H9.58V26.2Zm0-8v.09l-4.15,2.08L9.58,18.26v-.09l4.15-2.08Zm0-7.94H9.58V7h8.31Z"/><path class="cls-1" d="M21.73,41.86a3.51,3.51,0,1,0,3.51-3.51A3.52,3.52,0,0,0,21.73,41.86Zm5.11,0a1.6,1.6,0,1,1-1.6-1.6A1.6,1.6,0,0,1,26.84,41.86Z"/></g></g></svg>