<svg xmlns="http://www.w3.org/2000/svg" viewBox="0 0 45.58 70"><defs><style>.cls-1{fill:#c49a6c;}</style></defs><title>service-3</title><g id="Слой_2" data-name="Слой 2"><g id="Слой_1-2" data-name="Слой 1"><path class="cls-1" d="M19.72,36.29H15.59a1.21,1.21,0,1,0,0,2.42h4.13a1.21,1.21,0,1,0,0-2.42Z"/><path class="cls-1" d="M44.37,3.51H26.55V1.21A1.21,1.21,0,0,0,25,0L.9,6.48A1.21,1.21,0,0,0,0,7.64v3.9a1.21,1.21,0,1,0,2.41,0v-3L24.14,2.78V67.32L2.41,63V15.62a1.21,1.21,0,1,0-2.41,0V64a1.21,1.21,0,0,0,1,1.18L25.11,70l.24,0a1.21,1.21,0,0,0,1.21-1.21V66.5H37.68a1.21,1.21,0,1,0,0-2.42H26.55V60.63h12a1.21,1.21,0,0,0,1.21-1.21V10.58a1.21,1.21,0,0,0-1.21-1.21h-12V5.92H43.16V64.08H41.44a1.21,1.21,0,1,0,0,2.42h2.93a1.21,1.21,0,0,0,1.21-1.21V4.71A1.21,1.21,0,0,0,44.37,3.51ZM37.3,11.78V58.22H26.55V11.78Z"/></g></g></svg>