<svg xmlns="http://www.w3.org/2000/svg" viewBox="0 0 6.68 4.49"><defs><style>.cls-1{fill:#fff;fill-rule:evenodd;}</style></defs><title>steps-3</title><g id="Слой_2" data-name="Слой 2"><g id="Слой_1-2" data-name="Слой 1"><path class="cls-1" d="M2.21,1.5h0Zm-.29,2,.36-.61-.08,0-.08,0H2.06l0,0,0,.06-.25.37a.12.12,0,0,0,0,0l0,0,0,0,.16.09ZM5.55,0H6.61a.07.07,0,0,1,.07.07V3A.07.07,0,0,1,6.61,3H5.55A.07.07,0,0,1,5.47,3V2.84l-.33.22h0a.27.27,0,0,1,0,.08.25.25,0,0,1,0,.14l0,.05a1.75,1.75,0,0,1-.22.39A1.73,1.73,0,0,1,4.58,4l-.51.39a.25.25,0,0,1-.28,0l-.47-.28-.06.06h0l-.09,0h-.1L3,4.26H3L1.69,3.52l-.08-.07a.26.26,0,0,1,0-.2v0L1.2,2.87V3A.07.07,0,0,1,1.13,3H.07A.07.07,0,0,1,0,3V.07A.07.07,0,0,1,.07,0H1.13A.07.07,0,0,1,1.2.07V.13L1.73.3A.25.25,0,0,1,1.9.61h0l.63.05h0L3.73.82,4,.74,4.81.57A.25.25,0,0,1,5,.29L5.47.13V.07A.07.07,0,0,1,5.55,0ZM5.05,3h0l.38-.25h0l-.62-2L4.07.88,3.76,1h0L3.68,1l-.38.14-.93.38,0,.08a.36.36,0,0,0,.17.17.36.36,0,0,0,.25,0l.89-.24a.07.07,0,0,1,.07,0L5.05,3Zm-2.63,0,.05,0L2.6,3l.12.08-.39.63L2,3.55l.37-.63Zm0,.87L2.77,4l.35-.58-.28-.22-.38.62ZM2.89,4l.17.1h.08l0,0h0l0,0,.2-.36a.11.11,0,0,0,0-.07.11.11,0,0,0,0-.06l-.15-.12L2.89,4ZM1.24,2.71l.42.38.22-.31h0A.26.26,0,0,1,2,2.67H2a.25.25,0,0,1,.16,0l.25.09.25.11L2.86,3h0l0,0,.57.45.06.08.76.53.2-.16.07-.06L3.49,3a.07.07,0,1,1,.09-.11l1.1.84.12-.13.08-.12-1-.86a.07.07,0,0,1,0-.1.07.07,0,0,1,.1,0l.95.84L5,3.27l0-.05a.1.1,0,0,0,0-.11L3.72,1.69l-.85.23a.5.5,0,0,1-.59-.27L2.21,1.5h0a.07.07,0,0,1,0-.09l1-.41L3.41.93,2.5.82h0L1.85.77h0L1.24,2.71Zm2.32,1,0,.06-.14.24.47.28.06,0,.06,0,.19-.14-.62-.43ZM1.2,2.33,1.76.57a.1.1,0,0,0,0-.08A.11.11,0,0,0,1.69.43L1.2.28V2.33ZM1.06.14H.14V2.9h.92V.14ZM5.47,2.22V.28L5,.42A.11.11,0,0,0,5,.48.11.11,0,0,0,5,.56l.52,1.66Zm.14.47h0V2.9h.92V.14H5.62v0h0Z"/></g></g></svg>