<svg xmlns="http://www.w3.org/2000/svg" viewBox="0 0 7.91 6.05"><defs><style>.cls-1{fill:#fff;fill-rule:evenodd;}</style></defs><title>steps-4</title><g id="Слой_2" data-name="Слой 2"><g id="Слой_1-2" data-name="Слой 1"><path class="cls-1" d="M1.33.42H6.58V.25A.25.25,0,0,1,6.65.07h0A.25.25,0,0,1,6.83,0h.25a.25.25,0,0,1,.18.07h0a.25.25,0,0,1,.07.18V5.17h.32a.25.25,0,0,1,.18.07h0a.25.25,0,0,1,.07.18V5.8a.25.25,0,0,1-.25.25H6.26A.25.25,0,0,1,6.08,6h0A.25.25,0,0,1,6,5.8V5.43a.25.25,0,0,1,.07-.18h0a.25.25,0,0,1,.18-.07h.32V2.57H1.33v2.6h.32a.25.25,0,0,1,.18.07h0a.26.26,0,0,1,.07.18V5.8a.25.25,0,0,1-.25.25H.25A.25.25,0,0,1,.07,6h0A.25.25,0,0,1,0,5.8V5.43a.25.25,0,0,1,.07-.18h0a.25.25,0,0,1,.18-.07H.58V.25A.25.25,0,0,1,.65.07h0A.25.25,0,0,1,.83,0h.25a.25.25,0,0,1,.18.07h0a.25.25,0,0,1,.07.18V.42Zm4.28,2,1-1V.59L4.74,2.43Zm1-.77-.77.77h.77V1.66Zm-2,.77L6.4.57H5.52L3.65,2.43Zm-1.09,0L5.31.57H4.44L2.58,2.43Zm-1.07,0L4.24.57H3.37L1.51,2.43Zm-1,0L3.17.57H2.28v0l-.94.94V2.4Zm0-1.08L2.08.57H1.33v.76Zm.32,4H.25a.11.11,0,0,0-.11.11V5.8a.11.11,0,0,0,0,.07h0a.11.11,0,0,0,.08,0h1.4a.11.11,0,0,0,.08,0,.11.11,0,0,0,0-.08V5.43a.11.11,0,0,0,0-.08h0a.1.1,0,0,0-.08,0ZM1.18,2.5V.25a.11.11,0,0,0,0-.08h0a.11.11,0,0,0-.08,0H.83A.11.11,0,0,0,.72.25V5.17h.46V2.5ZM7.66,5.32H6.26a.1.1,0,0,0-.08,0,.11.11,0,0,0,0,.08V5.8a.11.11,0,0,0,0,.07h0a.11.11,0,0,0,.08,0h1.4a.11.11,0,0,0,.08,0,.11.11,0,0,0,0-.08V5.43a.11.11,0,0,0,0-.08h0a.1.1,0,0,0-.08,0ZM6.72.49V5.17h.46V.25a.11.11,0,0,0,0-.08h0a.11.11,0,0,0-.08,0H6.83a.11.11,0,0,0-.11.11Z"/></g></g></svg>