<svg xmlns="http://www.w3.org/2000/svg" viewBox="0 0 5.79 6"><defs><style>.cls-1{fill:#231f20;fill-rule:evenodd;}</style></defs><title>work-1</title><g id="Слой_2" data-name="Слой 2"><g id="Слой_1-2" data-name="Слой 1"><path class="cls-1" d="M2.41.88,2.27.66l-.71.49L2.41.88Zm3,1.95V1.71a.29.29,0,0,0-.08-.2h0a.29.29,0,0,0-.2-.08H.43a.29.29,0,0,0-.29.29V5.57a.29.29,0,0,0,.08.2h0a.29.29,0,0,0,.2.08H5.17a.29.29,0,0,0,.29-.29v-1H3.34a.25.25,0,0,1-.18-.07h0a.25.25,0,0,1-.07-.18V3.07a.25.25,0,0,1,.07-.17h0a.25.25,0,0,1,.18-.07Zm.14,1.8v1A.43.43,0,0,1,5.17,6H.43a.43.43,0,0,1-.3-.13h0A.43.43,0,0,1,0,5.57V1.71a.43.43,0,0,1,.43-.43h0L2.23,0a.25.25,0,0,1,.19,0,.25.25,0,0,1,.16.1L3,.69,4.41.22h0a.25.25,0,0,1,.31.16h0L5,1.28h.15a.43.43,0,0,1,.31.13h0a.43.43,0,0,1,.13.31V2.82h.11a.07.07,0,0,1,.07.07V4.55a.07.07,0,0,1-.07.07ZM.7,1.28,2.31.16a.11.11,0,0,1,.15,0l.38.55L2.56.83,2.34.52a.07.07,0,0,0-.1,0l-1.12.77Zm.95,0L4.45.36h0a.11.11,0,0,1,.08,0,.11.11,0,0,1,.05.06h0l.28.85H4.59L4.4.68a.07.07,0,0,0-.09,0l-2,.65Zm1.15,0h.62L4.17,1a.07.07,0,1,1,0,.14l-.33.11h.57L4.28.79,2.8,1.28ZM5.64,3V4.48H3.34a.11.11,0,0,1-.08,0,.11.11,0,0,1,0-.08V3.07a.11.11,0,0,1,0-.07h0a.11.11,0,0,1,.08,0h2.3Zm-1.57.4a.36.36,0,1,1-.25.1.35.35,0,0,1,.25-.1Zm-.35,0a.5.5,0,1,1-.15.35A.5.5,0,0,1,3.73,3.37Z"/></g></g></svg>