<svg xmlns="http://www.w3.org/2000/svg" xmlns:xlink="http://www.w3.org/1999/xlink" width="82" height="29" viewBox="0 0 82 29"><defs><path id="1986a" d="M966.413 1811h-12.826a.589.589 0 0 0-.587.59v27.82a.59.59 0 0 0 .587.59c.13 0 .26-.044.365-.128l6.412-5.114a.592.592 0 0 0 .095-.83.586.586 0 0 0-.825-.095l-5.46 4.354v-26.007h11.651v26.007l-2.62-2.09a.586.586 0 0 0-.826.096.592.592 0 0 0 .095.83l3.574 2.849a.585.585 0 0 0 .952-.463v-27.82a.589.589 0 0 0-.587-.59z"/><path id="1986b" d="M971 1824v-1h30v1z"/><path id="1986c" d="M919 1824v-1h30v1z"/></defs><g><g transform="translate(-919 -1811)"><use fill="#817a72" xlink:href="#1986a"/></g><g transform="translate(-919 -1811)"><use fill="#817a72" xlink:href="#1986b"/></g><g transform="translate(-919 -1811)"><use fill="#817a72" xlink:href="#1986c"/></g></g></svg>