<svg xmlns="http://www.w3.org/2000/svg" xmlns:xlink="http://www.w3.org/1999/xlink" width="82" height="29" viewBox="0 0 82 29"><defs><path id="s7g7a" d="M966.413 3507h-12.826a.589.589 0 0 0-.587.59v27.82a.59.59 0 0 0 .587.59c.13 0 .26-.044.365-.128l6.412-5.114a.593.593 0 0 0 .095-.83.586.586 0 0 0-.825-.095l-5.46 4.354v-26.007h11.651v26.008l-2.62-2.09a.585.585 0 0 0-.826.095.591.591 0 0 0 .095.83l3.574 2.849c.176.14.417.167.62.069a.59.59 0 0 0 .332-.532v-27.82a.589.589 0 0 0-.587-.59z"/><path id="s7g7b" d="M971 3520v-1h30v1z"/><path id="s7g7c" d="M919 3520v-1h30v1z"/></defs><g><g transform="translate(-919 -3507)"><use fill="#fff" xlink:href="#s7g7a"/></g><g transform="translate(-919 -3507)"><use fill="#fff" xlink:href="#s7g7b"/></g><g transform="translate(-919 -3507)"><use fill="#fff" xlink:href="#s7g7c"/></g></g></svg>