<?xml version="1.0" encoding="utf-8"?><svg xmlns="http://www.w3.org/2000/svg" xmlns:xlink="http://www.w3.org/1999/xlink"><symbol viewBox="0 0 448 512" id="chevron-down" xmlns="http://www.w3.org/2000/svg"><path d="M207.029 381.476L12.686 187.132c-9.373-9.373-9.373-24.569 0-33.941l22.667-22.667c9.357-9.357 24.522-9.375 33.901-.04L224 284.505l154.745-154.021c9.379-9.335 24.544-9.317 33.901.04l22.667 22.667c9.373 9.373 9.373 24.569 0 33.941L240.971 381.476c-9.373 9.372-24.569 9.372-33.942 0z"/></symbol><symbol viewBox="0 0 640 512" id="motorcycle" xmlns="http://www.w3.org/2000/svg"><path d="M512.949 192.003c-14.862-.108-29.14 2.322-42.434 6.874L437.589 144H520c13.255 0 24-10.745 24-24V88c0-13.255-10.745-24-24-24h-45.311a24 24 0 0 0-17.839 7.945l-37.496 41.663-22.774-37.956A24 24 0 0 0 376 64h-80c-8.837 0-16 7.163-16 16v16c0 8.837 7.163 16 16 16h66.411l19.2 32H227.904c-17.727-23.073-44.924-40-99.904-40H72.54c-13.455 0-24.791 11.011-24.536 24.464C48.252 141.505 58.9 152 72 152h56c24.504 0 38.686 10.919 47.787 24.769l-11.291 20.529c-13.006-3.865-26.871-5.736-41.251-5.21C55.857 194.549 1.565 249.605.034 317.021-1.603 389.076 56.317 448 128 448c59.642 0 109.744-40.794 123.953-96h84.236c13.673 0 24.589-11.421 23.976-25.077-2.118-47.12 17.522-93.665 56.185-125.026l12.485 20.808c-27.646 23.654-45.097 58.88-44.831 98.179.47 69.556 57.203 126.452 126.758 127.11 71.629.678 129.839-57.487 129.234-129.099-.588-69.591-57.455-126.386-127.047-126.892zM128 400c-44.112 0-80-35.888-80-80s35.888-80 80-80c4.242 0 8.405.341 12.469.982L98.97 316.434C90.187 332.407 101.762 352 120 352h81.297c-12.37 28.225-40.56 48-73.297 48zm388.351-.116C470.272 402.337 432 365.554 432 320c0-21.363 8.434-40.781 22.125-55.144l49.412 82.352c4.546 7.577 14.375 10.034 21.952 5.488l13.72-8.232c7.577-4.546 10.034-14.375 5.488-21.952l-48.556-80.927A80.005 80.005 0 0 1 512 240c45.554 0 82.338 38.273 79.884 84.352-2.16 40.558-34.974 73.372-75.533 75.532z"/></symbol><symbol viewBox="0 0 448 512" id="play" xmlns="http://www.w3.org/2000/svg"><path d="M424.4 214.7L72.4 6.6C43.8-10.3 0 6.1 0 47.9V464c0 37.5 40.7 60.1 72.4 41.3l352-208c31.4-18.5 31.5-64.1 0-82.6z"/></symbol><symbol viewBox="0 0 576 512" id="trophy" xmlns="http://www.w3.org/2000/svg"><path d="M552 64H448V24c0-13.3-10.7-24-24-24H152c-13.3 0-24 10.7-24 24v40H24C10.7 64 0 74.7 0 88v56c0 35.7 22.5 72.4 61.9 100.7 31.5 22.7 69.8 37.1 110 41.7C203.3 338.5 240 360 240 360v72h-48c-35.3 0-64 20.7-64 56v12c0 6.6 5.4 12 12 12h296c6.6 0 12-5.4 12-12v-12c0-35.3-28.7-56-64-56h-48v-72s36.7-21.5 68.1-73.6c40.3-4.6 78.6-19 110-41.7 39.3-28.3 61.9-65 61.9-100.7V88c0-13.3-10.7-24-24-24zM99.3 192.8C74.9 175.2 64 155.6 64 144v-16h64.2c1 32.6 5.8 61.2 12.8 86.2-15.1-5.2-29.2-12.4-41.7-21.4zM512 144c0 16.1-17.7 36.1-35.3 48.8-12.5 9-26.7 16.2-41.8 21.4 7-25 11.8-53.6 12.8-86.2H512v16z"/></symbol><symbol viewBox="0 0 640 512" id="users" xmlns="http://www.w3.org/2000/svg"><path d="M320 64c57.99 0 105 47.01 105 105s-47.01 105-105 105-105-47.01-105-105S262.01 64 320 64zm113.463 217.366l-39.982-9.996c-49.168 35.365-108.766 27.473-146.961 0l-39.982 9.996C174.485 289.379 152 318.177 152 351.216V412c0 19.882 16.118 36 36 36h264c19.882 0 36-16.118 36-36v-60.784c0-33.039-22.485-61.837-54.537-69.85zM528 300c38.66 0 70-31.34 70-70s-31.34-70-70-70-70 31.34-70 70 31.34 70 70 70zm-416 0c38.66 0 70-31.34 70-70s-31.34-70-70-70-70 31.34-70 70 31.34 70 70 70zm24 112v-60.784c0-16.551 4.593-32.204 12.703-45.599-29.988 14.72-63.336 8.708-85.69-7.37l-26.655 6.664C14.99 310.252 0 329.452 0 351.477V392c0 13.255 10.745 24 24 24h112.169a52.417 52.417 0 0 1-.169-4zm467.642-107.09l-26.655-6.664c-27.925 20.086-60.89 19.233-85.786 7.218C499.369 318.893 504 334.601 504 351.216V412c0 1.347-.068 2.678-.169 4H616c13.255 0 24-10.745 24-24v-40.523c0-22.025-14.99-41.225-36.358-46.567z"/></symbol></svg>