<?xml version="1.0" standalone="no"?>
<!DOCTYPE svg PUBLIC "-//W3C//DTD SVG 1.1//EN" "http://www.w3.org/Graphics/SVG/1.1/DTD/svg11.dtd" >
<svg>
<metadata>
Created by FontForge 20090914 at Sun Aug  6 20:54:21 2017
 By www-data
&#194;&#169; 2001 Mark Simonson
</metadata>
<defs>
<font id="CoquetteBold" horiz-adv-x="848" >
  <font-face 
    font-family="Coquette Bold"
    font-weight="500"
    font-stretch="normal"
    units-per-em="1000"
    panose-1="2 0 0 0 0 0 0 0 0 0"
    ascent="800"
    descent="-200"
    x-height="379.999"
    cap-height="720.996"
    bbox="-200 -266 1100 988"
    underline-thickness="20"
    underline-position="-123"
    unicode-range="U+0020-U+FB02"
  />
<missing-glyph horiz-adv-x="1000" 
 />
    <glyph glyph-name=".notdef" horiz-adv-x="1000" 
 />
    <glyph glyph-name="space" unicode=" " horiz-adv-x="265" 
 />
    <glyph glyph-name="exclam" unicode="!" horiz-adv-x="277" 
d="M209 710h-141.001l17 -332c1.33301 -27.333 2.83301 -54.5 4.5 -81.5s3.16699 -54.167 4.5 -81.5h89c0.666992 26.667 1.83398 53.167 3.50098 79.5s3.16699 52.833 4.5 79.5zM216.999 69c0 22 -7.66699 40.667 -23 56s-33.666 23 -54.999 23
c-22 0 -40.667 -7.66699 -56 -23s-23 -34 -23 -56c0 -21.333 7.66699 -39.666 23 -54.999s34 -23 56 -23c21.333 0 39.666 7.66699 54.999 23s23 33.666 23 54.999z" />
    <glyph glyph-name="quotedbl" unicode="&#x22;" horiz-adv-x="465" 
d="M410 625c0 26.667 -6.49805 49.334 -19.498 68.001s-33.833 28 -62.5 28c-22 0 -40.667 -7.66699 -56 -23s-23 -34 -23 -56c0 -20.667 7 -38.334 21 -53.001s31.333 -23 52 -25c-8.66699 -11.333 -18.834 -21.833 -30.501 -31.5s-23.834 -18.167 -36.501 -25.5l39 -46
c15.333 8 30 17.667 44 29s26.333 24 37 38s19.167 29.167 25.5 45.5s9.5 33.5 9.5 51.5zM220.002 625c0 26.667 -6.49805 49.334 -19.498 68.001s-33.833 28 -62.5 28c-22 0 -40.667 -7.66699 -56 -23s-23 -34 -23 -56c0 -20.667 7 -38.334 21 -53.001s31.333 -23 52 -25
c-8.66699 -11.333 -18.834 -21.833 -30.501 -31.5s-23.834 -18.167 -36.501 -25.5l39 -46c15.333 8 30 17.667 44 29s26.333 24 37 38s19.167 29.167 25.5 45.5s9.5 33.5 9.5 51.5z" />
    <glyph glyph-name="numbersign" unicode="#" horiz-adv-x="472" 
d="M472 460h-92l16 74h-80l-16 -74h-70l16 74h-80l-16 -74h-92l-17 -80h92l-24 -106h-91l-18 -79h92l-16 -74h79l17 74h69l-16 -74h80l16 74h92l18 79h-92l23 106h92zM282 380l-23 -106h-70l23 106h70z" />
    <glyph glyph-name="dollar" unicode="$" horiz-adv-x="304" 
d="M264 196c0 18 -5.33203 33.668 -15.999 47.001s-22.334 25.333 -35.001 36s-24.334 20 -35.001 28s-16 16 -16 24c0 10 2.83301 17 8.5 21s13.167 6 22.5 6c8.66699 0 18.167 -2.83301 28.5 -8.5s18.5 -11.5 24.5 -17.5v105c-7.33301 4.66699 -15.333 8.16699 -24 10.5
s-17 4.16602 -25 5.49902v81h-84v-86c-23.333 -9.33301 -41.333 -24 -54 -44s-19 -42.333 -19 -67c0 -18 5.33301 -33.833 16 -47.5s22.334 -25.667 35.001 -36l35 -27.5c10.667 -8 16 -15.667 16 -23c0 -19.333 -10.333 -29 -31 -29c-8.66699 0 -18.167 2.83301 -28.5 8.5
s-18.5 11.834 -24.5 18.501v-106c8 -4.66699 16.833 -8.33398 26.5 -11.001s19.167 -4.66699 28.5 -6v-78h84v87c21.333 9.33301 37.833 24 49.5 44s17.5 41.667 17.5 65z" />
    <glyph glyph-name="percent" unicode="%" horiz-adv-x="741" 
d="M711 134c0 20 -3.66699 38.667 -11 56s-17.5 32.5 -30.5 45.5s-28.167 23.167 -45.5 30.5s-36 11 -56 11s-38.667 -3.66699 -56 -11s-32.5 -17.5 -45.5 -30.5s-23.167 -28.167 -30.5 -45.5s-11 -36 -11 -56s3.66699 -38.667 11 -56s17.5 -32.5 30.5 -45.5
s28.167 -23.167 45.5 -30.5s36 -11 56 -11s38.667 3.66699 56 11s32.5 17.5 45.5 30.5s23.167 28.167 30.5 45.5s11 36 11 56zM607 489l-74 59l-398 -501l74 -59zM316 402c0 20 -3.66699 38.667 -11 56s-17.5 32.5 -30.5 45.5s-28.167 23.167 -45.5 30.5s-36 11 -56 11
s-38.667 -3.66699 -56 -11s-32.5 -17.5 -45.5 -30.5s-23.167 -28.167 -30.5 -45.5s-11 -36 -11 -56s3.66699 -38.667 11 -56s17.5 -32.5 30.5 -45.5s28.167 -23.167 45.5 -30.5s36 -11 56 -11s38.667 3.66699 56 11s32.5 17.5 45.5 30.5s23.167 28.167 30.5 45.5
s11 36 11 56zM628 132c-1.33301 -16.667 -7.66504 -30.5 -18.998 -41.5s-25 -16.5 -41 -16.5c-17.333 0 -31.833 5.83301 -43.5 17.5s-17.5 25.834 -17.5 42.501c0 15.333 5 28.5 15 39.5s22.333 17.5 37 19.5c-2.66699 -16.667 1.66602 -31.334 12.999 -44.001
s25.666 -19 42.999 -19c2 0 4 0.166992 6 0.5s4.33301 0.833008 7 1.5zM233.001 400c-0.666992 -16 -6.83105 -29.667 -18.498 -41s-25.5 -17 -41.5 -17c-16.667 0 -30.834 5.83301 -42.501 17.5s-17.5 25.834 -17.5 42.501c0 15.333 4.83301 28.5 14.5 39.5
s22.167 17.5 37.5 19.5c-2.66699 -16.667 1.5 -31.334 12.5 -44.001s25.167 -19 42.5 -19c3.33301 0 7.66602 0.666992 12.999 2z" />
    <glyph glyph-name="ampersand" unicode="&#x26;" horiz-adv-x="678" 
d="M678 185l-0.00585938 113.002h-225c2.66699 -16.667 4.66699 -33.5 6 -50.5s2 -34.167 2 -51.5c0 -18.667 -4.33301 -34.167 -13 -46.5s-19.667 -22.333 -33 -30s-28.166 -13 -44.499 -16s-32.5 -4.5 -48.5 -4.5c-7.33301 0 -16.333 0.666992 -27 2s-20.834 4 -30.501 8
s-18 9.16699 -25 15.5s-10.5 14.5 -10.5 24.5c0 15.333 5.16699 27.166 15.5 35.499s22.833 14.333 37.5 18s29.834 5.83398 45.501 6.50098s28.5 1 38.5 1v109c-3.33301 -0.666992 -6.66602 -1 -9.99902 -1h-9c-35.333 0 -68.666 7.5 -99.999 22.5
s-55.666 38.167 -72.999 69.5c-12 19.333 -18 39.333 -18 60c0 24 5.16699 44.5 15.5 61.5s23.833 31 40.5 42s35.334 19.167 56.001 24.5s41.667 8 63 8c12.667 0 27 -1 43 -3s31 -5.83301 45 -11.5s25.833 -13.834 35.5 -24.501s14.5 -24.667 14.5 -42
c0 -12.667 -3.16699 -23.5 -9.5 -32.5s-14.333 -16.5 -24 -22.5s-20.167 -10.667 -31.5 -14s-22.333 -5.66602 -33 -6.99902l38 -112c26 2.66699 49.833 9.16699 71.5 19.5s40.5 23.5 56.5 39.5s28.5 34.833 37.5 56.5s13.5 45.834 13.5 72.501c0 31.333 -8.33301 61 -25 89
c-12 19.333 -26.667 35.833 -44 49.5s-36 24.834 -56 33.501s-41 15 -63 19s-43.667 6 -65 6c-38.667 0 -76.334 -5 -113.001 -15s-69.167 -25.5 -97.5 -46.5s-51.166 -47.333 -68.499 -79s-26 -68.834 -26 -111.501c0 -24 4.33301 -47.333 13 -70
s20.5 -43.334 35.5 -62.001s32.667 -34.334 53 -47.001s42.5 -21.334 66.5 -26.001c-14 -1.33301 -26.833 -6 -38.5 -14s-21.5 -17.833 -29.5 -29.5s-14.333 -24.5 -19 -38.5s-7 -27.333 -7 -40c0 -31.333 7 -56.833 21 -76.5s31.833 -35.167 53.5 -46.5
s45.834 -19 72.501 -23s52.667 -6 78 -6c32 0 61.833 3.33301 89.5 10s51.5 17.667 71.5 33s35.833 35.333 47.5 60s17.5 55 17.5 91h123z" />
    <glyph glyph-name="quotesingle" unicode="'" horiz-adv-x="275" 
d="M220 625c0 26.667 -6.49805 49.334 -19.498 68.001s-33.833 28 -62.5 28c-22 0 -40.667 -7.66699 -56 -23s-23 -34 -23 -56c0 -20.667 7 -38.334 21 -53.001s31.333 -23 52 -25c-8.66699 -11.333 -18.834 -21.833 -30.501 -31.5s-23.834 -18.167 -36.501 -25.5l39 -46
c15.333 8 30 17.667 44 29s26.333 24 37 38s19.167 29.167 25.5 45.5s9.5 33.5 9.5 51.5z" />
    <glyph glyph-name="parenleft" unicode="(" horiz-adv-x="305" 
d="M285 -177c-50 59.333 -88.332 125.167 -114.999 197.5s-40 147.5 -40 225.5c0 77.333 13 151.833 39 223.5s64 137.5 114 197.5l-69 58c-56.667 -68 -99.834 -142.833 -129.501 -224.5s-44.5 -166.5 -44.5 -254.5c0 -89.333 15 -175 45 -257s73.667 -157 131 -225z" />
    <glyph glyph-name="parenright" unicode=")" horiz-adv-x="285" 
d="M265 243c0 89.333 -15.168 174.999 -45.501 256.999s-73.833 157 -130.5 225l-69 -59c50 -59.333 88.167 -125.166 114.5 -197.499s39.5 -147.5 39.5 -225.5c0 -77.333 -12.833 -151.833 -38.5 -223.5s-63.5 -137.5 -113.5 -197.5l69 -58
c56.667 68 99.834 142.833 129.501 224.5s44.5 166.5 44.5 254.5z" />
    <glyph glyph-name="asterisk" unicode="*" horiz-adv-x="381" 
d="M361 310l-107 52l107 53l-40 69l-99 -66l8 118h-80l8 -118l-98 66l-40 -69l106 -53l-106 -52l40 -69l98 66l-8 -118h80l-8 118l99 -66z" />
    <glyph glyph-name="plus" unicode="+" horiz-adv-x="460" 
d="M430 181v116h-142v142h-116v-142h-142v-116h142v-142h116v142h142z" />
    <glyph glyph-name="comma" unicode="," horiz-adv-x="275" 
d="M220 52c0 26.667 -6.49805 49.334 -19.498 68.001s-33.833 28 -62.5 28c-22 0 -40.667 -7.66699 -56 -23s-23 -34 -23 -56c0 -20.667 7 -38.334 21 -53.001s31.333 -23 52 -25c-8.66699 -11.333 -18.834 -21.833 -30.501 -31.5s-23.834 -18.167 -36.501 -25.5l39 -46
c15.333 8 30 17.667 44 29s26.333 24 37 38s19.167 29.167 25.5 45.5s9.5 33.5 9.5 51.5z" />
    <glyph glyph-name="hyphen" unicode="-" horiz-adv-x="300" 
d="M270 181v116h-240v-116h240z" />
    <glyph glyph-name="period" unicode="." horiz-adv-x="275" 
d="M216 69c0 22 -7.66699 40.667 -23 56s-33.666 23 -54.999 23c-22 0 -40.667 -7.66699 -56 -23s-23 -34 -23 -56c0 -21.333 7.66699 -39.666 23 -54.999s34 -23 56 -23c21.333 0 39.666 7.66699 54.999 23s23 33.666 23 54.999z" />
    <glyph glyph-name="slash" unicode="/" horiz-adv-x="436" 
d="M456 657l-84 39l-392 -875l84 -39z" />
    <glyph glyph-name="zero" unicode="0" horiz-adv-x="492" 
d="M452 266c0 31.333 -3.83301 63.333 -11.5 96s-19.834 62.334 -36.501 89.001s-38 48.5 -64 65.5s-57.333 25.5 -94 25.5s-68 -8.5 -94 -25.5s-47.333 -38.833 -64 -65.5s-28.834 -56.334 -36.501 -89.001s-11.5 -64.667 -11.5 -96s3.83301 -63.333 11.5 -96
s19.834 -62.334 36.501 -89.001s38 -48.5 64 -65.5s57.333 -25.5 94 -25.5s68 8.5 94 25.5s47.333 38.833 64 65.5s28.834 56.334 36.501 89.001s11.5 64.667 11.5 96zM338 266c0 -14 -1.33301 -30.667 -4 -50s-7.33398 -37.833 -14.001 -55.5s-16 -32.834 -28 -45.501
s-27.333 -19 -46 -19c-19.333 0 -34.833 6.33301 -46.5 19s-21 27.834 -28 45.501s-11.667 36.167 -14 55.5s-3.5 36 -3.5 50s1.16699 30.667 3.5 50s7 37.833 14 55.5s16.333 32.834 28 45.501s27.167 19 46.5 19c18.667 0 34 -6.33301 46 -19s21.333 -27.834 28 -45.501
s11.334 -36.167 14.001 -55.5s4 -36 4 -50z" />
    <glyph glyph-name="one" unicode="1" horiz-adv-x="357" 
d="M287 0l0.000976562 534h-113c0 -21.333 -4.16699 -41.333 -12.5 -60s-19.5 -35 -33.5 -49s-30.333 -25 -49 -33s-38.334 -12 -59.001 -12v-116c30 0 59 6.83301 87 20.5s50.333 33.167 67 58.5v-343h113z" />
    <glyph glyph-name="two" unicode="2" horiz-adv-x="479" 
d="M439 121c-13.333 -10 -25.998 -16.666 -37.998 -19.999s-26.667 -5 -44 -5s-33.333 3.33301 -48 10s-30.334 10 -47.001 10c-5.33301 0 -9.33301 -0.333008 -12 -1c18.667 12.667 38.167 27.834 58.5 45.501s38.833 37 55.5 58s30.334 43.333 41.001 67s16 47.5 16 71.5
c0 60.667 -17.167 107 -51.5 139s-81.5 48 -141.5 48c-25.333 0 -49.333 -4.5 -72 -13.5s-42.5 -21.5 -59.5 -37.5s-30.667 -34.833 -41 -56.5s-15.5 -45.167 -15.5 -70.5c0 -30 7 -56.333 21 -79s33 -42 57 -58l70 80c-12.667 6.66699 -21.667 14.167 -27 22.5
s-8 19.833 -8 34.5c0 21.333 7 39.166 21 53.499s32 21.5 54 21.5c26.667 0 46.667 -7.83301 60 -23.5s20 -36.167 20 -61.5c0 -16.667 -4.5 -33.667 -13.5 -51s-20.833 -34.5 -35.5 -51.5s-31.334 -33.833 -50.001 -50.5s-37.334 -32.167 -56.001 -46.5
s-36.667 -27.333 -54 -39s-32.333 -21.167 -45 -28.5l53 -101l23.5 14c7 4 14 7.16699 21 9.5s14.333 4.16602 22 5.49902s17.167 2 28.5 2c12.667 0 25 -1.5 37 -4.5s24 -6.5 36 -10.5s24 -7.5 36 -10.5s24.333 -4.5 37 -4.5c15.333 0 31 1.83301 47 5.5
s30.667 9.5 44 17.5v109z" />
    <glyph glyph-name="three" unicode="3" horiz-adv-x="470" 
d="M430 174c0 20 -4.00195 39.332 -12.002 57.999s-18.667 35.334 -32 50.001s-29.166 26.334 -47.499 35.001s-37.833 13 -58.5 13l110 96v108h-335v-108h198l-125 -111l68 -91c12.667 16 29.667 24 51 24c22 0 39.333 -7 52 -21s19 -31.667 19 -53
c0 -22.667 -8.16699 -41.334 -24.5 -56.001s-35.5 -22 -57.5 -22c-28 0 -51 7.5 -69 22.5s-34 33.5 -48 55.5l-79 -81c24.667 -32 53.167 -56.833 85.5 -74.5s69.166 -26.5 110.499 -26.5c26.667 0 51.834 4.16699 75.501 12.5s44.334 20.5 62.001 36.5
s31.5 35.167 41.5 57.5s15 47.5 15 75.5z" />
    <glyph glyph-name="four" unicode="4" horiz-adv-x="470" 
d="M430 84v105.999h-65v133l-113 -57v-76h-125c24.667 14.667 48.167 35.5 70.5 62.5s41.666 56.667 57.999 89s29.333 65.333 39 99s14.5 64.834 14.5 93.501h-119c0 -27.333 -3.5 -55.333 -10.5 -84s-17 -56.5 -30 -83.5s-28.667 -51.833 -47 -74.5
s-39.166 -41.667 -62.499 -57v-151h212v-84h113v84h65z" />
    <glyph glyph-name="five" unicode="5" horiz-adv-x="467" 
d="M427 174c0 26 -4.83203 49.498 -14.499 70.498s-22.834 39 -39.501 54s-36.167 26.5 -58.5 34.5s-45.833 12 -70.5 12c-13.333 0 -26.833 -0.833008 -40.5 -2.5s-26.5 -5.83398 -38.5 -12.501l11 99h214v105h-294l-41 -281l96 -52
c8.66699 14.667 20.834 25.334 36.501 32.001s31.834 10 48.501 10c20 0 37.667 -6.16699 53 -18.5s23 -29.166 23 -50.499c0 -22 -7 -40.667 -21 -56s-32.333 -23 -55 -23c-28 0 -51.333 7.83301 -70 23.5s-35 34.167 -49 55.5l-77 -81
c24.667 -32 53.167 -56.833 85.5 -74.5s69.166 -26.5 110.499 -26.5c27.333 0 52.666 4.33301 75.999 13s43.5 20.834 60.5 36.501s30.333 34.667 40 57s14.5 47.5 14.5 75.5z" />
    <glyph glyph-name="six" unicode="6" horiz-adv-x="472" 
d="M432 169c0 26 -4.49707 49.999 -13.4971 71.999s-21.333 41 -37 57s-34.5 28.667 -56.5 38s-46 14 -72 14c-15.333 0 -30.833 -4.16699 -46.5 -12.5s-28.167 -18.5 -37.5 -30.5c14.667 36.667 36.667 67.334 66 92.001s60.666 46.334 93.999 65.001l-68 86
c-30.667 -19.333 -59.334 -40.833 -86.001 -64.5s-50 -49.667 -70 -78s-35.833 -59 -47.5 -92s-17.5 -68.5 -17.5 -106.5c0 -31.333 4.5 -60.333 13.5 -87s22 -49.834 39 -69.501s38.167 -35 63.5 -46s54.333 -16.5 87 -16.5c24.667 0 48.5 4.5 71.5 13.5
s43.167 21.5 60.5 37.5s31.166 35 41.499 57s15.5 45.667 15.5 71zM319.003 171.999c0 -22.667 -7.83301 -41.834 -23.5 -57.501s-34.834 -23.5 -57.501 -23.5s-41.834 7.83301 -57.501 23.5s-23.5 34.834 -23.5 57.501s7.83301 41.834 23.5 57.501s34.834 23.5 57.501 23.5
s41.834 -7.83301 57.501 -23.5s23.5 -34.834 23.5 -57.501z" />
    <glyph glyph-name="seven" unicode="7" horiz-adv-x="422" 
d="M402 425l-65.999 119l-24 -14c-6.66699 -4 -13.5 -7.33301 -20.5 -10s-14.5 -4.5 -22.5 -5.5s-17.333 -1.5 -28 -1.5c-12 0 -23.667 1.66699 -35 5s-22.5 6.83301 -33.5 10.5l-33 10.5c-11 3.33301 -22.5 5 -34.5 5c-14 0 -28.667 -1.33301 -44 -4s-29 -7.66699 -41 -15
v-106c9.33301 6.66699 21 11.167 35 13.5s26.667 3.5 38 3.5c9.33301 0 18.333 -1.16699 27 -3.5l26.5 -7l27.5 -7c9.33301 -2.33301 19 -3.5 29 -3.5s20 0.833008 30 2.5s19.667 3.83398 29 6.50098c-50 -43.333 -88.667 -95.833 -116 -157.5s-41 -125.5 -41 -191.5
c0 -25.333 2 -50.333 6 -75h118c-3.33301 15.333 -5.83301 31 -7.5 47s-2.5 31.667 -2.5 47c0 70.667 16.667 133.167 50 187.5s77.666 102.166 132.999 143.499z" />
    <glyph glyph-name="eight" unicode="8" horiz-adv-x="482" 
d="M442 165c0 32 -7.83105 59.167 -23.498 81.5s-38.5 38.833 -68.5 49.5c18 9.33301 32.833 23.333 44.5 42s17.5 38.334 17.5 59.001c0 22.667 -5 43 -15 61s-23.167 33.333 -39.5 46s-34.666 22.334 -54.999 29.001s-40.833 10 -61.5 10s-41.334 -3.33301 -62.001 -10
s-39.167 -16.334 -55.5 -29.001s-29.5 -28 -39.5 -46s-15 -38.333 -15 -61c0 -19.333 6 -38.833 18 -58.5s26.333 -34.167 43 -43.5c-26.667 -11.333 -48.334 -28.333 -65.001 -51s-25 -49 -25 -79c0 -29.333 5.33301 -54.833 16 -76.5s25.334 -39.834 44.001 -54.501
s40 -25.667 64 -33s49.667 -11 77 -11s53.166 3.5 77.499 10.5s45.666 17.833 63.999 32.5s32.833 33 43.5 55s16 47.667 16 77zM301.002 396c0 -16 -6.16699 -29.167 -18.5 -39.5s-26.166 -15.5 -41.499 -15.5s-29.166 5.16699 -41.499 15.5s-18.5 23.5 -18.5 39.5
c0 16.667 6.16699 30.167 18.5 40.5s26.166 15.5 41.499 15.5s29.166 -5.16699 41.499 -15.5s18.5 -23.833 18.5 -40.5zM328.002 170c0 -11.333 -2.5 -21.666 -7.5 -30.999s-11.667 -17.333 -20 -24s-17.666 -11.667 -27.999 -15s-20.833 -5 -31.5 -5
s-21.167 1.66699 -31.5 5s-19.666 8.33301 -27.999 15s-15 14.667 -20 24s-7.5 19.666 -7.5 30.999s2.5 21.666 7.5 30.999s11.667 17.166 20 23.499s17.666 11.333 27.999 15s20.833 5.5 31.5 5.5s21.167 -1.83301 31.5 -5.5s19.666 -8.66699 27.999 -15
s15 -14.166 20 -23.499s7.5 -19.666 7.5 -30.999z" />
    <glyph glyph-name="nine" unicode="9" horiz-adv-x="466" 
d="M426 324c0 30.667 -4.1709 59.5 -12.5039 86.5s-20.666 50.167 -36.999 69.5s-37 34.666 -62 45.999s-53.833 17 -86.5 17c-25.333 0 -49.333 -4.5 -72 -13.5s-42.5 -21.5 -59.5 -37.5s-30.667 -34.833 -41 -56.5s-15.5 -45.167 -15.5 -70.5s4.33301 -49.166 13 -71.499
s20.834 -41.666 36.501 -57.999s34.334 -29.166 56.001 -38.499s45.5 -14 71.5 -14c15.333 0 30.833 4.16699 46.5 12.5s28.167 18.5 37.5 30.5c-14 -36.667 -35.667 -67.334 -65 -92.001s-60.666 -46.334 -93.999 -65.001l67 -86c30.667 18.667 59.167 40 85.5 64
s49.333 50.167 69 78.5s35 59 46 92s16.5 68.5 16.5 106.5zM312.996 361c0 -22.667 -7.83301 -41.834 -23.5 -57.501s-34.834 -23.5 -57.501 -23.5s-41.834 7.83301 -57.501 23.5s-23.5 34.834 -23.5 57.501s7.83301 41.834 23.5 57.501s34.834 23.5 57.501 23.5
s41.834 -7.83301 57.501 -23.5s23.5 -34.834 23.5 -57.501z" />
    <glyph glyph-name="colon" unicode=":" horiz-adv-x="275" 
d="M216 310c0 21.333 -7.66699 39.666 -23 54.999s-33.666 23 -54.999 23c-22 0 -40.667 -7.66699 -56 -23s-23 -33.666 -23 -54.999s7.66699 -39.833 23 -55.5s34 -23.5 56 -23.5c21.333 0 39.666 7.83301 54.999 23.5s23 34.167 23 55.5zM216 69
c0 22 -7.66699 40.667 -23 56s-33.666 23 -54.999 23c-22 0 -40.667 -7.66699 -56 -23s-23 -34 -23 -56c0 -21.333 7.66699 -39.666 23 -54.999s34 -23 56 -23c21.333 0 39.666 7.66699 54.999 23s23 33.666 23 54.999z" />
    <glyph glyph-name="semicolon" unicode=";" horiz-adv-x="275" 
d="M216 310c0 21.333 -7.66699 39.666 -23 54.999s-33.666 23 -54.999 23c-22 0 -40.667 -7.66699 -56 -23s-23 -33.666 -23 -54.999s7.66699 -39.833 23 -55.5s34 -23.5 56 -23.5c21.333 0 39.666 7.83301 54.999 23.5s23 34.167 23 55.5zM220 52
c0 26.667 -6.49805 49.334 -19.498 68.001s-33.833 28 -62.5 28c-22 0 -40.667 -7.66699 -56 -23s-23 -34 -23 -56c0 -20.667 7 -38.334 21 -53.001s31.333 -23 52 -25c-8.66699 -11.333 -18.834 -21.833 -30.501 -31.5s-23.834 -18.167 -36.501 -25.5l39 -46
c15.333 8 30 17.667 44 29s26.333 24 37 38s19.167 29.167 25.5 45.5s9.5 33.5 9.5 51.5z" />
    <glyph glyph-name="less" unicode="&#x3c;" horiz-adv-x="405" 
d="M385 51l-202 201l202 202l-82 81l-283 -283l283 -283z" />
    <glyph glyph-name="equal" unicode="=" horiz-adv-x="480" 
d="M440 297v115h-400v-115h400zM440 66v115h-400v-115h400z" />
    <glyph glyph-name="greater" unicode="&#x3e;" horiz-adv-x="405" 
d="M385 252l-283 283l-82 -81l201 -202l-201 -201l82 -82z" />
    <glyph glyph-name="question" unicode="?" horiz-adv-x="420" 
d="M400 556c0 26.667 -4.83301 50.3359 -14.5 71.0029s-22.834 38 -39.501 52s-36.167 24.5 -58.5 31.5s-46.5 10.5 -72.5 10.5c-24.667 0 -48.667 -4 -72 -12s-44.166 -19.5 -62.499 -34.5s-33 -33.167 -44 -54.5s-16.5 -45.333 -16.5 -72c0 -22 4.83301 -43 14.5 -63
s22.5 -37.667 38.5 -53l80 71c-12.667 11.333 -19 25 -19 41c0 23.333 8.16699 41.166 24.5 53.499s35.166 18.5 56.499 18.5c19.333 0 36 -5.5 50 -16.5s21 -26.833 21 -47.5c0 -10.667 -4 -20.334 -12 -29.001s-17.833 -17.5 -29.5 -26.5l-38 -29
c-13.667 -10.333 -26.334 -22.333 -38.001 -36s-21.5 -29.5 -29.5 -47.5s-12 -39 -12 -63c0 -21.333 5.33301 -41.333 16 -60s25.334 -33.667 44.001 -45c5.33301 -3.33301 11 -6.16602 17 -8.49902s12.333 -3.5 19 -3.5l55 84c-13.333 0 -22.666 4.83301 -27.999 14.5
s-8 20.167 -8 31.5c0 20 8.16699 37.167 24.5 51.5s34.5 29.166 54.5 44.499s38.167 32.666 54.5 51.999s24.5 44 24.5 74zM301 69.002c0 22 -7.66699 40.667 -23 56s-34 23 -56 23c-21.333 0 -39.666 -7.66699 -54.999 -23s-23 -34 -23 -56
c0 -21.333 7.66699 -39.666 23 -54.999s33.666 -23 54.999 -23c22 0 40.667 7.66699 56 23s23 33.666 23 54.999z" />
    <glyph glyph-name="at" unicode="@" horiz-adv-x="633" 
d="M593 272c0 38 -7.32812 73.6699 -21.9951 107.003s-34.667 62.166 -60 86.499s-54.833 43.666 -88.5 57.999s-69.167 21.5 -106.5 21.5s-72.833 -7.16699 -106.5 -21.5s-63 -33.833 -88 -58.5s-44.833 -53.667 -59.5 -87s-22 -68.666 -22 -105.999c0 -38 7 -74 21 -108
s33.167 -63.667 57.5 -89s53.166 -45.5 86.499 -60.5s69.333 -22.5 108 -22.5c16.667 0 34 1.5 52 4.5s35.667 7.66699 53 14s33.666 14.333 48.999 24s28.666 21.167 39.999 34.5l-28 28c-23.333 -23.333 -48 -40.166 -74 -50.499s-55.667 -15.5 -89 -15.5
c-32.667 0 -63.334 6.5 -92.001 19.5s-53.834 30.5 -75.501 52.5s-38.667 47.5 -51 76.5s-18.5 59.833 -18.5 92.5c0 30.667 6.5 60.167 19.5 88.5s30.167 53.166 51.5 74.499s46.166 38.5 74.499 51.5s57.833 19.5 88.5 19.5c32.667 0 63.5 -6 92.5 -18
s54.5 -28.5 76.5 -49.5s39.5 -45.833 52.5 -74.5s19.5 -59.334 19.5 -92.001c0 -7.33301 -0.333008 -15.833 -1 -25.5s-2.5 -18.834 -5.5 -27.501s-7.33301 -16.167 -13 -22.5s-13.5 -9.5 -23.5 -9.5c-9.33301 0 -16.5 3.66699 -21.5 11s-7.5 15 -7.5 23v199h-91v-37
c-12 15.333 -26.167 26.666 -42.5 33.999s-34.166 11 -53.499 11c-22.667 0 -43 -4.33301 -61 -13s-33.5 -20.334 -46.5 -35.001s-23 -31.667 -30 -51s-10.5 -39.666 -10.5 -60.999s3.5 -41.666 10.5 -60.999s17 -36.333 30 -51s28.5 -26.167 46.5 -34.5
s38.333 -12.5 61 -12.5c22 0 42.167 4.66699 60.5 14s33.166 23.666 44.499 42.999c7.33301 -16 17.833 -29.167 31.5 -39.5s29.5 -15.5 47.5 -15.5c11.333 0 21.333 2.33301 30 7s17.334 10.334 26.001 17.001c9.33301 6.66699 17.5 15.5 24.5 26.5s13 22.833 18 35.5
s8.83301 25.5 11.5 38.5s4 25.167 4 36.5zM391.005 243.003c0 -1.33301 -0.666992 -3.66699 -2 -7s-2.33301 -5.66602 -3 -6.99902c-7.33301 -13.333 -17 -24 -29 -32s-25.333 -12 -40 -12c-23.333 0 -42.333 8.33301 -57 25s-22 36 -22 58s7.33301 41.5 22 58.5
s33.667 25.5 57 25.5c14.667 0 28 -4.16699 40 -12.5s21.667 -19.166 29 -32.499c0.666992 -0.666992 1.66699 -2.83398 3 -6.50098s2 -5.83398 2 -6.50098v-51z" />
    <glyph glyph-name="A" unicode="A" horiz-adv-x="725" 
d="M725 23v107.996c-7.33301 -8 -16.166 -14.5 -26.499 -19.5s-20.833 -7.5 -31.5 -7.5c-25.333 0 -38 12.667 -38 38v291c0 44.667 -7.83301 85 -23.5 121s-37.334 66.5 -65.001 91.5s-60.334 44.167 -98.001 57.5s-78.5 20 -122.5 20c-27.333 0 -54.333 -3.16699 -81 -9.5
s-51.834 -15.666 -75.501 -27.999s-45.334 -27.666 -65.001 -45.999s-36.167 -39.833 -49.5 -64.5c-9.33301 -16.667 -16.5 -34.167 -21.5 -52.5s-7.5 -36.833 -7.5 -55.5c0 -18 0.833008 -34.667 2.5 -50s4.83398 -29.666 9.50098 -42.999s11 -26.5 19 -39.5
s18.333 -26.167 31 -39.5l91 77c-13.333 14 -22.333 28.5 -27 43.5s-7 32.167 -7 51.5c0 22.667 5.83301 42.667 17.5 60s26.334 32 44.001 44s37.167 21 58.5 27s41.666 9 60.999 9c26 0 50.167 -4.5 72.5 -13.5s41.833 -21.5 58.5 -37.5s29.667 -35 39 -57s14 -46 14 -72
v-174h-155v76c0 24 4.33301 47.333 13 70s24.334 40.334 47.001 53.001l-77 96c-36.667 -26.667 -63.834 -58.667 -81.501 -96s-26.5 -78.333 -26.5 -123v-76h-89v-113h89v-140h125v140h155c0 -22.667 2.16699 -43.167 6.5 -61.5s11.5 -34 21.5 -47s23.333 -23 40 -30
s37.334 -10.5 62.001 -10.5c6.66699 0 14.334 0.5 23.001 1.5s17.5 2.83301 26.5 5.5s17.167 6 24.5 10s13 9 17 15z" />
    <glyph glyph-name="B" unicode="B" horiz-adv-x="691" 
d="M691 466c0 39.333 -9.66895 76.3301 -29.002 110.997c-15.333 26.667 -34.5 49.167 -57.5 67.5s-48 33.166 -75 44.499s-55.5 19.5 -85.5 24.5s-59.333 7.5 -88 7.5c-44.667 0 -87.167 -6.66699 -127.5 -20s-76 -32.666 -107 -57.999s-55.667 -56.5 -74 -93.5
s-27.5 -79.167 -27.5 -126.5c0 -18 0.833008 -34.667 2.5 -50s4.83398 -29.666 9.50098 -42.999s11 -26.333 19 -39s18.333 -26 31 -40l91 78c-13.333 13.333 -22.333 27.666 -27 42.999s-7 32.333 -7 51c0 30 6.5 56.333 19.5 79s29.833 41.834 50.5 57.501
s44.167 27.334 70.5 35.001s53.166 11.5 80.499 11.5c22.667 0 46.167 -2.66699 70.5 -8s46.5 -13.833 66.5 -25.5s36.333 -27 49 -46s19 -42.167 19 -69.5s-5.5 -49.5 -16.5 -66.5s-25.5 -30.5 -43.5 -40.5s-38.167 -17 -60.5 -21s-44.833 -6 -67.5 -6v193h-125v-374
c0 -25.333 -12.667 -38 -38 -38c-10.667 0 -21.167 2.5 -31.5 7.5s-19.166 11.5 -26.499 19.5v-108c4 -6 9.66699 -11 17 -15s15.5 -7.33301 24.5 -10s17.833 -4.5 26.5 -5.5s16.334 -1.5 23.001 -1.5c26 0 49.667 5 71 15s37 28 47 54
c14 -24.667 33.167 -42.334 57.5 -53.001s50.166 -16 77.499 -16c20 0 38.5 3.83301 55.5 11.5s31.5 18.167 43.5 31.5s21.5 28.833 28.5 46.5s10.5 36.167 10.5 55.5c0 15.333 -3.66699 30.833 -11 46.5s-16.666 30 -27.999 43s-24.166 23.833 -38.499 32.5
s-28.833 14 -43.5 16c24.667 4 47.667 11.333 69 22s39.666 24.334 54.999 41.001s27.5 35.834 36.5 57.501s13.5 45.5 13.5 71.5zM516.998 154.997c0 -19.333 -6.83203 -34.498 -20.499 -45.498s-29.5 -16.5 -47.5 -16.5c-13.333 0 -26 2.66699 -38 8
s-21.667 13.666 -29 24.999c0 0.666992 -0.833008 2.5 -2.5 5.5s-2.5 4.83301 -2.5 5.5v91c7.33301 1.33301 14.166 2.33301 20.499 3s13.166 1 20.499 1c12.667 0 24.834 -1.33301 36.501 -4s22.167 -7 31.5 -13s16.833 -13.833 22.5 -23.5s8.5 -21.834 8.5 -36.501z" />
    <glyph glyph-name="C" unicode="C" horiz-adv-x="686" 
d="M656 504c0 31.333 -7.33594 61.001 -22.0029 89.001c-22.667 46 -55.167 78.833 -97.5 98.5s-88.166 29.5 -137.499 29.5c-52.667 0 -101 -9.83301 -145 -29.5s-81.833 -46.5 -113.5 -80.5s-56.334 -73.833 -74.001 -119.5s-26.5 -94.167 -26.5 -145.5
c0 -56.667 9.16699 -107 27.5 -151s44 -81.167 77 -111.5s72.333 -53.333 118 -69s95.834 -23.5 150.501 -23.5c38 0 73.833 5 107.5 15s65.5 26.667 95.5 50v146c-8.66699 -14 -21.167 -26.833 -37.5 -38.5s-34 -21.667 -53 -30s-38.5 -14.833 -58.5 -19.5s-38 -7 -54 -7
c-36.667 0 -70.167 5 -100.5 15s-56.5 24.667 -78.5 44s-39 43.5 -51 72.5s-18 62.5 -18 100.5c0 33.333 5.5 65.833 16.5 97.5s26.667 60 47 85s45 45 74 60s61.167 22.5 96.5 22.5c14.667 0 29.834 -2 45.501 -6s29.834 -10 42.501 -18s23.167 -18.333 31.5 -31
s12.5 -27.667 12.5 -45c0 -14 -2.83301 -26.667 -8.5 -38s-13.167 -21.333 -22.5 -30s-20 -15.334 -32 -20.001s-24.667 -7 -38 -7s-26.5 2.83301 -39.5 8.5s-24.5 13.167 -34.5 22.5l-50 -107c7.33301 -6 16.5 -11.5 27.5 -16.5s22.333 -9.33301 34 -13
s23.5 -6.5 35.5 -8.5s22.667 -3 32 -3c30 0 58.333 5.33301 85 16s50 25.5 70 44.5s36 41.5 48 67.5s18 54 18 84z" />
    <glyph glyph-name="D" unicode="D" horiz-adv-x="839" 
d="M799 327c0 58 -10.666 111.168 -31.999 159.501s-50.5 89.833 -87.5 124.5s-80.5 61.667 -130.5 81s-103.333 29 -160 29c-50 0 -97.333 -7 -142 -21s-83.834 -34.667 -117.501 -62s-60.334 -61.333 -80.001 -102s-29.5 -87.667 -29.5 -141c0 -31.333 5 -62 15 -92
s25.667 -56.667 47 -80l91 78c-11.333 12.667 -19.833 27.167 -25.5 43.5s-8.5 33.166 -8.5 50.499c0 37.333 6.83301 69.333 20.5 96s32.167 48.5 55.5 65.5s50.333 29.5 81 37.5s63 12 97 12c40 0 77 -7 111 -21s63.667 -33.333 89 -58s45.166 -54.167 59.499 -88.5
s21.5 -71.5 21.5 -111.5c0 -26 -2.33301 -52.667 -7 -80s-12.834 -52.166 -24.501 -74.499s-27.834 -40.5 -48.501 -54.5s-47 -21 -79 -21c-30 0 -57.667 7 -83 21s-43.666 35.333 -54.999 64v334h-125v-374c0 -25.333 -12.667 -38 -38 -38c-11.333 0 -22 2.5 -32 7.5
s-18.667 11.5 -26 19.5v-108c4 -6 9.83301 -11 17.5 -15s15.834 -7.33301 24.501 -10s17.334 -4.5 26.001 -5.5s16.334 -1.5 23.001 -1.5c26.667 0 50.667 5.16699 72 15.5s37 28.833 47 55.5c17.333 -26 39 -44.333 65 -55s54 -16 84 -16c49.333 0 92 9 128 27
s65.5 42.5 88.5 73.5s40 66.667 51 107s16.5 83.166 16.5 128.499z" />
    <glyph glyph-name="E" unicode="E" horiz-adv-x="578" 
d="M578 525c0 29.333 -6.6709 56.6709 -20.0039 82.0039c-11.333 20.667 -25.5 38.334 -42.5 53.001s-35.833 26.5 -56.5 35.5s-42.334 15.5 -65.001 19.5s-45 6 -67 6c-38.667 0 -76.5 -5 -113.5 -15s-69.833 -25.167 -98.5 -45.5s-51.667 -46.333 -69 -78
s-26 -69.167 -26 -112.5c0 -24 4.33301 -47.333 13 -70s20.5 -43.334 35.5 -62.001s32.667 -34.334 53 -47.001s42.5 -21.334 66.5 -26.001c-14 -2 -26.833 -7 -38.5 -15s-21.5 -18 -29.5 -30s-14.333 -25 -19 -39s-7 -27.333 -7 -40c0 -28 6.16699 -51.5 18.5 -70.5
s28.333 -34.5 48 -46.5s41.5 -20.5 65.5 -25.5s48 -7.5 72 -7.5c14.667 0 29 0.333008 43 1s27.5 2.16699 40.5 4.5s26 5.83301 39 10.5s26.167 10.667 39.5 18v120c-21.333 -17.333 -43.333 -29.333 -66 -36s-48 -10 -76 -10c-7.33301 0 -16.666 0.666992 -27.999 2
s-22.166 3.66602 -32.499 6.99902s-19.333 8.16602 -27 14.499s-11.5 14.5 -11.5 24.5c0 15.333 5.16699 27.166 15.5 35.499s22.833 14.5 37.5 18.5s29.834 6.5 45.501 7.5s28.5 1.5 38.5 1.5v109c-3.33301 -0.666992 -6.66602 -1 -9.99902 -1h-9
c-34 0 -66.667 7.16699 -98 21.5s-56 36.5 -74 66.5c-5.33301 9.33301 -9.83301 19.5 -13.5 30.5s-5.5 22.167 -5.5 33.5c0 24 5.33301 44.5 16 61.5s24.5 31 41.5 42s36 19.167 57 24.5s41.833 8 62.5 8c13.333 0 27.833 -1 43.5 -3s30.334 -5.83301 44.001 -11.5
s25.167 -13.834 34.5 -24.501s14 -24.667 14 -42c0 -12.667 -3.16699 -23.5 -9.5 -32.5s-14.333 -16.5 -24 -22.5s-20.167 -10.667 -31.5 -14s-22.333 -5.66602 -33 -6.99902l38 -112c26 2.66699 49.833 9.16699 71.5 19.5s40.5 23.5 56.5 39.5s28.5 34.833 37.5 56.5
s13.5 45.834 13.5 72.501z" />
    <glyph glyph-name="F" unicode="F" horiz-adv-x="707" 
d="M707 597l-0.00292969 113.003h-451c-30 0 -59.167 -4 -87.5 -12s-53.5 -20 -75.5 -36s-39.667 -36.167 -53 -60.5s-20 -52.833 -20 -85.5c0 -31.333 4.83301 -58.5 14.5 -81.5s23.334 -42.333 41.001 -58s38.834 -27.834 63.501 -36.501s51.667 -14 81 -16l38 114
c-12.667 -0.666992 -25.667 0 -39 2s-25.5 6 -36.5 12s-20.167 14 -27.5 24s-11 22.667 -11 38s2.83301 28.166 8.5 38.499s13.167 18.666 22.5 24.999s20.166 10.833 32.499 13.5s25.5 4 39.5 4h283c-20 -6.66699 -37.333 -16.667 -52 -30s-27 -28.5 -37 -45.5
s-17.5 -35.333 -22.5 -55s-7.5 -39.5 -7.5 -59.5v-80h-111v-113h111v-59c0 -17.333 -4.83301 -30 -14.5 -38s-22.834 -12 -39.501 -12c-7.33301 0 -15.666 1 -24.999 3s-18.666 4.66699 -27.999 8s-18.166 7.33301 -26.499 12s-14.833 10 -19.5 16v-119
c4 -5.33301 11.167 -10 21.5 -14s21.666 -7.33301 33.999 -10s24.333 -4.66699 36 -6s20.834 -2 27.501 -2c48.667 0 87.334 14.833 116.001 44.5s43 68.834 43 117.501v59h112v113h-112v80c0 11.333 1 22.666 3 33.999s4.66699 22 8 32c12.667 38 32.167 68.5 58.5 91.5
s60.166 34.5 101.499 34.5z" />
    <glyph glyph-name="G" unicode="G" horiz-adv-x="682" 
d="M662 510c0 36 -7.33301 67.166 -22 93.499s-34.167 48.333 -58.5 66s-52 30.667 -83 39s-62.833 12.5 -95.5 12.5c-52.667 0 -101.167 -10.167 -145.5 -30.5s-82.666 -47.833 -114.999 -82.5s-57.5 -75 -75.5 -121s-27 -94.667 -27 -146
c0 -49.333 7.16699 -95.333 21.5 -138s35.333 -79.667 63 -111s61.5 -56 101.5 -74s85.667 -27 137 -27c21.333 0 42.666 2.33301 63.999 7s41 13 59 25v-113c0 -18 -4.16699 -33.333 -12.5 -46s-21.833 -20.334 -40.5 -23.001l67 -102
c36.667 19.333 64.334 41.833 83.001 67.5s28 60.167 28 103.5v352h-125v-121c-16 -14 -34.667 -23.167 -56 -27.5s-42.333 -6.5 -63 -6.5c-35.333 0 -65.833 6.16699 -91.5 18.5s-46.667 29 -63 50s-28.333 45.667 -36 74s-11.5 58.833 -11.5 91.5
c0 33.333 5.83301 65.833 17.5 97.5s28 59.667 49 84s46 44 75 59s61.167 22.5 96.5 22.5c14 0 29.5 -1.5 46.5 -4.5s32.667 -8.16699 47 -15.5s26.333 -17 36 -29s14.5 -27 14.5 -45c0 -9.33301 -2.33301 -18.166 -7 -26.499s-10.667 -15.666 -18 -21.999
s-15.666 -11.333 -24.999 -15s-18.333 -5.5 -27 -5.5c-11.333 0 -22.5 1.5 -33.5 4.5s-21.167 8.16699 -30.5 15.5l-46 -103c6.66699 -5.33301 14.667 -10 24 -14s19.166 -7.66699 29.499 -11s20.5 -5.83301 30.5 -7.5s19 -2.5 27 -2.5c26 0 50.5 4.83301 73.5 14.5
s43.167 23 60.5 40s31.166 36.833 41.499 59.5s15.5 47 15.5 73z" />
    <glyph glyph-name="H" unicode="H" horiz-adv-x="891" 
d="M891 23l-0.00878906 108.002c-7.33301 -8 -16.166 -14.5 -26.499 -19.5s-21.166 -7.5 -32.499 -7.5c-25.333 0 -38 12.667 -38 38v568h-125v-364h-107c0.666992 7.33301 1 14.333 1 21v22c0 45.333 -6 88.166 -18 128.499s-30 75.5 -54 105.5s-54.167 53.833 -90.5 71.5
s-78.833 26.5 -127.5 26.5c-33.333 0 -65.166 -5.5 -95.499 -16.5s-57.166 -26.667 -80.499 -47s-42 -44.833 -56 -73.5s-21 -60.334 -21 -95.001c0 -14.667 2.16699 -30.334 6.5 -47.001s10.333 -33 18 -49s16.834 -30.667 27.501 -44s22.334 -24 35.001 -32l82 90
c-12 7.33301 -22.5 19.333 -31.5 36s-13.5 32 -13.5 46c0 18.667 3.33301 35.334 10 50.001s15.834 27 27.501 37s25.334 17.5 41.001 22.5s32.5 7.5 50.5 7.5c31.333 0 57.5 -6.16699 78.5 -18.5s38 -28.833 51 -49.5s22.167 -44 27.5 -70s8 -52.333 8 -79
c0 -7.33301 -0.166992 -14.5 -0.5 -21.5s-0.833008 -14.167 -1.5 -21.5h-93v-113h69c-18 -44.667 -44.5 -77.167 -79.5 -97.5s-75.833 -30.5 -122.5 -30.5v-114c82.667 0 153 20 211 60s98.667 100.667 122 182h126c0 -27.333 -0.333008 -55.333 -1 -84s2.5 -54.667 9.5 -78
s19.667 -42.5 38 -57.5s46.5 -22.5 84.5 -22.5c6 0 13.5 0.5 22.5 1.5s17.833 2.83301 26.5 5.5s16.834 6 24.501 10s13.5 9 17.5 15z" />
    <glyph glyph-name="I" unicode="I" horiz-adv-x="543" 
d="M473 170v323.996c0 33.333 -5.33301 63.833 -16 91.5s-25.834 51.5 -45.501 71.5s-43.167 35.667 -70.5 47s-57.666 17 -90.999 17c-32 0 -62 -5.33301 -90 -16s-52.333 -25.5 -73 -44.5s-37 -42 -49 -69s-18 -56.833 -18 -89.5c0 -14.667 2.5 -30.5 7.5 -47.5
s11.833 -33.333 20.5 -49s18.667 -30.167 30 -43.5s23.333 -23.666 36 -30.999l93 81c-8 4 -15.667 9.16699 -23 15.5s-13.833 13.5 -19.5 21.5s-10.167 16.5 -13.5 25.5s-5 17.833 -5 26.5c0 31.333 9.66699 56.5 29 75.5s44.333 28.5 75 28.5
c14.667 0 28 -3.16699 40 -9.5s22.333 -14.833 31 -25.5s15.334 -22.5 20.001 -35.5s7 -26.5 7 -40.5v-324c0 -19.333 -5.66699 -35.333 -17 -48s-27 -19 -47 -19c-16.667 0 -32.334 4.33301 -47.001 13s-27.334 19.334 -38.001 32.001v-125c4 -6 10.167 -11 18.5 -15
s17.166 -7.16699 26.499 -9.5s18.833 -4.16602 28.5 -5.49902s17.5 -2 23.5 -2c26.667 0 50.834 4.33301 72.501 13s40.334 20.834 56.001 36.501s27.667 34.5 36 56.5s12.5 46.333 12.5 73z" />
    <glyph glyph-name="J" unicode="J" horiz-adv-x="543" 
d="M473 -52v545.997c0 33.333 -5.33301 63.833 -16 91.5s-25.834 51.5 -45.501 71.5s-43.167 35.667 -70.5 47s-57.666 17 -90.999 17c-32 0 -62 -5.33301 -90 -16s-52.333 -25.5 -73 -44.5s-37 -42 -49 -69s-18 -56.833 -18 -89.5c0 -14.667 2.5 -30.5 7.5 -47.5
s11.833 -33.333 20.5 -49s18.667 -30.167 30 -43.5s23.333 -23.666 36 -30.999l93 81c-8 4 -15.667 9.16699 -23 15.5s-13.833 13.5 -19.5 21.5s-10.167 16.5 -13.5 25.5s-5 17.833 -5 26.5c0 31.333 9.66699 56.5 29 75.5s44.333 28.5 75 28.5
c14.667 0 28 -3.16699 40 -9.5s22.333 -14.833 31 -25.5s15.334 -22.5 20.001 -35.5s7 -26.5 7 -40.5v-546c0 -19.333 -5.66699 -35.333 -17 -48s-27 -19 -47 -19c-16.667 0 -32.334 4.33301 -47.001 13s-27.334 19.334 -38.001 32.001v-126c4 -6 10.167 -11 18.5 -15
s17.166 -7.16699 26.499 -9.5s18.833 -4.16602 28.5 -5.49902s17.5 -2 23.5 -2c26.667 0 50.834 4.33301 72.501 13s40.334 21 56.001 37s27.667 35 36 57s12.5 46.333 12.5 73z" />
    <glyph glyph-name="K" unicode="K" horiz-adv-x="916" 
d="M916 12l-0.00585938 104.997c-15.333 -10 -31 -15 -47 -15s-29.167 4.33301 -39.5 13s-19.5 19.5 -27.5 32.5s-15.667 27.333 -23 43s-16 30.334 -26 44.001s-22.333 25.334 -37 35.001s-33 15.167 -55 16.5c28 1.33301 52.5 7.83301 73.5 19.5s38.5 26.834 52.5 45.501
s24.5 39.834 31.5 63.501s10.5 48.5 10.5 74.5v221h-125v-221c0 -16 -1.5 -32.5 -4.5 -49.5s-8.33301 -32.333 -16 -46s-17.834 -25 -30.501 -34s-29 -13.5 -49 -13.5h-42c0.666992 7.33301 1 14.333 1 21v22c0 45.333 -6 88.166 -18 128.499s-30 75.5 -54 105.5
s-54.167 53.833 -90.5 71.5s-78.833 26.5 -127.5 26.5c-33.333 0 -65.166 -5.5 -95.499 -16.5s-57.166 -26.667 -80.499 -47s-42 -44.833 -56 -73.5s-21 -60.334 -21 -95.001c0 -14.667 2.16699 -30.334 6.5 -47.001s10.333 -33 18 -49s16.834 -30.667 27.501 -44
s22.334 -24 35.001 -32l82 90c-12 7.33301 -22.5 19.333 -31.5 36s-13.5 32 -13.5 46c0 18.667 3.33301 35.334 10 50.001s15.834 27 27.501 37s25.334 17.5 41.001 22.5s32.5 7.5 50.5 7.5c31.333 0 57.5 -6.16699 78.5 -18.5s38 -28.833 51 -49.5s22.167 -44 27.5 -70
s8 -52.333 8 -79c0 -38.667 -3.83301 -75.334 -11.5 -110.001s-20.334 -64.834 -38.001 -90.501s-41.167 -46 -70.5 -61s-65.333 -22.5 -108 -22.5v-114c82.667 0 153 20 211 60s98.667 100.667 122 182h21c13.333 0 25.833 -3.5 37.5 -10.5s22.334 -15.667 32.001 -26
s18.167 -21.666 25.5 -33.999s13.333 -23.833 18 -34.5c7.33301 -17.333 15.333 -34.166 24 -50.499s18.834 -31 30.501 -44s25.167 -23.333 40.5 -31s33.666 -11.5 54.999 -11.5c16.667 0 32.334 0.833008 47.001 2.5s28.667 7.83398 42 18.501z" />
    <glyph glyph-name="L" unicode="L" horiz-adv-x="637" 
d="M637 84l-66 84c-14 -12 -27.667 -21.833 -41 -29.5s-26.833 -13.667 -40.5 -18s-28 -7.33301 -43 -9s-31.833 -2.5 -50.5 -2.5h-189c15.333 13.333 27.166 27.833 35.499 43.5s12.5 33.5 12.5 53.5v288c0 14 2.66699 27.5 8 40.5s12.5 24.667 21.5 35
s19.667 18.666 32 24.999s25.833 9.5 40.5 9.5c30 0 55 -9.5 75 -28.5s30 -43.5 30 -73.5c0 -21.333 -5.33301 -40 -16 -56s-25 -28.667 -43 -38l90 -77c12.667 7.33301 24.667 17.666 36 30.999s21.333 27.833 30 43.5s15.5 32 20.5 49s7.5 32.833 7.5 47.5
c0 34.667 -5.66699 65.667 -17 93s-27.166 50.333 -47.499 69s-44.5 32.834 -72.5 42.501s-59 14.5 -93 14.5c-33.333 0 -64 -5.66699 -92 -17s-52 -27 -72 -47s-35.667 -43.833 -47 -71.5s-17 -58.167 -17 -91.5v-282c0 -34 -10 -59.333 -30 -76s-46.333 -25 -79 -25v-111
h384c24 0 46.5 0.833008 67.5 2.5s41 5.33398 60 11.001s37 14 54 25s34.167 26.167 51.5 45.5z" />
    <glyph glyph-name="M" unicode="M" horiz-adv-x="1096" 
d="M1096 23l-0.00390625 107.999c-7.33301 -8 -16.166 -14.5 -26.499 -19.5s-20.833 -7.5 -31.5 -7.5c-12 0 -21.5 3.33301 -28.5 10s-10.5 16 -10.5 28l1 393c0 24.667 -3.33301 48.334 -10 71.001s-16.667 42.5 -30 59.5s-30.166 30.5 -50.499 40.5s-43.833 15 -70.5 15
c-32 0 -60.333 -6.16699 -85 -18.5s-45.667 -32.5 -63 -60.5c-14 26 -32.667 45.667 -56 59s-50 20 -80 20c-36 0 -67.333 -7.5 -94 -22.5s-48 -39.5 -64 -73.5c-18.667 34 -43.167 58.5 -73.5 73.5s-64.5 22.5 -102.5 22.5c-60.667 0 -109.334 -17.167 -146.001 -51.5
s-55 -82.166 -55 -143.499c0 -32 7.66699 -62.5 23 -91.5s37 -51.5 65 -67.5l86 72c-15.333 7.33301 -28.166 19.333 -38.499 36s-15.5 33.667 -15.5 51c0 23.333 7.83301 42 23.5 56s34.834 21 57.501 21c15.333 0 28.333 -3.16699 39 -9.5s19.167 -14.833 25.5 -25.5
s10.833 -22.5 13.5 -35.5s4 -25.833 4 -38.5v-494h125v494c0 12.667 2.5 25.5 7.5 38.5s11.833 25 20.5 36s18.834 20 30.501 27s24.5 10.5 38.5 10.5c24 0 41 -7 51 -21s15 -32.333 15 -55v-530h125v499c0 3.33301 0.833008 8.5 2.5 15.5s3.16699 12.167 4.5 15.5
c6.66699 19.333 17 36.833 31 52.5s32 23.5 54 23.5c24 0 41 -7.16699 51 -21.5s15 -32.5 15 -54.5v-398c0 -44.667 11 -79.334 33 -104.001s56 -37 102 -37c6 0 13.333 0.5 22 1.5s17.167 2.83301 25.5 5.5s16 6 23 10s12.5 9 16.5 15z" />
    <glyph glyph-name="N" unicode="N" horiz-adv-x="873" 
d="M873 23v107.998c-6.66699 -8 -15.334 -14.5 -26.001 -19.5s-21.334 -7.5 -32.001 -7.5c-25.333 0 -38 12.667 -38 38v353c0 30 -4.16699 58.667 -12.5 86s-20.833 51.333 -37.5 72s-37.167 37.167 -61.5 49.5s-52.833 18.5 -85.5 18.5c-38 0 -73.167 -6.5 -105.5 -19.5
s-59.5 -35.833 -81.5 -68.5c-19.333 30.667 -43.833 53 -73.5 67s-62.5 21 -98.5 21c-60.667 0 -109.334 -17.167 -146.001 -51.5s-55 -82.166 -55 -143.499c0 -32 7.66699 -62.5 23 -91.5s37 -51.5 65 -67.5l86 72c-15.333 7.33301 -28.166 19.333 -38.499 36
s-15.5 33.667 -15.5 51c0 23.333 7.83301 42 23.5 56s34.834 21 57.501 21c15.333 0 28.333 -3.16699 39 -9.5s19.167 -14.833 25.5 -25.5s10.833 -22.5 13.5 -35.5s4 -25.833 4 -38.5v-494h125v485c0 16.667 3.33301 32.334 10 47.001s15.834 27.5 27.501 38.5
s25 19.667 40 26s30.5 9.5 46.5 9.5c34.667 0 60 -10.167 76 -30.5s24 -47.166 24 -80.499v-363c0 -44.667 11 -79.334 33 -104.001s56 -37 102 -37c6 0 13.333 0.5 22 1.5s17.167 2.83301 25.5 5.5s16 6 23 10s12.167 9 15.5 15z" />
    <glyph glyph-name="O" unicode="O" 
d="M808 378c0 44 -6.83301 86.667 -20.5 128s-33.334 78 -59.001 110s-57.167 57.5 -94.5 76.5s-79.666 28.5 -126.999 28.5c-24.667 0 -48.5 -4.66699 -71.5 -14s-43.333 -22.166 -61 -38.499s-31.834 -35.5 -42.501 -57.5s-16 -45.667 -16 -71s4.16699 -49.833 12.5 -73.5
s20.333 -44.834 36 -63.501s34.334 -33.5 56.001 -44.5s45.834 -16.5 72.501 -16.5c21.333 0 41.666 2.33301 60.999 7s38 13 56 25l-40 98c-8.66699 -5.33301 -19.167 -9.5 -31.5 -12.5s-23.833 -4.5 -34.5 -4.5c-22 0 -39.667 7.83301 -53 23.5s-20 34.167 -20 55.5
c0 10.667 2.16699 20.667 6.5 30s10.166 17.5 17.499 24.5s15.833 12.5 25.5 16.5s19.834 6 30.501 6c30 0 55.833 -7.33301 77.5 -22s39.5 -33.334 53.5 -56.001s24.333 -47.834 31 -75.501s10 -54.167 10 -79.5c0 -35.333 -6.5 -69.166 -19.5 -101.499s-31 -61 -54 -86
s-50.167 -44.833 -81.5 -59.5s-65 -22 -101 -22c-38.667 0 -74.167 6.83301 -106.5 20.5s-60 32.5 -83 56.5s-40.833 52.333 -53.5 85s-19 68 -19 106c0 46.667 10.167 89 30.5 127s51.5 68.667 93.5 92v125c-26 -4 -50.5 -12.833 -73.5 -26.5s-44 -30.167 -63 -49.5
s-36 -40.5 -51 -63.5s-26.833 -46.167 -35.5 -69.5c-17.333 -44.667 -26 -90 -26 -136c0 -50 10.333 -99.333 31 -148c15.333 -36 35 -68.667 59 -98s51.167 -54.333 81.5 -75s63.333 -36.5 99 -47.5s73.5 -16.5 113.5 -16.5s78 5.5 114 16.5s69.167 26.833 99.5 47.5
s57.333 45.667 81 75s43.167 62.333 58.5 99c20.667 48.667 31 98.334 31 149.001z" />
    <glyph glyph-name="P" unicode="P" horiz-adv-x="753" 
d="M713 429c0 50 -10.3311 93.332 -30.998 129.999s-47.667 67 -81 91s-71.5 41.833 -114.5 53.5s-86.833 17.5 -131.5 17.5c-44 0 -86.333 -6.66699 -127 -20s-76.334 -32.666 -107.001 -57.999s-55.167 -56.5 -73.5 -93.5s-27.5 -79.167 -27.5 -126.5
c0 -18 0.833008 -34.667 2.5 -50s4.83398 -29.666 9.50098 -42.999s11 -26.333 19 -39s18.333 -26 31 -40l91 78c-13.333 13.333 -22.333 27.666 -27 42.999s-7 32.333 -7 51c0 30 6.33301 56.333 19 79s29.5 41.834 50.5 57.501s44.5 27.334 70.5 35.001
s52.667 11.5 80 11.5c28.667 0 56.834 -3.33301 84.501 -10s52.167 -17.334 73.5 -32.001s38.5 -33.5 51.5 -56.5s19.5 -50.833 19.5 -83.5c0 -21.333 -3.83301 -40.5 -11.5 -57.5s-18.334 -31.5 -32.001 -43.5s-29.334 -21.167 -47.001 -27.5s-36.5 -9.5 -56.5 -9.5
c-22.667 0 -44 3.33301 -64 10v220h-125v-374c0 -25.333 -12.667 -38 -38 -38c-11.333 0 -22 2.5 -32 7.5s-18.667 11.5 -26 19.5v-108c4 -6 9.66699 -11 17 -15s15.5 -7.33301 24.5 -10s17.833 -4.5 26.5 -5.5s16.334 -1.5 23.001 -1.5c46 0 79.167 12.5 99.5 37.5
s30.5 59.5 30.5 103.5v68c15.333 -7.33301 31.5 -11.833 48.5 -13.5s33.833 -2.5 50.5 -2.5c15.333 0 30.666 2.16699 45.999 6.5s29.666 9.83301 42.999 16.5c44.667 21.333 80.5 51.166 107.5 89.499s40.5 82.5 40.5 132.5z" />
    <glyph glyph-name="Q" unicode="Q" horiz-adv-x="693" 
d="M653 422c0 44.667 -7.33398 85.335 -22.001 122.002s-35.167 68.167 -61.5 94.5s-57.833 46.666 -94.5 60.999s-77.334 21.5 -122.001 21.5c-41.333 0 -80.833 -6 -118.5 -18s-71 -29.667 -100 -53s-52 -52.166 -69 -86.499s-25.5 -73.5 -25.5 -117.5
c0 -30 5.33301 -60 16 -90s25.667 -56.667 45 -80s42.5 -42.5 69.5 -57.5s56.833 -22.5 89.5 -22.5l45 112c-44 -2.66699 -78.5 9 -103.5 35s-37.5 60.333 -37.5 103c0 26 5.33301 48.833 16 68.5s24.834 36 42.501 49s37.834 22.833 60.501 29.5s46 10 70 10
c26.667 0 50.667 -4.66699 72 -14s39.5 -22 54.5 -38s26.5 -35 34.5 -57s12 -46 12 -72c0 -48 -12 -90.833 -36 -128.5s-54.5 -69.5 -91.5 -95.5s-78.167 -46 -123.5 -60s-89.333 -21 -132 -21v-117c32.667 0 62.5 -5 89.5 -15l85.5 -31
c25.333 -8 49.666 -14.333 72.999 -19s48 -7 74 -7c22.667 0 43.834 1.66699 63.501 5s40.167 9 61.5 17v126c-7.33301 -4.66699 -16 -9 -26 -13s-20.667 -7.33301 -32 -10s-22.5 -4.83398 -33.5 -6.50098s-20.5 -2.5 -28.5 -2.5c-28 0 -54.833 2.66699 -80.5 8
s-51.5 11.333 -77.5 18c43.333 4.66699 85.5 17.167 126.5 37.5s77.333 46.333 109 78s57.167 67.667 76.5 108s29 83.166 29 128.499z" />
    <glyph glyph-name="R" unicode="R" horiz-adv-x="729" 
d="M729 12l0.00292969 105.998c-8 -5.33301 -16.667 -9.5 -26 -12.5s-18.666 -4.5 -27.999 -4.5c-15.333 0 -27.666 4.16699 -36.999 12.5s-17.333 19.166 -24 32.499c-5.33301 11.333 -11.5 23.166 -18.5 35.499s-14.833 24 -23.5 35s-18.334 20.5 -29.001 28.5
s-23 13.333 -37 16c23.333 1.33301 46.166 8.16602 68.499 20.499s42.166 27.833 59.499 46.5s31.166 39.667 41.499 63s15.5 46.666 15.5 69.999c0 39.333 -9.66699 76.333 -29 111c-15.333 27.333 -34.333 50.5 -57 69.5s-47.5 34.333 -74.5 46s-55.5 20.167 -85.5 25.5
s-59.667 8 -89 8c-44.667 0 -87.167 -6.66699 -127.5 -20s-76 -32.666 -107 -57.999s-55.667 -56.5 -74 -93.5s-27.5 -79.167 -27.5 -126.5c0 -18 0.833008 -34.667 2.5 -50s4.83398 -29.666 9.50098 -42.999s11 -26.333 19 -39s18.333 -26 31 -40l91 78
c-13.333 14 -22.333 28.5 -27 43.5s-7 31.833 -7 50.5c0 30 6.5 56.333 19.5 79s29.833 41.834 50.5 57.501s44.167 27.334 70.5 35.001s52.833 11.5 79.5 11.5c23.333 0 47.5 -2.83301 72.5 -8.5s47.667 -14.834 68 -27.501s37.166 -28.667 50.499 -48
s20 -42.666 20 -69.999c0 -24 -5.16699 -44.667 -15.5 -62s-23.833 -31.666 -40.5 -42.999s-35.5 -19.833 -56.5 -25.5s-41.833 -8.5 -62.5 -8.5h-9c-2.66699 0 -5.66699 0.333008 -9 1v202h-125v-384c0 -25.333 -12.667 -38 -38 -38c-10.667 0 -21.334 2.5 -32.001 7.5
s-19.334 11.5 -26.001 19.5v-98c4 -6 9.66699 -11 17 -15s15.5 -7.33301 24.5 -10s17.833 -4.5 26.5 -5.5s16.334 -1.5 23.001 -1.5c46 0 79.167 12.5 99.5 37.5s30.5 59.5 30.5 103.5v78h28c19.333 0 34.666 -5.33301 45.999 -16s20.666 -24.167 27.999 -40.5
s14.333 -34 21 -53s15.334 -36.667 26.001 -53s24.834 -29.833 42.501 -40.5s41.167 -16 70.5 -16c17.333 0 33.333 0.833008 48 2.5s28.667 7.83398 42 18.501z" />
    <glyph glyph-name="S" unicode="S" horiz-adv-x="473" 
d="M473 534c0 29.333 -6.32812 55.6699 -18.9951 79.0029s-29.5 43 -50.5 59s-44.667 28.167 -71 36.5s-52.833 12.5 -79.5 12.5c-30.667 0 -60 -4.5 -88 -13.5s-52.833 -22.333 -74.5 -40s-38.834 -39.334 -51.501 -65.001s-19 -54.834 -19 -87.501
s6.5 -60.834 19.5 -84.501s29.167 -44.667 48.5 -63s40.166 -34.833 62.499 -49.5s43.166 -29.5 62.499 -44.5s35.5 -30.5 48.5 -46.5s19.5 -34.667 19.5 -56c0 -20 -6.66699 -35.667 -20 -47s-29.666 -17 -48.999 -17c-20.667 0 -39.334 5 -56.001 15s-32 22 -46 36v-138
c16 -11.333 32.167 -19 48.5 -23s34.166 -6 53.499 -6c27.333 0 52.666 4 75.999 12s43.5 19.667 60.5 35s30.333 34.166 40 56.499s14.5 47.833 14.5 76.5c0 30.667 -6.33301 57.834 -19 81.501s-28.667 45 -48 64s-40.166 36.5 -62.499 52.5l-62.5 46.5
c-19.333 15 -35.333 30.5 -48 46.5s-19 33.667 -19 53c0 14.667 3.16699 27.834 9.5 39.501s14.666 21.667 24.999 30s22 14.666 35 18.999s26.167 6.5 39.5 6.5c24.667 0 46.5 -6.66699 65.5 -20s28.5 -33.333 28.5 -60c0 -16 -4.83301 -28.667 -14.5 -38
s-21.167 -17 -34.5 -23l81 -75c28.667 12 51.5 30.5 68.5 55.5s25.5 53.167 25.5 84.5z" />
    <glyph glyph-name="T" unicode="T" horiz-adv-x="707" 
d="M707 597v113.002h-451c-30 0 -59.167 -4 -87.5 -12s-53.5 -20 -75.5 -36s-39.667 -36.167 -53 -60.5s-20 -52.833 -20 -85.5c0 -31.333 4.83301 -58.5 14.5 -81.5s23.334 -42.333 41.001 -58s38.834 -27.834 63.501 -36.501s51.667 -14 81 -16l38 114
c-12.667 -0.666992 -25.667 0 -39 2s-25.5 6 -36.5 12s-20.167 14 -27.5 24s-11 22.667 -11 38s2.83301 28.166 8.5 38.499s13.167 18.666 22.5 24.999s20.166 10.833 32.499 13.5s25.5 4 39.5 4h283c-20 -6.66699 -37.333 -16.667 -52 -30s-27 -28.5 -37 -45.5
s-17.5 -35.333 -22.5 -55s-7.5 -39.5 -7.5 -59.5v-235c0 -21.333 -6.5 -36.666 -19.5 -45.999s-29.167 -14 -48.5 -14c-14 0 -29.333 2.5 -46 7.5s-29.667 13.167 -39 24.5v-119c4 -5.33301 11.167 -10 21.5 -14s21.666 -7.33301 33.999 -10s24.333 -4.66699 36 -6
s20.834 -2 27.501 -2c24.667 0 47 5 67 15s36.667 23.167 50 39.5s23.666 35.333 30.999 57s11 44.167 11 67.5v235c0 24 4.33301 47.333 13 70c12.667 36.667 32 66.167 58 88.5s59.333 33.5 100 33.5z" />
    <glyph glyph-name="U" unicode="U" horiz-adv-x="877" 
d="M877 23l0.00292969 107.999c-6.66699 -8 -15.334 -14.5 -26.001 -19.5s-21.334 -7.5 -32.001 -7.5c-25.333 0 -38 12.667 -38 38v568h-125v-485c0 -2.66699 -0.5 -6.66699 -1.5 -12s-1.83301 -9.33301 -2.5 -12c-4 -13.333 -9.83301 -26 -17.5 -38
s-16.834 -22.667 -27.501 -32s-22.5 -16.666 -35.5 -21.999s-26.5 -8 -40.5 -8c-36 0 -61.5 10.833 -76.5 32.5s-22.5 49.167 -22.5 82.5v278c0 32.667 -4.66699 62.834 -14 90.501s-22.833 51.667 -40.5 72s-39.667 36.166 -66 47.499s-56.5 17 -90.5 17
c-60.667 0 -109.334 -17.167 -146.001 -51.5s-55 -82.166 -55 -143.499c0 -32 7.66699 -62.5 23 -91.5s37 -51.5 65 -67.5l88 79c-14 6.66699 -25.833 17.667 -35.5 33s-14.5 31 -14.5 47c0 21.333 7.16699 39.666 21.5 54.999s32.166 23 53.499 23
c14.667 0 27.5 -3.33301 38.5 -10s20 -15.334 27 -26.001s12.167 -22.5 15.5 -35.5s5 -25.833 5 -38.5v-278c0 -30 4.16699 -58.667 12.5 -86s20.666 -51.166 36.999 -71.499s36.833 -36.666 61.5 -48.999s53.334 -18.5 86.001 -18.5c33.333 0 63.833 4.66699 91.5 14
s51.834 27.666 72.501 54.999c10.667 -26 26.5 -44 47.5 -54s44.5 -15 70.5 -15c6.66699 0 14.5 0.5 23.5 1.5s17.833 2.83301 26.5 5.5s16.834 6 24.501 10s13.167 9 16.5 15z" />
    <glyph glyph-name="V" unicode="V" horiz-adv-x="878" 
d="M878 581l0.00585938 107.997c-4 6 -9.66699 11 -17 15s-15.5 7.16699 -24.5 9.5s-17.833 4.16602 -26.5 5.49902s-16.334 2 -23.001 2c-46 0 -79.167 -12.5 -99.5 -37.5s-30.5 -59.5 -30.5 -103.5v-357c0 -35.333 -9.83301 -64.666 -29.5 -87.999
s-47.834 -35 -84.501 -35s-64.334 11.833 -83.001 35.5s-28 52.834 -28 87.501v271c0 32.667 -4.66699 62.834 -14 90.501s-22.833 51.667 -40.5 72s-39.667 36.166 -66 47.499s-56.5 17 -90.5 17c-60.667 0 -109.334 -17.167 -146.001 -51.5s-55 -82.166 -55 -143.499
c0 -32 7.66699 -62.5 23 -91.5s37 -51.5 65 -67.5l88 79c-14 6.66699 -25.833 17.667 -35.5 33s-14.5 31 -14.5 47c0 21.333 7.16699 39.666 21.5 54.999s32.166 23 53.499 23c14.667 0 27.5 -3.33301 38.5 -10s20 -15.334 27 -26.001s12.167 -22.5 15.5 -35.5
s5 -25.833 5 -38.5v-271c0 -33.333 5.83301 -64.166 17.5 -92.499s27.834 -53 48.501 -74s45.167 -37.5 73.5 -49.5s59.166 -18 92.499 -18c34 0 65.667 5.66699 95 17s55 27.333 77 48s39.333 45.334 52 74.001s19 60.334 19 95.001v347c0 25.333 12.667 38 38 38
c10.667 0 21.167 -2.5 31.5 -7.5s19.166 -11.5 26.499 -19.5z" />
    <glyph glyph-name="W" unicode="W" horiz-adv-x="1100" 
d="M1100 581l0.00195312 108.002c-4 6 -9.66699 11 -17 15s-15.5 7.16699 -24.5 9.5s-18 4.16602 -27 5.49902s-16.5 2 -22.5 2c-46 0 -79.167 -12.5 -99.5 -37.5s-30.5 -59.5 -30.5 -103.5v-384c0 -11.333 -2 -22.166 -6 -32.499s-9.66699 -19.5 -17 -27.5
s-15.833 -14.5 -25.5 -19.5s-20.5 -7.5 -32.5 -7.5c-11.333 0 -22 2.5 -32 7.5s-18.5 11.5 -25.5 19.5s-12.5 17.167 -16.5 27.5s-6 21.166 -6 32.499v514h-125v-514c0 -12 -2 -23.167 -6 -33.5s-9.83301 -19.5 -17.5 -27.5s-16.667 -14.333 -27 -19s-21.5 -7 -33.5 -7
c-24 0 -42.833 8.83301 -56.5 26.5s-20.5 37.834 -20.5 60.501v298c0 32.667 -4.66699 62.834 -14 90.501s-22.833 51.667 -40.5 72s-39.667 36.166 -66 47.499s-56.5 17 -90.5 17c-60.667 0 -109.334 -17.167 -146.001 -51.5s-55 -82.166 -55 -143.499
c0 -32 7.66699 -62.5 23 -91.5s37 -51.5 65 -67.5l88 79c-14 6.66699 -26.167 18.167 -36.5 34.5s-15.5 32.166 -15.5 47.499c0 23.333 7 42 21 56s32.667 21 56 21c14.667 0 27.5 -3.33301 38.5 -10s20 -15.334 27 -26.001s12.167 -22.667 15.5 -36s5 -26.333 5 -39v-298
c0 -30 4.83301 -57.5 14.5 -82.5s23.334 -46.667 41.001 -65s39 -32.5 64 -42.5s52.5 -15 82.5 -15c32 0 60.833 8 86.5 24s46.167 38 61.5 66c13.333 -28.667 32.166 -50.834 56.499 -66.501s52.5 -23.5 84.5 -23.5c30.667 0 58.667 4.83301 84 14.5s47 23.5 65 41.5
s32 39.667 42 65s15 53.333 15 84v374c0 25.333 12.667 38 38 38c10.667 0 21.167 -2.5 31.5 -7.5s19.166 -11.5 26.499 -19.5z" />
    <glyph glyph-name="X" unicode="X" horiz-adv-x="860" 
d="M860 -9v115.004c-37.333 0 -69.666 7.66699 -96.999 23s-51 35.166 -71 59.499s-37.333 51.666 -52 81.999s-28 60.5 -40 90.5c11.333 28.667 23.833 57.667 37.5 87s30 55.833 49 79.5s41.5 43 67.5 58s57 22.5 93 22.5v113c-38.667 0 -73.5 -4.83301 -104.5 -14.5
s-58.833 -23.834 -83.5 -42.501s-46.834 -41.167 -66.501 -67.5s-37.5 -55.833 -53.5 -88.5c-13.333 29.333 -28 56.833 -44 82.5s-34.5 48.167 -55.5 67.5s-45 34.666 -72 45.999s-58.167 17 -93.5 17c-33.333 0 -65.333 -5.33301 -96 -16s-57.667 -26 -81 -46
s-42 -44.167 -56 -72.5s-21 -59.833 -21 -94.5c0 -34 7.5 -66.833 22.5 -98.5s36.5 -57.167 64.5 -76.5l82 90c-11.333 9.33301 -21.666 22.666 -30.999 39.999s-14 33.666 -14 48.999c0 36.667 12 64.167 36 82.5s53 27.5 87 27.5c30 0 56 -8.66699 78 -26
s41.167 -38.666 57.5 -63.999s30.166 -52.333 41.499 -81l31 -78l-38 -88c-13.333 -30 -29.5 -57.167 -48.5 -81.5s-41.5 -44.166 -67.5 -59.499s-57.333 -23 -94 -23v-114c39.333 0 74.666 5.16699 105.999 15.5s59.333 25 84 44s46.834 42.167 66.501 69.5
s37.5 58 53.5 92c17.333 -34 36.333 -64.667 57 -92s44 -50.5 70 -69.5s55.167 -33.667 87.5 -44s68.5 -15.5 108.5 -15.5z" />
    <glyph glyph-name="Y" unicode="Y" 
d="M778 -90l-0.000976562 388.003v412h-125v-487c0 -36 -9.16699 -64.5 -27.5 -85.5s-45.833 -31.5 -82.5 -31.5c-36 0 -64.167 10.5 -84.5 31.5s-30.5 49.5 -30.5 85.5v271c0 32.667 -4.33301 62.834 -13 90.501s-21.667 51.667 -39 72s-39 36.166 -65 47.499
s-56 17 -90 17c-60.667 0 -109.334 -17.167 -146.001 -51.5s-55 -82.166 -55 -143.499c0 -32 7.66699 -62.5 23 -91.5s37 -51.5 65 -67.5l88 79c-14 6.66699 -25.833 17.667 -35.5 33s-14.5 31 -14.5 47c0 21.333 7.16699 39.666 21.5 54.999s32.166 23 53.499 23
c14.667 0 27.167 -3.33301 37.5 -10s18.833 -15.334 25.5 -26.001s11.5 -22.5 14.5 -35.5s4.5 -25.833 4.5 -38.5v-271c0 -31.333 5.33301 -61 16 -89s25.834 -52.5 45.501 -73.5s42.834 -37.833 69.501 -50.5s56 -19 88 -19c27.333 0 52 3.66699 74 11s41 22.666 57 45.999
v-138c0 -18 -4.16699 -33.333 -12.5 -46s-22.166 -20.334 -41.499 -23.001l68 -102c36 19.333 63.5 41.833 82.5 67.5s28.5 60.167 28.5 103.5z" />
    <glyph glyph-name="Z" unicode="Z" horiz-adv-x="746" 
d="M746 68l-66.001 83.0039c-20 -18.667 -40.167 -31.5 -60.5 -38.5s-44.166 -10.5 -71.499 -10.5c-25.333 0 -50 3 -74 9l-60.5 15.5c-19 5 -40.167 7.5 -63.5 7.5h-18l391 479l-48 97h-419c-30 0 -59.167 -4 -87.5 -12s-53.5 -20 -75.5 -36s-39.667 -36.167 -53 -60.5
s-20 -52.833 -20 -85.5c0 -31.333 5 -58.5 15 -81.5s23.833 -42.333 41.5 -58s38.834 -27.834 63.501 -36.501s51.667 -14 81 -16l38 114c-12.667 -0.666992 -25.667 0 -39 2s-25.5 6 -36.5 12s-20.167 14 -27.5 24s-11 22.667 -11 38s2.83301 28.166 8.5 38.499
s13.167 18.666 22.5 24.999s20.166 10.833 32.499 13.5s25.5 4 39.5 4h313l-446 -529l82 -75c16.667 14 34 24.833 52 32.5s38 11.5 60 11.5c18.667 0 37.667 -2.33301 57 -7s38.666 -9.83398 57.999 -15.501s39.333 -10.834 60 -15.501s42 -7 64 -7
c40 0 75.833 5.83301 107.5 17.5s61.834 31.834 90.501 60.501z" />
    <glyph glyph-name="bracketleft" unicode="[" horiz-adv-x="296" 
d="M276 -215v86h-114v754h114v85h-206v-925h206z" />
    <glyph glyph-name="backslash" unicode="\" horiz-adv-x="436" 
d="M456 -179l-392 875l-84 -39l392 -875z" />
    <glyph glyph-name="bracketright" unicode="]" horiz-adv-x="296" 
d="M226 -215v925h-206v-85h114v-754h-114v-86h206z" />
    <glyph glyph-name="asciicircum" unicode="^" horiz-adv-x="606" 
d="M586 268l-283 283l-283 -283l82 -81l201 201l201 -201z" />
    <glyph glyph-name="underscore" unicode="_" horiz-adv-x="400" 
d="M400 -155v70h-400v-70h400z" />
    <glyph glyph-name="grave" unicode="`" horiz-adv-x="264" 
d="M244 487l-160 161l-64 -64l161 -160z" />
    <glyph glyph-name="a" unicode="a" horiz-adv-x="538" 
d="M538 16l0.000976562 92.001c-12.667 -10.667 -26.667 -16 -42 -16c-11.333 0 -20.833 3.16699 -28.5 9.5s-11.5 15.166 -11.5 26.499v252h-114v-44c-15.333 18 -33 31.167 -53 39.5s-41.667 12.5 -65 12.5c-28 0 -53.333 -5.33301 -76 -16s-42 -25 -58 -43
s-28.333 -39 -37 -63s-13 -49.333 -13 -76c0 -27.333 4.33301 -53 13 -77s21 -45 37 -63s35.333 -32.333 58 -43s48 -16 76 -16c27.333 0 52 5.5 74 16.5s40.333 28.167 55 51.5c9.33301 -20 22.5 -36.333 39.5 -49s36.5 -19 58.5 -19c15.333 0 30.666 1.83301 45.999 5.5
s29 10.167 41 19.5zM342.001 151.001c-7.33301 -19.333 -19.166 -35.002 -35.499 -47.002s-34.833 -18 -55.5 -18c-14 0 -27 2.83301 -39 8.5s-22.333 13.334 -31 23.001s-15.5 20.667 -20.5 33s-7.5 25.5 -7.5 39.5s2.5 27.167 7.5 39.5s11.833 23.333 20.5 33
s19 17.334 31 23.001s25 8.5 39 8.5c20.667 0 39.167 -6 55.5 -18s28.166 -27.667 35.499 -47v-78z" />
    <glyph glyph-name="b" unicode="b" horiz-adv-x="505" 
d="M465 197c0 24 -3.33301 47.667 -10 71s-16.834 44 -30.501 62s-30.5 32.667 -50.5 44s-43 17 -69 17c-12 0 -24 -2.33301 -36 -7s-22.5 -11.167 -31.5 -19.5s-16.333 -18.166 -22 -29.499s-8.5 -23.333 -8.5 -36c0 -11.333 2.33301 -22.166 7 -32.499s11 -19.5 19 -27.5
s17 -14.333 27 -19s20.667 -7 32 -7c10.667 0 21.667 2.66699 33 8s20.333 11.666 27 18.999c3.33301 -6 5.66602 -12.833 6.99902 -20.5s2 -14.834 2 -21.501c0 -28 -8.5 -51.5 -25.5 -70.5s-39.833 -28.5 -68.5 -28.5c-12 0 -23.667 2.5 -35 7.5
s-21.166 11.667 -29.499 20s-15.166 18.166 -20.499 29.499s-8 23 -8 35v519h-114v-520c0 -27.333 5.33301 -53.166 16 -77.499s25 -45.5 43 -63.5s39.167 -32.333 63.5 -43s50.166 -16 77.499 -16c28 0 54.333 5.66699 79 17s46.334 26.5 65.001 45.5s33.5 41 44.5 66
s16.5 51.167 16.5 78.5z" />
    <glyph glyph-name="c" unicode="c" horiz-adv-x="410" 
d="M370 280c0 20.667 -4.16699 37.8311 -12.5 51.498s-19.333 24.834 -33 33.501s-29 14.834 -46 18.501s-34.167 5.5 -51.5 5.5c-26.667 0 -51.5 -5.33301 -74.5 -16s-42.833 -25 -59.5 -43s-29.667 -38.833 -39 -62.5s-14 -48.5 -14 -74.5c0 -31.333 5.5 -59.5 16.5 -84.5
s26 -46.167 45 -63.5s41.5 -30.666 67.5 -39.999s54 -14 84 -14c17.333 0 35.833 1.83301 55.5 5.5s37.167 9.16699 52.5 16.5v115c-14 -12 -31 -20.5 -51 -25.5s-39 -7.5 -57 -7.5c-14.667 0 -28.667 2.16699 -42 6.5s-25 10.666 -35 18.999s-17.833 18.5 -23.5 30.5
s-8.5 26 -8.5 42c0 25.333 6.33301 47 19 65s33 27 61 27c-1.33301 -2.66699 -2 -5.33398 -2 -8.00098v-9c0 -8.66699 2.16699 -17 6.5 -25s10 -15 17 -21s14.667 -10.833 23 -14.5s16.833 -5.5 25.5 -5.5c22.667 0 41 7.33301 55 22s21 33.334 21 56.001z" />
    <glyph glyph-name="d" unicode="d" horiz-adv-x="540" 
d="M540 16v92.001c-12.667 -10.667 -26.667 -16 -42 -16c-11.333 0 -20.833 3.16699 -28.5 9.5s-11.5 15.166 -11.5 26.499v582h-114v-377c-15.333 19.333 -33.166 33.333 -53.499 42s-42.5 13 -66.5 13c-28 0 -53.333 -5.33301 -76 -16s-42 -25 -58 -43
s-28.333 -39 -37 -63s-13 -49.333 -13 -76c0 -27.333 4.33301 -53 13 -77s21 -45 37 -63s35.333 -32.333 58 -43s48 -16 76 -16s53 5.83301 75 17.5s40.667 29.167 56 52.5c8 -20.667 20.833 -37.5 38.5 -50.5s37.5 -19.5 59.5 -19.5c15.333 0 30.666 1.83301 45.999 5.5
s29 10.167 41 19.5zM344 157.001c0 -1.33301 -1 -4.1709 -3 -8.50391s-3.33301 -7.16602 -4 -8.49902c-8 -16.667 -19.667 -29.834 -35 -39.501s-32.333 -14.5 -51 -14.5c-14 0 -27 2.83301 -39 8.5s-22.333 13.334 -31 23.001s-15.5 20.667 -20.5 33s-7.5 25.5 -7.5 39.5
s2.5 27.167 7.5 39.5s11.833 23.333 20.5 33s19 17.334 31 23.001s25 8.5 39 8.5c18.667 0 35.667 -5 51 -15s27 -23 35 -39c0.666992 -1.33301 2 -4.16602 4 -8.49902s3 -7.16602 3 -8.49902v-66z" />
    <glyph glyph-name="e" unicode="e" horiz-adv-x="428" 
d="M408 296c-22 32 -47.167 55.333 -75.5 70s-61.833 22 -100.5 22c-26 0 -50.667 -5.33301 -74 -16s-43.833 -24.834 -61.5 -42.501s-31.5 -38.334 -41.5 -62.001s-15 -48.5 -15 -74.5c0 -31.333 5.83301 -59.5 17.5 -84.5s27.5 -46.167 47.5 -63.5
s43.333 -30.666 70 -39.999s55 -14 85 -14c17.333 0 35.666 1.83301 54.999 5.5s36.666 9.16699 51.999 16.5v110c-15.333 -13.333 -32.166 -22.666 -50.499 -27.999s-37.166 -8 -56.499 -8c-18.667 0 -36 3 -52 9zM271 279l-122.001 -127c-5.33301 14 -8 27.667 -8 41
c0 26 7.33301 49 22 69s36 30 64 30c6.66699 0 14.334 -0.833008 23.001 -2.5s15.667 -5.16699 21 -10.5z" />
    <glyph glyph-name="f" unicode="f" horiz-adv-x="327" 
d="M377 583l-0.000976562 110.995c-11.333 8.66699 -23.833 15.334 -37.5 20.001s-27.834 7 -42.501 7c-25.333 0 -48.833 -4.16699 -70.5 -12.5s-40.5 -20.166 -56.5 -35.499s-28.5 -33.666 -37.5 -54.999s-13.5 -44.666 -13.5 -69.999v-168h-99v-107h99v-345
c0 -17.333 -6.5 -32.5 -19.5 -45.5s-28.167 -19.5 -45.5 -19.5l43 -95c20.667 0 39.334 4.83301 56.001 14.5s31 22.167 43 37.5s21.167 32.5 27.5 51.5s9.5 37.833 9.5 56.5v345h97v107h-97v168c0 17.333 6.5 32 19.5 44s27.833 18 44.5 18
c14.667 0 28.834 -2.16699 42.501 -6.5s26.167 -11.166 37.5 -20.499z" />
    <glyph glyph-name="g" unicode="g" horiz-adv-x="528" 
d="M458 -72l-0.000976562 452h-114v-47c-15.333 19.333 -33.166 33.333 -53.499 42s-42.5 13 -66.5 13c-28 0 -53.333 -5.33301 -76 -16s-42 -25 -58 -43s-28.333 -39 -37 -63s-13 -49.333 -13 -76c0 -27.333 4.33301 -53 13 -77s21 -45 37 -63s35.333 -32.333 58 -43
s48 -16 76 -16c24 0 46.167 4.33301 66.5 13s38.166 22.667 53.499 42v-118c0 -17.333 -6.5 -32.5 -19.5 -45.5s-28.167 -19.5 -45.5 -19.5l43 -95c20.667 0 39.334 4.83301 56.001 14.5s31 22.167 43 37.5s21.167 32.5 27.5 51.5s9.5 37.833 9.5 56.5zM343.999 157
c0 -1.33301 -1 -4.17188 -3 -8.50488s-3.33301 -7.16602 -4 -8.49902c-8 -16 -19.667 -29 -35 -39s-32.333 -15 -51 -15c-14 0 -27 2.83301 -39 8.5s-22.333 13.334 -31 23.001s-15.5 20.667 -20.5 33s-7.5 25.5 -7.5 39.5s2.5 27.167 7.5 39.5s11.833 23.333 20.5 33
s19 17.334 31 23.001s25 8.5 39 8.5c18.667 0 35.667 -5 51 -15s27 -23 35 -39c0.666992 -1.33301 2 -4.16602 4 -8.49902s3 -7.16602 3 -8.49902v-66z" />
    <glyph glyph-name="h" unicode="h" horiz-adv-x="497" 
d="M497 16l0.000976562 91.9971c-12.667 -10.667 -26.667 -16 -42 -16c-10.667 0 -20 3.16699 -28 9.5s-12 15.166 -12 26.499v122c0 18.667 -3.33301 36.334 -10 53.001s-15.834 31.334 -27.501 44.001s-25.667 22.667 -42 30s-34.166 11 -53.499 11
c-18.667 0 -36.834 -3.66699 -54.501 -11s-32.167 -18.666 -43.5 -33.999v367h-114v-710h114v224c0 1.33301 0.666992 4.5 2 9.5s2.33301 8.16699 3 9.5c5.33301 14.667 13 26.834 23 36.501s23.333 14.5 40 14.5s29 -5.5 37 -16.5s12 -24.167 12 -39.5v-125
c0 -15.333 2.66699 -30.333 8 -45s12.666 -27.667 21.999 -39s20.833 -20.5 34.5 -27.5s28.834 -10.5 45.501 -10.5c14.667 0 29.667 1.83301 45 5.5s29 10.167 41 19.5z" />
    <glyph glyph-name="i" unicode="i" horiz-adv-x="265" 
d="M205 537c0 21.333 -7.66699 39.833 -23 55.5s-33.666 23.5 -54.999 23.5c-22 0 -40.667 -7.83301 -56 -23.5s-23 -34.167 -23 -55.5s7.66699 -39.833 23 -55.5s34 -23.5 56 -23.5c21.333 0 39.666 7.83301 54.999 23.5s23 34.167 23 55.5zM265 16v92.001
c-12 -10.667 -26 -16 -42 -16c-10.667 0 -20 3.16699 -28 9.5s-12 15.166 -12 26.499v252h-113v-267c0 -15.333 2.5 -30.333 7.5 -45s12.333 -27.667 22 -39s21.167 -20.5 34.5 -27.5s28.333 -10.5 45 -10.5c14.667 0 29.667 1.83301 45 5.5s29 10.167 41 19.5z" />
    <glyph glyph-name="j" unicode="j" horiz-adv-x="254" 
d="M206 537c0 21.333 -7.66699 39.833 -23 55.5s-34 23.5 -56 23.5c-21.333 0 -39.666 -7.83301 -54.999 -23.5s-23 -34.167 -23 -55.5s7.66699 -39.833 23 -55.5s33.666 -23.5 54.999 -23.5c22 0 40.667 7.83301 56 23.5s23 34.167 23 55.5zM184 -72l-0.000976562 452h-113
v-452c0 -17.333 -6.66699 -32.5 -20 -45.5s-28.666 -19.5 -45.999 -19.5l44 -95c20 0 38.333 4.83301 55 14.5s31 22.167 43 37.5s21.167 32.5 27.5 51.5s9.5 37.833 9.5 56.5z" />
    <glyph glyph-name="k" unicode="k" horiz-adv-x="497" 
d="M497 16v92.002c-7.33301 -4.66699 -15.333 -8.66699 -24 -12s-17.667 -5 -27 -5c-15.333 0 -28.333 4.83301 -39 14.5s-21.5 20.834 -32.5 33.501s-23 24.5 -36 35.5s-28.833 18.167 -47.5 21.5c22 4 41 11.833 57 23.5s29.167 26 39.5 43s18 35.667 23 56
s7.5 40.833 7.5 61.5h-113c0 -19.333 -2.5 -37.333 -7.5 -54s-12.5 -31.334 -22.5 -44.001s-22.667 -22.667 -38 -30s-33 -11 -53 -11v469h-114v-710h114v146l3 1c19.333 0 36 -3.83301 50 -11.5s26.333 -17.167 37 -28.5s20.5 -23.833 29.5 -37.5
s18.5 -26.334 28.5 -38.001s21.333 -21.334 34 -29.001s27.667 -11.5 45 -11.5c14.667 0 29.667 1.83301 45 5.5s29 10.167 41 19.5z" />
    <glyph glyph-name="l" unicode="l" horiz-adv-x="265" 
d="M265 16l0.00195312 92.001c-12 -10.667 -25.667 -16 -41 -16c-11.333 0 -20.833 3.16699 -28.5 9.5s-11.5 15.166 -11.5 26.499v582h-114v-597c0 -15.333 2.5 -30.333 7.5 -45s12.333 -27.667 22 -39s21.167 -20.5 34.5 -27.5s28.333 -10.5 45 -10.5
c15.333 0 30.666 1.83301 45.999 5.5s28.666 10.167 39.999 19.5z" />
    <glyph glyph-name="m" unicode="m" horiz-adv-x="728" 
d="M728 16l0.00390625 92c-12 -10.667 -25.667 -16 -41 -16c-11.333 0 -21 3.16699 -29 9.5s-12 15.166 -12 26.499v122c0 20.667 -3.5 39.5 -10.5 56.5s-16.833 31.5 -29.5 43.5s-27.667 21.333 -45 28s-36 10 -56 10c-22.667 0 -44.5 -4.33301 -65.5 -13
s-37.167 -23.667 -48.5 -45c-12.667 18.667 -28.334 33 -47.001 43s-39.334 15 -62.001 15c-18.667 0 -36.834 -3.66699 -54.501 -11s-32.167 -18.666 -43.5 -33.999v37h-114v-380h114v224c0 1.33301 0.666992 4.5 2 9.5s2.33301 8.16699 3 9.5
c5.33301 14.667 13 26.834 23 36.501s23.333 14.5 40 14.5s29 -5.5 37 -16.5s12 -24.167 12 -39.5v-238h114v223c0 1.33301 0.833008 4.66602 2.5 9.99902s2.83398 8.66602 3.50098 9.99902c5.33301 14.667 13 26.834 23 36.501s23 14.5 39 14.5
c16.667 0 29.167 -5.5 37.5 -16.5s12.5 -24.167 12.5 -39.5v-125c0 -15.333 2.5 -30.333 7.5 -45s12.333 -27.667 22 -39s21.167 -20.5 34.5 -27.5s28.333 -10.5 45 -10.5c15.333 0 30.666 1.83301 45.999 5.5s28.666 10.167 39.999 19.5z" />
    <glyph glyph-name="n" unicode="n" horiz-adv-x="497" 
d="M497 16l0.000976562 91.999c-12.667 -10.667 -26.667 -16 -42 -16c-10.667 0 -20 3.16699 -28 9.5s-12 15.166 -12 26.499v122c0 18.667 -3.33301 36.334 -10 53.001s-15.834 31.334 -27.501 44.001s-25.667 22.667 -42 30s-34.166 11 -53.499 11
c-18.667 0 -36.834 -3.66699 -54.501 -11s-32.167 -18.666 -43.5 -33.999v37h-114v-380h114v223c0 1.33301 0.666992 4.66602 2 9.99902s2.33301 8.66602 3 9.99902c5.33301 14.667 13 26.834 23 36.501s23.333 14.5 40 14.5s29 -5.5 37 -16.5s12 -24.167 12 -39.5v-125
c0 -15.333 2.66699 -30.333 8 -45s12.666 -27.667 21.999 -39s20.833 -20.5 34.5 -27.5s28.834 -10.5 45.501 -10.5c14.667 0 29.667 1.83301 45 5.5s29 10.167 41 19.5z" />
    <glyph glyph-name="o" unicode="o" horiz-adv-x="478" 
d="M438 189c0 27.333 -5.16699 53.166 -15.5 77.499s-24.5 45.5 -42.5 63.5s-39.167 32.333 -63.5 43s-50.166 16 -77.499 16s-53.166 -5.33301 -77.499 -16s-45.5 -25 -63.5 -43s-32.167 -39.167 -42.5 -63.5s-15.5 -50.166 -15.5 -77.499s5.16699 -53 15.5 -77
s24.5 -45 42.5 -63s39.167 -32.333 63.5 -43s50.166 -16 77.499 -16s53.166 5.33301 77.499 16s45.5 25 63.5 43s32.167 39 42.5 63s15.5 49.667 15.5 77zM342 189c0.666992 -14 -1.66797 -27.168 -7.00098 -39.501s-12.666 -23.166 -21.999 -32.499
s-20.5 -16.666 -33.5 -21.999s-26.5 -8 -40.5 -8s-27.167 2.66699 -39.5 8s-22.833 12.666 -31.5 21.999s-15.5 20.166 -20.5 32.499s-7.5 25.5 -7.5 39.5c0 27.333 8.5 50.833 25.5 70.5s39.167 30.5 66.5 32.5c-4 -9.33301 -6 -19.333 -6 -30
c0 -21.333 7.83301 -39.666 23.5 -54.999s34.167 -23 55.5 -23c12.667 0 25 3.33301 37 10v-5z" />
    <glyph glyph-name="p" unicode="p" horiz-adv-x="528" 
d="M488 190c0 26.667 -4.33301 52 -13 76s-21 45 -37 63s-35.333 32.333 -58 43s-48 16 -76 16c-24 0 -46.333 -4.33301 -67 -13s-38.334 -22.667 -53.001 -42v47h-114v-604h114v270c14.667 -19.333 32.334 -33.333 53.001 -42s43 -13 67 -13c28 0 53.333 5.33301 76 16
s42 25 58 43s28.333 39 37 63s13 49.667 13 77zM375 190c0 -14 -2.5 -27.1611 -7.5 -39.4941s-11.833 -23.333 -20.5 -33s-19 -17.334 -31 -23.001s-25 -8.5 -39 -8.5c-18.667 0 -35.667 5 -51 15s-27 23 -35 39c-0.666992 1.33301 -2 4.16602 -4 8.49902
s-3 7.16602 -3 8.49902v66c0 1.33301 1 4.16602 3 8.49902s3.33301 7.16602 4 8.49902c8 16 19.667 29 35 39s32.333 15 51 15c14 0 27 -2.83301 39 -8.5s22.333 -13.334 31 -23.001s15.5 -20.667 20.5 -33s7.5 -25.5 7.5 -39.5z" />
    <glyph glyph-name="q" unicode="q" horiz-adv-x="529" 
d="M540 -208l0.000976562 92.001c-12.667 -10.667 -26.667 -16 -42 -16c-11.333 0 -20.833 3.16699 -28.5 9.5s-11.5 15.166 -11.5 26.499v476h-114v-47c-15.333 19.333 -33.166 33.333 -53.499 42s-42.5 13 -66.5 13c-28 0 -53.333 -5.33301 -76 -16s-42 -25 -58 -43
s-28.333 -39 -37 -63s-13 -49.333 -13 -76c0 -27.333 4.33301 -53 13 -77s21 -45 37 -63s35.333 -32.333 58 -43s48 -16 76 -16c24 0 46.167 4.33301 66.5 13s38.166 22.667 53.499 42v-158c0 -15.333 2.5 -30.333 7.5 -45s12.333 -27.667 22 -39s21.167 -20.5 34.5 -27.5
s28.333 -10.5 45 -10.5c15.333 0 30.666 2 45.999 6s29 10.667 41 20zM344.001 157.001c0 -1.33301 -1 -4.17188 -3 -8.50488s-3.33301 -7.16602 -4 -8.49902c-8 -16 -19.667 -29 -35 -39s-32.333 -15 -51 -15c-14 0 -27 2.83301 -39 8.5s-22.333 13.334 -31 23.001
s-15.5 20.667 -20.5 33s-7.5 25.5 -7.5 39.5s2.5 27.167 7.5 39.5s11.833 23.333 20.5 33s19 17.334 31 23.001s25 8.5 39 8.5c18.667 0 35.667 -5 51 -15s27 -23 35 -39c0.666992 -1.33301 2 -4.16602 4 -8.49902s3 -7.16602 3 -8.49902v-66z" />
    <glyph glyph-name="r" unicode="r" horiz-adv-x="361" 
d="M361 310c0 21.333 -7.66699 39.666 -23 54.999s-34 23 -56 23c-20.667 0 -39.5 -6.16699 -56.5 -18.5s-30.833 -27.166 -41.5 -44.499v55h-114v-380h114v196c0 1.33301 0.5 4 1.5 8s1.83301 6.66699 2.5 8c3.33301 9.33301 7.5 18.333 12.5 27s12.167 15.667 21.5 21
c16 -19.333 36 -29 60 -29c22 0 40.667 7.83301 56 23.5s23 34.167 23 55.5z" />
    <glyph glyph-name="s" unicode="s" horiz-adv-x="282" 
d="M242 111c0 18 -3.33203 34.499 -9.99902 49.499s-13.834 28.833 -21.501 41.5l-21.5 34.5c-6.66699 10.333 -10 19.833 -10 28.5c0 12 3 21.667 9 29s14 13.666 24 18.999l-64 78c-54.667 -25.333 -82 -67.333 -82 -126c0 -14 3.33301 -27.333 10 -40
s13.834 -25 21.501 -37l21.5 -34c6.66699 -10.667 10 -21 10 -31c0 -10.667 -3.33301 -19 -10 -25s-15.334 -9 -26.001 -9c-8.66699 0 -18.167 3 -28.5 9s-18.5 12 -24.5 18v-106c12.667 -7.33301 27 -12.333 43 -15s31.333 -4 46 -4c16.667 0 32 3.16699 46 9.5
s26 14.833 36 25.5s17.667 23.334 23 38.001s8 30.334 8 47.001z" />
    <glyph glyph-name="t" unicode="t" horiz-adv-x="360" 
d="M330 16l-0.000976562 92c-7.33301 -4.66699 -15.333 -8.66699 -24 -12s-17.667 -5 -27 -5c-16.667 0 -28.5 5.83301 -35.5 17.5s-10.5 25.167 -10.5 40.5v124h97v107h-97v179h-114v-179h-99v-107h99v-140c0 -43.333 11.167 -77.833 33.5 -103.5s55.833 -38.5 100.5 -38.5
c14.667 0 28.334 1.83301 41.001 5.5s24.667 10.167 36 19.5z" />
    <glyph glyph-name="u" unicode="u" horiz-adv-x="497" 
d="M497 16l0.00195312 92.002c-12.667 -10.667 -26.667 -16 -42 -16c-10.667 0 -20 3.16699 -28 9.5s-12 15.166 -12 26.499v252h-114v-224c0 -1.33301 -0.666992 -4.5 -2 -9.5s-2.33301 -8.16699 -3 -9.5c-5.33301 -14.667 -13 -26.834 -23 -36.501
s-23.333 -14.5 -40 -14.5s-29 5.5 -37 16.5s-12 24.167 -12 39.5v238h-114v-250c0 -18.667 3.33301 -36.5 10 -53.5s15.834 -31.833 27.501 -44.5s25.667 -22.834 42 -30.501s34.166 -11.5 53.499 -11.5c23.333 0 45.166 5.66699 65.499 17s35.166 28 44.499 50
c9.33301 -19.333 22.5 -35.166 39.5 -47.499s36.5 -18.5 58.5 -18.5c14.667 0 29.667 1.83301 45 5.5s29 10.167 41 19.5z" />
    <glyph glyph-name="v" unicode="v" horiz-adv-x="479" 
d="M419 148l-0.000976562 150.998c0 24.667 -8.66699 45.667 -26 63s-38.333 26 -63 26c-25.333 0 -46.666 -8.66699 -63.999 -26s-26 -38.333 -26 -63c0 -23.333 7.83301 -43.666 23.5 -60.999s35.167 -26.666 58.5 -27.999v-48c0 -21.333 -6 -39.333 -18 -54
s-29 -22 -51 -22s-39 7.33301 -51 22s-18 32.667 -18 54v218h-114v-232c0 -26 4.5 -48.833 13.5 -68.5s21.333 -36.167 37 -49.5s34.167 -23.333 55.5 -30s44.333 -10 69 -10c24 0 46.667 3.33301 68 10s39.833 16.667 55.5 30s28 29.833 37 49.5s13.5 42.5 13.5 68.5z" />
    <glyph glyph-name="w" unicode="w" horiz-adv-x="715" 
d="M655 148l-0.00292969 150.997c0 24.667 -8.66699 45.667 -26 63s-38.666 26 -63.999 26c-24.667 0 -45.667 -8.66699 -63 -26s-26 -38.333 -26 -63c0 -23.333 7.83301 -43.666 23.5 -60.999s35.167 -26.666 58.5 -27.999v-50c0 -21.333 -6 -39 -18 -53s-29 -21 -51 -21
s-39.167 7 -51.5 21s-18.5 31.667 -18.5 53v220h-113v-223c0 -19.333 -4.83301 -36 -14.5 -50s-25.167 -21 -46.5 -21s-36.833 7 -46.5 21s-14.5 30.667 -14.5 50v223h-114v-232c0 -26 4.5 -48.833 13.5 -68.5s21.333 -36.167 37 -49.5s34.167 -23.333 55.5 -30
s44.333 -10 69 -10c22.667 0 45.167 5.33301 67.5 16s39.166 26.334 50.499 47.001c5.33301 -10 12.333 -18.833 21 -26.5s18.334 -14.167 29.001 -19.5s21.834 -9.5 33.501 -12.5s22.834 -4.5 33.501 -4.5c24.667 0 47.667 3.33301 69 10s39.833 16.667 55.5 30
s28 29.833 37 49.5s13.5 42.5 13.5 68.5z" />
    <glyph glyph-name="x" unicode="x" horiz-adv-x="482" 
d="M442 314l-75.002 75.998l-125 -125c-10.667 14 -22.167 28.167 -34.5 42.5s-25.666 27.5 -39.999 39.5s-29.833 21.667 -46.5 29s-34.334 11 -53.001 11c-9.33301 0 -18.333 -1 -27 -3v-109c12.667 2 25 0.333008 37 -5s23.5 -12.5 34.5 -21.5s21.167 -18.833 30.5 -29.5
l25 -29l-128 -127l75 -76l120 120c12 -14 24.833 -28 38.5 -42s28.334 -26.5 44.001 -37.5s32.334 -20 50.001 -27s36.5 -10.5 56.5 -10.5h7c2.66699 0 5.66699 0.333008 9 1v109c-14 -1.33301 -27.167 0.333984 -39.5 5.00098s-24 10.834 -35 18.501s-21.333 16.5 -31 26.5
s-18.5 20 -26.5 30z" />
    <glyph glyph-name="y" unicode="y" horiz-adv-x="485" 
d="M415 -72l0.000976562 451.999h-114v-224c0 -1.33301 -0.833008 -5.16602 -2.5 -11.499s-3.16699 -10.166 -4.5 -11.499c-5.33301 -14 -13 -25.333 -23 -34s-22.667 -13 -38 -13c-16.667 0 -29 5.5 -37 16.5s-12 24.167 -12 39.5v238h-114v-250
c0 -18.667 3.33301 -36.5 10 -53.5s15.834 -31.833 27.501 -44.5s25.667 -22.834 42 -30.501s34.166 -11.5 53.499 -11.5s37.666 3.83301 54.999 11.5s31.666 19.167 42.999 34.5v-108c0 -17.333 -6.5 -32.5 -19.5 -45.5s-28.167 -19.5 -45.5 -19.5l43 -95
c20.667 0 39.334 4.83301 56.001 14.5s31 22.167 43 37.5s21.167 32.5 27.5 51.5s9.5 37.833 9.5 56.5z" />
    <glyph glyph-name="z" unicode="z" horiz-adv-x="439" 
d="M399 293l-34.999 86.999h-324v-107h195l-194 -187l75 -75c10 12 22.167 21.667 36.5 29s29.166 11 44.499 11c12.667 0 24.667 -2.5 36 -7.5s21.166 -11.667 29.499 -20s15 -18.166 20 -29.499s7.5 -23.333 7.5 -36s-2.5 -24.667 -7.5 -36s-11.667 -21.166 -20 -29.499
s-18.166 -15 -29.499 -20s-23.333 -7.5 -36 -7.5l43 -97c22.667 0.666992 43.667 6.83398 63 18.501s36 26.667 50 45s25 38.666 33 60.999s12 44.166 12 65.499c0 22.667 -3.83301 44.5 -11.5 65.5s-18.5 39.333 -32.5 55s-30.667 28.167 -50 37.5s-41 14 -65 14h-4z" />
    <glyph glyph-name="braceleft" unicode="{" horiz-adv-x="301" 
d="M281 -172c-12.667 11.333 -23.167 21.6748 -31.5 31.0078s-15 19.166 -20 29.499s-8.66699 21.666 -11 33.999s-3.5 27.166 -3.5 44.499v171c0 9.33301 -1.5 19.833 -4.5 31.5s-7.33301 22.834 -13 33.501s-12.5 20 -20.5 28s-17 13.667 -27 17
c10 2.66699 19 8.16699 27 16.5s14.833 17.666 20.5 27.999s10 21.333 13 33s4.5 22.5 4.5 32.5v171c0 17.333 1.16699 32.166 3.5 44.499s6 23.666 11 33.999s11.667 20.166 20 29.499s18.833 19.666 31.5 30.999l-68 57c-30 -23.333 -52.667 -52.5 -68 -87.5
s-23 -71.167 -23 -108.5v-171c0 -14.667 -3 -26.667 -9 -36s-14 -16.833 -24 -22.5s-21 -9.66699 -33 -12s-24 -3.5 -36 -3.5v-72c12 0 24 -1.16699 36 -3.5s23 -6.33301 33 -12s18 -13.334 24 -23.001s9 -21.5 9 -35.5v-171c0 -37.333 7.66699 -73.5 23 -108.5
s38 -64.167 68 -87.5z" />
    <glyph glyph-name="bar" unicode="|" horiz-adv-x="232" 
d="M162 -215v925h-92v-925h92z" />
    <glyph glyph-name="braceright" unicode="}" horiz-adv-x="301" 
d="M281 212v71.9912c-12 0 -24 1.16699 -36 3.5s-23 6.33301 -33 12s-18 13.167 -24 22.5s-9 21.333 -9 36v171c0 37.333 -7.66699 73.5 -23 108.5s-37.666 64.167 -66.999 87.5l-69 -57c12.667 -11.333 23.167 -21.666 31.5 -30.999s15 -19.166 20 -29.499
s8.66699 -21.666 11 -33.999s3.5 -27.166 3.5 -44.499v-171c0 -10 1.5 -20.833 4.5 -32.5s7.33301 -22.667 13 -33s12.5 -19.666 20.5 -27.999s17 -13.833 27 -16.5c-10 -3.33301 -19 -9 -27 -17s-14.833 -17.333 -20.5 -28s-10 -21.834 -13 -33.501
s-4.5 -22.167 -4.5 -31.5v-171c0 -17.333 -1.16699 -32.166 -3.5 -44.499s-6 -23.666 -11 -33.999s-11.667 -20.166 -20 -29.499s-18.833 -19.666 -31.5 -30.999l69 -57c29.333 23.333 51.666 52.5 66.999 87.5s23 71.167 23 108.5v171c0 14 3 25.833 9 35.5
s14 17.334 24 23.001s21 9.66699 33 12s24 3.5 36 3.5z" />
    <glyph glyph-name="asciitilde" unicode="~" horiz-adv-x="457" 
d="M427 204l-0.00195312 115.996c-14 -14 -29.167 -25.667 -45.5 -35s-34.5 -14 -54.5 -14c-16 0 -31.667 2.83301 -47 8.5s-30.666 11.834 -45.999 18.501s-30.666 12.834 -45.999 18.501s-31.333 8.5 -48 8.5c-22 0 -42 -5.16699 -60 -15.5s-34.667 -23.166 -50 -38.499
v-120c14.667 14.667 31 27 49 37s37.667 15 59 15c16 0 31.667 -2.66699 47 -8s30.333 -11 45 -17s29.667 -11.667 45 -17s31 -8 47 -8c21.333 0 40.5 4.83301 57.5 14.5s32.833 21.834 47.5 36.501z" />
    <glyph glyph-name="exclamdown" unicode="&#xa1;" horiz-adv-x="277" 
d="M217 386c0 21.333 -7.66699 39.833 -23 55.5s-33.666 23.5 -54.999 23.5c-22 0 -40.667 -7.83301 -56 -23.5s-23 -34.167 -23 -55.5s7.66699 -39.833 23 -55.5s34 -23.5 56 -23.5c21.333 0 39.666 7.83301 54.999 23.5s23 34.167 23 55.5zM209 -255l-16.999 332.002
c-1.33301 27.333 -2.83301 54.5 -4.5 81.5s-3.16699 54.5 -4.5 82.5h-89c-0.666992 -26.667 -1.83398 -53.334 -3.50098 -80.001s-3.16699 -53.334 -4.5 -80.001l-18 -336h141z" />
    <glyph glyph-name="cent" unicode="&#xa2;" horiz-adv-x="412" 
d="M372 366c0 32 -9.99902 56.501 -29.999 73.501s-45 28.167 -75 33.5v61h-83v-65c-21.333 -5.33301 -40.833 -14.333 -58.5 -27s-32.834 -27.5 -45.501 -44.5s-22.5 -35.667 -29.5 -56s-10.5 -41.5 -10.5 -63.5c0 -47.333 12.5 -88 37.5 -122s60.5 -57.667 106.5 -71v-85
h83v76c15.333 1.33301 31.333 3.66602 48 6.99902s32 8.33301 46 15v115c-14 -12.667 -31 -21.5 -51 -26.5s-39 -7.5 -57 -7.5c-14.667 0 -28.667 2.16699 -42 6.5s-25 10.833 -35 19.5s-17.833 19 -23.5 31s-8.5 26 -8.5 42c0 25.333 6.66699 47.333 20 66s34 28 62 28
c-1.33301 -3.33301 -2 -6.33301 -2 -9v-9c0 -8.66699 2.16699 -17 6.5 -25s10 -15 17 -21s14.667 -10.833 23 -14.5s16.833 -5.5 25.5 -5.5c22.667 0 41 7.5 55 22.5s21 33.5 21 55.5z" />
    <glyph glyph-name="sterling" unicode="&#xa3;" horiz-adv-x="525" 
d="M505 65l-49.999 85.001c-10.667 -9.33301 -20.834 -16.833 -30.501 -22.5s-19.667 -10 -30 -13s-21.166 -5.16699 -32.499 -6.5s-24 -2 -38 -2h-143c16 9.33301 28 22.333 36 39s12 34 12 52h87v93h-87v85c0 17.333 6.33301 32.5 19 45.5s27.667 19.5 45 19.5
c18 0 32.833 -5.5 44.5 -16.5s17.5 -25.5 17.5 -43.5c0 -11.333 -3.33301 -22.333 -10 -33s-15 -18.667 -25 -24l77 -72c9.33301 6 18.333 13.833 27 23.5s16.167 20.5 22.5 32.5s11.5 24.333 15.5 37s6 24.667 6 36c0 24.667 -4.5 47 -13.5 67s-21.333 37.333 -37 52
s-34.167 26 -55.5 34s-44 12 -68 12c-24.667 0 -47.834 -4.16699 -69.501 -12.5s-40.667 -20 -57 -35s-29.166 -33 -38.499 -54s-14 -44.167 -14 -69.5v-84h-75v-93h75c0 -25.333 -5.33301 -46.666 -16 -63.999s-30.334 -26 -59.001 -26v-106h290c18 0 35 0.666992 51 2
s31 4.16602 45 8.49902s27.5 10.666 40.5 18.999s25.833 19.833 38.5 34.5z" />
    <glyph glyph-name="currency" unicode="&#xa4;" horiz-adv-x="578" 
d="M548 472c-22.667 27.333 -49.5 46.334 -80.5 57.001s-63.833 16 -98.5 16c-29.333 0 -57.333 -4.5 -84 -13.5s-51.334 -21.5 -74.001 -37.5s-42.5 -35.333 -59.5 -58s-30.5 -47.667 -40.5 -75h-81v-75h65c-0.666992 -3.33301 -1 -7 -1 -11v-10v-14
c0 -4 0.333008 -8 1 -12h-65v-76h80c10 -29.333 24.333 -55 43 -77s40 -40.333 64 -55s50.167 -25.667 78.5 -33s57.5 -11 87.5 -11c54.667 0 104.667 14.667 150 44v129c-17.333 -20.667 -39.833 -36.834 -67.5 -48.501s-55.167 -17.5 -82.5 -17.5
c-28.667 0 -56 5.5 -82 16.5s-47.333 28.5 -64 52.5h104v76h-132c-0.666992 4 -1.16699 8.16699 -1.5 12.5s-0.5 8.83301 -0.5 13.5v10c0 4 0.333008 7.66699 1 11h133v75h-108c14 23.333 32.667 41.833 56 55.5s49 20.5 77 20.5c25.333 0 48.833 -3.83301 70.5 -11.5
s39.834 -22.5 54.501 -44.5z" />
    <glyph glyph-name="yen" unicode="&#xa5;" horiz-adv-x="517" 
d="M497 462l-81.9971 84.001c-16 -13.333 -32 -27.5 -48 -42.5s-31 -30.833 -45 -47.5s-26.5 -34.167 -37.5 -52.5s-19.5 -37.833 -25.5 -58.5c-5.33301 21.333 -13.333 41.333 -24 60s-23.334 36.167 -38.001 52.5s-30.167 31.833 -46.5 46.5l-48.5 42l-82 -84
c16 -7.33301 32.167 -17.333 48.5 -30s31.666 -26.667 45.999 -42s27.5 -31.5 39.5 -48.5s21.667 -33.5 29 -49.5h-128v-75h147v-3v-44h-147v-76h147v-94h113v94h147v76h-147c0 7.33301 -0.166992 15.166 -0.5 23.499s0.166992 16.166 1.5 23.499h146v75h-128
c8 16.667 17.833 33.334 29.5 50.001s24.667 32.5 39 47.5s29.666 28.833 45.999 41.5s32.5 23 48.5 31z" />
    <glyph glyph-name="brokenbar" unicode="&#xa6;" horiz-adv-x="232" 
d="M162 287v423h-92v-423h92zM162 -215v427h-92v-427h92z" />
    <glyph glyph-name="section" unicode="&#xa7;" horiz-adv-x="292" 
d="M252 263c0 18 -3.33496 34.1738 -10.002 48.5068s-13.834 27.333 -21.501 39l-21.5 32c-6.66699 9.66699 -10 19.167 -10 28.5c0 11.333 3 20.833 9 28.5s14 14.167 24 19.5l-68 77c-54.667 -25.333 -82 -67 -82 -125c0 -10.667 1.83301 -20.834 5.5 -30.501
s8.16699 -18.834 13.5 -27.501c-17.333 -11.333 -30.166 -23.833 -38.499 -37.5s-12.5 -30.834 -12.5 -51.501c0 -18 3.33301 -34.167 10 -48.5s13.834 -27.5 21.501 -39.5l21.5 -32.5c6.66699 -9.66699 10 -18.834 10 -27.501c0 -11.333 -3 -20.833 -9 -28.5
s-14 -14.167 -24 -19.5l68 -77c54.667 25.333 82 67 82 125c0 10.667 -1.83301 20.667 -5.5 30s-8.16699 18.666 -13.5 27.999c16.667 11.333 29.334 23.666 38.001 36.999s13 30.666 13 51.999zM178.998 265.007c0 -9.33301 -3 -17.166 -9 -23.499s-13.667 -9.5 -23 -9.5
s-17.166 3.16699 -23.499 9.5s-9.5 14.166 -9.5 23.499s3.16699 17.166 9.5 23.499s14.166 9.5 23.499 9.5s17 -3.16699 23 -9.5s9 -14.166 9 -23.499z" />
    <glyph glyph-name="dieresis" unicode="&#xa8;" horiz-adv-x="333" 
d="M313 512c0 16.667 -5.83301 30.834 -17.5 42.501s-25.834 17.5 -42.501 17.5s-30.667 -5.83301 -42 -17.5s-17 -25.834 -17 -42.501s5.66699 -30.834 17 -42.501s25.333 -17.5 42 -17.5s30.834 5.83301 42.501 17.5s17.5 25.834 17.5 42.501zM140 512
c0 16.667 -5.83301 30.834 -17.5 42.501s-25.834 17.5 -42.501 17.5s-30.834 -5.83301 -42.501 -17.5s-17.5 -25.834 -17.5 -42.501s5.83301 -30.834 17.5 -42.501s25.834 -17.5 42.501 -17.5s30.834 5.83301 42.501 17.5s17.5 25.834 17.5 42.501z" />
    <glyph glyph-name="copyright" unicode="&#xa9;" horiz-adv-x="634" 
d="M594 268c0 38 -7.33301 73.833 -22 107.5s-34.5 63 -59.5 88s-54.333 44.833 -88 59.5s-69.5 22 -107.5 22s-73.833 -7.33301 -107.5 -22s-63 -34.5 -88 -59.5s-44.833 -54.333 -59.5 -88s-22 -69.5 -22 -107.5s7.33301 -73.833 22 -107.5s34.5 -63 59.5 -88
s54.333 -44.833 88 -59.5s69.5 -22 107.5 -22s73.833 7.33301 107.5 22s63 34.5 88 59.5s44.833 54.333 59.5 88s22 69.5 22 107.5zM554 268c0 -32.667 -6.16699 -63.334 -18.5 -92.001s-29.333 -53.834 -51 -75.501s-46.834 -38.667 -75.501 -51
s-59.334 -18.5 -92.001 -18.5s-63.334 6.16699 -92.001 18.5s-53.834 29.333 -75.501 51s-38.667 46.834 -51 75.501s-18.5 59.334 -18.5 92.001s6.16699 63.334 18.5 92.001s29.333 53.834 51 75.501s46.834 38.667 75.501 51s59.334 18.5 92.001 18.5
s63.334 -6.16699 92.001 -18.5s53.834 -29.333 75.501 -51s38.667 -46.834 51 -75.501s18.5 -59.334 18.5 -92.001zM450 147l-59 59c-16.667 -16.667 -37.334 -25 -62.001 -25c-24 0 -44.5 8.5 -61.5 25.5s-25.5 37.5 -25.5 61.5s8.5 44.667 25.5 62s37.5 26 61.5 26
c11.333 0 22.333 -2.33301 33 -7s20.334 -11 29.001 -19l59 59c-16 16 -34.5 28.333 -55.5 37s-42.833 13 -65.5 13c-23.333 0 -45.5 -4.5 -66.5 -13.5s-39.167 -21.167 -54.5 -36.5s-27.5 -33.333 -36.5 -54s-13.5 -43 -13.5 -67c0 -23.333 4.5 -45.5 13.5 -66.5
s21.167 -39.167 36.5 -54.5s33.5 -27.5 54.5 -36.5s43.167 -13.5 66.5 -13.5c22.667 0 44.5 4.33301 65.5 13s39.5 21 55.5 37z" />
    <glyph glyph-name="ordfeminine" unicode="&#xaa;" horiz-adv-x="447" 
d="M447 244v90c-10 -8.66699 -20.667 -13 -32 -13c-8.66699 0 -16 2.33301 -22 7s-9 11.667 -9 21v176h-107v-36c-11.333 14.667 -25 25.5 -41 32.5s-33.333 10.5 -52 10.5c-22 0 -41.833 -4.16699 -59.5 -12.5s-32.834 -19.5 -45.501 -33.5s-22.334 -30.5 -29.001 -49.5
s-10 -38.833 -10 -59.5c0 -21.333 3.33301 -41.333 10 -60s16.334 -35 29.001 -49s27.834 -25.167 45.501 -33.5s37.5 -12.5 59.5 -12.5s42 4.83301 60 14.5s32.667 24.167 44 43.5c8.66699 -16 21.5 -29.333 38.5 -40s34.833 -16 53.5 -16c11.333 0 23 1.5 35 4.5
s22.667 8.16699 32 15.5zM447 118v62h-380v-62h380zM277 354c0 -1.33301 -0.666992 -3.33301 -2 -6l-3 -6c-5.33301 -10.667 -13.166 -19.334 -23.499 -26.001s-21.833 -10 -34.5 -10c-19.333 0 -35.333 7 -48 21s-19 30.667 -19 50s6.33301 36 19 50s28.667 21 48 21
c12.667 0 24.167 -3.16699 34.5 -9.5s18.166 -15.166 23.499 -26.499c0.666992 -0.666992 1.66699 -2.5 3 -5.5s2 -5.16699 2 -6.5v-46z" />
    <glyph glyph-name="guillemotleft" unicode="&#xab;" horiz-adv-x="356" 
d="M326 91l-67 98l67 97l-59 42l-95 -139l95 -140zM183 91l-66 98l66 97l-58 42l-95 -139l95 -140z" />
    <glyph glyph-name="registered" unicode="&#xae;" horiz-adv-x="634" 
d="M594 268c0 38 -7.33301 73.833 -22 107.5s-34.5 63 -59.5 88s-54.333 44.833 -88 59.5s-69.5 22 -107.5 22s-73.833 -7.33301 -107.5 -22s-63 -34.5 -88 -59.5s-44.833 -54.333 -59.5 -88s-22 -69.5 -22 -107.5s7.33301 -73.833 22 -107.5s34.5 -63 59.5 -88
s54.333 -44.833 88 -59.5s69.5 -22 107.5 -22s73.833 7.33301 107.5 22s63 34.5 88 59.5s44.833 54.333 59.5 88s22 69.5 22 107.5zM554 268c0 -32.667 -6.16699 -63.334 -18.5 -92.001s-29.333 -53.834 -51 -75.501s-46.834 -38.667 -75.501 -51
s-59.334 -18.5 -92.001 -18.5s-63.334 6.16699 -92.001 18.5s-53.834 29.333 -75.501 51s-38.667 46.834 -51 75.501s-18.5 59.334 -18.5 92.001s6.16699 63.334 18.5 92.001s29.333 53.834 51 75.501s46.834 38.667 75.501 51s59.334 18.5 92.001 18.5
s63.334 -6.16699 92.001 -18.5s53.834 -29.333 75.501 -51s38.667 -46.834 51 -75.501s18.5 -59.334 18.5 -92.001zM463 315c0 14.667 -2.83398 28.668 -8.50098 42.001s-13.5 25 -23.5 35s-21.667 17.833 -35 23.5s-27.333 8.5 -42 8.5h-161v-312h86v94h37l46 -95h94
l-53 107c18.667 9.33301 33.334 22.666 44.001 39.999s16 36.333 16 57zM377.999 315.001c0 -11.333 -3.83301 -20.833 -11.5 -28.5s-17.167 -11.5 -28.5 -11.5h-59v81h59c11.333 0 20.833 -4 28.5 -12s11.5 -17.667 11.5 -29z" />
    <glyph glyph-name="macron" unicode="&#xaf;" horiz-adv-x="337" 
d="M317 491v90h-297v-90h297z" />
    <glyph glyph-name="degree" unicode="&#xb0;" horiz-adv-x="270" 
d="M240 432c0 14.667 -2.83301 28.334 -8.5 41.001s-13.167 23.667 -22.5 33s-20.333 16.833 -33 22.5s-26.334 8.5 -41.001 8.5s-28.334 -2.83301 -41.001 -8.5s-23.834 -13.167 -33.501 -22.5s-17.167 -20.333 -22.5 -33s-8 -26.334 -8 -41.001s2.66699 -28.334 8 -41.001
s12.833 -23.834 22.5 -33.501s20.834 -17.167 33.501 -22.5s26.334 -8 41.001 -8s28.334 2.66699 41.001 8s23.667 12.833 33 22.5s16.833 20.834 22.5 33.501s8.5 26.334 8.5 41.001zM189 432c0 -15.333 -5.33301 -28.166 -16 -38.499s-23.334 -15.5 -38.001 -15.5
c-15.333 0 -28.166 5.16699 -38.499 15.5s-15.5 23.166 -15.5 38.499s5.16699 28.166 15.5 38.499s23.166 15.5 38.499 15.5c14.667 0 27.334 -5.16699 38.001 -15.5s16 -23.166 16 -38.499z" />
    <glyph glyph-name="acute" unicode="&#xb4;" horiz-adv-x="264" 
d="M244 584l-63 64l-161 -161l63 -63z" />
    <glyph glyph-name="paragraph" unicode="&#xb6;" horiz-adv-x="421" 
d="M351 -150v859.999h-151c-25.333 0 -48.833 -4.66699 -70.5 -14s-40.667 -22.166 -57 -38.499s-29.166 -35.333 -38.499 -57s-14 -44.834 -14 -69.501s4.66699 -48 14 -70s22.166 -41.167 38.499 -57.5s35.333 -29.166 57 -38.499s45.167 -14 70.5 -14v-501h38v814h75
v-814h38z" />
    <glyph glyph-name="periodcentered" unicode="&#xb7;" horiz-adv-x="275" 
d="M216 244c0 21.333 -7.66699 39.833 -23 55.5s-33.666 23.5 -54.999 23.5c-22 0 -40.667 -7.83301 -56 -23.5s-23 -34.167 -23 -55.5s7.66699 -39.833 23 -55.5s34 -23.5 56 -23.5c21.333 0 39.666 7.83301 54.999 23.5s23 34.167 23 55.5z" />
    <glyph glyph-name="cedilla" unicode="&#xb8;" horiz-adv-x="214" 
d="M194 -135c0 25.333 -8.50098 47.001 -25.501 65.001s-38.167 28 -63.5 30l17 40h-65l-37 -81l33 -40c5.33301 4.66699 12 7 20 7c8.66699 0 16.167 -3 22.5 -9s9.5 -13.333 9.5 -22c0 -8 -2.5 -15 -7.5 -21s-11.167 -9.66699 -18.5 -11l1 -51
c3.33301 -1.33301 6.33301 -2 9 -2h9c13.333 0 25.833 2.5 37.5 7.5s21.834 11.833 30.501 20.5s15.5 18.667 20.5 30s7.5 23.666 7.5 36.999z" />
    <glyph glyph-name="ordmasculine" unicode="&#xba;" horiz-adv-x="391" 
d="M351 377c0 21.333 -4 41.5 -12 60.5s-19 35.5 -33 49.5s-30.5 25 -49.5 33s-39.167 12 -60.5 12s-41.5 -4 -60.5 -12s-35.5 -19 -49.5 -33s-25.167 -30.5 -33.5 -49.5s-12.5 -39.167 -12.5 -60.5s4.16699 -41.5 12.5 -60.5s19.5 -35.5 33.5 -49.5
s30.5 -25.167 49.5 -33.5s39.167 -12.5 60.5 -12.5s41.5 4.16699 60.5 12.5s35.5 19.5 49.5 33.5s25 30.5 33 49.5s12 39.167 12 60.5zM344 118v62h-291v-62h291zM263 375c-0.666992 -18.667 -7.5 -34.332 -20.5 -46.999s-28.5 -19 -46.5 -19
c-19.333 0 -35.5 6.5 -48.5 19.5s-19.5 29.167 -19.5 48.5c0 17.333 5.5 32.166 16.5 44.499s25.167 19.833 42.5 22.5c-3.33301 -19.333 1 -36 13 -50s27.667 -21 47 -21c4 0 9.33301 0.666992 16 2z" />
    <glyph glyph-name="guillemotright" unicode="&#xbb;" horiz-adv-x="356" 
d="M326 189l-95 139l-59 -42l67 -97l-67 -98l59 -42zM183 189l-94 139l-59 -42l66 -97l-66 -98l59 -42z" />
    <glyph glyph-name="questiondown" unicode="&#xbf;" horiz-adv-x="420" 
d="M276 386c0 21.333 -7.66699 39.666 -23 54.999s-33.666 23 -54.999 23s-39.833 -7.66699 -55.5 -23s-23.5 -33.666 -23.5 -54.999c0 -22 7.83301 -40.667 23.5 -56s34.167 -23 55.5 -23s39.666 7.66699 54.999 23s23 34 23 56zM400 -93
c0 22 -4.83691 43.165 -14.5039 63.498s-22.5 37.833 -38.5 52.5l-79 -71c12 -12 18 -25.667 18 -41c0 -23.333 -8.16699 -41.166 -24.5 -53.499s-35.166 -18.5 -56.499 -18.5c-19.333 0 -36 5.5 -50 16.5s-21 27.167 -21 48.5c0 10.667 4 20.334 12 29.001
s17.833 17.5 29.5 26.5l38 28.5c13.667 10 26.334 21.833 38.001 35.5s21.5 29.5 29.5 47.5s12 39 12 63c0 22 -5.16699 42.167 -15.5 60.5s-25.166 33.166 -44.499 44.499c-11.333 8 -23 12 -35 12l-55 -84c13.333 0 22.5 -4.83301 27.5 -14.5s7.5 -20.167 7.5 -31.5
c0 -13.333 -3.83301 -25.166 -11.5 -35.499s-17.5 -20.333 -29.5 -30l-38 -29.5c-13.333 -10 -26 -21 -38 -33s-21.833 -25.5 -29.5 -40.5s-11.5 -32.5 -11.5 -52.5c0 -27.333 4.83301 -51.333 14.5 -72s22.834 -38 39.501 -52s36.334 -24.5 59.001 -31.5
s46.667 -10.5 72 -10.5c24.667 0 48.667 4 72 12s44.166 19.5 62.499 34.5s33 33.167 44 54.5s16.5 45.333 16.5 72z" />
    <glyph glyph-name="Agrave" unicode="&#xc0;" horiz-adv-x="725" 
d="M534 827l-160 161l-64 -64l161 -160zM725 23v107.996c-7.33301 -8 -16.166 -14.5 -26.499 -19.5s-20.833 -7.5 -31.5 -7.5c-25.333 0 -38 12.667 -38 38v291c0 44.667 -7.83301 85 -23.5 121s-37.334 66.5 -65.001 91.5s-60.334 44.167 -98.001 57.5s-78.5 20 -122.5 20
c-27.333 0 -54.333 -3.16699 -81 -9.5s-51.834 -15.666 -75.501 -27.999s-45.334 -27.666 -65.001 -45.999s-36.167 -39.833 -49.5 -64.5c-9.33301 -16.667 -16.5 -34.167 -21.5 -52.5s-7.5 -36.833 -7.5 -55.5c0 -18 0.833008 -34.667 2.5 -50
s4.83398 -29.666 9.50098 -42.999s11 -26.5 19 -39.5s18.333 -26.167 31 -39.5l91 77c-13.333 14 -22.333 28.5 -27 43.5s-7 32.167 -7 51.5c0 22.667 5.83301 42.667 17.5 60s26.334 32 44.001 44s37.167 21 58.5 27s41.666 9 60.999 9c26 0 50.167 -4.5 72.5 -13.5
s41.833 -21.5 58.5 -37.5s29.667 -35 39 -57s14 -46 14 -72v-174h-155v76c0 24 4.33301 47.333 13 70s24.334 40.334 47.001 53.001l-77 96c-36.667 -26.667 -63.834 -58.667 -81.501 -96s-26.5 -78.333 -26.5 -123v-76h-89v-113h89v-140h125v140h155
c0 -22.667 2.16699 -43.167 6.5 -61.5s11.5 -34 21.5 -47s23.333 -23 40 -30s37.334 -10.5 62.001 -10.5c6.66699 0 14.334 0.5 23.001 1.5s17.5 2.83301 26.5 5.5s17.167 6 24.5 10s13 9 17 15z" />
    <glyph glyph-name="Aacute" unicode="&#xc1;" horiz-adv-x="725" 
d="M534 924l-63 64l-161 -161l63 -63zM725 23v107.996c-7.33301 -8 -16.166 -14.5 -26.499 -19.5s-20.833 -7.5 -31.5 -7.5c-25.333 0 -38 12.667 -38 38v291c0 44.667 -7.83301 85 -23.5 121s-37.334 66.5 -65.001 91.5s-60.334 44.167 -98.001 57.5s-78.5 20 -122.5 20
c-27.333 0 -54.333 -3.16699 -81 -9.5s-51.834 -15.666 -75.501 -27.999s-45.334 -27.666 -65.001 -45.999s-36.167 -39.833 -49.5 -64.5c-9.33301 -16.667 -16.5 -34.167 -21.5 -52.5s-7.5 -36.833 -7.5 -55.5c0 -18 0.833008 -34.667 2.5 -50
s4.83398 -29.666 9.50098 -42.999s11 -26.5 19 -39.5s18.333 -26.167 31 -39.5l91 77c-13.333 14 -22.333 28.5 -27 43.5s-7 32.167 -7 51.5c0 22.667 5.83301 42.667 17.5 60s26.334 32 44.001 44s37.167 21 58.5 27s41.666 9 60.999 9c26 0 50.167 -4.5 72.5 -13.5
s41.833 -21.5 58.5 -37.5s29.667 -35 39 -57s14 -46 14 -72v-174h-155v76c0 24 4.33301 47.333 13 70s24.334 40.334 47.001 53.001l-77 96c-36.667 -26.667 -63.834 -58.667 -81.501 -96s-26.5 -78.333 -26.5 -123v-76h-89v-113h89v-140h125v140h155
c0 -22.667 2.16699 -43.167 6.5 -61.5s11.5 -34 21.5 -47s23.333 -23 40 -30s37.334 -10.5 62.001 -10.5c6.66699 0 14.334 0.5 23.001 1.5s17.5 2.83301 26.5 5.5s17.167 6 24.5 10s13 9 17 15z" />
    <glyph glyph-name="Acircumflex" unicode="&#xc2;" horiz-adv-x="725" 
d="M552 827l-161 161l-161 -161l63 -63l98 97l97 -97zM725 23v107.996c-7.33301 -8 -16.166 -14.5 -26.499 -19.5s-20.833 -7.5 -31.5 -7.5c-25.333 0 -38 12.667 -38 38v291c0 44.667 -7.83301 85 -23.5 121s-37.334 66.5 -65.001 91.5s-60.334 44.167 -98.001 57.5
s-78.5 20 -122.5 20c-27.333 0 -54.333 -3.16699 -81 -9.5s-51.834 -15.666 -75.501 -27.999s-45.334 -27.666 -65.001 -45.999s-36.167 -39.833 -49.5 -64.5c-9.33301 -16.667 -16.5 -34.167 -21.5 -52.5s-7.5 -36.833 -7.5 -55.5c0 -18 0.833008 -34.667 2.5 -50
s4.83398 -29.666 9.50098 -42.999s11 -26.5 19 -39.5s18.333 -26.167 31 -39.5l91 77c-13.333 14 -22.333 28.5 -27 43.5s-7 32.167 -7 51.5c0 22.667 5.83301 42.667 17.5 60s26.334 32 44.001 44s37.167 21 58.5 27s41.666 9 60.999 9c26 0 50.167 -4.5 72.5 -13.5
s41.833 -21.5 58.5 -37.5s29.667 -35 39 -57s14 -46 14 -72v-174h-155v76c0 24 4.33301 47.333 13 70s24.334 40.334 47.001 53.001l-77 96c-36.667 -26.667 -63.834 -58.667 -81.501 -96s-26.5 -78.333 -26.5 -123v-76h-89v-113h89v-140h125v140h155
c0 -22.667 2.16699 -43.167 6.5 -61.5s11.5 -34 21.5 -47s23.333 -23 40 -30s37.334 -10.5 62.001 -10.5c6.66699 0 14.334 0.5 23.001 1.5s17.5 2.83301 26.5 5.5s17.167 6 24.5 10s13 9 17 15z" />
    <glyph glyph-name="Atilde" unicode="&#xc3;" horiz-adv-x="725" 
d="M542 807l-0.00195312 85.001c-10 -10 -21.167 -18.5 -33.5 -25.5s-25.833 -10.5 -40.5 -10.5c-12 0 -23.667 2 -35 6s-22.5 8.5 -33.5 13.5s-22.167 9.66699 -33.5 14s-23 6.5 -35 6.5c-16 0 -30.667 -3.83301 -44 -11.5s-25.666 -17.167 -36.999 -28.5v-88
c11.333 11.333 23.5 20.666 36.5 27.999s27.167 11 42.5 11c12 0 23.5 -2 34.5 -6l33 -12.5c11 -4.33301 22.167 -8.5 33.5 -12.5s23 -6 35 -6c15.333 0 29.333 3.5 42 10.5s24.334 15.833 35.001 26.5zM724.998 23.001v107.996c-7.33301 -8 -16.166 -14.5 -26.499 -19.5
s-20.833 -7.5 -31.5 -7.5c-25.333 0 -38 12.667 -38 38v291c0 44.667 -7.83301 85 -23.5 121s-37.334 66.5 -65.001 91.5s-60.334 44.167 -98.001 57.5s-78.5 20 -122.5 20c-27.333 0 -54.333 -3.16699 -81 -9.5s-51.834 -15.666 -75.501 -27.999
s-45.334 -27.666 -65.001 -45.999s-36.167 -39.833 -49.5 -64.5c-9.33301 -16.667 -16.5 -34.167 -21.5 -52.5s-7.5 -36.833 -7.5 -55.5c0 -18 0.833008 -34.667 2.5 -50s4.83398 -29.666 9.50098 -42.999s11 -26.5 19 -39.5s18.333 -26.167 31 -39.5l91 77
c-13.333 14 -22.333 28.5 -27 43.5s-7 32.167 -7 51.5c0 22.667 5.83301 42.667 17.5 60s26.334 32 44.001 44s37.167 21 58.5 27s41.666 9 60.999 9c26 0 50.167 -4.5 72.5 -13.5s41.833 -21.5 58.5 -37.5s29.667 -35 39 -57s14 -46 14 -72v-174h-155v76
c0 24 4.33301 47.333 13 70s24.334 40.334 47.001 53.001l-77 96c-36.667 -26.667 -63.834 -58.667 -81.501 -96s-26.5 -78.333 -26.5 -123v-76h-89v-113h89v-140h125v140h155c0 -22.667 2.16699 -43.167 6.5 -61.5s11.5 -34 21.5 -47s23.333 -23 40 -30
s37.334 -10.5 62.001 -10.5c6.66699 0 14.334 0.5 23.001 1.5s17.5 2.83301 26.5 5.5s17.167 6 24.5 10s13 9 17 15z" />
    <glyph glyph-name="Adieresis" unicode="&#xc4;" horiz-adv-x="725" 
d="M574 813c0 16.667 -5.83301 30.834 -17.5 42.501s-25.834 17.5 -42.501 17.5s-30.834 -5.83301 -42.501 -17.5s-17.5 -25.834 -17.5 -42.501s5.83301 -30.834 17.5 -42.501s25.834 -17.5 42.501 -17.5s30.834 5.83301 42.501 17.5s17.5 25.834 17.5 42.501zM400 813
c0 16.667 -5.66699 30.834 -17 42.501s-25.333 17.5 -42 17.5s-30.834 -5.83301 -42.501 -17.5s-17.5 -25.834 -17.5 -42.501s5.83301 -30.834 17.5 -42.501s25.834 -17.5 42.501 -17.5s30.667 5.83301 42 17.5s17 25.834 17 42.501zM725 23v107.996
c-7.33301 -8 -16.166 -14.5 -26.499 -19.5s-20.833 -7.5 -31.5 -7.5c-25.333 0 -38 12.667 -38 38v291c0 44.667 -7.83301 85 -23.5 121s-37.334 66.5 -65.001 91.5s-60.334 44.167 -98.001 57.5s-78.5 20 -122.5 20c-27.333 0 -54.333 -3.16699 -81 -9.5
s-51.834 -15.666 -75.501 -27.999s-45.334 -27.666 -65.001 -45.999s-36.167 -39.833 -49.5 -64.5c-9.33301 -16.667 -16.5 -34.167 -21.5 -52.5s-7.5 -36.833 -7.5 -55.5c0 -18 0.833008 -34.667 2.5 -50s4.83398 -29.666 9.50098 -42.999s11 -26.5 19 -39.5
s18.333 -26.167 31 -39.5l91 77c-13.333 14 -22.333 28.5 -27 43.5s-7 32.167 -7 51.5c0 22.667 5.83301 42.667 17.5 60s26.334 32 44.001 44s37.167 21 58.5 27s41.666 9 60.999 9c26 0 50.167 -4.5 72.5 -13.5s41.833 -21.5 58.5 -37.5s29.667 -35 39 -57s14 -46 14 -72
v-174h-155v76c0 24 4.33301 47.333 13 70s24.334 40.334 47.001 53.001l-77 96c-36.667 -26.667 -63.834 -58.667 -81.501 -96s-26.5 -78.333 -26.5 -123v-76h-89v-113h89v-140h125v140h155c0 -22.667 2.16699 -43.167 6.5 -61.5s11.5 -34 21.5 -47s23.333 -23 40 -30
s37.334 -10.5 62.001 -10.5c6.66699 0 14.334 0.5 23.001 1.5s17.5 2.83301 26.5 5.5s17.167 6 24.5 10s13 9 17 15z" />
    <glyph glyph-name="Aring" unicode="&#xc5;" horiz-adv-x="725" 
d="M520 842c0 14.667 -2.83301 28.334 -8.5 41.001s-13.167 23.667 -22.5 33s-20.333 16.833 -33 22.5s-26.334 8.5 -41.001 8.5s-28.334 -2.83301 -41.001 -8.5s-23.834 -13.167 -33.501 -22.5s-17.167 -20.333 -22.5 -33s-8 -26.334 -8 -41.001s2.66699 -28.334 8 -41.001
s12.833 -23.834 22.5 -33.501s20.834 -17.167 33.501 -22.5s26.334 -8 41.001 -8s28.334 2.66699 41.001 8s23.667 12.833 33 22.5s16.833 20.834 22.5 33.501s8.5 26.334 8.5 41.001zM725 23v107.996c-7.33301 -8 -16.166 -14.5 -26.499 -19.5s-20.833 -7.5 -31.5 -7.5
c-25.333 0 -38 12.667 -38 38v291c0 44.667 -7.83301 85 -23.5 121s-37.334 66.5 -65.001 91.5s-60.334 44.167 -98.001 57.5s-78.5 20 -122.5 20c-27.333 0 -54.333 -3.16699 -81 -9.5s-51.834 -15.666 -75.501 -27.999s-45.334 -27.666 -65.001 -45.999
s-36.167 -39.833 -49.5 -64.5c-9.33301 -16.667 -16.5 -34.167 -21.5 -52.5s-7.5 -36.833 -7.5 -55.5c0 -18 0.833008 -34.667 2.5 -50s4.83398 -29.666 9.50098 -42.999s11 -26.5 19 -39.5s18.333 -26.167 31 -39.5l91 77c-13.333 14 -22.333 28.5 -27 43.5
s-7 32.167 -7 51.5c0 22.667 5.83301 42.667 17.5 60s26.334 32 44.001 44s37.167 21 58.5 27s41.666 9 60.999 9c26 0 50.167 -4.5 72.5 -13.5s41.833 -21.5 58.5 -37.5s29.667 -35 39 -57s14 -46 14 -72v-174h-155v76c0 24 4.33301 47.333 13 70
s24.334 40.334 47.001 53.001l-77 96c-36.667 -26.667 -63.834 -58.667 -81.501 -96s-26.5 -78.333 -26.5 -123v-76h-89v-113h89v-140h125v140h155c0 -22.667 2.16699 -43.167 6.5 -61.5s11.5 -34 21.5 -47s23.333 -23 40 -30s37.334 -10.5 62.001 -10.5
c6.66699 0 14.334 0.5 23.001 1.5s17.5 2.83301 26.5 5.5s17.167 6 24.5 10s13 9 17 15zM469 841.996c0 -15.333 -5.33301 -28.166 -16 -38.499s-23.334 -15.5 -38.001 -15.5c-15.333 0 -28.166 5.16699 -38.499 15.5s-15.5 23.166 -15.5 38.499
c0 14.667 5.16699 27.334 15.5 38.001s23.166 16 38.499 16c14.667 0 27.334 -5.33301 38.001 -16s16 -23.334 16 -38.001z" />
    <glyph glyph-name="AE" unicode="&#xc6;" horiz-adv-x="1044" 
d="M1024 525c0 32 -8.33105 62.0029 -24.998 90.0029c-12 19.333 -26.333 35.666 -43 48.999s-35 24.333 -55 33s-41 14.834 -63 18.501s-43.667 5.5 -65 5.5c-41.333 0 -82.333 -5.83301 -123 -17.5s-76.667 -31.5 -108 -59.5c-30.667 28.667 -65 49 -103 61
s-77.667 18 -119 18c-27.333 0 -54.333 -3.16699 -81 -9.5s-51.834 -15.833 -75.501 -28.5s-45.334 -28.167 -65.001 -46.5s-36.167 -39.833 -49.5 -64.5c-9.33301 -16 -16.5 -33.167 -21.5 -51.5s-7.5 -36.833 -7.5 -55.5c0 -18 0.833008 -34.667 2.5 -50
s4.83398 -29.666 9.50098 -42.999s11 -26.5 19 -39.5s18.333 -26.167 31 -39.5l91 77c-13.333 14 -22.333 28.5 -27 43.5s-7 32.167 -7 51.5c0 22 5.83301 41.667 17.5 59s26.334 32 44.001 44s37.167 21.167 58.5 27.5s41.666 9.5 60.999 9.5
c30.667 0 59.5 -6.5 86.5 -19.5s49.167 -32.167 66.5 -57.5c-4.66699 -18.667 -7 -38.667 -7 -60c0 -24 4.33301 -47.333 13 -70s20.5 -43.334 35.5 -62.001s32.667 -34.334 53 -47.001s42.5 -21.334 66.5 -26.001l-6 -1v1h-279c0 16.667 -0.166992 34 -0.5 52
s1.16699 35.333 4.5 52s9.16602 32.334 17.499 47.001s21.166 26.667 38.499 36l-77 96c-36.667 -26.667 -63.834 -58.667 -81.501 -96s-26.5 -78.333 -26.5 -123v-64h-89v-114h89v-151h125v151h191c-2 -29.333 2.83301 -54.166 14.5 -74.499s27.5 -36.833 47.5 -49.5
s42.5 -21.834 67.5 -27.501s49.833 -8.5 74.5 -8.5c14.667 0 29 0.333008 43 1s27.5 2.16699 40.5 4.5s26 5.83301 39 10.5s26.167 10.667 39.5 18v120c-22 -17.333 -44.167 -29.333 -66.5 -36s-47.5 -10 -75.5 -10c-7.33301 0 -16.666 0.666992 -27.999 2
s-22.333 3.66602 -33 6.99902s-19.667 8.16602 -27 14.499s-11 14.5 -11 24.5c0 15.333 5.16699 27.166 15.5 35.499s22.666 14.5 36.999 18.5s29.333 6.5 45 7.5s28.834 1.5 39.501 1.5v109c-3.33301 -0.666992 -6.66602 -1 -9.99902 -1h-9c-34 0 -66.667 7 -98 21
s-56 36.333 -74 67c-5.33301 9.33301 -9.83301 19.5 -13.5 30.5s-5.5 22.167 -5.5 33.5c0 24 5.33301 44.5 16 61.5s24.5 31 41.5 42s36 19.167 57 24.5s41.833 8 62.5 8c12.667 0 27 -1 43 -3s30.833 -5.83301 44.5 -11.5s25.167 -13.834 34.5 -24.501s14 -24.667 14 -42
c0 -12.667 -3.16699 -23.5 -9.5 -32.5s-14.333 -16.5 -24 -22.5s-20.167 -10.667 -31.5 -14s-22.333 -5.66602 -33 -6.99902l38 -112c25.333 2.66699 49 9.16699 71 19.5s41 23.5 57 39.5s28.5 34.833 37.5 56.5s13.5 45.834 13.5 72.501z" />
    <glyph glyph-name="Ccedilla" unicode="&#xc7;" horiz-adv-x="686" 
d="M656 504c0 31.333 -7.33496 61 -22.002 89c-22.667 46 -55.167 78.833 -97.5 98.5s-88.166 29.5 -137.499 29.5c-52.667 0 -101 -9.83301 -145 -29.5s-81.833 -46.5 -113.5 -80.5s-56.334 -73.833 -74.001 -119.5s-26.5 -94.167 -26.5 -145.5
c0 -53.333 8.16699 -101.166 24.5 -143.499s39.333 -78.5 69 -108.5s65.167 -53.667 106.5 -71s86.666 -27.666 135.999 -30.999l-33 -73l33 -40c5.33301 4.66699 12 7 20 7c9.33301 0 17 -3 23 -9s9 -13.333 9 -22c0 -8 -2.33301 -15 -7 -21s-11 -9.66699 -19 -11l1 -51
c3.33301 -1.33301 6.33301 -2 9 -2h9c13.333 0 25.833 2.5 37.5 7.5s21.834 11.833 30.501 20.5s15.5 18.667 20.5 30s7.5 23.666 7.5 36.999c0 25.333 -8.5 47 -25.5 65s-38.167 28 -63.5 30l14 32c32 2 62.5 8.16699 91.5 18.5s56.5 25.5 82.5 45.5v146
c-8.66699 -14 -21.167 -26.833 -37.5 -38.5s-34 -21.667 -53 -30s-38.5 -14.833 -58.5 -19.5s-38 -7 -54 -7c-36.667 0 -70.167 5 -100.5 15s-56.5 24.667 -78.5 44s-39 43.5 -51 72.5s-18 62.5 -18 100.5c0 33.333 5.5 65.833 16.5 97.5s26.667 60 47 85s45 45 74 60
s61.167 22.5 96.5 22.5c14.667 0 29.834 -2 45.501 -6s29.834 -10 42.501 -18s23.167 -18.333 31.5 -31s12.5 -27.667 12.5 -45c0 -14 -2.83301 -26.667 -8.5 -38s-13.167 -21.333 -22.5 -30s-20 -15.334 -32 -20.001s-24.667 -7 -38 -7s-26.5 2.83301 -39.5 8.5
s-24.5 13.167 -34.5 22.5l-50 -107c7.33301 -6 16.5 -11.5 27.5 -16.5s22.333 -9.33301 34 -13s23.5 -6.5 35.5 -8.5s22.667 -3 32 -3c30 0 58.333 5.33301 85 16s50 25.5 70 44.5s36 41.5 48 67.5s18 54 18 84z" />
    <glyph glyph-name="Egrave" unicode="&#xc8;" horiz-adv-x="578" 
d="M434 827l-160 161l-64 -64l161 -160zM578 525c0 29.333 -6.6709 56.6709 -20.0039 82.0039c-11.333 20.667 -25.5 38.334 -42.5 53.001s-35.833 26.5 -56.5 35.5s-42.334 15.5 -65.001 19.5s-45 6 -67 6c-38.667 0 -76.5 -5 -113.5 -15s-69.833 -25.167 -98.5 -45.5
s-51.667 -46.333 -69 -78s-26 -69.167 -26 -112.5c0 -24 4.33301 -47.333 13 -70s20.5 -43.334 35.5 -62.001s32.667 -34.334 53 -47.001s42.5 -21.334 66.5 -26.001c-14 -2 -26.833 -7 -38.5 -15s-21.5 -18 -29.5 -30s-14.333 -25 -19 -39s-7 -27.333 -7 -40
c0 -28 6.16699 -51.5 18.5 -70.5s28.333 -34.5 48 -46.5s41.5 -20.5 65.5 -25.5s48 -7.5 72 -7.5c14.667 0 29 0.333008 43 1s27.5 2.16699 40.5 4.5s26 5.83301 39 10.5s26.167 10.667 39.5 18v120c-21.333 -17.333 -43.333 -29.333 -66 -36s-48 -10 -76 -10
c-7.33301 0 -16.666 0.666992 -27.999 2s-22.166 3.66602 -32.499 6.99902s-19.333 8.16602 -27 14.499s-11.5 14.5 -11.5 24.5c0 15.333 5.16699 27.166 15.5 35.499s22.833 14.5 37.5 18.5s29.834 6.5 45.501 7.5s28.5 1.5 38.5 1.5v109
c-3.33301 -0.666992 -6.66602 -1 -9.99902 -1h-9c-34 0 -66.667 7.16699 -98 21.5s-56 36.5 -74 66.5c-5.33301 9.33301 -9.83301 19.5 -13.5 30.5s-5.5 22.167 -5.5 33.5c0 24 5.33301 44.5 16 61.5s24.5 31 41.5 42s36 19.167 57 24.5s41.833 8 62.5 8
c13.333 0 27.833 -1 43.5 -3s30.334 -5.83301 44.001 -11.5s25.167 -13.834 34.5 -24.501s14 -24.667 14 -42c0 -12.667 -3.16699 -23.5 -9.5 -32.5s-14.333 -16.5 -24 -22.5s-20.167 -10.667 -31.5 -14s-22.333 -5.66602 -33 -6.99902l38 -112
c26 2.66699 49.833 9.16699 71.5 19.5s40.5 23.5 56.5 39.5s28.5 34.833 37.5 56.5s13.5 45.834 13.5 72.501z" />
    <glyph glyph-name="Eacute" unicode="&#xc9;" horiz-adv-x="578" 
d="M434 924l-63 64l-161 -161l63 -63zM578 525c0 29.333 -6.6709 56.6709 -20.0039 82.0039c-11.333 20.667 -25.5 38.334 -42.5 53.001s-35.833 26.5 -56.5 35.5s-42.334 15.5 -65.001 19.5s-45 6 -67 6c-38.667 0 -76.5 -5 -113.5 -15s-69.833 -25.167 -98.5 -45.5
s-51.667 -46.333 -69 -78s-26 -69.167 -26 -112.5c0 -24 4.33301 -47.333 13 -70s20.5 -43.334 35.5 -62.001s32.667 -34.334 53 -47.001s42.5 -21.334 66.5 -26.001c-14 -2 -26.833 -7 -38.5 -15s-21.5 -18 -29.5 -30s-14.333 -25 -19 -39s-7 -27.333 -7 -40
c0 -28 6.16699 -51.5 18.5 -70.5s28.333 -34.5 48 -46.5s41.5 -20.5 65.5 -25.5s48 -7.5 72 -7.5c14.667 0 29 0.333008 43 1s27.5 2.16699 40.5 4.5s26 5.83301 39 10.5s26.167 10.667 39.5 18v120c-21.333 -17.333 -43.333 -29.333 -66 -36s-48 -10 -76 -10
c-7.33301 0 -16.666 0.666992 -27.999 2s-22.166 3.66602 -32.499 6.99902s-19.333 8.16602 -27 14.499s-11.5 14.5 -11.5 24.5c0 15.333 5.16699 27.166 15.5 35.499s22.833 14.5 37.5 18.5s29.834 6.5 45.501 7.5s28.5 1.5 38.5 1.5v109
c-3.33301 -0.666992 -6.66602 -1 -9.99902 -1h-9c-34 0 -66.667 7.16699 -98 21.5s-56 36.5 -74 66.5c-5.33301 9.33301 -9.83301 19.5 -13.5 30.5s-5.5 22.167 -5.5 33.5c0 24 5.33301 44.5 16 61.5s24.5 31 41.5 42s36 19.167 57 24.5s41.833 8 62.5 8
c13.333 0 27.833 -1 43.5 -3s30.334 -5.83301 44.001 -11.5s25.167 -13.834 34.5 -24.501s14 -24.667 14 -42c0 -12.667 -3.16699 -23.5 -9.5 -32.5s-14.333 -16.5 -24 -22.5s-20.167 -10.667 -31.5 -14s-22.333 -5.66602 -33 -6.99902l38 -112
c26 2.66699 49.833 9.16699 71.5 19.5s40.5 23.5 56.5 39.5s28.5 34.833 37.5 56.5s13.5 45.834 13.5 72.501z" />
    <glyph glyph-name="Ecircumflex" unicode="&#xca;" horiz-adv-x="578" 
d="M482 827l-161 161l-161 -161l63 -63l98 97l97 -97zM578 525c0 29.333 -6.6709 56.6709 -20.0039 82.0039c-11.333 20.667 -25.5 38.334 -42.5 53.001s-35.833 26.5 -56.5 35.5s-42.334 15.5 -65.001 19.5s-45 6 -67 6c-38.667 0 -76.5 -5 -113.5 -15
s-69.833 -25.167 -98.5 -45.5s-51.667 -46.333 -69 -78s-26 -69.167 -26 -112.5c0 -24 4.33301 -47.333 13 -70s20.5 -43.334 35.5 -62.001s32.667 -34.334 53 -47.001s42.5 -21.334 66.5 -26.001c-14 -2 -26.833 -7 -38.5 -15s-21.5 -18 -29.5 -30s-14.333 -25 -19 -39
s-7 -27.333 -7 -40c0 -28 6.16699 -51.5 18.5 -70.5s28.333 -34.5 48 -46.5s41.5 -20.5 65.5 -25.5s48 -7.5 72 -7.5c14.667 0 29 0.333008 43 1s27.5 2.16699 40.5 4.5s26 5.83301 39 10.5s26.167 10.667 39.5 18v120c-21.333 -17.333 -43.333 -29.333 -66 -36
s-48 -10 -76 -10c-7.33301 0 -16.666 0.666992 -27.999 2s-22.166 3.66602 -32.499 6.99902s-19.333 8.16602 -27 14.499s-11.5 14.5 -11.5 24.5c0 15.333 5.16699 27.166 15.5 35.499s22.833 14.5 37.5 18.5s29.834 6.5 45.501 7.5s28.5 1.5 38.5 1.5v109
c-3.33301 -0.666992 -6.66602 -1 -9.99902 -1h-9c-34 0 -66.667 7.16699 -98 21.5s-56 36.5 -74 66.5c-5.33301 9.33301 -9.83301 19.5 -13.5 30.5s-5.5 22.167 -5.5 33.5c0 24 5.33301 44.5 16 61.5s24.5 31 41.5 42s36 19.167 57 24.5s41.833 8 62.5 8
c13.333 0 27.833 -1 43.5 -3s30.334 -5.83301 44.001 -11.5s25.167 -13.834 34.5 -24.501s14 -24.667 14 -42c0 -12.667 -3.16699 -23.5 -9.5 -32.5s-14.333 -16.5 -24 -22.5s-20.167 -10.667 -31.5 -14s-22.333 -5.66602 -33 -6.99902l38 -112
c26 2.66699 49.833 9.16699 71.5 19.5s40.5 23.5 56.5 39.5s28.5 34.833 37.5 56.5s13.5 45.834 13.5 72.501z" />
    <glyph glyph-name="Edieresis" unicode="&#xcb;" horiz-adv-x="578" 
d="M464 813c0 16.667 -5.83301 30.834 -17.5 42.501s-25.834 17.5 -42.501 17.5s-30.834 -5.83301 -42.501 -17.5s-17.5 -25.834 -17.5 -42.501s5.83301 -30.834 17.5 -42.501s25.834 -17.5 42.501 -17.5s30.834 5.83301 42.501 17.5s17.5 25.834 17.5 42.501zM290 813
c0 16.667 -5.66699 30.834 -17 42.501s-25.333 17.5 -42 17.5s-30.834 -5.83301 -42.501 -17.5s-17.5 -25.834 -17.5 -42.501s5.83301 -30.834 17.5 -42.501s25.834 -17.5 42.501 -17.5s30.667 5.83301 42 17.5s17 25.834 17 42.501zM578 525
c0 29.333 -6.6709 56.6709 -20.0039 82.0039c-11.333 20.667 -25.5 38.334 -42.5 53.001s-35.833 26.5 -56.5 35.5s-42.334 15.5 -65.001 19.5s-45 6 -67 6c-38.667 0 -76.5 -5 -113.5 -15s-69.833 -25.167 -98.5 -45.5s-51.667 -46.333 -69 -78s-26 -69.167 -26 -112.5
c0 -24 4.33301 -47.333 13 -70s20.5 -43.334 35.5 -62.001s32.667 -34.334 53 -47.001s42.5 -21.334 66.5 -26.001c-14 -2 -26.833 -7 -38.5 -15s-21.5 -18 -29.5 -30s-14.333 -25 -19 -39s-7 -27.333 -7 -40c0 -28 6.16699 -51.5 18.5 -70.5s28.333 -34.5 48 -46.5
s41.5 -20.5 65.5 -25.5s48 -7.5 72 -7.5c14.667 0 29 0.333008 43 1s27.5 2.16699 40.5 4.5s26 5.83301 39 10.5s26.167 10.667 39.5 18v120c-21.333 -17.333 -43.333 -29.333 -66 -36s-48 -10 -76 -10c-7.33301 0 -16.666 0.666992 -27.999 2
s-22.166 3.66602 -32.499 6.99902s-19.333 8.16602 -27 14.499s-11.5 14.5 -11.5 24.5c0 15.333 5.16699 27.166 15.5 35.499s22.833 14.5 37.5 18.5s29.834 6.5 45.501 7.5s28.5 1.5 38.5 1.5v109c-3.33301 -0.666992 -6.66602 -1 -9.99902 -1h-9
c-34 0 -66.667 7.16699 -98 21.5s-56 36.5 -74 66.5c-5.33301 9.33301 -9.83301 19.5 -13.5 30.5s-5.5 22.167 -5.5 33.5c0 24 5.33301 44.5 16 61.5s24.5 31 41.5 42s36 19.167 57 24.5s41.833 8 62.5 8c13.333 0 27.833 -1 43.5 -3s30.334 -5.83301 44.001 -11.5
s25.167 -13.834 34.5 -24.501s14 -24.667 14 -42c0 -12.667 -3.16699 -23.5 -9.5 -32.5s-14.333 -16.5 -24 -22.5s-20.167 -10.667 -31.5 -14s-22.333 -5.66602 -33 -6.99902l38 -112c26 2.66699 49.833 9.16699 71.5 19.5s40.5 23.5 56.5 39.5s28.5 34.833 37.5 56.5
s13.5 45.834 13.5 72.501z" />
    <glyph glyph-name="Igrave" unicode="&#xcc;" horiz-adv-x="543" 
d="M374 827l-160 161l-64 -64l161 -160zM473 170v323.996c0 33.333 -5.33301 63.833 -16 91.5s-25.834 51.5 -45.501 71.5s-43.167 35.667 -70.5 47s-57.666 17 -90.999 17c-32 0 -62 -5.33301 -90 -16s-52.333 -25.5 -73 -44.5s-37 -42 -49 -69s-18 -56.833 -18 -89.5
c0 -14.667 2.5 -30.5 7.5 -47.5s11.833 -33.333 20.5 -49s18.667 -30.167 30 -43.5s23.333 -23.666 36 -30.999l93 81c-8 4 -15.667 9.16699 -23 15.5s-13.833 13.5 -19.5 21.5s-10.167 16.5 -13.5 25.5s-5 17.833 -5 26.5c0 31.333 9.66699 56.5 29 75.5
s44.333 28.5 75 28.5c14.667 0 28 -3.16699 40 -9.5s22.333 -14.833 31 -25.5s15.334 -22.5 20.001 -35.5s7 -26.5 7 -40.5v-324c0 -19.333 -5.66699 -35.333 -17 -48s-27 -19 -47 -19c-16.667 0 -32.334 4.33301 -47.001 13s-27.334 19.334 -38.001 32.001v-125
c4 -6 10.167 -11 18.5 -15s17.166 -7.16699 26.499 -9.5s18.833 -4.16602 28.5 -5.49902s17.5 -2 23.5 -2c26.667 0 50.834 4.33301 72.501 13s40.334 20.834 56.001 36.501s27.667 34.5 36 56.5s12.5 46.333 12.5 73z" />
    <glyph glyph-name="Iacute" unicode="&#xcd;" horiz-adv-x="543" 
d="M364 924l-63 64l-161 -161l63 -63zM473 170v323.996c0 33.333 -5.33301 63.833 -16 91.5s-25.834 51.5 -45.501 71.5s-43.167 35.667 -70.5 47s-57.666 17 -90.999 17c-32 0 -62 -5.33301 -90 -16s-52.333 -25.5 -73 -44.5s-37 -42 -49 -69s-18 -56.833 -18 -89.5
c0 -14.667 2.5 -30.5 7.5 -47.5s11.833 -33.333 20.5 -49s18.667 -30.167 30 -43.5s23.333 -23.666 36 -30.999l93 81c-8 4 -15.667 9.16699 -23 15.5s-13.833 13.5 -19.5 21.5s-10.167 16.5 -13.5 25.5s-5 17.833 -5 26.5c0 31.333 9.66699 56.5 29 75.5
s44.333 28.5 75 28.5c14.667 0 28 -3.16699 40 -9.5s22.333 -14.833 31 -25.5s15.334 -22.5 20.001 -35.5s7 -26.5 7 -40.5v-324c0 -19.333 -5.66699 -35.333 -17 -48s-27 -19 -47 -19c-16.667 0 -32.334 4.33301 -47.001 13s-27.334 19.334 -38.001 32.001v-125
c4 -6 10.167 -11 18.5 -15s17.166 -7.16699 26.499 -9.5s18.833 -4.16602 28.5 -5.49902s17.5 -2 23.5 -2c26.667 0 50.834 4.33301 72.501 13s40.334 20.834 56.001 36.501s27.667 34.5 36 56.5s12.5 46.333 12.5 73z" />
    <glyph glyph-name="Icircumflex" unicode="&#xce;" horiz-adv-x="543" 
d="M412 827l-161 161l-161 -161l63 -63l98 97l97 -97zM473 170v323.996c0 33.333 -5.33301 63.833 -16 91.5s-25.834 51.5 -45.501 71.5s-43.167 35.667 -70.5 47s-57.666 17 -90.999 17c-32 0 -62 -5.33301 -90 -16s-52.333 -25.5 -73 -44.5s-37 -42 -49 -69
s-18 -56.833 -18 -89.5c0 -14.667 2.5 -30.5 7.5 -47.5s11.833 -33.333 20.5 -49s18.667 -30.167 30 -43.5s23.333 -23.666 36 -30.999l93 81c-8 4 -15.667 9.16699 -23 15.5s-13.833 13.5 -19.5 21.5s-10.167 16.5 -13.5 25.5s-5 17.833 -5 26.5
c0 31.333 9.66699 56.5 29 75.5s44.333 28.5 75 28.5c14.667 0 28 -3.16699 40 -9.5s22.333 -14.833 31 -25.5s15.334 -22.5 20.001 -35.5s7 -26.5 7 -40.5v-324c0 -19.333 -5.66699 -35.333 -17 -48s-27 -19 -47 -19c-16.667 0 -32.334 4.33301 -47.001 13
s-27.334 19.334 -38.001 32.001v-125c4 -6 10.167 -11 18.5 -15s17.166 -7.16699 26.499 -9.5s18.833 -4.16602 28.5 -5.49902s17.5 -2 23.5 -2c26.667 0 50.834 4.33301 72.501 13s40.334 20.834 56.001 36.501s27.667 34.5 36 56.5s12.5 46.333 12.5 73z" />
    <glyph glyph-name="Idieresis" unicode="&#xcf;" horiz-adv-x="543" 
d="M404 813c0 16.667 -5.83301 30.834 -17.5 42.501s-25.834 17.5 -42.501 17.5s-30.834 -5.83301 -42.501 -17.5s-17.5 -25.834 -17.5 -42.501s5.83301 -30.834 17.5 -42.501s25.834 -17.5 42.501 -17.5s30.834 5.83301 42.501 17.5s17.5 25.834 17.5 42.501zM230 813
c0 16.667 -5.66699 30.834 -17 42.501s-25.333 17.5 -42 17.5s-30.834 -5.83301 -42.501 -17.5s-17.5 -25.834 -17.5 -42.501s5.83301 -30.834 17.5 -42.501s25.834 -17.5 42.501 -17.5s30.667 5.83301 42 17.5s17 25.834 17 42.501zM473 170v323.996
c0 33.333 -5.33301 63.833 -16 91.5s-25.834 51.5 -45.501 71.5s-43.167 35.667 -70.5 47s-57.666 17 -90.999 17c-32 0 -62 -5.33301 -90 -16s-52.333 -25.5 -73 -44.5s-37 -42 -49 -69s-18 -56.833 -18 -89.5c0 -14.667 2.5 -30.5 7.5 -47.5s11.833 -33.333 20.5 -49
s18.667 -30.167 30 -43.5s23.333 -23.666 36 -30.999l93 81c-8 4 -15.667 9.16699 -23 15.5s-13.833 13.5 -19.5 21.5s-10.167 16.5 -13.5 25.5s-5 17.833 -5 26.5c0 31.333 9.66699 56.5 29 75.5s44.333 28.5 75 28.5c14.667 0 28 -3.16699 40 -9.5
s22.333 -14.833 31 -25.5s15.334 -22.5 20.001 -35.5s7 -26.5 7 -40.5v-324c0 -19.333 -5.66699 -35.333 -17 -48s-27 -19 -47 -19c-16.667 0 -32.334 4.33301 -47.001 13s-27.334 19.334 -38.001 32.001v-125c4 -6 10.167 -11 18.5 -15s17.166 -7.16699 26.499 -9.5
s18.833 -4.16602 28.5 -5.49902s17.5 -2 23.5 -2c26.667 0 50.834 4.33301 72.501 13s40.334 20.834 56.001 36.501s27.667 34.5 36 56.5s12.5 46.333 12.5 73z" />
    <glyph glyph-name="Eth" unicode="&#xd0;" horiz-adv-x="839" 
d="M799 327c0 58 -10.666 111.168 -31.999 159.501s-50.5 89.833 -87.5 124.5s-80.5 61.667 -130.5 81s-103.333 29 -160 29c-50 0 -97.333 -7 -142 -21s-83.834 -34.667 -117.501 -62s-60.334 -61.333 -80.001 -102s-29.5 -87.667 -29.5 -141c0 -31.333 5 -62 15 -92
s25.667 -56.667 47 -80l91 78c-11.333 12.667 -19.833 27.167 -25.5 43.5s-8.5 33.166 -8.5 50.499c0 37.333 6.83301 69.333 20.5 96s32.167 48.5 55.5 65.5s50.333 29.5 81 37.5s63 12 97 12c40 0 77 -7 111 -21s63.667 -33.333 89 -58s45.166 -54.167 59.499 -88.5
s21.5 -71.5 21.5 -111.5c0 -26 -2.33301 -52.667 -7 -80s-12.834 -52.166 -24.501 -74.499s-27.834 -40.5 -48.501 -54.5s-47 -21 -79 -21c-30 0 -57.667 7 -83 21s-43.666 35.333 -54.999 64v52h57v115h-57v167h-125v-167h-58v-115h58v-92c0 -25.333 -12.667 -38 -38 -38
c-11.333 0 -22 2.5 -32 7.5s-18.667 11.5 -26 19.5v-108c4 -6 9.83301 -11 17.5 -15s15.834 -7.33301 24.501 -10s17.334 -4.5 26.001 -5.5s16.334 -1.5 23.001 -1.5c26.667 0 50.667 5.16699 72 15.5s37 28.833 47 55.5c17.333 -26 39 -44.333 65 -55s54 -16 84 -16
c49.333 0 92 9 128 27s65.5 42.5 88.5 73.5s40 66.667 51 107s16.5 83.166 16.5 128.499z" />
    <glyph glyph-name="Ntilde" unicode="&#xd1;" horiz-adv-x="873" 
d="M682 807l-0.00195312 85.001c-10 -10 -21.167 -18.5 -33.5 -25.5s-25.833 -10.5 -40.5 -10.5c-12 0 -23.667 2 -35 6s-22.5 8.5 -33.5 13.5s-22.167 9.66699 -33.5 14s-23 6.5 -35 6.5c-16 0 -30.667 -3.83301 -44 -11.5s-25.666 -17.167 -36.999 -28.5v-88
c11.333 11.333 23.5 20.666 36.5 27.999s27.167 11 42.5 11c12 0 23.5 -2 34.5 -6l33 -12.5c11 -4.33301 22.167 -8.5 33.5 -12.5s23 -6 35 -6c15.333 0 29.333 3.5 42 10.5s24.334 15.833 35.001 26.5zM872.998 23.001v107.998c-6.66699 -8 -15.334 -14.5 -26.001 -19.5
s-21.334 -7.5 -32.001 -7.5c-25.333 0 -38 12.667 -38 38v353c0 30 -4.16699 58.667 -12.5 86s-20.833 51.333 -37.5 72s-37.167 37.167 -61.5 49.5s-52.833 18.5 -85.5 18.5c-38 0 -73.167 -6.5 -105.5 -19.5s-59.5 -35.833 -81.5 -68.5
c-19.333 30.667 -43.833 53 -73.5 67s-62.5 21 -98.5 21c-60.667 0 -109.334 -17.167 -146.001 -51.5s-55 -82.166 -55 -143.499c0 -32 7.66699 -62.5 23 -91.5s37 -51.5 65 -67.5l86 72c-15.333 7.33301 -28.166 19.333 -38.499 36s-15.5 33.667 -15.5 51
c0 23.333 7.83301 42 23.5 56s34.834 21 57.501 21c15.333 0 28.333 -3.16699 39 -9.5s19.167 -14.833 25.5 -25.5s10.833 -22.5 13.5 -35.5s4 -25.833 4 -38.5v-494h125v485c0 16.667 3.33301 32.334 10 47.001s15.834 27.5 27.501 38.5s25 19.667 40 26s30.5 9.5 46.5 9.5
c34.667 0 60 -10.167 76 -30.5s24 -47.166 24 -80.499v-363c0 -44.667 11 -79.334 33 -104.001s56 -37 102 -37c6 0 13.333 0.5 22 1.5s17.167 2.83301 25.5 5.5s16 6 23 10s12.167 9 15.5 15z" />
    <glyph glyph-name="Ograve" unicode="&#xd2;" 
d="M534 827l-160 161l-64 -64l161 -160zM808 378c0 44 -6.83301 86.667 -20.5 128s-33.334 78 -59.001 110s-57.167 57.5 -94.5 76.5s-79.666 28.5 -126.999 28.5c-24.667 0 -48.5 -4.66699 -71.5 -14s-43.333 -22.166 -61 -38.499s-31.834 -35.5 -42.501 -57.5
s-16 -45.667 -16 -71s4.16699 -49.833 12.5 -73.5s20.333 -44.834 36 -63.501s34.334 -33.5 56.001 -44.5s45.834 -16.5 72.501 -16.5c21.333 0 41.666 2.33301 60.999 7s38 13 56 25l-40 98c-8.66699 -5.33301 -19.167 -9.5 -31.5 -12.5s-23.833 -4.5 -34.5 -4.5
c-22 0 -39.667 7.83301 -53 23.5s-20 34.167 -20 55.5c0 10.667 2.16699 20.667 6.5 30s10.166 17.5 17.499 24.5s15.833 12.5 25.5 16.5s19.834 6 30.501 6c30 0 55.833 -7.33301 77.5 -22s39.5 -33.334 53.5 -56.001s24.333 -47.834 31 -75.501s10 -54.167 10 -79.5
c0 -35.333 -6.5 -69.166 -19.5 -101.499s-31 -61 -54 -86s-50.167 -44.833 -81.5 -59.5s-65 -22 -101 -22c-38.667 0 -74.167 6.83301 -106.5 20.5s-60 32.5 -83 56.5s-40.833 52.333 -53.5 85s-19 68 -19 106c0 46.667 10.167 89 30.5 127s51.5 68.667 93.5 92v125
c-26 -4 -50.5 -12.833 -73.5 -26.5s-44 -30.167 -63 -49.5s-36 -40.5 -51 -63.5s-26.833 -46.167 -35.5 -69.5c-17.333 -44.667 -26 -90 -26 -136c0 -50 10.333 -99.333 31 -148c15.333 -36 35 -68.667 59 -98s51.167 -54.333 81.5 -75s63.333 -36.5 99 -47.5
s73.5 -16.5 113.5 -16.5s78 5.5 114 16.5s69.167 26.833 99.5 47.5s57.333 45.667 81 75s43.167 62.333 58.5 99c20.667 48.667 31 98.334 31 149.001z" />
    <glyph glyph-name="Oacute" unicode="&#xd3;" 
d="M534 924l-63 64l-161 -161l63 -63zM808 378c0 44 -6.83301 86.667 -20.5 128s-33.334 78 -59.001 110s-57.167 57.5 -94.5 76.5s-79.666 28.5 -126.999 28.5c-24.667 0 -48.5 -4.66699 -71.5 -14s-43.333 -22.166 -61 -38.499s-31.834 -35.5 -42.501 -57.5
s-16 -45.667 -16 -71s4.16699 -49.833 12.5 -73.5s20.333 -44.834 36 -63.501s34.334 -33.5 56.001 -44.5s45.834 -16.5 72.501 -16.5c21.333 0 41.666 2.33301 60.999 7s38 13 56 25l-40 98c-8.66699 -5.33301 -19.167 -9.5 -31.5 -12.5s-23.833 -4.5 -34.5 -4.5
c-22 0 -39.667 7.83301 -53 23.5s-20 34.167 -20 55.5c0 10.667 2.16699 20.667 6.5 30s10.166 17.5 17.499 24.5s15.833 12.5 25.5 16.5s19.834 6 30.501 6c30 0 55.833 -7.33301 77.5 -22s39.5 -33.334 53.5 -56.001s24.333 -47.834 31 -75.501s10 -54.167 10 -79.5
c0 -35.333 -6.5 -69.166 -19.5 -101.499s-31 -61 -54 -86s-50.167 -44.833 -81.5 -59.5s-65 -22 -101 -22c-38.667 0 -74.167 6.83301 -106.5 20.5s-60 32.5 -83 56.5s-40.833 52.333 -53.5 85s-19 68 -19 106c0 46.667 10.167 89 30.5 127s51.5 68.667 93.5 92v125
c-26 -4 -50.5 -12.833 -73.5 -26.5s-44 -30.167 -63 -49.5s-36 -40.5 -51 -63.5s-26.833 -46.167 -35.5 -69.5c-17.333 -44.667 -26 -90 -26 -136c0 -50 10.333 -99.333 31 -148c15.333 -36 35 -68.667 59 -98s51.167 -54.333 81.5 -75s63.333 -36.5 99 -47.5
s73.5 -16.5 113.5 -16.5s78 5.5 114 16.5s69.167 26.833 99.5 47.5s57.333 45.667 81 75s43.167 62.333 58.5 99c20.667 48.667 31 98.334 31 149.001z" />
    <glyph glyph-name="Ocircumflex" unicode="&#xd4;" 
d="M582 827l-161 161l-161 -161l63 -63l98 97l97 -97zM808 378c0 44 -6.83301 86.667 -20.5 128s-33.334 78 -59.001 110s-57.167 57.5 -94.5 76.5s-79.666 28.5 -126.999 28.5c-24.667 0 -48.5 -4.66699 -71.5 -14s-43.333 -22.166 -61 -38.499
s-31.834 -35.5 -42.501 -57.5s-16 -45.667 -16 -71s4.16699 -49.833 12.5 -73.5s20.333 -44.834 36 -63.501s34.334 -33.5 56.001 -44.5s45.834 -16.5 72.501 -16.5c21.333 0 41.666 2.33301 60.999 7s38 13 56 25l-40 98c-8.66699 -5.33301 -19.167 -9.5 -31.5 -12.5
s-23.833 -4.5 -34.5 -4.5c-22 0 -39.667 7.83301 -53 23.5s-20 34.167 -20 55.5c0 10.667 2.16699 20.667 6.5 30s10.166 17.5 17.499 24.5s15.833 12.5 25.5 16.5s19.834 6 30.501 6c30 0 55.833 -7.33301 77.5 -22s39.5 -33.334 53.5 -56.001s24.333 -47.834 31 -75.501
s10 -54.167 10 -79.5c0 -35.333 -6.5 -69.166 -19.5 -101.499s-31 -61 -54 -86s-50.167 -44.833 -81.5 -59.5s-65 -22 -101 -22c-38.667 0 -74.167 6.83301 -106.5 20.5s-60 32.5 -83 56.5s-40.833 52.333 -53.5 85s-19 68 -19 106c0 46.667 10.167 89 30.5 127
s51.5 68.667 93.5 92v125c-26 -4 -50.5 -12.833 -73.5 -26.5s-44 -30.167 -63 -49.5s-36 -40.5 -51 -63.5s-26.833 -46.167 -35.5 -69.5c-17.333 -44.667 -26 -90 -26 -136c0 -50 10.333 -99.333 31 -148c15.333 -36 35 -68.667 59 -98s51.167 -54.333 81.5 -75
s63.333 -36.5 99 -47.5s73.5 -16.5 113.5 -16.5s78 5.5 114 16.5s69.167 26.833 99.5 47.5s57.333 45.667 81 75s43.167 62.333 58.5 99c20.667 48.667 31 98.334 31 149.001z" />
    <glyph glyph-name="Otilde" unicode="&#xd5;" 
d="M562 807l-0.00195312 85.001c-10 -10 -21.167 -18.5 -33.5 -25.5s-25.833 -10.5 -40.5 -10.5c-12 0 -23.667 2 -35 6s-22.5 8.5 -33.5 13.5s-22.167 9.66699 -33.5 14s-23 6.5 -35 6.5c-16 0 -30.667 -3.83301 -44 -11.5s-25.666 -17.167 -36.999 -28.5v-88
c11.333 11.333 23.5 20.666 36.5 27.999s27.167 11 42.5 11c12 0 23.5 -2 34.5 -6l33 -12.5c11 -4.33301 22.167 -8.5 33.5 -12.5s23 -6 35 -6c15.333 0 29.333 3.5 42 10.5s24.334 15.833 35.001 26.5zM807.998 378.001c0 44 -6.83301 86.667 -20.5 128
s-33.334 78 -59.001 110s-57.167 57.5 -94.5 76.5s-79.666 28.5 -126.999 28.5c-24.667 0 -48.5 -4.66699 -71.5 -14s-43.333 -22.166 -61 -38.499s-31.834 -35.5 -42.501 -57.5s-16 -45.667 -16 -71s4.16699 -49.833 12.5 -73.5s20.333 -44.834 36 -63.501
s34.334 -33.5 56.001 -44.5s45.834 -16.5 72.501 -16.5c21.333 0 41.666 2.33301 60.999 7s38 13 56 25l-40 98c-8.66699 -5.33301 -19.167 -9.5 -31.5 -12.5s-23.833 -4.5 -34.5 -4.5c-22 0 -39.667 7.83301 -53 23.5s-20 34.167 -20 55.5c0 10.667 2.16699 20.667 6.5 30
s10.166 17.5 17.499 24.5s15.833 12.5 25.5 16.5s19.834 6 30.501 6c30 0 55.833 -7.33301 77.5 -22s39.5 -33.334 53.5 -56.001s24.333 -47.834 31 -75.501s10 -54.167 10 -79.5c0 -35.333 -6.5 -69.166 -19.5 -101.499s-31 -61 -54 -86s-50.167 -44.833 -81.5 -59.5
s-65 -22 -101 -22c-38.667 0 -74.167 6.83301 -106.5 20.5s-60 32.5 -83 56.5s-40.833 52.333 -53.5 85s-19 68 -19 106c0 46.667 10.167 89 30.5 127s51.5 68.667 93.5 92v125c-26 -4 -50.5 -12.833 -73.5 -26.5s-44 -30.167 -63 -49.5s-36 -40.5 -51 -63.5
s-26.833 -46.167 -35.5 -69.5c-17.333 -44.667 -26 -90 -26 -136c0 -50 10.333 -99.333 31 -148c15.333 -36 35 -68.667 59 -98s51.167 -54.333 81.5 -75s63.333 -36.5 99 -47.5s73.5 -16.5 113.5 -16.5s78 5.5 114 16.5s69.167 26.833 99.5 47.5s57.333 45.667 81 75
s43.167 62.333 58.5 99c20.667 48.667 31 98.334 31 149.001z" />
    <glyph glyph-name="Odieresis" unicode="&#xd6;" 
d="M574 813c0 16.667 -5.83301 30.834 -17.5 42.501s-25.834 17.5 -42.501 17.5s-30.834 -5.83301 -42.501 -17.5s-17.5 -25.834 -17.5 -42.501s5.83301 -30.834 17.5 -42.501s25.834 -17.5 42.501 -17.5s30.834 5.83301 42.501 17.5s17.5 25.834 17.5 42.501zM400 813
c0 16.667 -5.66699 30.834 -17 42.501s-25.333 17.5 -42 17.5s-30.834 -5.83301 -42.501 -17.5s-17.5 -25.834 -17.5 -42.501s5.83301 -30.834 17.5 -42.501s25.834 -17.5 42.501 -17.5s30.667 5.83301 42 17.5s17 25.834 17 42.501zM808 378
c0 44 -6.83301 86.667 -20.5 128s-33.334 78 -59.001 110s-57.167 57.5 -94.5 76.5s-79.666 28.5 -126.999 28.5c-24.667 0 -48.5 -4.66699 -71.5 -14s-43.333 -22.166 -61 -38.499s-31.834 -35.5 -42.501 -57.5s-16 -45.667 -16 -71s4.16699 -49.833 12.5 -73.5
s20.333 -44.834 36 -63.501s34.334 -33.5 56.001 -44.5s45.834 -16.5 72.501 -16.5c21.333 0 41.666 2.33301 60.999 7s38 13 56 25l-40 98c-8.66699 -5.33301 -19.167 -9.5 -31.5 -12.5s-23.833 -4.5 -34.5 -4.5c-22 0 -39.667 7.83301 -53 23.5s-20 34.167 -20 55.5
c0 10.667 2.16699 20.667 6.5 30s10.166 17.5 17.499 24.5s15.833 12.5 25.5 16.5s19.834 6 30.501 6c30 0 55.833 -7.33301 77.5 -22s39.5 -33.334 53.5 -56.001s24.333 -47.834 31 -75.501s10 -54.167 10 -79.5c0 -35.333 -6.5 -69.166 -19.5 -101.499s-31 -61 -54 -86
s-50.167 -44.833 -81.5 -59.5s-65 -22 -101 -22c-38.667 0 -74.167 6.83301 -106.5 20.5s-60 32.5 -83 56.5s-40.833 52.333 -53.5 85s-19 68 -19 106c0 46.667 10.167 89 30.5 127s51.5 68.667 93.5 92v125c-26 -4 -50.5 -12.833 -73.5 -26.5s-44 -30.167 -63 -49.5
s-36 -40.5 -51 -63.5s-26.833 -46.167 -35.5 -69.5c-17.333 -44.667 -26 -90 -26 -136c0 -50 10.333 -99.333 31 -148c15.333 -36 35 -68.667 59 -98s51.167 -54.333 81.5 -75s63.333 -36.5 99 -47.5s73.5 -16.5 113.5 -16.5s78 5.5 114 16.5s69.167 26.833 99.5 47.5
s57.333 45.667 81 75s43.167 62.333 58.5 99c20.667 48.667 31 98.334 31 149.001z" />
    <glyph glyph-name="Oslash" unicode="&#xd8;" 
d="M808 378c0 39.333 -5.8291 78.666 -17.4961 117.999s-28.834 75 -51.501 107l51 51l-46 45l-48 -48c-26.667 24 -55.834 41.667 -87.501 53s-65.5 17 -101.5 17c-24.667 0 -48.5 -4.66699 -71.5 -14s-43.333 -22.166 -61 -38.499s-31.834 -35.5 -42.501 -57.5
s-16 -45.667 -16 -71c0 -35.333 7.83301 -68.833 23.5 -100.5s39.167 -56.5 70.5 -74.5l-176 -175c-23.333 25.333 -40.666 54.333 -51.999 87s-17 66 -17 100c0 46.667 10.167 89 30.5 127s51.5 68.667 93.5 92v125c-26.667 -4.66699 -52 -14.167 -76 -28.5
s-45.667 -31.666 -65 -51.999s-36.333 -42.666 -51 -66.999s-26.334 -48.5 -35.001 -72.5c-7.33301 -20 -12.833 -40.5 -16.5 -61.5s-5.5 -42.167 -5.5 -63.5c0 -50 10 -98.5 30 -145.5s47 -88.5 81 -124.5l-46 -46l46 -45l49 48c32.667 -24 68 -42 106 -54
s77.333 -18 118 -18c39.333 0 76.666 5.33301 111.999 16s68 26 98 46s56.833 44.167 80.5 72.5s43.5 60.166 59.5 95.499c22.667 51.333 34 103.666 34 156.999zM683.004 378c0 -35.333 -6.5 -69.1641 -19.5 -101.497s-31 -61 -54 -86s-50.167 -44.833 -81.5 -59.5
s-65 -22 -101 -22c-25.333 0 -50.166 3.16699 -74.499 9.5s-47.166 16.166 -68.499 29.499l195 195c23.333 -2 46.166 -0.5 68.499 4.5s43.166 13.833 62.499 26.5l-40 98c-7.33301 -5.33301 -17.833 -9.5 -31.5 -12.5s-25.167 -4.5 -34.5 -4.5
c-22 0 -39.667 7.83301 -53 23.5s-20 34.167 -20 55.5c0 10.667 2.16699 20.667 6.5 30s10.166 17.5 17.499 24.5s15.833 12.5 25.5 16.5s19.834 6 30.501 6c30 0 55.833 -7.33301 77.5 -22s39.5 -33.334 53.5 -56.001s24.333 -47.834 31 -75.501s10 -54.167 10 -79.5z" />
    <glyph glyph-name="Ugrave" unicode="&#xd9;" horiz-adv-x="877" 
d="M654 827l-160 161l-64 -64l161 -160zM877 23l0.00292969 107.999c-6.66699 -8 -15.334 -14.5 -26.001 -19.5s-21.334 -7.5 -32.001 -7.5c-25.333 0 -38 12.667 -38 38v568h-125v-485c0 -2.66699 -0.5 -6.66699 -1.5 -12s-1.83301 -9.33301 -2.5 -12
c-4 -13.333 -9.83301 -26 -17.5 -38s-16.834 -22.667 -27.501 -32s-22.5 -16.666 -35.5 -21.999s-26.5 -8 -40.5 -8c-36 0 -61.5 10.833 -76.5 32.5s-22.5 49.167 -22.5 82.5v278c0 32.667 -4.66699 62.834 -14 90.501s-22.833 51.667 -40.5 72s-39.667 36.166 -66 47.499
s-56.5 17 -90.5 17c-60.667 0 -109.334 -17.167 -146.001 -51.5s-55 -82.166 -55 -143.499c0 -32 7.66699 -62.5 23 -91.5s37 -51.5 65 -67.5l88 79c-14 6.66699 -25.833 17.667 -35.5 33s-14.5 31 -14.5 47c0 21.333 7.16699 39.666 21.5 54.999s32.166 23 53.499 23
c14.667 0 27.5 -3.33301 38.5 -10s20 -15.334 27 -26.001s12.167 -22.5 15.5 -35.5s5 -25.833 5 -38.5v-278c0 -30 4.16699 -58.667 12.5 -86s20.666 -51.166 36.999 -71.499s36.833 -36.666 61.5 -48.999s53.334 -18.5 86.001 -18.5c33.333 0 63.833 4.66699 91.5 14
s51.834 27.666 72.501 54.999c10.667 -26 26.5 -44 47.5 -54s44.5 -15 70.5 -15c6.66699 0 14.5 0.5 23.5 1.5s17.833 2.83301 26.5 5.5s16.834 6 24.501 10s13.167 9 16.5 15z" />
    <glyph glyph-name="Uacute" unicode="&#xda;" horiz-adv-x="877" 
d="M644 924l-63 64l-161 -161l63 -63zM877 23l0.00292969 107.999c-6.66699 -8 -15.334 -14.5 -26.001 -19.5s-21.334 -7.5 -32.001 -7.5c-25.333 0 -38 12.667 -38 38v568h-125v-485c0 -2.66699 -0.5 -6.66699 -1.5 -12s-1.83301 -9.33301 -2.5 -12
c-4 -13.333 -9.83301 -26 -17.5 -38s-16.834 -22.667 -27.501 -32s-22.5 -16.666 -35.5 -21.999s-26.5 -8 -40.5 -8c-36 0 -61.5 10.833 -76.5 32.5s-22.5 49.167 -22.5 82.5v278c0 32.667 -4.66699 62.834 -14 90.501s-22.833 51.667 -40.5 72s-39.667 36.166 -66 47.499
s-56.5 17 -90.5 17c-60.667 0 -109.334 -17.167 -146.001 -51.5s-55 -82.166 -55 -143.499c0 -32 7.66699 -62.5 23 -91.5s37 -51.5 65 -67.5l88 79c-14 6.66699 -25.833 17.667 -35.5 33s-14.5 31 -14.5 47c0 21.333 7.16699 39.666 21.5 54.999s32.166 23 53.499 23
c14.667 0 27.5 -3.33301 38.5 -10s20 -15.334 27 -26.001s12.167 -22.5 15.5 -35.5s5 -25.833 5 -38.5v-278c0 -30 4.16699 -58.667 12.5 -86s20.666 -51.166 36.999 -71.499s36.833 -36.666 61.5 -48.999s53.334 -18.5 86.001 -18.5c33.333 0 63.833 4.66699 91.5 14
s51.834 27.666 72.501 54.999c10.667 -26 26.5 -44 47.5 -54s44.5 -15 70.5 -15c6.66699 0 14.5 0.5 23.5 1.5s17.833 2.83301 26.5 5.5s16.834 6 24.501 10s13.167 9 16.5 15z" />
    <glyph glyph-name="Ucircumflex" unicode="&#xdb;" horiz-adv-x="877" 
d="M692 827l-161 161l-161 -161l63 -63l98 97l97 -97zM877 23l0.00292969 107.999c-6.66699 -8 -15.334 -14.5 -26.001 -19.5s-21.334 -7.5 -32.001 -7.5c-25.333 0 -38 12.667 -38 38v568h-125v-485c0 -2.66699 -0.5 -6.66699 -1.5 -12s-1.83301 -9.33301 -2.5 -12
c-4 -13.333 -9.83301 -26 -17.5 -38s-16.834 -22.667 -27.501 -32s-22.5 -16.666 -35.5 -21.999s-26.5 -8 -40.5 -8c-36 0 -61.5 10.833 -76.5 32.5s-22.5 49.167 -22.5 82.5v278c0 32.667 -4.66699 62.834 -14 90.501s-22.833 51.667 -40.5 72s-39.667 36.166 -66 47.499
s-56.5 17 -90.5 17c-60.667 0 -109.334 -17.167 -146.001 -51.5s-55 -82.166 -55 -143.499c0 -32 7.66699 -62.5 23 -91.5s37 -51.5 65 -67.5l88 79c-14 6.66699 -25.833 17.667 -35.5 33s-14.5 31 -14.5 47c0 21.333 7.16699 39.666 21.5 54.999s32.166 23 53.499 23
c14.667 0 27.5 -3.33301 38.5 -10s20 -15.334 27 -26.001s12.167 -22.5 15.5 -35.5s5 -25.833 5 -38.5v-278c0 -30 4.16699 -58.667 12.5 -86s20.666 -51.166 36.999 -71.499s36.833 -36.666 61.5 -48.999s53.334 -18.5 86.001 -18.5c33.333 0 63.833 4.66699 91.5 14
s51.834 27.666 72.501 54.999c10.667 -26 26.5 -44 47.5 -54s44.5 -15 70.5 -15c6.66699 0 14.5 0.5 23.5 1.5s17.833 2.83301 26.5 5.5s16.834 6 24.501 10s13.167 9 16.5 15z" />
    <glyph glyph-name="Udieresis" unicode="&#xdc;" horiz-adv-x="877" 
d="M676 813c0 16.667 -5.83301 30.834 -17.5 42.501s-25.834 17.5 -42.501 17.5s-30.834 -5.83301 -42.501 -17.5s-17.5 -25.834 -17.5 -42.501s5.83301 -30.834 17.5 -42.501s25.834 -17.5 42.501 -17.5s30.834 5.83301 42.501 17.5s17.5 25.834 17.5 42.501zM502 813
c0 16.667 -5.83301 30.834 -17.5 42.501s-25.834 17.5 -42.501 17.5s-30.834 -5.83301 -42.501 -17.5s-17.5 -25.834 -17.5 -42.501s5.83301 -30.834 17.5 -42.501s25.834 -17.5 42.501 -17.5s30.834 5.83301 42.501 17.5s17.5 25.834 17.5 42.501zM877 23
l0.00292969 107.999c-6.66699 -8 -15.334 -14.5 -26.001 -19.5s-21.334 -7.5 -32.001 -7.5c-25.333 0 -38 12.667 -38 38v568h-125v-485c0 -2.66699 -0.5 -6.66699 -1.5 -12s-1.83301 -9.33301 -2.5 -12c-4 -13.333 -9.83301 -26 -17.5 -38s-16.834 -22.667 -27.501 -32
s-22.5 -16.666 -35.5 -21.999s-26.5 -8 -40.5 -8c-36 0 -61.5 10.833 -76.5 32.5s-22.5 49.167 -22.5 82.5v278c0 32.667 -4.66699 62.834 -14 90.501s-22.833 51.667 -40.5 72s-39.667 36.166 -66 47.499s-56.5 17 -90.5 17c-60.667 0 -109.334 -17.167 -146.001 -51.5
s-55 -82.166 -55 -143.499c0 -32 7.66699 -62.5 23 -91.5s37 -51.5 65 -67.5l88 79c-14 6.66699 -25.833 17.667 -35.5 33s-14.5 31 -14.5 47c0 21.333 7.16699 39.666 21.5 54.999s32.166 23 53.499 23c14.667 0 27.5 -3.33301 38.5 -10s20 -15.334 27 -26.001
s12.167 -22.5 15.5 -35.5s5 -25.833 5 -38.5v-278c0 -30 4.16699 -58.667 12.5 -86s20.666 -51.166 36.999 -71.499s36.833 -36.666 61.5 -48.999s53.334 -18.5 86.001 -18.5c33.333 0 63.833 4.66699 91.5 14s51.834 27.666 72.501 54.999c10.667 -26 26.5 -44 47.5 -54
s44.5 -15 70.5 -15c6.66699 0 14.5 0.5 23.5 1.5s17.833 2.83301 26.5 5.5s16.834 6 24.501 10s13.167 9 16.5 15z" />
    <glyph glyph-name="Yacute" unicode="&#xdd;" 
d="M654 924l-63 64l-161 -161l63 -63zM778 -90l-0.000976562 388.003v412h-125v-487c0 -36 -9.16699 -64.5 -27.5 -85.5s-45.833 -31.5 -82.5 -31.5c-36 0 -64.167 10.5 -84.5 31.5s-30.5 49.5 -30.5 85.5v271c0 32.667 -4.33301 62.834 -13 90.501s-21.667 51.667 -39 72
s-39 36.166 -65 47.499s-56 17 -90 17c-60.667 0 -109.334 -17.167 -146.001 -51.5s-55 -82.166 -55 -143.499c0 -32 7.66699 -62.5 23 -91.5s37 -51.5 65 -67.5l88 79c-14 6.66699 -25.833 17.667 -35.5 33s-14.5 31 -14.5 47c0 21.333 7.16699 39.666 21.5 54.999
s32.166 23 53.499 23c14.667 0 27.167 -3.33301 37.5 -10s18.833 -15.334 25.5 -26.001s11.5 -22.5 14.5 -35.5s4.5 -25.833 4.5 -38.5v-271c0 -31.333 5.33301 -61 16 -89s25.834 -52.5 45.501 -73.5s42.834 -37.833 69.501 -50.5s56 -19 88 -19c27.333 0 52 3.66699 74 11
s41 22.666 57 45.999v-138c0 -18 -4.16699 -33.333 -12.5 -46s-22.166 -20.334 -41.499 -23.001l68 -102c36 19.333 63.5 41.833 82.5 67.5s28.5 60.167 28.5 103.5z" />
    <glyph glyph-name="Thorn" unicode="&#xde;" horiz-adv-x="753" 
d="M713 371c0 48 -9.49902 89.835 -28.499 125.502s-44 65.5 -75 89.5s-66.833 42.333 -107.5 55s-82.334 20 -125.001 22v47h-125v-60c-32.667 -8.66699 -63.167 -21.167 -91.5 -37.5s-52.833 -36.5 -73.5 -60.5s-37 -51.667 -49 -83s-18 -66 -18 -104
c0 -18 0.833008 -34.5 2.5 -49.5s4.83398 -29.333 9.50098 -43s11 -26.834 19 -39.501s18.333 -25.667 31 -39l91 77c-13.333 14 -22.333 28.5 -27 43.5s-7 31.833 -7 50.5c0 40 10.833 73.5 32.5 100.5s48.5 47.167 80.5 60.5v-384c0 -25.333 -12.667 -38 -38 -38
c-11.333 0 -22 2.5 -32 7.5s-18.667 11.5 -26 19.5v-108c4 -6 9.66699 -11 17 -15s15.5 -7.33301 24.5 -10s17.833 -4.5 26.5 -5.5s16.334 -1.5 23.001 -1.5c46 0 79.167 12.5 99.5 37.5s30.5 59.5 30.5 103.5v10c15.333 -7.33301 31.5 -11.833 48.5 -13.5
s33.833 -2.5 50.5 -2.5c15.333 0 30.666 2.16699 45.999 6.5s29.666 9.83301 42.999 16.5c44.667 21.333 80.5 51.166 107.5 89.499s40.5 82.5 40.5 132.5zM588.001 366.002c0 -21.333 -3.83105 -40.501 -11.498 -57.501s-18.334 -31.5 -32.001 -43.5
s-29.334 -21.167 -47.001 -27.5s-36.5 -9.5 -56.5 -9.5c-20.667 0 -42 3.66699 -64 11v308c27.333 -1.33301 53.666 -5.66602 78.999 -12.999s47.833 -18.333 67.5 -33s35.334 -33.167 47.001 -55.5s17.5 -48.833 17.5 -79.5z" />
    <glyph glyph-name="germandbls" unicode="&#xdf;" horiz-adv-x="577" 
d="M557 514c0 30 -5.00195 57.502 -15.002 82.502s-23.833 46.833 -41.5 65.5s-38.834 33.167 -63.501 43.5s-52 15.5 -82 15.5c-39.333 0 -73.5 -6.5 -102.5 -19.5s-53 -31 -72 -54s-33 -50.333 -42 -82s-13.5 -65.834 -13.5 -102.501v-83h-105v-107h105v-345
c0 -17.333 -6.66699 -32.5 -20 -45.5s-28.333 -19.5 -45 -19.5l43 -95c20.667 0 39.334 4.83301 56.001 14.5s31 22.167 43 37.5s21.167 32.5 27.5 51.5s9.5 37.833 9.5 56.5v72v463c0 18 2.33301 36 7 54s11.834 34.167 21.501 48.5s22 25.833 37 34.5s32.833 13 53.5 13
c28 0 50.167 -9.5 66.5 -28.5s24.5 -42.5 24.5 -70.5c0 -18.667 -6.16699 -36.334 -18.5 -53.001s-26 -34 -41 -52s-28.667 -37.333 -41 -58s-18.5 -44 -18.5 -70c0 -18.667 3.33301 -35.667 10 -51s13.834 -29.333 21.501 -42l21.5 -34.5
c6.66699 -10.333 10 -20.166 10 -29.499c0 -11.333 -3.33301 -20 -10 -26s-15.667 -9 -27 -9c-9.33301 0 -19 2.83301 -29 8.5s-18 11.834 -24 18.501v-106c12.667 -7.33301 27 -12.333 43 -15s31 -4 45 -4c34 0 62.167 11 84.5 33s33.5 50 33.5 84
c0 20.667 -3.5 39.167 -10.5 55.5s-14.667 31.333 -23 45l-23 39c-7 12.333 -10.5 24.5 -10.5 36.5c0 17.333 6 33.166 18 47.499l39.5 46c14.333 16.333 27.5 35.166 39.5 56.499s18 48 18 80z" />
    <glyph glyph-name="agrave" unicode="&#xe0;" horiz-adv-x="538" 
d="M394 487l-160 161l-64 -64l161 -160zM538 16l0.000976562 92.001c-12.667 -10.667 -26.667 -16 -42 -16c-11.333 0 -20.833 3.16699 -28.5 9.5s-11.5 15.166 -11.5 26.499v252h-114v-44c-15.333 18 -33 31.167 -53 39.5s-41.667 12.5 -65 12.5
c-28 0 -53.333 -5.33301 -76 -16s-42 -25 -58 -43s-28.333 -39 -37 -63s-13 -49.333 -13 -76c0 -27.333 4.33301 -53 13 -77s21 -45 37 -63s35.333 -32.333 58 -43s48 -16 76 -16c27.333 0 52 5.5 74 16.5s40.333 28.167 55 51.5c9.33301 -20 22.5 -36.333 39.5 -49
s36.5 -19 58.5 -19c15.333 0 30.666 1.83301 45.999 5.5s29 10.167 41 19.5zM342.001 151.001c-7.33301 -19.333 -19.166 -35.002 -35.499 -47.002s-34.833 -18 -55.5 -18c-14 0 -27 2.83301 -39 8.5s-22.333 13.334 -31 23.001s-15.5 20.667 -20.5 33s-7.5 25.5 -7.5 39.5
s2.5 27.167 7.5 39.5s11.833 23.333 20.5 33s19 17.334 31 23.001s25 8.5 39 8.5c20.667 0 39.167 -6 55.5 -18s28.166 -27.667 35.499 -47v-78z" />
    <glyph glyph-name="aacute" unicode="&#xe1;" horiz-adv-x="538" 
d="M374 584l-63 64l-161 -161l63 -63zM538 16l0.000976562 92.001c-12.667 -10.667 -26.667 -16 -42 -16c-11.333 0 -20.833 3.16699 -28.5 9.5s-11.5 15.166 -11.5 26.499v252h-114v-44c-15.333 18 -33 31.167 -53 39.5s-41.667 12.5 -65 12.5
c-28 0 -53.333 -5.33301 -76 -16s-42 -25 -58 -43s-28.333 -39 -37 -63s-13 -49.333 -13 -76c0 -27.333 4.33301 -53 13 -77s21 -45 37 -63s35.333 -32.333 58 -43s48 -16 76 -16c27.333 0 52 5.5 74 16.5s40.333 28.167 55 51.5c9.33301 -20 22.5 -36.333 39.5 -49
s36.5 -19 58.5 -19c15.333 0 30.666 1.83301 45.999 5.5s29 10.167 41 19.5zM342.001 151.001c-7.33301 -19.333 -19.166 -35.002 -35.499 -47.002s-34.833 -18 -55.5 -18c-14 0 -27 2.83301 -39 8.5s-22.333 13.334 -31 23.001s-15.5 20.667 -20.5 33s-7.5 25.5 -7.5 39.5
s2.5 27.167 7.5 39.5s11.833 23.333 20.5 33s19 17.334 31 23.001s25 8.5 39 8.5c20.667 0 39.167 -6 55.5 -18s28.166 -27.667 35.499 -47v-78z" />
    <glyph glyph-name="acircumflex" unicode="&#xe2;" horiz-adv-x="538" 
d="M432 487l-161 161l-161 -161l63 -63l98 97l97 -97zM538 16l0.000976562 92.001c-12.667 -10.667 -26.667 -16 -42 -16c-11.333 0 -20.833 3.16699 -28.5 9.5s-11.5 15.166 -11.5 26.499v252h-114v-44c-15.333 18 -33 31.167 -53 39.5s-41.667 12.5 -65 12.5
c-28 0 -53.333 -5.33301 -76 -16s-42 -25 -58 -43s-28.333 -39 -37 -63s-13 -49.333 -13 -76c0 -27.333 4.33301 -53 13 -77s21 -45 37 -63s35.333 -32.333 58 -43s48 -16 76 -16c27.333 0 52 5.5 74 16.5s40.333 28.167 55 51.5c9.33301 -20 22.5 -36.333 39.5 -49
s36.5 -19 58.5 -19c15.333 0 30.666 1.83301 45.999 5.5s29 10.167 41 19.5zM342.001 151.001c-7.33301 -19.333 -19.166 -35.002 -35.499 -47.002s-34.833 -18 -55.5 -18c-14 0 -27 2.83301 -39 8.5s-22.333 13.334 -31 23.001s-15.5 20.667 -20.5 33s-7.5 25.5 -7.5 39.5
s2.5 27.167 7.5 39.5s11.833 23.333 20.5 33s19 17.334 31 23.001s25 8.5 39 8.5c20.667 0 39.167 -6 55.5 -18s28.166 -27.667 35.499 -47v-78z" />
    <glyph glyph-name="atilde" unicode="&#xe3;" horiz-adv-x="538" 
d="M412 487l-0.00195312 85.001c-10 -10 -21.167 -18.5 -33.5 -25.5s-25.833 -10.5 -40.5 -10.5c-12 0 -23.667 2 -35 6s-22.5 8.5 -33.5 13.5s-22.167 9.66699 -33.5 14s-23 6.5 -35 6.5c-16 0 -30.667 -3.83301 -44 -11.5s-25.666 -17.167 -36.999 -28.5v-88
c11.333 11.333 23.5 20.666 36.5 27.999s27.167 11 42.5 11c12 0 23.5 -2 34.5 -6l33 -12.5c11 -4.33301 22.167 -8.5 33.5 -12.5s23 -6 35 -6c15.333 0 29.333 3.5 42 10.5s24.334 15.833 35.001 26.5zM537.998 16.001l0.000976562 92.001
c-12.667 -10.667 -26.667 -16 -42 -16c-11.333 0 -20.833 3.16699 -28.5 9.5s-11.5 15.166 -11.5 26.499v252h-114v-44c-15.333 18 -33 31.167 -53 39.5s-41.667 12.5 -65 12.5c-28 0 -53.333 -5.33301 -76 -16s-42 -25 -58 -43s-28.333 -39 -37 -63s-13 -49.333 -13 -76
c0 -27.333 4.33301 -53 13 -77s21 -45 37 -63s35.333 -32.333 58 -43s48 -16 76 -16c27.333 0 52 5.5 74 16.5s40.333 28.167 55 51.5c9.33301 -20 22.5 -36.333 39.5 -49s36.5 -19 58.5 -19c15.333 0 30.666 1.83301 45.999 5.5s29 10.167 41 19.5zM341.999 151.002
c-7.33301 -19.333 -19.166 -35.002 -35.499 -47.002s-34.833 -18 -55.5 -18c-14 0 -27 2.83301 -39 8.5s-22.333 13.334 -31 23.001s-15.5 20.667 -20.5 33s-7.5 25.5 -7.5 39.5s2.5 27.167 7.5 39.5s11.833 23.333 20.5 33s19 17.334 31 23.001s25 8.5 39 8.5
c20.667 0 39.167 -6 55.5 -18s28.166 -27.667 35.499 -47v-78z" />
    <glyph glyph-name="adieresis" unicode="&#xe4;" horiz-adv-x="538" 
d="M413 512c0 16.667 -5.83301 30.834 -17.5 42.501s-25.834 17.5 -42.501 17.5s-30.667 -5.83301 -42 -17.5s-17 -25.834 -17 -42.501s5.66699 -30.834 17 -42.501s25.333 -17.5 42 -17.5s30.834 5.83301 42.501 17.5s17.5 25.834 17.5 42.501zM240 512
c0 16.667 -5.83301 30.834 -17.5 42.501s-25.834 17.5 -42.501 17.5s-30.834 -5.83301 -42.501 -17.5s-17.5 -25.834 -17.5 -42.501s5.83301 -30.834 17.5 -42.501s25.834 -17.5 42.501 -17.5s30.834 5.83301 42.501 17.5s17.5 25.834 17.5 42.501zM538 16
l0.000976562 92.001c-12.667 -10.667 -26.667 -16 -42 -16c-11.333 0 -20.833 3.16699 -28.5 9.5s-11.5 15.166 -11.5 26.499v252h-114v-44c-15.333 18 -33 31.167 -53 39.5s-41.667 12.5 -65 12.5c-28 0 -53.333 -5.33301 -76 -16s-42 -25 -58 -43s-28.333 -39 -37 -63
s-13 -49.333 -13 -76c0 -27.333 4.33301 -53 13 -77s21 -45 37 -63s35.333 -32.333 58 -43s48 -16 76 -16c27.333 0 52 5.5 74 16.5s40.333 28.167 55 51.5c9.33301 -20 22.5 -36.333 39.5 -49s36.5 -19 58.5 -19c15.333 0 30.666 1.83301 45.999 5.5s29 10.167 41 19.5z
M342.001 151.001c-7.33301 -19.333 -19.166 -35.002 -35.499 -47.002s-34.833 -18 -55.5 -18c-14 0 -27 2.83301 -39 8.5s-22.333 13.334 -31 23.001s-15.5 20.667 -20.5 33s-7.5 25.5 -7.5 39.5s2.5 27.167 7.5 39.5s11.833 23.333 20.5 33s19 17.334 31 23.001
s25 8.5 39 8.5c20.667 0 39.167 -6 55.5 -18s28.166 -27.667 35.499 -47v-78z" />
    <glyph glyph-name="aring" unicode="&#xe5;" horiz-adv-x="538" 
d="M380 542c0 14.667 -2.83301 28.334 -8.5 41.001s-13.167 23.667 -22.5 33s-20.333 16.833 -33 22.5s-26.334 8.5 -41.001 8.5s-28.334 -2.83301 -41.001 -8.5s-23.834 -13.167 -33.501 -22.5s-17.167 -20.333 -22.5 -33s-8 -26.334 -8 -41.001s2.66699 -28.334 8 -41.001
s12.833 -23.834 22.5 -33.501s20.834 -17.167 33.501 -22.5s26.334 -8 41.001 -8s28.334 2.66699 41.001 8s23.667 12.833 33 22.5s16.833 20.834 22.5 33.501s8.5 26.334 8.5 41.001zM538 16l0.000976562 92.001c-12.667 -10.667 -26.667 -16 -42 -16
c-11.333 0 -20.833 3.16699 -28.5 9.5s-11.5 15.166 -11.5 26.499v252h-114v-44c-15.333 18 -33 31.167 -53 39.5s-41.667 12.5 -65 12.5c-28 0 -53.333 -5.33301 -76 -16s-42 -25 -58 -43s-28.333 -39 -37 -63s-13 -49.333 -13 -76c0 -27.333 4.33301 -53 13 -77
s21 -45 37 -63s35.333 -32.333 58 -43s48 -16 76 -16c27.333 0 52 5.5 74 16.5s40.333 28.167 55 51.5c9.33301 -20 22.5 -36.333 39.5 -49s36.5 -19 58.5 -19c15.333 0 30.666 1.83301 45.999 5.5s29 10.167 41 19.5zM329.001 542.001
c0 -15.333 -5.33301 -28.166 -16 -38.499s-23.334 -15.5 -38.001 -15.5c-15.333 0 -28.166 5.16699 -38.499 15.5s-15.5 23.166 -15.5 38.499c0 14.667 5.16699 27.334 15.5 38.001s23.166 16 38.499 16c14.667 0 27.334 -5.33301 38.001 -16s16 -23.334 16 -38.001z
M342.001 151.001c-7.33301 -19.333 -19.166 -35.002 -35.499 -47.002s-34.833 -18 -55.5 -18c-14 0 -27 2.83301 -39 8.5s-22.333 13.334 -31 23.001s-15.5 20.667 -20.5 33s-7.5 25.5 -7.5 39.5s2.5 27.167 7.5 39.5s11.833 23.333 20.5 33s19 17.334 31 23.001
s25 8.5 39 8.5c20.667 0 39.167 -6 55.5 -18s28.166 -27.667 35.499 -47v-78z" />
    <glyph glyph-name="ae" unicode="&#xe6;" horiz-adv-x="724" 
d="M704 295c-19.333 28.667 -41.668 51.3311 -67.001 67.998s-56 25 -92 25c-18 0 -35.667 -3.66699 -53 -11s-32 -18 -44 -32v35h-113v-41c-13.333 17.333 -30.166 30 -50.499 38s-41.166 12 -62.499 12c-26 0 -50.167 -5.66699 -72.5 -17s-41.666 -26.5 -57.999 -45.5
s-29 -40.5 -38 -64.5s-13.5 -48.333 -13.5 -73c0 -27.333 5.16699 -53.166 15.5 -77.499s24.5 -45.5 42.5 -63.5s39.167 -32.167 63.5 -42.5s50.166 -15.5 77.499 -15.5c28.667 0 55.834 6 81.501 18s47.834 29 66.501 51c21.333 -23.333 47 -40.5 77 -51.5
s60.667 -16.5 92 -16.5c17.333 0 35.666 1.83301 54.999 5.5s36.666 9.16699 51.999 16.5v109c-14.667 -13.333 -30.834 -22.666 -48.501 -27.999s-36.167 -8 -55.5 -8c-9.33301 0 -18.5 0.833008 -27.5 2.5s-17.833 4.16699 -26.5 7.5zM567.998 277.997l-120.998 -125.001
c-3.33301 6.66699 -5.5 13.334 -6.5 20.001s-1.5 13.667 -1.5 21c0 28 7.33301 51.667 22 71s36.667 29 66 29c7.33301 0 14.666 -1.33301 21.999 -4s13.666 -6.66699 18.999 -12zM338 188.996c0 -14 -2.5 -27.167 -7.5 -39.5s-11.833 -23.333 -20.5 -33
s-19 -17.167 -31 -22.5s-25.333 -8 -40 -8c-14 0 -27.167 2.66699 -39.5 8s-22.833 12.833 -31.5 22.5s-15.5 20.667 -20.5 33s-7.5 25.5 -7.5 39.5s2.5 27.167 7.5 39.5s11.833 23.333 20.5 33s19.167 17.167 31.5 22.5s25.5 8 39.5 8c14.667 0 28 -2.66699 40 -8
s22.333 -12.833 31 -22.5s15.5 -20.667 20.5 -33s7.5 -25.5 7.5 -39.5z" />
    <glyph glyph-name="ccedilla" unicode="&#xe7;" horiz-adv-x="410" 
d="M370 280c0 20.667 -4.16602 37.833 -12.499 51.5s-19.333 24.834 -33 33.501s-29 14.834 -46 18.501s-34.167 5.5 -51.5 5.5c-26.667 0 -51.5 -5.33301 -74.5 -16s-42.833 -25 -59.5 -43s-29.667 -38.833 -39 -62.5s-14 -48.5 -14 -74.5c0 -28 4.33301 -53.333 13 -76
s20.667 -42.5 36 -59.5s33.666 -30.833 54.999 -41.5s44.666 -18 69.999 -22l-34 -75l33 -40c5.33301 4.66699 12 7 20 7c9.33301 0 17 -3 23 -9s9 -13.333 9 -22c0 -8 -2.33301 -15 -7 -21s-11 -9.66699 -19 -11l1 -51c3.33301 -1.33301 6.33301 -2 9 -2h9
c13.333 0 25.833 2.5 37.5 7.5s21.834 11.833 30.501 20.5s15.5 18.667 20.5 30s7.5 23.666 7.5 36.999c0 25.333 -8.5 47 -25.5 65s-38.167 28 -63.5 30l14 32c14 1.33301 28.167 3.83301 42.5 7.5s27.5 8.16699 39.5 13.5v115c-14 -12 -31 -20.5 -51 -25.5
s-39 -7.5 -57 -7.5c-14.667 0 -28.667 2.16699 -42 6.5s-25 10.666 -35 18.999s-17.833 18.5 -23.5 30.5s-8.5 26 -8.5 42c0 25.333 6.33301 47 19 65s33 27 61 27c-1.33301 -2.66699 -2 -5.33398 -2 -8.00098v-9c0 -8.66699 2.16699 -17 6.5 -25s10 -15 17 -21
s14.667 -10.833 23 -14.5s16.833 -5.5 25.5 -5.5c22.667 0 41 7.33301 55 22s21 33.334 21 56.001z" />
    <glyph glyph-name="egrave" unicode="&#xe8;" horiz-adv-x="428" 
d="M334 487l-160 161l-64 -64l161 -160zM408 296c-22 32 -47.167 55.333 -75.5 70s-61.833 22 -100.5 22c-26 0 -50.667 -5.33301 -74 -16s-43.833 -24.834 -61.5 -42.501s-31.5 -38.334 -41.5 -62.001s-15 -48.5 -15 -74.5c0 -31.333 5.83301 -59.5 17.5 -84.5
s27.5 -46.167 47.5 -63.5s43.333 -30.666 70 -39.999s55 -14 85 -14c17.333 0 35.666 1.83301 54.999 5.5s36.666 9.16699 51.999 16.5v110c-15.333 -13.333 -32.166 -22.666 -50.499 -27.999s-37.166 -8 -56.499 -8c-18.667 0 -36 3 -52 9zM271 279l-122.001 -127
c-5.33301 14 -8 27.667 -8 41c0 26 7.33301 49 22 69s36 30 64 30c6.66699 0 14.334 -0.833008 23.001 -2.5s15.667 -5.16699 21 -10.5z" />
    <glyph glyph-name="eacute" unicode="&#xe9;" horiz-adv-x="428" 
d="M324 584l-63 64l-161 -161l63 -63zM408 296c-22 32 -47.167 55.333 -75.5 70s-61.833 22 -100.5 22c-26 0 -50.667 -5.33301 -74 -16s-43.833 -24.834 -61.5 -42.501s-31.5 -38.334 -41.5 -62.001s-15 -48.5 -15 -74.5c0 -31.333 5.83301 -59.5 17.5 -84.5
s27.5 -46.167 47.5 -63.5s43.333 -30.666 70 -39.999s55 -14 85 -14c17.333 0 35.666 1.83301 54.999 5.5s36.666 9.16699 51.999 16.5v110c-15.333 -13.333 -32.166 -22.666 -50.499 -27.999s-37.166 -8 -56.499 -8c-18.667 0 -36 3 -52 9zM271 279l-122.001 -127
c-5.33301 14 -8 27.667 -8 41c0 26 7.33301 49 22 69s36 30 64 30c6.66699 0 14.334 -0.833008 23.001 -2.5s15.667 -5.16699 21 -10.5z" />
    <glyph glyph-name="ecircumflex" unicode="&#xea;" horiz-adv-x="428" 
d="M382 487l-161 161l-161 -161l63 -63l98 97l97 -97zM408 296c-22 32 -47.167 55.333 -75.5 70s-61.833 22 -100.5 22c-26 0 -50.667 -5.33301 -74 -16s-43.833 -24.834 -61.5 -42.501s-31.5 -38.334 -41.5 -62.001s-15 -48.5 -15 -74.5
c0 -31.333 5.83301 -59.5 17.5 -84.5s27.5 -46.167 47.5 -63.5s43.333 -30.666 70 -39.999s55 -14 85 -14c17.333 0 35.666 1.83301 54.999 5.5s36.666 9.16699 51.999 16.5v110c-15.333 -13.333 -32.166 -22.666 -50.499 -27.999s-37.166 -8 -56.499 -8
c-18.667 0 -36 3 -52 9zM271 279l-122.001 -127c-5.33301 14 -8 27.667 -8 41c0 26 7.33301 49 22 69s36 30 64 30c6.66699 0 14.334 -0.833008 23.001 -2.5s15.667 -5.16699 21 -10.5z" />
    <glyph glyph-name="edieresis" unicode="&#xeb;" horiz-adv-x="428" 
d="M373 512c0 16.667 -5.83301 30.834 -17.5 42.501s-25.834 17.5 -42.501 17.5s-30.667 -5.83301 -42 -17.5s-17 -25.834 -17 -42.501s5.66699 -30.834 17 -42.501s25.333 -17.5 42 -17.5s30.834 5.83301 42.501 17.5s17.5 25.834 17.5 42.501zM200 512
c0 16.667 -5.83301 30.834 -17.5 42.501s-25.834 17.5 -42.501 17.5s-30.834 -5.83301 -42.501 -17.5s-17.5 -25.834 -17.5 -42.501s5.83301 -30.834 17.5 -42.501s25.834 -17.5 42.501 -17.5s30.834 5.83301 42.501 17.5s17.5 25.834 17.5 42.501zM408 296
c-22 32 -47.167 55.333 -75.5 70s-61.833 22 -100.5 22c-26 0 -50.667 -5.33301 -74 -16s-43.833 -24.834 -61.5 -42.501s-31.5 -38.334 -41.5 -62.001s-15 -48.5 -15 -74.5c0 -31.333 5.83301 -59.5 17.5 -84.5s27.5 -46.167 47.5 -63.5s43.333 -30.666 70 -39.999
s55 -14 85 -14c17.333 0 35.666 1.83301 54.999 5.5s36.666 9.16699 51.999 16.5v110c-15.333 -13.333 -32.166 -22.666 -50.499 -27.999s-37.166 -8 -56.499 -8c-18.667 0 -36 3 -52 9zM271 279l-122.001 -127c-5.33301 14 -8 27.667 -8 41c0 26 7.33301 49 22 69
s36 30 64 30c6.66699 0 14.334 -0.833008 23.001 -2.5s15.667 -5.16699 21 -10.5z" />
    <glyph glyph-name="igrave" unicode="&#xec;" horiz-adv-x="265" 
d="M244 487l-160 161l-64 -64l161 -160zM265 16v92.001c-12 -10.667 -26 -16 -42 -16c-10.667 0 -20 3.16699 -28 9.5s-12 15.166 -12 26.499v252h-113v-267c0 -15.333 2.5 -30.333 7.5 -45s12.333 -27.667 22 -39s21.167 -20.5 34.5 -27.5s28.333 -10.5 45 -10.5
c14.667 0 29.667 1.83301 45 5.5s29 10.167 41 19.5z" />
    <glyph glyph-name="iacute" unicode="&#xed;" horiz-adv-x="265" 
d="M234 584l-63 64l-161 -161l63 -63zM265 16v92.001c-12 -10.667 -26 -16 -42 -16c-10.667 0 -20 3.16699 -28 9.5s-12 15.166 -12 26.499v252h-113v-267c0 -15.333 2.5 -30.333 7.5 -45s12.333 -27.667 22 -39s21.167 -20.5 34.5 -27.5s28.333 -10.5 45 -10.5
c14.667 0 29.667 1.83301 45 5.5s29 10.167 41 19.5z" />
    <glyph glyph-name="icircumflex" unicode="&#xee;" horiz-adv-x="265" 
d="M292 487l-161 161l-161 -161l63 -63l98 97l97 -97zM265 16v92.001c-12 -10.667 -26 -16 -42 -16c-10.667 0 -20 3.16699 -28 9.5s-12 15.166 -12 26.499v252h-113v-267c0 -15.333 2.5 -30.333 7.5 -45s12.333 -27.667 22 -39s21.167 -20.5 34.5 -27.5
s28.333 -10.5 45 -10.5c14.667 0 29.667 1.83301 45 5.5s29 10.167 41 19.5z" />
    <glyph glyph-name="idieresis" unicode="&#xef;" horiz-adv-x="265" 
d="M273 512c0 16.667 -5.83301 30.834 -17.5 42.501s-25.834 17.5 -42.501 17.5s-30.667 -5.83301 -42 -17.5s-17 -25.834 -17 -42.501s5.66699 -30.834 17 -42.501s25.333 -17.5 42 -17.5s30.834 5.83301 42.501 17.5s17.5 25.834 17.5 42.501zM100 512
c0 16.667 -5.83301 30.834 -17.5 42.501s-25.834 17.5 -42.501 17.5s-30.834 -5.83301 -42.501 -17.5s-17.5 -25.834 -17.5 -42.501s5.83301 -30.834 17.5 -42.501s25.834 -17.5 42.501 -17.5s30.834 5.83301 42.501 17.5s17.5 25.834 17.5 42.501zM265 16v92.001
c-12 -10.667 -26 -16 -42 -16c-10.667 0 -20 3.16699 -28 9.5s-12 15.166 -12 26.499v252h-113v-267c0 -15.333 2.5 -30.333 7.5 -45s12.333 -27.667 22 -39s21.167 -20.5 34.5 -27.5s28.333 -10.5 45 -10.5c14.667 0 29.667 1.83301 45 5.5s29 10.167 41 19.5z" />
    <glyph glyph-name="eth" unicode="&#xf0;" horiz-adv-x="540" 
d="M540 16v92.001c-12.667 -10.667 -26.667 -16 -42 -16c-11.333 0 -20.833 3.16699 -28.5 9.5s-11.5 15.166 -11.5 26.499v356h58v115h-58v111h-114v-111h-68v-115h68v-151c-15.333 19.333 -33.166 33.333 -53.499 42s-42.5 13 -66.5 13c-28 0 -53.333 -5.33301 -76 -16
s-42 -25 -58 -43s-28.333 -39 -37 -63s-13 -49.333 -13 -76c0 -27.333 4.33301 -53 13 -77s21 -45 37 -63s35.333 -32.333 58 -43s48 -16 76 -16s53 5.83301 75 17.5s40.667 29.167 56 52.5c8 -20.667 20.833 -37.5 38.5 -50.5s37.5 -19.5 59.5 -19.5
c15.333 0 30.666 1.83301 45.999 5.5s29 10.167 41 19.5zM344 157.001c0 -1.33301 -1 -4.17188 -3 -8.50488s-3.33301 -7.16602 -4 -8.49902c-8 -16 -19.667 -29 -35 -39s-32.333 -15 -51 -15c-14 0 -27 2.83301 -39 8.5s-22.333 13.334 -31 23.001s-15.5 20.667 -20.5 33
s-7.5 25.5 -7.5 39.5s2.5 27.167 7.5 39.5s11.833 23.333 20.5 33s19 17.334 31 23.001s25 8.5 39 8.5c18.667 0 35.667 -5 51 -15s27 -23 35 -39c0.666992 -1.33301 2 -4.16602 4 -8.49902s3 -7.16602 3 -8.49902v-66z" />
    <glyph glyph-name="ntilde" unicode="&#xf1;" horiz-adv-x="497" 
d="M382 487l-0.00195312 85.001c-10 -10 -21.167 -18.5 -33.5 -25.5s-25.833 -10.5 -40.5 -10.5c-12 0 -23.667 2 -35 6s-22.5 8.5 -33.5 13.5s-22.167 9.66699 -33.5 14s-23 6.5 -35 6.5c-16 0 -30.667 -3.83301 -44 -11.5s-25.666 -17.167 -36.999 -28.5v-88
c11.333 11.333 23.5 20.666 36.5 27.999s27.167 11 42.5 11c12 0 23.5 -2 34.5 -6l33 -12.5c11 -4.33301 22.167 -8.5 33.5 -12.5s23 -6 35 -6c15.333 0 29.333 3.5 42 10.5s24.334 15.833 35.001 26.5zM496.998 16.001l0.000976562 91.999
c-12.667 -10.667 -26.667 -16 -42 -16c-10.667 0 -20 3.16699 -28 9.5s-12 15.166 -12 26.499v122c0 18.667 -3.33301 36.334 -10 53.001s-15.834 31.334 -27.501 44.001s-25.667 22.667 -42 30s-34.166 11 -53.499 11c-18.667 0 -36.834 -3.66699 -54.501 -11
s-32.167 -18.666 -43.5 -33.999v37h-114v-380h114v223c0 1.33301 0.666992 4.66602 2 9.99902s2.33301 8.66602 3 9.99902c5.33301 14.667 13 26.834 23 36.501s23.333 14.5 40 14.5s29 -5.5 37 -16.5s12 -24.167 12 -39.5v-125c0 -15.333 2.66699 -30.333 8 -45
s12.666 -27.667 21.999 -39s20.833 -20.5 34.5 -27.5s28.834 -10.5 45.501 -10.5c14.667 0 29.667 1.83301 45 5.5s29 10.167 41 19.5z" />
    <glyph glyph-name="ograve" unicode="&#xf2;" horiz-adv-x="478" 
d="M354 487l-160 161l-64 -64l161 -160zM438 189c0 27.333 -5.16699 53.166 -15.5 77.499s-24.5 45.5 -42.5 63.5s-39.167 32.333 -63.5 43s-50.166 16 -77.499 16s-53.166 -5.33301 -77.499 -16s-45.5 -25 -63.5 -43s-32.167 -39.167 -42.5 -63.5
s-15.5 -50.166 -15.5 -77.499s5.16699 -53 15.5 -77s24.5 -45 42.5 -63s39.167 -32.333 63.5 -43s50.166 -16 77.499 -16s53.166 5.33301 77.499 16s45.5 25 63.5 43s32.167 39 42.5 63s15.5 49.667 15.5 77zM342 189c0.666992 -14 -1.66797 -27.168 -7.00098 -39.501
s-12.666 -23.166 -21.999 -32.499s-20.5 -16.666 -33.5 -21.999s-26.5 -8 -40.5 -8s-27.167 2.66699 -39.5 8s-22.833 12.666 -31.5 21.999s-15.5 20.166 -20.5 32.499s-7.5 25.5 -7.5 39.5c0 27.333 8.5 50.833 25.5 70.5s39.167 30.5 66.5 32.5
c-4 -9.33301 -6 -19.333 -6 -30c0 -21.333 7.83301 -39.666 23.5 -54.999s34.167 -23 55.5 -23c12.667 0 25 3.33301 37 10v-5z" />
    <glyph glyph-name="oacute" unicode="&#xf3;" horiz-adv-x="478" 
d="M344 584l-63 64l-161 -161l63 -63zM438 189c0 27.333 -5.16699 53.166 -15.5 77.499s-24.5 45.5 -42.5 63.5s-39.167 32.333 -63.5 43s-50.166 16 -77.499 16s-53.166 -5.33301 -77.499 -16s-45.5 -25 -63.5 -43s-32.167 -39.167 -42.5 -63.5
s-15.5 -50.166 -15.5 -77.499s5.16699 -53 15.5 -77s24.5 -45 42.5 -63s39.167 -32.333 63.5 -43s50.166 -16 77.499 -16s53.166 5.33301 77.499 16s45.5 25 63.5 43s32.167 39 42.5 63s15.5 49.667 15.5 77zM342 189c0.666992 -14 -1.66797 -27.168 -7.00098 -39.501
s-12.666 -23.166 -21.999 -32.499s-20.5 -16.666 -33.5 -21.999s-26.5 -8 -40.5 -8s-27.167 2.66699 -39.5 8s-22.833 12.666 -31.5 21.999s-15.5 20.166 -20.5 32.499s-7.5 25.5 -7.5 39.5c0 27.333 8.5 50.833 25.5 70.5s39.167 30.5 66.5 32.5
c-4 -9.33301 -6 -19.333 -6 -30c0 -21.333 7.83301 -39.666 23.5 -54.999s34.167 -23 55.5 -23c12.667 0 25 3.33301 37 10v-5z" />
    <glyph glyph-name="ocircumflex" unicode="&#xf4;" horiz-adv-x="478" 
d="M392 487l-161 161l-161 -161l63 -63l98 97l97 -97zM438 189c0 27.333 -5.16699 53.166 -15.5 77.499s-24.5 45.5 -42.5 63.5s-39.167 32.333 -63.5 43s-50.166 16 -77.499 16s-53.166 -5.33301 -77.499 -16s-45.5 -25 -63.5 -43s-32.167 -39.167 -42.5 -63.5
s-15.5 -50.166 -15.5 -77.499s5.16699 -53 15.5 -77s24.5 -45 42.5 -63s39.167 -32.333 63.5 -43s50.166 -16 77.499 -16s53.166 5.33301 77.499 16s45.5 25 63.5 43s32.167 39 42.5 63s15.5 49.667 15.5 77zM342 189c0.666992 -14 -1.66797 -27.168 -7.00098 -39.501
s-12.666 -23.166 -21.999 -32.499s-20.5 -16.666 -33.5 -21.999s-26.5 -8 -40.5 -8s-27.167 2.66699 -39.5 8s-22.833 12.666 -31.5 21.999s-15.5 20.166 -20.5 32.499s-7.5 25.5 -7.5 39.5c0 27.333 8.5 50.833 25.5 70.5s39.167 30.5 66.5 32.5
c-4 -9.33301 -6 -19.333 -6 -30c0 -21.333 7.83301 -39.666 23.5 -54.999s34.167 -23 55.5 -23c12.667 0 25 3.33301 37 10v-5z" />
    <glyph glyph-name="otilde" unicode="&#xf5;" horiz-adv-x="478" 
d="M382 487l-0.00195312 85.001c-10 -10 -21.167 -18.5 -33.5 -25.5s-25.833 -10.5 -40.5 -10.5c-12 0 -23.667 2 -35 6s-22.5 8.5 -33.5 13.5s-22.167 9.66699 -33.5 14s-23 6.5 -35 6.5c-16 0 -30.667 -3.83301 -44 -11.5s-25.666 -17.167 -36.999 -28.5v-88
c11.333 11.333 23.5 20.666 36.5 27.999s27.167 11 42.5 11c12 0 23.5 -2 34.5 -6l33 -12.5c11 -4.33301 22.167 -8.5 33.5 -12.5s23 -6 35 -6c15.333 0 29.333 3.5 42 10.5s24.334 15.833 35.001 26.5zM437.998 189.001c0 27.333 -5.16699 53.166 -15.5 77.499
s-24.5 45.5 -42.5 63.5s-39.167 32.333 -63.5 43s-50.166 16 -77.499 16s-53.166 -5.33301 -77.499 -16s-45.5 -25 -63.5 -43s-32.167 -39.167 -42.5 -63.5s-15.5 -50.166 -15.5 -77.499s5.16699 -53 15.5 -77s24.5 -45 42.5 -63s39.167 -32.333 63.5 -43
s50.166 -16 77.499 -16s53.166 5.33301 77.499 16s45.5 25 63.5 43s32.167 39 42.5 63s15.5 49.667 15.5 77zM341.998 189.001c0.666992 -14 -1.66797 -27.168 -7.00098 -39.501s-12.666 -23.166 -21.999 -32.499s-20.5 -16.666 -33.5 -21.999s-26.5 -8 -40.5 -8
s-27.167 2.66699 -39.5 8s-22.833 12.666 -31.5 21.999s-15.5 20.166 -20.5 32.499s-7.5 25.5 -7.5 39.5c0 27.333 8.5 50.833 25.5 70.5s39.167 30.5 66.5 32.5c-4 -9.33301 -6 -19.333 -6 -30c0 -21.333 7.83301 -39.666 23.5 -54.999s34.167 -23 55.5 -23
c12.667 0 25 3.33301 37 10v-5z" />
    <glyph glyph-name="odieresis" unicode="&#xf6;" horiz-adv-x="478" 
d="M383 512c0 16.667 -5.83301 30.834 -17.5 42.501s-25.834 17.5 -42.501 17.5s-30.667 -5.83301 -42 -17.5s-17 -25.834 -17 -42.501s5.66699 -30.834 17 -42.501s25.333 -17.5 42 -17.5s30.834 5.83301 42.501 17.5s17.5 25.834 17.5 42.501zM210 512
c0 16.667 -5.83301 30.834 -17.5 42.501s-25.834 17.5 -42.501 17.5s-30.834 -5.83301 -42.501 -17.5s-17.5 -25.834 -17.5 -42.501s5.83301 -30.834 17.5 -42.501s25.834 -17.5 42.501 -17.5s30.834 5.83301 42.501 17.5s17.5 25.834 17.5 42.501zM438 189
c0 27.333 -5.16699 53.166 -15.5 77.499s-24.5 45.5 -42.5 63.5s-39.167 32.333 -63.5 43s-50.166 16 -77.499 16s-53.166 -5.33301 -77.499 -16s-45.5 -25 -63.5 -43s-32.167 -39.167 -42.5 -63.5s-15.5 -50.166 -15.5 -77.499s5.16699 -53 15.5 -77s24.5 -45 42.5 -63
s39.167 -32.333 63.5 -43s50.166 -16 77.499 -16s53.166 5.33301 77.499 16s45.5 25 63.5 43s32.167 39 42.5 63s15.5 49.667 15.5 77zM342 189c0.666992 -14 -1.66797 -27.168 -7.00098 -39.501s-12.666 -23.166 -21.999 -32.499s-20.5 -16.666 -33.5 -21.999
s-26.5 -8 -40.5 -8s-27.167 2.66699 -39.5 8s-22.833 12.666 -31.5 21.999s-15.5 20.166 -20.5 32.499s-7.5 25.5 -7.5 39.5c0 27.333 8.5 50.833 25.5 70.5s39.167 30.5 66.5 32.5c-4 -9.33301 -6 -19.333 -6 -30c0 -21.333 7.83301 -39.666 23.5 -54.999
s34.167 -23 55.5 -23c12.667 0 25 3.33301 37 10v-5z" />
    <glyph glyph-name="oslash" unicode="&#xf8;" horiz-adv-x="487" 
d="M450 351l-44.998 45.999l-46 -46c-16.667 12 -34.834 21.333 -54.501 28s-39.834 10 -60.501 10c-27.333 0 -53.166 -5.33301 -77.499 -16s-45.5 -25 -63.5 -43s-32.167 -39.167 -42.5 -63.5s-15.5 -50.166 -15.5 -77.499c0 -42.667 12.333 -81 37 -115l-45 -45l46 -46
l44 45c17.333 -12 35.833 -21.333 55.5 -28s40.167 -10 61.5 -10c27.333 0 53.166 5.33301 77.499 16s45.5 25 63.5 43s32.167 39 42.5 63s15.5 49.667 15.5 77c0 43.333 -12.667 82.333 -38 117zM289.002 280.999l-136 -136c-6.66699 15.333 -10 30 -10 44
s2.66699 27.167 8 39.5s12.5 23.333 21.5 33s19.667 17.167 32 22.5s25.5 8 39.5 8c15.333 0 30.333 -3.66699 45 -11zM344.002 188.999c0 -14 -2.66699 -27.1699 -8 -39.5029s-12.5 -23.166 -21.5 -32.499s-19.5 -16.666 -31.5 -21.999s-25 -8 -39 -8
c-16 0 -31.333 3.66699 -46 11l136 137c6.66699 -13.333 10 -28.666 10 -45.999z" />
    <glyph glyph-name="ugrave" unicode="&#xf9;" horiz-adv-x="497" 
d="M364 487l-160 161l-64 -64l161 -160zM497 16l0.00195312 92.002c-12.667 -10.667 -26.667 -16 -42 -16c-10.667 0 -20 3.16699 -28 9.5s-12 15.166 -12 26.499v252h-114v-224c0 -1.33301 -0.666992 -4.5 -2 -9.5s-2.33301 -8.16699 -3 -9.5
c-5.33301 -14.667 -13 -26.834 -23 -36.501s-23.333 -14.5 -40 -14.5s-29 5.5 -37 16.5s-12 24.167 -12 39.5v238h-114v-250c0 -18.667 3.33301 -36.5 10 -53.5s15.834 -31.833 27.501 -44.5s25.667 -22.834 42 -30.501s34.166 -11.5 53.499 -11.5
c23.333 0 45.166 5.66699 65.499 17s35.166 28 44.499 50c9.33301 -19.333 22.5 -35.166 39.5 -47.499s36.5 -18.5 58.5 -18.5c14.667 0 29.667 1.83301 45 5.5s29 10.167 41 19.5z" />
    <glyph glyph-name="uacute" unicode="&#xfa;" horiz-adv-x="497" 
d="M344 584l-63 64l-161 -161l63 -63zM497 16l0.00195312 92.002c-12.667 -10.667 -26.667 -16 -42 -16c-10.667 0 -20 3.16699 -28 9.5s-12 15.166 -12 26.499v252h-114v-224c0 -1.33301 -0.666992 -4.5 -2 -9.5s-2.33301 -8.16699 -3 -9.5
c-5.33301 -14.667 -13 -26.834 -23 -36.501s-23.333 -14.5 -40 -14.5s-29 5.5 -37 16.5s-12 24.167 -12 39.5v238h-114v-250c0 -18.667 3.33301 -36.5 10 -53.5s15.834 -31.833 27.501 -44.5s25.667 -22.834 42 -30.501s34.166 -11.5 53.499 -11.5
c23.333 0 45.166 5.66699 65.499 17s35.166 28 44.499 50c9.33301 -19.333 22.5 -35.166 39.5 -47.499s36.5 -18.5 58.5 -18.5c14.667 0 29.667 1.83301 45 5.5s29 10.167 41 19.5z" />
    <glyph glyph-name="ucircumflex" unicode="&#xfb;" horiz-adv-x="497" 
d="M402 487l-161 161l-161 -161l63 -63l98 97l97 -97zM497 16l0.00195312 92.002c-12.667 -10.667 -26.667 -16 -42 -16c-10.667 0 -20 3.16699 -28 9.5s-12 15.166 -12 26.499v252h-114v-224c0 -1.33301 -0.666992 -4.5 -2 -9.5s-2.33301 -8.16699 -3 -9.5
c-5.33301 -14.667 -13 -26.834 -23 -36.501s-23.333 -14.5 -40 -14.5s-29 5.5 -37 16.5s-12 24.167 -12 39.5v238h-114v-250c0 -18.667 3.33301 -36.5 10 -53.5s15.834 -31.833 27.501 -44.5s25.667 -22.834 42 -30.501s34.166 -11.5 53.499 -11.5
c23.333 0 45.166 5.66699 65.499 17s35.166 28 44.499 50c9.33301 -19.333 22.5 -35.166 39.5 -47.499s36.5 -18.5 58.5 -18.5c14.667 0 29.667 1.83301 45 5.5s29 10.167 41 19.5z" />
    <glyph glyph-name="udieresis" unicode="&#xfc;" horiz-adv-x="497" 
d="M383 512c0 16.667 -5.83301 30.834 -17.5 42.501s-25.834 17.5 -42.501 17.5s-30.667 -5.83301 -42 -17.5s-17 -25.834 -17 -42.501s5.66699 -30.834 17 -42.501s25.333 -17.5 42 -17.5s30.834 5.83301 42.501 17.5s17.5 25.834 17.5 42.501zM210 512
c0 16.667 -5.83301 30.834 -17.5 42.501s-25.834 17.5 -42.501 17.5s-30.834 -5.83301 -42.501 -17.5s-17.5 -25.834 -17.5 -42.501s5.83301 -30.834 17.5 -42.501s25.834 -17.5 42.501 -17.5s30.834 5.83301 42.501 17.5s17.5 25.834 17.5 42.501zM497 16
l0.00195312 92.002c-12.667 -10.667 -26.667 -16 -42 -16c-10.667 0 -20 3.16699 -28 9.5s-12 15.166 -12 26.499v252h-114v-224c0 -1.33301 -0.666992 -4.5 -2 -9.5s-2.33301 -8.16699 -3 -9.5c-5.33301 -14.667 -13 -26.834 -23 -36.501s-23.333 -14.5 -40 -14.5
s-29 5.5 -37 16.5s-12 24.167 -12 39.5v238h-114v-250c0 -18.667 3.33301 -36.5 10 -53.5s15.834 -31.833 27.501 -44.5s25.667 -22.834 42 -30.501s34.166 -11.5 53.499 -11.5c23.333 0 45.166 5.66699 65.499 17s35.166 28 44.499 50
c9.33301 -19.333 22.5 -35.166 39.5 -47.499s36.5 -18.5 58.5 -18.5c14.667 0 29.667 1.83301 45 5.5s29 10.167 41 19.5z" />
    <glyph glyph-name="yacute" unicode="&#xfd;" horiz-adv-x="485" 
d="M354 584l-63 64l-161 -161l63 -63zM415 -72l0.000976562 451.999h-114v-224c0 -1.33301 -0.833008 -5.16602 -2.5 -11.499s-3.16699 -10.166 -4.5 -11.499c-5.33301 -14 -13 -25.333 -23 -34s-22.667 -13 -38 -13c-16.667 0 -29 5.5 -37 16.5s-12 24.167 -12 39.5v238
h-114v-250c0 -18.667 3.33301 -36.5 10 -53.5s15.834 -31.833 27.501 -44.5s25.667 -22.834 42 -30.501s34.166 -11.5 53.499 -11.5s37.666 3.83301 54.999 11.5s31.666 19.167 42.999 34.5v-108c0 -17.333 -6.5 -32.5 -19.5 -45.5s-28.167 -19.5 -45.5 -19.5l43 -95
c20.667 0 39.334 4.83301 56.001 14.5s31 22.167 43 37.5s21.167 32.5 27.5 51.5s9.5 37.833 9.5 56.5z" />
    <glyph glyph-name="thorn" unicode="&#xfe;" horiz-adv-x="528" 
d="M488 190c0 26.667 -4.33301 52 -13 76s-21 45 -37 63s-35.333 32.333 -58 43s-48 16 -76 16c-24 0 -46.333 -4.33301 -67 -13s-38.334 -22.667 -53.001 -42v377h-114v-934h114v270c14.667 -19.333 32.334 -33.333 53.001 -42s43 -13 67 -13c28 0 53.333 5.33301 76 16
s42 25 58 43s28.333 39 37 63s13 49.667 13 77zM375 190c0 -14 -2.5 -27.1611 -7.5 -39.4941s-11.833 -23.333 -20.5 -33s-19 -17.334 -31 -23.001s-25 -8.5 -39 -8.5c-18.667 0 -35.667 5 -51 15s-27 23 -35 39c-0.666992 1.33301 -2 4.16602 -4 8.49902
s-3 7.16602 -3 8.49902v66c0 1.33301 1 4.16602 3 8.49902s3.33301 7.16602 4 8.49902c8 16 19.667 29 35 39s32.333 15 51 15c14 0 27 -2.83301 39 -8.5s22.333 -13.334 31 -23.001s15.5 -20.667 20.5 -33s7.5 -25.5 7.5 -39.5z" />
    <glyph glyph-name="ydieresis" unicode="&#xff;" horiz-adv-x="485" 
d="M393 512c0 16.667 -5.83301 30.834 -17.5 42.501s-25.834 17.5 -42.501 17.5s-30.667 -5.83301 -42 -17.5s-17 -25.834 -17 -42.501s5.66699 -30.834 17 -42.501s25.333 -17.5 42 -17.5s30.834 5.83301 42.501 17.5s17.5 25.834 17.5 42.501zM220 512
c0 16.667 -5.83301 30.834 -17.5 42.501s-25.834 17.5 -42.501 17.5s-30.834 -5.83301 -42.501 -17.5s-17.5 -25.834 -17.5 -42.501s5.83301 -30.834 17.5 -42.501s25.834 -17.5 42.501 -17.5s30.834 5.83301 42.501 17.5s17.5 25.834 17.5 42.501zM415 -72
l0.000976562 451.999h-114v-224c0 -1.33301 -0.833008 -5.16602 -2.5 -11.499s-3.16699 -10.166 -4.5 -11.499c-5.33301 -14 -13 -25.333 -23 -34s-22.667 -13 -38 -13c-16.667 0 -29 5.5 -37 16.5s-12 24.167 -12 39.5v238h-114v-250c0 -18.667 3.33301 -36.5 10 -53.5
s15.834 -31.833 27.501 -44.5s25.667 -22.834 42 -30.501s34.166 -11.5 53.499 -11.5s37.666 3.83301 54.999 11.5s31.666 19.167 42.999 34.5v-108c0 -17.333 -6.5 -32.5 -19.5 -45.5s-28.167 -19.5 -45.5 -19.5l43 -95c20.667 0 39.334 4.83301 56.001 14.5
s31 22.167 43 37.5s21.167 32.5 27.5 51.5s9.5 37.833 9.5 56.5z" />
    <glyph glyph-name="dotlessi" unicode="&#x131;" horiz-adv-x="265" 
d="M265 16v92.001c-12 -10.667 -26 -16 -42 -16c-10.667 0 -20 3.16699 -28 9.5s-12 15.166 -12 26.499v252h-113v-267c0 -15.333 2.5 -30.333 7.5 -45s12.333 -27.667 22 -39s21.167 -20.5 34.5 -27.5s28.333 -10.5 45 -10.5c14.667 0 29.667 1.83301 45 5.5
s29 10.167 41 19.5z" />
    <glyph glyph-name="OE" unicode="&#x152;" horiz-adv-x="1042" 
d="M1022 525c0 29.333 -7.33496 57.6709 -22.002 85.0039c-11.333 20 -25.5 37.167 -42.5 51.5s-35.667 25.833 -56 34.5s-41.666 15 -63.999 19s-44.5 6 -66.5 6c-30.667 0 -60.834 -3 -90.501 -9s-58.167 -16 -85.5 -30c-26.667 13.333 -54.334 23.166 -83.001 29.499
s-58 9.5 -88 9.5c-38 0 -74.5 -4.66699 -109.5 -14s-67.667 -23 -98 -41s-57.666 -40.333 -81.999 -67s-44.5 -57.334 -60.5 -92.001c-22.667 -48.667 -34 -99 -34 -151s11.333 -102.333 34 -151c16 -34.667 36.167 -65.334 60.5 -92.001s51.666 -49 81.999 -67
s63 -31.667 98 -41s71.5 -14 109.5 -14c60.667 0 117.667 13 171 39c21.333 -15.333 44.833 -25.666 70.5 -30.999s51.167 -8 76.5 -8c14.667 0 29 0.333008 43 1s27.5 2.16699 40.5 4.5s26 5.83301 39 10.5s26.167 10.667 39.5 18v120
c-21.333 -17.333 -43.333 -29.333 -66 -36s-48 -10 -76 -10c-7.33301 0 -16.666 0.666992 -27.999 2s-22.166 3.66602 -32.499 6.99902s-19.333 8.16602 -27 14.499s-11.5 14.5 -11.5 24.5c0 15.333 5.16699 27.166 15.5 35.499s22.666 14.5 36.999 18.5s29.333 6.5 45 7.5
s28.834 1.5 39.501 1.5v109c-3.33301 -0.666992 -6.66602 -1 -9.99902 -1h-9c-36 0 -70 7.66699 -102 23s-56.667 39.666 -74 72.999c-4.66699 8.66699 -8.33398 17.834 -11.001 27.501s-4 19.167 -4 28.5c0 24 5.33301 44.5 16 61.5s24.5 31 41.5 42s36 19.167 57 24.5
s41.833 8 62.5 8c13.333 0 27.833 -1 43.5 -3s30.334 -5.83301 44.001 -11.5s25.167 -13.834 34.5 -24.501s14 -24.667 14 -42c0 -12.667 -3.16699 -23.5 -9.5 -32.5s-14.333 -16.5 -24 -22.5s-20.167 -10.667 -31.5 -14s-22.333 -5.66602 -33 -6.99902l38 -112
c26 2.66699 49.833 9.16699 71.5 19.5s40.5 23.5 56.5 39.5s28.5 34.833 37.5 56.5s13.5 45.834 13.5 72.501zM631.998 265.005c-14 -1.33301 -26.834 -6.16602 -38.501 -14.499s-21.834 -18.5 -30.501 -30.5s-15.167 -25 -19.5 -39s-6.16602 -27.333 -5.49902 -40v-5
c-17.333 -9.33301 -35.333 -16.166 -54 -20.499s-37.667 -6.5 -57 -6.5c-38 0 -73 5.66699 -105 17s-59.667 27.5 -83 48.5s-41.5 46.833 -54.5 77.5s-19.5 65.334 -19.5 104.001s6.5 73.334 19.5 104.001s31.167 56.667 54.5 78s51 37.666 83 48.999s67 17 105 17
c22.667 0 46 -3.66699 70 -11c-11.333 -18.667 -19.666 -38.5 -24.999 -59.5s-8 -42.167 -8 -63.5c0 -24 4.33301 -47.333 13 -70s20.5 -43.334 35.5 -62.001s32.667 -34.334 53 -47.001s42.5 -21.334 66.5 -26.001z" />
    <glyph glyph-name="oe" unicode="&#x153;" horiz-adv-x="725" 
d="M705 295c-21.333 31.333 -45.665 54.8291 -72.998 70.4961s-60.333 23.5 -99 23.5c-28 0 -54.667 -6.16699 -80 -18.5s-47.333 -29.166 -66 -50.499c-18.667 22 -40.834 38.833 -66.501 50.5s-52.834 17.5 -81.501 17.5c-27.333 0 -53.166 -5.16699 -77.499 -15.5
s-45.5 -24.5 -63.5 -42.5s-32.167 -39.167 -42.5 -63.5s-15.5 -50.166 -15.5 -77.499s5.16699 -53.166 15.5 -77.499s24.5 -45.5 42.5 -63.5s39.167 -32.167 63.5 -42.5s50.166 -15.5 77.499 -15.5c29.333 0 56.833 6 82.5 18s47.834 29 66.501 51
c21.333 -23.333 47 -40.5 77 -51.5s61 -16.5 93 -16.5c17.333 0 35.5 1.83301 54.5 5.5s36.167 9.16699 51.5 16.5v109c-14.667 -13.333 -30.834 -22.666 -48.501 -27.999s-36.167 -8 -55.5 -8c-9.33301 0 -18.5 0.833008 -27.5 2.5s-17.833 4.16699 -26.5 7.5z
M571.001 277.996l-121.998 -125.001c-4.66699 12 -7 25 -7 39c0 27.333 7.33301 51 22 71s36.667 30 66 30c7.33301 0 14.666 -1.16699 21.999 -3.5s13.666 -6.16602 18.999 -11.499zM339.003 188.995c0 -14 -2.50098 -27.167 -7.50098 -39.5s-12 -23.333 -21 -33
s-19.667 -17.167 -32 -22.5s-25.5 -8 -39.5 -8s-27.167 2.66699 -39.5 8s-22.833 12.833 -31.5 22.5s-15.5 20.667 -20.5 33s-7.5 25.5 -7.5 39.5c0 28.667 9.33301 53 28 73s42.334 30 71.001 30s52.5 -10 71.5 -30s28.5 -44.333 28.5 -73z" />
    <glyph glyph-name="Scaron" unicode="&#x160;" horiz-adv-x="473" 
d="M426 883l-63 63l-97 -97l-98 97l-63 -63l161 -161zM473 534c0 29.333 -6.32812 55.6699 -18.9951 79.0029s-29.5 43 -50.5 59s-44.667 28.167 -71 36.5s-52.833 12.5 -79.5 12.5c-30.667 0 -60 -4.5 -88 -13.5s-52.833 -22.333 -74.5 -40
s-38.834 -39.334 -51.501 -65.001s-19 -54.834 -19 -87.501s6.5 -60.834 19.5 -84.501s29.167 -44.667 48.5 -63s40.166 -34.833 62.499 -49.5s43.166 -29.5 62.499 -44.5s35.5 -30.5 48.5 -46.5s19.5 -34.667 19.5 -56c0 -20 -6.66699 -35.667 -20 -47
s-29.666 -17 -48.999 -17c-20.667 0 -39.334 5 -56.001 15s-32 22 -46 36v-138c16 -11.333 32.167 -19 48.5 -23s34.166 -6 53.499 -6c27.333 0 52.666 4 75.999 12s43.5 19.667 60.5 35s30.333 34.166 40 56.499s14.5 47.833 14.5 76.5
c0 30.667 -6.33301 57.834 -19 81.501s-28.667 45 -48 64s-40.166 36.5 -62.499 52.5l-62.5 46.5c-19.333 15 -35.333 30.5 -48 46.5s-19 33.667 -19 53c0 14.667 3.16699 27.834 9.5 39.501s14.666 21.667 24.999 30s22 14.666 35 18.999s26.167 6.5 39.5 6.5
c24.667 0 46.5 -6.66699 65.5 -20s28.5 -33.333 28.5 -60c0 -16 -4.83301 -28.667 -14.5 -38s-21.167 -17 -34.5 -23l81 -75c28.667 12 51.5 30.5 68.5 55.5s25.5 53.167 25.5 84.5z" />
    <glyph glyph-name="scaron" unicode="&#x161;" horiz-adv-x="282" 
d="M312 584l-64 64l-97 -97l-98 97l-63 -64l161 -160zM242 111c0 18 -3.33203 34.499 -9.99902 49.499s-13.834 28.833 -21.501 41.5l-21.5 34.5c-6.66699 10.333 -10 19.833 -10 28.5c0 12 3 21.667 9 29s14 13.666 24 18.999l-65 78c-54 -25.333 -81 -67.333 -81 -126
c0 -14 3.33301 -27.333 10 -40s13.834 -25 21.501 -37l21.5 -34c6.66699 -10.667 10 -21 10 -31c0 -10.667 -3.33301 -19 -10 -25s-15.334 -9 -26.001 -9c-9.33301 0 -19 3 -29 9s-18 12 -24 18v-106c12.667 -7.33301 27 -12.333 43 -15s31 -4 45 -4
c17.333 0 33 3.16699 47 9.5s26 14.833 36 25.5s17.667 23.334 23 38.001s8 30.334 8 47.001z" />
    <glyph glyph-name="Ydieresis" unicode="&#x178;" 
d="M684 813c0 16.667 -5.83301 30.834 -17.5 42.501s-25.834 17.5 -42.501 17.5s-30.834 -5.83301 -42.501 -17.5s-17.5 -25.834 -17.5 -42.501s5.83301 -30.834 17.5 -42.501s25.834 -17.5 42.501 -17.5s30.834 5.83301 42.501 17.5s17.5 25.834 17.5 42.501zM510 813
c0 16.667 -5.66699 30.834 -17 42.501s-25.333 17.5 -42 17.5s-30.834 -5.83301 -42.501 -17.5s-17.5 -25.834 -17.5 -42.501s5.83301 -30.834 17.5 -42.501s25.834 -17.5 42.501 -17.5s30.667 5.83301 42 17.5s17 25.834 17 42.501zM778 -90l-0.000976562 388.003v412h-125
v-487c0 -36 -9.16699 -64.5 -27.5 -85.5s-45.833 -31.5 -82.5 -31.5c-36 0 -64.167 10.5 -84.5 31.5s-30.5 49.5 -30.5 85.5v271c0 32.667 -4.33301 62.834 -13 90.501s-21.667 51.667 -39 72s-39 36.166 -65 47.499s-56 17 -90 17
c-60.667 0 -109.334 -17.167 -146.001 -51.5s-55 -82.166 -55 -143.499c0 -32 7.66699 -62.5 23 -91.5s37 -51.5 65 -67.5l88 79c-14 6.66699 -25.833 17.667 -35.5 33s-14.5 31 -14.5 47c0 21.333 7.16699 39.666 21.5 54.999s32.166 23 53.499 23
c14.667 0 27.167 -3.33301 37.5 -10s18.833 -15.334 25.5 -26.001s11.5 -22.5 14.5 -35.5s4.5 -25.833 4.5 -38.5v-271c0 -31.333 5.33301 -61 16 -89s25.834 -52.5 45.501 -73.5s42.834 -37.833 69.501 -50.5s56 -19 88 -19c27.333 0 52 3.66699 74 11s41 22.666 57 45.999
v-138c0 -18 -4.16699 -33.333 -12.5 -46s-22.166 -20.334 -41.499 -23.001l68 -102c36 19.333 63.5 41.833 82.5 67.5s28.5 60.167 28.5 103.5z" />
    <glyph glyph-name="florin" unicode="&#x192;" horiz-adv-x="357" 
d="M377 398l-0.00195312 110c-24 18.667 -50.667 28 -80 28c-25.333 0 -48.833 -4.33301 -70.5 -13s-40.5 -20.667 -56.5 -36s-28.5 -33.5 -37.5 -54.5s-13.5 -44.167 -13.5 -69.5v-41h-99v-107h99v-64c0 -16.667 -6.5 -31.667 -19.5 -45s-28.167 -20 -45.5 -20l43 -95
c20.667 0 39.334 4.83301 56.001 14.5s31 22.167 43 37.5s21.167 32.5 27.5 51.5s9.5 37.833 9.5 56.5v64h97v107h-97v41c0 17.333 6.5 31.833 19.5 43.5s27.833 17.5 44.5 17.5c14.667 0 28.834 -2 42.501 -6s26.167 -10.667 37.5 -20z" />
    <glyph glyph-name="circumflex" unicode="&#x2c6;" horiz-adv-x="362" 
d="M342 487l-161 161l-161 -161l63 -63l98 97l97 -97z" />
    <glyph glyph-name="caron" unicode="&#x2c7;" horiz-adv-x="362" 
d="M342 584l-64 64l-97 -97l-98 97l-63 -64l161 -160z" />
    <glyph glyph-name="breve" unicode="&#x2d8;" horiz-adv-x="376" 
d="M356 543l-65 62c-13.333 -14 -29 -25 -47 -33s-36.667 -12 -56 -12s-38 4 -56 12s-33.667 19 -47 33l-65 -62c22 -23.333 47.5 -41.166 76.5 -53.499s59.5 -18.5 91.5 -18.5s62.5 6.16699 91.5 18.5s54.5 30.166 76.5 53.499z" />
    <glyph glyph-name="dotaccent" unicode="&#x2d9;" horiz-adv-x="197" 
d="M177 537c0 21.333 -7.66699 39.833 -23 55.5s-33.666 23.5 -54.999 23.5c-22 0 -40.667 -7.83301 -56 -23.5s-23 -34.167 -23 -55.5s7.66699 -39.833 23 -55.5s34 -23.5 56 -23.5c21.333 0 39.666 7.83301 54.999 23.5s23 34.167 23 55.5z" />
    <glyph glyph-name="ring" unicode="&#x2da;" horiz-adv-x="250" 
d="M230 542c0 14.667 -2.83301 28.334 -8.5 41.001s-13.167 23.667 -22.5 33s-20.333 16.833 -33 22.5s-26.334 8.5 -41.001 8.5s-28.334 -2.83301 -41.001 -8.5s-23.834 -13.167 -33.501 -22.5s-17.167 -20.333 -22.5 -33s-8 -26.334 -8 -41.001s2.66699 -28.334 8 -41.001
s12.833 -23.834 22.5 -33.501s20.834 -17.167 33.501 -22.5s26.334 -8 41.001 -8s28.334 2.66699 41.001 8s23.667 12.833 33 22.5s16.833 20.834 22.5 33.501s8.5 26.334 8.5 41.001zM179 542c0 -15.333 -5.33301 -28.166 -16 -38.499s-23.334 -15.5 -38.001 -15.5
c-15.333 0 -28.166 5.16699 -38.499 15.5s-15.5 23.166 -15.5 38.499c0 14.667 5.16699 27.334 15.5 38.001s23.166 16 38.499 16c14.667 0 27.334 -5.33301 38.001 -16s16 -23.334 16 -38.001z" />
    <glyph glyph-name="ogonek" unicode="&#x2db;" horiz-adv-x="188" 
d="M168 -157l-39.998 51c-2.66699 -3.33301 -5.83398 -6.16602 -9.50098 -8.49902s-7.83398 -3.5 -12.501 -3.5c-5.33301 0 -9.33301 1.83301 -12 5.5s-4 8.16699 -4 13.5v99h-70v-103c0 -24.667 8 -44.834 24 -60.501s36 -23.5 60 -23.5c12 0 23.833 2.5 35.5 7.5
s21.167 12.5 28.5 22.5z" />
    <glyph glyph-name="tilde" unicode="&#x2dc;" horiz-adv-x="332" 
d="M312 527l-0.00195312 85.001c-10 -10 -21.167 -18.5 -33.5 -25.5s-25.833 -10.5 -40.5 -10.5c-12 0 -23.667 2 -35 6s-22.5 8.5 -33.5 13.5s-22.167 9.66699 -33.5 14s-23 6.5 -35 6.5c-16 0 -30.667 -3.83301 -44 -11.5s-25.666 -17.167 -36.999 -28.5v-88
c11.333 11.333 23.5 20.666 36.5 27.999s27.167 11 42.5 11c12 0 23.5 -2 34.5 -6l33 -12.5c11 -4.33301 22.167 -8.5 33.5 -12.5s23 -6 35 -6c15.333 0 29.333 3.5 42 10.5s24.334 15.833 35.001 26.5z" />
    <glyph glyph-name="hungarumlaut" unicode="&#x2dd;" horiz-adv-x="348" 
d="M328 635l-62 30l-98 -205l62 -30zM180 635l-62 30l-98 -205l62 -30z" />
    <glyph glyph-name="pi" unicode="&#x3c0;" horiz-adv-x="634" 
d="M594 268c0 38 -7.33301 73.833 -22 107.5s-34.5 63 -59.5 88s-54.333 44.833 -88 59.5s-69.5 22 -107.5 22s-73.833 -7.33301 -107.5 -22s-63 -34.5 -88 -59.5s-44.833 -54.333 -59.5 -88s-22 -69.5 -22 -107.5s7.33301 -73.833 22 -107.5s34.5 -63 59.5 -88
s54.333 -44.833 88 -59.5s69.5 -22 107.5 -22s73.833 7.33301 107.5 22s63 34.5 88 59.5s44.833 54.333 59.5 88s22 69.5 22 107.5zM554 268c0 -32.667 -6.16699 -63.334 -18.5 -92.001s-29.333 -53.834 -51 -75.501s-46.834 -38.667 -75.501 -51
s-59.334 -18.5 -92.001 -18.5s-63.334 6.16699 -92.001 18.5s-53.834 29.333 -75.501 51s-38.667 46.834 -51 75.501s-18.5 59.334 -18.5 92.001s6.16699 63.334 18.5 92.001s29.333 53.834 51 75.501s46.834 38.667 75.501 51s59.334 18.5 92.001 18.5
s63.334 -6.16699 92.001 -18.5s53.834 -29.333 75.501 -51s38.667 -46.834 51 -75.501s18.5 -59.334 18.5 -92.001zM474 315c0 14.667 -2.83301 28.667 -8.5 42s-13.5 25 -23.5 35s-21.667 17.833 -35 23.5s-27.666 8.5 -42.999 8.5h-161v-312h86v94h75
c15.333 0 29.666 2.83301 42.999 8.5s25 13.5 35 23.5s17.833 21.5 23.5 34.5s8.5 27.167 8.5 42.5zM389 315c0 -11.333 -4 -20.833 -12 -28.5s-17.667 -11.5 -29 -11.5h-59v81h59c11.333 0 21 -4 29 -12s12 -17.667 12 -29z" />
    <glyph glyph-name="endash" unicode="&#x2013;" horiz-adv-x="460" 
d="M430 181v116h-400v-116h400z" />
    <glyph glyph-name="emdash" unicode="&#x2014;" horiz-adv-x="700" 
d="M670 181v116h-640v-116h640z" />
    <glyph glyph-name="quoteleft" unicode="&#x2018;" horiz-adv-x="275" 
d="M216 540c0 20.667 -6.83008 38.502 -20.4971 53.502s-30.834 23.167 -51.501 24.5c8.66699 12 18.667 22.667 30 32s23.666 17.666 36.999 24.999l-39 46c-15.333 -8 -30 -17.5 -44 -28.5s-26.5 -23.5 -37.5 -37.5s-19.667 -29.333 -26 -46s-9.5 -34 -9.5 -52
c0 -26.667 6.66699 -49.334 20 -68.001s34.333 -28 63 -28c21.333 0 39.666 7.83301 54.999 23.5s23 34.167 23 55.5z" />
    <glyph glyph-name="quoteright" unicode="&#x2019;" horiz-adv-x="275" 
d="M220 625c0 26.667 -6.49805 49.334 -19.498 68.001s-33.833 28 -62.5 28c-22 0 -40.667 -7.66699 -56 -23s-23 -34 -23 -56c0 -20.667 7 -38.334 21 -53.001s31.333 -23 52 -25c-8.66699 -11.333 -18.834 -21.833 -30.501 -31.5s-23.834 -18.167 -36.501 -25.5l39 -46
c15.333 8 30 17.667 44 29s26.333 24 37 38s19.167 29.167 25.5 45.5s9.5 33.5 9.5 51.5z" />
    <glyph glyph-name="quotesinglbase" unicode="&#x201a;" horiz-adv-x="275" 
d="M220 52c0 26.667 -6.49805 49.334 -19.498 68.001s-33.833 28 -62.5 28c-22 0 -40.667 -7.66699 -56 -23s-23 -34 -23 -56c0 -20.667 7 -38.334 21 -53.001s31.333 -23 52 -25c-8.66699 -11.333 -18.834 -21.833 -30.501 -31.5s-23.834 -18.167 -36.501 -25.5l39 -46
c15.333 8 30 17.667 44 29s26.333 24 37 38s19.167 29.167 25.5 45.5s9.5 33.5 9.5 51.5z" />
    <glyph glyph-name="quotedblleft" unicode="&#x201c;" horiz-adv-x="465" 
d="M406 540c0 20.667 -6.83008 38.502 -20.4971 53.502s-30.834 23.167 -51.501 24.5c8.66699 12 18.667 22.667 30 32s23.666 17.666 36.999 24.999l-39 46c-15.333 -8 -30 -17.5 -44 -28.5s-26.5 -23.5 -37.5 -37.5s-19.667 -29.333 -26 -46s-9.5 -34 -9.5 -52
c0 -26.667 6.66699 -49.334 20 -68.001s34.333 -28 63 -28c21.333 0 39.666 7.83301 54.999 23.5s23 34.167 23 55.5zM216.003 540.002c0 20.667 -6.83008 38.502 -20.4971 53.502s-30.834 23.167 -51.501 24.5c8.66699 12 18.667 22.667 30 32s23.666 17.666 36.999 24.999
l-39 46c-15.333 -8 -30 -17.5 -44 -28.5s-26.5 -23.5 -37.5 -37.5s-19.667 -29.333 -26 -46s-9.5 -34 -9.5 -52c0 -26.667 6.66699 -49.334 20 -68.001s34.333 -28 63 -28c21.333 0 39.666 7.83301 54.999 23.5s23 34.167 23 55.5z" />
    <glyph glyph-name="quotedblright" unicode="&#x201d;" horiz-adv-x="465" 
d="M410 625c0 26.667 -6.49805 49.334 -19.498 68.001s-33.833 28 -62.5 28c-22 0 -40.667 -7.66699 -56 -23s-23 -34 -23 -56c0 -20.667 7 -38.334 21 -53.001s31.333 -23 52 -25c-8.66699 -11.333 -18.834 -21.833 -30.501 -31.5s-23.834 -18.167 -36.501 -25.5l39 -46
c15.333 8 30 17.667 44 29s26.333 24 37 38s19.167 29.167 25.5 45.5s9.5 33.5 9.5 51.5zM220.002 625c0 26.667 -6.49805 49.334 -19.498 68.001s-33.833 28 -62.5 28c-22 0 -40.667 -7.66699 -56 -23s-23 -34 -23 -56c0 -20.667 7 -38.334 21 -53.001s31.333 -23 52 -25
c-8.66699 -11.333 -18.834 -21.833 -30.501 -31.5s-23.834 -18.167 -36.501 -25.5l39 -46c15.333 8 30 17.667 44 29s26.333 24 37 38s19.167 29.167 25.5 45.5s9.5 33.5 9.5 51.5z" />
    <glyph glyph-name="quotedblbase" unicode="&#x201e;" horiz-adv-x="465" 
d="M410 52c0 26.667 -6.49805 49.334 -19.498 68.001s-33.833 28 -62.5 28c-22 0 -40.667 -7.66699 -56 -23s-23 -34 -23 -56c0 -20.667 7 -38.334 21 -53.001s31.333 -23 52 -25c-8.66699 -11.333 -18.834 -21.833 -30.501 -31.5s-23.834 -18.167 -36.501 -25.5l39 -46
c15.333 8 30 17.667 44 29s26.333 24 37 38s19.167 29.167 25.5 45.5s9.5 33.5 9.5 51.5zM220.002 52c0 26.667 -6.49805 49.334 -19.498 68.001s-33.833 28 -62.5 28c-22 0 -40.667 -7.66699 -56 -23s-23 -34 -23 -56c0 -20.667 7 -38.334 21 -53.001s31.333 -23 52 -25
c-8.66699 -11.333 -18.834 -21.833 -30.501 -31.5s-23.834 -18.167 -36.501 -25.5l39 -46c15.333 8 30 17.667 44 29s26.333 24 37 38s19.167 29.167 25.5 45.5s9.5 33.5 9.5 51.5z" />
    <glyph glyph-name="dagger" unicode="&#x2020;" horiz-adv-x="282" 
d="M262 383v80h-84l3 73h-80l2 -73h-83v-80h86l6 -194h58l6 194h86z" />
    <glyph glyph-name="daggerdbl" unicode="&#x2021;" horiz-adv-x="282" 
d="M262 73v80h-87l-4 60.5c-1.33301 20.333 -2 40.5 -2 60.5c0 18 0.666992 36.167 2 54.5s2.33301 36.5 3 54.5h88v80h-84l3 73h-80l3 -73h-84v-80h88c0.666992 -18 1.5 -36.167 2.5 -54.5s1.5 -36.5 1.5 -54.5c0 -20 -0.5 -40.167 -1.5 -60.5s-2.16699 -40.5 -3.5 -60.5
h-87v-80h84l-3 -73h80l-3 73h84z" />
    <glyph glyph-name="bullet" unicode="&#x2022;" horiz-adv-x="367" 
d="M327 239c0 20 -3.66699 38.667 -11 56s-17.5 32.5 -30.5 45.5s-28.167 23.333 -45.5 31s-36 11.5 -56 11.5s-38.833 -3.83301 -56.5 -11.5s-33 -18 -46 -31s-23.167 -28.167 -30.5 -45.5s-11 -36 -11 -56s3.66699 -38.667 11 -56s17.5 -32.5 30.5 -45.5
s28.333 -23.333 46 -31s36.5 -11.5 56.5 -11.5s38.667 3.83301 56 11.5s32.5 18 45.5 31s23.167 28.167 30.5 45.5s11 36 11 56z" />
    <glyph glyph-name="ellipsis" unicode="&#x2026;" horiz-adv-x="826" 
d="M767 69c0 22 -7.66699 40.667 -23 56s-34 23 -56 23c-21.333 0 -39.666 -7.66699 -54.999 -23s-23 -34 -23 -56c0 -21.333 7.66699 -39.666 23 -54.999s33.666 -23 54.999 -23c22 0 40.667 7.66699 56 23s23 33.666 23 54.999zM491 69c0 22 -7.66699 40.667 -23 56
s-33.666 23 -54.999 23s-39.833 -7.66699 -55.5 -23s-23.5 -34 -23.5 -56c0 -21.333 7.83301 -39.666 23.5 -54.999s34.167 -23 55.5 -23s39.666 7.66699 54.999 23s23 33.666 23 54.999zM216 69c0 22 -7.66699 40.667 -23 56s-33.666 23 -54.999 23
c-22 0 -40.667 -7.66699 -56 -23s-23 -34 -23 -56c0 -21.333 7.66699 -39.666 23 -54.999s34 -23 56 -23c21.333 0 39.666 7.66699 54.999 23s23 33.666 23 54.999z" />
    <glyph glyph-name="perthousand" unicode="&#x2030;" horiz-adv-x="1089" 
d="M1059 134c0 20 -3.66699 38.667 -11 56s-17.5 32.5 -30.5 45.5s-28.167 23.167 -45.5 30.5s-36 11 -56 11s-38.667 -3.66699 -56 -11s-32.5 -17.5 -45.5 -30.5s-23.167 -28.167 -30.5 -45.5s-11 -36 -11 -56s3.66699 -38.667 11 -56s17.5 -32.5 30.5 -45.5
s28.167 -23.167 45.5 -30.5s36 -11 56 -11s38.667 3.66699 56 11s32.5 17.5 45.5 30.5s23.167 28.167 30.5 45.5s11 36 11 56zM711 134c0 20 -3.66699 38.667 -11 56s-17.5 32.5 -30.5 45.5s-28.167 23.167 -45.5 30.5s-36 11 -56 11s-38.667 -3.66699 -56 -11
s-32.5 -17.5 -45.5 -30.5s-23.167 -28.167 -30.5 -45.5s-11 -36 -11 -56s3.66699 -38.667 11 -56s17.5 -32.5 30.5 -45.5s28.167 -23.167 45.5 -30.5s36 -11 56 -11s38.667 3.66699 56 11s32.5 17.5 45.5 30.5s23.167 28.167 30.5 45.5s11 36 11 56zM607 489l-74 59
l-398 -501l74 -59zM316 402c0 20 -3.66699 38.667 -11 56s-17.5 32.5 -30.5 45.5s-28.167 23.167 -45.5 30.5s-36 11 -56 11s-38.667 -3.66699 -56 -11s-32.5 -17.5 -45.5 -30.5s-23.167 -28.167 -30.5 -45.5s-11 -36 -11 -56s3.66699 -38.667 11 -56s17.5 -32.5 30.5 -45.5
s28.167 -23.167 45.5 -30.5s36 -11 56 -11s38.667 3.66699 56 11s32.5 17.5 45.5 30.5s23.167 28.167 30.5 45.5s11 36 11 56zM976 132c-0.666992 -16.667 -6.83203 -30.5 -18.499 -41.5s-25.5 -16.5 -41.5 -16.5c-16.667 0 -30.834 5.83301 -42.501 17.5
s-17.5 25.834 -17.5 42.501c0 15.333 4.83301 28.5 14.5 39.5s21.834 17.5 36.501 19.5c-2 -16.667 2.5 -31.334 13.5 -44.001s25.167 -19 42.5 -19c3.33301 0 7.66602 0.666992 12.999 2zM628.002 132c-1.33301 -16.667 -7.66504 -30.5 -18.998 -41.5s-25 -16.5 -41 -16.5
c-17.333 0 -31.833 5.83301 -43.5 17.5s-17.5 25.834 -17.5 42.501c0 15.333 5 28.5 15 39.5s22.333 17.5 37 19.5c-2.66699 -16.667 1.66602 -31.334 12.999 -44.001s25.666 -19 42.999 -19c2 0 4 0.166992 6 0.5s4.33301 0.833008 7 1.5zM233.003 400
c-0.666992 -16 -6.83105 -29.667 -18.498 -41s-25.5 -17 -41.5 -17c-16.667 0 -30.834 5.83301 -42.501 17.5s-17.5 25.834 -17.5 42.501c0 15.333 4.83301 28.5 14.5 39.5s22.167 17.5 37.5 19.5c-2.66699 -16.667 1.5 -31.334 12.5 -44.001s25.167 -19 42.5 -19
c3.33301 0 7.66602 0.666992 12.999 2z" />
    <glyph glyph-name="guilsinglleft" unicode="&#x2039;" horiz-adv-x="213" 
d="M183 91l-66 98l66 97l-58 42l-95 -139l95 -140z" />
    <glyph glyph-name="guilsinglright" unicode="&#x203a;" horiz-adv-x="213" 
d="M183 189l-94 139l-59 -42l66 -97l-66 -98l59 -42z" />
    <glyph glyph-name="fraction" unicode="&#x2044;" horiz-adv-x="76" 
d="M276 657l-84 39l-392 -875l84 -39z" />
    <glyph glyph-name="trademark" unicode="&#x2122;" horiz-adv-x="567" 
d="M537 263v271h-64l-69 -95l-69 95h-63v-271h63v162l69 -95l69 95v-162h64zM227 470v64h-207v-64h72v-207h63v207h72z" />
    <glyph glyph-name="minus" unicode="&#x2212;" horiz-adv-x="460" 
d="M430 181v116h-400v-116h400z" />
    <glyph glyph-name="fi" unicode="&#xfb01;" horiz-adv-x="565" 
d="M565 16l-0.00195312 91.998c-12.667 -10.667 -26.667 -16 -42 -16c-10.667 0 -20 3.16699 -28 9.5s-12 15.166 -12 26.499v252h-247v136c0 12.667 1.66699 24.834 5 36.501s8.5 22 15.5 31s15.667 16.167 26 21.5s22.5 8 36.5 8c14.667 0 28 -4.16699 40 -12.5
s18 -20.5 18 -36.5c0 -14 -5 -26.667 -15 -38l92 -68c12 14.667 21.333 31.334 28 50.001s10 37.334 10 56.001c0 24.667 -4.66699 46.667 -14 66s-21.833 35.833 -37.5 49.5s-34 24 -55 31s-43.167 10.5 -66.5 10.5c-29.333 0 -56.166 -5.33301 -80.499 -16
s-45 -25.167 -62 -43.5s-30.167 -40 -39.5 -65s-14 -51.833 -14 -80.5v-136h-103v-107h103v-345c0 -17.333 -6.66699 -32.5 -20 -45.5s-28.666 -19.5 -45.999 -19.5l44 -95c20 0 38.333 4.83301 55 14.5s31 22.167 43 37.5s21.167 32.5 27.5 51.5s9.5 37.833 9.5 56.5v72
v273h134v-160c0 -15.333 2.5 -30.333 7.5 -45s12.333 -27.667 22 -39s21.167 -20.5 34.5 -27.5s28.333 -10.5 45 -10.5c14.667 0 29.667 1.83301 45 5.5s29 10.167 41 19.5z" />
    <glyph glyph-name="fl" unicode="&#xfb02;" horiz-adv-x="565" 
d="M565 16l-0.00195312 92.002c-12.667 -10.667 -26.667 -16 -42 -16c-10.667 0 -20 3.16699 -28 9.5s-12 15.166 -12 26.499v582h-113v-32c-10 13.333 -23.333 23.833 -40 31.5s-33.334 11.5 -50.001 11.5c-26 0 -49 -4.33301 -69 -13s-36.833 -20.834 -50.5 -36.501
s-24 -34 -31 -55s-10.5 -43.833 -10.5 -68.5v-168h-99v-107h99v-345c0 -17.333 -6.5 -32.5 -19.5 -45.5s-28.167 -19.5 -45.5 -19.5l43 -95c20.667 0 39.334 4.83301 56.001 14.5s31 22.167 43 37.5s21.167 32.5 27.5 51.5s9.5 37.833 9.5 56.5v345h97v107h-97v168
c0 21.333 7.16699 38 21.5 50s31.5 18 51.5 18c14.667 0 27.334 -4.16699 38.001 -12.5s19.334 -18.833 26.001 -31.5v-459c0 -15.333 2.5 -30.333 7.5 -45s12.333 -27.667 22 -39s21.167 -20.5 34.5 -27.5s28.333 -10.5 45 -10.5c14.667 0 29.667 1.83301 45 5.5
s29 10.167 41 19.5z" />
    <glyph glyph-name="nonbreakingspace" horiz-adv-x="265" 
 />
    <glyph glyph-name=".null" horiz-adv-x="0" 
 />
    <glyph glyph-name="nonmarkingreturn" horiz-adv-x="500" 
 />
    </font>
</defs>
</svg>
