<svg xmlns="http://www.w3.org/2000/svg" width="42" height="44" viewBox="0 0 42 44"><path fill="#e6b001" d="M6 27v-1h11v1zM6.89 34.89a3.06 3.06 0 0 0 2.16 5.21 3 3 0 0 0 2.15-.9 3.03 3.03 0 0 0 0-4.31 3.05 3.05 0 0 0-4.31 0zm3.39 3.39a1.74 1.74 0 1 1-2.47-2.47 1.75 1.75 0 0 1 2.47 2.47zM25 20.19l.92.93 3.84-3.82h6.34V16h-6.88zM13 19v-1h11v1z"/><path fill="#e6b001" d="M9 38v-1h1v1zM20.97 39c-1.08 0-1.97.89-1.97 1.97 0 1.09.89 1.98 1.97 1.98 1.09 0 1.98-.89 1.98-1.98 0-1.08-.89-1.97-1.98-1.97zm0 2.64a.67.67 0 1 1 0-1.34.67.67 0 0 1 0 1.34z"/><path fill="#e6b001" d="M0 27.41l6.24 6.24a5.29 5.29 0 1 0 7.27.79l2.98-2.98 3.33 3.33v3.7h1.3v-4.24l-3.71-3.71 8.27-8.27L15.41 12zm12.28 13.23a3.98 3.98 0 1 1-5.63-5.62 3.98 3.98 0 0 1 5.63 5.62zm.28-7.09a5.29 5.29 0 0 0-5.16-.58l-5.56-5.56 13.57-13.57 8.43 8.43zM19.92 15.39L26 9.3l1.41 1.4 4.47-4.46a2.25 2.25 0 0 0 0-3.19L29.5.67a2.31 2.31 0 0 0-3.93 1.63c0 .62.24 1.2.68 1.63l.24.24-2.81 2.81 1.4 1.4L19 14.46zm8.41-11.22l-1.16-1.16a.98.98 0 0 1 0-1.41 1 1 0 0 1 1.41 0l2.37 2.37c.38.37.38.97 0 1.34l-3.54 3.55-1.89-1.88zM38.39 10.66a2.3 2.3 0 0 0-.68-1.63l-2.37-2.37a2.23 2.23 0 0 0-1.6-.66c-.6 0-1.16.23-1.59.66l-4.47 4.47 1.4 1.4L23 18.62l.92.92 6.09-6.09 1.4 1.41 2.8-2.81.24.24a2.3 2.3 0 0 0 3.26 0c.44-.43.68-1.01.68-1.63zm-1.6.71a.99.99 0 0 1-.71.29.99.99 0 0 1-.71-.29l-1.16-1.16-2.8 2.8-1.89-1.88 3.55-3.55a.96.96 0 0 1 1.35 0l2.37 2.37c.19.19.29.44.29.71 0 .27-.1.52-.29.71zM37 17v-1h5v1z"/></svg>