<svg xmlns="http://www.w3.org/2000/svg" width="33" height="32" viewBox="0 0 33 32"><path fill="#e6b001" d="M3.75 24a3.75 3.75 0 1 0 0 7.5 3.75 3.75 0 0 0 0-7.5zm0 6a2.25 2.25 0 1 1 0-4.5 2.25 2.25 0 0 1 0 4.5zM27.75 24a3.75 3.75 0 1 0 0 7.5 3.75 3.75 0 0 0 0-7.5zm0 6a2.25 2.25 0 1 1 0-4.5 2.25 2.25 0 0 1 0 4.5z"/><path fill="#e6b001" d="M31.57 13.52l-5.07 1.27V1.5h5.25c.41 0 .75-.34.75-.75a.76.76 0 0 0-.75-.75H3.25a.75.75 0 0 0-.53.22l-1.5 1.5a.75.75 0 0 0 0 1.06c.15.15.34.22.53.22s.38-.07.53-.22L3.56 1.5h3.32L4.1 19.55a7.92 7.92 0 0 0-.85-.05.76.76 0 0 0-.75.75c0 .41.34.75.75.75A6.76 6.76 0 0 1 10 27.75c0 .41.34.75.75.75h9c.41 0 .75-.34.75-.75A6.76 6.76 0 0 1 27.25 21h4.5c.41 0 .75-.34.75-.75v-6a.75.75 0 0 0-.29-.59c-.18-.14-.42-.19-.64-.14zM19.03 27h-7.56a8.26 8.26 0 0 0-2.78-5.44l2.7-5.4.52.26a.75.75 0 0 0 .68-1.34l-3-1.5a.75.75 0 0 0-.68 1.34l1.13.57-2.58 5.17a8.41 8.41 0 0 0-1.89-.83L8.39 1.5H25V15h-3.75a.76.76 0 0 0-.75.75v3.75h-3.75a.76.76 0 0 0-.75.75c0 .41.34.75.75.75h5.78a8.26 8.26 0 0 0-3.5 6zM31 19.5h-9v-3h3.75l.18-.02L31 15.21z"/></svg>