<svg xmlns="http://www.w3.org/2000/svg" width="28" height="42" viewBox="0 0 28 42"><path fill="#e6b001" d="M19.18 27.57a.78.78 0 0 1-1.56 0V24.7a.78.78 0 0 1 1.56 0zm0 3.94v2.87a.78.78 0 0 1-1.56 0v-2.87a.78.78 0 0 1 1.56 0zm4.59-6.81v2.87a.78.78 0 0 1-1.56 0V24.7a.78.78 0 0 1 1.56 0zm-18.37 0v2.87a.77.77 0 1 1-1.55 0V24.7a.77.77 0 1 1 1.55 0zm18.37-3.94a.78.78 0 0 1-1.56 0v-2.87a.78.78 0 0 1 1.56 0zm3.85 19.59c0 .43-.35.78-.78.78H.78a.78.78 0 0 1-.78-.78c0-.43.35-.77.78-.77h26.06c.43 0 .78.34.78.77zm-8.44-19.59a.78.78 0 0 1-1.56 0v-2.87a.78.78 0 0 1 1.56 0zM.23 11.23a3.42 3.42 0 0 1 3.42-3.42h9.38V1.56h-2.95a.78.78 0 0 1 0-1.56H17.53a.78.78 0 0 1 0 1.56h-2.94v6.25h9.38a3.42 3.42 0 0 1 0 6.85H3.65a3.43 3.43 0 0 1-3.42-3.43zm1.55 0c0 1.03.84 1.87 1.87 1.87h20.32a1.87 1.87 0 0 0 0-3.73H3.65c-1.03 0-1.87.84-1.87 1.86zM10 20.76a.78.78 0 0 1-1.56 0v-2.87a.78.78 0 0 1 1.56 0zm-4.6 0a.77.77 0 1 1-1.55 0v-2.87a.77.77 0 1 1 1.55 0zM10 31.51v2.87a.78.78 0 0 1-1.56 0v-2.87a.78.78 0 0 1 1.56 0zm4.59-6.81v2.87a.78.78 0 0 1-1.56 0V24.7a.78.78 0 0 1 1.56 0zm0-3.94a.78.78 0 0 1-1.56 0v-2.87a.78.78 0 0 1 1.56 0zM10 24.7a.78.78 0 0 0-1.56 0v2.87a.78.78 0 0 0 1.56 0z"/></svg>