<svg xmlns="http://www.w3.org/2000/svg" width="59" height="49" viewBox="0 0 59 49"><path fill="#fff" d="M57.77 17.15h-3.75a13.32 13.32 0 0 0-3.07-7.39l2.65-2.65c.48-.47.48-1.25 0-1.73a1.23 1.23 0 0 0-1.74 0l-2.65 2.65a13.49 13.49 0 0 0-7.42-3.07V1.23a1.23 1.23 0 1 0-2.46 0v3.78a13.43 13.43 0 0 0-7.37 3.05l-2.7-2.68a1.23 1.23 0 0 0-1.74 0 1.22 1.22 0 0 0 0 1.73l2.7 2.69a13.45 13.45 0 0 0-2.7 5.47 17.05 17.05 0 0 0-4.17-.57A17.14 17.14 0 0 0 6.28 30.09 9.78 9.78 0 0 0 9.83 49h31.96c6.78 0 12.29-5.5 12.29-12.25 0-3.54-1.53-6.7-3.94-8.94a13.29 13.29 0 0 0 3.87-8.21h3.76a1.23 1.23 0 0 0 0-2.45zM51 36.33c0 5.33-4.4 9.67-9.8 9.67H9.35A7.3 7.3 0 0 1 2 38.75c0-4 3.3-7.25 7.35-7.25.68 0 1.23-.54 1.23-1.21 0-.67-.55-1.21-1.23-1.21-.35 0-.68.07-1.01.1A14.61 14.61 0 0 1 22.83 17c5.69 0 10.84 3.33 13.25 8.36-.59.27-1.17.58-1.72.94a1.2 1.2 0 0 0-.33 1.68c.38.55 1.14.7 1.7.33a9.81 9.81 0 0 1 5.47-1.64c5.4 0 9.8 4.33 9.8 9.66zM48.48 26a12.41 12.41 0 0 0-6.42-1.82c-.96 0-1.9.14-2.83.36A17.25 17.25 0 0 0 30 15.71a11.13 11.13 0 0 1 22 2.34c0 3.01-1.28 5.86-3.52 7.95z"/></svg>