<svg xmlns="http://www.w3.org/2000/svg" width="24" height="23" viewBox="0 0 24 23"><path fill="#e6b001" d="M19.94 13.47a2.35 2.35 0 0 0-1.71-.78c-.62 0-1.22.27-1.73.78l-1.6 1.59-.39-.2a7.54 7.54 0 0 1-.5-.27 17.32 17.32 0 0 1-4.17-3.8c-.63-.8-1.06-1.47-1.37-2.15.42-.38.8-.78 1.18-1.16l.42-.43c1.07-1.06 1.07-2.44 0-3.5L8.69 2.17l-.47-.48c-.3-.32-.62-.64-.95-.95A2.42 2.42 0 0 0 5.57 0c-.61 0-1.21.26-1.72.74l-.01.01-1.72 1.74a3.7 3.7 0 0 0-1.1 2.36 8.8 8.8 0 0 0 .65 3.75 21.55 21.55 0 0 0 3.87 6.46 23.93 23.93 0 0 0 7.94 6.22c1.16.55 2.72 1.2 4.45 1.31l.32.01c1.17 0 2.15-.42 2.92-1.25l.02-.03c.27-.32.57-.61.89-.91l.66-.66c.5-.52.76-1.13.76-1.75 0-.63-.27-1.23-.78-1.74zm1.82 5.34c-.01 0-.01 0 0 0l-.62.61c-.33.32-.67.65-.98 1.02-.51.54-1.11.8-1.9.8h-.24c-1.5-.1-2.9-.69-3.95-1.19A22.63 22.63 0 0 1 6.6 14.2a20.42 20.42 0 0 1-3.64-6.07 7.06 7.06 0 0 1-.57-3.17c.05-.6.28-1.09.7-1.51l1.72-1.72c.25-.24.51-.36.77-.36.32 0 .58.19.74.35l.02.02c.31.29.6.58.91.9l.48.49 1.38 1.39c.54.53.54 1.03 0 1.57l-.43.43c-.43.44-.83.84-1.27 1.24l-.03.02c-.44.44-.35.86-.26 1.15l.01.05c.36.87.87 1.69 1.64 2.67a18.63 18.63 0 0 0 4.5 4.09c.21.13.42.24.62.34.18.09.36.18.5.27l.06.03a1.03 1.03 0 0 0 1.27-.22l1.74-1.73c.17-.17.44-.38.76-.38.31 0 .57.2.73.37l.01.01 2.79 2.79c.52.52.52 1.05.01 1.59z"/></svg>