<svg xmlns="http://www.w3.org/2000/svg" width="20" height="16" viewBox="0 0 20 16"><path fill="#e6b001" d="M17.53 0H2.44A2.45 2.45 0 0 0 0 2.44v10.32c0 1.34 1.1 2.44 2.44 2.44h15.09c1.35 0 2.44-1.1 2.44-2.44V2.45A2.44 2.44 0 0 0 17.53 0zm0 14.08H2.44c-.73 0-1.32-.59-1.32-1.32V2.45c0-.74.59-1.33 1.32-1.33h15.09c.73 0 1.33.59 1.33 1.33v10.31c0 .73-.6 1.32-1.33 1.32z"/><path fill="#e6b001" d="M12.29 7.36l4.89-4.38a.57.57 0 0 0 .04-.79.56.56 0 0 0-.79-.04L9.69 8.19 8.38 7.02l-.01-.01a.65.65 0 0 0-.09-.08L2.93 2.14a.57.57 0 0 0-.79.05c-.2.23-.18.58.05.79l4.94 4.41L2.21 12a.56.56 0 0 0-.03.79c.12.12.26.18.41.18.14 0 .28-.05.38-.15l5-4.67 1.35 1.21a.6.6 0 0 0 .38.14c.13 0 .26-.05.37-.15l1.39-1.24 4.97 4.71c.11.11.25.16.38.16a.56.56 0 0 0 .39-.97z"/></svg>