<svg xmlns="http://www.w3.org/2000/svg" width="20.2" height="27.28" viewBox="0 0 20.2 27.28"><path fill="#e6b001" d="M10.6 6.14a3.5 3.5 0 1 0 0 7 3.5 3.5 0 0 0 0-7zm0 6a2.5 2.5 0 1 1 0-5 2.5 2.5 0 0 1 0 5z"/><path fill="none" stroke="#e6b001" stroke-miterlimit="50" stroke-width=".2" d="M10.6 6.14a3.5 3.5 0 1 0 0 7 3.5 3.5 0 0 0 0-7zm0 6a2.5 2.5 0 1 1 0-5 2.5 2.5 0 0 1 0 5z"/><path fill="#e6b001" d="M17.32 2.9A9.46 9.46 0 0 0 10.6.15c-2.54 0-4.92.98-6.72 2.77C.56 6.2.15 12.43 2.99 16.2l7.61 10.94 7.6-10.93c2.85-3.78 2.44-10-.88-13.3zm.06 12.58l-6.78 9.66-6.79-9.67c-2.57-3.38-2.2-8.93.79-11.88a8.48 8.48 0 0 1 6-2.45c2.27 0 4.4.87 6 2.45 2.99 2.95 3.36 8.5.78 11.89z"/><path fill="none" stroke="#e6b001" stroke-miterlimit="50" stroke-width=".2" d="M17.32 2.9A9.46 9.46 0 0 0 10.6.15c-2.54 0-4.92.98-6.72 2.77C.56 6.2.15 12.43 2.99 16.2l7.61 10.94 7.6-10.93c2.85-3.78 2.44-10-.88-13.3zm.06 12.58l-6.78 9.66-6.79-9.67c-2.57-3.38-2.2-8.93.79-11.88a8.48 8.48 0 0 1 6-2.45c2.27 0 4.4.87 6 2.45 2.99 2.95 3.36 8.5.78 11.89z"/></svg>