<svg xmlns="http://www.w3.org/2000/svg" width="31" height="49" viewBox="0 0 31 49"><path fill="#e6b001" d="M15.5 0A15.4 15.4 0 0 0 0 15.28v18.44A15.4 15.4 0 0 0 15.5 49 15.4 15.4 0 0 0 31 33.72V15.28A15.4 15.4 0 0 0 15.5 0zM29 15.45v.24A29.45 29.45 0 0 1 16 19v-5.12a2.88 2.88 0 0 0 2.29-2.81V7.24c0-1.38-.98-2.53-2.29-2.81V2c7.22.32 13 6.23 13 13.45zM15.5 5c.83 0 1.5.73 1.5 1.62v3.76c0 .89-.67 1.62-1.5 1.62s-1.5-.73-1.5-1.62V6.62c0-.89.67-1.62 1.5-1.62zM15 2v2.43a2.88 2.88 0 0 0-2.29 2.81v3.83c0 1.38.98 2.53 2.29 2.81V19a29.45 29.45 0 0 1-13-3.31v-.24C2 8.23 7.78 2.32 15 2zm.5 46C8.06 48 2 41.83 2 34.24V17a29.83 29.83 0 0 0 27 0v17.24C29 41.83 22.94 48 15.5 48z"/></svg>