<svg xmlns="http://www.w3.org/2000/svg" width="42.2" height="25.17" viewBox="0 0 42.2 25.17"><path fill="#e6b001" d="M41.85 20.99l-1.32-2.64V7.92l.87-.23a.7.7 0 0 0 .53-.67.7.7 0 0 0-.53-.68L21.19 1.1a.7.7 0 0 0-.35 0L.62 6.34a.7.7 0 0 0 0 1.35l9.24 2.39v9.83c0 .32.22.6.53.68l4.42 1.1a.73.73 0 0 0-.02.58c.11.26.37.43.65.43h1.39v1.39c0 .29.17.54.43.65.09.03.18.05.27.05a.7.7 0 0 0 .49-.2l2.99-3 3 3c.13.13.31.2.49.2.09 0 .18-.02.27-.05a.7.7 0 0 0 .43-.65v-1.4h1.39c.28 0 .54-.16.65-.42a.7.7 0 0 0-.03-.57l4.43-1.11a.7.7 0 0 0 .53-.68v-9.83l6.97-1.8v10.07l-1.32 2.64a.7.7 0 0 0 0 .63l1.39 2.79a.7.7 0 1 0 1.25 0l1.39-2.8a.7.7 0 0 0 0-.62zM18.23 22.4V22a.7.7 0 0 0-.7-.7h-.41l1.25-1.24c.34.4.76.74 1.25.95zm.69-4.6a2.1 2.1 0 0 1 4.19 0 2.1 2.1 0 0 1-4.19 0zM23.8 22v.4L22.4 21c.5-.2.92-.53 1.26-.94l1.25 1.25h-.41a.7.7 0 0 0-.7.69zm6.97-2.63l-4.66 1.16-1.76-1.75a3.48 3.48 0 1 0-6.67 0l-1.76 1.75-4.67-1.16v-8.93l9.59 2.48.17.02.18-.02 9.58-2.48zm-9.76-7.85L3.58 7.02 21.01 2.5 38.45 7zm18.83 11.02l-.62-1.23.62-1.23.61 1.23z"/><path fill="none" stroke="#01395e" stroke-miterlimit="50" stroke-width=".2" d="M41.85 20.99l-1.32-2.64V7.92l.87-.23a.7.7 0 0 0 .53-.67.7.7 0 0 0-.53-.68L21.19 1.1a.7.7 0 0 0-.35 0L.62 6.34a.7.7 0 0 0 0 1.35l9.24 2.39v9.83c0 .32.22.6.53.68l4.42 1.1a.73.73 0 0 0-.02.58c.11.26.37.43.65.43h1.39v1.39c0 .29.17.54.43.65.09.03.18.05.27.05a.7.7 0 0 0 .49-.2l2.99-3 3 3c.13.13.31.2.49.2.09 0 .18-.02.27-.05a.7.7 0 0 0 .43-.65v-1.4h1.39c.28 0 .54-.16.65-.42a.7.7 0 0 0-.03-.57l4.43-1.11a.7.7 0 0 0 .53-.68v-9.83l6.97-1.8v10.07l-1.32 2.64a.7.7 0 0 0 0 .63l1.39 2.79a.7.7 0 1 0 1.25 0l1.39-2.8a.7.7 0 0 0 0-.62zM18.23 22.4V22a.7.7 0 0 0-.7-.7h-.41l1.25-1.24c.34.4.76.74 1.25.95zm.69-4.6a2.1 2.1 0 0 1 4.19 0 2.1 2.1 0 0 1-4.19 0zM23.8 22v.4L22.4 21c.5-.2.92-.53 1.26-.94l1.25 1.25h-.41a.7.7 0 0 0-.7.69zm6.97-2.63l-4.66 1.16-1.76-1.75a3.48 3.48 0 1 0-6.67 0l-1.76 1.75-4.67-1.16v-8.93l9.59 2.48.17.02.18-.02 9.58-2.48zm-9.76-7.85L3.58 7.02 21.01 2.5 38.45 7zm18.83 11.02l-.62-1.23.62-1.23.61 1.23z"/></svg>