<svg xmlns="http://www.w3.org/2000/svg" width="32.2" height="34.3" viewBox="0 0 32.2 34.3"><path fill="#e6b001" d="M12.68 17.22a10.48 10.48 0 0 0-7.57 8.27c-.04.2.12.44.32.48h.08c.2 0 .37-.12.41-.32a9.8 9.8 0 0 1 7-7.66c.21-.04.33-.28.29-.48-.08-.24-.33-.37-.53-.29z"/><path fill="none" stroke="#e6b001" stroke-miterlimit="50" stroke-width=".4" d="M12.68 17.22a10.48 10.48 0 0 0-7.57 8.27c-.04.2.12.44.32.48h.08c.2 0 .37-.12.41-.32a9.8 9.8 0 0 1 7-7.66c.21-.04.33-.28.29-.48-.08-.24-.33-.37-.53-.29z"/><path fill="#e6b001" d="M.51 33.42h30.86c.24 0 .41-.16.41-.4v-2.88c0-.24-.17-.4-.41-.4h-.57v-1.79c0-7.89-6.23-14.42-14.01-14.82A2.03 2.03 0 0 0 18 11.27c0-1.14-.93-2.07-2.06-2.07-1.14 0-2.07.93-2.07 2.07a2 2 0 0 0 1.22 1.86A14.87 14.87 0 0 0 1.07 27.95v1.79H.51c-.25 0-.41.16-.41.4v2.88c0 .24.2.4.41.4zm14.21-22.19c0-.69.57-1.26 1.26-1.26a1.26 1.26 0 1 1-1.26 1.26zM1.88 27.95c0-7.73 6.32-14.05 14.06-14.05 7.73 0 14.05 6.32 14.05 14.05v1.79H1.88zm-.97 2.6h30.06v2.06H.91z"/><path fill="none" stroke="#e6b001" stroke-miterlimit="50" stroke-width=".4" d="M.51 33.42h30.86c.24 0 .41-.16.41-.4v-2.88c0-.24-.17-.4-.41-.4h-.57v-1.79c0-7.89-6.23-14.42-14.01-14.82A2.03 2.03 0 0 0 18 11.27c0-1.14-.93-2.07-2.06-2.07-1.14 0-2.07.93-2.07 2.07a2 2 0 0 0 1.22 1.86A14.87 14.87 0 0 0 1.07 27.95v1.79H.51c-.25 0-.41.16-.41.4v2.88c0 .24.2.4.41.4zm14.21-22.19c0-.69.57-1.26 1.26-1.26a1.26 1.26 0 1 1-1.26 1.26zM1.88 27.95c0-7.73 6.32-14.05 14.06-14.05 7.73 0 14.05 6.32 14.05 14.05v1.79H1.88zm-.97 2.6h30.06v2.06H.91z"/><path fill="#e6b001" d="M14.6 3.2c.81 0 1.5-.69 1.5-1.5S15.41.2 14.6.2c-.24 0-.41.16-.41.41 0 .24.17.4.41.4.36 0 .69.32.69.69 0 .36-.33.69-.69.69-.81 0-1.5.69-1.5 1.5s.69 1.49 1.5 1.49c.24 0 .4-.16.4-.4 0-.24-.16-.41-.4-.41a.7.7 0 0 1-.69-.68.7.7 0 0 1 .69-.69z"/><path fill="none" stroke="#e6b001" stroke-miterlimit="50" stroke-width=".4" d="M14.6 3.2c.81 0 1.5-.69 1.5-1.5S15.41.2 14.6.2c-.24 0-.41.16-.41.41 0 .24.17.4.41.4.36 0 .69.32.69.69 0 .36-.33.69-.69.69-.81 0-1.5.69-1.5 1.5s.69 1.49 1.5 1.49c.24 0 .4-.16.4-.4 0-.24-.16-.41-.4-.41a.7.7 0 0 1-.69-.68.7.7 0 0 1 .69-.69z"/><path fill="#e6b001" d="M17.6 3.2c.81 0 1.5-.69 1.5-1.5S18.41.2 17.6.2c-.24 0-.41.16-.41.41 0 .24.17.4.41.4.36 0 .69.32.69.69 0 .36-.33.69-.69.69-.81 0-1.5.69-1.5 1.5s.69 1.49 1.5 1.49c.24 0 .4-.16.4-.4 0-.24-.16-.41-.4-.41a.7.7 0 0 1-.69-.68.7.7 0 0 1 .69-.69z"/><path fill="none" stroke="#e6b001" stroke-miterlimit="50" stroke-width=".4" d="M17.6 3.2c.81 0 1.5-.69 1.5-1.5S18.41.2 17.6.2c-.24 0-.41.16-.41.41 0 .24.17.4.41.4.36 0 .69.32.69.69 0 .36-.33.69-.69.69-.81 0-1.5.69-1.5 1.5s.69 1.49 1.5 1.49c.24 0 .4-.16.4-.4 0-.24-.16-.41-.4-.41a.7.7 0 0 1-.69-.68.7.7 0 0 1 .69-.69z"/></svg>