<svg xmlns="http://www.w3.org/2000/svg" width="32" height="37" viewBox="0 0 32 37"><path fill="#e6b001" d="M31.23 2.35a.51.51 0 0 0-.64.34L29.25 7.1a9 9 0 0 1-4.36-1.01l1.34-4.42a.51.51 0 1 0-.98-.3l-2.29 7.55c-.83 2.74-1.95 3.94-9.24 3.94-3.97 0-6.87.17-9.03 1.01C1.53 15.09 0 17.54 0 21.38c0 6.33 4.49 10.88 11.1 11.52.12.68.23 1.53.26 2.5h-2.5a.51.51 0 1 0 0 1.03h7.45a.51.51 0 1 0 0-1.03h-2.5c.03-.97.14-1.81.27-2.5 2.89-.28 5.54-1.4 7.28-3.15l.06-.06c1.6-1.6 2.98-2.99 6.15-13.48l4-13.22a.5.5 0 0 0-.34-.64zM12.78 35.4h-.38c-.05-1.68-.32-3-.55-3.84a5.87 5.87 0 0 0 1.47 0c-.23.84-.5 2.16-.54 3.84zm-.19-4.82c-.86 0-1.5-.27-1.79-.54a7.42 7.42 0 0 0 3.57 0c-.28.27-.93.54-1.78.54zm-6.17-7.51a6.18 6.18 0 1 1 12.35 0 6.18 6.18 0 0 1-12.35 0zm20.16-7.16c-3.1 10.25-4.39 11.55-5.89 13.05l-.06.06a10.7 10.7 0 0 1-6.31 2.82l.19-.65c.66-.34 1.06-.85 1.06-1.45v-.13a7.2 7.2 0 1 0-5.97 0v.13c0 .6.4 1.11 1.06 1.45l.2.65c-5.95-.69-9.83-4.71-9.83-10.46 0-3.41 1.28-5.49 4.03-6.55 2.02-.78 4.81-.94 8.67-.94 6.52 0 8.84-.89 10.02-4.07 1.35.62 2.83 1 4.34 1.12zm1.82-5.99a11.86 11.86 0 0 1-4.33-1.09l.52-1.73a10.2 10.2 0 0 0 4.35 1.04zM13.08 25.95a.7.7 0 0 0-.99 0 .69.69 0 0 0 0 .99c.27.28.72.28.99 0a.7.7 0 0 0 0-.99zm1.69-.7a.69.69 0 0 0 0-.99.69.69 0 0 0-.99 0 .7.7 0 0 0 0 .99.7.7 0 0 0 .99 0zm-.57 1.12a.7.7 0 0 0 0 .99c.27.28.72.28.99 0a.69.69 0 0 0 0-.99.7.7 0 0 0-.99 0zm2.26-2.81a.7.7 0 0 0 0-1 .7.7 0 0 0-.99 0 .72.72 0 0 0 0 1 .7.7 0 0 0 .99 0zm.43 1.12a.7.7 0 0 1 0 .99.72.72 0 0 1-1 0 .7.7 0 0 1 0-.99.7.7 0 0 1 1 0z"/></svg>