<svg xmlns="http://www.w3.org/2000/svg" width="39" height="39" viewBox="0 0 39 39"><path fill="#e6b001" d="M15 9.09a4.09 4.09 0 1 0 8.18 0 4.09 4.09 0 0 0-8.18 0zm4.09-3.19a3.14 3.14 0 1 1 0 6.28 3.14 3.14 0 0 1 0-6.28zM19.95 2.71V.48c0-.29-.19-.48-.47-.48-.29 0-.48.19-.48.48v2.23c0 .29.19.48.48.48.28 0 .47-.19.47-.48zM15.9 1.24c-.14-.24-.43-.29-.66-.19-.24.14-.29.42-.19.66l1.09 1.95a.5.5 0 0 0 .43.24c.09 0 .14 0 .24-.05.23-.14.28-.43.19-.66zM14.64 5.21l-1.91-1.14c-.23-.15-.52-.05-.66.19-.15.24-.05.52.19.66l1.9 1.14c.09.05.14.05.24.05.14 0 .33-.09.43-.24a.59.59 0 0 0-.19-.66zM10.48 9a.48.48 0 0 0-.48.48c0 .28.19.47.48.47l2.23.05c.24 0 .48-.19.48-.48 0-.28-.19-.47-.48-.47zM13.21 12.07l-1.95 1.09c-.24.14-.34.43-.19.67.09.14.23.23.43.23.09 0 .14 0 .23-.04l1.95-1.1c.24-.14.34-.42.19-.66-.19-.24-.47-.34-.66-.19zM14.21 16.83c.1.04.14.04.24.04.14 0 .33-.09.43-.23l1.19-1.91c.14-.23.04-.52-.15-.66a.5.5 0 0 0-.66.14l-1.19 1.9c-.14.29-.05.57.14.72zM19.1 15.48l-.1 2.23c0 .29.19.48.48.48.23 0 .47-.19.47-.48l.1-2.23c0-.29-.19-.48-.48-.48a.47.47 0 0 0-.47.48zM22.26 15.07c-.24.14-.34.43-.19.66l1.04 2c.1.14.24.24.43.24.1 0 .14 0 .24-.05a.49.49 0 0 0 .19-.67l-1.05-1.99c-.14-.24-.47-.34-.66-.19zM24.08 12.21c-.14.24-.09.52.14.67l1.91 1.19c.09.04.19.09.23.09.15 0 .34-.09.38-.24.15-.23.1-.52-.14-.66l-1.85-1.19a.52.52 0 0 0-.67.14zM25 9.48c0 .28.19.47.43.47l2.23.1h.05c.24 0 .48-.19.48-.48 0-.28-.19-.47-.43-.47L25.52 9c-.23 0-.47.24-.52.48zM27.25 5.07l-1.99 1c-.24.09-.34.42-.19.61.09.15.23.24.43.24.09 0 .14 0 .23-.05l2-.99c.24-.1.33-.43.19-.62-.14-.24-.43-.34-.67-.19zM24.98 2.08c-.24-.14-.52-.09-.66.14l-1.24 1.86c-.14.24-.09.52.14.66.1.05.19.1.29.1.14 0 .28-.1.38-.19l1.24-1.86c.14-.28.09-.57-.15-.71zM38.48 37.74c.14 0 .24-.05.33-.15a.45.45 0 0 0 0-.66 47.92 47.92 0 0 0-6.47-5.42 69.42 69.42 0 0 1 6.23-1.86c.24-.05.43-.33.34-.57-.05-.24-.34-.43-.57-.33a55.43 55.43 0 0 0-6.95 2.14 50.59 50.59 0 0 0-3.61-2.24 63.41 63.41 0 0 1 10.79-3.04.5.5 0 0 0 .38-.57.48.48 0 0 0-.57-.38c-3.99.76-7.94 1.9-11.7 3.37a58.42 58.42 0 0 0-4.13-2.04 66.32 66.32 0 0 1 15.98-4.33.56.56 0 0 0 .42-.52.54.54 0 0 0-.52-.43 68.16 68.16 0 0 0-17.07 4.76 75.33 75.33 0 0 0-4.62-1.76 63.54 63.54 0 0 1 21.79-5.76.48.48 0 0 0 0-.95c-.1 0-11.23.52-23.07 6.28a60.29 60.29 0 0 0-13.98-2.76A.48.48 0 0 0 1 21c0 .28.19.47.48.47.23 0 21.73 1.09 36.76 16.12 0 .1.14.15.24.15zM31.45 38.51c.14 0 .28-.04.38-.19.14-.19.14-.52-.05-.66-10.94-8.9-23.64-11.75-30.25-12.65a.44.44 0 0 0-.52.43c-.05.23.14.52.43.52 6.51.9 19.02 3.71 29.77 12.46.05.05.14.09.24.09zM22.55 37.62c.15 0 .34-.1.38-.24.15-.24.1-.52-.14-.67-8.08-5.23-16.55-7.61-22.21-8.7a.48.48 0 0 0-.57.38c-.05.24.09.52.38.57 5.56 1.09 13.89 3.42 21.88 8.56.14.05.24.1.28.1zM1.58 33.01c-.24-.05-.52.09-.57.33-.05.24.09.53.33.57a61.74 61.74 0 0 1 12.65 4.57c.05.05.15.05.19.05.19 0 .34-.1.43-.29.1-.24 0-.52-.24-.62a61.44 61.44 0 0 0-12.79-4.61z"/></svg>