<svg xmlns="http://www.w3.org/2000/svg" width="28.2" height="39.2" viewBox="0 0 28.2 39.2"><path fill="#e6b001" d="M11.08 9.35c.12.12.29.18.45.18.16 0 .32-.06.45-.18a1.9 1.9 0 0 0 0-2.69 1.89 1.89 0 0 0-2.69 0 .62.62 0 0 0 0 .89c.24.25.65.25.89 0a.65.65 0 0 1 .9 0c.25.25.25.65 0 .9a.63.63 0 0 0 0 .9z"/><path fill="none" stroke="#e6b001" stroke-miterlimit="50" stroke-width=".2" d="M11.08 9.35c.12.12.29.18.45.18.16 0 .32-.06.45-.18a1.9 1.9 0 0 0 0-2.69 1.89 1.89 0 0 0-2.69 0 .62.62 0 0 0 0 .89c.24.25.65.25.89 0a.65.65 0 0 1 .9 0c.25.25.25.65 0 .9a.63.63 0 0 0 0 .9z"/><path fill="#e6b001" d="M14.06.1a13.97 13.97 0 0 0-2.69 27.67c.34.06.67-.16.74-.51a.63.63 0 0 0-.5-.74 12.7 12.7 0 1 1 2.45.24.64.64 0 0 0 0 1.27c7.7 0 13.97-6.27 13.97-13.97C28.03 6.36 21.76.1 14.06.1z"/><path fill="none" stroke="#e6b001" stroke-miterlimit="50" stroke-width=".2" d="M14.06.1a13.97 13.97 0 0 0-2.69 27.67c.34.06.67-.16.74-.51a.63.63 0 0 0-.5-.74 12.7 12.7 0 1 1 2.45.24.64.64 0 0 0 0 1.27c7.7 0 13.97-6.27 13.97-13.97C28.03 6.36 21.76.1 14.06.1z"/><path fill="#e6b001" d="M20.16 28.1a.64.64 0 0 0-.64.63c0 .35-.28.64-.63.64H10a.64.64 0 0 1-.63-.64.63.63 0 0 0-.64-.63.63.63 0 0 0-.63.63 1.9 1.9 0 0 0 1.9 1.91h2.64l1.18 7.08a.63.63 0 0 0 1.25 0l1.18-7.08h2.64a1.9 1.9 0 0 0 1.9-1.91.63.63 0 0 0-.63-.63zm-5.71 5.66l-.52-3.12h1.04z"/><path fill="none" stroke="#e6b001" stroke-miterlimit="50" stroke-width=".2" d="M20.16 28.1a.64.64 0 0 0-.64.63c0 .35-.28.64-.63.64H10a.64.64 0 0 1-.63-.64.63.63 0 0 0-.64-.63.63.63 0 0 0-.63.63 1.9 1.9 0 0 0 1.9 1.91h2.64l1.18 7.08a.63.63 0 0 0 1.25 0l1.18-7.08h2.64a1.9 1.9 0 0 0 1.9-1.91.63.63 0 0 0-.63-.63zm-5.71 5.66l-.52-3.12h1.04z"/><path fill="#e6b001" d="M17.08 12.35c.13.12.29.19.45.19.16 0 .33-.07.45-.19a1.9 1.9 0 1 0-2.69-2.69.62.62 0 0 0 0 .89c.24.25.65.25.89 0a.65.65 0 0 1 .9 0c.25.25.25.65 0 .9a.63.63 0 0 0 0 .9z"/><path fill="none" stroke="#e6b001" stroke-miterlimit="50" stroke-width=".2" d="M17.08 12.35c.13.12.29.19.45.19.16 0 .33-.07.45-.19a1.9 1.9 0 1 0-2.69-2.69.62.62 0 0 0 0 .89c.24.25.65.25.89 0a.65.65 0 0 1 .9 0c.25.25.25.65 0 .9a.63.63 0 0 0 0 .9z"/><path fill="#e6b001" d="M19.29 6.66a.62.62 0 0 0 0 .89c.24.25.65.25.89 0a.65.65 0 0 1 .9 0c.25.25.25.65 0 .9a.63.63 0 0 0 0 .9c.13.12.29.19.45.19.16 0 .32-.07.45-.19a1.9 1.9 0 0 0 0-2.69 1.89 1.89 0 0 0-2.69 0z"/><path fill="none" stroke="#e6b001" stroke-miterlimit="50" stroke-width=".2" d="M19.29 6.66a.62.62 0 0 0 0 .89c.24.25.65.25.89 0a.65.65 0 0 1 .9 0c.25.25.25.65 0 .9a.63.63 0 0 0 0 .9c.13.12.29.19.45.19.16 0 .32-.07.45-.19a1.9 1.9 0 0 0 0-2.69 1.89 1.89 0 0 0-2.69 0z"/><path fill="#e6b001" d="M14.29 4.64a.63.63 0 0 0 0 .9c.24.24.65.24.89 0a.65.65 0 0 1 .9 0c.25.24.25.65 0 .89a.63.63 0 0 0 0 .9.63.63 0 0 0 .9 0 1.9 1.9 0 0 0 0-2.69 1.95 1.95 0 0 0-2.69 0z"/><path fill="none" stroke="#e6b001" stroke-miterlimit="50" stroke-width=".2" d="M14.29 4.64a.63.63 0 0 0 0 .9c.24.24.65.24.89 0a.65.65 0 0 1 .9 0c.25.24.25.65 0 .89a.63.63 0 0 0 0 .9.63.63 0 0 0 .9 0 1.9 1.9 0 0 0 0-2.69 1.95 1.95 0 0 0-2.69 0z"/><path fill="#e6b001" d="M19.29 17.55c.24.25.65.25.89 0a.65.65 0 0 1 .9 0c.25.25.25.65 0 .9a.63.63 0 0 0 0 .9c.13.12.29.19.45.19.16 0 .32-.07.45-.19a1.9 1.9 0 1 0-2.69-2.69.62.62 0 0 0 0 .89z"/><path fill="none" stroke="#e6b001" stroke-miterlimit="50" stroke-width=".2" d="M19.29 17.55c.24.25.65.25.89 0a.65.65 0 0 1 .9 0c.25.25.25.65 0 .9a.63.63 0 0 0 0 .9c.13.12.29.19.45.19.16 0 .32-.07.45-.19a1.9 1.9 0 1 0-2.69-2.69.62.62 0 0 0 0 .89z"/><path fill="#e6b001" d="M23.08 14.35c.12.12.29.19.45.19.16 0 .32-.07.45-.19a1.9 1.9 0 1 0-2.69-2.69.62.62 0 0 0 0 .89c.24.25.65.25.89 0a.65.65 0 0 1 .9 0c.12.12.19.28.19.45 0 .17-.07.33-.19.45a.63.63 0 0 0 0 .9z"/><path fill="none" stroke="#e6b001" stroke-miterlimit="50" stroke-width=".2" d="M23.08 14.35c.12.12.29.19.45.19.16 0 .32-.07.45-.19a1.9 1.9 0 1 0-2.69-2.69.62.62 0 0 0 0 .89c.24.25.65.25.89 0a.65.65 0 0 1 .9 0c.12.12.19.28.19.45 0 .17-.07.33-.19.45a.63.63 0 0 0 0 .9z"/></svg>