<svg xmlns="http://www.w3.org/2000/svg" width="26.3" height="46.3" viewBox="0 0 26.3 46.3"><path fill="#e6b001" d="M15.4 18.41c-.04 0-3.73.24-6.24-2.24C7.37 14.39 6.57 11.65 6.8 8a.82.82 0 0 0-.76-.85.81.81 0 0 0-.85.76c-.25 4.13.71 7.3 2.85 9.41a10.08 10.08 0 0 0 6.39 2.69l-2.76 10.96c-.07.25-1.7 6.26-1.3 14.21.03.43.38.77.81.77l.04-.01a.8.8 0 0 0 .76-.84 48.16 48.16 0 0 1 1.25-13.72l3.01-11.97c.01-.84-.59-1.02-.84-1z"/><path fill="none" stroke="#01395e" stroke-miterlimit="50" stroke-width=".3" d="M15.4 18.41c-.04 0-3.73.24-6.24-2.24C7.37 14.39 6.57 11.65 6.8 8a.82.82 0 0 0-.76-.85.81.81 0 0 0-.85.76c-.25 4.13.71 7.3 2.85 9.41a10.08 10.08 0 0 0 6.39 2.69l-2.76 10.96c-.07.25-1.7 6.26-1.3 14.21.03.43.38.77.81.77l.04-.01a.8.8 0 0 0 .76-.84 48.16 48.16 0 0 1 1.25-13.72l3.01-11.97c.01-.84-.59-1.02-.84-1z"/><path fill="#e6b001" d="M22.38 1.16c-1.11 0-2.63.76-2.85 2.83-.08.72.79.83.8.83a.8.8 0 0 0 .8-.77c.05-1.17.98-1.25 1.27-1.28 1.9-.14 1.97 1.43 1.97 1.45.05 2.29-2.06 2.14-2.06 2.14L2.34 3.99c-.41-.04-.82.23-.88.64C-.01 14.82 4.02 19.11 7.4 20.9l-2.55 9.75c-.07.25-1.79 6.23-1.3 14.13.05.73.83.76.85.76a.82.82 0 0 0 .76-.85A46.38 46.38 0 0 1 6.4 31.08l2.72-10.41a.79.79 0 0 0-.44-.93C2.03 16.71 2.59 8.23 2.93 5.68c0 0 19.39 2.3 19.63 2.3 2.66-.03 3.42-2.43 3.42-3.73-.28-3.49-3.58-3.09-3.6-3.09z"/><path fill="none" stroke="#01395e" stroke-miterlimit="50" stroke-width=".3" d="M22.38 1.16c-1.11 0-2.63.76-2.85 2.83-.08.72.79.83.8.83a.8.8 0 0 0 .8-.77c.05-1.17.98-1.25 1.27-1.28 1.9-.14 1.97 1.43 1.97 1.45.05 2.29-2.06 2.14-2.06 2.14L2.34 3.99c-.41-.04-.82.23-.88.64C-.01 14.82 4.02 19.11 7.4 20.9l-2.55 9.75c-.07.25-1.79 6.23-1.3 14.13.05.73.83.76.85.76a.82.82 0 0 0 .76-.85A46.38 46.38 0 0 1 6.4 31.08l2.72-10.41a.79.79 0 0 0-.44-.93C2.03 16.71 2.59 8.23 2.93 5.68c0 0 19.39 2.3 19.63 2.3 2.66-.03 3.42-2.43 3.42-3.73-.28-3.49-3.58-3.09-3.6-3.09z"/><path fill="#e6b001" d="M12.87 16.58a3.7 3.7 0 1 0 0-7.42 3.7 3.7 0 0 0 0 7.42zm0-5.82a2.1 2.1 0 1 1 0 4.2 2.1 2.1 0 0 1 0-4.2z"/><path fill="none" stroke="#01395e" stroke-miterlimit="50" stroke-width=".3" d="M12.87 16.58a3.7 3.7 0 1 0 0-7.42 3.7 3.7 0 0 0 0 7.42zm0-5.82a2.1 2.1 0 1 1 0 4.2 2.1 2.1 0 0 1 0-4.2z"/></svg>