<svg xmlns="http://www.w3.org/2000/svg" width="39.4" height="23.4" viewBox="0 0 39.4 23.4"><path fill="#e6b001" d="M7 .2c-.25 0-.45.2-.45.45l-.04.46a3.7 3.7 0 0 1-1.49 2.28 7.14 7.14 0 0 1-3.91 1.34H.65a.46.46 0 0 0-.45.46c0 .25.2.45.45.45h.49a7.9 7.9 0 0 0 4.43-1.53 5.09 5.09 0 0 0 1.45-1.7c.35.7.89 1.32 1.58 1.81a8.17 8.17 0 0 0 4.75 1.42c1.84 0 3.51-.53 4.75-1.42a5.1 5.1 0 0 0 1.6-1.84c.36.71.9 1.34 1.6 1.84a8.17 8.17 0 0 0 4.75 1.42c1.84 0 3.51-.53 4.75-1.42a4.95 4.95 0 0 0 1.58-1.81c.33.65.83 1.22 1.45 1.7a7.9 7.9 0 0 0 4.43 1.53h.49c.25 0 .45-.2.45-.45s-.2-.46-.45-.46h-.46a7.14 7.14 0 0 1-3.91-1.34 3.7 3.7 0 0 1-1.49-2.28l-.04-.46c0-.25-.2-.45-.45-.45s-.46.2-.46.45c-.01.16-.01.29-.04.46a3.7 3.7 0 0 1-1.63 2.38 7.32 7.32 0 0 1-4.22 1.24 7.3 7.3 0 0 1-4.22-1.24 3.74 3.74 0 0 1-1.65-2.38c-.01-.14-.04-.3-.03-.46 0-.25-.2-.45-.45-.45s-.45.2-.45.45c.01.16-.02.32-.03.46-.15.9-.73 1.73-1.65 2.38a7.3 7.3 0 0 1-4.22 1.24 7.32 7.32 0 0 1-4.22-1.24A3.7 3.7 0 0 1 7.5 1.11c-.03-.17-.03-.3-.04-.46A.46.46 0 0 0 7 .2zm6.28 8.62a.46.46 0 0 0-.38.45c0 1.08-.61 2.08-1.67 2.83A7.33 7.33 0 0 1 7 13.35c-1.68 0-3.2-.5-4.26-1.27-.19-.18-.53-.15-.68.05-.16.21-.08.54.14.67A8.23 8.23 0 0 0 7 14.26c1.84 0 3.51-.53 4.75-1.42a5.1 5.1 0 0 0 1.6-1.84c.36.71.9 1.34 1.6 1.84a8.17 8.17 0 0 0 4.75 1.42c1.84 0 3.51-.53 4.75-1.42a5.1 5.1 0 0 0 1.6-1.84c.36.71.9 1.34 1.6 1.84a8.17 8.17 0 0 0 4.75 1.42c1.86 0 3.56-.56 4.8-1.46.22-.13.3-.46.14-.67-.15-.2-.49-.23-.68-.05a7.34 7.34 0 0 1-4.26 1.27 7.33 7.33 0 0 1-4.23-1.25c-1.06-.75-1.67-1.75-1.67-2.83a.46.46 0 0 0-.38-.45c-.26-.04-.53.19-.52.45 0 1.08-.62 2.08-1.68 2.83a7.3 7.3 0 0 1-4.22 1.25 7.3 7.3 0 0 1-4.22-1.25c-1.06-.75-1.68-1.75-1.68-2.83.01-.26-.26-.49-.52-.45zm-5.82 9.07c0 1.08.61 2.07 1.67 2.83a7.32 7.32 0 0 0 4.22 1.25 7.3 7.3 0 0 0 4.22-1.25c1.06-.76 1.68-1.75 1.68-2.83 0-.24.21-.46.45-.46.24 0 .45.22.45.46 0 1.08.62 2.07 1.68 2.83a7.3 7.3 0 0 0 4.22 1.25c1.66 0 3.16-.49 4.22-1.25 1.06-.76 1.67-1.75 1.67-2.83 0-.27.27-.5.53-.46.21.04.38.24.38.46 0 1.03.55 1.98 1.53 2.73a7.14 7.14 0 0 0 3.91 1.35h.46c.25 0 .45.2.45.45s-.2.45-.45.45h-.49a7.9 7.9 0 0 1-4.43-1.53 5 5 0 0 1-1.45-1.7c-.35.7-.89 1.32-1.58 1.82a8.24 8.24 0 0 1-4.75 1.41 8.24 8.24 0 0 1-4.75-1.41 5.13 5.13 0 0 1-1.6-1.85c-.36.71-.9 1.35-1.6 1.85a8.24 8.24 0 0 1-4.75 1.41 8.24 8.24 0 0 1-4.75-1.41 5.06 5.06 0 0 1-1.58-1.82 5 5 0 0 1-1.45 1.7 7.9 7.9 0 0 1-4.43 1.53H.65a.45.45 0 0 1-.45-.45c0-.25.2-.45.45-.45h.46a7.14 7.14 0 0 0 3.91-1.35c.98-.75 1.53-1.7 1.53-2.73 0-.22.17-.42.38-.46.26-.04.53.19.53.46z"/><path fill="none" stroke="#e6b001" stroke-miterlimit="50" stroke-width=".4" d="M7 .2c-.25 0-.45.2-.45.45l-.04.46a3.7 3.7 0 0 1-1.49 2.28 7.14 7.14 0 0 1-3.91 1.34H.65a.46.46 0 0 0-.45.46c0 .25.2.45.45.45h.49a7.9 7.9 0 0 0 4.43-1.53 5.09 5.09 0 0 0 1.45-1.7c.35.7.89 1.32 1.58 1.81a8.17 8.17 0 0 0 4.75 1.42c1.84 0 3.51-.53 4.75-1.42a5.1 5.1 0 0 0 1.6-1.84c.36.71.9 1.34 1.6 1.84a8.17 8.17 0 0 0 4.75 1.42c1.84 0 3.51-.53 4.75-1.42a4.95 4.95 0 0 0 1.58-1.81c.33.65.83 1.22 1.45 1.7a7.9 7.9 0 0 0 4.43 1.53h.49c.25 0 .45-.2.45-.45s-.2-.46-.45-.46h-.46a7.14 7.14 0 0 1-3.91-1.34 3.7 3.7 0 0 1-1.49-2.28l-.04-.46c0-.25-.2-.45-.45-.45s-.46.2-.46.45c-.01.16-.01.29-.04.46a3.7 3.7 0 0 1-1.63 2.38 7.32 7.32 0 0 1-4.22 1.24 7.3 7.3 0 0 1-4.22-1.24 3.74 3.74 0 0 1-1.65-2.38c-.01-.14-.04-.3-.03-.46 0-.25-.2-.45-.45-.45s-.45.2-.45.45c.01.16-.02.32-.03.46-.15.9-.73 1.73-1.65 2.38a7.3 7.3 0 0 1-4.22 1.24 7.32 7.32 0 0 1-4.22-1.24A3.7 3.7 0 0 1 7.5 1.11c-.03-.17-.03-.3-.04-.46A.46.46 0 0 0 7 .2zm6.28 8.62a.46.46 0 0 0-.38.45c0 1.08-.61 2.08-1.67 2.83A7.33 7.33 0 0 1 7 13.35c-1.68 0-3.2-.5-4.26-1.27-.19-.18-.53-.15-.68.05-.16.21-.08.54.14.67A8.23 8.23 0 0 0 7 14.26c1.84 0 3.51-.53 4.75-1.42a5.1 5.1 0 0 0 1.6-1.84c.36.71.9 1.34 1.6 1.84a8.17 8.17 0 0 0 4.75 1.42c1.84 0 3.51-.53 4.75-1.42a5.1 5.1 0 0 0 1.6-1.84c.36.71.9 1.34 1.6 1.84a8.17 8.17 0 0 0 4.75 1.42c1.86 0 3.56-.56 4.8-1.46.22-.13.3-.46.14-.67-.15-.2-.49-.23-.68-.05a7.34 7.34 0 0 1-4.26 1.27 7.33 7.33 0 0 1-4.23-1.25c-1.06-.75-1.67-1.75-1.67-2.83a.46.46 0 0 0-.38-.45c-.26-.04-.53.19-.52.45 0 1.08-.62 2.08-1.68 2.83a7.3 7.3 0 0 1-4.22 1.25 7.3 7.3 0 0 1-4.22-1.25c-1.06-.75-1.68-1.75-1.68-2.83.01-.26-.26-.49-.52-.45zm-5.82 9.07c0 1.08.61 2.07 1.67 2.83a7.32 7.32 0 0 0 4.22 1.25 7.3 7.3 0 0 0 4.22-1.25c1.06-.76 1.68-1.75 1.68-2.83 0-.24.21-.46.45-.46.24 0 .45.22.45.46 0 1.08.62 2.07 1.68 2.83a7.3 7.3 0 0 0 4.22 1.25c1.66 0 3.16-.49 4.22-1.25 1.06-.76 1.67-1.75 1.67-2.83 0-.27.27-.5.53-.46.21.04.38.24.38.46 0 1.03.55 1.98 1.53 2.73a7.14 7.14 0 0 0 3.91 1.35h.46c.25 0 .45.2.45.45s-.2.45-.45.45h-.49a7.9 7.9 0 0 1-4.43-1.53 5 5 0 0 1-1.45-1.7c-.35.7-.89 1.32-1.58 1.82a8.24 8.24 0 0 1-4.75 1.41 8.24 8.24 0 0 1-4.75-1.41 5.13 5.13 0 0 1-1.6-1.85c-.36.71-.9 1.35-1.6 1.85a8.24 8.24 0 0 1-4.75 1.41 8.24 8.24 0 0 1-4.75-1.41 5.06 5.06 0 0 1-1.58-1.82 5 5 0 0 1-1.45 1.7 7.9 7.9 0 0 1-4.43 1.53H.65a.45.45 0 0 1-.45-.45c0-.25.2-.45.45-.45h.46a7.14 7.14 0 0 0 3.91-1.35c.98-.75 1.53-1.7 1.53-2.73 0-.22.17-.42.38-.46.26-.04.53.19.53.46z"/></svg>