<svg xmlns="http://www.w3.org/2000/svg" width="19" height="19" viewBox="0 0 19 19"><path fill="#e6b001" d="M13.34 1.77c.93.04 1.43.19 1.76.32a3.11 3.11 0 0 1 1.81 1.81c.13.33.28.83.32 1.76.05 1 .06 1.3.06 3.84s-.01 2.84-.06 3.84a5.17 5.17 0 0 1-.32 1.76 3.11 3.11 0 0 1-1.81 1.81c-.33.13-.83.28-1.76.32-1 .05-1.3.06-3.84.06a60.4 60.4 0 0 1-3.84-.06 5.17 5.17 0 0 1-1.76-.32 3.11 3.11 0 0 1-1.81-1.81 5.17 5.17 0 0 1-.32-1.76c-.05-1-.06-1.3-.06-3.84s.01-2.84.06-3.84c.04-.93.19-1.43.32-1.76A3.11 3.11 0 0 1 3.9 2.09c.33-.13.83-.28 1.76-.32 1-.05 1.3-.06 3.84-.06s2.84.01 3.84.06zM5.58.06c-1.01.04-1.7.2-2.3.44A4.7 4.7 0 0 0 .5 3.28c-.24.6-.4 1.29-.44 2.3A63.2 63.2 0 0 0 0 9.5c0 2.58.01 2.9.06 3.92.04 1.01.2 1.7.44 2.3a4.7 4.7 0 0 0 2.78 2.78c.6.24 1.29.4 2.3.44 1.02.05 1.34.06 3.92.06s2.9-.01 3.92-.06c1.01-.04 1.7-.2 2.3-.44a4.7 4.7 0 0 0 2.78-2.78c.24-.6.4-1.29.44-2.3.05-1.02.06-1.34.06-3.92s-.01-2.9-.06-3.92a6.65 6.65 0 0 0-.44-2.3A4.7 4.7 0 0 0 15.72.5c-.6-.24-1.29-.4-2.3-.44A63.2 63.2 0 0 0 9.5 0C6.92 0 6.6.01 5.58.06zm-.94 9.46a4.87 4.87 0 1 0 9.75.01 4.87 4.87 0 0 0-9.75-.01zm1.71 0a3.17 3.17 0 1 1 6.34 0 3.17 3.17 0 0 1-6.34 0zm8.2-3.98a1.13 1.13 0 1 1 0-2.26 1.13 1.13 0 0 1 0 2.26z"/></svg>