<svg xmlns="http://www.w3.org/2000/svg" width="20.5" height="27.36" viewBox="0 0 20.5 27.36"><path fill="#e6b001" d="M10.62 1.32a.55.55 0 0 0-.74 0C9.48 1.67.25 9.9.25 17.42a9.89 9.89 0 0 0 10 9.76c5.51 0 10-4.37 10-9.75 0-7.53-9.23-15.76-9.63-16.11zm-.37 24.86c-4.96 0-9-3.95-9-8.8 0-6.33 7.25-13.55 9-15.2 1.75 1.65 9 8.86 9 15.2 0 4.85-4.04 8.8-9 8.8z"/><path fill="none" stroke="#e6b001" stroke-miterlimit="50" stroke-width=".5" d="M10.62 1.32a.55.55 0 0 0-.74 0C9.48 1.67.25 9.9.25 17.42a9.89 9.89 0 0 0 10 9.76c5.51 0 10-4.37 10-9.75 0-7.53-9.23-15.76-9.63-16.11zm-.37 24.86c-4.96 0-9-3.95-9-8.8 0-6.33 7.25-13.55 9-15.2 1.75 1.65 9 8.86 9 15.2 0 4.85-4.04 8.8-9 8.8z"/><path fill="#e6b001" d="M9.71 23.1a5.38 5.38 0 0 1-5.38-5.38c0-.3-.24-.54-.54-.54-.3 0-.54.24-.54.54 0 3.56 2.9 6.46 6.46 6.46.3 0 .54-.24.54-.54 0-.3-.24-.54-.54-.54z"/><path fill="none" stroke="#e6b001" stroke-miterlimit="50" stroke-width=".5" d="M9.71 23.1a5.38 5.38 0 0 1-5.38-5.38c0-.3-.24-.54-.54-.54-.3 0-.54.24-.54.54 0 3.56 2.9 6.46 6.46 6.46.3 0 .54-.24.54-.54 0-.3-.24-.54-.54-.54z"/></svg>