<svg xmlns="http://www.w3.org/2000/svg" width="28" height="20" viewBox="0 0 28 20"><path fill="#e6b001" d="M15.13 13H4v1.51h11.13c1.24 0 2.25.94 2.25 2.11 0 1.03-.9 1.87-2.01 1.87-.98 0-1.78-.75-1.78-1.66h-1.61c0 1.75 1.52 3.17 3.39 3.17 2 0 3.63-1.52 3.63-3.38 0-2-1.74-3.62-3.87-3.62zM22.44 0a5.07 5.07 0 0 0-5.18 4.94h1.64a3.47 3.47 0 0 1 3.54-3.38 3.84 3.84 0 0 1 3.92 3.74 4.25 4.25 0 0 1-4.34 4.14H0V11h22.02C25.32 11 28 8.44 28 5.3 28 2.38 25.51 0 22.44 0z"/><path fill="#e6b001" d="M12.03 2a2.77 2.77 0 0 0-2.79 2.73h1.58c0-.65.54-1.19 1.21-1.19.77 0 1.4.61 1.4 1.37 0 .85-.71 1.55-1.59 1.55H4V8h7.84A3.13 3.13 0 0 0 15 4.91 2.94 2.94 0 0 0 12.03 2z"/></svg>