<?xml version="1.0" encoding="utf-8"?><svg xmlns="http://www.w3.org/2000/svg" xmlns:xlink="http://www.w3.org/1999/xlink"><symbol viewBox="0 0 33 33" id="arr-left" xmlns="http://www.w3.org/2000/svg"><defs><path id="aa" d="M472 3319.5a16.5 16.5 0 1 1 33 0 16.5 16.5 0 0 1-33 0zm20.07 7.75l-7.73-7.75 7.73-7.76-1.54-1.53-9.26 9.29 9.26 9.29z"/></defs><use xlink:href="#aa" transform="translate(-472 -3303)"/></symbol><symbol viewBox="0 0 33 33" id="arr-r" xmlns="http://www.w3.org/2000/svg"><defs><path id="ba" d="M1430.5 3336a16.5 16.5 0 1 1 0-33 16.5 16.5 0 0 1 0 33zm-2.03-7.21l9.26-9.3-9.26-9.28-1.54 1.53 7.73 7.76-7.73 7.75z"/></defs><use xlink:href="#ba" transform="translate(-1414 -3303)"/></symbol><symbol viewBox="0 0 26 25" id="basket" xmlns="http://www.w3.org/2000/svg"><defs><path id="ca" d="M1509.19 134.62a2.33 2.33 0 0 1-2.29 2.38 2.33 2.33 0 0 1-2.28-2.38c0-1.3 1.02-2.37 2.28-2.37a2.34 2.34 0 0 1 2.29 2.37zm-1.28 0c0-.58-.45-1.05-1-1.05-.56 0-1.02.47-1.02 1.05 0 .58.46 1.05 1.01 1.05.56 0 1.01-.47 1.01-1.05zm9.3 0a2.33 2.33 0 0 1-2.29 2.38 2.33 2.33 0 0 1-2.28-2.38c0-1.3 1.02-2.37 2.28-2.37a2.34 2.34 0 0 1 2.29 2.37zm-1.28 0c0-.58-.45-1.05-1-1.05-.56 0-1.02.47-1.02 1.05 0 .58.46 1.05 1.01 1.05.56 0 1.01-.47 1.01-1.05zm.2-14.22c0 .37-.3.66-.64.66h-9.15a.65.65 0 0 1-.64-.66c0-.37.29-.66.64-.66h9.15c.35 0 .63.3.63.66zm-.5 3.44c0 .37-.29.67-.64.67h-8.15a.65.65 0 0 1-.64-.67c0-.36.28-.66.64-.66h8.15c.35 0 .64.3.64.66zm6.34-5.95l-1.78 9a1.3 1.3 0 0 1-1.25 1.06h-15.79l.38 1.9h15.29c.35 0 .64.3.64.66 0 .37-.29.66-.64.66h-15.3a1.3 1.3 0 0 1-1.24-1.06l-3.1-15.57-2.8-1.27a.67.67 0 0 1-.33-.87c.14-.34.52-.5.84-.35l2.8 1.27c.39.17.66.53.75.95l.4 2.02h19.88c.39 0 .75.18 1 .5.24.3.33.7.25 1.1zm-1.25-.27h-19.62l1.79 9h16.05z"/></defs><use xlink:href="#ca" transform="translate(-1496 -112)"/></symbol><symbol viewBox="0 0 22 16" id="cart" xmlns="http://www.w3.org/2000/svg"><defs><path id="da" d="M609 7887.28v11.43c0 1.27-.99 2.29-2.2 2.29h-17.6a2.24 2.24 0 0 1-2.2-2.29v-11.43c0-1.26.98-2.28 2.2-2.28h17.6c1.21 0 2.2 1.02 2.2 2.28zm-17.88 3.4c0 1.56 1.54 2.32 2.07 2.32.55 0 2.06-.76 2.06-2.33v-1.16c0-1.57-1.1-2.33-2.06-2.33-.94 0-2.07.76-2.07 2.33zm6.2 5.96c0-.8-.29-2.05-1.57-2.8-.6-.35-1.15.22-1.88.9l-.2.2s-.2.24-.48.24c-.26 0-.48-.22-.49-.23l-.2-.21c-.73-.68-1.37-1.26-1.87-.9-1.22.87-1.57 2-1.57 2.8v.72c0 1.06.34 1.46 1.38 1.46h5.5c1.04 0 1.37-.4 1.37-1.46v-.72zm9.62 0a.7.7 0 0 0-.69-.73h-6.19a.7.7 0 0 0-.68.73c0 .4.3.72.68.72h6.19a.7.7 0 0 0 .69-.72zm0-3.64c0-.4-.31-.73-.69-.73h-6.19c-.38 0-.68.33-.68.73 0 .4.3.73.68.73h6.19a.7.7 0 0 0 .69-.73zm0-3.64a.7.7 0 0 0-.69-.72h-6.19a.7.7 0 0 0-.68.72c0 .4.3.73.68.73h6.19a.7.7 0 0 0 .69-.73z"/></defs><use xlink:href="#da" transform="translate(-587 -7885)"/></symbol><symbol viewBox="0 0 344.96 344.96" id="check" xmlns="http://www.w3.org/2000/svg"><g data-name="Слой 2"><path d="M321.85 86.24l-40-23.11-23.1-40H212.5L172.48 0l-40 23.11H86.24l-23.11 40-40 23.1v46.21L0 172.48l23.11 40v46.21l40 23.11 23.11 40h46.21l40 23.1 40-23.11h46.21l23.11-40 40-23.11V212.5l23.11-40-23.11-40V86.24zM156.91 243.07a16.79 16.79 0 0 1-23.34 0l-50.45-50.44a16.19 16.19 0 0 1 0-22.89l13.35-13.35a16.19 16.19 0 0 1 22.89 0l25.87 25.87 80.34-80.35a16.19 16.19 0 0 1 22.89 0l13.35 13.35a16.19 16.19 0 0 1 0 22.89z" data-name="Capa 1"/></g></symbol><symbol viewBox="0 0 20 19" id="count" xmlns="http://www.w3.org/2000/svg"><defs><path id="fa" d="M70 717.82v16.84a.8.8 0 0 1-.8.82h-16a.8.8 0 0 1-.8-.82v-16.84a.8.8 0 0 1 .8-.82h16c.44 0 .8.37.8.82zm-1.6 5.7v-4.89H58.27v4.9h4a.8.8 0 0 1 0 1.63h-4v2.44a.8.8 0 0 1-.8.81.8.8 0 0 1-.8-.81v-8.97H54v15.22h2.67v-2.45a.8.8 0 0 1 .8-.81c.44 0 .8.36.8.81v2.45H68.4v-8.7H66a.8.8 0 0 1-.8-.81.8.8 0 0 1 .8-.82zm1.37 16.61l-1.6 1.63a.79.79 0 0 1-1.14 0 .83.83 0 0 1 0-1.15l.24-.24H51.93l.23.24c.32.32.32.83 0 1.15a.79.79 0 0 1-1.13 0l-1.6-1.63a.83.83 0 0 1 0-1.15l1.6-1.63a.79.79 0 0 1 1.13 0c.32.32.32.83 0 1.15l-.23.24h15.34l-.24-.24a.83.83 0 0 1 0-1.15.79.79 0 0 1 1.14 0l1.6 1.63c.3.31.3.83 0 1.15zm-19.2-6.04c.3.31.3.83 0 1.15l-1.6 1.63a.79.79 0 0 1-1.14 0l-1.6-1.63a.83.83 0 0 1 0-1.15.79.79 0 0 1 1.13 0l.24.24v-14.55l-.24.24a.79.79 0 0 1-1.13 0 .83.83 0 0 1 0-1.15l1.6-1.63a.79.79 0 0 1 1.13 0l1.6 1.63c.32.32.32.83 0 1.15a.79.79 0 0 1-1.13 0l-.23-.24v14.55l.23-.24a.79.79 0 0 1 1.13 0z"/></defs><use xlink:href="#fa" transform="translate(-50 -717)"/></symbol><symbol viewBox="0 0 17 22" id="count-refr" xmlns="http://www.w3.org/2000/svg"><defs><path id="ga" d="M69 769.86V791H52v-21.14h4.1l1.15-3V761h6.5v5.88l1.15 2.98zm-10-5.83h3v-1.27h-3zm-1.02 5.83h5.04L62 767.2v-1.42h-2.98v1.4zm9.27 19.38V775.6h-13.5v13.64zm0-15.4v-2.23h-13.5v2.23zm-.91 9.43h-1.62l1.2 1.14-1.2 1.27-2.55-2.4h-.8v.76l2.48 2.47-1.24 1.24-1.23-1.23v1.71h-1.76v-1.7l-1.22 1.23-1.24-1.24 2.46-2.48v-.77h-.77l-2.47 2.47-1.24-1.24 1.23-1.23h-1.7v-1.75h1.7l-1.25-1.27 1.24-1.24 2.5 2.5h.76v-.78l-2.49-2.5 1.24-1.23 1.25 1.25v-1.7h1.76v1.7l1.25-1.25 1.24 1.24-2.5 2.5v.78h.77l2.42-2.56 1.27 1.2-1.27 1.36h1.78z"/></defs><use xlink:href="#ga" transform="translate(-52 -769)"/></symbol><symbol viewBox="0 0 14 10" id="mail" xmlns="http://www.w3.org/2000/svg"><defs><path id="ha" d="M7 7l1.73-1.52 4.95 4.25A1 1 0 0 1 13 10H1.01c-.27 0-.51-.1-.7-.27l4.96-4.25zM13.68.27L7 6 .32.27A1 1 0 0 1 1 0h11.98a1 1 0 0 1 .7.27zM0 .87l4.83 4.2L0 9.2zm9.17 4.2L14 .88V9.2z"/></defs><use xlink:href="#ha"/></symbol><symbol viewBox="0 0 384 512" id="map" xmlns="http://www.w3.org/2000/svg"><path d="M172.268 501.67C26.97 291.031 0 269.413 0 192 0 85.961 85.961 0 192 0s192 85.961 192 192c0 77.413-26.97 99.031-172.268 309.67-9.535 13.774-29.93 13.773-39.464 0zM192 272c44.183 0 80-35.817 80-80s-35.817-80-80-80-80 35.817-80 80 35.817 80 80 80z"/></symbol><symbol viewBox="0 0 12 2" id="minus" xmlns="http://www.w3.org/2000/svg"><defs><path id="ja" d="M1238 535v-2h12v2z"/></defs><use xlink:href="#ja" opacity=".5" transform="translate(-1238 -533)"/></symbol><symbol viewBox="0 0 20 20" id="plus" xmlns="http://www.w3.org/2000/svg"><defs><path id="ka" d="M567 4282.9v-1.81h9.09V4272h1.81v9.09h9.1v1.81h-9.1v9.1h-1.81v-9.1z"/></defs><use xlink:href="#ka" transform="translate(-567 -4272)"/></symbol><symbol viewBox="0 0 12 12" id="plus-sm" xmlns="http://www.w3.org/2000/svg"><defs><path id="la" d="M1347 534.94v-1.88h5.06V528h1.88v5.06h5.06v1.88h-5.06V540h-1.88v-5.06z"/></defs><use xlink:href="#la" opacity=".5" transform="translate(-1347 -528)"/></symbol><symbol viewBox="0 0 512 512" id="search-plus" xmlns="http://www.w3.org/2000/svg"><path d="M319.8 204v8c0 6.6-5.4 12-12 12h-84v84c0 6.6-5.4 12-12 12h-8c-6.6 0-12-5.4-12-12v-84h-84c-6.6 0-12-5.4-12-12v-8c0-6.6 5.4-12 12-12h84v-84c0-6.6 5.4-12 12-12h8c6.6 0 12 5.4 12 12v84h84c6.6 0 12 5.4 12 12zm188.5 293L497 508.3c-4.7 4.7-12.3 4.7-17 0l-129-129c-2.3-2.3-3.5-5.3-3.5-8.5v-8.5C310.6 395.7 261.7 416 208 416 93.8 416 1.5 324.9 0 210.7-1.5 93.7 93.7-1.5 210.7 0 324.9 1.5 416 93.8 416 208c0 53.7-20.3 102.6-53.7 139.5h8.5c3.2 0 6.2 1.3 8.5 3.5l129 129c4.7 4.7 4.7 12.3 0 17zM384 208c0-97.3-78.7-176-176-176S32 110.7 32 208s78.7 176 176 176 176-78.7 176-176z"/></symbol><symbol viewBox="0 0 57 57" id="tel" xmlns="http://www.w3.org/2000/svg"><defs><path id="na" d="M55.53 44.93L46.8 36.2a4.56 4.56 0 0 0-6.42.12l-4.4 4.4-.88-.48a43.82 43.82 0 0 1-10.6-7.66c-4-4.02-6.12-7.83-7.67-10.61l-.47-.85 2.95-2.95 1.46-1.46a4.55 4.55 0 0 0 .11-6.43l-8.74-8.74a4.55 4.55 0 0 0-6.43.12L3.24 4.13l.07.06a14.23 14.23 0 0 0-2.94 7.22c-1.15 9.57 3.22 18.31 15.1 30.18C31.86 58 45.08 56.76 45.65 56.7a14.78 14.78 0 0 0 7.2-2.93l.06.05 2.5-2.45a4.56 4.56 0 0 0 .11-6.43z"/></defs><use xlink:href="#na"/></symbol><symbol viewBox="0 0 514 612" id="user" xmlns="http://www.w3.org/2000/svg"><defs><path id="oa" d="M257 0c78.31 0 141.8 63.54 141.8 141.91 0 78.38-63.49 141.92-141.8 141.92S115.2 220.29 115.2 141.9C115.2 63.54 178.7 0 257 0zm257 612H0c0-142.06 115.06-257.22 257-257.22S514 469.94 514 612z"/></defs><use xlink:href="#oa"/></symbol></svg>