<?xml version="1.0" encoding="utf-8"?><svg xmlns="http://www.w3.org/2000/svg" xmlns:xlink="http://www.w3.org/1999/xlink"><symbol viewBox="0 0 33 33" id="arr-left" xmlns="http://www.w3.org/2000/svg"><defs><path id="aa" d="M472 3319.5a16.5 16.5 0 1 1 33 0 16.5 16.5 0 0 1-33 0zm20.07 7.75l-7.73-7.75 7.73-7.76-1.54-1.53-9.26 9.29 9.26 9.29z"/></defs><use xlink:href="#aa" transform="translate(-472 -3303)"/></symbol><symbol viewBox="0 0 33 33" id="arr-r" xmlns="http://www.w3.org/2000/svg"><defs><path id="ba" d="M1430.5 3336a16.5 16.5 0 1 1 0-33 16.5 16.5 0 0 1 0 33zm-2.03-7.21l9.26-9.3-9.26-9.28-1.54 1.53 7.73 7.76-7.73 7.75z"/></defs><use xlink:href="#ba" transform="translate(-1414 -3303)"/></symbol><symbol viewBox="0 0 344.96 344.96" id="check" xmlns="http://www.w3.org/2000/svg"><g data-name="Слой 2"><path d="M321.85 86.24l-40-23.11-23.1-40H212.5L172.48 0l-40 23.11H86.24l-23.11 40-40 23.1v46.21L0 172.48l23.11 40v46.21l40 23.11 23.11 40h46.21l40 23.1 40-23.11h46.21l23.11-40 40-23.11V212.5l23.11-40-23.11-40V86.24zM156.91 243.07a16.79 16.79 0 0 1-23.34 0l-50.45-50.44a16.19 16.19 0 0 1 0-22.89l13.35-13.35a16.19 16.19 0 0 1 22.89 0l25.87 25.87 80.34-80.35a16.19 16.19 0 0 1 22.89 0l13.35 13.35a16.19 16.19 0 0 1 0 22.89z" data-name="Capa 1"/></g></symbol><symbol viewBox="0 0 14 10" id="mail" xmlns="http://www.w3.org/2000/svg"><defs><path id="da" d="M7 7l1.73-1.52 4.95 4.25A1 1 0 0 1 13 10H1.01c-.27 0-.51-.1-.7-.27l4.96-4.25zM13.68.27L7 6 .32.27A1 1 0 0 1 1 0h11.98a1 1 0 0 1 .7.27zM0 .87l4.83 4.2L0 9.2zm9.17 4.2L14 .88V9.2z"/></defs><use xlink:href="#da"/></symbol><symbol viewBox="0 0 384 512" id="map" xmlns="http://www.w3.org/2000/svg"><path d="M172.268 501.67C26.97 291.031 0 269.413 0 192 0 85.961 85.961 0 192 0s192 85.961 192 192c0 77.413-26.97 99.031-172.268 309.67-9.535 13.774-29.93 13.773-39.464 0zM192 272c44.183 0 80-35.817 80-80s-35.817-80-80-80-80 35.817-80 80 35.817 80 80 80z"/></symbol><symbol viewBox="0 0 57 57" id="tel" xmlns="http://www.w3.org/2000/svg"><defs><path id="fa" d="M55.53 44.93L46.8 36.2a4.56 4.56 0 0 0-6.42.12l-4.4 4.4-.88-.48a43.82 43.82 0 0 1-10.6-7.66c-4-4.02-6.12-7.83-7.67-10.61l-.47-.85 2.95-2.95 1.46-1.46a4.55 4.55 0 0 0 .11-6.43l-8.74-8.74a4.55 4.55 0 0 0-6.43.12L3.24 4.13l.07.06a14.23 14.23 0 0 0-2.94 7.22c-1.15 9.57 3.22 18.31 15.1 30.18C31.86 58 45.08 56.76 45.65 56.7a14.78 14.78 0 0 0 7.2-2.93l.06.05 2.5-2.45a4.56 4.56 0 0 0 .11-6.43z"/></defs><use xlink:href="#fa"/></symbol><symbol viewBox="0 0 514 612" id="user" xmlns="http://www.w3.org/2000/svg"><defs><path id="ga" d="M257 0c78.31 0 141.8 63.54 141.8 141.91 0 78.38-63.49 141.92-141.8 141.92S115.2 220.29 115.2 141.9C115.2 63.54 178.7 0 257 0zm257 612H0c0-142.06 115.06-257.22 257-257.22S514 469.94 514 612z"/></defs><use xlink:href="#ga"/></symbol></svg>