<svg xmlns="http://www.w3.org/2000/svg" viewBox="0 0 86.67 81.17"><defs><style>.cls-1{fill:#8f2828;}</style></defs><title>check</title><g id="Слой_2" data-name="Слой 2"><g id="Layer_1" data-name="Layer 1"><path class="cls-1" d="M0,36.33A77.55,77.55,0,0,1,12.4,39.7a87.81,87.81,0,0,1,11.86,5.17A67.42,67.42,0,0,1,35.42,52,41.36,41.36,0,0,1,45,62.61L34.52,64.07q.38-2.34.69-4.87L35.78,54a103.57,103.57,0,0,1,1.74-11.14,56.47,56.47,0,0,1,3.79-11.26c.41-.91.89-1.8,1.35-2.69s1-1.74,1.53-2.59,1.09-1.68,1.68-2.49,1.19-1.6,1.83-2.36a57.29,57.29,0,0,1,18-14.28A76.84,76.84,0,0,1,86.67,0c-5.94,4.33-11.75,8.47-17,13A71.5,71.5,0,0,0,56.29,27.76a50.21,50.21,0,0,0-7,17.62c-.67,3.21-1.15,6.55-1.65,10.08a100.92,100.92,0,0,1-2,11.13L41.68,81.17l-6.6-13.11a38.87,38.87,0,0,0-6.39-8.64A93.67,93.67,0,0,0,20,51.36c-3.12-2.59-6.38-5.11-9.73-7.58S3.48,38.83,0,36.33Z"/></g></g></svg>