<svg xmlns="http://www.w3.org/2000/svg" viewBox="0 0 20.52 30.81"  width="21" height="31"><defs><style>.cls-1{fill:#595959;fill-rule:evenodd;}</style></defs><title>i-tel</title><g id="Слой_2" data-name="Слой 2"><g id="_8" data-name="8"><path class="cls-1" d="M19.3,27.54H6.42V7.4H19.3ZM12.87,30h0a.85.85,0,1,1,.85-.84.83.83,0,0,1-.85.84ZM11,5.82H14.8a.44.44,0,0,1,.13.24.44.44,0,0,1-.13.24H11a.24.24,0,1,1,0-.48ZM5.83,1.46a4.35,4.35,0,0,0-3,1.21,4.8,4.8,0,0,0-1.34,3.4c0,.12.12.37.24.37s.25-.25.25-.37A4.2,4.2,0,0,1,3.15,3.15,3.58,3.58,0,0,1,5.83,2.06a.25.25,0,0,0,.24-.24c0-.24-.12-.36-.24-.36Zm.6,1.45A3.64,3.64,0,0,0,4,3.88,4.05,4.05,0,0,0,2.79,6.79c0,.13.12.24.37.24a.25.25,0,0,0,.24-.24,3.35,3.35,0,0,1,1-2.42,3,3,0,0,1,2.06-1c.25,0,.25-.12.25-.24s0-.24-.25-.24ZM5.09,0a4.86,4.86,0,0,0-3.4,1.46A5.28,5.28,0,0,0,0,5.46c0,.13.23.24.36.24A.26.26,0,0,0,.6,5.46,5.36,5.36,0,0,1,1.95,1.94,4.37,4.37,0,0,1,5.09.61.27.27,0,0,0,5.34.37C5.34.24,5.22,0,5.09,0Zm13.6,4.62H7A1.76,1.76,0,0,0,5.22,6.31V29.11A1.76,1.76,0,0,0,7,30.81H18.69a1.76,1.76,0,0,0,1.83-1.69V6.31a1.76,1.76,0,0,0-1.83-1.69Z"/></g></g></svg>