<svg xmlns="http://www.w3.org/2000/svg" viewBox="0 0 265.96 265.96" width="236"
height="236"><defs><style>.cls-1{fill:#979998;opacity:0.5;}.cls-2,.cls-4{fill:#fff;}.cls-3{fill:#8d2727;}.cls-4{font-size:15.33px;font-family:MyriadPro-Semibold, Myriad Pro;font-weight:700;}.cls-5{letter-spacing:-0.01em;}.cls-6{letter-spacing:0em;}.cls-7{letter-spacing:0em;}.cls-8{letter-spacing:-0.01em;}.cls-9{letter-spacing:0em;}</style></defs><title>logo-round</title><g id="Слой_2" data-name="Слой 2"><g id="Layer_1" data-name="Layer 1"><circle class="cls-1" cx="132.98" cy="132.98" r="132.98"/><path class="cls-2" d="M49.13,93.84V83.92a20.38,20.38,0,0,1,3.68-.27c3.73.05,6,1.71,6,5,0,3.15-2.4,5.17-6.45,5.17h-3.2m2.77-16.21a71.21,71.21,0,0,0-10.83.75v35.47h8.06V99.7h2.45c3.31.05,4.85,1.28,5.81,5.76s1.92,7.36,2.51,8.37h8.32c-.69-1.39-1.81-6.08-2.93-10.14C64.39,100.4,63,98,60.49,97v-.16A9.54,9.54,0,0,0,66.84,88a9.13,9.13,0,0,0-3.31-7.52c-2.56-2-6.3-2.83-11.63-2.83"/><polyline class="cls-2" points="94.89 77.89 72.7 77.89 72.7 113.84 95.64 113.84 95.64 107.17 80.87 107.17 80.87 98.64 94.1 98.64 94.1 92.02 80.87 92.02 80.87 84.56 94.89 84.56 94.89 77.89"/><polyline class="cls-2" points="109.35 77.89 101.19 77.89 101.19 113.84 123.64 113.84 123.64 107.01 109.35 107.01 109.35 77.89"/><path class="cls-2" d="M138.31,98.53l2.14-7.63c.58-2.08,1.12-4.8,1.65-6.93h.11c.53,2.13,1.17,4.8,1.81,6.93l2.24,7.63h-7.95m9.49-20.64H137.14l-11,35.95h8.43l2.56-9.23h10.29l2.77,9.23h8.75L147.8,77.89"/><path class="cls-2" d="M190.26,77.89H181l-3,6.56c-.9,2.08-1.6,3.68-2.45,6h-.1c-.85-2-1.65-3.79-2.72-6l-3.15-6.56h-9.34l10,17.76-10.4,18.19h9.28l3-6.51c1.12-2.51,2-4.37,2.77-6.45h.1c1,2.08,1.87,3.95,3.2,6.45l3.26,6.51h9.39l-10.67-18.4,10.14-17.55"/><path class="cls-2" d="M204,98.53l2.13-7.63c.59-2.08,1.12-4.8,1.65-6.93h.1c.53,2.13,1.17,4.8,1.81,6.93L212,98.53H204m9.49-20.64H202.85l-11,35.95h8.43l2.56-9.23h10.29l2.77,9.23h8.75L213.51,77.89"/><path class="cls-2" d="M61,121.21c-12,0-19.26,6.64-19.26,15.33,0,7.4,5.51,12.08,14,15,6.12,2.19,8.53,4,8.53,7.17,0,3.32-2.79,5.51-8.08,5.51a29.35,29.35,0,0,1-12.76-3.17l-2.34,9.52c2.87,1.59,8.61,3.1,14.42,3.1,14,0,20.54-7.25,20.54-15.78,0-7.18-4.23-11.86-13.22-15.18-6.57-2.49-9.44-3.93-9.44-7.18,0-2.64,2.42-4.91,7.4-4.91a24.2,24.2,0,0,1,10.65,2.42L74,123.78a31.17,31.17,0,0,0-13-2.57"/><polyline class="cls-2" points="119.09 122.04 79.97 122.04 79.97 131.71 93.64 131.71 93.64 172.94 105.19 172.94 105.19 131.71 119.09 131.71 119.09 122.04"/><path class="cls-2" d="M197.62,144.62v-14a28.68,28.68,0,0,1,5.21-.38c5.29.08,8.46,2.42,8.46,7.1,0,4.46-3.4,7.33-9.14,7.33h-4.53m3.93-23a100.81,100.81,0,0,0-15.33,1.06v50.22h11.4v-20h3.47c4.68.08,6.87,1.81,8.23,8.16s2.72,10.42,3.55,11.86h11.78c-1-2-2.56-8.61-4.15-14.35-1.28-4.68-3.25-8.08-6.79-9.51v-.23a13.51,13.51,0,0,0,9-12.54c0-4.68-1.66-8.23-4.68-10.65-3.62-2.87-8.91-4-16.46-4"/><polyline class="cls-3" points="148.63 116.67 139.37 135.44 118.66 138.45 133.64 153.05 130.11 173.68 148.63 163.94 167.15 173.68 163.62 153.05 178.6 138.45 157.89 135.44 148.63 116.67"/><text class="cls-4" transform="translate(46.97 198.12)">ТЕХН<tspan class="cls-5" x="35.36" y="0">О</tspan><tspan class="cls-6" x="46.01" y="0">ЛОГИИ </tspan><tspan class="cls-7" x="97.33" y="0">З</tspan><tspan class="cls-8" x="105.25" y="0">Д</tspan><tspan x="115.28" y="0">О</tspan><tspan class="cls-9" x="126.08" y="0">Р</tspan><tspan x="134.57" y="0">ОВЬЯ</tspan></text></g></g></svg>