<svg xmlns="http://www.w3.org/2000/svg" viewBox="0 0 78.87 55.11" width="124"
height="88"><defs><style>.cls-1{fill:#999;}.cls-2{fill:#902828;}.cls-3{font-size:6.59px;fill:#fff;font-family:MyriadPro-Semibold, Myriad Pro;font-weight:700;}.cls-4{letter-spacing:-0.01em;}.cls-5{letter-spacing:0em;}.cls-6{letter-spacing:0em;}.cls-7{letter-spacing:-0.01em;}.cls-8{letter-spacing:-0.01em;}</style></defs><title>logo</title><g id="Слой_2" data-name="Слой 2"><g id="Слой_1-2" data-name="Слой 1"><path class="cls-1" d="M3.46,7V2.7A8.76,8.76,0,0,1,5,2.59c1.6,0,2.57.73,2.57,2.15S6.58,7,4.84,7H3.46M4.65,0A30.6,30.6,0,0,0,0,.32V15.56H3.46V9.49H4.51C5.94,9.51,6.6,10,7,12a19.37,19.37,0,0,0,1.08,3.6h3.57c-.3-.6-.78-2.61-1.26-4.35A3.9,3.9,0,0,0,8.34,8.32V8.25a4.1,4.1,0,0,0,2.73-3.8A3.92,3.92,0,0,0,9.65,1.21C8.55.34,6.94,0,4.65,0"/><polyline class="cls-1" points="23.12 0.12 13.59 0.12 13.59 15.56 23.44 15.56 23.44 12.7 17.09 12.7 17.09 9.03 22.78 9.03 22.78 6.19 17.09 6.19 17.09 2.98 23.12 2.98 23.12 0.12"/><polyline class="cls-1" points="29.33 0.12 25.82 0.12 25.82 15.56 35.47 15.56 35.47 12.63 29.33 12.63 29.33 0.12"/><path class="cls-1" d="M41.77,9l.92-3.28c.25-.89.48-2.06.71-3h0c.23.92.5,2.06.78,3l1,3.28H41.77M45.85.11H41.27L36.55,15.56h3.62l1.1-4h4.42l1.19,4h3.76L45.85.11"/><path class="cls-1" d="M64.09.11h-4L58.8,2.93c-.39.89-.69,1.58-1.05,2.57h0c-.37-.87-.71-1.63-1.17-2.57L55.18.11h-4l4.31,7.63L51,15.56h4l1.28-2.8c.48-1.08.87-1.88,1.19-2.77h0c.44.89.8,1.7,1.37,2.77l1.4,2.8h4L59.74,7.65,64.09.11"/><path class="cls-1" d="M70,9l.92-3.28c.25-.89.48-2.06.71-3h0c.23.92.5,2.06.78,3l1,3.28H70M74.08.11H69.5L64.78,15.56H68.4l1.1-4h4.42l1.19,4h3.76L74.08.11"/><path class="cls-1" d="M8.57,18.73c-5.16,0-8.27,2.85-8.27,6.59,0,3.18,2.37,5.19,6,6.46,2.63.94,3.67,1.72,3.67,3.08s-1.2,2.37-3.47,2.37A12.61,12.61,0,0,1,1,35.86L0,39.95a14.32,14.32,0,0,0,6.2,1.33c6,0,8.83-3.11,8.83-6.78,0-3.08-1.82-5.1-5.68-6.52-2.82-1.07-4.06-1.69-4.06-3.08,0-1.14,1-2.11,3.18-2.11a10.4,10.4,0,0,1,4.58,1l1.1-4a13.39,13.39,0,0,0-5.58-1.1"/><polyline class="cls-1" points="33.52 19.08 16.71 19.08 16.71 23.24 22.58 23.24 22.58 40.95 27.55 40.95 27.55 23.24 33.52 23.24 33.52 19.08"/><path class="cls-1" d="M67.26,28.79v-6a12.32,12.32,0,0,1,2.24-.16c2.27,0,3.63,1,3.63,3s-1.46,3.15-3.93,3.15H67.26m1.69-9.86a43.31,43.31,0,0,0-6.59.45V41h4.9v-8.6h1.49c2,0,3,.78,3.54,3.5A27.48,27.48,0,0,0,73.81,41h5.06c-.42-.84-1.1-3.7-1.79-6.16-.55-2-1.39-3.47-2.92-4.09v-.1A5.8,5.8,0,0,0,78,25.22a5.55,5.55,0,0,0-2-4.58c-1.56-1.23-3.83-1.72-7.07-1.72"/><polyline class="cls-2" points="46.21 16.78 42.23 24.84 33.33 26.13 39.77 32.41 38.25 41.27 46.21 37.09 54.17 41.27 52.65 32.41 59.08 26.13 50.19 24.84 46.21 16.78"/><rect class="cls-1" y="43.65" width="78.87" height="11.46"/><text class="cls-3" transform="translate(2.53 51.77)">ТЕХН<tspan class="cls-4" x="15.19" y="0">О</tspan><tspan class="cls-5" x="19.77" y="0">ЛОГИИ </tspan><tspan class="cls-6" x="41.82" y="0">З</tspan><tspan class="cls-7" x="45.22" y="0">Д</tspan><tspan x="49.53" y="0">О</tspan><tspan class="cls-8" x="54.17" y="0">Р</tspan><tspan x="57.82" y="0">ОВЬЯ</tspan></text></g></g></svg>