<svg xmlns="http://www.w3.org/2000/svg" viewBox="0 0 153.16 201.98"   width="28" height="37"><defs><style>.cls-1,.cls-2,.cls-3{fill:none;stroke:#8c2727;stroke-miterlimit:10;}.cls-1{stroke-width:14px;}.cls-2{stroke-width:10px;}.cls-3{stroke-width:8px;}.cls-4{fill:#8c2727;}</style></defs><title>mark</title><g id="Слой_2" data-name="Слой 2"><g id="Layer_1" data-name="Layer 1"><path class="cls-1" d="M130.6,60c0,29.26-53.67,114-53.67,114S24.63,89.25,24.63,60a53,53,0,0,1,106,0Z"/><circle class="cls-2" cx="77.6" cy="56.99" r="24.67"/><path class="cls-3" d="M76.6,149"/><path class="cls-4" d="M96.24,162.23c2.87-.09,5.73-.06,8.61,0s5.74.22,8.62.41a140.13,140.13,0,0,1,17.22,2.26,76.39,76.39,0,0,1,8.58,2.23,35.22,35.22,0,0,1,8.5,3.92,13.63,13.63,0,0,1,4,3.9,8.53,8.53,0,0,1,1.28,3.29c0,.32.07.64.1,1a9,9,0,0,1,0,1,7.08,7.08,0,0,1-.37,1.84,11.82,11.82,0,0,1-3.52,5.06,23.1,23.1,0,0,1-4.14,2.93,69.56,69.56,0,0,1-17,6.38,157.39,157.39,0,0,1-17.27,3.34A250.18,250.18,0,0,1,76,202q-8.7,0-17.4-.59c-5.8-.41-11.59-1-17.37-1.83A158.07,158.07,0,0,1,24,196.1c-2.86-.77-5.72-1.63-8.56-2.7A47.18,47.18,0,0,1,7,189.34,20,20,0,0,1,2.88,186a11.64,11.64,0,0,1-1.82-2.52,7.92,7.92,0,0,1-.68-1.64c-.09-.3-.17-.6-.24-.9s-.08-.64-.1-1a7.87,7.87,0,0,1,.61-3.71,8.56,8.56,0,0,1,.8-1.5,9.22,9.22,0,0,1,.94-1.24,16.59,16.59,0,0,1,4.15-3.3,32,32,0,0,1,4.26-2.07c1.42-.58,2.84-1.08,4.28-1.52a85.51,85.51,0,0,1,8.59-2.1,162.69,162.69,0,0,1,34.46-2.42C46.82,164,35.56,166,24.85,169.33c-2.67.83-5.3,1.73-7.81,2.79a36.1,36.1,0,0,0-6.94,3.66A10.63,10.63,0,0,0,7.73,178a2.55,2.55,0,0,0-.31.49,1.58,1.58,0,0,0-.17.4c0,.23-.07.35,0,.48a3.43,3.43,0,0,0,1.05,1.39,14,14,0,0,0,2.7,1.84,39.61,39.61,0,0,0,7.17,2.88c2.56.8,5.2,1.48,7.89,2.06,5.38,1.13,10.88,2,16.42,2.63s11.12,1.11,16.72,1.38S70.43,192,76,192s11.23-.11,16.83-.38,11.19-.7,16.74-1.3,11.06-1.42,16.46-2.52c2.7-.55,5.36-1.2,7.95-2a45.7,45.7,0,0,0,7.33-2.75,17.77,17.77,0,0,0,3-1.79,5.31,5.31,0,0,0,1.58-1.68,1,1,0,0,0-.05-1.13,7.3,7.3,0,0,0-1.94-2.16,30.77,30.77,0,0,0-6.71-3.82,78,78,0,0,0-7.75-2.89C118.79,166.16,107.53,164.13,96.24,162.23Z"/></g></g></svg>