<svg xmlns="http://www.w3.org/2000/svg" viewBox="0 0 110 110"><defs><style>.cls-1{fill:none;stroke:#979998;stroke-miterlimit:10;stroke-width:4px;}.cls-2{fill:#979998;}.cls-3{fill:#fff;}</style></defs><title>prod-i-1</title><g id="Слой_2" data-name="Слой 2"><g id="Layer_1" data-name="Layer 1"><circle class="cls-1" cx="55" cy="55" r="53"/><path class="cls-2" d="M71.16,85.9v-62a7,7,0,0,0-7-7H58V12.33H41.71V17H35.8a7,7,0,0,0-7,7v62a7,7,0,0,0,7,7H64.19a7,7,0,0,0,7-7Zm-4.65,0a2.32,2.32,0,0,1-2.32,2.32H35.8a2.32,2.32,0,0,1-2.32-2.32v-62a2.32,2.32,0,0,1,2.32-2.32H64.19a2.32,2.32,0,0,1,2.32,2.32v62Z"/><path class="cls-2" d="M67.49,82.2A27.15,27.15,0,1,0,40.34,55,27.15,27.15,0,0,0,67.49,82.2Z"/><path class="cls-2" d="M67.49,82.2A27.15,27.15,0,1,0,40.34,55,27.15,27.15,0,0,0,67.49,82.2Z"/><polygon class="cls-3" points="65.36 44.75 65.36 52.92 57.19 52.92 57.19 57.18 65.36 57.18 65.36 65.34 69.62 65.34 69.62 57.18 77.79 57.18 77.79 52.92 69.62 52.92 69.62 44.75 65.36 44.75 65.36 44.75"/></g></g></svg>