<svg xmlns="http://www.w3.org/2000/svg" viewBox="0 0 110 110"><defs><style>.cls-1{fill:#979998;}.cls-2{fill:none;stroke:#979998;stroke-miterlimit:10;stroke-width:4px;}</style></defs><title>prod-i-3</title><g id="Слой_2" data-name="Слой 2"><g id="Layer_1" data-name="Layer 1"><path class="cls-1" d="M50.45,81h0Z"/><path class="cls-1" d="M16.5,70.7s-1.14,5.14,0,6.59,12.2,1.37,13.75,0,.72-6,.72-6C26.53,71.26,16.5,70.7,16.5,70.7Z"/><path class="cls-1" d="M80.62,71.26s-.83,4.66.73,6,12.65,1.45,13.79,0,0-6.59,0-6.59S85.08,71.26,80.62,71.26Z"/><path class="cls-1" d="M97.31,62a4.48,4.48,0,0,0-2.61-1.63s.11-7.73-.87-9.58-10-6.32-10-6.32l1.09-1.09s6,.54,6.64,0,1.09-3.38,0-4.36-7.62-.76-8.6-.22-.87,3.27-.87,3.27c-6-16.77-7.84-15.25-7.84-15.25H37.42s-1.85-1.52-7.84,15.25c0,0,.11-2.72-.87-3.27s-7.51-.76-8.6.22-.65,3.81,0,4.36,6.64,0,6.64,0l1.09,1.09s-9,4.47-10,6.32-.87,9.58-.87,9.58A4.48,4.48,0,0,0,14.33,62c-.65,1.2,0,7.3,0,7.3s14.26,4.79,41.49,4.79,41.49-4.79,41.49-4.79S98,63.24,97.31,62ZM38.07,29.49c1.74-.43,17.75,0,17.75,0s16-.43,17.75,0,7.51,13.29,7.08,15S55.82,46,55.82,46,31.43,46.26,31,44.51,36.33,29.92,38.07,29.49ZM34.7,60.41c-1.63.87-14.48-3.27-14.48-3.27V52a55.16,55.16,0,0,1,8.6,1.42C32.19,54.43,36.33,59.54,34.7,60.41ZM70.74,71c-.22,1.09-14.92,1.31-14.92,1.31S41.12,72.07,40.9,71s-.76-5.55.44-5.88,14.48,0,14.48,0,13.28-.33,14.48,0S71,69.89,70.74,71ZM91.43,57.15s-12.85,4.14-14.48,3.27,2.5-6,5.88-7A55.16,55.16,0,0,1,91.43,52Z"/><circle class="cls-2" cx="55" cy="55" r="53"/></g></g></svg>