<svg xmlns="http://www.w3.org/2000/svg" viewBox="0 0 127.71 197.33"   width="28" height="43"><defs><style>.cls-1{fill:#8c2727;}</style></defs><title>tel-r</title><g id="Слой_2" data-name="Слой 2"><g id="Layer_1" data-name="Layer 1"><path class="cls-1" d="M120.13,176.38H40v-129h80.15Zm-40,15.49h0a5.22,5.22,0,0,1-5.3-5.39,5.3,5.3,0,1,1,10.6,0,5.22,5.22,0,0,1-5.3,5.39ZM68.76,37.31H92.13a2.83,2.83,0,0,1,.78,1.55,2.83,2.83,0,0,1-.78,1.55H68.76a1.55,1.55,0,1,1,0-3.1Zm-32.51-28A26.66,26.66,0,0,0,17.34,17.1,31.23,31.23,0,0,0,9,38.86c0,.74.72,2.36,1.5,2.36s1.57-1.61,1.57-2.36A27.27,27.27,0,0,1,19.63,20.2a21.94,21.94,0,0,1,16.62-7,1.59,1.59,0,0,0,1.51-1.54c0-1.55-.72-2.3-1.51-2.3ZM40,18.65a22.31,22.31,0,0,0-15.05,6.2,26.34,26.34,0,0,0-7.58,18.66c0,.8.72,1.55,2.29,1.55a1.6,1.6,0,0,0,1.51-1.55,21.78,21.78,0,0,1,6-15.49C31,24.11,35.47,21.76,40,21.76c1.57,0,1.57-.74,1.57-1.55s0-1.55-1.57-1.55ZM31.67,0A29.85,29.85,0,0,0,10.54,9.36C3.73,15.56,0,24.85,0,35c0,.81,1.45,1.55,2.23,1.55A1.64,1.64,0,0,0,3.73,35a34.92,34.92,0,0,1,8.37-22.5A26.82,26.82,0,0,1,31.67,3.9a1.7,1.7,0,0,0,1.56-1.55c0-.8-.78-2.36-1.56-2.36Zm84.66,29.56H43.78c-6,0-11.32,4.65-11.32,10.85V186.49c0,6.2,5.3,10.85,11.32,10.85h72.56c6.08,0,11.38-4.65,11.38-10.85V40.41c0-6.2-5.3-10.85-11.38-10.85Z"/></g></g></svg>