<svg xmlns="http://www.w3.org/2000/svg" viewBox="0 0 199.79 197.41"><defs><style>.cls-1{fill:none;stroke:#979998;stroke-miterlimit:10;}</style></defs><title>vyb-1</title><g id="Слой_2" data-name="Слой 2"><g id="Layer_1" data-name="Layer 1"><path class="cls-1" d="M19.71,143l-2.12.5a6,6,0,0,0-3.5.88L13.71,149l-5.5,1.37c-6.87,7.12-1.12,11.24-1.12,11.24-.12,2.25,2.62,1.62,2.62,1.62l.38.87,5,1.62,2.5-.37,47.6,16c12.24,5.87,19.36,5.75,19.36,5.75,2.62,1.25,6.5-2.25,6.5-2.25,5.5,1.25,4.62-.62,4.62-.62l5.12-.5-.89-8.25c1.11-1,2.89-11.37,2.89-11.37,0,2.5,8.37,24.86,8.37,24.86,5.37,8.12,13.24,7.87,13.24,7.87,3.37.87,19.49-4.12,19.49-4.12,3.62.5,17.49-6.87,17.49-6.87l36.73-15.87c3-.62-.62-10.12-.62-10.12-2.87-7.62-29.86-16.49-29.86-16.49,0-1.5-6.75-11.24-6.75-11.24,3.37-16.49-5.41-47-5.41-47C155.13,78,136.89,76,136.89,76c-26.48-1.83-45.14,9.16-45.14,9.16l-.67-.42c.25-5.08-13-38.39-13-38.39,1.83-.58,2.51-3.75,2.51-3.75,1.26-1.75,0-9.66,0-9.66.33-5.33-5.16-12.41-5.16-12.41C74.76,10.42,62.52,9.08,62.52,9.08a61.44,61.44,0,0,0-8.16-1.5c-.33-.67-8.24-2.21-8.24-2.21C39.78,3.25,17.88,1.26,17.88,1.26c-5.25-2.5-10.16,2-10.16,2-1-.08-6,4.16-6,4.16-2.75,1.58,0,2.83,0,2.83s-1.62,1.54.12,4.54c0,0-3.37,7.62,2.12,12.24,0,0,2.75,22.49,5.62,30.11,0,0,9.62,30.73,10.62,32.23"/><path class="cls-1" d="M65.18,181.31c-1.62-.37-14-7.62-14-7.62C27.08,158,21.08,145.21,21.08,145.21,6,118.84,15.21,98.7,15.21,98.7c6.87-16.15,24.24-20.33,24.24-20.33C67.18,72,86.8,83.25,86.8,83.25c16.49,8.5,16.24,32.61,16.24,32.61s2,32,.5,38.73l-.75,9.49"/><path class="cls-1" d="M22.33,146.58s4.5-8.74,11.12-6.62c0,0,13.43,8.4,20.11,13.62,9,7.06,34.84,21.89,41.23,20.11,0,0,6-.48,6.15-.89"/><polyline class="cls-1" points="103.03 115.23 149.01 109.36 156 119.85 111.03 127.1 103.34 119.48"/><path class="cls-1" d="M100.94,101.49s41.57-1.62,45.95,2.37c0,0,3.12,4.62,2.12,5.5"/><path class="cls-1" d="M156.75,126.22s-.93-41.49-1.67-42.67"/><path class="cls-1" d="M100.09,99.6S99.91,83.12,73.93,77c0,0-22.49-5.12-40.23,3.5"/><path class="cls-1" d="M23.29,87.36S11.72,48.52,10.59,42.9c0,0-2.86-11.54-6.55-15.33"/><path class="cls-1" d="M31,81.85S19.21,54.39,19.21,25.74"/><path class="cls-1" d="M46.83,76.42s-17.62-31.77-17.62-40"/><path class="cls-1" d="M76.93,47.64s8.81,24.25,4.41,31.61"/><path class="cls-1" d="M8.47,10.33s-5.59-2-7,3.62"/><path class="cls-1" d="M77.59,46.64s-10.16,7.5-30.48,1c0,0-10.24-3.08-13.82-7.41l-.92-1S21.13,28.74,19.21,25.74c0,0-10.41-13.91-11.41-16.49,0,0-5.45-5.77-3.76.74"/><path class="cls-1" d="M30.12,33.65S20.46,22.83,19.21,20.08c0,0-7.41-11-8.16-12.24,0,0-3.63-5.63-6.1-3"/><path class="cls-1" d="M7.47,4.14s4.73-3,6.2-1.31c0,0,9.71,5.08,14.21,23.82,0,0,4.36,14.38,7.1,15.18"/><path class="cls-1" d="M11.72,1.92l1.08-.58s4.14.92,4.74,1.42c0,0,8.67,6,10.17,14.24,0,0,8.61,26.92,11.8,27.62"/><path class="cls-1" d="M41.2,44.62a51,51,0,0,0,1.67-20.79S41.7,8.14,27.29,2.24"/><path class="cls-1" d="M75.83,47.64c-.07-.58-5.9-16.41-7.49-18.66,0,0-13.14-20.27-13.15-21.3"/><path class="cls-1" d="M68.51,50.29l-1,1.43S59.6,51.21,57.19,51c0,0-11.74-1.06-13.41-.72,0,0-3.74-1.13-6-6.6"/><polygon class="cls-1" points="119.4 87.12 113.74 101.16 110.41 98.7 115.99 85.12 119.4 87.12"/><path class="cls-1" d="M104.09,158.41s3.56-9.49,14.48-6.91c0,0,36.14,10.29,41.64,22.34,0,0,3.41,7.39-.58,10.06,0,0-12.83,7.83-17.24,7.83,0,0-17.57,4.66-18.82,4.66"/><path class="cls-1" d="M107.41,154.58s4.58-4,15.82.75c0,0,32.15,12.74,34.65,19.57,0,0,4.25,7.07,0,10"/><path class="cls-1" d="M168.29,144.75s23.4,9.74,24.4,11.24c0,0,4.16,4.75,3.58,6.08l-2,1.25-3.75,1.75-8.58,2.75s-19.54,8.12-21.14,7.6"/><path class="cls-1" d="M132.35,156.16a83.59,83.59,0,0,0-18-29.06"/><path class="cls-1" d="M137.37,158.16S136,144.5,118.65,126.22"/><path class="cls-1" d="M149,156.74a11.71,11.71,0,0,0-1.42-10.48l-14.72-22.67"/><path class="cls-1" d="M156,156.74a14.56,14.56,0,0,0-1.79-10.82s-12-21-15.93-23.21"/><path class="cls-1" d="M167.21,152.5s2.41-4.7-1.83-10.3c0,0-13.73-20.8-15.19-21.41"/><path class="cls-1" d="M156.36,152.5l25.17-.5s6.33,6.33,6.75,11.16"/><path class="cls-1" d="M179.7,166.49l-1.75-4.41c-2.75-8.16-7.41-7.5-7.41-7.5H156.36"/><path class="cls-1" d="M137.37,157.58s22.76-1.58,26.92,0c0,0,6,1.17,8,11.91"/><path class="cls-1" d="M142.67,160.53s9.8-1,12.17,1.55c0,0,4.25,3.58,6.73,12.74"/><path class="cls-1" d="M195.85,161.66s-5.16-.49-6.66,1.91c0,0-7.08.42-8.58,2.33l-1.33,1.17s-6.58,1.66-7.5,3.08c0,0-8.15.53-10.22,4.66"/><path class="cls-1" d="M22.77,148a77.46,77.46,0,0,0-9.05,1"/></g></g></svg>