<svg xmlns="http://www.w3.org/2000/svg" width="51" height="49" viewBox="0 0 51 49"><path fill="#0b7b37" d="M13.96 49l-.21-.02c-.58-.12-.86-.63-.97-.82l-.46-.86-1.23-2.28-.6-1.1c-.48-.9-.98-1.84-1.48-2.74a.67.67 0 0 0-.22-.22c-1.6-.88-3.25-1.76-4.83-2.62l-2.03-1.09c-.28-.15-.8-.44-.91-1.03-.11-.59.28-1.04.5-1.31a3.06 3.06 0 0 1 2.54-1.09c1.35.02 2.73.01 4.06 0 .94-.01 1.91-.02 2.87-.01.12 0 .15 0 .27-.16l7.96-9.94 1.8-2.25-.12-.06-4.4-2.22-.5.5-.49.49c-.66.64-1.46.65-2.15.04-.53-.47-1.02-.92-1.04-1.59-.01-.5.25-.89.6-1.26l-4.08-2.07-4.47-2.27c-.25-.13-.88-.45-.99-1.13-.1-.69.4-1.2.59-1.39l.68-.68c.39-.39.8-.79 1.18-1.19a2.3 2.3 0 0 1 2.08-.69c2.34.29 4.73.56 7.04.83l2.47.29 1 .11a205607.7 205607.7 0 0 0 9.56 1.12l2.91.33.02-.02a89 89 0 0 1 7.66-6.78A21.68 21.68 0 0 1 44.14.49c.59-.21 1.2-.37 1.8-.45a3.54 3.54 0 0 1 3.02.93 3.61 3.61 0 0 1 1.01 3.05 9.68 9.68 0 0 1-1.24 3.56 37.06 37.06 0 0 1-5.06 6.86c-1.2 1.33-2.45 2.65-3.67 3.91l-.64.68-.04.04v.02a3639.25 3639.25 0 0 1 1.7 14.44c.28 2.56.57 5.21.93 7.8.21 1.52-.22 2.64-1.34 3.53a7.7 7.7 0 0 0-.77.75l-.43.44c-.16.17-.67.66-1.34.56-.68-.11-1-.75-1.1-.95l-2.9-5.72-1.47-2.89a.55.55 0 0 1-.08.08c-.67.68-1.5.7-2.2.04-.54-.5-1-.93-1.02-1.56-.01-.64.43-1.09.95-1.61.1-.11.22-.21.33-.31.08-.07.19-.16.26-.24l-.15-.25a4.65 4.65 0 0 1-.24-.42l-1.77-3.48-.18-.35L25.95 31l-9.76 7.82-.02.01v.03c0 .89 0 1.79-.02 2.66-.01 1.52-.02 3.08 0 4.61.02 1.26-.7 2.01-1.39 2.57-.3.24-.58.3-.8.3zM3.02 35.86l1.76.95 4.84 2.63c.37.2.7.53.9.89.51.92 1.02 1.86 1.5 2.77l.6 1.1c.4.76.82 1.51 1.23 2.27l.25.48c.23-.26.32-.49.31-.79-.02-1.56 0-3.13 0-4.65l.02-2.65c0-.59.22-1.04.67-1.4 3.26-2.6 6.57-5.25 9.76-7.82l3.11-2.49a3.92 3.92 0 0 1 .35-.24l.82-.54 1.09 2.15c.6 1.16 1.18 2.32 1.76 3.47l.17.29c.25.39.55.88.45 1.46-.1.58-.54.96-.89 1.26l-.24.22-.33.35.25.23.44-.5.3-.34.83-.94.59 1.11.14.27.22.41 1.7 3.34 2.77 5.47.2-.2c.28-.31.58-.63.94-.92.64-.5.83-1.03.7-1.93-.36-2.62-.66-5.27-.94-7.84l-.38-3.33-1.31-11.11c-.07-.55.1-1.03.5-1.46l.65-.68c1.2-1.26 2.45-2.56 3.63-3.87 1.5-1.67 3.4-3.92 4.82-6.53a8.02 8.02 0 0 0 1.05-2.94c.07-.64-.1-1.21-.5-1.6a1.8 1.8 0 0 0-1.56-.45c-.5.07-.98.19-1.45.36-1.9.7-3.58 1.91-5.12 3.09a84.27 84.27 0 0 0-7.5 6.64c-.18.17-.66.57-1.24.51-1.04-.1-2.1-.22-3.1-.35l-1.13-.13-8.42-.98-1-.12-2.48-.29c-2.31-.26-4.7-.54-7.05-.83-.35-.04-.47.03-.62.18l-1.21 1.22-.52.51 4.27 2.17 6.57 3.34-1.2.83-.28.17c-.08.06-.18.12-.2.15-.08.06-.23.22-.35.35l.25.24.36-.36c.25-.26.52-.52.8-.78.31-.29.93-.45 1.4-.21 1.57.78 3.1 1.56 4.72 2.39l1.94.99-.57.82-.06.08-.14.19-2.29 2.85-7.95 9.94c-.28.35-.75.81-1.63.81a267 267 0 0 0-2.85.02c-1.35.01-2.74.02-4.11 0-.45-.01-.75.08-1 .3z"/></svg>