<svg xmlns="http://www.w3.org/2000/svg" width="63" height="43" viewBox="0 0 63 43"><path fill="#0b7b37" d="M42.22 43H39.6l-.16-.05-.16-.06-.02-.01a13.28 13.28 0 0 1-7.02-3.09 13.02 13.02 0 0 1-6.5 3l-.83.18-.11.03h-2.56l-.1-.02-.39-.08-.79-.15a13.47 13.47 0 0 1-10.9-12.04c-.06-.92-.02-1.84.01-2.73l.02-.4a13.25 13.25 0 0 1-9.23-8.37c-.29-.75-.45-1.52-.61-2.26L.03 16 0 15.87v-2.75l.05-.16.06-.15.01-.03A13.43 13.43 0 0 1 8.15 2.13a13.4 13.4 0 0 1 13.28 1.44c.29.2.56.42.83.64A13.32 13.32 0 0 1 31 1.01h.01c3.24.01 6.16 1.07 8.69 3.17a13.53 13.53 0 0 1 10.06-3.11c3.92.39 7.46 2.43 9.71 5.62a12.96 12.96 0 0 1 2.33 9.98c-.78 4.58-3.33 7.97-7.59 10.09a13.48 13.48 0 0 1-9 15.54c-.68.23-1.36.36-2.01.49l-.86.18zm-2.27-2.11h2.04l.79-.16c.63-.13 1.22-.24 1.77-.43a11.4 11.4 0 0 0 7.47-13.77l-.03-.17-.16-.82.76-.34c4.09-1.81 6.42-4.72 7.14-8.88a10.9 10.9 0 0 0-1.98-8.41 11.48 11.48 0 0 0-17.32-1.56l-.72.68-.72-.67a11.38 11.38 0 0 0-7.98-3.24H31c-3.05 0-5.67 1.06-8 3.24l-.67.62-.71-.57-.48-.39A11.32 11.32 0 0 0 8.99 4.06c-3.73 1.62-6.27 5-6.79 9.04-.02.15-.06.28-.09.38v2.14l.19.89c.15.69.3 1.35.53 1.94a11.12 11.12 0 0 0 8.12 7.18l.39.1.89.24-.01.83-.04 1.26c-.04.88-.07 1.7-.02 2.51.33 4.9 4.27 9.25 9.17 10.11l.83.16.28.05h2.12l.75-.16c.62-.13 1.21-.25 1.77-.42 1.61-.5 3.05-1.38 4.42-2.68l.68-.65.72.61.31.26.58.49c1.7 1.37 3.65 2.2 5.78 2.46.15.02.28.06.38.09zm-16.44-2.88A8.54 8.54 0 0 1 15.4 26.8c.24-.71.69-1.15 1.39-1.35a11.25 11.25 0 0 0 4.74-2.79l.73-.7.73.7a11.54 11.54 0 0 0 5.94 3.09l.93.19-.09.94-.07.75c-.05.53-.1 1.02-.13 1.51-.07 1.43.15 2.83.65 4.16a1.7 1.7 0 0 1-.33 1.85 8.5 8.5 0 0 1-6.38 2.86zM17.4 27.46l-.01.01a6.46 6.46 0 0 0 2.91 7.58 6.52 6.52 0 0 0 7.89-1.16 12.5 12.5 0 0 1-.72-4.85c.02-.48.07-.96.12-1.43a13.77 13.77 0 0 1-5.33-2.78 13.12 13.12 0 0 1-4.86 2.63zm23.58 10.53a8.4 8.4 0 0 1-6.42-2.91 1.83 1.83 0 0 1-.32-1.67c.64-1.81.83-3.58.59-5.38l-.12.09-.16-1.57c-.11-.57.16-.91.33-1.06l.48-.42.11.04 4.25-2.74.57.36 1.01.66c.75.5 1.53 1.02 2.33 1.46 1.13.61 2.46.95 4.05 1.05.53.03 1.22.27 1.5 1.2a8.53 8.53 0 0 1-8.2 10.89zm-4.68-4.11a6.44 6.44 0 0 0 10.94-5.9 11.34 11.34 0 0 1-4.61-1.28c-.88-.48-1.7-1.03-2.5-1.55l-.41-.28-2.96 1.92a13.5 13.5 0 0 1-.46 7.09zM13.11 23.01h-.05a8.5 8.5 0 0 1-8.03-7.66 8.53 8.53 0 0 1 6.8-9.18 8.41 8.41 0 0 1 7.96 2.55c.57.59.72 1.25.44 2.01a11.29 11.29 0 0 0-.33 6.52l.05.27.19.91-.72.36-.1.05-.28.13a11.8 11.8 0 0 0-4.42 3.33 2.1 2.1 0 0 1-1.51.71zm.5-14.9a6.43 6.43 0 0 0-6.48 7.08 6.44 6.44 0 0 0 5.91 5.71 14.23 14.23 0 0 1 4.7-3.65c-.49-2.44-.33-4.83.47-7.13a6.25 6.25 0 0 0-4.6-2.01zm37.2 14.51a1.5 1.5 0 0 1-1.19-.58 11.33 11.33 0 0 0-5.28-3.46l-.01.29-1.33-.64c-.36-.13-.62-.4-.71-.76l-.16-.65.16-.13.03-.67c.04-.85.08-1.65.02-2.42-.07-.77-.27-1.55-.48-2.38l-.16-.64c-.07-.3-.25-1.02.37-1.72a8.54 8.54 0 1 1 9.48 13.61c-.26.1-.51.15-.74.15zm-6.4-6.21c2.57.68 4.78 2.02 6.59 4.02a6.41 6.41 0 1 0-7.24-10.3l.14.56c.23.88.46 1.79.54 2.74.07.91.02 1.82-.02 2.69l-.01.29zm-12.16 5.63l-.73-.69a11.58 11.58 0 0 0-5.9-3.09l-.9-.17.05-.92c.01-.36.04-.71.07-1.04.06-.71.12-1.38.06-2-.09-1-.31-2-.55-3.05l-.12-.52a1.78 1.78 0 0 1 .39-1.71A8.57 8.57 0 0 1 30.97 6H31a8.57 8.57 0 0 1 6.33 2.8c.51.57.64 1.19.38 1.89a11.29 11.29 0 0 0-.36 6.47l.01.05c.27 1.12-.42 1.59-.85 1.77a11 11 0 0 0-3.53 2.36zm-5.32-5.64c1.94.51 3.72 1.44 5.31 2.77.92-.79 1.9-1.42 2.97-1.92-.49-2.44-.34-4.84.47-7.13A6.45 6.45 0 0 0 31 8.11h-.02c-1.78 0-3.48.74-4.69 2.03l.11.47c.24 1.08.5 2.19.6 3.34.07.8 0 1.59-.06 2.35l-.01.1z"/></svg>