<svg xmlns="http://www.w3.org/2000/svg" width="53" height="55" viewBox="0 0 53 55"><path fill="#0b7b37" d="M6.38 40.7c-.55 0-1.01.05-1.46 0a4.38 4.38 0 0 1-2.41-1.13 6.97 6.97 0 0 1-2.49-5.35c0-1.67-.04-3.34 0-5 .08-2.88 1.3-5.03 4.03-6.2l.13-.11-1.33-4.84-1.5-5.42c-.23-.83.02-1.37.82-1.71C10 7.66 17.83 4.37 25.67 1.12a2 2 0 0 1 1.43.02c7.8 3.23 15.6 6.5 23.4 9.77.8.34.94.65.72 1.47l-2.58 10.13-.07.38c3.1 1.02 4.54 4.1 4.42 6.66-.08 1.84.03 3.68-.1 5.52a6.54 6.54 0 0 1-2.4 4.49 4.4 4.4 0 0 1-3.22 1.17c-.36-.02-.72 0-1.16 0v1.84c.02 1.61 0 3.21-.55 4.77a9.94 9.94 0 0 1-8.98 6.61c-5.26.09-10.53.03-15.8.04-1.38 0-2.76.02-4.13-.02a10.6 10.6 0 0 1-10.1-8.46c-.14-.71-.15-1.45-.17-2.18-.02-.84 0-1.68 0-2.63zm2.49-13.89l-.02.25V43.8c0 .34.03.69.1 1.02a8.33 8.33 0 0 0 8.02 6.71c6.3.02 12.6.02 18.9 0a8.1 8.1 0 0 0 8.04-8.12V27.36v-.49a93.85 93.85 0 0 1-35.04-.06zm23.86-8.87l.38.08c2.04.43 4.1.76 6.1 1.32 2.46.68 4.85 1.57 6.8 3.32.38.34.76.19.89-.3l1.29-5.18 1.09-4.41c-.16-.08-.27-.14-.4-.19a6171.1 6171.1 0 0 0-22-9.23c-.24-.1-.6-.08-.85.03L6.62 11.51l-2.9 1.23c.01.1 0 .16.02.21l2.4 9.4c.14.53.46.61.92.27.55-.41 1.1-.84 1.69-1.18a25.49 25.49 0 0 1 6.26-2.36c1.72-.43 3.47-.78 5.25-1.17-.04-.21-.11-.45-.12-.69-.1-2.16-.17-4.32-.26-6.49-.03-.68.26-1.1.9-1.37 1.67-.7 3.35-1.4 4.99-2.18.54-.26.94-.24 1.43.02 1.65.85 3.3 1.69 4.98 2.49.67.32.98.74.95 1.51-.06 2.24.13 4.49-.4 6.74zM8.4 23.87l.05.21c.15.08.3.18.45.23.55.19 1.09.38 1.64.52 4.09.96 8.25 1.25 12.42 1.36 4.89.14 9.77.07 14.62-.57 1.95-.27 3.87-.73 5.8-1.14.32-.06.62-.27 1.07-.48-.57-.32-.97-.58-1.4-.79a37.14 37.14 0 0 0-10.36-3.04c-.15-.02-.39.12-.48.26a11.13 11.13 0 0 1-4.87 4.14 2.2 2.2 0 0 1-1.82.04 9.66 9.66 0 0 1-4.9-4.08c-.14-.22-.22-.44-.6-.37a41.7 41.7 0 0 0-8.3 2.19c-1.13.45-2.21 1.01-3.32 1.52zm22.52-10.33c0-.76.03-1.32-.01-1.87a.76.76 0 0 0-.36-.54c-1.22-.58-2.46-1.13-3.71-1.66a.8.8 0 0 0-.58-.04c-1.3.55-2.6 1.13-3.88 1.72-.12.06-.27.25-.27.37.06 1.81 0 3.65.27 5.43a6.58 6.58 0 0 0 3.77 5.17c.2.1.52.1.73 0a6.36 6.36 0 0 0 3.26-3.6c.69-1.67.83-3.41.78-4.98zm15.2 24.97c1.09.02 2.12.17 2.96-.61a4.47 4.47 0 0 0 1.63-3.07c.09-2.11.1-4.22 0-6.33-.1-2-1.73-3.48-3.58-3.47-.67 0-1 .34-1.01 1.01v12.47zm-39.78-.02V25.08c-1-.15-1.9-.02-2.64.69a4.5 4.5 0 0 0-1.47 3.27v5.23c0 .32.04.65.12.97.5 2.22 1.97 3.43 4 3.25zm20.18 6.61c-1.81 0-3.64.1-5.45-.03a5.07 5.07 0 0 1-4.61-5.01c0-.81.46-1.29 1.21-1.29.72-.01 1.18.45 1.23 1.23.1 1.65 1.25 2.88 2.9 2.9 3.3.06 6.59.05 9.88.01 1.43-.02 2.46-1.07 2.63-2.49l.04-.4c.09-.64.55-1.05 1.11-1 .67.05 1.1.52 1.1 1.16a4.96 4.96 0 0 1-4.52 4.89c-1.83.12-3.68.02-5.51.02zm11.25-12.38a1.93 1.93 0 0 1-1.99 1.88c-.99-.04-1.95-1.04-1.93-2a2.09 2.09 0 0 1 2.06-1.92c.99.05 1.9 1.04 1.86 2.04zm-20.57-2.04c1 .01 1.94.97 1.93 1.97 0 .99-1 1.97-1.97 1.95-.97-.02-1.95-1.02-1.94-1.99 0-.98 1-1.95 1.98-1.93z"/></svg>