<svg xmlns="http://www.w3.org/2000/svg" width="56" height="54" viewBox="0 0 56 54"><path fill="#0b7b37" d="M47.66 26.78H6.2c.13-.24.2-.39.3-.54 2.65-4.53 5.34-9.04 7.95-13.59.55-.95 1.25-1.3 2.3-1.3 2.97.03 5.96.02 8.93 0 .46 0 .94-.09 1.37-.24.56-.21.77-.72.63-1.31-.19-.74-.63-1.05-1.57-1.05-3.77-.01-7.54.01-11.31-.02-.63 0-1.07.24-1.4.72-.16.21-.3.44-.43.67L3.4 26.41c-.11.18-.28.39-.47.46A2.76 2.76 0 0 0 1 29.64c-.03 4.52-.04 9.05 0 13.58 0 1.79 1.16 2.84 2.97 2.84h2.22v6.37c.01 1.03.5 1.5 1.51 1.5h3.72c.58.01.97-.26 1.17-.76.1-.27.15-.58.15-.88v-5.62-.57h26.3v6.41c0 1.02.5 1.49 1.52 1.49h3.28c1.18 0 1.65-.46 1.66-1.64v-5.68-.62h2.2c1.86 0 3-1.07 3-2.92.02-4.47.02-8.94 0-13.42 0-1.87-1.14-2.94-3.04-2.94zm.45 14.37c0 1.37-.85 2.26-2.23 2.35l-.49.01L6.5 43.5c-.46 0-.95-.05-1.36-.22a2.02 2.02 0 0 1-1.35-2.03c.01-3.15 0-6.3 0-9.45 0-1.36.94-2.28 2.35-2.29H45.62c.88 0 1.66.25 2.12 1.01.23.37.35.86.36 1.3.03 3.11.01 6.22.01 9.33zM56 3.76c0-1.65-1.07-2.75-2.75-2.75-6.48-.02-12.96-.02-19.44 0-1.67 0-2.73 1.12-2.73 2.76 0 5.84.04 11.68-.02 17.51-.02 1.92 1.4 2.95 2.98 2.93 3.16-.04 6.32-.01 9.48-.01h9.64c1.75-.01 2.83-1.07 2.84-2.78V3.76zm-2.72 15.73c0 1.38-.82 2.2-2.24 2.21-2.51.01-5.03 0-7.54 0h-7.43c-1.58 0-2.37-.79-2.37-2.35V5.93c0-1.57.79-2.35 2.38-2.35h14.86c1.56 0 2.34.79 2.34 2.33v13.58zm-42.52 12.5a4.45 4.45 0 0 0-4.47 4.42 4.46 4.46 0 0 0 4.46 4.45 4.46 4.46 0 0 0 4.5-4.4c.02-2.48-2-4.47-4.49-4.47zm.04 6.4a2 2 0 0 1-2.03-1.97c0-1.07.87-1.94 1.97-1.96a1.98 1.98 0 0 1 2.03 1.96c0 1.07-.88 1.95-1.97 1.97zm30.19-6.4c-2.47 0-4.5 2-4.5 4.42a4.5 4.5 0 0 0 9 .05 4.48 4.48 0 0 0-4.5-4.47zm0 6.4a1.96 1.96 0 1 1 0-3.93c1.12 0 2.02.9 2 1.99a2 2 0 0 1-2 1.94zm4.37-31.87c-1.5-.22-3.03-.16-4.55-.18-.54 0-1.09.11-1.63.17v12.68h2.88v-4.53c.61 0 1.16.06 1.68-.02.78-.11 1.57-.23 2.3-.51 1.77-.7 2.65-2.3 2.48-4.27a3.6 3.6 0 0 0-3.16-3.34zm-.75 5.59c-.72.4-1.51.37-2.3.3-.1-.01-.23-.23-.24-.36-.03-.53-.01-1.06-.01-1.59s-.02-1.06.01-1.59c0-.12.16-.35.25-.35.63-.02 1.26-.07 1.87.04.84.16 1.31.74 1.42 1.53.1.84-.28 1.62-1 2.02z"/></svg>