<svg xmlns="http://www.w3.org/2000/svg" width="44" height="44" viewBox="0 0 44 44"><path fill="#0b7b37" d="M17.44 0c-.02.37-.04.74-.04 1.11l-.01 3.87-.02.5h-.89c.05.78-.13 1.5.39 2.23 1.07 1.46 2.05 3 3.04 4.53.13.2.22.47.22.7.02 7.12.01 14.24.01 21.37v.48h-1.79V13.77h-2.72v-1.83h1.92l-.39-.61c-.62-.92-1.25-1.85-1.86-2.79-.13-.21-.27-.31-.54-.31l-9.37.02c-.16 0-.38.08-.47.2-.74 1.08-1.47 2.18-2.2 3.28l-.08.2h11.05v1.8H1.79v1.73c0 .81.02 1.63-.01 2.44-.01.37.12.46.47.45H12.76v16.46h-.49c-3.32 0-6.64.01-9.97-.01-.42 0-.52.13-.52.54.02 2.12.02 4.24 0 6.36 0 .43.14.51.54.51L15 42.2h.51v1.76H0v-.47l.01-30.51c0-.25.09-.54.23-.75.97-1.5 1.93-3.01 2.98-4.46.53-.72.47-1.45.43-2.28h-.91V0h14.7zM1.85 20.18v12.81h9.12V20.18H1.85zM15.59 3.64c0-.48-.02-.94 0-1.39.02-.33-.08-.46-.43-.45-1.16.02-2.32.01-3.48.01L4.97 1.8c-.34 0-.46.1-.43.44.02.3.03.61 0 .9-.05.41.09.54.51.54 3.34-.02 6.68-.01 10.02-.01l.52-.03zm-.94 1.88H5.51v.9h8.4c.83 0 .83-.01.74-.9zM44 41.6a3.5 3.5 0 0 1-1.07 1.72c-.48.39-1 .65-1.65.67v-1.73c.84-.3.91-.4.91-1.3V6.76 6.5c-.01-.74-.28-1.01-1.01-1.01H26.74c-.86 0-1.09.22-1.09 1.09V34.79h-1.79l-.02-.43-.01-27.63a2.94 2.94 0 0 1 2.84-3.04h14.44c1.27 0 2.38.84 2.77 2.05l.12.36v35.5zm-11.28.16c-.23.32-.42.65-.66.92A3.62 3.62 0 0 1 29.23 44h-8.98a3.8 3.8 0 0 1-3.74-3.4c-.16-1.75 1.23-3.5 3.07-3.85.23-.05.48-.05.72-.05H29.66c-.08-.16-.13-.28-.2-.39-.3-.5-.62-1-.91-1.51a3.46 3.46 0 0 1 .23-4.02c.91-1.27 2.21-1.57 3.67-1.25a3.7 3.7 0 0 1 2.49 1.81c1.44 2.44 2.93 4.85 4.38 7.28a3.56 3.56 0 0 1-2.37 5.26 3.96 3.96 0 0 1-4-1.77l-.23-.35zm-8.9-3.25c-1.36 0-2.66-.02-3.96 0a1.5 1.5 0 0 0-1.35.85c-.71 1.41.12 2.82 1.69 2.84 1.1.02 2.2 0 3.31 0 .09 0 .19-.02.31-.04v-3.65zm1.85 3.68c1.35 0 2.64.05 3.92-.02 1.09-.06 1.66-.83 1.6-1.94-.07-1.11-.7-1.72-1.83-1.73h-3.69v3.69zm9.37-7.2c-.65-1.07-1.25-2.1-1.89-3.09-.56-.86-1.62-1.02-2.54-.44-.91.56-1.12 1.34-.57 2.3.4.72.84 1.42 1.27 2.14l.56.92 3.17-1.83zm-2.25 3.37l1.45 2.4c.14.23.27.47.43.69.41.57.96.83 1.67.77 1.3-.12 2.12-1.34 1.56-2.4-.58-1.11-1.27-2.17-1.93-3.29l-3.18 1.83zm4.77-25.55a2.9 2.9 0 0 1-2.71-2.76c.02-1.37 1.38-2.71 2.73-2.7a2.88 2.88 0 0 1 2.72 2.75c0 1.4-1.33 2.71-2.74 2.71zm.02-1.79c.63 0 .93-.3.93-.91.01-.66-.28-.95-.93-.95-.64 0-.92.28-.93.91-.01.65.28.95.93.95zm2.72 13.75a2.9 2.9 0 0 1-2.7 2.72 2.92 2.92 0 0 1-2.75-2.72 2.9 2.9 0 0 1 2.73-2.75 2.89 2.89 0 0 1 2.72 2.75zm-1.79-.01c.01-.64-.31-.95-.94-.95-.62.01-.91.31-.92.93 0 .64.29.94.9.96.63.01.96-.3.96-.94zm-8.26-11.95a2.9 2.9 0 0 1-2.74-2.69c-.02-1.4 1.35-2.77 2.75-2.77a2.93 2.93 0 0 1 2.72 2.72 2.9 2.9 0 0 1-2.73 2.74zm0-1.8c.63 0 .93-.29.93-.91.01-.64-.3-.94-.95-.94-.62 0-.92.3-.93.91 0 .65.31.95.95.94zm.02 9.14a2.91 2.91 0 0 1-2.76-2.72c-.02-1.36 1.33-2.72 2.69-2.73a2.9 2.9 0 0 1 2.78 2.69c.02 1.38-1.32 2.74-2.71 2.76zm-.03-1.8c.63 0 .93-.29.95-.9.01-.64-.3-.96-.94-.96-.64 0-.95.31-.95.94.01.62.31.91.94.92zm7.33-3.65a2.86 2.86 0 0 1 2.73 2.72c0 1.4-1.34 2.74-2.73 2.73a2.9 2.9 0 0 1-2.72-2.71c-.02-1.38 1.33-2.74 2.72-2.74zm.01 3.65c.64 0 .93-.29.93-.91.01-.65-.29-.95-.93-.95-.65 0-.93.29-.93.95.01.63.3.91.93.91zm-10.07 6.39c.01-1.38 1.39-2.74 2.76-2.72 1.38.02 2.74 1.4 2.71 2.77-.02 1.37-1.38 2.71-2.74 2.7a2.92 2.92 0 0 1-2.73-2.75zm3.68.08c.03-.61-.27-.97-.86-1.01-.63-.04-1 .27-1.03.88-.03.63.29.99.9 1.01.61.02.95-.29.99-.88zm7.75 9.59l-.84-1.51c.48-.54.52-.87.2-1.38-.27-.41-.49-.47-1.18-.27l-.87-1.45c.9-.74 2.8-.34 3.56.76.78 1.12.37 3.06-.87 3.85zM9.11 25.7v1.78h-1.8v1.8h-1.8V27.5H3.7v-1.79h1.77v-1.82h1.82v1.03c.01.78.01.78.81.78h1.01z"/></svg>