<svg xmlns="http://www.w3.org/2000/svg" width="50" height="42" viewBox="0 0 50 42"><path fill="#0b7b37" d="M49.97 13.34a1.71 1.71 0 0 0-.37-.98c-1.66-1.94-3.29-3.91-5.06-5.75a4.62 4.62 0 0 1-1.48-3.89C43.2 1.24 41.88 0 40.42 0H9.61A2.73 2.73 0 0 0 6.9 2.74c-.01.55-.03 1.1.01 1.64.02.4-.12.68-.38.97-2.06 2.34-4.11 4.68-6.15 7.03-.16.18-.35.43-.35.65 0 1.45-.11 2.94.12 4.36.42 2.59 3.8 4.95 6.68 2.71.35-.28.65-.62.98-.93 2.3 2.45 4.25 2.46 6.89.01 1.74 2.09 4.54 2.74 6.9-.02.91 1.09 2.02 1.82 3.46 1.83 1.44.01 2.52-.77 3.43-1.85.93 1.13 2.04 1.84 3.46 1.85 1.44.01 2.53-.77 3.43-1.85.92 1.13 2.03 1.83 3.45 1.85a4.23 4.23 0 0 0 3.33-1.71c.78.51 1.49 1.03 2.25 1.44.31.17.42.29.41.63v18.37l-.02.49h-5.15v-.57-13.95c0-.92-.27-1.19-1.19-1.19h-7.97c-.92 0-1.18.26-1.18 1.2l-.01 13.94v.56H5.18V26.87c0-1.22.01-2.44-.01-3.66-.01-.55-.39-.91-.88-.9-.47.02-.81.37-.84.9V40.7c0 1.06.23 1.3 1.25 1.3h25.1c.98 0 1.23-.26 1.23-1.27V26.9v-.62h6.89v.74l.01 13.83c0 .86.28 1.15 1.12 1.15h6.25c1 0 1.24-.25 1.24-1.25v-19.3-.52l.31-.12a4.52 4.52 0 0 0 3.14-4.47c0-1 .03-2-.02-3zM8.64 2.44c.03-.55.43-.69.91-.69h30.69c.95 0 1.13.19 1.13 1.14l-.01 1.32-.04.14H8.63c0-.65-.03-1.28.01-1.91zm18.72 9.78h-4.73l1.33-6.08h2.07l1.33 6.08zm-19.8-.36c-.19.3-.39.41-.74.4-.78-.03-1.57-.02-2.36-.01-.63 0-1.02.36-1.01.89.01.51.39.85.98.86H6.9v2.6c-.01 1.52-.96 2.57-2.38 2.64a2.55 2.55 0 0 1-2.77-2.45c-.06-1.03-.03-2.07-.01-3.11 0-.16.11-.34.22-.47 1.98-2.28 3.97-4.55 5.97-6.82.1-.12.28-.25.43-.25.95-.03 1.9-.01 2.92-.01-.11.19-.18.33-.27.46-1.15 1.75-2.31 3.51-3.45 5.27zm6.06 5.72c-.2 1.11-1.41 1.77-2.6 1.66a2.52 2.52 0 0 1-2.37-2.35c-.07-.93-.01-1.88-.01-2.88h5.21c-.07 1.2-.02 2.41-.23 3.57zm.61-5.69c-.06.16-.28.34-.44.34-1.43.03-2.86.02-4.42.02l1.55-2.35c.75-1.15 1.5-2.31 2.26-3.45.1-.14.29-.31.44-.31 1.02-.03 2.03-.02 3.09-.02-.03.14-.04.23-.07.3-.8 1.83-1.59 3.66-2.41 5.47zm6.31 5.59c-.18 1.15-1.35 1.85-2.58 1.76a2.56 2.56 0 0 1-2.42-2.3c-.02-.18-.02-.36-.02-.54v-2.39h5.21c-.05 1.17 0 2.34-.19 3.47zm.33-5.26H16c.73-1.68 1.5-3.26 2.11-4.91.36-.97.86-1.34 1.87-1.2.7.09 1.43.01 2.22.01l-1.33 6.1zm6.64 4.96c-.15 1.33-1.26 2.13-2.6 2.06a2.53 2.53 0 0 1-2.48-2.4c-.05-.92-.01-1.85-.01-2.82h5.12c0 1.07.09 2.13-.03 3.16zm.32-10.91c-.01-.03.01-.07.02-.15l3.26.01c.11.01.27.12.31.22.85 1.92 1.68 3.85 2.52 5.78l-.03.09h-4.78l-1.3-5.95zm6.6 10.82c-.12 1.32-1.19 2.18-2.53 2.15a2.5 2.5 0 0 1-2.56-2.36c-.08-.94-.02-1.88-.02-2.85h5.13c0 1.03.08 2.05-.02 3.06zm1.37-5.08l-2.5-5.73c-.01-.03.01-.07.02-.15h2.83c.1.01.23.09.29.18l4.13 5.94-4.41-.01a.5.5 0 0 1-.36-.23zm5.49 5.23c-.16 1.3-1.29 2.08-2.61 2a2.53 2.53 0 0 1-2.46-2.48c-.05-.89-.01-1.78-.01-2.74h5.1c0 1.09.11 2.17-.02 3.22zm6.97-.58c-.01 1.49-1 2.54-2.43 2.59a2.55 2.55 0 0 1-2.71-2.45c-.05-.9-.01-1.81-.01-2.8h2.46c.59-.01.97-.36.97-.87.01-.5-.36-.87-.9-.88-.86-.01-1.72.01-2.58-.01-.19-.01-.44-.1-.54-.24-1.33-1.88-2.63-3.77-3.94-5.66-.03-.04-.04-.09-.09-.22 1.07 0 2.07-.01 3.07.01.17.01.38.12.49.24 2 2.27 3.99 4.54 5.97 6.82.14.16.23.42.23.63.03.95.02 1.89.01 2.84zM9.85 35h14.86c.87 0 1.15-.29 1.15-1.18v-8.15c0-.89-.28-1.17-1.15-1.17H9.74c-.83 0-1.12.29-1.12 1.15v8.09c0 1 .25 1.26 1.23 1.26zm14.25-1.78h-5.97v-2.57h5.97v2.57zm-5.97-6.93h5.98v2.55h-5.98v-2.55zm-1.78 6.93h-5.96v-2.56h5.96v2.56zm-5.96-6.93h5.96v2.56h-5.96v-2.56z"/></svg>