<svg xmlns="http://www.w3.org/2000/svg" width="60" height="52" viewBox="0 0 60 52"><path fill="#0b7b37" d="M50.12 52h-1.64l-.19-.08c-1.65-.67-2.47-2.03-2.43-4.02.04-1.89.04-3.82.03-5.68l-.01-2.12h-3.62a3.38 3.38 0 0 1-3.24-1.88c-.43-.84-.7-2.15.38-3.62-.6.46-1.36.72-2.16.74l-2.89.01-.92-.01v8.48c-.01 1.08-.49 2.07-1.31 2.72a3.4 3.4 0 0 1-2.9.62 3.39 3.39 0 0 1-2.64-3.41v-8.41h-3.64c-.91 0-1.7-.25-2.31-.73 1.05 1.45.8 2.74.38 3.59-.43.87-1.34 1.91-3.25 1.91h-.02l-2.72-.01-.89.01v2.05c-.02 1.89-.02 3.83.02 5.74.04 2.02-.75 3.33-2.43 4.02l-.18.08H9.89l-.17-.07c-1.69-.65-2.52-1.96-2.48-3.89.04-1.93.03-3.91.02-5.82v-2.11H3.63h-.02a3.4 3.4 0 0 1-3.24-1.92 3.29 3.29 0 0 1 .44-3.66l2.77-3.64.25-.33-.2.01A3.39 3.39 0 0 1 .38 28.7c-.63-1.23-.5-2.5.4-3.67l2.77-3.64c1.4-1.86 2.86-3.77 4.3-5.65a3.55 3.55 0 0 1 2.83-1.44c1.1 0 2.14.53 2.85 1.45a2399.18 2399.18 0 0 1 6.08 8 3.24 3.24 0 0 1 .4-3.37l2.62-3.45.5-.67-.2.01a3.38 3.38 0 0 1-3.23-1.87 3.32 3.32 0 0 1 .4-3.67l2.78-3.66 4.28-5.63A3.54 3.54 0 0 1 30 0c1.11 0 2.15.53 2.86 1.45l3.3 4.35 3.72 4.89c.91 1.2 1.06 2.48.42 3.73a3.37 3.37 0 0 1-3.25 1.84h-.18l.56.74 2.56 3.38c.77 1.03.91 2.24.4 3.4 1.9-2.57 3.88-5.15 6.17-8.14a3.45 3.45 0 0 1 2.76-1.35c1.1 0 2.11.5 2.78 1.37l7.15 9.42c.2.27.35.55.47.79l.15.28.13.23v1.43l-.05.15a3.6 3.6 0 0 1-3.75 2.62l.27.36c.8 1.04 1.62 2.12 2.42 3.2.27.37.5.76.7 1.13l.27.47.14.23v1.46l-.06.18c-.68 1.78-2.1 2.65-4.12 2.5-.37-.03-.75-.02-1.15-.02l-.58.01h-1.33l-.01 2.05c-.01 1.92-.02 3.9.02 5.84.05 1.95-.78 3.28-2.47 3.94zM42.4 30.63a.42.42 0 0 0 .06-.07h-.37a3.64 3.64 0 0 1-2.18-.73 4 4 0 0 1 .7 1.59c.11.63.04 1.26-.19 1.83l1.99-2.62zm-3.7-3.14a3.7 3.7 0 0 1 .76-2.46c-.54.45-1.22.7-2 .75-.2.02-.4.02-.58.02l2.02 2.67c-.12-.3-.19-.63-.2-.98zm10.2 22.5h.82c.65-.3 1.04-.77 1.02-1.95-.05-1.97-.04-3.97-.03-5.9V38.09h3.38l.54-.01c.43 0 .88-.01 1.34.02 1.04.08 1.63-.22 2-1.04v-.54l-.16-.27a9.35 9.35 0 0 0-.57-.93 247.4 247.4 0 0 0-2.4-3.17l-1.07-1.42c-.1-.12-.18-.24-.27-.38l-.16-.23-1.09-1.57h1.93l.61-.01c.44 0 .85-.01 1.28.02 1 .07 1.57-.25 1.9-1.09v-.58c-.03-.03-.04-.07-.06-.1-.1-.19-.2-.37-.3-.51-2.08-2.76-4.57-6.05-7.14-9.41-.27-.36-.7-.57-1.15-.57-.45 0-.86.2-1.14.56a694.8 694.8 0 0 0-7.19 9.5c-.17.23-.28.67-.27 1.02.05.8.74 1.16 1.4 1.17.5.01 1.02.01 1.57 0h2.84l-1.22 1.61-1.27 1.68a932.7 932.7 0 0 1-2.96 3.88c-.56.73-.44 1.22-.24 1.6.2.38.51.77 1.42.77h3.29l.76.01.45.02.2.01.96.06v4.02c.01 1.88.02 3.82-.02 5.74-.03 1.24.36 1.73 1 2.04zM17.8 30.56h-.25l.13.18 1.95 2.56a3.29 3.29 0 0 1 .45-3.47 3.5 3.5 0 0 1-2.28.73zm-7.5 19.43h.81c.65-.31 1.03-.8 1-2.05-.04-1.93-.03-3.89-.02-5.79v-4.06h2.92l2.74.01c.92 0 1.24-.4 1.43-.78.19-.39.3-.88-.26-1.61-.97-1.25-1.94-2.53-2.87-3.77l-.94-1.24c-.1-.12-.18-.24-.26-.37-.05-.07-.1-.13-.14-.21l-1.1-1.57h4.21c.67.01 1.07-.22 1.34-.75.28-.54.23-1-.19-1.55l-2.44-3.21c-1.51-1.99-3.07-4.06-4.62-6.08a1.54 1.54 0 0 0-1.22-.65c-.46 0-.9.22-1.2.64a2937.3 2937.3 0 0 0-7.07 9.28c-.53.7-.4 1.18-.21 1.56.28.55.69.77 1.38.77l1.5-.01h2.76L6.5 30.4l-.28.38-1 1.32-2.77 3.64c-.55.71-.43 1.19-.24 1.57.19.39.5.79 1.41.79h4.1l.45.02.18.02.95.06v1.6l.01 2.42c.01 1.92.02 3.9-.02 5.87-.03 1.14.38 1.61 1.01 1.9zm12.47-23.7l.37-.48-.53-.02a3.5 3.5 0 0 1-1.98-.71c.8 1.09.96 2.3.44 3.46l1.7-2.25zm1.85 7.04h2.35l.47.02.2.01.98.05v10.34c0 .76.4 1.3 1.05 1.45.44.1.86.02 1.19-.24.33-.27.52-.68.53-1.15a766.73 766.73 0 0 0 0-8.6v-1.88h1.7l1.27.01 2.85-.01c.46-.01.85-.18 1.12-.5.25-.29.34-.67.28-1.08a2.08 2.08 0 0 0-.4-.81c-.98-1.33-1.98-2.64-3.04-4.03l-1.15-1.5-1.22-1.61h3.3c.43 0 .83 0 1.24-.02.57-.04.93-.28 1.17-.79.23-.51.18-.96-.15-1.41l-2.56-3.37-1.37-1.81c-.1-.12-.18-.24-.27-.37l-.14-.21-1.08-1.57h4.15c.7.02 1.11-.2 1.39-.74.2-.39.33-.88-.22-1.61l-3.73-4.89-3.3-4.35A1.53 1.53 0 0 0 30 2.01c-.46 0-.89.23-1.2.64l-4.28 5.62-2.78 3.66c-.42.56-.49 1.02-.21 1.56.27.55.68.78 1.38.76h4.17l-1.1 1.58-.14.21-.25.35-1.32 1.75c-.86 1.12-1.74 2.29-2.6 3.44-.36.47-.4.91-.15 1.44.24.49.61.73 1.2.76.28.02.57.02.87.02l.38-.01.76.01h2.47l-1.44 1.9-.3.41-1.05 1.38-2.66 3.49c-.43.56-.5 1.03-.23 1.57.2.39.51.79 1.43.78h1.67z"/></svg>