<svg xmlns="http://www.w3.org/2000/svg" width="45" height="42" viewBox="0 0 45 42"><path fill="#0b7b37" d="M42.82 22.55c-.86.45-1.67.84-2.44 1.28-.15.09-.25.38-.25.58-.02 2.34-.01 4.67-.01 7 0 1.02-.36 1.39-1.36 1.4h-5.17c-1.03 0-1.38-.37-1.38-1.43l-.01-4.17v-.73a50.5 50.5 0 0 1-19.41 0v4.99c0 .94-.38 1.33-1.29 1.34H6.15c-.88-.01-1.26-.41-1.27-1.3 0-2.36-.01-4.71.01-7.07 0-.37-.1-.56-.45-.72-.75-.35-1.47-.76-2.26-1.17l-.03.62L2.14 28c0 .77-.42 1.24-1.08 1.24-.66 0-1.06-.45-1.06-1.25l.01-15.81c0-1.85 1.3-3.13 3.13-3.14h6.15v-.68-5.13C9.3 1.31 10.57.01 12.46 0h20.11c1.85.01 3.13 1.32 3.14 3.2l.01 5.62.04.22H41.83c1.89.01 3.16 1.3 3.17 3.23v26.5c-.01 1.91-1.29 3.22-3.18 3.22H3.16C1.3 41.99.01 40.68 0 38.81v-4.9c.01-.8.43-1.31 1.08-1.3.65.01 1.06.52 1.06 1.34l.01 4.71c0 .85.3 1.16 1.14 1.16h38.42c.8 0 1.14-.31 1.14-1.05V22.89l-.03-.34zm-15.78 2.47c.34-.03.6-.02.85-.06 1.6-.27 3.21-.48 4.8-.83a29.03 29.03 0 0 0 9.72-3.92c.34-.22.46-.47.45-.87l-.01-7.01c0-.82-.3-1.12-1.11-1.12H3.25c-.81 0-1.1.31-1.1 1.14-.01 2.09.06 4.18-.04 6.27-.04 1.02.32 1.54 1.14 2.03a32.9 32.9 0 0 0 10.82 3.85c1.26.23 2.54.38 3.89.58v-.77-5.97c.01-.73.4-1.19 1.07-1.19 2.32-.02 4.64-.02 6.96 0 .62 0 1.01.44 1.04 1.08.02.22.01.44.01.66v6.13zm6.47-16.01c.03-.09.06-.14.06-.2V3.14c-.01-.65-.37-.96-1.1-.96H12.54c-.8 0-1.11.32-1.11 1.13v5.25c0 .15.03.31.05.45h22.03zM20.14 19.34v5.84h4.71v-5.84h-4.71zM10.65 30.6c0-1.5.01-2.92-.01-4.35 0-.11-.14-.3-.25-.33-1.1-.36-2.21-.69-3.33-1.04v5.72h3.59zm27.29-5.74l-1.8.6c-.58.19-1.4.21-1.68.61-.3.44-.11 1.23-.11 1.87v2.66h3.59v-5.74z"/></svg>