<?xml version="1.0" encoding="utf-8"?><svg xmlns="http://www.w3.org/2000/svg" xmlns:xlink="http://www.w3.org/1999/xlink"><symbol viewBox="0 0 344.96 344.96" id="check" xmlns="http://www.w3.org/2000/svg"><g data-name="Слой 2"><path d="M321.85 86.24l-40-23.11-23.1-40H212.5L172.48 0l-40 23.11H86.24l-23.11 40-40 23.1v46.21L0 172.48l23.11 40v46.21l40 23.11 23.11 40h46.21l40 23.1 40-23.11h46.21l23.11-40 40-23.11V212.5l23.11-40-23.11-40V86.24zM156.91 243.07a16.79 16.79 0 0 1-23.34 0l-50.45-50.44a16.19 16.19 0 0 1 0-22.89l13.35-13.35a16.19 16.19 0 0 1 22.89 0l25.87 25.87 80.34-80.35a16.19 16.19 0 0 1 22.89 0l13.35 13.35a16.19 16.19 0 0 1 0 22.89z" data-name="Capa 1"/></g></symbol><symbol viewBox="0 0 23 23" id="tel" xmlns="http://www.w3.org/2000/svg"><defs><path id="ba" d="M1308.891 38.82a4.675 4.675 0 0 0-1.318-3.207 4.37 4.37 0 0 0-3.174-1.351c-.112 0-.224.023-.336.023h-.067c-.134 0-.246.022-.38.045-.268.069-.559-.137-.603-.435a.522.522 0 0 1 .425-.619l.469-.068c.179-.023.335-.023.492-.023.469 0 .96.068 1.408.183.96.275 1.81.779 2.503 1.49.559.595 1.028 1.305 1.297 2.107.2.619.313 1.26.313 1.925v.251c-.023.115-.023.184-.023.253a.55.55 0 0 1-.581.504.556.556 0 0 1-.492-.596c.023-.092.023-.16.067-.23v-.251zm3.018.276v-.23a7.89 7.89 0 0 0-.537-2.84 7.887 7.887 0 0 0-1.676-2.589 7.395 7.395 0 0 0-5.32-2.245c-.2 0-.424 0-.648.022-.067 0-.134.023-.201.023-.157.024-.29.046-.447.069-.268.069-.559-.137-.604-.435a.522.522 0 0 1 .425-.619c.246-.046.492-.068.738-.091.246-.023.491-.023.737-.023.224 0 .47 0 .693.023 2.079.16 3.956 1.1 5.365 2.543a8.78 8.78 0 0 1 2.391 4.742c.067.481.112.962.112 1.466 0 .252 0 .504-.022.756a.55.55 0 0 1-.581.505.556.556 0 0 1-.492-.596c0-.16.022-.298.067-.481zm4.09-.184c0 .321-.022.665-.044 1.008a.55.55 0 0 1-.582.504.556.556 0 0 1-.491-.595c0-.16.022-.298.022-.435v-.504c0-3.002-1.185-5.705-3.085-7.653-1.922-1.947-4.56-3.161-7.465-3.161-.313 0-.604.023-.916.046-.157 0-.313.022-.47.046-.156.023-.29.046-.447.068-.268.07-.559-.137-.603-.435a.521.521 0 0 1 .424-.619c.336-.068.67-.114 1.006-.137.335-.023.67-.046 1.006-.046 3.219 0 6.124 1.329 8.248 3.506a12.01 12.01 0 0 1 3.397 8.407zm-2.883 10.333c-6.84 3.826-19.111-7.767-20.094-14.938-.38-2.91 4.246-9.14 5.9-5.246l1.766 4.055c.827 2.268-1.72 2.864-1.676 4.055.022.78 1.944 3.185 2.391 3.689.94 1.054 3.823 3.367 5.365 3.757.738.183 1.363-.78 1.699-1.146 1.386-1.512 1.43-1.993 2.749-1.26l3.956 2.177c1.52.939-.536 3.986-2.056 4.857z"/></defs><use xlink:href="#ba" transform="translate(-1293 -27)"/></symbol></svg>