<svg xmlns="http://www.w3.org/2000/svg" width="32" height="31" viewBox="0 0 32 31"><path fill="#c10f45" d="M22 8.02H3a3 3 0 0 0-3 3v12.04a3 3 0 0 0 3 3.01h2l.02 2.18c.29 1.25 1.7 2.74 4.08 1.17l3.75-3.35H22a3 3 0 0 0 3-3V11.02a3 3 0 0 0-3-3.01zM23 22a2 2 0 0 1-2 2h-6.53l-2.34.01-4.3 3.9c-.9.57-.83-.87-.83-.87v-1.5c.02-.66-.02-1.53-.02-1.53H4A2 2 0 0 1 2 22V12c0-1.1.9-2 2-2h17a2 2 0 0 1 2 2zm6-21H11a3 3 0 0 0-3 3v2.01h2v-1c0-1.11.9-2 2-2h16a2 2 0 0 1 2 2v9.97a2 2 0 0 1-2 2h-1v2h2a3 3 0 0 0 3-3V4.01A3 3 0 0 0 29 1zM18 14.04H7a1 1 0 0 0 0 2h11a1 1 0 0 0 0-2zm-1 5.01a1 1 0 0 1-1 1H7a1 1 0 0 1 0-2h9a1 1 0 0 1 1 1z"/></svg>