<svg xmlns="http://www.w3.org/2000/svg" width="33" height="32" viewBox="0 0 33 32"><path fill="#fff" d="M7 0h19c1.1 0 1.85 1.24 2 2l5 17.01V29a3 3 0 0 1-3 3H4a3 3 0 0 1-3-3v-9.99L5 2c.19-.73.9-2 2-2zm0 3L3.25 18H11c1 0 1 1 1 1v3a1 1 0 0 0 1 1h8a1 1 0 0 0 1-1v-3s-.05-1 1-1h1v5a2 2 0 0 1-2 2H12a2 2 0 0 1-2-2v-3H3v8c0 1.1.9 2 2 2h24a2 2 0 0 0 2-2v-8h-7v-2h6.68L26 3a1 1 0 0 0-1-1H8a1 1 0 0 0-1 1zm2 10h16a1 1 0 0 1 0 2H9a1 1 0 0 1 0-2zm1-4h14a1 1 0 0 1 0 2H10a1 1 0 0 1 0-2zm1-4h12a1 1 0 0 1 0 2H11a1 1 0 0 1 0-2z"/></svg>