<svg xmlns="http://www.w3.org/2000/svg" width="33" height="32" viewBox="0 0 33 32"><path fill="#c10f45" d="M20.98 19.97s.12 0 0 0zm.04 2.72l.99.52a17.4 17.4 0 0 0 4.61 1.48c1.5.26 3.18.78 4.31 3.63C30.87 28.4 29.2 30 17 30S3.12 28.4 3.06 28.33c1.12-2.86 2.81-3.38 4.3-3.64 1.77-.3 3.61-.95 4.6-1.47l.98-.51.05-2.05A7.02 7.02 0 0 0 17 22a7 7 0 0 0 3.99-1.33l.03 2.02zm-10.04-1.22c-.73.38-2.34.97-3.98 1.26-1.97.34-4.42 1.2-5.87 4.89-.24.62-.16 1.3.24 1.86C2.86 31.56 10.7 32 17 32c6.3 0 14.13-.44 15.62-2.52.4-.55.48-1.23.24-1.86-1.45-3.69-3.9-4.55-5.87-4.9A15.29 15.29 0 0 1 23 21.47c0-1.7-.02-2.24-.03-2.61A12.7 12.7 0 0 0 26 11c0-6.07-3-11-9-11-5.99 0-9 4.93-9 11 0 2.67 1.15 5.64 3 7.81 0 .96 0 2.43-.02 2.66zM17 2c4.67 0 7 4.03 7 9 0 4.06-3.13 9-7 9s-7-4.92-7-9c0-4.97 2.34-9 7-9z"/></svg>