<svg xmlns="http://www.w3.org/2000/svg" viewBox="0 0 460.44 460.46"><title>search</title><g id="Слой_2" data-name="Слой 2"><g id="Слой_1-2" data-name="Слой 1"><path d="M302.83,335A187.66,187.66,0,0,1,42.33,305.8C-18.42,231.44-13.25,124,54.41,55.43c67.17-68.08,174.35-74.28,250.22-13.94,77.87,61.94,94.89,178.27,29.45,262.57,1.5.9,3.52,1.63,4.9,3q56.46,56.3,112.82,112.7C459,426.92,462.45,435,459.23,445a22.41,22.41,0,0,1-34.64,11,76,76,0,0,1-7.7-7.11Q361.56,393.6,306.26,338.25C305.21,337.2,304.11,336.2,302.83,335Zm-115.92-5.63c78.17.17,142.1-63.25,142.43-141.29.33-78.42-63.26-142.65-141.4-142.82A142.24,142.24,0,0,0,45.25,187.29C45.08,265.26,108.82,329.19,186.91,329.36Z"/></g></g></svg>