<?xml version="1.0" encoding="utf-8"?><svg xmlns="http://www.w3.org/2000/svg" xmlns:xlink="http://www.w3.org/1999/xlink"><symbol viewBox="0 0 28.01 44" id="arrow-bott" xmlns="http://www.w3.org/2000/svg"><g data-name="Слой 2"><g data-name="Слой 1"><path d="M14.65 0l.53.05A13.75 13.75 0 0 1 24 4.22a13.69 13.69 0 0 1 3.81 7.57A13.91 13.91 0 0 1 28 14v16a13.65 13.65 0 0 1-3.69 9.44 13.4 13.4 0 0 1-7.53 4.24A13.67 13.67 0 0 1 4.9 40.63a13.62 13.62 0 0 1-4.61-7.78A12.94 12.94 0 0 1 0 30.14V13.91a13.61 13.61 0 0 1 3.87-9.56A13.7 13.7 0 0 1 10.65.41 13.49 13.49 0 0 1 13.21 0h.13zM27 22v-7.95a12.65 12.65 0 0 0-.26-2.62A12.82 12.82 0 0 0 21 3.06 12.64 12.64 0 0 0 13.78 1a12.39 12.39 0 0 0-2.26.23 12.74 12.74 0 0 0-6.76 3.64A12.64 12.64 0 0 0 1 13.93V30a12.38 12.38 0 0 0 .19 2.19 12.65 12.65 0 0 0 4.07 7.39 12.68 12.68 0 0 0 10.86 3.21 12.47 12.47 0 0 0 7.36-3.94A12.73 12.73 0 0 0 27 30v-8z"/><path d="M14 32l-6-5.92 1.4-1.42L13 28.2V12h2v16.15l3.54-3.49L20 26.1z"/></g></g></symbol><symbol viewBox="0 0 38 12" id="arrow-left" xmlns="http://www.w3.org/2000/svg"><path d="M3.787 7H38V5H3.787l3.544-3.59L5.936 0 0 6l5.936 6 1.395-1.41L3.787 7z"/></symbol><symbol viewBox="0 0 38 12" id="arrow-right" xmlns="http://www.w3.org/2000/svg"><path d="M34.213 7H0V5h34.213l-3.544-3.59L32.064 0 38 6l-5.936 6-1.395-1.41L34.213 7z"/></symbol><symbol viewBox="0 0 800.04 1100.33" id="basket" xmlns="http://www.w3.org/2000/svg"><g data-name="Слой 2"><path d="M800 1088.33v12H0c0-.83-.06-1.66 0-2.49q2.91-69.12 5.83-138.23Q10 859.05 14.12 758.49q4.46-107.3 9-214.59 3.39-80.34 6.81-160.69 2.7-64.88 5.29-129.76c.27-6.59.73-13.18 1.13-20.2H199a9.88 9.88 0 0 0 .48-1.85c.16-11 .25-22 .43-33 .88-54.92 20.39-102.35 59.61-140.6C306.39 12.07 363.4-7.39 428.23 2.52 507.09 14.58 560.37 60 588.75 134.35c8.08 21.17 11.24 43.44 11.13 66.14-.05 10.78 0 21.57 0 32.87h163.39c.24 2 .53 3.43.59 4.9q3.67 88.58 7.31 177.17 4.28 101.8 8.68 203.6 4.19 100.05 8.22 200.11 2.87 69.12 5.89 138.23c1.55 36.77 3 73.53 4.61 110.3.3 6.9.97 13.78 1.43 20.66zm-69.76-55.27l-30.69-732.51h-99.89v173.68H533V300.51H265v173.58h-67.69l1.6-173.53h-98.72l-30.72 732.5zM533.61 233.18c-.6-17.81.35-35.31-2-52.33A131.74 131.74 0 0 0 393.1 67.38c-54.67 3.21-93.07 31.54-116 81-12.42 26.79-10.69 55.52-10.7 84 0 .26.39.51.67.86z" data-name="Слой 1"/></g></symbol><symbol viewBox="0 0 344.96 344.96" id="check" xmlns="http://www.w3.org/2000/svg"><defs><style>.ecls-1{fill:#e75713}</style></defs><g id="eСлой_2" data-name="Слой 2"><path class="ecls-1" d="M321.85 86.24l-40-23.11-23.1-40H212.5L172.48 0l-40 23.11H86.24l-23.11 40-40 23.1v46.21L0 172.48l23.11 40v46.21l40 23.11 23.11 40h46.21l40 23.1 40-23.11h46.21l23.11-40 40-23.11V212.5l23.11-40-23.11-40V86.24zM156.91 243.07a16.79 16.79 0 0 1-23.34 0l-50.45-50.44a16.19 16.19 0 0 1 0-22.89l13.35-13.35a16.19 16.19 0 0 1 22.89 0l25.87 25.87 80.34-80.35a16.19 16.19 0 0 1 22.89 0l13.35 13.35a16.19 16.19 0 0 1 0 22.89z" id="eCapa_1" data-name="Capa 1"/></g></symbol><symbol viewBox="0 0 24 24" id="instagram" xmlns="http://www.w3.org/2000/svg"><path d="M16.5 0h-9A7.5 7.5 0 0 0 0 7.5v9A7.5 7.5 0 0 0 7.5 24h9a7.5 7.5 0 0 0 7.5-7.5v-9A7.5 7.5 0 0 0 16.5 0zm5.25 16.5a5.256 5.256 0 0 1-5.25 5.25h-9a5.256 5.256 0 0 1-5.25-5.25v-9A5.256 5.256 0 0 1 7.5 2.25h9a5.256 5.256 0 0 1 5.25 5.25v9z"/><path d="M12 6a6 6 0 1 0 0 12 6 6 0 0 0 0-12zm0 9.75A3.755 3.755 0 0 1 8.25 12 3.754 3.754 0 0 1 12 8.25 3.754 3.754 0 0 1 15.75 12 3.755 3.755 0 0 1 12 15.75z"/><circle cx="18.45" cy="5.55" r="1"/></symbol><symbol viewBox="0 0 19.13 18.99" id="logo" xmlns="http://www.w3.org/2000/svg"><defs><style>.gcls-1{fill:#fff}</style></defs><g id="gСлой_2" data-name="Слой 2"><g id="gСлой_1-2" data-name="Слой 1"><g id="gСлой_2-2" data-name="Слой 2"><g id="gСлой_1-2-2" data-name="Слой 1-2"><g id="gPage-1"><g id="gГлавная_Таргет" data-name="Главная Таргет"><path id="gtarget-logo-white" class="gcls-1" d="M10.49 8.64v4.6H8.66v-4.6H6.45V6.8h6.25v1.84zm5.69 5.27l-1.44-.83a6.26 6.26 0 0 1-3.51 2.51V14.5a5.22 5.22 0 0 0 3.44-6l.94-.5a6.28 6.28 0 0 1-.33 4.19l1.44.83a7.94 7.94 0 0 0 .36-5.87l1.46-.84A9.57 9.57 0 0 1 11.23 19v-1.7a7.92 7.92 0 0 0 4.95-3.39zm-13.26-.08a7.92 7.92 0 0 0 5 3.46V19A9.57 9.57 0 0 1 .57 6.32L2 7.16a7.94 7.94 0 0 0 .35 5.7L3.83 12a6.28 6.28 0 0 1-.32-4l.95.55a5.22 5.22 0 0 0 3.46 5.93v1.12A6.27 6.27 0 0 1 4.35 13zm7.21-12.17v1.67a6.23 6.23 0 0 1 3.81 1.75l-.94.54a5.21 5.21 0 0 0-6.9.06l-.94-.54A6.23 6.23 0 0 1 9 3.33V1.66a7.89 7.89 0 0 0-5.33 2.63l-1.46-.84a9.57 9.57 0 0 1 14.66-.07l-1.46.84a7.89 7.89 0 0 0-5.28-2.56z"/></g></g></g></g></g></g></symbol><symbol viewBox="0 0 110 18.99" id="logo--text" xmlns="http://www.w3.org/2000/svg"><defs><style>.hcls-1{fill:#fff}</style></defs><g id="hСлой_2" data-name="Слой 2"><g id="hСлой_1-2" data-name="Слой 1"><g id="hPage-1"><g id="hГлавная_Таргет" data-name="Главная Таргет"><path id="htarget-logo-white" class="hcls-1" d="M10.48 8.65v4.6H8.65v-4.6H6.44V6.81h6.25v1.84zm5.69 5.27l-1.44-.83a6.26 6.26 0 0 1-3.51 2.51v-1.09a5.22 5.22 0 0 0 3.44-6l.94-.54a6.28 6.28 0 0 1-.33 4.19l1.44.83a7.94 7.94 0 0 0 .36-5.87l1.46-.84A9.57 9.57 0 0 1 11.22 19v-1.7a7.92 7.92 0 0 0 4.95-3.38zm-13.26-.08a7.92 7.92 0 0 0 5 3.46V19A9.57 9.57 0 0 1 .56 6.33L2 7.17a7.94 7.94 0 0 0 .35 5.7L3.82 12a6.28 6.28 0 0 1-.32-4l.95.55a5.22 5.22 0 0 0 3.46 5.93v1.12A6.27 6.27 0 0 1 4.34 13zm7.21-12.17v1.67a6.23 6.23 0 0 1 3.81 1.75l-.93.54a5.21 5.21 0 0 0-6.9.06l-.94-.54A6.23 6.23 0 0 1 9 3.34V1.67A7.89 7.89 0 0 0 3.66 4.3L2.2 3.46a9.57 9.57 0 0 1 14.66-.07l-1.46.84a7.89 7.89 0 0 0-5.28-2.56zm75.6 4v2.61h5.33v2.39h-5.33v2.58h9.38v2.39H83V3.31h12.1V5.7zm-25 4.81l2.61 5.12h-2.72L58 10.51h-4v5.08h-2.65V3.31h10a2.22 2.22 0 0 1 2.07 2.53v2.58q-.06 2.09-2.44 2.09zM105.4 5.7v9.93h-2.94V5.7h-4.6V3.31H110V5.7zm-74.5 0v9.93H28V5.7h-4.6V3.31h12.1V5.7zm9.43 5h3.38L42 7.59zm4.73 2.39h-6l-1.33 2.51H35l6.56-12.32h1l6.65 12.32h-2.7zm8.84-4.82h6.25a1.15 1.15 0 0 0 1-1.29 1.15 1.15 0 0 0-1-1.29h-6.24zm17.47 2.5V8.38h8.16v5a2.09 2.09 0 0 1-2.31 2.15h-8.27q-2.6-.15-2.6-2.48V6q.11-2.59 2.52-2.59h8.27a2.16 2.16 0 0 1 2.37 2.41v.95H77q.06-.95-1-.95h-6.28a.88.88 0 0 0-.78.95v5.93a.55.55 0 0 0 .59.54h6.73q.78 0 .78-.62v-1.87z"/></g></g></g></g></symbol><symbol viewBox="0 0 23 13" id="vk" xmlns="http://www.w3.org/2000/svg"><path d="M22.878 11.74a1.555 1.555 0 0 0-.078-.148c-.399-.712-1.162-1.586-2.287-2.622l-.024-.024-.012-.011-.012-.012h-.012c-.51-.483-.834-.807-.97-.973-.248-.316-.303-.637-.168-.961.096-.245.455-.763 1.078-1.554.327-.42.587-.755.778-1.008 1.382-1.82 1.98-2.982 1.797-3.488L22.896.82c-.048-.07-.171-.136-.37-.195-.2-.06-.456-.07-.767-.03l-3.45.024a.452.452 0 0 0-.239.006l-.155.035-.06.03-.048.036a.53.53 0 0 0-.132.124.812.812 0 0 0-.12.208 19.292 19.292 0 0 1-1.28 2.669c-.296.49-.568.915-.815 1.275-.248.36-.455.625-.623.795a4.33 4.33 0 0 1-.455.41c-.136.102-.24.146-.311.13a8.821 8.821 0 0 1-.204-.048.792.792 0 0 1-.27-.29 1.293 1.293 0 0 1-.137-.463 5.054 5.054 0 0 1-.042-.48 9.944 9.944 0 0 1 .006-.57c.008-.245.012-.411.012-.498 0-.3.006-.627.018-.979l.03-.836c.008-.206.012-.423.012-.653 0-.23-.014-.409-.042-.54a1.834 1.834 0 0 0-.125-.38.64.64 0 0 0-.246-.284 1.391 1.391 0 0 0-.401-.16C12.259.06 11.72.01 11.065.002 9.58-.014 8.626.08 8.203.287a1.61 1.61 0 0 0-.455.355c-.144.174-.164.27-.06.285.48.071.818.241 1.018.51l.072.142c.056.103.112.285.168.546.055.261.091.55.107.866.04.577.04 1.072 0 1.483-.04.411-.077.732-.113.96a1.91 1.91 0 0 1-.162.558c-.072.143-.12.23-.144.261a.205.205 0 0 1-.06.06.905.905 0 0 1-.323.06c-.112 0-.248-.056-.407-.167a2.863 2.863 0 0 1-.497-.457 6.107 6.107 0 0 1-.581-.812 13.7 13.7 0 0 1-.67-1.234l-.192-.344c-.12-.222-.284-.544-.491-.967a18.553 18.553 0 0 1-.551-1.228.783.783 0 0 0-.287-.38L4.515.75a.822.822 0 0 0-.192-.101A1.28 1.28 0 0 0 4.048.57L.767.594C.43.594.204.67.084.82L.036.891a.38.38 0 0 0-.036.19c0 .087.024.194.072.32.479 1.115 1 2.191 1.563 3.227A36.18 36.18 0 0 0 3.1 7.131c.416.633.839 1.23 1.27 1.791.431.562.716.922.856 1.08.14.158.25.277.33.356l.299.285c.191.19.473.417.844.682.371.265.782.526 1.233.783a6.73 6.73 0 0 0 1.575.628 5.494 5.494 0 0 0 1.749.196h1.377c.28-.024.49-.11.635-.26l.047-.06a.782.782 0 0 0 .09-.22c.028-.098.042-.207.042-.326-.008-.34.018-.646.078-.919s.127-.478.203-.617a1.517 1.517 0 0 1 .462-.522.785.785 0 0 1 .095-.041c.192-.063.417-.002.677.184.26.186.503.415.73.688.228.273.501.58.82.92.32.34.6.592.839.759l.24.142c.16.095.367.182.622.261.255.079.479.099.67.06l3.066-.048c.303 0 .54-.05.707-.149.167-.098.267-.207.3-.326a.91.91 0 0 0 .005-.403 1.478 1.478 0 0 0-.084-.315z"/></symbol></svg>