<?xml version="1.0" encoding="utf-8"?><svg xmlns="http://www.w3.org/2000/svg" xmlns:xlink="http://www.w3.org/1999/xlink"><symbol viewBox="0 0 28 44" id="arrow-bott" xmlns="http://www.w3.org/2000/svg"><g fill-rule="evenodd"><rect x=".5" y=".5" width="27" height="43" rx="13.5"/><path d="M15 28.213V12h-2v16.213l-3.59-3.544L8 26.064 14 32l6-5.936-1.41-1.395L15 28.213z" fill-rule="nonzero"/></g></symbol><symbol viewBox="0 0 38 12" id="arrow-left" xmlns="http://www.w3.org/2000/svg"><path d="M3.787 7H38V5H3.787l3.544-3.59L5.936 0 0 6l5.936 6 1.395-1.41L3.787 7z"/></symbol><symbol viewBox="0 0 38 12" id="arrow-right" xmlns="http://www.w3.org/2000/svg"><path d="M34.213 7H0V5h34.213l-3.544-3.59L32.064 0 38 6l-5.936 6-1.395-1.41L34.213 7z"/></symbol><symbol viewBox="0 0 24 33" id="basket" xmlns="http://www.w3.org/2000/svg"><g stroke-width="2" fill-rule="evenodd"><path d="M2.05 8L1.043 32h21.914L21.95 8H2.05z"/><path d="M7 13.02l10 .209V6A5 5 0 0 0 7 6v7.02z"/></g></symbol><symbol viewBox="0 0 344.96 344.96" id="check" xmlns="http://www.w3.org/2000/svg"><defs><style>.ecls-1{fill:#e75713}</style></defs><g id="eСлой_2" data-name="Слой 2"><path class="ecls-1" d="M321.85 86.24l-40-23.11-23.1-40H212.5L172.48 0l-40 23.11H86.24l-23.11 40-40 23.1v46.21L0 172.48l23.11 40v46.21l40 23.11 23.11 40h46.21l40 23.1 40-23.11h46.21l23.11-40 40-23.11V212.5l23.11-40-23.11-40V86.24zM156.91 243.07a16.79 16.79 0 0 1-23.34 0l-50.45-50.44a16.19 16.19 0 0 1 0-22.89l13.35-13.35a16.19 16.19 0 0 1 22.89 0l25.87 25.87 80.34-80.35a16.19 16.19 0 0 1 22.89 0l13.35 13.35a16.19 16.19 0 0 1 0 22.89z" id="eCapa_1" data-name="Capa 1"/></g></symbol><symbol viewBox="0 0 24 24" id="instagram" xmlns="http://www.w3.org/2000/svg"><path d="M16.5 0h-9A7.5 7.5 0 0 0 0 7.5v9A7.5 7.5 0 0 0 7.5 24h9a7.5 7.5 0 0 0 7.5-7.5v-9A7.5 7.5 0 0 0 16.5 0zm5.25 16.5a5.256 5.256 0 0 1-5.25 5.25h-9a5.256 5.256 0 0 1-5.25-5.25v-9A5.256 5.256 0 0 1 7.5 2.25h9a5.256 5.256 0 0 1 5.25 5.25v9z"/><path d="M12 6a6 6 0 1 0 0 12 6 6 0 0 0 0-12zm0 9.75A3.755 3.755 0 0 1 8.25 12 3.754 3.754 0 0 1 12 8.25 3.754 3.754 0 0 1 15.75 12 3.755 3.755 0 0 1 12 15.75z"/><circle cx="18.45" cy="5.55" r="1"/></symbol><symbol viewBox="0 0 42 42" id="logo" xmlns="http://www.w3.org/2000/svg"><g fill-rule="evenodd"><path d="M2.854 15.44A19.243 19.243 0 0 0 2 21.13C2 30.62 8.866 38.496 17.87 40m6.634-.066C33.324 38.278 40 30.489 40 21.129c0-1.9-.275-3.737-.788-5.47m-3.117-6.15C32.622 4.945 27.153 2 21 2 14.984 2 9.621 4.815 6.14 9.208" stroke-width="3"/><path d="M9.47 18.97A10.929 10.929 0 0 0 9 22.148c0 5.058 3.444 9.295 8.07 10.401.22.053.445.099.671.137m5.724.315c.209-.04.416-.086.62-.138C28.632 31.7 32 27.502 32 22.499a10.89 10.89 0 0 0-.434-3.055m-2.407-6.25a10.7 10.7 0 0 0-.24-.308C27 10.513 24.095 9 20.845 9c-3.063 0-5.82 1.344-7.733 3.485-.156.175-.307.355-.452.54" stroke-width="2"/><path d="M21 3v6" stroke-width="2" stroke-linecap="square"/><path d="M5 31l5-3m27 3l-5-3" stroke-width="2"/><path fill-rule="nonzero" d="M15 19.685h4.658V29h3.714v-9.408H28V16H15z"/></g></symbol><symbol viewBox="0 0 23 13" id="vk" xmlns="http://www.w3.org/2000/svg"><path d="M22.878 11.74a1.555 1.555 0 0 0-.078-.148c-.399-.712-1.162-1.586-2.287-2.622l-.024-.024-.012-.011-.012-.012h-.012c-.51-.483-.834-.807-.97-.973-.248-.316-.303-.637-.168-.961.096-.245.455-.763 1.078-1.554.327-.42.587-.755.778-1.008 1.382-1.82 1.98-2.982 1.797-3.488L22.896.82c-.048-.07-.171-.136-.37-.195-.2-.06-.456-.07-.767-.03l-3.45.024a.452.452 0 0 0-.239.006l-.155.035-.06.03-.048.036a.53.53 0 0 0-.132.124.812.812 0 0 0-.12.208 19.292 19.292 0 0 1-1.28 2.669c-.296.49-.568.915-.815 1.275-.248.36-.455.625-.623.795a4.33 4.33 0 0 1-.455.41c-.136.102-.24.146-.311.13a8.821 8.821 0 0 1-.204-.048.792.792 0 0 1-.27-.29 1.293 1.293 0 0 1-.137-.463 5.054 5.054 0 0 1-.042-.48 9.944 9.944 0 0 1 .006-.57c.008-.245.012-.411.012-.498 0-.3.006-.627.018-.979l.03-.836c.008-.206.012-.423.012-.653 0-.23-.014-.409-.042-.54a1.834 1.834 0 0 0-.125-.38.64.64 0 0 0-.246-.284 1.391 1.391 0 0 0-.401-.16C12.259.06 11.72.01 11.065.002 9.58-.014 8.626.08 8.203.287a1.61 1.61 0 0 0-.455.355c-.144.174-.164.27-.06.285.48.071.818.241 1.018.51l.072.142c.056.103.112.285.168.546.055.261.091.55.107.866.04.577.04 1.072 0 1.483-.04.411-.077.732-.113.96a1.91 1.91 0 0 1-.162.558c-.072.143-.12.23-.144.261a.205.205 0 0 1-.06.06.905.905 0 0 1-.323.06c-.112 0-.248-.056-.407-.167a2.863 2.863 0 0 1-.497-.457 6.107 6.107 0 0 1-.581-.812 13.7 13.7 0 0 1-.67-1.234l-.192-.344c-.12-.222-.284-.544-.491-.967a18.553 18.553 0 0 1-.551-1.228.783.783 0 0 0-.287-.38L4.515.75a.822.822 0 0 0-.192-.101A1.28 1.28 0 0 0 4.048.57L.767.594C.43.594.204.67.084.82L.036.891a.38.38 0 0 0-.036.19c0 .087.024.194.072.32.479 1.115 1 2.191 1.563 3.227A36.18 36.18 0 0 0 3.1 7.131c.416.633.839 1.23 1.27 1.791.431.562.716.922.856 1.08.14.158.25.277.33.356l.299.285c.191.19.473.417.844.682.371.265.782.526 1.233.783a6.73 6.73 0 0 0 1.575.628 5.494 5.494 0 0 0 1.749.196h1.377c.28-.024.49-.11.635-.26l.047-.06a.782.782 0 0 0 .09-.22c.028-.098.042-.207.042-.326-.008-.34.018-.646.078-.919s.127-.478.203-.617a1.517 1.517 0 0 1 .462-.522.785.785 0 0 1 .095-.041c.192-.063.417-.002.677.184.26.186.503.415.73.688.228.273.501.58.82.92.32.34.6.592.839.759l.24.142c.16.095.367.182.622.261.255.079.479.099.67.06l3.066-.048c.303 0 .54-.05.707-.149.167-.098.267-.207.3-.326a.91.91 0 0 0 .005-.403 1.478 1.478 0 0 0-.084-.315z"/></symbol></svg>