<?xml version="1.0" encoding="UTF-8"?>
<svg width="110px" height="20px" viewBox="0 0 110 20" version="1.1" xmlns="http://www.w3.org/2000/svg" xmlns:xlink="http://www.w3.org/1999/xlink">
    <!-- Generator: Sketch 49.3 (51167) - http://www.bohemiancoding.com/sketch -->
    <title>target logo white@1x</title>
    <desc>Created with Sketch.</desc>
    <defs></defs>
    <g id="Page-1" stroke="none" stroke-width="1" fill="none" fill-rule="evenodd">
        <g id="Главная_Таргет" transform="translate(-50.000000, -69.000000)" fill="#FFFFFF">
            <path d="M60.4849498,78.0334922 L60.4849498,82.6321544 L58.6454849,82.6321544 L58.6454849,78.0334922 L56.4381271,78.0334922 L56.4381271,76.1940273 L62.6923077,76.1940273 L62.6923077,78.0334922 L60.4849498,78.0334922 Z M66.1722855,83.3033853 L64.7352004,82.4736838 C63.9095973,83.6837829 62.6702317,84.5890809 61.2207358,84.9859458 L61.2207358,83.8966089 C63.2875837,83.2047299 64.7770346,81.2529172 64.7770346,78.9532247 C64.7770346,78.5808591 64.7379841,78.2176142 64.6637552,77.8673619 L65.60505,77.323905 C65.7448405,77.8433814 65.819398,78.3895961 65.819398,78.9532247 C65.819398,79.8642927 65.6245899,80.7298608 65.2743561,81.5105468 L66.7143083,82.3419036 C67.2020271,81.3147872 67.4749164,80.1658743 67.4749164,78.9532247 C67.4749164,78.0870055 67.335674,77.2533081 67.0783511,76.4732943 L68.5376418,75.6307724 C68.9210049,76.6656771 69.1304348,77.7849934 69.1304348,78.9532247 C69.1304348,83.6713479 65.7144218,87.5916186 61.2207358,88.3756969 L61.2207358,86.689399 C63.2833166,86.250157 65.048386,85.006933 66.1722855,83.3033853 Z M52.9078749,83.2262096 C54.0290225,84.9693547 55.8160968,86.2435508 57.909699,86.689399 L57.909699,88.3756969 C53.416013,87.5916186 50,83.6713479 50,78.9532247 C50,77.8179261 50.1977885,76.7288235 50.5607872,75.7184954 L52.0231523,76.5627923 C51.7843401,77.316961 51.6555184,78.1200489 51.6555184,78.9532247 C51.6555184,80.1330699 51.9138431,81.2525802 52.3770182,82.2582812 L53.8188352,81.4258478 C53.4920621,80.6674393 53.3110368,79.8314723 53.3110368,78.9532247 C53.3110368,78.4228772 53.3770493,77.9079477 53.501306,77.4162047 L54.4474531,77.962463 C54.3857231,78.2832237 54.3534002,78.6144495 54.3534002,78.9532247 C54.3534002,81.2529172 55.8428511,83.2047299 57.909699,83.8966089 L57.909699,84.9859458 C56.4298062,84.5807584 55.1689492,83.6455898 54.3438418,82.3971538 L52.9078749,83.2262096 Z M60.1170569,71.0624762 L60.1170569,72.7230557 C61.5935137,72.8521334 62.9229119,73.4942327 63.9259664,74.4700684 L62.9802768,75.0160626 C62.0656258,74.2220174 60.8715478,73.7414075 59.5652174,73.7414075 C58.2240146,73.7414075 57.0011374,74.2480195 56.0775091,75.0803203 L55.1366111,74.5370926 C56.1471941,73.5236729 57.5033777,72.8550659 59.0133779,72.7230557 L59.0133779,71.0624762 C56.8902728,71.208791 54.9976251,72.1929426 53.6636738,73.6866919 L52.20458,72.8442836 C53.9591271,70.7325781 56.6051516,69.3880073 59.5652174,69.3880073 C62.4917166,69.3880073 65.1112565,70.7022566 66.8658231,72.7727414 L65.4036924,73.6169029 C64.0734851,72.1623293 62.2069195,71.2065001 60.1170569,71.0624762 Z M135.719064,75.0903484 L135.719064,77.6655992 L141.053512,77.6655992 L141.053512,80.0569036 L135.719064,80.0569036 L135.719064,82.6321544 L145.100334,82.6321544 L145.100334,85.0234588 L132.959866,85.0234588 L132.959866,82.6321544 L132.959866,75.0903484 L132.959866,72.6990441 L145.100334,72.6990441 L145.100334,75.0903484 L135.719064,75.0903484 Z M110.761879,79.8996019 L113.371062,85.0234588 L110.611865,85.0234588 L108.002682,79.8996019 L103.974554,79.8996019 L103.974554,84.9797703 L101.32107,84.9614664 L101.32107,72.6990441 L111.341964,72.6990441 C112.722867,72.8728563 113.413319,73.7150143 113.413319,75.2255182 C113.413319,76.7360221 113.413319,77.5966815 113.413319,77.8074963 C113.372509,79.2022334 112.559901,79.8996019 110.975494,79.8996019 L110.761879,79.8996019 Z M155.401338,75.0903484 L155.401338,85.0234588 L152.458194,85.0234588 L152.458194,75.0903484 L147.859532,75.0903484 L147.859532,72.6990441 L160,72.6990441 L160,75.0903484 L155.401338,75.0903484 Z M80.90301,75.0903484 L80.90301,85.0234588 L77.9598662,85.0234588 L77.9598662,75.0903484 L73.361204,75.0903484 L73.361204,72.6990441 L85.5016722,72.6990441 L85.5016722,75.0903484 L80.90301,75.0903484 Z M90.3364719,80.0569036 L93.7144883,80.0569036 L91.9660491,76.9741018 L90.3364719,80.0569036 Z M95.0707384,82.4482079 L89.0724221,82.4482079 L87.728342,84.9909118 L84.9822669,84.9909118 L91.563589,72.6664971 L92.5316716,72.6664971 L99.2084776,84.9909118 L96.5128562,84.9909118 L95.0707384,82.4482079 Z M103.911564,77.6298339 L110.163843,77.6298339 C110.810767,77.4972146 111.134229,77.0685921 111.134229,76.3439665 C111.134229,75.6193409 110.810767,75.1907185 110.163843,75.0580992 L103.911564,75.0580992 L103.911564,77.6298339 Z M121.383404,80.1296788 L121.383404,77.770606 L129.543706,77.770606 L129.543706,82.7961984 C129.411884,84.2274072 128.641088,84.9430116 127.231316,84.9430116 C125.821545,84.9430116 123.060409,84.9430116 118.947907,84.9430116 C117.212925,84.8415389 116.345434,84.0139486 116.345434,82.4602407 C116.345434,80.9065327 116.345434,78.5374218 116.345434,75.3529079 C116.418763,73.6235967 117.258985,72.7589412 118.866101,72.7589412 C120.473216,72.7589412 123.229748,72.7589412 127.135696,72.7589412 C128.715632,72.8214841 129.5056,73.6248242 129.5056,75.1689614 C129.5056,75.7556468 129.5056,76.0708343 129.5056,76.1145239 L127.04737,76.1145239 C127.086586,75.4841489 126.751561,75.1689614 126.042294,75.1689614 C125.333028,75.1689614 123.226416,75.1689614 119.722459,75.1689614 C119.204049,75.2753674 118.944843,75.5905549 118.944843,76.1145239 C118.944843,76.6384928 118.944843,78.6146224 118.944843,82.0429125 C118.991963,82.4051404 119.189853,82.5862543 119.538513,82.5862543 C119.887172,82.5862543 122.13052,82.5862543 126.268556,82.5862543 C126.787765,82.5928903 127.04737,82.3861152 127.04737,81.9659292 C127.04737,81.5457432 127.04737,80.9372306 127.04737,80.1403916 L121.383404,80.1296788 Z" id="target-logo-white"></path>
        </g>
    </g>
</svg>