<svg xmlns="http://www.w3.org/2000/svg" viewBox="0 0 196.73 203.54"><title>time</title><g id="Слой_2" data-name="Слой 2"><g id="Слой_1-2" data-name="Слой 1"><path d="M190.74,11.92H151.42V6a6,6,0,0,0-12,0v5.92H104.37V6a6,6,0,0,0-12,0v5.92H58.8V6a6,6,0,0,0-12,0v5.92H6a6,6,0,0,0-6,6V153.49a6,6,0,0,0,6,6H42.83a57,57,0,0,0,111.08,0h36.83a6,6,0,0,0,6-6V17.92a6,6,0,0,0-6-6ZM46.8,23.92v5.42a6,6,0,0,0,12,0V23.92H92.37v5.42a6,6,0,1,0,12,0V23.92h35.05v5.42a6,6,0,1,0,12,0V23.92h33.32V48.45H12V23.92ZM98.37,191.54a45.05,45.05,0,1,1,45.05-45.05A45.1,45.1,0,0,1,98.37,191.54Zm57-44.05c0-.33,0-.66,0-1a57.05,57.05,0,0,0-114.11,0c0,.34,0,.67,0,1H12v-87H184.73v87H155.4Z"/><path d="M104.37,148V119a6,6,0,0,0-12,0v31.51a6,6,0,0,0,1.76,4.24l13.79,13.79A6,6,0,1,0,116.4,160l-12-12Z"/></g></g></svg>