<svg width="14" height="17" viewBox="0 0 14 17" fill="none" xmlns="http://www.w3.org/2000/svg">
<path d="M3.4976 9.16008C3.51464 9.16008 3.53168 9.16008 3.55213 9.16008C3.55895 9.16008 3.56577 9.16008 3.57258 9.16008C3.58281 9.16008 3.59644 9.16008 3.60667 9.16008C4.60531 9.14247 5.41309 8.77987 6.00956 8.08635C7.32177 6.5585 7.10364 3.93933 7.07978 3.68938C6.99457 1.813 6.13567 0.915303 5.42673 0.496376C4.89843 0.183061 4.28152 0.0140816 3.59303 0H3.56918C3.56577 0 3.55895 0 3.55554 0H3.53509C3.15676 0 2.41374 0.0633672 1.7014 0.482294C0.985641 0.901222 0.113102 1.79892 0.0278928 3.68938C0.00403433 3.93933 -0.2141 6.5585 1.09812 8.08635C1.69117 8.77987 2.49895 9.14247 3.4976 9.16008ZM0.937924 3.77739C0.937924 3.76683 0.941332 3.75626 0.941332 3.74922C1.05381 1.2251 2.78866 0.954028 3.53168 0.954028H3.54532C3.55213 0.954028 3.56236 0.954028 3.57258 0.954028C4.49284 0.97515 6.05727 1.36239 6.16293 3.74922C6.16293 3.75978 6.16293 3.77035 6.16634 3.77739C6.16975 3.80203 6.40833 6.1959 5.32448 7.4562C4.89502 7.9561 4.32242 8.20253 3.56918 8.20957C3.56236 8.20957 3.55895 8.20957 3.55213 8.20957C3.54532 8.20957 3.54191 8.20957 3.53509 8.20957C2.78525 8.20253 2.20924 7.9561 1.7832 7.4562C0.702747 6.20294 0.934516 3.79851 0.937924 3.77739Z" transform="translate(3.44287)" fill="#8FC056"/>
<path d="M13.999 4.37782C13.999 4.3743 13.999 4.37078 13.999 4.36726C13.999 4.3391 13.9956 4.31093 13.9956 4.27925C13.9752 3.58221 13.9309 1.95227 12.4517 1.43125C12.4414 1.42773 12.4278 1.42421 12.4176 1.42069C10.8804 1.01584 9.60227 0.100538 9.58863 0.0899769C9.38072 -0.0614002 9.09442 -0.00859361 8.94786 0.206151C8.8013 0.420895 8.85243 0.716608 9.06034 0.867985C9.11828 0.91023 10.4748 1.88538 12.1722 2.33599C12.9663 2.62818 13.0549 3.50476 13.0788 4.30741C13.0788 4.3391 13.0788 4.36726 13.0822 4.39542C13.0856 4.71226 13.0652 5.20159 13.0106 5.48323C12.4585 5.8071 10.2942 6.92659 7.00169 6.92659C3.72285 6.92659 1.54491 5.80358 0.989351 5.47971C0.934817 5.19807 0.910959 4.70874 0.917775 4.3919C0.917775 4.36374 0.921184 4.33558 0.921184 4.30389C0.945042 3.50124 1.03366 2.62466 1.82781 2.33247C3.52517 1.88186 4.88169 0.903189 4.93964 0.864464C5.14755 0.713087 5.19867 0.417374 5.05211 0.20263C4.90555 -0.0121142 4.61925 -0.0649198 4.41134 0.0864573C4.39771 0.0970185 3.12639 1.01232 1.5824 1.41717C1.56877 1.42069 1.55855 1.42421 1.54832 1.42773C0.0690947 1.95227 0.0247862 3.58221 0.00433602 4.27573C0.00433602 4.30741 0.00433594 4.33558 0.000927585 4.36374C0.000927585 4.36726 0.000927585 4.37078 0.000927585 4.3743C-0.00248077 4.55736 -0.00588906 5.49731 0.174754 5.96904C0.208837 6.06057 0.270188 6.13802 0.351988 6.19083C0.454239 6.26123 2.90485 7.87358 7.0051 7.87358C11.1054 7.87358 13.556 6.25771 13.6582 6.19083C13.7366 6.13802 13.8014 6.06057 13.8354 5.96904C14.0059 5.50083 14.0025 4.56088 13.999 4.37782Z" transform="translate(0 9.12643)" fill="#8FC056"/>
</svg>
