<?xml version="1.0" encoding="utf-8"?><svg xmlns="http://www.w3.org/2000/svg" xmlns:xlink="http://www.w3.org/1999/xlink"><symbol viewBox="0 0 14 17" id="avatar" xmlns="http://www.w3.org/2000/svg"><path d="M6.94 9.16h.11c.998-.018 1.806-.38 2.402-1.074 1.313-1.527 1.095-4.147 1.07-4.397C10.438 1.813 9.58.915 8.87.496 8.34.183 7.724.014 7.036 0h-.058C6.6 0 5.857.063 5.144.482 4.43.902 3.556 1.8 3.471 3.69c-.024.25-.242 2.87 1.07 4.397.593.694 1.4 1.056 2.4 1.074zM4.38 3.777c0-.01.004-.02.004-.028C4.497 1.225 6.232.954 6.974.954h.041c.92.021 2.485.408 2.59 2.795 0 .01 0 .021.004.028.004.025.242 2.419-.842 3.68-.43.5-1.002.746-1.755.753h-.034c-.75-.007-1.326-.254-1.752-.754-1.08-1.253-.849-3.657-.845-3.679z"/><path d="M13.999 13.504v-.01c0-.028-.003-.057-.003-.088-.02-.697-.065-2.327-1.544-2.848-.01-.004-.024-.007-.034-.01-1.538-.406-2.816-1.321-2.83-1.332a.45.45 0 0 0-.64.117.485.485 0 0 0 .112.661c.058.043 1.415 1.018 3.112 1.468.794.293.883 1.17.907 1.972 0 .032 0 .06.003.088.004.317-.017.806-.071 1.088-.552.324-2.717 1.443-6.01 1.443-3.278 0-5.456-1.123-6.012-1.447a6.245 6.245 0 0 1-.071-1.088c0-.028.003-.056.003-.088.024-.802.113-1.679.907-1.971 1.697-.45 3.054-1.43 3.112-1.468a.485.485 0 0 0 .112-.662.45.45 0 0 0-.64-.116c-.014.01-1.286.926-2.83 1.33l-.034.011C.07 11.08.025 12.71.004 13.402a.73.73 0 0 1-.003.099c-.003.183-.007 1.123.174 1.594a.449.449 0 0 0 .177.222C.454 15.387 2.905 17 7.005 17s6.551-1.616 6.653-1.683a.467.467 0 0 0 .177-.222c.17-.468.167-1.408.164-1.59z"/></symbol><symbol viewBox="0 0 344.96 344.96" id="check" xmlns="http://www.w3.org/2000/svg"><defs><style>.bcls-1{fill:#e75713}</style></defs><g id="bСлой_2" data-name="Слой 2"><path class="bcls-1" d="M321.85 86.24l-40-23.11-23.1-40H212.5L172.48 0l-40 23.11H86.24l-23.11 40-40 23.1v46.21L0 172.48l23.11 40v46.21l40 23.11 23.11 40h46.21l40 23.1 40-23.11h46.21l23.11-40 40-23.11V212.5l23.11-40-23.11-40V86.24zM156.91 243.07a16.79 16.79 0 0 1-23.34 0l-50.45-50.44a16.19 16.19 0 0 1 0-22.89l13.35-13.35a16.19 16.19 0 0 1 22.89 0l25.87 25.87 80.34-80.35a16.19 16.19 0 0 1 22.89 0l13.35 13.35a16.19 16.19 0 0 1 0 22.89z" id="bCapa_1" data-name="Capa 1"/></g></symbol><symbol viewBox="0 0 256 512" id="chevron-left" xmlns="http://www.w3.org/2000/svg"><path d="M238.475 475.535l7.071-7.07c4.686-4.686 4.686-12.284 0-16.971L50.053 256 245.546 60.506c4.686-4.686 4.686-12.284 0-16.971l-7.071-7.07c-4.686-4.686-12.284-4.686-16.97 0L10.454 247.515c-4.686 4.686-4.686 12.284 0 16.971l211.051 211.05c4.686 4.686 12.284 4.686 16.97-.001z"/></symbol><symbol viewBox="0 0 256 512" id="chevron-right" xmlns="http://www.w3.org/2000/svg"><path d="M17.525 36.465l-7.071 7.07c-4.686 4.686-4.686 12.284 0 16.971L205.947 256 10.454 451.494c-4.686 4.686-4.686 12.284 0 16.971l7.071 7.07c4.686 4.686 12.284 4.686 16.97 0l211.051-211.05c4.686-4.686 4.686-12.284 0-16.971L34.495 36.465c-4.686-4.687-12.284-4.687-16.97 0z"/></symbol><symbol viewBox="0 0 511.98 508.43" id="close" xmlns="http://www.w3.org/2000/svg"><defs><style>.ecls-1{fill:#fff}</style></defs><g id="eСлой_2" data-name="Слой 2"><path class="ecls-1" d="M231.51 254.29L4.88 480.92a16.11 16.11 0 1 0 22.78 22.79L256 275.38l228.32 228.33a16.11 16.11 0 1 0 22.78-22.79L280.49 254.29 507.26 27.51a16.11 16.11 0 0 0-22.79-22.79L256 233.2 27.51 4.72a16.11 16.11 0 0 0-22.79 22.8z" id="eСлой_1-2" data-name="Слой 1"/></g></symbol><symbol viewBox="0 0 22 22" id="search" xmlns="http://www.w3.org/2000/svg"><path d="M16 9a6.5 6.5 0 1 0-6.5 6.5A6.5 6.5 0 0 0 16 9zm-.26 5.78l5 5a1 1 0 1 1-1.42 1.41l-5.08-5.13a8.51 8.51 0 1 1 1.53-1.3z"/></symbol><symbol viewBox="0 0 576 512" id="shopping-basket" xmlns="http://www.w3.org/2000/svg"><path d="M564 192h-76.875L347.893 37.297c-5.91-6.568-16.027-7.101-22.596-1.189s-7.101 16.028-1.189 22.596L444.075 192h-312.15L251.893 58.703c5.912-6.567 5.379-16.685-1.189-22.596-6.569-5.912-16.686-5.38-22.596 1.189L88.875 192H12c-6.627 0-12 5.373-12 12v8c0 6.627 5.373 12 12 12h16.444L58.25 438.603C61.546 462.334 81.836 480 105.794 480h364.412c23.958 0 44.248-17.666 47.544-41.397L547.556 224H564c6.627 0 12-5.373 12-12v-8c0-6.627-5.373-12-12-12zm-77.946 242.201c-1.093 7.867-7.906 13.799-15.848 13.799H105.794c-7.942 0-14.755-5.932-15.848-13.799L60.752 224h454.497l-29.195 210.201zM304 280v112c0 8.837-7.163 16-16 16-8.836 0-16-7.163-16-16V280c0-8.837 7.164-16 16-16 8.837 0 16 7.163 16 16zm112 0v112c0 8.837-7.163 16-16 16s-16-7.163-16-16V280c0-8.837 7.163-16 16-16s16 7.163 16 16zm-224 0v112c0 8.837-7.164 16-16 16s-16-7.163-16-16V280c0-8.837 7.164-16 16-16s16 7.163 16 16z"/></symbol><symbol viewBox="0 0 21 20" id="star" xmlns="http://www.w3.org/2000/svg"><defs><path id="ha" d="M692.5 357.15l-6.17 3.33 1.18-7.05-5-4.99 6.9-1.03 3.09-6.41 3.09 6.41 6.9 1.03-5 5 1.18 7.04z"/></defs><use xlink:href="#ha" transform="translate(-682 -341)"/></symbol><symbol viewBox="0 0 21 20" id="star-empty" xmlns="http://www.w3.org/2000/svg"><defs><path id="ia" d="M816.5 357.15l-6.17 3.33 1.18-7.05-5-4.99 6.9-1.03 3.09-6.41 3.09 6.41 6.9 1.03-5 5 1.18 7.04z"/><clipPath id="ib"><use xlink:href="#ia"/></clipPath></defs><use fill-opacity="0" stroke-miterlimit="50" stroke-width="2" clip-path="url(#ib)" xlink:href="#ia" transform="translate(-806 -341)"/></symbol></svg>