<?xml version="1.0" encoding="utf-8"?><svg xmlns="http://www.w3.org/2000/svg" xmlns:xlink="http://www.w3.org/1999/xlink"><symbol viewBox="0 0 344.96 344.96" id="check" xmlns="http://www.w3.org/2000/svg"><defs><style>.acls-1{fill:#e75713}</style></defs><g id="aСлой_2" data-name="Слой 2"><path class="acls-1" d="M321.85 86.24l-40-23.11-23.1-40H212.5L172.48 0l-40 23.11H86.24l-23.11 40-40 23.1v46.21L0 172.48l23.11 40v46.21l40 23.11 23.11 40h46.21l40 23.1 40-23.11h46.21l23.11-40 40-23.11V212.5l23.11-40-23.11-40V86.24zM156.91 243.07a16.79 16.79 0 0 1-23.34 0l-50.45-50.44a16.19 16.19 0 0 1 0-22.89l13.35-13.35a16.19 16.19 0 0 1 22.89 0l25.87 25.87 80.34-80.35a16.19 16.19 0 0 1 22.89 0l13.35 13.35a16.19 16.19 0 0 1 0 22.89z" id="aCapa_1" data-name="Capa 1"/></g></symbol><symbol viewBox="0 0 256 512" id="chevron-left" xmlns="http://www.w3.org/2000/svg"><path d="M238.475 475.535l7.071-7.07c4.686-4.686 4.686-12.284 0-16.971L50.053 256 245.546 60.506c4.686-4.686 4.686-12.284 0-16.971l-7.071-7.07c-4.686-4.686-12.284-4.686-16.97 0L10.454 247.515c-4.686 4.686-4.686 12.284 0 16.971l211.051 211.05c4.686 4.686 12.284 4.686 16.97-.001z"/></symbol><symbol viewBox="0 0 256 512" id="chevron-right" xmlns="http://www.w3.org/2000/svg"><path d="M17.525 36.465l-7.071 7.07c-4.686 4.686-4.686 12.284 0 16.971L205.947 256 10.454 451.494c-4.686 4.686-4.686 12.284 0 16.971l7.071 7.07c4.686 4.686 12.284 4.686 16.97 0l211.051-211.05c4.686-4.686 4.686-12.284 0-16.971L34.495 36.465c-4.686-4.687-12.284-4.687-16.97 0z"/></symbol><symbol viewBox="0 0 511.98 508.43" id="close" xmlns="http://www.w3.org/2000/svg"><defs><style>.dcls-1{fill:#fff}</style></defs><g id="dСлой_2" data-name="Слой 2"><path class="dcls-1" d="M231.51 254.29L4.88 480.92a16.11 16.11 0 1 0 22.78 22.79L256 275.38l228.32 228.33a16.11 16.11 0 1 0 22.78-22.79L280.49 254.29 507.26 27.51a16.11 16.11 0 0 0-22.79-22.79L256 233.2 27.51 4.72a16.11 16.11 0 0 0-22.79 22.8z" id="dСлой_1-2" data-name="Слой 1"/></g></symbol><symbol viewBox="0 0 22 22" id="search" xmlns="http://www.w3.org/2000/svg"><path d="M16 9a6.5 6.5 0 1 0-6.5 6.5A6.5 6.5 0 0 0 16 9zm-.26 5.78l5 5a1 1 0 1 1-1.42 1.41l-5.08-5.13a8.51 8.51 0 1 1 1.53-1.3z"/></symbol><symbol viewBox="0 0 576 512" id="shopping-basket" xmlns="http://www.w3.org/2000/svg"><path d="M564 192h-76.875L347.893 37.297c-5.91-6.568-16.027-7.101-22.596-1.189s-7.101 16.028-1.189 22.596L444.075 192h-312.15L251.893 58.703c5.912-6.567 5.379-16.685-1.189-22.596-6.569-5.912-16.686-5.38-22.596 1.189L88.875 192H12c-6.627 0-12 5.373-12 12v8c0 6.627 5.373 12 12 12h16.444L58.25 438.603C61.546 462.334 81.836 480 105.794 480h364.412c23.958 0 44.248-17.666 47.544-41.397L547.556 224H564c6.627 0 12-5.373 12-12v-8c0-6.627-5.373-12-12-12zm-77.946 242.201c-1.093 7.867-7.906 13.799-15.848 13.799H105.794c-7.942 0-14.755-5.932-15.848-13.799L60.752 224h454.497l-29.195 210.201zM304 280v112c0 8.837-7.163 16-16 16-8.836 0-16-7.163-16-16V280c0-8.837 7.164-16 16-16 8.837 0 16 7.163 16 16zm112 0v112c0 8.837-7.163 16-16 16s-16-7.163-16-16V280c0-8.837 7.163-16 16-16s16 7.163 16 16zm-224 0v112c0 8.837-7.164 16-16 16s-16-7.163-16-16V280c0-8.837 7.164-16 16-16s16 7.163 16 16z"/></symbol><symbol viewBox="0 0 21 20" id="star" xmlns="http://www.w3.org/2000/svg"><defs><path id="ga" d="M692.5 357.15l-6.17 3.33 1.18-7.05-5-4.99 6.9-1.03 3.09-6.41 3.09 6.41 6.9 1.03-5 5 1.18 7.04z"/></defs><use xlink:href="#ga" transform="translate(-682 -341)"/></symbol><symbol viewBox="0 0 21 20" id="star-empty" xmlns="http://www.w3.org/2000/svg"><defs><path id="ha" d="M816.5 357.15l-6.17 3.33 1.18-7.05-5-4.99 6.9-1.03 3.09-6.41 3.09 6.41 6.9 1.03-5 5 1.18 7.04z"/><clipPath id="hb"><use xlink:href="#ha"/></clipPath></defs><use fill-opacity="0" stroke-miterlimit="50" stroke-width="2" clip-path="url(#hb)" xlink:href="#ha" transform="translate(-806 -341)"/></symbol></svg>