<svg xmlns="http://www.w3.org/2000/svg" width="65" height="81" viewBox="0 0 65 81"><path d="M52.81 33.75H18.96a1.35 1.35 0 1 0 0 2.7H52.8a1.35 1.35 0 1 0 0-2.7zm-33.85-8.1H32.5a1.35 1.35 0 1 0 0-2.7H18.96a1.35 1.35 0 1 0 0 2.7zm33.85 18.9H18.96a1.35 1.35 0 1 0 0 2.7H52.8a1.35 1.35 0 1 0 0-2.7zm0 10.8H18.96a1.35 1.35 0 1 0 0 2.7H52.8a1.35 1.35 0 1 0 0-2.7zm0 10.8H18.96a1.35 1.35 0 1 0 0 2.7H52.8a1.35 1.35 0 1 0 0-2.7zm5.42-46.46V0H0v74.25h6.77V81H65V26.44zm-12.19-8.33l12.19 12.15 2.15 2.14H46.04zM2.71 71.55V2.7h52.81v14.29L45.25 6.75H6.77v64.8zm6.77 6.75V9.45h33.85v18.9H62.3V78.3z"/></svg>