<?xml version="1.0" encoding="UTF-8" standalone="no"?>
<svg
   xmlns:dc="http://purl.org/dc/elements/1.1/"
   xmlns:cc="http://creativecommons.org/ns#"
   xmlns:rdf="http://www.w3.org/1999/02/22-rdf-syntax-ns#"
   xmlns:svg="http://www.w3.org/2000/svg"
   xmlns="http://www.w3.org/2000/svg"
   id="svg8"
   version="1.1"
   viewBox="0 0 39.420986 50.535229"
   height="50.535229mm"
   width="39.420986mm">
  <defs
     id="defs2" />
  <metadata
     id="metadata5">
    <rdf:RDF>
      <cc:Work
         rdf:about="">
        <dc:format>image/svg+xml</dc:format>
        <dc:type
           rdf:resource="http://purl.org/dc/dcmitype/StillImage" />
        <dc:title></dc:title>
      </cc:Work>
    </rdf:RDF>
  </metadata>
  <g
     transform="translate(-82.678852,-71.771891)"
     id="layer1">
    <path
       id="path21"
       d="m 84.34539,121.78914 c -1.755627,-1.07046 -1.666593,0.25541 -1.665502,-24.802261 9.61e-4,-22.04864 0.01583,-22.7255 0.517466,-23.54821 1.054423,-1.72931 0.330933,-1.66649 19.193006,-1.66649 18.86207,0 18.13858,-0.0628 19.193,1.66649 0.50168,0.82278 0.51648,1.49908 0.51648,23.60122 0,22.102141 -0.0148,22.778441 -0.51648,23.601221 -1.05467,1.72973 -0.32512,1.66659 -19.246,1.6655 -16.537893,-0.001 -17.174909,-0.0193 -17.99197,-0.51747 z m 35.22399,-2.01398 c 0.37141,-0.3714 0.41577,-2.7976 0.41577,-22.735271 0,-19.93767 -0.0444,-22.36386 -0.41577,-22.73527 -0.36923,-0.36922 -2.29248,-0.41577 -17.17902,-0.41577 -14.886537,0 -16.809794,0.0465 -17.17902,0.41577 -0.371405,0.37141 -0.415774,2.7976 -0.415774,22.73527 0,19.937671 0.04437,22.363871 0.415774,22.735271 0.369226,0.36922 2.292483,0.41577 17.17902,0.41577 14.88654,0 16.80979,-0.0465 17.17902,-0.41577 z m -29.751269,-3.82604 c -0.250342,-0.46777 -0.08197,-0.75193 1.295472,-2.1864 l 1.583212,-1.64875 -1.569365,-1.62372 c -0.86315,-0.89304 -1.569364,-1.74613 -1.569364,-1.89574 0,-0.40709 0.775755,-1.10358 1.229166,-1.10358 0.21869,0 1.107227,0.67685 1.974526,1.50412 l 1.576909,1.50411 1.519976,-1.50411 c 1.5393,-1.52324 2.0682,-1.76076 2.642343,-1.18662 0.57414,0.57414 0.33662,1.10304 -1.186619,2.64234 l -1.504116,1.51998 1.504116,1.57691 c 1.539019,1.6135 1.743329,2.06489 1.186619,2.62161 -0.550568,0.55056 -1.008308,0.35719 -2.680521,-1.13237 l -1.627649,-1.44986 -1.465151,1.44986 c -1.565057,1.54873 -2.424667,1.81824 -2.909554,0.91222 z m 16.461629,-0.83819 c -0.17463,-0.17462 -0.3175,-0.508 -0.3175,-0.74083 0,-0.93381 0.54994,-1.05833 4.67381,-1.05833 3.72227,0 4.06029,0.0401 4.31271,0.51177 0.35422,0.66187 0.35,0.69723 -0.14188,1.18912 -0.34034,0.34034 -1.12282,0.41577 -4.31271,0.41577 -2.67817,0 -3.99623,-0.0993 -4.21443,-0.3175 z m -0.1569,-4.86351 c -0.24053,-0.62681 -0.20082,-0.82639 0.25517,-1.28238 0.33818,-0.33818 1.10358,-0.41577 4.10104,-0.41577 3.34641,0 3.73449,0.0492 4.2205,0.53523 0.42511,0.42511 0.47763,0.64285 0.25527,1.05833 -0.2608,0.48732 -0.56695,0.5231 -4.47567,0.5231 -3.58187,0 -4.21921,-0.0612 -4.35631,-0.41851 z M 93.592962,102.5532 c -0.212281,-0.0857 -0.330729,-0.6941 -0.330729,-1.6989 v -1.565451 h -1.43631 c -0.952958,0 -1.576227,-0.13992 -1.852083,-0.41577 -0.491884,-0.49189 -0.496104,-0.52725 -0.141881,-1.18912 0.223415,-0.41746 0.562418,-0.51178 1.839458,-0.51178 h 1.565565 l 0.07877,-1.65364 c 0.07134,-1.49764 0.136307,-1.6618 0.688646,-1.7401 0.993817,-0.14089 1.3745,0.40133 1.3745,1.95773 v 1.40961 l 1.493967,0.0794 c 1.074926,0.0571 1.575481,0.20922 1.784591,0.54237 0.53321,0.84953 -0.11088,1.37951 -1.784591,1.46841 l -1.493967,0.0794 v 1.194811 c 0,1.87575 -0.573837,2.53223 -1.785938,2.04313 z m 12.686778,-3.581851 c -0.17463,-0.17463 -0.3175,-0.508 -0.3175,-0.74083 0,-0.93381 0.54994,-1.05834 4.67381,-1.05834 3.72227,0 4.06029,0.0401 4.31271,0.51178 0.35422,0.66187 0.35,0.69723 -0.14188,1.18912 -0.34034,0.34033 -1.12282,0.41577 -4.31271,0.41577 -2.67817,0 -3.99623,-0.0993 -4.21443,-0.3175 z m -18.507611,-9.11815 c -0.251892,-0.10164 -0.33073,-1.6712 -0.33073,-6.58438 0,-6.10706 0.02728,-6.46554 0.511773,-6.72483 0.334183,-0.17885 5.344021,-0.27389 14.437188,-0.27389 9.09317,0 14.10301,0.095 14.43719,0.27389 0.48447,0.25928 0.51177,0.6177 0.51177,6.71857 0,5.63262 -0.0527,6.46491 -0.41851,6.60527 -0.50004,0.19188 -28.671936,0.17775 -29.148681,-0.0146 z m 27.450521,-6.70393 v -4.7625 H 102.39036 89.558066 v 4.7625 4.7625 h 12.832294 12.83229 z m -14.76375,0.74083 c -0.855484,-0.85549 0.46379,-2.31348 1.39446,-1.54109 0.75169,0.62385 0.31745,1.85859 -0.65362,1.85859 -0.23284,0 -0.56621,-0.14288 -0.74084,-0.3175 z m 4.62139,0.14111 c -0.31442,-0.31442 -0.18673,-1.33774 0.20779,-1.66516 0.86504,-0.71792 2.17529,0.59233 1.45737,1.45737 -0.32742,0.39452 -1.35073,0.52221 -1.66516,0.20779 z m 4.60486,-0.31775 c -0.35362,-0.66075 -0.12472,-1.28865 0.54756,-1.50202 0.71542,-0.22707 1.32837,0.35941 1.23301,1.17976 -0.10433,0.89752 -1.35186,1.1233 -1.78057,0.32226 z"
       style="fill:#000000;stroke-width:0.26458335" />
  </g>
</svg>
