<?xml version="1.0" encoding="UTF-8" standalone="no"?>
<svg
   xmlns:dc="http://purl.org/dc/elements/1.1/"
   xmlns:cc="http://creativecommons.org/ns#"
   xmlns:rdf="http://www.w3.org/1999/02/22-rdf-syntax-ns#"
   xmlns:svg="http://www.w3.org/2000/svg"
   xmlns="http://www.w3.org/2000/svg"
   id="svg8"
   version="1.1"
   viewBox="0 0 9.569603 8.7015038"
   height="8.7015038mm"
   width="9.569603mm">
  <defs
     id="defs2" />
  <metadata
     id="metadata5">
    <rdf:RDF>
      <cc:Work
         rdf:about="">
        <dc:format>image/svg+xml</dc:format>
        <dc:type
           rdf:resource="http://purl.org/dc/dcmitype/StillImage" />
        <dc:title></dc:title>
      </cc:Work>
    </rdf:RDF>
  </metadata>
  <g
     transform="translate(-135.24774,-215.73836)"
     id="layer1">
    <path
       id="path58"
       d="m 137.86059,222.52162 c -2.60783,-2.43373 -3.14,-3.79632 -2.14232,-5.48526 0.80395,-1.36098 2.43438,-1.70812 3.62476,-0.77177 l 0.69714,0.54837 0.69714,-0.54837 c 1.19038,-0.93635 2.82081,-0.58921 3.62476,0.77177 1.00738,1.70536 0.38259,3.25293 -2.271,5.62517 -1.09876,0.98227 -2.03947,1.78251 -2.09047,1.77832 -0.051,-0.004 -1.014,-0.86739 -2.14001,-1.91823 z m 3.94408,-0.12467 c 1.93749,-1.70795 2.52175,-2.62875 2.52175,-3.9743 0,-2.0207 -2.39095,-3.02825 -3.66667,-1.54515 l -0.61958,0.72031 -0.61958,-0.72031 c -0.78589,-0.91364 -2.03219,-0.96734 -2.9276,-0.12615 -1.4522,1.36427 -0.91708,3.18387 1.61833,5.50289 0.98811,0.90377 1.83503,1.64791 1.88204,1.65364 0.047,0.006 0.86211,-0.67419 1.81131,-1.51093 z m -5.46867,-3.91463 c 0,-0.52929 1.17848,-1.70777 1.70777,-1.70777 0.6125,0 0.49353,0.24551 -0.2573,0.53097 -0.36641,0.13931 -0.78019,0.55309 -0.9195,0.9195 -0.28546,0.75083 -0.53097,0.8698 -0.53097,0.2573 z"
       style="fill:#2f2f2f;stroke-width:0.26458332" />
  </g>
</svg>
