<?xml version="1.0" encoding="iso-8859-1"?>
<!-- Generator: Adobe Illustrator 19.0.0, SVG Export Plug-In . SVG Version: 6.00 Build 0)  -->
<svg xmlns="http://www.w3.org/2000/svg" xmlns:xlink="http://www.w3.org/1999/xlink" version="1.1" id="Layer_1" x="0px" y="0px" viewBox="0 0 512 512" style="enable-background:new 0 0 512 512;" xml:space="preserve" width="512px" height="512px">
<g>
	<g>
		<path d="M512,289.456c0-12-3.56-23.784-10.128-33.815c6.64-11.168,10.12-23.784,10.12-36.855    c0-24.024-11.912-46.255-31.599-59.863c2.184-5.8,3.32-11.96,3.32-18.192c0-25.744-18.984-47.215-43.911-51.599    c-1.288-26.104-22.072-47.247-48.311-49.623c-7.824-16.4-24.896-27.368-43.679-27.368c-4.824,0-9.624,0.72-14.2,2.104    c-7.144-8.848-18.096-14.24-29.856-14.24c-21.008,0-38.095,16.8-38.095,37.447v133.926c0,16.304,7.392,31.68,19.6,42.151    c-12.336,11.088-19.6,26.88-19.6,43.775v82.415c0,9.992,2.512,19.672,7.328,28.344c-4.808,8.336-7.328,17.712-7.328,27.448v64.071    c0,28.896,23.92,52.415,53.311,52.415c19.232,0,36.551-10.04,45.975-25.848c6.752,2.952,14.064,4.48,21.6,4.48    c29.064,0,52.775-22.984,53.311-51.423c29.616-8.552,50.327-35.223,50.327-66.319c0-10.816-2.536-21.312-7.384-30.848    C500.824,330.679,512,310.999,512,289.456z M473.905,325.343c-13.032-22.2-39.103-26.72-52.727-27.44    c-2.688-11.088-8.944-21.12-18.12-28.544c-4.048-3.272-10.016-2.712-13.328,1.264c-3.328,3.96-2.752,9.84,1.288,13.096    c8.08,6.544,12.712,16.192,12.712,26.456c0,18.88-15.616,34.239-34.815,34.239c-19.192,0-34.807-15.352-34.807-34.239    c0-8.2,3-16.128,8.424-22.336c0.12-0.144,0.152-0.32,0.264-0.464c2.616-0.384,5.224-0.952,7.8-1.896    c19.896-7.304,30.056-29.152,22.648-48.727c-1.84-4.816-7.28-7.224-12.184-5.472c-4.896,1.8-7.384,7.168-5.568,11.984    c3.776,9.944-1.384,21.064-11.512,24.776c-10.136,3.712-21.432-1.376-25.208-11.32c-1.824-4.816-7.288-7.264-12.176-5.464    c-4.896,1.792-7.392,7.152-5.56,11.976c3.824,10.072,11.6,17.52,20.928,21.472c-4.352,7.768-6.792,16.504-6.792,25.488    c0,29.144,24.112,52.855,53.743,52.855c27.392,0,50.031-20.28,53.295-46.359c11.664,0.952,32.144,5.376,38.327,24.552    c0.28,0.864,0.712,1.624,1.2,2.336c0.048,0.064,0.048,0.152,0.096,0.224c6.152,8.552,9.392,18.616,9.392,29.104    c0,21.16-13.184,39.423-32.471,46.895c-3.032-18.216-15.208-30.056-15.84-30.648c-3.792-3.544-9.776-3.384-13.392,0.344    c-3.6,3.728-3.44,9.624,0.352,13.168c0.128,0.112,12.328,12,10.6,28.312c-0.048,0.408,0.104,0.768,0.112,1.168    c0.008,0.4-0.12,0.776-0.056,1.184c0.248,1.608,0.376,3.248,0.376,4.92c0,18.64-15.424,33.799-34.383,33.799    c-4.608,0-9.048-0.984-13.208-2.696c4.208-11.056,4.952-27.672-8.024-45.415c6.272-10.256,6.136-23.624-1.424-33.919    c-3.072-4.16-9-5.112-13.224-2.088c-4.232,3.008-5.184,8.832-2.128,13c3.992,5.424,2.744,13.048-2.784,16.976    c-5.512,3.928-13.264,2.712-17.272-2.728c-3.08-4.176-9-5.104-13.224-2.088c-4.24,3.016-5.184,8.832-2.128,13    c6.12,8.32,15.712,12.736,25.416,12.736c4.208,0,8.408-0.912,12.392-2.608c11.832,17.352,3.416,29.536,2.24,31.071    c-0.528,0.656-0.784,1.416-1.104,2.152c-0.112,0.256-0.352,0.432-0.44,0.704c-4.632,13.92-17.76,23.272-32.664,23.272    c-18.952,0-34.375-15.168-34.375-33.799v-64.071c0-4.568,0.92-8.976,2.52-13.144c8.432,5.472,21.992,11.72,40.647,11.72    c0.888,0,1.784-0.008,2.688-0.048c5.232-0.168,9.328-4.464,9.152-9.6c-0.168-5.04-4.368-9.008-9.448-9.008    c-0.112,0-0.216,0-0.312,0.008c-0.712,0.016-1.408,0.024-2.088,0.024c-21.696,0-33.871-10.88-36.103-13.08    c-4.592-6.72-7.056-14.536-7.056-22.672v-82.439c0-14.992,8.352-28.736,21.784-35.855c0.224-0.12,0.392-0.304,0.608-0.44    c0.12-0.072,0.264-0.08,0.384-0.16c2.064-1.424,20.784-13.408,40.551,3.144c1.784,1.488,3.968,2.216,6.136,2.216    c2.672,0,5.336-1.112,7.216-3.272c3.384-3.912,2.912-9.792-1.072-13.128c-21.816-18.256-45.295-13.88-58.415-7.32    c-10.56-6.8-17.192-18.536-17.192-31.12V37.451c0-10.384,8.592-18.824,19.16-18.824c6.624,0,12.6,3.544,16.072,9.008    c-1.68,7.584-5.664,18.088-11.464,21.464c-4.504,2.616-5.984,8.328-3.32,12.752c1.768,2.936,4.92,4.56,8.152,4.56    c1.64,0,3.304-0.416,4.816-1.304c12.584-7.328,18.008-23.768,20.072-32.511c3.12-1.088,6.376-1.848,9.728-1.848    c12.528,0,23.76,8.064,27.712,19.68c0.112,5.152-0.216,25.76-11.888,38.607c-4.48,4.944-10.152,8.12-17.12,9.728    c-2.12-9.712-9.088-18.176-19.296-21.68c-4.888-1.688-10.328,0.864-12.056,5.728c-1.72,4.856,0.888,10.152,5.824,11.856    c5.704,1.952,8.728,8.112,6.752,13.712c-1.984,5.616-8.24,8.608-13.944,6.64c-4.968-1.68-10.336,0.872-12.056,5.728    c-1.72,4.856,0.888,10.16,5.824,11.856c3.248,1.112,6.544,1.64,9.8,1.64c11.168,0,21.656-6.24,26.752-16.368    c13.776-1.672,25.208-7.064,33.751-16.52c12.08-13.376,15.464-31.247,16.336-42.551c15.28,3.432,26.744,16.848,26.744,32.896    c0,1.584-0.128,3.152-0.344,4.68c-0.096,0.68,0.136,1.328,0.216,2c-0.656,5.864-3.248,15.944-7.648,18.736    c-4.392,2.792-5.648,8.552-2.808,12.872c1.816,2.752,4.856,4.256,7.96,4.256c1.76,0,3.544-0.48,5.128-1.488    c8.92-5.664,13.024-16.696,14.896-24.816c15.12,3.544,26.44,16.864,26.44,32.799c0,2.84-0.392,5.648-1.104,8.384    c-16.288-7.312-42.743-11.104-70.183,6.648c-8.008-5.128-17.376-7.704-27.04-7.104c-11.832,0.776-22.664,6.024-30.48,14.808    c-3.44,3.864-3.04,9.744,0.896,13.136c3.92,3.376,9.896,3,13.36-0.88c4.472-5.024,10.68-8.048,17.464-8.48    c6.76-0.416,13.352,1.736,18.472,6.152c10.568,9.088,11.632,24.944,2.376,35.343c-3.44,3.864-3.04,9.744,0.896,13.136    c1.792,1.544,4.008,2.304,6.232,2.304c2.632,0,5.248-1.072,7.128-3.184c13.12-14.744,14.128-35.695,4.208-51.567    c30.288-17.464,54.399-0.36,55.527,0.472c0.216,0.16,0.472,0.192,0.696,0.328c0.2,0.128,0.336,0.336,0.552,0.456    c18.056,9.536,29.28,27.976,29.28,48.111c0,7.304-1.608,14.352-4.424,20.968c-7.104-5.808-14.64-8.024-20.424-8.768    c-3.48-14.768-14.512-27.008-29.608-31.76c-4.928-1.544-10.312,1.136-11.896,6.024c-1.584,4.872,1.168,10.12,6.144,11.68    c10.36,3.264,17.464,12.656,17.688,23.352c0.192,9-4.592,17.456-12.472,22.064c-4.496,2.624-5.976,8.336-3.304,12.752    c1.768,2.928,4.92,4.552,8.144,4.552c1.648,0,3.312-0.416,4.832-1.312c10.752-6.28,18.112-16.688,20.68-28.432    c4.24,1.104,9.592,3.88,13.928,10.856c0.144,0.232,0.344,0.4,0.504,0.616c0.096,0.128,0.128,0.28,0.232,0.4    c6.528,7.896,9.984,17.464,9.984,27.656C493.048,303.999,485.712,317.247,473.905,325.343z" fill="#ff5300"/>
	</g>
</g>
<g>
	<g>
		<path d="M246.332,171.377V37.451c0-20.648-17.088-37.447-38.095-37.447c-11.76,0-22.72,5.392-29.856,14.24    c-4.576-1.384-9.376-2.096-14.2-2.096c-18.776,0-35.855,10.96-43.679,27.36c-26.24,2.384-47.023,23.528-48.311,49.623    C47.263,93.515,28.28,114.986,28.28,140.73c0,6.224,1.136,12.392,3.32,18.192C11.912,172.529,0,194.753,0,218.785    c0,13.072,3.48,25.688,10.128,36.863C3.56,265.68,0,277.464,0,289.464c0,21.544,11.176,41.215,29.2,52.583    c-4.856,9.536-7.392,20.024-7.392,30.848c0,31.088,20.712,57.759,50.327,66.319c0.536,28.448,24.256,51.431,53.311,51.431    c7.536,0,14.848-1.528,21.6-4.48c9.424,15.8,26.744,25.832,45.975,25.832c29.392,0,53.311-23.52,53.311-52.415V395.51    c0-9.736-2.512-19.112-7.32-27.448c4.808-8.672,7.32-18.352,7.32-28.344v-82.423c0-16.888-7.264-32.68-19.6-43.775    C238.948,203.057,246.332,187.673,246.332,171.377z M227.404,171.377h-0.008v0c0,12.584-6.632,24.32-17.192,31.12    c-13.12-6.568-36.599-10.944-58.415,7.312c-3.984,3.336-4.456,9.216-1.072,13.128c1.88,2.168,4.536,3.272,7.208,3.272    c2.176,0,4.352-0.728,6.136-2.216c19.768-16.552,38.495-4.576,40.551-3.144c0.12,0.08,0.264,0.088,0.384,0.168    c0.208,0.136,0.376,0.32,0.608,0.44c13.432,7.12,21.784,20.864,21.784,35.855v82.415c0,8.136-2.464,15.952-7.056,22.672    c-2.232,2.2-14.408,13.08-36.103,13.08c-0.688,0-1.376-0.008-2.088-0.024c-0.104-0.008-0.2-0.008-0.312-0.008    c-5.088,0-9.28,3.968-9.448,9.008c-0.176,5.136,3.92,9.432,9.152,9.6c0.904,0.04,1.8,0.048,2.688,0.048    c18.656,0,32.215-6.248,40.647-11.72c1.608,4.168,2.528,8.576,2.528,13.144v64.071c0,18.632-15.424,33.799-34.375,33.799    c-14.904,0-28.032-9.352-32.664-23.272c-0.088-0.272-0.328-0.448-0.44-0.704c-0.32-0.736-0.576-1.496-1.104-2.152    c-1.176-1.536-9.592-13.72,2.24-31.072c3.984,1.696,8.184,2.608,12.392,2.608c9.704,0,19.296-4.416,25.416-12.736    c3.064-4.16,2.12-9.984-2.128-13c-4.224-3.008-10.144-2.08-13.224,2.088c-4,5.44-11.76,6.656-17.272,2.728    c-5.528-3.928-6.776-11.544-2.784-16.976c3.056-4.168,2.112-9.992-2.128-13c-4.224-3.016-10.152-2.072-13.224,2.096    c-7.56,10.288-7.696,23.664-1.424,33.919c-12.976,17.744-12.232,34.359-8.024,45.415c-4.16,1.712-8.6,2.696-13.208,2.696    c-18.96,0-34.383-15.16-34.383-33.799c0-1.672,0.128-3.312,0.376-4.92c0.064-0.408-0.064-0.776-0.056-1.184    c0.008-0.4,0.16-0.76,0.112-1.168c-1.728-16.312,10.464-28.2,10.6-28.312c3.792-3.536,3.952-9.44,0.352-13.16    c-3.616-3.728-9.6-3.888-13.392-0.344c-0.632,0.592-12.808,12.432-15.84,30.648c-19.28-7.472-32.471-25.736-32.471-46.895    c0-10.48,3.248-20.544,9.392-29.096c0.048-0.064,0.048-0.152,0.096-0.224c0.488-0.712,0.92-1.472,1.2-2.336    c6.184-19.176,26.664-23.6,38.327-24.552c3.272,26.088,25.904,46.359,53.295,46.359c29.632,0,53.751-23.712,53.751-52.855    c0-8.984-2.432-17.72-6.792-25.488c9.328-3.944,17.104-11.392,20.928-21.472c1.832-4.816-0.656-10.184-5.56-11.968    c-4.888-1.8-10.352,0.648-12.176,5.464c-3.776,9.944-15.072,15.024-25.208,11.32c-10.12-3.712-15.28-14.824-11.512-24.768    c1.824-4.816-0.664-10.184-5.568-11.984c-4.912-1.752-10.344,0.656-12.184,5.472c-7.416,19.576,2.744,41.423,22.648,48.727    c2.576,0.944,5.184,1.512,7.8,1.896c0.112,0.144,0.144,0.32,0.264,0.464c5.424,6.208,8.424,14.136,8.424,22.336    c0,18.88-15.616,34.239-34.807,34.239c-19.192,0-34.807-15.36-34.807-34.239c0-10.264,4.632-19.912,12.712-26.456    c4.04-3.264,4.616-9.136,1.288-13.096c-3.312-3.976-9.272-4.536-13.328-1.264c-9.176,7.424-15.432,17.456-18.12,28.544    c-13.632,0.72-39.703,5.248-52.727,27.44c-11.808-8.096-19.144-21.344-19.144-35.895c0-10.192,3.456-19.752,9.984-27.656    c0.104-0.12,0.136-0.272,0.232-0.4c0.16-0.216,0.36-0.384,0.504-0.616c4.336-6.984,9.688-9.752,13.928-10.856    c2.568,11.744,9.928,22.144,20.68,28.432c1.52,0.888,3.184,1.312,4.824,1.312c3.224,0,6.376-1.624,8.144-4.552    c2.672-4.416,1.192-10.128-3.304-12.752c-7.88-4.608-12.664-13.064-12.472-22.064c0.232-10.72,7.344-20.112,17.704-23.376    c4.984-1.568,7.728-6.808,6.128-11.696c-1.592-4.888-6.976-7.576-11.896-6.024c-15.096,4.752-26.128,17-29.608,31.759    c-5.784,0.744-13.312,2.96-20.424,8.768c-2.808-6.608-4.424-13.664-4.424-20.96c0-20.136,11.224-38.575,29.28-48.111    c0.216-0.112,0.352-0.328,0.552-0.448c0.224-0.136,0.48-0.168,0.696-0.328c1.128-0.832,25.232-17.936,55.527-0.464    c-9.928,15.872-8.912,36.823,4.208,51.567c1.88,2.112,4.496,3.184,7.128,3.184c2.216,0,4.44-0.752,6.232-2.304    c3.936-3.392,4.336-9.272,0.896-13.136c-9.256-10.4-8.192-26.256,2.376-35.343c5.12-4.416,11.712-6.576,18.472-6.152    c6.784,0.44,12.992,3.456,17.464,8.48c3.472,3.88,9.44,4.256,13.36,0.88c3.936-3.392,4.336-9.272,0.896-13.136    c-7.816-8.784-18.64-14.04-30.471-14.808c-9.672-0.608-19.032,1.976-27.04,7.104c-27.44-17.752-53.895-13.96-70.183-6.648    c-0.712-2.728-1.104-5.544-1.104-8.384c0-15.936,11.32-29.256,26.44-32.799c1.872,8.12,5.984,19.152,14.904,24.816    c1.592,1.008,3.376,1.488,5.128,1.488c3.112,0,6.152-1.504,7.96-4.256c2.84-4.32,1.584-10.08-2.808-12.872    c-4.4-2.792-6.992-12.872-7.648-18.736c0.08-0.672,0.304-1.32,0.216-2c-0.216-1.528-0.344-3.096-0.344-4.68    c0-16.048,11.464-29.456,26.744-32.895c0.872,11.304,4.256,29.184,16.336,42.551c8.544,9.448,19.976,14.84,33.743,16.52    c5.096,10.128,15.584,16.368,26.752,16.368c3.256,0,6.552-0.528,9.8-1.64c4.936-1.688,7.544-7,5.824-11.856    c-1.72-4.856-7.096-7.408-12.056-5.728c-5.704,1.976-11.96-1.016-13.944-6.64c-1.976-5.6,1.048-11.752,6.752-13.712    c4.936-1.704,7.544-7,5.824-11.856c-1.728-4.864-7.168-7.416-12.056-5.728c-10.216,3.504-17.184,11.968-19.304,21.68    c-6.968-1.6-12.64-4.784-17.12-9.728c-11.672-12.848-12-33.455-11.888-38.607c3.952-11.624,15.176-19.68,27.712-19.68    c3.352,0,6.6,0.76,9.728,1.848c2.064,8.736,7.488,25.176,20.072,32.511c1.512,0.88,3.176,1.304,4.816,1.304    c3.24,0,6.392-1.632,8.16-4.568c2.664-4.424,1.184-10.136-3.32-12.752c-5.808-3.376-9.792-13.88-11.472-21.464    c3.472-5.464,9.448-9.008,16.072-9.008c10.568,0,19.16,8.448,19.16,18.824V171.377z" fill="#ff5300"/>
	</g>
</g>
<g>
</g>
<g>
</g>
<g>
</g>
<g>
</g>
<g>
</g>
<g>
</g>
<g>
</g>
<g>
</g>
<g>
</g>
<g>
</g>
<g>
</g>
<g>
</g>
<g>
</g>
<g>
</g>
<g>
</g>
</svg>
