<?xml version="1.0" encoding="iso-8859-1"?>
<!-- Generator: Adobe Illustrator 19.0.0, SVG Export Plug-In . SVG Version: 6.00 Build 0)  -->
<svg xmlns="http://www.w3.org/2000/svg" xmlns:xlink="http://www.w3.org/1999/xlink" version="1.1" id="Capa_1" x="0px" y="0px" viewBox="0 0 398.336 398.336" style="enable-background:new 0 0 398.336 398.336;" xml:space="preserve" width="512px" height="512px">
<g>
	<g>
		<path d="M199.168,0C89.6,0,0,89.088,0,199.168s89.6,199.168,199.168,199.168s199.168-89.088,199.168-199.168    C398.336,89.6,309.248,0,199.168,0z M204.288,62.464c73.216,3.072,131.584,62.976,131.584,136.704    c0,75.264-61.44,136.704-136.704,136.704c-73.728,0-133.632-58.368-136.704-131.072h50.688v-0.512    c2.56,45.056,39.936,80.896,86.016,80.896c47.616,0,86.016-38.912,86.016-86.016c0-46.08-35.84-83.456-80.896-86.016V62.464z     M86.528,122.368c10.752-15.872,25.088-29.696,41.984-39.424c3.072,3.072,7.68,5.12,12.288,5.12    c9.728,0,17.408-7.68,17.408-17.408c0-0.512,0-0.512,0-1.024c11.264-3.584,23.552-5.632,35.84-6.144v50.688    c-20.48,1.024-38.912,9.216-52.736,22.528c-2.048-0.512-3.584-1.024-5.632-1.024c-9.728,0-17.408,7.68-17.408,17.408    c0,4.096,1.536,7.68,3.584,10.24c-4.608,9.728-7.168,20.48-8.192,31.744H62.976c0.512-14.848,3.584-29.184,8.192-42.496    c1.024-0.512,2.048,0,3.072,0c9.728,0,17.408-7.68,17.408-17.408C91.648,130.048,89.6,125.952,86.528,122.368z M148.992,142.336    c12.288-10.752,27.648-17.408,44.544-18.432v55.808c-6.656,2.048-12.288,7.68-13.312,14.848h-56.832    c0.512-9.216,3.072-17.92,6.144-25.6c2.048,0.512,3.584,1.024,5.632,1.024c9.728,0,17.408-7.68,17.408-17.408    C152.576,148.48,151.04,144.896,148.992,142.336z M199.168,216.064c10.24,0,18.944-8.704,18.944-18.944    c0-8.704-5.632-15.872-13.824-17.92v-55.296c39.424,2.56,70.656,35.328,70.656,75.776c0,41.984-34.304,75.776-75.776,75.776    c-39.936,0-73.216-31.232-75.776-71.168h58.368C184.32,211.456,191.488,216.064,199.168,216.064z M194.048,10.752v41.472    c-13.824,0.512-27.136,3.072-39.424,6.656c-3.072-4.096-8.192-7.168-13.824-7.168c-9.728,0-17.408,7.68-17.408,17.408    c0,1.024,0,2.56,0.512,3.584c-18.432,11.264-34.304,26.112-46.08,44.032c-1.024,0-2.048-0.512-3.072-0.512    c-9.728,0-17.408,7.68-17.408,17.408c0,5.12,2.048,9.216,5.12,12.288c-5.632,14.848-8.704,30.72-9.216,47.104H10.752    C13.312,94.208,94.208,13.312,194.048,10.752z M199.168,388.096c-102.4,0-185.856-81.92-188.416-183.808h41.984    C55.808,282.624,120.32,345.6,199.68,345.6c80.896,0,146.944-66.048,146.944-146.944c0-79.36-62.976-143.872-141.824-146.944    V10.24c101.376,3.072,183.296,87.04,183.296,188.928C388.096,303.104,303.616,388.096,199.168,388.096z" fill="#ff5300"/>
	</g>
</g>
<g>
</g>
<g>
</g>
<g>
</g>
<g>
</g>
<g>
</g>
<g>
</g>
<g>
</g>
<g>
</g>
<g>
</g>
<g>
</g>
<g>
</g>
<g>
</g>
<g>
</g>
<g>
</g>
<g>
</g>
</svg>
