<?xml version="1.0" encoding="UTF-8" standalone="no"?>
<!-- Created with Inkscape (http://www.inkscape.org/) -->

<svg
   xmlns:dc="http://purl.org/dc/elements/1.1/"
   xmlns:cc="http://creativecommons.org/ns#"
   xmlns:rdf="http://www.w3.org/1999/02/22-rdf-syntax-ns#"
   xmlns:svg="http://www.w3.org/2000/svg"
   xmlns="http://www.w3.org/2000/svg"
   xmlns:sodipodi="http://sodipodi.sourceforge.net/DTD/sodipodi-0.dtd"
   xmlns:inkscape="http://www.inkscape.org/namespaces/inkscape"
   version="1.1"
   id="svg2"
   xml:space="preserve"
   width="45.354134"
   height="45.354267"
   viewBox="0 0 45.354134 45.354267"
   sodipodi:docname="skype.svg"
   inkscape:version="0.92.1 r15371"><metadata
     id="metadata8"><rdf:RDF><cc:Work
         rdf:about=""><dc:format>image/svg+xml</dc:format><dc:type
           rdf:resource="http://purl.org/dc/dcmitype/StillImage" /><dc:title></dc:title></cc:Work></rdf:RDF></metadata><defs
     id="defs6"><clipPath
       clipPathUnits="userSpaceOnUse"
       id="clipPath18"><path
         d="M 0,34.016 H 34.016 V 0 H 0 Z"
         id="path16"
         inkscape:connector-curvature="0" /></clipPath></defs><sodipodi:namedview
     pagecolor="#ffffff"
     bordercolor="#666666"
     borderopacity="1"
     objecttolerance="10"
     gridtolerance="10"
     guidetolerance="10"
     inkscape:pageopacity="0"
     inkscape:pageshadow="2"
     inkscape:window-width="1366"
     inkscape:window-height="715"
     id="namedview4"
     showgrid="false"
     inkscape:zoom="5.2034795"
     inkscape:cx="22.677067"
     inkscape:cy="22.677134"
     inkscape:window-x="-8"
     inkscape:window-y="-8"
     inkscape:window-maximized="1"
     inkscape:current-layer="g10" /><g
     id="g10"
     inkscape:groupmode="layer"
     inkscape:label="Векторный смарт-объект1"
     transform="matrix(1.3333333,0,0,-1.3333333,0,45.354267)"><g
       id="g12"><g
         id="g14"
         clip-path="url(#clipPath18)"><g
           id="g20"
           transform="translate(20.583,17.2447)"><path
             d="M 0,0 C -0.381,0.248 -0.848,0.46 -1.388,0.634 -1.921,0.805 -2.525,0.962 -3.182,1.104 -3.7,1.224 -4.079,1.316 -4.304,1.379 -4.523,1.439 -4.744,1.524 -4.957,1.632 -5.162,1.735 -5.325,1.857 -5.44,2 c -0.109,0.132 -0.163,0.286 -0.163,0.471 0,0.302 0.165,0.556 0.503,0.777 0.351,0.231 0.825,0.348 1.406,0.348 0.626,0 1.082,-0.105 1.355,-0.313 0.28,-0.213 0.525,-0.516 0.728,-0.9 0.174,-0.301 0.332,-0.511 0.484,-0.646 0.163,-0.143 0.398,-0.217 0.698,-0.217 0.331,0 0.611,0.117 0.833,0.348 0.221,0.23 0.333,0.493 0.333,0.783 0,0.302 -0.085,0.613 -0.253,0.926 C 0.317,3.887 0.051,4.184 -0.305,4.463 -0.66,4.74 -1.11,4.965 -1.645,5.131 -2.177,5.295 -2.814,5.38 -3.538,5.38 -4.444,5.38 -5.245,5.253 -5.918,5.004 -6.6,4.753 -7.13,4.385 -7.493,3.912 -7.858,3.436 -8.044,2.883 -8.044,2.271 c 0,-0.644 0.177,-1.19 0.525,-1.627 0.343,-0.428 0.812,-0.772 1.394,-1.019 0.569,-0.242 1.284,-0.456 2.126,-0.636 0.619,-0.13 1.12,-0.255 1.488,-0.369 0.354,-0.111 0.645,-0.271 0.866,-0.477 0.21,-0.199 0.313,-0.45 0.313,-0.77 0,-0.405 -0.196,-0.737 -0.6,-1.012 -0.414,-0.283 -0.964,-0.426 -1.634,-0.426 -0.488,0 -0.885,0.071 -1.179,0.21 -0.292,0.138 -0.521,0.315 -0.68,0.527 -0.165,0.218 -0.322,0.495 -0.466,0.825 -0.129,0.302 -0.289,0.537 -0.475,0.696 -0.196,0.164 -0.436,0.247 -0.715,0.247 -0.34,0 -0.625,-0.105 -0.847,-0.315 -0.224,-0.211 -0.338,-0.468 -0.338,-0.765 0,-0.476 0.175,-0.969 0.519,-1.466 0.342,-0.493 0.79,-0.891 1.336,-1.185 0.763,-0.404 1.739,-0.609 2.905,-0.609 0.97,0 1.823,0.15 2.534,0.445 0.719,0.299 1.274,0.72 1.648,1.251 0.377,0.532 0.568,1.142 0.568,1.809 0,0.559 -0.111,1.04 -0.33,1.43 C 0.696,-0.577 0.388,-0.253 0,0"
             style="fill:#1d95d3;fill-opacity:1;fill-rule:nonzero;stroke:none"
             id="path22"
             inkscape:connector-curvature="0" /></g><g
           id="g24"
           transform="translate(20.8081,8.3828)"><path
             d="M 0,0 C -0.805,0 -1.561,0.202 -2.224,0.558 -2.706,0.469 -3.202,0.422 -3.71,0.422 c -4.48,0 -8.111,3.632 -8.111,8.113 0,0.558 0.056,1.104 0.164,1.631 -0.41,0.698 -0.647,1.511 -0.647,2.379 0,2.599 2.106,4.705 4.705,4.705 0.92,0 1.778,-0.266 2.502,-0.723 0.452,0.078 0.915,0.119 1.387,0.119 4.481,0 8.112,-3.632 8.112,-8.111 C 4.402,7.937 4.338,7.355 4.215,6.793 4.528,6.164 4.704,5.455 4.704,4.705 4.704,2.106 2.598,0 0,0 m -3.8,25.633 c -9.395,0 -17.008,-7.615 -17.008,-17.008 0,-9.393 7.613,-17.008 17.008,-17.008 9.393,0 17.007,7.615 17.007,17.008 0,9.393 -7.614,17.008 -17.007,17.008"
             style="fill:#1d95d3;fill-opacity:1;fill-rule:nonzero;stroke:none"
             id="path26"
             inkscape:connector-curvature="0" /></g></g></g></g></svg>