<svg xmlns="http://www.w3.org/2000/svg" width="204" height="143" viewBox="0 0 204 143"><path fill="#e6b000" d="M109.77 21.53c-1.52.69-.51 2.11-.26 1.68.34-.59-.13-.48.31-.89.35-.34 1.08-.2 1.44-.49.46-.39.49-1.21.19-1.56 1.53-.17 1.6-1.26 1.99-2.2l.06.17c.24-.59.44-1.21.59-1.85-.21.06-.42-.03-.58-.28-.13-.19-.19-.42-.27-.59.97-.18 1.13-.77 1.21-1.39a17.38 17.38 0 0 0 .01-1.84c-.38.24-.73.53-1.04.85a2.26 2.26 0 0 0-.62 2.08c.23 1.06.05 2-.75 2.78-.73.72-.87 1.57-.69 2.53.18.96-.54.53-1.59 1zM101.29 0c4.39 0 8.28 2.13 10.7 5.41-.24-.07-.51-.18-.63-.09-.45.33-.28.82-.13 1.43.05-1.01.21-1.2.89-1.16a13 13 0 0 1 1.61 3.04c-.32.23-.17.79-.17 1.19 0 .02.05.03.08.04.12-.21.24-.35.35-.42a13.1 13.1 0 0 1 .59 3.85A13.29 13.29 0 1 1 101.29 0zM91.15 21.47l.23.29c.12-.4.34-.69.72-.9.55-.3 1.1-.19 1.78.11-.77-.74-1.48-.86-2.13-.44-.35.22-.56.54-.6.94zm17.65 2.72c.08-.5-.13-.87-.6-.92-.65-.07-1.13.3-1.51.77-.34.42-.53.89-.36 1.46l.36-.15c.44-.51.91-.9 1.6-.82l.51-.34zm1.16-13.53c-.38-.39-.78-.55-1.25-.27-.56.32-.77 1.13-.5 1.85.25-1.36.6-1.68 1.75-1.58zm-4.8 5.36a1.41 1.41 0 0 0-1.78-.34c-.71.39-1.12 1.43-.73 2.12.23-1.56 1.04-2.11 2.51-1.78zm-8.96 4.61c-.63.44-.83 1.23-.47 1.84.13-1.43 1.04-1.98 2.59-1.57a1.56 1.56 0 0 0-2.12-.27zm4.68-.26a1.56 1.56 0 0 0-.67 1.93c.59-1.63 1.19-2.02 2.66-1.66a1.47 1.47 0 0 0-1.99-.27zm10.87-10.89c-.52.08-.77.74-.61 1.65.59-.97.93-1.01 1.79-.16-.13-.97-.63-1.57-1.18-1.49zm.66 5.93c-.05-.23-.05-.44-.15-.57-.21-.27-.46-.67-.73-.7-.3-.02-.72.25-.93.51-.38.47-.4 1.06-.27 1.7.62-1.39 1.09-1.61 2.08-.94zm-3.69 5.85c.63-1.35 1.19-1.69 2.2-1.3.01-.83-.42-1.27-1.03-1.11-.9.23-1.54 1.54-1.17 2.41zm.7-5c-.05-.57-.18-1.05-.71-1.3-.48-.22-.91-.09-1.29.24-.52.45-.7 1.1-.5 1.81.76-1.33 1.48-1.56 2.5-.75zm-2.05 4.59c.03-.62-.19-1.04-.73-1.21-.66-.2-1.2.08-1.63.56-.43.49-.63 1.04-.44 1.61.39-.37.74-.8 1.18-1.1.51-.35 1.08-.19 1.62.14zM96 24.69a1.75 1.75 0 0 0-1.51-.24c.62.38 1.29.71 1.98.98-.05-.28-.2-.53-.47-.74zm8.59-.67c-.51-.27-1.3-.12-1.85.36a1.44 1.44 0 0 0-.43 1.73c.72-.91 1.56-1.33 2.65-.76.18-.7.07-1.1-.37-1.33zm-3.89 1.89c.24-.6.14-1.07-.32-1.4-.53-.37-1.47-.29-2.02.17-.4.34-.56.78-.46 1.22l.39.1c.87-.65 1.34-.65 2.41-.09zM95.6 76.8a215.94 215.94 0 0 0-4.67-8.87l-.38-.68-.03-.06-.03-.05-.03-.06-.13-.22-.06-.12-.03-.05-.04-.06-.03-.06-.09-.16-.04-.06-.03-.06-.03-.05-.03-.06-.03-.05-.04-.06-.05-.1-.01-.01-.03-.06-.03-.05-.04-.06-.06-.11-.03-.06-.07-.11-.03-.05-.03-.06-.13-.22-.03-.06-.02-.02-.01-.03-.04-.06a147.98 147.98 0 0 0-6.39-10.07 129.92 129.92 0 0 0-14-16.91c1.3-.64 2.7-1.41 4.03-2.17 2.21 2.63 4.5 5.61 6.8 8.86a178.97 178.97 0 0 1 10.33 16.47l.04.06.2.35.06.12.07.12.06.12.17.3.06.12.06.1.24.44.03.06.06.13.04.06.23.42.12.24.22.41.01.01.03.07.04.06.06.12.23.42a178.2 178.2 0 0 1 4.96 10.21 193 193 0 0 1 2.79-7.68c.5 1.11.98 2.23 1.46 3.37-.82 1.96-1.6 3.95-2.36 5.98zM61.73 27.96l.01-.01.04-.06h.01l.04-.06.02-.02.03-.04.07-.07.05-.06.05-.05.01-.02.11-.11.02-.03.09-.09.03-.02.03-.03v-.01l.05-.05h.01l.06-.05v-.01l.04-.03v-.01l.03-.02.04-.04.06-.05.01-.01.03-.02.02-.02h.01l.01-.01.05-.04v-.01l.04-.03.02-.01.02-.02.02-.01.02-.02.02-.01.05-.05.02-.01.02-.02H63l.02-.02.02-.01.01-.01.02-.01.02-.02.04-.03h.01l.02-.02.02-.01.01-.01h.01l.03-.03.02-.01h.01l.02-.01.01-.01.02-.01.02-.02h.01l.02-.02.02-.01.01-.01.03-.02.02-.01.01-.01h.02c1.1-.68 2.39-1.07 3.77-1.36 3.56-.74 10.07 1.51 10.09 1.52l.04.01.06.01c1.2.18 2.61 1 4.17 2.36l-.45.29a8.35 8.35 0 0 0-2.69 3.09l-.32-.36-.31-.35-.39.25-.03.01a181.5 181.5 0 0 1-5.22 3.12l-.07.04-.32.18-.07.04-.06.03-.07.04-.04.02-.02.02-.07.04-.07.03-.13.07-.06.04-.07.04-.19.11-.07.03-.05.03-.01.01-.07.03-.06.04-.07.04-.06.03-.07.04-.07.03-.06.04-.07.03-.06.04-.07.03-.13.07-.06.04-.07.03-.13.07-.06.04-.13.07-.06.03-.07.03-.06.04-.06.03-.07.03-.06.04-.13.06-.06.03-.07.04h-.01l-.05.03-.06.03-.07.03-.06.04-.12.06-.07.03-.24.12c-1.72.85-3.23 1.46-4.11 1.52-.24.01-.48 0-.72-.04a4.1 4.1 0 0 1-2.44-1.54 5.68 5.68 0 0 1-1.11-4.37c.16-.96.38-1.8.65-2.52l.02-.07.03-.06.02-.06.03-.07.02-.06.03-.06v-.01l.03-.08.01-.01.03-.06v-.02l.01-.01.02-.05.06-.12v-.01l.02-.05.01-.01.05-.1v-.01l.03-.05.02-.04v-.01l.03-.06.01-.01.02-.04.01-.01.02-.05.03-.05.01-.02.01-.01.03-.06v-.01l.01-.01a.64.64 0 0 0 .08-.14h.01v-.01l.03-.05.01-.02.02-.03.03-.05h.01l.03-.05v-.01l.02-.03.01-.01.06-.1.04-.04.06-.1.02-.02v-.01l.04-.05.02-.02.09-.12zm.78-2.24a8.38 8.38 0 0 0-2.87 3.68l-.66-.56-.35-.3-.36.3-.02.01c-2.76 2.29-9.69 8.04-12.17 8.56-.24.05-.48.07-.72.07a4.08 4.08 0 0 1-2.63-1.19A5.52 5.52 0 0 1 41 32.13c.07-2.83.77-4.67 1.88-5.95 1.1-1.28 2.63-2.02 4.34-2.64 3.41-1.25 10.17.06 10.19.06l.05.01h.05c1.34.01 3.04.75 5 2.11zm42.32 51.08c-.94-2.52-1.92-4.98-2.95-7.4l-.03-.06-.04-.11-.03-.05-.04-.1-.02-.06-.03-.05-.02-.05-.02-.06-.03-.05-.04-.11-.02-.05-.03-.05-.02-.06-.02-.05-.03-.05-.02-.06-.02-.05-.03-.05-.02-.05-.02-.06-.02-.05-.03-.05-.02-.06-.02-.05-.03-.05-.09-.21-.02-.06-.03-.05-.04-.1-.1-.21-.02-.06-.02-.05-.03-.05-.02-.06-.02-.05-.03-.05-.09-.21-.03-.05-.02-.06-.02-.05-.03-.05-.02-.05-.1-.22-.04-.1-.03-.05-.02-.05-.02-.06a150.5 150.5 0 0 0-4.73-9.42l-1.22-2.17-.04-.06-.3-.52-.04-.07-.04-.06-.12-.2-.03-.07-.04-.06-.12-.2-.04-.06-.11-.2-.04-.06-.04-.07-.12-.19-.04-.07-.04-.06-.03-.07c-2.12-3.5-4.43-6.97-7-10.44a69.28 69.28 0 0 0 4.3-1.65c1.5 2.38 3.03 5 4.54 7.83l.06.12.03.03.1.2.02.03.08.16.02.03v.01l.02.04.02.03.12.24.02.03.01.01.02.03.06.12v.01l.02.03.06.12.01.03.01.01.02.04.02.03.04.08.01.01.01.03.06.12.02.03v.01l.04.08.03.04.04.08.02.03.04.08.01.03.01.01.26.52.02.03.02.04.21.4.01.04.02.03.02.04.02.03.01.04.02.03.19.38.02.03.07.14.22.45.02.03.02.04.01.03.02.04.02.03.02.04.01.03.11.21.01.04.02.03c1.5 3.04 2.98 6.26 4.39 9.6l.02.05.03.06.09.23.02.05.03.06.02.05.07.17.03.06.02.06.09.22.03.06.02.05.02.06.05.11.02.06.03.06.02.05.05.12.02.05.02.06.03.06.11.28.03.06.02.05.02.06.03.06.02.05.04.12.03.06.09.22.02.06.03.06.02.06.02.05.03.06.18.46.02.06.02.05c1.19 2.97 2.31 6.02 3.36 9.12l.02.04.05.17.02.04.01.05.1.3.02.04.01.04.02.04.05.18.02.04.01.04.02.04.08.26.01.04.02.05.01.04.07.21.02.05zm10.88 0c-.84-2.87-1.75-5.7-2.76-8.49l-.72-1.98-.17-.42-.01-.05-.01-.02-.01-.03-.02-.04-.14-.38-.02-.04-.02-.05a128.93 128.93 0 0 0-3.74-8.71l-.05-.12-.03-.05-.09-.18-.02-.06-.09-.18-.03-.05-.03-.06-.02-.06-.09-.18-.05-.11-.18-.36-.05-.11-.09-.18-.09-.17-.03-.06-.05-.12-.03-.06-.09-.17-.18-.36-.02-.05-.18-.36-.03-.05-.18-.36-.03-.05a139.21 139.21 0 0 0-4.48-8.07l-.05-.07-.12-.21-.05-.07-.04-.07-.04-.08-.05-.07-.08-.14-.05-.07-.04-.07-.09-.14-.04-.07-.09-.14-.04-.07-.04-.08-.05-.07-.04-.07-.05-.07-.08-.14-.05-.07-.04-.07-.09-.15-.04-.07-.01-.01-.07-.12-.01-.01-.05-.07-.13-.21-.05-.07-.08-.14-.01-.01-.04-.07-.19-.29-.08-.14-.05-.07-.18-.28-.04-.07h-.01l-.04-.08-.23-.35-.04-.06-.01-.01-.04-.08-.05-.07-.14-.21-.05-.07c-.76-1.18-1.56-2.37-2.38-3.56l-.27-.38-.42.19-.02.02c-1.38.63-3.64 1.66-5.98 2.64l-.21.09-.04.01-.03.01-.21.09-.01.01-.06.02-.14.06-.07.02v.01l-.14.05-.07.03-.05.02-.03.01v.01l-.14.05-.07.03h-.02l-.05.02-.14.06-.06.03h-.01l-.07.03-.07.02-.07.03-.04.02-.03.01-.07.03-.07.02-.07.03-.02.01-.05.02-.07.02-.14.06-.07.02-.06.03-.07.03-.05.02h-.02l-.07.03-.07.02-.14.06-.06.02-.07.03h-.01l-.13.05-.07.02-.01.01-.12.04-.07.02-.06.03-.07.02-.07.03-.06.02-.07.02-.07.03-.06.02-.07.02-.06.02-.12.05h-.01l-.07.02-.12.04-.07.03c-1.53.51-2.83.83-3.61.78a2.85 2.85 0 0 1-.71-.12A4.04 4.04 0 0 1 79 39.89a5.62 5.62 0 0 1-.58-4.47c.24-.82.52-1.55.82-2.18l.01-.01.02-.06.04-.06.03-.06v-.02l.1-.18.04-.07.03-.06.04-.06.03-.05.01-.03.03-.04.03-.06a.75.75 0 0 0 .07-.12l.04-.06.18-.28.04-.05v-.01l.04-.05.14-.2.02-.02.03-.04.04-.05.03-.05h.01l.03-.04v-.01l.08-.1.02-.01.02-.03.04-.04v-.01l.04-.05.04-.04h.01l.03-.05.05-.05.04-.03.04-.05.24-.24.02-.01.09-.09.05-.04.06-.06.04-.03.03-.02v-.01l.04-.03.02-.01v-.01l.01-.01.05-.03v-.01l.03-.02.04-.03.05-.04h.01v-.01l.06-.04.02-.01.04-.03.01-.01.04-.03.02-.01.02-.02.05-.03.01-.01h.01l.03-.02.02-.02.06-.04.01-.01.05-.02.02-.02.05-.03.01-.01.04-.02.01-.01h.02l.04-.03.01-.01h.01l.01-.01h.01l.02-.02h.01l.01-.01h.02l.02-.02.03-.01v-.01h.01l.01-.01h.01l.01-.01h.01l.02-.01.01-.01h.01l.01-.01.02-.01.01-.01h.01l.01-.01c1.25-.64 2.68-.89 4.2-1.02 3.62-.32 9.81 2.7 9.83 2.71l.04.02.05.01c1.61.44 3.47 2.13 5.44 4.8l.04.06.2.27.06.09.01.02.17.23.04.06.05.06.17.26.05.06.04.07.14.2.04.06.04.07.18.27.05.07.04.07.18.27.04.07.05.07v.01l.17.27.12.18.11.19.15.24.11.18.14.24.12.2.15.24a88.64 88.64 0 0 1 4.02 7.85l.03.07.14.32.04.08.08.19.19.42.04.09.03.06.17.4.03.06.06.14.21.47.02.06.03.07.17.4.09.21.2.48.04.09.22.52.02.05.01.02a184.37 184.37 0 0 1 3.26 8.67l.06.15.1.3.02.05.01.05.02.05.02.06.02.05.01.05.12.35.04.1.02.06.01.05.02.05.12.36.02.05.01.05.04.1.01.05.02.05.12.36v.01l.02.05.01.05.06.15.1.31.01.06.04.1.01.05.02.05.02.06a186.7 186.7 0 0 1 3.54 12.45zm-25.27-7.48c-.87 2.46-1.66 4.96-2.4 7.48h-2.7c.94-3.79 1.98-7.49 3.09-11.03.68 1.16 1.35 2.35 2.01 3.55zm4.64-11.49c-.88 1.91-1.7 3.82-2.48 5.75-.7-1.32-1.41-2.62-2.14-3.9a237.16 237.16 0 0 1 2.26-6c.82 1.38 1.6 2.76 2.36 4.15zm6.15-11.74c-1.09 1.85-2.12 3.7-3.09 5.54l-.75-1.49c-.57-1.11-1.14-2.19-1.72-3.25a88 88 0 0 1 2.74-5.35 119.8 119.8 0 0 1 2.82 4.55zm1.31-10.86c1.67-2.07 3.25-3.38 4.64-3.76l.05-.01.04-.02c.02-.01 6.21-3.03 9.83-2.71 1.52.13 2.95.38 4.2 1.02l.01.01.02.01.01.01h.01l.01.01.04.02h.01l.01.01h.01l.01.01.02.01.01.01h.01l.02.02h.01l.02.01h.01l.02.02h.01l.02.02h.01l.01.01h.01l.02.02h.02l.02.02.02.01h.01l.02.02h.01l.02.02h.01l.02.02.05.02.02.02h.01l.04.03.02.02.03.02h.01l.01.01.05.03.02.02.02.01.04.03.01.01.04.03.02.01.06.04v.01h.01l.05.04.04.03.03.02.02.02.04.03v.01l.02.01.04.03v.01l.03.02.04.03.04.04.02.01.11.11h.01l.06.06.02.01.04.05.04.04h.01l.03.03v.01l.12.12v.01l.04.03.05.05.03.04.05.05.04.05v.01l.04.04.02.03.02.01.08.1.01.02.03.03.03.05.08.1.03.04.01.01.04.05v.01l.03.04.01.01.03.04v.01l.04.05v.01l.04.05.01.01.03.04.03.06.04.05.01.03.03.03v.02l.03.04.04.06.01.01.01.02.03.05.05.1.01.01.04.07.01.01.01.03.04.06.03.06.01.01.02.05.02.02.02.05.04.07.01.02v.01l.05.1.04.06v.02l.03.05c.3.63.58 1.36.82 2.18a5.62 5.62 0 0 1-.58 4.47 4.04 4.04 0 0 1-2.24 1.82c-.23.07-.47.11-.71.12-.78.05-2.08-.27-3.61-.78l-.07-.03-.12-.04-.07-.02-.06-.02-.07-.03-.06-.02-.07-.02-.06-.02-.07-.03-.07-.02-.06-.02-.07-.03-.07-.02-.06-.03-.14-.04-.06-.03-.07-.02-.14-.05-.06-.03-.21-.08-.07-.02-.07-.03h-.02l-.05-.02-.07-.03-.06-.03-.14-.05-.07-.03-.07-.02-.14-.06-.07-.02-.21-.09-.07-.02a7.38 7.38 0 0 0-.42-.17l-.28-.12-.08-.02-.01-.01-.12-.05h-.01l-.42-.18-.14-.05-.07-.03c-2.36-.99-4.65-2.04-6.05-2.67l-.02-.02-.43-.19-.26.38c-.59.86-1.17 1.72-1.73 2.57a46.46 46.46 0 0 0-2.84-4.24zm4.9 22.56a139.65 139.65 0 0 0-3.44 6.85c-.5-1.24-1.01-2.46-1.52-3.66 1.02-2.38 2.08-4.68 3.15-6.9a126.4 126.4 0 0 1 1.81 3.71zm10.06-15.83a135.52 135.52 0 0 0-6.29 9.28c-.63-1.49-1.26-2.93-1.9-4.3 1.3-2.37 2.6-4.59 3.89-6.63 1.44.6 2.94 1.19 4.3 1.65zm4.65-13c1.56-1.36 2.97-2.18 4.17-2.36l.06-.01.04-.01c.02-.01 6.53-2.26 10.09-1.52 1.39.3 2.69.68 3.8 1.37l.02.01.01.01.03.02.02.01.01.01.03.02.01.01.02.01.01.01.02.01.01.01h.02l.02.02.02.01.01.01.02.01.01.01.02.01.02.02.02.01.02.02h.01l.02.02.02.01.02.02h.01l.02.02.02.01.05.05.02.01.02.02.03.02.01.01h.01l.02.02.02.01.01.01v.01h.01l.02.01.02.03.02.01.02.02.03.02.01.01.06.05.04.04.03.02v.01l.04.03v.01l.12.1v.01l.05.04.12.12v.01l.11.11.01.02.08.08.02.03.08.08.01.02.03.03.06.08.01.01.06.08.04.04.01.02.02.03.04.05a10.56 10.56 0 0 1 1.72 4.55 5.68 5.68 0 0 1-1.12 4.37 4.1 4.1 0 0 1-2.44 1.54c-.24.04-.48.05-.72.04-.85-.06-2.28-.63-3.92-1.43l-.06-.03-.05-.02-.01-.01-.07-.03-.24-.12-.07-.03-.12-.06-.13-.07-.06-.03h-.01l-.05-.03-.13-.07-.05-.03h-.01l-.07-.03-.06-.04-.06-.03-.01-.01-.06-.02-.06-.04-.07-.03-.06-.03-.03-.02-.1-.05-.06-.04-.13-.07-.07-.03-.06-.04-.06-.03h-.01l-.06-.04-.07-.03-.06-.04-.07-.03-.06-.04-.07-.03-.06-.04-.07-.03-.07-.04-.06-.04-.07-.03-.06-.04-.07-.03-.06-.04-.13-.07-.07-.04-.06-.04-.13-.07-.07-.03-.13-.08-.07-.04-.06-.03-.07-.04-.01-.01-.05-.03-.07-.03-.06-.04-.13-.07-.06-.04a170.95 170.95 0 0 1-5.23-3.12l-.03-.01-.39-.25-.31.35-.32.36a8.35 8.35 0 0 0-2.69-3.09l-.45-.29zm-10.04 40.26a212.8 212.8 0 0 0-3.78 7.24c-.31-.94-.62-1.87-.95-2.8 1.16-2.51 2.37-5 3.63-7.43.31.81.61 1.63.9 2.45l.2.54zm22.76-31.19a129.92 129.92 0 0 0-14 16.91 143.01 143.01 0 0 0-5.25 8.14c-.37-1.12-.74-2.22-1.12-3.3 3.07-5.41 6.31-10.5 9.54-15.06 2.3-3.25 4.59-6.23 6.8-8.86 1.33.76 2.73 1.53 4.03 2.17zm7.03-11.8c.89.78 1.64 1.8 2.21 3.17l.66-.56.35-.3.36.3.02.01c2.76 2.29 9.69 8.04 12.17 8.56.24.05.48.07.72.07a4.1 4.1 0 0 0 2.64-1.19 5.57 5.57 0 0 0 1.72-4.16c-.07-2.83-.77-4.67-1.87-5.95-1.11-1.28-2.64-2.02-4.35-2.64-3.41-1.25-10.17.06-10.19.06l-.05.01h-.05c-1.34.01-3.04.75-5 2.11.23.16.45.33.66.51zM73.63 80.72h55.58c.9 0 1.63-1.22 1.63-2.72H72c0 1.5.73 2.72 1.63 2.72"/><path fill="#fff" d="M26.71 97.02c-.03.15-1.06.31-3.05.49v20.55c1.99.18 3.02.34 3.05.49v2.02H16.09v-2.02c.14-.18 1.01-.34 2.62-.49V97.31H7.99v20.75c1.61.15 2.48.31 2.62.49v2.02H0v-2.02c.03-.15 1.05-.31 3.04-.49V97.51c-1.99-.18-3.01-.34-3.04-.49V95h26.71zM37.78 108.61v9.28l8.22.32 1.74-3.05h1.9l-1.05 5.41H29v-2.02c.54-.15 1.81-.31 3.8-.49V97.43a24.7 24.7 0 0 1-3.8-.51V95h19.34l1.04 5.4h-1.9l-1.73-3.04-7.97.32v8.88h6.27c.12-.68.25-1.2.39-1.55.06-.19.11-.27.14-.27h1.17v5.6h-1.17a7.02 7.02 0 0 1-.53-1.83zM76.7 100.43h-2.16l-1.5-3.29-6.19.54v20.38c1.96.18 3.22.34 3.78.49v2.02H58.07v-2.02c.55-.15 1.81-.31 3.75-.49V97.68l-6.17-.54-1.49 3.29H52L53.24 95h22.42zM87.78 108.61v9.28l8.22.32 1.74-3.05h1.9l-1.05 5.41H79v-2.02c.54-.15 1.81-.31 3.8-.49V97.43a24.7 24.7 0 0 1-3.8-.51V95h19.34l1.04 5.4h-1.9l-1.73-3.04-7.97.32v8.88h6.27c.12-.68.25-1.2.38-1.55.07-.19.12-.27.15-.27h1.17v5.6h-1.17a7.02 7.02 0 0 1-.53-1.83zM116.51 106.2c.76-.83 1.14-2.15 1.14-3.97 0-1.35-.4-2.49-1.22-3.43a4.87 4.87 0 0 0-3.27-1.59c-.55-.04-1.05-.07-1.53-.07h-.35c-.64 0-1.34.05-2.11.15V107c.66.44 1.57.66 2.71.66 2.19 0 3.73-.48 4.63-1.46zm-4.34 3.94c-1.06 0-2.07-.1-3-.29v8.21c2.29.18 3.49.35 3.63.51v2H101v-2c.13-.16 1.2-.33 3.2-.51V97.51c-2-.18-3.07-.35-3.2-.52V95h13.17c2.78 0 4.85.69 6.2 2.07 1.25 1.25 1.88 3.03 1.88 5.33 0 2.47-.94 4.44-2.8 5.92-1.57 1.1-3.63 1.7-6.16 1.8-.39.02-.76.02-1.12.02zM145.38 100.4h-1.9l-1.73-3.28-7.97.58v20.36c2 .18 3.27.34 3.81.49v2.02H125v-2.02c.54-.15 1.81-.31 3.8-.49V97.43a24.7 24.7 0 0 1-3.8-.51V95h19.34zM158.17 117.66c2.01-.05 3.69-1.13 5.03-3.2a12.24 12.24 0 0 0 1.88-6.83V107c-.12-3.03-.93-5.54-2.44-7.52-1.47-1.93-3.18-2.9-5.1-2.9h-.21c-2.01.06-3.68 1.14-5.02 3.21a12.85 12.85 0 0 0-1.86 7.04v.66c.11 2.88.91 5.3 2.42 7.28 1.47 1.93 3.17 2.89 5.1 2.89zm8.56-20.11a12.92 12.92 0 0 1 3.78 9.45c0 3.59-1.26 6.74-3.78 9.45a12.15 12.15 0 0 1-8.96 3.8c-3.49 0-6.49-1.19-8.99-3.56a12.58 12.58 0 0 1-3.78-9.18c0-3.76 1.26-7 3.78-9.71 2.5-2.54 5.5-3.8 8.99-3.8 3.47 0 6.45 1.18 8.96 3.55zM186.04 113.4c-.66.43-1.41.64-2.25.64h-.18a5 5 0 0 1-3.71-2.04c-1.23-1.51-1.85-3.63-1.85-6.36 0-2.71.68-4.87 2.03-6.48.96-1.13 1.99-1.7 3.09-1.7.38 0 .76.06 1.15.19.64.14 1.22.31 1.72.53zm4.73-15.22a9.29 9.29 0 0 1 1.73-.53c.39-.13.76-.19 1.14-.19 1.1 0 2.13.57 3.1 1.7 1.35 1.61 2.03 3.77 2.03 6.48 0 2.73-.62 4.85-1.86 6.36a5.18 5.18 0 0 1-3.96 2.04h-.15c-.69 0-1.37-.21-2.03-.64zm2.44 17.78c3.02 0 5.49-.82 7.38-2.46 2.15-1.84 3.23-4.44 3.23-7.79 0-3.5-1.01-6.21-3.02-8.13a7.7 7.7 0 0 0-5.48-2.21 10.6 10.6 0 0 0-4.55 1.06v-2.16c1.32-.18 1.99-.35 2.01-.52V92h-8.76v1.75c.42.19 1.1.35 2.02.52v2.16a10.5 10.5 0 0 0-4.54-1.06c-2.1 0-3.92.73-5.48 2.21-2.01 1.92-3.02 4.63-3.02 8.13 0 3.35 1.07 5.95 3.22 7.79 1.89 1.64 4.36 2.46 7.39 2.46.92 0 1.72-.09 2.43-.26v1.94c-1.6.17-2.61.33-3.04.52v1.99h10.79v-1.99c-.02-.17-1.02-.34-3.02-.52v-1.94c.71.17 1.52.26 2.44.26z"/><path fill="#f8ab00" d="M40.3 136.57l-30.42-2.79c-9.87-.91-11.05-.84-.19-.69l30.98.44c1.25.02 1.07-.11 1.09.61l.03 1.95c.01.82.04.62-1.49.48M162.49 136.57l30.42-2.79c9.87-.91 11.05-.84.19-.69l-30.98.44c-1.25.02-1.08-.11-1.09.61l-.03 1.95c-.01.82-.04.62 1.49.48"/><path fill="#e6b000" d="M52.56 141.54h.09v.18H50v-.18h.09a.4.4 0 0 0 .26-.09c.08-.07.14-.15.2-.24.05-.1.09-.2.12-.31l.03-.3v-9.5l-.03-.28a1.66 1.66 0 0 0-.12-.31.9.9 0 0 0-.2-.23.35.35 0 0 0-.26-.1H50V130h7.11v1.88h-.18c0-.42-.1-.74-.29-.95-.19-.2-.49-.31-.9-.31h-3.8v9.98c0 .1.02.2.04.3.03.11.07.21.12.31.06.09.12.17.2.24a.4.4 0 0 0 .26.09M66.98 130.49a5.72 5.72 0 0 1 3.19 3.23 6.13 6.13 0 0 1-.07 4.73 5.74 5.74 0 0 1-1.4 1.92 6.99 6.99 0 0 1-7.14 1.21 5.76 5.76 0 0 1-3.13-3.2 6.06 6.06 0 0 1 1.25-6.44 6.22 6.22 0 0 1 4.71-1.94c.96 0 1.82.16 2.59.49zm-.42 10.42a4.92 4.92 0 0 0 1.56-1.24 5.44 5.44 0 0 0 .88-5.43 6.06 6.06 0 0 0-1.06-1.8c-.46-.54-1-.97-1.64-1.31a4.48 4.48 0 0 0-2.14-.51c-.77 0-1.46.16-2.06.49-.61.33-1.13.74-1.55 1.25a5.6 5.6 0 0 0-1.31 3.55c0 .65.13 1.31.39 1.97.26.65.62 1.25 1.08 1.78.45.53.99.97 1.62 1.3.62.33 1.31.49 2.05.49a5.01 5.01 0 0 0 2.18-.54zM72.13 140.48c-.11.31-.28.59-.52.85-.23.26-.58.39-1.04.39H70v-.18c.07 0 .17-.02.3-.06a1.8 1.8 0 0 0 .79-.57c.14-.15.26-.33.35-.56l3.5-9.2c.07-.17.1-.31.1-.4a.57.57 0 0 0-.16-.42c-.11-.1-.21-.15-.33-.15V130h1.52l4.15 10.87c.06.16.18.32.35.45a1 1 0 0 0 .58.22v.18H78.5v-.18c.1 0 .2-.04.3-.11a.36.36 0 0 0 .16-.31.4.4 0 0 0-.04-.16l-3.48-9.2zM83 141.54h.09c.09 0 .17-.03.24-.09a.88.88 0 0 0 .19-.24 1.66 1.66 0 0 0 .17-.59v-9.47c0-.08-.02-.18-.04-.3a1.52 1.52 0 0 0-.12-.32 1.57 1.57 0 0 0-.2-.25.33.33 0 0 0-.24-.1H83V130h2.61v.18h-.13c-.17.02-.31.15-.41.38a1.7 1.7 0 0 0-.14.59v3.82h1.03c.57 0 1.13.06 1.68.17.55.11 1.03.3 1.46.57.43.27.77.61 1.03 1.05.26.43.39.96.39 1.6 0 .53-.11.99-.34 1.41-.22.41-.52.76-.9 1.05-.39.29-.84.52-1.36.67-.53.15-1.09.23-1.7.23H83zm2.2-.44c1.44 0 2.46-.24 3.09-.71.62-.48.93-1.13.93-1.95 0-.85-.31-1.53-.93-2.06-.63-.54-1.54-.8-2.75-.8h-.61v5.52zM97.04 130h2.61v.18h-.15a.37.37 0 0 0-.23.12 1.14 1.14 0 0 0-.29.56c-.02.11-.04.21-.04.29v.09c.85.03 1.63.16 2.33.4.69.25 1.3.57 1.8.99.51.41.9.9 1.18 1.45.28.55.41 1.14.41 1.78 0 .7-.15 1.33-.47 1.9a4.66 4.66 0 0 1-1.27 1.46 6.99 6.99 0 0 1-3.98 1.31v.09c0 .08.02.18.04.28.03.11.06.21.12.31.06.09.12.17.2.24.07.06.16.09.25.09h.1v.18h-2.61v-.18h.09c.08 0 .17-.03.25-.09a.88.88 0 0 0 .19-.24 1.66 1.66 0 0 0 .17-.59v-.09a7.5 7.5 0 0 1-2.35-.4 5.53 5.53 0 0 1-1.81-.99c-.5-.42-.89-.91-1.16-1.46a3.98 3.98 0 0 1-.42-1.81c0-.68.15-1.31.45-1.87.31-.56.72-1.04 1.23-1.44a6.3 6.3 0 0 1 1.83-.93c.7-.22 1.44-.35 2.23-.37v-.09a1.43 1.43 0 0 0-.35-.87.45.45 0 0 0-.24-.12h-.11zm-3.46 7.22a5.07 5.07 0 0 0 4.16 2.72v-8.11c-.74.01-1.4.13-1.96.37-.57.24-1.05.54-1.43.9a3.62 3.62 0 0 0-1.15 2.58c0 .52.13 1.04.38 1.54zm9.51-2.69a4.9 4.9 0 0 0-4.15-2.68v8.11a5.23 5.23 0 0 0 3.29-1.27c.39-.36.69-.77.9-1.22.21-.46.31-.93.31-1.41a3.6 3.6 0 0 0-.35-1.53zM107 137.89h4.2V137H107zM114 141.54h.09c.1 0 .19-.03.26-.1.08-.08.14-.16.2-.25.05-.1.09-.2.12-.31l.03-.31v-9.47l-.03-.28a1.66 1.66 0 0 0-.12-.31.9.9 0 0 0-.2-.23.33.33 0 0 0-.24-.1h-.09V130h2.63v.18h-.09c-.1 0-.19.03-.26.1a.9.9 0 0 0-.2.23c-.05.1-.1.2-.13.31a1 1 0 0 0-.04.28v3.68l4.29-4.11c.1-.09.15-.2.15-.33 0-.11-.05-.16-.15-.16V130h2v.18c-.25.01-.46.08-.66.21a6.1 6.1 0 0 0-.62.52l-4.38 4.22c.8.03 1.45.19 1.94.5.49.3.88.73 1.17 1.27l1.46 2.84a4.43 4.43 0 0 0 .82 1.16c.18.18.38.33.6.46.23.12.46.18.71.18v.18h-.93c-.36 0-.66-.05-.92-.15a2.2 2.2 0 0 1-.68-.41 2.79 2.79 0 0 1-.5-.58 5.98 5.98 0 0 1-.38-.64l-1.5-2.85a2.43 2.43 0 0 0-.97-1.01c-.41-.23-.9-.36-1.45-.38v4.87l.03.3.11.31c.05.1.12.18.19.25.07.06.15.1.24.11h.13v.18H114zM126.13 140.48c-.11.31-.28.59-.52.85-.23.26-.58.39-1.04.39H124v-.18c.07 0 .17-.02.3-.06a1.8 1.8 0 0 0 .79-.57c.14-.15.26-.33.35-.56l3.5-9.2c.07-.17.1-.31.1-.4a.57.57 0 0 0-.16-.42c-.11-.1-.21-.15-.33-.15V130h1.52l4.15 10.87c.06.16.18.32.35.45a1 1 0 0 0 .58.22v.18h-2.65v-.18c.1 0 .2-.04.3-.11a.36.36 0 0 0 .16-.31.4.4 0 0 0-.04-.16l-3.48-9.2zM137 130h2.57v.18h-.11c-.13 0-.23.04-.27.11a.46.46 0 0 0-.06.4c.01.05.02.09.04.11l3.16 6.64 2.84-6.45a.8.8 0 0 0 .05-.15.57.57 0 0 0 .04-.22c0-.16-.06-.28-.19-.34a.6.6 0 0 0-.28-.1V130h1.99v.18c-.23 0-.4.05-.51.17-.12.11-.21.22-.27.34l-4.45 10.2c-.14.34-.34.59-.59.75a1.5 1.5 0 0 1-1.29.16 1.77 1.77 0 0 1-.64-.38l-.09-.09.47-.98c.1.23.23.4.39.53a.8.8 0 0 0 .5.18c.11 0 .22-.04.34-.11.12-.08.22-.2.3-.37l.73-1.68-3.86-8.15c-.17-.36-.44-.55-.81-.57zM148 141.54h.09a.4.4 0 0 0 .26-.09c.08-.07.14-.15.2-.24l.13-.31c.03-.1.04-.2.04-.3v-9.5a1 1 0 0 0-.04-.28 2.88 2.88 0 0 0-.13-.31.9.9 0 0 0-.2-.23.35.35 0 0 0-.26-.1H148V130h6.78v1.69h-.19c0-.27-.1-.51-.29-.72-.2-.21-.5-.31-.91-.31h-3.43v4.31h.85c.57 0 1.14.06 1.7.16.56.11 1.07.29 1.52.54.45.26.81.6 1.09 1.04.28.44.42.99.42 1.65a3 3 0 0 1-1.17 2.46c-.37.29-.81.52-1.32.67-.52.15-1.08.23-1.68.23H148zm2.69-.44a5.9 5.9 0 0 0 1.61-.2c.45-.13.82-.31 1.12-.54.3-.23.52-.5.66-.81a2.68 2.68 0 0 0-.75-3.15 4.12 4.12 0 0 0-2.75-.82h-.62v5.52z"/></svg>