<?xml version="1.0" encoding="UTF-8" standalone="no"?>
<!-- Created with Inkscape (http://www.inkscape.org/) -->

<svg
   xmlns:dc="http://purl.org/dc/elements/1.1/"
   xmlns:cc="http://creativecommons.org/ns#"
   xmlns:rdf="http://www.w3.org/1999/02/22-rdf-syntax-ns#"
   xmlns:svg="http://www.w3.org/2000/svg"
   xmlns="http://www.w3.org/2000/svg"
   xmlns:sodipodi="http://sodipodi.sourceforge.net/DTD/sodipodi-0.dtd"
   xmlns:inkscape="http://www.inkscape.org/namespaces/inkscape"
   width="265.0094mm"
   height="187.02682mm"
   viewBox="0 0 265.0094 187.02683"
   version="1.1"
   id="svg8"
   inkscape:version="0.92.1 r15371"
   sodipodi:docname="logo_EN.svg">
  <defs
     id="defs2">
    <style
       id="style10">.cls-1,.cls-2{fill:none;}.cls-2,.cls-3,.cls-4{fill-rule:evenodd;}.cls-3{fill:#e6b000;}.cls-4{fill:#fff;}</style>
  </defs>
  <sodipodi:namedview
     id="base"
     pagecolor="#ffffff"
     bordercolor="#666666"
     borderopacity="1.0"
     inkscape:pageopacity="0.0"
     inkscape:pageshadow="2"
     inkscape:zoom="0.24748737"
     inkscape:cx="1966.8323"
     inkscape:cy="558.44054"
     inkscape:document-units="mm"
     inkscape:current-layer="Слой_1-2"
     showgrid="false"
     fit-margin-top="0"
     fit-margin-left="0"
     fit-margin-right="0"
     fit-margin-bottom="0"
     inkscape:window-width="1366"
     inkscape:window-height="715"
     inkscape:window-x="-8"
     inkscape:window-y="-8"
     inkscape:window-maximized="1" />
  <metadata
     id="metadata5">
    <rdf:RDF>
      <cc:Work
         rdf:about="">
        <dc:format>image/svg+xml</dc:format>
        <dc:type
           rdf:resource="http://purl.org/dc/dcmitype/StillImage" />
        <dc:title></dc:title>
      </cc:Work>
    </rdf:RDF>
  </metadata>
  <g
     inkscape:label="Layer 1"
     inkscape:groupmode="layer"
     id="layer1"
     transform="translate(-338.86708,-18.396842)">
    <g
       data-name="Слой 2"
       id="Слой_2"
       transform="matrix(1.1325359,0,0,1.0127449,36.302345,43.456972)">
      <g
         data-name="Слой 1"
         id="Слой_1-2">
        <rect
           id="rect16"
           height="184.67319"
           width="233.99646"
           y="-24.744761"
           x="267.15686"
           class="cls-1"
           style="fill:none;stroke-width:2.29579377" />
        <path
           id="path20"
           d="m 393.46687,2.9861759 c 1.15795,-0.5899059 1.95135,0 1.73692,-1.253548 a 2.8734209,3.2936402 0 0 1 0.75052,-3.1953237 3.0664118,3.5148548 0 0 0 0.83629,-3.4902746 2.4445522,2.8020522 0 0 1 0.68619,-2.6299968 5.8326155,6.6855979 0 0 1 1.13651,-1.0569149 c 0,0.344112 0,0.688223 0,1.0323349 0,0.344113 0,0.8602799 0,1.278129 a 1.4795974,1.695979 0 0 1 -1.3295,1.7451388 3.8812625,4.4488721 0 0 0 0.30021,0.761961 0.57897286,0.66364392 0 0 0 0.6433,0.344111 15.010407,17.205582 0 0 1 -0.6433,2.3104655 v -0.2212159 c -0.42887,1.17981187 -0.51464,2.4579408 -2.14434,2.7774728 a 1.3294932,1.523923 0 0 1 -0.21444,1.9663531 c -0.38598,0.368691 -1.20083,0.196636 -1.58681,0.614486 -0.38598,0.4178471 0,0.368689 -0.3431,1.106071 -0.34309,0.7373829 -1.37238,-1.253548 0.27877,-2.1138282 z m -9.30645,-27.0373439 a 14.581538,16.713994 0 1 0 13.70236,11.011572 q 0.12865,0.442429 0.23587,0.86028 a 1.3294932,1.523923 0 0 0 -0.38598,0.540747 v 0 c 0,-0.516168 -0.17155,-1.204391 0.19299,-1.499344 a 14.538652,16.664836 0 0 0 -1.75836,-3.932705 c -0.75052,0 -0.92207,0.196635 -0.9864,1.450185 -0.17155,-0.761962 -0.34309,-1.376446 0.15011,-1.794297 0.12865,0 0.42887,0 0.68619,0 a 14.560096,16.689416 0 0 0 -11.75101,-6.808493 z M 373.03127,2.9861759 a 1.3509367,1.5485025 0 0 1 0.66475,-1.1798119 c 0.70763,-0.516166 1.50104,-0.36869 2.33733,0.540747 A 2.1443439,2.4579405 0 0 0 374.082,2.2242111 1.5653712,1.7942967 0 0 0 373.28859,3.3548643 Z m 19.2991,3.4165381 c 0,-0.614484 -0.15011,-1.0814949 -0.66475,-1.155232 v 0 a 1.8441358,2.1138288 0 0 0 -1.65114,0.958596 1.6725882,1.9171934 0 0 0 -0.40743,1.8188778 l 0.38598,-0.1720569 A 1.9942399,2.2858847 0 0 1 391.7514,6.820563 l 0.55752,-0.417849 z m 1.26516,-17.008948 v 0 c -1.24372,-0.147477 -1.6297,0.270374 -1.90846,1.9909309 a 1.6725882,1.9171934 0 0 1 0.53608,-2.3350429 1.0292851,1.1798114 0 0 1 1.37238,0.344112 z m -5.18931,6.6610186 v 0 c -1.60826,-0.4178509 -2.48744,0.270373 -2.74476,2.2367265 a 1.8441358,2.1138288 0 0 1 0.79341,-2.6545774 1.5439276,1.7697171 0 0 1 1.95135,0.4178509 z m -9.84254,5.8007384 v 0 a 1.7154751,1.9663523 0 0 1 2.33734,0.344112 c -1.69404,-0.5161661 -2.70188,0.1720559 -2.83054,1.9663531 a 1.5010407,1.7205582 0 0 1 0.51464,-2.3104651 z m 5.12498,-0.344111 v 0 a 1.6297013,1.8680346 0 0 1 2.14435,0.344111 c -1.6297,-0.4424271 -2.27301,0 -2.91631,2.089252 a 1.7154751,1.9663523 0 0 1 0.72907,-2.457942 z m 11.92255,-13.690728 v 0 c 0.60042,0 1.15795,0.663643 1.30805,1.868034 -0.94351,-1.056914 -1.30805,-1.007755 -1.97279,0.221215 -0.17155,-1.155232 0,-1.990932 0.66474,-2.089249 z m 0.72908,7.3738207 a 1.8226923,2.0892493 0 0 0 -0.1501,-0.712802 c -0.23588,-0.344112 -0.51465,-0.8602799 -0.79341,-0.8848589 a 1.4795974,1.695979 0 0 0 -1.02928,0.6390639 2.1443439,2.4579405 0 0 0 -0.30021,2.1384089 c 0.68619,-1.7451379 1.20083,-2.0155109 2.29445,-1.1798119 z m -4.05281,7.3738222 c 0.68619,-1.6959789 1.30805,-2.13840789 2.42311,-1.64681991 0,-1.03233494 -0.47176,-1.59766188 -1.1365,-1.40102592 a 2.1443439,2.4579405 0 0 0 -1.28661,3.02326583 z m 0.77197,-6.2923283 a 1.5010407,1.7205582 0 0 0 -0.79341,-1.6222399 1.2437195,1.4256054 0 0 0 -1.41527,0.2949529 1.8441358,2.1138288 0 0 0 -0.55753,2.285883 c 0.8363,-1.671397 1.6297,-1.966351 2.74476,-0.958596 z M 390.9151,2.052158 v 0 a 1.5653712,1.7942967 0 0 0 -1.7798,-0.172055 10.72172,12.289702 0 0 0 -1.28661,1.4010262 1.7798054,2.0400905 0 0 1 0.4932,-2.0155102 1.6511448,1.8926141 0 0 1 1.77981,-0.71280395 1.1579457,1.3272878 0 0 1 0.7934,1.52392385 z M 378.43502,6.96804 v 0 a 1.3080498,1.4993436 0 0 1 0.51464,0.9340179 15.010407,17.205582 0 0 1 -2.14434,-1.2289719 1.9299096,2.2121465 0 0 1 1.67259,0.294954 z m 9.43511,-0.8356981 v 0 c 0.47176,0.2949521 0.60042,0.7865391 0.40743,1.671398 a 2.1443439,2.4579405 0 0 0 -2.91631,0.9585969 1.6082579,1.8434553 0 0 1 0.47176,-2.1875668 1.9299096,2.2121465 0 0 1 2.03712,-0.4424281 z m -4.28868,2.4579389 a 1.9942399,2.2858847 0 0 0 -2.63755,0 h -0.42887 a 1.3294932,1.523923 0 0 1 0.4932,-1.5239238 1.9727965,2.2613054 0 0 1 2.14435,-0.221214 1.1579457,1.3272878 0 0 1 0.34309,1.7451378 z"
           class="cls-3"
           inkscape:connector-curvature="0"
           style="fill:#e6b000;fill-rule:evenodd;stroke-width:2.29579377" />
        <path
           id="path22"
           d="m 381.97319,72.742527 q 1.24372,-3.834386 2.57321,-7.545877 -0.77196,-2.138407 -1.60826,-4.227656 c -1.07217,3.17074 -2.14434,6.390643 -3.06641,9.659703 -1.69403,-4.350553 -3.51672,-8.65195 -5.44663,-12.830447 v 0 l -0.25732,-0.540748 v 0 0 0 0 0 l -0.23588,-0.516168 v 0 0 0 0 l -0.25732,-0.540747 v 0 -0.147471 0 l -0.25733,-0.565326 v 0 0 0 l -0.17154,-0.368694 v 0 0 -0.147471 0 0 l -0.21444,-0.44243 v 0 A 197.57986,226.47465 0 0 0 361.68769,33.808752 c -2.53032,-4.08018 -5.0392,-7.816248 -7.46231,-11.134469 -1.45816,0.958596 -2.98064,1.917195 -4.41735,2.728314 a 141.89123,162.64191 0 0 1 14.56009,19.810997 c 2.48744,4.08018 4.80333,8.283258 7.01201,12.658392 v 0 0 0 l 0.1501,0.270374 v 0 0 0 0.14747 0 0.147473 0 0 0 0 0 0 0 0 0 0 0 0 0.221214 0 0 0 0 0 l 0.15011,0.294952 v 0 0 0 l 0.40742,0.860278 v 0 c 1.75836,3.588595 3.4524,7.373823 5.12499,11.15905 z M 341.23065,11.294016 v 0 0 0 0 0 0 0 0 0 0 0 0 0 0 0 0 0 0 0 0 0 0 0 0 0 0 0 0 0 0 0 0 0 0 0 h 0.72908 a 12.866064,14.747643 0 0 1 4.13858,-1.6959802 c 3.90271,-0.934016 11.04337,1.8926162 11.06482,1.9171942 h 0.10722 a 9.7996518,11.232788 0 0 1 4.56746,2.974108 l -0.4932,0.368691 a 9.2206789,10.569143 0 0 0 -2.9592,3.883546 l -0.34309,-0.44243 -0.3431,-0.442429 -0.42887,0.294954 v 0 c -1.32949,0.934018 -3.47383,2.457938 -5.74684,3.932703 v 0 l -0.36454,0.221216 v 0 0 0 0 0 0 h -0.1501 v 0 0 l -0.21443,0.14747 v 0 0 0 0 0 0 0 0 0 0 0 0 0 h -0.15011 v 0 0 h -0.15011 v 0 h -0.1501 v 0 0 0 0 0 0 h -0.12866 v 0 0 0 0 0 0 0 0 0 h -0.19299 v 0 a 15.010407,17.205582 0 0 1 -4.50312,1.892615 3.4095068,3.9081252 0 0 1 -0.79341,0 4.4387919,5.0879367 0 0 1 -4.33157,-1.597662 6.1328235,7.0297095 0 0 1 -1.28661,-3.883546 6.0684934,6.9559715 0 0 1 0,-1.59766 15.010407,17.205582 0 0 1 0.70764,-3.170743 v 0 0 0 0 -0.245794 0 0 0 0 0 0 0 0 0 0 0 0 0 0 0 0 0 0 0 0 0 0 0 0 0 0 0 -0.172055 0 0 0 0 0 0 0 0 0 0 0 0 0 0 0 0 0 0 0 -0.147474 z m 0.85774,-2.8266302 A 10.72172,12.289702 0 0 0 336.53454,5.886547 h -0.10723 c 0,0 -7.44087,-1.6468218 -11.19347,0 a 10.979041,12.584655 0 0 0 -4.76045,3.3182198 9.906869,11.355685 0 0 0 -2.14434,7.3738202 6.1328235,7.0297095 0 0 0 1.88702,5.235414 4.4387919,5.0879367 0 0 0 2.89487,1.499344 3.4095068,3.9081252 0 0 0 0.7934,0 c 2.72332,-0.663646 10.33574,-7.88999 13.35927,-10.765779 v 0 l 0.38598,-0.368692 0.38598,0.368692 0.72908,0.712801 a 9.0920182,10.421667 0 0 1 2.42311,-3.9818632 l 0.72908,-0.6390649 z m 49.06259,64.2751412 h -2.70187 q -1.54393,-4.768406 -3.23796,-9.315596 v 0 -0.122908 -0.540743 -0.122908 -1.007754 -0.270374 -0.270372 -0.270374 -0.39327 -0.270374 -0.319532 -0.270374 -0.319532 q -1.22228,-3.047847 -2.50889,-6.046533 -1.2866,-2.998687 -2.68043,-5.825319 v 0 L 378.6709,44.64825 v 0 l -0.3431,-0.663631 v 0 0 l -0.12866,-0.245794 v 0 0 l -0.12865,-0.245795 v 0 l -0.12866,-0.245793 v 0 0 l -0.12866,-0.245792 v 0 0 0 0 c -2.31589,-4.399715 -4.86765,-8.774848 -7.67675,-13.125402 1.50105,-0.589907 3.13075,-1.32729 4.71756,-2.08925 1.65114,2.998686 3.32373,6.292328 4.97488,9.83176 v 0 0 0.196637 0 0.196634 0 0.196635 0 0.196636 0 -0.565327 0 0.196635 0 0.172056 0 0.196636 0 0.196635 0 0.196637 0 0.196634 0 0.196635 0 0.196636 0 0.294952 l 0.23588,0.516167 v 0.122909 0 0.122908 l 0.19299,0.442429 v 0.122909 0 0 0 l 0.23587,0.565326 v 0 0 0.221214 l 0.10723,0.270375 v 0 c 1.65115,3.834386 3.2594,7.865407 4.82477,12.068486 v 0.147471 0.761961 0.221215 0.221215 0.147471 0.294953 0.221214 0.147471 0.221217 0.147471 0.221214 0 l 0.12866,0.344112 v 0.565327 0.294951 0.368691 l 0.19299,0.565325 V 59.1747 c 1.28661,3.736068 2.53033,7.570457 3.68827,11.454001 v 0 0.221215 0 l 0.10723,0.368692 v 0.172056 0.221215 0.172054 0.319534 0.172055 0.270376 0 z m 12.20132,0 h -2.91631 c -0.92207,-3.613174 -1.92991,-7.177188 -3.02353,-10.692041 l -0.7934,-2.457941 v 0 l -0.17155,-0.540748 v 0 0 0 l -0.30021,-0.663642 v 0 0 0 c -1.24372,-3.686912 -2.59466,-7.373822 -4.0957,-10.962415 v 0 -0.147472 -0.14747 -0.147472 -0.147471 -0.147472 -0.44243 -0.147471 -0.44243 -0.147471 -0.294952 -0.221215 0 -0.147471 0 -0.221215 0 0 -0.147471 0 0 0 0 0 0 -0.147472 0 0 l -0.12865,-0.294953 v 0 0 0 0 q -4.03137,-6.194009 -6.7118,-11.281946 v 0 0 0 0 0 0 0 0 -0.172055 0 0 -0.172055 0 -0.172055 0 0 0 0 0 -0.172058 0 0 -0.172055 0 0 -0.147471 0 0 l -0.1501,-0.270394 v 0 -0.172054 0 0 l -0.19299,-0.368692 v -0.172055 0 l -0.19299,-0.368692 v 0 0 0 l -0.25733,-0.442428 v 0 0 0 0 l -0.1501,-0.270374 v 0 q -1.26516,-2.236727 -2.6161,-4.473454 l -0.27876,-0.467007 -0.47176,0.245794 v 0 c -3.73116,-1.892616 -6.19715,-0.565326 -8.77037,0.565326 v 0 0 h -0.1501 v 0 h -0.23588 -0.1501 v 0 h -0.15011 -0.17155 -0.1501 -1.99424 -0.15011 v 0 h -0.12865 -0.72908 -0.12866 -0.3002 a 12.866064,14.747643 0 0 1 -3.96704,0.983177 3.4309502,3.9327046 0 0 1 -0.77196,-0.147471 4.4387919,5.0879367 0 0 1 -2.466,-2.285886 6.1328235,7.0297095 0 0 1 -0.87918,-4.055601 6.04705,6.9313921 0 0 1 -0.12866,0.589905 15.546494,17.820069 0 0 1 0.90063,-2.752894 v 0 0 0 0 0 l 0.10722,-0.245794 v 0 0 0 0 0 0 0 0 0 -0.147471 0 l 0.193,-0.344113 v 0 0 0 l 0.17154,-0.245793 v 0 0 0 0 0 0 0 0 0 0 0 0 0 0 0 0 0 0 0 0 0 0 0 0 0 0 0 0 0 0 0 0 0 0 0 0 0 0 0 0 0 0 0 0 0 0 0 0 0 0 0 0 0 0 0 0 0 h 3.13075 a 12.308534,14.108578 0 0 1 4.61033,-1.27813 c 3.96704,-0.393269 10.72172,3.391958 10.72172,3.416538 v 0 a 13.273489,15.214651 0 0 1 6.11138,2.703735 v 0 l 0.21444,0.34411 v 0 0 0 l 0.17155,0.294954 v 0 0 l 0.19299,0.319533 v 0 0 l 0.1501,0.245794 v 0 0 l 0.19299,0.344112 v 0 0 l 0.19299,0.344111 v 0 0 0 l 0.19299,0.344113 0.12866,0.245795 0.70764,1.327286 0.17154,0.319533 0.10722,0.221214 0.1501,0.294954 0.12866,0.245794 0.1501,0.319531 a 96.002277,110.042 0 0 1 4.41735,9.831761 v 0 0 l 0.1501,0.393271 v 0 0 0.221215 l 0.21444,0.540745 v 0 0 l 0.19299,0.491589 v 0 0.172058 l 0.23588,0.589905 v 0.147471 l 0.51464,0.958597 v 0 0.172055 l 0.23588,0.614485 v 0 l 0.23588,0.663643 v 0 0 0 q 1.1365,3.146165 2.14434,6.538124 0.68619,2.138407 1.35094,4.350554 v 0.196634 l 0.10722,0.393272 v 0.393268 l 0.12866,0.44243 v 0.319533 l 0.12866,0.442429 v 0.393272 l 0.12865,0.44243 v 0 0.319529 l 0.10723,0.393272 v 0.393271 c 1.41527,4.915881 2.72332,10.27419 3.88126,15.681659 z m -30.79278,-9.413911 q -1.41527,4.645505 -2.63755,9.413911 H 367.07 c 1.02928,-4.768406 2.14434,-9.413911 3.38806,-13.887363 q 1.11506,2.212147 2.14434,4.473452 z m 5.10354,-14.452692 q -1.45816,3.613174 -2.72332,7.226344 -1.15795,-2.457939 -2.33734,-4.915881 l 0.81485,-2.605416 q 0.81486,-2.45794 1.65115,-4.91588 1.35094,2.605416 2.59466,5.210833 z m 6.75468,-14.747642 q -1.69403,3.465698 -3.28085,6.931391 l -0.83629,-1.868032 q -0.94351,-2.08925 -1.88702,-4.080182 c 1.00784,-2.457942 2.01568,-4.694666 3.00208,-6.734757 q 1.6297,2.87579 3.1093,5.727 z m 1.43671,-13.66615 a 50.156204,57.491227 0 0 1 3.1093,5.333733 l 1.90846,-3.219902 0.27877,-0.46701 0.47176,0.245795 v 0 c 1.52248,0.81112 4.03136,2.113829 6.62602,3.367378 v 0 h 0.1501 v 0 0 0 h 0.15011 v 0 0 h 0.12865 0.40743 l 0.47175,0.221216 h 0.15011 0.1501 v 0 h 0.15011 0.1501 0.1501 0.38599 0.21443 v 0 h 0.1501 0.15011 0.1501 1.07217 a 12.866064,14.747643 0 0 0 3.96704,0.983175 3.4309502,3.9327046 0 0 0 0.77196,-0.147471 4.4387919,5.0879367 0 0 0 2.466,-2.285885 6.1328235,7.0297095 0 0 0 1.52249,-2.236727 6.04705,6.9313921 0 0 0 -0.23588,-1.573081 15.546494,17.820069 0 0 0 -0.90063,-2.752893 v 0 0 0 0 0 0 0 0 0 0 0 0 0 0 0 0 0 0 0 0 0 0 0 0 0 0 0 0 0 0 0 0 0 0 0 0 0 0 0 0 0 0 0 0 0 0 0 0 0 0 0 0 0 0 0 0 0 0 0 0 0 0 0 0 0 0 0 0 0 0 0 0 0 0 0 0 0 0 0 0 0 0 0 0 0 0 0 0 0 0 0 0 0 0 h -0.75052 a 12.287091,14.083999 0 0 0 -4.61034,-1.278129 c -3.96703,-0.393272 -10.72172,3.391959 -10.72172,3.416537 v 0 a 11.429353,13.100822 0 0 0 -5.08209,4.719247 z m 5.3823,28.364634 q -0.94351,-2.335044 -1.97279,-4.670086 c -1.17939,2.802051 -2.33734,5.702422 -3.47384,8.676528 q 0.85774,2.261304 1.67259,4.596349 0.87918,-2.162987 1.82269,-4.301395 0.94351,-2.13841 1.95135,-4.301396 z m 11.04338,-19.909317 c -1.50105,-0.589906 -3.13075,-1.327288 -4.71756,-2.08925 -1.41527,2.457941 -2.85198,5.35831 -4.28869,8.356997 q 1.05073,2.580838 2.14434,5.407469 c 2.14435,-3.908125 4.28869,-7.791672 6.90479,-11.675216 z m 5.10353,-16.345304 a 9.7996518,11.232788 0 0 1 4.5889,-2.9741092 h 0.10718 c 0,0 7.16212,-2.8512108 11.06481,-1.9171929 a 12.866064,14.747643 0 0 1 4.18147,1.720557 h 0.9864 v 0 0 0 0 0 l 0.12872,0.1229027 v 0 0 0 0 0 0 0 0 0 0 0 0 0 0 0 0 0 0 0 0 0 0 0 0 0 0 0 0 0 0 a 11.515127,13.19914 0 0 1 1.88701,5.7270004 6.0684934,6.9559715 0 0 1 0,1.597663 6.1328235,7.0297095 0 0 1 -1.28661,3.883546 4.4387919,5.0879367 0 0 1 -2.68041,1.941774 3.4095068,3.9081252 0 0 1 -0.79341,0 14.431434,16.541938 0 0 1 -4.28869,-1.794298 v 0 0 0 0 0 0 0 0 0 0 0 h -0.12872 v 0 0 h -0.12873 v 0 0 0 0 0 0 0 0 0 0 0 h -0.15011 v 0 0 0 0 0 0 0 0 0 0 0 0 0 0 0 0 0 0 h -0.1501 v 0 0 h -0.15011 v 0 h -0.1501 v 0 0 0 0 0 0 0 h -0.15011 v 0 c -2.27299,-1.474766 -4.39589,-2.97411 -5.74682,-3.932706 v 0 l -0.42887,-0.294953 -0.3431,0.442428 -0.34309,0.442431 a 9.2206789,10.569143 0 0 0 -2.9592,-3.883547 l -0.4932,-0.368691 z m -11.02192,50.633574 -0.21444,-0.786543 q -0.4932,-1.548501 -0.9864,-3.072425 -2.14434,4.596348 -3.96703,9.340173 0.53608,1.745137 1.02928,3.514857 2.14435,-4.694668 4.13859,-9.118959 z m 24.9816,-39.327048 c -1.43672,-0.811121 -2.95919,-1.769718 -4.41734,-2.728315 -2.42312,3.318221 -4.93201,7.05429 -7.46233,11.134472 -3.53816,5.727 -7.09777,12.142224 -10.48583,18.950718 q 0.62186,2.040092 1.22227,4.15392 c 1.84414,-3.514855 3.7526,-6.906813 5.76829,-10.24961 a 141.89123,162.64191 0 0 1 15.35351,-21.285763 z m 6.96911,-15.4112852 a 8.448715,9.6842854 0 0 1 0.72908,0.639063 9.0920182,10.421667 0 0 1 2.42311,3.9818632 l 0.72908,-0.712803 0.40742,-0.344112 0.38599,0.368692 v 0 c 3.02352,2.875789 10.7217,10.102134 13.35925,10.765779 a 3.4095068,3.9081252 0 0 0 0.79341,0 4.4387919,5.0879367 0 0 0 2.89487,-1.499342 6.1328235,7.0297095 0 0 0 1.88701,-5.235415 9.906869,11.355685 0 0 0 -2.14434,-7.3738212 10.979041,12.584655 0 0 0 -4.76044,-3.3182188 c -3.7526,-1.5730829 -11.17202,0 -11.19348,0 h -0.10718 a 10.72172,12.289702 0 0 0 -5.40376,2.7283148 z"
           class="cls-3"
           inkscape:connector-curvature="0"
           style="fill:#e6b000;fill-rule:evenodd;stroke-width:2.29579377" />
        <path
           id="path24"
           d="m 353.6464,77.388033 h 61.00659 c 0.9864,0 1.77981,-1.548501 1.77981,-3.416536 h -64.5662 c 0,1.892615 0.79341,3.416536 1.7798,3.416536 z m 62.7864,-3.416536"
           class="cls-3"
           inkscape:connector-curvature="0"
           style="fill:#e6b000;fill-rule:evenodd;stroke-width:2.29579377" />
        <path
           id="path26"
           d="m 285.6707,110.91434 a 6.8190137,7.8162505 0 0 0 5.18931,-1.79429 6.4330318,7.3738213 0 0 0 1.26517,-5.08794 5.661068,6.4889627 0 0 0 -1.37238,-4.424296 5.5109639,6.3169069 0 0 0 -3.66683,-2.040089 c -0.62186,0 -1.17939,0 -1.71548,0 h -0.40742 a 18.226923,20.892493 0 0 0 -2.35878,0.172055 v 12.48634 a 5.4251901,6.2185892 0 0 0 3.04497,0.83569 z m 1.56537,3.12159 h -1.26516 a 16.682995,19.122775 0 0 1 -3.36662,-0.36869 v 10.54456 a 14.34566,16.44362 0 0 1 4.07425,0.66364 v 2.45795 h -13.2306 v -2.45795 a 11.47224,13.149981 0 0 1 3.58105,-0.66364 V 97.862678 a 11.450797,13.125402 0 0 1 -3.58105,-0.663643 v -2.457942 h 14.77453 a 9.3493395,10.71662 0 0 1 6.94768,2.654577 8.9848011,10.29877 0 0 1 -1.02929,14.47726 12.673073,14.526428 0 0 1 -6.90479,2.31047 z m 22.32262,-1.94178 v 11.9456 l 9.22068,0.41785 1.95136,-3.90813 h 2.14434 l -1.15795,6.95597 h -22.0653 v -2.58084 a 33.044339,37.876861 0 0 1 4.28869,-0.63906 V 97.76436 a 28.434,32.592289 0 0 1 -4.28869,-0.663643 v -2.457942 h 21.76509 l 1.15795,6.955975 h -2.14434 l -1.92991,-3.908128 -8.94192,0.41785 v 11.429418 h 7.03345 a 9.9926428,11.454002 0 0 1 0.42887,-1.99093 c 0,-0.24579 0.12866,-0.34411 0.17155,-0.34411 h 1.30805 v 7.20177 h -1.30805 a 7.569534,8.6765296 0 0 1 -0.60042,-2.45794 h -7.03345 z m 43.03699,-10.51998 h -2.42311 l -1.67259,-4.227659 -6.94768,0.688222 v 26.275387 a 34.309502,39.327046 0 0 1 4.28869,0.63907 v 2.60542 h -14.15267 v -2.63001 a 33.773417,38.712562 0 0 1 4.28869,-0.63906 V 98.083892 l -6.92623,-0.688222 -1.67259,4.22766 h -2.50888 l 1.39382,-6.980555 h 25.1746 l 1.15795,6.980555 z m 12.28709,10.51998 v 11.9456 l 9.22068,0.41785 1.95135,-3.90813 h 2.14434 l -1.15794,6.95597 h -22.02241 v -2.58084 a 33.065783,37.901441 0 0 1 4.28868,-0.63906 V 97.76436 a 28.434,32.592289 0 0 1 -4.28868,-0.663643 v -2.457942 h 21.7222 l 1.15794,6.955975 h -2.14434 l -1.92991,-3.908128 -8.94191,0.41785 v 11.429418 h 7.03344 a 10.056973,11.527741 0 0 1 0.42887,-1.99093 c 0,-0.24579 0.12866,-0.34411 0.17155,-0.34411 h 1.30805 v 7.20177 h -1.26516 a 7.5909775,8.7011091 0 0 1 -0.60042,-2.45794 h -7.03345 z m 24.91727,-2.45794 c 1.05073,0 1.92991,0 2.59466,0 a 8.5773757,9.8317614 0 0 0 5.89694,-1.62224 4.6961132,5.3828895 0 0 0 1.41527,-4.1785 c 0,-0.24579 0,-0.51617 0,-0.78654 q -0.38598,-5.137093 -7.20499,-5.235411 c -1.02929,0 -1.90847,0 -2.68043,0 v 11.847271 z m -9.17779,-15.16549 h 12.86606 a 17.369186,19.909318 0 0 1 8.57738,2.040091 6.4330318,7.3738213 0 0 1 3.53817,6.833079 6.1328235,7.0297095 0 0 1 -2.59466,6.04652 12.308534,14.108578 0 0 1 -5.83261,2.31047 6.6260227,7.5950359 0 0 1 4.41734,4.32597 20.542814,23.547068 0 0 1 1.20084,3.02328 c 0.47175,1.32728 0.72907,2.06466 0.79341,2.18756 a 3.1092987,3.5640137 0 0 0 3.10929,1.89262 6.8833441,7.8899888 0 0 0 1.09362,0 l 0.19299,3.78523 a 7.7410816,8.8731649 0 0 1 -3.83838,1.00776 h -0.10722 a 5.5109639,6.3169069 0 0 1 -4.09569,-1.4502 31.929281,36.598733 0 0 1 -3.43095,-8.06204 14.817416,16.984367 0 0 0 -1.56537,-3.85897 2.9377513,3.3673786 0 0 0 -2.14435,-1.72056 l -3.08785,-0.0246 v 11.50316 a 7.8482989,8.9960621 0 0 1 2.63754,0.63907 v 2.60542 h -11.72956 v -2.63 a 12.866064,14.747643 0 0 1 3.58105,-0.63906 V 97.862685 a 11.450797,13.125402 0 0 1 -3.58105,-0.663646 v -2.457938 z m 60.55626,2.777474 a 11.429353,13.100822 0 0 1 -3.68827,0.639063 v 26.422863 a 11.40791,13.076243 0 0 1 3.68827,0.63907 v 2.60542 h -12.48007 v -2.63001 a 8.2342808,9.4384913 0 0 1 3.19507,-0.63906 V 112.1433 h -12.00832 v 12.16682 a 8.2342808,9.4384913 0 0 1 3.19507,0.63907 v 2.60542 h -12.39431 v -2.63001 a 11.40791,13.076243 0 0 1 3.68827,-0.63906 V 97.862678 a 11.429353,13.100822 0 0 1 -3.68827,-0.639064 v -2.580839 h 12.39431 v 2.605419 a 8.448715,9.6842854 0 0 1 -3.19507,0.639063 v 11.601483 h 12.02976 V 97.862678 a 8.448715,9.6842854 0 0 1 -3.19507,-0.639064 v -2.580839 h 12.45863 z m 17.15476,27.406036 a 6.8404572,7.84083 0 0 0 5.63962,-4.12934 13.745244,15.755398 0 0 0 2.14436,-8.77485 v -0.81112 a 14.538652,16.664836 0 0 0 -2.72334,-9.68429 7.1621088,8.2095211 0 0 0 -5.72539,-3.736065 h -0.23588 a 6.9047875,7.9145682 0 0 0 -5.70395,4.227655 14.409991,16.517359 0 0 0 -2.14434,9.04522 v 0.78655 a 13.938236,15.976614 0 0 0 2.72332,9.36475 7.1406652,8.1849415 0 0 0 5.72539,3.71149 z m -0.45032,-30.429305 a 14.109783,16.173248 0 0 1 10.05698,4.571769 14.495765,16.615677 0 0 1 4.28866,12.166806 15.010407,17.205582 0 0 1 -4.28866,12.16681 13.638027,15.632501 0 0 1 -10.05698,4.91589 14.066896,16.124089 0 0 1 -14.34565,-16.46821 15.460719,17.72175 0 0 1 4.28869,-12.510923 13.680915,15.681661 0 0 1 10.07841,-4.915881 z m 39.8848,7.373825 h -2.14435 l -1.95136,-3.908128 -9.22067,0.41785 v 11.748958 h 7.33365 a 10.357181,11.871852 0 0 1 0.42887,-2.31047 c 0,-0.24579 0.12868,-0.34411 0.17155,-0.34411 h 1.30805 v 7.81625 h -1.30805 a 8.0412898,9.2172766 0 0 1 -0.60042,-2.65458 l -7.33365,0.12291 v 11.87186 a 13.59514,15.583342 0 0 1 4.16002,0.63906 v 2.45794 h -14.024 v -2.53168 a 30.256693,34.681539 0 0 1 4.28869,-0.63906 V 97.86268 a 23.073141,26.447439 0 0 1 -4.28869,-0.761961 v -2.457941 h 21.97951 z"
           class="cls-4"
           inkscape:connector-curvature="0"
           style="fill:#ffffff;fill-rule:evenodd;stroke-width:2.29579377" />
        <path
           id="path28"
           d="m 335.91268,145.25177 h 3.36662 v 0.27037 h -0.10723 a 0.47175567,0.5407469 0 0 0 -0.32165,0.14748 1.0292851,1.1798114 0 0 0 -0.23588,0.34411 2.1443439,2.4579405 0 0 0 -0.1501,0.44243 1.3080498,1.4993436 0 0 0 0,0.41785 v 6.93139 a 6.6260227,7.5950359 0 0 1 -0.96496,0.31953 l -1.1365,0.22122 -1.20083,0.14755 h -1.1365 a 9.3064526,10.667461 0 0 1 -3.68827,-0.78655 7.7410816,8.8731649 0 0 1 -2.6161,-2.04008 7.1406652,8.1849415 0 0 1 -1.54393,-2.82663 7.8697423,9.0206415 0 0 1 0,-6.36607 6.9476744,7.9637271 0 0 1 1.54393,-2.82664 7.805412,8.9469033 0 0 1 2.63754,-2.01551 9.7353215,11.159049 0 0 1 3.77405,-0.76195 8.1699503,9.3647529 0 0 1 1.52249,0.14746 l 1.24371,0.29495 0.53609,0.14748 h 0.38598 0.21444 v 2.75289 h -0.23588 a 2.1443439,2.4579405 0 0 0 -0.55753,-1.30271 2.8090906,3.219902 0 0 0 -0.94351,-0.76196 4.4173484,5.0633572 0 0 0 -1.13651,-0.34411 8.5773757,9.8317614 0 0 0 -1.11505,0 7.226439,8.2832592 0 0 0 -3.06642,0.68822 6.1971539,7.1034477 0 0 0 -2.14434,1.76972 6.2829277,7.2017654 0 0 0 -1.22228,2.45794 7.3336562,8.4061562 0 0 0 -0.40742,2.70374 6.8190137,7.8162505 0 0 0 0.4932,3.02327 7.2693259,8.332418 0 0 0 3.73116,4.47343 6.9047875,7.9145682 0 0 0 2.95919,0.71281 7.5052037,8.6027915 0 0 0 1.11506,0 4.0099232,4.5963486 0 0 0 1.30805,-0.54073 v -6.24318 a 1.6511448,1.8926141 0 0 0 0,-0.41784 1.3723802,1.573082 0 0 0 -0.1501,-0.44243 1.2437195,1.4256054 0 0 0 -0.25733,-0.34411 0.47175567,0.5407469 0 0 0 -0.32165,-0.14748 H 335.977 v -0.24579 z m 14.19556,-8.33241 a 8.3414979,9.5613882 0 0 1 3.30229,0.7128 7.5480906,8.6519502 0 0 1 2.48744,1.91719 7.3550997,8.4307356 0 0 1 1.65114,2.80206 7.7625251,8.8977444 0 0 1 0.55753,3.31821 7.41943,8.5044739 0 0 1 -0.6433,3.56402 7.2907695,8.3569976 0 0 1 -1.77981,2.80205 8.3843847,9.6105474 0 0 1 -2.6161,1.81888 8.7918102,10.077555 0 0 1 -3.19507,0.66364 8.0627331,9.241856 0 0 1 -3.2594,-0.71281 7.5480906,8.6519502 0 0 1 -2.44456,-1.91719 7.3550997,8.4307356 0 0 1 -1.6297,-2.75289 7.5480906,8.6519502 0 0 1 -0.55753,-3.14617 7.9126292,9.0698004 0 0 1 0.55753,-3.36737 7.5909775,8.7011091 0 0 1 1.58682,-2.87579 7.955516,9.118959 0 0 1 2.55177,-2.04009 8.298611,9.5122293 0 0 1 3.43095,-0.78654 z m 0,16.6894 a 6.4330318,7.3738213 0 0 0 2.7662,-0.78653 6.4330318,7.3738213 0 0 0 1.99424,-1.81888 6.4330318,7.3738213 0 0 0 1.20083,-2.45794 6.9047875,7.9145682 0 0 0 0,-5.4812 7.6338644,8.7502679 0 0 0 -1.35093,-2.62999 6.9691179,7.9883065 0 0 0 -2.14435,-1.9172 5.7253983,6.5627009 0 0 0 -2.72331,-0.73738 5.4251901,6.2185892 0 0 0 -2.6161,0.7128 6.5831358,7.545877 0 0 0 -1.9728,1.81888 7.1835521,8.2341003 0 0 0 -1.67259,5.16167 6.7546834,7.7425124 0 0 0 0.45031,2.9741 7.955516,9.118959 0 0 0 1.37238,2.45795 7.0120048,8.0374653 0 0 0 2.14435,1.89262 5.468077,6.267748 0 0 0 2.59465,0.7128 z m 10.91471,0.39328 h 0.10721 a 0.49319911,0.56532631 0 0 0 0.32165,-0.14754 1.2437195,1.4256054 0 0 0 0.25732,-0.34412 1.6725882,1.9171934 0 0 0 0.17155,-0.44243 1.3938236,1.5976614 0 0 0 0,-0.44243 v -13.8382 a 1.3294932,1.523923 0 0 0 0,-0.41785 1.6725882,1.9171934 0 0 0 -0.17155,-0.44243 1.2437195,1.4256054 0 0 0 -0.25732,-0.34411 0.49319911,0.56532631 0 0 0 -0.32165,-0.14747 h -0.1501 v -0.27038 h 3.38806 v 0.27037 h -0.10722 a 0.49319911,0.56532631 0 0 0 -0.32165,0.14748 1.0507285,1.2043907 0 0 0 -0.23588,0.34411 2.1443439,2.4579405 0 0 0 -0.1501,0.44243 1.3509367,1.5485025 0 0 0 0,0.41785 v 14.5756 h 5.14642 a 1.4581538,1.6713994 0 0 0 0.77196,-0.22124 1.951353,2.2367259 0 0 0 0.55753,-0.58989 2.1443439,2.4579405 0 0 0 0.32166,-0.73738 2.2515612,2.5808375 0 0 0 0,-0.73739 h 0.23587 v 3.26907 h -9.60665 v -0.27038 z m 15.13906,0 h 0.10723 v 0.27038 h -3.40951 v -0.27038 h 0.10723 a 0.49319911,0.56532631 0 0 0 0.32165,-0.14754 1.2651629,1.4501848 0 0 0 0.25732,-0.34412 1.3723802,1.573082 0 0 0 0.15011,-0.44243 1.6940317,1.9417729 0 0 0 0,-0.44243 v -13.8382 a 1.6082579,1.8434553 0 0 0 0,-0.41785 1.5868144,1.8188758 0 0 0 -0.15011,-0.44243 0.96495477,1.1060732 0 0 0 -0.23587,-0.34411 0.53608598,0.6144851 0 0 0 -0.3431,-0.14747 h -0.10723 v -0.27038 h 9.02769 v 2.45794 h -0.23588 a 1.3080498,1.4993436 0 0 0 -0.36454,-1.05691 1.4795974,1.695979 0 0 0 -1.1365,-0.44243 h -4.80333 v 6.53812 h 3.9027 a 1.3294932,1.523923 0 0 0 0.90063,-0.36869 0.96495477,1.1060732 0 0 0 0.36454,-0.86028 h 0.23587 v 3.24449 h -0.23587 a 0.87918102,1.0077555 0 0 0 -0.3431,-0.81112 1.3938236,1.5976614 0 0 0 -0.92207,-0.34412 h -3.9027 v 7.10345 a 1.6940317,1.9417729 0 0 0 0,0.44242 1.3723802,1.573082 0 0 0 0.1501,0.44244 1.222276,1.401026 0 0 0 0.25732,0.34412 0.49319911,0.56532631 0 0 0 0.32165,0.14754 z m 21.93664,-16.14866 a 7.0977783,8.1357827 0 0 0 -3.02352,0.68822 6.4330318,7.3738213 0 0 0 -2.14434,1.79429 6.4330318,7.3738213 0 0 0 -1.26517,2.45794 7.226439,8.2832592 0 0 0 -0.40742,2.70373 6.6045793,7.5704565 0 0 0 0.60041,2.94953 7.2907695,8.3569976 0 0 0 1.50104,2.58083 7.5480906,8.6519502 0 0 0 2.14435,1.81888 6.4330318,7.3738213 0 0 0 2.74476,0.68823 6.5831358,7.545877 0 0 0 1.00784,0 4.288688,4.915881 0 0 0 1.1365,-0.39328 3.6882716,4.2276576 0 0 0 1.05073,-0.83568 3.0878553,3.5394343 0 0 0 0.70764,-1.40103 h 0.23587 v 2.8758 a 3.2808463,3.760649 0 0 0 -0.75052,0 l -0.85774,0.2212 -1.35093,0.34411 a 8.684593,9.9546584 0 0 1 -1.56537,0.14755 8.9419142,10.249611 0 0 1 -3.6025,-0.78655 7.8268554,8.9714826 0 0 1 -2.57321,-2.0155 7.1835521,8.2341003 0 0 1 -1.54393,-2.80205 7.8268554,8.9714826 0 0 1 -0.42887,-3.14617 7.9126292,9.0698004 0 0 1 0.51464,-3.17074 7.0977783,8.1357827 0 0 1 1.56537,-2.82663 7.8911858,9.045221 0 0 1 2.65899,-2.04009 9.6066609,11.011573 0 0 1 3.77404,-0.78655 6.6474662,7.6196153 0 0 1 1.39383,0.14747 l 1.11506,0.31953 0.6433,0.19664 h 0.57897 v 2.87579 h -0.23587 a 2.5732127,2.9495284 0 0 0 -1.39383,-2.13841 4.0313666,4.620928 0 0 0 -1.07217,-0.39327 6.4330318,7.3738213 0 0 0 -1.11506,0 z m 7.31222,16.14866 h 0.10722 a 0.49319911,0.56532631 0 0 0 0.32166,-0.14754 1.2651629,1.4501848 0 0 0 0.25732,-0.34412 1.7154751,1.9663523 0 0 0 0.17155,-0.44243 1.4152669,1.6222406 0 0 0 0,-0.44243 v -13.8382 a 1.3509367,1.5485025 0 0 0 0,-0.41785 1.7369186,1.9909318 0 0 0 -0.17155,-0.44243 1.2437195,1.4256054 0 0 0 -0.25732,-0.34411 0.49319911,0.56532631 0 0 0 -0.32166,-0.14747 h -0.1501 v -0.27038 h 3.38806 v 0.27038 h -0.10718 a 0.49319911,0.56532631 0 0 0 -0.32165,0.14747 1.0292851,1.1798114 0 0 0 -0.23588,0.34411 2.1443439,2.4579405 0 0 0 -0.15011,0.44243 1.3294932,1.523923 0 0 0 0,0.41785 v 14.5756 h 5.14642 a 1.4581538,1.6713994 0 0 0 0.77197,-0.22124 1.951353,2.2367259 0 0 0 0.55753,-0.58989 2.1443439,2.4579405 0 0 0 0.32165,-0.73737 2.1443439,2.4579405 0 0 0 0,-0.73739 h 0.23588 v 3.26907 h -9.60667 v -0.27038 z m 11.04336,-16.8123 h 3.28086 v 0.27036 h -0.10719 a 0.49319911,0.56532631 0 0 0 -0.32165,0.14748 1.2008326,1.3764466 0 0 0 -0.25733,0.34411 1.3509367,1.5485025 0 0 0 -0.1501,0.44243 1.6082579,1.8434553 0 0 0 0,0.41784 V 149.037 a 6.6045793,7.5704565 0 0 0 0.19299,1.86804 3.2165159,3.6869106 0 0 0 0.64331,1.47476 2.980638,3.4165371 0 0 0 1.17939,0.95859 4.6317829,5.3091514 0 0 0 1.7798,0.34411 4.1600273,4.7684045 0 0 0 1.88703,-0.41785 2.7662037,3.1707432 0 0 0 1.07216,-1.08148 3.3022897,3.7852284 0 0 0 0.4932,-1.49934 8.8346971,10.126714 0 0 0 0.10719,-1.62226 v -10.27418 a 1.6297013,1.8680346 0 0 0 0,-0.41785 1.3723802,1.573082 0 0 0 -0.15011,-0.44242 1.2008326,1.3764466 0 0 0 -0.25732,-0.34412 0.45031222,0.51616748 0 0 0 -0.30021,-0.14747 h -0.12872 v -0.27038 h 2.57321 v 0.27038 h -0.10719 a 0.45031222,0.51616748 0 0 0 -0.32164,0.14746 1.3938236,1.5976614 0 0 0 -0.23588,0.34412 1.3509367,1.5485025 0 0 0 -0.1501,0.44243 1.6297013,1.8680346 0 0 0 0,0.41785 v 10.20045 a 6.4330318,7.3738213 0 0 1 -0.38598,2.7529 3.6024978,4.1293399 0 0 1 -1.02929,1.69597 3.6882716,4.2276576 0 0 1 -1.54392,0.86028 8.298611,9.5122293 0 0 1 -1.86559,0.22122 8.5773757,9.8317614 0 0 1 -1.9728,-0.24579 3.8169323,4.375134 0 0 1 -1.56536,-0.86029 3.6239412,4.1539193 0 0 1 -1.02929,-1.69598 6.4330318,7.3738213 0 0 1 -0.38597,-2.70374 v -10.22502 a 1.6297013,1.8680346 0 0 0 0,-0.41785 1.3938236,1.5976614 0 0 0 -0.15012,-0.44243 1.2437195,1.4256054 0 0 0 -0.25732,-0.34412 0.45031222,0.51616748 0 0 0 -0.3002,-0.14746 h -0.10719 v -0.27038 z m 14.66731,16.8123 h 0.10719 a 0.4288688,0.4915881 0 0 0 0.30021,-0.14754 1.4581538,1.6713994 0 0 0 0.25731,-0.3687 1.3509367,1.5485025 0 0 0 0.15012,-0.44243 1.8655792,2.1384082 0 0 0 0,-0.44243 v -13.76447 a 1.6297013,1.8680346 0 0 0 0,-0.41785 1.5224843,1.7451378 0 0 0 -0.15012,-0.44243 1.072172,1.2289702 0 0 0 -0.25731,-0.36869 0.53608598,0.6144851 0 0 0 -0.34311,-0.14747 h -0.12872 v -0.27037 h 3.85982 a 5.5967377,6.4152246 0 0 1 3.43095,1.05691 2.9163078,3.3427991 0 0 1 1.24371,2.82663 2.8090906,3.219902 0 0 1 -0.23587,1.35187 3.6024978,4.1293399 0 0 1 -0.60041,1.05692 4.1600273,4.7684045 0 0 1 -0.79341,0.78654 6.6045793,7.5704565 0 0 1 -0.79341,0.54075 4.4816788,5.1370954 0 0 1 1.65115,0.68822 4.0099232,4.5963486 0 0 1 1.07216,1.13065 3.3666201,3.8589666 0 0 1 0.55754,1.35187 5.0820952,5.8253189 0 0 1 0.17154,1.4256 4.0099232,4.5963486 0 0 1 -0.4503,2.2613 3.7526019,4.3013957 0 0 1 -1.17939,1.49935 4.9534345,5.6778424 0 0 1 -1.69404,0.8357 8.448715,9.6842854 0 0 1 -1.95135,0.27038 h -4.28869 v -0.27038 z m 7.91263,-4.42429 a 4.0956969,4.6946662 0 0 0 -1.22227,-3.09701 4.1385838,4.743825 0 0 0 -2.91631,-1.08149 h -1.30806 v 7.96373 h 1.37239 a 4.8676607,5.5795247 0 0 0 3.00209,-0.9586 2.7233168,3.1215844 0 0 0 1.09362,-2.62999 v -0.29496 z m -0.96495,-8.28325 a 2.830534,3.2444813 0 0 0 -0.94352,-2.45795 3.4523937,3.9572841 0 0 0 -2.35877,-0.88486 h -1.1794 v 6.53812 h 1.15795 a 4.4173484,5.0633572 0 0 0 1.60827,-0.29495 2.7876471,3.1953225 0 0 0 1.00784,-0.73737 2.1443439,2.4579405 0 0 0 0.51464,-1.00777 3.2379594,3.7114901 0 0 0 0.15011,-1.05691 z"
           class="cls-3"
           inkscape:connector-curvature="0"
           style="fill:#e6b000;fill-rule:evenodd;stroke-width:2.29579377" />
        <path
           id="path30"
           d="m 315.7344,147.90635 -33.58042,-3.53944 c -10.89327,-1.15522 -12.20132,-1.0569 -0.21444,-0.86028 l 34.30951,0.56533 c 1.39382,0 1.17938,-0.14746 1.20083,0.76196 v 2.45794 c -0.0429,1.15523 -0.0214,0.78654 -1.71548,0.61449 z"
           class="cls-3"
           inkscape:connector-curvature="0"
           style="fill:#e6b000;fill-rule:evenodd;stroke-width:2.29579377" />
        <path
           id="path32"
           d="m 450.39919,147.90635 33.66618,-3.53944 c 10.89328,-1.15522 12.20132,-1.0569 0.21446,-0.86028 l -34.30951,0.56533 c -1.39382,0 -1.17939,-0.14746 -1.20082,0.76196 v 2.45794 c -0.0214,1.15523 -0.0429,0.78654 1.62969,0.61449 z"
           class="cls-3"
           inkscape:connector-curvature="0"
           style="fill:#e6b000;fill-rule:evenodd;stroke-width:2.29579377" />
      </g>
    </g>
  </g>
</svg>
