<?xml version="1.0" encoding="utf-8"?><svg xmlns="http://www.w3.org/2000/svg" xmlns:xlink="http://www.w3.org/1999/xlink"><symbol viewBox="0 0 344.96 344.96" id="check" xmlns="http://www.w3.org/2000/svg"><defs><style>.acls-1{fill:#e75713}</style></defs><g id="aСлой_2" data-name="Слой 2"><path class="acls-1" d="M321.85 86.24l-40-23.11-23.1-40H212.5L172.48 0l-40 23.11H86.24l-23.11 40-40 23.1v46.21L0 172.48l23.11 40v46.21l40 23.11 23.11 40h46.21l40 23.1 40-23.11h46.21l23.11-40 40-23.11V212.5l23.11-40-23.11-40V86.24zM156.91 243.07a16.79 16.79 0 0 1-23.34 0l-50.45-50.44a16.19 16.19 0 0 1 0-22.89l13.35-13.35a16.19 16.19 0 0 1 22.89 0l25.87 25.87 80.34-80.35a16.19 16.19 0 0 1 22.89 0l13.35 13.35a16.19 16.19 0 0 1 0 22.89z" id="aCapa_1" data-name="Capa 1"/></g></symbol><symbol viewBox="0 0 39.5 39" id="soc-1" xmlns="http://www.w3.org/2000/svg"><defs><style>.bcls-1{fill:none;stroke:#aa872e;stroke-width:1px;fill-rule:evenodd}</style></defs><path id="bsoc-1" class="bcls-1" d="M19.5 0a19.495 19.495 0 1 0 19.494 19.5A19.517 19.517 0 0 0 19.5 0zm4.848 20.181h-3.172v11.311h-4.7V20.185h-2.234v-4h2.234v-2.579c0-1.851.88-4.743 4.743-4.743l3.481.013v3.878h-2.528a.956.956 0 0 0-1 1.088v2.348h3.581z"/></symbol><symbol viewBox="0 0 40 39" id="soc-2" xmlns="http://www.w3.org/2000/svg"><defs><style>.ccls-1{fill:none;stroke:#aa872e;stroke-width:1px;fill-rule:evenodd}</style></defs><path id="csoc-2" class="ccls-1" d="M82.5 0A19.5 19.5 0 1 0 102 19.5 19.5 19.5 0 0 0 82.5 0zm9.7 15.123l.014.621a13.655 13.655 0 0 1-21.02 11.5 10.1 10.1 0 0 0 1.146.069 9.642 9.642 0 0 0 5.96-2.052 4.807 4.807 0 0 1-4.485-3.335 4.913 4.913 0 0 0 .9.083 4.8 4.8 0 0 0 1.265-.167 4.806 4.806 0 0 1-3.852-4.707v-.061a4.791 4.791 0 0 0 2.175.6 4.807 4.807 0 0 1-1.486-6.408 13.625 13.625 0 0 0 9.895 5.017 4.806 4.806 0 0 1 8.184-4.379 9.726 9.726 0 0 0 3.049-1.164 4.818 4.818 0 0 1-2.102 2.66 9.609 9.609 0 0 0 2.757-.756 9.692 9.692 0 0 1-2.4 2.479z" transform="translate(-62.5)"/></symbol><symbol viewBox="0 0 39 39" id="soc-3" xmlns="http://www.w3.org/2000/svg"><defs><style>.dcls-1{fill:#aa872e;fill-rule:evenodd}</style></defs><path id="dsoc-3" class="dcls-1" d="M159.289 5.711a19.5 19.5 0 0 0-27.578 27.577 19.5 19.5 0 0 0 27.578-27.577zM145.5 37.769A18.268 18.268 0 1 1 163.768 19.5 18.289 18.289 0 0 1 145.5 37.769zm7-30.379h-14a5.12 5.12 0 0 0-5.11 5.11v14a5.12 5.12 0 0 0 5.114 5.114H152.5a5.121 5.121 0 0 0 5.115-5.115V12.5a5.121 5.121 0 0 0-5.115-5.11zm3.879 19.11a3.887 3.887 0 0 1-3.883 3.883H138.5a3.887 3.887 0 0 1-3.883-3.883v-14a3.887 3.887 0 0 1 3.883-3.879h14a3.887 3.887 0 0 1 3.883 3.883V26.5zm-4.526-7.36a6.37 6.37 0 1 0-3 5.766.611.611 0 0 0 .11-.949l-.009-.009a.614.614 0 0 0-.76-.082 5.1 5.1 0 0 1-2.754.77 5.138 5.138 0 1 1 4.589-2.732.612.612 0 0 0 .1.723l.009.009a.608.608 0 0 0 .965-.138 6.328 6.328 0 0 0 .75-3.362zm.215-8.667a1.642 1.642 0 1 1-1.642 1.642 1.643 1.643 0 0 1 1.642-1.647z" transform="translate(-126)"/></symbol><symbol viewBox="0 0 39.5 39" id="soc-4" xmlns="http://www.w3.org/2000/svg"><defs><style>.ecls-1{fill:none;stroke:#aa872e;stroke-width:1px;fill-rule:evenodd}</style></defs><path id="esoc-4" class="ecls-1" d="M208.58 39C195.5 39 189 27.66 189 19.585 189 6.822 199.726 0 208.541 0 217.471 0 228 7.764 228 19.63 228 27 221.771 39 208.58 39zm7.466-27.617l-19.607 7.662a.718.718 0 0 0 .061 1.355l4.982 1.475 1.86 5.917a.854.854 0 0 0 1.427.342l2.576-2.638 5.055 3.72a1.054 1.054 0 0 0 1.656-.636l3.344-16.047a1.01 1.01 0 0 0-1.354-1.15zM204.48 23.021a.5.5 0 0 0-.162.313l-.35 3.126a.094.094 0 0 1-.184.018l-1.443-4.662a.492.492 0 0 1 .209-.562l10.755-6.689a.238.238 0 0 1 .283.381z" transform="translate(-188.5)"/></symbol></svg>