<?xml version="1.0" encoding="utf-8"?><svg xmlns="http://www.w3.org/2000/svg" xmlns:xlink="http://www.w3.org/1999/xlink"><symbol viewBox="0 0 455 455" id="arr" xmlns="http://www.w3.org/2000/svg"><g data-name="Слой 2"><path d="M227.5 0C101.86 0 0 101.86 0 227.5S101.86 455 227.5 455 455 353.14 455 227.5 353.14 0 227.5 0zm-28 355.59l-21.25-21.18L284.79 227.5 178.23 120.59l21.25-21.18L327.15 227.5z" data-name="Layer 1"/></g></symbol><symbol viewBox="0 0 344.96 344.96" id="check" xmlns="http://www.w3.org/2000/svg"><defs><style>.bcls-1{fill:#e75713}</style></defs><g id="bСлой_2" data-name="Слой 2"><path class="bcls-1" d="M321.85 86.24l-40-23.11-23.1-40H212.5L172.48 0l-40 23.11H86.24l-23.11 40-40 23.1v46.21L0 172.48l23.11 40v46.21l40 23.11 23.11 40h46.21l40 23.1 40-23.11h46.21l23.11-40 40-23.11V212.5l23.11-40-23.11-40V86.24zM156.91 243.07a16.79 16.79 0 0 1-23.34 0l-50.45-50.44a16.19 16.19 0 0 1 0-22.89l13.35-13.35a16.19 16.19 0 0 1 22.89 0l25.87 25.87 80.34-80.35a16.19 16.19 0 0 1 22.89 0l13.35 13.35a16.19 16.19 0 0 1 0 22.89z" id="bCapa_1" data-name="Capa 1"/></g></symbol><symbol viewBox="0 0 204.5 242.86" id="lapa" xmlns="http://www.w3.org/2000/svg"><defs><style>.ccls-1{fill:none}.ccls-2{clip-path:url(#cclip-path)}.ccls-3{fill:#59546d;fill-rule:evenodd}</style><clipPath id="cclip-path"><path class="ccls-1" d="M0 0h204.5v242.86H0z"/></clipPath></defs><g id="cСлой_2" data-name="Слой 2"><g class="ccls-2" id="cСлой_1-2" data-name="Слой 1"><path class="ccls-3" d="M.68 188.77C-4.9 155.41 25.24 162.1 40 151.94c16.63-11.44 16-30.73 39-37.79a52.5 52.5 0 0 1 32.12.76c6.6 2.46 18.51 9.52 23 15.27 6.94 8.84 4.35 21.46 7.88 31.74 6.26 18.21 33 22.57 31.85 45.1-.54 10.67-7.12 18.58-14.57 24.73-18.49 15.28-36.07 13.37-55.86 2.92-22.69-12-28.65-20.78-56.17-18.2-10.46 1-22.5 2.32-31.93-3.82-7-4.56-13.19-15.28-14.63-23.88M124.73 41.56c26 6.57 11.41 70.58-15.7 64-26-6.35-11.75-70.89 15.7-64"/><path class="ccls-3" d="M176.93 97.52c-3 40.29-45.59 53.25-42.82 11.36 2.66-40.22 45.94-53.84 42.82-11.36m25.65 46.16c-1.22 36-47.76 53.11-46.4 15.92 1.32-36.14 47.63-52.42 46.4-15.92M71.51 45.78c27.43 3.48 23.25 71.15-4.66 67.83-27.4-3.26-23.4-71.39 4.66-67.83M46 119.27c-2.68 39.44-41.44 38-38.72-2.93 2.66-40.11 41.5-38 38.72 2.93"/><path class="ccls-3" d="M33.15 85.66c-1.87.36-5.48-.53-8.08-.36-2.77.18-5.25 1.72-7.9 1.75C16 71.89 36.37 46.24 45 46.66c0 4.24-8 15.62-10.39 27.24-.83 4-.73 8.33-1.46 11.76M76.8 45.18c-2.33-.18-4.8-1.34-7.54-1.59-3-.27-5.35 1-8.14.91-.56-6.4 7.5-18.5 11.48-23.16 4.51-5.25 13.82-13 20.49-13.66-.2 2.52-6.81 11.77-9.52 17.08C77.83 36 78.85 41.39 76.8 45.18m117.14 32.51a6.7 6.7 0 0 1 2.22 2.31c2.66 4.89 7.13 15.76 7.84 20.4.77 5.12 1.09 24-2.35 27.27-2-.19-4.26-3.75-6.22-5.25-2.47-1.88-5.67-2.39-7.25-3.71 1.35-2.6 3.67-12.41 5.08-20.23 1.31-7.31.69-20.75.69-20.75m-59.67-35c-1.55-.4-4.06-3.18-6.63-4.21-4.11-1.64-6.57-.63-9-1.36C116.77 31.61 134.95.88 138.76 0c2.42 4.07.32 39-4.48 42.73m34.22-4.05c.07-4.64.41-8.25.61-11.87l.54.56a23 23 0 0 1 4.13 5.83c2.79 5.61 3.67 7.84 4.84 16.17.8 5.75.63 22.46-2.8 26.78-1.54-.15-4.06-3.79-5.82-5.15-2.43-1.8-6.08-2.89-7.45-4-.23-2.82 6.27-12.87 6-28.34"/></g></g></symbol><symbol viewBox="0 0 207.12 246.07" id="lapa-out" xmlns="http://www.w3.org/2000/svg"><defs><style>.dcls-1{fill:none;stroke:#59546d;stroke-miterlimit:10;stroke-width:3px;fill-rule:evenodd}</style></defs><g id="dСлой_2" data-name="Слой 2"><g id="d_1" data-name="1"><path class="dcls-1" d="M2.18 190.48c-5.58-33.36 24.56-26.67 39.32-36.83 16.63-11.45 16-30.73 39-37.79a52.5 52.5 0 0 1 32.12.76c6.6 2.46 18.51 9.52 23 15.27 6.94 8.84 4.35 21.46 7.88 31.74 6.26 18.21 33 22.57 31.85 45.1-.54 10.67-7.12 18.57-14.57 24.73-18.48 15.28-36.07 13.37-55.86 2.92-22.69-12-28.65-20.79-56.17-18.2-10.46 1-22.5 2.32-31.93-3.82-7-4.56-13.2-15.27-14.64-23.88zm122.43-141.3c24.63 6 10.82 64.3-14.88 58.26-24.62-5.78-11.15-64.58 14.88-58.26zM177 102.06c-2.68 34.1-41.19 45.07-38.69 9.62 2.39-34.05 41.5-45.58 38.69-9.62z"/><path class="dcls-1" d="M198.95 148.72c-1 32.91-38.85 48.55-37.75 14.55 1.07-33.04 38.75-47.92 37.75-14.55zM70.22 55c24.38 2.92 20.67 59.73-4.14 56.94C41.72 109.19 45.28 52 70.22 55zm-25.77 68.25C42 159.78 6.07 158.44 8.59 120.54 11.06 83.39 47 85.3 44.45 123.25z"/><path class="dcls-1" d="M35.55 88c-1.86.36-6.39-1.19-9-1-2.77.18-5.25 1.72-7.9 1.75-.84-11 12.14-27.75 20.47-35.9a21.26 21.26 0 0 1 7.35-4.48 45.31 45.31 0 0 1-1.76 8.15c-1.79 5.61-4.79 12.58-6.17 19.17-.82 3.97-2.26 8.89-2.99 12.31zM78.3 46.89c-2.33-.16-4.81-1.33-7.53-1.58-3-.27-5.35 1-8.14.91-.56-6.4 7.5-18.52 11.48-23.16 4.5-5.25 13.81-13 20.49-13.66-4.28 9.21-6.81 11.77-9.52 17.08-5.75 11.23-4.73 16.62-6.78 20.41zM195.44 79.4a52.53 52.53 0 0 1 4.7 7 64.68 64.68 0 0 1 5.36 15.71c.71 4.67-1.83 23.52-2.28 26.79a.21.21 0 0 1-.38.11 37.62 37.62 0 0 0-6-5.86c-2.71-1.92-5.54-2.17-7.13-2.72 1.35-2.6 3.67-12.41 5.08-20.23 1.27-7.36.65-20.8.65-20.8zm-59.66-34.96a21.22 21.22 0 0 0-6.63-4.21A23.76 23.76 0 0 0 118.44 39c-.36-5.33 18-36.39 21.82-37.27 2.42 4.05.32 39.02-4.48 42.71zM170 40.39c.07-4.64.41-8.25.61-11.87l.54.56a23 23 0 0 1 4.13 5.83c2.79 5.61 3.67 7.84 4.84 16.17.8 5.75.63 22.45-2.8 26.78-1.54-.19-4.06-3.79-5.86-5.12-2.43-1.8-6.08-2.89-7.45-4-.23-2.83 6.27-12.88 5.99-28.35z"/></g></g></symbol><symbol viewBox="0 0 491.35 512" id="light-bulb" xmlns="http://www.w3.org/2000/svg"><defs><style>.ecls-1{fill:#fff}</style></defs><g id="eСлой_2" data-name="Слой 2"><g id="eCapa_1" data-name="Capa 1"><path id="e_Составной_контур_" data-name="&lt;Составной контур>" class="ecls-1" d="M304 447.42v15a23.73 23.73 0 0 1-20.12 23.49l-3.69 13.59A16.91 16.91 0 0 1 263.9 512h-36.56A16.91 16.91 0 0 1 211 499.46l-3.58-13.59a23.83 23.83 0 0 1-20.23-23.6v-15a14.39 14.39 0 0 1 14.43-14.43h88A14.55 14.55 0 0 1 304 447.42zm67.74-201.64a125.5 125.5 0 0 1-35.4 87.55 115.67 115.67 0 0 0-31 62.79 20.85 20.85 0 0 1-20.65 17.59h-78.2a20.65 20.65 0 0 1-20.54-17.49 117 117 0 0 0-31.18-63 126.12 126.12 0 1 1 217-87.44zM259.9 169.4a14.23 14.23 0 0 0-14.22-14.22 91.11 91.11 0 0 0-91 91 14.22 14.22 0 0 0 28.44 0 62.65 62.65 0 0 1 62.58-62.58 14.16 14.16 0 0 0 14.2-14.2zm-14.22-91.13a14.23 14.23 0 0 0 14.22-14.22V14.22a14.22 14.22 0 0 0-28.44 0v49.83a14.23 14.23 0 0 0 14.22 14.22zM78.27 245.68a14.23 14.23 0 0 0-14.22-14.22H14.22a14.22 14.22 0 0 0 0 28.44h49.83a14.16 14.16 0 0 0 14.22-14.22zm398.85-14.22H427.3a14.22 14.22 0 0 0 0 28.44h49.83a14.22 14.22 0 1 0 0-28.44zM107.25 364.09L72 399.38a14.19 14.19 0 0 0 20 20.12l35.29-35.29a14.19 14.19 0 0 0-20-20.12zM374.1 131.48a14.2 14.2 0 0 0 10-4.11l35.3-35.29A14.23 14.23 0 1 0 399.28 72L364 107.25a14.18 14.18 0 0 0 0 20.12 14.45 14.45 0 0 0 10.1 4.11zm-266.85-4.21a14.19 14.19 0 0 0 20-20.12L92 71.85A14.23 14.23 0 1 0 71.85 92zm276.86 236.82A14.23 14.23 0 0 0 364 384.21l35.29 35.29a14.19 14.19 0 0 0 20-20.12z"/></g></g></symbol><symbol viewBox="0 0 1005.59 291.27" id="logo" xmlns="http://www.w3.org/2000/svg"><defs><style>.fcls-1,.fcls-3,.fcls-4{fill:none;stroke:#59546d}.fcls-1,.fcls-3{stroke-miterlimit:22.93}.fcls-1{stroke-width:7.81px}.fcls-2{fill:#59546d}.fcls-3{stroke-width:2px}.fcls-4{stroke-miterlimit:5;stroke-width:.27px}</style></defs><g id="fСлой_2" data-name="Слой 2"><g id="fСлой_1-2" data-name="Слой 1"><g id="fСлой_2-2" data-name="Слой 2"><g id="fСлой_1-2-2" data-name="Слой 1-2"><path class="fcls-1" d="M940.61 3.9h-250l-.55 283.46h250.55a61.07 61.07 0 0 0 61.07-61.07V65a61.07 61.07 0 0 0-61-61.1z"/><path class="fcls-2" d="M746.11 205.76c.67 8.64 6.58 20.05 13.07 25.24 8.6 6.88 21.06 5.88 31.12 4.92 28.11-2.67 32.27 3.92 55.54 16.61 19.77 10.79 35.8 14.7 55.49.23 7.19-5.28 14.11-12.9 15.65-22.54 3.54-22.24-22.45-27.66-30.4-44.3-8.07-16.84 5.42-32.5-28.58-47.92-9.63-4.35-21.61-5-31.73-2.46-23 5.68-23.07 23.88-38.86 36.82-9 7.34-17.25 6.11-27 9.89-9.31 3.61-15.17 12.36-14.31 23.47m-.73 3.71c-5.58-33.36 24.56-26.67 39.32-36.83 16.63-11.45 16-30.73 39-37.79a52.5 52.5 0 0 1 32.12.76c6.6 2.46 18.51 9.52 23 15.28 6.94 8.84 4.35 21.46 7.88 31.74 6.26 18.21 33 22.57 31.85 45.1-.54 10.67-7.12 18.57-14.57 24.73-18.49 15.28-36.07 13.37-55.86 2.92-22.69-12-28.65-20.78-56.17-18.2-10.46 1-22.5 2.32-31.93-3.82-7-4.56-13.2-15.28-14.63-23.88"/><path class="fcls-3" d="M746.11 205.76c.67 8.64 6.58 20.05 13.07 25.24 8.6 6.88 21.06 5.88 31.12 4.92 28.11-2.67 32.27 3.92 55.54 16.61 19.77 10.79 35.8 14.7 55.49.23 7.19-5.28 14.11-12.9 15.65-22.54 3.54-22.24-22.45-27.66-30.4-44.3-8.07-16.84 5.42-32.5-28.58-47.92-9.63-4.35-21.61-5-31.73-2.46-23 5.68-23.07 23.88-38.86 36.82-9 7.34-17.25 6.11-27 9.89-9.3 3.67-15.15 12.4-14.3 23.51zm-.73 3.71c-5.58-33.36 24.56-26.67 39.32-36.83 16.63-11.45 16-30.73 39-37.79a52.5 52.5 0 0 1 32.12.76c6.6 2.46 18.51 9.52 23 15.28 6.94 8.84 4.35 21.46 7.88 31.74 6.26 18.21 33 22.57 31.85 45.1-.54 10.67-7.12 18.57-14.57 24.73-18.49 15.28-36.07 13.37-55.86 2.92-22.69-12-28.65-20.78-56.17-18.2-10.46 1-22.5 2.32-31.93-3.82-7-4.56-13.2-15.28-14.64-23.88z"/><path class="fcls-2" d="M881.42 93.82c1.69-13.2-3.22-34.61-19.33-30.12-11.47 3.2-18.84 19.07-20.42 30.85-1.79 13.32 3.18 34.61 19.36 30.07 11.42-3.21 18.88-19 20.39-30.8m-12-31.56c26 6.57 11.41 70.58-15.7 64-26-6.35-11.75-70.89 15.7-64"/><path class="fcls-3" d="M881.42 93.82c1.69-13.2-3.22-34.61-19.33-30.12-11.47 3.2-18.84 19.07-20.42 30.85-1.79 13.32 3.18 34.61 19.36 30.07 11.43-3.2 18.89-19.03 20.39-30.8zm-12-31.56c26 6.57 11.41 70.58-15.7 64-25.95-6.39-11.73-70.93 15.71-64z"/><path class="fcls-2" d="M920.41 118.24c2.82-40-36.71-27.62-40.18 10.72-1.35 14.88 6.47 32.68 22.46 22.38 10-6.43 16.85-20.71 17.72-33.1m1.22 0c-3 40.29-45.59 53.25-42.82 11.36 2.66-40.22 45.94-53.84 42.82-11.36"/><path class="fcls-3" d="M920.41 118.24c2.82-40-36.71-27.62-40.18 10.72-1.35 14.88 6.47 32.68 22.46 22.38 9.97-6.44 16.84-20.72 17.72-33.1zm1.22 0c-3 40.29-45.59 53.25-42.82 11.36 2.66-40.22 45.94-53.84 42.82-11.36z"/><path class="fcls-2" d="M935.44 145.76c-11.84-3.61-23.68 8.36-28.93 18.74-5.33 10.54-7.82 30.75 5.83 34.76 24.88 7.32 47.85-46 23.1-53.51m11.85 18.62c-1.22 36-47.76 53.11-46.4 15.92 1.32-36.14 47.63-52.42 46.4-15.92"/><path class="fcls-3" d="M935.44 145.76c-11.84-3.61-23.68 8.36-28.93 18.74-5.33 10.54-7.82 30.75 5.83 34.76 24.87 7.33 47.85-45.95 23.1-53.5zm11.85 18.62c-1.22 36-47.76 53.11-46.4 15.92 1.31-36.14 47.63-52.42 46.4-15.92z"/><path class="fcls-2" d="M833.48 103.91c3.45-44-36.21-48.82-39.26-6.89-3.2 44 36 48.4 39.26 6.89m-17.27-37.42c27.43 3.48 23.25 71.15-4.66 67.83-27.4-3.26-23.4-71.39 4.66-67.83"/><path class="fcls-3" d="M833.48 103.91c3.45-44-36.21-48.82-39.26-6.89-3.22 44.04 36.01 48.4 39.26 6.89zm-17.27-37.42c27.43 3.48 23.25 71.15-4.66 67.83-27.4-3.26-23.4-71.4 4.66-67.83z"/><path class="fcls-2" d="M775.39 109.74c-23-6.48-31.45 51-8.59 57.39 23.11 6.51 32.49-50.65 8.59-57.39M790.66 140c-2.68 39.44-41.44 38-38.72-2.93 2.66-40.11 41.5-38 38.72 2.93"/><path class="fcls-3" d="M775.39 109.74c-23-6.48-31.45 51-8.59 57.39 23.11 6.51 32.49-50.64 8.59-57.39zM790.66 140c-2.68 39.44-41.44 38-38.72-2.93 2.67-40.12 41.52-38.07 38.72 2.93z"/><path class="fcls-2" d="M786.5 69.92c-6.35 5.28-10 7.21-15 14.65-3.2 4.76-8.29 15.89-8.32 21.72 3.94-2.54 8.79-1.41 13.2-1.49l.4.55.33-2.54c-.42-5 1.93-13.49 3.7-18.18 1.7-4.5 5.41-10 6.58-13.8l.72-1.95zm-8.64 36.45c-1.87.36-5.48-.53-8.08-.36-2.77.18-5.25 1.72-7.9 1.75-1.16-15.15 19.21-40.81 27.82-40.39 0 4.24-8 15.61-10.37 27.24-.83 4-.73 8.33-1.46 11.76"/><path class="fcls-3" d="M786.5 69.92c-6.35 5.28-10 7.21-15 14.65-3.2 4.76-8.29 15.89-8.32 21.72 3.94-2.54 8.79-1.41 13.2-1.49l.4.55.33-2.54c-.42-5 1.93-13.49 3.7-18.18 1.7-4.5 5.41-10 6.58-13.8l.72-1.95zm-8.64 36.45c-1.87.36-5.48-.53-8.08-.36-2.77.18-5.25 1.72-7.9 1.75-1.16-15.15 19.21-40.81 27.82-40.39 0 4.24-8 15.61-10.37 27.24-.84 4-.74 8.33-1.47 11.77z"/><path class="fcls-2" d="M835.65 30.32c-5.85 2.37-13.61 7.85-17.68 13-3.76 4.75-10.14 14.41-10.87 20.6 3.87-1.54 9.62-1.17 13.41.56 1.24-2 1.59-6.88 2.51-9.8 2.21-7 8.57-19.58 12.63-24.34M821.5 65.88c-2.33-.16-4.81-1.33-7.53-1.58-3-.27-5.35 1-8.14.91-.56-6.4 7.5-18.52 11.48-23.16 4.51-5.25 13.81-13 20.49-13.66-.2 2.52-6.81 11.77-9.52 17.08-5.74 11.23-4.72 16.62-6.77 20.41"/><path class="fcls-3" d="M835.65 30.32c-5.85 2.37-13.61 7.85-17.68 13-3.76 4.75-10.14 14.41-10.87 20.6 3.87-1.54 9.62-1.17 13.41.56 1.24-2 1.59-6.88 2.51-9.8 2.23-6.99 8.57-19.59 12.63-24.36zM821.5 65.88c-2.33-.16-4.81-1.33-7.53-1.58-3-.27-5.35 1-8.14.91-.56-6.4 7.5-18.52 11.48-23.16 4.51-5.25 13.81-13 20.49-13.66-.2 2.52-6.81 11.77-9.52 17.08-5.75 11.24-4.74 16.63-6.78 20.41z"/><path class="fcls-2" d="M934.22 138.42c4 2.85 5.3.78 11.39 8.22 7.4-26.72-5.36-44.72-5.36-44.72s.39 22.75-6 36.51m4.41-40a6.69 6.69 0 0 1 2.22 2.27c2.66 4.89 7.13 15.76 7.84 20.4.78 5.12 1.09 24-2.34 27.27-2-.19-4.26-3.75-6.22-5.25-2.47-1.88-5.67-2.39-7.25-3.71 1.35-2.6 3.67-12.41 5.08-20.23 1.31-7.31.69-20.75.69-20.75"/><path class="fcls-3" d="M934.22 138.42c4 2.85 5.3.78 11.39 8.22 7.4-26.72-5.36-44.72-5.36-44.72s.4 22.74-6.03 36.5zm4.41-40a6.69 6.69 0 0 1 2.22 2.27c2.66 4.89 7.13 15.76 7.84 20.4.78 5.12 1.09 24-2.34 27.27-2-.19-4.26-3.75-6.22-5.25-2.47-1.88-5.67-2.39-7.25-3.71 1.35-2.6 3.67-12.41 5.08-20.23 1.3-7.32.68-20.76.68-20.76z"/><path class="fcls-2" d="M872.45 38.34c-2.65 4.5-7.5 13.07-8.13 18.2 10.67.19 9.18 2.52 14.19 5 4.35-4.94 5.19-32.13 4.17-39 0 0-9 13.71-10.24 15.81M879 63.44c-1.55-.4-4.06-3.18-6.63-4.21-4.11-1.64-6.57-.63-9-1.36-1.9-5.56 16.28-36.28 20.09-37.17 2.42 4.07.32 39-4.48 42.73"/><path class="fcls-3" d="M872.45 38.34c-2.65 4.5-7.5 13.07-8.13 18.2 10.67.19 9.18 2.52 14.19 5 4.35-4.94 5.19-32.13 4.17-39 .01-.01-8.99 13.69-10.23 15.8zm6.55 25.1c-1.55-.4-4.06-3.18-6.63-4.21-4.11-1.64-6.57-.63-9-1.36-1.9-5.56 16.28-36.28 20.09-37.17 2.43 4.09.32 39.05-4.46 42.74z"/><path class="fcls-2" d="M920 94.73c4.41-6.73 3.23-35.24-5.09-44.83-.57 7.16-.13 13.41-1.32 20.91-1 6.34-3.88 11.45-4.83 16 1.51 1.21 4.18 1.87 6.31 3.47 1.2.9 4.47 4.24 4.93 4.46m-6.8-35.34c.07-4.64.41-8.25.61-11.87l.54.56a23 23 0 0 1 4.13 5.83c2.79 5.61 3.67 7.84 4.84 16.17.8 5.75.63 22.45-2.8 26.78-1.54-.19-4.06-3.79-5.86-5.12-2.43-1.8-6.08-2.89-7.45-4-.23-2.82 6.27-12.87 6-28.34"/><path class="fcls-3" d="M920 94.73c4.41-6.73 3.23-35.24-5.09-44.83-.57 7.16-.13 13.41-1.32 20.91-1 6.34-3.88 11.45-4.83 16 1.51 1.21 4.18 1.87 6.31 3.47 1.15.88 4.43 4.21 4.93 4.45zm-6.8-35.33c.07-4.64.41-8.25.61-11.87l.54.56a23 23 0 0 1 4.13 5.83c2.79 5.61 3.67 7.84 4.84 16.17.8 5.75.63 22.45-2.8 26.78-1.54-.19-4.06-3.79-5.86-5.12-2.43-1.8-6.08-2.89-7.45-4-.21-2.83 6.26-12.88 5.99-28.36z"/><path class="fcls-2" d="M1.38 10.44h25.68q15.5 0 23.83 3.68a29.2 29.2 0 0 1 13.16 11.3 31 31 0 0 1 4.83 16.92 30.41 30.41 0 0 1-4.23 15.82 31.34 31.34 0 0 1-12.43 11.57q10.16 3.46 15.64 8.11a32.41 32.41 0 0 1 8.52 11.25 33.7 33.7 0 0 1 3 14.31A35.13 35.13 0 0 1 68 129.92q-11.48 10.86-30.8 10.86H1.38zm12.76 12.77v41.73h7.46q13.59 0 20-2.52a21.54 21.54 0 0 0 10.12-8 20.93 20.93 0 0 0 3.73-12.09q0-9-6.26-14t-20-5.12zm0 54.84v50h16.15q14.29 0 21-2.79a23.8 23.8 0 0 0 10.69-8.73 22.78 22.78 0 0 0-1.64-28Q54.61 82 44.68 79.64 38 78 21.5 78zm170.19 30.75l10.45 5.49a57 57 0 0 1-11.88 16.3 47.17 47.17 0 0 1-15.15 9.41 52.88 52.88 0 0 1-19.07 3.24q-23.59 0-36.89-15.46t-13.3-35a51.53 51.53 0 0 1 11.25-32.68Q124 41.91 148 41.91q24.65 0 39.37 18.69 10.47 13.2 10.64 33h-86.78q.35 16.8 10.73 27.54a34.24 34.24 0 0 0 25.64 10.74 41.22 41.22 0 0 0 14.33-2.56 37.66 37.66 0 0 0 11.84-6.8q4.88-4.24 10.56-13.68m0-26q-2.48-9.92-7.23-15.86a34.24 34.24 0 0 0-12.55-9.57 38.44 38.44 0 0 0-16.41-3.63 35.34 35.34 0 0 0-24.4 9.13q-7.45 6.65-11.27 19.94zm132.81-38.45v96.4h-12.22v-16.58a53.17 53.17 0 0 1-17.5 14.26 47.32 47.32 0 0 1-21.22 4.78q-20.47 0-35-14.84t-14.49-36.1a48.85 48.85 0 0 1 14.62-35.61 47.67 47.67 0 0 1 35.17-14.8A45.49 45.49 0 0 1 288 47a48.9 48.9 0 0 1 16.92 15.1V44.39zm-49.57 9.48a37.4 37.4 0 0 0-33.06 19.38 39.06 39.06 0 0 0 0 38.94 38 38 0 0 0 14 14.47 36.64 36.64 0 0 0 18.9 5.18 38.72 38.72 0 0 0 19.29-5.13 35.91 35.91 0 0 0 14-13.89 39.66 39.66 0 0 0 4.91-19.74q0-16.73-11-28a36.5 36.5 0 0 0-27.11-11.25m72.86-9.44H353v14.09q5.67-8.33 12-12.45a23.59 23.59 0 0 1 13.11-4.12 22.64 22.64 0 0 1 11 3.28l-6.47 10.46a17.28 17.28 0 0 0-6.57-1.65q-6.2 0-12 5.09t-8.77 15.78q-2.3 8.24-2.3 33.3v32.61h-12.64zm70.08-35.8h12.42v35.79h19.66V55.1h-19.66v85.68h-12.42V55.1h-16.92V44.38h16.92V8.59zm46 35.8h12.67v14.09q5.67-8.33 12-12.45a23.59 23.59 0 0 1 13.11-4.12 22.64 22.64 0 0 1 11 3.28l-6.52 10.45a17.28 17.28 0 0 0-6.56-1.64q-6.2 0-12 5.09t-8.77 15.82q-2.31 8.24-2.3 33.31v32.61h-12.63zM520 4.68a9.84 9.84 0 0 1 7.23 3 9.92 9.92 0 0 1 3 7.27 9.82 9.82 0 0 1-3 7.18 9.83 9.83 0 0 1-7.23 3 9.73 9.73 0 0 1-7.15-3 9.82 9.82 0 0 1-3-7.18 9.93 9.93 0 0 1 3-7.27 9.74 9.74 0 0 1 7.15-3m-6.16 39.69h12.4v96.4h-12.4zm38.37.02h12.41V62.1A49.76 49.76 0 0 1 581.53 47a44.94 44.94 0 0 1 21.33-5A47.6 47.6 0 0 1 638 56.69a48.88 48.88 0 0 1 14.6 35.62q0 21.26-14.47 36.1t-34.92 14.84a46.94 46.94 0 0 1-21.15-4.78 53.27 53.27 0 0 1-17.44-14.26V176h-12.4zm49.62 9.48a36.44 36.44 0 0 0-27.1 11.24q-11 11.24-11 28a39.68 39.68 0 0 0 4.91 19.74 35.77 35.77 0 0 0 14 13.89 38.89 38.89 0 0 0 19.3 5.1 36.41 36.41 0 0 0 18.78-5.18 38 38 0 0 0 14-14.47 39.08 39.08 0 0 0 0-38.94 37.34 37.34 0 0 0-33-19.38M.14 285.85v-85.1h11.25v42.19l42.27-42.19h15.26l-35.7 34.47 37.26 50.63H55.63l-30.31-43.07-13.93 13.58v29.49H.14z"/><path class="fcls-4" d="M.14 285.85v-85.1h11.25v42.19l42.27-42.19h15.26l-35.7 34.47 37.26 50.63H55.63l-30.31-43.07-13.93 13.58v29.49H.14z"/><path class="fcls-2" d="M127.7 278.24a39 39 0 0 1-11.17 7 32.31 32.31 0 0 1-11.52 2q-10.16 0-15.61-5a16.38 16.38 0 0 1-5.46-12.68 16.87 16.87 0 0 1 2-8.25 17.05 17.05 0 0 1 5.4-6 25.42 25.42 0 0 1 7.52-3.42 74.74 74.74 0 0 1 9.29-1.57q12.65-1.51 18.63-3.6.06-2.15.06-2.73 0-6.38-3-9-4-3.54-11.9-3.54-7.37 0-10.88 2.58T96 243.17l-10.22-1.39a25.33 25.33 0 0 1 4.59-10.59 20.11 20.11 0 0 1 9.18-6.19 41.2 41.2 0 0 1 14-2.18 37 37 0 0 1 12.83 1.86 16.92 16.92 0 0 1 7.26 4.67 16.44 16.44 0 0 1 3.25 7.11 58.7 58.7 0 0 1 .52 9.64V260q0 14.57.67 18.43a23.2 23.2 0 0 0 2.64 7.4H129.8a22.13 22.13 0 0 1-2.09-7.6m-.87-23.34q-5.69 2.32-17.07 4a39.52 39.52 0 0 0-9.11 2.09 9.09 9.09 0 0 0-4.12 3.4 9.23 9.23 0 0 0 1.71 11.93q3.16 2.79 9.26 2.79a21.54 21.54 0 0 0 10.74-2.64 16.26 16.26 0 0 0 6.91-7.23q1.68-3.54 1.68-10.45z"/><path class="fcls-4" d="M127.7 278.24a39 39 0 0 1-11.17 7 32.31 32.31 0 0 1-11.52 2q-10.16 0-15.61-5a16.38 16.38 0 0 1-5.46-12.68 16.87 16.87 0 0 1 2-8.25 17.05 17.05 0 0 1 5.4-6 25.42 25.42 0 0 1 7.52-3.42 74.74 74.74 0 0 1 9.29-1.57q12.65-1.51 18.63-3.6.06-2.15.06-2.73 0-6.38-3-9-4-3.54-11.9-3.54-7.37 0-10.88 2.58T96 243.17l-10.22-1.39a25.33 25.33 0 0 1 4.59-10.59 20.11 20.11 0 0 1 9.18-6.19 41.2 41.2 0 0 1 14-2.18 37 37 0 0 1 12.83 1.86 16.92 16.92 0 0 1 7.26 4.67 16.44 16.44 0 0 1 3.25 7.11 58.7 58.7 0 0 1 .52 9.64V260q0 14.57.67 18.43a23.2 23.2 0 0 0 2.64 7.4H129.8a22.13 22.13 0 0 1-2.1-7.59zm-.87-23.34q-5.69 2.32-17.07 4a39.52 39.52 0 0 0-9.11 2.09 9.09 9.09 0 0 0-4.12 3.4 9.23 9.23 0 0 0 1.71 11.93q3.16 2.79 9.26 2.79a21.54 21.54 0 0 0 10.74-2.64 16.26 16.26 0 0 0 6.91-7.23q1.68-3.54 1.68-10.45z"/><path class="fcls-2" d="M162.52 285.84V224.2h9.35v8.65a22 22 0 0 1 7.72-7.28 21.7 21.7 0 0 1 11-2.76q6.85 0 11.23 2.84a15.24 15.24 0 0 1 6.18 8q7.31-10.8 19-10.8 9.17 0 14.11 5.08t4.89 15.6v42.32h-10.34V247q0-6.27-1-9a8.76 8.76 0 0 0-3.69-4.44 11.51 11.51 0 0 0-6.27-1.68 14.59 14.59 0 0 0-10.8 4.33q-4.3 4.32-4.3 13.84v35.82h-10.47v-40.08q0-7-2.55-10.45t-8.36-3.48a15.19 15.19 0 0 0-8.16 2.32 13.17 13.17 0 0 0-5.43 6.79q-1.63 4.47-1.63 12.9v32z"/><path class="fcls-4" d="M162.52 285.84V224.2h9.35v8.65a22 22 0 0 1 7.72-7.28 21.7 21.7 0 0 1 11-2.76q6.85 0 11.23 2.84a15.24 15.24 0 0 1 6.18 8q7.31-10.8 19-10.8 9.17 0 14.11 5.08t4.89 15.6v42.32h-10.34V247q0-6.27-1-9a8.76 8.76 0 0 0-3.69-4.44 11.51 11.51 0 0 0-6.27-1.68 14.59 14.59 0 0 0-10.8 4.33q-4.3 4.32-4.3 13.84v35.82h-10.47v-40.08q0-7-2.55-10.45t-8.36-3.48a15.19 15.19 0 0 0-8.16 2.32 13.17 13.17 0 0 0-5.43 6.79q-1.63 4.47-1.63 12.9v32z"/><path class="fcls-2" d="M310.7 263.27l10.3 1.33q-1.68 10.62-8.62 16.63a25.12 25.12 0 0 1-17 6q-12.66 0-20.35-8.27t-7.69-23.71a42.91 42.91 0 0 1 3.31-17.47 23.06 23.06 0 0 1 10.07-11.23 29.87 29.87 0 0 1 14.71-3.75q10 0 16.43 5.08t8.14 14.43l-10.16 1.57q-1.45-6.21-5.14-9.35a13.29 13.29 0 0 0-8.91-3.13 16.22 16.22 0 0 0-12.84 5.6q-5 5.71-5 18t4.76 18a15.49 15.49 0 0 0 12.42 5.63 14.64 14.64 0 0 0 10.27-3.77q4.12-3.77 5.22-11.61"/><path class="fcls-4" d="M310.7 263.27l10.3 1.33q-1.68 10.62-8.62 16.63a25.12 25.12 0 0 1-17 6q-12.66 0-20.35-8.27t-7.69-23.71a42.91 42.91 0 0 1 3.31-17.47 23.06 23.06 0 0 1 10.07-11.23 29.87 29.87 0 0 1 14.71-3.75q10 0 16.43 5.08t8.14 14.43l-10.16 1.57q-1.45-6.21-5.14-9.35a13.29 13.29 0 0 0-8.91-3.13 16.22 16.22 0 0 0-12.84 5.6q-5 5.71-5 18t4.76 18a15.49 15.49 0 0 0 12.42 5.63 14.64 14.64 0 0 0 10.27-3.77q4.18-3.76 5.3-11.59z"/><path class="fcls-2" d="M338.82 285.84v-85.1h10.45v30.53a23.34 23.34 0 0 1 18.46-8.48 24.88 24.88 0 0 1 11.9 2.7 15.85 15.85 0 0 1 7.23 7.46q2.18 4.76 2.18 13.81v39.07h-10.46v-39.05q0-7.84-3.4-11.41t-9.61-3.57a17 17 0 0 0-8.74 2.41 13.61 13.61 0 0 0-5.83 6.53q-1.74 4.12-1.74 11.38v33.73z"/><path class="fcls-4" d="M338.82 285.84v-85.1h10.45v30.53a23.34 23.34 0 0 1 18.46-8.48 24.88 24.88 0 0 1 11.9 2.7 15.85 15.85 0 0 1 7.23 7.46q2.18 4.76 2.18 13.81v39.07h-10.46v-39.05q0-7.84-3.4-11.41t-9.61-3.57a17 17 0 0 0-8.74 2.41 13.61 13.61 0 0 0-5.83 6.53q-1.74 4.12-1.74 11.38v33.73z"/><path class="fcls-2" d="M454.08 278.24a39 39 0 0 1-11.17 7 32.3 32.3 0 0 1-11.52 2q-10.16 0-15.61-5a16.38 16.38 0 0 1-5.46-12.68 16.87 16.87 0 0 1 2.06-8.27 17.07 17.07 0 0 1 5.4-6 25.42 25.42 0 0 1 7.52-3.42 74.81 74.81 0 0 1 9.29-1.57q12.65-1.51 18.63-3.6.06-2.15.06-2.73 0-6.38-3-9-4-3.54-11.9-3.54-7.37 0-10.88 2.58t-5.2 9.14l-10.22-1.39a25.32 25.32 0 0 1 4.59-10.59 20.1 20.1 0 0 1 9.23-6.21 41.19 41.19 0 0 1 14-2.18 37 37 0 0 1 12.83 1.86 16.92 16.92 0 0 1 7.26 4.67 16.46 16.46 0 0 1 3.25 7.11 58.86 58.86 0 0 1 .52 9.64V260q0 14.57.67 18.43a23.2 23.2 0 0 0 2.64 7.4h-10.9a22.13 22.13 0 0 1-2.09-7.6m-.87-23.34q-5.69 2.32-17.07 4a39.5 39.5 0 0 0-9.11 2.09 9.09 9.09 0 0 0-4.12 3.4 9.23 9.23 0 0 0 1.71 11.93q3.16 2.79 9.26 2.79a21.54 21.54 0 0 0 10.74-2.64 16.27 16.27 0 0 0 6.91-7.23q1.68-3.54 1.68-10.45z"/><path class="fcls-4" d="M454.08 278.24a39 39 0 0 1-11.17 7 32.3 32.3 0 0 1-11.52 2q-10.16 0-15.61-5a16.38 16.38 0 0 1-5.46-12.68 16.87 16.87 0 0 1 2.06-8.27 17.07 17.07 0 0 1 5.4-6 25.42 25.42 0 0 1 7.52-3.42 74.81 74.81 0 0 1 9.29-1.57q12.65-1.51 18.63-3.6.06-2.15.06-2.73 0-6.38-3-9-4-3.54-11.9-3.54-7.37 0-10.88 2.58t-5.2 9.14l-10.22-1.39a25.32 25.32 0 0 1 4.59-10.59 20.1 20.1 0 0 1 9.23-6.21 41.19 41.19 0 0 1 14-2.18 37 37 0 0 1 12.83 1.86 16.92 16.92 0 0 1 7.26 4.67 16.46 16.46 0 0 1 3.25 7.11 58.86 58.86 0 0 1 .52 9.64V260q0 14.57.67 18.43a23.2 23.2 0 0 0 2.64 7.4h-10.9a22.13 22.13 0 0 1-2.09-7.59zm-.87-23.34q-5.69 2.32-17.07 4a39.5 39.5 0 0 0-9.11 2.09 9.09 9.09 0 0 0-4.12 3.4 9.23 9.23 0 0 0 1.71 11.93q3.16 2.79 9.26 2.79a21.54 21.54 0 0 0 10.74-2.64 16.27 16.27 0 0 0 6.91-7.23q1.68-3.54 1.68-10.45z"/><path class="fcls-2" d="M511.7 276.49l1.51 9.23a38.79 38.79 0 0 1-7.89.93q-5.69 0-8.82-1.8a10.06 10.06 0 0 1-4.41-4.73q-1.28-2.93-1.28-12.34v-35.45h-7.66v-8.13h7.66v-15.28l10.39-6.27v21.55h10.51v8.13H501.2v36q0 4.47.55 5.75a4.35 4.35 0 0 0 1.8 2 7 7 0 0 0 3.57.75 34 34 0 0 0 4.59-.41"/><path class="fcls-4" d="M511.7 276.49l1.51 9.23a38.79 38.79 0 0 1-7.89.93q-5.69 0-8.82-1.8a10.06 10.06 0 0 1-4.41-4.73q-1.28-2.93-1.28-12.34v-35.45h-7.66v-8.13h7.66v-15.28l10.39-6.27v21.55h10.51v8.13H501.2v36q0 4.47.55 5.75a4.35 4.35 0 0 0 1.8 2 7 7 0 0 0 3.57.75 34 34 0 0 0 4.58-.34z"/><path class="fcls-2" d="M530.9 285.85v-85.1h10.46v48.53l24.73-25.09h13.52l-23.58 22.87 25.96 38.79H569.1l-20.37-31.53-7.37 7.08v24.45H530.9z"/><path class="fcls-4" d="M530.9 285.85v-85.1h10.46v48.53l24.73-25.09h13.52l-23.58 22.87 25.96 38.79H569.1l-20.37-31.53-7.37 7.08v24.45H530.9z"/><path class="fcls-2" d="M639.44 278.24a39 39 0 0 1-11.18 7 32.29 32.29 0 0 1-11.52 2q-10.16 0-15.62-5a16.38 16.38 0 0 1-5.46-12.68 16.88 16.88 0 0 1 2.06-8.27 17.06 17.06 0 0 1 5.4-6 25.39 25.39 0 0 1 7.52-3.42 74.77 74.77 0 0 1 9.29-1.57q12.65-1.51 18.63-3.6.06-2.15.06-2.73 0-6.38-3-9-4-3.54-11.9-3.54-7.37 0-10.88 2.58t-5.2 9.14l-10.22-1.39a25.32 25.32 0 0 1 4.58-10.58 20.11 20.11 0 0 1 9.23-6.21 41.2 41.2 0 0 1 14-2.18 37 37 0 0 1 12.83 1.86 16.92 16.92 0 0 1 7.26 4.67 16.44 16.44 0 0 1 3.25 7.11 58.74 58.74 0 0 1 .52 9.64V260q0 14.57.67 18.43a23.23 23.23 0 0 0 2.64 7.4h-10.87a22.15 22.15 0 0 1-2.09-7.6m-.87-23.34q-5.69 2.32-17.07 4a39.53 39.53 0 0 0-9.11 2.09 9.1 9.1 0 0 0-4.12 3.4 9.23 9.23 0 0 0 1.73 11.89q3.16 2.79 9.26 2.79a21.54 21.54 0 0 0 10.74-2.64 16.27 16.27 0 0 0 6.91-7.23q1.68-3.54 1.68-10.45z"/><path class="fcls-4" d="M639.44 278.24a39 39 0 0 1-11.18 7 32.29 32.29 0 0 1-11.52 2q-10.16 0-15.62-5a16.38 16.38 0 0 1-5.46-12.68 16.88 16.88 0 0 1 2.06-8.27 17.06 17.06 0 0 1 5.4-6 25.39 25.39 0 0 1 7.52-3.42 74.77 74.77 0 0 1 9.29-1.57q12.65-1.51 18.63-3.6.06-2.15.06-2.73 0-6.38-3-9-4-3.54-11.9-3.54-7.37 0-10.88 2.58t-5.2 9.14l-10.22-1.39a25.32 25.32 0 0 1 4.58-10.58 20.11 20.11 0 0 1 9.23-6.21 41.2 41.2 0 0 1 14-2.18 37 37 0 0 1 12.83 1.86 16.92 16.92 0 0 1 7.26 4.67 16.44 16.44 0 0 1 3.25 7.11 58.74 58.74 0 0 1 .52 9.64V260q0 14.57.67 18.43a23.23 23.23 0 0 0 2.64 7.4h-10.87a22.15 22.15 0 0 1-2.09-7.59zm-.87-23.34q-5.69 2.32-17.07 4a39.53 39.53 0 0 0-9.11 2.09 9.1 9.1 0 0 0-4.12 3.4 9.23 9.23 0 0 0 1.73 11.88q3.16 2.79 9.26 2.79a21.54 21.54 0 0 0 10.74-2.64 16.27 16.27 0 0 0 6.91-7.23q1.68-3.54 1.68-10.45z"/></g></g></g></g></symbol></svg>