<?xml version="1.0" encoding="utf-8"?><svg xmlns="http://www.w3.org/2000/svg" xmlns:xlink="http://www.w3.org/1999/xlink"><symbol viewBox="0 0 392 392" id="arr-l" xmlns="http://www.w3.org/2000/svg"><g data-name="Слой 2"><path d="M196 0C87.76 0 0 87.76 0 196s87.76 196 196 196 196-87.76 196-196S304.24 0 196 0zm50.56 268.4l-34.16 34.16L105.84 196 212.4 89.44l34.16 34.16-72.32 72.4zm0 0" data-name="Слой 1"/></g></symbol><symbol viewBox="0 0 392 392" id="arr-r" xmlns="http://www.w3.org/2000/svg"><g data-name="Слой 2"><path d="M196 392c108.24 0 196-87.76 196-196S304.24 0 196 0 0 87.76 0 196s87.76 196 196 196zm-50.56-268.4l34.16-34.16L286.16 196 179.6 302.56l-34.16-34.16 72.32-72.4zm0 0" data-name="Слой 1"/></g></symbol><symbol viewBox="0 0 223.62 221.15" id="call24" xmlns="http://www.w3.org/2000/svg"><defs><style>.ccls-1{fill:none}.cls-2{clip-path:url(#cclip-path)}</style><clipPath id="cclip-path"><path class="ccls-1" d="M0 0h223.92v222H0z"/></clipPath></defs><g id="cСлой_2" data-name="Слой 2"><g id="cСлой_1-2" data-name="Слой 1"><path d="M132.06 0A91.2 91.2 0 0 0 71 23.35a38.19 38.19 0 0 1 5.83 19.23c.08 3.09.27 6.19.53 9.28a67.55 67.55 0 1 1 55.83 107.2c3.35 2.8 6.81 5.47 10.38 8a38.27 38.27 0 0 1 11.59 13.05A91.57 91.57 0 0 0 132.06 0zm-2.25 186.72c-10.46-8.35-17-13.91-26.33-22.56a14.29 14.29 0 0 0-9.56-4.16 11.56 11.56 0 0 0-7.39 2.6l-6.64 5.59a201.57 201.57 0 0 1-39.22-73.12L49 92.63c6.12-1.87 9-8.41 8.1-15-2-14.26-3-21.34-4.22-34.41-.62-6.7-5.08-12.52-11.47-12.87-1-.1-2-.15-3-.15C14.66 30.25-6 57.79 1.62 91.5a238.62 238.62 0 0 0 59.64 111.22c12.08 12.68 26.88 18.43 40.25 18.43 14.1 0 26.61-6.39 32.67-17.75 3.25-5.52.89-12.48-4.37-16.68zm0 0"/><path d="M104.52 93.26c-6.33 5.87-10.52 10.49-12.66 14.11a28.76 28.76 0 0 0-3.35 8 4.35 4.35 0 0 0 4.23 5.38h30.21a6.71 6.71 0 1 0 0-13.42H109.3l.34-.4c.89-1 3.07-3.1 6.48-6.23a71.71 71.71 0 0 0 7.39-7.52 31.67 31.67 0 0 0 4.63-7.75 21.47 21.47 0 0 0 1.5-8 16.64 16.64 0 0 0-5.36-12.56c-3.53-3.33-8.39-5-14.46-5a22.3 22.3 0 0 0-13.9 4.29 16 16 0 0 0-5.13 7.07 6.94 6.94 0 0 0 5.77 9.44A7.11 7.11 0 0 0 104 76a5.59 5.59 0 0 1 1.22-2.12 5.75 5.75 0 0 1 4.34-1.59 5.83 5.83 0 0 1 4.34 1.51 6.1 6.1 0 0 1 1.51 4.53 10.59 10.59 0 0 1-2 5.85c-.71 1-2.84 3.49-8.89 9.12zM165 59.93h-5a4.34 4.34 0 0 0-3.59 1.9L133 96a6 6 0 0 0-1 3.37v5.54a4.36 4.36 0 0 0 4.35 4.35h19.16v4.63a6.93 6.93 0 1 0 13.86 0v-4.63h.7a6.44 6.44 0 1 0 0-12.87h-.7V64.27a4.35 4.35 0 0 0-4.37-4.34zm-9.51 36.43h-8.6l8.6-12.79zm0 0"/></g></g></symbol><symbol viewBox="0 0 344.96 344.96" id="check" xmlns="http://www.w3.org/2000/svg"><defs><style>.dcls-1{fill:#e75713}</style></defs><g id="dСлой_2" data-name="Слой 2"><path class="dcls-1" d="M321.85 86.24l-40-23.11-23.1-40H212.5L172.48 0l-40 23.11H86.24l-23.11 40-40 23.1v46.21L0 172.48l23.11 40v46.21l40 23.11 23.11 40h46.21l40 23.1 40-23.11h46.21l23.11-40 40-23.11V212.5l23.11-40-23.11-40V86.24zM156.91 243.07a16.79 16.79 0 0 1-23.34 0l-50.45-50.44a16.19 16.19 0 0 1 0-22.89l13.35-13.35a16.19 16.19 0 0 1 22.89 0l25.87 25.87 80.34-80.35a16.19 16.19 0 0 1 22.89 0l13.35 13.35a16.19 16.19 0 0 1 0 22.89z" id="dCapa_1" data-name="Capa 1"/></g></symbol><symbol viewBox="0 0 426.67 426.67" id="check-round" xmlns="http://www.w3.org/2000/svg"><defs><style>.ecls-1{fill:#6ac259}</style></defs><g id="eСлой_2" data-name="Слой 2"><path class="ecls-1" d="M213.33 0C95.52 0 0 95.51 0 213.33s95.52 213.34 213.33 213.34 213.33-95.51 213.33-213.33S331.16 0 213.33 0zM174.2 322.92L80.26 229l31.31-31.31 62.63 62.61 140.89-140.9 31.31 31.31z" id="eLayer_1" data-name="Layer 1"/></g></symbol><symbol viewBox="0 0 370.85 512" id="map-mark" xmlns="http://www.w3.org/2000/svg"><g data-name="Слой 2"><path d="M185.43 0C83.18 0 0 83.18 0 185.43c0 126.89 165.94 313.17 173 321a16.7 16.7 0 0 0 24.85 0c7.06-7.87 173-194.15 173-321C370.85 83.18 287.67 0 185.43 0zm0 278.72a93.29 93.29 0 1 1 93.29-93.29 93.4 93.4 0 0 1-93.29 93.29z" data-name="Layer 1"/></g></symbol><symbol viewBox="0 0 35.54 22.4" id="med-car" xmlns="http://www.w3.org/2000/svg"><g data-name="Слой 2"><g data-name="Слой 1"><path d="M31.95 1.91H13.1v-.15a1.76 1.76 0 0 0-3.52 0v.15H8.51c-3 0-5.67 1.34-6.71 5.37L0 14.75a5.37 5.37 0 0 0 3.64 5.08 3.77 3.77 0 0 1-.05-.6 3.88 3.88 0 1 1 7.77 0 3.73 3.73 0 0 1-.11.89h11.86a3.78 3.78 0 0 1-.11-.89 3.88 3.88 0 1 1 7.76 0 3.76 3.76 0 0 1-.1.87 5.38 5.38 0 0 0 4.88-5.35V7.28c0-3-.62-5.37-3.59-5.37zM11.2 10.06H3.88l.92-3.65.2-.75C5.38 3.84 7.42 4 7.42 4h3.78zm14.8 1.6h-3.34V15h-3.2v-3.34h-3.33v-3.2h3.32V5.13h3.21v3.33H26zm0 0"/><path d="M10.47 19.35a3.05 3.05 0 1 1-3.05-3.05 3.05 3.05 0 0 1 3.05 3.05zm19.61 0A3.05 3.05 0 1 1 27 16.3a3.05 3.05 0 0 1 3.05 3.05zm0 0"/></g></g></symbol><symbol viewBox="0 0 409.6 409.6" id="phone" xmlns="http://www.w3.org/2000/svg"><g data-name="Слой 2"><path d="M204.8 0C91.7 0 0 91.7 0 204.8s91.7 204.8 204.8 204.8 204.8-91.7 204.8-204.8S317.9 0 204.8 0zm108.15 298.82l-16.4 16.4c-2.93 2.92-11.5 4.75-11.78 4.75A193.41 193.41 0 0 1 89.6 124.35s1.88-8.35 4.8-11.25l16.4-16.4c6-6 17.52-8.75 25.6-6.05l3.45 1.15c8.05 2.7 16.5 11.6 18.72 19.8l8.25 30.27c2.23 8.23-.77 19.93-6.77 25.93l-10.95 10.95a116.29 116.29 0 0 0 81.77 81.8l10.95-10.95c6-6 17.73-9 25.93-6.8l30.25 8.27c8.2 2.25 17.1 10.65 19.8 18.7l1.15 3.5c2.68 8.05 0 19.58-6 25.55zm0 0" data-name="Слой 1"/></g></symbol><symbol viewBox="0 0 165.97 136.66" id="work-1" xmlns="http://www.w3.org/2000/svg"><defs><style>.icls-1{fill:none}.icls-2{clip-path:url(#iclip-path)}</style><clipPath id="iclip-path"><path class="icls-1" d="M0 0h165.84v137H0z"/></clipPath></defs><g id="iСлой_2" data-name="Слой 2"><path d="M160 78.58l-.39-.36c-.24-.22-.48-.44-.71-.67l-37.26-37.28-.25-.23a16.68 16.68 0 0 0-6.32-3.31V27.6a4 4 0 0 0-4-4H92.94a4 4 0 0 0-4 4v8.53H11.82A11.83 11.83 0 0 0 0 48v70.81a4 4 0 0 0 4 4h10.45a17.89 17.89 0 0 0 34.88 0h68.55a17.89 17.89 0 0 0 34.88 0A13.69 13.69 0 0 0 166 109.08V92.31a18.91 18.91 0 0 0-6-13.73zm-63.09-47h10.13v4.53h-10.1zm-65.02 97.08a9.9 9.9 0 1 1 9.89-9.89 9.91 9.91 0 0 1-9.89 9.89zm20.57-57.37a4 4 0 0 1-4 4H42v6.49a4 4 0 0 1-4 4h-7.76a4 4 0 0 1-4-4v-6.49h-6.49a4 4 0 0 1-4-4v-7.73a4 4 0 0 1 4-4h6.49v-6.49a4 4 0 0 1 4-4H38a4 4 0 0 1 4 4v6.49h6.49a4 4 0 0 1 4 4zm48.74 3.89a3.53 3.53 0 0 1-3.52-3.52V52.78a2 2 0 0 1 2-2h12.59a4.63 4.63 0 0 1 3.29 1.36l19.25 19.25a2.2 2.2 0 0 1-1.55 3.75zm34.11 53.48a9.9 9.9 0 1 1 9.9-9.89 9.91 9.91 0 0 1-9.9 9.89zM102 19.2a4 4 0 0 1-4-4V4a4 4 0 1 1 8 0v11.2a4 4 0 0 1-4 4zm19.42 3.4a4 4 0 0 1-2.83-6.83l7.06-7.06a4 4 0 1 1 5.66 5.66l-7.06 7.06a4 4 0 0 1-2.83 1.17zm-37 0a4 4 0 0 1-2.83-1.17l-7.06-7.06a4 4 0 1 1 5.66-5.66l7.06 7.06a4 4 0 0 1-2.83 6.83zm0 0" class="icls-2" id="iСлой_1-2" data-name="Слой 1"/></g></symbol><symbol viewBox="0 0 172.4 118.53" id="work-2" xmlns="http://www.w3.org/2000/svg"><g data-name="Слой 2"><path d="M172.4 61.05v53.87a3.6 3.6 0 0 1-3.6 3.6h-13.69a3.6 3.6 0 0 1-3.6-3.6v-9.8H20.89v9.8a3.6 3.6 0 0 1-3.6 3.6H3.6a3.6 3.6 0 0 1-3.6-3.6V41.77a10.44 10.44 0 0 1 20.89 0v41h130.63V61.05a10.44 10.44 0 1 1 20.88 0zM32.91 78.12h35.22a6.48 6.48 0 0 0 0-13H32.91a6.48 6.48 0 0 0 0 13zM86.85 37.7a2 2 0 0 0 1.41.59h14.26v14.25a2 2 0 0 0 2 2h18a2 2 0 0 0 2-2V38.26h14.28a2 2 0 0 0 2-2v-18a2 2 0 0 0-2-2h-14.28V2a2 2 0 0 0-2-2h-18a2 2 0 0 0-2 2v14.28H88.25a2 2 0 0 0-2 2v18a2 2 0 0 0 .59 1.41zm0 0" data-name="Слой 1"/></g></symbol><symbol viewBox="0 0 949.42 769.75" id="work-3" xmlns="http://www.w3.org/2000/svg"><defs><style>.kcls-1{fill:none}.kcls-2{clip-path:url(#kclip-path)}</style><clipPath id="kclip-path"><path class="kcls-1" d="M0 0h949.92v770H0z"/></clipPath></defs><g id="kСлой_2" data-name="Слой 2"><g id="kСлой_1-2" data-name="Слой 1"><path d="M949 243.28a259.86 259.86 0 0 0-77.34-171.51C824.7 25.49 763.45 0 699.19 0 603.79 0 534 76.13 496.52 117c-7.89 8.61-16.67 18.19-21.44 22-4-3.61-11.1-11.66-17.48-18.92C420.76 78.13 352.16 0 250.24 0 186 0 124.74 25.49 77.78 71.77A259.86 259.86 0 0 0 .44 243.28c-2.2 41.23 3.94 79.54 18.79 117.12l2.7 6.94 127.72-.16h.42c12.75 0 24.95 4.28 32.63 11.63l89.22 85.35 64.46-189.74c5.23-15.39 18.72-25.49 34.42-25.71h.68c15.29 0 28.78 9.7 34.37 24.71l89.27 240.2 75.75-238.52c4.9-15.43 18.13-25.78 33.71-26.38 15.76-.63 29.52 8.59 35.64 23.7l43.38 107L740.2 301a45.18 45.18 0 0 1 35.8-18.61h172.64l.47-10a289.44 289.44 0 0 0-.11-29.11zm0 0" class="kcls-2"/><path d="M706 468.21c-8.1 11.2-21.81 17.46-35.18 15.84a37.89 37.89 0 0 1-30.43-23.58L609.85 385l-77.16 243c-5 15.65-18.39 26-34.12 26.39h-1c-15.62 0-28.84-9.47-34.5-24.72L372.7 386.5l-50.38 148.26A37.89 37.89 0 0 1 259.79 550l-118.7-113.59-82.44.18 14.5 17.57c86 104.3 338.25 315.58 402 315.58 45.62 0 172.81-102.66 210.7-134.12C781.79 556 863.92 473.87 895.08 426.49a376.47 376.47 0 0 0 31.8-58.38l6.45-15.33H789.41zm0 0"/></g></g></symbol><symbol viewBox="0 0 282.94 332.32" id="work-4" xmlns="http://www.w3.org/2000/svg"><defs><style>.lcls-1{fill:none}.lcls-2{clip-path:url(#lclip-path)}</style><clipPath id="lclip-path"><path class="lcls-1" d="M0 0h282.96v333H0z"/></clipPath></defs><g id="lСлой_2" data-name="Слой 2"><path d="M279.32 169.14a14.34 14.34 0 0 0-10.65-4.65h-66.38c-5.5 0-6.54-3.89-6.54-3.89l-6.22-35.17c-.56-3.18-4-7-2.21-10.2 5.51-9.52 9.75-26 9.75-50.31C197.08 11.26 166.84 0 141.47 0c-19.37 0-34.08 6.95-43.74 20.65C90 31.66 85.86 47 85.86 64.93c0 22.55 2.23 37.28 7 46.37a26.93 26.93 0 0 0 3.89 5.64c1.07 1.17 2.74 3.27 1.69 7.53l-6.39 36.13s-1.26 3.9-7.66 3.9H14.27A14.11 14.11 0 0 0 .08 180.21l14 137.52a16.38 16.38 0 0 0 16.15 14.58h222.4a16.39 16.39 0 0 0 16.14-14.58l14.05-137.52a14.36 14.36 0 0 0-3.55-11.07zM112.76 48a29.64 29.64 0 0 1 7.24-5.39c1.49-.88 3-1.79 4.61-2.67 4-2.23 6.52-6.29 9.75-6.29 3.07 0 12.27 10.67 16.42 13.38 7.11 4.64 16.84 4.54 22.12 10.47 2 2.3 2.19 6 2.19 8.59 0 21.55-26.81 38.29-33.62 38.29-8 0-33.62-17.67-33.62-38.29 0-4.65-.16-12.78 4.91-18.09zm52.18 210.4h-11.11s-2.48 0-2.48 2V272a9.88 9.88 0 0 1-19.75 0v-11.48a2 2 0 0 0-2.15-2.12H118a9.87 9.87 0 1 1 0-19.75h11.14a2.26 2.26 0 0 0 2.45-2.28v-11.31a9.88 9.88 0 1 1 19.75 0v12.09c0 1.62 2.1 1.51 2.1 1.51h11.5a9.87 9.87 0 1 1 0 19.75zm15-93.91c-18.49 0-55.07-.25-74-.25-3.22 0-2.48-3.76-2.48-3.76l6-34.07c.32-3.11 2-2.52 2-2.52 1.09.09 2.13.12 3.11.12a92.15 92.15 0 0 0 12.59-1.2 102.88 102.88 0 0 1 14.27-1.32 106.86 106.86 0 0 1 14 1.22 96.49 96.49 0 0 0 12.4 1.11 32.08 32.08 0 0 0 6.64-.66c.18.08 2.86-.87 4 4.22l6 34.17s.25 2.94-4.65 2.94zm0 0" class="lcls-2" id="lСлой_1-2" data-name="Слой 1"/></g></symbol></svg>