<?xml version="1.0" encoding="UTF-8" standalone="no"?>
<!-- Created with Inkscape (http://www.inkscape.org/) -->

<svg
   xmlns:dc="http://purl.org/dc/elements/1.1/"
   xmlns:cc="http://creativecommons.org/ns#"
   xmlns:rdf="http://www.w3.org/1999/02/22-rdf-syntax-ns#"
   xmlns:svg="http://www.w3.org/2000/svg"
   xmlns="http://www.w3.org/2000/svg"
   xmlns:sodipodi="http://sodipodi.sourceforge.net/DTD/sodipodi-0.dtd"
   xmlns:inkscape="http://www.inkscape.org/namespaces/inkscape"
   version="1.1"
   id="svg2"
   xml:space="preserve"
   width="240.66667"
   height="376"
   viewBox="0 0 240.66667 376"
   sodipodi:docname="i-mark.svg"
   inkscape:version="0.92.1 r15371"><metadata
     id="metadata8"><rdf:RDF><cc:Work
         rdf:about=""><dc:format>image/svg+xml</dc:format><dc:type
           rdf:resource="http://purl.org/dc/dcmitype/StillImage" /><dc:title></dc:title></cc:Work></rdf:RDF></metadata><defs
     id="defs6"><clipPath
       clipPathUnits="userSpaceOnUse"
       id="clipPath18"><path
         d="M 0,282 H 180.5 V 0 H 0 Z"
         id="path16"
         inkscape:connector-curvature="0" /></clipPath></defs><sodipodi:namedview
     pagecolor="#ffffff"
     bordercolor="#666666"
     borderopacity="1"
     objecttolerance="10"
     gridtolerance="10"
     guidetolerance="10"
     inkscape:pageopacity="0"
     inkscape:pageshadow="2"
     inkscape:window-width="640"
     inkscape:window-height="480"
     id="namedview4"
     showgrid="false"
     inkscape:zoom="0.62765957"
     inkscape:cx="120.33334"
     inkscape:cy="188"
     inkscape:window-x="0"
     inkscape:window-y="0"
     inkscape:window-maximized="0"
     inkscape:current-layer="g10" /><g
     id="g10"
     inkscape:groupmode="layer"
     inkscape:label="Vector Smart Object"
     transform="matrix(1.3333333,0,0,-1.3333333,0,376)"><g
       id="g12"><g
         id="g14"
         clip-path="url(#clipPath18)"><g
           id="g20"
           transform="translate(180.5,191.75)"><path
             d="m 0,0 c 0,-89.75 -75,-191.75 -90.25,-191.75 -9.25,0 -90.25,98.5 -90.25,191.75 0,49.844 40.406,90.25 90.25,90.25 C -40.406,90.25 0,49.844 0,0"
             style="fill:#006f32;fill-opacity:1;fill-rule:nonzero;stroke:none"
             id="path22"
             inkscape:connector-curvature="0" /></g><g
           id="g24"
           transform="translate(134.499,196.0103)"><path
             d="m 0,0 c 0,-24.715 -20.035,-44.75 -44.75,-44.75 -24.715,0 -44.75,20.035 -44.75,44.75 0,24.715 20.035,44.75 44.75,44.75 C -20.035,44.75 0,24.715 0,0"
             style="fill:#003d1b;fill-opacity:1;fill-rule:nonzero;stroke:none"
             id="path26"
             inkscape:connector-curvature="0" /></g><g
           id="g28"
           transform="translate(134.499,192.2471)"><path
             d="m 0,0 c 0,-24.715 -20.035,-44.75 -44.75,-44.75 -24.715,0 -44.75,20.035 -44.75,44.75 0,24.715 20.035,44.75 44.75,44.75 C -20.035,44.75 0,24.715 0,0"
             style="fill:#ffffff;fill-opacity:1;fill-rule:nonzero;stroke:none"
             id="path30"
             inkscape:connector-curvature="0" /></g><g
           id="g32"
           transform="translate(112.5029,192.9951)"><path
             d="m 0,0 c 0,-12.15 -9.85,-22 -21.999,-22 -12.15,0 -22,9.85 -22,22 0,12.15 9.85,22 22,22 C -9.85,22 0,12.15 0,0"
             style="fill:#006f32;fill-opacity:1;fill-rule:nonzero;stroke:none"
             id="path34"
             inkscape:connector-curvature="0" /></g></g></g></g></svg>