<?xml version="1.0" encoding="utf-8"?><svg xmlns="http://www.w3.org/2000/svg" xmlns:xlink="http://www.w3.org/1999/xlink"><symbol viewBox="0 0 32 32" id="arrow-right" xmlns="http://www.w3.org/2000/svg"><g data-name="Слой 2"><g data-name="Слой 1"><path data-name="8qcsa" d="M16 32a16 16 0 1 1 16-16 16 16 0 0 1-16 16zm0-30a14 14 0 1 0 14 14A14 14 0 0 0 16 2zm.88 20.54a1 1 0 0 1-1.42-1.42L19.59 17H9a1 1 0 0 1 0-2h10.59l-4.13-4.12a1 1 0 0 1 1.42-1.42l5.66 5.66a1 1 0 0 1 .26.88 1 1 0 0 1-.26.88z"/></g></g></symbol><symbol viewBox="0 0 344.96 344.96" id="check" xmlns="http://www.w3.org/2000/svg"><g data-name="Слой 2"><path d="M321.85 86.24l-40-23.11-23.1-40H212.5L172.48 0l-40 23.11H86.24l-23.11 40-40 23.1v46.21L0 172.48l23.11 40v46.21l40 23.11 23.11 40h46.21l40 23.1 40-23.11h46.21l23.11-40 40-23.11V212.5l23.11-40-23.11-40V86.24zM156.91 243.07a16.79 16.79 0 0 1-23.34 0l-50.45-50.44a16.19 16.19 0 0 1 0-22.89l13.35-13.35a16.19 16.19 0 0 1 22.89 0l25.87 25.87 80.34-80.35a16.19 16.19 0 0 1 22.89 0l13.35 13.35a16.19 16.19 0 0 1 0 22.89z" data-name="Capa 1"/></g></symbol><symbol viewBox="0 0 5 8" id="chevron-left" xmlns="http://www.w3.org/2000/svg"><defs><path id="ca" d="M1515.31 651.989l-1.3-1.3 2.69-2.69-2.69-2.688 1.3-1.301 3.679 3.678-.311.311.311.311z"/></defs><use xlink:href="#ca" transform="translate(-1514 -644)"/></symbol><symbol viewBox="0 0 5 8" id="chevron-right" xmlns="http://www.w3.org/2000/svg"><defs><path id="da" d="M1484.01 648.31l.312-.31-.311-.312 3.678-3.678 1.3 1.3-2.689 2.69 2.69 2.688-1.301 1.3z"/></defs><use xlink:href="#da" transform="translate(-1484 -644)"/></symbol><symbol viewBox="0 0 32 32" id="close" xmlns="http://www.w3.org/2000/svg"><defs><path id="ea" d="M1057 46c-8.837 0-16-7.163-16-16 0-8.836 7.163-16 16-16s16 7.164 16 16c0 8.837-7.163 16-16 16zm0-30c-7.732 0-14 6.268-14 14s6.268 14 14 14 14-6.268 14-14-6.268-14-14-14zm1.42 14.006l4.237 4.237a1 1 0 1 1-1.414 1.414l-4.237-4.237-4.266 4.266a1.008 1.008 0 0 1-1.426-1.426l4.266-4.265-4.237-4.238a1 1 0 1 1 1.414-1.414l4.237 4.237 4.298-4.297a1.008 1.008 0 0 1 1.425 1.425z"/></defs><use xlink:href="#ea" transform="translate(-1041 -14)"/></symbol><symbol viewBox="0 0 24 32" id="mark" xmlns="http://www.w3.org/2000/svg"><defs><path id="fa" d="M753 66c-1.995.01-12-14.983-12-20 0-6.627 5.373-12 12-12s12 5.373 12 12c0 4.95-10.036 20.01-12 20zm0-30c-5.523 0-10 4.477-10 10 0 4.18 8.337 17.009 10 17 1.636.009 10-12.875 10-17 0-5.523-4.477-10-10-10zm0 15a5 5 0 1 1 0-10 5 5 0 0 1 0 10zm0-8a3 3 0 1 0 0 6 3 3 0 0 0 0-6z"/></defs><use xlink:href="#fa" transform="translate(-741 -34)"/></symbol><symbol class="gsvg-inline--fa gfa-star-half-alt gfa-w-17" viewBox="0 0 536 512" id="star-half-alt-solid" xmlns="http://www.w3.org/2000/svg"><path d="M508.55 171.51L362.18 150.2 296.77 17.81C290.89 5.98 279.42 0 267.95 0c-11.4 0-22.79 5.9-28.69 17.81l-65.43 132.38-146.38 21.29c-26.25 3.8-36.77 36.09-17.74 54.59l105.89 103-25.06 145.48C86.98 495.33 103.57 512 122.15 512c4.93 0 10-1.17 14.87-3.75l130.95-68.68 130.94 68.7c4.86 2.55 9.92 3.71 14.83 3.71 18.6 0 35.22-16.61 31.66-37.4l-25.03-145.49 105.91-102.98c19.04-18.5 8.52-50.8-17.73-54.6zm-121.74 123.2l-18.12 17.62 4.28 24.88 19.52 113.45-102.13-53.59-22.38-11.74.03-317.19 51.03 103.29 11.18 22.63 25.01 3.64 114.23 16.63-82.65 80.38z"/></symbol><symbol class="hsvg-inline--fa hfa-star hfa-w-18" viewBox="0 0 576 512" id="star-regular" xmlns="http://www.w3.org/2000/svg"><path d="M528.1 171.5L382 150.2 316.7 17.8c-11.7-23.6-45.6-23.9-57.4 0L194 150.2 47.9 171.5c-26.2 3.8-36.7 36.1-17.7 54.6l105.7 103-25 145.5c-4.5 26.3 23.2 46 46.4 33.7L288 439.6l130.7 68.7c23.2 12.2 50.9-7.4 46.4-33.7l-25-145.5 105.7-103c19-18.5 8.5-50.8-17.7-54.6zM388.6 312.3l23.7 138.4L288 385.4l-124.3 65.3 23.7-138.4-100.6-98 139-20.2 62.2-126 62.2 126 139 20.2-100.6 98z"/></symbol><symbol class="isvg-inline--fa ifa-star ifa-w-18" viewBox="0 0 576 512" id="star-solid" xmlns="http://www.w3.org/2000/svg"><path d="M259.3 17.8L194 150.2 47.9 171.5c-26.2 3.8-36.7 36.1-17.7 54.6l105.7 103-25 145.5c-4.5 26.3 23.2 46 46.4 33.7L288 439.6l130.7 68.7c23.2 12.2 50.9-7.4 46.4-33.7l-25-145.5 105.7-103c19-18.5 8.5-50.8-17.7-54.6L382 150.2 316.7 17.8c-11.7-23.6-45.6-23.9-57.4 0z"/></symbol><symbol viewBox="0 0 17 17" id="tel" xmlns="http://www.w3.org/2000/svg"><defs><path id="ja" d="M1375.08 34.308a1.112 1.112 0 0 1 1.573 0l2.36 3.148c.361.533.435 1.14 0 1.574l-.962.963a27.2 27.2 0 0 0 2.536 2.972c1.091 1.091 2.305 2.084 3.397 2.898l.93-.93c.435-.435 1.04-.362 1.574 0l3.147 2.36c.527.365.434 1.14 0 1.574l-1.574 1.574c-.869.87-2 .59-3.147 0 0 0-3.473-1.95-6.447-4.925-2.797-2.798-4.96-6.486-4.96-6.486-.452-1.24-.87-2.278 0-3.148l1.573-1.574zm1.525 5.557l1.264-1.264c.277-.277.23-.663 0-1.002l-1.502-2.003c-.276-.37-.724-.277-1 0l-1.002 1.002c-.393.37-.28 1.23-.072 1.645.93 1.771 2.993 4.498 4.72 6.296 1.993 2.16 6.688 5.115 6.688 5.115.363.19 1.368.205 1.645-.071l1.001-1.002c.207-.346.3-.748 0-1.002l-2.002-1.502c-.34-.23-.725-.277-1.002 0l-1.233 1.234c-.291-.205-4.926-3.252-7.505-7.446z"/></defs><use xlink:href="#ja" transform="translate(-1373 -34)"/></symbol></svg>