<svg width="72" height="72" viewBox="0 0 72 72" fill="none" xmlns="http://www.w3.org/2000/svg">
<g clip-path="url(#clip0)">
<path d="M67.2 3.6001H12C9.34905 3.6001 7.2 5.74915 7.2 8.4001V46.8001H1.2C0.5373 46.8001 0 47.3374 0 48.0001C0 50.6511 2.14905 52.8001 4.8 52.8001H39.6V67.2001C39.6002 67.8628 40.1375 68.4 40.8003 68.3998C41.1185 68.3998 41.4234 68.2734 41.6484 68.0485L48 61.6969L54.3516 68.0485C54.5766 68.2735 54.8817 68.4001 55.2 68.4001C55.3578 68.4006 55.514 68.3697 55.6596 68.3089C56.108 68.1231 56.4002 67.6854 56.4 67.2001V52.8001H60C62.651 52.8001 64.8 50.6511 64.8 48.0001V9.6001H70.8C71.4627 9.6001 72 9.0628 72 8.4001C72 5.74915 69.851 3.6001 67.2 3.6001ZM62.4 8.4001V46.8001H57.6V49.2001H62.0772C61.6487 49.9423 60.857 50.3997 60 50.4001H56.4V49.2001H54V64.3033L48.8484 59.1517C48.3798 58.6833 47.6202 58.6833 47.1516 59.1517L42 64.3033V49.2001H39.6V50.4001H4.8C3.94305 50.3997 3.15135 49.9423 2.7228 49.2001H8.4H38.4V46.8001H9.6V8.4001C9.6 7.07455 10.6745 6.0001 12 6.0001H63.0672C62.6354 6.72655 62.405 7.555 62.4 8.4001ZM65.1228 7.2001C65.7867 6.0529 67.2549 5.6611 68.4023 6.32515C68.7654 6.5353 69.0671 6.8371 69.2772 7.2001H65.1228Z" fill="white"/>
<path d="M59.3129 41.1542L57.7757 38.4002L59.3189 35.6486C59.6441 35.0711 59.4397 34.3394 58.8623 34.0142C58.8332 33.9978 58.8034 33.9825 58.7729 33.9686L55.9085 32.657L55.5389 29.525C55.4608 28.8669 54.8638 28.3968 54.2057 28.475C54.1751 28.4786 54.1447 28.4834 54.1145 28.4894L51.0209 29.1026L48.8813 26.7854C48.4024 26.2989 47.6198 26.2928 47.1334 26.7717C47.1287 26.7762 47.1242 26.7809 47.1197 26.7854L44.9801 29.1026L41.8865 28.4894C41.2364 28.3608 40.6051 28.7837 40.4765 29.4338C40.4705 29.4639 40.4657 29.4944 40.4621 29.525L40.0925 32.657L37.2281 33.971C36.6256 34.2468 36.3607 34.959 36.6365 35.5616C36.6505 35.592 36.6656 35.6219 36.6821 35.651L38.2253 38.4002L36.6821 41.1518C36.3569 41.7293 36.5614 42.461 37.1387 42.7862C37.1678 42.8025 37.1977 42.8178 37.2281 42.8318L40.0925 44.1458L40.4621 47.2802C40.5403 47.9382 41.1373 48.4083 41.7953 48.3302C41.8259 48.3266 41.8564 48.3218 41.8865 48.3158L44.9801 47.7026L47.1197 50.0198C47.5699 50.5062 48.329 50.5356 48.8155 50.0856C48.8383 50.0645 48.8602 50.0426 48.8813 50.0198L51.0209 47.7026L54.1145 48.3158C54.4424 48.3828 54.7834 48.3078 55.0529 48.1094C55.3211 47.9117 55.495 47.6112 55.5329 47.2802L55.9025 44.1482L58.7669 42.8342C59.3695 42.5583 59.6344 41.8461 59.3585 41.2436C59.3446 41.2131 59.3293 41.1833 59.3129 41.1542ZM55.3541 38.9858L56.5889 41.189L54.2945 42.2414C53.9141 42.416 53.6522 42.7761 53.6033 43.1918L53.3081 45.7034L50.8277 45.2126C50.419 45.1277 49.9958 45.2645 49.7141 45.5726L48.0005 47.4302L46.2869 45.575C46.0598 45.3294 45.7406 45.1898 45.4061 45.1898C45.3278 45.1893 45.2498 45.1974 45.1733 45.2138L42.6929 45.7046L42.3977 43.193C42.3488 42.7773 42.0869 42.4172 41.7065 42.2426L39.4121 41.1902L40.6469 38.987C40.8533 38.621 40.8583 38.1765 40.6469 37.8134V37.8182L39.4121 35.615L41.7065 34.5626C42.0869 34.388 42.3488 34.0278 42.3977 33.6122L42.6929 31.1006L45.1733 31.5914C45.5819 31.6752 46.0046 31.5386 46.2869 31.2314L48.0005 29.3702L49.7141 31.2254C49.9957 31.5336 50.419 31.6704 50.8277 31.5854L53.3081 31.0946L53.6033 33.6062C53.6522 34.0218 53.9141 34.382 54.2945 34.5566L56.5889 35.609L55.3541 37.8122C55.1498 38.1767 55.1498 38.6213 55.3541 38.9858Z" fill="#F7CA44"/>
<path d="M47.9961 32.3999C44.6824 32.3999 41.9961 35.0863 41.9961 38.3999C42 41.7119 44.6841 44.3959 47.9961 44.3999C51.3097 44.3999 53.9961 41.7136 53.9961 38.3999C53.9961 35.0863 51.3097 32.3999 47.9961 32.3999ZM47.9961 41.9999C46.0078 41.9999 44.3961 40.3882 44.3961 38.3999C44.3961 36.4117 46.0078 34.7999 47.9961 34.7999C49.9843 34.7999 51.5961 36.4117 51.5961 38.3999C51.5961 40.3882 49.9843 41.9999 47.9961 41.9999Z" fill="#F7CA44"/>
<path d="M45.5985 10.8003H26.3984V13.2003H45.5985V10.8003Z" fill="white"/>
<path d="M57.6023 18H14.4023V20.4H57.6023V18Z" fill="white"/>
<path d="M57.6023 22.8003H14.4023V25.2003H57.6023V22.8003Z" fill="white"/>
<path d="M31.1976 38.3999H15.5977V40.7999H31.1976V38.3999Z" fill="white"/>
<path d="M41.0391 48.96V67.68L48.2391 59.76L55.4391 67.68V48.96" stroke="#F7CA44" stroke-width="3"/>
</g>
<defs>
<clipPath id="clip0">
<rect width="72" height="72" fill="white"/>
</clipPath>
</defs>
</svg>
