<svg width="74" height="74" viewBox="0 0 74 74" fill="none" xmlns="http://www.w3.org/2000/svg">
<g clip-path="url(#clip0)">
<path d="M60.0147 62.7101L57.3263 54.6437C56.3868 51.8276 53.9899 49.7489 51.0681 49.217L43.3072 47.8049V47.2033C44.6578 46.4195 45.833 45.3708 46.769 44.1294H49.1136C51.0344 44.1294 52.5975 42.5663 52.5975 40.6455V26.7101C52.5975 18.3859 45.8249 11.6133 37.5007 11.6133C29.1766 11.6133 22.404 18.3859 22.404 26.7101V34.8391C22.404 37.0781 23.9961 38.9512 26.1073 39.3879C26.7588 42.7254 28.8445 45.5497 31.6943 47.2033V47.8049L23.9322 49.217C21.0116 49.7489 18.6135 51.8276 17.6752 54.6437L17.2107 56.0384L13.2553 52.0831C12.8024 51.6302 12.8024 50.8928 13.2553 50.4399L17.8424 45.8539L9.23261 37.2441L4.04861 42.4281C2.51339 43.9633 1.66797 46.0049 1.66797 48.1765C1.66797 50.3481 2.51339 52.3885 4.04861 53.9237L19.7435 69.6186C21.2787 71.1538 23.3202 72.0004 25.4918 72.0004C27.6634 72.0004 29.7038 71.1538 31.2031 69.6534L36.8597 64.4706L35.0957 62.7101H60.0147ZM50.2749 40.6455C50.2749 41.2866 49.7535 41.8068 49.1136 41.8068H48.137C48.4738 41.0392 48.7293 40.2298 48.8942 39.3879C49.3912 39.2845 49.8487 39.0871 50.2749 38.8386V40.6455ZM49.1136 36.8388V32.8393C49.8046 33.2423 50.2749 33.9832 50.2749 34.8391C50.2749 35.695 49.8046 36.4359 49.1136 36.8388ZM25.8878 36.8388C25.1969 36.4359 24.7265 35.695 24.7265 34.8391C24.7265 33.9832 25.1969 33.2423 25.8878 32.8393V36.8388ZM25.8878 29.0326V30.3588C25.4744 30.4668 25.0865 30.6294 24.7265 30.8396V26.7101C24.7265 19.6668 30.4575 13.9359 37.5007 13.9359C44.544 13.9359 50.2749 19.6668 50.2749 26.7101V30.8396C49.9149 30.6294 49.5271 30.4657 49.1136 30.3588V29.0326H47.9524C44.5184 29.0326 41.29 27.6948 38.8606 25.2666L37.5007 23.9067L36.1409 25.2666C33.7114 27.6948 30.4831 29.0326 27.0491 29.0326H25.8878ZM28.2104 37.1617V31.3111C31.6978 31.0486 34.9494 29.6098 37.5007 27.1839C40.0521 29.6098 43.3037 31.0498 46.7911 31.3111V37.1617C46.7911 38.8548 46.3289 40.4388 45.5345 41.8068H37.5007V44.1294H43.6254C41.988 45.5706 39.8477 46.452 37.5007 46.452C32.3783 46.452 28.2104 42.2841 28.2104 37.1617ZM40.9846 48.2392V48.2938L37.5007 51.7777L34.0169 48.2938V48.2392C35.1178 48.5853 36.2872 48.7746 37.5007 48.7746C38.7143 48.7746 39.8837 48.5853 40.9846 48.2392ZM19.877 55.3777C20.5471 53.3663 22.26 51.881 24.3468 51.5001L32.4642 50.0253L37.5007 55.0618L42.5361 50.0264L50.6524 51.5013C52.7392 51.8822 54.4521 53.3663 55.1222 55.3788L56.7933 60.3875H32.7731L28.2499 55.8642L23.2238 60.4107C22.786 60.8508 22.0207 60.8508 21.5818 60.4107L19.0455 57.8744L19.877 55.3777ZM9.23145 40.5282L14.5571 45.8539L13.296 47.1151L7.97029 41.7894L9.23145 40.5282ZM29.5947 67.9788C28.4984 69.0728 27.0398 69.6778 25.4895 69.6778C23.9392 69.6778 22.4806 69.0728 21.3832 67.9765L5.68835 52.2828C4.5921 51.1866 3.98823 49.728 3.98823 48.1777C3.98823 46.6262 4.5921 45.1676 5.68835 44.0713L6.32706 43.4326L11.6527 48.7583L11.6109 48.8001C10.2534 50.1588 10.2534 52.3688 11.6109 53.7275L19.9385 62.0551C20.597 62.7124 21.4714 63.0759 22.4028 63.0759C23.3342 63.0759 24.2086 62.7135 24.8241 62.0957L24.9112 62.0179L30.2613 67.368L29.5947 67.9788ZM31.9753 65.7956L26.6369 60.4572L28.1709 59.0706L33.5001 64.3997L31.9753 65.7956Z" fill="white"/>
<path d="M70.0076 0H53.7495C51.8287 0 50.2656 1.5631 50.2656 3.48387V12.7742C50.2656 14.695 51.8287 16.2581 53.7495 16.2581H56.8513L55.6505 23.2618L66.857 16.2581H70.0076C71.9283 16.2581 73.4914 14.695 73.4914 12.7742V3.48387C73.4914 1.5631 71.9283 0 70.0076 0ZM71.1688 12.7742C71.1688 13.4141 70.6474 13.9355 70.0076 13.9355H66.1904L58.815 18.5446L59.6059 13.9355H53.7495C53.1096 13.9355 52.5882 13.4141 52.5882 12.7742V3.48387C52.5882 2.844 53.1096 2.32258 53.7495 2.32258H70.0076C70.6474 2.32258 71.1688 2.844 71.1688 3.48387V12.7742Z" fill="#F7CA44"/>
<path d="M68.8534 4.64551H54.918V6.96809H68.8534V4.64551Z" fill="white"/>
<path d="M64.2083 9.29053H54.918V11.6131H64.2083V9.29053Z" fill="white"/>
<path d="M68.8578 9.29053H66.5352V11.6131H68.8578V9.29053Z" fill="white"/>
<path d="M37.5019 3.4834C22.3285 3.4834 9.25816 13.9791 5.86023 28.6195L3.65958 24.951L1.66797 26.146L5.7499 32.9477L12.5516 28.8657L11.3566 26.8741L8.20952 28.7624C11.5006 15.3692 23.5444 5.80598 37.5019 5.80598C40.5526 5.80598 43.5627 6.25888 46.4485 7.15308L47.136 4.93501C44.0272 3.97114 40.786 3.4834 37.5019 3.4834Z" fill="white"/>
<path d="M72.9373 25.7138L66.1356 21.6318L62.0549 28.4347L64.0465 29.6296L66.0787 26.2422C67.1483 29.3718 67.6953 32.6455 67.6953 36.0005C67.6953 42.9067 65.303 49.6584 60.9609 55.0108L62.7644 56.474C67.4421 50.7094 70.0178 43.4374 70.0178 36.0005C70.0178 32.4481 69.4453 28.9793 68.3293 25.658L71.7424 27.7054L72.9373 25.7138Z" fill="white"/>
<rect x="9.5" y="38.1602" width="9.64166" height="4.07293" transform="rotate(45 9.5 38.1602)" stroke="#F7CA44" stroke-width="3"/>
<rect x="28.2227" y="57.6001" width="9.64166" height="4.07293" transform="rotate(45 28.2227 57.6001)" stroke="#F7CA44" stroke-width="3"/>
</g>
<path d="M10.3359 37.52L8.58837 39.2253C3.84507 43.8539 3.75205 51.4513 8.38062 56.1946L17.0193 65.0474C21.6478 69.7907 29.2453 69.8837 33.9886 65.2551L35.7361 63.5498" stroke="#F7CA44" stroke-width="3"/>
<defs>
<clipPath id="clip0">
<rect width="72" height="72" fill="white" transform="translate(1.58203)"/>
</clipPath>
</defs>
</svg>
