<svg width="73" height="66" viewBox="0 0 73 66" fill="none" xmlns="http://www.w3.org/2000/svg">
<path d="M45.6291 25C42.4734 25 39.4725 25.9765 36.9964 27.7816C34.5203 25.9765 31.52 25 28.3637 25C24.5251 25 20.9162 26.4444 18.2019 29.0676C12.5994 34.4817 12.5994 43.291 18.2019 48.7051L35.4678 65.388C35.8901 65.796 36.443 66 36.9964 66C37.5499 66 38.1033 65.796 38.525 65.388L55.7909 48.7051C58.5052 46.0824 60 42.5952 60 38.8861C60 35.177 58.5052 31.6898 55.7909 29.0676C53.0766 26.4444 49.4677 25 45.6291 25ZM52.7332 45.7505L36.9964 60.9564L21.2596 45.7505C17.3427 41.9652 17.3427 35.8069 21.2596 32.0217C23.1575 30.1878 25.6804 29.1781 28.3637 29.1781C31.0471 29.1781 33.5699 30.1878 35.4678 32.0217C35.8732 32.4133 36.4227 32.6337 36.9964 32.6337C37.5696 32.6337 38.1196 32.4133 38.525 32.0217C40.4229 30.1878 42.9458 29.1781 45.6297 29.1781C48.313 29.1781 50.8358 30.1878 52.7338 32.0217C54.6311 33.855 55.6761 36.2927 55.6761 38.8861C55.6761 41.4789 54.6311 43.9172 52.7332 45.7505Z" fill="white"/>
<path d="M43.378 35C41.0456 35 38.8275 35.7145 36.9973 37.0353C35.1672 35.7145 32.9496 35 30.6167 35C27.7794 35 25.112 36.0569 23.1058 37.9763C18.9647 41.9378 18.9647 48.3837 23.1058 52.3452L35.8675 64.5522C36.1796 64.8507 36.5883 65 36.9973 65C37.4064 65 37.8155 64.8507 38.1272 64.5522L50.8889 52.3452C52.8951 50.4261 54 47.8745 54 45.1606C54 42.4466 52.8951 39.895 50.8889 37.9763C48.8827 36.0569 46.2153 35 43.378 35ZM48.6289 50.1833L36.9973 61.3096L25.3658 50.1833C22.4707 47.4136 22.4707 42.9075 25.3658 40.1378C26.7686 38.7959 28.6333 38.0571 30.6167 38.0571C32.6 38.0571 34.4647 38.7959 35.8675 40.1378C36.1671 40.4244 36.5733 40.5856 36.9973 40.5856C37.421 40.5856 37.8275 40.4244 38.1272 40.1378C39.53 38.7959 41.3947 38.0571 43.3784 38.0571C45.3618 38.0571 47.2265 38.7959 48.6293 40.1378C50.0317 41.4793 50.804 43.263 50.804 45.1606C50.804 47.0577 50.0317 48.8418 48.6289 50.1833Z" fill="#F7CA44"/>
<path d="M27.0003 23C29.4856 23 31.8776 21.6875 33.5625 19.399C35.1339 17.2636 36 14.4583 36 11.5C36 8.54169 35.1339 5.73697 33.5625 3.60154C31.8776 1.31254 29.4856 0 27.0003 0C24.5144 0 22.1224 1.31254 20.4381 3.60154C18.8661 5.73697 18 8.54226 18 11.5C18 14.4583 18.8661 17.2636 20.4381 19.399C22.1224 21.6875 24.5144 23 27.0003 23ZM27.0003 4.35245C29.5624 4.35245 31.7279 7.6253 31.7279 11.5C31.7279 15.3741 29.5624 18.6475 27.0003 18.6475C24.437 18.6475 22.2721 15.3747 22.2721 11.5C22.2721 7.6253 24.437 4.35245 27.0003 4.35245Z" fill="white"/>
<path d="M45.9994 23C48.4854 23 50.8774 21.6875 52.5624 19.399C54.1339 17.2636 55 14.4583 55 11.5C55 8.54169 54.1344 5.73697 52.5624 3.60154C50.8774 1.31254 48.4854 0 45.9994 0C43.514 0 41.122 1.31254 39.437 3.60154C37.8656 5.73697 37 8.54226 37 11.5C37 14.4583 37.8656 17.2636 39.437 19.399C41.122 21.6875 43.514 23 45.9994 23ZM45.9994 4.35245C48.5628 4.35245 50.7278 7.6253 50.7278 11.5C50.7278 15.3741 48.5622 18.6475 45.9994 18.6475C43.4372 18.6475 41.2722 15.3747 41.2722 11.5C41.2722 7.6253 43.4372 4.35245 45.9994 4.35245Z" fill="white"/>
<path d="M70.8593 13.1634C69.3604 11.1532 67.2248 10 65.0003 10C62.7757 10 60.6401 11.1527 59.1413 13.1634C57.7602 15.0152 57 17.4431 57 19.9997C57 22.5569 57.7602 24.9848 59.1413 26.8366C60.6401 28.8468 62.7757 30 65.0003 30C67.2248 30 69.3604 28.8468 70.8593 26.8366C72.2398 24.9848 73 22.5569 73 19.9997C73 17.4431 72.2398 15.0152 70.8593 13.1634ZM65.0003 25.6235C63.0216 25.6235 61.3505 23.0481 61.3505 19.9997C61.3505 16.9514 63.0216 14.3759 65.0003 14.3759C66.9784 14.3759 68.6495 16.9514 68.6495 19.9997C68.6495 23.0481 66.9784 25.6235 65.0003 25.6235Z" fill="white"/>
<path d="M13.8588 13.1635C12.36 11.1527 10.2245 10 8 10C5.77554 10 3.64002 11.1527 2.14119 13.1635C0.760179 15.0154 0 17.4433 0 20C0 22.5567 0.760179 24.9852 2.14119 26.837C3.64002 28.8473 5.77554 30 8 30C10.2245 30 12.36 28.8473 13.8588 26.837C15.2393 24.9852 16 22.5567 16 20C16 17.4433 15.2393 15.0154 13.8588 13.1635ZM8 25.6239C6.02138 25.6239 4.35035 23.0484 4.35035 20C4.35035 16.9516 6.02138 14.3761 8 14.3761C9.97805 14.3761 11.6496 16.9516 11.6496 20C11.6496 23.0484 9.97805 25.6239 8 25.6239Z" fill="white"/>
</svg>
