<svg width="20" height="14" viewBox="0 0 20 14" fill="none" xmlns="http://www.w3.org/2000/svg">
<path d="M0.754717 2.0944H19.2453C19.6619 2.0944 20 1.75629 20 1.33968C20 0.923076 19.6619 0.584961 19.2453 0.584961H0.754717C0.338113 0.584961 0 0.923076 0 1.33968C0 1.75629 0.338113 2.0944 0.754717 2.0944Z" fill="white"/>
<path d="M0.754717 7.75504H19.2453C19.6619 7.75504 20 7.41693 20 7.00032C20 6.58372 19.6619 6.24561 19.2453 6.24561H0.754717C0.338113 6.24561 0 6.58372 0 7.00032C0 7.41693 0.338113 7.75504 0.754717 7.75504Z" fill="white"/>
<path d="M0.754717 13.4152H19.2453C19.6619 13.4152 20 13.0771 20 12.6605C20 12.2439 19.6619 11.9058 19.2453 11.9058H0.754717C0.338113 11.9058 0 12.2439 0 12.6605C0 13.0771 0.338113 13.4152 0.754717 13.4152Z" fill="white"/>
</svg>
