<svg width="30" height="30" viewBox="0 0 30 30" fill="none" xmlns="http://www.w3.org/2000/svg">
<g clip-path="url(#clip0)">
<path d="M29.4779 7.88965C29.1896 7.88965 28.9558 8.12341 28.9558 8.41171V15.8671C28.9558 16.0386 28.8163 16.1781 28.6449 16.1781L14.3042 16.1782C14.1328 16.1782 13.9933 16.0386 13.9933 15.8671V8.41171C13.9933 8.12341 13.7596 7.88965 13.4713 7.88965C13.183 7.88965 12.9492 8.12341 12.9492 8.41171V15.8671C12.9492 16.6144 13.5571 17.2223 14.3042 17.2223H20.9525V18.7615H20.7697C19.7752 18.7615 18.9661 19.5706 18.9661 20.5651V27.9981C18.9661 28.9926 19.7752 29.8017 20.7697 29.8017H22.1795C23.174 29.8017 23.9831 28.9926 23.9831 27.9981V20.5651C23.9831 19.5706 23.174 18.7615 22.1795 18.7615H21.9966V17.2223L28.6449 17.2222C29.3921 17.2222 29.9999 16.6144 29.9999 15.8671V8.41171C29.9999 8.12335 29.7662 7.88965 29.4779 7.88965ZM22.9389 20.5651V27.9981C22.9389 28.4168 22.5982 28.7576 22.1794 28.7576H20.7697C20.3509 28.7576 20.0102 28.4168 20.0102 27.9981V20.5651C20.0102 20.1464 20.3509 19.8056 20.7697 19.8056H22.1794C22.5982 19.8056 22.9389 20.1463 22.9389 20.5651Z" fill="white"/>
<path d="M18.0767 13.39C18.365 13.39 18.5988 13.1562 18.5988 12.8679V8.53622C18.5988 8.24792 18.365 8.01416 18.0767 8.01416C17.7884 8.01416 17.5547 8.24792 17.5547 8.53622V12.8679C17.5547 13.1563 17.7884 13.39 18.0767 13.39Z" fill="white"/>
<path d="M15.8111 13.39C16.0994 13.39 16.3332 13.1562 16.3332 12.8679V8.53622C16.3332 8.24792 16.0994 8.01416 15.8111 8.01416C15.5228 8.01416 15.2891 8.24792 15.2891 8.53622V12.8679C15.2891 13.1563 15.5228 13.39 15.8111 13.39Z" fill="white"/>
<path d="M22.6158 13.39C22.9041 13.39 23.1379 13.1562 23.1379 12.8679V8.53622C23.1379 8.24792 22.9041 8.01416 22.6158 8.01416C22.3275 8.01416 22.0938 8.24792 22.0938 8.53622V12.8679C22.0938 13.1563 22.3275 13.39 22.6158 13.39Z" fill="white"/>
<path d="M20.3463 13.39C20.6346 13.39 20.8683 13.1562 20.8683 12.8679V8.53622C20.8683 8.24792 20.6346 8.01416 20.3463 8.01416C20.058 8.01416 19.8242 8.24792 19.8242 8.53622V12.8679C19.8242 13.1563 20.058 13.39 20.3463 13.39Z" fill="white"/>
<path d="M27.1471 13.39C27.4354 13.39 27.6691 13.1562 27.6691 12.8679V8.53622C27.6691 8.24792 27.4354 8.01416 27.1471 8.01416C26.8588 8.01416 26.625 8.24792 26.625 8.53622V12.8679C26.625 13.1563 26.8587 13.39 27.1471 13.39Z" fill="white"/>
<path d="M24.8814 13.39C25.1697 13.39 25.4035 13.1562 25.4035 12.8679V8.53622C25.4035 8.24792 25.1697 8.01416 24.8814 8.01416C24.5931 8.01416 24.3594 8.24792 24.3594 8.53622V12.8679C24.3594 13.1563 24.5931 13.39 24.8814 13.39Z" fill="white"/>
<path d="M14.2222 21.2006L8.94398 11.1662L10.5117 7.75152C10.5473 7.75256 10.5828 7.75361 10.6183 7.75361C10.6183 7.75361 10.6184 7.75361 10.6185 7.75361C11.509 7.75361 12.3753 7.43497 13.0578 6.85652C13.7478 6.27163 14.2051 5.45679 14.3456 4.5621C14.5021 3.56546 14.2611 2.56765 13.667 1.75232C13.0729 0.937043 12.1968 0.401839 11.2003 0.245406C11.0051 0.214758 10.8066 0.199219 10.6105 0.199219C9.71988 0.199219 8.85357 0.517859 8.17115 1.09642C7.75528 1.44897 7.42466 1.88553 7.19625 2.37228C6.96789 1.88547 6.63727 1.44897 6.22141 1.09642C5.53886 0.517859 4.67255 0.199219 3.78204 0.199219C3.58587 0.199219 3.38736 0.214758 3.19223 0.245406C2.19559 0.401839 1.31957 0.936981 0.725471 1.75232C0.131429 2.56759 -0.10964 3.56546 0.046855 4.5621C0.18732 5.45673 0.644644 6.27151 1.33456 6.8564C2.01705 7.43496 2.88336 7.75354 3.77393 7.75354C3.80931 7.75354 3.84481 7.75244 3.88025 7.75146L5.44569 11.1713L0.170245 21.2004C0.162875 21.2145 0.156119 21.2289 0.150039 21.2435C-0.0498182 21.7255 -0.0500024 22.2564 0.149424 22.7385C0.348913 23.2206 0.724181 23.5961 1.2062 23.7959C1.2183 23.801 1.23058 23.8055 1.24305 23.8096L2.44735 24.2057C2.50127 24.2235 2.5563 24.232 2.61047 24.232C2.80959 24.232 2.99778 24.1175 3.08493 23.9277L7.15098 15.0717L11.3095 23.9317C11.3975 24.1193 11.5845 24.232 11.7821 24.232C11.8363 24.232 11.8913 24.2235 11.9452 24.2058L13.1494 23.8097C13.1619 23.8056 13.1741 23.801 13.1863 23.796C13.6682 23.5962 14.0436 23.2207 14.2431 22.7386C14.4426 22.2564 14.4423 21.7255 14.2424 21.2436C14.2362 21.2289 14.2295 21.2146 14.2222 21.2006ZM7.91497 3.55256C8.12502 2.21449 9.25863 1.24328 10.6105 1.24328C10.7526 1.24328 10.8965 1.25458 11.0384 1.27687C11.7594 1.39007 12.3933 1.77719 12.8231 2.36718C13.253 2.95704 13.4274 3.67902 13.3142 4.40014C13.1041 5.73839 11.9703 6.70967 10.6184 6.70955C10.4763 6.70955 10.3323 6.69825 10.1909 6.67607C8.7023 6.44231 7.68133 5.04111 7.91497 3.55256ZM7.19618 7.84358L6.52396 6.56558C6.79788 6.2744 7.02562 5.94163 7.19625 5.57926C7.36681 5.94163 7.59455 6.27433 7.86847 6.56558L7.19618 7.84358ZM1.07832 4.40014C0.965127 3.67908 1.13956 2.95711 1.56936 2.36712C1.99917 1.77719 2.63308 1.39001 3.35419 1.27687C3.49595 1.25464 3.63991 1.24328 3.78204 1.24328C5.13386 1.24328 6.26741 2.21449 6.47752 3.55256C6.71116 5.04111 5.69026 6.44225 4.20171 6.67595C4.06002 6.69819 3.91611 6.70949 3.77399 6.70949C2.42204 6.70949 1.28837 5.73827 1.07832 4.40014ZM4.94469 7.56824C5.20972 7.48232 5.46006 7.3679 5.69364 7.22995L6.60626 8.96497L6.05969 10.0041L4.94469 7.56824ZM2.33053 23.0682L1.58994 22.8245C1.37338 22.73 1.20478 22.5582 1.11419 22.3393C1.02403 22.1214 1.02151 21.8822 1.10657 21.6631L8.69873 7.22995C8.93213 7.36777 9.18222 7.48207 9.44706 7.56806L2.33053 23.0682ZM13.2782 22.3393C13.1876 22.5582 13.0191 22.73 12.8024 22.8246L12.0582 23.0694L7.72125 13.8293L8.39416 12.3638L13.2858 21.6632C13.3709 21.8823 13.3683 22.1214 13.2782 22.3393Z" fill="white"/>
</g>
<defs>
<clipPath id="clip0">
<rect width="30" height="30" fill="white"/>
</clipPath>
</defs>
</svg>
