<svg width="20" height="20" viewBox="0 0 20 20" fill="none" xmlns="http://www.w3.org/2000/svg">
<g clip-path="url(#clip0)">
<path d="M18.7975 12.4395C18.5599 12.1128 18.4343 11.7265 18.4343 11.3225V9.57564C18.4343 9.42252 18.4232 9.27197 18.402 9.12463C19.0453 8.69736 20 7.81943 20 6.37287C20 5.09189 19.1426 3.55584 17.9614 2.72049C17.7925 2.60111 17.5702 2.61779 17.4208 2.76119C17.2726 2.90346 17.2468 3.12311 17.3582 3.29541C18.1279 4.48611 18.432 5.47615 18.262 6.23795C18.1636 6.67889 17.91 7.04057 17.49 7.33971C17.0024 6.86752 16.3578 6.55244 15.6313 6.47978L9.17824 5.86689C8.90574 5.84103 8.65667 5.69955 8.49487 5.47873L8.26374 5.16322C8.35507 4.69365 8.27132 4.17939 8.09152 3.80596C7.74163 3.07932 6.5932 1.72217 5.40077 1.72217H4.56062C4.00523 1.72217 3.47663 1.93178 3.07218 2.3124L2.33632 3.00494L0.445462 3.5349C0.143313 3.61787 -0.0477803 3.92404 0.0104228 4.23189L0.134681 4.88936C0.19511 5.20904 0.421126 5.46639 0.713626 5.57791L0.736009 5.70092C0.79722 6.03783 1.0364 6.31033 1.36023 6.41209C1.82562 6.5583 2.67179 6.77365 3.61796 6.77365C3.64249 6.77365 3.6673 6.77303 3.69195 6.77275C3.69277 7.04568 3.73054 7.57588 3.94249 8.34607C3.6521 8.45393 3.44425 8.73303 3.44425 9.06049V9.37365C3.44425 9.7942 3.7864 10.1363 4.20691 10.1363C4.33679 10.1363 4.4591 10.1035 4.56628 10.046C4.81597 10.5975 5.11558 11.17 5.46183 11.7541C6.63921 13.7402 6.84531 15.6607 6.88117 16.2418L6.14429 16.6103C5.83085 16.767 5.63616 17.082 5.63616 17.4324V17.9848C5.63616 18.1466 5.76734 18.2778 5.92913 18.2778H7.85761C8.33214 18.2778 8.73456 17.9073 8.7737 17.4344L9.15765 12.7976C9.68245 12.9252 10.2785 12.9798 10.8877 12.9798C12.2549 12.9798 13.6865 12.706 14.5193 12.3727C15.6223 13.8092 16.9923 14.3415 17.5351 14.5048V16.2208L16.5473 16.6159C16.1963 16.7563 15.9695 17.0913 15.9695 17.4694V17.9847C15.9695 18.1466 16.1007 18.2777 16.2625 18.2777H18.2272C18.6793 18.2777 19.0702 17.9404 19.1365 17.4932L19.6835 13.8004C19.6948 13.7245 19.6758 13.6472 19.6307 13.5851L18.7975 12.4395ZM18.8339 6.36557C18.9935 5.65025 18.8421 4.83264 18.3713 3.88396C19.0036 4.61592 19.4141 5.55701 19.4141 6.37287C19.4141 7.39943 18.8304 8.08662 18.25 8.51627C18.156 8.25521 18.0285 8.01022 17.8718 7.78674C18.3842 7.40834 18.7076 6.93139 18.8339 6.36557ZM4.38367 9.37369C4.38367 9.47115 4.30441 9.55041 4.20695 9.55041C4.10949 9.55041 4.03023 9.47115 4.03023 9.37369V9.06053C4.03023 8.96311 4.10952 8.88385 4.20695 8.88385C4.30437 8.88385 4.38367 8.96311 4.38367 9.06053V9.37369ZM18.557 17.4074C18.533 17.5696 18.3912 17.6919 18.2273 17.6919H16.5555V17.4694C16.5555 17.3324 16.6378 17.2109 16.765 17.16L17.937 16.6912C18.0482 16.6467 18.1212 16.539 18.1212 16.4192V14.2795C18.1212 14.1403 18.0233 14.0203 17.8869 13.9924C17.8653 13.988 15.7102 13.5233 14.4552 11.1977C14.3784 11.0553 14.2007 11.0022 14.0583 11.079C13.9159 11.1558 13.8627 11.3335 13.9396 11.4759C14.0151 11.616 14.0937 11.7495 14.1746 11.8776C13.0062 12.303 10.7151 12.6084 9.20667 12.2058L9.23499 11.8638C9.24835 11.7026 9.12843 11.561 8.96722 11.5476C8.80538 11.5337 8.66445 11.6542 8.65105 11.8154L8.18976 17.3861C8.17558 17.5575 8.02968 17.6918 7.85761 17.6918H6.2221V17.4324C6.2221 17.3054 6.29269 17.1912 6.40632 17.1343L7.31265 16.6812C7.41198 16.6315 7.47468 16.5299 7.4746 16.4188C7.47452 16.3199 7.45523 13.9677 5.96585 11.4553C5.56284 10.7754 5.22538 10.1134 4.96042 9.48529C4.96581 9.44873 4.96952 9.41166 4.96952 9.37365V9.06049C4.96952 8.906 4.92304 8.76232 4.84378 8.64209C5.42628 8.50279 6.55077 8.16064 7.56034 7.42951C7.6914 7.33459 7.7207 7.15146 7.62577 7.02037C7.53089 6.88936 7.34773 6.86006 7.21667 6.95494C6.14281 7.73264 4.8898 8.03775 4.4882 8.12002C4.29679 7.3999 4.27562 6.93174 4.27781 6.7358C4.65531 6.68529 4.94515 6.53408 4.95784 6.52736C5.10046 6.45186 5.15472 6.27553 5.07976 6.13264C5.00484 5.98967 4.82796 5.93455 4.68472 6.009C4.68242 6.01021 4.45031 6.12947 4.16378 6.15975C3.08824 6.27346 2.05558 6.01643 1.53574 5.85307C1.43534 5.82154 1.35773 5.74303 1.32445 5.64291C2.1948 5.65369 3.24972 5.62967 3.88132 5.48396C4.03898 5.4476 4.1373 5.29029 4.10093 5.13264C4.06452 4.97498 3.90714 4.87666 3.74956 4.91307C3.24335 5.0299 2.27788 5.07928 1.03089 5.05189C0.871673 5.04838 0.739837 4.93682 0.710306 4.78053L0.586048 4.12303C0.584095 4.11279 0.590462 4.10268 0.601985 4.09947L2.56366 3.54959C2.60921 3.53686 2.65097 3.51322 2.68538 3.48084L3.47363 2.73896C3.76898 2.46103 4.15495 2.30795 4.5605 2.30795H5.40066C6.27898 2.30795 7.2607 3.43119 7.56347 4.06002C7.7512 4.44994 7.79109 5.0717 7.53277 5.43721C7.36257 5.67799 7.07718 5.77826 6.68488 5.73572C6.05054 5.66666 5.89152 5.151 5.70507 4.3099C5.59163 3.79822 5.48452 3.31498 5.15956 3.01357C5.04097 2.90357 4.85558 2.91053 4.74554 3.02912C4.63554 3.14775 4.64249 3.33311 4.76113 3.44318C4.95202 3.62025 5.03995 4.01686 5.13304 4.4367C5.3071 5.22174 5.5237 6.19873 6.62148 6.31822C6.69472 6.32619 6.77273 6.33111 6.85359 6.33111C7.238 6.33111 7.68691 6.219 7.99831 5.7924L8.0221 5.82486C8.07296 5.89428 8.12933 5.95865 8.19015 6.01791C8.14706 6.07463 8.10234 6.13053 8.05609 6.18514C7.95159 6.30865 7.96699 6.49354 8.0905 6.59803C8.14554 6.64459 8.21273 6.66732 8.2796 6.66732C8.36281 6.66732 8.44546 6.63209 8.50339 6.56361C8.56495 6.49088 8.62398 6.416 8.68066 6.34002C8.82054 6.39768 8.96925 6.43549 9.12277 6.4501L15.5744 7.06287C16.8707 7.19248 17.8483 8.27271 17.8483 9.57557V11.3224C17.8483 11.8511 18.0126 12.3565 18.3235 12.784L19.0864 13.8329L18.557 17.4074Z" fill="white"/>
<path d="M3.73984 3.28809H3.73668C3.57488 3.28809 3.44531 3.41922 3.44531 3.58105C3.44531 3.74289 3.57805 3.87402 3.73984 3.87402C3.90164 3.87402 4.03281 3.74289 4.03281 3.58105C4.03281 3.41922 3.90164 3.28809 3.73984 3.28809Z" fill="white"/>
</g>
<defs>
<clipPath id="clip0">
<rect width="20" height="20" fill="white"/>
</clipPath>
</defs>
</svg>
