<svg width="20" height="20" viewBox="0 0 20 20" fill="none" xmlns="http://www.w3.org/2000/svg">
<path d="M15.2383 4.49262C15.5424 4.49262 15.789 4.24604 15.789 3.94187C15.789 3.63769 15.5424 3.39111 15.2383 3.39111C14.9341 3.39111 14.6875 3.63769 14.6875 3.94187C14.6875 4.24604 14.9341 4.49262 15.2383 4.49262Z" fill="white"/>
<path d="M19.2646 3.75819C18.4141 3.75819 17.684 3.81804 16.9789 3.11294L16.0663 2.20043C15.6531 1.78727 15.0929 1.55518 14.5085 1.55518H11.9466H11.9312C11.3458 1.55518 10.7845 1.78714 10.3698 2.20038L10.3564 2.21379L8.63743 3.93269C8.27903 4.29105 8.07773 4.77713 8.07773 5.28397V5.86088C8.07773 6.9063 8.90744 7.98468 9.94158 8.13889C10.0563 8.15597 10.1694 8.16423 10.2807 8.16423V8.31091C8.47106 9.35386 4.75797 11.457 4.02276 12.1867C3.40403 12.8057 2.93736 13.7842 2.93736 14.7733C2.93736 15.2148 2.99509 15.6638 3.25179 16.2475L1.10151 16.242C0.493201 16.242 0 16.7352 0 17.3435C0 17.9518 0.493201 18.445 1.10151 18.445H10.2698C10.8153 18.445 11.1935 17.8592 10.9298 17.3816C10.6949 16.9566 10.3238 16.6175 9.87539 16.4229C10.1276 15.9219 10.2741 15.5072 10.9068 15.5072H11.7494V17.7106C11.7494 18.1162 12.0782 18.445 12.4838 18.445H15.2158C15.779 18.445 16.1429 17.8308 15.8586 17.3445C15.5201 16.7654 14.9224 16.3563 14.2244 16.2694L14.3877 14.9629C15.2704 14.421 15.9209 13.5207 16.0998 12.4785C16.3501 11.0202 15.7293 9.70308 14.6867 8.91523V7.42984H16.8898C17.6976 7.42984 18.6985 6.86307 19.1141 6.17036C19.2893 5.87855 20.0017 4.82032 20 4.48992C19.998 4.10843 19.6927 3.75819 19.2646 3.75819ZM10.2775 7.42204C9.37971 7.42204 8.81207 6.66149 8.81207 5.87956V5.28415C8.81207 4.97889 8.9286 4.67997 9.15666 4.45201L10.8756 2.73315C11.1063 2.50247 11.416 2.34895 11.7494 2.30806V5.96121C11.7494 6.74672 11.1169 7.42204 10.2775 7.42204ZM1.10151 17.7106C0.899106 17.7106 0.734339 17.5459 0.734339 17.3435C0.734339 17.141 0.899107 16.9763 1.09954 16.9763C3.75885 16.9832 3.09942 16.9814 3.69515 16.983C3.96713 17.3402 4.01137 17.4006 4.42788 17.7106H1.10151ZM18.4845 5.79259C18.1865 6.28918 17.4688 6.69555 16.8898 6.69555H15.0168C14.5389 6.69555 14.1351 6.38768 13.9829 5.96121H13.2181C13.3121 6.42233 13.5831 6.81616 13.9524 7.08135V9.28074C15.0102 10.0803 15.6101 10.9911 15.3761 12.3543C15.1902 13.4368 14.5354 14.0106 13.7029 14.5216C13.5264 15.933 13.473 16.3598 13.4045 16.9074C14.1452 16.9996 14.8123 17.001 15.2158 17.7107C13.6803 17.7107 14.0159 17.7107 12.4838 17.7107C12.4838 15.9502 12.4838 15.8083 12.4838 14.039H11.7494V14.773C11.5549 14.773 11.4002 14.773 10.9068 14.773C10.6802 14.773 10.4688 14.8331 10.2684 14.9178C10.3044 13.9199 9.94337 12.9153 9.20508 12.1769L8.68585 12.6962C9.7746 13.7855 9.70796 15.3789 9.08745 16.351L8.86728 16.7862C9.43851 17.0339 9.986 17.1886 10.2698 17.7107H6.60685C4.97983 17.7092 3.69492 16.3987 3.6756 14.8129C3.65999 13.9343 4.05855 13.0256 4.86532 12.4246C5.67355 11.8226 10.1418 9.23847 11.0151 8.73527C11.0151 8.53557 11.0155 8.21926 11.0145 8.02948C11.8685 7.7261 12.4838 6.9192 12.4838 5.96121V2.28951H14.5088C14.8983 2.28951 15.2718 2.44423 15.5472 2.71965L16.4595 3.63212C16.9825 4.15506 17.67 4.44668 18.404 4.47954C18.4816 4.74652 18.6622 4.96678 18.9017 5.09726L18.4845 5.79259Z" fill="white"/>
</svg>
