<svg width="30" height="30" viewBox="0 0 30 30" fill="none" xmlns="http://www.w3.org/2000/svg">
<g clip-path="url(#clip0)">
<path d="M26.7677 23.535C26.3173 23.535 25.4874 23.6694 23.4856 24.8305C22.7579 25.2525 22.1182 25.67 21.7912 25.8886H10.8815C8.4462 25.8886 6.465 23.9074 6.465 21.4721C6.465 19.0368 8.4462 17.0556 10.8815 17.0556H21.4723C24.8767 17.0556 27.6466 14.2859 27.6466 10.8813C27.6466 7.47688 24.8767 4.70695 21.4723 4.70695H20.5861V3.23227C20.5861 2.78526 20.3826 2.13203 19.4144 1.5596C18.8674 1.23619 18.1098 0.952148 17.1629 0.715485C15.3172 0.254059 12.8773 0 10.293 0C7.70851 0 5.26886 0.254059 3.42316 0.715485C2.47627 0.952148 1.71867 1.23619 1.17142 1.5596C0.203247 2.13203 0 2.78526 0 3.23227V7.93945C0 8.38669 0.203247 9.03992 1.17142 9.61212C1.71867 9.93553 2.47627 10.2196 3.42316 10.4562C5.26886 10.9177 7.70874 11.1717 10.293 11.1717C12.8773 11.1717 15.3172 10.9177 17.1629 10.4562C18.1098 10.2196 18.8674 9.93553 19.4144 9.61212C20.3828 9.03992 20.5861 8.38669 20.5861 7.93945V6.46477H21.4723C23.9076 6.46477 25.8888 8.44597 25.8888 10.8813C25.8888 13.3166 23.9076 15.2978 21.4723 15.2978H10.8815C7.47688 15.2978 4.70718 18.0677 4.70718 21.4721C4.70718 24.8767 7.47688 27.6464 10.8815 27.6464H21.7912C22.1182 27.865 22.7579 28.2825 23.4856 28.7045C25.4874 29.8656 26.3173 30 26.7677 30C28.55 30 30 28.55 30 26.7675C30 24.9852 28.55 23.535 26.7677 23.535ZM4.29268 2.3172C5.94635 1.95648 8.07724 1.75781 10.293 1.75781C12.5089 1.75781 14.6397 1.95648 16.2932 2.3172C17.8267 2.65182 18.517 3.03017 18.7557 3.23227C18.517 3.4346 17.8267 3.81271 16.2932 4.14734C14.6395 4.50829 12.5086 4.70695 10.293 4.70695C8.07724 4.70695 5.94635 4.50829 4.29291 4.14734C2.75917 3.81271 2.06886 3.4346 1.83014 3.23227C2.06886 3.03017 2.75917 2.65182 4.29268 2.3172ZM16.2932 8.85452C14.6397 9.21524 12.5089 9.41391 10.293 9.41391C8.07724 9.41391 5.94635 9.21524 4.29291 8.85452C2.55295 8.47504 1.8988 8.03925 1.75781 7.86804V5.2018C2.22061 5.40459 2.77771 5.58792 3.42316 5.74928C5.26886 6.21071 7.70874 6.46477 10.293 6.46477C12.8773 6.46477 15.3172 6.21071 17.1629 5.74928C17.8082 5.58792 18.3655 5.40459 18.8283 5.2018V7.86804C18.6873 8.03925 18.0329 8.47504 16.2932 8.85452ZM26.7677 28.2422C26.2949 28.2422 24.9605 27.5647 23.6694 26.7675C24.9605 25.9703 26.2949 25.2928 26.7677 25.2928C27.5807 25.2928 28.2422 25.9545 28.2422 26.7675C28.2422 27.5807 27.5807 28.2422 26.7677 28.2422Z" fill="white" fill-opacity="0.8"/>
</g>
<defs>
<clipPath id="clip0">
<rect width="30" height="30" fill="white"/>
</clipPath>
</defs>
</svg>
