<svg width="30" height="30" viewBox="0 0 30 30" fill="none" xmlns="http://www.w3.org/2000/svg">
<path d="M29.2667 20.9944H28.6793C28.4436 17.3411 27.4123 14.7565 26.8032 13.518C26.637 13.18 26.3594 12.9258 26.0266 12.7884C26.028 12.7051 26.0283 12.6417 26.0283 12.6402C26.0283 11.5984 25.3449 10.7042 24.3524 10.4273V10.1603C24.3524 9.16121 23.7144 8.2826 22.7649 7.97398C22.5339 7.89881 22.2856 8.02531 22.2105 8.25641C22.1354 8.4875 22.2618 8.73576 22.4929 8.81082C23.0788 9.00125 23.4724 9.54354 23.4724 10.1602V10.5419C23.4724 10.8863 23.7082 11.1804 24.0458 11.2571C24.695 11.4045 25.1483 11.9732 25.1483 12.6402C25.1483 12.6496 25.1483 12.6608 25.1481 12.6732H4.85279C4.8525 12.6621 4.85168 12.6514 4.85168 12.6402C4.85168 11.9732 5.30508 11.4045 5.95424 11.2571C6.2918 11.1804 6.52758 10.8863 6.52758 10.5419V10.2042C6.52758 9.7952 6.69902 9.40062 6.99803 9.12172C7.28707 8.85213 7.65832 8.71842 8.04521 8.7452C8.09678 8.74877 8.14887 8.75527 8.19979 8.76453C8.58732 8.83508 8.95951 8.58893 9.04652 8.20438C9.33275 6.93846 10.4402 6.05428 11.7397 6.05428C12.4209 6.05428 13.0753 6.30441 13.5823 6.75869C13.7749 6.93119 14.0477 6.99014 14.2946 6.91244C14.526 6.83961 14.767 6.8027 15.0107 6.8027C15.9336 6.8027 16.7573 7.31926 17.1603 8.15082C17.2543 8.34482 17.4272 8.48791 17.6348 8.54346C17.8384 8.59813 18.055 8.56168 18.2288 8.44379C18.5125 8.25137 18.8443 8.14971 19.1884 8.14971C19.2772 8.14971 19.3662 8.1565 19.453 8.16992C19.693 8.20748 19.9179 8.04254 19.9551 7.80236C19.9922 7.56219 19.8277 7.33742 19.5875 7.30027C19.4563 7.28 19.3221 7.26975 19.1884 7.26975C18.7246 7.26975 18.2753 7.39197 17.8788 7.62459C17.3097 6.58572 16.2011 5.92268 15.0107 5.92268C14.7045 5.92268 14.4013 5.96539 14.1083 6.04965C13.4486 5.48457 12.6108 5.17432 11.7398 5.17432C10.9087 5.17432 10.0959 5.46172 9.45105 5.98361C8.85147 6.46889 8.41822 7.13768 8.22082 7.87824C8.18256 7.87367 8.1443 7.87004 8.10615 7.8674C7.47434 7.82363 6.86725 8.04043 6.39785 8.47836C5.92113 8.92314 5.64773 9.55221 5.64773 10.2043V10.4273C4.65527 10.7042 3.97178 11.5984 3.97178 12.6402C3.97178 12.6902 3.97336 12.7389 3.97658 12.7871C3.64242 12.9242 3.36357 13.1789 3.19676 13.5181C2.58773 14.7565 1.55643 17.3411 1.32076 20.9944H0.733301C0.328945 20.9944 0 21.3233 0 21.7277V24.092C0 24.4964 0.328945 24.8253 0.733301 24.8253H7.84301C8.086 24.8253 8.28299 24.6283 8.28299 24.3853C8.28299 24.1423 8.08605 23.9454 7.84301 23.9454H0.879961V21.8744H29.12V23.9454H10.8935C10.6505 23.9454 10.4535 24.1423 10.4535 24.3853C10.4535 24.6283 10.6505 24.8253 10.8935 24.8253H29.2667C29.6711 24.8253 30 24.4964 30 24.092V21.7277C30 21.3233 29.6711 20.9944 29.2667 20.9944ZM2.20219 20.9943C2.43469 17.5228 3.40963 15.0792 3.98631 13.9064C4.07285 13.7305 4.2317 13.6098 4.41727 13.5693C4.43719 13.572 4.45734 13.574 4.47803 13.574C4.47814 13.574 4.47832 13.574 4.4785 13.574L25.4481 13.5533C25.6902 13.554 25.9068 13.689 26.0136 13.9063C26.5904 15.0791 27.5654 17.5228 27.7978 20.9943H2.20219Z" fill="white"/>
<path d="M21.1049 16.0546C21.0724 15.1247 20.319 14.3627 19.3898 14.3199C18.8921 14.297 18.4207 14.4732 18.0614 14.8163C17.7855 15.0798 17.6047 15.4137 17.5356 15.7802H12.4652C12.3962 15.4142 12.2153 15.0799 11.9392 14.8163C11.5799 14.4732 11.1078 14.2969 10.6107 14.3199C9.68155 14.3627 8.92815 15.1248 8.89563 16.0546C8.87987 16.5039 9.03415 16.9376 9.31499 17.2742C9.03415 17.6107 8.87987 18.0444 8.89563 18.4937C8.92815 19.4235 9.68155 20.1856 10.6107 20.2284C10.6396 20.2298 10.6682 20.2304 10.6968 20.2304C11.1623 20.2304 11.6007 20.0552 11.9392 19.732C12.2153 19.4684 12.3961 19.1342 12.4652 18.7681H17.5355C17.6044 19.1342 17.7853 19.4684 18.0615 19.732C18.4207 20.0751 18.8933 20.2512 19.3899 20.2284C20.3191 20.1856 21.0724 19.4235 21.1049 18.4937C21.1207 18.0444 20.9665 17.6107 20.6856 17.2741C20.9665 16.9376 21.1207 16.5039 21.1049 16.0546ZM20.2256 18.4628C20.2089 18.9381 19.824 19.3275 19.3493 19.3494C19.095 19.361 18.8529 19.2711 18.6691 19.0957C18.4853 18.9201 18.3841 18.6834 18.3841 18.4288C18.3842 18.2841 18.3281 18.1481 18.226 18.0459C18.1244 17.9442 17.9892 17.8882 17.8454 17.8882H12.1553C12.0115 17.8882 11.8763 17.9442 11.7747 18.0459C11.6726 18.1481 11.6164 18.284 11.6166 18.4283V18.4294C11.6166 18.6834 11.5154 18.92 11.3315 19.0957C11.1478 19.2711 10.9056 19.3613 10.6513 19.3494C10.1767 19.3275 9.79171 18.9381 9.77507 18.4629C9.76358 18.1341 9.92993 17.8217 10.2091 17.6475C10.3379 17.5671 10.4162 17.426 10.4162 17.2742C10.4162 17.1224 10.3379 16.9813 10.2091 16.901C9.92993 16.7267 9.76358 16.4143 9.77507 16.0855C9.79171 15.6103 10.1767 15.2209 10.6513 15.199C10.9077 15.1872 11.1478 15.2773 11.3315 15.4528C11.5154 15.6283 11.6166 15.8649 11.6166 16.1196C11.6164 16.2643 11.6726 16.4003 11.7747 16.5025C11.8763 16.6042 12.0115 16.6602 12.1553 16.6602H17.8454C17.9892 16.6602 18.1244 16.6042 18.226 16.5025C18.3281 16.4003 18.3842 16.2643 18.3841 16.119C18.3841 15.865 18.4853 15.6283 18.6691 15.4528C18.8529 15.2774 19.0953 15.1873 19.3493 15.1991C19.824 15.2209 20.2089 15.6104 20.2256 16.0856C20.2371 16.4143 20.0707 16.7268 19.7915 16.9011C19.6628 16.9815 19.5845 17.1225 19.5845 17.2743C19.5845 17.426 19.6628 17.5671 19.7915 17.6474C20.0707 17.8217 20.2371 18.1341 20.2256 18.4628Z" fill="white"/>
</svg>
