<svg width="20" height="20" viewBox="0 0 20 20" fill="none" xmlns="http://www.w3.org/2000/svg">
<g clip-path="url(#clip0)">
<path d="M4.51488 11.965C4.6782 12.046 4.87753 11.9806 4.96023 11.817C5.04324 11.6536 4.97757 11.4533 4.81456 11.3693C4.76624 11.3443 3.62492 10.7376 3.32589 8.94496C3.30156 8.79762 3.18191 8.68465 3.03289 8.66864C2.88054 8.65164 2.74324 8.73762 2.68753 8.87598C1.96421 10.685 3.3282 12.764 3.38652 12.8516C3.4505 12.948 3.55652 13 3.66386 13C3.72718 13 3.79152 12.9816 3.84851 12.9439C4.00152 12.842 4.04316 12.6353 3.94152 12.482C3.9332 12.4693 3.36886 11.6063 3.19484 10.59C3.74324 11.5676 4.47187 11.9433 4.51488 11.965Z" fill="white"/>
<path d="M6.06406 12.6599C6.24441 12.6239 6.36172 12.4482 6.32574 12.2679C6.28941 12.0876 6.11574 11.9703 5.9334 12.0066C5.26441 12.1403 3.99871 12.8686 3.99871 14.6666C3.99871 15.9712 4.27203 16.8763 4.48305 17.3796C3.75336 17.5213 3.33203 17.9803 3.33203 18.6666C3.33203 19.4393 4.03305 19.9999 4.99871 19.9999H5.33203C5.88469 19.9999 6.22469 19.5856 6.26137 19.5386C6.37469 19.3936 6.34902 19.1839 6.20371 19.0706C6.05871 18.9569 5.84906 18.9832 5.73605 19.1279C5.73438 19.1303 5.56504 19.3333 5.33207 19.3333H4.99871C4.50172 19.3333 3.99871 19.1043 3.99871 18.6666C3.99871 18.5016 3.99871 17.9999 4.99871 17.9999C5.12105 17.9999 5.23305 17.9323 5.29137 17.8246C5.34969 17.7169 5.34371 17.5856 5.27703 17.4832C5.2707 17.4736 4.66535 16.5239 4.66535 14.6666C4.66539 12.9762 6.00871 12.6719 6.06406 12.6599Z" fill="white"/>
<path d="M15.5132 17.3794C15.7242 16.8761 15.9976 15.9711 15.9976 14.6664C15.9976 12.8684 14.7319 12.1401 14.0629 12.0064C13.8822 11.9708 13.7069 12.0871 13.6706 12.2678C13.6345 12.4481 13.7519 12.6238 13.9322 12.6597C13.9896 12.6714 15.3309 12.9594 15.3309 14.6664C15.3309 16.5238 14.7256 17.4734 14.7202 17.4814C14.6522 17.5838 14.6456 17.7154 14.7036 17.8238C14.7616 17.9321 14.8746 17.9998 14.9976 17.9998C15.9976 17.9998 15.9976 18.5015 15.9976 18.6665C15.9976 19.1041 15.4945 19.3331 14.9976 19.3331H14.6642C14.4342 19.3331 14.2649 19.1335 14.2582 19.1255C14.1445 18.9831 13.9369 18.9578 13.7926 19.0705C13.6472 19.1838 13.6215 19.3935 13.7349 19.5385C13.7716 19.5855 14.1116 19.9998 14.6642 19.9998H14.9976C15.9636 19.9998 16.6642 19.4392 16.6642 18.6665C16.6642 17.9801 16.2429 17.5211 15.5132 17.3794Z" fill="white"/>
<path d="M12.0572 17.3588L12.6632 13.7218C12.6936 13.5401 12.5709 13.3685 12.3893 13.3381C12.2069 13.3081 12.0359 13.4305 12.0059 13.6118L11.3856 17.3335H11.3346C11.1502 17.3335 11.0012 17.4828 11.0012 17.6668C11.0012 17.8508 11.1502 18.0001 11.3346 18.0001H11.6679C12.6679 18.0001 12.6679 18.5018 12.6679 18.6668C12.6679 19.1045 12.1649 19.3335 11.6679 19.3335H11.3346C10.7832 19.3335 10.3346 18.8848 10.3346 18.3335V13.6668C10.3346 13.4828 10.1856 13.3335 10.0012 13.3335C9.81691 13.3335 9.66793 13.4828 9.66793 13.6668V18.3335C9.66793 18.8848 9.21926 19.3335 8.66793 19.3335H8.33461C7.83762 19.3335 7.33461 19.1045 7.33461 18.6668C7.33461 18.5018 7.33461 18.0001 8.33461 18.0001H8.66793C8.85227 18.0001 9.00125 17.8508 9.00125 17.6668C9.00125 17.4828 8.85227 17.3335 8.66793 17.3335H8.61691L7.9966 13.6118C7.96695 13.4305 7.79527 13.3081 7.61328 13.3381C7.4316 13.3685 7.30894 13.5401 7.3393 13.7218L7.94531 17.3588C7.13797 17.4705 6.66797 17.9418 6.66797 18.6668C6.66797 19.4395 7.36898 20.0001 8.33465 20.0001H8.66797C9.21262 20.0001 9.69695 19.7375 10.0013 19.3325C10.3055 19.7375 10.7899 20.0001 11.3345 20.0001H11.6679C12.6339 20.0001 13.3345 19.4395 13.3345 18.6668C13.3345 17.9418 12.8645 17.4705 12.0572 17.3588Z" fill="white"/>
<path d="M18.2967 2.85102C17.5641 1.38535 15.7991 0 14.6654 0C14.0217 0 12.9141 0.998008 12.3577 1.54199C11.7147 0.991016 10.932 0.66668 9.99871 0.66668C9.06539 0.66668 8.28269 0.991016 7.63973 1.54203C7.08336 0.998008 5.9757 0 5.33203 0C4.19836 0 2.43336 1.38535 1.7007 2.85102C1.48004 3.29168 1.33203 3.88734 1.33203 4.33336C1.33203 5.25234 2.07969 6.00004 2.99871 6.00004C3.82703 6.00004 4.1977 5.45539 4.49504 5.0177C4.53137 4.96469 4.56738 4.91137 4.60937 4.85168L5.9427 2.85168C6.04504 2.69836 6.00371 2.49133 5.85035 2.38934C5.69637 2.28668 5.49 2.32832 5.38801 2.48168L4.05969 4.47434C4.02035 4.53 3.98203 4.58633 3.94367 4.64266C3.64398 5.08398 3.45199 5.33332 2.99867 5.33332C2.44734 5.33332 1.99867 4.88465 1.99867 4.33332C1.99867 3.98699 2.12133 3.5 2.29699 3.14898C2.95367 1.83531 4.54133 0.666641 5.33199 0.666641C5.61633 0.666641 6.46266 1.32863 7.16832 2.01465C5.91598 3.47066 5.33199 5.90832 5.33199 8.33332C5.33199 11.411 6.68398 12.6666 9.99867 12.6666C13.3134 12.6666 14.6654 11.411 14.6654 8.33332C14.6654 5.90797 14.0814 3.47066 12.829 2.01465C13.5347 1.32863 14.3807 0.666641 14.6654 0.666641C15.456 0.666641 17.0437 1.83531 17.7007 3.14898C17.8761 3.5 17.9987 3.98699 17.9987 4.33332C17.9987 4.88465 17.55 5.33332 16.9987 5.33332C16.5291 5.33332 16.3437 5.08664 16.0311 4.61434L14.6094 2.48168C14.5074 2.32836 14.3004 2.28668 14.147 2.38934C13.9937 2.49133 13.9524 2.69832 14.0547 2.85168L15.475 4.98234C15.7911 5.45934 16.1487 6 16.9987 6C17.9177 6 18.6654 5.25234 18.6654 4.33332C18.6654 3.88734 18.5174 3.29168 18.2967 2.85102ZM13.9987 8.33332C13.9987 11.0407 12.9517 12 9.99871 12C7.0457 12 5.99871 11.0407 5.99871 8.33332C5.99871 4.84898 7.2357 1.33332 9.99871 1.33332C12.7617 1.33332 13.9987 4.84898 13.9987 8.33332Z" fill="white"/>
<path d="M11.7012 9.84752C11.6442 9.95854 11.4216 9.99885 11.3309 10.0002C10.9406 10.0002 10.5372 9.66783 10.3915 9.28584C10.9395 9.16186 11.3309 8.79018 11.3309 8.3335C11.3309 7.77283 10.7452 7.3335 9.99755 7.3335C9.2499 7.3335 8.66424 7.77283 8.66424 8.3335C8.66424 8.79018 9.05556 9.16182 9.60357 9.28584C9.45822 9.66783 9.0549 10.0002 8.66654 10.0002C8.57088 9.99885 8.35287 9.9585 8.29189 9.84385C8.20556 9.68119 8.00388 9.61951 7.84123 9.70584C7.67857 9.79217 7.61658 9.99385 7.70322 10.1565C7.96654 10.6525 8.59357 10.6669 8.66424 10.6669C9.18189 10.6669 9.68255 10.3712 9.99755 9.94818C10.3126 10.3712 10.8132 10.6669 11.3309 10.6669C11.4022 10.6669 12.0362 10.6522 12.2939 10.1529C12.3782 9.9892 12.3139 9.78822 12.1502 9.70389C11.9865 9.61955 11.7859 9.6835 11.7012 9.84752ZM9.99755 8.66686C9.59689 8.66686 9.33088 8.46619 9.33088 8.33354C9.33088 8.20088 9.59689 8.00021 9.99755 8.00021C10.4045 8.00021 10.6642 8.19756 10.6642 8.33354C10.6642 8.46951 10.4045 8.66686 9.99755 8.66686Z" fill="white"/>
<path d="M11.4961 6C11.7718 6 11.9961 5.77566 11.9961 5.5C11.9961 5.22434 11.7718 5 11.4961 5C11.2204 5 10.9961 5.22434 10.9961 5.5C10.9961 5.77566 11.2204 6 11.4961 6Z" fill="white"/>
<path d="M8.49609 6C8.77176 6 8.99609 5.77566 8.99609 5.5C8.99609 5.22434 8.77176 5 8.49609 5C8.22043 5 7.99609 5.22434 7.99609 5.5C7.99609 5.77566 8.22043 6 8.49609 6Z" fill="white"/>
</g>
<defs>
<clipPath id="clip0">
<rect width="20" height="20" fill="white"/>
</clipPath>
</defs>
</svg>
