<svg width="35" height="26" viewBox="0 0 35 26" fill="none" xmlns="http://www.w3.org/2000/svg">
<path d="M7.31708 25.939V24.1753C7.31708 23.4989 6.91659 23.0582 6.25922 23.0582C5.91396 23.0582 5.54454 23.176 5.28698 23.555C5.08673 23.2314 4.80362 23.0582 4.37205 23.0582C4.21159 23.0511 4.05191 23.0849 3.90731 23.1568C3.76271 23.2286 3.63768 23.3362 3.54343 23.4698V23.115H3V25.9368H3.54343V24.3222C3.54343 23.8254 3.82931 23.5877 4.2298 23.5877C4.6303 23.5877 4.85886 23.8524 4.85886 24.3222V25.939H5.40229V24.3222C5.40229 23.8254 5.68816 23.5877 6.08866 23.5877C6.48916 23.5877 6.71772 23.8524 6.71772 24.3222V25.939H7.31708ZM16.2399 23.1462H15.2386V22.2945H14.6966V23.1462H14.1248V23.643H14.6966V24.9688C14.6966 25.6153 14.9251 25.9979 15.6115 25.9979C15.8715 25.9923 16.1263 25.9217 16.3538 25.7921L16.1819 25.2952C16.0276 25.3944 15.8487 25.4454 15.6668 25.4422C15.3809 25.4422 15.238 25.2654 15.238 24.9716V23.6203H16.2392V23.1498L16.2399 23.1462ZM21.3303 23.0582C21.1823 23.0548 21.036 23.091 20.9056 23.1631C20.7753 23.2353 20.6654 23.3409 20.5867 23.4698V23.115H20.0432V25.9368H20.5867V24.352C20.5867 23.8815 20.8152 23.5877 21.1874 23.5877C21.313 23.5929 21.4376 23.6126 21.5589 23.6466L21.7308 23.1171C21.5997 23.0831 21.4655 23.0634 21.3303 23.0582ZM13.6373 23.352C13.3515 23.1462 12.951 23.0582 12.5222 23.0582C11.8358 23.0582 11.407 23.3818 11.407 23.9404C11.407 24.4109 11.7219 24.6749 12.3219 24.7637L12.6078 24.7928C12.9227 24.8517 13.1229 24.9695 13.1229 25.1164C13.1229 25.3222 12.8944 25.4713 12.4649 25.4713C12.1369 25.4782 11.8157 25.375 11.5499 25.1774L11.2641 25.6182C11.6645 25.912 12.1507 25.973 12.4379 25.973C13.2389 25.973 13.6677 25.5912 13.6677 25.0617C13.6677 24.5649 13.3225 24.3272 12.7238 24.2385L12.4379 24.2094C12.1804 24.1803 11.9546 24.0916 11.9546 23.9155C11.9546 23.7097 12.1831 23.5607 12.498 23.5607C12.8433 23.5607 13.1844 23.7076 13.3563 23.7956L13.6373 23.352ZM21.9311 24.528C21.9311 25.3797 22.4745 25.9979 23.3611 25.9979C23.7616 25.9979 24.0475 25.9099 24.3334 25.6742L24.0475 25.2335C23.8451 25.402 23.5933 25.4953 23.3328 25.4982C22.8495 25.4982 22.4745 25.1164 22.4745 24.5578C22.4745 23.9993 22.8446 23.6203 23.3328 23.6203C23.5933 23.6233 23.8451 23.7165 24.0475 23.885L24.3334 23.4443C24.0475 23.2094 23.7616 23.1207 23.3611 23.1207C22.5028 23.0617 21.9311 23.6792 21.9311 24.5316V24.528ZM18.0987 23.0582C17.2977 23.0582 16.7543 23.6458 16.7543 24.528C16.7543 25.4102 17.3261 25.9979 18.1554 25.9979C18.5588 26.0066 18.9528 25.8717 19.2705 25.616L18.9847 25.2044C18.7549 25.3874 18.4743 25.4903 18.1837 25.4982C17.8122 25.4982 17.4117 25.2633 17.3551 24.7637H19.3859V24.5287C19.3859 23.6466 18.8707 23.0589 18.0987 23.0589V23.0582ZM18.0704 23.5877C18.4709 23.5877 18.7568 23.8524 18.7851 24.2931H17.2984C17.3841 23.8815 17.6437 23.5877 18.0704 23.5877ZM10.6633 24.528V23.1171H10.1199V23.472C9.91962 23.2072 9.63651 23.0603 9.23326 23.0603C8.46126 23.0603 7.88883 23.6778 7.88883 24.5302C7.88883 25.3825 8.46057 26 9.23326 26C9.63375 26 9.91962 25.8531 10.1199 25.5884V25.9432H10.6633V24.528ZM8.46126 24.528C8.46126 23.9986 8.77614 23.5877 9.31957 23.5877C9.83469 23.5877 10.1482 23.9993 10.1482 24.528C10.1482 25.0866 9.80293 25.4684 9.31957 25.4684C8.77614 25.4975 8.46126 25.0568 8.46126 24.528ZM29.5965 23.0582C29.4485 23.0548 29.3021 23.091 29.1718 23.1631C29.0414 23.2353 28.9315 23.3409 28.8528 23.4698V23.115H28.3094V25.9368H28.8521V24.352C28.8521 23.8815 29.0807 23.5877 29.4528 23.5877C29.5784 23.5929 29.703 23.6126 29.8243 23.6466L29.9963 23.1171C29.8651 23.0831 29.7309 23.0634 29.5958 23.0582H29.5965ZM27.48 24.528V23.1171H26.9366V23.472C26.7364 23.2072 26.4533 23.0603 26.05 23.0603C25.278 23.0603 24.7056 23.6778 24.7056 24.5302C24.7056 25.3825 25.2773 26 26.05 26C26.4505 26 26.7364 25.8531 26.9366 25.5884V25.9432H27.48V24.528ZM25.278 24.528C25.278 23.9986 25.5929 23.5877 26.1363 23.5877C26.6514 23.5877 26.9649 23.9993 26.9649 24.528C26.9649 25.0866 26.6197 25.4684 26.1363 25.4684C25.5929 25.4975 25.278 25.0568 25.278 24.528ZM33 24.528V22H32.4566V23.4698C32.2563 23.2051 31.9732 23.0582 31.5699 23.0582C30.798 23.0582 30.2255 23.6757 30.2255 24.528C30.2255 25.3804 30.7973 25.9979 31.5699 25.9979C31.9704 25.9979 32.2563 25.851 32.4566 25.5862V25.9411H33V24.528ZM30.798 24.528C30.798 23.9986 31.1128 23.5877 31.6563 23.5877C32.1714 23.5877 32.4849 23.9993 32.4849 24.528C32.4849 25.0866 32.1396 25.4684 31.6563 25.4684C31.1121 25.4982 30.7973 25.0575 30.7973 24.528H30.798Z" fill="white"/>
<path d="M23 2H12V19H23V2Z" fill="#FF5F00"/>
<path d="M13.0018 10.5C13.0022 8.91188 13.362 7.34441 14.0544 5.91497C14.7468 4.48553 15.7538 3.23116 17 2.24578C15.4502 1.02797 13.5888 0.270546 11.6286 0.0600809C9.66834 -0.150384 7.68843 0.194605 5.91514 1.05561C4.14185 1.91662 2.64674 3.2589 1.60073 4.92902C0.554712 6.59913 0 8.52969 0 10.5C0 12.4703 0.554712 14.4009 1.60073 16.071C2.64674 17.7411 4.14185 19.0834 5.91514 19.9444C7.68843 20.8054 9.66834 21.1504 11.6286 20.9399C13.5888 20.7295 15.4502 19.972 17 18.7542C15.7538 17.7688 14.7468 16.5145 14.0544 15.085C13.362 13.6556 13.0022 12.0881 13.0018 10.5Z" fill="#EB001B"/>
<path d="M35 10.5C35.0015 12.4694 34.4153 14.3995 33.3084 16.0695C32.2015 17.7394 30.6186 19.0819 28.7407 19.9432C26.8629 20.8046 24.7659 21.1501 22.6897 20.9403C20.6134 20.7304 18.6417 19.9736 17 18.7565C18.3212 17.7711 19.3888 16.5165 20.1228 15.0866C20.8567 13.6567 21.238 12.0886 21.238 10.5C21.238 8.91136 20.8567 7.34332 20.1228 5.91342C19.3888 4.48352 18.3212 3.22885 17 2.24345C18.6417 1.02635 20.6134 0.269601 22.6897 0.0597436C24.7659 -0.150114 26.8629 0.195397 28.7407 1.05676C30.6186 1.91812 32.2015 3.26055 33.3084 4.93052C34.4153 6.60049 35.0015 8.53057 35 10.5Z" fill="#F79E1B"/>
</svg>
