<svg width="34" height="26" viewBox="0 0 34 26" fill="none" xmlns="http://www.w3.org/2000/svg">
<path d="M10.7535 25.9188V24.0329C10.7535 23.321 10.2987 22.8421 9.57476 22.836C9.19576 22.8299 8.79705 22.9494 8.52113 23.369C8.3142 23.0355 7.99053 22.836 7.53042 22.836C7.35804 22.8273 7.18638 22.864 7.03243 22.9423C6.87848 23.0207 6.74757 23.1381 6.65264 23.2829V22.9114H6V25.9226H6.65871V24.2499C6.65871 23.7268 6.94751 23.4497 7.39246 23.4497C7.82528 23.4497 8.04511 23.7329 8.04511 24.243V25.9181H8.70381V24.2499C8.70381 23.7268 9.00702 23.4497 9.43757 23.4497C9.88252 23.4497 10.0963 23.7329 10.0963 24.243V25.9181L10.7535 25.9188ZM14.4283 24.4136V22.9083H13.7756V23.2715C13.5687 23.0005 13.2549 22.8307 12.8289 22.8307C11.9883 22.8307 11.3303 23.4923 11.3303 24.4121C11.3303 25.3318 11.989 25.9934 12.8289 25.9934C13.2556 25.9934 13.5687 25.8236 13.7756 25.5526V25.9181H14.4283V24.4136ZM12.0027 24.4136C12.0027 23.8844 12.3476 23.4497 12.9123 23.4497C13.452 23.4497 13.8151 23.8654 13.8151 24.4136C13.8151 24.9618 13.4512 25.3775 12.9123 25.3775C12.346 25.3775 12.0011 24.9427 12.0011 24.4136H12.0027ZM28.3847 22.8291C28.605 22.827 28.8237 22.8681 29.0283 22.9502C29.2189 23.0267 29.3927 23.14 29.5399 23.2837C29.6849 23.4265 29.7999 23.5971 29.878 23.7854C30.0407 24.1888 30.0407 24.6399 29.878 25.0432C29.7999 25.2315 29.6849 25.4022 29.5399 25.545C29.3927 25.6887 29.2189 25.802 29.0283 25.8785C28.6139 26.0405 28.1541 26.0405 27.7397 25.8785C27.5494 25.8022 27.376 25.6889 27.2295 25.545C27.0854 25.4018 26.971 25.2312 26.893 25.0432C26.7303 24.6399 26.7303 24.1888 26.893 23.7854C26.971 23.5975 27.0854 23.4269 27.2295 23.2837C27.376 23.1398 27.5494 23.0265 27.7397 22.9502C27.9447 22.8679 28.1639 22.8268 28.3847 22.8291ZM28.3847 23.4489C28.2572 23.4478 28.1308 23.4719 28.0125 23.5197C27.9011 23.5647 27.8 23.632 27.7154 23.7177C27.6303 23.8051 27.5633 23.9086 27.5183 24.0222C27.4224 24.2742 27.4224 24.5529 27.5183 24.8049C27.5633 24.9186 27.6303 25.0221 27.7154 25.1095C27.8 25.1951 27.9011 25.2625 28.0125 25.3074C28.252 25.4018 28.5182 25.4018 28.7577 25.3074C28.8694 25.2622 28.971 25.1949 29.0563 25.1095C29.1422 25.0224 29.2097 24.9188 29.2549 24.8049C29.3509 24.5529 29.3509 24.2742 29.2549 24.0222C29.2097 23.9084 29.1422 23.8048 29.0563 23.7177C28.971 23.6323 28.8694 23.5649 28.7577 23.5197C28.6392 23.4715 28.5125 23.4472 28.3847 23.4481V23.4489ZM17.9773 24.4136C17.9712 23.4748 17.3944 22.8322 16.5537 22.8322C15.676 22.8322 15.0612 23.4748 15.0612 24.4136C15.0612 25.3714 15.701 25.995 16.5977 25.995C17.0525 25.995 17.4634 25.8815 17.8272 25.5732L17.5073 25.0882C17.2597 25.2876 16.953 25.3985 16.6356 25.4034C16.2157 25.4034 15.8329 25.2085 15.7389 24.6664H17.9652C17.9697 24.5834 17.9773 24.5019 17.9773 24.4136ZM15.7449 24.1494C15.8139 23.7146 16.077 23.4185 16.5416 23.4185C16.9615 23.4185 17.2314 23.6827 17.2996 24.1494H15.7449ZM20.7243 23.6773C20.4395 23.5125 20.1176 23.4234 19.7889 23.4185C19.4311 23.4185 19.2181 23.5509 19.2181 23.771C19.2181 23.9727 19.4455 24.0291 19.726 24.0671L20.033 24.1113C20.6856 24.2057 21.0806 24.4829 21.0806 25.012C21.0806 25.5853 20.5788 25.995 19.7162 25.995C19.2272 25.995 18.7755 25.8686 18.4177 25.6044L18.7247 25.0942C19.0125 25.3088 19.3639 25.4198 19.7222 25.4095C20.1672 25.4095 20.4044 25.277 20.4044 25.044C20.4044 24.8742 20.2354 24.7798 19.8776 24.7288L19.5706 24.6846C18.8998 24.5902 18.5359 24.2879 18.5359 23.7961C18.5359 23.1977 19.0248 22.8322 19.7836 22.8322C20.2604 22.8322 20.6932 22.9395 21.0063 23.1474L20.7243 23.6773ZM23.8587 23.5075H22.7921V24.8704C22.7921 25.175 22.899 25.3744 23.225 25.3744C23.4284 25.3677 23.6269 25.3093 23.8018 25.2046L23.9898 25.765C23.7451 25.9182 23.4625 25.9989 23.1742 25.998C22.4025 25.998 22.1334 25.5823 22.1334 24.8826V23.5121H21.527V22.9137H22.1334V22H22.7921V22.9137H23.8579L23.8587 23.5075ZM26.116 22.8337C26.2742 22.8345 26.431 22.8623 26.5799 22.9159L26.379 23.5334C26.2494 23.4813 26.1108 23.4555 25.9712 23.4573C25.5445 23.4573 25.3315 23.7344 25.3315 24.2324V25.9203H24.6796V22.9083H25.3224V23.2715C25.4024 23.1334 25.518 23.0196 25.657 22.942C25.796 22.8645 25.9533 22.826 26.1122 22.8307L26.116 22.8337Z" fill="white"/>
<path d="M22 2H13V19H22V2Z" fill="#7673C0"/>
<path d="M12.9843 11.0004C12.9831 9.3343 13.344 7.68978 14.0398 6.19137C14.7355 4.69295 15.7478 3.37992 17 2.35172C15.45 1.07625 13.5885 0.283059 11.6282 0.0628124C9.66799 -0.157434 7.6881 0.204149 5.91487 1.10623C4.14163 2.00832 2.6466 3.41451 1.60064 5.16408C0.554679 6.91364 0 8.936 0 11C0 13.064 0.554679 15.0864 1.60064 16.8359C2.6466 18.5855 4.14163 19.9917 5.91487 20.8938C7.6881 21.7959 9.66799 22.1574 11.6282 21.9372C13.5885 21.7169 15.45 20.9238 17 19.6483C15.7479 18.6202 14.7356 17.3072 14.0399 15.809C13.3442 14.3107 12.9832 12.6663 12.9843 11.0004Z" fill="#EB001B"/>
<path d="M34 10.9996C34 13.0637 33.4454 15.0861 32.3995 16.8357C31.3535 18.5853 29.8585 19.9915 28.0853 20.8936C26.312 21.7958 24.3321 22.1574 22.3719 21.9372C20.4116 21.717 18.5501 20.9239 17 19.6484C18.2506 18.6189 19.2616 17.3056 19.9568 15.8075C20.652 14.3094 21.0133 12.6656 21.0133 11C21.0133 9.33444 20.652 7.69062 19.9568 6.1925C19.2616 4.69438 18.2506 3.38106 17 2.35159C18.55 1.07618 20.4115 0.283035 22.3717 0.0628058C24.3319 -0.157423 26.3117 0.204147 28.0849 1.10619C29.8582 2.00824 31.3532 3.41437 32.3992 5.16387C33.4452 6.91338 33.9999 8.93567 34 10.9996Z" fill="#00A1DF"/>
</svg>
