<svg width="40" height="40" viewBox="0 0 40 40" fill="none" xmlns="http://www.w3.org/2000/svg">
<g clip-path="url(#clip0)">
<path d="M12.7148 31.5524C12.6637 31.5523 12.6126 31.5471 12.5625 31.5368C12.5122 31.527 12.4629 31.512 12.4156 31.4923C12.3686 31.4727 12.3236 31.4486 12.2812 31.4203C12.1955 31.3638 12.1222 31.2904 12.0656 31.2047C12.0369 31.1623 12.0129 31.117 11.9938 31.0695C11.9739 31.0225 11.9589 30.9736 11.9492 30.9234C11.9284 30.8229 11.9284 30.7192 11.9492 30.6188C11.959 30.5684 11.974 30.5192 11.9938 30.4719C12.0523 30.329 12.1525 30.2071 12.2812 30.1219C12.3236 30.0937 12.3686 30.0696 12.4156 30.05C12.4629 30.0302 12.5122 30.0153 12.5625 30.0055C12.663 29.9852 12.7666 29.9852 12.8672 30.0055C12.9173 30.0152 12.9663 30.0301 13.0133 30.05C13.0606 30.0694 13.1059 30.0935 13.1484 30.1219C13.2342 30.1784 13.3075 30.2518 13.3641 30.3375C13.3923 30.3799 13.4163 30.4249 13.4359 30.4719C13.4554 30.5193 13.4703 30.5685 13.4805 30.6188C13.5013 30.7192 13.5013 30.8229 13.4805 30.9234C13.4704 30.9735 13.4555 31.0224 13.4359 31.0695C13.4165 31.1169 13.3924 31.1621 13.3641 31.2047C13.3075 31.2904 13.2342 31.3638 13.1484 31.4203C13.1059 31.4487 13.0606 31.4728 13.0133 31.4923C12.9663 31.5122 12.9173 31.5271 12.8672 31.5368C12.8171 31.5471 12.766 31.5523 12.7148 31.5524Z" fill="black"/>
<path d="M35.937 30.8582C35.9339 30.8504 35.9308 30.8427 35.9275 30.835C35.2084 29.1524 33.522 28.5305 31.5263 29.2122L26.0834 30.7173C25.7688 29.7644 24.9838 28.9534 23.874 28.5416C23.8671 28.5391 23.8602 28.5366 23.8533 28.5342L17.8704 26.5036C17.3724 25.8599 15.8126 24.2129 12.892 24.2129C10.851 24.2129 9.04547 25.613 8.0125 27.1392H0.78125C0.678654 27.1392 0.577063 27.1594 0.482276 27.1987C0.38749 27.2379 0.301364 27.2955 0.228818 27.368C0.156272 27.4406 0.0987257 27.5267 0.0594649 27.6215C0.0202042 27.7163 -2.05182e-06 27.8179 1.56271e-10 27.9205L1.56271e-10 37.7702C-2.05182e-06 37.8728 0.0202042 37.9744 0.0594649 38.0692C0.0987257 38.164 0.156272 38.2501 0.228818 38.3227C0.301364 38.3952 0.38749 38.4528 0.482276 38.492C0.577063 38.5313 0.678654 38.5515 0.78125 38.5515H5.42633C5.52892 38.5515 5.63052 38.5313 5.7253 38.492C5.82009 38.4528 5.90621 38.3952 5.97876 38.3227C6.05131 38.2501 6.10885 38.164 6.14811 38.0692C6.18737 37.9744 6.20758 37.8728 6.20758 37.7702V37.0957H8.38594C8.48853 37.0957 8.59012 37.0755 8.68491 37.0362C8.7797 36.997 8.86582 36.9394 8.93837 36.8669C9.01092 36.7943 9.06846 36.7082 9.10772 36.6134C9.14698 36.5186 9.16719 36.417 9.16719 36.3144V36.0896C10.437 36.2004 10.8547 36.4412 12.0209 37.1137C13.5397 37.9992 15.1066 38.7992 16.7145 39.5101C16.7258 39.5152 16.7373 39.5201 16.7488 39.5246C17.5505 39.8353 18.4025 39.9959 19.2623 39.9984C20.1548 40.0013 21.0375 39.8123 21.8506 39.4442L33.8812 35.1367C33.9026 35.1291 33.9237 35.1205 33.9443 35.1109C35.0941 34.5819 36.8074 33.0911 35.937 30.8582ZM4.64508 36.9889H1.5625V28.7016H4.64508V36.9889ZM7.60469 35.5331H6.20758V28.7016H7.60469V35.5331ZM33.32 33.6779L21.2948 37.9834C21.2843 37.9872 21.27 37.9928 21.2596 37.997C21.2491 38.0013 21.2385 38.0059 21.2281 38.0106C19.5534 38.7803 17.9614 38.3195 17.3375 38.0769C15.7832 37.3904 14.2688 36.6169 12.8015 35.76C11.523 35.0228 10.907 34.6675 9.16719 34.5238V28.2315C9.90773 27.0177 11.3438 25.7753 12.8921 25.7753C15.5473 25.7753 16.6723 27.5023 16.7166 27.572C16.812 27.7271 16.9586 27.844 17.131 27.9026L23.34 30.0099C24.3316 30.3821 24.8557 31.2313 24.6148 32.0782C24.5049 32.4648 24.2466 32.7922 23.8962 32.989C23.5458 33.1858 23.1318 33.2361 22.7445 33.1289L15.7451 30.9108C15.6473 30.8798 15.5443 30.8684 15.4421 30.8772C15.3399 30.8859 15.2404 30.9148 15.1493 30.962C15.0582 31.0093 14.9774 31.074 14.9113 31.1525C14.8452 31.231 14.7953 31.3217 14.7643 31.4195C14.7333 31.5173 14.7219 31.6203 14.7307 31.7225C14.7395 31.8247 14.7683 31.9242 14.8155 32.0153C14.8628 32.1064 14.9275 32.1872 15.006 32.2533C15.0845 32.3194 15.1752 32.3693 15.273 32.4003L22.2847 34.6223C22.2921 34.6246 22.2995 34.6269 22.307 34.629C22.6965 34.7408 23.1044 34.7742 23.5069 34.7275C23.9094 34.6807 24.2987 34.5546 24.6522 34.3565C25.0067 34.1602 25.3188 33.8955 25.5704 33.5778C25.822 33.2601 26.008 32.8957 26.1177 32.5055C26.1357 32.4423 26.1516 32.379 26.1655 32.3157L32.0313 30.6907C32.8785 30.4013 33.9906 30.297 34.4858 31.4374C34.9983 32.7762 33.6662 33.5127 33.32 33.6779Z" fill="black"/>
<path d="M27.2852 11.2104C27.234 11.2103 27.1829 11.2051 27.1328 11.1948C27.0828 11.1847 27.0339 11.1698 26.9867 11.1503C26.9394 11.1309 26.8941 11.1068 26.8516 11.0784C26.7658 11.0219 26.6925 10.9485 26.6359 10.8628C26.6076 10.8202 26.5835 10.775 26.5641 10.7276C26.5442 10.6806 26.5293 10.6317 26.5195 10.5815C26.4987 10.481 26.4987 10.3774 26.5195 10.2769C26.5294 10.2265 26.5443 10.1773 26.5641 10.13C26.5836 10.083 26.6077 10.038 26.6359 9.99561C26.6925 9.90989 26.7658 9.83653 26.8516 9.77998C26.8941 9.7516 26.9394 9.72752 26.9867 9.70811C27.0337 9.68822 27.0827 9.6733 27.1328 9.66357C27.2844 9.63323 27.4416 9.64873 27.5844 9.70811C27.6314 9.72769 27.6764 9.75176 27.7187 9.77998C27.8471 9.86568 27.9471 9.98747 28.0063 10.13C28.0263 10.1773 28.0415 10.2265 28.0516 10.2769C28.0714 10.3775 28.0714 10.4809 28.0516 10.5815C28.0416 10.6317 28.0264 10.6806 28.0063 10.7276C27.9871 10.7751 27.9631 10.8204 27.9344 10.8628C27.8778 10.9485 27.8045 11.0219 27.7187 11.0784C27.6764 11.1066 27.6314 11.1307 27.5844 11.1503C27.5372 11.1696 27.4882 11.1845 27.4383 11.1948C27.3879 11.205 27.3366 11.2103 27.2852 11.2104Z" fill="black"/>
<path d="M10.5698 11.4863C10.6513 11.1641 10.7673 10.8516 10.9159 10.5543C10.7656 10.8508 10.6494 11.1635 10.5698 11.4863ZM17.7167 13.1941C17.7073 13.227 17.6979 13.259 17.6878 13.291C17.687 13.2949 17.6854 13.2988 17.6847 13.302C17.555 13.7972 17.2956 14.249 16.9331 14.6105C16.8854 14.6582 16.837 14.7035 16.787 14.7457C16.7729 14.759 16.7581 14.7715 16.7433 14.784C16.5181 14.9732 16.2648 15.126 15.9925 15.2371C15.987 15.2395 15.9823 15.2418 15.9769 15.2441C15.2694 15.5318 14.4769 15.5279 13.7724 15.2331C13.0679 14.9383 12.5087 14.3767 12.2169 13.671C11.9251 12.9652 11.9245 12.1727 12.2152 11.4665C12.5059 10.7603 13.0642 10.1978 13.7683 9.90195C13.7712 9.89984 13.7743 9.89801 13.7776 9.89648C13.7776 9.89648 13.6761 9.36211 13.8058 8.8918C13.919 8.47773 14.0151 8.27695 14.0769 8.18789C13.4328 8.30744 12.823 8.56746 12.2908 8.94947C11.7587 9.33147 11.3172 9.82606 10.9979 10.398C10.9698 10.4496 10.9417 10.502 10.9159 10.5543C10.7656 10.8508 10.6494 11.1635 10.5698 11.4863C10.5589 11.5301 10.5487 11.5738 10.5394 11.6184C10.2918 12.7557 10.4995 13.9448 11.1179 14.931C11.7363 15.9171 12.7163 16.6219 13.848 16.8944C14.9797 17.1669 16.173 16.9855 17.1725 16.3889C18.1721 15.7923 18.8983 14.8281 19.1956 13.7027L17.7167 13.1941ZM14.08 8.18164C14.0792 8.18398 14.0776 8.18555 14.0769 8.18789C14.0782 8.18567 14.0798 8.18358 14.0815 8.18164H14.08Z" fill="black"/>
<path d="M39.217 2.64766H34.5717C34.3645 2.64773 34.1659 2.73007 34.0194 2.87656C33.8729 3.02306 33.7905 3.22173 33.7905 3.42891V4.10391H31.6123C31.5097 4.10388 31.4081 4.12407 31.3133 4.16332C31.2185 4.20257 31.1324 4.26011 31.0598 4.33267C30.9873 4.40522 30.9297 4.49135 30.8905 4.58615C30.8512 4.68095 30.8311 4.78255 30.8311 4.88516V5.10938C29.5616 4.99922 29.1436 4.75781 27.9772 4.08516C26.4583 3.19983 24.8913 2.39989 23.2834 1.68906C23.2723 1.68357 23.2608 1.67887 23.249 1.675C22.4545 1.36172 20.3725 0.746875 18.1483 1.75469L15.0045 2.88047L12.3545 0.230469C11.6647 0.599219 12.16 0.885156 11.249 0.230469L2.54983 8.93047C3.6053 9.64844 2.21389 9.7 2.54983 10.0352L17.4155 24.9016C17.8631 24.8695 18.0842 24.7398 18.5209 24.9016L26.4631 16.9594C26.6701 16.9766 26.8842 16.9867 27.1061 16.9867C29.1475 16.9867 30.953 15.5859 31.9858 14.0602H39.217C39.4242 14.0601 39.6229 13.9777 39.7694 13.8313C39.9159 13.6848 39.9982 13.4861 39.9983 13.2789V3.42891C39.9982 3.22173 39.9159 3.02306 39.7694 2.87656C39.6229 2.73007 39.4242 2.64773 39.217 2.64766ZM11.8022 1.88828L13.5826 3.66875C13.0467 3.99724 12.4304 4.17109 11.8018 4.17109C11.1732 4.17109 10.5569 3.99724 10.0209 3.66875L11.8022 1.88828ZM5.98733 11.2633L4.20686 9.48281L5.98733 7.70234C6.31631 8.23796 6.49046 8.85424 6.49046 9.48281C6.49046 10.1114 6.31631 10.7277 5.98733 11.2633ZM17.9686 23.2445L16.1881 21.4641C16.7235 21.135 17.3397 20.9607 17.9682 20.9607C18.5967 20.9607 19.2128 21.135 19.7483 21.4641L17.9686 23.2445ZM20.874 20.3383C20.0282 19.7277 19.0114 19.399 17.9682 19.399C16.9249 19.399 15.9082 19.7277 15.0623 20.3383L7.11311 12.3891C7.7241 11.5432 8.05295 10.5263 8.05295 9.48281C8.05295 8.43935 7.7241 7.42244 7.11311 6.57656L8.89593 4.79453C9.742 5.40504 10.7588 5.7336 11.8022 5.7336C12.8455 5.7336 13.8624 5.40504 14.7084 4.79453L16.3975 6.48359C15.9022 6.55797 15.4324 6.75126 15.0281 7.04692C14.6239 7.34257 14.2973 7.73179 14.0764 8.18125H14.078C14.0762 8.18319 14.0746 8.18528 14.0733 8.1875C14.0115 8.27656 13.9155 8.47734 13.8022 8.89141C13.6725 9.36172 13.774 9.89609 13.774 9.89609C13.7708 9.89762 13.7676 9.89945 13.7647 9.90156C13.7708 9.89838 13.777 9.89551 13.7834 9.89297C13.9272 11.0938 14.792 12.1633 16.1241 12.6578L16.1451 12.6648L17.7069 13.1953C17.6998 13.2273 17.692 13.2586 17.6842 13.2906C17.6944 13.2586 17.7037 13.2266 17.7131 13.1938L19.192 13.7023C19.192 13.7016 19.1928 13.7 19.1928 13.6992L21.8303 14.5945C21.6842 15.2757 21.6824 15.98 21.825 16.6619C21.9676 17.3439 22.2515 17.9884 22.6584 18.5539L20.874 20.3383ZM23.7842 17.4289C23.4834 16.938 23.3117 16.379 23.285 15.8039C23.71 16.111 24.1729 16.3618 24.6623 16.55L23.7842 17.4289ZM30.8311 12.9672C30.0905 14.1812 28.6545 15.4242 27.1061 15.4242C26.8334 15.4245 26.5611 15.4052 26.2912 15.3664H26.2881C24.6006 15.1211 23.6936 14.1617 23.3944 13.782C23.378 13.7586 23.31 13.6703 23.3006 13.6555C23.2064 13.487 23.053 13.3595 22.8701 13.2977L16.6584 11.1891C15.667 10.8172 15.1428 9.96797 15.3834 9.12188V9.12031C15.3837 9.12 15.3839 9.11963 15.3841 9.11923C15.3842 9.11882 15.3843 9.11839 15.3842 9.11797C15.495 8.73226 15.7535 8.40585 16.1035 8.20968C16.4536 8.0135 16.8669 7.96342 17.2537 8.07031L24.253 10.2883C24.3508 10.3193 24.4538 10.3307 24.556 10.3219C24.6582 10.3131 24.7577 10.2842 24.8488 10.2369C24.9399 10.1897 25.0208 10.1249 25.0868 10.0464C25.1529 9.96789 25.2028 9.87712 25.2338 9.7793C25.2648 9.68147 25.2762 9.5785 25.2674 9.47627C25.2586 9.37403 25.2297 9.27454 25.1825 9.18345C25.1352 9.09237 25.0705 9.01149 24.9919 8.94543C24.9134 8.87937 24.8227 8.82942 24.7248 8.79844L19.1584 7.03438L19.11 6.98594C19.1092 6.98594 19.1092 6.98516 19.1084 6.98438L16.2264 4.10234L18.7037 3.21562C18.7115 3.2125 18.7217 3.20859 18.7303 3.20547C18.7326 3.20469 18.7365 3.20313 18.7389 3.20235C18.7491 3.19766 18.76 3.19297 18.7701 3.18829C20.4444 2.41875 22.0365 2.87969 22.6608 3.12188C24.2151 3.80838 25.7295 4.582 27.1967 5.43907C28.4756 6.17657 29.0912 6.53126 30.8311 6.675V12.9672ZM33.7905 12.4977H32.3936V5.66641H33.7905V12.4977ZM38.4358 12.4977H35.353V4.21016H38.4358V12.4977Z" fill="black"/>
<path d="M17.3635 24.8497L2.59814 10.0842C2.43776 9.92386 2.34766 9.70633 2.34766 9.47951C2.34766 9.25269 2.43776 9.03516 2.59814 8.87478L11.2066 0.266268C11.3666 0.106201 11.5834 0.0160692 11.8097 0.0156266C12.036 0.0151841 12.2532 0.104467 12.4137 0.263907C14.1959 2.03402 19.2959 7.10583 19.1546 7.03646C17.5628 6.25521 16.3958 6.47982 16.3958 6.47982L12.4108 2.54549C12.2506 2.38734 12.0345 2.29872 11.8094 2.29886C11.5843 2.299 11.3683 2.38788 11.2083 2.54623L4.8141 8.87479C4.73402 8.95406 4.67038 9.04837 4.62686 9.1523C4.58333 9.25624 4.56078 9.36775 4.56049 9.48043C4.5602 9.59311 4.58218 9.70474 4.62516 9.8089C4.66815 9.91306 4.7313 10.0077 4.81098 10.0874L17.3567 22.633C17.4366 22.713 17.5316 22.7763 17.6362 22.8193C17.7408 22.8623 17.8529 22.8841 17.9659 22.8835C18.079 22.8829 18.1908 22.8599 18.295 22.8158C18.3991 22.7717 18.4934 22.7074 18.5725 22.6266C20.2023 20.9614 24.5683 16.5063 24.6087 16.5254C25.1922 16.7925 25.8228 16.9414 26.4642 16.9632L18.5728 24.8498C18.4124 25.0101 18.1949 25.1002 17.9681 25.1001C17.7413 25.1001 17.5239 25.01 17.3635 24.8497Z" fill="#EFC64C"/>
<path d="M19.1993 13.7051C18.8086 15.191 17.3993 17.0707 14.9219 17.0707C12.4446 17.0707 10.418 15.0559 10.4297 12.5785C10.4312 12.2555 10.4673 11.9336 10.5376 11.6184C10.5469 11.5738 10.5571 11.5301 10.568 11.4863C10.6495 11.1641 10.7655 10.8516 10.9141 10.5543C10.9399 10.502 10.968 10.4496 10.9961 10.398C11.0214 10.3527 11.0476 10.3077 11.0746 10.2631C11.7123 9.18518 12.7793 8.38351 14.0672 8.18398C14.0711 8.1832 14.0751 8.18242 14.0782 8.18164H14.0797C14.078 8.18358 14.0764 8.18567 14.0751 8.18789C14.0133 8.27695 13.9172 8.47773 13.804 8.8918C13.6743 9.36211 13.7758 9.89648 13.7758 9.89648C13.7725 9.89801 13.7694 9.89984 13.7665 9.90195C12.4954 10.6027 12.1438 11.2191 12.0704 12.5785C11.986 14.1488 13.3493 15.4301 14.9219 15.4301C15.2814 15.4334 15.6384 15.3704 15.9751 15.2441C15.9805 15.2418 15.9852 15.2395 15.9907 15.2371C16.2649 15.13 16.5189 14.9767 16.7415 14.784C16.7563 14.7715 16.7711 14.759 16.7852 14.7457C17.2075 14.3528 17.5173 13.8544 17.6829 13.302C17.6836 13.2988 17.6852 13.2949 17.686 13.291C17.6961 13.259 17.7055 13.227 17.7149 13.1941L19.1938 13.7027L19.1993 13.7051Z" fill="#EFC64C"/>
</g>
<defs>
<clipPath id="clip0">
<rect width="40" height="40" fill="white"/>
</clipPath>
</defs>
</svg>
