<svg width="44" height="48" viewBox="0 0 44 48" fill="none" xmlns="http://www.w3.org/2000/svg">
<g clip-path="url(#clip0)">
<path d="M37.0163 33.715C36.0857 33.715 35.332 34.5394 35.332 35.5574C35.332 36.5754 36.0857 37.3997 37.0163 37.3997C37.947 37.3997 38.7006 36.5754 38.7006 35.5574C38.7006 34.5394 37.947 33.715 37.0163 33.715Z" fill="black" fill-opacity="0.8"/>
<path d="M36.1742 26.3456C35.7094 26.3456 35.332 26.7584 35.332 27.2668C35.332 27.7753 35.7094 28.188 36.1742 28.188C36.639 28.188 37.0163 27.7753 37.0163 27.2668C37.0163 26.7584 36.639 26.3456 36.1742 26.3456Z" fill="black" fill-opacity="0.8"/>
<path d="M11.2468 33.715C10.3162 33.715 9.5625 34.5394 9.5625 35.5574C9.5625 36.5754 10.3162 37.3997 11.2468 37.3997C12.1774 37.3997 12.9311 36.5754 12.9311 35.5574C12.9311 34.5394 12.1774 33.715 11.2468 33.715Z" fill="black" fill-opacity="0.8"/>
<path d="M40.2148 22.7199L38.7628 16.3667C39.2789 15.8266 39.5437 15.1102 39.5437 14.3704C39.5437 12.8465 38.4105 11.6068 37.0173 11.6068H30.2802V8.8433C30.2802 7.3194 29.1469 6.07977 27.7537 6.07977H3.16315C1.76999 6.07977 0.636719 7.3194 0.636719 8.8433V32.7939C0.636719 34.3178 1.76999 35.5574 3.16315 35.5574H6.19487C6.19487 38.6052 8.46142 41.0844 11.2477 41.0844C14.034 41.0844 16.3006 38.6052 16.3006 35.5574H31.9645C31.9645 38.6052 34.231 41.0844 37.0173 41.0844C39.8036 41.0844 42.0702 38.6052 42.0702 35.5574C42.0702 35.5049 42.0679 35.4527 42.0666 35.4001C43.0485 35.0212 43.7545 33.9961 43.7545 32.7939V27.2668C43.7545 24.9768 42.2189 23.0726 40.2148 22.7199ZM37.2019 17.1339L38.4651 22.6609H31.471L33.402 20.5487C33.731 20.1889 33.731 19.6059 33.402 19.2461C33.0731 18.8863 32.5401 18.8863 32.2112 19.2461L30.2802 21.358V17.1339H37.2019ZM37.8595 14.3704C37.8595 14.8788 37.4821 15.2915 37.0173 15.2915H30.2802V13.4492H37.0173C37.4818 13.4492 37.8595 13.8623 37.8595 14.3704ZM11.2477 39.2421C9.3904 39.2421 7.87915 37.589 7.87915 35.5574C7.87915 33.4981 9.41771 31.8727 11.2477 31.8727C13.082 31.8727 14.6163 33.5024 14.6163 35.5574C14.6163 37.589 13.105 39.2421 11.2477 39.2421ZM16.0114 33.715C15.3081 31.5413 13.4044 30.0303 11.2477 30.0303C9.09006 30.0303 7.1857 31.5424 6.48369 33.715H3.16315C2.69865 33.715 2.32101 33.3019 2.32101 32.7939V8.8433C2.32101 8.33521 2.69865 7.92212 3.16315 7.92212H27.7537C28.2182 7.92212 28.5959 8.33521 28.5959 8.8433V33.715H16.0114ZM37.0173 39.2421C35.16 39.2421 33.6487 37.589 33.6487 35.5574C33.6487 33.4981 35.1873 31.8727 37.0173 31.8727C38.8516 31.8727 40.3859 33.5024 40.3859 35.5574C40.3859 37.589 38.8746 39.2421 37.0173 39.2421ZM41.7211 33.5391C40.9741 31.46 39.1154 30.0303 37.0173 30.0303C34.8597 30.0303 32.9553 31.5424 32.2533 33.715H30.2802V24.5033H39.5437C40.6415 24.5033 41.5777 25.2733 41.9254 26.3456H39.5437C39.0786 26.3456 38.7016 26.758 38.7016 27.2668C38.7016 27.7756 39.0786 28.188 39.5437 28.188H42.0702V32.7939C42.0702 33.1001 41.932 33.3714 41.7211 33.5391Z" fill="black" fill-opacity="0.8"/>
<path d="M18.8279 18.9762H16.3015V16.2127C16.3015 15.7039 15.9245 15.2915 15.4593 15.2915C14.9942 15.2915 14.6172 15.7039 14.6172 16.2127V19.8974C14.6172 20.4062 14.9942 20.8186 15.4593 20.8186H18.8279C19.2931 20.8186 19.67 20.4062 19.67 19.8974C19.67 19.3886 19.2931 18.9762 18.8279 18.9762Z" fill="black"/>
<path d="M22.0951 19.1605C22.0951 23.3072 19.0418 26.5125 15.4597 26.5125C11.8775 26.5125 8.82422 23.3072 8.82422 19.1605C8.82422 15.0137 11.8775 11.8085 15.4597 11.8085C19.0418 11.8085 22.0951 15.0137 22.0951 19.1605Z" stroke="#FFBF00" stroke-width="2"/>
</g>
<defs>
<clipPath id="clip0">
<rect width="43.1177" height="47.1642" fill="white" transform="translate(0.636719)"/>
</clipPath>
</defs>
</svg>
