<svg width="40" height="40" viewBox="0 0 40 40" fill="none" xmlns="http://www.w3.org/2000/svg">
<g opacity="0.8">
<path d="M37.5797 16.7316H29.6556C29.2535 16.7316 28.9285 17.0566 28.9285 17.4587C28.9285 17.8607 29.2535 18.1857 29.6556 18.1857H36.2732L38.3809 37.816H1.64894L4.12309 18.1857H10.7523C11.1544 18.1857 11.4794 17.8607 11.4794 17.4587C11.4794 17.0566 11.1544 16.7316 10.7523 16.7316H2.84058L0 39.2701H40L37.5797 16.7316Z" fill="black"/>
<path d="M19.3796 28.3316C19.2728 28.3949 19.1586 28.4509 19.0561 28.517C18.8961 28.6203 18.7398 28.7286 18.5864 28.8406C18.2629 29.0783 18.1931 29.5334 18.4301 29.857C18.5726 30.0511 18.7936 30.1536 19.0176 30.1536C19.1666 30.1536 19.3171 30.1078 19.4472 30.0133C19.5767 29.918 19.7083 29.8264 19.8457 29.7377C20.079 29.5865 20.327 29.4447 20.5829 29.3153C20.9232 29.143 21.0613 28.7402 20.9188 28.3927C20.9246 28.3869 20.9319 28.3825 20.937 28.3767C22.2522 26.9837 26.6843 21.7635 28.5193 13.0665C28.8916 11.3027 28.9752 9.61014 28.768 8.03608C28.1427 3.25574 25.1727 0.728516 20.1794 0.728516C15.1875 0.728516 12.2175 3.25574 11.5908 8.03608C11.3843 9.61086 11.4679 11.3034 11.8401 13.0665C13.657 21.6791 18.0193 26.879 19.3796 28.3316ZM13.0325 8.22584C13.5654 4.16018 15.9036 2.18334 20.1801 2.18334C24.4573 2.18334 26.7948 4.16018 27.327 8.22584C27.5124 9.63631 27.4346 11.1653 27.0972 12.7677C25.4476 20.5857 21.5142 25.5463 20.1801 27.0513C18.8445 25.5448 14.9119 20.582 13.263 12.7677C12.9249 11.1653 12.8478 9.63704 13.0325 8.22584Z" fill="black"/>
<path d="M20.1807 14.4863C23.126 14.4863 25.5216 12.0907 25.5216 9.1454C25.5216 6.20013 23.126 3.8045 20.1807 3.8045C17.2355 3.8045 14.8398 6.20013 14.8398 9.1454C14.8398 12.0907 17.2355 14.4863 20.1807 14.4863ZM20.1807 5.25933C22.3233 5.25933 24.0675 7.00279 24.0675 9.14613C24.0675 11.2895 22.3241 13.0329 20.1807 13.0329C18.0374 13.0329 16.2939 11.2895 16.2939 9.14613C16.2939 7.00279 18.0381 5.25933 20.1807 5.25933Z" fill="black"/>
<path d="M22.8486 27.0244C22.456 27.1073 22.2059 27.4941 22.2895 27.8874C22.3623 28.2292 22.664 28.4625 22.9999 28.4625C23.05 28.4625 23.1017 28.4574 23.1526 28.4465C23.5786 28.3564 24.0403 28.28 24.5238 28.219C24.9222 28.1703 25.2057 27.8067 25.1556 27.4083C25.1061 27.0092 24.7462 26.7213 24.3449 26.7765C23.8193 26.8412 23.3154 26.9248 22.8486 27.0244Z" fill="black"/>
<path d="M26.6101 27.3196C26.6261 27.71 26.9489 28.0154 27.3357 28.0154C27.3466 28.0154 27.3568 28.0154 27.3677 28.0147L28.8225 27.9543C29.2231 27.9362 29.5343 27.5959 29.5154 27.1953C29.4972 26.7932 29.1235 26.4799 28.7563 26.5017L27.3051 26.562C26.9038 26.5788 26.5926 26.9176 26.6101 27.3196Z" fill="black"/>
<path d="M16.308 30.6646C15.9343 30.9467 15.5483 31.2179 15.1593 31.4694C14.8227 31.6883 14.7267 32.1383 14.9455 32.4757C15.0844 32.6901 15.3185 32.8065 15.5563 32.8065C15.6922 32.8065 15.8289 32.7687 15.9518 32.6894C16.3684 32.419 16.7835 32.1281 17.1841 31.8257C17.504 31.5836 17.568 31.1277 17.3266 30.8071C17.0845 30.4894 16.6301 30.4225 16.308 30.6646Z" fill="black"/>
<path d="M32.5158 25.8705C32.2701 26.0428 31.9509 26.1678 31.5372 26.2529C31.1439 26.3336 30.8908 26.7189 30.9723 27.1123C31.0435 27.4561 31.346 27.6924 31.6841 27.6924C31.7328 27.6924 31.7822 27.6873 31.8316 27.6772C32.4438 27.5507 32.9411 27.3485 33.3555 27.057L33.453 26.9857C33.7729 26.7429 33.8361 26.2871 33.594 25.9672C33.3512 25.6473 32.896 25.5847 32.5754 25.8261L32.5158 25.8705Z" fill="black"/>
<path d="M6.4437 31.5552C6.54912 31.1677 6.31937 30.7686 5.93186 30.6639C5.54725 30.5555 5.14519 30.7867 5.0405 31.1757C4.94889 31.5131 4.89436 31.8577 4.87691 32.1972C4.87327 32.2808 4.87109 32.3652 4.87109 32.4539C4.87182 32.5964 4.87836 32.7389 4.89218 32.8806C4.93071 33.2551 5.24625 33.5335 5.61486 33.5335C5.63886 33.5335 5.66358 33.5321 5.68975 33.5299C6.0889 33.4884 6.37972 33.1322 6.33973 32.7323C6.32955 32.6371 6.32592 32.5404 6.32519 32.4488C6.32519 32.3884 6.32737 32.3281 6.33028 32.2685C6.34191 32.0329 6.37972 31.7922 6.4437 31.5552Z" fill="black"/>
<path d="M32.4986 20.2194C31.9213 20.1423 31.3324 20.1896 30.7639 20.351C30.3771 20.4593 30.1524 20.8614 30.2622 21.2474C30.3524 21.568 30.6439 21.7774 30.9609 21.7774C31.0271 21.7774 31.0932 21.7687 31.1587 21.7498C31.5367 21.6437 31.9257 21.6102 32.3038 21.6611C32.7124 21.712 33.0686 21.435 33.1217 21.038C33.1755 20.6389 32.8963 20.2732 32.4986 20.2194Z" fill="black"/>
<path d="M33.9456 23.821C33.8271 24.2041 34.0423 24.612 34.4255 24.7298C34.4975 24.7523 34.5687 24.7625 34.64 24.7625C34.9511 24.7625 35.2383 24.5625 35.3343 24.2499C35.4063 24.0187 35.4506 23.7839 35.4673 23.5498C35.471 23.4894 35.4732 23.4284 35.4732 23.368C35.4732 23.0278 35.4106 22.6868 35.2878 22.356C35.1482 21.9786 34.7272 21.7881 34.3535 21.927C33.9762 22.0666 33.785 22.4854 33.9245 22.8613C33.9871 23.0299 34.0191 23.2008 34.0191 23.3673L34.0169 23.4523C34.0082 23.573 33.9849 23.6937 33.9456 23.821Z" fill="black"/>
<path d="M12.7118 32.8365C12.2857 33.0364 11.8517 33.2218 11.422 33.3883C11.0475 33.5323 10.8614 33.9532 11.0061 34.3284C11.1173 34.6163 11.3922 34.7937 11.6844 34.7937C11.7717 34.7937 11.8604 34.7784 11.9462 34.745C12.4078 34.5669 12.8732 34.3676 13.3297 34.1539C13.6933 33.9838 13.8496 33.5504 13.6787 33.1869C13.5093 32.8227 13.0775 32.6649 12.7118 32.8365Z" fill="black"/>
<path d="M7.41569 29.8097C7.53275 29.8097 7.65198 29.7813 7.76322 29.721C7.97261 29.6068 8.19581 29.5356 8.42556 29.5108C8.52371 29.4992 8.62405 29.4992 8.72074 29.5123C9.13007 29.5654 9.48414 29.2847 9.53649 28.887C9.58884 28.4886 9.30893 28.1236 8.91123 28.0713C8.69457 28.0429 8.47427 28.0415 8.26343 28.0655C7.8461 28.1113 7.44332 28.2392 7.06671 28.4443C6.71409 28.6369 6.58395 29.0775 6.77662 29.4301C6.90894 29.673 7.15832 29.8097 7.41569 29.8097Z" fill="black"/>
<path d="M7.26307 35.5105C7.42011 35.5512 7.58007 35.5818 7.73856 35.6007C7.92469 35.6232 8.11081 35.6349 8.29766 35.6349C8.52523 35.6349 8.75352 35.6189 8.98109 35.5898C9.37951 35.5396 9.66233 35.1761 9.61144 34.7777C9.56054 34.3792 9.1992 34.0986 8.79932 34.1473C8.5056 34.1851 8.20896 34.1938 7.91523 34.1582C7.81926 34.1459 7.72329 34.1277 7.62878 34.1037C7.23981 33.9997 6.84357 34.2353 6.74178 34.6243C6.64217 35.0132 6.87483 35.4102 7.26307 35.5105Z" fill="black"/>
<circle cx="20" cy="9" r="4.5" stroke="#FFBF00"/>
</g>
</svg>
