<svg width="40" height="40" viewBox="0 0 40 40" fill="none" xmlns="http://www.w3.org/2000/svg">
<path d="M37.3438 19.3108V18.9079C37.3438 14.8254 35.8918 10.8572 33.2555 7.7343C30.6509 4.64914 27.0444 2.55649 23.1002 1.84172C22.6753 1.76485 22.2691 2.04664 22.1922 2.47117C22.1153 2.89578 22.397 3.30227 22.8216 3.37922C30.3309 4.74 35.7812 11.2707 35.7812 18.9079V19.1429H34.2188V18.9079C34.2188 11.0677 27.8402 4.68914 20 4.68914C12.1598 4.68914 5.78125 11.0677 5.78125 18.9079V19.1423H4.21875V18.9079C4.21875 11.1716 9.75164 4.62633 17.3748 3.34492C17.8003 3.27336 18.0873 2.87047 18.0157 2.44492C17.9441 2.01946 17.542 1.73211 17.1157 1.80399C13.1218 2.47539 9.46273 4.55297 6.81258 7.65407C4.13242 10.7905 2.65625 14.7872 2.65625 18.9079V19.3102C1.11945 19.7861 0 21.2205 0 22.9116V28.1854C0 30.2638 1.69094 31.9548 3.76938 31.9548H5.96258C6.37359 32.6334 7.11906 33.0879 7.96867 33.0879C9.26102 33.0879 10.3124 32.0365 10.3124 30.7441V20.3535C10.3124 19.0612 9.26102 18.0098 7.96867 18.0098C7.76211 18.0098 7.56187 18.0369 7.37102 18.0873C7.79547 11.4897 13.297 6.25164 20 6.25164C26.703 6.25164 32.2045 11.4897 32.6289 18.0873C32.438 18.0369 32.2377 18.0098 32.0312 18.0098C30.7389 18.0098 29.6875 19.0612 29.6875 20.3535V22.3039C29.6875 22.7353 30.0373 23.0852 30.4688 23.0852C30.9002 23.0852 31.25 22.7353 31.25 22.3039V20.3535C31.25 19.9227 31.6005 19.5723 32.0312 19.5723C32.462 19.5723 32.8125 19.9227 32.8125 20.3535V30.4704V30.7441C32.8125 31.1749 32.462 31.5254 32.0312 31.5254C31.6005 31.5254 31.25 31.1749 31.25 30.7441V28.9445C31.25 28.5131 30.9002 28.1633 30.4688 28.1633C30.0373 28.1633 29.6875 28.5131 29.6875 28.9445V30.7441C29.6875 32.0365 30.7389 33.0879 32.0312 33.0879C32.3052 33.0879 32.568 33.0402 32.8125 32.9535V33.4627C32.8125 34.3086 32.1243 34.9968 31.2784 34.9968H24.1112C23.7769 33.9122 22.7653 33.1218 21.5724 33.1218H18.4474C16.9827 33.1218 15.7912 34.3134 15.7912 35.778C15.7912 37.2427 16.9827 38.4343 18.4474 38.4343H21.5724C22.7653 38.4343 23.7769 37.6439 24.1112 36.5593H31.2784C32.9859 36.5593 34.375 35.1702 34.375 33.4627V31.9554H36.2306C38.3091 31.9554 40 30.2645 40 28.186V22.9123C40 21.2212 38.8805 19.7867 37.3438 19.3108ZM5.625 30.3923H3.76938C2.5525 30.3923 1.5625 29.4023 1.5625 28.1854V22.9116C1.5625 21.6948 2.5525 20.7048 3.76938 20.7048H5.625V30.3923ZM7.96875 19.5723C8.39953 19.5723 8.75 19.9227 8.75 20.3535V30.7441C8.75 31.1749 8.39953 31.5254 7.96875 31.5254C7.53797 31.5254 7.1875 31.1749 7.1875 30.7441V20.3535C7.1875 19.9227 7.53797 19.5723 7.96875 19.5723ZM21.5724 36.8718H18.4474C17.8443 36.8718 17.3537 36.3812 17.3537 35.778C17.3537 35.1749 17.8443 34.6843 18.4474 34.6843H21.5724C22.1755 34.6843 22.6662 35.1749 22.6662 35.778C22.6662 36.3812 22.1755 36.8718 21.5724 36.8718ZM38.4375 28.186C38.4375 29.4029 37.4475 30.3929 36.2306 30.3929H34.375V20.7054H36.2306C37.4475 20.7054 38.4375 21.6954 38.4375 22.9123V28.186Z" fill="black" fill-opacity="0.8"/>
<path d="M20.0679 1.56453L20 1.56445C19.5686 1.56445 19.2188 1.91422 19.2188 2.3457C19.2188 2.77719 19.5686 3.12695 20 3.12695L20.0624 3.12703C20.0634 3.12703 20.0642 3.12703 20.0652 3.12703C20.4954 3.12703 20.8448 2.77906 20.8464 2.34852C20.848 1.91703 20.4994 1.56602 20.0679 1.56453Z" fill="black" fill-opacity="0.8"/>
<path d="M31.021 24.9984C30.8758 24.8531 30.6742 24.7695 30.4688 24.7695C30.2633 24.7695 30.0617 24.853 29.9164 24.9984C29.7711 25.1438 29.6875 25.3453 29.6875 25.5508C29.6875 25.7563 29.771 25.9578 29.9164 26.103C30.0617 26.2484 30.2633 26.332 30.4688 26.332C30.6742 26.332 30.8758 26.2484 31.021 26.103C31.1663 25.9578 31.25 25.7563 31.25 25.5508C31.25 25.3453 31.1664 25.1437 31.021 24.9984Z" fill="black" fill-opacity="0.8"/>
<path d="M24.5436 15.3164H15.4564C13.4816 15.3164 11.875 16.923 11.875 18.8978V23.4682C11.875 25.443 13.4816 27.0497 15.4564 27.0497H17.6197L19.3841 29.2516C19.5311 29.4349 19.7528 29.5424 19.9878 29.5442C19.9898 29.5442 19.9919 29.5442 19.9938 29.5442C20.2266 29.5442 20.4473 29.4404 20.5958 29.2609L22.4249 27.0497H24.5436C26.5184 27.0497 28.125 25.443 28.125 23.4682V18.8978C28.125 16.923 26.5184 15.3164 24.5436 15.3164ZM26.5625 23.4682C26.5625 24.5815 25.6568 25.4872 24.5436 25.4872H22.0573C21.8245 25.4872 21.6037 25.591 21.4553 25.7705L20.0034 27.5256L18.6045 25.7798C18.4562 25.5948 18.2319 25.4872 17.9948 25.4872H15.4564C14.3432 25.4872 13.4375 24.5815 13.4375 23.4682V18.8978C13.4375 17.7845 14.3432 16.8789 15.4564 16.8789H24.5436C25.6568 16.8789 26.5625 17.7846 26.5625 18.8978V23.4682Z" fill="#EFC64C"/>
<path d="M17.1227 21.0219C16.9766 20.8765 16.7758 20.793 16.5703 20.793C16.3648 20.793 16.1633 20.8765 16.018 21.0219C15.8719 21.1672 15.7891 21.3687 15.7891 21.5742C15.7891 21.7797 15.8719 21.9813 16.018 22.1265C16.1633 22.2718 16.3648 22.3555 16.5703 22.3555C16.7758 22.3555 16.9766 22.2719 17.1227 22.1265C17.2679 21.9813 17.3516 21.7797 17.3516 21.5742C17.3516 21.3687 17.268 21.1672 17.1227 21.0219Z" fill="black" fill-opacity="0.8"/>
<path d="M20.5602 21.0219C20.4148 20.8766 20.2133 20.793 20.0078 20.793C19.8016 20.793 19.6008 20.8765 19.4555 21.0219C19.3094 21.1672 19.2266 21.3687 19.2266 21.5742C19.2266 21.7797 19.3094 21.9813 19.4555 22.1265C19.6008 22.2719 19.8016 22.3555 20.0078 22.3555C20.2133 22.3555 20.4148 22.2719 20.5602 22.1265C20.7054 21.9813 20.7891 21.7797 20.7891 21.5742C20.7891 21.3687 20.7055 21.1672 20.5602 21.0219Z" fill="black" fill-opacity="0.8"/>
<path d="M23.9977 21.0219C23.8516 20.8766 23.6508 20.793 23.4453 20.793C23.2391 20.793 23.0383 20.8765 22.893 21.0219C22.7469 21.1672 22.6641 21.3687 22.6641 21.5742C22.6641 21.7805 22.7469 21.9813 22.893 22.1265C23.0383 22.2719 23.2391 22.3555 23.4453 22.3555C23.6508 22.3555 23.8516 22.2719 23.9977 22.1265C24.1429 21.9813 24.2266 21.7797 24.2266 21.5742C24.2266 21.3687 24.143 21.1672 23.9977 21.0219Z" fill="black" fill-opacity="0.8"/>
</svg>
