<svg width="40" height="40" viewBox="0 0 40 40" fill="none" xmlns="http://www.w3.org/2000/svg">
<path d="M38.9382 13.7262L26.2721 1.06023C25.5884 0.376562 24.6766 0 23.7045 0C22.7326 0 21.8207 0.376406 21.137 1.06008L1.06023 21.1369C0.376563 21.8206 0 22.7323 0 23.7044C0 24.6764 0.376563 25.5883 1.06023 26.2719L2.62211 27.8337C2.62227 27.8338 2.62234 27.834 2.6225 27.8341C2.62266 27.8343 2.62281 27.8345 2.62297 27.8346L13.1198 38.3315H11.6664C11.2063 38.3315 10.8331 38.7045 10.8331 39.1648C10.8331 39.6249 11.2063 39.998 11.6664 39.998H16.2905C16.2916 39.998 16.2927 39.9981 16.2938 39.9981C16.2948 39.9981 16.2959 39.998 16.297 39.998L28.3323 39.9982C28.7925 39.9982 29.1656 39.6251 29.1656 39.1649C29.1656 38.7047 28.7925 38.3316 28.3323 38.3316L19.468 38.3315L38.9383 18.8612C40.3539 17.4454 40.3539 15.1418 38.9382 13.7262ZM37.7598 17.6827L17.6829 37.7596C17.3147 38.1277 16.8225 38.3307 16.2968 38.3315H16.2905C15.7649 38.3306 15.2729 38.1277 14.9048 37.7596L4.39023 27.2449L23.6711 7.96391C23.9965 7.63852 23.9965 7.11086 23.6711 6.78547C23.3456 6.46008 22.8181 6.46008 22.4926 6.78555L3.21172 26.0666L2.23859 25.0934C1.86977 24.7246 1.66664 24.2313 1.66664 23.7045C1.66664 23.1776 1.86977 22.6842 2.23867 22.3153L22.3154 2.23859C22.6843 1.86977 23.1777 1.66664 23.7045 1.66664C24.2314 1.66664 24.7248 1.86977 25.0937 2.23867L29.6017 6.74664L10.3206 26.0279C9.99524 26.3532 9.99524 26.8809 10.3206 27.2064C10.4834 27.3691 10.6966 27.4504 10.9098 27.4504C11.123 27.4504 11.3363 27.369 11.4991 27.2063L30.7802 7.92516L37.7598 14.9045C38.5256 15.6705 38.5256 16.9168 37.7598 17.6827Z" fill="black"/>
<path d="M20.5268 24.0663C20.2014 23.7409 19.6739 23.741 19.3483 24.0663L12.7909 30.6235C12.4655 30.9489 12.4655 31.4765 12.7909 31.8021C12.9537 31.9648 13.1669 32.0461 13.3801 32.0461C13.5933 32.0461 13.8066 31.9647 13.9694 31.8021L20.5267 25.2448C20.8522 24.9192 20.8522 24.3917 20.5268 24.0663Z" fill="#EFC64C"/>
<path d="M17.8397 30.291L15.1503 32.9804C14.8249 33.3058 14.8249 33.8335 15.1503 34.1589C15.313 34.3216 15.5263 34.403 15.7395 34.403C15.9529 34.403 16.166 34.3216 16.3287 34.1589L19.0182 31.4695C19.3436 31.1441 19.3436 30.6164 19.0182 30.291C18.6928 29.9655 18.1654 29.9655 17.8397 30.291Z" fill="#F7CA44"/>
<path d="M20.3164 27.8163L19.9629 28.1697C19.6374 28.4951 19.6374 29.0227 19.9628 29.3482C20.1254 29.511 20.3388 29.5924 20.552 29.5924C20.7652 29.5924 20.9785 29.511 21.1411 29.3482L21.4947 28.9948C21.8201 28.6694 21.8201 28.1418 21.4947 27.8163C21.1695 27.491 20.6418 27.4909 20.3164 27.8163Z" fill="black"/>
<path d="M31.8018 12.7948C31.6455 12.6386 31.4336 12.5508 31.2126 12.5508C30.9916 12.5508 30.7797 12.6386 30.6234 12.7948L27.0878 16.3303C26.9316 16.4866 26.8438 16.6985 26.8438 16.9195C26.8438 17.1405 26.9316 17.3525 27.0878 17.5087L29.4448 19.8655C29.6076 20.0283 29.8209 20.1096 30.0341 20.1096C30.2474 20.1096 30.4605 20.0282 30.6233 19.8655L34.1587 16.3302C34.4841 16.0048 34.4841 15.4772 34.1587 15.1518L31.8018 12.7948ZM30.034 18.098L28.8555 16.9195L31.2125 14.5626L32.3909 15.7411L30.034 18.098Z" fill="#F7CA44"/>
<path d="M25.0286 6.2644C25.242 6.2644 25.4552 6.18299 25.6179 6.02018L25.9714 5.66651C26.2967 5.34104 26.2967 4.81338 25.9712 4.48807C25.6458 4.16275 25.1181 4.16283 24.7928 4.4883L24.4392 4.84197C24.1139 5.16744 24.114 5.6951 24.4395 6.02041C24.6022 6.18315 24.8153 6.2644 25.0286 6.2644Z" fill="black"/>
<path d="M8.371 27.9726L8.01748 28.3261C7.69209 28.6514 7.69209 29.1791 8.01748 29.5046C8.18021 29.6673 8.3935 29.7486 8.6067 29.7486C8.8199 29.7486 9.03318 29.6673 9.19592 29.5046L9.54943 29.1511C9.87482 28.8257 9.87482 28.298 9.54943 27.9726C9.22397 27.6471 8.69646 27.6471 8.371 27.9726Z" fill="black"/>
</svg>
