<svg width="40" height="40" viewBox="0 0 40 40" fill="none" xmlns="http://www.w3.org/2000/svg">
<g clip-path="url(#clip0)">
<path d="M20 27.4999C19.5688 27.4999 19.2188 27.85 19.2188 28.2812C19.2188 28.7124 19.5688 29.0624 20 29.0624C20.4312 29.0624 20.7812 28.7124 20.7812 28.2812C20.7812 27.85 20.4312 27.4999 20 27.4999Z" fill="#FFBF00"/>
<path d="M40 15.7864C40.0018 15.4846 39.8297 15.2084 39.5578 15.0775L26.5891 8.8275C26.3712 8.72252 26.117 8.72435 25.9006 8.83238L23.125 10.2203V0.781249C23.125 0.349731 22.7753 0 22.3438 0H17.6563C17.2247 0 16.875 0.349731 16.875 0.781249V10.2203L14.0994 8.83238C13.8831 8.72435 13.6286 8.72252 13.411 8.8275L0.442214 15.0775C0.169997 15.2087 -0.00181656 15.4846 1.44919e-05 15.7864C0.00215073 16.0885 0.177932 16.3623 0.45198 16.4895L5.6476 18.9062L0.45198 21.3229C0.178237 21.4502 0.00215073 21.7239 1.44919e-05 22.0257C-0.00181656 22.3278 0.169997 22.6037 0.442214 22.7349L6.71876 25.7598V32.9687C6.71876 33.2644 6.886 33.5351 7.15059 33.6672L19.6506 39.9172C19.6579 39.9209 19.6655 39.9233 19.6729 39.9267C19.6848 39.9325 19.6967 39.9374 19.7089 39.9422C19.7284 39.9502 19.7482 39.9572 19.7681 39.9633C19.78 39.967 19.7916 39.9709 19.8038 39.974C19.8255 39.9795 19.8471 39.9837 19.8691 39.9874C19.8801 39.9892 19.8908 39.9917 19.9017 39.9932C19.9313 39.9969 19.9606 39.999 19.9902 39.9993C19.9939 39.9993 19.997 39.9999 20.0006 39.9999C20.0339 39.9999 20.0672 39.9972 20.1004 39.9929C20.1087 39.992 20.1169 39.9902 20.1251 39.9886C20.1495 39.9847 20.174 39.9798 20.1981 39.9734C20.2091 39.9706 20.22 39.967 20.231 39.9636C20.2521 39.9572 20.2725 39.9499 20.2933 39.9416C20.3052 39.9368 20.3171 39.9319 20.3287 39.9264C20.3357 39.923 20.3427 39.9209 20.3494 39.9175L32.8494 33.6675C33.114 33.5351 33.2813 33.2647 33.2813 32.9687V25.7601L39.5578 22.7352C39.83 22.604 40.0022 22.3278 40 22.026C39.9979 21.7239 39.8221 21.4502 39.548 21.3229L34.3524 18.9062L39.548 16.4895C39.8221 16.3623 39.9979 16.0885 40 15.7864ZM18.4375 1.5625H21.5625V12.6562C21.5625 13.0874 21.9122 13.4375 22.3438 13.4375H23.1253L20 17.6043L17.2156 13.8922L16.8747 13.4375H17.6563C18.0878 13.4375 18.4375 13.0874 18.4375 12.6562V1.5625ZM20 24.2828L9.24684 18.9062L16.3568 15.3512L19.375 19.375C19.5227 19.5718 19.754 19.6875 20 19.6875C20.246 19.6875 20.4773 19.5718 20.625 19.375L23.6429 15.3512L30.7529 18.9062L20 24.2828ZM13.7436 10.4016L16.6907 11.875H15.3125C15.0165 11.875 14.7461 12.0422 14.6137 12.3068C14.4815 12.5714 14.5099 12.8882 14.6875 13.125L15.4041 14.0808L7.48781 18.0389L2.60683 15.7687L13.7436 10.4016ZM7.48781 19.7735L18.2532 25.1562L13.7436 27.4108L2.60683 22.0437L7.48781 19.7735ZM31.7188 32.4856L20.7813 37.9543V31.4062C20.7813 30.9747 20.4315 30.6249 20 30.6249C19.5685 30.6249 19.2188 30.9747 19.2188 31.4062V37.9543L8.28126 32.4856V26.5127L13.4107 28.9849C13.6286 29.0899 13.8828 29.0881 14.0994 28.98L20 26.0296L25.9006 28.98C26.117 29.0881 26.3712 29.0899 26.5891 28.9849L31.7188 26.5127V32.4856ZM26.2564 27.4108L21.7468 25.1562L32.5122 19.7735L37.3932 22.0437L26.2564 27.4108ZM32.5122 18.0389L24.5957 14.0805L25.3125 13.1247C25.4898 12.8882 25.5185 12.5714 25.3861 12.3065C25.2539 12.0419 24.9832 11.875 24.6875 11.875H23.3093L26.2561 10.4013L37.3929 15.7687L32.5122 18.0389Z" fill="black" fill-opacity="0.8"/>
<path d="M15.1992 12.8L19.9992 19.2L24.7992 12.8C23.6737 12.8 23.5992 12.8 22.3992 12.8C22.3992 10.4 22.3992 4.47451 22.3992 0.800012H17.5992C17.5992 4.40001 17.5992 10 17.5992 12.8C15.9992 12.8 15.9992 12.8 15.1992 12.8Z" stroke="#FFBF00" stroke-width="2" stroke-linejoin="round"/>
</g>
<defs>
<clipPath id="clip0">
<rect width="40" height="40" fill="white"/>
</clipPath>
</defs>
</svg>
