<svg width="40" height="40" viewBox="0 0 40 40" fill="none" xmlns="http://www.w3.org/2000/svg">
<path d="M24.7203 20.3125C24.2882 20.3125 23.9375 20.6625 23.9375 21.0938C23.9375 21.525 24.2882 21.875 24.7203 21.875C25.1523 21.875 25.5031 21.525 25.5031 21.0938C25.5031 20.6625 25.1523 20.3125 24.7203 20.3125Z" fill="#FFBF00"/>
<path d="M23.9378 18.75C25.2328 18.75 26.2862 17.6987 26.2862 16.4062V7.03125C26.2862 6.59973 25.9358 6.25 25.5034 6.25H14.5445C14.1121 6.25 13.7617 6.59973 13.7617 7.03125V16.4062C13.7617 17.6987 14.8151 18.75 16.1101 18.75H23.9378ZM15.3273 16.4062V7.8125H24.7206V16.4062C24.7206 16.8372 24.3696 17.1875 23.9378 17.1875H16.1101C15.6786 17.1875 15.3273 16.8372 15.3273 16.4062Z" fill="#FFBF00"/>
<path d="M19.9318 14.0625H20.1119C21.7888 14.0625 23.1529 12.7008 23.1529 11.0272V10.1562C23.1529 9.72473 22.8024 9.375 22.3701 9.375C21.9377 9.375 21.5873 9.72473 21.5873 10.1562V11.0272C21.5873 11.8393 20.9253 12.5 20.1119 12.5H19.9318C19.1182 12.5 18.4562 11.8393 18.4562 11.0272V10.1562C18.4562 9.72473 18.1058 9.375 17.6734 9.375C17.241 9.375 16.8906 9.72473 16.8906 10.1562V11.0272C16.8906 12.7008 18.255 14.0625 19.9318 14.0625Z" fill="#FFBF00"/>
<path d="M7.05914 23.4375C6.04611 23.4375 5.15051 24.0817 4.83067 25.0406C4.82883 25.0464 4.82669 25.0525 4.82516 25.0583L1.17423 36.9254C0.937258 37.6459 1.0559 38.4113 1.5008 39.0271C1.94753 39.6454 2.64194 40 3.40576 40H36.6347C37.3986 40 38.093 39.6454 38.5397 39.0271C38.9846 38.4113 39.1035 37.6459 38.8666 36.9254L35.2156 25.0583C35.2138 25.0525 35.212 25.0467 35.2101 25.0406C34.89 24.0817 33.9947 23.4375 32.9817 23.4375C31.9989 23.4375 29.1424 23.4375 27.7028 23.4375L30.2603 19.6994C31.7549 17.5851 32.5447 15.0958 32.5447 12.5C32.5447 5.6073 26.9264 0 20.0202 0C13.1144 0 7.49578 5.6073 7.49578 12.5C7.49578 15.0958 8.2859 17.5851 9.78052 19.6994L12.3377 23.4375C10.9094 23.4375 8.04954 23.4375 7.05914 23.4375ZM13.4067 25L19.0724 33.2812H8.8632L11.4562 25H13.4067ZM32.7921 38.4375H7.24872L8.37396 34.8438H31.6668L32.7921 38.4375ZM2.77067 38.1131C2.62176 37.9068 2.58232 37.6505 2.66274 37.4094C2.66457 37.4036 2.66671 37.3978 2.66824 37.3917L6.31856 25.527C6.42711 25.2115 6.72371 25 7.05883 25H9.81568L5.60825 38.4375H3.40576C3.15105 38.4375 2.91958 38.3191 2.77067 38.1131ZM33.7222 25.527L37.3723 37.3917C37.3741 37.3975 37.3759 37.4033 37.3778 37.4094C37.4582 37.6505 37.419 37.9068 37.2698 38.1131C37.1209 38.3194 36.8894 38.4375 36.6347 38.4375H34.4322L30.2248 25H32.9817C33.3168 25 33.6134 25.2115 33.7222 25.527ZM28.5846 25L31.1776 33.2812H20.9681L26.6338 25H28.5846ZM11.0629 18.8034C9.75361 16.9528 9.06134 14.7733 9.06134 12.5C9.06134 6.46912 13.9776 1.5625 20.0202 1.5625C26.0629 1.5625 30.9792 6.46912 30.9792 12.5C30.9792 14.7733 30.2872 16.9528 28.9779 18.8034C28.9754 18.8068 28.973 18.8101 28.9708 18.8135L20.0202 31.8958C19.6472 31.3507 11.4436 19.3597 11.07 18.8135C11.0675 18.8101 11.0654 18.8068 11.0629 18.8034Z" fill="black" fill-opacity="0.8"/>
<path d="M23.1751 22.8687C22.8094 22.6389 22.326 22.7481 22.0955 23.1134L19.3588 27.4485C19.1285 27.8134 19.238 28.2959 19.6037 28.526C19.9673 28.7543 20.4516 28.6484 20.6834 28.2813L23.4201 23.9463C23.6506 23.581 23.5409 23.0988 23.1751 22.8687Z" fill="#FFBF00"/>
</svg>
