<svg width="47" height="37" viewBox="0 0 47 37" fill="none" xmlns="http://www.w3.org/2000/svg">
<path d="M34.9271 7.53384V4.37561C34.9251 2.81738 33.6787 1.55472 32.0952 1.55273H9.146C8.38548 1.55368 7.65638 1.8514 7.11862 2.38058C6.58085 2.90977 6.27831 3.62723 6.27734 4.37561V16.7963C6.2796 17.4924 6.54371 18.1631 7.01875 18.679C7.49379 19.1949 8.14612 19.5194 8.84993 19.5901L11.0066 25.099C11.2803 25.7976 11.8246 26.3605 12.52 26.6642C13.2153 26.9679 14.0048 26.9874 14.7148 26.7184L28.1824 21.6132C27.7234 22.7931 27.549 24.0617 27.673 25.3192C27.797 26.5767 28.216 27.7886 28.8969 28.8597L29.2266 29.3784V34.8627C29.2265 34.9368 29.2414 35.0102 29.2702 35.0788C29.299 35.1473 29.3413 35.2095 29.3946 35.2619C29.4478 35.3144 29.5111 35.3559 29.5807 35.3843C29.6503 35.4127 29.7249 35.4273 29.8003 35.4272H40.1274C40.2028 35.4273 40.2774 35.4127 40.347 35.3843C40.4166 35.3559 40.4799 35.3144 40.5332 35.2619C40.5865 35.2095 40.6287 35.1473 40.6575 35.0788C40.6864 35.0102 40.7012 34.9368 40.7012 34.8627V16.2267C40.6959 14.2744 39.9057 12.4035 38.5031 11.0228L34.9271 7.53384ZM34.9271 10.9103L36.7051 15.3583C36.8691 15.7775 36.857 16.2436 36.6717 16.6541C36.4864 17.0646 36.143 17.3858 35.717 17.5471L34.7217 17.9254C34.8807 17.5694 34.9263 17.1847 34.9271 16.7963V10.9103ZM7.4248 16.7963L7.38809 4.37561C7.38809 3.44038 8.1956 2.68188 9.146 2.68188H32.0952C33.3391 2.63672 33.8164 3.44038 33.8164 4.37561V7.96407H33.8114L33.8164 7.9769V16.7963C33.812 16.8947 33.7989 16.9925 33.7774 17.0887L28.522 11.9166C27.9539 11.3704 27.1922 11.0629 26.3979 11.059C25.6036 11.0552 24.8389 11.3554 24.2654 11.8962C23.6918 12.4369 23.3544 13.1759 23.3243 13.957C23.2943 14.738 23.574 15.5 24.1043 16.0819L26.3447 18.49L9.146 18.5261C8.1956 18.5261 7.4248 17.7315 7.4248 16.7963V16.7963ZM14.7749 19.6191L10.695 21.1648L10.0915 19.6191H14.7749ZM14.3021 25.6645C14.0912 25.7445 13.8663 25.7828 13.6404 25.7772C13.4144 25.7717 13.1918 25.7224 12.9852 25.6322C12.7786 25.542 12.592 25.4126 12.4362 25.2515C12.2805 25.0903 12.1584 24.9005 12.0772 24.693L11.1093 22.2162L17.9579 19.6191V19.6157H27.3964L28.1421 20.4158L14.3021 25.6645ZM39.5537 34.2981H30.374V29.7815H39.5537V34.2981ZM39.5537 28.6523H30.1187L29.8699 28.2611C29.1833 27.1815 28.8072 25.9389 28.7816 24.6656C28.7561 23.3923 29.0819 22.136 29.7245 21.0306C29.7849 20.9267 29.8102 20.8066 29.7967 20.6877C29.7832 20.5687 29.7316 20.4571 29.6494 20.3689L24.9478 15.3216C24.6108 14.9586 24.4314 14.4803 24.448 13.9888C24.4646 13.4974 24.676 13.0319 25.0368 12.6918C25.3977 12.3516 25.8794 12.1639 26.379 12.1687C26.8787 12.1735 27.3566 12.3705 27.7106 12.7175L36.8532 21.712L37.6644 20.9137L35.5416 18.8248L36.1303 18.599C36.8396 18.3296 37.4113 17.7942 37.7198 17.1103C38.0282 16.4264 38.0481 15.65 37.7751 14.9516L35.8332 9.9896L37.6918 11.8224C38.8796 12.9907 39.549 14.5742 39.5537 16.2267V28.6523Z" fill="black"/>
<path d="M12.8198 9.45825C13.0157 9.45825 13.2097 9.42029 13.3907 9.34652C13.5717 9.27275 13.7361 9.16463 13.8746 9.02832C14.0131 8.89201 14.123 8.73019 14.198 8.5521C14.2729 8.374 14.3115 8.18312 14.3115 7.99036V5.2804C14.3115 5.08763 14.2729 4.89675 14.198 4.71865C14.123 4.54056 14.0131 4.37874 13.8746 4.24243C13.7361 4.10612 13.5717 3.998 13.3907 3.92423C13.2097 3.85046 13.0157 3.8125 12.8198 3.8125H10.0659C9.87002 3.8125 9.67605 3.85046 9.49507 3.92423C9.31408 3.998 9.14964 4.10612 9.01112 4.24243C8.8726 4.37874 8.76273 4.54056 8.68776 4.71865C8.6128 4.89675 8.57422 5.08763 8.57422 5.2804V7.99036C8.57422 8.18312 8.6128 8.374 8.68776 8.5521C8.76273 8.73019 8.8726 8.89201 9.01112 9.02832C9.14964 9.16463 9.31408 9.27275 9.49507 9.34652C9.67605 9.42029 9.87002 9.45825 10.0659 9.45825H12.8198ZM9.72168 7.99036V7.19995H10.8691V6.0708H9.72168V5.2804C9.7217 5.19056 9.75797 5.10441 9.82253 5.04089C9.88708 4.97737 9.97463 4.94167 10.0659 4.94165H12.8198C12.9111 4.94167 12.9987 4.97737 13.0632 5.04089C13.1278 5.10441 13.164 5.19056 13.1641 5.2804V6.0708H12.0166V7.19995H13.1641V7.99036C13.164 8.08019 13.1278 8.16634 13.0632 8.22986C12.9987 8.29339 12.9111 8.32908 12.8198 8.3291H10.0659C9.97463 8.32908 9.88708 8.29339 9.82253 8.22986C9.75797 8.16634 9.7217 8.08019 9.72168 7.99036Z" fill="black"/>
<path d="M11.4434 11.1523H9.14844V12.2815H11.4434V11.1523Z" fill="black"/>
<path d="M11.4434 14.5391H9.14844V15.6682H11.4434V14.5391Z" fill="black"/>
<path d="M21.7676 14.5391H19.4727V15.6682H21.7676V14.5391Z" fill="black"/>
<path d="M14.8847 11.1523H12.5898V12.2815H14.8847V11.1523Z" fill="black"/>
<path d="M18.3262 11.1523H16.0312V12.2815H18.3262V11.1523Z" fill="black"/>
<path d="M21.7676 11.1523H19.4727V12.2815H21.7676V11.1523Z" fill="black"/>
<path d="M31.5225 4.37695H30.375V6.07068H31.5225V4.37695Z" fill="black"/>
<path d="M29.2295 4.37695H28.082V6.07068H29.2295V4.37695Z" fill="black"/>
<path d="M26.9326 4.37695H25.7852V6.07068H26.9326V4.37695Z" fill="black"/>
<path d="M24.6357 4.37695H23.4883V6.07068H24.6357V4.37695Z" fill="black"/>
<path d="M32.6709 30.9121H31.5234V32.0413H32.6709V30.9121Z" fill="black"/>
<path d="M27.3906 19.6191H9.04961C8.31461 19.6183 7.60996 19.3306 7.09024 18.8192C6.57052 18.3078 6.27817 17.6144 6.27734 16.8911V4.28076C6.27817 3.55749 6.57052 2.86409 7.09024 2.35266C7.60996 1.84123 8.31461 1.55355 9.04961 1.55273H32.1824C32.9174 1.55355 33.6221 1.84123 34.1418 2.35266C34.6615 2.86409 34.9539 3.55749 34.9547 4.28076V16.8911C34.9553 17.25 34.8882 17.6059 34.7569 17.9408L33.7762 17.1135C33.7766 16.9393 33.7797 17.0932 33.7797 16.8911V4.28076C33.7792 3.86404 33.6108 3.46453 33.3113 3.16987C33.0119 2.8752 32.6059 2.70945 32.1824 2.70898H9.04961C8.62614 2.70946 8.22014 2.87521 7.9207 3.16987C7.62126 3.46453 7.45282 3.86405 7.45234 4.28076V16.8911C7.45282 17.3078 7.62126 17.7073 7.9207 18.002C8.22014 18.2967 8.62614 18.4624 9.04961 18.4629H26.3258L27.3906 19.6191Z" fill="#E9C356"/>
</svg>
