<svg width="59" height="18" viewBox="0 0 59 18" fill="none" xmlns="http://www.w3.org/2000/svg">
<path d="M20 18L23.0776 0H28L24.9202 18H20Z" fill="#0E4595"/>
<path d="M44 0.7324C42.9437 0.379116 41.2884 0 39.2211 0C33.9522 0 30.241 2.36511 30.2093 5.7548C30.1796 8.26047 32.8589 9.65829 34.8815 10.4924C36.957 11.3473 37.6548 11.8924 37.6448 12.6555C37.6315 13.8245 35.9873 14.3583 34.4546 14.3583C32.3205 14.3583 31.1867 14.094 29.4355 13.4431L28.7483 13.1659L28 17.0696C29.2454 17.5565 31.5484 17.9781 33.9397 18C39.5449 18 43.1836 15.6619 43.2249 12.0421C43.2448 10.0583 41.8243 8.54882 38.7479 7.30422C36.8842 6.49753 35.7428 5.95923 35.7549 5.14239C35.7549 4.41756 36.721 3.64249 38.8087 3.64249C40.5522 3.61835 41.8154 3.95729 42.7995 4.31058L43.2773 4.5118L44 0.7324Z" fill="#0E4595"/>
<path d="M55.1681 0H51.51C50.3767 0 49.5286 0.320738 49.0309 1.49365L42 18H46.9714C46.9714 18 47.7841 15.7807 47.9679 15.2933C48.5112 15.2933 53.3407 15.301 54.031 15.301C54.1726 15.9317 54.607 18 54.607 18H59L55.1681 0ZM49.364 11.6305C49.7556 10.5927 51.2503 6.59547 51.2503 6.59547C51.2224 6.64341 51.639 5.55266 51.8779 4.8764L52.198 6.42931C52.198 6.42931 53.1045 10.7287 53.2939 11.6302H49.364V11.6305Z" fill="#0E4595"/>
<path d="M16.8949 0L12.1769 12.2943L11.6742 9.79583C10.7958 6.91567 8.05931 3.79522 5 2.23302L9.31417 18L14.413 17.9941L22 9.13415e-05L16.8949 0Z" fill="#0E4595"/>
<path d="M7.35973 0H0.057878L0 0.382484C5.68076 1.90416 9.43968 5.58147 11 10L9.41226 1.5521C9.13824 0.388025 8.34322 0.040568 7.35973 0Z" fill="#F2AE14"/>
</svg>
