 <svg xmlns:dc="http://purl.org/dc/elements/1.1/"   xmlns:cc="http://creativecommons.org/ns#" xmlns:rdf="http://www.w3.org/1999/02/22-rdf-syntax-ns#"  xmlns:svg="http://www.w3.org/2000/svg"  xmlns="http://www.w3.org/2000/svg"   width="24"  height="46" viewBox="0 0 111.71 211.53585" >  <path transform="translate(-2552.7439,-10.938105)"
       style="fill:#050505;stroke-width:0.26458335"
       d="m 2556.0855,221.81303 c -2.5912,-1.33319 -3.8193,-3.95754 -3.1708,-6.77566 0.3164,-1.37536 0.5291,-1.59277 48.5756,-49.66956 26.5417,-26.55848 48.2589,-48.46598 48.2603,-48.68333 0,-0.21735 -21.6661,-22.00502 -48.1501,-48.417055 l -48.1527,-48.021876 -0.4294,-1.554734 c -0.7598,-2.750732 0.1801,-5.341214 2.4632,-6.789113 1.6096,-1.020803 3.0713,-1.213198 5.0101,-0.659466 l 1.5469,0.441811 50.7087,50.715126 c 27.8898,27.893317 50.9244,51.131847 51.188,51.641167 0.7693,1.48659 0.6699,4.07596 -0.2134,5.55625 -0.9082,1.52216 -101.0893,101.6471 -102.3215,102.26418 -0.4965,0.24866 -1.5681,0.50811 -2.3813,0.57655 -1.2509,0.10529 -1.7024,0.009 -2.9336,-0.62429 z"
       id="path3834"
       inkscape:connector-curvature="0" /> </svg>
