<svg xmlns="http://www.w3.org/2000/svg" xmlns:xlink="http://www.w3.org/1999/xlink" width="123" height="124" viewBox="0 0 123 124"><defs><path id="a" d="M868 8046.98h-2.05v-4h.05v-6.6c0-2.6-1.4-5-3.8-6.4-12.48-6.53-21.83-9.93-29.97-11.16l-12.07 16.59 1.27 7.53v4.04h-4.05v-4.04l-1.08-5.96h-12.62l-1.3 5.96v4.04h-4.28l.23-4.04-.01.04 1.52-7.57L787.9 8019c-8.17 1.02-17.35 4.41-30.1 11.19a6.86 6.86 0 0 0-3.8 6.2l-.2 6.55v4.04H752c-1.2 0-.65.03-2 0v-10.6c0-4.2 2.2-8 6-9.8 11.94-6.32 21.1-9.87 29.24-11.23l-.84-1.16c-.4-.4-.4-1.2-.4-1.6l1.87-7.5c-4.95-7-7.87-15.76-7.87-24.1v-8h-6c-1.2 0-2-.8-2-2s.8-2 2-2h2v-2c0-15.8 10.4-29.2 26-33.6v-.4c0-3.4 2.8-6 6-6h8c3.4 0 6 2.8 6 6v.4c15.6 4.4 26 17.8 26 33.6v2h2c1.2 0 2 .8 2 2s-.8 2-2 2h-6v8c0 8.34-2.92 17.1-7.87 24.1l1.87 7.5c.2.6 0 1.2-.4 1.6l-.84 1.16c8.15 1.36 17.3 4.9 29.24 11.24 3.6 2 6 5.8 6 9.8v10.6h-2zm-49.56-16.05l2.64-3.62 8.32-11.52c.1-.16.23-.29.36-.4l2.04-2.8-.8-3.6-.91.95-.04.04-.16.15c-4.64 4.65-10.4 7.88-16.84 8.67zm-3.48 2.06l-1.96-4.4-2.99-6.58-1.21 2.73-3.6 8.25zm-24.57-17.4l.21.2 8.32 11.52 2.64 3.62 5.39-12.13c-6.58-.8-12.43-4.15-17.13-8.95a35.9 35.9 0 0 1-.82-.86l-.8 3.6zm1.22-73.97a34.78 34.78 0 0 0-7.4 6.97l9.19 1.8zm37.44.46c-.21-.16-.43-.3-.66-.46l-1.79 8.78 9.2-1.8a34.77 34.77 0 0 0-6.75-6.52zm12.95 26.91v-2c0-5.38-1.37-10.46-3.85-14.89l-13.75 2.9h-.4c-.6 0-1-.2-1.4-.6-.4-.4-.6-1.2-.6-1.8l2.69-13.1a33.17 33.17 0 0 0-4.7-1.85v5.35c0 1.2-.8 2-1.99 2-1.2 0-2-.8-2-2v-10c0-1.2-1-2-2-2h-8a2 2 0 0 0-2 2v10c0 1.2-.8 2-2 2s-2-.8-2-2v-5.35c-1.58.5-3.1 1.09-4.55 1.78l2.75 13.37c.2.6 0 1.4-.6 1.8-.6.2-1 .4-1.6.4h-.4l-13.84-2.73a30.33 30.33 0 0 0-3.76 14.72v2zm-4 12v-8h-56v8c0 8.72 3 16.47 7.48 22.36l.12.04.6.6a32.5 32.5 0 0 0 9.05 7.98 22.6 22.6 0 0 0 9.92 3c.25-.12.52-.18.83-.18.3 0 .61.06.88.17 5.42-.26 11.03-2.92 15.74-7.3a33.62 33.62 0 0 0 3.18-3.67l.6-.6.12-.04A36.84 36.84 0 0 0 838 7981z"/></defs><g transform="translate(-748 -7925)"><use xlink:href="#a"/><use fill="#d91f01" xlink:href="#a"/></g></svg>