<svg xmlns="http://www.w3.org/2000/svg" xmlns:xlink="http://www.w3.org/1999/xlink" width="124" height="123" viewBox="0 0 124 123"><defs><path id="a" d="M1170 8045.06v1.94h-3.87v-1.94a19.38 19.38 0 0 0-17.42-19.25V8047h-3.87v-21.3h-5.8v21.3h-3.88v-21.3h-3.87c-.79 0-1.54-.11-2.28-.3a19.38 19.38 0 0 1-19.01 15.8 19.38 19.38 0 0 1-19.01-15.8c-.74.19-1.5.3-2.28.3h-3.87v21.3h-3.87v-21.3h-5.8v21.3h-3.88v-21.2a19.38 19.38 0 0 0-17.42 19.26v1.94H1050v-1.94c0-9.35 5.57-17.4 13.55-21.08v-4.87c-3.8-2.3-5.8-6.02-5.8-10.82 0-4.7 3.17-10.19 9.24-11.57l2.36-.53v10.16h3.88v-10.16l2.36.53a11.96 11.96 0 0 1 9.25 11.57c0 4.8-2 8.51-5.8 10.82v2.73h9.67c3.2 0 5.8-2.6 5.8-5.8v-8.07a30.96 30.96 0 0 1-15.48-26.78v-.27a7.73 7.73 0 0 1-5.8-7.47c0-3.48 1.3-5.67 2.04-6.63a6.1 6.1 0 0 1-.1-1.11v-3.87A34.88 34.88 0 0 1 1110 7927a34.88 34.88 0 0 1 34.84 34.84v3.87c0 .38-.04.75-.11 1.1.73.97 2.04 3.16 2.04 6.64 0 3.6-2.47 6.6-5.8 7.47v.27a30.96 30.96 0 0 1-15.49 26.78v8.06c0 3.2 2.6 5.8 5.81 5.8h5.8v-3.86c0-.25.03-6.2 2.04-12.23l6.37-14.87h10.3l6.3 14.72a43.38 43.38 0 0 1 2.1 12.38v11.61h-.16a23.1 23.1 0 0 1 5.96 15.48zm-89.03-36.77c0-2.5-1.32-5.3-3.87-6.85v8.79h-11.62v-8.78a8.17 8.17 0 0 0-3.87 6.84c0 3.76 1.55 6.36 4.73 7.94l1.08.54v5.83c1.86-.48 3.8-.76 5.8-.76h1.94v-5.07l1.08-.54c3.18-1.58 4.73-4.18 4.73-7.94zm60-31.5a3.86 3.86 0 0 0 1.93-3.34c0-1.16-.2-2.08-.46-2.78-.44.4-.93.77-1.47 1.12zm-61.89-15.97c6.9-3.67 21.35-4.79 30.92-4.79s24.03 1.12 30.92 4.79a30.96 30.96 0 0 0-28.98-29.85v13.45h-3.88v-13.45a30.96 30.96 0 0 0-28.98 29.85zm-.05 10.97c-.54-.35-1.03-.72-1.47-1.12-.25.7-.46 1.62-.46 2.78 0 1.43.78 2.66 1.93 3.33zm30.97 1.66c19.38 0 30.97-3.94 30.97-7.74-.37-1.97-11.63-5.8-30.97-5.8-19.33 0-30.59 3.83-30.97 5.8.01 3.8 11.6 7.74 30.97 7.74zm0 34.84a27.13 27.13 0 0 0 27.1-27.1v-7.48c-8.54 3.25-21.76 3.61-27.1 3.61s-18.56-.36-27.1-3.6v7.47a27.13 27.13 0 0 0 27.1 27.1zm15.37 15.34a9.62 9.62 0 0 1-3.76-7.6v-6.15a30.77 30.77 0 0 1-23.22 0v6.15c0 3.1-1.5 5.83-3.76 7.6a15.5 15.5 0 0 0 15.37 13.7c7.93 0 14.48-6 15.37-13.7zm19.47-5.66a5.8 5.8 0 0 1 3.87-5.45v-17.78h-.66l-5.3 12.38a39.39 39.39 0 0 0-1.78 10.85v3.87h5.38a5.77 5.77 0 0 1-1.51-3.87zm7.74 0a1.94 1.94 0 1 0-3.87 0 1.94 1.94 0 0 0 3.87 0zm7.74 8.27v-8.27c0-.06-.03-5.59-1.83-11l-5.25-12.23h-.66v17.78a5.8 5.8 0 0 1 3.87 5.45c0 2.08-1.1 3.9-2.76 4.92 2.4.75 4.63 1.9 6.63 3.35z"/></defs><g transform="translate(-1048 -7925)"><use xlink:href="#a"/><use fill="#d91f01" xlink:href="#a"/></g></svg>