<svg xmlns="http://www.w3.org/2000/svg" xmlns:xlink="http://www.w3.org/1999/xlink" width="115" height="125" viewBox="0 0 115 125"><defs><path id="a" d="M565.96 8047h-3.7c.02-.1-.02-.22-.02-.33v-11.12c0-6.07-3.76-13.26-10.93-15.32l-14.4-3.02-14.22 19.64a1.86 1.86 0 0 1-2.83.23l-2.86-2.88c-.3.72-.75 1.36-1.31 1.89l1.32 7.18.2 3.73h-1.63-2.08l-.2-3.73h-.16v-.02h.17l-.17-.87v-.15h-.03l-.92-4.62-.34.01h-4.06l-.92 4.61h-.04v.2l-.16.82h.16v.02h-.16l-.2 3.73h-2.08-1.62l.2-3.73 1.31-7.18c-.55-.53-1-1.17-1.31-1.89l-2.86 2.88a1.86 1.86 0 0 1-2.83-.23l-14.22-19.64-14.4 3.02c-7.17 2.06-10.92 9.25-10.92 15.32v4.65c0 .32 0 6.48-.03 6.8h-3.7c-.03-.5 0-6.5 0-6.8v-4.65a20.7 20.7 0 0 1 3.56-11.5 18.13 18.13 0 0 1 10.27-7.47l14.89-3.13 4-6.1.07-.1a3.75 3.75 0 0 1 5.38-.62l17.8 15.4 17.81-15.4.04-.03a3.74 3.74 0 0 1 5.4.75l4.02 6.1 14.88 3.13.12.03a18.13 18.13 0 0 1 10.15 7.43 20.69 20.69 0 0 1 3.57 11.5v11.13l-.01.33zm-76.17-37.5l-3.66 5.57 12.89 17.8 4.05-4.07 4.18-4.2zm16.47 21.4v1.1c0 1.03.83 1.87 1.86 1.87h3.73c1.03 0 1.87-.84 1.87-1.87v-1.1l-3.73-3.75zm23.93-21.4l-17.46 15.1 4.17 4.2 4.06 4.07 12.88-17.8zm-.5 33.77h-12.68 12.68zm-40.21 0h13.48-13.48zm48.54-67.56c0 8.4-2.95 16.9-8.1 23.33-5.42 6.75-12.49 10.46-19.91 10.46-7.43 0-14.51-3.72-19.94-10.47a37.86 37.86 0 0 1-8.13-23.33v-4.06c-.46-2-3.68-16.33-3.68-24 0-9.94 5.82-16.88 14.16-16.88.13 0 .25.01.38.04 8.12-5.82 18.51-3.73 28.57-1.7 6 1.2 11.66 2.35 16.34 1.68h.02l.13-.02h.25a1.48 1.48 0 0 1 .27.05 2.04 2.04 0 0 1 .26.08l.09.03.07.03.1.06.06.03.1.07.04.03.1.08.04.03.08.09.05.05.06.07.06.07.04.07.06.1.03.05.06.11v.02c1.79 4.07 3.82 18.83-1.66 36.31zm-52.35-.01c0 7.55 2.66 15.2 7.3 20.97 4.71 5.86 10.76 9.08 17.04 9.08 6.27 0 12.3-3.22 17-9.07a34.06 34.06 0 0 0 7.28-20.97v-7.42l-3.37-8.05a54.58 54.58 0 0 0-10.63-3.68 83.6 83.6 0 0 0-29.57-1.57c-1.28 2.87-5.05 11.9-5.05 18.57zm51.03-41.05c-.66.05-1.32.08-2 .08-4.37 0-9.11-.96-14.06-1.96-9.45-1.9-19.2-3.87-26.06 1.36-.49.37-1.1.46-1.64.3-.17.05-.34.08-.52.08-5.19 0-10.42 4.06-10.42 13.12 0 3.95.95 10 1.88 14.96a78.16 78.16 0 0 1 3.9-10.15l.06-.11.04-.07.05-.07.05-.08.01-.01a1.9 1.9 0 0 1 .97-.65l.06-.02.08-.01.1-.02h.02c26.9-3.48 43.37 5.46 44.06 5.84.37.2.66.53.82.91l1.7 4.08c3.13-12.93 2.05-23.42.9-27.58z"/></defs><g transform="translate(-452 -7923)"><use xlink:href="#a"/><use fill="#d91f01" xlink:href="#a"/></g></svg>