<svg xmlns="http://www.w3.org/2000/svg" xmlns:xlink="http://www.w3.org/1999/xlink" width="115" height="126" viewBox="0 0 115 126"><defs><path id="a" d="M1462.88 8047h-.59v-5.9c.01-.3-.02-.6-.02-.9v-4.66c0-6.06-3.76-13.26-10.94-15.31l-14.4-3.02-14.22 19.64a1.86 1.86 0 0 1-2.83.22l-2.86-2.87c-.3.72-.76 1.36-1.32 1.88l1.32 7.19v3.72h-1.42-2.28v-3.92h-.03l-1.09-5.46h-4.4l-1.09 5.46h-.03v3.92h-3.7v-3.72l1.32-7.19c-.56-.52-1.01-1.16-1.32-1.88l-2.86 2.87a1.86 1.86 0 0 1-2.83-.22l-14.22-19.65-14.4 3.03c-7.18 2.05-10.94 9.25-10.94 15.31v4.65l-.02.72v6.08H1354v-11.45a20.7 20.7 0 0 1 3.57-11.5 18.15 18.15 0 0 1 10.27-7.47l14.9-3.12 4-6.1.06-.1a3.75 3.75 0 0 1 5.36-.65l.03.03 17.81 15.4 17.8-15.4.04-.03a3.75 3.75 0 0 1 5.42.74l4 6.1 14.9 3.13.12.03a18.14 18.14 0 0 1 10.15 7.44 20.69 20.69 0 0 1 3.57 11.5V8047c-2.04-.02-.94.02-3.12 0zm-73.09-37.5l-3.65 5.57 12.88 17.8 4.06-4.07 4.18-4.2zm16.48 21.4v1.1c0 1.03.83 1.87 1.86 1.87h3.74c1.03 0 1.86-.84 1.86-1.87v-1.1l-3.73-3.75zm23.94-21.4l-17.47 15.1 4.18 4.2 4.06 4.07 12.88-17.8zm3.48-8.1a14.95 14.95 0 0 1-7.46 1.53l-.06.07c-4.81 4.25-10.4 6.5-16.15 6.5-7.43 0-14.51-3.72-19.94-10.47a37.04 37.04 0 0 1-6.37-12.02H1382v22.5a1.87 1.87 0 1 1-3.73 0v-22.83a5.63 5.63 0 0 1-3.74-5.3v-11.25c0-3.1 2.52-5.62 5.6-5.62h.31c-1.02-5.3-2.17-12.28-2.17-16.88 0-9.93 5.82-16.87 14.16-16.87.12 0 .25.01.37.04 8.13-5.82 18.53-3.73 28.59-1.7 6 1.2 11.67 2.35 16.35 1.68h.01l.13-.02h.25l.1.02h.08l.1.03c.02 0 .05 0 .08.02l.09.02.08.03.09.04.08.03.1.06.05.03.1.07c.02 0 .03.02.05.03l.1.08.03.03.09.09.04.05.07.08a1 1 0 0 1 .05.06l.05.07.05.09.04.06.05.1v.03c1.67 3.78 3.54 16.79-.6 32.63h.77c3.08 0 5.6 2.52 5.6 5.62v11.25c0 8.55-4.74 16.6-11.78 20.02zm-51.75-29.76c-.11-.49-.39-1.7-.74-3.38h-1.07c-1.03 0-1.86.84-1.86 1.87v11.25c0 1.04.83 1.88 1.86 1.88h2.6c-.52-2.5-.79-5.04-.79-7.57zm54.78-36.99c-.66.05-1.32.08-2 .08-4.37 0-9.11-.96-14.07-1.96-9.44-1.9-19.2-3.87-26.06 1.36-.49.37-1.1.46-1.65.3-.16.05-.33.08-.51.08-5.2 0-10.43 4.06-10.43 13.12 0 3.95.95 10 1.88 14.96a78.26 78.26 0 0 1 3.9-10.15l.01-.01.06-.1.03-.07.05-.07.06-.08.01-.01c.1-.13.21-.24.33-.33l.05-.04c.17-.12.37-.22.58-.28l.07-.02.08-.01.1-.02h.02c26.9-3.48 43.38 5.46 44.07 5.84.37.2.66.52.82.91l1.7 4.08c3.14-12.93 2.05-23.42.9-27.58zm5.01 46.73v-11.25c0-1.03-.83-1.87-1.86-1.87h-1.83v7.45c0 2.52-.27 5.05-.78 7.55h2.6c1.04 0 1.87-.84 1.87-1.88zm-1.86 5.63h-3.58a37.65 37.65 0 0 1-3.86 8.48 1.86 1.86 0 0 1-2.57.6 1.88 1.88 0 0 1-.6-2.57 34.37 34.37 0 0 0 5.05-17.81v-7.43l-3.37-8.04a54.63 54.63 0 0 0-10.63-3.68 83.67 83.67 0 0 0-29.58-1.57c-1.28 2.87-5.06 11.9-5.06 18.57v2.13c0 7.56 2.67 15.2 7.31 20.98 4.71 5.85 10.76 9.08 17.04 9.08a19.9 19.9 0 0 0 11.62-3.93 15.45 15.45 0 0 1-3.63-2.24 5.62 5.62 0 1 1-2.41-10.7 5.62 5.62 0 0 1 5.06 8.03 10.42 10.42 0 0 0 11.4 1.11c4.17-2.02 7.42-6.24 8.86-11.12-.34.07-.7.1-1.05.1zm-22.4 7.5a1.87 1.87 0 1 0-1.87 1.87c1.03 0 1.87-.84 1.87-1.88z"/></defs><g transform="translate(-1352 -7923)"><use xlink:href="#a"/><use fill="#d91f01" xlink:href="#a"/></g></svg>