<?xml version="1.0" encoding="UTF-8" standalone="no"?>
<svg
   xmlns:dc="http://purl.org/dc/elements/1.1/"
   xmlns:cc="http://creativecommons.org/ns#"
   xmlns:rdf="http://www.w3.org/1999/02/22-rdf-syntax-ns#"
   xmlns:svg="http://www.w3.org/2000/svg"
   xmlns="http://www.w3.org/2000/svg"
   id="svg8"
   version="1.1"
   viewBox="0 0 135.17725 130.55952"
   height="130.55952mm"
   width="135.17723mm">
  <defs
     id="defs2" />
  <metadata
     id="metadata5">
    <rdf:RDF>
      <cc:Work
         rdf:about="">
        <dc:format>image/svg+xml</dc:format>
        <dc:type
           rdf:resource="http://purl.org/dc/dcmitype/StillImage" />
        <dc:title></dc:title>
      </cc:Work>
    </rdf:RDF>
  </metadata>
  <g
     transform="translate(-11.834723,-85.137065)"
     id="layer1">
    <path
       id="path3758"
       d="m 97.118936,215.42244 c -15.97619,-2.61499 -35.31612,-14.28447 -53.04785,-32.00844 -14.68847,-14.68205 -25.36173,-30.66295 -29.96273,-44.86273 -1.75344,-5.41154 -2.24932,-8.24058 -2.27245,-12.96458 -0.0233,-4.75742 0.28568,-6.27241 1.99656,-9.78958 1.02662,-2.11049 1.44603,-2.60114 6.81167,-7.96858 6.85676,-6.85906 7.45727,-7.24497 11.27394,-7.24497 2.01276,0 2.60645,0.10623 3.83646,0.68642 0.80037,0.37753 1.93146,1.16557 2.51354,1.75121 0.70498,0.70927 3.41766,5.25048 8.12459,13.60108 7.59819,13.48002 8.09847,14.59485 7.74391,17.25685 -0.3808,2.85909 -0.93338,3.65355 -6.47021,9.30236 -7.85128,8.01006 -7.87659,7.56838 1.03848,18.12244 5.71204,6.76218 13.53947,14.36862 20.76306,20.17688 4.12253,3.3148 5.52401,4.15078 6.97482,4.16049 1.74332,0.0117 2.7623,-0.7433 7.99514,-5.92369 4.63718,-4.59069 5.32005,-5.16761 6.74688,-5.69998 1.87407,-0.69926 4.72512,-0.7883 6.35587,-0.1985 1.15571,0.41799 24.155564,13.27068 25.981914,14.51911 2.39065,1.63417 3.65448,4.51055 3.45976,7.87415 -0.19651,3.39458 -0.69499,4.11743 -7.45862,10.8158 -5.26596,5.21515 -6.04765,5.88802 -7.83773,6.74657 -1.09361,0.52452 -2.76049,1.14396 -3.70417,1.37654 -2.39976,0.59144 -8.045074,0.73236 -10.862834,0.27115 z m 9.311634,-4.49132 c 2.74707,-0.58228 4.6583,-1.70705 7.41627,-4.36452 2.16387,-2.08503 2.42227,-2.42771 2.07557,-2.75256 -0.2178,-0.20408 -4.38459,-2.53803 -9.25954,-5.18655 -4.87495,-2.64853 -9.151274,-5.09758 -9.502954,-5.44233 -1.28872,-1.26335 -0.38086,-3.56931 1.40524,-3.56931 0.54834,0 4.013834,1.74753 10.843554,5.46805 9.59539,5.22712 10.06682,5.45152 10.69951,5.09323 0.89717,-0.50808 2.32365,-2.63724 2.54018,-3.79147 0.23617,-1.25887 -0.24042,-2.91079 -1.1157,-3.86724 -0.6564,-0.71726 -20.86671,-12.29216 -24.527124,-14.04723 -2.77176,-1.32899 -4.02101,-0.94433 -7.20989,2.22006 -1.20055,1.19133 -2.18282,2.25148 -2.18282,2.35589 0,0.10442 0.8237,0.6227 1.83045,1.15173 1.00674,0.52903 2.04259,1.19629 2.30187,1.48279 0.63417,0.70075 0.61054,2.22186 -0.0445,2.86506 -1.04396,1.02507 -1.68865,0.93619 -4.71233,-0.64962 l -2.83646,-1.48762 -1.28587,1.07659 c -2.96568,2.48302 -6.58564,3.18528 -9.80524,1.90221 -2.84853,-1.13521 -11.55399,-8.41666 -19.18202,-16.0443 -7.46196,-7.46158 -14.67067,-16.10947 -15.76942,-18.91771 -1.23535,-3.15736 -0.52023,-6.94826 1.79689,-9.52545 1.13316,-1.26036 1.19149,-1.39589 0.88797,-2.06332 -0.17868,-0.3929 -2.63585,-4.95116 -5.46039,-10.12949 -5.59829,-10.26352 -5.79735,-10.79566 -4.43839,-11.86462 0.85184,-0.67005 1.96913,-0.70534 2.70189,-0.0854 0.30098,0.25466 2.82925,4.65998 5.61838,9.78959 2.78912,5.1296 5.21431,9.32656 5.38931,9.32656 0.52488,0 4.351,-4.10243 4.77699,-5.12195 0.50539,-1.20957 0.50136,-2.3129 -0.013,-3.55165 -0.22463,-0.54103 -3.40955,-6.32561 -7.0776,-12.85462 -4.92879,-8.7731 -6.90033,-12.04885 -7.55494,-12.5527 -0.6483,-0.49899 -1.29227,-0.71117 -2.40204,-0.79144 -1.79115,-0.12956 -3.0705,0.41579 -4.51741,1.92566 l -0.92604,0.96633 1.38906,2.6051 c 1.62782,3.05286 1.78035,4.15825 0.69193,5.0144 -0.76063,0.59831 -1.69667,0.70187 -2.49281,0.27579 -0.28012,-0.14992 -0.99743,-1.16195 -1.59402,-2.24896 -0.59658,-1.08701 -1.2306,-1.97638 -1.40892,-1.97638 -0.53654,0 -5.06964,4.80898 -5.69414,6.04068 -5.58141,11.00827 3.60103,33.7551 22.26035,55.14355 2.8171,3.22913 9.97749,10.45642 13.32629,13.45078 13.16386,11.77061 27.68046,20.54881 39.13892,23.66732 5.26209,1.43212 10.353594,1.82159 13.922914,1.06502 z m 15.96298,-28.57928 c -0.38657,-0.38658 -0.64943,-0.95553 -0.64943,-1.4057 0,-0.41594 0.53699,-3.42618 1.1933,-6.68941 1.00988,-5.02121 1.29209,-6.03195 1.83605,-6.5759 0.83534,-0.83534 2.05129,-0.84505 2.92593,-0.0234 0.87816,0.825 0.87687,1.58571 -0.009,5.48808 -0.26549,1.16908 0.61849,0.59433 2.64507,-1.71979 4.119,-4.70341 8.01565,-11.47249 9.91342,-17.2211 2.6405,-7.99847 3.13833,-17.75485 1.32663,-25.99865 -3.21037,-14.60815 -13.09641,-27.15187 -26.54065,-33.675651 -7.6355,-3.7051 -14.49958,-5.13003 -23.367024,-4.8508 -7.29742,0.22979 -12.81683,1.57356 -19.40047,4.72329 -6.25816,2.99401 -12.11666,7.476461 -16.20457,12.398431 -3.71129,4.46852 -3.74146,4.49792 -4.61631,4.49792 -0.44197,0 -1.1173,-0.24677 -1.50073,-0.54837 -1.67975,-1.3213 -0.47792,-3.56863 4.8528,-9.07436 4.74835,-4.904261 9.21895,-8.201051 14.9299,-11.009891 15.45507,-7.60134 33.553244,-7.35331 48.777064,0.66848 14.96962,7.88784 25.0286,21.938691 28.02487,39.146431 0.69372,3.98411 0.62618,13.21607 -0.1268,17.33021 -1.94678,10.63686 -6.48169,19.77094 -13.65836,27.51027 -1.51988,1.63904 -1.37944,1.84405 0.9247,1.3499 0.73135,-0.15684 1.66031,-0.28517 2.06434,-0.28517 0.73918,0 1.65763,0.7687 1.96688,1.64619 0.22755,0.64565 -0.25805,1.87558 -0.8984,2.27549 -0.59853,0.37378 -11.7968,2.6929 -13.00317,2.6929 -0.45017,0 -1.01912,-0.26286 -1.4057,-0.64943 z m -51.500734,-5.71117 c -1.03814,-1.03814 -0.92595,-1.64131 0.88163,-4.74032 1.75393,-3.00701 2.86221,-3.58938 4.36721,-2.29483 1.11306,0.95741 0.97006,1.98416 -0.65698,4.71728 -1.97912,3.32454 -3.04643,3.8633 -4.59186,2.31787 z m 42.462364,0.40568 c -0.87498,-0.61286 -3.25272,-4.94668 -3.25272,-5.92861 0,-1.7215 2.11857,-2.76876 3.39121,-1.67637 0.7786,0.66833 3.22337,5.09017 3.22337,5.83009 0,0.80747 -1.36368,2.17356 -2.16974,2.17356 -0.34261,0 -0.87907,-0.1794 -1.19212,-0.39867 z M 56.221906,161.83683 c -1.33594,-0.53912 -1.83307,-2.36666 -0.91256,-3.35472 0.69834,-0.74957 4.61297,-2.97596 5.56869,-3.1671 0.63729,-0.12746 0.93538,-0.006 1.58882,0.64745 1.61971,1.61971 0.79474,2.95978 -3.08564,5.01225 -2.2748,1.20322 -2.29822,1.20961 -3.15931,0.86212 z m 71.839284,-0.6066 c -2.7735,-1.4527 -3.94171,-2.28708 -4.21742,-3.01226 -0.47208,-1.24167 0.29035,-2.57702 1.64072,-2.87361 0.63038,-0.13845 1.26707,0.10833 3.41028,1.32182 1.44936,0.82064 2.7551,1.71611 2.90165,1.98994 0.45361,0.84757 0.30754,1.9903 -0.32886,2.57279 -1.03909,0.95105 -1.59273,0.95127 -3.40637,10e-4 z m -59.417424,-6.91461 c -0.6684,-0.57608 -0.73795,-0.79355 -0.69817,-2.18282 0.0874,-3.05225 1.73992,-5.99533 4.60683,-8.20461 0.78892,-0.60796 3.15213,-2.07853 5.25157,-3.26795 2.09944,-1.18942 4.4595,-2.64755 5.24458,-3.24029 3.85594,-2.91126 4.63956,-7.22393 1.88186,-10.35684 -2.60272,-2.95684 -7.75098,-3.18414 -10.64634,-0.47005 -0.92233,0.86458 -2.01093,3.08247 -2.01447,4.10425 -0.008,2.21093 -2.04008,3.28876 -3.62586,1.92288 -0.65511,-0.56428 -0.73845,-0.8089 -0.70914,-2.08154 0.0989,-4.29533 3.36575,-8.34956 7.87672,-9.77523 1.27224,-0.40209 2.14861,-0.4867 4.12861,-0.39861 3.09574,0.13773 4.85872,0.77051 6.98842,2.50835 5.34247,4.35947 5.42078,11.86485 0.1754,16.81307 -1.69449,1.5985 -2.98715,2.44676 -9.007,5.91051 -2.41331,1.38859 -5.03599,3.68669 -5.03599,4.41273 0,0.41059 0.63605,0.44817 7.60677,0.44953 4.45439,7.9e-4 8.01777,0.11561 8.59854,0.2769 0.67015,0.18611 1.12059,0.52457 1.38906,1.04372 0.56685,1.09617 0.49942,1.5269 -0.3761,2.40242 l -0.7734,0.7734 h -10.05976 -10.05977 z m 42.155834,0.0915 c -0.69317,-0.54524 -0.69714,-0.56929 -0.69714,-4.2117 0,-2.01482 -0.0723,-3.85165 -0.1606,-4.08183 -0.14095,-0.36731 -1.03293,-0.41852 -7.28918,-0.41852 -8.522464,0 -8.954394,-0.11395 -8.954394,-2.36222 0,-0.54577 3.09158,-14.81459 4.63469,-21.39086 0.3878,-1.6527 2.491224,-2.21797 3.711714,-0.99749 0.35719,0.35719 0.64943,0.89546 0.64943,1.19615 0,0.30069 -0.89297,4.55791 -1.98437,9.46049 -1.091414,4.90257 -1.984384,9.06727 -1.984384,9.25489 0,0.26756 1.19215,0.34112 5.527944,0.34112 4.79669,0 5.54919,-0.0554 5.68855,-0.41851 0.0883,-0.23018 0.1606,-4.67427 0.1606,-9.87575 v -9.45724 l 0.61236,-0.57529 c 0.81266,-0.76346 2.3018,-0.77277 2.98465,-0.0187 0.47125,0.52043 0.51263,1.1957 0.63632,10.3849 l 0.13229,9.82828 1.67754,0.13344 c 1.42189,0.1131 1.77471,0.2464 2.31511,0.87465 0.80189,0.93225 0.80996,1.80468 0.0251,2.71708 -0.50687,0.58927 -0.90586,0.74001 -2.3151,0.87465 l -1.70268,0.16266 -0.13229,4.05907 c -0.12609,3.86882 -0.16157,4.08273 -0.75692,4.56406 -0.81446,0.65848 -1.90873,0.6414 -2.77927,-0.0434 z m 18.81514,-13.99953 c -1.45384,-1.14359 -1.01301,-3.19247 0.79491,-3.69456 1.28473,-0.35679 4.41468,-0.35352 5.70925,0.006 1.80698,0.50176 2.19537,2.71761 0.6643,3.79001 -0.46665,0.32685 -1.27794,0.42357 -3.5529,0.42357 -2.53969,0 -3.04062,-0.0727 -3.61556,-0.52498 z M 57.979606,120.83191 c -2.54822,-1.4773 -3.17507,-2.11382 -3.17507,-3.22401 0,-1.00917 1.05236,-2.07533 2.04847,-2.07533 1.0702,0 5.60912,2.65689 6.08255,3.56047 0.72476,1.38326 -0.29051,3.05876 -1.84716,3.04838 -0.54182,-0.004 -1.69177,-0.488 -3.10879,-1.30951 z m 66.619184,0.95454 c -1.09056,-0.82856 -1.11009,-2.44578 -0.0408,-3.37561 1.07938,-0.93857 4.7595,-2.87827 5.46082,-2.87827 1.06034,0 2.04402,1.0652 2.04402,2.21341 0,1.10477 -0.68637,1.75001 -3.53329,3.32154 -2.0139,1.1117 -3.14219,1.31806 -3.93079,0.71893 z M 73.953386,108.39267 c -0.6799,-0.27455 -1.25933,-1.07532 -2.73524,-3.78012 -1.2083,-2.21437 -1.25624,-2.91443 -0.2673,-3.90337 0.51245,-0.51245 1.65764,-0.6794 2.48432,-0.36217 0.45875,0.17604 2.91894,4.10371 3.35629,5.35829 0.37165,1.0661 -0.24958,2.26047 -1.38086,2.65484 -0.4627,0.16129 -0.85327,0.28572 -0.86794,0.27649 -0.0147,-0.009 -0.27984,-0.119 -0.58927,-0.24396 z m 37.313144,-0.11925 c -1.56556,-0.67738 -1.55672,-1.98654 0.0322,-4.77481 1.56971,-2.75449 2.11288,-3.31187 3.22745,-3.31187 1.10406,0 2.19081,0.99562 2.19081,2.00709 0,0.75695 -2.31742,5.03031 -3.10142,5.71909 -0.72561,0.63748 -1.45149,0.74887 -2.34909,0.3605 z m -18.361994,-4.83403 c -0.21828,-0.0797 -0.66477,-0.38873 -0.99219,-0.68661 -0.55498,-0.50493 -0.59531,-0.75941 -0.59531,-3.756671 0,-2.99896 0.04,-3.25106 0.59531,-3.75091 0.32742,-0.29472 0.80032,-0.60811 1.05088,-0.69641 0.63307,-0.22311 2.01632,0.30324 2.32814,0.88589 0.14245,0.26616 0.259,1.92052 0.259,3.67633 0,2.839621 -0.0585,3.250871 -0.52916,3.721561 -0.29105,0.29104 -0.6385,0.52917 -0.77211,0.52917 -0.13362,0 -0.40151,0.0501 -0.59532,0.11133 -0.1938,0.0612 -0.53096,0.0461 -0.74924,-0.0337 z"
       style="fill:#0e0e0e;stroke-width:0.26458332" />
  </g>
</svg>
