<?xml version="1.0" encoding="UTF-8" standalone="no"?>
<svg
   xmlns:dc="http://purl.org/dc/elements/1.1/"
   xmlns:cc="http://creativecommons.org/ns#"
   xmlns:rdf="http://www.w3.org/1999/02/22-rdf-syntax-ns#"
   xmlns:svg="http://www.w3.org/2000/svg"
   xmlns="http://www.w3.org/2000/svg"
   id="svg8"
   version="1.1"
   viewBox="0 0 76.702556 76.701782"
   height="76.701782mm"
   width="76.702545mm">
  <defs
     id="defs2" />
  <metadata
     id="metadata5">
    <rdf:RDF>
      <cc:Work
         rdf:about="">
        <dc:format>image/svg+xml</dc:format>
        <dc:type
           rdf:resource="http://purl.org/dc/dcmitype/StillImage" />
        <dc:title></dc:title>
      </cc:Work>
    </rdf:RDF>
  </metadata>
  <g
     transform="translate(-182.2203,-88.118832)"
     id="layer1">
    <path
       id="path3745"
       d="m 194.78801,164.43258 c -4.35247,-1.192 -8.6345,-4.75276 -10.66336,-8.86719 -1.75628,-3.56167 -1.90435,-4.82468 -1.90435,-16.24409 0,-10.59271 0.16749,-12.5132 1.40856,-16.15097 2.70528,-7.92964 8.58639,-13.61251 17.21979,-16.63935 0.42946,-0.15056 0.21327,-0.44617 -1.45521,-1.98977 -2.27594,-2.10561 -3.55728,-4.08987 -4.24681,-6.576548 -0.82682,-2.98175 -0.54102,-5.56949 0.77595,-7.02582 1.35132,-1.49431 4.04805,-1.92308 6.03761,-0.95995 l 1.12155,0.54293 1.21717,-0.92909 c 2.57455,-1.9652 5.39114,-1.9652 7.96569,0 l 1.21718,0.92909 1.18503,-0.57367 c 0.92557,-0.44806 1.52374,-0.54916 2.73194,-0.46177 2.77756,0.20091 4.50905,2.18817 4.50905,5.17511 0,3.91897 -2.02951,7.966058 -5.23723,10.443688 -0.77042,0.59507 -1.30621,1.16278 -1.19062,1.26159 0.11558,0.0988 0.80545,0.39536 1.53306,0.65901 1.76777,0.64056 4.24587,1.88683 5.60392,2.81827 0.6083,0.41721 1.23849,0.75857 1.40041,0.75857 0.16193,0 0.91438,-0.46727 1.67212,-1.03838 0.75774,-0.5711 2.27068,-1.46568 3.36209,-1.98795 1.0914,-0.52226 1.98437,-1.06227 1.98437,-1.2 0,-0.13774 -0.70721,-0.82074 -1.57157,-1.51778 -3.05511,-2.46369 -4.91072,-6.248908 -4.91072,-10.017288 0,-2.17176 0.2995,-2.99795 1.49773,-4.13166 1.49238,-1.41201 3.82545,-1.69141 5.81727,-0.69665 l 1.15524,0.57696 0.72582,-0.69365 c 2.31042,-2.20803 5.9971,-2.34671 8.25109,-0.31036 1.17311,1.05983 1.30759,1.08065 2.45635,0.38025 1.97789,-1.20592 5.27645,-0.34967 6.54211,1.69822 2.15339,3.48425 -0.70763,11.167738 -5.1899,13.937938 -0.48554,0.30008 -0.88279,0.64202 -0.88279,0.75987 0,0.11785 0.50601,0.41359 1.12448,0.6572 6.06411,2.38858 11.26221,8.54765 12.62617,14.96037 0.21813,1.02553 0.28449,5.00978 0.22474,13.49375 l -0.0848,12.03854 -0.75449,1.43333 c -1.69927,3.22815 -4.84743,5.51739 -8.37363,6.08906 -0.94589,0.15335 -5.1337,0.27972 -9.30624,0.28082 l -7.58646,0.002 -1.21451,1.82689 c -2.24538,3.37753 -5.79818,6.07281 -9.48139,7.19293 -1.51972,0.46217 -2.59429,0.49946 -13.81869,0.4795 -9.42727,-0.0168 -12.46905,-0.1033 -13.49375,-0.38394 z m 26.7754,-2.62672 c 5.50898,-1.74834 9.21037,-6.24086 10.1543,-12.32467 0.47489,-3.06071 0.17177,-20.7908 -0.39328,-23.00357 -1.85882,-7.27937 -6.29827,-12.86471 -12.73613,-16.02353 -3.12434,-1.53301 -3.67623,-1.50956 -2.53485,0.10769 1.50067,2.12632 3.10811,6.25847 3.8547,9.90907 0.47762,2.33538 0.96741,7.74757 0.75195,8.30905 -0.0977,0.25456 -0.48406,0.34573 -1.23321,0.29099 l -1.09097,-0.0797 -0.1796,-2.24895 c -1.0582,-13.2509 -6.79262,-21.4021 -12.55165,-17.84157 -3.81905,2.36114 -6.33179,8.68424 -7.19523,18.10615 l -0.18185,1.98437 h -1.05833 -1.05834 l 0.0249,-2.91041 c 0.0466,-5.44438 1.7898,-11.53689 4.52011,-15.79816 0.25264,-0.3943 0.38592,-0.79033 0.2962,-0.88005 -0.0897,-0.0897 -0.99749,0.1874 -2.01723,0.61585 -5.48152,2.30309 -10.51823,7.55963 -12.63691,13.18844 -1.33791,3.5545 -1.43189,4.61802 -1.43189,16.20465 0,11.94618 0.0138,12.06667 1.76747,15.42256 1.68996,3.23398 4.9958,5.91003 8.80838,7.1303 1.30172,0.41663 2.70603,0.46972 12.75997,0.48238 l 11.29728,0.0142 z m 30.03602,-9.97615 c 1.98229,-0.92909 3.73006,-2.74657 4.42348,-4.5999 0.51855,-1.38595 0.54511,-1.99246 0.54139,-12.36159 -0.004,-12.29229 -0.0612,-12.79075 -1.88944,-16.5735 -1.46427,-3.02974 -4.9722,-6.61806 -7.87133,-8.05172 -1.07771,-0.53295 -2.0104,-0.91807 -2.07265,-0.85582 -0.0623,0.0622 0.30632,1.16486 0.81904,2.45025 0.51272,1.28538 1.17438,3.53096 1.47035,4.99016 0.58832,2.90057 1.28045,11.13062 0.99796,11.86677 -0.13696,0.3569 -0.42853,0.44153 -1.30332,0.37828 l -1.1269,-0.0815 -0.17593,-3.71027 c -0.31533,-6.65011 -1.47164,-11.6689 -3.36252,-14.59445 -2.52098,-3.90045 -6.27659,-3.43023 -8.54845,1.07031 -0.77042,1.5262 -2.06831,6.00483 -2.06831,7.13714 0,0.30278 0.42785,1.54664 0.95078,2.76414 1.78243,4.14994 1.95307,5.69487 1.94969,17.65188 -0.002,6.06694 -0.11534,11.07043 -0.26625,11.72476 -0.14479,0.62779 -0.19044,1.25924 -0.10145,1.40323 0.10274,0.16624 3.07466,0.23249 8.14108,0.18149 l 7.97927,-0.0803 z m -21.91156,-37.0599 c 0.0913,-0.47294 0.56549,-1.84462 1.05369,-3.04817 0.48819,-1.20354 0.80555,-2.239 0.70522,-2.301 -0.50318,-0.31098 -5.04106,2.43863 -5.04106,3.0545 0,0.40113 2.45293,3.14722 2.81482,3.15123 0.16571,0.002 0.37601,-0.38362 0.46733,-0.85656 z m -17.65754,-9.99064 c 3.63625,-1.25314 6.31339,-4.34479 7.1225,-8.225318 0.44545,-2.13641 0.34083,-2.99115 -0.47287,-3.86302 -1.18162,-1.26611 -3.25013,-0.89347 -3.91214,0.70476 -0.20093,0.4851 -0.59486,0.87473 -0.98282,0.9721 -0.90651,0.22752 -1.93137,-0.29698 -1.93137,-0.98844 0,-0.31128 -0.46224,-1.02821 -1.0272,-1.59317 -0.91234,-0.91234 -1.17123,-1.0271 -2.31511,-1.02622 -1.72087,0.001 -2.89768,0.74139 -3.56008,2.23886 -0.78416,1.77272 -2.49645,1.98808 -3.15555,0.39687 -0.67875,-1.63865 -2.72946,-1.96749 -3.97848,-0.63797 -0.50069,0.53297 -0.60212,0.91436 -0.5698,2.14265 0.10156,3.86007 2.44891,7.487208 5.97243,9.228628 3.04019,1.50254 5.75585,1.70297 8.81049,0.65027 z m 29.19205,0.21277 c 4.3555,-1.3282 7.6046,-5.266948 7.87349,-9.544688 0.10404,-1.65529 0.0453,-2.00466 -0.44035,-2.61754 -1.15578,-1.45868 -3.14329,-1.12283 -4.22722,0.71431 -0.48629,0.8242 -0.67727,0.94126 -1.4187,0.86957 -0.73214,-0.0708 -0.94352,-0.26611 -1.45326,-1.34288 -0.74603,-1.57589 -1.87809,-2.30951 -3.5659,-2.31085 -1.01424,-7.9e-4 -1.41945,0.14993 -2.16666,0.80599 -0.5055,0.44383 -1.05467,1.21779 -1.22038,1.71991 -0.20563,0.62306 -0.51099,0.96556 -0.96171,1.07869 -0.78033,0.19585 -1.94431,-0.26851 -1.94431,-0.77566 0,-0.50944 -1.06859,-1.4375 -1.88973,-1.64121 -0.96879,-0.24034 -2.19171,0.45166 -2.61833,1.48161 -0.27586,0.66599 -0.28727,1.20509 -0.0543,2.56523 1.14521,6.685728 7.77746,10.921718 14.08734,8.997518 z"
       style="fill:#161616;stroke-width:0.26458332" />
  </g>
</svg>
