<?xml version="1.0" encoding="UTF-8" standalone="no"?>
<svg
   xmlns:dc="http://purl.org/dc/elements/1.1/"
   xmlns:cc="http://creativecommons.org/ns#"
   xmlns:rdf="http://www.w3.org/1999/02/22-rdf-syntax-ns#"
   xmlns:svg="http://www.w3.org/2000/svg"
   xmlns="http://www.w3.org/2000/svg"
   id="svg8"
   version="1.1"
   viewBox="0 0 135.24503 135.24089"
   height="135.24089mm"
   width="135.24501mm">
  <defs
     id="defs2" />
  <metadata
     id="metadata5">
    <rdf:RDF>
      <cc:Work
         rdf:about="">
        <dc:format>image/svg+xml</dc:format>
        <dc:type
           rdf:resource="http://purl.org/dc/dcmitype/StillImage" />
        <dc:title></dc:title>
      </cc:Work>
    </rdf:RDF>
  </metadata>
  <g
     transform="translate(-180.5194,-84.974827)"
     id="layer1">
    <path
       id="path3732"
       d="m 232.69536,216.88932 -4.10104,-3.31621 -5.68855,0.17425 -5.68854,0.17425 -0.70153,-0.75049 c -0.38584,-0.41278 -1.83401,-2.49326 -3.21816,-4.62329 -1.38414,-2.13003 -2.65464,-3.95807 -2.82332,-4.06232 -0.16867,-0.10425 -2.57339,-0.81966 -5.34381,-1.58979 -2.77042,-0.77013 -5.21499,-1.5781 -5.43237,-1.79549 -0.21739,-0.21739 -1.02536,-2.66196 -1.79549,-5.43237 -0.77014,-2.77042 -1.48554,-5.17514 -1.58979,-5.34382 -0.10425,-0.16868 -1.9323,-1.43917 -4.06233,-2.82331 -2.13003,-1.38415 -4.2105,-2.83232 -4.62328,-3.21816 l -0.75049,-0.70153 0.1739,-5.68855 0.17391,-5.68854 -3.34346,-4.15858 c -2.41759,-3.00699 -3.34847,-4.36246 -3.36152,-4.89479 -0.01,-0.40492 0.77183,-2.82757 1.73724,-5.38367 0.96541,-2.55611 1.7553,-4.87007 1.7553,-5.14212 0,-0.27206 -0.78989,-2.58601 -1.7553,-5.14212 -0.96541,-2.55611 -1.74717,-4.97876 -1.73724,-5.38367 0.0131,-0.53234 0.94393,-1.88781 3.36152,-4.89479 l 3.34346,-4.15859 -0.17391,-5.68854 -0.1739,-5.68854 0.75049,-0.70153 c 0.41278,-0.38585 2.49325,-1.83402 4.62328,-3.21817 2.13003,-1.38414 3.95808,-2.65463 4.06233,-2.82331 0.10425,-0.16868 0.81965,-2.57339 1.58979,-5.34381 0.77013,-2.77042 1.5781,-5.21499 1.79549,-5.43238 0.21738,-0.21739 2.66195,-1.02536 5.43237,-1.79549 2.77042,-0.77013 5.17514,-1.48554 5.34381,-1.58979 0.16868,-0.10424 1.43918,-1.932292 2.82332,-4.062322 1.38415,-2.130031 2.83232,-4.210508 3.21816,-4.623281 l 0.70153,-0.750498 5.68854,0.173908 5.68855,0.173908 4.15858,-3.343466 c 3.02619,-2.433029 4.35906,-3.347267 4.89479,-3.357426 0.40492,-0.0077 2.82888,0.774081 5.3866,1.737243 2.55771,0.963162 4.87035,1.751203 5.13919,1.751203 0.26884,0 2.58148,-0.788041 5.1392,-1.751203 2.55771,-0.963162 4.98168,-1.744922 5.38659,-1.737243 0.53573,0.01016 1.8686,0.924397 4.89479,3.357426 l 4.15858,3.343466 5.68855,-0.173908 5.68854,-0.173908 0.70153,0.750498 c 0.38584,0.412773 1.83401,2.49325 3.21816,4.623281 1.38414,2.13003 2.65464,3.958082 2.82332,4.062322 0.16867,0.10425 2.57339,0.81966 5.34381,1.58979 2.77042,0.77013 5.21498,1.5781 5.43237,1.79549 0.21739,0.21739 1.02536,2.66196 1.79549,5.43238 0.77014,2.77042 1.48554,5.17513 1.58979,5.34381 0.10425,0.16868 1.9323,1.43917 4.06233,2.82331 2.13003,1.38415 4.2105,2.83232 4.62328,3.21817 l 0.75049,0.70153 -0.17425,5.68854 -0.17425,5.68854 3.31622,4.10104 c 2.73099,3.37732 3.318,4.2562 3.32635,4.98024 0.006,0.48356 -0.76376,2.93211 -1.70964,5.44122 -0.94589,2.50911 -1.7198,4.78461 -1.7198,5.05667 0,0.27205 0.77391,2.54756 1.7198,5.05667 0.94588,2.5091 1.71522,4.95765 1.70964,5.44121 -0.008,0.72405 -0.59536,1.60292 -3.32635,4.98024 l -3.31622,4.10104 0.17425,5.68854 0.17425,5.68855 -0.75049,0.70153 c -0.41278,0.38584 -2.49325,1.83401 -4.62328,3.21816 -2.13003,1.38414 -3.95808,2.65463 -4.06233,2.82331 -0.10425,0.16868 -0.81965,2.5734 -1.58979,5.34382 -0.77013,2.77041 -1.5781,5.21498 -1.79549,5.43237 -0.21739,0.21739 -2.66195,1.02536 -5.43237,1.79549 -2.77042,0.77013 -5.17514,1.48554 -5.34381,1.58979 -0.16868,0.10425 -1.43918,1.93229 -2.82332,4.06232 -1.38415,2.13003 -2.83232,4.21051 -3.21816,4.62329 l -0.70153,0.75049 -5.68854,-0.17425 -5.68855,-0.17425 -4.10104,3.31621 c -3.32661,2.69 -4.26275,3.31813 -4.95739,3.32636 -0.47099,0.006 -2.92085,-0.76376 -5.44414,-1.70965 -2.52328,-0.94588 -4.80775,-1.71979 -5.07659,-1.71979 -0.26884,0 -2.55331,0.77391 -5.07659,1.71979 -2.52328,0.94589 -4.97315,1.71523 -5.44414,1.70965 -0.69464,-0.008 -1.63078,-0.63636 -4.95739,-3.32636 z m 10.23596,-2.8812 c 2.52329,-0.94589 4.88226,-1.71979 5.24216,-1.71979 0.35991,0 2.73883,0.78138 5.28649,1.73641 2.65822,0.99647 4.77376,1.65063 4.96449,1.53511 0.18279,-0.11071 2.05135,-1.57671 4.15234,-3.25777 l 3.82,-3.05646 4.1175,0.12072 c 2.26463,0.0664 4.70707,0.12592 5.42763,0.13229 l 1.31013,0.0116 2.69177,-4.0586 c 1.48048,-2.23223 2.87472,-4.24153 3.09831,-4.46512 0.22359,-0.2236 2.52474,-0.98543 5.11365,-1.69297 2.58892,-0.70754 4.86302,-1.44233 5.05355,-1.63286 0.19053,-0.19054 0.92532,-2.46463 1.63286,-5.05355 0.70754,-2.58892 1.46938,-4.89006 1.69297,-5.11365 0.22359,-0.22359 2.2329,-1.61783 4.46513,-3.09831 l 4.05859,-2.69177 -0.0116,-1.31012 c -0.006,-0.72057 -0.0659,-3.163 -0.13229,-5.42763 l -0.12073,-4.1175 3.05647,-3.82 c 1.68105,-2.10099 3.14705,-3.96955 3.25776,-4.15235 0.11552,-0.19072 -0.53864,-2.30626 -1.53511,-4.96448 -0.95503,-2.54767 -1.73641,-4.92659 -1.73641,-5.28649 0,-0.35991 0.78138,-2.73883 1.73641,-5.2865 0.99647,-2.65822 1.65063,-4.77375 1.53511,-4.96448 -0.11071,-0.1828 -1.57671,-2.05135 -3.25776,-4.15235 l -3.05647,-3.81999 0.12072,-4.11751 c 0.0664,-2.26463 0.12592,-4.70706 0.13229,-5.42763 l 0.0116,-1.31012 -4.0586,-2.69178 c -2.23222,-1.48047 -4.24153,-2.87472 -4.46512,-3.09831 -0.22359,-0.22359 -0.98543,-2.52473 -1.69297,-5.11365 -0.70754,-2.58892 -1.44233,-4.86301 -1.63286,-5.05355 -0.19053,-0.19053 -2.46463,-0.92532 -5.05355,-1.63286 -2.58892,-0.70754 -4.89006,-1.46937 -5.11365,-1.69297 -0.22359,-0.22359 -1.61783,-2.23289 -3.09831,-4.465123 l -2.69176,-4.058596 -1.31013,0.01157 c -0.72056,0.0064 -3.163,0.0659 -5.42763,0.132291 l -4.1175,0.120719 -3.82,-3.056467 c -2.10099,-1.681057 -3.96955,-3.147052 -4.15234,-3.257766 -0.19073,-0.115519 -2.30627,0.538645 -4.96449,1.535112 -2.54766,0.955027 -4.92658,1.736413 -5.28649,1.736413 -0.3599,0 -2.73883,-0.781386 -5.28649,-1.736413 -2.65822,-0.996467 -4.77376,-1.650631 -4.96449,-1.535112 -0.18279,0.110714 -2.05135,1.576709 -4.15234,3.257766 l -3.82,3.056467 -4.1175,-0.120718 c -2.26463,-0.06639 -4.70707,-0.125926 -5.42763,-0.132292 l -1.31013,-0.01157 -2.69177,4.058596 c -1.48048,2.232233 -2.87472,4.241533 -3.09831,4.465123 -0.22359,0.2236 -2.52474,0.98543 -5.11365,1.69297 -2.58892,0.70754 -4.86302,1.44233 -5.05355,1.63286 -0.19053,0.19054 -0.92532,2.46463 -1.63286,5.05355 -0.70754,2.58892 -1.46938,4.89006 -1.69297,5.11365 -0.22359,0.22359 -2.2329,1.61784 -4.46513,3.09831 l -4.05859,2.69178 0.0116,1.31012 c 0.006,0.72057 0.0659,3.163 0.13229,5.42763 l 0.12072,4.11751 -3.05647,3.81999 c -1.68106,2.101 -3.14705,3.96955 -3.25777,4.15235 -0.11551,0.19073 0.53865,2.30626 1.53512,4.96448 0.95502,2.54767 1.73641,4.92659 1.73641,5.2865 0,0.3599 -0.78139,2.73882 -1.73641,5.28649 -0.99647,2.65822 -1.65063,4.77376 -1.53512,4.96448 0.11072,0.1828 1.57671,2.05136 3.25777,4.15235 l 3.05647,3.82 -0.12072,4.1175 c -0.0664,2.26463 -0.12593,4.70706 -0.13229,5.42763 l -0.0116,1.31012 4.05859,2.69178 c 2.23223,1.48048 4.24154,2.87472 4.46513,3.09831 0.22359,0.22359 0.98543,2.52473 1.69297,5.11365 0.70754,2.58892 1.44233,4.86301 1.63286,5.05355 0.19053,0.19053 2.46463,0.92532 5.05355,1.63286 2.58891,0.70754 4.89006,1.46938 5.11365,1.69297 0.22359,0.22359 1.61783,2.23289 3.09831,4.46512 l 2.69177,4.0586 1.31013,-0.0116 c 0.72056,-0.006 3.16126,-0.0659 5.42377,-0.13229 l 4.11365,-0.12072 4.05592,3.24114 c 2.23075,1.78263 4.121,3.24115 4.20054,3.24115 0.0795,0 2.20913,-0.77391 4.73241,-1.71979 z m 0.61195,-8.21959 c -0.3638,-0.0623 -1.73302,-0.24454 -3.04271,-0.40488 -1.30968,-0.16033 -3.92906,-0.68544 -5.82083,-1.1669 -9.57355,-2.4365 -18.04785,-7.37809 -25.01239,-14.58539 -7.76738,-8.03812 -12.49775,-17.46343 -14.45638,-28.80449 -0.63921,-3.70122 -0.63921,-12.96753 0,-16.66875 2.04822,-11.85983 7.31788,-21.94802 15.69136,-30.03947 8.02145,-7.75127 17.48697,-12.50182 28.80449,-14.456386 3.70123,-0.639211 12.96753,-0.639211 16.66875,0 11.34106,1.958636 20.76637,6.689006 28.80449,14.456386 8.39777,8.11491 13.6372,18.14526 15.69137,30.03947 0.63921,3.70122 0.63921,12.96753 0,16.66875 -2.05417,11.89421 -7.2936,21.92456 -15.69137,30.03947 -8.0059,7.73625 -17.58734,12.55564 -28.67219,14.4219 -2.37591,0.40001 -11.49612,0.75194 -12.96459,0.50029 z m 9.46928,-4.36443 c 15.79654,-1.727 29.48869,-10.57892 37.54966,-24.27568 7.10868,-12.07867 8.59491,-27.11923 4.00269,-40.50692 -7.28153,-21.22786 -28.20436,-35.0182 -50.29402,-33.14905 -4.57204,0.38687 -7.69547,1.02637 -11.93744,2.44412 -21.21129,7.08922 -35.16591,28.18371 -33.2923,50.32624 0.81512,9.63313 3.93985,17.97399 9.58671,25.58992 10.19572,13.75097 27.56557,21.41017 44.3847,19.57137 z m -36.07302,-19.93502 c -0.92399,-0.40246 -2.16944,-1.77792 -2.3767,-2.62479 -0.0774,-0.31621 -0.10711,-9.26648 -0.0661,-19.8895 l 0.0746,-19.31459 0.63708,-0.89325 c 0.35039,-0.49128 1.163,-1.12588 1.80578,-1.41021 1.0918,-0.48296 1.72018,-0.51224 9.54938,-0.44495 l 8.38068,0.072 2.29789,-2.13782 c 1.89318,-1.7613 2.63878,-2.2665 4.23334,-2.86842 3.00509,-1.13435 4.94489,-2.16747 7.00286,-3.72966 2.6321,-1.998 4.00664,-3.85 4.45779,-6.00624 0.47914,-2.29007 1.19094,-3.60302 2.64923,-4.88666 4.83317,-4.25434 12.24313,-1.01858 12.75287,5.56888 0.25269,3.26553 -1.34678,7.62205 -4.26552,11.6182 -0.81372,1.11409 -1.4795,2.08983 -1.4795,2.16831 0,0.0785 3.5421,0.17897 7.87134,0.22333 7.35024,0.0753 7.95107,0.11752 9.07543,0.63776 2.9406,1.36062 4.62182,3.95589 4.6096,7.1158 -0.008,2.1877 -0.61806,3.73826 -2.12585,5.4072 l -1.00199,1.1091 0.44432,1.23977 c 0.91373,2.54942 0.44183,4.95947 -1.36445,6.9685 -1.0315,1.14727 -1.14252,1.38514 -0.89748,1.92295 1.0075,2.21122 0.4835,5.11567 -1.28552,7.12538 l -1.08902,1.23719 0.32396,1.3504 c 0.37861,1.57825 0.20935,3.80433 -0.37523,4.93478 -0.61239,1.18425 -1.9886,2.45437 -3.33424,3.07724 -1.16811,0.54069 -1.57757,0.55405 -19.18007,0.62582 l -17.98649,0.0733 -0.79893,0.77033 c -0.4394,0.42368 -1.13409,0.8967 -1.54375,1.05114 -1.15702,0.43621 -15.96694,0.35661 -16.99537,-0.0913 z m 15.49124,-15.63513 c 0.0728,-6.40291 0.22814,-11.8339 0.34529,-12.06885 0.24406,-0.48949 1.30177,-1.02802 2.0191,-1.02802 0.26807,0 0.76849,0.22751 1.11203,0.50557 l 0.62463,0.50558 0.13229,10.67307 0.13229,10.67307 17.47675,0.068 c 17.25805,0.0672 17.48397,0.0613 18.0546,-0.47035 0.82046,-0.76437 0.99732,-1.74083 0.50303,-2.77735 -0.3437,-0.72076 -0.67409,-0.94956 -1.87543,-1.2988 -2.23573,-0.64994 -2.89853,-2.04509 -1.65719,-3.48823 0.55289,-0.64278 0.85452,-0.73745 2.80655,-0.88089 1.86464,-0.13701 2.2609,-0.25187 2.68782,-0.77909 1.18723,-1.46618 0.37472,-3.53589 -1.52825,-3.89289 -2.12932,-0.39946 -2.9346,-2.31068 -1.55491,-3.69036 0.56794,-0.56795 0.88588,-0.64944 2.53389,-0.64944 1.73005,0 1.94784,-0.0634 2.65786,-0.77339 0.52784,-0.52784 0.7734,-1.03834 0.7734,-1.60786 0,-0.97256 -1.23276,-2.38125 -2.08386,-2.38125 -0.93615,0 -1.83833,-0.57175 -2.17155,-1.3762 -0.26727,-0.64525 -0.249,-0.93238 0.10682,-1.67853 0.45002,-0.9437 0.727,-1.06373 2.92204,-1.26625 1.54095,-0.14217 2.5096,-0.7907 3.17206,-2.12374 0.90256,-1.81616 -0.15787,-4.10222 -2.16096,-4.65856 -0.58716,-0.16308 -5.03626,-0.27144 -11.18166,-0.27232 l -10.20648,-0.001 -0.61938,-0.6593 c -1.15339,-1.22772 -0.87617,-2.0346 1.48339,-4.3176 3.75486,-3.63304 5.97545,-7.05747 6.86461,-10.58609 0.53293,-2.11493 0.31861,-3.50315 -0.7242,-4.69083 -1.34996,-1.53753 -3.33473,-1.55281 -4.84991,-0.0374 -0.6589,0.65902 -0.90918,1.21357 -1.14048,2.52702 -0.16298,0.9255 -0.61807,2.23519 -1.01133,2.91042 -0.94518,1.62291 -3.79585,4.57198 -5.82277,6.02375 -1.64176,1.1759 -5.95381,3.3485 -7.30867,3.68242 -0.40336,0.0994 -1.98094,1.31199 -3.50573,2.69463 l -2.77235,2.51388 v 2.71834 c 0,3.05514 -0.28606,3.71026 -1.74277,3.99123 -0.63378,0.12224 -0.98939,0.009 -1.5875,-0.50445 -0.73839,-0.63417 -0.77633,-0.77692 -0.90307,-3.39788 l -0.13229,-2.7359 h -6.74687 -6.74688 l -0.0685,17.85938 c -0.0377,9.82265 -0.0109,18.01025 0.0596,18.19466 0.0997,0.26105 1.60869,0.31963 6.81539,0.26458 l 6.68729,-0.0707 z m -7.8052,6.70594 c -1.35069,-0.73877 -1.59583,-2.22375 -0.5412,-3.27838 1.28015,-1.28015 3.59562,-0.3806 3.57549,1.38906 -0.01,0.84619 -0.39984,1.44438 -1.23096,1.88704 -0.70843,0.37731 -1.11672,0.37782 -1.80333,0.002 z"
       style="fill:#0f0f0f;stroke-width:0.26458332" />
  </g>
</svg>
