<?xml version="1.0" encoding="UTF-8" standalone="no"?>
<svg
   xmlns:dc="http://purl.org/dc/elements/1.1/"
   xmlns:cc="http://creativecommons.org/ns#"
   xmlns:rdf="http://www.w3.org/1999/02/22-rdf-syntax-ns#"
   xmlns:svg="http://www.w3.org/2000/svg"
   xmlns="http://www.w3.org/2000/svg"
   id="svg8"
   version="1.1"
   viewBox="0 0 108.04315 135.26662"
   height="135.26662mm"
   width="108.04314mm">
  <defs
     id="defs2" />
  <metadata
     id="metadata5">
    <rdf:RDF>
      <cc:Work
         rdf:about="">
        <dc:format>image/svg+xml</dc:format>
        <dc:type
           rdf:resource="http://purl.org/dc/dcmitype/StillImage" />
        <dc:title></dc:title>
      </cc:Work>
    </rdf:RDF>
  </metadata>
  <g
     transform="translate(0.66714631,-83.749683)"
     id="layer1">
    <path
       id="path3719"
       d="m 7.5021576,218.66181 c -3.7975,-1.02549 -6.82219998,-4.10123 -7.80472998,-7.93644 -0.36471,-1.42358 -0.40202,-8.0035 -0.34053,-60.05389 l 0.0691,-58.455127 0.5668,-1.38092 c 1.23661998,-3.01283 3.89378998,-5.59553 6.80033998,-6.60975 1.29276,-0.4511 3.7305904,-0.476 46.6078604,-0.476 42.87727,0 45.3151,0.0249 46.607862,0.476 2.98876,1.04291 5.84823,3.90238 6.89114,6.89114 0.45276,1.29752 0.476,4.23793 0.476,60.233897 0,55.99597 -0.0232,58.93638 -0.476,60.2339 -1.01422,2.90655 -3.59692,5.56372 -6.60975,6.80034 l -1.380922,0.5668 -44.97916,0.0506 c -38.97434,0.0439 -45.1725904,-0.002 -46.4279604,-0.34059 z m 90.9947304,-4.22787 c 1.01,-0.29994 1.759612,-0.77295 2.673952,-1.68729 2.29605,-2.29605 2.10407,3.30601 2.10407,-61.39593 0,-64.701937 0.19198,-59.099877 -2.10407,-61.395927 -2.276812,-2.27681 1.64513,-2.10407 -47.769892,-2.10407 -49.4150204,0 -45.4930804,-0.17274 -47.7698904,2.10407 -2.29605,2.29605 -2.10407,-3.30601 -2.10407,61.395927 0,64.71008 -0.19258,59.09928 2.10748,61.39934 2.2327,2.2327 -1.68588,2.06147 47.6523104,2.08223 39.13372,0.0165 43.95637,-0.026 45.21011,-0.39835 z m -79.0949,-4.75228 c -1.63613,-0.50803 -3.0133,-1.72374 -3.81964,-3.37184 l -0.67827,-1.38635 v -12.8483 -12.84831 l 0.7276,-1.43469 c 0.81083,-1.59879 2.41881,-2.97832 3.97543,-3.41063 1.33409,-0.37051 24.9786,-0.37051 26.31268,0 1.55662,0.43231 3.1646,1.81184 3.97543,3.41063 l 0.72761,1.43469 v 12.84831 12.8483 l -0.67828,1.38635 c -0.82703,1.6904 -2.19751,2.87111 -3.93381,3.38912 -1.8621,0.55555 -24.81194,0.54064 -26.60875,-0.0173 z m 26.34912,-4.70142 0.63838,-0.74236 v -12.14133 -12.14132 l -0.63855,-0.74236 -0.63855,-0.74236 h -12.31868 -12.31868 l -0.60267,0.60252 -0.60266,0.60251 -0.0714,12.20205 c -0.0773,13.21012 -0.0853,13.12867 1.3436,13.71423 0.32027,0.13125 5.95026,0.21372 12.57536,0.18421 l 11.99548,-0.0534 z m -20.79084,-5.07633 c -1.19487,-1.27187 -0.90425,-1.99947 1.93825,-4.85268 1.4067,-1.412 2.55764,-2.74622 2.55764,-2.96493 0,-0.21871 -1.08156,-1.46674 -2.40346,-2.77339 -2.64932,-2.61877 -3.01039,-3.21056 -2.60667,-4.2724 0.36142,-0.9506 1.00053,-1.39209 2.02987,-1.40221 0.7305,-0.007 1.26491,0.38524 3.64018,2.67304 l 2.78398,2.68145 2.72491,-2.68145 c 2.73731,-2.69366 3.28404,-2.99712 4.53496,-2.5171 0.62182,0.23861 1.23897,1.58251 1.05794,2.30377 -0.0857,0.34133 -1.27881,1.73899 -2.65144,3.10591 -1.37263,1.36692 -2.49569,2.65316 -2.49569,2.85832 0,0.20516 1.12233,1.5172 2.49407,2.91564 2.87802,2.93405 3.14945,3.53909 2.13079,4.7497 -1.23671,1.46974 -1.8876,1.23512 -5.02173,-1.8102 -1.49765,-1.4552 -2.80734,-2.64583 -2.91042,-2.64583 -0.10308,0 -1.41277,1.19063 -2.91042,2.64583 -3.02799,2.94218 -3.72798,3.22639 -4.89276,1.98653 z m 35.71672,9.77775 c -1.63614,-0.50803 -3.0133,-1.72374 -3.81964,-3.37184 l -0.67828,-1.38635 v -12.8483 -12.84831 l 0.72761,-1.43469 c 0.81083,-1.59879 2.41881,-2.97832 3.97543,-3.41063 1.33408,-0.37051 24.97859,-0.37051 26.31268,0 1.55662,0.43231 3.1646,1.81184 3.97543,3.41063 l 0.7276,1.43469 v 12.84831 12.8483 l -0.67827,1.38635 c -0.82704,1.6904 -2.19751,2.87111 -3.93381,3.38912 -1.8621,0.55555 -24.81194,0.54064 -26.60875,-0.0173 z m 26.34912,-4.70142 0.63838,-0.74236 v -12.14133 -12.14132 l -0.63855,-0.74236 -0.63855,-0.74236 h -12.31868 -12.31869 l -0.60266,0.60252 -0.60266,0.60251 -0.0714,12.20205 c -0.0773,13.21012 -0.0853,13.12867 1.3436,13.71423 0.32027,0.13125 5.95026,0.21372 12.57536,0.18421 l 11.99548,-0.0534 z m -23.45905,-7.0425 c -0.42537,-0.42537 -0.7734,-1.02984 -0.7734,-1.34327 0,-0.31343 0.34803,-0.9179 0.7734,-1.34327 l 0.77339,-0.7734 h 9.66289 9.66289 l 0.72031,0.61959 c 0.51469,0.44271 0.72031,0.87007 0.72031,1.49708 0,0.627 -0.20562,1.05436 -0.72031,1.49708 l -0.72031,0.61958 h -9.66289 -9.66289 z m 0.21806,-8.74742 c -1.16942,-0.91986 -1.14942,-2.45297 0.0439,-3.36921 0.31215,-0.23965 2.93551,-0.32447 10.22942,-0.33073 l 9.8096,-0.008 0.61939,0.6593 c 0.86667,0.92254 0.82445,2.15847 -0.10093,2.95445 l -0.72031,0.61958 h -9.60685 c -9.1807,0 -9.63647,-0.0233 -10.27426,-0.52498 z m -44.38313,-20.25449 c -1.62619,-0.50494 -2.99402,-1.7065 -3.81258,-3.34914 l -0.68533,-1.37529 v -12.8438 -12.8438 l 0.67827,-1.38635 c 0.82703,-1.69039 2.19751,-2.87111 3.93381,-3.38912 1.92517,-0.57436 24.57126,-0.57296 26.50614,0.002 1.74342,0.51774 3.3304,1.91407 4.03382,3.54923 0.55335,1.28628 0.56664,1.61858 0.56412,14.10057 l -0.003,12.78324 -0.62474,1.34167 c -0.73002,1.56776 -2.16396,2.84435 -3.83417,3.41345 -1.67456,0.57058 -24.9182,0.56858 -26.75675,-0.002 z m 26.34912,-4.70143 0.63838,-0.74236 V 151.35072 139.2094 l -0.63855,-0.74236 -0.63855,-0.74236 h -12.31868 -12.31868 l -0.60267,0.60252 -0.60266,0.60251 -0.0714,12.20205 c -0.0773,13.21012 -0.0853,13.12867 1.3436,13.71423 0.32027,0.13125 5.95026,0.21372 12.57536,0.18421 l 11.99548,-0.0534 z m -14.44708,-2.43712 c -0.58503,-0.62274 -0.6331,-0.91453 -0.7409,-4.49792 l -0.11529,-3.83197 h -3.65609 c -3.45248,0 -3.6962,-0.0345 -4.37639,-0.61959 -0.98836,-0.85015 -0.98836,-2.14401 0,-2.99416 0.68019,-0.58508 0.92391,-0.61959 4.37639,-0.61959 h 3.65609 l 0.11529,-3.83197 c 0.1078,-3.58339 0.15587,-3.87518 0.7409,-4.49792 0.84503,-0.89949 2.08036,-0.89247 2.93466,0.0167 0.60078,0.63935 0.64981,0.92021 0.77372,4.43177 l 0.13229,3.74916 3.7941,0.13229 c 3.75905,0.13107 3.8,0.13915 4.43177,0.87465 0.8049,0.93704 0.8049,1.54699 0,2.48403 -0.63177,0.7355 -0.67272,0.74358 -4.43177,0.87465 l -3.7941,0.1323 -0.13229,3.74916 c -0.12391,3.51155 -0.17294,3.79242 -0.77372,4.43177 -0.8543,0.90914 -2.08963,0.91616 -2.93466,0.0167 z m 29.37296,7.13855 c -1.6434,-0.51029 -3.12609,-1.81785 -3.868,-3.41115 l -0.62475,-1.34167 -0.003,-12.78324 c -0.003,-12.48199 0.0108,-12.81429 0.56411,-14.10057 0.70343,-1.63516 2.29041,-3.03149 4.03383,-3.54923 1.93488,-0.5746 24.58097,-0.576 26.50614,-0.002 1.72651,0.51509 3.08716,1.68158 3.92675,3.36642 l 0.68533,1.37529 v 12.8438 12.8438 l -0.67827,1.38635 c -0.82704,1.69039 -2.19751,2.87111 -3.93381,3.38912 -1.8621,0.55555 -24.81194,0.54064 -26.60875,-0.0173 z m 26.34912,-4.70143 0.63838,-0.74236 V 151.35072 139.2094 l -0.63855,-0.74236 -0.63855,-0.74236 h -12.31868 -12.31869 l -0.60266,0.60252 -0.60266,0.60251 -0.0714,12.20205 c -0.0773,13.21012 -0.0853,13.12867 1.3436,13.71423 0.32027,0.13125 5.95026,0.21372 12.57536,0.18421 l 11.99548,-0.0534 z m -23.45905,-11.54041 c -0.42537,-0.42537 -0.7734,-1.02984 -0.7734,-1.34327 0,-0.31343 0.34803,-0.9179 0.7734,-1.34327 l 0.77339,-0.7734 h 9.66289 9.66289 l 0.72031,0.61959 c 0.51469,0.44271 0.72031,0.87008 0.72031,1.49708 0,0.627 -0.20562,1.05437 -0.72031,1.49708 l -0.72031,0.61959 h -9.66289 -9.66289 z m -49.0701,-26.9757 c -1.32941,-0.60387 -3.2031,-2.69428 -3.55702,-3.96845 -0.15974,-0.57508 -0.26684,-5.5681 -0.26772,-12.48206 l -0.001,-11.523577 0.68533,-1.37528 c 0.8396,-1.68484 2.20024,-2.85133 3.92676,-3.36642 1.96285,-0.5856 74.27339,-0.5856 76.23624,0 1.72652,0.51509 3.08716,1.68158 3.92676,3.36642 l 0.68533,1.37528 -0.002,11.523577 c -0.001,7.37097 -0.10353,11.89109 -0.28467,12.54346 -0.35688,1.28528 -2.16527,3.27638 -3.55031,3.90903 -1.00921,0.46097 -2.81444,0.48341 -38.89375,0.48341 -36.13329,0 -37.88349,-0.0218 -38.90399,-0.48539 z m 76.70333,-4.43386 0.69753,-0.69753 V 109.52523 98.463563 l -0.63855,-0.74235 -0.63854,-0.74236 h -37.21978 -37.21977 l -0.63855,0.74236 -0.63855,0.74235 v 11.061667 11.06167 l 0.69753,0.69753 0.69754,0.69754 h 37.1018 37.1018 z m -16.45867,-2.35067 c -1.04839,-0.88217 -1.11868,-1.98429 -0.18603,-2.91694 0.63496,-0.63496 0.743,-0.64943 4.84867,-0.64943 4.04732,0 4.22005,0.0221 4.77453,0.61236 0.76317,0.81237 0.77273,2.30167 0.0191,2.98465 -0.48575,0.44026 -1.06632,0.51468 -4.58849,0.58819 l -4.03237,0.0842 -0.83547,-0.703 z m -1.88858,-4.16957 c -1.18256,-0.60056 -1.34635,-1.32026 -1.2681,-5.57191 l 0.0723,-3.92614 0.74236,-0.63792 c 0.91066,-0.78254 1.74486,-0.81061 2.66154,-0.0895 l 0.69714,0.54837 v 4.34642 c 0,3.99364 -0.043,4.38937 -0.52917,4.87559 -0.29104,0.29104 -0.63849,0.52916 -0.77211,0.52916 -0.13362,0 -0.40151,0.0583 -0.59531,0.12962 -0.1938,0.0713 -0.64768,-0.0204 -1.00861,-0.20365 z m 11.46632,0.0738 c -1.231,-0.49141 -1.41737,-1.17982 -1.41737,-5.2354 0,-3.80993 0.15451,-4.5968 1.03541,-5.27313 0.69545,-0.53395 1.8441,-0.3941 2.54849,0.31029 0.63362,0.63362 0.64943,0.74922 0.64943,4.74774 0,3.87969 -0.0317,4.13325 -0.59531,4.75315 -0.70614,0.77673 -1.44252,1.00798 -2.22065,0.69735 z m -9.22258,-11.43183 c -1.339,-0.76791 -1.58057,-2.22495 -0.54119,-3.26433 0.63496,-0.634957 0.743,-0.649427 4.84867,-0.649427 4.04732,0 4.22005,0.0221 4.77453,0.612357 0.83906,0.89314 0.78078,2.36259 -0.12186,3.0726 -0.63429,0.49894 -1.04571,0.54765 -4.56406,0.54033 -2.40974,-0.005 -4.06633,-0.12241 -4.39609,-0.31153 z"
       style="fill:#0c0c0c;stroke-width:0.26458332" />
  </g>
</svg>
