<?xml version="1.0" encoding="UTF-8" standalone="no"?>
<svg
   xmlns:dc="http://purl.org/dc/elements/1.1/"
   xmlns:cc="http://creativecommons.org/ns#"
   xmlns:rdf="http://www.w3.org/1999/02/22-rdf-syntax-ns#"
   xmlns:svg="http://www.w3.org/2000/svg"
   xmlns="http://www.w3.org/2000/svg"
   id="svg8"
   version="1.1"
   viewBox="0 0 123.93917 161.61188"
   height="161.61188mm"
   width="123.93917mm">
  <defs
     id="defs2" />
  <metadata
     id="metadata5">
    <rdf:RDF>
      <cc:Work
         rdf:about="">
        <dc:format>image/svg+xml</dc:format>
        <dc:type
           rdf:resource="http://purl.org/dc/dcmitype/StillImage" />
        <dc:title></dc:title>
      </cc:Work>
    </rdf:RDF>
  </metadata>
  <g
     transform="translate(29.75382,-35.851937)"
     id="layer1">
    <path
       id="path3706"
       d="m 7.096861,166.09244 c -13.7294,-17.25425 -25.77144,-32.58354 -26.76008,-34.0651 -3.58767,-5.37639 -6.88648,-12.96771 -8.48543,-19.52695 -1.2652,-5.19013 -1.61324,-8.3673 -1.60503,-14.652211 0.009,-6.56555 0.37988,-9.67032 1.83527,-15.34583 1.17765,-4.59241 2.14514,-7.16676 4.4746,-11.90625 12.95424,-26.35655 42.15769,-39.93052 70.79791,-32.90738 12.5666,3.08158 24.8356,10.86213 33.04306,20.95468 5.68539,6.99122 10.26631,16.20921 12.31699,24.78499 1.18892,4.97191 1.4712,7.74454 1.4712,14.45024 0,6.746791 -0.30674,9.753051 -1.49194,14.621761 -1.59506,6.55249 -4.89574,14.14895 -8.48448,19.52695 -1.91109,2.86391 -51.57412,65.43647 -51.93608,65.43647 -0.11739,0 -11.44659,-14.11712 -25.17599,-31.37137 z m 30.86453,-41.62548 c 8.42292,-1.74757 15.4917,-7.22828 19.31687,-14.97711 1.70111,-3.44604 2.39718,-5.84153 2.81395,-9.684131 1.27761,-11.77965 -5.66563,-23.55827 -16.68165,-28.299 -4.02675,-1.7329 -6.45365,-2.21571 -11.13771,-2.21571 -4.68405,0 -7.11095,0.48281 -11.13771,2.21571 -12.67941,5.45657 -19.52146,19.76486 -15.82878,33.101631 2.73583,9.88097 11.07051,17.70273 21.14566,19.84434 3.11245,0.6616 8.35806,0.6681 11.50937,0.0143 z m -9.86485,-11.14559 c -5.41304,-1.41821 -9.87697,-5.54731 -11.72224,-10.84298 -0.81044,-2.32585 -1.00484,-6.861971 -0.39772,-9.280521 0.77629,-3.09245 2.13569,-5.44928 4.49755,-7.79751 3.4917,-3.47155 7.05116,-4.9713 11.79872,-4.9713 4.74756,0 8.30702,1.49975 11.79872,4.9713 3.59736,3.57661 5.00904,7.22016 4.81505,12.42772 -0.13175,3.536771 -0.84007,5.786511 -2.70517,8.592031 -3.89418,5.85768 -11.29245,8.68088 -18.08491,6.90126 z"
       style="fill:#db1f01;stroke-width:0.26458332" />
  </g>
</svg>
