<?xml version="1.0" encoding="UTF-8" standalone="no"?>
<svg
   xmlns:dc="http://purl.org/dc/elements/1.1/"
   xmlns:cc="http://creativecommons.org/ns#"
   xmlns:rdf="http://www.w3.org/1999/02/22-rdf-syntax-ns#"
   xmlns:svg="http://www.w3.org/2000/svg"
   xmlns="http://www.w3.org/2000/svg"
   id="svg8"
   version="1.1"
   viewBox="0 0 115.62927 135.41533"
   height="135.41533mm"
   width="115.62927mm">
  <defs
     id="defs2" />
  <metadata
     id="metadata5">
    <rdf:RDF>
      <cc:Work
         rdf:about="">
        <dc:format>image/svg+xml</dc:format>
        <dc:type
           rdf:resource="http://purl.org/dc/dcmitype/StillImage" />
        <dc:title></dc:title>
      </cc:Work>
    </rdf:RDF>
  </metadata>
  <g
     transform="translate(24.555868,-61.481513)"
     id="layer1">
    <path
       id="path3691"
       d="m 6.5389819,196.54091 c -0.58208,-0.18457 -1.53458,-0.58487 -2.11666,-0.88956 -0.63149,-0.33055 -6.40419,-5.92377 -14.31306,-13.86807 -11.4811999,-11.53263 -13.3397999,-13.5088 -13.8906199,-14.7693 l -0.63591,-1.4552 -0.0693,-42.57398 -0.0693,-42.573971 0.5644,-1.16588 c 0.34076,-0.70391 0.98923,-1.44726 1.63658,-1.87602 1.06981,-0.70856 1.08508,-0.71033 6.84712,-0.79062 l 5.7749199,-0.0805 v -5.68476 c 0,-5.13582 0.0504,-5.78353 0.52178,-6.70755 0.62621,-1.22747 1.59328,-2.0338 2.88748,-2.40753 0.65279,-0.18851 15.74373,-0.25146 47.5423801,-0.19833 l 46.58602,0.0779 1.07307,0.71015 c 0.64639,0.42777 1.29624,1.17113 1.6343,1.86947 l 0.56122,1.15933 v 56.321471 56.32146 l -0.56122,1.15933 c -0.33767,0.69753 -0.98831,1.4422 -1.63341,1.86947 -1.06981,0.70856 -1.08508,0.71033 -6.84712,0.79062 l -5.77492,0.0805 v 5.68477 c 0,5.05628 -0.0554,5.79328 -0.50101,6.6664 -0.61884,1.21252 -1.21988,1.76933 -2.47674,2.29447 -0.8593,0.35904 -4.7841,0.40489 -33.32781,0.38927 -25.36011,-0.0139 -32.5825901,-0.0902 -33.4121501,-0.35329 z m 65.5883601,-4.28086 c 0.20996,-0.54714 0.20996,-110.534571 0,-111.081711 -0.14559,-0.37942 -4.47116,-0.41852 -46.30208,-0.41852 h -46.14149 v 41.804171 41.80416 h 12.3136699 c 11.56102,0 12.37367,0.0306 13.29531,0.50101 1.21252,0.61885 1.76933,1.21989 2.29447,2.47674 0.34624,0.82865 0.40697,2.79159 0.40697,13.15334 v 12.17933 H 39.980472 c 28.92322,0 32.00165,-0.0401 32.14687,-0.41852 z m -51.48889,-22.96094 c -0.75279,-0.57192 -1.05757,-1.70154 -0.6746,-2.50024 0.66694,-1.39091 0.47941,-1.37648 16.95909,-1.30576 l 15.30272,0.0657 0.63843,0.74235 c 0.81529,0.948 0.81148,1.88678 -0.011,2.70926 l -0.64942,0.64943 -15.5563,-0.008 c -12.34339,-0.007 -15.64977,-0.0794 -16.00891,-0.35229 z M 2.1777519,156.09259 c -1.37858,-0.70212 -1.28007,-2.94103 0.15823,-3.59637 0.95031,-0.43298 49.1136101,-0.4244 49.9271701,0.009 1.30064,0.69273 1.62033,2.07349 0.73363,3.16862 l -0.50574,0.62463 -24.82811,0.0644 c -19.5976301,0.0509 -24.9665401,-0.006 -25.4851801,-0.27021 z m 0.0806,-13.20562 c -1.36837,-0.66155 -1.41881,-2.90147 -0.0806,-3.57856 0.51337,-0.25975 6.00922,-0.33246 25.1310201,-0.33246 19.12181,0 24.61766,0.0727 25.13103,0.33246 1.36893,0.69263 1.37714,2.78632 0.0137,3.49139 -0.6789,0.35107 -3.8539,0.39943 -25.19773,0.38378 -16.52867,-0.0121 -24.6072501,-0.10798 -24.9974301,-0.29661 z m 0.27406,-13.17488 c -0.74008,-0.30143 -1.41738,-1.28563 -1.41738,-2.05963 0,-0.33803 0.29225,-0.90685 0.64944,-1.26404 l 0.64943,-0.64943 h 24.8948801 24.89489 l 0.64943,0.64943 c 0.8225,0.82249 0.82629,1.76128 0.0109,2.70925 l -0.6385,0.74236 -24.56306,0.0515 c -13.5186,0.0283 -24.8180101,-0.0523 -25.1300701,-0.17944 z m -0.86902,-13.93066 c -0.72743,-0.92479 -0.6926,-1.82851 0.10107,-2.62218 l 0.64943,-0.64943 h 24.8948801 24.89489 l 0.64943,0.64943 c 0.79367,0.79367 0.8285,1.69739 0.10107,2.62218 l -0.54837,0.69714 H 27.308772 2.2117619 Z m 0.10107,-13.18146 c -0.79367,-0.79367 -0.8285,-1.69739 -0.10107,-2.622181 l 0.54837,-0.69714 h 25.0970101 25.09702 l 0.54837,0.69714 c 0.69574,0.884501 0.69574,1.689981 0,2.574471 l -0.54837,0.69714 H 27.409842 2.4138919 Z m 1.66878,65.95696 c -0.18361,-0.11656 -4.97672,-0.21375 -10.65135,-0.21598 l -10.3175099,-0.004 10.5820899,10.58468 10.5821,10.58469 0.0693,-10.36871 c 0.0542,-8.11899 -0.003,-10.41468 -0.26459,-10.58063 z M 86.840032,121.63795 V 65.678569 h -46.14149 c -41.8309201,0 -46.1564901,0.0391 -46.3020801,0.41852 -0.0883,0.23018 -0.1606,2.67096 -0.1606,5.42396 v 5.00544 H 33.270402 c 34.52898,0 39.14696,0.047 40.00854,0.40696 1.25686,0.52515 1.8579,1.08196 2.47674,2.29448 0.48626,0.95273 0.50101,2.41575 0.50101,49.675521 v 48.69387 h 5.29167 5.29167 z"
       style="fill:#000000;stroke-width:0.26458332" />
  </g>
</svg>
