<svg width="8" height="35" viewBox="0 0 8 35" fill="none" xmlns="http://www.w3.org/2000/svg">
<path d="M0.691358 0H7.30864V16.1955L6.02469 24.2194H1.97531L0.691358 16.1955V0ZM0 31.2096C0 30.0609 0.36214 29.1585 1.08642 28.5021C1.8107 27.8129 2.76543 27.4684 3.95062 27.4684C5.20165 27.4684 6.1893 27.8129 6.91358 28.5021C7.63786 29.1585 8 30.0609 8 31.2096C8 32.3582 7.63786 33.2771 6.91358 33.9662C6.1893 34.6554 5.20165 35 3.95062 35C2.76543 35 1.8107 34.6554 1.08642 33.9662C0.36214 33.2771 0 32.3582 0 31.2096Z" fill="#C4C4C4"/>
</svg>
