<svg xmlns="http://www.w3.org/2000/svg" viewBox="0 0 338.88 165.17"><defs><style>.cls-1{fill:#f55e00;}.cls-2{fill:#00859f;}.cls-3{fill:#7a626b;}</style></defs><title>logo</title><g id="Слой_2" data-name="Слой 2"><g id="Слой_1-2" data-name="Слой 1"><path class="cls-1" d="M178.1,60.11a14.34,14.34,0,0,0-1.78-5.78,5.31,5.31,0,0,0-3.38-2.49,10.31,10.31,0,0,0-4.82.22,12.49,12.49,0,0,0-2.48.94,18.52,18.52,0,0,0-2.34,1.43,23.88,23.88,0,0,0-2.13,1.72c-.67.61-1.28,1.21-1.83,1.81a34.6,34.6,0,0,0-3.68,4.61l1.53-21.34a15.65,15.65,0,0,0,0-1.94,3.44,3.44,0,0,0-.69-1.91,3.31,3.31,0,0,0-2-1.14,9.37,9.37,0,0,0-4.07.36,18.28,18.28,0,0,0-3.28,1.18,30.34,30.34,0,0,0-3,1.64,25.94,25.94,0,0,0-2.59,1.92c-.8.68-1.52,1.35-2.18,2l.75.75a7,7,0,0,1,1.12-.92,4,4,0,0,1,1.22-.54c.87-.21,1.47-.09,1.79.38a2.75,2.75,0,0,1,.4,1.84s-.91,12.82-2.74,25.37A130.15,130.15,0,0,1,136,93.82c3.65-.62,12.81-.81,16.32,1.47a.08.08,0,0,0,.08-.07c1.63-3.49,2.13-11.73,2.15-12.08l.87-17a14.89,14.89,0,0,0,.89-1.38,17.9,17.9,0,0,1,1.25-1.87,13.33,13.33,0,0,1,1.67-1.79A4.88,4.88,0,0,1,161.34,60a3.6,3.6,0,0,1,1.9,0,2.6,2.6,0,0,1,1.56,1.61,13.08,13.08,0,0,1,.9,4.21,52,52,0,0,1-.09,7.8c-.35,4.78-.81,8.75-1.36,11.87a40.09,40.09,0,0,1-2,7.63,13.52,13.52,0,0,1-2.68,4.49,11.93,11.93,0,0,1-3.38,2.44l.29,1.5a26.33,26.33,0,0,0,3.54-1.34,24.88,24.88,0,0,0,4.34-2.55,30.77,30.77,0,0,0,4.57-4.05,29.51,29.51,0,0,0,4.22-5.8,38,38,0,0,0,3.28-7.85,45.61,45.61,0,0,0,1.77-10.18A49.08,49.08,0,0,0,178.1,60.11Z"/><path class="cls-2" d="M69.63,37.72c-13.25-2.39-9.38-3.54-21-6.68-7.3-2-12.08,3.56-12.08,3.56s-3.62-2-5.4-10.19C27.43,7.48,46.81,0,46.81,0,44,9.69,58.75,13.27,65.34,17,92.21,32.46,87.6,51.23,87.6,51.23,78.59,50.73,79,39.42,69.63,37.72Z"/><path class="cls-2" d="M73.68,73.12c4.72,8.13,9.63,31.47,6.14,46.38,0,0-2.25-12-10.31-21.11-8.27-9.34-15.88-19.74-17.56-25.23C49.35,64.63,64.75,57.72,73.68,73.12Z"/><path class="cls-2" d="M12,52.15C1.12,61,1.72,74.15,1.72,74.15S-3.1,63.57,3.41,50.31c5.85-11.9,22.94-9.56,27,.29C30.43,50.58,19.93,45.68,12,52.15Z"/><path class="cls-2" d="M46.38,58.46C43.59,56.46,36,51,34.11,45.14c-2.07-4.68,1-6.8,1-6.8a6,6,0,0,0,.64,4.91c2.09,3,9.86,5.29,9.86,5.29h0c4.73,1,10,2,12.2,2.37,4.31.73,6.21,2,9.45,4.51,2.47,1.89,4.55,5.91,4.55,5.91C55,55.45,51.1,64,51.1,64A16.15,16.15,0,0,0,46.38,58.46Z"/><path class="cls-1" d="M211.88,70.64a5.62,5.62,0,0,0-2.43-3.16,12,12,0,0,0-4.14-1.92,24.82,24.82,0,0,0-5.31-.81,28.68,28.68,0,0,0-5,.2,21.13,21.13,0,0,0-4.78,1.11,13.34,13.34,0,0,0-3.91,2.17,7.2,7.2,0,0,0-2.37,3.39,4.12,4.12,0,0,0,.23,3.47c.79,1.42,3,2,5.4,1.33,3.78-1,5.91-5.15,2.92-6.58a2.72,2.72,0,0,0-3,.74,2.44,2.44,0,0,0,.12,3.45l.25.2s-2.41-.89-2-2.73c.49-2.22,3.27-3.64,5.55-4.09,3.58-.69,6.3.46,7.11,1.46a4.19,4.19,0,0,1,.56,3.94,7.36,7.36,0,0,1-1.87,3.08,8.54,8.54,0,0,1-3.9,2.21c-2.22.64-4.41,1.25-6.55,1.84a35.43,35.43,0,0,0-6,2.19,19.51,19.51,0,0,0-5,3.4A13.35,13.35,0,0,0,174.42,91a11.61,11.61,0,0,0-.73,4.88A6.11,6.11,0,0,0,175,99.22a6.44,6.44,0,0,0,2.82,1.94c.23.08.5.12.74.19,4.35-1.78,13.23-3.58,13.23-3.58,2.06-.81,3.55-2.6,3.16-4.82a5,5,0,0,0-1.13-2.15,10.55,10.55,0,0,0-2.05-1.89,4.81,4.81,0,0,1,.55,4.36,3.72,3.72,0,0,1-.75,1.22,3,3,0,0,1-3.44.79c-1.31-.6-1.57-2.47-1.49-4,.44-3.63,1.72-5.67,4-8.28a10.83,10.83,0,0,1,3.25-2.26,7.24,7.24,0,0,1,2.75-.47,2.17,2.17,0,0,1,1.46.51,1.28,1.28,0,0,1,.26,1.34v.1c-.18,1.45-1.35,10.56-2.74,14.47a74.4,74.4,0,0,1,12.06-1,77.77,77.77,0,0,1,2.21-16.12C210.9,76.08,212.3,72.7,211.88,70.64Z"/><path class="cls-1" d="M329.8,39.84a1.77,1.77,0,0,0-.7-1.06c-.35-.22-4.94.9-5.28,1.2a1.48,1.48,0,0,0-.57,1,3.28,3.28,0,0,0,.14,1.24c.13.47.87,12.75-1.41,19.82-1.65,5.08-6.19,14.38-9,17.87.48-4.16,2.15-13.3.07-23.89a57.09,57.09,0,0,0-4.62-12.67A7.11,7.11,0,0,0,305,39.94a6.2,6.2,0,0,0-4.12-.1c-2.11.51-6.66,3.37-7.56,3.85a17.28,17.28,0,0,0-2.39,1.53l-2,1.58.73.88A5.26,5.26,0,0,1,295.78,49c6.67,8.12,10.81,29,7.49,39.89a24.49,24.49,0,0,1-3.36,3.15H300a43.12,43.12,0,0,1-8.83,5.65,7.64,7.64,0,0,1-4.09.86c-2.08-.35-2.53-1.44-2.19-2.63a5.48,5.48,0,0,1,1.55-2s-.8,2.6,1.15,3.22c2.23.72,4.41-1,4-2.76-.23-1.39-1.47-2.85-5-2.93-9.85-.21-12.75,9.89-7.21,11.66,3,1,8.35-.27,9.34-.58a25.58,25.58,0,0,0,4.49-1.73c1-.46,1.93-.95,2.9-1.51a54.91,54.91,0,0,0,9.87-7.38A71.16,71.16,0,0,0,314.71,82a80.11,80.11,0,0,0,7.17-11.73A82.88,82.88,0,0,0,327,57.44,68.06,68.06,0,0,0,329.73,44c.09-.88.15-1.68.2-2.39A5.49,5.49,0,0,0,329.8,39.84Z"/><path class="cls-1" d="M259.22,53.74a14.59,14.59,0,0,0-1.68-6.34,8.25,8.25,0,0,0-3.93-3.56,11.62,11.62,0,0,0-5.9-.72,15.43,15.43,0,0,0-3.3.7,18.6,18.6,0,0,0-3.15,1.36,20.61,20.61,0,0,0-2.9,1.89l-.32.28v-.06a19,19,0,0,0-2,2,3.44,3.44,0,0,0-.25-1.42,3.59,3.59,0,0,0-1-1.49,5.19,5.19,0,0,0-2-1.05,7.49,7.49,0,0,0-3.16-.11,18.3,18.3,0,0,0-3.49.84,28.94,28.94,0,0,0-3.21,1.37,26.57,26.57,0,0,0-2.9,1.7c-.92.62-1.46,1-2.22,1.6l.83.79a3.27,3.27,0,0,1,.8-.5,3.56,3.56,0,0,1,1.29-.42c.9-.13,1.49.08,1.75.61a3,3,0,0,1,0,1.65s-6.45,19-8.32,26c-2.81,10.63-2.91,16.61-2.91,16.61,8.34,1.48,13.86,4.33,15.32,6.51C230,63.9,235.3,53.72,235.3,53.72v.07a7.73,7.73,0,0,1,.49-.86l.12-.16h0l.06-.08a10,10,0,0,1,1.39-1.6,11.39,11.39,0,0,1,1.94-1.47,5.39,5.39,0,0,1,2-.71,3.81,3.81,0,0,1,4.42,3,14.2,14.2,0,0,1,.42,4.79,48.81,48.81,0,0,1-1,7.44,61.27,61.27,0,0,1-1.77,6.8A29.75,29.75,0,0,1,241,76.61c-2,3.52-4.92,5.21-7.15,3.77-1.59-1-.18-4.3-.18-4.3s-2.91,1.81-2.8,5c.12,3.62,4,5.55,6.74,5.51a16.1,16.1,0,0,0,7.07-1.72,20,20,0,0,0,5.61-4.41,31.23,31.23,0,0,0,4.84-7.28,43.25,43.25,0,0,0,3.41-10.41A35.07,35.07,0,0,0,259.22,53.74Z"/><path class="cls-1" d="M289.8,83.71a29.59,29.59,0,0,0,3.69-6.56A36.56,36.56,0,0,0,295.75,68a29.79,29.79,0,0,0,.11-7.85A12.45,12.45,0,0,0,294,54.81a7.13,7.13,0,0,0-3.61-2.8,10,10,0,0,0-5.11-.24,12.85,12.85,0,0,0-2.79.81A15.56,15.56,0,0,0,279.89,54a17.34,17.34,0,0,0-2.37,1.82,16.26,16.26,0,0,0-2,2.14,3.54,3.54,0,0,0-1.3-2.5,5,5,0,0,0-1.79-.85,6.27,6.27,0,0,0-2.74,0,15,15,0,0,0-2.94.84,21.6,21.6,0,0,0-2.69,1.3,23.46,23.46,0,0,0-2.39,1.57,21,21,0,0,0-2,1.69l.65.76a9.3,9.3,0,0,1,1-.78,3,3,0,0,1,1.09-.41c.77-.14,1.29,0,1.55.48a2.85,2.85,0,0,1,.26,1.75L258,91.1a18.94,18.94,0,0,1,11.93,9.68c.83-28.2,5.15-38.15,5.15-38.15a4.45,4.45,0,0,1,.61-1.66,7.91,7.91,0,0,1,1.22-1.68,8.6,8.6,0,0,1,1.58-1.38,4.39,4.39,0,0,1,1.66-.74,3.27,3.27,0,0,1,4,2.32h0a12.53,12.53,0,0,1,.67,4.09,41.44,41.44,0,0,1-.43,6.45,51.65,51.65,0,0,1-1.08,6,34.68,34.68,0,0,1-1.5,4.58c-.9,2.32-3.15,4.57-4.76,3.59-1.9-1.15.38-4.23.38-4.23a6.4,6.4,0,0,0-4.24,5.24,4.64,4.64,0,0,0,3.61,4.69C281.76,91.29,287,87.5,289.8,83.71Z"/><path class="cls-2" d="M338.1,95.11a6.13,6.13,0,0,0-2.73-2.19,14.73,14.73,0,0,0-4.71-1.09,31.6,31.6,0,0,0-6.74.3,35.21,35.21,0,0,0-6.16,1.46,42.64,42.64,0,0,0-6.42,2.71,44.36,44.36,0,0,0-6.23,3.89,37.35,37.35,0,0,0-5.56,5.1,32.32,32.32,0,0,0-4.37,6.3,26.59,26.59,0,0,0-2.65,7.56,21,21,0,0,0,.12,10,15.85,15.85,0,0,0,2,4.34h0a11,11,0,0,0,5.8,5.15c.32.13.64.25,1,.36,3.75,1.26,8.7,1.31,14.73-.11a22,22,0,0,0,11-6.45c3.93-4.22,5.59-9.38,4.08-12.79-2.3-5.18-10.35-4.15-11.53.22-.92,3.44,2.69,4.82,4.77,3.3a3.5,3.5,0,0,0,.65-4.91l-.07-.09s2-.07,2.43,2.64c.67,4.55-5.13,11-12,8.62a7.2,7.2,0,0,1-3.84-3.1,13.64,13.64,0,0,1-1.85-7.72v-.16l23.08-13.14a17.89,17.89,0,0,0,4.23-3.36,6.4,6.4,0,0,0,1.78-3.82A4.73,4.73,0,0,0,338.1,95.11ZM325,103.38a8.37,8.37,0,0,1-.32,1.68,4.67,4.67,0,0,1-.55,1.19,3.56,3.56,0,0,1-.82.87,9.84,9.84,0,0,1-1.26.83l-12.25,6.81c.13-.83.3-1.86.52-3.06a37.21,37.21,0,0,1,.88-3.75,36.06,36.06,0,0,1,1.34-3.86,17.12,17.12,0,0,1,1.85-3.45A11.26,11.26,0,0,1,316.89,98a7.21,7.21,0,0,1,3.35-1.32,3.57,3.57,0,0,1,2.45.4,4.42,4.42,0,0,1,1.54,1.64,6.51,6.51,0,0,1,.71,2.3,10.73,10.73,0,0,1,0,2.33Z"/><path class="cls-2" d="M268.57,110.09v-.2c0-.71,0-1.38-.11-2a15.55,15.55,0,0,0-2.24-7.18,13.9,13.9,0,0,0-6.31-5.22c-.26-.11-.49-.24-.76-.35a23,23,0,0,0-5.7-1.34,33.54,33.54,0,0,0-10.19.33,24.13,24.13,0,0,0-11.34,4.65c-2.07,1.66-3.29,4.16-2.56,6.31s2.74,3.22,5.51,3.37c4.22.24,6.09-1.85,6.56-2.43a2.9,2.9,0,0,0,.59-1.12,3.31,3.31,0,0,0-3.68-4.81c-3.47.85-3.3,3.81-2.61,4.53-.06-.07-2.5-1.74-1.3-3.87A6.63,6.63,0,0,1,238.1,98a13.27,13.27,0,0,1,9.58-.19,8.61,8.61,0,0,1,3.94,3,11.62,11.62,0,0,1,2.15,4.67,19.72,19.72,0,0,1,.38,6,11.94,11.94,0,0,0-1.09-.57,8.27,8.27,0,0,0-1.48-.55,14.28,14.28,0,0,0-2.08-.4,18.88,18.88,0,0,0-2.83-.13A31,31,0,0,0,231,114.34a27.1,27.1,0,0,0-6.17,5.18,22,22,0,0,0-4.17,7,14.79,14.79,0,0,0-1.09,7.78,9.8,9.8,0,0,0,2.76,5.32,13.55,13.55,0,0,0,5.42,3.15,27,27,0,0,0,6.91,1.22,34,34,0,0,0,10-1,29.05,29.05,0,0,0,8.93-4,30.54,30.54,0,0,0,7.32-6.93,35.61,35.61,0,0,0,5.18-9.75A38.51,38.51,0,0,0,268.57,110.09Zm-16.93,8.67c-.22,1.07-.48,2.07-.75,3s-.56,1.79-.82,2.52-.45,1.22-.53,1.46c-3.64,10-8,15-13.08,14.79a3.52,3.52,0,0,1-2.7-1.13,5,5,0,0,1-1-2.9,16.16,16.16,0,0,1,.4-4.37,39.93,39.93,0,0,1,1.64-5.53c1.67-4.56,3.47-7.91,5.4-10.08a8.65,8.65,0,0,1,6.55-3.29,5.74,5.74,0,0,1,3.31.75,9.14,9.14,0,0,1,1.92,1.79A12.7,12.7,0,0,1,251.64,118.76Z"/><path class="cls-2" d="M170.29,130.06a2.12,2.12,0,0,0-.26-1.7,3.58,3.58,0,0,0-2-1.32,15.3,15.3,0,0,0-4.79-.5,28.65,28.65,0,0,0-4.07.34c-1.33.2-2.6.46-3.79.76s-2.34.66-3.42,1.05-1.32.46-2.22.85l.29,1a7.14,7.14,0,0,1,2.64-.59c1,0,1.69.2,1.95.64a1.66,1.66,0,0,1,0,1.54l-11.29,21.26a66.37,66.37,0,0,0,19.34-5.69l7.07-16A9.55,9.55,0,0,0,170.29,130.06Z"/><path class="cls-2" d="M288.74,107.51a16.49,16.49,0,0,0-5.06,0,31.59,31.59,0,0,0-4.17.74c-1.34.33-2.6.7-3.8,1.11a34.67,34.67,0,0,0-3.34,1.33c-1,.47-1.27.54-2.12,1l.38.82a10.83,10.83,0,0,1,2.42-.73c1-.1,1.65,0,1.91.46a1.61,1.61,0,0,1,0,1.49l-9.4,23.58a129.1,129.1,0,0,1,18.9-2.15h0L290.69,112a10,10,0,0,0,.57-1.66,1.93,1.93,0,0,0-.31-1.7A3.62,3.62,0,0,0,288.74,107.51Z"/><path class="cls-2" d="M152.68,119.28a29.09,29.09,0,0,0,1.71-10.57,13,13,0,0,0-2.15-6.85,9.37,9.37,0,0,0-4.88-3.54,15.79,15.79,0,0,0-6.48-.62,27.77,27.77,0,0,0-5.32,1,29.6,29.6,0,0,0-4.15,1.59,28.08,28.08,0,0,0-3.06,1.73c-.84.57-1.54,1-2.08,1.41l8.61-25.52a10.62,10.62,0,0,0,.47-2.41,3.84,3.84,0,0,0-.53-2.32,4.05,4.05,0,0,0-2.27-1.62,10.9,10.9,0,0,0-4.78-.28,56.91,56.91,0,0,0-17.28,5.28,34.54,34.54,0,0,0-9.5,7.07,23,23,0,0,0-5.37,9.12c-1.13,3.43-.66,5.51.87,7.35,2.27,2.73,7.3,2.88,10.63-.7,4-4.3.53-11.54-4.35-10-2.35.76-3.12,2.71-2.5,4.39,1.53,3.12,4.5.82,4.5.82s-1.39,3.58-4.81,1.85c-3-1.54-.87-7.67,2.7-11.48,9.11-9.72,14.61-8,14.61-8h0a1.29,1.29,0,0,1,1,.67,3,3,0,0,1,0,2.19L103,125.63a30.64,30.64,0,0,0-1.62,8.59,11.59,11.59,0,0,0,1.67,6.83,10.64,10.64,0,0,0,5.85,4.22q4,1.37,10.84.69a37.55,37.55,0,0,0,11.6-3,39,39,0,0,0,21.36-23.68Zm-15.33-4.81a60.16,60.16,0,0,1-1.9,7.35q-3.14,9.7-6.52,14.49c-2.25,3.18-4.74,4.92-7.46,5.19s-4-1.05-4.38-3.91.56-7.6,2.7-14.19l4.39-13.51a6.62,6.62,0,0,1,.78-1.28,12.25,12.25,0,0,1,1.8-2,14.7,14.7,0,0,1,2.63-1.9,8.19,8.19,0,0,1,3.34-1.05,4,4,0,0,1,3.57,1.09,6.66,6.66,0,0,1,1.43,3.83A21.43,21.43,0,0,1,137.35,114.47Z"/><path class="cls-2" d="M233.39,152.74a9,9,0,0,1-1.87.54,5.71,5.71,0,0,1-3.77-.66,10.24,10.24,0,0,1-3.06-2.82c-.51-.68-1.74-2.71-2.85-4.64-.88-1.51-1.69-3-2-3.68q-1.15-2.41-2.22-5c-.7-1.73-1.4-3.42-2.11-5.09a37.58,37.58,0,0,0-2.22-4.49,15,15,0,0,0-2.52-3.29,4.83,4.83,0,0,0-3.09-1.39A55.07,55.07,0,0,0,213.1,120a25.68,25.68,0,0,0,4.69-2.78,18.51,18.51,0,0,0,3.65-3.64,16.47,16.47,0,0,0,2.49-4.77.29.29,0,0,1,0-.1,7.27,7.27,0,0,0,.37-3.54c-.33-1.79-1.6-3.16-3.81-4.08a22.38,22.38,0,0,0-7.65-1.32h-4.11c-1.73.08-3.62.24-5.64.47q-5.31.62-10.37,1.41c-3,.48-5.86,1-8.61,1.65l-.87.15a77.1,77.1,0,0,0-8.35,2.1,41.36,41.36,0,0,0-7.07,2.9,23.88,23.88,0,0,0-5.45,3.85,14.71,14.71,0,0,0-3.43,4.91,5.4,5.4,0,0,0-.51,2.7c.22,1.69,2.3,4.08,7,3.59,6.49-.69,9-5.44,8.26-8-.79-3-7-2.39-7.54,1.45a3.51,3.51,0,0,0,1.13,2.67c-4.8-2.23-2.85-5.42-.23-7.67a31.26,31.26,0,0,1,10.11-5,23.77,23.77,0,0,1,5.14-.88c1.71-.13,2.61.15,2.74.8,0,0-5.6,11.34-8.06,18.19S167.8,144,167.8,144s1.15-.49,3.73-1.54A37.6,37.6,0,0,1,187.62,140L200,106a4.11,4.11,0,0,1,.56-1,4.78,4.78,0,0,1,1.09-1,7.56,7.56,0,0,1,1.73-.91,9.88,9.88,0,0,1,2.47-.57,5.92,5.92,0,0,1,3.06.31,3.75,3.75,0,0,1,1.84,1.6,5.48,5.48,0,0,1,.63,2.66,10.36,10.36,0,0,1-.65,3.42,27.09,27.09,0,0,1-2.33,5,19.16,19.16,0,0,1-3.24,4.08,13.78,13.78,0,0,1-4.06,2.72,10.66,10.66,0,0,1-4.8.83l-.85,1.37a58.6,58.6,0,0,1,2.77,5.72q1.3,3.07,2.56,6.34c.74,1.92,1.48,3.85,2.24,5.79l.29.75c1.87,5.44,4.14,8.34,5.15,10.31a8.67,8.67,0,0,0,4.5,4.12,14.09,14.09,0,0,0,7.49.56,45.38,45.38,0,0,0,5-1.05q2.31-.63,4.2-1.29c1.27-.46,2.39-.9,3.35-1.33s1.79-.82,2.45-1.15l-.52-1.14A13.33,13.33,0,0,1,233.39,152.74Z"/><path class="cls-1" d="M6.1,64.18c4.64-12,15.22-14.68,24.09-12.09-5.21.58-12.88,3.68-14,17.72,0,0,5.88-20.22,22.73-13.5C48.1,62,49.1,67.85,49.1,67.85c-4.16,14.69,20.07,26.68,26.44,43.32,6.13,16.05-1.1,29.73-.84,41.76s11.08,10.53,11.08,10.53-13.35,6.43-21.32-5.65c-3.23-4.88-5.88-11,1-15.52,3-2,5.33-4,4.67-6.89-12.89.67-12.44-10.66-12.44-10.66S54.35,131.4,59,135.4c1.51,1.29-16.55.55-26.66-14C27.24,114.29-2.31,85.75,6.1,64.18Z"/><path class="cls-3" d="M65,43.74c-.12.48-.18,1.75.74,1.75a1.48,1.48,0,0,0,1.56-1.84A1.71,1.71,0,0,0,65.5,42l-.26,0a3.41,3.41,0,0,0-1.68,1.07c2-5,8.63-1.49,8.51,3.54a5.24,5.24,0,0,0,2.75,4.85C67.46,52.45,62.1,46.32,65,43.74Z"/><path class="cls-3" d="M84,56c-5.34-.37-14-1.83-14-1.83,3.35,1.67,4.52,8,16.48,13.67,11.22,5.37,18.06,8.53,18.95,7.86,2.49-1.84-1.22-5.24-5.72-10S87.3,53.84,87.3,53.84,88.19,56.26,84,56Zm4,4.86c-.08-.56,1.8-.74,3.08.07,1.44.9,1.93,2.63,1.59,3.19a8.85,8.85,0,0,1-2.83-1.33c-1.23-.89-1.82-1.63-1.86-2Z"/><path class="cls-3" d="M14.3,135.24a31.19,31.19,0,0,1,1-4A39.42,39.42,0,0,1,23.47,116l1.88,1.49s-3.47,6.21-4.09,11.11c-.64,5.09-.1,7.66,2.31,9.11,1.32.79,3.93.33,5.12-.15l.62,2A34.9,34.9,0,0,1,25.63,144a24.66,24.66,0,0,1-3.38,2.82c-2,1.35-3.66,1.65-5.08.91s-2.39-2.33-3-4.78a13.82,13.82,0,0,1-.34-3.7A27.78,27.78,0,0,1,14.3,135.24Z"/><path class="cls-3" d="M44.84,151.77a34.31,34.31,0,0,1,3.35-3.37c1.23-1.09,2.53-2.13,3.93-3.17s2.78-1.94,4.15-2.81c.85-.55,6.39-4.3,9.53-5.39l1.69,1.45c-.2.25-9.12,5-12.44,13.41-.83,2.1-.48,6.7,4,7.49l-1,2c-1.75.53-3.26.93-4.58,1.22-.58.12-1.13.24-1.63.31a30.62,30.62,0,0,1-4.87.36c-2.59,0-4.3-.76-5.06-2.17a3.8,3.8,0,0,1-.42-1.41,8.35,8.35,0,0,1,1-4.45A16.69,16.69,0,0,1,44.84,151.77Z"/><path class="cls-1" d="M42,44c-5.69-3.61-3.3-9.69,2.59-9.69,7.44,0,18.93,15,18.93,15A22.18,22.18,0,0,0,59,46.84C49.23,43,44.81,45.75,42,44Z"/></g></g></svg>