<svg xmlns="http://www.w3.org/2000/svg" viewBox="0 0 174.11 189.77"><defs><style>.cls-1{fill:#f55e00;}.cls-2{fill:#00859f;}.cls-3{fill:#7a626b;}</style></defs><title>logo-vert</title><g id="Слой_2" data-name="Слой 2"><g id="Слой_1-2" data-name="Слой 1"><path class="cls-1" d="M59.36,119.73a10.38,10.38,0,0,0-1.29-4.12,3.85,3.85,0,0,0-2.42-1.79,7.47,7.47,0,0,0-3.44.17,8.76,8.76,0,0,0-1.78.67,13.55,13.55,0,0,0-1.67,1,16.33,16.33,0,0,0-1.52,1.23,15.87,15.87,0,0,0-1.3,1.29,24.39,24.39,0,0,0-2.64,3.29l1.09-15.24a9.19,9.19,0,0,0,0-1.39,2.32,2.32,0,0,0-.49-1.36,2.39,2.39,0,0,0-1.45-.82,6.71,6.71,0,0,0-2.9.26,13.39,13.39,0,0,0-2.35.84,24,24,0,0,0-2.13,1.18,17.37,17.37,0,0,0-1.85,1.37c-.57.48-1.09,1-1.56,1.43l.53.53a5.35,5.35,0,0,1,.88-.66,2.76,2.76,0,0,1,.87-.38c.62-.15,1.05-.07,1.28.27a2,2,0,0,1,.28,1.32s-.65,9.15-1.95,18.12a93.48,93.48,0,0,1-4.24,16.85c2.6-.44,9.15-.57,11.66,1.06H41c1.17-2.5,1.52-8.38,1.54-8.63l.62-12.17a11,11,0,0,0,.64-1,14,14,0,0,1,.89-1.33,9.51,9.51,0,0,1,1.19-1.28,3.51,3.51,0,0,1,1.52-.81,2.62,2.62,0,0,1,1.36,0,1.9,1.9,0,0,1,1.11,1.16,9.22,9.22,0,0,1,.64,3,36.42,36.42,0,0,1-.06,5.57,84.45,84.45,0,0,1-1,8.49A27.8,27.8,0,0,1,48,143.3a9.62,9.62,0,0,1-1.91,3.21,8.85,8.85,0,0,1-2.42,1.74l.21,1.07a18,18,0,0,0,2.53-1,17.75,17.75,0,0,0,3.1-1.82,22.83,22.83,0,0,0,3.27-2.89,21.14,21.14,0,0,0,3-4.14,27.43,27.43,0,0,0,2.34-5.61,32.86,32.86,0,0,0,1.27-7.27A35.64,35.64,0,0,0,59.36,119.73Z"/><path class="cls-1" d="M83.47,127.26A4.05,4.05,0,0,0,81.73,125a8.48,8.48,0,0,0-2.95-1.37,17.89,17.89,0,0,0-3.8-.58,21.26,21.26,0,0,0-3.54.14A15.18,15.18,0,0,0,68,124a9.62,9.62,0,0,0-2.8,1.55A5.07,5.07,0,0,0,63.54,128a2.94,2.94,0,0,0,.17,2.48c.56,1,2.15,1.41,3.85.95,2.71-.73,4.22-3.68,2.09-4.7a2,2,0,0,0-2.17.52,1.75,1.75,0,0,0,.1,2.47l.17.14s-1.72-.63-1.43-2c.35-1.58,2.33-2.6,4-2.92,2.55-.49,4.5.33,5.08,1a3,3,0,0,1,.39,2.82,5.17,5.17,0,0,1-1.33,2.2,6.13,6.13,0,0,1-2.78,1.58c-1.59.46-3.16.89-4.69,1.31a26.09,26.09,0,0,0-4.31,1.57,13.79,13.79,0,0,0-3.55,2.43,9.5,9.5,0,0,0-2.39,3.91,8.35,8.35,0,0,0-.52,3.48,4.37,4.37,0,0,0,.95,2.39,4.57,4.57,0,0,0,2,1.38c.17.06.35.09.53.14a72.47,72.47,0,0,1,9.45-2.56,3.19,3.19,0,0,0,2.26-3.44,3.52,3.52,0,0,0-.81-1.54,7.48,7.48,0,0,0-1.53-1.26,3.42,3.42,0,0,1,.4,3.11,2.82,2.82,0,0,1-.54.88,2.14,2.14,0,0,1-2.46.56c-.93-.43-1.12-1.76-1.06-2.83a9.69,9.69,0,0,1,2.89-5.92,7.67,7.67,0,0,1,2.32-1.62,5.22,5.22,0,0,1,2-.33,1.61,1.61,0,0,1,1,.36.93.93,0,0,1,.18,1v.07c-.13,1-1,7.55-2,10.34a52.54,52.54,0,0,1,8.62-.73,55.48,55.48,0,0,1,1.65-11.59C82.76,131.14,83.77,128.73,83.47,127.26Z"/><path class="cls-1" d="M167.71,105.26a1.21,1.21,0,0,0-.51-.76,13.94,13.94,0,0,0-3.77.85,1.12,1.12,0,0,0-.4.72,2.21,2.21,0,0,0,.1.89c.09.33.62,9.11-1,14.15-1.18,3.64-4.42,10.28-6.44,12.77.35-3,1.54-9.5,0-17.07a41.36,41.36,0,0,0-3.29-9,5.08,5.08,0,0,0-2.48-2.43,4.42,4.42,0,0,0-3-.07c-1.51.36-4.76,2.4-5.4,2.74a12.19,12.19,0,0,0-1.7,1.1c-.5.39-1,.76-1.42,1.13l.52.63a3.76,3.76,0,0,1,4.4.95c4.76,5.8,7.72,20.68,5.35,28.5a17.93,17.93,0,0,1-2.4,2.25h0a30.82,30.82,0,0,1-6.31,4,5.48,5.48,0,0,1-2.92.61c-1.48-.25-1.8-1-1.56-1.88a3.81,3.81,0,0,1,1.11-1.45s-.58,1.86.82,2.31c1.6.51,3.15-.71,2.85-2-.16-1-1-2-3.56-2.09-7-.15-9.11,7.06-5.15,8.33,2.16.69,6-.2,6.68-.42a17.84,17.84,0,0,0,3.2-1.24c.69-.32,1.38-.67,2.07-1.07a39.45,39.45,0,0,0,7-5.27,51.45,51.45,0,0,0,6.26-7.09A56,56,0,0,0,162,127a57.9,57.9,0,0,0,3.67-9.17,48.77,48.77,0,0,0,1.93-9.57c.06-.63.11-1.2.14-1.71A4.14,4.14,0,0,0,167.71,105.26Z"/><path class="cls-1" d="M117.28,115.18a10.28,10.28,0,0,0-1.21-4.57,5.93,5.93,0,0,0-2.8-2.54,8.38,8.38,0,0,0-4.2-.46,10.83,10.83,0,0,0-2.35.5,13.62,13.62,0,0,0-2.26,1,15.3,15.3,0,0,0-2.07,1.35l-.23.2h0a13.82,13.82,0,0,0-1.44,1.42,2.48,2.48,0,0,0-.18-1A2.44,2.44,0,0,0,99.8,110a3.72,3.72,0,0,0-1.43-.75,5.3,5.3,0,0,0-2.26-.08,13.29,13.29,0,0,0-2.49.6,19.71,19.71,0,0,0-2.29,1A20.18,20.18,0,0,0,89.25,112c-.65.45-1,.71-1.58,1.15l.59.56a3,3,0,0,1,.57-.35,2.5,2.5,0,0,1,.92-.31c.65-.09,1.07.06,1.25.44a2,2,0,0,1,0,1.18s-4.61,13.54-5.94,18.59A55.34,55.34,0,0,0,83,145.12c6,1,9.9,3.09,10.94,4.64,2.42-27.2,6.2-34.47,6.2-34.47v.05a6.75,6.75,0,0,1,.35-.62.79.79,0,0,0,.08-.11h0v-.06a7.17,7.17,0,0,1,1-1.14,7.81,7.81,0,0,1,1.39-1.05,3.85,3.85,0,0,1,1.41-.51,3.13,3.13,0,0,1,2,.39,3.2,3.2,0,0,1,1.2,1.79,10.55,10.55,0,0,1,.3,3.42,36.28,36.28,0,0,1-.75,5.32,45.66,45.66,0,0,1-1.27,4.85,21.45,21.45,0,0,1-1.69,4c-1.44,2.52-3.52,3.73-5.11,2.7-1.14-.73-.13-3.07-.13-3.07a4.38,4.38,0,0,0-2,3.55c.09,2.59,2.84,4,4.82,3.94a11.42,11.42,0,0,0,5-1.23,14.25,14.25,0,0,0,4-3.15,22.26,22.26,0,0,0,3.45-5.2,30.71,30.71,0,0,0,2.43-7.43A24.76,24.76,0,0,0,117.28,115.18Z"/><path class="cls-1" d="M139.14,136.61a21.34,21.34,0,0,0,2.63-4.69,26.41,26.41,0,0,0,1.61-6.54,20.88,20.88,0,0,0,.08-5.61,9,9,0,0,0-1.31-3.81,5.1,5.1,0,0,0-2.58-2,7.32,7.32,0,0,0-3.65-.18,10.35,10.35,0,0,0-2,.58,11.55,11.55,0,0,0-1.87,1,12.38,12.38,0,0,0-1.69,1.29,11.88,11.88,0,0,0-1.4,1.54,2.53,2.53,0,0,0-.21-.88,2.43,2.43,0,0,0-.71-.91,3.55,3.55,0,0,0-1.28-.61,4.58,4.58,0,0,0-2,0,11,11,0,0,0-2.1.6,15.52,15.52,0,0,0-1.92.93,16.78,16.78,0,0,0-1.71,1.12c-.53.41-1,.81-1.46,1.21l.47.54a6,6,0,0,1,.73-.56,2.28,2.28,0,0,1,.77-.29c.55-.1.92,0,1.11.35a2,2,0,0,1,.19,1.24l-4.5,21a13.54,13.54,0,0,1,8.52,6.92c.59-20.15,3.68-27.26,3.68-27.26a3.34,3.34,0,0,1,.43-1.18,6,6,0,0,1,.88-1.2,5.85,5.85,0,0,1,1.13-1,2.79,2.79,0,0,1,1.18-.53,2.62,2.62,0,0,1,1.71.2,2.65,2.65,0,0,1,1.14,1.46,9,9,0,0,1,.48,2.92,29.34,29.34,0,0,1-.3,4.61,37.37,37.37,0,0,1-.78,4.25,25.11,25.11,0,0,1-1.07,3.27c-.64,1.66-2.25,3.26-3.4,2.57-1.36-.82.27-3,.27-3a4.57,4.57,0,0,0-3,3.74,3.32,3.32,0,0,0,2.58,3.35C133.39,142,137.07,139.31,139.14,136.61Z"/><path class="cls-2" d="M173.63,144.74a4.34,4.34,0,0,0-2-1.56,10.46,10.46,0,0,0-3.37-.78,22.16,22.16,0,0,0-4.81.21,25.52,25.52,0,0,0-4.4,1,30.15,30.15,0,0,0-4.59,1.94,32.47,32.47,0,0,0-4.45,2.78,26.35,26.35,0,0,0-4,3.64,22.85,22.85,0,0,0-3.12,4.5,19.45,19.45,0,0,0-1.9,5.4,15,15,0,0,0,.09,7.14,11.74,11.74,0,0,0,1.43,3.1h0a7.91,7.91,0,0,0,4.15,3.69c.23.09.45.18.69.25,2.68.9,6.22.94,10.52-.08a15.66,15.66,0,0,0,7.84-4.61c2.81-3,4-6.7,2.91-9.13-1.64-3.7-7.39-3-8.23.16a2.16,2.16,0,0,0,3.41,2.35,2.5,2.5,0,0,0,.48-3.5l-.07-.09s1.45-.05,1.74,1.88c.47,3.25-3.67,7.89-8.61,6.16a5.05,5.05,0,0,1-2.74-2.21,9.68,9.68,0,0,1-1.32-5.52v-.11L169.82,152a12.68,12.68,0,0,0,3-2.4,4.58,4.58,0,0,0,1.27-2.73A3.32,3.32,0,0,0,173.63,144.74Zm-9.38,5.87a6.5,6.5,0,0,1-.24,1.2,3.18,3.18,0,0,1-.39.85,2.61,2.61,0,0,1-.58.62,7.41,7.41,0,0,1-.9.59l-8.76,4.87c.09-.6.22-1.33.38-2.19a24.94,24.94,0,0,1,.62-2.68,27.41,27.41,0,0,1,1-2.76,12.49,12.49,0,0,1,1.32-2.46,8,8,0,0,1,1.82-1.86,5.24,5.24,0,0,1,2.39-.95,2.59,2.59,0,0,1,1.75.29,3.09,3.09,0,0,1,1.1,1.17,4.56,4.56,0,0,1,.51,1.64A8.54,8.54,0,0,1,164.25,150.61Z"/><path class="cls-2" d="M124,155.44v-.14a14,14,0,0,0-.08-1.47,11,11,0,0,0-1.6-5.13,9.9,9.9,0,0,0-4.51-3.72c-.18-.08-.35-.18-.54-.25a16,16,0,0,0-4.07-1,27.23,27.23,0,0,0-4.21-.14,28.78,28.78,0,0,0-3.07.37,17.32,17.32,0,0,0-8.1,3.32c-1.48,1.19-2.35,3-1.83,4.51s2,2.3,3.93,2.41a5.32,5.32,0,0,0,4.7-1.74,2.14,2.14,0,0,0,.42-.8,2.36,2.36,0,0,0-2.63-3.43c-2.49.6-2.36,2.72-1.87,3.23,0,0-1.79-1.24-.93-2.76a4.7,4.7,0,0,1,2.62-1.93,9.4,9.4,0,0,1,6.84-.14,6.17,6.17,0,0,1,2.82,2.11,8.5,8.5,0,0,1,1.54,3.34,14.46,14.46,0,0,1,.27,4.27,8.26,8.26,0,0,0-.78-.42,6.65,6.65,0,0,0-1.06-.39,10.78,10.78,0,0,0-1.49-.28,13.69,13.69,0,0,0-2-.1,22.37,22.37,0,0,0-5.83.88,21.82,21.82,0,0,0-5.36,2.35,19,19,0,0,0-4.4,3.7,15.69,15.69,0,0,0-3,5,10.44,10.44,0,0,0-.78,5.55,6.94,6.94,0,0,0,2,3.8,9.5,9.5,0,0,0,3.87,2.25,19.32,19.32,0,0,0,4.94.88,24.42,24.42,0,0,0,7.15-.7,20.81,20.81,0,0,0,6.38-2.84,22,22,0,0,0,5.23-4.95,25.33,25.33,0,0,0,3.7-7A28,28,0,0,0,124,155.44Zm-12.1,6.17c-.16.77-.34,1.48-.54,2.17s-.4,1.28-.58,1.8-.32.87-.38,1c-2.6,7.17-5.73,10.72-9.35,10.57a2.49,2.49,0,0,1-1.92-.81,3.45,3.45,0,0,1-.74-2.07,11.25,11.25,0,0,1,.28-3.12,27.8,27.8,0,0,1,1.17-3.95,22.88,22.88,0,0,1,3.86-7.21,6.22,6.22,0,0,1,4.68-2.35,4.06,4.06,0,0,1,2.36.54,6.52,6.52,0,0,1,1.38,1.28A9.47,9.47,0,0,1,111.87,161.61Z"/><path class="cls-2" d="M53.76,169.7a1.52,1.52,0,0,0-.19-1.21,2.64,2.64,0,0,0-1.45-.94,10.64,10.64,0,0,0-3.41-.35,20.06,20.06,0,0,0-2.92.24,26.31,26.31,0,0,0-2.7.54c-.86.22-1.67.47-2.45.75s-.94.33-1.58.61l.21.68a5.16,5.16,0,0,1,1.88-.42c.74,0,1.21.14,1.39.46a1.17,1.17,0,0,1,0,1.1l-8.07,15.19a47.54,47.54,0,0,0,13.82-4.07l5.05-11.45A8.18,8.18,0,0,0,53.76,169.7Z"/><path class="cls-2" d="M138.37,153.61a11.86,11.86,0,0,0-3.61,0,23.76,23.76,0,0,0-3,.53,27.08,27.08,0,0,0-2.71.8c-.84.28-1.63.6-2.39.94a15.53,15.53,0,0,0-1.51.72l.26.58a8.1,8.1,0,0,1,1.73-.51c.73-.08,1.18,0,1.37.32a1.17,1.17,0,0,1,0,1.07l-6.72,16.84a91.89,91.89,0,0,1,13.5-1.53h0l4.41-16.57a7.16,7.16,0,0,0,.41-1.19,1.4,1.4,0,0,0-.23-1.21A2.51,2.51,0,0,0,138.37,153.61Z"/><path class="cls-2" d="M41.17,162a20.85,20.85,0,0,0,1.23-7.56,9.38,9.38,0,0,0-1.54-4.89A6.77,6.77,0,0,0,37.38,147a11.32,11.32,0,0,0-4.64-.44,19.13,19.13,0,0,0-3.8.73,21.63,21.63,0,0,0-3,1.13,22.83,22.83,0,0,0-2.19,1.24l-1.48,1,6.15-18.23a7.62,7.62,0,0,0,.33-1.71,2.69,2.69,0,0,0-.37-1.66,2.94,2.94,0,0,0-1.63-1.16,7.87,7.87,0,0,0-3.41-.2,40.45,40.45,0,0,0-12.27,3.77,24.65,24.65,0,0,0-6.78,5.05,16.42,16.42,0,0,0-3.84,6.52c-.81,2.44-.47,3.93.63,5.25,1.62,1.95,5.21,2,7.59-.5,2.88-3.07.37-8.25-3.11-7.12a2.39,2.39,0,0,0-1.79,3.13c1.1,2.23,3.21.59,3.21.59a2.38,2.38,0,0,1-3.43,1.32c-2.15-1.1-.62-5.48,1.93-8.2,6.51-6.94,10.44-5.74,10.44-5.74h0a1,1,0,0,1,.73.48,2.07,2.07,0,0,1,0,1.57l-11,32.76a22.21,22.21,0,0,0-1.17,6.14,8.35,8.35,0,0,0,1.2,4.88,7.65,7.65,0,0,0,4.18,3,18.66,18.66,0,0,0,7.74.49A26.71,26.71,0,0,0,25.9,179a27.72,27.72,0,0,0,12-10.14A27.57,27.57,0,0,0,41.17,162Zm-11-3.4a41.26,41.26,0,0,1-1.36,5.25,39.61,39.61,0,0,1-4.65,10.35q-2.41,3.42-5.33,3.71c-1.84.19-2.88-.75-3.13-2.79s.4-5.43,1.93-10.14l3.13-9.65a5.53,5.53,0,0,1,.56-.92A9.41,9.41,0,0,1,22.65,153a10.18,10.18,0,0,1,1.88-1.35,5.89,5.89,0,0,1,2.39-.76,2.84,2.84,0,0,1,2.55.78,4.72,4.72,0,0,1,1,2.74A15.07,15.07,0,0,1,30.22,158.61Z"/><path class="cls-2" d="M98.83,185.91a6.55,6.55,0,0,1-1.33.38,4,4,0,0,1-2.69-.47,7,7,0,0,1-2.19-2,38.07,38.07,0,0,1-2-3.31c-.62-1.09-1.2-2.13-1.45-2.63-.55-1.16-1.08-2.35-1.58-3.58s-1-2.44-1.51-3.63a26.67,26.67,0,0,0-1.59-3.21,11.13,11.13,0,0,0-1.79-2.35,3.54,3.54,0,0,0-2.22-1,39.23,39.23,0,0,0,3.93-1.56,18.51,18.51,0,0,0,3.34-2,13.45,13.45,0,0,0,2.62-2.6,11.84,11.84,0,0,0,1.77-3.41v-.08a5,5,0,0,0,.27-2.53A4,4,0,0,0,89.69,149a15.94,15.94,0,0,0-5.46-.94H81.29c-1.24.06-2.59.17-4,.33q-3.79.45-7.41,1c-2.14.34-4.19.74-6.15,1.18l-.63.11a58.29,58.29,0,0,0-6,1.49A29.7,29.7,0,0,0,52,154.27,16.79,16.79,0,0,0,48.16,157a10.43,10.43,0,0,0-2.45,3.51,3.79,3.79,0,0,0-.37,1.92c.16,1.22,1.65,2.92,5,2.57,4.63-.49,6.4-3.89,5.9-5.74-.57-2.15-5-1.71-5.39,1a2.49,2.49,0,0,0,.81,1.9c-3.43-1.6-2-3.87-.16-5.48a22.34,22.34,0,0,1,7.22-3.6,16.92,16.92,0,0,1,3.67-.63c1.22-.09,1.87.11,2,.57,0,0-4,8.11-5.76,13S52,179.57,52,179.57s.81-.35,2.66-1.1a26.69,26.69,0,0,1,11.49-1.75L75,152.39a2.73,2.73,0,0,1,.4-.71,3.31,3.31,0,0,1,.78-.75,5.33,5.33,0,0,1,1.24-.65,7.13,7.13,0,0,1,1.76-.41,4.33,4.33,0,0,1,2.19.22,2.64,2.64,0,0,1,1.31,1.15,3.94,3.94,0,0,1,.45,1.89,7.5,7.5,0,0,1-.46,2.45A19.09,19.09,0,0,1,81,159.12,14.14,14.14,0,0,1,78.67,162a10,10,0,0,1-2.9,1.94,7.8,7.8,0,0,1-3.43.6l-.61,1a42.1,42.1,0,0,1,2,4.09q.93,2.19,1.83,4.53c.53,1.37,1.06,2.75,1.6,4.13l.21.54A38.42,38.42,0,0,0,81,186.24a6.29,6.29,0,0,0,3.22,2.94,10.11,10.11,0,0,0,5.35.4,32.58,32.58,0,0,0,3.58-.75q1.65-.45,3-.93c.91-.32,1.71-.64,2.39-.94s1.28-.59,1.76-.82l-.38-.82A8.19,8.19,0,0,1,98.83,185.91Z"/><path class="cls-2" d="M105.2,26.67c-9.37-1.69-6.63-2.51-14.88-4.72a8.76,8.76,0,0,0-8.54,2.51S79.22,23,78,17.26C75.36,5.26,89.07,0,89.07,0c-2,6.86,8.44,9.38,13.09,12.06,19,10.93,15.75,24.2,15.75,24.2C111.53,35.87,111.83,27.87,105.2,26.67Z"/><path class="cls-2" d="M108.07,51.7c3.34,5.75,6.81,22.25,4.34,32.79a35,35,0,0,0-7.34-14.88c-5.84-6.61-11.22-14-12.41-17.84C90.86,45.69,101.75,40.81,108.07,51.7Z"/><path class="cls-2" d="M64.45,36.87a20.42,20.42,0,0,0-7.27,15.54s-3.4-7.48,1.2-16.85c4.14-8.41,16.22-6.76,19.1.2C77.48,35.76,70.07,32.3,64.45,36.87Z"/><path class="cls-2" d="M88.77,41.33c-2-1.39-7.35-5.27-8.68-9.41-1.46-3.31.72-4.81.72-4.81a4.24,4.24,0,0,0,.45,3.47c1.48,2.11,7,3.74,7,3.74h0c3.35.72,7.05,1.41,8.63,1.68,3,.52,4.39,1.44,6.68,3.19a14.82,14.82,0,0,1,3.22,4.17c-11.91-4.15-14.72,1.92-14.72,1.92A11.3,11.3,0,0,0,88.77,41.33Z"/><path class="cls-1" d="M101.79,108.12l.08.11A16.3,16.3,0,0,1,109,105c.77-7.74,4.22-16.41.41-26.39C104.89,66.84,87.76,58.36,90.7,48c0,0-.76-4.15-7.28-8.16-11.92-4.74-16.08,9.55-16.08,9.55.83-9.93,6.26-12.12,9.94-12.53-6.27-1.83-13.75.09-17,8.55-5.91,15.25,15,35.43,18.59,40.46C86,96.12,98.79,96.65,97.72,95.73c-3.3-2.83-.94-7.54-.94-7.54s-.32,8,8.79,7.54c.48,2-1.16,3.47-3.29,4.87-2.76,1.81-3.33,4-2.89,6.18h0A2.67,2.67,0,0,1,101.79,108.12Z"/><path class="cls-3" d="M101.92,30.93c-.08.34-.12,1.23.53,1.23a1.11,1.11,0,0,0,1.11-1.3,1.23,1.23,0,0,0-1.31-1.15l-.18,0a2.39,2.39,0,0,0-1.18.77c1.44-3.52,6.1-1.06,6,2.5a3.71,3.71,0,0,0,1.94,3.43C103.66,37.09,99.89,32.75,101.92,30.93Z"/><path class="cls-3" d="M115.36,39.61c-3.77-.26-9.91-1.29-9.91-1.29,2.37,1.18,3.2,5.62,11.66,9.67,7.93,3.79,12.76,6,13.39,5.55,1.77-1.3-.86-3.71-4-7.07s-8.77-8.38-8.77-8.38S118.32,39.78,115.36,39.61Zm2.81,3.44c0-.39,1.27-.52,2.18,0s1.36,1.86,1.12,2.26a6.27,6.27,0,0,1-2-.95c-.85-.59-1.27-1.12-1.3-1.35Z"/><path class="cls-3" d="M66.07,95.61c.18-.95.4-1.9.68-2.86A27.88,27.88,0,0,1,72.53,82l1.33,1S71.4,87.35,71,90.82s-.07,5.41,1.64,6.43c.93.56,2.78.24,3.62-.1l.44,1.44a25.12,25.12,0,0,1-2.58,3.15,16.82,16.82,0,0,1-2.39,2c-1.38,1-2.59,1.17-3.59.64A4.73,4.73,0,0,1,66,101a10.1,10.1,0,0,1-.25-2.62A21.51,21.51,0,0,1,66.07,95.61Z"/><path class="cls-3" d="M87.68,107.31A23.06,23.06,0,0,1,90,104.92c.87-.77,1.79-1.51,2.78-2.24s2-1.37,2.93-2a43.28,43.28,0,0,1,6.74-3.8l1.2,1c-.14.17-6.45,3.54-8.8,9.48-.59,1.49-.34,4.74,2.82,5.29L97,114.09c-1.24.38-2.31.66-3.24.86-.41.09-.8.17-1.16.22a20.84,20.84,0,0,1-3.43.25c-1.84,0-3-.53-3.59-1.53a2.71,2.71,0,0,1-.29-1,5.93,5.93,0,0,1,.73-3.15A11.31,11.31,0,0,1,87.68,107.31Z"/><path class="cls-1" d="M85.7,31.1c-4-2.55-2.34-6.85,1.82-6.85,5.27,0,13.39,10.6,13.39,10.6a16.29,16.29,0,0,0-3.24-1.75C90.78,30.37,87.65,32.35,85.7,31.1Z"/></g></g></svg>