<?xml version="1.0" encoding="utf-8"?><svg xmlns="http://www.w3.org/2000/svg" xmlns:xlink="http://www.w3.org/1999/xlink"><symbol viewBox="0 0 28.36 20.7" id="arr-right" xmlns="http://www.w3.org/2000/svg"><defs><style>.acls-1{fill:none;stroke:#f46403}</style></defs><g id="aСлой_2" data-name="Слой 2"><path class="acls-1" d="M0 10.35h28m0 0l-9.86-10m9.86 10l-9.86 10" id="aСлой_1-2" data-name="Слой 1"/></g></symbol><symbol viewBox="0 0 18 18" id="basket" xmlns="http://www.w3.org/2000/svg"><path d="M5.4 14.4c-.99 0-1.8.81-1.8 1.8S4.41 18 5.4 18s1.8-.81 1.8-1.8-.81-1.8-1.8-1.8zM0 0v1.8h1.8l3.24 6.84-1.26 2.16c-.09.27-.18.63-.18.9 0 .99.81 1.8 1.8 1.8h10.8v-1.8H5.76c-.09 0-.18-.09-.18-.18v-.09l.81-1.53h6.66c.72 0 1.26-.36 1.53-.9l3.24-5.85c.18-.18.18-.27.18-.45 0-.54-.36-.9-.9-.9H3.78L2.97 0H0zm14.4 14.4c-.99 0-1.8.81-1.8 1.8s.81 1.8 1.8 1.8 1.8-.81 1.8-1.8-.81-1.8-1.8-1.8z"/></symbol><symbol viewBox="0 0 344.96 344.96" id="check" xmlns="http://www.w3.org/2000/svg"><defs><style>.ccls-1{fill:#e75713}</style></defs><g id="cСлой_2" data-name="Слой 2"><path class="ccls-1" d="M321.85 86.24l-40-23.11-23.1-40H212.5L172.48 0l-40 23.11H86.24l-23.11 40-40 23.1v46.21L0 172.48l23.11 40v46.21l40 23.11 23.11 40h46.21l40 23.1 40-23.11h46.21l23.11-40 40-23.11V212.5l23.11-40-23.11-40V86.24zM156.91 243.07a16.79 16.79 0 0 1-23.34 0l-50.45-50.44a16.19 16.19 0 0 1 0-22.89l13.35-13.35a16.19 16.19 0 0 1 22.89 0l25.87 25.87 80.34-80.35a16.19 16.19 0 0 1 22.89 0l13.35 13.35a16.19 16.19 0 0 1 0 22.89z" id="cCapa_1" data-name="Capa 1"/></g></symbol><symbol viewBox="0 0 19 19" id="clock" xmlns="http://www.w3.org/2000/svg"><path fill-opacity="0" d="M0 0h19v19H0z"/><path fill-opacity="0" d="M0 0h19v19H0z"/><path fill-opacity="0" d="M0 0h19v19H0z"/><path d="M9.5 0A9.5 9.5 0 1 0 19 9.5 9.512 9.512 0 0 0 9.5 0zm.408 18.165v-1.671a.408.408 0 1 0-.816 0v1.67A8.68 8.68 0 0 1 .835 9.909h1.671a.408.408 0 0 0 0-.816H.836A8.68 8.68 0 0 1 9.091.835v1.671a.408.408 0 0 0 .816 0V.836a8.68 8.68 0 0 1 8.257 8.256h-1.671a.408.408 0 1 0 0 .816h1.674a8.68 8.68 0 0 1-8.26 8.257z"/><path fill-opacity="0" d="M9.092 4.813h4.824v9.17H9.092z"/><path fill-opacity="0" d="M9.092 4.813h4.824v9.17H9.092z"/><path d="M13.8 13.29L9.908 9.333V5.221a.408.408 0 0 0-.816 0V9.5c0 .106.043.208.119.284l4.006 4.076a.408.408 0 0 0 .583-.57z"/></symbol><symbol viewBox="0 0 20 20" id="cursor" xmlns="http://www.w3.org/2000/svg"><path d="M19.283 16.472l-3.876-3.876L18.172 11a.65.65 0 0 0-.084-1.169L5.758 4.912a.651.651 0 0 0-.846.846l4.917 12.331a.651.651 0 0 0 1.17.085l1.596-2.765 3.876 3.876a.65.65 0 0 0 .92 0l1.892-1.892a.651.651 0 0 0 0-.92zm-2.352 1.431l-4.015-4.015a.651.651 0 0 0-1.024.135l-1.35 2.337-3.859-9.677 9.675 3.86-2.337 1.35a.651.651 0 0 0-.135 1.024l4.015 4.016-.97.97zM2.859 1.938a.652.652 0 0 0-.921.921l1.447 1.447a.65.65 0 0 0 .921 0 .651.651 0 0 0 0-.92L2.86 1.937zM3.35 6.44a.651.651 0 0 0-.652-.65H.65a.651.651 0 1 0 0 1.302h2.047c.36 0 .651-.292.651-.652zm-.265 2.01L1.638 9.899a.651.651 0 1 0 .921.92l1.447-1.446a.651.651 0 1 0-.92-.921zm3.355-5.1c.36 0 .651-.292.651-.652V.651a.651.651 0 0 0-1.302 0v2.047c0 .36.291.651.651.651zm2.47.847a.649.649 0 0 0 .46-.19l1.448-1.448a.651.651 0 1 0-.921-.92L8.45 3.084a.651.651 0 0 0 .46 1.112z"/></symbol><symbol viewBox="0 0 19 20" id="dislike" xmlns="http://www.w3.org/2000/svg"><path d="M18.216 6.872c.378.482.56 1 .537 1.532a2.362 2.362 0 0 1-.502 1.328c.25.625.347 1.61-.49 2.373-.614.56-1.656.811-3.1.742a12.097 12.097 0 0 1-1.899-.244h-.004a15.41 15.41 0 0 1-.606-.123c-.015.247.027.86.483 2.242.54 1.645.51 2.903-.1 3.745-.641.883-1.664.953-1.965.953a.97.97 0 0 1-.745-.34c-.429-.498-.379-1.416-.324-1.84-.51-1.367-1.938-4.718-3.146-5.648-.023-.015-.043-.035-.062-.054a4.146 4.146 0 0 1-.757-1.135 1.593 1.593 0 0 1-.764.193H2.418A1.607 1.607 0 0 1 .812 8.991V2.718c0-.887.722-1.605 1.606-1.605h2.354c.344 0 .664.108.927.293l.907-.108c.139-.02 2.609-.332 5.145-.282.46-.035.891-.054 1.293-.054.69 0 1.293.054 1.795.162 1.18.251 1.987.753 2.397 1.49.312.564.312 1.123.262 1.478.768.695.903 1.463.876 2.004a2.604 2.604 0 0 1-.158.776zM2.418 2.155a.564.564 0 0 0-.564.563v6.276c0 .313.255.564.564.564h2.354a.564.564 0 0 0 .564-.564V2.722a.564.564 0 0 0-.564-.563H2.418v-.004zm14.81 5.168a.519.519 0 0 1-.07-.629c0-.004.159-.274.178-.645.027-.505-.216-.953-.726-1.335a.526.526 0 0 1-.177-.594c0-.004.166-.514-.104-.996-.259-.464-.834-.795-1.707-.98-.698-.151-1.648-.178-2.813-.086h-.054c-2.482-.054-4.991.27-5.018.274h-.004l-.39.047c.023.108.035.224.035.34v6.275c0 .166-.027.329-.073.48.069.258.262.833.718 1.323 1.733 1.374 3.427 6.01 3.5 6.21.031.082.039.17.024.26-.066.431-.043.96.05 1.119.204-.004.756-.062 1.088-.522.394-.544.378-1.517-.046-2.806-.649-1.964-.703-2.999-.19-3.454a.841.841 0 0 1 .842-.15c.236.053.46.1.672.134l.05.012c1.185.258 3.308.417 4.045-.255.625-.571.181-1.328.131-1.409a.516.516 0 0 1 .093-.671c.004-.004.41-.386.428-.9.016-.343-.146-.694-.482-1.042z"/></symbol><symbol viewBox="0 0 12 11" id="heart" xmlns="http://www.w3.org/2000/svg"><path d="M.517 3.223l-.002.017-.002.017c-.004.024-.058.386.09 1.014a4.68 4.68 0 0 0 1.435 2.391l3.725 3.323 3.66-3.321A4.68 4.68 0 0 0 10.86 4.27c.148-.629.094-.99.09-1.013l-.003-.017-.001-.018C10.797 1.586 9.664.5 8.342.5 7.46.5 6.666.969 6.195 1.775l-.427.73-.434-.726A2.584 2.584 0 0 0 3.12.5C1.798.5.666 1.586.517 3.223z"/></symbol><symbol viewBox="0 0 25.01 83.5" id="left-arr" xmlns="http://www.w3.org/2000/svg"><defs><style>.hcls-1{fill:none;stroke:#fff}</style></defs><g id="hСлой_2" data-name="Слой 2"><path class="hcls-1" d="M24.58.25l-24 41.5 24 41.5" id="hСлой_1-2" data-name="Слой 1"/></g></symbol><symbol viewBox="0 0 10.07 17.73" id="left-arr-small" xmlns="http://www.w3.org/2000/svg"><defs><style>.icls-1{fill:none;stroke:#f46403}</style></defs><g id="iСлой_2" data-name="Слой 2"><path class="icls-1" d="M9.73.36l-9 8.5 9 8.5" id="iСлой_1-2" data-name="Слой 1"/></g></symbol><symbol viewBox="0 0 19 20" id="like" xmlns="http://www.w3.org/2000/svg"><path d="M17.52 13.51c.378-.482.559-1 .536-1.532-.023-.586-.286-1.046-.502-1.328.25-.625.347-1.61-.49-2.373-.614-.56-1.656-.811-3.1-.742a12.12 12.12 0 0 0-1.899.244h-.003a15.41 15.41 0 0 0-.606.123c-.016-.247.027-.86.482-2.242.54-1.645.51-2.903-.1-3.744-.641-.884-1.664-.954-1.965-.954a.97.97 0 0 0-.745.34C8.7 1.8 8.75 2.718 8.804 3.143 8.294 4.509 6.866 7.86 5.658 8.79c-.023.015-.042.035-.062.054a4.14 4.14 0 0 0-.756 1.135 1.593 1.593 0 0 0-.765-.193H1.721c-.888 0-1.606.722-1.606 1.606v6.272c0 .887.722 1.605 1.606 1.605h2.354c.344 0 .664-.108.927-.293l.907.108c.139.02 2.61.332 5.145.282.46.035.892.054 1.293.054.691 0 1.293-.054 1.795-.162 1.181-.251 1.988-.753 2.397-1.49a2.363 2.363 0 0 0 .262-1.478c.769-.695.904-1.463.877-2.004a2.608 2.608 0 0 0-.159-.775zm-15.8 4.717a.564.564 0 0 1-.563-.563v-6.276c0-.313.255-.564.564-.564h2.354c.313 0 .564.255.564.564v6.272a.564.564 0 0 1-.564.563H1.721v.004zm14.811-5.168a.519.519 0 0 0-.07.63c0 .003.159.273.178.644.027.505-.216.953-.725 1.335a.526.526 0 0 0-.178.595c0 .003.166.513-.104.995-.259.464-.834.796-1.706.98-.699.151-1.648.178-2.814.086h-.054c-2.482.054-4.99-.27-5.018-.274h-.004l-.39-.047c.024-.108.035-.224.035-.34v-6.275c0-.166-.027-.329-.073-.479.07-.259.262-.834.718-1.324 1.733-1.374 3.427-6.01 3.5-6.21a.489.489 0 0 0 .024-.259c-.066-.432-.043-.961.05-1.12.204.004.756.062 1.088.522.394.544.379 1.517-.046 2.806-.648 1.964-.702 2.999-.189 3.454.255.228.594.24.841.15.236-.053.46-.1.672-.134l.05-.012c1.185-.258 3.308-.417 4.045.255.626.571.182 1.328.132 1.409a.516.516 0 0 0 .092.671c.004.004.41.386.429.9.015.343-.147.694-.483 1.042z"/></symbol><symbol viewBox="0 0 17 17" id="search" xmlns="http://www.w3.org/2000/svg"><path fill-opacity="0" d="M0 0v17h17V0z"/><path fill-opacity="0" d="M0 0v17h17V0z"/><path d="M2.708 7.113c0-.491.404-.89.9-.89.498 0 .901.399.901.89 0 1.086.615 2.056 1.605 2.532a.888.888 0 0 1 .415 1.188.906.906 0 0 1-1.204.41c-1.614-.777-2.617-2.36-2.617-4.13z"/><path d="M15.078 16.674l-3.001-2.961a7.672 7.672 0 0 1-4.42 1.397C3.434 15.11 0 11.721 0 7.555S3.435 0 7.656 0c4.222 0 7.656 3.389 7.656 7.555a7.45 7.45 0 0 1-1.61 4.619l2.968 2.93a1.101 1.101 0 0 1 0 1.57 1.136 1.136 0 0 1-1.592 0zM7.657 1.778c-3.229 0-5.855 2.592-5.855 5.778 0 3.185 2.626 5.777 5.855 5.777a5.867 5.867 0 0 0 3.567-1.207c.327-.249.628-.529.895-.84a5.704 5.704 0 0 0 1.392-3.73c0-3.186-2.626-5.778-5.854-5.778z"/></symbol><symbol viewBox="0 0 18 17" id="star" xmlns="http://www.w3.org/2000/svg"><path d="M8.017.518a1 1 0 0 1 1.65 0l2.445 3.568a1 1 0 0 0 .542.394l4.148 1.223a1 1 0 0 1 .51 1.569L14.675 10.7a1 1 0 0 0-.207.637l.119 4.323a1 1 0 0 1-1.335.97l-4.075-1.45a1 1 0 0 0-.67 0l-4.075 1.45a1 1 0 0 1-1.335-.97l.119-4.323a1 1 0 0 0-.207-.637L.37 7.272a1 1 0 0 1 .51-1.57L5.03 4.48a1 1 0 0 0 .542-.394L8.017.518z"/></symbol><symbol viewBox="0 0 31 31" id="stock" xmlns="http://www.w3.org/2000/svg"><path fill-opacity="0" d="M0 0h31v31H0z"/><path fill-opacity="0" d="M15.948 15.81h1.817v1.808h-1.817z"/><path fill-opacity="0" d="M15.948 15.81h1.817v1.808h-1.817z"/><path d="M17.5 16.076a.906.906 0 0 0-1.284 0 .905.905 0 0 0-.001 1.283.926.926 0 0 0 1.284 0 .908.908 0 0 0 0-1.284z"/><path fill-opacity="0" d="M0 3.22h27.777V31H0z"/><path fill-opacity="0" d="M0 3.22h27.777V31H0z"/><path d="M22.455 12.345c-.508.418-1.108.672-1.743.672a2.74 2.74 0 0 1-1.926-.799 2.708 2.708 0 0 1 0-3.85c1.035-1.036 2.816-1.036 3.851 0 .636.635.854 1.525.708 2.36.382.092.763.164 1.145.164 1.29 0 2.452-.544 3.287-1.398 0-.709-.272-1.399-.799-1.926l-3.542-3.542a2.677 2.677 0 0 0-2.797-.654l-5.83 1.944c-.655.218-1.272.6-1.763 1.09L.804 18.648a2.708 2.708 0 0 0 0 3.851l7.701 7.702a2.74 2.74 0 0 0 1.926.799c.708 0 1.399-.273 1.925-.8L24.6 17.959c.49-.49.872-1.108 1.09-1.762l1.344-4.032a5.976 5.976 0 0 1-2.543.545c-.709 0-1.38-.146-2.035-.364zM9.793 22.498c-.515.514-1.2.798-1.927.798a2.709 2.709 0 0 1-1.927-.798 2.729 2.729 0 0 1 0-3.854 2.728 2.728 0 0 1 3.854 0 2.728 2.728 0 0 1 0 3.854zm3.339 1.541a.909.909 0 0 1-1.028-.77l-1.284-8.991a.909.909 0 0 1 .77-1.028.902.902 0 0 1 1.028.77l1.285 8.991a.909.909 0 0 1-.771 1.028zm5.651-5.394a2.725 2.725 0 0 1-3.852-3.854c1.027-1.028 2.824-1.03 3.852 0a2.724 2.724 0 0 1 0 3.854z"/><path fill-opacity="0" d="M6.959 19.663h1.815v1.808H6.959z"/><path fill-opacity="0" d="M6.959 19.663h1.815v1.808H6.959z"/><path d="M8.508 19.928a.91.91 0 0 0-1.284 0 .91.91 0 0 0 0 1.285.928.928 0 0 0 1.284 0 .91.91 0 0 0 0-1.285z"/><path fill-opacity="0" d="M20.276 0H31v12.164H20.276z"/><path fill-opacity="0" d="M20.276 0H31v12.164H20.276z"/><path d="M24.49 0c-1.58 0-3.07.6-4.214 1.598a4.513 4.513 0 0 1 3.306.31c.29-.055.599-.092.908-.092 2.506 0 4.694 2.029 4.694 4.535 0 1.234-.626 2.314-1.407 3.143 0 .29-.054.58-.145.872l-.6 1.798a6.18 6.18 0 0 0 2.507-1.962v-.018C30.375 9.112 31 7.786 31 6.35 31 2.846 27.995 0 24.49 0z"/><path fill-opacity="0" d="M19.802 9.387h1.815v1.816h-1.815z"/><path fill-opacity="0" d="M19.802 9.387h1.815v1.816h-1.815z"/><path d="M21.352 9.653h-.001a.906.906 0 0 0-1.283 0 .91.91 0 0 0 0 1.285.911.911 0 0 0 1.284 0 .91.91 0 0 0 0-1.285z"/></symbol><symbol viewBox="0 0 16 18" id="user" xmlns="http://www.w3.org/2000/svg"><path fill-opacity="0" d="M0 0h16v18H0z"/><path fill-opacity="0" d="M0 0h16v18H0z"/><path fill-opacity="0" d="M0 0h16v18H0z"/><path d="M8 9c1.205 0 2.233-.44 3.085-1.318.852-.88 1.279-1.94 1.279-3.182s-.427-2.303-1.279-3.182C10.233.44 9.205 0 8 0S5.767.44 4.915 1.318c-.853.88-1.279 1.94-1.279 3.182s.426 2.303 1.279 3.182C5.767 8.56 6.795 9 8 9z"/><path d="M15.96 13.752a12.36 12.36 0 0 0-.16-1.277c-.079-.457-.18-.881-.3-1.272a6.118 6.118 0 0 0-.49-1.143 4.103 4.103 0 0 0-.704-.949 2.955 2.955 0 0 0-.971-.627 3.324 3.324 0 0 0-1.267-.234c-.069 0-.228.084-.478.252-.25.168-.532.356-.846.563-.314.206-.724.394-1.227.562A4.77 4.77 0 0 1 8 9.879a4.768 4.768 0 0 1-1.517-.252c-.504-.168-.913-.356-1.228-.562-.314-.207-.596-.395-.846-.563-.25-.168-.41-.252-.477-.252-.462 0-.885.078-1.267.234a2.955 2.955 0 0 0-.972.627 4.11 4.11 0 0 0-.704.95A6.135 6.135 0 0 0 .5 11.202c-.121.39-.222.815-.301 1.272-.08.457-.133.882-.16 1.277-.026.395-.039.799-.039 1.213 0 .937.277 1.678.83 2.22.553.544 1.288.815 2.204.815h9.932c.916 0 1.651-.271 2.204-.814.554-.543.83-1.284.83-2.22 0-.415-.013-.82-.04-1.214z"/></symbol></svg>