<svg xmlns="http://www.w3.org/2000/svg" width="25" height="22" viewBox="0 0 25 22"><path d="M.92 21.3h22.91c.48 0 .87-.39.87-.88V4.98a.87.87 0 0 0-.87-.87h-6.65V1.49a.86.86 0 0 0-.87-.87H8.45a.86.86 0 0 0-.87.87v2.64H.92A.87.87 0 0 0 .04 5v15.45a.9.9 0 0 0 .88.85zm8.4-18.94h6.12v1.77H9.32zM1.79 5.85h6.45c.06.02.13.02.19.02.07 0 .13 0 .19-.02h7.48c.06.02.12.02.19.02.06 0 .13 0 .19-.02h6.45v5.98h-5.75v-1.04a.86.86 0 0 0-.87-.87.86.86 0 0 0-.87.87v1.04H9.32v-1.04a.86.86 0 0 0-.87-.87.86.86 0 0 0-.87.87v1.04H1.79zm0 7.72h5.79v.98c0 .48.38.87.87.87s.87-.39.87-.87v-.98h6.12v.98c0 .48.38.87.87.87s.87-.39.87-.87v-.98h5.8v5.99H1.79z"/><path fill="#795e9b" d="M.92 21.3h22.91c.48 0 .87-.39.87-.88V4.98a.87.87 0 0 0-.87-.87h-6.65V1.49a.86.86 0 0 0-.87-.87H8.45a.86.86 0 0 0-.87.87v2.64H.92A.87.87 0 0 0 .04 5v15.45a.9.9 0 0 0 .88.85zm8.4-18.94h6.12v1.77H9.32zM1.79 5.85h6.45c.06.02.13.02.19.02.07 0 .13 0 .19-.02h7.48c.06.02.12.02.19.02.06 0 .13 0 .19-.02h6.45v5.98h-5.75v-1.04a.86.86 0 0 0-.87-.87.86.86 0 0 0-.87.87v1.04H9.32v-1.04a.86.86 0 0 0-.87-.87.86.86 0 0 0-.87.87v1.04H1.79zm0 7.72h5.79v.98c0 .48.38.87.87.87s.87-.39.87-.87v-.98h6.12v.98c0 .48.38.87.87.87s.87-.39.87-.87v-.98h5.8v5.99H1.79z"/></svg>