<svg xmlns="http://www.w3.org/2000/svg" width="551" height="551" viewBox="0 0 551 551"><path d="M275.26 551C427.13 551 551 427.6 551 275.26S427.6 0 275.26 0 0 123.4 0 275.26C0 427.13 123.4 551 275.26 551zm0-512.56c130.51 0 236.82 106.31 236.82 236.82s-106.3 236.82-236.82 236.82c-130.51 0-236.82-106.3-236.82-236.82 0-130.51 106.31-236.82 236.82-236.82zm26.1 374.45a19 19 0 0 0 13.77 5.7c4.74 0 9.96-1.9 13.76-5.7 7.6-7.59 7.6-19.93 0-27.52L217.36 273.84 328.9 162.3c7.6-7.6 7.6-19.93 0-27.53a19.48 19.48 0 0 0-27.53 0l-125.29 125.3a19 19 0 0 0-5.7 13.76c0 5.22 1.9 9.97 5.7 13.76z"/></svg>