<svg xmlns="http://www.w3.org/2000/svg" width="552" height="552" viewBox="0 0 552 552"><path d="M276.5 552C428.24 552 552 428.71 552 276.5 552 124.29 428.24 1 276.5 1S1 124.76 1 276.5 124.76 552 276.5 552zm0-512.12c130.4 0 236.62 106.22 236.62 236.62S406.9 513.12 276.5 513.12 39.88 406.9 39.88 276.5 146.1 39.88 276.5 39.88zm-63.54 374.13a19 19 0 0 0 13.75 5.7c4.74 0 9.96-1.9 13.75-5.7l125.19-125.18a19 19 0 0 0 5.69-13.75c0-5.22-1.9-9.96-5.7-13.75L240.47 136.14a19.46 19.46 0 0 0-27.5 0 19.46 19.46 0 0 0 0 27.5l111.43 111.44L212.96 386.5a19.46 19.46 0 0 0 0 27.5z"/></svg>