<svg xmlns="http://www.w3.org/2000/svg" width="23" height="21" viewBox="0 0 23 21"><path d="M.95 20.76h20.49c.43 0 .77-.34.77-.78V2.62a.77.77 0 0 0-.77-.78h-3.86v-.66A.77.77 0 0 0 16.8.4a.77.77 0 0 0-.78.78v.66H6.5v-.66A.77.77 0 0 0 5.72.4a.77.77 0 0 0-.78.78v.66H.95a.77.77 0 0 0-.78.78V20c0 .42.36.76.78.76zM1.73 3.4h3.2v.41c0 .44.35.78.79.78.43 0 .78-.34.78-.78V3.4h9.52v.41c0 .44.35.78.78.78.44 0 .78-.34.78-.78V3.4h3.1v2H1.73zm0 3.56h18.93v12.26H1.73zm15.07 3.57H5.6a.77.77 0 0 0-.78.78c0 .44.35.78.78.78h11.2c.44 0 .78-.34.78-.78a.77.77 0 0 0-.78-.78zm-5.6 3.76H5.6a.77.77 0 0 0-.78.78c0 .43.35.77.78.77h5.6c.44 0 .78-.34.78-.77a.77.77 0 0 0-.78-.78z"/><path fill="#795e9b" d="M.95 20.76h20.49c.43 0 .77-.34.77-.78V2.62a.77.77 0 0 0-.77-.78h-3.86v-.66A.77.77 0 0 0 16.8.4a.77.77 0 0 0-.78.78v.66H6.5v-.66A.77.77 0 0 0 5.72.4a.77.77 0 0 0-.78.78v.66H.95a.77.77 0 0 0-.78.78V20c0 .42.36.76.78.76zM1.73 3.4h3.2v.41c0 .44.35.78.79.78.43 0 .78-.34.78-.78V3.4h9.52v.41c0 .44.35.78.78.78.44 0 .78-.34.78-.78V3.4h3.1v2H1.73zm0 3.56h18.93v12.26H1.73zm15.07 3.57H5.6a.77.77 0 0 0-.78.78c0 .44.35.78.78.78h11.2c.44 0 .78-.34.78-.78a.77.77 0 0 0-.78-.78zm-5.6 3.76H5.6a.77.77 0 0 0-.78.78c0 .43.35.77.78.77h5.6c.44 0 .78-.34.78-.77a.77.77 0 0 0-.78-.78z"/></svg>