<svg xmlns="http://www.w3.org/2000/svg" width="18" height="22" viewBox="0 0 18 22"><path d="M8.3 9.92a.71.71 0 0 0 0-1 .7.7 0 0 0-1 0l-3.71 3.74A3.3 3.3 0 0 0 2.62 15c0 .9.34 1.73.97 2.36 1.3 1.31 3.4 1.31 4.68 0l8.38-8.43a4.64 4.64 0 0 0 0-6.58 4.6 4.6 0 0 0-6.55 0l-8.36 8.42A5.96 5.96 0 0 0 0 15.01c0 1.6.62 3.12 1.74 4.24a5.87 5.87 0 0 0 8.41 0l3.71-3.74a.71.71 0 0 0 0-1 .7.7 0 0 0-.99 0l-3.7 3.74a4.5 4.5 0 0 1-6.43 0 4.57 4.57 0 0 1 0-6.47l8.35-8.42a3.2 3.2 0 0 1 5.49 2.29c0 .86-.34 1.69-.94 2.29l-8.37 8.43a1.92 1.92 0 0 1-2.7-2.72z"/><path fill="#fff" d="M8.3 9.92a.71.71 0 0 0 0-1 .7.7 0 0 0-1 0l-3.71 3.74A3.3 3.3 0 0 0 2.62 15c0 .9.34 1.73.97 2.36 1.3 1.31 3.4 1.31 4.68 0l8.38-8.43a4.64 4.64 0 0 0 0-6.58 4.6 4.6 0 0 0-6.55 0l-8.36 8.42A5.96 5.96 0 0 0 0 15.01c0 1.6.62 3.12 1.74 4.24a5.87 5.87 0 0 0 8.41 0l3.71-3.74a.71.71 0 0 0 0-1 .7.7 0 0 0-.99 0l-3.7 3.74a4.5 4.5 0 0 1-6.43 0 4.57 4.57 0 0 1 0-6.47l8.35-8.42a3.2 3.2 0 0 1 5.49 2.29c0 .86-.34 1.69-.94 2.29l-8.37 8.43a1.92 1.92 0 0 1-2.7-2.72z"/></svg>