<svg xmlns="http://www.w3.org/2000/svg" width="22" height="22" viewBox="0 0 22 22"><path d="M1.36 17.27h.86a2.77 2.77 0 0 0 4.39 3.3c.52-.51.8-1.2.8-1.96 0-.48-.12-.93-.35-1.34h3.45a2.77 2.77 0 0 0 4.39 3.3 2.76 2.76 0 0 0 .45-3.3h.93c.41 0 .73-.33.73-.74a.72.72 0 0 0-.73-.73H2.1v-1.43h16.11c.32 0 .61-.22.7-.54l2.44-8.9a.74.74 0 0 0-.13-.63.74.74 0 0 0-.57-.28H2.1V1.35A.73.73 0 0 0 1.36.6a.72.72 0 0 0-.73.74V16.5c0 .43.32.76.73.76zm10.62.4a1.3 1.3 0 0 1 1.86 0c.25.26.4.58.4.94s-.15.68-.4.93c-.5.5-1.36.5-1.86 0a1.3 1.3 0 0 1 0-1.86zm-8.27 0a1.3 1.3 0 0 1 1.86 0 1.3 1.3 0 0 1 0 1.87c-.5.5-1.36.5-1.86 0a1.3 1.3 0 0 1 0-1.86zM2.1 5.48h17.58l-2.04 7.45H2.1z"/><path fill="#795e9b" d="M1.36 17.27h.86a2.77 2.77 0 0 0 4.39 3.3c.52-.51.8-1.2.8-1.96 0-.48-.12-.93-.35-1.34h3.45a2.77 2.77 0 0 0 4.39 3.3 2.76 2.76 0 0 0 .45-3.3h.93c.41 0 .73-.33.73-.74a.72.72 0 0 0-.73-.73H2.1v-1.43h16.11c.32 0 .61-.22.7-.54l2.44-8.9a.74.74 0 0 0-.13-.63.74.74 0 0 0-.57-.28H2.1V1.35A.73.73 0 0 0 1.36.6a.72.72 0 0 0-.73.74V16.5c0 .43.32.76.73.76zm10.62.4a1.3 1.3 0 0 1 1.86 0c.25.26.4.58.4.94s-.15.68-.4.93c-.5.5-1.36.5-1.86 0a1.3 1.3 0 0 1 0-1.86zm-8.27 0a1.3 1.3 0 0 1 1.86 0 1.3 1.3 0 0 1 0 1.87c-.5.5-1.36.5-1.86 0a1.3 1.3 0 0 1 0-1.86zM2.1 5.48h17.58l-2.04 7.45H2.1z"/></svg>