<svg xmlns="http://www.w3.org/2000/svg" width="21" height="21" viewBox="0 0 21 21"><path d="M.76 20.98H7.6l.12.01h4.64l.12-.01h6.81c.4 0 .7-.31.7-.71v-9.3l-.01-.14c0-.03-.02-.05-.04-.09l-.01-.03-.06-.09-.01-.03c-.02-.04-.05-.07-.09-.1l-9.28-9.3a.7.7 0 0 0-1 0l-9.28 9.3c-.03.03-.07.06-.08.1 0 .02-.02.02-.02.03l-.05.09-.02.05-.03.09c-.02.05-.02.08-.02.14v9.3c.07.38.38.69.76.69zm10.91-1.42H8.44v-3.24h3.23zM10.04 2.68l7.58 7.6H2.46zM1.46 11.7H18.6v7.89h-5.52v-3.96c0-.4-.31-.7-.7-.7H7.72a.7.7 0 0 0-.7.7v3.94H1.46z"/></svg>