<?xml version="1.0" encoding="UTF-8" standalone="no"?>
<!-- Created with Inkscape (http://www.inkscape.org/) -->

<svg
   xmlns:dc="http://purl.org/dc/elements/1.1/"
   xmlns:cc="http://creativecommons.org/ns#"
   xmlns:rdf="http://www.w3.org/1999/02/22-rdf-syntax-ns#"
   xmlns:svg="http://www.w3.org/2000/svg"
   xmlns="http://www.w3.org/2000/svg"
   xmlns:sodipodi="http://sodipodi.sourceforge.net/DTD/sodipodi-0.dtd"
   xmlns:inkscape="http://www.inkscape.org/namespaces/inkscape"
   width="47.321693mm"
   height="47.234837mm"
   viewBox="0 0 47.321693 47.234836"
   version="1.1"
   id="svg8"
   inkscape:version="0.92.1 r15371"
   sodipodi:docname="i-insta.svg">
  <defs
     id="defs2" />
  <sodipodi:namedview
     id="base"
     pagecolor="#ffffff"
     bordercolor="#666666"
     borderopacity="1.0"
     inkscape:pageopacity="0.0"
     inkscape:pageshadow="2"
     inkscape:zoom="0.35"
     inkscape:cx="745.88207"
     inkscape:cy="216.96056"
     inkscape:document-units="mm"
     inkscape:current-layer="layer1"
     showgrid="false"
     fit-margin-top="0"
     fit-margin-left="0"
     fit-margin-right="0"
     fit-margin-bottom="0"
     inkscape:window-width="1366"
     inkscape:window-height="715"
     inkscape:window-x="-8"
     inkscape:window-y="-8"
     inkscape:window-maximized="1" />
  <metadata
     id="metadata5">
    <rdf:RDF>
      <cc:Work
         rdf:about="">
        <dc:format>image/svg+xml</dc:format>
        <dc:type
           rdf:resource="http://purl.org/dc/dcmitype/StillImage" />
        <dc:title></dc:title>
      </cc:Work>
    </rdf:RDF>
  </metadata>
  <g
     inkscape:label="Layer 1"
     inkscape:groupmode="layer"
     id="layer1"
     transform="translate(433.4869,-110.39283)">
    <path
       style="fill:#000000;stroke-width:0.26458332"
       d="m -422.65818,157.47629 c -0.58208,-0.12432 -1.60542,-0.23289 -2.27409,-0.24127 -1.48024,-0.0186 -3.70157,-1.3597 -5.54962,-3.35061 -1.79316,-1.93178 -2.53036,-3.39237 -2.79024,-5.52818 -0.31243,-2.56766 -0.27317,-26.27501 0.0475,-28.70729 0.30504,-2.31356 1.42183,-4.2496 3.56054,-6.17248 2.14052,-1.92451 3.60575,-2.48017 7.40275,-2.80735 4.27515,-0.36837 20.59569,-0.36837 24.87084,0 3.85988,0.33259 5.30437,0.89664 7.54829,2.94746 2.15732,1.97167 3.10223,3.63615 3.41402,6.0139 0.3249,2.47772 0.35992,26.18496 0.0424,28.72576 -0.29103,2.32914 -0.89936,3.54464 -2.73948,5.47382 -2.11894,2.22149 -3.78561,3.2082 -5.87624,3.47888 -2.3518,0.3045 -26.335,0.44963 -27.65674,0.16736 z m 14.47291,-12.18968 c 5.98377,-1.24403 10.4974,-7.33632 9.49541,-12.81646 -0.85715,-4.68789 -4.54113,-8.49299 -9.23656,-9.54024 -1.62848,-0.36321 -2.19738,-0.38154 -3.57188,-0.11509 -4.8846,0.94692 -8.76547,4.82137 -9.70986,9.69381 -1.01679,5.24605 3.31286,11.29205 9.08975,12.69307 1.76191,0.4273 2.23691,0.43756 3.93314,0.0849 z m -4.09213,-2.89129 c -2.44356,-0.61374 -4.48941,-2.32407 -5.52921,-4.62243 -0.86297,-1.9075 -0.86559,-5.52739 -0.005,-7.43448 0.75809,-1.68069 2.41889,-3.33298 4.14963,-4.12838 1.91014,-0.87784 5.81572,-0.86508 7.54063,0.0246 1.6186,0.83488 3.08041,2.27662 3.91912,3.86532 0.62006,1.17452 0.6984,1.61971 0.6984,3.96875 0,2.34904 -0.0783,2.79423 -0.6984,3.96875 -1.48958,2.82157 -3.99684,4.39321 -7.22641,4.52976 -1.01865,0.0431 -2.30042,-0.0343 -2.84839,-0.17192 z m 16.04354,-19.32732 c 1.10327,-0.86783 1.30475,-1.43833 0.83131,-2.35386 -0.22516,-0.43542 -0.74305,-0.96421 -1.15086,-1.1751 -0.88826,-0.45933 -1.6794,-0.15829 -2.50428,0.95294 -0.46645,0.62837 -0.48817,0.80596 -0.18742,1.53204 0.31592,0.76271 1.32991,1.55839 2.01739,1.58307 0.16228,0.006 0.60952,-0.23676 0.99386,-0.53909 z"
       id="path47"
       inkscape:connector-curvature="0" />
  </g>
</svg>
