<?xml version="1.0" encoding="UTF-8" standalone="no"?>
<!-- Created with Inkscape (http://www.inkscape.org/) -->

<svg
   xmlns:dc="http://purl.org/dc/elements/1.1/"
   xmlns:cc="http://creativecommons.org/ns#"
   xmlns:rdf="http://www.w3.org/1999/02/22-rdf-syntax-ns#"
   xmlns:svg="http://www.w3.org/2000/svg"
   xmlns="http://www.w3.org/2000/svg"
   xmlns:sodipodi="http://sodipodi.sourceforge.net/DTD/sodipodi-0.dtd"
   xmlns:inkscape="http://www.inkscape.org/namespaces/inkscape"
   width="254.88026mm"
   height="314.11462mm"
   viewBox="0 0 254.88026 314.11462"
   version="1.1"
   id="svg8"
   inkscape:version="0.92.1 r15371"
   sodipodi:docname="i-jj.svg">
  <defs
     id="defs2" />
  <sodipodi:namedview
     id="base"
     pagecolor="#ffffff"
     bordercolor="#666666"
     borderopacity="1.0"
     inkscape:pageopacity="0.0"
     inkscape:pageshadow="2"
     inkscape:zoom="0.12374369"
     inkscape:cx="2601.4395"
     inkscape:cy="399.87891"
     inkscape:document-units="mm"
     inkscape:current-layer="layer1"
     showgrid="false"
     fit-margin-top="0"
     fit-margin-left="0"
     fit-margin-right="0"
     fit-margin-bottom="0"
     inkscape:window-width="1366"
     inkscape:window-height="715"
     inkscape:window-x="-8"
     inkscape:window-y="-8"
     inkscape:window-maximized="1" />
  <metadata
     id="metadata5">
    <rdf:RDF>
      <cc:Work
         rdf:about="">
        <dc:format>image/svg+xml</dc:format>
        <dc:type
           rdf:resource="http://purl.org/dc/dcmitype/StillImage" />
        <dc:title></dc:title>
      </cc:Work>
    </rdf:RDF>
  </metadata>
  <g
     inkscape:label="Layer 1"
     inkscape:groupmode="layer"
     id="layer1"
     transform="translate(417.76322,15.288847)">
    <path
       style="fill:#280b0b;stroke-width:0.26458335"
       d="m -163.65327,298.60916 c -0.21829,-0.14108 -0.81836,-0.25832 -1.3335,-0.26054 -0.62558,-0.003 -3.39328,-1.11191 -8.33437,-3.34018 -15.40084,-6.9452 -31.49848,-13.882 -66.13526,-28.49898 -11.2051,-4.72866 -22.8137,-9.63041 -25.79687,-10.89282 -2.98318,-1.26241 -7.36869,-3.05882 -9.74559,-3.99203 -8.28125,-3.25138 -10.69513,-4.91396 -14.65572,-10.09425 -1.6709,-2.18548 -13.31021,-18.17193 -35.49685,-48.75454 -2.58647,-3.56526 -5.5243,-7.48315 -6.52851,-8.70643 -7.245,-8.82548 -77.11509,-101.524637 -81.12831,-107.63584 -1.65457,-2.519532 -2.92534,-5.199492 -3.87162,-8.164989 -1.43095,-4.484344 -1.44786,-17.386878 -0.0298,-22.733369 5.57052,-21.002342 29.23094,-44.3310734 56.2083,-55.4203272 7.13744,-2.9339008 14.93474,-5.0268588 18.81536,-5.0504368 1.21941,-0.0074 3.52679,-0.121951 5.12752,-0.254538 3.57536,-0.296144 12.19798,0.113375 14.81667,0.703697 4.76017,1.073071 9.07918,3.468318 12.5677,6.9698303 12.35645,12.4024618 70.09671,87.8213017 104.01855,135.8663627 14.08158,19.94438 22.45538,32.79788 25.65644,39.38178 l 1.30818,2.69066 3.0422,21.5617 c 8.02094,56.84873 11.34018,83.76632 11.76148,95.38044 0.1267,3.4925 0.31522,7.51086 0.41895,8.92969 0.18767,2.56704 0.11018,2.82895 -0.68496,2.31511 z m -38.45417,-39.09219 c 0.6951,-0.83675 2.27954,-2.53513 3.52097,-3.7742 2.08645,-2.08246 2.58357,-2.41927 6.57335,-4.45368 2.3739,-1.21047 4.37625,-2.35737 4.44967,-2.54868 0.3376,-0.87979 -3.03069,-26.17461 -6.14872,-46.17501 -2.09876,-13.46232 -3.75653,-22.28307 -5.00698,-26.64137 l -0.39412,-1.37367 -3.89969,1.72383 c -5.55175,2.4541 -10.98002,4.6898 -13.32544,5.48824 -9.02174,3.0712 -17.84242,3.29664 -31.58467,0.80727 -2.03729,-0.36905 -3.97205,-0.73687 -4.29947,-0.81737 l -0.59532,-0.14638 -0.003,5.78337 c -0.005,10.02731 -0.73631,15.21237 -3.21623,22.79521 -1.11187,3.39973 -2.09495,5.60272 -5.40927,12.12164 -2.22775,4.38174 -4.28665,8.56605 -4.57535,9.29847 l -0.52489,1.33166 7.72413,3.46941 c 41.94235,18.83903 54.86636,24.6102 55.13544,24.62052 0.17352,0.007 0.88421,-0.67252 1.57931,-1.50926 z m -71.49124,-34.79271 c 2.5059,-2.85167 5.60462,-8.75184 7.56031,-14.39532 2.3497,-6.78042 3.69551,-13.96753 3.69551,-19.73523 0,-8.33491 -2.25348,-14.81125 -8.28051,-23.79754 -1.49418,-2.22781 -11.64805,-16.01634 -22.56418,-30.64119 -10.91612,-14.62484 -21.6789,-29.09093 -23.91728,-32.14687 -9.82109,-13.408162 -17.32682,-23.067118 -19.40806,-24.975759 l -0.69143,-0.634093 -4.13433,4.073676 c -11.42248,11.254891 -17.38166,19.781296 -18.62764,26.652456 -0.36397,2.00713 0.16328,4.04276 1.59205,6.14672 0.58813,0.86607 4.94906,6.72291 9.69096,13.01521 10.18682,13.5175 14.15588,18.82497 46.34723,61.97596 23.46356,31.45178 26.81338,35.85104 27.29886,35.85104 0.11983,0 0.76717,-0.62508 1.43851,-1.38906 z m 46.97457,-50.89823 c 6.70436,-0.96451 12.88888,-2.84129 18.87635,-5.72829 l 2.86904,-1.38338 -2.77965,-4.00829 c -6.07043,-8.75363 -19.25387,-26.57912 -40.67249,-54.99379 -15.67321,-20.792626 -26.82714,-35.696619 -34.13937,-45.617396 -5.55474,-7.536307 -5.9571,-7.926218 -8.424,-8.163256 -2.69193,-0.258662 -8.29141,1.40349 -14.78277,4.388118 -3.92426,1.804315 -7.6732,3.805126 -16.52378,8.818756 -3.30837,1.874107 -6.3147,3.543919 -6.68073,3.710694 -0.36603,0.166774 -0.66552,0.45389 -0.66552,0.638029 0,0.66834 6.56335,10.147996 12.41775,17.935369 3.29583,4.384014 8.90532,11.840466 12.46555,16.569886 12.43858,16.52348 26.38491,35.3693 30.54443,41.27501 7.46476,10.59848 11.14567,15.22801 15.29979,19.24269 3.20333,3.09582 5.06122,4.29063 8.30547,5.34127 7.54664,2.44395 15.85437,3.13061 23.88993,1.97458 z M -371.15965,94.416965 c 0.58407,-0.836745 2.37432,-3.678921 3.97832,-6.315949 8.69515,-14.295115 13.65139,-19.87617 24.43547,-27.515982 2.23514,-1.583455 5.04736,-3.842327 6.24937,-5.019715 1.58813,-1.55561 2.49301,-2.231631 3.31069,-2.473372 1.78543,-0.527847 5.01141,-1.907564 14.22211,-6.082642 4.72942,-2.143781 8.95614,-4.031062 9.39271,-4.193955 0.43656,-0.162894 2.92642,-0.718371 5.53303,-1.234393 2.60661,-0.516022 4.78828,-0.987213 4.84816,-1.047094 0.60131,-0.601313 -10.5195,-15.786976 -14.03878,-19.170193 l -0.9239,-0.888187 -4.9853,1.100669 c -2.74191,0.605369 -5.99733,1.403146 -7.23426,1.772841 -8.68633,2.596179 -22.54362,10.180069 -30.96017,16.944049 -14.35945,11.540014 -25.15892,25.32872 -28.39178,36.250469 l -0.40699,1.374981 2.17439,3.255227 c 1.19592,1.790372 3.14511,4.544224 4.33153,6.11967 2.38732,3.170084 6.9685,8.64493 7.23382,8.64493 0.0933,0 0.6475,-0.68461 1.23158,-1.521354 z M -392.20804,53.66955 c 4.75305,-7.515555 6.20533,-9.571072 9.37227,-13.265248 8.31221,-9.696043 18.90173,-17.694955 31.7252,-23.963993 5.83593,-2.853021 9.86424,-4.475732 18.09732,-7.2900801 l 6.72024,-2.297206 -2.09003,-0.5584375 c -3.21286,-0.858447 -5.49215,-1.1443153 -9.11035,-1.1426169 -14.07797,0.00661 -30.64025,7.8608405 -43.26424,20.5169545 -5.73285,5.747427 -9.45371,10.823631 -12.42865,16.955853 -2.83531,5.844381 -4.09408,10.746967 -4.09408,15.94534 v 2.779149 l 0.54961,-0.69872 c 0.30229,-0.384294 2.33751,-3.525742 4.52271,-6.980995 z"
       id="path21"
       inkscape:connector-curvature="0" />
  </g>
</svg>
