<svg xmlns="http://www.w3.org/2000/svg" width="16" height="16" viewBox="0 0 16 16"><path d="M15.85 6.56a.55.55 0 0 0-.34-.38l-4.32-1.45L8.9.49A.53.53 0 0 0 8.4.2c-.19 0-.38.1-.47.28l-2.3 4.23-4.32 1.3a.5.5 0 0 0-.36.38c-.05.18 0 .37.13.5l2.84 3.12-1.18 4.4c-.05.2.02.41.17.54.15.14.37.18.55.1l4.94-1.97 4.95 1.97c.06.03.13.04.2.04a.55.55 0 0 0 .53-.68l-1.18-4.4 2.82-2.96a.59.59 0 0 0 .12-.5zM11.92 9.5a.54.54 0 0 0-.13.51l.99 3.64-4.16-1.64a.57.57 0 0 0-.41 0l-4.15 1.65.99-3.64a.51.51 0 0 0-.13-.5L2.45 6.81l3.72-1.12a.5.5 0 0 0 .32-.25l1.92-3.55 1.92 3.55c.07.11.17.2.31.25l3.72 1.25z"/><path fill="#795e9b" d="M15.85 6.56a.55.55 0 0 0-.34-.38l-4.32-1.45L8.9.49A.53.53 0 0 0 8.4.2c-.19 0-.38.1-.47.28l-2.3 4.23-4.32 1.3a.5.5 0 0 0-.36.38c-.05.18 0 .37.13.5l2.84 3.12-1.18 4.4c-.05.2.02.41.17.54.15.14.37.18.55.1l4.94-1.97 4.95 1.97c.06.03.13.04.2.04a.55.55 0 0 0 .53-.68l-1.18-4.4 2.82-2.96a.59.59 0 0 0 .12-.5zM11.92 9.5a.54.54 0 0 0-.13.51l.99 3.64-4.16-1.64a.57.57 0 0 0-.41 0l-4.15 1.65.99-3.64a.51.51 0 0 0-.13-.5L2.45 6.81l3.72-1.12a.5.5 0 0 0 .32-.25l1.92-3.55 1.92 3.55c.07.11.17.2.31.25l3.72 1.25z"/></svg>