<svg xmlns="http://www.w3.org/2000/svg" width="553" height="297" viewBox="0 0 553 297"><path fill="#fff" d="M277 1C142.32 1 11.9 129.55 6.69 135.24A19 19 0 0 0 1 149a19 19 0 0 0 5.69 13.76C12.39 168.45 142.32 297 277 297s265.1-128.55 270.31-134.24A19 19 0 0 0 553 149a19 19 0 0 0-5.69-13.76C542.09 129.55 412.16 1 277 1zm0 256.63c-94.37 0-191.59-76.85-228.1-109.1C85.4 116.27 182.63 39.43 277 39.43s191.59 76.84 228.1 109.1c-36.51 32.25-133.73 109.1-228.1 109.1zm-69.71-109.1c0 38.42 31.3 70.2 70.18 70.2a70.04 70.04 0 0 0 70.19-70.2c0-38.9-31.3-70.2-70.19-70.2-38.88 0-70.18 31.77-70.18 70.2zm101 0a31.27 31.27 0 0 1-31.29 31.3 31.27 31.27 0 0 1-31.3-31.3 30.98 30.98 0 0 1 31.3-31.31c17.07.47 31.3 14.23 31.3 31.3z"/></svg>