<?xml version="1.0" encoding="UTF-8" standalone="no"?>
<!-- Created with Inkscape (http://www.inkscape.org/) -->

<svg
   xmlns:dc="http://purl.org/dc/elements/1.1/"
   xmlns:cc="http://creativecommons.org/ns#"
   xmlns:rdf="http://www.w3.org/1999/02/22-rdf-syntax-ns#"
   xmlns:svg="http://www.w3.org/2000/svg"
   xmlns="http://www.w3.org/2000/svg"
   xmlns:sodipodi="http://sodipodi.sourceforge.net/DTD/sodipodi-0.dtd"
   xmlns:inkscape="http://www.inkscape.org/namespaces/inkscape"
   width="34.217201mm"
   height="37.37627mm"
   viewBox="0 0 34.217201 37.37627"
   version="1.1"
   id="svg8"
   inkscape:version="0.92.1 r15371"
   sodipodi:docname="i-vk.svg">
  <defs
     id="defs2" />
  <sodipodi:namedview
     id="base"
     pagecolor="#ffffff"
     bordercolor="#666666"
     borderopacity="1.0"
     inkscape:pageopacity="0.0"
     inkscape:pageshadow="2"
     inkscape:zoom="0.35"
     inkscape:cx="427.88319"
     inkscape:cy="239.34746"
     inkscape:document-units="mm"
     inkscape:current-layer="layer1"
     showgrid="false"
     fit-margin-top="0"
     fit-margin-left="0"
     fit-margin-right="0"
     fit-margin-bottom="0"
     inkscape:window-width="1366"
     inkscape:window-height="715"
     inkscape:window-x="-8"
     inkscape:window-y="-8"
     inkscape:window-maximized="1" />
  <metadata
     id="metadata5">
    <rdf:RDF>
      <cc:Work
         rdf:about="">
        <dc:format>image/svg+xml</dc:format>
        <dc:type
           rdf:resource="http://purl.org/dc/dcmitype/StillImage" />
        <dc:title></dc:title>
      </cc:Work>
    </rdf:RDF>
  </metadata>
  <g
     inkscape:label="Layer 1"
     inkscape:groupmode="layer"
     id="layer1"
     transform="translate(349.3497,-126.1746)">
    <path
       style="fill:#000000;stroke-width:0.26458335"
       d="M -349.3497,144.86273 V 126.1746 l 12.50156,0.12244 c 6.87586,0.0673 13.27951,0.22313 14.23033,0.34621 3.6578,0.47349 6.23503,3.6269 6.53354,7.99423 0.25241,3.69282 -0.82364,6.55289 -3.08048,8.18774 l -1.06134,0.76883 1.09259,0.49269 c 0.60093,0.27098 1.64921,1.03485 2.32951,1.69749 1.13422,1.10476 1.25516,1.34692 1.45659,2.91655 0.28229,2.1997 0.28728,6.29367 0.0102,8.32633 -0.26316,1.9302 -1.36241,3.53174 -3.36144,4.89736 -1.20341,0.8221 -1.61666,0.94618 -3.76443,1.13028 -1.32695,0.11375 -7.91927,0.2719 -14.64961,0.35146 l -12.23698,0.14466 z m 20.30428,9.30864 c 1.75543,-0.94705 2.26129,-2.80567 1.10492,-4.05968 -1.09413,-1.18653 -2.0426,-1.41896 -5.79029,-1.41896 h -3.44808 v 3.06809 3.06808 l 3.63802,-0.0975 c 2.82217,-0.0756 3.8303,-0.20121 4.49543,-0.56005 z m -1.99889,-14.2191 c 1.88059,-0.52232 2.87307,-2.5403 1.91917,-3.90218 -0.76423,-1.09109 -1.90196,-1.44719 -5.07049,-1.58702 l -2.98324,-0.13165 v 2.94733 2.94732 l 2.57969,-0.001 c 1.41883,-8.2e-4 3.01852,-0.12336 3.55487,-0.27233 z"
       id="path34"
       inkscape:connector-curvature="0" />
  </g>
</svg>
