<svg xmlns="http://www.w3.org/2000/svg" width="72" height="93" viewBox="0 0 72 93"><path d="M34.06 4.37V2.53a1.94 1.94 0 0 1 3.88 0v1.84a1.94 1.94 0 0 1-3.88 0zM56.04 14.6a1.93 1.93 0 0 1 0-2.74l1.29-1.3a1.94 1.94 0 0 1 2.74 2.74l-1.29 1.3a1.94 1.94 0 0 1-2.74 0zm8.3 20.04c0-1.07.86-1.94 1.93-1.94h1.84a1.94 1.94 0 1 1 0 3.88h-1.84a1.93 1.93 0 0 1-1.93-1.94zm-62.39 0c0-1.07.87-1.94 1.94-1.94h1.83a1.94 1.94 0 1 1 0 3.88H3.89a1.94 1.94 0 0 1-1.94-1.94zm69.51 37.34c0 1.07-.87 1.94-1.94 1.94H55.46a1.94 1.94 0 0 1-1.8-2.66l2.25-5.6a1.94 1.94 0 1 1 3.6 1.45l-1.19 2.94h9.12c-.68-4.58-3.76-8.87-8.84-12.24-6.04-4.01-14.1-6.22-22.71-6.22-8.61 0-16.67 2.2-22.71 6.22-5.08 3.37-8.16 7.66-8.84 12.24h9.11l-1.18-2.94a1.94 1.94 0 1 1 3.59-1.45l2.26 5.6a1.94 1.94 0 0 1-1.8 2.66H2.26a1.94 1.94 0 0 1-1.94-1.94c0-6.63 3.8-12.81 10.72-17.4 6.66-4.43 15.49-6.86 24.85-6.86 9.36 0 18.19 2.43 24.85 6.86 6.91 4.59 10.72 10.77 10.72 17.4zm-24.61.49c2.76 2.64 2.43 8.02.95 11.9-1.84 4.87-5.32 7.86-9.29 8.01-.7.03-1.66.02-2.62-.28a7.26 7.26 0 0 1-2.63.28c-3.96-.15-7.44-3.14-9.29-8.01-1.47-3.88-1.8-9.26.96-11.9a7.81 7.81 0 0 1 7.88-1.59l-.05-.68a13.63 13.63 0 0 0-3.64-4.59 1.94 1.94 0 0 1 2.45-3c.81.66 1.56 1.39 2.23 2.18.3-.68.65-1.35 1.07-1.99 2.6-4.03 6.96-6.27 10.86-5.55.51.09.96.38 1.25.8 2.26 3.26 2.03 8.16-.57 12.19-.28.43-.58.84-.9 1.23.49.28.94.62 1.34 1zm-10.23-2.8c0 .04-.05 1.46.45 2.38 2.15-.03 4.55-1.54 6.08-3.91 1.53-2.37 1.92-5.18 1.05-7.15-2.15.02-4.55 1.53-6.08 3.9a9.08 9.08 0 0 0-1.5 4.77zm7.55 5.6a3.54 3.54 0 0 0-1.94-.9 9.67 9.67 0 0 1-6.48 1.46 8.2 8.2 0 0 1-3.57-1.04 4.58 4.58 0 0 0-2.01-.47c-1.07 0-2 .4-2.56.95-1.04.99-1.34 4.23-.01 7.72.47 1.26 2.31 5.39 5.81 5.52.74.03 1.25-.04 1.55-.2a1.93 1.93 0 0 1 1.86 0c.3.16.81.23 1.55.2 3.5-.13 5.33-4.26 5.81-5.52 1.33-3.5 1.03-6.73-.01-7.72zM11.92 13.3a1.94 1.94 0 1 1 2.74-2.74l1.3 1.3a1.93 1.93 0 0 1-1.37 3.31c-.49 0-.99-.19-1.37-.57zm14.92 16.51c0-5.38 3.44-10.1 8.57-11.73.38-.12.79-.12 1.18 0a12.28 12.28 0 0 1 8.57 11.73c0 5.39-3.45 10.1-8.57 11.74a1.93 1.93 0 0 1-1.18 0 12.26 12.26 0 0 1-8.57-11.74zm3.87 0A8.4 8.4 0 0 0 36 37.65a8.4 8.4 0 0 0 5.29-7.84A8.4 8.4 0 0 0 36 21.98a8.4 8.4 0 0 0-5.29 7.83z"/><path fill="#fff" d="M34.06 4.37V2.53a1.94 1.94 0 0 1 3.88 0v1.84a1.94 1.94 0 0 1-3.88 0zM56.04 14.6a1.93 1.93 0 0 1 0-2.74l1.29-1.3a1.94 1.94 0 0 1 2.74 2.74l-1.29 1.3a1.94 1.94 0 0 1-2.74 0zm8.3 20.04c0-1.07.86-1.94 1.93-1.94h1.84a1.94 1.94 0 1 1 0 3.88h-1.84a1.93 1.93 0 0 1-1.93-1.94zm-62.39 0c0-1.07.87-1.94 1.94-1.94h1.83a1.94 1.94 0 1 1 0 3.88H3.89a1.94 1.94 0 0 1-1.94-1.94zm69.51 37.34c0 1.07-.87 1.94-1.94 1.94H55.46a1.94 1.94 0 0 1-1.8-2.66l2.25-5.6a1.94 1.94 0 1 1 3.6 1.45l-1.19 2.94h9.12c-.68-4.58-3.76-8.87-8.84-12.24-6.04-4.01-14.1-6.22-22.71-6.22-8.61 0-16.67 2.2-22.71 6.22-5.08 3.37-8.16 7.66-8.84 12.24h9.11l-1.18-2.94a1.94 1.94 0 1 1 3.59-1.45l2.26 5.6a1.94 1.94 0 0 1-1.8 2.66H2.26a1.94 1.94 0 0 1-1.94-1.94c0-6.63 3.8-12.81 10.72-17.4 6.66-4.43 15.49-6.86 24.85-6.86 9.36 0 18.19 2.43 24.85 6.86 6.91 4.59 10.72 10.77 10.72 17.4zm-24.61.49c2.76 2.64 2.43 8.02.95 11.9-1.84 4.87-5.32 7.86-9.29 8.01-.7.03-1.66.02-2.62-.28a7.26 7.26 0 0 1-2.63.28c-3.96-.15-7.44-3.14-9.29-8.01-1.47-3.88-1.8-9.26.96-11.9a7.81 7.81 0 0 1 7.88-1.59l-.05-.68a13.63 13.63 0 0 0-3.64-4.59 1.94 1.94 0 0 1 2.45-3c.81.66 1.56 1.39 2.23 2.18.3-.68.65-1.35 1.07-1.99 2.6-4.03 6.96-6.27 10.86-5.55.51.09.96.38 1.25.8 2.26 3.26 2.03 8.16-.57 12.19-.28.43-.58.84-.9 1.23.49.28.94.62 1.34 1zm-10.23-2.8c0 .04-.05 1.46.45 2.38 2.15-.03 4.55-1.54 6.08-3.91 1.53-2.37 1.92-5.18 1.05-7.15-2.15.02-4.55 1.53-6.08 3.9a9.08 9.08 0 0 0-1.5 4.77zm7.55 5.6a3.54 3.54 0 0 0-1.94-.9 9.67 9.67 0 0 1-6.48 1.46 8.2 8.2 0 0 1-3.57-1.04 4.58 4.58 0 0 0-2.01-.47c-1.07 0-2 .4-2.56.95-1.04.99-1.34 4.23-.01 7.72.47 1.26 2.31 5.39 5.81 5.52.74.03 1.25-.04 1.55-.2a1.93 1.93 0 0 1 1.86 0c.3.16.81.23 1.55.2 3.5-.13 5.33-4.26 5.81-5.52 1.33-3.5 1.03-6.73-.01-7.72zM11.92 13.3a1.94 1.94 0 1 1 2.74-2.74l1.3 1.3a1.93 1.93 0 0 1-1.37 3.31c-.49 0-.99-.19-1.37-.57zm14.92 16.51c0-5.38 3.44-10.1 8.57-11.73.38-.12.79-.12 1.18 0a12.28 12.28 0 0 1 8.57 11.73c0 5.39-3.45 10.1-8.57 11.74a1.93 1.93 0 0 1-1.18 0 12.26 12.26 0 0 1-8.57-11.74zm3.87 0A8.4 8.4 0 0 0 36 37.65a8.4 8.4 0 0 0 5.29-7.84A8.4 8.4 0 0 0 36 21.98a8.4 8.4 0 0 0-5.29 7.83z"/></svg>