<svg xmlns="http://www.w3.org/2000/svg" width="61" height="93" viewBox="0 0 61 93"><path d="M22.54 24.7c0-4.6 2.93-8.62 7.3-10.01.43-.13.89-.13 1.31 0a10.46 10.46 0 0 1 7.31 10c0 4.6-2.93 8.62-7.3 10.01a2.15 2.15 0 0 1-1.31 0 10.46 10.46 0 0 1-7.31-10zm4.3 0a6.17 6.17 0 0 0 3.66 5.65 6.17 6.17 0 0 0 3.65-5.65 6.16 6.16 0 0 0-3.65-5.65 6.16 6.16 0 0 0-3.65 5.65zm25.85 3.88c0-1.2.96-2.16 2.15-2.16h1.48a2.15 2.15 0 1 1 0 4.31h-1.48a2.15 2.15 0 0 1-2.15-2.15zm-6.5-15.7a2.15 2.15 0 0 1 0-3.04l1.04-1.05a2.15 2.15 0 1 1 3.05 3.05l-1.04 1.05a2.15 2.15 0 0 1-3.05 0zM28.35 4.23V2.75a2.16 2.16 0 0 1 4.3 0v1.48a2.16 2.16 0 0 1-4.3 0zm31.98 79.3a8.87 8.87 0 0 1-8.86 8.87H37.2a2.16 2.16 0 0 1 0-4.31h14.26a4.56 4.56 0 0 0 0-9.11H9.53a4.56 4.56 0 0 0 0 9.11h13.6l9.24-6.33a2.16 2.16 0 0 1 2.44 3.55L25 92.02c-.36.25-.79.38-1.22.38H9.53a8.88 8.88 0 0 1 0-17.73h18.81V52.29a2.16 2.16 0 0 1 4.31 0v22.38h18.82a8.87 8.87 0 0 1 8.86 8.86zM1.21 58.61c0-5.55 3.16-10.7 8.88-14.5 5.46-3.62 12.68-5.62 20.32-5.62 7.65 0 14.86 2 20.32 5.62 5.73 3.8 8.88 8.95 8.88 14.5 0 1.19-.96 2.15-2.15 2.15h-19a2.15 2.15 0 0 1-2.16-2.15v-6.32a2.15 2.15 0 1 1 4.3 0v4.16h14.47c-.72-3.25-3.04-6.3-6.73-8.75-4.76-3.16-11.12-4.9-17.93-4.9-6.8 0-13.17 1.74-17.93 4.9-3.69 2.45-6.01 5.5-6.73 8.75h14.47V52.3a2.15 2.15 0 1 1 4.3 0v6.32c0 1.19-.96 2.15-2.15 2.15h-19a2.15 2.15 0 0 1-2.16-2.15zm1.31-30.03c0-1.2.97-2.16 2.16-2.16h1.48a2.15 2.15 0 1 1 0 4.31H4.68a2.15 2.15 0 0 1-2.16-2.15zm9.24-15.7a2.15 2.15 0 1 0 3.05-3.04l-1.05-1.05a2.15 2.15 0 1 0-3.04 3.05z"/><path fill="#fff" d="M22.54 24.7c0-4.6 2.93-8.62 7.3-10.01.43-.13.89-.13 1.31 0a10.46 10.46 0 0 1 7.31 10c0 4.6-2.93 8.62-7.3 10.01a2.15 2.15 0 0 1-1.31 0 10.46 10.46 0 0 1-7.31-10zm4.3 0a6.17 6.17 0 0 0 3.66 5.65 6.17 6.17 0 0 0 3.65-5.65 6.16 6.16 0 0 0-3.65-5.65 6.16 6.16 0 0 0-3.65 5.65zm25.85 3.88c0-1.2.96-2.16 2.15-2.16h1.48a2.15 2.15 0 1 1 0 4.31h-1.48a2.15 2.15 0 0 1-2.15-2.15zm-6.5-15.7a2.15 2.15 0 0 1 0-3.04l1.04-1.05a2.15 2.15 0 1 1 3.05 3.05l-1.04 1.05a2.15 2.15 0 0 1-3.05 0zM28.35 4.23V2.75a2.16 2.16 0 0 1 4.3 0v1.48a2.16 2.16 0 0 1-4.3 0zm31.98 79.3a8.87 8.87 0 0 1-8.86 8.87H37.2a2.16 2.16 0 0 1 0-4.31h14.26a4.56 4.56 0 0 0 0-9.11H9.53a4.56 4.56 0 0 0 0 9.11h13.6l9.24-6.33a2.16 2.16 0 0 1 2.44 3.55L25 92.02c-.36.25-.79.38-1.22.38H9.53a8.88 8.88 0 0 1 0-17.73h18.81V52.29a2.16 2.16 0 0 1 4.31 0v22.38h18.82a8.87 8.87 0 0 1 8.86 8.86zM1.21 58.61c0-5.55 3.16-10.7 8.88-14.5 5.46-3.62 12.68-5.62 20.32-5.62 7.65 0 14.86 2 20.32 5.62 5.73 3.8 8.88 8.95 8.88 14.5 0 1.19-.96 2.15-2.15 2.15h-19a2.15 2.15 0 0 1-2.16-2.15v-6.32a2.15 2.15 0 1 1 4.3 0v4.16h14.47c-.72-3.25-3.04-6.3-6.73-8.75-4.76-3.16-11.12-4.9-17.93-4.9-6.8 0-13.17 1.74-17.93 4.9-3.69 2.45-6.01 5.5-6.73 8.75h14.47V52.3a2.15 2.15 0 1 1 4.3 0v6.32c0 1.19-.96 2.15-2.15 2.15h-19a2.15 2.15 0 0 1-2.16-2.15zm1.31-30.03c0-1.2.97-2.16 2.16-2.16h1.48a2.15 2.15 0 1 1 0 4.31H4.68a2.15 2.15 0 0 1-2.16-2.15zm9.24-15.7a2.15 2.15 0 1 0 3.05-3.04l-1.05-1.05a2.15 2.15 0 1 0-3.04 3.05z"/></svg>