<svg xmlns="http://www.w3.org/2000/svg" width="68" height="92" viewBox="0 0 68 92"><path d="M1.56 33.39c0-1.05.83-1.9 1.85-1.9h1.76c1.02 0 1.85.85 1.85 1.9 0 1.05-.83 1.9-1.85 1.9H3.4a1.88 1.88 0 0 1-1.85-1.9zm23.79-4.74a12 12 0 0 1 8.2-11.5c.36-.12.75-.12 1.12 0a12 12 0 0 1 8.2 11.5 12 12 0 0 1-8.2 11.51 1.83 1.83 0 0 1-1.13 0 12 12 0 0 1-8.2-11.5zm3.7 0c0 3.42 2 6.43 5.06 7.68a8.25 8.25 0 0 0 5.05-7.68c0-3.41-2-6.42-5.05-7.68a8.25 8.25 0 0 0-5.06 7.68zM11.1 12.47a1.94 1.94 0 0 1 0-2.7c.73-.73 1.9-.73 2.62 0l1.24 1.28c.72.74.72 1.95 0 2.69a1.82 1.82 0 0 1-2.62 0zm50.1 20.92c0-1.05.83-1.9 1.85-1.9h1.76c1.02 0 1.85.85 1.85 1.9 0 1.05-.83 1.9-1.85 1.9h-1.76a1.88 1.88 0 0 1-1.85-1.9zm-7.93-19.65a1.93 1.93 0 0 1 0-2.69l1.24-1.27c.72-.74 1.9-.74 2.62 0 .72.74.72 1.94 0 2.69l-1.24 1.27a1.82 1.82 0 0 1-2.62 0zm-21-10.04V1.9c0-1.05.82-1.9 1.84-1.9 1.03 0 1.86.85 1.86 1.9v1.8c0 1.05-.83 1.9-1.86 1.9a1.88 1.88 0 0 1-1.85-1.9zm3.6 85.24v1.16c0 1.05-.84 1.9-1.86 1.9a1.88 1.88 0 0 1-1.85-1.9v-1.16c0-1.05.83-1.9 1.85-1.9s1.85.85 1.85 1.9zM50 81.62a1.84 1.84 0 0 1-2.53.7l-.97-.59a1.93 1.93 0 0 1-.68-2.6 1.83 1.83 0 0 1 2.53-.69l.98.58c.88.53 1.18 1.69.67 2.6zm-5.33 5.04c.51.9.2 2.07-.68 2.6a1.85 1.85 0 0 1-2.53-.7l-.56-1c-.51-.91-.21-2.08.67-2.6a1.83 1.83 0 0 1 2.53.7zm-22.49-7.52c.51.9.2 2.07-.68 2.6l-.98.57c-.29.18-.6.26-.92.26-.64 0-1.26-.34-1.6-.95-.51-.91-.21-2.07.67-2.6l.98-.58a1.83 1.83 0 0 1 2.53.7zM68 70c0 1.04-.83 1.9-1.85 1.9H52.7c-.61 0-1.19-.32-1.53-.84a1.94 1.94 0 0 1-.18-1.77l2.15-5.5a1.84 1.84 0 0 1 2.41-1.05c.95.4 1.4 1.5 1.03 2.47l-1.14 2.89h8.72c-.65-4.49-3.6-8.7-8.45-12C49.94 52.16 42.23 50 34 50s-15.94 2.16-21.7 6.1c-4.87 3.3-7.81 7.51-8.46 12h8.72l-1.14-2.89a1.92 1.92 0 0 1 1.03-2.47c.95-.39 2.03.08 2.4 1.05l2.16 5.5c.23.58.16 1.25-.18 1.77-.34.52-.92.84-1.53.84H1.85A1.88 1.88 0 0 1 0 70c0-6.51 3.64-12.57 10.24-17.07 6.38-4.34 14.81-6.73 23.76-6.73 8.95 0 17.38 2.39 23.76 6.73C64.36 57.44 68 63.5 68 70.01zM27.1 87.55l-.56 1a1.8 1.8 0 0 1-2.53.7 1.92 1.92 0 0 1-.68-2.6l.56-1a1.83 1.83 0 0 1 2.53-.7c.89.53 1.2 1.7.68 2.6zm16.3-14.2c0 7.2-4.73 10.98-9.4 10.98s-9.4-3.77-9.4-10.97c0-5.45 3.61-12.78 8.22-16.7a1.82 1.82 0 0 1 2.36 0c4.6 3.92 8.22 11.25 8.22 16.7zm-3.7 0c0-3.83-2.51-9.26-5.7-12.64-3.19 3.38-5.7 8.81-5.7 12.65 0 4.95 2.87 7.17 5.7 7.17s5.7-2.22 5.7-7.17zm-6.18 1.45c-1.02 0-1.85.86-1.84 1.91 0 1.05.83 1.9 1.85 1.9 2.23-.02 4.5-1.88 4.5-5.43 0-1.05-.84-1.9-1.86-1.9s-1.85.85-1.85 1.9c0 1.07-.4 1.62-.8 1.62z"/><path fill="#fff" d="M1.56 33.39c0-1.05.83-1.9 1.85-1.9h1.76c1.02 0 1.85.85 1.85 1.9 0 1.05-.83 1.9-1.85 1.9H3.4a1.88 1.88 0 0 1-1.85-1.9zm23.79-4.74a12 12 0 0 1 8.2-11.5c.36-.12.75-.12 1.12 0a12 12 0 0 1 8.2 11.5 12 12 0 0 1-8.2 11.51 1.83 1.83 0 0 1-1.13 0 12 12 0 0 1-8.2-11.5zm3.7 0c0 3.42 2 6.43 5.06 7.68a8.25 8.25 0 0 0 5.05-7.68c0-3.41-2-6.42-5.05-7.68a8.25 8.25 0 0 0-5.06 7.68zM11.1 12.47a1.94 1.94 0 0 1 0-2.7c.73-.73 1.9-.73 2.62 0l1.24 1.28c.72.74.72 1.95 0 2.69a1.82 1.82 0 0 1-2.62 0zm50.1 20.92c0-1.05.83-1.9 1.85-1.9h1.76c1.02 0 1.85.85 1.85 1.9 0 1.05-.83 1.9-1.85 1.9h-1.76a1.88 1.88 0 0 1-1.85-1.9zm-7.93-19.65a1.93 1.93 0 0 1 0-2.69l1.24-1.27c.72-.74 1.9-.74 2.62 0 .72.74.72 1.94 0 2.69l-1.24 1.27a1.82 1.82 0 0 1-2.62 0zm-21-10.04V1.9c0-1.05.82-1.9 1.84-1.9 1.03 0 1.86.85 1.86 1.9v1.8c0 1.05-.83 1.9-1.86 1.9a1.88 1.88 0 0 1-1.85-1.9zm3.6 85.24v1.16c0 1.05-.84 1.9-1.86 1.9a1.88 1.88 0 0 1-1.85-1.9v-1.16c0-1.05.83-1.9 1.85-1.9s1.85.85 1.85 1.9zM50 81.62a1.84 1.84 0 0 1-2.53.7l-.97-.59a1.93 1.93 0 0 1-.68-2.6 1.83 1.83 0 0 1 2.53-.69l.98.58c.88.53 1.18 1.69.67 2.6zm-5.33 5.04c.51.9.2 2.07-.68 2.6a1.85 1.85 0 0 1-2.53-.7l-.56-1c-.51-.91-.21-2.08.67-2.6a1.83 1.83 0 0 1 2.53.7zm-22.49-7.52c.51.9.2 2.07-.68 2.6l-.98.57c-.29.18-.6.26-.92.26-.64 0-1.26-.34-1.6-.95-.51-.91-.21-2.07.67-2.6l.98-.58a1.83 1.83 0 0 1 2.53.7zM68 70c0 1.04-.83 1.9-1.85 1.9H52.7c-.61 0-1.19-.32-1.53-.84a1.94 1.94 0 0 1-.18-1.77l2.15-5.5a1.84 1.84 0 0 1 2.41-1.05c.95.4 1.4 1.5 1.03 2.47l-1.14 2.89h8.72c-.65-4.49-3.6-8.7-8.45-12C49.94 52.16 42.23 50 34 50s-15.94 2.16-21.7 6.1c-4.87 3.3-7.81 7.51-8.46 12h8.72l-1.14-2.89a1.92 1.92 0 0 1 1.03-2.47c.95-.39 2.03.08 2.4 1.05l2.16 5.5c.23.58.16 1.25-.18 1.77-.34.52-.92.84-1.53.84H1.85A1.88 1.88 0 0 1 0 70c0-6.51 3.64-12.57 10.24-17.07 6.38-4.34 14.81-6.73 23.76-6.73 8.95 0 17.38 2.39 23.76 6.73C64.36 57.44 68 63.5 68 70.01zM27.1 87.55l-.56 1a1.8 1.8 0 0 1-2.53.7 1.92 1.92 0 0 1-.68-2.6l.56-1a1.83 1.83 0 0 1 2.53-.7c.89.53 1.2 1.7.68 2.6zm16.3-14.2c0 7.2-4.73 10.98-9.4 10.98s-9.4-3.77-9.4-10.97c0-5.45 3.61-12.78 8.22-16.7a1.82 1.82 0 0 1 2.36 0c4.6 3.92 8.22 11.25 8.22 16.7zm-3.7 0c0-3.83-2.51-9.26-5.7-12.64-3.19 3.38-5.7 8.81-5.7 12.65 0 4.95 2.87 7.17 5.7 7.17s5.7-2.22 5.7-7.17zm-6.18 1.45c-1.02 0-1.85.86-1.84 1.91 0 1.05.83 1.9 1.85 1.9 2.23-.02 4.5-1.88 4.5-5.43 0-1.05-.84-1.9-1.86-1.9s-1.85.85-1.85 1.9c0 1.07-.4 1.62-.8 1.62z"/></svg>