<svg xmlns="http://www.w3.org/2000/svg" width="67" height="102" viewBox="0 0 67 102"><path d="M24.82 27.25c0-5 3.2-9.39 7.97-10.9.46-.15.96-.15 1.42 0a11.4 11.4 0 0 1 7.97 10.9c0 5-3.2 9.38-7.97 10.9a2.34 2.34 0 0 1-1.42 0 11.4 11.4 0 0 1-7.97-10.9zm4.7 0c0 2.69 1.57 5.07 3.98 6.15a6.72 6.72 0 0 0 3.98-6.15c0-2.7-1.57-5.08-3.98-6.16a6.72 6.72 0 0 0-3.98 6.16zm28.15 4.23c0-1.3 1.06-2.35 2.35-2.35h1.61a2.35 2.35 0 0 1 0 4.7h-1.6a2.35 2.35 0 0 1-2.36-2.35zm-7.08-17.1a2.35 2.35 0 0 1 0-3.32l1.14-1.14a2.35 2.35 0 0 1 3.32 3.32l-1.14 1.14a2.34 2.34 0 0 1-3.32 0zM31.15 4.95v-1.6a2.35 2.35 0 1 1 4.7 0v1.6a2.35 2.35 0 1 1-4.7 0zM66 91.35a9.67 9.67 0 0 1-9.66 9.65H40.81a2.35 2.35 0 0 1 0-4.7h15.53a4.97 4.97 0 0 0 0-9.92H10.66a4.97 4.97 0 0 0 0 9.93h14.8l10.08-6.9a2.35 2.35 0 1 1 2.65 3.87l-10.67 7.31c-.4.27-.86.41-1.33.41H10.66a9.67 9.67 0 0 1 0-19.31h20.5V57.3a2.35 2.35 0 1 1 4.69 0v24.38h20.5A9.67 9.67 0 0 1 66 91.34zM1.6 64.19c0-6.04 3.44-11.65 9.68-15.8 5.95-3.94 13.8-6.11 22.13-6.11 8.33 0 16.2 2.17 22.14 6.12 6.24 4.14 9.68 9.75 9.68 15.79 0 1.3-1.05 2.34-2.35 2.34h-20.7a2.35 2.35 0 0 1-2.35-2.34V57.3a2.35 2.35 0 1 1 4.69 0v4.53h15.76c-.78-3.54-3.32-6.86-7.33-9.53-5.18-3.44-12.12-5.34-19.54-5.34-7.41 0-14.35 1.9-19.53 5.34-4.02 2.67-6.55 5.99-7.33 9.53H22.3v-4.53a2.35 2.35 0 1 1 4.7 0v6.88c0 1.3-1.06 2.34-2.36 2.34H3.94a2.35 2.35 0 0 1-2.35-2.34zm1.43-32.71c0-1.3 1.05-2.35 2.35-2.35h1.6a2.35 2.35 0 1 1 0 4.7h-1.6a2.35 2.35 0 0 1-2.35-2.35zm10.07-17.1a2.34 2.34 0 1 0 3.31-3.32l-1.13-1.14a2.35 2.35 0 1 0-3.32 3.32z"/><path fill="#fff" d="M24.82 27.25c0-5 3.2-9.39 7.97-10.9.46-.15.96-.15 1.42 0a11.4 11.4 0 0 1 7.97 10.9c0 5-3.2 9.38-7.97 10.9a2.34 2.34 0 0 1-1.42 0 11.4 11.4 0 0 1-7.97-10.9zm4.7 0c0 2.69 1.57 5.07 3.98 6.15a6.72 6.72 0 0 0 3.98-6.15c0-2.7-1.57-5.08-3.98-6.16a6.72 6.72 0 0 0-3.98 6.16zm28.15 4.23c0-1.3 1.06-2.35 2.35-2.35h1.61a2.35 2.35 0 0 1 0 4.7h-1.6a2.35 2.35 0 0 1-2.36-2.35zm-7.08-17.1a2.35 2.35 0 0 1 0-3.32l1.14-1.14a2.35 2.35 0 0 1 3.32 3.32l-1.14 1.14a2.34 2.34 0 0 1-3.32 0zM31.15 4.95v-1.6a2.35 2.35 0 1 1 4.7 0v1.6a2.35 2.35 0 1 1-4.7 0zM66 91.35a9.67 9.67 0 0 1-9.66 9.65H40.81a2.35 2.35 0 0 1 0-4.7h15.53a4.97 4.97 0 0 0 0-9.92H10.66a4.97 4.97 0 0 0 0 9.93h14.8l10.08-6.9a2.35 2.35 0 1 1 2.65 3.87l-10.67 7.31c-.4.27-.86.41-1.33.41H10.66a9.67 9.67 0 0 1 0-19.31h20.5V57.3a2.35 2.35 0 1 1 4.69 0v24.38h20.5A9.67 9.67 0 0 1 66 91.34zM1.6 64.19c0-6.04 3.44-11.65 9.68-15.8 5.95-3.94 13.8-6.11 22.13-6.11 8.33 0 16.2 2.17 22.14 6.12 6.24 4.14 9.68 9.75 9.68 15.79 0 1.3-1.05 2.34-2.35 2.34h-20.7a2.35 2.35 0 0 1-2.35-2.34V57.3a2.35 2.35 0 1 1 4.69 0v4.53h15.76c-.78-3.54-3.32-6.86-7.33-9.53-5.18-3.44-12.12-5.34-19.54-5.34-7.41 0-14.35 1.9-19.53 5.34-4.02 2.67-6.55 5.99-7.33 9.53H22.3v-4.53a2.35 2.35 0 1 1 4.7 0v6.88c0 1.3-1.06 2.34-2.36 2.34H3.94a2.35 2.35 0 0 1-2.35-2.34zm1.43-32.71c0-1.3 1.05-2.35 2.35-2.35h1.6a2.35 2.35 0 1 1 0 4.7h-1.6a2.35 2.35 0 0 1-2.35-2.35zm10.07-17.1a2.34 2.34 0 1 0 3.31-3.32l-1.13-1.14a2.35 2.35 0 1 0-3.32 3.32z"/></svg>