<svg xmlns="http://www.w3.org/2000/svg" width="90" height="79" viewBox="0 0 90 79"><path d="M89.45 76.45l-.77-3.59c-1.99-9.19-7.85-14.9-15.29-14.9h-3.48c-7.44 0-13.3 5.71-15.29 14.9l-.77 3.59a2.03 2.03 0 0 0 1.99 2.46h11.8a2.03 2.03 0 0 0 1.9-2.79l-2.5-6.18a2.03 2.03 0 1 0-3.77 1.52l1.37 3.39h-6.28l.24-1.13c.6-2.74 3.16-11.7 11.31-11.7h3.48c8.15 0 10.72 8.96 11.31 11.7l.25 1.13h-6.29l1.37-3.4a2.03 2.03 0 0 0-3.77-1.51l-2.5 6.18a2.03 2.03 0 0 0 1.9 2.8h11.8a2.03 2.03 0 0 0 2-2.47zM44.38 37.58a2.03 2.03 0 0 0 1.24 0 10.3 10.3 0 0 0 7.2-9.85c0-4.52-2.9-8.48-7.2-9.86-.4-.12-.84-.12-1.24 0a10.3 10.3 0 0 0-7.2 9.86c0 4.52 2.9 8.48 7.2 9.85zm.62-15.6a6.25 6.25 0 0 1 3.75 5.75A6.25 6.25 0 0 1 45 33.47a6.25 6.25 0 0 1-3.75-5.74A6.25 6.25 0 0 1 45 21.98zm0-14.6c1.12 0 2.03-.91 2.03-2.04V2.12a2.03 2.03 0 1 0-4.06 0v3.22c0 1.13.9 2.04 2.03 2.04zm26.03 46.34a2.03 2.03 0 0 0 1.24 0 10.3 10.3 0 0 0 7.2-9.85c0-4.52-2.9-8.48-7.2-9.85-.4-.13-.83-.13-1.24 0a10.3 10.3 0 0 0-7.2 9.85c0 4.52 2.9 8.48 7.2 9.85zm.62-15.6a6.25 6.25 0 0 1 3.75 5.75 6.25 6.25 0 0 1-3.75 5.74 6.25 6.25 0 0 1-3.75-5.74 6.25 6.25 0 0 1 3.75-5.74zM68.23 13.6a2.03 2.03 0 0 0 2.78-.74l1.6-2.8a2.03 2.03 0 0 0-3.51-2.03l-1.62 2.8c-.56.97-.22 2.2.75 2.77zm15.05 18.38c.34 0 .7-.09 1.01-.27l2.8-1.61a2.03 2.03 0 0 0-2.04-3.52l-2.8 1.6a2.03 2.03 0 0 0 1.03 3.8zM17.73 53.72a2.03 2.03 0 0 0 1.24 0 10.3 10.3 0 0 0 7.2-9.85c0-4.52-2.9-8.48-7.2-9.85-.4-.13-.84-.13-1.24 0a10.3 10.3 0 0 0-7.2 9.85c0 4.52 2.9 8.48 7.2 9.85zm.62-15.6a6.25 6.25 0 0 1 3.75 5.75 6.25 6.25 0 0 1-3.75 5.74 6.25 6.25 0 0 1-3.75-5.74 6.25 6.25 0 0 1 3.75-5.74zm.64-25.26a2.03 2.03 0 1 0 3.53-2.04L20.9 8.03a2.03 2.03 0 0 0-3.53 2.03zM2.92 30.1L5.7 31.7a2.03 2.03 0 1 0 2.03-3.52l-2.79-1.61a2.03 2.03 0 0 0-2.03 3.52zm37.47 23.7a2.03 2.03 0 1 0-3.77 1.51l1.37 3.4H36.1a2.03 2.03 0 1 0 0 4.06H41a2.03 2.03 0 0 0 1.88-2.8zm-5.02 19.06c-1.98-9.19-7.84-14.9-15.28-14.9H16.6c-7.45 0-13.3 5.71-15.29 14.9l-.77 3.59a2.03 2.03 0 0 0 1.98 2.46h11.82a2.03 2.03 0 0 0 1.88-2.79l-2.49-6.18a2.03 2.03 0 1 0-3.77 1.52l1.37 3.39H5.05l.25-1.13c.59-2.74 3.15-11.7 11.3-11.7h3.49c8.15 0 10.72 8.96 11.31 11.7l.24 1.13h-6.28l1.37-3.4a2.03 2.03 0 0 0-3.78-1.51l-2.49 6.18a2.03 2.03 0 0 0 1.89 2.8h11.81a2.03 2.03 0 0 0 1.99-2.47zm22.02-17.7a2.03 2.03 0 1 0 3.86-1.29c-2.55-7.66-7.84-12.05-14.51-12.05h-3.48c-6.67 0-11.96 4.39-14.51 12.05a2.03 2.03 0 1 0 3.86 1.29c1.15-3.47 4.07-9.28 10.65-9.28h3.48c6.58 0 9.5 5.81 10.65 9.28zm-2.8 7.6H49a2.03 2.03 0 0 1-1.88-2.78l2.49-6.19a2.03 2.03 0 1 1 3.77 1.52L52 58.71h2.58a2.03 2.03 0 1 1 0 4.06z"/><path fill="#fff" d="M89.45 76.45l-.77-3.59c-1.99-9.19-7.85-14.9-15.29-14.9h-3.48c-7.44 0-13.3 5.71-15.29 14.9l-.77 3.59a2.03 2.03 0 0 0 1.99 2.46h11.8a2.03 2.03 0 0 0 1.9-2.79l-2.5-6.18a2.03 2.03 0 1 0-3.77 1.52l1.37 3.39h-6.28l.24-1.13c.6-2.74 3.16-11.7 11.31-11.7h3.48c8.15 0 10.72 8.96 11.31 11.7l.25 1.13h-6.29l1.37-3.4a2.03 2.03 0 0 0-3.77-1.51l-2.5 6.18a2.03 2.03 0 0 0 1.9 2.8h11.8a2.03 2.03 0 0 0 2-2.47zM44.38 37.58a2.03 2.03 0 0 0 1.24 0 10.3 10.3 0 0 0 7.2-9.85c0-4.52-2.9-8.48-7.2-9.86-.4-.12-.84-.12-1.24 0a10.3 10.3 0 0 0-7.2 9.86c0 4.52 2.9 8.48 7.2 9.85zm.62-15.6a6.25 6.25 0 0 1 3.75 5.75A6.25 6.25 0 0 1 45 33.47a6.25 6.25 0 0 1-3.75-5.74A6.25 6.25 0 0 1 45 21.98zm0-14.6c1.12 0 2.03-.91 2.03-2.04V2.12a2.03 2.03 0 1 0-4.06 0v3.22c0 1.13.9 2.04 2.03 2.04zm26.03 46.34a2.03 2.03 0 0 0 1.24 0 10.3 10.3 0 0 0 7.2-9.85c0-4.52-2.9-8.48-7.2-9.85-.4-.13-.83-.13-1.24 0a10.3 10.3 0 0 0-7.2 9.85c0 4.52 2.9 8.48 7.2 9.85zm.62-15.6a6.25 6.25 0 0 1 3.75 5.75 6.25 6.25 0 0 1-3.75 5.74 6.25 6.25 0 0 1-3.75-5.74 6.25 6.25 0 0 1 3.75-5.74zM68.23 13.6a2.03 2.03 0 0 0 2.78-.74l1.6-2.8a2.03 2.03 0 0 0-3.51-2.03l-1.62 2.8c-.56.97-.22 2.2.75 2.77zm15.05 18.38c.34 0 .7-.09 1.01-.27l2.8-1.61a2.03 2.03 0 0 0-2.04-3.52l-2.8 1.6a2.03 2.03 0 0 0 1.03 3.8zM17.73 53.72a2.03 2.03 0 0 0 1.24 0 10.3 10.3 0 0 0 7.2-9.85c0-4.52-2.9-8.48-7.2-9.85-.4-.13-.84-.13-1.24 0a10.3 10.3 0 0 0-7.2 9.85c0 4.52 2.9 8.48 7.2 9.85zm.62-15.6a6.25 6.25 0 0 1 3.75 5.75 6.25 6.25 0 0 1-3.75 5.74 6.25 6.25 0 0 1-3.75-5.74 6.25 6.25 0 0 1 3.75-5.74zm.64-25.26a2.03 2.03 0 1 0 3.53-2.04L20.9 8.03a2.03 2.03 0 0 0-3.53 2.03zM2.92 30.1L5.7 31.7a2.03 2.03 0 1 0 2.03-3.52l-2.79-1.61a2.03 2.03 0 0 0-2.03 3.52zm37.47 23.7a2.03 2.03 0 1 0-3.77 1.51l1.37 3.4H36.1a2.03 2.03 0 1 0 0 4.06H41a2.03 2.03 0 0 0 1.88-2.8zm-5.02 19.06c-1.98-9.19-7.84-14.9-15.28-14.9H16.6c-7.45 0-13.3 5.71-15.29 14.9l-.77 3.59a2.03 2.03 0 0 0 1.98 2.46h11.82a2.03 2.03 0 0 0 1.88-2.79l-2.49-6.18a2.03 2.03 0 1 0-3.77 1.52l1.37 3.39H5.05l.25-1.13c.59-2.74 3.15-11.7 11.3-11.7h3.49c8.15 0 10.72 8.96 11.31 11.7l.24 1.13h-6.28l1.37-3.4a2.03 2.03 0 0 0-3.78-1.51l-2.49 6.18a2.03 2.03 0 0 0 1.89 2.8h11.81a2.03 2.03 0 0 0 1.99-2.47zm22.02-17.7a2.03 2.03 0 1 0 3.86-1.29c-2.55-7.66-7.84-12.05-14.51-12.05h-3.48c-6.67 0-11.96 4.39-14.51 12.05a2.03 2.03 0 1 0 3.86 1.29c1.15-3.47 4.07-9.28 10.65-9.28h3.48c6.58 0 9.5 5.81 10.65 9.28zm-2.8 7.6H49a2.03 2.03 0 0 1-1.88-2.78l2.49-6.19a2.03 2.03 0 1 1 3.77 1.52L52 58.71h2.58a2.03 2.03 0 1 1 0 4.06z"/></svg>