<svg xmlns="http://www.w3.org/2000/svg" width="71" height="80" viewBox="0 0 71 80"><path d="M26.72 28.78c0-5.24 3.35-9.83 8.35-11.42.37-.12.77-.12 1.15 0 4.99 1.59 8.34 6.18 8.34 11.42 0 5.25-3.35 9.84-8.34 11.43a1.88 1.88 0 0 1-1.15 0c-5-1.6-8.35-6.18-8.35-11.43zm3.78 0a8.18 8.18 0 0 0 5.14 7.62 8.18 8.18 0 0 0 5.14-7.62 8.18 8.18 0 0 0-5.14-7.61 8.18 8.18 0 0 0-5.14 7.61zm32.72 4.7c0-1.04.85-1.89 1.89-1.89h1.79a1.9 1.9 0 0 1 0 3.78H65.1a1.9 1.9 0 0 1-1.9-1.89zM33.75 4.01V2.22a1.9 1.9 0 0 1 3.78 0v1.8a1.9 1.9 0 1 1-3.78 0zm21.4 9.97a1.9 1.9 0 0 1 0-2.67l1.26-1.27a1.9 1.9 0 0 1 2.67 2.68l-1.26 1.26a1.89 1.89 0 0 1-2.68 0zm-8.06 50.8v8.94h2.95a1.9 1.9 0 0 1 0 3.78h-.35a1.9 1.9 0 0 1-1.83 2.4h-5.32a1.9 1.9 0 0 1-1.82-2.4h-.35a1.9 1.9 0 1 1 0-3.78h2.94v-8.94h-2.94a1.9 1.9 0 1 1 0-3.78h.35a1.9 1.9 0 0 1 1.82-2.4h5.32A1.9 1.9 0 0 1 49.7 61h.35a1.9 1.9 0 0 1 0 3.78zm23.07 5.05a1.9 1.9 0 0 1-1.89 1.9H54.58a1.9 1.9 0 0 1 0-3.79h11.66c-.66-4.45-3.66-8.62-8.6-11.9-5.88-3.9-13.73-6.05-22.1-6.05-8.38 0-16.23 2.14-22.11 6.05-4.94 3.28-7.94 7.45-8.6 11.9h11.66a1.9 1.9 0 0 1 0 3.78H2.79A1.9 1.9 0 0 1 .9 69.83c0-6.46 3.71-12.48 10.44-16.95 6.49-4.3 15.08-6.68 24.2-6.68 9.1 0 17.7 2.38 24.19 6.68 6.73 4.47 10.43 10.5 10.43 16.95zm-42.4-5.05v8.94h2.94a1.9 1.9 0 1 1 0 3.78h-.35a1.9 1.9 0 0 1-1.83 2.4h-5.31a1.9 1.9 0 0 1-1.83-2.4h-.35a1.9 1.9 0 1 1 0-3.78h2.94v-8.94h-2.94a1.9 1.9 0 1 1 0-3.78h.35a1.9 1.9 0 0 1 1.83-2.4h5.31a1.9 1.9 0 0 1 1.83 2.4h.35a1.9 1.9 0 1 1 0 3.78zM2.49 33.48c0-1.04.85-1.89 1.9-1.89h1.78a1.9 1.9 0 1 1 0 3.78H4.38c-1.04 0-1.89-.84-1.89-1.89zm10.98-19.5a1.89 1.89 0 0 0 2.67 0 1.9 1.9 0 0 0 0-2.67l-1.26-1.27a1.9 1.9 0 1 0-2.68 2.68z"/><path fill="#fff" d="M26.72 28.78c0-5.24 3.35-9.83 8.35-11.42.37-.12.77-.12 1.15 0 4.99 1.59 8.34 6.18 8.34 11.42 0 5.25-3.35 9.84-8.34 11.43a1.88 1.88 0 0 1-1.15 0c-5-1.6-8.35-6.18-8.35-11.43zm3.78 0a8.18 8.18 0 0 0 5.14 7.62 8.18 8.18 0 0 0 5.14-7.62 8.18 8.18 0 0 0-5.14-7.61 8.18 8.18 0 0 0-5.14 7.61zm32.72 4.7c0-1.04.85-1.89 1.89-1.89h1.79a1.9 1.9 0 0 1 0 3.78H65.1a1.9 1.9 0 0 1-1.9-1.89zM33.75 4.01V2.22a1.9 1.9 0 0 1 3.78 0v1.8a1.9 1.9 0 1 1-3.78 0zm21.4 9.97a1.9 1.9 0 0 1 0-2.67l1.26-1.27a1.9 1.9 0 0 1 2.67 2.68l-1.26 1.26a1.89 1.89 0 0 1-2.68 0zm-8.06 50.8v8.94h2.95a1.9 1.9 0 0 1 0 3.78h-.35a1.9 1.9 0 0 1-1.83 2.4h-5.32a1.9 1.9 0 0 1-1.82-2.4h-.35a1.9 1.9 0 1 1 0-3.78h2.94v-8.94h-2.94a1.9 1.9 0 1 1 0-3.78h.35a1.9 1.9 0 0 1 1.82-2.4h5.32A1.9 1.9 0 0 1 49.7 61h.35a1.9 1.9 0 0 1 0 3.78zm23.07 5.05a1.9 1.9 0 0 1-1.89 1.9H54.58a1.9 1.9 0 0 1 0-3.79h11.66c-.66-4.45-3.66-8.62-8.6-11.9-5.88-3.9-13.73-6.05-22.1-6.05-8.38 0-16.23 2.14-22.11 6.05-4.94 3.28-7.94 7.45-8.6 11.9h11.66a1.9 1.9 0 0 1 0 3.78H2.79A1.9 1.9 0 0 1 .9 69.83c0-6.46 3.71-12.48 10.44-16.95 6.49-4.3 15.08-6.68 24.2-6.68 9.1 0 17.7 2.38 24.19 6.68 6.73 4.47 10.43 10.5 10.43 16.95zm-42.4-5.05v8.94h2.94a1.9 1.9 0 1 1 0 3.78h-.35a1.9 1.9 0 0 1-1.83 2.4h-5.31a1.9 1.9 0 0 1-1.83-2.4h-.35a1.9 1.9 0 1 1 0-3.78h2.94v-8.94h-2.94a1.9 1.9 0 1 1 0-3.78h.35a1.9 1.9 0 0 1 1.83-2.4h5.31a1.9 1.9 0 0 1 1.83 2.4h.35a1.9 1.9 0 1 1 0 3.78zM2.49 33.48c0-1.04.85-1.89 1.9-1.89h1.78a1.9 1.9 0 1 1 0 3.78H4.38c-1.04 0-1.89-.84-1.89-1.89zm10.98-19.5a1.89 1.89 0 0 0 2.67 0 1.9 1.9 0 0 0 0-2.67l-1.26-1.27a1.9 1.9 0 1 0-2.68 2.68z"/></svg>