<svg xmlns="http://www.w3.org/2000/svg" viewBox="0 0 512 512"><title>calendar</title><g id="Слой_2" data-name="Слой 2"><g id="Capa_1" data-name="Capa 1"><path d="M448,48V0H416V48H96V0H64V48H0V512H406.62L512,406.62V48ZM416,457.38V416h41.38ZM480,128H192v32H480V384H384v96H32V160H96V128H32V80H480Z"/><rect x="128" y="128" width="32" height="32"/><path d="M80,304h96V208H80Zm32-64h32v32H112Z"/><path d="M304,208H208v96h96Zm-32,64H240V240h32Z"/><path d="M432,208H336v96h96Zm-32,64H368V240h32Z"/><path d="M80,432h96V336H80Zm32-64h32v32H112Z"/><path d="M304,336H208v96h96Zm-32,64H240V368h32Z"/></g></g></svg>