<svg xmlns="http://www.w3.org/2000/svg" viewBox="0 0 511.98 512"><title>mon</title><g id="Слой_2" data-name="Слой 2"><g id="Capa_1" data-name="Capa 1"><path d="M462,144H451.21L310.15,2.93a10,10,0,0,0-14.14,0L259.87,39.07,115.35.34A10,10,0,0,0,103.1,7.41L66.51,144H42A42,42,0,0,0,0,186c0,.55,0,1.11,0,1.66,0,.27,0,.55,0,.83V462a50.06,50.06,0,0,0,50,50H462a50.05,50.05,0,0,0,50-50V194A50.05,50.05,0,0,0,462,144Zm-8.93,20H462a30,30,0,0,1,30,30v80.14a23.73,23.73,0,0,1-23.7,23.7H458V258a50,50,0,0,0-49-50ZM269.93,57.29h0l33.14-33.15L433.85,154.91,381.1,207.66H362.8l23.93-23.93a10,10,0,0,0,0-14.14,20.78,20.78,0,0,1,0-29.36,10,10,0,0,0,0-14.14L331.9,71.26a10,10,0,0,0-14.14,0,20.78,20.78,0,0,1-29.36,0,10,10,0,0,0-14.14,0l-136.4,136.4H119.56ZM240.5,170.09a47.79,47.79,0,0,0-46.62,37.57H166.14L282.21,91.59a40.9,40.9,0,0,0,41.75,0L366.4,134a40.91,40.91,0,0,0,0,41.75l-31.88,31.88H287.12A47.79,47.79,0,0,0,240.5,170.09Zm25.79,37.57H214.72a27.7,27.7,0,0,1,51.57,0ZM109,189.95l26.48-98.83a40.88,40.88,0,0,0,36.17-20.88l45,12.06L151.34,147.6Zm10.84-167.7L243.54,55.4,233,66,168.35,48.64a10,10,0,0,0-12.25,7.07,20.76,20.76,0,0,1-25.43,14.68,10,10,0,0,0-12.25,7.07L83.46,208H70.06ZM42,164H61.15L49.36,208H42a22,22,0,1,1,0-44ZM492,462a30,30,0,0,1-30,30H448a49.73,49.73,0,0,0,10-30V421.82h6a47.72,47.72,0,0,0,28-9Zm0-88.16a28,28,0,0,1-28,28H254a42,42,0,0,1,0-84H284.3a10,10,0,0,0,0-20H254a62,62,0,1,0,0,124H438V462a30,30,0,0,1-29.54,30H68V379.39a10,10,0,0,0-20,0V491.93A30,30,0,0,1,20,462V221.74A41.74,41.74,0,0,0,42,228H408a30,30,0,0,1,30,30v39.85h-72.3a10,10,0,1,0,0,20h102.6a43.42,43.42,0,0,0,23.7-7v63Z"/></g></g></svg>