<svg width="10" height="12" viewBox="0 0 10 12" version="1.1" xmlns="http://www.w3.org/2000/svg" xmlns:xlink="http://www.w3.org/1999/xlink">
<title>Page 1 Copy</title>
<desc>Created using Figma</desc>
<g id="Canvas" transform="translate(-3488 -2314)">
<g id="Page 1 Copy">
<use xlink:href="#path0_fill" transform="translate(3489 2315)" fill="#B01116"/>
<use xlink:href="#path1_stroke" transform="translate(3489 2315)" fill="#B01116"/>
</g>
</g>
<defs>
<path id="path0_fill" fill-rule="evenodd" d="M 0.0957466 9.22006C 0.212069 9.1382 0.314202 9.04739 0.435056 8.96861C 2.47077 7.64155 4.50682 6.31478 6.5486 4.99173C 6.70231 4.89216 6.73281 4.83654 6.56067 4.7251C 4.46007 3.36475 2.36711 1.99939 0.275428 0.633229C 0.110182 0.525322 -0.0829984 0.409909 0.0377579 0.231368C 0.216749 -0.0331069 0.649964 -0.078143 0.977745 0.134111C 1.93601 0.754481 2.88999 1.37767 3.84565 1.99981C 5.14307 2.84446 6.44055 3.68905 7.73754 4.53396C 8.0834 4.75923 8.08724 4.94775 7.75025 5.16706C 5.50825 6.62618 3.26704 8.08585 1.02041 9.54198C 0.895418 9.62298 0.724803 9.67411 0.575372 9.73913C 0.186794 9.73291 -0.172814 9.40912 0.0957466 9.22006Z"/>
<path id="path1_stroke" d="M 0.0957466 9.22006L -0.19201 8.81116L -0.192076 8.81121L 0.0957466 9.22006ZM 0.435056 8.96861L 0.7081 9.38747L 0.708107 9.38747L 0.435056 8.96861ZM 6.5486 4.99173L 6.27677 4.57207L 6.27669 4.57212L 6.5486 4.99173ZM 6.56067 4.7251L 6.28888 5.14479L 6.28896 5.14484L 6.56067 4.7251ZM 0.275428 0.633229L 0.548845 0.214609L 0.548807 0.214585L 0.275428 0.633229ZM 0.0377579 0.231368L -0.376325 -0.0488741L -0.376407 -0.0487525L 0.0377579 0.231368ZM 0.977745 0.134111L 0.705975 0.553802L 0.706022 0.553833L 0.977745 0.134111ZM 3.84565 1.99981L 4.11844 1.58078L 4.11844 1.58078L 3.84565 1.99981ZM 7.73754 4.53396L 7.46462 4.9529L 7.46464 4.95292L 7.73754 4.53396ZM 7.75025 5.16706L 7.47752 4.74799L 7.47751 4.748L 7.75025 5.16706ZM 1.02041 9.54198L 1.29231 9.96159L 1.29236 9.96156L 1.02041 9.54198ZM 0.575372 9.73913L 0.567366 10.2391L 0.675604 10.2408L 0.774865 10.1976L 0.575372 9.73913ZM 0.383503 9.62896C 0.522564 9.53011 0.617683 9.44475 0.7081 9.38747L 0.162013 8.54974C 0.0107207 8.65002 -0.0984263 8.74629 -0.19201 8.81116L 0.383503 9.62896ZM 0.708107 9.38747C 2.74378 8.06043 4.77926 6.73404 6.8205 5.41134L 6.27669 4.57212C 4.23439 5.89552 2.19775 7.22266 0.162006 8.54975L 0.708107 9.38747ZM 6.82042 5.41139C 6.86919 5.37961 6.93804 5.32864 6.98617 5.28407C 7.03914 5.23312 7.1479 5.11472 7.17252 4.92835C 7.20006 4.71989 7.10735 4.56284 7.03506 4.47722C 6.98319 4.4194 6.8964 4.34759 6.83238 4.30537L 6.28896 5.14484C 6.31851 5.16397 6.29982 5.1565 6.27098 5.12233C 6.23658 5.08159 6.15892 4.96556 6.18113 4.79739C 6.20043 4.6513 6.28351 4.57244 6.2929 4.5634C 6.30722 4.54962 6.31 4.55055 6.27677 4.57207L 6.82042 5.41139ZM 6.83245 4.30542C 4.73256 2.94552 2.64041 1.5807 0.548845 0.214609L 0.00200988 1.05185C 2.09381 2.41809 4.18758 3.78398 6.28888 5.14479L 6.83245 4.30542ZM 0.548807 0.214585C 0.505189 0.18611 0.472903 0.165813 0.446251 0.146068C 0.42011 0.127 0.422084 0.125045 0.43353 0.138787C 0.4463 0.154118 0.489007 0.211072 0.498296 0.30521C 0.508359 0.407198 0.472528 0.481024 0.451923 0.511489L -0.376407 -0.0487525C -0.45739 0.0709833 -0.514357 0.226189 -0.496872 0.403403C -0.4748 0.534557 -0.393788 0.703542 -0.334846 0.778786C -0.220871 0.915623 -0.0496801 1.0181 0.00204776 1.05187L 0.548807 0.214585ZM 0.45184 0.511611C 0.440298 0.528665 0.443125 0.507558 0.50349 0.501303C 0.561685 0.495273 0.637852 0.50969 0.705975 0.553802L 1.24952 -0.285581C 0.773191 -0.594024 0.00353348 -0.610147 -0.376324 -0.048874L 0.45184 0.511611ZM 0.706022 0.553833C 1.66342 1.17364 2.61687 1.79649 3.57286 2.41884L 4.11844 1.58078C 3.16311 0.958859 2.2086 0.33532 1.24947 -0.285611L 0.706022 0.553833ZM 3.57285 2.41883C 4.87029 3.26349 6.16771 4.10804 7.46462 4.9529L 8.01045 4.11501C 6.7134 3.27006 5.41586 2.42543 4.11844 1.58078L 3.57285 2.41883ZM 7.46464 4.95292C 7.52958 4.99522 7.54886 5.01735 7.54781 5.01609C 7.54446 5.01205 7.50199 4.95829 7.50006 4.86282C 7.49809 4.76504 7.54016 4.70554 7.54863 4.69496C 7.55762 4.67983 7.53673 4.71057 7.47752 4.74799L 8.02297 5.58613C 8.19662 5.47313 8.50779 5.2363 8.49986 4.84268C 8.49215 4.46006 8.18531 4.2289 8.01043 4.11499L 7.46464 4.95292ZM 7.47751 4.748C 5.23545 6.20716 2.99463 7.66657 0.748465 9.12241L 1.29236 9.96156C 3.53945 8.50512 5.78105 7.0452 8.02298 5.58613L 7.47751 4.748ZM 0.74851 9.12238C 0.719238 9.14313 0.688464 9.15534 0.620053 9.18283C 0.551283 9.21065 0.464964 9.24215 0.375879 9.28065L 0.774865 10.1976C 0.835211 10.1711 0.908915 10.1445 0.994058 10.1103C 1.07956 10.0757 1.19659 10.0218 1.29231 9.96159L 0.74851 9.12238ZM 0.583378 9.23919C 0.537305 9.24108 0.532245 9.239 0.486892 9.21874C 0.453447 9.20516 0.440442 9.19235 0.443446 9.19537C 0.445593 9.19752 0.457368 9.20966 0.470215 9.23426C 0.483289 9.25929 0.500335 9.30309 0.502432 9.36237C 0.504648 9.42499 0.489354 9.48754 0.459476 9.54085C 0.43116 9.59137 0.398443 9.61844 0.383569 9.62891L -0.192076 8.81121C -0.36506 8.93299 -0.506209 9.13585 -0.496942 9.39773C -0.488808 9.62759 -0.366919 9.79877 -0.265182 9.90095C -0.0604595 10.1066 0.254595 10.2341 0.567366 10.2391L 0.583378 9.23919Z"/>
</defs>
</svg>
