<?xml version="1.0" encoding="UTF-8" standalone="no"?>
<!-- Created with Inkscape (http://www.inkscape.org/) -->

<svg
   xmlns:dc="http://purl.org/dc/elements/1.1/"
   xmlns:cc="http://creativecommons.org/ns#"
   xmlns:rdf="http://www.w3.org/1999/02/22-rdf-syntax-ns#"
   xmlns:svg="http://www.w3.org/2000/svg"
   xmlns="http://www.w3.org/2000/svg"
   xmlns:sodipodi="http://sodipodi.sourceforge.net/DTD/sodipodi-0.dtd"
   xmlns:inkscape="http://www.inkscape.org/namespaces/inkscape"
   width="107.68539mm"
   height="119.06249mm"
   viewBox="0 0 107.68539 119.06249"
   version="1.1"
   id="svg8"
   inkscape:version="0.92.1 r15371"
   sodipodi:docname="calend-1.svg">
  <defs
     id="defs2">
    <path
       d="M 10.1852,22 H 0 V 0 h 10.1852 10.1852 v 22 z"
       id="path0_fill"
       inkscape:connector-curvature="0"
       style="fill-rule:evenodd" />
    <path
       d="M 1.35718,20.6294 H 19.011 V 5.51758 H 1.35718 Z M 20.3702,0.125639 C 20.3702,0.0847316 20.3677,0.0409425 20.3663,0 H 17.6557 V 1.37061 H 14.9451 V 0 H 5.42316 V 1.37061 H 2.71254 V 0 H 0.00192577 C 5.70456e-4,0.0760511 1.44317e-5,0.152173 1.44317e-5,0.228224 -1.94077e-4,7.40272 0.00192577,14.5772 0.00192577,21.7517 V 22 H 20.3616 c 0.0029,-0.0703 0.0084,-0.1163 0.0084,-0.1723 5e-4,-7.2331 4e-4,-14.46898 2e-4,-21.702061 z"
       id="path1_fill"
       inkscape:connector-curvature="0"
       style="fill-rule:evenodd" />
    <path
       d="M 0,2.44444 H 2.44444 V 0 H 0 Z"
       id="path2_fill"
       inkscape:connector-curvature="0"
       style="fill-rule:evenodd" />
  </defs>
  <sodipodi:namedview
     id="base"
     pagecolor="#ffffff"
     bordercolor="#666666"
     borderopacity="1.0"
     inkscape:pageopacity="0.0"
     inkscape:pageshadow="2"
     inkscape:zoom="1.4"
     inkscape:cx="134.95388"
     inkscape:cy="216.31358"
     inkscape:document-units="mm"
     inkscape:current-layer="g107"
     showgrid="false"
     inkscape:window-width="1920"
     inkscape:window-height="1027"
     inkscape:window-x="1358"
     inkscape:window-y="-8"
     inkscape:window-maximized="1"
     fit-margin-top="0"
     fit-margin-left="0"
     fit-margin-right="0"
     fit-margin-bottom="0" />
  <metadata
     id="metadata5">
    <rdf:RDF>
      <cc:Work
         rdf:about="">
        <dc:format>image/svg+xml</dc:format>
        <dc:type
           rdf:resource="http://purl.org/dc/dcmitype/StillImage" />
        <dc:title></dc:title>
      </cc:Work>
    </rdf:RDF>
  </metadata>
  <g
     inkscape:label="Layer 1"
     inkscape:groupmode="layer"
     id="layer1"
     transform="translate(-6.7744623,-76.205436)">
    <g
       id="g107"
       transform="translate(-3.7797617,-0.75595238)">
      <path
         style="fill:#fcfcfc;stroke-width:0.26458332"
         d="m 37.496677,196.09004 c 14.89111,-0.0378 39.179861,-0.0378 53.975002,1e-5 14.795141,0.0378 2.611506,0.0687 -27.074745,0.0687 -29.686251,-1e-5 -41.791366,-0.0309 -26.900257,-0.0687 z m -19.676531,-7.80522 c -0.06919,-0.1819 -0.09522,-18.54729 -0.05784,-40.81198 l 0.06796,-40.48124 H 64.396934 110.9636 l 0.067,40.81197 0.067,40.81198 H 64.521759 c -37.017163,0 -46.601628,-0.0679 -46.701613,-0.33073 z m 18.389353,-10.23521 c 0.324863,-0.60701 0.372838,-11.88727 0.0527,-12.39165 -0.164405,-0.25903 -1.629321,-0.31948 -6.412095,-0.26459 l -6.199008,0.0711 -0.07117,6.21223 c -0.03914,3.41673 -0.01311,6.36353 0.05784,6.54844 0.09915,0.2584 1.537137,0.33621 6.213425,0.33621 5.74469,0 6.099705,-0.0286 6.358304,-0.51178 z M 57.78235,171.9468 v -6.48229 h -6.217708 -6.217709 l -0.07117,6.21223 c -0.03914,3.41673 -0.01228,6.36573 0.05972,6.55333 0.102743,0.26775 1.455068,0.32583 6.288879,0.27006 l 6.157989,-0.071 z m 21.510626,6.29709 c 0.367456,-0.36746 0.45661,-12.01827 0.09631,-12.58593 -0.164404,-0.25903 -1.62932,-0.31948 -6.412095,-0.26459 l -6.199008,0.0711 -0.07117,6.21223 c -0.03915,3.41673 -0.01312,6.36353 0.05784,6.54844 0.180277,0.4698 12.059299,0.48753 12.528122,0.0187 z M 36.322792,155.91787 c 0.281223,-0.73285 0.179724,-11.75137 -0.113293,-12.29888 -0.25798,-0.48204 -0.610277,-0.51177 -6.063777,-0.51177 -3.184437,0 -5.978217,0.0723 -6.2084,0.1606 -0.365358,0.1402 -0.418514,0.95792 -0.418514,6.43819 0,3.45268 0.07937,6.35697 0.176389,6.45399 0.09701,0.097 2.941775,0.17639 6.321692,0.17639 5.359638,0 6.165837,-0.0535 6.305903,-0.41852 z m 21.530604,-6.04513 c 0.05486,-4.88869 -0.0054,-6.3799 -0.264583,-6.54439 -0.387641,-0.24604 -11.327879,-0.30143 -11.955656,-0.0605 -0.36536,0.1402 -0.418515,0.95792 -0.418515,6.43819 0,3.45268 0.08152,6.35911 0.181144,6.45874 0.09963,0.0996 2.927366,0.14924 6.283854,0.11025 l 6.10271,-0.0709 z m 21.596481,6.04513 c 0.281223,-0.73285 0.179723,-11.75137 -0.113292,-12.29888 -0.25798,-0.48204 -0.610278,-0.51177 -6.063779,-0.51177 -3.184436,0 -5.978216,0.0723 -6.208398,0.1606 -0.365361,0.1402 -0.418516,0.95792 -0.418516,6.43819 0,3.45268 0.07937,6.35697 0.17639,6.45399 0.09701,0.097 2.941775,0.17639 6.321693,0.17639 5.359638,0 6.165834,-0.0535 6.305902,-0.41852 z m 21.530603,-6.04513 c 0.0549,-4.88869 -0.005,-6.3799 -0.26458,-6.54439 -0.38764,-0.24604 -11.327881,-0.30143 -11.955658,-0.0605 -0.365361,0.1402 -0.418516,0.95792 -0.418516,6.43819 0,3.45268 0.08152,6.35911 0.181145,6.45874 0.09963,0.0996 2.927366,0.14924 6.283854,0.11025 l 6.102715,-0.0709 z M 57.78235,127.76139 v -6.48229 h -6.217708 -6.217709 l -0.07117,6.21223 c -0.03914,3.41673 -0.01228,6.36573 0.05972,6.55333 0.102743,0.26775 1.455068,0.32582 6.288879,0.27006 l 6.157989,-0.071 z m 21.510626,6.29708 c 0.367456,-0.36746 0.45661,-12.01827 0.09631,-12.58593 -0.164404,-0.25902 -1.62932,-0.31947 -6.412095,-0.26458 l -6.199008,0.0711 -0.07117,6.21223 c -0.03915,3.41673 -0.01312,6.36352 0.05784,6.54844 0.180277,0.46979 12.059299,0.48752 12.528122,0.0187 z m 21.616464,-6.29708 v -6.48229 h -6.217713 -6.217709 l -0.07117,6.21223 c -0.03915,3.41673 -0.01228,6.36573 0.05972,6.55333 0.102743,0.26775 1.455068,0.32582 6.288879,0.27006 l 6.157993,-0.071 z M 25.018113,84.193332 c -0.09701,-0.09701 -0.176389,-1.763889 -0.176389,-3.704166 v -3.527778 h 7.143751 7.14375 v 3.704167 3.704166 h -6.967361 c -3.832049,0 -7.046737,-0.07937 -7.143751,-0.176389 z m 64.827217,0.0043 c -0.09938,-0.09938 -0.180687,-1.768189 -0.180687,-3.708466 v -3.527778 h 7.151217 7.15122 l -0.0736,3.638021 -0.0736,3.63802 -6.896916,0.07044 c -3.793305,0.03874 -6.978227,-0.01086 -7.077604,-0.110243 z"
         id="path111"
         inkscape:connector-curvature="0" />
      <path
         style="fill:#9c9c9c;stroke-width:0.26458332"
         d="M 10.554224,136.49264 V 76.961388 h 7.136284 7.136284 l 0.07361,3.638021 0.07361,3.63802 7.077604,0.07047 7.077605,0.07047 V 80.669876 76.961388 H 64.389467 89.64971 l 0.07361,3.638021 0.07361,3.63802 h 7.011458 7.011462 l 0.0736,-3.63802 0.0736,-3.638021 h 7.13628 7.13628 v 59.531252 59.53124 H 64.396934 10.554224 Z m 100.476356,11.31093 -0.067,-40.81197 H 64.396934 17.830266 l -0.06796,40.48124 c -0.03738,22.26469 -0.01135,40.63008 0.05784,40.81198 0.09999,0.26286 9.68445,0.33073 46.701613,0.33073 h 46.575811 z m -87.39281,30.42161 c -0.07096,-0.18491 -0.09699,-3.13171 -0.05784,-6.54844 l 0.07117,-6.21223 6.199008,-0.0711 c 4.782774,-0.0549 6.24769,0.006 6.412095,0.26459 0.320135,0.50438 0.27216,11.78464 -0.0527,12.39165 -0.258599,0.4832 -0.613614,0.51178 -6.358304,0.51178 -4.676288,0 -6.11427,-0.0778 -6.213425,-0.33621 z m 21.697712,0.005 c -0.07199,-0.18761 -0.09886,-3.1366 -0.05972,-6.55333 l 0.07117,-6.21224 h 6.217709 6.217708 v 6.48229 6.48229 l -6.157989,0.071 c -4.833811,0.0558 -6.186136,-0.002 -6.288879,-0.27006 z m 21.429372,-0.005 c -0.07096,-0.18491 -0.09699,-3.13171 -0.05784,-6.54844 l 0.07117,-6.21223 6.199008,-0.0711 c 4.782775,-0.0549 6.247691,0.006 6.412095,0.26459 0.360299,0.56766 0.271145,12.21847 -0.09631,12.58593 -0.468823,0.46882 -12.347845,0.45109 -12.528122,-0.0187 z M 23.695197,156.16 c -0.09701,-0.097 -0.176389,-3.00131 -0.176389,-6.45399 0,-5.48027 0.05316,-6.29799 0.418514,-6.43819 0.230183,-0.0883 3.023963,-0.1606 6.2084,-0.1606 5.4535,0 5.805797,0.0297 6.063777,0.51177 0.293017,0.54751 0.394516,11.56603 0.113293,12.29888 -0.140066,0.36501 -0.946265,0.41852 -6.305903,0.41852 -3.379917,0 -6.224679,-0.0794 -6.321692,-0.17639 z m 21.700589,0.005 c -0.09963,-0.0996 -0.181144,-3.00607 -0.181144,-6.45875 0,-5.48027 0.05316,-6.29799 0.418515,-6.43819 0.627777,-0.2409 11.568015,-0.18551 11.955656,0.0605 0.259154,0.16449 0.319442,1.6557 0.264583,6.54439 l -0.07105,6.33135 -6.10271,0.0709 c -3.356488,0.039 -6.184222,-0.0106 -6.283854,-0.11025 z m 21.426496,-0.005 c -0.09701,-0.097 -0.17639,-3.00131 -0.17639,-6.45399 0,-5.48027 0.05315,-6.29799 0.418516,-6.43819 0.230182,-0.0883 3.023962,-0.1606 6.208398,-0.1606 5.453501,0 5.805799,0.0297 6.063779,0.51177 0.293015,0.54751 0.394515,11.56603 0.113292,12.29888 -0.140068,0.36501 -0.946264,0.41852 -6.305902,0.41852 -3.379918,0 -6.224681,-0.0794 -6.321693,-0.17639 z m 21.700589,0.005 c -0.09963,-0.0996 -0.181145,-3.00607 -0.181145,-6.45875 0,-5.48027 0.05316,-6.29799 0.418516,-6.43819 0.627777,-0.2409 11.568018,-0.18551 11.955658,0.0605 0.25915,0.16449 0.31944,1.6557 0.26458,6.54439 l -0.071,6.33135 -6.102715,0.0709 c -3.356488,0.039 -6.184223,-0.0106 -6.283854,-0.11025 z M 45.335482,134.0449 c -0.07199,-0.1876 -0.09886,-3.1366 -0.05972,-6.55333 l 0.07117,-6.21223 h 6.217709 6.217708 v 6.48229 6.48229 l -6.157989,0.071 c -4.833811,0.0558 -6.186136,-0.002 -6.288879,-0.27006 z m 21.429372,-0.005 c -0.07096,-0.18491 -0.09699,-3.13171 -0.05784,-6.54843 l 0.07117,-6.21223 6.199008,-0.0711 c 4.782775,-0.0549 6.247691,0.006 6.412095,0.26458 0.360299,0.56766 0.271145,12.21847 -0.09631,12.58593 -0.468823,0.46882 -12.347845,0.45109 -12.528122,-0.0187 z m 21.697713,0.005 c -0.07199,-0.1876 -0.09886,-3.1366 -0.05972,-6.55333 l 0.07117,-6.21223 h 6.217709 6.217714 v 6.48229 6.48229 l -6.157995,0.071 c -4.833811,0.0558 -6.186136,-0.002 -6.288879,-0.27006 z"
         id="path109"
         inkscape:connector-curvature="0" />
    </g>
  </g>
</svg>
