<svg width="21" height="22" viewBox="0 0 21 22" version="1.1" xmlns="http://www.w3.org/2000/svg" xmlns:xlink="http://www.w3.org/1999/xlink">
<title>Group 10 Copy</title>
<desc>Created using Figma</desc>
<g id="Canvas" transform="translate(-3553 -2023)">
<g id="Group 10 Copy">
<g id="Page 1">
<mask id="mask0_outline" mask-type="alpha">
<g id="Clip 2">
<use xlink:href="#path0_fill" transform="translate(3553 2023)" fill="#FFFFFF"/>
</g>
</mask>
<g id="Fill 1" mask="url(#mask0_outline)">
<use xlink:href="#path1_fill" transform="translate(3553 2023)" fill="#9B9B9B"/>
</g>
<g id="Fill 3" mask="url(#mask0_outline)">
<use xlink:href="#path2_fill" transform="translate(3559.52 2031.15)" fill="#9B9B9B"/>
</g>
<g id="Fill 4" mask="url(#mask0_outline)">
<use xlink:href="#path2_fill" transform="translate(3563.59 2031.15)" fill="#9B9B9B"/>
</g>
<g id="Fill 5" mask="url(#mask0_outline)">
<use xlink:href="#path2_fill" transform="translate(3567.67 2031.15)" fill="#9B9B9B"/>
</g>
<g id="Fill 6" mask="url(#mask0_outline)">
<use xlink:href="#path2_fill" transform="translate(3555.44 2035.22)" fill="#9B9B9B"/>
</g>
<g id="Fill 7" mask="url(#mask0_outline)">
<use xlink:href="#path2_fill" transform="translate(3559.52 2035.22)" fill="#9B9B9B"/>
</g>
<g id="Fill 8" mask="url(#mask0_outline)">
<use xlink:href="#path2_fill" transform="translate(3563.59 2035.22)" fill="#9B9B9B"/>
</g>
<g id="Fill 9" mask="url(#mask0_outline)">
<use xlink:href="#path2_fill" transform="translate(3567.67 2035.22)" fill="#9B9B9B"/>
</g>
<g id="Fill 10" mask="url(#mask0_outline)">
<use xlink:href="#path2_fill" transform="translate(3555.44 2039.3)" fill="#9B9B9B"/>
</g>
<g id="Fill 11" mask="url(#mask0_outline)">
<use xlink:href="#path2_fill" transform="translate(3559.52 2039.3)" fill="#9B9B9B"/>
</g>
<g id="Fill 12" mask="url(#mask0_outline)">
<use xlink:href="#path2_fill" transform="translate(3563.59 2039.3)" fill="#9B9B9B"/>
</g>
</g>
</g>
</g>
<defs>
<path id="path0_fill" fill-rule="evenodd" d="M 10.1852 22L 0 22L 0 0L 10.1852 0L 20.3704 0L 20.3704 22L 10.1852 22Z"/>
<path id="path1_fill" fill-rule="evenodd" d="M 1.35718 20.6294L 19.011 20.6294L 19.011 5.51758L 1.35718 5.51758L 1.35718 20.6294ZM 20.3702 0.125639C 20.3702 0.0847316 20.3677 0.0409425 20.3663 0L 17.6557 0L 17.6557 1.37061L 14.9451 1.37061L 14.9451 0L 5.42316 0L 5.42316 1.37061L 2.71254 1.37061L 2.71254 0L 0.00192577 0C 0.000570456 0.0760511 1.44317e-05 0.152173 1.44317e-05 0.228224C -0.000194077 7.40272 0.00192577 14.5772 0.00192577 21.7517L 0.00192577 22L 20.3616 22C 20.3645 21.9297 20.37 21.8837 20.37 21.8277C 20.3705 14.5946 20.3704 7.35872 20.3702 0.125639Z"/>
<path id="path2_fill" fill-rule="evenodd" d="M 0 2.44444L 2.44444 2.44444L 2.44444 0L 0 0L 0 2.44444Z"/>
</defs>
</svg>
