<svg width="15" height="19" viewBox="0 0 15 19" version="1.1" xmlns="http://www.w3.org/2000/svg" xmlns:xlink="http://www.w3.org/1999/xlink">
<title>Page 1</title>
<desc>Created using Figma</desc>
<g id="Canvas" transform="translate(-3577 -2112)">
<g id="Page 1">
<g id="Group 3">
<mask id="mask0_outline" mask-type="alpha">
<g id="Clip 2">
<use xlink:href="#path0_fill" transform="translate(3578.06 2115.07)" fill="#FFFFFF"/>
</g>
</mask>
<g id="Fill 1" mask="url(#mask0_outline)">
<use xlink:href="#path1_fill" transform="translate(3578.06 2115.07)" fill="#9B9B9B"/>
</g>
</g>
<g id="Fill 4">
<use xlink:href="#path2_fill" transform="translate(3577 2112)" fill="#9B9B9B"/>
</g>
</g>
</g>
<defs>
<path id="path0_fill" fill-rule="evenodd" d="M 0 15.4725L 13.1558 15.4725L 13.1558 0L 2.0444e-16 0L 0 15.4725Z"/>
<path id="path1_fill" fill-rule="evenodd" d="M 11.5363 13.0048L 9.92505 13.0048L 9.92505 12.8824C 9.92505 9.31393 9.93909 5.74521 9.93598 2.1766C 9.93587 2.03947 9.96821 1.97915 10.1208 1.98309C 10.543 1.99411 10.9722 1.98379 11.3946 1.98379L 11.5363 1.98379L 11.5363 13.0048ZM 7.39308 13.0047L 5.78183 13.0047L 5.78183 12.8817C 5.78183 9.31786 5.77573 5.75377 5.77124 2.1898C 5.77101 2.034 5.80024 1.97774 5.9639 1.98272C 6.37558 1.99525 6.78414 1.98365 7.19617 1.98365L 7.39308 1.98365L 7.39308 13.0047ZM 3.22758 2.12393C 3.22344 2.16024 3.24968 2.19748 3.24968 2.23426L 3.24968 12.8287L 3.24968 13.0048L 1.63843 13.0048L 1.63843 2.00513C 1.63843 1.99933 1.68584 1.99098 1.716 1.99098C 2.17474 1.99017 2.63372 1.99249 3.09258 1.98854C 3.19363 1.98762 3.23886 2.0201 3.22758 2.12393ZM 12.9648 0.000580948C 8.70894 0.00452532 4.45293 0.00475734 0.197036 8.93539e-07C 0.0352199 -0.000231128 -0.000342789 0.0446651 2.47997e-06 0.202324C 0.00518151 2.4788 0.00345517 4.75517 0.00345517 7.03165C 0.00345517 9.24491 0.00345517 11.4583 0.00368534 13.6716C 0.00368534 13.74 0.00345517 13.8084 0.00713803 13.8766C 0.0582378 14.8053 0.733238 15.4682 1.6543 15.4695C 4.93493 15.4739 8.21544 15.4748 11.4961 15.464C 11.7434 15.4631 12.0106 15.403 12.2334 15.2959C 12.8715 14.9894 13.1529 14.4442 13.1529 13.7406C 13.1523 9.22449 13.1519 4.7083 13.1558 0.192347C 13.1559 0.0402566 13.1141 0.000464937 12.9648 0.000580948Z"/>
<path id="path2_fill" fill-rule="evenodd" d="M 14.3978 1.38128C 14.0422 1.22014 13.665 1.18645 13.2803 1.18566C 12.2571 1.18341 11.2338 1.19704 10.2106 1.19704L 10.0134 1.19704C 10.0134 0.971675 10.0007 0.90012 10.0159 0.770307C 10.0495 0.486004 9.89565 0.327682 9.65722 0.224575C 9.33042 0.0833811 8.98447 0.0159956 8.63236 0.00957255C 8.01251 -0.00169592 7.3921 -0.00417498 6.77226 0.00844571C 6.40977 0.0159956 6.05332 0.0811274 5.7198 0.234266C 5.50007 0.335344 5.3621 0.496709 5.38741 0.75825C 5.40053 0.893584 5.3897 0.971675 5.3897 1.19704L 5.19266 1.19704C 4.02994 1.19704 2.86722 1.18341 1.7045 1.18578C 1.29298 1.18645 0.888762 1.22916 0.518064 1.42286C 0.269489 1.55268 0.0375605 1.73151 0.013045 2.03181C -0.0124967 2.34463 0.00734375 2.66195 0.00734375 3L 14.9932 3C 14.9932 2.77463 14.9785 2.53303 14.9961 2.316C 15.0336 1.85355 14.7961 1.56169 14.3978 1.38128Z"/>
</defs>
</svg>
