<svg width="23" height="23" viewBox="0 0 23 23" version="1.1" xmlns="http://www.w3.org/2000/svg" xmlns:xlink="http://www.w3.org/1999/xlink">
<title>Page 1 Copy 18</title>
<desc>Created using Figma</desc>
<g id="Canvas" transform="translate(-4839 -2107)">
<g id="Page 1 Copy 18">
<g id="Group 3">
<g id="Fill 1">
<use xlink:href="#path0_fill" transform="translate(4854.91 2107)" fill="#9B9B9B"/>
</g>
</g>
<g id="Group 6">
<mask id="mask0_outline" mask-type="alpha">
<g id="Clip 5">
<use xlink:href="#path1_fill" transform="translate(4839 2124.49)" fill="#FFFFFF"/>
</g>
</mask>
<g id="Fill 4" mask="url(#mask0_outline)">
<use xlink:href="#path2_fill" transform="translate(4839 2124.49)" fill="#9B9B9B"/>
</g>
</g>
<g id="Fill 7">
<use xlink:href="#path3_fill" transform="translate(4841.38 2110.97)" fill="#9B9B9B"/>
</g>
</g>
</g>
<defs>
<path id="path0_fill" fill-rule="evenodd" d="M 6.37491 3.18219C 5.54288 2.36458 4.72207 1.5379 3.90331 0.706975C 3.60809 0.40732 3.31251 0.137268 2.89704 0L 2.39373 0C 2.10524 0.0915119 1.83404 0.221642 1.61354 0.44731C 1.1132 0.959548 0.606454 1.4662 0.0936215 1.96595C -0.0262134 2.08267 -0.034907 2.14522 0.0901898 2.26931C 1.68021 3.8467 3.26565 5.4289 4.84625 7.01585C 4.968 7.13811 5.02451 7.1108 5.12746 7.00478C 5.50944 6.61123 5.89054 6.22313 6.28303 5.84006C 6.62039 5.51076 6.95596 5.19037 7.09323 4.71469L 7.09323 4.25714C 7.00172 3.8095 6.69218 3.49397 6.37491 3.18219Z"/>
<path id="path1_fill" fill-rule="evenodd" d="M 5.53039 5.51445L 0 5.51445L 7.61603e-16 0L 5.53039 0L 5.53039 5.51445Z"/>
<path id="path2_fill" fill-rule="evenodd" d="M 0.762291 0.0295319C 0.583849 1.09708 0.405975 2.16585 0.219053 3.23191C 0.154355 3.60069 0.131143 3.97908 0 4.33592L 0 4.90421C 0.131143 5.20147 0.328382 5.38332 0.624766 5.51446L 1.14934 5.51446C 1.16643 5.51446 1.18225 5.48404 1.20083 5.48098C 2.19682 5.31543 3.19312 5.15246 4.18915 4.98692C 4.64469 4.91125 5.09954 4.83173 5.53039 4.75798C 3.94282 3.17041 2.35769 1.58537 0.774925 0.00260387C 0.779558 -0.00670728 0.765438 0.0105162 0.762291 0.0295319Z"/>
<path id="path3_fill" fill-rule="evenodd" d="M 11.8696 0.107514C 11.7169 -0.0468191 11.6396 -0.0267758 11.4982 0.115213C 7.70696 3.92458 3.91205 7.73031 0.113327 11.5323C -0.029676 11.6754 -0.0438492 11.7521 0.108194 11.9033C 1.6503 13.4377 3.18654 14.9782 4.71674 16.5246C 4.87646 16.686 4.95959 16.708 5.13371 16.5327C 7.93232 13.7139 10.7391 10.9034 13.5438 8.09091C 14.5341 7.0979 15.5241 6.10471 16.5132 5.11056C 16.5652 5.05835 16.6343 5.0174 16.6552 4.92534C 16.6134 4.87979 16.5698 4.82863 16.5224 4.78121C 14.9705 3.2243 13.4158 1.67017 11.8696 0.107514Z"/>
</defs>
</svg>
