<svg width="24" height="20" viewBox="0 0 24 20" version="1.1" xmlns="http://www.w3.org/2000/svg" xmlns:xlink="http://www.w3.org/1999/xlink">
<title>Page 1</title>
<desc>Created using Figma</desc>
<g id="Canvas" transform="translate(-6367 -1761)">
<g id="Page 1">
<mask id="mask0_outline" mask-type="alpha">
<g id="Clip 2">
<use xlink:href="#path0_fill" transform="translate(6367 1761)" fill="#FFFFFF"/>
</g>
</mask>
<g id="Fill 1" mask="url(#mask0_outline)">
<use xlink:href="#path1_fill" transform="translate(6367 1761)" fill="#FFFFFF"/>
</g>
</g>
</g>
<defs>
<path id="path0_fill" fill-rule="evenodd" d="M 0 20L 0 0L 23.5294 0L 23.5294 20L 0 20Z"/>
<path id="path1_fill" fill-rule="evenodd" d="M 21.8303 6.40358C 21.7725 7.16806 21.5009 7.86442 21.1246 8.52551C 20.4823 9.65387 19.569 10.5536 18.6362 11.4391C 17.3066 12.7013 15.9851 13.9719 14.6597 15.2384C 13.7272 16.1294 12.794 17.0198 11.8606 17.9101C 11.8339 17.9356 11.8032 17.9571 11.7515 17.9989C 11.4255 17.6892 11.1094 17.3903 10.795 17.0898C 9.58726 15.9358 8.38026 14.7811 7.1727 13.627C 6.17677 12.6752 5.17428 11.7301 4.18632 10.7703C 3.47353 10.0779 2.83593 9.32258 2.34755 8.453C 1.55153 7.03574 1.46462 5.56755 2.02246 4.05175C 2.2055 3.55433 2.46771 3.10571 2.87267 2.7557C 3.07402 2.5817 3.28929 2.4133 3.52325 2.28832C 4.57838 1.72476 5.71076 1.53604 6.88771 1.73322C 7.6768 1.86539 8.37504 2.2456 9.02114 2.70529C 9.79617 3.25674 10.5009 3.88849 11.1437 4.58855C 11.473 4.94717 12.0484 4.93807 12.3817 4.58184C 13.1677 3.7416 14.021 2.98189 15.0094 2.3762C 16.1151 1.69851 17.2984 1.51493 18.5639 1.77203C 19.2995 1.92154 19.9777 2.1962 20.5601 2.67092C 20.9589 2.99606 21.2372 3.41694 21.4349 3.88726C 21.7737 4.6932 21.8959 5.53497 21.8303 6.40358ZM 23.4544 4.9688C 23.292 3.81886 22.9044 2.76998 22.1188 1.88833C 21.5925 1.29762 20.9604 0.855449 20.2291 0.545184C 19.6128 0.283683 18.9697 0.138654 18.3076 0.058683C 17.3367 -0.0584589 16.3874 -0.00615141 15.4543 0.32324C 14.4453 0.679326 13.5943 1.28547 12.7629 1.9255C 12.4136 2.19445 12.0921 2.4989 11.7563 2.7887C 11.7393 2.77863 11.7209 2.77211 11.7083 2.75981C 11.0472 2.11042 10.309 1.55714 9.53283 1.05208C 8.88401 0.629927 8.18548 0.321637 7.42907 0.139363C 6.6478 -0.0489146 5.86431 -0.0225558 5.07627 0.0782191C 3.91621 0.226455 2.8572 0.605283 1.94784 1.36067C 1.03986 2.11493 0.491425 3.07727 0.216209 4.20428C 0.116435 4.61279 0.0752162 5.03323 0 5.44822L 0 6.5667C 0 6.61949 0.0285446 6.6715 0.0352764 6.72522C 0.125649 7.44742 0.360286 8.12813 0.656149 8.78658C 1.1358 9.85416 1.85024 10.7718 2.65874 11.6031C 3.61801 12.5894 4.64069 13.5143 5.63678 14.4653C 6.63362 15.417 7.6311 16.3676 8.62764 17.3196C 9.48375 18.1374 10.3354 18.9596 11.1953 19.7735C 11.5164 20.0774 11.9929 20.0724 12.3213 19.7771C 12.488 19.6272 12.6465 19.4684 12.8085 19.3134C 13.5425 18.6112 14.2758 17.9083 15.0104 17.2067C 15.9304 16.3281 16.8518 15.451 17.7718 14.5723C 18.4973 13.8794 19.2144 13.1778 19.948 12.4934C 21.0013 11.5107 21.9614 10.4556 22.6651 9.19143C 22.9599 8.66201 23.1873 8.10427 23.3394 7.52046C 23.5584 6.68 23.5757 5.82854 23.4544 4.9688Z"/>
</defs>
</svg>
