<svg width="21" height="23" viewBox="0 0 21 23" version="1.1" xmlns="http://www.w3.org/2000/svg" xmlns:xlink="http://www.w3.org/1999/xlink">
<title>Page 1 Copy 17</title>
<desc>Created using Figma</desc>
<g id="Canvas" transform="translate(-4875 -2107)">
<g id="Page 1 Copy 17">
<g id="Group 3">
<mask id="mask0_outline" mask-type="alpha">
<g id="Clip 2">
<use xlink:href="#path0_fill" transform="translate(4875.5 2107.02)" fill="#FFFFFF"/>
</g>
</mask>
<g id="Fill 1" mask="url(#mask0_outline)">
<use xlink:href="#path1_fill" transform="translate(4875.5 2107.02)" fill="#9B9B9B"/>
</g>
</g>
</g>
</g>
<defs>
<path id="path0_fill" fill-rule="evenodd" d="M 0 3.54309e-15L 0 22.9804L 19.9919 22.9804L 19.9919 0L 0 3.54309e-15Z"/>
<path id="path1_fill" fill-rule="evenodd" d="M 15.1954 4.48533C 15.0667 4.95693 14.7058 5.26677 14.2066 5.32362C 14.0391 5.34263 13.8693 5.35005 13.7005 5.35017C 11.2254 5.35173 8.75027 5.35148 6.27516 5.35055C 6.13796 5.35055 5.99999 5.34755 5.86361 5.33384C 5.165 5.26391 4.7184 4.77972 4.73123 4.11141C 4.74431 3.43207 5.19935 2.94091 5.90456 2.92875C 7.26856 2.90538 8.60545 2.92196 10.0023 2.92196L 10.0023 2.91454C 11.3356 2.91454 12.6209 2.90575 13.9324 2.91747C 14.8907 2.92588 15.4327 3.61557 15.1954 4.48533ZM 15.1888 9.1435C 15.0298 9.67824 14.589 9.97817 13.9238 9.98097C 12.6121 9.9864 11.3004 9.98253 9.98864 9.98253C 8.67696 9.98253 7.36521 9.98889 6.05353 9.98041C 5.12712 9.97437 4.5842 9.32208 4.77175 8.46379C 4.89061 7.91976 5.31315 7.56323 5.89835 7.55145C 6.63854 7.53655 7.37918 7.54428 8.11969 7.54416C 10.0766 7.54378 12.0337 7.53774 13.9906 7.54765C 14.896 7.5522 15.4413 8.29449 15.1888 9.1435ZM 15.1949 13.7472C 15.0479 14.2819 14.6102 14.5987 13.9817 14.6013C 12.6488 14.6067 11.3159 14.6029 9.98312 14.6029C 8.65024 14.6027 7.31735 14.6098 5.98458 14.6002C 5.11804 14.5941 4.58744 13.9192 4.77265 13.0863C 4.8943 12.5394 5.3277 12.1884 5.93639 12.1705C 6.42249 12.1561 6.90941 12.1657 7.39601 12.1657C 9.57512 12.1655 11.7542 12.1617 13.9333 12.1676C 14.8759 12.1701 15.4337 12.8784 15.1949 13.7472ZM 19.9521 3.80886C 19.8916 1.75282 18.1077 0.0362998 16.0197 0.0214651C 11.9994 -0.00720697 7.97848 -0.00708231 3.9581 0.0214028C 1.8628 0.0361751 0.052702 1.78305 0.0257178 3.84271C -0.0172663 7.12435 6.70515e-05 10.407 0.0308607 13.6889C 0.0353686 14.1703 0.177972 14.6851 0.387877 15.1239C 1.13727 16.6905 2.44083 17.4669 4.19556 17.516C 4.68921 17.5298 5.18356 17.5181 5.68311 17.5181C 5.68311 17.6273 5.68832 17.6987 5.68235 17.7692C 5.5807 18.9694 5.4821 20.1698 5.37264 21.3693C 5.33251 21.8088 5.34927 22.2531 5.69899 22.5689C 5.8868 22.7387 6.1428 22.7935 6.36807 22.9805L 6.81251 22.9805C 7.1301 22.7311 7.46654 22.5963 7.76229 22.3721C 9.80483 20.8232 11.8368 19.2534 13.8803 17.7057C 14.0168 17.6023 14.2177 17.5387 14.3923 17.53C 14.8672 17.5066 15.3443 17.5268 15.8202 17.5184C 18.1137 17.4778 19.8639 15.843 19.961 13.593C 20.0154 12.328 19.9818 11.0587 19.9803 9.79154C 19.978 7.7974 20.0108 5.80151 19.9521 3.80886Z"/>
</defs>
</svg>
