<svg width="48" height="53" viewBox="0 0 48 53" version="1.1" xmlns="http://www.w3.org/2000/svg" xmlns:xlink="http://www.w3.org/1999/xlink">
<title>8-layers</title>
<desc>Created using Figma</desc>
<g id="Canvas" transform="translate(-6754 -4203)">
<g id="8-layers">
<g id="Shape">
<use xlink:href="#path0_fill" transform="translate(6761.2 4203)" fill="#F0F0F0"/>
</g>
<g id="Shape">
<use xlink:href="#path1_fill" transform="translate(6787.6 4203)" fill="#CDD4DB"/>
</g>
<g id="Shape">
<use xlink:href="#path2_fill" transform="translate(6791.2 4216.25)" fill="#E1E4E7"/>
</g>
<g id="Shape">
<use xlink:href="#path3_fill" transform="translate(6754 4228.3)" fill="#FD7B7B"/>
</g>
<g id="Shape">
<use xlink:href="#path4_fill" transform="translate(6761.2 4233.11)" fill="#FFFFFF"/>
</g>
<g id="Shape">
<use xlink:href="#path5_fill" transform="translate(6780.4 4233.11)" fill="#FFFFFF"/>
</g>
<g id="Shape">
<use xlink:href="#path6_fill" transform="translate(6761.2 4246.36)" fill="#CAD1D8"/>
</g>
</g>
</g>
<defs>
<path id="path0_fill" d="M 3.348 2.28462e-05C 1.51487 -0.00670317 0.0197698 1.47255 0 3.31252L 0 49.6875C 0.0197698 51.5275 1.51487 53.0067 3.348 53L 36.768 53C 38.6011 53.0067 40.0962 51.5275 40.116 49.6875L 40.116 13.25L 26.748 2.28462e-05L 3.348 2.28462e-05Z"/>
<path id="path1_fill" d="M 3.348 13.25L 13.368 13.25L 0 0L 0 9.9375C 0.0197698 11.7775 1.51487 13.2567 3.348 13.25Z"/>
<path id="path2_fill" d="M 10.032 9.9375L 0 0L 10.032 0L 10.032 9.9375Z"/>
<path id="path3_fill" d="M 40.116 18.2248C 40.116 19.1282 39.36 19.875 38.448 19.875L 1.668 19.875C 0.756 19.875 0 19.1282 0 18.2248L 0 1.66227C 0 0.746818 0.756 0 1.668 0L 38.448 0C 39.36 0 40.116 0.746818 40.116 1.66227L 40.116 18.2248Z"/>
<path id="path4_fill" fill-rule="evenodd" d="M 3.99609 0L 0.912109 0C 0.348145 0 0 0.481934 0 0.915527L 0 8.37158C -0.00341797 8.61523 0.0917969 8.8501 0.263672 9.02246C 0.435547 9.19482 0.669434 9.29053 0.912109 9.28711C 1.39209 9.28711 1.76416 8.94971 1.76416 8.37158L 1.76416 6.625L 3.99609 6.625C 5.73584 6.625 7.2959 5.45654 7.2959 3.36084C 7.2959 1.15625 5.73584 0 3.99609 0ZM 1.76416 4.9624L 1.76416 1.66211L 3.99609 1.66211C 4.896 1.66211 5.604 2.43311 5.604 3.36035C 5.604 3.55957 5.56201 3.75684 5.48535 3.94141C 5.396 4.15674 5.25977 4.35449 5.08838 4.51709C 4.80371 4.7876 4.42139 4.9624 3.99609 4.9624L 1.76416 4.9624ZM 9.6001 8.34766L 9.6001 0.818848C 9.6001 0.349121 10.0801 0 10.5239 0L 13.584 0C 19.6919 0 19.5601 9.1665 13.7041 9.1665L 10.5239 9.1665C 10.0801 9.1665 9.6001 8.92578 9.6001 8.34766ZM 13.5845 7.55273L 11.3643 7.55273L 11.3643 1.61426L 13.5845 1.61426C 17.3521 1.61426 17.1963 7.55273 13.5845 7.55273Z"/>
<path id="path5_fill" d="M 1.752 1.7225L 1.752 3.83045L 5.16 3.83045C 5.64 3.83045 6.12 4.31227 6.12 4.77C 6.12 5.20364 5.64 5.565 5.16 5.565L 1.752 5.565L 1.752 8.3475C 1.752 8.80523 1.416 9.16659 0.948 9.16659C 0.36 9.16659 0 8.80523 0 8.3475L 0 0.819091C 0 0.349318 0.36 0 0.948 0L 5.64 0C 6.228 0 6.576 0.349318 6.576 0.819091C 6.576 1.24068 6.228 1.7225 5.64 1.7225L 1.752 1.7225Z"/>
<path id="path6_fill" d="M 31.752 1.66227L 0 1.66227L 0 3.3125L 31.752 3.3125C 32.676 3.3125 33.432 2.56568 33.432 1.66227L 33.432 0C 33.4189 0.921931 32.6705 1.66237 31.752 1.66227Z"/>
</defs>
</svg>
