<svg width="23" height="23" viewBox="0 0 23 23" version="1.1" xmlns="http://www.w3.org/2000/svg" xmlns:xlink="http://www.w3.org/1999/xlink">
<title>Page 1 Copy 10</title>
<desc>Created using Figma</desc>
<g id="Canvas" transform="translate(-5032 -2636)">
<g id="Page 1 Copy 10">
<mask id="mask0_outline" mask-type="alpha">
<g id="Clip 2">
<use xlink:href="#path0_fill" transform="matrix(-1 0 0 1 5055 2636)" fill="#FFFFFF"/>
</g>
</mask>
<g id="Fill 1" mask="url(#mask0_outline)">
<use xlink:href="#path1_fill" transform="matrix(-1 0 0 1 5055 2636)" fill="#9B9B9B"/>
</g>
</g>
</g>
<defs>
<path id="path0_fill" fill-rule="evenodd" d="M 23 0L 23 23L 0 23L 0 2.91481e-15L 23 0Z"/>
<path id="path1_fill" fill-rule="evenodd" d="M 22.76 2.67753C 21.7806 3.26025 20.8039 3.84585 19.8073 4.44159C 19.748 4.37062 19.6904 4.30283 19.6343 4.2333C 17.8915 2.07573 15.6813 0.737377 13.0142 0.214137C 12.5452 0.122144 12.0633 0.0954795 11.5871 0.0416377C 11.4911 0.0307668 11.3952 0 11.2992 0L 10.759 0C 10.3499 0.102556 9.93917 0.0805064 9.53191 0.138963C 7.21248 0.471449 5.19403 1.47322 3.48747 3.12672C 1.58135 4.97334 0.468823 7.2466 0.0859526 9.9191C 0.0432241 10.217 0 10.5183 0 10.8172L 0 12.2143C 0 12.2896 0.012194 12.3642 0.0176466 12.44C 0.108754 13.7041 0.36225 14.9318 0.885996 16.0745C 2.87659 20.4171 6.16965 22.7403 10.8213 22.9982C 10.892 23.0021 11.0043 22.9986 11.0043 22.9986L 11.0043 19.4867C 6.5431 19.4312 3.71767 15.7248 3.39716 12.386C 3.04046 8.67264 5.11106 5.43649 8.15172 4.15741C 11.5846 2.71353 14.9957 4.10367 16.7674 6.25642C 15.8017 6.83535 14.8407 7.41294 13.8592 8.0012C 13.9478 8.05823 14.0172 8.10479 14.0877 8.14694C 15.4443 8.95631 16.8 9.76435 18.1562 10.5743C 19.7718 11.5393 21.4138 12.5059 23 13.4717L 23 2.57395C 22.9009 2.608 22.8351 2.63281 22.76 2.67753Z"/>
</defs>
</svg>
