<svg width="10" height="12" viewBox="0 0 10 12" version="1.1" xmlns="http://www.w3.org/2000/svg" xmlns:xlink="http://www.w3.org/1999/xlink">
<title>Page 1 Copy</title>
<desc>Created using Figma</desc>
<g id="Canvas" transform="translate(-3488 -2028)">
<g id="Page 1 Copy">
<use xlink:href="#path0_fill" transform="translate(3489 2029)" fill="#B01116"/>
<use xlink:href="#path1_stroke" transform="translate(3489 2029)" fill="#B01116"/>
</g>
</g>
<defs>
<path id="path0_fill" fill-rule="evenodd" d="M 0.0957466 9.46703C 0.212069 9.38297 0.314202 9.28973 0.435056 9.20884C 2.47077 7.84623 4.50682 6.48392 6.5486 5.12544C 6.70231 5.0232 6.73281 4.96609 6.56067 4.85167C 4.46007 3.45488 2.36711 2.05295 0.275428 0.650191C 0.110182 0.539393 -0.0829984 0.420889 0.0377579 0.237566C 0.216749 -0.0339937 0.649964 -0.0802362 0.977745 0.137703C 1.93601 0.77469 2.88999 1.41458 3.84565 2.05337C 5.14307 2.92065 6.44055 3.78786 7.73754 4.6554C 8.0834 4.88671 8.08724 5.08028 7.75025 5.30547C 5.50825 6.80367 3.26704 8.30243 1.02041 9.79757C 0.895418 9.88074 0.724803 9.93324 0.575372 10C 0.186794 9.99361 -0.172814 9.66115 0.0957466 9.46703Z"/>
<path id="path1_stroke" d="M 0.0957466 9.46703L -0.197097 9.06176L -0.197163 9.0618L 0.0957466 9.46703ZM 0.435056 9.20884L 0.713171 9.62435L 0.713178 9.62435L 0.435056 9.20884ZM 6.5486 5.12544L 6.2717 4.70911L 6.27163 4.70916L 6.5486 5.12544ZM 6.56067 4.85167L 6.28381 5.26802L 6.28389 5.26808L 6.56067 4.85167ZM 0.275428 0.650191L 0.553918 0.234928L 0.55388 0.234902L 0.275428 0.650191ZM 0.0377579 0.237566L -0.379715 -0.0376007L -0.379795 -0.0374794L 0.0377579 0.237566ZM 0.977745 0.137703L 0.700907 0.554069L 0.700954 0.5541L 0.977745 0.137703ZM 3.84565 2.05337L 4.12351 1.63769L 4.12351 1.63769L 3.84565 2.05337ZM 7.73754 4.6554L 7.45955 5.071L 7.45957 5.07102L 7.73754 4.6554ZM 7.75025 5.30547L 7.47245 4.88974L 7.47244 4.88974L 7.75025 5.30547ZM 1.02041 9.79757L 1.29738 10.2139L 1.29743 10.2138L 1.02041 9.79757ZM 0.575372 10L 0.567152 10.4999L 0.678057 10.5018L 0.77933 10.4565L 0.575372 10ZM 0.38859 9.87229C 0.527563 9.77087 0.622686 9.68322 0.713171 9.62435L 0.156942 8.79332C 0.00571775 8.89624 -0.103425 8.99508 -0.197097 9.06176L 0.38859 9.87229ZM 0.713178 9.62435C 2.74885 8.26177 4.78433 6.89984 6.82557 5.54171L 6.27163 4.70916C 4.22932 6.06801 2.19268 7.4307 0.156935 8.79333L 0.713178 9.62435ZM 6.82549 5.54177C 6.87427 5.50913 6.94297 5.45692 6.9909 5.41135C 7.04445 5.35846 7.14916 5.24021 7.17274 5.05692C 7.19895 4.85322 7.11098 4.69805 7.03922 4.61078C 6.9878 4.55192 6.90145 4.4786 6.83744 4.43526L 6.28389 5.26808C 6.31313 5.28751 6.29491 5.28006 6.26682 5.2459C 6.23295 5.20472 6.16003 5.09167 6.18092 4.92932C 6.19917 4.7874 6.2782 4.70975 6.28817 4.69989C 6.30217 4.68607 6.30479 4.6871 6.2717 4.70911L 6.82549 5.54177ZM 6.83752 4.43532C 4.73763 3.03899 2.64548 1.63761 0.553918 0.234928L -0.00306242 1.06545C 2.08873 2.46829 4.18251 3.87076 6.28381 5.26802L 6.83752 4.43532ZM 0.55388 0.234902C 0.510255 0.205661 0.477978 0.184826 0.451331 0.164556C 0.425335 0.145086 0.426866 0.142794 0.437647 0.156084C 0.449934 0.171231 0.489783 0.226101 0.498419 0.31597C 0.507742 0.412984 0.474555 0.483395 0.455311 0.512611L -0.379795 -0.0374794C -0.459417 0.0833977 -0.51374 0.237368 -0.496995 0.411624C -0.475737 0.541865 -0.397044 0.71001 -0.338963 0.786066C -0.225816 0.925548 -0.055219 1.03048 -0.00302445 1.06548L 0.55388 0.234902ZM 0.455231 0.512732C 0.445886 0.526909 0.448951 0.507214 0.504856 0.501266C 0.559572 0.495444 0.633333 0.509139 0.700907 0.554069L 1.25458 -0.278663C 0.774038 -0.598174 -0.00151329 -0.611395 -0.379715 -0.0376007L 0.455231 0.512732ZM 0.700954 0.5541C 1.65835 1.19051 2.6118 1.83004 3.56779 2.46906L 4.12351 1.63769C 3.16818 0.999113 2.21367 0.35887 1.25454 -0.278694L 0.700954 0.5541ZM 3.56778 2.46905C 4.86522 3.33634 6.16263 4.20351 7.45955 5.071L 8.01552 4.2398C 6.71847 3.37222 5.42093 2.50496 4.12351 1.63769L 3.56778 2.46905ZM 7.45957 5.07102C 7.52424 5.11427 7.54398 5.13723 7.54371 5.13689C 7.54101 5.13353 7.50183 5.0827 7.50006 4.99254C 7.49825 4.90026 7.53701 4.84392 7.54464 4.83413C 7.54865 4.82899 7.53374 4.84878 7.47245 4.88974L 8.02804 5.72119C 8.20582 5.6024 8.50752 5.36281 8.49987 4.97292C 8.49242 4.59347 8.19428 4.35935 8.0155 4.23979L 7.45957 5.07102ZM 7.47244 4.88974C 5.23038 6.38799 2.98956 7.88649 0.743397 9.38133L 1.29743 10.2138C 3.54452 8.71837 5.78612 7.21934 8.02805 5.72119L 7.47244 4.88974ZM 0.743442 9.3813C 0.714406 9.40246 0.684058 9.41479 0.61577 9.44298C 0.54713 9.47148 0.460717 9.50387 0.371415 9.54349L 0.77933 10.4565C 0.839457 10.4294 0.913067 10.4021 0.998342 10.3669C 1.08397 10.3313 1.20142 10.2759 1.29738 10.2139L 0.743442 9.3813ZM 0.583593 9.50007C 0.53883 9.50209 0.535825 9.50039 0.491194 9.47985C 0.458711 9.4663 0.445699 9.45338 0.448077 9.45584C 0.449904 9.45772 0.460781 9.4692 0.472681 9.49259C 0.484787 9.51639 0.500513 9.55791 0.502448 9.61408C 0.50449 9.67331 0.49045 9.73318 0.462185 9.78496C 0.435244 9.83432 0.40373 9.86135 0.388656 9.87225L -0.197163 9.0618C -0.370972 9.18744 -0.505821 9.39135 -0.496958 9.64852C -0.489138 9.87544 -0.371616 10.047 -0.269812 10.152C -0.0660613 10.3621 0.250341 10.4947 0.567152 10.4999L 0.583593 9.50007Z"/>
</defs>
</svg>
