<svg width="24" height="23" viewBox="0 0 24 23" version="1.1" xmlns="http://www.w3.org/2000/svg" xmlns:xlink="http://www.w3.org/1999/xlink">
<title>Page 1</title>
<desc>Created using Figma</desc>
<g id="Canvas" transform="translate(-4964 -2636)">
<g id="Page 1">
<mask id="mask0_outline" mask-type="alpha">
<g id="Clip 2">
<use xlink:href="#path0_fill" transform="translate(4964 2636)" fill="#FFFFFF"/>
</g>
</mask>
<g id="Fill 1" mask="url(#mask0_outline)">
<use xlink:href="#path1_fill" transform="translate(4964 2636)" fill="#9B9B9B"/>
</g>
</g>
</g>
<defs>
<path id="path0_fill" fill-rule="evenodd" d="M 0 11.5L 0 0L 24 0L 24 11.5L 24 23L 0 23L 0 11.5Z"/>
<path id="path1_fill" fill-rule="evenodd" d="M 24 8.7015L 24 9.07576C 23.8441 9.2483 23.7011 9.43496 23.5301 9.59093C 21.8015 11.1673 20.0737 12.7449 18.3296 14.3042C 18.0718 14.5347 18.0128 14.7435 18.0853 15.0673C 18.3638 16.312 18.6176 17.5623 18.8813 18.8103C 19.1127 19.9062 19.3517 21.0006 19.5738 22.0985C 19.6884 22.6651 19.4531 23.0422 19.0177 22.9962C 18.8416 22.9776 18.6651 22.8807 18.5063 22.789C 16.4687 21.6105 14.4306 20.4326 12.4028 19.2371C 12.1092 19.0639 11.8953 19.061 11.5999 19.235C 9.59906 20.4147 7.58681 21.575 5.57681 22.7394C 5.42925 22.825 5.27878 22.9155 5.11781 22.9666C 4.74759 23.0842 4.41291 22.8559 4.39762 22.4704C 4.39041 22.2872 4.43119 22.0992 4.46925 21.9175C 4.94709 19.6334 5.42287 17.3489 5.91525 15.068C 5.98537 14.7427 5.92566 14.5353 5.66916 14.3056C 3.92559 12.7456 2.19816 11.1676 0.469781 9.59093C 0.298781 9.43496 0.155906 9.2483 0 9.07576L 0 8.7015C 0.265875 8.57285 0.521906 8.36084 0.799031 8.32856C 3.10472 8.05984 5.41369 7.81797 7.72341 7.58472C 8.11378 7.54533 8.35134 7.42996 8.52169 7.03166C 9.44494 4.87406 10.3995 2.72947 11.3661 0.590767C 11.4705 0.359849 11.7226 0.195363 11.9062 0L 12.0938 0C 12.2774 0.19555 12.5295 0.36013 12.6341 0.591141C 13.6007 2.72984 14.5552 4.87434 15.4783 7.03194C 15.6488 7.43024 15.8865 7.54533 16.2768 7.58472C 18.5864 7.81797 20.8953 8.05984 23.201 8.32856C 23.4781 8.36084 23.7341 8.57285 24 8.7015Z"/>
</defs>
</svg>
