<svg width="26" height="24" viewBox="0 0 26 24" version="1.1" xmlns="http://www.w3.org/2000/svg" xmlns:xlink="http://www.w3.org/1999/xlink">
<title>Fill 1</title>
<desc>Created using Figma</desc>
<g id="Canvas" transform="translate(-5873 -1656)">
<g id="Fill 1">
<use xlink:href="#path0_fill" transform="translate(5873 1656)" fill="#FFFFFF"/>
</g>
</g>
<defs>
<path id="path0_fill" fill-rule="evenodd" d="M 12.6788 22.0537C 7.66173 19.2464 3.87199 15.2286 1.16767 10.1751C 0.519505 8.96374 0.10793 7.66104 0.0146708 6.2843C -0.116722 4.34477 0.646042 2.73397 1.83758 1.24273C 2.63493 0.245102 3.53516 -0.223521 4.79537 0.102988C 4.87478 0.123521 4.96601 0.12605 5.04673 0.110776C 5.91277 -0.0519723 6.36197 0.36729 6.66724 1.14341C 7.31955 2.80164 8.02637 4.43874 8.71985 6.08059C 8.87036 6.43704 8.8739 6.76456 8.63984 7.07963C 8.05905 7.86182 7.49423 8.65675 6.8841 9.41537C 6.67907 9.67036 6.58268 9.88247 6.72256 10.1789C 6.79438 10.331 6.85072 10.4932 6.94196 10.6327C 9.14104 13.9983 11.9195 16.676 15.7659 18.1029C 16.242 18.2796 16.5098 18.1512 16.789 17.7765C 17.4027 16.9531 18.0349 16.1425 18.684 15.3467C 19.1859 14.7315 19.31 14.6895 20.0081 15.0206C 21.7094 15.8278 23.3947 16.6685 25.0866 17.4954C 25.6012 17.7469 25.9309 18.0669 25.7487 18.7258C 25.6384 19.1247 25.6986 19.5686 25.6072 19.9754C 25.521 20.3594 25.4103 20.7754 25.1834 21.0839C 23.6902 23.1149 21.6054 23.9421 19.0997 23.9692C 16.809 23.9302 14.6791 23.173 12.6788 22.0537Z"/>
</defs>
</svg>
