<svg width="57" height="35" viewBox="0 0 57 35" version="1.1" xmlns="http://www.w3.org/2000/svg" xmlns:xlink="http://www.w3.org/1999/xlink">
<title>Page 1</title>
<desc>Created using Figma</desc>
<g id="Canvas" transform="translate(-5664 -3397)">
<g id="Page 1">
<g id="Fill 1">
<use xlink:href="#path0_fill" transform="translate(5671 3400)" fill="#FFFFFF"/>
</g>
<g id="Fill 3">
<use xlink:href="#path1_fill" transform="translate(5664 3427)" fill="#FFFFFF"/>
</g>
<g id="Group 7">
<mask id="mask0_outline" mask-type="alpha">
<g id="Clip 6">
<use xlink:href="#path2_fill" transform="translate(5686.08 3397.03)" fill="#FFFFFF"/>
</g>
</mask>
<g id="Fill 5" mask="url(#mask0_outline)">
<use xlink:href="#path3_fill" transform="translate(5686.08 3397.03)" fill="#FFFFFF"/>
</g>
</g>
</g>
</g>
<defs>
<path id="path0_fill" fill-rule="evenodd" d="M 16.7159 10.4279C 14.8643 11.088 13.1726 12.0302 11.6573 13.289C 9.80783 14.8254 8.36491 16.6839 7.33451 18.8601C 7.05766 19.445 6.65498 19.8186 5.9998 19.8456C 4.94723 19.8888 4.23753 18.8153 4.69131 17.8166C 5.01968 17.094 5.39977 16.3887 5.82069 15.7163C 7.55944 12.9381 9.82286 10.6925 12.7062 9.13314C 13.7446 8.57164 14.8483 8.11748 15.9546 7.70188C 16.8463 7.36704 17.7701 8.09862 17.7703 9.04622C 17.7704 9.67535 17.3956 10.1855 16.7159 10.4279ZM 43.4293 20.2695C 41.8103 14.168 38.2103 9.58053 32.8149 6.40778C 30.7793 5.21079 28.5737 4.42263 26.2566 3.96931C 25.3763 3.79715 25.3735 3.81111 25.3636 2.88904C 25.3481 1.45935 24.4845 0.349064 23.0812 0.0802991C 22.4964 -0.0317295 21.8787 0.00255648 21.2768 0.0139157C 19.9211 0.0394478 18.7704 1.08387 18.5943 2.44374C 18.537 2.88643 18.5384 3.33965 18.5113 3.8157C 8.36338 5.47956 1.02988 13.7251 0 23L 44 23C 43.8061 22.0621 43.6632 21.1518 43.4293 20.2695Z"/>
<path id="path1_fill" fill-rule="evenodd" d="M 56.9464 2.02387C 56.6762 0.788798 55.5385 0.00358192 53.9945 0.00303631C 47.5531 0.000762959 41.1118 -0.00160133 34.6706 0.00430939C 32.1776 0.00649181 29.6846 0.0405921 27.1917 0.0419561C 25.1894 0.0430473 23.1871 0.00876516 21.1848 0.00412752C 18.1707 -0.00287441 15.1567 0.00239977 12.1427 0.00267258C 9.00731 0.00303631 5.87195 -0.00614803 2.73669 0.00758302C 1.47587 0.01313 0.561055 0.65176 0.14248 1.70259C -0.226503 2.62885 0.133227 3.9453 1.08193 4.4549C 1.70969 4.79217 2.34078 4.99923 3.06928 4.99914C 9.28792 4.99887 15.5066 5.00232 21.7252 4.99705C 23.2187 4.99586 24.7121 4.95403 26.2056 4.95294C 28.3661 4.95131 30.5267 4.97086 32.6873 4.9795C 34.3795 4.98632 36.0716 4.99414 37.7638 4.99468C 43.2376 4.99632 48.7112 4.99505 54.1849 4.99359C 54.2711 4.99359 54.3575 4.98068 54.4432 4.9704C 56.1546 4.76817 57.2617 3.46481 56.9464 2.02387Z"/>
<path id="path2_fill" fill-rule="evenodd" d="M 2.32353e-14 0L 13.8936 0L 13.8936 1.95081L 0 1.95081L 0 5.68434e-15L 2.32353e-14 0Z"/>
<path id="path3_fill" fill-rule="evenodd" d="M 1.4034 1.95012C 5.09542 1.95112 8.78743 1.95132 12.4795 1.94892C 12.6995 1.94882 12.9239 1.94702 13.1382 1.90562C 13.5675 1.82272 13.8169 1.55192 13.8794 1.12632C 13.9447 0.683021 13.7853 0.323721 13.3782 0.127421C 13.176 0.0298207 12.9198 0.00702073 12.6877 0.00602073C 10.7822 -0.00317927 8.87654 0.000820733 6.97101 0.00112073C 5.11647 0.00152073 3.26193 0.00122073 1.40739 0.00152073C 0.47746 0.00172073 -0.0168324 0.352521 0.000437637 0.998721C 0.0174011 1.63022 0.485328 1.94982 1.4034 1.95012Z"/>
</defs>
</svg>
