<svg width="51" height="55" viewBox="0 0 51 55" version="1.1" xmlns="http://www.w3.org/2000/svg" xmlns:xlink="http://www.w3.org/1999/xlink">
<title>Fill 1</title>
<desc>Created using Figma</desc>
<g id="Canvas" transform="translate(-5821 -3661)">
<g id="Fill 1">
<use xlink:href="#path0_fill" transform="translate(5821 3661)" fill="#FFFFFF"/>
</g>
</g>
<defs>
<path id="path0_fill" fill-rule="evenodd" d="M 28.4864 8.08411C 28.4762 7.2114 27.8599 6.57521 27.024 6.57495C 26.1712 6.57456 25.5287 7.25254 25.5402 8.14079C 25.5512 9.00501 26.1778 9.64864 27.0094 9.65008C 27.8667 9.65138 28.497 8.98333 28.4864 8.08411ZM 44.0232 1.97003C 44.0369 1.8948 44.0505 1.81957 44.0642 1.74435C 43.7675 1.68309 43.4709 1.56855 43.1741 1.56829C 29.6141 1.55954 16.054 1.56071 2.49394 1.56097C 2.36333 1.56097 2.20216 1.51631 2.10852 1.57599C 1.91143 1.70203 1.60503 1.87652 1.59719 2.04304C 1.54939 3.04688 1.57342 4.05399 1.57342 4.99474C 2.59921 4.64498 3.56582 4.31559 4.67114 3.93879C 4.67114 5.13645 4.65756 6.11051 4.67859 7.08366C 4.68603 7.42441 4.71581 7.79024 4.84629 8.09743C 5.12252 8.74784 5.83236 9.05673 6.52758 8.90431C 7.20934 8.75503 7.6935 8.19538 7.71257 7.45628C 7.73673 6.51226 7.71845 5.56693 7.71845 4.54755C 9.73853 5.14886 11.6727 5.38904 13.6535 4.75626C 13.5251 5.88757 13.7885 6.5837 14.4829 6.78C 14.8725 6.88997 15.3455 6.85993 15.7415 6.75048C 16.1395 6.64025 16.4888 6.35357 16.8596 6.14421C 16.765 6.21944 16.8632 6.59206 16.9937 6.95331C 17.3321 7.89002 17.603 8.86343 18.054 9.74372C 18.5251 10.6634 19.6292 10.7557 20.362 10.016C 20.5966 9.77924 20.8401 9.44881 20.8768 9.13718C 21.0085 8.02272 21.0618 6.89846 21.1279 5.77681C 21.1734 5.00571 21.191 4.23292 21.2216 3.4481C 22.2796 3.39651 23.2883 3.09612 24.1227 3.3555C 26.3989 4.06339 28.6907 4.35595 31.0595 4.34707C 33.178 4.33884 34.7657 5.30258 35.7109 7.24156C 35.9109 7.65167 36.1091 8.0636 36.3305 8.46221C 36.6432 9.02525 37.1271 9.23487 37.7588 9.09395C 38.6323 8.89948 39.069 8.36882 39.1679 7.45301C 39.268 6.52506 39.3702 5.59501 39.533 4.67685C 39.7956 3.19381 39.816 3.18937 41.3157 3.02233C 41.8807 2.95964 42.3542 2.78841 42.7217 2.31287C 42.8596 2.1342 43.15 2.04539 43.3886 1.981C 43.5867 1.92759 43.8107 1.97003 44.0232 1.97003ZM 19.9828 55C 18.7928 54.5472 18.358 53.6851 18.3635 52.4195C 18.3958 45.0432 18.4131 37.6667 18.3557 30.2909C 18.3413 28.4382 19.4324 27.542 20.9741 27.699C 21.2721 27.7293 21.5759 27.7033 21.968 27.7033L 21.968 26.9699C 21.9681 25.1203 21.9651 23.2708 21.9693 21.4214C 21.9719 20.2681 22.3563 19.7789 23.4723 19.5736C 30.5463 18.2727 37.6219 16.9808 44.6969 15.6852C 45.6765 15.5056 46.6554 15.3214 47.6631 15.1341L 47.6631 8.35881L 45.6771 8.35881C 45.6771 9.14558 45.6857 9.94189 45.6735 10.7375C 45.6671 11.1493 45.679 11.5736 45.5855 11.969C 45.3955 12.7723 44.8873 13.3139 44.0551 13.4762C 43.6956 13.5462 43.3224 13.5722 42.9554 13.5725C 29.5301 13.5772 16.1048 13.5674 2.67965 13.5904C 1.36954 13.5927 0.454118 13.1605 0 11.8999L 0 1.71265C 0.42434 0.477505 1.28086 -0.00234232 2.58927 8.59229e-06C 16.1232 0.0239095 29.6572 0.0133304 43.1911 0.0216892C 43.5965 0.0218198 44.0331 0.0463738 44.401 0.194351C 45.3478 0.574807 45.6743 1.37882 45.678 2.34544C 45.6818 3.29377 45.6789 4.2421 45.6789 5.23902C 46.7641 5.23902 47.763 5.27702 48.7575 5.22857C 49.7821 5.17855 50.4797 5.5509 50.8058 6.54508L 50.8058 16.7324C 50.4953 17.5139 49.9062 17.8602 49.0839 18.0066C 43.5008 19.0009 37.9236 20.0274 32.3449 21.0458C 29.934 21.4858 27.5242 21.9309 25.1087 22.3746L 25.1087 27.7033C 25.4121 27.7033 25.6721 27.7224 25.9285 27.7002C 27.8647 27.533 28.6908 28.6186 28.6785 30.431C 28.6289 37.7409 28.6406 45.0515 28.6742 52.3616C 28.6801 53.6482 28.2606 54.5413 27.0355 55L 19.9828 55Z"/>
</defs>
</svg>
