<svg width="44" height="57" viewBox="0 0 44 57" version="1.1" xmlns="http://www.w3.org/2000/svg" xmlns:xlink="http://www.w3.org/1999/xlink">
<title>Page 1</title>
<desc>Created using Figma</desc>
<g id="Canvas" transform="translate(-5501 -3656)">
<g id="Page 1">
<g id="Group 3">
<g id="Fill 1">
<use xlink:href="#path0_fill" transform="translate(5501 3663.09)" fill="#FFFFFF"/>
</g>
</g>
<g id="Fill 7">
<use xlink:href="#path1_fill" transform="translate(5508 3656)" fill="#FFFFFF"/>
</g>
<g id="Fill 9">
<use xlink:href="#path2_fill" transform="translate(5508 3701)" fill="#FFFFFF"/>
</g>
<g id="Fill 11">
<use xlink:href="#path3_fill" transform="translate(5508 3683)" fill="#FFFFFF"/>
</g>
<g id="Fill 13">
<use xlink:href="#path4_fill" transform="translate(5508 3696)" fill="#FFFFFF"/>
</g>
<g id="Fill 15">
<use xlink:href="#path5_fill" transform="translate(5508 3689)" fill="#FFFFFF"/>
</g>
<g id="Fill 17">
<use xlink:href="#path6_fill" transform="translate(5508 3677)" fill="#FFFFFF"/>
</g>
</g>
</g>
<defs>
<path id="path0_fill" fill-rule="evenodd" d="M 34.0378 46.5991C 23.965 46.5854 13.8774 46.5889 3.80458 46.5878C 3.63856 46.5877 3.46004 46.5705 3.25684 46.5594L 3.25684 3.33745C 3.46004 3.32787 3.65919 3.31178 3.84015 3.31168C 12.0678 3.31055 20.3028 3.3156 28.5303 3.29859C 29.0541 3.29766 29.1902 3.46147 29.1787 3.97714C 29.1454 5.4857 29.1706 7.02766 29.1706 8.57405L 34.5644 8.57405C 34.5855 8.78024 34.6168 9.00879 34.6168 9.20508C 34.6188 21.4697 34.6159 33.7288 34.6269 45.9934C 34.6274 46.4563 34.5148 46.5998 34.0378 46.5991ZM 37.8874 7.55619C 37.8877 7.11165 37.7725 6.79217 37.4494 6.47835C 35.3962 4.48516 33.3537 2.48 31.3328 0.453094C 31.001 0.120208 30.6816 -0.000513821 30.2246 1.64283e-06C 20.3546 0.0112388 10.4846 0.0173212 0.614599 0.0173212L 0.00548148 0.0173212L 0.00548148 0.70062C 0.00548148 13.4979 -0.0012244 26.2954 0.000198061 39.0927C 0.000502874 42.7 0.00162052 46.3071 0.00548148 49.9142L 37.9039 49.9142C 37.8956 49.6744 37.8801 49.4347 37.8801 49.195C 37.8791 35.3154 37.8776 21.4358 37.8874 7.55619Z"/>
<path id="path1_fill" fill-rule="evenodd" d="M 36.6806 6.65432C 34.6484 4.56464 32.5922 2.50005 30.5517 0.418949C 30.2616 0.123034 29.9597 -0.000719354 29.5444 3.14404e-06C 21.5428 0.0125953 13.5414 0.00918919 5.53997 0.00908598C 3.8537 0.00908598 2.16733 0.0185817 0.481255 0.00206742C 0.11809 -0.00154507 -0.00481643 0.100637 0.000143486 0.495121C 0.0205783 2.129 0.00817854 3.75214 0.0102617 5.38633C 0.0103609 5.50018 0.0311925 5.62785 0.0436915 5.73107L 3.18788 5.73107C 3.18788 5.11178 3.21784 4.54576 3.17895 3.96838C 3.14463 3.45891 3.2838 3.30223 3.80469 3.30347C 11.8392 3.32215 19.8711 3.31906 27.9057 3.3205C 28.0802 3.3205 28.276 3.343 28.4744 3.35652L 28.4744 8.62106L 29.0626 8.62106C 30.4347 8.62106 31.8073 8.63066 33.1787 8.60011C 33.6634 8.58917 33.8343 8.6995 33.8335 9.24571C 33.8167 21.4757 33.8311 33.7006 33.8311 45.9306L 33.8311 46.707L 32.3852 46.707C 32.3852 47.636 32.403 48.6017 32.3771 49.5256C 32.3657 49.9308 32.5203 50.0047 32.8717 49.9998C 34.0617 49.9827 35.2525 49.9685 36.4422 49.998C 36.8759 50.0089 37.0004 49.8805 37 49.4199C 36.9883 35.4182 36.9922 21.415 36.9782 7.41325C 36.978 7.15717 36.8542 6.83277 36.6806 6.65432Z"/>
<path id="path2_fill" fill-rule="evenodd" d="M 20.5788 0.00205022C 14.1849 -0.00107112 7.79118 -0.00245838 1.39731 0.0117611C 1.11778 0.0123391 0.805848 0.101933 0.565953 0.266208C 0.0823466 0.597417 -0.103031 1.30249 0.0552349 1.93196C 0.223191 2.60028 0.668332 2.99495 1.2967 2.99576C 4.52622 3.00039 7.75575 2.99796 10.9853 2.99842C 14.1822 2.99888 17.3791 3.00547 20.576 2.98779C 20.8692 2.98617 21.2054 2.90952 21.4457 2.72779C 21.943 2.35161 22.1035 1.67532 21.936 1.05406C 21.7473 0.354184 21.3109 0.00239704 20.5788 0.00205022Z"/>
<path id="path3_fill" fill-rule="evenodd" d="M 20.6026 0.00226516C 20.5209 0.000648424 20.4392 0.00111035 20.3577 0.00111035C 14.1032 0.00122583 7.84874 0.00111035 1.59439 0.00249613C 1.39869 0.00249613 1.19789 -0.0126319 1.00827 0.0315974C 0.524033 0.144423 0.180583 0.461419 0.0550858 1.05084C -0.182182 2.16569 0.364514 2.99497 1.3582 2.99681C 4.55896 3.00247 7.75962 2.99889 10.9603 2.99878C 14.1773 2.99878 17.3944 3.00143 20.6114 2.99705C 21.4542 2.99589 21.9854 2.42172 21.9997 1.52419C 22.0143 0.602884 21.4792 0.0197029 20.6026 0.00226516Z"/>
<path id="path4_fill" fill-rule="evenodd" d="M 20.4117 8.08097e-05C 14.1416 3.00687e-06 7.87151 -0.000308205 1.6014 0.00117005C 1.3898 0.00124785 1.17526 0.00490459 0.967388 0.0322912C 0.463591 0.0985792 0.155606 0.340235 0.045492 0.735318C -0.163263 1.48495 0.358576 1.99534 1.36146 1.99697C 4.56182 2.00226 7.76218 1.99891 10.9625 1.99938C 11.3054 1.99977 11.6483 1.99985 11.9912 1.99977C 14.8813 1.99961 17.7715 1.99954 20.6616 1.99923C 21.1652 1.99923 21.5941 1.89559 21.8387 1.50144C 22.0759 1.11935 22.0522 0.753835 21.7631 0.399521C 21.4389 0.00210366 20.9247 8.08097e-05 20.4117 8.08097e-05Z"/>
<path id="path5_fill" fill-rule="evenodd" d="M 20.7018 0.00367892L 10.9597 0.00367892L 10.9597 0.00235675C 8.11734 0.00235675 5.27837 0.00212343 2.43822 0.00266785C 1.99755 0.00274563 1.55521 -0.00767618 1.11592 0.0121564C 0.509603 0.039533 0.129408 0.328233 0.0271794 0.804525C -0.132583 1.54875 0.418647 1.99907 1.50484 1.9993C 7.8379 2.00062 14.1711 2 20.5041 1.99805C 20.6991 1.99798 20.9153 2.01369 21.0837 1.95435C 21.3262 1.86879 21.5875 1.75423 21.7449 1.59308C 22.0701 1.25982 22.0687 0.879266 21.8295 0.498404C 21.5946 0.124619 21.1929 0.00367892 20.7018 0.00367892Z"/>
<path id="path6_fill" fill-rule="evenodd" d="M 0.687001 2.84954C 0.963414 2.97977 1.29209 2.99368 1.59723 2.99414C 7.85317 3.00179 14.1091 3.00005 20.3651 2.99924C 20.5447 2.99924 20.7255 3.00422 20.9035 2.9814C 21.6436 2.88592 22.1189 2.10959 21.974 1.2452C 21.8269 0.367952 21.4077 0.00319421 20.5145 0.00215138C 17.3294 -0.00132471 14.1443 0.000876814 10.9591 0.000992684C 8.50896 0.00122442 6.05888 -0.000281884 3.60881 0.00203551C 2.77594 0.0028466 1.94229 -0.0118689 1.11059 0.0275269C 0.510209 0.055915 0.129956 0.51082 0.0260193 1.21392C -0.0823303 1.94621 0.149567 2.59624 0.687001 2.84954Z"/>
</defs>
</svg>
