<svg width="52" height="55" viewBox="0 0 52 55" version="1.1" xmlns="http://www.w3.org/2000/svg" xmlns:xlink="http://www.w3.org/1999/xlink">
<title>Page 1</title>
<desc>Created using Figma</desc>
<g id="Canvas" transform="translate(-6294 -3387)">
<g id="Page 1">
<g id="Group 3">
<g id="Fill 1">
<use xlink:href="#path0_fill" transform="translate(6294 3387.02)" fill="#FFFFFF"/>
</g>
</g>
<g id="Fill 4">
<use xlink:href="#path1_fill" transform="translate(6307 3422)" fill="#FFFFFF"/>
</g>
<g id="Fill 6">
<use xlink:href="#path2_fill" transform="translate(6313 3404)" fill="#FFFFFF"/>
</g>
<g id="Fill 8">
<use xlink:href="#path3_fill" transform="translate(6322 3404)" fill="#FFFFFF"/>
</g>
<g id="Fill 10">
<use xlink:href="#path4_fill" transform="translate(6313 3412)" fill="#FFFFFF"/>
</g>
<g id="Fill 12">
<use xlink:href="#path5_fill" transform="translate(6322 3412)" fill="#FFFFFF"/>
</g>
</g>
</g>
<defs>
<path id="path0_fill" fill-rule="evenodd" d="M 51.6854 20.5878C 50.6263 19.7368 49.5717 18.8805 48.5138 18.028C 46.7821 16.6324 45.0515 15.2353 43.3129 13.8481C 43.066 13.651 42.9701 13.4391 42.9714 13.1222C 42.9837 10.1542 42.9788 7.20485 42.9774 4.23688C 42.9773 4.07879 42.9637 3.94121 42.9562 3.77781L 37.5463 3.77781L 37.5463 9.1743C 37.0479 8.81907 36.7495 8.53353 36.3987 8.25101C 33.0518 5.5551 29.6964 2.86237 26.3559 0.158773C 26.0897 -0.0565867 25.912 -0.0503776 25.6496 0.162286C 22.8764 2.41041 20.0913 4.64603 17.3123 6.88737C 14.8006 8.9131 12.2923 10.9436 9.77957 12.9678C 6.99965 15.2075 4.21698 17.4442 1.43216 19.6781C 0.964077 20.0535 0.477719 20.4075 0 20.7713L 0 20.853C 1.14217 22.2112 2.28426 23.5694 3.44629 24.9513C 3.58567 24.845 3.69474 24.7659 3.79941 24.6812C 4.62169 24.0175 5.44106 23.3503 6.26509 22.6888C 8.40581 20.97 10.5513 19.2568 12.6897 17.5351C 14.6352 15.9686 16.5717 14.3914 18.5157 12.8232C 20.9087 10.893 23.3075 8.9698 25.6968 7.03524C 25.9227 6.85224 26.0755 6.85044 26.3019 7.03492C 28.2271 8.6042 30.1585 10.1663 32.0938 11.7236C 34.6067 13.7453 37.1278 15.7573 39.64 17.7798C 42.3453 19.9576 45.043 22.1446 47.7471 24.3236C 48.5691 24.9861 48.5647 24.9727 49.2356 24.1583C 50.1487 23.0499 51.0778 21.9542 52 20.853L 52 20.7713C 51.8947 20.7108 51.7788 20.6628 51.6854 20.5878Z"/>
<path id="path1_fill" fill-rule="evenodd" d="M 12.9319 13.1653C 9.71433 10.5771 6.54047 8.02417 3.34553 5.45421C 2.20537 6.89065 1.10359 8.27875 0 9.66901C 0.0702666 9.7453 0.102476 9.79033 0.143911 9.82375C 1.99325 11.3177 3.84234 12.8119 5.69382 14.3032C 7.94119 16.1133 10.1916 17.9195 12.4386 19.7301C 12.8869 20.0914 12.8794 20.0931 13.3584 19.7162C 15.3994 18.1095 17.4416 16.5045 19.4848 14.9007C 21.4731 13.3401 23.4638 11.7828 25.452 10.222C 27.3856 8.70408 29.3181 7.18471 31.2493 5.66368C 31.8271 5.20867 32.3991 4.74619 33 4.26613C 31.8761 2.81973 30.7844 1.41513 29.6847 0C 24.0608 4.41954 18.5 8.78949 12.9319 13.1653Z"/>
<path id="path2_fill" fill-rule="evenodd" d="M 0.429126 5.99966C 1.86263 5.9859 3.29631 6 4.73 6L 6 6L 6 0.0502192C 5.91298 0.031048 5.89993 0.00938367 5.85973 0.0092977C 4.00619 0.00646071 2.15579 0.0103293 0.302256 1.29903e-05C -0.0151797 -0.00179237 0.00518213 0.184848 0.00535617 0.393152C 0.00674843 2.12432 0.0146669 3.85876 4.81695e-05 5.58967C -0.00273635 5.9197 0.11491 6.00267 0.429126 5.99966Z"/>
<path id="path3_fill" fill-rule="evenodd" d="M 5.52235 0.00351875C 4.133 0.0204259 2.7433 0 1.35369 0L 0 0L 0 5.95372C 0.0869867 5.97054 0.132046 5.99131 0.187108 5.99131C 2.01087 5.99363 3.83124 5.98822 5.65492 5.99998C 5.97494 6.00212 5.99538 5.84129 5.99478 5.59824C 5.98973 3.88453 5.98077 2.16532 5.99991 0.451773C 6.00408 0.0783565 5.86673 -0.000858231 5.52235 0.00351875Z"/>
<path id="path4_fill" fill-rule="evenodd" d="M 0.0107255 0.159175C 0.00767834 1.9952 0.0118573 3.83513 1.69688e-05 5.67098C -0.00198543 5.99541 0.173442 6.00097 0.414601 5.99993C 1.58862 5.99463 2.76255 5.99185 3.93657 5.99185L 6 5.99185L 6 0L 0.0501641 0C 0.0312719 0.0868384 0.0107255 0.118534 0.0107255 0.159175Z"/>
<path id="path5_fill" fill-rule="evenodd" d="M 0 5.95439C 0.087066 5.97112 0.131992 5.99201 0.187714 5.99209C 2.01462 5.99417 3.8377 5.98871 5.66451 5.99998C 5.98962 6.00206 6.00059 5.82985 5.99998 5.58874C 5.99545 3.82801 5.99702 2.06216 5.99441 0.301342C 5.99423 0.205142 5.96759 0.0866674 5.95262 0L 0 0L 0 5.95439Z"/>
</defs>
</svg>
