<svg width="42" height="56" viewBox="0 0 42 56" version="1.1" xmlns="http://www.w3.org/2000/svg" xmlns:xlink="http://www.w3.org/1999/xlink">
<title>Page 1</title>
<desc>Created using Figma</desc>
<g id="Canvas" transform="translate(-6138 -3656)">
<g id="Page 1">
<g id="Group 3">
<mask id="mask0_outline" mask-type="alpha">
<g id="Clip 2">
<use xlink:href="#path0_fill" transform="translate(6145.31 3656.01)" fill="#FFFFFF"/>
</g>
</mask>
<g id="Fill 1" mask="url(#mask0_outline)">
<use xlink:href="#path1_fill" transform="translate(6145.31 3656.01)" fill="#FFFFFF"/>
</g>
</g>
<g id="Fill 4">
<use xlink:href="#path2_fill" transform="translate(6139 3681)" fill="#FFFFFF"/>
</g>
<g id="Fill 6">
<use xlink:href="#path3_fill" transform="translate(6138 3658)" fill="#FFFFFF"/>
</g>
<g id="Group 10">
<mask id="mask1_outline" mask-type="alpha">
<g id="Clip 9">
<use xlink:href="#path4_fill" transform="translate(6138.4 3675.32)" fill="#FFFFFF"/>
</g>
</mask>
<g id="Fill 8" mask="url(#mask1_outline)">
<use xlink:href="#path5_fill" transform="translate(6138.4 3675.32)" fill="#FFFFFF"/>
</g>
</g>
<g id="Fill 11">
<use xlink:href="#path6_fill" transform="translate(6169 3657)" fill="#FFFFFF"/>
</g>
</g>
</g>
<defs>
<path id="path0_fill" fill-rule="evenodd" d="M 6.5605 0L 1.55431e-15 0L 0 6.6082L 6.5605 6.6082L 6.5605 6.21725e-15L 6.5605 0Z"/>
<path id="path1_fill" fill-rule="evenodd" d="M 5.20757 3.36665C 4.39251 2.72352 3.86838 1.9894 3.37095 2.0069C 2.85776 2.02527 2.37082 2.77471 1.87207 3.20477C 2.35288 3.72715 2.76063 4.52296 3.33901 4.67652C 3.7332 4.78152 4.3667 3.99052 5.20757 3.36665ZM 4.32475 0C 4.72112 0.308437 5.149 0.583625 5.50775 0.930562C 6.864 2.24262 6.91125 4.28619 5.64119 5.6035C 4.36894 6.923 2.24487 6.94619 0.965185 5.65338C -0.330252 4.34481 -0.325002 2.31875 1.00106 0.962062C 1.34625 0.608562 1.75662 0.3185 2.13725 0L 4.32475 0Z"/>
<path id="path2_fill" fill-rule="evenodd" d="M 40 0C 39.1117 5.59144 38.2554 10.9825 37.4079 16.3188C 31.428 17.5981 24.8024 14.5248 22.361 9.39111C 22.1353 8.91807 22.1695 8.28676 22.2054 7.73612C 22.3118 6.07193 21.7289 4.58792 20.0131 4.53619C 18.9666 4.50463 17.3997 5.35689 16.929 6.25431C 16.1644 7.71113 16.7481 9.21311 18.5136 9.99611C 19.0734 10.2442 19.6212 10.7111 19.963 11.2175C 23.7297 16.805 28.8878 19.78 35.7719 19.5994C 36.0516 19.5919 36.3335 19.6849 36.8255 19.766C 36.2851 23.2829 35.7816 26.7301 35.1868 30.1619C 35.13 30.4907 34.5055 30.9625 34.1416 30.9642C 24.3383 31.0081 14.5345 30.9993 4.56501 30.9993C 3.03226 20.5906 1.52522 10.3591 0 0L 40 0Z"/>
<path id="path3_fill" fill-rule="evenodd" d="M 11.5094 6.27692C 14.3716 1.6917 18.3356 -0.627817 23.6005 0.147268C 28.849 0.920588 31.8519 4.24547 32.7738 9.5224C 34.0989 9.43064 35.328 9.21051 36.5377 9.28992C 39.0553 9.45579 40.5616 11.6721 39.8032 13.9356C 39.4462 15.0014 38.9452 15.4575 37.9827 14.3983C 35.8225 12.0219 35.2778 11.9531 32.6535 13.5447C 31.1076 14.483 30.1931 14.0684 29.8917 12.2866C 29.6969 11.1357 29.6599 9.93222 29.2924 8.84039C 28.1911 5.5711 25.2588 3.43862 21.8249 3.30628C 18.2135 3.16732 15.6694 4.8538 14.0543 8.01987C 13.7569 8.60262 13.6714 9.30315 13.3325 9.85281C 13.0086 10.3778 12.4736 11.1484 12.0448 11.1396C 11.4622 11.1277 10.8518 10.5273 10.3252 10.091C 9.18473 9.14787 8.22272 7.82489 6.9271 7.29023C 6.1083 6.95231 4.51037 7.45477 3.83568 8.14339C 3.27513 8.71511 3.34256 10.1471 3.51707 11.1295C 3.70127 12.1648 4.68797 13.2672 3.19977 13.9373C 1.6772 14.6238 1.15587 13.3175 0.651284 12.2517C -0.45572 9.91457 -0.137544 7.73313 1.49916 6.18296C 3.65985 4.13695 6.88127 3.71345 9.66111 5.13613C 10.2415 5.43346 10.7761 5.82078 11.5094 6.27692Z"/>
<path id="path4_fill" fill-rule="evenodd" d="M 41.2221 0L 41.2221 4.26129L 0 4.26129L 0 6.45948e-15L 41.2221 6.45948e-15L 41.2221 0Z"/>
<path id="path5_fill" fill-rule="evenodd" d="M 20.4741 4.18124C 14.7149 4.18124 8.95607 4.19079 3.19725 4.16897C 2.48238 4.16579 1.62138 4.21215 1.09463 3.83488C 0.533316 3.43306 -0.0538089 2.51942 0.00394115 1.8926C 0.0616912 1.27033 0.816816 0.552604 1.43675 0.203058C 1.95388 -0.0883052 2.71775 0.0698766 3.37225 0.069422C 14.8173 0.064422 26.2623 0.0653311 37.7077 0.0662402C 38.2178 0.0666948 38.857 -0.11876 39.2114 0.128967C 39.9599 0.652149 40.5606 1.40533 41.2221 2.06397C 40.5746 2.75851 40.0387 3.75351 39.2512 4.0676C 38.3587 4.42397 37.24 4.17942 36.2198 4.17988C 30.9715 4.18306 25.7224 4.18124 20.4741 4.18124Z"/>
<path id="path6_fill" fill-rule="evenodd" d="M 1.90186 4.57255C 1.93999 5.98805 3.11967 7.16878 4.50889 7.18037C 5.9748 7.19324 7.26246 5.89363 7.17505 4.41246C 7.07949 2.79695 6.09864 1.9437 4.56245 1.82481C 3.09824 1.71107 1.86115 3.06348 1.90186 4.57255ZM 8.99979 4.45283C 9.02378 6.90828 7.01366 8.97445 4.57418 8.99977C 2.18697 9.0251 0.0303022 6.92288 0.000306813 4.5421C -0.0292601 2.16691 2.08242 0.028639 4.48591 0.000311783C 6.92411 -0.0288738 8.97622 1.9948 8.99979 4.45283Z"/>
</defs>
</svg>
