<svg width="44" height="44" viewBox="0 0 44 44" version="1.1" xmlns="http://www.w3.org/2000/svg" xmlns:xlink="http://www.w3.org/1999/xlink">
<title>Page 1</title>
<desc>Created using Figma</desc>
<g id="Canvas" transform="translate(-5330 -3392)">
<g id="Page 1">
<g id="Fill 1">
<use xlink:href="#path0_fill" transform="translate(5330 3392)" fill="#FFFFFF"/>
</g>
<g id="Group 5">
<mask id="mask0_outline" mask-type="alpha">
<g id="Clip 4">
<use xlink:href="#path1_fill" transform="translate(5353.05 3392)" fill="#FFFFFF"/>
</g>
</mask>
<g id="Fill 3" mask="url(#mask0_outline)">
<use xlink:href="#path2_fill" transform="translate(5353.05 3392)" fill="#FFFFFF"/>
</g>
</g>
<g id="Fill 6">
<use xlink:href="#path3_fill" transform="translate(5330 3419)" fill="#FFFFFF"/>
</g>
</g>
</g>
<defs>
<path id="path0_fill" fill-rule="evenodd" d="M 38.0934 41.2739C 36.3529 41.2577 34.9514 39.851 34.9575 38.1262C 34.9635 36.4009 36.373 35.0032 38.1124 34.9971C 39.8664 34.9909 41.2974 36.4235 41.278 38.1658C 41.2587 39.8803 39.8144 41.29 38.0934 41.2739ZM 20.947 12.5872C 20.6677 12.3106 20.5108 12.0629 20.5686 11.6367C 21.511 4.69804 15.4431 -1.06755 8.49743 0.167704C 7.78769 0.29396 7.09898 0.536434 6.40046 0.724914C 6.39207 0.781318 6.38358 0.837721 6.37519 0.894125C 6.51639 1.01125 6.66729 1.11863 6.79727 1.2469C 8.64803 3.07469 10.5002 4.90108 12.343 6.7368C 13.3763 7.76601 13.3731 9.14248 12.3491 10.1704C 11.5912 10.9312 10.8265 11.6854 10.0639 12.4417C 8.88727 13.6084 7.57523 13.608 6.39237 12.4354C 4.61651 10.6751 2.84398 8.91144 1.06923 7.14999C 0.943897 7.02554 0.81149 6.90812 0.644112 6.75165C 0.171897 7.96081 -0.0264097 9.15954 0.00280052 10.3828C 0.147437 16.4316 5.10732 20.918 11.174 20.4832C 11.6136 20.4517 11.882 20.5788 12.1743 20.8697C 19.3126 27.9709 26.4598 35.0634 33.6022 42.1607C 34.4857 43.0384 35.5346 43.5975 36.7535 43.8503C 37.0151 43.9046 37.2785 44 37.5413 44L 38.3499 44C 38.4787 44 38.6057 43.923 38.7364 43.9044C 40.6178 43.6376 42.0758 42.7058 43.0822 41.1135C 44.6022 38.7085 44.205 35.6601 42.1072 33.5766C 35.0586 26.5754 28.0052 19.5789 20.947 12.5872Z"/>
<path id="path1_fill" fill-rule="evenodd" d="M 5.8204e-15 0L 20.4017 0L 20.4017 20.3944L 0 20.3944L 0 5.84965e-15L 5.8204e-15 0Z"/>
<path id="path2_fill" fill-rule="evenodd" d="M 20.2823 4.14277C 19.7758 2.0843 18.5141 0.7608 16.4788 0.188322C 16.251 0.12421 16.0226 0.102908 15.7944 0L 14.6681 0C 12.9543 0.308724 11.7413 1.3236 10.5698 2.52238C 7.23452 5.93513 3.8502 9.29899 0.478997 12.676C 0.348753 12.8064 0.15441 12.8722 0 12.9623C 0.679074 13.6408 1.21848 14.1798 1.78308 14.7439C 1.91497 14.619 2.05248 14.4955 2.18262 14.3647C 5.13873 11.395 8.09411 8.42447 11.0495 5.45413C 11.918 4.58116 12.7826 3.70408 13.6572 2.83718C 14.0298 2.46794 14.4727 2.45878 14.7838 2.78644C 15.0834 3.10206 15.0569 3.49528 14.7063 3.88067C 14.6143 3.98183 14.5141 4.07537 14.4176 4.17241C 10.6899 7.91858 6.96225 11.6647 3.23523 15.4116C 3.09608 15.5515 2.9643 15.6987 2.90276 15.7643C 3.54108 16.4206 4.13189 17.028 4.7783 17.6927C 4.89175 17.5538 5.00961 17.3822 5.15368 17.2371C 8.8764 13.4862 12.6019 9.73789 16.3278 5.98997C 16.4602 5.85691 16.5887 5.71387 16.7416 5.6086C 17.0905 5.3681 17.43 5.42707 17.7046 5.7324C 17.9661 6.02311 17.9759 6.35139 17.7321 6.66732C 17.6491 6.77506 17.5457 6.86727 17.4493 6.96421C 13.6857 10.747 9.92297 14.5306 6.15427 18.3084C 6.01163 18.4514 5.81186 18.5372 5.71049 18.603C 6.34881 19.2716 6.87573 19.8238 7.42057 20.3944C 7.52102 20.3059 7.62648 20.2233 7.72038 20.129C 11.4368 16.3957 15.1589 12.6681 18.8582 8.91782C 19.2706 8.4997 19.6046 7.97981 19.8805 7.45683C 20.1231 6.99724 20.1969 6.46716 20.4017 5.96816L 20.4017 4.52744C 20.4017 4.39932 20.3143 4.27295 20.2823 4.14277Z"/>
<path id="path3_fill" fill-rule="evenodd" d="M 14.2474 0.302358C 12.8004 1.74483 11.2754 3.11937 9.93088 4.65155C 8.7255 6.0252 7.34353 6.87394 5.5183 7.01914C 5.32806 7.03424 5.09086 7.19914 4.98041 7.36434C 3.3465 9.80791 1.73391 12.2656 0.104713 14.7123C -0.0562409 14.9541 -0.0299065 15.0915 0.171728 15.2883C 0.742536 15.8458 1.28927 16.4118 1.84554 17L 1.9438 17C 2.07075 16.902 2.19152 16.7921 2.32555 16.7038C 4.71451 15.1306 7.10868 13.5646 9.4888 11.9782C 9.67884 11.8516 9.84225 11.6028 9.90229 11.3798C 10.0886 10.6876 10.2005 9.97556 10.3807 9.28144C 10.4465 9.02839 10.5748 8.75652 10.756 8.57358C 12.6533 6.65698 14.566 4.75538 16.479 2.85417C 16.6499 2.68436 16.8531 2.54691 17 2.42779C 16.1438 1.57424 15.3622 0.794818 14.565 0C 14.4808 0.0798053 14.3615 0.188533 14.2474 0.302358Z"/>
</defs>
</svg>
