<svg width="50" height="50" viewBox="0 0 50 50" version="1.1" xmlns="http://www.w3.org/2000/svg" xmlns:xlink="http://www.w3.org/1999/xlink">
<title>Group 16</title>
<desc>Created using Figma</desc>
<g id="Canvas" transform="translate(-5973 -3389)">
<g id="Group 16">
<g id="Page 1">
<g id="Group 3">
<mask id="mask0_outline" mask-type="alpha">
<g id="Clip 2">
<use xlink:href="#path0_fill" transform="matrix(-1 0 0 1 6023 3413.36)" fill="#FFFFFF"/>
</g>
</mask>
<g id="Fill 1" mask="url(#mask0_outline)">
<use xlink:href="#path1_fill" transform="matrix(-1 0 0 1 6023 3413.36)" fill="#FFFFFF"/>
</g>
</g>
<g id="Fill 4">
<use xlink:href="#path2_fill" transform="matrix(-1 0 0 1 5997.32 3389.84)" fill="#FFFFFF"/>
</g>
<g id="Fill 6">
<use xlink:href="#path3_fill" transform="matrix(-1 0 0 1 6021.45 3389)" fill="#FFFFFF"/>
</g>
<g id="Fill 8">
<use xlink:href="#path4_fill" transform="matrix(-1 0 0 1 5988.87 3423.64)" fill="#FFFFFF"/>
</g>
<g id="Fill 10">
<use xlink:href="#path5_fill" transform="matrix(-1 0 0 1 6016.16 3394.7)" fill="#FFFFFF"/>
</g>
<g id="Fill 12">
<use xlink:href="#path6_fill" transform="matrix(-1 0 0 1 5989.01 3397.73)" fill="#FFFFFF"/>
</g>
<g id="Fill 14">
<use xlink:href="#path7_fill" transform="matrix(-1 0 0 1 6012.55 3398.54)" fill="#FFFFFF"/>
</g>
</g>
</g>
</g>
<defs>
<path id="path0_fill" fill-rule="evenodd" d="M 0 25.6394L 0 0L 25.4373 0L 25.4373 25.6394L 0 25.6394Z"/>
<path id="path1_fill" fill-rule="evenodd" d="M 20.6335 14.8416C 18.6522 16.7505 16.6793 18.6681 14.6906 20.5692C 13.8359 21.3862 12.705 21.3341 11.8858 20.4852C 9.85391 18.3796 7.81558 16.2801 5.78938 14.1688C 5.40487 13.7683 5.00903 13.3599 4.71717 12.8933C 4.26741 12.1743 4.5024 11.1224 5.16829 10.7405C 5.20335 10.7929 5.23882 10.8669 5.29297 10.9231C 6.27907 11.9474 7.25455 12.9825 8.26094 13.9865C 8.75479 14.4792 9.47803 14.4581 9.90487 14.005C 10.3298 13.5539 10.3107 12.8832 9.84497 12.3873C 9.28083 11.7866 8.70703 11.195 8.13778 10.599C 7.67236 10.1118 7.20759 9.62404 6.76877 9.16398C 7.0397 8.8512 7.27995 8.57388 7.48626 8.3357C 7.95144 8.77324 8.38466 9.16382 8.79856 9.57396C 9.50639 10.2755 10.1801 11.013 10.9113 11.6887C 11.3369 12.0819 11.9606 12.0162 12.3653 11.6359C 12.7766 11.2493 12.836 10.6288 12.4727 10.1537C 12.2395 9.84864 11.9669 9.5726 11.7002 9.29481C 10.8827 8.44297 10.0597 7.59657 9.28211 6.79273C 9.55942 6.475 9.80799 6.19026 10.0713 5.88858C 10.5525 6.39345 10.9999 6.86661 11.4516 7.3357C 12.0329 7.93946 12.6097 8.54784 13.203 9.13946C 13.8026 9.7373 14.656 9.64137 15.0692 8.94712C 15.325 8.51749 15.2034 7.93626 14.7487 7.46126C 13.8748 6.54808 12.9968 5.6389 12.1218 4.72692C 11.9896 4.58922 11.8641 4.44521 11.7979 4.37276C 12.0641 4.04697 12.2895 3.77101 12.5212 3.48754C 12.6198 3.57308 12.6721 3.61198 12.7169 3.65823C 13.6703 4.64225 14.6204 5.62955 15.5783 6.60911C 15.7252 6.75927 15.8945 6.8976 16.0764 7.00128C 16.5633 7.27883 17.2141 7.10184 17.5185 6.63339C 17.6667 6.40543 17.6735 6.21717 17.4655 5.99936C 16.1805 4.65319 14.9078 3.29529 13.6303 1.94201C 13.0208 1.29625 12.4097 0.652077 11.7925 0C 11.6688 0.0980032 11.5686 0.164537 11.4835 0.246725C 10.6808 1.02228 9.88283 1.8028 9.07939 2.57756C 6.68578 4.88578 4.28043 7.17971 1.90543 9.50687C 1.22188 10.1767 0.399361 10.7145 0 11.6617L 0 12.3007C 0.399361 13.2013 1.177 13.7868 1.83059 14.4701C 4.47212 17.2313 7.13299 19.9729 9.78634 22.7228C 10.3486 23.3056 10.8884 23.9107 11.4715 24.4716C 11.9056 24.8893 12.3918 25.2522 12.8551 25.6394L 13.574 25.6394C 13.7692 25.53 13.9954 25.4538 14.1546 25.3057C 15.1756 24.3561 16.1861 23.3952 17.1919 22.4296C 19.1495 20.5502 21.1027 18.6661 23.0559 16.7821C 23.8391 16.0268 24.6177 15.2668 25.4374 14.4711C 24.7305 13.7253 24.036 12.9926 23.3356 12.2537C 22.3994 13.15 21.5141 13.9933 20.6335 14.8416Z"/>
<path id="path2_fill" fill-rule="evenodd" d="M 23.7994 12.5389C 22.6065 11.2706 21.3903 10.0231 20.1815 8.76978C 18.5109 7.03783 16.8378 5.30787 15.1676 3.57569C 14.2073 2.57976 13.2593 1.57129 12.2875 0.586788C 11.5389 -0.171359 10.6621 -0.191407 9.91581 0.506676C 9.42109 0.969376 8.94073 1.44765 8.45327 1.9181C 6.20431 4.08862 3.94872 6.25228 1.7103 8.43367C 1.12324 9.00588 0.589217 9.63256 0 10.2674C 0.59401 10.8977 1.24888 11.5925 1.90351 12.2877C 3.72692 14.2235 5.54832 16.1614 7.37532 18.0938C 7.73323 18.4724 8.14617 18.5076 8.58826 18.2296C 9.22021 17.8322 9.33986 16.9436 8.81661 16.3965C 7.62276 15.1485 6.41869 13.9103 5.21925 12.6675C 4.66765 12.096 4.11733 11.523 3.53762 10.9207C 3.89976 10.5774 4.2389 10.2617 4.57189 9.93958C 6.24321 8.32217 7.90631 6.69613 9.58586 5.08735C 10.474 4.23671 11.5971 4.29062 12.453 5.18279C 13.3919 6.16147 14.3363 7.13495 15.278 8.11099C 16.608 9.4895 17.9442 10.8622 19.2653 12.2493C 20.0392 13.0618 20.007 14.1877 19.2087 14.9599C 17.2785 16.8269 15.3365 18.6818 13.4189 20.5616C 12.7842 21.1838 12.2095 21.8671 11.58 22.5522C 12.1481 23.16 12.7961 23.8608 13.4605 24.5454C 13.501 24.5871 13.7065 24.5369 13.7782 24.4691C 14.5601 23.7296 15.3295 22.9767 16.1045 22.2299C 18.202 20.2088 20.3145 18.2008 22.3942 16.1615C 23.0791 15.49 23.9216 14.925 24.3209 14.0154L 24.3209 13.3764C 24.1612 13.095 24.02 12.7735 23.7994 12.5389Z"/>
<path id="path3_fill" fill-rule="evenodd" d="M 8.68918 2.60889C 9.3121 3.26823 9.90284 3.89347 10.5396 4.56743C 8.5133 6.47862 6.49813 8.37917 4.45228 10.3089C 3.83071 9.65234 3.22185 9.00913 2.59717 8.34906C 4.62544 6.43788 6.63527 4.54411 8.68918 2.60889ZM 4.16757 13.9619C 4.2278 14.0252 4.47069 14.0142 4.54729 13.9462C 5.04369 13.506 5.51582 13.0384 5.99896 12.5831C 8.13586 10.5697 10.2744 8.55807 12.411 6.54433C 13.0566 5.93594 13.6978 5.32284 14.3506 4.7028C 14.2832 4.60543 14.2401 4.52292 14.1785 4.45767C 13.4399 3.67556 12.6988 2.89553 11.9577 2.1155C 11.139 1.25359 10.4085 0.274361 9.14744 0L 8.18898 0C 7.70839 0.244888 7.14641 0.40016 6.76078 0.74992C 4.79329 2.53427 2.86022 4.35743 0.937461 6.19042C -0.274759 7.34609 -0.270047 9.17644 0.713419 10.2672C 1.84225 11.5192 3.00511 12.7407 4.16757 13.9619Z"/>
<path id="path4_fill" fill-rule="evenodd" d="M 10.4244 8.33305C 9.70923 8.98624 9.02001 9.66779 8.30595 10.3222C 8.1891 10.4293 7.9625 10.5448 7.84309 10.5013C 6.35963 9.96108 4.8867 9.39207 3.32129 8.7963C 5.28535 6.94423 7.19389 5.14463 9.15851 3.29199C 9.49357 4.34199 9.7998 5.29862 10.1036 6.25581C 10.2644 6.76212 10.4171 7.27107 10.5818 7.7761C 10.6558 8.00373 10.6124 8.16148 10.4244 8.33305ZM 13.12 9.81534C 12.2761 7.12644 11.4295 4.43826 10.5814 1.75072C 10.4029 1.18506 10.2137 0.622843 10.0102 0C 6.65719 3.16398 3.34904 6.28562 0 9.44585C 0.222524 9.53906 0.376518 9.60863 0.534026 9.66893C 2.33403 10.3575 4.13427 11.0454 5.93482 11.7322C 7.88458 12.4759 9.83355 13.2218 11.7856 13.9591C 12.3887 14.187 12.9721 14.1561 13.4558 13.6839C 13.9202 13.2303 13.996 12.6728 13.8081 12.0652C 13.5764 11.3159 13.3549 10.5635 13.12 9.81534Z"/>
<path id="path5_fill" fill-rule="evenodd" d="M 2.59409 12.2125C 5.95687 9.04129 9.28594 5.90192 12.6331 2.74545C 11.7429 1.80176 10.9068 0.915575 10.0431 0C 6.68379 3.16605 3.35351 6.30487 0 9.46566C 0.886661 10.4045 1.73139 11.2989 2.59409 12.2125Z"/>
<path id="path6_fill" fill-rule="evenodd" d="M 2.27393 3.82486C 2.27337 2.9834 2.94597 2.30233 3.78878 2.29067C 4.63119 2.27901 5.35132 2.97685 5.36274 3.81551C 5.37441 4.67134 4.69349 5.35361 3.82161 5.35976C 2.955 5.36599 2.27457 4.69115 2.27393 3.82486ZM 3.937 7.64172C 6.05649 7.55362 7.71887 5.79651 7.63197 3.73637C 7.54291 1.62639 5.79299 -0.0582789 3.78932 0.00154539C 1.5299 0.0689575 -0.0450244 1.84963 0.000982035 3.86297C 0.0519405 6.09436 1.8017 7.73062 3.937 7.64172Z"/>
<path id="path7_fill" fill-rule="evenodd" d="M 10.049 0C 6.6865 3.16597 3.3615 6.29665 0 9.46174C 7.47085 17.3886 14.9212 25.2939 22.3905 33.2191C 25.7514 30.0507 29.0763 26.9164 32.4323 23.7526C 24.9538 15.8165 17.5112 7.91861 10.049 0Z"/>
</defs>
</svg>
