<svg xmlns="http://www.w3.org/2000/svg" width="300" height="77" viewBox="0 0 280.82 60.2"><title>logo</title><g id="Слой_2" data-name="Слой 2"><g id="Слой_1-2" data-name="Слой 1" ><style>path{fill:#0860a8;}</style><path d="M161.66,60.11c0-18.26,0-35.39,0-52.53,0-4.7,2.58-7,7.17-7.06,13.15-.05,26.3-.2,39.45.06,7.38.15,12.25,5.64,12.75,14a148,148,0,0,1,0,16.47c-.43,8.18-6.5,13.76-14.64,13.87-2.16,0-4.33,0-6.49,0-8.33,0-8.81-.35-12.47-9.9h15c13.25,0,13.32-.07,13.31-13.29,0-1.83,0-3.66,0-5.49-.16-3.77-2.32-6.05-5.91-6.17-8.15-.25-16.31-.19-24.46-.07-4.19.06-4.45,3.24-4.45,6.4q0,18.48,0,37c0,6.76,0,6.76-6.86,6.77Z"/><path d="M154.19,60c-8.24,0-15,.19-21.75-.16-1.31-.07-2.85-2-3.71-3.43C122.46,46,116.35,35.54,110.14,25.1c-2.73-4.6-4.17-4.62-6.87-.17C99.48,31.2,95.66,37.44,92,43.8c-3,5.32-2.21,6.78,3.78,7,4.32.14,8.66,0,13,.06,7.15,0,8.23.92,10.35,8.87-10.65,0-21.25.38-31.79-.17-4.82-.25-6.44-5.74-3.59-11.15,3.73-7.06,7.83-13.92,11.77-20.86,4.19-7.37,8.24-14.83,12.62-22.09,4-6.61,10.21-7.39,13.9-1.22C132.8,22.17,143,40.46,154.19,60Z"/><path d="M0,59.41c.95-1.76,1.67-3.21,2.49-4.6q14.44-24.49,28.92-49c4.52-7.62,10.34-7.67,14.67-.08q14.09,24.7,28,49.48c.71,1.25,1.25,2.6,2.28,4.77-7.29,0-13.87.19-20.43-.16-1.31-.07-2.84-2-3.71-3.45C46.05,46.16,40,35.8,33.89,25.53c-3.22-5.38-5.12-5.32-8.27.16C19.74,35.93,13.85,46.16,8.11,56.48,6.4,59.56,4.27,60.87,0,59.41Z"/><path d="M226.44.86h54.39v9c-3.49,0-6.93.21-10.34-.05-4.07-.32-5.54,1.1-5.46,5.33.23,13.15-.12,26.31.2,39.46.11,4.53-1.39,5.6-5.66,5.56-13.34-.11-13.34,0-13.34-13.45,0-10.49-.14-21,.06-31.47.08-4.08-1.27-5.93-5.45-5.4a27.41,27.41,0,0,1-3.49,0C230.42,9.89,228.58,8.42,226.44.86Z"/></g></g></svg>
