<?xml version="1.0" encoding="utf-8"?><svg xmlns="http://www.w3.org/2000/svg" xmlns:xlink="http://www.w3.org/1999/xlink"><symbol viewBox="0 0 12 16" id="arr-l'" xmlns="http://www.w3.org/2000/svg"><path d="M.167 8.314l11.226 7.619c.119.08.273.089.4.024a.38.38 0 0 0 .207-.338V.381A.38.38 0 0 0 11.613 0a.394.394 0 0 0-.22.067L.167 7.687a.379.379 0 0 0 0 .627z"/></symbol><symbol viewBox="0 0 12 16" id="arr-lr" xmlns="http://www.w3.org/2000/svg"><path d="M11.833 7.686L.607.067a.394.394 0 0 0-.4-.024A.38.38 0 0 0 0 .381v15.238A.38.38 0 0 0 .387 16a.394.394 0 0 0 .22-.067l11.226-7.62a.379.379 0 0 0 0-.627z"/></symbol><symbol viewBox="0 0 344.96 344.96" id="check" xmlns="http://www.w3.org/2000/svg"><defs><style>.ccls-1{fill:#e75713}</style></defs><g id="cСлой_2" data-name="Слой 2"><path class="ccls-1" d="M321.85 86.24l-40-23.11-23.1-40H212.5L172.48 0l-40 23.11H86.24l-23.11 40-40 23.1v46.21L0 172.48l23.11 40v46.21l40 23.11 23.11 40h46.21l40 23.1 40-23.11h46.21l23.11-40 40-23.11V212.5l23.11-40-23.11-40V86.24zM156.91 243.07a16.79 16.79 0 0 1-23.34 0l-50.45-50.44a16.19 16.19 0 0 1 0-22.89l13.35-13.35a16.19 16.19 0 0 1 22.89 0l25.87 25.87 80.34-80.35a16.19 16.19 0 0 1 22.89 0l13.35 13.35a16.19 16.19 0 0 1 0 22.89z" id="cCapa_1" data-name="Capa 1"/></g></symbol><symbol viewBox="0 0 15 13" id="envelope" xmlns="http://www.w3.org/2000/svg"><path d="M1.44 3.711c.19.137.761.544 1.716 1.22.954.675 1.685 1.195 2.193 1.56.056.04.174.126.355.26.182.135.332.243.452.326.12.082.265.175.436.277.17.103.33.18.481.231.15.051.29.077.419.077h.016c.129 0 .268-.026.419-.077.15-.051.311-.128.481-.23a8.81 8.81 0 0 0 .436-.278c.12-.083.27-.191.452-.326.18-.134.3-.22.355-.26l3.918-2.78a4 4 0 0 0 1.02-1.052c.274-.41.411-.84.411-1.29 0-.377-.133-.7-.398-.967A1.28 1.28 0 0 0 13.661 0H1.339C.91 0 .58.148.347.445.116.74 0 1.112 0 1.556c0 .36.154.749.46 1.168.307.419.634.748.98.987z"/><path d="M14.163 4.626c-1.83 1.266-3.22 2.25-4.169 2.95-.318.24-.576.427-.774.56a4.74 4.74 0 0 1-.79.411c-.33.14-.637.21-.921.21h-.017c-.285 0-.592-.07-.921-.21a4.743 4.743 0 0 1-.791-.41c-.198-.134-.456-.32-.774-.56-.754-.565-2.14-1.548-4.16-2.95A4.462 4.462 0 0 1 0 3.881v6.79c0 .377.131.699.393.967.263.268.578.402.946.402h12.322c.368 0 .683-.134.946-.402.262-.268.393-.59.393-.967v-6.79c-.24.274-.519.522-.837.744z"/></symbol><symbol viewBox="0 0 49 48" id="head-i-1" xmlns="http://www.w3.org/2000/svg"><path d="M28.838 12.049h1.255V8.334h-4.966v5.27a.628.628 0 0 1-1.254 0v-5.27h-4.966v3.715h1.254v1.555a4.346 4.346 0 0 0 4.339 4.343 4.346 4.346 0 0 0 4.338-4.343V12.05zm-.18-1.437h-1.255v2.992A2.908 2.908 0 0 1 24.5 16.51a2.908 2.908 0 0 1-2.903-2.906v-2.992h-1.254V9.77h2.094v3.833c0 1.139.926 2.065 2.063 2.065a2.066 2.066 0 0 0 2.063-2.065V9.771h2.095v.84zM7.513 25.075H6.077v1.437h1.436v-1.437zm0 4.79H6.077V36.7h1.436v-6.834zm0-2.395H6.077v1.437h1.436V27.47zm11.74-2.395h-1.436v1.437h1.436v-1.437zm0 2.395h-1.436v1.437h1.436V27.47zm0 2.395h-1.436V36.7h1.436v-6.834zm12.217 0h-1.435V36.7h1.435v-6.834zm0-2.395h-1.435v1.437h1.435V27.47zm0-2.395h-1.435v1.437h1.435v-1.437zm11.836 0H41.87v1.437h1.436v-1.437zm0 2.395H41.87v1.437h1.436V27.47zm0 2.395H41.87V36.7h1.436v-6.834z"/><path d="M48.09 43.828v-2.734h-.903l-.471-3.205h-1.194V23.71h1.194l.471-3.205h1.794L24.5 0 .018 20.505h1.795l.471 3.205h1.194v14.179H2.284l-.471 3.205H.909v2.734H0V48h49v-4.172h-.91zm-2.354-2.734h-6.712l.26-1.768h6.192l.26 1.768zM15.264 22.273l-.26-1.768h6.711l-.26 1.768h-6.191zm4.802 1.437v14.179h-3.413V23.71h3.413zm-4.848 0v14.179h-1.194l-.471 3.205h-2.126l-.471-3.205H9.762V23.71h1.194l.471-3.205h2.126l.47 3.205h1.195zm.046 15.616h6.192l.26 1.768h-6.713l.26-1.768zm6.237-1.437V23.71h1.194l.472-3.205h2.666l.472 3.205h1.194v14.179h-1.194l-.472 3.205h-2.666l-.472-3.205h-1.194zm6.043-15.616l-.26-1.768h6.712l-.26 1.768h-6.192zm4.803 1.437v14.179h-3.413V23.71h3.413zm-4.803 15.616h6.192l.26 1.768h-6.712l.26-1.768zm6.238-1.437V23.71h1.194l.472-3.205h2.125l.471 3.205h1.194v14.179h-1.194l-.471 3.205h-2.126l-.47-3.205h-1.195zm6.892 0V23.71h3.412v14.179h-3.412zm4.802-15.616h-6.192l-.26-1.768h6.712l-.26 1.768zM24.5 1.873l20.528 17.194H3.971L24.5 1.874zM3.264 20.505h6.712l-.26 1.769H3.524l-.26-1.768zm5.062 3.206V37.89H4.914V23.71h3.412zM3.524 39.326h6.192l.26 1.768H3.264l.26-1.768zm-1.18 3.205h44.311v1.298H2.345V42.53zm45.22 4.032H1.437v-1.297h46.129v1.297z"/><path d="M24.5 5.42l2.706 2.267.92-1.102L24.5 3.547l-3.627 3.038.92 1.102L24.5 5.421zm7.25 4.2l-.921 1.102 6.91 5.788h-9.058v1.437h13.012L31.75 9.62zm-13.579 1.101l-.92-1.102-9.944 8.328h13.012V16.51h-9.06l6.912-5.789z"/></symbol><symbol viewBox="0 0 48 48" id="head-i-2" xmlns="http://www.w3.org/2000/svg"><path d="M45.844 31.765v-1.412h-1.407v1.412h-2.109v-1.412h-1.406v1.412h-2.11v-1.412h-1.406v1.412h-2.11v-1.412h-1.405v1.412h-2.11v-1.412h-1.406v1.412h-2.812v.706h-4.22v1.411h4.22v4.941h-1.407V36h-2.812v1.412h1.406v2.823h2.813V48h20.39V31.765h-2.11zm.703 14.823H28.969V33.176h17.578v13.412zM20.532 6.353a3.525 3.525 0 0 0-3.445 2.823H15.61V0H.141v14.823h2.813v3.468a2.883 2.883 0 0 0 2.873 2.886h.642v4.235h12.657v-7.06h-4.922v-3.529h1.406v-4.235h1.477a3.525 3.525 0 0 0 3.445 2.824 3.527 3.527 0 0 0 3.515-3.53 3.526 3.526 0 0 0-3.515-3.53zM6.469 19.765h-.642a1.472 1.472 0 0 1-1.467-1.474v-3.468h4.219v2.471h1.406v1.059H6.469v1.412zm11.25 0V24H7.876v-4.235h9.843zm-7.734-3.883v-1.059h2.812v3.53h-1.406v-2.47H9.985zm4.219-2.47H1.547v-12h12.657v12zm7.031-1.533V9.882h-1.406v1.997a2.12 2.12 0 0 1-1.407-1.997c0-1.167.947-2.117 2.11-2.117 1.163 0 2.11.95 2.11 2.117a2.12 2.12 0 0 1-1.407 1.997zm-9.201 22.003a4.221 4.221 0 0 0-.723-1.746l.541-.543-.994-.998-.54.543a4.186 4.186 0 0 0-1.74-.725v-.766H7.172v.766a4.187 4.187 0 0 0-1.74.725l-.54-.543-.995.998.541.543a4.22 4.22 0 0 0-.722 1.746h-.763v1.412h.763a4.22 4.22 0 0 0 .722 1.746l-.54.543.994.998.54-.543a4.2 4.2 0 0 0 1.74.726v.765h1.406v-.765a4.187 4.187 0 0 0 1.74-.726l.54.543.994-.998-.54-.543a4.22 4.22 0 0 0 .722-1.746h.763v-1.412h-.763zm-4.159 3.53a2.821 2.821 0 0 1-2.813-2.824 2.821 2.821 0 0 1 2.813-2.823 2.821 2.821 0 0 1 2.812 2.823 2.821 2.821 0 0 1-2.812 2.824zM38.11 11.294V9.882h-1.407v1.412h-1.406v1.412h1.406v1.412h1.406v-1.412h1.407v-1.412h-1.407z"/><path d="M48 2.824H27.738a2.821 2.821 0 0 0-2.812 2.823 2.821 2.821 0 0 0 2.812 2.824h6.228A4.935 4.935 0 0 0 32.484 12c0 1.382.569 2.632 1.482 3.53h-9.92a2.821 2.821 0 0 0-2.812 2.823 2.821 2.821 0 0 0 2.813 2.823h16.546A4.227 4.227 0 0 0 39.516 24a4.23 4.23 0 0 0 1.077 2.824H7.875c-4.265 0-7.734 3.483-7.734 7.764 0 4.282 3.47 7.765 7.734 7.765H19.83a3.52 3.52 0 0 0-.705 2.118c0 .794.263 1.527.705 2.117H0V48h22.64a3.527 3.527 0 0 0 3.516-3.53 3.527 3.527 0 0 0-3.515-3.529H12.314a7.768 7.768 0 0 0 0-12.706h31.42c2.327 0 4.22-1.9 4.22-4.235 0-2.335-1.893-4.235-4.22-4.235H26.481a2.814 2.814 0 0 0 0-2.824h10.925c2.714 0 4.922-2.216 4.922-4.941 0-2.725-2.208-4.941-4.922-4.941h-7.234a2.814 2.814 0 0 0 0-2.824H48V2.824zM22.64 42.353c1.164 0 2.11.95 2.11 2.118a2.116 2.116 0 0 1-2.11 2.117 2.116 2.116 0 0 1-2.109-2.117c0-1.168.947-2.118 2.11-2.118zm-8.437-7.765c0 3.503-2.839 6.353-6.328 6.353-3.49 0-6.328-2.85-6.328-6.353 0-3.503 2.839-6.353 6.328-6.353 3.49 0 6.328 2.85 6.328 6.353zm29.531-13.412A2.821 2.821 0 0 1 46.547 24a2.821 2.821 0 0 1-2.813 2.824A2.821 2.821 0 0 1 40.922 24a2.821 2.821 0 0 1 2.812-2.824zm-21.093-2.823c0-.778.63-1.412 1.406-1.412.125 0 .247.018.363.05l-1.72 1.726a1.408 1.408 0 0 1-.05-.364zm1.406 1.412a1.4 1.4 0 0 1-.363-.05l1.72-1.726a1.41 1.41 0 0 1-1.357 1.776zM37.407 8.47A3.527 3.527 0 0 1 40.921 12a3.527 3.527 0 0 1-3.516 3.53A3.527 3.527 0 0 1 33.891 12a3.527 3.527 0 0 1 3.515-3.53zm-9.669-1.412a1.41 1.41 0 0 1-1.357-1.776l1.72 1.726a1.36 1.36 0 0 1-.363.05zm1.357-1.048l-1.72-1.726c.116-.031.238-.05.363-.05a1.41 1.41 0 0 1 1.357 1.776z"/><path d="M9.367 34.09l-.995-1-.497.5-.497-.5-.995 1 .498.498-.498.5.995.998.497-.5.497.5.995-.999-.498-.499.498-.499zm13.977 9.675h-1.407v1.411h1.407v-1.411zm21.093-20.471h-1.406v1.412h1.406v-1.412zM2.953 2.824v4.94h9.844v-4.94H2.953zm8.438 3.529H4.359V4.235h7.032v2.118zM4.36 9.176H2.952V12H4.36V9.176zm2.812 0H5.766V12h1.406V9.176zm2.812 0H8.578V12h1.406V9.176zm2.813 0H11.39V12h1.406V9.176zm.703 12.001h-1.406v1.411H13.5v-1.411zm-2.812 0H9.28v1.411h1.406v-1.411zm5.624 0h-1.406v1.411h1.406v-1.411zM31.781 36h-1.406v2.824h1.406V36zm4.922 7.765h-1.406v1.411h1.406v-1.411zm2.813 0h-1.407v1.411h1.407v-1.411zm2.812 0h-1.406v1.411h1.406v-1.411zm2.812 0h-1.406v1.411h1.407v-1.411zM21.937 32.47h-1.406v1.412h1.406v-1.411zm0 3.53h-1.406v1.412h1.406V36z"/></symbol><symbol viewBox="0 0 49 44" id="head-i-3" xmlns="http://www.w3.org/2000/svg"><path d="M46.667.416h-7.995a.716.716 0 0 0-.717.715c0 .394.321.714.718.714h7.994c.495 0 .897.401.897.894V29.43h-35.84V1.845h23.678c.396 0 .717-.32.717-.714a.716.716 0 0 0-.717-.715H2.332A2.33 2.33 0 0 0 0 2.739v30.763a3.115 3.115 0 0 0 3.118 3.105h9.793c.397 0 .718-.32.718-.715a.716.716 0 0 0-.718-.715H3.118a1.68 1.68 0 0 1-1.682-1.675V30.86h46.128v2.642a1.68 1.68 0 0 1-1.682 1.675h-29.7a.716.716 0 0 0-.717.715c0 .395.32.715.717.715h4.248a8.545 8.545 0 0 1-.097.271c-.533 1.402-1.329 2.366-2.365 2.865a1.744 1.744 0 0 0-1.007 1.578v.088a1.75 1.75 0 0 0 1.75 1.743h5.494c.396 0 .717-.32.717-.715a.716.716 0 0 0-.718-.715h-5.492a.315.315 0 0 1-.316-.313v-.088c0-.121.075-.232.195-.29 1.38-.664 2.418-1.89 3.084-3.647.095-.25.182-.51.26-.777h5.132c.078.267.164.528.259.777.667 1.757 1.704 2.984 3.084 3.647.12.057.194.168.194.29v.088a.315.315 0 0 1-.315.313h-2.814a.716.716 0 0 0-.717.715c0 .395.321.715.718.715h2.813c.965 0 1.75-.782 1.75-1.743v-.088c0-.675-.385-1.28-1.005-1.578-1.037-.498-1.833-1.462-2.366-2.865a8.359 8.359 0 0 1-.097-.271h17.311A3.115 3.115 0 0 0 49 33.502V2.739A2.33 2.33 0 0 0 46.667.416zM10.288 29.43H1.436V2.74c0-.494.402-.895.897-.895h7.955V29.43z"/><path d="M44.302 5.399h-3.173a1.31 1.31 0 0 0-1.311 1.306v19.426c0 .395.321.715.717.715h4.36c.397 0 .718-.32.718-.715V6.705A1.31 1.31 0 0 0 44.302 5.4zm-.124 20.017h-2.925V9.361h2.925v16.055zm0-17.484h-2.925V6.828h2.925v1.104z"/><path d="M42.947 10.338h-.463a.716.716 0 0 0-.718.715c0 .395.322.715.718.715h.463c.396 0 .717-.32.717-.715a.716.716 0 0 0-.717-.715zm0 2.467h-.463a.716.716 0 0 0-.718.715c0 .394.322.714.718.714h.463c.396 0 .717-.32.717-.714a.716.716 0 0 0-.717-.715zm0 2.466h-.463a.716.716 0 0 0-.718.715c0 .395.322.715.718.715h.463c.396 0 .717-.32.717-.715a.716.716 0 0 0-.717-.715zm0 2.467h-.463a.716.716 0 0 0-.718.715c0 .395.322.714.718.714h.463c.396 0 .717-.32.717-.714a.716.716 0 0 0-.717-.715zm0 2.466h-.463a.716.716 0 0 0-.718.715c0 .395.322.715.718.715h.463c.396 0 .717-.32.717-.715a.716.716 0 0 0-.717-.715zm0 2.466h-.463a.716.716 0 0 0-.718.716c0 .395.322.715.718.715h.463c.396 0 .717-.32.717-.715a.716.716 0 0 0-.717-.715zM4.925 6.389H3.922a.716.716 0 0 0-.718.715c0 .395.321.715.718.715h1.003c.397 0 .718-.32.718-.715a.716.716 0 0 0-.718-.715zm2.877 2.526h-3.88a.716.716 0 0 0-.718.715c0 .395.321.715.718.715h3.88c.397 0 .718-.32.718-.715a.716.716 0 0 0-.718-.715zm0 1.743h-3.88a.716.716 0 0 0-.718.715c0 .395.321.715.718.715h3.88c.397 0 .718-.32.718-.715a.716.716 0 0 0-.718-.715zm0 1.743h-3.88a.716.716 0 0 0-.718.715c0 .395.321.715.718.715h3.88c.397 0 .718-.32.718-.715a.716.716 0 0 0-.718-.715zm-2.877 4.613H3.922a.716.716 0 0 0-.718.715c0 .395.321.715.718.715h1.003c.397 0 .718-.32.718-.715a.716.716 0 0 0-.718-.715zm2.877 2.526h-3.88a.716.716 0 0 0-.718.715c0 .395.321.715.718.715h3.88c.397 0 .718-.32.718-.715a.716.716 0 0 0-.718-.715zm0 1.743h-3.88a.716.716 0 0 0-.718.715c0 .395.321.715.718.715h3.88c.397 0 .718-.32.718-.715a.716.716 0 0 0-.718-.715zm0 1.744h-3.88a.716.716 0 0 0-.718.714c0 .395.321.715.718.715h3.88c.397 0 .718-.32.718-.715a.716.716 0 0 0-.718-.714zm29.314-7.859L33.528 13l-.005-.004-3.774-2.28h-.001l-3.57-2.157a.72.72 0 0 0-.745 0l-3.57 2.156-.003.002-3.772 2.279-.007.004-3.587 2.167a.714.714 0 0 0 0 1.222l10.939 6.608a.719.719 0 0 0 .744 0l10.939-6.608a.714.714 0 0 0 0-1.222zm-5.337-1.552l-2.197 1.327-2.393-1.446 2.197-1.327 2.393 1.446zm-3.581 2.163l-2.393 1.445-2.393-1.445 2.393-1.446 2.393 1.446zm-2.393-5.772l2.197 1.327-2.197 1.327-2.197-1.327 2.197-1.327zm-3.581 2.163l2.197 1.327-2.392 1.446-2.197-1.328 2.392-1.445zm-5.974 3.61l2.198-1.327 2.197 1.327-2.197 1.327-2.198-1.327zm3.581 2.163l2.198-1.327 2.392 1.445-2.197 1.328-2.393-1.446zm5.974 3.609l-2.197-1.327 2.197-1.328 2.197 1.328-2.197 1.327zm3.581-2.163L27.19 18.06l2.393-1.445 2.197 1.327-2.393 1.446zm3.777-2.282l-2.198-1.327 2.197-1.327 2.198 1.327-2.197 1.327zm-1.556 4.382h-.647a.716.716 0 0 0-.718.714c0 .395.321.715.718.715h.647c.397 0 .718-.32.718-.715a.716.716 0 0 0-.718-.714zm3.42 1.834H30.96a.716.716 0 0 0-.718.715c0 .395.321.715.718.715h4.067c.397 0 .718-.32.718-.715a.716.716 0 0 0-.718-.715z"/></symbol><symbol viewBox="0 0 14 20" id="mark" xmlns="http://www.w3.org/2000/svg"><path d="M13.67 4.978c-.073-.267-.22-.551-.329-.8C12.041 1.102 9.2 0 6.905 0 3.835 0 .452 2.027 0 6.204v.854c0 .035.012.355.03.515.253 1.991 1.85 4.107 3.042 6.098C4.354 15.804 5.685 17.903 7.004 20c.813-1.369 1.623-2.756 2.418-4.089.216-.391.468-.782.684-1.156.145-.248.42-.497.547-.728C11.936 11.716 14 9.387 14 7.093v-.942c0-.248-.313-1.12-.33-1.173zM6.961 9.262c-.903 0-1.891-.444-2.379-1.67-.073-.196-.067-.587-.067-.623v-.551c0-1.564 1.35-2.276 2.524-2.276a2.538 2.538 0 0 1 2.563 2.56c0 1.423-1.196 2.56-2.641 2.56z"/></symbol><symbol viewBox="0 0 20 20" id="soc-1" xmlns="http://www.w3.org/2000/svg"><path d="M10 0C4.486 0 0 4.486 0 10s4.486 10 10 10 10-4.486 10-10S15.514 0 10 0zm2.487 10.352H10.86v5.799H8.45v-5.799H7.302v-2.05H8.45V6.978c0-.95.451-2.433 2.433-2.433l1.787.007v1.99h-1.297c-.211 0-.511.105-.511.558v1.204h1.837l-.211 2.05z"/></symbol><symbol viewBox="0 0 20 20" id="soc-2" xmlns="http://www.w3.org/2000/svg"><path d="M10 0C4.477 0 0 4.477 0 10s4.477 10 10 10 10-4.477 10-10S15.523 0 10 0zm1.112 4.677h.68v2.769c0 .16 0 .243.008.265.015.105.068.16.16.16.136 0 .279-.106.43-.32V4.678h.681v3.76h-.68v-.41c-.272.312-.53.462-.78.462-.219 0-.37-.089-.438-.279-.038-.114-.06-.294-.06-.56V4.678zM8.54 5.903c0-.402.068-.695.213-.886.188-.257.454-.385.793-.385.342 0 .607.128.795.385.143.19.211.484.211.886V7.22c0 .4-.068.697-.21.885-.19.256-.454.384-.796.384-.34 0-.605-.128-.793-.384-.145-.188-.213-.485-.213-.885V5.903zM6.717 3.392l.536 1.981.515-1.981h.765l-.91 3.002v2.044h-.755V6.394c-.068-.362-.22-.893-.462-1.596-.16-.469-.325-.939-.484-1.406h.795zm8.666 11.966a1.41 1.41 0 0 1-1.206 1.096c-1.383.154-2.783.155-4.178.154-1.394.001-2.794 0-4.177-.154a1.409 1.409 0 0 1-1.206-1.096c-.195-.845-.195-1.768-.195-2.638 0-.87.003-1.792.197-2.637a1.409 1.409 0 0 1 1.206-1.096c1.383-.155 2.783-.155 4.178-.155 1.394 0 2.794 0 4.178.155a1.41 1.41 0 0 1 1.206 1.096c.194.845.193 1.767.193 2.637 0 .87-.001 1.793-.196 2.638z"/></symbol><symbol viewBox="0 0 20 20" id="soc-3" xmlns="http://www.w3.org/2000/svg"><path d="M10 0C4.477 0 0 4.477 0 10s4.477 10 10 10 10-4.477 10-10S15.523 0 10 0zm5.072 11.082c.467.455.96.883 1.378 1.385.186.223.36.452.493.71.19.37.019.774-.311.795h-2.049c-.529.044-.95-.17-1.305-.531-.283-.289-.546-.597-.82-.895a1.911 1.911 0 0 0-.368-.328c-.28-.182-.522-.126-.682.166-.163.297-.2.626-.216.956-.022.483-.168.61-.653.632-1.035.049-2.018-.108-2.931-.63-.806-.461-1.43-1.111-1.973-1.847-1.058-1.435-1.869-3.01-2.597-4.63-.164-.364-.044-.56.358-.567a57.006 57.006 0 0 1 2.006 0c.272.004.453.16.557.416.361.89.804 1.735 1.36 2.52.147.208.298.417.513.564.238.163.419.11.53-.156.072-.168.103-.348.119-.529a7.896 7.896 0 0 0-.033-1.851c-.057-.385-.274-.634-.658-.707-.196-.037-.167-.11-.072-.221.165-.193.32-.313.63-.313h2.314c.365.071.446.235.496.602l.002 2.573c-.004.142.072.563.327.656.204.068.34-.096.462-.226.555-.589.95-1.284 1.305-2.003.156-.318.29-.646.422-.975.097-.244.248-.363.523-.36l2.229.004c.066 0 .132 0 .197.011.376.065.479.226.363.593-.183.576-.538 1.055-.886 1.536-.372.515-.77 1.011-1.138 1.529-.339.472-.312.71.108 1.12z"/></symbol><symbol viewBox="0 0 20 20" id="soc-4" xmlns="http://www.w3.org/2000/svg"><path d="M10 12.002A2.005 2.005 0 0 0 12.002 10c0-.436-.142-.838-.378-1.167A2 2 0 0 0 10 7.998a2 2 0 0 0-1.624.835A1.993 1.993 0 0 0 7.998 10 2.003 2.003 0 0 0 10 12.002zm4.371-4.451V5.623l-.25.001-1.678.005.006 1.928 1.922-.006z"/><path d="M10 0C4.486 0 0 4.486 0 10s4.486 10 10 10 10-4.486 10-10S15.514 0 10 0zm5.687 8.833v4.656a2.2 2.2 0 0 1-2.198 2.199H6.511a2.2 2.2 0 0 1-2.198-2.199V6.511A2.2 2.2 0 0 1 6.51 4.313h6.978a2.2 2.2 0 0 1 2.198 2.198v2.322z"/><path d="M13.11 10A3.115 3.115 0 0 1 10 13.11 3.114 3.114 0 0 1 6.89 10a3.1 3.1 0 0 1 .228-1.167H5.421v4.656c0 .602.488 1.09 1.09 1.09h6.977c.6 0 1.09-.488 1.09-1.09V8.833H12.88c.147.36.23.754.23 1.167z"/></symbol><symbol viewBox="0 0 13 13" id="tel" xmlns="http://www.w3.org/2000/svg"><path d="M12.709 10.282L10.7 8.27c-.4-.4-1.062-.387-1.476.028L8.214 9.31a29.75 29.75 0 0 1-.2-.111C7.375 8.845 6.5 8.36 5.58 7.436c-.923-.924-1.408-1.802-1.763-2.442-.038-.068-.073-.134-.109-.196l.679-.68.334-.334c.414-.415.426-1.079.027-1.48L2.74.293c-.399-.4-1.061-.388-1.476.028L.7.89l.016.016a3.26 3.26 0 0 0-.467.824 3.424 3.424 0 0 0-.207.836c-.265 2.203.74 4.216 3.465 6.947 3.767 3.776 6.803 3.491 6.934 3.477a3.384 3.384 0 0 0 1.656-.676l.013.011.573-.563c.413-.415.425-1.079.027-1.48z"/></symbol></svg>