<svg xmlns="http://www.w3.org/2000/svg" viewBox="0 0 454.09 388.31"><title>logo</title><g id="Слой_2" data-name="Слой 2"><g id="svg8"><g id="layer1"><path id="path33" d="M238.61,353V317.78l6.94-.51c36.56-2.69,79.1-18.43,99.33-36.77,21.58-19.56,36.11-50.87,37.54-80.86l.42-8.81H313.49l.24-6c.13-3.3,0-6-.4-6s-.51-1.33-.36-3,.13-2.8-.06-2.61c-.41.41-3.21-12-3.34-14.81-.05-1.09-.4-1.8-.77-1.57s-.49-.31-.26-1.2.14-1.44-.38-1.13-.65-.09-.38-1.12.18-1.47-.12-1.28c-.8.5-2.5-4.68-1.87-5.7.32-.51.21-.67-.25-.38-.93.58-2.65-3.81-1.94-5,.3-.49.11-.55-.51-.17s-.86.27-.5-.67c.27-.71.21-1.11-.14-.9-.85.53-2.5-3.21-1.87-4.23.28-.45.17-.61-.23-.36-1,.61-3.47-3.74-2.8-4.91.3-.51.26-.68-.08-.38-.85.77-4.32-4.5-3.67-5.56.32-.51.19-.65-.3-.34-1,.6-2.61-2-1.81-2.93.29-.33.13-.36-.36-.08-1,.58-2.73-2-1.89-2.86.29-.29.19-.42-.24-.29s-3.22-2.53-6.22-5.93C251.51,75.83,200.07,62,154.61,76.91,123.4,87.18,96,111.3,82.34,140.61c-20.82,44.54-13.22,96.14,19.6,133.11a120.91,120.91,0,0,0,10.92,10.79c2.72,2.23,4.73,4.42,4.47,4.88s-.2.58.13.28c.77-.69,3.56.79,3.05,1.61-.21.35.2.58.92.52s1.21.34,1.1.89.08.82.42.61c.78-.48,4.84,2.1,4.24,2.7-.24.24.18.38.93.32s1.28.3,1.18.8.3.73,1.06.44,1.07-.2.63.52-.32.81.21.49c1-.62,5.63,2.06,4.87,2.82-.3.3.1.29.88,0,1.06-.41,1.26-.29.8.45s-.32.81.15.52c.95-.59,7.06,1.74,6.58,2.51-.19.31.07.54.58.53q3.85-.14,3.11,1.07c-.3.48-.21.66.2.41,1-.64,11.63,2.83,10.94,3.59-.31.34-.15.38.36.09,1.12-.64,6.32.23,5.86,1-.18.29.71.38,2,.19,1.75-.26,2.17-.11,1.72.63s-.3.78.19.48c1-.59,10,.28,9.62.92-.16.25,2.55.35,6,.22l6.31-.24v71.36h-5.62c-3.09,0-5.62-.29-5.62-.65s-.86-.48-1.92-.28c-3,.58-18.38-1.4-17.83-2.29.28-.45.1-.54-.42-.21-1.07.66-11.43-1.07-11-1.83.18-.29-.56-.36-1.64-.15s-1.78.08-1.5-.38-.3-.6-1.5-.38c-1.48.28-1.81.13-1.36-.6s.31-.79-.19-.49c-1.2.74-5.49-.32-4.94-1.21.28-.45.11-.55-.39-.24-1,.63-11.44-2.57-11-3.37.19-.3-.39-.35-1.28-.12s-1.44.13-1.13-.36.07-.77-.45-.75q-3.85.14-3.11-1.07c.31-.5.21-.66-.24-.38-1.15.71-5.54-1-5-1.94.3-.48.13-.57-.43-.23-1.13.7-16.75-6.93-16.16-7.89.23-.37-.16-.45-.87-.18-.94.36-1.12.23-.67-.5s.32-.81-.25-.46c-1.07.66-4.07-1.33-3.3-2.18.31-.34.14-.38-.37-.08-1,.56-6.49-2.75-5.77-3.47.23-.23-.19-.37-.94-.31s-1.27-.32-1.16-.88-.13-.78-.55-.53c-1,.62-5.35-2.64-4.76-3.59.27-.43.08-.51-.44-.19-1.12.69-3.24-1-2.58-2,.29-.46.12-.56-.42-.23-1.12.69-3.24-1-2.58-2,.27-.43.15-.57-.26-.32-1.05.65-4.12-1.66-3.51-2.65.29-.47.16-.6-.32-.31-2,1.24-21.33-18.36-31.71-32.15A195.57,195.57,0,0,1,2,222.15c-2.62-16.43-2.65-41.84-.07-59A196.38,196.38,0,0,1,40.44,73.91,241.44,241.44,0,0,1,69.11,44.4C84.18,31.74,106.49,18.78,124.88,12a195.25,195.25,0,0,1,136.78.79c27,10.43,53.62,28.54,72.6,49.44,3.15,3.47,5.81,6.91,5.92,7.65s.5,1.35.88,1.36a2.37,2.37,0,0,1,2.39,2.47c-.11.68.23,1.25.76,1.26,1.21,0,2.46,2,1.87,2.91-.24.39-.11.51.31.25.95-.58,4.21,3.75,3.59,4.76-.26.41,0,.66.53.55s.95.37.89,1.08.28,1.21.75,1.13.8.42.75,1.12.28,1.21.75,1.13.8.46.74,1.2.08,1.17.31.94c.72-.72,2.55,2.52,2,3.51-.3.51-.26.69.08.38.87-.79,2.82,2.24,2.17,3.37-.3.51-.26.68.08.37.85-.77,4.34,5.23,3.67,6.31q-.53.86.46.25c.73-.45.86-.27.5.67-.27.71-.2,1.1.17.88.85-.53,1.73,1.72,1.08,2.77-.27.44-.14.58.29.31,1-.59,3.44,5.26,2.72,6.42-.32.53-.15.6.49.2s.86-.27.5.67c-.27.71-.19,1.1.19.86.89-.55,1.81,2.32,1.1,3.46-.32.52-.21.67.27.37,1-.61,2,2.15,1.23,3.38-.32.51-.21.67.25.39,1-.62,5.8,14.07,5,15.33-.38.61-.24.71.42.3s.88-.12.6,1.36c-.21,1.08-.12,1.81.18,1.62.76-.47,1.68,4.7,1,5.77-.34.56-.19.64.45.25s.88-.12.6,1.36c-.23,1.19-.08,1.78.37,1.5s.61.44.4,1.86,0,2.13.37,1.88.58.67.4,2.24,0,2.49.38,2.25.55.74.38,2.25,0,2.49.36,2.26.56,1.08.41,3,0,3.22.36,3,.52,1.67.38,4.2,0,4.59.3,4.59.56,2.36.56,5.25v5.25h69.23l-.52,10.3a194.5,194.5,0,0,1-15.17,67.57c-12,28.59-33.59,57-55.91,73.46-34.75,25.65-88.94,44.6-132.82,46.44l-11.06.46Zm-57.37-91.45c-26.29-5.61-48.58-28.09-53.95-54.41-1.35-6.64-1.56-20.69-.39-27.27A70.61,70.61,0,0,1,200,122.07a65.43,65.43,0,0,1,26.89,6.78A62.07,62.07,0,0,1,246,142.27c19.84,19.5,26.23,48.37,16.58,75-8.13,22.48-27.82,39.32-52,44.46-6.6,1.4-22.47,1.32-29.39-.15Z"/></g></g></g></svg>