<svg xmlns="http://www.w3.org/2000/svg" viewBox="0 0 512 422.96"><defs><style>.cls-1{fill:#00a8f0;}</style></defs><title>mnu-2-11</title><g id="Слой_2" data-name="Слой 2"><g id="Layer_1" data-name="Layer 1"><path class="cls-1" d="M256,89a55.65,55.65,0,1,0,55.65,55.65A55.73,55.73,0,0,0,256,89Zm0,89a33.39,33.39,0,1,1,33.39-33.39A33.43,33.43,0,0,1,256,178.09Z"/><path class="cls-1" d="M256,178.09A100.3,100.3,0,0,0,155.83,278.26,11.14,11.14,0,0,0,167,289.39H345a11.14,11.14,0,0,0,11.13-11.13A100.3,100.3,0,0,0,256,178.09Zm-77.11,89a77.92,77.92,0,0,1,154.25,0Z"/><path class="cls-1" d="M122.43,0a55.65,55.65,0,1,0,55.65,55.65A55.73,55.73,0,0,0,122.43,0Zm0,89a33.39,33.39,0,1,1,33.39-33.39A33.43,33.43,0,0,1,122.43,89Z"/><path class="cls-1" d="M55.65,155.83a55.65,55.65,0,1,0,55.65,55.65A55.73,55.73,0,0,0,55.65,155.83Zm0,89A33.39,33.39,0,1,1,89,211.48,33.43,33.43,0,0,1,55.65,244.87Z"/><path class="cls-1" d="M122.43,311.65a55.65,55.65,0,1,0,55.65,55.65A55.73,55.73,0,0,0,122.43,311.65Zm0,89a33.39,33.39,0,1,1,33.39-33.39A33.43,33.43,0,0,1,122.43,400.7Z"/><path class="cls-1" d="M389.56,311.65a55.65,55.65,0,1,0,55.65,55.65A55.73,55.73,0,0,0,389.56,311.65Zm0,89A33.39,33.39,0,1,1,423,367.3,33.43,33.43,0,0,1,389.56,400.7Z"/><path class="cls-1" d="M456.35,155.83A55.65,55.65,0,1,0,512,211.48,55.73,55.73,0,0,0,456.35,155.83Zm0,89a33.39,33.39,0,1,1,33.39-33.39A33.43,33.43,0,0,1,456.35,244.87Z"/><path class="cls-1" d="M389.56,0a55.65,55.65,0,1,0,55.65,55.65A55.73,55.73,0,0,0,389.56,0Zm0,89A33.39,33.39,0,1,1,423,55.65,33.43,33.43,0,0,1,389.56,89Z"/><path class="cls-1" d="M185.94,103.45,163.68,81.19a11.13,11.13,0,0,0-15.74,15.74l22.26,22.26a11.13,11.13,0,1,0,15.74-15.74Z"/><path class="cls-1" d="M144.7,200.35H100.17a11.13,11.13,0,1,0,0,22.26H144.7a11.13,11.13,0,1,0,0-22.26Z"/><path class="cls-1" d="M185.94,303.79a11.14,11.14,0,0,0-15.74,0l-22.26,22.26a11.13,11.13,0,0,0,15.74,15.74l22.26-22.26A11.14,11.14,0,0,0,185.94,303.79Z"/><path class="cls-1" d="M364,326.05l-22.26-22.26A11.13,11.13,0,0,0,326,319.53l22.26,22.26A11.13,11.13,0,0,0,364,326.05Z"/><path class="cls-1" d="M411.83,200.35H367.3a11.13,11.13,0,1,0,0,22.26h44.52a11.13,11.13,0,1,0,0-22.26Z"/><path class="cls-1" d="M364,81.18a11.14,11.14,0,0,0-15.74,0L326,103.45a11.13,11.13,0,0,0,15.74,15.74L364,96.92A11.14,11.14,0,0,0,364,81.18Z"/></g></g></svg>