<svg xmlns="http://www.w3.org/2000/svg" viewBox="0 0 512 451.84"><defs><style>.cls-1{fill:#00a8f0;}</style></defs><title>mnu-3-2</title><g id="Слой_2" data-name="Слой 2"><g id="Capa_1" data-name="Capa 1"><path class="cls-1" d="M502,317.25C446.8,279.36,373.65,262,347.69,256.75L334.82,149.89a44.15,44.15,0,0,0-88.23-1.47c0,.42-.1.84-.1,1.26V213l-1,154.06-16.22-12.45c-19.89-17.37-66.77-38.73-104.35,2.51a12.64,12.64,0,0,0-.94,16c1,1.47,26.37,36.95,66.67,75.15a12.81,12.81,0,1,0,17.58-18.63,577.15,577.15,0,0,1-56.62-62.38c27.74-20.72,57.56,3.66,61,6.8.21.21.42.31.63.52l37.05,28.57a12.71,12.71,0,0,0,13.4,1.36,12.91,12.91,0,0,0,7.22-11.41l1.26-180V150a18.36,18.36,0,0,1,18.53-17.9,18.56,18.56,0,0,1,18.53,18.53,7.92,7.92,0,0,0,.1,1.57l14,116.91a12.77,12.77,0,0,0,10.57,11.09c.84.1,87.29,15,149,55.16,2.3,14.86,7.54,59.45-2.83,100.48a12.79,12.79,0,0,0,9.31,15.59,10.8,10.8,0,0,0,3.14.42A12.83,12.83,0,0,0,505,442.11c14-55.68,2.72-114.4,2.3-116.8A13.38,13.38,0,0,0,502,317.25Z"/><path class="cls-1" d="M109.06,10.48a109.06,109.06,0,1,0,107.8,125.8,112.74,112.74,0,0,0,1.26-16.75,12.87,12.87,0,0,0-25.75,0,88.79,88.79,0,0,1-.94,12.87C185.25,172.6,149.77,203,109.06,203A83.42,83.42,0,1,1,172.8,65.85l-61.23,60.81L77,91.91a12.8,12.8,0,0,0-18.21,18l43.54,43.85a12.83,12.83,0,0,0,9.11,3.77h0a12.77,12.77,0,0,0,9-3.77L253.07,21.89a12.8,12.8,0,1,0-18-18.21L191,47.53A109.2,109.2,0,0,0,109.06,10.48Z"/></g></g></svg>