<svg xmlns="http://www.w3.org/2000/svg" viewBox="0 0 409.98 512"><defs><style>.cls-1{fill:#00a8f0;}</style></defs><title>mnu-2-3</title><g id="Слой_2" data-name="Слой 2"><g id="Capa_1" data-name="Capa 1"><path class="cls-1" d="M278.49,89.54h-238A40.5,40.5,0,0,0,0,130V471.53A40.5,40.5,0,0,0,40.47,512h238A40.5,40.5,0,0,0,319,471.53V130A40.63,40.63,0,0,0,278.49,89.54Zm12.06,381.88a12.17,12.17,0,0,1-12.16,12.16h-238a12.17,12.17,0,0,1-12.16-12.16V130a12.17,12.17,0,0,1,12.16-12.16h238A12.17,12.17,0,0,1,290.55,130Z"/><path class="cls-1" d="M369.5,0h-238A40.5,40.5,0,0,0,91,40.47a14.16,14.16,0,0,0,28.31,0,12.17,12.17,0,0,1,12.16-12.16h238a12.17,12.17,0,0,1,12.16,12.16V382a12.17,12.17,0,0,1-12.16,12.16,14.16,14.16,0,1,0,0,28.31A40.5,40.5,0,0,0,410,382V40.47A40.5,40.5,0,0,0,369.5,0Z"/></g></g></svg>