<svg xmlns="http://www.w3.org/2000/svg" viewBox="0 0 512 511.9"><defs><style>.cls-1{fill:#00a8f0;}</style></defs><title>mnu-2-1</title><g id="Слой_2" data-name="Слой 2"><g id="Capa_1" data-name="Capa 1"><path class="cls-1" d="M506.79,186.53a105.11,105.11,0,0,0-132.28-67.4,124.37,124.37,0,0,0-21.91,9.68A124.29,124.29,0,0,0,355,105c0-58.45-40.39-105-98-105S157,46.64,157,105a124.31,124.31,0,0,0,2.44,23.83,124.45,124.45,0,0,0-21.91-9.68A105.1,105.1,0,0,0,5.21,186.53c-18.14,55.84,12.73,118,67.4,135.79a124.41,124.41,0,0,0,23.41,5,124.42,124.42,0,0,0-16,17.85,105.1,105.1,0,0,0,23.22,146.64c46.81,34,107.6,23.76,141.74-23.23a124.45,124.45,0,0,0,12-20.71,124.34,124.34,0,0,0,12,20.71c34.18,47,92.93,57.16,139.64,23.23a105.1,105.1,0,0,0,23.23-146.64,124.36,124.36,0,0,0-16-17.85,124.56,124.56,0,0,0,23.42-5C494.07,304.55,524.93,242.37,506.79,186.53ZM257.05,30c39.39,0,68,31.54,68,75,0,19.56-7.65,43.67-20.47,64.5a14.94,14.94,0,0,0-2.22,8.1l-15.62,27A76.16,76.16,0,0,0,271.85,200v-61.5a14.83,14.83,0,0,0-14.8-15,15,15,0,0,0-15,15V200a74.41,74.41,0,0,0-15,4.77L209.61,176.2a14.94,14.94,0,0,0-2.18-6.72C194.61,148.65,187,124.54,187,105,187,62.23,217.09,30,257.05,30ZM81.88,293.79c-38.54-12.52-61-58.31-48.15-98a75.07,75.07,0,0,1,94.49-48.15c16.14,5.25,33.77,17,48.51,32.26l25.76,42.18a75.36,75.36,0,0,0-10.65,14.4l-58.53-19A15,15,0,0,0,124,246l58.51,19a73.11,73.11,0,0,0,0,17.16l-37.46,13.07C122.68,300,99.33,299.46,81.88,293.79Zm160.17,93.45c-1.94,24.23-9.88,48-21.3,63.75-24.41,33.59-66.47,40.84-99.85,16.59a75.07,75.07,0,0,1-16.59-104.74c19.86-27.33,54.35-39.75,57-41.46L192,310.67A75.36,75.36,0,0,0,201.76,324l-36.18,49.79a15,15,0,0,0,24.26,17.63L226,341.69a74.33,74.33,0,0,0,16,5.24v40.31Zm15-68.8a45,45,0,1,1,45-45A45,45,0,0,1,257.05,318.45Zm134,149.14c-34.47,25-74.13,15.9-97.74-16.59-11.42-15.72-19.56-39.52-21.51-63.75V346.93a76,76,0,0,0,16.24-5.24l36.17,49.78a15,15,0,0,0,24.26-17.63L312.34,324A75.38,75.38,0,0,0,322,310.79l28,10.07c3.45,2.55,37.54,14.25,57.69,42A75.07,75.07,0,0,1,391.09,467.59ZM368,295.47,331.5,282.32a73.07,73.07,0,0,0,.05-17.3l58.51-19a15,15,0,0,0-9.27-28.53l-58.53,19a75.36,75.36,0,0,0-10.86-14.63L336.17,179c14.56-14.77,31.79-26.21,47.61-31.35a75.08,75.08,0,0,1,94.49,48.14c12.89,39.68-9.61,85.47-48.14,98h0C413,299.37,390.11,299.93,368,295.47Z"/></g></g></svg>