<svg xmlns="http://www.w3.org/2000/svg" viewBox="0 0 512 511.99"><defs><style>.cls-1{fill:#00a8f0;}</style></defs><title>mnu-1</title><g id="Слой_2" data-name="Слой 2"><g id="Layer_1" data-name="Layer 1"><path class="cls-1" d="M69.45,371.09a12.3,12.3,0,0,0-17.39,0L26.81,396.34A12.3,12.3,0,1,0,44.2,413.73l25.25-25.26A12.3,12.3,0,0,0,69.45,371.09Z"/><path class="cls-1" d="M105.18,406.81a12.3,12.3,0,0,0-17.39,0L3.6,491A12.3,12.3,0,1,0,21,508.39l84.18-84.19A12.3,12.3,0,0,0,105.18,406.81Z"/><path class="cls-1" d="M140.9,442.53a12.3,12.3,0,0,0-17.39,0L81.42,484.63A12.3,12.3,0,1,0,98.81,502l42.09-42.09A12.3,12.3,0,0,0,140.9,442.53Z"/><path class="cls-1" d="M372.8,139.2a75.82,75.82,0,1,0,0,107.23A75.33,75.33,0,0,0,372.8,139.2ZM355.41,229a51.23,51.23,0,1,1,0-72.45A50.89,50.89,0,0,1,355.41,229Z"/><path class="cls-1" d="M503.43,17.27a12.3,12.3,0,0,0-8.7-8.7A253.73,253.73,0,0,0,366,8c-6.57,1.7-13,3.69-19.44,5.91a12.35,12.35,0,0,0-1.63.57,252.62,252.62,0,0,0-93.83,59.18l0,0-.21.2c-.11.11-.21.24-.32.35s-.21.21-.32.33l-37.66,43.83A221.43,221.43,0,0,0,18.72,228.67a12.3,12.3,0,0,0,7.6,18.08l68.35,17.4L81.3,300.47a49.33,49.33,0,0,0,11.38,51.77l67.08,67.08a49.3,49.3,0,0,0,51.78,11.38l36.32-13.37,17.4,68.35a12.3,12.3,0,0,0,18.08,7.6A221.43,221.43,0,0,0,393.55,299.45l43.83-37.66c.11-.1.21-.21.33-.31s.24-.21.36-.32l.2-.21,0,0a252.61,252.61,0,0,0,59.18-93.83,12.91,12.91,0,0,0,.57-1.64c2.22-6.39,4.21-12.87,5.91-19.44A253.76,253.76,0,0,0,503.43,17.27ZM48.86,227.11A196.83,196.83,0,0,1,190.57,144l-84,97.77ZM104.37,309l11.44-31.08,15.86,15.86-24,38.37A24.68,24.68,0,0,1,104.37,309Zm21,41.23,24.12-38.6,16.74,16.74L134.91,359.7Zm26.89,26.89,31.36-31.36,16.74,16.74-38.6,24.12ZM203,407.63a24.68,24.68,0,0,1-23.15-3.33l38.37-24,15.86,15.86Zm108.39,33.26a198.18,198.18,0,0,1-26.53,22.26L270.2,405.44l97.77-84A197.2,197.2,0,0,1,311.42,440.89ZM420.93,243.5,257,384.32,127.68,255l99.48-115.78.28-.33L268.5,91.07a228.14,228.14,0,0,1,78.2-51L471.91,165.3A228.09,228.09,0,0,1,420.93,243.5ZM480.37,139,373,31.63a229.15,229.15,0,0,1,108.39-1A229.16,229.16,0,0,1,480.37,139Z"/></g></g></svg>