<svg xmlns="http://www.w3.org/2000/svg" viewBox="0 0 512 512"><defs><style>.cls-1{fill:#00a8f0;}</style></defs><title>mnu-3-1</title><g id="Слой_2" data-name="Слой 2"><g id="Capa_1" data-name="Capa 1"><path class="cls-1" d="M485.79,202.25l-35.94-6.1a202.92,202.92,0,0,0-14.44-34.87l21.18-29.63a31.53,31.53,0,0,0-3.42-40.75L421.3,59a31.4,31.4,0,0,0-22.35-9.31,31.08,31.08,0,0,0-18.29,5.88L350.92,76.79a200.81,200.81,0,0,0-36.15-14.87l-6-35.51A31.6,31.6,0,0,0,277.55,0h-45a31.6,31.6,0,0,0-31.23,26.42l-6.2,36.36a197.92,197.92,0,0,0-34.76,14.65L130.91,56.26a31.59,31.59,0,0,0-40.75,3.42l-32,31.87a31.66,31.66,0,0,0-3.42,40.75l21.39,30.05a198.2,198.2,0,0,0-14.23,35l-35.51,6A31.6,31.6,0,0,0,0,234.55v45a31.6,31.6,0,0,0,26.42,31.23L62.78,317a197.92,197.92,0,0,0,14.65,34.76L56.37,381.08a31.53,31.53,0,0,0,3.42,40.75l31.87,31.87A31.4,31.4,0,0,0,114,463a31.08,31.08,0,0,0,18.29-5.88l30.05-21.39a202.34,202.34,0,0,0,33.8,13.9l6,35.94A31.6,31.6,0,0,0,233.38,512h45.14a31.6,31.6,0,0,0,31.23-26.42l6.1-35.94a202.92,202.92,0,0,0,34.87-14.44l29.63,21.18a31.4,31.4,0,0,0,18.4,5.88h0A31.4,31.4,0,0,0,421.08,453L453,421.08a31.66,31.66,0,0,0,3.42-40.75L435.2,350.6a201.46,201.46,0,0,0,14.44-34.87l35.94-6A31.6,31.6,0,0,0,512,278.51v-45A31.22,31.22,0,0,0,485.79,202.25Zm-2.46,76.26a2.77,2.77,0,0,1-2.35,2.78l-44.92,7.49a14.36,14.36,0,0,0-11.55,10.59,171.22,171.22,0,0,1-18.61,44.81,14.46,14.46,0,0,0,.64,15.72L433,397.13a2.91,2.91,0,0,1-.32,3.64l-31.87,31.87a2.72,2.72,0,0,1-2,.86,2.63,2.63,0,0,1-1.6-.53L360,406.54a14.45,14.45,0,0,0-15.72-.64,171.22,171.22,0,0,1-44.81,18.61,14.2,14.2,0,0,0-10.59,11.55L281.29,481a2.77,2.77,0,0,1-2.78,2.35h-45A2.77,2.77,0,0,1,230.7,481l-7.49-44.92a14.36,14.36,0,0,0-10.59-11.55,177.79,177.79,0,0,1-43.85-18,14.8,14.8,0,0,0-7.27-1.93,14.09,14.09,0,0,0-8.34,2.67l-37.43,26.63a3.18,3.18,0,0,1-1.6.53,2.87,2.87,0,0,1-2-.86L80.22,401.73a2.9,2.9,0,0,1-.32-3.64l26.31-36.9a14.64,14.64,0,0,0,.64-15.83A169.61,169.61,0,0,1,88,300.65a14.65,14.65,0,0,0-11.55-10.59l-45.24-7.7a2.77,2.77,0,0,1-2.35-2.78v-45a2.77,2.77,0,0,1,2.35-2.78l44.6-7.49a14.46,14.46,0,0,0,11.66-10.7,171,171,0,0,1,18.29-44.92,14.28,14.28,0,0,0-.75-15.62L78.4,115.62a2.91,2.91,0,0,1,.32-3.64l31.87-31.87a2.72,2.72,0,0,1,2-.86,2.63,2.63,0,0,1,1.6.53l36.9,26.31a14.64,14.64,0,0,0,15.83.64,169.61,169.61,0,0,1,44.71-18.82,14.65,14.65,0,0,0,10.59-11.55L230,31.12a2.77,2.77,0,0,1,2.78-2.35h45a2.77,2.77,0,0,1,2.78,2.35L288,75.72a14.46,14.46,0,0,0,10.7,11.66,173.6,173.6,0,0,1,45.88,18.82,14.46,14.46,0,0,0,15.72-.64L397.23,79a3.18,3.18,0,0,1,1.6-.53,2.87,2.87,0,0,1,2,.86l31.87,31.87a2.9,2.9,0,0,1,.32,3.64L406.65,152a14.45,14.45,0,0,0-.64,15.72,171.22,171.22,0,0,1,18.61,44.81,14.2,14.2,0,0,0,11.55,10.59l44.92,7.59a2.77,2.77,0,0,1,2.35,2.78v45Z"/><path class="cls-1" d="M256.05,145.46A110.49,110.49,0,1,0,366.54,255.94,110.56,110.56,0,0,0,256.05,145.46Zm0,192.09a81.61,81.61,0,1,1,81.61-81.61A81.66,81.66,0,0,1,256.05,337.55Z"/></g></g></svg>