<svg xmlns="http://www.w3.org/2000/svg" viewBox="0 0 511.89 512"><defs><style>.cls-1{fill:#00a8f0;}</style></defs><title>mnu-2-4</title><g id="Слой_2" data-name="Слой 2"><g id="Capa_1" data-name="Capa 1"><path class="cls-1" d="M442.56,269H243V69.44a14.45,14.45,0,0,0-14.51-14.51C102.55,54.93,0,157.48,0,283.47S102.55,512,228.53,512,457.07,409.45,457.07,283.47A14.59,14.59,0,0,0,442.56,269Zm-214,214C118.57,483,29,393.43,29,283.47c0-105.13,81.7-191.56,185-199v199A14.45,14.45,0,0,0,228.53,298h199C420.09,401.28,333.67,483,228.53,483Z"/><path class="cls-1" d="M511.89,227.78A228.5,228.5,0,0,0,283.36,0a14.45,14.45,0,0,0-14.51,14.51v214A14.45,14.45,0,0,0,283.36,243h214a14.45,14.45,0,0,0,14.51-14.51Zm-214-13.65V29.67A199.64,199.64,0,0,1,482.33,214.13H297.87Z"/></g></g></svg>