<svg xmlns="http://www.w3.org/2000/svg" viewBox="0 0 512 512"><defs><style>.cls-1{fill:#00a8f0;}</style></defs><title>mnu-2-10</title><g id="Слой_2" data-name="Слой 2"><g id="Capa_1" data-name="Capa 1"><path class="cls-1" d="M296.16,103.83a59.73,59.73,0,1,0-80.32,0A76.9,76.9,0,0,0,153.6,179.2v34.13a8.53,8.53,0,0,0,8.53,8.53H349.87a8.53,8.53,0,0,0,8.53-8.53V179.2A76.9,76.9,0,0,0,296.16,103.83ZM213.33,59.73A42.67,42.67,0,1,1,256,102.4,42.72,42.72,0,0,1,213.33,59.73Zm128,145.07H170.67V179.2a59.8,59.8,0,0,1,59.73-59.73h51.2a59.8,59.8,0,0,1,59.73,59.73Z"/><path class="cls-1" d="M142.56,394a59.73,59.73,0,1,0-80.32,0A76.9,76.9,0,0,0,0,469.33v34.13A8.53,8.53,0,0,0,8.53,512H196.27a8.53,8.53,0,0,0,8.53-8.53V469.33A76.9,76.9,0,0,0,142.56,394ZM59.73,349.87a42.67,42.67,0,1,1,42.67,42.67A42.72,42.72,0,0,1,59.73,349.87Zm128,145.07H17.07v-25.6A59.8,59.8,0,0,1,76.8,409.6H128a59.8,59.8,0,0,1,59.73,59.73Z"/><path class="cls-1" d="M449.76,394a59.73,59.73,0,1,0-80.32,0,76.9,76.9,0,0,0-62.24,75.37v34.13a8.53,8.53,0,0,0,8.53,8.53H503.47a8.53,8.53,0,0,0,8.53-8.53V469.33A76.9,76.9,0,0,0,449.76,394Zm-82.82-44.09a42.67,42.67,0,1,1,42.67,42.67A42.72,42.72,0,0,1,366.93,349.87Zm128,145.07H324.27v-25.6A59.8,59.8,0,0,1,384,409.6h51.2a59.8,59.8,0,0,1,59.73,59.73Z"/><path class="cls-1" d="M51.36,272.79l-17,.67c.23,5.88.7,11.84,1.4,17.69l16.95-2C52,283.72,51.58,278.22,51.36,272.79Z"/><path class="cls-1" d="M35.7,238.05c-.69,5.82-1.17,11.77-1.39,17.68l17,.67c.21-5.46.65-10.95,1.29-16.33Z"/><path class="cls-1" d="M121.51,88c-4.67,3.56-9.27,7.36-13.68,11.32l11.41,12.7c4.06-3.65,8.3-7.17,12.61-10.44Z"/><path class="cls-1" d="M55.19,170.07c-2.51,5.33-4.83,10.83-6.91,16.37l16,6c1.92-5.1,4.06-10.17,6.37-15.08Z"/><path class="cls-1" d="M42.69,203.29c-1.62,5.64-3,11.45-4.2,17.24l16.73,3.37c1.08-5.33,2.37-10.69,3.87-15.91Z"/><path class="cls-1" d="M95.12,111.76c-4.09,4.3-8,8.78-11.7,13.33l13.27,10.73c3.4-4.2,7-8.35,10.8-12.31Z"/><path class="cls-1" d="M151.32,68.87c-5.16,2.76-10.31,5.79-15.31,9l9.25,14.35c4.61-3,9.35-5.77,14.1-8.3Z"/><path class="cls-1" d="M72.82,139.31c-3.34,4.87-6.51,9.92-9.44,15l14.81,8.48c2.7-4.71,5.63-9.38,8.71-13.87Z"/><path class="cls-1" d="M215.57,465.34l-3.37,16.73c5.74,1.16,11.65,2.09,17.54,2.78l2-16.95C226.3,467.27,220.86,466.41,215.57,465.34Z"/><path class="cls-1" d="M297,465.24c-5.3,1.08-10.73,2-16.18,2.62l2.06,16.95c5.89-.72,11.78-1.67,17.51-2.83Z"/><path class="cls-1" d="M264.47,469.16c-5.45.21-11,.24-16.38,0l-.67,17c2.84.12,5.71.17,8.61.17,3.05,0,6.1-.08,9.13-.2Z"/><path class="cls-1" d="M404.21,99.44l-11.4,12.7c4.06,3.65,8,7.49,11.73,11.42l12.39-11.73C412.89,107.55,408.61,103.39,404.21,99.44Z"/><path class="cls-1" d="M428.61,125.14l-13.27,10.73c3.4,4.21,6.7,8.64,9.79,13.14l14.07-9.65C435.86,134.49,432.3,129.71,428.61,125.14Z"/><path class="cls-1" d="M477.69,255.76l-17,.67c.11,2.69.16,5.4.16,8.11s-.05,5.53-.16,8.29l17,.67q.18-4.45.18-9C477.87,261.59,477.81,258.66,477.69,255.76Z"/><path class="cls-1" d="M448.65,154.39l-14.81,8.49c2.71,4.72,5.25,9.61,7.57,14.52l15.44-7.29C454.33,164.79,451.58,159.5,448.65,154.39Z"/><path class="cls-1" d="M463.74,186.47l-16,6c1.91,5.09,3.64,10.32,5.14,15.54l16.41-4.7C467.69,197.65,465.82,192,463.74,186.47Z"/><path class="cls-1" d="M473.5,220.56l-16.73,3.36c1.08,5.34,1.95,10.79,2.58,16.18l16.95-2C475.61,232.25,474.67,226.36,473.5,220.56Z"/><path class="cls-1" d="M376,77.91,366.8,92.26c4.56,2.94,9.06,6.1,13.41,9.42l10.36-13.58C385.86,84.51,381,81.09,376,77.91Z"/><path class="cls-1" d="M344.78,61.15l-6.84,15.63c5,2.18,9.92,4.58,14.73,7.16l8.07-15C355.55,66.11,350.17,63.5,344.78,61.15Z"/></g></g></svg>