<svg xmlns="http://www.w3.org/2000/svg" viewBox="0 0 511.99 511.97"><defs><style>.cls-1{fill:#00a8f0;}</style></defs><title>mnu-2-9</title><g id="Слой_2" data-name="Слой 2"><g id="Capa_1" data-name="Capa 1"><g id="Statics"><path class="cls-1" d="M509.32,24.84A16,16,0,1,0,482.63,7.19L423.45,96.77A46.2,46.2,0,0,0,416,96a48.09,48.09,0,0,0-48,48,47.44,47.44,0,0,0,2.48,14.51l-57.15,72.88a47.65,47.65,0,0,0-73.12,38.69l-90.41,52.65a47.84,47.84,0,0,0-76.73,57.13L2.63,487.19a16,16,0,0,0,26.75,17.57l70-106.65A48.54,48.54,0,0,0,112,400a47.94,47.94,0,0,0,47.81-46.09l90.41-52.62a47.68,47.68,0,0,0,83.32-43.77l57.12-72.86a47.79,47.79,0,0,0,61-72.46ZM112,368a16,16,0,1,1,16-16A16,16,0,0,1,112,368Zm176-80a16,16,0,1,1,16-16A16,16,0,0,1,288,288ZM416,160a16,16,0,1,1,16-16A16,16,0,0,1,416,160ZM96,480a16,16,0,1,0,16,16A16,16,0,0,0,96,480Zm80,0a16,16,0,1,0,16,16A16,16,0,0,0,176,480Zm80,0a16,16,0,1,0,16,16A16,16,0,0,0,256,480Zm80,0a16,16,0,1,0,16,16A16,16,0,0,0,336,480Zm80,0a16,16,0,1,0,16,16A16,16,0,0,0,416,480Zm80,0a16,16,0,1,0,16,16A16,16,0,0,0,496,480ZM16,432A16,16,0,1,0,0,416,16,16,0,0,0,16,432Zm0-80A16,16,0,1,0,0,336,16,16,0,0,0,16,352Zm0-80A16,16,0,1,0,0,256,16,16,0,0,0,16,272Zm0-80A16,16,0,1,0,0,176,16,16,0,0,0,16,192Zm0-80A16,16,0,1,0,0,96,16,16,0,0,0,16,112Zm0-80A16,16,0,1,0,0,16,16,16,0,0,0,16,32Z"/></g></g></g></svg>