<svg xmlns="http://www.w3.org/2000/svg" viewBox="0 0 512 512" width="29" height="29"><defs><style>.cls-1{fill:#00a8f0;}</style></defs><title>mnu-4</title><g id="Слой_2" data-name="Слой 2"><g id="Layer_1" data-name="Layer 1"><path class="cls-1" d="M477.6,128.06A255.89,255.89,0,0,0,8.83,189.77a255.89,255.89,0,0,0,180.94,313.4A257.27,257.27,0,0,0,256.42,512,256,256,0,0,0,477.6,128.06Zm-.18,187.28a229.24,229.24,0,0,1-420,55.29,229.4,229.4,0,0,1,198.16-344,230.51,230.51,0,0,1,59.7,7.91,229.24,229.24,0,0,1,162.1,280.76Z"/><path class="cls-1" d="M378.78,231.85l-164.53-95A27.89,27.89,0,0,0,172.42,161V351a27.82,27.82,0,0,0,41.83,24.15l164.53-95a27.89,27.89,0,0,0,0-48.3Zm-13.33,25.22-164.53,95a1.24,1.24,0,0,1-1.85-1.07V161a1.11,1.11,0,0,1,.62-1.07,1.25,1.25,0,0,1,.63-.19,1.16,1.16,0,0,1,.6.19l164.53,95a1.24,1.24,0,0,1,0,2.14Z"/><path class="cls-1" d="M413.3,134.44A201,201,0,0,0,282.6,59,13.33,13.33,0,0,0,279,85.38a174.09,174.09,0,0,1,113.23,65.37,13.32,13.32,0,0,0,21.07-16.31Z"/></g></g></svg>