<svg xmlns="http://www.w3.org/2000/svg" viewBox="0 0 512 491.15"><defs><style>.cls-1{fill:#00a8f0;}</style></defs><title>mnu-3-4</title><g id="Слой_2" data-name="Слой 2"><g id="Layer_1" data-name="Layer 1"><path class="cls-1" d="M378.64,123.82a16,16,0,0,0-22.62,0L135.2,344.62a16,16,0,1,0,22.62,22.62l220.82-220.8A16,16,0,0,0,378.64,123.82Z"/><path class="cls-1" d="M176.86,102.32a63.35,63.35,0,1,0,63.36,63.36A63.42,63.42,0,0,0,176.86,102.32Zm0,94.7a31.35,31.35,0,1,1,31.36-31.34A31.38,31.38,0,0,1,176.86,197Z"/><path class="cls-1" d="M486.72,293.9C498.56,280.59,512,265.49,512,245.58s-13.44-35-25.3-48.34c-6.7-7.54-13.63-15.31-15.66-21.55-2.21-6.82-1.18-17.57-.19-28,1.66-17.42,3.55-37.15-7.74-52.66s-30.83-19.94-48-23.73C405,69.1,394.53,66.8,388.86,62.67c-5.5-4-10.86-13.15-16-22C363.89,25.41,353.74,8.1,335.1,2a42.61,42.61,0,0,0-13.26-2c-13.41,0-26.21,5.55-38.59,10.93-9.73,4.22-19.81,8.59-27.25,8.59s-17.52-4.37-27.25-8.59C216.37,5.55,203.57,0,190.16,0a42.79,42.79,0,0,0-13.28,2C158.24,8.1,148.11,25.42,139.14,40.7c-5.17,8.85-10.51,18-16,22-5.65,4.1-16.11,6.42-26.22,8.66-17.18,3.81-36.64,8.11-48,23.74s-9.41,35.25-7.74,52.67c1,10.4,2,21.15-.19,28-2,6.22-9,14-15.66,21.54C13.44,210.58,0,225.68,0,245.58s13.42,35,25.26,48.29c6.7,7.54,13.63,15.33,15.66,21.62,2.22,6.82,1.22,17.57.22,28-1.66,17.41-3.54,37.15,7.74,52.64,11.38,15.65,30.85,20,48,23.74,10.11,2.22,20.56,4.53,26.19,8.62s10.85,13.14,16,22c8.93,15.28,19.09,32.61,37.73,38.67a43.06,43.06,0,0,0,13.25,2c13.41,0,26.22-5.55,38.59-10.91,9.74-4.22,19.82-8.59,27.28-8.59s17.52,4.35,27.26,8.59c12.37,5.36,25.18,10.91,38.58,10.91a43.27,43.27,0,0,0,13.28-2c18.64-6,28.77-23.36,37.71-38.64,5.18-8.85,10.53-18,16.06-22s16.11-6.43,26.22-8.67c17.15-3.78,36.61-8.06,48-23.71s9.41-35.26,7.74-52.69c-1-10.4-2-21.15.19-28C473.07,309.22,480,301.42,486.72,293.9Zm-23.9-21.3c-8.91,10-18.11,20.34-22.21,33-4.26,13.12-2.91,27.22-1.62,40.86,1.18,12.35,2.4,25.12-1.76,30.82s-16.83,8.62-29,11.33c-13.33,2.94-27.12,6-38.13,14s-18,20-24.86,31.7c-6.35,10.85-12.94,22.06-20,24.37-6.11,1.94-18.06-2.94-29.25-7.79-12.74-5.54-25.9-11.23-40-11.23s-27.26,5.7-40,11.22c-11.18,4.83-23.2,9.73-29.25,7.79-7-2.27-13.65-13.52-20-24.4-6.83-11.66-13.9-23.74-24.82-31.68s-24.82-11.06-38.13-14c-12.18-2.69-24.78-5.47-29-11.33S71.84,358.8,73,346.46c1.3-13.66,2.64-27.79-1.63-40.88-4.08-12.66-13.28-23-22.19-33-8.43-9.47-17.17-19.3-17.17-27s8.75-17.55,17.2-27c8.9-10,18.1-20.34,22.19-33,4.26-13.14,2.91-27.23,1.62-40.88-1.18-12.35-2.4-25.1,1.76-30.82s16.86-8.64,29.06-11.33c13.31-2.94,27.09-6,38.13-14s18-20,24.8-31.66c6.35-10.86,13-22.11,20-24.42,6.14-2,18.06,2.94,29.25,7.81,12.74,5.52,25.9,11.23,40,11.23s27.25-5.71,40-11.23c11.18-4.85,23.2-9.84,29.23-7.81,7.06,2.29,13.65,13.52,20,24.38,6.83,11.66,13.9,23.74,24.82,31.68s24.85,11.09,38.18,14c12.16,2.69,24.77,5.47,29,11.31s2.93,18.46,1.76,30.8c-1.3,13.65-2.64,27.76,1.62,40.88,4.1,12.62,13.3,23,22.19,33,8.45,9.49,17.2,19.33,17.2,27S471.26,263.12,462.82,272.61Z"/><path class="cls-1" d="M336.83,262.27a63.36,63.36,0,1,0,63.34,63.36A63.41,63.41,0,0,0,336.83,262.27Zm0,94.72a31.36,31.36,0,1,1,31.34-31.36A31.37,31.37,0,0,1,336.83,357Z"/></g></g></svg>