<svg xmlns="http://www.w3.org/2000/svg" viewBox="0 0 395.04 512"><defs><style>.cls-1{fill:#00a8f0;}</style></defs><title>mnu-2-7</title><g id="Слой_2" data-name="Слой 2"><g id="Capa_1" data-name="Capa 1"><path class="cls-1" d="M393.61,491c-23.83-49.51-66.74-88.4-118.74-108V351.66c25.57-1.41,73.78-7.91,102.05-36.83a14.75,14.75,0,0,0,3.68-14,14.58,14.58,0,0,0-10.18-10.29c-.43-.11-37.7-12.89-30.23-89.16,3.25-32.5,2.71-61.75-1.52-86.89-4.88-28.82-14.63-51.46-28.82-67.28-15.38-17-35.43-25.68-59.59-25.68h-2.82C238.26,13.54,218.11,0,187.23,0c-14.41,0-29.47,2.93-44.85,8.88l-.65.22C129.59,13.65,107.06,22.21,88,47.56,65.78,77,55.17,120.69,56.47,177.24s-8,84.39-16,97.72c-6.61,10.94-12.89,13.11-14.52,13.54-5.53-.43-10,2.38-12.78,7.15s-1.84,11.05,1.41,15.82c1.3,2,8.88,12.13,27.19,22,20.91,11.27,47,17.66,77.89,19v29.79A217.77,217.77,0,0,0,1.43,491.09a14.78,14.78,0,0,0,.76,14.08A14.73,14.73,0,0,0,14.54,512h366a14.59,14.59,0,0,0,12.35-6.83A15,15,0,0,0,393.61,491ZM39.46,482.64a187.55,187.55,0,0,1,99.13-76.27,14.63,14.63,0,0,0,10.18-13.87V338A14.61,14.61,0,0,0,134,323.39c-42.14.43-67.6-9.21-81.47-17.44,1-1,2.06-2,3.14-3,21.34-22.21,31.42-64.68,30-126.32C82.9,62.73,131.33,44.31,151.91,36.51l.65-.22c12.13-4.55,23.73-6.93,34.45-6.93,28,0,42.25,15.38,43.44,16.79A14.24,14.24,0,0,0,243,51.35c2.38-.22,4.77-.33,7-.33,15.71,0,28.17,5.2,37.92,16,20.58,22.75,29,70.74,23,131.63-6.07,61.43,13.11,92.19,29.68,107.15-22.32,12.35-54.06,17-78,17h-2.17A14.89,14.89,0,0,0,249.85,327a14.57,14.57,0,0,0-4.44,10.51v56a14.53,14.53,0,0,0,10.18,13.87,189.32,189.32,0,0,1,99.67,75.51H39.46Z"/></g></g></svg>