<svg xmlns="http://www.w3.org/2000/svg" viewBox="0 0 443.1 487.7"><title>mnu-3-5</title><style>path{fill:#00a8f0;}</style><g id="Слой_2" data-name="Слой 2"><g id="Capa_1" data-name="Capa 1"><path d="M57.9,62.7a12.28,12.28,0,0,0-17.3-.1,12.1,12.1,0,0,0-.1,17.3l29.2,29.4a12.25,12.25,0,0,0,8.7,3.6h0a12.2,12.2,0,0,0,8.6-3.6l88.9-88.4A12.2,12.2,0,1,0,158.7,3.6L131.8,30.3a76.68,76.68,0,1,0,18.4,75.6,12.27,12.27,0,1,0-23.5-7.1,52.34,52.34,0,1,1-12.3-51.1L78.5,83.4Z"/><path d="M76.7,170.6a76.7,76.7,0,1,0,76.7,76.7A76.78,76.78,0,0,0,76.7,170.6Zm0,128.9a52.2,52.2,0,1,1,52.2-52.2A52.24,52.24,0,0,1,76.7,299.5Z"/><path d="M153.4,411a76.7,76.7,0,1,0-76.7,76.7A76.78,76.78,0,0,0,153.4,411ZM76.7,463.3a52.2,52.2,0,1,1,52.2-52.2A52.24,52.24,0,0,1,76.7,463.3Z"/><path d="M430.8,235H192.5a12.3,12.3,0,0,0,0,24.6H430.8a12.3,12.3,0,0,0,0-24.6Z"/><path d="M430.8,71.5H192.5a12.3,12.3,0,0,0,0,24.6H430.8a12.3,12.3,0,0,0,0-24.6Z"/><path d="M430.8,398.8H192.5a12.3,12.3,0,1,0,0,24.6H430.8a12.3,12.3,0,0,0,0-24.6Z"/></g></g></svg>