<svg xmlns="http://www.w3.org/2000/svg" viewBox="0 0 426.67 512"><defs><style>.cls-1{fill:#fff;}</style></defs><title>mnu-5</title><g id="Слой_2" data-name="Слой 2"><g id="Capa_1" data-name="Capa 1"><path id="YouTube" class="cls-1" d="M360.9,374.51H332.8l.13-16.32A13.25,13.25,0,0,1,346.16,345H348a13.27,13.27,0,0,1,13.27,13.19Zm-105.39-35c-7.13,0-13,4.79-13,10.66v79.38c0,5.85,5.83,10.63,13,10.63s13-4.78,13-10.63V350.19C268.5,344.32,262.66,339.54,255.51,339.54Zm171.16-44.4v151c0,36.22-31.41,65.86-69.8,65.86H69.81C31.4,512,0,482.36,0,446.14v-151c0-36.22,31.4-65.87,69.81-65.87H356.86C395.26,229.27,426.67,258.91,426.67,295.13ZM89,462.54l0-159.07h35.58V279.91l-94.86-.14v23.17l29.61.09V462.54ZM195.62,327.16H166V412.1c0,12.29.75,18.43,0,20.6-2.41,6.59-13.26,13.59-17.48.71-.72-2.25-.09-9.05-.1-20.72l-.12-85.53h-29.5l.09,84.18c0,12.9-.29,22.52.1,26.9.72,7.72.47,16.72,7.63,21.86,13.35,9.61,38.93-1.43,45.33-15.18l-.06,17.54,23.83,0V327.16Zm94.91,97.27-.06-70.7c0-26.94-20.18-43.08-47.54-21.28l.12-52.56-29.63,0-.14,181.42,24.37-.35,2.22-11.3C271,478.28,290.58,458.7,290.53,424.43Zm92.85-9.37-22.24.12c0,.88,0,1.9-.06,3V430.6a12.14,12.14,0,0,1-12.16,12.05h-4.36A12.15,12.15,0,0,1,332.4,430.6V398h50.94V378.78c0-14-.36-28-1.52-36-3.65-25.34-39.21-29.36-57.18-16.39a33.49,33.49,0,0,0-12.45,16.75q-3.79,10.93-3.78,29.89v42.15C308.42,485.24,393.53,475.34,383.38,415.06ZM269.27,186.21a20.2,20.2,0,0,0,7.13,9c3.19,2.24,7.26,3.37,12.14,3.37A18.88,18.88,0,0,0,299.91,195a27.26,27.26,0,0,0,8.32-10.64L307.67,196h33.07V55.41h-26V164.86a10.84,10.84,0,0,1-21.68,0V55.41H265.86v94.86c0,12.08.22,20.14.58,24.22A40.78,40.78,0,0,0,269.27,186.21ZM169.06,106.78q0-20.25,3.36-31.64a35.3,35.3,0,0,1,12.16-18.25Q193.34,50,207,50c7.65,0,14.21,1.5,19.68,4.44a32.79,32.79,0,0,1,12.69,11.54,45.52,45.52,0,0,1,6.12,14.64c1.11,5.07,1.66,12.71,1.66,23v35.57c0,13-.52,22.64-1.54,28.73A45.54,45.54,0,0,1,239.08,185a30.91,30.91,0,0,1-12.73,11.7,40.61,40.61,0,0,1-17.94,3.77c-7.54,0-13.89-1-19.12-3.21a26.24,26.24,0,0,1-12.2-9.75,43.29,43.29,0,0,1-6.21-15.77c-1.25-6.15-1.84-15.4-1.84-27.73l0-37.23ZM195,162.65c0,8,5.93,14.47,13.15,14.47s13.13-6.5,13.13-14.47V87.78c0-8-5.91-14.46-13.13-14.46S195,79.83,195,87.78Zm-91.52,37.8h31.2l0-107.86L171.53.19H137.41l-19.6,68.63L97.93,0H64.16l39.22,92.64Z"/></g></g></svg>