<svg xmlns="http://www.w3.org/2000/svg" viewBox="0 0 512 512"><defs><style>.cls-1{fill:#00a8f0;}</style></defs><title>mnu-3</title><g id="Слой_2" data-name="Слой 2"><g id="Capa_1" data-name="Capa 1"><path class="cls-1" d="M256,0C115,0,0,115.05,0,256A253.94,253.94,0,0,0,35.87,386L.76,492.29a15,15,0,0,0,19.1,18.9l105.2-36C165.46,499.29,210.58,512,256,512c141,0,256-115,256-256S397,0,256,0Zm0,482c-42.06,0-83.93-12.44-121.08-36A15,15,0,0,0,122,444.51L38.72,473l27.82-84.21A15,15,0,0,0,65,376.08,224.15,224.15,0,0,1,30,256C30,131.38,131.38,30,256,30S482,131.38,482,256,380.62,482,256,482Z"/><path class="cls-1" d="M254.62,61A103.74,103.74,0,0,0,151,164.62a45,45,0,0,0,90,0A13.64,13.64,0,0,1,254.62,151,16.4,16.4,0,0,1,271,167.38v3.19a16.31,16.31,0,0,1-4.79,11.59L233,215.39a74.51,74.51,0,0,0-22,53V286a45,45,0,0,0,90,0V274.64l28.84-28.84A105.68,105.68,0,0,0,361,170.57C361,104.45,310.13,61,254.62,61Zm54,163.58-33.24,33.24A15,15,0,0,0,271,268.42V286a15,15,0,0,1-30,0V268.42a44.7,44.7,0,0,1,13.18-31.82l33.25-33.25A46.13,46.13,0,0,0,301,170.57v-3.19A46.43,46.43,0,0,0,254.62,121,43.67,43.67,0,0,0,211,164.62a15,15,0,0,1-30,0A73.71,73.71,0,0,1,254.62,91c39,0,76.38,30,76.38,79.57A75.88,75.88,0,0,1,308.63,224.58Z"/><path class="cls-1" d="M256,361a45,45,0,1,0,45,45A45.05,45.05,0,0,0,256,361Zm0,60a15,15,0,1,1,15-15A15,15,0,0,1,256,421Z"/></g></g></svg>