<svg xmlns="http://www.w3.org/2000/svg" viewBox="0 0 480 448"><title>mnu-2</title><g id="Слой_2" data-name="Слой 2"><g id="Layer_1" data-name="Layer 1"><path d="M456,216V40A40,40,0,0,0,416,0H64A40,40,0,0,0,24,40V160A24,24,0,0,0,0,184V424a24,24,0,0,0,24,24H200a24,24,0,0,0,24-24h67a24,24,0,0,0,23.15-30.31L298.47,336H344v88a24,24,0,0,0,24,24h88a24,24,0,0,0,24-24V240A24,24,0,0,0,456,216ZM208,424a8,8,0,0,1-8,8H24a8,8,0,0,1-8-8V408H208Zm0-32H16V216H208Zm0-192H16V184a8,8,0,0,1,8-8H200a8,8,0,0,1,8,8Zm90.77,197.9A8,8,0,0,1,291,408H224V392h73.16ZM224,376V336h57.89l10.91,40Zm120-56H224V272H344Zm0-80v16H224V184a24,24,0,0,0-24-24H40V40A24,24,0,0,1,64,16H416a24,24,0,0,1,24,24V216H368A24,24,0,0,0,344,240ZM464,424a8,8,0,0,1-8,8H368a8,8,0,0,1-8-8V408H464Zm0-32H360V272H464Zm0-136H360V240a8,8,0,0,1,8-8h88a8,8,0,0,1,8,8Z"/><rect x="41.37" y="311.99" width="45.26" height="16" transform="translate(-207.52 138.98) rotate(-45)"/><rect x="60.11" y="303.99" width="135.77" height="16" transform="translate(-183.12 181.89) rotate(-45)"/><rect x="86.05" y="256" width="67.88" height="16" transform="translate(-151.53 162.17) rotate(-45)"/><rect x="375.7" y="308.01" width="56.56" height="16" transform="translate(-105.13 378.21) rotate(-45)"/><rect x="391.7" y="340.04" width="56.56" height="16" transform="translate(-123.09 398.91) rotate(-45)"/><rect x="206.05" y="112" width="67.88" height="16" transform="translate(-14.56 204.85) rotate(-45)"/><rect x="278.05" y="96" width="67.88" height="16" transform="translate(17.84 251.07) rotate(-45)"/><rect x="233.36" y="152.01" width="45.26" height="16" transform="translate(-38.17 227.88) rotate(-45)"/><rect x="273.3" y="56.06" width="45.37" height="16" transform="translate(41.39 228.06) rotate(-45)"/><rect x="56" y="32" width="16" height="16"/><rect x="88" y="32" width="16" height="16"/><rect x="120" y="32" width="16" height="16"/></g></g><style>rect,path{fill:#00a8f0;}</style></svg>