<svg xmlns="http://www.w3.org/2000/svg" viewBox="0 0 512 511.4"><title>mnu-2-6</title><g id="Слой_2" data-name="Слой 2"><g id="Capa_1" data-name="Capa 1"><style>path{fill:#00a8f0;}</style><path d="M256,185.78a10,10,0,1,0,10,10A10,10,0,0,0,256,185.78Z"/><path d="M511.55,195c-8-25.68-32.29-45-59.73-48.54l17-29.53a10,10,0,0,0-3.65-13.64c-5.26-3-11.71-4.88-19.25-5.51C445.64,79.8,437.36,64.1,423.3,56c-13.32-7.7-30-7.54-45.24,0a80.49,80.49,0,0,0-16.64-12.71A10,10,0,0,0,347.77,47L325.92,84.83V30a10,10,0,0,0-10-10c-6,0-12.43,1.76-19.17,5.24C287.52,9.62,272.37,0,256,0c-15.38,0-29.78,8.5-39.15,22.65A80.47,80.47,0,0,0,196.07,20a10,10,0,0,0-10,10V84.83L164.23,47a10,10,0,0,0-13.64-3.66c-5.25,3-10.06,7.7-14.38,13.91C120.5,48.54,102.75,47.86,88.7,56,75.37,63.67,67.15,78.22,66.12,95.17a80.56,80.56,0,0,0-19.34,8.07,10,10,0,0,0-3.66,13.64l17,29.53C32.74,150,8.43,169.28.45,195a10,10,0,0,0,3.3,10.76c22.63,18.1,179.57,137.5,202.31,154.8V461.46a49.94,49.94,0,1,0,99.88,0V360.55C337.51,336.64,473,234,504,209.14l4.27-3.42A10,10,0,0,0,511.55,195ZM413.32,73.28c8,4.61,12.61,14.11,12.69,25.28a168.56,168.56,0,0,0-25,5.67,90.46,90.46,0,0,0-10.5-31.86C398.61,69.32,406.83,69.54,413.32,73.28Zm-17.85,53.81.07,0h0c14.27-5.12,34.74-10.89,49.76-9.32l-17.05,29.53A73.64,73.64,0,0,0,415.6,151a68.09,68.09,0,0,0-28.51-20.69C389.93,129.15,392.73,128.08,395.47,127.09Zm-70.3-1L359.68,66.3c13.78,11.23,20.17,26.88,22,44.63-14.66,5.69-33.88,15-36.68,17a82.59,82.59,0,0,0-22.19,8.51A69.61,69.61,0,0,0,325.16,126.08ZM305.94,42.94v72.92a52.23,52.23,0,0,1-.33,5.84c-.1.85-.23,1.69-.37,2.53A76.19,76.19,0,0,0,256,105.88a72.21,72.21,0,0,0-7.64.42C261.21,86.62,285.16,53.69,305.94,42.94ZM256,20c9.58,0,18.64,6.37,24.25,16.64a179.44,179.44,0,0,0-18.11,18.05A91.63,91.63,0,0,0,235.79,30.6C241.28,23.9,248.52,20,256,20ZM206.06,40.74h0c18.64,3,32.46,14.53,43,29.93a448.48,448.48,0,0,0-30,45.06,75.92,75.92,0,0,0-11.23,7.67c-.49-1.12-1-2.22-1.56-3.33-.12-1.4-.2-2.81-.2-4.2V40.74Zm-69.69,74.91,0-.09h0c2.92-16.08,7.06-29.8,12-39.65a58.13,58.13,0,0,1,4.84-8.11l33.65,58.29A69.7,69.7,0,0,0,189,136a72.44,72.44,0,0,0-54.61-7.9C135,123.79,135.64,119.65,136.36,115.65ZM98.69,73.28c8-4.62,18.53-3.87,28.24,1.65a168.91,168.91,0,0,0-7.59,24.51,90.67,90.67,0,0,0-32.84-6.85C87.9,84,92.2,77,98.69,73.28ZM77.63,113.13c11.82-1.74,24.52.41,37.84,6.36-.86,5.6-1.59,11.41-2.18,17.37A69.8,69.8,0,0,0,96.5,151a73.69,73.69,0,0,0-12.76-3.72l-17.92-31A55.92,55.92,0,0,1,77.63,113.13ZM286,461.46a30,30,0,0,1-59.93,0v-10H286Zm0-30H226v-23H286Zm0-43H226v-23H286Zm6.63-42.95H219.41c-11.44-8.7-57.62-43.85-103-78.52,27.38-9.87,73.47-21.36,139.63-21.36,66.34,0,112.5,11.54,139.89,21.45C350.4,301.81,304.05,336.92,292.6,345.59ZM450.16,225.65c-38.32-20.59-92.46-34.2-153.52-38.47a10,10,0,1,0-1.39,19.93c53.2,3.72,102.19,15.23,137.33,32L414.49,253c-26.7-11.14-79-27.23-158.49-27.23-79.25,0-131.54,16-158.24,27.13L79.66,239c35.12-16.73,84-28.2,137.08-31.91a10,10,0,1,0-1.39-19.93c-60.93,4.26-115,17.82-153.3,38.35-18.78-14.4-32.2-24.74-40.05-30.87,8.27-17,27.12-28.86,47.23-28.86a53.73,53.73,0,0,1,25.49,6.4A10,10,0,0,0,108,168.89c8.72-13.64,26.14-23.06,44.09-23.06,14.17,0,28.18,5.91,37.45,15.8a10,10,0,0,0,16.64-3.33c3.86-10.31,11.8-18.76,21.3-24.42a10,10,0,0,0,5.31-2.79A55.38,55.38,0,0,1,256,125.85c17.33,0,34.83,8.9,44.58,22.68a42.65,42.65,0,0,1,5.2,9.75,10,10,0,0,0,16.65,3.34c8.26-8.82,24.77-15.8,40.45-15.8,16.74,0,31.72,8.41,41.1,23.06a10,10,0,0,0,13.32,3.32c24.93-14,59.85-4.18,72.75,22.51C482.35,200.83,469,211.22,450.16,225.65Z"/></g></g></svg>