<?xml version="1.0" encoding="utf-8"?><svg xmlns="http://www.w3.org/2000/svg" xmlns:xlink="http://www.w3.org/1999/xlink"><symbol viewBox="0 0 480.182 480.182" id="001-net_ucheta" xmlns="http://www.w3.org/2000/svg"><path d="M200.182 32.106c-92.784 0-168 75.216-168 168s75.216 168 168 168 168-75.216 168-168c-.101-92.742-75.258-167.899-168-168zm0 16a151.839 151.839 0 0 1 124.128 64.56l-20 20a31.571 31.571 0 0 0-16.128-4.56c-17.673 0-32 14.327-32 32a31.573 31.573 0 0 0 4.536 16.152l-52.384 52.384a31.025 31.025 0 0 0-32.304 0l-36.384-36.384a31.573 31.573 0 0 0 4.536-16.152c.022-17.638-14.258-31.954-31.896-31.976-14.587-.018-27.332 9.849-30.968 23.976h-29.68c15.147-69.947 76.976-119.895 148.544-120zm104 112c0 8.837-7.163 16-16 16s-16-7.163-16-16 7.163-16 16-16 16 7.163 16 16zm-96 96c0 8.837-7.163 16-16 16s-16-7.163-16-16 7.163-16 16-16 16 7.163 16 16zm-80-80c0 8.837-7.163 16-16 16s-16-7.163-16-16 7.163-16 16-16 16 7.163 16 16zm145.854 156.906a151.863 151.863 0 0 1-73.854 19.093c-83.89.057-151.943-67.902-152-151.792-.004-5.414.282-10.825.856-16.208h32.28c3.637 14.085 16.317 23.945 30.864 24a31.573 31.573 0 0 0 16.152-4.536l36.384 36.384a31.573 31.573 0 0 0-4.536 16.152c0 17.673 14.327 32 32 32s32-14.327 32-32a31.573 31.573 0 0 0-4.536-16.152l52.384-52.384a31.573 31.573 0 0 0 16.152 4.536c17.673 0 32-14.327 32-32a31.573 31.573 0 0 0-4.536-16.152l17.44-17.432c40.715 73.328 14.277 165.777-59.05 206.491z"/><path d="M400.182 80.106c14.547-.055 27.227-9.914 30.864-24h49.136v-16h-49.136c-3.637-14.086-16.317-23.945-30.864-24-17.673 0-32 14.327-32 32a31.573 31.573 0 0 0 4.536 16.152l-14.056 14.056C291.407-9.307 165.855-25.817 78.234 41.438S-25.897 234.246 41.358 321.867c63.484 82.707 179.855 102.77 267.368 46.095l24.144 24.144 11.312 11.312 64.4 64.4c16.379 16.379 42.933 16.379 59.312 0 16.379-16.379 16.379-42.933 0-59.312l-64.4-64.4-11.312-11.312-24.144-24.144c42.859-66.016 42.859-151.071 0-217.088l16-16a31.581 31.581 0 0 0 16.144 4.544zm0-48c8.837 0 16 7.163 16 16s-7.163 16-16 16-16-7.163-16-16 7.164-16 16-16zm56.4 387.712c10.246 10.016 10.433 26.442.417 36.688-10.016 10.246-26.442 10.433-36.688.417a23.421 23.421 0 0 1-.417-.417l-64.4-64.4 36.688-36.688 64.4 64.4zm-75.712-75.712l-36.688 36.688-22.144-22.144c1.128-.864 2.184-1.816 3.296-2.704s2.4-1.952 3.592-2.952c1.752-1.472 3.48-2.96 5.176-4.488.872-.8 1.704-1.6 2.56-2.4a205.802 205.802 0 0 0 9.528-9.528c.8-.856 1.6-1.688 2.4-2.56a198.055 198.055 0 0 0 4.488-5.176 154.965 154.965 0 0 0 2.952-3.592c.88-1.104 1.832-2.16 2.696-3.288l22.144 22.144zm-31.024-37.16c-2.52 3.52-5.12 6.968-7.864 10.288-.8.968-1.656 1.904-2.48 2.856a180.23 180.23 0 0 1-7.584 8.288 152.889 152.889 0 0 1-3.464 3.464 169.917 169.917 0 0 1-8.288 7.584c-.952.8-1.888 1.672-2.856 2.48-3.32 2.744-6.768 5.344-10.288 7.864-82.816 59.165-197.915 39.992-257.08-42.824S9.95 109.031 92.766 49.866 290.681 9.873 349.846 92.69c45.781 64.082 45.781 150.174 0 214.256z"/></symbol><symbol viewBox="0 0 64 64" id="002-pechat" xmlns="http://www.w3.org/2000/svg"><path d="M57.788 14.031H52.5V5.97a4 4 0 0 0-4-4h-33a4 4 0 0 0-4 4v8.062H6.212A6.22 6.22 0 0 0 0 20.243v26.27a6.22 6.22 0 0 0 6.212 6.213h2.38a1 1 0 1 0 0-2h-2.38A4.217 4.217 0 0 1 2 46.514v-26.27a4.217 4.217 0 0 1 4.212-4.213h51.576A4.217 4.217 0 0 1 62 20.243v26.27a4.217 4.217 0 0 1-4.212 4.213H56a1 1 0 1 0 0 2h1.788A6.22 6.22 0 0 0 64 46.514v-26.27a6.22 6.22 0 0 0-6.212-6.213zM13.5 5.97c0-1.103.897-2 2-2h33c1.103 0 2 .897 2 2v8h-37v-8z"/><path d="M44 45.032H20a.999.999 0 1 0 0 1.998h24a.999.999 0 1 0 0-1.998zm0 7H20a.999.999 0 1 0 0 1.998h24a.999.999 0 1 0 0-1.998z"/><circle cx="7.959" cy="21.841" r="2"/><circle cx="14.286" cy="21.841" r="2"/><circle cx="20.612" cy="21.841" r="2"/><path d="M11 62.031h42v-26H11v26zm2.404-23.596h37.192v21.193H13.404V38.435z"/></symbol><symbol viewBox="0 0 339.076 339.076" id="003-net_vremeni" xmlns="http://www.w3.org/2000/svg"><path d="M247.871 0H91.204v51.776h156.667V0zm-15 36.776H106.204V15h126.667v21.776zm81.715 291.693L177.038 190.921v-86.635h-15v71.635l-72.006-72.006c22.293-18.621 50.226-28.797 79.506-28.797 68.466 0 124.167 55.701 124.167 124.167 0 26.215-8.069 51.277-23.335 72.476l12.172 8.766c17.116-23.768 26.163-51.86 26.163-81.242 0-76.737-62.43-139.167-139.167-139.167-33.274 0-64.996 11.723-90.151 33.152L35.096 48.979 24.49 59.586l230.131 230.13c-23.092 21.808-53.012 33.736-85.082 33.736-68.466 0-124.167-55.701-124.167-124.167 0-9.579 1.094-19.12 3.251-28.356 3.87-16.571 11.002-31.928 21.199-45.645l-12.038-8.949c-11.431 15.377-19.428 32.597-23.768 51.183a139.861 139.861 0 0 0-3.644 31.767c0 76.737 62.43 139.167 139.167 139.167 35.544 0 69.962-13.811 95.685-38.133l38.757 38.757 10.605-10.607z"/></symbol><symbol viewBox="0 0 612.445 612.445" id="004-Oshibki" xmlns="http://www.w3.org/2000/svg"><path d="M522.642 89.804C464.9 32.062 388.011 0 306.223 0S147.545 32.062 89.804 89.804c-119.416 119.416-119.416 313.422 0 432.838 57.741 57.741 134.631 89.804 216.419 89.804s158.678-32.062 216.419-89.804c119.416-119.417 119.416-313.422 0-432.838zm-20.855 411.983c-52.101 52.101-121.791 80.972-195.564 80.972s-143.463-28.871-195.564-80.972-80.972-121.792-80.972-195.564 28.871-143.463 80.972-195.564 121.866-80.972 195.564-80.972 143.463 28.871 195.564 80.972 80.972 121.866 80.972 195.564-28.872 143.463-80.972 195.564zM399.218 234.899l-74.515 74.515 74.515 74.515c5.641 5.641 5.641 15.215 0 20.855-3.191 3.191-6.383 4.008-10.391 4.008s-7.199-1.633-10.39-4.008l-74.589-74.515-74.589 74.515c-3.191 3.191-6.383 4.008-10.39 4.008s-7.199-1.633-10.39-4.008c-5.641-5.641-5.641-15.215 0-20.855l74.515-74.515-74.515-74.515c-5.641-5.641-5.641-15.215 0-20.855 5.641-5.641 15.215-5.641 20.855 0l74.515 74.515 74.515-74.515c5.641-5.641 15.215-5.641 20.855 0 5.639 5.641 5.639 14.398-.001 20.855z"/></symbol><symbol viewBox="0 0 480 480" id="005-Vse_na_bumage" xmlns="http://www.w3.org/2000/svg"><path d="M368 0H8a8 8 0 0 0-8 8v464a8 8 0 0 0 8 8h360a8 8 0 0 0 8-8V8a8 8 0 0 0-8-8zm-8 464H16V16h344v448z"/><path d="M64 48h280v16H64zM32 80h312v16H32zm0 32h312v16H32zm0 32h312v16H32zm0 32h312v16H32zm0 32h312v16H32zm0 32h312v16H32zm56 72h256v16H88zm-56 32h312v16H32zm0 32h312v16H32zm160 48h152v16H192zM472 80h-24V64a8 8 0 0 0-8-8h-32a8 8 0 0 0-8 8v280c.197.628.278 1.287.24 1.944l16 64a8 8 0 0 0 15.52 0l16-64A5.446 5.446 0 0 1 448 344V203.312l18.344 18.344A8 8 0 0 0 480 216V88a8 8 0 0 0-8-8zm-48 295.016L418.248 352h11.504L424 375.016zM432 336h-16v-88h16v88zm0-104h-16V96h16v136zm0-152h-16v-8h16v8zm32 116.688L459.312 192l4.688-4.688v9.376zm0-32l-16 16V96h16v68.688z"/></symbol><symbol viewBox="0 0 508 508" id="007-Padayut_prodazi" xmlns="http://www.w3.org/2000/svg"><path d="M450.6 166.8v29.3l-98.3-98.3-81.9 82L95.9 5.3 84.3 16.9l186.1 186 81.9-81.9 86.8 86.7h-29.4v16.4H467v-57.3z"/><path d="M491.6 486.3V371.6h-81.9v114.7h-16.4V240.5h-81.9v245.8H295V289.7h-82v196.6h-16.4V175h-81.9v311.4H98.3V125.8H16.4v360.5H0v16.4h508v-16.4h-16.4zm-409.6 0H32.8V142.2H82v344.1zm98.3 0h-49.2v-295h49.2v295zm98.3.1h-49.2V306.1h49.2v180.3zm98.3-.1h-49.2V256.9h49.2v229.4zm98.4 0h-49.2V388h49.2v98.3z"/></symbol><symbol viewBox="0 0 512 512" id="008-kto_vashi_klient" xmlns="http://www.w3.org/2000/svg"><path d="M433.581 203.525V55.304c0-16.492-7.274-31.994-19.958-42.532C400.939 2.233 384.366-2.072 368.153.945c-.198.037-.396.08-.592.13-.838.209-84.121 20.944-111.562 20.944-27.429 0-110.723-20.735-111.56-20.944a9.211 9.211 0 0 0-.593-.13c-16.211-3.022-32.784 1.288-45.469 11.826-12.684 10.539-19.959 26.04-19.959 42.534v148.221C27.35 219.502.406 241.244.406 266.628c0 25.463 27.307 47.393 78.971 63.417 47.319 14.677 110.045 22.76 176.623 22.76s129.305-8.083 176.624-22.76c51.663-16.024 78.971-37.953 78.971-63.417-.001-25.384-26.946-47.126-78.014-63.103zm-335.162-50.71c43.544 10.403 96.943 16.082 152.086 16.082 33.432 0 65.89-2.024 96.472-6.016 5.476-.715 9.336-5.734 8.621-11.21-.715-5.477-5.734-9.346-11.21-8.622-29.727 3.88-61.314 5.848-93.883 5.848-55.636 0-109.261-5.903-152.086-16.676V55.304a35.194 35.194 0 0 1 12.739-27.15 35.182 35.182 0 0 1 28.745-7.598C146.48 22.193 226.734 42.019 256 42.019c29.265 0 109.519-19.825 116.096-21.463a35.187 35.187 0 0 1 28.745 7.598 35.192 35.192 0 0 1 12.739 27.149V165.35c-44.493 12.667-102.017 19.613-163.076 19.613-55.639 0-109.264-5.903-152.086-16.675v-15.473zm-.001 58.133v-22.063c43.539 10.402 96.941 16.079 152.086 16.079 60.387 0 117.649-6.658 163.076-18.857v15.519c-43.5 11.473-98.862 17.781-156.375 17.781-32.576 0-64.164-1.968-93.883-5.848-5.478-.725-10.495 3.145-11.21 8.621-.715 5.477 3.145 10.496 8.621 11.211 30.574 3.991 63.032 6.016 96.472 6.016 56.97 0 112.077-6.06 156.375-17.129v12.669c-44.49 12.665-102.019 19.605-163.076 19.605-55.638 0-109.265-5.898-152.086-16.671v-26.933zm328.281 99.994C381.245 325.041 320.623 332.804 256 332.804s-125.245-7.764-170.698-21.862c-40.028-12.416-64.896-29.396-64.896-44.313 0-14.169 21.897-29.858 58.013-42.072v21.041c0 1.973.578 3.838 1.592 5.413a9.995 9.995 0 0 0 5.775 4.235c28.51 7.781 62.053 13.378 97.996 16.481a752.87 752.87 0 0 0 32.926 2.111c11.144.474 22.433.715 33.796.715 66.279 0 128.792-8.02 176.022-22.583a10 10 0 0 0 7.054-9.556v-17.856c36.116 12.214 58.014 27.903 58.014 42.072-.001 14.916-24.867 31.896-64.895 44.312z"/><path d="M395.089 144.457a10.384 10.384 0 0 0-.569-1.88 10.122 10.122 0 0 0-.921-1.721 9.51 9.51 0 0 0-1.239-1.52c-.46-.46-.971-.88-1.521-1.24a9.964 9.964 0 0 0-1.729-.92 9.412 9.412 0 0 0-1.87-.57c-3.25-.659-6.7.41-9.02 2.73-.46.46-.88.97-1.239 1.52-.36.54-.67 1.12-.92 1.721a10.42 10.42 0 0 0-.58 1.88c-.131.64-.19 1.3-.19 1.95 0 .649.06 1.309.19 1.949.13.64.33 1.27.58 1.87.25.61.56 1.19.92 1.73.359.55.779 1.059 1.239 1.52.46.46.971.88 1.52 1.25.54.351 1.12.66 1.72.91.61.25 1.24.441 1.88.57.641.13 1.3.2 1.95.2s1.31-.07 1.95-.2c.64-.13 1.27-.32 1.87-.57.609-.25 1.189-.559 1.729-.91.55-.37 1.06-.79 1.521-1.25.46-.46.88-.97 1.239-1.52a10.096 10.096 0 0 0 1.49-3.6c.13-.64.2-1.3.2-1.949 0-.65-.07-1.311-.2-1.95zm-262.859 70.51c-.133-.64-.322-1.27-.572-1.87a10.01 10.01 0 0 0-.92-1.73c-.37-.551-.79-1.061-1.25-1.52-.46-.46-.97-.88-1.521-1.24a9.544 9.544 0 0 0-1.72-.92 9.806 9.806 0 0 0-1.87-.569 9.86 9.86 0 0 0-3.91 0c-.64.12-1.27.319-1.87.569a9.327 9.327 0 0 0-1.729.92c-.55.36-1.06.78-1.521 1.24-.46.46-.88.97-1.239 1.52a10.122 10.122 0 0 0-1.69 5.55c0 2.63 1.07 5.21 2.93 7.07.461.46.971.88 1.521 1.239.54.36 1.12.67 1.729.92.601.25 1.231.45 1.87.57.641.13 1.301.2 1.95.2.65 0 1.311-.07 1.95-.2a9.71 9.71 0 0 0 1.88-.57c.6-.25 1.18-.56 1.72-.92a9.473 9.473 0 0 0 1.521-1.239 10.08 10.08 0 0 0 2.93-7.07c0-.65-.06-1.311-.189-1.95zm271.605 165.032h-295.67c-23.986 0-43.5 19.514-43.5 43.5V466.5c0 25.089 20.411 45.5 45.5 45.5h64.81c40.193 0 72.893-32.699 72.893-72.893v-39.108h16.267v39.108c0 40.193 32.698 72.893 72.892 72.893h64.811c25.089 0 45.501-20.411 45.501-45.5v-43.001c-.003-23.986-19.518-43.5-43.504-43.5zM174.974 492h-64.81c-14.061 0-25.5-11.439-25.5-25.5v-43.001c0-12.958 10.542-23.5 23.5-23.5h119.701v39.108h.001c0 29.165-23.727 52.893-52.892 52.893zm226.861 0h-64.811c-29.164 0-52.892-23.728-52.892-52.893v-39.108h119.701c12.958 0 23.5 10.542 23.5 23.5V466.5h.001c.002 14.061-11.438 25.5-25.499 25.5z"/><path d="M145.684 410.211c-3.904-3.904-10.235-3.904-14.141 0l-32.334 32.334c-3.905 3.905-3.904 10.237.001 14.143a9.97 9.97 0 0 0 7.07 2.929c2.56 0 5.119-.977 7.071-2.929l32.334-32.334c3.905-3.905 3.904-10.237-.001-14.143zm202.387 0c-3.904-3.904-10.236-3.904-14.142 0l-32.333 32.334c-3.905 3.905-3.905 10.237 0 14.143 1.953 1.952 4.512 2.929 7.071 2.929s5.118-.977 7.071-2.929l32.333-32.334c3.905-3.905 3.905-10.237 0-14.143z"/></symbol><symbol viewBox="0 0 344.96 344.96" id="check" xmlns="http://www.w3.org/2000/svg"><defs><style>.hcls-1{fill:#e75713}</style></defs><g id="hСлой_2" data-name="Слой 2"><path class="hcls-1" d="M321.85 86.24l-40-23.11-23.1-40H212.5L172.48 0l-40 23.11H86.24l-23.11 40-40 23.1v46.21L0 172.48l23.11 40v46.21l40 23.11 23.11 40h46.21l40 23.1 40-23.11h46.21l23.11-40 40-23.11V212.5l23.11-40-23.11-40V86.24zM156.91 243.07a16.79 16.79 0 0 1-23.34 0l-50.45-50.44a16.19 16.19 0 0 1 0-22.89l13.35-13.35a16.19 16.19 0 0 1 22.89 0l25.87 25.87 80.34-80.35a16.19 16.19 0 0 1 22.89 0l13.35 13.35a16.19 16.19 0 0 1 0 22.89z" id="hCapa_1" data-name="Capa 1"/></g></symbol><symbol viewBox="0 0 491.35 512" id="light-bulb" xmlns="http://www.w3.org/2000/svg"><defs><style>.icls-1{fill:#fff}</style></defs><g id="iСлой_2" data-name="Слой 2"><g id="iCapa_1" data-name="Capa 1"><path id="i_Составной_контур_" data-name="&lt;Составной контур>" class="icls-1" d="M304 447.42v15a23.73 23.73 0 0 1-20.12 23.49l-3.69 13.59A16.91 16.91 0 0 1 263.9 512h-36.56A16.91 16.91 0 0 1 211 499.46l-3.58-13.59a23.83 23.83 0 0 1-20.23-23.6v-15a14.39 14.39 0 0 1 14.43-14.43h88A14.55 14.55 0 0 1 304 447.42zm67.74-201.64a125.5 125.5 0 0 1-35.4 87.55 115.67 115.67 0 0 0-31 62.79 20.85 20.85 0 0 1-20.65 17.59h-78.2a20.65 20.65 0 0 1-20.54-17.49 117 117 0 0 0-31.18-63 126.12 126.12 0 1 1 217-87.44zM259.9 169.4a14.23 14.23 0 0 0-14.22-14.22 91.11 91.11 0 0 0-91 91 14.22 14.22 0 0 0 28.44 0 62.65 62.65 0 0 1 62.58-62.58 14.16 14.16 0 0 0 14.2-14.2zm-14.22-91.13a14.23 14.23 0 0 0 14.22-14.22V14.22a14.22 14.22 0 0 0-28.44 0v49.83a14.23 14.23 0 0 0 14.22 14.22zM78.27 245.68a14.23 14.23 0 0 0-14.22-14.22H14.22a14.22 14.22 0 0 0 0 28.44h49.83a14.16 14.16 0 0 0 14.22-14.22zm398.85-14.22H427.3a14.22 14.22 0 0 0 0 28.44h49.83a14.22 14.22 0 1 0 0-28.44zM107.25 364.09L72 399.38a14.19 14.19 0 0 0 20 20.12l35.29-35.29a14.19 14.19 0 0 0-20-20.12zM374.1 131.48a14.2 14.2 0 0 0 10-4.11l35.3-35.29A14.23 14.23 0 1 0 399.28 72L364 107.25a14.18 14.18 0 0 0 0 20.12 14.45 14.45 0 0 0 10.1 4.11zm-266.85-4.21a14.19 14.19 0 0 0 20-20.12L92 71.85A14.23 14.23 0 1 0 71.85 92zm276.86 236.82A14.23 14.23 0 0 0 364 384.21l35.29 35.29a14.19 14.19 0 0 0 20-20.12z"/></g></g></symbol><symbol viewBox="0 0 454.09 388.31" id="logo" xmlns="http://www.w3.org/2000/svg"><path d="M238.61 353v-35.22l6.94-.51c36.56-2.69 79.1-18.43 99.33-36.77 21.58-19.56 36.11-50.87 37.54-80.86l.42-8.81h-69.35l.24-6c.13-3.3 0-6-.4-6s-.51-1.33-.36-3 .13-2.8-.06-2.61c-.41.41-3.21-12-3.34-14.81-.05-1.09-.4-1.8-.77-1.57s-.49-.31-.26-1.2.14-1.44-.38-1.13-.65-.09-.38-1.12.18-1.47-.12-1.28c-.8.5-2.5-4.68-1.87-5.7.32-.51.21-.67-.25-.38-.93.58-2.65-3.81-1.94-5 .3-.49.11-.55-.51-.17s-.86.27-.5-.67c.27-.71.21-1.11-.14-.9-.85.53-2.5-3.21-1.87-4.23.28-.45.17-.61-.23-.36-1 .61-3.47-3.74-2.8-4.91.3-.51.26-.68-.08-.38-.85.77-4.32-4.5-3.67-5.56.32-.51.19-.65-.3-.34-1 .6-2.61-2-1.81-2.93.29-.33.13-.36-.36-.08-1 .58-2.73-2-1.89-2.86.29-.29.19-.42-.24-.29s-3.22-2.53-6.22-5.93C251.51 75.83 200.07 62 154.61 76.91 123.4 87.18 96 111.3 82.34 140.61c-20.82 44.54-13.22 96.14 19.6 133.11a120.91 120.91 0 0 0 10.92 10.79c2.72 2.23 4.73 4.42 4.47 4.88s-.2.58.13.28c.77-.69 3.56.79 3.05 1.61-.21.35.2.58.92.52s1.21.34 1.1.89.08.82.42.61c.78-.48 4.84 2.1 4.24 2.7-.24.24.18.38.93.32s1.28.3 1.18.8.3.73 1.06.44 1.07-.2.63.52-.32.81.21.49c1-.62 5.63 2.06 4.87 2.82-.3.3.1.29.88 0 1.06-.41 1.26-.29.8.45s-.32.81.15.52c.95-.59 7.06 1.74 6.58 2.51-.19.31.07.54.58.53q3.85-.14 3.11 1.07c-.3.48-.21.66.2.41 1-.64 11.63 2.83 10.94 3.59-.31.34-.15.38.36.09 1.12-.64 6.32.23 5.86 1-.18.29.71.38 2 .19 1.75-.26 2.17-.11 1.72.63s-.3.78.19.48c1-.59 10 .28 9.62.92-.16.25 2.55.35 6 .22l6.31-.24v71.36h-5.62c-3.09 0-5.62-.29-5.62-.65s-.86-.48-1.92-.28c-3 .58-18.38-1.4-17.83-2.29.28-.45.1-.54-.42-.21-1.07.66-11.43-1.07-11-1.83.18-.29-.56-.36-1.64-.15s-1.78.08-1.5-.38-.3-.6-1.5-.38c-1.48.28-1.81.13-1.36-.6s.31-.79-.19-.49c-1.2.74-5.49-.32-4.94-1.21.28-.45.11-.55-.39-.24-1 .63-11.44-2.57-11-3.37.19-.3-.39-.35-1.28-.12s-1.44.13-1.13-.36.07-.77-.45-.75q-3.85.14-3.11-1.07c.31-.5.21-.66-.24-.38-1.15.71-5.54-1-5-1.94.3-.48.13-.57-.43-.23-1.13.7-16.75-6.93-16.16-7.89.23-.37-.16-.45-.87-.18-.94.36-1.12.23-.67-.5s.32-.81-.25-.46c-1.07.66-4.07-1.33-3.3-2.18.31-.34.14-.38-.37-.08-1 .56-6.49-2.75-5.77-3.47.23-.23-.19-.37-.94-.31s-1.27-.32-1.16-.88-.13-.78-.55-.53c-1 .62-5.35-2.64-4.76-3.59.27-.43.08-.51-.44-.19-1.12.69-3.24-1-2.58-2 .29-.46.12-.56-.42-.23-1.12.69-3.24-1-2.58-2 .27-.43.15-.57-.26-.32-1.05.65-4.12-1.66-3.51-2.65.29-.47.16-.6-.32-.31-2 1.24-21.33-18.36-31.71-32.15A195.57 195.57 0 0 1 2 222.15c-2.62-16.43-2.65-41.84-.07-59a196.38 196.38 0 0 1 38.51-89.24A241.44 241.44 0 0 1 69.11 44.4c15.07-12.66 37.38-25.62 55.77-32.4a195.25 195.25 0 0 1 136.78.79c27 10.43 53.62 28.54 72.6 49.44 3.15 3.47 5.81 6.91 5.92 7.65s.5 1.35.88 1.36a2.37 2.37 0 0 1 2.39 2.47c-.11.68.23 1.25.76 1.26 1.21 0 2.46 2 1.87 2.91-.24.39-.11.51.31.25.95-.58 4.21 3.75 3.59 4.76-.26.41 0 .66.53.55s.95.37.89 1.08.28 1.21.75 1.13.8.42.75 1.12.28 1.21.75 1.13.8.46.74 1.2.08 1.17.31.94c.72-.72 2.55 2.52 2 3.51-.3.51-.26.69.08.38.87-.79 2.82 2.24 2.17 3.37-.3.51-.26.68.08.37.85-.77 4.34 5.23 3.67 6.31q-.53.86.46.25c.73-.45.86-.27.5.67-.27.71-.2 1.1.17.88.85-.53 1.73 1.72 1.08 2.77-.27.44-.14.58.29.31 1-.59 3.44 5.26 2.72 6.42-.32.53-.15.6.49.2s.86-.27.5.67c-.27.71-.19 1.1.19.86.89-.55 1.81 2.32 1.1 3.46-.32.52-.21.67.27.37 1-.61 2 2.15 1.23 3.38-.32.51-.21.67.25.39 1-.62 5.8 14.07 5 15.33-.38.61-.24.71.42.3s.88-.12.6 1.36c-.21 1.08-.12 1.81.18 1.62.76-.47 1.68 4.7 1 5.77-.34.56-.19.64.45.25s.88-.12.6 1.36c-.23 1.19-.08 1.78.37 1.5s.61.44.4 1.86 0 2.13.37 1.88.58.67.4 2.24 0 2.49.38 2.25.55.74.38 2.25 0 2.49.36 2.26.56 1.08.41 3 0 3.22.36 3 .52 1.67.38 4.2 0 4.59.3 4.59.56 2.36.56 5.25v5.25h69.23l-.52 10.3A194.5 194.5 0 0 1 438.41 268c-12 28.59-33.59 57-55.91 73.46-34.75 25.65-88.94 44.6-132.82 46.44l-11.06.46zm-57.37-91.45c-26.29-5.61-48.58-28.09-53.95-54.41-1.35-6.64-1.56-20.69-.39-27.27a70.61 70.61 0 0 1 73.1-57.8 65.43 65.43 0 0 1 26.89 6.78A62.07 62.07 0 0 1 246 142.27c19.84 19.5 26.23 48.37 16.58 75-8.13 22.48-27.82 39.32-52 44.46-6.6 1.4-22.47 1.32-29.39-.15z" data-name="Слой 2"/></symbol><symbol viewBox="0 0 512 511.99" id="mnu-1" xmlns="http://www.w3.org/2000/svg"><defs><style>.kcls-1{fill:#00a8f0}</style></defs><g id="kСлой_2" data-name="Слой 2"><g id="kLayer_1" data-name="Layer 1"><path class="kcls-1" d="M69.45 371.09a12.3 12.3 0 0 0-17.39 0l-25.25 25.25a12.3 12.3 0 1 0 17.39 17.39l25.25-25.26a12.3 12.3 0 0 0 0-17.38zm35.73 35.72a12.3 12.3 0 0 0-17.39 0L3.6 491A12.3 12.3 0 1 0 21 508.39l84.18-84.19a12.3 12.3 0 0 0 0-17.39zm35.72 35.72a12.3 12.3 0 0 0-17.39 0l-42.09 42.1A12.3 12.3 0 1 0 98.81 502l42.09-42.09a12.3 12.3 0 0 0 0-17.38zM372.8 139.2a75.82 75.82 0 1 0 0 107.23 75.33 75.33 0 0 0 0-107.23zM355.41 229a51.23 51.23 0 1 1 0-72.45 50.89 50.89 0 0 1 0 72.45z"/><path class="kcls-1" d="M503.43 17.27a12.3 12.3 0 0 0-8.7-8.7A253.73 253.73 0 0 0 366 8c-6.57 1.7-13 3.69-19.44 5.91a12.35 12.35 0 0 0-1.63.57 252.62 252.62 0 0 0-93.83 59.18l-.21.2c-.11.11-.21.24-.32.35s-.21.21-.32.33l-37.66 43.83a221.43 221.43 0 0 0-193.87 110.3 12.3 12.3 0 0 0 7.6 18.08l68.35 17.4-13.37 36.32a49.33 49.33 0 0 0 11.38 51.77l67.08 67.08a49.3 49.3 0 0 0 51.78 11.38l36.32-13.37 17.4 68.35a12.3 12.3 0 0 0 18.08 7.6 221.43 221.43 0 0 0 110.21-193.83l43.83-37.66c.11-.1.21-.21.33-.31s.24-.21.36-.32l.2-.21a252.61 252.61 0 0 0 59.18-93.83 12.91 12.91 0 0 0 .57-1.64c2.22-6.39 4.21-12.87 5.91-19.44a253.76 253.76 0 0 0-.5-128.77zM48.86 227.11A196.83 196.83 0 0 1 190.57 144l-84 97.77zM104.37 309l11.44-31.08 15.86 15.86-24 38.37a24.68 24.68 0 0 1-3.3-23.15zm21 41.23l24.12-38.6 16.74 16.74-31.32 31.33zm26.89 26.89l31.36-31.36 16.74 16.74-38.6 24.12zM203 407.63a24.68 24.68 0 0 1-23.15-3.33l38.37-24 15.86 15.86zm108.39 33.26a198.18 198.18 0 0 1-26.53 22.26l-14.66-57.71 97.77-84a197.2 197.2 0 0 1-56.55 119.45zM420.93 243.5L257 384.32 127.68 255l99.48-115.78.28-.33 41.06-47.82a228.14 228.14 0 0 1 78.2-51L471.91 165.3a228.09 228.09 0 0 1-50.98 78.2zM480.37 139L373 31.63a229.15 229.15 0 0 1 108.39-1A229.16 229.16 0 0 1 480.37 139z"/></g></g></symbol><symbol viewBox="0 0 480 448" id="mnu-2" xmlns="http://www.w3.org/2000/svg"><g id="lСлой_2" data-name="Слой 2"><g id="lLayer_1" data-name="Layer 1"><path d="M456 216V40a40 40 0 0 0-40-40H64a40 40 0 0 0-40 40v120a24 24 0 0 0-24 24v240a24 24 0 0 0 24 24h176a24 24 0 0 0 24-24h67a24 24 0 0 0 23.15-30.31L298.47 336H344v88a24 24 0 0 0 24 24h88a24 24 0 0 0 24-24V240a24 24 0 0 0-24-24zM208 424a8 8 0 0 1-8 8H24a8 8 0 0 1-8-8v-16h192zm0-32H16V216h192zm0-192H16v-16a8 8 0 0 1 8-8h176a8 8 0 0 1 8 8zm90.77 197.9A8 8 0 0 1 291 408h-67v-16h73.16zM224 376v-40h57.89l10.91 40zm120-56H224v-48h120zm0-80v16H224v-72a24 24 0 0 0-24-24H40V40a24 24 0 0 1 24-24h352a24 24 0 0 1 24 24v176h-72a24 24 0 0 0-24 24zm120 184a8 8 0 0 1-8 8h-88a8 8 0 0 1-8-8v-16h104zm0-32H360V272h104zm0-136H360v-16a8 8 0 0 1 8-8h88a8 8 0 0 1 8 8z"/><path transform="rotate(-45 64.004 319.989)" d="M41.37 311.99h45.26v16H41.37z"/><path transform="rotate(-45 128 311.99)" d="M60.11 303.99h135.77v16H60.11z"/><path transform="rotate(-45 119.992 263.998)" d="M86.05 256h67.88v16H86.05z"/><path transform="rotate(-45 403.975 316.008)" d="M375.7 308.01h56.56v16H375.7z"/><path transform="rotate(-45 419.982 348.038)" d="M391.7 340.04h56.56v16H391.7z"/><path transform="rotate(-45 239.996 120)" d="M206.05 112h67.88v16h-67.88z"/><path transform="rotate(-45 311.988 104)" d="M278.05 96h67.88v16h-67.88z"/><path transform="rotate(-45 255.99 160.015)" d="M233.36 152.01h45.26v16h-45.26z"/><path transform="rotate(-45 295.988 64.068)" d="M273.3 56.06h45.37v16H273.3z"/><path d="M56 32h16v16H56zm32 0h16v16H88zm32 0h16v16h-16z"/></g></g><style>path{fill:#00a8f0}</style></symbol><symbol viewBox="0 0 512 512" id="mnu-3" xmlns="http://www.w3.org/2000/svg"><defs><style>.mcls-1{fill:#00a8f0}</style></defs><g id="mСлой_2" data-name="Слой 2"><g id="mCapa_1" data-name="Capa 1"><path class="mcls-1" d="M256 0C115 0 0 115.05 0 256a253.94 253.94 0 0 0 35.87 130L.76 492.29a15 15 0 0 0 19.1 18.9l105.2-36C165.46 499.29 210.58 512 256 512c141 0 256-115 256-256S397 0 256 0zm0 482c-42.06 0-83.93-12.44-121.08-36a15 15 0 0 0-12.92-1.49L38.72 473l27.82-84.21A15 15 0 0 0 65 376.08 224.15 224.15 0 0 1 30 256C30 131.38 131.38 30 256 30s226 101.38 226 226-101.38 226-226 226z"/><path class="mcls-1" d="M254.62 61A103.74 103.74 0 0 0 151 164.62a45 45 0 0 0 90 0A13.64 13.64 0 0 1 254.62 151 16.4 16.4 0 0 1 271 167.38v3.19a16.31 16.31 0 0 1-4.79 11.59L233 215.39a74.51 74.51 0 0 0-22 53V286a45 45 0 0 0 90 0v-11.36l28.84-28.84A105.68 105.68 0 0 0 361 170.57C361 104.45 310.13 61 254.62 61zm54 163.58l-33.24 33.24a15 15 0 0 0-4.38 10.6V286a15 15 0 0 1-30 0v-17.58a44.7 44.7 0 0 1 13.18-31.82l33.25-33.25A46.13 46.13 0 0 0 301 170.57v-3.19A46.43 46.43 0 0 0 254.62 121 43.67 43.67 0 0 0 211 164.62a15 15 0 0 1-30 0A73.71 73.71 0 0 1 254.62 91c39 0 76.38 30 76.38 79.57a75.88 75.88 0 0 1-22.37 54.01zM256 361a45 45 0 1 0 45 45 45.05 45.05 0 0 0-45-45zm0 60a15 15 0 1 1 15-15 15 15 0 0 1-15 15z"/></g></g></symbol><symbol viewBox="0 0 512 512" id="mnu-4" xmlns="http://www.w3.org/2000/svg"><defs><style>.ncls-1{fill:#00a8f0}</style></defs><g id="nСлой_2" data-name="Слой 2"><g id="nLayer_1" data-name="Layer 1"><path class="ncls-1" d="M477.6 128.06A255.89 255.89 0 0 0 8.83 189.77a255.89 255.89 0 0 0 180.94 313.4 257.27 257.27 0 0 0 66.65 8.83A256 256 0 0 0 477.6 128.06zm-.18 187.28a229.24 229.24 0 0 1-420 55.29 229.4 229.4 0 0 1 198.16-344 230.51 230.51 0 0 1 59.7 7.91 229.24 229.24 0 0 1 162.1 280.76z"/><path class="ncls-1" d="M378.78 231.85l-164.53-95A27.89 27.89 0 0 0 172.42 161v190a27.82 27.82 0 0 0 41.83 24.15l164.53-95a27.89 27.89 0 0 0 0-48.3zm-13.33 25.22l-164.53 95a1.24 1.24 0 0 1-1.85-1.07V161a1.11 1.11 0 0 1 .62-1.07 1.25 1.25 0 0 1 .63-.19 1.16 1.16 0 0 1 .6.19l164.53 95a1.24 1.24 0 0 1 0 2.14zm47.85-122.63A201 201 0 0 0 282.6 59a13.33 13.33 0 0 0-3.6 26.38 174.09 174.09 0 0 1 113.23 65.37 13.32 13.32 0 0 0 21.07-16.31z"/></g></g></symbol><symbol viewBox="0 0 426.67 512" id="mnu-5" xmlns="http://www.w3.org/2000/svg"><defs><style>.ocls-1{fill:#fff}</style></defs><g id="oСлой_2" data-name="Слой 2"><g id="oCapa_1" data-name="Capa 1"><path id="oYouTube" class="ocls-1" d="M360.9 374.51h-28.1l.13-16.32A13.25 13.25 0 0 1 346.16 345H348a13.27 13.27 0 0 1 13.27 13.19zm-105.39-35c-7.13 0-13 4.79-13 10.66v79.38c0 5.85 5.83 10.63 13 10.63s13-4.78 13-10.63v-79.36c-.01-5.87-5.85-10.65-13-10.65zm171.16-44.4v151c0 36.22-31.41 65.86-69.8 65.86H69.81C31.4 512 0 482.36 0 446.14v-151c0-36.22 31.4-65.87 69.81-65.87h287.05c38.4 0 69.81 29.64 69.81 65.86zM89 462.54V303.47h35.58v-23.56l-94.86-.14v23.17l29.61.09v159.51zm106.62-135.38H166v84.94c0 12.29.75 18.43 0 20.6-2.41 6.59-13.26 13.59-17.48.71-.72-2.25-.09-9.05-.1-20.72l-.12-85.53h-29.5l.09 84.18c0 12.9-.29 22.52.1 26.9.72 7.72.47 16.72 7.63 21.86 13.35 9.61 38.93-1.43 45.33-15.18l-.06 17.54h23.83v-135.3zm94.91 97.27l-.06-70.7c0-26.94-20.18-43.08-47.54-21.28l.12-52.56h-29.63l-.14 181.42 24.37-.35 2.22-11.3c31.13 28.62 50.71 9.04 50.66-25.23zm92.85-9.37l-22.24.12c0 .88 0 1.9-.06 3v12.42a12.14 12.14 0 0 1-12.16 12.05h-4.36a12.15 12.15 0 0 1-12.16-12.05V398h50.94v-19.22c0-14-.36-28-1.52-36-3.65-25.34-39.21-29.36-57.18-16.39a33.49 33.49 0 0 0-12.45 16.75q-3.79 10.93-3.78 29.89v42.15c.01 70.06 85.12 60.16 74.97-.12zM269.27 186.21a20.2 20.2 0 0 0 7.13 9c3.19 2.24 7.26 3.37 12.14 3.37a18.88 18.88 0 0 0 11.37-3.58 27.26 27.26 0 0 0 8.32-10.64l-.56 11.64h33.07V55.41h-26v109.45a10.84 10.84 0 0 1-21.68 0V55.41h-27.2v94.86c0 12.08.22 20.14.58 24.22a40.78 40.78 0 0 0 2.83 11.72zm-100.21-79.43q0-20.25 3.36-31.64a35.3 35.3 0 0 1 12.16-18.25Q193.34 50 207 50c7.65 0 14.21 1.5 19.68 4.44a32.79 32.79 0 0 1 12.69 11.54 45.52 45.52 0 0 1 6.12 14.64c1.11 5.07 1.66 12.71 1.66 23v35.57c0 13-.52 22.64-1.54 28.73a45.54 45.54 0 0 1-6.53 17.08 30.91 30.91 0 0 1-12.73 11.7 40.61 40.61 0 0 1-17.94 3.77c-7.54 0-13.89-1-19.12-3.21a26.24 26.24 0 0 1-12.2-9.75 43.29 43.29 0 0 1-6.21-15.77c-1.25-6.15-1.84-15.4-1.84-27.73v-37.23zM195 162.65c0 8 5.93 14.47 13.15 14.47s13.13-6.5 13.13-14.47V87.78c0-8-5.91-14.46-13.13-14.46S195 79.83 195 87.78zm-91.52 37.8h31.2V92.59L171.53.19h-34.12l-19.6 68.63L97.93 0H64.16l39.22 92.64z"/></g></g></symbol><symbol viewBox="0 0 512 375.87" id="prob-1" xmlns="http://www.w3.org/2000/svg"><g data-name="Слой 2"><g data-name="Layer 1"><path d="M451.72 169.19c-17.42-8.71-50.09-8.81-51.47-8.81a7.5 7.5 0 0 0 0 15c8.43 0 32.9 1.3 44.76 7.23a7.5 7.5 0 0 0 6.71-13.42z"/><path d="M489.11 276l-31-8.85a3.14 3.14 0 0 1-2.27-3v-10.37a56.37 56.37 0 0 0 7.17-5.88 55.17 55.17 0 0 0 16.91-39.9v-14.29l3-6a47.85 47.85 0 0 0 5-21.29v-38.63a7.5 7.5 0 0 0-7.5-7.5h-72.15a47.65 47.65 0 0 0-47.6 47.6v.45a39.78 39.78 0 0 0 4.18 17.7l3.84 7.68V206a58.52 58.52 0 0 0 24.06 47.32v10.84c0 1.67 0 2.36-6.19 4.13l-15.11 4.32-43.72-15.9a7.49 7.49 0 0 0-2-5.74l-14-14.68V211.6c1.48-1.22 2.93-2.47 4.34-3.79a88 88 0 0 0 27.73-64v-19.66a86.69 86.69 0 0 0 8-36.46V7.5a7.5 7.5 0 0 0-7.5-7.5H232a71.73 71.73 0 0 0-71.65 71.65v16a86.69 86.69 0 0 0 8 36.46v16.93A91.64 91.64 0 0 0 200.48 211v25.22l-14 14.68a7.49 7.49 0 0 0-2 5.74l-46.15 16.78a39.33 39.33 0 0 0-9.33 4.88l-7.25-3.62c21.57-9.39 28.4-22.59 28.73-23.25a7.5 7.5 0 0 0 0-6.71c-5.41-10.81-6.06-30.64-6.59-46.56-.18-5.3-.34-10.31-.66-14.77-2.56-36-29.9-63.1-63.62-63.1s-61.06 27.13-63.62 63.1c-.32 4.46-.48 9.47-.66 14.77-.53 15.92-1.18 35.74-6.59 46.56a7.5 7.5 0 0 0 0 6.71c.33.66 7.15 13.83 28.76 23.23l-20.06 10.07A31.39 31.39 0 0 0 0 313v55.41a7.5 7.5 0 0 0 15 0V313a16.47 16.47 0 0 1 9.15-14.81l25.06-12.53 8.72 8.29a31.54 31.54 0 0 0 43.48 0l8.72-8.28 8.17 4.09a39.49 39.49 0 0 0-6 20.94v57.73a7.5 7.5 0 0 0 15 0v-57.79a24.65 24.65 0 0 1 16.18-23.1l48.65-17.69 20.25 30.38a15.46 15.46 0 0 0 11.38 6.83q.78.08 1.55.08a15.46 15.46 0 0 0 11-4.55l12.36-12.36v78.12a7.5 7.5 0 0 0 15 0v-78.11l12.36 12.36a15.45 15.45 0 0 0 11 4.55q.77 0 1.55-.08a15.46 15.46 0 0 0 11.38-6.83l20.25-30.38 48.65 17.69a24.65 24.65 0 0 1 16.18 23.1v57.73a7.5 7.5 0 0 0 15 0v-57.74a39.65 39.65 0 0 0-11.09-27.44l1.85-.53a41.13 41.13 0 0 0 7-2.52l19.15 19.15v69.07a7.5 7.5 0 0 0 15 0V299.3l19-19a17.84 17.84 0 0 0 3.19 1.27l31 8.85a16.63 16.63 0 0 1 12 15.92v62a7.5 7.5 0 0 0 15 0v-62A31.7 31.7 0 0 0 489.11 276zm-441-13.25C34.09 257.68 27 251 24 247.28a82.67 82.67 0 0 0 4.27-18 55.93 55.93 0 0 0 19.8 24.42zm43 20.3a16.55 16.55 0 0 1-22.81 0l-7-6.63a15.52 15.52 0 0 0 1.82-7.32v-8a55.77 55.77 0 0 0 33.12 0v8a15.52 15.52 0 0 0 1.82 7.33zM79.68 248.6A40.66 40.66 0 0 1 39.06 208a7.45 7.45 0 0 0-8.73-7.39c0-.64 0-1.29.07-1.93.17-5.16.33-10 .63-14.21a55.68 55.68 0 0 1 15.16-35 46.6 46.6 0 0 1 67 0 55.68 55.68 0 0 1 15.16 35c.3 4.18.46 9 .63 14.2v1.34c-8.16-12.57-20.76-21.84-37-27.07a94.13 94.13 0 0 0-28.53-4.52 7.5 7.5 0 0 0-5.19 2.29l-13.53 14a7.5 7.5 0 0 0 10.8 10.41l11.26-11.68c9.7.47 40.89 4.1 53 30.82a40.52 40.52 0 0 1-40.11 34.34zm31.55 14.16v-8.95A55.48 55.48 0 0 0 131 229.36a82.57 82.57 0 0 0 4.27 17.92c-2.96 3.64-10.03 10.43-24.04 15.47zm72.17-121.68v-18.61a7.5 7.5 0 0 0-.75-3.26 71.94 71.94 0 0 1-7.27-31.52v-16A56.72 56.72 0 0 1 232 15h104.81v72.69a71.94 71.94 0 0 1-7.27 31.52 7.5 7.5 0 0 0-.75 3.26v21.35a72 72 0 0 1-23 53 74.64 74.64 0 0 1-5.76 4.88l-.13.09a72.11 72.11 0 0 1-48.67 14.52c-38.03-2.41-67.83-35.48-67.83-75.23zM225.63 292a.47.47 0 0 1-.42.15.48.48 0 0 1-.38-.23l-23.32-35L209 249l35.38 24.19zm30.47-29l-40.62-27.76v-14a84.45 84.45 0 0 0 34.79 10q3 .19 5.9.19a86.87 86.87 0 0 0 40.54-9.93v13.7zm31.26 28.86a.48.48 0 0 1-.38.23.46.46 0 0 1-.42-.15l-18.77-18.77L303.18 249l7.51 7.89zm137-6.33l-17-17a20.58 20.58 0 0 0 .46-4.45v-3.17a52.59 52.59 0 0 0 14.85 2.62h1.73a55.71 55.71 0 0 0 16.54-2.5v3a17.93 17.93 0 0 0 .54 4.37zm28.28-48.45a40.31 40.31 0 0 1-29.54 11.45c-21.7-.65-39.36-19.77-39.36-42.61v-14a7.49 7.49 0 0 0-.79-3.35l-4.63-9.27a24.71 24.71 0 0 1-2.59-11v-.45a32.63 32.63 0 0 1 32.6-32.6H473v31.15a32.77 32.77 0 0 1-3.5 14.6l-3.79 7.57a7.5 7.5 0 0 0-.79 3.35v16a40.29 40.29 0 0 1-12.33 29.21z"/><path d="M472.42 312.75a7.5 7.5 0 0 0-7.5 7.5v48.11a7.5 7.5 0 0 0 15 0v-48.11a7.5 7.5 0 0 0-7.5-7.5zm-432.84 9.91a7.5 7.5 0 0 0-7.5 7.5v38.2a7.5 7.5 0 0 0 15 0v-38.2a7.5 7.5 0 0 0-7.5-7.5zM317.53 90.41C289.17 62 229.82 67.47 205.62 71.11a15.4 15.4 0 0 0-13.15 15.34v17.28a7.5 7.5 0 0 0 15 0V86.45a.5.5 0 0 1 .39-.51c9.67-1.46 28.85-3.71 48.73-2.38C280 85.12 296.91 91 306.93 101a7.5 7.5 0 1 0 10.61-10.61zM167.88 328.79a7.5 7.5 0 0 0-7.5 7.5v32.08a7.5 7.5 0 0 0 15 0v-32.08a7.5 7.5 0 0 0-7.5-7.5zm176.43 0a7.5 7.5 0 0 0-7.5 7.5v32.08a7.5 7.5 0 0 0 15 0v-32.08a7.5 7.5 0 0 0-7.5-7.5z"/></g></g></symbol></svg>