<?xml version="1.0" encoding="utf-8"?><svg xmlns="http://www.w3.org/2000/svg" xmlns:xlink="http://www.w3.org/1999/xlink"><symbol viewBox="0 0 344.96 344.96" id="check" xmlns="http://www.w3.org/2000/svg"><defs><style>.acls-1{fill:#e75713}</style></defs><g id="aСлой_2" data-name="Слой 2"><path class="acls-1" d="M321.85 86.24l-40-23.11-23.1-40H212.5L172.48 0l-40 23.11H86.24l-23.11 40-40 23.1v46.21L0 172.48l23.11 40v46.21l40 23.11 23.11 40h46.21l40 23.1 40-23.11h46.21l23.11-40 40-23.11V212.5l23.11-40-23.11-40V86.24zM156.91 243.07a16.79 16.79 0 0 1-23.34 0l-50.45-50.44a16.19 16.19 0 0 1 0-22.89l13.35-13.35a16.19 16.19 0 0 1 22.89 0l25.87 25.87 80.34-80.35a16.19 16.19 0 0 1 22.89 0l13.35 13.35a16.19 16.19 0 0 1 0 22.89z" id="aCapa_1" data-name="Capa 1"/></g></symbol><symbol viewBox="0 0 454.09 388.31" id="logo" xmlns="http://www.w3.org/2000/svg"><path d="M238.61 353v-35.22l6.94-.51c36.56-2.69 79.1-18.43 99.33-36.77 21.58-19.56 36.11-50.87 37.54-80.86l.42-8.81h-69.35l.24-6c.13-3.3 0-6-.4-6s-.51-1.33-.36-3 .13-2.8-.06-2.61c-.41.41-3.21-12-3.34-14.81-.05-1.09-.4-1.8-.77-1.57s-.49-.31-.26-1.2.14-1.44-.38-1.13-.65-.09-.38-1.12.18-1.47-.12-1.28c-.8.5-2.5-4.68-1.87-5.7.32-.51.21-.67-.25-.38-.93.58-2.65-3.81-1.94-5 .3-.49.11-.55-.51-.17s-.86.27-.5-.67c.27-.71.21-1.11-.14-.9-.85.53-2.5-3.21-1.87-4.23.28-.45.17-.61-.23-.36-1 .61-3.47-3.74-2.8-4.91.3-.51.26-.68-.08-.38-.85.77-4.32-4.5-3.67-5.56.32-.51.19-.65-.3-.34-1 .6-2.61-2-1.81-2.93.29-.33.13-.36-.36-.08-1 .58-2.73-2-1.89-2.86.29-.29.19-.42-.24-.29s-3.22-2.53-6.22-5.93C251.51 75.83 200.07 62 154.61 76.91 123.4 87.18 96 111.3 82.34 140.61c-20.82 44.54-13.22 96.14 19.6 133.11a120.91 120.91 0 0 0 10.92 10.79c2.72 2.23 4.73 4.42 4.47 4.88s-.2.58.13.28c.77-.69 3.56.79 3.05 1.61-.21.35.2.58.92.52s1.21.34 1.1.89.08.82.42.61c.78-.48 4.84 2.1 4.24 2.7-.24.24.18.38.93.32s1.28.3 1.18.8.3.73 1.06.44 1.07-.2.63.52-.32.81.21.49c1-.62 5.63 2.06 4.87 2.82-.3.3.1.29.88 0 1.06-.41 1.26-.29.8.45s-.32.81.15.52c.95-.59 7.06 1.74 6.58 2.51-.19.31.07.54.58.53q3.85-.14 3.11 1.07c-.3.48-.21.66.2.41 1-.64 11.63 2.83 10.94 3.59-.31.34-.15.38.36.09 1.12-.64 6.32.23 5.86 1-.18.29.71.38 2 .19 1.75-.26 2.17-.11 1.72.63s-.3.78.19.48c1-.59 10 .28 9.62.92-.16.25 2.55.35 6 .22l6.31-.24v71.36h-5.62c-3.09 0-5.62-.29-5.62-.65s-.86-.48-1.92-.28c-3 .58-18.38-1.4-17.83-2.29.28-.45.1-.54-.42-.21-1.07.66-11.43-1.07-11-1.83.18-.29-.56-.36-1.64-.15s-1.78.08-1.5-.38-.3-.6-1.5-.38c-1.48.28-1.81.13-1.36-.6s.31-.79-.19-.49c-1.2.74-5.49-.32-4.94-1.21.28-.45.11-.55-.39-.24-1 .63-11.44-2.57-11-3.37.19-.3-.39-.35-1.28-.12s-1.44.13-1.13-.36.07-.77-.45-.75q-3.85.14-3.11-1.07c.31-.5.21-.66-.24-.38-1.15.71-5.54-1-5-1.94.3-.48.13-.57-.43-.23-1.13.7-16.75-6.93-16.16-7.89.23-.37-.16-.45-.87-.18-.94.36-1.12.23-.67-.5s.32-.81-.25-.46c-1.07.66-4.07-1.33-3.3-2.18.31-.34.14-.38-.37-.08-1 .56-6.49-2.75-5.77-3.47.23-.23-.19-.37-.94-.31s-1.27-.32-1.16-.88-.13-.78-.55-.53c-1 .62-5.35-2.64-4.76-3.59.27-.43.08-.51-.44-.19-1.12.69-3.24-1-2.58-2 .29-.46.12-.56-.42-.23-1.12.69-3.24-1-2.58-2 .27-.43.15-.57-.26-.32-1.05.65-4.12-1.66-3.51-2.65.29-.47.16-.6-.32-.31-2 1.24-21.33-18.36-31.71-32.15A195.57 195.57 0 0 1 2 222.15c-2.62-16.43-2.65-41.84-.07-59a196.38 196.38 0 0 1 38.51-89.24A241.44 241.44 0 0 1 69.11 44.4c15.07-12.66 37.38-25.62 55.77-32.4a195.25 195.25 0 0 1 136.78.79c27 10.43 53.62 28.54 72.6 49.44 3.15 3.47 5.81 6.91 5.92 7.65s.5 1.35.88 1.36a2.37 2.37 0 0 1 2.39 2.47c-.11.68.23 1.25.76 1.26 1.21 0 2.46 2 1.87 2.91-.24.39-.11.51.31.25.95-.58 4.21 3.75 3.59 4.76-.26.41 0 .66.53.55s.95.37.89 1.08.28 1.21.75 1.13.8.42.75 1.12.28 1.21.75 1.13.8.46.74 1.2.08 1.17.31.94c.72-.72 2.55 2.52 2 3.51-.3.51-.26.69.08.38.87-.79 2.82 2.24 2.17 3.37-.3.51-.26.68.08.37.85-.77 4.34 5.23 3.67 6.31q-.53.86.46.25c.73-.45.86-.27.5.67-.27.71-.2 1.1.17.88.85-.53 1.73 1.72 1.08 2.77-.27.44-.14.58.29.31 1-.59 3.44 5.26 2.72 6.42-.32.53-.15.6.49.2s.86-.27.5.67c-.27.71-.19 1.1.19.86.89-.55 1.81 2.32 1.1 3.46-.32.52-.21.67.27.37 1-.61 2 2.15 1.23 3.38-.32.51-.21.67.25.39 1-.62 5.8 14.07 5 15.33-.38.61-.24.71.42.3s.88-.12.6 1.36c-.21 1.08-.12 1.81.18 1.62.76-.47 1.68 4.7 1 5.77-.34.56-.19.64.45.25s.88-.12.6 1.36c-.23 1.19-.08 1.78.37 1.5s.61.44.4 1.86 0 2.13.37 1.88.58.67.4 2.24 0 2.49.38 2.25.55.74.38 2.25 0 2.49.36 2.26.56 1.08.41 3 0 3.22.36 3 .52 1.67.38 4.2 0 4.59.3 4.59.56 2.36.56 5.25v5.25h69.23l-.52 10.3A194.5 194.5 0 0 1 438.41 268c-12 28.59-33.59 57-55.91 73.46-34.75 25.65-88.94 44.6-132.82 46.44l-11.06.46zm-57.37-91.45c-26.29-5.61-48.58-28.09-53.95-54.41-1.35-6.64-1.56-20.69-.39-27.27a70.61 70.61 0 0 1 73.1-57.8 65.43 65.43 0 0 1 26.89 6.78A62.07 62.07 0 0 1 246 142.27c19.84 19.5 26.23 48.37 16.58 75-8.13 22.48-27.82 39.32-52 44.46-6.6 1.4-22.47 1.32-29.39-.15z" data-name="Слой 2"/></symbol><symbol viewBox="0 0 512 375.87" id="prob-1" xmlns="http://www.w3.org/2000/svg"><g data-name="Слой 2"><g data-name="Layer 1"><path d="M451.72 169.19c-17.42-8.71-50.09-8.81-51.47-8.81a7.5 7.5 0 0 0 0 15c8.43 0 32.9 1.3 44.76 7.23a7.5 7.5 0 0 0 6.71-13.42z"/><path d="M489.11 276l-31-8.85a3.14 3.14 0 0 1-2.27-3v-10.37a56.37 56.37 0 0 0 7.17-5.88 55.17 55.17 0 0 0 16.91-39.9v-14.29l3-6a47.85 47.85 0 0 0 5-21.29v-38.63a7.5 7.5 0 0 0-7.5-7.5h-72.15a47.65 47.65 0 0 0-47.6 47.6v.45a39.78 39.78 0 0 0 4.18 17.7l3.84 7.68V206a58.52 58.52 0 0 0 24.06 47.32v10.84c0 1.67 0 2.36-6.19 4.13l-15.11 4.32-43.72-15.9a7.49 7.49 0 0 0-2-5.74l-14-14.68V211.6c1.48-1.22 2.93-2.47 4.34-3.79a88 88 0 0 0 27.73-64v-19.66a86.69 86.69 0 0 0 8-36.46V7.5a7.5 7.5 0 0 0-7.5-7.5H232a71.73 71.73 0 0 0-71.65 71.65v16a86.69 86.69 0 0 0 8 36.46v16.93A91.64 91.64 0 0 0 200.48 211v25.22l-14 14.68a7.49 7.49 0 0 0-2 5.74l-46.15 16.78a39.33 39.33 0 0 0-9.33 4.88l-7.25-3.62c21.57-9.39 28.4-22.59 28.73-23.25a7.5 7.5 0 0 0 0-6.71c-5.41-10.81-6.06-30.64-6.59-46.56-.18-5.3-.34-10.31-.66-14.77-2.56-36-29.9-63.1-63.62-63.1s-61.06 27.13-63.62 63.1c-.32 4.46-.48 9.47-.66 14.77-.53 15.92-1.18 35.74-6.59 46.56a7.5 7.5 0 0 0 0 6.71c.33.66 7.15 13.83 28.76 23.23l-20.06 10.07A31.39 31.39 0 0 0 0 313v55.41a7.5 7.5 0 0 0 15 0V313a16.47 16.47 0 0 1 9.15-14.81l25.06-12.53 8.72 8.29a31.54 31.54 0 0 0 43.48 0l8.72-8.28 8.17 4.09a39.49 39.49 0 0 0-6 20.94v57.73a7.5 7.5 0 0 0 15 0v-57.79a24.65 24.65 0 0 1 16.18-23.1l48.65-17.69 20.25 30.38a15.46 15.46 0 0 0 11.38 6.83q.78.08 1.55.08a15.46 15.46 0 0 0 11-4.55l12.36-12.36v78.12a7.5 7.5 0 0 0 15 0v-78.11l12.36 12.36a15.45 15.45 0 0 0 11 4.55q.77 0 1.55-.08a15.46 15.46 0 0 0 11.38-6.83l20.25-30.38 48.65 17.69a24.65 24.65 0 0 1 16.18 23.1v57.73a7.5 7.5 0 0 0 15 0v-57.74a39.65 39.65 0 0 0-11.09-27.44l1.85-.53a41.13 41.13 0 0 0 7-2.52l19.15 19.15v69.07a7.5 7.5 0 0 0 15 0V299.3l19-19a17.84 17.84 0 0 0 3.19 1.27l31 8.85a16.63 16.63 0 0 1 12 15.92v62a7.5 7.5 0 0 0 15 0v-62A31.7 31.7 0 0 0 489.11 276zm-441-13.25C34.09 257.68 27 251 24 247.28a82.67 82.67 0 0 0 4.27-18 55.93 55.93 0 0 0 19.8 24.42zm43 20.3a16.55 16.55 0 0 1-22.81 0l-7-6.63a15.52 15.52 0 0 0 1.82-7.32v-8a55.77 55.77 0 0 0 33.12 0v8a15.52 15.52 0 0 0 1.82 7.33zM79.68 248.6A40.66 40.66 0 0 1 39.06 208a7.45 7.45 0 0 0-8.73-7.39c0-.64 0-1.29.07-1.93.17-5.16.33-10 .63-14.21a55.68 55.68 0 0 1 15.16-35 46.6 46.6 0 0 1 67 0 55.68 55.68 0 0 1 15.16 35c.3 4.18.46 9 .63 14.2v1.34c-8.16-12.57-20.76-21.84-37-27.07a94.13 94.13 0 0 0-28.53-4.52 7.5 7.5 0 0 0-5.19 2.29l-13.53 14a7.5 7.5 0 0 0 10.8 10.41l11.26-11.68c9.7.47 40.89 4.1 53 30.82a40.52 40.52 0 0 1-40.11 34.34zm31.55 14.16v-8.95A55.48 55.48 0 0 0 131 229.36a82.57 82.57 0 0 0 4.27 17.92c-2.96 3.64-10.03 10.43-24.04 15.47zm72.17-121.68v-18.61a7.5 7.5 0 0 0-.75-3.26 71.94 71.94 0 0 1-7.27-31.52v-16A56.72 56.72 0 0 1 232 15h104.81v72.69a71.94 71.94 0 0 1-7.27 31.52 7.5 7.5 0 0 0-.75 3.26v21.35a72 72 0 0 1-23 53 74.64 74.64 0 0 1-5.76 4.88l-.13.09a72.11 72.11 0 0 1-48.67 14.52c-38.03-2.41-67.83-35.48-67.83-75.23zM225.63 292a.47.47 0 0 1-.42.15.48.48 0 0 1-.38-.23l-23.32-35L209 249l35.38 24.19zm30.47-29l-40.62-27.76v-14a84.45 84.45 0 0 0 34.79 10q3 .19 5.9.19a86.87 86.87 0 0 0 40.54-9.93v13.7zm31.26 28.86a.48.48 0 0 1-.38.23.46.46 0 0 1-.42-.15l-18.77-18.77L303.18 249l7.51 7.89zm137-6.33l-17-17a20.58 20.58 0 0 0 .46-4.45v-3.17a52.59 52.59 0 0 0 14.85 2.62h1.73a55.71 55.71 0 0 0 16.54-2.5v3a17.93 17.93 0 0 0 .54 4.37zm28.28-48.45a40.31 40.31 0 0 1-29.54 11.45c-21.7-.65-39.36-19.77-39.36-42.61v-14a7.49 7.49 0 0 0-.79-3.35l-4.63-9.27a24.71 24.71 0 0 1-2.59-11v-.45a32.63 32.63 0 0 1 32.6-32.6H473v31.15a32.77 32.77 0 0 1-3.5 14.6l-3.79 7.57a7.5 7.5 0 0 0-.79 3.35v16a40.29 40.29 0 0 1-12.33 29.21z"/><path d="M472.42 312.75a7.5 7.5 0 0 0-7.5 7.5v48.11a7.5 7.5 0 0 0 15 0v-48.11a7.5 7.5 0 0 0-7.5-7.5zm-432.84 9.91a7.5 7.5 0 0 0-7.5 7.5v38.2a7.5 7.5 0 0 0 15 0v-38.2a7.5 7.5 0 0 0-7.5-7.5zM317.53 90.41C289.17 62 229.82 67.47 205.62 71.11a15.4 15.4 0 0 0-13.15 15.34v17.28a7.5 7.5 0 0 0 15 0V86.45a.5.5 0 0 1 .39-.51c9.67-1.46 28.85-3.71 48.73-2.38C280 85.12 296.91 91 306.93 101a7.5 7.5 0 1 0 10.61-10.61zM167.88 328.79a7.5 7.5 0 0 0-7.5 7.5v32.08a7.5 7.5 0 0 0 15 0v-32.08a7.5 7.5 0 0 0-7.5-7.5zm176.43 0a7.5 7.5 0 0 0-7.5 7.5v32.08a7.5 7.5 0 0 0 15 0v-32.08a7.5 7.5 0 0 0-7.5-7.5z"/></g></g></symbol></svg>