<?xml version="1.0" encoding="utf-8"?><svg xmlns="http://www.w3.org/2000/svg" xmlns:xlink="http://www.w3.org/1999/xlink"><symbol viewBox="0 0 344.96 344.96" id="check" xmlns="http://www.w3.org/2000/svg"><defs><style>.acls-1{fill:#e75713}</style></defs><g id="aСлой_2" data-name="Слой 2"><path class="acls-1" d="M321.85 86.24l-40-23.11-23.1-40H212.5L172.48 0l-40 23.11H86.24l-23.11 40-40 23.1v46.21L0 172.48l23.11 40v46.21l40 23.11 23.11 40h46.21l40 23.1 40-23.11h46.21l23.11-40 40-23.11V212.5l23.11-40-23.11-40V86.24zM156.91 243.07a16.79 16.79 0 0 1-23.34 0l-50.45-50.44a16.19 16.19 0 0 1 0-22.89l13.35-13.35a16.19 16.19 0 0 1 22.89 0l25.87 25.87 80.34-80.35a16.19 16.19 0 0 1 22.89 0l13.35 13.35a16.19 16.19 0 0 1 0 22.89z" id="aCapa_1" data-name="Capa 1"/></g></symbol><symbol viewBox="0 0 62.07 61.87" id="service-1" xmlns="http://www.w3.org/2000/svg"><defs><style>.bcls-1{fill:#c49a6c}</style></defs><g id="bСлой_2" data-name="Слой 2"><g id="bСлой_1-2" data-name="Слой 1"><path class="bcls-1" d="M54.92 43.71a.91.91 0 0 0-1 .2l-10 10a.91.91 0 0 0 .64 1.56h10a.91.91 0 0 0 .91-.91v-10a.91.91 0 0 0-.55-.85zm-8.11 9.89l6.85-6.85v6.85z"/><path class="bcls-1" d="M61.51 29.1a.91.91 0 0 0-1 .2L57.79 32V13.48a.91.91 0 0 0-.91-.91h-7L52.42 10l2.45-2.45a2.78 2.78 0 0 0 0-3.93L52 .81a2.78 2.78 0 0 0-3.93 0l-2.41 2.45-3 3-6.34 6.34H8.08v-9a.91.91 0 0 0-.91-.91A7.17 7.17 0 0 0 0 9.81V48.5a.92.92 0 0 0 0 .2 6.9 6.9 0 0 0 6.9 6.38h27.84l-5.24 5.24a.91.91 0 0 0 .64 1.56h31a.91.91 0 0 0 .91-.91v-31a.91.91 0 0 0-.54-.87zM49.4 2.1a1 1 0 0 1 1.35 0l2.83 2.83a1 1 0 0 1 0 1.35l-1.8 1.81-4.19-4.18zm-3.1 3.1l4.18 4.18-1.67 1.67-4.18-4.18zm13.95 35h-1.68a.91.91 0 0 0 0 1.82h1.68v2.75h-1.68a.91.91 0 0 0 0 1.82h1.68v2.75h-1.68a.91.91 0 0 0 0 1.82h1.68v2.75h-1.68a.91.91 0 0 0 0 1.82h1.68v4.35H32.34l9.2-9.2a.91.91 0 0 0 0-1.29l-.13-.11a.91.91 0 0 0-1.16.11l-3.69 3.69H6.9a5.05 5.05 0 0 1-5.08-4.92v-1.2L2 47v-.37l.07-.18v-.05l.1-.22a5.36 5.36 0 0 1 3.73-2.92h1.03a.91.91 0 0 0 .91-.91v-6.71a.91.91 0 0 0-1.82 0v5.76a7.11 7.11 0 0 0-4.09 2l-.34.36V9.81a5.35 5.35 0 0 1 4.66-5.27V32a.91.91 0 0 0 1.82 0V14.39h26.47l-5 5a.91.91 0 0 0 1.29 1.29l6.59-6.59 6-6 4.18 4.18-.49.49L28.66 31.2 24.48 27l3.62-3.6a.91.91 0 0 0-1.29-1.29l-4.27 4.27-.06.07v.15l-1.78 5-1.21 3.43a.94.94 0 0 0 0 .14h-3a.91.91 0 1 0 0 1.82h25.02a.91.91 0 1 0 0-1.82h-18.1l5.56-2h.18l.07-.07 18.84-18.71H56v19.46l-13 13a.91.91 0 0 0 0 1.29l.07.06a.91.91 0 0 0 1.15 0l.07-.06 16-16zM27 32.11l-2.61.89-1.74-1.7.92-2.61z"/></g></g></symbol><symbol viewBox="0 0 60.71 60.71" id="service-2" xmlns="http://www.w3.org/2000/svg"><defs><style>.ccls-1{fill:#c49a6c}</style></defs><g id="cСлой_2" data-name="Слой 2"><g id="cСлой_1-2" data-name="Слой 1"><path class="ccls-1" d="M57.19 0H12.46a1 1 0 0 0 0 1.92h44.73a1.6 1.6 0 0 1 1.6 1.6v31h-5.43a1 1 0 1 0 0 1.92h5.43v9.27a1.6 1.6 0 0 1-.8 1.38 1 1 0 0 0 .48 1.79 1 1 0 0 0 .48-.13 3.53 3.53 0 0 0 1.76-3V3.51A3.52 3.52 0 0 0 57.19 0z"/><path class="ccls-1" d="M49.84 41.86a3.51 3.51 0 1 0 3.51-3.51 3.52 3.52 0 0 0-3.51 3.51zm3.51-1.6a1.6 1.6 0 1 1-1.6 1.6 1.6 1.6 0 0 1 1.61-1.6zm-32.26 7.99a1 1 0 0 0-1-1H3.51a1.6 1.6 0 0 1-1.6-1.6v-9.23h23.33a1 1 0 0 0 0-1.92H1.92v-31a1.6 1.6 0 0 1 1.6-1.6h5.11a1 1 0 0 0 0-1.9H3.51A3.52 3.52 0 0 0 0 3.51v42.18a3.52 3.52 0 0 0 3.51 3.51h16.62a1 1 0 0 0 .96-.95z"/><path class="ccls-1" d="M53.82 47.51L45.37 45v-3a8.63 8.63 0 0 0 4.82-6.48l1.06-6.93a2.77 2.77 0 0 0 1-4.54l-1.87-1.87-1.32-4a6.06 6.06 0 0 0-5.15-4.12 2.24 2.24 0 0 0-2-1.31h-5.17a2.24 2.24 0 0 0-2 1.31 6.06 6.06 0 0 0-5.15 4.12l-1.32 4-1.9 1.82a2.77 2.77 0 0 0 1 4.54l1.07 6.93A8.62 8.62 0 0 0 33.23 42v3l-8.45 2.54a6 6 0 0 0-4.33 5.81v5.14a2.24 2.24 0 0 0 2.24 2.24h23a1 1 0 0 0 0-1.92h-15v-2.9a1 1 0 1 0-1.92 0v2.88h-6.08a.32.32 0 0 1-.32-.32v-5.14a4.13 4.13 0 0 1 3-4l9-2.7h9.94l9 2.7a4.13 4.13 0 0 1 3 4v5.14a.32.32 0 0 1-.32.32h-6.15v-2.88a1 1 0 1 0-1.92 0v3.83a1 1 0 0 0 1 1h7a2.24 2.24 0 0 0 2.24-2.24v-5.17a6 6 0 0 0-4.34-5.82zM28.33 26.84a.85.85 0 0 1-.6-1.45l2-2A1 1 0 0 0 30 23l1.39-4.17a4.15 4.15 0 0 1 3.13-2.76v4.07a1 1 0 1 0 1.92 0V15a.32.32 0 0 1 .32-.32h5.11a.32.32 0 0 1 .32.32v5.11a1 1 0 1 0 1.92 0v-4.06a4.15 4.15 0 0 1 3.13 2.76L48.61 23a1 1 0 0 0 .23.37l2 2a.85.85 0 0 1-.6 1.45H28.33zm13.34 16a8.66 8.66 0 0 0 1.79-.19v2.1h-8.31v-2.1a8.66 8.66 0 0 0 1.79.19H38a1 1 0 1 0 0-1.92h-1.07a6.67 6.67 0 0 1-6.63-5.69l-1-6.45h20l-1 6.45a6.67 6.67 0 0 1-6.63 5.69 1 1 0 1 0 0 1.92zm-34.32-4.5a3.51 3.51 0 1 0 0 7h8.95a3.51 3.51 0 0 0 0-7zm10.54 3.51a1.6 1.6 0 0 1-1.6 1.6H7.35a1.6 1.6 0 1 1 0-3.19h8.95a1.6 1.6 0 0 1 1.59 1.6z"/><path class="ccls-1" d="M18.21 5.11H9.27a1.6 1.6 0 0 0-1.6 1.6v3.83a1.6 1.6 0 0 0 1.6 1.6h3.51v2.28l-4.23 2.12A1.59 1.59 0 0 0 7.67 18v.49a1.59 1.59 0 0 0 .88 1.43L12.78 22v2.28H9.27a1.6 1.6 0 0 0-1.6 1.6v3.83a1.6 1.6 0 0 0 1.6 1.6h8.95a1.6 1.6 0 0 0 1.6-1.6v-1h2.88a1 1 0 0 0 0-1.92h-2.89v-1a1.6 1.6 0 0 0-1.6-1.6H14.7V22l4.23-2.11a1.59 1.59 0 0 0 .88-1.43V18a1.59 1.59 0 0 0-.88-1.43l-4.23-2.15v-2.28h3.51a1.6 1.6 0 0 0 1.6-1.6v-1h31.31v9.27a1 1 0 1 0 1.92 0V8.63a1 1 0 0 0-1-1H19.81v-1a1.6 1.6 0 0 0-1.6-1.52zm-.32 21.09v3.19H9.58V26.2zm0-8v.09l-4.15 2.08-4.16-2.11v-.09l4.15-2.08zm0-7.94H9.58V7h8.31zm3.84 31.6a3.51 3.51 0 1 0 3.51-3.51 3.52 3.52 0 0 0-3.51 3.51zm5.11 0a1.6 1.6 0 1 1-1.6-1.6 1.6 1.6 0 0 1 1.6 1.6z"/></g></g></symbol><symbol viewBox="0 0 45.58 70" id="service-3" xmlns="http://www.w3.org/2000/svg"><defs><style>.dcls-1{fill:#c49a6c}</style></defs><g id="dСлой_2" data-name="Слой 2"><g id="dСлой_1-2" data-name="Слой 1"><path class="dcls-1" d="M19.72 36.29h-4.13a1.21 1.21 0 1 0 0 2.42h4.13a1.21 1.21 0 1 0 0-2.42z"/><path class="dcls-1" d="M44.37 3.51H26.55v-2.3A1.21 1.21 0 0 0 25 0L.9 6.48A1.21 1.21 0 0 0 0 7.64v3.9a1.21 1.21 0 1 0 2.41 0v-3l21.73-5.76v64.54L2.41 63V15.62a1.21 1.21 0 1 0-2.41 0V64a1.21 1.21 0 0 0 1 1.18L25.11 70h.24a1.21 1.21 0 0 0 1.21-1.21V66.5h11.12a1.21 1.21 0 1 0 0-2.42H26.55v-3.45h12a1.21 1.21 0 0 0 1.21-1.21V10.58a1.21 1.21 0 0 0-1.21-1.21h-12V5.92h16.61v58.16h-1.72a1.21 1.21 0 1 0 0 2.42h2.93a1.21 1.21 0 0 0 1.21-1.21V4.71a1.21 1.21 0 0 0-1.21-1.2zm-7.07 8.27v46.44H26.55V11.78z"/></g></g></symbol><symbol viewBox="0 0 58.33 54.72" id="service-4" xmlns="http://www.w3.org/2000/svg"><defs><style>.ecls-1{fill:#c49a6c}</style></defs><g id="eСлой_2" data-name="Слой 2"><g id="eСлой_1-2" data-name="Слой 1"><path class="ecls-1" d="M53.12 27.36c3.07-2 5.21-7.1 5.21-13.23C58.33 6.21 54.76 0 50.21 0H26.16v1.8h24.05c3.42 0 6.31 5.64 6.31 12.33a20.52 20.52 0 0 1-1.35 7.52h-32v1.8h31.12c-1.11 1.86-2.54 3-4.08 3H12.15A15.17 15.17 0 0 0 15.93 18H46.6v-1.8H16.15q.09-1 .09-2.1c0-5.36-1.63-9.93-4.09-12.33h11.6V0H8.12C3.57 0 0 6.21 0 14.13c0 6.13 2.13 11.23 5.21 13.23-3.08 2-5.21 7.1-5.21 13.23 0 7.92 3.57 14.13 8.12 14.13h29.46v-1.8H12.15c2.46-2.4 4.09-7 4.09-12.33a23.1 23.1 0 0 0-1-6.91H45.4v-1.8H14.55a11.59 11.59 0 0 0-2.4-3.61h38.06c3.42 0 6.31 5.65 6.31 12.33s-2.89 12.33-6.31 12.33H40v1.8h10.21c4.55 0 8.12-6.21 8.12-14.13 0-6.14-2.14-11.24-5.21-13.24zM14.43 40.59c0 6.68-2.89 12.33-6.31 12.33S1.8 47.27 1.8 40.59s2.9-12.33 6.32-12.33 6.31 5.65 6.31 12.33zM8.12 26.46c-3.42 0-6.31-5.64-6.31-12.33S4.7 1.8 8.12 1.8s6.31 5.64 6.31 12.33-2.89 12.33-6.31 12.33z"/><path class="ecls-1" d="M5.16 35.74a14.59 14.59 0 0 0-1 5.45H6c0-4.09 1.39-6.31 2.1-6.31v-1.8c-1.17-.01-2.22.92-2.94 2.66zm5.06 5.45c0 4.09-1.39 6.31-2.1 6.31v1.8c1.19 0 2.24-.95 3-2.67a14.61 14.61 0 0 0 1-5.45zm-6.01 1.8h1.8v2.41h-1.8zm6.01-6.01h1.8v2.41h-1.8zm36.98-5.11h2.4v1.8h-2.4zm-25.25 5.41h31.27v1.8H21.95zm3 4.81h18.64v1.8H24.95zm22.85 0h2.41v1.8H47.8zm-30.66 6.02h32.47v1.8H17.14zM5.16 9.28a14.59 14.59 0 0 0-1 5.45H6c0-4.09 1.39-6.31 2.1-6.31V6.61c-1.17 0-2.22.95-2.94 2.67zm5.06 5.45c0 4.09-1.39 6.31-2.1 6.31v1.8c1.19 0 2.24-.95 3-2.67a14.61 14.61 0 0 0 1-5.45zm-6.01 1.81h1.8v2.41h-1.8zm6.01-6.02h1.8v2.41h-1.8zm8.72 11.13h2.41v1.8h-2.41zm6.01-10.22h18.64v1.8H24.95zm-6.61 0h2.41v1.8h-2.41zm.6-6.02h32.47v1.8H18.94z"/></g></g></symbol><symbol viewBox="0 0 19.65 18.56" id="title-img" xmlns="http://www.w3.org/2000/svg"><defs><style>.fcls-1{fill:#c49a6c}</style></defs><g id="fСлой_2" data-name="Слой 2"><g id="fСлой_1-2" data-name="Слой 1"><path class="fcls-1" d="M12.93 15.67a.31.31 0 0 0-.31.31v2.27a.31.31 0 1 0 .63 0V16a.31.31 0 0 0-.32-.33zm-6.22 0a.31.31 0 0 0-.31.33v2.27a.31.31 0 0 0 .63 0V16a.31.31 0 0 0-.32-.33z"/><path class="fcls-1" d="M19.63 14.63l-3.29-9.87a.31.31 0 0 0-.59 0l-1 3-1.52-4.6a.31.31 0 0 0-.6 0l-.77 2.3L10.12.21a.31.31 0 0 0-.6 0L7.78 5.45 7 3.16a.31.31 0 0 0-.59 0L4.89 7.73l-1-3a.31.31 0 0 0-.6 0L0 14.63a.31.31 0 0 0 .3.41h3v3.21a.31.31 0 1 0 .63 0V15h5.58v3.21a.31.31 0 0 0 .63 0V15h5.59v3.21a.31.31 0 0 0 .63 0V15h3a.31.31 0 0 0 .3-.41zm-6.7-10.38l1.49 4.47-.73 2.2-1.49-4.48zm-6.22 0l.73 2.2L6 10.91l-.73-2.2zm-3.11 7.9a.31.31 0 0 0-.31.31v2H.75L3.6 5.85l2 6.06-.84 2.51h-.84v-2a.31.31 0 0 0-.32-.27zm6.53.55l1.62-1.7a.31.31 0 0 0-.46-.43l-1.15 1.24V9.32a.31.31 0 1 0-.63 0v2.43l-1.16-1.21a.31.31 0 0 0-.45.46l1.61 1.7v1.75H5.45L9.82 1.3l4.38 13.11h-4.06zm6.22 1.72v-2a.31.31 0 1 0-.63 0v2h-.87L14 11.9l2-6.06 2.86 8.56z"/></g></g></symbol></svg>