<svg xmlns="http://www.w3.org/2000/svg" viewBox="0 0 480 511.92"><title>calendar</title><g id="Слой_2" data-name="Слой 2"><g id="Слой_1-2" data-name="Слой 1"><path d="M480,64V511.92H0V64H64.06c0-14.66.4-28.79-.14-42.87C63.54,11.2,66.7,4,76,0h72c9.33,4,12.51,11.23,12.07,21.18-.55,12.47-.13,25-.13,37.49,0,1.74,0,3.48,0,5.13H320.06c0-14.38.41-28.52-.14-42.62C319.54,11.23,322.68,4,332,0h72c9.3,4,12.5,11.2,12.07,21.13-.55,12.62-.13,25.28-.13,37.92,0,1.58,0,3.17,0,5ZM32.11,479.73H447.72V160.27H32.11ZM96.28,32.12V95.71h31.44V32.12ZM383.74,95.88V32.27H352.26V95.88Z"/><path d="M223.82,192.44v63.11H160.36V192.44Z"/><path d="M256.44,192.18h63.11v63.47H256.44Z"/><path d="M352.29,255.66V192.34h63.29v63.33Z"/><path d="M127.81,288.45v63.1H64.36v-63.1Z"/><path d="M223.79,288.41v63.17H160.32V288.41Z"/><path d="M319.66,351.72H256.34V288.43h63.32Z"/><path d="M415.56,351.82H352.44V288.35h63.12Z"/><path d="M127.79,384.41v63.18H64.32V384.41Z"/><path d="M223.72,384.37v63.26H160.46V384.37Z"/><path d="M256.44,384.18h63.12v63.46H256.44Z"/></g></g>
<style>path{fill:#777c82}</style>
</svg>