<?xml version="1.0" encoding="utf-8"?><svg xmlns="http://www.w3.org/2000/svg" xmlns:xlink="http://www.w3.org/1999/xlink"><symbol viewBox="0 0 270 323.6" id="bell" xmlns="http://www.w3.org/2000/svg"><g data-name="Слой 2"><path d="M270 227.8v3a26.47 26.47 0 0 1-10.15 14.38c-4.93 3.66-9.9 7.44-15.34 10.21C213.91 271 180.72 276 147 277.31c-16.23.65-32.64-.39-48.84-2-23.06-2.29-45.75-7-66.85-17C18.41 252.2 5.39 245.69 0 230.8v-2a14.15 14.15 0 0 0 1.07-2.8 87.23 87.23 0 0 1 12.53-32.85c9.42-14.77 12.77-31.27 14.59-48.22 2-18.58 5.18-36.86 12-54.32 12.21-31.07 32.66-53.82 65.33-64 3-.93 3.51-2.63 4-5.3C112.09 9 121.83.38 133.3 0c13.15-.41 23.26 6.77 26.45 19.57 1 4.11 3.11 5.55 6.79 6.46 18.87 4.68 34.59 14.46 46.64 29.8 17.07 21.74 23.44 47.39 26.51 74.12 2.4 20.92 6.29 41.3 16.2 60.28 4.66 8.92 7.73 18.68 11.36 28.13 1.17 3.06 1.85 6.3 2.75 9.44zm-139.55 20.37c27-.08 49.17-2.59 70.75-8.44 11-3 21.48-7.78 32.16-11.88 4.11-1.58 5.38-4.3 3.27-8.58-2.87-5.81-5.19-11.88-8.1-17.67-6.15-12.25-11.22-24.88-13.56-38.42-2.77-16-4.89-32.18-7.77-48.19-2.49-13.87-7.3-27-15.64-38.5-11.57-16-27.94-23-47.07-24.52-27.89-2.27-50.8 6.55-66.8 30.34-13.25 19.69-17.42 42.15-19.95 65.13-2.37 21.47-6.74 42.36-18.65 60.93a66.08 66.08 0 0 0-4.25 7.91c-3.94 8.47-3.92 8.53 4.17 12.84a76.36 76.36 0 0 0 8.59 4c28.16 10.75 57.56 14.4 82.85 15.05zm-34.73 46.5c26.24 3.83 52.32 4.21 78.52.12-2.45 14.76-20.44 28.52-36.92 28.81-20.09.35-38.17-11.94-41.6-28.93z" data-name="Слой 1"/></g></symbol><symbol viewBox="0 0 13 10" id="check" xmlns="http://www.w3.org/2000/svg"><defs><style>.bcls-1{fill:#67686b;fill-rule:evenodd;filter:url(#bfilter)}</style><filter id="bfilter" x="911" y="20" width="13" height="10" filterUnits="userSpaceOnUse"><feFlood result="flood" flood-color="#27b975"/><feComposite result="composite" operator="in" in2="SourceGraphic"/><feBlend result="blend" in2="SourceGraphic"/></filter></defs><path id="bФигура_7_копия" data-name="Фигура 7 копия" class="bcls-1" d="M911.009 24.743l1.119-1.236 4.745 5.246-1.119 1.236zm5.073 5.246l-1.119-1.236 7.909-8.743 1.119 1.236z" transform="translate(-911 -20)"/></symbol><symbol viewBox="0 0 460.86 452" id="edit" xmlns="http://www.w3.org/2000/svg"><g data-name="Слой 2"><path d="M3.44 452c-1.12-2.4-3.1-4.76-3.21-7.21-.39-8.48-.18-17-.12-25.48 0-6.52 1-7.39 7.67-7.39h444.78c7.38 0 8.16.72 8.2 7.9 0 8.33.27 16.67-.13 25-.12 2.46-2.07 4.82-3.19 7.23zm325-452c13.91 2.57 26.17 8.38 36.34 18.37 13.12 12.89 21.57 27.91 20.61 46.9-.79 15.59-8.25 28.07-18.65 38.68L281.93 19c8.75-8.93 19.53-15.55 32.7-18 1.29-.24 2.54-.66 3.81-1zm7.87 132.62L168 301l-83.77-83.7L252.58 48.94zM54.08 247.78l84 84c-11.43 3.27-23.18 6.66-34.95 10-16.32 4.63-32.68 9.12-49 13.88-7.45 2.18-13.91.75-19.33-4.56s-6.8-11.89-4.66-19.3c7.57-26.55 15-53.14 22.52-79.7.44-1.57 1.02-3.1 1.42-4.32z" data-name="Слой 1"/></g></symbol><symbol viewBox="0 0 264 512" id="facebook-f" xmlns="http://www.w3.org/2000/svg"><path d="M76.7 512V283H0v-91h76.7v-71.7C76.7 42.4 124.3 0 193.8 0c33.3 0 61.9 2.5 70.2 3.6V85h-48.2c-37.8 0-45.1 18-45.1 44.3V192H256l-11.7 91h-73.6v229"/></symbol><symbol viewBox="0 0 448 512" id="instagram" xmlns="http://www.w3.org/2000/svg"><path d="M224.1 141c-63.6 0-114.9 51.3-114.9 114.9s51.3 114.9 114.9 114.9S339 319.5 339 255.9 287.7 141 224.1 141zm0 189.6c-41.1 0-74.7-33.5-74.7-74.7s33.5-74.7 74.7-74.7 74.7 33.5 74.7 74.7-33.6 74.7-74.7 74.7zm146.4-194.3c0 14.9-12 26.8-26.8 26.8-14.9 0-26.8-12-26.8-26.8s12-26.8 26.8-26.8 26.8 12 26.8 26.8zm76.1 27.2c-1.7-35.9-9.9-67.7-36.2-93.9-26.2-26.2-58-34.4-93.9-36.2-37-2.1-147.9-2.1-184.9 0-35.8 1.7-67.6 9.9-93.9 36.1s-34.4 58-36.2 93.9c-2.1 37-2.1 147.9 0 184.9 1.7 35.9 9.9 67.7 36.2 93.9s58 34.4 93.9 36.2c37 2.1 147.9 2.1 184.9 0 35.9-1.7 67.7-9.9 93.9-36.2 26.2-26.2 34.4-58 36.2-93.9 2.1-37 2.1-147.8 0-184.8zM398.8 388c-7.8 19.6-22.9 34.7-42.6 42.6-29.5 11.7-99.5 9-132.1 9s-102.7 2.6-132.1-9c-19.6-7.8-34.7-22.9-42.6-42.6-11.7-29.5-9-99.5-9-132.1s-2.6-102.7 9-132.1c7.8-19.6 22.9-34.7 42.6-42.6 29.5-11.7 99.5-9 132.1-9s102.7-2.6 132.1 9c19.6 7.8 34.7 22.9 42.6 42.6 11.7 29.5 9 99.5 9 132.1s2.7 102.7-9 132.1z"/></symbol><symbol viewBox="0 0 2827.79 340.93" id="logo" xmlns="http://www.w3.org/2000/svg"><g data-name="Слой 2"><path d="M0 301.93c.6-2 1.22-4.07 1.78-6.12 4.4-16 18.34-26.44 35.77-26.48 33.16-.07 66.33-.12 99.49.08 4.88 0 6.71-1.08 7.52-6.34 6.61-42.49 13.68-84.92 20.57-127.37 4.76-29.34 8.28-58.94 14.45-88 10.27-48.35 60.39-58.17 89-37.55 13.43 9.69 19.58 23.71 23.23 39.48 13.69 59.22 27.75 118.35 41.69 177.51.4 1.68 1.07 3.29 1.61 4.93l1.32.09a42.59 42.59 0 0 0 1.91-5.13c14.37-60.93 28.54-121.92 43.11-182.8 5.24-21.89 18.19-37.53 40.82-42.66 33.77-7.66 66.1 15.5 71.48 50 6.36 40.69 13.18 81.3 19.73 122 4.81 29.84 9.51 59.69 14.29 89.53.31 1.95.84 3.86 1.39 6.3 7.44 0 14.74-.09 22 0 15.57.24 28.53 9.07 33.84 22.91a35.21 35.21 0 0 1-26.83 47.44 17.37 17.37 0 0 0-3.17 1.24h-60a35 35 0 0 0-4.17-1.33c-9.77-1.86-17.31-6.83-21.61-15.94-2-4.19-4-8.55-4.83-13q-5-26.66-9.23-53.46c-7.4-46.39-14.64-92.81-22-139.22-.43-2.72-1.22-5.38-1.85-8.06L430 110c-.49 1.52-1.06 3-1.45 4.57-12.3 48.27-24.38 96.6-37 144.79-4.1 15.7-8.62 31.42-14.56 46.49-7.1 18-22.45 25.48-41 25.48-18.71 0-33.91-7.53-41.44-25.69a258.33 258.33 0 0 1-11.13-33.51c-13.63-52-26.89-104.18-40.31-156.28-.5-1.92-1.36-3.76-2-5.63a20.8 20.8 0 0 0-2.39 7.47q-5.31 33.44-10.59 66.89c-4.16 26.4-8.14 52.84-12.48 79.21-2.72 16.53-5.36 33.12-9.16 49.42-3.31 14.17-11.19 24.88-27.23 26.69a7.7 7.7 0 0 0-2.22 1.06H33a18.48 18.48 0 0 0-3.15-1.24c-14.8-2.92-23.9-12-28.23-26.15C1 311.68.54 309.8 0 307.93v-6zm952 39c-4.56-.75-9.11-1.52-13.67-2.25-19.1-3.07-28.46-13-30-32.27-.6-7.62-1-15.28-1-22.92q-.1-114.72 0-229.44a116.81 116.81 0 0 1 1.86-20.31c4.33-24.15 16-31.28 36.17-32.08 34.07-1.35 68.28-1.43 102.35 0 31.51 1.31 61.37 9.62 86.79 29.84 30.59 24.34 49.25 56.14 57.29 94 9.28 43.65 5.56 86.46-12.82 127.32-20.29 45.13-56.1 71.64-103.72 82.66-10.3 2.38-21 2.92-31.54 4.35-2 .27-3.88.76-5.82 1.15zm31.64-170.51v94.48c0 2.17-.33 4.54 3.08 4.41 19.6-.74 39.46.32 58.73-2.57 29.89-4.48 50.32-22.25 60-51.28 8.36-25 9.23-50.59 4.84-76.35-7.26-42.55-35.49-62.71-73.65-66.32-15.53-1.47-31.27-.63-46.89-1.31-5.34-.23-6.28 1.68-6.25 6.51.24 30.79.14 61.61.14 92.43zM2333 340.93c-5.07-.77-10.15-1.5-15.21-2.3-18.28-2.91-27.6-12.68-29.42-31.15-.62-6.28-1-12.61-1-18.92q-.08-119.49.11-239c0-7.06 1.38-14.22 2.87-21.16 3.24-15.08 13.16-23.53 28.09-26a150.9 150.9 0 0 1 22.32-2c21.5-.26 43-.38 64.49 0 21.73.37 43.13 3.06 63.31 11.92 14.85 6.52 28.08 15.27 38.07 28.31a67.78 67.78 0 0 1 14.08 40.29A135 135 0 0 1 2517 117c-4.43 18.15-15.06 31.2-31.15 40.18-1.71 1-3.38 2-6.18 3.65 2.46 1.16 4 1.79 5.46 2.58 9.76 5.29 20.1 9.76 29.1 16.12 12.58 8.89 18.7 22.42 21 37.34 3.21 20.64 2.73 41.19-5.08 60.93-11.48 29-33.16 47.1-62.65 55.53-12 3.44-24.79 4.34-37.21 6.41-2.11.35-4.2.79-6.3 1.19zm30.89-66c20.08-.59 39.58-.43 58.95-2 17.52-1.39 28.47-10.93 32.1-25.45 2.26-9.05 1.66-18.1-.39-27.16-2.85-12.62-10.49-20.58-22.94-23.65a91.28 91.28 0 0 0-18.14-3c-14.47-.55-29-.46-43.46-.57-2 0-3.93.26-6.12.42zm-.27-175.5c0 9.83.2 19.67-.1 29.49-.13 4.14 1.51 5.18 5.22 5.09 6.49-.16 13 .28 19.49-.11 11.26-.67 22.56-1.32 33.71-2.86a23 23 0 0 0 17.18-11.72c12.66-22 1.93-47.52-23-51.4-16.14-2.51-32.82-1.61-49.25-2.28-3.27-.13-3.24 2-3.23 4.3l-.03 29.49zM2061 340.93c-5.56-.72-11.13-1.41-16.68-2.18-65.58-9-107.38-46.09-126.83-108.71-7.67-24.69-9.21-50.18-7.35-76 2-27.8 8.62-54.19 22.57-78.36 23.83-41.28 59.76-65.31 106.76-72.49 31.62-4.83 62.73-2.65 92.6 9.64 38.38 15.79 65.42 43.43 80.19 81.87 20.51 53.35 20.36 107.3-2.84 159.76-21 47.43-59 74.18-109.77 83.15-8.8 1.56-17.75 2.25-26.64 3.34zm86.33-169c0-4.16.24-8.33 0-12.47-1.32-19.3-5.43-37.84-15.93-54.42-16.77-26.48-41.14-38.18-72-35.1-27.54 2.75-46.28 18.68-58.53 42.77-7.18 14.12-10.23 29.37-11.48 45.08-1.86 23.53-.09 46.56 9.64 68.37 14.51 32.54 45 49.75 80 45 25.85-3.55 44.17-18.15 56.29-40.79 9.68-18.31 12.48-38.12 12.01-58.49zM695 340.93c-5.07-.77-10.15-1.5-15.21-2.3-18.28-2.91-27.6-12.68-29.42-31.15-.62-6.28-1-12.61-1-18.92q-.08-119.49.11-239c0-7.06 1.38-14.21 2.87-21.16 3.23-15.08 13.15-23.54 28.08-26a146.29 146.29 0 0 1 22.32-2c29-.23 58-.43 87 .09a117.27 117.27 0 0 1 30 4.12c21 6 27.88 21.9 22.88 42.47-2 8.27-7.91 13.7-15.35 17.48-10.69 5.44-22.28 6.68-33.96 6.89-20.32.37-40.66.11-61 .12H726c-.14 2-.34 3.65-.34 5.24 0 17.17.13 34.33-.11 51.49-.06 4.41 1.28 5.75 5.62 5.73 20.33-.08 40.69-.46 61 .5a78 78 0 0 1 25.45 6.1c12.13 5 17.33 15.17 17.32 28.34s-5.2 23.3-17.32 28.36a74.75 74.75 0 0 1-24.46 6c-20 1-40 .62-60 .82-2.31 0-4.61.24-7.2.38v64.77H732c21.16 0 42.35-.48 63.49.23a111.68 111.68 0 0 1 28.82 4.84c15.19 4.68 22.41 15.75 22.34 31.17-.06 14.64-7.57 25.13-22.47 30.07-6.24 2.07-12.94 2.73-19.43 4.05-1.92.39-3.82.84-5.74 1.27zm2001 0c-6.56-.77-13.13-1.47-19.68-2.33-18.94-2.49-37.3-7-53.71-17.19a82.66 82.66 0 0 1-15.45-12.51c-8.17-8.39-10.77-18.56-7-29.9s12-18.12 23.61-20.68c14.41-3.19 28.17.2 41.44 5.34a136.44 136.44 0 0 0 43.66 9.26c11.47.5 22.17-1.74 31.15-9.56 16.63-14.48 14.34-42.53-5.29-52.5-13.69-7-28.39-12.1-43-17.1-18.6-6.39-36.92-13.15-53.8-23.49-28.54-17.48-37.14-43.75-35.11-75.57 2.69-42.2 34.41-82.6 89.83-91.49 26.62-4.27 53.07-3.45 78.67 6.13a71.52 71.52 0 0 1 26.76 17c8.71 9 11.42 19.62 8.28 31.73-3.07 11.84-13.52 19.76-26.52 20.55a78.11 78.11 0 0 1-34.12-5.71c-13.57-5.41-27.62-7.43-42-4.27-17.32 3.8-26.48 18.65-22.12 35.22 2.19 8.32 7.74 13.4 15.58 16.18 15.35 5.43 30.77 10.68 46.13 16.11 20 7.09 39.06 16.12 55.42 30 18.9 16.06 27.91 36.77 28.9 61.26 1.24 30.63-7.63 57.53-29.95 79.14-17.78 17.21-39.62 26.55-63.69 30.92-6.35 1.15-12.86 1.44-19.28 2.23a39.55 39.55 0 0 0-4.75 1.16zm-1148 0c-6.76-.73-13.54-1.28-20.27-2.22-62-8.67-104-42.09-124.51-101.55-9.57-27.79-11.4-56.54-9-85.7 2.6-32.07 12.48-61.58 31.24-87.73 24.3-33.87 57.48-53.93 98.55-60.5 31-5 61.36-2.58 90.47 10.07 10 4.36 19.12 10.12 26.35 18.51 17.57 20.41 3.83 46-15.49 51.1-8.75 2.29-17.47.56-26-2-9.86-2.91-19.6-6.62-29.68-8.29-43.89-7.24-77.74 13.24-91.07 55.64-10.07 32-10.43 64.5 3.24 95.63 13.09 29.83 36.68 45.48 69.68 46.46 16.29.48 31.67-2.34 46.37-9.61 9.14-4.52 19-8 29.34-6 22.33 4.43 33.22 30.67 19.91 49.23-5.18 7.23-12.59 13.32-20.06 18.34-14.75 9.92-31.71 14.25-49.26 16.26-6.91.79-13.83 1.53-20.74 2.29zm-256 0c-2.56-.61-5.13-1.17-7.68-1.83-15.54-4-21.91-15.83-24.8-30.09a106.25 106.25 0 0 1-2.06-20.79c-.14-78.45-.26-156.9.13-235.35a102.74 102.74 0 0 1 4.86-29.78c4.81-15.33 15.87-22.07 32.39-22 16.17.07 27 6.93 31.88 22.07a88.07 88.07 0 0 1 4.7 26.31q.52 121.42 0 242.84c0 9.1-2.22 18.53-5.17 27.21-4 11.9-13 19-26 20.31a15.18 15.18 0 0 0-3.27 1.11zm555.94-180.7c0 37.31.08 74.62 0 111.94-.1 33.18-25.66 57.39-50.33 64.26-20.73 5.78-41.62 4.65-61.86-2.27s-27.48-32.3-14.65-49.77c4-5.4 9.79-7.36 16-8.08 7.91-.92 15.93-1 23.8-2.08 9.67-1.38 12.49-5.07 12.49-14.7 0-68.3-.15-136.59.18-204.89a115.19 115.19 0 0 1 3.91-29c4.4-16.42 15.12-24.23 31-24.56 18.38-.37 29.37 6.88 35.42 23.21 4 10.68 4.19 21.81 4.2 33q.08 51.47 0 102.94z" data-name="Слой 1"/></g></symbol><symbol viewBox="0 0 15 15" id="menu" xmlns="http://www.w3.org/2000/svg"><defs><style>.gcls-1{fill:#f2f2f2}.gcls-2{fill:#777c82}</style></defs><g id="gСлой_2" data-name="Слой 2"><g id="gСлой_1-2" data-name="Слой 1"><path id="gssppa" class="gcls-1" d="M0 3V0h3v3z"/><path id="gssppa-2" data-name="ssppa" class="gcls-2" d="M0 3V0h3v3z"/><path id="gssppb" class="gcls-1" d="M6 3V0h3v3z"/><path id="gssppb-2" data-name="ssppb" class="gcls-2" d="M6 3V0h3v3z"/><path id="gssppc" class="gcls-1" d="M12 3V0h3v3z"/><path id="gssppc-2" data-name="ssppc" class="gcls-2" d="M12 3V0h3v3z"/><path id="gssppd" class="gcls-1" d="M0 9V6h3v3z"/><path id="gssppd-2" data-name="ssppd" class="gcls-2" d="M0 9V6h3v3z"/><path id="gssppe" class="gcls-1" d="M6 9V6h3v3z"/><path id="gssppe-2" data-name="ssppe" class="gcls-2" d="M6 9V6h3v3z"/><path id="gssppf" class="gcls-1" d="M12 9V6h3v3z"/><path id="gssppf-2" data-name="ssppf" class="gcls-2" d="M12 9V6h3v3z"/><path id="gssppg" class="gcls-1" d="M0 15v-3h3v3z"/><path id="gssppg-2" data-name="ssppg" class="gcls-2" d="M0 15v-3h3v3z"/><path id="gsspph" class="gcls-1" d="M6 15v-3h3v3z"/><path id="gsspph-2" data-name="sspph" class="gcls-2" d="M6 15v-3h3v3z"/><path id="gssppi" class="gcls-1" d="M12 15v-3h3v3z"/><path id="gssppi-2" data-name="ssppi" class="gcls-2" d="M12 15v-3h3v3z"/></g></g></symbol><symbol viewBox="0 0 480 480" id="print" xmlns="http://www.w3.org/2000/svg"><g data-name="Слой 2"><g data-name="Слой 1"><path d="M480 128v288h-96.27V256.26H95.92V416H0V128zm-127.72 64.22v31.47h63.36v-31.47z"/><path d="M352 480H128V288.35h224zM384 0v95.67H96V0z"/></g></g></symbol><symbol viewBox="0 0 460.44 460.46" id="search" xmlns="http://www.w3.org/2000/svg"><g data-name="Слой 2"><path d="M302.83 335a187.66 187.66 0 0 1-260.5-29.2C-18.42 231.44-13.25 124 54.41 55.43c67.17-68.08 174.35-74.28 250.22-13.94 77.87 61.94 94.89 178.27 29.45 262.57 1.5.9 3.52 1.63 4.9 3q56.46 56.3 112.82 112.7c7.2 7.16 10.65 15.24 7.43 25.24a22.41 22.41 0 0 1-34.64 11 76 76 0 0 1-7.7-7.11q-55.33-55.29-110.63-110.64c-1.05-1.05-2.15-2.05-3.43-3.25zm-115.92-5.63c78.17.17 142.1-63.25 142.43-141.29.33-78.42-63.26-142.65-141.4-142.82A142.24 142.24 0 0 0 45.25 187.29c-.17 77.97 63.57 141.9 141.66 142.07z" data-name="Слой 1"/></g></symbol><symbol viewBox="0 0 435.27 458.44" id="share" xmlns="http://www.w3.org/2000/svg"><g data-name="Слой 2"><path d="M255.06 347.19c-17.32-7.46-34.42-14.82-51.52-22.2-14.21-6.13-28.45-12.19-42.57-18.5-3.2-1.43-5.15-1.11-7.8 1.32C100.66 356 17.74 329.87 2.1 260.29-9.39 209.2 27.7 157 79.53 151.11q39.07-4.47 69.43 20.16c2.42 2 4 1.86 6.54.53q48.72-25.9 97.56-51.57c3-1.56 3.86-2.91 3-6.5C240.46 52.2 289.62-5.2 352.95.38c44.64 3.93 79.77 41.17 82 86.94 2.17 44.34-29.65 84.77-73.15 93-26.14 5-49.93-.55-71.45-16-2.54-1.82-4.28-2-7-.51q-50 26.71-100.14 53.1c-2.83 1.49-3.21 2.87-3 6.1.83 10.4.73 20.87 1.24 31.3.07 1.51 1.16 3.76 2.39 4.3q47.54 20.86 95.28 41.24c1.39.59 4.11-.36 5.46-1.49 29.09-24.41 68-29 101.42-11.79 34.11 17.58 54.27 56.81 48.2 93.8-6.68 40.67-37 71.2-76.59 77a90.89 90.89 0 0 1-103.15-105.56c.22-1.3.34-2.62.6-4.62zm42.25 20.3a46.71 46.71 0 0 0 47.18 46.76c25.57-.08 46.4-21.3 46.29-47.16a46.74 46.74 0 1 0-93.47.4zM137.9 241.54c-.08-26.14-21.15-47.26-47-47.06A46.87 46.87 0 0 0 44.45 242c.11 25.63 21.27 46.36 47.19 46.24a46.8 46.8 0 0 0 46.26-46.7zM390.78 91a46.74 46.74 0 1 0-46.6 47 46.7 46.7 0 0 0 46.6-47z" data-name="Слой 1"/></g></symbol><symbol viewBox="0 0 490.63 437.56" id="status-1" xmlns="http://www.w3.org/2000/svg"><g data-name="Слой 2"><g data-name="Слой 1"><path d="M431.34 437.56h-372a5.07 5.07 0 0 0-1.27-.72C28.15 430 10.59 408.1 10.58 377.52v-103c0-22.16 0-44.33-.07-66.49 0-1.76-.66-4.79-1.63-5.06C.79 200.7 0 194.73 0 187.72c.13-33.16 0-66.32.06-99.49 0-20 14.57-34.65 34.61-34.66H170.6c0-5.58.36-10.73-.06-15.8C168.83 17.6 186.26-.88 208.35 0c25.45 1 51 .26 76.48.24 19.89 0 35.13 15.06 35.25 34.95v18.34h137.4c17.79 0 32.86 14.88 33.08 32.62.12 9.16 0 18.33 0 27.5v77c0 4.91-1.22 9.36-6.07 11-4.11 1.35-4.49 3.74-4.49 7.35q.12 85.49 0 171a57.94 57.94 0 0 1-43.47 56c-1.75.49-3.46 1.05-5.19 1.56zM32.27 209.21c-.09 1.87-.18 2.85-.18 3.83 0 56.33-.1 112.67 0 169 .05 21.35 13.71 34.24 35.71 34.24h354a54 54 0 0 0 11.9-1.18c15.79-3.6 24.8-16 24.82-34.05q.09-83.5 0-167c0-1.43-.18-2.86-.3-4.59-2.21.5-4 .83-5.74 1.31Q362.24 235.36 272 260a97.72 97.72 0 0 1-52.31.27q-72-19.56-144-39.3c-14.29-3.87-28.56-7.73-43.42-11.76zm-10.93-25.36c1 .38 1.48.58 1.95.71q102.31 27.93 204.64 55.8c12.14 3.3 24.37 2.88 36.53-.45q73.18-20 146.38-39.9l57.8-15.76c.35-.58.52-.72.52-.86 0-33.16.15-66.31.06-99.47 0-5.44-2.88-8.14-8.31-8.87a48.41 48.41 0 0 0-6.48-.22H35.54c-12.1 0-14.17 2.16-14.17 14.35v62.49c-.03 10.63-.03 21.33-.03 32.18zM298.58 53.37V34.44c-.07-9.84-3.06-12.87-12.79-12.88h-55.91c-9 0-18-.07-27 .06-6.18.09-10.14 2.74-10.44 7.83-.46 7.89-.12 15.82-.12 23.92z"/><path d="M245.52 128.32c16.42.09 32 16 31.82 32.32-.22 16-16.27 31.8-32.18 31.62-16.31-.18-32-16.22-31.8-32.48s15.95-31.55 32.16-31.46zm-.52 42.46c7.41.09 10.86-3.13 11-10.29s-3.32-10.84-10.43-10.92c-7.34-.09-10.84 3.2-11 10.35s3.3 10.77 10.43 10.86z"/></g></g></symbol><symbol viewBox="0 0 494.66 468.03" id="status-2" xmlns="http://www.w3.org/2000/svg"><g data-name="Слой 2"><g data-name="Слой 1"><path d="M0 225.78c1-7.56 1.61-15.19 3-22.67C20.83 108.22 76 45.75 168 17.34c47.62-14.71 95.73-12.11 142.65 5.54a14.61 14.61 0 0 1 6.28 4.48 8.45 8.45 0 0 1 .11 10.7c-3.12 4.13-7.5 4.51-12.18 3.2-10.56-3-21-6.46-31.69-8.81-86.34-19-179.18 21.86-223.84 98.11Q13.76 191.21 21.05 261c9.83 92.29 80.81 167.75 172.76 184.06C305.89 465 413.74 391.81 436.64 279.83c3.28-16 3.86-32.65 5.8-49.94l17.85-1c.16 2.09.36 3.52.37 5 .78 94.72-53 178-140 215.67a220.45 220.45 0 0 1-119.76 16.28C129.1 455.9 73.8 419.79 34.82 358.9 16.61 330.45 5.93 299.11 2 265.5c-.58-4.92-1.33-9.82-2-14.73z"/><path d="M135 350.49c-11.94 5.48-22.21 12.76-32 20.73-1.68 1.37-3.28 2.84-5 4.13-4.74 3.53-10.21 3-13.89-1.14a9.64 9.64 0 0 1 1-13.87 146.82 146.82 0 0 1 16.08-12.66c8.18-5.41 16.83-10.1 25.15-15.32 1.34-.84 2.93-2.94 2.77-4.25-3-24.57-6.32-49.11-9.67-74.5H42.35c-7.48 0-12.13-4.66-11.55-11.27.51-5.77 4.93-9.2 12.13-9.21q34.5-.05 69 0h8.63c0-6-.2-11.82 0-17.58a356.06 356.06 0 0 1 8.52-66.28c.66-2.81-.4-4-2.69-5.44-13.52-8.77-27.14-17.43-40.17-26.9-7.33-5.32-5.8-14.71 2-17.44 3.89-1.36 6.93.1 10.14 2.37 10.59 7.49 21.38 14.71 32.12 22a32.35 32.35 0 0 0 3.79 1.88c2.66-7.79 5.08-15.33 7.82-22.76A215.76 215.76 0 0 1 167 54.12c.85-1.23 1.68-2.48 2.61-3.66 3.77-4.82 10.5-6.27 14.58-3.18 4.46 3.37 5.24 10.32 1.37 15.21a145.51 145.51 0 0 0-21.27 37.15c-4.43 11.25-8.1 22.81-12.28 34.7 22.16 9.29 44.23 14.65 68.17 15.67V51.83a37 37 0 0 1 .09-4.5 10.61 10.61 0 0 1 9.58-9.33 10.27 10.27 0 0 1 10.41 8.29 28.5 28.5 0 0 1 .4 6v98.33c29.35-.4 56.16-8.36 82-21.28 9.19 16.23 13.09 33.49 14.8 51.24 1.69 17.54 2.58 35.16 3.87 53.42h5.06c14.33 0 28.67-.12 43 .1a17.47 17.47 0 0 1 8.48 2.21c3.12 1.89 6.74 4.24 5.45 9-1.2 4.45-5.09 7.35-10.1 7.38-14.83.07-29.67 0-44.5 0-6.63 0-6.21.05-7 6.71q-3.86 33.21-8.39 66.34c-.46 3.34.38 4.5 3 6.19 13.51 8.78 26.95 17.7 40.14 26.95a9.89 9.89 0 0 1 3 12.57c-2.12 4.31-6 5.78-10.44 5.06-2.15-.35-4.22-1.78-6.09-3.07-11.62-8-23.17-16.14-35.47-24.73-1.8 5.6-3.16 10-4.6 14.33-7 21.12-15.72 41.38-28.94 59.47a41 41 0 0 1-3.08 3.93c-4.14 4.41-9.4 5.17-13.37 2-4.36-3.47-5.46-10.27-1.9-14.77 15.79-20 25-43.06 31.89-67.22q.55-1.92 1-3.86a13.49 13.49 0 0 0 .11-1.89 188.62 188.62 0 0 0-67.29-15.11v98.88c0 8.81-3.63 13.87-10.06 13.94s-10.19-5-10.19-13.76v-98.58c-8.45.95-16.47 1.07-24.08 2.87-13.4 3.18-26.55 7.41-39.82 11.15-3 .85-3.75 2.34-2.81 5.5 7.16 24.26 16.68 47.38 31.73 68 4.73 6.46 3.4 13.56-2.85 16.52-4.61 2.18-9 .82-13-4.3-11.4-14.77-19.55-31.32-26.08-48.68-3.13-8.59-5.92-17.31-9.13-26.64zm105.25-180.85v64.82h79.93c-.13-27.17-1.84-53.71-8.95-80.45-23.03 10.17-46.72 13.99-70.98 15.63zM147.76 155c-5 25.78-8.1 52-7.89 78.61h79.88v-63.18c-12.48-1.9-24.58-3.18-36.41-5.71S160 158.41 147.76 155zm72 150.86v-52.8h-80a421.5 421.5 0 0 0 8.24 68.12c23.56-8.9 47.14-14.18 71.76-15.29zm100.46-51.95h-80v52.78c24.87 1 48.51 6.56 71.92 15.24 5.1-22.62 7.18-45.03 8.08-67.99zm174.32-172.5c.88 17.67-6.22 32.9-15.53 47.08-17.56 26.71-35.53 53.17-53.66 79.5-8.06 11.7-20.71 11.21-28.65-.54q-26.46-39.09-52.91-78.19c-9.25-13.67-14.92-28.64-15.31-45.21-.92-39.3 24.39-71.7 63.32-81.53 48.2-12.17 96.81 21.09 102.7 70.4a72.17 72.17 0 0 1 .04 8.49zM411.85 196a44.41 44.41 0 0 0 3.28-3.76c17.62-26 35.43-52 52.72-78.22 9.27-14.08 10.82-29.95 6.93-46.05-10.29-42.71-60.33-62.76-97.58-39.49-32 20-37.88 58.78-20.67 85.81 16.52 26 34.27 51.13 51.5 76.64 1.07 1.59 2.31 3.07 3.82 5.07zM283.35 45.56c2.57 1.83 5.9 3.15 7.58 5.6 5.36 7.79 10.3 15.9 15 24.09 2.94 5.08 1.51 10.31-2.9 13-4.1 2.55-10.53 1.51-13.44-2.76-5.42-8-10.77-16-15.6-24.33-4.07-7.05.7-14.74 9.36-15.6z"/><path d="M385.07 99.39c-3.83 0-7.66.1-11.49 0a9.25 9.25 0 0 1-9.38-9.56c-.06-5.54 3.56-9.45 9.27-9.58 7.16-.17 14.32 0 21.48-.05 6.47 0 6.47 0 6.47-6.68v-20c.06-6.32 4.41-11.45 9.73-11.09a10.29 10.29 0 0 1 9.63 11.18c-.47 7.3 0 14.65-.14 22-.06 3.45 1.32 4.72 4.75 4.64 7.49-.16 15-.09 22.48 0 5.92 0 10.61 4.31 10.68 9.6s-4.66 9.6-10.58 9.64c-7.16 0-14.34.28-21.48-.09-4.8-.25-6.05 1.67-5.88 6.09.27 7 .1 14 .06 21 0 6.06-4.15 10.8-9.36 10.87s-9.86-5-9.92-11.08c-.06-7.33-.18-14.66.06-22 .12-3.76-1.27-5.05-4.92-4.84-3.79.13-7.63-.04-11.46-.05z"/></g></g></symbol><symbol viewBox="0 0 440.17 507" id="status-3" xmlns="http://www.w3.org/2000/svg"><g data-name="Слой 2"><g data-name="Слой 1"><path d="M118.72 129.65c-.84-17.29-2.4-33.72-2.13-50.11.15-9.12 3-18.29 5.29-27.26C123.76 45 129 40 135.74 36.71c6.39-3.11 11.77-7.15 15.72-13.34C160.21 9.65 173.9 4 189.29 2 217-1.57 244.46-.89 271.16 8.51c14.6 5.14 28.29 11.8 38.69 23.77 15.15 17.45 19.92 38.07 17.6 60.51-.94 9.06-3.18 18-4.86 27-.88 4.69-.58 8.14 4.69 10.88 7 3.62 10.53 10.67 10 18.36a365.79 365.79 0 0 1-4.28 37.53c-1.23 7.37-5.72 13.53-11.83 18s-9.41 10.5-11.77 17.81c-10.57 32.82-32.31 54.93-64.75 67.09-30.25 11.33-55.43.81-78.8-17.21-18.69-14.41-30-34-36.54-56.52a11.14 11.14 0 0 0-3.92-5.91c-10.06-6.59-16.27-15.72-18.35-27.41a231.24 231.24 0 0 1-3.42-27.15c-.72-12.26 3.65-21.89 15.1-25.61zm97.65-108.72c-7 .49-14 .68-20.89 1.54C183 24 171 26.64 164.12 38.91a35.92 35.92 0 0 1-17.46 15.85c-7.14 3-9.85 8.17-10.59 14.86-1.79 16.27-1.61 32.51 1.67 48.66a102.27 102.27 0 0 1 2.15 16.79c.27 8-4 12.33-12 12.4-3.19 0-4.92 1.19-4.67 4.26.86 10.4 1.09 21 3.26 31.09 1 4.83 5.09 10 9.24 12.94A27.14 27.14 0 0 1 147.05 212c6.05 23.37 18.06 42.5 40 54.06 16.47 8.68 32.92 13.42 51.93 5.74C264 261.65 280.32 244 288.22 219A51.82 51.82 0 0 1 306 192.91c3-2.43 6-6.38 6.64-10 1.63-9.63 2.1-19.48 2.6-29.26.07-1.38-2-3.81-3.49-4.17-10.23-2.52-13.53-7.58-11.85-18.18 2.13-13.46 4.26-26.93 5.87-40.46 3-25.12-9.46-47.65-31.28-57.22-18.49-8.17-37.72-12.92-58.12-12.69zm3.49 485.88c-61.66 0-123.32-.35-185 .18-23.15.2-35.46-17-34.74-34.9.75-19 .47-38-.11-57-.8-26.44 9.53-47.2 30.47-62.88q12.79-9.58 26.06-18.51c5.9-4 11.39-2.81 14.67 2.5 3.14 5.09 1.41 9.84-4.41 13.86C58.34 355.93 50 362 41.75 368.2c-16.25 12.36-23.24 28.63-21.93 49.2 1.14 17.76.8 35.62 1 53.43.13 12.51 3.17 15.71 15.61 15.71h370.43c10.4 0 14.38-4.05 14.39-14.58 0-19.16-.42-38.34.14-57.49.55-18.78-6.25-33.72-20.81-45.31-4.3-3.42-8.64-6.8-13-10.19-4.87-3.81-5.71-8.7-2.33-13.52 3.14-4.46 8.63-5.82 13.1-2 9.76 8.24 19.67 16.48 28.27 25.86 9.57 10.44 13.05 23.94 13.27 37.89.36 23.16.28 46.32 0 69.48-.22 17.25-13.92 30-32.09 30.07-24.83.16-49.66.06-74.49.06z"/><path d="M220.16 372.23c12.51-11.92 24.59-23.36 36.59-34.89 14.19-13.62 28.25-27.34 42.53-40.89 1.35-1.28 4.36-2.32 5.87-1.7 13.22 5.38 26.4 10.93 39.34 17 4.77 2.23 5.85 8.5 3.31 13.09s-8.36 5.94-13.57 3.44c-7-3.37-14.17-6.56-21.16-10-3.47-1.73-5.82-1.16-8.68 1.62q-37.14 36-74.59 71.75c-2.75 2.64-5.61 5.16-9 8.27-10.28-9.75-20.44-19.3-30.49-29q-26.68-25.63-53.19-51.44c-2.58-2.53-4.77-2.95-7.86-1.49s-6.44 2.7-9.68 4c-5.67 2.24-11.3.29-13.6-4.69a9.53 9.53 0 0 1 4.8-13.08c8.15-3.68 16.62-6.68 25.09-9.58 1.32-.45 3.76.73 5 1.89 11.54 10.83 22.93 21.82 34.37 32.77zM72 466.23c-2.54-10.55-5.15-20.64-7.36-30.82-1.62-7.44-3.94-15-3.79-22.49.4-19.23 7-35.78 24.43-46.27 2.66-1.61 2.25-3.45 1.72-5.93-2.35-10.86-4.78-21.72-6.51-32.72-1.08-6.86 2-10.67 7.55-11.21 6.21-.6 9.61 2.71 10.84 9.61 1.8 10.12 4 20.18 6 30.26.57 2.85 2.12 4.18 5.19 4.18 23 0 44.28 15.34 49.21 40.7 2.62 13.49 6.23 26.79 9.53 40.75-3 .77-5.69 1.47-8.36 2.1-7.43 1.76-14.87 3.53-22.32 5.23-5.35 1.22-9.37-1.54-11-7.43-1.19-4.37 1.48-8.85 6.34-10.25a68.46 68.46 0 0 1 9.24-2c2.75-.39 3.73-1.34 3-4.27-2-8.05-3.31-16.31-5.71-24.23-4.53-14.95-22.11-24.7-36.45-20.74-17.66 4.88-27.82 20.72-24.08 37.48 1.56 7 3.13 13.94 4.55 20.93.66 3.26 1.77 5.15 5.63 3.85 2.65-.89 5.52-1.13 8.28-1.71 5.41-1.13 9.47 1.53 11.1 7.29a8.17 8.17 0 0 1-5.65 10.19c-10.18 2.76-20.54 4.96-31.38 7.5zm265.79-14.11c-21.12-1-38.17-15.93-41.12-36.81-2.74-19.42 10-38.8 29.2-43.78a56 56 0 0 1 13.8-1.51c3.67 0 5.89-.9 7-4.61 3.51-11.42 7.34-22.74 10.81-34.17 1.34-4.41 3.78-7.46 8.33-8.24 4.07-.69 7.67 1.19 9 4.81a17.39 17.39 0 0 1 .4 10.14c-3.3 11.31-7 22.54-11.08 33.57-1.6 4.27-1.72 6.94 1.81 10.39 20.57 20 13.67 54.61-10.1 65.35-5.59 2.55-12 3.29-18.05 4.86zm20.81-40.45c0-13.15-9.23-22.66-21.91-22.61-11.63 0-21.67 9.81-21.59 21 .08 12.14 10.43 22.94 21.83 22.79 12.34-.13 21.69-9.28 21.67-21.18z"/></g></g></symbol><symbol viewBox="0 0 355 484.88" id="status-4" xmlns="http://www.w3.org/2000/svg"><g data-name="Слой 2"><path d="M0 7.88c.23-.24.55-.44.66-.72C2.39 2.68 5.47 0 10.41 0S18 3.35 19.94 7.54Q33.76 37.45 47.68 67.3 63.87 102.17 80 137c.63 1.35 1.36 2.64 2.29 4.44 1.7-.7 3.35-1.32 4.94-2q46.77-21.55 93.42-43.11c27.52-12.69 55.62-2.26 68.45 25.21q49.54 106.05 99.09 212.11c3.11 6.69 4.58 14.13 6.81 21.22v7a12.2 12.2 0 0 0-.82 2.31c-2.79 19.35-13.86 32.14-31.3 40.16-22.2 10.21-44.24 20.77-66.46 30.92-4.14 1.89-5.84 3.9-5.69 8.8.56 18.62-12 34.62-30 39.17-2.24.57-4.48 1.09-6.72 1.63h-6c-2.71-.71-5.44-1.33-8.12-2.13-29-8.65-38.14-45.26-16.29-66.09 3.21-3.06 3.21-5.15 1.54-8.75Q93.88 212.34 2.79 16.7c-.91-2-1.86-3.89-2.79-5.83zm163.45 117.68c.79 2 1.21 3.22 1.76 4.4q39.61 85.04 79.25 170.15c5.27 11.31 10.61 22.6 15.74 34 3.23 7.15-.31 13.49-7.7 14.3-5 .54-8.25-1.85-11.17-8.09q-47-100.66-93.95-201.32c-.67-1.44-1.45-2.84-2.31-4.5L90.6 159.73c1.08 2.42 1.92 4.37 2.82 6.29q37.15 79.35 74.31 158.69c11.93 25.47 23.82 51 35.88 76.36.77 1.61 2.84 3.79 4.23 3.74 14-.53 25.33 4.6 34.53 15.12 1.66-.7 3.18-1.29 4.67-2q33.73-15.67 67.45-31.37c19.39-9 25.44-26 16.34-45.46q-27-57.66-53.86-115.35-22.82-48.85-45.68-97.68c-6.87-14.6-22.4-21.84-36.95-16.47-10.4 3.87-20.34 9.11-30.89 13.96zm67.85 319.39a20 20 0 0 0-20.3-20.16 20.34 20.34 0 0 0-20.06 20.08 20.19 20.19 0 1 0 40.38.08z" data-name="Слой 1"/></g></symbol><symbol viewBox="0 0 512 432" id="status-5" xmlns="http://www.w3.org/2000/svg"><g data-name="Слой 2"><path d="M512 135v6l-10.08 13.17L512 167v6l-10.13 13.27L512 199v6l-10.14 13.28L512 231v6c-2.3 6.28-7 10-12.68 13.32-83.37 49.06-166.55 98.43-250 147.3-20.45 12-39.72 26.22-62.29 34.38h-9c-4.68-2-9.57-3.62-14-6.08q-75.1-41.65-150.1-83.46c-6-3.3-11.28-6.89-13.9-13.46v-6l10.08-13.29L0 297v-6l10.07-13.29L0 265v-6l10.07-13.29L0 233v-6l10.08-13.3L0 201v-6c2.26-6.3 7-10 12.62-13.36 80.52-47.48 160.84-95.31 241.5-142.56C277.14 25.6 298.88 9.75 324 0h9c5 2.13 10.22 3.84 14.95 6.45C398 34.08 448 61.92 498.15 89.53c6 3.3 11.24 6.92 13.85 13.47v6l-10.15 13.27zm-271.37-33.14a22.25 22.25 0 0 0 1.92 1.52q48.75 27.43 97.57 54.73a7 7 0 0 0 5.81-.15q30.07-17.34 59.85-35.18c1.36-.81 2.26-3.34 2.36-5.12.34-6-.25-12 .47-17.94.43-3.57-.1-5.35-3.34-7.07q-20.94-11.14-41.6-22.81a10.42 10.42 0 0 0-8.9-1.09C337 74.08 319 73.95 301 69.79a11.14 11.14 0 0 0-7.34 1c-14 8-27.91 16.26-41.83 24.45-3.56 2.04-7.08 4.17-11.2 6.62zm-96.38 20.39c1 .73 1.37 1.07 1.79 1.31q80.85 45.21 161.79 90.27c1.69.94 4.89.7 6.65-.3 13.9-7.88 27.63-16.07 41.39-24.2a36 36 0 0 0 3.2-2.44c-1.31-.86-2.09-1.46-2.95-1.93Q276 140 195.77 95.2a8 8 0 0 0-6.64.23c-14 8-27.87 16.32-41.76 24.56-.96.56-1.82 1.3-3.12 2.26zm214.41 46.34c4.55 2.59 8.28 4.43 11.7 6.75s5.95 2.13 9.48 0c35.65-21.14 71.44-42 107.11-63.15 2.08-1.23 5.05-3.79 4.85-5.37-.28-2.14-2.88-4.56-5.08-5.79-49-27.3-98.11-54.37-147.09-81.7-8-4.47-15.1-4.29-22.94.39C282.66 40 248.46 60 214.33 80.14c-1.81 1.07-3.55 2.25-6.16 3.92 4.72 2.67 8.86 4.69 12.65 7.25 2.82 1.9 4.95 1.45 7.66-.16 20.31-12.09 40.73-24 61-36.09a13.27 13.27 0 0 1 11.39-1.61 84.24 84.24 0 0 0 53.91-.93 13 13 0 0 1 11.4 1.07q27.73 15.41 55.6 30.53c4.08 2.2 5.5 4.64 3.95 9.18a47.84 47.84 0 0 0-.66 29.48c1.31 4.42.09 6.78-3.67 8.93-13.28 7.62-26.45 15.43-39.65 23.2-7.45 4.38-14.86 8.8-23.09 13.68zm-96.11 38.24a17 17 0 0 0-1.93-1.59q-48.76-27.3-97.6-54.44a7 7 0 0 0-5.78.26q-25.94 14.95-51.59 30.4c-1.39.84-2.51 3.32-2.53 5.05-.08 6.62.65 13.27.43 19.88-.1 2.89.83 4.16 3.09 5.41 14.56 8 29 16.26 43.67 24.13a11.15 11.15 0 0 0 7.44.73 108.39 108.39 0 0 1 50.89-1.12 11.46 11.46 0 0 0 7.37-1.25c14.17-8.05 28.18-16.39 42.23-24.65 1.37-.83 2.7-1.76 4.31-2.81zm32.77 17.87c-4.71-2.65-8.84-4.7-12.67-7.22-2.81-1.86-4.94-1.47-7.7.17-18.16 10.83-36.45 21.43-54.63 32.22-3.63 2.16-7.16 3.06-11.36 1.87-17.31-4.89-34.47-4.19-51.66 1.08a14.18 14.18 0 0 1-9.85-.93c-19.21-10.3-38.17-21.08-57.26-31.61-3.45-1.9-4.62-4.15-3.47-8.13 2.82-9.82 3-19.8-.56-29.47-1.88-5.16-.29-7.85 4.22-10.43 16.33-9.34 32.47-19 48.67-28.55 1.63-1 3.2-2 5.4-3.38-4.76-2.71-8.86-4.88-12.78-7.35-2.58-1.62-4.66-1.52-7.3 0q-50.05 29.71-100.21 59.18c-6.16 3.66-6.16 6.85.13 10.33q73.92 41.21 147.82 82.45c7.43 4.16 14.26 4.15 21.62-.21 32.08-19 64.27-37.83 96.41-56.72 1.53-.9 3-1.9 5.18-3.3zm24.47 113.23c2-1 3-1.45 4-2 13.61-8 27.16-16.15 40.87-24 2.93-1.68 3.61-3.68 3.6-6.81-.1-33.3-.06-66.59-.07-99.89 0-1.55-.2-3.09-.35-5.28-2.53 1.44-4.39 2.47-6.23 3.55-12.61 7.44-25.15 15-37.85 22.26-3 1.71-4.09 3.59-4.07 7 .13 33.3.08 66.59.08 99.89zm-16.06-100.06c-2 1.07-3.57 1.88-5.1 2.79-32.26 19-64.56 38-96.73 57.15-12.66 7.55-24.91 7.57-37.72.32-29.7-16.79-59.57-33.26-89.38-49.86q-22-12.27-44.06-24.51c-2.95-1.63-8.58.1-10.26 3.28-2.06 3.91.65 5.7 3.62 7.35q74.15 41.29 148.27 82.66c7.45 4.16 14.23 3.89 21.59-.48 33.49-19.89 66.93-39.88 100.85-59 8.05-4.54 10.86-9.61 9.35-18-.07-.35-.16-.66-.43-1.7zm0 32.09c-1.8 1-3.25 1.66-4.64 2.48q-48.8 28.77-97.59 57.56c-12.12 7.19-24.13 7.55-36.41.61-9.85-5.57-19.75-11.05-29.63-16.56L31.24 256c-3.4-1.89-9.48-.15-11 3.36-1.73 4.05 1.29 5.59 4.17 7.19q73.71 41 147.36 82.19c7.78 4.36 14.79 4.25 22.49-.33 33.33-19.82 66.62-39.73 100.41-58.74 8.51-4.77 11.1-10.21 9.09-19.67zm.41 63.78c-2.15 1.12-3.61 1.8-5 2.62-31.68 18.69-63.52 37.13-95 56.21-14.12 8.57-27.24 8.94-41.71.73-43.42-24.63-87.17-48.69-130.79-73-3.82-2.12-9.83-.71-11.42 3-2 4.73 2 6 5 7.7 12.63 7.09 25.29 14.1 37.94 21.14q54.51 30.38 109 60.79c6.6 3.7 13.11 4.66 19.85.69q54.67-32.13 109.3-64.34c1.15-.68 2.61-2 2.7-3.11.36-3.87.16-7.82.16-12.43zm0-32.15c-2.41 1.33-3.86 2.08-5.26 2.91q-48.82 28.78-97.61 57.6c-12.15 7.21-24.17 7.42-36.4.44-4.19-2.39-8.42-4.72-12.63-7.07l-120.37-67c-4-2.22-9.7-1-11.49 2.74-2.38 5 2 6.26 5.09 8 10.88 6.12 21.8 12.15 32.71 18.22q57.13 31.83 114.23 63.7c6.3 3.53 12.6 4.56 18.95.85q55.18-32.25 110.19-64.77a5.68 5.68 0 0 0 2.49-3.75c.39-3.64.17-7.3.17-11.87zm79.59-1c1.69-.78 2.44-1.06 3.13-1.46q50.74-29.8 101.48-59.61c2.83-1.66 5.06-3.58 3.1-7.15-1.66-3-7.61-4.94-10.28-3.37q-47.49 28-94.89 56.06a5.68 5.68 0 0 0-2.41 3.79c-.29 3.58-.07 7.23-.07 11.71zm.54-96.24c1.76-.92 3.22-1.61 4.6-2.42q33.34-19.55 66.66-39.13 16.34-9.6 32.67-19.22c2.78-1.63 5.19-3.49 3.28-7.11s-7.89-5-11.53-2.81c-28.78 17-57.35 34.33-86.48 50.68-8.31 4.66-11.44 10-9.59 18.82.12.13.12.28.45 1.16zm-.52 32.11c1.84-.86 3-1.3 4.11-1.94q50.14-29.44 100.29-58.88c2.75-1.62 5.25-3.35 3.51-7-1.46-3.09-7.85-5.21-10.62-3.58q-47.27 27.86-94.47 55.82c-1.14.67-2.52 2-2.62 3.16-.33 3.87-.13 7.82-.13 12.39zm0 32c2-1 3.36-1.55 4.59-2.27q49.89-29.27 99.76-58.56c2.75-1.62 5.25-3.35 3.44-7-1.57-3.19-7.75-5.23-10.61-3.54q-47.25 27.85-94.44 55.8c-1.14.67-2.53 2-2.62 3.16-.25 3.85-.05 7.79-.05 12.4z" data-name="Слой 1"/></g></symbol><symbol viewBox="0 0 503.64 474.42" id="status-6" xmlns="http://www.w3.org/2000/svg"><g data-name="Слой 2"><g data-name="Слой 1"><path d="M503.64 291.51c-1.21 7.17-2.13 14.41-3.69 21.51-7.48 34.09-24.3 63.58-45.72 90.6-21.19 26.73-47.38 47.1-79.12 60.07-6.65 2.72-12.74 1.09-15-4.1-2.4-5.5.75-11.22 7.64-14 31.29-12.49 55.52-33.9 75.42-60.49 18.56-24.8 32.51-51.88 38-82.72 2.66-14.92 3.8-30-3.49-44-9.33-18-24.28-28.36-44.52-30.55-2.29-.25-5.19 1-7.16 2.42-20 14.59-42 22.7-67 22.18-22.65-.47-42.75-8-60.47-21.69-4.86-3.76-9.53-4.47-14.78-3a77.91 77.91 0 0 0-14.86 5.63c-11.88 6.22-23.47 6.27-35.29 0a66.64 66.64 0 0 0-11.48-4.79c-7.4-2.29-13.81-1.91-20.82 3.37-35 26.38-87.32 27.2-123.18-1.5-4.21-3.37-8.26-3.72-12.93-2.86-21.15 3.9-45.25 22.42-45.82 53-.69 36.74 12.54 68.22 33.89 97.09 18.17 24.57 42.18 42.37 67.63 58.52 5.51 3.5 7 7.55 4.85 12.55-2.39 5.56-8 8-13.16 4.9-51.43-30.46-91.13-70.87-107.44-130.22-5.66-20.59-7.43-41.79-1.29-62.67 8.53-29 38.83-51.45 69-51.92 5.56-.09 10.31 1.91 14.74 5.24 11.82 8.89 24.57 16 39.39 18.51 23 3.85 44.64-.11 62.65-15 11.59-9.56 23.33-10 36.36-6.65a64.56 64.56 0 0 1 15.83 5.93c6.92 3.95 13 3.49 19.75-.22a63.84 63.84 0 0 1 31.14-7.87 21.76 21.76 0 0 1 14.69 5.27C339 241 381.72 242 414.14 215.45c8.73-7.16 18.23-6.36 28-4.5 31.75 6 59.85 33.24 60.52 69.24a31 31 0 0 0 1 5.33zm-60.48-102.98c-14 .12-27.36-3-40.4-7.93a8.76 8.76 0 0 0-6.3.24c-18.55 9.22-37.21 12.3-56.2 1.46-3.33-1.9-6-2-9.66-.42-20.95 8.78-42.42 12.77-64.52 4.47a36.79 36.79 0 0 1-12.27-7.28c-7.63-7.26-6.65-17.59 1.5-24.27a146 146 0 0 0 12.42-10.8 72.73 72.73 0 0 0 21.17-49.2c.55-12.6 2.34-25.17 4.16-37.67 2.07-14.22 9.89-25.22 21-34 32-25.34 79.8-23.37 109.7 4.41 10.75 10 15 22.8 16.79 36.85 1.89 15.18 3.3 30.44 5.9 45.49 3.43 19.88 15.09 34.86 30.76 46.87 4.92 3.78 8.73 7.86 7.89 14.48-.86 6.78-5.25 10.72-11.57 12.23-10 2.38-20 4.32-30 6.45zm13.15-21.21l1.11-1.78c-3.6-3.2-7.51-6.11-10.76-9.63a86.45 86.45 0 0 1-22.73-50c-1.68-14.86-2.9-29.78-4-44.7-.66-8.73-4.56-15.46-11.18-20.88-23.18-18.94-57.21-19.77-81.2-1.88-8.05 6-13.47 13.93-15 23.93-1.72 11.51-3.38 23.07-4.08 34.67-1.43 23.66-9.37 44.41-25.67 61.78-3.13 3.34-6.31 6.63-9.88 10.38a42.11 42.11 0 0 0 4.45 1.45c18.07 3.46 35.44.82 51-8.6 6.8-4.12 10.7-3.54 16.71.8 12.85 9.28 26.56 9.51 40 .76a58.7 58.7 0 0 0 7.88-6.06c1.94-1.8 3.39-1.48 5.69-.55 8.45 3.41 16.9 7.06 25.67 9.38 10.49 2.69 21.28 3.45 31.99.93zM218.34 58.21c-1.09 7.22-2.26 14.43-3.22 21.66-.17 1.29 0 3.31.81 3.92 7.22 5.46 9 13.11 8.25 21.37-.63 6.74-1.52 13.69-3.86 20-1.83 4.91-6 8.94-9.2 13.35-1.43 2-3.64 3.78-4.2 6-3.78 15-12.29 26.81-23.82 36.62-14.43 12.28-31.31 17.92-49.63 12.82-23.22-6.47-39.18-22-47.29-45-1.58-4.46-3.41-8.17-7.09-11.51-9.83-8.91-14.58-32.58-9.38-44.77a18.51 18.51 0 0 1 5.56-7.44c2.69-2 2.56-3.88 2.43-6.73-.55-11.75-1.3-23.55-.77-35.28.41-8.92 4.76-16.14 13.87-19.63a10.35 10.35 0 0 0 5.2-4.38c5.17-10.16 14-15 24.55-17C144-2.15 167-.29 189 9.63c19 8.6 28.78 25.6 29.34 48.58zM86.12 102c2.09 9.31.44 19.47 9.83 25.73 4.87 3.25 6.87 8.27 8.43 13.69 4.15 14.37 12.29 25.78 25.74 32.84 6.73 3.54 14 6.12 21.57 3.81 18.74-5.72 31.64-17.5 37.34-36.8 1.36-4.6 3.67-9.76 7.18-12.72 7.53-6.35 8.66-14.6 9.21-23.25.1-1.56-1.44-3.86-2.89-4.78-4.81-3.06-8.11-8.59-7.34-13.7 1-6.88 2.45-13.71 3.22-20.62 1.87-16.81.76-30.13-19.76-39.55-17.19-7.89-35-8.47-53.26-5.6-5.44.86-9 4.07-12.08 8.69A30.21 30.21 0 0 1 103 39.55c-6 3.18-7.91 7.75-7.45 13.83.76 10.11 1.43 20.24 2.73 30.29 1.32 10.6-1.67 15.92-12.16 18.33z"/><path d="M235.1 258.58c17.73.84 31.23 2.55 43.18 10.05 13.13 8.23 19 22.11 15.73 37.36-1.18 5.51-1.36 9.92 2.31 15.17 6.66 9.51 2.58 30.62-6 38.2a13.05 13.05 0 0 0-3 4.94c-5.57 14-14.38 25.17-28.27 31.56-15.81 7.28-35.89 3-48.33-10.87-5.45-6.09-9.16-13.73-13.76-20.6-1.43-2.14-2.81-4.54-4.81-6-6-4.45-6.42-11-7-17.42-.69-8.36-.27-16.62 4.19-24.19.76-1.29.64-3.17.7-4.78.28-7.8 0-15.66.87-23.37.8-6.8 4.84-11.91 11.45-14.63a11.75 11.75 0 0 0 3-1.75c3.66-3 6.79-7.31 11-8.91 7.11-2.77 14.91-3.85 18.74-4.76zm8.51 18.34l-.37 1.33a29.74 29.74 0 0 0-3 0c-8.14.83-16.8.39-21.49 9.34a6.8 6.8 0 0 1-3.32 2.95c-5.62 2.14-5.61 7-5.63 11.6 0 3.62 1 7.24 1.15 10.87.28 7.1 2.68 14.69-5.38 19.81-2.56 1.63-.93 8.76 1.31 11.33a74 74 0 0 1 6.66 9.56c4 6.42 7 13.74 12.08 19.22 9.24 10.06 24.62 9.63 34.5.19 5.79-5.53 9.53-12.24 12.12-19.81a20.21 20.21 0 0 1 5.27-8.13c4.5-4.09 4.76-10.17.84-15.07-2.12-2.66-3.89-6.4-4-9.7-.11-4.87 1.31-9.8 2.28-14.67 2-9.81-1.26-18-10.42-22-7.13-3.11-15.03-4.6-22.6-6.82z"/><path d="M339.95 473.36c-6.07-.11-8.92-2.57-10.09-7.54-2.46-10.49-5.22-20.9-7.81-31.36-2-8-7.63-12.58-14.69-15.89-3.64-1.71-6.72-1.37-10.08 1.24-11.44 8.9-24.09 15.4-38.57 17.76-25.92 4.22-49.57-.89-70.16-17.64-3.31-2.7-6.11-3.09-10-1.8-9 3-13.79 9.67-16.19 18.22-2.64 9.42-4.74 19-7 28.5-1.75 7.26-6.27 10.7-12.28 9.23-5.13-1.26-7.72-6.65-6.16-13.29 2.3-9.86 4.23-19.84 7.25-29.48 4.72-15.1 14.76-25.46 30.09-30.18 8.85-2.73 16.86-1.37 24.33 4.59a70.42 70.42 0 0 0 81.19 4.89 35.53 35.53 0 0 0 5.66-4.09c9.61-8.93 20.27-8.13 31.07-3.08 14.57 6.81 21.86 19.34 25.65 34.34 2 7.88 4 15.74 5.93 23.64 1.72 7.2-2.16 12.14-8.14 11.94z"/></g></g></symbol><symbol viewBox="0 0 576 512" id="vk" xmlns="http://www.w3.org/2000/svg"><path d="M545 117.7c3.7-12.5 0-21.7-17.8-21.7h-58.9c-15 0-21.9 7.9-25.6 16.7 0 0-30 73.1-72.4 120.5-13.7 13.7-20 18.1-27.5 18.1-3.7 0-9.4-4.4-9.4-16.9V117.7c0-15-4.2-21.7-16.6-21.7h-92.6c-9.4 0-15 7-15 13.5 0 14.2 21.2 17.5 23.4 57.5v86.8c0 19-3.4 22.5-10.9 22.5-20 0-68.6-73.4-97.4-157.4-5.8-16.3-11.5-22.9-26.6-22.9H38.8c-16.8 0-20.2 7.9-20.2 16.7 0 15.6 20 93.1 93.1 195.5C160.4 378.1 229 416 291.4 416c37.5 0 42.1-8.4 42.1-22.9 0-66.8-3.4-73.1 15.4-73.1 8.7 0 23.7 4.4 58.7 38.1 40 40 46.6 57.9 69 57.9h58.9c16.8 0 25.3-8.4 20.4-25-11.2-34.9-86.9-106.7-90.3-111.5-8.7-11.2-6.2-16.2 0-26.2.1-.1 72-101.3 79.4-135.6z"/></symbol></svg>