<?xml version="1.0" encoding="utf-8"?><svg xmlns="http://www.w3.org/2000/svg" xmlns:xlink="http://www.w3.org/1999/xlink"><symbol viewBox="0 0 512 432" id="about-i-1" xmlns="http://www.w3.org/2000/svg"><g data-name="Слой 2"><g data-name="Слой 1"><path d="M460 432H52a13.26 13.26 0 0 0-2.25-1c-20.8-4.8-33.49-20.63-33.5-41.86v-50.49q0-78 .1-155.94c0-4.13-.93-6.13-5.29-6.32-4.67-.21-8.64-2.07-11.06-6.39V84a13.35 13.35 0 0 0 1-2.26c5-21.11 20.66-33.49 42.36-33.49h148.89c0-8.31-.51-15.84.19-23.25a37.28 37.28 0 0 1 4.3-13.48C200.1 5.16 206.59 2.46 213 0h86a5.42 5.42 0 0 0 1.21.85c14 5 19.54 12.82 19.54 27.64v19.76h149.89c20.5 0 36.79 13.07 41.26 33A17.92 17.92 0 0 0 512 84v86a12 12 0 0 1-10.59 6.25c-4.69.13-5.78 2.39-5.77 7q.24 103.71.1 207.41a41.56 41.56 0 0 1-30.09 39.66c-1.89.5-3.77 1.1-5.65 1.68zM32 180.53c-.12 2.1-.28 3.56-.28 5v207c0 14.36 9.7 23.72 24.45 23.73h399.47c15.26 0 24.6-9.33 24.61-24.56V180.64c-2.12.3-3.43.42-4.72.67q-53.11 10.24-106.23 20.51c-25.93 5-51.84 10.08-77.78 15-2.78.53-4 1.65-3.82 4.61a87.62 87.62 0 0 1 0 10c-.23 5-3.18 8.2-8.17 8.25q-23.49.21-47 0c-5 0-8-3.15-8.26-8.15a87.79 87.79 0 0 1 0-10c.19-2.87-.84-4.17-3.7-4.71-15.49-2.94-30.95-6.05-46.43-9q-58.72-11.34-117.45-22.63c-8.07-1.58-16.18-3.07-24.69-4.66zm255.71 21.34c2.8-.45 4.92-.74 7-1.15q34.75-6.72 69.51-13.47c42.43-8.25 84.78-16.48 127.21-24.52 4-.76 4.94-2.36 4.91-6.19-.18-22.83-.07-45.66-.1-68.49 0-14.87-9.45-24.29-24.37-24.29H40c-14.84 0-24.2 9.47-24.21 24.44v62.49c0 10.59 0 10.57 10.4 12.78 2.27.48 4.47 1.28 6.75 1.72q79.29 15.3 158.61 30.53l32.7 6.28v-15.61c0-7.19 2.83-10.12 9.84-10.14q22-.06 44 0c6.72 0 9.6 3 9.65 9.82.04 5.14.01 10.27.01 15.8zm-80-154h96.47V31.2c0-15.45 0-15.45-15.5-15.45H216.2c-5.35 0-8.29 2-8.42 6.44-.18 8.47 0 16.94 0 25.72zM272 192.12h-32v31.76h32z"/><path d="M63.74 384h384.51c0-2.34-.06-4.6 0-6.85.16-5.2 3.25-8.74 7.62-8.84s7.69 3.5 7.83 8.61c.12 4.66.11 9.33 0 14-.13 5.6-3.11 8.59-8.62 8.85-1.16.05-2.33 0-3.5 0H60.17c-9.75 0-11.92-2.21-11.92-12.09 0-3.66-.1-7.33 0-11 .18-4.86 3.35-8.26 7.55-8.39s7.67 3.47 7.89 8.57c.13 2.27.05 4.55.05 7.14zM56.3 80.25c4.83 0 9.67-.07 14.5 0 5.24.11 8.77 3.17 8.92 7.54s-3.58 7.87-9 7.91q-14.75.12-29.5 0c-5.26 0-8.77-3.14-8.91-7.52s3.57-7.83 9-7.93c4.99-.07 9.99 0 14.99 0zm63.7 15.5c-5 0-10 .09-15 0-5.14-.12-8.73-3.42-8.69-7.75s3.57-7.63 8.76-7.69q15-.15 30 0c5.14 0 8.73 3.42 8.69 7.74s-3.58 7.58-8.76 7.69c-5 .09-10 .01-15 .01zm63.54 0c-4.83 0-9.66.08-14.49 0-5.17-.11-8.73-3.33-8.77-7.68s3.56-7.7 8.68-7.75q15-.17 30 0c5.18.06 8.73 3.31 8.76 7.67s-3.54 7.65-8.67 7.77-10.34-.02-15.51-.01zm64.85-15.5c4.84 0 9.67-.07 14.5 0 5.19.11 8.75 3.27 8.82 7.62s-3.51 7.76-8.61 7.82c-10 .12-20 .1-30 0-5.19 0-8.75-3.26-8.82-7.62s3.61-7.74 9.11-7.83c5.01-.05 10.01.01 15 .01zm64.07 0c4.84 0 9.67-.08 14.5 0 5.17.11 8.72 3.32 8.75 7.69s-3.53 7.69-8.67 7.74q-15 .17-30 0c-5.15 0-8.73-3.33-8.75-7.68s3.55-7.64 8.68-7.76 10.33.01 15.49.01zM376 95.75c-5 0-10 .09-15 0-5.17-.12-8.72-3.36-8.71-7.72s3.57-7.66 8.72-7.72q15-.15 30 0c5.14 0 8.72 3.38 8.72 7.72s-3.59 7.6-8.73 7.71-10 .01-15 .01zm64.18 0c-5 0-10 .07-15 0-5.24-.11-8.79-3.19-8.91-7.54-.11-4.51 3.59-7.87 9-7.91q14.74-.14 29.49 0c5.24 0 8.79 3.18 8.91 7.53.11 4.51-3.59 7.82-9 7.92-4.82.06-9.67 0-14.49 0z"/></g></g></symbol><symbol viewBox="0 0 455.7 394.16" id="about-i-2" xmlns="http://www.w3.org/2000/svg"><g data-name="Слой 2"><g data-name="Слой 1"><path d="M0 .16c64 0 128 .07 192-.16a19.29 19.29 0 0 1 15.2 6.33c22.28 22.73 44.95 45.08 67.3 67.75a12.08 12.08 0 0 1 3.19 7.71c.19 46.84.14 93.67.14 140.5v6.17l120.85-120.91 6.25 5.23 19.33-21 31.44 31.56-20.43 19.69 5.52 6.53-11.22 8.72L451 178.23l-58.42 58.43-8.58-9.07 47.75-47.48-11.67-10.57c-1 .93-2.44 2.21-3.8 3.56q-55.77 55.6-111.45 111.28c-6.65 6.68-13.56 12.78-22.21 16.62-3.65 1.62-4.92 4-4.89 8.09.21 26.34.11 52.67.11 79v6.07H0zm14.92 380c2 .1 3.27.22 4.59.22q119.73 0 239.47.1c4.45 0 5.17-1.7 5.14-5.56-.15-19.17-.06-38.33-.08-57.5 0-1.6-.16-3.2-.26-4.94a5.73 5.73 0 0 0-1.79.19c-4.95 2.74-9.89 5.5-14.79 8.32-6.1 3.52-13.2 2.71-17.88-2.12s-5.36-11.45-1.91-17.47c7.68-13.44 15.13-27 23.05-40.31 3.11-5.22 7.34-9.77 10.79-14.81 1.32-1.92 2.68-4.36 2.68-6.57.15-49.16.07-98.32.19-147.48 0-4.26-1.48-5.31-5.51-5.27-20.49.17-41 .07-61.49.07h-6.41v-72.6H14.92zm276.13-103.54l128-128-19-19.3-128.27 128.2zM205 72.76h45.71c-15-15.08-30.55-30.76-45.71-46zm56.3 196.92l-20.75 37.39 1.05.78 37.07-20.61zM436 123c-3.51-3.73-6.77-7.19-10.22-10.87l-9.89 10.13 9.86 10.42z"/><path d="M114.74 336.36c4.68-2.11 8.74-3.54 12.39-5.66 16.88-9.77 33.7-10.16 50.63-.25 1.15.67 2.41 1.15 3.54 1.85 9.91 6.12 19 4.47 27.42-3 2.12-1.86 4.12-3.89 6.35-5.63 3.17-2.47 6.6-2.48 9.48.31s3 6.46.21 9.37c-16.68 17.13-31.33 21.34-49.81 11.36-2.19-1.19-4.44-2.27-6.62-3.48-10.5-5.83-20.88-5.39-31.45 0-5.75 2.94-11.62 5.89-17.76 7.74-12.14 3.64-19.91-3.33-18.55-16 .63-6 1.58-11.87 2-17.84.51-7-1.84-9-8.77-8.49-4.19.31-6 2.55-6 6.43-.07 5.49.06 11 0 16.48-.12 15.54-8.93 23.13-24.23 20.05-7.27-1.46-14.32-4.2-21.32-6.78-4.43-1.64-6.06-5.47-4.65-9.11 1.52-3.93 5.27-5.23 10-3.67 6.3 2.09 12.56 4.36 19 6 5.51 1.37 7.33-.3 7.46-6.06.13-6-.37-12 0-18 .84-12.76 8.82-19.72 21.78-19.49s20.59 7.57 20.72 20.57c.07 6.44-1.19 12.89-1.82 19.34-.07.8 0 1.6 0 3.96zM248.48 117.5v13.11H30.35V117.5zM30 174.67c0-3.86-.39-7.54.22-11 .19-1.1 3.07-2.44 4.73-2.45 18.64-.18 37.29-.13 55.94-.13h157.48v13.6zm.48 43.86c-1.83-13.61-1.83-13.63 10.84-13.63h200.29c7.09 0 7.09 0 7.09 6.89v6.74zm-.15 44.23v-14.18H169c6.58 0 6.6 0 6.59 6.45 0 8.7.7 7.72-7.82 7.72h-131z"/></g></g></symbol><symbol viewBox="0 0 447.03 336.5" id="about-i-3" xmlns="http://www.w3.org/2000/svg"><g data-name="Слой 2"><g data-name="Слой 1"><path d="M447 281.72c-.54 2.24-1 4.5-1.62 6.72-3.07 11.16-11.63 17.56-24.67 17.91-3.6.1-5.06 1.1-6.13 4.63a35.52 35.52 0 0 1-34.4 25.52 36.11 36.11 0 0 1-34.64-25.31c-1.17-3.8-2.74-4.81-6.51-4.8q-80 .18-160 0c-3.49 0-5.16.82-6.29 4.42-5 16-18.36 25.67-34.76 25.67a36 36 0 0 1-34.37-25.63c-1.14-3.68-2.79-4.65-6.28-4.45-4.49.25-9 .06-13.5.06-17.31 0-27.37-9.86-27.45-27.22q-.18-39.5 0-79c0-4-1.18-6.14-4.75-8.15C15 171.53-5.72 127.71 1.39 86.08 8.65 43.51 41.46 9.73 83.13 1.9c53.1-10 103.09 20.16 118.65 71.72 1.17 3.87 2.82 5.2 6.91 5.18 30.33-.18 60.66-.1 91-.12 17.84 0 27.67 10.15 27.29 28.09-.16 7.33.17 14.67-.11 22-.16 4.08 1.44 5.1 5.25 5.07 18.33-.16 36.66-.11 55-.09 21 0 31.93 7.55 39.31 27.3 5.94 15.89 11.57 31.89 17.43 47.8a44.13 44.13 0 0 0 3.19 5.88zm-133.61 11.06V146.94c0-14.31.23-28.62-.18-42.91C313 95 309 91.73 300 91.72q-44.22-.06-88.45 0c-1.77 0-3.54.22-5.4.33 2.27 37.17-9.7 68.05-38.5 91.22s-61.85 28.26-97.11 17.81c-.34.76-.59 1.06-.59 1.36 0 26.82-.16 53.64 0 80.45 0 5.65 4.76 9.88 10.45 10 5.49.15 11-.22 16.49.13 4.15.26 6-1.13 7.37-5.19 5.24-15.08 18.6-24.18 34.35-24a36.34 36.34 0 0 1 34.17 24.54c.53 1.51 1.11 3 1.63 4.4zm-121-189.63c1.92-47.15-38.75-90.27-89.77-90.06-48.53.21-89.16 40.32-89.31 89-.16 49.89 39.94 90.62 89.23 90.51 54.46-.13 91.35-45.32 89.87-89.45zM327.52 293c4.57 0 8.4-.21 12.2.07 3.41.25 4.8-1 5.92-4.29 5.2-15.45 18.53-24.92 34.31-24.9 16.1 0 29.48 9.54 34.7 25.08 1 3.06 2.32 4.17 5.54 4.12 8.64-.15 13-4.16 13-12.8.05-16-.26-32 .12-48a66.69 66.69 0 0 0-4.74-26.71c-5.32-13.44-9.93-27.17-14.85-40.77-4.58-12.7-12-18-25.58-18-18.16 0-36.33.16-54.48-.1-4.94-.07-6.6 1.17-6.57 6.36.18 44.65.09 89.3.1 134-.01 1.73.19 3.53.33 5.94zm-189.6 30.11c12.65.14 23.1-9.62 23.31-21.77.23-13.12-9.71-23.74-22.35-23.86-13.77-.14-23.42 9.76-23.51 24.14-.07 11.32 10.43 21.38 22.55 21.46zm242 0c12.3.11 22.94-9.73 23.21-21.45.29-13.39-9.71-24.11-22.58-24.2-13.42-.1-23.42 10.05-23.47 23.82-.08 11.56 10.57 21.72 22.84 21.82z"/><path d="M206.94 223.73h-63.49c-1.66 0-3.82.55-4.89-.28-2.12-1.64-5-4.06-5-6.16s2.87-4.52 4.92-6.28c.89-.76 2.9-.27 4.4-.27h127.48c7.63 0 10.68 2 10.55 6.74s-2.94 6.29-10.45 6.29zm44.14-46.11h-22.47c-4.3 0-7-1.94-7.36-6.35-.29-3.87 2.46-6.56 7.07-6.6q22.71-.19 45.43 0c4.59 0 7.18 2.66 7.13 6.59s-2.75 6.3-7.33 6.36c-7.49.06-14.98 0-22.47 0zM96.39 79.18c0-6.83-.08-13.66 0-20.49.08-5.17 2.71-8.22 6.78-8.19s6.59 3 6.61 8.25c0 12 .17 24-.07 36a9.58 9.58 0 0 0 4 8.44c12.64 10.32 25.22 20.74 37.58 31.39a11 11 0 0 1 3.4 7.07c.19 4.15-4.3 6.72-8.17 5.06a23.06 23.06 0 0 1-5.37-3.55c-13.23-10.93-26.32-22-39.64-32.82a13.15 13.15 0 0 1-5.29-11.65c.25-6.49.06-13 .06-19.49zM376 223.74c-7.49 0-15 .09-22.47 0-5.46-.08-7.68-2.11-7.73-7.55q-.22-22 0-43.95c.06-5.42 2.27-7.53 7.71-7.59 9.33-.11 18.65-.06 28 .08 7.11.11 12.05 3.81 14.52 10.28 5 13.19 9.81 26.48 14.49 39.79a7.32 7.32 0 0 1-7.08 9.62h-27.4zm18.66-13.1c-3.87-10.82-7.34-20.79-11.12-30.65-.43-1.12-2.61-2.15-4-2.21a154.75 154.75 0 0 0-17 .05c-1.29.08-3.45 2.13-3.5 3.33-.31 8.64-.27 17.3-.07 26 0 1.19 1.58 3.35 2.47 3.37 10.79.19 21.56.11 33.24.11z"/></g></g></symbol><symbol viewBox="0 0 432 448" id="about-i-4" xmlns="http://www.w3.org/2000/svg"><g data-name="Слой 2"><path d="M181 448h-26c-2.45-.35-4.9-.71-7.36-1-15.48-2.06-31.06-3.51-46.39-6.35C86.8 437.94 73 433 61.13 423.75c-8.05-6.26-12.87-14.28-12.87-24.75V256.57a27.71 27.71 0 0 1 6.43-18l3.46-4.25c-8.53-2.63-16.75-4.74-24.66-7.68C18.28 221 4.87 213.08 0 196V46c1.47-4 2.45-8.3 4.52-12 4.65-8.29 12.4-13.23 20.73-17.22C43.91 7.84 64 4.4 84.3 2.21 91.86 1.39 99.43.73 107 0h27c1.95.34 3.89.78 5.86 1 14.14 1.78 28.48 2.9 42.53 5.38 15.62 2.76 30.72 7.56 43.72 17.25 9.14 6.81 13.89 15.75 13.7 27.4-.25 15.83-.06 31.66-.06 47.5v4.35c19-2.07 37.41-4.71 55.93-5.95 31.08-2.08 62 .13 92 8.71 19.07 5.44 37.61 12.52 44.29 34.36v152c-2.57 7.25-5.53 14.47-12.19 18.83s-13.73 9-21.25 11.78c-32.21 11.9-65.84 13.75-99.78 12.74-3.57-.11-7.14 0-11 0 0 20.61-.22 40.92.08 61.21.18 12.06-4.58 21.32-14.22 28.08a85.62 85.62 0 0 1-14.27 8.12c-17.67 7.84-36.49 11-55.56 13.05-7.59.79-15.19 1.46-22.78 2.19zm-13.4-159.7c22.23.13 44.24-1.79 65.85-7.15 11.66-2.89 23.22-6.27 32.67-14.18 8.31-7 8.58-15.29-.07-21.8a76.27 76.27 0 0 0-19.24-10.23c-17.91-6.64-36.71-9.13-55.71-10.41-30.24-2-60.24-.71-89.78 6.55-10.84 2.67-21.51 6.1-30.49 13.13-9.55 7.49-9.77 16.28.06 23.43a71.37 71.37 0 0 0 18 9.37c25.48 8.99 51.97 11.12 78.71 11.29zm144.06-112l.18 1.35c19-2.17 38-3.82 56.91-6.68 13.82-2.1 27.36-6 39.07-14.21 11.38-7.95 11.54-18.1-.15-25.51A92.62 92.62 0 0 0 385.09 121c-30.68-9.23-62.24-10.45-94-8.72-17.63 1-35.19 3.11-52 8.67a101.63 101.63 0 0 0-23 10.5c-11.42 7.36-11.25 17.44 0 25.14A73.27 73.27 0 0 0 233 165c25.46 9 51.94 11.11 78.66 11.33zm-191.89-96c22.22.12 44.23-1.8 65.83-7.17 11.81-2.94 23.53-6.38 33-14.61 7.64-6.65 8-14.65 0-20.74a79.62 79.62 0 0 0-20-10.86c-18.52-7-38-9.46-57.68-10.58-31.73-1.81-63.33-.67-94 8.73A93.91 93.91 0 0 0 21.7 37.48c-8.43 5.82-8.31 14.66-.14 20.91A73 73 0 0 0 41.13 69C66.52 78.05 93 80.13 119.77 80.3zm-104-6c0 7.48.36 14.15-.1 20.76-.44 6.33 2.12 10.93 7.35 13.57 7.67 3.89 15.43 8.08 23.65 10.31 45.49 12.32 91.42 12.62 137.27 2.42 11.18-2.48 21.83-7.69 32.4-12.39 3.15-1.4 7-5.12 7.36-8.15 1-8.57.35-17.33.35-26.39-33 18.18-68.43 21.1-104.13 21.08S48.77 92.62 15.75 74.32zm48 208c0 5.95.61 11.32-.13 16.51-1.57 11 3.83 17.23 13.09 21.35 2.27 1 4.49 2.16 6.81 3.06 19.57 7.64 40 10.79 60.86 12.2 30.21 2.06 60.27 1.12 89.69-6.5 10.49-2.72 20.55-7.43 30.42-12.07 3.2-1.51 6.91-5.49 7.32-8.73 1-8.28.34-16.79.34-25.8-32.85 18.29-68.3 21.17-104 21.2S97 300.67 63.75 282.32zm0 48c0 7.64.29 14.62-.09 21.57-.31 5.53 1.84 9.64 6.37 12 7.16 3.79 14.36 8 22.06 10.18 46.37 13.39 93.25 13.51 140.12 3.16 11-2.43 21.54-7.53 31.93-12.21 3.27-1.47 7.2-5.36 7.6-8.54 1.06-8.43.36-17.09.36-26.15-32.86 18.22-68.31 21.13-104 21.14S97 348.65 63.75 330.36zm0 48c0 7.67.29 14.65-.09 21.6-.29 5.3 1.62 9.42 6 11.75 7.28 3.91 14.62 8.18 22.47 10.46 46.19 13.39 92.87 13.22 139.68 3.48 11.59-2.41 22.94-5.91 32.81-12.7 3-2.06 6.8-5.31 7.16-8.38 1-8.44.34-17.08.34-26.14-32.86 18.24-68.31 21.13-104 21.15s-71.21-2.85-104.39-21.2zm144-208c0 7.81.24 14.8-.08 21.76-.24 5.07 1.53 9.15 5.76 11.33 8.21 4.25 16.42 9.09 25.24 11.5 45.29 12.41 91.08 12.59 136.78 2.61 11.34-2.48 22.15-7.79 32.87-12.54 3.15-1.4 7-5.13 7.36-8.16 1-8.56.35-17.32.35-26.39-33 18.21-68.43 21.11-104.13 21.1s-71.15-2.88-104.17-21.18zm-192-46.59c0 5.91.37 12.68-.11 19.4-.44 6.14 2.14 10.28 7 13.31 3.37 2.11 6.77 4.56 10.51 5.63C47 166.06 60.8 170.49 75 173c24.7 4.38 49.75 4.45 74.67 1.95 13-1.3 25.87-4.24 38.75-6.7 1.46-.28 3.66-2.22 3.7-3.45.3-9.73.17-19.49.17-28.08C174 138.81 155 141.6 135.83 143a265 265 0 0 1-84.22-6.87c-12.11-2.99-23.69-8.13-35.86-12.39zM192 184a15.69 15.69 0 0 0-2-.08c-18.59 2.47-37.11 6-55.79 7.2-32.2 2-64.19-.58-95.17-10.43-7.81-2.49-15.19-6.35-23.27-9.79 0 5.84.61 11.69-.14 17.37C14.36 197.85 18.9 203.93 27 207c12.21 4.63 24.71 8.58 37.3 12.08 5.63 1.57 12.42 3.33 17.55 1.61 31.27-10.48 63.45-12.63 96-12.3 4.59.05 9.19.48 14.09.75zm224.14 34.74c-42.61 21.9-88 22-134.85 19.87 8.58 10.08 5.86 21.66 6.77 32.56 2.31.31 4.11.7 5.92.77 27.36 1.15 54.66.5 81.3-6.27 11.46-2.92 22.44-8 33.31-12.79 3.12-1.39 6.85-5.2 7.21-8.26.94-8.48.29-17.13.29-25.91zm-128.2 100.35c2.07.3 3.7.69 5.35.76 29.38 1.27 58.64.44 87.13-7.56 9.82-2.75 19.24-7.19 28.44-11.67 3.07-1.49 6.6-5.32 7-8.43 1-8.32.33-16.82.33-25.58-40.71 21.37-84.33 21.71-128.21 20.55z" data-name="Слой 1"/></g></symbol><symbol viewBox="0 0 496 448" id="about-i-5" xmlns="http://www.w3.org/2000/svg"><g data-name="Слой 2"><g data-name="Слой 1"><path d="M265 448c-7-3.42-9.05-9.09-8.86-16.69.73-28.65 2-57.19 11-84.75 1.29-3.94 2.74-7.85 4.41-11.64 11.89-26.94 32.21-42.44 61.73-45.63a10.94 10.94 0 0 0 6.24-3.22c15.1-16.19 29.91-32.66 45.1-48.77a55.67 55.67 0 0 1 12.23-9.21c2.53-1.51 3.48-2.91 3.46-5.77-.12-14.81-.08-29.63-.05-44.45 0-20 13.43-33.37 33.52-33.62a5.72 5.72 0 0 0 4-1.91c8.41-11.18 19.32-16.24 33.13-13.08 13.28 3 21.22 11.72 24.16 25A7.38 7.38 0 0 0 496 156v93a21.74 21.74 0 0 0-1 3.8 105.53 105.53 0 0 1-20.95 55.74c-8.9 12-18.63 23.45-28.57 34.62-15.93 17.91-32.4 35.33-48.51 53.07-9 9.89-13.88 21.52-13.15 35 .42 7.56-1.94 13.24-8.82 16.75zm114.23-99.59c1.46-16.17 5.91-29.55 16.46-40.61s20.52-22.34 30.78-33.5c5.12-5.58 7-12 5.13-19.37-2-7.76-7.14-12.81-14.85-14.66s-14.53.3-19.95 6.23c-15.4 16.85-31 33.55-46 50.72-4.57 5.21-9.4 7.32-16.18 7.67-16.87.9-31.16 7.86-40.55 22.11a118.6 118.6 0 0 0-13 26.79c-6.78 20-8.35 41-9.17 62-.21 5.4 0 10.82 0 16.11h96.68c-1.26-22.36 9.61-39.09 24-54.27 8.37-8.82 16.67-17.74 24.7-26.86 14.85-16.87 30.16-33.4 44-51.06 13.56-17.27 19.21-37.69 19-59.76-.23-26 0-52-.07-78a24.56 24.56 0 0 0-.61-6.42 16.24 16.24 0 0 0-18-11.69c-7.87 1-13.82 7.87-13.83 16.37v94.49c0 12.62-3.77 23.64-12.72 33.1-17.06 18-33.61 36.55-50.38 54.86-1.48 1.59-2.97 3.13-5.44 5.75zM432 160.15c-8.48-.35-15.95 6.07-16.1 14.4-.29 15.61-.14 31.24 0 46.85 0 1.18.93 3 1.88 3.4 4.58 1.77 9.31 3.14 14.24 4.72zM0 156a33.87 33.87 0 0 0 1.19-3.18c3.3-12.33 11-20.49 23.41-23.49 13.1-3.17 24 1.1 32.32 11.57 1.94 2.44 3.59 3.53 6.88 3.48 17.65-.25 31.72 14 31.91 32.17.16 15.16.11 30.33 0 45.49 0 3 .92 4.52 3.65 6.15a60 60 0 0 1 12.88 10c14.64 15.52 28.85 31.43 43.44 47a14 14 0 0 0 7.86 4.2c34.71 4 54.72 24.87 65.17 56.61 9.66 29.34 10.92 59.77 11 90.31 0 5.92-4.17 9-8.7 11.71H121c-6.9-3.5-9.24-9.17-8.83-16.75.66-12.51-3.51-23.55-11.59-33.08q-6.45-7.62-13.14-15c-19-21-38.33-41.63-56.89-63-12.76-14.72-22.41-31.45-26.83-50.69-1.56-6.76-2.5-13.66-3.72-20.5zm116.66 192.34c-2.06-2.2-3.18-3.38-4.28-4.59-16.9-18.42-33.51-37.1-50.78-55.16-9.52-9.95-13.52-21.27-13.42-34.77.22-30.49.08-61 0-91.48a25.66 25.66 0 0 0-.64-6.91 16.21 16.21 0 0 0-31.8 4.44c-.07 27.16 0 54.32 0 81.48-.06 19.7 4.58 38.25 16.15 54.13 10.86 14.89 23 28.89 35.17 42.77 14.49 16.54 29.72 32.43 44.37 48.83 7.77 8.7 13.14 18.82 15 30.51.75 4.72 1.09 9.49 1.62 14.23h96.54c-.49-11.08-.68-21.73-1.48-32.33-1.31-17.46-3.87-34.72-9.94-51.27-5.63-15.37-13.54-29.43-28.86-36.75-7.75-3.7-16.71-5.15-25.29-6.69-4.92-.88-8.81-2-12.36-6-15.46-17.44-31.28-34.59-47.06-51.78-8.35-9.09-20.89-9.84-29.36-2s-8.79 20.38-.5 29.47c9.76 10.71 19.34 21.61 29.42 32 11 11.39 16.15 24.96 17.5 41.87zM64.14 160.16v69.36c4.85-1.58 9.46-2.88 13.88-4.65 1.07-.43 2.12-2.42 2.13-3.7.14-15.33 0-30.67.1-46 .04-7.46-7.79-16.26-16.11-15.01z"/><path d="M256 0c7.83 1.37 15.73 2.43 23.48 4.16C332.19 16 373.87 61.69 382 115c10.91 71.2-35.47 137.5-103.85 153.25C201.9 285.84 125.86 234.38 114 156.79A135.68 135.68 0 0 1 230.71 1.37C233.81 1 236.9.46 240 0zm-8 15.75c-65.89-.07-120.06 53.54-120.23 119-.18 67 53.08 121.32 119.23 121.49 67.36.18 121.2-53.33 121.26-120.5C368.3 69.58 314.43 15.83 248 15.75z"/><path d="M205.47 179v-13.68h12.32v-11.54l-12.25-.57V140a63 63 0 0 1 7 .05c4.32.49 5.76-1 5.7-5.54-.25-17.65-.1-35.31-.1-53v-5.7a15.56 15.56 0 0 1 3-.57c13.64.23 27.34-.22 40.9 1 20.18 1.75 33.65 14.61 34.75 31.63 1.45 22.48-9.5 39.14-30.1 43.73-9 2-18.48 1.51-27.74 2.16l-4.16.31v11h55.77v13.65c-2.05.09-4 .25-5.92.26-14.83 0-29.65.2-44.47-.1-4.75-.09-6.06 1.53-5.77 6 .34 5.1.08 10.25.08 15.61h-16.31c0-5.4-.25-10.84.08-16.24.25-4.23-1.33-5.72-5.41-5.3-2.28.24-4.61.05-7.37.05zm29-64.22c0 7 .16 14-.07 21-.12 3.57 1.2 4.72 4.62 4.46 6.3-.46 12.65-.37 18.9-1.09 13.66-1.59 22.2-11.64 22.2-25.6 0-13.06-7.76-22-21-23.52-6.75-.77-13.6-.61-20.41-1-3.26-.2-4.39 1.09-4.31 4.33.23 7.11.11 14.26.11 21.42z"/></g></g></symbol><symbol viewBox="0 0 464 512" id="about-i-6" xmlns="http://www.w3.org/2000/svg"><g data-name="Слой 2"><g data-name="Слой 1"><path d="M294 512c-4.66-2.75-5.85-6.84-5.85-12.15q.19-158.49.1-317v-7.12H153.56c-7.77 0-9.81 2-9.81 9.63 0 37.33.54 74.68-.2 112-.46 22.76-2.82 45.48-4.48 68.21-1.31 17.92-2.84 35.83-4.31 53.74q-2.19 26.63-4.44 53.24c-.42 5-1.1 9.93-1.35 14.91-.63 12.19-7.35 19.48-18.4 23.44A7.38 7.38 0 0 0 109 512H68c-1.23-.46-2.47-.9-3.69-1.39-8.93-3.55-15.31-9.61-16.91-19.3-1.24-7.7-1.5-15.56-2.14-23.35-1.46-17.9-2.86-35.8-4.34-53.7q-2.81-34-5.69-68.09c-.73-8.72-1.53-17.43-2.33-26.42-2.28 0-4.09-.08-5.9 0-7.2.35-13.82-1.61-18.52-7C5 308.78 2.78 303.64 0 299V173c.39-1.08.89-2.14 1.17-3.25 4.19-16.59 14.21-27.46 31-31.68 12.08-3 24.23-5.82 36.24-9.1 4.76-1.3 8.14.13 11.07 3.49 2.58 3 5 6.12 8.18 10.12 3.08-3.59 4.9-5.53 6.51-7.63 4.09-5.37 9.36-6.87 16.1-6.84 57.12.25 114.24.14 171.36.14h6.61v-6.7c0-36.47.09-72.94-.1-109.41 0-5.31 1.19-9.39 5.85-12.14h4c5.48 2.86 6.21 8 5.9 13.57 5.6-.67 10.53-1.45 15.5-1.82 19.58-1.48 37.81 2.3 53.5 14.76 6 4.73 12.51 9.39 10.82 19 5.82-.65 11-1.49 16.3-1.8 25.5-1.46 47.71 5.22 64 26.29v84c-5.72 7.5-9.12 7.63-15.89.73-10.05-10.25-22.45-15.16-36.62-16A89.51 89.51 0 0 0 379 143c-5.81 1.84-10.29-1.32-10.72-7.35a14.4 14.4 0 0 1 0-4c1.67-7.91-2.71-12.3-8.77-16.08-16.69-10.42-34.61-10.54-53-6.53-1.11.24-2.2 2.08-2.65 3.39s-.11 3-.11 4.47q0 191.48.09 383c0 5.31-1.17 9.4-5.84 12.15zm-6-368.25h-6.53c-51.83 0-103.66.42-155.48-.29-13-.18-23.82 1.54-31.46 12.86a1.93 1.93 0 0 1-.35.35c-4.39 4-7.92 4.12-12.23.07-3.4-3.2-6.45-6.78-10-9.76a7.45 7.45 0 0 0-5.61-1.54c-10.54 2.3-21 4.86-31.49 7.57-13 3.38-19.07 11.38-19.07 24.94 0 37.33.19 74.66-.1 112-.11 14.47 2.1 14.87 15.22 14.17.29 0 .57-.27 1.38-.68V201.83c0-5.85 3.26-9.68 7.91-9.54s7.45 3.79 7.56 9.41v4c.84 43.95-1.92 87.95 2 131.87 1.94 21.88 3.6 43.78 5.41 65.67Q57.45 431.1 59.8 459c.87 10.28 1.85 20.55 2.81 30.81.38 4.11 2.66 6.43 6.83 6.45 12.33.07 24.66.05 37 0 3.85 0 6.37-1.89 6.85-5.84.56-4.61 1-9.25 1.37-13.89q2.32-27.11 4.58-54.22c1.53-18.24 3.13-36.48 4.48-54.73 1.64-22.06 3.93-44.13 4.34-66.22.72-38.15.19-76.32.2-114.49 0-15.81 10.81-26.57 26.68-26.58H288zm80.26-41v-6.3c0-14.82-.61-29.68.24-44.46.48-8.38-3.1-12.88-9.51-16.78-15.59-9.5-32.3-9.87-49.65-7-4.73.78-5.75 2.77-5.68 7.21.25 17.48.1 35 .1 52.47v5.92c22.62-4.53 43.93-3.36 64.49 8.97zm80 32v-6.39c0-14.32-.88-28.72.3-42.94.84-10.27-4-15.34-11.79-19.52-.73-.39-1.48-.75-2.23-1.12-14.88-7.33-30.38-7.27-46.26-4.26-3.55.67-4.62 2-4.59 5.5.15 18.49.06 37 .09 55.46a17.73 17.73 0 0 0 .22 2.57c11.22 0 22-.31 32.73.09 10.97.42 20.95 4.6 31.52 10.61z"/><path d="M93 0c7.86 3 16.3 4.9 23.48 9 20.16 11.58 30.46 35.25 26.12 57.55-4.3 22.06-24.2 41-46.67 44.31-31.86 4.75-62.6-20.95-63.66-53.22C31.4 31.26 52.71 5.42 78.76 1.23A34.08 34.08 0 0 0 83 0zm-5.39 96.25c23.59 0 40.22-16.41 40.74-39.23.55-24.15-17.68-41.45-39.71-41.31-23.91.15-40.86 16.39-40.89 39.52-.03 24.17 16.33 41.01 39.86 41.02z"/></g></g></symbol><symbol viewBox="0 0 344.96 344.96" id="check" xmlns="http://www.w3.org/2000/svg"><g data-name="Слой 2"><path d="M321.85 86.24l-40-23.11-23.1-40H212.5L172.48 0l-40 23.11H86.24l-23.11 40-40 23.1v46.21L0 172.48l23.11 40v46.21l40 23.11 23.11 40h46.21l40 23.1 40-23.11h46.21l23.11-40 40-23.11V212.5l23.11-40-23.11-40V86.24zM156.91 243.07a16.79 16.79 0 0 1-23.34 0l-50.45-50.44a16.19 16.19 0 0 1 0-22.89l13.35-13.35a16.19 16.19 0 0 1 22.89 0l25.87 25.87 80.34-80.35a16.19 16.19 0 0 1 22.89 0l13.35 13.35a16.19 16.19 0 0 1 0 22.89z" data-name="Capa 1"/></g></symbol><symbol viewBox="0 0 14 8" id="down" xmlns="http://www.w3.org/2000/svg"><defs><path id="ha" d="M1225.293 3080.707l1.414-1.415 5.293 5.293 5.293-5.293 1.414 1.415-6 6-.707-.708-.707.708z"/></defs><g transform="translate(-1225 -3079)"><use xlink:href="#ha"/><use xlink:href="#ha"/></g></symbol><symbol viewBox="0 0 491.29 267.47" id="header-i-1" xmlns="http://www.w3.org/2000/svg"><g data-name="Слой 2"><path d="M491.29 137.23v26c-1.37.91-.91 2.39-1.08 3.64-1.93 14.49-5.36 28.49-13.67 40.82-6.05 9-13.93 14-25.46 13.73-24-.52-48-.08-72-.24-3.7 0-5.18 1.07-6 4.72-2.27 10.68-6.28 20.7-13 29.45-4.82 6.29-10.87 10.74-18.87 12.12-20-.05-40-.14-60-.14q-121.95 0-243.91.07c-9.31 0-16.37-3.64-22-10.71-4.42-5.56-7.15-12-9.39-18.63C.8 222.52-.19 206.45 0 190.23c.42-4.47.69-9 1.3-13.4 1.85-13.44 5.07-26.48 12.74-38 5.62-8.41 13.21-13.43 23.82-12.79 3.48.21 7 0 10.48 0 9.86 0 9.67.08 5.88-9-8.63-20.78-10.09-42.49-7.42-64.63 1.57-13 5-25.45 11.63-36.84C63.35 7.14 70.07 1.07 80.29 0c1.33.05 2.66.14 4 .14h168.73Q320.66.13 388.3 0c8 1.25 14 5.69 18.77 12.08a58.94 58.94 0 0 1 7.27 13c6 14.7 8.11 30.08 8.05 45.85 0 9.08 0 9.09 9.29 9.11 6.65 0 13.33.36 19.95-.08 11-.71 18.76 4.44 24.77 13 6.24 8.86 9.48 18.93 11.91 29.37 1.15 4.96.78 10.19 2.98 14.9zm-269.43-11.1h64q37.25 0 74.48-.06c1.85 0 5.08.94 2.94-3.12-7.94-15.08-10.94-31.39-11.37-48.19-.52-19.65 1.37-39 10.65-56.8 2.38-4.58.79-4.67-3.09-4.67q-137 .09-273.9 0a12.74 12.74 0 0 0-10.8 5.09 37.76 37.76 0 0 0-6.59 11.68c-6 18.42-8.69 37.29-6.72 56.64 1.08 10.66 3.7 21 9.26 30.33 3.67 6.2 8.42 9.33 16.21 9.27 44.97-.3 89.95-.17 134.93-.17zm-46.93 14.2c-45.15 0-90.29.1-135.44-.11-6.1 0-10.13 2.32-13.31 7.07a39.84 39.84 0 0 0-5 10.3 140 140 0 0 0-6.61 36.75c-.66 17.35 1.38 34.27 10.1 49.76 3.44 6.11 8.16 9.19 15.74 9.16 66-.24 131.93-.14 197.9-.14h74c2.08 0 4.88.61 2.83-3.23-7.73-14.41-10.72-30.07-11.35-46.16-.78-20.15 1.17-39.95 10.35-58.38 2.49-5 2.54-5-3.28-5zM431.85 207c-16.93-37.93-16.83-75.07-.43-112.26-9.42-1.37-9.42-1.37-11.48 7.26-2.29 9.47-5.72 18.46-11.71 26.27-6.13 8-13.79 12.81-24.37 12.1-5.3-.35-10.67.16-16-.13-4.39-.24-4.17 1.28-2.47 4.4 3.92 7.22 6.27 15 8 23 2.48 11.48 3.1 23.09 2.95 34.78 0 2-.74 4.55 2.83 4.54 17.48.04 34.94.04 52.68.04zM365.19 69.43a104.5 104.5 0 0 0 6.06 37.74 48.24 48.24 0 0 0 7 13.18c5.78 7.4 11.19 7.42 16.92.08a49.16 49.16 0 0 0 7.28-14.14 102.59 102.59 0 0 0 5.43-28.85c1-17.31-.81-34.24-7.89-50.31a32.71 32.71 0 0 0-6.5-10c-4.87-4.91-8.89-4.91-13.73 0-4.07 4.12-6.48 9.25-8.45 14.58a105.36 105.36 0 0 0-6.12 37.72zm67.38 80.62c.31 9.1.8 17.91 2.85 26.54 2.2 9.28 5.06 18.33 11.42 25.77 5.21 6.09 9.56 6.09 14.93.09 4.19-4.68 6.75-10.31 8.57-16.22 7-22.71 7.1-45.56 1-68.45-1.86-7-4.66-13.57-9.48-19.08-5-5.71-10.13-5.65-15.18 0a38.1 38.1 0 0 0-6.06 9.72c-6.06 13.32-7.55 27.52-8.05 41.63zm-113.22 46.7c0 3.16-.23 6.34 0 9.48 1.2 14.21 3.81 28.08 12.11 40.11 6.11 8.86 11.69 8.75 17.73 0a31.48 31.48 0 0 0 3-5.16c12.07-28 13.33-56.3 2.37-84.91a32.24 32.24 0 0 0-8.7-13.22c-4-3.51-7-3.53-11.05 0s-6.62 8.29-8.65 13.25c-5.26 12.93-7.16 26.51-6.81 40.45z" data-name="Слой 1"/></g></symbol><symbol viewBox="0 0 496.52 420.54" id="header-i-2" xmlns="http://www.w3.org/2000/svg"><g data-name="Слой 2"><path d="M136.31 420.52h-66c-4.9-1-6.8-4.27-6.81-9 0-4-.26-8 .07-11.94S62.29 395 58.72 395c-16.25.17-32.5 0-48.75.11-4.57 0-8.17-1.2-9.85-5.85l-.12-97c1.05-5.18 4.52-6.93 9.45-6.91 16 .06 32-.24 48 .16 5.31.14 6.63-1.59 6.15-6.44a89.73 89.73 0 0 1 0-11.48c.18-5.67 2.76-8.35 8.29-8.37q31.23-.09 62.45 0c5.88 0 8.5 2.58 8.72 8.52.17 4.66.12 9.33 0 14 0 2.36.48 3.69 3.27 3.68q21.5-.15 43 0c2.43 0 3.3-.94 3.12-3.25-.1-1.32 0-2.66 0-4v-149.9c0-50 33.86-90.12 83.25-98.56 11.37-1.94 22.92-1.14 34.4-1.17 7.17 0 14.33-.14 21.49 0 3.29.09 4.41-1.07 4.27-4.32-.21-5-.17-10 0-15 .01-4.42 1.3-8.22 6.45-9.22h67c4.43 1.55 6 4.83 5.93 9.32-.1 5 .16 10-.08 15-.17 3.35 1.1 4.22 4.3 4.2 17.16-.12 34.33-.06 51.49 0 8.59 0 11.07 2.43 11.08 11v84c0 8.42-2.34 10.79-10.57 10.8h-50c-7.08 0-6.2-.83-6.26 6.5 0 4.34.09 8.67 0 13-.15 5.56-2.84 8.39-8.34 8.41q-31.25.13-62.49 0c-5.57 0-8.15-2.45-8.52-8.27a142.92 142.92 0 0 1 0-15.49c.16-3.34-1-4.45-4.28-4.21-5.12.38-10.3-.49-15.41.87-10.41 2.76-17.9 11.79-17.92 22.52-.09 41.16 0 82.32-.1 123.48 0 3.16.76 4.36 4.15 4.33q26-.23 52 0c3.3 0 4.38-1 4.21-4.25-.24-4.65-.18-9.33 0-14 .18-5.25 2.92-8 8.17-8q31.25-.1 62.49 0c6.11 0 8.88 3.17 8.75 9.56-.09 4.16-.08 8.33-.4 12.48-.26 3.35 1.05 4.22 4.28 4.19 15.16-.15 30.33 0 45.49-.08 4.47 0 7.79 1.45 9.33 5.91q0 46.42-.08 92.87c0 8.92-2 10.93-10.74 10.93-14.31 0-28.63.14-42.94-.08-4-.06-5.8.82-5.38 5.17a102.2 102.2 0 0 1 .08 11.48c-.11 6.44-2.3 8.72-8.74 8.74-20.47.06-40.94 0-61.42 0-1 0-2 .05-3 .08-4.36-1.55-6.16-4.67-6-9.24.16-4-.15-8 .09-12 .19-3.24-.89-4.33-4.2-4.25-8.82.2-17.64.06-26.46.06q-89.59 0-179.19-.08c-4.24 0-6.12.82-5.62 5.44a81.3 81.3 0 0 1 0 11.47c-.17 4.44-1.94 7.74-6.7 8.66zm114.5-41.23c34 0 68-.1 102 .11 4.72 0 5.72-1.39 5.68-5.83q-.32-33.74 0-67.49c0-3.89-1-5.07-5-5-20.49.2-41 .12-61.48.08-7.08 0-9.63-2.57-9.63-9.67 0-44.49-.1-89 0-133.47.05-12.74 5.48-23.1 15.48-31.07 9.78-7.8 21.24-9 33.09-8.38 3.74.19 4.84-1.05 4.81-4.79q-.26-32.49 0-65c0-4-1.48-4.62-4.94-4.58-14.16.16-28.33-.12-42.49.13a74.28 74.28 0 0 0-31.88 7.32c-31.62 15.62-48.11 41.14-48.28 76.5-.25 54-.06 108-.07 162 0 8.82-2.16 11-10.81 11-16.16 0-32.33.15-48.48-.09-4.41-.06-6 .92-5.93 5.69q.39 33.5 0 67c-.06 4.82 1.57 5.67 5.93 5.65 34.02-.19 68.01-.12 102-.11zM127.3 340c0-20.49-.07-41 .07-61.47 0-3.39-.79-4.63-4.4-4.57q-19.48.3-39 0c-3.68-.06-4.82.88-4.81 4.69q.21 61 0 121.93c0 3.42.85 4.62 4.42 4.56 13-.19 26-.21 39 0 3.7.06 4.82-.88 4.78-4.69-.16-20.13-.06-40.29-.06-60.45zM398.59 80.74c0-20.16-.07-40.32.07-60.48 0-3.53-.66-5-4.63-5q-19.23.38-38.48 0c-4-.07-5.09 1.26-5.08 5.15q.18 60.72 0 121.45c0 3.38.83 4.67 4.43 4.62q19.5-.3 39 0c3.76.06 4.8-1.11 4.77-4.82-.16-20.27-.08-40.6-.08-60.92zm23.6 259c0-20.33-.09-40.67.08-61 0-3.72-1-4.86-4.76-4.79-12.83.23-25.67.19-38.5 0-3.51-.05-5 .62-4.95 4.6q.22 61 0 122c0 3.37.79 4.66 4.41 4.6 12.83-.2 25.67-.24 38.5 0 4.27.09 5.31-1.4 5.27-5.44-.15-19.96-.05-39.96-.05-59.96zm44.11-258c0-11.16-.08-22.33.05-33.48 0-2.87-.54-4.13-3.79-4.1q-21.74.26-43.48 0c-3.1 0-3.93 1-3.92 4q.16 33.24 0 66.46c0 3.16 1.15 3.93 4.08 3.9 14.33-.11 28.65-.15 43 0 3.39 0 4.19-1.18 4.14-4.32-.18-10.79-.08-21.62-.08-32.44zm-402.8 259c0-11.67-.16-23.34.08-35 .09-3.85-1.21-4.74-4.84-4.69-13 .21-26 .17-39 0-3.15 0-4.38.72-4.36 4.13q.21 35 0 70c0 3.39 1.14 4.18 4.33 4.14 13.16-.15 26.33-.19 39.49 0 3.66.06 4.42-1.29 4.37-4.62-.17-11.28-.07-22.62-.07-33.95zm417.67-.54c0-11.5-.17-23 .09-34.48.09-3.88-1.2-4.74-4.84-4.67-11.48.22-23 .2-34.47 0-3.43-.05-4.56.9-4.54 4.46q.23 34.73 0 69.45c0 3.64 1.25 4.43 4.6 4.38 11.49-.18 23-.22 34.47 0 3.68.08 4.9-.86 4.81-4.69-.29-11.46-.12-22.95-.12-34.44z" data-name="Слой 1"/></g></symbol><symbol viewBox="0 0 512 478" id="header-i-3" xmlns="http://www.w3.org/2000/svg"><defs><style>.kcls-1{fill:#fec350}</style></defs><g id="kСлой_2" data-name="Слой 2"><g id="kСлой_1-2" data-name="Слой 1"><path class="kcls-1" d="M476 478h-2c-1.71-1.52-3.8-1-5.74-1h-426c-1.78 0-3.7-.49-5.23 1H35c-.7-1.44-2.23-1.3-3.42-1.66-15.9-4.82-25.83-15.34-30.29-31.27C1 444 1.24 442.68 0 442v-2c1.43-1.54 1-3.45 1-5.24V77.23c0-1.78.47-3.7-1-5.23v-2c1.61-1.27 1.39-3.29 1.92-5a41.4 41.4 0 0 1 14-20.86c13.68-10.67 28.83-13 44.58-5.73C77 46.05 85.06 59.72 85.54 77.86c.21 8.19-1.42 7.9 8.23 7.9 54.66 0 109.32-.05 164 .1a13.88 13.88 0 0 0 10.86-4.61c22.38-22.64 45-45.06 67.44-67.6A44.34 44.34 0 0 1 357 1.57c1.36-.34 3.09 0 4-1.57h11c1.7 1.62 4 1.24 6 1.84 15.82 4.79 26.24 15 30.09 31.07 3.59 15-.09 28.4-10.8 39.66-3.93 4.12-8 8.09-13.13 13.2h32.08c10.08 0 10.08 0 10.38-9.82.62-20.72 16.47-38.64 36.22-41 22.32-2.63 41.59 10 47.44 31 .47 1.68.05 3.73 1.68 5v1c-1.45 1.53-1 3.45-1 5.23v357.53c0 1.79-.45 3.7 1 5.24v2c-1.05.56-.93 1.65-1.18 2.58-4.65 17.14-15.49 28-32.77 32.35-.74.25-1.62.19-2.01 1.12zM245.65 102.82H95.2c-9.61 0-9.63 0-9.63 9.44v313.45a85.28 85.28 0 0 1-.41 11c-.57 4.41-3.67 6.81-7.89 7s-7.3-2.07-8.47-6.33a27.27 27.27 0 0 1-.61-4.44c-1-9.79-6-16.95-14.88-20.91S35.4 408.92 27.37 415a25.24 25.24 0 0 0-8.65 28.6c3.75 10.89 13.3 17.32 26 17.32h363c20.33 0 40.66.13 61-.06 11.76-.11 21-6.74 24.6-17.08a25.49 25.49 0 0 0-36.17-30.94c-8.57 4.73-12.84 12.16-13.41 21.95-.33 5.64-4 9.15-8.76 9s-8-3.71-8.4-9.39c-.06-1 0-2 0-3v-109q0-106.74.09-213.47c0-4.65-1-6.34-6-6.24-16 .32-32 .23-48 0a11.64 11.64 0 0 0-9.15 3.85q-62.28 62.5-124.71 124.86a30.38 30.38 0 0 1-9.79 6.7q-38.85 16.5-77.59 33.24c-4.23 1.82-8.32 3-12-.69s-2.59-7.81-.78-12q17-39.47 33.8-79a24.27 24.27 0 0 1 5.43-7.68q32.21-32.13 64.34-64.34c1.03-1.2 2.67-2.17 3.43-4.81zM17.17 400.11c1.06-.12 1.44-.06 1.69-.22 15.25-9.38 30.71-9.93 46.32-.94 2.67 1.54 3.16.4 3.12-2V77.52c0-11.12-5.14-19.3-15.25-23.7-9.87-4.31-19.31-2.71-27.44 4.49-6.45 5.69-8.47 13.25-8.47 21.63q.08 125.22 0 250.44zm477.66.9V185.08c0-35.66.07-71.31-.08-107-.07-16.65-12.7-27.88-29-26.2-13.12 1.35-22.07 12.45-22.07 27.52v306.39c0 3.66.06 7.33 0 11-.06 2.85.76 3.72 3.41 2a35.45 35.45 0 0 1 11-4.72c12.77-3.07 24.75-1.14 36.74 6.93zM229.24 216.2c1.14-1 2.16-1.86 3.09-2.78Q286 159.74 339.79 106.07c2.42-2.41 2.62-3.88.07-6.37-10-9.76-19.94-19.62-29.63-29.71-2.77-2.88-4.35-2.49-6.65.22-2.14 2.54-4.66 4.75-7 7.11q-49.83 49.82-99.64 99.68c-1.74 1.75-4.51 3.1-1.23 6.28 10.5 10.22 20.77 20.68 31.15 31a28.69 28.69 0 0 0 2.38 1.92zm163-173a23.7 23.7 0 0 0-4.74-15.31c-10.57-14.29-32.7-13.55-42.83 1.33-1.2 1.75-.55 2.67.58 3.8Q361.12 48.88 377 64.77c1.24 1.24 2.27 1.64 3.78.26 6.54-6.03 11.94-12.6 11.44-21.84zm-230.8 205.22l52-22.28-29.65-29.76zm170-204.82c-1.45-.08-2 .86-2.7 1.53-2 2-3.85 4.17-6 5.93-3.16 2.56-3.3 4.48-.17 7.44 8.08 7.66 15.82 15.68 23.7 23.55 8.9 8.88 8.82 8.79 17.56 0 2.41-2.42 2.61-3.89.07-6.37-10.12-9.86-20-19.93-30-29.91-.85-.77-1.73-1.54-2.43-2.17z"/><path class="kcls-1" d="M255.48 401.06H123c-9.56 0-12-2.49-12-12.2v-45c0-8 2.87-10.93 10.77-10.93H390.2c7.87 0 10.74 3 10.76 10.94v46.49C401 398 398 401 390.44 401h-135zm.23-17h124c2.2 0 4.33.3 4.28-3.13-.14-9.33 0-18.67-.07-28 0-1.09.29-2.69-1.38-2.73-4.82-.1-9.91-.92-14.38.35-2.85.8-.67 5.38-1.27 8.2 0 .16 0 .33-.05.5a8.73 8.73 0 0 1-8.91 7.76c-4.55-.2-7.77-3.59-8-8.54-.09-1.83 0-3.67-.06-5.5 0-1.12.18-2.7-1.42-2.74-4.82-.13-9.91-.94-14.37.33-2.8.8-.69 5.4-1.25 8.23-.06.33-.05.67-.12 1a8.72 8.72 0 0 1-8.88 7.23c-4.37-.22-7.54-3.42-8-8.08C315 350 315 350 305.8 350a19 19 0 0 1-2.5 0c-3.4-.46-5 .8-4.56 4.38a15 15 0 0 1 0 3c-.3 5.93-3.63 9.61-8.65 9.62s-8.2-3.62-8.39-9.71c-.22-7.28-.22-7.28-7.67-7.28-8.46 0-8.46 0-9.49 8.56-.63 5.24-4.08 8.56-8.76 8.43-4.51-.13-7.67-3.33-8.29-8.38-1.06-8.61-1.06-8.61-9.95-8.61H237c-7.42.06-6.64-.71-6.72 6.7-.07 6.49-3.11 10.24-8.29 10.29-5.36 0-9-3.92-8.65-10.51.29-5.22-1.26-7.32-6.56-6.52-3.26.48-7.21-1.24-9.71.75-2.27 1.8-.54 5.66-.94 8.59-.59 4.39-3.1 6.93-7.36 7.61a8.07 8.07 0 0 1-9.07-6.13 19.25 19.25 0 0 1-.51-6.42c.31-3.6-1.18-4.83-4.59-4.39a27.22 27.22 0 0 1-3.5 0c-8.54 0-8.54 0-9 8.41-.28 5-3.44 8.36-8 8.58s-8.14-3-9-7.71c-.55-3 1.67-7.23-1.3-8.79-2.63-1.39-6.51-.43-9.84-.49a19 19 0 0 1-2 0c-3-.39-4.06.86-4 3.93.18 8.33.32 16.68 0 25-.18 4.28 1.19 5.23 5.28 5.21 40.82-.12 81.64-.12 122.47-.12z"/></g></g></symbol><symbol viewBox="0 0 512.27 480.13" id="servise-i-1" xmlns="http://www.w3.org/2000/svg"><defs><style>.lcls-1{fill:#fec24e}.lcls-2{fill:#fec350}</style></defs><g id="lСлой_2" data-name="Слой 2"><g id="lСлой_1-2" data-name="Слой 1"><path class="lcls-1" d="M512.27 159c-2.63 4.73-3.64 10.16-7 14.65-8.69 11.74-19.86 18.93-34.69 18.17-8.05-.42-13.57 2.11-19 8-11.58 12.4-23.9 24.11-35.89 36.18-3 3-6.07 5.26-10.56 3.28-4.21-1.86-4.92-5.38-4.89-9.48.09-11-.17-22 .14-33 .11-4.14-1.33-4.87-5.09-4.86-48.32.11-96.65 0-145 .11a42.5 42.5 0 0 1-31.61-13.35 8.27 8.27 0 0 0-6.52-2.74q-55.49.12-111 0c-3.83 0-5.1.85-5 4.91.25 16.32 0 32.66.15 49 0 4.62-1.11 8.38-5.86 9.81-4.55 1.37-7.39-1.2-10-4.69-13.79-18.57-27.74-37-41.59-55.56-1.44-1.92-2.94-3.59-5.38-4.15-16.82-3.84-27.24-14.4-32.22-30.69a6.38 6.38 0 0 0-1-1.54V33c1.6-1 1.37-2.9 1.89-4.37C6.72 15.83 15.42 7.15 28 2.17c1.78-.7 3.87-.65 5.31-2.17h237c8.38 2.7 16.54 5.92 22.4 12.84 2.22 2.62 4.6 3.21 7.77 3.21q85.11-.11 170.23-.06c14.84 0 26 6.62 34.62 18.37 3.49 4.77 4.81 10.36 7 15.64zm-433 47.63l1-.39v-34.88c0-9.06 2.34-11.36 11.57-11.36h172.41c14.23 0 24-9.59 24-23.65 0-32.32.17-64.64-.06-96.95C288.1 26 278.91 16.05 265 16q-112.69-.12-225.39 0c-13.52 0-23.3 9.8-23.33 23.31q-.11 48.72 0 97.45c0 13.09 9.37 22.73 22.44 23.15 4.45.15 7.22 2 9.8 5.6C58.6 179.36 69 193 79.24 206.63zm337 6.1c8.46-8.49 16.62-15.45 23.25-23.66 8.54-10.58 18.55-14.39 32.08-13.35 15.12 1.18 24.66-9.12 24.67-24.22v-95c0-15.1-9.49-24.49-24.69-24.5H303.44a46.82 46.82 0 0 1 .84 10.9c0 30.5-.07 61 0 91.5 0 12.25-4.65 22.26-13.38 30.6-5.55 5.31-12.24 8.53-19.45 11H406c7.51 0 10.29 2.74 10.31 10.13-.02 8.33-.04 16.66-.04 26.6zM.27 469c2.73-4.15 6.73-5.37 11.55-5.07 5.15.31 10.34-.16 15.49.14 3.8.22 5.15-.76 5.07-4.87-.28-13.66-.11-27.32-.11-41 0-18.58 11.15-34.43 28.67-40.14 10.72-3.49 21.64-6.38 32.45-9.62 4.27-1.27 7.38.47 10.26 3.36s5.09 7.68 8.67 7.64 5.92-4.85 8.7-7.66c3.54-3.6 7.24-4.54 12.16-2.9 9 3 18.07 5.6 27.18 8.13 19.69 5.48 31.91 21.37 31.91 41.76 0 13.66.09 27.32-.06 41 0 3.13.68 4.31 4.1 4.3q60-.17 119.94 0c3.44 0 4.11-1.2 4.08-4.31-.14-14-.07-28-.05-42a41.38 41.38 0 0 1 28.6-39.68c10.72-3.49 21.65-6.36 32.45-9.61 4.27-1.29 7.37.4 10.27 3.3s5.1 7.65 8.66 7.67 6-4.79 8.7-7.63c3.71-3.83 7.61-4.5 12.63-2.82 9 3 18.09 5.55 27.19 8.12 19.32 5.45 31.49 21.45 31.49 41.59 0 13.49.18 27-.1 40.48-.08 4.11 1.27 5.09 5.07 4.87 5.15-.3 10.34.17 15.49-.14 4.86-.3 8.77.92 11.54 5.07v11h-11q-247.74 0-495.5.13c-4.7 0-6.43-.91-5.55-5.64A30.46 30.46 0 0 0 .27 469zM112 464c9.33 0 18.66-.17 28 .08 3.59.1 4.55-1.08 4.39-4.52-.26-5.82-.09-11.66-.06-17.49 0-6.4 2.83-10 7.86-10.06 5.19-.09 8.1 3.59 8.13 10.29v10.5c0 11.27 0 11.11 11.05 11.29 3.81.06 5.12-.83 5-4.91-.26-14.32-.07-28.65-.11-43 0-11.3-6.68-19.93-17.63-23.08-8-2.29-15.95-4.55-23.86-7.05-3.08-1-5.18-.49-7.32 2a116.61 116.61 0 0 1-8.79 8.86c-4.38 4.14-8.34 4.17-12.69.06a112 112 0 0 1-9.14-9.22c-2.09-2.5-4.21-2.57-7-1.72-7.6 2.36-15.19 4.76-22.86 6.85-12.37 3.38-18.74 11.44-18.74 24.16v35c0 12.4 0 12.32 12.31 12 2.76-.06 3.83-.74 3.74-3.64-.19-6.33-.1-12.66 0-19 0-5.9 3.09-9.42 8-9.42s7.93 3.52 8 9.43c0 6.17.2 12.34-.06 18.49-.14 3.39 1.1 4.2 4.27 4.13 9.14-.15 18.31-.03 27.51-.03zm224.32-26.62v14.49c0 12.79 0 12.71 12.63 12.19 2.6-.1 3.47-.85 3.41-3.45-.15-6.5-.1-13 0-19.49.06-5.56 3.08-9 7.81-9.11 4.91-.11 8.1 3.44 8.16 9.25.06 6.16.16 12.33 0 18.49-.11 3.1.61 4.36 4.07 4.33q28-.25 56 0c3.45 0 4.17-1.22 4.07-4.33-.2-6.49-.17-13 0-19.49.12-5 3.58-8.35 8.14-8.25 4.38.11 7.6 3.33 7.79 8.1.16 4.16 0 8.33 0 12.5 0 11.64 0 11.52 11.87 11.47 3.26 0 4.24-.92 4.2-4.21-.16-14.49 0-29-.08-43.48 0-11.42-6.48-20-17.45-23.2-5.57-1.64-11.35-2.77-16.66-5-8.19-3.47-14.77-2.81-19.86 5.1a21.89 21.89 0 0 1-3.85 3.91c-4.17 3.81-8.2 3.86-12.34 0-3.28-3.07-6.51-6.22-9.52-9.56a5 5 0 0 0-6-1.64c-8.37 2.63-16.87 4.88-25.27 7.43-10.79 3.28-17 11.72-17 23-.18 6.96-.16 13.95-.16 20.95z"/><path class="lcls-2" d="M160.28 304.09c0 25.63-22.58 48-48.32 47.91-25.31-.08-47.7-22.66-47.69-48.07 0-25.57 22.66-48 48.34-47.93 25.31.09 47.69 22.67 47.67 48.09zm-80 .13c0 18.39 13.46 31.77 31.84 31.77 19 0 32.24-13.39 32.15-32.48-.1-18.28-13.6-31.53-32.11-31.5s-31.92 13.45-31.88 32.21zm368-.38c0 25.63-22.48 48.19-48.1 48.16-25.39 0-47.87-22.46-47.91-47.83 0-25.65 22.47-48.2 48.1-48.17 25.39 0 47.87 22.47 47.91 47.84zm-48 32.15c18.69 0 32-13.4 32-32.13 0-18.45-13.36-31.8-31.77-31.85-18.76-.06-32.19 13.23-32.22 31.87S381.59 336 400.28 336z"/></g></g></symbol><symbol viewBox="0 0 239.77 512" id="servise-i-2" xmlns="http://www.w3.org/2000/svg"><g data-name="Слой 2"><path d="M67.77 512c-4.1-2.12-8.52-3.79-12.21-6.47-8.34-6.06-8.8-15.46-9.54-24.67-1.88-23.22-3.87-46.43-5.77-69.65-1.47-18.07-2.84-36.16-4.33-54.23-1-12.24-2.12-24.46-3.24-37.23h-7.06C11 319.68 0 308.73 0 294.24V177.76c0-18.12 12.77-34.91 30.3-39.37 12.72-3.24 25.53-6.13 38.22-9.5 4.35-1.16 7.45.17 10.31 3.07s5.53 5.72 8.85 9.15c3.19-3.14 6.19-5.92 9-8.9 3.44-3.67 7.13-4.48 12.12-3.06 11.79 3.36 23.75 6.09 35.64 9.09a41.17 41.17 0 0 1 31.08 39.82q.08 59.74 0 119.49v6.7h5.61c15.49 0 31 .19 46.49-.1 5.32-.1 9.41 1.17 12.15 5.85v116c-2.76 4.65-6.83 5.89-12.15 5.85-29.31-.21-58.62-.1-87.93-.1h-6.21c-1.36 16.51-2.79 32.4-3.92 48.31-.75 10.47-1.65 20.78-11.64 27.17-2.89 1.84-6.09 3.19-9.15 4.77zM32 303.83V201.65c0-5.68 2.88-9.28 7.42-9.4s7.7 3.52 7.93 9.05c.05 1.33 0 2.67 0 4 .39 40 .38 79.95 1.33 119.9.43 18.1 2.76 36.15 4.25 54.22q2.77 33.33 5.58 66.65c1.2 14.25 2.26 28.52 3.7 42.75.61 6 2.57 7.36 8.54 7.39h32c8.61 0 10.1-1.24 10.91-9.87 1.19-12.6 2.22-25.2 3.26-37.81.44-5.41.72-10.83 1.11-16.82H89.59c-6.5 0-9.56-3-9.57-9.39Q80 368.1 80 313.88c0-6.69 3-9.59 9.87-9.62H128V204.6c0-1.33-.06-2.67 0-4 .28-4.83 3.45-8.25 7.64-8.31s7.5 3.38 7.81 8.12c.09 1.33 0 2.67 0 4v99.44h16.3c.08-1.72.19-3 .19-4.35v-123c0-11.59-5.94-19.71-17.1-22.79s-22.16-5.77-33.32-8.28a8.21 8.21 0 0 0-6 1.77c-3.34 2.71-6.17 6.06-9.29 9.07-4.71 4.54-8.26 4.57-12.94.09-3.12-3-5.91-6.39-9.29-9.05a8.87 8.87 0 0 0-6.43-1.76c-9.74 2.08-19.36 4.72-29.05 7-15.41 3.69-21.18 10.9-21.18 26.72v110.46c.04 14.48 1.43 15.71 16.66 14.1zm63.77 112.09h127.82v-95.84H95.77zM92.77 0c7.42 2.71 15.38 4.47 22.18 8.29 21.23 11.94 31.94 35.51 27.41 58.28-4.45 22.38-24 40.74-47.15 44.39-28 4.41-57.3-17.43-62.3-45.35C27.48 35.34 50.63 5.4 79.52 1.14A17.21 17.21 0 0 0 82.77 0zm-5.2 96.25C111 96.26 128 79.71 128 56.82c0-24.41-16.31-41-40.31-41.07-23.09 0-39.77 16.65-40.3 39.18-.55 24.16 17.8 41.89 40.18 41.32z" data-name="Слой 1"/></g></symbol><symbol viewBox="0 0 510.38 474.8" id="servise-i-3" xmlns="http://www.w3.org/2000/svg"><defs><style>.ncls-1{fill:#fec350}</style></defs><g id="nСлой_2" data-name="Слой 2"><g id="nСлой_1-2" data-name="Слой 1"><path class="ncls-1" d="M417 306.75c-.72 2.26.59 4.23 1 6.29 4.84 22.61-10.75 42.89-33.81 43.63-3.18.1-4.18.82-4.29 4.14-.68 19.69-14.77 33.9-34.52 34.92-2.83.14-3.51 1-3.67 3.74-1.19 20.75-14.66 34.33-35.15 35.42-3 .15-3.92 1-4.08 4-1.07 19.2-14.06 33.2-31.9 35.22-.24 0-.44.45-.65.69h-7c-3.52-1.31-7.35-2.12-10.49-4-4-2.43-7.28-2-11.5-.65-21.72 7-45-10-44.88-32.65 0-4.16-1.13-4.82-4.9-4.86-18.69-.19-34.3-16-34.23-34.65 0-3.38-.59-4.41-4.23-4.5-20.55-.46-35.73-16.63-34.84-36.91.11-2.52-.73-2.68-2.83-2.46a29 29 0 0 1-10.35-1c-21.33-5.5-35.53-31.81-19.65-54.18 2.19-3.1 2.1-4.82-.61-7.42q-12.8-12.3-25.1-25.1c-2.52-2.62-4-2.95-6.68-.11-6.14 6.58-12.8 12.67-19 19.22-2.62 2.8-4.14 2.52-6.73-.07-8.95-8.92-17.45-18.31-27-26.6v-3c3.27-1.8 5.43-4.83 8-7.4 1.87-1.87 3.12-1.79 4.9.06 4.62 4.81 9.56 9.32 14 14.24 2.57 2.81 4.08 3 6.91.09 19.9-20.11 39.88-39.96 59.8-59.85q43.3-43.31 86.69-86.54c3.12-3.09 3.17-4.71 0-7.84-31.73-31.66-63.25-63.54-95-95.2-3.09-3.09-3.25-4.69 0-7.74 7.79-7.29 7.6-7.46 15.1 0Q152 57.32 203.65 108.84c3.23 3.2 3.19 4.88-.09 7.69-3.78 3.24-7.05 7.08-10.69 10.5-1.84 1.72-2.13 2.95-.15 4.84 4.82 4.59 9.51 9.34 14.15 14.13a6.15 6.15 0 0 0 4.92 1.81h101a6.65 6.65 0 0 0 5.28-2.19c2.85-3 5.72-6.08 8.85-8.82 2.44-2.13 2-3.52-.1-5.56-5.2-4.94-10-10.3-15.3-15.1-3.23-2.92-2.7-4.63.16-7.45Q356 65 400.11 21.09c6.5-6.46 13.07-12.85 19.44-19.44 2.12-2.18 3.42-2.2 5.65-.06 8.74 8.4 8.83 8.33.22 16.87Q379.8 63.7 334.1 108.84c-3.25 3.19-2.92 4.72.1 7.73q71.43 71.4 142.64 143c7.31 7.33 7.31 7.33 14.8-.16l2.12-2.12c8.75-8.75 8.7-8.72 15.84 1.91 1.19 1.77 1 2.76-.44 4.18q-12.45 12.28-24.73 24.75c-1.8 1.84-2.88 1.43-4.44-.16-5.71-5.84-11.74-11.38-17.22-17.42-3.25-3.58-5.18-4.08-8.84-.2-10.66 11.25-21.81 22-32.79 33-1.28 1.28-2.32 2.87-4.16 3.49a1.75 1.75 0 0 0-.22-.43c0-.05-.2 0-.31 0zm-228.65 54h5.94c17.59.37 33.41 15.81 33.49 33.32 0 4.84 1.19 5.67 5.9 5.94 26.71 1.55 39.73 28.69 30.85 50-2.26 5.43-1.86 6.37 4.21 6.63a12.12 12.12 0 0 0 2.48-.16c15.49-2.48 22.4-20.09 12.21-32-6-7.08-13-13.4-19.55-20-8.84-8.88-8.79-8.78.39-17.38 2.23-2.09 3.45-2.13 5.59.07 7.76 8 15.72 15.85 23.62 23.74 8.11 8.09 20.53 8.4 28.19.73 7.81-7.81 7.59-19.95-.55-28.18-6.09-6.16-12.24-12.27-18.37-18.39-8.52-8.51-8.43-8.42 0-16.84 2.31-2.32 3.62-2.37 5.91 0 7.76 8 15.7 15.88 23.64 23.73 8.2 8.1 20 8.31 27.68.57 7.48-7.5 7.18-19.83-.74-27.86-6.2-6.28-12.47-12.5-18.72-18.74-7.76-7.75-7.63-7.62.18-15.66 2.7-2.79 4.17-2.51 6.7.1 8 8.27 16 16.54 24.45 24.32s20.28 7.12 27.73-.92c7.59-8.19 7.34-19.67-.77-27.8q-38.13-38.22-76.3-76.4a8.39 8.39 0 0 0-6.59-2.69c-10.16.14-20.33.12-30.49 0a26.41 26.41 0 0 0-20.13 8.3c-8.82 9.08-17.83 18-26.83 26.9-17.38 17.21-47.06 17.31-64.66.22-4.67-4.53-9-9.38-13.87-13.7-2.89-2.57-2.52-4 .08-6.53q35.28-34.69 70.29-69.67c2.65-2.64 5.85-4.78 8.28-8.59-11 0-21.47-.12-31.91.08a9.15 9.15 0 0 1-7.41-3.12c-5.4-5.67-11.13-11-16.51-16.71-2.42-2.57-4-3-6.76-.21q-52.35 52.64-105 105c-2.39 2.39-2.25 3.73.12 5.94q14.43 13.47 28.54 27.28c2 1.95 3.83 2.15 6.28 1.34 6.76-2.25 13.49-1.55 20.08.74 12.28 4.26 25 17.91 23.15 35.24-.33 3.14 1.5 2.08 3.06 2 21.26-.92 38.71 17.88 36.16 39.33zm103-196.92c-8.33 0-16.66.19-25-.08a11.76 11.76 0 0 0-9.61 3.87c-21.08 21.33-42.34 42.47-63.55 63.67-3.88 3.89-7.75 7.8-11.67 11.65-1.48 1.45-2.11 2.51-.44 4.54 12.81 15.57 33.86 16.62 48.21 2.26 8.72-8.72 17.5-17.37 26.13-26.17a38.09 38.09 0 0 1 28.22-11.74c12.83 0 25.66.12 38.48-.09a11 11 0 0 1 8.74 3.56c25.12 25 50.41 49.94 75.56 75 2.35 2.34 3.73 2.84 6.28.16q16.37-17.19 33.16-34c2.27-2.28 2.43-3.65.07-6q-51.33-51.15-102.46-102.49c-2.34-2.36-3.57-1.86-5.53.23-4.22 4.48-8.74 8.69-13 13.15a7.61 7.61 0 0 1-6.13 2.54c-9.1-.17-18.26-.09-27.43-.09zM132.88 318.12a19.54 19.54 0 0 0-19.54-19.22c-10.15.08-19 8.67-19.11 18.54a20.16 20.16 0 0 0 20.42 20.11c9.62-.13 18.35-9.39 18.23-19.43zm21.26 58.57c10 0 18.76-9 18.74-19.36S163.7 338 153.35 338c-10 .08-19.1 9-19.12 18.58a20.15 20.15 0 0 0 19.91 20.11zm19.65 19.1c0 11.49 8.36 20 19.71 20 10.59 0 18.62-8.39 18.49-19.4-.12-10.7-8.36-18.75-19.23-18.8s-18.99 7.83-18.97 18.2zm58.85 59.09c10.53.06 18.31-7.85 18.43-18.72a19 19 0 0 0-19.14-19.44c-10.17-.08-18.93 8.11-19 17.78-.12 12.02 7.9 20.31 19.71 20.38z"/><path class="ncls-1" d="M29.89 236c-2.87-.43-3.75-2-4.88-3.09-7.9-7.86-7.89-7.88-.16-15.6 4.84-4.84 4.84-4.84 9.58-.1 6.58 6.56 6.55 6.54.2 13.26-1.8 1.94-3.42 4.01-4.74 5.53zM496 224.74c-1.56 1.75-2.94 3.37-4.38 4.93-6.57 7.1-6.57 7.09-12.92.38-5.95-6.3-5.95-6.3.29-12.54a28.53 28.53 0 0 0 2.45-2.47c1.7-2.16 3.17-2.36 5.11-.13 2.28 2.63 4.88 5 7.32 7.45.65.64 1.26 1.42 2.13 2.38z"/></g></g></symbol><symbol viewBox="0 0 14 8" id="up" xmlns="http://www.w3.org/2000/svg"><defs><path id="oa" d="M1020.293 4618.293l.707.707.707-.707 6 6-1.414 1.414-5.293-5.293-5.293 5.293-1.414-1.414z"/></defs><g transform="translate(-1014 -4618)"><use xlink:href="#oa"/><use xlink:href="#oa"/></g></symbol></svg>