<?xml version="1.0" encoding="UTF-8" standalone="no"?>
<!-- Generator: Adobe Illustrator 19.0.0, SVG Export Plug-In . SVG Version: 6.00 Build 0)  -->

<svg
   xmlns:dc="http://purl.org/dc/elements/1.1/"
   xmlns:cc="http://creativecommons.org/ns#"
   xmlns:rdf="http://www.w3.org/1999/02/22-rdf-syntax-ns#"
   xmlns:svg="http://www.w3.org/2000/svg"
   xmlns="http://www.w3.org/2000/svg"
   xmlns:sodipodi="http://sodipodi.sourceforge.net/DTD/sodipodi-0.dtd"
   xmlns:inkscape="http://www.inkscape.org/namespaces/inkscape"
   version="1.1"
   id="Capa_1"
   x="0px"
   y="0px"
   viewBox="0 0 512 512"
   style="enable-background:new 0 0 512 512;"
   xml:space="preserve"
   width="512px"
   height="512px"
   sodipodi:docname="preim-1.svg"
   inkscape:version="0.92.1 r15371"><metadata
     id="metadata49"><rdf:RDF><cc:Work
         rdf:about=""><dc:format>image/svg+xml</dc:format><dc:type
           rdf:resource="http://purl.org/dc/dcmitype/StillImage" /><dc:title></dc:title></cc:Work></rdf:RDF></metadata><defs
     id="defs47" /><sodipodi:namedview
     pagecolor="#ffffff"
     bordercolor="#666666"
     borderopacity="1"
     objecttolerance="10"
     gridtolerance="10"
     guidetolerance="10"
     inkscape:pageopacity="0"
     inkscape:pageshadow="2"
     inkscape:window-width="640"
     inkscape:window-height="480"
     id="namedview45"
     showgrid="false"
     inkscape:zoom="0.4609375"
     inkscape:cx="256"
     inkscape:cy="256"
     inkscape:window-x="0"
     inkscape:window-y="0"
     inkscape:window-maximized="0"
     inkscape:current-layer="Capa_1" /><g
     id="g6"><g
       id="g4"><path
         d="M290.281,360.091l-31.818-31.82L110.216,476.518l31.656,31.17c2.919,2.874,6.721,4.312,10.524,4.312    c3.783,0,7.568-1.423,10.482-4.271l42.426-41.449c2.867-2.801,4.494-6.634,4.517-10.642c0.023-4.009-1.559-7.86-4.393-10.694    l-10.606-10.606l21.213-21.213l10.606,10.606c2.813,2.813,6.628,4.394,10.606,4.394c3.978,0,7.794-1.581,10.606-4.393    l42.427-42.427c2.813-2.813,4.394-6.628,4.394-10.607S293.094,362.905,290.281,360.091z"
         fill="#18b2c0"
         id="path2" /></g></g><g
     id="g12"><g
       id="g10"><path
         d="M458.702,149.246c-4.082-4.082-8.561-7.616-13.335-10.607c4.774-2.99,9.253-6.525,13.335-10.607    c29.243-29.243,29.243-76.824,0-106.066C444.536,7.801,425.702,0,405.669,0c-20.033,0-38.867,7.801-53.033,21.967    c-4.125,4.125-7.646,8.623-10.607,13.375c-2.961-4.751-6.482-9.25-10.607-13.375C317.257,7.801,298.423,0,278.39,0    c-20.033,0-38.867,7.801-53.033,21.967c-29.243,29.243-29.243,76.824,0,106.066c4.082,4.082,8.561,7.616,13.335,10.607    c-4.774,2.99-9.253,6.525-13.335,10.607c-14.166,14.166-21.967,33-21.967,53.033c0,3.582,0.26,7.124,0.751,10.609L35.724,381.305    c-2.813,2.813-4.394,6.628-4.394,10.607s1.581,7.794,4.394,10.607l42.427,42.426c2.929,2.929,6.768,4.393,10.606,4.393    s7.678-1.464,10.606-4.393L267.78,276.529c3.486,0.491,7.027,0.751,10.61,0.751c20.033,0,38.868-7.802,53.033-21.967    c4.082-4.082,7.616-8.561,10.607-13.335c2.99,4.774,6.525,9.253,10.607,13.335c14.166,14.166,33,21.967,53.033,21.967    c20.033,0,38.868-7.802,53.033-21.967c14.166-14.166,21.967-33,21.967-53.033C480.669,182.246,472.868,163.412,458.702,149.246z     M288.996,212.886c-5.858,5.858-15.355,5.858-21.213,0c-5.858-5.858-5.858-15.355,0-21.213c5.858-5.858,15.355-5.858,21.213,0    C294.854,197.531,294.854,207.028,288.996,212.886z M288.996,85.607c-5.858,5.858-15.355,5.858-21.213,0    c-5.858-5.858-5.858-15.355,0-21.213c5.858-5.858,15.355-5.858,21.213,0C294.854,70.252,294.854,79.749,288.996,85.607z     M352.635,149.246c-4.082,4.082-7.616,8.561-10.607,13.335c-2.991-4.774-6.525-9.253-10.607-13.335    c-4.082-4.082-8.561-7.616-13.335-10.607c4.774-2.99,9.253-6.525,13.335-10.607c4.125-4.125,7.646-8.623,10.607-13.375    c2.961,4.751,6.482,9.25,10.607,13.375c4.082,4.082,8.561,7.616,13.335,10.607C361.197,141.63,356.718,145.164,352.635,149.246z     M416.276,212.886c-5.858,5.858-15.355,5.858-21.213,0c-5.858-5.858-5.858-15.355,0-21.213c5.858-5.858,15.355-5.858,21.213,0    C422.133,197.53,422.133,207.028,416.276,212.886z M416.276,85.607c-5.858,5.858-15.355,5.858-21.213,0    c-5.858-5.858-5.858-15.355,0-21.213c5.858-5.858,15.355-5.858,21.213,0C422.133,70.251,422.133,79.749,416.276,85.607z"
         fill="#18b2c0"
         id="path8" /></g></g><g
     id="g14" /><g
     id="g16" /><g
     id="g18" /><g
     id="g20" /><g
     id="g22" /><g
     id="g24" /><g
     id="g26" /><g
     id="g28" /><g
     id="g30" /><g
     id="g32" /><g
     id="g34" /><g
     id="g36" /><g
     id="g38" /><g
     id="g40" /><g
     id="g42" /></svg>