<?xml version="1.0" encoding="UTF-8" standalone="no"?>
<!-- Generator: Adobe Illustrator 19.0.0, SVG Export Plug-In . SVG Version: 6.00 Build 0)  -->

<svg
   xmlns:dc="http://purl.org/dc/elements/1.1/"
   xmlns:cc="http://creativecommons.org/ns#"
   xmlns:rdf="http://www.w3.org/1999/02/22-rdf-syntax-ns#"
   xmlns:svg="http://www.w3.org/2000/svg"
   xmlns="http://www.w3.org/2000/svg"
   xmlns:sodipodi="http://sodipodi.sourceforge.net/DTD/sodipodi-0.dtd"
   xmlns:inkscape="http://www.inkscape.org/namespaces/inkscape"
   version="1.1"
   id="Capa_1"
   x="0px"
   y="0px"
   viewBox="0 0 512 512"
   style="enable-background:new 0 0 512 512;"
   xml:space="preserve"
   width="512px"
   height="512px"
   sodipodi:docname="preim-5.svg"
   inkscape:version="0.92.1 r15371"><metadata
     id="metadata55"><rdf:RDF><cc:Work
         rdf:about=""><dc:format>image/svg+xml</dc:format><dc:type
           rdf:resource="http://purl.org/dc/dcmitype/StillImage" /><dc:title></dc:title></cc:Work></rdf:RDF></metadata><defs
     id="defs53" /><sodipodi:namedview
     pagecolor="#ffffff"
     bordercolor="#666666"
     borderopacity="1"
     objecttolerance="10"
     gridtolerance="10"
     guidetolerance="10"
     inkscape:pageopacity="0"
     inkscape:pageshadow="2"
     inkscape:window-width="640"
     inkscape:window-height="480"
     id="namedview51"
     showgrid="false"
     inkscape:zoom="0.4609375"
     inkscape:cx="256"
     inkscape:cy="256"
     inkscape:window-x="0"
     inkscape:window-y="0"
     inkscape:window-maximized="0"
     inkscape:current-layer="Capa_1" /><g
     id="g6"><g
       id="g4"><path
         d="M501.763,59.701c-4.338-9.068-16.598-11.672-24.14-4.131l-44.427,44.427c-10.619-2.227-18.998-10.604-21.21-21.225    l44.427-44.427c7.291-7.291,5.202-19.685-4.146-24.14c-40.06-19.114-88.075-10.882-119.508,20.523    c-25.048,25.062-35.608,60.773-28.621,95.049l-180.454,177.89c-7.559-1.368-15.197-1.906-22.854-1.6    C44.771,304.297-0.897,350.702,0.042,408.522C0.959,464.929,46.638,512,104.772,512c59.281,0,105.675-48.319,105.227-105.899    c-0.046-5.867-0.577-11.685-1.595-17.434l182.476-179.926c33.118,5.229,66.383-5.522,90.361-29.529    C512.661,147.807,520.908,99.778,501.763,59.701z M105.007,451.975c-24.813,0-44.998-20.185-44.998-44.997    c0-24.813,20.184-44.998,44.998-44.998c24.813,0,44.998,20.185,44.998,44.998C150.005,431.79,129.82,451.975,105.007,451.975z"
         fill="#18b2c0"
         id="path2" /></g></g><g
     id="g12"><g
       id="g10"><path
         d="M207.451,128.174c7.983-35.081-2.402-71.715-28.167-97.48c-40.955-40.911-107.557-40.94-148.483,0    c-41.039,41.039-41.058,107.457,0,148.483c24.345,24.33,59.279,35.096,92.749,29.119l28.485,25.341l82.406-82.391L207.451,128.174    z M136.849,136.772c-17.584,17.555-46.116,17.484-63.63,0v-0.015C55.672,119.21,55.672,90.676,73.22,73.128    c16.991-17.006,46.652-16.991,63.644,0C154.408,90.672,154.467,119.155,136.849,136.772z"
         fill="#18b2c0"
         id="path8" /></g></g><g
     id="g18"><g
       id="g16"><path
         d="M481.219,332.788c-24.345-24.345-59.25-35.11-92.91-29.09l-24.594-27.158l-84.388,84.388l24.29,27.594    c-5.977,33.572,4.79,68.419,29.119,92.749c40.992,40.992,107.605,40.878,148.483,0    C522.159,440.331,522.159,373.728,481.219,332.788z M438.784,438.851c-17.548,17.548-46.081,17.548-63.63,0h-0.015    c-17.519-17.548-17.519-46.096,0-63.644c17.577-17.548,46.096-17.548,63.644,0C456.33,392.756,456.332,421.304,438.784,438.851z"
         fill="#18b2c0"
         id="path14" /></g></g><g
     id="g20" /><g
     id="g22" /><g
     id="g24" /><g
     id="g26" /><g
     id="g28" /><g
     id="g30" /><g
     id="g32" /><g
     id="g34" /><g
     id="g36" /><g
     id="g38" /><g
     id="g40" /><g
     id="g42" /><g
     id="g44" /><g
     id="g46" /><g
     id="g48" /></svg>