<?xml version="1.0" encoding="UTF-8" standalone="no"?>
<!-- Generator: Adobe Illustrator 19.0.0, SVG Export Plug-In . SVG Version: 6.00 Build 0)  -->

<svg
   xmlns:dc="http://purl.org/dc/elements/1.1/"
   xmlns:cc="http://creativecommons.org/ns#"
   xmlns:rdf="http://www.w3.org/1999/02/22-rdf-syntax-ns#"
   xmlns:svg="http://www.w3.org/2000/svg"
   xmlns="http://www.w3.org/2000/svg"
   xmlns:sodipodi="http://sodipodi.sourceforge.net/DTD/sodipodi-0.dtd"
   xmlns:inkscape="http://www.inkscape.org/namespaces/inkscape"
   version="1.1"
   id="Capa_1"
   x="0px"
   y="0px"
   viewBox="0 0 512 512"
   style="enable-background:new 0 0 512 512;"
   xml:space="preserve"
   width="512px"
   height="512px"
   sodipodi:docname="preim-4.svg"
   inkscape:version="0.92.1 r15371"><metadata
     id="metadata43"><rdf:RDF><cc:Work
         rdf:about=""><dc:format>image/svg+xml</dc:format><dc:type
           rdf:resource="http://purl.org/dc/dcmitype/StillImage" /><dc:title></dc:title></cc:Work></rdf:RDF></metadata><defs
     id="defs41" /><sodipodi:namedview
     pagecolor="#ffffff"
     bordercolor="#666666"
     borderopacity="1"
     objecttolerance="10"
     gridtolerance="10"
     guidetolerance="10"
     inkscape:pageopacity="0"
     inkscape:pageshadow="2"
     inkscape:window-width="640"
     inkscape:window-height="480"
     id="namedview39"
     showgrid="false"
     inkscape:zoom="0.4609375"
     inkscape:cx="256"
     inkscape:cy="256"
     inkscape:window-x="0"
     inkscape:window-y="0"
     inkscape:window-maximized="0"
     inkscape:current-layer="Capa_1" /><g
     id="g6"><g
       id="g4"><path
         d="M330.722,249.785C367.226,224.619,391,181.494,391,135C391,60.56,330.434,0,256,0c-41.06,0-79.409,18.369-105.205,50.391    c-14.554,18.075-28.499,23.372-47.373,29.663c-7.632,2.534-11.895,10.635-9.668,18.369c4.556,15.864,14.399,29.224,27.261,38.364    c0.601,45.806,24.229,88.154,60.264,112.998C93.983,281.074,31,368.729,31,467c0,24.814,20.186,45,45,45    c204.853,0,154.907,0,360,0c24.814,0,45-20.186,45-45C481,369.423,418.592,281.201,330.722,249.785z M151.952,149.253    c3.325,0.498,6.724,0.747,10.166,0.747h97.764C299.096,150,331,118.096,331,78.882v-7.764c0-3.486-0.249-6.929-0.747-10.283    C349.237,79.849,361,106.069,361,135c0,48.765-33.12,92.725-78.765,104.561c-15.793,4.081-14.502,27.03,1.641,29.37    c7.2,1.031,13.965,3.215,20.876,5.03L291.729,300H220.27l-13.022-26.039c6.91-1.815,13.676-3.999,20.876-5.03    c16.143-2.34,17.433-25.289,1.641-29.37C188.632,228.896,157.65,192.114,151.952,149.253z M197.76,482H151V298.971    c8.778-5.773,18.005-10.734,27.695-15.027l18.17,36.33l28.907,55.629L197.76,482z M361.001,482H361h-46.76l-28.011-106.097    l28.907-55.629l18.17-36.33c9.69,4.294,18.917,9.254,27.695,15.027V482z"
         fill="#18b2c0"
         id="path2" /></g></g><g
     id="g8" /><g
     id="g10" /><g
     id="g12" /><g
     id="g14" /><g
     id="g16" /><g
     id="g18" /><g
     id="g20" /><g
     id="g22" /><g
     id="g24" /><g
     id="g26" /><g
     id="g28" /><g
     id="g30" /><g
     id="g32" /><g
     id="g34" /><g
     id="g36" /></svg>