<?xml version="1.0" encoding="UTF-8" standalone="no"?>
<!-- Generator: Adobe Illustrator 19.0.0, SVG Export Plug-In . SVG Version: 6.00 Build 0)  -->

<svg
   xmlns:dc="http://purl.org/dc/elements/1.1/"
   xmlns:cc="http://creativecommons.org/ns#"
   xmlns:rdf="http://www.w3.org/1999/02/22-rdf-syntax-ns#"
   xmlns:svg="http://www.w3.org/2000/svg"
   xmlns="http://www.w3.org/2000/svg"
   xmlns:sodipodi="http://sodipodi.sourceforge.net/DTD/sodipodi-0.dtd"
   xmlns:inkscape="http://www.inkscape.org/namespaces/inkscape"
   version="1.1"
   id="Capa_1"
   x="0px"
   y="0px"
   viewBox="0 0 512 512"
   style="enable-background:new 0 0 512 512;"
   xml:space="preserve"
   width="512px"
   height="512px"
   sodipodi:docname="preim-3.svg"
   inkscape:version="0.92.1 r15371"><metadata
     id="metadata43"><rdf:RDF><cc:Work
         rdf:about=""><dc:format>image/svg+xml</dc:format><dc:type
           rdf:resource="http://purl.org/dc/dcmitype/StillImage" /><dc:title></dc:title></cc:Work></rdf:RDF></metadata><defs
     id="defs41" /><sodipodi:namedview
     pagecolor="#ffffff"
     bordercolor="#666666"
     borderopacity="1"
     objecttolerance="10"
     gridtolerance="10"
     guidetolerance="10"
     inkscape:pageopacity="0"
     inkscape:pageshadow="2"
     inkscape:window-width="640"
     inkscape:window-height="480"
     id="namedview39"
     showgrid="false"
     inkscape:zoom="0.4609375"
     inkscape:cx="256"
     inkscape:cy="256"
     inkscape:window-x="0"
     inkscape:window-y="0"
     inkscape:window-maximized="0"
     inkscape:current-layer="Capa_1" /><g
     id="g6"><g
       id="g4"><path
         d="M452,31h-15c-8.291,0-15,6.709-15,15v45H15c-8.291,0-15,6.709-15,15v360c0,8.291,6.709,15,15,15h437    c33.091,0,60-26.909,60-60V91C512,57.909,485.091,31,452,31z M392,286c0,8.291-6.709,15-15,15h-30c-8.291,0-15-6.709-15-15    c0-8.291,6.709-15,15-15h15v-30h-46c-8.291,0-15-6.709-15-15s6.709-15,15-15h46v-30H181v15c0,8.291-6.709,15-15,15    s-15-6.709-15-15v-15H90v90h61v-15c0-8.291,6.709-15,15-15s15,6.709,15,15v60c0,8.291-6.709,15-15,15s-15-6.709-15-15v-15H90v90    h61v-15c0-8.291,6.709-15,15-15s15,6.709,15,15v15h30V226c0-8.291,6.709-15,15-15h30c8.291,0,15,6.709,15,15s-6.709,15-15,15h-15    v150h121v-30h-15c-8.291,0-15-6.709-15-15c0-8.291,6.709-15,15-15h30c8.291,0,15,6.709,15,15v60c0,8.291-6.709,15-15,15H75    c-8.291,0-15-6.709-15-15V166c0-8.291,6.709-15,15-15h302c8.291,0,15,6.709,15,15V286z M482,369.057    c-8.833-5.127-19.087-8.057-30-8.057V61c16.538,0,30,13.462,30,30V369.057z"
         fill="#18b2c0"
         id="path2" /></g></g><g
     id="g8" /><g
     id="g10" /><g
     id="g12" /><g
     id="g14" /><g
     id="g16" /><g
     id="g18" /><g
     id="g20" /><g
     id="g22" /><g
     id="g24" /><g
     id="g26" /><g
     id="g28" /><g
     id="g30" /><g
     id="g32" /><g
     id="g34" /><g
     id="g36" /></svg>