<?xml version="1.0" encoding="UTF-8" standalone="no"?>
<!-- Generator: Adobe Illustrator 19.0.0, SVG Export Plug-In . SVG Version: 6.00 Build 0)  -->

<svg
   xmlns:dc="http://purl.org/dc/elements/1.1/"
   xmlns:cc="http://creativecommons.org/ns#"
   xmlns:rdf="http://www.w3.org/1999/02/22-rdf-syntax-ns#"
   xmlns:svg="http://www.w3.org/2000/svg"
   xmlns="http://www.w3.org/2000/svg"
   xmlns:sodipodi="http://sodipodi.sourceforge.net/DTD/sodipodi-0.dtd"
   xmlns:inkscape="http://www.inkscape.org/namespaces/inkscape"
   version="1.1"
   id="Capa_1"
   x="0px"
   y="0px"
   viewBox="0 0 512 512"
   style="enable-background:new 0 0 512 512;"
   xml:space="preserve"
   width="512px"
   height="512px"
   sodipodi:docname="preim-2.svg"
   inkscape:version="0.92.1 r15371"><metadata
     id="metadata79"><rdf:RDF><cc:Work
         rdf:about=""><dc:format>image/svg+xml</dc:format><dc:type
           rdf:resource="http://purl.org/dc/dcmitype/StillImage" /><dc:title></dc:title></cc:Work></rdf:RDF></metadata><defs
     id="defs77" /><sodipodi:namedview
     pagecolor="#ffffff"
     bordercolor="#666666"
     borderopacity="1"
     objecttolerance="10"
     gridtolerance="10"
     guidetolerance="10"
     inkscape:pageopacity="0"
     inkscape:pageshadow="2"
     inkscape:window-width="640"
     inkscape:window-height="480"
     id="namedview75"
     showgrid="false"
     inkscape:zoom="0.4609375"
     inkscape:cx="256"
     inkscape:cy="256"
     inkscape:window-x="0"
     inkscape:window-y="0"
     inkscape:window-maximized="0"
     inkscape:current-layer="Capa_1" /><g
     id="g6"><g
       id="g4"><path
         d="M422,0c-49.629,0-90,40.371-90,90c0,49.629,40.371,90,90,90c49.629,0,90-40.371,90-90C512,40.371,471.629,0,422,0z"
         fill="#18b2c0"
         id="path2" /></g></g><g
     id="g12"><g
       id="g10"><path
         d="M165,331.85H15c-8.291,0-15,6.709-15,15v150c0,8.291,6.709,15,15,15h150c8.291,0,15-6.709,15-15v-150    C180,338.559,173.291,331.85,165,331.85z"
         fill="#18b2c0"
         id="path8" /></g></g><g
     id="g18"><g
       id="g16"><path
         d="M202.285,95.493l-42.352,42.352L371.29,347.159c15.786-12.81,34.129-22.357,54.419-27.501L202.285,95.493z"
         fill="#18b2c0"
         id="path14" /></g></g><g
     id="g24"><g
       id="g22"><polygon
         points="159.858,53.066 53.807,159.126 75.018,180.339 181.074,74.282   "
         fill="#18b2c0"
         id="polygon20" /></g></g><g
     id="g30"><g
       id="g28"><path
         d="M510.739,491.056l-62.151-144.999c-53.846,5.782-96.094,49.29-99.798,103.724l142.262,60.963    C503.41,516.067,516.095,503.518,510.739,491.056z"
         fill="#18b2c0"
         id="path26" /></g></g><g
     id="g36"><g
       id="g34"><path
         d="M138.722,159.056L96.229,201.55l225.094,225.844c4.759-22.121,15.04-41.982,28.781-59L138.722,159.056z"
         fill="#18b2c0"
         id="path32" /></g></g><g
     id="g42"><g
       id="g40"><path
         d="M128.04,21.248c-28.301-28.331-77.754-28.331-106.055,0c-29.313,29.282-29.313,76.772,0,106.055l10.611,10.613    l106.051-106.06L128.04,21.248z"
         fill="#18b2c0"
         id="path38" /></g></g><g
     id="g44" /><g
     id="g46" /><g
     id="g48" /><g
     id="g50" /><g
     id="g52" /><g
     id="g54" /><g
     id="g56" /><g
     id="g58" /><g
     id="g60" /><g
     id="g62" /><g
     id="g64" /><g
     id="g66" /><g
     id="g68" /><g
     id="g70" /><g
     id="g72" /></svg>