<svg xmlns="http://www.w3.org/2000/svg" viewBox="0 0 317.25 316"><title>call</title><g id="Слой_2" data-name="Слой 2"><g id="Слой_1-2" data-name="Слой 1"><path d="M197.25,316c-1.61-.35-3.2-.8-4.82-1-8.48-1.23-16.47-3.6-23.81-8.34-52.77-34.05-100-74.19-137.68-124.86-11.66-15.69-21.8-32.35-27.21-51.36-4.56-16-5.52-32.24.53-48.11a45.45,45.45,0,0,1,8.34-14C22.4,57.4,32.77,47,43,36.55c4.44-4.52,8.32-4.45,12.94.1q38.29,37.69,76.5,75.47c4.85,4.8,4.84,9,.09,13.81-5.72,5.83-11.58,11.51-17.28,17.36-7.78,8-7.64,18,.47,25.51q19,17.7,38.28,35.16c7.37,6.69,16.58,6.49,23.78-.41,5.29-5.07,10.36-10.38,15.59-15.51,4.55-4.46,8.39-4.47,13,.08q36.11,36,72.13,72.07c3.42,3.42,3.83,7.14.33,10.55-11.56,11.27-23.07,22.62-35.25,33.2-7.66,6.65-17.45,9.51-27.5,11-1.63.24-3.22.69-4.83,1ZM114.91,119.86,48.37,53.29C41.83,59.86,35,67.17,27.68,73.92c-6.27,5.78-9.9,12.89-10.18,21-.33,9.72-.43,19.76,1.59,29.19,4.23,19.75,15.36,36.4,27.38,52.21,36.88,48.54,83.07,86.55,134.94,118a25.62,25.62,0,0,0,7.44,2.71c22,5.11,41.25.49,57.08-16.17,5-5.25,10-10.49,14.6-15.3l-62.71-62.69c-3.13,3.37-6.37,7.18-9.95,10.65a34,34,0,0,1-47,.61q-18.63-17-37.16-34.14c-15-13.82-15.51-33.64-1.3-48.17C106.71,127.45,111.28,123.32,114.91,119.86Z"/><path d="M170.25,0C178.1,1.29,186,2.26,193.79,3.94c61.12,13.17,109.85,63.94,120.49,125.39,1.08,6.21,2,12.45,3,18.68v12c-2.63,4.25-6.29,6.44-11.29,4.86s-5.72-5.77-5.82-10.41C298.52,79.37,237.74,18.52,163,17.15c-4.51-.08-8.89-.19-10.62-5.4-1.58-4.75.2-8.13,5.86-11.75Z"/><path d="M167.23,50.38c51.24,3.9,90.48,39.26,99.43,89.87A109.58,109.58,0,0,1,268,155.17c.26,6.78-2.55,10.08-8.14,10.14-5.44.06-8.52-3.4-8.72-9.84-.74-24.57-9.5-45.8-27-63.08-16.9-16.67-37.46-24.91-61.2-25.22-6.31-.08-9.19-2.14-9.77-6.93-.63-5.19,2.42-9.24,7.61-9.81A59.24,59.24,0,0,1,167.23,50.38Z"/><path d="M224.25,153.5c.2,7.3-2.28,10.6-8,10.69S207.63,161,207.32,154a45.55,45.55,0,0,0-43.93-44c-.83,0-1.67,0-2.5-.09-4.67-.54-7.77-3.8-7.83-8.2-.06-4.2,2.79-7.6,7.7-7.36,6.92.34,14,.92,20.63,2.89C206,104.56,223.54,128,224.25,153.5Z"/></g></g></svg>