<svg xmlns="http://www.w3.org/2000/svg" width="180" height="49" viewBox="0 0 1924.02 520"><defs><style>.cls-1{fill:#fcda33;}.cls-2{fill:#1a1b1b;}</style></defs><title>logo</title><g id="Слой_2" data-name="Слой 2"><g id="Слой_1-2" data-name="Слой 1"><path class="cls-1" d="M280,0c5.78,2.21,12,1.87,18,2.77q75.35,11.34,132.78,61.31c47,41.14,76.14,92.72,85.82,154.36,11.49,73.15-5,140.13-50,199.14-41.67,54.74-97.26,87.38-165,99.15-8.13,1.41-16.37,2.2-24.55,3.27H242c-.69-1-1.74-.83-2.72-.9-40.37-3.09-78.17-14.75-112.59-36Q22.69,419,2.79,298c-1-6-.6-12.2-2.79-18V240c1.85-4.68,1.51-9.69,2.19-14.54C9.16,176.18,28,132,60.1,93.9Q123.68,18.28,221.57,2.83C227.38,1.92,233.42,2.35,239,0ZM257.51,343.1v0c1.5,0,3,0,4.5,0,6.81-.11,8.19-1.81,5.89-8.21q-27.35-76-54.82-152a7,7,0,0,0-6.58-5.12,98,98,0,0,0-15.43-.22c-4.71.31-6.91,2.45-8.48,6.82-14.67,41-29.55,81.92-44.36,122.87-3.39,9.38-6.86,18.73-10.08,28.16-1.89,5.56-.51,7.4,5.26,7.62,3,.12,6,0,9,0,4.14,0,6.64-1.78,8-6,3.59-11.24,7.72-22.3,11.33-33.53,1-3.22,2.41-4.38,5.89-4.35q29.49.28,59,0c3.94,0,5.38,1.39,6.54,4.92,3.68,11.21,7.91,22.23,11.65,33.42,1.33,4,3.68,5.7,7.71,5.56C254.18,343,255.85,343.1,257.51,343.1ZM339.35,178c-15.49,0-31,.11-46.47-.07-4.25-.05-6.15,1.94-6.71,5.7a30.55,30.55,0,0,0-.21,6c.32,6.49,1.64,7.7,8.19,7.7,23.65,0,47.3.07,70.95-.07,3.69,0,4.25.79,2.71,4.12-5.23,11.32-10.24,22.73-15.32,34.11Q330.25,285.31,308,335.15c-2.66,6-1.55,7.68,5.13,7.92,3.16.11,6.33,0,9.49,0,4.52,0,7.33-2,9.16-6.25q29-67.27,58.3-134.45a36.56,36.56,0,0,0,3-16.52c-.29-6.35-1.81-7.85-8.28-7.87C369.67,178,354.51,178,339.35,178Z"/><path class="cls-2" d="M1412.1,262.77c10.81,5.62,16.4,14.65,20.62,24.54,6.52,15.27,12.68,30.7,18.78,46.14,3.05,7.75,1.69,9.61-6.52,9.71-17.11.21-13.6.05-18.88-12.73-5.39-13-10.1-26.35-15.72-39.3-6.58-15.17-17.63-22.65-34.35-22-10.84.4-10.85.08-10.85,10.94,0,18.83-.14,37.67.1,56.5.06,4.65-1.95,6.12-6.06,6.53-14.88,1.47-16,.51-16-13.94q0-70,0-140c0-8.91,2.24-11.25,11.26-11.11,16.15.25,32.3-.72,48.44.89,24.44,2.43,40,18.51,40.32,42,.28,18.3-8.19,31-24.41,38.94C1416.85,260.78,1414.85,261.57,1412.1,262.77ZM1365.17,224c0,8,.08,16,0,24,0,2.43.43,3.65,3.23,3.58,8.47-.23,17,.31,25.42-.58,16.21-1.7,26.15-12.34,26-27.84-.11-15.68-8.91-24.54-25.91-26.33-8.47-.89-16.94-.42-25.41-.67-2.66-.08-3.42.84-3.38,3.43C1365.26,207.7,1365.17,215.86,1365.17,224Z"/><path class="cls-2" d="M965.73,262.69c12.81,6.92,18.28,18.68,23.22,30.76,5.53,13.52,11,27.05,16.25,40.69,2.75,7.18,1.41,8.93-6.38,9-16.48.16-13.81.53-19.06-12.47-5.6-13.86-10.44-28-16.81-41.57s-17-20.29-32.12-20c-12,.25-12,0-12,12.22,0,18.33-.13,36.66.09,55,.05,4.51-1.71,6.26-5.91,6.74-14.84,1.7-16.19.56-16.19-14.21q0-69.73,0-139.46c0-9.32,2.08-11.51,11.45-11.37,16.14.25,32.3-.75,48.43.93,21.55,2.24,36.71,15.64,39.46,35.26C999.42,237.41,990.2,252.42,965.73,262.69Zm-46.89-38.93c0,4.66-.1,9.32,0,14,.13,4.45-1.91,10.28.82,13s8.55.75,13,.78c8.46.05,16.95.27,25-3.26,11.44-5,16.57-14.3,15.45-28.29-.94-11.76-7.43-19.25-19.49-22.08-10.64-2.5-21.5-1.41-32.28-1.69-3-.08-2.51,1.92-2.52,3.67C918.83,207.79,918.84,215.78,918.84,223.76Z"/><path class="cls-2" d="M798.91,299.51c-9.83,0-19.67.16-29.49-.09-3.41-.09-5,.9-6,4.22-3.54,11.07-7.66,22-11.1,33.06-1.45,4.65-4.13,6.51-8.68,6.46-2.33,0-4.67,0-7,0-7.72-.1-9-1.83-6.5-9,3.36-9.55,6.83-19.07,10.28-28.59,14.51-40.14,29.12-80.25,43.44-120.46,1.84-5.17,4.55-7.87,10-7.7a8.49,8.49,0,0,0,1-.13c16.16-1.47,17.78-.43,23.18,14.55q25.18,69.83,50.39,139.66c.34.94.7,1.86,1,2.81,2.4,7.07,1.27,8.83-6,8.83-18.29,0-14.18,1.27-19.82-13.76q-4.63-12.35-8.67-24.93c-1.17-3.63-2.75-5.27-7-5.08C818.25,299.8,808.57,299.51,798.91,299.51Zm-.3-99.22C789.42,227,780.68,252.54,771.73,278c-1.18,3.36-.44,3.91,2.78,3.84,7.49-.17,15-.06,22.47-.06h30.2Z"/><path class="cls-2" d="M1832.49,260.33q0-35.73,0-71.46c0-8.51,2.43-10.87,11.06-10.88H1915c6.67,0,7.71,1,8,7.73.07,1.49,0,3,0,4.49-.19,4.41-2.2,6.43-6.93,6.38-19-.19-38,0-57-.17-3.83,0-4.71,1.12-4.66,4.78q.31,21,0,42c-.06,3.69.86,4.81,4.68,4.76,16-.23,32,.06,48-.19,4.83-.07,6.66,2,6.85,6.38.07,1.66.15,3.33.05,5-.3,5.33-1.72,6.71-7.09,6.72-15.82,0-31.65.12-47.47-.07-3.74,0-5.08.7-5,4.81.26,16.32.22,32.65,0,49,0,3.62.69,4.78,4.58,4.74,19.32-.23,38.64,0,58-.19,5-.05,7,2.06,7,6.74,0,1.66,0,3.32,0,5,0,4.6-1.86,6.83-7,6.79-24.82-.19-49.64-.07-74.45-.1-7.73,0-10.08-2.36-10.1-10.22Q1832.44,296.31,1832.49,260.33Z"/><path class="cls-2" d="M1533.95,319.37c4.92-14.65,9.44-28,13.87-41.32q15.73-47.48,31.34-95c1.2-3.67,3.22-5.47,7.11-5.65a57.25,57.25,0,0,1,11,.08c5.05.74,6,2,4.31,7-3.44,10.22-7.05,20.39-10.63,30.56-14.2,40.41-28.49,80.79-42.53,121.26-1.64,4.73-4.3,6.82-9,6.8-4.5,0-9,0-13.49-.07-4.25-.07-6.93-1.89-8.44-6.22q-26.39-75.46-53-150.82c-2.27-6.47-1.3-7.85,5.6-8.62.33,0,.66-.11,1-.14,13.07-1.11,14.33-.3,18.54,12.09q21.28,62.48,42.56,125C1532.48,315.54,1533,316.77,1533.95,319.37Z"/><path class="cls-2" d="M1216.16,260.51q0-36,0-72c0-8,2.53-10.53,10.38-10.54,24.49,0,49,.09,73.47-.1,4.32,0,6.14,1.8,6.56,5.64a38.4,38.4,0,0,1,.19,6.47c-.27,4.48-2.22,6.67-7.27,6.6-18.82-.27-37.65,0-56.47-.2-4,0-5,1.12-4.93,5,.23,14,.2,28,0,42,0,3.42.78,4.55,4.38,4.5,15.82-.2,31.66.1,47.48-.19,5.09-.09,7.2,1.7,7.74,6.64,1,9.22-.75,11.48-9.84,11.48-15,0-30,.11-45-.08-3.55,0-4.87.58-4.81,4.55.26,16.49.21,33,0,49.48,0,3.45.82,4.49,4.38,4.46,19.16-.18,38.32-.09,57.48-.08,6.4,0,7.76,1.33,7.87,7.93a38.8,38.8,0,0,1-.39,6c-.43,3.09-2.17,4.52-5.45,4.51-25.66-.07-51.31,0-77-.07-6.26,0-8.81-2.89-8.82-9.5Q1216.13,296.75,1216.16,260.51Z"/><path class="cls-2" d="M1136.27,175.81c13-.22,24.18,2.43,34.52,8.36,5,2.89,7.34,15.7,3.78,20.26-1.89,2.43-3.94,1.07-5.75,0-5.49-3.13-11-6.23-17-8.13-8.77-2.76-17.63-3.5-26.46-.36-15.09,5.37-19.82,23.09-9.52,35.42,4.82,5.77,11.19,9.33,17.78,12.57,8.78,4.32,17.85,8,26.37,12.9,19.52,11.14,27.65,26.38,24.86,46.85-2.61,19.15-15.86,33.7-36,38.8-19.44,4.92-38.32,3-56.21-6.29-8.22-4.26-10.93-11.79-8.13-20.61,1.31-4.11,3.94-4.14,6.95-2.28,6,3.68,12,7.13,18.69,9.32,12.67,4.17,25.43,5.52,37.87-.59,16.13-7.92,19.11-28.6,6-40.91-5.4-5.08-12-8.17-18.68-11.3-11.1-5.24-22.61-9.79-32.1-17.91-14.32-12.25-18.21-27.92-13.6-45.56,4.49-17.17,17.33-25.63,33.87-29.34A49.66,49.66,0,0,1,1136.27,175.81Z"/><path class="cls-2" d="M1684.15,266.89c.1-19.67,2.29-37.21,10.57-53.49,15.28-30,47.21-43.76,81-34.9,7.77,2,15.2,4.86,21.72,9.67,5.34,3.94,7.68,15.09,4.51,20.88-2,3.56-4.49,2.12-6.68.53a85.31,85.31,0,0,0-16.7-9.87c-28.3-11.94-55.18-.53-65.18,28.36-7.33,21.19-7.39,42.87-.66,64.27,10,31.89,38.81,37,61.92,30.11,7.56-2.26,14.21-6.34,20.67-10.78,5.66-3.89,7.84-2.72,8.48,4.13.73,7.72-1.22,13.58-8.5,18-24.77,15.14-62.15,14.32-84-2.62-15.22-11.81-22.1-28.31-25.26-46.66C1685,278.16,1684.65,271.65,1684.15,266.89Z"/><path class="cls-2" d="M622,261.18A92.4,92.4,0,0,0,626.29,292c10.74,32.76,39.08,37,61.81,30.53,7.57-2.16,14.27-6.22,20.72-10.72,5.91-4.13,8.08-3,8.7,4.08.69,7.74-1.29,13.56-8.57,18-24.66,14.88-61.58,14.27-83.22-2.16-14.09-10.7-21.5-25.53-24.94-42.47-4.69-23.11-4.17-46.06,4.35-68.28,19.62-51.2,73.39-52.56,102.9-34.91,8,4.8,10.4,10.54,8.68,19.77-1.07,5.73-3.38,6.74-8.17,3.37a92.72,92.72,0,0,0-12.65-8c-31.68-15.42-61.87-1.31-70.76,33.1A96.57,96.57,0,0,0,622,261.18Z"/><path class="cls-2" d="M1650.51,260.48q0,37.48,0,75c0,6.38-1,7.38-7.48,7.72-14.38.76-14.87.3-14.87-13.84,0-48,.09-95.94-.13-143.91,0-5.41,1.81-7.71,6.93-7.91,1.33-.05,2.65-.3,4-.32,10.71-.16,11.57.7,11.57,11.35Z"/><path class="cls-2" d="M257.51,343.1c-1.67,0-3.33,0-5,0-4,.14-6.38-1.59-7.71-5.56-3.74-11.19-8-22.22-11.65-33.42-1.16-3.53-2.6-5-6.54-4.92q-29.49.34-59,0c-3.49,0-4.86,1.13-5.89,4.35-3.61,11.23-7.74,22.29-11.33,33.53-1.34,4.21-3.84,6-8,6-3,0-6,.1-9,0-5.77-.23-7.15-2.06-5.26-7.62,3.21-9.44,6.69-18.79,10.08-28.16,14.81-40.95,29.69-81.87,44.36-122.87,1.56-4.37,3.76-6.52,8.48-6.82a98,98,0,0,1,15.43.22,7,7,0,0,1,6.58,5.12q27.39,76,54.82,152c2.3,6.4.92,8.1-5.89,8.21-1.5,0-3,0-4.5,0Zm-60-141.47-1.05-.13Q183,240.44,169.55,279.37c-1,2.94.84,2.51,2.47,2.51,16.64,0,33.27,0,49.91,0,2.62,0,3.66-.39,2.62-3.32Q211,240.15,197.53,201.63Z"/><path class="cls-2" d="M339.35,178c15.16,0,30.31,0,45.47,0,6.48,0,8,1.52,8.28,7.87a36.56,36.56,0,0,1-3,16.52q-29.21,67.2-58.3,134.45c-1.82,4.22-4.64,6.29-9.16,6.25-3.16,0-6.33.09-9.49,0-6.68-.24-7.78-2-5.13-7.92q22.22-49.85,44.47-99.69c5.08-11.38,10.09-22.8,15.32-34.11,1.54-3.33,1-4.14-2.71-4.12-23.65.13-47.3.07-70.95.07-6.55,0-7.87-1.21-8.19-7.7a30.55,30.55,0,0,1,.21-6c.56-3.76,2.46-5.75,6.71-5.7C308.38,178.11,323.87,178,339.35,178Z"/><path class="cls-1" d="M197.53,201.63q13.49,38.5,27,77c1,2.93,0,3.33-2.62,3.32-16.64-.08-33.27,0-49.91,0-1.63,0-3.5.43-2.47-2.51q13.53-38.92,26.93-77.88Z"/></g></g></svg>