<?xml version="1.0" encoding="utf-8"?>
<!-- Generator: Adobe Illustrator 21.1.0, SVG Export Plug-In . SVG Version: 6.00 Build 0)  -->
<svg version="1.1" id="Слой_1" width="30" height="30" xmlns="http://www.w3.org/2000/svg" xmlns:xlink="http://www.w3.org/1999/xlink" x="0px" y="0px"
	 viewBox="0 0 512 512" style="enable-background:new 0 0 512 512;" xml:space="preserve">
<title>phone-call</title>
<path d="M99,0c8.3,10.6,17.2,20.7,24.6,31.9c18.8,28.3,36,57.6,50.7,88.3c4.7,9.9,4.7,10.5-3.6,17.8c-10.6,9.4-21.7,18.2-32,27.9
	c-18.1,16.9-17.2,15.3-9.8,37.8c13.8,42.1,36.7,79,66,112c24.5,27.6,52.4,50.7,86.8,65c12.4,5.3,25.6,8.6,39.1,9.8
	c8.5,0.7,15.9-0.9,22.3-7.4c10.5-10.7,21.3-21.1,32.4-31.2c9.9-8.9,11.1-9,22.9-2.6c36,19.6,70.6,41.5,103.2,66.5
	c3.8,2.9,7,6.7,10.4,10v2c-4.7,4.7-9,9.7-14.1,13.9c-30.8,25.9-62.6,50.5-98,70.1h-19c-7.2-1.2-14.4-2.2-21.6-3.6
	c-38.3-7.8-72.9-24.3-105.2-45.6c-79.4-52.6-144.6-119.6-196.4-199.4c-23.3-35.9-41.7-74.3-52.2-116.1c-2.3-9-3.8-18.2-5.7-27.3v-8
	c0.4-0.3,0.7-0.6,1-0.9C28.7,70.6,59.3,32.7,96,0H99z"/>
<path d="M512,244l-43.6,6.5c-0.6-57.4-19.7-106.7-59.9-146.9s-89.5-59.4-147-60L268,0h12c1.2,0.4,2.5,0.7,3.8,0.9
	c23.9,1.7,47.2,6.5,69.4,15.7c85.1,35.1,137,97.9,154.9,188.4c1.8,9.3,2.6,18.7,3.9,28.1V244z"/>
<path d="M402.4,259.7l-43.6,6.2c4.8-33-3.1-62.2-26.7-85.8s-52.7-31.8-86.1-26.9l6.1-43.4C333.6,99.1,412,170.8,402.4,259.7z"/>
</svg>
