<svg xmlns="http://www.w3.org/2000/svg" xmlns:xlink="http://www.w3.org/1999/xlink" viewBox="0 0 1005.6 291.27"><defs><style>.cls-1{clip-path:url(#clip-path);}.cls-2,.cls-4,.cls-6{fill:none;stroke:#59546d;}.cls-2,.cls-4{stroke-miterlimit:22.93;}.cls-2{stroke-width:7.81px;}.cls-3,.cls-5{fill:#59546d;}.cls-3{fill-rule:evenodd;}.cls-4{stroke-width:2px;}.cls-6{stroke-miterlimit:5;stroke-width:0.27px;}</style><clipPath id="clip-path"/></defs><title>logo</title><g id="Слой_2" data-name="Слой 2"><g id="Слой_1-2" data-name="Слой 1"><g class="cls-1"><path class="cls-2" d="M940.62,3.9h-250l-.55,283.46H940.62a61.07,61.07,0,0,0,61.07-61.07V65A61.07,61.07,0,0,0,940.62,3.9Z"/><path class="cls-3" d="M746.12,205.76c.67,8.64,6.58,20.05,13.07,25.24,8.6,6.88,21.06,5.88,31.12,4.92,28.11-2.67,32.27,3.92,55.54,16.61,19.77,10.79,35.8,14.7,55.49.23,7.19-5.28,14.11-12.9,15.65-22.54,3.54-22.24-22.45-27.66-30.4-44.3C878.51,169.07,892,153.42,858,138c-9.63-4.35-21.61-5-31.73-2.46-23,5.68-23.07,23.88-38.86,36.82-8.95,7.34-17.25,6.11-27,9.89-9.31,3.61-15.17,12.36-14.31,23.47m-.73,3.71c-5.58-33.36,24.56-26.67,39.32-36.83,16.63-11.45,16-30.73,39-37.79a52.5,52.5,0,0,1,32.12.76c6.6,2.46,18.51,9.52,23,15.28,6.94,8.84,4.35,21.46,7.88,31.74,6.26,18.21,33,22.57,31.85,45.1-.54,10.67-7.12,18.57-14.57,24.73-18.49,15.28-36.07,13.37-55.86,2.92-22.69-12-28.65-20.78-56.17-18.2-10.46,1-22.5,2.32-31.93-3.82-7-4.56-13.2-15.28-14.63-23.88"/><path class="cls-4" d="M746.12,205.76c.67,8.64,6.58,20.05,13.07,25.24,8.6,6.88,21.06,5.88,31.12,4.92,28.11-2.67,32.27,3.92,55.54,16.61,19.77,10.79,35.8,14.7,55.49.23,7.19-5.28,14.11-12.9,15.65-22.54,3.54-22.24-22.45-27.66-30.4-44.3C878.51,169.07,892,153.42,858,138c-9.63-4.35-21.61-5-31.73-2.46-23,5.68-23.07,23.88-38.86,36.82-8.95,7.34-17.25,6.11-27,9.89C751.12,185.91,745.26,194.65,746.12,205.76Zm-.73,3.71c-5.58-33.36,24.56-26.67,39.32-36.83,16.63-11.45,16-30.73,39-37.79a52.5,52.5,0,0,1,32.12.76c6.6,2.46,18.51,9.52,23,15.28,6.94,8.84,4.35,21.46,7.88,31.74,6.26,18.21,33,22.57,31.85,45.1-.54,10.67-7.12,18.57-14.57,24.73-18.49,15.28-36.07,13.37-55.86,2.92-22.69-12-28.65-20.78-56.17-18.2-10.46,1-22.5,2.32-31.93-3.82C753,228.8,746.83,218.08,745.39,209.48Z"/><path class="cls-3" d="M881.43,93.82c1.69-13.2-3.22-34.61-19.33-30.12-11.47,3.2-18.84,19.07-20.42,30.85-1.79,13.32,3.18,34.61,19.36,30.07,11.42-3.21,18.88-19,20.39-30.8m-12-31.56c26,6.57,11.41,70.58-15.7,64-26-6.35-11.75-70.89,15.7-64"/><path class="cls-4" d="M881.43,93.82c1.69-13.2-3.22-34.61-19.33-30.12-11.47,3.2-18.84,19.07-20.42,30.85-1.79,13.32,3.18,34.61,19.36,30.07C872.47,121.42,879.93,105.59,881.43,93.82Zm-12-31.56c26,6.57,11.41,70.58-15.7,64C827.78,119.87,842,55.33,869.44,62.27Z"/><path class="cls-3" d="M920.42,118.23c2.82-40-36.71-27.62-40.18,10.72-1.35,14.88,6.47,32.68,22.46,22.38,10-6.43,16.85-20.71,17.72-33.1m1.22,0c-3,40.29-45.59,53.25-42.82,11.36,2.66-40.22,45.94-53.84,42.82-11.36"/><path class="cls-4" d="M920.42,118.23c2.82-40-36.71-27.62-40.18,10.72-1.35,14.88,6.47,32.68,22.46,22.38C912.67,144.9,919.54,130.61,920.42,118.23Zm1.22,0c-3,40.29-45.59,53.25-42.82,11.36C881.48,89.37,924.76,75.75,921.64,118.23Z"/><path class="cls-3" d="M935.44,145.76c-11.84-3.61-23.68,8.36-28.93,18.74-5.33,10.54-7.82,30.75,5.83,34.76,24.88,7.32,47.85-46,23.1-53.51m11.85,18.62c-1.22,36-47.76,53.11-46.4,15.92,1.32-36.14,47.63-52.42,46.4-15.92"/><path class="cls-4" d="M935.44,145.76c-11.84-3.61-23.68,8.36-28.93,18.74-5.33,10.54-7.82,30.75,5.83,34.76C937.21,206.58,960.19,153.31,935.44,145.76Zm11.85,18.62c-1.22,36-47.76,53.11-46.4,15.92C902.2,144.16,948.52,127.88,947.29,164.38Z"/><path class="cls-3" d="M833.49,103.9c3.45-44-36.21-48.82-39.26-6.89-3.2,44.05,36,48.4,39.26,6.89M816.22,66.48c27.43,3.48,23.25,71.15-4.66,67.83-27.4-3.26-23.4-71.39,4.66-67.83"/><path class="cls-4" d="M833.49,103.9c3.45-44-36.21-48.82-39.26-6.89C791,141.06,830.24,145.41,833.49,103.9ZM816.22,66.48c27.43,3.48,23.25,71.15-4.66,67.83C784.16,131.06,788.16,62.92,816.22,66.48Z"/><path class="cls-3" d="M775.39,109.74c-23-6.48-31.45,50.95-8.59,57.39,23.11,6.51,32.49-50.65,8.59-57.39M790.67,140c-2.68,39.44-41.44,38-38.72-2.93,2.66-40.11,41.5-38,38.72,2.93"/><path class="cls-4" d="M775.39,109.74c-23-6.48-31.45,50.95-8.59,57.39C789.92,173.64,799.3,116.48,775.39,109.74ZM790.67,140c-2.68,39.44-41.44,38-38.72-2.93C754.62,96.94,793.46,99,790.67,140Z"/><path class="cls-3" d="M786.5,69.91c-6.35,5.28-10,7.21-15,14.65-3.2,4.76-8.29,15.89-8.32,21.72,3.94-2.54,8.79-1.41,13.2-1.49l.4.55.33-2.54c-.42-5,1.93-13.49,3.7-18.18,1.7-4.5,5.41-10,6.58-13.8l.72-1.95Zm-8.64,36.45c-1.87.36-5.48-.53-8.08-.36-2.77.18-5.25,1.72-7.9,1.75-1.16-15.15,19.21-40.81,27.82-40.39,0,4.24-7.95,15.61-10.37,27.24-.83,4-.73,8.33-1.46,11.76"/><path class="cls-4" d="M786.5,69.91c-6.35,5.28-10,7.21-15,14.65-3.2,4.76-8.29,15.89-8.32,21.72,3.94-2.54,8.79-1.41,13.2-1.49l.4.55.33-2.54c-.42-5,1.93-13.49,3.7-18.18,1.7-4.5,5.41-10,6.58-13.8l.72-1.95Zm-8.64,36.45c-1.87.36-5.48-.53-8.08-.36-2.77.18-5.25,1.72-7.9,1.75-1.16-15.15,19.21-40.81,27.82-40.39,0,4.24-7.95,15.61-10.37,27.24C778.49,98.58,778.59,102.93,777.86,106.37Z"/><path class="cls-3" d="M835.66,30.32c-5.85,2.37-13.61,7.85-17.68,13-3.76,4.75-10.14,14.41-10.87,20.6,3.87-1.54,9.62-1.17,13.41.56,1.24-2.05,1.59-6.88,2.51-9.8,2.21-7,8.57-19.58,12.63-24.34M821.5,65.88c-2.33-.16-4.81-1.33-7.53-1.58-3-.27-5.35,1-8.14.91-.56-6.4,7.5-18.52,11.48-23.16,4.51-5.25,13.81-13,20.49-13.66-.2,2.52-6.81,11.77-9.52,17.08-5.74,11.23-4.72,16.62-6.77,20.41"/><path class="cls-4" d="M835.66,30.32c-5.85,2.37-13.61,7.85-17.68,13-3.76,4.75-10.14,14.41-10.87,20.6,3.87-1.54,9.62-1.17,13.41.56,1.24-2.05,1.59-6.88,2.51-9.8C825.25,47.68,831.6,35.08,835.66,30.32ZM821.5,65.88c-2.33-.16-4.81-1.33-7.53-1.58-3-.27-5.35,1-8.14.91-.56-6.4,7.5-18.52,11.48-23.16,4.51-5.25,13.81-13,20.49-13.66-.2,2.52-6.81,11.77-9.52,17.08C822.54,56.7,823.55,62.1,821.5,65.88Z"/><path class="cls-3" d="M934.23,138.41c3.95,2.85,5.3.78,11.39,8.22,7.4-26.72-5.36-44.72-5.36-44.72s.39,22.75-6,36.51m4.41-40a6.69,6.69,0,0,1,2.22,2.27c2.66,4.89,7.13,15.76,7.84,20.4.78,5.12,1.09,24-2.34,27.27-2-.19-4.26-3.75-6.22-5.25-2.47-1.88-5.67-2.39-7.25-3.71,1.35-2.6,3.67-12.41,5.08-20.23,1.31-7.31.69-20.75.69-20.75"/><path class="cls-4" d="M934.23,138.41c3.95,2.85,5.3.78,11.39,8.22,7.4-26.72-5.36-44.72-5.36-44.72S940.65,124.65,934.23,138.41Zm4.41-40a6.69,6.69,0,0,1,2.22,2.27c2.66,4.89,7.13,15.76,7.84,20.4.78,5.12,1.09,24-2.34,27.27-2-.19-4.26-3.75-6.22-5.25-2.47-1.88-5.67-2.39-7.25-3.71,1.35-2.6,3.67-12.41,5.08-20.23C939.27,111.84,938.65,98.4,938.65,98.4Z"/><path class="cls-3" d="M872.45,38.33c-2.65,4.5-7.5,13.07-8.13,18.2,10.67.19,9.18,2.52,14.19,5,4.35-4.94,5.19-32.13,4.17-39,0,0-9,13.71-10.24,15.81M879,63.44c-1.55-.4-4.06-3.18-6.63-4.21-4.11-1.64-6.57-.63-9-1.36-1.9-5.56,16.28-36.28,20.09-37.17,2.42,4.07.32,39-4.48,42.73"/><path class="cls-4" d="M872.45,38.33c-2.65,4.5-7.5,13.07-8.13,18.2,10.67.19,9.18,2.52,14.19,5,4.35-4.94,5.19-32.13,4.17-39C882.69,22.52,873.69,36.22,872.45,38.33ZM879,63.44c-1.55-.4-4.06-3.18-6.63-4.21-4.11-1.64-6.57-.63-9-1.36-1.9-5.56,16.28-36.28,20.09-37.17C885.89,24.78,883.79,59.75,879,63.44Z"/><path class="cls-3" d="M920,94.72c4.41-6.73,3.23-35.24-5.09-44.83-.57,7.16-.13,13.41-1.32,20.91-1,6.34-3.88,11.45-4.83,16,1.51,1.21,4.18,1.87,6.31,3.47,1.2.9,4.47,4.24,4.93,4.46M913.2,59.39c.07-4.64.41-8.25.61-11.87l.54.56a23,23,0,0,1,4.13,5.83c2.79,5.61,3.67,7.84,4.84,16.17.8,5.75.63,22.45-2.8,26.78-1.54-.19-4.06-3.79-5.86-5.12-2.43-1.8-6.08-2.89-7.45-4-.23-2.82,6.27-12.87,6-28.34"/><path class="cls-4" d="M920,94.72c4.41-6.73,3.23-35.24-5.09-44.83-.57,7.16-.13,13.41-1.32,20.91-1,6.34-3.88,11.45-4.83,16,1.51,1.21,4.18,1.87,6.31,3.47C916.23,91.15,919.5,94.49,920,94.72ZM913.2,59.39c.07-4.64.41-8.25.61-11.87l.54.56a23,23,0,0,1,4.13,5.83c2.79,5.61,3.67,7.84,4.84,16.17.8,5.75.63,22.45-2.8,26.78-1.54-.19-4.06-3.79-5.86-5.12-2.43-1.8-6.08-2.89-7.45-4C907,84.91,913.48,74.86,913.2,59.39Z"/><path class="cls-5" d="M1.38,10.44H27.07q15.5,0,23.83,3.68a29.2,29.2,0,0,1,13.16,11.3,31,31,0,0,1,4.83,16.92,30.41,30.41,0,0,1-4.23,15.82A31.34,31.34,0,0,1,52.23,69.72q10.16,3.46,15.64,8.11a32.41,32.41,0,0,1,8.52,11.25,33.7,33.7,0,0,1,3,14.31A35.13,35.13,0,0,1,68,129.92q-11.48,10.86-30.79,10.85H1.38ZM14.14,23.2V64.93h7.46q13.59,0,20-2.52a21.54,21.54,0,0,0,10.12-8,20.93,20.93,0,0,0,3.73-12.09q0-8.95-6.26-14T29.23,23.2Zm0,54.84v50H30.29q14.29,0,20.95-2.79a23.8,23.8,0,0,0,10.69-8.73,22.78,22.78,0,0,0-1.64-28Q54.61,82,44.68,79.64,38,78,21.5,78Z"/><path class="cls-5" d="M184.34,108.79l10.45,5.49a57,57,0,0,1-11.88,16.3A47.17,47.17,0,0,1,167.75,140a52.88,52.88,0,0,1-19.07,3.24q-23.59,0-36.89-15.46t-13.3-35a51.53,51.53,0,0,1,11.26-32.69Q124,41.9,148,41.9q24.65,0,39.37,18.69,10.47,13.2,10.64,33H111.24q.35,16.8,10.73,27.54a34.24,34.24,0,0,0,25.64,10.74,41.22,41.22,0,0,0,14.33-2.56,37.66,37.66,0,0,0,11.84-6.8q4.88-4.24,10.56-13.68m0-26q-2.48-9.92-7.23-15.86a34.24,34.24,0,0,0-12.55-9.57,38.44,38.44,0,0,0-16.41-3.63,35.34,35.34,0,0,0-24.4,9.13q-7.45,6.65-11.27,19.94Z"/><path class="cls-5" d="M317.15,44.38v96.4H304.93V124.21a53.17,53.17,0,0,1-17.5,14.26,47.32,47.32,0,0,1-21.22,4.78q-20.47,0-35-14.84t-14.49-36.1a48.85,48.85,0,0,1,14.62-35.62,47.67,47.67,0,0,1,35.17-14.8A45.49,45.49,0,0,1,288,46.95,48.9,48.9,0,0,1,304.93,62.1V44.38Zm-49.57,9.48a37.4,37.4,0,0,0-33.06,19.38,39.06,39.06,0,0,0,0,38.94,38,38,0,0,0,14,14.47,36.64,36.64,0,0,0,18.9,5.18,38.72,38.72,0,0,0,19.29-5.13,35.91,35.91,0,0,0,14-13.89,39.66,39.66,0,0,0,4.91-19.74q0-16.73-11-28a36.5,36.5,0,0,0-27.12-11.24"/><path class="cls-5" d="M340.37,44.38H353V58.47q5.67-8.33,12-12.45a23.59,23.59,0,0,1,13.11-4.12,22.64,22.64,0,0,1,11,3.28l-6.47,10.46a17.28,17.28,0,0,0-6.56-1.68q-6.2,0-12,5.09t-8.77,15.82Q353,83.1,353,108.17v32.61H340.37Z"/><polygon class="cls-5" points="410.45 8.58 422.86 8.58 422.86 44.38 442.53 44.38 442.53 55.1 422.86 55.1 422.86 140.78 410.45 140.78 410.45 55.1 393.53 55.1 393.53 44.38 410.45 44.38 410.45 8.58"/><path class="cls-5" d="M456.44,44.38h12.67V58.47q5.67-8.33,12-12.45a23.59,23.59,0,0,1,13.11-4.12,22.64,22.64,0,0,1,11,3.28L498.7,55.63a17.28,17.28,0,0,0-6.56-1.68q-6.2,0-12,5.09t-8.77,15.82q-2.31,8.24-2.3,33.31v32.61H456.44Z"/><path class="cls-5" d="M520,4.68a9.84,9.84,0,0,1,7.23,3,9.92,9.92,0,0,1,3,7.27,9.82,9.82,0,0,1-3,7.18,9.83,9.83,0,0,1-7.23,3,9.73,9.73,0,0,1-7.15-3,9.82,9.82,0,0,1-3-7.18,9.93,9.93,0,0,1,3-7.27,9.74,9.74,0,0,1,7.15-3m-6.16,39.69h12.4v96.4h-12.4Z"/><path class="cls-5" d="M552.22,44.38h12.41V62.1a49.76,49.76,0,0,1,16.91-15.15,44.94,44.94,0,0,1,21.33-5.05A47.6,47.6,0,0,1,638,56.69,48.88,48.88,0,0,1,652.6,92.31q0,21.26-14.47,36.1t-34.92,14.84a46.94,46.94,0,0,1-21.15-4.78,53.27,53.27,0,0,1-17.44-14.26V176H552.22Zm49.62,9.48a36.44,36.44,0,0,0-27.1,11.24q-11,11.24-11,28a39.68,39.68,0,0,0,4.91,19.74,35.77,35.77,0,0,0,14.05,13.89A38.89,38.89,0,0,0,602,131.83a36.41,36.41,0,0,0,18.78-5.18,38,38,0,0,0,14-14.47,39.08,39.08,0,0,0,0-38.94,37.34,37.34,0,0,0-33-19.38"/><polygon class="cls-5" points="0.14 285.84 0.14 200.74 11.4 200.74 11.4 242.94 53.66 200.74 68.92 200.74 33.22 235.22 70.49 285.84 55.63 285.84 25.33 242.77 11.4 256.35 11.4 285.84 0.14 285.84"/><polygon class="cls-6" points="0.14 285.84 0.14 200.74 11.4 200.74 11.4 242.94 53.66 200.74 68.92 200.74 33.22 235.22 70.49 285.84 55.63 285.84 25.33 242.77 11.4 256.35 11.4 285.84 0.14 285.84"/><path class="cls-5" d="M127.71,278.24a39,39,0,0,1-11.17,7,32.31,32.31,0,0,1-11.52,2q-10.16,0-15.61-5a16.38,16.38,0,0,1-5.46-12.68A16.87,16.87,0,0,1,86,261.31a17.05,17.05,0,0,1,5.4-6,25.42,25.42,0,0,1,7.52-3.42,74.74,74.74,0,0,1,9.29-1.57q12.65-1.51,18.63-3.6.06-2.15.06-2.73,0-6.38-3-9-4-3.54-11.9-3.54-7.37,0-10.88,2.58T96,243.17l-10.22-1.39a25.33,25.33,0,0,1,4.59-10.59A20.11,20.11,0,0,1,99.55,225a41.2,41.2,0,0,1,14-2.18,37,37,0,0,1,12.83,1.86,16.92,16.92,0,0,1,7.26,4.67,16.44,16.44,0,0,1,3.25,7.11,58.7,58.7,0,0,1,.52,9.64V260q0,14.57.67,18.43a23.2,23.2,0,0,0,2.64,7.4H129.8a22.13,22.13,0,0,1-2.09-7.6m-.87-23.34q-5.69,2.32-17.07,3.95a39.52,39.52,0,0,0-9.11,2.09,9.09,9.09,0,0,0-4.12,3.4,9.23,9.23,0,0,0,1.71,11.93q3.16,2.79,9.26,2.79a21.54,21.54,0,0,0,10.74-2.64,16.26,16.26,0,0,0,6.91-7.23q1.68-3.54,1.68-10.45Z"/><path class="cls-6" d="M127.71,278.24a39,39,0,0,1-11.17,7,32.31,32.31,0,0,1-11.52,2q-10.16,0-15.61-5a16.38,16.38,0,0,1-5.46-12.68A16.87,16.87,0,0,1,86,261.31a17.05,17.05,0,0,1,5.4-6,25.42,25.42,0,0,1,7.52-3.42,74.74,74.74,0,0,1,9.29-1.57q12.65-1.51,18.63-3.6.06-2.15.06-2.73,0-6.38-3-9-4-3.54-11.9-3.54-7.37,0-10.88,2.58T96,243.17l-10.22-1.39a25.33,25.33,0,0,1,4.59-10.59A20.11,20.11,0,0,1,99.55,225a41.2,41.2,0,0,1,14-2.18,37,37,0,0,1,12.83,1.86,16.92,16.92,0,0,1,7.26,4.67,16.44,16.44,0,0,1,3.25,7.11,58.7,58.7,0,0,1,.52,9.64V260q0,14.57.67,18.43a23.2,23.2,0,0,0,2.64,7.4H129.8A22.13,22.13,0,0,1,127.71,278.24Zm-.87-23.34q-5.69,2.32-17.07,3.95a39.52,39.52,0,0,0-9.11,2.09,9.09,9.09,0,0,0-4.12,3.4,9.23,9.23,0,0,0,1.71,11.93q3.16,2.79,9.26,2.79a21.54,21.54,0,0,0,10.74-2.64,16.26,16.26,0,0,0,6.91-7.23q1.68-3.54,1.68-10.45Z"/><path class="cls-5" d="M162.52,285.84V224.19h9.35v8.65a22,22,0,0,1,7.72-7.28,21.7,21.7,0,0,1,11-2.76q6.85,0,11.23,2.84a15.24,15.24,0,0,1,6.18,8q7.31-10.8,19-10.8,9.17,0,14.11,5.08T246,243.52v42.32H235.66V247q0-6.27-1-9a8.76,8.76,0,0,0-3.69-4.44,11.51,11.51,0,0,0-6.27-1.68,14.59,14.59,0,0,0-10.8,4.33q-4.3,4.32-4.3,13.84v35.82H199.14V245.79q0-7-2.55-10.45t-8.36-3.48a15.19,15.19,0,0,0-8.16,2.32,13.17,13.17,0,0,0-5.43,6.79Q173,245.44,173,253.86v32Z"/><path class="cls-6" d="M162.52,285.84V224.19h9.35v8.65a22,22,0,0,1,7.72-7.28,21.7,21.7,0,0,1,11-2.76q6.85,0,11.23,2.84a15.24,15.24,0,0,1,6.18,8q7.31-10.8,19-10.8,9.17,0,14.11,5.08T246,243.52v42.32H235.66V247q0-6.27-1-9a8.76,8.76,0,0,0-3.69-4.44,11.51,11.51,0,0,0-6.27-1.68,14.59,14.59,0,0,0-10.8,4.33q-4.3,4.32-4.3,13.84v35.82H199.14V245.79q0-7-2.55-10.45t-8.36-3.48a15.19,15.19,0,0,0-8.16,2.32,13.17,13.17,0,0,0-5.43,6.79Q173,245.44,173,253.86v32Z"/><path class="cls-5" d="M310.7,263.26,321,264.59q-1.68,10.62-8.62,16.63a25.12,25.12,0,0,1-17,6q-12.66,0-20.35-8.27t-7.69-23.71a42.91,42.91,0,0,1,3.31-17.47,23.06,23.06,0,0,1,10.07-11.23,29.87,29.87,0,0,1,14.71-3.75q10,0,16.43,5.08T320,242.3l-10.16,1.57q-1.45-6.21-5.14-9.35a13.29,13.29,0,0,0-8.91-3.13A16.22,16.22,0,0,0,282.95,237Q278,242.71,278,255q0,12.42,4.76,18.05a15.49,15.49,0,0,0,12.42,5.63,14.64,14.64,0,0,0,10.27-3.77q4.12-3.77,5.22-11.61"/><path class="cls-6" d="M310.7,263.26,321,264.59q-1.68,10.62-8.62,16.63a25.12,25.12,0,0,1-17,6q-12.66,0-20.35-8.27t-7.69-23.71a42.91,42.91,0,0,1,3.31-17.47,23.06,23.06,0,0,1,10.07-11.23,29.87,29.87,0,0,1,14.71-3.75q10,0,16.43,5.08T320,242.3l-10.16,1.57q-1.45-6.21-5.14-9.35a13.29,13.29,0,0,0-8.91-3.13A16.22,16.22,0,0,0,282.95,237Q278,242.71,278,255q0,12.42,4.76,18.05a15.49,15.49,0,0,0,12.42,5.63,14.64,14.64,0,0,0,10.27-3.77Q309.59,271.1,310.7,263.26Z"/><path class="cls-5" d="M338.83,285.84v-85.1h10.45v30.53a23.34,23.34,0,0,1,18.46-8.48,24.88,24.88,0,0,1,11.9,2.7,15.85,15.85,0,0,1,7.23,7.46q2.18,4.76,2.18,13.81v39.07H378.59V246.77q0-7.84-3.4-11.41t-9.61-3.57a17,17,0,0,0-8.74,2.41,13.61,13.61,0,0,0-5.83,6.53q-1.74,4.12-1.74,11.38v33.73Z"/><path class="cls-6" d="M338.83,285.84v-85.1h10.45v30.53a23.34,23.34,0,0,1,18.46-8.48,24.88,24.88,0,0,1,11.9,2.7,15.85,15.85,0,0,1,7.23,7.46q2.18,4.76,2.18,13.81v39.07H378.59V246.77q0-7.84-3.4-11.41t-9.61-3.57a17,17,0,0,0-8.74,2.41,13.61,13.61,0,0,0-5.83,6.53q-1.74,4.12-1.74,11.38v33.73Z"/><path class="cls-5" d="M454.09,278.24a39,39,0,0,1-11.17,7,32.3,32.3,0,0,1-11.52,2q-10.16,0-15.61-5a16.38,16.38,0,0,1-5.46-12.68,16.87,16.87,0,0,1,2.06-8.27,17.07,17.07,0,0,1,5.4-6,25.42,25.42,0,0,1,7.52-3.42,74.81,74.81,0,0,1,9.29-1.57q12.65-1.51,18.63-3.6.06-2.15.06-2.73,0-6.38-3-9-4-3.54-11.9-3.54-7.37,0-10.88,2.58t-5.2,9.14l-10.22-1.39a25.32,25.32,0,0,1,4.59-10.59,20.1,20.1,0,0,1,9.23-6.21,41.19,41.19,0,0,1,14-2.18,37,37,0,0,1,12.83,1.86,16.92,16.92,0,0,1,7.26,4.67,16.46,16.46,0,0,1,3.25,7.11,58.86,58.86,0,0,1,.52,9.64V260q0,14.57.67,18.43a23.2,23.2,0,0,0,2.64,7.4H456.18a22.13,22.13,0,0,1-2.09-7.6m-.87-23.34q-5.69,2.32-17.07,3.95a39.5,39.5,0,0,0-9.11,2.09,9.09,9.09,0,0,0-4.12,3.4,9.23,9.23,0,0,0,1.71,11.93q3.16,2.79,9.26,2.79a21.54,21.54,0,0,0,10.74-2.64,16.27,16.27,0,0,0,6.91-7.23q1.68-3.54,1.68-10.45Z"/><path class="cls-6" d="M454.09,278.24a39,39,0,0,1-11.17,7,32.3,32.3,0,0,1-11.52,2q-10.16,0-15.61-5a16.38,16.38,0,0,1-5.46-12.68,16.87,16.87,0,0,1,2.06-8.27,17.07,17.07,0,0,1,5.4-6,25.42,25.42,0,0,1,7.52-3.42,74.81,74.81,0,0,1,9.29-1.57q12.65-1.51,18.63-3.6.06-2.15.06-2.73,0-6.38-3-9-4-3.54-11.9-3.54-7.37,0-10.88,2.58t-5.2,9.14l-10.22-1.39a25.32,25.32,0,0,1,4.59-10.59,20.1,20.1,0,0,1,9.23-6.21,41.19,41.19,0,0,1,14-2.18,37,37,0,0,1,12.83,1.86,16.92,16.92,0,0,1,7.26,4.67,16.46,16.46,0,0,1,3.25,7.11,58.86,58.86,0,0,1,.52,9.64V260q0,14.57.67,18.43a23.2,23.2,0,0,0,2.64,7.4H456.18A22.13,22.13,0,0,1,454.09,278.24Zm-.87-23.34q-5.69,2.32-17.07,3.95a39.5,39.5,0,0,0-9.11,2.09,9.09,9.09,0,0,0-4.12,3.4,9.23,9.23,0,0,0,1.71,11.93q3.16,2.79,9.26,2.79a21.54,21.54,0,0,0,10.74-2.64,16.27,16.27,0,0,0,6.91-7.23q1.68-3.54,1.68-10.45Z"/><path class="cls-5" d="M511.71,276.49l1.51,9.23a38.79,38.79,0,0,1-7.89.93q-5.69,0-8.82-1.8a10.06,10.06,0,0,1-4.41-4.73q-1.28-2.93-1.28-12.34V232.32h-7.66v-8.13h7.66V208.92l10.39-6.27v21.54h10.51v8.13H501.21v36q0,4.47.55,5.75a4.35,4.35,0,0,0,1.8,2,7,7,0,0,0,3.57.75,34,34,0,0,0,4.59-.41"/><path class="cls-6" d="M511.71,276.49l1.51,9.23a38.79,38.79,0,0,1-7.89.93q-5.69,0-8.82-1.8a10.06,10.06,0,0,1-4.41-4.73q-1.28-2.93-1.28-12.34V232.32h-7.66v-8.13h7.66V208.92l10.39-6.27v21.54h10.51v8.13H501.21v36q0,4.47.55,5.75a4.35,4.35,0,0,0,1.8,2,7,7,0,0,0,3.57.75A34,34,0,0,0,511.71,276.49Z"/><polygon class="cls-5" points="530.91 285.84 530.91 200.74 541.36 200.74 541.36 249.27 566.09 224.19 579.61 224.19 556.04 247.06 581.99 285.84 569.1 285.84 548.73 254.32 541.36 261.4 541.36 285.84 530.91 285.84"/><polygon class="cls-6" points="530.91 285.84 530.91 200.74 541.36 200.74 541.36 249.27 566.09 224.19 579.61 224.19 556.04 247.06 581.99 285.84 569.1 285.84 548.73 254.32 541.36 261.4 541.36 285.84 530.91 285.84"/><path class="cls-5" d="M639.44,278.24a39,39,0,0,1-11.18,7,32.29,32.29,0,0,1-11.52,2q-10.16,0-15.62-5a16.38,16.38,0,0,1-5.46-12.68,16.88,16.88,0,0,1,2.06-8.27,17.06,17.06,0,0,1,5.4-6,25.39,25.39,0,0,1,7.52-3.42,74.77,74.77,0,0,1,9.29-1.57q12.65-1.51,18.63-3.6.06-2.15.06-2.73,0-6.38-3-9-4-3.54-11.9-3.54-7.37,0-10.88,2.58t-5.2,9.14l-10.22-1.39a25.32,25.32,0,0,1,4.58-10.59,20.11,20.11,0,0,1,9.23-6.21,41.2,41.2,0,0,1,14-2.18,37,37,0,0,1,12.83,1.86,16.92,16.92,0,0,1,7.26,4.67,16.44,16.44,0,0,1,3.25,7.11,58.74,58.74,0,0,1,.52,9.64V260q0,14.57.67,18.43a23.23,23.23,0,0,0,2.64,7.4H641.53a22.15,22.15,0,0,1-2.09-7.6m-.87-23.34q-5.69,2.32-17.07,3.95a39.53,39.53,0,0,0-9.11,2.09,9.1,9.1,0,0,0-4.12,3.4A9.23,9.23,0,0,0,610,276.26q3.16,2.79,9.26,2.79A21.54,21.54,0,0,0,630,276.41a16.27,16.27,0,0,0,6.91-7.23q1.68-3.54,1.68-10.45Z"/><path class="cls-6" d="M639.44,278.24a39,39,0,0,1-11.18,7,32.29,32.29,0,0,1-11.52,2q-10.16,0-15.62-5a16.38,16.38,0,0,1-5.46-12.68,16.88,16.88,0,0,1,2.06-8.27,17.06,17.06,0,0,1,5.4-6,25.39,25.39,0,0,1,7.52-3.42,74.77,74.77,0,0,1,9.29-1.57q12.65-1.51,18.63-3.6.06-2.15.06-2.73,0-6.38-3-9-4-3.54-11.9-3.54-7.37,0-10.88,2.58t-5.2,9.14l-10.22-1.39a25.32,25.32,0,0,1,4.58-10.59,20.11,20.11,0,0,1,9.23-6.21,41.2,41.2,0,0,1,14-2.18,37,37,0,0,1,12.83,1.86,16.92,16.92,0,0,1,7.26,4.67,16.44,16.44,0,0,1,3.25,7.11,58.74,58.74,0,0,1,.52,9.64V260q0,14.57.67,18.43a23.23,23.23,0,0,0,2.64,7.4H641.53A22.15,22.15,0,0,1,639.44,278.24Zm-.87-23.34q-5.69,2.32-17.07,3.95a39.53,39.53,0,0,0-9.11,2.09,9.1,9.1,0,0,0-4.12,3.4A9.23,9.23,0,0,0,610,276.26q3.16,2.79,9.26,2.79A21.54,21.54,0,0,0,630,276.41a16.27,16.27,0,0,0,6.91-7.23q1.68-3.54,1.68-10.45Z"/></g></g></g></svg>