<?xml version="1.0" encoding="iso-8859-1"?>
<!-- Generator: Adobe Illustrator 19.0.0, SVG Export Plug-In . SVG Version: 6.00 Build 0)  -->
<svg version="1.1" id="Capa_1" xmlns="http://www.w3.org/2000/svg" xmlns:xlink="http://www.w3.org/1999/xlink" x="0px" y="0px"
	 viewBox="0 0 512 512" style="enable-background:new 0 0 512 512;" xml:space="preserve">
<g>
	<g>
		<path d="M424.339,0H87.661C74.686,0,64.129,10.556,64.129,23.532v464.936c0,12.976,10.557,23.532,23.532,23.532h336.678
			c12.976,0,23.532-10.557,23.532-23.532V23.532C447.871,10.556,437.314,0,424.339,0z M79.129,23.532
			c0-4.705,3.828-8.532,8.532-8.532h104.726v65.161H79.129V23.532z M432.871,400.806h-24.568c-4.142,0-7.5,3.358-7.5,7.5
			c0,4.142,3.358,7.5,7.5,7.5h24.568v72.661c0,4.705-3.828,8.533-8.532,8.533H87.661c-4.705,0-8.532-3.828-8.532-8.532v-72.661
			H376.24c4.142,0,7.5-3.358,7.5-7.5c0-4.142-3.358-7.5-7.5-7.5H79.129V95.161h353.742V400.806z M239.452,63.613
			c0-9.125,7.423-16.548,16.548-16.548s16.548,7.424,16.548,16.548c0,9.125-7.423,16.549-16.548,16.549
			S239.452,72.738,239.452,63.613z M319.613,71.629c0-4.705,3.828-8.532,8.532-8.532c4.704,0,8.532,3.828,8.532,8.532
			c0,4.705-3.828,8.532-8.532,8.532C323.441,80.161,319.613,76.334,319.613,71.629z M375.726,71.629
			c0-4.705,3.828-8.532,8.533-8.532c4.705,0,8.532,3.828,8.532,8.532c0,4.705-3.828,8.532-8.532,8.532
			C379.553,80.161,375.726,76.334,375.726,71.629z M432.871,80.161h-26.688c1.034-2.647,1.608-5.523,1.608-8.532
			c0-12.976-10.557-23.532-23.532-23.532c-12.976,0-23.533,10.557-23.533,23.532c0,3.009,0.574,5.885,1.608,8.532H350.07
			c1.034-2.647,1.608-5.523,1.608-8.532c0-12.976-10.557-23.532-23.532-23.532c-12.975,0-23.532,10.557-23.532,23.532
			c0,3.009,0.574,5.885,1.608,8.532h-23.376c2.979-4.814,4.703-10.483,4.703-16.549c0-17.396-14.152-31.548-31.548-31.548
			s-31.548,14.153-31.548,31.548c0,6.066,1.725,11.734,4.703,16.549h-21.768V15H424.34c4.703,0,8.531,3.827,8.531,8.532V80.161z"/>
	</g>
</g>
<g>
	<g>
		<path d="M280.048,432.871h-48.097c-4.142,0-7.5,3.358-7.5,7.5c0,4.142,3.358,7.5,7.5,7.5h48.097c4.142,0,7.5-3.358,7.5-7.5
			C287.548,436.229,284.19,432.871,280.048,432.871z"/>
	</g>
</g>
<g>
	<g>
		<path d="M256,128.258c-66.017,0-119.726,53.709-119.726,119.726S189.983,367.71,256,367.71s119.726-53.709,119.726-119.726
			S322.017,128.258,256,128.258z M256,352.71c-57.746,0-104.726-46.98-104.726-104.726c0-57.746,46.98-104.726,104.726-104.726
			c57.746,0,104.726,46.98,104.726,104.726C360.726,305.73,313.746,352.71,256,352.71z"/>
	</g>
</g>
<g>
	<g>
		<path d="M329.14,199.63c-2.29-3.453-6.944-4.397-10.396-2.11c-3.453,2.288-4.398,6.942-2.11,10.395
			c0.971,1.466,1.867,2.963,2.718,4.476l-4.93,1.232c-10.495,2.624-17.825,12.012-17.825,22.83v23.062
			c0,10.818,7.33,20.206,17.825,22.83l4.899,1.225c-3.184,5.686-7.163,11.015-11.942,15.794
			c-14.167,14.167-32.77,21.25-51.379,21.248c-18.605-0.002-37.216-7.084-51.379-21.248c-28.331-28.331-28.331-74.428,0-102.759
			c24.341-24.342,62.801-28.234,91.449-9.254c3.453,2.288,8.107,1.343,10.395-2.11c2.288-3.453,1.343-8.107-2.11-10.395
			c-34.57-22.903-80.974-18.213-110.339,11.152c-34.179,34.179-34.179,89.793,0,123.972c17.089,17.09,39.538,25.634,61.986,25.634
			s44.896-8.545,61.986-25.634C347.353,280.605,352.043,234.2,329.14,199.63z M325.319,269.606l-7.259-1.814
			c-3.805-0.951-6.463-4.355-6.463-8.277v-23.062c0-3.922,2.658-7.326,6.463-8.278l7.3-1.825
			C329.743,240.492,329.661,255.619,325.319,269.606z"/>
	</g>
</g>
<g>
	<g>
		<path d="M159.806,48.097h-48.097c-4.142,0-7.5,3.358-7.5,7.5c0,4.142,3.358,7.5,7.5,7.5h48.097c4.142,0,7.5-3.358,7.5-7.5
			C167.306,51.455,163.948,48.097,159.806,48.097z"/>
	</g>
</g>
<g>
</g>
<g>
</g>
<g>
</g>
<g>
</g>
<g>
</g>
<g>
</g>
<g>
</g>
<g>
</g>
<g>
</g>
<g>
</g>
<g>
</g>
<g>
</g>
<g>
</g>
<g>
</g>
<g>
</g>
</svg>
