<?xml version="1.0" encoding="iso-8859-1"?>
<!-- Generator: Adobe Illustrator 19.0.0, SVG Export Plug-In . SVG Version: 6.00 Build 0)  -->
<svg version="1.1" id="Capa_1" xmlns="http://www.w3.org/2000/svg" xmlns:xlink="http://www.w3.org/1999/xlink" x="0px" y="0px"
	 viewBox="0 0 512 512" style="enable-background:new 0 0 512 512;" xml:space="preserve">
<g>
	<g>
		<path d="M436.784,74.981C388.495,26.628,324.291,0,256,0C187.709,0,123.506,26.628,75.216,74.981
			C26.926,123.334,0.333,187.62,0.333,256c0,35.536,7.136,69.938,21.21,102.25c13.593,31.207,32.991,59.022,57.653,82.67
			c2.986,2.861,7.722,2.759,10.581-0.229c2.858-2.99,2.756-7.732-0.229-10.595C70.571,411.9,54.91,391.085,42.833,368.052h75.668
			c14.544,42.392,38.873,82.6,72.689,120.09c-20.587-5.748-40.381-14.231-58.819-25.305c-0.665-0.399-1.327-0.801-1.988-1.207
			c-3.523-2.164-8.131-1.06-10.293,2.467c-2.161,3.527-1.058,8.141,2.464,10.306c0.702,0.431,1.407,0.859,2.115,1.284
			C164.224,499.444,209.636,512,256,512c68.291,0,132.494-26.628,180.784-74.981S511.667,324.38,511.667,256
			S485.073,123.332,436.784,74.981z M85.799,85.578c30.406-30.446,67.52-51.727,108-62.494
			c-16.242,21.122-45.958,64.229-67.188,120.864H42.78C53.947,122.706,68.365,103.036,85.799,85.578z M35.626,353.066
			L35.626,353.066c-0.119-0.271-0.245-0.537-0.363-0.808C22.017,321.848,15.3,289.462,15.3,256c0-33.975,6.98-66.875,20.25-97.065
			h85.755c-0.961,2.89-1.898,5.809-2.807,8.76c-16.89,54.839-20.549,108.461-10.874,159.38c1.662,8.747,3.734,17.41,6.184,25.991
			H35.626z M122.381,324.558c-9.252-48.428-5.796-99.56,10.274-151.975c1.417-4.623,2.913-9.171,4.468-13.648h111.393v194.131H129.4
			C126.559,343.664,124.216,334.16,122.381,324.558z M248.517,496.893c-10.561-0.327-21.053-1.349-31.411-3.04
			c-0.228-0.315-0.473-0.62-0.755-0.904c-38.424-38.742-65.865-80.602-81.961-124.897h114.127V496.893z M248.517,143.948H142.66
			c29.169-74.426,73.461-124.624,73.961-125.184c0.188-0.21,0.359-0.43,0.519-0.654c10.308-1.666,20.783-2.674,31.377-2.996V143.948
			z M263.484,15.114c10.594,0.322,21.069,1.33,31.377,2.996c0.16,0.225,0.33,0.444,0.518,0.655
			c0.166,0.186,16.77,18.91,36.14,50.089c1.418,2.282,3.861,3.536,6.361,3.536c1.35,0,2.716-0.365,3.946-1.132
			c3.509-2.186,4.585-6.806,2.401-10.321c-10.035-16.153-19.262-28.974-26.078-37.866c40.499,10.762,77.632,32.048,108.051,62.507
			c17.436,17.458,31.854,37.128,43.021,58.37h-83.815c-4.368-11.599-9.319-23.232-14.859-34.887
			c-1.776-3.736-6.242-5.323-9.974-3.546c-3.732,1.779-5.316,6.25-3.541,9.987c4.319,9.086,8.469,18.583,12.335,28.445H263.484
			V15.114z M263.484,353.065v-194.13H374.91c19.742,56.735,28.932,124.047,7.764,194.131L263.484,353.065L263.484,353.065z
			 M294.868,493.889c-10.311,1.666-20.788,2.675-31.385,2.997V368.052h114.213c-15.036,41.395-41.044,83.556-82.047,124.897
			C295.356,493.244,295.102,493.561,294.868,493.889z M426.201,426.422c-29.784,29.822-66,50.865-105.514,61.833
			c33.93-37.574,58.27-77.766,72.813-120.204h75.721C458.054,389.294,443.636,408.964,426.201,426.422z M398.208,353.065
			c5.977-20.958,9.623-42.438,10.912-64.397c2.48-42.259-3.704-85.718-18.396-129.733h85.726c13.27,30.19,20.25,63.09,20.25,97.065
			c0,33.975-6.98,66.875-20.25,97.065H398.208z"/>
	</g>
</g>
<g>
</g>
<g>
</g>
<g>
</g>
<g>
</g>
<g>
</g>
<g>
</g>
<g>
</g>
<g>
</g>
<g>
</g>
<g>
</g>
<g>
</g>
<g>
</g>
<g>
</g>
<g>
</g>
<g>
</g>
</svg>
