<?xml version="1.0" encoding="UTF-8" standalone="no"?>
<svg
   xmlns:dc="http://purl.org/dc/elements/1.1/"
   xmlns:cc="http://creativecommons.org/ns#"
   xmlns:rdf="http://www.w3.org/1999/02/22-rdf-syntax-ns#"
   xmlns:svg="http://www.w3.org/2000/svg"
   xmlns="http://www.w3.org/2000/svg"
   id="svg8"
   version="1.1"
   viewBox="0 0 85.795906 135.46666"
   height="50"
   width="32">
  <defs
     id="defs2" />
  <metadata
     id="metadata5">
    <rdf:RDF>
      <cc:Work
         rdf:about="">
        <dc:format>image/svg+xml</dc:format>
        <dc:type
           rdf:resource="http://purl.org/dc/dcmitype/StillImage" />
        <dc:title></dc:title>
      </cc:Work>
    </rdf:RDF>
  </metadata>
  <g
     transform="translate(-88.637761,-87.14762)"
     id="layer1">
    <g
       transform="matrix(0.26458333,0,0,0.26458333,63.802382,87.14762)"
       id="g80">
      <g
         transform="translate(1,1)"
         id="g20">
        <g
           id="g18">
          <g
             id="g16">
            <path
               d="M 229.4,415.113 V 127 75.8 45.08 C 229.4,24.6 212.333,7.533 191.853,7.533 h -61.44 C 109.933,7.533 92.866,24.6 92.866,45.08 V 75.8 127 417.133 c 0,2.716 0.968,4.944 2.634,6.445 l 58.806,84.009 c 1.707,1.707 4.267,3.413 6.827,3.413 2.56,0 5.12,-1.707 6.827,-4.267 l 57.581,-82.259 c 2.412,-1.418 3.859,-4.016 3.859,-7.341 v -10e-4 c 0.097,-0.679 0.1,-1.359 0,-2.019 z M 109.933,408.6 V 135.533 H 152.6 V 408.6 Z m 102.4,-290.133 h -51.2 -51.2 V 84.333 h 102.4 z m -42.666,17.066 h 42.667 V 408.6 H 169.667 Z M 109.933,45.08 c 0,-11.093 9.387,-20.48 20.48,-20.48 h 61.44 c 11.093,0 20.48,9.387 20.48,20.48 v 22.187 h -102.4 V 45.08 Z m 51.2,442.88 -43.52,-62.293 h 43.52 43.52 z"
               id="path10"   style="fill: #891823"/>
            <path
               d="M 391.533,-1 H 306.2 c -14.507,0 -25.6,11.093 -25.6,25.6 v 465.92 c 0,11.093 9.387,20.48 20.48,20.48 h 96.427 c 11.093,0 19.627,-9.387 19.627,-20.48 V 24.6 C 417.133,10.093 406.04,-1 391.533,-1 Z m 9.387,491.52 c 0,1.707 -1.707,3.413 -3.413,3.413 H 301.08 c -1.707,0 -3.413,-1.707 -3.413,-3.413 V 383 h 25.6 c 5.12,0 8.533,-3.413 8.533,-8.533 0,-5.12 -3.413,-8.533 -8.533,-8.533 h -25.6 v -17.067 h 42.667 c 5.12,0 8.533,-3.413 8.533,-8.533 0,-5.12 -3.413,-8.533 -8.533,-8.533 h -42.667 v -17.067 h 25.6 c 5.12,0 8.533,-3.413 8.533,-8.533 0,-5.12 -3.413,-8.533 -8.533,-8.533 h -25.6 V 280.6 h 42.667 c 5.12,0 8.533,-3.413 8.533,-8.533 0,-5.12 -3.413,-8.533 -8.533,-8.533 h -42.667 v -17.067 h 25.6 c 5.12,0 8.533,-3.413 8.533,-8.533 0,-5.12 -3.413,-8.533 -8.533,-8.533 h -25.6 v -17.067 h 42.667 c 5.12,0 8.533,-3.413 8.533,-8.533 0,-5.12 -3.413,-8.533 -8.533,-8.533 H 297.667 V 178.2 h 25.6 c 5.12,0 8.533,-3.413 8.533,-8.533 0,-5.12 -3.413,-8.533 -8.533,-8.533 h -25.6 v -17.067 h 42.667 c 5.12,0 8.533,-3.413 8.533,-8.533 0,-5.12 -3.414,-8.534 -8.534,-8.534 h -42.667 v -17.067 h 25.6 c 5.12,0 8.533,-3.413 8.533,-8.533 0,-5.12 -3.413,-8.533 -8.533,-8.533 h -25.6 V 75.8 h 42.667 c 5.12,0 8.533,-3.413 8.533,-8.533 0,-5.12 -3.413,-8.533 -8.533,-8.533 H 297.666 V 24.6 c 0,-5.12 3.413,-8.533 8.533,-8.533 h 86.187 c 5.12,0 8.533,3.413 8.533,8.533 v 465.92 z"
               id="path12"   style="fill: #891823"/>
            <path
               d="m 348.867,408.6 c -18.773,0 -34.133,15.36 -34.133,34.133 0,18.773 15.36,34.133 34.133,34.133 18.773,0 34.133,-15.36 34.133,-34.133 C 383,423.96 367.64,408.6 348.867,408.6 Z m 0,51.2 c -9.387,0 -17.067,-7.68 -17.067,-17.067 0,-9.387 7.68,-17.067 17.067,-17.067 9.387,0 17.067,7.68 17.067,17.067 0,9.387 -7.681,17.067 -17.067,17.067 z"
               id="path14"   style="fill: #891823"/>
          </g>
        </g>
      </g>
      <g
         id="g22" />
      <g
         id="g24" />
      <g
         id="g26" />
      <g
         id="g28" />
      <g
         id="g30" />
      <g
         id="g32" />
      <g
         id="g34" />
      <g
         id="g36" />
      <g
         id="g38" />
      <g
         id="g40" />
      <g
         id="g42" />
      <g
         id="g44" />
      <g
         id="g46" />
      <g
         id="g48" />
      <g
         id="g50" />
    </g>
  </g>
</svg>
