<?xml version="1.0" encoding="UTF-8" standalone="no"?>
<svg
   xmlns:dc="http://purl.org/dc/elements/1.1/"
   xmlns:cc="http://creativecommons.org/ns#"
   xmlns:rdf="http://www.w3.org/1999/02/22-rdf-syntax-ns#"
   xmlns:svg="http://www.w3.org/2000/svg"
   xmlns="http://www.w3.org/2000/svg"
   height="36.635662"
   width="26.047426"
   viewBox="0 0 370.45301 375.14991"
   y="0px"
   x="0px"
   id="Layer_1"
   version="1.1">
  <metadata
     id="metadata43">
    <rdf:RDF>
      <cc:Work
         rdf:about="">
        <dc:format>image/svg+xml</dc:format>
        <dc:type
           rdf:resource="http://purl.org/dc/dcmitype/StillImage" />
        <dc:title></dc:title>
      </cc:Work>
    </rdf:RDF>
  </metadata>
  <defs
     id="defs41" />
  <g
     transform="matrix(1,0,0,1.0176553,-70.774,-99.55575)"
     id="g6">
    <g
       id="g4">
      <path
         id="path2"
         style="fill:#891823"
         d="m 401.809,212.523 c -12.295,-1.17 -24.556,2.892 -33.639,11.15 -1.122,1.021 -2.186,2.096 -3.188,3.217 -6.805,-12.704 -19.329,-21.819 -33.946,-23.214 -12.295,-1.17 -24.556,2.892 -33.639,11.15 -1.122,1.021 -2.186,2.096 -3.188,3.217 -5.941,-11.089 -16.24,-19.443 -28.485,-22.315 21.223,-21.098 33.958,-50.2 33.958,-81.275 C 299.681,51.344 248.337,0 185.227,0 122.117,0 70.774,51.344 70.774,114.454 c 0,46.302 28.254,88.244 70.773,105.817 v 49.155 l -31.869,22.764 c -18.882,13.488 -26.638,37.341 -19.3,59.353 l 31.431,94.297 c 13.193,39.573 50.082,66.162 91.796,66.162 h 130.862 c 53.354,0 96.76,-43.406 96.76,-96.76 v -157.72 c 0,-23.126 -17.314,-42.89 -39.418,-44.999 z M 87.361,114.454 c 0,-53.963 43.903,-97.866 97.866,-97.866 53.963,0 97.866,43.903 97.866,97.866 0,37.248 -21.382,71.191 -54.186,87.594 v -21.686 c 21.942,-14.579 35.387,-39.4 35.387,-65.908 0,-43.597 -35.47,-79.067 -79.067,-79.067 -43.597,0 -79.067,35.47 -79.067,79.067 0,26.506 13.446,51.328 35.387,65.908 v 21.686 C 108.745,185.645 87.361,151.701 87.361,114.454 Z M 189.489,70.978 c -12.296,-1.172 -24.556,2.89 -33.638,11.149 -9.09,8.265 -14.304,20.048 -14.304,32.327 v 44.644 c -11.839,-11.626 -18.799,-27.699 -18.799,-44.644 0,-34.451 28.028,-62.479 62.479,-62.479 34.451,0 62.479,28.028 62.479,62.479 0,16.947 -6.96,33.019 -18.799,44.645 V 115.976 C 228.908,92.85 211.594,73.084 189.489,70.978 Z M 344.467,495.413 H 213.604 c -34.564,0 -65.129,-22.03 -76.059,-54.819 l -31.431,-94.296 c -5.022,-15.061 0.285,-31.381 13.205,-40.609 l 22.228,-15.878 v 72.352 c 0,4.58 3.712,8.294 8.294,8.294 4.581,0 8.294,-3.713 8.294,-8.294 V 114.454 c 0,-7.617 3.235,-14.927 8.874,-20.053 5.716,-5.197 13.146,-7.652 20.906,-6.91 13.686,1.304 24.406,13.816 24.406,28.484 v 175.413 c 0,4.58 3.712,8.294 8.294,8.294 4.581,0 8.294,-3.713 8.294,-8.294 v -53.08 c 0,-7.617 3.235,-14.927 8.874,-20.053 5.715,-5.196 13.137,-7.657 20.906,-6.91 13.685,1.305 24.405,13.817 24.405,28.485 v 7.325 53.08 c 0,4.58 3.712,8.294 8.294,8.294 4.582,0 8.294,-3.713 8.294,-8.294 v -53.08 c 0,-7.617 3.235,-14.927 8.874,-20.053 5.715,-5.196 13.137,-7.657 20.906,-6.91 13.685,1.305 24.405,13.817 24.405,28.485 V 256 309.08 c 0,4.58 3.712,8.294 8.294,8.294 4.582,0 8.294,-3.713 8.294,-8.294 V 256 c 0,-7.617 3.234,-14.927 8.874,-20.053 5.715,-5.196 13.137,-7.657 20.906,-6.91 13.685,1.305 24.405,13.817 24.405,28.485 V 415.24 h 0.003 c -0.003,44.208 -35.968,80.173 -80.176,80.173 z" />
    </g>
  </g>
  <g
     transform="translate(-70.774,-90.516184)"
     id="g8" />
  <g
     transform="translate(-70.774,-90.516184)"
     id="g10" />
  <g
     transform="translate(-70.774,-90.516184)"
     id="g12" />
  <g
     transform="translate(-70.774,-90.516184)"
     id="g14" />
  <g
     transform="translate(-70.774,-90.516184)"
     id="g16" />
  <g
     transform="translate(-70.774,-90.516184)"
     id="g18" />
  <g
     transform="translate(-70.774,-90.516184)"
     id="g20" />
  <g
     transform="translate(-70.774,-90.516184)"
     id="g22" />
  <g
     transform="translate(-70.774,-90.516184)"
     id="g24" />
  <g
     transform="translate(-70.774,-90.516184)"
     id="g26" />
  <g
     transform="translate(-70.774,-90.516184)"
     id="g28" />
  <g
     transform="translate(-70.774,-90.516184)"
     id="g30" />
  <g
     transform="translate(-70.774,-90.516184)"
     id="g32" />
  <g
     transform="translate(-70.774,-90.516184)"
     id="g34" />
  <g
     transform="translate(-70.774,-90.516184)"
     id="g36" />
</svg>
