<svg xmlns="http://www.w3.org/2000/svg" width="16" height="16" viewBox="0 0 16 16"><path fill="#fff" d="M15.99 12.84a.73.73 0 0 1-.22.63l-2.11 2.1c-.1.1-.22.2-.37.27a1.64 1.64 0 0 1-.76.16 7.34 7.34 0 0 1-2.63-.61c-.65-.27-1.39-.68-2.21-1.22a16.29 16.29 0 0 1-2.64-2.22 17.8 17.8 0 0 1-1.84-2.1C2.72 9.18 2.33 8.57 2.03 8c-.29-.57-.51-1.08-.66-1.54A7.58 7.58 0 0 1 1 4.48l.02-.32a1.41 1.41 0 0 1 .41-.83l2.11-2.1A.7.7 0 0 1 4.05 1c.14 0 .26.04.37.12.1.08.19.18.27.3l1.7 3.22c.09.17.12.35.07.55-.04.2-.13.37-.26.51l-.78.78a.36.36 0 0 0-.06.1l-.02.12c.04.23.14.48.28.77a8 8 0 0 0 1.72 2.19 10.1 10.1 0 0 0 2.2 1.73c.25.13.44.2.57.23l.2.04.1-.02a.23.23 0 0 0 .1-.06l.91-.92a.97.97 0 0 1 .67-.25c.18 0 .32.03.42.1h.02l3.07 1.8c.22.14.35.32.39.53z"/></svg>