<svg xmlns="http://www.w3.org/2000/svg" width="19" height="18" viewBox="0 0 19 18"><path fill="#fff" d="M18.35 10c.43-.5.65-1.08.65-1.75 0-.61-.23-1.14-.68-1.58a2.2 2.2 0 0 0-1.6-.67h-3.29a3 3 0 0 1 .23-.54l.12-.21a4.47 4.47 0 0 0 .6-3.24 2.85 2.85 0 0 0-.15-.58 2.7 2.7 0 0 0-.28-.53 1.7 1.7 0 0 0-.48-.47 2.33 2.33 0 0 0-.71-.31 3.68 3.68 0 0 0-.98-.12c-.2 0-.38.07-.53.22a3.15 3.15 0 0 0-.64 1.2c-.04.17-.1.41-.15.71l-.16.71c-.03.14-.1.33-.2.57-.11.23-.23.42-.37.56-.27.26-.67.73-1.2 1.41-.4.5-.8.97-1.2 1.42-.41.44-.72.67-.9.69a.74.74 0 0 0-.52.24.69.69 0 0 0-.21.51v7.51c0 .2.08.38.23.52.15.15.32.22.53.23.28.01.9.18 1.88.52l1.43.46c.34.1.82.22 1.44.34.62.12 1.19.18 1.7.18h1.54c1.05-.01 1.83-.32 2.34-.91a2.8 2.8 0 0 0 .58-2.12c.31-.29.52-.66.64-1.11.14-.47.14-.93 0-1.37.37-.47.54-1.01.51-1.6 0-.25-.05-.55-.17-.89zM4.18 7.5H.76c-.2 0-.38.07-.53.22a.73.73 0 0 0-.23.53v7.5c0 .2.08.38.23.53.15.15.33.22.53.22h3.42c.2 0 .38-.07.54-.22a.73.73 0 0 0 .22-.53v-7.5c0-.2-.07-.38-.22-.53a.73.73 0 0 0-.54-.22zm-1.36 7.28a.72.72 0 0 1-.54.22.72.72 0 0 1-.54-.22.7.7 0 0 1-.22-.53c0-.2.07-.38.22-.53a.72.72 0 0 1 .54-.22c.2 0 .39.07.54.22.15.15.22.33.22.53a.7.7 0 0 1-.22.53z"/></svg>