<svg xmlns="http://www.w3.org/2000/svg" xmlns:xlink="http://www.w3.org/1999/xlink" width="106" height="69" viewBox="0 0 106 69"><defs><path id="xkvua" d="M519.314 3211.76c-.021.195-.173 4.746-3.386 6.956-1.997 1.365-4.58 1.517-7.727.433l-10.007-3.423c-.846 2.253-3.082 6.804-7.727 9.296-2.127 1.148-4.472 1.712-7.033 1.712-2.236 0-4.645-.434-7.185-1.3-.673-.239-1.042-.975-.803-1.647s.977-1.04 1.65-.802c4.753 1.625 8.834 1.56 12.134-.216 5.21-2.774 6.88-8.928 6.902-8.994.109-.346.326-.65.651-.823a1.34 1.34 0 0 1 1.042-.087l11.266 3.836c2.3.801 4.124.758 5.383-.108 1.41-.975 1.954-2.84 2.149-3.966l-25.809-8.885a7.64 7.64 0 0 0-5.817.368l-1.346.65c-2.453 1.193-5.34 1.366-7.901.456l-1.39-.499-11.091 32.288a1.282 1.282 0 0 1-1.216.867c-.152 0-.282-.021-.434-.086l-13.74-4.703c-.673-.238-1.042-.975-.803-1.647l11.526-33.566c.109-.325.347-.585.651-.737.304-.152.673-.174.999-.065l13.718 4.659c.109.043.217.108.326.173l2.3.824c1.91.694 4.06.563 5.883-.325l1.346-.65a10.402 10.402 0 0 1 7.814-.477l26.807 9.231c.521.173.89.694.868 1.257zm-47.384-7.91l-.044-.021a71.766 71.766 0 0 1-.26-.13l-10.984-3.749-10.68 31.096 11.288 3.858zm80.335 27.608l-12.872 6.284-5.666 5.2a63.42 63.42 0 0 1-15.085 10.294l-24.984 12.2a5.532 5.532 0 0 1-2.41.564 5.708 5.708 0 0 1-1.801-.304 5.516 5.516 0 0 1-3.17-2.795 5.238 5.238 0 0 1-.542-2.97l-2.366 1.171a5.368 5.368 0 0 1-2.41.564 5.495 5.495 0 0 1-4.949-3.078 5.565 5.565 0 0 1-.477-3.315 7.81 7.81 0 0 1-.716.043 5.495 5.495 0 0 1-4.95-3.077 5.485 5.485 0 0 1 1.086-6.327c-.999-.542-1.823-1.365-2.323-2.406a5.441 5.441 0 0 1-.26-4.203 5.514 5.514 0 0 1 2.8-3.165l9.529-4.659a1.315 1.315 0 0 1 1.737.607c.303.65.043 1.409-.608 1.734l-9.53 4.659a2.945 2.945 0 0 0-1.475 1.668 2.797 2.797 0 0 0 .13 2.211 2.946 2.946 0 0 0 1.671 1.474 2.81 2.81 0 0 0 2.214-.13l6.425-3.142 11.526-5.635a1.315 1.315 0 0 1 1.737.607c.304.65.043 1.409-.608 1.733l-17.951 8.776-2.474 1.214c-1.433.694-2.02 2.449-1.325 3.879.695 1.43 2.453 2.015 3.886 1.322l2.453-1.192 5.21-2.535 14.846-7.26a1.315 1.315 0 0 1 1.737.607c.304.65.043 1.409-.608 1.734l-20.057 9.795a2.916 2.916 0 0 0-1.324 3.879c.695 1.43 2.453 2.015 3.886 1.321l6.88-3.359 13.654-6.674a1.315 1.315 0 0 1 1.736.607c.304.65.044 1.408-.607 1.734l-13.958 6.826a2.944 2.944 0 0 0-1.476 1.668 2.798 2.798 0 0 0 .13 2.21 2.946 2.946 0 0 0 1.672 1.474c.738.26 1.52.217 2.214-.13l24.984-12.2a61.043 61.043 0 0 0 14.478-9.86l5.101-4.659-15.194-30.988a1.304 1.304 0 0 1 .607-1.733l13.046-6.371c.304-.152.673-.174.998-.065.326.108.586.346.738.65l15.672 31.79c.304.65.044 1.408-.608 1.733zm-2.366-1.669l-14.457-29.536-10.723 5.223 14.478 29.536z"/></defs><g><g transform="translate(-447 -3197)"><use xlink:href="#xkvua"/></g></g></svg>