<?xml version="1.0" encoding="utf-8"?><svg xmlns="http://www.w3.org/2000/svg" xmlns:xlink="http://www.w3.org/1999/xlink"><symbol viewBox="0 0 344.96 344.96" id="check" xmlns="http://www.w3.org/2000/svg"><defs><style>.acls-1{fill:#e75713}</style></defs><g id="aСлой_2" data-name="Слой 2"><path class="acls-1" d="M321.85 86.24l-40-23.11-23.1-40H212.5L172.48 0l-40 23.11H86.24l-23.11 40-40 23.1v46.21L0 172.48l23.11 40v46.21l40 23.11 23.11 40h46.21l40 23.1 40-23.11h46.21l23.11-40 40-23.11V212.5l23.11-40-23.11-40V86.24zM156.91 243.07a16.79 16.79 0 0 1-23.34 0l-50.45-50.44a16.19 16.19 0 0 1 0-22.89l13.35-13.35a16.19 16.19 0 0 1 22.89 0l25.87 25.87 80.34-80.35a16.19 16.19 0 0 1 22.89 0l13.35 13.35a16.19 16.19 0 0 1 0 22.89z" id="aCapa_1" data-name="Capa 1"/></g></symbol><symbol viewBox="0 0 1971.37 362.89" id="logo" xmlns="http://www.w3.org/2000/svg"><g data-name="Слой 2"><g data-name="Слой 1"><path d="M1971.37 130.86c-4.15 9.65-9.76 18-20 22.16-13.12 5.34-25.56 3.91-36.36-5.2s-15-21.42-11.37-35.33c3.5-13.43 12.63-22 26.07-25.36 16.8-4.17 34.67 6 40.62 22.59a22.06 22.06 0 0 0 1 2.13zm-33.72-35.14c-14.37-.11-26.23 11.44-26.28 25.57a26 26 0 0 0 52 .56 25.91 25.91 0 0 0-25.72-26.14zm-985.28-.86h51.57c1 0 1.94.09 3.28.16v15.83l55.18-18 .33.82c-4.12 1.9-8.22 3.83-12.35 5.71-13.18 6-26.4 11.89-39.53 18-1.4.65-3.32 2.31-3.33 3.52-.22 17.46-.15 34.93-.15 52.76H1071v41.08h-63.31v65H1071v41.19h-82c-21.79 0-36.6-14.91-36.64-36.82v-69h-13.7V174H952v-31.88c-1.24.33-2.51.59-3.74 1Q822.78 186.43 699 234.54c-3.89 1.52-4.79 3.37-4.76 7.21.17 24.33.08 48.66.08 73v5.77h-83V183l-60 64.82-58.63-63.49v93.05l104.3-27.43v20.95c-13.49 3.62-27.11 7.31-40.76 10.91-20.12 5.32-40.27 10.51-60.38 15.87q-37.32 9.94-74.59 20.06c-34.46 9.34-68.69 19.67-103.42 27.86a647.11 647.11 0 0 1-121.42 16.77C157.9 364 119.6 362.11 82 352.88c-10.61-2.6-20.93-6.37-31.38-9.66-.58-.18-1-.79-2.75-2.18 2.89 0 4.56-.07 6.21 0 18.9 1 37.8 2 56.7 2.93 7.62.38 15.27 1.1 22.88.79 7.17-.29 14.28-1.92 21.46-2.55 2.16-.19 4.43 1 6.66 1.51 3.32.75 6.63 1.86 10 2.1 7.58.53 15.67 2.28 22.63.3 5-1.41 9.78-1.53 14.62-2.42 3.43-.63 6.28-1.2 9.6 1.54 1.92 1.58 6.15 1.1 9.13.51 17.66-3.46 35.34-6.93 52.87-11 11.21-2.6 22.23-6.07 33.23-9.48a21 21 0 0 0 7.47-4.61c24.14-21.9 36.38-49.55 39.12-81.73a139.69 139.69 0 0 1 2.22-16.19c8.38 32.28 2.13 62.63-13.33 91.76l1.44.84 58.43-15.88V92.86h5.14c24.5 0 49 .06 73.49-.07a9.51 9.51 0 0 1 7.75 3.37q25.85 27.85 51.91 55.5c1.13 1.21 2.24 2.45 3.6 3.93 1.18-1 2.22-1.8 3.08-2.72q27-28.82 54-57.62a7.18 7.18 0 0 1 4.5-2.25c27-.14 54-.1 81.66-.1 0 7.64.17 15.07-.18 22.47-.05 1.14-2.28 2.54-3.77 3.19-21.22 9.18-42.5 18.25-63.75 27.37a10.47 10.47 0 0 0-4.56 3.22l72.17-18.19v86.3L728.19 206c-.77-8.36 2-15.38 7.3-21.62 5.72-6.77 13.29-10.05 21.66-11.32a267.82 267.82 0 0 1 28.73-3c11.64-.5 23.34-.5 35 0 10.69.45 20.65-1.59 30.67-5.18 28.66-10.26 57.51-20 86.26-30 4.81-1.67 11.26-2.37 13.79-5.83 2.41-3.29.74-9.61.77-14.6.04-6.3 0-12.61 0-19.59z"/><path d="M232.1 182.14c9.27 14.34 12.36 29.82 13.47 46.25h9.36l.43 1.24c-2.23 1.09-4.37 2.49-6.72 3.2-2.65.8-3.31 2.13-3.67 4.89-1.4 10.82-3.31 21.57-5 32.35l-1.3-.13-4.46-30.58-1.22-.63a94 94 0 0 0-5.44 8.89c-3.21 6.74-5.73 13.82-9.17 20.43-7.53 14.46-17.94 19.55-34.11 17.35-5.75-.78-11.52-1.46-17.73-2.25l-3.13 9.08c-.42-8.92-5.95-11.15-13.47-12.45-4.16-.72-8.18-3.61-11.72-6.26-4.42-3.31-5.29-11.36-1.95-16.36 2.06-3.09 4.89-5.67 7.37-8.49l1.64.67a46.79 46.79 0 0 1-1.68 7.08c-1.61 4-5.37 7.67-1.63 12.32 4.09 5.09 8.85 8.93 16.76 7.88-3.55-19.46-6-39-14.5-57.23l5.77 30.06c-2.91-2.12-4.91-4-7.26-5.21-5.09-2.62-10.2-5.38-15.61-7.16-4.15-1.36-8 .91-10.31 4.48-3.53 5.56-6.53 11.45-10.08 17.77-.82-.93-2.26-2-2.89-3.39a95.78 95.78 0 0 1-4.41-11.45c-4.5-15.05-14.6-23.93-30.21-27.49-9.7 17.76-3 33.15 7.68 48.67a47.88 47.88 0 0 1-23.28-7.78c-16.25-10.93-25.26-26.62-25-46.34.1-7.3 3.52-14.55 5.32-21.85.43-1.74 1.22-4.09.48-5.33-8.28-13.7-12.3-29-17-44.06a81.78 81.78 0 0 1-3.18-20.22c11.87 13.8 16.65 31 24.37 47.37 3.41-18-10-58.42-38.65-88.95 2.31-.83 4.33-1.63 6.4-2.3 34.06-11.18 66.08-27 97.72-43.57 14.85-7.8 29.46-16.2 44.82-22.87 13.91-6 29.09-8 44.26-8.84Q206.12.22 219.08 0c1.34 0 3.36.76 4 1.81 3.64 6.3 7 12.79 10.88 20.13-64 2.65-117.3 27.28-160.39 73.59l.54 1.74c3.93-1.18 8.23-1.69 11.7-3.67 11.15-6.37 21.84-13.56 33-19.91a202.18 202.18 0 0 1 67.44-23.86c39-6.48 75.06.34 107.79 23 1.21.84 2.39 1.74 4.39 3.2-2.95 3.81-5 9.14-8.69 10.6-4.77 1.91-10.81 1.27-16.21.76-5.23-.5-10.3-2.94-15.52-3.27-13.44-.85-22.15 5.61-26.54 18.76-.78 2.33-1.43 4.7-2.21 7.27-4.2-2.18-7.86-4.54-11.85-6.08-11.05-4.27-21.72-2.69-31.49 3.65-7.81 5.07-15 11.07-22.85 16.09-6.64 4.26-13.81 7.7-20.58 11.42 14.72 4.32 26.1 14.71 36 27.83-.36-4.63-.06-9.44-1.23-13.86-2.57-9.73 2.3-16.84 7.82-23.4 12.93-15.37 31.35-12.89 46.1-.51 1.89 1.59 3.6 3.4 5.67 5.37.55-5 .72-9.71 1.63-14.27 2.57-12.75 19-26.33 35.92-15.79 4.9 3.06 9.49 6.63 14.38 10.09 1.18-2.05 2.28-4.17 3.58-6.17 8.34-12.81 20-14.24 31.85-4.3 14.1 11.87 19.13 27.78 20.79 45.27a12.06 12.06 0 0 1-1.89 6.88c-1.8-3-3.69-6-5.37-9.13-1.91-3.53-4.86-6.44-8.65-5.2-3 1-6.81 3.88-7.63 6.7-2.16 7.42-2.92 15.25-4.19 22.93a9.9 9.9 0 0 1-1.17 4.21l-9.1-20.57-.8.25 2.59 24.56-1.38.5c-4.91-10-11-19.07-20.52-25.51 6.87 14.56 12 29.58 14.21 45.48a109.91 109.91 0 0 1-3.52 47.23c-3.85-13.71-7.7-27.77-11.83-41.75-.74-2.49-2.68-4.63-4.7-8l-2.05 6.69a52.81 52.81 0 0 1-15.73-20c-5-10.52-9.7-21.14-14.66-31.66a24.56 24.56 0 0 0-4.3-6c3.14 9.14 6.52 18.21 9.35 27.45 2.92 9.54 2.91 19.26.48 29.83-4-5-7.41-9.58-11.18-13.81a59.27 59.27 0 0 0-9.38-8.87c-4.54-3.27-8.24-2.64-10.89 2.25a34.34 34.34 0 0 0-4.11 13.14c-.55 6.58.19 13.28.43 19.92.09 2.62.33 5.24.56 8.8-16.57-8.19-23.84-23.25-32.57-37.26 2.31 16.4 7.23 32.59-.45 49-2.36-23.72-17.83-37.93-36.61-51.77L142.15 208l2.07.73 6.6-15.3c9.75 12 14.55 25.62 17.38 40a102 102 0 0 1-.78 44.22 42.87 42.87 0 0 0 22.79-10.31c7.19-6.16 13.66-13.17 20.76-19.44 5.81-5.12 12-9.88 18.24-14.43 2.24-1.63 2.54-3 1.69-5.33-2.39-6.65-4-13.64-7.07-20-2.32-4.84-2-8.55.76-12.81 2.67-4.03 4.85-8.45 7.51-13.19zm-132.37-3.23c-2.48-16.27 1.94-30.15 15.53-41.58-14.84.49-24.35 6.48-29 18.77-1.86 4.88-4.66 6.28-9.4 6.82-11.36 1.3-21.96 11.7-23.26 22.08 17.79-9.67 25.3-11.67 46.13-6.09zm86.46 101.42c11.15 2 18.46 0 23-6.27 3.94-5.47 5.1-11.33 2.75-18-13.73 8.4-25.38 17.47-25.75 24.27zM1861.75 173l-42.58 26 .42.92 28-10.59c7.87-3 15.77-5.87 23.57-9 2.63-1.06 4.28-.53 6 1.54a37.8 37.8 0 0 1 9 24.7c.29 25.83.84 51.69-.12 77.49-.87 23.42-13.86 36.15-36.74 36.57-37.82.7-75.67.64-113.49 0-21.3-.35-35.89-12.39-36.43-37.33-.55-25.49-.39-51 0-76.5.23-16.39 8.66-31.84 27.81-35.5a80.89 80.89 0 0 1 14.84-1.43q50.5-.18 101 0c6.16 0 12.31 1.1 18.46 1.69zm-31.54 40h-74.62v65.5h74.62zM1342.9 320.84c-18.82 0-37.66.51-56.45-.14-18.32-.64-29.73-7-35.45-25.33a49.37 49.37 0 0 1-2.1-14.13c-.2-23.81-.26-47.63 0-71.45.14-13.25 3.68-25.31 15.34-33.34 7.85-5.41 17-6.43 26.16-6.49q52.21-.32 104.42 0a68.58 68.58 0 0 1 14.74 1.93c14.65 3.33 24.9 14.61 25.68 29.71 1 18.59 1 37.23 1.06 55.85 0 10.62-.18 21.28-1 31.87-1.28 16.38-13.15 28.39-29.54 30.52a110 110 0 0 1-13.37 1c-16.49.11-33 0-49.46 0zM1303.38 211v68.54h78.48V211zm318.16 4.1h-107.06v105.4h-54.79V171.86h5.31c57.16 0 114.32-.12 171.48.07 23.06.08 38.89 12.57 38.88 39.1v109.6h-53.82zm-395.42-41.41v41.05h-63.41v65h63.4v40.71c-1.2.12-2.46.35-3.72.35-25.49 0-51 .2-76.48-.07-11.6-.12-22.35-3.05-30-12.85-6.2-8-8.38-17.26-8.47-27-.18-20.16-.05-40.32-.05-60.49v-5.35h-13.57v-41h13.57v-5.67c0-22.83.07-45.66-.08-68.48 0-3.8.8-5.23 4.95-5.16q22.49.39 45 0c4.36-.08 5.2 1.46 5.17 5.44-.17 22.49-.09 45-.09 67.48v6zM782.35 280.62h79.76v-70.47h-71.22l-.24-1c3.28-1.34 6.53-2.76 9.85-4 28.49-10.67 57-21.37 85.54-31.85a11.92 11.92 0 0 1 7.54.11 34.4 34.4 0 0 1 22.73 32.19c.13 27 .19 54 0 81a34.45 34.45 0 0 1-34.09 34.22q-60 .35-119.93 0c-18.44-.11-33.6-15.52-33.85-34-.24-17.49-.1-35 0-52.47 0-1.38.79-3.64 1.75-4 17.16-6.23 34.4-12.22 52.15-18.45z"/><path d="M1595 320.64h-54.37v-92.38H1595zM489.5 76l178.89-46.5.35 1c-1.17.5-2.32 1.06-3.52 1.49q-77.45 27.73-154.88 55.55c-3 1.09-4.81.8-6.53-2-3.19-5.15-7.23-9.23-14.31-9.54zm-139.84 68.77c-1-11.25-3.19-21.86-11.28-30.91l56-14c0 9.8.09 19.12-.12 28.43a4.61 4.61 0 0 1-2.62 3.33c-13.91 4.5-27.87 8.77-41.98 13.15zm-270.56 131C64.79 288 51 299.73 37.39 311.58c-2 1.71-3.36 4.07-5.2 6.36 4.71 6.2 11.8 7.29 18.17 7.72 19.84 1.34 39.75 1.69 59.63 2.4 2 .07 3.95 0 5.92 0l.86 1.52c-1.29 1.05-2.48 2.87-3.87 3-10.71 1.28-21.45 2.72-32.21 3.19-12.08.53-24.21.28-36.3 0a46.13 46.13 0 0 1-12.19-2.35c-8.1-2.51-11-10.42-6.1-17.7 5.9-8.6 12.39-16.72 18.9-24.9 4.45-5.57 9.5-10.66 14-16.16 2.92-3.54 6-4.78 10.38-2.79 3.41 1.55 6.93 2.79 9.72 3.9zm250.23-131.02c13.36 24 14.47 48.18 8.56 74.27-3.05-6.09-5.82-11.35-8.36-16.73-5-10.61-9.05-21.42-8.82-33.52.18-8.72 3.95-15.85 8.62-24.02zM89.35 236.07l33 52.84c-14.33-11-30-20.92-34.38-40.2-.9-4-.13-8.3-.13-12.46zm402.8 71.85v12.57H442l-.14-.44zm-275.72 29.99c-10.59.17-20 6.22-29-3.21 7.09-3 13.36-5.8 19.81-8.14 1.1-.4 3.51.92 4.37 2.12 1.72 2.44 2.84 5.32 4.82 9.23zm17.75-12.36c-7.72 2.79-14.95 3.69-21.91-1.4 10.82-9.39 16.37-11.3 21.91 1.4zm-42.54 17.74c-10.45 2.9-19.21 1.07-28-2.45 6.53-1.57 13-3.85 19.63-4.34 2.33-.18 5.03 3.95 8.37 6.79zm35.86-29.49l8.41-12.29c6.56 2.7 6.8 8.22 7.24 14.3zm-4.16 29.95l-5.73-10.53h19c-2.46 5.89-7.5 8.29-13.27 10.53zm20.03-14.94l-6.37-8.22 13.27-2.13zm1702.71-201.63l7.36 10.41c-5.68 1.39-10 .82-12.74-4.63-1.57-3.09-3.86-5.46-8.14-3.6l-.38 8.47h-7.32v-32.9c5.41 0 10.75-.53 15.95.12 8.79 1.1 13 11.43 8 18.83-.73 1.12-1.66 2.02-2.73 3.3zm-13.46-4c4-1.62 7.14-2.63 10-4.26.61-.35.46-3.94-.21-4.27-2.88-1.41-6.07-2.17-9.74-3.36z"/></g></g></symbol></svg>