<?xml version="1.0" encoding="UTF-8" standalone="no"?>
<!-- Created with Inkscape (http://www.inkscape.org/) -->

<svg
   xmlns:dc="http://purl.org/dc/elements/1.1/"
   xmlns:cc="http://creativecommons.org/ns#"
   xmlns:rdf="http://www.w3.org/1999/02/22-rdf-syntax-ns#"
   xmlns:svg="http://www.w3.org/2000/svg"
   xmlns="http://www.w3.org/2000/svg"
   xmlns:sodipodi="http://sodipodi.sourceforge.net/DTD/sodipodi-0.dtd"
   xmlns:inkscape="http://www.inkscape.org/namespaces/inkscape"
   width="59.851723mm"
   height="92.443382mm"
   viewBox="0 0 59.851723 92.443382"
   version="1.1"
   id="svg8"
   inkscape:version="0.92.1 r15371"
   sodipodi:docname="i-mark.svg">
  <defs
     id="defs2" />
  <sodipodi:namedview
     id="base"
     pagecolor="#ffffff"
     bordercolor="#666666"
     borderopacity="1.0"
     inkscape:pageopacity="0.0"
     inkscape:pageshadow="2"
     inkscape:zoom="0.35"
     inkscape:cx="144.35605"
     inkscape:cy="142.35973"
     inkscape:document-units="mm"
     inkscape:current-layer="layer1"
     showgrid="false"
     fit-margin-top="0"
     fit-margin-left="0"
     fit-margin-right="0"
     fit-margin-bottom="0"
     inkscape:window-width="1366"
     inkscape:window-height="715"
     inkscape:window-x="-8"
     inkscape:window-y="-8"
     inkscape:window-maximized="1" />
  <metadata
     id="metadata5">
    <rdf:RDF>
      <cc:Work
         rdf:about="">
        <dc:format>image/svg+xml</dc:format>
        <dc:type
           rdf:resource="http://purl.org/dc/dcmitype/StillImage" />
        <dc:title></dc:title>
      </cc:Work>
    </rdf:RDF>
  </metadata>
  <g
     inkscape:label="Layer 1"
     inkscape:groupmode="layer"
     id="layer1"
     transform="translate(-67.63913,-94.055965)">
    <path
       style="fill:#000000;stroke-width:0.26458335"
       d="M 86.788212,167.98538 C 75.62592,148.32699 73.020914,143.38336 70.571676,137.21058 c -2.557844,-6.44651 -2.909137,-7.90477 -2.931941,-12.17084 -0.02907,-5.43856 0.987006,-9.68174 3.469293,-14.4879 6.556364,-12.694334 20.271302,-19.016474 33.754332,-15.559664 8.67062,2.223 16.33775,9.004754 20.05428,17.738464 1.92308,4.51916 3.00864,11.12236 2.40725,14.64267 -0.74831,4.38039 -3.95347,11.83136 -8.55664,19.89142 -1.24662,2.18282 -6.46321,11.82688 -11.59243,21.43125 -5.12922,9.60439 -9.406878,17.61415 -9.50592,17.79949 -0.106735,0.19973 -4.538644,-7.33908 -10.881688,-18.51009 z M 101.3503,141.42857 c 6.44723,-1.51954 11.81184,-7.02959 13.38021,-13.74299 0.679,-2.90644 0.42722,-7.80314 -0.54964,-10.68949 -2.07601,-6.13407 -7.41257,-10.8776 -13.60338,-12.0917 -8.765551,-1.71903 -17.584121,4.01805 -20.093075,13.07192 -2.816474,10.16358 2.971151,20.77492 12.724837,23.33036 2.368791,0.62063 5.806589,0.6721 8.141048,0.1219 z"
       id="path21"
       inkscape:connector-curvature="0" />
  </g>
</svg>
