<svg xmlns="http://www.w3.org/2000/svg" viewBox="0 0 361.8 282.65"><defs><style>.cls-1{fill:#fff;}.cls-2{fill:#e01f26;}.cls-10,.cls-11,.cls-12,.cls-2,.cls-3,.cls-4,.cls-5,.cls-6,.cls-7,.cls-8,.cls-9{fill-rule:evenodd;}.cls-3{fill:#e83d24;}.cls-4{fill:#ed5024;}.cls-5{fill:#f26722;}.cls-6{fill:#f5831f;}.cls-7{fill:#f47521;}.cls-8{fill:#f26522;}.cls-9{fill:#ed4e23;}.cls-10{fill:#e73f25;}.cls-11{fill:#e53525;}.cls-12{fill:#e42b26;}</style></defs><title>logo</title><g id="Слой_2" data-name="Слой 2"><g id="Logo"><path class="cls-1" d="M45.9,258.31c0,7-2.22,12.8-6.54,17.41s-9.92,6.88-16.85,6.93c-6.65-.06-12.08-2.33-16.24-6.93S0,265.3,0,258.31V248.17c0-7,2.05-12.75,6.26-17.4a20.91,20.91,0,0,1,16.24-6.93c6.93,0,12.53,2.27,16.85,6.93s6.54,10.42,6.54,17.4Zm-7.76-10.25c0-5.21-1.44-9.54-4.27-12.86a14.17,14.17,0,0,0-11.36-5,13.12,13.12,0,0,0-10.75,5c-2.72,3.32-4,7.65-4,12.86v10.25c0,5.32,1.33,9.59,4,13a13.12,13.12,0,0,0,10.75,5,14.21,14.21,0,0,0,11.42-5c2.83-3.33,4.21-7.65,4.21-13Zm34.7,28.49a9.25,9.25,0,0,0,6.26-2.33,7.61,7.61,0,0,0,2.66-5.88h7l.11.28c.11,3.66-1.44,6.93-4.71,9.76a17.08,17.08,0,0,1-11.31,4.27c-6-.06-10.59-2.05-13.8-6.1s-4.88-9.09-4.88-15.13v-1.66c0-6,1.61-11,4.88-15.13s7.87-6.1,13.8-6.1A16,16,0,0,1,84.48,243a13.68,13.68,0,0,1,4.38,10.75l-.11.28h-7a9.34,9.34,0,0,0-2.55-6.65,8.27,8.27,0,0,0-6.37-2.72c-3.77,0-6.54,1.44-8.32,4.44a20.82,20.82,0,0,0-2.61,10.7v1.66a21,21,0,0,0,2.61,10.75c1.66,2.94,4.49,4.38,8.32,4.38Zm36-47.45v10.2h8v5.77h-8v25.77c0,2,.39,3.38,1.22,4.21a4.43,4.43,0,0,0,3.27,1.22,7.76,7.76,0,0,0,1.5-.17c.55-.17,1-.28,1.38-.39l1.05,5.27a6.09,6.09,0,0,1-2.55,1.17,13.89,13.89,0,0,1-3.33.5,10.2,10.2,0,0,1-7.48-2.88c-1.89-1.89-2.83-4.88-2.83-8.92V245.06H94.34V239.3h6.71V229.1Zm42.41,52.72c-.28-1.33-.44-2.44-.61-3.44a25.32,25.32,0,0,1-.22-2.94,18.65,18.65,0,0,1-5.66,5.1,15,15,0,0,1-7.48,2.11c-4.43-.06-7.76-1.17-10.09-3.44s-3.49-5.38-3.49-9.37a10.93,10.93,0,0,1,4.93-9.48c3.27-2.33,7.76-3.44,13.36-3.44h8.43v-4.21a7.81,7.81,0,0,0-2.33-5.93,8.94,8.94,0,0,0-6.43-2.16,9.07,9.07,0,0,0-6,1.89,5.68,5.68,0,0,0-2.33,4.49l-7.37.11-.05-.22q-.25-4.65,4.32-8.48c3.1-2.61,7-3.88,11.92-3.88s8.7,1.22,11.64,3.66,4.38,6,4.38,10.59v20.45a36.94,36.94,0,0,0,.22,4.38,21.93,21.93,0,0,0,.89,4.21Zm-12.8-5.65A13.62,13.62,0,0,0,146,274a10.57,10.57,0,0,0,4.44-4.93v-6.93h-8.7a11.39,11.39,0,0,0-7.48,2.33,7.05,7.05,0,0,0-2.77,5.54,5.89,5.89,0,0,0,1.72,4.49,7.5,7.5,0,0,0,5.27,1.66Zm37.8-36.86.56,6.37a15.12,15.12,0,0,1,5.32-5.27,14.47,14.47,0,0,1,7.26-1.89c4.6,0,8.15,1.39,10.64,4s3.77,6.82,3.77,12.42v26.83h-7.7V255.15c0-3.77-.78-6.43-2.22-8s-3.77-2.33-6.76-2.33a12.23,12.23,0,0,0-6.09,1.39,10.61,10.61,0,0,0-3.94,4v31.54h-7.71V239.3Zm56.37,43.35c-6.09-.06-10.86-2-14.24-5.88s-5.16-9-5.16-15.36v-1.77c0-6.1,1.77-11.14,5.27-15.13a16.68,16.68,0,0,1,12.91-6c5.66,0,9.92,1.77,12.75,5.32s4.27,8.2,4.27,14.08V262H221.23l-.11.16c0,4.27.94,7.76,2.83,10.42s4.77,3.93,8.65,3.93a18.63,18.63,0,0,0,6.87-1.11,15.07,15.07,0,0,0,5.1-3l3.05,5a18.36,18.36,0,0,1-6,3.71,25.32,25.32,0,0,1-9,1.55Zm-1.22-38a8.48,8.48,0,0,0-6.71,3.11,14.8,14.8,0,0,0-3.22,8l.06.17h19.18v-.61a12.41,12.41,0,0,0-2.27-7.65c-1.55-2-3.88-3-7-3Zm52.72,30.88a15.15,15.15,0,0,1-5.15,5.27,14.9,14.9,0,0,1-7.26,1.89c-4.66-.06-8.26-1.5-10.86-4.49s-3.88-7.54-3.88-13.8V239.3h7.76v25.17q0,6.74,2,9.31c1.33,1.72,3.38,2.55,6.21,2.55a12.7,12.7,0,0,0,6.82-1.66,9.92,9.92,0,0,0,4-4.71V239.3h7.76v42.52h-6.93Zm25.61-36.2.55,5.6a14.39,14.39,0,0,1,5.27-4.71,15.81,15.81,0,0,1,7.43-1.66,12.84,12.84,0,0,1,7.26,2,11.85,11.85,0,0,1,4.6,5.88,15.26,15.26,0,0,1,5.32-5.77,14,14,0,0,1,7.65-2.11A12.66,12.66,0,0,1,358,243c2.49,2.94,3.77,7.43,3.77,13.36v25.44H354.1v-25.5c0-4.21-.72-7.15-2.16-8.87s-3.6-2.61-6.49-2.61a8.1,8.1,0,0,0-6.37,2.72,11.76,11.76,0,0,0-2.88,7v27.27h-7.76v-25.5c0-4-.78-6.88-2.22-8.7a7.72,7.72,0,0,0-6.43-2.77,10.22,10.22,0,0,0-5.76,1.44,8.91,8.91,0,0,0-3.49,4v31.49h-7.76V239.3Z"/></g><g id="Icon"><polygon class="cls-2" points="232.7 166.13 193.96 155.54 177.66 198.22 232.7 166.13"/><polygon class="cls-3" points="251.1 112.91 196.4 153.16 235.53 163.8 251.1 112.91"/><polygon class="cls-4" points="250.16 109.98 192.79 100.05 194.46 150.94 250.16 109.98"/><polygon class="cls-5" points="234.48 55.16 194.23 97.34 251.66 107.2 234.48 55.16"/><polygon class="cls-6" points="177.1 27.77 230.15 48.78 188.36 0 177.1 27.77"/><polygon class="cls-7" points="177.22 31.04 192.07 95.29 232.53 52.88 177.22 31.04"/><polygon class="cls-8" points="139.63 69.51 189.08 95.51 174.33 31.65 139.63 69.51"/><polygon class="cls-9" points="139.08 72.5 148.61 147.23 188.97 98.78 139.08 72.5"/><polygon class="cls-10" points="110.09 119.07 145.62 147.39 136.36 74.39 110.09 119.07"/><polygon class="cls-11" points="122.5 178.77 145.45 151 110.53 123.11 122.5 178.77"/><polygon class="cls-12" points="146.23 154.76 123.56 182.09 148 214.69 146.23 154.76"/></g></g></svg>