<svg width="785" height="463" viewBox="0 0 785 463" fill="none" xmlns="http://www.w3.org/2000/svg">
<path d="M68.7502 318.278H202.201V376.636C202.201 382.214 204.346 383.073 209.066 383.073H233.096C237.816 383.073 239.962 382.214 239.962 376.636V317.849H270.857C276.435 317.849 278.152 316.562 278.152 311.413V292.532C278.152 288.241 275.577 286.096 270.857 286.096H239.962V110.164C239.962 94.7166 234.812 88.7092 219.365 88.7092H206.921C196.193 88.7092 188.898 97.7204 182.462 106.302L57.1644 269.79C50.2988 278.801 48.1533 285.667 48.1533 294.678V299.398C48.1533 314.846 58.4517 318.278 68.7502 318.278ZM202.201 139.343V286.096H91.0634L90.6343 284.379L201.342 138.914L202.201 139.343Z" fill="#FFC107"/>
<path d="M530.825 238.466C530.825 147.925 499.072 89.9965 418.401 89.9965C341.591 89.9965 305.118 149.213 305.118 239.324C305.118 329.864 341.591 387.793 417.542 387.793C496.068 387.793 530.825 328.148 530.825 238.466ZM493.064 239.324C493.064 295.107 476.758 356.468 418.401 356.468C358.326 356.468 343.308 295.107 343.308 238.466C343.308 181.824 359.614 121.75 417.542 121.75C477.187 121.75 493.064 182.253 493.064 239.324Z" fill="#FFC107"/>
<path d="M574.955 318.278H708.406V376.636C708.406 382.214 710.551 383.073 715.271 383.073H739.301C744.021 383.073 746.167 382.214 746.167 376.636V317.849H777.062C782.64 317.849 784.357 316.562 784.357 311.413V292.532C784.357 288.241 781.782 286.096 777.062 286.096H746.167V110.164C746.167 94.7166 741.018 88.7092 725.57 88.7092H713.126C702.398 88.7092 695.104 97.7204 688.667 106.302L563.37 269.79C556.504 278.801 554.359 285.667 554.359 294.678V299.398C554.359 314.846 564.657 318.278 574.955 318.278ZM708.406 139.343V286.096H597.269L596.84 284.379L707.548 138.914L708.406 139.343Z" fill="#FFC107"/>
<path d="M21.3932 286.628H154.844V344.986C154.844 350.564 156.989 351.422 161.709 351.422H185.739C190.459 351.422 192.605 350.564 192.605 344.986V286.199H223.5C229.078 286.199 230.795 284.911 230.795 279.762V260.882C230.795 256.591 228.22 254.445 223.5 254.445H192.605V78.5137C192.605 63.066 187.455 57.0586 172.008 57.0586H159.564C148.836 57.0586 141.542 66.0697 135.105 74.6517L9.8075 238.139C2.94189 247.15 0.796387 254.016 0.796387 263.027V267.747C0.796387 283.195 11.0948 286.628 21.3932 286.628ZM154.844 107.693V254.445H43.7065L43.2774 252.729L153.985 107.263L154.844 107.693Z" fill="#FFF134"/>
<path d="M483.468 206.815C483.468 116.275 451.715 58.3459 371.044 58.3459C294.235 58.3459 257.761 117.562 257.761 207.673C257.761 298.213 294.235 356.142 370.185 356.142C448.711 356.142 483.468 296.497 483.468 206.815ZM445.707 207.673C445.707 263.456 429.401 324.818 371.044 324.818C310.969 324.818 295.951 263.456 295.951 206.815C295.951 150.174 312.257 90.0994 370.185 90.0994C429.831 90.0994 445.707 150.603 445.707 207.673Z" fill="#FFF134"/>
<path d="M527.599 286.628H661.049V344.986C661.049 350.564 663.194 351.422 667.915 351.422H691.944C696.664 351.422 698.81 350.564 698.81 344.986V286.199H729.705C735.283 286.199 737 284.911 737 279.762V260.882C737 256.591 734.425 254.445 729.705 254.445H698.81V78.5137C698.81 63.066 693.661 57.0586 678.213 57.0586H665.769C655.042 57.0586 647.747 66.0697 641.31 74.6517L516.013 238.139C509.147 247.15 507.002 254.016 507.002 263.027V267.747C507.002 283.195 517.3 286.628 527.599 286.628ZM661.049 107.693V254.445H549.912L549.483 252.729L660.191 107.263L661.049 107.693Z" fill="#FFF134"/>
<path d="M39.5969 298.296H173.047V356.654C173.047 362.232 175.193 363.091 179.913 363.091H203.943C208.663 363.091 210.808 362.232 210.808 356.654V297.867H241.703C247.282 297.867 248.998 296.58 248.998 291.431V272.55C248.998 268.259 246.424 266.114 241.703 266.114H210.808V90.1822C210.808 74.7346 205.659 68.7272 190.211 68.7272H177.767C167.04 68.7272 159.745 77.7383 153.309 86.3203L28.0111 249.808C21.1455 258.819 19 265.685 19 274.696V279.416C19 294.864 29.2984 298.296 39.5969 298.296ZM173.047 119.361V266.114H61.9101L61.481 264.397L172.189 118.932L173.047 119.361Z" fill="black" fill-opacity="0.5"/>
<path d="M501.672 218.484C501.672 127.943 469.918 70.0145 389.247 70.0145C312.438 70.0145 275.965 129.23 275.965 219.342C275.965 309.882 312.438 367.811 388.389 367.811C466.915 367.811 501.672 308.166 501.672 218.484ZM463.911 219.342C463.911 275.125 447.605 336.486 389.247 336.486C329.173 336.486 314.155 275.125 314.155 218.484C314.155 161.842 330.46 101.768 388.389 101.768C448.034 101.768 463.911 162.271 463.911 219.342Z" fill="black" fill-opacity="0.5"/>
<path d="M545.802 298.296H679.253V356.654C679.253 362.232 681.398 363.091 686.118 363.091H710.148C714.868 363.091 717.013 362.232 717.013 356.654V297.867H747.909C753.487 297.867 755.203 296.58 755.203 291.431V272.55C755.203 268.259 752.629 266.114 747.909 266.114H717.013V90.1822C717.013 74.7346 711.864 68.7272 696.417 68.7272H683.973C673.245 68.7272 665.95 77.7383 659.514 86.3203L534.216 249.808C527.351 258.819 525.205 265.685 525.205 274.696V279.416C525.205 294.864 535.504 298.296 545.802 298.296ZM679.253 119.361V266.114H568.115L567.686 264.397L678.394 118.932L679.253 119.361Z" fill="black" fill-opacity="0.5"/>
<path d="M211.357 0.27771V281.274" stroke="black"/>
<path d="M501.765 77.7705V358.767" stroke="black"/>
<path d="M678.357 181.296V462.292" stroke="black"/>
</svg>
