<svg width="24" height="25" viewBox="0 0 24 25" fill="none" xmlns="http://www.w3.org/2000/svg">
<path d="M16.5 0.589355H7.5C3.3585 0.589355 0 3.94786 0 8.08936V17.0894C0 21.2309 3.3585 24.5894 7.5 24.5894H16.5C20.6415 24.5894 24 21.2309 24 17.0894V8.08936C24 3.94786 20.6415 0.589355 16.5 0.589355ZM21.75 17.0894C21.75 19.9844 19.395 22.3394 16.5 22.3394H7.5C4.605 22.3394 2.25 19.9844 2.25 17.0894V8.08936C2.25 5.19436 4.605 2.83936 7.5 2.83936H16.5C19.395 2.83936 21.75 5.19436 21.75 8.08936V17.0894Z" fill="url(#paint0_linear)"/>
<path d="M12 6.58936C8.6865 6.58936 6 9.27586 6 12.5894C6 15.9029 8.6865 18.5894 12 18.5894C15.3135 18.5894 18 15.9029 18 12.5894C18 9.27586 15.3135 6.58936 12 6.58936ZM12 16.3394C9.933 16.3394 8.25 14.6564 8.25 12.5894C8.25 10.5209 9.933 8.83936 12 8.83936C14.067 8.83936 15.75 10.5209 15.75 12.5894C15.75 14.6564 14.067 16.3394 12 16.3394Z" fill="url(#paint1_linear)"/>
<path d="M18.4499 6.93884C18.8914 6.93884 19.2494 6.5809 19.2494 6.13934C19.2494 5.69779 18.8914 5.33984 18.4499 5.33984C18.0083 5.33984 17.6504 5.69779 17.6504 6.13934C17.6504 6.5809 18.0083 6.93884 18.4499 6.93884Z" fill="url(#paint2_linear)"/>
<defs>
<linearGradient id="paint0_linear" x1="2.19697" y1="22.3925" x2="21.803" y2="2.78618" gradientUnits="userSpaceOnUse">
<stop stop-color="#FFC107"/>
<stop offset="0.507" stop-color="#F44336"/>
<stop offset="0.99" stop-color="#9C27B0"/>
</linearGradient>
<linearGradient id="paint1_linear" x1="7.75747" y1="16.8319" x2="16.2425" y2="8.34683" gradientUnits="userSpaceOnUse">
<stop stop-color="#FFC107"/>
<stop offset="0.507" stop-color="#F44336"/>
<stop offset="0.99" stop-color="#9C27B0"/>
</linearGradient>
<linearGradient id="paint2_linear" x1="17.8846" y1="6.70477" x2="19.0152" y2="5.57407" gradientUnits="userSpaceOnUse">
<stop stop-color="#FFC107"/>
<stop offset="0.507" stop-color="#F44336"/>
<stop offset="0.99" stop-color="#9C27B0"/>
</linearGradient>
</defs>
</svg>
