<svg width="27" height="30" viewBox="0 0 27 30" fill="none" xmlns="http://www.w3.org/2000/svg">
<path d="M16.2 15.578C15.9285 15.578 15.7091 15.7975 15.7091 16.0689V22.9441H0.981818V4.28958H15.7091V11.1613C15.7091 11.4328 15.9285 11.6522 16.2 11.6522C16.4715 11.6522 16.6909 11.4328 16.6909 11.1613V2.52476C16.6909 1.33283 15.7204 0.362305 14.5285 0.362305H2.16245C0.970527 0.362305 0 1.33283 0 2.52476V27.6539C0 28.8463 0.970527 29.8169 2.16245 29.8169H14.528C15.7204 29.8169 16.6904 28.8463 16.6904 27.6544V16.0689C16.6909 15.7975 16.4715 15.578 16.2 15.578ZM2.16245 1.34412H14.528C15.1794 1.34412 15.7091 1.87381 15.7091 2.52476V3.30776H0.981818V2.52476C0.981818 1.87381 1.51151 1.34412 2.16245 1.34412ZM14.5285 28.835H2.16245C1.51151 28.835 0.981818 28.3053 0.981818 27.6544V23.9259H15.7091V27.6544C15.7091 28.3053 15.1794 28.835 14.5285 28.835Z" fill="black"/>
<path d="M8.34547 24.417C7.26253 24.417 6.38184 25.2977 6.38184 26.3806C6.38184 27.4636 7.26253 28.3443 8.34547 28.3443C9.42842 28.3443 10.3091 27.4636 10.3091 26.3806C10.3091 25.2977 9.42842 24.417 8.34547 24.417ZM8.34547 27.3624C7.804 27.3624 7.36365 26.9221 7.36365 26.3806C7.36365 25.8392 7.804 25.3988 8.34547 25.3988C8.88695 25.3988 9.32729 25.8392 9.32729 26.3806C9.32729 26.9221 8.88695 27.3624 8.34547 27.3624Z" fill="black"/>
<path d="M6.38178 2.81678H8.34541C8.61689 2.81678 8.83632 2.59734 8.83632 2.32587C8.83632 2.0544 8.61689 1.83496 8.34541 1.83496H6.38178C6.11031 1.83496 5.89087 2.0544 5.89087 2.32587C5.89087 2.59734 6.11031 2.81678 6.38178 2.81678Z" fill="black"/>
<path d="M9.8183 2.81678H10.3092C10.5807 2.81678 10.8001 2.59734 10.8001 2.32587C10.8001 2.0544 10.5807 1.83496 10.3092 1.83496H9.8183C9.54683 1.83496 9.32739 2.0544 9.32739 2.32587C9.32739 2.59734 9.54683 2.81678 9.8183 2.81678Z" fill="black"/>
<path d="M26.5091 13.1259H9.03961L14.0925 8.07297C14.2845 7.88102 14.2845 7.57077 14.0925 7.37882C13.9006 7.18688 13.5903 7.18688 13.3984 7.37882L7.50797 13.2692C7.46232 13.3149 7.42648 13.3694 7.40144 13.4298C7.35186 13.5495 7.35186 13.685 7.40144 13.8048C7.42648 13.8652 7.46232 13.9197 7.50797 13.9653L13.3984 19.8558C13.4941 19.9505 13.6198 19.9986 13.7455 19.9986C13.8711 19.9986 13.9968 19.9505 14.0925 19.8548C14.2845 19.6628 14.2845 19.3526 14.0925 19.1606L9.03961 14.1077H26.5091C26.7806 14.1077 27 13.8883 27 13.6168C27 13.3453 26.7806 13.1259 26.5091 13.1259Z" fill="#FFC107"/>
</svg>
