<?xml version="1.0" encoding="utf-8"?><svg xmlns="http://www.w3.org/2000/svg" xmlns:xlink="http://www.w3.org/1999/xlink"><symbol viewBox="0 0 20 20" id="Facebook" xmlns="http://www.w3.org/2000/svg"><path d="M17.07 0H2.93A2.933 2.933 0 0 0 0 2.93v14.14A2.933 2.933 0 0 0 2.93 20h5.898v-7.07H6.484V9.414h2.344V7.031a3.52 3.52 0 0 1 3.516-3.515h3.554V7.03h-3.554v2.383h3.554l-.585 3.516h-2.97V20h4.727A2.933 2.933 0 0 0 20 17.07V2.93A2.933 2.933 0 0 0 17.07 0z"/></symbol><symbol viewBox="0 0 20 20" id="Telegram" xmlns="http://www.w3.org/2000/svg"><path d="M4.812 11.396L7.3 17.614l3.238-3.238 5.552 4.413L20 1.211 0 9.54l4.812 1.855zm9.473-5.142l-6.122 5.584-.762 2.874-1.409-3.522 8.293-4.936z"/></symbol><symbol viewBox="0 0 20 20" id="WhatsApp" xmlns="http://www.w3.org/2000/svg"><path d="M10 0C4.507 0 0 4.507 0 10a9.93 9.93 0 0 0 1.416 5.121L0 20l4.879-1.416A9.933 9.933 0 0 0 10 20c5.493 0 10-4.507 10-10S15.493 0 10 0zm6.252 14.225l-.465.466c-.658.658-2.172.606-3.145.418-3.234-.625-7.005-4.28-7.732-7.445-.36-1.568-.162-2.931.358-3.452l.465-.465a.659.659 0 0 1 .931 0L8.525 5.61a.652.652 0 0 1 .192.465.65.65 0 0 1-.192.464l-.465.466a1.319 1.319 0 0 0 0 1.862l3.074 3.033a1.315 1.315 0 0 0 1.861 0l.465-.465a.688.688 0 0 1 .931 0l1.861 1.86a.657.657 0 0 1 0 .931z"/></symbol><symbol viewBox="0 0 22 22" id="basket" xmlns="http://www.w3.org/2000/svg"><g clip-path="url(#dclip0)"><path d="M21.23 4.333c-.087-.087-.174-.174-.348-.174H4.365l-.435-2.26c0-.174-.26-.348-.434-.348H.888c-.261 0-.435.174-.435.434 0 .261.174.435.435.435h2.26l2.086 10.606c.261 1.39 1.565 2.434 2.956 2.434h9.997c.261 0 .435-.174.435-.435 0-.26-.174-.434-.435-.434h-9.91c-.695 0-1.39-.348-1.739-.957l12.692-1.738a.374.374 0 0 0 .348-.348l1.739-6.955s0-.174-.087-.26zm-2.434 6.78L6.104 12.765 4.539 4.94h15.735l-1.478 6.172zM7.841 16.33a2.152 2.152 0 0 0-2.173 2.173c0 1.217.956 2.173 2.173 2.173a2.152 2.152 0 0 0 2.173-2.173 2.152 2.152 0 0 0-2.173-2.173zm0 3.477c-.695 0-1.304-.609-1.304-1.304 0-.696.609-1.304 1.304-1.304.696 0 1.304.608 1.304 1.304 0 .695-.608 1.304-1.304 1.304zm8.696-3.477a2.152 2.152 0 0 0-2.174 2.173c0 1.217.957 2.173 2.174 2.173a2.152 2.152 0 0 0 2.173-2.173 2.152 2.152 0 0 0-2.173-2.173zm0 3.477c-.696 0-1.304-.609-1.304-1.304 0-.696.608-1.304 1.304-1.304.695 0 1.303.608 1.303 1.304 0 .695-.608 1.304-1.303 1.304z"/></g><defs><clipPath id="dclip0"><path transform="translate(.453 .682)" d="M0 0h20.864v20.864H0z"/></clipPath></defs></symbol><symbol viewBox="0 0 25 17" id="check" xmlns="http://www.w3.org/2000/svg"><path d="M23.697 0L8.986 14.44 1.304 6.9 0 8.18 8.986 17 25 1.28 23.697 0z"/></symbol><symbol viewBox="0 0 20 20" id="circular-clock" xmlns="http://www.w3.org/2000/svg"><path d="M9.998 3.193a.588.588 0 1 0 0-1.176.588.588 0 0 0 0 1.176z"/><path d="M10 20C4.496 20 0 15.504 0 10S4.496 0 10 0s10 4.454 10 9.958C20 15.462 15.504 20 10 20zm0-18.781a8.733 8.733 0 0 0-8.74 8.739 8.733 8.733 0 0 0 8.74 8.74 8.733 8.733 0 0 0 8.74-8.74c0-4.79-3.908-8.74-8.74-8.74z"/><path d="M9.998 17.941a.588.588 0 1 0 0-1.176.588.588 0 0 0 0 1.176zm7.356-7.395a.588.588 0 1 0 0-1.176.588.588 0 0 0 0 1.176zm-14.707 0a.588.588 0 1 0 0-1.176.588.588 0 0 0 0 1.176zm7.143.714a.632.632 0 0 1-.463-.168l-2.017-2.1a.61.61 0 0 1 0-.883.61.61 0 0 1 .883 0l1.596 1.597 3.698-3.698a.61.61 0 0 1 .882 0 .61.61 0 0 1 0 .883l-4.118 4.16a.675.675 0 0 1-.462.21z"/></symbol><symbol viewBox="0 0 36 36" id="close" xmlns="http://www.w3.org/2000/svg"><path d="M26.515 8.839c-4.874-4.874-12.804-4.874-17.678 0-4.874 4.874-4.874 12.804 0 17.677 4.873 4.874 12.804 4.874 17.678 0 4.874-4.873 4.873-12.804 0-17.677zM9.517 25.837c-4.499-4.499-4.499-11.82 0-16.318 4.498-4.499 11.82-4.499 16.318 0 4.498 4.498 4.498 11.819 0 16.318-4.499 4.498-11.82 4.498-16.318 0z" fill-opacity=".7"/><path d="M22.263 21.587l-3.91-3.91 3.74-3.739a.48.48 0 1 0-.68-.68l-3.74 3.74-3.909-3.91a.48.48 0 1 0-.68.68l3.91 3.91-4.08 4.08a.48.48 0 1 0 .68.68l4.08-4.08 3.91 3.91a.48.48 0 1 0 .68-.68z" fill-opacity=".7"/></symbol><symbol viewBox="0 0 20 20" id="email" xmlns="http://www.w3.org/2000/svg"><path d="M19 2.333H1a1 1 0 0 0-1 1v13.334a1 1 0 0 0 1 1h18a1 1 0 0 0 1-1V3.333a1 1 0 0 0-1-1zm.333 14.334A.333.333 0 0 1 19 17H1a.333.333 0 0 1-.333-.333V3.333C.667 3.15.816 3 1 3h18c.184 0 .333.15.333.333v13.334z"/><path d="M18.361 3.668a.333.333 0 0 0-.243.077l-7.69 6.46a.667.667 0 0 1-.858 0l-7.69-6.46a.333.333 0 0 0-.429.51l7.69 6.46c.496.417 1.22.417 1.715 0l7.69-6.46a.333.333 0 0 0-.185-.587zM6.411 10.67a.334.334 0 0 0-.321.103l-4.667 5a.333.333 0 1 0 .487.455l4.667-5a.333.333 0 0 0-.166-.559zm7.499.103a.333.333 0 1 0-.487.455l4.667 5a.333.333 0 0 0 .487-.455l-4.667-5z"/></symbol><symbol viewBox="0 0 20 20" id="information" xmlns="http://www.w3.org/2000/svg"><g clip-path="url(#iclip0)"><path d="M12.24 4.195c-.387-.435-.99-.685-1.657-.685-1.189 0-2.252.812-2.37 1.81-.052.458.09.901.4 1.249.381.428.98.673 1.643.673 1.22 0 2.267-.796 2.384-1.81a1.567 1.567 0 0 0-.4-1.237zm-.554 1.126c-.06.52-.715.96-1.43.96-.384 0-.73-.13-.926-.35a.617.617 0 0 1-.163-.5c.06-.512.722-.961 1.416-.961.386 0 .738.136.94.363.089.1.19.265.163.488zm.099 9.112c-.12-.08-.4-.269-.174-1.577l.064-.298c.08-.373.23-1.068.393-1.842l.001-.006c.166-.837.035-1.57-.38-2.118-.375-.495-.968-.8-1.67-.855-1.039-.083-2.125.537-2.458 1.147a.594.594 0 0 0-.022.597.764.764 0 0 0 .253.262c.118.083.394.28.132 1.585-.025.119-.39 1.98-.44 2.244v.006c-.144.84-.002 1.576.436 2.107.704.855 1.775.814 1.817.814.999 0 1.997-.62 2.301-1.214a.594.594 0 0 0 .007-.597.763.763 0 0 0-.26-.255zm-.657-3.912a344.916 344.916 0 0 1-.461 2.16l-.001.006c-.244 1.4.003 2.014.352 2.357a1.882 1.882 0 0 1-.388.26c-.318.164-.67.249-.967.233-.433-.023-.776-.179-.993-.45-.253-.317-.336-.782-.24-1.345.052-.284.419-2.145.434-2.22v-.004c.281-1.394.05-2.014-.29-2.366.098-.082.231-.17.395-.25.322-.156.677-.231.973-.208.432.034.77.2.981.477.245.323.315.79.205 1.35z"/><path d="M17.954 15.428C19.275 13.842 20 11.883 20 9.883c0-2.453-1.046-4.755-2.945-6.485C15.168 1.68 12.663.734 10 .734c-2.663 0-5.168.946-7.055 2.664C1.045 5.128 0 7.43 0 9.883c0 2.452 1.046 4.755 2.945 6.484C4.832 18.085 7.337 19.03 10 19.03c1.665 0 3.306-.38 4.76-1.101l3.486 1.305a.48.48 0 0 0 .63-.581l-.922-3.226zm-3.055 1.529a.48.48 0 0 0-.39.024A9.767 9.767 0 0 1 10 18.07c-4.985 0-9.04-3.673-9.04-8.188 0-4.515 4.055-8.189 9.04-8.189 4.985 0 9.04 3.674 9.04 8.189 0 1.878-.684 3.646-1.979 5.11a.48.48 0 0 0-.102.45l.732 2.559-2.792-1.045z"/></g><defs><clipPath id="iclip0"><path d="M0 0h20v20H0z"/></clipPath></defs></symbol><symbol viewBox="0 0 20 17" id="like" xmlns="http://www.w3.org/2000/svg"><path d="M18.996 5.31c-.264-2.73-2.323-4.713-4.9-4.713-1.716 0-3.288.868-4.172 2.258A4.751 4.751 0 0 0 5.85.597C3.275.597 1.216 2.58.952 5.31c-.02.12-.106.756.154 1.791.375 1.493 1.242 2.852 2.506 3.928l6.308 5.374 6.415-5.374c1.264-1.076 2.131-2.434 2.506-3.928.26-1.035.175-1.67.155-1.79z"/></symbol><symbol viewBox="0 0 20 14" id="menu" xmlns="http://www.w3.org/2000/svg"><path d="M.755 2.094h18.49a.755.755 0 0 0 0-1.509H.755a.755.755 0 0 0 0 1.51zm0 5.661h18.49a.755.755 0 0 0 0-1.51H.755a.755.755 0 0 0 0 1.51zm0 5.66h18.49a.755.755 0 0 0 0-1.51H.755a.755.755 0 0 0 0 1.51z"/></symbol><symbol viewBox="0 0 21 21" id="placeholder" xmlns="http://www.w3.org/2000/svg"><path d="M10.485 0C6.242 0 2.79 3.453 2.79 7.696c0 1.95 1.228 4.704 3.651 8.187a54.953 54.953 0 0 0 3.586 4.6l.46.517.459-.518a55.019 55.019 0 0 0 3.586-4.599c2.422-3.483 3.65-6.237 3.65-8.187C18.182 3.453 14.73 0 10.486 0zm3.045 15.172a55.74 55.74 0 0 1-3.045 3.96 55.729 55.729 0 0 1-3.037-3.95c-2.245-3.227-3.431-5.816-3.431-7.486a6.476 6.476 0 0 1 6.468-6.468 6.476 6.476 0 0 1 6.469 6.468c0 1.669-1.184 4.254-3.425 7.476z"/><path d="M10.484 2.844A4.547 4.547 0 0 0 5.94 7.387a4.548 4.548 0 0 0 4.543 4.542 4.548 4.548 0 0 0 4.542-4.542 4.547 4.547 0 0 0-4.542-4.543zm0 7.857a3.318 3.318 0 0 1-3.315-3.314 3.318 3.318 0 0 1 3.315-3.315 3.318 3.318 0 0 1 3.315 3.315 3.318 3.318 0 0 1-3.315 3.314z"/></symbol><symbol viewBox="0 0 18 18" id="search" xmlns="http://www.w3.org/2000/svg"><path d="M13.04 10.555a.351.351 0 0 0-.248-.104c-.004.001-.139-.006-.249.104l-.248.248-.808-.808a6.324 6.324 0 0 0-.684-8.14 6.324 6.324 0 0 0-8.948 0 6.324 6.324 0 0 0 0 8.948 6.324 6.324 0 0 0 8.14.684l.808.808-.248.248a.352.352 0 0 0 0 .497l4.444 4.444a1.756 1.756 0 0 0 2.486 0 1.756 1.756 0 0 0 0-2.485l-4.445-4.444zm-1.74 1.242l-.753-.752a6.289 6.289 0 0 0 .498-.498l.752.753-.497.497zm-8.948-1.491a5.621 5.621 0 0 1 0-7.954 5.621 5.621 0 0 1 7.954 0 5.62 5.62 0 0 1 0 7.954c-2.23 2.23-5.786 2.168-7.954 0zm10.44.994l.994.994-1.492 1.492-.994-.994 1.492-1.492zm4.195 5.687a1.053 1.053 0 0 1-1.49 0l-2.705-2.704 1.49-1.491 2.706 2.704a1.053 1.053 0 0 1 0 1.491z"/></symbol><symbol viewBox="0 0 576 512" id="star" xmlns="http://www.w3.org/2000/svg"><path d="M259.3 17.8L194 150.2 47.9 171.5c-26.2 3.8-36.7 36.1-17.7 54.6l105.7 103-25 145.5c-4.5 26.3 23.2 46 46.4 33.7L288 439.6l130.7 68.7c23.2 12.2 50.9-7.4 46.4-33.7l-25-145.5 105.7-103c19-18.5 8.5-50.8-17.7-54.6L382 150.2 316.7 17.8c-11.7-23.6-45.6-23.9-57.4 0z"/></symbol><symbol viewBox="0 0 576 512" id="star-def" xmlns="http://www.w3.org/2000/svg"><path d="M528.1 171.5L382 150.2 316.7 17.8c-11.7-23.6-45.6-23.9-57.4 0L194 150.2 47.9 171.5c-26.2 3.8-36.7 36.1-17.7 54.6l105.7 103-25 145.5c-4.5 26.3 23.2 46 46.4 33.7L288 439.6l130.7 68.7c23.2 12.2 50.9-7.4 46.4-33.7l-25-145.5 105.7-103c19-18.5 8.5-50.8-17.7-54.6zM405.8 317.9l27.8 162L288 403.5 142.5 480l27.8-162L52.5 203.1l162.7-23.6L288 32l72.8 147.5 162.7 23.6-117.7 114.8z"/></symbol><symbol viewBox="0 0 27 27" id="tel" xmlns="http://www.w3.org/2000/svg"><path d="M21.699 27c-1.123 0-2.48-.282-3.971-.844-3.272-1.234-6.83-3.671-10.02-6.863-3.192-3.191-5.63-6.75-6.863-10.023C-.28 6.295-.281 3.854.835 2.737c.162-.162.327-.334.495-.511 1.02-1.072 2.2-2.29 3.7-2.223C6.082.046 7.101.7 8.147 1.999c3.084 3.837 1.694 5.205.085 6.79l-.285.282c-.264.263-.762 1.482 3.868 6.112 1.513 1.512 2.8 2.618 3.83 3.287.649.422 1.808 1.058 2.283.582l.286-.288c1.583-1.608 2.95-2.994 6.787.09 1.3 1.044 1.952 2.064 1.996 3.118.062 1.528-1.155 2.683-2.228 3.702-.176.168-.349.33-.508.49-.558.557-1.444.836-2.563.836zM4.921.907C3.837.907 2.856 1.94 1.99 2.851c-.175.183-.345.362-.511.528-.832.831-.747 3.018.216 5.571 1.19 3.154 3.553 6.6 6.655 9.702 3.102 3.102 6.546 5.465 9.7 6.655 2.552.964 4.739 1.047 5.57.215.167-.166.344-.335.526-.507.933-.888 1.99-1.892 1.945-3.007-.031-.766-.589-1.59-1.658-2.448-3.196-2.568-4.089-1.66-5.57-.16l-.291.294c-.706.709-1.857.554-3.42-.463-1.08-.703-2.42-1.85-3.977-3.407-3.842-3.842-5.072-6.193-3.868-7.397l.29-.287C9.1 6.658 10.008 5.763 7.44 2.566 6.581 1.5 5.757.942 4.992.91l-.07-.002zM22.225 11a.45.45 0 0 1-.172-.035.47.47 0 0 1-.252-.61 4.004 4.004 0 0 0-.846-4.267 3.81 3.81 0 0 0-4.308-.805.454.454 0 0 1-.606-.233.472.472 0 0 1 .228-.62 4.704 4.704 0 0 1 5.333.996 4.954 4.954 0 0 1 1.047 5.282.46.46 0 0 1-.424.292z"/><path d="M25.919 13a.441.441 0 0 1-.17-.034.462.462 0 0 1-.247-.6c1.228-3.106.53-6.643-1.783-9.013C21.346.919 17.695.237 14.635 1.654a.449.449 0 0 1-.595-.23.468.468 0 0 1 .225-.612C17.663-.76 21.718-.004 24.355 2.7c2.569 2.632 3.346 6.562 1.98 10.012a.45.45 0 0 1-.416.288z"/></symbol><symbol viewBox="0 0 15 28" id="toggle" xmlns="http://www.w3.org/2000/svg"><defs><path id="qa" d="M1203.69 3666.71c-.2.2-.43.29-.7.29a.99.99 0 0 1-.7-1.69l12.32-12.31-12.32-12.31a.99.99 0 1 1 1.4-1.4l13.02 13.01a.99.99 0 0 1 0 1.4z"/></defs><use xlink:href="#qa" transform="translate(-1202 -3639)"/></symbol><symbol viewBox="0 0 20 20" id="user" xmlns="http://www.w3.org/2000/svg"><g clip-path="url(#rclip0)"><path d="M13.467 11.734l-.05-.023a7.967 7.967 0 0 0-1.833-.584l-.043-.009a6.985 6.985 0 0 0-.32-.054l-.03-.005-.004-.001-.03-.004a7.467 7.467 0 0 0-.271-.037l-.315-.025a8.498 8.498 0 0 0-1.169.003l-.111.009-.052.004-.13.012a6.62 6.62 0 0 0-.358.048l-.035.005a10.718 10.718 0 0 0-.506.096 8.398 8.398 0 0 0-.88.248l-.083.03a8.7 8.7 0 0 0-.755.309l-.066.031-.001.002a8.34 8.34 0 0 0-4.73 7.49c0 .072.005.144.01.216l.021.505h16.551l.022-.499a3.34 3.34 0 0 0 .01-.223c0-3.232-1.9-6.19-4.842-7.544zm-10.96 7.455a7.52 7.52 0 0 1 4.298-6.684l.083-.033.01-.01c.201-.091.41-.175.62-.25l.067-.023a7.354 7.354 0 0 1 1.036-.274c.064-.012.128-.024.192-.034l.032-.006c.116-.018.232-.035.348-.047l.266-.023c.347-.026.68-.03 1.082 0l.258.021c.063.007.127.016.205.027l.093.013c.097.014.193.031.29.05l.046.008a6.281 6.281 0 0 1 .939.247 7.244 7.244 0 0 1 .727.287l.02.01a7.516 7.516 0 0 1 4.377 6.72H2.507zm5.49-9.24c.06.025.123.048.186.07l.132.048c.05.02.102.038.154.055.483.152.99.23 1.504.234l.04.001c.177 0 .354-.01.524-.027.058-.005.115-.015.172-.024l.127-.02c.072-.009.143-.02.218-.034.05-.01.1-.024.15-.037l.138-.036a3.29 3.29 0 0 0 .205-.054c.042-.013.084-.029.125-.044l.111-.04c.08-.028.16-.056.24-.09.032-.013.062-.028.092-.043l.036-.018c.11-.049.22-.099.329-.157l.07-.043c.122-.069.243-.14.366-.224a2.79 2.79 0 0 0 .185-.139l.207-.161A5.138 5.138 0 0 0 15.19 5.22l.003-.043A5.184 5.184 0 0 0 10.013 0a5.181 5.181 0 0 0-5.162 4.852l-.004.067a3.394 3.394 0 0 0-.012.26 5.168 5.168 0 0 0 3.162 4.77zM5.656 4.976l.005-.073A4.369 4.369 0 0 1 10.013.812c2.408 0 4.367 1.958 4.369 4.33l-.002.042a4.366 4.366 0 0 1-1.594 3.362l-.192.147a2.2 2.2 0 0 1-.14.107 4.436 4.436 0 0 1-.306.185l-.058.036c-.088.047-.18.088-.275.131l-.108.052c-.062.026-.127.048-.19.07l-.134.049a.906.906 0 0 1-.078.027c-.05.016-.101.028-.152.04l-.162.042c-.035.009-.07.019-.1.025-.054.01-.11.018-.164.026l-.154.023a1.497 1.497 0 0 1-.117.017 4.255 4.255 0 0 1-.409.023h-.038c-.445 0-.88-.067-1.298-.197-.036-.012-.071-.026-.107-.04l-.152-.055c-.048-.017-.095-.033-.14-.052A4.361 4.361 0 0 1 5.646 5.18c0-.069.005-.136.01-.203z"/></g><defs><clipPath id="rclip0"><path d="M0 0h20v20H0z"/></clipPath></defs></symbol></svg>