<svg width="22" height="19" viewBox="0 0 22 19" fill="none" xmlns="http://www.w3.org/2000/svg">
<path d="M9.73245 15.3883C8.71407 15.3883 7.88556 16.1984 7.88556 17.1941C7.88556 18.1899 8.71407 19 9.73245 19C10.7508 19 11.5793 18.1899 11.5793 17.1941C11.5793 16.1984 10.7508 15.3883 9.73245 15.3883ZM9.73245 17.9916C9.28268 17.9916 8.91677 17.6338 8.91677 17.1941C8.91677 16.7543 9.28272 16.3965 9.73245 16.3965C10.1822 16.3965 10.5481 16.7543 10.5481 17.1941C10.5481 17.6339 10.1822 17.9916 9.73245 17.9916Z" fill="white"/>
<path d="M16.2107 15.3883C15.1923 15.3883 14.3638 16.1984 14.3638 17.1941C14.3638 18.1899 15.1923 19 16.2107 19C17.2291 19 18.0576 18.1899 18.0576 17.1941C18.0576 16.1984 17.2291 15.3883 16.2107 15.3883ZM16.2107 17.9916C15.7609 17.9916 15.395 17.6338 15.395 17.1941C15.395 16.7543 15.761 16.3965 16.2107 16.3965C16.6605 16.3965 17.0264 16.7543 17.0264 17.1941C17.0264 17.6339 16.6605 17.9916 16.2107 17.9916Z" fill="white"/>
<path d="M21.6949 3.6346C21.4983 3.39863 21.2069 3.26332 20.8956 3.26332H4.83491L4.51056 1.72378C4.44284 1.40263 4.21881 1.13297 3.91116 1.00235L1.64803 0.0418691C1.38676 -0.0690978 1.08313 0.0481252 0.9698 0.303505C0.85635 0.558966 0.976239 0.855894 1.23739 0.9667L3.50055 1.92722L5.99537 13.7683C6.09364 14.2346 6.5184 14.5731 7.00538 14.5731H19.3579C19.6427 14.5731 19.8735 14.3474 19.8735 14.0689C19.8735 13.7905 19.6427 13.5648 19.3579 13.5648H7.00542L6.70194 12.1244H19.4534C19.9403 12.1244 20.3651 11.786 20.4634 11.3196L21.9056 4.47493C21.9684 4.17688 21.8916 3.87053 21.6949 3.6346ZM19.4534 11.1162H6.48952L5.04737 4.27156L20.8955 4.2716L19.4534 11.1162Z" fill="white"/>
</svg>
