<svg width="35" height="30" viewBox="0 0 35 30" fill="none" xmlns="http://www.w3.org/2000/svg">
<path d="M24.7805 1.33645C24.5287 0.373802 23.5607 -0.19719 22.6203 0.0628055L10 3.55473L11.178 14L12.6759 13.8065H20.7607L27 9.84285L24.7805 1.33645Z" fill="#FEDD60"/>
<path d="M29 19.268L21.4681 22.947L14.9807 23L11.0289 14.1611L11 13.9142L12.466 13.732L26.4856 10L29 19.268Z" fill="#FECC2E"/>
<path d="M14.5275 27C14.24 27 13.9551 26.9235 13.7015 26.775C13.3207 26.5516 13.0431 26.183 12.9298 25.7504L7.33046 4.39459C7.2364 4.03574 7.01006 3.73648 6.69341 3.55202C6.37675 3.36756 6.00879 3.32049 5.65713 3.41979L3.09582 4.14239C2.21533 4.39051 1.30437 3.86571 1.0604 2.96953C0.816693 2.07336 1.33243 1.14562 2.21239 0.897503L4.77396 0.174632C5.9826 -0.166262 7.24762 -0.00465675 8.33628 0.629521C9.42467 1.2637 10.2023 2.29264 10.5259 3.52644L15.6971 23.2499L29.8222 19.3594C30.4124 19.1962 30.9298 18.8223 31.2766 18.3068L31.9824 17.2591C32.4989 16.4924 33.5282 16.2968 34.2815 16.8227C35.0346 17.3486 35.2264 18.3966 34.7102 19.1635L34.0044 20.2112C33.214 21.3846 32.0361 22.2365 30.6874 22.6095L14.9593 26.9415C14.8172 26.9807 14.6721 27 14.5275 27Z" fill="#4F648F"/>
<path d="M18 25C18 27.2093 16.209 29 14 29C11.7907 29 10 27.2093 10 25C10 22.791 11.7907 21 14 21C16.209 21 18 22.791 18 25Z" fill="#41476B"/>
<path d="M16 24.9998C16 26.1044 15.1047 27 14.0002 27C12.8956 27 12 26.1044 12 24.9998C12 23.8953 12.8956 23 14.0002 23C15.1047 23 16 23.8953 16 24.9998Z" fill="#4F648F"/>
<path d="M22.1621 5.56011C22.2081 5.82285 22.3824 6 22.575 6C22.6073 6 22.64 5.99495 22.6728 5.98454C22.901 5.91232 23.0423 5.60499 22.9886 5.29825L22.838 4.43986C22.7842 4.13312 22.5555 3.9429 22.3273 4.01542C22.0991 4.08765 21.9575 4.39498 22.0115 4.70172L22.1621 5.56011Z" fill="black"/>
<path d="M17.2055 6.60279C17.5166 6.86369 17.8909 7 18.2752 7C18.4224 7 18.5709 6.98018 18.7179 6.93935C19.2489 6.79254 19.6954 6.39413 19.9428 5.84621C20.0698 5.56489 19.9784 5.21602 19.7382 5.0671C19.4983 4.91819 19.2008 5.02537 19.0738 5.30699C18.9591 5.56099 18.7473 5.74683 18.4923 5.81738C18.2373 5.88764 17.9769 5.8324 17.7775 5.66517C17.5568 5.47992 17.2498 5.53967 17.0918 5.79847C16.9339 6.05757 16.9848 6.41755 17.2055 6.60279Z" fill="black"/>
<path d="M14 23C12.8973 23 12 23.8974 12 25.0001C12 26.1029 12.8973 27 14 27C15.1027 27 16 26.1029 16 25.0001C16 23.8974 15.1027 23 14 23ZM14 26.0557C13.418 26.0557 12.9448 25.5821 12.9448 25.0001C12.9448 24.4181 13.418 23.9448 14 23.9448C14.582 23.9448 15.0552 24.4181 15.0552 25.0001C15.0552 25.5821 14.582 26.0557 14 26.0557Z" fill="black"/>
<path d="M23.2902 16.2638L23.8225 16.1631C23.9463 16.1398 24.0724 16.1934 24.1049 16.2827L25.0403 18.8748C25.0724 18.9642 25.1989 19.018 25.3223 18.9945L26.8272 18.7099C26.9507 18.6866 27.0246 18.5951 26.9925 18.5057L26.0571 15.9136C26.0246 15.8242 26.0989 15.7327 26.2223 15.7094L26.755 15.6087C26.9413 15.5733 26.9898 15.3982 26.8369 15.3137L24.5247 14.0346C24.405 13.9682 24.2313 14.0012 24.1718 14.1012L23.0195 16.0357C22.9429 16.1638 23.1038 16.2992 23.2902 16.2638Z" fill="black"/>
<path d="M2.74371 5.06843C2.74371 5.06843 5.29972 4.36001 5.30319 4.35921C5.74993 4.23531 6.2239 4.50795 6.343 4.95441L10.8796 21.9487C9.96204 22.7975 9.38633 24.0106 9.38633 25.3562C9.38633 27.9169 11.4694 30 14.0302 30C16.2412 30 18.0952 28.4462 18.5604 26.3735L26.1387 24.3236C26.4118 24.2496 26.5734 23.9682 26.4994 23.6947C26.4254 23.4216 26.1443 23.2598 25.8708 23.3337L18.6736 25.2809C18.6693 25.0307 18.6458 24.7791 18.5996 24.5332C18.5083 24.0245 18.3302 23.5313 18.0773 23.0809L29.4482 20.0045C30.1561 19.8122 30.7748 19.3724 31.1903 18.7665L31.8953 17.7382C32.251 17.2199 32.9618 17.0875 33.4801 17.4429C33.9984 17.7983 34.1308 18.5091 33.7754 19.0274L33.0702 20.0557C32.3492 21.1073 31.2744 21.8704 30.0448 22.2045L27.7563 22.8237C27.4829 22.8977 27.3213 23.1791 27.3953 23.4523C27.4693 23.7257 27.7504 23.8873 28.0239 23.8133L30.3129 23.1941C31.7778 22.7962 33.0574 21.8875 33.9159 20.6354L34.6211 19.6071C35.2964 18.6226 35.0446 17.2723 34.0601 16.5972C33.0755 15.9219 31.7249 16.1737 31.0496 17.1582L30.3446 18.1866C30.1657 18.4474 29.9302 18.6621 29.6592 18.8162C29.6592 18.8162 25.0922 1.70739 25.09 1.69991C24.7736 0.514056 23.5178 -0.209848 22.3324 0.110581L10.3698 3.34665C9.94816 2.22115 9.15535 1.28656 8.09818 0.68148C6.90616 -0.000500802 5.46955 -0.180476 4.14668 0.186149L1.58721 0.895367C0.43685 1.21419 -0.239802 2.40966 0.0787638 3.56001C0.390654 4.68578 1.61792 5.38005 2.74371 5.06843ZM17.6413 25.518C17.5377 27.3711 15.947 28.9746 14.0302 28.9746C12.035 28.9746 10.4117 27.3514 10.4117 25.3562C10.4117 23.5991 11.7405 22.0477 13.4769 21.7799C13.4796 21.7796 13.4823 21.7791 13.485 21.7788C15.6612 21.4605 17.7649 23.3027 17.6413 25.518ZM22.6003 1.10044C23.2454 0.926075 23.9274 1.32074 24.0996 1.96453L26.1549 9.6658L16.7996 12.1969C16.5261 12.2709 16.3646 12.5523 16.4386 12.8255C16.5125 13.0989 16.7937 13.2605 17.0672 13.1865L26.4196 10.6565L28.6866 19.1481L17.4298 22.1933C16.8247 21.5423 16.0522 21.0819 15.1979 20.8611C15.1528 20.8493 15.1077 20.8378 15.0626 20.8274L13.2951 14.2071L15.0866 13.7224C15.36 13.6485 15.5216 13.367 15.4476 13.0936C15.3758 12.8282 15.0901 12.6591 14.8188 12.7326L13.0307 13.2164L10.6585 4.33091C10.6585 4.33091 22.5784 1.10658 22.6003 1.10044ZM1.06704 3.28631C0.899077 2.68069 1.25529 2.05132 1.86092 1.88363L4.42039 1.17414C5.48343 0.879613 6.63112 1.02354 7.58869 1.57147C8.55667 2.12555 9.24827 3.02436 9.53613 4.1018L13.9704 20.7126C13.9061 20.7134 13.842 20.7161 13.7776 20.7196C13.0641 20.7572 12.3827 20.9543 11.7677 21.2998C11.7677 21.2998 7.33741 4.70394 7.33367 4.68979C7.06985 3.701 6.01776 3.09699 5.02921 3.37095L2.47001 4.08017C1.87213 4.24573 1.23286 3.88498 1.06704 3.28631Z" fill="black"/>
</svg>
