<svg width="45" height="28" viewBox="0 0 45 28" fill="none" xmlns="http://www.w3.org/2000/svg">
<path d="M21.8652 24H33V2.74242C33 1.78001 32.4343 1 31.7363 1H11.2637C10.5657 1 10 1.78001 10 2.74242V24H12.4641" fill="#FFC66C"/>
<path d="M44 14.1108C44 10.7358 41.5505 8 38.5287 8H37V24H44V14.1108Z" fill="#4DBAF6"/>
<path d="M40.7232 14.6486V8.62512C39.9211 8.22449 39.0216 8 38.0709 8H38V14.6486C38 15.9471 39.0194 17 40.2768 17H43C41.7426 17 40.7232 15.9471 40.7232 14.6486Z" fill="white"/>
<path d="M41 9V14.7538C41 15.9943 41.8866 17 42.9802 17H44V14.4225C44 12.0357 42.7754 9.97354 41 9Z" fill="#C9F3FF"/>
<path d="M7.40777 24C7.40777 22.8057 8.05825 21.7744 9 21.2917C8.63532 21.1048 8.22725 21 7.79612 21C6.25182 21 5 22.3431 5 24C5 25.6569 6.25182 27 7.79612 27C8.22725 27 8.63532 26.8952 9 26.7083C8.05825 26.2256 7.40777 25.1943 7.40777 24Z" fill="white"/>
<path d="M11 24C11 22.677 10.1825 21.5347 9 21C7.81707 21.5347 7 22.677 7 24C7 25.323 7.81707 26.4653 9 27C10.1829 26.4653 11 25.323 11 24Z" fill="#898998"/>
<path d="M14.0097 24C14.0097 22.8057 14.8228 21.7744 16 21.2917C15.5441 21.1048 15.0341 21 14.4951 21C12.5648 21 11 22.3431 11 24C11 25.6569 12.5648 27 14.4951 27C15.0341 27 15.5441 26.8952 16 26.7083C14.8228 26.2256 14.0097 25.1943 14.0097 24Z" fill="white"/>
<path d="M17 24C17 22.677 16.3869 21.5347 15.5 21C14.6128 21.5347 14 22.677 14 24C14 25.323 14.6128 26.4653 15.5 27C16.3872 26.4653 17 25.323 17 24Z" fill="#898998"/>
<path d="M37.4078 24C37.4078 22.8057 38.0586 21.7744 39 21.2917C38.6353 21.1048 38.2272 21 37.7961 21C36.2518 21 35 22.3431 35 24C35 25.6569 36.2518 27 37.7961 27C38.2272 27 38.6353 26.8952 39 26.7083C38.0586 26.2256 37.4078 25.1943 37.4078 24Z" fill="white"/>
<path d="M41 24C41 22.677 40.1825 21.5347 39 21C37.8175 21.5347 37 22.677 37 24C37 25.323 37.8175 26.4653 39 27C40.1825 26.4653 41 25.323 41 24Z" fill="#898998"/>
<path d="M38.2132 7.7H33.75V2.625C33.75 1.17749 32.5673 0 31.1133 0H2.63672C1.18275 0 0 1.17749 0 2.625V23.975C0 24.4583 0.393448 24.85 0.878906 24.85H3.94512C4.3475 26.6499 5.96317 28 7.89059 28C9.17084 28 10.3134 27.4036 11.0546 26.4763C11.7959 27.4036 12.9385 28 14.2187 28C16.1461 28 17.7618 26.6499 18.1642 24.85H33.8472C34.2499 26.6499 35.8656 28 37.793 28C39.7204 28 41.3361 26.6499 41.7384 24.85H44.1211C44.6066 24.85 45 24.4583 45 23.975V14.4566C45 10.7311 41.9554 7.7 38.2132 7.7ZM43.2422 14.4566V16.1H40.349C39.6181 16.1 39.0234 15.508 39.0234 14.7803V9.51597C41.4123 9.90288 43.2422 11.9704 43.2422 14.4566ZM1.75781 2.625C1.75781 2.14238 2.15195 1.75 2.63672 1.75H31.1133C31.5981 1.75 31.9922 2.14238 31.9922 2.625V23.1H18.1645C17.7618 21.3001 16.1461 19.95 14.2187 19.95C12.9385 19.95 11.7959 20.5464 11.0546 21.4737C10.3134 20.5464 9.17084 19.95 7.89059 19.95C5.96317 19.95 4.3475 21.3001 3.94512 23.1H1.75781V2.625ZM7.89059 26.25C6.63059 26.25 5.60543 25.2294 5.60543 23.975C5.60543 22.7206 6.63059 21.7 7.89059 21.7C9.15058 21.7 10.1757 22.7206 10.1757 23.975C10.1757 25.2294 9.15058 26.25 7.89059 26.25ZM14.2187 26.25C12.9587 26.25 11.9336 25.2294 11.9336 23.975C11.9336 22.7206 12.9587 21.7 14.2187 21.7C15.4787 21.7 16.5039 22.7206 16.5039 23.975C16.5039 25.2294 15.4787 26.25 14.2187 26.25ZM37.793 26.25C36.533 26.25 35.5078 25.2294 35.5078 23.975C35.5078 22.7206 36.533 21.7 37.793 21.7C39.053 21.7 40.0781 22.7206 40.0781 23.975C40.0781 25.2294 39.053 26.25 37.793 26.25ZM41.7384 23.1C41.3361 21.3001 39.7204 19.95 37.793 19.95C35.8656 19.95 34.2499 21.3001 33.8475 23.1H33.75V9.45H37.2656V14.7803C37.2656 16.4729 38.6489 17.85 40.349 17.85H43.2422V23.1H41.7384Z" fill="black"/>
<path d="M5.5 17C5.77617 17 6 16.6146 6 16.1398V9.86022C6 9.38508 5.77617 9 5.5 9C5.22383 9 5 9.38508 5 9.86022V16.1398C5 16.6146 5.22383 17 5.5 17Z" fill="black"/>
<path d="M5.5 8C5.63145 8 5.76055 7.89297 5.85352 7.70703C5.94648 7.52109 6 7.26289 6 7C6 6.73711 5.94648 6.47891 5.85352 6.29297C5.76055 6.10703 5.63145 6 5.5 6C5.36855 6 5.23945 6.10703 5.14648 6.29297C5.05352 6.47891 5 6.73711 5 7C5 7.26289 5.05352 7.52109 5.14648 7.70703C5.23945 7.89297 5.36855 8 5.5 8Z" fill="black"/>
<path d="M10 17C10.5523 17 11 16.6078 11 16.1247V6.87532C11 6.39184 10.5523 6 10 6C9.44766 6 9 6.39184 9 6.87532V16.1247C9 16.6078 9.44766 17 10 17Z" fill="black"/>
<path d="M14.5 17C14.7762 17 15 16.6078 15 16.1247V6.87532C15 6.39184 14.7762 6 14.5 6C14.2238 6 14 6.39184 14 6.87532V16.1247C14 16.6078 14.2238 17 14.5 17Z" fill="black"/>
<path d="M19 17C19.5523 17 20 16.6078 20 16.1247V6.87532C20 6.39184 19.5523 6 19 6C18.4477 6 18 6.39184 18 6.87532V16.1247C18 16.6078 18.4477 17 19 17Z" fill="black"/>
<path d="M24 17C24.5523 17 25 16.6078 25 16.1247V6.87532C25 6.39184 24.5523 6 24 6C23.4477 6 23 6.39184 23 6.87532V16.1247C23 16.6078 23.4477 17 24 17Z" fill="black"/>
<path d="M28 17C28.5523 17 29 16.6078 29 16.1247V6.87532C29 6.39184 28.5523 6 28 6C27.4477 6 27 6.39184 27 6.87532V16.1247C27 16.6078 27.4477 17 28 17Z" fill="black"/>
</svg>
