<svg width="52" height="58" viewBox="0 0 52 58" fill="none" xmlns="http://www.w3.org/2000/svg">
<path d="M45.5697 29.7518H43.9185V31.4031H45.5697V29.7518Z" fill="#1C9B91"/>
<path d="M42.8177 29.7518H28.617V31.4031H42.8177V29.7518Z" fill="#1C9B91"/>
<path d="M48.3218 29.7518H46.6706V31.4031H48.3218V29.7518Z" fill="#1C9B91"/>
<path d="M29.9303 6.07318H28.2791V7.72442H29.9303V6.07318Z" fill="#1C9B91"/>
<path d="M29.9303 3.32111H28.2791V4.97234H29.9303V3.32111Z" fill="#1C9B91"/>
<path d="M29.9303 8.82513H28.2791V15.7603H29.9303V8.82513Z" fill="#1C9B91"/>
<path d="M41.9073 21.5264H40.2561V23.1777H41.9073V21.5264Z" fill="#1C9B91"/>
<path d="M44.6593 21.5264H43.0081V23.1777H44.6593V21.5264Z" fill="#1C9B91"/>
<path d="M39.1552 21.5264H37.504V23.1777H39.1552V21.5264Z" fill="#1C9B91"/>
<path d="M44.6593 23.9857H43.0081V25.637H44.6593V23.9857Z" fill="#1C9B91"/>
<path d="M39.1552 23.9857H37.504V25.637H39.1552V23.9857Z" fill="#1C9B91"/>
<path d="M41.9073 23.9857H40.2561V25.637H41.9073V23.9857Z" fill="#1C9B91"/>
<path d="M48.542 26.8831L47.0723 19.2622C46.6893 17.274 46.0354 15.3564 45.1283 13.5587C44.2443 11.8095 43.127 10.1848 41.805 8.72937C39.3021 5.97412 36.1381 3.90644 32.6252 2.72129L32.6251 0.824352L18.6766 0.818848V2.72129C15.2676 3.87231 12.1779 5.85985 9.71158 8.49809C8.40699 9.89173 7.29197 11.4505 6.3959 13.1315C5.47891 14.8542 4.7953 16.6971 4.36598 18.6092L4.36488 18.6148L5.97098 18.9757L5.97648 18.9769L5.9777 18.9713C7.16306 13.6844 10.3684 9.197 14.8351 6.36887V18.6279H16.4864V5.42921C17.1919 5.07034 17.9221 4.74868 18.6767 4.47028V21.718L32.6252 21.7235V18.3473H32.6263L32.6255 4.47039C33.379 4.74846 34.1094 5.07243 34.8162 5.43493V18.6279H36.4674V6.38373C41.083 9.33526 44.3979 14.1071 45.4508 19.5747L46.8605 26.8834H11.9743V28.5346H47.8603V28.5311L49.6516 28.5343V32.6206L47.2342 32.6217V32.6256L45.5884 32.6252V32.6217H1.65124V28.5343H4.12369L5.66044 20.5665L5.66165 20.561L4.04454 20.2495H4.04013L2.76098 26.8831H0V34.2663L2.24766 34.2665L2.24348 39.4391H4.89548L4.90098 37.7933L3.89472 37.7878V34.2718L17.7894 34.2729C17.9138 36.2688 18.7857 38.127 20.2454 39.5041C21.7117 40.8879 23.6304 41.6507 25.6482 41.6507C27.6671 41.6507 29.586 40.8879 31.0522 39.5041C32.5119 38.127 33.3838 36.2688 33.5082 34.2729H47.4017V37.7879H40.6382L40.4544 38.3691C40.1759 39.2696 39.8093 40.1524 39.3646 40.9956L39.0807 41.5339L43.8681 46.3214L38.1944 51.9951L33.407 47.2076L32.8686 47.4916C32.0266 47.9352 31.1436 48.3029 30.2422 48.5825L29.6609 48.7619V55.5298H26.353L26.3473 57.1755L31.3118 57.181V49.9674C31.915 49.756 32.5139 49.5072 33.0919 49.2287L38.1942 54.3299L46.2027 46.3214L41.1004 41.2191C41.38 40.6412 41.6288 40.0423 41.8401 39.4391H49.0528V34.2687L51.3028 34.2718V26.8831H48.542ZM30.975 20.0722H20.3278V2.47008H30.975V20.0722ZM30.0493 38.1763C28.8725 39.3521 27.3092 39.9994 25.6482 39.9994C23.9872 39.9994 22.425 39.3521 21.2482 38.1763C20.1894 37.1176 19.561 35.7443 19.4461 34.2686L31.8509 34.2701C31.7349 35.7453 31.1067 37.118 30.0493 38.1763Z" fill="#1C9B91"/>
<path d="M26.7985 17.5976H21.6984V19.2488H26.7985V17.5976Z" fill="#1C9B91"/>
<path d="M11.8345 20.9492H7.10297V25.6807H11.8345V20.9492ZM10.1834 24.0296H8.75432V22.6005H10.1834V24.0296Z" fill="#1C9B91"/>
<path d="M13.2948 20.9492V25.6807H18.0262V20.9492H13.2948ZM16.3751 24.0296H14.9461V22.6005H16.3751V24.0296Z" fill="#1C9B91"/>
<path d="M16.5364 46.4013L13.1906 43.0555L9.84491 46.4013L13.1906 49.7471L16.5364 46.4013ZM13.1906 45.3907L14.2012 46.4013L13.1906 47.4119L12.1801 46.4013L13.1906 45.3907Z" fill="#1C9B91"/>
<path d="M32.4446 22.756H22.5878V24.4073H32.4446V22.756Z" fill="#1C9B91"/>
<path d="M10.8729 26.8831H9.22162V28.5343H10.8729V26.8831Z" fill="#1C9B91"/>
<path d="M8.1208 26.8831H6.46956V28.5343H8.1208V26.8831Z" fill="#1C9B91"/>
<path d="M33.317 41.1093C31.2077 43.2187 28.403 44.3804 25.4199 44.3804C24.9287 44.3804 24.433 44.3477 23.9467 44.2833L23.7299 45.9203C24.2878 45.9942 24.8564 46.0316 25.4199 46.0316C28.8441 46.0316 32.0635 44.6982 34.4848 42.277L33.317 41.1093Z" fill="#1C9B91"/>
<path d="M22.9378 44.1026C22.4388 43.9896 21.944 43.8407 21.4672 43.6605L20.8834 45.2051C21.4313 45.4122 21.9995 45.583 22.5725 45.7129L22.9378 44.1026Z" fill="#1C9B91"/>
<path d="M20.5267 43.255C20.0678 43.0314 19.6203 42.7735 19.1967 42.4886L18.2752 43.8588C18.7619 44.1861 19.2761 44.4823 19.8033 44.7393L20.5267 43.255Z" fill="#1C9B91"/>
<path d="M40.3076 47.352L36.8933 43.9377L35.7257 45.1053L39.14 48.5196L40.3076 47.352Z" fill="#1C9B91"/>
<path d="M21.6368 48.7664L21.0556 48.5825C20.154 48.3029 19.27 47.9364 18.429 47.4916L17.8907 47.2076L13.1032 51.9951L7.42958 46.3214L12.2171 41.534L11.9331 40.9957C11.4883 40.1546 11.1217 39.2707 10.8432 38.3691L10.6627 37.788H6.54672L6.54111 39.4392H9.45719C9.66855 40.0423 9.91734 40.6413 10.1958 41.2192L5.09463 46.3216L13.1031 54.3301L18.2043 49.2288C18.7834 49.5073 19.3822 49.7561 19.9856 49.9675V57.1757L24.707 57.1812V55.5299H21.6368V48.7664Z" fill="#1C9B91"/>
</svg>
