<svg width="13" height="12" viewBox="0 0 13 12" fill="none" xmlns="http://www.w3.org/2000/svg">
<path d="M12.6308 4.45245C12.6308 4.43367 12.6265 4.40532 12.6191 4.38898C12.5997 4.31939 12.5565 4.25583 12.4919 4.21145L10.6824 2.96922V1.63755C10.6824 1.46102 10.5375 1.31785 10.3587 1.31785H8.27703L6.50581 0.101705C6.3951 0.0256079 6.24813 0.0252909 6.13709 0.101071L4.35444 1.31785H2.28185C2.10305 1.31785 1.95813 1.46102 1.95813 1.63755V2.95354L0.139884 4.19463C0.0504384 4.25568 0.00204914 4.35329 0.000518456 4.45308C0.000419702 4.45496 0 4.45674 0 4.45869L0.00965316 11.389C0.0097766 11.4738 0.0439947 11.5551 0.104753 11.6149C0.165437 11.6747 0.247649 11.7083 0.333367 11.7083C0.33354 11.7083 0.333663 11.7083 0.333812 11.7083L12.3172 11.692C12.4959 11.6917 12.6407 11.5484 12.6404 11.3719L12.6308 4.45245ZM10.6824 3.74797L11.7168 4.45793L10.6824 5.16814V3.74797ZM6.3206 0.753227L7.14297 1.31783H5.49348L6.3206 0.753227ZM2.60556 1.95725H10.035V5.61268L7.54057 7.32535L6.52356 6.54624C6.52198 6.54502 6.52062 6.54426 6.51909 6.54317C6.40542 6.45895 6.24465 6.45585 6.12669 6.54624L5.1023 7.33098L2.60556 5.62683V1.95725ZM1.95813 3.73078V5.18494L0.892929 4.45789L1.95813 3.73078ZM0.648267 5.06849L4.56555 7.74214L0.656168 10.7369L0.648267 5.06849ZM1.28071 11.0676L6.32514 7.20337L11.3515 11.0539L1.28071 11.0676ZM8.07666 7.73602L11.9842 5.05308L11.9921 10.7356L8.07666 7.73602Z" fill="#52FFF2"/>
<path d="M8.51178 3.23608H4.12871C3.94996 3.23608 3.80499 3.37926 3.80499 3.55579C3.80499 3.73231 3.94996 3.87549 4.12871 3.87549H8.51178C8.69058 3.87549 8.8355 3.73231 8.8355 3.55579C8.8355 3.37926 8.69058 3.23608 8.51178 3.23608Z" fill="#52FFF2"/>
<path d="M8.51178 4.89844H4.12871C3.94996 4.89844 3.80499 5.04161 3.80499 5.21814C3.80499 5.39467 3.94996 5.53784 4.12871 5.53784H8.51178C8.69058 5.53784 8.8355 5.39467 8.8355 5.21814C8.8355 5.04161 8.69058 4.89844 8.51178 4.89844Z" fill="#52FFF2"/>
</svg>
