<svg width="13" height="14" viewBox="0 0 13 14" fill="none" xmlns="http://www.w3.org/2000/svg">
<path d="M9.99527 8.287C9.73612 8.0205 9.42352 7.87801 9.09223 7.87801C8.7636 7.87801 8.44834 8.01786 8.17849 8.28436L7.33422 9.11553C7.26476 9.07859 7.19529 9.04428 7.1285 9.00998C7.03232 8.96249 6.94148 8.91763 6.864 8.87013C6.07316 8.37407 5.35447 7.72761 4.66516 6.89117C4.33119 6.47427 4.10677 6.12333 3.94379 5.76711C4.16287 5.56922 4.36592 5.36341 4.56363 5.16551C4.63844 5.09163 4.71325 5.01511 4.78806 4.94123C5.34912 4.38712 5.34912 3.66941 4.78806 3.1153L4.05868 2.39496C3.97585 2.31316 3.89036 2.22872 3.8102 2.14429C3.6499 1.98069 3.48158 1.81182 3.30792 1.6535C3.04876 1.40019 2.73884 1.26562 2.41289 1.26562C2.08693 1.26562 1.77167 1.40019 1.50449 1.6535C1.50182 1.65614 1.50182 1.65614 1.49915 1.65878L0.590761 2.56383C0.248778 2.90157 0.0537416 3.3132 0.0109938 3.79079C-0.0531279 4.56126 0.176641 5.27897 0.352976 5.74864C0.785797 6.90172 1.43236 7.97036 2.39685 9.11553C3.56708 10.4955 4.97508 11.5853 6.58347 12.3531C7.19797 12.6407 8.01819 12.9811 8.9346 13.0392C8.9907 13.0418 9.04948 13.0444 9.10291 13.0444C9.72009 13.0444 10.2384 12.8254 10.6445 12.3901C10.6472 12.3848 10.6525 12.3821 10.6552 12.3769C10.7941 12.2106 10.9544 12.0602 11.1227 11.8993C11.2376 11.7911 11.3552 11.6776 11.4701 11.5589C11.7346 11.2871 11.8735 10.9705 11.8735 10.6459C11.8735 10.3187 11.7319 10.0047 11.4621 9.74088L9.99527 8.287ZM10.9518 11.0655C10.9491 11.0655 10.9491 11.0681 10.9518 11.0655C10.8476 11.1763 10.7407 11.2766 10.6258 11.3874C10.4521 11.551 10.2758 11.7225 10.1102 11.9151C9.84031 12.2001 9.52238 12.3346 9.10559 12.3346C9.06551 12.3346 9.02276 12.3346 8.98269 12.332C8.18918 12.2819 7.45178 11.9758 6.89873 11.7146C5.38653 10.9916 4.05868 9.96516 2.95525 8.66432C2.04419 7.57985 1.43503 6.57717 1.0316 5.50061C0.783126 4.8436 0.692287 4.3317 0.732363 3.84884C0.75908 3.54012 0.879308 3.28417 1.10106 3.06517L2.01212 2.1654C2.14304 2.04402 2.28197 1.97805 2.41823 1.97805C2.58655 1.97805 2.72281 2.07832 2.8083 2.16276C2.81097 2.1654 2.81365 2.16803 2.81632 2.17067C2.97929 2.32107 3.13425 2.47675 3.29723 2.64299C3.38005 2.72742 3.46555 2.81186 3.55105 2.89893L4.28043 3.61928C4.56363 3.89897 4.56363 4.15756 4.28043 4.43725C4.20295 4.51377 4.12814 4.59029 4.05066 4.66417C3.82623 4.89109 3.6125 5.10218 3.38005 5.30799C3.37471 5.31327 3.36937 5.31591 3.3667 5.32119C3.13693 5.54811 3.17967 5.76975 3.22777 5.92015C3.23044 5.92807 3.23311 5.93599 3.23578 5.9439C3.42547 6.39775 3.69265 6.8252 4.09875 7.33446L4.10142 7.3371C4.83882 8.23423 5.6163 8.93346 6.47393 9.4691C6.58347 9.53771 6.69568 9.59312 6.80255 9.64589C6.89873 9.69339 6.98957 9.73824 7.06705 9.78574C7.07774 9.79101 7.08842 9.79893 7.09911 9.80421C7.18995 9.84906 7.27545 9.87017 7.36361 9.87017C7.58537 9.87017 7.7243 9.73296 7.76972 9.68811L8.68345 8.7857C8.77429 8.69599 8.91856 8.5878 9.08688 8.5878C9.25253 8.5878 9.38879 8.69071 9.47161 8.78042C9.47429 8.78306 9.47429 8.78306 9.47696 8.7857L10.9491 10.2396C11.2243 10.5087 11.2243 10.7858 10.9518 11.0655Z" fill="#52FFF2"/>
<path d="M6.83192 3.51646C7.53192 3.63256 8.16779 3.95975 8.67542 4.46108C9.18305 4.96242 9.51168 5.59041 9.6319 6.28173C9.66129 6.45588 9.81358 6.57726 9.98725 6.57726C10.0086 6.57726 10.0273 6.57462 10.0487 6.57198C10.2464 6.54032 10.3773 6.35562 10.3453 6.16036C10.201 5.32391 9.80022 4.56135 9.1884 3.95711C8.57657 3.35286 7.80444 2.95707 6.9575 2.81458C6.75979 2.78292 6.57544 2.91221 6.5407 3.10483C6.50597 3.29745 6.63421 3.48479 6.83192 3.51646Z" fill="#52FFF2"/>
<path d="M12.635 6.05735C12.3972 4.67999 11.74 3.42665 10.73 2.42925C9.72012 1.43185 8.45104 0.782749 7.0564 0.547911C6.86136 0.513609 6.67701 0.64554 6.64228 0.83816C6.61022 1.03342 6.74113 1.21548 6.93884 1.24978C8.18387 1.45824 9.31936 2.04137 10.2224 2.93059C11.1255 3.82244 11.7132 4.94386 11.9243 6.17345C11.9537 6.3476 12.106 6.46898 12.2796 6.46898C12.301 6.46898 12.3197 6.46634 12.3411 6.4637C12.5361 6.43468 12.6697 6.24997 12.635 6.05735Z" fill="#52FFF2"/>
</svg>
