<svg width="87" height="64" viewBox="0 0 87 64" fill="none" xmlns="http://www.w3.org/2000/svg">
<path d="M45.5844 63.0444C45.5826 63.0444 45.5844 63.0444 45.5844 63.0444C35.6909 63.0444 24.9198 62.7281 13.5726 62.1092C6.86892 61.7371 1.66877 56.5063 0.92857 49.3864C-0.309523 37.4922 -0.309523 25.4848 0.92857 13.6972C1.66721 6.63644 6.86034 1.40562 13.5575 0.979326C33.1276 -0.267197 53.2641 -0.267197 73.4374 0.979326C80.2131 1.39536 85.2895 6.50276 86.0731 13.6903C87.3078 25.0703 87.3096 37.0761 86.0747 49.3814C85.3612 56.4963 80.2898 61.6103 73.4558 62.1061C64.8555 62.7281 55.478 63.0444 45.5844 63.0444ZM43.2702 3.42474C33.4084 3.42474 23.4813 3.7392 13.7648 4.35654C8.64676 4.68126 4.82355 8.57951 4.25052 14.0537C3.03738 25.6045 3.03738 37.3719 4.25052 49.0327C4.82355 54.5511 8.64182 58.4475 13.7515 58.7317C25.0386 59.3472 35.7494 59.662 45.5813 59.662C55.3964 59.662 64.6935 59.3491 73.2153 58.7336C78.3718 58.3581 82.2033 54.4632 82.7465 49.0395C83.9596 36.9711 83.9596 25.2038 82.748 14.0606C82.1516 8.56925 78.3268 4.66942 73.2338 4.35654C63.2162 3.73762 53.1336 3.42474 43.2702 3.42474ZM34.9889 19.5638V42.7753L57.012 31.2482L34.9889 19.5638Z" fill="#1C9B91"/>
</svg>
