<svg width="21" height="21" viewBox="0 0 21 21" fill="none" xmlns="http://www.w3.org/2000/svg">
<path fill-rule="evenodd" clip-rule="evenodd" d="M14 3.39711C16.9138 6.3109 16.9138 11.035 14 13.9488C11.0862 16.8626 6.36207 16.8626 3.44828 13.9488C0.534487 11.035 0.534487 6.3109 3.44828 3.39711C6.36206 0.483323 11.0862 0.483323 14 3.39711ZM14.5862 2.81091C17.8237 6.04842 17.8237 11.2975 14.5862 14.535C11.3487 17.7726 6.09959 17.7726 2.86207 14.535C-0.37545 11.2975 -0.37545 6.04842 2.86207 2.8109C6.09959 -0.426614 11.3487 -0.426614 14.5862 2.81091ZM19.8621 17.4661L16.3448 13.9488L14 16.2937L17.5172 19.8109C18.1648 20.4584 19.2146 20.4584 19.8621 19.8109C20.5096 19.1634 20.5096 18.1136 19.8621 17.4661Z" fill="black"/>
</svg>
