<svg width="176" height="170" viewBox="0 0 176 170" fill="none" xmlns="http://www.w3.org/2000/svg">
<path d="M162.366 56.8501C160.927 57.3197 160.141 58.8669 160.611 60.3054C163.204 68.2513 164.519 76.56 164.519 85.0005C164.519 106.241 156.248 126.21 141.229 141.229C126.209 156.249 106.24 164.52 84.9997 164.52C63.7592 164.52 43.7901 156.249 28.7706 141.229C13.7511 126.21 5.48018 106.241 5.48018 85.0002C5.48018 63.7596 13.7515 43.7905 28.7709 28.771C43.7904 13.7515 63.7595 5.48019 85 5.48019C96.2649 5.48019 107.15 7.78667 117.352 12.3363C127.21 16.7321 135.946 22.9911 143.318 30.9398C144.347 32.0492 146.08 32.115 147.19 31.0854C148.3 30.0565 148.365 28.323 147.336 27.2129C139.458 18.719 130.121 12.03 119.584 7.33113C108.674 2.46677 97.0389 0 85 0C62.2956 0 40.9503 8.84126 24.8961 24.8962C8.84159 40.9504 0 62.2957 0 85.0002C0 107.704 8.84159 129.05 24.8961 145.104C40.9503 161.158 62.2956 170 85 170C107.704 170 129.05 161.159 145.104 145.104C161.158 129.05 170 107.704 170 85.0002C170 75.9811 168.594 67.1005 165.821 58.6048C165.351 57.1663 163.804 56.3816 162.366 56.8501Z" fill="#1C9B91"/>
<path d="M173.589 25.4118C172.035 23.8565 169.967 23 167.766 23C165.566 23 163.498 23.8565 161.944 25.4108L159.489 27.8651C158.418 28.9357 158.418 30.6717 159.489 31.7424C160.56 32.8127 162.297 32.813 163.369 31.742L165.825 29.2867C166.343 28.7685 167.032 28.4833 167.766 28.4833C168.5 28.4833 169.189 28.7685 169.708 29.2881C170.227 29.807 170.513 30.4959 170.513 31.229C170.513 31.9621 170.227 32.6509 169.708 33.1698L75.1165 127.713C74.5987 128.231 73.9095 128.516 73.1757 128.516C72.4418 128.516 71.7526 128.231 71.2334 127.711L34.2914 90.7886C33.7722 90.2697 33.4862 89.5808 33.4862 88.8477C33.4862 88.1149 33.7722 87.4257 34.2924 86.9055C34.8102 86.3872 35.4994 86.1021 36.2333 86.1021C36.9671 86.1021 37.6563 86.3872 38.1755 86.9068L71.2358 119.95C71.7502 120.464 72.448 120.753 73.1757 120.753C73.9033 120.753 74.6011 120.464 75.1155 119.95L155.648 39.46C156.719 38.3889 156.719 36.6533 155.648 35.5823C154.576 34.512 152.84 34.512 151.768 35.5823L73.1757 114.133L42.0566 83.0302C40.5022 81.4749 38.4344 80.6184 36.234 80.6184C34.0335 80.6184 31.9654 81.4749 30.412 83.0292C28.8566 84.5838 28 86.6501 28 88.8477C28 91.0453 28.8566 93.1116 30.412 94.6666L67.3531 131.588C68.9071 133.144 70.9752 134 73.1757 134C75.3761 134 77.4442 133.144 78.9972 131.59L173.588 37.0482C175.143 35.4935 176 33.4272 176 31.2293C176 29.0314 175.143 26.965 173.589 25.4118Z" fill="#1C9B91"/>
</svg>
