<svg width="24" height="21" viewBox="0 0 24 21" fill="none" xmlns="http://www.w3.org/2000/svg">
<path d="M23.8558 10.834C23.5962 10.3693 22.9904 10.195 22.5 10.4855L19.2116 12.4025L18.3751 12.8963V17.4855L19.1539 17.9502C19.1828 17.9502 19.1828 17.9792 19.2116 17.9792L22.4423 19.8672C22.5866 19.9834 22.7885 20.0415 22.9904 20.0415C23.5385 20.0415 23.9712 19.6058 23.9712 19.0539V15.1618L24 11.3278C24 11.1535 23.9712 10.9792 23.8558 10.834Z" fill="#1C9B91"/>
<path d="M4.64447 9.3527C7.21174 9.3527 9.28864 7.26141 9.28864 4.67635C9.28864 2.09129 7.21174 0 4.64447 0C2.07719 0 0.000292874 2.09129 0.000292874 4.67635C-0.0285529 7.26141 2.07719 9.3527 4.64447 9.3527ZM4.64447 2.75934C5.71176 2.75934 6.54829 3.63071 6.54829 4.67635C6.54829 5.75104 5.68292 6.59336 4.64447 6.59336C3.60602 6.59336 2.74064 5.72199 2.74064 4.67635C2.7118 3.60166 3.57717 2.75934 4.64447 2.75934Z" fill="#1C9B91"/>
<path d="M16.4136 9.61412C15.6636 9.99171 14.827 10.2241 13.9328 10.2241C12.8367 10.2241 11.7982 9.90457 10.9329 9.32366H7.64443C6.77906 9.90457 5.74061 10.2241 4.64447 10.2241C3.75025 10.2241 2.91372 10.0208 2.16373 9.61412C1.50027 9.99171 1.03874 10.7469 1.03874 11.5602V18.6473C1.03874 19.9544 2.10604 21 3.37525 21H15.2309C16.5289 21 17.5674 19.9253 17.5674 18.6473V11.5602C17.5385 10.7469 17.077 9.99171 16.4136 9.61412Z" fill="#1C9B91"/>
<path d="M13.9328 9.3527C16.5001 9.3527 18.577 7.26141 18.577 4.67635C18.577 2.09129 16.5001 0 13.9328 0C11.3655 0 9.28864 2.09129 9.28864 4.67635C9.28864 7.26141 11.3655 9.3527 13.9328 9.3527ZM13.9328 2.75934C15.0001 2.75934 15.8366 3.63071 15.8366 4.67635C15.8366 5.75104 14.9713 6.59336 13.9328 6.59336C12.8944 6.59336 12.029 5.72199 12.029 4.67635C12.029 3.60166 12.8655 2.75934 13.9328 2.75934Z" fill="#1C9B91"/>
</svg>
