<svg width="13" height="13" viewBox="0 0 13 13" fill="none" xmlns="http://www.w3.org/2000/svg">
<path d="M6.31793 0.0444336C8.0626 0.0444336 9.64224 0.745083 10.7889 1.87302C11.931 3.00579 12.6405 4.56585 12.6405 6.28889C12.6405 8.01194 11.931 9.572 10.7889 10.7048C9.64193 11.8327 8.0626 12.5334 6.31793 12.5334C4.57326 12.5334 2.99393 11.8327 1.85184 10.7048C0.70485 9.572 0 8.01224 0 6.28889C0 4.56585 0.704544 3.00579 1.85153 1.87302C2.99393 0.745083 4.57326 0.0444336 6.31793 0.0444336ZM9.54027 5.94809C9.72981 5.94809 9.88045 6.10171 9.88045 6.28889C9.88045 6.47608 9.72981 6.62969 9.54027 6.62969H6.32773H6.31793C6.19147 6.62969 6.07971 6.55772 6.02154 6.45703L6.01664 6.45219L6.01174 6.44251V6.43767L6.00684 6.428L6.00194 6.41832V6.41348L5.99704 6.4038L5.99214 6.39897V6.38929L5.98724 6.37961V6.37477L5.98234 6.3651V6.35542V6.35058V6.34574L5.97745 6.34091V6.33123V6.32155V6.31309V6.30825V6.29857V6.28889V2.22349C5.97745 2.03631 6.12809 1.88753 6.31762 1.88753C6.50715 1.88753 6.6627 2.03631 6.6627 2.22349V5.94809H9.54027ZM10.303 2.35322C9.28246 1.34534 7.87307 0.726032 6.31793 0.726032C4.76279 0.726032 3.35339 1.34504 2.33286 2.35322C1.31723 3.3611 0.685254 4.75303 0.685254 6.28889C0.685254 7.82476 1.31692 9.21668 2.33286 10.2249C3.35339 11.2328 4.76279 11.8521 6.31793 11.8521C7.87307 11.8521 9.28246 11.2328 10.303 10.2249C11.3235 9.21699 11.9555 7.82506 11.9555 6.28889C11.9555 4.75303 11.3238 3.3611 10.303 2.35322Z" fill="#52FFF2"/>
</svg>
