<svg width="61" height="62" viewBox="0 0 61 62" fill="none" xmlns="http://www.w3.org/2000/svg">
<path d="M61 0.0444336H0V61.0444H61V0.0444336Z" fill="#DC472E"/>
<path d="M35.2375 39.0934C35.2361 38.8659 35.1692 38.629 35.0849 38.4161C34.9724 38.1364 34.7315 37.9972 34.429 37.9677C34.0743 37.9329 33.7905 38.0762 33.5335 38.3037C33.4305 38.3934 33.3836 38.5272 33.3836 38.5272L33.389 45.7512V45.9292C33.389 45.9292 33.4506 46.0122 33.4599 46.0229C33.6687 46.2491 33.9123 46.4285 34.2242 46.4927C34.7382 46.5984 35.1009 46.3843 35.2013 45.9078C35.2268 45.7886 35.2415 45.6655 35.2415 45.5437C35.2442 43.3927 35.2482 41.2431 35.2375 39.0934ZM35.2375 39.0934C35.2361 38.8659 35.1692 38.629 35.0849 38.4161C34.9724 38.1364 34.7315 37.9972 34.429 37.9677C34.0743 37.9329 33.7905 38.0762 33.5335 38.3037C33.4305 38.3934 33.3836 38.5272 33.3836 38.5272L33.389 45.7512V45.9292C33.389 45.9292 33.4506 46.0122 33.4599 46.0229C33.6687 46.2491 33.9123 46.4285 34.2242 46.4927C34.7382 46.5984 35.1009 46.3843 35.2013 45.9078C35.2268 45.7886 35.2415 45.6655 35.2415 45.5437C35.2442 43.3927 35.2482 41.2431 35.2375 39.0934ZM43.3261 28.1993C34.777 28.0159 26.2239 28.0159 17.6735 28.1993C14.7074 28.2622 12.3356 30.6876 12.3356 33.6551V47.008C12.3356 49.9768 14.7074 52.4022 17.6735 52.4651C26.2239 52.6485 34.777 52.6485 43.3261 52.4651C46.2935 52.4022 48.6654 49.9768 48.6654 47.008V33.6551C48.6654 30.6877 46.2935 28.2622 43.3261 28.1993ZM20.1846 48.2249H17.7191V34.287H15.1665V31.9553H22.7425V34.2816H20.1846V48.2249ZM29.008 42.4397V48.2261H26.8249V46.9036C26.746 46.988 26.7018 47.0335 26.6603 47.0803C26.1905 47.6104 25.6578 48.0521 24.9778 48.2863C24.6458 48.4001 24.3045 48.4389 23.9552 48.3787C23.4787 48.2997 23.1588 48.0253 22.966 47.5916C22.7866 47.1914 22.7411 46.7631 22.7398 46.3321C22.7344 44.7393 22.7371 36.3093 22.7371 36.2277H24.9149C24.9189 36.3013 24.9269 42.3527 24.9283 45.3041C24.9283 45.4647 24.9296 45.6294 24.9617 45.786C25.042 46.1822 25.3459 46.3522 25.7274 46.213C26.1664 46.0523 26.501 45.7498 26.7821 45.3871C26.8236 45.3349 26.8236 45.2412 26.8236 45.1662V36.2143L29.008 36.2089C29.008 36.2091 29.008 40.4346 29.008 42.4397ZM37.3135 47.0696C37.0217 47.9477 36.3792 48.3947 35.4556 48.3854C34.7047 48.3787 34.0957 48.0802 33.5938 47.5354C33.5376 47.4752 33.3823 47.3105 33.3823 47.3105V48.2234H31.1952V31.9538H33.3823C33.3823 33.6858 33.3823 37.3092 33.3823 37.3092C33.3823 37.3092 33.5054 37.0629 33.6179 36.9358C33.9565 36.557 34.3688 36.2638 34.8774 36.1353C35.7166 35.9252 36.6844 36.1848 37.1448 37.166C37.4166 37.7455 37.4928 38.3639 37.4928 38.993C37.4969 41.2672 37.4969 43.5413 37.4942 45.8154C37.4928 46.2411 37.4487 46.6615 37.3135 47.0696ZM45.3914 46.612C45.0126 47.7216 44.2296 48.3373 43.0811 48.506C42.369 48.6104 41.6636 48.5956 40.9957 48.2931C40.0815 47.8809 39.5635 47.1353 39.3413 46.1863C39.2383 45.7446 39.1874 45.2815 39.182 44.8277C39.1646 43.0462 39.1727 41.2633 39.1767 39.4817C39.178 38.5501 39.4002 37.6908 40.0387 36.9774C40.7668 36.1622 41.6984 35.8584 42.7626 35.9266C43.0825 35.9467 43.4091 35.9989 43.7129 36.0993C44.7476 36.4393 45.3004 37.2143 45.5172 38.2423C45.6002 38.6385 45.631 39.0494 45.6377 39.455C45.6551 40.4053 45.631 42.5001 45.631 42.5001H41.4428V45.5023C41.4428 46.0418 41.8791 46.4781 42.4186 46.4781C42.9566 46.4781 43.393 46.0418 43.393 45.5023V43.959H45.643C45.643 43.9589 45.6765 45.7808 45.3914 46.612ZM43.393 38.953C43.393 38.4149 42.9566 37.9772 42.4186 37.9772C41.8791 37.9772 41.4428 38.4149 41.4428 38.953V40.6382H43.393V38.953ZM35.0849 38.4163C34.9724 38.1365 34.7315 37.9973 34.429 37.9679C34.0743 37.9331 33.7905 38.0763 33.5335 38.3038C33.4305 38.3935 33.3836 38.5274 33.3836 38.5274L33.389 45.7513V45.9293C33.389 45.9293 33.4506 46.0123 33.4599 46.023C33.6687 46.2492 33.9123 46.4286 34.2242 46.4928C34.7382 46.5986 35.1009 46.3844 35.2013 45.9079C35.2268 45.7888 35.2415 45.6656 35.2415 45.5438C35.2442 43.3928 35.2482 41.2432 35.2375 39.0936C35.2361 38.8659 35.1692 38.629 35.0849 38.4163Z" fill="white"/>
<path d="M40.6755 12.7588L40.6749 24.838H38.4366L38.4393 23.5403C38.1918 23.7841 37.9806 24.0118 37.7485 24.2163C37.337 24.5788 36.871 24.849 36.3258 24.9557C35.4888 25.1194 34.7759 24.8548 34.509 23.9879C34.4202 23.6992 34.3665 23.388 34.3642 23.0866V12.7588H36.5856V21.9705C36.5856 22.0926 36.5954 22.216 36.6168 22.3357C36.6842 22.7153 36.9648 22.894 37.3303 22.7672C37.7759 22.613 38.1159 22.3045 38.4044 21.941C38.4453 21.889 38.438 21.7921 38.438 21.716V12.7588H40.6755Z" fill="white"/>
<path d="M22.1628 14.8581C21.6769 12.8101 20.6589 8.48657 20.6589 8.48657H18.1119C18.1119 8.48657 20.0688 14.9766 20.9439 17.871C20.9754 17.9757 20.9898 18.0893 20.9898 18.1989L20.9889 24.8358H23.3376L23.3366 18.1989C23.3366 18.0893 23.3511 17.9757 23.3825 17.871C24.2577 14.9766 26.2146 8.48657 26.2146 8.48657H23.6675C23.6675 8.48657 22.6494 12.8101 22.1637 14.8581H22.1628Z" fill="white"/>
<path d="M29.2801 12.4568C27.5101 12.4568 26.0752 13.8917 26.0752 15.6617V21.9338C26.0752 23.7039 27.5101 25.1388 29.2801 25.1388C31.0502 25.1388 32.4851 23.7039 32.4851 21.9338V15.6617C32.4852 13.8917 31.0502 12.4568 29.2801 12.4568ZM30.2051 22.0605C30.2051 22.5704 29.7901 22.9852 29.2803 22.9852C28.7704 22.9852 28.3555 22.5704 28.3555 22.0605V15.535C28.3555 15.025 28.7704 14.6102 29.2803 14.6102C29.7901 14.6102 30.2051 15.0251 30.2051 15.535V22.0605Z" fill="white"/>
</svg>
