<svg xmlns="http://www.w3.org/2000/svg" width="22" height="22" viewBox="0 0 512 474.51"><defs><style>.cls-1{fill:#fff;}</style></defs><title>download</title><g id="Слой_2" data-name="Слой 2"><g id="Capa_1" data-name="Capa 1"><path class="cls-1" d="M497.33,231.33A14.61,14.61,0,0,0,482.66,246V379.44a65.83,65.83,0,0,1-65.74,65.74H95.08a65.83,65.83,0,0,1-65.74-65.74V243.83a14.67,14.67,0,1,0-29.34,0V379.44a95.18,95.18,0,0,0,95.08,95.08H416.92A95.18,95.18,0,0,0,512,379.44V246A14.68,14.68,0,0,0,497.33,231.33Z"/><path class="cls-1" d="M245.68,358A14.76,14.76,0,0,0,256,362.38,14.31,14.31,0,0,0,266.32,358l93.23-93.23A14.68,14.68,0,0,0,338.8,244l-68.13,68.24V14.67a14.67,14.67,0,0,0-29.34,0V312.29L173.09,244a14.68,14.68,0,1,0-20.75,20.75Z"/></g></g></svg>