<svg xmlns="http://www.w3.org/2000/svg" xmlns:xlink="http://www.w3.org/1999/xlink"  width="262" height="30" viewBox="0 0 225 24"><defs><style>.a{isolation:isolate;}.b{fill:url(#a);}.c{fill:url(#b);}.d{mix-blend-mode:lighten;}.e{fill:url(#c);}.f{opacity:0.15;}.g{fill:url(#d);}</style><linearGradient id="a" x1="128.45373" y1="24" x2="128.45373" gradientUnits="userSpaceOnUse"><stop offset="0" stop-color="#404040"/><stop offset="0.17591" stop-color="#3a3a3a"/><stop offset="0.40558" stop-color="#2a2a2a"/><stop offset="0.5" stop-color="#212121"/><stop offset="0.67" stop-color="#404040"/><stop offset="0.67447" stop-color="#3f3f3f"/><stop offset="0.76857" stop-color="#2e2e2e"/><stop offset="0.87155" stop-color="#242424"/><stop offset="1" stop-color="#212121"/></linearGradient><radialGradient id="b" cx="11.96693" cy="11.75239" r="11.64246" gradientUnits="userSpaceOnUse"><stop offset="0"/><stop offset="0.29798" stop-color="#030303"/><stop offset="0.5373" stop-color="#0d0d0d"/><stop offset="0.75622" stop-color="#1e1e1e"/><stop offset="0.96186" stop-color="#363636"/><stop offset="1" stop-color="#3b3b3b"/></radialGradient><linearGradient id="c" x1="22.2375" y1="22.23751" x2="1.7625" y2="1.76251" gradientUnits="userSpaceOnUse"><stop offset="0" stop-color="#262626"/><stop offset="0.22405" stop-color="#2c2c2c"/><stop offset="0.5" stop-color="#3b3b3b"/><stop offset="1"/></linearGradient><linearGradient id="d" x1="12" y1="24" x2="12" gradientUnits="userSpaceOnUse"><stop offset="0" stop-color="#262626"/><stop offset="1" stop-color="#262626"/></linearGradient></defs><title>Монтажная область 1 копия 2</title><g class="a"><path class="b" d="M31.90746,10.2166q0-.50947.01273-1.05737a6.76433,6.76433,0,0,1,.10186-1.04452,4.8165,4.8165,0,0,1,.2675-.94278,2.12346,2.12346,0,0,1,.53511-.777,2.23582,2.23582,0,0,1,.80249-.50953,4.72938,4.72938,0,0,1,1.00632-.25476,9.35172,9.35172,0,0,1,1.1083-.08925q.57331-.01255,1.1083-.01273h5.24841v4.96818H39.44875V7.71977H36.34054a2.15217,2.15217,0,0,0-1.03191.20456,1.30775,1.30775,0,0,0-.54772.54942,2.13876,2.13876,0,0,0-.21657.81764q-.0382.47291-.0382,1.03506v3.19418q0,.56258.0382,1.03506a2.14187,2.14187,0,0,0,.21657.81813,1.30817,1.30817,0,0,0,.54772.5493,2.15254,2.15254,0,0,0,1.03191.2042h5.75794v2.19113H36.85006q-.53493,0-1.1083-.01273a9.27592,9.27592,0,0,1-1.1083-.08912,4.715,4.715,0,0,1-1.00632-.25488,2.226,2.226,0,0,1-.80249-.50953,2.11745,2.11745,0,0,1-.53511-.777,4.80816,4.80816,0,0,1-.2675-.94266,6.76147,6.76147,0,0,1-.10186-1.04464q-.01328-.54748-.01273-1.05725Zm24.40731.61138H53.665v-.56045q0-.58586-.05093-1.172a1.50451,1.50451,0,0,0-.35674-.9172,1.30732,1.30732,0,0,0-.86627-.40767q-.53493-.05075-1.07-.05093H48.9772v8.40755h2.11462v2.19113H44.13634V16.12732h2.19113V7.71977H44.13634V5.52864h7.18478q.56,0,1.14649.01273a9.88321,9.88321,0,0,1,1.13376.088,4.77511,4.77511,0,0,1,1.01905.252,2.52432,2.52432,0,0,1,.82807.50358,2.39182,2.39182,0,0,1,.52226.78066,4.46141,4.46141,0,0,1,.28023.96255,7.20032,7.20032,0,0,1,.102,1.06925q.01255.56076.01273,1.0701Zm1.06986-5.29934h6.26759V7.71977H61.81782l3.363,8.30569,3.36309-8.30569H66.7095V5.52864H72.926V7.71977H71.01525L65.28277,21.80887h2.14008V24H61.00249V21.80887h1.88532l.81534-2.26753L58.91333,7.71977h-1.5287ZM80.97684,24H73.945V21.80887H76.1361V7.71977H73.945V5.52864h9.42672q.43289,0,.89173.01273a5.845,5.845,0,0,1,.879.08925,3.07848,3.07848,0,0,1,.78975.25476,1.9749,1.9749,0,0,1,.6497.50953,2.70718,2.70718,0,0,1,.40767.777,4.77448,4.77448,0,0,1,.21657.94278,10.12161,10.12161,0,0,1,.07639,1.03178q.01255.53511.01273,1.01905v3.516q0,.50983-.01273,1.03178a10.05349,10.05349,0,0,1-.07639,1.01917,4.76734,4.76734,0,0,1-.21657.94266,2.69765,2.69765,0,0,1-.40767.777,1.96542,1.96542,0,0,1-.6497.50953,3.06932,3.06932,0,0,1-.78975.25488,5.79826,5.79826,0,0,1-.879.08912q-.45854.0131-.89173.01273h-4.586v3.64332h2.19113ZM78.78571,7.71977v8.40755h4.586a1.39337,1.39337,0,0,0,.78987-.191,1.02038,1.02038,0,0,0,.39482-.50965,2.43546,2.43546,0,0,0,.12744-.75156q.01255-.43289.01273-.89173V10.06369q0-.45854-.01273-.89173a2.44065,2.44065,0,0,0-.12744-.75156,1.02164,1.02164,0,0,0-.39482-.50953,1.39235,1.39235,0,0,0-.78987-.1911Zm15.898-5.50318v3.312h3.10821V7.71977H94.68373v6.97646a2.49785,2.49785,0,0,0,.17825,1.07362q.17807.35777.99371.35747h2.70066v2.19113H95.85569q-.43362,0-.879-.01273a7.09374,7.09374,0,0,1-.86627-.07639,4.46137,4.46137,0,0,1-.78975-.19159,1.606,1.606,0,0,1-.62424-.3833,2.08011,2.08011,0,0,1-.62424-1.328,15.00087,15.00087,0,0,1-.08912-1.63456V7.71977h-2.395V5.52864h2.395V2.2166Zm6.16537,8q0-.50947.01273-1.05737a6.76435,6.76435,0,0,1,.10186-1.04452,4.8165,4.8165,0,0,1,.2675-.94278,2.12346,2.12346,0,0,1,.53511-.777,2.23582,2.23582,0,0,1,.80249-.50953,4.72938,4.72938,0,0,1,1.00632-.25476,9.35173,9.35173,0,0,1,1.1083-.08925q.57331-.01255,1.1083-.01273h2.08915q.53511,0,1.09557.01273a9.28565,9.28565,0,0,1,1.09557.08925,4.73494,4.73494,0,0,1,1.00632.25476,2.5167,2.5167,0,0,1,.82807.50953,2.46309,2.46309,0,0,1,.52226.777,4.33527,4.33527,0,0,1,.28023.94278,6.87056,6.87056,0,0,1,.102,1.04452q.01255.54821.01273,1.05737v3.414q0,.50983-.01273,1.05725a6.86758,6.86758,0,0,1-.102,1.04464,4.32822,4.32822,0,0,1-.28023.94266,2.4549,2.4549,0,0,1-.52226.777,2.50467,2.50467,0,0,1-.82807.50953,4.72055,4.72055,0,0,1-1.00632.25488,9.209,9.209,0,0,1-1.09557.08912q-.56076.0131-1.09557.01273h-2.08915q-.53493,0-1.1083-.01273a9.27592,9.27592,0,0,1-1.1083-.08912,4.715,4.715,0,0,1-1.00632-.25488,2.226,2.226,0,0,1-.80249-.50953,2.11745,2.11745,0,0,1-.53511-.777,4.80815,4.80815,0,0,1-.2675-.94266,6.76149,6.76149,0,0,1-.10186-1.04464q-.01328-.54748-.01273-1.05725Zm4.99353-2.49682q-.53493,0-1.08271.05129a1.22088,1.22088,0,0,0-.85354.40888,1.64748,1.64748,0,0,0-.35674.95818q-.05129.60077-.05093,1.18833v3.19418q0,.58822.05093,1.18869a1.64535,1.64535,0,0,0,.35674.95782,1.21927,1.21927,0,0,0,.85354.40925q.54748.05147,1.08271.05093h1.9873q.53511,0,1.08283-.05093a1.21971,1.21971,0,0,0,.85341-.40925,1.6478,1.6478,0,0,0,.35674-.95782q.05075-.60059.05093-1.18869V10.32646q0-.58768-.05093-1.18833a1.64993,1.64993,0,0,0-.35674-.95818,1.22132,1.22132,0,0,0-.85341-.40888q-.54821-.05129-1.08283-.05129Zm9.65578,7.03175h2.54775v1.37579h4.71342a1.45589,1.45589,0,0,0,1.09557-.33116,1.68547,1.68547,0,0,0,.30569-1.14649,1.84613,1.84613,0,0,0-.39494-1.35033,1.56584,1.56584,0,0,0-1.13376-.38221h-3.08274a15.23383,15.23383,0,0,1-1.93637-.11459,2.37718,2.37718,0,0,1-1.42672-.6497,1.94717,1.94717,0,0,1-.6497-1.24835,11.7153,11.7153,0,0,1-.11459-1.68161q0-.43289.01273-.90446a7.59583,7.59583,0,0,1,.07639-.90446,2.96483,2.96483,0,0,1,.21657-.777,1.32713,1.32713,0,0,1,.43313-.54772,3.17111,3.17111,0,0,1,.59877-.31854,2.91339,2.91339,0,0,1,.64958-.16552,7.19886,7.19886,0,0,1,.78987-.06378q.43289-.01255.99359-.01273h7.0828V9.121H123.7277V7.71977h-4.28029a3.83025,3.83025,0,0,0-.92993.09,1.03029,1.03029,0,0,0-.50953.26992.83989.83989,0,0,0-.20383.47521,5.37414,5.37414,0,0,0-.0382.68123q0,1.00256.31842,1.24641a1.93226,1.93226,0,0,0,1.21028.19268h3.05728q.99365,0,1.92352.06366a2.30621,2.30621,0,0,1,1.41411.49679,1.60171,1.60171,0,0,1,.40755.62424,4.96274,4.96274,0,0,1,.242.86627,7.20649,7.20649,0,0,1,.11471.96812q.0251.49673.02546.92993,0,.43344-.01273.90446a6.18987,6.18987,0,0,1-.08912.90446,3.58112,3.58112,0,0,1-.2293.78975,1.31512,1.31512,0,0,1-.43313.56058,1.97183,1.97183,0,0,1-.73895.30569,8.07721,8.07721,0,0,1-1.00632.15291q-.54821.05129-1.13376.06366-.5864.0131-1.14649.01273H115.4984ZM133.81685,2.2166v3.312h3.10809V7.71977h-3.10809v6.97646a2.496,2.496,0,0,0,.17825,1.07362q.17789.35777.99359.35747h2.70066v2.19113h-2.70066q-.43362,0-.87888-.01273a7.0916,7.0916,0,0,1-.86627-.07639,4.46274,4.46274,0,0,1-.78987-.19159,1.60691,1.60691,0,0,1-.62424-.3833,2.0807,2.0807,0,0,1-.62424-1.328,15.00071,15.00071,0,0,1-.089-1.63456V7.71977h-2.39509V5.52864h2.39509V2.2166Zm16.84032,13.91072h2.01288v2.19113h-8.86639q-.81558,0-1.66875-.07639a2.31017,2.31017,0,0,1-1.3884-.56058,1.62292,1.62292,0,0,1-.42052-.59865,3.36039,3.36039,0,0,1-.20371-.73895,6.23367,6.23367,0,0,1-.07639-.81522q-.0131-.42034-.01285-.80261,0-.43289.01285-.89173a7.84658,7.84658,0,0,1,.07639-.90434,4.06221,4.06221,0,0,1,.20371-.82807,2.04794,2.04794,0,0,1,.42052-.6879,2.32527,2.32527,0,0,1,1.41387-.66243,14.33765,14.33765,0,0,1,1.69422-.10186H148.135V9.19742a4.973,4.973,0,0,0-.10186-1.15923q-.10222-.39469-.76441-.39494h-6.67526V5.52864h6.80258q.38233,0,.777.01273a5.98774,5.98774,0,0,1,.77726.07651,3.6802,3.6802,0,0,1,.71324.191,1.442,1.442,0,0,1,.56045.38221,1.67787,1.67787,0,0,1,.35674.86627,7.92947,7.92947,0,0,1,.07639,1.121ZM148.135,12.78981h-4.68784a1.35537,1.35537,0,0,0-.67516.14017.78644.78644,0,0,0-.34413.38208,1.66729,1.66729,0,0,0-.11447.586q-.01346.34395-.01285.75156,0,.357.02546.62424a1.07653,1.07653,0,0,0,.14017.4586.72571.72571,0,0,0,.35674.293,1.78753,1.78753,0,0,0,.67516.10186H148.135Zm6.2671-7.26117h18.1402q.56021,0,1.14662.01273a9.78991,9.78991,0,0,1,1.13352.08925,4.72639,4.72639,0,0,1,1.0193.25476,2.51849,2.51849,0,0,1,.82819.50953,2.42339,2.42339,0,0,1,.52189.78975,4.55162,4.55162,0,0,1,.28035.96825,7.15548,7.15548,0,0,1,.10186,1.07q.0131.56076.0131,1.0701v5.83433H179.778v2.19113h-7.032V16.12732h2.19113V10.275q0-.5875-.05093-1.17511a1.50933,1.50933,0,0,0-.35674-.92,1.30521,1.30521,0,0,0-.86627-.40888q-.53475-.05129-1.07-.05129h-4.17831v8.40755h2.19113v2.19113h-7.032V16.12732h2.19113V7.71977h-6.4713v8.40755H161.485v2.19113h-7.03175V16.12732h2.19089V7.71977h-2.24206ZM188.33811,24h-7.03175V21.80887h2.19113V7.71977h-2.19113V5.52864h9.42684q.43289,0,.89173.01273a5.84823,5.84823,0,0,1,.87888.08925,3.07783,3.07783,0,0,1,.78987.25476,1.97738,1.97738,0,0,1,.6497.50953,2.71621,2.71621,0,0,1,.40767.777,4.79168,4.79168,0,0,1,.21657.94278,10.12162,10.12162,0,0,1,.07639,1.03178q.01237.53511.01261,1.01905v3.516q0,.50983-.01261,1.03178a10.0535,10.0535,0,0,1-.07639,1.01917,4.78449,4.78449,0,0,1-.21657.94266,2.70662,2.70662,0,0,1-.40767.777,1.96788,1.96788,0,0,1-.6497.50953,3.06868,3.06868,0,0,1-.78987.25488,5.80143,5.80143,0,0,1-.87888.08912q-.45872.0131-.89173.01273h-4.586v3.64332h2.19089ZM186.14722,7.71977v8.40755h4.586a1.3925,1.3925,0,0,0,.78963-.191,1.02017,1.02017,0,0,0,.39506-.50965,2.43925,2.43925,0,0,0,.12732-.75156q.01237-.43289.01285-.89173V10.06369q0-.45854-.01285-.89173a2.44445,2.44445,0,0,0-.12732-.75156,1.02143,1.02143,0,0,0-.39506-.50953,1.39149,1.39149,0,0,0-.78963-.1911Zm23.08244,8.40755v2.19113H202.147q-.53511,0-1.1083-.01273a9.26979,9.26979,0,0,1-1.1083-.08912,4.71429,4.71429,0,0,1-1.00644-.25488,2.226,2.226,0,0,1-.80249-.50953,2.11568,2.11568,0,0,1-.535-.777,4.7915,4.7915,0,0,1-.2675-.94266,6.746,6.746,0,0,1-.1021-1.04464q-.0131-.54748-.01261-1.05725v-3.414q0-.50947.01261-1.05737a6.74888,6.74888,0,0,1,.1021-1.04452,4.79979,4.79979,0,0,1,.2675-.94278,2.12168,2.12168,0,0,1,.535-.777,2.23582,2.23582,0,0,1,.80249-.50953,4.72864,4.72864,0,0,1,1.00644-.25476,9.34548,9.34548,0,0,1,1.1083-.08925q.57294-.01255,1.1083-.01273h2.089q.53511,0,1.09545.01273a9.28559,9.28559,0,0,1,1.09569.08925,4.73606,4.73606,0,0,1,1.00644.25476,2.5174,2.5174,0,0,1,.82795.50953,2.46749,2.46749,0,0,1,.52238.777,4.34178,4.34178,0,0,1,.28011.94278,6.84007,6.84007,0,0,1,.10186,1.04452q.01273.54821.01285,1.05737v2.75159h-9.42684v.56045q0,.5864.05093,1.18469a1.64123,1.64123,0,0,0,.35674.95539,1.2199,1.2199,0,0,0,.85366.40767q.54748.05147,1.08259.05093Zm-9.42684-5.22283h6.77711v-.56494q0-.59059-.05093-1.19427a1.66607,1.66607,0,0,0-.35674-.9634,1.21866,1.21866,0,0,0-.85341-.41082q-.54821-.05129-1.08283-.05129h-2.089q-.53511,0-1.08283.05129a1.21875,1.21875,0,0,0-.85366.41082,1.66429,1.66429,0,0,0-.3565.9634q-.05166.60368-.05117,1.19427ZM217.96825,0h4.84062V16.12732H225v2.19113h-9.42684q-.43326,0-.89173-.01273a5.80143,5.80143,0,0,1-.87888-.08912,3.26791,3.26791,0,0,1-.80249-.25488,1.69172,1.69172,0,0,1-.63709-.50953,2.20625,2.20625,0,0,1-.42028-.777,5.40333,5.40333,0,0,1-.204-.94266,9.9153,9.9153,0,0,1-.07639-1.01917q-.0131-.52183-.01261-1.03178v-3.516q0-.48364.01261-1.01905a9.98486,9.98486,0,0,1,.07639-1.03178,5.412,5.412,0,0,1,.204-.94278,2.21259,2.21259,0,0,1,.42028-.777,2.14734,2.14734,0,0,1,1.42672-.75156,13.95444,13.95444,0,0,1,1.78346-.11471h4.586V2.03823h-2.19089Zm-3.66878,13.72532q0,.5111.01261.94545a2.58162,2.58162,0,0,0,.12732.76671.95653.95653,0,0,0,.39506.5111,1.464,1.464,0,0,0,.78963.17873h4.586V7.71977h-4.586a1.37844,1.37844,0,0,0-.80249.19183,1.05031,1.05031,0,0,0-.38221.51122,2.44829,2.44829,0,0,0-.12732.7535q-.0131.43471-.01261.89452Z"/><path class="c" d="M13.578,12.15405c-.023.173-.137.259-.341.259H10.766a.33835.33835,0,0,1-.248-.086.726.726,0,0,1-.05-.073.38252.38252,0,0,1-.02-.041,1.63355,1.63355,0,0,1-.059-.459v-.841a1.59684,1.59684,0,0,1,.057-.423.2888.2888,0,0,1,.318-.2h2.471c.204,0,.318.087.341.259a3.59924,3.59924,0,0,1,.035.494v.677A3.70673,3.70673,0,0,1,13.578,12.15405ZM24,6V18a6.01762,6.01762,0,0,1-6,6H6a6.01762,6.01762,0,0,1-6-6V6A6.01766,6.01766,0,0,1,6,0H18A6.01766,6.01766,0,0,1,24,6ZM7.852,16.78253a6.48851,6.48851,0,0,1-.011-9.969L6.55,5.26953a8.501,8.501,0,0,0,.014,13.06ZM15.648,18.033h-.002v-.964a2.57825,2.57825,0,0,0-.388-1.412,3.09606,3.09606,0,0,0-1.071-1.012c-.203-.114-.419-.235-.646-.362a1.997,1.997,0,0,0,.69495-.197,2.3377,2.3377,0,0,0,.73-.565,2.38851,2.38851,0,0,0,.459-.8,2.81593,2.81593,0,0,0,.153-.918v-.871h-.002v-.029a2.81593,2.81593,0,0,0-.153-.918,2.38938,2.38938,0,0,0-.459-.8,2.32491,2.32491,0,0,0-.73-.565,2.1305,2.1305,0,0,0-.965-.212H10.704c-.096,0-.189.006-.28.015v-2.433a1.639,1.639,0,0,1,.059-.459.28886.28886,0,0,1,.318-.2h2.471c.203,0,.318.087.341.259a3.599,3.599,0,0,1,.035.494v.73h1.93V5.943a2.81593,2.81593,0,0,0-.153-.918,2.3891,2.3891,0,0,0-.459-.8,2.32337,2.32337,0,0,0-.73-.565,2.13007,2.13007,0,0,0-.965-.212H10.706a2.31729,2.31729,0,0,0-.976.2A2.041,2.041,0,0,0,9,4.201a2.46885,2.46885,0,0,0-.447.812,3.07181,3.07181,0,0,0-.153.97705v4.901c0,.02-.002.038-.002.058v.988a2.57471,2.57471,0,0,0,.4,1.424,3.01484,3.01484,0,0,0,1.059,1q.82352.471,1.636.941.813.471,1.636.941a.816.816,0,0,1,.494.753v1.036a2.07627,2.07627,0,0,1-.047.447.27112.27112,0,0,1-.306.212H10.658c-.203,0-.313-.082-.329-.247-.015-.165-.023-.333-.023-.506V17.232H8.352v.871a2.69884,2.69884,0,0,0,.165.942,2.29139,2.29139,0,0,0,.471.777,2.3571,2.3571,0,0,0,.73.53,2.17958,2.17958,0,0,0,.941.2h2.683a2.09335,2.09335,0,0,0,1.694-.73A2.69181,2.69181,0,0,0,15.648,18.033Zm4.853-6.2395a8.48308,8.48308,0,0,0-3.051-6.524l-1.291,1.544a6.48862,6.48862,0,0,1-.011,9.969l1.288,1.547A8.48257,8.48257,0,0,0,20.501,11.79352Z"/><g class="d"><path class="e" d="M13.578,12.15405c-.023.173-.137.259-.341.259H10.766a.33835.33835,0,0,1-.248-.086.726.726,0,0,1-.05-.073.38252.38252,0,0,1-.02-.041,1.63355,1.63355,0,0,1-.059-.459v-.841a1.59684,1.59684,0,0,1,.057-.423.2888.2888,0,0,1,.318-.2h2.471c.204,0,.318.087.341.259a3.59924,3.59924,0,0,1,.035.494v.677A3.70673,3.70673,0,0,1,13.578,12.15405ZM24,6V18a6.01762,6.01762,0,0,1-6,6H6a6.01762,6.01762,0,0,1-6-6V6A6.01766,6.01766,0,0,1,6,0H18A6.01766,6.01766,0,0,1,24,6ZM7.852,16.78253a6.48851,6.48851,0,0,1-.011-9.969L6.55,5.26953a8.501,8.501,0,0,0,.014,13.06ZM15.648,18.033h-.002v-.964a2.57825,2.57825,0,0,0-.388-1.412,3.09606,3.09606,0,0,0-1.071-1.012c-.203-.114-.419-.235-.646-.362a1.997,1.997,0,0,0,.69495-.197,2.3377,2.3377,0,0,0,.73-.565,2.38851,2.38851,0,0,0,.459-.8,2.81593,2.81593,0,0,0,.153-.918v-.871h-.002v-.029a2.81593,2.81593,0,0,0-.153-.918,2.38938,2.38938,0,0,0-.459-.8,2.32491,2.32491,0,0,0-.73-.565,2.1305,2.1305,0,0,0-.965-.212H10.704c-.096,0-.189.006-.28.015v-2.433a1.639,1.639,0,0,1,.059-.459.28886.28886,0,0,1,.318-.2h2.471c.203,0,.318.087.341.259a3.599,3.599,0,0,1,.035.494v.73h1.93V5.943a2.81593,2.81593,0,0,0-.153-.918,2.3891,2.3891,0,0,0-.459-.8,2.32337,2.32337,0,0,0-.73-.565,2.13007,2.13007,0,0,0-.965-.212H10.706a2.31729,2.31729,0,0,0-.976.2A2.041,2.041,0,0,0,9,4.201a2.46885,2.46885,0,0,0-.447.812,3.07181,3.07181,0,0,0-.153.97705v4.901c0,.02-.002.038-.002.058v.988a2.57471,2.57471,0,0,0,.4,1.424,3.01484,3.01484,0,0,0,1.059,1q.82352.471,1.636.941.813.471,1.636.941a.816.816,0,0,1,.494.753v1.036a2.07627,2.07627,0,0,1-.047.447.27112.27112,0,0,1-.306.212H10.658c-.203,0-.313-.082-.329-.247-.015-.165-.023-.333-.023-.506V17.232H8.352v.871a2.69884,2.69884,0,0,0,.165.942,2.29139,2.29139,0,0,0,.471.777,2.3571,2.3571,0,0,0,.73.53,2.17958,2.17958,0,0,0,.941.2h2.683a2.09335,2.09335,0,0,0,1.694-.73A2.69181,2.69181,0,0,0,15.648,18.033Zm4.853-6.2395a8.48308,8.48308,0,0,0-3.051-6.524l-1.291,1.544a6.48862,6.48862,0,0,1-.011,9.969l1.288,1.547A8.48257,8.48257,0,0,0,20.501,11.79352Z"/></g><g class="f"><path class="g" d="M18,1a5.00566,5.00566,0,0,1,5,5V18a5.00566,5.00566,0,0,1-5,5H6a5.00566,5.00566,0,0,1-5-5V6A5.00566,5.00566,0,0,1,6,1H18M7.54319,4.89842l-.226-.27034A.99993.99993,0,0,0,5.90861,4.5023,9.501,9.501,0,0,0,5.92408,19.098a1.00005,1.00005,0,0,0,.63985.23153q.04538,0,.091-.00415a1.00005,1.00005,0,0,0,.67755-.356l.09435-.11331a3.62555,3.62555,0,0,0,.15173.5344,3.29938,3.29938,0,0,0,.67629,1.11161,3.36073,3.36073,0,0,0,1.03661.75441A3.17936,3.17936,0,0,0,10.659,21.552h2.683a3.09838,3.09838,0,0,0,2.4606-1.08782,3.54461,3.54461,0,0,0,.76783-1.61137l.097.11655a1,1,0,0,0,.67756.356q.04558.00417.091.00415a1.00006,1.00006,0,0,0,.63983-.23152,9.50108,9.50108,0,0,0,.01555-14.5957.99994.99994,0,0,0-1.40855.12577l-.244.29186q-.03053-.11012-.06771-.21876a3.39159,3.39159,0,0,0-.64859-1.13012,3.32917,3.32917,0,0,0-1.03934-.80546A3.12746,3.12746,0,0,0,13.271,2.448H10.706a3.31527,3.31527,0,0,0-1.39167.29049,3.04118,3.04118,0,0,0-1.08192.82163,3.48,3.48,0,0,0-.62812,1.13671q-.03322.0997-.06109.20159m3.89937.914h0M12.648,6.331v.483a.99542.99542,0,0,0,.19545.594H11.424V6.331h1.224m3.11348,1.46624A5.48885,5.48885,0,0,1,16.21385,15.31q-.05262-.096-.11162-.1889a3.89074,3.89074,0,0,0-.592-.72259q.11007-.10571.211-.222a3.39406,3.39406,0,0,0,.64993-1.13168A3.82674,3.82674,0,0,0,16.578,11.803v-.871q0-.03358-.0022-.06663a3.82621,3.82621,0,0,0-.2067-1.2041A3.39219,3.39219,0,0,0,15.7205,8.531a3.32189,3.32189,0,0,0-.87337-.717H15.578a1.00623,1.00623,0,0,0,.18349-.0168M7.40013,8.799l.00017,2.06973c-.00088.01707-.00229.0632-.00229.08029v.988a3.56857,3.56857,0,0,0,.5584,1.96418,4.01929,4.01929,0,0,0,1.40408,1.32787q.82115.46967,1.63116.9382.81073.46973,1.63134.9384V17.691H11.306v-.459a1,1,0,0,0-1-1H8.6868a.99973.99973,0,0,0-.195-.218,5.48982,5.48982,0,0,1-1.0917-7.215M12.611,11.29l0,.123H11.389V11.29H12.611M18,0H6A6.01765,6.01765,0,0,0,0,6V18a6.01761,6.01761,0,0,0,6,6H18a6.01762,6.01762,0,0,0,6-6V6a6.01765,6.01765,0,0,0-6-6ZM10.658,18.691H13.27a.27112.27112,0,0,0,.306-.212,2.0767,2.0767,0,0,0,.047-.447V16.996a.816.816,0,0,0-.494-.753q-.825-.471-1.636-.941-.813-.47094-1.636-.941a3.01478,3.01478,0,0,1-1.059-1,2.57475,2.57475,0,0,1-.4-1.424v-.988c0-.02.002-.038.002-.058v-4.901A3.07181,3.07181,0,0,1,8.553,5.013,2.46881,2.46881,0,0,1,9,4.20105a2.04086,2.04086,0,0,1,.73-.553,2.31723,2.31723,0,0,1,.976-.2h2.565a2.13006,2.13006,0,0,1,.965.212,2.3234,2.3234,0,0,1,.73.565,2.389,2.389,0,0,1,.459.8,2.816,2.816,0,0,1,.153.918v.871h-1.93v-.73a3.60007,3.60007,0,0,0-.035-.494c-.023-.172-.138-.259-.341-.259H10.801a.28886.28886,0,0,0-.318.2,1.639,1.639,0,0,0-.059.459V8.423c.091-.009.184-.015.28-.015h2.565a2.1304,2.1304,0,0,1,.965.212,2.32491,2.32491,0,0,1,.73.565,2.38939,2.38939,0,0,1,.459.8,2.8159,2.8159,0,0,1,.153.918v.029h.002v.871a2.816,2.816,0,0,1-.153.918,2.3886,2.3886,0,0,1-.459.8,2.33774,2.33774,0,0,1-.73.565,1.997,1.997,0,0,1-.69494.197c.227.127.443.248.646.362a3.09614,3.09614,0,0,1,1.071,1.012,2.57833,2.57833,0,0,1,.388,1.412v.964h.002a2.69183,2.69183,0,0,1-.612,1.789,2.09336,2.09336,0,0,1-1.694.73H10.659a2.1795,2.1795,0,0,1-.941-.19995,2.357,2.357,0,0,1-.73-.53,2.29118,2.29118,0,0,1-.471-.777,2.69881,2.69881,0,0,1-.165-.942v-.871h1.954v.70606c0,.173.008.34094.023.506.016.165.126.247.329.247Zm6.77795-.36151-1.288-1.547a6.48861,6.48861,0,0,0,.011-9.969l1.291-1.544a8.50106,8.50106,0,0,1-.014,13.06Zm-10.872,0a8.501,8.501,0,0,1-.014-13.06l1.291,1.544a6.4885,6.4885,0,0,0,.011,9.969l-1.288,1.547ZM13.235,10.29H10.764a.28882.28882,0,0,0-.318.2,1.59712,1.59712,0,0,0-.057.423v.841a1.6335,1.6335,0,0,0,.059.459.384.384,0,0,0,.02.041.72407.72407,0,0,0,.05.073.33832.33832,0,0,0,.248.086h2.471c.204,0,.318-.086.341-.259a3.7066,3.7066,0,0,0,.033-.434v-.677a3.598,3.598,0,0,0-.035-.494c-.023-.172-.137-.259-.341-.259Z"/></g></g></svg>