<svg xmlns="http://www.w3.org/2000/svg" xmlns:xlink="http://www.w3.org/1999/xlink" viewBox="0 0 225 24"><defs><style>.cls-1{fill:url(#Безымянный_градиент);}.cls-2{fill:url(#Безымянный_градиент_2);}.cls-3{fill:url(#Безымянный_градиент_3);}.cls-4{opacity:0.15;}.cls-5{fill:url(#Безымянный_градиент_4);}</style><linearGradient id="Безымянный_градиент" x1="128.45" y1="2" x2="128.45" y2="26" gradientTransform="matrix(1, 0, 0, -1, 0, 26)" gradientUnits="userSpaceOnUse"><stop offset="0" stop-color="#404040"/><stop offset="0.18" stop-color="#3a3a3a"/><stop offset="0.41" stop-color="#2a2a2a"/><stop offset="0.5" stop-color="#212121"/><stop offset="0.67" stop-color="#404040"/><stop offset="0.67" stop-color="#3f3f3f"/><stop offset="0.77" stop-color="#2e2e2e"/><stop offset="0.87" stop-color="#242424"/><stop offset="1" stop-color="#212121"/></linearGradient><radialGradient id="Безымянный_градиент_2" cx="11.97" cy="14.25" r="11.64" gradientTransform="matrix(1, 0, 0, -1, 0, 26)" gradientUnits="userSpaceOnUse"><stop offset="0"/><stop offset="0.3" stop-color="#030303"/><stop offset="0.54" stop-color="#0d0d0d"/><stop offset="0.76" stop-color="#1e1e1e"/><stop offset="0.96" stop-color="#363636"/><stop offset="1" stop-color="#3b3b3b"/></radialGradient><linearGradient id="Безымянный_градиент_3" x1="22.24" y1="3.76" x2="1.76" y2="24.24" gradientTransform="matrix(1, 0, 0, -1, 0, 26)" gradientUnits="userSpaceOnUse"><stop offset="0" stop-color="#262626"/><stop offset="0.22" stop-color="#2c2c2c"/><stop offset="0.5" stop-color="#3b3b3b"/><stop offset="1"/></linearGradient><linearGradient id="Безымянный_градиент_4" x1="12" y1="2" x2="12" y2="26" gradientTransform="matrix(1, 0, 0, -1, 0, 26)" gradientUnits="userSpaceOnUse"><stop offset="0" stop-color="#262626"/><stop offset="1" stop-color="#262626"/></linearGradient></defs><title>logo</title><g id="Слой_2" data-name="Слой 2"><g id="Слой_1-2" data-name="Слой 1"><path class="cls-1" d="M31.91,10.22q0-.51,0-1.06a6.76,6.76,0,0,1,.1-1,4.82,4.82,0,0,1,.27-.94,2.12,2.12,0,0,1,.54-.78,2.24,2.24,0,0,1,.8-.51,4.73,4.73,0,0,1,1-.25,9.35,9.35,0,0,1,1.11-.09H42.1v5H39.45V7.72H36.34a2.15,2.15,0,0,0-1,.2,1.31,1.31,0,0,0-.55.55,2.14,2.14,0,0,0-.22.82q0,.47,0,1v3.19q0,.56,0,1a2.14,2.14,0,0,0,.22.82,1.31,1.31,0,0,0,.55.55,2.15,2.15,0,0,0,1,.2H42.1v2.19H35.74a9.28,9.28,0,0,1-1.11-.09,4.72,4.72,0,0,1-1-.25,2.23,2.23,0,0,1-.8-.51,2.12,2.12,0,0,1-.54-.78,4.81,4.81,0,0,1-.27-.94,6.76,6.76,0,0,1-.1-1q0-.55,0-1.06Zm24.41.61H53.67v-.56q0-.59-.05-1.17a1.5,1.5,0,0,0-.36-.92,1.31,1.31,0,0,0-.87-.41q-.53-.05-1.07-.05H49v8.41h2.11v2.19h-7V16.13h2.19V7.72H44.14V5.53h8.33a9.88,9.88,0,0,1,1.13.09,4.78,4.78,0,0,1,1,.25,2.52,2.52,0,0,1,.83.5,2.39,2.39,0,0,1,.52.78,4.46,4.46,0,0,1,.28,1,7.2,7.2,0,0,1,.1,1.07q0,.56,0,1.07Zm1.07-5.3h6.27V7.72H61.82L65.18,16l3.36-8.31H66.71V5.53h6.22V7.72H71L65.28,21.81h2.14V24H61V21.81h1.89l.82-2.27L58.91,7.72H57.38ZM81,24h-7V21.81h2.19V7.72H73.94V5.53H84.26a5.85,5.85,0,0,1,.88.09,3.08,3.08,0,0,1,.79.25,2,2,0,0,1,.65.51,2.71,2.71,0,0,1,.41.78,4.77,4.77,0,0,1,.22.94,10.12,10.12,0,0,1,.08,1q0,.54,0,1v3.52q0,.51,0,1a10.05,10.05,0,0,1-.08,1,4.77,4.77,0,0,1-.22.94,2.7,2.7,0,0,1-.41.78,2,2,0,0,1-.65.51,3.07,3.07,0,0,1-.79.25,5.8,5.8,0,0,1-.88.09H78.79V22H81ZM78.79,7.72v8.41h4.59a1.39,1.39,0,0,0,.79-.19,1,1,0,0,0,.39-.51,2.44,2.44,0,0,0,.13-.75q0-.43,0-.89V10.06q0-.46,0-.89a2.44,2.44,0,0,0-.13-.75,1,1,0,0,0-.39-.51,1.39,1.39,0,0,0-.79-.19Zm15.9-5.5V5.53h3.11V7.72H94.68v7a2.5,2.5,0,0,0,.18,1.07q.18.36,1,.36h2.7v2.19H95a7.09,7.09,0,0,1-.87-.08,4.46,4.46,0,0,1-.79-.19,1.61,1.61,0,0,1-.62-.38,2.08,2.08,0,0,1-.62-1.33A15,15,0,0,1,92,14.69v-7H89.59V5.53H92V2.22Zm6.17,8q0-.51,0-1.06a6.76,6.76,0,0,1,.1-1,4.82,4.82,0,0,1,.27-.94,2.12,2.12,0,0,1,.54-.78,2.24,2.24,0,0,1,.8-.51,4.73,4.73,0,0,1,1-.25,9.35,9.35,0,0,1,1.11-.09H109a9.29,9.29,0,0,1,1.1.09,4.73,4.73,0,0,1,1,.25,2.52,2.52,0,0,1,.83.51,2.46,2.46,0,0,1,.52.78,4.34,4.34,0,0,1,.28.94,6.87,6.87,0,0,1,.1,1q0,.55,0,1.06v3.41q0,.51,0,1.06a6.87,6.87,0,0,1-.1,1,4.33,4.33,0,0,1-.28.94,2.45,2.45,0,0,1-.52.78,2.5,2.5,0,0,1-.83.51,4.72,4.72,0,0,1-1,.25,9.21,9.21,0,0,1-1.1.09h-4.29a9.28,9.28,0,0,1-1.11-.09,4.72,4.72,0,0,1-1-.25,2.23,2.23,0,0,1-.8-.51,2.12,2.12,0,0,1-.54-.78,4.81,4.81,0,0,1-.27-.94,6.76,6.76,0,0,1-.1-1q0-.55,0-1.06Zm5-2.5q-.53,0-1.08.05a1.22,1.22,0,0,0-.85.41,1.65,1.65,0,0,0-.36,1q-.05.6-.05,1.19v3.19q0,.59.05,1.19a1.65,1.65,0,0,0,.36,1,1.22,1.22,0,0,0,.85.41q.55.05,1.08.05h2q.54,0,1.08-.05a1.22,1.22,0,0,0,.85-.41,1.65,1.65,0,0,0,.36-1q.05-.6.05-1.19V10.33q0-.59-.05-1.19a1.65,1.65,0,0,0-.36-1,1.22,1.22,0,0,0-.85-.41q-.55-.05-1.08-.05Zm9.66,7H118v1.38h4.71a1.46,1.46,0,0,0,1.1-.33,1.69,1.69,0,0,0,.31-1.15,1.85,1.85,0,0,0-.39-1.35,1.57,1.57,0,0,0-1.13-.38h-3.08a15.23,15.23,0,0,1-1.94-.11,2.38,2.38,0,0,1-1.43-.65,2,2,0,0,1-.65-1.25,11.72,11.72,0,0,1-.11-1.68q0-.43,0-.9a7.6,7.6,0,0,1,.08-.9,3,3,0,0,1,.22-.78,1.33,1.33,0,0,1,.43-.55,3.17,3.17,0,0,1,.6-.32,2.91,2.91,0,0,1,.65-.17,7.2,7.2,0,0,1,.79-.06h8.08V9.12h-2.55V7.72h-4.28a3.83,3.83,0,0,0-.93.09,1,1,0,0,0-.51.27.84.84,0,0,0-.2.48,5.37,5.37,0,0,0,0,.68q0,1,.32,1.25a1.93,1.93,0,0,0,1.21.19h3.06q1,0,1.92.06a2.31,2.31,0,0,1,1.41.5,1.6,1.6,0,0,1,.41.62,5,5,0,0,1,.24.87,7.21,7.21,0,0,1,.11,1q0,.5,0,.93t0,.9a6.19,6.19,0,0,1-.09.9,3.58,3.58,0,0,1-.23.79,1.32,1.32,0,0,1-.43.56,2,2,0,0,1-.74.31,8.08,8.08,0,0,1-1,.15q-.55.05-1.13.06H115.5ZM133.82,2.22V5.53h3.11V7.72h-3.11v7a2.5,2.5,0,0,0,.18,1.07q.18.36,1,.36h2.7v2.19h-3.58a7.09,7.09,0,0,1-.87-.08,4.46,4.46,0,0,1-.79-.19,1.61,1.61,0,0,1-.62-.38,2.08,2.08,0,0,1-.62-1.33,15,15,0,0,1-.09-1.63v-7h-2.4V5.53h2.4V2.22Zm16.84,13.91h2v2.19H143.8q-.82,0-1.67-.08a2.31,2.31,0,0,1-1.39-.56,1.62,1.62,0,0,1-.42-.6,3.36,3.36,0,0,1-.2-.74,6.23,6.23,0,0,1-.08-.82q0-.42,0-.8t0-.89a7.85,7.85,0,0,1,.08-.9,4.06,4.06,0,0,1,.2-.83,2,2,0,0,1,.42-.69,2.33,2.33,0,0,1,1.41-.66,14.34,14.34,0,0,1,1.69-.1h4.28V9.2A5,5,0,0,0,148,8q-.1-.39-.76-.39h-6.68V5.53h7.58a6,6,0,0,1,.78.08,3.68,3.68,0,0,1,.71.19,1.44,1.44,0,0,1,.56.38,1.68,1.68,0,0,1,.36.87,7.93,7.93,0,0,1,.08,1.12Zm-2.52-3.34h-4.69a1.36,1.36,0,0,0-.68.14.79.79,0,0,0-.34.38,1.67,1.67,0,0,0-.11.59q0,.34,0,.75t0,.62a1.08,1.08,0,0,0,.14.46.73.73,0,0,0,.36.29,1.79,1.79,0,0,0,.68.1h4.64Zm6.27-7.26h19.29a9.79,9.79,0,0,1,1.13.09,4.73,4.73,0,0,1,1,.25,2.52,2.52,0,0,1,.83.51,2.42,2.42,0,0,1,.52.79,4.55,4.55,0,0,1,.28,1,7.16,7.16,0,0,1,.1,1.07q0,.56,0,1.07v5.83h2.19v2.19h-7V16.13h2.19V10.27q0-.59-.05-1.18a1.51,1.51,0,0,0-.36-.92,1.31,1.31,0,0,0-.87-.41q-.53-.05-1.07-.05h-4.18v8.41h2.19v2.19h-7V16.13h2.19V7.72h-6.47v8.41h2.19v2.19h-7V16.13h2.19V7.72H154.4ZM188.34,24h-7V21.81h2.19V7.72h-2.19V5.53h10.32a5.85,5.85,0,0,1,.88.09,3.08,3.08,0,0,1,.79.25,2,2,0,0,1,.65.51,2.72,2.72,0,0,1,.41.78,4.79,4.79,0,0,1,.22.94,10.12,10.12,0,0,1,.08,1q0,.54,0,1v3.52q0,.51,0,1a10.05,10.05,0,0,1-.08,1,4.78,4.78,0,0,1-.22.94,2.71,2.71,0,0,1-.41.78,2,2,0,0,1-.65.51,3.07,3.07,0,0,1-.79.25,5.8,5.8,0,0,1-.88.09h-5.48V22h2.19ZM186.15,7.72v8.41h4.59a1.39,1.39,0,0,0,.79-.19,1,1,0,0,0,.4-.51,2.44,2.44,0,0,0,.13-.75q0-.43,0-.89V10.06q0-.46,0-.89a2.44,2.44,0,0,0-.13-.75,1,1,0,0,0-.4-.51,1.39,1.39,0,0,0-.79-.19Zm23.08,8.41v2.19H201a9.27,9.27,0,0,1-1.11-.09,4.71,4.71,0,0,1-1-.25,2.23,2.23,0,0,1-.8-.51,2.12,2.12,0,0,1-.54-.78,4.79,4.79,0,0,1-.27-.94,6.75,6.75,0,0,1-.1-1q0-.55,0-1.06V10.22q0-.51,0-1.06a6.75,6.75,0,0,1,.1-1,4.8,4.8,0,0,1,.27-.94,2.12,2.12,0,0,1,.54-.78,2.24,2.24,0,0,1,.8-.51,4.73,4.73,0,0,1,1-.25A9.35,9.35,0,0,1,201,5.54h4.29a9.29,9.29,0,0,1,1.1.09,4.74,4.74,0,0,1,1,.25,2.52,2.52,0,0,1,.83.51,2.47,2.47,0,0,1,.52.78,4.34,4.34,0,0,1,.28.94,6.84,6.84,0,0,1,.1,1q0,.55,0,1.06V13h-9.43v.56q0,.59.05,1.18a1.64,1.64,0,0,0,.36,1,1.22,1.22,0,0,0,.85.41q.55.05,1.08.05ZM199.8,10.9h6.78v-.56q0-.59-.05-1.19a1.67,1.67,0,0,0-.36-1,1.22,1.22,0,0,0-.85-.41q-.55-.05-1.08-.05h-2.09q-.54,0-1.08.05a1.22,1.22,0,0,0-.85.41,1.66,1.66,0,0,0-.36,1q-.05.6-.05,1.19ZM218,0h4.84V16.13H225v2.19H214.68a5.8,5.8,0,0,1-.88-.09A3.27,3.27,0,0,1,213,18a1.69,1.69,0,0,1-.64-.51,2.21,2.21,0,0,1-.42-.78,5.4,5.4,0,0,1-.2-.94,9.91,9.91,0,0,1-.08-1q0-.52,0-1V10.17q0-.48,0-1a10,10,0,0,1,.08-1,5.41,5.41,0,0,1,.2-.94,2.21,2.21,0,0,1,.42-.78,2.15,2.15,0,0,1,1.43-.75,14,14,0,0,1,1.78-.11h4.59V2H218ZM214.3,13.73q0,.51,0,.95a2.58,2.58,0,0,0,.13.77,1,1,0,0,0,.4.51,1.46,1.46,0,0,0,.79.18h4.59V7.72h-4.59a1.38,1.38,0,0,0-.8.19,1.05,1.05,0,0,0-.38.51,2.45,2.45,0,0,0-.13.75q0,.43,0,.89Z"/><path class="cls-2" d="M13.58,12.15c0,.17-.14.26-.34.26H10.77a.34.34,0,0,1-.25-.09l-.05-.07,0,0a1.63,1.63,0,0,1-.06-.46v-.84a1.6,1.6,0,0,1,.06-.42.29.29,0,0,1,.32-.2h2.47c.2,0,.32.09.34.26a3.6,3.6,0,0,1,0,.49v.68A3.71,3.71,0,0,1,13.58,12.15ZM24,6V18a6,6,0,0,1-6,6H6a6,6,0,0,1-6-6V6A6,6,0,0,1,6,0H18A6,6,0,0,1,24,6ZM7.85,16.78a6.49,6.49,0,0,1,0-10L6.55,5.27a8.5,8.5,0,0,0,0,13.06ZM15.65,18h0v-1a2.58,2.58,0,0,0-.39-1.41,3.1,3.1,0,0,0-1.07-1l-.65-.36a2,2,0,0,0,.69-.2,2.34,2.34,0,0,0,.73-.56,2.39,2.39,0,0,0,.46-.8,2.82,2.82,0,0,0,.15-.92v-.87h0v0a2.82,2.82,0,0,0-.15-.92,2.39,2.39,0,0,0-.46-.8,2.32,2.32,0,0,0-.73-.56,2.13,2.13,0,0,0-1-.21H10.7l-.28,0V6a1.64,1.64,0,0,1,.06-.46.29.29,0,0,1,.32-.2h2.47c.2,0,.32.09.34.26a3.6,3.6,0,0,1,0,.49v.73h1.93V5.94A2.82,2.82,0,0,0,15.43,5a2.39,2.39,0,0,0-.46-.8,2.32,2.32,0,0,0-.73-.57,2.13,2.13,0,0,0-1-.21H10.71a2.32,2.32,0,0,0-1,.2A2,2,0,0,0,9,4.2,2.47,2.47,0,0,0,8.55,5,3.07,3.07,0,0,0,8.4,6v4.9s0,0,0,.06v1a2.57,2.57,0,0,0,.4,1.42,3,3,0,0,0,1.06,1l1.64.94,1.64.94a.82.82,0,0,1,.49.75v1a2.08,2.08,0,0,1,0,.45.27.27,0,0,1-.31.21H10.66c-.2,0-.31-.08-.33-.25s0-.33,0-.51v-.71h-2v.87a2.7,2.7,0,0,0,.16.94,2.29,2.29,0,0,0,.47.78,2.36,2.36,0,0,0,.73.53,2.18,2.18,0,0,0,.94.2h2.68A2.09,2.09,0,0,0,15,19.82,2.69,2.69,0,0,0,15.65,18Zm4.85-6.24a8.48,8.48,0,0,0-3.05-6.52L16.16,6.81a6.49,6.49,0,0,1,0,10l1.29,1.55a8.48,8.48,0,0,0,3.07-6.54Z"/><path class="cls-3" d="M13.58,12.15c0,.17-.14.26-.34.26H10.77a.34.34,0,0,1-.25-.09l-.05-.07,0,0a1.63,1.63,0,0,1-.06-.46v-.84a1.6,1.6,0,0,1,.06-.42.29.29,0,0,1,.32-.2h2.47c.2,0,.32.09.34.26a3.6,3.6,0,0,1,0,.49v.68A3.71,3.71,0,0,1,13.58,12.15ZM24,6V18a6,6,0,0,1-6,6H6a6,6,0,0,1-6-6V6A6,6,0,0,1,6,0H18A6,6,0,0,1,24,6ZM7.85,16.78a6.49,6.49,0,0,1,0-10L6.55,5.27a8.5,8.5,0,0,0,0,13.06ZM15.65,18h0v-1a2.58,2.58,0,0,0-.39-1.41,3.1,3.1,0,0,0-1.07-1l-.65-.36a2,2,0,0,0,.69-.2,2.34,2.34,0,0,0,.73-.56,2.39,2.39,0,0,0,.46-.8,2.82,2.82,0,0,0,.15-.92v-.87h0v0a2.82,2.82,0,0,0-.15-.92,2.39,2.39,0,0,0-.46-.8,2.32,2.32,0,0,0-.73-.56,2.13,2.13,0,0,0-1-.21H10.7l-.28,0V6a1.64,1.64,0,0,1,.06-.46.29.29,0,0,1,.32-.2h2.47c.2,0,.32.09.34.26a3.6,3.6,0,0,1,0,.49v.73h1.93V5.94A2.82,2.82,0,0,0,15.43,5a2.39,2.39,0,0,0-.46-.8,2.32,2.32,0,0,0-.73-.57,2.13,2.13,0,0,0-1-.21H10.71a2.32,2.32,0,0,0-1,.2A2,2,0,0,0,9,4.2,2.47,2.47,0,0,0,8.55,5,3.07,3.07,0,0,0,8.4,6v4.9s0,0,0,.06v1a2.57,2.57,0,0,0,.4,1.42,3,3,0,0,0,1.06,1l1.64.94,1.64.94a.82.82,0,0,1,.49.75v1a2.08,2.08,0,0,1,0,.45.27.27,0,0,1-.31.21H10.66c-.2,0-.31-.08-.33-.25s0-.33,0-.51v-.71h-2v.87a2.7,2.7,0,0,0,.16.94,2.29,2.29,0,0,0,.47.78,2.36,2.36,0,0,0,.73.53,2.18,2.18,0,0,0,.94.2h2.68A2.09,2.09,0,0,0,15,19.82,2.69,2.69,0,0,0,15.65,18Zm4.85-6.24a8.48,8.48,0,0,0-3.05-6.52L16.16,6.81a6.49,6.49,0,0,1,0,10l1.29,1.55a8.48,8.48,0,0,0,3.07-6.54Z"/><g class="cls-4"><path class="cls-5" d="M18,1a5,5,0,0,1,5,5V18a5,5,0,0,1-5,5H6a5,5,0,0,1-5-5V6A5,5,0,0,1,6,1H18M7.54,4.9l-.23-.27A1,1,0,0,0,5.91,4.5h0a9.5,9.5,0,0,0,0,14.6,1,1,0,0,0,.64.23h.09A1,1,0,0,0,7.33,19l.09-.11a3.63,3.63,0,0,0,.15.53,3.3,3.3,0,0,0,.68,1.11,3.36,3.36,0,0,0,1,.75,3.18,3.18,0,0,0,1.37.3h2.68a3.1,3.1,0,0,0,2.46-1.09,3.54,3.54,0,0,0,.77-1.61l.1.12a1,1,0,0,0,.68.36h.09a1,1,0,0,0,.64-.23,9.5,9.5,0,0,0,0-14.6,1,1,0,0,0-1.41.13h0l-.24.29-.07-.22a3.39,3.39,0,0,0-.65-1.13,3.33,3.33,0,0,0-1-.81,3.13,3.13,0,0,0-1.41-.32H10.71a3.32,3.32,0,0,0-1.39.29,3,3,0,0,0-1.08.82A3.48,3.48,0,0,0,7.6,4.7l-.06.2m3.9.91h0m1.21.52v.48a1,1,0,0,0,.2.59H11.42V6.33h1.22M15.76,7.8a5.49,5.49,0,0,1,.45,7.51l-.11-.19a3.89,3.89,0,0,0-.59-.72l.21-.22A3.39,3.39,0,0,0,16.37,13a3.83,3.83,0,0,0,.21-1.24v-.87s0,0,0-.07a3.83,3.83,0,0,0-.21-1.2,3.39,3.39,0,0,0-.65-1.13,3.32,3.32,0,0,0-.87-.72h.73l.18,0M7.4,8.8v2.07s0,.06,0,.08v1a3.57,3.57,0,0,0,.56,2,4,4,0,0,0,1.4,1.33l1.63.94,1.63.94v.59H11.31v-.46a1,1,0,0,0-1-1H8.69A1,1,0,0,0,8.49,16,5.49,5.49,0,0,1,7.4,8.8m5.21,2.49v.12H11.39v-.12h1.22M18,0H6A6,6,0,0,0,0,6V18a6,6,0,0,0,6,6H18a6,6,0,0,0,6-6V6A6,6,0,0,0,18,0ZM10.66,18.69h2.61a.27.27,0,0,0,.31-.21,2.08,2.08,0,0,0,0-.45V17a.82.82,0,0,0-.49-.75l-1.64-.94-1.64-.94a3,3,0,0,1-1.06-1,2.57,2.57,0,0,1-.4-1.42v-1s0,0,0-.06V6a3.07,3.07,0,0,1,.15-1A2.47,2.47,0,0,1,9,4.2a2,2,0,0,1,.73-.55,2.32,2.32,0,0,1,1-.2h2.57a2.13,2.13,0,0,1,1,.21,2.32,2.32,0,0,1,.73.56,2.39,2.39,0,0,1,.46.8,2.82,2.82,0,0,1,.15.92v.87H13.65V6.08a3.6,3.6,0,0,0,0-.49c0-.17-.14-.26-.34-.26H10.8a.29.29,0,0,0-.32.2,1.64,1.64,0,0,0-.06.46V8.42l.28,0h2.56a2.13,2.13,0,0,1,1,.21,2.32,2.32,0,0,1,.73.56,2.39,2.39,0,0,1,.46.8,2.82,2.82,0,0,1,.15.92v0h0v.87a2.82,2.82,0,0,1-.15.92,2.39,2.39,0,0,1-.46.8,2.34,2.34,0,0,1-.73.56,2,2,0,0,1-.69.2l.65.36a3.1,3.1,0,0,1,1.07,1,2.58,2.58,0,0,1,.39,1.41v1h0A2.69,2.69,0,0,1,15,19.82a2.09,2.09,0,0,1-1.69.73H10.66a2.18,2.18,0,0,1-.94-.2A2.36,2.36,0,0,1,9,19.82,2.29,2.29,0,0,1,8.52,19a2.7,2.7,0,0,1-.16-.94v-.87h2v.71c0,.17,0,.34,0,.51s.13.25.33.25Zm6.78-.36-1.29-1.55a6.49,6.49,0,0,0,0-10l1.29-1.54a8.5,8.5,0,0,1,0,13.06Zm-10.87,0a8.5,8.5,0,0,1,0-13.06L7.84,6.81a6.49,6.49,0,0,0,0,10Zm6.67-8H10.76a.29.29,0,0,0-.32.2,1.6,1.6,0,0,0-.06.42v.84a1.63,1.63,0,0,0,.06.46l0,0,.05.07a.34.34,0,0,0,.25.09h2.47c.2,0,.32-.09.34-.26a3.71,3.71,0,0,0,0-.43V11a3.6,3.6,0,0,0,0-.49C13.55,10.38,13.44,10.29,13.23,10.29Z"/></g></g></g></svg>