<svg xmlns="http://www.w3.org/2000/svg" width="22" height="22"  viewBox="0 0 486.64 512"><defs><style>.cls-1{fill:#006df0;}</style></defs><title>print</title><g id="Слой_2" data-name="Слой 2"><g id="Capa_1" data-name="Capa 1"><path class="cls-1" d="M411,104.95H397.82V75.66A75.77,75.77,0,0,0,322.16,0H163.31A75.77,75.77,0,0,0,87.65,75.66v29.29h-12A75.77,75.77,0,0,0,0,180.61v122A75.77,75.77,0,0,0,75.66,378.3H87.54v95.93A37.86,37.86,0,0,0,125.32,512H359.94a37.86,37.86,0,0,0,37.78-37.78V378.3H411a75.77,75.77,0,0,0,75.66-75.66v-122A75.77,75.77,0,0,0,411,104.95ZM116.19,75.66a47.1,47.1,0,0,1,47-47H321.95a47.1,47.1,0,0,1,47,47v29.29H116.19ZM369.06,474.44a9.19,9.19,0,0,1-9.13,9.13H125.32a9.19,9.19,0,0,1-9.13-9.13V316.22H369.06ZM458,302.74a47.1,47.1,0,0,1-47,47H397.82V316.22h18.89a14.33,14.33,0,1,0,0-28.65H66.53a14.33,14.33,0,1,0,0,28.65H87.65v33.53h-12a47.1,47.1,0,0,1-47-47v-122a47.1,47.1,0,0,1,47-47H411a47.1,47.1,0,0,1,47,47Z"/><path class="cls-1" d="M150.89,386.68H333.3a14.33,14.33,0,0,0,0-28.65H150.89a14.33,14.33,0,0,0,0,28.65Z"/><path class="cls-1" d="M334.47,416.6H152a14.33,14.33,0,0,0,0,28.65H334.37a14.33,14.33,0,0,0,.11-28.65Z"/><path class="cls-1" d="M410.66,161.19H381.59a14.33,14.33,0,1,0,0,28.65h29.08a14.33,14.33,0,1,0,0-28.65Z"/></g></g></svg>