<?xml version="1.0" encoding="utf-8"?><svg xmlns="http://www.w3.org/2000/svg" xmlns:xlink="http://www.w3.org/1999/xlink"><symbol viewBox="0 0 417.19 512" id="close" xmlns="http://www.w3.org/2000/svg"><defs><style>.acls-1{fill:#91dc5a}</style></defs><title>close</title><g id="aСлой_2" data-name="Слой 2"><g id="aCapa_1" data-name="Capa 1"><path class="acls-1" d="M360.3 190.7v-53.22C360.3 61.68 292.24 0 208.59 0S56.89 61.68 56.89 137.48v53.22A68.6 68.6 0 0 0 0 258.18v185.29A68.62 68.62 0 0 0 68.54 512h280.1a68.62 68.62 0 0 0 68.54-68.54V258.17a68.6 68.6 0 0 0-56.88-67.47zM75.85 137.48C75.85 72.13 135.4 19 208.59 19s132.74 53.13 132.74 118.48v52.15H75.85zm322.37 306A49.64 49.64 0 0 1 348.64 493H68.54A49.64 49.64 0 0 1 19 443.46V258.17a49.64 49.64 0 0 1 49.58-49.58h280.1a49.64 49.64 0 0 1 49.58 49.58z"/><path class="acls-1" d="M208.59 265.48a38 38 0 0 0-37.93 37.93v56.89a37.93 37.93 0 0 0 75.85 0v-56.89a38 38 0 0 0-37.92-37.93zm19 94.81a19 19 0 0 1-37.93 0v-56.88a19 19 0 0 1 37.93 0z"/></g></g></symbol><symbol viewBox="0 0 40 53" id="del" xmlns="http://www.w3.org/2000/svg"><title>del</title><g data-name="Слой 2"><path d="M36.44 6H27V3a3 3 0 0 0-3-3h-8a3 3 0 0 0-3 3v3H3.56A3.56 3.56 0 0 0 0 9.56V14h40V9.56A3.56 3.56 0 0 0 36.44 6zM25 6H15V3a1 1 0 0 1 1-1h8a1 1 0 0 1 1 1zM2 49.27A3.73 3.73 0 0 0 5.73 53h28.54A3.73 3.73 0 0 0 38 49.27V16H2v33.27z" data-name="Capa 1"/></g></symbol><symbol viewBox="0 0 512 474.51" id="download" xmlns="http://www.w3.org/2000/svg"><defs><style>.ccls-1{fill:#fff}</style></defs><title>download</title><g id="cСлой_2" data-name="Слой 2"><g id="cCapa_1" data-name="Capa 1"><path class="ccls-1" d="M497.33 231.33A14.61 14.61 0 0 0 482.66 246v133.44a65.83 65.83 0 0 1-65.74 65.74H95.08a65.83 65.83 0 0 1-65.74-65.74V243.83a14.67 14.67 0 1 0-29.34 0v135.61a95.18 95.18 0 0 0 95.08 95.08h321.84A95.18 95.18 0 0 0 512 379.44V246a14.68 14.68 0 0 0-14.67-14.67z"/><path class="ccls-1" d="M245.68 358a14.76 14.76 0 0 0 10.32 4.38 14.31 14.31 0 0 0 10.32-4.38l93.23-93.23A14.68 14.68 0 0 0 338.8 244l-68.13 68.24V14.67a14.67 14.67 0 0 0-29.34 0v297.62L173.09 244a14.68 14.68 0 1 0-20.75 20.75z"/></g></g></symbol><symbol viewBox="0 0 528.9 526.32" id="edit" xmlns="http://www.w3.org/2000/svg"><title>redact</title><g data-name="Слой 2"><path d="M328.88 87.84l107.59 107.59-272.34 272.34L56.6 360.18zm189.23-25.95l-48-48a47.61 47.61 0 0 0-67.26 0l-46 46L464.5 167.46l53.61-53.61a36.68 36.68 0 0 0 0-51.96zM.3 511.4A12.24 12.24 0 0 0 15.11 526L135 496.9 27.47 389.31z" data-name="Capa 1"/></g></symbol><symbol viewBox="0 0 225 24" id="logo" xmlns="http://www.w3.org/2000/svg"><defs><style>.ecls-1{fill:url(#eБезымянный_градиент)}.ecls-2{fill:url(#eБезымянный_градиент_2)}.ecls-3{fill:url(#eБезымянный_градиент_3)}.ecls-4{opacity:.15}.ecls-5{fill:url(#eБезымянный_градиент_4)}</style><linearGradient id="eБезымянный_градиент" x1="128.45" y1="2" x2="128.45" y2="26" gradientTransform="matrix(1 0 0 -1 0 26)" gradientUnits="userSpaceOnUse"><stop offset="0" stop-color="#404040"/><stop offset=".18" stop-color="#3a3a3a"/><stop offset=".41" stop-color="#2a2a2a"/><stop offset=".5" stop-color="#212121"/><stop offset=".67" stop-color="#404040"/><stop offset=".67" stop-color="#3f3f3f"/><stop offset=".77" stop-color="#2e2e2e"/><stop offset=".87" stop-color="#242424"/><stop offset="1" stop-color="#212121"/></linearGradient><radialGradient id="eБезымянный_градиент_2" cx="11.97" cy="14.25" r="11.64" gradientTransform="matrix(1 0 0 -1 0 26)" gradientUnits="userSpaceOnUse"><stop offset="0"/><stop offset=".3" stop-color="#030303"/><stop offset=".54" stop-color="#0d0d0d"/><stop offset=".76" stop-color="#1e1e1e"/><stop offset=".96" stop-color="#363636"/><stop offset="1" stop-color="#3b3b3b"/></radialGradient><linearGradient id="eБезымянный_градиент_3" x1="22.24" y1="3.76" x2="1.76" y2="24.24" gradientTransform="matrix(1 0 0 -1 0 26)" gradientUnits="userSpaceOnUse"><stop offset="0" stop-color="#262626"/><stop offset=".22" stop-color="#2c2c2c"/><stop offset=".5" stop-color="#3b3b3b"/><stop offset="1"/></linearGradient><linearGradient id="eБезымянный_градиент_4" x1="12" y1="2" x2="12" y2="26" gradientTransform="matrix(1 0 0 -1 0 26)" gradientUnits="userSpaceOnUse"><stop offset="0" stop-color="#262626"/><stop offset="1" stop-color="#262626"/></linearGradient></defs><title>logo</title><g id="eСлой_2" data-name="Слой 2"><g id="eСлой_1-2" data-name="Слой 1"><path class="ecls-1" d="M31.91 10.22V9.16a6.76 6.76 0 0 1 .1-1 4.82 4.82 0 0 1 .27-.94 2.12 2.12 0 0 1 .54-.78 2.24 2.24 0 0 1 .8-.51 4.73 4.73 0 0 1 1-.25 9.35 9.35 0 0 1 1.11-.09h6.37v5h-2.65V7.72h-3.11a2.15 2.15 0 0 0-1 .2 1.31 1.31 0 0 0-.55.55 2.14 2.14 0 0 0-.22.82v5.19a2.14 2.14 0 0 0 .22.82 1.31 1.31 0 0 0 .55.55 2.15 2.15 0 0 0 1 .2h5.76v2.19h-6.36a9.28 9.28 0 0 1-1.11-.09 4.72 4.72 0 0 1-1-.25 2.23 2.23 0 0 1-.8-.51 2.12 2.12 0 0 1-.54-.78 4.81 4.81 0 0 1-.27-.94 6.76 6.76 0 0 1-.1-1v-1.06zm24.41.61h-2.65v-.56q0-.59-.05-1.17a1.5 1.5 0 0 0-.36-.92 1.31 1.31 0 0 0-.87-.41q-.53-.05-1.07-.05H49v8.41h2.11v2.19h-7v-2.19h2.19V7.72h-2.16V5.53h8.33a9.88 9.88 0 0 1 1.13.09 4.78 4.78 0 0 1 1 .25 2.52 2.52 0 0 1 .83.5 2.39 2.39 0 0 1 .52.78 4.46 4.46 0 0 1 .28 1 7.2 7.2 0 0 1 .1 1.07v1.07zm1.07-5.3h6.27v2.19h-1.84L65.18 16l3.36-8.31h-1.83V5.53h6.22v2.19H71l-5.72 14.09h2.14V24H61v-2.19h1.89l.82-2.27-4.8-11.82h-1.53zM81 24h-7v-2.19h2.19V7.72h-2.25V5.53h10.32a5.85 5.85 0 0 1 .88.09 3.08 3.08 0 0 1 .79.25 2 2 0 0 1 .65.51 2.71 2.71 0 0 1 .41.78 4.77 4.77 0 0 1 .22.94 10.12 10.12 0 0 1 .08 1v5.52a10.05 10.05 0 0 1-.08 1 4.77 4.77 0 0 1-.22.94 2.7 2.7 0 0 1-.41.78 2 2 0 0 1-.65.51 3.07 3.07 0 0 1-.79.25 5.8 5.8 0 0 1-.88.09h-5.47V22H81zM78.79 7.72v8.41h4.59a1.39 1.39 0 0 0 .79-.19 1 1 0 0 0 .39-.51 2.44 2.44 0 0 0 .13-.75V9.17a2.44 2.44 0 0 0-.13-.75 1 1 0 0 0-.39-.51 1.39 1.39 0 0 0-.79-.19zm15.9-5.5v3.31h3.11v2.19h-3.12v7a2.5 2.5 0 0 0 .18 1.07q.18.36 1 .36h2.7v2.19H95a7.09 7.09 0 0 1-.87-.08 4.46 4.46 0 0 1-.79-.19 1.61 1.61 0 0 1-.62-.38 2.08 2.08 0 0 1-.62-1.33 15 15 0 0 1-.1-1.67v-7h-2.41V5.53H92V2.22zm6.17 8V9.16a6.76 6.76 0 0 1 .1-1 4.82 4.82 0 0 1 .27-.94 2.12 2.12 0 0 1 .54-.78 2.24 2.24 0 0 1 .8-.51 4.73 4.73 0 0 1 1-.25 9.35 9.35 0 0 1 1.11-.09H109a9.29 9.29 0 0 1 1.1.09 4.73 4.73 0 0 1 1 .25 2.52 2.52 0 0 1 .83.51 2.46 2.46 0 0 1 .52.78 4.34 4.34 0 0 1 .28.94 6.87 6.87 0 0 1 .1 1v5.53a6.87 6.87 0 0 1-.1 1 4.33 4.33 0 0 1-.28.94 2.45 2.45 0 0 1-.52.78 2.5 2.5 0 0 1-.83.51 4.72 4.72 0 0 1-1 .25 9.21 9.21 0 0 1-1.1.09h-4.29a9.28 9.28 0 0 1-1.11-.09 4.72 4.72 0 0 1-1-.25 2.23 2.23 0 0 1-.8-.51 2.12 2.12 0 0 1-.54-.78 4.81 4.81 0 0 1-.27-.94 6.76 6.76 0 0 1-.1-1v-1.06zm5-2.5q-.53 0-1.08.05a1.22 1.22 0 0 0-.85.41 1.65 1.65 0 0 0-.36 1q-.05.6-.05 1.19v3.19q0 .59.05 1.19a1.65 1.65 0 0 0 .36 1 1.22 1.22 0 0 0 .85.41q.55.05 1.08.05h2q.54 0 1.08-.05a1.22 1.22 0 0 0 .85-.41 1.65 1.65 0 0 0 .36-1q.05-.6.05-1.19v-3.23q0-.59-.05-1.19a1.65 1.65 0 0 0-.36-1 1.22 1.22 0 0 0-.85-.41q-.55-.05-1.08-.05zm9.66 7H118v1.38h4.71a1.46 1.46 0 0 0 1.1-.33 1.69 1.69 0 0 0 .31-1.15 1.85 1.85 0 0 0-.39-1.35 1.57 1.57 0 0 0-1.13-.38h-3.08a15.23 15.23 0 0 1-1.94-.11 2.38 2.38 0 0 1-1.43-.65 2 2 0 0 1-.65-1.25 11.72 11.72 0 0 1-.11-1.68v-.9a7.6 7.6 0 0 1 .08-.9 3 3 0 0 1 .22-.78 1.33 1.33 0 0 1 .43-.55 3.17 3.17 0 0 1 .6-.32 2.91 2.91 0 0 1 .65-.17 7.2 7.2 0 0 1 .79-.06h8.08v3.6h-2.55v-1.4h-4.28a3.83 3.83 0 0 0-.93.09 1 1 0 0 0-.51.27.84.84 0 0 0-.2.48 5.37 5.37 0 0 0 0 .68q0 1 .32 1.25a1.93 1.93 0 0 0 1.21.19h3.06q1 0 1.92.06a2.31 2.31 0 0 1 1.41.5 1.6 1.6 0 0 1 .41.62 5 5 0 0 1 .24.87 7.21 7.21 0 0 1 .11 1v1.83a6.19 6.19 0 0 1-.09.9 3.58 3.58 0 0 1-.23.79 1.32 1.32 0 0 1-.43.56 2 2 0 0 1-.74.31 8.08 8.08 0 0 1-1 .15q-.55.05-1.13.06h-7.33zm18.3-12.5v3.31h3.11v2.19h-3.11v7a2.5 2.5 0 0 0 .18 1.07q.18.36 1 .36h2.7v2.19h-3.58a7.09 7.09 0 0 1-.87-.08 4.46 4.46 0 0 1-.79-.19 1.61 1.61 0 0 1-.62-.38 2.08 2.08 0 0 1-.62-1.33 15 15 0 0 1-.09-1.63v-7h-2.4v-2.2h2.4V2.22zm16.84 13.91h2v2.19h-8.86q-.82 0-1.67-.08a2.31 2.31 0 0 1-1.39-.56 1.62 1.62 0 0 1-.42-.6 3.36 3.36 0 0 1-.2-.74 6.23 6.23 0 0 1-.08-.82v-1.69a7.85 7.85 0 0 1 .08-.9 4.06 4.06 0 0 1 .2-.83 2 2 0 0 1 .42-.69 2.33 2.33 0 0 1 1.41-.66 14.34 14.34 0 0 1 1.69-.1h4.28V9.2A5 5 0 0 0 148 8q-.1-.39-.76-.39h-6.68V5.53h7.58a6 6 0 0 1 .78.08 3.68 3.68 0 0 1 .71.19 1.44 1.44 0 0 1 .56.38 1.68 1.68 0 0 1 .36.87 7.93 7.93 0 0 1 .08 1.12zm-2.52-3.34h-4.69a1.36 1.36 0 0 0-.68.14.79.79 0 0 0-.34.38 1.67 1.67 0 0 0-.11.59v1.37a1.08 1.08 0 0 0 .14.46.73.73 0 0 0 .36.29 1.79 1.79 0 0 0 .68.1h4.64zm6.27-7.26h19.29a9.79 9.79 0 0 1 1.13.09 4.73 4.73 0 0 1 1 .25 2.52 2.52 0 0 1 .83.51 2.42 2.42 0 0 1 .52.79 4.55 4.55 0 0 1 .28 1 7.16 7.16 0 0 1 .1 1.07v6.9h2.19v2.19h-7v-2.2h2.19v-5.86q0-.59-.05-1.18a1.51 1.51 0 0 0-.36-.92 1.31 1.31 0 0 0-.87-.41q-.53-.05-1.07-.05h-4.18v8.41h2.19v2.19h-7v-2.18h2.19V7.72h-6.47v8.41h2.19v2.19h-7v-2.19h2.19V7.72h-2.3zM188.34 24h-7v-2.19h2.19V7.72h-2.19V5.53h10.32a5.85 5.85 0 0 1 .88.09 3.08 3.08 0 0 1 .79.25 2 2 0 0 1 .65.51 2.72 2.72 0 0 1 .41.78 4.79 4.79 0 0 1 .22.94 10.12 10.12 0 0 1 .08 1v5.52a10.05 10.05 0 0 1-.08 1 4.78 4.78 0 0 1-.22.94 2.71 2.71 0 0 1-.41.78 2 2 0 0 1-.65.51 3.07 3.07 0 0 1-.79.25 5.8 5.8 0 0 1-.88.09h-5.48V22h2.19zm-2.19-16.28v8.41h4.59a1.39 1.39 0 0 0 .79-.19 1 1 0 0 0 .4-.51 2.44 2.44 0 0 0 .13-.75V9.17a2.44 2.44 0 0 0-.13-.75 1 1 0 0 0-.4-.51 1.39 1.39 0 0 0-.79-.19zm23.08 8.41v2.19H201a9.27 9.27 0 0 1-1.11-.09 4.71 4.71 0 0 1-1-.25 2.23 2.23 0 0 1-.8-.51 2.12 2.12 0 0 1-.54-.78 4.79 4.79 0 0 1-.27-.94 6.75 6.75 0 0 1-.1-1V9.16a6.75 6.75 0 0 1 .1-1 4.8 4.8 0 0 1 .27-.94 2.12 2.12 0 0 1 .54-.78 2.24 2.24 0 0 1 .8-.51 4.73 4.73 0 0 1 1-.25 9.35 9.35 0 0 1 1.11-.14h4.29a9.29 9.29 0 0 1 1.1.09 4.74 4.74 0 0 1 1 .25 2.52 2.52 0 0 1 .83.51 2.47 2.47 0 0 1 .52.78 4.34 4.34 0 0 1 .28.94 6.84 6.84 0 0 1 .1 1V13h-9.43v.56q0 .59.05 1.18a1.64 1.64 0 0 0 .36 1 1.22 1.22 0 0 0 .85.41q.55.05 1.08.05zm-9.43-5.23h6.78v-.56q0-.59-.05-1.19a1.67 1.67 0 0 0-.36-1 1.22 1.22 0 0 0-.85-.41q-.55-.05-1.08-.05h-2.09q-.54 0-1.08.05a1.22 1.22 0 0 0-.85.41 1.66 1.66 0 0 0-.36 1q-.05.6-.05 1.19zM218 0h4.84v16.13H225v2.19h-10.32a5.8 5.8 0 0 1-.88-.09 3.27 3.27 0 0 1-.8-.23 1.69 1.69 0 0 1-.64-.51 2.21 2.21 0 0 1-.42-.78 5.4 5.4 0 0 1-.2-.94 9.91 9.91 0 0 1-.08-1v-5.6a10 10 0 0 1 .08-1 5.41 5.41 0 0 1 .2-.94 2.21 2.21 0 0 1 .42-.78 2.15 2.15 0 0 1 1.43-.75 14 14 0 0 1 1.78-.11h4.59V2H218zm-3.7 13.73v.95a2.58 2.58 0 0 0 .13.77 1 1 0 0 0 .4.51 1.46 1.46 0 0 0 .79.18h4.59V7.72h-4.59a1.38 1.38 0 0 0-.8.19 1.05 1.05 0 0 0-.38.51 2.45 2.45 0 0 0-.13.75v.89z"/><path class="ecls-2" d="M13.58 12.15c0 .17-.14.26-.34.26h-2.47a.34.34 0 0 1-.25-.09l-.05-.07a1.63 1.63 0 0 1-.06-.46v-.84a1.6 1.6 0 0 1 .06-.42.29.29 0 0 1 .32-.2h2.47c.2 0 .32.09.34.26a3.6 3.6 0 0 1 0 .49v.68a3.71 3.71 0 0 1-.02.39zM24 6v12a6 6 0 0 1-6 6H6a6 6 0 0 1-6-6V6a6 6 0 0 1 6-6h12a6 6 0 0 1 6 6zM7.85 16.78a6.49 6.49 0 0 1 0-10l-1.3-1.51a8.5 8.5 0 0 0 0 13.06zm7.8 1.22v-1a2.58 2.58 0 0 0-.39-1.41 3.1 3.1 0 0 0-1.07-1l-.65-.36a2 2 0 0 0 .69-.2 2.34 2.34 0 0 0 .73-.56 2.39 2.39 0 0 0 .46-.8 2.82 2.82 0 0 0 .15-.92v-.87a2.82 2.82 0 0 0-.15-.92 2.39 2.39 0 0 0-.46-.8 2.32 2.32 0 0 0-.73-.56 2.13 2.13 0 0 0-1-.21h-2.81V6a1.64 1.64 0 0 1 .06-.46.29.29 0 0 1 .32-.2h2.47c.2 0 .32.09.34.26a3.6 3.6 0 0 1 0 .49v.73h1.93v-.88a2.82 2.82 0 0 0-.11-.94 2.39 2.39 0 0 0-.46-.8 2.32 2.32 0 0 0-.73-.57 2.13 2.13 0 0 0-1-.21h-2.53a2.32 2.32 0 0 0-1 .2A2 2 0 0 0 9 4.2a2.47 2.47 0 0 0-.45.8 3.07 3.07 0 0 0-.15 1v5.96a2.57 2.57 0 0 0 .4 1.42 3 3 0 0 0 1.06 1l1.64.94 1.64.94a.82.82 0 0 1 .49.75v1a2.08 2.08 0 0 1 0 .45.27.27 0 0 1-.31.21h-2.66c-.2 0-.31-.08-.33-.25s0-.33 0-.51v-.71h-2v.87a2.7 2.7 0 0 0 .16.94 2.29 2.29 0 0 0 .47.78 2.36 2.36 0 0 0 .73.53 2.18 2.18 0 0 0 .94.2h2.68a2.09 2.09 0 0 0 1.69-.7 2.69 2.69 0 0 0 .65-1.82zm4.85-6.24a8.48 8.48 0 0 0-3.05-6.52l-1.29 1.57a6.49 6.49 0 0 1 0 10l1.29 1.55a8.48 8.48 0 0 0 3.07-6.54z"/><path class="ecls-3" d="M13.58 12.15c0 .17-.14.26-.34.26h-2.47a.34.34 0 0 1-.25-.09l-.05-.07a1.63 1.63 0 0 1-.06-.46v-.84a1.6 1.6 0 0 1 .06-.42.29.29 0 0 1 .32-.2h2.47c.2 0 .32.09.34.26a3.6 3.6 0 0 1 0 .49v.68a3.71 3.71 0 0 1-.02.39zM24 6v12a6 6 0 0 1-6 6H6a6 6 0 0 1-6-6V6a6 6 0 0 1 6-6h12a6 6 0 0 1 6 6zM7.85 16.78a6.49 6.49 0 0 1 0-10l-1.3-1.51a8.5 8.5 0 0 0 0 13.06zm7.8 1.22v-1a2.58 2.58 0 0 0-.39-1.41 3.1 3.1 0 0 0-1.07-1l-.65-.36a2 2 0 0 0 .69-.2 2.34 2.34 0 0 0 .73-.56 2.39 2.39 0 0 0 .46-.8 2.82 2.82 0 0 0 .15-.92v-.87a2.82 2.82 0 0 0-.15-.92 2.39 2.39 0 0 0-.46-.8 2.32 2.32 0 0 0-.73-.56 2.13 2.13 0 0 0-1-.21h-2.81V6a1.64 1.64 0 0 1 .06-.46.29.29 0 0 1 .32-.2h2.47c.2 0 .32.09.34.26a3.6 3.6 0 0 1 0 .49v.73h1.93v-.88a2.82 2.82 0 0 0-.11-.94 2.39 2.39 0 0 0-.46-.8 2.32 2.32 0 0 0-.73-.57 2.13 2.13 0 0 0-1-.21h-2.53a2.32 2.32 0 0 0-1 .2A2 2 0 0 0 9 4.2a2.47 2.47 0 0 0-.45.8 3.07 3.07 0 0 0-.15 1v5.96a2.57 2.57 0 0 0 .4 1.42 3 3 0 0 0 1.06 1l1.64.94 1.64.94a.82.82 0 0 1 .49.75v1a2.08 2.08 0 0 1 0 .45.27.27 0 0 1-.31.21h-2.66c-.2 0-.31-.08-.33-.25s0-.33 0-.51v-.71h-2v.87a2.7 2.7 0 0 0 .16.94 2.29 2.29 0 0 0 .47.78 2.36 2.36 0 0 0 .73.53 2.18 2.18 0 0 0 .94.2h2.68a2.09 2.09 0 0 0 1.69-.7 2.69 2.69 0 0 0 .65-1.82zm4.85-6.24a8.48 8.48 0 0 0-3.05-6.52l-1.29 1.57a6.49 6.49 0 0 1 0 10l1.29 1.55a8.48 8.48 0 0 0 3.07-6.54z"/><g class="ecls-4"><path class="ecls-5" d="M18 1a5 5 0 0 1 5 5v12a5 5 0 0 1-5 5H6a5 5 0 0 1-5-5V6a5 5 0 0 1 5-5h12M7.54 4.9l-.23-.27a1 1 0 0 0-1.4-.13 9.5 9.5 0 0 0 0 14.6 1 1 0 0 0 .64.23h.09a1 1 0 0 0 .69-.33l.09-.11a3.63 3.63 0 0 0 .15.53 3.3 3.3 0 0 0 .68 1.11 3.36 3.36 0 0 0 1 .75 3.18 3.18 0 0 0 1.37.3h2.68a3.1 3.1 0 0 0 2.46-1.09 3.54 3.54 0 0 0 .77-1.61l.1.12a1 1 0 0 0 .68.36h.09a1 1 0 0 0 .64-.23 9.5 9.5 0 0 0 0-14.6 1 1 0 0 0-1.41.13l-.24.29-.07-.22a3.39 3.39 0 0 0-.65-1.13 3.33 3.33 0 0 0-1-.81 3.13 3.13 0 0 0-1.41-.32h-2.55a3.32 3.32 0 0 0-1.39.29 3 3 0 0 0-1.08.82A3.48 3.48 0 0 0 7.6 4.7l-.06.2m5.11 1.43v.48a1 1 0 0 0 .2.59h-1.43V6.33h1.22m3.12 1.47a5.49 5.49 0 0 1 .45 7.51l-.11-.19a3.89 3.89 0 0 0-.59-.72l.21-.22a3.39 3.39 0 0 0 .65-1.18 3.83 3.83 0 0 0 .21-1.24v-.94a3.83 3.83 0 0 0-.21-1.2 3.39 3.39 0 0 0-.65-1.13 3.32 3.32 0 0 0-.87-.72h.91M7.4 8.8v3.15a3.57 3.57 0 0 0 .56 2 4 4 0 0 0 1.4 1.33l1.63.94 1.63.94v.59h-1.31v-.46a1 1 0 0 0-1-1H8.69a1 1 0 0 0-.2-.29A5.49 5.49 0 0 1 7.4 8.8m5.21 2.49v.12h-1.22v-.12h1.22M18 0H6a6 6 0 0 0-6 6v12a6 6 0 0 0 6 6h12a6 6 0 0 0 6-6V6a6 6 0 0 0-6-6zm-7.34 18.69h2.61a.27.27 0 0 0 .31-.21 2.08 2.08 0 0 0 0-.45V17a.82.82 0 0 0-.49-.75l-1.64-.94-1.64-.94a3 3 0 0 1-1.06-1 2.57 2.57 0 0 1-.4-1.42V6a3.07 3.07 0 0 1 .15-1 2.47 2.47 0 0 1 .5-.8 2 2 0 0 1 .73-.55 2.32 2.32 0 0 1 1-.2h2.57a2.13 2.13 0 0 1 1 .21 2.32 2.32 0 0 1 .73.56 2.39 2.39 0 0 1 .46.8 2.82 2.82 0 0 1 .15.92v.87h-1.99v-.73a3.6 3.6 0 0 0 0-.49c0-.17-.14-.26-.34-.26H10.8a.29.29 0 0 0-.32.2 1.64 1.64 0 0 0-.06.46v2.43h2.84a2.13 2.13 0 0 1 1 .21 2.32 2.32 0 0 1 .73.56 2.39 2.39 0 0 1 .46.8 2.82 2.82 0 0 1 .15.92v.87a2.82 2.82 0 0 1-.15.92 2.39 2.39 0 0 1-.46.8 2.34 2.34 0 0 1-.73.56 2 2 0 0 1-.69.2l.65.36a3.1 3.1 0 0 1 1.07 1 2.58 2.58 0 0 1 .39 1.41v1a2.69 2.69 0 0 1-.68 1.79 2.09 2.09 0 0 1-1.69.73h-2.65a2.18 2.18 0 0 1-.94-.2 2.36 2.36 0 0 1-.72-.53 2.29 2.29 0 0 1-.48-.82 2.7 2.7 0 0 1-.16-.94v-.87h2v1.22c0 .17.13.25.33.25zm6.78-.36l-1.29-1.55a6.49 6.49 0 0 0 0-10l1.29-1.54a8.5 8.5 0 0 1 0 13.06zm-10.87 0a8.5 8.5 0 0 1 0-13.06l1.27 1.54a6.49 6.49 0 0 0 0 10zm6.67-8h-2.48a.29.29 0 0 0-.32.2 1.6 1.6 0 0 0-.06.42v.84a1.63 1.63 0 0 0 .06.46l.05.07a.34.34 0 0 0 .25.09h2.47c.2 0 .32-.09.34-.26a3.71 3.71 0 0 0 0-.43V11a3.6 3.6 0 0 0 0-.49c0-.13-.11-.22-.32-.22z"/></g></g></g></symbol><symbol viewBox="0 0 44 54" id="open" xmlns="http://www.w3.org/2000/svg"><title>open</title><style>path{fill:#cb0000}</style><g id="fСлой_2" data-name="Слой 2"><g id="fCapa_1" data-name="Capa 1"><path d="M38 20.11V14.5C38 6.51 30.82 0 22 0S6 6.51 6 14.5a1 1 0 0 0 2 0C8 7.61 14.28 2 22 2s14 5.61 14 12.5V20H7.23A7.24 7.24 0 0 0 0 27.23v19.54A7.24 7.24 0 0 0 7.23 54h29.54A7.24 7.24 0 0 0 44 46.77V27.23a7.24 7.24 0 0 0-6-7.12zm4 26.66A5.24 5.24 0 0 1 36.77 52H7.23A5.24 5.24 0 0 1 2 46.77V27.23A5.24 5.24 0 0 1 7.23 22h29.54A5.24 5.24 0 0 1 42 27.23z"/><path d="M22 28a4 4 0 0 0-4 4v6a4 4 0 0 0 8 0v-6a4 4 0 0 0-4-4zm2 10a2 2 0 0 1-4 0v-6a2 2 0 0 1 4 0z"/></g></g></symbol><symbol viewBox="0 0 486.64 512" id="print" xmlns="http://www.w3.org/2000/svg"><defs><style>.gcls-1{fill:#006df0}</style></defs><title>print</title><g id="gСлой_2" data-name="Слой 2"><g id="gCapa_1" data-name="Capa 1"><path class="gcls-1" d="M411 104.95h-13.18V75.66A75.77 75.77 0 0 0 322.16 0H163.31a75.77 75.77 0 0 0-75.66 75.66v29.29h-12A75.77 75.77 0 0 0 0 180.61v122a75.77 75.77 0 0 0 75.66 75.69h11.88v95.93A37.86 37.86 0 0 0 125.32 512h234.62a37.86 37.86 0 0 0 37.78-37.78V378.3H411a75.77 75.77 0 0 0 75.66-75.66v-122A75.77 75.77 0 0 0 411 104.95zM116.19 75.66a47.1 47.1 0 0 1 47-47h158.76a47.1 47.1 0 0 1 47 47v29.29H116.19zm252.87 398.78a9.19 9.19 0 0 1-9.13 9.13H125.32a9.19 9.19 0 0 1-9.13-9.13V316.22h252.87zM458 302.74a47.1 47.1 0 0 1-47 47h-13.18v-33.52h18.89a14.33 14.33 0 1 0 0-28.65H66.53a14.33 14.33 0 1 0 0 28.65h21.12v33.53h-12a47.1 47.1 0 0 1-47-47v-122a47.1 47.1 0 0 1 47-47H411a47.1 47.1 0 0 1 47 47z"/><path class="gcls-1" d="M150.89 386.68H333.3a14.33 14.33 0 0 0 0-28.65H150.89a14.33 14.33 0 0 0 0 28.65zm183.58 29.92H152a14.33 14.33 0 0 0 0 28.65h182.37a14.33 14.33 0 0 0 .11-28.65zm76.19-255.41h-29.07a14.33 14.33 0 1 0 0 28.65h29.08a14.33 14.33 0 1 0 0-28.65z"/></g></g></symbol></svg>