<?xml version="1.0" encoding="utf-8"?><svg xmlns="http://www.w3.org/2000/svg" xmlns:xlink="http://www.w3.org/1999/xlink"><symbol viewBox="0 0 417.19 512" id="close" xmlns="http://www.w3.org/2000/svg"><defs><style>.acls-1{fill:#91dc5a}</style></defs><title>close</title><g id="aСлой_2" data-name="Слой 2"><g id="aCapa_1" data-name="Capa 1"><path class="acls-1" d="M360.3 190.7v-53.22C360.3 61.68 292.24 0 208.59 0S56.89 61.68 56.89 137.48v53.22A68.6 68.6 0 0 0 0 258.18v185.29A68.62 68.62 0 0 0 68.54 512h280.1a68.62 68.62 0 0 0 68.54-68.54V258.17a68.6 68.6 0 0 0-56.88-67.47zM75.85 137.48C75.85 72.13 135.4 19 208.59 19s132.74 53.13 132.74 118.48v52.15H75.85zm322.37 306A49.64 49.64 0 0 1 348.64 493H68.54A49.64 49.64 0 0 1 19 443.46V258.17a49.64 49.64 0 0 1 49.58-49.58h280.1a49.64 49.64 0 0 1 49.58 49.58z"/><path class="acls-1" d="M208.59 265.48a38 38 0 0 0-37.93 37.93v56.89a37.93 37.93 0 0 0 75.85 0v-56.89a38 38 0 0 0-37.92-37.93zm19 94.81a19 19 0 0 1-37.93 0v-56.88a19 19 0 0 1 37.93 0z"/></g></g></symbol><symbol viewBox="0 0 40 53" id="del" xmlns="http://www.w3.org/2000/svg"><title>del</title><g data-name="Слой 2"><path d="M36.44 6H27V3a3 3 0 0 0-3-3h-8a3 3 0 0 0-3 3v3H3.56A3.56 3.56 0 0 0 0 9.56V14h40V9.56A3.56 3.56 0 0 0 36.44 6zM25 6H15V3a1 1 0 0 1 1-1h8a1 1 0 0 1 1 1zM2 49.27A3.73 3.73 0 0 0 5.73 53h28.54A3.73 3.73 0 0 0 38 49.27V16H2v33.27z" data-name="Capa 1"/></g></symbol><symbol viewBox="0 0 512 474.51" id="download" xmlns="http://www.w3.org/2000/svg"><defs><style>.ccls-1{fill:#fff}</style></defs><title>download</title><g id="cСлой_2" data-name="Слой 2"><g id="cCapa_1" data-name="Capa 1"><path class="ccls-1" d="M497.33 231.33A14.61 14.61 0 0 0 482.66 246v133.44a65.83 65.83 0 0 1-65.74 65.74H95.08a65.83 65.83 0 0 1-65.74-65.74V243.83a14.67 14.67 0 1 0-29.34 0v135.61a95.18 95.18 0 0 0 95.08 95.08h321.84A95.18 95.18 0 0 0 512 379.44V246a14.68 14.68 0 0 0-14.67-14.67z"/><path class="ccls-1" d="M245.68 358a14.76 14.76 0 0 0 10.32 4.38 14.31 14.31 0 0 0 10.32-4.38l93.23-93.23A14.68 14.68 0 0 0 338.8 244l-68.13 68.24V14.67a14.67 14.67 0 0 0-29.34 0v297.62L173.09 244a14.68 14.68 0 1 0-20.75 20.75z"/></g></g></symbol><symbol viewBox="0 0 528.9 526.32" id="edit" xmlns="http://www.w3.org/2000/svg"><title>redact</title><g data-name="Слой 2"><path d="M328.88 87.84l107.59 107.59-272.34 272.34L56.6 360.18zm189.23-25.95l-48-48a47.61 47.61 0 0 0-67.26 0l-46 46L464.5 167.46l53.61-53.61a36.68 36.68 0 0 0 0-51.96zM.3 511.4A12.24 12.24 0 0 0 15.11 526L135 496.9 27.47 389.31z" data-name="Capa 1"/></g></symbol><symbol viewBox="0 0 225 24" id="logo" xmlns="http://www.w3.org/2000/svg"><defs><style>.ea{isolation:isolate}.eb{fill:url(#ea)}.ec{fill:url(#eb)}.ed{mix-blend-mode:lighten}.ee{fill:url(#ec)}.ef{opacity:.15}.eg{fill:url(#ed)}</style><linearGradient id="ea" x1="128.454" y1="24" x2="128.454" gradientUnits="userSpaceOnUse"><stop offset="0" stop-color="#404040"/><stop offset=".176" stop-color="#3a3a3a"/><stop offset=".406" stop-color="#2a2a2a"/><stop offset=".5" stop-color="#212121"/><stop offset=".67" stop-color="#404040"/><stop offset=".674" stop-color="#3f3f3f"/><stop offset=".769" stop-color="#2e2e2e"/><stop offset=".872" stop-color="#242424"/><stop offset="1" stop-color="#212121"/></linearGradient><radialGradient id="eb" cx="11.967" cy="11.752" r="11.642" gradientUnits="userSpaceOnUse"><stop offset="0"/><stop offset=".298" stop-color="#030303"/><stop offset=".537" stop-color="#0d0d0d"/><stop offset=".756" stop-color="#1e1e1e"/><stop offset=".962" stop-color="#363636"/><stop offset="1" stop-color="#3b3b3b"/></radialGradient><linearGradient id="ec" x1="22.238" y1="22.238" x2="1.762" y2="1.763" gradientUnits="userSpaceOnUse"><stop offset="0" stop-color="#262626"/><stop offset=".224" stop-color="#2c2c2c"/><stop offset=".5" stop-color="#3b3b3b"/><stop offset="1"/></linearGradient><linearGradient id="ed" x1="12" y1="24" x2="12" gradientUnits="userSpaceOnUse"><stop offset="0" stop-color="#262626"/><stop offset="1" stop-color="#262626"/></linearGradient></defs><title>Монтажная область 1 копия 2</title><g class="ea"><path class="eb" d="M31.907 10.217q0-.51.013-1.058a6.764 6.764 0 0 1 .102-1.044 4.816 4.816 0 0 1 .268-.943 2.123 2.123 0 0 1 .535-.777 2.236 2.236 0 0 1 .802-.51 4.73 4.73 0 0 1 1.006-.254 9.352 9.352 0 0 1 1.109-.09q.573-.012 1.108-.012h5.248v4.968h-2.65V7.72h-3.107a2.152 2.152 0 0 0-1.032.204 1.308 1.308 0 0 0-.548.55 2.139 2.139 0 0 0-.217.817q-.038.473-.038 1.035v3.195q0 .562.038 1.035a2.142 2.142 0 0 0 .217.818 1.308 1.308 0 0 0 .548.55 2.153 2.153 0 0 0 1.032.203h5.757v2.191H36.85q-.535 0-1.108-.012a9.276 9.276 0 0 1-1.109-.09 4.715 4.715 0 0 1-1.006-.254 2.226 2.226 0 0 1-.802-.51 2.117 2.117 0 0 1-.535-.777 4.808 4.808 0 0 1-.268-.942 6.761 6.761 0 0 1-.102-1.045q-.013-.548-.013-1.057zm24.408.611h-2.65v-.56q0-.586-.05-1.172a1.505 1.505 0 0 0-.358-.918 1.307 1.307 0 0 0-.866-.407q-.535-.051-1.07-.051h-2.344v8.407h2.115v2.191h-6.956v-2.19h2.191V7.72h-2.19V5.529h7.184q.56 0 1.147.012a9.883 9.883 0 0 1 1.133.088 4.775 4.775 0 0 1 1.02.252 2.524 2.524 0 0 1 .827.504 2.392 2.392 0 0 1 .523.78 4.461 4.461 0 0 1 .28.963 7.2 7.2 0 0 1 .102 1.07q.013.56.013 1.07zm1.07-5.3h6.267V7.72h-1.834l3.363 8.305 3.363-8.305H66.71V5.529h6.216v2.19h-1.91l-5.733 14.09h2.14V24h-6.42v-2.191h1.885l.815-2.268-4.79-11.821h-1.528zM80.977 24h-7.032v-2.191h2.191V7.719h-2.191V5.53h9.427q.433 0 .891.012a5.845 5.845 0 0 1 .88.09 3.078 3.078 0 0 1 .79.254 1.975 1.975 0 0 1 .649.51 2.707 2.707 0 0 1 .408.777 4.774 4.774 0 0 1 .216.943 10.122 10.122 0 0 1 .077 1.031q.012.536.012 1.02v3.516q0 .51-.012 1.031a10.053 10.053 0 0 1-.077 1.02 4.767 4.767 0 0 1-.216.942 2.698 2.698 0 0 1-.408.777 1.965 1.965 0 0 1-.65.51 3.07 3.07 0 0 1-.79.255 5.798 5.798 0 0 1-.879.089q-.458.013-.891.012h-4.586v3.644h2.19zM78.786 7.72v8.407h4.586a1.393 1.393 0 0 0 .79-.19 1.02 1.02 0 0 0 .394-.51 2.435 2.435 0 0 0 .128-.752q.012-.433.013-.892v-3.72q0-.458-.013-.891a2.44 2.44 0 0 0-.128-.752 1.022 1.022 0 0 0-.394-.51 1.392 1.392 0 0 0-.79-.19zm15.898-5.503v3.312h3.108v2.19h-3.108v6.977a2.498 2.498 0 0 0 .178 1.074q.178.358.994.357h2.7v2.191h-2.7q-.434 0-.88-.012a7.094 7.094 0 0 1-.866-.077 4.461 4.461 0 0 1-.79-.191 1.606 1.606 0 0 1-.624-.384 2.08 2.08 0 0 1-.624-1.328 15 15 0 0 1-.089-1.634V7.72h-2.395V5.529h2.395V2.217zm6.165 8q0-.51.013-1.058a6.764 6.764 0 0 1 .102-1.044 4.816 4.816 0 0 1 .267-.943 2.123 2.123 0 0 1 .535-.777 2.236 2.236 0 0 1 .803-.51 4.73 4.73 0 0 1 1.006-.254 9.352 9.352 0 0 1 1.108-.09q.574-.012 1.109-.012h2.089q.535 0 1.095.012a9.286 9.286 0 0 1 1.096.09 4.735 4.735 0 0 1 1.006.254 2.517 2.517 0 0 1 .828.51 2.463 2.463 0 0 1 .523.777 4.335 4.335 0 0 1 .28.943 6.87 6.87 0 0 1 .102 1.044q.012.548.013 1.058v3.414q0 .51-.013 1.057a6.868 6.868 0 0 1-.102 1.044 4.328 4.328 0 0 1-.28.943 2.455 2.455 0 0 1-.523.777 2.505 2.505 0 0 1-.828.51 4.72 4.72 0 0 1-1.006.255 9.209 9.209 0 0 1-1.096.089q-.56.013-1.095.012h-2.09q-.534 0-1.108-.012a9.276 9.276 0 0 1-1.108-.09 4.715 4.715 0 0 1-1.006-.254 2.226 2.226 0 0 1-.803-.51 2.117 2.117 0 0 1-.535-.777 4.808 4.808 0 0 1-.267-.943 6.761 6.761 0 0 1-.102-1.044q-.013-.548-.013-1.057zm4.994-2.497q-.535 0-1.083.051a1.22 1.22 0 0 0-.854.409 1.647 1.647 0 0 0-.356.958q-.052.6-.051 1.188v3.195q0 .588.05 1.188a1.645 1.645 0 0 0 .357.958 1.22 1.22 0 0 0 .854.41q.547.05 1.083.05h1.987q.535 0 1.083-.05a1.22 1.22 0 0 0 .853-.41 1.648 1.648 0 0 0 .357-.958q.05-.6.05-1.188v-3.195q0-.587-.05-1.188a1.65 1.65 0 0 0-.357-.958 1.221 1.221 0 0 0-.853-.409q-.548-.051-1.083-.051zm9.655 7.032h2.548v1.375h4.714a1.456 1.456 0 0 0 1.095-.33 1.685 1.685 0 0 0 .306-1.147 1.846 1.846 0 0 0-.395-1.35 1.566 1.566 0 0 0-1.134-.383h-3.083a15.234 15.234 0 0 1-1.936-.114 2.377 2.377 0 0 1-1.427-.65 1.947 1.947 0 0 1-.65-1.249 11.715 11.715 0 0 1-.114-1.681q0-.433.013-.905a7.596 7.596 0 0 1 .076-.904 2.965 2.965 0 0 1 .217-.777 1.327 1.327 0 0 1 .433-.548 3.171 3.171 0 0 1 .599-.318 2.913 2.913 0 0 1 .65-.166 7.199 7.199 0 0 1 .789-.064q.433-.012.994-.012h7.082V9.12h-2.547v-1.4h-4.28a3.83 3.83 0 0 0-.93.09 1.03 1.03 0 0 0-.51.27.84.84 0 0 0-.204.475 5.374 5.374 0 0 0-.038.681q0 1.003.318 1.247a1.932 1.932 0 0 0 1.21.192h3.058q.994 0 1.923.064a2.306 2.306 0 0 1 1.415.497 1.602 1.602 0 0 1 .407.624 4.963 4.963 0 0 1 .242.866 7.206 7.206 0 0 1 .115.968q.025.497.025.93 0 .434-.012.905a6.19 6.19 0 0 1-.09.904 3.581 3.581 0 0 1-.229.79 1.315 1.315 0 0 1-.433.56 1.972 1.972 0 0 1-.739.306 8.077 8.077 0 0 1-1.006.153q-.549.051-1.134.064-.586.013-1.147.012h-6.19zm18.319-12.535v3.312h3.108v2.19h-3.108v6.977a2.496 2.496 0 0 0 .178 1.074q.178.358.994.357h2.7v2.191h-2.7q-.434 0-.88-.012a7.092 7.092 0 0 1-.865-.077 4.463 4.463 0 0 1-.79-.191 1.607 1.607 0 0 1-.625-.384 2.08 2.08 0 0 1-.624-1.328 15 15 0 0 1-.089-1.634V7.72h-2.395V5.529h2.395V2.217zm16.84 13.91h2.013v2.191h-8.866q-.816 0-1.67-.076a2.31 2.31 0 0 1-1.387-.56 1.623 1.623 0 0 1-.421-.6 3.36 3.36 0 0 1-.204-.738 6.234 6.234 0 0 1-.076-.815q-.013-.42-.013-.803 0-.433.013-.892a7.847 7.847 0 0 1 .076-.904 4.062 4.062 0 0 1 .204-.828 2.048 2.048 0 0 1 .42-.688 2.325 2.325 0 0 1 1.414-.662 14.338 14.338 0 0 1 1.695-.102h4.28V9.197a4.973 4.973 0 0 0-.102-1.159q-.102-.395-.764-.395h-6.676V5.53h6.803q.382 0 .777.012a5.988 5.988 0 0 1 .777.077 3.68 3.68 0 0 1 .714.19 1.442 1.442 0 0 1 .56.383 1.678 1.678 0 0 1 .357.866 7.93 7.93 0 0 1 .076 1.121zm-2.522-3.337h-4.688a1.355 1.355 0 0 0-.675.14.786.786 0 0 0-.344.382 1.667 1.667 0 0 0-.115.586q-.013.344-.012.752 0 .357.025.624a1.077 1.077 0 0 0 .14.458.726.726 0 0 0 .357.293 1.788 1.788 0 0 0 .675.102h4.637zm6.267-7.261h18.14q.56 0 1.147.012a9.79 9.79 0 0 1 1.133.09 4.726 4.726 0 0 1 1.02.254 2.518 2.518 0 0 1 .828.51 2.423 2.423 0 0 1 .522.79 4.552 4.552 0 0 1 .28.968 7.155 7.155 0 0 1 .102 1.07q.013.56.013 1.07v5.834h2.191v2.191h-7.032v-2.19h2.191v-5.853q0-.588-.05-1.175a1.51 1.51 0 0 0-.358-.92 1.305 1.305 0 0 0-.866-.409q-.535-.051-1.07-.051h-4.178v8.407h2.191v2.191h-7.032v-2.19h2.191V7.72h-6.471v8.407h2.191v2.191h-7.032v-2.19h2.191V7.72h-2.242zM188.338 24h-7.032v-2.191h2.191V7.719h-2.19V5.53h9.426q.433 0 .892.012a5.848 5.848 0 0 1 .879.09 3.078 3.078 0 0 1 .79.254 1.977 1.977 0 0 1 .65.51 2.716 2.716 0 0 1 .407.777 4.792 4.792 0 0 1 .217.943 10.122 10.122 0 0 1 .076 1.031q.012.536.013 1.02v3.516q0 .51-.013 1.031a10.053 10.053 0 0 1-.076 1.02 4.784 4.784 0 0 1-.217.942 2.707 2.707 0 0 1-.408.777 1.968 1.968 0 0 1-.65.51 3.069 3.069 0 0 1-.79.255 5.801 5.801 0 0 1-.878.089q-.459.013-.892.012h-4.586v3.644h2.191zm-2.19-16.28v8.407h4.585a1.393 1.393 0 0 0 .79-.19 1.02 1.02 0 0 0 .395-.51 2.44 2.44 0 0 0 .127-.752q.013-.433.013-.892v-3.72q0-.458-.013-.891a2.444 2.444 0 0 0-.127-.752 1.021 1.021 0 0 0-.395-.51 1.391 1.391 0 0 0-.79-.19zm23.082 8.407v2.191h-7.083q-.535 0-1.108-.012a9.27 9.27 0 0 1-1.109-.09 4.714 4.714 0 0 1-1.006-.254 2.226 2.226 0 0 1-.803-.51 2.116 2.116 0 0 1-.535-.777 4.792 4.792 0 0 1-.267-.942 6.746 6.746 0 0 1-.102-1.045q-.013-.548-.013-1.057v-3.414q0-.51.013-1.058a6.749 6.749 0 0 1 .102-1.044 4.8 4.8 0 0 1 .267-.943 2.122 2.122 0 0 1 .535-.777 2.236 2.236 0 0 1 .803-.51 4.729 4.729 0 0 1 1.006-.254 9.345 9.345 0 0 1 1.109-.09q.573-.012 1.108-.012h2.089q.535 0 1.095.012a9.286 9.286 0 0 1 1.096.09 4.736 4.736 0 0 1 1.007.254 2.517 2.517 0 0 1 .828.51 2.467 2.467 0 0 1 .522.777 4.342 4.342 0 0 1 .28.943 6.84 6.84 0 0 1 .102 1.044q.013.548.013 1.058v2.751h-9.427v.56q0 .587.05 1.185a1.641 1.641 0 0 0 .358.956 1.22 1.22 0 0 0 .853.407q.548.052 1.083.051zm-9.427-5.223h6.777v-.564q0-.591-.051-1.195a1.666 1.666 0 0 0-.357-.963 1.219 1.219 0 0 0-.853-.41q-.548-.052-1.083-.052h-2.089q-.535 0-1.083.051a1.219 1.219 0 0 0-.853.41 1.664 1.664 0 0 0-.357.964q-.052.604-.051 1.195zM217.968 0h4.84v16.127H225v2.191h-9.427q-.433 0-.892-.012a5.801 5.801 0 0 1-.878-.09 3.268 3.268 0 0 1-.803-.254 1.692 1.692 0 0 1-.637-.51 2.206 2.206 0 0 1-.42-.777 5.403 5.403 0 0 1-.204-.942 9.915 9.915 0 0 1-.077-1.02q-.013-.521-.012-1.031v-3.516q0-.484.012-1.02a9.985 9.985 0 0 1 .077-1.031 5.412 5.412 0 0 1 .204-.943 2.213 2.213 0 0 1 .42-.777 2.147 2.147 0 0 1 1.427-.752 13.954 13.954 0 0 1 1.783-.114h4.586v-3.49h-2.19zM214.3 13.725q0 .511.013.946a2.582 2.582 0 0 0 .127.766.957.957 0 0 0 .395.512 1.464 1.464 0 0 0 .79.178h4.586V7.72h-4.586a1.378 1.378 0 0 0-.802.192 1.05 1.05 0 0 0-.383.51 2.448 2.448 0 0 0-.127.754q-.013.435-.013.895z"/><path class="ec" d="M13.578 12.154c-.023.173-.137.259-.341.259h-2.471a.338.338 0 0 1-.248-.086.726.726 0 0 1-.05-.073.383.383 0 0 1-.02-.041 1.634 1.634 0 0 1-.059-.459v-.841a1.597 1.597 0 0 1 .057-.423.289.289 0 0 1 .318-.2h2.471c.204 0 .318.087.341.26a3.6 3.6 0 0 1 .035.493v.677a3.707 3.707 0 0 1-.033.434zM24 6v12a6.018 6.018 0 0 1-6 6H6a6.018 6.018 0 0 1-6-6V6a6.018 6.018 0 0 1 6-6h12a6.018 6.018 0 0 1 6 6zM7.852 16.783a6.489 6.489 0 0 1-.011-9.97L6.55 5.27a8.501 8.501 0 0 0 .014 13.06zm7.796 1.25h-.002v-.964a2.578 2.578 0 0 0-.388-1.412 3.096 3.096 0 0 0-1.071-1.012l-.646-.362a1.997 1.997 0 0 0 .695-.197 2.338 2.338 0 0 0 .73-.565 2.389 2.389 0 0 0 .459-.8 2.816 2.816 0 0 0 .153-.918v-.871h-.002v-.029a2.816 2.816 0 0 0-.153-.918 2.39 2.39 0 0 0-.46-.8 2.325 2.325 0 0 0-.73-.565 2.13 2.13 0 0 0-.964-.212h-2.565c-.096 0-.189.006-.28.015V5.99a1.639 1.639 0 0 1 .059-.459.289.289 0 0 1 .318-.2h2.471c.203 0 .318.087.341.259a3.599 3.599 0 0 1 .035.494v.73h1.93v-.871a2.816 2.816 0 0 0-.153-.918 2.39 2.39 0 0 0-.459-.8 2.323 2.323 0 0 0-.73-.565 2.13 2.13 0 0 0-.965-.212h-2.565a2.317 2.317 0 0 0-.976.2 2.041 2.041 0 0 0-.73.553 2.469 2.469 0 0 0-.447.812 3.072 3.072 0 0 0-.153.977v4.901l-.002.058v.988a2.575 2.575 0 0 0 .4 1.424 3.015 3.015 0 0 0 1.059 1q.824.471 1.636.941.813.471 1.636.941a.816.816 0 0 1 .494.753v1.036a2.076 2.076 0 0 1-.047.447.271.271 0 0 1-.306.212h-2.612c-.203 0-.313-.082-.329-.247a5.574 5.574 0 0 1-.023-.506v-.706H8.352v.871a2.699 2.699 0 0 0 .165.942 2.291 2.291 0 0 0 .471.777 2.357 2.357 0 0 0 .73.53 2.18 2.18 0 0 0 .941.2h2.683a2.093 2.093 0 0 0 1.694-.73 2.692 2.692 0 0 0 .612-1.789zm4.853-6.24A8.483 8.483 0 0 0 17.45 5.27l-1.291 1.544a6.489 6.489 0 0 1-.011 9.969l1.288 1.546a8.483 8.483 0 0 0 3.065-6.535z"/><g class="ed"><path class="ee" d="M13.578 12.154c-.023.173-.137.259-.341.259h-2.471a.338.338 0 0 1-.248-.086.726.726 0 0 1-.05-.073.383.383 0 0 1-.02-.041 1.634 1.634 0 0 1-.059-.459v-.841a1.597 1.597 0 0 1 .057-.423.289.289 0 0 1 .318-.2h2.471c.204 0 .318.087.341.26a3.6 3.6 0 0 1 .035.493v.677a3.707 3.707 0 0 1-.033.434zM24 6v12a6.018 6.018 0 0 1-6 6H6a6.018 6.018 0 0 1-6-6V6a6.018 6.018 0 0 1 6-6h12a6.018 6.018 0 0 1 6 6zM7.852 16.783a6.489 6.489 0 0 1-.011-9.97L6.55 5.27a8.501 8.501 0 0 0 .014 13.06zm7.796 1.25h-.002v-.964a2.578 2.578 0 0 0-.388-1.412 3.096 3.096 0 0 0-1.071-1.012l-.646-.362a1.997 1.997 0 0 0 .695-.197 2.338 2.338 0 0 0 .73-.565 2.389 2.389 0 0 0 .459-.8 2.816 2.816 0 0 0 .153-.918v-.871h-.002v-.029a2.816 2.816 0 0 0-.153-.918 2.39 2.39 0 0 0-.46-.8 2.325 2.325 0 0 0-.73-.565 2.13 2.13 0 0 0-.964-.212h-2.565c-.096 0-.189.006-.28.015V5.99a1.639 1.639 0 0 1 .059-.459.289.289 0 0 1 .318-.2h2.471c.203 0 .318.087.341.259a3.599 3.599 0 0 1 .035.494v.73h1.93v-.871a2.816 2.816 0 0 0-.153-.918 2.39 2.39 0 0 0-.459-.8 2.323 2.323 0 0 0-.73-.565 2.13 2.13 0 0 0-.965-.212h-2.565a2.317 2.317 0 0 0-.976.2 2.041 2.041 0 0 0-.73.553 2.469 2.469 0 0 0-.447.812 3.072 3.072 0 0 0-.153.977v4.901l-.002.058v.988a2.575 2.575 0 0 0 .4 1.424 3.015 3.015 0 0 0 1.059 1q.824.471 1.636.941.813.471 1.636.941a.816.816 0 0 1 .494.753v1.036a2.076 2.076 0 0 1-.047.447.271.271 0 0 1-.306.212h-2.612c-.203 0-.313-.082-.329-.247a5.574 5.574 0 0 1-.023-.506v-.706H8.352v.871a2.699 2.699 0 0 0 .165.942 2.291 2.291 0 0 0 .471.777 2.357 2.357 0 0 0 .73.53 2.18 2.18 0 0 0 .941.2h2.683a2.093 2.093 0 0 0 1.694-.73 2.692 2.692 0 0 0 .612-1.789zm4.853-6.24A8.483 8.483 0 0 0 17.45 5.27l-1.291 1.544a6.489 6.489 0 0 1-.011 9.969l1.288 1.546a8.483 8.483 0 0 0 3.065-6.535z"/></g><g class="ef"><path class="eg" d="M18 1a5.006 5.006 0 0 1 5 5v12a5.006 5.006 0 0 1-5 5H6a5.006 5.006 0 0 1-5-5V6a5.006 5.006 0 0 1 5-5h12M7.543 4.898l-.226-.27a1 1 0 0 0-1.408-.126 9.501 9.501 0 0 0 .015 14.596 1 1 0 0 0 .64.232q.045 0 .09-.005a1 1 0 0 0 .678-.356l.095-.113a3.626 3.626 0 0 0 .152.534 3.3 3.3 0 0 0 .676 1.112 3.36 3.36 0 0 0 1.036.754 3.18 3.18 0 0 0 1.368.296h2.683a3.098 3.098 0 0 0 2.46-1.088 3.545 3.545 0 0 0 .768-1.611l.097.116a1 1 0 0 0 .678.356q.046.005.091.005a1 1 0 0 0 .64-.232 9.501 9.501 0 0 0 .015-14.596 1 1 0 0 0-1.408.126l-.244.292q-.03-.11-.068-.219a3.392 3.392 0 0 0-.648-1.13 3.33 3.33 0 0 0-1.04-.805 3.127 3.127 0 0 0-1.412-.318h-2.565a3.315 3.315 0 0 0-1.392.29 3.041 3.041 0 0 0-1.082.822 3.48 3.48 0 0 0-.628 1.137q-.033.1-.06.201m5.104 1.433v.483a.995.995 0 0 0 .195.594h-1.419V6.331h1.224m3.113 1.466a5.489 5.489 0 0 1 .453 7.513q-.053-.096-.112-.189a3.89 3.89 0 0 0-.592-.722q.11-.106.211-.222a3.394 3.394 0 0 0 .65-1.132 3.827 3.827 0 0 0 .207-1.242v-.871q0-.034-.002-.067a3.826 3.826 0 0 0-.207-1.204 3.392 3.392 0 0 0-.649-1.13 3.322 3.322 0 0 0-.873-.717h.731a1.006 1.006 0 0 0 .183-.017M7.401 8.8v2.07a1.07 1.07 0 0 0-.003.08v.988a3.569 3.569 0 0 0 .558 1.964A4.02 4.02 0 0 0 9.36 15.23q.822.47 1.632.938.81.47 1.631.939v.585h-1.317v-.459a1 1 0 0 0-1-1h-1.62a1 1 0 0 0-.194-.218A5.49 5.49 0 0 1 7.4 8.799m5.211 2.491v.123h-1.222v-.123h1.222M18 0H6a6.018 6.018 0 0 0-6 6v12a6.018 6.018 0 0 0 6 6h12a6.018 6.018 0 0 0 6-6V6a6.018 6.018 0 0 0-6-6zm-7.342 18.691h2.612a.271.271 0 0 0 .306-.212 2.077 2.077 0 0 0 .047-.447v-1.036a.816.816 0 0 0-.494-.753q-.825-.471-1.636-.941-.813-.47-1.636-.941a3.015 3.015 0 0 1-1.059-1 2.575 2.575 0 0 1-.4-1.424v-.988l.002-.058V5.99a3.072 3.072 0 0 1 .153-.977A2.469 2.469 0 0 1 9 4.201a2.04 2.04 0 0 1 .73-.553 2.317 2.317 0 0 1 .976-.2h2.565a2.13 2.13 0 0 1 .965.212 2.323 2.323 0 0 1 .73.565 2.389 2.389 0 0 1 .459.8 2.816 2.816 0 0 1 .153.918v.871h-1.93v-.73a3.6 3.6 0 0 0-.035-.494c-.023-.172-.138-.259-.341-.259h-2.471a.289.289 0 0 0-.318.2 1.639 1.639 0 0 0-.059.459v2.433c.091-.009.184-.015.28-.015h2.565a2.13 2.13 0 0 1 .965.212 2.325 2.325 0 0 1 .73.565 2.39 2.39 0 0 1 .459.8 2.816 2.816 0 0 1 .153.918v.029h.002v.871a2.816 2.816 0 0 1-.153.918 2.389 2.389 0 0 1-.459.8 2.338 2.338 0 0 1-.73.565 1.997 1.997 0 0 1-.695.197l.646.362a3.096 3.096 0 0 1 1.071 1.012 2.578 2.578 0 0 1 .388 1.412v.964h.002a2.692 2.692 0 0 1-.612 1.789 2.093 2.093 0 0 1-1.694.73H10.66a2.18 2.18 0 0 1-.941-.2 2.357 2.357 0 0 1-.73-.53 2.291 2.291 0 0 1-.471-.777 2.699 2.699 0 0 1-.165-.942v-.871h1.954v.706c0 .173.008.341.023.506.016.165.126.247.329.247zm6.778-.362l-1.288-1.547a6.489 6.489 0 0 0 .01-9.969L17.45 5.27a8.501 8.501 0 0 1-.014 13.06zm-10.872 0A8.501 8.501 0 0 1 6.55 5.27l1.29 1.544a6.489 6.489 0 0 0 .012 9.97L6.564 18.33zm6.671-8.039h-2.471a.289.289 0 0 0-.318.2 1.597 1.597 0 0 0-.057.423v.841a1.633 1.633 0 0 0 .059.459.384.384 0 0 0 .02.041.724.724 0 0 0 .05.073.338.338 0 0 0 .248.086h2.471c.204 0 .318-.086.341-.259a3.707 3.707 0 0 0 .033-.434v-.677a3.598 3.598 0 0 0-.035-.494c-.023-.172-.137-.259-.341-.259z"/></g></g></symbol><symbol viewBox="0 0 44 54" id="open" xmlns="http://www.w3.org/2000/svg"><title>open</title><style>path{fill:#cb0000}</style><g id="fСлой_2" data-name="Слой 2"><g id="fCapa_1" data-name="Capa 1"><path d="M38 20.11V14.5C38 6.51 30.82 0 22 0S6 6.51 6 14.5a1 1 0 0 0 2 0C8 7.61 14.28 2 22 2s14 5.61 14 12.5V20H7.23A7.24 7.24 0 0 0 0 27.23v19.54A7.24 7.24 0 0 0 7.23 54h29.54A7.24 7.24 0 0 0 44 46.77V27.23a7.24 7.24 0 0 0-6-7.12zm4 26.66A5.24 5.24 0 0 1 36.77 52H7.23A5.24 5.24 0 0 1 2 46.77V27.23A5.24 5.24 0 0 1 7.23 22h29.54A5.24 5.24 0 0 1 42 27.23z"/><path d="M22 28a4 4 0 0 0-4 4v6a4 4 0 0 0 8 0v-6a4 4 0 0 0-4-4zm2 10a2 2 0 0 1-4 0v-6a2 2 0 0 1 4 0z"/></g></g></symbol><symbol viewBox="0 0 486.64 512" id="print" xmlns="http://www.w3.org/2000/svg"><defs><style>.gcls-1{fill:#006df0}</style></defs><title>print</title><g id="gСлой_2" data-name="Слой 2"><g id="gCapa_1" data-name="Capa 1"><path class="gcls-1" d="M411 104.95h-13.18V75.66A75.77 75.77 0 0 0 322.16 0H163.31a75.77 75.77 0 0 0-75.66 75.66v29.29h-12A75.77 75.77 0 0 0 0 180.61v122a75.77 75.77 0 0 0 75.66 75.69h11.88v95.93A37.86 37.86 0 0 0 125.32 512h234.62a37.86 37.86 0 0 0 37.78-37.78V378.3H411a75.77 75.77 0 0 0 75.66-75.66v-122A75.77 75.77 0 0 0 411 104.95zM116.19 75.66a47.1 47.1 0 0 1 47-47h158.76a47.1 47.1 0 0 1 47 47v29.29H116.19zm252.87 398.78a9.19 9.19 0 0 1-9.13 9.13H125.32a9.19 9.19 0 0 1-9.13-9.13V316.22h252.87zM458 302.74a47.1 47.1 0 0 1-47 47h-13.18v-33.52h18.89a14.33 14.33 0 1 0 0-28.65H66.53a14.33 14.33 0 1 0 0 28.65h21.12v33.53h-12a47.1 47.1 0 0 1-47-47v-122a47.1 47.1 0 0 1 47-47H411a47.1 47.1 0 0 1 47 47z"/><path class="gcls-1" d="M150.89 386.68H333.3a14.33 14.33 0 0 0 0-28.65H150.89a14.33 14.33 0 0 0 0 28.65zm183.58 29.92H152a14.33 14.33 0 0 0 0 28.65h182.37a14.33 14.33 0 0 0 .11-28.65zm76.19-255.41h-29.07a14.33 14.33 0 1 0 0 28.65h29.08a14.33 14.33 0 1 0 0-28.65z"/></g></g></symbol></svg>