<svg xmlns="http://www.w3.org/2000/svg" xmlns:xlink="http://www.w3.org/1999/xlink" width="21" height="19" viewBox="0 0 21 19"><defs><path id="m50ea" d="M677.52 437.03c.38.42.55 1.03.48 1.7l-.98 8.62c-.1.96-.84 1.65-1.75 1.65h-8.92c-.91 0-1.7-.22-2.34-.63a.84.84 0 0 1-.81.63h-5.37a.84.84 0 0 1-.84-.84v-10.9c0-.47.37-.84.84-.84h5.37c.38 0 .7.25.8.6.85-.76 1.67-2.45 1.96-5.46a1.75 1.75 0 0 1 1.89-1.56c1.54.15 2.65.68 3.3 1.57.98 1.34.74 3.14.38 4.84h4.5c.78 0 1.24.34 1.49.62zm-15.17 1.06h-3.68v1.68h1.84c.47 0 .85.38.85.84 0 .46-.38.84-.85.84h-1.84v5.87h3.68zm13.91.05c-.03-.03-.11-.05-.22-.05h-5.56a.84.84 0 0 1-.82-1.02l.06-.26c.35-1.56.75-3.33.07-4.25-.36-.5-1.06-.79-2.1-.89a.05.05 0 0 0-.05.05c-.24 2.46-.82 4.37-1.74 5.67a4.3 4.3 0 0 1-1.86 1.56v6.03c0 .88.3 2.34 2.31 2.34h8.93s.05-.06.06-.15l.98-8.62c.02-.2-.02-.36-.06-.4z"/></defs><g><g transform="translate(-657 -430)"><use fill="#1ab394" xlink:href="#m50ea"/></g></g></svg>