<svg xmlns="http://www.w3.org/2000/svg" xmlns:xlink="http://www.w3.org/1999/xlink" width="12" height="12" viewBox="0 0 12 12"><defs><path id="njvwa" d="M728 947a6 6 0 1 1-12 0 6 6 0 0 1 12 0zm-5.22 3.27c0-.33-.1-.6-.28-.77a1.08 1.08 0 0 0-.78-.27c-.34 0-.6.09-.8.26-.18.18-.27.44-.27.78 0 .32.1.58.28.76.2.18.46.27.8.27.32 0 .58-.09.77-.28.19-.18.28-.44.28-.75zm1.87-5.46a1.9 1.9 0 0 0-.71-1.54 2.9 2.9 0 0 0-1.89-.57c-.9 0-1.79.22-2.6.66a.18.18 0 0 0-.08.24l.53 1.06c.04.1.15.13.24.09.67-.33 1.27-.5 1.79-.5.3 0 .53.06.7.17.15.11.22.27.22.48a.9.9 0 0 1-.17.53c-.11.17-.37.4-.75.67-.41.3-.7.6-.86.87-.16.27-.24.6-.24.97v.32c0 .1.08.19.18.19h1.3c.1 0 .18-.09.18-.19v-.24c0-.2.04-.37.12-.49.1-.13.31-.32.66-.58.53-.38.9-.72 1.09-1.03.19-.31.29-.68.29-1.1z"/></defs><g><g opacity=".4" transform="translate(-716 -941)"><use fill="#fff" xlink:href="#njvwa"/></g></g></svg>