<?xml version="1.0" encoding="iso-8859-1"?>
<!-- Generator: Adobe Illustrator 19.0.0, SVG Export Plug-In . SVG Version: 6.00 Build 0)  -->
<svg xmlns="http://www.w3.org/2000/svg" xmlns:xlink="http://www.w3.org/1999/xlink" version="1.1" id="Layer_1" x="0px" y="0px" viewBox="0 0 512 512" style="enable-background:new 0 0 512 512;" xml:space="preserve" width="512px" height="512px">
<g transform="translate(1 1)">
	<g>
		<g>
			<path d="M248.173,289.987c1.707,1.707,4.267,3.413,6.827,3.413h93.867c3.413,0,5.973-1.707,7.68-3.413     c1.707-3.413,0.853-6.827-0.853-9.387l-68.267-85.333c-1.707-2.56-4.267-3.413-6.827-3.413h-85.333     c-3.413,0-5.973,1.707-7.68,4.267c-0.853,2.56-0.853,5.973,0.853,8.533L248.173,289.987z M276.333,208.067l54.613,68.267h-71.68     l-47.787-68.267H276.333z" fill="#FFFFFF"/>
			<path d="M502.467,447h-8.533v-14.72c0.64-2.133,0.427-4.48-0.853-6.613l-59.733-110.933c-0.413-0.689-0.899-1.303-1.432-1.851     c-0.03-0.031-0.059-0.064-0.09-0.094c-0.725-0.727-1.542-1.32-2.419-1.76L304.493,161.133c-1.707-2.56-4.267-3.413-6.827-3.413     H122.008c-1.453-0.604-3.041-0.853-4.395-0.853c-2.56,0-5.12,1.707-6.827,4.267L-0.147,348.867C-1,349.72-1,351.427-1,353.133     v102.4c0,5.12,3.413,8.533,8.533,8.533h62.293h92.16h2.56H229.4h196.267c5.12,0,8.533-3.413,8.533-8.533V353.377l42.667,79.238     V447h-8.533c-5.12,0-8.533,3.413-8.533,8.533s3.413,8.533,8.533,8.533h34.133c5.12,0,8.533-3.413,8.533-8.533     S507.587,447,502.467,447z M293.4,173.933l114.347,136.533H233.761l-19.723-27.309l-78.505-109.224H293.4z M16.067,355.693     l103.125-174.717l101.675,140.78V447h-45.544l17.384-62.293c5.12-20.48-1.707-41.813-17.92-55.467l-52.907-42.667     c-2.187-1.64-5.422-1.873-8.139-0.935c-0.022,0.007-0.042,0.016-0.064,0.023c-0.205,0.072-0.408,0.147-0.606,0.232     c-0.136,0.058-0.268,0.124-0.4,0.19c-0.148,0.073-0.293,0.147-0.435,0.227c-0.038,0.022-0.076,0.045-0.113,0.068     c-0.658,0.384-1.254,0.847-1.757,1.393l-51.632,42.321c-15.36,15.36-20.48,38.4-17.067,54.613L58.327,447h-42.26V355.693z      M58.733,380.44c-1.707-10.24,2.56-28.16,11.093-37.547l30.862-25.297L70.137,422.584L58.733,380.44z M163.533,426.883     L131.285,316.07l33.261,26.824c11.093,9.387,15.36,23.893,11.947,37.547L163.533,426.883z M81.773,447l35.84-122.88L153.453,447     H81.773z M237.933,447V327.533h179.2V370.2H383c-5.12,0-8.533,3.413-8.533,8.533s3.413,8.533,8.533,8.533h34.133v17.067H357.4     c-5.12,0-8.533,3.413-8.533,8.533c0,5.12,3.413,8.533,8.533,8.533h59.733V447H237.933z" fill="#FFFFFF"/>
			<path d="M7.533,97.133c14.507,0,25.6,11.093,25.6,25.6c0,5.12,3.413,8.533,8.533,8.533s8.533-3.413,8.533-8.533     c0-14.507,11.093-25.6,25.6-25.6c5.12,0,8.533-3.413,8.533-8.533s-3.413-8.533-8.533-8.533c-14.507,0-25.6-11.093-25.6-25.6     c0-5.12-3.413-8.533-8.533-8.533s-8.533,3.413-8.533,8.533c0,14.507-11.093,25.6-25.6,25.6C2.413,80.067-1,83.48-1,88.6     S2.413,97.133,7.533,97.133z M41.667,80.067c2.56,3.413,5.12,5.973,8.533,8.533c-3.413,2.56-5.973,5.12-8.533,8.533     c-2.56-3.413-5.12-5.973-8.533-8.533C36.547,86.04,39.107,83.48,41.667,80.067z" fill="#FFFFFF"/>
			<path d="M365.933,131.267c18.773,0,34.133,15.36,34.133,34.133c0,5.12,3.413,8.533,8.533,8.533s8.533-3.413,8.533-8.533     c0-23.893,18.773-42.667,42.667-42.667c5.12,0,8.533-3.413,8.533-8.533s-3.413-8.533-8.533-8.533     c-22.517,0-41.895,12.118-52.083,30.258c-9.295-13.115-24.578-21.725-41.784-21.725c-5.12,0-8.533,3.413-8.533,8.533     S360.813,131.267,365.933,131.267z" fill="#FFFFFF"/>
		</g>
	</g>
</g>
<g>
</g>
<g>
</g>
<g>
</g>
<g>
</g>
<g>
</g>
<g>
</g>
<g>
</g>
<g>
</g>
<g>
</g>
<g>
</g>
<g>
</g>
<g>
</g>
<g>
</g>
<g>
</g>
<g>
</g>
</svg>
