<?xml version="1.0" encoding="iso-8859-1"?>
<!-- Generator: Adobe Illustrator 19.0.0, SVG Export Plug-In . SVG Version: 6.00 Build 0)  -->
<svg xmlns="http://www.w3.org/2000/svg" xmlns:xlink="http://www.w3.org/1999/xlink" version="1.1" id="Layer_1" x="0px" y="0px" viewBox="0 0 500 500" style="enable-background:new 0 0 500 500;" xml:space="preserve" width="512px" height="512px">
<g>
	<g>
		<path d="M140.664,276H110c-22.804,0-40-15.476-40-36c0-21.596,18.756-32.432,29.26-32.432c6.628,0,12-5.372,12-12s-5.372-12-12-12    C74.072,183.568,46,206.744,46,240c0,33.644,28.112,60,64,60h34.664c6.628,0,8-5.372,8-12S147.292,276,140.664,276z" fill="#FFFFFF"/>
	</g>
</g>
<g>
	<g>
		<path d="M302,300c-6.628,0-12,5.372-12,12c0,27.188-7.236,40-73.336,40C169.016,352,118,376.108,118,412c0,6.628,5.372,12,12,12    s12-5.372,12-12c0-18.168,36.984-36,74.664-36C278.308,376,314,365.528,314,312C314,305.372,308.628,300,302,300z" fill="#FFFFFF"/>
	</g>
</g>
<g>
	<g>
		<path d="M348,4c-13.024,0-24.668,1.436-34.62,4.26c-6.372,1.816-10.072,8.452-8.26,14.828c1.812,6.376,8.48,10.064,14.824,8.26    C327.76,29.128,337.2,28,348,28c46.744,0,82,32.676,82,76c0,46.408-35.832,80-59.988,80c-6.628,0-12,5.372-12,12s5.372,12,12,12    C408.852,208,454,162.572,454,104C454,46.992,408.428,4,348,4z" fill="#FFFFFF"/>
	</g>
</g>
<g>
	<g>
		<path d="M320.48,11.352C313.152,4.032,303.42,0,293.064,0c-10.36,0-20.092,4.032-27.42,11.356    c-11.356,11.352-34.988,61.94-16.836,80.096c2.74,2.74,7.636,6,15.404,6c20.776,0,49.668-24.652,56.268-31.252    c7.328-7.328,11.364-17.068,11.364-27.424S327.808,18.68,320.48,11.352z M303.512,49.228    c-8.968,8.968-28.348,22.412-37.592,24.056c-0.94-9.656,8.992-37.252,16.696-44.956c2.792-2.792,6.5-4.328,10.448-4.328    s7.656,1.536,10.448,4.324c2.792,2.792,4.332,6.504,4.332,10.452S306.304,46.436,303.512,49.228z" fill="#FFFFFF"/>
	</g>
</g>
<g>
	<g>
		<path d="M300.664,458c0,4.624-22.004,18-64,18c-41.996,0-64-13.376-64-18h-24c0,27.576,44.268,42,88,42c43.728,0,88-14.424,88-42    H300.664z" fill="#FFFFFF"/>
	</g>
</g>
<g>
	<g>
		<path d="M236.664,392c-41.744,0-84,13.052-84,38s42.256,38,84,38c4.416,0,8-3.584,8-8c0-4.416-3.584-8-8-8    c-40.88,0-68-13.244-68-22c0-8.756,27.12-22,68-22s68,13.244,68,22c0,3.692-5.804,9.572-18.776,14.376    c-4.148,1.532-6.26,6.136-4.724,10.28c1.532,4.144,6.148,6.252,10.276,4.724c18.844-6.98,29.224-17.412,29.224-29.38    C320.664,405.052,278.404,392,236.664,392z" fill="#FFFFFF"/>
	</g>
</g>
<g>
	<g>
		<path d="M236.664,312c-6.628,0-12,5.372-12,12v104c0,6.628,5.372,12,12,12s12-5.372,12-12V324    C248.664,317.372,243.292,312,236.664,312z" fill="#FFFFFF"/>
	</g>
</g>
<g>
	<g>
		<path d="M329.42,117.976C304,114.176,270.992,112,238.856,112c-32.584,0-66.812,2.148-93.916,5.892    c-42.272,5.84-50.764,12.736-50.764,21.968s8.492,16.128,50.764,21.968c27.104,3.744,61.332,5.892,93.916,5.892    c32.248,0,65.248-2.128,90.544-5.832c39.224-5.744,47.264-12.904,47.264-21.888S368.628,123.832,329.42,117.976z M238.86,151.72    c-56.908,0-104.696-6.3-122.736-11.86C134.16,134.3,181.948,128,238.856,128c55.664,0,100.74,6.34,116.948,11.972    C339.608,145.5,294.56,151.72,238.86,151.72z" fill="#FFFFFF"/>
	</g>
</g>
<g>
	<g>
		<path d="M331,114.024c-25.124-3.828-58.012-6.024-90.236-6.024c-32.408,0-68.348,2.24-96.136,5.996    c-38.8,5.244-54.076,11.56-55.796,23.588c-0.224,1.156-0.276,2.344-0.168,3.52V208c0,73.26,78.792,128,149.24,128    c67.524,0,142.76-52.568,142.76-128v-68C380.664,126.752,366.736,119.468,331,114.024z M356.664,208c0,59.524-62.7,104-118.76,104    c-57.916,0-125.24-45.428-125.24-104v-62.96c14.028-5.648,66.692-13.04,128.1-13.04c61.404,0,104.368,7.488,115.9,12.552V208z" fill="#FFFFFF"/>
	</g>
</g>
<g>
	<g>
		<path d="M323.568,423.076C316.496,399,274.276,388,236.664,388c-37.476,0-79.516,10.916-86.82,34.808    c-0.76,1.568-1.18,3.332-1.18,5.192v32c0,1.756,0.392,3.42,1.096,4.924C156.832,489,199.052,500,236.664,500    c37.472,0,79.516-10.916,86.82-34.808c0.756-1.568,1.18-3.332,1.18-5.192v-32C324.664,426.244,324.272,424.58,323.568,423.076z     M300.664,457.524c-0.032,0.164-0.064,0.328-0.092,0.492c-0.9,5.38-23.728,17.984-63.908,17.984s-63.008-12.604-63.908-17.98    c-0.024-0.164-0.056-0.328-0.092-0.492v-27.052c0.032-0.164,0.064-0.328,0.092-0.492c0.9-5.38,23.728-17.984,63.908-17.984    s63.008,12.604,63.908,17.98c0.024,0.164,0.056,0.328,0.092,0.492V457.524z" fill="#FFFFFF"/>
	</g>
</g>
<g>
</g>
<g>
</g>
<g>
</g>
<g>
</g>
<g>
</g>
<g>
</g>
<g>
</g>
<g>
</g>
<g>
</g>
<g>
</g>
<g>
</g>
<g>
</g>
<g>
</g>
<g>
</g>
<g>
</g>
</svg>
