<svg xmlns="http://www.w3.org/2000/svg" xmlns:xlink="http://www.w3.org/1999/xlink" width="8" height="6" viewBox="0 0 8 6"><defs><path id="x78sa" d="M832.169 1526.402l.848.81.851.812.85.81a.624.624 0 0 0 .85.001l.001-.001.85-.81.85-.812.85-.81.275-.262.504-.48.071-.069.85-.81a.558.558 0 0 0 0-.81l-.85-.81a.625.625 0 0 0-.85 0l-.85.81a3.96 3.96 0 0 1-.057.053l-.525.5-.112.109-.157.149-.849.809-.001.001a.624.624 0 0 1-.85-.001l-.85-.81a.624.624 0 0 0-.85 0l-.3.287-.55.523a.557.557 0 0 0 0 .811z"/></defs><g><g transform="translate(-832 -1523)"><use fill="#002361" xlink:href="#x78sa"/></g></g></svg>