<svg xmlns="http://www.w3.org/2000/svg" xmlns:xlink="http://www.w3.org/1999/xlink" width="5" height="8" viewBox="0 0 5 8"><defs><path id="d81ya" d="M413.63 178.235l-3.41 3.267a.664.664 0 0 0 0 1.004l3.41 3.231c.306.303.713.375 1.019.073l.127-.122c.267-.266.318-.556.051-.798-.84-.786-1.693-1.585-2.533-2.384a.706.706 0 0 1 0-1.004c.84-.81 1.693-1.61 2.533-2.42.267-.218.216-.532-.05-.775l-.128-.12c-.306-.29-.713-.218-1.019.048z"/></defs><g><g transform="translate(-410 -178)"><use fill="#899ba3" xlink:href="#d81ya"/></g></g></svg>