<svg xmlns="http://www.w3.org/2000/svg" xmlns:xlink="http://www.w3.org/1999/xlink" width="11" height="7" viewBox="0 0 11 7"><defs><path id="69mja" d="M3166.43 927.231l-4.095 4.096a.857.857 0 0 1-1.258 0l-4.048-4.096c-.38-.367-.47-.856-.091-1.223l.151-.153c.334-.32.698-.382 1-.061.987 1.009 1.987 2.033 2.988 3.042.349.336.925.336 1.258 0 1.016-1.009 2.017-2.033 3.033-3.042.273-.32.667-.26.97.06l.152.154c.364.367.273.856-.06 1.223z"/></defs><g><g transform="translate(-3156 -925)"><use fill="#fff" xlink:href="#69mja"/></g></g></svg>