<svg xmlns="http://www.w3.org/2000/svg" xmlns:xlink="http://www.w3.org/1999/xlink" width="10" height="16" viewBox="0 0 10 16"><defs><path id="5k9sa" d="M2679.964 354.947l6.108 6.117c.548.498.548 1.359 0 1.88l-6.108 6.048c-.548.566-1.278.702-1.824.136l-.229-.227c-.478-.498-.57-1.042-.091-1.495a820.543 820.543 0 0 0 4.537-4.462c.501-.521.501-1.382 0-1.88-1.505-1.518-3.032-3.013-4.537-4.53-.479-.409-.387-.997.091-1.45l.229-.227c.546-.543 1.276-.408 1.824.09z"/></defs><g><g transform="translate(-2677 -354)"><use fill="#fff" xlink:href="#5k9sa"/></g></g></svg>