<svg width="18" height="18" viewBox="0 0 18 18" fill="none" xmlns="http://www.w3.org/2000/svg">
<path d="M11.3226 9.29032C11.8028 9.29032 12.1935 8.89955 12.1935 8.41935C12.1935 7.93916 11.8028 7.54839 11.3226 7.54839C10.9446 7.54839 10.6252 7.79197 10.505 8.12903H9.29032V6.3871H10.505C10.6252 6.72416 10.9446 6.96774 11.3226 6.96774C11.8028 6.96774 12.1935 6.57697 12.1935 6.09677C12.1935 5.61658 11.8028 5.22581 11.3226 5.22581C10.9446 5.22581 10.6252 5.46939 10.505 5.80645H9.29032V4.06452H10.505C10.6252 4.40158 10.9446 4.64516 11.3226 4.64516C11.8028 4.64516 12.1935 4.25439 12.1935 3.77419C12.1935 3.294 11.8028 2.90323 11.3226 2.90323C10.9446 2.90323 10.6252 3.14681 10.505 3.48387H9.29032V2.90323H8.70968V1.68852C9.04674 1.56832 9.29032 1.24897 9.29032 0.870968C9.29032 0.390774 8.89955 0 8.41935 0C7.93916 0 7.54839 0.390774 7.54839 0.870968C7.54839 1.24897 7.79197 1.56832 8.12903 1.68852V2.90323H6.3871V1.68852C6.72416 1.56832 6.96774 1.24897 6.96774 0.870968C6.96774 0.390774 6.57697 0 6.09677 0C5.61658 0 5.22581 0.390774 5.22581 0.870968C5.22581 1.24897 5.46939 1.56832 5.80645 1.68852V2.90323H4.06452V1.68852C4.40158 1.56832 4.64516 1.24897 4.64516 0.870968C4.64516 0.390774 4.25439 0 3.77419 0C3.294 0 2.90323 0.390774 2.90323 0.870968C2.90323 1.24897 3.14681 1.56832 3.48387 1.68852V2.90323H2.90323V3.48387H1.68852C1.56832 3.14681 1.24897 2.90323 0.870968 2.90323C0.390774 2.90323 0 3.294 0 3.77419C0 4.25439 0.390774 4.64516 0.870968 4.64516C1.24897 4.64516 1.56832 4.40158 1.68852 4.06452H2.90323V5.80645H1.68852C1.56832 5.46939 1.24897 5.22581 0.870968 5.22581C0.390774 5.22581 0 5.61658 0 6.09677C0 6.57697 0.390774 6.96774 0.870968 6.96774C1.24897 6.96774 1.56832 6.72416 1.68852 6.3871H2.90323V8.12903H1.68852C1.56832 7.79197 1.24897 7.54839 0.870968 7.54839C0.390774 7.54839 0 7.93916 0 8.41935C0 8.89955 0.390774 9.29032 0.870968 9.29032C1.24897 9.29032 1.56832 9.04674 1.68852 8.70968H2.90323V9.29032H3.48387V10.505C3.14681 10.6252 2.90323 10.9446 2.90323 11.3226C2.90323 11.8028 3.294 12.1935 3.77419 12.1935C4.25439 12.1935 4.64516 11.8028 4.64516 11.3226C4.64516 10.9446 4.40158 10.6252 4.06452 10.505V9.29032H5.80645V10.505C5.46939 10.6252 5.22581 10.9446 5.22581 11.3226C5.22581 11.8028 5.61658 12.1935 6.09677 12.1935C6.57697 12.1935 6.96774 11.8028 6.96774 11.3226C6.96774 10.9446 6.72416 10.6252 6.3871 10.505V9.29032H8.12903V10.505C7.79197 10.6252 7.54839 10.9446 7.54839 11.3226C7.54839 11.8028 7.93916 12.1935 8.41935 12.1935C8.89955 12.1935 9.29032 11.8028 9.29032 11.3226C9.29032 10.9446 9.04674 10.6252 8.70968 10.505V9.29032H9.29032V8.70968H10.505C10.6252 9.04674 10.9446 9.29032 11.3226 9.29032ZM11.3226 8.12903C11.4828 8.12903 11.6129 8.2591 11.6129 8.41935C11.6129 8.57961 11.4828 8.70968 11.3226 8.70968C11.1623 8.70968 11.0323 8.57961 11.0323 8.41935C11.0323 8.2591 11.1623 8.12903 11.3226 8.12903ZM11.3226 5.80645C11.4828 5.80645 11.6129 5.93652 11.6129 6.09677C11.6129 6.25703 11.4828 6.3871 11.3226 6.3871C11.1623 6.3871 11.0323 6.25703 11.0323 6.09677C11.0323 5.93652 11.1623 5.80645 11.3226 5.80645ZM11.3226 3.48387C11.4828 3.48387 11.6129 3.61394 11.6129 3.77419C11.6129 3.93445 11.4828 4.06452 11.3226 4.06452C11.1623 4.06452 11.0323 3.93445 11.0323 3.77419C11.0323 3.61394 11.1623 3.48387 11.3226 3.48387ZM0.870968 4.06452C0.71071 4.06452 0.580645 3.93445 0.580645 3.77419C0.580645 3.61394 0.71071 3.48387 0.870968 3.48387C1.03123 3.48387 1.16129 3.61394 1.16129 3.77419C1.16129 3.93445 1.03123 4.06452 0.870968 4.06452ZM0.870968 6.3871C0.71071 6.3871 0.580645 6.25703 0.580645 6.09677C0.580645 5.93652 0.71071 5.80645 0.870968 5.80645C1.03123 5.80645 1.16129 5.93652 1.16129 6.09677C1.16129 6.25703 1.03123 6.3871 0.870968 6.3871ZM0.870968 8.70968C0.71071 8.70968 0.580645 8.57961 0.580645 8.41935C0.580645 8.2591 0.71071 8.12903 0.870968 8.12903C1.03123 8.12903 1.16129 8.2591 1.16129 8.41935C1.16129 8.57961 1.03123 8.70968 0.870968 8.70968ZM8.41935 0.580645C8.57961 0.580645 8.70968 0.711 8.70968 0.870968C8.70968 1.03094 8.57961 1.16129 8.41935 1.16129C8.2591 1.16129 8.12903 1.03094 8.12903 0.870968C8.12903 0.711 8.2591 0.580645 8.41935 0.580645ZM6.09677 0.580645C6.25703 0.580645 6.3871 0.711 6.3871 0.870968C6.3871 1.03094 6.25703 1.16129 6.09677 1.16129C5.93652 1.16129 5.80645 1.03094 5.80645 0.870968C5.80645 0.711 5.93652 0.580645 6.09677 0.580645ZM3.77419 0.580645C3.93445 0.580645 4.06452 0.711 4.06452 0.870968C4.06452 1.03094 3.93445 1.16129 3.77419 1.16129C3.61394 1.16129 3.48387 1.03094 3.48387 0.870968C3.48387 0.711 3.61394 0.580645 3.77419 0.580645ZM3.77419 11.6129C3.61394 11.6129 3.48387 11.4828 3.48387 11.3226C3.48387 11.1623 3.61394 11.0323 3.77419 11.0323C3.93445 11.0323 4.06452 11.1623 4.06452 11.3226C4.06452 11.4828 3.93445 11.6129 3.77419 11.6129ZM6.09677 11.6129C5.93652 11.6129 5.80645 11.4828 5.80645 11.3226C5.80645 11.1623 5.93652 11.0323 6.09677 11.0323C6.25703 11.0323 6.3871 11.1623 6.3871 11.3226C6.3871 11.4828 6.25703 11.6129 6.09677 11.6129ZM8.41935 11.6129C8.2591 11.6129 8.12903 11.4828 8.12903 11.3226C8.12903 11.1623 8.2591 11.0323 8.41935 11.0323C8.57961 11.0323 8.70968 11.1623 8.70968 11.3226C8.70968 11.4828 8.57961 11.6129 8.41935 11.6129ZM8.70968 8.70968H3.48387V3.48387H8.70968V8.70968Z" transform="translate(0 5.8064)" fill="white"/>
<path d="M10.0147 4.64487V4.64516C9.90639 4.22535 9.73974 3.82413 9.51706 3.44787L10.4429 2.52174L8.80055 0.879677L7.87442 1.80581C7.49816 1.58284 7.09723 1.41619 6.67742 1.3079V0H4.35484V1.3079C3.93503 1.41619 3.5341 1.58284 3.15784 1.80552L2.23171 0.879387L0.589355 2.52145L1.51519 3.44758C1.29252 3.82384 1.12587 4.22506 1.01758 4.64487H0V5.22552H1.48587L1.53319 4.99297C1.63626 4.48461 1.83571 4.00471 2.12603 3.56603L2.25697 3.36832L1.4101 2.52145L2.23142 1.70042L3.07829 2.54729L3.276 2.41635C3.71439 2.12603 4.19429 1.92658 4.70294 1.82352L4.93548 1.77648V0.580645H6.09677V1.77648L6.32932 1.82381C6.83797 1.92687 7.31787 2.12632 7.75626 2.41665L7.95397 2.54758L8.80084 1.70071L9.62216 2.52174L8.77529 3.36861L8.90623 3.56632C9.19655 4.005 9.396 4.4849 9.49906 4.99326L9.54639 5.22581H10.7419V6.3871H9.54639L9.49906 6.61965C9.396 7.128 9.19655 7.6079 8.90623 8.04629L8.77529 8.24429L9.62216 9.09116L8.80084 9.91248L7.95397 9.06561L7.75626 9.19655C7.31758 9.48687 6.83768 9.68661 6.32932 9.78939L6.09677 9.83671V11.3226H6.67742V10.305C7.09694 10.197 7.49816 10.0304 7.87442 9.80739L8.80055 10.7332L10.4429 9.09087L9.51706 8.16474C9.73974 7.78848 9.90639 7.38726 10.0147 6.96745H11.3226V4.64487H10.0147Z" transform="translate(6.67742)" fill="white"/>
<path d="M2.90323 5.22581V5.80645C4.50406 5.80645 5.80645 4.50406 5.80645 2.90323C5.80645 1.30239 4.50406 0 2.90323 0C1.30239 0 0 1.30239 0 2.90323H0.580645C0.580645 1.62261 1.62261 0.580645 2.90323 0.580645C4.18384 0.580645 5.22581 1.62261 5.22581 2.90323C5.22581 4.18384 4.18384 5.22581 2.90323 5.22581Z" transform="translate(9.29032 2.9032)" fill="white"/>
<path d="M4.06452 0H0V0.580645H4.06452V0Z" transform="translate(4.06451 9.87097)" fill="white"/>
<path d="M0.580645 0H0V0.580645H0.580645V0Z" transform="translate(7.54839 13.3549)" fill="white"/>
<path d="M2.90323 0H0V0.580645H2.90323V0Z" transform="translate(4.06451 13.3549)" fill="white"/>
<path d="M0 6.56623L0.115549 7.13555C3.66039 6.41584 6.41584 3.66039 7.13555 0.115549L6.56623 0C5.89355 3.31606 3.31606 5.89355 0 6.56623Z" transform="translate(10.6842 10.6842)" fill="white"/>
<path d="M7.13555 0.569032L7.02 0C3.47516 0.71971 0.71971 3.47516 0 7.02L0.569323 7.13526C1.242 3.81977 3.81948 1.242 7.13555 0.569032Z" transform="translate(0.18029 0.180298)" fill="white"/>
</svg>
