<svg width="16" height="17" viewBox="0 0 16 17" fill="none" xmlns="http://www.w3.org/2000/svg">
<path d="M4.82211 0C2.1621 0 0 2.25067 0 5.01964C0 7.78514 2.1621 10.0393 4.82211 10.0393C7.48213 10.0393 9.64423 7.78514 9.64423 5.01964C9.64423 2.25067 7.48213 0 4.82211 0ZM4.82211 9.18703C2.61657 9.18703 0.818723 7.31901 0.818723 5.01964C0.818723 2.72376 2.61323 0.852261 4.82211 0.852261C7.031 0.852261 8.8255 2.72376 8.8255 5.01964C8.8255 7.31553 7.02765 9.18703 4.82211 9.18703Z" transform="translate(3.17627 3.47876)" fill="white"/>
<path d="M15.447 8.76959C15.31 8.57479 15.3067 8.30694 15.4437 8.10866L15.7277 7.68774C15.9516 7.35727 16.0318 6.93984 15.9416 6.54328C15.8514 6.14672 15.6041 5.80929 15.2599 5.61797L14.8255 5.37446C14.6183 5.25967 14.508 5.02312 14.5448 4.7831L14.6283 4.27522C14.6918 3.87518 14.5882 3.4647 14.3443 3.14815C14.097 2.83159 13.7327 2.64027 13.3451 2.62288L12.8505 2.60201C12.6166 2.59157 12.4161 2.42807 12.3526 2.19501L12.2089 1.70452C12.0418 1.10272 11.5038 0.681809 10.8989 0.681809C10.7152 0.681809 10.5314 0.720074 10.3609 0.796603L9.90646 0.998363C9.69593 1.09229 9.43861 1.03315 9.28824 0.85574L8.95741 0.473092C8.70009 0.173931 8.32916 0 7.94486 0C7.55054 0 7.17626 0.177409 6.91561 0.487006L6.5948 0.876611C6.44443 1.0575 6.19045 1.12011 5.97658 1.02967L5.51877 0.834868C5.35168 0.765296 5.17791 0.727031 5.0008 0.727031C4.38926 0.727031 3.8479 1.1549 3.6875 1.77062L3.55717 2.26806C3.49702 2.50113 3.29652 2.6681 3.0626 2.68201L2.57136 2.71332C2.18372 2.73419 1.81947 2.93247 1.57887 3.25251C1.33827 3.57254 1.24135 3.98649 1.31153 4.38306L1.40176 4.88746C1.4452 5.12748 1.33492 5.36751 1.13108 5.48578L0.699995 5.73624C0.359139 5.93452 0.115192 6.27542 0.0316493 6.67199C-0.0518939 7.06855 0.0316493 7.48598 0.262229 7.81297L0.552959 8.22693C0.68997 8.42173 0.693311 8.68958 0.556301 8.88787L0.272254 9.30878C0.0483579 9.63925 -0.0318436 10.0567 0.0583831 10.4532C0.14861 10.8498 0.395898 11.1872 0.740096 11.3786L1.17452 11.6221C1.38171 11.7369 1.49198 11.9734 1.45523 12.2134L1.37168 12.7213C1.30819 13.1213 1.41178 13.5318 1.65573 13.8484C1.90302 14.1649 2.26727 14.3563 2.65491 14.3736L3.14948 14.3945C3.3834 14.405 3.58391 14.5684 3.6474 14.8015L3.78441 15.2955C3.9515 15.8973 4.48951 16.3182 5.09437 16.3182C5.27816 16.3182 5.46196 16.2799 5.63239 16.2034L6.08686 16.0016C6.29739 15.9077 6.5547 15.9669 6.70508 16.1443L7.03591 16.5269C7.29322 16.8261 7.66416 17 8.04846 17C8.44278 17 8.81705 16.8226 9.07771 16.513L9.40185 16.1234C9.55223 15.9425 9.8062 15.8799 10.0201 15.9703L10.4779 16.1651C10.645 16.2347 10.8187 16.273 10.9959 16.273C11.6074 16.273 12.1488 15.8451 12.3092 15.2294L12.4395 14.7319C12.4996 14.4989 12.7001 14.3319 12.9341 14.318L13.4286 14.2867C13.8196 14.2623 14.1805 14.0675 14.4211 13.7475C14.6617 13.4275 14.7586 13.017 14.6885 12.6169L14.5982 12.1125C14.5548 11.8725 14.6651 11.6325 14.8689 11.5142L15.3 11.2638C15.6409 11.0655 15.8848 10.7246 15.9684 10.328C16.0519 9.93145 15.9684 9.51402 15.7378 9.18703L15.447 8.76959ZM15.1697 10.1436C15.1363 10.3037 15.0394 10.4358 14.9023 10.5159L14.4713 10.7663C13.96 11.062 13.686 11.6638 13.7929 12.2621L13.8831 12.7665C13.9132 12.93 13.8731 13.09 13.7762 13.2187C13.6793 13.3475 13.5389 13.424 13.3785 13.4344L12.8873 13.4657C12.3025 13.5005 11.8046 13.9179 11.6508 14.5058L11.5205 14.9998C11.457 15.2468 11.2398 15.4172 10.9959 15.4172C10.9257 15.4172 10.8555 15.4033 10.7887 15.3755L10.3309 15.1807C10.1638 15.1111 9.99 15.0728 9.81289 15.0728C9.41856 15.0728 9.04429 15.2503 8.78364 15.5599L8.45949 15.946C8.3559 16.0712 8.20886 16.1408 8.04846 16.1408C7.89139 16.1408 7.7477 16.0747 7.64411 15.9529L7.31328 15.5703C7.05596 15.2711 6.68503 15.0972 6.29739 15.0972C6.11025 15.0972 5.9298 15.1355 5.75937 15.212L5.3049 15.4138C5.23472 15.4451 5.16454 15.459 5.09103 15.459C4.85042 15.459 4.63655 15.292 4.56972 15.052L4.43271 14.558C4.26896 13.9736 3.7677 13.5631 3.1829 13.5353L2.68832 13.5144C2.53126 13.5075 2.38757 13.4344 2.29066 13.3057C2.19041 13.177 2.1503 13.017 2.17704 12.857L2.26058 12.3491C2.35749 11.7473 2.07679 11.1524 1.55882 10.8637L1.12439 10.6202C0.984042 10.5437 0.887132 10.4115 0.850373 10.2515C0.813614 10.0915 0.843689 9.92797 0.937258 9.79578L1.2213 9.37487C1.55882 8.87743 1.55548 8.21301 1.20794 7.71905L0.917207 7.3051C0.823639 7.17291 0.790222 7.00941 0.826981 6.8494C0.860398 6.68938 0.957308 6.55719 1.09432 6.47718L1.5254 6.22672C2.03669 5.93104 2.31071 5.32924 2.20377 4.73092L2.11689 4.23C2.08681 4.0665 2.12691 3.90649 2.22382 3.77778C2.32073 3.64907 2.46109 3.57254 2.62149 3.5621L3.11272 3.5308C3.69753 3.49601 4.1921 3.07858 4.34916 2.49069L4.47949 1.99325C4.54298 1.74627 4.76019 1.57581 5.00414 1.57581C5.07432 1.57581 5.14449 1.58973 5.21133 1.61756L5.66915 1.81236C5.83623 1.88193 6.01 1.9202 6.18711 1.9202C6.58144 1.9202 6.95571 1.74279 7.21636 1.43319L7.54051 1.04706C7.64411 0.921833 7.79114 0.852261 7.95155 0.852261C8.10861 0.852261 8.2523 0.918355 8.35589 1.04011L8.68673 1.42275C8.94404 1.72192 9.31497 1.89585 9.70261 1.89585C9.88975 1.89585 10.0702 1.85758 10.2406 1.78105L10.6951 1.57929C10.7653 1.54798 10.8355 1.53407 10.909 1.53407C11.1496 1.53407 11.3635 1.70104 11.4303 1.94107L11.5673 2.43503C11.731 3.01944 12.2323 3.42992 12.8171 3.45775L13.3117 3.47862C13.4687 3.48557 13.6124 3.55862 13.7127 3.68733C13.8129 3.81604 13.853 3.97606 13.8263 4.13608L13.7428 4.64395C13.6459 5.24575 13.9266 5.8406 14.4445 6.12932L14.8789 6.37283C15.0193 6.44936 15.1162 6.58154 15.153 6.74156C15.1897 6.90158 15.1597 7.06507 15.0694 7.19726L14.7854 7.61817C14.4479 8.11561 14.4512 8.78003 14.7987 9.27399L15.0895 9.68795C15.1697 9.82014 15.2031 9.98363 15.1697 10.1436Z" fill="white"/>
<path d="M3.07147 0.12219L1.2803 1.97629L0.698842 1.36753C0.53844 1.20056 0.281126 1.20056 0.120723 1.36753C-0.0396796 1.53451 -0.0396798 1.80236 0.117381 1.96934L0.989573 2.88073C1.06643 2.96074 1.17003 3.00596 1.2803 3.00596C1.38724 3.00596 1.49083 2.96074 1.56769 2.88073L3.64959 0.727469C3.80999 0.560495 3.80999 0.292642 3.65293 0.125668C3.49253 -0.0413053 3.23187 -0.041305 3.07147 0.12219Z" transform="translate(6.11377 6.99487)" fill="white"/>
</svg>
