<svg width="89" height="112" viewBox="0 0 89 112" fill="none" xmlns="http://www.w3.org/2000/svg">
<path d="M87.0354 64.5313C87.0014 64.4972 83.0539 60.5376 83.0277 60.511C82.3861 59.8676 81.3457 59.8676 80.704 60.511C80.0624 61.1543 80.0624 62.1973 80.704 62.8384L84.6526 66.7996C85.3382 67.5418 85.7147 68.5078 85.7147 69.5221V71.3445C85.7147 72.3326 84.9131 73.1363 83.9276 73.1363C81.0436 73.1363 52.8931 73.1363 47.9883 73.1363C49.6491 70.4321 49.3135 66.8344 46.9772 64.492L30.7008 48.1737H54.7914L61.2609 59.6351C62.7077 62.1945 66.3796 62.1951 67.8266 59.6351L71.3263 53.4366L76.059 58.1815C76.3789 58.5044 76.7994 58.6645 77.2198 58.6645C77.6403 58.6645 78.0607 58.5041 78.3806 58.1815C79.0223 57.5381 79.0223 56.4951 78.3806 55.8518L73.004 50.4614C75.6091 46.1398 75.7099 44.9274 77.4454 43.8018C90.1422 35.5508 92.0686 17.5899 81.2166 6.86153C71.9292 -2.32004 57.047 -2.29861 47.7766 6.99541C43.3681 11.4131 40.891 17.2624 40.8014 23.4631C40.6831 31.7102 44.7368 39.3159 51.6464 43.804C52.102 44.1004 52.5093 44.4648 52.8466 44.8798C44.6892 44.8798 27.8172 44.8798 24.5073 44.8798C24.1621 44.8885 24.0037 44.8557 23.7076 44.9261C21.9032 45.1289 20.3052 46.0569 19.4329 47.0622L2.0483 64.492C-0.682765 67.2301 -0.682765 71.6851 2.0483 74.4208C3.08207 75.4572 4.35869 76.1006 5.69466 76.3508V104.836C5.69466 108.785 8.89875 112 12.8364 112C15.706 112 73.7822 112 76.1662 112C80.1038 112 83.3101 108.785 83.3101 104.838V76.4298H83.9278C86.7245 76.4298 89 74.1485 89 71.3445V69.5221C89 67.6625 88.3035 65.8885 87.0354 64.5313ZM44.0864 23.5117C44.2441 12.5201 53.2889 3.45626 64.2524 3.30247C69.4835 3.18588 74.8522 5.19335 78.9105 9.20675C88.2691 18.4638 86.591 33.9329 75.6582 41.0376C74.5149 41.7821 73.5623 42.7898 72.9053 43.9558C67.4345 53.6451 76.8827 36.9083 64.9685 58.0126C64.7787 58.3458 64.3063 58.3436 64.1211 58.0126C55.3955 42.5602 55.6685 42.4934 53.4336 41.0401C47.4788 37.171 43.9834 30.619 44.0864 23.5117ZM41.8504 108.707H35.4001V77.8022C35.4001 75.233 33.3151 73.1426 30.7525 73.1426H19.8863C17.3234 73.1426 15.2384 75.2332 15.2384 77.8022V94.8319C15.2384 95.7417 15.9739 96.4786 16.8809 96.4786C17.788 96.4786 18.5235 95.7414 18.5235 94.8319V77.8022C18.5235 77.0489 19.1346 76.4361 19.8861 76.4361H30.752C31.5035 76.4361 32.1146 77.0489 32.1146 77.8022V108.707H18.5235V101.419C18.5235 100.509 17.788 99.7723 16.8809 99.7723C15.9737 99.7723 15.2384 100.51 15.2384 101.419V108.707H12.8366C10.7101 108.707 8.97992 106.97 8.97992 104.836V76.1905C11.9368 75.3256 11.9525 74.0404 24.5119 61.8307L37.0719 74.4208C38.3947 75.7471 40.116 76.4298 41.8506 76.4716V108.707H41.8504ZM41.8504 73.1781C40.9569 73.1363 40.0765 72.7762 39.3954 72.0935C25.0109 57.9168 25.763 57.8545 24.5119 57.8545C24.0783 57.8545 23.6598 58.0279 23.3511 58.3353C9.02443 72.6566 9.61986 72.2182 8.97992 72.6115C7.99 73.2374 6.76793 73.3494 5.69488 72.9453C5.21312 72.7653 4.75972 72.482 4.372 72.0933C2.91996 70.6397 2.91996 68.2729 4.372 66.8193C15.2537 55.9096 21.7928 49.3536 21.8179 49.3285C22.4764 48.6127 23.4462 48.1735 24.5095 48.1735C24.5551 48.1824 25.9613 48.0886 27.1244 49.2362C27.3001 49.4258 39.4126 61.5627 44.6537 66.8193C45.9196 68.0884 46.0793 70.0535 45.1354 71.4983C44.446 72.5686 43.2032 73.2428 41.8504 73.1781ZM76.1664 108.707H45.2077V76.43H80.025V104.838C80.0253 106.97 78.2929 108.707 76.1664 108.707Z" fill="#1D5A8D"/>
<path d="M12.1184 2.56347e-06H11.1411C4.99804 2.56347e-06 -2.34382e-06 5.01046 -2.34382e-06 11.1694C-2.34382e-06 17.3285 4.99782 22.3391 11.1411 22.3391H12.1184C18.2615 22.3391 23.2593 17.3287 23.2593 11.1694C23.2595 5.01068 18.2617 2.56347e-06 12.1184 2.56347e-06ZM3.45915 12.8159C3.48599 12.8159 9.95855 12.8163 9.98735 12.8163C10.0209 18.6596 9.91295 18.4909 10.0816 18.9721C6.79264 18.5252 4.14427 16.0319 3.45915 12.8159ZM9.98735 9.52283C9.95833 9.52283 3.48621 9.52326 3.45915 9.52326C4.14448 6.30742 6.79264 3.81433 10.0814 3.36721C9.90749 3.86333 10.0196 3.85131 9.98735 9.52283ZM13.1781 18.9721C13.3518 18.4771 13.2397 18.5215 13.2724 12.8163C13.3014 12.8163 19.7735 12.8159 19.8004 12.8159C19.1153 16.0317 16.4669 18.525 13.1781 18.9721ZM13.2726 9.52283C13.239 3.67477 13.3472 3.84868 13.1784 3.36721C16.4669 3.81433 19.1155 6.30742 19.8004 9.52326C19.7737 9.52326 13.3014 9.52283 13.2726 9.52283Z" transform="translate(51.0925 80.2402)" fill="#1D5A8D"/>
<path d="M1.77736 3.56387C2.75897 3.56387 3.55472 2.76607 3.55472 1.78193C3.55472 0.797798 2.75897 0 1.77736 0C0.795752 0 0 0.797798 0 1.78193C0 2.76607 0.795752 3.56387 1.77736 3.56387Z" transform="translate(26.3887 90.4634)" fill="#1D5A8D"/>
<path d="M18.8381 3.7982C13.7866 -1.26607 5.56706 -1.26607 0.51513 3.7982C-0.591958 4.90814 0.207479 6.79682 1.754 6.79682C2.20237 6.79682 2.65075 6.62532 2.99287 6.28232C6.67851 2.58742 12.6752 2.58742 16.3606 6.28232C17.0448 6.9681 18.1541 6.9681 18.8381 6.28232C19.5224 5.59632 19.5224 4.4842 18.8381 3.7982Z" transform="translate(54.8674 21.0128)" fill="#1D5A8D"/>
<path d="M12.4813 2.48062C9.18188 -0.826872 3.81314 -0.826872 0.513259 2.48062C-0.170979 3.16662 -0.171197 4.27874 0.513259 4.96452C1.1975 5.65074 2.30677 5.65074 2.99079 4.96474C4.92459 3.02662 8.07021 3.02662 10.0036 4.96474C10.688 5.65074 11.7971 5.65074 12.4811 4.96452C13.1658 4.27874 13.1658 3.16662 12.4813 2.48062Z" transform="translate(58.0469 26.3353)" fill="#1D5A8D"/>
<path d="M25.0421 5.87696C21.8336 2.235 17.5351 0.150539 12.9383 0.00791387C8.31663 -0.13493 3.90835 1.66013 0.513341 5.06365C-0.171115 5.74965 -0.171115 6.86177 0.513341 7.54777C1.1978 8.23377 2.30707 8.23377 2.99087 7.54777C5.69488 4.83681 9.1885 3.40641 12.8296 3.51906C16.4496 3.6315 19.854 5.29465 22.4157 8.20249C23.0533 8.9259 24.1601 9.00158 24.8887 8.35627C25.6142 7.71402 25.6827 6.60409 25.0421 5.87696Z" transform="translate(51.8037 15.9236)" fill="#1D5A8D"/>
<path d="M18.637 -1.83582e-07C8.35879 -1.83582e-07 -2.50362e-06 8.36455 -2.50362e-06 18.7147C-2.50362e-06 25.2249 3.4633 31.3612 9.03932 34.728C9.86778 35.229 10.9445 34.961 11.444 34.13C11.9432 33.2989 11.6761 32.2194 10.847 31.7191C6.11931 28.864 3.21086 23.5267 3.5281 17.8567C3.99241 9.4887 11.1302 3.07081 19.4929 3.53718C27.5153 3.98474 33.7995 10.6384 33.7995 18.6849C33.7995 28.003 25.5483 35.1174 16.3464 33.7104C15.3892 33.563 14.496 34.2229 14.3502 35.1817C14.2043 36.1407 14.8612 37.0369 15.8178 37.183C27.1245 38.9125 37.3036 30.1651 37.3036 18.6849C37.3034 8.38051 28.9601 -1.83582e-07 18.637 -1.83582e-07Z" transform="translate(45.8926 5.16928)" fill="#1D5A8D"/>
</svg>
