<svg width="84" height="84" viewBox="0 0 84 84" fill="none" xmlns="http://www.w3.org/2000/svg">
<path d="M1.62657 0C0.728702 0 0 0.733567 0 1.63743C0 2.54129 0.728702 3.27485 1.62657 3.27485C2.52443 3.27485 3.25314 2.54129 3.25314 1.63743C3.25314 0.733567 2.52443 0 1.62657 0Z" transform="translate(40.0889 43.7193)" fill="#1D5A8D"/>
<path d="M1.62657 0C0.728377 0 0 0.733076 0 1.63743V4.91228C0 5.81663 0.728377 6.54971 1.62657 6.54971C2.52476 6.54971 3.25314 5.81663 3.25314 4.91228V1.63743C3.25314 0.733076 2.52476 0 1.62657 0Z" transform="translate(33.5826 13.2632)" fill="#1D5A8D"/>
<path d="M1.62657 0C0.728377 0 0 0.733076 0 1.63743V4.91228C0 5.81663 0.728377 6.54971 1.62657 6.54971C2.52476 6.54971 3.25314 5.81663 3.25314 4.91228V1.63743C3.25314 0.733076 2.52476 0 1.62657 0Z" transform="translate(46.5951 13.2632)" fill="#1D5A8D"/>
<path d="M24.3985 0H21.1454C20.2472 0 19.5188 0.733076 19.5188 1.63743C19.5188 2.54178 20.2472 3.27485 21.1454 3.27485H24.3985C25.2954 3.27485 26.0251 4.0094 26.0251 4.91228C26.0251 5.81516 25.2954 6.54971 24.3985 6.54971H4.8797C4.44574 6.54971 4.03731 6.37925 3.73005 6.06978C3.42246 5.7603 3.25314 5.34914 3.25314 4.91228C3.25314 4.0094 3.98281 3.27485 4.8797 3.27485H8.13284C9.03103 3.27485 9.75941 2.54178 9.75941 1.63743C9.75941 0.733076 9.03103 0 8.13284 0H4.8797C2.18904 0 0 2.20365 0 4.91228C0 6.22386 0.507651 7.45733 1.42975 8.38559C2.35169 9.31352 3.57682 9.82456 4.8797 9.82456H24.3985C27.0892 9.82456 29.2782 7.62091 29.2782 4.91228C29.2782 2.20365 27.0892 0 24.3985 0Z" transform="translate(27.0763 43.7193)" fill="#1D5A8D"/>
<path d="M83.2803 55.0175C83.2803 52.883 81.9203 51.0628 80.0272 50.3869V42.6777C82.0109 41.523 83.2803 39.3701 83.2803 37.0058C83.2803 33.3943 80.3616 30.4561 76.774 30.4561C73.6979 30.4561 71.1152 32.6172 70.441 35.5101C69.052 34.3979 67.2965 33.731 65.388 33.731C62.8101 33.731 60.4062 34.9625 58.8824 37.0058C58.8823 37.0058 58.8821 37.0058 58.8818 37.0058H49.773V33.731H57.9058C60.6019 33.731 62.7855 31.5329 62.7855 28.8187C62.7855 26.6842 61.4256 24.864 59.5324 24.1881V21.2865C59.5324 18.0554 58.689 14.9436 57.0852 12.1929L61.6165 8.93495C62.409 9.49462 63.3727 9.82456 64.4121 9.82456C67.1028 9.82456 69.2918 7.62091 69.2918 4.91228C69.2918 2.20365 67.1028 0 64.4121 0C61.7214 0 59.5324 2.20365 59.5324 4.91228C59.5324 5.38369 59.6001 5.83923 59.7238 6.27118L55.1937 9.52835C51.8119 5.58624 46.8562 3.27485 41.6401 3.27485C36.4241 3.27485 31.4686 5.58608 28.0866 9.52835L23.5564 6.27118C23.6802 5.83923 23.7479 5.38369 23.7479 4.91228C23.7479 2.20365 21.5589 0 18.8682 0C16.1775 0 13.9885 2.20365 13.9885 4.91228C13.9885 7.62091 16.1775 9.82456 18.8682 9.82456C19.9076 9.82456 20.8713 9.49462 21.6638 8.93495L26.1951 12.1929C24.5913 14.9436 23.7479 18.0552 23.7479 21.2865V24.1854C21.8951 24.8435 20.4948 26.6359 20.4948 28.8187C20.4948 31.5273 22.6838 33.731 25.3745 33.731H33.5073V37.0058H24.3985C24.3984 37.0058 24.3982 37.0058 24.3979 37.0058C22.8741 34.9625 20.47 33.731 17.8923 33.731C15.9838 33.731 14.2282 34.3979 12.8393 35.5101C12.1651 32.6172 9.58244 30.4561 6.50627 30.4561C2.91871 30.4561 0 33.3943 0 37.0058C0 39.3704 1.26986 41.5237 3.25314 42.6779V50.3869C1.35997 51.0628 0 52.883 0 55.0175C0 57.1521 1.35997 58.9722 3.25314 59.6482V67.4387L0.476422 70.234C0.17144 70.541 0 70.9576 0 71.3918V74.6666C0 75.571 0.728377 76.3041 1.62657 76.3041C2.52476 76.3041 3.25314 75.571 3.25314 74.6666V72.07L4.8797 70.4326L6.50627 72.07V74.6666C6.50627 75.571 7.23465 76.3041 8.13284 76.3041C9.03103 76.3041 9.75941 75.571 9.75941 74.6666V71.3918C9.75941 70.9576 9.58797 70.541 9.28299 70.234L6.50627 67.4386V59.6482C8.39944 58.9722 9.75941 57.1522 9.75941 55.0175C9.75941 52.8828 8.39944 51.0628 6.50627 50.3869V43.5555C7.70505 43.5555 8.82836 43.2261 9.79389 42.6543C10.1651 46.8248 13.6544 50.1053 17.8923 50.1053C18.4407 50.1053 18.9856 50.0483 19.5188 49.939V57.4252C17.666 58.0833 16.2657 59.8756 16.2657 62.0585C16.2657 64.193 17.6257 66.0132 19.5188 66.6891V70.7368C15.9246 70.7368 13.0125 73.6675 13.0125 77.2865C13.0125 80.898 15.9313 83.8362 19.5188 83.8362H63.7615C67.3557 83.8362 70.2677 80.9056 70.2677 77.2865C70.2677 73.675 67.349 70.7368 63.7615 70.7368V66.6917C65.6143 66.0336 67.0146 64.2413 67.0146 62.0585C67.0146 59.9239 65.6546 58.1038 63.7615 57.4278V49.9389C64.2947 50.0483 64.8396 50.1051 65.388 50.1051C69.6259 50.1051 73.1152 46.8247 73.4864 42.6541C74.4519 43.2261 75.5752 43.5555 76.774 43.5555V50.3869C74.8809 51.0628 73.5209 52.8828 73.5209 55.0175C73.5209 57.1522 74.8809 58.9722 76.774 59.6482V67.4387L73.9973 70.234C73.6923 70.541 73.5209 70.9576 73.5209 71.3918V74.6666C73.5209 75.571 74.2493 76.3041 75.1474 76.3041C76.0456 76.3041 76.774 75.571 76.774 74.6666V72.07L78.4006 70.4326L80.0272 72.07V74.6666C80.0272 75.571 80.7555 76.3041 81.6537 76.3041C82.5519 76.3041 83.2803 75.571 83.2803 74.6666V71.3918C83.2803 70.9576 83.1088 70.541 82.8039 70.234L80.0272 67.4386V59.6482C81.9203 58.9722 83.2803 57.1521 83.2803 55.0175ZM64.4121 3.27485C65.309 3.27485 66.0387 4.0094 66.0387 4.91228C66.0387 5.81516 65.309 6.54971 64.4121 6.54971C63.5152 6.54971 62.7855 5.81516 62.7855 4.91228C62.7855 4.0094 63.5152 3.27485 64.4121 3.27485ZM18.8682 6.54971C17.9713 6.54971 17.2416 5.81516 17.2416 4.91228C17.2416 4.0094 17.9713 3.27485 18.8682 3.27485C19.7651 3.27485 20.4948 4.0094 20.4948 4.91228C20.4948 5.81516 19.7651 6.54971 18.8682 6.54971ZM4.8797 56.655C3.98281 56.655 3.25314 55.9204 3.25314 55.0175C3.25314 54.1147 3.98281 53.3801 4.8797 53.3801C5.77659 53.3801 6.50627 54.1147 6.50627 55.0175C6.50627 55.9204 5.77659 56.655 4.8797 56.655ZM5.42168 40.0942C4.12449 39.6328 3.25314 38.3918 3.25314 37.0058C3.25314 35.2001 4.71249 33.731 6.50627 33.731C8.30005 33.731 9.75941 35.2001 9.75941 37.0058C9.75941 39.2738 7.52028 40.8436 5.42168 40.0942ZM27.001 21.2865C27.001 13.0645 33.646 6.54971 41.6401 6.54971C49.6373 6.54971 56.2793 13.0676 56.2793 21.2865V23.9064H27.001V21.2865ZM25.3745 30.4561C24.4776 30.4561 23.7479 29.7216 23.7479 28.8187C23.7479 27.9147 24.4763 27.1813 25.3745 27.1813H57.9058C58.8027 27.1813 59.5324 27.9158 59.5324 28.8187C59.5324 29.7227 58.804 30.4561 57.9058 30.4561C54.0222 30.4561 29.2423 30.4561 25.3745 30.4561ZM46.5198 33.731V37.0058H36.7604V33.731H46.5198ZM22.772 41.9181C22.772 41.0141 23.4948 40.2807 24.3985 40.2807H58.8818C59.7936 40.2807 60.5083 41.0233 60.5083 41.9181V57.1462H22.772V41.9181ZM17.8923 46.8304C15.2016 46.8304 13.0125 44.6267 13.0125 41.9181C13.0125 39.2095 15.2016 37.0058 17.8923 37.0058C19.1104 37.0058 20.2638 37.4643 21.1459 38.2581C20.1372 39.1674 19.5188 40.4831 19.5188 41.9181V46.5489C18.9993 46.7333 18.4492 46.8304 17.8923 46.8304ZM19.5188 80.5614C17.725 80.5614 16.2657 79.0923 16.2657 77.2865C16.2657 75.478 17.7221 74.0117 19.5188 74.0117C21.3126 74.0117 22.772 75.4808 22.772 77.2865C22.772 79.0951 21.3155 80.5614 19.5188 80.5614ZM25.1539 80.5614C25.7212 79.5763 26.0249 78.455 26.0249 77.2865C26.0249 76.094 25.7051 74.9594 25.1497 73.9953H36.0049C35.4375 74.9804 35.1339 76.1181 35.1339 77.2865C35.1339 78.4791 35.4537 79.5973 36.0091 80.5614H25.1539ZM22.772 70.7368V66.9707H60.5083V70.7368H22.772ZM41.6401 80.5614C39.8464 80.5614 38.387 79.0923 38.387 77.2865C38.387 75.478 39.8434 74.0117 41.6401 74.0117C43.4339 74.0117 44.8933 75.4808 44.8933 77.2865C44.8933 79.0951 43.4369 80.5614 41.6401 80.5614ZM47.2752 80.5614C47.8426 79.5763 48.1463 78.455 48.1463 77.2865C48.1463 76.094 47.8265 74.9594 47.271 73.9953H58.1262C57.5589 74.9804 57.2552 76.1181 57.2552 77.2865C57.2552 78.4791 57.575 79.5973 58.1305 80.5614H47.2752ZM67.0146 77.2865C67.0146 79.0951 65.5582 80.5614 63.7615 80.5614C61.9677 80.5614 60.5083 79.0923 60.5083 77.2865C60.5083 75.478 61.9648 74.0117 63.7615 74.0117C65.5553 74.0117 67.0146 75.4808 67.0146 77.2865ZM62.1349 63.6959H21.1454C20.2485 63.6959 19.5188 62.9613 19.5188 62.0585C19.5188 61.1543 20.2474 60.421 21.1454 60.421H62.1349C63.0318 60.421 63.7615 61.1556 63.7615 62.0585C63.7615 62.9627 63.0329 63.6959 62.1349 63.6959ZM65.388 46.8304C64.8311 46.8304 64.281 46.7333 63.7615 46.5489V41.9181C63.7615 40.4832 63.1432 39.1677 62.1344 38.2583C63.0163 37.4643 64.1699 37.0058 65.388 37.0058C68.0787 37.0058 70.2677 39.2095 70.2677 41.9181C70.2677 44.6267 68.0787 46.8304 65.388 46.8304ZM73.5209 37.0058C73.5209 35.2001 74.9802 33.731 76.774 33.731C78.5678 33.731 80.0272 35.2001 80.0272 37.0058C80.0272 38.7947 78.588 40.2807 76.774 40.2807C74.9802 40.2807 73.5209 38.8116 73.5209 37.0058ZM78.4006 56.655C77.5037 56.655 76.774 55.9204 76.774 55.0175C76.774 54.1147 77.5037 53.3801 78.4006 53.3801C79.2975 53.3801 80.0272 54.1147 80.0272 55.0175C80.0272 55.9204 79.2975 56.655 78.4006 56.655Z" transform="translate(0.0751953 0.163757)" fill="#1D5A8D"/>
</svg>
