<svg width="79" height="79" viewBox="0 0 79 79" fill="none" xmlns="http://www.w3.org/2000/svg">
<path d="M78.0753 58.9474V22.269C78.071 18.6536 75.1605 15.7236 71.569 15.7193H57.2552V0H54.6527V18.1008C53.9199 16.8673 53.0464 15.7244 52.0502 14.6949V0H49.4477V15.2385C49.4477 15.595 49.5919 15.9361 49.8472 16.183C52.9261 19.1337 54.6639 23.2294 54.6527 27.5088C54.6605 36.1902 47.6758 43.2344 39.0518 43.2423C30.4279 43.2502 23.4304 36.2189 23.4226 27.5373C23.4161 20.2483 28.388 13.9108 35.4332 12.2281C36.0202 12.0885 36.435 11.5609 36.4351 10.9536V7.85965H33.8326V9.94769C30.4154 10.9644 27.3712 12.9717 25.0804 15.7193H6.50627C2.91481 15.7236 0.00422908 18.6536 0 22.269V58.9474C0.00422908 62.5628 2.91481 65.4928 6.50627 65.4971H27.8234L25.2209 70.7368H1.30125C0.582637 70.7368 0 71.3233 0 72.0468C0 78.5965 6.85631 78.5965 9.10878 78.5965H68.9665C71.219 78.5965 78.0753 78.5965 78.0753 72.0468C78.0753 71.3233 77.4926 70.7368 76.774 70.7368H52.8544L50.2518 65.4971H71.569C75.1605 65.4928 78.071 62.5628 78.0753 58.9474ZM35.0712 45.4144C36.3736 45.7048 37.7037 45.8504 39.0376 45.8479C49.0942 45.8363 57.2438 37.6325 57.2552 27.5088V23.5789H70.2677V55.0175H7.80753V23.5789H21.2508C19.0775 33.4505 25.2652 43.2266 35.0712 45.4144ZM75.3153 73.3567C74.8612 74.9692 73.2906 75.9766 68.9665 75.9766H9.10878C4.78471 75.9766 3.2141 74.9692 2.75996 73.3567H75.3153ZM28.1305 70.7368L30.733 65.4971H47.3422L49.9447 70.7368H28.1305ZM6.50627 62.8772C4.35026 62.8772 2.60251 61.1178 2.60251 58.9474V22.269C2.60251 20.0986 4.35026 18.3392 6.50627 18.3392H23.2612C22.7806 19.178 22.3673 20.0541 22.025 20.9591H6.50627C5.78765 20.9591 5.20502 21.5456 5.20502 22.269V56.3275C5.20502 57.0509 5.78765 57.6374 6.50627 57.6374H71.569C72.2876 57.6374 72.8702 57.0509 72.8702 56.3275V22.269C72.8702 21.5456 72.2876 20.9591 71.569 20.9591H57.2552V18.3392H71.569C73.725 18.3392 75.4728 20.0986 75.4728 22.269V58.9474C75.4728 61.1178 73.725 62.8772 71.569 62.8772H6.50627Z" transform="translate(0 0.403503)" fill="#1D5A8D"/>
<path d="M6.50627 0C2.91481 0.00425731 0.00422908 2.93427 0 6.54971C0 10.1669 2.91302 13.0994 6.50627 13.0994C10.0995 13.0994 13.0125 10.1669 13.0125 6.54971C13.0125 2.93247 10.0995 0 6.50627 0ZM6.50627 10.4795C4.35026 10.4795 2.60251 8.72012 2.60251 6.54971C2.60251 4.3793 4.35026 2.61988 6.50627 2.61988C8.66229 2.61988 10.41 4.3793 10.41 6.54971C10.41 8.72012 8.66229 10.4795 6.50627 10.4795Z" transform="translate(32.5315 21.3626)" fill="#1D5A8D"/>
<path d="M5.20502 0V9.9359C4.35238 9.68358 3.48265 9.49445 2.60251 9.37001V6.54971H5.42929e-06V10.5463C-0.00194645 11.2326 0.522622 11.804 1.20236 11.8563C2.85382 11.9778 4.47535 12.3647 6.0053 13.0025C6.66861 13.281 7.43049 12.9655 7.70717 12.2979C7.77386 12.1368 7.80802 11.964 7.80753 11.7895V0H5.20502Z" transform="translate(39.0376 0.403503)" fill="#1D5A8D"/>
<path d="M2.60251 0H0V3.92982H2.60251V0Z" transform="translate(39.0376 0.403503)" fill="#1D5A8D"/>
<path d="M2.60251 0H0V2.61988H2.60251V0Z" transform="translate(33.8325 3.02341)" fill="#1D5A8D"/>
<path d="M24.7238 9.16959H22.6626C22.6405 9.11588 22.6197 9.06217 22.5976 9.00847L24.055 7.54133C24.563 7.0298 24.563 6.20061 24.055 5.68908L20.3737 1.98325C19.8575 1.49186 19.05 1.49186 18.5338 1.98325L17.0764 3.45039L16.9163 3.38489V1.30994C16.9163 0.586526 16.3337 0 15.6151 0H10.41C9.69142 0 9.10878 0.586526 9.10878 1.30994V3.38489L8.94873 3.45039L7.49132 1.98325C6.98318 1.47188 6.15949 1.47188 5.65135 1.98325L1.9701 5.68908C1.46212 6.20061 1.46212 7.0298 1.9701 7.54133L3.42751 9.00847C3.40538 9.06217 3.38326 9.11588 3.36244 9.16959H1.30125C0.582637 9.16959 0 9.75611 0 10.4795V15.7193C0 16.4427 0.582637 17.0292 1.30125 17.0292H3.36244C3.38456 17.0829 3.40538 17.1367 3.42751 17.1904L1.9701 18.6575C1.46212 19.169 1.46212 19.9982 1.9701 20.5098L5.65135 24.2156C6.16762 24.707 6.97505 24.707 7.49132 24.2156L8.94873 22.7484L9.10878 22.8139V24.8889C9.10878 25.6123 9.69142 26.1988 10.41 26.1988H15.6151C16.3337 26.1988 16.9163 25.6123 16.9163 24.8889V22.8139L17.0764 22.7484L18.5338 24.2156C19.0419 24.7269 19.8656 24.7269 20.3737 24.2156L24.055 20.5098C24.563 19.9982 24.563 19.169 24.055 18.6575L22.5976 17.1904C22.6197 17.1367 22.6418 17.0829 22.6626 17.0292H24.7238C25.4425 17.0292 26.0251 16.4427 26.0251 15.7193V10.4795C26.0251 9.75611 25.4425 9.16959 24.7238 9.16959ZM23.4226 14.4107H21.7388C21.1631 14.411 20.6561 14.7919 20.4922 15.3473C20.3407 15.8645 20.1363 16.3646 19.8819 16.8393C19.6071 17.3492 19.6982 17.9803 20.1057 18.3903L21.2937 19.5862L19.4538 21.4359L18.2657 20.2399C17.8584 19.8297 17.2315 19.738 16.725 20.0146C16.2535 20.2707 15.7567 20.4765 15.2429 20.629C14.6912 20.794 14.3128 21.3044 14.3125 21.8839V23.5789H11.7113V21.8839C11.711 21.3044 11.3326 20.794 10.7809 20.629C10.2671 20.4765 9.77031 20.2707 9.29876 20.0146C8.79225 19.738 8.16537 19.8297 7.75808 20.2399L6.57003 21.4359L4.73136 19.5836L5.91941 18.3876C6.32686 17.9775 6.41795 17.3466 6.14322 16.8367C5.88883 16.362 5.68437 15.8619 5.53294 15.3447C5.36849 14.7897 4.86149 14.4095 4.28633 14.4094H2.60251V11.7895H4.28633C4.86198 11.7891 5.36898 11.4083 5.53294 10.8529C5.68437 10.3356 5.88883 9.83553 6.14322 9.36084C6.41795 8.85095 6.32686 8.21988 5.91941 7.80987L4.73136 6.61389L6.57133 4.76164L7.75938 5.95761C8.16683 6.36779 8.79355 6.45948 9.30007 6.18292C9.77161 5.92683 10.2684 5.72101 10.7822 5.56856C11.3329 5.40302 11.7106 4.89345 11.7113 4.31495V2.61988H14.3138V4.31495C14.3141 4.89443 14.6925 5.40482 15.2442 5.56987C15.758 5.72231 16.2548 5.92814 16.7263 6.18423C17.2328 6.46079 17.8597 6.3691 18.267 5.95892L19.4551 4.76295L21.295 6.6152L20.107 7.81118C19.6995 8.22119 19.6084 8.85225 19.8832 9.36215C20.1376 9.83684 20.342 10.3369 20.4935 10.8542C20.6574 11.4096 21.1644 11.7905 21.7401 11.7908H23.4226V14.4107Z" transform="translate(26.0251 14.8129)" fill="#1D5A8D"/>
<path d="M8.72723 1.85226L6.88726 -9.5943e-07L0.380983 6.54971C-0.126994 7.06124 -0.126994 7.89043 0.380983 8.40196L6.88726 14.9517L8.72723 13.0994L3.14094 7.47583L8.72723 1.85226Z" transform="translate(10.4104 36.1557)" fill="#1D5A8D"/>
<path d="M8.34625 6.54971L1.83997 -9.5943e-07L-9.53067e-07 1.85226L5.58628 7.47583L-9.53067e-07 13.0994L1.83997 14.9517L8.34625 8.40196C8.85422 7.89043 8.85422 7.06124 8.34625 6.54971Z" transform="translate(58.9377 36.1557)" fill="#1D5A8D"/>
</svg>
