<svg width="84" height="84" viewBox="0 0 84 84" fill="none" xmlns="http://www.w3.org/2000/svg">
<path d="M14.8867 7.99525e-08H14.867C11.8548 0.0443743 9.40482 2.54865 9.40482 5.58248V13.56H1.22578C0.548804 13.56 0 14.1125 0 14.794C0 15.4755 0.548804 16.0279 1.22578 16.0279H9.40498V22.5158H1.22578C0.548804 22.5158 0 23.0682 0 23.7497C0 24.4312 0.548804 24.9837 1.22578 24.9837H9.40498V31.4713H1.22578C0.548804 31.4715 0 32.024 0 32.7055C0 33.387 0.548804 33.9394 1.22578 33.9394H9.40498V40.4271H1.22578C0.548804 40.4271 0 40.9795 0 41.661C0 42.3425 0.548804 42.895 1.22578 42.895H9.40498V49.3828H1.22578C0.548804 49.3828 0 49.9353 0 50.6168C0 51.2983 0.548804 51.8507 1.22578 51.8507H9.40498V56.0704C9.40498 56.7516 9.95411 57.3044 10.6308 57.3044C11.3074 57.3044 11.8565 56.7516 11.8565 56.0704V5.58264C11.8565 3.88954 13.2229 2.49282 14.9047 2.46646C15.5814 2.45663 16.1224 1.89712 16.111 1.21432C16.1011 0.539696 15.5552 7.99525e-08 14.8867 7.99525e-08Z" transform="translate(0 9.3764)" fill="#1D5A8D"/>
<path d="M56.9916 2.70365H5.22709C3.96373 2.70365 2.83929 1.94355 2.36042 0.767057C2.10375 0.135338 1.38952 -0.165784 0.761995 0.0924383C0.134302 0.350824 -0.164661 1.07146 0.0918489 1.70154C0.948237 3.80923 2.96355 5.17141 5.22709 5.17141H12.8968V13.6602C12.8968 14.3417 13.4456 14.8941 14.1226 14.8941C14.7996 14.8941 15.3484 14.3417 15.3484 13.6602V5.17141H21.7932V13.6602C21.7932 14.3417 22.342 14.8941 23.019 14.8941C23.696 14.8941 24.2448 14.3417 24.2448 13.6602V5.17141H30.6894V13.6602C30.6894 14.3417 31.2382 14.8941 31.9152 14.8941C32.5921 14.8941 33.1409 14.3417 33.1409 13.6602V5.17141H39.5856V13.6602C39.5856 14.3417 40.1344 14.8941 40.8114 14.8941C41.4883 14.8941 42.0371 14.3417 42.0371 13.6602V5.17141H48.4819V13.6602C48.4819 14.3417 49.0307 14.8941 49.7077 14.8941C50.3847 14.8941 50.9335 14.3417 50.9335 13.6602V5.17141H56.9916C57.6683 5.17141 58.2174 4.61862 58.2174 3.93745C58.2174 3.25497 57.6683 2.70365 56.9916 2.70365Z" transform="translate(9.72485 69.1055)" fill="#1D5A8D"/>
<path d="M37.1676 7.99525e-08H3.91759C1.75686 7.99525e-08 -1.03249e-06 1.76875 -1.03249e-06 3.94374V37.4175C-1.03249e-06 39.5927 1.75702 41.3612 3.91759 41.3612H37.1677C39.3285 41.3612 41.0853 39.5925 41.0853 37.4175V3.94374C41.0853 1.76859 39.3283 7.99525e-08 37.1676 7.99525e-08ZM2.4514 3.94374C2.4514 3.12929 3.10837 2.46793 3.91743 2.46793H29.2732V15.3556C27.0571 15.8377 25.3066 17.5999 24.8279 19.8309H15.7946V13.503C18.1105 13.0473 19.8627 10.9889 19.8627 8.52592C19.8627 5.7305 17.6022 3.45513 14.8239 3.45513C12.3772 3.45513 10.3328 5.21881 9.87977 7.54854H2.4514V3.94374ZM30.4993 17.6919C32.3461 17.6919 33.8482 19.2055 33.8482 21.0648C33.8482 22.9241 32.3463 24.4361 30.4993 24.4361C28.6391 24.4361 27.1487 22.9092 27.1487 21.0648C27.1489 19.217 28.6434 17.6919 30.4993 17.6919ZM14.8239 11.1304C13.4063 11.1304 12.2367 9.9698 12.2367 8.52592C12.2367 7.0912 13.3971 5.92306 14.8239 5.92306C16.2507 5.92306 17.4111 7.0912 17.4111 8.52592C17.4111 9.97471 16.2393 11.1304 14.8239 11.1304ZM9.53006 31.2986C8.81909 30.8971 8.3386 30.1288 8.3386 29.2518C8.3386 27.9569 9.38627 26.9039 10.6726 26.9039C11.9589 26.9039 13.0049 27.9569 13.0049 29.2518C13.0047 31.0461 11.0769 32.1789 9.53006 31.2986ZM19.444 38.8933H11.2201V34.0364C13.6014 33.7632 15.4565 31.7214 15.4565 29.2518C15.4565 26.5962 13.3105 24.436 10.6726 24.436C8.03297 24.436 5.88704 26.5962 5.88704 29.2518C5.88704 31.2262 7.07362 32.9291 8.7685 33.6711V38.8933H3.91759C3.10853 38.8933 2.45156 38.2303 2.45156 37.4175V10.0165H10.0073C10.0177 10.0335 10.6765 12.5497 13.3431 13.3747V21.0648C13.3431 21.746 13.8922 22.2988 14.5688 22.2988H19.444V38.8933ZM38.6338 37.4175C38.6338 38.2303 37.9768 38.8933 37.1677 38.8933H21.8956V33.5569H38.6338V37.4175ZM38.6338 31.089H21.8956V22.2988H24.8279C25.3919 24.928 27.7208 26.9041 30.4993 26.9041C33.6978 26.9041 36.2998 24.2847 36.2998 21.0648C36.2998 18.2678 34.3368 15.9233 31.7251 15.3556C31.7251 15.3556 31.7249 15.3556 31.7247 15.3556V2.46793H37.1676C37.9766 2.46793 38.6336 3.12929 38.6336 3.94374V31.089H38.6338Z" transform="translate(21.0974 21.1454)" fill="#1D5A8D"/>
<path d="M63.4903 34.1965C64.1673 34.1965 64.7161 33.644 64.7161 32.9625C64.7161 32.281 64.1673 31.7286 63.4903 31.7286H55.3111V25.2408H63.4903C64.1673 25.2408 64.7161 24.6883 64.7161 24.0068C64.7161 23.3253 64.1673 22.7728 63.4903 22.7728H55.3111V14.7953C55.3111 11.7169 52.8236 9.21118 49.764 9.21118H42.0943V1.23396C42.0943 0.552468 41.5455 0 40.8685 0C40.1915 0 39.6427 0.552468 39.6427 1.23396V9.21102H33.1979V1.23396C33.1979 0.552468 32.6491 0 31.9721 0C31.2952 0 30.7464 0.552468 30.7464 1.23396V9.21102H24.3017V1.23396C24.3017 0.552468 23.7529 0 23.076 0C22.399 0 21.8502 0.552468 21.8502 1.23396V9.21102H15.4056V1.23396C15.4056 0.552468 14.8567 0 14.1798 0C13.5028 0 12.954 0.552468 12.954 1.23396V9.21102H6.5092V1.23396C6.5092 0.552468 5.9604 0 5.28342 0C4.60644 0 4.05764 0.552468 4.05764 1.23396V9.21102H1.22578C0.547503 9.21102 -5.361e-07 9.76381 -5.361e-07 10.445C-5.361e-07 11.1262 0.547503 11.6789 1.22578 11.6789C7.64698 11.6789 44.6251 11.6789 49.764 11.6789C51.4719 11.6789 52.8596 13.0775 52.8596 14.7951V68.5293C52.8596 69.3897 52.5196 70.1911 51.9002 70.785C51.41 71.2556 51.3903 72.0371 51.8578 72.529C52.0996 72.7839 52.4217 72.9123 52.7452 72.9123C53.0492 72.9123 53.3532 72.7988 53.5918 72.5717C54.7 71.5072 55.3113 70.0709 55.3113 68.5293V61.0634H63.4905C64.1675 61.0634 64.7163 60.5109 64.7163 59.8294C64.7163 59.1479 64.1675 58.5955 63.4905 58.5955H55.3113V52.1077H63.4905C64.1675 52.1077 64.7163 51.5552 64.7163 50.8737C64.7163 50.1922 64.1675 49.6397 63.4905 49.6397H55.3113V43.1521H63.4905C64.1675 43.1521 64.7163 42.5996 64.7163 41.9181C64.7163 41.2366 64.1675 40.6842 63.4905 40.6842H55.3113V34.1965H63.4903Z" transform="translate(18.564 0.163757)" fill="#1D5A8D"/>
</svg>
