<svg xmlns="http://www.w3.org/2000/svg" xmlns:xlink="http://www.w3.org/1999/xlink" width="25" height="38" viewBox="0 0 25 38"><defs><path id="xtk9a" d="M198.7 483.9c-.5-.57-1.36-.6-1.91-.08-.55.52-.6 1.4-.09 1.98a10.33 10.33 0 0 1 2.58 6.86v6.01c0 .29-.22.52-.5.52H180.2a.51.51 0 0 1-.5-.52v-6.01c0-5.6 4.4-10.14 9.79-10.14 4.93 0 8.95-4.15 8.95-9.26 0-5.11-4-9.26-8.94-9.26-4.94 0-8.96 4.16-8.96 9.27a9.6 9.6 0 0 0 1.06 4.38c.36.69 1.18.93 1.84.57.66-.37.9-1.22.55-1.9a6.68 6.68 0 0 1-.74-3.05c0-3.57 2.8-6.47 6.25-6.47 3.44 0 6.24 2.9 6.24 6.47 0 3.56-2.8 6.46-6.24 6.46-6.9 0-12.5 5.8-12.5 12.93v6.02a3.27 3.27 0 0 0 3.2 3.32h18.6c1.76 0 3.2-1.49 3.2-3.32v-6.02c0-3.25-1.17-6.36-3.3-8.76z"/></defs><g><g transform="translate(-177 -464)"><use fill="#464646" xlink:href="#xtk9a"/></g></g></svg>