<svg xmlns="http://www.w3.org/2000/svg" width="33" height="41"  viewBox="0 0 417.19 512"><defs><style>.cls-1{fill:#91dc5a;}</style></defs><title>close</title><g id="Слой_2" data-name="Слой 2"><g id="Capa_1" data-name="Capa 1"><path class="cls-1" d="M360.3,190.7V137.48C360.3,61.68,292.24,0,208.59,0S56.89,61.68,56.89,137.48V190.7A68.6,68.6,0,0,0,0,258.18V443.47A68.62,68.62,0,0,0,68.54,512h280.1a68.62,68.62,0,0,0,68.54-68.54V258.17A68.6,68.6,0,0,0,360.3,190.7ZM75.85,137.48C75.85,72.13,135.4,19,208.59,19S341.33,72.13,341.33,137.48v52.15H75.85Zm322.37,306A49.64,49.64,0,0,1,348.64,493H68.54A49.64,49.64,0,0,1,19,443.46V258.17a49.64,49.64,0,0,1,49.58-49.58h280.1a49.64,49.64,0,0,1,49.58,49.58Z"/><path class="cls-1" d="M208.59,265.48a38,38,0,0,0-37.93,37.93V360.3a37.93,37.93,0,0,0,75.85,0V303.41A38,38,0,0,0,208.59,265.48Zm19,94.81a19,19,0,0,1-37.93,0V303.41a19,19,0,0,1,37.93,0Z"/></g></g></svg>