<svg xmlns="http://www.w3.org/2000/svg" width="33" height="41" viewBox="0 0 44 54"><title>open</title><style>path{fill:#cb0000;}</style><g id="Слой_2" data-name="Слой 2"><g id="Capa_1" data-name="Capa 1"><path d="M38,20.11V14.5C38,6.51,30.82,0,22,0S6,6.51,6,14.5a1,1,0,0,0,2,0C8,7.61,14.28,2,22,2S36,7.61,36,14.5V20H7.23A7.24,7.24,0,0,0,0,27.23V46.77A7.24,7.24,0,0,0,7.23,54H36.77A7.24,7.24,0,0,0,44,46.77V27.23A7.24,7.24,0,0,0,38,20.11Zm4,26.66A5.24,5.24,0,0,1,36.77,52H7.23A5.24,5.24,0,0,1,2,46.77V27.23A5.24,5.24,0,0,1,7.23,22H36.77A5.24,5.24,0,0,1,42,27.23Z"/><path d="M22,28a4,4,0,0,0-4,4v6a4,4,0,0,0,8,0V32A4,4,0,0,0,22,28Zm2,10a2,2,0,0,1-4,0V32a2,2,0,0,1,4,0Z"/></g></g></svg>