<?xml version="1.0" encoding="utf-8"?><svg xmlns="http://www.w3.org/2000/svg" xmlns:xlink="http://www.w3.org/1999/xlink"><symbol viewBox="0 0 344.96 344.96" id="check" xmlns="http://www.w3.org/2000/svg"><defs><style>.acls-1{fill:#e75713}</style></defs><g id="aСлой_2" data-name="Слой 2"><path class="acls-1" d="M321.85 86.24l-40-23.11-23.1-40H212.5L172.48 0l-40 23.11H86.24l-23.11 40-40 23.1v46.21L0 172.48l23.11 40v46.21l40 23.11 23.11 40h46.21l40 23.1 40-23.11h46.21l23.11-40 40-23.11V212.5l23.11-40-23.11-40V86.24zM156.91 243.07a16.79 16.79 0 0 1-23.34 0l-50.45-50.44a16.19 16.19 0 0 1 0-22.89l13.35-13.35a16.19 16.19 0 0 1 22.89 0l25.87 25.87 80.34-80.35a16.19 16.19 0 0 1 22.89 0l13.35 13.35a16.19 16.19 0 0 1 0 22.89z" id="aCapa_1" data-name="Capa 1"/></g></symbol><symbol viewBox="0 0 27 27" id="search" xmlns="http://www.w3.org/2000/svg"><defs><path id="ba" d="M1496.29 895.37c3.81-1 7.89.08 10.63 2.84a10.72 10.72 0 0 1 3.14 7.75 10.95 10.95 0 0 1-2 6.18l6.94 6.98-2.93 2.87-6.93-6.97a11.03 11.03 0 0 1-14.01-1.3 10.72 10.72 0 0 1-3.14-7.76 11 11 0 0 1 3.32-7.75 11.24 11.24 0 0 1 4.98-2.84zm1 3.93a7.08 7.08 0 0 0-5.22 6.66 6.75 6.75 0 0 0 1.98 4.88 6.95 6.95 0 0 0 9.83 0 6.92 6.92 0 0 0 2.1-4.88 6.75 6.75 0 0 0-1.98-4.88 6.95 6.95 0 0 0-6.7-1.78z"/></defs><use xlink:href="#ba" transform="translate(-1488 -895)"/></symbol></svg>