<?xml version="1.0" encoding="UTF-8" standalone="no"?>
<!-- Created with Inkscape (http://www.inkscape.org/) -->

<svg
   xmlns:dc="http://purl.org/dc/elements/1.1/"
   xmlns:cc="http://creativecommons.org/ns#"
   xmlns:rdf="http://www.w3.org/1999/02/22-rdf-syntax-ns#"
   xmlns:svg="http://www.w3.org/2000/svg"
   xmlns="http://www.w3.org/2000/svg"
   xmlns:sodipodi="http://sodipodi.sourceforge.net/DTD/sodipodi-0.dtd"
   xmlns:inkscape="http://www.inkscape.org/namespaces/inkscape"
   width="132.31245mm"
   height="239.26157mm"
   viewBox="0 0 132.31245 239.26157"
   version="1.1"
   id="svg8"
   inkscape:version="0.92.1 r15371"
   sodipodi:docname="left.svg">
  <defs
     id="defs2" />
  <sodipodi:namedview
     id="base"
     pagecolor="#ffffff"
     bordercolor="#666666"
     borderopacity="1.0"
     inkscape:pageopacity="0.0"
     inkscape:pageshadow="2"
     inkscape:zoom="0.35"
     inkscape:cx="290.59296"
     inkscape:cy="229.14914"
     inkscape:document-units="mm"
     inkscape:current-layer="layer1"
     showgrid="false"
     fit-margin-top="0"
     fit-margin-left="0"
     fit-margin-right="0"
     fit-margin-bottom="0"
     inkscape:window-width="1366"
     inkscape:window-height="715"
     inkscape:window-x="-8"
     inkscape:window-y="-8"
     inkscape:window-maximized="1" />
  <metadata
     id="metadata5">
    <rdf:RDF>
      <cc:Work
         rdf:about="">
        <dc:format>image/svg+xml</dc:format>
        <dc:type
           rdf:resource="http://purl.org/dc/dcmitype/StillImage" />
        <dc:title></dc:title>
      </cc:Work>
    </rdf:RDF>
  </metadata>
  <g
     inkscape:label="Layer 1"
     inkscape:groupmode="layer"
     id="layer1"
     transform="translate(-28.94728,-29.878442)">
    <path
       style="fill:#000000;stroke-width:0.26458332"
       d="m 141.94895,268.78214 c -1.91554,-0.46692 -3.70798,-1.25084 -5.23827,-2.29094 C 135.5194,265.68151 31.2005,161.8192 29.69949,159.94838 l -0.72761,-0.90686 -0.0123,-9.68706 -0.0123,-9.68705 53.25973,-53.121184 c 34.39597,-34.3065 53.82199,-53.495976 54.84722,-54.179363 0.87313,-0.581996 2.54,-1.368918 3.70417,-1.748715 7.21356,-2.353349 15.29111,1.075801 18.63763,7.912202 1.39806,2.855997 1.86844,4.806681 1.86367,7.728594 -0.006,3.745199 -1.05071,7.110863 -3.08266,9.932431 -0.3668,0.509323 -21.50527,21.702447 -46.9744,47.095835 l -46.3075,46.16978 46.55781,46.51695 c 49.53353,49.49008 47.83127,47.70255 49.05377,51.51117 0.78657,2.45052 0.95346,6.49893 0.37508,9.09864 -1.31455,5.90866 -6.11153,10.84526 -11.85423,12.19926 -2.02026,0.47633 -5.12241,0.47595 -7.07855,-8e-4 z"
       id="path40"
       inkscape:connector-curvature="0" />
  </g>
</svg>
