<?xml version="1.0" encoding="UTF-8" standalone="no"?>
<!-- Created with Inkscape (http://www.inkscape.org/) -->

<svg
   xmlns:dc="http://purl.org/dc/elements/1.1/"
   xmlns:cc="http://creativecommons.org/ns#"
   xmlns:rdf="http://www.w3.org/1999/02/22-rdf-syntax-ns#"
   xmlns:svg="http://www.w3.org/2000/svg"
   xmlns="http://www.w3.org/2000/svg"
   xmlns:sodipodi="http://sodipodi.sourceforge.net/DTD/sodipodi-0.dtd"
   xmlns:inkscape="http://www.inkscape.org/namespaces/inkscape"
   width="151.63065mm"
   height="151.4678mm"
   viewBox="0 0 151.63065 151.46779"
   version="1.1"
   id="svg8"
   inkscape:version="0.92.1 r15371"
   sodipodi:docname="lupa.svg">
  <defs
     id="defs2" />
  <sodipodi:namedview
     id="base"
     pagecolor="#ffffff"
     bordercolor="#666666"
     borderopacity="1.0"
     inkscape:pageopacity="0.0"
     inkscape:pageshadow="2"
     inkscape:zoom="0.35"
     inkscape:cx="783.00112"
     inkscape:cy="375.54105"
     inkscape:document-units="mm"
     inkscape:current-layer="layer1"
     showgrid="false"
     fit-margin-top="0"
     fit-margin-left="0"
     fit-margin-right="0"
     fit-margin-bottom="0"
     inkscape:window-width="1366"
     inkscape:window-height="715"
     inkscape:window-x="-8"
     inkscape:window-y="-8"
     inkscape:window-maximized="1" />
  <metadata
     id="metadata5">
    <rdf:RDF>
      <cc:Work
         rdf:about="">
        <dc:format>image/svg+xml</dc:format>
        <dc:type
           rdf:resource="http://purl.org/dc/dcmitype/StillImage" />
        <dc:title></dc:title>
      </cc:Work>
    </rdf:RDF>
  </metadata>
  <g
     inkscape:label="Layer 1"
     inkscape:groupmode="layer"
     id="layer1"
     transform="translate(101.33571,-96.727428)">
    <path
       style="fill:#000000;stroke-width:0.26458332"
       d="m -93.510997,248.00997 c -3.00423,-0.62678 -5.75771,-2.8579 -7.100643,-5.75356 -0.94054,-2.02801 -0.96723,-4.99446 -0.0658,-7.30872 0.54814,-1.40719 1.400673,-2.37599 8.577873,-9.74773 4.38309,-4.50188 10.24818,-10.53191 13.03353,-13.40007 l 5.06428,-5.21483 -0.79906,-1.04473 c -4.10673,-5.36941 -8.37029,-13.43139 -10.48711,-19.83016 -2.43444,-7.35885 -3.32434,-13.08693 -3.30895,-21.29895 0.0122,-6.50111 0.53283,-10.68756 2.05658,-16.53646 3.05832,-11.73935 9.67006,-23.02701 18.44983,-31.49786 11.59188,-11.18402 26.242,-17.878674 42.56536,-19.451055 4.07213,-0.392256 12.50792,-0.177096 16.4041699,0.418399 12.5228,1.913961 24.5037101,7.126926 34.1312501,14.850726 4.91098,3.93988 10.35325,9.91044 13.95249,15.30688 11.39697,17.08776 14.3777,38.21631 8.12154,57.56855 -3.35261,10.37064 -8.6529,19.05833 -16.38549,26.85738 -1.89177,1.90803 -4.63109,4.40962 -6.08737,5.5591 -10.706,8.45048 -23.3563101,13.55572 -37.01201,14.9368 -3.97291,0.4018 -13.29759,0.18537 -17.09333,-0.39675 -9.92123,-1.52153 -20.06714,-5.36549 -28.07569,-10.63696 -0.9623,-0.63342 -1.86268,-1.15167 -2.00084,-1.15167 -0.13816,0 -5.83461,5.72624 -12.65878,12.72498 -6.82417,6.99874 -12.88895,13.05052 -13.47728,13.44842 -2.22175,1.50258 -5.27063,2.12695 -7.80459,1.59827 z m 81.71031,-32.94755 c 14.8144499,-2.17773 27.52678,-10.15013 35.78948,-22.44499 13.36032,-19.88007 10.84435,-46.23752 -6.03886,-63.2635 -4.46555,-4.50332 -8.4661701,-7.36898 -14.2385401,-10.19916 -7.54753,-3.70053 -14.4043599,-5.27897 -22.9321099,-5.27897 -20.07416,0 -37.97673,11.11033 -46.65939,28.95679 -2.9239,6.00982 -4.33543,11.18882 -4.92715,18.07796 -0.91538,10.65744 2.01689,22.02693 8.05786,31.2434 8.07707,12.32285 21.34166,20.77992 35.92085,22.90197 3.5337,0.51434 11.5496,0.51781 15.02786,0.007 z m 1.9718099,-18.73725 c -2.3558999,-0.77003 -4.4240299,-2.59765 -5.4250499,-4.79416 -0.45601,-1.0006 -0.60423,-1.8129 -0.60837,-3.33397 -0.005,-1.782 0.1,-2.21783 0.92057,-3.8265 2.66962,-5.23364 9.7875599,-6.35761 14.03875986,-2.21681 1.90797004,1.85843 2.49279004,3.28327 2.49140004,6.06999 -10e-4,1.91767 -0.10388,2.44382 -0.69867004,3.57187 -1.58444,3.00497 -4.21803996,4.6657 -7.62417996,4.80774 -1.19186,0.0497 -2.4326,-0.0618 -3.09446,-0.27816 z m 16.14017,-24.50973 c -2.27287,-0.46512 -4.21876,-1.9559 -5.31655004,-4.07311 -0.65081,-1.25518 -0.70056,-1.59857 -0.7317,-5.0509 -0.0361,-4.00738 -0.37303,-5.45251 -1.86419996,-7.99701 -1.71783,-2.93125 -5.88136,-6.5316 -9.8565999,-8.52334 -3.29435,-1.65059 -4.8131,-3.95133 -4.80108,-7.27314 0.0175,-4.84584 4.97164,-8.35276 9.8036099,-6.93979 3.37096,0.98574 9.21999,4.92712 13.21529,8.90515 6.7343201,6.70523 9.5415101,13.87984 8.9691101,22.9233 -0.24116,3.81027 -1.7531,6.28276 -4.596,7.5159 -1.3551001,0.58778 -3.3954901,0.80483 -4.8218801,0.51294 z"
       id="path86"
       inkscape:connector-curvature="0" />
  </g>
</svg>
