<?xml version="1.0" encoding="UTF-8" standalone="no"?>
<!-- Created with Inkscape (http://www.inkscape.org/) -->

<svg
   xmlns:dc="http://purl.org/dc/elements/1.1/"
   xmlns:cc="http://creativecommons.org/ns#"
   xmlns:rdf="http://www.w3.org/1999/02/22-rdf-syntax-ns#"
   xmlns:svg="http://www.w3.org/2000/svg"
   xmlns="http://www.w3.org/2000/svg"
   xmlns:sodipodi="http://sodipodi.sourceforge.net/DTD/sodipodi-0.dtd"
   xmlns:inkscape="http://www.inkscape.org/namespaces/inkscape"
   width="166.26614mm"
   height="164.53831mm"
   viewBox="0 0 166.26614 164.53831"
   version="1.1"
   id="svg8"
   inkscape:version="0.92.1 r15371"
   sodipodi:docname="soc-4.svg">
  <defs
     id="defs2" />
  <sodipodi:namedview
     id="base"
     pagecolor="#ffffff"
     bordercolor="#666666"
     borderopacity="1.0"
     inkscape:pageopacity="0.0"
     inkscape:pageshadow="2"
     inkscape:zoom="0.35"
     inkscape:cx="1082.3441"
     inkscape:cy="167.72348"
     inkscape:document-units="mm"
     inkscape:current-layer="layer1"
     showgrid="false"
     fit-margin-top="0"
     fit-margin-left="0"
     fit-margin-right="0"
     fit-margin-bottom="0"
     inkscape:window-width="1366"
     inkscape:window-height="715"
     inkscape:window-x="-8"
     inkscape:window-y="-8"
     inkscape:window-maximized="1" />
  <metadata
     id="metadata5">
    <rdf:RDF>
      <cc:Work
         rdf:about="">
        <dc:format>image/svg+xml</dc:format>
        <dc:type
           rdf:resource="http://purl.org/dc/dcmitype/StillImage" />
        <dc:title></dc:title>
      </cc:Work>
    </rdf:RDF>
  </metadata>
  <g
     inkscape:label="Layer 1"
     inkscape:groupmode="layer"
     id="layer1"
     transform="translate(180.53687,-28.67185)">
    <path
       style="fill:#000000;stroke-width:0.26458335"
       d="m -104.66161,193.04912 c -25.78675,-2.4278 -48.43541,-15.94209 -62.50924,-37.29881 -2.57265,-3.90393 -6.75647,-12.11984 -8.26288,-16.22606 -8.70126,-23.71825 -6.18873,-49.745848 6.87499,-71.218737 11.81961,-19.427954 31.84746,-33.485334 54.10488,-37.975766 6.28298,-1.267589 10.30126,-1.657897 17.068295,-1.657897 8.70862,0 15.68761,0.964465 23.49129,3.246391 25.77406,7.53677 46.32104,26.980956 55.06209,52.106801 6.43584,18.499628 6.04942,38.749748 -1.08343,56.776308 -7.47626,18.89443 -21.39329,34.18014 -39.4711,43.35289 -8.92186,4.52698 -17.28961,7.13621 -27.28322,8.50745 -3.61411,0.49589 -14.377745,0.72768 -17.991675,0.38743 z m 12.371245,-65.27241 0.0681,-16.72879 4.69069,-0.0722 4.69069,-0.0722 0.44593,-4.36562 c 0.24527,-2.4011 0.52073,-5.05024 0.61215,-5.88698 l 0.16621,-1.521358 h -5.3048 -5.30481 v -4.21858 c 0,-4.07672 0.0215,-4.24354 0.63795,-4.96094 l 0.63796,-0.74235 4.52142,-0.0836 4.52142,-0.0836 v -5.80341 -5.80341 h -6.55899 c -7.08137,0 -8.40629,0.17694 -11.10188,1.48269 -2.072075,1.00371 -4.073125,2.97366 -5.201165,5.12031 -1.35782,2.58395 -1.74422,4.90687 -1.74422,10.4859 v 4.60693 h -3.30729 -3.30729 v 5.953128 5.95312 h 3.30729 3.30729 v 16.80537 16.80536 l 7.077605,-0.0705 7.07761,-0.0705 z"
       id="path21"
       inkscape:connector-curvature="0" />
  </g>
</svg>
