<?xml version="1.0" encoding="UTF-8" standalone="no"?>
<!-- Created with Inkscape (http://www.inkscape.org/) -->

<svg
   xmlns:dc="http://purl.org/dc/elements/1.1/"
   xmlns:cc="http://creativecommons.org/ns#"
   xmlns:rdf="http://www.w3.org/1999/02/22-rdf-syntax-ns#"
   xmlns:svg="http://www.w3.org/2000/svg"
   xmlns="http://www.w3.org/2000/svg"
   xmlns:sodipodi="http://sodipodi.sourceforge.net/DTD/sodipodi-0.dtd"
   xmlns:inkscape="http://www.inkscape.org/namespaces/inkscape"
   width="183.61623mm"
   height="181.84972mm"
   viewBox="0 0 183.61622 181.84971"
   version="1.1"
   id="svg8"
   inkscape:version="0.92.1 r15371"
   sodipodi:docname="soc-2.svg">
  <defs
     id="defs2" />
  <sodipodi:namedview
     id="base"
     pagecolor="#ffffff"
     bordercolor="#666666"
     borderopacity="1.0"
     inkscape:pageopacity="0.0"
     inkscape:pageshadow="2"
     inkscape:zoom="0.35"
     inkscape:cx="1556.1099"
     inkscape:cy="167.04143"
     inkscape:document-units="mm"
     inkscape:current-layer="layer1"
     showgrid="false"
     fit-margin-top="0"
     fit-margin-left="0"
     fit-margin-right="0"
     fit-margin-bottom="0"
     inkscape:window-width="1366"
     inkscape:window-height="715"
     inkscape:window-x="-8"
     inkscape:window-y="-8"
     inkscape:window-maximized="1" />
  <metadata
     id="metadata5">
    <rdf:RDF>
      <cc:Work
         rdf:about="">
        <dc:format>image/svg+xml</dc:format>
        <dc:type
           rdf:resource="http://purl.org/dc/dcmitype/StillImage" />
        <dc:title></dc:title>
      </cc:Work>
    </rdf:RDF>
  </metadata>
  <g
     inkscape:label="Layer 1"
     inkscape:groupmode="layer"
     id="layer1"
     transform="translate(305.8874,-11.179984)">
    <path
       style="fill:#000000;stroke-width:0.26458332"
       d="m -216.66296,193.00536 c -20.65208,-0.50484 -40.82219,-8.15739 -56.75312,-21.53217 -3.6987,-3.10523 -9.69888,-9.2158 -12.56951,-12.80074 -2.76954,-3.45871 -6.98712,-9.81189 -9.05919,-13.64641 -15.91569,-29.453 -14.20222,-65.503416 4.43211,-93.24925 3.33079,-4.95943 6.46416,-8.726805 11.23764,-13.511459 8.15722,-8.176318 15.04476,-13.107066 25.14124,-17.998472 8.86371,-4.294167 16.8117,-6.719857 27.25209,-8.317211 4.7613,-0.728468 15.83936,-1.010218 21.0691,-0.535853 18.54982,1.682562 35.39856,8.498131 50.15585,20.288794 3.48376,2.783422 10.55043,9.871608 13.41806,13.4589 5.06476,6.335832 10.01731,14.619322 13.12973,21.960416 7.15708,16.880996 8.86581,36.891175 4.71075,55.165625 -7.8137,34.36566 -35.66624,61.55131 -70.46891,68.78162 -5.0206,1.04303 -9.33032,1.59069 -13.75834,1.74833 -2.03729,0.0725 -4.12088,0.15757 -4.6302,0.18898 -0.50933,0.0314 -1.99761,0.0309 -3.3073,-0.001 z m 33.36597,-56.74643 c 0.74326,-0.39213 1.89317,-1.31555 2.55534,-2.05205 2.18488,-2.43011 2.0464,-0.25385 2.0464,-32.15997 0,-31.906133 0.13848,-29.729869 -2.0464,-32.159982 -0.66217,-0.736497 -1.81208,-1.659922 -2.55534,-2.052053 l -1.35138,-0.71297 h -29.36875 -29.36875 l -1.25302,0.622687 c -1.69447,0.842062 -3.31636,2.513295 -4.14598,4.272105 l -0.68642,1.455208 v 28.575005 c 0,26.92551 0.0274,28.63609 0.47526,29.63333 0.76929,1.71306 1.79965,3.03514 3.0196,3.87448 2.33165,1.60422 0.5127,1.52141 32.22389,1.46706 l 29.10417,-0.0499 z m -58.28565,-6.03575 c -0.31791,-0.12809 -0.70486,-0.4699 -0.85989,-0.75958 -0.19091,-0.35671 -0.28188,-5.91214 -0.28188,-17.21284 V 95.564609 h 4.25538 c 3.30181,0 4.22433,0.0741 4.11683,0.33073 -1.30612,3.11783 -1.50735,8.056461 -0.47631,11.689771 1.7454,6.15064 6.37102,11.52734 12.09479,14.05866 4.01355,1.77499 9.77562,2.26262 14.00826,1.1855 7.38653,-1.87972 13.1937,-7.43213 15.5194,-14.83856 0.5312,-1.69169 0.62019,-2.52549 0.62019,-5.81151 0,-3.419821 -0.0647,-3.976601 -0.59532,-5.126871 -0.32742,-0.70972 -0.59531,-1.3348 -0.59531,-1.38906 0,-0.0543 1.905,-0.0987 4.23334,-0.0987 h 4.23333 v 16.689101 16.68911 l -0.7734,0.77339 -0.7734,0.7734 -27.07399,-0.0168 c -14.93347,-0.009 -27.3332,-0.12121 -27.65202,-0.24966 z m 23.72906,-15.31287 c -3.10278,-1.00126 -5.34906,-2.58245 -7.04495,-4.95903 -1.74958,-2.45181 -2.46755,-4.67963 -2.47447,-7.67807 -0.0155,-6.735971 4.22536,-11.856791 10.95586,-13.22906 6.39329,-1.303518 13.09624,2.562919 15.2399,8.790779 2.50871,7.288441 -2.05493,15.564101 -9.53259,17.286281 -1.8684,0.43032 -5.48784,0.32346 -7.14375,-0.2109 z m 19.96402,-28.990963 c -0.63176,-0.631751 -0.64944,-0.757391 -0.64944,-4.615453 0,-3.810865 0.025,-3.995065 0.63847,-4.708382 0.62723,-0.729289 0.69728,-0.744005 3.97916,-0.835996 6.24768,-0.175119 6.23029,-0.190391 6.23029,5.471478 0,5.598935 0.26355,5.337786 -5.38689,5.337786 -4.06631,0 -4.17712,-0.01495 -4.81159,-0.649433 z"
       id="path47"
       inkscape:connector-curvature="0" />
  </g>
</svg>
