<?xml version="1.0" encoding="UTF-8" standalone="no"?>
<!-- Created with Inkscape (http://www.inkscape.org/) -->

<svg
   xmlns:dc="http://purl.org/dc/elements/1.1/"
   xmlns:cc="http://creativecommons.org/ns#"
   xmlns:rdf="http://www.w3.org/1999/02/22-rdf-syntax-ns#"
   xmlns:svg="http://www.w3.org/2000/svg"
   xmlns="http://www.w3.org/2000/svg"
   xmlns:sodipodi="http://sodipodi.sourceforge.net/DTD/sodipodi-0.dtd"
   xmlns:inkscape="http://www.inkscape.org/namespaces/inkscape"
   width="134.96178mm"
   height="133.62849mm"
   viewBox="0 0 134.96177 133.62849"
   version="1.1"
   id="svg8"
   inkscape:version="0.92.1 r15371"
   sodipodi:docname="soc-3.svg">
  <defs
     id="defs2" />
  <sodipodi:namedview
     id="base"
     pagecolor="#ffffff"
     bordercolor="#666666"
     borderopacity="1.0"
     inkscape:pageopacity="0.0"
     inkscape:pageshadow="2"
     inkscape:zoom="0.35"
     inkscape:cx="1000.8122"
     inkscape:cy="106.02662"
     inkscape:document-units="mm"
     inkscape:current-layer="layer1"
     showgrid="false"
     fit-margin-top="0"
     fit-margin-left="0"
     fit-margin-right="0"
     fit-margin-bottom="0"
     inkscape:window-width="1366"
     inkscape:window-height="715"
     inkscape:window-x="-8"
     inkscape:window-y="-8"
     inkscape:window-maximized="1" />
  <metadata
     id="metadata5">
    <rdf:RDF>
      <cc:Work
         rdf:about="">
        <dc:format>image/svg+xml</dc:format>
        <dc:type
           rdf:resource="http://purl.org/dc/dcmitype/StillImage" />
        <dc:title></dc:title>
      </cc:Work>
    </rdf:RDF>
  </metadata>
  <g
     inkscape:label="Layer 1"
     inkscape:groupmode="layer"
     id="layer1"
     transform="translate(158.9649,-43.257703)">
    <path
       style="fill:#000000;stroke-width:0.26458332"
       d="m -98.081363,176.7235 c -12.875607,-1.43847 -24.374447,-5.9546 -34.457177,-13.53295 -3.32315,-2.49773 -8.83882,-7.85502 -11.52941,-11.19834 -21.19815,-26.34079 -19.61348,-63.680103 3.7356,-88.021191 10.57681,-11.026174 24.24834,-17.962273 39.86974,-20.22747 4.79787,-0.695721 13.889815,-0.635553 18.832335,0.124628 7.601777,1.169186 13.84614,3.141696 20.691156,6.536059 6.646648,3.295996 12.254367,7.373977 17.686496,12.861772 5.514136,5.570639 9.096784,10.594387 12.517754,17.552937 3.20022,6.509526 5.10061,12.629899 6.25968,20.159875 0.63208,4.10629 0.62872,14.20662 -0.006,18.33701 -1.52678,9.93395 -4.87807,18.88752 -10.038912,26.82068 -10.745872,16.51839 -27.568397,27.25604 -47.341277,30.21748 -3.224511,0.48294 -13.175405,0.70963 -16.219895,0.36951 z m -1.46011,-42.07064 c 3.37808,-0.29898 6.926873,-1.05664 9.529897,-2.03462 12.741205,-4.787 21.507673,-17.24544 22.392477,-31.82302 l 0.184669,-3.042488 1.929944,-1.802355 c 1.728277,-1.614019 3.803325,-4.080595 3.803325,-4.520952 0,-0.0916 -0.434462,0.01498 -0.965467,0.236861 -0.531008,0.221869 -1.632337,0.568221 -2.447396,0.769675 -3.122731,0.771822 -3.038851,0.837407 -1.239298,-0.969015 1.477965,-1.483606 3.349839,-4.497891 3.006445,-4.841285 -0.07089,-0.07089 -1.009523,0.287395 -2.085856,0.796187 -1.076333,0.508791 -2.742435,1.129403 -3.702449,1.379138 l -1.745483,0.454064 -1.165013,-0.95464 c -2.642389,-2.165242 -5.220817,-2.98757 -8.738661,-2.786989 -2.059527,0.117427 -2.647661,0.267909 -4.365701,1.11701 -2.616933,1.293358 -4.514504,3.202123 -5.83053,5.864919 -0.965335,1.953225 -1.019541,2.199592 -1.109843,5.044286 l -0.09494,2.990774 -0.831342,-8e-4 c -0.457237,-5.3e-4 -1.866948,-0.182 -3.132691,-0.40341 -6.942934,-1.214498 -13.682554,-4.848021 -18.827114,-10.150253 -1.14316,-1.178195 -2.17725,-2.081125 -2.29798,-2.006512 -0.49934,0.30861 -1.37271,3.303304 -1.50272,5.152686 -0.25053,3.563729 0.98371,6.86284 3.59481,9.608909 l 1.49061,1.5676 -1.19063,-0.19663 c -0.65484,-0.10815 -1.76058,-0.42022 -2.45719,-0.69349 -0.69661,-0.27327 -1.32169,-0.49685 -1.38906,-0.49685 -0.3084,0 -0.0725,2.22264 0.39718,3.74244 1.06254,3.43808 3.37575,6.0648 6.75637,7.67207 l 2.11666,1.00634 -1.19062,0.057 c -0.65485,0.0313 -1.81571,0.0244 -2.57969,-0.0155 -0.76398,-0.0398 -1.38906,0.005 -1.38906,0.0993 0,0.0944 0.32742,0.84322 0.7276,1.66396 1.60067,3.28288 4.8843,5.81197 8.66087,6.67072 l 1.84785,0.42018 -2.00549,1.24997 c -4.02505,2.5087 -8.10664,3.67799 -12.90121,3.6959 l -3.00891,0.0112 1.02454,0.63542 c 2.91151,1.8057 6.31871,3.17928 10.15266,4.09296 1.8945,0.45148 3.19952,0.62932 7.14375,0.97347 0.21829,0.019 1.76389,-0.0864 3.434687,-0.23423 z"
       id="path34"
       inkscape:connector-curvature="0" />
  </g>
</svg>
