<svg xmlns="http://www.w3.org/2000/svg" width="43"
height="43" viewBox="0 0 507.2 508"><title>about-i-4</title><g id="Слой_2" data-name="Слой 2"><g id="Capa_1" data-name="Capa 1"><polygon points="474.5 491.6 474.5 93.5 253.6 0 32.7 93.5 32.7 491.6 0 491.6 0 508 49 508 49 104.3 253.6 17.8 458.2 104.3 458.2 508 507.2 508 507.2 491.6 474.5 491.6"/><polygon points="73.6 172.5 73.6 508 90 508 90 188.9 417.2 188.9 417.2 508 433.6 508 433.6 172.5 73.6 172.5"/><path d="M114.5,393.4V508H245.4V393.4Zm57.2,16.4h16.4v16.4H171.7Zm57.4,81.8H130.9V409.8h24.5v32.7h49.1V409.8h24.6Z"/><path d="M261.8,393.4V508H392.7V393.4ZM319,409.8h16.4v16.4H319Zm57.3,81.8H278.1V409.8h24.5v32.7h49.1V409.8h24.6Z"/><path d="M188.1,377.1H319V262.5H188.1Zm57.3-98.2h16.4v16.4H245.4V278.9Zm-40.9,0H229v32.7h49.1V278.9h24.5v81.8H204.5Z"/><rect x="245.4" y="98.9" width="16.4" height="16.4"/><rect x="278.1" y="98.9" width="16.4" height="16.4"/><rect x="212.7" y="98.9" width="16.4" height="16.4"/></g></g></svg>