<svg xmlns="http://www.w3.org/2000/svg" width="47"
height="30" viewBox="0 0 512 323.87"><title>about-i-6</title><g id="Слой_2" data-name="Слой 2"><g id="Layer_1" data-name="Layer 1"><path d="M476.16,137.3l-13.26-53a8,8,0,0,0,6.35-7.84V67.88a33.71,33.71,0,0,0-33.67-33.67H375.18V16.57A16.59,16.59,0,0,0,358.61,0H50.77A16.59,16.59,0,0,0,34.2,16.57V161.94a8,8,0,0,0,16,0V16.57a.53.53,0,0,1,.53-.53H358.61a.53.53,0,0,1,.53.53V161.94a8,8,0,0,0,16,0v-9.09h94.61A26.23,26.23,0,0,1,494.7,171H469.78a8,8,0,0,0-8,8v17.1a25.15,25.15,0,0,0,25.12,25.12H496v35.27H475a50.76,50.76,0,0,0-96,0h-3.86V196.14a8,8,0,1,0-16,0v60.39H192.82a50.76,50.76,0,0,0-96,0H50.77a.53.53,0,0,1-.53-.53V238.36H85a8,8,0,0,0,0-16H8a8,8,0,1,0,0,16H34.21V256a16.59,16.59,0,0,0,16.57,16.57h43.3c0,.18,0,.36,0,.53a50.77,50.77,0,1,0,101.54,0c0-.18,0-.36,0-.53H376.26c0,.18,0,.36,0,.53a50.77,50.77,0,0,0,101.54,0c0-.18,0-.36,0-.53H504a8,8,0,0,0,8-8V179A42.29,42.29,0,0,0,476.16,137.3Zm-101-87.06h60.39a17.66,17.66,0,0,1,17.64,17.64v.53h-78Zm0,86.58V84.44h71.23l13.09,52.38H375.18Zm-230.35,171a34.74,34.74,0,1,1,34.74-34.74A34.78,34.78,0,0,1,144.84,307.84Zm282.19,0a34.74,34.74,0,1,1,34.74-34.74A34.78,34.78,0,0,1,427,307.84ZM496,205.23h-9.09a9.1,9.1,0,0,1-9.09-9.09v-9.09H496v18.17Z"/><path d="M144.84,256.53A16.57,16.57,0,1,0,161.4,273.1,16.59,16.59,0,0,0,144.84,256.53Z"/><path d="M427,256.53a16.57,16.57,0,1,0,16.57,16.57A16.59,16.59,0,0,0,427,256.53Z"/><path d="M333,222.33H213.24a8,8,0,0,0,0,16H333a8,8,0,0,0,0-16Z"/><path d="M127.73,188.13H25.12a8,8,0,1,0,0,16H127.73a8,8,0,0,0,0-16Z"/><path d="M278.77,79.31a8,8,0,0,0-11.34,0L196.14,150.6l-37.09-37.09a8,8,0,0,0-11.34,11.34l42.76,42.76a8,8,0,0,0,11.34,0l77-77A8,8,0,0,0,278.77,79.31Z"/></g></g></svg>