<svg xmlns="http://www.w3.org/2000/svg" width="42"
height="44" viewBox="0 0 485 512"><title>about-i-5</title><g id="Слой_2" data-name="Слой 2"><g id="Capa_1" data-name="Capa 1"><path d="M362.8,2.2A7.55,7.55,0,0,0,357.5,0h-190A7.51,7.51,0,0,0,160,7.5V41.34a7.5,7.5,0,1,0,15,0V15H350V160H257.5a7.52,7.52,0,0,0-2.78.54L215,176.42v-8.91a7.51,7.51,0,0,0-7.5-7.5H175V71.34a7.5,7.5,0,0,0-15,0v96.17a7.49,7.49,0,0,0,7.5,7.5H200V187.5a7.49,7.49,0,0,0,7.5,7.5,7.34,7.34,0,0,0,2.78-.54L258.94,175H357.5a7.49,7.49,0,0,0,7.5-7.5V7.5A7.51,7.51,0,0,0,362.8,2.2Z"/><path d="M447.5,427H425V410.4a87.28,87.28,0,0,0,30-65.87V315.76c5.86-29.48,3.17-51.34-8-65a37.46,37.46,0,0,0-22-13.09V204.5a7.5,7.5,0,0,0-7.5-7.5c-2.85,0-5.76,0-8.73,0s-6.26,0-9.46,0c-36.18,0-76.8,2.29-100.93,29.62C281,246.22,275,275.26,280,315.33v29.21a87.28,87.28,0,0,0,30,65.88V427H287.5A37.54,37.54,0,0,0,250,464.5v40a7.5,7.5,0,0,0,7.5,7.5h220a7.5,7.5,0,0,0,7.5-7.5v-40A37.54,37.54,0,0,0,447.5,427ZM309.62,236.49c20-22.65,56.78-24.55,89.69-24.55,3.17,0,6.3,0,9.38,0H410V244.5A7.44,7.44,0,0,0,417.9,252a23,23,0,0,1,17.5,8.31c5.12,6.24,7.67,15.83,7.62,28.25L439.75,282a7.5,7.5,0,0,0-9-3.79c-.45.14-44.88,14.21-70.52,14.21-24.59,0-46.84-13.33-47-13.46a7.5,7.5,0,0,0-9.91,1.9l-9.9,13.2C292.79,268.72,298.22,249.4,309.62,236.49ZM295,344.53V316.94L311.42,295c9.25,4.6,28,12.4,48.83,12.4,22.21,0,55.29-9,68.92-13L440,316.06v28.47a72.5,72.5,0,0,1-145,0ZM410,421v9.52l-23,15.36-12-6v-8.19A86.88,86.88,0,0,0,410,421Zm-50,10.72v7.75l-16.22,6.49L325,430.9V421A86.87,86.87,0,0,0,360,431.68ZM330,497H295V482h35Zm140-32.5V497H345V474.5a7.5,7.5,0,0,0-7.5-7.5h-50a7.5,7.5,0,0,0-7.5,7.5V497H265V464.5A22.53,22.53,0,0,1,287.5,442h27.37l23,18.35.21.14a7.83,7.83,0,0,0,.65.44l.41.23c.21.11.44.2.66.29l.45.17a7.45,7.45,0,0,0,.76.19l.38.09a7.42,7.42,0,0,0,1.18.1,7.72,7.72,0,0,0,.79,0l.14,0,.62-.1.25-.06.48-.14.31-.11.2-.07,21.87-8.75,17,8.49.35.15.41.17c.19.07.38.12.57.17l.27.08a7.62,7.62,0,0,0,.8.15h.07a7.57,7.57,0,0,0,.89.05,7.49,7.49,0,0,0,1-.08l.45-.1c.19,0,.38-.07.57-.12l.45-.16c.19-.07.37-.13.55-.21l.39-.2c.2-.1.39-.2.58-.32l.12-.07L419.77,442H447.5A22.53,22.53,0,0,1,470,464.48Z"/><path d="M197.5,427H165V418a87.47,87.47,0,0,0,40-73.42V328l10,3.56a7.5,7.5,0,0,0,10-7.06c0-45-8.67-78.43-25.76-99.34-14-17.17-33.34-25.88-57.37-25.88-28,0-54.25,12-63.57,16.81l-17.58-8.37a7.5,7.5,0,0,0-7,.28c-3,1.74-29.19,19-23.74,86.77v49.75A87.47,87.47,0,0,0,70,418v9H37.5A37.54,37.54,0,0,0,0,464.5v40A7.5,7.5,0,0,0,7.5,512h220a7.5,7.5,0,0,0,7.5-7.5v-40s0,0,0,0A37.54,37.54,0,0,0,197.5,427ZM58.72,223.39l16.56,7.88a7.51,7.51,0,0,0,7-.27c.29-.17,29.52-16.72,59.64-16.72,42.94,0,65.78,33.47,68,99.51L80,267.44a7.5,7.5,0,0,0-5.88.36l-29.8,14.9C43.25,245.12,53.65,229,58.72,223.39ZM45,344.53V299.14l33-16.49,112,40v21.89a72.5,72.5,0,0,1-145,0Zm105,81.21v8.76h0a32.5,32.5,0,1,1-65,0v-8.76a87.49,87.49,0,0,0,65,0Zm70,38.76V497H15V464.5A22.53,22.53,0,0,1,37.5,442H70.6a47.5,47.5,0,0,0,93.8,0h33.1A22.53,22.53,0,0,1,220,464.48Z"/><path d="M285.48,39.51a32.5,32.5,0,0,0-55.48,23,7.5,7.5,0,1,0,15,0h0A17.48,17.48,0,1,1,262.6,80h-.1A7.51,7.51,0,0,0,255,87.5v20a7.5,7.5,0,1,0,15,0V94.12h0a32.5,32.5,0,0,0,15.48-54.61Z"/><path d="M262.5,120a7.5,7.5,0,0,0-7.5,7.5v10a7.5,7.5,0,0,0,15,0v-10A7.51,7.51,0,0,0,262.5,120Z"/></g></g></svg>