<svg xmlns="http://www.w3.org/2000/svg" width="41"
height="49" viewBox="0 0 390.32 470"><title>about-i-1</title><g id="Слой_2" data-name="Слой 2"><g id="Слой_1-2" data-name="Слой 1"><path d="M389.75,418.38,327.53,268.16a7.5,7.5,0,1,0-13.86,5.74l56.25,135.8-51.31-14.87a7.5,7.5,0,0,0-8.66,3.59l-25.77,46.79L223.83,299.5c69.66-13.43,122.45-74.85,122.45-148.38C346.28,67.79,278.49,0,195.16,0S44,67.79,44,151.12a150.33,150.33,0,0,0,29.9,90.13L.57,418.38a7.5,7.5,0,0,0,9,10.07l60.53-17.54,30.4,55.21a7.5,7.5,0,0,0,6.57,3.88h.42a7.5,7.5,0,0,0,6.51-4.62L172.16,325a7.5,7.5,0,0,0-13.86-5.74L106.13,445.21,80.37,398.42a7.5,7.5,0,0,0-8.66-3.59L20.4,409.7,84.8,254.23a150.72,150.72,0,0,0,110.36,48c4.49,0,8.93-.21,13.32-.59L276.3,465.37a7.5,7.5,0,0,0,6.51,4.62h.42a7.5,7.5,0,0,0,6.57-3.88l30.4-55.21,60.53,17.54a7.5,7.5,0,0,0,9-10.07ZM59,151.12C59,76.06,120.11,15,195.16,15S331.28,76.06,331.28,151.12,270.22,287.24,195.16,287.24,59,226.18,59,151.12Z"/><path d="M281.82,123a7.5,7.5,0,0,0-5.89-5.08l-50.47-8.47L201.81,64a7.5,7.5,0,0,0-13.3,0l-23.65,45.38-50.47,8.47a7.5,7.5,0,0,0-4.11,12.65L146.13,167l-7.54,50.61a7.5,7.5,0,0,0,10.76,7.82l45.81-22.81L241,225.48a7.5,7.5,0,0,0,10.76-7.82L244.19,167,280,130.53A7.5,7.5,0,0,0,281.82,123Zm-51,36.24a7.5,7.5,0,0,0-2.07,6.36l6,40.07-36.27-18.06a7.5,7.5,0,0,0-6.69,0l-36.27,18.06,6-40.07a7.5,7.5,0,0,0-2.07-6.36l-28.38-28.91,40-6.71a7.5,7.5,0,0,0,5.41-3.93l18.73-35.93,18.73,35.93a7.5,7.5,0,0,0,5.41,3.93l40,6.71-28.39,28.91Z"/><path d="M308.77,158.68a7.49,7.49,0,0,0-8.42,6.45,106.12,106.12,0,1,1,0-28,7.5,7.5,0,1,0,14.87-2C307.28,75.2,255.67,30,195.16,30a121.12,121.12,0,1,0,0,242.24c60.51,0,112.12-45.2,120.06-105.13a7.5,7.5,0,0,0-6.45-8.42Z"/></g></g></svg>