<svg xmlns="http://www.w3.org/2000/svg" width="41"
height="41" viewBox="0 0 512 512"><title>about-i-3</title><g id="Слой_2" data-name="Слой 2"><g id="Слой_1-2" data-name="Слой 1"><path d="M328.88,263.14h30v42h-30Z"/><path d="M328.88,331.3h30v37h-30Z"/><path d="M328.88,191.81h30v42h-30Z"/><path d="M262.35,337.29h42v30h-42Z"/><path d="M191.68,337.29h42v30h-42Z"/><path d="M512,0H0V512H136V481.11H482.21V136H512ZM482,30v76H450V68H420v38H387.5V68h-30v38H325V68H295v38H262.5V68h-30v38H200V68H170v38H136V30ZM30,30h76v76H30Zm0,452V136h76v34.17H70.5v30H106v32.5H70.5v30H106v32.5H70.5v30H106v32.5H70.5v30H106v32.5H70.5v30H106V482Zm422.21-30.89H136V367.29h27v-30H136V136H328.88v27h30V136h93.33Z"/></g></g></svg>