<svg xmlns="http://www.w3.org/2000/svg"  width="144"
height="92"  viewBox="0 0 512 323.11"><title>advantages-2</title><g id="Слой_2" data-name="Слой 2"><g id="Слой_1-2" data-name="Слой 1"><path d="M71.64,227.43A23.55,23.55,0,1,0,95.19,251,23.57,23.57,0,0,0,71.64,227.43Zm0,32.06A8.52,8.52,0,1,1,80.16,251,8.53,8.53,0,0,1,71.64,259.49Z"/><path d="M127.75,146.27a23.55,23.55,0,1,0-23.55-23.55A23.58,23.58,0,0,0,127.75,146.27Zm0-32.07a8.52,8.52,0,1,1-8.52,8.52A8.53,8.53,0,0,1,127.75,114.2Z"/><path d="M183.86,227.43A23.55,23.55,0,1,0,207.41,251,23.57,23.57,0,0,0,183.86,227.43Zm0,32.06a8.52,8.52,0,1,1,8.52-8.52A8.53,8.53,0,0,1,183.86,259.49Z"/><path d="M440.36,179.83H428.07c16.91-14,27.82-33.61,27.82-56.61a71.72,71.72,0,0,0-71.64-71.64h-54l12.53-12.77L304.09,0,218.63,85.41,229.25,96l74.84-74.86,17.43,17.42L258.7,101.38l10.63,10.88,13.83-13.58h45v-15h-30l17-17h69c15.82,0,30.14,6,40.43,17H376.23v15h59a55,55,0,0,1,5.6,24.55,56.67,56.67,0,0,1-56.61,56.61H183.86a71.71,71.71,0,0,0-14.16,1.41c4.21-3.05,8.08-7.42,11.54-10.43H240v-15H191.53a111.41,111.41,0,0,0,6.15-17h98.4v-15h-96.7c0-1,0-.34,0-.5a71.41,71.41,0,0,0-27.82-56.61h52.36v-15H127.75a71.35,71.35,0,0,0-41.92,129.3,71.22,71.22,0,0,0-14.19-1.49C32.14,179.39,0,211.75,0,251.25s32.14,71.86,71.64,71.86H440.36a71.64,71.64,0,1,0,0-143.28ZM71.14,122.72a56.61,56.61,0,1,1,56.61,56.61A56.68,56.68,0,0,1,71.14,122.72Zm70.77,70.23a72.1,72.1,0,0,0-14.14,13.53A71.61,71.61,0,0,0,113.6,193a71.66,71.66,0,0,0,28.31,0ZM71.64,307.58a56.61,56.61,0,1,1,47.53-87.36,71.52,71.52,0,0,0,0,61.5A56.83,56.83,0,0,1,71.64,307.58Zm43.85.5c4.54-4,8.67-7.57,12.29-12.11,3.59,4.51,7.7,8.11,12.26,12.11Zm68.37-.5A56.61,56.61,0,1,1,240.47,251,56.67,56.67,0,0,1,183.86,307.58Zm308-32.56c-9,19-28.64,33.06-51.46,33.06H227.68a89.46,89.46,0,0,0,15.85-17h92.62V276h-85a72.77,72.77,0,0,0,4.34-24.55c0-11.72-2.85-23.55-7.86-32.56h80.5v-15h-90.8a31.81,31.81,0,0,0-9.66-9H440.36A56.67,56.67,0,0,1,497,251.47a59,59,0,0,1-.64,8.52H392.27v15Z"/><path d="M344.17,83.64h16v15h-16Z"/><path d="M312.11,123.72h104.2v15H312.11Z"/><path d="M256,155.79h16v15H256Z"/><path d="M272,244h80.16v15H272Z"/><path d="M424.33,219.91h48.09v15H424.33Z"/><path d="M344.17,203.88h16v15h-16Z"/><path d="M360.2,276h16v15h-16Z"/></g></g></svg>