<svg xmlns="http://www.w3.org/2000/svg"  width="135"
height="84" viewBox="0 0 64 40"><title>advantages-3</title><g id="Слой_2" data-name="Слой 2"><g id="Layer_1" data-name="Layer 1"><g id="Waves"><path d="M16.51,12.15c5.33,0,10.65-1.83,16-5.5a26.43,26.43,0,0,1,29.89,0,1,1,0,0,0,1.38-.29A1,1,0,0,0,63.55,5,28.39,28.39,0,0,0,31.44,5c-10,6.83-19.81,6.83-29.88,0a1,1,0,0,0-1.39.27,1,1,0,0,0,.27,1.4C5.85,10.32,11.19,12.15,16.51,12.15Z"/><path d="M63.55,18.89a28.39,28.39,0,0,0-32.11,0c-10,6.83-19.81,6.83-29.88,0a1,1,0,0,0-1.39.27,1,1,0,0,0,.27,1.4c5.41,3.67,10.74,5.5,16.07,5.5s10.65-1.83,16-5.5a26.43,26.43,0,0,1,29.89,0,1,1,0,0,0,1.38-.29A1,1,0,0,0,63.55,18.89Z"/><path d="M63.55,32.82a28.4,28.4,0,0,0-32.11,0c-10,6.83-19.81,6.83-29.88,0a1,1,0,0,0-1.39.27,1,1,0,0,0,.27,1.4C5.85,38.17,11.19,40,16.51,40s10.65-1.84,16-5.5a26.43,26.43,0,0,1,29.89,0,1,1,0,0,0,1.38-.29A1,1,0,0,0,63.55,32.82Z"/></g></g></g></svg>