<svg xmlns="http://www.w3.org/2000/svg" xmlns:xlink="http://www.w3.org/1999/xlink" width="82" height="82" viewBox="0 0 82 82"><defs><path id="i8osa" d="M1087 3041.04v61.5c0 .8-.65 1.46-1.46 1.46h-79.08c-.8 0-1.46-.66-1.46-1.46v-26.36c0-.81.65-1.47 1.46-1.47h24.9v-16.1c0-.81.65-1.47 1.46-1.47h24.9v-16.1c0-.81.65-1.47 1.46-1.47h26.36c.8 0 1.46.66 1.46 1.47zm-26.36 13.17h23.43v-11.71h-23.43zm-52.71 41h23.43v-2.92h-23.43zm26.36-5.85h23.42v-2.93h-23.42zm0-5.86h23.42v-2.93h-23.42zm23.42-8.79h-23.42v2.93h23.42zm-23.42 20.5h23.42v-2.92h-23.42zm26.35 0h23.43v-2.92h-23.43zm0-5.85h23.43v-2.93h-23.43zm0-5.86h23.43v-2.93h-23.43zm0-5.86h23.43v-2.93h-23.43zm0-5.85h23.43v-2.93h-23.43zm0-5.86h23.43V3063h-23.43zm0-5.86h23.43v-2.93h-23.43zm-26.35 11.72h23.42v-11.72h-23.42zm-26.36 17.57h23.43v-11.72h-23.43zm0 11.71h23.43v-2.93h-23.43zm26.36 0h23.42v-2.93h-23.42zm49.78 0v-2.93h-23.43v2.93zm-60.03-17.57a4.4 4.4 0 1 1-8.8-.01 4.4 4.4 0 0 1 8.8.01zm-2.93 0a1.47 1.47 0 1 0-2.93 0 1.47 1.47 0 0 0 2.93 0zm29.28-17.57a4.4 4.4 0 1 1-8.8-.01 4.4 4.4 0 0 1 8.8 0zm-2.93 0a1.47 1.47 0 1 0-2.93 0 1.47 1.47 0 0 0 2.93 0zm29.29-17.57a4.4 4.4 0 1 1-8.8-.01 4.4 4.4 0 0 1 8.8 0zm-2.93 0a1.47 1.47 0 1 0-2.93 0 1.47 1.47 0 0 0 2.93 0zm-66.32 17.14l-2.07-2.07 26.36-26.36c.57-.57 1.5-.57 2.07 0l7.75 7.75 19.9-19.9h-3.8V3022h7.33c.8 0 1.46.66 1.46 1.46v7.33h-2.93v-3.8l-20.93 20.94c-.57.57-1.5.57-2.07 0l-7.75-7.75z"/></defs><g><g transform="translate(-1005 -3022)"><use fill="#aa872e" xlink:href="#i8osa"/></g></g></svg>