<svg xmlns="http://www.w3.org/2000/svg" xmlns:xlink="http://www.w3.org/1999/xlink" width="60" height="86" viewBox="0 0 60 86"><defs><path id="8l7ta" d="M1317.34 3097.86a1.52 1.52 0 0 1-2.13.32 29.89 29.89 0 0 1-12.21-24.07v-26.22c0-.85.04-1.72.1-2.56a1.52 1.52 0 0 1 3.04.26c-.06.76-.1 1.53-.1 2.3v26.22c0 8.5 4.1 16.58 10.98 21.63.68.5.82 1.45.32 2.12zm7.72 3.55a1.52 1.52 0 0 1-1.94.93 29.93 29.93 0 0 1-3.07-1.26 1.52 1.52 0 1 1 1.31-2.74c.9.43 1.83.81 2.77 1.14.79.27 1.21 1.14.93 1.93zm37.94-32.68v5.38a29.98 29.98 0 0 1-33.5 29.69 1.52 1.52 0 1 1 .35-3.02 26.94 26.94 0 0 0 30.1-26.68v-5.37a1.52 1.52 0 0 1 3.05 0zm0-20.84v14.77a1.52 1.52 0 0 1-3.05 0v-14.77c0-14.8-12.09-26.86-26.95-26.86a26.8 26.8 0 0 0-16.02 5.26c-4.57 3.38-7.9 8-9.64 13.36a1.52 1.52 0 0 1-2.9-.93 29.76 29.76 0 0 1 10.73-14.87A29.83 29.83 0 0 1 1333 3018c16.54 0 30 13.4 30 29.9zm-48.54 35.3a20.73 20.73 0 0 0 18.54 11.5c2.97 0 5.84-.62 8.52-1.83a1.51 1.51 0 1 1 1.26 2.76 23.67 23.67 0 0 1-31.06-11.1 1.53 1.53 0 0 1 2.73-1.34zm32.04 8.5c-.55-.62-.5-1.58.14-2.13a20.57 20.57 0 0 0 7.02-15.45v-26.22c0-4.4-1.38-8.6-4-12.15-.49-.67-.34-1.62.33-2.12.68-.5 1.64-.35 2.13.33 3 4.07 4.58 8.89 4.58 13.94v26.22a23.6 23.6 0 0 1-8.05 17.72 1.52 1.52 0 0 1-2.15-.13zm-4.95-62.54a1.52 1.52 0 1 1 1.27-2.76 23.8 23.8 0 0 1 3.65 2.08 1.51 1.51 0 0 1-.87 2.76c-.3 0-.6-.09-.86-.27-1-.7-2.08-1.3-3.19-1.8zm-3.34-2.8a1.52 1.52 0 0 1-1.75 1.25 20.64 20.64 0 0 0-24.12 20.3v25.48a1.52 1.52 0 0 1-3.04 0v-25.49a23.69 23.69 0 0 1 27.67-23.29c.83.14 1.38.93 1.24 1.75zm-5.21 4.2c9.6 0 17.4 7.78 17.4 17.34v17a1.52 1.52 0 0 1-3.04 0v-17a14.35 14.35 0 0 0-26.27-8c-.47.7-1.42.88-2.11.41a1.51 1.51 0 0 1-.41-2.1 17.43 17.43 0 0 1 14.43-7.66zm-17.4 20.98v-3.64a1.52 1.52 0 0 1 3.04 0v3.64a1.52 1.52 0 0 1-3.05 0zm0 22.58v-16.5a1.52 1.52 0 0 1 3.04 0v16.5c0 5.18 2.83 9.97 7.38 12.5a1.51 1.51 0 0 1-.74 2.85c-.25 0-.5-.07-.74-.2a17.37 17.37 0 0 1-8.95-15.15zm17.4 17.34c-1.4 0-2.8-.16-4.15-.5a1.52 1.52 0 1 1 .73-2.94 14.35 14.35 0 0 0 17.79-13.9v-2.75a1.52 1.52 0 0 1 3.04 0v2.75a17.4 17.4 0 0 1-17.41 17.34zm11.11-29a1.52 1.52 0 0 1-3.04 0v-14.4a8.17 8.17 0 0 0-7.91-8.2 8.04 8.04 0 0 0-8.23 8.04v26.22a1.52 1.52 0 0 1-3.04 0v-26.22c0-3 1.18-5.8 3.33-7.9a11.05 11.05 0 0 1 8-3.17c6 .11 10.9 5.15 10.9 11.23zm-15.93 13.42v-13a1.52 1.52 0 0 1 3.05 0v13a4.92 4.92 0 0 0 9.84 0v-7.34a1.52 1.52 0 0 1 3.04 0v7.34a7.96 7.96 0 0 1-15.93 0zm6.6-.59v-27.3c0-.97-.76-1.8-1.69-1.85a1.76 1.76 0 0 0-1.86 1.76v8.5a1.52 1.52 0 0 1-3.05 0v-8.5a4.82 4.82 0 1 1 9.64.1v27.3a1.52 1.52 0 0 1-3.05 0z"/></defs><g><g transform="translate(-1303 -3018)"><use fill="#aa872e" xlink:href="#8l7ta"/></g></g></svg>