<svg xmlns="http://www.w3.org/2000/svg" xmlns:xlink="http://www.w3.org/1999/xlink" width="80" height="80" viewBox="0 0 80 80"><defs><path id="uqjma" d="M782 3031.67v18.66a6.67 6.67 0 0 1-6.67 6.67h-8.89l-10.3 7.73a1.33 1.33 0 0 1-2.14-1.06V3057h-5.33a6.67 6.67 0 0 1-6.67-6.67v-18.66a6.67 6.67 0 0 1 6.67-6.67h26.66a6.67 6.67 0 0 1 6.67 6.67zm-2.67 0a4 4 0 0 0-4-4h-26.66a4 4 0 0 0-4 4v18.66a4 4 0 0 0 4 4h6.66c.74 0 1.34.6 1.34 1.34v5.33l8.53-6.4c.23-.17.51-.27.8-.27h9.33a4 4 0 0 0 4-4zm-8 37.33c0 3.3-2.42 6.08-5.67 6.57l-1.51 4.52-4.59 13.77a8.5 8.5 0 0 1-16.27-.5l-1.29-4.85v15.16c0 .73-.6 1.33-1.33 1.33h-37.34c-.73 0-1.33-.6-1.33-1.33V3077a9.35 9.35 0 0 1 9.33-9.33h8v-6.07a12.02 12.02 0 0 1-5.33-9.93v-8c0-1.72.38-3.4 1.1-4.96a8 8 0 0 1-2.43-5.71c0-.74.6-1.33 1.33-1.33h12c6.62 0 12 5.37 12 12v8c-.02 3.99-2.02 7.71-5.33 9.93v6.07h8.2a9.38 9.38 0 0 1 9.12 7.37l1.55 7.27.91-3.03 1.6-5.32.82-3.26a4 4 0 0 1 3.88-3.03H770c.74 0 1.33.6 1.33 1.33zm-43.03 1.33l3.03 5.32 3.04-5.32zm-.97 12.31l2.47-4.3-2.47-4.32zm2.68-14.97v-4.7c-.25.1-.5.17-.76.24l-.18.06a11.89 11.89 0 0 1-2.77.38l-.3.02-.3-.02a11.86 11.86 0 0 1-2.76-.39l-.18-.05c-.25-.07-.51-.15-.76-.24v4.7zm-14.5-33.34a5.4 5.4 0 0 0 5.16 4h10.66c.36 0 .7.14.95.4l2.8 2.8a9.35 9.35 0 0 0-9.08-7.2zM726 3061a9.33 9.33 0 0 0 9.33-9.33v-6.12l-4.55-4.55h-10.11a7.98 7.98 0 0 1-2.34-.36l-.16-.05c-.3-.1-.58-.21-.85-.34a9.3 9.3 0 0 0-.65 3.42v8A9.33 9.33 0 0 0 726 3061zm-8.37 9.33l3.04 5.32 3.03-5.32zm4.57 8l2.47 4.31v-8.62zm38.84 2.67h-6.31l-2.12 7.05c-.16.6-.72 1-1.33.95a1.33 1.33 0 0 1-1.25-1.05l-2.64-12.35a6.7 6.7 0 0 0-6.52-5.27h-3.43l-4.95 8.67-5.33 9.33a1.33 1.33 0 0 1-2.32 0l-5.33-9.33-4.95-8.67h-3.23a6.67 6.67 0 0 0-6.66 6.67v25.33H710v-20h2.67v20h26.66v-24a1.33 1.33 0 0 1 2.62-.34l3.92 14.68a5.83 5.83 0 0 0 11.17.34zm1.78-5.33h-6.5l-.8 2.66h6.4zm5.62-5.34h-9.7c-.6 0-1.14.42-1.29 1.01l-.41 1.66h7.63a4 4 0 0 0 3.77-2.67zm-2.44-22.9v2.9h-2.67v-2.66h-2.66v2.66H758v-2.66h-1.33c-.74 0-1.34-.6-1.34-1.34v-10.66c0-.74.6-1.34 1.34-1.34H758v-2.66h2.67v2.66h2.66v-2.66H766v2.9a3.99 3.99 0 0 1 1.65 6.43 3.98 3.98 0 0 1-1.65 6.42zm0-3.76c0-.74-.6-1.34-1.33-1.34H758v2.67h6.67c.73 0 1.33-.6 1.33-1.33zm0-5.34c0-.73-.6-1.33-1.33-1.33H758v2.67h6.67c.73 0 1.33-.6 1.33-1.34zm-46.67 8H722v2.67h-2.67zm10.67 0h2.67v2.67H730zm-5.33 0h2.66v6.67h-2.66z"/></defs><g><g transform="translate(-702 -3025)"><use fill="#aa872e" xlink:href="#uqjma"/></g></g></svg>