<svg xmlns="http://www.w3.org/2000/svg" xmlns:xlink="http://www.w3.org/1999/xlink" width="80" height="80" viewBox="0 0 80 80"><defs><path id="76ula" d="M477.67 3037.33v53.34a8 8 0 0 1-8 8h-53.34a8 8 0 0 1-8-8v-53.34a8 8 0 0 1 8-8h53.34a8 8 0 0 1 8 8zm-2.66 0l-.01-.07-6.67 4.76v4.65h1.34c.73 0 1.33.6 1.33 1.33v5.33c0 .74-.6 1.34-1.33 1.34h-5.34c-.73 0-1.33-.6-1.33-1.34V3048c0-.74.6-1.33 1.33-1.33h1.34v-5.34c0-.43.2-.83.56-1.08l7.97-5.7a5.32 5.32 0 0 0-4.53-2.55H447v5.33h5.33V3036c0-.74.6-1.33 1.34-1.33H459c.74 0 1.33.6 1.33 1.33v5.33c0 .74-.6 1.34-1.33 1.34h-5.33c-.74 0-1.34-.6-1.34-1.34V3040h-6.66c-.74 0-1.34-.6-1.34-1.33V3032h-6.11l-8.94 8.94c-.25.25-.6.4-.95.4H423v1.33c0 .73-.6 1.33-1.33 1.33h-5.34c-.73 0-1.33-.6-1.33-1.33v-5.34c0-.73.6-1.33 1.33-1.33h5.34c.73 0 1.33.6 1.33 1.33v1.34h4.78l6.67-6.67h-18.12a5.33 5.33 0 0 0-5.33 5.33v36.51l5.33-2.66v-8.51H415c-.74 0-1.33-.6-1.33-1.34V3056c0-.74.6-1.33 1.33-1.33h5.33c.74 0 1.34.6 1.34 1.33v5.33c0 .74-.6 1.34-1.34 1.34H419v9.33c0 .5-.28.97-.74 1.2l-7.26 3.62v13.85a5.33 5.33 0 0 0 5.33 5.33h20.27l-5-8h-3.27v1.33c0 .74-.6 1.34-1.33 1.34h-5.33c-.74 0-1.34-.6-1.34-1.34V3084c0-.74.6-1.33 1.34-1.33H427c.74 0 1.33.6 1.33 1.33v1.33h4c.46 0 .89.24 1.13.63l6.28 10.04h21.93v-5.33h-5.34v1.33c0 .74-.6 1.33-1.33 1.33h-5.33c-.74 0-1.34-.6-1.34-1.33v-5.33c0-.74.6-1.34 1.34-1.34H455c.74 0 1.33.6 1.33 1.34v1.33H463c.74 0 1.33.6 1.33 1.33v6.67h5.34a5.33 5.33 0 0 0 5.33-5.33v-2.12l-8.94-8.94c-.25-.25-.4-.59-.4-.94v-5.34h-1.33c-.73 0-1.33-.6-1.33-1.33v-5.33c0-.74.6-1.34 1.33-1.34h5.34c.74 0 1.34.6 1.34 1.34v5.33c0 .74-.6 1.33-1.34 1.33h-1.33v4.78l6.67 6.67zm-9.34 30.67v2.67h2.66V3068zM451 3088v2.67h2.67V3088zm-28-2.67v2.67h2.67v-2.67zm-4-25.33v-2.67h-2.67v2.67zm-1.33-21.33v2.66h2.66v-2.66zm40 1.33v-2.67H455v2.67zm8 9.33v2.67h2.66v-2.67zm-52 37.34h2.66v2.66h-2.66zm8-12h2.66v2.66h-2.66zM419 3048h2.67v2.67H419zm17.33-9.33H439v2.66h-2.67zm28-4H467v2.66h-2.67zm-24 53.33H443v2.67h-2.67zm28 1.33H471v2.67h-2.67zM459 3080h2.67v2.67H459zm6.67-21.33h2.66v2.66h-2.66zm-5.34-5.34v11.99a18.6 18.6 0 0 1-15.6 18.41l-1.51.25c-.14.03-.3.03-.44 0l-1.51-.25a18.6 18.6 0 0 1-15.6-18.41v-11.99c0-.5.28-.96.73-1.19l16-8c.38-.19.82-.19 1.2 0l16 8c.45.23.73.69.73 1.2zm-2.66.83l-14.67-7.34-14.67 7.34v11.16a15.95 15.95 0 0 0 13.37 15.78l1.3.21 1.3-.21a15.95 15.95 0 0 0 13.37-15.78zm-2.67 3.17v7.92c0 6.81-5.08 12.55-11.83 13.4-.11.02-.23.02-.34 0a13.53 13.53 0 0 1-11.83-13.4v-7.92c0-.5.29-.96.74-1.19l10.66-5.33c.38-.2.82-.2 1.2 0l10.66 5.33c.45.23.74.69.74 1.2zm-13.33 9.34h-7.9a10.86 10.86 0 0 0 7.9 9.03zm0-12.51l-8 4v5.84h8zm10.56 12.5h-7.9v9.04a10.86 10.86 0 0 0 7.9-9.03zm.1-8.5l-8-4v9.84h8zm-32 43.17v2.67h-4a13.35 13.35 0 0 1-13.33-13.33v-17.34h2.67v17.34c0 5.88 4.77 10.66 10.66 10.66zM403 3068h2.67v2.67H403zm80-30.67v17.34h-2.67v-17.34c0-5.89-4.78-10.66-10.66-10.66h-4V3024h4c7.36 0 13.32 5.97 13.33 13.33zm-2.67 20H483v2.67h-2.67z"/></defs><g><g transform="translate(-403 -3024)"><use fill="#aa872e" xlink:href="#76ula"/></g></g></svg>