<svg xmlns="http://www.w3.org/2000/svg" xmlns:xlink="http://www.w3.org/1999/xlink" width="95" height="95" viewBox="0 0 95 95"><defs><path id="6jrpa" d="M1111.36 736.08a1.87 1.87 0 0 1-1.86 1.86 1.86 1.86 0 0 1-1.86-1.86 1.87 1.87 0 0 1 1.86-1.86 1.87 1.87 0 0 1 1.86 1.86zm45.64-20.51v63.82c0 3.07-2.5 5.57-5.57 5.57h-9a1.86 1.86 0 0 1 0-3.71h9c1.03 0 1.86-.83 1.86-1.86v-63.82c0-1.03-.83-1.86-1.86-1.86h-83.86c-1.03 0-1.86.83-1.86 1.86v63.82c0 1.03.83 1.86 1.86 1.86h59.74a1.86 1.86 0 0 1 0 3.71h-5.38v9.33a9.3 9.3 0 0 1 6.5 8.85c0 1.03-.84 1.86-1.86 1.86h-34.14a1.86 1.86 0 0 1-1.86-1.86 9.3 9.3 0 0 1 6.5-8.85v-9.33h-29.5a5.57 5.57 0 0 1-5.57-5.57v-63.82c0-3.07 2.5-5.57 5.57-5.57h83.86c3.07 0 5.57 2.5 5.57 5.57zm-56.22 69.39v8.9h17.44v-8.9zm-.93 12.62a5.58 5.58 0 0 0-5.25 3.7h29.8a5.58 5.58 0 0 0-5.25-3.7zm37.3-14.48a1.87 1.87 0 0 1-1.86 1.86 1.87 1.87 0 0 1-1.85-1.86 1.86 1.86 0 0 1 3.16-1.3c.35.34.55.82.55 1.3zm-2.42-35.11v7.15c0 2.32-1.89 4.21-4.21 4.21h-3.96v4.09c0 1.02-.83 1.85-1.86 1.85h-9.1a5.58 5.58 0 0 1-5.25 3.71h-.75a5.57 5.57 0 0 1 0-11.13h.75a5.57 5.57 0 0 1 5.24 3.71h7.26v-22.73a9.2 9.2 0 0 0-9.18-9.18h-8.34a9.2 9.2 0 0 0-9.19 9.18v18.65c0 1.02-.83 1.85-1.85 1.85h-5.8a4.22 4.22 0 0 1-4.22-4.21v-7.15c0-2.33 1.89-4.22 4.21-4.22h3.95v-4.92c0-7.1 5.78-12.9 12.9-12.9h8.34c7.12 0 12.9 5.8 12.9 12.9v4.92h3.95c2.32 0 4.21 1.9 4.21 4.22zm-42.3-.51h-3.95a.5.5 0 0 0-.5.5v7.16c0 .28.22.5.5.5h3.95zm19.77 15.96c0-1.03-.83-1.86-1.85-1.86h-.75a1.86 1.86 0 0 0 0 3.71h.75c1.02 0 1.85-.83 1.85-1.85zm18.82-15.45a.5.5 0 0 0-.5-.51h-3.95v8.16h3.95a.5.5 0 0 0 .5-.5zm17.82-24.26v47.5c0 3.07-2.5 5.57-5.57 5.57h-67.54a5.57 5.57 0 0 1-5.57-5.57v-47.5c0-3.07 2.5-5.57 5.57-5.57h13.64a1.86 1.86 0 1 1 0 3.71h-13.64c-1.02 0-1.86.84-1.86 1.86v47.5c0 1.02.84 1.86 1.86 1.86h67.54c1.02 0 1.85-.84 1.85-1.86v-47.5c0-1.02-.83-1.86-1.85-1.86h-39.43a1.86 1.86 0 0 1 0-3.7h39.43c3.07 0 5.57 2.5 5.57 5.56zm-50.47-3.71a1.87 1.87 0 0 1-1.86 1.85c-.49 0-.97-.2-1.31-.54a1.87 1.87 0 0 1 0-2.62 1.87 1.87 0 0 1 2.62 0c.35.34.55.82.55 1.3zm15.45 31.49c0 1.02-.83 1.85-1.86 1.85h-4.92a1.86 1.86 0 0 1 0-3.7h.6v-4.72a1.86 1.86 0 0 1 .04-3.7h1.82c1.02 0 1.86.82 1.86 1.85v6.56h.6c1.03 0 1.86.83 1.86 1.86z"/></defs><g><g transform="translate(-1062 -710)"><use fill="#fff" xlink:href="#6jrpa"/></g></g></svg>