<svg xmlns="http://www.w3.org/2000/svg" xmlns:xlink="http://www.w3.org/1999/xlink" width="92" height="92" viewBox="0 0 92 92"><defs><path id="qkyaa" d="M1445.16 764.64v4.71h2.97v2.97h-2.97v20.78a8.91 8.91 0 0 1-17.8 0H1368V710h69.74v8.98a23.75 23.75 0 0 1 22.26 23.66c0 9.95-6.15 18.47-14.84 22zm-17.8 0a23.77 23.77 0 0 1-14.84-22c0-3.14.63-6.15 1.74-8.9h-40.32v-17.8h57.87v3.4c.97-.19 1.96-.3 2.96-.36v-6.01h-63.8v77.16h56.38v-17.8h-2.96v-2.98h2.96zm-50.46-45.74v11.87h38.83a23.84 23.84 0 0 1 13.1-10.66v-1.2zm65.3 53.42h-11.88v20.78a5.94 5.94 0 0 0 11.87 0zm0-6.72c-1.9.5-3.89.79-5.94.79a23.6 23.6 0 0 1-5.94-.79v3.75h11.87zm14.83-22.96a20.8 20.8 0 0 0-20.77-20.77 20.8 20.8 0 0 0-20.78 20.77 20.8 20.8 0 0 0 20.78 20.78 20.8 20.8 0 0 0 20.77-20.78zm-38.58 23.75a4.46 4.46 0 0 1-8.9 0c0-.25.03-.5.07-.74l-6.05-3.36c-.78.7-1.8 1.13-2.92 1.13a4.4 4.4 0 0 1-2.14-.57l-7.1 6.31a4.46 4.46 0 1 1-8.57 1.68c0-1.16.45-2.2 1.18-3l-5-10.42a4.46 4.46 0 1 1 2.63-1.38l4.99 10.41a4.4 4.4 0 0 1 2.79.5l7.1-6.3a4.46 4.46 0 1 1 8.57-1.68c0 .25-.04.5-.08.73l6.05 3.36a4.42 4.42 0 0 1 7.38 3.33zm-38.58-13.36a1.48 1.48 0 1 0-2.97 0 1.48 1.48 0 0 0 2.97 0zm8.9 17.8a1.48 1.48 0 1 0-2.96 0 1.48 1.48 0 0 0 2.96 0zm13.36-11.86a1.48 1.48 0 1 0-2.97 0 1.48 1.48 0 0 0 2.97 0zm13.35 7.42a1.48 1.48 0 1 0-2.97 0 1.48 1.48 0 0 0 2.97 0zm5.94 17.8h2.97v2.97h-2.97zm-47.48 0h44.51v2.97h-44.51zm0-5.93h50.45v2.97h-50.45zm0-41.55h35.6v2.97h-35.6zm0 5.93h35.6v2.97h-35.6zm80.12 0c0 4.55-1.7 8.88-4.82 12.2l-2.16-2.04c.93-1 1.71-2.1 2.33-3.3l-12.98-5.19-11.63 7.75a14.81 14.81 0 0 0 20.37 2.45l1.78 2.37a17.83 17.83 0 0 1-28.5-14.24c0-9.81 7.99-17.8 17.8-17.8 9.83 0 17.81 7.99 17.81 17.8zm-19.29-14.76a14.86 14.86 0 0 0-11.61 21.72l11.61-7.75zm15.75 18.87a14.86 14.86 0 0 0-12.78-18.87v13.76z"/></defs><g><g transform="translate(-1368 -710)"><use fill="#fff" xlink:href="#qkyaa"/></g></g></svg>