<svg xmlns="http://www.w3.org/2000/svg" xmlns:xlink="http://www.w3.org/1999/xlink" width="106" height="75" viewBox="0 0 106 75"><defs><path id="87dma" d="M523.97 760.27l-6.24 6.04 1.47 8.53a1.7 1.7 0 0 1-1.69 1.99c-.27 0-.54-.07-.8-.2l-7.71-4.02-7.72 4.02c-.58.3-1.27.25-1.8-.13a1.7 1.7 0 0 1-.68-1.66l1.47-8.53-6.24-6.04a1.69 1.69 0 0 1 .95-2.9l8.63-1.24 3.86-7.76a1.71 1.71 0 0 1 3.07 0l3.85 7.76 8.63 1.24c.65.1 1.18.55 1.38 1.16.2.61.04 1.29-.43 1.74zm-4.87-.03l-6.09-.88a1.71 1.71 0 0 1-1.29-.93l-2.72-5.47-2.72 5.47c-.25.5-.73.85-1.29.93l-6.09.88 4.4 4.26c.41.4.6.96.5 1.5l-1.04 6.02 5.44-2.84c.5-.26 1.1-.26 1.6 0l5.44 2.84-1.04-6.01c-.1-.55.09-1.12.5-1.5zm-43.04-12.08a38.07 38.07 0 0 0-1.58 10.72l.2-.38a16.81 16.81 0 0 1 10.1-8.07c.91-.26 1.86.26 2.12 1.16a16.8 16.8 0 0 1-10.16 20.4 37.84 37.84 0 0 0 8.96 14 38.67 38.67 0 0 0 6.03 4.9c.79.51 1 1.56.48 2.35a1.71 1.71 0 0 1-2.37.48 42.06 42.06 0 0 1-6.26-5.03 16.87 16.87 0 0 1-11.44 3c-4.5-.45-8.56-2.61-11.43-6.09-.6-.72-.5-1.8.24-2.39a17.04 17.04 0 0 1 15.93-2.98 41.07 41.07 0 0 1-2.42-4.73 16.9 16.9 0 0 1-18.44-14.2 1.7 1.7 0 0 1 1.43-1.93 16.93 16.93 0 0 1 13.84 4.08c-.19-1.8-.27-3.6-.22-5.4a16.83 16.83 0 0 1-11.9-19.84 1.72 1.72 0 0 1 2.04-1.29A16.84 16.84 0 0 1 473 746.5c.42-1.33.92-2.65 1.48-3.94a16.67 16.67 0 0 1-6.08-10.3 16.6 16.6 0 0 1 2.9-12.55 1.72 1.72 0 0 1 2.39-.4 16.76 16.76 0 0 1 7.1 13.1c.78-.93 1.61-1.84 2.5-2.71a1.72 1.72 0 0 1 2.41 0c.67.66.67 1.74 0 2.4a38.38 38.38 0 0 0-3.4 3.86 16.95 16.95 0 0 1 12.9-.65 1.7 1.7 0 0 1 1.04 2.17 16.97 16.97 0 0 1-20.18 10.68zm-7.13-2.01a13.4 13.4 0 0 0-6.7-5.4 13.44 13.44 0 0 0 8.76 13.71c.25-2.9-.45-5.8-2.06-8.31zm4.05 26.04a13.54 13.54 0 0 0-13.18-9.61 13.5 13.5 0 0 0 13.18 9.61zm7.9 14.2a13.63 13.63 0 0 0-16.26-1.6c2.15 1.98 4.88 3.22 7.86 3.51 2.98.3 5.9-.38 8.4-1.91zm-4.72-17.83a13.43 13.43 0 0 0 7.86-14.24 13.39 13.39 0 0 0-7.86 14.24zm1.36-23.55c5.92 1.22 12-1.65 14.76-6.99a13.51 13.51 0 0 0-14.76 7zm-1.68-5.77c2.8-5.32 1.7-11.9-2.72-16a13.23 13.23 0 0 0-1.35 8.45c.5 2.93 1.92 5.55 4.07 7.55zm67.7 36.26c-.7 1.61-1.5 3.18-2.41 4.71a16.92 16.92 0 0 1 15.92 3 1.7 1.7 0 0 1 .24 2.4 16.97 16.97 0 0 1-13.13 6.15c-3.4 0-6.8-1.01-9.74-3.07a42.04 42.04 0 0 1-6.26 5.03 1.7 1.7 0 0 1-2.38-.48 1.7 1.7 0 0 1 .49-2.36 38.63 38.63 0 0 0 6.03-4.88c4.12-4.1 7.1-8.9 8.96-14a16.77 16.77 0 0 1-10.16-20.41 1.71 1.71 0 0 1 2.12-1.16 16.86 16.86 0 0 1 10.3 8.46 38.07 38.07 0 0 0-1.58-10.73 16.97 16.97 0 0 1-20.17-10.68 1.7 1.7 0 0 1 1.04-2.17 16.95 16.95 0 0 1 12.88.65 38.35 38.35 0 0 0-3.4-3.86 1.69 1.69 0 0 1 0-2.4 1.72 1.72 0 0 1 2.43 0c.87.87 1.7 1.78 2.49 2.7a16.7 16.7 0 0 1 7.1-13.1 1.72 1.72 0 0 1 2.4.41 16.75 16.75 0 0 1-3.19 22.85c.56 1.29 1.06 2.6 1.48 3.94a16.83 16.83 0 0 1 11.78-9.58c.93-.2 1.84.37 2.05 1.29a16.8 16.8 0 0 1-11.9 19.85c.05 1.8-.03 3.6-.22 5.4a17 17 0 0 1 13.84-4.09c.93.15 1.57 1.01 1.43 1.94a16.9 16.9 0 0 1-18.44 14.2zm3.47-21.04a13.4 13.4 0 0 0 8.76-13.7 13.44 13.44 0 0 0-8.76 13.7zm-1.99 17.73c6.05.1 11.47-3.86 13.18-9.61a13.54 13.54 0 0 0-13.18 9.6zM540.48 745a13.51 13.51 0 0 0-14.76-6.99 13.58 13.58 0 0 0 14.76 7zm4.4-21.78c-2.15 2-3.58 4.63-4.07 7.55-.5 2.93-.02 5.87 1.35 8.46a13.38 13.38 0 0 0 2.72-16zm-7.77 63.16a13.63 13.63 0 0 0 16.27-1.61 13.5 13.5 0 0 0-8.4-1.91c-2.98.3-5.72 1.53-7.87 3.52zm-3.13-32.07a13.38 13.38 0 0 0 7.85 14.24 13.43 13.43 0 0 0-7.85-14.24z"/></defs><g><g transform="translate(-456 -719)"><use fill="#fff" xlink:href="#87dma"/></g></g></svg>