<svg xmlns="http://www.w3.org/2000/svg" xmlns:xlink="http://www.w3.org/1999/xlink" width="96" height="96" viewBox="0 0 96 96"><defs><path id="jzika" d="M858 755c0 1.03-.84 1.87-1.88 1.87h-8.25v3.62c0 .86-.58 1.61-1.42 1.82l-5.55 1.38-2.9 7.01 2.94 4.9c.45.74.33 1.68-.28 2.3l-7.77 7.76c-.6.61-1.55.73-2.29.28l-4.9-2.94-7 2.9-1.39 5.55c-.2.84-.96 1.42-1.82 1.42h-3.62v8.25a1.88 1.88 0 1 1-3.75 0v-8.25h-3.61c-.86 0-1.62-.58-1.82-1.42l-1.39-5.55-7-2.9-4.9 2.94c-.74.45-1.69.33-2.3-.28l-7.76-7.77c-.61-.6-.73-1.55-.29-2.29l2.95-4.9-2.9-7-5.55-1.39a1.88 1.88 0 0 1-1.43-1.82v-3.62h-8.25a1.88 1.88 0 0 1 0-3.75h8.25v-3.61c0-.86.6-1.61 1.43-1.82l5.55-1.39 2.9-7-2.95-4.9a1.87 1.87 0 0 1 .29-2.3l7.77-7.76c.6-.61 1.55-.73 2.29-.28l4.9 2.94 7-2.9 1.39-5.55c.2-.84.95-1.43 1.82-1.43h3.61v-8.25a1.88 1.88 0 1 1 3.75 0v8.25h3.62c.86 0 1.61.6 1.82 1.43l1.38 5.55 7 2.9 4.9-2.94a1.88 1.88 0 0 1 2.3.28l7.77 7.77c.6.6.72 1.55.28 2.29l-2.95 4.9 2.9 7 5.56 1.39c.84.2 1.42.96 1.42 1.82v3.61h8.25c1.04 0 1.88.84 1.88 1.88zm-13.88 4.03v-8.06l-5.05-1.26a1.87 1.87 0 0 1-1.27-1.1l-3.63-8.75a1.88 1.88 0 0 1 .12-1.68l2.68-4.46-5.7-5.7-4.45 2.68c-.51.3-1.13.36-1.68.13l-8.76-3.63c-.55-.23-.95-.7-1.1-1.28l-1.25-5.05h-8.06l-1.26 5.05a1.88 1.88 0 0 1-1.1 1.28l-8.75 3.63c-.55.23-1.17.18-1.68-.13l-4.46-2.68-5.7 5.7 2.68 4.46c.3.5.35 1.13.13 1.68l-3.63 8.75c-.23.55-.7.96-1.28 1.1l-5.05 1.26v8.06l5.05 1.25c.58.15 1.05.56 1.28 1.1l3.63 8.76c.22.55.18 1.17-.13 1.68l-2.68 4.46 5.7 5.7 4.46-2.68c.5-.31 1.13-.36 1.68-.13l8.75 3.63c.55.23.96.7 1.1 1.28l1.26 5.04h8.06l1.25-5.04c.15-.58.56-1.05 1.1-1.28l8.76-3.63a1.87 1.87 0 0 1 1.68.13l4.46 2.67 5.7-5.7-2.69-4.45a1.87 1.87 0 0 1-.12-1.68l3.63-8.75c.22-.55.7-.96 1.27-1.1zM834 755c0 13.23-10.77 24-24 24s-24-10.77-24-24c0-9.49 5.6-18.1 14.28-21.95a1.87 1.87 0 1 1 1.52 3.43A20.28 20.28 0 0 0 789.75 755 20.27 20.27 0 0 0 810 775.25 20.27 20.27 0 0 0 830.25 755c0-8.46-5.34-16.1-13.28-19.02a1.88 1.88 0 0 1 1.3-3.52A24.09 24.09 0 0 1 834 755zm-22.03-22.12c0 1.03-.85 1.87-1.88 1.87h-.1a1.88 1.88 0 0 1 0-3.75h.1c1.04 0 1.88.84 1.88 1.88zm12.97 16.54v10.92a1.88 1.88 0 0 1-3.75 0v-10.92a1.88 1.88 0 0 1 3.75 0zm-6.23 2.86v.56a4.75 4.75 0 0 1-4.74 4.75h-1.99v2.75a1.88 1.88 0 0 1-3.75 0v-10.92c0-1.04.84-1.88 1.87-1.88h3.87a4.75 4.75 0 0 1 4.74 4.74zm-3.75 0a1 1 0 0 0-1-.99h-1.98v2.55h1.99a1 1 0 0 0 1-1zm-9.72 10.07a1.88 1.88 0 0 1-2.46-.98l-3.1-7.2-3.08 7.2a1.88 1.88 0 0 1-3.45-1.48l4.81-11.21a1.88 1.88 0 0 1 3.45 0l4.81 11.21c.41.95-.03 2.06-.98 2.46zM858 713.37a6.38 6.38 0 0 1-9.36 5.64l-7.17 7.17a1.87 1.87 0 0 1-2.65 0 1.87 1.87 0 0 1 0-2.65l7.17-7.18a6.38 6.38 0 1 1 12-2.98zm-3.75 0a2.63 2.63 0 1 0-5.26.01 2.63 2.63 0 0 0 5.26 0zm-73.07 73.1l-7.17 7.17a6.38 6.38 0 1 1-2.65-2.65l7.17-7.17a1.88 1.88 0 0 1 2.65 2.65zM771 796.62a2.63 2.63 0 1 0-5.26.01 2.63 2.63 0 0 0 5.26 0zm71.02-11.47a1.88 1.88 0 0 1-1.88 1.87 1.89 1.89 0 0 1-1.87-1.87 1.89 1.89 0 0 1 1.87-1.88 1.89 1.89 0 0 1 1.88 1.88zM858 796.62a6.38 6.38 0 1 1-12-2.97l-3.18-3.17a1.88 1.88 0 0 1 2.65-2.66l3.17 3.17a6.38 6.38 0 0 1 9.36 5.63zm-3.75 0a2.63 2.63 0 1 0-5.26.01 2.63 2.63 0 0 0 5.26 0zm-73.07-70.44a1.87 1.87 0 0 1-2.65 0l-7.17-7.17a6.38 6.38 0 1 1 2.65-2.65l7.17 7.17c.73.73.73 1.92 0 2.65zM771 713.38a2.63 2.63 0 1 0-5.26 0 2.63 2.63 0 0 0 5.26 0z"/></defs><g><g transform="translate(-762 -707)"><use fill="#fff" xlink:href="#jzika"/></g></g></svg>