<svg xmlns="http://www.w3.org/2000/svg" xmlns:xlink="http://www.w3.org/1999/xlink" width="60" height="60" viewBox="0 0 60 60"><defs><path id="m4z9a" d="M1236 3934.51a3.5 3.5 0 0 1-3.5 3.5H1199a1 1 0 0 1-1-1.01v-20a1 1 0 0 1 1-1h13.12a3 3 0 0 0 2.84-2.05l4.32-9.96c.85-3.44 7.2-4.75 6.66 4.3l-1.8 7.71h8.36a3.5 3.5 0 0 1 2.44 6l.08.08a3.48 3.48 0 0 1-.08 4.92l.08.08a3.48 3.48 0 0 1-.08 4.92 3.5 3.5 0 0 1 1.06 2.51zm-30-16.51h-6v18h6zm20 5v-2h6.5a1.5 1.5 0 0 0 0-3h-9.62a1 1 0 0 1-.87-1.13l1.96-8.84c.89-4.7-1.97-5.85-2.79-3.4l-4.32 9.95a5 5 0 0 1-4.74 3.42H1208v18h24.5a1.5 1.5 0 0 0 0-3h-6.5v-2h6.5a1.5 1.5 0 0 0 0-3h-6.5v-2h6.5a1.5 1.5 0 1 0 0-3zm-12-30a6 6 0 1 1-12 0 6 6 0 0 1 12 0zm-2 0a4 4 0 1 0-8 0 4 4 0 0 0 8 0zm6 0a10 10 0 1 1-20 0 10 10 0 0 1 20 0zm-2 0a8 8 0 1 0-16 0 8 8 0 0 0 16 0zm33 0a6 6 0 1 1-12.01-.01 6 6 0 0 1 12.01.01zm-2 0a4 4 0 1 0-8 0 4 4 0 0 0 8 0zm6 0a10.01 10.01 0 0 1-20 0 10 10 0 1 1 20 0zm-2 0a8 8 0 1 0-16 0 8 8 0 0 0 16 0zm3 30a6 6 0 1 1-12 0 6 6 0 0 1 12 0zm-2 0a4 4 0 1 0-8 0 4 4 0 0 0 8 0zm6 0a10 10 0 1 1-20 0 10 10 0 0 1 20 0zm-2 0a8 8 0 1 0-16 0 8 8 0 0 0 16 0zm-52-17v2h-2v2h-2v-2h-2v-2h2v-2h2v2zm54 0v2h-2v2h-2v-2h-2v-2h2v-2h2v2zm-18 30h2v2h-2zm-25-56.75h2v2h-2zm15 4.5v2h-2v2h-2v-2h-2v-2h2v-2h2v2zm-2 14.25h2v2h-2zm6 7h2v2h-2zm24-25v2h-2v2h-2v-2h-2v-2h2v-2h2v2zm-52 30h2v2h-2z"/></defs><g><g transform="translate(-1198 -3878)"><use fill="#aa872e" xlink:href="#m4z9a"/></g></g></svg>