<svg xmlns="http://www.w3.org/2000/svg" xmlns:xlink="http://www.w3.org/1999/xlink" width="61" height="61" viewBox="0 0 61 61"><defs><path id="ykuta" d="M836.58 3908.54a3.05 3.05 0 0 1-3.05 3.05v1.01h-2.03v-1.01h-2.03c-.56 0-1.02-.46-1.02-1.02v-8.13c0-.56.46-1.02 1.02-1.02h2.03v-1.02h2.03v1.02a3.05 3.05 0 0 1 2.27 5.08c.5.56.78 1.29.78 2.04zm-2.03 0c0-.56-.46-1.02-1.02-1.02h-3.05v2.03h3.05c.56 0 1.02-.45 1.02-1.01zm0-4.07c0-.56-.46-1.02-1.02-1.02h-3.05v2.04h3.05c.56 0 1.02-.46 1.02-1.02zm25.18 8.05l-3.3 11.57a4.07 4.07 0 1 1-5.32 5.27l-14.55 3.83a4.05 4.05 0 0 1-8 .63l-10.9-.78a4.06 4.06 0 1 1-6.34-4.98l-4.48-10.45-.2.04a4.06 4.06 0 1 1-1.17-8.03l2.46-18.02a4.07 4.07 0 0 1 2.23-7.46c.87 0 1.72.29 2.42.82l14.9-5.26a4.06 4.06 0 1 1 8 1.17l19.43 8.9a4.01 4.01 0 0 1 5.37 1.26 4.07 4.07 0 0 1-1.12 5.64l.72 7.92a4.06 4.06 0 0 1-.15 7.93zm-4.85-19.23a2.03 2.03 0 1 0 4.06 0 2.03 2.03 0 0 0-4.06 0zm-23.22 3.09l-.42-5.38-6.6-.61-3.85 5.02 4.76 3.7a10.11 10.11 0 0 1 6.1-2.73zm-7.27 10.12a8.14 8.14 0 1 0 16.28-.01 8.14 8.14 0 0 0-16.28.01zm-4.84-9.48L809 3910.8c.03.02.05.06.07.09l13.28-4.43c.01-2.08.67-4.1 1.87-5.8zm-9.4 16.6a4 4 0 0 1-.17 1.12l8.73 6.46 6.08-8.1a10.13 10.13 0 0 1-2.23-4.57l-12.52 4.17c.08.3.12.6.12.92zm10.19 8.79l3.06 2.26 17.43-8.72-1.78-1.67a10.11 10.11 0 0 1-12.79.23zm22.43-7.43l.13-.07 4.4-7.06-4.67-.37c-.19 1.95-.94 3.8-2.16 5.34zm3.6-1.8l8.54-4.27c0-.13-.03-.25-.04-.37l.01-.08-5.31-.42zm9.1-6.7a4.06 4.06 0 0 1 2.38-1.84l-.67-7.31-.27.02c-.22 0-.44-.02-.66-.06l-5.47 8.8zm-1.87-10.84l-12 6.32c.55 1.09.9 2.27 1.02 3.48l5.88.47 5.88-9.46c-.3-.23-.56-.5-.78-.8zm-.76-2.35l.02-.28-19.57-1.82.4 5.22c2.7.32 5.15 1.7 6.81 3.83l12.39-6.52a4.1 4.1 0 0 1-.05-.43zm-20.1-9.36l.4 5.2 19.45 1.81-18.01-8.25c-.49.58-1.13 1-1.85 1.24zm-3.27-3.86a2.03 2.03 0 1 0 4.06 0 2.03 2.03 0 0 0-4.06 0zm-3.37 8.4l4.98.47-.38-4.88h.01a3.96 3.96 0 0 1-.97-.33zm-12.2-1.82c.1.23.18.47.23.72l9.58.89 4.48-5.85a4 4 0 0 1-.39-.67zm-.1 3.33l5.38 4.18 3.07-4-8.23-.76c-.06.2-.13.39-.22.58zm-5.67-1.77a2.03 2.03 0 1 0 4.06 0 2.03 2.03 0 0 0-4.06 0zm-.56 21.11l10.38-13.54-5.46-4.25c-.68.48-1.5.74-2.33.74-.1 0-.18-.02-.27-.03zm.56 4.3a2.03 2.03 0 1 0-4.07 0 2.03 2.03 0 0 0 4.07 0zm4.95 13.4c.37-.12.75-.18 1.14-.18l.24.02 3.03-4.04-8.54-6.31c-.08.08-.18.15-.27.22zm3.18 3.88a2.03 2.03 0 1 0-4.07 0 2.03 2.03 0 0 0 4.07 0zm5.1-5.21l-2.24-1.66-2.63 3.5.45.37zm7.48 5.53l-5.64-4.18-5.14 2.57a4 4 0 0 1 .23 1.29l-.01.14 10.36.74c.06-.2.12-.38.2-.56zm5.7 1.72a2.03 2.03 0 1 0-4.06 0 2.03 2.03 0 0 0 4.07 0zm6.31-14.73l-15.62 7.81 4.91 3.63a4 4 0 0 1 3.9-.48zm10.52 7.62l-8.12-7.62-7.58 12.2c.2.24.37.5.5.78l14.7-3.86a4 4 0 0 1 .5-1.5zm3.5-.01a2.03 2.03 0 1 0 0 4.07 2.03 2.03 0 0 0 0-4.07zm2.79-13.44a4.07 4.07 0 0 1-2.07-1.54l-11.24 5.63 8.44 7.9a4.01 4.01 0 0 1 1.6-.53zm3.31-3.84a2.03 2.03 0 1 0-4.06 0 2.03 2.03 0 0 0 4.06 0z"/></defs><g><g transform="translate(-802 -3876)"><use fill="#aa872e" xlink:href="#ykuta"/></g></g></svg>