<svg xmlns="http://www.w3.org/2000/svg" xmlns:xlink="http://www.w3.org/1999/xlink" width="45" height="59" viewBox="0 0 45 59"><defs><path id="8io2a" d="M460 3898.66v33.42a4.9 4.9 0 0 1-4.9 4.92h-35.2a4.9 4.9 0 0 1-4.9-4.92v-33.42a4.9 4.9 0 0 1 3.3-4.62 10.86 10.86 0 0 1-1.18-7.15 10.77 10.77 0 1 1 21.18 3.85l.31-.2a10.62 10.62 0 0 1 14.72 3.2h1.78a4.9 4.9 0 0 1 4.89 4.92zm-24.46.99c0 1 .17 2 .5 2.94h2.13a6.88 6.88 0 0 1 2.4-8.68 6.92 6.92 0 0 1 7.56 0 6.88 6.88 0 0 1 2.4 8.68h2.12a8.78 8.78 0 0 0-.69-7.37 8.79 8.79 0 0 0-16.42 4.43zm11.5-4.1a4.91 4.91 0 1 0-6.58 7.04h7.77a4.87 4.87 0 0 0-1.18-7.04zm-28.13-6.72a8.83 8.83 0 0 0 8.8 8.85c4.87 0 8.81-3.96 8.81-8.85a8.83 8.83 0 0 0-8.8-8.84 8.84 8.84 0 0 0-8.8 8.84zm-1.95 10.82a2.94 2.94 0 0 0 2.93 2.95h14.12c-.28-.96-.42-1.96-.42-2.95 0-.64.07-1.27.18-1.89a10.7 10.7 0 0 1-14.3-2 2.94 2.94 0 0 0-2.51 2.9zm13.7 20.64a.98.98 0 0 0-.99-.98.98.98 0 0 0-.97.98c0 .54.43.98.97.98s.98-.44.98-.98zm27.38-5.9h-16.63a2.94 2.94 0 0 0-2.93 2.95 2.94 2.94 0 0 0 2.93 2.95h16.63zm0-1.97v-8.87c-.84.65-1.87 1-2.93 1.01h-35.22c-1.06 0-2.1-.36-2.93-1v28.52a2.94 2.94 0 0 0 2.93 2.95h3.91v-7.45l-2.64-2.66a.99.99 0 0 1-.29-.7v-5.1a2.95 2.95 0 0 1 0-5.56 2.95 2.95 0 0 1 1.96 5.56v4.7l2.64 2.65c.19.19.3.44.3.7v7.86h2.93v-11.97a2.95 2.95 0 0 1 0-5.56 2.95 2.95 0 0 1 1.96 5.56v11.97h2.93v-4.91c0-.31.14-.6.39-.79l3.91-2.95c.17-.12.38-.2.59-.2h2.13a2.93 2.93 0 0 1 5.53 0 2.93 2.93 0 1 1-5.53 1.97h-1.8l-3.27 2.46v4.42h19.57a2.94 2.94 0 0 0 2.93-2.95v-9.83h-16.63a4.9 4.9 0 0 1-4.89-4.91 4.9 4.9 0 0 1 4.9-4.92zm-14.67 15.73a.98.98 0 0 0 0-1.96.98.98 0 1 0 0 1.97zm-20.54-11.8a.98.98 0 1 0-1.96 0 .98.98 0 0 0 1.96 0zm35.21-17.69a2.94 2.94 0 0 0-2.93-2.95h-.76c.88 2.2 1 4.62.34 6.89h.42a2.94 2.94 0 0 0 2.93-2.95zm-23.47-9.83c0 3.8-3.07 6.88-6.85 6.88a6.87 6.87 0 0 1 0-13.76 6.86 6.86 0 0 1 6.85 6.88zm-1.96 0a4.9 4.9 0 1 0-4.9 4.92c2.7 0 4.9-2.2 4.9-4.92zm7.82-10.81h1.96v1.97h-1.96zm0 3.93h1.96v4.92h-1.96zm3.92-3.93h1.95v1.97h-1.95zm0 3.93h1.95v4.92h-1.95z"/></defs><g><g transform="translate(-415 -3878)"><use fill="#aa872e" xlink:href="#8io2a"/></g></g></svg>