<svg xmlns="http://www.w3.org/2000/svg" width="40" height="39" viewBox="0 0 40 39">
  <defs>
    <style>
      .cls-1 {
        fill: none;
        stroke: #aa872e;
        stroke-width: 1px;
        fill-rule: evenodd;
      }
    </style>
  </defs>
  <path id="soc-2" class="cls-1" d="M82.5,0A19.5,19.5,0,1,0,102,19.5,19.5,19.5,0,0,0,82.5,0Zm9.7,15.123,0.014,0.621a13.655,13.655,0,0,1-21.02,11.5,10.1,10.1,0,0,0,1.146.069A9.642,9.642,0,0,0,78.3,25.261a4.807,4.807,0,0,1-4.485-3.335,4.913,4.913,0,0,0,.9.083,4.8,4.8,0,0,0,1.265-.167,4.806,4.806,0,0,1-3.852-4.707V17.074a4.791,4.791,0,0,0,2.175.6,4.807,4.807,0,0,1-1.486-6.408,13.625,13.625,0,0,0,9.895,5.017,4.806,4.806,0,0,1,8.184-4.379,9.726,9.726,0,0,0,3.049-1.164A4.818,4.818,0,0,1,91.843,13.4a9.609,9.609,0,0,0,2.757-.756A9.692,9.692,0,0,1,92.2,15.123Z" transform="translate(-62.5)"/>
</svg>
