<svg xmlns="http://www.w3.org/2000/svg" width="39.5" height="39" viewBox="0 0 39.5 39">
  <defs>
    <style>
      .cls-1 {
        fill: none;
        stroke: #aa872e;
        stroke-width: 1px;
        fill-rule: evenodd;
      }
    </style>
  </defs>
  <path id="soc-4" class="cls-1" d="M208.58,39C195.5,39,189,27.66,189,19.585,189,6.822,199.726,0,208.541,0,217.471,0,228,7.764,228,19.63,228,27,221.771,39,208.58,39Zm7.466-27.617-19.607,7.662A0.718,0.718,0,0,0,196.5,20.4l4.982,1.475,1.86,5.917a0.854,0.854,0,0,0,1.427.342l2.576-2.638,5.055,3.72a1.054,1.054,0,0,0,1.656-.636L217.4,12.533A1.01,1.01,0,0,0,216.046,11.383ZM204.48,23.021a0.5,0.5,0,0,0-.162.313l-0.35,3.126a0.094,0.094,0,0,1-.184.018l-1.443-4.662a0.492,0.492,0,0,1,.209-0.562l10.755-6.689a0.238,0.238,0,0,1,.283.381Z" transform="translate(-188.5)"/>
</svg>
