<svg xmlns="http://www.w3.org/2000/svg" width="39" height="39" viewBox="0 0 39 39">
  <defs>
    <style>
      .cls-1 {
        fill: #aa872e;
        fill-rule: evenodd;
      }
    </style>
  </defs>
  <path id="soc-3" class="cls-1" d="M159.289,5.711a19.5,19.5,0,0,0-27.578,27.577A19.5,19.5,0,0,0,159.289,5.711ZM145.5,37.769A18.268,18.268,0,1,1,163.768,19.5,18.289,18.289,0,0,1,145.5,37.769Zm7-30.379H138.5A5.12,5.12,0,0,0,133.39,12.5V26.5a5.12,5.12,0,0,0,5.114,5.114H152.5a5.121,5.121,0,0,0,5.115-5.115V12.5A5.121,5.121,0,0,0,152.5,7.39ZM156.379,26.5a3.887,3.887,0,0,1-3.883,3.883H138.5a3.887,3.887,0,0,1-3.883-3.883V12.5A3.887,3.887,0,0,1,138.5,8.621H152.5a3.887,3.887,0,0,1,3.883,3.883V26.5h0Zm-4.526-7.36a6.37,6.37,0,1,0-3,5.766,0.611,0.611,0,0,0,.11-0.949l-0.009-.009a0.614,0.614,0,0,0-.76-0.082,5.1,5.1,0,0,1-2.754.77,5.138,5.138,0,1,1,4.589-2.732,0.612,0.612,0,0,0,.1.723l0.009,0.009a0.608,0.608,0,0,0,.965-0.138A6.328,6.328,0,0,0,151.853,19.136Zm0.215-8.667a1.642,1.642,0,1,1-1.642,1.642A1.643,1.643,0,0,1,152.068,10.468Z" transform="translate(-126)"/>
</svg>
