<svg xmlns="http://www.w3.org/2000/svg" viewBox="0 0 109.84 109.84"><defs><style>.cls-1{fill:#fff;fill-rule:evenodd;}</style></defs><title>head-3</title><g id="Слой_2" data-name="Слой 2"><g id="Layer_1" data-name="Layer 1"><path class="cls-1" d="M54.92,0A54.92,54.92,0,1,1,0,54.92,54.92,54.92,0,0,1,54.92,0ZM41.56,35.67,31.71,41.6A5.91,5.91,0,0,0,29,45.12l-5.24,15a18.32,18.32,0,0,0-1.07,6.59v3.49l1.15,1.28,1-1.13a3.7,3.7,0,0,1,4.44-.91V65.2a1.82,1.82,0,0,1,1.82-1.82h9.63a1.82,1.82,0,0,1,1.82,1.82V80.27A1.33,1.33,0,0,0,44,81.75H61.27c2.6,0,4.07-1.26,4.11-4.05V67.19a8.85,8.85,0,0,1-4-8.35,12.26,12.26,0,0,1-1.07-10.24l-1.21-3.47a5.91,5.91,0,0,0-2.72-3.52L46.5,35.67a4.68,4.68,0,0,0-4.93,0ZM17.91,73.81a1.55,1.55,0,0,0-.46,1.13V82.8a.87.87,0,0,0,.87.87h3.36a.87.87,0,0,0,.87-.87V74.94a1.51,1.51,0,0,0-.46-1.13l-1.37-1.52a.9.9,0,0,0-1.43,0l-1.37,1.52Zm15.34,0a1.55,1.55,0,0,0-.46,1.13V82.8a.87.87,0,0,0,.87.87H37a.87.87,0,0,0,.87-.87V74.94a1.52,1.52,0,0,0-.46-1.13l-1.37-1.52a.9.9,0,0,0-1.43,0l-1.37,1.52Zm-7.67,0a1.55,1.55,0,0,0-.46,1.13V82.8a.87.87,0,0,0,.87.87h3.36a.87.87,0,0,0,.87-.87V74.94a1.52,1.52,0,0,0-.46-1.13l-1.37-1.52a.9.9,0,0,0-1.44,0l-1.37,1.52Zm54.31,7.94h5.62a1.25,1.25,0,0,0,.95-2.06c-1.74-3.88-.6-7.77,1.13-11.65a7.26,7.26,0,0,1-2.79.3C84,70.51,83,72.22,82,72s-1-2.58-.38-4.64A9.38,9.38,0,0,1,80,66.18a5.54,5.54,0,0,1-1.65,1c0,1.34-.35,2.4-1.15,2.71-1.21.47-2.9-.92-3.86-3.15A4.6,4.6,0,0,1,72.4,66a5.14,5.14,0,0,1-1,.4c2.13,4.45,3.91,8.89,1.91,13.34a1.25,1.25,0,0,0,.95,2.06ZM92.46,52.43a4.85,4.85,0,0,0-2.56.73,4.88,4.88,0,0,1,4.85-1.45c0-.24,0-.48,0-.72a7.74,7.74,0,0,0-12.36-6.21A7.76,7.76,0,0,1,86.29,42,7.74,7.74,0,0,0,73,41.69a9.47,9.47,0,0,1,5.53,4.14,9.45,9.45,0,1,0-9.28,15.81,9.4,9.4,0,0,1-5.17-2q0,.13,0,.25a5.71,5.71,0,0,0,8.51,5,4.88,4.88,0,0,0,7.4-.19A6.87,6.87,0,0,0,91.7,63.36a5.34,5.34,0,0,1-4.15-3.81,8.81,8.81,0,0,1-6.27-2.33,9.48,9.48,0,0,1-4.76,3.6,9.48,9.48,0,0,0,4.33-5.18A7.73,7.73,0,0,0,87,58.73q.38,0,.74,0a4.88,4.88,0,1,0,4.68-6.26Zm-74.65,11h2a20.43,20.43,0,0,1,1-4.28c1.74-5,3.46-10,5.23-15a9.15,9.15,0,0,1,4.1-5.19L40,33a7.7,7.7,0,0,1,8.07,0c3.25,1.77,6.58,4,9.82,5.9A8.89,8.89,0,0,1,62,44.1l.29.83a12.31,12.31,0,0,1,5.31-3.87l-.93-2.68a8.25,8.25,0,0,0-3.79-4.91l-15.4-9.09a6.2,6.2,0,0,0-6.88,0l-15.4,9.09a8.25,8.25,0,0,0-3.79,4.91l-6.92,20c-.83,2.4.17,5,3.32,5Zm27-19.92v5.2H50a6,6,0,0,0-5.2-5.2ZM50,50.26h-5.2v5.2a6,6,0,0,0,5.2-5.2Zm-6.75,5.2v-5.2h-5.2a6,6,0,0,0,5.2,5.2Zm-5.2-6.75h5.2v-5.2a6,6,0,0,0-5.2,5.2ZM48,63.39a2,2,0,0,0-2,2V69h5.6v-5.6Zm3.64,7.15H46v3.64a2,2,0,0,0,2,2h3.64v-5.6Zm1.55-7.15V69h5.6V65.35a2,2,0,0,0-2-2Zm5.6,7.15h-5.6v5.6h3.64a2,2,0,0,0,2-2Z"/></g></g></svg>