<svg xmlns="http://www.w3.org/2000/svg" viewBox="0 0 109.84 109.83"><defs><style>.cls-1{fill:#fff;fill-rule:evenodd;}</style></defs><title>head-1</title><g id="Слой_2" data-name="Слой 2"><g id="Layer_1" data-name="Layer 1"><path class="cls-1" d="M54.92,0A54.92,54.92,0,1,1,0,54.92,54.92,54.92,0,0,1,54.92,0Zm9.22,27a26.31,26.31,0,0,0-10,1.88A16.83,16.83,0,0,1,56.39,31a24.3,24.3,0,0,1,7.75-1.21A21.91,21.91,0,0,1,74.9,32.35c2.5,1.44,4,3.36,4,5.41a4.26,4.26,0,0,1-.29,1.53l2.4,1.6a7.16,7.16,0,0,0,.73-3.13c0-3.13-2.09-5.9-5.46-7.85A24.77,24.77,0,0,0,64.14,27ZM90.59,61.8l4.47-1c3.46-.9,3.75-4.61,1.08-6.41L85.91,47.52,74.82,40.12a6.54,6.54,0,0,0-9.7,2.24l-.3.51a22.78,22.78,0,0,0,2.35-.17q1.06-.14,2-.37a4.37,4.37,0,0,1,.93-.33,4.33,4.33,0,0,1,5.19,3.24c.61,2.66-1.38,4.46-4,5.3q-1.27.31-2.61.5a31.85,31.85,0,0,1-4.6.33A31.57,31.57,0,0,1,60,51.11L58.4,53.87l-6.2,10.63c-1.61,2.79.28,6,3.78,5.29l4.47-1,2.68,11.6a4.71,4.71,0,0,0,5.64,3.52l21-4.84a4.71,4.71,0,0,0,3.52-5.64L90.59,61.8ZM9.65,65.61l.11,3.31a1.76,1.76,0,0,0,1.64,1.91l4.91.73A2.56,2.56,0,0,0,18,71a.91.91,0,0,0,.46-.64l.34-1.67L20,68.57a1.1,1.1,0,0,0,.67-.34l.57-.49a.91.91,0,0,0,.35-.59l.35-1.71,2,0A1.55,1.55,0,0,0,25.07,65l1-.86a1.85,1.85,0,0,0,.78-1.52L27,60l1.57.35a2.94,2.94,0,0,0,2.84-.74L33,58.23l.57.67a1.25,1.25,0,0,0,1.76.14l4.23-3.63a14,14,0,0,0,15.7-5.33,22.93,22.93,0,0,1-4.7-2,15.75,15.75,0,0,1-4.44-3.71,11.59,11.59,0,0,1-1.52-2.45l-.25-.27a4.6,4.6,0,1,1,8.09-3,3.67,3.67,0,0,0,.37.52,7.5,7.5,0,0,0,2,1.6A14.34,14.34,0,0,0,57.75,42,14,14,0,1,0,30,44.25l-4.23,3.63a1.25,1.25,0,0,0-.13,1.76l.57.67L10.53,63.73a2,2,0,0,0-.88,1.88ZM72,47.47c1.38-.47.78-3-1.33-2.59a33.53,33.53,0,0,1-6.49.83,26.27,26.27,0,0,1-4.43-.38l-.12,0h0l-.13,0-.13,0-.13,0h0l-.13,0H58.9l-.21,0h0l-.12,0-.13,0h0l-.11,0-.13,0L58,45l-.13,0-.09,0h0l-.13,0h0l-.09,0h0l-.09,0-.13,0h0l-.08,0h0l-.11,0-.13,0-.13,0-.12,0h0l-.13,0-.12,0h0l-.12,0h0l-.12,0h0l-.1,0h0l-.12,0h0l-.11,0h0l-.11,0-.12,0h0l-.1,0h0l-.11,0-.12,0h0L55,44l-.1,0h0l-.12-.05,0,0-.07,0-.11,0h0l-.12-.05-.05,0h0l-.16-.08h0l-.12-.06-.06,0h0l-.14-.07h0l-.13-.07h0l-.15-.08h0l-.14-.08h0l0,0L53.17,43h0l-.28-.17,0,0h0l-.12-.08,0,0h0l-.1-.07h0l-.07,0,0,0-.09-.07h0l0,0-.11-.08h0l-.05,0-.1-.08A6.1,6.1,0,0,1,49.35,38a.76.76,0,0,0-.17-.51A1.76,1.76,0,0,0,48,36.87a1.79,1.79,0,0,0-1.24.37.63.63,0,0,0-.22.52,8.71,8.71,0,0,0,3.87,6.8l.16.12,0,0,0,0,.11.08,0,0,0,0,.15.1h0l.17.12h0l.14.09,0,0,0,0,.16.1h0l.11.07,0,0,.07,0h0l.12.07,0,0,.07,0,.12.07h0l0,0,.12.07,0,0,0,0,.12.06,0,0,.08,0,.12.06h0l.12.06.09,0,0,0,.12.06,0,0,.08,0,.12.06h0l0,0,.33.15,0,0,.08,0,.13.05h0l.12.05.09,0h0l.13.05.05,0,.08,0,.13.05.08,0,0,0,.09,0h0l.13,0h0L55,47l.13,0h0l.15.05h.06l.13,0,.05,0,.08,0,.13,0h0l.12,0,.1,0h0l.13,0,.39.11h0l.12,0,.13,0,.06,0,.08,0h0l.22.06h0l.1,0h0l.14,0,.13,0,.14,0h0l.12,0a28.87,28.87,0,0,0,14-.4Z"/></g></g></svg>