<svg xmlns="http://www.w3.org/2000/svg" viewBox="0 0 109.83 109.83"><defs><style>.cls-1{fill:#fff;fill-rule:evenodd;}</style></defs><title>head-2</title><g id="Слой_2" data-name="Слой 2"><g id="Layer_1" data-name="Layer 1"><path class="cls-1" d="M54.92,0A54.92,54.92,0,1,1,0,54.92,54.92,54.92,0,0,1,54.92,0ZM32.24,31.25A4.79,4.79,0,0,0,27.46,36V83.74a4.79,4.79,0,0,0,4.77,4.77H66.91a4.79,4.79,0,0,0,4.77-4.77V64.91l-2.32,3.31a4.73,4.73,0,0,1-2,1.64,2.77,2.77,0,0,1-.5,2l-1.3,1.86a7.36,7.36,0,0,1-3.69,3L55,79.11a4.07,4.07,0,0,1-1.44.29H43.26a1.65,1.65,0,1,1,0-3.31H50c0-.09,0-.16,0-.24l-.07-7.33A7.12,7.12,0,0,1,51.27,64l.45-.65H35.25a1.65,1.65,0,0,1,0-3.31H54.5a4.66,4.66,0,0,1,.9-1.93l1.42-2H35.25a1.65,1.65,0,0,1,0-3.31H59.14l2.78-4H35.25a1.65,1.65,0,0,1,0-3.31H63.9l.31,0L71.58,35a4.79,4.79,0,0,0-4.67-3.77ZM89.18,35c4.37-6.24-5.12-12.89-9.49-6.65L77.3,31.77a4.77,4.77,0,0,1,1.79.77L85.46,37a4.72,4.72,0,0,1,1.33,1.42L89.18,35Zm-11.76-.09a1.91,1.91,0,0,0-2.66.47L57.56,60A1.92,1.92,0,0,0,58,62.62l6.37,4.46a1.93,1.93,0,0,0,2.66-.47L84.26,42a1.92,1.92,0,0,0-.47-2.66l-6.37-4.46ZM55,63.57l-1.45,2.07a4.29,4.29,0,0,0-.88,2.61q0,3.79.08,7.59a.72.72,0,0,0,1,.68L60.93,74a4.29,4.29,0,0,0,2.15-1.72l1.45-2.07a4.71,4.71,0,0,1-1.79-.77L56.37,65A4.73,4.73,0,0,1,55,63.57ZM35.25,38.24a1.65,1.65,0,0,0,0,3.31H63.9a1.65,1.65,0,1,0,0-3.31Z"/></g></g></svg>