<svg xmlns="http://www.w3.org/2000/svg" xmlns:xlink="http://www.w3.org/1999/xlink" width="30" height="32" viewBox="0 0 30 32"><defs><path id="ds0fa" d="M849.67 48.34l-1.5 1.42c.29.97.66 3.47-1.83 5.9a4.62 4.62 0 0 1-3.3 1.33h-.15a6.24 6.24 0 0 1-4.35-2.03l-9.22-9.28c-.12-.08-1.7-1.23-3.22.18a2.53 2.53 0 0 0-.08 3.71l3.25 3.19a.6.6 0 0 1 0 .87.64.64 0 0 1-.9 0l-3.24-3.19a3.74 3.74 0 0 1 .1-5.48 3.76 3.76 0 0 1 4.93-.19l9.3 9.35c.92 1 2.2 1.6 3.46 1.64.7.03 1.69-.14 2.53-.97 1.63-1.6 1.75-3.18 1.64-4.11a5.61 5.61 0 0 1-3.28 1.06c-3.83 0-7.95-3.62-11.1-6.78-4.65-4.65-6.79-8.15-6.73-11 .05-2.4 1.6-3.84 2.98-5.1l.58-.54a1.23 1.23 0 0 1 1.68.01l5.55 5.55a1.14 1.14 0 0 1-.02 1.64l-1.7 1.63c.02.07.16.74 1.23 2.08 1.62 2.02 3.68 3.54 4.45 3.54.1-.07 1.17-1.09 1.54-1.45.32-.3.65-.46 1-.46.2 0 .51.06.8.35l5.57 5.52c.45.45.46 1.15.03 1.6zm-.92-.85l-5.52-5.36-.08.07c-.37.37-1.46 1.4-1.56 1.5-.05.04-.19.14-.24.16-.18.1-.4.14-.62.14-1.98 0-5.74-3.83-6.64-5.89-.35-.8-.33-1.41.07-1.82l1.7-1.65-5.54-5.44c-.1.18-.3.37-.5.55-1.25 1.16-2.54 2.35-2.58 4.23-.05 2.47 2.03 5.78 6.36 10.12 2.99 2.98 6.84 6.4 10.2 6.4 1.18 0 2.2-.41 3.12-1.26l.11-.1 1.72-1.65z"/></defs><g><g transform="translate(-822 -26)"><use fill="#7d7d7d" xlink:href="#ds0fa"/></g></g></svg>