<svg xmlns="http://www.w3.org/2000/svg" xmlns:xlink="http://www.w3.org/1999/xlink" width="22" height="22" viewBox="0 0 22 22"><defs><path id="psoga" d="M42 6612c2.3 0 4.62 1.97 4.62 3.38v3.12c0 1.3-.51 3.64-1.93 4.76a1 1 0 0 0 .19 1.68l5.44 2.58.05.03c.2.08.52.28.63.4v1.8c0 .13-.12.25-.25.25h-17.5a.25.25 0 0 1-.25-.25v-1.77c.11-.13.41-.33.68-.45l5.49-2.6a1 1 0 0 0 .2-1.68c-1.38-1.1-2-3.44-2-4.75v-3.12c0-1.41 2.33-3.38 4.63-3.38zm-5.63 3.38v3.12c0 1.37.62 4.13 2.37 5.53l-5.49 2.6s-1.25.55-1.25 1.24v1.88c0 .69.56 1.25 1.25 1.25h17.5c.69 0 1.25-.56 1.25-1.25v-1.88c0-.73-1.25-1.25-1.25-1.25l-5.44-2.58c1.73-1.36 2.31-4.04 2.31-5.54v-3.12c0-2.07-2.86-4.38-5.62-4.38-2.76 0-5.63 2.3-5.63 4.38z"/></defs><g><g transform="translate(-31 -6610)"><use fill="#4fc1e9" xlink:href="#psoga"/></g></g></svg>