<svg xmlns="http://www.w3.org/2000/svg" viewBox="0 0 109.83 109.83"><defs><style>.cls-1{fill:#56c9fd;fill-rule:evenodd;}</style></defs><title>why-i</title><g id="Слой_2" data-name="Слой 2"><g id="Layer_1" data-name="Layer 1"><path class="cls-1" d="M54.92,0A54.92,54.92,0,1,1,0,54.92,54.92,54.92,0,0,1,54.92,0Zm0,86.43a7.14,7.14,0,0,0,3.67-1.09l15.71-9.48a7.42,7.42,0,0,0,3.92-6.74l.94-27.52C79.41,35.43,76.23,31.91,71,31a88,88,0,0,0-32.13,0c-5.26.88-8.44,4.4-8.18,10.57l.94,27.52a7.42,7.42,0,0,0,3.92,6.74l15.71,9.48a7.14,7.14,0,0,0,3.68,1.09ZM48,69.79H61.88a3.2,3.2,0,0,0,3.17-3.17V58.91h3c2.46,0,3-2.4,1.7-3.93l-3.83-4V46.3a2.06,2.06,0,1,0-4.11,0v.31L57.1,41.7a2.74,2.74,0,0,0-4.37,0L40.12,55c-1.35,1.53-.76,3.92,1.7,3.93h3v7.71A3.2,3.2,0,0,0,48,69.79Zm1.19,22.64h0a11.21,11.21,0,0,0,5.75,1.84,11.19,11.19,0,0,0,5.76-1.84h0L78.34,81.78l.07,0a14.34,14.34,0,0,0,5.09-5.42,17.82,17.82,0,0,0,1.67-7.2v0l1-27.48v-.07a18.45,18.45,0,0,0-2.41-9.82c-2.09-3.37-5.86-6.33-12.7-7.58H71q-3.87-.58-7.89-.88t-8.16-.3q-4.22,0-8.16.3t-7.89.88H38.8C32,25.37,28.19,28.33,26.1,31.7a18.45,18.45,0,0,0-2.41,9.82v.07l1,27.48v0a17.82,17.82,0,0,0,1.67,7.2,14.33,14.33,0,0,0,5.09,5.42l.07,0L49.14,92.43ZM33.38,78.65h0L51,89.3h0a7.84,7.84,0,0,0,3.88,1.33,7.84,7.84,0,0,0,3.9-1.33h0L76.45,78.65h0a10.78,10.78,0,0,0,3.79-4,14.41,14.41,0,0,0,1.28-5.76h0l1-27.42a15,15,0,0,0-1.87-7.86C79,31,76,28.76,70.44,27.72h0q-3.76-.56-7.62-.85t-7.9-.31q-4,0-7.9.31t-7.62.85h0c-5.59,1-8.6,3.32-10.19,5.9a15,15,0,0,0-1.87,7.86l1,27.42h0a14.41,14.41,0,0,0,1.28,5.76A10.78,10.78,0,0,0,33.38,78.65Z"/></g></g></svg>