<?xml version="1.0" encoding="utf-8"?><svg xmlns="http://www.w3.org/2000/svg" xmlns:xlink="http://www.w3.org/1999/xlink"><symbol viewBox="0 0 344.96 344.96" id="check" xmlns="http://www.w3.org/2000/svg"><g data-name="Слой 2"><path d="M321.85 86.24l-40-23.11-23.1-40H212.5L172.48 0l-40 23.11H86.24l-23.11 40-40 23.1v46.21L0 172.48l23.11 40v46.21l40 23.11 23.11 40h46.21l40 23.1 40-23.11h46.21l23.11-40 40-23.11V212.5l23.11-40-23.11-40V86.24zM156.91 243.07a16.79 16.79 0 0 1-23.34 0l-50.45-50.44a16.19 16.19 0 0 1 0-22.89l13.35-13.35a16.19 16.19 0 0 1 22.89 0l25.87 25.87 80.34-80.35a16.19 16.19 0 0 1 22.89 0l13.35 13.35a16.19 16.19 0 0 1 0 22.89z" data-name="Capa 1"/></g></symbol><symbol viewBox="0 0 17 16" id="tel" xmlns="http://www.w3.org/2000/svg"><defs><path id="ba" d="M1199.495 38.999a4 4 0 1 0 0-8v-1a5 5 0 1 1 0 10m0-4a1 1 0 0 0 0-2v-1a2 2 0 0 1 0 4m0 5a7 7 0 1 0 0-14v-1a8 8 0 1 1 0 16m-2-14.99h-3.99a1 1 0 0 0-1 1V41c0 .55.448 1 1 1h3.99v-3.99h-2.99v-6.02h2.99zm.01-1a.99.99 0 0 1 .99.99v4a.99.99 0 0 1-.99.99h-2v4.02h2a.99.99 0 0 1 .99.99v4.01a.99.99 0 0 1-.99.99h-4a2 2 0 0 1-2-2V29.01a2 2 0 0 1 2-2z"/></defs><use xlink:href="#ba" transform="translate(-1191 -27)"/></symbol><symbol viewBox="0 0 12 13" id="top" xmlns="http://www.w3.org/2000/svg"><defs><path id="ca" d="M254.525 2372.42a.774.774 0 0 1 .7-.211.774.774 0 0 1 .701.211l4.512 4.597a.824.824 0 0 1 0 1.149.787.787 0 0 1-1.128 0l-3.287-3.35v8.603a.806.806 0 0 1-.797.813.805.805 0 0 1-.798-.813v-8.603l-3.286 3.35a.787.787 0 0 1-1.128 0 .824.824 0 0 1 0-1.15z"/></defs><use xlink:href="#ca" transform="translate(-249 -2372)"/></symbol></svg>