<?xml version="1.0" encoding="utf-8"?><svg xmlns="http://www.w3.org/2000/svg" xmlns:xlink="http://www.w3.org/1999/xlink"><symbol viewBox="0 0 12 11" id="Color_Fill_3_copy_6" xmlns="http://www.w3.org/2000/svg"><defs><path id="aa" d="M261.232 586.785a.786.786 0 0 0-.21.706.786.786 0 0 0 .21.707l4.585 4.55a.815.815 0 0 0 1.146 0 .8.8 0 0 0 0-1.138l-3.34-3.314h8.58c.447 0 .81-.36.81-.805a.807.807 0 0 0-.81-.804h-8.58l3.34-3.315a.8.8 0 0 0 0-1.137.815.815 0 0 0-1.146 0z"/></defs><use xlink:href="#aa" transform="translate(-261 -582)"/></symbol><symbol viewBox="0 0 12 11" id="back" xmlns="http://www.w3.org/2000/svg"><defs><path id="ba" d="M261.232 586.785a.786.786 0 0 0-.21.706.786.786 0 0 0 .21.707l4.585 4.55a.815.815 0 0 0 1.146 0 .8.8 0 0 0 0-1.138l-3.34-3.314h8.58c.447 0 .81-.36.81-.805a.807.807 0 0 0-.81-.804h-8.58l3.34-3.315a.8.8 0 0 0 0-1.137.815.815 0 0 0-1.146 0z"/></defs><use xlink:href="#ba" transform="translate(-261 -582)"/></symbol><symbol viewBox="0 0 19 21" id="bot" xmlns="http://www.w3.org/2000/svg"><defs><path id="ca" d="M892.7 689.606c-.333.34-.79.445-1.222.368-.432.077-.889-.028-1.222-.368l-7.87-8.02a1.437 1.437 0 0 1 0-2.005 1.373 1.373 0 0 1 1.967 0l5.734 5.844v-15.008c0-.784.623-1.418 1.391-1.418.769 0 1.392.634 1.392 1.418v15.008l5.734-5.844a1.373 1.373 0 0 1 1.967 0 1.437 1.437 0 0 1 0 2.005z"/></defs><use xlink:href="#ca" transform="translate(-882 -669)"/></symbol><symbol viewBox="0 0 344.96 344.96" id="check" xmlns="http://www.w3.org/2000/svg"><g data-name="Слой 2"><path d="M321.85 86.24l-40-23.11-23.1-40H212.5L172.48 0l-40 23.11H86.24l-23.11 40-40 23.1v46.21L0 172.48l23.11 40v46.21l40 23.11 23.11 40h46.21l40 23.1 40-23.11h46.21l23.11-40 40-23.11V212.5l23.11-40-23.11-40V86.24zM156.91 243.07a16.79 16.79 0 0 1-23.34 0l-50.45-50.44a16.19 16.19 0 0 1 0-22.89l13.35-13.35a16.19 16.19 0 0 1 22.89 0l25.87 25.87 80.34-80.35a16.19 16.19 0 0 1 22.89 0l13.35 13.35a16.19 16.19 0 0 1 0 22.89z" data-name="Capa 1"/></g></symbol><symbol viewBox="0 0 20 19" id="icon" xmlns="http://www.w3.org/2000/svg"><defs><path id="ea" d="M1664.442 3952.106a1.203 1.203 0 0 1-2.405 0v-3.607a1.202 1.202 0 0 1 2.405 0zm-1.202-6.013a1.202 1.202 0 1 1-.001-2.404 1.202 1.202 0 0 1 0 2.404zm0-6.013c-4.642 0-8.418 3.777-8.418 8.419 0 4.64 3.776 8.417 8.418 8.417 4.641 0 8.417-3.776 8.417-8.417 0-4.642-3.776-8.419-8.417-8.419 0 0 4.641 0 0 0zm0-1.2c5.313 0 9.62 4.305 9.62 9.619 0 5.312-4.307 9.62-9.62 9.62-5.313 0-9.62-4.308-9.62-9.62a9.62 9.62 0 0 1 9.62-9.62z"/></defs><use xlink:href="#ea" transform="translate(-1653 -3939)"/></symbol><symbol viewBox="0 0 32 32" id="image" xmlns="http://www.w3.org/2000/svg"><defs><path id="fa" d="M1391 694.999h-24a4 4 0 0 1-4-4v-24a4 4 0 0 1 4-4h24a4 4 0 0 1 4 4v24a4 4 0 0 1-4 4zm0-2a2 2 0 0 0 2-2v-8l-6-6-8.536 8.535 7.368 7.465zm-26-2a2 2 0 0 0 2 2h16.001l-10.056-10.055-7.945 7.115zm28-24a2 2 0 0 0-2-2h-24a2 2 0 0 0-2 2v20.335l8-7.336 4.058 4.113 9.942-10.112 6 6.128zm-22 8a4 4 0 1 1 .001-8 4 4 0 0 1-.001 8zm0-6a2 2 0 1 0 0 4 2 2 0 0 0 0-4z"/></defs><use xlink:href="#fa" transform="translate(-1363 -663)"/></symbol><symbol viewBox="0 0 16 16" id="more" xmlns="http://www.w3.org/2000/svg"><defs><path id="ga" d="M1139 709h-12a2 2 0 0 1-2-2v-12a2 2 0 0 1 2-2h12a2 2 0 0 1 2 2v12a2 2 0 0 1-2 2zm1-14a1 1 0 0 0-1-1h-12a1 1 0 0 0-1 1v12a1 1 0 0 0 1 1h12a1 1 0 0 0 1-1zm-1.5 5.5a.5.5 0 0 1-.5-.5l.016-3.287-3.394 3.393-.707-.707 3.4-3.4L1134 696a.5.5 0 0 1 0-1h4.486c.14 0 .265.058.356.15a.447.447 0 0 1 .158.35v4.5a.5.5 0 0 1-.5.5z"/></defs><use xlink:href="#ga" transform="translate(-1125 -693)"/></symbol><symbol viewBox="0 0 27 29" id="play" xmlns="http://www.w3.org/2000/svg"><defs><path id="ha" d="M270.25 667.233zm22.475 12.266l-22.475 12.266v-24.532zm-24.736-12.266v24.532c0 1.294 1.08 2.225 2.264 2.225.364 0 .74-.089 1.095-.282l22.475-12.267a2.203 2.203 0 0 0 0-3.885l-22.475-12.266a2.282 2.282 0 0 0-1.095-.282c-1.183 0-2.264.93-2.264 2.225z"/></defs><use xlink:href="#ha" transform="translate(-268 -665)"/></symbol><symbol viewBox="0 0 13 12" id="right" xmlns="http://www.w3.org/2000/svg"><defs><path id="ia" d="M399.58 316.525a.774.774 0 0 1 .21.7.773.773 0 0 1-.21.701l-4.597 4.512a.824.824 0 0 1-1.15 0 .787.787 0 0 1 0-1.128l3.35-3.287h-8.602a.805.805 0 0 1-.813-.797c0-.44.364-.798.813-.798h8.602l-3.35-3.286a.787.787 0 0 1 0-1.128.824.824 0 0 1 1.15 0z"/></defs><use xlink:href="#ia" transform="translate(-387 -311)"/></symbol><symbol viewBox="0 0 17 16" id="tel" xmlns="http://www.w3.org/2000/svg"><defs><path id="ja" d="M1199.495 38.999a4 4 0 1 0 0-8v-1a5 5 0 1 1 0 10m0-4a1 1 0 0 0 0-2v-1a2 2 0 0 1 0 4m0 5a7 7 0 1 0 0-14v-1a8 8 0 1 1 0 16m-2-14.99h-3.99a1 1 0 0 0-1 1V41c0 .55.448 1 1 1h3.99v-3.99h-2.99v-6.02h2.99zm.01-1a.99.99 0 0 1 .99.99v4a.99.99 0 0 1-.99.99h-2v4.02h2a.99.99 0 0 1 .99.99v4.01a.99.99 0 0 1-.99.99h-4a2 2 0 0 1-2-2V29.01a2 2 0 0 1 2-2z"/></defs><use xlink:href="#ja" transform="translate(-1191 -27)"/></symbol><symbol viewBox="0 0 17 15" id="telegram" xmlns="http://www.w3.org/2000/svg"><defs><path id="ka" d="M1538.375 1603v-4.287l8.5-8.571-10.625 7.5-4.25-2.143 17-7.5-4.25 13.93-4.138-2.088z"/></defs><use xlink:href="#ka" transform="translate(-1532 -1588)"/></symbol><symbol viewBox="0 0 12 13" id="top" xmlns="http://www.w3.org/2000/svg"><defs><path id="la" d="M254.525 2372.42a.774.774 0 0 1 .7-.211.774.774 0 0 1 .701.211l4.512 4.597a.824.824 0 0 1 0 1.149.787.787 0 0 1-1.128 0l-3.287-3.35v8.603a.806.806 0 0 1-.797.813.805.805 0 0 1-.798-.813v-8.603l-3.286 3.35a.787.787 0 0 1-1.128 0 .824.824 0 0 1 0-1.15z"/></defs><use xlink:href="#la" transform="translate(-249 -2372)"/></symbol></svg>