<?xml version="1.0" encoding="UTF-8" standalone="no"?>
<svg
   xmlns:dc="http://purl.org/dc/elements/1.1/"
   xmlns:cc="http://creativecommons.org/ns#"
   xmlns:rdf="http://www.w3.org/1999/02/22-rdf-syntax-ns#"
   xmlns:svg="http://www.w3.org/2000/svg"
   xmlns="http://www.w3.org/2000/svg"
   id="svg8"
   version="1.1"
   viewBox="0 0 55.389332 41.539131"
   height="41.539131mm"
   width="55.389332mm">
  <defs
     id="defs2" />
  <metadata
     id="metadata5">
    <rdf:RDF>
      <cc:Work
         rdf:about="">
        <dc:format>image/svg+xml</dc:format>
        <dc:type
           rdf:resource="http://purl.org/dc/dcmitype/StillImage" />
        <dc:title></dc:title>
      </cc:Work>
    </rdf:RDF>
  </metadata>
  <g
     transform="translate(-133.27754,-109.78878)"
     id="layer1">
    <path
       id="path21"
       d="m 136.14048,150.73266 c -0.68786,-0.34791 -1.50834,-1.07197 -1.97429,-1.74228 l -0.79729,-1.14697 -0.0754,-13.34227 c -0.0505,-8.93401 0.0187,-13.69201 0.20957,-14.40078 0.15677,-0.58218 0.66511,-1.49139 1.12966,-2.02048 1.48918,-1.69609 1.92469,-1.78274 9.502,-1.89052 l 6.79701,-0.0967 0.16115,-0.73371 c 0.0886,-0.40354 0.51655,-1.0742 0.95092,-1.49035 0.67785,-0.64943 1.04425,-0.77102 2.58578,-0.85813 l 1.79603,-0.10148 0.51021,-1.09729 c 0.67086,-1.44279 1.82897,-2.02238 4.0421,-2.02292 2.28388,-5.6e-4 3.40684,0.56165 4.05683,2.03106 l 0.50583,1.14353 1.50898,9.8e-4 c 1.92287,0.001 3.12677,0.68934 3.68282,2.10488 l 0.40213,1.02375 6.7818,0.0912 c 5.99585,0.0807 6.88912,0.14831 7.70785,0.58376 1.30667,0.69497 1.8262,1.20138 2.47555,2.41309 0.55881,1.04276 0.56715,1.25915 0.56715,14.70512 v 13.64679 l -0.79375,1.28163 c -0.52131,0.84174 -1.19398,1.493 -1.95984,1.89748 l -1.16609,0.61586 h -23.71483 -23.71482 z m 48.31438,-3.75474 c 0.31182,-0.42649 0.3755,-2.64878 0.3755,-13.10415 0,-10.96721 -0.0531,-12.66637 -0.41188,-13.17859 -0.4069,-0.58094 -0.49157,-0.58804 -7.01145,-0.58804 h -6.59959 v 0.65728 c 0,0.36151 -0.34727,1.04612 -0.77172,1.52136 l -0.77172,0.86407 -8.05864,0.077 -8.05864,0.077 -0.80927,-0.68096 c -0.44509,-0.37452 -0.94551,-1.09378 -1.11203,-1.59834 l -0.30276,-0.91741 h -6.3748 c -5.56051,0 -6.43659,0.0559 -6.85864,0.43788 -0.45616,0.41282 -0.48386,1.17686 -0.48386,13.34646 v 12.90857 l 0.59414,0.41615 c 0.53115,0.37203 3.01615,0.40869 23.43701,0.34573 22.26393,-0.0686 22.85238,-0.0834 23.21835,-0.58401 z m -43.80992,-3.69187 c 0,-0.72969 0.95171,-3.93962 1.46269,-4.93332 0.20411,-0.39696 0.92324,-0.93299 1.75656,-1.30932 0.77603,-0.35046 1.6561,-0.85106 1.95571,-1.11244 0.53072,-0.463 0.56716,-0.45212 1.41487,0.4225 l 0.87011,0.89772 -0.39539,2.47433 c -0.34224,2.1417 -0.34489,2.55436 -0.0197,3.06964 0.47236,0.7485 0.78976,0.75278 1.18409,0.016 0.23882,-0.44623 0.22996,-1.18448 -0.0385,-3.21306 l -0.34858,-2.63372 0.86878,-0.77626 0.86879,-0.77626 0.56812,0.52767 c 0.31246,0.29021 1.23085,0.81903 2.04087,1.17514 1.39408,0.61289 1.50259,0.73068 2.03131,2.20488 0.80647,2.24864 1.18225,3.80768 1.01982,4.23098 -0.11661,0.30385 -1.47656,0.36913 -7.69059,0.36913 h -7.54892 z m 20.04219,-0.9751 c -0.64154,-0.37367 -0.60976,-1.73374 0.0488,-2.08617 0.32514,-0.17401 3.92849,-0.27389 9.88087,-0.27389 8.74061,0 9.39847,0.0325 9.80698,0.48385 0.56913,0.62889 0.55442,1.18076 -0.046,1.7241 -0.43144,0.39044 -1.49923,0.43701 -9.85573,0.42984 -5.87185,-0.005 -9.5448,-0.10877 -9.8349,-0.27773 z m -0.14552,-6.64631 c -0.17462,-0.17463 -0.3175,-0.56753 -0.3175,-0.87313 0,-1.17553 0.13157,-1.19062 10.37734,-1.19062 h 9.74234 l 0.28613,0.62799 c 0.2077,0.45585 0.2036,0.78221 -0.015,1.19062 -0.2987,0.55813 -0.37903,0.56264 -10.02847,0.56264 -7.21295,0 -9.80943,-0.0821 -10.04486,-0.3175 z m -13.67896,-0.58275 c -1.47627,-0.65164 -2.33741,-2.14273 -2.66539,-4.61521 -0.27311,-2.05875 0.40571,-3.6454 1.83785,-4.29574 2.09597,-0.95177 4.64197,-0.46317 5.79613,1.11234 0.60312,0.8233 0.69507,3.32469 0.18052,4.91055 -0.87324,2.69133 -2.9526,3.85762 -5.14911,2.88806 z m 13.67896,-5.76725 c -0.50517,-0.50517 -0.3692,-1.46837 0.27054,-1.91646 0.50468,-0.35349 1.8841,-0.41187 9.73071,-0.41187 7.84661,0 9.22604,0.0584 9.73071,0.41187 0.68825,0.48207 0.75923,1.23123 0.17227,1.81819 -0.36268,0.36267 -1.63996,0.41577 -10.00125,0.41577 -7.10259,0 -9.66772,-0.0822 -9.90298,-0.3175 z"
       style="fill:#2a457a;stroke-width:0.26458332" />
  </g>
</svg>
