<?xml version="1.0" encoding="UTF-8" standalone="no"?>
<svg
   xmlns:dc="http://purl.org/dc/elements/1.1/"
   xmlns:cc="http://creativecommons.org/ns#"
   xmlns:rdf="http://www.w3.org/1999/02/22-rdf-syntax-ns#"
   xmlns:svg="http://www.w3.org/2000/svg"
   xmlns="http://www.w3.org/2000/svg"
   id="svg8"
   version="1.1"
   viewBox="0 0 49.056437 49.156816"
   height="49.156815mm"
   width="49.056435mm">
  <defs
     id="defs2" />
  <metadata
     id="metadata5">
    <rdf:RDF>
      <cc:Work
         rdf:about="">
        <dc:format>image/svg+xml</dc:format>
        <dc:type
           rdf:resource="http://purl.org/dc/dcmitype/StillImage" />
        <dc:title></dc:title>
      </cc:Work>
    </rdf:RDF>
  </metadata>
  <g
     transform="translate(182.37501,-131.25769)"
     id="layer1">
    <path
       id="path21"
       d=""
       style="fill:#000000;stroke-width:0.26458335" />
    <path
       id="path3774"
       d="m -147.45909,180.02038 c -6.09351,-1.29093 -14.54584,-6.21386 -20.57201,-11.98184 -6.28428,-6.01504 -11.06211,-13.16629 -13.48626,-20.18563 -0.75839,-2.19599 -0.84861,-2.77455 -0.85717,-5.49702 -0.008,-2.48928 0.0811,-3.21114 0.48911,-3.96875 0.60885,-1.13064 5.57577,-6.25202 6.56579,-6.76996 0.92008,-0.48136 2.68537,-0.47892 3.59815,0.005 0.39296,0.20832 2.40655,2.08355 4.47466,4.16719 5.68664,5.72935 5.75088,6.18413 1.49069,10.55276 -1.50553,1.54387 -2.73734,2.94938 -2.73734,3.12337 0,0.17399 0.287,0.87794 0.63777,1.56432 2.58825,5.06466 9.59461,12.00359 14.78495,14.64265 l 1.53209,0.779 2.87423,-2.77059 c 2.1846,-2.10584 3.09756,-2.81249 3.80504,-2.94522 1.90373,-0.35714 2.46565,-0.0108 6.61931,4.07915 6.33008,6.23306 6.37753,6.72063 1.15516,11.8678 -2.57523,2.53815 -3.15511,2.97912 -4.40292,3.34822 -1.74044,0.51483 -3.50653,0.51174 -5.97125,-0.0104 z"
       style="fill:#2a457a;stroke-width:0.26458335" />
  </g>
</svg>
