<svg xmlns="http://www.w3.org/2000/svg" xmlns:xlink="http://www.w3.org/1999/xlink" width="35" height="40" viewBox="0 0 35 40"><defs><path id="a" d="M50.63 75.32c0 1.1-.25 2.1-.75 2.97a5.08 5.08 0 0 1-2.16 2.01c-.93.48-2.04.72-3.32.72h-4.25v1.8h.04v14.74h.5v-.43c0-3.08.8-5.44 2.39-7.1a7.61 7.61 0 0 1 3.22-1.94v-5.27h3.74v4.75c2.2 0 4 .44 5.39 1.32a7.02 7.02 0 0 1 2.92 3.89l-3.47.94a4.04 4.04 0 0 0-1.74-2.24 5.5 5.5 0 0 0-3.1-.83v10h-4.8c.22.53.5 1 .84 1.4.95 1.14 2.32 1.71 4.12 1.71 2.38 0 4.03-1.19 4.96-3.56l3.44 1.29a8.2 8.2 0 0 1-3.26 4.03 9.6 9.6 0 0 1-5.14 1.32c-3.04 0-5.38-.85-7.03-2.55a8.37 8.37 0 0 1-2.04-3.65H26.6V82.82h3.74v14.74h6.1V82.82h.12V69.89h7.68c2.05 0 3.62.47 4.72 1.42a5 5 0 0 1 1.66 4.01zM46.3 97.56v-5.54l-.26.28c-.92 1.1-1.38 2.7-1.38 4.83v.43zm.73-22.18c0-1.8-1.06-2.7-3.18-2.7h-3.7v5.57h3.8c.98 0 1.74-.25 2.28-.74.53-.5.8-1.2.8-2.13z"/></defs><g transform="translate(-25 -68)"><use fill="#2b467b" xlink:href="#a"/></g></svg>