<svg xmlns="http://www.w3.org/2000/svg" xmlns:xlink="http://www.w3.org/1999/xlink" width="53" height="53" viewBox="0 0 53 53"><defs><path id="a" d="M1023.02 5983.38c.2 0 .37.17.37.37v8.37c0 .2-.16.36-.37.36h-4.56a.37.37 0 0 1-.38-.36v-8.37c0-.2.17-.37.38-.37zm-2.56.58c0 .15.12.27.28.27.15 0 .28-.12.28-.27a.28.28 0 0 0-.28-.27.28.28 0 0 0-.28.27zm.69 7.84a.39.39 0 0 0-.4-.38c-.21 0-.39.17-.39.38s.18.38.4.38c.2 0 .39-.17.39-.38zm1.78-7.08c0-.1-.09-.18-.2-.18h-3.99c-.1 0-.19.08-.19.18v6.1c0 .1.09.18.2.18h3.99c.1 0 .19-.08.19-.18zm15.74-4.54h7.35c.39 0 .72.14 1 .41.27.28.41.6.41.99v9.47c0 .38-.14.7-.41.98-.28.27-.61.4-1 .4h-7.35c-.39 0-.72-.13-1-.4-.27-.27-.41-.6-.41-.98v-9.47c0-.39.14-.71.41-.99.28-.27.61-.4 1-.4zm4.24 11.14a.53.53 0 0 0-.17-.39.54.54 0 0 0-.4-.16.54.54 0 0 0-.4.16.53.53 0 0 0-.16.4c0 .15.06.28.17.39.1.1.24.16.4.16.15 0 .28-.05.4-.16a.53.53 0 0 0 .16-.4zm3.1-10.02h-7.34a.27.27 0 0 0-.2.08.27.27 0 0 0-.08.2v8.35c0 .08.03.14.08.2.06.05.12.08.2.08h7.35c.08 0 .14-.03.2-.08a.27.27 0 0 0 .08-.2v-8.35a.27.27 0 0 0-.08-.2.27.27 0 0 0-.2-.08zm-12.73 8.7v-2.16h-1.22v-.2h1.4v2.9a.95.95 0 0 1-.18-.55zm-5.77.95l-1.6-3.31h.43l1.62 3.31h-.03zm2.37-3.11h-.41l-.07-.2h.41l.07.2zm-1.19-22.88c-.49-.28-.59-.28-.56-.94-.4-.06-.84-.19-.84-.83h5.33v-1.1c-.26-.03-.44-.3-.44-.52 0-.39.39-.57.72-.57.31 0 .7.16.7.55 0 .28-.2.52-.42.54v1.1l4.45 6.81h-.6l-3.85-5.94v3.56c.78 0 .7 1.03 0 1.01v.13l1.12 1.24h-.7l-.42-.46v.46h-.84v-.48l-.47.48h-.74l1.22-1.24v-.14c-.8 0-.78-1-.01-1v-.83h-1.4l-2.42 3.21h-.58l2.44-3.2h-3.1c.04-.22.19-.71.85-.84 0-.33.2-.86.56-1zm1.76 0l-.85.84.3.25.83-.81.84.83.28-.27-.84-.84.85-.83-.29-.27-.84.83-.84-.83-.29.28zm23.45 21.5c-.03.31-.22.52-.5.55l-2.26 8.03c-1.07 1.06-2.13 1.98-2.8 3.32-.52 1.38-.11 2.41.84 2.77l-.56 2.5h-15.1l.06 3.14c.97.29 1.67 1.1 1.67 2.06 0 1.2-1.08 2.17-2.41 2.17s-2.41-.97-2.41-2.17c0-.9.61-1.67 1.48-2l.08-3.2h-13.8c-.18-1.15-2.38-3.85-3.25-4.72l-1.96-2.21c-.82-.98-1.04-1.95-.57-3.05l-4.43-4.43.5-.55v-1.94H1004c.07-.62.37-.75.56-.83 0-.28.4-.64.85-.7-.37-.07-.82-.2-.85-.68-.28-.05-.56-.45-.56-.84h4.49v-1.1a.56.56 0 0 1-.43-.54c0-.36.29-.6.7-.6.37 0 .55.13.63.33h2.27a8.36 8.36 0 0 1 1.04-3.62h-1.13v-.56h1.97l3.92-3.5v-.65h-5.05c0-.7.38-.74.57-.83.03-.56.41-.72.84-.83-.49-.1-.77-.53-.84-.78-.33-.06-.57-.07-.57-.89h5.05v-1.1c-.14-.02-.4-.23-.4-.48-.01-.33.37-.56.69-.56.3-.01.69.22.68.56 0 .34-.3.45-.4.48v3.88h.85v.55h-.57v.65l.57.52v.68l-.57-.5v2.8h.57v.56h-.57v.8c.19 0 .4-.09.57-.2v4.21h-.56c-.37 0-.67.3-.67.65v8.5c0 .36.3.66.67.66h.29l-.07.05h2.3l-.03-.05h.37l.03.05h.8l-.03-.05h.34l.03.05h1.12l-.1-.2c.13-.1.21-.25.24-.42l.31.62h1.6l-1.9-3.96v-.85l.05.12.6-.49h.57l-1 .81 2.12 4.37h2.45l-.03-.05h.46l.03.05h3.19v-.05h1.4v.05h2.8l-.1-.3c.1-.09.18-.2.23-.33l.23.63h.77l-.33-.83h-.62l.01-.13-.01-.14h.53l-.32-.83h-.76l.07.17a.9.9 0 0 0-.4-.1l-1.26-3.32h.36l.29.75h.72l-.3-.75h.3l.31.75h.82l-.32-.75h.32l.2.45v.73l-.07-.15h-.84l.33.83h.58v.28h-.48l.34.83h.14v.28h-.04l.04.09v.09c0 .46.17.87.5 1.2l.03.02.2.52.96.01-.03-.06h.39l.02.06h.85l-.02-.05h.43l.15.33h.28c.01-.12.04-.23.08-.33h5.34a1.67 1.67 0 0 0 1.45-.78h3.51l.28-1.1h-3.52v-5.93l.16-.07-.16-.08v-3.36c0-.46-.17-.87-.5-1.2-.34-.33-.75-.5-1.22-.5h-2.87v-1.28c.77.14 2-.22 2.22-.6h-2.22v-.55h2.5v-2.22l-2.5 1.97v-.63l2.5-1.9h-2.5v-3.09l-.02-.23h2.52v-1.38c-.25-.03-.46-.2-.45-.56 0-.28.33-.5.73-.5.37.01.65.27.66.5 0 .24-.12.52-.38.56v4.58l3.65 2.9h1.97l-.01.54h-.76v5.9l1.03-.32.01.6c-.46.25-.62.4-1.04.71v3.09h1.32l.29-.85c-.18-.07-.34-.24-.3-.54.06-.45.4-.54.74-.53.28 0 .63.11.63.54zm-9.15-13.5l.85-.82-.29-.28-.84.83-.84-.82-.28.27.84.83-.84.83.3.26.82-.81.84.83.28-.28zm-9.39 16.54h.75l-.33-.83h-.73zm1.17 1.1l-.33-.82h-.73l.3.83zm-20.47-18.82l.85-.83-.29-.28-.84.83-.83-.83-.29.28.84.83-.84.83.3.25.82-.8.84.83.28-.28zm-8.95 13.43l.85-.83-.29-.28-.84.83-.84-.82-.28.27.84.83-.84.83.3.26.82-.81.84.83.28-.28zm6.15-7.06c.33.83 1.45.84 2.15-.01zm0 6.92h2.24c-.27-.89-2.26-.75-2.24 0zm2.24 1.1c-.42.26-1.04.48-1.96.38.15.67.55 1.79.99 2.6l2.26-2.46c-.4-.05-1-.1-1.29-.51zm-5.6 3.33l2.8-2.77.2-.24c-.5 0-1.69-.38-1.89-.89h-.28v-.53h2.25c-.4-.22-1.28-1.7-1.32-2.75h-2.27a.5.5 0 0 1-.34.26v6.03zm4.38-.05c-.33-.58-.9-1.88-1.1-2.62l-3.01 2.95 1.97 1.94zm.38 4.76h1.12v-1.41h.87c-.72-.81-1.65-2-2.18-2.96l-2.02 2.17zm2.13 3.79l-2.37-2.35c-.48.6.14 1.26.76 1.17 0 .7.74 1.42 1.6 1.18zm.4-11.08l-2.45 2.62c.8 1.5 1.75 2.48 2.16 3 .1.1.18.2.28.27zm.27-2.67c-.6.05-1.45.12-1.68.82h1.68zm0-6.1h-1.68c-.1.52 1.1 1.02 1.68.91zm0-3.38l-3.2 2.82h3.2zm4.22 22.48h-1.4v1.39h1.4zm0-1.38h1.4v-1.39h-1.4zm2.8 1.38h-1.4v1.39h1.4zm0-1.38h1.4v-1.39h-1.4zm2.8 1.38h-1.4v1.39h1.4zm0-1.38h1.41v-1.39h-1.4zm2.81 1.38h-1.4v1.39h1.4zm1.13-2.77h-1.4v1.39h1.4zm2.52 1.39h1.4v-1.39h-1.4zm2.8 1.38h-1.4v1.39h1.4zm.29-1.38h1.4v-1.39h-1.4zm2.8 1.38h-1.4v1.39h1.4zm0-1.38h1.4v-1.39h-1.4zm2.81 1.38h-1.4v1.39h1.4zm1.68-2.77h-1.4v1.39h1.4zm5.83-10.3c.6-.27.75-.25.91-.33v-5.97c-1.92 1.9-2.84 4.9-.91 6.3zm-3.58-6.86h2.8l-2.8-2.26zm3.37.55h-3.09c-.07.38 1.54 1.67 3.09 0zm-1.4 9.97h2.52v-2.9c-.76.56-2.16 2-2.53 2.9zm2.33 1.48l.85-.83-.3-.28-.84.83-.83-.83-.29.28.85.83-.85.83.3.25.82-.8.85.82.28-.27zm-24.58 2.54c0-.34.28-.62.63-.62h1.25c.68 0 1.24-.55 1.24-1.22v-1.84h3.75v1.84c0 .67.56 1.22 1.24 1.22h1.25c.35 0 .63.28.63.62 0 .34-.28.6-.63.6h-8.73a.62.62 0 0 1-.63-.6zm-5.5-8.9h-1.25v-11.2c0-.63.5-1.15 1.1-1.15h21.3c.6 0 1.09.52 1.09 1.15v8.02h-1.25v-7.94h-20.99zm16.42 4.46h-13.4v-1.22h13.4z"/></defs><g transform="translate(-1002 -5959)"><use fill="#a6b6c0" xlink:href="#a"/></g></svg>