<?xml version="1.0" encoding="UTF-8" standalone="no"?>
<!-- Created with Inkscape (http://www.inkscape.org/) -->

<svg
   xmlns:dc="http://purl.org/dc/elements/1.1/"
   xmlns:cc="http://creativecommons.org/ns#"
   xmlns:rdf="http://www.w3.org/1999/02/22-rdf-syntax-ns#"
   xmlns:svg="http://www.w3.org/2000/svg"
   xmlns="http://www.w3.org/2000/svg"
   xmlns:xlink="http://www.w3.org/1999/xlink"
   xmlns:sodipodi="http://sodipodi.sourceforge.net/DTD/sodipodi-0.dtd"
   xmlns:inkscape="http://www.inkscape.org/namespaces/inkscape"
   width="3.699831mm"
   height="3.7048819mm"
   viewBox="0 0 3.6998311 3.704882"
   version="1.1"
   id="svg8"
   inkscape:version="0.92.1 r15371"
   sodipodi:docname="phone-2.svg">
  <defs
     id="defs2">
    <path
       d="m 669.74,5321.75 c -0.5,-0.51 -1.13,-0.51 -1.64,0 l -1.15,1.14 c -0.1,0.1 -0.19,0.12 -0.31,0.06 -0.24,-0.14 -0.51,-0.25 -0.75,-0.4 -1.1,-0.7 -2.04,-1.59 -2.87,-2.6 -0.4,-0.51 -0.76,-1.04 -1.02,-1.65 -0.04,-0.13 -0.04,-0.2 0.07,-0.3 0.4,-0.36 0.76,-0.74 1.15,-1.12 0.53,-0.53 0.53,-1.14 0,-1.67 l -0.92,-0.91 c -0.32,-0.32 -0.61,-0.64 -0.93,-0.93 -0.5,-0.5 -1.13,-0.5 -1.64,0 l -1.14,1.14 c -0.37,0.36 -0.55,0.78 -0.6,1.27 -0.06,0.78 0.13,1.54 0.4,2.28 a 14.14,14.14 0 0 0 2.49,4.13 15.21,15.21 0 0 0 5.1,3.98 c 0.9,0.42 1.8,0.76 2.78,0.82 0.7,0.05 1.3,-0.14 1.78,-0.67 0.32,-0.39 0.7,-0.7 1.04,-1.06 0.51,-0.53 0.51,-1.16 0,-1.67 z"
       id="a"
       inkscape:connector-curvature="0" />
  </defs>
  <sodipodi:namedview
     id="base"
     pagecolor="#ffffff"
     bordercolor="#666666"
     borderopacity="1.0"
     inkscape:pageopacity="0.0"
     inkscape:pageshadow="2"
     inkscape:zoom="1.979899"
     inkscape:cx="131.92644"
     inkscape:cy="-13.483527"
     inkscape:document-units="mm"
     inkscape:current-layer="layer1"
     showgrid="false"
     inkscape:window-width="1366"
     inkscape:window-height="715"
     inkscape:window-x="-8"
     inkscape:window-y="-8"
     inkscape:window-maximized="1"
     fit-margin-top="0"
     fit-margin-left="0"
     fit-margin-right="0"
     fit-margin-bottom="0" />
  <metadata
     id="metadata5">
    <rdf:RDF>
      <cc:Work
         rdf:about="">
        <dc:format>image/svg+xml</dc:format>
        <dc:type
           rdf:resource="http://purl.org/dc/dcmitype/StillImage" />
        <dc:title></dc:title>
      </cc:Work>
    </rdf:RDF>
  </metadata>
  <g
     inkscape:label="Layer 1"
     inkscape:groupmode="layer"
     id="layer1"
     transform="translate(177.63135,-122.41631)">
    <path
       style="fill:#000000;stroke-width:0.26458335"
       d=""
       id="path21"
       inkscape:connector-curvature="0" />
    <g
       id="g43"
       transform="matrix(0.26458333,0,0,0.26458333,-351.72159,-1283.3136)">
      <use
         id="use41"
         xlink:href="#a"
         x="0"
         y="0"
         width="100%"
         height="100%" />
    </g>
  </g>
</svg>
