<svg xmlns="http://www.w3.org/2000/svg" xmlns:xlink="http://www.w3.org/1999/xlink" width="22" height="22" viewBox="0 0 22 22"><defs><path id="a" d="M192 4520a10 10 0 1 1-20 0 10 10 0 0 1 20 0zm-5.04-.04c.37-.52.77-1.01 1.14-1.53.35-.48.7-.96.89-1.53.11-.37.01-.53-.36-.6a1.17 1.17 0 0 0-.2 0l-2.23-.01c-.28 0-.43.11-.52.36-.14.33-.27.65-.43.97a8 8 0 0 1-1.3 2c-.12.14-.26.3-.46.23-.26-.09-.33-.51-.33-.65v-2.58c-.05-.36-.13-.53-.5-.6h-2.31c-.31 0-.47.12-.63.31-.1.11-.12.19.07.22.38.08.6.33.66.71.1.62.08 1.24.03 1.85-.01.18-.05.36-.12.53-.1.27-.29.32-.53.16a2.14 2.14 0 0 1-.51-.57c-.56-.78-1-1.63-1.36-2.52-.1-.25-.28-.4-.56-.41a56.5 56.5 0 0 0-2 0c-.4 0-.53.2-.36.57.73 1.62 1.54 3.19 2.6 4.62a5.25 5.25 0 0 0 4.9 2.48c.48-.02.63-.15.65-.63.02-.33.06-.66.22-.96.16-.29.4-.34.68-.16.14.09.26.2.37.33.27.3.53.6.82.9.35.35.77.57 1.3.52h2.05c.33-.02.5-.42.31-.8a3.9 3.9 0 0 0-.49-.7c-.42-.5-.91-.93-1.38-1.39-.42-.4-.44-.65-.1-1.12z"/></defs><g transform="translate(-171 -4509)"><use fill="#4f7ca3" xlink:href="#a"/></g></svg>