<svg xmlns="http://www.w3.org/2000/svg" xmlns:xlink="http://www.w3.org/1999/xlink" width="43" height="43" viewBox="0 0 43 43"><defs><path id="a" d="M897.67 5548.86a4.8 4.8 0 0 0 4.85-4.75c0-.72 0-1.12-.3-1.74h5.56v5.63c0 2.75-2.29 5-5.1 5h-10.22a5.06 5.06 0 0 1-5.1-5v-5.63h5.78c-.3.62-.31 1.02-.31 1.75a4.8 4.8 0 0 0 4.84 4.75zm6.84-10.25v-1.72c0-.3-.25-.55-.56-.55h-1.76a.56.56 0 0 0-.56.55v1.71c0 .31.25.56.56.56h1.76c.3 0 .56-.25.56-.56zm-1.83-5.61c2.81 0 5.1 2.38 5.1 5.31v2.38h-6.28c-.8-.59-1.1-1.59-3.93-1.59-2.84 0-2.96 1-3.75 1.6h-6.46v-2.39a5.22 5.22 0 0 1 5.1-5.31zm-5 13.09a2 2 0 0 1-1.94-1.9 2 2 0 0 1 1.94-2.05 2 2 0 0 1 2 1.98 2 2 0 0 1-2 1.97zm-.11 16.91c-11.26 0-20.42-8.97-20.42-20s9.16-20 20.42-20c11.26 0 20.42 8.97 20.42 20s-9.16 20-20.42 20zm0-38.46c-10.4 0-18.85 8.28-18.85 18.46 0 10.18 8.45 18.46 18.85 18.46 10.4 0 18.85-8.28 18.85-18.46 0-10.18-8.45-18.46-18.85-18.46z"/></defs><g transform="translate(-876 -5521)"><use fill="#042e6f" xlink:href="#a"/></g></svg>