<svg xmlns="http://www.w3.org/2000/svg" xmlns:xlink="http://www.w3.org/1999/xlink" width="44" height="43" viewBox="0 0 44 43"><defs><path id="a" d="M705.98 5543.55c.71.7 1.08 1.6 1.08 2.73a4.36 4.36 0 0 1-2.06 3.8c-.74.5-1.57.86-2.45 1.06-.89.22-2.02.32-3.38.32h-7.83v-16.92h6.92c1.52 0 3.1.04 3.8.14.72.1 1.42.3 2.09.6a3.6 3.6 0 0 1 1.6 1.3c.34.56.52 1.19.52 1.89.01.78-.24 1.54-.72 2.16a4.64 4.64 0 0 1-2.04 1.47v.08c1.24.23 1.74.68 2.47 1.37zm-9.92-2.32h2.48c.67 0 1.2-.12 1.62-.37.41-.25.62-.7.62-1.33 0-.7-.28-1.16-.82-1.39a5.82 5.82 0 0 0-1.8-.24h-2.1zm5.37 4.72c0-.79-.32-1.33-.97-1.62a3.91 3.91 0 0 0-1.53-.26h-2.87v4.03h2.82c.67 0 1.18-.1 1.55-.27.67-.33 1-.95 1-1.88zm17.4-2.95c0 11.03-9.15 20-20.42 20-11.26 0-20.42-8.97-20.42-20s9.16-20 20.42-20c11.27 0 20.43 8.97 20.43 20zm-1.56 0c0-10.18-8.46-18.46-18.86-18.46-10.39 0-18.85 8.28-18.85 18.46 0 10.18 8.46 18.46 18.85 18.46 10.4 0 18.86-8.28 18.86-18.46z"/></defs><g transform="translate(-676 -5521)"><use fill="#042e6f" xlink:href="#a"/></g></svg>