<svg xmlns="http://www.w3.org/2000/svg" xmlns:xlink="http://www.w3.org/1999/xlink" width="44" height="43" viewBox="0 0 44 43"><defs><path id="a" d="M831.19 5563c-11.27 0-20.43-8.97-20.43-20s9.16-20 20.43-20c11.26 0 20.43 8.97 20.43 20s-9.17 20-20.43 20zm0-38.46c-10.4 0-18.86 8.28-18.86 18.46 0 10.18 8.46 18.46 18.86 18.46 10.4 0 18.86-8.28 18.86-18.46 0-10.18-8.46-18.46-18.86-18.46zm9.95 23.55c0 2.09-.12 3.65-.36 4.69-.13.52-.4.97-.8 1.32-.4.36-.88.56-1.41.62-1.7.19-4.26.28-7.68.28-3.43 0-5.99-.1-7.69-.28a2.5 2.5 0 0 1-1.42-.62c-.4-.35-.67-.8-.8-1.32a22 22 0 0 1-.35-4.69c0-2.09.12-3.65.36-4.69a2.56 2.56 0 0 1 2.23-1.96c1.69-.17 4.24-.26 7.67-.26 3.42 0 5.98.09 7.68.27a2.58 2.58 0 0 1 2.21 1.95c.24 1 .36 2.56.36 4.69zm-14.66-4.6h-4.31v1.26h1.45v7.63H825v-7.63h1.48zm3.74 2.27H829v5.06c-.28.38-.54.56-.79.56-.17 0-.26-.09-.29-.28l-.01-.47v-4.87h-1.24v5.24c0 .43.04.76.11.97.12.33.38.5.8.5.45 0 .92-.27 1.42-.82v.73h1.23zm4.7 2c0-.66-.03-1.1-.12-1.33-.15-.5-.48-.75-.98-.75-.46 0-.89.24-1.29.72v-2.9h-1.23v8.88h1.23v-.65c.42.5.85.74 1.3.74.49 0 .82-.25.97-.74.09-.24.13-.68.13-1.34zm4.69 1.53v-1.37c0-.71-.13-1.23-.38-1.56a1.77 1.77 0 0 0-1.46-.68c-.63 0-1.13.23-1.49.68-.25.33-.38.85-.38 1.56v2.31c0 .7.13 1.23.4 1.56.36.45.86.68 1.5.68.66 0 1.16-.24 1.49-.71.16-.24.26-.48.29-.72.02-.08.03-.34.03-.78v-.17h-1.26c0 .45-.01.72-.03.81-.06.32-.25.48-.55.48-.43 0-.64-.3-.64-.92v-1.17zm-5.91-1.63v2.83c0 .6-.18.9-.54.9-.22 0-.42-.1-.63-.3v-4.03c.2-.2.41-.3.63-.3.36 0 .54.3.54.9zm4.68.01v.62h-1.25v-.62c0-.6.2-.9.62-.9s.63.3.63.9zm-13.54-14.17l-.9-2.5h1.46l.99 3.52.94-3.52h1.41l-1.67 5.34v3.63h-1.39v-3.63c-.13-.66-.4-1.6-.84-2.84zm4.3 5.88c-.26-.34-.39-.86-.39-1.58v-2.34c0-.71.13-1.24.4-1.57.34-.45.83-.68 1.45-.68.63 0 1.12.23 1.46.68.26.33.39.86.39 1.57v2.34c0 .73-.13 1.25-.39 1.58-.34.46-.83.69-1.46.69-.62 0-1.1-.23-1.46-.69zm.86-1.35c0 .63.2.94.6.94.4 0 .6-.31.6-.94v-2.81c0-.62-.2-.93-.6-.93-.4 0-.6.31-.6.93zm3.59 1.54a3.32 3.32 0 0 1-.12-1v-5.28h1.26v4.92c0 .29 0 .45.02.46.03.2.12.3.29.3.25 0 .51-.2.79-.58v-5.1h1.26v6.68h-1.26v-.73c-.5.55-.97.83-1.43.83-.42 0-.7-.17-.81-.5z"/></defs><g transform="translate(-809 -5521)"><use fill="#042e6f" xlink:href="#a"/></g></svg>