<svg xmlns="http://www.w3.org/2000/svg" xmlns:xlink="http://www.w3.org/1999/xlink" width="93" height="82" viewBox="0 0 93 82"><defs><path id="vhp3a" d="M995.37 2069h-69.74a11.67 11.67 0 0 1-11.63-11.71v-46.86c0-6.47 5.2-11.72 11.63-11.72h8.71l2.91-5.85c1.54-3.07 2.6-5.86 5.81-5.86h34.88c3.2 0 4.1 2.45 5.81 5.86l2.9 5.85h8.72c6.43 0 11.63 5.25 11.63 11.72v46.86c0 6.47-5.2 11.71-11.63 11.71zm5.82-58.57c0-3.24-2.6-5.86-5.82-5.86h-11.62l-2.9-5.86c-2.06-3.4-2.6-5.85-5.82-5.85h-29.06c-3.21 0-3.76 2.45-5.81 5.85l-2.91 5.86h-11.62a5.84 5.84 0 0 0-5.82 5.86v46.86c0 3.23 2.6 5.85 5.82 5.85h69.74a5.84 5.84 0 0 0 5.82-5.85zm-40.69 46.86a23.34 23.34 0 0 1-23.25-23.43 23.34 23.34 0 0 1 23.25-23.43 23.34 23.34 0 0 1 23.25 23.43 23.34 23.34 0 0 1-23.25 23.43zm0-41a17.5 17.5 0 0 0-17.44 17.57c0 9.7 7.8 17.57 17.44 17.57a17.5 17.5 0 0 0 17.44-17.57c0-9.7-7.81-17.57-17.44-17.57z"/></defs><g><g transform="translate(-914 -1987)"><use fill="#7682cc" xlink:href="#vhp3a"/></g></g></svg>