<svg xmlns="http://www.w3.org/2000/svg" width="134" height="128" viewBox="0 0 134 128"><path d="M8.45 64.22H2.99a3 3 0 0 0 0 6h5.46a3 3 0 0 0 0-6zM39.9 93.53a3 3 0 0 0 2.98 3.27h5.76a3 3 0 0 0 0-6h-2.14c2.31-7.5 10.14-13.87 20.61-16.48 10.48 2.61 18.3 8.97 20.61 16.48H85.6a3 3 0 0 0 0 6h5.76a2.99 2.99 0 0 0 2.98-3.27c-.52-5.92-3.42-11.47-8.4-16.04-4.72-4.35-11-7.53-18.13-9.18-.45-.1-.9-.1-1.35 0-7.14 1.65-13.42 4.83-18.14 9.18-4.97 4.57-7.88 10.12-8.4 16.04zm68.5-64.85c.76 0 1.52-.3 2.1-.88l3.87-3.87a3 3 0 0 0 0-4.24 2.98 2.98 0 0 0-4.23 0l-3.86 3.87a3 3 0 0 0 2.11 5.12zM67 11.48a3 3 0 0 0 2.99-3V3a3 3 0 1 0-5.98 0v5.48a3 3 0 0 0 2.99 3zM23.48 27.8a2.98 2.98 0 0 0 4.23 0 3 3 0 0 0 0-4.24l-3.86-3.87a2.98 2.98 0 0 0-4.23 0 3 3 0 0 0 0 4.24zm36.73 88.42a3 3 0 0 0-3 3V122H35.7a7.09 7.09 0 0 1 0-14.18h21.37a3 3 0 0 0 0-6H35.7a13.09 13.09 0 0 0 0 26.18H60.2a3 3 0 0 0 2.99-3v-5.78a3 3 0 0 0-3-3zm70.8-52h-5.46a3 3 0 0 0 0 6h5.46a3 3 0 0 0 0-6zM67 18.97c-26.95 0-48.87 22-48.87 49.03 0 9.42 2.67 18.58 7.72 26.47a2.98 2.98 0 0 0 4.13.9 3 3 0 0 0 .9-4.14A42.98 42.98 0 0 1 24.11 68c0-23.72 19.24-43.03 42.89-43.03 23.65 0 42.89 19.3 42.89 43.03 0 8.27-2.34 16.3-6.77 23.23a3 3 0 0 0 .9 4.14c1.38.9 3.23.5 4.13-.9A48.98 48.98 0 0 0 115.87 68c0-27.03-21.92-49.03-48.87-49.03zm.12 43.48a3 3 0 0 0 .91-.14 14.56 14.56 0 0 0 10.14-13.93c0-6.4-4.07-12-10.14-13.93a2.98 2.98 0 0 0-1.82 0 14.56 14.56 0 0 0-10.14 13.93c0 6.4 4.08 12 10.14 13.93.3.1.6.14.91.14zm-5.07-14.07c0-3.44 2-6.5 5.07-7.87a8.59 8.59 0 0 1 5.07 7.87c0 3.44-2 6.5-5.07 7.87a8.59 8.59 0 0 1-5.07-7.87zm36.5 53.43H77.19a3 3 0 0 0 0 6h21.38a7.09 7.09 0 0 1 0 14.19H77.03v-2.78a3 3 0 1 0-5.98 0V125a3 3 0 0 0 2.99 3h24.52a13.09 13.09 0 0 0 0-26.19zM70.12 83.58v21.23a3 3 0 1 1-5.98 0V83.58a3 3 0 1 1 5.98 0z"/><path fill="#fff" d="M8.45 64.22H2.99a3 3 0 0 0 0 6h5.46a3 3 0 0 0 0-6zM39.9 93.53a3 3 0 0 0 2.98 3.27h5.76a3 3 0 0 0 0-6h-2.14c2.31-7.5 10.14-13.87 20.61-16.48 10.48 2.61 18.3 8.97 20.61 16.48H85.6a3 3 0 0 0 0 6h5.76a2.99 2.99 0 0 0 2.98-3.27c-.52-5.92-3.42-11.47-8.4-16.04-4.72-4.35-11-7.53-18.13-9.18-.45-.1-.9-.1-1.35 0-7.14 1.65-13.42 4.83-18.14 9.18-4.97 4.57-7.88 10.12-8.4 16.04zm68.5-64.85c.76 0 1.52-.3 2.1-.88l3.87-3.87a3 3 0 0 0 0-4.24 2.98 2.98 0 0 0-4.23 0l-3.86 3.87a3 3 0 0 0 2.11 5.12zM67 11.48a3 3 0 0 0 2.99-3V3a3 3 0 1 0-5.98 0v5.48a3 3 0 0 0 2.99 3zM23.48 27.8a2.98 2.98 0 0 0 4.23 0 3 3 0 0 0 0-4.24l-3.86-3.87a2.98 2.98 0 0 0-4.23 0 3 3 0 0 0 0 4.24zm36.73 88.42a3 3 0 0 0-3 3V122H35.7a7.09 7.09 0 0 1 0-14.18h21.37a3 3 0 0 0 0-6H35.7a13.09 13.09 0 0 0 0 26.18H60.2a3 3 0 0 0 2.99-3v-5.78a3 3 0 0 0-3-3zm70.8-52h-5.46a3 3 0 0 0 0 6h5.46a3 3 0 0 0 0-6zM67 18.97c-26.95 0-48.87 22-48.87 49.03 0 9.42 2.67 18.58 7.72 26.47a2.98 2.98 0 0 0 4.13.9 3 3 0 0 0 .9-4.14A42.98 42.98 0 0 1 24.11 68c0-23.72 19.24-43.03 42.89-43.03 23.65 0 42.89 19.3 42.89 43.03 0 8.27-2.34 16.3-6.77 23.23a3 3 0 0 0 .9 4.14c1.38.9 3.23.5 4.13-.9A48.98 48.98 0 0 0 115.87 68c0-27.03-21.92-49.03-48.87-49.03zm.12 43.48a3 3 0 0 0 .91-.14 14.56 14.56 0 0 0 10.14-13.93c0-6.4-4.07-12-10.14-13.93a2.98 2.98 0 0 0-1.82 0 14.56 14.56 0 0 0-10.14 13.93c0 6.4 4.08 12 10.14 13.93.3.1.6.14.91.14zm-5.07-14.07c0-3.44 2-6.5 5.07-7.87a8.59 8.59 0 0 1 5.07 7.87c0 3.44-2 6.5-5.07 7.87a8.59 8.59 0 0 1-5.07-7.87zm36.5 53.43H77.19a3 3 0 0 0 0 6h21.38a7.09 7.09 0 0 1 0 14.19H77.03v-2.78a3 3 0 1 0-5.98 0V125a3 3 0 0 0 2.99 3h24.52a13.09 13.09 0 0 0 0-26.19zM70.12 83.58v21.23a3 3 0 1 1-5.98 0V83.58a3 3 0 1 1 5.98 0z"/></svg>