<svg xmlns="http://www.w3.org/2000/svg" xmlns:xlink="http://www.w3.org/1999/xlink" width="404.045" height="404.044" viewBox="0 0 404.045 404.044"><defs><circle id="a" cx="202.022" cy="202.022" r="201.522"/></defs><clipPath id="b"><use xlink:href="#a" overflow="visible"/></clipPath><g clip-path="url(#b)" fill="none" stroke="#000" stroke-width=".5" stroke-miterlimit="10"><path d="M176.804 305.294l69.334.542 18.333-.542m-87.667-16.749h87.667m-87.667-17.167h87.667m-87.667-16.333l69.334-1.333 18.333 1.333m-87.667-16.5l69.334-2.333 18.333 2.333m-87.667-16.5l69.334-3.167 18.333 2.416m-87.667-15.25l69.334-5.084 18.333 4.085m-87.667-16.333l69.334-4.5 18.333 3.5m-87.667-15.828l69.334-5.506 18.333 4.986m-87.667-14.57l69.334-7.25 18.333 4.758m-87.667-15.257l69.334-8.251 18.333 6.251M91.225 303.378l26.031.834 33.215-.834m-59.246-14.833h59.246m-59.246-16h26.031l33.215 1m-59.246-16.5h26.031l33.215 1.333m-59.246-16.333l26.031-1.167 33.215 2m-59.246-16.166l26.031-1.584 33.215 2.917m-59.246-17.084l26.031-2.25 33.215 4.5m-59.246-17.65l26.031-2.267m-26.031-13.75l26.031-2.5m-26.031-12.5l26.031-2.167m-26.031-13.566l26.031-2.601m-98.033 10.584l22.748-2.188m-22.748 16.758l22.748-1.654m-22.748 16l22.748-1.833m-22.748 16.667l22.748-2m-22.748 16.833l22.748-1.333 34.841 3.5m-57.589 12.185l22.748-.685 34.841 2.254M19.223 244.71l22.748-.833 34.841 1.833m-57.589 13.334l22.748-.666 34.841 1.332m-57.589 13.835l22.748-.5 34.841.5m-57.589 14.948l22.748.052h34.841m-57.589 14.833l22.748.834 34.841-1.668m-65.007-82.242l-34.239-2.758m34.239 16.623l-35.333-2.136m35.333 15.68l-33.167-1.167m33.167 14.667l-38.5-1.501m61.5 13.335v-14.482m-7.997.259v-14.384m0 44.055v-14.948m7.997-29.668V229.26m-7.997.469v-14.855m7.997-.41v-15.392m-7.996.805v-14.778m7.996-.342v-14.22m-7.997 0v-14.423m7.997-.818v-8.315m64.5.53v-7.914m9 7.384v16.127m-9 .763v14.423m9-.647v16.354m-9 .856v15.348m9-.721v15.644m-9 .583v15.904m9-.336v15.766m-8.166 0v15.5m8.166.5v15.448m18.167.052v-15.728m7.391.228v-15.333m-7.391-.667v-15.43m14.669 16.388v-15.696m-7.278-.692v-15.028m-7.391-.876v-16.227m14.669 17.103v-14.772m6.998 61.002v-14.546m-6.998 14.546v15.676m-7.278.052v15.25m14.276-15.25v13.999m-6.998 1.251v17.356m44.993 2.168v-17.483m20.838 18.375v-18.664m21.501 19.812v-19.651m10.832 0v-17.163m-21.833 17.291v-17.291m-21.501 16.898v-16.898m-9.837-.052v-17.115m20.838 17.167v-17.167m21.501 17.115v-17.115m25.332 17.167v-17.167m6 0v-16.673m0 50.589v-16.749m-6 16.898v18.949m-14.5-53.014v-17.557m-21.833 17.557v-17.135m-21.501 17.135v-16.725m-9.837.052v-16.502m20.838 15.618v-16.319m21.501 16.741v-17.436m10.832-.239v-17.367m-21.833 17.606v-16.658m-20.833 18.054v-16.909m-10.505 0v-15.848m20.838 15.016v-16.418m21.501 15.157v-16.67m10.832-1.07v-16.806m-21.833 18.406v-17.194m-21.501 18.772v-17.331m11.001-.554v-17.385m-10.333.94v-15.703m-10.505 33.5v-17.023m42.339 13.711V167.78m10.832-.859v-16.662m-21.833 18.395v-16.235m11.001-1.027v-18.681m10.832-1.105v-10.311m-21.833 12.91v-10.199m-20.833 12.678v-10.089M186.134 155.7v-17.844m20.838 15.784v-18.096M91.225 116.711l47.58-6.667m-47.58-9.345l47.58-6.405m-47.58-8.813l47.58-6.937m-47.58-7.875l47.58-8.25m-47.58-7.484l47.58-9.016m-47.58-6.75l47.58-8.485m-47.58-7.14l47.58-9.688m-2.087.425v16.822M118.895 17.91v16.207m-18.521-12.436v15.973m9.096-1.739V51.56m18.202-18.891v15.396m-8.777 2.362v15.549m8.777-1.627v15.818M109.47 67.505v15.316m-9.096-29.62v15.882m0 15.064v15.234m18.521-17.934v15.347m8.777-1.001v15.811M109.47 98.243v15.911m-90.247 12.723l22.748-3.333m-23.25-11.375l23.25-3.375M19.223 97.497l22.748-3.203M19.223 82.821l22.748-4.277M24.335 81.86v14.934m8.761-1.25v14.425m-8.761 1.635v14.524m-5.112.749v6.388m-2.627-6.388v6.388m16.5-8.42v6.588m8.875-7.889v6.166m7.511-7.208v6.845m15.989-8.744v6.274m17.369-9.003v6.971m9.006-8.134v7.028m8.528-8.31v7.073m18.521-9.668v7.294m19.91-10.084v7.353m17.427-9.504v7.21m19.744-9.647v7.107m1.996-8.166l68.166-8.604 18.333 6.001m-25.166-5.139v7.541m-21.591-4.815v7.583m-21.075-4.923v7.79m-18.667-21.287l68.166-10 18.333 7.262m-86.499-13.548l68.749-11.116 17.75 8.097m-86.499-13.372l68.166-12.13 18.333 8.805m-86.499-13.696l68.749-12.832 17.75 9.376m-86.499-12.698l68.166-13.648 18.333 10.375M177.972 5.794l61.333-13.5m-21.591 22.441V-.176m-21.23 19.161V1.699m31.987 27.721V12.503m10.834-2.091V.5m0 44.453V27.192m-21.591 21.603V31.22m-21.053 21.322V35.39m-10.376 1.904V20.962m20.643 12.478V16.82m-20.794 54.118v-16.71m20.794 13.348v-16.87m21.543 13.387V46.788m10.834 32.758V62.13m-21.591 20.691V65.832m-21.075 19.974V69.239m-10.354 33.934V87.151m20.643 13.591V84.147m21.545 14.096V81.447m32.175-30.741V33.44m-6.847-3.686V13.402m6.847 3.853V5.456m-6.847 41.962v16.675m6.847 3.256v16.798m-7.181-2.7v16.796m44.504-59.824l20.5 12.287m-20.5 4.337l20.5 10.251m-20.5 4.416l20.5 10.584m-20.5 4.75l20.5 9.25m-20.5 7.249l20.5 8.501m-20.5 6l20.5 8.833m-6.754-2.91v-14.726m-5.449-2.258V89.026m5.449 2.221V76.642m-5.449-2.832V59.192m5.449 2.725V46.658m-5.449-3.266v-14.87m-8.297-5.064l20.5 12.336m27 99.75l13.344 5.166m-13.344-18.743l13.344 5.577m-13.344-19.5l13.344 5.802m-13.344-19.552l13.344 7.249m-13.344-21.249l13.344 7.625m-13.344-21.418l13.344 7.309m-9.931-5.44l-.088 13.824m4.988 2.85l-.099 13.712m-4.845-2.963l-.044 14.251m4.217 1.279l-.035 13.781m20.993 22.19l9.167 3.75m-9.167-16.5l12.863 5m-12.863-17.577l12.863 5.577m-12.863-18.625l12.863 5.685m-12.863-18.811l12.863 6.001m-9.794 21.504v12.439m3.362 1.307v12.582m2.736 125.918h24.708m-24.708-11.667h22.083m-22.083-12.958l24.708-.75m-24.708-11.625l27.583-1.125m-27.583-11.5l30.708-1.25m-30.708-10.448l28.708-1.593m-28.708-10.666l26.958-.793m-26.958-12.457l25.458-.668m-25.458-11.75l27.583-1.125m-12.229 12.875v13.918m-9.021-13.25l.005-12.677m-.005 37.834v-11.847m9.021 23.897v-12.551m-9.016 24.917v-12.649m-.505 38.241v-12.958m8.786-.75v-11.884m-53.261-74.407l14.319 3.916m-14.319 37.556l14.319 2.944m-14.319-17l14.319 3.615m-14.319-15.99l14.319 4.25m0 38.125l-14.319-2.416m0 14.733l14.319 1.523m-14.319 11.66l14.319 1m-14.319 12.875l14.319.75m-14.319 12.875l14.319.375m-14.319 13.876h14.319m-14.319 13.749l14.319-.625m-9.288 12.875v-12.5m3.944-.375v-13.124m-5.125 0v-13.876m5.125-.141v-13.265m-4.625 0v-14.118m4.625.276v-13.049m-5.125-.352v-13.934m5.034.291v-13.555m-5.034-.68v-13.518m.969-12.274v-15.139m5.416 28.667V182.22"/></g><use xlink:href="#a" overflow="visible" fill="none" stroke="#000" stroke-miterlimit="10"/></svg>