<svg width="87" height="31" viewBox="0 0 87 31" xmlns="http://www.w3.org/2000/svg" xmlns:xlink="http://www.w3.org/1999/xlink"><title>8CF2ECEE-0E5F-490C-8095-5866EC76C585</title><defs><path id="a" d="M43.08 13.278V.633H.084v12.645h42.998z"/><path id="c" d="M15.363 21.267H0V.48h15.363v20.787z"/><path id="e" d="M.153 21.267h14.755V.48H.153z"/></defs><g fill="none" fill-rule="evenodd"><rect fill="#FFF" width="87" height="31" rx="4"/><g transform="translate(37.429 11.12)"><mask id="b" fill="#fff"><use xlink:href="#a"/></mask><path d="M35.336.862V9.72h2.26V2.723h3.225V9.72h2.26V.862h-7.745zM26.1 9.72h2.26V2.723h3.223V9.72h2.262V.862H26.1V9.72zm-5.405-2.337h-.035L18.817.863h-2.534l3.175 9.22c-.208 1.218-.657 1.334-1.49 1.334-.194 0-.337-.017-.433-.033v1.861c.32.015.72.033 1.026.033 1.97 0 2.356-.842 3.336-3.723L24.863.862h-2.405l-1.763 6.521zm-9.466.657c-1.458 0-1.875-1.63-1.875-2.682 0-1.4.497-2.717 1.94-2.717 1.556 0 1.94 1.433 1.94 2.849 0 1.315-.561 2.55-2.005 2.55zm.724-7.407c-1.524 0-2.15.823-2.567 1.514h-.032V.862H7.171v12.416h2.262v-4.71l.05.016c.272.478.834 1.368 2.42 1.368 2.567 0 3.657-2.306 3.657-4.727 0-3.063-1.7-4.592-3.607-4.592zM.083 9.72h2.262V2.723h3.593V.863H.083V9.72z" fill="#000" mask="url(#b)"/></g><g transform="translate(6 5.254)"><mask id="d" fill="#fff"><use xlink:href="#c"/></mask><path d="M9.814 7.106h-1.9s-4.334-.272-6.72 4.766h8.62c3.065 0 5.55-2.551 5.55-5.697 0-2.318-1.369-4.365-3.369-5.242.759 1.028 1.047 1.98 1.047 2.86 0 1.83-1.445 3.313-3.228 3.313m0-6.626H0v4.76h10.862c1.342-1.14.645-3.336-1.048-4.76M0 18.908v2.359h5.527v-7.92H.699C.06 15.827 0 18.907 0 18.907" fill="#8DC63F" mask="url(#d)"/></g><g transform="translate(20.286 5.254)"><mask id="f" fill="#fff"><use xlink:href="#e"/></mask><path d="M11.974.48H1.696v4.765h13.212L11.974.48zM.154 21.267h6.585l7.416-14.542H7.57L.153 21.267z" fill="#000" mask="url(#f)"/></g></g></svg>