<svg xmlns="http://www.w3.org/2000/svg" width="162.182" height="46.745" viewBox="0 0 162.182 46.745"><title>BFFC3C2D-3EE0-47F7-84EA-14D4217ED181</title><path fill="#B01116" d="M151.609 19.615s2.532 2.235 5.291 1.784c2.772-.445 5.282-2.568 5.282-2.568s-3.787-3.333-6.965-2.202c-2.601.932-3.608 2.986-3.608 2.986m-.315-2.766s4.742-.921 6.638-4.457c1.903-3.534 1.685-8.241 1.685-8.241s-7.096 1.404-8.579 5.998c-1.208 3.766.256 6.7.256 6.7"/><g fill="#FFF"><path d="M9.254 23.316s-6-1.113-8.51 2.652c-2.536 3.803 1.761 6.783 7.561 5.357 3.729-.918 13.473-5.225 20.135-19.091 3.449-7.177 6.27-7.576 9.783-7.559 3.514.019-3.178-3.387-8.615.675-5.507 4.116-9.234 9.599-13.714 16.804-4.046 6.507-10.853 7.141-10.369 4.769.623-3.047 5.123-2.916 3.729-3.607"/><path d="M24.588 17.042s6.222.183 8.902-3.563c4.117-5.752-7.349-10.217-15.661-6.53-9.505 4.217-10.707 12.561-6.396 12.832 4.31.269 7.238-4.51 6.641-7.438-.473-2.32.989-.538.868 1.851-.151 2.969-4.856 10.366-10.595 6.363C1.626 15.868 11.758 5.563 20.31 3.719 34.207.717 42.064 9.261 39.613 13.563c-4.434 7.788-16.878 4.935-16.878 4.935l1.853-1.456z"/><path d="M22.969 18.752s10.621-2.03 9.061 3.098c-1.563 5.125-3.808 7.37-1.224 7.543 3.761.254 5.314-2.794 5.561-1.413.275 1.534-2.88 5.168-7.846 4.112-4.968-1.057-4.595-4.182-2.564-7.209 1.823-2.716 3.991-5.331.328-5.457-3.664-.125-3.316-.674-3.316-.674m-5.378-5.49s.098-1.221-.635-1.923c-.733-.704-1.896-.969-1.896-.969s-.139 1.825.882 2.497c.834.552 1.649.395 1.649.395m24.221 10.975c.186-.09 5.9-1.243 7.929-3.962 1.371-1.84-.207-2.777-2.834-1.479-2.478 1.224-6.659 6.056-4.756 8.964 1.828 2.794 7.546 1.364 11.553-2.138 4.006-3.501 6.315-6.316 6.315-6.316l.599.369s-7.396 10.393-14.749 11.586c-7.354 1.193-8.441-3.684-7.776-6.446.862-3.572 5.609-8.983 11.186-8.689 5.578.297 6.867 4.702 1.106 7.007-5.483 2.193-9.403 2.166-9.403 2.166l.83-1.062zm90.362 0c.185-.09 5.901-1.243 7.929-3.962 1.372-1.84-.206-2.777-2.835-1.479-2.477 1.224-6.657 6.056-4.755 8.964 1.828 2.794 7.547 1.364 11.554-2.138 4.005-3.501 6.766-7.643 6.313-6.316-.719 2.12-6.146 10.665-14.149 11.955-7.355 1.185-8.44-3.684-7.776-6.446.863-3.572 5.611-8.983 11.186-8.689 5.578.297 6.868 4.702 1.107 7.007-5.484 2.193-9.403 2.166-9.403 2.166l.829-1.062zM82.076 3.994s-4.724-1.848-7.472 3.985c-3.216 6.827-8.098 14.261-9.322 17.211-1.146 2.764-.366 6.84 2.808 6.204 4.72-.945 6.385-3.6 7.947-5.844.66-.949 3.379-6.795-1.672-.538-.722.893-5.019 4.72-5.916 2.688-.896-2.031 6.757-13.076 9.441-16.493 2.067-2.627 4.186-7.213 4.186-7.213"/><path d="M136.373 5.447s-4.723-1.848-7.472 3.985c-3.216 6.827-8.098 14.26-9.323 17.211-1.145 2.764-.366 6.84 2.808 6.204 4.721-.945 6.385-3.6 7.948-5.845.661-.948 3.379-6.794-1.672-.537-.722.893-5.019 4.72-5.917 2.688-.895-2.032 6.757-13.076 9.442-16.493 2.067-2.628 4.186-7.213 4.186-7.213M68.249 23.782S62.353 34.573 56.06 30.48c-4.59-2.984-.957-9.261 3.824-12.069 4.78-2.81 9.404-2.137 9.442 1.373.036 3.514-1.661 3.406-1.661 3.406s2.378-4.871-2.043-4.691c-4.422.179-10.132 6.542-7.231 8.815 3.169 2.485 9.098-2.879 9.858-3.532"/><path d="M123.264 23.782s-5.897 10.791-12.19 6.698c-4.59-2.984-.956-9.261 3.824-12.069 4.781-2.81 9.404-2.137 9.442 1.373.036 3.514-1.66 3.406-1.66 3.406s2.378-4.871-2.043-4.691c-4.423.179-10.133 6.542-7.232 8.815 3.168 2.485 9.097-2.879 9.859-3.532m-47.252-2.389c-2.281 4.275 2.024 9.366 8.598 10.012 5.285.518 12.252-4.066 12.634-12.154.372-7.884.817-14.926 5.242-15.773 5.484-1.048 3.957 4.144 2.282 5.866-1.675 1.721 2.171 1.66 4.591-.827 2.419-2.486 2.547-8.952-6.129-8.494-9.539.503-11.627 8.411-12.032 17.29-.366 7.94-4.394 11.094-9.181 9.947-4.145-.996-4.156-5.456-.262-4.657 4.788.985-2.096-8.046-5.743-1.21"/><path d="M103.179 17.433s-7.562 10.164-4.631 12.836c1.435 1.31 5.912 1.79 8.836-1.463 2.923-3.252 5.04-7.26 5.04-7.26h-.507s-6.421 9.389-8.808 6.766c-1.886-2.069 6.006-9.465 5.254-11.245-.565-1.33-3.404-.981-5.184.366m4.249-2.085c-.195-.121-1.613-1.549.477-3.151 2.088-1.605 5.387-2.052 5.387-2.052s.427 3.55-1.809 4.841c-2.411 1.392-4.055.362-4.055.362M45.304 41.572a1.535 1.535 0 0 0-.349-.043 1.313 1.313 0 0 0-.609.144c-.098.05-.19.118-.277.2a1.128 1.128 0 0 0-.226.308 1.6 1.6 0 0 0-.091.214c-.03.084-.059.2-.091.35l-.423 2.045h-.993l.845-4.071h.845v.513h.016c.16-.193.338-.344.534-.452.196-.108.425-.162.689-.162.104 0 .211.009.323.025l-.193.929zm2.874.16a.312.312 0 0 0-.109-.239c-.073-.069-.183-.102-.332-.102a.938.938 0 0 0-.342.068 1.084 1.084 0 0 0-.327.199 1.463 1.463 0 0 0-.277.323c-.08.128-.145.275-.193.439.297 0 .547-.019.748-.058.202-.038.364-.092.488-.155a.69.69 0 0 0 .265-.221.467.467 0 0 0 .079-.254m1.001 0c0 .227-.057.431-.167.61-.11.181-.273.336-.489.463a2.633 2.633 0 0 1-.798.292 5.317 5.317 0 0 1-1.274.097v.025c0 .148.022.278.066.388a.655.655 0 0 0 .188.271.761.761 0 0 0 .301.154c.117.032.249.048.396.048.217 0 .447-.026.688-.08.241-.053.451-.124.63-.214l-.18.875a3.468 3.468 0 0 1-.594.17 3.773 3.773 0 0 1-.713.065c-.3 0-.561-.041-.782-.121a1.47 1.47 0 0 1-.547-.344 1.373 1.373 0 0 1-.323-.523 2.048 2.048 0 0 1-.104-.668 3.107 3.107 0 0 1 .264-1.254c.087-.195.196-.375.324-.543.129-.166.278-.311.447-.433a2.14 2.14 0 0 1 1.255-.392c.215 0 .41.026.583.081.175.053.322.128.443.223a1.008 1.008 0 0 1 .386.81m2.386 1.824a.279.279 0 0 0-.079-.206.768.768 0 0 0-.207-.142 2.274 2.274 0 0 0-.287-.11 4.681 4.681 0 0 1-.326-.114 2.04 2.04 0 0 1-.291-.138 1.039 1.039 0 0 1-.253-.2.886.886 0 0 1-.176-.283 1.085 1.085 0 0 1-.066-.395c0-.229.043-.43.13-.6.088-.168.203-.308.349-.419.145-.111.315-.194.509-.248.193-.055.396-.083.609-.083.12 0 .241.008.363.024a3.711 3.711 0 0 1 .691.155c.107.035.204.074.291.116l-.16.778a3.66 3.66 0 0 0-.619-.198 2.744 2.744 0 0 0-.574-.068c-.194 0-.343.04-.448.118a.369.369 0 0 0-.158.307c0 .076.019.14.056.19.04.053.089.099.153.137.062.04.136.074.218.106l.258.096c.116.042.231.088.349.139.118.05.224.117.319.2a.977.977 0 0 1 .234.305c.059.12.091.27.091.453 0 .232-.045.437-.133.613a1.233 1.233 0 0 1-.376.446c-.162.12-.357.21-.58.271a2.855 2.855 0 0 1-.748.091 3.807 3.807 0 0 1-.809-.089 2.908 2.908 0 0 1-.29-.08 1.51 1.51 0 0 1-.195-.076l.164-.793c.184.072.372.13.56.17.19.041.381.06.574.06.28 0 .493-.047.638-.14a.443.443 0 0 0 .219-.393m2.546-3.77l.219-1.078h1.042l-.218 1.078h-1.043zm-1.017 5.004l.849-4.07h.992l-.848 4.07h-.993zm5.03-3.024a.874.874 0 0 0-.24-.221.85.85 0 0 0-.178-.079.659.659 0 0 0-.212-.032.693.693 0 0 0-.359.095.99.99 0 0 0-.287.252 1.65 1.65 0 0 0-.221.361 3.079 3.079 0 0 0-.276 1.245c0 .238.038.414.111.526a.367.367 0 0 0 .326.167.777.777 0 0 0 .458-.163c.151-.109.285-.258.403-.45a2.61 2.61 0 0 0 .286-.793l.189-.908zm.584 2.046c0 .064.018.116.053.153.034.038.094.057.177.057.08 0 .179-.008.299-.025l-.172.798a1.9 1.9 0 0 1-.253.039 2.076 2.076 0 0 1-.247.016c-.23 0-.404-.055-.523-.162a.759.759 0 0 1-.225-.459H57.8a1.814 1.814 0 0 1-.624.511 1.528 1.528 0 0 1-.654.157 1.17 1.17 0 0 1-.492-.102 1.022 1.022 0 0 1-.369-.286 1.254 1.254 0 0 1-.231-.445 1.973 1.973 0 0 1-.079-.579 4.079 4.079 0 0 1 .228-1.347c.074-.211.166-.409.275-.595.11-.185.235-.346.376-.483.142-.137.298-.245.47-.323.173-.078.361-.118.562-.118.202 0 .385.042.549.124.166.082.309.21.429.379h.018l.5-2.414h.991l-1.008 4.848a1.362 1.362 0 0 0-.033.256zm3.996-2.08a.316.316 0 0 0-.109-.239c-.074-.069-.184-.102-.332-.102a.934.934 0 0 0-.342.068 1.089 1.089 0 0 0-.328.199 1.46 1.46 0 0 0-.276.323 1.722 1.722 0 0 0-.193.439c.297 0 .546-.019.748-.058.202-.038.364-.092.487-.155a.682.682 0 0 0 .265-.221.46.46 0 0 0 .08-.254m1 0c0 .227-.056.431-.166.61-.11.181-.274.336-.489.463a2.63 2.63 0 0 1-.799.292 5.307 5.307 0 0 1-1.273.097v.025c0 .148.022.278.066.388a.655.655 0 0 0 .188.271.757.757 0 0 0 .3.154c.118.032.249.048.396.048.217 0 .448-.026.688-.08.241-.053.451-.124.631-.214l-.181.875a3.416 3.416 0 0 1-.594.17c-.223.043-.46.065-.712.065-.301 0-.561-.041-.782-.121a1.383 1.383 0 0 1-.87-.867 2.022 2.022 0 0 1-.105-.668 3.107 3.107 0 0 1 .264-1.254c.087-.195.196-.375.324-.543.129-.166.279-.311.448-.433a2.124 2.124 0 0 1 1.254-.392c.216 0 .411.026.584.081.174.053.322.128.443.223a1.005 1.005 0 0 1 .385.81m1.306 3.058h-.992l.845-4.07h.844v.512h.017a1.7 1.7 0 0 1 .538-.428 1.606 1.606 0 0 1 .757-.186c.159 0 .309.024.451.069.142.047.266.116.374.205a.966.966 0 0 1 .254.328c.061.129.092.276.092.445 0 .104-.009.219-.029.345-.019.125-.043.252-.067.378l-.5 2.402h-.992l.513-2.478c.017-.086.03-.165.04-.233.009-.069.014-.127.014-.175 0-.143-.04-.254-.12-.332-.079-.079-.201-.118-.367-.118-.204 0-.395.057-.571.169a1.389 1.389 0 0 0-.442.453c-.021.037-.044.075-.064.118a1.753 1.753 0 0 0-.118.326 4.527 4.527 0 0 0-.057.242l-.42 2.028zm6.643-3.252h-1.059l-.403 1.963a1.728 1.728 0 0 0-.043.282c0 .103.029.174.085.216.056.04.153.061.294.061.095 0 .217-.011.365-.032.149-.021.282-.046.4-.073l-.163.827a2.912 2.912 0 0 1-.44.084c-.159.021-.307.03-.448.03a1.79 1.79 0 0 1-.499-.062.954.954 0 0 1-.348-.173.685.685 0 0 1-.201-.278.982.982 0 0 1-.064-.369c0-.047.002-.105.007-.17.006-.067.019-.146.038-.239l.428-2.067h-.76l.172-.818h.757l.239-1.139h.992l-.236 1.139h1.06l-.173.818zm1.231-1.752l.218-1.078h1.042l-.219 1.078h-1.041zm-1.018 5.004l.849-4.07h.992l-.848 4.07h-.993zm5.035-3.041a.663.663 0 0 0-.1-.111.622.622 0 0 0-.141-.102 1.001 1.001 0 0 0-.182-.073.72.72 0 0 0-.212-.029.707.707 0 0 0-.359.094 1.075 1.075 0 0 0-.29.252 1.679 1.679 0 0 0-.22.362 3.115 3.115 0 0 0-.273 1.245c0 .238.037.414.111.526a.367.367 0 0 0 .325.167.768.768 0 0 0 .43-.144c.142-.098.269-.229.382-.397.075-.112.14-.24.194-.384.056-.141.102-.305.142-.49l.193-.916zm.58 2.063c0 .076.02.129.061.162a.267.267 0 0 0 .17.047c.082 0 .18-.007.298-.024l-.172.798c-.174.036-.34.055-.5.055-.23 0-.404-.055-.523-.163-.119-.106-.194-.259-.226-.459h-.016a1.774 1.774 0 0 1-.624.511 1.513 1.513 0 0 1-.653.157c-.182 0-.347-.035-.493-.101a1.022 1.022 0 0 1-.369-.286 1.273 1.273 0 0 1-.23-.446 1.934 1.934 0 0 1-.08-.579c0-.227.018-.456.056-.685.038-.23.095-.449.17-.661a3.31 3.31 0 0 1 .28-.595c.111-.186.239-.347.384-.483.146-.137.308-.246.488-.324.179-.078.374-.118.584-.118a1.208 1.208 0 0 1 1.004.504h.017l.147-.402h.848l-.588 2.836c-.01.053-.019.102-.025.149a.838.838 0 0 0-.008.107zm2.327-5.104h.991l-1.004 4.826a1.46 1.46 0 0 0-.033.243c0 .08.024.136.071.171a.368.368 0 0 0 .215.052c.095 0 .194-.011.298-.032l-.182.833a2.681 2.681 0 0 1-.537.053c-.297 0-.52-.067-.671-.2-.149-.132-.223-.328-.223-.587 0-.133.017-.286.054-.457l1.021-4.902zm5.836 3.041a.602.602 0 0 0-.102-.111.683.683 0 0 0-.139-.102.891.891 0 0 0-.179-.073.748.748 0 0 0-.214-.029.718.718 0 0 0-.362.094 1.05 1.05 0 0 0-.291.252c-.086.105-.16.226-.221.362a3.257 3.257 0 0 0-.269 1.245c0 .238.038.414.111.526a.369.369 0 0 0 .326.167.75.75 0 0 0 .405-.128c.136-.085.259-.205.369-.358.167-.236.292-.545.373-.929l.193-.916zm-.622 2.996c.031-.149.066-.283.104-.405h-.016a1.347 1.347 0 0 1-.479.417 1.277 1.277 0 0 1-.591.139c-.183 0-.347-.035-.493-.101a1.034 1.034 0 0 1-.37-.286 1.29 1.29 0 0 1-.23-.446 1.934 1.934 0 0 1-.08-.579c0-.227.019-.456.056-.685a3.95 3.95 0 0 1 .168-.661c.074-.211.167-.41.279-.595.11-.186.238-.347.383-.483.146-.137.308-.246.488-.324.178-.078.375-.118.588-.118a1.205 1.205 0 0 1 1.003.504h.017l.149-.402h.847l-1.247 6.025h-.992l.416-2zm3.87.151c-.27 0-.5-.03-.691-.091a1.264 1.264 0 0 1-.473-.254.999.999 0 0 1-.272-.393 1.43 1.43 0 0 1-.07-.704c.01-.075.026-.172.047-.29l.505-2.445h.991l-.512 2.479a1.587 1.587 0 0 0-.029.187c-.006.057-.01.11-.01.157 0 .167.047.3.14.395.093.095.242.143.45.143.146 0 .27-.02.376-.061.105-.04.194-.1.266-.176a.905.905 0 0 0 .178-.282c.047-.11.084-.234.112-.372l.513-2.47h.992l-.569 2.743a2.312 2.312 0 0 1-.181.537 1.48 1.48 0 0 1-.351.458 1.733 1.733 0 0 1-.572.319c-.229.08-.509.12-.84.12m5.689-3.147a.7.7 0 0 0-.241-.213 1.001 1.001 0 0 0-.182-.073.708.708 0 0 0-.211-.029.708.708 0 0 0-.36.094 1.09 1.09 0 0 0-.29.252 1.676 1.676 0 0 0-.219.362 2.757 2.757 0 0 0-.154.422 3.263 3.263 0 0 0-.12.823c0 .238.038.414.112.526a.366.366 0 0 0 .325.167.765.765 0 0 0 .429-.144c.142-.098.269-.229.382-.397.076-.112.141-.24.195-.384a3.25 3.25 0 0 0 .142-.49l.192-.916zm.58 2.063c0 .076.021.129.062.162.04.032.096.047.17.047.081 0 .18-.007.298-.024l-.173.798a2.46 2.46 0 0 1-.5.055c-.229 0-.404-.055-.523-.163-.119-.106-.194-.259-.225-.459h-.016a1.785 1.785 0 0 1-.625.511c-.223.106-.44.157-.652.157-.183 0-.347-.035-.493-.101a1.034 1.034 0 0 1-.37-.286 1.307 1.307 0 0 1-.23-.446 1.968 1.968 0 0 1-.079-.579c0-.227.018-.456.056-.685.037-.23.095-.449.17-.661.076-.211.168-.41.279-.595.111-.186.239-.347.385-.483.146-.137.308-.246.488-.324.178-.078.374-.118.583-.118a1.21 1.21 0 0 1 1.005.504h.016l.148-.402h.847l-.588 2.836c-.01.053-.019.102-.025.149a1.077 1.077 0 0 0-.008.107zm4.184-2.24a1.533 1.533 0 0 0-.348-.043 1.296 1.296 0 0 0-.609.144 1.191 1.191 0 0 0-.505.508c-.03.059-.06.131-.09.214-.03.084-.059.2-.091.35l-.423 2.045h-.992l.844-4.071h.845v.513h.016a1.87 1.87 0 0 1 .535-.452c.196-.108.425-.162.688-.162.104 0 .212.009.324.025l-.194.929zm2.983-.034h-1.059l-.402 1.963a1.762 1.762 0 0 0-.032.162.808.808 0 0 0-.011.12c0 .103.028.174.085.216.055.04.153.061.293.061.095 0 .218-.011.365-.032.15-.021.282-.046.4-.073l-.163.827a2.912 2.912 0 0 1-.44.084c-.159.021-.307.03-.448.03a1.79 1.79 0 0 1-.499-.062.942.942 0 0 1-.347-.173.687.687 0 0 1-.202-.278.982.982 0 0 1-.064-.369 1.865 1.865 0 0 1 .045-.409l.428-2.067h-.76l.172-.818h.757l.239-1.139h.992l-.236 1.139h1.06l-.173.818zm3.019.194a.312.312 0 0 0-.109-.239c-.073-.069-.183-.102-.332-.102a.942.942 0 0 0-.342.068 1.072 1.072 0 0 0-.327.199 1.49 1.49 0 0 0-.277.323 1.72 1.72 0 0 0-.192.439c.296 0 .546-.019.747-.058.202-.038.364-.092.488-.155a.69.69 0 0 0 .265-.221.467.467 0 0 0 .079-.254m1.001 0c0 .227-.057.431-.167.61-.11.181-.273.336-.488.463a2.65 2.65 0 0 1-.799.292 5.32 5.32 0 0 1-1.274.097v.025c0 .148.023.278.066.388a.664.664 0 0 0 .188.271.765.765 0 0 0 .302.154c.116.032.248.048.395.048.218 0 .448-.026.688-.08.241-.053.451-.124.63-.214l-.18.875a3.442 3.442 0 0 1-.594.17c-.223.043-.46.065-.713.065-.3 0-.561-.041-.782-.121a1.478 1.478 0 0 1-.547-.344 1.373 1.373 0 0 1-.323-.523 2.048 2.048 0 0 1-.104-.668 3.092 3.092 0 0 1 .264-1.254c.087-.195.196-.375.324-.543.129-.166.279-.311.447-.433a2.14 2.14 0 0 1 1.255-.392c.215 0 .41.026.583.081.175.053.322.128.443.223a1.014 1.014 0 0 1 .386.81m3.373-.16a1.541 1.541 0 0 0-.349-.043 1.289 1.289 0 0 0-.608.144 1.191 1.191 0 0 0-.505.508 1.75 1.75 0 0 0-.09.214c-.03.084-.059.2-.091.35l-.424 2.045h-.992l.845-4.071h.845v.513h.016a1.88 1.88 0 0 1 .534-.452c.196-.108.425-.162.689-.162.104 0 .212.009.323.025l-.193.929zm9.458.244s-1.355 2.015-3.4 2.372c-2.045.357-4.006-1.075-4.006-1.075s1.355-2.014 3.401-2.371c2.046-.36 4.005 1.074 4.005 1.074m-86.499 0s1.355 2.015 3.401 2.372 4.006-1.075 4.006-1.075-1.355-2.014-3.401-2.371c-2.046-.36-4.006 1.074-4.006 1.074"/></g></svg>