<svg xmlns="http://www.w3.org/2000/svg" xmlns:xlink="http://www.w3.org/1999/xlink" width="36" height="40" viewBox="0 0 36 40"><defs><path id="vvwwa" d="M901.373 620.323l-4.448-2.496 3.754-2.172c.603-.283.792-1.07.447-1.649-.349-.592-1.103-.716-1.675-.393l-5.005 2.849-7.957-4.497 7.957-4.449 5.005 2.842c.156.11.358.176.581.176.424 0 .804-.194 1.094-.565.336-.588.156-1.366-.447-1.649l-3.754-2.17 4.448-2.495c.58-.326.778-1.052.447-1.649-.316-.574-1.1-.773-1.699-.436l-4.47 2.519-.067-4.343a1.216 1.216 0 0 0-1.229-1.212c-.691 0-1.234.583-1.229 1.212l.044 5.733-7.91 4.45v-9.03l4.984-2.759c.582-.32.836-1.064.491-1.648-.349-.595-1.066-.768-1.676-.436l-3.799 2.084v-4.926c0-.671-.558-1.214-1.25-1.214-.693 0-1.229.543-1.229 1.214v4.972l-3.934-2.13c-.612-.328-1.31-.142-1.653.436-.349.592-.132 1.318.468 1.648l5.12 2.801v8.94l-8.092-4.533.046-5.602c.068-.629-.514-1.212-1.208-1.212h-.044c-.647 0-1.222.54-1.23 1.212l-.043 4.214-4.358-2.43c-.607-.344-1.36-.14-1.676.429-.333.601-.16 1.311.447 1.653l4.402 2.473-3.844 2.235c-.602.283-.79 1.07-.423 1.649.235.375.58.565 1.05.565.244 0 .45-.059.647-.176l5.028-2.885 8.068 4.492-8.068 4.537-5.028-2.889c-.603-.341-1.383-.18-1.697.393-.333.598-.153 1.316.423 1.649l3.844 2.213-4.402 2.496c-.605.344-.803 1.065-.447 1.652.25.407.582.606 1.05.606.112 0 .335-.063.626-.174l4.358-2.432.044 4.214c.007.671.582 1.189 1.23 1.189h.043c.694 0 1.213-.559 1.208-1.235l-.046-5.597 8.091-4.492v8.894l-5.119 2.8c-.61.335-.823 1.061-.468 1.649.247.413.58.613 1.05.613.224 0 .429-.039.603-.136l3.934-2.166v5.055c0 .672.536 1.196 1.23 1.196.69 0 1.25-.524 1.25-1.196v-4.971l3.798 2.082c.175.097.38.136.582.136.491 0 .854-.195 1.094-.613.34-.583.121-1.314-.49-1.648l-4.985-2.713v-9.027l7.91 4.449-.044 5.685a1.224 1.224 0 0 0 1.229 1.235c.694 0 1.22-.518 1.23-1.189l.067-4.366 4.469 2.541c.172.097.403.132.65.132.467 0 .812-.19 1.049-.566.366-.579.133-1.325-.447-1.648z"/></defs><g><g transform="translate(-866 -592)"><use fill="#fff" xlink:href="#vvwwa"/></g></g></svg>