<svg xmlns="http://www.w3.org/2000/svg" xmlns:xlink="http://www.w3.org/1999/xlink" width="47" height="31" viewBox="0 0 47 31"><defs><path id="wdf9a" d="M973.286 1852.85c4.267.023 7.714 3.451 7.714 7.672v5.503a.78.78 0 0 1-.783.775h-3.134a6.154 6.154 0 0 1-2.135 4.65H981v1.55h-47v-1.55h7.619a6.154 6.154 0 0 1-2.136-4.65h-4.7a.78.78 0 0 1-.783-.775v-7.75a.756.756 0 0 1 .033-.147c.306-2.994 2.852-5.274 5.894-5.278h1.802l.828-2.044a7.782 7.782 0 0 1 3.133-3.952 9.623 9.623 0 0 1 3.977-1.571v-2.508a.78.78 0 0 1 .783-.775h8.617a.78.78 0 0 1 .783.775v2.335a10.243 10.243 0 0 1 7.332 3.333l3.911 4.295zm5.333 4.65a6.195 6.195 0 0 0-3.876-2.91c.05 1.619 1.388 2.907 3.026 2.91zm-27.386-12.4h7.05v-1.55h-7.05zm-15.666 13.95v1.55h2.35v-1.55zm5.483 7.75c.003 2.567 2.105 4.647 4.7 4.65 2.596 0 4.7-2.082 4.7-4.65 0-2.568-2.104-4.65-4.7-4.65s-4.7 2.082-4.7 4.65zm25.635 4.65a6.154 6.154 0 0 1-2.135-4.65h-12.533a6.154 6.154 0 0 1-2.136 4.65zm4.132 0c2.594-.003 4.697-2.083 4.7-4.65 0-2.568-2.105-4.65-4.7-4.65-2.596 0-4.7 2.082-4.7 4.65 0 2.568 2.104 4.65 4.7 4.65zm8.616-10.928a6.015 6.015 0 0 0-.189-1.472h-1.475c-2.54-.003-4.597-2.038-4.602-4.55v-.1l-2.48-.132a.788.788 0 0 1-.541-.256l-4.124-4.533a8.682 8.682 0 0 0-6.423-2.829h-.088l-8.561.092a7.892 7.892 0 0 0-4.377 1.395 6.246 6.246 0 0 0-2.553 3.218l-1.034 2.558a.784.784 0 0 1-.728.487h-2.334a4.358 4.358 0 0 0-4.18 3.1h2.956a.78.78 0 0 1 .783.775v3.1a.78.78 0 0 1-.783.775h-3.133v3.1h4.122c.71-2.737 3.205-4.651 6.061-4.651s5.35 1.914 6.06 4.651h12.946c.71-2.737 3.204-4.651 6.06-4.651 2.857 0 5.35 1.914 6.061 4.651h2.556zM957.5 1854.4a.78.78 0 0 1-.783-.775v-4.65a.78.78 0 0 1 .783-.775h1.567c3.055 0 4.832 1.326 6.707 3.467.43.482.53 1.168.257 1.751a1.696 1.696 0 0 1-1.566.982zm.783-1.548h6.182a.138.138 0 0 0 .137-.078.077.077 0 0 0-.017-.094c-1.661-1.9-3.034-2.93-5.518-2.93h-.784zm-12.533 1.548a.78.78 0 0 1-.783-.775v-.681c0-2.62 2.147-4.744 4.795-4.744h3.038a.78.78 0 0 1 .783.775v4.65a.78.78 0 0 1-.783.775zm1.729-3.715a3.155 3.155 0 0 0-.946 2.165h5.484v-3.1h-2.255a3.27 3.27 0 0 0-2.283.935zm-1.729 13.015c1.73 0 3.133 1.388 3.133 3.1 0 1.712-1.403 3.1-3.133 3.1s-3.133-1.388-3.133-3.1c0-1.712 1.403-3.1 3.133-3.1zm0 4.65c.865 0 1.567-.694 1.567-1.55 0-.856-.702-1.55-1.567-1.55s-1.567.694-1.567 1.55c0 .856.702 1.55 1.567 1.55zm25.067-4.65c1.73 0 3.133 1.388 3.133 3.1 0 1.712-1.403 3.1-3.133 3.1s-3.134-1.388-3.134-3.1c0-1.712 1.403-3.1 3.134-3.1zm0 4.65c.865 0 1.566-.694 1.566-1.55 0-.856-.701-1.55-1.566-1.55-.866 0-1.567.694-1.567 1.55 0 .856.701 1.55 1.567 1.55zm-28.2-13.175h1.566v1.55h-1.566zm1.566 1.55h1.567v1.55h-1.567zm1.567-1.55h1.567v1.55h-1.567zm1.567 1.55h1.566v1.55h-1.566zm1.566-1.55h1.567v1.55h-1.567zm1.567 1.55h1.567v1.55h-1.567zm1.567-1.55h1.566v1.55h-1.566zm1.566 1.55h1.567v1.55h-1.567zm1.567-1.55h1.567v1.55h-1.567zm1.567 1.55h1.566v1.55h-1.566zm1.566-1.55h1.567v1.55h-1.567zm1.567 1.55h1.567v1.55h-1.567zm1.567-1.55h1.566v1.55h-1.566zm1.566 1.55h1.567v1.55h-1.567zm1.567-1.55h1.567v1.55h-1.567zm1.567 1.55h1.566v1.55h-1.566zm1.566-1.55h1.567v1.55h-1.567zm1.567 1.55h1.567v1.55h-1.567zm1.567-1.55h1.566v1.55h-1.566zm-29.767 1.55h1.567v1.55h-1.567zm-1.567-1.55h1.567v1.55h-1.567z"/></defs><g><g transform="translate(-934 -1842)"><use fill="#fff" xlink:href="#wdf9a"/></g></g></svg>