<svg xmlns="http://www.w3.org/2000/svg" xmlns:xlink="http://www.w3.org/1999/xlink" width="40" height="40" viewBox="0 0 40 40"><defs><path id="ngc5a" d="M296.62 1857.13c.824.302 1.376 1.107 1.38 2.012v1.429a.702.702 0 0 1-.69.714h-15.862v2.857h15.173c.38 0 .69.32.69.714a.702.702 0 0 1-.69.714h-2.207l-11.586 6.929 9.197 5.5c.99.591 1.33 1.902.76 2.928-.572 1.025-1.838 1.377-2.829.785l-9.055-5.416a2.025 2.025 0 0 1-1.522.703h-4.075l-7.881 4.713c-.99.592-2.256.24-2.828-.785-.571-1.026-.232-2.337.759-2.929l1.674-1h-.062c-1.143 0-2.07-.96-2.07-2.142v-9.286h-4.137c-1.524 0-2.76-1.279-2.76-2.857 0-1.577 1.236-2.857 2.76-2.857h13.793v-.714c0-1.183.926-2.143 2.069-2.143h.73c.354-3.25 3.007-5.709 6.166-5.714h1.724v-.714c0-1.183.927-2.143 2.07-2.143h1.379c1.142 0 2.069.96 2.069 2.143v.714h1.034v-1.428c0-1.578-1.235-2.857-2.758-2.857h-4.828c-1.143 0-2.069-.96-2.069-2.143v-.714c0-1.183.926-2.143 2.069-2.143h4.828c4.187.005 7.58 3.52 7.586 7.857zm-10-5.845h2.76v-.714a.702.702 0 0 0-.69-.714h-1.38c-.38 0-.69.32-.69.714zm-21.723 12.857v-2.857h-4.138c-.762 0-1.38.64-1.38 1.428 0 .79.618 1.429 1.38 1.429zm7.648 12.856h-2.758l-3.743 2.24a.723.723 0 0 0-.339.71.706.706 0 0 0 .504.597c.177.05.366.025.523-.071zm6.834-1.428c.381 0 .69-.32.69-.714v-13.571h-13.793v8.714l4.983-6.31a.677.677 0 0 1 1.187.195.733.733 0 0 1-.12.71l-6.05 7.66v2.602c0 .394.309.714.69.714h1.062l3.932-4.75a.677.677 0 0 1 .658-.259.697.697 0 0 1 .535.475.733.733 0 0 1-.147.713l-3.162 3.82zm12.276 4.1a.704.704 0 0 0-.321-.433l-9.888-5.913v1.534c0 .039-.003.077-.003.115l9.201 5.5a.671.671 0 0 0 .765-.052.728.728 0 0 0 .246-.75zm0-14.1h-2.759l-7.448 4.455v1.65zm-10.207 0v2.805l4.69-2.805zm15.173-5.714v-.714a.702.702 0 0 0-.69-.714c-.38 0-.69-.32-.69-.714v-7.857c-.004-3.549-2.78-6.424-6.207-6.429h-4.827c-.38 0-.69.32-.69.715v.714c0 .395.31.714.69.714h4.827c2.285.003 4.136 1.92 4.138 4.286V1852a.702.702 0 0 1-.69.714h-8.965c-2.397.003-4.43 1.828-4.772 4.285h11.669c.38 0 .69.32.69.715a.702.702 0 0 1-.69.714H276.62c-.381 0-.69.32-.69.714v.714z"/></defs><g><g transform="translate(-258 -1842)"><use fill="#fff" xlink:href="#ngc5a"/></g></g></svg>