<svg xmlns="http://www.w3.org/2000/svg" xmlns:xlink="http://www.w3.org/1999/xlink" width="28" height="45" viewBox="0 0 28 45"><defs><path id="lhkga" d="M650 1844.806c0 2.397-1.462 4.546-3.593 5.401l.787 6.117a.749.749 0 0 1 .006.095c0 5.659-3.926 10.379-9.1 11.401v7.706c0 1.501 1.101 2.744 2.56 2.892 6.54.66 6.54 2.18 6.54 2.679 0 2.822-10.053 2.903-11.2 2.903-1.147 0-11.2-.081-11.2-2.903 0-.5 0-2.019 6.54-2.68 1.459-.147 2.56-1.39 2.56-2.891v-7.706c-5.174-1.022-9.1-5.742-9.1-11.4 0-.033.002-.064.006-.096l1.4-10.888a.71.71 0 0 1 .694-.63h3.5v-1.451h-7.7a.714.714 0 0 1-.7-.726v-2.903c0-.4.314-.726.7-.726h9.1c1.544 0 2.8 1.302 2.8 2.903v2.903h4.2c0-3.201 2.512-5.806 5.6-5.806 3.088 0 5.6 2.605 5.6 5.806zm-6.3-4.289a4.097 4.097 0 0 0-1.73.744l1.73 1.793zm3.13.744a4.098 4.098 0 0 0-1.73-.744v2.537zm-.74 2.82h2.447a4.418 4.418 0 0 0-.718-1.794zm-5.11-1.794c-.489.712-.78 1.58-.78 2.52h3.21zm-6.38 3.971v8.71c3.088 0 5.6-2.605 5.6-5.807v-2.903zm-2.8 9.32a6.732 6.732 0 0 1 1.4-.464v-8.856h-1.4zm-.7-13.675c.386 0 .7.326.7.726v2.177h1.4v-2.903c0-.8-.628-1.451-1.4-1.451h-8.4v1.451zm-4.9 14.564a10.364 10.364 0 0 0 1.427 5.206 7.317 7.317 0 0 1 2.773-5.24v-10.175h-2.887zm9.1 11.565v7.494c0 2.253-1.644 4.117-3.825 4.337-3.385.342-4.79.941-5.187 1.238.694.55 3.97 1.447 9.712 1.447 5.741 0 9.018-.897 9.713-1.447-.397-.297-1.802-.896-5.188-1.238-2.18-.22-3.825-2.084-3.825-4.337v-7.494zm.7-1.451c5.389 0 9.775-4.533 9.8-10.114l-1.312-10.209H641.6v2.903c0 4.002-3.14 7.258-7 7.258-3.088 0-5.6 2.605-5.6 5.807v1.29c1.78 1.887 4.259 3.065 7 3.065zm10.217-17.85c1.22-.61 2.093-1.814 2.322-3.199h-2.733z"/></defs><g><g transform="translate(-622 -1839)"><use fill="#fff" xlink:href="#lhkga"/></g></g></svg>