<svg xmlns="http://www.w3.org/2000/svg" xmlns:xlink="http://www.w3.org/1999/xlink" width="40" height="36" viewBox="0 0 40 36"><defs><path id="pi3ca" d="M760.818 598.426c.09.074 2.182 1.84 2.182 5.184 0 3.345-2.093 5.111-2.182 5.185a.9.9 0 0 1-.103.073c-1.665 1.022-3.457 1.704-5.586 2.119.169 2.698.11 5.123-.177 7.392-.499 3.939-1.72 7.419-3.632 10.343a5.036 5.036 0 0 1-4.197 2.278 4.97 4.97 0 0 1-2.76-.837c-2.312-1.537-2.953-4.685-1.43-7.016 1.92-2.937 3.04-5.855 3.422-8.977a.92.92 0 0 1 .026-.214c.1-.893.14-1.803.121-2.736-1.495-.242-2.962-.628-4.503-1.035-3.022-.797-6.439-1.696-11.076-1.741-.79.721-3.158 2.664-6.76 3.739a.896.896 0 0 1-.8-.144.917.917 0 0 1-.363-.733v-15.392c0-.288.135-.56.364-.732a.901.901 0 0 1 .8-.144c3.6 1.074 5.969 3.018 6.76 3.739 4.65-.045 8.085-.949 11.124-1.749 2.502-.66 4.866-1.282 7.432-1.282 4.834 0 8.3.804 11.235 2.606.036.022.07.047.103.074zm-4.217 4.044h-4.03c-.625 0-1.133.512-1.133 1.142 0 .63.508 1.142 1.133 1.142h4.03zm-31.79 7.564c2.528-.97 4.23-2.351 4.849-2.904v-7.04c-.619-.552-2.32-1.932-4.848-2.903zm22.583 7.904a22.44 22.44 0 0 1-1.154 3.008h.444c.587 0 1.273-.525 1.468-1.123.191-.587.374-1.244.534-1.885zm1.754-2.117c.037-.203-.002-.38-.112-.513-.12-.144-.315-.224-.551-.224h-.437a21.83 21.83 0 0 1-.187 1.027h1.233c.02-.1.037-.198.054-.29zm4.88-6.495a18.15 18.15 0 0 0 2.574-.588v-2.156h-4.031c-1.624 0-2.945-1.332-2.945-2.97 0-1.637 1.321-2.97 2.945-2.97h4.03v-2.165c-1.691-.523-3.954-.903-7.121-.903-2.333 0-4.484.566-6.975 1.222-.928.245-1.892.499-2.915.736v1.499a.91.91 0 0 1-.906.914.91.91 0 0 1-.906-.914v-1.114c-1.857.356-3.92.624-6.306.679v6.03c2.389.054 4.451.323 6.306.68v-3.29a.91.91 0 0 1 .906-.914c.5 0 .906.41.906.914v3.677c1.005.234 1.954.484 2.867.725 1.743.46 3.39.893 5.035 1.099.435.055.77.417.793.859.05.976.042 1.935-.027 2.88h.227c.772 0 1.48.322 1.942.881.452.547.636 1.28.504 2.011a35.985 35.985 0 0 1-1.057 4.245c-.442 1.357-1.814 2.38-3.19 2.38h-1.393c-.265.462-.545.922-.844 1.38a3.258 3.258 0 0 0 .913 4.485c.574.381 1.25.566 1.931.53a3.22 3.22 0 0 0 2.516-1.452c1.758-2.689 2.885-5.909 3.348-9.569.3-2.372.336-4.94.11-7.847a.912.912 0 0 1 .763-.974zm5.68-1.979c.238-.22 1.48-1.478 1.48-3.737 0-2.25-1.233-3.507-1.481-3.737-.38-.23-.805-.467-1.294-.697v8.864c.445-.208.875-.438 1.295-.693z"/></defs><g><g transform="translate(-723 -595)"><use fill="#fff" xlink:href="#pi3ca"/></g></g></svg>