<svg xmlns="http://www.w3.org/2000/svg" xmlns:xlink="http://www.w3.org/1999/xlink" width="65" height="55" viewBox="0 0 65 55"><defs><path id="puusa" d="M309.88 1382.53c.619 0 1.12.503 1.12 1.123s-.501 1.123-1.12 1.123c-1.665 0-2.453.451-3.368.974-1.04.595-2.22 1.27-4.478 1.27-2.26 0-3.439-.675-4.479-1.27-.914-.523-1.703-.974-3.367-.974-1.663 0-2.452.451-3.366.974-1.04.595-2.22 1.27-4.479 1.27-2.258 0-3.438-.675-4.478-1.27-.914-.523-1.703-.974-3.367-.974-1.662 0-2.452.451-3.366.974-1.04.595-2.22 1.27-4.478 1.27-2.258 0-3.438-.675-4.478-1.27-.913-.523-1.703-.974-3.366-.974-1.664 0-2.453.451-3.366.974-1.04.595-2.22 1.27-4.479 1.27s-3.438-.675-4.478-1.27c-.914-.523-1.703-.974-3.367-.974a1.122 1.122 0 0 1 0-2.245c2.26 0 3.439.674 4.479 1.27.913.522 1.703.975 3.366.975 1.664 0 2.453-.453 3.366-.975.334-.192.682-.39 1.075-.573v-28.73c0-7.443 6.046-13.498 13.477-13.498.309 0 .622.011.93.032a1.122 1.122 0 0 1-.152 2.24 11.5 11.5 0 0 0-.778-.027c-6.196 0-11.235 5.048-11.235 11.253v2.16h10.114v-2.16c0-7.443 6.046-13.498 13.476-13.498 7.431 0 13.476 6.055 13.476 13.498a1.12 1.12 0 1 1-2.241 0c0-6.205-5.04-11.253-11.235-11.253-1.383 0-2.708.253-3.932.713 3.19 2.548 5.053 6.378 5.053 10.54a1.121 1.121 0 1 1-2.241 0c0-3.82-1.881-7.304-5.051-9.397a11.256 11.256 0 0 0-5.063 9.397v25.872a1.122 1.122 0 1 1-2.242 0v-3.424h-10.114v5.65a9.774 9.774 0 0 1 1.162-.065c2.258 0 3.438.674 4.478 1.27.914.522 1.703.975 3.366.975 1.664 0 2.453-.453 3.367-.975 1.04-.596 2.219-1.27 4.478-1.27s3.438.674 4.478 1.27c.914.522 1.703.975 3.366.975 1.664 0 2.453-.452 3.367-.975 1.04-.596 2.22-1.27 4.478-1.27 2.259 0 3.438.674 4.48 1.27.913.522 1.702.975 3.366.975 1.663 0 2.453-.452 3.367-.975 1.04-.596 2.22-1.27 4.479-1.27zm-38.118-7.829v-6.777h-10.114v6.777zm-10.114-15.799v6.777h10.114v-6.777zm40.386 30.363a1.122 1.122 0 0 1 0 2.245c-2.26 0-3.439-.675-4.479-1.27-.914-.524-1.703-.975-3.367-.975-1.663 0-2.452.451-3.366.975-1.04.595-2.22 1.27-4.479 1.27-2.258 0-3.438-.675-4.478-1.27-.914-.524-1.702-.975-3.367-.975-1.662 0-2.452.451-3.366.975-1.04.595-2.22 1.27-4.478 1.27-2.258 0-3.438-.675-4.478-1.27-.913-.524-1.703-.975-3.366-.975-1.664 0-2.453.451-3.366.975-1.04.595-2.22 1.27-4.479 1.27a1.122 1.122 0 0 1 0-2.245c1.664 0 2.453-.452 3.367-.974 1.04-.596 2.22-1.271 4.478-1.271 2.258 0 3.438.675 4.478 1.27.914.523 1.703.975 3.366.975 1.664 0 2.453-.452 3.367-.974 1.04-.596 2.219-1.271 4.478-1.271s3.438.675 4.478 1.27c.914.523 1.703.975 3.366.975 1.664 0 2.453-.452 3.367-.974 1.04-.596 2.22-1.271 4.478-1.271 2.259 0 3.438.675 4.48 1.27.913.523 1.702.975 3.366.975zm-7.846 2.245a1.121 1.121 0 0 1 0 2.245c-1.663 0-2.452.451-3.366.974-1.04.595-2.22 1.271-4.479 1.271-2.258 0-3.438-.676-4.478-1.271-.914-.523-1.702-.974-3.367-.974-1.662 0-2.452.451-3.366.974-1.04.595-2.22 1.271-4.478 1.271-2.258 0-3.438-.676-4.478-1.271-.913-.523-1.703-.974-3.366-.974a1.122 1.122 0 0 1 0-2.245c2.258 0 3.438.675 4.478 1.27.914.523 1.703.975 3.366.975 1.664 0 2.453-.452 3.367-.975 1.04-.595 2.219-1.27 4.478-1.27s3.438.675 4.478 1.27c.914.523 1.703.975 3.366.975 1.664 0 2.453-.452 3.367-.975 1.04-.595 2.22-1.27 4.478-1.27z"/></defs><g><g transform="translate(-246 -1341)"><use fill="#714195" xlink:href="#puusa"/></g></g></svg>