<svg xmlns="http://www.w3.org/2000/svg" xmlns:xlink="http://www.w3.org/1999/xlink" width="54" height="54" viewBox="0 0 54 54"><defs><path id="fg5ha" d="M486.7 1542.397c.005-.59.265-1.15.713-1.534.187-.186.187-.195.187-.264 0-.07 0-.079-.187-.265a2.046 2.046 0 0 1-.713-1.536.9.9 0 0 1 1.8 0c0 .067 0 .076.186.262a2.012 2.012 0 0 1 0 3.074c-.186.186-.186.195-.186.263a.9.9 0 1 1-1.8 0zm-9-1.8c.005-.59.264-1.15.713-1.534.187-.186.187-.195.187-.265 0-.069 0-.078-.187-.264a2.043 2.043 0 0 1-.713-1.536.9.9 0 1 1 1.8 0c0 .067 0 .076.186.262a2.013 2.013 0 0 1 0 3.074c-.186.186-.186.195-.186.264a.9.9 0 0 1-1.8 0zm14.787-13.893c.026.06.045.121.057.185.293.942.446 1.922.456 2.91a5.333 5.333 0 0 1-5.25 5.4 5.425 5.425 0 0 1-4.37-2.716 5.309 5.309 0 0 1-4.33 2.715 5.424 5.424 0 0 1-4.369-2.715 5.31 5.31 0 0 1-4.331 2.715 4.95 4.95 0 0 1-3.45-1.573v12.372h9.074a7.616 7.616 0 0 1 5.326-2.653v-.947a.9.9 0 0 1 1.8 0v.947c3.15.297 5.67 2.122 6.192 4.453h.108a.9.9 0 0 1 0 1.8h-.108a5.543 5.543 0 0 1-3.06 3.57l.63 2.729h.738a.9.9 0 0 1 0 1.8h-.322l1.2 5.197a.9.9 0 0 1-1.755.405l-1.293-5.602h-6.46l-.02.081 3.109 4.832a.9.9 0 1 1-1.514.973l-2.16-3.355-.708 3.071a.9.9 0 1 1-1.755-.405l1.2-5.197H466.9v5.4a.9.9 0 1 1-1.8 0v-5.4h-9.859l-3.784 5.886a.9.9 0 1 1-1.514-.973l3.158-4.913h-8.7a.9.9 0 1 1 0-1.8h9.857l2.893-4.5h-4.65a2.694 2.694 0 0 1-.901-5.234v-1.965a1.8 1.8 0 0 1 1.8-1.8h1.8a1.8 1.8 0 0 1 1.8 1.8v1.8h8.1v-12.39a4.894 4.894 0 0 1-3.45 1.591 5.424 5.424 0 0 1-4.37-2.715 5.31 5.31 0 0 1-4.33 2.715 5.423 5.423 0 0 1-4.369-2.715 5.31 5.31 0 0 1-4.331 2.715 5.332 5.332 0 0 1-5.25-5.4c.01-.98.161-1.954.45-2.89a.869.869 0 0 1 .065-.21c2.653-8.355 15.26-16.698 26.485-16.698s23.838 8.348 26.487 16.704zm-39.087 19.293h1.8v-1.8h-1.8zm-1.8 2.7a.9.9 0 0 0 .9.9h12.6v-1.8h-12.6a.9.9 0 0 0-.9.9zm13.5 7.199v-4.5h-5.809l-2.892 4.5zm1.8 0h8.701l-2.892-4.5h-5.81zm7.949-4.5l2.743 4.267.576-2.495a6.467 6.467 0 0 1-2.194-1.771zm9.682 2.404a9.32 9.32 0 0 1-4.662 0l-.484 2.096h5.629zm-2.331-1.504c2.462 0 4.596-1.17 5.215-2.7h-10.416c.043.12.095.237.156.35.78 1.36 2.773 2.35 5.045 2.35zm0-7.199c-2.272 0-4.265.99-5.045 2.351-.06.113-.113.23-.156.349h10.416c-.619-1.53-2.753-2.7-5.215-2.7zm-15.3 2.7v1.8h8.1a.9.9 0 0 1 0-1.8zm23.498-21.598c-2.237-5.268-8.906-10.492-16.187-12.948 4.402 3.09 8.403 7.99 8.845 12.948zm-25.298 0v-13.58c-2.865 2.54-5.924 8.533-6.261 13.58zm-8.061 0a25.408 25.408 0 0 1 5.594-13.568c-4.903 2.076-11.267 7.749-11.88 13.568zm9.861 0h6.26c-.336-5.047-3.394-11.04-6.26-13.58zm14.345 0c-.611-5.82-6.975-11.492-11.88-13.568a25.404 25.404 0 0 1 5.596 13.568zm-23.457-12.948c-7.28 2.456-13.948 7.68-16.186 12.948h7.342c.442-4.959 4.443-9.857 8.844-12.948zm29.962 20.147a3.532 3.532 0 0 0 3.45-3.6 8.211 8.211 0 0 0-.214-1.8h-49.972a8.221 8.221 0 0 0-.214 1.8 3.531 3.531 0 0 0 3.45 3.6 3.779 3.779 0 0 0 2.859-1.89 1.784 1.784 0 0 1 2.982 0 3.78 3.78 0 0 0 2.86 1.89 3.78 3.78 0 0 0 2.857-1.89 1.784 1.784 0 0 1 2.983 0 3.777 3.777 0 0 0 2.86 1.89 3.78 3.78 0 0 0 2.858-1.89 1.784 1.784 0 0 1 2.983 0 3.779 3.779 0 0 0 2.858 1.89 3.779 3.779 0 0 0 2.859-1.89 1.783 1.783 0 0 1 2.982 0 3.78 3.78 0 0 0 2.859 1.89 3.78 3.78 0 0 0 2.859-1.89 1.782 1.782 0 0 1 2.982 0 3.78 3.78 0 0 0 2.859 1.89z"/></defs><g><g transform="translate(-439 -1510)"><use fill="#714195" xlink:href="#fg5ha"/></g></g></svg>