<svg xmlns="http://www.w3.org/2000/svg" xmlns:xlink="http://www.w3.org/1999/xlink" width="35" height="35" viewBox="0 0 35 35"><defs><path id="xzlra" d="M830 1560.924v2.05c0 .567-.46 1.026-1.025 1.026h-32.95a1.025 1.025 0 0 1-1.025-1.025v-2.051c0-1.337.857-2.477 2.05-2.9v-1.202a3.08 3.08 0 0 1 3.077-3.076h9.297v-2.05h-11.348a1.025 1.025 0 0 1-1.025-1.026c0-7.35 6.01-13.33 13.398-13.33h1.026v-2.188h-3.077a1.025 1.025 0 0 1-1.025-1.025c0-2.827 2.3-5.127 5.127-5.127s5.127 2.3 5.127 5.127c0 .566-.46 1.025-1.025 1.025h-3.077v2.188h1.026c7.388 0 13.398 5.98 13.398 13.33 0 .566-.459 1.025-1.025 1.025h-11.348v2.051h9.297a3.08 3.08 0 0 1 3.076 3.076v1.201a3.082 3.082 0 0 1 2.051 2.9zm-14.6-27.823a3.082 3.082 0 0 0-2.9-2.05 3.082 3.082 0 0 0-2.9 2.05zm10.452 16.544c-.523-5.742-5.392-10.254-11.301-10.254h-4.102c-5.91 0-10.778 4.512-11.301 10.254zm-14.377 2.05v2.051h2.05v-2.05zm16.474 9.229c0-.565-.46-1.026-1.025-1.026h-8.203a1.026 1.026 0 0 1 0-2.05h7.177v-1.026c0-.565-.46-1.025-1.025-1.025h-24.746c-.565 0-1.025.46-1.025 1.025v1.026h7.246a1.026 1.026 0 0 1 0 2.05h-8.272c-.565 0-1.025.46-1.025 1.026v1.025h30.898z"/></defs><g><g transform="translate(-795 -1529)"><use fill="#714195" xlink:href="#xzlra"/></g></g></svg>