<svg xmlns="http://www.w3.org/2000/svg" xmlns:xlink="http://www.w3.org/1999/xlink" width="54" height="44" viewBox="0 0 54 44"><defs><path id="q7cna" d="M659.391 1352c1.99 0 3.609 1.62 3.609 3.613v34.627a2.155 2.155 0 0 1-2.152 2.153h-1.285v1.495h1.855a1.056 1.056 0 0 1 0 2.112h-51.047a1.055 1.055 0 0 1 0-2.112h.64v-15.91a3.477 3.477 0 0 1 3.471-3.475h1.091l-.197-2.061a2.743 2.743 0 0 1-1.854-2.393l-.097-1.359-.004-.057-.301-4.204v-.002l-.125-1.738a.912.912 0 0 0-.906-.844h-2.034a1.056 1.056 0 0 1 0-2.111h2.034a3.03 3.03 0 0 1 3.01 2.804l.055.76h8.266a1.055 1.055 0 0 1 1.052 1.131l-.402 5.62a2.743 2.743 0 0 1-1.854 2.393l-.198 2.061h5.71l-.216-1.541a1.055 1.055 0 0 1 1.043-1.203h1.041a1.055 1.055 0 0 1 .171 2.098l.09.646h3.063l.096-.683a1.056 1.056 0 0 1 .32-2.061h.886a1.054 1.054 0 0 1 1.044 1.203l-.216 1.541h4.316v-18.89a3.615 3.615 0 0 1 3.61-3.613zm-17.916 14.486h19.416v-10.873c0-.828-.673-1.502-1.5-1.502h-16.416c-.826 0-1.5.674-1.5 1.502zm0 27.402h1.328v-1.495H641.475zm-26.17-28.478l.1 1.404.221 3.084a.62.62 0 0 0 .617.574h5.105a.62.62 0 0 0 .617-.574l.322-4.488zm2.387 9.093h2.208l.183-1.919h-2.574zm-3.21 2.112c-.751 0-1.362.611-1.362 1.362v6.219h26.246v-7.581zm24.884 17.273v-7.58H613.12v7.58zm7.04 0v-1.495h-1.493v1.495zm2.11-1.495v1.495h5.334v-1.495zm8.937 0h-1.493v1.495h1.493zm3.395-2.111a.042.042 0 0 0 .043-.043v-21.642h-19.416v21.642c0 .024.02.043.043.043zm-37.72-8.353a1.055 1.055 0 0 1-1.055-1.055v-1.35a1.055 1.055 0 1 1 2.11 0v.294h3.487v-.293a1.055 1.055 0 1 1 2.11 0v1.349c0 .583-.472 1.055-1.055 1.055zm5.597 6.272c.583 0 1.055.472 1.055 1.055v1.35c0 .582-.472 1.055-1.055 1.055h-5.597a1.056 1.056 0 0 1-1.055-1.056v-1.349a1.055 1.055 0 1 1 2.11 0v.293h3.487v-.293c0-.583.473-1.055 1.055-1.055zm27.981-16.942a2.93 2.93 0 0 1 2.926 2.927c0 .694-.255 1.936-.606 2.952-.217.629-.878 2.542-2.32 2.542-1.441 0-2.102-1.913-2.319-2.542-.35-1.016-.605-2.258-.605-2.952a2.93 2.93 0 0 1 2.924-2.927zm.44 4.839c.26-.858.376-1.634.376-1.912a.817.817 0 0 0-1.63 0c0 .278.116 1.054.376 1.912.158.523.313.89.438 1.135.127-.246.281-.612.44-1.135zm-.44-19.306a2.917 2.917 0 0 1 2.913 2.915c0 .69-.253 1.924-.602 2.934-.216.626-.873 2.53-2.31 2.53s-2.095-1.904-2.31-2.53c-.35-1.01-.602-2.244-.602-2.934a2.917 2.917 0 0 1 2.911-2.915zm.43 4.81c.258-.851.374-1.62.374-1.894a.805.805 0 0 0-.804-.805.804.804 0 0 0-.802.805c0 .274.116 1.043.373 1.894.155.512.305.872.43 1.116.124-.243.275-.604.43-1.116zm-12.242 15.109c.583 0 1.055.472 1.055 1.055v9.571a1.055 1.055 0 1 1-2.11 0v-9.57c0-.584.473-1.056 1.055-1.056zm0-4.223a1.055 1.055 0 1 1-1.054 1.058v-.003c0-.583.472-1.055 1.054-1.055z"/></defs><g><g transform="translate(-609 -1352)"><use fill="#714195" xlink:href="#q7cna"/></g></g></svg>