<svg xmlns="http://www.w3.org/2000/svg" xmlns:xlink="http://www.w3.org/1999/xlink" width="55" height="55" viewBox="0 0 55 55"><defs><path id="cwdva" d="M961.797 1364.98a1.075 1.075 0 1 1 0-2.149 1.075 1.075 0 0 1 0 2.15zM946.113 1345a5.377 5.377 0 0 1 5.371 5.371c0 .41-.05.817-.141 1.212a3.222 3.222 0 0 1-.933 6.307h-17.187a3.226 3.226 0 0 1-3.223-3.222 3.226 3.226 0 0 1 3.223-3.223h1.182a5.38 5.38 0 0 1 7.17-3.947 5.38 5.38 0 0 1 4.538-2.498zm0 2.149c-1.12 0-2.142.581-2.723 1.5a5.363 5.363 0 0 1 1.54 2.796h4.221a3.226 3.226 0 0 0-3.038-4.297zm4.297 8.593a1.075 1.075 0 0 0 0-2.148h-6.445c-.593 0-1.074-.481-1.074-1.075a3.223 3.223 0 0 0-6.446 0c0 .594-.48 1.075-1.074 1.075h-2.148a1.075 1.075 0 0 0 0 2.148zm32.442 42.11h1.074a1.074 1.074 0 1 1 0 2.148h-32.55a1.074 1.074 0 1 1 0-2.149h.753v-14.953a6.636 6.636 0 0 0-4.59 3.054l-6.57 10.514a7.478 7.478 0 0 1-6.377 3.534h-3.518c-.593 0-1.074-.481-1.074-1.074v-6.445c0-.594.48-1.075 1.074-1.075h3.752c.372 0 .713-.189.91-.505l5.556-8.89a16.535 16.535 0 0 1 10.837-7.476v-10.629c0-.206.065-.414.167-.575l8.427-13.272v-3.985a1.074 1.074 0 0 1 2.148 0v3.985l8.426 13.272a1.1 1.1 0 0 1 .168.575v10.313h6.015a5.377 5.377 0 0 1 5.372 5.37v1.075h1.074a1.074 1.074 0 0 1 0 2.149h-1.074zm-28.575-17.188h15.04v-15.684h-3.223a1.074 1.074 0 1 1 0-2.148h2.342l-6.64-10.457-6.638 10.457h2.342a1.074 1.074 0 1 1 0 2.148h-3.223zm17.188 10.742h9.238v-3.222h-9.238zm9.238-8.593h-9.238v3.222h9.238zm-9.238-6.446v4.297h9.238v-1.074a3.226 3.226 0 0 0-3.223-3.223zm-25.747 8.446a8.769 8.769 0 0 1 6.41-4.084v-3.998a14.392 14.392 0 0 0-9.014 6.419l-5.556 8.89a3.205 3.205 0 0 1-2.732 1.515h-2.678v4.296h2.444a5.343 5.343 0 0 0 4.555-2.524zm8.56 13.038h2.148v-7.52a5.37 5.37 0 1 1 10.742 0v7.52h2.148v-15.038h-15.039zm10.742-7.52a3.222 3.222 0 1 0-6.446 0v7.52h6.446zm15.683 7.52v-4.296h-9.238v4.296zm-18.906-29.003a4.302 4.302 0 0 1 4.297 4.297 4.302 4.302 0 0 1-4.297 4.296 4.302 4.302 0 0 1-4.297-4.296 4.302 4.302 0 0 1 4.297-4.297zm0 6.445a2.151 2.151 0 0 0 2.148-2.148 2.151 2.151 0 0 0-2.148-2.149 2.151 2.151 0 0 0-2.149 2.149c0 1.184.964 2.148 2.149 2.148z"/></defs><g><g transform="translate(-930 -1345)"><use fill="#714195" xlink:href="#cwdva"/></g></g></svg>