<svg xmlns="http://www.w3.org/2000/svg" xmlns:xlink="http://www.w3.org/1999/xlink" width="41" height="31" viewBox="0 0 41 31"><defs><path id="w0gxa" d="M1025.5 620.248c2.066 0 3.742 1.742 3.742 3.88S1027.566 628 1025.5 628c-2.068 0-3.744-1.734-3.744-3.872s1.676-3.88 3.744-3.88zm20.067-13.547c.664.82.56 2.042-.231 2.73a1.823 1.823 0 0 1-2.634-.239c-4.298-5.286-10.57-8.32-17.202-8.32-6.639 0-12.906 3.034-17.204 8.327a1.83 1.83 0 0 1-2.632.232 1.985 1.985 0 0 1-.233-2.73c5.011-6.163 12.327-9.701 20.069-9.701 7.742 0 15.056 3.538 20.067 9.7zm-20.067-1.949c5.529 0 10.752 2.522 14.33 6.925.671.82.568 2.043-.225 2.73-.354.31-.78.454-1.207.454a1.85 1.85 0 0 1-1.433-.686c-2.865-3.526-7.04-5.551-11.465-5.551-4.426 0-8.602 2.025-11.467 5.551a1.849 1.849 0 0 1-1.433.686c-.426 0-.853-.15-1.206-.453-.793-.688-.891-1.91-.226-2.73 3.578-4.404 8.803-6.926 14.332-6.926zm0 7.752c3.322 0 6.454 1.513 8.6 4.156a1.977 1.977 0 0 1-.231 2.724 1.79 1.79 0 0 1-1.202.455 1.858 1.858 0 0 1-1.439-.687c-1.426-1.767-3.515-2.776-5.728-2.776-2.213 0-4.304 1.01-5.73 2.776a1.855 1.855 0 0 1-1.44.687 1.79 1.79 0 0 1-1.201-.455 1.979 1.979 0 0 1-.231-2.724c2.146-2.643 5.28-4.156 8.602-4.156z"/></defs><g><g transform="translate(-1005 -597)"><use fill="#fff" xlink:href="#w0gxa"/></g></g></svg>