<?xml version="1.0" encoding="utf-8"?><svg xmlns="http://www.w3.org/2000/svg" xmlns:xlink="http://www.w3.org/1999/xlink"><symbol viewBox="0 0 344.96 344.96" id="check" xmlns="http://www.w3.org/2000/svg"><g data-name="Слой 2"><path d="M321.85 86.24l-40-23.11-23.1-40H212.5L172.48 0l-40 23.11H86.24l-23.11 40-40 23.1v46.21L0 172.48l23.11 40v46.21l40 23.11 23.11 40h46.21l40 23.1 40-23.11h46.21l23.11-40 40-23.11V212.5l23.11-40-23.11-40V86.24zM156.91 243.07a16.79 16.79 0 0 1-23.34 0l-50.45-50.44a16.19 16.19 0 0 1 0-22.89l13.35-13.35a16.19 16.19 0 0 1 22.89 0l25.87 25.87 80.34-80.35a16.19 16.19 0 0 1 22.89 0l13.35 13.35a16.19 16.19 0 0 1 0 22.89z" data-name="Capa 1"/></g></symbol><symbol viewBox="0 0 294 291.94" id="tel" xmlns="http://www.w3.org/2000/svg"><g data-name="Слой 2"><path d="M0 66.3c2-17.21 9.52-32.4 17.23-47.53a67.59 67.59 0 0 1 4.88-8.68c8.63-12.19 23.8-13.51 34.54-3 14.53 14.22 28.92 28.56 43.4 42.83a27.29 27.29 0 0 1 8.31 16.63A16.75 16.75 0 0 1 103 81.44c-7.86 7.45-15.55 15.08-23.57 22.35-2.73 2.48-3 4.5-1.5 7.7 11 24.1 27.52 43.92 47.12 61.37A302.92 302.92 0 0 0 182 212.38c3.4 1.86 5.57 2.08 8.44-1.14 6.2-7 13-13.43 19.43-20.14 9.4-9.75 22.24-10.3 31.86-.64 15.86 15.94 31.44 32.17 46.91 48.48 2.41 2.55 3.64 6.21 5.41 9.36v4c-2.85 11-10.18 18.71-19.43 24.35-8.18 5-16.77 9.73-25.79 12.77a56 56 0 0 1-22 2.3c-32.45-2.71-62-14.42-89.8-30.86-41.7-24.62-74.41-58.38-100.87-98.61-13.01-19.66-24.99-39.79-31.49-62.62C2.59 92.33 1.53 84.75 0 77.3z" data-name="Слой 1"/></g></symbol></svg>