<?xml version="1.0" encoding="utf-8"?><svg xmlns="http://www.w3.org/2000/svg" xmlns:xlink="http://www.w3.org/1999/xlink"><symbol viewBox="0 0 14 8" id="arr-down" xmlns="http://www.w3.org/2000/svg"><defs><path id="aa" d="M264.293 239.707l1.414-1.414 5.293 5.293 5.293-5.293 1.414 1.414-6 6L271 245l-.707.707z"/></defs><use xlink:href="#aa" transform="translate(-264 -238)"/></symbol><symbol viewBox="0 0 7 11" id="arr-left" xmlns="http://www.w3.org/2000/svg"><defs><path id="ba" d="M452.293 2112.706l.207-.208-.207-.207 5-5 1.414 1.415-3.793 3.792 3.793 3.793-1.414 1.414z"/></defs><g transform="translate(-452 -2107)"><use xlink:href="#ba"/><use xlink:href="#ba"/></g></symbol><symbol viewBox="0 0 7 11" id="arr-right" xmlns="http://www.w3.org/2000/svg"><defs><path id="ca" d="M1467.707 2117.705l-1.414-1.414 3.793-3.793-3.793-3.792 1.414-1.415 5 5-.208.207.208.208z"/></defs><g transform="translate(-1466 -2107)"><use xlink:href="#ca"/><use xlink:href="#ca"/></g></symbol><symbol viewBox="0 0 344.96 344.96" id="check" xmlns="http://www.w3.org/2000/svg"><g data-name="Слой 2"><path d="M321.85 86.24l-40-23.11-23.1-40H212.5L172.48 0l-40 23.11H86.24l-23.11 40-40 23.1v46.21L0 172.48l23.11 40v46.21l40 23.11 23.11 40h46.21l40 23.1 40-23.11h46.21l23.11-40 40-23.11V212.5l23.11-40-23.11-40V86.24zM156.91 243.07a16.79 16.79 0 0 1-23.34 0l-50.45-50.44a16.19 16.19 0 0 1 0-22.89l13.35-13.35a16.19 16.19 0 0 1 22.89 0l25.87 25.87 80.34-80.35a16.19 16.19 0 0 1 22.89 0l13.35 13.35a16.19 16.19 0 0 1 0 22.89z" data-name="Capa 1"/></g></symbol><symbol viewBox="0 0 504 286" id="eye" xmlns="http://www.w3.org/2000/svg"><g data-name="Слой 2"><path d="M266 286h-30c-5.26-.62-10.52-1.28-15.78-1.87C165 278 115.73 257.38 73.42 221.48c-20.77-17.62-39.8-37.3-59.81-55.84C7.55 160 2.11 154.23 0 146v-6c2.73-4.45 4.7-9.67 8.31-13.22C27.29 108.1 46.39 89.52 66 71.52c41.68-38.2 90.83-60.8 146.78-68.66C220.84 1.74 228.93.95 237 0h30c5.43.63 10.86 1.27 16.3 1.87 55.3 6.13 104.55 26.84 146.77 63 21.22 18.16 40.83 38.21 61.27 57.31 5.25 4.9 10.2 9.91 12.67 16.84v7c-2.46 4.24-4.14 9.29-7.52 12.6-19.16 18.76-38.26 37.64-58.26 55.49-42.6 38-92.3 61.25-149 69.12-7.73 1.04-15.49 1.84-23.23 2.77zm56.41-142.84a71.41 71.41 0 1 0-71.2 71.25 71.26 71.26 0 0 0 71.2-71.25zm-137 91.92c-63.56-47.74-62.31-138.35-.5-183.86-1.56.38-2.48.55-3.37.82a233 233 0 0 0-61 29.16c-25.57 17.1-45.88 40-68 61-.21.2-.23.59-.64 1.76 17.38 16.2 34.45 33.32 52.82 48.92 23.16 19.69 50.03 33.18 80.7 42.2zm131-184.17C347.1 75 363.93 105 363.93 143s-16.93 68-47.45 92.09a231.27 231.27 0 0 0 64.78-30.14c25.73-17.16 46.19-40.18 68.35-61.31.19-.18.15-.61.28-1.23C437 129.9 424.4 116.7 410.7 104.84A388.24 388.24 0 0 0 371.37 75C355 64.14 336.74 56.77 316.45 50.92z" data-name="Слой 1"/></g></symbol><symbol viewBox="0 0 512 319.76" id="mail" xmlns="http://www.w3.org/2000/svg"><defs><style>.fcls-1{fill:#19ba70}</style></defs><g id="fСлой_2" data-name="Слой 2"><g id="fСлой_1-2" data-name="Слой 1"><path class="fcls-1" d="M30 0h453c1.42 2.78-1.32 3.36-2.57 4.47Q427.11 51.68 373.7 98.75 316.76 149 259.89 199.36c-3 2.68-4.75 2.76-7.65 0-6.11-5.89-12.62-11.36-19-17Q133.1 93.07 32.93 3.82C31.73 2.75 30.08 2 30 0zm482 294c-2.22 2.35-1.83 6-4.57 8.7-7.64-6.65-15.36-13.33-23-20.05q-65.84-57.57-131.73-115.06c-4-3.51-3.2-4.89.26-7.93Q429 92.85 504.72 25.79c4.88-4.31 4.87-4.33 7.28 1.21zM0 25c1.79-1 1.18-3.35 2.8-5 7.39 6.54 14.86 13.1 22.28 19.71Q92.76 100 160.48 160.23c2.81 2.49 2.58 3.62-.08 5.9q-77.22 66-154.29 132.29c-2.35 2-3.75 2.56-4.64-1-.22-.87-.25-2.05-1.47-2.39z"/><path class="fcls-1" d="M30.23 319.76c14.08-12.08 27.2-23.36 40.33-34.61q56.73-48.63 113.4-97.33c3.06-2.63 4.66-2.59 7.64.11 20.13 18.22 40.51 36.16 60.68 54.35 2.73 2.47 4.29 2.73 7.21.11 20.51-18.33 41.18-36.39 61.73-54.68 2.22-2 3.55-2.36 6-.17q74 65 148.12 129.75c.69.6 1.77 1 1.77 2.47z"/></g></g></symbol><symbol viewBox="0 0 458 458.26" id="search" xmlns="http://www.w3.org/2000/svg"><g data-name="Слой 2"><path d="M190 0c0 2 1.47 1.84 2.79 2 73.97 7.5 136.66 65 152.77 136.78 11.18 49.81.63 95.58-28.82 137.11a103.26 103.26 0 0 1-6.33 8.34c-2.39 2.75-2.42 4.67.42 7.38 8.92 8.52 17.52 17.37 26.24 26.09q56.21 56.21 112.47 112.37A63.92 63.92 0 0 1 458 441v6c-3.21 6.9-7.47 12-16.22 11.17-4.07-.39-6.71-2.5-9.34-5.12q-63.09-63.14-126.21-126.22c-4.83-4.83-9.92-9.44-14.4-14.57-3.17-3.63-5.6-3.35-9-.54a170.72 170.72 0 0 1-99.69 38.46c-44.12 2.19-83-11.6-116.89-39S11 248.69 2.77 205.68c-.48-2.51 1-6.19-2.77-7.68v-3c1.68-2 1.36-4 0-6v-26c1.4-2.33 1.7-4.67 0-7v-2c2 0 1.78-1.49 2-2.8.82-4.73 1.48-9.51 2.61-14.17C13 102.65 30.33 73.5 56.1 49.26 82.79 24.16 114 8.37 150.28 2.69 153.42 2.2 157.69 4 160 0h4a49.36 49.36 0 0 0 22 0zm131.12 175.89c1.17-80.95-62.22-146.8-146-146.73C92 29.24 28.4 91.76 28.33 175.78c-.06 83.85 64.31 146 146.45 146.41s147.36-64.62 146.34-146.3z" data-name="Слой 1"/></g></symbol><symbol viewBox="0 0 294 291.94" id="tel" xmlns="http://www.w3.org/2000/svg"><g data-name="Слой 2"><path d="M0 66.3c2-17.21 9.52-32.4 17.23-47.53a67.59 67.59 0 0 1 4.88-8.68c8.63-12.19 23.8-13.51 34.54-3 14.53 14.22 28.92 28.56 43.4 42.83a27.29 27.29 0 0 1 8.31 16.63A16.75 16.75 0 0 1 103 81.44c-7.86 7.45-15.55 15.08-23.57 22.35-2.73 2.48-3 4.5-1.5 7.7 11 24.1 27.52 43.92 47.12 61.37A302.92 302.92 0 0 0 182 212.38c3.4 1.86 5.57 2.08 8.44-1.14 6.2-7 13-13.43 19.43-20.14 9.4-9.75 22.24-10.3 31.86-.64 15.86 15.94 31.44 32.17 46.91 48.48 2.41 2.55 3.64 6.21 5.41 9.36v4c-2.85 11-10.18 18.71-19.43 24.35-8.18 5-16.77 9.73-25.79 12.77a56 56 0 0 1-22 2.3c-32.45-2.71-62-14.42-89.8-30.86-41.7-24.62-74.41-58.38-100.87-98.61-13.01-19.66-24.99-39.79-31.49-62.62C2.59 92.33 1.53 84.75 0 77.3z" data-name="Слой 1"/></g></symbol></svg>