<?xml version="1.0" encoding="utf-8"?><svg xmlns="http://www.w3.org/2000/svg" xmlns:xlink="http://www.w3.org/1999/xlink"><symbol viewBox="0 0 256 512" id="angle-down" xmlns="http://www.w3.org/2000/svg"><path d="M119.5 326.9L3.5 209.1c-4.7-4.7-4.7-12.3 0-17l7.1-7.1c4.7-4.7 12.3-4.7 17 0L128 287.3l100.4-102.2c4.7-4.7 12.3-4.7 17 0l7.1 7.1c4.7 4.7 4.7 12.3 0 17L136.5 327c-4.7 4.6-12.3 4.6-17-.1z"/></symbol><symbol viewBox="0 0 192 512" id="angle-left" xmlns="http://www.w3.org/2000/svg"><path d="M25.1 247.5l117.8-116c4.7-4.7 12.3-4.7 17 0l7.1 7.1c4.7 4.7 4.7 12.3 0 17L64.7 256l102.2 100.4c4.7 4.7 4.7 12.3 0 17l-7.1 7.1c-4.7 4.7-12.3 4.7-17 0L25 264.5c-4.6-4.7-4.6-12.3.1-17z"/></symbol><symbol viewBox="0 0 192 512" id="angle-right" xmlns="http://www.w3.org/2000/svg"><path d="M166.9 264.5l-117.8 116c-4.7 4.7-12.3 4.7-17 0l-7.1-7.1c-4.7-4.7-4.7-12.3 0-17L127.3 256 25.1 155.6c-4.7-4.7-4.7-12.3 0-17l7.1-7.1c4.7-4.7 12.3-4.7 17 0l117.8 116c4.6 4.7 4.6 12.3-.1 17z"/></symbol><symbol viewBox="0 0 256 512" id="angle-up" xmlns="http://www.w3.org/2000/svg"><path d="M136.5 185.1l116 117.8c4.7 4.7 4.7 12.3 0 17l-7.1 7.1c-4.7 4.7-12.3 4.7-17 0L128 224.7 27.6 326.9c-4.7 4.7-12.3 4.7-17 0l-7.1-7.1c-4.7-4.7-4.7-12.3 0-17l116-117.8c4.7-4.6 12.3-4.6 17 .1z"/></symbol><symbol viewBox="0 0 307.23 295" id="calendar" xmlns="http://www.w3.org/2000/svg"><g data-name="Слой 2"><g data-name="Слой 1"><path d="M237.23 0h10v29h60v266H.23c-.06-1.83-.18-3.66-.18-5.48Q0 174.89 0 60.26V28.87h60.23V0h10v28.59h167zm.29 39.23H69.88v21.66H59.66v-21.6H10.37v245.32H297V39.27h-49.63v21.81h-9.86z"/><path d="M105.07 119.31v9.26H50.82v-9.26zm75.74.1v9.23H126.7v-9.23zm75.76-.09v9.39h-54.08v-9.39zm-151.62 35.91v9.38H50.86v-9.38zm75.93.07v9.24H126.7v-9.24zm21.49 9.24v-9.24h54.19v9.24zM50.84 200.67v-9.25h54.05v9.25zm129.98-9.16v9.24H126.7v-9.24zm21.69-.21h53.92v9.49h-53.92zM51.44 236.64v-9.39h54.07v9.39zm129.74-9.33v9.38h-53.75v-9.38z"/></g></g></symbol><symbol viewBox="0 0 512 512" id="check" xmlns="http://www.w3.org/2000/svg"><path d="M435.848 83.466L172.804 346.51l-96.652-96.652c-4.686-4.686-12.284-4.686-16.971 0l-28.284 28.284c-4.686 4.686-4.686 12.284 0 16.971l133.421 133.421c4.686 4.686 12.284 4.686 16.971 0l299.813-299.813c4.686-4.686 4.686-12.284 0-16.971l-28.284-28.284c-4.686-4.686-12.284-4.686-16.97 0z"/></symbol><symbol viewBox="0 0 264 512" id="facebook-f" xmlns="http://www.w3.org/2000/svg"><path d="M76.7 512V283H0v-91h76.7v-71.7C76.7 42.4 124.3 0 193.8 0c33.3 0 61.9 2.5 70.2 3.6V85h-48.2c-37.8 0-45.1 18-45.1 44.3V192H256l-11.7 91h-73.6v229"/></symbol><symbol viewBox="0 0 398 305" id="filter" xmlns="http://www.w3.org/2000/svg"><defs><style>.hcls-1{fill:#b8b8b8}.hcls-2{fill:#b7b7b7}</style></defs><g id="hСлой_2" data-name="Слой 2"><g id="hСлой_1-2" data-name="Слой 1"><path class="hcls-1" d="M398 42c-2.94 3.56-6.61 4.94-11.31 4.94q-131.69-.14-263.3-.07c-7.65 0-12-3-12.07-8.23s4.46-8.46 12-8.46q131.9 0 263.8-.12c4.72 0 7.74 2.26 10.9 4.94z"/><path class="hcls-2" d="M398 155c-2.6 3.64-5.94 5.1-10.59 5.09q-132.65-.18-265.29-.09c-6.79 0-10-2.4-10.23-7.51-.19-4.67 2.6-8 7.24-8.45a32.87 32.87 0 0 1 3.5 0q132.15 0 264.29-.08c4.74 0 8.44 1.08 11.08 5.09zm0 114c-3.23 4.3-7.65 5-12.77 5q-131.49-.16-263-.08c-6.57 0-9.9-2.26-10.33-6.93-.53-5.76 2.7-9.07 9.05-9.08h81q92.5 0 185-.07c4.74 0 8.47 1 11.05 5.14zM0 259c1.78-3.89 2.81-8.07 4.87-11.88 7.74-14.32 24.57-22.14 41.06-18.9 15.46 3 27.95 16.63 30.14 32.13 3.4 24.08-15.84 44.37-38.49 43.7-1.52 0-3.37-.84-4.58 1h-2c.22-2.07-1.44-1.81-2.64-2.14a39.93 39.93 0 0 1-19.43-12.44C4.4 285.42 2.43 279.1 0 273zm38.4-15.11c-12.67 0-22.26 9.32-22.4 21.85-.14 12.07 10 22.19 22.23 22.26a21.61 21.61 0 0 0 21.89-21.8c.08-12.92-9.04-22.28-21.72-22.31zM0 144c3.28-7.79 6.68-15.43 13.44-21.08 11.7-9.77 24.91-11.75 38.73-6.47s21.74 15.83 23.83 30.6c3.38 23.33-16 46.48-43.38 42.73-15-2-25.24-11.1-30.67-25.36-.57-1.51-.54-3.31-2-4.42zm60.13 7.81c0-12.51-9.31-21.84-21.73-21.86a22.05 22.05 0 1 0-.13 44.1c12.63.02 21.89-9.41 21.86-22.24zM43 0c8.84 2.45 17 5.83 23.54 12.81 18.9 20.07 9.19 54.57-17.24 62.46A38.94 38.94 0 0 1 1.16 48.61C.89 47.68 1 46.58 0 46V32c3.19-9.73 7.42-18.69 16.25-24.82C21.4 3.6 27.42 2.38 33 0zm17.12 38.63c.89-11.41-8.86-22.15-21.84-22.4C26.12 16 16 26.49 16 38.52a22.63 22.63 0 0 0 22.18 22.39c12.26.17 21.92-9.64 21.94-22.28z"/></g></g></symbol><symbol viewBox="0 0 448 512" id="instagram" xmlns="http://www.w3.org/2000/svg"><path d="M224.1 141c-63.6 0-114.9 51.3-114.9 114.9s51.3 114.9 114.9 114.9S339 319.5 339 255.9 287.7 141 224.1 141zm0 189.6c-41.1 0-74.7-33.5-74.7-74.7s33.5-74.7 74.7-74.7 74.7 33.5 74.7 74.7-33.6 74.7-74.7 74.7zm146.4-194.3c0 14.9-12 26.8-26.8 26.8-14.9 0-26.8-12-26.8-26.8s12-26.8 26.8-26.8 26.8 12 26.8 26.8zm76.1 27.2c-1.7-35.9-9.9-67.7-36.2-93.9-26.2-26.2-58-34.4-93.9-36.2-37-2.1-147.9-2.1-184.9 0-35.8 1.7-67.6 9.9-93.9 36.1s-34.4 58-36.2 93.9c-2.1 37-2.1 147.9 0 184.9 1.7 35.9 9.9 67.7 36.2 93.9s58 34.4 93.9 36.2c37 2.1 147.9 2.1 184.9 0 35.9-1.7 67.7-9.9 93.9-36.2 26.2-26.2 34.4-58 36.2-93.9 2.1-37 2.1-147.8 0-184.8zM398.8 388c-7.8 19.6-22.9 34.7-42.6 42.6-29.5 11.7-99.5 9-132.1 9s-102.7 2.6-132.1-9c-19.6-7.8-34.7-22.9-42.6-42.6-11.7-29.5-9-99.5-9-132.1s-2.6-102.7 9-132.1c7.8-19.6 22.9-34.7 42.6-42.6 29.5-11.7 99.5-9 132.1-9s102.7-2.6 132.1 9c19.6 7.8 34.7 22.9 42.6 42.6 11.7 29.5 9 99.5 9 132.1s2.7 102.7-9 132.1z"/></symbol><symbol viewBox="0 0 175.14 97.06" id="logo" xmlns="http://www.w3.org/2000/svg"><defs><style>.jcls-1{fill:#065b73}</style></defs><g id="jСлой_2" data-name="Слой 2"><g id="jLayer_1" data-name="Layer 1"><path class="jcls-1" d="M148.36 77.76a2.64 2.64 0 0 1-2.73 2.53L4.42 80a2.64 2.64 0 0 1-2.72-2.57v-4.66a2.64 2.64 0 0 1 2.73-2.53l141.2.32a2.64 2.64 0 0 1 2.72 2.55zM43.3 55.23h2.48a8.61 8.61 0 0 1 5.06 1.21 4.33 4.33 0 0 1 1.64 3.75A3.69 3.69 0 0 1 51 63.37a7.28 7.28 0 0 1-4.34 1.09h-8v-15H51.3v3h-8zm0 6h2.38q2.18 0 2.19-1.57 0-1.38-2.18-1.39H43.3zm21.93.77H60l-.74 2.48h-4.77l5.68-15h5.06l5.61 15H66zm-1-3.25l-1.65-5.4L61 58.77zm22.93 5.81h-4.64V53.23h-3.6v4.62A20.87 20.87 0 0 1 78.6 62a2.86 2.86 0 0 1-1.42 2 7.69 7.69 0 0 1-3.59.62 10.76 10.76 0 0 1-1.74-.17v-3h.7a1.77 1.77 0 0 0 1.33-.45 2.24 2.24 0 0 0 .39-1.52v-9.93h12.89zm17.77.04H99.7l-1.8-3.9a6.83 6.83 0 0 0-1-1.72 1.37 1.37 0 0 0-1-.35v5.94h-4.62v-15h4.63v5.77a1.26 1.26 0 0 0 .94-.43 10.4 10.4 0 0 0 1.06-2.29 6.74 6.74 0 0 1 1.06-2 3.14 3.14 0 0 1 1.73-.87 19 19 0 0 1 3.76-.26v3.17h-.24a2.84 2.84 0 0 0-1.76.45 3.21 3.21 0 0 0-.95 1.46 5 5 0 0 1-.8 1.5 2.93 2.93 0 0 1-1.16.79 4.1 4.1 0 0 1 1.77 1.14 10.77 10.77 0 0 1 1.58 2.51zM122 49.62v15h-4.36v-8.24L112 64.61h-4.38v-15h4.37v8.31l5.67-8.29zm3.14.01h14.1v3.71h-4.74v11.31h-4.64V53.34h-4.73zM29 48.58l-.57 2.91-4.13 3.39v.32h-3.91l-4.12-3.41-.56-3.21h-3.66v20.79h20.41V48.58zm-12 9.21h2.08v3.38H17zm2.24 10.52h-2.06v-3.39h2.08zm2.45-10.51h2.08v3.38h-2.09zm2.24 10.52h-2.09v-3.39h2.08zm2-10.59H28v3.55h-2zm2.26 10.68h-2.06v-3.55h2.08zm32.28-33.83a3.75 3.75 0 0 0-2.31 1 2.92 2.92 0 0 0-.64 2.78.9.9 0 0 0 1.11.63.92.92 0 0 0 .63-1.11 2.17 2.17 0 0 1 1.48-2.41.51.51 0 0 0-.25-.94zm34.02-12.81c-.12.26-.3.5-.44.75s-.37.44-.39.74c0 .58.93.58.89 0a1.43 1.43 0 0 0-.19-.9.36.36 0 0 0-.51 0c-.22.24-.17.6-.19.9h.89v-.6a1.89 1.89 0 0 1 0-.86s-.05-.07-.07 0z"/><path class="jcls-1" d="M159 58.33a16.15 16.15 0 0 0-15.2 10.52L4.44 68.53A4.35 4.35 0 0 0 0 72.77v4.66a4.13 4.13 0 0 0 1.33 3 4.51 4.51 0 0 0 3.09 1.21L145 82a16.22 16.22 0 0 0 13.93 7.9 15.79 15.79 0 1 0 0-31.56zm-8.93 17.27V72.8a9 9 0 0 1 8.93-7.53v-.19.19a8.84 8.84 0 1 1-8.94 10.32zM4.43 78.28a1.12 1.12 0 0 1-.77-.28.75.75 0 0 1-.26-.55v-4.67a1 1 0 0 1 1-.84l138.6.31a15 15 0 0 0 .55 6.34zM159 89.7zm-40-45.57a5.56 5.56 0 0 0-1.74.08 3.22 3.22 0 0 0-1.56.49.09.09 0 0 0 .06.15 7.09 7.09 0 0 0 1.42-.17 17.19 17.19 0 0 1 1.82-.49v-.06z"/><path class="jcls-1" d="M137.43 48.08c-2.43-8.28-15.77-16.22-20.12-18.63-10.93-6.06-22.94-6.49-22.76-6.8 5.8-9.9 27.57-6.27 25.17-22.06a.64.64 0 0 0-1.07-.28c-5.42 5.38-13.16 3.61-20 3.52a12 12 0 0 0-5.79 1.3 7.66 7.66 0 0 0-2.63 2.4c-.51.68-.88 1.49-1 1.31C82.49-1.28 68.11 8.2 60.17.18a.64.64 0 0 0-1.07.28c-2.47 15.77 19.33 12.38 25.08 22.3v-.11c-18 .62-36.35 8.2-45.24 24.57 0 0-.3.6.15.4 5.2-2.29 11.43-2.64 17.14-3 8.8-.6 17.62-.9 26.45-.85 11 .06 22.05.32 33 1.29 6.55.58 13.61 1.14 19.86 3.44 1.66.86 2.08.24 1.89-.42zM82.27 15.79c-6.36-3.37-14.73-2.07-20.07-7.49a12.68 12.68 0 0 1-1-1.22 8.25 8.25 0 0 1-1.08-4.48c0-1.09 1.76.73 2.22 1 2.34 1.51 5.52 1.52 8.19 1.69 3.11.19 5.82-.39 8.9 0 2.75.38 7 1.69 9.31 5.06.4.58.81.5 1.2 0 1.85-2.33 3-3.71 5.9-4.77 3.2-1.16 6.91-.19 10.21-.12A29.23 29.23 0 0 0 115 4.43a7.44 7.44 0 0 0 2.4-1.28c2.26-1.77 1.25 1.34.8 2.79A14.15 14.15 0 0 1 116.85 8c-5.37 5.08-13.28 4.43-19.81 7.14-2 .85-5.36 5.67-6 7.2-.21.52-.9.5-1.25.47a1.16 1.16 0 0 1-.95-.61c-1.35-2.7-4.84-5.51-6.57-6.41zM123.62 44c-.72-.06-27.41-1.34-37.66-1.36-10 0-20 .36-29.9 1.3-5.44.51-11.53.93-16.64 3.09 10.31-15.17 30.22-20.49 47.8-21.74 21-1.5 36.65 12.11 36.75 12.19a19.65 19.65 0 0 1 3.18 3.52c.04.13 1.85 3.41-3.53 3zm8.05 34.59c.14-.2-.16-.41-.33-.25l-.43.39c-14.1 4.79-27.63 7.9-42.67 8a120.13 120.13 0 0 1-45.44-8.28c-.22-.22-.45-.42-.67-.64 0 0-.08 0 0 0l.47.49-.44-.17s-.06 0 0 .06l.63.28a58.38 58.38 0 0 0 30 16.72 28.85 28.85 0 0 0 4.14.81 73.54 73.54 0 0 0 10.82 1c15 .23 33.88-5.05 43.39-17.63l.6-.3a.32.32 0 0 0-.07-.48zM75.33 87c3.18.32 6.22.5 9.43.59 0 1.54 0 5.41-.15 6.12-.81 0-4.79-.06-5.95-.17-.87-.63-2.9-4.85-3.33-6.54zm18.25 1.46c-.29 1.5-.62 3.71-1.59 4.86-2.1.17-4.21.27-6.32.35-.07-.89-.38-4.54-.46-6.09.73.01 3.53.3 8.37.87zm9.22 1c2.78.18 2.78 1.26 1.45 1.75a59.06 59.06 0 0 1-11.14 2 18.8 18.8 0 0 0 1-4.74c1.37.19 7.18.87 8.69.97zM43 78.68a102.32 102.32 0 0 0 31.85 8.23 14.66 14.66 0 0 0 2 5.81l.35.64c-2.1-.22-4.21-.47-6.3-.76a14.4 14.4 0 0 1-1.78-1c-2.07-1.44-3.85-4.3-5.31-6.35a1.59 1.59 0 0 0-.58-.09c1 1.79 3.08 5.39 5 7.1C66.37 92 48.66 84.13 43 78.68z"/><path class="jcls-1" d="M112.53 35a3.56 3.56 0 0 1 2.23 1 3 3 0 0 1 .62 2.78.87.87 0 0 1-1.07.63.93.93 0 0 1-.61-1.11 2.17 2.17 0 0 0-1.42-2.41c-.43-.19-.22-1 .24-.94z"/></g></g></symbol><symbol viewBox="0 0 183 146" id="purse" xmlns="http://www.w3.org/2000/svg"><g data-name="Слой 2"><g data-name="Слой 1"><g data-name="Слой 2"><g data-name="Слой 1-2"><path d="M152 146H23c-11.4-2.9-19.4-9.5-23-21V21C2.5 15 4.9 8.9 10.9 5.4c3.8-2.2 8-3.6 12.1-5.4h130a14.72 14.72 0 0 0 2.2 1c13.5 3.5 20.7 12.8 20.7 26.7 0 7-.1 13.9.1 20.9a8 8 0 0 0 1.5 4.3A79.66 79.66 0 0 0 183 59v35c-8.7 6.7-8.1 16-7.9 25.6.3 12.6-7.6 22.1-19.9 25.3-1.1.3-2.1.7-3.2 1.1zm15.7-43.7l-5.2-.3c-7.7 0-15.3.2-23-.1a25.88 25.88 0 0 1-25-24c-.9-12.3 8.3-24.1 21.5-25.9 8.7-1.2 17.6-.6 26.4-.8h5.9c0-9.5.2-18.2-.1-26.8a15.8 15.8 0 0 0-9.4-14.3 27.73 27.73 0 0 0-11-2.6c-40-.2-80-.1-120-.1a26.93 26.93 0 0 0-4 .3A18.16 18.16 0 0 0 7.6 26c-.1 31.3-.1 62.7 0 94 0 9.8 6.7 17 16.4 18.3a49.33 49.33 0 0 0 5.5.3H146a35.6 35.6 0 0 0 6.5-.5c7.9-1.4 14.3-7.4 15.1-15.2.6-6.7.1-13.5.1-20.6zM154.8 95h15.5c3.5 0 5.2-1.5 5.2-5.1 0-8.8-.1-17.6 0-26.4 0-3.3-1.4-5.1-4.7-5.1-10.5 0-21-.4-31.4.2A18.11 18.11 0 0 0 122 77.4c.3 9.6 8.5 17.3 18.9 17.6 4.5.1 9.2 0 13.9 0z"/><path d="M141.1 65.9c6.4 0 11.3 4.8 11.2 10.9a11 11 0 0 1-11.1 10.6c-6.4.1-11.4-4.7-11.4-10.7a11 11 0 0 1 11.3-10.8zm.3 16c1.6-2.6 3.5-4.3 3.3-5.5s-2.6-3.3-3.9-3.2-3.3 2.3-3.4 3.6 2 2.7 4 5.1z"/></g></g></g></g></symbol><symbol viewBox="0 0 512.03 512.03" id="search" xmlns="http://www.w3.org/2000/svg"><g data-name="Слой 2"><path d="M3.53 498.6l9.9 9.9a12 12 0 0 0 17 0l129-129a12.3 12.3 0 0 0 3.5-8.5v-10.2A207.47 207.47 0 0 0 304 416c114.9 0 208-93.1 208-208S418.93 0 304 0 96 93.1 96 208a207.09 207.09 0 0 0 55.3 141.1H141a11.87 11.87 0 0 0-8.5 3.5l-129 129a12 12 0 0 0 .03 17zM128 208a176 176 0 1 1 176 176 175.87 175.87 0 0 1-176-176z" data-name="Слой 1"/></g></symbol><symbol viewBox="0 0 384 512" id="times" xmlns="http://www.w3.org/2000/svg"><path d="M231.6 256l130.1-130.1c4.7-4.7 4.7-12.3 0-17l-22.6-22.6c-4.7-4.7-12.3-4.7-17 0L192 216.4 61.9 86.3c-4.7-4.7-12.3-4.7-17 0l-22.6 22.6c-4.7 4.7-4.7 12.3 0 17L152.4 256 22.3 386.1c-4.7 4.7-4.7 12.3 0 17l22.6 22.6c4.7 4.7 12.3 4.7 17 0L192 295.6l130.1 130.1c4.7 4.7 12.3 4.7 17 0l22.6-22.6c4.7-4.7 4.7-12.3 0-17L231.6 256z"/></symbol><symbol viewBox="0 0 200.12 199.92" id="user" xmlns="http://www.w3.org/2000/svg"><g data-name="Слой 2"><g data-name="Слой 1"><g data-name="Слой 2"><g data-name="Слой 1-2"><path d="M107 0c3.35.87 6.77 1.52 10 2.65 22.3 7.71 36.5 23.07 38.89 46.59 1.58 15.57 1.75 31.85-1 47.18-4.78 27-30 45.39-56.35 43.9C69.91 138.7 47.76 118.94 45 90.67a219.84 219.84 0 0 1 .35-43.83C47.74 24.34 67.6 5 90.25 1.06A36.76 36.76 0 0 0 94 0zm42.63 70h-.71c0-5.49.22-11 0-16.48-1.15-24.05-21.6-44.43-45.54-45.52C78.15 6.88 55.8 24.48 53 48.92a236 236 0 0 0-.73 37.88c1.19 24.79 20.1 43.48 45.2 45.69 22.85 2 44.91-14 50-37.17 1.8-8.19 1.53-16.84 2.16-25.32z"/><path d="M0 155c3.32-10.88 11.54-16.23 21.81-19.2 7.35-2.12 14.75-4.08 22.1-6.21 2.71-.79 5.18-.84 6.09 2.29s-1.12 4.48-3.88 5.22c-6.91 1.86-13.84 3.66-20.66 5.82a56.89 56.89 0 0 0-10.93 4.74 12.65 12.65 0 0 0-6.64 12c.13 5 0 10 0 15C8 185.73 14.2 192 25.25 192h129c7.33 0 14.67.08 22 0 9.27-.13 15.69-6.42 16-15.65.15-5-.21-10 .11-15 .53-8.28-3.68-13.45-10.83-16.1-7.78-2.88-15.9-4.86-23.84-7.32-3-.93-7.64-.92-6.42-5.74s5.29-2.63 8.3-1.8c7.38 2 14.8 4 22 6.47 13.74 4.79 18.52 11.75 18.55 26.06v12.5c-.18 14.63-9.93 24.43-24.56 24.44q-64.75.08-129.49 0h-20c-13.27 0-20.73-5.3-25.21-17.73A5.65 5.65 0 0 0 0 181z"/></g></g></g></g></symbol><symbol viewBox="0 0 576 512" id="vk" xmlns="http://www.w3.org/2000/svg"><path d="M545 117.7c3.7-12.5 0-21.7-17.8-21.7h-58.9c-15 0-21.9 7.9-25.6 16.7 0 0-30 73.1-72.4 120.5-13.7 13.7-20 18.1-27.5 18.1-3.7 0-9.4-4.4-9.4-16.9V117.7c0-15-4.2-21.7-16.6-21.7h-92.6c-9.4 0-15 7-15 13.5 0 14.2 21.2 17.5 23.4 57.5v86.8c0 19-3.4 22.5-10.9 22.5-20 0-68.6-73.4-97.4-157.4-5.8-16.3-11.5-22.9-26.6-22.9H38.8c-16.8 0-20.2 7.9-20.2 16.7 0 15.6 20 93.1 93.1 195.5C160.4 378.1 229 416 291.4 416c37.5 0 42.1-8.4 42.1-22.9 0-66.8-3.4-73.1 15.4-73.1 8.7 0 23.7 4.4 58.7 38.1 40 40 46.6 57.9 69 57.9h58.9c16.8 0 25.3-8.4 20.4-25-11.2-34.9-86.9-106.7-90.3-111.5-8.7-11.2-6.2-16.2 0-26.2.1-.1 72-101.3 79.4-135.6z"/></symbol></svg>