<?xml version="1.0" encoding="utf-8"?><svg xmlns="http://www.w3.org/2000/svg" xmlns:xlink="http://www.w3.org/1999/xlink"><symbol viewBox="0 0 256 512" id="angle-down" xmlns="http://www.w3.org/2000/svg"><path d="M119.5 326.9L3.5 209.1c-4.7-4.7-4.7-12.3 0-17l7.1-7.1c4.7-4.7 12.3-4.7 17 0L128 287.3l100.4-102.2c4.7-4.7 12.3-4.7 17 0l7.1 7.1c4.7 4.7 4.7 12.3 0 17L136.5 327c-4.7 4.6-12.3 4.6-17-.1z"/></symbol><symbol viewBox="0 0 192 512" id="angle-left" xmlns="http://www.w3.org/2000/svg"><path d="M25.1 247.5l117.8-116c4.7-4.7 12.3-4.7 17 0l7.1 7.1c4.7 4.7 4.7 12.3 0 17L64.7 256l102.2 100.4c4.7 4.7 4.7 12.3 0 17l-7.1 7.1c-4.7 4.7-12.3 4.7-17 0L25 264.5c-4.6-4.7-4.6-12.3.1-17z"/></symbol><symbol viewBox="0 0 192 512" id="angle-right" xmlns="http://www.w3.org/2000/svg"><path d="M166.9 264.5l-117.8 116c-4.7 4.7-12.3 4.7-17 0l-7.1-7.1c-4.7-4.7-4.7-12.3 0-17L127.3 256 25.1 155.6c-4.7-4.7-4.7-12.3 0-17l7.1-7.1c4.7-4.7 12.3-4.7 17 0l117.8 116c4.6 4.7 4.6 12.3-.1 17z"/></symbol><symbol viewBox="0 0 256 512" id="angle-up" xmlns="http://www.w3.org/2000/svg"><path d="M136.5 185.1l116 117.8c4.7 4.7 4.7 12.3 0 17l-7.1 7.1c-4.7 4.7-12.3 4.7-17 0L128 224.7 27.6 326.9c-4.7 4.7-12.3 4.7-17 0l-7.1-7.1c-4.7-4.7-4.7-12.3 0-17l116-117.8c4.7-4.6 12.3-4.6 17 .1z"/></symbol><symbol viewBox="0 0 512 512" id="check" xmlns="http://www.w3.org/2000/svg"><path d="M435.848 83.466L172.804 346.51l-96.652-96.652c-4.686-4.686-12.284-4.686-16.971 0l-28.284 28.284c-4.686 4.686-4.686 12.284 0 16.971l133.421 133.421c4.686 4.686 12.284 4.686 16.971 0l299.813-299.813c4.686-4.686 4.686-12.284 0-16.971l-28.284-28.284c-4.686-4.686-12.284-4.686-16.97 0z"/></symbol><symbol viewBox="0 0 183 146" id="purse" xmlns="http://www.w3.org/2000/svg"><g data-name="Слой 2"><g data-name="Слой 1"><g data-name="Слой 2"><g data-name="Слой 1-2"><path d="M152 146H23c-11.4-2.9-19.4-9.5-23-21V21C2.5 15 4.9 8.9 10.9 5.4c3.8-2.2 8-3.6 12.1-5.4h130a14.72 14.72 0 0 0 2.2 1c13.5 3.5 20.7 12.8 20.7 26.7 0 7-.1 13.9.1 20.9a8 8 0 0 0 1.5 4.3A79.66 79.66 0 0 0 183 59v35c-8.7 6.7-8.1 16-7.9 25.6.3 12.6-7.6 22.1-19.9 25.3-1.1.3-2.1.7-3.2 1.1zm15.7-43.7l-5.2-.3c-7.7 0-15.3.2-23-.1a25.88 25.88 0 0 1-25-24c-.9-12.3 8.3-24.1 21.5-25.9 8.7-1.2 17.6-.6 26.4-.8h5.9c0-9.5.2-18.2-.1-26.8a15.8 15.8 0 0 0-9.4-14.3 27.73 27.73 0 0 0-11-2.6c-40-.2-80-.1-120-.1a26.93 26.93 0 0 0-4 .3A18.16 18.16 0 0 0 7.6 26c-.1 31.3-.1 62.7 0 94 0 9.8 6.7 17 16.4 18.3a49.33 49.33 0 0 0 5.5.3H146a35.6 35.6 0 0 0 6.5-.5c7.9-1.4 14.3-7.4 15.1-15.2.6-6.7.1-13.5.1-20.6zM154.8 95h15.5c3.5 0 5.2-1.5 5.2-5.1 0-8.8-.1-17.6 0-26.4 0-3.3-1.4-5.1-4.7-5.1-10.5 0-21-.4-31.4.2A18.11 18.11 0 0 0 122 77.4c.3 9.6 8.5 17.3 18.9 17.6 4.5.1 9.2 0 13.9 0z"/><path d="M141.1 65.9c6.4 0 11.3 4.8 11.2 10.9a11 11 0 0 1-11.1 10.6c-6.4.1-11.4-4.7-11.4-10.7a11 11 0 0 1 11.3-10.8zm.3 16c1.6-2.6 3.5-4.3 3.3-5.5s-2.6-3.3-3.9-3.2-3.3 2.3-3.4 3.6 2 2.7 4 5.1z"/></g></g></g></g></symbol><symbol viewBox="0 0 512.03 512.03" id="search" xmlns="http://www.w3.org/2000/svg"><g data-name="Слой 2"><path d="M3.53 498.6l9.9 9.9a12 12 0 0 0 17 0l129-129a12.3 12.3 0 0 0 3.5-8.5v-10.2A207.47 207.47 0 0 0 304 416c114.9 0 208-93.1 208-208S418.93 0 304 0 96 93.1 96 208a207.09 207.09 0 0 0 55.3 141.1H141a11.87 11.87 0 0 0-8.5 3.5l-129 129a12 12 0 0 0 .03 17zM128 208a176 176 0 1 1 176 176 175.87 175.87 0 0 1-176-176z" data-name="Слой 1"/></g></symbol><symbol viewBox="0 0 384 512" id="times" xmlns="http://www.w3.org/2000/svg"><path d="M231.6 256l130.1-130.1c4.7-4.7 4.7-12.3 0-17l-22.6-22.6c-4.7-4.7-12.3-4.7-17 0L192 216.4 61.9 86.3c-4.7-4.7-12.3-4.7-17 0l-22.6 22.6c-4.7 4.7-4.7 12.3 0 17L152.4 256 22.3 386.1c-4.7 4.7-4.7 12.3 0 17l22.6 22.6c4.7 4.7 12.3 4.7 17 0L192 295.6l130.1 130.1c4.7 4.7 12.3 4.7 17 0l22.6-22.6c4.7-4.7 4.7-12.3 0-17L231.6 256z"/></symbol><symbol viewBox="0 0 200.12 199.92" id="user" xmlns="http://www.w3.org/2000/svg"><g data-name="Слой 2"><g data-name="Слой 1"><g data-name="Слой 2"><g data-name="Слой 1-2"><path d="M107 0c3.35.87 6.77 1.52 10 2.65 22.3 7.71 36.5 23.07 38.89 46.59 1.58 15.57 1.75 31.85-1 47.18-4.78 27-30 45.39-56.35 43.9C69.91 138.7 47.76 118.94 45 90.67a219.84 219.84 0 0 1 .35-43.83C47.74 24.34 67.6 5 90.25 1.06A36.76 36.76 0 0 0 94 0zm42.63 70h-.71c0-5.49.22-11 0-16.48-1.15-24.05-21.6-44.43-45.54-45.52C78.15 6.88 55.8 24.48 53 48.92a236 236 0 0 0-.73 37.88c1.19 24.79 20.1 43.48 45.2 45.69 22.85 2 44.91-14 50-37.17 1.8-8.19 1.53-16.84 2.16-25.32z"/><path d="M0 155c3.32-10.88 11.54-16.23 21.81-19.2 7.35-2.12 14.75-4.08 22.1-6.21 2.71-.79 5.18-.84 6.09 2.29s-1.12 4.48-3.88 5.22c-6.91 1.86-13.84 3.66-20.66 5.82a56.89 56.89 0 0 0-10.93 4.74 12.65 12.65 0 0 0-6.64 12c.13 5 0 10 0 15C8 185.73 14.2 192 25.25 192h129c7.33 0 14.67.08 22 0 9.27-.13 15.69-6.42 16-15.65.15-5-.21-10 .11-15 .53-8.28-3.68-13.45-10.83-16.1-7.78-2.88-15.9-4.86-23.84-7.32-3-.93-7.64-.92-6.42-5.74s5.29-2.63 8.3-1.8c7.38 2 14.8 4 22 6.47 13.74 4.79 18.52 11.75 18.55 26.06v12.5c-.18 14.63-9.93 24.43-24.56 24.44q-64.75.08-129.49 0h-20c-13.27 0-20.73-5.3-25.21-17.73A5.65 5.65 0 0 0 0 181z"/></g></g></g></g></symbol></svg>