<?xml version="1.0" encoding="utf-8"?><svg xmlns="http://www.w3.org/2000/svg" xmlns:xlink="http://www.w3.org/1999/xlink"><symbol viewBox="0 0 256 512" id="angle-down" xmlns="http://www.w3.org/2000/svg"><path d="M119.5 326.9L3.5 209.1c-4.7-4.7-4.7-12.3 0-17l7.1-7.1c4.7-4.7 12.3-4.7 17 0L128 287.3l100.4-102.2c4.7-4.7 12.3-4.7 17 0l7.1 7.1c4.7 4.7 4.7 12.3 0 17L136.5 327c-4.7 4.6-12.3 4.6-17-.1z"/></symbol><symbol viewBox="0 0 192 512" id="angle-left" xmlns="http://www.w3.org/2000/svg"><path d="M25.1 247.5l117.8-116c4.7-4.7 12.3-4.7 17 0l7.1 7.1c4.7 4.7 4.7 12.3 0 17L64.7 256l102.2 100.4c4.7 4.7 4.7 12.3 0 17l-7.1 7.1c-4.7 4.7-12.3 4.7-17 0L25 264.5c-4.6-4.7-4.6-12.3.1-17z"/></symbol><symbol viewBox="0 0 192 512" id="angle-right" xmlns="http://www.w3.org/2000/svg"><path d="M166.9 264.5l-117.8 116c-4.7 4.7-12.3 4.7-17 0l-7.1-7.1c-4.7-4.7-4.7-12.3 0-17L127.3 256 25.1 155.6c-4.7-4.7-4.7-12.3 0-17l7.1-7.1c4.7-4.7 12.3-4.7 17 0l117.8 116c4.6 4.7 4.6 12.3-.1 17z"/></symbol><symbol viewBox="0 0 256 512" id="angle-up" xmlns="http://www.w3.org/2000/svg"><path d="M136.5 185.1l116 117.8c4.7 4.7 4.7 12.3 0 17l-7.1 7.1c-4.7 4.7-12.3 4.7-17 0L128 224.7 27.6 326.9c-4.7 4.7-12.3 4.7-17 0l-7.1-7.1c-4.7-4.7-4.7-12.3 0-17l116-117.8c4.7-4.6 12.3-4.6 17 .1z"/></symbol><symbol viewBox="0 0 307.23 295" id="calendar" xmlns="http://www.w3.org/2000/svg"><g data-name="Слой 2"><g data-name="Слой 1"><path d="M237.23 0h10v29h60v266H.23c-.06-1.83-.18-3.66-.18-5.48Q0 174.89 0 60.26V28.87h60.23V0h10v28.59h167zm.29 39.23H69.88v21.66H59.66v-21.6H10.37v245.32H297V39.27h-49.63v21.81h-9.86z"/><path d="M105.07 119.31v9.26H50.82v-9.26zm75.74.1v9.23H126.7v-9.23zm75.76-.09v9.39h-54.08v-9.39zm-151.62 35.91v9.38H50.86v-9.38zm75.93.07v9.24H126.7v-9.24zm21.49 9.24v-9.24h54.19v9.24zM50.84 200.67v-9.25h54.05v9.25zm129.98-9.16v9.24H126.7v-9.24zm21.69-.21h53.92v9.49h-53.92zM51.44 236.64v-9.39h54.07v9.39zm129.74-9.33v9.38h-53.75v-9.38z"/></g></g></symbol><symbol viewBox="0 0 512 512" id="check" xmlns="http://www.w3.org/2000/svg"><path d="M435.848 83.466L172.804 346.51l-96.652-96.652c-4.686-4.686-12.284-4.686-16.971 0l-28.284 28.284c-4.686 4.686-4.686 12.284 0 16.971l133.421 133.421c4.686 4.686 12.284 4.686 16.971 0l299.813-299.813c4.686-4.686 4.686-12.284 0-16.971l-28.284-28.284c-4.686-4.686-12.284-4.686-16.97 0z"/></symbol><symbol viewBox="0 0 264 512" id="facebook-f" xmlns="http://www.w3.org/2000/svg"><path d="M76.7 512V283H0v-91h76.7v-71.7C76.7 42.4 124.3 0 193.8 0c33.3 0 61.9 2.5 70.2 3.6V85h-48.2c-37.8 0-45.1 18-45.1 44.3V192H256l-11.7 91h-73.6v229"/></symbol><symbol viewBox="0 0 398 305" id="filter" xmlns="http://www.w3.org/2000/svg"><defs><style>.hcls-1{fill:#b8b8b8}.hcls-2{fill:#b7b7b7}</style></defs><g id="hСлой_2" data-name="Слой 2"><g id="hСлой_1-2" data-name="Слой 1"><path class="hcls-1" d="M398 42c-2.94 3.56-6.61 4.94-11.31 4.94q-131.69-.14-263.3-.07c-7.65 0-12-3-12.07-8.23s4.46-8.46 12-8.46q131.9 0 263.8-.12c4.72 0 7.74 2.26 10.9 4.94z"/><path class="hcls-2" d="M398 155c-2.6 3.64-5.94 5.1-10.59 5.09q-132.65-.18-265.29-.09c-6.79 0-10-2.4-10.23-7.51-.19-4.67 2.6-8 7.24-8.45a32.87 32.87 0 0 1 3.5 0q132.15 0 264.29-.08c4.74 0 8.44 1.08 11.08 5.09zm0 114c-3.23 4.3-7.65 5-12.77 5q-131.49-.16-263-.08c-6.57 0-9.9-2.26-10.33-6.93-.53-5.76 2.7-9.07 9.05-9.08h81q92.5 0 185-.07c4.74 0 8.47 1 11.05 5.14zM0 259c1.78-3.89 2.81-8.07 4.87-11.88 7.74-14.32 24.57-22.14 41.06-18.9 15.46 3 27.95 16.63 30.14 32.13 3.4 24.08-15.84 44.37-38.49 43.7-1.52 0-3.37-.84-4.58 1h-2c.22-2.07-1.44-1.81-2.64-2.14a39.93 39.93 0 0 1-19.43-12.44C4.4 285.42 2.43 279.1 0 273zm38.4-15.11c-12.67 0-22.26 9.32-22.4 21.85-.14 12.07 10 22.19 22.23 22.26a21.61 21.61 0 0 0 21.89-21.8c.08-12.92-9.04-22.28-21.72-22.31zM0 144c3.28-7.79 6.68-15.43 13.44-21.08 11.7-9.77 24.91-11.75 38.73-6.47s21.74 15.83 23.83 30.6c3.38 23.33-16 46.48-43.38 42.73-15-2-25.24-11.1-30.67-25.36-.57-1.51-.54-3.31-2-4.42zm60.13 7.81c0-12.51-9.31-21.84-21.73-21.86a22.05 22.05 0 1 0-.13 44.1c12.63.02 21.89-9.41 21.86-22.24zM43 0c8.84 2.45 17 5.83 23.54 12.81 18.9 20.07 9.19 54.57-17.24 62.46A38.94 38.94 0 0 1 1.16 48.61C.89 47.68 1 46.58 0 46V32c3.19-9.73 7.42-18.69 16.25-24.82C21.4 3.6 27.42 2.38 33 0zm17.12 38.63c.89-11.41-8.86-22.15-21.84-22.4C26.12 16 16 26.49 16 38.52a22.63 22.63 0 0 0 22.18 22.39c12.26.17 21.92-9.64 21.94-22.28z"/></g></g></symbol><symbol viewBox="0 0 448 512" id="instagram" xmlns="http://www.w3.org/2000/svg"><path d="M224.1 141c-63.6 0-114.9 51.3-114.9 114.9s51.3 114.9 114.9 114.9S339 319.5 339 255.9 287.7 141 224.1 141zm0 189.6c-41.1 0-74.7-33.5-74.7-74.7s33.5-74.7 74.7-74.7 74.7 33.5 74.7 74.7-33.6 74.7-74.7 74.7zm146.4-194.3c0 14.9-12 26.8-26.8 26.8-14.9 0-26.8-12-26.8-26.8s12-26.8 26.8-26.8 26.8 12 26.8 26.8zm76.1 27.2c-1.7-35.9-9.9-67.7-36.2-93.9-26.2-26.2-58-34.4-93.9-36.2-37-2.1-147.9-2.1-184.9 0-35.8 1.7-67.6 9.9-93.9 36.1s-34.4 58-36.2 93.9c-2.1 37-2.1 147.9 0 184.9 1.7 35.9 9.9 67.7 36.2 93.9s58 34.4 93.9 36.2c37 2.1 147.9 2.1 184.9 0 35.9-1.7 67.7-9.9 93.9-36.2 26.2-26.2 34.4-58 36.2-93.9 2.1-37 2.1-147.8 0-184.8zM398.8 388c-7.8 19.6-22.9 34.7-42.6 42.6-29.5 11.7-99.5 9-132.1 9s-102.7 2.6-132.1-9c-19.6-7.8-34.7-22.9-42.6-42.6-11.7-29.5-9-99.5-9-132.1s-2.6-102.7 9-132.1c7.8-19.6 22.9-34.7 42.6-42.6 29.5-11.7 99.5-9 132.1-9s102.7-2.6 132.1 9c19.6 7.8 34.7 22.9 42.6 42.6 11.7 29.5 9 99.5 9 132.1s2.7 102.7-9 132.1z"/></symbol><symbol viewBox="0 0 2226.15 312.09" id="logo" xmlns="http://www.w3.org/2000/svg"><defs><style>.jcls-1{fill:#f5ed25}.jcls-2{fill:#242021}</style></defs><g id="jСлой_2" data-name="Слой 2"><g id="jСлой_1-2" data-name="Слой 1"><path class="jcls-1" d="M1813 312.09q6.34-49.45 12.67-98.89c3.82-30 7.55-60 11.37-90q6.24-49 12.58-97.9c1.08-8.4 2.25-16.79 3.38-25.19q184.25 0 368.5-.09c3.75 0 5 .82 4.58 4.6a99.26 99.26 0 0 0-.08 10.49c-1.12.56-.92 1.65-1 2.61-.85 6.94-1.71 13.87-2.53 20.81q-4.73 40.15-9.44 80.31-4.22 35.94-8.42 71.88-4.81 40.62-9.61 81.28c-1.6 13.38-3.31 26.74-5 40.11zM1951.87 205c2.37-2.49 3.59-3.82 4.87-5.1 10.46-10.5 20.45-21.43 29.85-32.9 5.49-6.7 10.59-13.67 14-21.73 8.73-20.6 4.32-42.66-11.46-55.5-25.36-20.64-75.61-14-85.27 31.43a25.22 25.22 0 0 0-.08 10.9c1.52 6.75 7.17 12.26 13.49 13.06 8.21 1 12.19-1.05 16.33-8.43 3.26-5.8 4.59-12.51 8.52-18 4.57-6.35 11.25-8.59 17.4-5.91s9.1 9.24 7.69 16.7c-1.51 8-6 14.35-10.83 20.55-14.45 18.74-30.65 36-46.32 53.67-2.87 3.24-5.84 6.41-7.84 10.3-4.93 9.62-.58 19.41 9.81 22.39a28.57 28.57 0 0 0 7.9.94q33.23.07 66.45 0a33.81 33.81 0 0 0 12.24-2c7-2.69 10.45-7.35 10.37-14.24s-3.63-11.75-10.47-14.2a31.5 31.5 0 0 0-10.74-2c-11.43.07-22.87.07-35.91.07zm165.43-65.36h-.21c0-9.66.35-19.34-.09-29-.5-11-4.14-20.68-14.39-26.36-13-7.23-28.23-3.08-37.21 10.76-13.86 21.36-27.22 43-40.69 64.65a48 48 0 0 0-7.36 22c-.84 10.92 5.11 18.9 15.88 20.54a51.07 51.07 0 0 0 7.45.57c13.5.05 27 .12 40.49 0 3.06 0 4 .8 3.92 3.9-.13 7-.6 14 .9 20.92 1 4.77 3.19 8.74 8 10.67 10.83 4.32 22.08-2.36 23-13.92a125.05 125.05 0 0 0 .19-16.48c-.2-3.78 1-5.3 4.79-5.51 5.35-.3 9.91-2.48 11.3-8.13 2.86-11.67-.66-20-12.58-21-3-.26-3.48-1.49-3.45-4.06.12-9.9.06-19.74.06-29.57z"/><path class="jcls-2" d="M0 216.09q18.49-49.93 37-99.85c2.42-6.53 4.42-13.23 7.67-19.44 5.59-10.71 14-16.67 26.52-15.7 11.67.9 19 7.71 22.77 18.17 11.15 31.11 21.95 62.34 32.88 93.53 2.69 7.68 5.58 15.3 8 23 4.6 14.45-3.76 24.74-18.8 23.33-6.25-.58-10.27-4.36-13.12-9.57-3.63-6.62-5.14-14-7.43-21.12-.91-2.83-2-4-5.11-4-15.66.17-31.32.13-47 0-2.64 0-3.77.86-4.52 3.39C37 214.46 35 221 32.47 227.3c-4.74 11.86-16.08 15.7-25.86 9.22C3.4 234.39 2 231.08 0 228.09zM67.47 120C62 136.87 56.7 153.37 51.32 169.85c-.83 2.53-.45 3.53 2.54 3.47 8.8-.18 17.62-.24 26.42 0 3.95.12 4.29-1 3.16-4.48-4.47-13.7-8.65-27.5-13-41.24-.78-2.44-.99-5.16-2.97-7.6zm602.06 39c0 17.23-2.74 32-10.37 45.51-12 21.29-30.77 32.08-54.58 34.48-11.63 1.17-23.27.46-34.51-3.38-22.25-7.59-36.63-23-43.82-45a95.05 95.05 0 0 1-.79-57.54c8.9-29.8 28.94-47.63 60.13-51.37 32.32-3.87 61.59 9.14 75.9 39.48a87.15 87.15 0 0 1 8.04 37.82zm-36.5-.24a54.44 54.44 0 0 0-3.18-20c-5.06-14.26-14.36-24-30.13-25.43-14.77-1.34-26.24 4.87-32.94 17.93-9.27 18.06-9.7 37.07-1.18 55.37 11.07 23.78 42.2 26.83 58.13 6.21 7.36-9.58 9.37-20.79 9.27-34.1zm594.15 5.36c-.29 19-5.67 39.45-22.11 55.74-10.92 10.82-24.27 16.82-39.36 18.68-22.68 2.79-43.85-.83-61.63-16.45-12-10.58-19.14-24.13-22.37-39.69-3.9-18.77-3.53-37.47 3.39-55.5 10.62-27.66 31.18-43 60.55-45.52 26-2.25 48.83 5.09 65.41 26.53 11.99 15.49 16.15 33.6 16.12 56.21zM1117.84 161a52.14 52.14 0 0 0 4.25 23.43c5.92 13.24 15.81 21.26 30.72 21.76s26-6.21 32.15-19.44c8.72-18.72 8.3-37.9-1.32-56.21-6.21-11.82-16.77-17.74-30.34-17.44-13.41.3-22.94 7-29.27 18.5-4.87 8.85-6.35 18.49-6.19 29.4zm-838.76-5.38a2.91 2.91 0 0 0 2.05 1.54c17.74 6.77 24.65 17.93 22.29 39.58-2.57 23.58-18.57 38.09-43.52 40.19-17.1 1.44-34.29 1.1-51.42.25-13.14-.65-18.13-5.67-18.22-18.77q-.39-57 0-114c.11-15 6.67-21.39 21.63-21.25 16.61.15 33.32-1.66 49.83 1.77a57.79 57.79 0 0 1 12.73 4.23c21.39 10 29.09 35 17 55.35-2.92 5.02-7.45 8.3-12.37 11.11zm-53.91 33.25v14.95c0 1.35-.62 3.33 1.82 3.24 9.58-.33 19.29 1.23 28.71-1.66 7.63-2.34 11.13-7.89 10.78-16.87-.36-9.54-4.07-14.53-12.23-16.33-8.87-2-17.87-.77-26.82-1.11-2.21-.08-2.32 1.18-2.31 2.84.08 4.98.05 9.96.05 14.94zm.35-60.54h-.35c0 4 .09 8 0 12-.06 2.08.51 3 2.77 3 6.49-.17 13 .18 19.46-.36 9-.75 13.11-5.23 13.46-13.63s-4-13.63-12.6-15.2a38.25 38.25 0 0 0-7.93-.78c-4.92.15-11.52-2.2-14.28 1-2.41 2.75-.53 9.17-.53 13.97zM727 161.89v-54.47c0-16.26 8-24.31 24.2-24.32h85.45c16.81 0 24.94 7.33 25.09 24.05.31 36.31.13 72.62 0 108.93a42.71 42.71 0 0 1-1.36 9.86c-2.27 9.34-7.42 13.36-16.58 13.32-8.73 0-13.65-4.15-16.06-13.35A50.4 50.4 0 0 1 826.5 213c0-31.31-.08-62.63.09-93.94 0-4-1.14-5-5-4.93q-27.48.3-55 0c-3.69 0-4.71.82-4.69 4.62.17 32.31.08 64.63.12 96.94a42.13 42.13 0 0 1-1.13 10.39c-2.22 8.83-7.63 13.14-16.32 13.14s-14.13-4.15-16.38-13a41.54 41.54 0 0 1-1.19-10.37v-53.96zm592.17-22.4c12.45-12.83 24-24.77 35.6-36.65 5.93-6.07 11.59-12.43 18.3-17.68 9-7 20.48-4.55 25.71 5.58 2.78 5.37 2.44 10.73-1.59 15.37-4.26 4.89-8.71 9.63-13.31 14.21-9.78 9.77-19.63 19.47-29.63 29-2.54 2.42-2.9 3.77-.32 6.61 14.66 16.14 29.07 32.51 43.55 48.8a45.37 45.37 0 0 1 7.87 11.48c3.31 7.39 1.73 14.21-4.41 19.27a16.2 16.2 0 0 1-20.29.66 57.1 57.1 0 0 1-9.19-9.14c-14.21-16.55-28.38-33.13-42.7-49.58-1.16-1.33-1.74-4.8-4.65-3.07-2.58 1.54-5.19 3.09-5.07 7.19.34 11 .1 22 .12 33 0 5-.38 10-2.23 14.72-2.59 6.62-7.4 9.89-14.57 10-8.18.13-13-2.7-15.89-9.53a36.11 36.11 0 0 1-2.5-14.16V105.11a43.69 43.69 0 0 1 1.33-10.88c2.27-8.88 7.66-13.15 16.32-13.14s14 4.34 16.3 13.22c1.68 6.38 1.19 12.9 1.22 19.39.06 8.14.03 16.3.03 25.79zm262.46 99.78c-9.51.17-14.76-4.1-17.69-11.05a183.56 183.56 0 0 1-6.78-19.78c-.86-2.94-2.08-3.93-5.14-3.9q-23.24.23-46.49 0c-3.14 0-4.26 1.12-5.16 3.93-2.38 7.42-4 15.13-7.76 22-4.14 7.71-11.72 10.65-19.92 8.15-7.44-2.27-11.75-9-11.13-17.42a37.79 37.79 0 0 1 2.29-10.67c5.15-13.67 10.1-27.42 15.15-41.12q12-32.49 24-65a53.87 53.87 0 0 1 5.4-11.2c11.6-17.62 36.2-16.42 45.6 2.59 6 12.08 9.33 25.21 13.85 37.87 9.42 26.43 18.55 53 27.79 79.47.55 1.57 1.07 3.15 1.47 4.76 3.1 12.49-3.99 21.43-15.48 21.37zm-69.64-66h31.8c3.68 0 1.88-2.18 1.42-3.65q-5.87-19-11.84-38c-1.19-3.79-2.39-7.57-4-12.55zM915.49 161v-56.45c.61-15.36 6.56-21.45 22-21.41 15 0 30-1 44.9.68 29.13 3.23 49.4 24.92 45.17 60-3.29 27.28-20.82 42.77-48.57 44-8.14.36-16.32.34-24.46.12-3.39-.09-4.05 1-4.06 4.19 0 10.15.75 20.32-.45 30.43-1.37 11.52-7.51 17-18.33 16.63-7-.22-12.06-4-14.39-11a40.05 40.05 0 0 1-1.77-12.79q-.03-27.15-.04-54.4zm35-25.5v17c0 1.62-.36 3.49 2.31 3.41 7.48-.22 15 .68 22.4-1 9.21-2.13 14.44-9 14.61-18.88s-4.73-16.68-14.16-19.09c-7.52-1.92-15.22-1.2-22.86-1.35-2.66 0-2.3 1.81-2.3 3.44-.01 5.5 0 10.97 0 16.5zM1726 170.1v48a30.53 30.53 0 0 1-1.7 9.79c-2.65 7.86-7.45 11.37-15.56 11.4-8.54 0-13.31-3.39-16-11.48A40 40 0 0 1 1691 215c0-31.49 0-63 .1-94.47 0-3.6-.66-4.84-4.55-4.72-7.45.25-15 .76-22.29-1.63-7.5-2.45-11.16-6.89-11.25-14-.1-8 3.24-12.64 11-15.23a37 37 0 0 1 11.78-1.88h66a36 36 0 0 1 12.21 2.16c6.87 2.49 10.19 7.27 10.2 14.36s-3.34 11.84-10.25 14.31c-6.23 2.23-12.75 2.1-19.26 2-8.49-.06-8.49 0-8.49 8.67v45.48zm-1327.17-.77c0-16.33-.09-32.66.08-49 0-3.39-.71-4.63-4.34-4.51-6.47.22-13 .49-19.43-.77-10.2-2-14.77-7.42-14.31-17.1.28-5.76 3.27-9.59 8.37-12a33.13 33.13 0 0 1 14.07-2.88q33.24-.09 66.48 0a33.48 33.48 0 0 1 13.14 2.6c6.22 2.65 9.18 7.42 9.11 14.11-.07 6.51-3.15 11-9.17 13.54-7.31 3.1-15 2.91-22.62 2.42-5.38-.35-6.36 1.49-6.32 6.51.25 30.15.12 60.31.13 90.47 0 5.35-.28 10.66-2.1 15.75-2.66 7.4-7.57 10.74-15.58 10.74-8.2 0-12.66-3.1-15.54-10.7a35.42 35.42 0 0 1-2-12.74q.05-23.2.03-46.44zM1951.87 205h35.92a31.5 31.5 0 0 1 10.74 2c6.84 2.45 10.39 7.28 10.47 14.2s-3.38 11.55-10.37 14.24a33.81 33.81 0 0 1-12.24 2q-33.23.07-66.45 0a28.57 28.57 0 0 1-7.9-.94c-10.39-3-14.75-12.77-9.81-22.39 2-3.89 5-7.06 7.84-10.3 15.67-17.69 31.87-34.93 46.32-53.67 4.78-6.2 9.32-12.59 10.83-20.55 1.41-7.46-1.6-14-7.69-16.7s-12.83-.44-17.4 5.91c-3.94 5.47-5.27 12.18-8.52 18-4.14 7.37-8.12 9.48-16.33 8.43-6.32-.8-12-6.31-13.49-13.06a25.22 25.22 0 0 1 .08-10.9c9.66-45.43 59.91-52.07 85.27-31.43 15.78 12.84 20.19 34.9 11.46 55.5-3.41 8.06-8.52 15-14 21.73-9.39 11.47-19.38 22.4-29.85 32.9-1.29 1.19-2.51 2.52-4.88 5.03zm165.43-65.38c0 9.83.06 19.66 0 29.49 0 2.57.47 3.79 3.45 4.06 11.92 1.05 15.45 9.38 12.58 21-1.39 5.65-5.94 7.83-11.3 8.13-3.81.21-5 1.73-4.79 5.51a125.05 125.05 0 0 1-.19 16.48c-.92 11.56-12.18 18.24-23 13.92-4.84-1.93-7-5.9-8-10.67-1.5-6.91-1-13.94-.9-20.92.06-3.1-.86-3.94-3.92-3.9-13.5.16-27 .1-40.49 0a51.07 51.07 0 0 1-7.45-.57c-10.77-1.64-16.71-9.62-15.88-20.54a48 48 0 0 1 7.36-22c13.47-21.61 26.83-43.29 40.69-64.65 9-13.84 24.17-18 37.21-10.76 10.25 5.68 13.89 15.39 14.39 26.36.44 9.64.09 19.32.09 29zm-32.3-24.81L2048.87 173h33.36c2.25 0 2.81-.87 2.8-2.94-.03-17.9-.03-35.82-.03-55.25z"/><path class="jcls-1" d="M2085 114.81v55.27c0 2.07-.55 3-2.8 2.94-10.78-.09-21.56 0-33.36 0z"/></g></g></symbol><symbol viewBox="0 0 183 146" id="purse" xmlns="http://www.w3.org/2000/svg"><g data-name="Слой 2"><g data-name="Слой 1"><g data-name="Слой 2"><g data-name="Слой 1-2"><path d="M152 146H23c-11.4-2.9-19.4-9.5-23-21V21C2.5 15 4.9 8.9 10.9 5.4c3.8-2.2 8-3.6 12.1-5.4h130a14.72 14.72 0 0 0 2.2 1c13.5 3.5 20.7 12.8 20.7 26.7 0 7-.1 13.9.1 20.9a8 8 0 0 0 1.5 4.3A79.66 79.66 0 0 0 183 59v35c-8.7 6.7-8.1 16-7.9 25.6.3 12.6-7.6 22.1-19.9 25.3-1.1.3-2.1.7-3.2 1.1zm15.7-43.7l-5.2-.3c-7.7 0-15.3.2-23-.1a25.88 25.88 0 0 1-25-24c-.9-12.3 8.3-24.1 21.5-25.9 8.7-1.2 17.6-.6 26.4-.8h5.9c0-9.5.2-18.2-.1-26.8a15.8 15.8 0 0 0-9.4-14.3 27.73 27.73 0 0 0-11-2.6c-40-.2-80-.1-120-.1a26.93 26.93 0 0 0-4 .3A18.16 18.16 0 0 0 7.6 26c-.1 31.3-.1 62.7 0 94 0 9.8 6.7 17 16.4 18.3a49.33 49.33 0 0 0 5.5.3H146a35.6 35.6 0 0 0 6.5-.5c7.9-1.4 14.3-7.4 15.1-15.2.6-6.7.1-13.5.1-20.6zM154.8 95h15.5c3.5 0 5.2-1.5 5.2-5.1 0-8.8-.1-17.6 0-26.4 0-3.3-1.4-5.1-4.7-5.1-10.5 0-21-.4-31.4.2A18.11 18.11 0 0 0 122 77.4c.3 9.6 8.5 17.3 18.9 17.6 4.5.1 9.2 0 13.9 0z"/><path d="M141.1 65.9c6.4 0 11.3 4.8 11.2 10.9a11 11 0 0 1-11.1 10.6c-6.4.1-11.4-4.7-11.4-10.7a11 11 0 0 1 11.3-10.8zm.3 16c1.6-2.6 3.5-4.3 3.3-5.5s-2.6-3.3-3.9-3.2-3.3 2.3-3.4 3.6 2 2.7 4 5.1z"/></g></g></g></g></symbol><symbol viewBox="0 0 512.03 512.03" id="search" xmlns="http://www.w3.org/2000/svg"><g data-name="Слой 2"><path d="M3.53 498.6l9.9 9.9a12 12 0 0 0 17 0l129-129a12.3 12.3 0 0 0 3.5-8.5v-10.2A207.47 207.47 0 0 0 304 416c114.9 0 208-93.1 208-208S418.93 0 304 0 96 93.1 96 208a207.09 207.09 0 0 0 55.3 141.1H141a11.87 11.87 0 0 0-8.5 3.5l-129 129a12 12 0 0 0 .03 17zM128 208a176 176 0 1 1 176 176 175.87 175.87 0 0 1-176-176z" data-name="Слой 1"/></g></symbol><symbol viewBox="0 0 384 512" id="times" xmlns="http://www.w3.org/2000/svg"><path d="M231.6 256l130.1-130.1c4.7-4.7 4.7-12.3 0-17l-22.6-22.6c-4.7-4.7-12.3-4.7-17 0L192 216.4 61.9 86.3c-4.7-4.7-12.3-4.7-17 0l-22.6 22.6c-4.7 4.7-4.7 12.3 0 17L152.4 256 22.3 386.1c-4.7 4.7-4.7 12.3 0 17l22.6 22.6c4.7 4.7 12.3 4.7 17 0L192 295.6l130.1 130.1c4.7 4.7 12.3 4.7 17 0l22.6-22.6c4.7-4.7 4.7-12.3 0-17L231.6 256z"/></symbol><symbol viewBox="0 0 200.12 199.92" id="user" xmlns="http://www.w3.org/2000/svg"><g data-name="Слой 2"><g data-name="Слой 1"><g data-name="Слой 2"><g data-name="Слой 1-2"><path d="M107 0c3.35.87 6.77 1.52 10 2.65 22.3 7.71 36.5 23.07 38.89 46.59 1.58 15.57 1.75 31.85-1 47.18-4.78 27-30 45.39-56.35 43.9C69.91 138.7 47.76 118.94 45 90.67a219.84 219.84 0 0 1 .35-43.83C47.74 24.34 67.6 5 90.25 1.06A36.76 36.76 0 0 0 94 0zm42.63 70h-.71c0-5.49.22-11 0-16.48-1.15-24.05-21.6-44.43-45.54-45.52C78.15 6.88 55.8 24.48 53 48.92a236 236 0 0 0-.73 37.88c1.19 24.79 20.1 43.48 45.2 45.69 22.85 2 44.91-14 50-37.17 1.8-8.19 1.53-16.84 2.16-25.32z"/><path d="M0 155c3.32-10.88 11.54-16.23 21.81-19.2 7.35-2.12 14.75-4.08 22.1-6.21 2.71-.79 5.18-.84 6.09 2.29s-1.12 4.48-3.88 5.22c-6.91 1.86-13.84 3.66-20.66 5.82a56.89 56.89 0 0 0-10.93 4.74 12.65 12.65 0 0 0-6.64 12c.13 5 0 10 0 15C8 185.73 14.2 192 25.25 192h129c7.33 0 14.67.08 22 0 9.27-.13 15.69-6.42 16-15.65.15-5-.21-10 .11-15 .53-8.28-3.68-13.45-10.83-16.1-7.78-2.88-15.9-4.86-23.84-7.32-3-.93-7.64-.92-6.42-5.74s5.29-2.63 8.3-1.8c7.38 2 14.8 4 22 6.47 13.74 4.79 18.52 11.75 18.55 26.06v12.5c-.18 14.63-9.93 24.43-24.56 24.44q-64.75.08-129.49 0h-20c-13.27 0-20.73-5.3-25.21-17.73A5.65 5.65 0 0 0 0 181z"/></g></g></g></g></symbol><symbol viewBox="0 0 576 512" id="vk" xmlns="http://www.w3.org/2000/svg"><path d="M545 117.7c3.7-12.5 0-21.7-17.8-21.7h-58.9c-15 0-21.9 7.9-25.6 16.7 0 0-30 73.1-72.4 120.5-13.7 13.7-20 18.1-27.5 18.1-3.7 0-9.4-4.4-9.4-16.9V117.7c0-15-4.2-21.7-16.6-21.7h-92.6c-9.4 0-15 7-15 13.5 0 14.2 21.2 17.5 23.4 57.5v86.8c0 19-3.4 22.5-10.9 22.5-20 0-68.6-73.4-97.4-157.4-5.8-16.3-11.5-22.9-26.6-22.9H38.8c-16.8 0-20.2 7.9-20.2 16.7 0 15.6 20 93.1 93.1 195.5C160.4 378.1 229 416 291.4 416c37.5 0 42.1-8.4 42.1-22.9 0-66.8-3.4-73.1 15.4-73.1 8.7 0 23.7 4.4 58.7 38.1 40 40 46.6 57.9 69 57.9h58.9c16.8 0 25.3-8.4 20.4-25-11.2-34.9-86.9-106.7-90.3-111.5-8.7-11.2-6.2-16.2 0-26.2.1-.1 72-101.3 79.4-135.6z"/></symbol></svg>