<svg xmlns="http://www.w3.org/2000/svg" width="29" height="21" viewBox="0 0 383.58 287.94"><defs><style>.cls-1{fill:#010101;}</style></defs><title>cloud</title><g id="Слой_2" data-name="Слой 2"><g id="svg8"><g id="layer1"><path id="path21" class="cls-1" d="M72.45,287.49C53,284.36,37.7,276.63,24.38,263.31c-11.82-11.82-18.86-24.55-23-41.56-1.84-7.57-1.84-28,0-35.52a108.89,108.89,0,0,1,7.14-20.12c9.37-18.62,29.62-36.23,47.88-41.64l3.08-.91.45-8.73c1.08-20.78,9.31-39,24.45-54.17C95.9,49.17,107.7,42.48,124.2,38.13c7.78-2.05,25.3-2.66,33-1.14l5.62,1.11L165,35.36c4.57-5.76,14.4-14.58,21.56-19.35a96,96,0,0,1,149,82.34l-.25,10.23,6,4c7.52,5,20.7,18,25.65,25.45,10.7,16,15.78,31.51,16.5,50.34.48,12.7-.77,22.15-4.39,33.25a96.48,96.48,0,0,1-61.76,61.79c-14.75,4.81-9.63,4.64-131.94,4.52-61.08-.06-111.9-.24-112.93-.41ZM304.87,261.9a75.11,75.11,0,0,0,33.51-19.22c26.21-26.21,28.21-67.08,4.7-96.15-7.42-9.17-21.32-18.68-32.75-22.39-2.6-.84-3.86-1.63-3.62-2.26a85.91,85.91,0,0,0,4.23-17.6c4.57-35.26-19.29-69.51-54.47-78.15-9.37-2.3-24.19-2.3-33.57,0a80.51,80.51,0,0,0-23.81,10.66C189.73,43.11,179.27,55.3,174.94,65L173.57,68l-5.75-2.48c-9.35-4-14.41-5.08-24.5-5-11,0-17.69,1.67-27.58,6.75-5.67,2.91-8.21,4.84-14.08,10.71S93.85,86.37,90.94,92c-8.48,16.52-9.28,33.4-2.42,51.21.37.95-.72,1.14-6.89,1.24-9.31.15-16.85,2.11-25.9,6.76-5.67,2.91-8.21,4.84-14.08,10.71s-7.8,8.41-10.71,14.08c-5.17,10.07-6.72,16.51-6.72,28s1.55,17.88,6.72,28c2.91,5.67,4.84,8.21,10.71,14.08s8.39,7.79,13.91,10.59c15.23,7.74,6.51,7.28,133.12,7.1l109.88-.15ZM155.32,204l-36-36H167.7V96h48v72h48.37l-36,36c-19.8,19.8-36.17,36-36.38,36S175.12,223.8,155.32,204Z"/></g></g></g></svg>