<svg xmlns="http://www.w3.org/2000/svg"   xmlns:xlink="http://www.w3.org/1999/xlink" width="45" height="45" viewBox="0 0 45 45"><defs><path id="ozmva" d="M1000.5 3818.06c0 1.2-.98 2.19-2.19 2.19h-3.06v-4.38h3.06c1.2 0 2.19.98 2.19 2.2zm-3.06-3.94h-2.19v-4.37h2.19a2.19 2.19 0 0 1 0 4.37zm20.56.88c0 11.58-9.42 21-21 21s-21-9.42-21-21 9.42-21 21-21 21 9.42 21 21zm-5.25 0c0-8.69-7.07-15.75-15.75-15.75a15.77 15.77 0 0 0-15.75 15.75c0 8.68 7.06 15.75 15.75 15.75 8.68 0 15.75-7.07 15.75-15.75zm-1.75 0c0 7.72-6.28 14-14 14s-14-6.28-14-14 6.28-14 14-14 14 6.28 14 14zm-8.75 3.06c0-1.45-.8-2.72-1.97-3.4a3.93 3.93 0 0 0-.66-6v-1.54a.87.87 0 1 0-1.75 0v.92c-.14-.01-.28-.04-.43-.04h-1.32v-.88a.87.87 0 1 0-1.75 0v.88h-1.75a.87.87 0 1 0 0 1.75h.88v10.5h-.88a.87.87 0 1 0 0 1.75h1.75v.87a.87.87 0 1 0 1.75 0v-.87h1.75v.87a.87.87 0 1 0 1.75 0v-1.11a3.93 3.93 0 0 0 2.63-3.7z"/></defs><g><g transform="translate(-974 -3792)"><use fill="#5d8f01" xlink:href="#ozmva"/></g></g></svg>