<svg xmlns="http://www.w3.org/2000/svg"  width="74" height="105"  viewBox="0 0 94.68 136.49"><defs><style>.cls-1{fill:none;stroke:#27466b;stroke-linecap:round;stroke-linejoin:round;stroke-width:3px;}</style></defs><title>hepl-2</title><g id="Слой_2" data-name="Слой 2"><g id="Слой_1-2" data-name="Слой 1"><g id="_Группа_" data-name="&lt;Группа&gt;"><g id="_Группа_2" data-name="&lt;Группа&gt;"><path id="_Контур_" data-name="&lt;Контур&gt;" class="cls-1" d="M43.22,24.9a6.18,6.18,0,0,0,3.06,1.37v.95a1.54,1.54,0,0,0,1.54,1.54h0a1.54,1.54,0,0,0,1.54-1.54v-1a5.54,5.54,0,0,0,2.88-1.32,4.21,4.21,0,0,0,1.35-3.25,4,4,0,0,0-1.41-3.18"/><path id="_Контур_2" data-name="&lt;Контур&gt;" class="cls-1" d="M52.18,18.51a10.77,10.77,0,0,0-3.73-1.89A2.25,2.25,0,0,1,47,15.26a1.12,1.12,0,0,1,1-1.52"/><path id="_Контур_3" data-name="&lt;Контур&gt;" class="cls-1" d="M52.58,11.72a6.17,6.17,0,0,0-3.06-1.37V9.4a1.54,1.54,0,0,0-3.08,0v1a5.55,5.55,0,0,0-2.88,1.32,4.21,4.21,0,0,0-1.35,3.25,4.33,4.33,0,0,0,1.25,3.22c1.37,1.29,3.28,1.62,4.77,2.73a1.27,1.27,0,0,1,.61,1,1,1,0,0,1-1,1"/></g><path id="_Контур_4" data-name="&lt;Контур&gt;" class="cls-1" d="M57.15,32.51a16.88,16.88,0,1,0-18.38.07,17.7,17.7,0,0,0,18.38-.07Z"/><g id="_Группа_3" data-name="&lt;Группа&gt;"><path id="_Контур_5" data-name="&lt;Контур&gt;" class="cls-1" d="M64.58,87a12.15,12.15,0,0,0-6.79-3.36A13.48,13.48,0,0,0,47.15,87.8a13.48,13.48,0,0,0-10.63-4.18A12.14,12.14,0,0,0,29.73,87C25.37,90.9,25.48,97.57,28,102.45a25.94,25.94,0,0,0,5.54,6.63c2.62,2.49,5.48,4.69,8.25,7,1.75,1.45,5.32,4.48,5.36,4.44s3.61-3,5.36-4.44c2.77-2.3,5.63-4.5,8.25-7a25.93,25.93,0,0,0,5.54-6.63C68.83,97.57,68.93,90.9,64.58,87Z"/></g><polyline id="_Контур_6" data-name="&lt;Контур&gt;" class="cls-1" points="87.47 74.76 87.47 134.99 7.22 134.99 7.22 70.12"/><rect id="_Прямоугольник_" data-name="&lt;Прямоугольник&gt;" class="cls-1" x="1.5" y="52.3" width="91.68" height="17.82"/><polyline id="_Контур_7" data-name="&lt;Контур&gt;" class="cls-1" points="31.59 31.78 18.56 31.78 1.5 52.3"/><polyline id="_Контур_8" data-name="&lt;Контур&gt;" class="cls-1" points="93.18 52.3 76.5 31.78 65.44 31.78"/><polyline id="_Контур_9" data-name="&lt;Контур&gt;" class="cls-1" points="34.18 39.47 31.01 43.59 64.07 43.59 60.88 39.47"/></g></g></g></svg>