<svg xmlns="http://www.w3.org/2000/svg"   width="96" height="79"  viewBox="0 0 162.03 135.52"><defs><style>.cls-1{fill:none;stroke:#27466b;stroke-linecap:round;stroke-linejoin:round;stroke-width:3px;}.cls-2{fill:#27466b;}</style></defs><title>hepl-3</title><g id="Слой_2" data-name="Слой 2"><g id="Слой_1-2" data-name="Слой 1"><g id="_Группа_" data-name="&lt;Группа&gt;"><path id="_Составной_контур_" data-name="&lt;Составной контур&gt;" class="cls-1" d="M147.82,72.93V1.5H14.32V87.75h133.5Zm-7.83,7H22.15V9.33H140V79.92Z"/><polyline id="_Контур_" data-name="&lt;Контур&gt;" class="cls-1" points="14.32 87.74 1.5 126.09 1.5 134.02 75.86 134.02"/><line id="_Контур_2" data-name="&lt;Контур&gt;" class="cls-1" x1="1.5" y1="126.09" x2="86.83" y2="126.09"/><polyline id="_Контур_3" data-name="&lt;Контур&gt;" class="cls-1" points="147.71 87.74 160.53 126.09 160.53 134.02 75.86 134.02"/><line id="_Контур_4" data-name="&lt;Контур&gt;" class="cls-1" x1="160.53" y1="126.09" x2="86.83" y2="126.09"/></g><polygon id="_Контур_5" data-name="&lt;Контур&gt;" class="cls-1" points="45.59 113.45 111.48 113.45 113.78 119.61 43.54 119.61 45.59 113.45"/><line id="_Контур_6" data-name="&lt;Контур&gt;" class="cls-1" x1="41.62" y1="97.24" x2="45.59" y2="97.24"/><line id="_Контур_7" data-name="&lt;Контур&gt;" class="cls-1" x1="55.98" y1="97.24" x2="59.95" y2="97.24"/><line id="_Контур_8" data-name="&lt;Контур&gt;" class="cls-1" x1="70.33" y1="97.24" x2="74.31" y2="97.24"/><line id="_Контур_9" data-name="&lt;Контур&gt;" class="cls-1" x1="84.69" y1="97.24" x2="88.66" y2="97.24"/><line id="_Контур_10" data-name="&lt;Контур&gt;" class="cls-1" x1="99.05" y1="97.24" x2="103.02" y2="97.24"/><line id="_Контур_11" data-name="&lt;Контур&gt;" class="cls-1" x1="113.4" y1="97.24" x2="117.37" y2="97.24"/><line id="_Контур_12" data-name="&lt;Контур&gt;" class="cls-1" x1="41.62" y1="103.46" x2="45.59" y2="103.46"/><line id="_Контур_13" data-name="&lt;Контур&gt;" class="cls-1" x1="55.98" y1="103.46" x2="59.95" y2="103.46"/><line id="_Контур_14" data-name="&lt;Контур&gt;" class="cls-1" x1="70.33" y1="103.46" x2="74.31" y2="103.46"/><line id="_Контур_15" data-name="&lt;Контур&gt;" class="cls-1" x1="84.69" y1="103.46" x2="88.66" y2="103.46"/><line id="_Контур_16" data-name="&lt;Контур&gt;" class="cls-1" x1="99.05" y1="103.46" x2="103.02" y2="103.46"/><line id="_Контур_17" data-name="&lt;Контур&gt;" class="cls-1" x1="113.4" y1="103.46" x2="117.37" y2="103.46"/><g id="_Группа_2" data-name="&lt;Группа&gt;"><rect id="_Прямоугольник_" data-name="&lt;Прямоугольник&gt;" class="cls-1" x="32.72" y="23.04" width="97.52" height="41.91" rx="10.03" ry="10.03"/></g><g id="_Группа_3" data-name="&lt;Группа&gt;"><path id="_Составной_контур_2" data-name="&lt;Составной контур&gt;" class="cls-2" d="M41.57,52.91V35.08h5.5a5.87,5.87,0,0,1,4.62,2.09,7.84,7.84,0,0,1,1.83,5.36v3a7.82,7.82,0,0,1-1.83,5.36,5.88,5.88,0,0,1-4.62,2.08ZM45,37.78V50.21h2a2.46,2.46,0,0,0,2.16-1.32A6.4,6.4,0,0,0,50,45.47v-3a6.35,6.35,0,0,0-.82-3.39,2.46,2.46,0,0,0-2.16-1.32Z"/><path id="_Составной_контур_3" data-name="&lt;Составной контур&gt;" class="cls-2" d="M68.58,46.49a6.61,6.61,0,0,1-1.78,4.91,7.2,7.2,0,0,1-9.44,0,6.64,6.64,0,0,1-1.76-4.91v-5a6.7,6.7,0,0,1,1.76-4.92,6.31,6.31,0,0,1,4.71-1.78A6.4,6.4,0,0,1,66.8,36.6a6.64,6.64,0,0,1,1.78,4.92Zm-3.44-5a4.65,4.65,0,0,0-.79-2.94,2.75,2.75,0,0,0-2.28-1,2.68,2.68,0,0,0-2.27,1A4.79,4.79,0,0,0,59,41.48v5a4.83,4.83,0,0,0,.77,3,2.69,2.69,0,0,0,2.27,1,2.72,2.72,0,0,0,2.28-1,4.77,4.77,0,0,0,.78-3Z"/><path id="_Составной_контур_4" data-name="&lt;Составной контур&gt;" class="cls-2" d="M83.64,52.91H80.18L74.53,41.53h-.07V52.91H71V35.08h3.45l5.66,11.39h.07V35.08h3.45Z"/><path id="_Составной_контур_5" data-name="&lt;Составной контур&gt;" class="cls-2" d="M94.51,49.05H90.06l-1,3.86h-3.6l5.06-17.83h3.58l5.06,17.83H95.53Zm-3.75-2.72h3l-1.48-5.66h-.07Z"/><path id="_Составной_контур_6" data-name="&lt;Составной контур&gt;" class="cls-2" d="M109.73,37.78h-4.19V52.91h-3.47V37.78H98V35.08h11.73Z"/><path id="_Составной_контур_7" data-name="&lt;Составной контур&gt;" class="cls-2" d="M120.32,45h-5.45v5.18h6.53v2.7h-10V35.08h10v2.71h-6.5v4.56h5.45Z"/></g></g></g></svg>