<svg xmlns="http://www.w3.org/2000/svg" width="108" height="97px" viewBox="0 0 148.23 134.42" ><defs><style>.cls-1{fill:none;stroke:#27466b;stroke-linecap:round;stroke-linejoin:round;stroke-width:3px;}</style></defs><title>hepl-1</title><g id="Слой_2" data-name="Слой 2"><g id="Слой_1-2" data-name="Слой 1"><g id="_Группа_" data-name="&lt;Группа&gt;"><path id="_Контур_" data-name="&lt;Контур&gt;" class="cls-1" d="M66.9,56.07a12.76,12.76,0,0,0-1.76,22.4A13.37,13.37,0,0,0,79,78.41a12.74,12.74,0,0,0,5.77-10.67,12.93,12.93,0,0,0-.08-1.41"/><g id="_Группа_2" data-name="&lt;Группа&gt;"><g id="_Группа_3" data-name="&lt;Группа&gt;"><path id="_Контур_2" data-name="&lt;Контур&gt;" class="cls-1" d="M66.51,63.61s0,.1,0,.28a0,0,0,0,1,0,0,4.44,4.44,0,0,0,3.31,4.29c2.71.64,24.28-13.06,32.34-18.44l1-.64a44.8,44.8,0,0,1,11.32-6.51,44.35,44.35,0,0,0,14.72-8.67l.15-.13a15.26,15.26,0,0,1,9.5-4l8-.26"/><path id="_Контур_3" data-name="&lt;Контур&gt;" class="cls-1" d="M69.16,51.43,66.43,27.9l8.41-1.28a29.84,29.84,0,0,1,7.79-.16l.85.1a5.86,5.86,0,0,1,5,4.28h0"/><path id="_Контур_4" data-name="&lt;Контур&gt;" class="cls-1" d="M146.73,1.5l-15,.19-2.45.08c-9.42.32-43.15,1.64-51.18,4.58L56,18.67a5.58,5.58,0,0,0-2.9,3.19l-.86,2.42a5.59,5.59,0,0,0-.25,2.8s4.91,18.21,8.56,28"/><path id="_Контур_5" data-name="&lt;Контур&gt;" class="cls-1" d="M129.26,33.81s6.16-6.89,5.49-11.82"/></g><line id="_Контур_6" data-name="&lt;Контур&gt;" class="cls-1" x1="66.43" y1="27.9" x2="62.59" y2="27.9"/><line id="_Контур_7" data-name="&lt;Контур&gt;" class="cls-1" x1="76.35" y1="26.43" x2="75.38" y2="47.58"/><line id="_Контур_8" data-name="&lt;Контур&gt;" class="cls-1" x1="85.25" y1="27.05" x2="82.47" y2="40.36"/><path id="_Контур_9" data-name="&lt;Контур&gt;" class="cls-1" d="M78.08,6.35s-2.7,2.53-1.1,5"/><path id="_Контур_10" data-name="&lt;Контур&gt;" class="cls-1" d="M53.09,21.85a9.27,9.27,0,0,1,3,.83"/><path id="_Контур_11" data-name="&lt;Контур&gt;" class="cls-1" d="M66.68,63.25a35.27,35.27,0,0,1,5-5,2.58,2.58,0,0,1,3-.1A7.83,7.83,0,0,1,77,60.5a2.54,2.54,0,0,1-.51,3.19L72.15,67.6"/></g></g><path id="_Контур_12" data-name="&lt;Контур&gt;" class="cls-1" d="M88.34,25.49A14.58,14.58,0,0,1,89,30.92c-.28,1.55-2.44,4.1-4.6,7.28S79,44.35,76.41,47l-8.57,9.39"/><g id="_Группа_4" data-name="&lt;Группа&gt;"><g id="_Группа_5" data-name="&lt;Группа&gt;"><path id="_Контур_13" data-name="&lt;Контур&gt;" class="cls-1" d="M50.36,110.65,62.72,113l21.92,8.24a8.82,8.82,0,0,0-2.1-11.43C76.77,105.36,60.73,96.4,60.73,96.4A31,31,0,0,0,58,91.79c-6.1-8.64-15-11.71-17.59-12.58a36.12,36.12,0,0,0-9.17-1.77A29,29,0,0,0,16.4,80.66a7.29,7.29,0,0,1-3.42.78L5.6,81.19"/><path id="_Контур_14" data-name="&lt;Контур&gt;" class="cls-1" d="M91,119l15-4.5c3.72-1.31,9.74-3.64,12.77-3.07,2.1.39,2.59,1.08,3.9,2.77.62.8.91,1.54.19,1.78L93,128.94c-4,1.36-14.65,2.93-21.21,3.82A17.15,17.15,0,0,1,61.56,131L31,115.17A45.71,45.71,0,0,0,21.68,112c-3.57-.78-12-1.11-20.18-.83"/><path id="_Контур_15" data-name="&lt;Контур&gt;" class="cls-1" d="M118.27,111.26l4.53-1.53a2,2,0,0,0,.92-3.13l-.29-.35a6.67,6.67,0,0,0-4.61-2.23l-1.09-.07a8.46,8.46,0,0,0-3.21.45c-4.27,1.47-9.53,3.39-13.56,4.75l-8.52,2.55"/><path id="_Контур_16" data-name="&lt;Контур&gt;" class="cls-1" d="M114.25,104.49s1.93-7.63-17.61-.55l-8.29,2"/><path id="_Контур_17" data-name="&lt;Контур&gt;" class="cls-1" d="M28.9,77.28"/></g><path id="_Контур_18" data-name="&lt;Контур&gt;" class="cls-1" d="M105.19,101s-.21-2.78-4.47-4h0a13.16,13.16,0,0,0-4.6,0l-14.71,3.67-8.73-.83"/></g></g></g></svg>