<svg xmlns="http://www.w3.org/2000/svg"   width="53" height="86"  viewBox="0 0 82.64 134.16"><defs><style>.cls-1{fill:none;stroke:#27466b;stroke-linecap:round;stroke-linejoin:round;stroke-width:3px;}</style></defs><title>hepl-6</title><g id="Слой_2" data-name="Слой 2"><g id="Слой_1-2" data-name="Слой 1"><g id="_Группа_" data-name="&lt;Группа&gt;"><path id="_Контур_" data-name="&lt;Контур&gt;" class="cls-1" d="M31.59,45.65H28.88a8.5,8.5,0,0,0,2.73,7,11.52,11.52,0,0,0,5.72,2.56V57a2.87,2.87,0,0,0,2.87,2.87h0A2.87,2.87,0,0,0,43.07,57V55.2a10.35,10.35,0,0,0,5.38-2.46A7.87,7.87,0,0,0,51,46.67a7.37,7.37,0,0,0-2.63-5.94"/><path id="_Контур_2" data-name="&lt;Контур&gt;" class="cls-1" d="M48.34,40.73a20.13,20.13,0,0,0-7-3.53,4.2,4.2,0,0,1-2.77-2.54,2.09,2.09,0,0,1,1.9-2.85h2.39"/><path id="_Контур_3" data-name="&lt;Контур&gt;" class="cls-1" d="M49.12,35.05h2.71a8.5,8.5,0,0,0-2.73-7,11.53,11.53,0,0,0-5.72-2.56V23.72a2.87,2.87,0,1,0-5.74,0v1.79A10.36,10.36,0,0,0,32.26,28,7.87,7.87,0,0,0,29.74,34a8.09,8.09,0,0,0,2.34,6c2.56,2.42,6.13,3,8.9,5.09A2.38,2.38,0,0,1,42.13,47a1.92,1.92,0,0,1-1.93,1.85H37.53"/><g id="_Группа_2" data-name="&lt;Группа&gt;"><rect id="_Прямоугольник_" data-name="&lt;Прямоугольник&gt;" class="cls-1" x="2.27" y="79.87" width="78.87" height="17.57" rx="4.25" ry="4.25"/><line id="_Контур_4" data-name="&lt;Контур&gt;" class="cls-1" x1="14.03" y1="97.43" x2="14.03" y2="86.67"/><line id="_Контур_5" data-name="&lt;Контур&gt;" class="cls-1" x1="32.47" y1="97.43" x2="32.47" y2="86.67"/><line id="_Контур_6" data-name="&lt;Контур&gt;" class="cls-1" x1="51.71" y1="97.43" x2="51.71" y2="86.67"/><line id="_Контур_7" data-name="&lt;Контур&gt;" class="cls-1" x1="69.02" y1="97.43" x2="69.02" y2="86.67"/></g><g id="_Группа_3" data-name="&lt;Группа&gt;"><rect id="_Прямоугольник_2" data-name="&lt;Прямоугольник&gt;" class="cls-1" x="2.27" y="97.43" width="78.87" height="17.57" rx="4.25" ry="4.25"/><line id="_Контур_8" data-name="&lt;Контур&gt;" class="cls-1" x1="14.03" y1="115" x2="14.03" y2="104.24"/><line id="_Контур_9" data-name="&lt;Контур&gt;" class="cls-1" x1="32.47" y1="115" x2="32.47" y2="104.24"/><line id="_Контур_10" data-name="&lt;Контур&gt;" class="cls-1" x1="51.71" y1="115" x2="51.71" y2="104.24"/><line id="_Контур_11" data-name="&lt;Контур&gt;" class="cls-1" x1="69.02" y1="115" x2="69.02" y2="104.24"/></g><g id="_Группа_4" data-name="&lt;Группа&gt;"><rect id="_Прямоугольник_3" data-name="&lt;Прямоугольник&gt;" class="cls-1" x="2.27" y="115.09" width="78.87" height="17.57" rx="4.25" ry="4.25"/><line id="_Контур_12" data-name="&lt;Контур&gt;" class="cls-1" x1="14.03" y1="132.66" x2="14.03" y2="121.9"/><line id="_Контур_13" data-name="&lt;Контур&gt;" class="cls-1" x1="32.47" y1="132.66" x2="32.47" y2="121.9"/><line id="_Контур_14" data-name="&lt;Контур&gt;" class="cls-1" x1="51.71" y1="132.66" x2="51.71" y2="121.9"/><line id="_Контур_15" data-name="&lt;Контур&gt;" class="cls-1" x1="69.02" y1="132.66" x2="69.02" y2="121.9"/></g><path id="_Контур_16" data-name="&lt;Контур&gt;" class="cls-1" d="M19.33,73a38.85,38.85,0,1,1,42.31-.16"/><path id="_Контур_17" data-name="&lt;Контур&gt;" class="cls-1" d="M70.77,40.35A30.42,30.42,0,1,1,40.35,9.93"/></g></g></g></svg>