<?xml version="1.0" encoding="utf-8"?><svg xmlns="http://www.w3.org/2000/svg" xmlns:xlink="http://www.w3.org/1999/xlink"><symbol viewBox="0 0 20 10" id="arr-back" xmlns="http://www.w3.org/2000/svg"><defs><path id="aa" d="M891 694.03v-1.493l-.015-.015.015-.016V692h.505l4.003-4.015 1.507 1.512L894.52 692H911v2.03h-16.497l2.48 2.488-1.491 1.497-3.973-3.985z"/></defs><use xlink:href="#aa" transform="translate(-891 -688)"/></symbol><symbol viewBox="0 0 22 43" id="arr-left" xmlns="http://www.w3.org/2000/svg"><defs><path id="ba" d="M344.991 1308.282l-.709.71-21.274-21.275.218-.217-.218-.218 21.274-21.274.71.71-20.783 20.782z"/></defs><use xlink:href="#ba" transform="translate(-323 -1266)"/></symbol><symbol viewBox="0 0 22 43" id="arr-right" xmlns="http://www.w3.org/2000/svg"><defs><path id="ca" d="M1595.991 1287.717l-21.273 21.274-.71-.709 20.783-20.782-20.782-20.783.709-.709 21.273 21.274-.217.218z"/></defs><use xlink:href="#ca" transform="translate(-1574 -1266)"/></symbol><symbol viewBox="0 0 20 10" id="arr2-right" xmlns="http://www.w3.org/2000/svg"><defs><path id="da" d="M896 744v-2h16.492l-2.507-2.508 1.507-1.507 4.016 4.015H916v.492l.015.016-.015.015V744h-.508l-3.984 3.984-1.492-1.492 2.492-2.492z"/></defs><use xlink:href="#da" transform="translate(-896 -738)"/></symbol><symbol viewBox="0 0 14 14" id="basket" xmlns="http://www.w3.org/2000/svg"><defs><path id="ea" d="M572.51 1477.971a.998.998 0 0 0-1.006-.985.498.498 0 0 1-.504-.494.5.5 0 0 1 .504-.493c1.11 0 2.014.885 2.014 1.972v.469h10.978c.158 0 .307.072.402.196a.484.484 0 0 1 .083.432l-1.247 4.272c-.291.997-1.35 1.78-2.41 1.78h-6.799c-.367 0-.71-.098-1.007-.266v.733c0 .544.452.986 1.007.986h8.46c.279 0 .504.221.504.493a.498.498 0 0 1-.503.493h-1c.4.226.672.65.672 1.134 0 .72-.598 1.307-1.334 1.307-.736 0-1.335-.586-1.335-1.307 0-.484.272-.908.673-1.134h-5.324c.401.226.673.65.673 1.134 0 .72-.599 1.307-1.335 1.307s-1.334-.586-1.334-1.307c0-.518.31-.967.758-1.178-.907-.192-1.59-.983-1.59-1.928zm9.141 10.722a.324.324 0 0 0-.327-.32.324.324 0 0 0-.328.32c0 .177.147.32.328.32.18 0 .327-.143.327-.32zm-6.647 0a.324.324 0 0 0-.328-.32.324.324 0 0 0-.327.32c0 .177.147.32.327.32.18 0 .328-.143.328-.32z"/></defs><g clip-path="url(#clip-54)" transform="translate(-571 -1476)"><use xlink:href="#ea"/></g></symbol><symbol viewBox="0 0 19 18" id="cash" xmlns="http://www.w3.org/2000/svg"><defs><path id="fa" d="M920.403 994.426l6.78-3.316a1.074 1.074 0 0 1 1.43.475l.401.8-7.574 2.041zm11.991-1.204l.333 1.204h-8.857l5.435-1.463 1.78-.48a1.063 1.063 0 0 1 1.31.74zm2.51 2.994v2.874h-6.333a1.824 1.824 0 0 0-1.298.542 1.77 1.77 0 0 0-.514 1.246v2.342c0 .987.813 1.79 1.814 1.79h6.33v2.937a1.06 1.06 0 0 1-1.067 1.053h-15.77a1.06 1.06 0 0 1-1.066-1.053v-11.731a1.05 1.05 0 0 1 .235-.657 1.07 1.07 0 0 1 .834-.396h15.77c.588 0 1.066.472 1.064 1.053zm1.096 4.658v2.344c0 .307-.134.585-.348.777a1.037 1.037 0 0 1-.373.219 1.102 1.102 0 0 1-.346.056h-6.36a1.06 1.06 0 0 1-1.067-1.052v-2.344a1.06 1.06 0 0 1 1.067-1.053h6.36a1.07 1.07 0 0 1 .719.276c.214.191.348.47.348.777zm-5.2 1.381v-.35a.53.53 0 0 0-.533-.526h-.354a.543.543 0 0 0-.329.114.514.514 0 0 0-.205.413v.35c0 .29.24.526.534.526h.354a.53.53 0 0 0 .533-.527z"/></defs><use xlink:href="#fa" transform="translate(-917 -991)"/></symbol><symbol viewBox="0 0 344.96 344.96" id="check" xmlns="http://www.w3.org/2000/svg"><g data-name="Слой 2"><path d="M321.85 86.24l-40-23.11-23.1-40H212.5L172.48 0l-40 23.11H86.24l-23.11 40-40 23.1v46.21L0 172.48l23.11 40v46.21l40 23.11 23.11 40h46.21l40 23.1 40-23.11h46.21l23.11-40 40-23.11V212.5l23.11-40-23.11-40V86.24zM156.91 243.07a16.79 16.79 0 0 1-23.34 0l-50.45-50.44a16.19 16.19 0 0 1 0-22.89l13.35-13.35a16.19 16.19 0 0 1 22.89 0l25.87 25.87 80.34-80.35a16.19 16.19 0 0 1 22.89 0l13.35 13.35a16.19 16.19 0 0 1 0 22.89z" data-name="Capa 1"/></g></symbol><symbol viewBox="0 0 18 14" id="check-basket" xmlns="http://www.w3.org/2000/svg"><defs><path id="ha" d="M586.64 889.347a1.227 1.227 0 0 0-1.731 0L574.18 900.04l-3.114-3.107a1.226 1.226 0 0 0-1.731 0 1.22 1.22 0 0 0 0 1.727l3.98 3.97a1.223 1.223 0 0 0 1.731 0l11.593-11.556a1.22 1.22 0 0 0 0-1.727z"/></defs><g clip-path="url(#clip-401)" transform="translate(-569 -889)"><use xlink:href="#ha"/></g></symbol><symbol viewBox="0 0 36 36" id="close" xmlns="http://www.w3.org/2000/svg"><path d="M26.515 8.839c-4.874-4.874-12.804-4.874-17.678 0-4.874 4.874-4.874 12.804 0 17.677 4.873 4.874 12.804 4.874 17.678 0 4.874-4.873 4.873-12.804 0-17.677zM9.517 25.837c-4.499-4.499-4.499-11.82 0-16.318 4.498-4.499 11.82-4.499 16.318 0 4.498 4.498 4.498 11.819 0 16.318-4.499 4.498-11.82 4.498-16.318 0z" fill-opacity=".7"/><path d="M22.263 21.587l-3.91-3.91 3.74-3.739a.48.48 0 1 0-.68-.68l-3.74 3.74-3.909-3.91a.48.48 0 1 0-.68.68l3.91 3.91-4.08 4.08a.48.48 0 1 0 .68.68l4.08-4.08 3.91 3.91a.48.48 0 1 0 .68-.68z" fill-opacity=".7"/></symbol><symbol viewBox="0 0 14 14" id="instagram" xmlns="http://www.w3.org/2000/svg"><defs><path id="ja" d="M928 3164.794v10.41c0 .493-.175.915-.528 1.267-.352.353-.775.53-1.267.53h-10.41c-.492 0-.915-.177-1.267-.53a1.727 1.727 0 0 1-.529-1.267v-10.41c0-.492.176-.915.529-1.267a1.73 1.73 0 0 1 1.267-.529h10.41c.492 0 .915.176 1.267.53.353.352.529.774.529 1.266zm-9.799 5.178c0 .754.275 1.396.825 1.928.55.531 1.211.797 1.983.797.778 0 1.442-.266 1.992-.797.55-.532.825-1.174.825-1.928s-.275-1.396-.825-1.928a2.762 2.762 0 0 0-1.992-.798 2.75 2.75 0 0 0-1.983.798c-.55.532-.825 1.174-.825 1.928zm8.214 4.86v-5.908h-1.23c.12.383.182.78.182 1.194a4.04 4.04 0 0 1-.584 2.12 4.257 4.257 0 0 1-1.586 1.535 4.382 4.382 0 0 1-2.188.566c-1.197 0-2.221-.412-3.072-1.236-.85-.823-1.276-1.818-1.276-2.985 0-.413.06-.811.182-1.194h-1.285v5.907c0 .158.053.29.16.396.106.107.238.16.396.16h9.745a.543.543 0 0 0 .392-.16.53.53 0 0 0 .164-.396zm0-9.646a.61.61 0 0 0-.183-.442.6.6 0 0 0-.446-.187H924.2a.6.6 0 0 0-.447.187.611.611 0 0 0-.182.442v1.504c0 .176.06.325.182.447a.61.61 0 0 0 .447.182h1.586c.176 0 .325-.06.446-.182a.606.606 0 0 0 .183-.447z"/></defs><use xlink:href="#ja" transform="translate(-914 -3163)"/></symbol><symbol viewBox="0 0 16 14" id="telegram" xmlns="http://www.w3.org/2000/svg"><defs><path id="ka" d="M946.278 3168.895l15.13-5.866a.435.435 0 0 1 .583.496l-2.716 13.127a.434.434 0 0 1-.68.264l-3.707-2.705a.61.61 0 0 0-.747.021l-2.055 1.684a.433.433 0 0 1-.69-.209l-1.427-4.612-3.686-1.383a.438.438 0 0 1-.005-.817zm4.571 2.284l.78 2.752c.055.195.336.175.363-.027l.203-1.509c.038-.283.173-.545.382-.741l5.946-5.555c.111-.104-.022-.28-.151-.2l-7.206 4.46a.73.73 0 0 0-.317.82z"/></defs><use xlink:href="#ka" transform="translate(-946 -3163)"/></symbol><symbol viewBox="0 0 18 11" id="vk" xmlns="http://www.w3.org/2000/svg"><defs><path id="la" d="M890.309 3170.762c.59.579 1.213 1.123 1.742 1.76.234.283.455.575.624.904.24.467.023.98-.394 1.009l-2.591-.002c-.669.056-1.202-.214-1.65-.673-.36-.367-.691-.758-1.036-1.137a2.448 2.448 0 0 0-.467-.417c-.353-.23-.66-.16-.863.21-.205.378-.252.795-.272 1.215-.028.613-.213.774-.826.802-1.31.062-2.553-.137-3.708-.8-1.018-.586-1.807-1.412-2.495-2.347-1.338-1.82-2.362-3.822-3.283-5.88-.207-.463-.056-.712.453-.72.846-.017 1.69-.016 2.537-.002.344.006.571.204.704.53a15.834 15.834 0 0 0 1.72 3.2c.186.266.377.53.649.717.3.207.53.139.67-.197.09-.214.13-.443.15-.672.067-.786.076-1.57-.042-2.353-.072-.488-.346-.805-.831-.897-.248-.047-.211-.14-.091-.282.208-.245.404-.397.794-.397h2.93c.46.091.562.299.626.765l.002 3.268c-.005.18.09.716.413.835.26.085.43-.123.585-.288.701-.748 1.202-1.63 1.649-2.546.198-.402.369-.82.534-1.237.123-.31.315-.462.662-.455l2.819.002c.084 0 .168 0 .249.015.475.081.605.287.458.753-.23.73-.68 1.34-1.12 1.952-.47.653-.973 1.284-1.439 1.941-.428.6-.394.903.138 1.424z"/></defs><use xlink:href="#la" transform="translate(-875 -3164)"/></symbol><symbol viewBox="0 0 18 12" id="youtube" xmlns="http://www.w3.org/2000/svg"><defs><path id="ma" d="M1000 3169.997v.009c0 2.54-.257 4-.764 4.831-.488.843-1.018.995-2.097 1.066-1.079.06-3.789.096-6.137.096-2.352 0-5.063-.036-6.141-.097-1.077-.07-1.607-.223-2.1-1.066-.502-.832-.761-2.292-.761-4.831v-.009c0-2.55.259-3.999.762-4.84.492-.843 1.023-.997 2.1-1.057 1.077-.07 3.788-.1 6.14-.1 2.348 0 5.058.03 6.136.1 1.079.06 1.609.215 2.097 1.057.508.841.765 2.29.765 4.841zm-5.625.002l-5.625-3.272v6.545z"/></defs><use xlink:href="#ma" transform="translate(-982 -3164)"/></symbol></svg>