<?xml version="1.0" encoding="utf-8"?><svg xmlns="http://www.w3.org/2000/svg" xmlns:xlink="http://www.w3.org/1999/xlink"><symbol viewBox="0 0 344.96 344.96" id="check" xmlns="http://www.w3.org/2000/svg"><g data-name="Слой 2"><path d="M321.85 86.24l-40-23.11-23.1-40H212.5L172.48 0l-40 23.11H86.24l-23.11 40-40 23.1v46.21L0 172.48l23.11 40v46.21l40 23.11 23.11 40h46.21l40 23.1 40-23.11h46.21l23.11-40 40-23.11V212.5l23.11-40-23.11-40V86.24zM156.91 243.07a16.79 16.79 0 0 1-23.34 0l-50.45-50.44a16.19 16.19 0 0 1 0-22.89l13.35-13.35a16.19 16.19 0 0 1 22.89 0l25.87 25.87 80.34-80.35a16.19 16.19 0 0 1 22.89 0l13.35 13.35a16.19 16.19 0 0 1 0 22.89z" data-name="Capa 1"/></g></symbol><symbol viewBox="0 0 460.44 460.46" id="search" xmlns="http://www.w3.org/2000/svg"><g data-name="Слой 2"><path d="M302.83 335a187.66 187.66 0 0 1-260.5-29.2C-18.42 231.44-13.25 124 54.41 55.43c67.17-68.08 174.35-74.28 250.22-13.94 77.87 61.94 94.89 178.27 29.45 262.57 1.5.9 3.52 1.63 4.9 3q56.46 56.3 112.82 112.7c7.2 7.16 10.65 15.24 7.43 25.24a22.41 22.41 0 0 1-34.64 11 76 76 0 0 1-7.7-7.11q-55.33-55.29-110.63-110.64c-1.05-1.05-2.15-2.05-3.43-3.25zm-115.92-5.63c78.17.17 142.1-63.25 142.43-141.29.33-78.42-63.26-142.65-141.4-142.82A142.24 142.24 0 0 0 45.25 187.29c-.17 77.97 63.57 141.9 141.66 142.07z" data-name="Слой 1"/></g></symbol></svg>