<?xml version="1.0" encoding="utf-8"?><svg xmlns="http://www.w3.org/2000/svg" xmlns:xlink="http://www.w3.org/1999/xlink"><symbol viewBox="0 0 290.05 278.87" id="box" xmlns="http://www.w3.org/2000/svg"><g data-name="Слой 2"><path d="M176 0h1a12.83 12.83 0 0 0 1.52 1.16q37 20.51 74.08 41Q271.37 52.54 290 63v181a80.14 80.14 0 0 1-7.93 2.31Q194.58 262.63 107 278.74a9.64 9.64 0 0 1-6.47-1.17c-31.73-21.11-63.3-42.46-95.06-63.52C1.33 211.31 0 208.36 0 203.49c.18-53.63.11-107.27.11-160.9 0-10.87 0-11 10.62-12.92 47-8.28 94-16.43 141.05-24.71C159.91 3.53 168 1.67 176 0zm-68.2 271.2l174.43-32.28V69.67c-2 .21-3.47.26-4.91.53-54.81 10.17-109.6 20.43-164.45 30.4-4.4.8-5.16 2.48-5.15 6.45q.18 79.49.08 159c.05 1.46.05 2.95.05 5.15zm-7.8-2.78c.19-1.62.33-2.28.33-2.93q0-80.7-.11-161.41a7.81 7.81 0 0 0-3.08-5.48c-8.53-5.8-17.29-11.25-26-16.77a23.52 23.52 0 0 0-3.38-1.4c0 6.38.1 12.2 0 18-.12 5.23-2.72 6.64-7 3.81-6-4-12-7.86-17.61-12.26a10.08 10.08 0 0 1-3.3-6.5A155.87 155.87 0 0 1 39.76 66a6.42 6.42 0 0 0-3.48-6.47c-8.1-4.93-16-10.17-24-15.27-1.32-.84-2.7-1.59-4.65-2.72-.12 1.89-.26 3-.26 4.1q0 78.2-.1 156.4c0 3.22 1.18 5.13 3.82 6.88 18.59 12.32 37.07 24.8 55.6 37.21 10.87 7.31 21.78 14.57 33.31 22.29zM73.75 74.73C83.43 81 92 86.34 100.36 92a12.26 12.26 0 0 0 9.85 1.84q72.8-13.56 145.62-27c6-1.12 12-2.37 18-3.56C262.65 56 251.38 50 240.31 43.6a13 13 0 0 0-9.9-1.47Q180.16 52.68 129.87 63zm-60-38.24C23 42.41 31 47.35 38.81 52.7a13.24 13.24 0 0 0 11.15 2Q111.75 41.76 173.6 29c9.24-1.92 18.47-3.87 29-6.07-7.84-4.34-14.65-7.79-21.12-11.8-4-2.49-7.87-2.72-12.31-1.91-18.33 3.36-36.7 6.52-55.05 9.73zM60.24 93c0-6.95-.31-12.78.18-18.54.16-1.88 2.15-4.84 3.75-5.18C107.75 60 151.4 51.09 195 42.07q14.69-3 29.36-6.13c-5.72-3.33-10-8.12-17.71-6.46-42.57 9.2-85.28 17.8-127.93 26.63-10.5 2.18-21.03 4.43-31.72 6.68 0 6.64-.08 12.79.07 18.94a4.79 4.79 0 0 0 1.6 3.27c3.41 2.61 7.03 4.92 11.57 8z" data-name="Слой 1"/></g></symbol><symbol viewBox="0 0 344.96 344.96" id="check" xmlns="http://www.w3.org/2000/svg"><g data-name="Слой 2"><path d="M321.85 86.24l-40-23.11-23.1-40H212.5L172.48 0l-40 23.11H86.24l-23.11 40-40 23.1v46.21L0 172.48l23.11 40v46.21l40 23.11 23.11 40h46.21l40 23.1 40-23.11h46.21l23.11-40 40-23.11V212.5l23.11-40-23.11-40V86.24zM156.91 243.07a16.79 16.79 0 0 1-23.34 0l-50.45-50.44a16.19 16.19 0 0 1 0-22.89l13.35-13.35a16.19 16.19 0 0 1 22.89 0l25.87 25.87 80.34-80.35a16.19 16.19 0 0 1 22.89 0l13.35 13.35a16.19 16.19 0 0 1 0 22.89z" data-name="Capa 1"/></g></symbol><symbol viewBox="0 0 30 30" id="close" xmlns="http://www.w3.org/2000/svg"><defs><path id="ca" d="M1889.38 29l.63.62-29.39 29.39-.63-.63z"/><path id="cb" d="M1860.62 29l-.63.62 29.39 29.39.63-.63z"/><clipPath id="cc"><use xlink:href="#ca"/></clipPath><clipPath id="cd"><use xlink:href="#cb"/></clipPath></defs><g transform="translate(-1860 -29)"><use xlink:href="#ca"/><use fill-opacity="0" stroke-miterlimit="50" stroke-width="16" clip-path="url(#cc)" xlink:href="#ca"/></g><g transform="translate(-1860 -29)"><use xlink:href="#cb"/><use fill-opacity="0" stroke-miterlimit="50" stroke-width="16" clip-path="url(#cd)" xlink:href="#cb"/></g></symbol><symbol viewBox="0 0 326 488.92" id="map" xmlns="http://www.w3.org/2000/svg"><g data-name="Слой 2"><g data-name="Слой 1"><path d="M326 164.42c-.57 6.43-1.1 12.87-1.72 19.3-3 31.77-12.05 62-24 91.42-27.44 67.86-66.75 128.69-111.09 186.5-6 7.8-12.21 15.41-18.48 23-4.67 5.63-10.66 5.78-15.26.23-54.53-65.71-101.75-136-132.82-216.06-12-31-20.41-63-21.87-96.47a43.67 43.67 0 0 0-.76-4.92v-8c.76-7.09 1.2-14.23 2.32-21.27C16.23 50.9 99.81-13.42 191.05 2.4 252.61 13.07 306.93 63.67 320.83 125c2.63 11.61 3.49 23.62 5.17 35.45zM162.37 466.35c1.56-1.75 2.25-2.45 2.85-3.21 35.81-44.68 68-91.77 94.58-142.57 22.7-43.43 41.31-88.35 46.73-137.67 3.27-29.78-.45-58.52-13.92-85.56-30.11-60.48-97.71-91.47-164.3-75.46C60.82 38.11 15.37 99.13 18.49 168.48c1.61 35.94 10.91 69.91 24.2 103 20.23 50.33 47.89 96.52 79.22 140.64 12.92 18.17 26.64 35.76 40.46 54.23z"/><path d="M92.69 172.72c0-37.68 32.5-70.26 70.17-70.31s70.29 32.37 70.42 70.06-32.74 70.8-70.43 70.7-70.14-32.83-70.16-70.45zm122.7-.09c0-30-22.12-52.31-51.86-52.31-30.74 0-52.84 21.82-52.92 52.27s22.1 52.59 52.63 52.7c29.86.11 52.19-22.44 52.15-52.66z"/></g></g></symbol><symbol viewBox="0 0 460.44 460.46" id="search" xmlns="http://www.w3.org/2000/svg"><g data-name="Слой 2"><path d="M302.83 335a187.66 187.66 0 0 1-260.5-29.2C-18.42 231.44-13.25 124 54.41 55.43c67.17-68.08 174.35-74.28 250.22-13.94 77.87 61.94 94.89 178.27 29.45 262.57 1.5.9 3.52 1.63 4.9 3q56.46 56.3 112.82 112.7c7.2 7.16 10.65 15.24 7.43 25.24a22.41 22.41 0 0 1-34.64 11 76 76 0 0 1-7.7-7.11q-55.33-55.29-110.63-110.64c-1.05-1.05-2.15-2.05-3.43-3.25zm-115.92-5.63c78.17.17 142.1-63.25 142.43-141.29.33-78.42-63.26-142.65-141.4-142.82A142.24 142.24 0 0 0 45.25 187.29c-.17 77.97 63.57 141.9 141.66 142.07z" data-name="Слой 1"/></g></symbol><symbol viewBox="0 0 10 6" id="sort" xmlns="http://www.w3.org/2000/svg"><defs><path id="fa" d="M715.17 43.59l1.42-1.42 3.41 3.41 3.41-3.4 1.42 1.4-4.24 4.25-.59-.59-.59.59z"/></defs><g transform="translate(-715 -42)"><use xlink:href="#fa"/><use xlink:href="#fa"/></g></symbol><symbol viewBox="0 0 5 8" id="toggle" xmlns="http://www.w3.org/2000/svg"><defs><path id="ga" d="M423.65 567.35l.7-.7 3 3-.35.35.35.35-3 3-.7-.7 2.64-2.65z"/><clipPath id="gb"><use xlink:href="#ga"/></clipPath><clipPath id="gc"><use xlink:href="#ga"/></clipPath></defs><g transform="translate(-423 -566)"><use xlink:href="#ga"/><use fill-opacity="0" stroke-linecap="round" stroke-linejoin="round" stroke-miterlimit="50" stroke-width="2" clip-path="url(#gb)" xlink:href="#ga"/><use fill-opacity="0" stroke-miterlimit="50" stroke-width="16" clip-path="url(#gc)" xlink:href="#ga"/></g></symbol></svg>