<svg xmlns="http://www.w3.org/2000/svg" xmlns:xlink="http://www.w3.org/1999/xlink" width="25" height="25" viewBox="0 0 25 25"><defs><path id="nqi9a" d="M490.5 410a2.5 2.5 0 1 1 0 5 2.5 2.5 0 0 1 0-5z"/><path id="nqi9b" d="M480.5 410a2.5 2.5 0 1 1 0 5 2.5 2.5 0 0 1 0-5z"/><path id="nqi9c" d="M470.5 410a2.5 2.5 0 1 1 0 5 2.5 2.5 0 0 1 0-5z"/><path id="nqi9d" d="M490.5 420a2.5 2.5 0 1 1 0 5 2.5 2.5 0 0 1 0-5z"/><path id="nqi9e" d="M480.5 420a2.5 2.5 0 1 1 0 5 2.5 2.5 0 0 1 0-5z"/><path id="nqi9f" d="M470.5 420a2.5 2.5 0 1 1 0 5 2.5 2.5 0 0 1 0-5z"/><path id="nqi9g" d="M490.5 430a2.5 2.5 0 1 1 0 5 2.5 2.5 0 0 1 0-5z"/><path id="nqi9h" d="M480.5 430a2.5 2.5 0 1 1 0 5 2.5 2.5 0 0 1 0-5z"/><path id="nqi9i" d="M470.5 430a2.5 2.5 0 1 1 0 5 2.5 2.5 0 0 1 0-5z"/></defs><g><g transform="translate(-468 -410)"><g><use fill="#1c1d1e" xlink:href="#nqi9a"/><use fill="#606162" xlink:href="#nqi9a"/></g><g><use fill="#1c1d1e" xlink:href="#nqi9b"/><use fill="#606162" xlink:href="#nqi9b"/></g><g><use fill="#1c1d1e" xlink:href="#nqi9c"/><use fill="#606162" xlink:href="#nqi9c"/></g><g><use fill="#1c1d1e" xlink:href="#nqi9d"/><use fill="#606162" xlink:href="#nqi9d"/></g><g><use fill="#1c1d1e" xlink:href="#nqi9e"/><use fill="#606162" xlink:href="#nqi9e"/></g><g><use fill="#1c1d1e" xlink:href="#nqi9f"/><use fill="#606162" xlink:href="#nqi9f"/></g><g><use fill="#1c1d1e" xlink:href="#nqi9g"/><use fill="#606162" xlink:href="#nqi9g"/></g><g><use fill="#1c1d1e" xlink:href="#nqi9h"/><use fill="#606162" xlink:href="#nqi9h"/></g><g><use fill="#1c1d1e" xlink:href="#nqi9i"/><use fill="#606162" xlink:href="#nqi9i"/></g></g></g></svg>