<svg xmlns="http://www.w3.org/2000/svg" xmlns:xlink="http://www.w3.org/1999/xlink" width="17" height="17" viewBox="0 0 17 17"><defs><path id="rreta" d="M585.5 9a8.5 8.5 0 1 1 0 17 8.5 8.5 0 0 1 0-17zm2.505 4.574l-2.533 2.532-2.494-2.495a.969.969 0 0 0-1.37 1.37l2.495 2.495L581.578 20a.968.968 0 0 0 1.37 1.37l2.524-2.525 2.525 2.525a.968.968 0 1 0 1.37-1.37l-2.525-2.524 2.533-2.533a.968.968 0 1 0-1.37-1.37z"/><path id="rretb" d="M575.5 27.9V7.1h20v20.8zm2-9.5a8.5 8.5 0 1 0 17 0 8.5 8.5 0 1 0-17 0zm11.005-3.926a.969.969 0 0 1 1.37 1.37l-2.533 2.532 2.525 2.524a.968.968 0 1 1-1.37 1.37l-2.525-2.525-2.524 2.525a.968.968 0 1 1-1.37-1.37l2.525-2.524-2.495-2.495a.969.969 0 0 1 1.37-1.37l2.494 2.495 2.533-2.532z"/><filter id="rretc" width="200%" height="200%" x="-50%" y="-50%"><feGaussianBlur in="SourceGraphic" result="FeGaussianBlur1085Out" stdDeviation="0.5 0.5"/></filter><mask id="rretd"><use fill="#fff" xlink:href="#rreta"/></mask></defs><g><g transform="translate(-577 -9)"><use fill="#828282" xlink:href="#rreta"/><use fill-opacity=".1" stroke="#000" stroke-opacity=".1" stroke-width="0" filter="url(#rretc)" mask="url(&quot;#rretd&quot;)" xlink:href="#rretb"/></g></g></svg>