<svg xmlns="http://www.w3.org/2000/svg" xmlns:xlink="http://www.w3.org/1999/xlink" width="11" height="11" viewBox="0 0 11 11"><defs><path id="c5b6a" d="M425.333 185.5c0 1.01-.823 1.833-1.833 1.833a1.837 1.837 0 0 1-1.833-1.833c0-1.01.823-1.834 1.833-1.834s1.833.824 1.833 1.834zm3.667-.78a.261.261 0 0 0-.208-.259l-1.31-.2a3.95 3.95 0 0 0-.294-.702c.243-.337.508-.652.752-.981a.27.27 0 0 0 .007-.322c-.3-.423-.802-.867-1.182-1.218a.283.283 0 0 0-.179-.071.244.244 0 0 0-.171.064l-1.017.766a4.207 4.207 0 0 0-.645-.265l-.2-1.317c-.015-.122-.13-.215-.258-.215h-1.59a.262.262 0 0 0-.258.2c-.114.43-.158.896-.208 1.332a4.329 4.329 0 0 0-.651.272l-.989-.766a.319.319 0 0 0-.186-.071c-.243 0-1.21 1.045-1.382 1.282a.279.279 0 0 0-.064.164c0 .065.028.122.071.172.265.322.523.645.767.988-.115.215-.208.43-.28.66l-1.332.2c-.107.021-.193.15-.193.258v1.59c0 .121.086.236.207.257l1.31.194c.073.243.173.48.295.709-.244.336-.509.651-.752.98a.279.279 0 0 0-.007.33c.3.415.802.86 1.181 1.203.05.05.115.079.18.079a.275.275 0 0 0 .178-.064l1.01-.767c.208.108.423.194.645.265l.2 1.318c.014.122.129.215.258.215h1.59c.129 0 .229-.086.258-.2.114-.43.157-.896.207-1.333.222-.071.444-.164.652-.272l.988.774a.364.364 0 0 0 .186.064c.244 0 1.21-1.053 1.383-1.282.043-.05.064-.1.064-.165a.283.283 0 0 0-.072-.179 15.09 15.09 0 0 1-.766-.988c.115-.208.2-.422.28-.652l1.324-.2c.115-.022.2-.15.2-.258z"/></defs><g><g transform="translate(-418 -180)"><use fill="#fff" xlink:href="#c5b6a"/><use fill="#b4b4b4" xlink:href="#c5b6a"/></g></g></svg>