<svg xmlns="http://www.w3.org/2000/svg" xmlns:xlink="http://www.w3.org/1999/xlink" width="18" height="16" viewBox="0 0 18 16"><defs><path id="t5pma" d="M1656.65 164.914h-15.3c-.424 0-.818.122-1.145.332l2.255-10.169c.132-.595.76-1.077 1.402-1.077h10.275c.643 0 1.27.482 1.402 1.077l2.255 10.169a2.12 2.12 0 0 0-1.144-.332zm-16.65 3.81v-1.873c0-.25.077-.484.21-.68.239-.358.66-.597 1.14-.597h15.3c.48 0 .901.238 1.14.596.132.197.21.43.21.68v1.873c0 .705-.604 1.277-1.35 1.277h-15.3c-.746 0-1.35-.572-1.35-1.277zm16.019-1.441a.34.34 0 0 0-.35-.33h-2.939a.34.34 0 0 0-.349.33c0 .182.157.33.35.33h2.939a.34.34 0 0 0 .349-.33z"/></defs><g><g transform="translate(-1640 -154)"><use xlink:href="#t5pma"/><use fill="#bac1c7" xlink:href="#t5pma"/></g></g></svg>