<?xml version="1.0" encoding="utf-8"?><svg xmlns="http://www.w3.org/2000/svg" xmlns:xlink="http://www.w3.org/1999/xlink"><symbol viewBox="0 0 344.96 344.96" id="check" xmlns="http://www.w3.org/2000/svg"><g data-name="Слой 2"><path d="M321.85 86.24l-40-23.11-23.1-40H212.5L172.48 0l-40 23.11H86.24l-23.11 40-40 23.1v46.21L0 172.48l23.11 40v46.21l40 23.11 23.11 40h46.21l40 23.1 40-23.11h46.21l23.11-40 40-23.11V212.5l23.11-40-23.11-40V86.24zM156.91 243.07a16.79 16.79 0 0 1-23.34 0l-50.45-50.44a16.19 16.19 0 0 1 0-22.89l13.35-13.35a16.19 16.19 0 0 1 22.89 0l25.87 25.87 80.34-80.35a16.19 16.19 0 0 1 22.89 0l13.35 13.35a16.19 16.19 0 0 1 0 22.89z" data-name="Capa 1"/></g></symbol><symbol viewBox="0 0 24 18" id="email" xmlns="http://www.w3.org/2000/svg"><defs><path id="ba" d="M1056 82.477l-.002.012c.013.375-.06.728-.196 1.046a.893.893 0 0 1-.18.4 1.04 1.04 0 0 1-.103.093c-.44.593-1.134.972-1.883.972h-19.272c-.749 0-1.443-.38-1.883-.972a1.04 1.04 0 0 1-.103-.094.893.893 0 0 1-.18-.399 2.436 2.436 0 0 1-.196-1.046l-.002-.012V69.523c0-.639.224-1.22.594-1.662a.655.655 0 0 1 .186-.2c.242-.232.531-.413.85-.526l.005-.001c.033-.012.066-.023.1-.033l.011-.003a2.275 2.275 0 0 1 .207-.052l.023-.004.09-.016.03-.004.085-.01.041-.003.076-.006.085-.002h19.234c.028 0 .057 0 .085.002l.076.006c.014 0 .028.002.041.003l.085.01.03.004.09.016.023.004.094.02a2.287 2.287 0 0 1 .113.03 2.065 2.065 0 0 1 .111.036l.004.003c.32.113.609.294.851.526a.657.657 0 0 1 .186.2c.37.443.594 1.023.594 1.662zm-1.612-.886V69.806l-6.17 5.703zm-19.53-12.909l9.142 8.444 9.143-8.444zm-1.246 12.909l6.17-6.082-6.17-5.703zm19.97 1.727h.006c.02 0 .041-.002.061-.004l.033-.004.01-.002a.685.685 0 0 0 .053-.01l-6.616-6.568-.113-.11-2.453 2.268a1.8 1.8 0 0 1-.182.111.626.626 0 0 1-.272.104.45.45 0 0 1-.083.009h-.052a.45.45 0 0 1-.083-.01.626.626 0 0 1-.272-.103 1.799 1.799 0 0 1-.182-.111l-2.453-2.268-.113.11-6.616 6.568a.68.68 0 0 0 .053.01l.01.002.033.004a.64.64 0 0 0 .06.003h.007z"/></defs><use xlink:href="#ba" transform="translate(-1032 -67)"/></symbol><symbol viewBox="0 0 14 28" id="phone" xmlns="http://www.w3.org/2000/svg"><defs><path id="ca" d="M80.548 88.005S78 88.005 78 85.454v-22.91C78 60 80.55 60 80.55 60h8.906s2.55 0 2.55 2.544v22.91c0 2.55-2.55 2.55-2.55 2.55zm4.45-1.061c.703 0 1.275-.572 1.275-1.273 0-.7-.572-1.272-1.275-1.272a1.27 1.27 0 0 0-1.267 1.272c0 .7.565 1.273 1.267 1.273zM83.09 61.625c0 .156.075.28.169.28h3.48c.094 0 .175-.118.175-.28v-.074c0-.154-.081-.278-.175-.278h-3.48c-.094 0-.17.124-.17.278zm-3.816 21.888H90.73V63.177H79.274z"/></defs><use xlink:href="#ca" transform="translate(-78 -60)"/></symbol></svg>