<svg xmlns="http://www.w3.org/2000/svg" width="81" height="25"  viewBox="0 0 560.8 167.72"><defs><style>.cls-1{fill:#e32e2b;}</style></defs><title>8</title><g id="Слой_2" data-name="Слой 2"><g id="svg2"><path id="path12" class="cls-1" d="M350.88,167.19c-19.92-2.5-46.39-9.85-64.22-17.84-15.53-7-28.9-14.9-64.1-38.11-17.32-11.42-35.1-22.82-39.5-25.34-19.85-11.33-42.8-20.68-58.26-23.72-5-1-6.24-1.6-6.24-3.1,0-2.93,7-2.4,20.83,1.58C166.1,68.36,197.33,83,247.55,111.23c41.62,23.43,56.58,31.18,70.57,36.56,33,12.7,38.51,13.8,70.43,14,23.09.18,24.5.3,24.5,2,0,1.41-1.07,2-4.5,2.61-7,1.19-49.67,1.71-57.67.71ZM87.55,154.75c-46.78-6.91-74.24-23.44-84.44-50.83C-.25,94.86-.76,89.58,1,81.33,4.56,64.1,18.14,49.25,39.91,38.75,65.6,26.36,94.39,22.25,134.55,25.23c32.11,2.38,60.25,10.61,94,27.5,19.75,9.88,32.93,17.67,73.66,43.53,46.61,29.59,63.73,38,92.84,45.46q48.27,12.41,91.5,3.45c24.14-5,39.5-13.06,53.2-27.85,14.91-16.11,18.91-36.46,10.48-53.4-13.49-27.13-50-45.08-99.18-48.72-37.14-2.75-84,7.54-113.86,25-7.64,4.47-9.12,4.8-10.09,2.27s2-4.62,19-12.84c26.35-12.8,48.9-18.82,80.5-21.49,18.95-1.6,38.47.22,60.1,5.59,36.25,9,64.65,30.07,72,53.41,2.45,7.76,2.87,20.81.94,29.07-2.9,12.41-12.51,26-24.39,34.4-13.28,9.42-37.81,19.29-55.09,22.15-34.74,5.77-79.59.8-122.72-13.6-34.68-11.58-58.74-23.51-116.84-58C185,48.29,169.12,41,139.55,35c-10.06-2-14.39-2.33-34.5-2.33-25,0-31.11.81-49,6.55-31.76,10.21-48.64,27.8-48.92,51-.1,8,.15,9.07,3.63,16.11,6.12,12.38,20.24,24.3,38.3,32.33a38.42,38.42,0,0,0,8,2.78,4,4,0,0,1,2.62,1c1.18,1.7,19.34,5.65,31.35,6.81,29.39,2.85,64.22-4.63,98.17-21.06,10.29-5,14.45-6.55,15.25-5.75a3.65,3.65,0,0,1,1.1,1.8c0,1.08-14.44,9.3-25.08,14.28-29.92,14-65.6,20.18-92.92,16.14ZM407.2,110.2a193.91,193.91,0,0,1-64.14-18.39c-16-7.7-29.65-16-62.51-38.09-29.77-20-40.69-26.59-57.33-34.51A174.07,174.07,0,0,0,184.76,5.64c-7.36-1.58-8.26-2-8-3.85.36-2.53,3.38-2.41,15.25.57,28.78,7.25,58.13,20.26,108.19,48,79,43.75,109.73,55,146.23,53.59,8-.31,17.22-1.21,20.4-2,5.4-1.35,5.85-1.32,6.75.37,1.41,2.63,1.4,2.64-3.78,3.84-17.17,4-46.81,5.9-62.61,4.08Z"/></g></g></svg>