<svg xmlns="http://www.w3.org/2000/svg" xmlns:xlink="http://www.w3.org/1999/xlink" width="22" height="21" viewBox="0 0 22 21"><defs><path id="3vn1a" d="M659.87 45h-2.25v7.62c0 .14-.1.25-.25.25h-3.12v-5.62h-4.5v5.62h-3.13a.25.25 0 0 1-.25-.25V45h-2.24l7.87-7.88zm-8.67-8.67l-7.87 7.87a1.1 1.1 0 0 0-.08.09l-.02.04-.04.04-.03.05c0 .02-.02.03-.03.05l-.02.05-.02.05-.02.05-.02.05-.01.05-.02.06v.06l-.01.05v.27l.01.06.02.05v.06l.03.05c0 .02 0 .03.02.05l.02.05.02.05.03.05.03.04.04.05.02.04.16.16.04.03.05.03.05.03.04.03.06.03.04.02.05.02c.02 0 .04 0 .06.02h.05l.05.02.06.01h.05l.11.01h1.13v6.5c0 .76.62 1.38 1.37 1.38h4.25v-5.63h2.25V54h4.25c.76 0 1.38-.62 1.38-1.38v-6.5H660.04l.05-.02.06-.01.05-.01.06-.02.05-.02.04-.02.06-.03.04-.03c.02 0 .03-.02.05-.03.02 0 .03-.02.05-.03l.04-.03.15-.16.03-.04.04-.05.03-.04c0-.02.02-.04.03-.05l.02-.05.02-.05.02-.05.02-.05.01-.06.02-.05v-.06l.01-.05v-.22-.05l-.01-.06-.02-.06v-.05l-.03-.05c0-.02 0-.03-.02-.05l-.02-.05-.02-.05-.03-.05-.03-.05-.04-.04c0-.02-.01-.03-.03-.04a1.06 1.06 0 0 0-.07-.09l-7.87-7.87a1.12 1.12 0 0 0-1.6 0z"/></defs><g><g transform="translate(-641 -34)"><use fill="#e22126" xlink:href="#3vn1a"/></g></g></svg>