<svg xmlns="http://www.w3.org/2000/svg" viewBox="0 0 113.06 20.83" width="229" height="40" ><defs><style>.cls-1{fill:#ed1c24;}</style></defs><title>logo</title><g id="Слой_2" data-name="Слой 2"><g id="Слой_1-2" data-name="Слой 1"><path class="cls-1" d="M63.61,1.81l-.28,8.37-1.81-.06.28-8.37Z"/><path class="cls-1" d="M2.25,9.41,1.13,6.68l-1,.41L0,6.72l2.35-1,.15.36-1,.41L2.64,9.24Z"/><path class="cls-1" d="M4,8.67,2.75,5.58l.59-.25,1.6,1.9.33.4q0-.19,0-.56L5,4.62l.53-.22,1.27,3.1-.38.16L5.41,5.06l.2,3-.36.15L3.31,5.88,4.39,8.51Z"/><path class="cls-1" d="M47.72,15.81l.82,3.2-1.09.09L47,16.27l.08-.57-.22,0-.29,1.92a3.79,3.79,0,0,0,0,.78c0,.28,0,.54.06.8l-1.38.11-1-3.4L44,16l.15.6,0,2.81L43,19.46l.29-3.29a.56.56,0,0,0-.08-.33l.21-.34,1.33-.11,1.09,2.9.21-.08-.28-.81.52-2.13,1.13-.09.26.3A.56.56,0,0,0,47.72,15.81Z"/><path class="cls-1" d="M49.6,15l1-.05a2.1,2.1,0,0,1,.54.28,2.17,2.17,0,0,1,.45.43,2.25,2.25,0,0,1,.32.58,2.36,2.36,0,0,1,.14.7,1.85,1.85,0,0,1-.08.64,2.21,2.21,0,0,1-.26.57,2.4,2.4,0,0,1-.4.48,2.29,2.29,0,0,1-.5.35l-.95,0a1.6,1.6,0,0,1-.5-.31,2.21,2.21,0,0,1-.41-.49,2.57,2.57,0,0,1-.28-.6,2.41,2.41,0,0,1-.12-.65,2.28,2.28,0,0,1,.06-.67,2,2,0,0,1,.22-.54,1.88,1.88,0,0,1,.35-.43A2.32,2.32,0,0,1,49.6,15Zm.44.3-.14.12.18.15.15.16A1.59,1.59,0,0,0,50,16a1.94,1.94,0,0,0-.26.37,2.19,2.19,0,0,0-.18.45,1.64,1.64,0,0,0-.05.51,1.44,1.44,0,0,0,.23.75,2.27,2.27,0,0,0,.57.56l.14-.12-.15-.11-.13-.12.33-.25a2.05,2.05,0,0,0,.32-.34A1.8,1.8,0,0,0,51,17.2a1.42,1.42,0,0,0,.08-.58,1.12,1.12,0,0,0-.11-.44,1.73,1.73,0,0,0-.25-.38,2,2,0,0,0-.34-.3A2.2,2.2,0,0,0,50,15.29Z"/><path class="cls-1" d="M55.34,18.74l-1,0-.09-3,.2-.11.19-.08,0-.17a1.43,1.43,0,0,0-.4.07,2,2,0,0,0-.36.16,1.17,1.17,0,0,0-.34-.13,1.5,1.5,0,0,0-.4,0l0,.18a1.05,1.05,0,0,1,.26.08l.21.11a3.74,3.74,0,0,0-.12.67,6.09,6.09,0,0,0,0,.65,4.91,4.91,0,0,0,.1.86c.06.28.12.58.2.9L52.26,19l0-1.08.27-.06.22.48.2-.07c-.14-.32-.28-.66-.4-1a4.11,4.11,0,0,1-.21-1.18,3.93,3.93,0,0,1,0-.57,3,3,0,0,1,.13-.58l2.69-.08.19.36a.55.55,0,0,0-.1.32Z"/><path class="cls-1" d="M57,18.47l.09-.14a.59.59,0,0,1-.16-.08l-.14-.12a1,1,0,0,0,.31-.31.68.68,0,0,0,.12-.4A.82.82,0,0,0,57,17a1.1,1.1,0,0,0-.55-.38,1.85,1.85,0,0,0,.3-.69,3.61,3.61,0,0,0,.06-.74h-.18a2,2,0,0,1-.41,1.26,1.53,1.53,0,0,1-.37-.24,1.27,1.27,0,0,1-.28-.36,3.13,3.13,0,0,0,.28-.51,3.18,3.18,0,0,0,.2-.55h1.26a4.05,4.05,0,0,1,.24.7,2.84,2.84,0,0,1,.07.69,2.78,2.78,0,0,1,0,.33,2,2,0,0,0-.38-.09l0,.15a1.3,1.3,0,0,1,.39.21,1,1,0,0,1,.25.29,1.28,1.28,0,0,1,.13.34,1.81,1.81,0,0,1,0,.36,1.71,1.71,0,0,1-.1.58,1.44,1.44,0,0,1-.25.46l-2,0a3,3,0,0,1-.1-.4,2.15,2.15,0,0,1,0-.38c0-.1,0-.2,0-.3s0-.21,0-.33l.53-.15a2.58,2.58,0,0,0,0,.29,1.18,1.18,0,0,0,.11.33,1.2,1.2,0,0,0,.25.33A1.41,1.41,0,0,0,57,18.47Z"/><path class="cls-1" d="M60.75,14.82l.26.3s0,.1,0,.14a.3.3,0,0,0,0,.14l1.24,3.35H61.14L61,18l.32-.06-.06-.21a3.39,3.39,0,0,0-.57,0,2.93,2.93,0,0,0-.5.13,2.51,2.51,0,0,0-.5-.14,3.61,3.61,0,0,0-.56,0l-.07.21.2,0,.17,0-.22.69H58.14l1.23-3.32a.3.3,0,0,0,0-.14.54.54,0,0,0,0-.14l.27-.29Zm-.42.51h-.24v.62l-.41,1.16-.37,0v.2a2.06,2.06,0,0,0,.48,0l.39-.11.41.12a1.71,1.71,0,0,0,.44,0l0-.2h-.17l-.18,0-.38-1.17Z"/><path class="cls-1" d="M62.54,15.47a.34.34,0,0,0,0-.14l-.07-.12.2-.36,2.22.08a.93.93,0,0,1,.31.73,1.06,1.06,0,0,1-.19.55,1.63,1.63,0,0,1-.51.48l.1.16.17-.09.16-.09a1.23,1.23,0,0,1,.26.41,1.42,1.42,0,0,1,.09.6,1.9,1.9,0,0,1,0,.29,2.42,2.42,0,0,1-.08.31,3,3,0,0,1-.12.3,1.58,1.58,0,0,1-.14.25l-2.37-.08-.17-.37a.55.55,0,0,0,.12-.31Zm.93,2.75-.17,0h-.17v.17l.16,0h.15a1.08,1.08,0,0,0,.45-.07.92.92,0,0,0,.31-.21.87.87,0,0,0,.19-.28.9.9,0,0,0,.06-.29.65.65,0,0,0,0-.24.55.55,0,0,0-.12-.21.62.62,0,0,0-.2-.15.66.66,0,0,0-.27-.06.84.84,0,0,0-.36.08,2,2,0,0,0-.38.21l.09.13.17-.09.18-.05Zm-.3-1.48a3,3,0,0,0,.38-.18,2.38,2.38,0,0,0,.33-.22,1.26,1.26,0,0,0,.24-.26.55.55,0,0,0,.1-.29.44.44,0,0,0-.14-.34.63.63,0,0,0-.44-.16h-.21l-.24,0,0,.16a.93.93,0,0,1,.35,0l0,.74a1,1,0,0,1-.2.2l-.24.17Z"/><path class="cls-1" d="M66.78,15l1,.06a2,2,0,0,1,.5.34,2.23,2.23,0,0,1,.4.48,2.28,2.28,0,0,1,.25.61,2.21,2.21,0,0,1,.07.71,1.81,1.81,0,0,1-.14.63,2.15,2.15,0,0,1-.32.54,2.39,2.39,0,0,1-.45.43,2.28,2.28,0,0,1-.54.3L66.59,19a1.59,1.59,0,0,1-.46-.37,2.16,2.16,0,0,1-.35-.53,2.78,2.78,0,0,1-.21-.63,2.54,2.54,0,0,1-.05-.66,2.2,2.2,0,0,1,.13-.66,1.92,1.92,0,0,1,.28-.52,2,2,0,0,1,.39-.39A2.47,2.47,0,0,1,66.78,15Zm.41.34-.15.1.17.17a1.25,1.25,0,0,1,.13.17A1.58,1.58,0,0,0,67,16a2.07,2.07,0,0,0-.3.34,2.27,2.27,0,0,0-.23.43,1.59,1.59,0,0,0-.11.5,1.46,1.46,0,0,0,.15.77,2.31,2.31,0,0,0,.5.62l.15-.11-.13-.13L67,18.26l.35-.21a2.12,2.12,0,0,0,.36-.31,2,2,0,0,0,.29-.42,1.43,1.43,0,0,0,.14-.57A1.1,1.1,0,0,0,68,16.3a1.77,1.77,0,0,0-.21-.41,1.93,1.93,0,0,0-.3-.34A2,2,0,0,0,67.19,15.3Z"/><path class="cls-1" d="M72.56,18.84l.41,0c0,.16,0,.32,0,.49a4.09,4.09,0,0,1,0,.51c0,.06,0,.12,0,.18l0,.18-1,.13a3.22,3.22,0,0,0,0-.38,2.41,2.41,0,0,0-.1-.38l.35-.08v-.2a2.62,2.62,0,0,0-.59,0l-.59.11-.51-.2a2.22,2.22,0,0,0-.58-.12l0,.2.38.11c-.08.14-.14.27-.18.37a1.87,1.87,0,0,0-.11.38l-1-.29c0-.06,0-.12,0-.18s0-.12,0-.18a4.5,4.5,0,0,1,.07-.5c0-.16.07-.32.11-.47l.41,0a6.55,6.55,0,0,0,.29-.76,3.52,3.52,0,0,0,.14-.69,1.9,1.9,0,0,0-.05-.65,1,1,0,0,0-.29-.47l.31-.82,2.79.23.15.38-.08.12a.26.26,0,0,0,0,.14ZM71.25,16l-.38-.17a1.39,1.39,0,0,0-.39-.09l-.06.18.22.09a.6.6,0,0,1,.16.09c0,.21,0,.4.06.58s0,.36,0,.57,0,.41-.07.6a4.75,4.75,0,0,1-.14.59.68.68,0,0,1-.21.07l-.25,0,0,.19a1.33,1.33,0,0,0,.4,0L71,18.6l.41.18a1.47,1.47,0,0,0,.42.1l.06-.16-.2-.07a.66.66,0,0,1-.19-.11l.19-2.34a1.23,1.23,0,0,1,.42-.1l0-.18a1.46,1.46,0,0,0-.43,0Z"/><rect class="cls-1" x="62.16" y="-0.2" width="1.32" height="1.77" transform="translate(60.57 63.46) rotate(-88.57)"/><path class="cls-1" d="M3.91,13.16a.78.78,0,0,0-.21-.29l-.27-.21,0-1L9.07,9.21l.88,3.3a4.52,4.52,0,0,0-.78.13,5.86,5.86,0,0,0-1,.33l-.64-.85a1.56,1.56,0,0,1,.25-.37l.29-.29-.32-.3a1.57,1.57,0,0,0-.57.42c-.15.18-.3.37-.45.58A4.39,4.39,0,0,0,6,12.09a2,2,0,0,0-.8.18l0,.43a5.05,5.05,0,0,1,.58,0l.49,0,.61,1.41a3.52,3.52,0,0,0-.35.48l-.3.52.3.26a5.52,5.52,0,0,1,.88-1.15,3.18,3.18,0,0,1,.91-.63,2.27,2.27,0,0,1,2.14,0A3.62,3.62,0,0,1,12,15.39a5.25,5.25,0,0,1,.23.69,6.58,6.58,0,0,1,.15.79,7.71,7.71,0,0,1,.07.81,4.17,4.17,0,0,1,0,.72l-5.1,2.22L6.56,20a1.44,1.44,0,0,0-.09-.83Zm4.87,5.26-.36.22a2,2,0,0,1-.38.15l.17.39.36-.11.33-.13a2.37,2.37,0,0,0,.87-.6,2.17,2.17,0,0,0,.54-1.6,2.35,2.35,0,0,0-.17-.73,1.74,1.74,0,0,0-.33-.5,1.49,1.49,0,0,0-.47-.34A1.44,1.44,0,0,0,8.76,15a1.51,1.51,0,0,0-.64.13,1.91,1.91,0,0,0-.69.55,4.53,4.53,0,0,0-.57.86l.31.2a2.21,2.21,0,0,1,.28-.37,3,3,0,0,1,.32-.3Z"/><path class="cls-1" d="M12.87,7.66l2.18-.75a4.76,4.76,0,0,1,1.4.32A5.29,5.29,0,0,1,17.77,8a5.58,5.58,0,0,1,1.12,1.17,5.91,5.91,0,0,1,.8,1.58A4.86,4.86,0,0,1,20,12.31a5.72,5.72,0,0,1-.2,1.54,5.89,5.89,0,0,1-.58,1.41,5.24,5.24,0,0,1-.89,1.17l-2.1.73a3.82,3.82,0,0,1-1.35-.43,5.61,5.61,0,0,1-1.25-.9,7.08,7.08,0,0,1-1-1.26,6.67,6.67,0,0,1-.73-1.48,5.94,5.94,0,0,1-.33-1.64A5.1,5.1,0,0,1,11.61,10a4.91,4.91,0,0,1,.49-1.26A5.61,5.61,0,0,1,12.87,7.66Zm1.21.42-.23.37a4.11,4.11,0,0,1,.52.24,3.4,3.4,0,0,1,.46.28,3.73,3.73,0,0,0-.45.78,4.88,4.88,0,0,0-.33,1,5.44,5.44,0,0,0-.1,1.2,4.23,4.23,0,0,0,.23,1.27,3.77,3.77,0,0,0,1,1.66,5.55,5.55,0,0,0,1.67,1l.22-.39-.41-.18-.38-.2q.27-.35.56-.81a5,5,0,0,0,.49-1A4.63,4.63,0,0,0,17.61,12a3.75,3.75,0,0,0-.22-1.44,3,3,0,0,0-.56-1A4.19,4.19,0,0,0,16,8.88a4.72,4.72,0,0,0-1-.52A5.28,5.28,0,0,0,14.08,8.08Z"/><path class="cls-1" d="M19.19,5.71,25,4.12l1.1,3.23a5.77,5.77,0,0,0-1.21.59,9.64,9.64,0,0,0-1,.77L23.14,7a2,2,0,0,1,.42-.52c.19-.17.39-.33.62-.5l-.25-.27a2.42,2.42,0,0,0-.71.34,3.89,3.89,0,0,0-.65.55,5.84,5.84,0,0,0-.8-.13,2.43,2.43,0,0,0-.89.07V7a2.46,2.46,0,0,1,.45.06l.39.13L24,14.52l-2.49.68L19.46,7.4A1.41,1.41,0,0,0,19,6.7Z"/><path class="cls-1" d="M28.68,3.17l2.26-.46a4.71,4.71,0,0,1,1.35.51,5.34,5.34,0,0,1,1.21.92,5.69,5.69,0,0,1,1,1.31A6,6,0,0,1,35,7.12a4.92,4.92,0,0,1,.06,1.6,5.76,5.76,0,0,1-.39,1.5,6,6,0,0,1-.76,1.32,5.27,5.27,0,0,1-1,1L30.73,13a3.77,3.77,0,0,1-1.28-.6,5.56,5.56,0,0,1-1.12-1.06A7,7,0,0,1,27.46,10a6.66,6.66,0,0,1-.53-1.56,6.06,6.06,0,0,1-.12-1.67,5.23,5.23,0,0,1,.31-1.42,4.8,4.8,0,0,1,.65-1.19A5.58,5.58,0,0,1,28.68,3.17Zm1.14.58-.28.34a4.39,4.39,0,0,1,.48.3,3.35,3.35,0,0,1,.41.34,3.64,3.64,0,0,0-.55.71,4.81,4.81,0,0,0-.46,1,5.34,5.34,0,0,0-.25,1.18,4.11,4.11,0,0,0,.07,1.28,3.78,3.78,0,0,0,.81,1.78,5.46,5.46,0,0,0,1.52,1.19l.28-.35-.38-.23L31.13,11c.21-.2.43-.45.66-.73a4.86,4.86,0,0,0,.62-1,4.71,4.71,0,0,0,.4-1.2,3.75,3.75,0,0,0,0-1.45,3,3,0,0,0-.43-1,4.46,4.46,0,0,0-.73-.86,4.94,4.94,0,0,0-.89-.64A5.15,5.15,0,0,0,29.82,3.75Z"/><path class="cls-1" d="M44.19,9.43l1-.12q.18.57.32,1.17a12,12,0,0,1,.22,1.25c0,.15,0,.3.05.45s0,.3,0,.45l-2.22.82c-.09-.37-.18-.67-.26-.9a6.41,6.41,0,0,0-.41-.87l.77-.38-.13-.49a5.45,5.45,0,0,0-1.35.35q-.66.26-1.31.57l-1.26-.22a4.88,4.88,0,0,0-1.39,0V12l.93.08c-.1.39-.18.72-.23,1a5,5,0,0,0-.07,1l-2.35-.23-.08-.45c0-.15,0-.3-.06-.45a11.45,11.45,0,0,1-.1-1.27q0-.62,0-1.21l1-.12a16,16,0,0,0,.28-2,8.78,8.78,0,0,0,0-1.74A4.85,4.85,0,0,0,37,5a2.4,2.4,0,0,0-.9-1l.29-2.17L42.94,1l.54.85a2.15,2.15,0,0,0-.14.33.84.84,0,0,0,0,.36Zm-4.4-6.19c-.32-.09-.64-.17-1-.23a3,3,0,0,0-.94,0l0,.46.56.1a1.39,1.39,0,0,1,.4.13q.27.76.42,1.38a13.24,13.24,0,0,1,.25,1.4c.06.51.11,1,.13,1.5a13,13,0,0,1,0,1.52,1.5,1.5,0,0,1-.46.27l-.56.21.16.44a3.19,3.19,0,0,0,.91-.26c.28-.13.61-.3,1-.51.35.09.7.16,1,.22a3.22,3.22,0,0,0,1,0l0-.43-.49-.08a1.35,1.35,0,0,1-.47-.18L41,3.37a2.8,2.8,0,0,1,.91-.47l-.2-.43a3.13,3.13,0,0,0-1,.29Z"/><path class="cls-1" d="M51.41,9a1.36,1.36,0,0,0,0,.43,2,2,0,0,0,.14.39l-.51.87-3-.23-.32-1.2A5,5,0,0,1,50,8.58L50,8a8.74,8.74,0,0,0-1.42.19,7,7,0,0,0-1.13.37,8,8,0,0,1-1.63-3.13A21.85,21.85,0,0,1,45.13.81L47.22.68q.1,1.61.28,2.83A9.2,9.2,0,0,0,48,5.56a2.89,2.89,0,0,0,.86,1.23,1.9,1.9,0,0,0,1.32.36l.06-.51h-.44a1,1,0,0,1-.36-.08L50.31.47,52.17.36Z"/><path class="cls-1" d="M52.88.33l2.66,0,.72,1.63-.3,1,.3.53L57.77.29l2.66,0-2.2,4-.54-.86-.29.56L60.5,10l-2.1,0L57.07,7.71l.44-.87-.32-.54L55.1,10.09l-2.1,0,2.21-4.54.55.8L56,5.94Z"/><path class="cls-1" d="M65.48,2a.79.79,0,0,0,0-.35,2.66,2.66,0,0,0-.16-.32l.49-.87L71,.87a2.35,2.35,0,0,1,.53.89,2.54,2.54,0,0,1,.12,1,2.85,2.85,0,0,1-.5,1.37,3.89,3.89,0,0,1-1.24,1.16l.22.4.4-.2.38-.22a3.17,3.17,0,0,1,.57,1.05,3.84,3.84,0,0,1,.16,1.5,5.14,5.14,0,0,1-.11.72,6.23,6.23,0,0,1-.23.77c-.09.26-.2.51-.31.75a4.23,4.23,0,0,1-.36.63l-5.55-.42-.36-.94a1.42,1.42,0,0,0,.3-.78ZM67.37,9,67,9a2.26,2.26,0,0,1-.41,0l0,.41.37.07.35,0a2.37,2.37,0,0,0,1-.13A2.09,2.09,0,0,0,69,8.86a2.16,2.16,0,0,0,.46-.68,2.23,2.23,0,0,0,.19-.72,1.67,1.67,0,0,0-.06-.6,1.47,1.47,0,0,0-.26-.53,1.49,1.49,0,0,0-1.08-.56,1.86,1.86,0,0,0-.86.17,5,5,0,0,0-.9.5l.19.32a2.29,2.29,0,0,1,.84-.31Zm-.55-3.71a7.57,7.57,0,0,0,.91-.42,5.4,5.4,0,0,0,.8-.54,2.91,2.91,0,0,0,.58-.62A1.44,1.44,0,0,0,69.37,3a1.15,1.15,0,0,0-.29-.86,1.42,1.42,0,0,0-1-.43,2.76,2.76,0,0,0-.5,0,4.16,4.16,0,0,0-.58.1L67,2.2a2.08,2.08,0,0,1,.82,0L67.73,4a2.41,2.41,0,0,1-.48.47c-.19.15-.38.27-.58.39Z"/><path class="cls-1" d="M75.84,10.62a2.8,2.8,0,0,0,.66-.37,8.69,8.69,0,0,0,.79-.66q.41-.38.83-.83c.28-.29.54-.59.78-.89.1.14.22.28.34.42a6,6,0,0,0,.42.43A9.17,9.17,0,0,1,79,10.38a5.27,5.27,0,0,1-1,1.34l-3.63-.49a4.82,4.82,0,0,1-1.22-2.09A6.9,6.9,0,0,1,73,6.22a5.24,5.24,0,0,1,.49-1.59,6.9,6.9,0,0,1,.92-1.42A6.58,6.58,0,0,1,75.62,2.1a4.75,4.75,0,0,1,1.33-.67l2.21.3a2.53,2.53,0,0,0,.75,1.1,5.52,5.52,0,0,0-1.1,1.55,9.1,9.1,0,0,0-.68,1.87,4.09,4.09,0,0,1-1.63-1.8,4,4,0,0,1,.71-.91,6,6,0,0,1,.88-.71L77.8,2.5a7.38,7.38,0,0,0-1.63,1.27,3.15,3.15,0,0,0-.82,1.8,5.56,5.56,0,0,0,0,1.3A5.67,5.67,0,0,0,75.56,8a4.44,4.44,0,0,0,.41.94,2.58,2.58,0,0,0,.52.66,2.89,2.89,0,0,1-.41.37,4.73,4.73,0,0,1-.51.33Z"/><path class="cls-1" d="M84.33,2.77l-.61,3.11a4,4,0,0,0-.55.19,5.36,5.36,0,0,0-.54.26l.1.39a5.92,5.92,0,0,1,1.37-.44,3,3,0,0,1,1.1,0,2.77,2.77,0,0,1,1.08.44A2.19,2.19,0,0,1,87,7.5a2.89,2.89,0,0,1,.29,1.05,4.65,4.65,0,0,1-.08,1.26,7.82,7.82,0,0,1-.62,2A5.53,5.53,0,0,1,85.74,13L80.1,11.9,82,2.3Zm-2,8.16a1.93,1.93,0,0,1-.4-.1l-.08.41.36.11.34.08a2.35,2.35,0,0,0,1.07,0,2.38,2.38,0,0,0,.85-.41,2.32,2.32,0,0,0,.6-.7,3,3,0,0,0,.32-.88,1.67,1.67,0,0,0-.19-1.15,1.39,1.39,0,0,0-1-.69,1.86,1.86,0,0,0-.88.06,4.42,4.42,0,0,0-.95.39l.15.34.37-.16a1.61,1.61,0,0,1,.39-.09L82.73,11Z"/><path class="cls-1" d="M95.85,5.51,95.61,8a1.79,1.79,0,0,0-.75-.39,2.16,2.16,0,0,0-1.34.11,2.87,2.87,0,0,0-1.31,1.13l.17.1.16.13a3.42,3.42,0,0,1,.31-.33l.31-.24a3.15,3.15,0,0,1,1,.93,3.55,3.55,0,0,1,.5,1.14,4.51,4.51,0,0,1,.1,1.28,6.73,6.73,0,0,1-.21,1.33,8.61,8.61,0,0,1-.32,1,9.87,9.87,0,0,1-.41.92l-2.3-.61a8.58,8.58,0,0,0,.5-1,8,8,0,0,0,.31-.95,3.82,3.82,0,0,0,.11-1.9c-.13-.5-.36-.79-.69-.88a2,2,0,0,0-.54-.06,4.37,4.37,0,0,0-.55,0,3.87,3.87,0,0,0-.48.09l-.35.11,0,.49.46-.11a2.29,2.29,0,0,1,.43,0l-1,3.78-2.32-.62L89.9,3.93l2.32.62-.83,3.15a2,2,0,0,1-.55.29,3.24,3.24,0,0,1-.59.17l.06.44a2.37,2.37,0,0,0,1.13-.37,3.67,3.67,0,0,0,1-.88A6.28,6.28,0,0,0,93.14,6a10.28,10.28,0,0,0,.54-1.56Z"/><path class="cls-1" d="M100.4,7,99,11a2.88,2.88,0,0,1-.67.48c-.25.13-.49.24-.74.35l.13.38a5.09,5.09,0,0,0,1.51-.71,6.26,6.26,0,0,0,1.4-1.26,3.92,3.92,0,0,0,1.07,0,5.81,5.81,0,0,0,1.11-.3l-.1-.4-.5.15a2.56,2.56,0,0,1-.48.07l.7-2.06,2.27.78-3.14,9.26-2.27-.78,1.49-4.39a5,5,0,0,1,.68-.47,3.65,3.65,0,0,1,.68-.3l-.1-.4a7.06,7.06,0,0,0-1.41.66,5.58,5.58,0,0,0-1.17.93,5.16,5.16,0,0,0-1.21.14,5.06,5.06,0,0,0-1.23.46l.08.41.47-.18a2.35,2.35,0,0,1,.49-.1l-.85,2.51L95,15.44l3.14-9.26Z"/><path class="cls-1" d="M107.89,9.3l.55.85-1.62,3.79a2.94,2.94,0,0,1-.7.43c-.25.11-.5.21-.75.29l.09.39a5.13,5.13,0,0,0,1.55-.59,6.2,6.2,0,0,0,1.5-1.15,3.81,3.81,0,0,0,1.07.05,5.43,5.43,0,0,0,1.13-.21l-.06-.42-.51.12a2.19,2.19,0,0,1-.48,0l.8-1.87.87-.21,1.38,1-3.84,9-2.2-1,1.82-4.26a4.71,4.71,0,0,1,.72-.42,3.44,3.44,0,0,1,.7-.24l-.07-.41a7.25,7.25,0,0,0-1.45.55,5.62,5.62,0,0,0-1.23.84,5,5,0,0,0-1.25.05,5.48,5.48,0,0,0-1.28.36l.13.39a2.63,2.63,0,0,1,.94-.17l-1,2.44-2.2-1,3.84-9Zm3.11.89a15.12,15.12,0,0,0-1.61.49c-.22-.51-.45-1-.71-1.46a4.07,4.07,0,0,0-1-1.18l1-1.78,1.94.84-.61,1.44a3.42,3.42,0,0,0-.28-.39c-.11-.12-.21-.25-.32-.36l-.31.35a4.16,4.16,0,0,1,.47.61,4.68,4.68,0,0,1,.35.63,5.26,5.26,0,0,1,1.45-.19l0-.51a3.07,3.07,0,0,0-.49,0,3,3,0,0,0-.46.08l.62-1.46,1.94.84-.6,2A3.94,3.94,0,0,0,111,10.19Z"/></g></g></svg>