<svg xmlns="http://www.w3.org/2000/svg" xmlns:xlink="http://www.w3.org/1999/xlink" width="36" height="35" viewBox="0 0 36 35"><defs><path id="87ida" d="M449 1942.95l-6.36 1.29-4.27 4.76-4.59-7.83c-.26.02-.52.04-.78.04s-.52-.02-.78-.04l-4.59 7.83-4.27-4.76-6.37-1.3 4.99-8.5a11.89 11.89 0 0 1-1.27-5.33c0-6.7 5.5-12.11 12.29-12.11a12.2 12.2 0 0 1 12.29 12.1c0 1.92-.47 3.72-1.27 5.33zm-10.4 2.42s1.54-1.46 2.98-2.86l4.12-1.18-2.9-4.94a12.29 12.29 0 0 1-6.85 4.45zm-18.3-4.04l4.12 1.18c1.44 1.4 2.98 2.86 2.98 2.86l2.65-4.53a12.29 12.29 0 0 1-6.85-4.45zM433 1919a10 10 0 1 0 .02 20 10 10 0 0 0-.02-20zm0 17a7 7 0 1 1 0-14 7 7 0 0 1 0 14zm0-12a5 5 0 1 0 0 10 5 5 0 0 0 0-10z"/></defs><g><g transform="translate(-415 -1915)"><use fill="#e71c20" xlink:href="#87ida"/></g></g></svg>