<?xml version="1.0" encoding="utf-8"?><svg xmlns="http://www.w3.org/2000/svg" xmlns:xlink="http://www.w3.org/1999/xlink"><symbol viewBox="0 0 449.75 512" id="box" xmlns="http://www.w3.org/2000/svg"><defs><style>.acls-1{fill:#fff}</style></defs><g id="aСлой_2" data-name="Слой 2"><path class="acls-1" d="M266.09 260.04l-22.94 13.27V512l206.6-119.29V154.03L266.09 260.04zm37.39-214.05L224.03 0 11.69 122.58l79.56 46L303.48 45.99zm132.78 76.59L344.7 70.43 132.46 193.01l12.11 6.27 79.46 45.88 79.03-45.57 133.2-77.01zM116.42 280.75L78.39 261.2v-60.76L0 155.3v236.99l205.12 118.44V273.74l-88.7-51.09v58.1z" id="aCapa_1" data-name="Capa 1"/></g></symbol><symbol viewBox="0 0 344.96 344.96" id="check" xmlns="http://www.w3.org/2000/svg"><defs><style>.bcls-1{fill:#e75713}</style></defs><g id="bСлой_2" data-name="Слой 2"><path class="bcls-1" d="M321.85 86.24l-40-23.11-23.1-40H212.5L172.48 0l-40 23.11H86.24l-23.11 40-40 23.1v46.21L0 172.48l23.11 40v46.21l40 23.11 23.11 40h46.21l40 23.1 40-23.11h46.21l23.11-40 40-23.11V212.5l23.11-40-23.11-40V86.24zM156.91 243.07a16.79 16.79 0 0 1-23.34 0l-50.45-50.44a16.19 16.19 0 0 1 0-22.89l13.35-13.35a16.19 16.19 0 0 1 22.89 0l25.87 25.87 80.34-80.35a16.19 16.19 0 0 1 22.89 0l13.35 13.35a16.19 16.19 0 0 1 0 22.89z" id="bCapa_1" data-name="Capa 1"/></g></symbol><symbol viewBox="0 0 459 306" id="filter" xmlns="http://www.w3.org/2000/svg"><g data-name="Слой 2"><path d="M178.5 306h102v-51h-102zM0 0v51h459V0zm76.5 178.5h306v-51h-306z" data-name="Capa 1"/></g></symbol><symbol viewBox="0 0 512 512" id="question" xmlns="http://www.w3.org/2000/svg"><defs><style>.dcls-1{fill:#fff}</style></defs><g id="dСлой_2" data-name="Слой 2"><path class="dcls-1" d="M477.67 127.5a254.92 254.92 0 0 0-93.17-93.16Q325.67 0 256 0T127.51 34.33a254.86 254.86 0 0 0-93.17 93.17Q0 186.34 0 256t34.33 128.5a254.93 254.93 0 0 0 93.17 93.17Q186.34 512 256 512t128.5-34.33a254.86 254.86 0 0 0 93.16-93.17Q512 325.66 512 256t-34.33-128.5zM298.68 416A10.27 10.27 0 0 1 288 426.66h-64A10.27 10.27 0 0 1 213.34 416v-64A10.26 10.26 0 0 1 224 341.34h64A10.26 10.26 0 0 1 298.68 352zm81.16-197a88.12 88.12 0 0 1-9.33 20.17 77.24 77.24 0 0 1-14.84 16 139.1 139.1 0 0 1-15.34 11.67q-5.66 3.49-16.32 9.5a56.14 56.14 0 0 0-18.16 16.5q-7.17 10.16-7.17 16.49A10.27 10.27 0 0 1 288 320h-64a10.26 10.26 0 0 1-10.67-10.67v-12q0-22.33 17.5-41.83t38.5-28.84q16-7.33 22.66-15t6.67-20.33q0-11-12.51-19.67a48.81 48.81 0 0 0-28.5-8.66q-17.34 0-28.67 8-11 8-28.67 30.66a9.83 9.83 0 0 1-8.33 4 9.42 9.42 0 0 1-6.33-2l-44-33.34q-7.67-6-2.67-14 42.67-71 123.67-71 29 0 56.67 13.67a126.25 126.25 0 0 1 46.17 38.67Q384 162.66 384 192a84.58 84.58 0 0 1-4.16 27z" id="dCapa_1" data-name="Capa 1"/></g></symbol><symbol viewBox="0 0 512 417.19" id="truck" xmlns="http://www.w3.org/2000/svg"><defs><style>.ecls-1{fill:#fff}</style></defs><g id="eСлой_2" data-name="Слой 2"><path class="ecls-1" d="M506.38 5.63A18.24 18.24 0 0 0 493 0H189.63a18.24 18.24 0 0 0-13.33 5.63A18.24 18.24 0 0 0 170.67 19v56.86h-47.41a45.7 45.7 0 0 0-17.34 3.85 45.32 45.32 0 0 0-15 9.48l-58.63 58.67a40.35 40.35 0 0 0-6.67 8.89 54 54 0 0 0-4.15 9 49.14 49.14 0 0 0-1.92 11q-.59 7-.74 10.23t0 11.26q.15 8 .15 10.37v94.81A18.21 18.21 0 0 0 5.63 309 18.21 18.21 0 0 0 0 322.38a23.83 23.83 0 0 0 1.18 7.85 11.22 11.22 0 0 0 4 5.48q2.81 2.08 4.89 3.41t7 1.78l6.67.6q1.78.14 7.55 0t6.67-.15h19q0 31.4 22.22 53.63t53.63 22.22q31.41 0 53.63-22.22t22.22-53.63h113.71q0 31.4 22.22 53.63t53.63 22.22q31.42 0 53.63-22.22t22.22-53.63q.88 0 6.66.15t7.56 0l6.67-.6q4.89-.45 7-1.78t4.89-3.41a11.2 11.2 0 0 0 4-5.48 23.62 23.62 0 0 0 1.19-7.85V19a18.23 18.23 0 0 0-5.66-13.37zM159.4 368a36.46 36.46 0 0 1-26.67 11.26q-15.41 0-26.67-11.26a37.93 37.93 0 0 1 26.67-64.6A37.71 37.71 0 0 1 159.4 368zm11.26-178.37H56.89v-8.89a8.87 8.87 0 0 1 2.67-6.52l57.78-57.78a8.86 8.86 0 0 1 6.52-2.67h46.82zM424.89 368q-11.26 11.26-26.66 11.26a37.93 37.93 0 1 1 26.66-64.6q11.26 11.26 11.26 26.67A36.42 36.42 0 0 1 424.89 368z" id="eCapa_1" data-name="Capa 1"/></g></symbol></svg>