<?xml version="1.0" encoding="utf-8"?><svg xmlns="http://www.w3.org/2000/svg" xmlns:xlink="http://www.w3.org/1999/xlink"><symbol viewBox="0 0 26 26" id="calendar" xmlns="http://www.w3.org/2000/svg"><defs><path id="aa" d="M1153.622 1895.277a.781.781 0 1 1 1.563 0v3.126a.781.781 0 1 1-1.563 0zm13.283 3.907a.78.78 0 0 1-.781-.781v-3.126a.78.78 0 1 1 1.563 0v3.126a.78.78 0 0 1-.782.781zm2.344 20.315a6.251 6.251 0 1 1 .001-12.502 6.251 6.251 0 0 1 0 12.502zm0-10.939a4.693 4.693 0 0 0-4.688 4.688 4.693 4.693 0 0 0 4.688 4.689 4.693 4.693 0 0 0 4.688-4.689 4.693 4.693 0 0 0-4.688-4.688zm-12.501-1.562h-3.126v-3.125h3.126zm-3.126 1.562h3.126v3.126h-3.126zm4.689-4.687h3.125v3.125h-3.125zm0 4.687h3.125v3.126h-3.125zm-6.251 4.533c0 .082.06.155.13.155h9.246v1.563h-9.246c-.935 0-1.693-.772-1.693-1.718v-13.753c0-.949.758-1.718 1.693-1.718h.651v.78c0 .862.7 1.564 1.563 1.564.862 0 1.563-.702 1.563-1.563v-.781h9.375v.78c0 .862.701 1.564 1.563 1.564.863 0 1.563-.702 1.563-1.563v-.781h.652c.935 0 1.692.769 1.692 1.718v6.095h-1.563v-3.125h-17.19zm10.938-6.095v-3.125h3.126v3.125zm8.595 6.25a.781.781 0 1 1 0 1.563h-3.125a.78.78 0 0 1-.781-.781v-3.126a.78.78 0 1 1 1.562 0v2.344z"/></defs><use xlink:href="#aa" transform="translate(-1150 -1894)"/></symbol><symbol viewBox="0 0 344.96 344.96" id="check" xmlns="http://www.w3.org/2000/svg"><g data-name="Слой 2"><path d="M321.85 86.24l-40-23.11-23.1-40H212.5L172.48 0l-40 23.11H86.24l-23.11 40-40 23.1v46.21L0 172.48l23.11 40v46.21l40 23.11 23.11 40h46.21l40 23.1 40-23.11h46.21l23.11-40 40-23.11V212.5l23.11-40-23.11-40V86.24zM156.91 243.07a16.79 16.79 0 0 1-23.34 0l-50.45-50.44a16.19 16.19 0 0 1 0-22.89l13.35-13.35a16.19 16.19 0 0 1 22.89 0l25.87 25.87 80.34-80.35a16.19 16.19 0 0 1 22.89 0l13.35 13.35a16.19 16.19 0 0 1 0 22.89z" data-name="Capa 1"/></g></symbol><symbol viewBox="0 0 12 20" id="chevron-right" xmlns="http://www.w3.org/2000/svg"><defs><path id="ca" d="M1181.28 889.587l8.158 8.169c.732.664.732 1.814 0 2.51l-8.158 8.077c-.731.756-1.706.937-2.435.182l-.306-.303c-.639-.665-.76-1.392-.121-1.996 2.01-1.967 4.05-3.963 6.059-5.96.669-.696.669-1.846 0-2.51-2.01-2.028-4.05-4.024-6.06-6.05-.638-.546-.517-1.332.122-1.937l.306-.302c.73-.726 1.704-.545 2.435.12z"/></defs><use xlink:href="#ca" transform="translate(-1178 -889)"/></symbol><symbol viewBox="0 0 14 20" id="mark" xmlns="http://www.w3.org/2000/svg"><defs><path id="da" d="M1157.029 1943.322c1.9 0 3.406 1.542 3.406 3.416 0 1.895-1.506 3.438-3.406 3.438H1157c-1.902 0-3.412-1.543-3.412-3.438a3.392 3.392 0 0 1 3.412-3.416zm-.028-3.32c-3.853 0-6.995 3.144-6.995 7 0 3.89 6.995 12.992 6.995 12.992l.028-.028c.267-.384 6.963-9.166 6.963-12.964 0-3.856-3.113-6.97-6.963-7z"/></defs><use xlink:href="#da" transform="translate(-1150 -1940)"/></symbol><symbol viewBox="0 0 25 25" id="search" xmlns="http://www.w3.org/2000/svg"><defs><path id="ea" d="M1594.455 136.726c.37.372.555.822.555 1.353 0 .532-.187.985-.564 1.361a1.854 1.854 0 0 1-1.36.562c-.542 0-.991-.19-1.353-.571l-5.155-5.14c-1.795 1.243-3.794 1.865-5.998 1.865-1.433 0-2.804-.278-4.112-.833-1.308-.557-2.436-1.31-3.382-2.255-.948-.947-1.7-2.075-2.256-3.383a10.4 10.4 0 0 1-.833-4.11 10.4 10.4 0 0 1 .833-4.111c.557-1.308 1.308-2.435 2.256-3.381.946-.948 2.074-1.7 3.382-2.257a10.406 10.406 0 0 1 4.112-.833 10.4 10.4 0 0 1 4.11.833c1.309.557 2.437 1.309 3.384 2.257.947.946 1.698 2.073 2.254 3.38a10.39 10.39 0 0 1 .835 4.112c0 2.204-.622 4.202-1.865 5.997zm-7.14-11.15c0-1.854-.66-3.44-1.978-4.758-1.318-1.317-2.903-1.978-4.757-1.978-1.854 0-3.441.661-4.759 1.978-1.317 1.318-1.976 2.904-1.976 4.757 0 1.853.659 3.438 1.976 4.757 1.318 1.317 2.905 1.975 4.759 1.975 1.854 0 3.44-.658 4.757-1.975 1.318-1.32 1.977-2.904 1.977-4.757z"/></defs><use xlink:href="#ea" transform="translate(-1570 -115)"/></symbol></svg>