<?xml version="1.0" encoding="utf-8"?><svg xmlns="http://www.w3.org/2000/svg" xmlns:xlink="http://www.w3.org/1999/xlink"><symbol viewBox="0 0 26 26" id="calendar" xmlns="http://www.w3.org/2000/svg"><defs><path id="aa" d="M1153.622 1895.277a.781.781 0 1 1 1.563 0v3.126a.781.781 0 1 1-1.563 0zm13.283 3.907a.78.78 0 0 1-.781-.781v-3.126a.78.78 0 1 1 1.563 0v3.126a.78.78 0 0 1-.782.781zm2.344 20.315a6.251 6.251 0 1 1 .001-12.502 6.251 6.251 0 0 1 0 12.502zm0-10.939a4.693 4.693 0 0 0-4.688 4.688 4.693 4.693 0 0 0 4.688 4.689 4.693 4.693 0 0 0 4.688-4.689 4.693 4.693 0 0 0-4.688-4.688zm-12.501-1.562h-3.126v-3.125h3.126zm-3.126 1.562h3.126v3.126h-3.126zm4.689-4.687h3.125v3.125h-3.125zm0 4.687h3.125v3.126h-3.125zm-6.251 4.533c0 .082.06.155.13.155h9.246v1.563h-9.246c-.935 0-1.693-.772-1.693-1.718v-13.753c0-.949.758-1.718 1.693-1.718h.651v.78c0 .862.7 1.564 1.563 1.564.862 0 1.563-.702 1.563-1.563v-.781h9.375v.78c0 .862.701 1.564 1.563 1.564.863 0 1.563-.702 1.563-1.563v-.781h.652c.935 0 1.692.769 1.692 1.718v6.095h-1.563v-3.125h-17.19zm10.938-6.095v-3.125h3.126v3.125zm8.595 6.25a.781.781 0 1 1 0 1.563h-3.125a.78.78 0 0 1-.781-.781v-3.126a.78.78 0 1 1 1.562 0v2.344z"/></defs><use xlink:href="#aa" transform="translate(-1150 -1894)"/></symbol><symbol viewBox="0 0 344.96 344.96" id="check" xmlns="http://www.w3.org/2000/svg"><g data-name="Слой 2"><path d="M321.85 86.24l-40-23.11-23.1-40H212.5L172.48 0l-40 23.11H86.24l-23.11 40-40 23.1v46.21L0 172.48l23.11 40v46.21l40 23.11 23.11 40h46.21l40 23.1 40-23.11h46.21l23.11-40 40-23.11V212.5l23.11-40-23.11-40V86.24zM156.91 243.07a16.79 16.79 0 0 1-23.34 0l-50.45-50.44a16.19 16.19 0 0 1 0-22.89l13.35-13.35a16.19 16.19 0 0 1 22.89 0l25.87 25.87 80.34-80.35a16.19 16.19 0 0 1 22.89 0l13.35 13.35a16.19 16.19 0 0 1 0 22.89z" data-name="Capa 1"/></g></symbol><symbol viewBox="0 0 18 14" id="check-basket" xmlns="http://www.w3.org/2000/svg"><defs><path id="ca" d="M586.64 889.347a1.227 1.227 0 0 0-1.731 0L574.18 900.04l-3.114-3.107a1.226 1.226 0 0 0-1.731 0 1.22 1.22 0 0 0 0 1.727l3.98 3.97a1.223 1.223 0 0 0 1.731 0l11.593-11.556a1.22 1.22 0 0 0 0-1.727z"/></defs><g clip-path="url(#clip-401)" transform="translate(-569 -889)"><use xlink:href="#ca"/></g></symbol><symbol viewBox="0 0 10 16" id="chevron-left" xmlns="http://www.w3.org/2000/svg"><defs><path id="da" d="M457.043 1708.94l-6.119 6.127c-.548.498-.548 1.36 0 1.882l6.119 6.058c.548.567 1.279.703 1.826.136l.23-.227c.479-.499.57-1.044.09-1.497-1.506-1.475-3.037-2.973-4.544-4.47-.501-.521-.501-1.384 0-1.882 1.507-1.52 3.038-3.018 4.545-4.538.479-.41.388-.998-.091-1.452l-.23-.227c-.547-.544-1.278-.409-1.826.09z"/></defs><use xlink:href="#da" transform="translate(-450 -1708)"/></symbol><symbol viewBox="0 0 12 20" id="chevron-right" xmlns="http://www.w3.org/2000/svg"><defs><path id="ea" d="M1181.28 889.587l8.158 8.169c.732.664.732 1.814 0 2.51l-8.158 8.077c-.731.756-1.706.937-2.435.182l-.306-.303c-.639-.665-.76-1.392-.121-1.996 2.01-1.967 4.05-3.963 6.059-5.96.669-.696.669-1.846 0-2.51-2.01-2.028-4.05-4.024-6.06-6.05-.638-.546-.517-1.332.122-1.937l.306-.302c.73-.726 1.704-.545 2.435.12z"/></defs><use xlink:href="#ea" transform="translate(-1178 -889)"/></symbol><symbol viewBox="0 0 5 8" id="chevron-right--small" xmlns="http://www.w3.org/2000/svg"><defs><path id="fa" d="M413.63 178.235l-3.41 3.267a.664.664 0 0 0 0 1.004l3.41 3.231c.306.303.713.375 1.019.073l.127-.122c.267-.266.318-.556.051-.798-.84-.786-1.693-1.585-2.533-2.384a.706.706 0 0 1 0-1.004c.84-.81 1.693-1.61 2.533-2.42.267-.218.216-.532-.05-.775l-.128-.12c-.306-.29-.713-.218-1.019.048z"/></defs><use xlink:href="#fa" transform="translate(-410 -178)"/></symbol><symbol viewBox="0 0 10 10" id="close" xmlns="http://www.w3.org/2000/svg"><defs><path id="ga" d="M3498.944 132c-.27 0-.54-.103-.745-.309l-3.202-3.202-3.202 3.202a1.05 1.05 0 0 1-1.49 0 1.053 1.053 0 0 1 0-1.49l3.203-3.202-3.202-3.203a1.053 1.053 0 1 1 1.489-1.49l3.202 3.203 3.202-3.203a1.054 1.054 0 0 1 1.49 1.49l-3.203 3.203 3.203 3.203a1.053 1.053 0 0 1-.745 1.797z"/></defs><use xlink:href="#ga" transform="translate(-3490 -122)"/></symbol><symbol viewBox="0 0 15 10" id="email" xmlns="http://www.w3.org/2000/svg"><defs><path id="ha" d="M617.488 477.205l-7.247-5.295a.895.895 0 0 1 .673-.305h6.59v5.589zm7.503-4.575v8.29h-14.975v-8.29l4.07 2.975-2.278 3.37 2.93-2.893 2.75 2.008.016-.01.015.01 2.75-2.008 2.931 2.893-2.278-3.37zm-7.472 4.575l7.248-5.295a.895.895 0 0 0-.674-.305h-6.59v5.589z"/></defs><use xlink:href="#ha" transform="translate(-610 -471)"/></symbol><symbol viewBox="0 0 14 20" id="mark" xmlns="http://www.w3.org/2000/svg"><defs><path id="ia" d="M1157.029 1943.322c1.9 0 3.406 1.542 3.406 3.416 0 1.895-1.506 3.438-3.406 3.438H1157c-1.902 0-3.412-1.543-3.412-3.438a3.392 3.392 0 0 1 3.412-3.416zm-.028-3.32c-3.853 0-6.995 3.144-6.995 7 0 3.89 6.995 12.992 6.995 12.992l.028-.028c.267-.384 6.963-9.166 6.963-12.964 0-3.856-3.113-6.97-6.963-7z"/></defs><use xlink:href="#ia" transform="translate(-1150 -1940)"/></symbol><symbol viewBox="0 0 25 25" id="search" xmlns="http://www.w3.org/2000/svg"><defs><path id="ja" d="M1594.455 136.726c.37.372.555.822.555 1.353 0 .532-.187.985-.564 1.361a1.854 1.854 0 0 1-1.36.562c-.542 0-.991-.19-1.353-.571l-5.155-5.14c-1.795 1.243-3.794 1.865-5.998 1.865-1.433 0-2.804-.278-4.112-.833-1.308-.557-2.436-1.31-3.382-2.255-.948-.947-1.7-2.075-2.256-3.383a10.4 10.4 0 0 1-.833-4.11 10.4 10.4 0 0 1 .833-4.111c.557-1.308 1.308-2.435 2.256-3.381.946-.948 2.074-1.7 3.382-2.257a10.406 10.406 0 0 1 4.112-.833 10.4 10.4 0 0 1 4.11.833c1.309.557 2.437 1.309 3.384 2.257.947.946 1.698 2.073 2.254 3.38a10.39 10.39 0 0 1 .835 4.112c0 2.204-.622 4.202-1.865 5.997zm-7.14-11.15c0-1.854-.66-3.44-1.978-4.758-1.318-1.317-2.903-1.978-4.757-1.978-1.854 0-3.441.661-4.759 1.978-1.317 1.318-1.976 2.904-1.976 4.757 0 1.853.659 3.438 1.976 4.757 1.318 1.317 2.905 1.975 4.759 1.975 1.854 0 3.44-.658 4.757-1.975 1.318-1.32 1.977-2.904 1.977-4.757z"/></defs><use xlink:href="#ja" transform="translate(-1570 -115)"/></symbol><symbol viewBox="0 0 15 16" id="tel" xmlns="http://www.w3.org/2000/svg"><defs><path id="ka" d="M624.935 451.46c.062.313.12.436-.058.624l-2.113 2.166c-.057.129-.24.253-.36.312-.182.064-.302.124-.48.124h-.302c-.182 0-.543 0-.966-.06-.48-.064-1.022-.247-1.684-.558-.663-.248-1.388-.683-2.233-1.242-.845-.559-1.685-1.3-2.65-2.29a19.558 19.558 0 0 1-1.81-2.171c-.538-.683-.898-1.365-1.206-1.924-.297-.618-.537-1.113-.662-1.612-.178-.436-.24-.866-.298-1.242-.062-.307-.125-.618-.062-.806v-.307c0-.187.062-.311.12-.494.12-.129.182-.252.302-.376 5.06-5.208 5.363 1.86 4.758 2.483l-.782.8s0 .065-.058.065v.124c.058.252.12.495.303.806.115.247.297.559.6.93.24.435.6.87 1.085 1.365.48.494.965.865 1.325 1.177.36.247.662.435.908.623.24.119.417.183.6.183l.177.064h.125l.057-.064c2.113-3.16 5.186-.183 5.364 1.3z"/></defs><use xlink:href="#ka" transform="translate(-610 -439)"/></symbol></svg>