<svg xmlns="http://www.w3.org/2000/svg" xmlns:xlink="http://www.w3.org/1999/xlink" width="24" height="24" viewBox="0 0 24 24">
    <defs>
        <path id="a" d="M19.696 18.217l-4.93-4.95a7.884 7.884 0 0 0 1.962-5.192C16.728 3.623 12.976 0 8.364 0 3.752 0 0 3.623 0 8.075c0 4.452 3.752 8.075 8.364 8.075a8.48 8.48 0 0 0 4.792-1.461l4.967 4.988 1.573-1.46zM8.364 2.107c3.409 0 6.182 2.677 6.182 5.968s-2.773 5.968-6.182 5.968c-3.409 0-6.182-2.677-6.182-5.968s2.773-5.968 6.182-5.968z"/>
    </defs>
    <g fill="none" fill-rule="evenodd" transform="translate(2 2)">
        <mask id="b" fill="#fff">
            <use xlink:href="#a"/>
        </mask>
        <use fill="#000" fill-rule="nonzero" xlink:href="#a"/>
        <g fill="#025F98" mask="url(#b)">
            <path d="M-2-2h24v24H-2z"/>
        </g>
    </g>
</svg>
