<svg xmlns="http://www.w3.org/2000/svg" width="110" height="110" viewBox="0 0 110 110">
    <g fill="#151515" fill-rule="nonzero">
        <path d="M107.583 95.908l-39.96-39.977a1.819 1.819 0 0 0-2.572 0l-.533.533-2.049-2.05c.315-.425.642-.839.939-1.274.13-.194.242-.402.364-.598a38.683 38.683 0 0 0 1.486-2.445c.237-.433.439-.888.66-1.33.277-.557.577-1.092.83-1.671l-.02-.01C74.198 30.15 68.426 10.29 53.041 0l-2.03 3.023c14.455 9.644 19.462 28.552 11.675 44.09-.204.41-.393.833-.614 1.235a34.87 34.87 0 0 1-1.297 2.133c-.133.206-.25.423-.386.623a34.824 34.824 0 0 1-9.278 9.282c-.142.097-.295.182-.439.271a34.96 34.96 0 0 1-2.323 1.415c-.364.194-.728.364-1.092.546-15.576 7.879-34.581 2.854-44.233-11.694L0 52.949a38.182 38.182 0 0 0 31.77 17.009c5.272 0 10.486-1.1 15.311-3.227v.018c.591-.258 1.152-.568 1.725-.855.43-.215.871-.41 1.291-.641a37.962 37.962 0 0 0 2.548-1.549c.163-.107.336-.198.498-.307.442-.3.859-.632 1.288-.949l2.056 2.05-.533.533a1.82 1.82 0 0 0 0 2.574l39.96 39.977a8.25 8.25 0 0 0 11.67 0 8.257 8.257 0 0 0 0-11.674zm-50.31-35.771a37.912 37.912 0 0 0 2.878-2.887l1.794 1.788-2.885 2.886-1.787-1.787zm2.54 6.18l.533-.533 5.458-5.46.533-.533 31.995 32.008-6.524 6.526-31.995-32.007zm41.935 40.043a4.613 4.613 0 0 1-3.261-1.351l-4.107-4.11 6.524-6.527 4.107 4.11a4.58 4.58 0 0 1 1.352 3.263 4.615 4.615 0 0 1-4.615 4.615z"/>
        <path d="M31.65 1.038c-16.906 0-30.612 13.706-30.612 30.613.019 16.9 13.714 30.594 30.613 30.613 16.907 0 30.613-13.706 30.613-30.613S48.558 1.038 31.651 1.038zm0 57.625c-14.917 0-27.01-12.094-27.01-27.012.016-14.911 12.1-26.995 27.01-27.012 14.919 0 27.013 12.094 27.013 27.012 0 14.918-12.094 27.012-27.012 27.012z"/>
        <path d="M46.218 45.66a19.856 19.856 0 0 1-14.048 5.766V55a23.466 23.466 0 0 0 16.604-6.813l-2.556-2.527zM21.459 49.811l-1.742 3.16A24.017 24.017 0 0 0 25.025 55l.918-3.472a20.325 20.325 0 0 1-4.484-1.717z"/>
    </g>
</svg>
