<svg xmlns="http://www.w3.org/2000/svg" width="38" height="55" viewBox="0 0 38 55">
    <path fill="#025F98" fill-rule="nonzero" d="M37.102 13.689c-.196-.734-.595-1.516-.89-2.2C32.682 3.03 24.97 0 18.743 0 10.407 0 1.226 5.573 0 17.062v2.347c0 .098.034.978.082 1.418.687 5.475 5.02 11.294 8.256 16.769C11.819 43.462 15.432 49.232 19.01 55c2.207-3.764 4.406-7.578 6.562-11.244.588-1.076 1.27-2.152 1.859-3.179.392-.684 1.14-1.368 1.483-2.004C32.396 32.218 38 25.813 38 19.507v-2.591c0-.684-.85-3.08-.898-3.227zM18.732 25c-2.486 0-5.205-1.215-6.548-4.57-.2-.533-.184-1.604-.184-1.702v-1.507C12 12.945 15.714 11 18.946 11 22.923 11 26 14.111 26 18c0 3.89-3.29 7-7.269 7z"/>
</svg>
