<?xml version="1.0" encoding="UTF-8"?>
<!DOCTYPE svg PUBLIC "-//W3C//DTD SVG 1.1//EN" "http://www.w3.org/Graphics/SVG/1.1/DTD/svg11.dtd">
<!-- Creator: CorelDRAW 2018 (64-Bit) -->
<svg xmlns="http://www.w3.org/2000/svg" xml:space="preserve" width="100mm" height="100mm" version="1.1" style="shape-rendering:geometricPrecision; text-rendering:geometricPrecision; image-rendering:optimizeQuality; fill-rule:evenodd; clip-rule:evenodd"
viewBox="0 0 10000 10000"
 xmlns:xlink="http://www.w3.org/1999/xlink">
 <defs>
  <style type="text/css">
   <![CDATA[
    .fil1 {fill:#2B2A29}
    .fil0 {fill:#2B2A29;fill-rule:nonzero}
   ]]>
  </style>
 </defs>
 <g id="Слой_x0020_1">
  <metadata id="CorelCorpID_0Corel-Layer"/>
  <path class="fil0" d="M4902.58 1686.86c798.01,0 1520.48,323.47 2043.43,846.43 522.96,522.95 846.43,1245.42 846.43,2043.43 0,798.01 -323.47,1520.48 -846.43,2043.43 -522.95,522.96 -1245.42,846.43 -2043.43,846.43 -798.01,0 -1520.48,-323.47 -2043.43,-846.43 -522.96,-522.95 -846.43,-1245.42 -846.43,-2043.43 0,-798.01 323.47,-1520.48 846.43,-2043.43 522.95,-522.96 1245.42,-846.43 2043.43,-846.43zm1972.73 917.13c-504.85,-504.86 -1202.33,-817.13 -1972.73,-817.13 -770.4,0 -1467.88,312.27 -1972.73,817.13 -504.86,504.85 -817.13,1202.33 -817.13,1972.73 0,770.4 312.27,1467.88 817.13,1972.73 504.85,504.86 1202.33,817.13 1972.73,817.13 770.4,0 1467.88,-312.27 1972.73,-817.13 504.86,-504.85 817.13,-1202.33 817.13,-1972.73 0,-770.4 -312.27,-1467.88 -817.13,-1972.73z"/>
  <polygon class="fil0" points="4934.94,2689.36 4934.94,6322.97 4834.94,6322.97 4834.94,2689.36 "/>
  <polygon class="fil1" points="4884.94,5529.22 5733.09,5529.22 4884.94,6377.37 4036.79,5529.22 "/>
 </g>
</svg>
