<svg xmlns="http://www.w3.org/2000/svg"  width="52" height="60"  viewBox="0 0 160.21 185.69"><defs><style>*,.cls-1{fill:#fff;}</style></defs><title>logo</title><g id="Слой_2" data-name="Слой 2"><g id="Слой_1-2" data-name="Слой 1"><g id="Слой_1-3" data-name="Слой_1"><path d="M55.65,68.15c0,2.65.07,2.15,1.22,4a12.73,12.73,0,0,1,1.47,3.28c1.18,3.56.82,3.7,1.14,7.87.41,5.31.22,12.35,1.48,17C63.48,109.69,70.13,117,80.8,117h3.32v8.54l6.64.47c0-13.05-.87-9,5-12.53,10.18-6.06,11.76-23.21,5.8-32.94-1.64-2.68-4.08-6.27-6.56-8.15-1.52-1.16-2.17-1.93-4-3.14C77.66,60.36,55.65,64.13,55.65,68.15Z"/><path d="M79.85,48.7a43.58,43.58,0,0,1,39.54,24.51c7.95,15.81,4.19,37-8.57,49.16-1.14,1.09-1.69,1.32-2.85,2.37-5.88,5.29-18.5,9.84-26.69,9.84-24,0-42-16.75-44.07-42.31-.53-6.59,3.31-18.72,7.6-24.52,4.47-6,10.25-11.9,17.34-14.93,4.4-1.88,11.73-4.12,17.71-4.12ZM30.5,91.4A51.19,51.19,0,0,0,38.94,119c.89,1.31,1.61,2.31,2.62,3.55a42.12,42.12,0,0,0,2.81,3.36c8.11,8.22,21.18,15.29,33.58,15.29,13.26,0,20.39-1.57,31.42-8.91a15.14,15.14,0,0,0,3.09-2.6c2.75-2.68,5.24-4.3,8.29-8.79.94-1.39,1.44-1.95,2.31-3.38,8.69-14.43,9.69-32.82,2.19-47.81a52.76,52.76,0,0,0-4.52-7.34c-10.62-14.48-31-23.87-51.11-19.17a52.26,52.26,0,0,0-17.16,7.52l-5.28,4.21C39.76,60.87,34.52,71,32,80.11A52.84,52.84,0,0,0,30.5,91.4Z"/><path class="cls-1" d="M80.36,42.06A49.61,49.61,0,1,1,30.74,91.68,49.61,49.61,0,0,1,80.36,42.06ZM110.43,61.6a42.53,42.53,0,1,0,12.46,30.07A42.4,42.4,0,0,0,110.43,61.6Z"/><path class="cls-1" d="M159.7,94.19a69.66,69.66,0,0,1-48.92,75l-2-6.75A62.58,62.58,0,0,0,152.67,95l7-.83Z"/><circle class="cls-1" cx="91.28" cy="171.19" r="14.5"/><path class="cls-1" d="M0,71.17A69.67,69.67,0,0,1,66.66,11.38l.22,7.06A62.57,62.57,0,0,0,7,72.17l-7-1Z"/><circle class="cls-1" cx="86.02" cy="14.5" r="14.5" transform="translate(49.75 93.84) rotate(-75)"/></g></g></g></svg>