<?xml version="1.0" encoding="utf-8"?><svg xmlns="http://www.w3.org/2000/svg" xmlns:xlink="http://www.w3.org/1999/xlink"><symbol viewBox="0 0 390.32 470" id="about-i-1" xmlns="http://www.w3.org/2000/svg"><g data-name="Слой 2"><g data-name="Слой 1"><path d="M389.75 418.38l-62.22-150.22a7.5 7.5 0 1 0-13.86 5.74l56.25 135.8-51.31-14.87a7.5 7.5 0 0 0-8.66 3.59l-25.77 46.79-60.35-145.71c69.66-13.43 122.45-74.85 122.45-148.38C346.28 67.79 278.49 0 195.16 0S44 67.79 44 151.12a150.33 150.33 0 0 0 29.9 90.13L.57 418.38a7.5 7.5 0 0 0 9 10.07l60.53-17.54 30.4 55.21a7.5 7.5 0 0 0 6.57 3.88h.42a7.5 7.5 0 0 0 6.51-4.62L172.16 325a7.5 7.5 0 0 0-13.86-5.74l-52.17 125.95-25.76-46.79a7.5 7.5 0 0 0-8.66-3.59L20.4 409.7l64.4-155.47a150.72 150.72 0 0 0 110.36 48c4.49 0 8.93-.21 13.32-.59l67.82 163.73a7.5 7.5 0 0 0 6.51 4.62h.42a7.5 7.5 0 0 0 6.57-3.88l30.4-55.21 60.53 17.54a7.5 7.5 0 0 0 9-10.07zM59 151.12C59 76.06 120.11 15 195.16 15s136.12 61.06 136.12 136.12-61.06 136.12-136.12 136.12S59 226.18 59 151.12z"/><path d="M281.82 123a7.5 7.5 0 0 0-5.89-5.08l-50.47-8.47L201.81 64a7.5 7.5 0 0 0-13.3 0l-23.65 45.38-50.47 8.47a7.5 7.5 0 0 0-4.11 12.65l35.85 36.5-7.54 50.61a7.5 7.5 0 0 0 10.76 7.82l45.81-22.81L241 225.48a7.5 7.5 0 0 0 10.76-7.82L244.19 167 280 130.53a7.5 7.5 0 0 0 1.82-7.53zm-51 36.24a7.5 7.5 0 0 0-2.07 6.36l6 40.07-36.27-18.06a7.5 7.5 0 0 0-6.69 0l-36.27 18.06 6-40.07a7.5 7.5 0 0 0-2.07-6.36l-28.38-28.91 40-6.71a7.5 7.5 0 0 0 5.41-3.93l18.73-35.93 18.73 35.93a7.5 7.5 0 0 0 5.41 3.93l40 6.71-28.39 28.91z"/><path d="M308.77 158.68a7.49 7.49 0 0 0-8.42 6.45 106.12 106.12 0 1 1 0-28 7.5 7.5 0 1 0 14.87-2C307.28 75.2 255.67 30 195.16 30a121.12 121.12 0 1 0 0 242.24c60.51 0 112.12-45.2 120.06-105.13a7.5 7.5 0 0 0-6.45-8.42z"/></g></g></symbol><symbol viewBox="0 0 464.85 478.2" id="about-i-2" xmlns="http://www.w3.org/2000/svg"><g data-name="Слой 2"><path d="M450.9 325.1c9.8-12.5 14.5-25.9 13.9-39.7-.6-15.2-7.4-27.1-13-34.4 6.5-16.2 9-41.7-12.7-61.5-15.9-14.5-42.9-21-80.3-19.2a313.83 313.83 0 0 0-49.2 6.3h-.1c-5 .9-10.3 2-15.7 3.2-.4-6.4.7-22.3 12.5-58.1 14-42.6 13.2-75.2-2.6-97C287.1 1.8 260.6 0 252.8 0a25.11 25.11 0 0 0-19.3 8.8c-11.1 12.9-9.8 36.7-8.4 47.7-13.2 35.4-50.2 122.2-81.5 146.3a10.7 10.7 0 0 0-1.6 1.4 107.42 107.42 0 0 0-19.6 29.4 41.27 41.27 0 0 0-19.8-5h-61A41.63 41.63 0 0 0 0 270.2v162.5a41.63 41.63 0 0 0 41.6 41.6h61a41.51 41.51 0 0 0 24-7.6l23.5 2.8c3.6.5 67.6 8.6 133.3 7.3 11.9.9 23.1 1.4 33.5 1.4 17.9 0 33.5-1.4 46.5-4.2 30.6-6.5 51.5-19.5 62.1-38.6a61.21 61.21 0 0 0 6.8-38.3c19.9-18 23.4-37.9 22.7-51.9a67.55 67.55 0 0 0-4.1-20.1zM41.6 447.3A14.62 14.62 0 0 1 27 432.7V270.1a14.62 14.62 0 0 1 14.6-14.6h61a14.62 14.62 0 0 1 14.6 14.6v162.5a14.62 14.62 0 0 1-14.6 14.6h-61zm383.7-133.9a13.44 13.44 0 0 0-1.8 16.3 41.61 41.61 0 0 1 4.6 16.7c.7 13.1-5.6 24.7-18.8 34.6a13.63 13.63 0 0 0-4.6 15.4c0 .1 4.3 13.3-2.7 25.8-6.7 12-21.6 20.6-44.2 25.4-18.1 3.9-42.7 4.6-72.9 2.2h-1.4c-64.3 1.4-129.3-7-130-7.1h-.1l-10.1-1.2a42.37 42.37 0 0 0 .9-8.8V270.1a42.3 42.3 0 0 0-1.9-12.4c1.8-6.7 6.8-21.6 18.6-34.3 44.9-35.6 88.8-155.7 90.7-160.9a12.66 12.66 0 0 0 .6-6.7c-1.7-11.2-1.1-24.9 1.3-29 5.3.1 19.6 1.6 28.2 13.5 10.2 14.1 9.8 39.3-1.2 72.7-16.8 50.9-18.2 77.7-4.9 89.5 6.6 5.9 15.4 6.2 21.8 3.9 6.1-1.4 11.9-2.6 17.4-3.5l1.3-.3c30.7-6.7 85.7-10.8 104.8 6.6 16.2 14.8 4.7 34.4 3.4 36.5a13.37 13.37 0 0 0 2.4 17.4c.1.1 10.6 10 11.1 23.3.4 8.9-3.8 18-12.5 27z" data-name="Capa 1"/></g></symbol><symbol viewBox="0 0 512 512" id="about-i-3" xmlns="http://www.w3.org/2000/svg"><g data-name="Слой 2"><g data-name="Слой 1"><path d="M328.88 263.14h30v42h-30zm0 68.16h30v37h-30zm0-139.49h30v42h-30zm-66.53 145.48h42v30h-42zm-70.67 0h42v30h-42z"/><path d="M512 0H0v512h136v-30.89h346.21V136H512zm-30 30v76h-32V68h-30v38h-32.5V68h-30v38H325V68h-30v38h-32.5V68h-30v38H200V68h-30v38h-34V30zM30 30h76v76H30zm0 452V136h76v34.17H70.5v30H106v32.5H70.5v30H106v32.5H70.5v30H106v32.5H70.5v30H106v32.5H70.5v30H106V482zm422.21-30.89H136v-83.82h27v-30h-27V136h192.88v27h30v-27h93.33z"/></g></g></symbol><symbol viewBox="0 0 507.2 508" id="about-i-4" xmlns="http://www.w3.org/2000/svg"><g data-name="Слой 2"><g data-name="Capa 1"><path d="M474.5 491.6V93.5L253.6 0 32.7 93.5v398.1H0V508h49V104.3l204.6-86.5 204.6 86.5V508h49v-16.4h-32.7z"/><path d="M73.6 172.5V508H90V188.9h327.2V508h16.4V172.5h-360z"/><path d="M114.5 393.4V508h130.9V393.4zm57.2 16.4h16.4v16.4h-16.4zm57.4 81.8h-98.2v-81.8h24.5v32.7h49.1v-32.7h24.6zm32.7-98.2V508h130.9V393.4zm57.2 16.4h16.4v16.4H319zm57.3 81.8h-98.2v-81.8h24.5v32.7h49.1v-32.7h24.6zM188.1 377.1H319V262.5H188.1zm57.3-98.2h16.4v16.4h-16.4v-16.4zm-40.9 0H229v32.7h49.1v-32.7h24.5v81.8h-98.1zm40.9-180h16.4v16.4h-16.4zm32.7 0h16.4v16.4h-16.4zm-65.4 0h16.4v16.4h-16.4z"/></g></g></symbol><symbol viewBox="0 0 485 512" id="about-i-5" xmlns="http://www.w3.org/2000/svg"><g data-name="Слой 2"><g data-name="Capa 1"><path d="M362.8 2.2a7.55 7.55 0 0 0-5.3-2.2h-190a7.51 7.51 0 0 0-7.5 7.5v33.84a7.5 7.5 0 1 0 15 0V15h175v145h-92.5a7.52 7.52 0 0 0-2.78.54L215 176.42v-8.91a7.51 7.51 0 0 0-7.5-7.5H175V71.34a7.5 7.5 0 0 0-15 0v96.17a7.49 7.49 0 0 0 7.5 7.5H200v12.49a7.49 7.49 0 0 0 7.5 7.5 7.34 7.34 0 0 0 2.78-.54L258.94 175h98.56a7.49 7.49 0 0 0 7.5-7.5V7.5a7.51 7.51 0 0 0-2.2-5.3zM447.5 427H425v-16.6a87.28 87.28 0 0 0 30-65.87v-28.77c5.86-29.48 3.17-51.34-8-65a37.46 37.46 0 0 0-22-13.09V204.5a7.5 7.5 0 0 0-7.5-7.5h-18.19c-36.18 0-76.8 2.29-100.93 29.62C281 246.22 275 275.26 280 315.33v29.21a87.28 87.28 0 0 0 30 65.88V427h-22.5a37.54 37.54 0 0 0-37.5 37.5v40a7.5 7.5 0 0 0 7.5 7.5h220a7.5 7.5 0 0 0 7.5-7.5v-40a37.54 37.54 0 0 0-37.5-37.5zM309.62 236.49c20-22.65 56.78-24.55 89.69-24.55H410v32.56a7.44 7.44 0 0 0 7.9 7.5 23 23 0 0 1 17.5 8.31c5.12 6.24 7.67 15.83 7.62 28.25l-3.27-6.56a7.5 7.5 0 0 0-9-3.79c-.45.14-44.88 14.21-70.52 14.21-24.59 0-46.84-13.33-47-13.46a7.5 7.5 0 0 0-9.91 1.9l-9.9 13.2c-.63-25.34 4.8-44.66 16.2-57.57zM295 344.53v-27.59L311.42 295c9.25 4.6 28 12.4 48.83 12.4 22.21 0 55.29-9 68.92-13L440 316.06v28.47a72.5 72.5 0 0 1-145 0zM410 421v9.52l-23 15.36-12-6v-8.19A86.88 86.88 0 0 0 410 421zm-50 10.72v7.75l-16.22 6.49L325 430.9V421a86.87 86.87 0 0 0 35 10.68zM330 497h-35v-15h35zm140-32.5V497H345v-22.5a7.5 7.5 0 0 0-7.5-7.5h-50a7.5 7.5 0 0 0-7.5 7.5V497h-15v-32.5a22.53 22.53 0 0 1 22.5-22.5h27.37l23 18.35.21.14a7.83 7.83 0 0 0 .65.44l.41.23c.21.11.44.2.66.29l.45.17a7.45 7.45 0 0 0 .76.19l.38.09a7.42 7.42 0 0 0 1.18.1 7.72 7.72 0 0 0 .79 0h.14l.62-.1.25-.06.48-.14.31-.11.2-.07 21.87-8.75 17 8.49.35.15.41.17c.19.07.38.12.57.17l.27.08a7.62 7.62 0 0 0 .8.15h.07a7.57 7.57 0 0 0 .89.05 7.49 7.49 0 0 0 1-.08l.45-.1c.19 0 .38-.07.57-.12l.45-.16c.19-.07.37-.13.55-.21l.39-.2c.2-.1.39-.2.58-.32l.12-.07L419.77 442h27.73a22.53 22.53 0 0 1 22.5 22.48zM197.5 427H165v-9a87.47 87.47 0 0 0 40-73.42V328l10 3.56a7.5 7.5 0 0 0 10-7.06c0-45-8.67-78.43-25.76-99.34-14-17.17-33.34-25.88-57.37-25.88-28 0-54.25 12-63.57 16.81l-17.58-8.37a7.5 7.5 0 0 0-7 .28c-3 1.74-29.19 19-23.74 86.77v49.75A87.47 87.47 0 0 0 70 418v9H37.5A37.54 37.54 0 0 0 0 464.5v40a7.5 7.5 0 0 0 7.5 7.5h220a7.5 7.5 0 0 0 7.5-7.5v-40a37.54 37.54 0 0 0-37.5-37.5zM58.72 223.39l16.56 7.88a7.51 7.51 0 0 0 7-.27c.29-.17 29.52-16.72 59.64-16.72 42.94 0 65.78 33.47 68 99.51L80 267.44a7.5 7.5 0 0 0-5.88.36l-29.8 14.9c-1.07-37.58 9.33-53.7 14.4-59.31zM45 344.53v-45.39l33-16.49 112 40v21.89a72.5 72.5 0 0 1-145 0zm105 81.21v8.76a32.5 32.5 0 1 1-65 0v-8.76a87.49 87.49 0 0 0 65 0zm70 38.76V497H15v-32.5A22.53 22.53 0 0 1 37.5 442h33.1a47.5 47.5 0 0 0 93.8 0h33.1a22.53 22.53 0 0 1 22.5 22.48z"/><path d="M285.48 39.51a32.5 32.5 0 0 0-55.48 23 7.5 7.5 0 1 0 15 0A17.48 17.48 0 1 1 262.6 80h-.1a7.51 7.51 0 0 0-7.5 7.5v20a7.5 7.5 0 1 0 15 0V94.12a32.5 32.5 0 0 0 15.48-54.61zM262.5 120a7.5 7.5 0 0 0-7.5 7.5v10a7.5 7.5 0 0 0 15 0v-10a7.51 7.51 0 0 0-7.5-7.5z"/></g></g></symbol><symbol viewBox="0 0 512 323.87" id="about-i-6" xmlns="http://www.w3.org/2000/svg"><g data-name="Слой 2"><g data-name="Layer 1"><path d="M476.16 137.3l-13.26-53a8 8 0 0 0 6.35-7.84v-8.58a33.71 33.71 0 0 0-33.67-33.67h-60.4V16.57A16.59 16.59 0 0 0 358.61 0H50.77A16.59 16.59 0 0 0 34.2 16.57v145.37a8 8 0 0 0 16 0V16.57a.53.53 0 0 1 .53-.53h307.88a.53.53 0 0 1 .53.53v145.37a8 8 0 0 0 16 0v-9.09h94.61A26.23 26.23 0 0 1 494.7 171h-24.92a8 8 0 0 0-8 8v17.1a25.15 25.15 0 0 0 25.12 25.12h9.1v35.27h-21a50.76 50.76 0 0 0-96 0h-3.86v-60.35a8 8 0 1 0-16 0v60.39H192.82a50.76 50.76 0 0 0-96 0H50.77a.53.53 0 0 1-.53-.53v-17.64H85a8 8 0 0 0 0-16H8a8 8 0 1 0 0 16h26.21V256a16.59 16.59 0 0 0 16.57 16.57h43.3v.53a50.77 50.77 0 1 0 101.54 0v-.53h180.64v.53a50.77 50.77 0 0 0 101.54 0v-.53H504a8 8 0 0 0 8-8V179a42.29 42.29 0 0 0-35.84-41.7zm-101-87.06h60.39a17.66 17.66 0 0 1 17.64 17.64v.53h-78zm0 86.58V84.44h71.23l13.09 52.38h-84.3zm-230.35 171a34.74 34.74 0 1 1 34.74-34.74 34.78 34.78 0 0 1-34.71 34.76zm282.19 0a34.74 34.74 0 1 1 34.74-34.74A34.78 34.78 0 0 1 427 307.84zm69-102.59h-9.09a9.1 9.1 0 0 1-9.09-9.09v-9.09H496v18.17z"/><path d="M144.84 256.53a16.57 16.57 0 1 0 16.56 16.57 16.59 16.59 0 0 0-16.56-16.57zm282.16 0a16.57 16.57 0 1 0 16.57 16.57A16.59 16.59 0 0 0 427 256.53zm-94-34.2H213.24a8 8 0 0 0 0 16H333a8 8 0 0 0 0-16zm-205.27-34.2H25.12a8 8 0 1 0 0 16h102.61a8 8 0 0 0 0-16zM278.77 79.31a8 8 0 0 0-11.34 0l-71.29 71.29-37.09-37.09a8 8 0 0 0-11.34 11.34l42.76 42.76a8 8 0 0 0 11.34 0l77-77a8 8 0 0 0-.04-11.3z"/></g></g></symbol><symbol viewBox="0 0 512 512" id="advantages-1" xmlns="http://www.w3.org/2000/svg"><g data-name="Слой 2"><g data-name="Capa 1"><path d="M247.59 89.44c-4 5.14-98.26 126.81-98.26 208.6a106.83 106.83 0 0 0 96 106.21v33.08a10.67 10.67 0 1 0 21.33 0v-33.08a106.83 106.83 0 0 0 96-106.21c0-81.79-94.25-203.47-98.26-208.6s-12.77-5.19-16.81 0zm-2.26 293.47A85.58 85.58 0 0 1 170.67 298a115.35 115.35 0 0 1 2.1-20.3l72.57 58.06zm0-74.44L178.52 255A328.53 328.53 0 0 1 197 210l48.35 40.3v58.14zm0-85.92l-38.26-31.89a722 722 0 0 1 38.26-61.72zm21.33-93.61a721.76 721.76 0 0 1 38.26 61.72l-38.26 31.89zm0 121.39L315 210a328.6 328.6 0 0 1 18.46 45l-66.82 53.46v-58.12zm0 85.46l72.57-58.06a115.35 115.35 0 0 1 2.1 20.3 85.58 85.58 0 0 1-74.67 84.87z"/><path d="M494.77 295.69C502.85 284.28 512 271.35 512 256s-9.15-28.28-17.23-39.69c-5.3-7.49-10.31-14.56-12.05-21.06-1.85-7-1.05-15.88-.21-25.33 1.29-14.33 2.61-29.17-4.78-41.95-7.5-13-21.74-19.54-34.3-25.32-8.51-3.93-16.54-7.62-21.49-12.57s-8.65-13-12.57-21.49C403.57 56 397 41.78 384 34.28c-12.8-7.41-27.62-6.06-42-4.79-9.45.83-18.35 1.64-25.32-.21-6.51-1.74-13.58-6.75-21.07-12.05C284.28 9.15 271.35 0 256 0s-28.28 9.15-39.69 17.23c-7.49 5.3-14.56 10.31-21.06 12.05-7 1.84-15.91 1-25.33.21-14.32-1.28-29.15-2.62-41.95 4.78-13 7.5-19.54 21.74-25.32 34.3-3.93 8.51-7.65 16.54-12.58 21.49s-13 8.65-21.49 12.57C56 108.43 41.78 115 34.28 128c-7.4 12.78-6.07 27.62-4.79 42 .85 9.44 1.65 18.37-.21 25.32-1.74 6.51-6.75 13.58-12.05 21.07C9.15 227.72 0 240.65 0 256s9.15 28.28 17.23 39.69c5.3 7.49 10.31 14.56 12.05 21.06 1.85 7 1.05 15.89.21 25.33-1.29 14.33-2.61 29.17 4.78 41.95 7.5 13 21.74 19.54 34.3 25.32 8.51 3.93 16.54 7.63 21.49 12.57s8.65 13 12.57 21.49C108.43 456 115 470.22 128 477.72c12.79 7.4 27.62 6.06 42 4.79 9.43-.86 18.34-1.67 25.32.21 6.51 1.74 13.58 6.75 21.07 12.05C227.72 502.85 240.65 512 256 512s28.28-9.15 39.69-17.23c7.49-5.3 14.56-10.31 21.06-12.05 6.95-1.87 15.89-1.07 25.33-.21 14.32 1.29 29.15 2.64 41.95-4.78 13-7.5 19.54-21.74 25.32-34.3 3.93-8.51 7.63-16.54 12.57-21.49s13-8.65 21.49-12.57C456 403.57 470.22 397 477.72 384c7.4-12.78 6.07-27.61 4.79-42-.85-9.44-1.65-18.36.21-25.32 1.74-6.43 6.75-13.5 12.05-20.99zm-17.41-12.33c-6.16 8.7-12.52 17.7-15.25 27.9-2.83 10.61-1.83 21.86-.85 32.74 1 11.54 2 22.44-2 29.36-4.12 7.11-14.16 11.74-24.77 16.64-9.83 4.53-20 9.22-27.65 16.86S394.51 424.67 390 434.5c-4.89 10.61-9.51 20.65-16.64 24.77-6.94 4-17.84 3-29.35 2-10.9-1-22.12-2-32.75.85-10.19 2.73-19.19 9.09-27.89 15.25-9.66 6.84-18.79 13.3-27.35 13.3s-17.7-6.46-27.35-13.3c-8.7-6.16-17.7-12.52-27.9-15.25a61.2 61.2 0 0 0-15.94-1.85c-5.62 0-11.25.5-16.8 1-11.55 1-22.43 2-29.37-2-7.12-4.12-11.74-14.16-16.64-24.77-4.53-9.83-9.22-20-16.86-27.65S87.33 394.51 77.5 390c-10.61-4.89-20.65-9.51-24.77-16.64-4-6.93-3-17.82-2-29.35 1-10.87 2-22.12-.85-32.75-2.73-10.19-9.09-19.19-15.25-27.89-6.84-9.66-13.3-18.79-13.3-27.35s6.46-17.7 13.3-27.35c6.16-8.7 12.52-17.7 15.25-27.9 2.83-10.62 1.83-21.87.85-32.74-1-11.54-2-22.44 2-29.37 4.13-7.12 14.16-11.74 24.77-16.64 9.83-4.53 20-9.22 27.65-16.86S117.49 87.33 122 77.5c4.89-10.61 9.51-20.65 16.64-24.77 6.91-4 17.8-3.05 29.35-2 10.87 1 22.1 2 32.75-.85 10.19-2.73 19.19-9.09 27.88-15.25 9.66-6.84 18.79-13.3 27.35-13.3s17.7 6.46 27.35 13.3c8.7 6.16 17.7 12.52 27.9 15.25 10.6 2.84 21.84 1.83 32.74.85 11.57-1 22.45-2 29.36 2 7.11 4.13 11.74 14.16 16.64 24.77 4.53 9.83 9.22 20 16.86 27.65s17.85 12.34 27.68 16.85c10.61 4.89 20.65 9.51 24.77 16.64 4 6.93 3 17.82 2 29.35-1 10.88-2 22.13.85 32.75 2.73 10.19 9.09 19.19 15.25 27.88 6.84 9.66 13.3 18.79 13.3 27.35s-6.46 17.73-13.31 27.38z"/></g></g></symbol><symbol viewBox="0 0 512 323.11" id="advantages-2" xmlns="http://www.w3.org/2000/svg"><g data-name="Слой 2"><g data-name="Слой 1"><path d="M71.64 227.43A23.55 23.55 0 1 0 95.19 251a23.57 23.57 0 0 0-23.55-23.57zm0 32.06a8.52 8.52 0 1 1 8.52-8.49 8.53 8.53 0 0 1-8.52 8.49zm56.11-113.22a23.55 23.55 0 1 0-23.55-23.55 23.58 23.58 0 0 0 23.55 23.55zm0-32.07a8.52 8.52 0 1 1-8.52 8.52 8.53 8.53 0 0 1 8.52-8.52zm56.11 113.23A23.55 23.55 0 1 0 207.41 251a23.57 23.57 0 0 0-23.55-23.57zm0 32.06a8.52 8.52 0 1 1 8.52-8.52 8.53 8.53 0 0 1-8.52 8.52z"/><path d="M440.36 179.83h-12.29c16.91-14 27.82-33.61 27.82-56.61a71.72 71.72 0 0 0-71.64-71.64h-54l12.53-12.77L304.09 0l-85.46 85.41L229.25 96l74.84-74.86 17.43 17.42-62.82 62.82 10.63 10.88 13.83-13.58h45v-15h-30l17-17h69c15.82 0 30.14 6 40.43 17h-48.36v15h59a55 55 0 0 1 5.6 24.55 56.67 56.67 0 0 1-56.61 56.61H183.86a71.71 71.71 0 0 0-14.16 1.41c4.21-3.05 8.08-7.42 11.54-10.43H240v-15h-48.47a111.41 111.41 0 0 0 6.15-17h98.4v-15h-96.7v-.5a71.41 71.41 0 0 0-27.82-56.61h52.36v-15h-96.17a71.35 71.35 0 0 0-41.92 129.3 71.22 71.22 0 0 0-14.19-1.49C32.14 179.39 0 211.75 0 251.25s32.14 71.86 71.64 71.86h368.72a71.64 71.64 0 1 0 0-143.28zM71.14 122.72a56.61 56.61 0 1 1 56.61 56.61 56.68 56.68 0 0 1-56.61-56.61zm70.77 70.23a72.1 72.1 0 0 0-14.14 13.53A71.61 71.61 0 0 0 113.6 193a71.66 71.66 0 0 0 28.31 0zM71.64 307.58a56.61 56.61 0 1 1 47.53-87.36 71.52 71.52 0 0 0 0 61.5 56.83 56.83 0 0 1-47.53 25.86zm43.85.5c4.54-4 8.67-7.57 12.29-12.11 3.59 4.51 7.7 8.11 12.26 12.11zm68.37-.5A56.61 56.61 0 1 1 240.47 251a56.67 56.67 0 0 1-56.61 56.58zm308-32.56c-9 19-28.64 33.06-51.46 33.06H227.68a89.46 89.46 0 0 0 15.85-17h92.62V276h-85a72.77 72.77 0 0 0 4.34-24.55c0-11.72-2.85-23.55-7.86-32.56h80.5v-15h-90.8a31.81 31.81 0 0 0-9.66-9h212.69A56.67 56.67 0 0 1 497 251.47a59 59 0 0 1-.64 8.52H392.27v15z"/><path d="M344.17 83.64h16v15h-16zm-32.06 40.08h104.2v15h-104.2zM256 155.79h16v15h-16zM272 244h80.16v15H272zm152.33-24.09h48.09v15h-48.09zm-80.16-16.03h16v15h-16zM360.2 276h16v15h-16z"/></g></g></symbol><symbol viewBox="0 0 64 40" id="advantages-3" xmlns="http://www.w3.org/2000/svg"><g data-name="Слой 2"><path d="M16.51 12.15c5.33 0 10.65-1.83 16-5.5a26.43 26.43 0 0 1 29.89 0 1 1 0 0 0 1.38-.29A1 1 0 0 0 63.55 5a28.39 28.39 0 0 0-32.11 0c-10 6.83-19.81 6.83-29.88 0a1 1 0 0 0-1.39.27 1 1 0 0 0 .27 1.4c5.41 3.65 10.75 5.48 16.07 5.48zm47.04 6.74a28.39 28.39 0 0 0-32.11 0c-10 6.83-19.81 6.83-29.88 0a1 1 0 0 0-1.39.27 1 1 0 0 0 .27 1.4c5.41 3.67 10.74 5.5 16.07 5.5s10.65-1.83 16-5.5a26.43 26.43 0 0 1 29.89 0 1 1 0 0 0 1.38-.29 1 1 0 0 0-.23-1.38zm0 13.93a28.4 28.4 0 0 0-32.11 0c-10 6.83-19.81 6.83-29.88 0a1 1 0 0 0-1.39.27 1 1 0 0 0 .27 1.4C5.85 38.17 11.19 40 16.51 40s10.65-1.84 16-5.5a26.43 26.43 0 0 1 29.89 0 1 1 0 0 0 1.38-.29 1 1 0 0 0-.23-1.39z" data-name="Layer 1"/></g></symbol><symbol viewBox="0 0 344.96 344.96" id="check" xmlns="http://www.w3.org/2000/svg"><g data-name="Слой 2"><path d="M321.85 86.24l-40-23.11-23.1-40H212.5L172.48 0l-40 23.11H86.24l-23.11 40-40 23.1v46.21L0 172.48l23.11 40v46.21l40 23.11 23.11 40h46.21l40 23.1 40-23.11h46.21l23.11-40 40-23.11V212.5l23.11-40-23.11-40V86.24zM156.91 243.07a16.79 16.79 0 0 1-23.34 0l-50.45-50.44a16.19 16.19 0 0 1 0-22.89l13.35-13.35a16.19 16.19 0 0 1 22.89 0l25.87 25.87 80.34-80.35a16.19 16.19 0 0 1 22.89 0l13.35 13.35a16.19 16.19 0 0 1 0 22.89z" data-name="Capa 1"/></g></symbol></svg>