<?xml version="1.0" encoding="utf-8"?><svg xmlns="http://www.w3.org/2000/svg" xmlns:xlink="http://www.w3.org/1999/xlink"><symbol viewBox="0 0 512 512" id="advantages-1" xmlns="http://www.w3.org/2000/svg"><g data-name="Слой 2"><g data-name="Capa 1"><path d="M247.59 89.44c-4 5.14-98.26 126.81-98.26 208.6a106.83 106.83 0 0 0 96 106.21v33.08a10.67 10.67 0 1 0 21.33 0v-33.08a106.83 106.83 0 0 0 96-106.21c0-81.79-94.25-203.47-98.26-208.6s-12.77-5.19-16.81 0zm-2.26 293.47A85.58 85.58 0 0 1 170.67 298a115.35 115.35 0 0 1 2.1-20.3l72.57 58.06zm0-74.44L178.52 255A328.53 328.53 0 0 1 197 210l48.35 40.3v58.14zm0-85.92l-38.26-31.89a722 722 0 0 1 38.26-61.72zm21.33-93.61a721.76 721.76 0 0 1 38.26 61.72l-38.26 31.89zm0 121.39L315 210a328.6 328.6 0 0 1 18.46 45l-66.82 53.46v-58.12zm0 85.46l72.57-58.06a115.35 115.35 0 0 1 2.1 20.3 85.58 85.58 0 0 1-74.67 84.87z"/><path d="M494.77 295.69C502.85 284.28 512 271.35 512 256s-9.15-28.28-17.23-39.69c-5.3-7.49-10.31-14.56-12.05-21.06-1.85-7-1.05-15.88-.21-25.33 1.29-14.33 2.61-29.17-4.78-41.95-7.5-13-21.74-19.54-34.3-25.32-8.51-3.93-16.54-7.62-21.49-12.57s-8.65-13-12.57-21.49C403.57 56 397 41.78 384 34.28c-12.8-7.41-27.62-6.06-42-4.79-9.45.83-18.35 1.64-25.32-.21-6.51-1.74-13.58-6.75-21.07-12.05C284.28 9.15 271.35 0 256 0s-28.28 9.15-39.69 17.23c-7.49 5.3-14.56 10.31-21.06 12.05-7 1.84-15.91 1-25.33.21-14.32-1.28-29.15-2.62-41.95 4.78-13 7.5-19.54 21.74-25.32 34.3-3.93 8.51-7.65 16.54-12.58 21.49s-13 8.65-21.49 12.57C56 108.43 41.78 115 34.28 128c-7.4 12.78-6.07 27.62-4.79 42 .85 9.44 1.65 18.37-.21 25.32-1.74 6.51-6.75 13.58-12.05 21.07C9.15 227.72 0 240.65 0 256s9.15 28.28 17.23 39.69c5.3 7.49 10.31 14.56 12.05 21.06 1.85 7 1.05 15.89.21 25.33-1.29 14.33-2.61 29.17 4.78 41.95 7.5 13 21.74 19.54 34.3 25.32 8.51 3.93 16.54 7.63 21.49 12.57s8.65 13 12.57 21.49C108.43 456 115 470.22 128 477.72c12.79 7.4 27.62 6.06 42 4.79 9.43-.86 18.34-1.67 25.32.21 6.51 1.74 13.58 6.75 21.07 12.05C227.72 502.85 240.65 512 256 512s28.28-9.15 39.69-17.23c7.49-5.3 14.56-10.31 21.06-12.05 6.95-1.87 15.89-1.07 25.33-.21 14.32 1.29 29.15 2.64 41.95-4.78 13-7.5 19.54-21.74 25.32-34.3 3.93-8.51 7.63-16.54 12.57-21.49s13-8.65 21.49-12.57C456 403.57 470.22 397 477.72 384c7.4-12.78 6.07-27.61 4.79-42-.85-9.44-1.65-18.36.21-25.32 1.74-6.43 6.75-13.5 12.05-20.99zm-17.41-12.33c-6.16 8.7-12.52 17.7-15.25 27.9-2.83 10.61-1.83 21.86-.85 32.74 1 11.54 2 22.44-2 29.36-4.12 7.11-14.16 11.74-24.77 16.64-9.83 4.53-20 9.22-27.65 16.86S394.51 424.67 390 434.5c-4.89 10.61-9.51 20.65-16.64 24.77-6.94 4-17.84 3-29.35 2-10.9-1-22.12-2-32.75.85-10.19 2.73-19.19 9.09-27.89 15.25-9.66 6.84-18.79 13.3-27.35 13.3s-17.7-6.46-27.35-13.3c-8.7-6.16-17.7-12.52-27.9-15.25a61.2 61.2 0 0 0-15.94-1.85c-5.62 0-11.25.5-16.8 1-11.55 1-22.43 2-29.37-2-7.12-4.12-11.74-14.16-16.64-24.77-4.53-9.83-9.22-20-16.86-27.65S87.33 394.51 77.5 390c-10.61-4.89-20.65-9.51-24.77-16.64-4-6.93-3-17.82-2-29.35 1-10.87 2-22.12-.85-32.75-2.73-10.19-9.09-19.19-15.25-27.89-6.84-9.66-13.3-18.79-13.3-27.35s6.46-17.7 13.3-27.35c6.16-8.7 12.52-17.7 15.25-27.9 2.83-10.62 1.83-21.87.85-32.74-1-11.54-2-22.44 2-29.37 4.13-7.12 14.16-11.74 24.77-16.64 9.83-4.53 20-9.22 27.65-16.86S117.49 87.33 122 77.5c4.89-10.61 9.51-20.65 16.64-24.77 6.91-4 17.8-3.05 29.35-2 10.87 1 22.1 2 32.75-.85 10.19-2.73 19.19-9.09 27.88-15.25 9.66-6.84 18.79-13.3 27.35-13.3s17.7 6.46 27.35 13.3c8.7 6.16 17.7 12.52 27.9 15.25 10.6 2.84 21.84 1.83 32.74.85 11.57-1 22.45-2 29.36 2 7.11 4.13 11.74 14.16 16.64 24.77 4.53 9.83 9.22 20 16.86 27.65s17.85 12.34 27.68 16.85c10.61 4.89 20.65 9.51 24.77 16.64 4 6.93 3 17.82 2 29.35-1 10.88-2 22.13.85 32.75 2.73 10.19 9.09 19.19 15.25 27.88 6.84 9.66 13.3 18.79 13.3 27.35s-6.46 17.73-13.31 27.38z"/></g></g></symbol><symbol viewBox="0 0 512 323.11" id="advantages-2" xmlns="http://www.w3.org/2000/svg"><g data-name="Слой 2"><g data-name="Слой 1"><path d="M71.64 227.43A23.55 23.55 0 1 0 95.19 251a23.57 23.57 0 0 0-23.55-23.57zm0 32.06a8.52 8.52 0 1 1 8.52-8.49 8.53 8.53 0 0 1-8.52 8.49zm56.11-113.22a23.55 23.55 0 1 0-23.55-23.55 23.58 23.58 0 0 0 23.55 23.55zm0-32.07a8.52 8.52 0 1 1-8.52 8.52 8.53 8.53 0 0 1 8.52-8.52zm56.11 113.23A23.55 23.55 0 1 0 207.41 251a23.57 23.57 0 0 0-23.55-23.57zm0 32.06a8.52 8.52 0 1 1 8.52-8.52 8.53 8.53 0 0 1-8.52 8.52z"/><path d="M440.36 179.83h-12.29c16.91-14 27.82-33.61 27.82-56.61a71.72 71.72 0 0 0-71.64-71.64h-54l12.53-12.77L304.09 0l-85.46 85.41L229.25 96l74.84-74.86 17.43 17.42-62.82 62.82 10.63 10.88 13.83-13.58h45v-15h-30l17-17h69c15.82 0 30.14 6 40.43 17h-48.36v15h59a55 55 0 0 1 5.6 24.55 56.67 56.67 0 0 1-56.61 56.61H183.86a71.71 71.71 0 0 0-14.16 1.41c4.21-3.05 8.08-7.42 11.54-10.43H240v-15h-48.47a111.41 111.41 0 0 0 6.15-17h98.4v-15h-96.7v-.5a71.41 71.41 0 0 0-27.82-56.61h52.36v-15h-96.17a71.35 71.35 0 0 0-41.92 129.3 71.22 71.22 0 0 0-14.19-1.49C32.14 179.39 0 211.75 0 251.25s32.14 71.86 71.64 71.86h368.72a71.64 71.64 0 1 0 0-143.28zM71.14 122.72a56.61 56.61 0 1 1 56.61 56.61 56.68 56.68 0 0 1-56.61-56.61zm70.77 70.23a72.1 72.1 0 0 0-14.14 13.53A71.61 71.61 0 0 0 113.6 193a71.66 71.66 0 0 0 28.31 0zM71.64 307.58a56.61 56.61 0 1 1 47.53-87.36 71.52 71.52 0 0 0 0 61.5 56.83 56.83 0 0 1-47.53 25.86zm43.85.5c4.54-4 8.67-7.57 12.29-12.11 3.59 4.51 7.7 8.11 12.26 12.11zm68.37-.5A56.61 56.61 0 1 1 240.47 251a56.67 56.67 0 0 1-56.61 56.58zm308-32.56c-9 19-28.64 33.06-51.46 33.06H227.68a89.46 89.46 0 0 0 15.85-17h92.62V276h-85a72.77 72.77 0 0 0 4.34-24.55c0-11.72-2.85-23.55-7.86-32.56h80.5v-15h-90.8a31.81 31.81 0 0 0-9.66-9h212.69A56.67 56.67 0 0 1 497 251.47a59 59 0 0 1-.64 8.52H392.27v15z"/><path d="M344.17 83.64h16v15h-16zm-32.06 40.08h104.2v15h-104.2zM256 155.79h16v15h-16zM272 244h80.16v15H272zm152.33-24.09h48.09v15h-48.09zm-80.16-16.03h16v15h-16zM360.2 276h16v15h-16z"/></g></g></symbol><symbol viewBox="0 0 64 40" id="advantages-3" xmlns="http://www.w3.org/2000/svg"><g data-name="Слой 2"><path d="M16.51 12.15c5.33 0 10.65-1.83 16-5.5a26.43 26.43 0 0 1 29.89 0 1 1 0 0 0 1.38-.29A1 1 0 0 0 63.55 5a28.39 28.39 0 0 0-32.11 0c-10 6.83-19.81 6.83-29.88 0a1 1 0 0 0-1.39.27 1 1 0 0 0 .27 1.4c5.41 3.65 10.75 5.48 16.07 5.48zm47.04 6.74a28.39 28.39 0 0 0-32.11 0c-10 6.83-19.81 6.83-29.88 0a1 1 0 0 0-1.39.27 1 1 0 0 0 .27 1.4c5.41 3.67 10.74 5.5 16.07 5.5s10.65-1.83 16-5.5a26.43 26.43 0 0 1 29.89 0 1 1 0 0 0 1.38-.29 1 1 0 0 0-.23-1.38zm0 13.93a28.4 28.4 0 0 0-32.11 0c-10 6.83-19.81 6.83-29.88 0a1 1 0 0 0-1.39.27 1 1 0 0 0 .27 1.4C5.85 38.17 11.19 40 16.51 40s10.65-1.84 16-5.5a26.43 26.43 0 0 1 29.89 0 1 1 0 0 0 1.38-.29 1 1 0 0 0-.23-1.39z" data-name="Layer 1"/></g></symbol><symbol viewBox="0 0 344.96 344.96" id="check" xmlns="http://www.w3.org/2000/svg"><g data-name="Слой 2"><path d="M321.85 86.24l-40-23.11-23.1-40H212.5L172.48 0l-40 23.11H86.24l-23.11 40-40 23.1v46.21L0 172.48l23.11 40v46.21l40 23.11 23.11 40h46.21l40 23.1 40-23.11h46.21l23.11-40 40-23.11V212.5l23.11-40-23.11-40V86.24zM156.91 243.07a16.79 16.79 0 0 1-23.34 0l-50.45-50.44a16.19 16.19 0 0 1 0-22.89l13.35-13.35a16.19 16.19 0 0 1 22.89 0l25.87 25.87 80.34-80.35a16.19 16.19 0 0 1 22.89 0l13.35 13.35a16.19 16.19 0 0 1 0 22.89z" data-name="Capa 1"/></g></symbol></svg>