<svg xmlns="http://www.w3.org/2000/svg" viewBox="0 0 295.24 295.24" width="25" height="24" ><style>path{fill:#0099b5;}</style><title>head-6</title><g id="Слой_2" data-name="Слой 2"><g id="Layer_1" data-name="Layer 1"><path d="M223.81,107.89V100A28.57,28.57,0,0,0,211,76.19a28.55,28.55,0,0,0,12.81-23.81V28.57A28.6,28.6,0,0,0,195.24,0H28.57A28.6,28.6,0,0,0,0,28.57V52.38A28.57,28.57,0,0,0,12.81,76.19,28.56,28.56,0,0,0,0,100v23.81a28.57,28.57,0,0,0,12.81,23.81A28.56,28.56,0,0,0,0,171.43v23.81a28.6,28.6,0,0,0,28.57,28.57h79.32A95.18,95.18,0,1,0,223.81,107.89Zm43.88,39.72a85.18,85.18,0,0,1,17.91,50.31l-10.55-10.56a75.91,75.91,0,0,0-19.87-39.75Zm-8.57-9.52H244.25a75.65,75.65,0,0,0-42.37-14.19l8.87-8.87A85.36,85.36,0,0,1,259.12,138.1ZM213.61,95.24H165.53L182.68,81h12.56A19,19,0,0,1,213.61,95.24Zm-103-23.81H68.39L51.25,57.14H93.51Zm-2.27-14.29h42.27L167.8,71.43H125.53ZM125.53,81H167.8L150.66,95.24H108.39Zm69.7-9.52H182.68L165.53,57.14h48.08A19,19,0,0,1,195.24,71.43ZM167.8,9.52,150.66,23.81H108.39L125.53,9.52Zm-57.14,0L93.51,23.81H51.25L68.39,9.52Zm-82.09,0H53.51L36.37,23.81H10.2A19,19,0,0,1,28.57,9.52Zm-19,23.81H171.43V23.81h-5.9L182.68,9.52h12.56a19,19,0,0,1,18.37,14.29H200v9.52h14.29V47.62H9.52Zm.68,23.81H36.37L53.51,71.43H28.57A19,19,0,0,1,10.2,57.14ZM28.57,81H53.51L36.37,95.24H10.2A19,19,0,0,1,28.57,81Zm-19,23.81h30.3L68.39,81h42.27L93.51,95.24h-3v9.52H214.28V106A92.55,92.55,0,0,0,150.08,119H9.52Zm188.4,9.63-10.56,10.55a75.91,75.91,0,0,0-39.75,19.87V132.31A85.18,85.18,0,0,1,197.92,114.39Zm-89.53,14.18h28.83a95.62,95.62,0,0,0-12.63,13.49Zm2.27,14.28H68.39L51.25,128.57H93.51Zm27.44-2v14.88a75.65,75.65,0,0,0-14.19,42.37L115,189.25A85.37,85.37,0,0,1,138.09,140.88ZM10.2,128.57H36.37l17.14,14.29H28.57A19,19,0,0,1,10.2,128.57Zm18.37,23.81H53.51L36.37,166.67H10.2A19,19,0,0,1,28.57,152.38Zm0,61.9A19,19,0,0,1,10.2,200H36.37l17.14,14.29Zm79.33-38.1a89.83,89.83,0,0,0-1.94,38.1H68.39L51.25,200H81v-9.52H9.52V176.19H81v-9.52H51.25l17.14-14.29h49.26a94.94,94.94,0,0,0-6.75,14.29H90.48v9.52Zm24.41,76.19a85.18,85.18,0,0,1-17.91-50.31l10.55,10.56a75.91,75.91,0,0,0,19.87,39.75ZM189.25,285a85.37,85.37,0,0,1-48.38-23.06h14.88a75.65,75.65,0,0,0,42.37,14.19Zm-55.92-85A66.67,66.67,0,1,1,200,266.67,66.74,66.74,0,0,1,133.33,200Zm119,67.69a85.18,85.18,0,0,1-50.31,17.91l10.56-10.55a75.91,75.91,0,0,0,39.75-19.87Zm9.53-8.57V244.25a75.65,75.65,0,0,0,14.19-42.37l8.87,8.87A85.38,85.38,0,0,1,261.91,259.12Z"/><path d="M247.62,200A47.62,47.62,0,1,0,200,247.62,47.67,47.67,0,0,0,247.62,200Zm-85.71,0A38.1,38.1,0,1,1,200,238.1,38.14,38.14,0,0,1,161.91,200Z"/><rect x="180.95" y="23.81" width="9.52" height="9.52"/><rect x="71.43" y="95.24" width="9.52" height="9.52"/><rect x="52.58" y="95.24" width="9.52" height="9.52"/><path d="M200,252.38v9.52a61.79,61.79,0,0,0,41.27-15.77l-6.35-7.1A52.29,52.29,0,0,1,200,252.38Z"/><rect x="90.48" y="190.48" width="9.52" height="9.52"/><path d="M104.47,250.1l-8.35,4.58a125.18,125.18,0,0,0,34.34,39.62l5.72-7.61A115.65,115.65,0,0,1,104.47,250.1Z"/></g></g></svg>