<svg xmlns="http://www.w3.org/2000/svg" viewBox="0 0 472.75 512" width="23" height="23" ><style>path{fill:#0099b5;}</style><title>head-8</title><g id="Слой_2" data-name="Слой 2"><g id="Layer_1" data-name="Layer 1"><path d="M465.92,380.59,454,378c-6-.85-10.24-5.12-12.8-10.24-2.56-6-1.71-11.09,1.71-16.21l7.68-10.24a8.94,8.94,0,0,0-.85-11.09l-17.07-17.07a11.29,11.29,0,0,0-6-2.38V42.67a25.14,25.14,0,0,0-25.6-25.6H290.13A17.12,17.12,0,0,0,273.07,0H153.6a17.12,17.12,0,0,0-17.07,17.07H25.6A25.14,25.14,0,0,0,0,42.67V486.4A25.14,25.14,0,0,0,25.6,512H372.05c4.27,0,7.68-3.41,11.95-7.68l1.71-9.39c.85-6,5.12-10.24,10.24-12.8s11.09-1.71,16.21,1.71l7.68,5.12a8.94,8.94,0,0,0,11.09-.85L448,471c2.56-3.41,3.41-7.68.85-11.09L442,449.71c-3.41-5.12-4.27-11.09-1.71-16.21q3.84-9,12.8-10.24l12.8-1.71a9.19,9.19,0,0,0,6.83-8.53V389.12A8.31,8.31,0,0,0,465.92,380.59ZM153.6,85.33H273.07a17.12,17.12,0,0,0,17.07-17.07h88.75V288.34a8.13,8.13,0,0,0-3.41-.77H351.57a8.58,8.58,0,0,0-6.67,2.9,8.35,8.35,0,0,0-2.72,4.78l-3.41,16.21a15.19,15.19,0,0,1-4.12,8.35,22.45,22.45,0,0,1-5.26,3.6c-6,1.71-11.09,1.71-16.21-1.71l-13.65-9.39a8.94,8.94,0,0,0-11.09.85l-9,9-8.11,8.11a6.43,6.43,0,0,0-1.62,1.77,9,9,0,0,0-.09,10.17l7.68,10.24c3.41,5.12,4.27,11.09,1.71,16.21a22.4,22.4,0,0,1-3.6,5.26,15.19,15.19,0,0,1-8.35,4.12l-11.95,2.56a8.36,8.36,0,0,0-4.78,2.72,8.58,8.58,0,0,0-2.9,6.67v23.89a8.58,8.58,0,0,0,2.9,6.67,8.36,8.36,0,0,0,4.78,2.72l12.8,1.71a15.19,15.19,0,0,1,8.35,4.12,22.41,22.41,0,0,1,3.6,5.26c2.56,5.12,1.71,11.09-1.71,16.21l-6.83,10.24H51.2V68.27h85.33A17.12,17.12,0,0,0,153.6,85.33Zm250.88-51.2c5.12,0,8.53,3.41,8.53,8.53V317.44l-.85.85c-5.12,3.41-11.09,4.27-16.21,1.71a21,21,0,0,1-3.41-1.84V68.27A17.12,17.12,0,0,0,375.47,51.2H290.13V34.13ZM153.6,17.07H273.07v51.2H153.6V17.07ZM17.07,486.4V42.67c0-5.12,3.41-8.53,8.53-8.53H136.53V51.2H51.2A17.12,17.12,0,0,0,34.13,68.27V460.8A17.12,17.12,0,0,0,51.2,477.87h227L289.28,489a8.94,8.94,0,0,0,11.09.85l10.24-7.68c5.12-3.41,11.09-4.27,16.21-1.71s9.39,6.83,10.24,12.8l.37,1.71H25.6C20.48,494.93,17.07,491.52,17.07,486.4Zm434.35-78.51-6,.85c-11.09,1.71-21.33,8.53-25.6,19.63-4.27,10.24-3.41,23,3.41,32.43l4.27,4.27-6.83,6.83L419,471c-10.24-7.68-22.19-8.53-33.28-4.27-11.09,5.12-18.77,14.51-20.48,26.45v1.71h-9.39l-1.71-6c-1.71-11.09-9.39-20.48-20.48-24.75a33.88,33.88,0,0,0-32.43,4.27L297,471.89l-6.83-6.83,2.56-4.27c6.83-9.39,7.68-21.33,3.41-32.43a32.44,32.44,0,0,0-25.6-19.63l-6-.85v-9.39l6-1.71c11.09-1.71,20.48-9.39,24.75-20.48A33.88,33.88,0,0,0,291,343.89l-3.41-4.27,6.83-6.83,7.68,5.12a32.31,32.31,0,0,0,31.57,3.41c11.09-4.27,17.92-13.65,20.48-24.75l1.71-9.39h9.39l.85,6.83c1.71,11.09,9.39,21.33,19.63,25.6s23,3.41,32.43-3.41l4.58-3.06,6.51,7.32-3.41,4.27a33.88,33.88,0,0,0-4.27,32.43,35.42,35.42,0,0,0,24.75,20.48l5.12.85v9.39Z"/><path d="M358.4,358.4a42.67,42.67,0,1,0,42.67,42.67A42.25,42.25,0,0,0,358.4,358.4Zm0,68.27a25.6,25.6,0,1,1,25.6-25.6A25.14,25.14,0,0,1,358.4,426.67Z"/><path d="M99,178.35A22,22,0,0,0,76.8,200.53v33.28C76.8,246.61,86.19,256,99,256h13a34.13,34.13,0,0,0,66.09,0h70.44a34.13,34.13,0,0,0,66.09,0h13c12.8,0,22.19-9.39,23-22.19V200.53a22,22,0,0,0-22.19-22.19H310.36l-33-46.08a27.21,27.21,0,0,0-23-11.95H217.37a10,10,0,0,0-8.07,0H172.37a27.21,27.21,0,0,0-23,11.95l-33,46.08H99Zm46.08,86.19a17.07,17.07,0,1,1,17.07-17.07A17.12,17.12,0,0,1,145.07,264.53Zm136.53,0a17.07,17.07,0,1,1,17.07-17.07A17.12,17.12,0,0,1,281.6,264.53Zm52.05-64v33.28a5.51,5.51,0,0,1-5.12,5.12H314.88c-4.27-14.51-15.36-25.6-31.57-25.6l-.93,0-.78,0a34.27,34.27,0,0,0-33,25.6H179.2c-4.27-14.51-17.07-25.6-33.28-25.6h-.85a34.27,34.27,0,0,0-33,25.6H99a5.51,5.51,0,0,1-5.12-5.12V200.53A5.51,5.51,0,0,1,99,195.41h16.64a8.83,8.83,0,0,0,3.84.85H307.2a8.83,8.83,0,0,0,3.84-.85h17.49A5.51,5.51,0,0,1,333.65,200.53ZM262.83,140.8l26.7,37.55H221.87V136.53h31.57C257.71,136.53,261.12,138.24,262.83,140.8Zm-100.69,0a13.7,13.7,0,0,1,9.39-4.27H204.8v41.81H136.27Z"/><path d="M213.33,324.27h-128c-5.12,0-8.53,3.41-8.53,8.53s3.41,8.53,8.53,8.53h128c5.12,0,8.53-3.41,8.53-8.53S218.45,324.27,213.33,324.27Z"/><path d="M213.33,366.93h-128c-5.12,0-8.53,3.41-8.53,8.53S80.21,384,85.33,384h128c5.12,0,8.53-3.41,8.53-8.53S218.45,366.93,213.33,366.93Z"/><path d="M213.33,409.6h-128c-5.12,0-8.53,3.41-8.53,8.53s3.41,8.53,8.53,8.53h128c5.12,0,8.53-3.41,8.53-8.53S218.45,409.6,213.33,409.6Z"/></g></g></svg>