<svg xmlns="http://www.w3.org/2000/svg" viewBox="0 0 503.6 512.04" width="24" height="24" ><style>path{fill:#0099b5;}</style><title>head-5</title><g id="Слой_2" data-name="Слой 2"><g id="Layer_1" data-name="Layer 1"><path d="M452.4,0a51.2,51.2,0,1,0,51.2,51.2A51.35,51.35,0,0,0,452.4,0Zm0,85.33a34.13,34.13,0,1,1,34.13-34.13A34.23,34.23,0,0,1,452.4,85.37Z"/><path d="M424.24,115.24c-30.72-7.68-62.29,8.53-72.53,38.4L304.77,290.17a12.09,12.09,0,0,1-12.8,7.68l-86.19-10.24c-12.8-1.71-24.75,6-28.16,17.92L120.45,470.22c-2.56,11.09,0,22.19,7.68,29.87S145.2,512,154.59,512c3.41,0,6,0,8.53-.85,11.95-3.41,21.33-11.95,24.75-23l47.79-116.91a7.86,7.86,0,0,1,9.39-6l128.85,17.92c13.65,1.71,27.31-6.83,31.57-19.63L464.35,192c6-15.36,4.27-32.43-3.41-46.93S440.45,119.5,424.24,115.24Zm24.75,70L390.11,356.73a11.52,11.52,0,0,1-12.8,7.68L248.45,346.49c-12.8-1.71-24.75,6-28.16,17.07L171.65,482.17c-1.71,6-6.83,10.24-12.8,11.95-6.83,1.71-12.8,0-18.77-6-3.41-2.56-4.27-8.53-3.41-12.8L193.84,309.8c.85-3.41,4.27-6,8.53-6a2.65,2.65,0,0,0,1.71-.85l86.19,10.24A28.88,28.88,0,0,0,321,293.58L367.92,157c7.68-21.33,30.72-33.28,52.05-27.31,11.95,3.41,20.48,11.09,26.45,21.33C451.55,162.17,453.25,174.12,449,185.21Z"/><path d="M94,128H222v34.13c0,3.41,1.71,6.83,5.12,7.68.85.85,2.56.85,3.41.85a7.74,7.74,0,0,0,6-2.56l76.8-76.8a8.25,8.25,0,0,0,0-11.95L236.5,2.59A7.79,7.79,0,0,0,227.12.89C223.7,1.74,222,5.15,222,8.57V42.7H94c-5.12,0-8.53,3.41-8.53,8.53V119.5C85.47,124.62,88.88,128,94,128Zm8.53-68.27h128c5.12,0,8.53-3.41,8.53-8.53V29l56.32,56.32-56.32,56.32V119.5c0-5.12-3.41-8.53-8.53-8.53h-128V59.77Z"/><path d="M112.77,265.42a2.26,2.26,0,0,1-.36-.51q12.22.3,24.48,1.32a3.29,3.29,0,0,0,.63.9V268l2.56,5.12c2.56,5.12,5.12,11.09,5.12,17.07,0,11.95-11.09,24.75-14.51,28.16a8.25,8.25,0,0,0,0,11.95,7.75,7.75,0,0,0,6,2.56,13.61,13.61,0,0,0,6.83-2.56c.85-.85,19.63-18.77,19.63-40.11,0-8.67-3.05-16.1-6.06-21.8q14.54,1.88,29.1,4.74c2.56,0,5.12,0,6.83-1.71s3.41-3.41,3.41-6l8.53-85.33c0-4.27-2.56-8.53-6.83-9.39C146.05,158.75,60.72,158.75,7,170.7c-4.27.85-7.68,5.12-6.83,9.39l8.53,85.33c0,2.56,1.71,4.27,3.41,6a12.13,12.13,0,0,0,5.12,1.71H18.9q16.54-3.36,33.28-5.36V268l2.56,5.12c2.56,5.12,5.12,11.09,5.12,17.07,0,11.95-10.24,24.75-14.51,28.16a8.25,8.25,0,0,0,0,11.95,7.75,7.75,0,0,0,6,2.56,9.21,9.21,0,0,0,6-2.56c.85-.85,19.63-18.77,19.63-40.11,0-9.9-4-18.2-7.34-24.14q11.89-.92,23.84-1.15a7.28,7.28,0,0,0,1.42,2.25V268l2.56,5.12c2.56,5.12,5.12,11.09,5.12,17.07,0,11.95-10.24,24.75-14.51,28.16a8.25,8.25,0,0,0,0,11.95,7.75,7.75,0,0,0,6,2.56,13.61,13.61,0,0,0,6.83-2.56c.85-.85,19.63-18.77,19.63-40.11C120.45,279.93,116.19,271.4,112.77,265.42ZM18.05,186.06c48.64-9.39,121.17-9.39,169,0l-6.83,68.27c-10.9-1.76-21.66-3.22-32.39-4.34a27.06,27.06,0,0,1-2.6-11c0-6,2.56-11.95,5.12-17.07l2.56-5.12c1.71-4.27,0-9.39-4.27-11.09s-9.39,0-11.09,4.27c0,1.71-.85,2.56-1.71,4.27-3.41,6-7.68,14.51-7.68,24.75a39.13,39.13,0,0,0,1.19,9.45c-8.35-.54-16.73-.85-25.19-.9a25.39,25.39,0,0,1-1.6-8.55c0-6,2.56-11.95,5.12-17.07l2.56-5.12c1.71-4.27,0-9.39-4.27-11.09s-9.39,0-11.09,4.27c0,1.71-.85,2.56-1.71,4.27-3.41,6-7.68,14.51-7.68,24.75a38.9,38.9,0,0,0,1,8.83q-12.15.46-24.29,1.62A26.66,26.66,0,0,1,59.86,239c0-6,2.56-11.95,5.12-17.07l2.56-5.12c1.71-4.27,0-9.39-4.27-11.09s-9.39,0-11.09,4.27c0,1.71-.85,2.56-1.71,4.27-3.41,6-7.68,14.51-7.68,24.75a40.42,40.42,0,0,0,2,12.4q-10,1.29-19.94,3Z"/></g></g></svg>