<svg xmlns="http://www.w3.org/2000/svg" viewBox="0 0 452.26 318.93" width="25" height="17" ><style>path{fill:#0099b5;}</style><title>head-2</title><g id="Слой_2" data-name="Слой 2"><g id="Capa_1" data-name="Capa 1"><path d="M405,94.87a9,9,0,0,0-9,9v53.41h-18.3V112.16a9,9,0,0,0-9-9H327l-7.78-25.93a9,9,0,0,0-8.62-6.41H247V48h40a9,9,0,0,0,9-9V9a9,9,0,0,0-9-9h-129a9,9,0,0,0-9,9V39a9,9,0,0,0,9,9h40V70.82H105.38a9,9,0,0,0-7.9,4.7l-15,27.65H47.23a9,9,0,0,0-9,9v45.11H18V92.93a9,9,0,0,0-18,0v186a9,9,0,0,0,18,0V214.6H38.23v47.64a9,9,0,0,0,9,9h74.94l34.26,44.21a9,9,0,0,0,7.11,3.49H368.72a9,9,0,0,0,9-9V214.6H396V268a9,9,0,0,0,9,9,47.3,47.3,0,0,0,47.24-47.24V142.11A47.3,47.3,0,0,0,405,94.87ZM18,196.6V175.27H38.23V196.6ZM167.06,18H278V30h-111Zm49,30H229V70.82H216.1ZM56.23,121.16h6.4V253.24h-6.4Zm77.46,135.56a9,9,0,0,0-7.11-3.49h-46V121.16h7.16a9,9,0,0,0,7.9-4.7l15-27.65H303.87l7.78,25.93a9,9,0,0,0,8.62,6.41h16.15V300.93H167.95Zm226,44.21h-5.3V121.16h5.3Zm18-104.33V175.27H396V196.6Zm56.54,33.16A29.3,29.3,0,0,1,414,257.59V114.28a29.29,29.29,0,0,1,20.24,27.83Z"/></g></g></svg>