<svg xmlns="http://www.w3.org/2000/svg" viewBox="0 0 204.8 143.36" width="25" height="17" ><style>path{fill:#0099b5;}</style><title>head-7</title><g id="Слой_2" data-name="Слой 2"><g id="Capa_1" data-name="Capa 1"><path d="M41,124.25a3.41,3.41,0,0,0-3.41,3.41v8.87H6.83V112.64a3.41,3.41,0,0,0-6.83,0v27.31a3.41,3.41,0,0,0,3.41,3.41H41a3.41,3.41,0,0,0,3.41-3.41V127.66A3.41,3.41,0,0,0,41,124.25Z"/><path d="M201.39,109.23a3.41,3.41,0,0,0-3.41,3.41v23.89H167.25V128a3.41,3.41,0,0,0-6.83,0v11.95a3.41,3.41,0,0,0,3.41,3.41h37.55a3.41,3.41,0,0,0,3.41-3.41V112.64A3.42,3.42,0,0,0,201.39,109.23Z"/><path d="M201.39,78.51A3.41,3.41,0,0,0,198,81.92v28.92a12.05,12.05,0,0,1-12,12H131.07a3.41,3.41,0,1,0,0,6.83h54.86a18.89,18.89,0,0,0,18.87-18.87V81.92A3.42,3.42,0,0,0,201.39,78.51Z"/><path d="M70.66,122.88H18.86a12.05,12.05,0,0,1-12-12V82.94a3.41,3.41,0,1,0-6.83,0v27.9a18.89,18.89,0,0,0,18.87,18.87H70.66a3.41,3.41,0,1,0,0-6.83Z"/><path d="M183.12,42.59l-1.68-11.78A36.07,36.07,0,0,0,145.91,0h-87A36.07,36.07,0,0,0,23.36,30.82L21.69,42.5a3.41,3.41,0,0,0,6.76,1l1.67-11.68a29.21,29.21,0,0,1,28.77-25h87a29.21,29.21,0,0,1,28.77,25l1.68,11.78a3.42,3.42,0,0,0,3.38,2.93,3.61,3.61,0,0,0,.49,0A3.41,3.41,0,0,0,183.12,42.59Z"/><path d="M190.09,51.64A30.48,30.48,0,0,1,183,40.71a3.41,3.41,0,0,0-5.5-1.29,31.52,31.52,0,0,1-21.38,8.37H48.71a31.52,31.52,0,0,1-21.38-8.37,3.41,3.41,0,0,0-5.5,1.29,30.45,30.45,0,0,1-7.11,10.93A48.72,48.72,0,0,0,0,87.61c.25,13.8,11.88,25,25.92,25H178.87c14,0,25.67-11.23,25.92-25A48.73,48.73,0,0,0,190.09,51.64Zm-11.22,54.17H25.93A19,19,0,0,1,6.83,87.49a42,42,0,0,1,12.66-31,37,37,0,0,0,6.8-9.14A38.28,38.28,0,0,0,48.7,54.61H156.1a38.27,38.27,0,0,0,22.41-7.24,36.88,36.88,0,0,0,6.8,9.14,42,42,0,0,1,12.66,31A19,19,0,0,1,178.87,105.81Z"/><path d="M57,14.65a3.41,3.41,0,0,0-4.83,0L42,24.89a3.41,3.41,0,1,0,4.83,4.83L57,19.48A3.41,3.41,0,0,0,57,14.65Z"/><path d="M74.09,11.24a3.41,3.41,0,0,0-4.83,0l-25.6,25.6a3.41,3.41,0,1,0,4.83,4.83l25.6-25.6A3.41,3.41,0,0,0,74.09,11.24Z"/><path d="M139.95,27.31A23.92,23.92,0,0,0,116.05,51.2a3.41,3.41,0,0,0,6.83,0,17.07,17.07,0,1,1,34.13,0,3.41,3.41,0,1,0,6.83,0A23.92,23.92,0,0,0,139.95,27.31Z"/><path d="M41,78.51H13.65a3.41,3.41,0,0,0-3.41,3.41v6.83A10.25,10.25,0,0,0,20.48,99H41a10.24,10.24,0,0,0,0-20.48Zm0,13.65H20.48a3.42,3.42,0,0,1-3.41-3.41V85.33H41a3.41,3.41,0,1,1,0,6.83Z"/><path d="M191.15,78.51H163.84a10.24,10.24,0,1,0,0,20.48h20.48a10.25,10.25,0,0,0,10.24-10.24V81.92A3.41,3.41,0,0,0,191.15,78.51Zm-3.41,10.24a3.42,3.42,0,0,1-3.41,3.41H163.84a3.41,3.41,0,0,1,0-6.83h23.89v3.41Z"/><path d="M129.71,105.81h-58a3.41,3.41,0,0,0-3.41,3.41v20.48a3.41,3.41,0,0,0,3.41,3.41h58a3.41,3.41,0,0,0,3.41-3.41V109.23A3.41,3.41,0,0,0,129.71,105.81Zm-3.41,20.48H75.09V112.64h51.2Z"/><path d="M134.83,75.09H70A11.95,11.95,0,0,0,70,99h64.85a11.95,11.95,0,0,0,0-23.89Zm0,17.07H70a5.12,5.12,0,0,1,0-10.24h64.85a5.12,5.12,0,0,1,0,10.24Z"/><path d="M81.92,75.09a3.41,3.41,0,0,0-3.41,3.41V95.57a3.41,3.41,0,0,0,6.83,0V78.51A3.41,3.41,0,0,0,81.92,75.09Z"/><path d="M102.4,75.09A3.41,3.41,0,0,0,99,78.51V95.57a3.41,3.41,0,0,0,6.83,0V78.51A3.41,3.41,0,0,0,102.4,75.09Z"/><path d="M122.88,75.09a3.41,3.41,0,0,0-3.41,3.41V95.57a3.41,3.41,0,0,0,6.83,0V78.51A3.41,3.41,0,0,0,122.88,75.09Z"/></g></g></svg>