<svg xmlns="http://www.w3.org/2000/svg" viewBox="0 0 480 480" width="25" height="24" ><style>path{fill:#0099b5;}</style><title>head-1</title><g id="Слой_2" data-name="Слой 2"><g id="Capa_1" data-name="Capa 1"><path d="M474.2,24.3l-56-16a8,8,0,0,0-7.85,2L396.69,24H248V8a8,8,0,0,0-8-8H208a8,8,0,0,0-8,8,8,8,0,0,1-16,0,8,8,0,0,0-8-8H8A8,8,0,0,0,0,8V88a8,8,0,0,0,8,8H176a8,8,0,0,0,8-8,8,8,0,0,1,16,0,8,8,0,0,0,8,8h32a8,8,0,0,0,8-8V72H396.69l13.66,13.66A8,8,0,0,0,416,88a8.14,8.14,0,0,0,2.19-.3l56-16A8,8,0,0,0,480,64V32A8,8,0,0,0,474.2,24.3ZM232,80H214.64a24,24,0,0,0-45.26,0H16V16H169.37a24,24,0,0,0,45.26,0H232ZM464,48V58L418.33,71,405.66,58.34A8,8,0,0,0,400,56H248V40H400a8,8,0,0,0,5.66-2.34L418.33,25,464,38Z"/><rect x="32" y="32" width="88" height="16"/><rect x="136" y="32" width="16" height="16"/><path d="M448,384H132l-21.6-28.8A8,8,0,0,0,104,352H32a8,8,0,0,0-6.4,3.2l-24,32A8,8,0,0,0,8,400H59.72l10.66,16L59.72,432H8a8,8,0,0,0-6.4,12.8l24,32A8,8,0,0,0,32,480h72a8,8,0,0,0,6.4-3.2L132,448H448a32,32,0,0,0,0-64Zm11.3,43.3A15.89,15.89,0,0,1,448,432H128a8,8,0,0,0-6.4,3.2L100,464H36L24,448H64a8,8,0,0,0,6.66-3.56l16-24a8,8,0,0,0,0-8.87l-16-24A8,8,0,0,0,64,384H24l12-16h64l21.6,28.8A8,8,0,0,0,128,400H448a16,16,0,0,1,11.3,27.3Z"/><rect x="432" y="408" width="16" height="16"/><path d="M424,184H367.61A80.15,80.15,0,0,0,288,112H184a80.11,80.11,0,0,0-79.6,72H56c-32.06,0-56,33.79-56,64v40a8,8,0,0,0,8,8H64.72a47.94,47.94,0,0,0,94.56,0H312.72a47.94,47.94,0,0,0,94.56,0H472a8,8,0,0,0,8-8V248C480,217.79,456.06,184,424,184ZM112,320a32,32,0,1,1,32-32A32,32,0,0,1,112,320ZM232,184H153a32,32,0,0,1,31-24h48ZM360,320a32,32,0,1,1,32-32A32,32,0,0,1,360,320Zm104-40H407.34c0-.18-.1-.35-.14-.54a47.9,47.9,0,0,0-1.86-7.1c-.14-.42-.3-.83-.46-1.25a48,48,0,0,0-3.06-6.6c-.18-.3-.37-.59-.54-.9a47.63,47.63,0,0,0-4.31-6.2c0-.06-.1-.1-.14-.15a48.49,48.49,0,0,0-5.29-5.36c-.22-.18-.41-.38-.62-.57a48.93,48.93,0,0,0-5.94-4.26c-.35-.22-.7-.43-1.06-.64a48.41,48.41,0,0,0-6.52-3.14l-1.19-.44a47.32,47.32,0,0,0-7.19-2c-.31-.06-.64-.09-1-.14a44.94,44.94,0,0,0-16.11,0l-1,.14a47.32,47.32,0,0,0-7.19,2c-.4.14-.8.28-1.19.44a48,48,0,0,0-6.53,3.14c-.36.21-.7.42-1.06.64a48.08,48.08,0,0,0-5.94,4.26c-.22.18-.41.38-.62.57a49.2,49.2,0,0,0-5.29,5.36c0,.06-.1.1-.14.15a47.72,47.72,0,0,0-4.31,6.21c-.18.3-.37.58-.54.89a48.13,48.13,0,0,0-3.06,6.61c-.16.42-.31.82-.46,1.25a46.68,46.68,0,0,0-1.86,7.1c0,.18-.11.35-.14.54H248V200h80a8,8,0,0,0,8-8,48,48,0,0,0-48-48H184a48,48,0,0,0-48,48,8,8,0,0,0,8,8h88v80H159.34c0-.18-.1-.35-.14-.54a47.9,47.9,0,0,0-1.86-7.1c-.14-.42-.3-.83-.46-1.25a48,48,0,0,0-3.06-6.6c-.18-.3-.37-.59-.54-.9a47.63,47.63,0,0,0-4.31-6.2c0-.06-.1-.1-.14-.15a48.49,48.49,0,0,0-5.29-5.36c-.22-.18-.41-.38-.62-.57a48.93,48.93,0,0,0-5.94-4.26c-.35-.22-.7-.43-1.06-.64a48.41,48.41,0,0,0-6.52-3.14l-1.19-.44a47.32,47.32,0,0,0-7.19-2c-.31-.06-.64-.09-1-.14a44.94,44.94,0,0,0-16.11,0l-1,.14a47.32,47.32,0,0,0-7.19,2c-.4.14-.8.28-1.19.44a48,48,0,0,0-6.53,3.14c-.36.21-.7.42-1.06.64a48.08,48.08,0,0,0-5.94,4.26c-.22.18-.41.38-.62.57a49.2,49.2,0,0,0-5.29,5.36c0,.06-.1.1-.14.15a47.72,47.72,0,0,0-4.31,6.21c-.18.3-.37.58-.54.89a48.12,48.12,0,0,0-3.06,6.61c-.16.42-.31.82-.46,1.25a46.68,46.68,0,0,0-1.86,7.1c0,.18-.11.35-.14.54H16V248c0-21.74,17.84-48,40-48h56a8,8,0,0,0,8-8,64.07,64.07,0,0,1,64-64H288a64.11,64.11,0,0,1,64,64,8,8,0,0,0,8,8h64c22.16,0,40,26.26,40,48ZM248,184V160h40a32,32,0,0,1,31,24Z"/><rect x="192" y="216" width="24" height="16"/><rect x="296" y="216" width="24" height="16"/></g></g></svg>