<svg xmlns="http://www.w3.org/2000/svg" viewBox="0 0 454.76 454.76" width="25" height="25" ><style>path{fill:#0099b5;}</style><title>head-3</title><g id="Слой_2" data-name="Слой 2"><g id="Capa_1" data-name="Capa 1"><path d="M388.16,66.6A227.38,227.38,0,0,0,66.6,388.16,227.38,227.38,0,0,0,388.16,66.6ZM227.38,436.76C111.93,436.76,18,342.83,18,227.38S111.93,18,227.38,18s209.38,93.93,209.38,209.38S342.83,436.76,227.38,436.76Z"/><path d="M227.38,56.94c-94,0-170.44,76.46-170.44,170.44S133.4,397.82,227.38,397.82s170.44-76.46,170.44-170.44S321.36,56.94,227.38,56.94Zm0,322.89c-84.06,0-152.44-68.39-152.44-152.44S143.32,74.93,227.38,74.93s152.44,68.39,152.44,152.44S311.43,379.82,227.38,379.82Z"/><path d="M259,227.38A31.64,31.64,0,1,0,227.38,259,31.67,31.67,0,0,0,259,227.38Zm-45.28,0A13.64,13.64,0,1,1,227.38,241,13.65,13.65,0,0,1,213.74,227.38Z"/><path d="M227.38,87.89c-76.92,0-139.49,62.57-139.49,139.49s62.58,139.49,139.49,139.49,139.49-62.58,139.49-139.49S304.29,87.89,227.38,87.89ZM348.87,227.38a121,121,0,0,1-6,37.57L293.7,232.6a6.25,6.25,0,0,1,0-10.44l49.21-32.35A121,121,0,0,1,348.87,227.38Zm-31.24-81.24-52.57,26.41a6.25,6.25,0,0,1-9-5.22l-3.41-58.79A121.53,121.53,0,0,1,317.63,146.13ZM202.15,108.53l-3.41,58.8a6.25,6.25,0,0,1-9,5.22l-52.57-26.41A121.53,121.53,0,0,1,202.15,108.53ZM105.89,227.38a121,121,0,0,1,6-37.57l49.21,32.35a6.25,6.25,0,0,1,0,10.44l-49.21,32.35A121,121,0,0,1,105.89,227.38Zm31.24,81.24,52.57-26.41a6.25,6.25,0,0,1,9,5.22l3.41,58.8A121.53,121.53,0,0,1,137.13,308.62Zm83.19,40-3.61-62.27a24.25,24.25,0,0,0-35.09-20.26l-55.71,28a121.49,121.49,0,0,1-7.08-12.21l52.11-34.26a24.25,24.25,0,0,0,0-40.52l-52.11-34.26a121.79,121.79,0,0,1,7.08-12.21l55.71,28a24.25,24.25,0,0,0,35.1-20.26l3.61-62.28c2.34-.13,4.69-.21,7.06-.21s4.72.08,7.05.21L238,168.37a24.23,24.23,0,0,0,35.09,20.26l55.71-28a121.61,121.61,0,0,1,7.08,12.21l-52.11,34.26a24.25,24.25,0,0,0,0,40.52l52.12,34.26a121.66,121.66,0,0,1-7.08,12.21l-55.71-28A24.25,24.25,0,0,0,238,286.38l-3.61,62.28c-2.34.13-4.68.21-7.05.21S222.66,348.79,220.32,348.66Zm32.28-2.43,3.41-58.8a6.25,6.25,0,0,1,9-5.22l52.57,26.42A121.53,121.53,0,0,1,252.6,346.23Z"/></g></g></svg>