<svg xmlns="http://www.w3.org/2000/svg" viewBox="0 0 295.24 295.24" width="25" height="24" ><style>rect,path{fill:#0099b5;}</style><title>head-4</title><g id="Слой_2" data-name="Слой 2"><g id="Layer_1" data-name="Layer 1"><path d="M128.57,219v23.81H33.33v9.52H261.9v-9.52H166.67V219H281a14.3,14.3,0,0,0,14.29-14.29V14.29A14.3,14.3,0,0,0,281,0H14.29A14.3,14.3,0,0,0,0,14.29V204.76A14.3,14.3,0,0,0,14.29,219H128.57Zm28.57,23.81h-19V219h19ZM9.52,204.76V14.29a4.77,4.77,0,0,1,4.76-4.76H281a4.77,4.77,0,0,1,4.76,4.76V204.76h0a4.77,4.77,0,0,1-4.76,4.76H14.29A4.77,4.77,0,0,1,9.52,204.76Z"/><path d="M276.19,38.1H19V181H276.19Zm-9.52,133.33H28.57V47.62h238.1V171.43Z"/><rect x="133.33" y="190.48" width="28.57" height="9.52"/><path d="M61.9,138.1h34a19,19,0,0,0,36.74,0h44.21a19,19,0,0,0,36.74,0h29.25V100.63l-35-5-14.49-29H126L106.79,95.51l-44.89,5Zm52.38,4.76a9.52,9.52,0,1,1,9.52-9.52A9.53,9.53,0,0,1,114.29,142.86Zm81,0a9.52,9.52,0,1,1,9.52-9.52A9.53,9.53,0,0,1,195.24,142.86ZM71.43,109l40.83-4.54,18.86-28.29h56.41l14.09,28.17,31.71,4.53v19.68H213.61a19,19,0,0,0-36.74,0H132.66a19,19,0,0,0-36.74,0H71.43Z"/><path d="M179.63,81H140.31l-15.87,23.81h63.12ZM142.23,95.24l3.18-4.76h27.35l1.59,4.76Z"/><rect x="42.86" y="57.14" width="28.57" height="9.52"/><rect x="42.86" y="76.19" width="28.57" height="9.52"/><rect x="42.86" y="100" width="9.52" height="9.52"/><rect x="42.86" y="152.38" width="42.86" height="9.52"/><rect x="219.05" y="57.14" width="33.33" height="9.52"/><rect x="219.05" y="76.19" width="33.33" height="9.52"/><rect x="219.05" y="152.38" width="33.33" height="9.52"/><rect x="133.33" y="152.38" width="9.52" height="9.52"/><rect x="152.38" y="152.38" width="9.52" height="9.52"/><rect x="42.86" y="119.05" width="9.52" height="9.52"/><path d="M261.9,257.14a33.37,33.37,0,0,0-33.33,33.33v4.76h66.67v-4.76A33.37,33.37,0,0,0,261.9,257.14Zm-23.33,28.57a23.81,23.81,0,0,1,46.66,0Z"/><path d="M4.76,271.43H19v14.29H4.76v9.52H219V261.91H4.76Zm190.48,0h14.29v14.29H195.24Zm-23.81,0h14.29v14.29H171.43Zm-23.81,0H161.9v14.29H147.62Zm-23.81,0H138.1v14.29H123.81Zm-23.81,0h14.29v14.29H100Zm-23.81,0H90.48v14.29H76.19Zm-23.81,0H66.67v14.29H52.38Zm-23.81,0H42.86v14.29H28.57Z"/><rect x="133.33" y="19.05" width="9.52" height="9.52"/><rect x="152.38" y="19.05" width="9.52" height="9.52"/></g></g></svg>