<svg xmlns="http://www.w3.org/2000/svg" viewBox="0 0 97.75 97.75"><style>polygon,path{fill:#0099b5;}</style><title>soc-3</title><g id="Слой_2" data-name="Слой 2"><g id="Capa_1" data-name="Capa 1"><polygon points="25.68 52.48 29.55 52.48 29.55 73.45 33.22 73.45 33.22 52.48 37.16 52.48 37.16 49.05 25.68 49.05 25.68 52.48"/><path d="M56.67,55a4.46,4.46,0,0,0-3.41,2V49H50V73.46h3.29V71.69a4.49,4.49,0,0,0,3.41,2,2.61,2.61,0,0,0,2.63-2A14.48,14.48,0,0,0,59.64,68V60.76a14,14,0,0,0-.33-3.65A2.61,2.61,0,0,0,56.67,55Zm-.33,13.21c0,1.64-.48,2.45-1.43,2.45a2.35,2.35,0,0,1-1.64-.81V58.81a2.37,2.37,0,0,1,1.64-.8c1,0,1.43.84,1.43,2.48Z"/><path d="M43.82,69.17c-.73,1-1.42,1.54-2.08,1.54-.44,0-.69-.26-.77-.77a10.18,10.18,0,0,1,0-1.28V55.27h-3.3V69.65a9.27,9.27,0,0,0,.29,2.71,2,2,0,0,0,2.12,1.35c1.21,0,2.46-.73,3.77-2.23v2h3.3V55.27h-3.3Z"/><path d="M46.65,38.47c1.07,0,1.59-.85,1.59-2.55V28.18c0-1.7-.51-2.55-1.59-2.55s-1.59.85-1.59,2.55v7.73C45.06,37.62,45.58,38.47,46.65,38.47Z"/><path d="M48.88,0A48.88,48.88,0,1,0,97.75,48.88,48.87,48.87,0,0,0,48.88,0Zm5.44,22.86h3.32V36.39a7.84,7.84,0,0,0,0,1.29c.07.52.33.78.78.78.67,0,1.37-.52,2.1-1.56v-14h3.33V41.24H60.56v-2c-1.33,1.52-2.59,2.26-3.81,2.26a2,2,0,0,1-2.15-1.37,9.29,9.29,0,0,1-.29-2.73V22.86Zm-12.58,6a7.14,7.14,0,0,1,1-4.33,4.94,4.94,0,0,1,7.76,0,7.22,7.22,0,0,1,1,4.33v6.44a7.19,7.19,0,0,1-1,4.32,4.95,4.95,0,0,1-7.76,0,7.12,7.12,0,0,1-1-4.32ZM32.83,16.58l2.62,9.69L38,16.58H41.7L37.26,31.25v10H33.57v-10a60.74,60.74,0,0,0-2.26-7.8c-.78-2.29-1.59-4.58-2.37-6.87ZM75.19,75.06a6.89,6.89,0,0,1-5.89,5.36,183.17,183.17,0,0,1-20.42.75,183.16,183.16,0,0,1-20.42-.75,6.89,6.89,0,0,1-5.89-5.36c-1-4.13-1-8.64-1-12.89a58.41,58.41,0,0,1,1-12.89,6.88,6.88,0,0,1,5.89-5.36,183.19,183.19,0,0,1,20.42-.76,183.17,183.17,0,0,1,20.42.76,6.89,6.89,0,0,1,5.9,5.36c.95,4.13.94,8.64.94,12.89A58.34,58.34,0,0,1,75.19,75.06Z"/><path d="M67.17,55a4.68,4.68,0,0,0-3.95,1.86,7.09,7.09,0,0,0-1,4.28v6.37a7,7,0,0,0,1.06,4.28,4.72,4.72,0,0,0,4,1.86,4.56,4.56,0,0,0,4-2,4.69,4.69,0,0,0,.77-2c0-.33.07-1.06.07-2.12v-.48H68.71a21.59,21.59,0,0,1-.07,2.23,1.42,1.42,0,0,1-1.47,1.32c-1.13,0-1.69-.84-1.69-2.52V65h6.59V61.19a7.15,7.15,0,0,0-1-4.28A4.58,4.58,0,0,0,67.17,55Zm1.61,7.17h-3.3V60.53q0-2.52,1.65-2.52c1.09,0,1.64.84,1.64,2.52Z"/></g></g></svg>