<svg xmlns="http://www.w3.org/2000/svg" viewBox="0 0 97.75 97.75"><style>path{fill:#0099b5;}</style><title>soc-1</title><g id="Слой_2" data-name="Слой 2"><g id="Capa_1" data-name="Capa 1"><path d="M48.88,0A48.88,48.88,0,1,0,97.75,48.88,48.88,48.88,0,0,0,48.88,0ZM73.67,54.16a92.94,92.94,0,0,1,6.73,6.77,19.19,19.19,0,0,1,2.41,3.47c.93,1.8.09,3.78-1.52,3.88h-10a7.74,7.74,0,0,1-6.38-2.6c-1.38-1.41-2.67-2.91-4-4.37a9.36,9.36,0,0,0-1.8-1.6,2.09,2.09,0,0,0-3.33.81A10.49,10.49,0,0,0,54.7,65.2c-.11,2.36-.82,3-3.19,3.09a25.64,25.64,0,0,1-14.33-3.08,31.63,31.63,0,0,1-9.64-9A121.63,121.63,0,0,1,14.85,33.56c-.8-1.78-.22-2.74,1.75-2.77,3.27-.06,6.54-.06,9.8,0a2.88,2.88,0,0,1,2.72,2,60.84,60.84,0,0,0,6.64,12.31,10.53,10.53,0,0,0,2.51,2.76c1.16.8,2,.53,2.59-.76a8.4,8.4,0,0,0,.58-2.58,38.59,38.59,0,0,0-.16-9A3.78,3.78,0,0,0,38.07,32c-1-.18-.82-.53-.35-1.08a3.6,3.6,0,0,1,3.07-1.53H52.11c1.78.35,2.18,1.15,2.42,2.95V44.94c0,.69.35,2.76,1.6,3.21,1,.33,1.66-.47,2.26-1.1a39.1,39.1,0,0,0,6.38-9.79c.76-1.55,1.42-3.16,2.06-4.76a2.44,2.44,0,0,1,2.56-1.75H80.29a5.67,5.67,0,0,1,1,.06c1.84.31,2.34,1.1,1.77,2.9a27.14,27.14,0,0,1-4.33,7.51c-1.82,2.52-3.76,4.94-5.56,7.47C71.48,51,71.61,52.15,73.67,54.16Z"/></g></g></svg>