<?xml version="1.0" encoding="UTF-8" standalone="no"?>
<!-- Generator: Adobe Illustrator 19.0.0, SVG Export Plug-In . SVG Version: 6.00 Build 0)  -->

<svg
   xmlns:dc="http://purl.org/dc/elements/1.1/"
   xmlns:cc="http://creativecommons.org/ns#"
   xmlns:rdf="http://www.w3.org/1999/02/22-rdf-syntax-ns#"
   xmlns:svg="http://www.w3.org/2000/svg"
   xmlns="http://www.w3.org/2000/svg"
   xmlns:sodipodi="http://sodipodi.sourceforge.net/DTD/sodipodi-0.dtd"
   xmlns:inkscape="http://www.inkscape.org/namespaces/inkscape"
   version="1.1"
   id="Capa_1"
   x="0px"
   y="0px"
   viewBox="0 0 512 512"
   style="enable-background:new 0 0 512 512;"
   xml:space="preserve"
   width="57px"
   height="57px"
   sodipodi:docname="head-i-1.svg"
   inkscape:version="0.92.1 r15371"><metadata
     id="metadata55"><rdf:RDF><cc:Work
         rdf:about=""><dc:format>image/svg+xml</dc:format><dc:type
           rdf:resource="http://purl.org/dc/dcmitype/StillImage" /><dc:title></dc:title></cc:Work></rdf:RDF></metadata><defs
     id="defs53" /><sodipodi:namedview
     pagecolor="#ffffff"
     bordercolor="#666666"
     borderopacity="1"
     objecttolerance="10"
     gridtolerance="10"
     guidetolerance="10"
     inkscape:pageopacity="0"
     inkscape:pageshadow="2"
     inkscape:window-width="640"
     inkscape:window-height="480"
     id="namedview51"
     showgrid="false"
     inkscape:zoom="0.4609375"
     inkscape:cx="256"
     inkscape:cy="256"
     inkscape:window-x="0"
     inkscape:window-y="0"
     inkscape:window-maximized="0"
     inkscape:current-layer="Capa_1" /><g
     id="g6"><g
       id="g4"><path
         d="M390.008,214.017h-232c-19.752,0-36.353,13.709-40.813,32.11h-10.902V20c0-11.028-8.972-20-20-20H20C8.972,0,0,8.972,0,20    v236.127c0,0.227,0.019,0.449,0.034,0.673c0.007,0.102,0.005,0.203,0.015,0.305c0.036,0.365,0.09,0.725,0.164,1.078    c0,0,0,0.001,0,0.002l20.393,96.986C25.513,378.502,28,402.42,28,426.262V502c0,5.522,4.477,10,10,10h300.435    c5.523,0,10-4.478,10-10V395.354c49.696-26.652,83.573-79.11,83.573-139.337C432.008,232.857,413.167,214.017,390.008,214.017z     M158.008,234.017h232c8.532,0,15.946,4.882,19.593,12H138.415C142.062,238.898,149.476,234.017,158.008,234.017z M20,246.127V20    h66.293v226.127H20z M274.008,394.017c-5.523,0-10,4.478-10,10c0,5.522,4.477,10,10,10c19.117,0,37.451-3.415,54.427-9.663V492H48    v-65.738c0-25.222-2.631-50.524-7.821-75.206L29.444,300h219.732c5.523,0,10-4.478,10-10c0-5.522-4.477-10-10-10H28.193    c-0.997,0-1.958,0.15-2.866,0.422l-3.006-14.295l389.329-0.11C406.509,337.46,346.739,394.017,274.008,394.017z"
         fill="#93bd16"
         id="path2" /></g></g><g
     id="g12"><g
       id="g10"><path
         d="M281.834,280h-0.13c-5.523,0-10,4.478-10,10c0,5.522,4.477,10,10,10h0.13c5.523,0,10-4.478,10-10    C291.834,284.478,287.357,280,281.834,280z"
         fill="#93bd16"
         id="path8" /></g></g><g
     id="g18"><g
       id="g16"><path
         d="M502,0c-5.523,0-10,4.478-10,10v62h-3c-0.309,0-0.614,0.019-0.917,0.046V60.333c0-16.542-13.458-30-30-30h-76.042    c-16.542,0-30,13.458-30,30V72H348V54.417c0-5.522-4.477-10-10-10s-10,4.478-10,10V82c0,5.522,4.477,10,10,10h14.042v79    c0,5.522,4.477,10,10,10h116.042c5.523,0,10-4.478,10-10V91.954C488.386,91.981,488.691,92,489,92h13c5.523,0,10-4.478,10-10V10    C512,4.478,507.523,0,502,0z M468.084,161h-96.042v-19.657c3.13,1.11,6.494,1.72,10,1.72h76.042c3.506,0,6.87-0.61,10-1.72V161z     M468.084,95.667v17.396c0,5.514-4.486,10-10,10h-76.042c-5.514,0-10-4.486-10-10V95.667V60.333c0-5.514,4.486-10,10-10h76.042    c5.514,0,10,4.486,10,10V95.667z"
         fill="#93bd16"
         id="path14" /></g></g><g
     id="g20" /><g
     id="g22" /><g
     id="g24" /><g
     id="g26" /><g
     id="g28" /><g
     id="g30" /><g
     id="g32" /><g
     id="g34" /><g
     id="g36" /><g
     id="g38" /><g
     id="g40" /><g
     id="g42" /><g
     id="g44" /><g
     id="g46" /><g
     id="g48" /></svg>