<?xml version="1.0" encoding="UTF-8" standalone="no"?>
<!-- Generator: Adobe Illustrator 17.1.0, SVG Export Plug-In . SVG Version: 6.00 Build 0)  -->

<svg
   xmlns:dc="http://purl.org/dc/elements/1.1/"
   xmlns:cc="http://creativecommons.org/ns#"
   xmlns:rdf="http://www.w3.org/1999/02/22-rdf-syntax-ns#"
   xmlns:svg="http://www.w3.org/2000/svg"
   xmlns="http://www.w3.org/2000/svg"
   xmlns:sodipodi="http://sodipodi.sourceforge.net/DTD/sodipodi-0.dtd"
   xmlns:inkscape="http://www.inkscape.org/namespaces/inkscape"
   version="1.1"
   id="Capa_1"
   x="0px"
   y="0px"
   viewBox="0 0 250.931 252.89474"
   xml:space="preserve"
   width="31"
   height="57"
   sodipodi:docname="head-i-3.svg"
   inkscape:version="0.92.1 r15371"><metadata
     id="metadata39"><rdf:RDF><cc:Work
         rdf:about=""><dc:format>image/svg+xml</dc:format><dc:type
           rdf:resource="http://purl.org/dc/dcmitype/StillImage" /><dc:title></dc:title></cc:Work></rdf:RDF></metadata><defs
     id="defs37" /><sodipodi:namedview
     pagecolor="#ffffff"
     bordercolor="#666666"
     borderopacity="1"
     objecttolerance="10"
     gridtolerance="10"
     guidetolerance="10"
     inkscape:pageopacity="0"
     inkscape:pageshadow="2"
     inkscape:window-width="1366"
     inkscape:window-height="715"
     id="namedview35"
     showgrid="false"
     inkscape:zoom="5.2149125"
     inkscape:cx="94.720474"
     inkscape:cy="8.7844478"
     inkscape:window-x="-8"
     inkscape:window-y="-8"
     inkscape:window-maximized="1"
     inkscape:current-layer="Capa_1"
     fit-margin-top="0"
     fit-margin-left="0"
     fit-margin-right="0"
     fit-margin-bottom="0" /><path
     d="m 243.431,41.909361 h -89.146 v -140.462 c 0,-4.142991 -3.357,-7.499991 -7.5,-7.499991 h -42.639 c -4.142,0 -7.5,3.357 -7.5,7.499991 v 140.462 H 7.5000004 C 3.358,41.909361 0,45.266361 0,49.409361 V 315.86037 c 0,4.143 3.358,7.5 7.5000004,7.5 H 96.646 v 20.587 H 48.82 c -4.142,0 -7.5,3.357 -7.5,7.5 0,4.143 3.358,7.5 7.5,7.5 h 153.291 c 4.143,0 7.5,-3.357 7.5,-7.5 0,-4.143 -3.357,-7.5 -7.5,-7.5 h -47.826 v -20.587 h 89.146 c 4.143,0 7.5,-3.357 7.5,-7.5 V 49.409361 c 0,-4.143 -3.358,-7.5 -7.5,-7.5 z m -131.784,-132.962 h 27.639 v 132.962 h -27.639 z m 27.638,435.000009 h -27.639 v -20.587 h 27.639 z m 96.646,-35.587 h -61.644 v -22.5 c 0,-4.143 -3.357,-7.5 -7.5,-7.5 -4.143,0 -7.5,3.357 -7.5,7.5 v 22.5 H 91.644 v -198.951 c 0,-4.143 -3.358,-7.5 -7.5,-7.5 -4.142,0 -7.5,3.357 -7.5,7.5 v 198.951 H 15.001 V 56.909361 h 61.643 v 22.5 c 0,4.143 3.358,7.5 7.5,7.5 4.142,0 7.5,-3.357 7.5,-7.5 v -22.5 h 67.643 V 255.86037 c 0,4.143 3.357,7.5 7.5,7.5 4.143,0 7.5,-3.357 7.5,-7.5 V 56.909361 h 61.644 z"
     id="path2"
     inkscape:connector-curvature="0"
     style="fill:#93bd16" /><g
     id="g4"
     transform="translate(-109.91037,-195.22)" /><g
     id="g6"
     transform="translate(-109.91037,-195.22)" /><g
     id="g8"
     transform="translate(-109.91037,-195.22)" /><g
     id="g10"
     transform="translate(-109.91037,-195.22)" /><g
     id="g12"
     transform="translate(-109.91037,-195.22)" /><g
     id="g14"
     transform="translate(-109.91037,-195.22)" /><g
     id="g16"
     transform="translate(-109.91037,-195.22)" /><g
     id="g18"
     transform="translate(-109.91037,-195.22)" /><g
     id="g20"
     transform="translate(-109.91037,-195.22)" /><g
     id="g22"
     transform="translate(-109.91037,-195.22)" /><g
     id="g24"
     transform="translate(-109.91037,-195.22)" /><g
     id="g26"
     transform="translate(-109.91037,-195.22)" /><g
     id="g28"
     transform="translate(-109.91037,-195.22)" /><g
     id="g30"
     transform="translate(-109.91037,-195.22)" /><g
     id="g32"
     transform="translate(-109.91037,-195.22)" /></svg>