<?xml version="1.0" encoding="UTF-8" standalone="no"?>
<svg
   xmlns:dc="http://purl.org/dc/elements/1.1/"
   xmlns:cc="http://creativecommons.org/ns#"
   xmlns:rdf="http://www.w3.org/1999/02/22-rdf-syntax-ns#"
   xmlns:svg="http://www.w3.org/2000/svg"
   xmlns="http://www.w3.org/2000/svg"
   xml:space="preserve"
   style="enable-background:new 0 0 477 477;"
   viewBox="0 0 477 477"
   height="42px"
   width="35px"
   y="0px"
   x="0px"
   id="Capa_1"
   version="1.1"><metadata
     id="metadata45"><rdf:RDF><cc:Work
         rdf:about=""><dc:format>image/svg+xml</dc:format><dc:type
           rdf:resource="http://purl.org/dc/dcmitype/StillImage" /><dc:title></dc:title></cc:Work></rdf:RDF></metadata><defs
     id="defs43" /><g
     id="g8"><g
       id="g6"><path
         id="path2"
         d="M238.4,0C133,0,47.2,85.8,47.2,191.2c0,12,1.1,24.1,3.4,35.9c0.1,0.7,0.5,2.8,1.3,6.4c2.9,12.9,7.2,25.6,12.8,37.7    c20.6,48.5,65.9,123,165.3,202.8c2.5,2,5.5,3,8.5,3s6-1,8.5-3c99.3-79.8,144.7-154.3,165.3-202.8c5.6-12.1,9.9-24.7,12.8-37.7    c0.8-3.6,1.2-5.7,1.3-6.4c2.2-11.8,3.4-23.9,3.4-35.9C429.6,85.8,343.8,0,238.4,0z M399.6,222.4c0,0.2-0.1,0.4-0.1,0.6    c-0.1,0.5-0.4,2-0.9,4.3c0,0.1,0,0.1,0,0.2c-2.5,11.2-6.2,22.1-11.1,32.6c-0.1,0.1-0.1,0.3-0.2,0.4    c-18.7,44.3-59.7,111.9-148.9,185.6c-89.2-73.7-130.2-141.3-148.9-185.6c-0.1-0.1-0.1-0.3-0.2-0.4c-4.8-10.4-8.5-21.4-11.1-32.6    c0-0.1,0-0.1,0-0.2c-0.6-2.3-0.8-3.8-0.9-4.3c0-0.2-0.1-0.4-0.1-0.7c-2-10.3-3-20.7-3-31.2c0-90.5,73.7-164.2,164.2-164.2    s164.2,73.7,164.2,164.2C402.6,201.7,401.6,212.2,399.6,222.4z"  style="fill: #6b91ab;"/><path
         id="path4"
         d="M238.4,71.9c-66.9,0-121.4,54.5-121.4,121.4s54.5,121.4,121.4,121.4s121.4-54.5,121.4-121.4S305.3,71.9,238.4,71.9z     M238.4,287.7c-52.1,0-94.4-42.4-94.4-94.4s42.4-94.4,94.4-94.4s94.4,42.4,94.4,94.4S290.5,287.7,238.4,287.7z" style="fill: #6b91ab;" /></g></g><g
     id="g10" /><g
     id="g12" /><g
     id="g14" /><g
     id="g16" /><g
     id="g18" /><g
     id="g20" /><g
     id="g22" /><g
     id="g24" /><g
     id="g26" /><g
     id="g28" /><g
     id="g30" /><g
     id="g32" /><g
     id="g34" /><g
     id="g36" /><g
     id="g38" /></svg>