<?xml version="1.0" encoding="UTF-8" standalone="no"?>
<svg
   xmlns:dc="http://purl.org/dc/elements/1.1/"
   xmlns:cc="http://creativecommons.org/ns#"
   xmlns:rdf="http://www.w3.org/1999/02/22-rdf-syntax-ns#"
   xmlns:svg="http://www.w3.org/2000/svg"
   xmlns="http://www.w3.org/2000/svg"
   xmlns:sodipodi="http://sodipodi.sourceforge.net/DTD/sodipodi-0.dtd"
   xmlns:inkscape="http://www.inkscape.org/namespaces/inkscape"
   enable-background="new 0 0 50 50"
   height="50px"
   id="Layer_1"
   version="1.1"
   viewBox="0 0 50 50"
   width="50px"
   xml:space="preserve"
   sodipodi:docname="pay-2.svg"
   inkscape:version="0.92.1 r15371"><metadata
     id="metadata29"><rdf:RDF><cc:Work
         rdf:about=""><dc:format>image/svg+xml</dc:format><dc:type
           rdf:resource="http://purl.org/dc/dcmitype/StillImage" /><dc:title></dc:title></cc:Work></rdf:RDF></metadata><defs
     id="defs27" /><sodipodi:namedview
     pagecolor="#ffffff"
     bordercolor="#666666"
     borderopacity="1"
     objecttolerance="10"
     gridtolerance="10"
     guidetolerance="10"
     inkscape:pageopacity="0"
     inkscape:pageshadow="2"
     inkscape:window-width="640"
     inkscape:window-height="480"
     id="namedview25"
     showgrid="false"
     inkscape:zoom="4.72"
     inkscape:cx="25"
     inkscape:cy="25"
     inkscape:window-x="0"
     inkscape:window-y="0"
     inkscape:window-maximized="0"
     inkscape:current-layer="Layer_1" /><rect   fill="#edf3f7"
     fill="none"
     height="50"
     width="50"
     id="rect2" /><ellipse   fill="#edf3f7"
     cx="35"
     cy="6"
     fill="none"
     rx="14"
     ry="5"
     stroke="#000000"
     stroke-linecap="round"
     stroke-linejoin="round"
     stroke-miterlimit="10"
     stroke-width="2"
     id="ellipse4" /><path   fill="#edf3f7"
     d="  M21,7c0,0.912,0,5.088,0,6c0,2.761,6.266,5,14,5s14-2.239,14-5c0-0.912,0-5.088,0-6"
     fill="none"
     stroke="#000000"
     stroke-linecap="round"
     stroke-linejoin="round"
     stroke-miterlimit="10"
     stroke-width="2"
     id="path6" /><path   fill="#edf3f7"
     d="  M28.55,24.439C30.48,24.797,32.674,25,35,25c7.734,0,14-2.239,14-5c0-0.912,0-5.088,0-6"
     fill="none"
     stroke="#000000"
     stroke-linecap="round"
     stroke-linejoin="round"
     stroke-miterlimit="10"
     stroke-width="2"
     id="path8" /><path   fill="#edf3f7"
     d="  M21,14c0,0.912,0,4.27,0,4.27"
     fill="none"
     stroke="#000000"
     stroke-linecap="round"
     stroke-linejoin="round"
     stroke-miterlimit="10"
     stroke-width="2"
     id="path10" /><path   fill="#edf3f7"
     d="  M29.025,31.523C30.837,31.829,32.862,32,35,32c7.734,0,14-2.238,14-5c0-0.912,0-5.088,0-6"
     fill="none"
     stroke="#000000"
     stroke-linecap="round"
     stroke-linejoin="round"
     stroke-miterlimit="10"
     stroke-width="2"
     id="path12" /><path   fill="#edf3f7"
     d="  M28.948,38.51C30.779,38.824,32.832,39,35,39c7.734,0,14-2.238,14-5c0-0.912,0-5.088,0-6"
     fill="none"
     stroke="#000000"
     stroke-linecap="round"
     stroke-linejoin="round"
     stroke-miterlimit="10"
     stroke-width="2"
     id="path14" /><ellipse   fill="#edf3f7"
     cx="15"
     cy="23"
     fill="none"
     rx="14"
     ry="5"
     stroke="#000000"
     stroke-linecap="round"
     stroke-linejoin="round"
     stroke-miterlimit="10"
     stroke-width="2"
     id="ellipse16" /><path   fill="#edf3f7"
     d="  M1,24c0,0.912,0,5.088,0,6c0,2.762,6.266,5,14,5s14-2.238,14-5c0-0.912,0-5.088,0-6"
     fill="none"
     stroke="#000000"
     stroke-linecap="round"
     stroke-linejoin="round"
     stroke-miterlimit="10"
     stroke-width="2"
     id="path18" /><path   fill="#edf3f7"
     d="  M1,31c0,0.912,0,5.088,0,6c0,2.762,6.266,5,14,5s14-2.238,14-5c0-0.912,0-5.088,0-6"
     fill="none"
     stroke="#000000"
     stroke-linecap="round"
     stroke-linejoin="round"
     stroke-miterlimit="10"
     stroke-width="2"
     id="path20" /><path   fill="#edf3f7"
     d="  M1,38c0,0.912,0,5.088,0,6c0,2.762,6.266,5,14,5s14-2.238,14-5c0-0.912,0-5.088,0-6"
     fill="none"
     stroke="#000000"
     stroke-linecap="round"
     stroke-linejoin="round"
     stroke-miterlimit="10"
     stroke-width="2"
     id="path22" /></svg>