<?xml version="1.0" encoding="UTF-8" standalone="no"?>
<svg
   xmlns:dc="http://purl.org/dc/elements/1.1/"
   xmlns:cc="http://creativecommons.org/ns#"
   xmlns:rdf="http://www.w3.org/1999/02/22-rdf-syntax-ns#"
   xmlns:svg="http://www.w3.org/2000/svg"
   xmlns="http://www.w3.org/2000/svg"
   xmlns:sodipodi="http://sodipodi.sourceforge.net/DTD/sodipodi-0.dtd"
   xmlns:inkscape="http://www.inkscape.org/namespaces/inkscape"
   enable-background="new 0 0 48 48"
   height="40.438"
   id="Layer_1"
   version="1.1"
   viewBox="0 0 46 40.438"
   width="46"
   xml:space="preserve"
   sodipodi:docname="pay-4.svg"
   inkscape:version="0.92.1 r15371"><metadata
     id="metadata9"><rdf:RDF><cc:Work
         rdf:about=""><dc:format>image/svg+xml</dc:format><dc:type
           rdf:resource="http://purl.org/dc/dcmitype/StillImage" /><dc:title></dc:title></cc:Work></rdf:RDF></metadata><defs
     id="defs7" /><sodipodi:namedview
     pagecolor="#ffffff"
     bordercolor="#666666"
     borderopacity="1"
     objecttolerance="10"
     gridtolerance="10"
     guidetolerance="10"
     inkscape:pageopacity="0"
     inkscape:pageshadow="2"
     inkscape:window-width="640"
     inkscape:window-height="480"
     id="namedview5"
     showgrid="false"
     inkscape:zoom="4.9166667"
     inkscape:cx="23"
     inkscape:cy="20.438"
     inkscape:window-x="0"
     inkscape:window-y="0"
     inkscape:window-maximized="0"
     inkscape:current-layer="Layer_1"
     fit-margin-top="0"
     fit-margin-left="0"
     fit-margin-right="0"
     fit-margin-bottom="0" /><path
     d="M 45,40.438 H 1 c -0.553,0 -1,-0.447 -1,-1 0,-0.553 0.447,-1 1,-1 h 44 c 0.553,0 1,0.447 1,1 0,0.553 -0.447,1 -1,1 z m -30,-10 c 0.553,0 1,0.447 1,1 0,0.553 -0.447,1 -1,1 H 7 c -0.553,0 -1,-0.447 -1,-1 0,-0.553 0.447,-1 1,-1 h 1 v -13 H 7 c -0.553,0 -1,-0.447 -1,-1 0,-0.552 0.447,-1 1,-1 h 8 c 0.553,0 1,0.448 1,1 0,0.553 -0.447,1 -1,1 h -1 v 13 z m -3,-13 h -2 v 13 h 2 z m 15,13 c 0.553,0 1,0.447 1,1 0,0.553 -0.447,1 -1,1 h -8 c -0.553,0 -1,-0.447 -1,-1 0,-0.553 0.447,-1 1,-1 h 1 v -13 h -1 c -0.553,0 -1,-0.447 -1,-1 0,-0.552 0.447,-1 1,-1 h 8 c 0.553,0 1,0.448 1,1 0,0.553 -0.447,1 -1,1 h -1 v 13 z m -3,-13 h -2 v 13 h 2 z m 19,18 c 0,0.553 -0.447,1 -1,1 H 4 c -0.553,0 -1,-0.447 -1,-1 0,-0.553 0.447,-1 1,-1 h 38 c 0.553,0 1,0.447 1,1 z m -4,-5 c 0.553,0 1,0.447 1,1 0,0.553 -0.447,1 -1,1 h -8 c -0.553,0 -1,-0.447 -1,-1 0,-0.553 0.447,-1 1,-1 h 1 v -13 h -1 c -0.553,0 -1,-0.447 -1,-1 0,-0.552 0.447,-1 1,-1 h 8 c 0.553,0 1,0.448 1,1 0,0.553 -0.447,1 -1,1 h -1 v 13 z m -3,-13 h -2 v 13 h 2 z M 2,11.438 23,0 44,11.438 v 2 H 2 Z m 37.541,0 L 23,2.886 6.396,11.438 Z"
     id="path2"
     inkscape:connector-curvature="0"
     style="clip-rule:evenodd;fill:#edf3f7;fill-rule:evenodd" /></svg>