<?xml version="1.0" encoding="UTF-8" standalone="no"?>
<!-- Created with Inkscape (http://www.inkscape.org/) -->

<svg
   xmlns:dc="http://purl.org/dc/elements/1.1/"
   xmlns:cc="http://creativecommons.org/ns#"
   xmlns:rdf="http://www.w3.org/1999/02/22-rdf-syntax-ns#"
   xmlns:svg="http://www.w3.org/2000/svg"
   xmlns="http://www.w3.org/2000/svg"
   xmlns:sodipodi="http://sodipodi.sourceforge.net/DTD/sodipodi-0.dtd"
   xmlns:inkscape="http://www.inkscape.org/namespaces/inkscape"
   width="210mm"
   height="297mm"
   viewBox="0 0 210 297"
   version="1.1"
   id="svg8"
   inkscape:version="0.92.1 r15371"
   sodipodi:docname="pay-5.svg">
  <defs
     id="defs2" />
  <sodipodi:namedview
     id="base"
     pagecolor="#ffffff"
     bordercolor="#666666"
     borderopacity="1.0"
     inkscape:pageopacity="0.0"
     inkscape:pageshadow="2"
     inkscape:zoom="1.4"
     inkscape:cx="346.36222"
     inkscape:cy="601.79645"
     inkscape:document-units="mm"
     inkscape:current-layer="layer1"
     showgrid="false"
     inkscape:window-width="1920"
     inkscape:window-height="1027"
     inkscape:window-x="1358"
     inkscape:window-y="-8"
     inkscape:window-maximized="1" />
  <metadata
     id="metadata5">
    <rdf:RDF>
      <cc:Work
         rdf:about="">
        <dc:format>image/svg+xml</dc:format>
        <dc:type
           rdf:resource="http://purl.org/dc/dcmitype/StillImage" />
        <dc:title></dc:title>
      </cc:Work>
    </rdf:RDF>
  </metadata>
  <g
     inkscape:label="Layer 1"
     inkscape:groupmode="layer"
     id="layer1">
    <path
       style="fill:#000000;stroke-width:0.08466666"
       d="m 129.11837,172.22076 -0.23755,-0.20433 v -4.19151 -4.19151 l 0.20526,-0.21849 0.20525,-0.21849 h 21.89915 21.89915 l 0.20526,0.21849 0.20525,0.21849 v 4.19151 4.19151 l -0.23755,0.20433 -0.23756,0.20434 h -21.83455 -21.83455 z m 5.41155,-15.36598 c -2.01533,-0.78418 -3.73935,-1.49376 -3.83117,-1.57685 -0.0948,-0.0858 -0.16693,-0.25981 -0.16693,-0.40273 0,-0.25111 13.14574,-36.38979 13.85058,-38.07634 1.18343,-2.83175 2.67488,-4.32876 4.90308,-4.92136 0.97116,-0.25828 2.84573,-0.2573 3.81,0.002 2.2098,0.59424 3.63846,2.00558 4.82422,4.76573 0.20752,0.48307 1.29589,3.39183 2.41859,6.46392 9.26161,25.34294 11.51085,31.55011 11.51085,31.76615 0,0.15087 -0.0747,0.3147 -0.1905,0.41758 -0.20923,0.18594 -7.38916,2.99288 -7.65556,2.99288 -0.0909,0 -0.24323,-0.0726 -0.33844,-0.16127 -0.18342,-0.17088 -0.20392,-0.22427 -2.08347,-5.42673 l -1.20825,-3.34433 h -9.17031 -9.17031 l -1.22058,3.34433 c -0.67131,1.83939 -1.37846,3.77659 -1.57143,4.30489 -0.35925,0.98356 -0.5645,1.28509 -0.8716,1.28051 -0.096,-0.001 -1.82344,-0.64421 -3.83877,-1.42838 z m 22.90509,-15.77751 c -0.0214,-0.0582 -1.4193,-4.24921 -3.10644,-9.31334 -1.68714,-5.06412 -3.10102,-9.2075 -3.14194,-9.2075 -0.0409,0 -1.45182,4.16243 -3.13531,9.24984 -1.68349,5.0874 -3.07782,9.2784 -3.09852,9.31333 -0.0207,0.0349 2.78808,0.0635 6.24174,0.0635 4.98783,0 6.27139,-0.0218 6.24047,-0.10583 z"
       id="path3691"
       inkscape:connector-curvature="0" />
  </g>
</svg>
