<?xml version="1.0" encoding="UTF-8" standalone="no"?>
<svg
   xmlns:dc="http://purl.org/dc/elements/1.1/"
   xmlns:cc="http://creativecommons.org/ns#"
   xmlns:rdf="http://www.w3.org/1999/02/22-rdf-syntax-ns#"
   xmlns:svg="http://www.w3.org/2000/svg"
   xmlns="http://www.w3.org/2000/svg"
   xmlns:sodipodi="http://sodipodi.sourceforge.net/DTD/sodipodi-0.dtd"
   xmlns:inkscape="http://www.inkscape.org/namespaces/inkscape"
   height="35"
   width="25"
   xml:space="preserve"
   viewBox="0 0 351.68241 365.71495"
   y="0px"
   x="0px"
   id="Capa_1"
   version="1.1"
   sodipodi:docname="prod-1.svg"
   inkscape:version="0.92.1 r15371"><sodipodi:namedview
     pagecolor="#ffffff"
     bordercolor="#666666"
     borderopacity="1"
     objecttolerance="10"
     gridtolerance="10"
     guidetolerance="10"
     inkscape:pageopacity="0"
     inkscape:pageshadow="2"
     inkscape:window-width="640"
     inkscape:window-height="604"
     id="namedview26"
     showgrid="false"
     fit-margin-top="0"
     fit-margin-left="0"
     fit-margin-right="0"
     fit-margin-bottom="0"
     inkscape:zoom="13.485714"
     inkscape:cx="8.2244748"
     inkscape:cy="11.177602"
     inkscape:window-x="0"
     inkscape:window-y="0"
     inkscape:window-maximized="0"
     inkscape:current-layer="Capa_1" /><metadata
     id="metadata49"><rdf:RDF><cc:Work
         rdf:about=""><dc:format>image/svg+xml</dc:format><dc:type
           rdf:resource="http://purl.org/dc/dcmitype/StillImage" /><dc:title></dc:title></cc:Work></rdf:RDF></metadata><defs
     id="defs47" /><g
     id="g6"
     transform="translate(-80.160981,-102.40067)"><g
       id="g4"><path
         id="path2"
         d="m 207.9,376.757 h -32.064 c -4.142,0 -7.5,3.358 -7.5,7.5 0,4.143 3.358,7.5 7.5,7.5 H 207.9 c 4.142,0 7.5,-3.357 7.5,-7.5 0.001,-4.141 -3.357,-7.5 -7.5,-7.5 z"
         inkscape:connector-curvature="0"
         style="fill:#578f2f" /></g></g><g
     id="g12"
     transform="translate(-77.123675,-70.508958)"><g
       id="g10"><path
         id="path8"
         d="M 396.248,284.958 349.379,266.879 325.43,242.93 c -1.59,-1.59 -3.726,-2.32 -5.819,-2.176 v -20.429 c 11.319,-11.955 19.358,-27.167 22.51,-44.331 0.042,-0.154 0.293,-0.407 0.466,-0.477 2.093,0.144 4.211,0.001 6.3,-0.426 10.905,-2.232 18.821,-12.369 18.821,-24.103 v -6.247 c 0,-7.005 -2.929,-13.417 -7.664,-17.89 7.71,-41.146 1.607,-74.633 -17.723,-96.956 C 323.743,8.445 293.752,-1.803 255.593,0.26 c -35.82,1.936 -58.699,18.619 -65.494,24.287 -9.546,1.191 -37.794,8.042 -37.794,47.331 0,22.229 3.676,40.634 6.168,50.562 -8.454,3.709 -14.184,12.394 -14.184,22.396 v 6.153 c 0,11.733 7.916,21.87 18.821,24.103 2.089,0.428 4.209,0.571 6.3,0.426 0.172,0.07 0.424,0.322 0.464,0.469 3.153,17.167 11.193,32.381 22.512,44.337 v 20.43 c -2.094,-0.144 -4.23,0.587 -5.819,2.176 l -23.948,23.948 -46.869,18.079 c -22.213,8.568 -36.498,30.308 -35.544,54.097 L 86.844,504.8 c 0.162,4.037 3.485,7.2 7.489,7.2 0.102,0 0.204,-0.002 0.306,-0.006 4.139,-0.166 7.359,-3.655 7.194,-7.794 L 95.195,338.454 C 95,333.593 95.678,328.85 97.109,324.401 l 27.275,27.275 c 7.668,7.668 11.891,17.863 11.891,28.707 v 124.118 c 0,4.142 3.358,7.5 7.5,7.5 4.142,0 7.5,-3.358 7.5,-7.5 v -124.12 c 0,-14.85 -5.783,-28.812 -16.284,-39.313 l -30.334,-30.333 c 4.314,-5.144 9.929,-9.251 16.493,-11.783 l 44.1,-17.01 33.582,50.374 c 3.926,5.89 10.218,9.667 17.262,10.364 0.784,0.078 1.566,0.116 2.344,0.116 4.746,0 9.338,-1.432 13.226,-4.088 l -7.204,165.465 c -0.18,4.138 3.028,7.639 7.167,7.819 0.111,0.005 0.222,0.007 0.332,0.007 3.992,0 7.312,-3.146 7.487,-7.174 l 6.657,-152.898 h 19.798 l 6.657,152.898 c 0.175,4.027 3.495,7.174 7.487,7.174 0.11,0 0.221,-0.002 0.332,-0.007 4.138,-0.181 7.347,-3.681 7.167,-7.819 L 280.34,338.71 c 3.887,2.657 8.479,4.088 13.226,4.088 0.778,0 1.561,-0.039 2.344,-0.116 7.043,-0.697 13.335,-4.475 17.262,-10.364 l 33.582,-50.374 44.1,17.01 c 6.564,2.532 12.179,6.64 16.493,11.783 l -30.334,30.333 c -10.501,10.501 -16.284,24.463 -16.284,39.313 v 124.118 c 0,4.142 3.358,7.5 7.5,7.5 4.142,0 7.5,-3.358 7.5,-7.5 V 380.383 c 0,-10.844 4.223,-21.039 11.891,-28.707 l 27.275,-27.275 c 1.431,4.449 2.109,9.192 1.914,14.053 L 410.172,504.2 c -0.166,4.139 3.055,7.628 7.194,7.794 0.103,0.004 0.204,0.006 0.306,0.006 4.003,0 7.327,-3.163 7.489,-7.2 l 6.638,-165.745 c 0.947,-23.789 -13.338,-45.529 -35.551,-54.097 z M 184.622,173.275 c -1.411,-7.699 -8.531,-13.286 -16.219,-12.724 -0.748,0.055 -1.517,0.002 -2.287,-0.155 -3.894,-0.797 -6.83,-4.841 -6.83,-9.407 v -6.153 c 0,-4.552 2.979,-8.508 6.93,-9.202 3.256,-0.571 6.384,0.628 8.363,3.208 1.436,1.873 3.348,3.211 5.53,3.871 3.196,0.965 6.721,0.399 9.429,-1.513 6.56,-4.63 12.121,-10.504 16.527,-17.458 2.217,-3.499 1.179,-8.132 -2.32,-10.35 -3.499,-2.217 -8.133,-1.178 -10.35,2.32 -2.681,4.23 -5.911,7.926 -9.629,11.024 -2.88,-2.662 -6.357,-4.527 -10.102,-5.488 -2.17,-8.086 -6.362,-26.649 -6.362,-49.369 0,-31.292 23.298,-32.542 25.9,-32.581 1.938,0 3.8,-0.75 5.197,-2.093 0.208,-0.199 21.187,-19.977 58,-21.967 33.359,-1.802 59.149,6.661 74.578,24.478 15.709,18.139 20.832,46.019 14.944,80.872 -2.7,-0.184 -5.784,0.019 -8.825,0.594 l -8.38,-20.123 c -1.438,-3.453 -5.208,-5.316 -8.823,-4.372 -0.801,0.209 -80.584,20.448 -114.202,-21.403 -2.593,-3.229 -7.313,-3.745 -10.544,-1.151 -3.229,2.594 -3.745,7.315 -1.15,10.544 33.965,42.287 102.014,32.345 123.299,27.978 l 6.563,15.758 c 2.473,5.941 8.799,9.186 15.042,7.716 2.758,-0.649 5.595,-0.73 6.866,-0.478 3.955,0.787 6.937,4.694 6.937,9.089 v 6.247 c 0,4.566 -2.936,8.61 -6.83,9.407 -0.77,0.158 -1.538,0.209 -2.286,0.155 -7.669,-0.564 -14.808,5.025 -16.222,12.726 -6.326,34.442 -36.342,59.441 -71.372,59.441 -35.029,0 -65.045,-24.999 -71.372,-59.441 z m 39.82,152.021 c -1.814,1.815 -4.317,2.712 -6.874,2.458 -2.554,-0.253 -4.835,-1.623 -6.259,-3.758 l -33.838,-50.758 14.739,-14.739 52.815,46.213 z m 22.31,11.632 0.579,-13.308 8.667,-8.667 8.666,8.667 0.579,13.308 z m 9.246,-42.546 -48.613,-42.536 v -18.874 c 13.997,9.349 30.76,14.747 48.613,14.747 17.853,0 34.616,-5.398 48.613,-14.746 v 18.873 z m 44.688,29.614 c -1.424,2.135 -3.705,3.505 -6.259,3.758 -2.557,0.255 -5.059,-0.644 -6.874,-2.458 l -20.583,-20.584 52.815,-46.213 14.739,14.739 z"
         inkscape:connector-curvature="0"
         style="fill:#578f2f" /></g></g><g
     id="g14"
     transform="translate(-80.160981,-102.40067)" /><g
     id="g16"
     transform="translate(-80.160981,-102.40067)" /><g
     id="g18"
     transform="translate(-80.160981,-102.40067)" /><g
     id="g20"
     transform="translate(-80.160981,-102.40067)" /><g
     id="g22"
     transform="translate(-80.160981,-102.40067)" /><g
     id="g24"
     transform="translate(-80.160981,-102.40067)" /><g
     id="g26"
     transform="translate(-80.160981,-102.40067)" /><g
     id="g28"
     transform="translate(-80.160981,-102.40067)" /><g
     id="g30"
     transform="translate(-80.160981,-102.40067)" /><g
     id="g32"
     transform="translate(-80.160981,-102.40067)" /><g
     id="g34"
     transform="translate(-80.160981,-102.40067)" /><g
     id="g36"
     transform="translate(-80.160981,-102.40067)" /><g
     id="g38"
     transform="translate(-80.160981,-102.40067)" /><g
     id="g40"
     transform="translate(-80.160981,-102.40067)" /><g
     id="g42"
     transform="translate(-80.160981,-102.40067)" /></svg>