<?xml version="1.0" encoding="UTF-8" standalone="no"?>
<svg
   xmlns:dc="http://purl.org/dc/elements/1.1/"
   xmlns:cc="http://creativecommons.org/ns#"
   xmlns:rdf="http://www.w3.org/1999/02/22-rdf-syntax-ns#"
   xmlns:svg="http://www.w3.org/2000/svg"
   xmlns="http://www.w3.org/2000/svg"
   height="35px"
   width="35px"
   xml:space="preserve"
   style="enable-background:new 0 0 512 512;"
   viewBox="0 0 512 512"
   y="0px"
   x="0px"
   id="Capa_1"
   version="1.1"><metadata
     id="metadata55"><rdf:RDF><cc:Work
         rdf:about=""><dc:format>image/svg+xml</dc:format><dc:type
           rdf:resource="http://purl.org/dc/dcmitype/StillImage" /><dc:title></dc:title></cc:Work></rdf:RDF></metadata><defs
     id="defs53" /><g
     id="g6"><g
       id="g4"><path
         id="path2"
         fill="#578F2F"
         d="M351,30h-57.5v-7.5C293.5,10.094,283.407,0,271,0h-30c-12.407,0-22.5,10.094-22.5,22.5V30H161    c-20.678,0-37.5,16.823-37.5,37.5v147c0,4.142,3.358,7.5,7.5,7.5h250c4.142,0,7.5-3.358,7.5-7.5v-147    C388.5,46.823,371.678,30,351,30z M233.5,22.5c0-4.135,3.364-7.5,7.5-7.5h30c4.136,0,7.5,3.365,7.5,7.5V30h-45V22.5z M373.5,207    h-235V67.5c0-12.406,10.093-22.5,22.5-22.5h190c12.407,0,22.5,10.094,22.5,22.5V207z" /></g></g><g
     id="g12"><g
       id="g10"><path
         id="path8"
         fill="#578F2F"
         d="M381,237H131c-12.407,0-22.5,10.094-22.5,22.5c0,9.828,6.337,18.199,15.137,21.256    c1.029,25.962,8.431,51.289,21.589,73.61c12.932,21.937,31.07,40.496,52.659,53.936l-13.313,95.158    c-0.301,2.149,0.345,4.324,1.769,5.961C187.766,511.06,189.83,512,192,512h130c2.196,0,4.282-0.962,5.707-2.633    c1.425-1.671,2.046-3.882,1.699-6.051l-15.2-95.07c21.548-13.435,39.655-31.974,52.568-53.879    c13.158-22.321,20.56-47.648,21.589-73.61c8.8-3.058,15.137-11.429,15.137-21.257C403.5,247.094,393.407,237,381,237z     M303.922,396.928H236c-4.142,0-7.5,3.358-7.5,7.5c0,4.142,3.358,7.5,7.5,7.5h63.604L313.206,497H200.622l12.806-91.533    c0.423-3.024-1.029-6.002-3.672-7.531C167.98,373.769,141.263,329.838,138.719,282h234.563    C370.772,329.19,344.729,372.563,303.922,396.928z M381,267H131c-4.136,0-7.5-3.365-7.5-7.5s3.364-7.5,7.5-7.5h250    c4.136,0,7.5,3.365,7.5,7.5S385.136,267,381,267z" /></g></g><g
     id="g18"><g
       id="g16"><path
         id="path14"
         fill="#578F2F"
         d="M351,60H161c-4.142,0-7.5,3.358-7.5,7.5c0,4.142,3.358,7.5,7.5,7.5h190c4.142,0,7.5-3.358,7.5-7.5    C358.5,63.358,355.142,60,351,60z" /></g></g><g
     id="g20" /><g
     id="g22" /><g
     id="g24" /><g
     id="g26" /><g
     id="g28" /><g
     id="g30" /><g
     id="g32" /><g
     id="g34" /><g
     id="g36" /><g
     id="g38" /><g
     id="g40" /><g
     id="g42" /><g
     id="g44" /><g
     id="g46" /><g
     id="g48" /></svg>