<?xml version="1.0" encoding="UTF-8" standalone="no"?>
<!-- Generator: Adobe Illustrator 18.0.0, SVG Export Plug-In . SVG Version: 6.00 Build 0)  -->

<svg
   xmlns:dc="http://purl.org/dc/elements/1.1/"
   xmlns:cc="http://creativecommons.org/ns#"
   xmlns:rdf="http://www.w3.org/1999/02/22-rdf-syntax-ns#"
   xmlns:svg="http://www.w3.org/2000/svg"
   xmlns="http://www.w3.org/2000/svg"
   xmlns:sodipodi="http://sodipodi.sourceforge.net/DTD/sodipodi-0.dtd"
   xmlns:inkscape="http://www.inkscape.org/namespaces/inkscape"
   version="1.1"
   id="Capa_1"
   x="0px"
   y="0px"
   viewBox="0 0 60 53.999999"
   xml:space="preserve"
   width="23"
   height="21"
   sodipodi:docname="prod-i-3.svg"
   inkscape:version="0.92.1 r15371"><metadata
     id="metadata39"><rdf:RDF><cc:Work
         rdf:about=""><dc:format>image/svg+xml</dc:format><dc:type
           rdf:resource="http://purl.org/dc/dcmitype/StillImage" /><dc:title></dc:title></cc:Work></rdf:RDF></metadata><defs
     id="defs37" /><sodipodi:namedview
     pagecolor="#ffffff"
     bordercolor="#666666"
     borderopacity="1"
     objecttolerance="10"
     gridtolerance="10"
     guidetolerance="10"
     inkscape:pageopacity="0"
     inkscape:pageshadow="2"
     inkscape:window-width="640"
     inkscape:window-height="480"
     id="namedview35"
     showgrid="false"
     fit-margin-top="0"
     fit-margin-left="0"
     fit-margin-right="0"
     fit-margin-bottom="0"
     inkscape:zoom="0.4609375"
     inkscape:cx="256"
     inkscape:cy="230.4"
     inkscape:window-x="0"
     inkscape:window-y="0"
     inkscape:window-maximized="0"
     inkscape:current-layer="Capa_1" /><path  fill="#a8c7d1"
     d="M 59.989,18 C 59.89,16.289 57.855,14.952 53.785,13.932 53.922,13.632 53.999,13.32 54,12.996 V 6 H 53.983 C 53.625,0.172 29.743,0 27,0 24.257,0 0.375,0.172 0.017,6 H 0 v 0.13 0 0 6.869 c 0.005,1.9 2.457,3.387 6.105,4.494 -0.05,0.166 -0.08,0.335 -0.09,0.507 H 6 v 0.13 0 0 6.857 C 2.07,25.999 0.107,27.317 0.01,29 H 0 v 0.13 0 0 6.869 c 0.003,1.323 1.196,2.445 3.148,3.38 C 3.075,39.581 3.028,39.788 3.015,40 H 3 v 0.13 0 0 6.869 c 0.008,3.326 7.497,5.391 15.818,6.355 0.061,0.012 0.117,0.037 0.182,0.037 0.019,0 0.035,-0.01 0.054,-0.011 1.604,0.181 3.234,0.322 4.847,0.423 0.034,0.004 0.064,0.02 0.099,0.02 0.019,0 0.034,-0.01 0.052,-0.011 C 26.1,53.937 28.115,54 30,54 c 1.885,0 3.9,-0.063 5.948,-0.188 0.018,0.001 0.034,0.011 0.052,0.011 0.035,0 0.065,-0.017 0.099,-0.02 1.613,-0.101 3.243,-0.241 4.847,-0.423 0.019,0 0.035,0.01 0.054,0.01 0.065,0 0.121,-0.025 0.182,-0.037 C 49.503,52.389 56.991,50.323 57,46.996 V 40 H 56.984 C 56.914,38.774 55.869,37.751 53.805,36.896 53.931,36.607 54,36.307 54,35.996 V 29.46 c 3.59,-1.104 5.995,-2.581 6,-4.464 V 18 Z M 7,15.674 v -4.831 c 0.934,0.252 1.938,0.482 3,0.691 v 4.881 C 9.877,16.389 9.75,16.363 9.63,16.337 9.098,16.22 8.579,16.098 8.083,15.969 7.705,15.872 7.346,15.773 7,15.674 Z m 44.771,-2.192 -0.028,-0.006 -0.364,0.283 C 50.851,14.17 50.04,14.586 49,14.988 v -4.757 c 1.189,-0.414 2.201,-0.873 3,-1.376 v 4.138 c 0,0.152 -0.08,0.316 -0.229,0.489 z M 25.175,35.983 c 0.275,0.005 0.55,0.009 0.825,0.012 v 4.998 C 25.806,40.991 25.612,40.991 25.419,40.988 25.331,40.987 25.246,40.984 25.159,40.983 24.701,40.975 24.245,40.964 23.792,40.95 23.736,40.948 23.68,40.946 23.624,40.944 23.079,40.926 22.538,40.903 22.001,40.877 v -4.992 c 1.002,0.047 2.009,0.078 3.016,0.096 0.052,0 0.105,10e-4 0.158,0.002 z M 28.984,35.98 C 29.991,35.961 30.998,35.93 32,35.884 v 4.993 c -0.214,0.011 -0.429,0.021 -0.646,0.03 -0.6,0.025 -1.209,0.046 -1.828,0.061 -0.146,0.004 -0.293,0.006 -0.44,0.009 -0.357,0.007 -0.723,0.009 -1.085,0.012 v -4.995 c 0.275,-0.003 0.55,-0.007 0.825,-0.012 0.052,0 0.105,-10e-4 0.158,-0.002 z m 5.682,4.728 c -0.22,0.017 -0.442,0.034 -0.666,0.05 v -4.987 c 1.014,-0.067 2.016,-0.147 3,-0.243 v 4.966 c -0.618,0.065 -1.25,0.126 -1.899,0.179 -0.145,0.013 -0.29,0.024 -0.435,0.035 z M 39,35.312 c 1.031,-0.124 2.032,-0.265 3,-0.422 v 4.91 c -0.942,0.166 -1.943,0.319 -3,0.458 z M 17.519,40.548 C 17.417,40.538 17.316,40.527 17.215,40.517 17.143,40.51 17.072,40.501 17,40.494 v -4.965 c 0.984,0.095 1.986,0.176 3,0.243 v 4.983 c -0.84,-0.06 -1.67,-0.128 -2.481,-0.207 z M 15,35.312 v 4.946 C 13.943,40.119 12.942,39.966 12,39.8 v -4.91 c 0.968,0.157 1.969,0.299 3,0.422 z m 29,4.102 v -4.881 c 1.062,-0.209 2.066,-0.439 3,-0.691 v 4.831 c -0.891,0.257 -1.894,0.506 -3,0.741 z M 25.175,12.983 c 0.275,0.005 0.55,0.009 0.825,0.012 v 4.993 C 24.654,17.975 23.316,17.94 22,17.874 v -4.989 c 1.002,0.047 2.009,0.078 3.016,0.096 0.053,0 0.106,10e-4 0.159,0.002 z M 28.984,12.98 C 29.991,12.961 30.998,12.93 32,12.884 v 4.989 c -0.17,0.008 -0.333,0.02 -0.504,0.028 -0.014,0.001 -0.028,0.001 -0.043,0.002 -0.671,0.03 -1.355,0.052 -2.048,0.068 -0.108,0.003 -0.216,0.004 -0.324,0.007 -0.356,0.007 -0.72,0.008 -1.081,0.012 v -4.995 c 0.275,-0.003 0.55,-0.007 0.825,-0.012 0.053,-0.001 0.106,-0.002 0.159,-0.003 z m 6,12 C 35.991,24.961 36.998,24.93 38,24.884 v 4.988 c -1.314,0.065 -2.65,0.101 -4,0.115 v -4.992 c 0.275,-0.003 0.55,-0.007 0.825,-0.012 0.053,-0.001 0.106,-0.002 0.159,-0.003 z m -9.637,4.729 C 24.707,29.659 24.082,29.604 23.472,29.543 23.341,29.53 23.21,29.516 23.08,29.503 23.053,29.5 23.027,29.496 23,29.494 v -4.966 c 0.984,0.095 1.986,0.176 3,0.243 v 4.984 c -0.081,-0.006 -0.167,-0.01 -0.248,-0.016 -0.136,-0.01 -0.271,-0.02 -0.405,-0.03 z M 19.145,28.992 C 18.749,28.929 18.377,28.861 18,28.795 v -4.904 c 0.968,0.157 1.969,0.298 3,0.422 v 4.946 c -0.612,-0.081 -1.211,-0.165 -1.786,-0.255 -0.023,-0.005 -0.046,-0.009 -0.069,-0.012 z m 12.03,-4.009 c 0.275,0.005 0.55,0.009 0.825,0.012 v 4.993 C 31.513,29.983 31.022,29.981 30.547,29.97 30.474,29.968 30.398,29.967 30.325,29.966 29.573,29.947 28.838,29.918 28.116,29.883 28.077,29.881 28.038,29.879 28,29.878 v -4.993 c 1.002,0.047 2.009,0.078 3.016,0.096 0.053,0 0.106,10e-4 0.159,0.002 z m 10.067,4.678 c -0.036,0.003 -0.071,0.006 -0.107,0.009 -0.373,0.031 -0.758,0.051 -1.136,0.078 V 24.77 c 1.014,-0.067 2.016,-0.147 3,-0.243 v 4.961 c -0.58,0.062 -1.16,0.123 -1.757,0.173 z M 17,17.49 v -4.962 c 0.984,0.095 1.986,0.176 3,0.243 v 4.978 C 18.982,17.676 17.978,17.593 17,17.49 Z m 20,-0.002 c -0.966,0.102 -1.966,0.191 -3,0.265 v -4.982 c 1.014,-0.067 2.016,-0.147 3,-0.243 z m 2,-5.176 c 1.031,-0.124 2.032,-0.265 3,-0.422 v 4.902 c -0.948,0.167 -1.946,0.321 -3,0.46 z m 5,4.095 v -4.873 c 1.062,-0.209 2.066,-0.439 3,-0.691 v 4.82 c -0.896,0.261 -1.905,0.51 -3,0.744 z M 15,12.312 v 4.941 C 14.802,17.227 14.596,17.206 14.4,17.179 14.272,17.161 14.15,17.142 14.024,17.124 13.446,17.041 12.881,16.952 12.327,16.859 12.216,16.84 12.109,16.82 12,16.801 v -4.91 c 0.968,0.156 1.969,0.298 3,0.421 z m 1,11.221 v 4.873 c -1.105,-0.237 -2.107,-0.489 -3,-0.751 v -4.813 c 0.934,0.252 1.938,0.483 3,0.691 z m 31.907,5.284 c -0.439,0.076 -0.882,0.151 -1.337,0.22 -0.261,0.04 -0.528,0.078 -0.796,0.116 -0.253,0.036 -0.516,0.067 -0.773,0.1 v -4.941 c 1.031,-0.124 2.032,-0.265 3,-0.422 v 4.91 c -0.032,0.006 -0.063,0.012 -0.094,0.017 z M 11,22.231 v 4.751 C 9.428,26.375 8.414,25.755 8.084,25.203 L 8.017,25.091 C 8.011,25.06 8.001,25.027 8,24.996 v -4.141 c 0.799,0.503 1.811,0.962 3,1.376 z m -1,12.302 v 4.881 C 9.082,39.219 8.235,39.014 7.464,38.804 7.342,38.77 7.216,38.737 7.097,38.702 7.064,38.692 7.033,38.683 7,38.674 v -4.831 c 0.934,0.251 1.938,0.482 3,0.69 z m 3,11 v 4.881 C 11.894,50.179 10.891,49.93 10,49.673 v -4.831 c 0.934,0.252 1.938,0.483 3,0.691 z m 2,0.358 c 0.968,0.157 1.969,0.298 3,0.422 v 4.946 C 16.943,51.12 15.942,50.967 15,50.801 Z m 5,0.637 c 0.984,0.095 1.986,0.176 3,0.243 v 4.987 c -1.039,-0.073 -2.039,-0.162 -3,-0.263 z m 5,0.356 c 1.002,0.047 2.009,0.078 3.016,0.096 0.053,0.001 0.106,0.002 0.158,0.003 0.275,0.005 0.55,0.009 0.825,0.012 v 4.999 c -1.382,-0.013 -2.716,-0.053 -4,-0.116 v -4.994 z m 6,0.11 c 0.275,-0.003 0.55,-0.007 0.825,-0.012 0.053,-10e-4 0.106,-0.002 0.159,-0.003 1.007,-0.019 2.014,-0.05 3.016,-0.096 v 4.993 c -1.284,0.063 -2.618,0.103 -4,0.116 z m 6,-0.223 c 1.014,-0.067 2.016,-0.147 3,-0.243 v 4.966 c -0.961,0.101 -1.961,0.19 -3,0.263 z m 5,-0.459 c 1.031,-0.124 2.032,-0.265 3,-0.422 v 4.91 c -0.942,0.166 -1.943,0.319 -3,0.458 z m 5,-0.779 c 1.062,-0.209 2.066,-0.439 3,-0.691 v 4.831 c -0.891,0.257 -1.894,0.506 -3,0.741 z m 4.892,-9.212 -0.341,0.299 C 51.026,37.083 50.151,37.55 49,38 v -4.768 c 1.189,-0.414 2.201,-0.873 3,-1.376 v 4.138 c 0,0.103 -0.038,0.213 -0.108,0.327 z m 0.672,-8.525 c -0.498,0.139 -1.025,0.269 -1.563,0.396 -0.249,0.058 -0.503,0.116 -0.763,0.172 -0.077,0.017 -0.159,0.032 -0.237,0.049 v -4.879 c 1.062,-0.209 2.066,-0.439 3,-0.691 v 4.831 c -0.144,0.04 -0.289,0.081 -0.437,0.122 z M 2,12.996 V 8.855 c 0.799,0.503 1.811,0.962 3,1.376 v 4.788 C 3.055,14.29 2.002,13.559 2,12.996 Z m 0,23 v -4.141 c 0.799,0.503 1.811,0.962 3,1.376 V 38 L 4.429,37.778 4.417,37.79 C 2.847,37.139 2.002,36.5 2,35.996 Z m 3,11 v -4.141 c 0.799,0.503 1.811,0.962 3,1.376 v 4.788 C 6.055,48.29 5.002,47.559 5,46.996 Z m 47,2.023 v -4.787 c 1.189,-0.414 2.201,-0.873 3,-1.376 v 4.138 c -10e-4,0.563 -1.055,1.295 -3,2.025 z m 3,-22 v -4.787 c 1.189,-0.414 2.201,-0.873 3,-1.376 v 4.138 c -10e-4,0.563 -1.055,1.295 -3,2.025 z"
     id="path2"
     inkscape:connector-curvature="0"
     style="fill:#a8c7d1" /><g
     id="g4"
     transform="translate(0,-3)" /><g
     id="g6"
     transform="translate(0,-3)" /><g
     id="g8"
     transform="translate(0,-3)" /><g
     id="g10"
     transform="translate(0,-3)" /><g
     id="g12"
     transform="translate(0,-3)" /><g
     id="g14"
     transform="translate(0,-3)" /><g
     id="g16"
     transform="translate(0,-3)" /><g
     id="g18"
     transform="translate(0,-3)" /><g
     id="g20"
     transform="translate(0,-3)" /><g
     id="g22"
     transform="translate(0,-3)" /><g
     id="g24"
     transform="translate(0,-3)" /><g
     id="g26"
     transform="translate(0,-3)" /><g
     id="g28"
     transform="translate(0,-3)" /><g
     id="g30"
     transform="translate(0,-3)" /><g
     id="g32"
     transform="translate(0,-3)" /></svg>