<svg xmlns="http://www.w3.org/2000/svg" xmlns:xlink="http://www.w3.org/1999/xlink" width="90" height="90" viewBox="0 0 90 90"><defs><path id="kxxka" d="M713 10828.998c24.853 0 45 20.148 45 45 0 24.853-20.147 45-45 45s-45-20.147-45-45c0-24.852 20.147-45 45-45z"/><path id="kxxkb" d="M713 10843.998c16.568 0 30 13.431 30 30 0 16.569-13.432 30-30 30-16.569 0-30-13.431-30-30 0-16.569 13.431-30 30-30z"/><path id="kxxkc" d="M713 10858.998c8.284 0 15 6.716 15 15 0 8.285-6.716 15-15 15-8.284 0-15-6.715-15-15 0-8.284 6.716-15 15-15z"/></defs><g><g opacity=".1" transform="translate(-668 -10829)"><use fill="#82533b" xlink:href="#kxxka"/></g><g opacity=".3" transform="translate(-668 -10829)"><use fill="#82533b" xlink:href="#kxxkb"/></g><g transform="translate(-668 -10829)"><use fill="#82533b" xlink:href="#kxxkc"/><use fill="#82533b" xlink:href="#kxxkc"/></g></g></svg>