<?xml version="1.0" encoding="utf-8"?>
<!-- Generator: Adobe Illustrator 18.1.1, SVG Export Plug-In . SVG Version: 6.00 Build 0)  -->
<svg version="1.1" xmlns="http://www.w3.org/2000/svg" xmlns:xlink="http://www.w3.org/1999/xlink" x="0px" y="0px"
	 viewBox="0 0 100 100" enable-background="new 0 0 100 100" xml:space="preserve">
 
 
<g id="Слой_3">
	<polygon fill="#FFFFFF" points="58.9,0.7 65,25.9 32,25.9 38.1,0.7 	" />
	<polygon fill="#FFFFFF" points="38.1,99.7 32,74.5 65,74.5 58.9,99.7 	" />
	<rect x="32" y="31.1" fill="#FFFFFF" width="33" height="38.1"  />
	<g>
		<path d="M55.9,35.9c-0.8-0.3-1.8-0.5-2.8-0.5c-1.8,0-3.5,0.6-4.5,1.5c-1.1-0.9-2.7-1.5-4.5-1.5c-1,0-2,0.2-2.8,0.5
			c-1.8,0.7-3,2.1-3,3.7c0,0.5,0.1,0.9,0.3,1.3c0.1,0.3,0.2,0.5,0.4,0.8h3.8l1-1.1c0.1-0.2,0.4-0.3,0.7-0.3c0.2,0,0.5,0.1,0.7,0.3
			l1.4,1.5l1.7-3.3c0.1-0.2,0.4-0.4,0.7-0.4h0c0.3,0,0.6,0.1,0.7,0.4l1.5,2.9h2.6c0.4,0,0.8,0.3,0.8,0.6c0,0.3-0.4,0.6-0.8,0.6h-3.2
			c-0.3,0-0.6-0.1-0.7-0.4l-1-1.9l-1.5,2.9c-0.1,0.2-0.4,0.3-0.7,0.4c0,0-0.1,0-0.1,0c-0.3,0-0.5-0.1-0.7-0.3l-1.5-1.7l-0.5,0.6
			c-0.1,0.2-0.4,0.3-0.7,0.3h-3.3c2.8,2.7,8.8,5.4,8.8,5.4s9.1-4.1,10.1-7.3c0.2-0.4,0.3-0.8,0.3-1.3C58.9,38,57.7,36.6,55.9,35.9
			L55.9,35.9z M55.9,35.9" style="fill: #565656  !important;"/>
	</g>
	<text transform="matrix(1.4041 0 0 1 36.6434 62.2627)" fill="#4C5866" font-family="'Verdana'" font-size="13.2472"  style="fill: #4C5866  !important;">80</text>
</g>
 
 
 
 
 
</svg>
