<?xml version="1.0" encoding="utf-8"?>
<!-- Generator: Adobe Illustrator 18.1.1, SVG Export Plug-In . SVG Version: 6.00 Build 0)  -->
<svg version="1.1" id="Слой_1" xmlns="http://www.w3.org/2000/svg" xmlns:xlink="http://www.w3.org/1999/xlink" x="0px" y="0px"
	 viewBox="0 0 500 500" enable-background="new 0 0 500 500" xml:space="preserve">
<g>
	<g>
		<path fill="#0599D4" d="M367.5,245.4c-5.5,0-10,4.5-10,10v117.2H112V127h197.3c5.5,0,10-4.5,10-10c0-5.5-4.5-10-10-10H102
			c-5.5,0-10,4.5-10,10v265.5c0,5.5,4.5,10,10,10h265.5c5.5,0,10-4.5,10-10V255.4C377.5,249.9,373.1,245.4,367.5,245.4L367.5,245.4z
			 M367.5,245.4"/>
		<path fill="#0599D4" d="M405,113.6c-3.9-3.9-10.2-3.9-14.1,0L228,276.5L187.5,236c-3.9-3.9-10.2-3.9-14.1,0
			c-3.9,3.9-3.9,10.2,0,14.1l47.5,47.5c2,2,4.5,2.9,7.1,2.9c2.6,0,5.1-1,7.1-2.9l169.9-170C408.9,123.8,408.9,117.5,405,113.6
			L405,113.6z M405,113.6"/>
	</g>
</g>
</svg>
