<?xml version="1.0" encoding="utf-8"?>
<!-- Generator: Adobe Illustrator 18.1.1, SVG Export Plug-In . SVG Version: 6.00 Build 0)  -->
<svg version="1.1" xmlns="http://www.w3.org/2000/svg" xmlns:xlink="http://www.w3.org/1999/xlink" x="0px" y="0px"
	 viewBox="0 0 100 100" enable-background="new 0 0 100 100" xml:space="preserve">
 
 
 
 
 
 
<g id="Слой_10">
	<path fill="none" stroke="#FFFFFF" stroke-width="2" stroke-miterlimit="10" d="M69.6,96.1H30.4c-1.1,0-2-0.9-2-2V5.9
		c0-1.1,0.9-2,2-2h39.1c1.1,0,2,0.9,2,2v88.1C71.6,95.2,70.7,96.1,69.6,96.1z" style="fill: none  !important;"/>
	<rect x="33.6" y="12.9" fill="none" stroke="#FFFFFF" stroke-width="2" stroke-miterlimit="10" width="32.7" height="40.7" style="fill: none  !important;"/>
	<path fill="#FFFFFF" d="M39.4,66.6h-3.8c-1.1,0-2-0.9-2-2v-1.4c0-1.1,0.9-2,2-2h3.8c1.1,0,2,0.9,2,2v1.4
		C41.4,65.7,40.5,66.6,39.4,66.6z"/>
	<path fill="#FFFFFF" d="M39.4,77.4h-3.8c-1.1,0-2-0.9-2-2V74c0-1.1,0.9-2,2-2h3.8c1.1,0,2,0.9,2,2v1.4
		C41.4,76.5,40.5,77.4,39.4,77.4z"/>
	<path fill="#FFFFFF" d="M39.4,87.7h-3.8c-1.1,0-2-0.9-2-2v-1.4c0-1.1,0.9-2,2-2h3.8c1.1,0,2,0.9,2,2v1.4
		C41.4,86.8,40.5,87.7,39.4,87.7z"/>
	<path fill="#FFFFFF" d="M51.9,66.9h-3.8c-1.1,0-2-0.9-2-2v-1.4c0-1.1,0.9-2,2-2h3.8c1.1,0,2,0.9,2,2v1.4C53.9,66,53,66.9,51.9,66.9
		z"/>
	<path fill="#FFFFFF" d="M51.9,77.7h-3.8c-1.1,0-2-0.9-2-2v-1.4c0-1.1,0.9-2,2-2h3.8c1.1,0,2,0.9,2,2v1.4
		C53.9,76.8,53,77.7,51.9,77.7z"/>
	<path fill="#FFFFFF" d="M51.9,88h-3.8c-1.1,0-2-0.9-2-2v-1.4c0-1.1,0.9-2,2-2h3.8c1.1,0,2,0.9,2,2V86C53.9,87.1,53,88,51.9,88z"/>
	<path fill="#FFFFFF" d="M64.4,66.6h-3.8c-1.1,0-2-0.9-2-2v-1.4c0-1.1,0.9-2,2-2h3.8c1.1,0,2,0.9,2,2v1.4
		C66.4,65.7,65.5,66.6,64.4,66.6z"/>
	<path fill="#FFFFFF" d="M64.4,77.4h-3.8c-1.1,0-2-0.9-2-2V74c0-1.1,0.9-2,2-2h3.8c1.1,0,2,0.9,2,2v1.4
		C66.4,76.5,65.5,77.4,64.4,77.4z"/>
	<path fill="#FFFFFF" d="M64.4,87.7h-3.8c-1.1,0-2-0.9-2-2v-1.4c0-1.1,0.9-2,2-2h3.8c1.1,0,2,0.9,2,2v1.4
		C66.4,86.8,65.5,87.7,64.4,87.7z"/>
</g>
</svg>
