<?xml version="1.0" encoding="utf-8"?>
<!-- Generator: Adobe Illustrator 18.1.1, SVG Export Plug-In . SVG Version: 6.00 Build 0)  -->
<svg version="1.1" xmlns="http://www.w3.org/2000/svg" xmlns:xlink="http://www.w3.org/1999/xlink" x="0px" y="0px"
	 viewBox="0 0 100 100" enable-background="new 0 0 100 100" xml:space="preserve">
<g id="Слой_6" display="none">
	<rect display="inline" fill="#444444" width="100" height="100"/>
</g>
<g id="Слой_1" display="none">
	<g display="inline">
		<path fill="#FFFFFF" d="M53.2,49.4l8.9,15.4l-5.4,3.1L47,51V31.5h6.2V49.4z M87.5,44v12.4h-6.8c-1.5,7.6-5.9,14-11.8,18.5v25H31.4
			V75C23.9,69.3,19,60.4,19,50.2c0-10.1,4.9-19.1,12.4-24.8v-25h37.3v25c5.9,4.5,10.3,11,11.8,18.5H87.5z M75,50.2
			c0-13.7-11.2-24.9-24.9-24.9c-13.7,0-24.9,11.2-24.9,24.9c0,13.7,11.2,24.9,24.9,24.9C63.9,75.1,75,63.9,75,50.2z"/>
	</g>
</g>
<g id="Слой_2">
	<g>
		<path fill="#FFFFFF" d="M50,16.3c-20.6,0.1-37.4,16.9-37.4,37.5c0,6.3,1.6,12.4,4.5,17.9v-9.9c0-1.8,0.7-3.5,1.8-5
			c-0.1-1-0.1-2-0.1-3c0-17.2,14-31.3,31.2-31.4c17.2,0.1,31.2,14.1,31.2,31.4c0,1.1-0.1,2.2-0.2,3.3c1,1.4,1.6,3,1.6,4.7v10.4
			c3.1-5.6,4.8-11.9,4.8-18.4C87.4,33.3,70.6,16.4,50,16.3L50,16.3z M50,16.3"/>
		<path fill="#FFFFFF" d="M19.5,60.2c-0.2,0.5-0.2,1.1-0.2,1.6v14c0,4.3,5.2,7.8,11.5,7.8h4.8V54h-4.8C25.2,54,20.5,56.7,19.5,60.2
			L19.5,60.2z M19.5,60.2"/>
		<path fill="#FFFFFF" d="M80.5,75.8v-14c0-0.3,0-0.7-0.1-1C79.7,57,74.9,54,69,54h-4.8v29.7H69C75.4,83.7,80.5,80.2,80.5,75.8
			L80.5,75.8z M80.5,75.8"/>
	</g>
</g>
<g id="Слой_3" display="none">
	<polygon display="inline" fill="#FFFFFF" points="58.9,0.7 65,25.9 32,25.9 38.1,0.7 	"/>
	<polygon display="inline" fill="#FFFFFF" points="38.1,99.7 32,74.5 65,74.5 58.9,99.7 	"/>
	<rect x="32" y="31.1" display="inline" fill="#FFFFFF" width="33" height="38.1"/>
	<g display="inline">
		<path fill="#565656" d="M55.9,35.9c-0.8-0.3-1.8-0.5-2.8-0.5c-1.8,0-3.5,0.6-4.5,1.5c-1.1-0.9-2.7-1.5-4.5-1.5c-1,0-2,0.2-2.8,0.5
			c-1.8,0.7-3,2.1-3,3.7c0,0.5,0.1,0.9,0.3,1.3c0.1,0.3,0.2,0.5,0.4,0.8h3.8l1-1.1c0.1-0.2,0.4-0.3,0.7-0.3c0.2,0,0.5,0.1,0.7,0.3
			l1.4,1.5l1.7-3.3c0.1-0.2,0.4-0.4,0.7-0.4h0c0.3,0,0.6,0.1,0.7,0.4l1.5,2.9h2.6c0.4,0,0.8,0.3,0.8,0.6c0,0.3-0.4,0.6-0.8,0.6h-3.2
			c-0.3,0-0.6-0.1-0.7-0.4l-1-1.9l-1.5,2.9c-0.1,0.2-0.4,0.3-0.7,0.4c0,0-0.1,0-0.1,0c-0.3,0-0.5-0.1-0.7-0.3l-1.5-1.7l-0.5,0.6
			c-0.1,0.2-0.4,0.3-0.7,0.3h-3.3c2.8,2.7,8.8,5.4,8.8,5.4s9.1-4.1,10.1-7.3c0.2-0.4,0.3-0.8,0.3-1.3C58.9,38,57.7,36.6,55.9,35.9
			L55.9,35.9z M55.9,35.9"/>
	</g>
	
		<text transform="matrix(1.4041 0 0 1 36.6434 62.2627)" display="inline" fill="#4C5866" font-family="'Verdana'" font-size="13.2472">80</text>
</g>
<g id="Слой_4" display="none">
	<path display="inline" fill="#FFFFFF" d="M79.6,66.8h-0.8c-2.8,0-5.1,2.3-5.1,5.1v3.5h-2.9v1.9l-1.8,1.6v1.5h-3.2v-0.1
		c0-0.7-0.6-1.3-1.3-1.3h-8.3c-0.7,0-1.3,0.6-1.3,1.3v0.1h-1.9c0,0,0,0,0-0.1v-5.1c0-0.7-0.4-1.4-1-1.8V7.9c0.7-0.4,1.2-0.9,1.6-1.6
		h5.9C60,7,60.8,7.4,61.8,7.4h7.1c1.6,0,2.9-1.3,2.9-2.9V3.9c0-1.6-1.3-2.9-2.9-2.9h-7.1c-1.1,0-2,0.6-2.5,1.4h-5.7
		c-0.7-1.2-2-2.1-3.5-2.1c-1.5,0-2.8,0.8-3.5,2.1h-5.7c-0.5-0.9-1.5-1.4-2.5-1.4h-7.1c-1.6,0-2.9,1.3-2.9,2.9v0.6
		c0,1.6,1.3,2.9,2.9,2.9h7.1c0.9,0,1.8-0.4,2.3-1.1h5.9c0.4,0.7,0.9,1.2,1.6,1.6v65.5c-0.6,0.4-1,1.1-1,1.8v5.1c0,0,0,0,0,0.1h-1.9
		v-0.1c0-0.7-0.6-1.3-1.3-1.3h-8.3c-0.7,0-1.3,0.6-1.3,1.3v0.1h-3.2v-1.5l-1.8-1.6v-1.9h-2.9v-3.5c0-2.8-2.3-5.1-5.1-5.1h-0.8
		c-2.8,0-5.1,2.3-5.1,5.1v22.8c0,2.8,2.3,5.1,5.1,5.1h0.8c2.8,0,5.1-2.3,5.1-5.1v-3.5h2.9v-1.9l1.8-1.6v-1.5h38.1v1.5l1.8,1.6v1.9
		h2.9v3.5c0,2.8,2.3,5.1,5.1,5.1h0.8c2.8,0,5.1-2.3,5.1-5.1V71.9C84.6,69.1,82.4,66.8,79.6,66.8z"/>
</g>
<g id="Слой_5" display="none">
	<g display="inline">
		<path fill="#FFFFFF" d="M72.2,98.1H28.7c-1.9,0-3.5-1.6-3.5-3.5V3.5c0-1.9,1.6-3.5,3.5-3.5h43.5c1.9,0,3.5,1.6,3.5,3.5v91.1
			C75.7,96.5,74.1,98.1,72.2,98.1L72.2,98.1z M28.7,1.1c-1.3,0-2.4,1.1-2.4,2.4v91.1c0,1.3,1.1,2.4,2.4,2.4h43.5
			c1.3,0,2.4-1.1,2.4-2.4V3.5c0-1.3-1.1-2.4-2.4-2.4H28.7z M50.4,94.4c-1.7,0-3-1.3-3-3c0-1.7,1.3-3,3-3c1.6,0,3,1.3,3,3
			C53.4,93,52.1,94.4,50.4,94.4L50.4,94.4z M50.4,89.4c-1.1,0-1.9,0.9-1.9,1.9c0,1.1,0.9,1.9,1.9,1.9c1.1,0,1.9-0.9,1.9-1.9
			C52.4,90.3,51.5,89.4,50.4,89.4L50.4,89.4z M71.3,85.9H29.6V12.2h41.7V85.9z M30.7,84.9h39.5V13.2H30.7V84.9z M55.9,7.7H45
			c-0.6,0-1-0.4-1-1c0-0.6,0.4-1,1-1h10.9c0.6,0,1,0.4,1,1C56.9,7.3,56.4,7.7,55.9,7.7L55.9,7.7z M45,6.2c-0.3,0-0.5,0.2-0.5,0.5
			c0,0.3,0.2,0.5,0.5,0.5h10.9c0.3,0,0.5-0.2,0.5-0.5c0-0.3-0.2-0.5-0.5-0.5H45z M45,6.2"/>
	</g>
	<g display="inline">
		<g>
			<path fill="#FFFFFF" d="M41.5,42.2L41.5,42.2c-0.8,0-1.5,0.6-1.5,1.4v6.1c0,0.8,0.6,1.4,1.4,1.4h0.1c0.8,0,1.4-0.6,1.4-1.4v-6.1
				C42.9,42.8,42.3,42.2,41.5,42.2z"/>
			<path fill="#FFFFFF" d="M43.6,52c0,0.7,0.6,1.3,1.3,1.3h1.4v3.3c0,0.8,0.6,1.4,1.4,1.4h0.1c0.8,0,1.4-0.6,1.4-1.4v-3.3H51v3.3
				c0,0.8,0.6,1.4,1.4,1.4h0.1c0.8,0,1.4-0.6,1.4-1.4v-3.3h1.4c0.7,0,1.3-0.6,1.3-1.3v-9.6H43.6V52z"/>
			<path fill="#FFFFFF" d="M53.2,36.6l1.1-1.7c0.1-0.1,0-0.3-0.1-0.3c-0.1-0.1-0.2,0-0.3,0.1l-1.1,1.7C52,36.1,51,35.9,50,35.9
				c-1,0-1.9,0.2-2.8,0.5l-1.1-1.7c-0.1-0.1-0.2-0.1-0.3-0.1c-0.1,0.1-0.1,0.2-0.1,0.3l1.1,1.7c-2,1-3.3,2.8-3.3,4.8
				c0,0.1,0,0.3,0,0.4h12.9c0-0.1,0-0.3,0-0.4C56.5,39.4,55.2,37.6,53.2,36.6z M47,39.6c-0.3,0-0.6-0.3-0.6-0.6
				c0-0.3,0.3-0.6,0.6-0.6c0.3,0,0.6,0.3,0.6,0.6C47.6,39.3,47.4,39.6,47,39.6z M53,39.6c-0.3,0-0.6-0.3-0.6-0.6
				c0-0.3,0.3-0.6,0.6-0.6s0.6,0.3,0.6,0.6C53.6,39.3,53.4,39.6,53,39.6z"/>
			<path fill="#FFFFFF" d="M58.6,42.2L58.6,42.2c-0.8,0-1.5,0.6-1.5,1.4v6.1c0,0.8,0.6,1.4,1.4,1.4h0.1c0.8,0,1.4-0.6,1.4-1.4v-6.1
				C60,42.8,59.3,42.2,58.6,42.2z"/>
		</g>
	</g>
</g>
<g id="Слой_7" display="none">
	<line display="inline" fill="none" stroke="#FFFFFF" stroke-width="2" stroke-miterlimit="10" x1="16" y1="29" x2="16" y2="61"/>
	<line display="inline" fill="none" stroke="#FFFFFF" stroke-width="2" stroke-miterlimit="10" x1="83" y1="29" x2="83" y2="61"/>
	<line display="inline" fill="none" stroke="#FFFFFF" stroke-width="2" stroke-miterlimit="10" x1="15" y1="28" x2="85" y2="28"/>
	
		<line display="inline" fill="none" stroke="#FFFFFF" stroke-width="2" stroke-miterlimit="10" x1="15.5" y1="59.7" x2="50.2" y2="71.9"/>
	
		<line display="inline" fill="none" stroke="#FFFFFF" stroke-width="2" stroke-miterlimit="10" x1="49.3" y1="71.8" x2="84.1" y2="59.8"/>
	
		<text transform="matrix(5.0758 0 0 1 23.7041 52.1466)" display="inline" fill="#FFFFFF" font-family="'EuphemiaCAS'" font-size="21.987">v</text>
</g>
<g id="Слой_8" display="none">
	<g display="inline">
		<path fill="#FFFFFF" d="M70.6,1H29.4c-4,0-7.1,3.2-7.1,7.2v83.8c0,4,3.2,7.2,7.1,7.2h41.3c3.9,0,7.1-3.2,7.1-7.2V8.1
			C77.8,4.2,74.6,1,70.6,1L70.6,1z M39.8,5.3h20.4c0.5,0,0.9,0.8,0.9,1.7c0,1-0.4,1.7-0.9,1.7H39.8c-0.5,0-0.9-0.8-0.9-1.7
			C38.9,6.1,39.3,5.3,39.8,5.3L39.8,5.3z M50,92c-2.5,0-4.6-2-4.6-4.6c0-2.5,2.1-4.6,4.6-4.6c2.5,0,4.6,2.1,4.6,4.6
			C54.6,90,52.5,92,50,92L50,92z M72.4,76.4H27.6V13h44.9V76.4z M72.4,76.4"/>
	</g>
	<g display="inline">
		<g>
			<path fill="#FFFFFF" d="M57.1,41.3c0-3.3,2.7-4.8,2.8-4.9c-1.5-2.2-3.9-2.5-4.7-2.6c-2-0.2-3.9,1.2-5,1.2c-1,0-2.6-1.2-4.3-1.1
				c-2.2,0-4.2,1.3-5.3,3.2c-2.3,4-0.6,9.8,1.6,13c1.1,1.6,2.4,3.3,4.1,3.3c1.6-0.1,2.3-1.1,4.2-1.1c2,0,2.5,1.1,4.3,1
				c1.8,0,2.9-1.6,4-3.2c1.2-1.8,1.8-3.6,1.8-3.7C60.5,46.5,57.1,45.2,57.1,41.3L57.1,41.3z M53.8,31.7c0.9-1.1,1.5-2.6,1.3-4.1
				c-1.3,0.1-2.9,0.9-3.8,2c-0.8,1-1.6,2.5-1.4,4C51.4,33.6,52.9,32.8,53.8,31.7L53.8,31.7z M53.8,31.7"/>
		</g>
	</g>
</g>
<g id="Слой_9" display="none">
	<g display="inline">
		<path fill="#FFFFFF" d="M65.6,50c-8.6,0-15.6,7-15.6,15.6c0,8.6,7,15.6,15.6,15.6c8.6,0,15.6-7,15.6-15.6
			C81.2,56.9,74.2,50,65.6,50z M65.6,76.7c-6.2,0-11.1-5-11.1-11.1s5-11.1,11.1-11.1c6.2,0,11.1,5,11.1,11.1S71.7,76.7,65.6,76.7z"
			/>
		<path fill="#FFFFFF" d="M34.4,50C43,50,50,43,50,34.4c0-8.6-7-15.6-15.6-15.6c-8.6,0-15.6,7-15.6,15.6C18.8,43,25.8,50,34.4,50z
			 M34.4,23.2c6.2,0,11.1,5,11.1,11.1c0,6.2-5,11.1-11.1,11.1c-6.2,0-11.1-5-11.1-11.1C23.2,28.2,28.2,23.2,34.4,23.2z"/>
		<path fill="#FFFFFF" d="M21.6,78.3c0.9,0.9,2.3,0.9,3.2,0l53.5-53.5c0.9-0.9,0.9-2.3,0-3.2c-0.9-0.9-2.3-0.9-3.2,0L21.6,75.1
			C20.7,76,20.7,77.4,21.6,78.3z"/>
	</g>
</g>
<g id="Слой_10" display="none">
	<path display="inline" fill="none" stroke="#FFFFFF" stroke-width="2" stroke-miterlimit="10" d="M69.6,96.1H30.4c-1.1,0-2-0.9-2-2
		V5.9c0-1.1,0.9-2,2-2h39.1c1.1,0,2,0.9,2,2v88.1C71.6,95.2,70.7,96.1,69.6,96.1z"/>
	
		<rect x="33.6" y="12.9" display="inline" fill="none" stroke="#FFFFFF" stroke-width="2" stroke-miterlimit="10" width="32.7" height="40.7"/>
	<path display="inline" fill="#FFFFFF" d="M39.4,66.6h-3.8c-1.1,0-2-0.9-2-2v-1.4c0-1.1,0.9-2,2-2h3.8c1.1,0,2,0.9,2,2v1.4
		C41.4,65.7,40.5,66.6,39.4,66.6z"/>
	<path display="inline" fill="#FFFFFF" d="M39.4,77.4h-3.8c-1.1,0-2-0.9-2-2V74c0-1.1,0.9-2,2-2h3.8c1.1,0,2,0.9,2,2v1.4
		C41.4,76.5,40.5,77.4,39.4,77.4z"/>
	<path display="inline" fill="#FFFFFF" d="M39.4,87.7h-3.8c-1.1,0-2-0.9-2-2v-1.4c0-1.1,0.9-2,2-2h3.8c1.1,0,2,0.9,2,2v1.4
		C41.4,86.8,40.5,87.7,39.4,87.7z"/>
	<path display="inline" fill="#FFFFFF" d="M51.9,66.9h-3.8c-1.1,0-2-0.9-2-2v-1.4c0-1.1,0.9-2,2-2h3.8c1.1,0,2,0.9,2,2v1.4
		C53.9,66,53,66.9,51.9,66.9z"/>
	<path display="inline" fill="#FFFFFF" d="M51.9,77.7h-3.8c-1.1,0-2-0.9-2-2v-1.4c0-1.1,0.9-2,2-2h3.8c1.1,0,2,0.9,2,2v1.4
		C53.9,76.8,53,77.7,51.9,77.7z"/>
	<path display="inline" fill="#FFFFFF" d="M51.9,88h-3.8c-1.1,0-2-0.9-2-2v-1.4c0-1.1,0.9-2,2-2h3.8c1.1,0,2,0.9,2,2V86
		C53.9,87.1,53,88,51.9,88z"/>
	<path display="inline" fill="#FFFFFF" d="M64.4,66.6h-3.8c-1.1,0-2-0.9-2-2v-1.4c0-1.1,0.9-2,2-2h3.8c1.1,0,2,0.9,2,2v1.4
		C66.4,65.7,65.5,66.6,64.4,66.6z"/>
	<path display="inline" fill="#FFFFFF" d="M64.4,77.4h-3.8c-1.1,0-2-0.9-2-2V74c0-1.1,0.9-2,2-2h3.8c1.1,0,2,0.9,2,2v1.4
		C66.4,76.5,65.5,77.4,64.4,77.4z"/>
	<path display="inline" fill="#FFFFFF" d="M64.4,87.7h-3.8c-1.1,0-2-0.9-2-2v-1.4c0-1.1,0.9-2,2-2h3.8c1.1,0,2,0.9,2,2v1.4
		C66.4,86.8,65.5,87.7,64.4,87.7z"/>
</g>
</svg>
