<svg width="213" height="54" viewBox="0 0 213 54" fill="none" xmlns="http://www.w3.org/2000/svg">
<path fill-rule="evenodd" clip-rule="evenodd" d="M0 0V0.587555C0 0.587555 1.6252 0.662224 1.6252 2.83373V24.2085H4.69462V3.71017C4.69462 1.03924 3.06449 0 0 0Z" transform="translate(62.5366 10.5265)" fill="white"/>
<path fill-rule="evenodd" clip-rule="evenodd" d="M23.5113 25.304C23.5113 25.304 21.2544 28.3924 16.1203 28.3924C10.991 28.3924 9.23903 21.8815 8.06322 17.5385C7.04747 13.7855 5.85565 10.9065 2.34054 10.0509L2.35408 9.98599C2.35408 9.98599 2.60648 10.0582 3.04356 9.87827C5.85688 8.73254 7.00807 7.67127 10.0652 0H6.76306C6.76306 0 2.48213 9.78769 0 9.78769V10.3471H0.068948C0.326272 10.3655 1.32602 10.6433 3.00786 13.5052C4.98272 16.8604 5.26344 29.3251 16.0686 29.3251C22.6149 29.3251 25.4221 26.7619 25.4221 26.7619L23.5113 25.304Z" transform="translate(67.9927 11.4779)" fill="white"/>
<path fill-rule="evenodd" clip-rule="evenodd" d="M13.8167 3.16178C13.3451 4.69432 10.4075 14.2862 8.96447 18.9878C7.53011 14.2862 4.58997 4.69432 4.11964 3.16178C3.48803 1.12003 2.6902 0 0 0V0.498198C0 0.498198 1.06869 0.564298 1.06869 2.4151V21.5731H2.45381V8.83291L2.37501 6.98701L2.45381 6.95886L6.99822 21.5731H8.17649H9.76107H9.79554L14.1787 6.95886L14.2538 6.99313L14.1787 8.83291V21.5731H16.8652V2.4151C16.8652 0.564298 17.9339 0.498198 17.9339 0.498198V0C15.2474 0 14.4446 1.12003 13.8167 3.16178Z" transform="translate(115.103 11.4601)" fill="white"/>
<path fill-rule="evenodd" clip-rule="evenodd" d="M15.5995 19.7125C15.1735 18.1187 14.3486 15.0377 14.3486 15.0377L10.2572 0H8.58525H7.15951H6.87017L2.78008 15.0377C2.78008 15.0377 1.95517 18.1187 1.52794 19.7125C1.1044 21.305 0 21.682 0 21.682V22.1961C2.00318 22.1961 2.93275 21.0467 3.49788 18.945C3.92757 17.3672 6.57714 7.49378 7.87361 2.65869C9.16885 7.49378 11.8172 17.3672 12.242 18.945C12.8095 21.0467 14.7068 22.1961 17.1262 22.1961V21.682C17.1262 21.682 16.0279 21.305 15.5995 19.7125Z" transform="translate(180.546 11.4608)" fill="white"/>
<path fill-rule="evenodd" clip-rule="evenodd" d="M7.96979 21.2132C4.39312 21.2132 3.50049 15.4356 3.50049 11.3472C3.50049 7.31384 4.42144 1.0013 7.96979 1.0013C11.5169 1.0013 12.4416 7.31384 12.4416 11.3472C12.4416 15.4356 11.5452 21.2132 7.96979 21.2132ZM7.96965 0C1.64244 0 0 7.22938 0 11.3704C0 15.5739 1.59442 22.2145 7.96965 22.2145C14.3436 22.2145 15.9368 15.5739 15.9368 11.3704C15.9368 7.22938 14.2969 0 7.96965 0Z" transform="translate(79.9775 11.4423)" fill="white"/>
<path fill-rule="evenodd" clip-rule="evenodd" d="M12.1607 16.7478C11.6497 19.2216 10.5355 21.2132 8.10508 21.2132C4.5321 21.2132 3.63577 15.4368 3.63577 11.3484C3.63577 7.31384 4.55672 1.00252 8.10508 1.00252C10.4173 1.00252 11.5414 3.00265 12.0844 5.47038H14.5443C13.712 2.53995 11.9157 0 8.10508 0C1.66953 0 0 7.2306 0 11.3704C0 15.5739 1.62151 22.2157 8.10508 22.2157C12.1114 22.2157 13.8869 19.6794 14.6576 16.7478H12.1607Z" transform="translate(98.4878 11.4418)" fill="white"/>
<path fill-rule="evenodd" clip-rule="evenodd" d="M13.1334 18.2938H12.274C12.274 18.2938 11.9292 20.6158 9.0051 20.6158H4.03346L4.11718 18.5729V10.7878H10.533V9.83176H4.11718V3.16178L4.03346 0.954777H8.29838C11.2176 0.954777 11.5611 3.28174 11.5611 3.28174H12.4229C12.4229 3.28174 12.3084 1.11391 11.6781 0H0V0.498198C0 0.498198 1.06869 0.564298 1.06869 2.41387V21.5731H2.97954H4.11718H12.8022C13.2614 20.2694 13.1334 18.2938 13.1334 18.2938Z" transform="translate(135.133 11.4605)" fill="white"/>
<path fill-rule="evenodd" clip-rule="evenodd" d="M6.54883 0C2.73822 0 0.939416 2.53873 0.110809 5.47038H2.57324C3.11374 3.00265 4.23784 1.00129 6.54883 1.00129C9.75737 1.00129 10.8187 6.16321 10.991 10.1341H4.98519V11.117H11.0181C11.0218 11.1942 11.0218 11.2713 11.0218 11.3484C11.0218 15.4356 10.123 21.2132 6.54883 21.2132C4.12333 21.2132 3.00539 19.2204 2.49567 16.7478H0C0.769509 19.6782 2.54369 22.2145 6.54883 22.2145C13.0336 22.2145 14.6539 15.5739 14.6539 11.3704C14.6539 7.22938 12.9807 0 6.54883 0Z" transform="translate(165.089 11.4423)" fill="white"/>
<mask id="mask0" mask-type="alpha" maskUnits="userSpaceOnUse" x="198" y="11" width="15" height="23">
<path fill-rule="evenodd" clip-rule="evenodd" d="M14.5528 0V21.9917H0V0H14.5528V0Z" transform="translate(198.344 11.46)" fill="white"/>
</mask>
<g mask="url(#mask0)">
<path fill-rule="evenodd" clip-rule="evenodd" d="M7.36536 20.5069C5.83373 20.5069 4.51757 20.1923 4.11865 20.0834V10.2308C4.66777 10.0337 5.63428 9.75096 6.64141 9.75096C9.31684 9.75096 11.6869 11.0705 11.6869 15.0855C11.6869 19.1004 9.21095 20.5069 7.36536 20.5069ZM7.89947 8.48038C6.15361 8.48038 4.90269 8.82312 4.11841 9.14138V3.16178C4.11841 0.886229 2.69143 0 0 0V0.498198C0 0.498198 1.06623 0.564298 1.06623 2.4151V21.9917H3.27503L3.64316 20.7725C4.0273 20.95 5.61926 21.5731 8.11001 21.5731C11.8837 21.5731 14.5529 18.5692 14.5529 14.9729C14.5529 11.3827 11.156 8.48038 7.89947 8.48038Z" transform="translate(198.344 11.46)" fill="white"/>
</g>
<path fill-rule="evenodd" clip-rule="evenodd" d="M3.70361 18.4137C4.09021 16.8885 6.49108 7.39707 7.68536 2.6697C8.88086 7.39707 11.2805 16.8885 11.6683 18.4137C11.8776 19.2314 12.3123 19.9022 12.9057 20.4102H2.93164C3.25914 19.9022 3.49307 19.2314 3.70361 18.4137ZM16.3493 20.4102C16.3493 20.4102 15.2166 20.2217 14.8226 18.672C14.4335 17.1223 13.8031 14.6154 13.8031 14.6154L10.0516 0H8.35871H7.01053H6.95267L3.20362 14.6154C3.20362 14.6154 2.57939 17.0942 2.1891 18.6414C1.79634 20.1923 0.657468 20.4102 0.657468 20.4102C0.0824913 21.5253 0 23.6932 0 23.6932H1.15365C1.33217 22.2941 1.77295 21.6441 3.36491 21.5792H13.6406C15.2313 21.6441 15.6746 22.2941 15.8506 23.6932H17.008C17.008 23.6932 16.9267 21.5253 16.3493 20.4102Z" transform="translate(148.919 11.4421)" fill="white"/>
<path fill-rule="evenodd" clip-rule="evenodd" d="M4.04077 1.00985C3.63693 1.00985 3.29711 1.07963 3.0164 1.22039C2.73814 1.36116 2.50175 1.5411 2.30845 1.75899C2.11638 1.97565 1.96494 2.22169 1.85906 2.502C1.75071 2.77742 1.67068 3.04794 1.62143 3.31234L1.15603 5.67847C1.09693 5.98694 1.076 6.28683 1.09324 6.56837C1.11048 6.85603 1.18312 7.10696 1.31117 7.32485C1.44044 7.54151 1.63128 7.71655 1.88614 7.84998C2.13731 7.98095 2.47466 8.04705 2.89574 8.04705C3.24048 8.04705 3.54582 7.98585 3.81422 7.85977C4.08632 7.73736 4.32271 7.57089 4.52463 7.36035C4.72409 7.1547 4.894 6.90377 5.03189 6.61366C5.16979 6.32356 5.27691 6.01264 5.35201 5.67847C5.40495 5.45079 5.46036 5.20965 5.52069 4.95015C5.58102 4.69431 5.63765 4.44093 5.68813 4.18388C5.73861 3.92682 5.78293 3.68078 5.81495 3.43842C5.85188 3.20217 5.86666 2.98796 5.86666 2.79822C5.86666 2.2731 5.71152 1.841 5.3988 1.50928C5.08607 1.17755 4.63298 1.00985 4.04077 1.00985ZM4.11841 0C4.53579 0 4.92485 0.0636518 5.27698 0.189731C5.63034 0.319483 5.93076 0.496974 6.18439 0.728324C6.43679 0.959674 6.63255 1.23509 6.7766 1.55335C6.91696 1.87406 6.98714 2.22537 6.98714 2.60972C6.98714 2.81414 6.96867 3.04182 6.92927 3.3001C6.89233 3.55593 6.84801 3.82278 6.7963 4.10065C6.74459 4.37606 6.68672 4.65638 6.61901 4.93914C6.55744 5.217 6.50081 5.48752 6.44787 5.74335C6.34444 6.23788 6.19177 6.68834 5.98986 7.09473C5.78794 7.4999 5.538 7.84631 5.23758 8.13519C4.9384 8.42652 4.58627 8.65053 4.1812 8.80843C3.77859 8.96634 3.32058 9.04468 2.80594 9.04468C2.30114 9.04468 1.86775 8.97735 1.51193 8.83903C1.15488 8.70316 0.865543 8.5171 0.643925 8.27596C0.421075 8.03849 0.257324 7.76062 0.153902 7.44114C0.0504798 7.11921 0 6.77525 0 6.40802C0 6.20605 0.0184682 5.96736 0.0590983 5.70051C0.0972659 5.43121 0.144052 5.15335 0.199457 4.86569C0.256092 4.58171 0.317653 4.29772 0.384139 4.00884C0.454318 3.72241 0.515879 3.4629 0.565127 3.22421C0.66978 2.7713 0.807676 2.349 0.98374 1.95362C1.16103 1.56437 1.38881 1.22285 1.67076 0.932744C1.9564 0.645087 2.29498 0.416185 2.69636 0.248487C3.09527 0.0820129 3.56929 0 4.11841 0Z" transform="translate(101.985 37.4839)" fill="white"/>
<path fill-rule="evenodd" clip-rule="evenodd" d="M3.46587 6.25501C3.03371 6.40802 2.60648 6.48514 2.18664 6.48514C1.8185 6.48514 1.49839 6.42394 1.22136 6.30031C0.948035 6.17545 0.72026 6.00653 0.540503 5.78742C0.360746 5.57198 0.22285 5.31493 0.134202 5.01992C0.0455549 4.72492 0 4.40544 0 4.05413C0 3.50697 0.0726416 2.99041 0.210538 2.49956C0.353358 2.00748 0.562665 1.57905 0.84215 1.20694C1.12164 0.836042 1.47253 0.542264 1.89114 0.324379C2.31222 0.107718 2.80594 0 3.3723 0C3.74782 0 4.11718 0.0709963 4.47669 0.214213C4.83744 0.36355 5.13786 0.582659 5.37794 0.878885L4.60597 1.62435C4.44345 1.43584 4.25138 1.28528 4.0273 1.17144C3.80445 1.05393 3.5656 0.996396 3.30581 0.996396C2.91182 0.996396 2.57324 1.08575 2.28883 1.26324C2.00811 1.44441 1.77541 1.67208 1.59442 1.94995C1.4159 2.22904 1.28169 2.53383 1.19551 2.87168C1.11056 3.2083 1.06746 3.54002 1.06746 3.8644C1.06746 4.09942 1.08839 4.31486 1.13272 4.50704C1.17581 4.69922 1.24722 4.86692 1.34941 5.00646C1.45283 5.14845 1.59196 5.25862 1.76187 5.33451C1.93301 5.4104 2.15216 5.44835 2.41934 5.44835C2.72714 5.44835 3.01894 5.3798 3.2935 5.23781C3.56806 5.09582 3.79583 4.96239 3.97805 4.83387L4.59489 5.61727C4.27724 5.88902 3.90172 6.10078 3.46587 6.25501Z" transform="translate(109.746 40.0434)" fill="white"/>
<path fill-rule="evenodd" clip-rule="evenodd" d="M4.96795 6.33213H3.93988L4.47916 3.55471H1.5858L1.04407 6.33213H0L1.23737 0H2.27898L1.75079 2.71377H4.6466L5.17356 0H6.20409L4.96795 6.33213Z" transform="translate(115.522 40.1192)" fill="white"/>
<path fill-rule="evenodd" clip-rule="evenodd" d="M3.03641 0.932739C2.65104 0.932739 2.32969 1.04291 2.07237 1.26569C1.81504 1.48602 1.61066 1.76144 1.45307 2.09071C1.29917 2.41999 1.19082 2.77742 1.12557 3.1581C1.06154 3.54246 1.03076 3.89377 1.03076 4.20836C1.03076 4.33566 1.04677 4.47766 1.08247 4.62944C1.11695 4.78367 1.17974 4.92811 1.27331 5.05909C1.36935 5.19251 1.49739 5.30268 1.65991 5.39081C1.82366 5.48017 2.03789 5.52669 2.30384 5.52669C2.69044 5.52669 3.01178 5.42876 3.26788 5.23046C3.52766 5.03583 3.73697 4.78245 3.90195 4.47154C4.06201 4.16062 4.17651 3.81298 4.24669 3.43475C4.31687 3.05406 4.34888 2.67827 4.34888 2.30248C4.34888 1.83366 4.22822 1.48602 3.98444 1.26569C3.73943 1.04291 3.42424 0.932739 3.03641 0.932739ZM3.15437 0C3.83893 0 4.38682 0.200748 4.79435 0.605916C5.20065 1.01231 5.40626 1.5558 5.40626 2.23883C5.40626 2.72234 5.35332 3.21687 5.25236 3.71996C5.14771 4.22673 4.9778 4.68208 4.73771 5.09215C4.49762 5.50221 4.17628 5.83516 3.78352 6.08854C3.3883 6.34437 2.90566 6.4729 2.32946 6.4729C1.57349 6.4729 0.998515 6.28439 0.599601 5.9086C0.200688 5.53648 0 4.99544 0 4.2965C0 3.73342 0.0652543 3.19483 0.194532 2.6746C0.321347 2.15192 0.51711 1.69289 0.771971 1.29752C1.03053 0.900918 1.35557 0.585107 1.75079 0.350085C2.14477 0.116287 2.6114 0 3.15437 0Z" transform="translate(122.794 40.0558)" fill="white"/>
<path fill-rule="evenodd" clip-rule="evenodd" d="M3.1147 0.969463C2.81428 0.969463 2.56188 1.0221 2.35381 1.12492C2.15066 1.22652 1.98198 1.3526 1.85393 1.49459C1.72466 1.63903 1.62862 1.78959 1.56337 1.9475C1.49934 2.10418 1.45502 2.23883 1.42917 2.34899L1.07088 4.03332C1.0438 4.13369 1.03271 4.23284 1.03271 4.32587C1.03271 4.53764 1.06596 4.7188 1.1386 4.86936C1.21247 5.0187 1.30851 5.13988 1.42917 5.23903C1.54859 5.33696 1.68772 5.40795 1.84162 5.44957C1.99552 5.49119 2.15804 5.51322 2.33041 5.51322C2.67392 5.51322 2.97311 5.46304 3.23043 5.36756C3.49022 5.26963 3.70445 5.14478 3.87559 4.99911C4.04673 4.85712 4.176 4.70044 4.26588 4.53519C4.35822 4.36749 4.40378 4.2206 4.40378 4.09452C4.40378 3.87174 4.32006 3.69058 4.15877 3.54859C3.99255 3.40659 3.72045 3.33927 3.33385 3.33927H2.472L2.65299 2.41877H3.33385C3.63304 2.41877 3.85958 2.34165 4.00979 2.19598C4.16123 2.04665 4.23387 1.88752 4.23387 1.7186C4.23387 1.53499 4.14892 1.35994 3.97778 1.20571C3.80541 1.05025 3.51854 0.969463 3.1147 0.969463ZM3.23071 0C3.61731 0 3.94973 0.0465148 4.22799 0.146889C4.50624 0.241142 4.73279 0.367222 4.90392 0.516559C5.07506 0.665896 5.20188 0.827474 5.28437 1.00252C5.36563 1.17878 5.40626 1.3477 5.40626 1.50683C5.40626 1.7896 5.32623 2.05889 5.1674 2.31472C5.00981 2.57178 4.80543 2.7456 4.55795 2.8374C4.8633 2.92431 5.09599 3.0761 5.25236 3.29276C5.40626 3.51187 5.48998 3.75668 5.50845 4.0272C5.50106 4.32832 5.42473 4.61965 5.28437 4.91098C5.14032 5.19986 4.93717 5.46304 4.67246 5.69806C4.40528 5.93308 4.07655 6.12282 3.68995 6.26726C3.29719 6.4117 2.85272 6.48514 2.35408 6.48514C2.0906 6.48514 1.81727 6.45699 1.53779 6.39578C1.2583 6.33703 1.0059 6.23053 0.778127 6.08242C0.551584 5.93308 0.364439 5.73846 0.219156 5.50221C0.0738728 5.26229 0 4.96362 0 4.60374C0 4.47644 0.00492486 4.34546 0.0135434 4.21326C0.0233931 4.08228 0.0443237 3.94886 0.0775665 3.81054L0.437081 2.12132C0.498642 1.85937 0.597139 1.59986 0.732572 1.34158C0.871699 1.08698 1.05638 0.8593 1.28908 0.657327C1.51809 0.457803 1.79634 0.295002 2.11769 0.177491C2.43903 0.0587555 2.80963 0 3.23071 0Z" transform="translate(129.628 40.0561)" fill="white"/>
<path fill-rule="evenodd" clip-rule="evenodd" d="M6.62837 6.33213H5.57568L6.82167 0H7.86451L6.62837 6.33213ZM2.31792 5.44958C2.65158 5.44958 2.93476 5.40428 3.16253 5.31615C3.38662 5.22802 3.56883 5.11663 3.69811 4.98443C3.83355 4.85468 3.93081 4.71268 3.99114 4.55967C4.05024 4.40789 4.08225 4.26712 4.08225 4.13982C4.08225 3.92071 3.99114 3.72363 3.81508 3.55349C3.64148 3.38579 3.32013 3.3001 2.85719 3.3001H1.19752L1.05716 4.01129C0.973436 4.44461 1.04238 4.79347 1.27508 5.05665C1.50901 5.31738 1.85375 5.44958 2.31792 5.44958ZM1.86747 0L1.37622 2.3796H3.03836C3.51237 2.3796 3.88666 2.44447 4.17107 2.57423C4.45425 2.69786 4.67094 2.85209 4.82238 3.03203C4.97013 3.21197 5.06986 3.39803 5.11664 3.5951C5.16466 3.79218 5.18559 3.95743 5.18559 4.09575C5.18559 4.37361 5.12896 4.65637 5.01445 4.93546C4.89749 5.21822 4.72266 5.46916 4.48749 5.68704C4.2511 5.90371 3.95438 6.08242 3.5924 6.21462C3.23166 6.35417 2.80689 6.42149 2.31809 6.42149C1.92288 6.42149 1.56705 6.36518 1.2494 6.25501C0.93298 6.14485 0.673194 5.97837 0.472506 5.75926C0.270587 5.53526 0.13146 5.25984 0.0514306 4.93057C-0.0261358 4.60252 -0.0150549 4.22673 0.0785173 3.80075L0.839407 0H1.86747Z" transform="translate(136.731 40.1192)" fill="white"/>
<path fill-rule="evenodd" clip-rule="evenodd" d="M0 6.34682L1.25091 0H2.31838L1.77541 2.75172H2.66681C2.78377 2.75172 2.9069 2.74315 3.03125 2.72846C3.1556 2.70887 3.27749 2.66848 3.39692 2.60483C3.51758 2.54118 3.63208 2.4457 3.74535 2.32207C3.85739 2.20088 3.96328 2.03563 4.0667 1.83244L4.99257 0H6.13883L5.20065 1.84345C5.04551 2.1507 4.87438 2.40775 4.68354 2.61952C4.49639 2.82516 4.27847 2.96348 4.02853 3.03448C4.31417 3.1018 4.50009 3.25114 4.59366 3.47392C4.68969 3.7016 4.75249 3.97212 4.78942 4.28671L5.00612 6.34682H3.97559L3.82292 4.59272C3.76259 4.18388 3.64562 3.91948 3.47449 3.79585C3.30335 3.671 3.07065 3.60979 2.78008 3.60979H1.6092L1.06746 6.34682H0Z" transform="translate(148.854 40.1046)" fill="white"/>
<path fill-rule="evenodd" clip-rule="evenodd" d="M2.0708 4.04067C2.0708 4.22061 2.0905 4.39687 2.12374 4.56824C2.15699 4.73717 2.21978 4.8865 2.3035 5.01258C2.38845 5.14233 2.50419 5.24271 2.64578 5.32227C2.78737 5.39816 2.96097 5.43611 3.16781 5.43611C3.55318 5.43611 3.87207 5.33206 4.1257 5.12397C4.37933 4.91588 4.58371 4.65515 4.73515 4.34424C4.89028 4.0321 4.9974 3.69425 5.06019 3.33193C5.11805 2.96838 5.14884 2.63421 5.14884 2.32819C5.14884 1.94261 5.06511 1.63047 4.90629 1.39177C4.74007 1.15675 4.44951 1.03557 4.02843 1.03557C3.67753 1.03557 3.37589 1.13839 3.12841 1.34403C2.87848 1.54845 2.67656 1.80306 2.52143 2.10908C2.36875 2.41755 2.25548 2.7456 2.18161 3.09691C2.10897 3.44577 2.0708 3.76035 2.0708 4.04067ZM2.78008 0.0771166L2.63972 0.767494L2.67666 0.780959C2.9266 0.531248 3.20854 0.341517 3.52127 0.203196C3.834 0.067324 4.17135 0 4.53087 0C4.85837 0 5.12924 0.0563074 5.34962 0.17137C5.56755 0.290105 5.74238 0.440666 5.87535 0.631622C6.00955 0.825026 6.10066 1.04781 6.16099 1.30486C6.21394 1.55947 6.24349 1.82877 6.24349 2.10908C6.24349 2.573 6.19054 3.05651 6.0822 3.56695C5.97508 4.07984 5.79902 4.55478 5.56016 4.98932C5.32008 5.42387 5.00488 5.78375 4.61459 6.06528C4.22553 6.3456 3.74905 6.48637 3.19377 6.48637C2.86627 6.48637 2.57077 6.41904 2.31345 6.29174C2.04997 6.16566 1.84436 5.96613 1.70031 5.69194L1.67445 5.70418L1.04284 8.9798H0L1.75079 0.0771166H2.78008Z" transform="translate(155.07 40.0428)" fill="white"/>
<path fill-rule="evenodd" clip-rule="evenodd" d="M1.0293 4.29771C1.0293 4.43358 1.04284 4.57802 1.07116 4.72614C1.1044 4.8767 1.15981 5.01257 1.24599 5.14232C1.33218 5.27085 1.44545 5.37734 1.58704 5.46303C1.72863 5.54871 1.917 5.59156 2.14724 5.59156C2.53384 5.59156 2.85642 5.47527 3.11867 5.2427C3.38092 5.01257 3.59761 4.73103 3.76136 4.39441C3.92881 4.05779 4.04946 3.69914 4.12457 3.31845C4.19598 2.94021 4.23168 2.5987 4.23168 2.30369C4.23168 1.91077 4.14796 1.58761 3.98175 1.32933C3.8143 1.0735 3.51635 0.946198 3.08789 0.946198C2.68405 0.946198 2.34916 1.05881 2.08445 1.29139C1.8185 1.52029 1.60797 1.80672 1.45283 2.14824C1.29893 2.48853 1.18935 2.85453 1.12533 3.24011C1.05885 3.63059 1.0293 3.98312 1.0293 4.29771ZM2.98692 0C3.29473 0 3.59761 0.0599796 3.89064 0.183611C4.18613 0.308467 4.40528 0.506766 4.54318 0.780959L4.58135 0.767494L4.74879 0.0771166H5.73869L4.50132 6.40925H3.47202L3.61484 5.71642L3.57668 5.69194C3.32058 5.98082 3.06326 6.18769 2.8084 6.30765C2.54984 6.42516 2.23835 6.48637 1.87144 6.48637C1.53779 6.48637 1.25461 6.43006 1.01821 6.31989C0.783052 6.2085 0.593445 6.05182 0.439543 5.85352C0.290566 5.654 0.180988 5.41653 0.108347 5.14845C0.034474 4.88283 0 4.58783 0 4.27324C0 3.83013 0.0566358 3.35519 0.171139 2.85087C0.286873 2.34777 0.46663 1.88385 0.709179 1.46399C0.952959 1.04291 1.26446 0.692826 1.63998 0.416185C2.01796 0.13832 2.46489 0 2.98692 0Z" transform="translate(162.768 40.0426)" fill="white"/>
<path fill-rule="evenodd" clip-rule="evenodd" d="M3.46587 6.25501C3.03371 6.40802 2.60648 6.48514 2.18664 6.48514C1.81604 6.48514 1.49469 6.42394 1.22136 6.30031C0.946804 6.17545 0.72026 6.00653 0.540503 5.78742C0.358283 5.57198 0.225312 5.31493 0.134202 5.01992C0.0430925 4.72492 0 4.40544 0 4.05413C0 3.50697 0.068948 2.99041 0.211769 2.49956C0.35459 2.00748 0.565127 1.57905 0.838457 1.20694C1.1204 0.836042 1.4713 0.542264 1.89238 0.324379C2.31099 0.107718 2.80347 0 3.37106 0C3.74782 0 4.11595 0.0709963 4.47669 0.214213C4.83744 0.36355 5.13539 0.582659 5.37917 0.878885L4.6072 1.62435C4.44345 1.43584 4.24892 1.28528 4.02607 1.17144C3.80199 1.05393 3.5619 0.996396 3.30704 0.996396C2.91182 0.996396 2.57201 1.08575 2.28883 1.26324C2.00565 1.44441 1.77541 1.67208 1.59319 1.94995C1.41466 2.22904 1.28169 2.53383 1.19674 2.87168C1.10932 3.2083 1.06746 3.54002 1.06746 3.8644C1.06746 4.09942 1.08839 4.31486 1.13025 4.50704C1.17581 4.69922 1.24722 4.86692 1.35064 5.00646C1.45406 5.14845 1.5895 5.25862 1.7631 5.33451C1.93054 5.4104 2.15216 5.44835 2.41564 5.44835C2.72591 5.44835 3.01894 5.3798 3.29473 5.23781C3.5656 5.09582 3.7946 4.96239 3.97436 4.83387L4.59243 5.61727C4.27477 5.88902 3.90049 6.10078 3.46587 6.25501Z" transform="translate(169.473 40.0434)" fill="white"/>
<path fill-rule="evenodd" clip-rule="evenodd" d="M3.0362 0.932739C2.65083 0.932739 2.32948 1.04291 2.07092 1.26569C1.8136 1.48602 1.60676 1.76144 1.45286 2.09071C1.29895 2.41999 1.19061 2.77742 1.12535 3.1581C1.05887 3.54246 1.02686 3.89377 1.02686 4.20836C1.02686 4.33566 1.04532 4.47766 1.0798 4.62944C1.11427 4.78367 1.17583 4.92811 1.2731 5.05909C1.36667 5.19251 1.49595 5.30268 1.6597 5.39081C1.82222 5.48017 2.03522 5.52669 2.30116 5.52669C2.69023 5.52669 3.00911 5.42876 3.26766 5.23046C3.52376 5.03583 3.73429 4.78245 3.89682 4.47154C4.05934 4.16062 4.17753 3.81298 4.24402 3.43475C4.3142 3.05406 4.34744 2.67827 4.34744 2.30248C4.34744 1.83366 4.22801 1.48602 3.983 1.26569C3.73676 1.04291 3.42157 0.932739 3.0362 0.932739ZM3.15437 0C3.83892 0 4.38435 0.200748 4.79435 0.605916C5.19942 1.01231 5.40503 1.5558 5.40503 2.23883C5.40503 2.72234 5.35209 3.21687 5.2499 3.71996C5.14401 4.22673 4.97534 4.68208 4.73402 5.09215C4.49393 5.50221 4.17751 5.83516 3.78229 6.08854C3.3883 6.34437 2.9032 6.4729 2.32946 6.4729C1.57349 6.4729 0.997283 6.28439 0.597139 5.9086C0.196994 5.53648 0 4.99544 0 4.2965C0 3.73342 0.0627919 3.19483 0.192069 2.6746C0.320116 2.15192 0.513416 1.69289 0.769509 1.29752C1.02683 0.900918 1.35434 0.585107 1.74832 0.350085C2.14231 0.116287 2.6114 0 3.15437 0Z" transform="translate(175.573 40.0558)" fill="white"/>
<path fill-rule="evenodd" clip-rule="evenodd" d="M7.83668 6.40802L8.58402 2.6085C8.6776 2.12377 8.6579 1.74063 8.52739 1.45542C8.39318 1.17511 8.07676 1.03434 7.58058 1.03434C7.37251 1.03434 7.16813 1.07351 6.96375 1.14328C6.75444 1.21551 6.5673 1.32078 6.39493 1.45542C6.22379 1.59374 6.07727 1.75655 5.95907 1.95362C5.83842 2.15192 5.75223 2.36858 5.70052 2.6085L4.96918 6.40802H3.9128L4.65768 2.6085C4.75372 2.12377 4.72047 1.73818 4.56165 1.4493C4.40282 1.16287 4.05931 1.0221 3.52497 1.0221C3.10512 1.0221 2.73329 1.16287 2.41441 1.4493C2.09183 1.73818 1.88253 2.12377 1.78895 2.6085L1.04407 6.40802H0L1.23368 0.0758926H2.27528L2.13492 0.820129H2.16324C2.4181 0.542265 2.71483 0.340292 3.05587 0.203196C3.39569 0.0661 3.72688 0 4.05562 0C4.48162 0 4.82759 0.0795648 5.08861 0.238694C5.34962 0.405168 5.56632 0.625502 5.73992 0.908263C5.73992 0.897246 5.74484 0.897246 5.75223 0.908263C6.11298 0.547161 6.47126 0.308467 6.82585 0.182387C7.1829 0.0587555 7.56458 0 7.97827 0C8.27868 0 8.54832 0.0550833 8.7884 0.164026C9.02972 0.276641 9.22672 0.434546 9.38062 0.638966C9.53452 0.843387 9.6404 1.08943 9.7032 1.37341C9.76229 1.65984 9.7586 1.9781 9.69088 2.32696L8.86597 6.40802H7.83668Z" transform="translate(182.328 40.0434)" fill="white"/>
<path fill-rule="evenodd" clip-rule="evenodd" d="M6.62742 6.33213H5.57227L6.81949 0H7.86232L6.62742 6.33213ZM2.31826 5.44958C2.65192 5.44958 2.9314 5.40428 3.16041 5.31615C3.38695 5.22802 3.56917 5.11663 3.69968 4.98443C3.83265 4.85468 3.92992 4.71268 3.98778 4.55967C4.04935 4.40789 4.08136 4.26712 4.08136 4.13982C4.08136 3.92071 3.99394 3.72363 3.81418 3.55349C3.64058 3.38579 3.32047 3.3001 2.85753 3.3001H1.19662L1.05626 4.01129C0.968849 4.44461 1.04149 4.79347 1.27665 5.05665C1.50566 5.31738 1.85409 5.44958 2.31826 5.44958ZM1.86625 0L1.375 2.3796H3.03714C3.51239 2.3796 3.88544 2.44447 4.16739 2.57423C4.45303 2.69786 4.66973 2.85209 4.81993 3.03203C4.96768 3.21197 5.06864 3.39803 5.11419 3.5951C5.16221 3.79218 5.18561 3.95743 5.18561 4.09575C5.18561 4.37361 5.12774 4.65637 5.01077 4.93546C4.89627 5.21822 4.72021 5.46916 4.48504 5.68704C4.24865 5.90371 3.9507 6.08242 3.58995 6.21462C3.22921 6.35417 2.80567 6.42149 2.31811 6.42149C1.92166 6.42149 1.56707 6.36518 1.24818 6.25501C0.93053 6.14485 0.670744 5.97837 0.470056 5.75926C0.269368 5.53526 0.12901 5.25984 0.0514433 4.93057C-0.0248919 4.60252 -0.0162734 4.22673 0.0772988 3.80075L0.835727 0H1.86625Z" transform="translate(193.705 40.1192)" fill="white"/>
<mask id="mask1" mask-type="alpha" maskUnits="userSpaceOnUse" x="0" y="1" width="53" height="53">
<path fill-rule="evenodd" clip-rule="evenodd" d="M0 0H52.6147V52.3081H0L0 0Z" transform="translate(0.000488281 1.22455)" fill="white"/>
</mask>
<g mask="url(#mask1)">
<path fill-rule="evenodd" clip-rule="evenodd" d="M52.6147 26.1548C52.6147 11.7083 40.8357 0 26.3073 0C11.7766 0 0 11.7083 0 26.1548C0 40.6001 11.7766 52.3083 26.3073 52.3083C40.8357 52.3083 52.6147 40.6001 52.6147 26.1548Z" transform="translate(0.000488281 1.22423)" fill="#0088B2"/>
</g>
<path fill-rule="evenodd" clip-rule="evenodd" d="M4.03099 8.97248e-05L0 0.0196749C0.0603295 0.271834 0.254861 0.486047 1.11179 0.588869H1.11425C1.37896 0.623143 1.704 0.642728 2.1103 0.651297C6.0428 1.16663 4.4533 4.80703 2.74807 4.2513C4.10856 3.40669 4.15904 2.0394 4.15904 2.0394C4.15904 2.0394 1.91946 2.15323 1.34449 3.30019C0.768277 4.44715 1.34079 5.72875 1.34079 5.72875C1.34079 5.72875 1.75694 5.15711 3.07065 4.99676C4.38066 4.83763 5.86181 3.42138 5.01966 1.81294C4.71801 1.23885 4.38558 0.892439 3.9916 0.697812C5.18218 0.892439 5.92829 1.69666 5.95784 4.27945C5.97754 5.80465 6.5045 6.0923 6.68795 6.19268V3.11536C6.68795 1.22906 6.86771 -0.012151 4.03099 8.97248e-05Z" transform="translate(12.0879 35.039)" fill="#FEFEFE"/>
<path fill-rule="evenodd" clip-rule="evenodd" d="M6.68919 3.07487V0C6.50697 0.100374 5.97877 0.385583 5.95907 1.90955C5.92706 4.4948 5.18341 5.29779 3.9916 5.49487C4.38558 5.29779 4.72047 4.95383 5.02335 4.37729C5.86304 2.7713 4.38435 1.35505 3.07188 1.1947C1.7594 1.03557 1.34325 0.4627 1.34325 0.4627C1.34325 0.4627 0.769509 1.74675 1.34449 2.89371C1.92192 4.03699 4.15904 4.15573 4.15904 4.15573C4.15904 4.15573 4.11102 2.78599 2.7493 1.94138C4.45576 1.38443 6.04403 5.02727 2.1103 5.54016C1.70646 5.54873 1.37896 5.57076 1.11548 5.60014H1.11425C0.256093 5.70418 0.0627919 5.92207 0 6.173L4.03223 6.19014C6.86894 6.20483 6.68919 4.96239 6.68919 3.07487Z" transform="translate(12.0562 13.7586)" fill="#FEFEFE"/>
<path fill-rule="evenodd" clip-rule="evenodd" d="M2.65919 6.19136L6.69265 6.17055C6.62863 5.92084 6.43533 5.70541 5.57471 5.60136C5.31123 5.56953 4.98619 5.54873 4.57989 5.54016C0.64862 5.02482 2.23689 1.38688 3.94089 1.94138C2.58163 2.78599 2.53115 4.15206 2.53115 4.15206C2.53115 4.15206 4.77072 4.03699 5.3457 2.89249C5.92191 1.74553 5.34816 0.4627 5.34816 0.4627C5.34816 0.4627 4.93078 1.03557 3.622 1.1947C2.30707 1.35383 0.828377 2.7713 1.67053 4.38096C1.97218 4.95505 2.30583 5.29779 2.69982 5.49119C1.50801 5.29901 0.763123 4.49357 0.732343 1.90955C0.712643 0.385583 0.183221 0.0991499 0.00223302 0V3.0761C0.00223302 4.96117 -0.176293 6.2036 2.65919 6.19136Z" transform="translate(34.3086 13.6484)" fill="#FEFEFE"/>
<path fill-rule="evenodd" clip-rule="evenodd" d="M7.15687 22.164C6.34919 23.6121 7.19873 25.9843 9.24131 25.9953C10.374 26.0027 11.1866 24.7517 10.9712 23.8912C8.7082 25.6991 6.71609 24.0221 7.72076 22.4786C8.35853 21.4981 11.769 20.9767 12.0029 23.3771C12.1593 24.9941 10.9244 26.9489 8.91012 26.9159C5.72127 26.8644 4.37802 23.2865 5.59692 21.186C6.54865 19.5469 9.35828 18.7305 11.4501 19.3437C11.4452 19.4392 8.3967 19.9448 7.15687 22.164ZM3.31288 21.5899C0.0341556 19.8774 2.08905 15.1611 7.48669 18.1748C7.39066 18.0903 7.71324 18.2898 7.61105 18.1429C6.35398 16.6067 5.82209 14.7253 6.46109 13.3042C6.57929 16.3644 8.10846 17.7818 9.81492 18.5542C7.22321 18.7709 5.0846 19.602 3.31288 21.5899ZM16.2749 8.8265C18.8494 8.64656 21.3426 7.245 22.7868 7.1079C21.5962 9.77761 18.7201 10.2476 16.2749 8.8265ZM25.3578 11.3016C26.7626 10.3113 27.8867 8.24751 26.9239 6.46281C26.4918 5.66717 25.2076 5.18978 24.3876 5.21059C26.8956 9.56829 23.1786 13.2148 20.3222 12.8953C21.7848 12.2074 23.0222 11.2073 23.8988 10.1167C24.8875 8.89627 25.0414 6.26941 22.3672 5.96706C21.3428 5.85078 19.9639 6.04908 18.4704 6.78107C19.3138 5.2314 22.3007 2.00719 24.7841 2.19937C24.5945 3.51525 22.5285 5.14326 21.1052 5.06859C21.1101 5.0943 20.9193 5.20202 21.0621 5.25221C22.1357 5.61698 27.2083 4.93762 27.2416 0.229832C23.2254 -0.403013 21.5878 1.46859 18.9149 5.20202C18.9567 5.01841 18.9875 4.83847 19.0097 4.6622V4.64874L19.0208 4.54836C19.2473 2.67063 21.3416 0.679067 22.5174 0.210247C22.0557 0.0119474 20.0057 -0.317328 18.9888 0.72803C18.6428 1.08668 18.5098 1.60202 18.4938 2.14183C18.1577 1.56285 17.6972 1.0928 17.2257 0.717014C16.5731 0.322862 15.8553 0.149044 15.172 0.178421C13.2981 0.260434 11.9376 2.14551 12.5889 3.98162C11.6335 3.57033 9.79651 3.6352 8.88295 5.07349C10.1659 4.73197 12.3907 5.7908 13.468 6.07846C15.3185 6.57788 16.9573 5.93891 16.94 3.92286C13.4089 6.30001 12.1715 1.03405 14.8728 0.642345C16.6938 0.381618 18.516 2.66941 17.595 5.40644C16.0511 9.20841 11.7184 7.1385 10.912 6.50811C11.1336 6.86553 11.4365 7.17645 11.8834 7.50205L11.7665 7.48369C11.7665 7.48369 13.5677 9.51565 16.0141 10.2929C19.1833 11.3004 21.9277 10.042 23.3251 7.13238C23.479 7.16788 23.612 7.23276 23.7215 7.33558C24.5218 7.99291 23.1453 10.9821 20.5684 12.0066C20.1202 12.1854 19.6167 12.342 19.086 12.4498C19.0331 12.4228 18.9937 12.4363 18.9592 12.4767C16.4131 12.9675 13.2144 12.3861 11.6039 8.26465C11.6556 9.44588 11.7923 10.3835 12.0139 11.1241L12.0102 11.1192L12.0238 11.1584C12.0693 11.3114 12.1198 11.4619 12.1752 11.5978C13.7007 16.286 11.8452 18.8664 11.7332 18.8639C8.81277 18.0683 8.13191 15.8111 8.1196 12.4657C8.20578 10.6198 7.82041 9.0199 6.5855 8.57924C6.70001 12.0666 4.20557 14.1537 6.32572 17.138C4.50106 16.3582 2.80814 16.0534 1.26297 16.9017C-0.564156 17.9055 -0.686046 21.8886 2.76135 22.7822C-1.13051 23.4774 -0.942139 28.7299 4.71652 27.3271C3.27354 27.1766 1.21618 25.1642 3.14057 23.131C3.23414 26.6196 6.79481 27.5475 8.86325 27.3333C10.4527 27.348 12.1075 26.8804 13.5517 27.3369C13.761 26.6453 12.9669 25.8081 12.1383 26.0835C12.6899 25.813 13.6219 24.8704 13.6674 23.9634C13.7635 21.9584 12.2626 21.0379 10.5475 21.1052C12.2503 20.5996 13.9026 19.274 13.5049 15.3178C13.4421 14.6812 13.3387 13.7852 13.1614 13.041C13.5886 13.3886 14.0934 13.5857 14.6746 13.6897C16.3564 13.9823 17.9693 13.7828 19.4098 13.2699C22.1985 14.915 25.8294 11.1657 27.0483 13.7791C27.441 11.9271 26.5028 11.3052 25.3578 11.3016Z" transform="translate(19.561 20.3833)" fill="#FEFEFE"/>
<path fill-rule="evenodd" clip-rule="evenodd" d="M0.00231775 3.11538V6.1927C0.183306 6.09232 0.710266 5.80711 0.729965 4.28069C0.761977 1.69545 1.50686 0.893682 2.69744 0.700278C2.30223 0.894906 1.96857 1.23642 1.66815 1.81418C0.826 3.42017 2.30592 4.83765 3.61716 4.99678C4.93087 5.15591 5.34579 5.73 5.34579 5.73C5.34579 5.73 5.92076 4.44594 5.34455 3.30143C4.76835 2.15448 2.53123 2.03819 2.53123 2.03819C2.53123 2.03819 2.57925 3.4067 3.93974 4.25132C2.23451 4.80704 0.648705 1.16665 4.57874 0.648867C4.98381 0.641523 5.31131 0.623161 5.57602 0.590112C6.43418 0.486065 6.62748 0.270628 6.68904 0.0196933L2.65805 0.000108154C-0.178671 -0.0133567 0.00231775 1.23153 0.00231775 3.11538Z" transform="translate(34.3408 35.1489)" fill="#FEFEFE"/>
<path fill-rule="evenodd" clip-rule="evenodd" d="M7.52696 5.68697C7.69933 4.54246 8.76063 3.41876 10.6641 2.9732C12.9714 2.43706 13.6929 0.00115038 13.6929 0.00115038C13.6929 0.00115038 13.2509 0.241069 11.9655 0.359804C10.685 0.478539 7.75473 0.638893 6.86949 2.63413C6.82147 2.74552 6.77961 2.85569 6.74144 2.96586C6.19232 0.963272 4.55234 0.0317522 3.07489 0.00115038C0.884559 -0.0453644 -0.248158 1.32682 0.127362 2.64392C0.420391 3.67459 1.35981 4.02101 2.05175 4.1324C2.28691 4.17034 2.53808 4.16912 2.79171 4.1581C4.75673 4.08588 6.1283 1.61203 3.33098 1.17259C3.6277 2.39299 3.25095 3.88636 2.8545 3.86677C1.36843 3.78966 1.47431 0.190882 3.15245 0.301048C4.59174 0.392854 5.9547 1.46759 6.52598 5.08962C6.54937 5.34913 6.58508 5.59272 6.62694 5.8155C6.7673 6.55729 6.96922 7.06405 6.96922 7.06405C6.96922 7.06405 6.1837 6.06888 4.88354 5.20713C1.98896 3.29758 -1.19373 5.81672 0.448709 9.00054C1.43984 10.9248 4.76411 11.3324 7.43092 11.0545C7.43092 11.0545 6.64664 9.66154 4.9845 7.74341C3.93551 6.53036 1.62575 6.62339 1.12834 6.73233C1.31918 7.00775 1.28963 6.93797 1.28963 6.93797C3.1857 6.8021 3.89118 9.02992 4.69024 9.85249C3.98229 9.9749 2.84711 9.77538 1.99019 9.18048C0.266489 7.98333 0.0744199 5.08228 2.1404 5.0223C4.2076 4.9611 5.98178 9.30656 9.27405 10.0422C11.9889 10.6494 13.965 8.43379 14.5781 7.6357C14.2752 7.86949 13.7729 8.1547 13.2213 8.17674C9.97338 10.2075 7.24009 7.61244 7.52696 5.68697Z" transform="translate(5.77783 20.4955)" fill="#FEFEFE"/>
<path fill-rule="evenodd" clip-rule="evenodd" d="M15.1464 2.38816C15.2116 2.25474 15.1673 2.05889 14.942 1.77857C13.7034 1.05392 11.9526 0.919273 10.2265 1.48847C8.55078 2.04297 7.21368 2.49955 5.54539 2.95858C3.28734 3.58041 1.12533 2.29268 0.0443237 0.00611426C-0.0381676 -0.0710024 0.0812601 0.608358 0 0.526345C0.600832 2.64522 2.44273 3.81421 4.66507 4.20591C8.41288 4.86691 11.6424 2.28289 14.0949 2.207C14.4224 2.19598 14.8127 2.26086 15.1464 2.38816Z" transform="translate(5.771 29.7749)" fill="#FEFEFE"/>
<path fill-rule="evenodd" clip-rule="evenodd" d="M8.26759 6.97914C9.64039 7.72338 9.98882 9.53256 9.47664 11.2438C9.39169 8.12732 8.31807 7.31698 7.12256 6.5348C7.51039 6.65599 7.86006 6.75636 8.26759 6.97914ZM4.35472 8.03552C4.38426 9.81654 3.32542 11.0994 1.69283 11.5205C1.06614 10.0369 1.94031 8.1567 3.4707 7.11991C4.98633 6.58254 6.7285 7.104 8.17271 9.45789C8.66889 10.2695 8.93853 11.2524 9.07888 12.1986C9.1072 12.3944 9.11336 12.6442 9.10474 12.9208C10.219 11.436 10.6117 9.4175 9.93211 7.98778C9.52335 7.1297 8.24781 5.37438 8.95822 3.63865C9.6674 1.90046 12.051 1.83314 12.5694 1.04361C12.3638 1.77561 11.5893 1.69115 9.82992 3.26163C8.60856 4.34983 9.35837 6.28999 9.35837 6.28999C9.35837 6.28999 9.21432 5.55677 10.2067 4.6938C11.6804 3.41097 14.2918 3.48809 13.856 0.0655758C13.856 0.0655758 9.22047 0.345889 8.35616 3.03885C7.96956 4.24334 8.22565 5.65714 8.57532 6.64007C8.05328 6.25082 7.38596 5.95337 6.54628 5.78934C5.85557 5.65714 5.17963 5.65225 4.54309 5.75507C3.81175 5.63756 3.14689 5.39886 2.68642 4.95208C1.44289 3.74147 1.36656 0.731472 3.03485 0.617633C3.23185 0.604168 3.94595 0.5956 4.50985 1.34351C4.95924 1.94086 5.40494 3.51991 4.34733 4.96187C4.40766 5.11978 5.29659 5.15038 6.1843 4.58853C6.62384 4.30821 6.93534 3.94956 7.12248 3.56153C7.24561 3.35711 7.37242 3.10373 7.48816 2.79281C8.15301 1.03749 9.5172 0.196552 10.0183 0.157381C10.5182 0.119435 8.85973 -0.211065 7.48816 0.217361C7.14465 0.325079 6.87501 0.648235 6.66324 1.06809C6.40838 0.813485 6.08334 0.598048 5.69058 0.446263C4.75117 0.0827128 3.96196 0.0655758 2.93882 0.121883C0.248617 0.142692 -0.663712 2.97887 0.781733 4.51753C1.45028 5.22749 2.45865 5.7416 3.34635 6.09169C2.4648 6.44789 1.68421 7.02566 1.07969 7.7601C-0.314048 9.43586 -0.190926 11.0639 0.508403 13.654C6.1449 11.6955 4.6182 7.9939 4.6182 7.9939C4.6182 7.9939 4.58126 7.83232 4.35472 8.03552Z" transform="translate(19.3809 6.80844)" fill="#FEFEFE"/>
<path fill-rule="evenodd" clip-rule="evenodd" d="M1.47561 4.60739C0.813219 2.30124 3.65855 0.703823 3.25964 2.77006C3.11682 3.51185 2.76962 4.201 2.37563 4.78856C2.57385 4.77754 2.76716 4.77509 2.94076 4.77754C3.81369 3.42004 4.7962 1.04534 2.69944 0.178696C1.65044 -0.257074 0.489409 0.117492 0.129895 1.15673C-0.233313 2.1923 0.149594 3.48981 1.47561 4.60739Z" transform="translate(29.3115 11.3414)" fill="#FEFEFE"/>
<path fill-rule="evenodd" clip-rule="evenodd" d="M0.616307 3.98558C0.741891 4.08596 0.873631 4.20224 0.989365 4.32343C1.02507 4.35158 1.05339 4.37973 1.08909 4.40422C1.06939 4.39198 1.04723 4.37729 1.0263 4.36382C1.20729 4.55967 1.33903 4.76532 1.31933 4.94036L1.31564 4.94648C1.41044 5.01625 1.48801 5.09092 1.53726 5.17905C1.51632 5.17416 1.50032 5.17538 1.47939 5.17171C1.90908 5.47773 2.07653 6.00041 2.13809 6.40435C2.40157 5.64053 2.50745 4.29527 2.07037 3.0761C1.23191 0.734444 2.17379 0.216661 2.20827 0C0.0671856 0.672016 -0.62845 2.644 0.616307 3.98558Z" transform="translate(20.0728 27.2307)" fill="#FEFEFE"/>
<path fill-rule="evenodd" clip-rule="evenodd" d="M7.40821 0.0125287C7.36758 0.0137528 7.32695 0.0198732 7.28632 0.0247695C7.03639 0.0945416 6.4651 0.24143 6.41832 0.291617C6.14006 0.455643 5.85688 0.715147 5.55647 1.13011H5.55524C5.39887 1.34065 5.23881 1.59893 5.07014 1.89515C4.77711 2.48148 3.73058 4.82559 3.49665 5.38254C2.4415 7.77805 1.23491 8.30073 0 7.80131C0.389064 8.40355 0.966503 8.70467 1.48238 8.71569C4.44468 8.79036 5.24866 5.27604 5.77809 2.9197C6.36291 0.324667 7.23461 0.258567 7.56335 0.354045C8.307 0.56581 7.22969 3.57703 6.04895 4.11073C7.35527 4.48529 8.85489 3.59784 9.25257 2.25258C9.59854 1.07502 9.13314 -0.136808 7.40821 0.0125287Z" transform="translate(24.4722 16.8508)" fill="#FEFEFE"/>
<path fill-rule="evenodd" clip-rule="evenodd" d="M10.4783 0.335119C10.924 0.396323 11.4755 0.797819 11.2527 1.55919C10.9597 2.58129 9.57455 3.05011 8.19189 3.5018C8.31625 1.52247 9.08576 0.139267 10.4783 0.335119ZM11.3106 7.8191C8.61666 7.62448 8.56618 12.4461 8.19682 14.0802C8.68438 10.5414 8.00721 8.1545 8.68807 4.81645C10.0104 4.37089 10.2542 4.15178 10.9474 3.43325C12.0875 2.24712 12.3596 0.0927521 10.2542 0.00461883C8.01829 -0.0884108 6.64426 1.22624 6.66273 3.73315C2.12078 4.59979 0.232096 6.18007 0.0252521 7.72118C-0.191442 9.32839 1.01392 10.4447 2.58741 10.4484C2.77578 10.4252 3.02695 10.4129 3.10575 10.408C3.14392 10.4031 3.18332 10.3946 3.22271 10.3884C3.46773 10.3272 4.19414 10.1338 4.59921 9.83883C4.61768 9.81312 4.62507 9.79721 4.62507 9.79721C5.29115 9.30391 5.67529 8.60618 5.63343 7.98191C5.53863 6.43957 3.45049 6.27187 2.82257 7.11159C4.5278 7.40537 3.89249 10.1693 2.4926 10.1265C0.883408 10.0726 0.0314081 8.33199 1.39067 7.28418C2.95431 6.08337 6.02865 5.64882 6.74152 5.45542C6.80801 8.96484 6.97299 14.8906 6.76861 16.2236C6.61594 17.2053 5.83166 17.7794 5.25791 17.8602C4.76666 17.93 4.31726 17.548 4.20522 16.9507C3.97252 15.7156 5.79103 15.0448 5.93877 16.5051C6.05204 16.4207 6.16408 16.2309 6.25766 15.969C6.14315 15.2505 5.83166 14.822 5.45244 14.5797C5.39827 14.5723 5.3404 14.5589 5.28746 14.5552C5.17911 14.5968 5.02767 14.6078 4.86146 14.5968C3.22271 14.9958 2.9974 18.0585 5.15449 18.3155C6.16285 18.4355 7.33127 17.4795 8.00475 16.6802C9.33446 15.1011 8.77672 9.68949 10.3908 8.50091C11.5839 8.48622 11.9791 9.8682 12.3756 11.7741C12.9542 14.554 12.0382 18.9398 15.3194 18.9582C13.198 15.0301 17.0579 7.57062 11.3106 7.8191Z" transform="translate(15.9316 18.0535)" fill="#FEFEFE"/>
</svg>
