<svg xmlns="http://www.w3.org/2000/svg" xmlns:xlink="http://www.w3.org/1999/xlink" width="200" height="50" viewBox="0 0 200 50"><defs><path id="r2fma" d="M58.72 9.94v.55s1.53.08 1.53 2.13V32.8h2.88V13.44c0-2.52-1.53-3.5-4.41-3.5"/><path id="r2fmb" d="M85.92 34.74s-2.12 2.92-6.94 2.92-6.46-6.15-7.57-10.26c-.95-3.54-2.07-6.26-5.37-7.07l.01-.06s.24.07.65-.1c2.64-1.08 3.72-2.08 6.6-9.33h-3.11s-4.02 9.24-6.35 9.24v.53h.06c.25.02 1.19.28 2.76 2.98 1.86 3.17 2.12 14.95 12.27 14.95 6.14 0 8.78-2.42 8.78-2.42z"/><path id="r2fmc" d="M121.05 13.8l-4.55 14.95-4.55-14.94c-.6-1.93-1.34-2.99-3.87-2.99v.47s1 .06 1 1.81v18.1h1.3V19.15l-.07-1.74.07-.03 4.27 13.8h2.63l4.11-13.8.07.03-.07 1.74V31.2h2.53V13.1c0-1.75 1-1.8 1-1.8v-.48c-2.52 0-3.28 1.06-3.87 2.99"/><path id="r2fmd" d="M184.18 29.44L183 25.02l-3.84-14.2h-3.18l-3.84 14.2-1.18 4.42c-.4 1.5-1.43 1.86-1.43 1.86v.48c1.88 0 2.75-1.08 3.28-3.07.4-1.49 2.9-10.81 4.11-15.38l4.1 15.38c.54 1.99 2.32 3.07 4.6 3.07v-.48s-1.04-.36-1.44-1.86"/><path id="r2fme" d="M82.58 10.81c-5.94 0-7.48 6.83-7.48 10.74 0 3.97 1.5 10.24 7.48 10.24 5.99 0 7.48-6.27 7.48-10.24 0-3.91-1.54-10.74-7.48-10.74m0 20.03c-3.36 0-4.2-5.45-4.2-9.31 0-3.81.87-9.77 4.2-9.77s4.2 5.96 4.2 9.77c0 3.86-.84 9.31-4.2 9.31"/><path id="r2fmf" d="M103.9 26.63c-.48 2.33-1.53 4.21-3.81 4.21-3.35 0-4.2-5.45-4.2-9.31 0-3.81.87-9.77 4.2-9.77 2.17 0 3.23 1.89 3.74 4.22h2.3c-.77-2.77-2.46-5.17-6.04-5.17-6.04 0-7.61 6.83-7.61 10.74 0 3.97 1.52 10.24 7.61 10.24 3.76 0 5.43-2.4 6.15-5.16z"/><path id="r2fmg" d="M139.22 28.1h-.8s-.33 2.2-3.07 2.2h-4.67l.08-1.94v-7.35h6.02v-.9h-6.02v-6.3l-.08-2.09h4c2.74 0 3.07 2.2 3.07 2.2h.8s-.1-2.05-.7-3.1H126.9v.47s1 .06 1 1.81v18.1h11.02c.43-1.24.31-3.1.31-3.1"/><path id="r2fmh" d="M161.16 10.81c-3.58 0-5.27 2.4-6.05 5.17h2.32c.5-2.33 1.56-4.22 3.73-4.22 3.01 0 4 4.87 4.17 8.62h-5.64v.93h5.67v.22c0 3.86-.84 9.31-4.2 9.31-2.28 0-3.33-1.88-3.8-4.21H155c.72 2.76 2.39 5.16 6.15 5.16 6.09 0 7.61-6.27 7.61-10.24 0-3.91-1.57-10.74-7.61-10.74"/><path id="r2fmi" d="M193.66 18.83c-1.64 0-2.82.32-3.55.62v-5.64c0-2.15-1.34-2.99-3.87-2.99v.47s1 .06 1 1.81V31.6h2.08l.34-1.15c.36.17 1.86.75 4.2.75 3.54 0 6.04-2.83 6.04-6.23 0-3.39-3.18-6.13-6.24-6.13m-.5 11.36c-1.44 0-2.68-.3-3.05-.4v-9.3a7.3 7.3 0 0 1 2.37-.46c2.5 0 4.73 1.25 4.73 5.04s-2.32 5.12-4.05 5.12"/><path id="r2fmj" d="M155.18 30.09s-1.06-.18-1.43-1.65l-.96-3.83-3.52-13.8h-2.91l-3.52 13.8-.95 3.8c-.37 1.47-1.44 1.68-1.44 1.68-.54 1.05-.62 3.1-.62 3.1h1.08c.17-1.32.58-1.94 2.08-2h9.65c1.5.06 1.9.68 2.07 2h1.09s-.08-2.05-.62-3.1m-11.87-1.89l3.74-14.87 3.74 14.87c.2.77.6 1.4 1.16 1.89h-9.37c.31-.48.53-1.12.73-1.89"/><path id="r2fmk" d="M99.63 35.4c.39 0 .75.06 1.08.18a2.37 2.37 0 0 1 1.6 2.29c.01.19 0 .4-.04.65a18.99 18.99 0 0 1-.3 1.54l-.16.76c-.1.47-.24.9-.43 1.28s-.42.71-.7.98c-.28.28-.61.49-1 .64-.37.15-.8.22-1.29.22-.47 0-.88-.06-1.21-.2a2.1 2.1 0 0 1-1.28-1.31c-.1-.3-.14-.63-.14-.98a16.25 16.25 0 0 1 .36-2.27l.17-.73c.1-.43.23-.83.4-1.2a2.93 2.93 0 0 1 1.6-1.61c.38-.16.82-.24 1.34-.24m-.08.95c-.37 0-.7.07-.96.2a2.22 2.22 0 0 0-1.08 1.21c-.1.26-.18.52-.23.77l-.43 2.23c-.06.3-.08.58-.06.84a1.33 1.33 0 0 0 .74 1.21c.24.13.55.19.95.19a2.12 2.12 0 0 0 1.53-.65c.19-.2.35-.43.47-.7.13-.28.23-.57.3-.89.06-.21.1-.44.16-.68a19.71 19.71 0 0 0 .28-1.43c.03-.23.05-.43.05-.6 0-.5-.15-.91-.44-1.22-.3-.32-.72-.48-1.28-.48"/><path id="r2fml" d="M106.3 43.73c-.4.14-.8.21-1.2.21-.34 0-.64-.05-.9-.17a1.75 1.75 0 0 1-.64-.48c-.17-.2-.3-.45-.38-.73a3.16 3.16 0 0 1-.13-.91c0-.52.07-1 .2-1.47.13-.46.33-.87.6-1.22.25-.35.58-.63.98-.83a2.99 2.99 0 0 1 2.42-.1c.34.13.62.34.85.62l-.73.7a1.77 1.77 0 0 0-.54-.42c-.2-.11-.43-.17-.68-.17-.37 0-.68.09-.95.25-.26.17-.48.39-.65.65-.17.27-.3.55-.38.87a3.85 3.85 0 0 0-.06 1.55c.04.18.11.34.2.47.1.13.23.24.4.3a1.75 1.75 0 0 0 1.44-.1c.25-.12.46-.24.64-.36l.57.74c-.3.25-.65.45-1.06.6"/><path id="r2fmm" d="M113.13 43.87h-.96l.5-2.62h-2.71l-.51 2.62h-.98l1.16-5.98h.98l-.5 2.56h2.72l.5-2.56h.97z"/><path id="r2fmn" d="M118.26 37.83c.64 0 1.16.19 1.54.57.38.39.58.9.58 1.54 0 .46-.05.93-.15 1.4-.1.48-.26.91-.48 1.3-.23.39-.53.7-.9.94s-.82.36-1.36.36c-.71 0-1.25-.17-1.63-.53-.37-.35-.56-.86-.56-1.52 0-.53.06-1.04.18-1.53.12-.5.3-.93.54-1.3a2.52 2.52 0 0 1 2.24-1.23m-.1.88c-.37 0-.67.1-.91.32-.25.2-.44.46-.59.77-.14.32-.24.65-.3 1.01-.06.37-.1.7-.1 1 0 .11.02.25.06.4a1.06 1.06 0 0 0 .54.72c.15.08.35.12.6.12.37 0 .67-.1.9-.28.25-.18.45-.42.6-.72.15-.3.26-.62.33-.98.06-.36.1-.71.1-1.07 0-.44-.12-.77-.35-.97a1.27 1.27 0 0 0-.89-.32"/><path id="r2fmo" d="M124.75 37.83c.37 0 .68.04.94.14.26.09.47.2.63.35.17.14.28.3.36.46.08.16.12.32.12.47 0 .27-.08.52-.23.77-.15.24-.34.4-.57.49a1.17 1.17 0 0 1 .9 1.12c-.01.29-.09.56-.22.84-.13.27-.32.52-.57.74-.25.22-.56.4-.93.54a3.6 3.6 0 0 1-2.02.12c-.26-.06-.5-.16-.7-.3a1.74 1.74 0 0 1-.53-.54c-.14-.23-.21-.51-.21-.85a5.72 5.72 0 0 1 .07-.75l.34-1.6c.06-.24.15-.49.28-.73a2.33 2.33 0 0 1 1.3-1.1c.3-.11.65-.17 1.04-.17m-.1.92c-.29 0-.52.05-.72.14a1.5 1.5 0 0 0-.74.78l-.13.38-.33 1.59a1.18 1.18 0 0 0 .06.79 1.04 1.04 0 0 0 .66.55 2.4 2.4 0 0 0 1.3-.08c.25-.1.45-.21.6-.35.17-.13.3-.28.38-.44a.9.9 0 0 0 .13-.41.66.66 0 0 0-.23-.52c-.16-.13-.42-.2-.78-.2h-.8l.16-.87h.64c.28 0 .5-.07.64-.2.14-.15.2-.3.2-.46a.65.65 0 0 0-.23-.48c-.17-.15-.44-.22-.82-.22"/><path id="r2fmp" d="M130.14 37.89l-.46 2.25h1.56c.45 0 .8.06 1.07.18.26.12.47.26.6.43.15.17.24.35.28.54.05.18.07.34.07.47a2.1 2.1 0 0 1-1.5 2c-.34.13-.73.2-1.2.2-.36 0-.7-.06-1-.16-.3-.1-.54-.26-.73-.47a1.77 1.77 0 0 1-.4-.78c-.06-.31-.05-.67.03-1.07l.72-3.59zm1.22 5.02c.21-.08.38-.19.5-.31a1.13 1.13 0 0 0 .36-.8c0-.2-.08-.4-.25-.55-.16-.16-.46-.24-.9-.24h-1.56l-.13.67c-.08.4-.01.74.2.99.23.24.55.37.99.37.31 0 .58-.05.79-.13zm3.25.96h-.98l1.17-5.98h.97z"/><path id="r2fmq" d="M139.77 43.87l1.17-5.99h1l-.5 2.6h.83c.11 0 .23 0 .35-.02a1.08 1.08 0 0 0 .67-.39c.1-.11.2-.27.3-.46l.87-1.73h1.07l-.88 1.74c-.14.3-.3.53-.48.73-.18.2-.38.33-.62.4.27.06.45.2.53.41.1.22.15.47.19.77l.2 1.94h-.97l-.14-1.65c-.06-.39-.17-.64-.33-.76a1.08 1.08 0 0 0-.65-.17h-1.1l-.5 2.58z"/><path id="r2fmr" d="M148.22 37.9l-.13.64.03.02c.24-.24.5-.42.8-.55.29-.13.6-.19.94-.19.31 0 .57.05.77.16.2.11.37.26.5.44.12.18.2.39.26.63.05.24.08.5.08.76 0 .44-.05.9-.15 1.38-.1.48-.26.93-.49 1.34-.22.41-.52.75-.89 1.02a2.22 2.22 0 0 1-2.16.21c-.25-.12-.44-.3-.57-.56h-.03l-.6 3.1h-.97l1.64-8.4zm-.67 3.74c0 .17.02.33.05.5.04.15.1.3.17.41a.9.9 0 0 0 .81.4c.37 0 .67-.1.9-.3.24-.19.43-.43.58-.73.14-.3.24-.61.3-.95.06-.35.08-.66.08-.95 0-.37-.07-.66-.22-.89-.16-.22-.43-.33-.83-.33-.33 0-.61.1-.84.29-.24.2-.43.43-.57.72a4.45 4.45 0 0 0-.42 1.82z"/><path id="r2fms" d="M155.63 37.82c.3 0 .58.06.85.17.28.12.49.3.62.57l.03-.02.16-.65h.93l-1.16 5.98h-.97l.13-.65-.03-.02c-.24.27-.48.46-.72.58a2.1 2.1 0 0 1-.88.17c-.32 0-.58-.06-.8-.16-.22-.1-.4-.25-.55-.44a1.97 1.97 0 0 1-.3-.67c-.08-.25-.11-.53-.11-.82 0-.42.05-.87.16-1.35.1-.47.28-.91.5-1.3.23-.4.53-.74.88-1s.77-.39 1.26-.39m-1.83 4.06c0 .13 0 .26.04.4a1 1 0 0 0 .48.7 1 1 0 0 0 .53.12c.36 0 .66-.1.9-.33.25-.22.46-.48.61-.8.16-.32.27-.66.34-1.02.07-.35.1-.68.1-.95 0-.38-.08-.68-.23-.92-.16-.25-.44-.37-.84-.37-.38 0-.7.11-.94.33-.25.22-.45.49-.6.8a6 6 0 0 0-.4 2.03"/><path id="r2fmt" d="M162.38 43.73c-.4.14-.8.21-1.2.21-.34 0-.65-.05-.9-.17a1.74 1.74 0 0 1-.64-.48c-.17-.2-.3-.45-.38-.73a3.09 3.09 0 0 1-.13-.91c0-.52.06-1 .2-1.47.13-.46.33-.87.59-1.22.26-.35.6-.63.99-.83a2.97 2.97 0 0 1 2.42-.1c.34.13.62.34.85.62l-.72.7a1.8 1.8 0 0 0-.55-.42 1.43 1.43 0 0 0-.67-.17c-.38 0-.7.09-.96.25-.27.17-.48.39-.65.65-.17.27-.3.55-.38.87a3.74 3.74 0 0 0-.06 1.55c.04.18.11.34.2.47.1.13.23.24.4.3.15.08.36.12.6.12.3 0 .57-.07.83-.2.26-.14.47-.26.64-.38l.58.74c-.3.25-.65.45-1.06.6"/><path id="r2fmu" d="M167.82 37.83c.64 0 1.16.19 1.54.57.38.39.58.9.58 1.54 0 .46-.05.93-.15 1.4-.1.48-.26.91-.48 1.3-.23.39-.53.7-.9.94s-.82.36-1.36.36c-.71 0-1.25-.17-1.63-.53-.38-.35-.56-.86-.56-1.52 0-.53.06-1.04.18-1.53.12-.5.3-.93.54-1.3a2.53 2.53 0 0 1 2.24-1.23m-.1.88c-.37 0-.67.1-.92.32-.24.2-.43.46-.58.77a5.9 5.9 0 0 0-.4 2c0 .12.02.26.05.4a1.06 1.06 0 0 0 .55.72c.15.09.35.13.6.13.37 0 .67-.1.9-.28.25-.18.45-.42.6-.72.15-.3.26-.62.32-.98.07-.36.1-.71.1-1.07 0-.44-.11-.77-.34-.97a1.27 1.27 0 0 0-.89-.32"/><path id="r2fmv" d="M178.56 43.87l.7-3.59c.09-.45.07-.82-.05-1.09-.13-.26-.43-.4-.9-.4a1.77 1.77 0 0 0-1.1.4 1.99 1.99 0 0 0-.65 1.09l-.7 3.6h-.99l.7-3.6c.1-.45.06-.82-.09-1.1-.15-.26-.47-.4-.97-.4-.4 0-.74.14-1.04.4-.3.28-.5.65-.59 1.1l-.7 3.6h-.98l1.16-5.99h.98l-.14.7h.03a2.47 2.47 0 0 1 1.78-.77c.4 0 .72.08.97.23.24.15.45.36.61.63h.01c.34-.34.68-.57 1-.69.34-.11.7-.17 1.1-.17.27 0 .53.05.75.15.23.11.41.26.56.45.14.2.24.43.3.7.06.27.05.57-.01.9l-.78 3.85z"/><path id="r2fmw" d="M183.63 37.89l-.46 2.25h1.56c.45 0 .8.06 1.06.18.27.12.47.26.62.43.13.17.23.35.27.54.05.18.07.34.07.47a2.06 2.06 0 0 1-.66 1.5c-.22.2-.5.37-.84.5-.34.13-.74.2-1.2.2-.37 0-.7-.06-1-.16-.3-.1-.54-.26-.73-.47a1.75 1.75 0 0 1-.4-.78c-.06-.31-.06-.67.03-1.07l.71-3.59zm1.22 5.02c.21-.08.38-.19.5-.31.13-.13.22-.26.27-.4.06-.15.1-.28.1-.4 0-.2-.09-.4-.26-.55-.16-.16-.46-.24-.9-.24H183l-.13.67c-.08.4-.01.74.2.99.22.24.55.37.99.37.31 0 .57-.05.79-.13zm3.25.96h-.99l1.17-5.98h.98z"/><path id="r2fmx" d="M49.4 25.86a24.7 24.7 0 1 0-49.4 0 24.7 24.7 0 0 0 49.4 0"/><path id="r2fmy" d="M15.13 33.09l-3.78.02c.06.24.24.44 1.04.54.25.03.56.05.94.06 3.7.48 2.2 3.92.6 3.4 1.28-.8 1.33-2.1 1.33-2.1s-2.1.11-2.65 1.2c-.54 1.08 0 2.29 0 2.29s.39-.54 1.62-.7c1.23-.14 2.62-1.48 1.83-3-.28-.54-.6-.87-.96-1.05 1.12.18 1.82.94 1.84 3.38.02 1.44.52 1.71.69 1.8v-2.9c0-1.78.17-2.95-2.5-2.94"/><path id="r2fmz" d="M17.6 15.9v-2.91c-.17.1-.67.36-.68 1.8-.03 2.45-.73 3.2-1.85 3.39.37-.19.68-.51.97-1.06.79-1.51-.6-2.85-1.84-3-1.23-.15-1.62-.7-1.62-.7s-.54 1.22 0 2.3c.54 1.08 2.65 1.2 2.65 1.2s-.05-1.3-1.33-2.1c1.6-.52 3.1 2.92-.6 3.4-.38.01-.69.03-.93.06-.81.1-1 .3-1.05.54l3.79.02c2.66.01 2.5-1.16 2.5-2.95"/><path id="r2fmA" d="M34.7 18.74l3.8-.02c-.07-.24-.25-.44-1.06-.54a9.56 9.56 0 0 0-.93-.06c-3.7-.48-2.2-3.92-.6-3.4-1.28.8-1.32 2.1-1.32 2.1s2.1-.12 2.64-1.2 0-2.3 0-2.3-.39.55-1.62.7c-1.23.15-2.62 1.49-1.83 3 .28.55.6.87.97 1.06-1.12-.19-1.82-.95-1.85-3.39-.02-1.44-.52-1.7-.69-1.8v2.9c0 1.79-.17 2.96 2.5 2.95"/><path id="r2fmB" d="M42.18 29.92c1.08 0 1.96.6 1.59 2.34-1.15-2.46-4.56 1.08-7.17-.48a8.68 8.68 0 0 1-4.45.4 3.02 3.02 0 0 1-1.42-.61c.16.7.26 1.55.32 2.15.37 3.73-1.18 4.99-2.78 5.46 1.61-.06 3.02.8 2.93 2.7-.04.86-.91 1.75-1.43 2 .78-.26 1.52.54 1.32 1.19-1.35-.43-2.9 0-4.4 0-1.94.2-5.28-.68-5.37-3.97-1.8 1.92.12 3.82 1.48 3.96-5.31 1.32-5.5-3.64-1.84-4.3-3.23-.84-3.12-4.6-1.4-5.55 1.45-.8 3.04-.51 4.75.23-2-2.82.35-4.8.24-8.09 1.16.42 1.52 1.93 1.44 3.67.02 3.16.65 5.3 3.4 6.05.1 0 1.84-2.44.41-6.87l-.14-.41-.01-.04c-.2-.7-.34-1.58-.38-2.7 1.5 3.9 4.51 4.45 6.9 3.98.03-.03.07-.05.12-.02.5-.1.97-.25 1.4-.42 2.41-.97 3.7-3.8 2.95-4.41a.79.79 0 0 0-.37-.2c-1.31 2.75-3.89 3.94-6.86 3-2.3-.74-4-2.66-4-2.66l.12.02c-.42-.31-.7-.6-.91-.94.75.6 4.82 2.55 6.27-1.04.87-2.59-.85-4.75-2.55-4.5-2.54.37-1.38 5.34 1.94 3.1.01 1.9-1.53 2.5-3.26 2.03-1.02-.27-3.1-1.27-4.3-.95.85-1.36 2.57-1.42 3.47-1.03a2.7 2.7 0 0 1 2.43-3.6c.64-.02 1.31.14 1.92.52.45.35.88.8 1.2 1.34.01-.5.13-1 .46-1.33.95-.99 2.88-.68 3.31-.5-1.1.45-3.07 2.33-3.28 4.1l-.01.1v.01l-.09.51c2.51-3.52 4.05-5.3 7.82-4.7-.03 4.45-4.8 5.1-5.8 4.75-.14-.05.04-.15.04-.17 1.33.07 3.27-1.47 3.45-2.71-2.33-.18-5.13 2.86-5.93 4.32 1.4-.69 2.7-.87 3.66-.76 2.51.28 2.37 2.76 1.44 3.91a9.6 9.6 0 0 1-3.36 2.63c2.68.3 6.17-3.14 3.82-7.26.77-.02 1.97.43 2.38 1.18.9 1.69-.15 3.64-1.47 4.57m-8.53-2.33c2.3 1.34 5 .9 6.12-1.63-1.36.13-3.7 1.46-6.12 1.63M21.48 39.64c1.66-1.88 3.67-2.66 6.1-2.87-1.6-.73-3.03-2.06-3.14-4.95-.6 1.34-.1 3.11 1.08 4.56.1.14-.21-.04-.12.04-5.07-2.85-7 1.6-3.92 3.22m3.61.54c1.16-2.1 4.03-2.57 4.03-2.66-1.96-.58-4.6.2-5.5 1.74-1.14 1.98.12 5.36 3.12 5.41 1.89.03 3.05-1.81 2.9-3.34-.22-2.27-3.42-1.78-4.02-.85-.94 1.46.93 3.04 3.05 1.33.2.82-.56 2-1.62 2-1.92-.02-2.72-2.26-1.96-3.63"/><path id="r2fmC" d="M32.24 36.14v2.9c.17-.09.67-.36.69-1.8.03-2.44.72-3.2 1.84-3.38-.37.19-.68.5-.96 1.05-.8 1.52.6 2.86 1.83 3 1.23.16 1.62.7 1.62.7s.54-1.21 0-2.3c-.54-1.08-2.64-1.19-2.64-1.19s.04 1.3 1.32 2.1c-1.6.52-3.1-2.92.6-3.4.38-.01.69-.03.94-.06.8-.1.98-.3 1.04-.54l-3.78-.02c-2.67-.01-2.5 1.16-2.5 2.94"/><path id="r2fmD" d="M12.5 24.73c.16-1.08 1.16-2.14 2.94-2.56 2.17-.5 2.85-2.8 2.85-2.8s-.42.22-1.62.33c-1.2.11-3.96.26-4.79 2.15l-.12.31a3.65 3.65 0 0 0-3.44-2.8c-2.06-.04-3.12 1.25-2.77 2.5.27.97 1.16 1.3 1.8 1.4.23.04.46.04.7.03 1.85-.07 3.13-2.4.5-2.82.29 1.15-.07 2.56-.44 2.54-1.4-.07-1.3-3.47.28-3.37 1.35.1 2.63 1.1 3.17 4.53a7.28 7.28 0 0 0 .41 1.86s-.73-.94-1.95-1.75c-2.72-1.8-5.71.57-4.17 3.58.93 1.82 4.05 2.2 6.56 1.94 0 0-.74-1.32-2.3-3.13-.98-1.14-3.15-1.05-3.62-.95.18.26.15.2.15.2 1.78-.14 2.44 1.97 3.2 2.75a3.74 3.74 0 0 1-2.54-.64c-1.62-1.13-1.8-3.87.14-3.93 1.94-.05 3.6 4.05 6.7 4.74 2.55.58 4.4-1.51 4.98-2.27-.29.22-.76.5-1.28.51-3.05 1.92-5.61-.53-5.34-2.35"/><path id="r2fmE" d="M19.64 30.38c.06-.13.02-.32-.19-.58a5.47 5.47 0 0 0-4.43-.27c-1.57.52-2.83.95-4.4 1.38-2.11.6-4.14-.62-5.16-2.78-.08-.08.04.56-.04.49.56 2 2.3 3.1 4.38 3.47 3.52.63 6.55-1.81 8.85-1.89.31 0 .68.06 1 .18"/><path id="r2fmF" d="M22.29 14.02a3.2 3.2 0 0 1-2.5 3.29c-.59-1.4.23-3.18 1.67-4.16 1.42-.5 3.06-.01 4.41 2.21a7 7 0 0 1 .85 2.6c.03.18.04.41.03.67 1.05-1.4 1.41-3.3.78-4.66-.39-.8-1.59-2.46-.92-4.1.67-1.65 2.9-1.7 3.4-2.45-.2.69-.93.6-2.58 2.09-1.15 1.03-.44 2.86-.44 2.86s-.14-.7.8-1.5c1.38-1.22 3.83-1.15 3.42-4.38 0 0-4.35.27-5.16 2.81a5.63 5.63 0 0 0 .2 3.4 4.6 4.6 0 0 0-1.9-.8 5.38 5.38 0 0 0-1.88-.03 3.18 3.18 0 0 1-1.75-.76c-1.17-1.15-1.24-3.99.33-4.1.18 0 .86-.02 1.38.69a3 3 0 0 1-.15 3.42c.06.15.9.17 1.73-.36.41-.26.7-.6.88-.97.11-.19.23-.43.34-.72.63-1.66 1.9-2.45 2.38-2.5.47-.03-1.1-.34-2.38.07-.32.1-.57.4-.77.8a2.61 2.61 0 0 0-.92-.59 5.67 5.67 0 0 0-2.58-.3c-2.53.01-3.38 2.7-2.03 4.15a6.8 6.8 0 0 0 2.41 1.48c-.83.34-1.56.89-2.13 1.58-1.3 1.58-1.19 3.12-.53 5.57 5.29-1.85 3.86-5.35 3.86-5.35s-.04-.15-.25.04m3.67-1c1.3.7 1.62 2.41 1.14 4.03-.08-2.94-1.09-3.71-2.21-4.45.36.12.69.21 1.07.42"/><path id="r2fmG" d="M28.9 15.06c-.62-2.18 2.06-3.69 1.68-1.73a5.3 5.3 0 0 1-.83 1.9h.53c.82-1.29 1.74-3.53-.23-4.35-.98-.41-2.07-.06-2.4.92-.35.98.01 2.2 1.26 3.26"/><path id="r2fmH" d="M19.43 29.48c.12.1.24.2.35.32l.1.08-.07-.04c.17.19.3.38.28.55.08.07.16.14.2.22h-.05c.4.28.56.78.62 1.16.24-.72.34-2-.07-3.14-.78-2.22.1-2.7.13-2.91-2 .63-2.66 2.5-1.5 3.76"/><path id="r2fmI" d="M29.94 15.92l-.12.01c-.23.07-.77.2-.81.26-.26.15-.53.4-.81.79-.15.2-.3.44-.46.72-.27.55-1.26 2.77-1.48 3.3-.99 2.26-2.12 2.75-3.28 2.28.37.57.9.85 1.4.86 2.77.07 3.53-3.25 4.03-5.47.54-2.45 1.36-2.52 1.67-2.43.7.2-.31 3.05-1.42 3.55 1.23.36 2.63-.48 3-1.75.33-1.11-.1-2.26-1.72-2.12"/><path id="r2fmJ" d="M25.58 24.43c-2.53-.18-2.58 4.37-2.92 5.92.45-3.34-.18-5.6.46-8.75a3.96 3.96 0 0 0 2.12-1.3c1.07-1.13 1.33-3.16-.65-3.25-2.1-.08-3.4 1.16-3.37 3.53-4.27.81-6.04 2.3-6.24 3.76-.2 1.52.93 2.57 2.4 2.58l.5-.04.1-.02c.24-.06.92-.24 1.3-.52l.02-.04c.63-.46.99-1.12.95-1.71-.09-1.46-2.05-1.62-2.64-.82 1.6.27 1 2.88-.31 2.84-1.51-.05-2.31-1.7-1.03-2.68 1.46-1.13 4.35-1.55 5.02-1.73.06 3.32.22 8.91.03 10.17a1.83 1.83 0 0 1-1.42 1.55c-.46.06-.89-.3-1-.86-.21-1.17 1.5-1.8 1.64-.42.1-.08.2-.26.3-.5-.11-.69-.4-1.1-.76-1.32l-.16-.02c-.1.04-.24.05-.4.04-1.53.37-1.75 3.27.28 3.5.95.12 2.04-.78 2.68-1.54 1.24-1.49.72-6.6 2.24-7.72 1.12-.02 1.49 1.29 1.86 3.09.54 2.63-.32 6.77 2.76 6.78-1.99-3.7 1.64-10.75-3.76-10.52m-.78-7.06c.42.05.94.43.73 1.15-.28.97-1.58 1.41-2.88 1.84.12-1.87.84-3.18 2.15-3"/></defs><g><g transform="translate(0 -1)"><use fill="#fff" xlink:href="#r2fma"/></g><g transform="translate(0 -1)"><use fill="#fff" xlink:href="#r2fmb"/></g><g transform="translate(0 -1)"><use fill="#fff" xlink:href="#r2fmc"/></g><g transform="translate(0 -1)"><use fill="#fff" xlink:href="#r2fmd"/></g><g transform="translate(0 -1)"><use fill="#fff" xlink:href="#r2fme"/></g><g transform="translate(0 -1)"><use fill="#fff" xlink:href="#r2fmf"/></g><g transform="translate(0 -1)"><use fill="#fff" xlink:href="#r2fmg"/></g><g transform="translate(0 -1)"><use fill="#fff" xlink:href="#r2fmh"/></g><g transform="translate(0 -1)"><use fill="#fff" xlink:href="#r2fmi"/></g><g transform="translate(0 -1)"><use fill="#fff" xlink:href="#r2fmj"/></g><g transform="translate(0 -1)"><use fill="#fff" xlink:href="#r2fmk"/></g><g transform="translate(0 -1)"><use fill="#fff" xlink:href="#r2fml"/></g><g transform="translate(0 -1)"><use fill="#fff" xlink:href="#r2fmm"/></g><g transform="translate(0 -1)"><use fill="#fff" xlink:href="#r2fmn"/></g><g transform="translate(0 -1)"><use fill="#fff" xlink:href="#r2fmo"/></g><g transform="translate(0 -1)"><use fill="#fff" xlink:href="#r2fmp"/></g><g transform="translate(0 -1)"><use fill="#fff" xlink:href="#r2fmq"/></g><g transform="translate(0 -1)"><use fill="#fff" xlink:href="#r2fmr"/></g><g transform="translate(0 -1)"><use fill="#fff" xlink:href="#r2fms"/></g><g transform="translate(0 -1)"><use fill="#fff" xlink:href="#r2fmt"/></g><g transform="translate(0 -1)"><use fill="#fff" xlink:href="#r2fmu"/></g><g transform="translate(0 -1)"><use fill="#fff" xlink:href="#r2fmv"/></g><g transform="translate(0 -1)"><use fill="#fff" xlink:href="#r2fmw"/></g><g transform="translate(0 -1)"><use fill="#fff" xlink:href="#r2fmx"/></g><g transform="translate(0 -1)"><use fill="#0088b2" xlink:href="#r2fmy"/></g><g transform="translate(0 -1)"><use fill="#0088b2" xlink:href="#r2fmz"/></g><g transform="translate(0 -1)"><use fill="#0088b2" xlink:href="#r2fmA"/></g><g transform="translate(0 -1)"><use fill="#0088b2" xlink:href="#r2fmB"/></g><g transform="translate(0 -1)"><use fill="#0088b2" xlink:href="#r2fmC"/></g><g transform="translate(0 -1)"><use fill="#0088b2" xlink:href="#r2fmD"/></g><g transform="translate(0 -1)"><use fill="#0088b2" xlink:href="#r2fmE"/></g><g transform="translate(0 -1)"><use fill="#0088b2" xlink:href="#r2fmF"/></g><g transform="translate(0 -1)"><use fill="#0088b2" xlink:href="#r2fmG"/></g><g transform="translate(0 -1)"><use fill="#0088b2" xlink:href="#r2fmH"/></g><g transform="translate(0 -1)"><use fill="#0088b2" xlink:href="#r2fmI"/></g><g transform="translate(0 -1)"><use fill="#0088b2" xlink:href="#r2fmJ"/></g></g></svg>