<?xml version="1.0" encoding="utf-8"?><svg xmlns="http://www.w3.org/2000/svg" xmlns:xlink="http://www.w3.org/1999/xlink"><symbol viewBox="0 0 37 110" id="arr-r" xmlns="http://www.w3.org/2000/svg"><defs><path id="aa" d="M1592.94 428.24a1.52 1.52 0 0 1 .55-2.06 1.48 1.48 0 0 1 2.03.56l29.28 51.32c.32.56.24 1.24-.14 1.72l-.11.22-29.73 51.26c-.42.72-1.34.97-2.06.55a1.5 1.5 0 0 1-.56-2.05l29.57-50.99z"/></defs><use xlink:href="#aa" opacity=".6" transform="translate(-1590 -424)"/></symbol><symbol viewBox="0 0 109.67 80.43" id="check" xmlns="http://www.w3.org/2000/svg"><defs><style>.bcls-1{fill:#231f20}</style></defs><g id="bСлой_2" data-name="Слой 2"><g id="bLayer_1" data-name="Layer 1"><rect class="bcls-1" x="16.49" y="30.75" width="105.93" height="18.93" rx="9.46" ry="9.46" transform="rotate(-45 69.456 40.21)"/><rect class="bcls-1" x="-5.87" y="47.37" width="58.91" height="18.93" rx="9.46" ry="9.46" transform="rotate(45 23.586 56.84)"/></g></g></symbol><symbol viewBox="0 0 31.06 31.06" id="clock" xmlns="http://www.w3.org/2000/svg"><defs><style>.ccls-1{fill:#010002}</style></defs><g id="cСлой_2" data-name="Слой 2"><g id="cCapa_1" data-name="Capa 1"><path class="ccls-1" d="M15.53 31.06a15.53 15.53 0 1 1 15.53-15.53 15.55 15.55 0 0 1-15.53 15.53zm0-29.28a13.75 13.75 0 1 0 13.75 13.75A13.77 13.77 0 0 0 15.53 1.77z"/><path class="ccls-1" d="M20.29 21.18a.88.88 0 0 1-.63-.26l-4.76-4.76a.89.89 0 0 1-.26-.63V5.45a.89.89 0 0 1 1.77 0v9.71l4.5 4.5a.89.89 0 0 1-.63 1.51z"/></g></g></symbol><symbol viewBox="0 0 384 512" id="map" xmlns="http://www.w3.org/2000/svg"><defs><style>.dcls-1{fill:#ffc107}</style></defs><g id="dСлой_2" data-name="Слой 2"><path class="dcls-1" d="M192 0C86.11 0 0 86.11 0 192c0 133.09 173.31 307.94 180.67 315.33a16.07 16.07 0 0 0 22.66 0C210.69 499.94 384 325.09 384 192 384 86.11 297.89 0 192 0zm0 288a96 96 0 1 1 96-96 96 96 0 0 1-96 96z" id="dCapa_1" data-name="Capa 1"/></g></symbol><symbol viewBox="0 0 58.01 59.99" id="phone" xmlns="http://www.w3.org/2000/svg"><g data-name="Слой 2"><g data-name="Capa 1"><path d="M28 49a4 4 0 1 0 4 4 4 4 0 0 0-4-4zm0 6a2 2 0 1 1 2-2 2 2 0 0 1-2 2zM25 5h4a1 1 0 0 0 0-2h-4a1 1 0 0 0 0 2zm7 0h1a1 1 0 0 0 0-2h-1a1 1 0 0 0 0 2zM3.2 13.34L3 12.4a1 1 0 0 0-2 .52l.25.94a1 1 0 0 0 1 .74 1 1 0 0 0 .26 0 1 1 0 0 0 .69-1.26zM1.11 9.86A1 1 0 0 0 2 8.77v-.24a2.48 2.48 0 0 1 0-.45 1 1 0 1 0-2-.38 4.4 4.4 0 0 0 0 .83V9a1 1 0 0 0 1 .9zm4.62 12.93l-.25-.94a1 1 0 0 0-1.93.52l.25.94a1 1 0 0 0 1 .74A1 1 0 0 0 5 24a1 1 0 0 0 .73-1.21zm5.07 18.89l-.25-.94a1 1 0 0 0-1.93.52l.25.94a1 1 0 0 0 1 .74 1 1 0 0 0 .26 0 1 1 0 0 0 .67-1.26zM4.47 18.06l-.25-.94a1 1 0 1 0-1.93.52l.25.94a1 1 0 0 0 1 .74 1 1 0 0 0 .26 0 1 1 0 0 0 .67-1.26zM3.62 6.22a1 1 0 0 0 .26 0l.95-.25A1 1 0 0 0 4.31 4l-.95.25a1 1 0 0 0 .26 2zM8.34 5a1 1 0 0 0 .26 0l.94-.25A1 1 0 0 0 9 2.74L8.08 3a1 1 0 0 0 .26 2zm1.19 32l-.25-1a1 1 0 0 0-1.93.52l.25.94A1 1 0 0 0 9.53 37zM7 27.51l-.25-.94a1 1 0 1 0-1.93.52l.25.94a1 1 0 0 0 1 .74 1 1 0 0 0 .26 0A1 1 0 0 0 7 27.51zm1.27 4.72L8 31.29a1 1 0 1 0-1.93.52l.25.94a1 1 0 0 0 1 .74 1 1 0 0 0 .26 0 1 1 0 0 0 .69-1.26zM55 16.41a1 1 0 0 0-1.22.71l-.25.94a1 1 0 0 0 .71 1.23 1 1 0 0 0 .26 0 1 1 0 0 0 1-.74l.25-.94a1 1 0 0 0-.75-1.2zm1.28-4.72a1 1 0 0 0-1.22.71l-.25.94a1 1 0 0 0 .71 1.23 1 1 0 0 0 .26 0 1 1 0 0 0 1-.74l.25-.94a1 1 0 0 0-.75-1.2zm1.65-3.98a1 1 0 1 0-2 .38 2.31 2.31 0 0 1 0 .45 2.39 2.39 0 0 1 0 .24 1 1 0 0 0 .9 1.09H57A1 1 0 0 0 58 9v-.43a4.31 4.31 0 0 0-.07-.86zm-9.47-3.04l.94.25a1 1 0 0 0 .26 0 1 1 0 0 0 .26-2L49 2.74a1 1 0 1 0-.52 1.93zm4.73 1.27l.94.25a1 1 0 0 0 .26 0 1 1 0 0 0 .26-2L53.7 4a1 1 0 1 0-.52 1.93zm.56 15.2a1 1 0 0 0-1.22.71l-.25.94A1 1 0 0 0 53 24a1 1 0 0 0 .26 0 1 1 0 0 0 1-.74l.25-.94a1 1 0 0 0-.76-1.18z"/><path d="M47.43 44.75a1 1 0 0 0-1.22.71l-.19.71V4.41A4.41 4.41 0 0 0 41.6 0H16.41A4.41 4.41 0 0 0 12 4.41v41.76l-.19-.71a1 1 0 0 0-1.93.54l.25.94a1 1 0 0 0 1.87.17v2.37h-.15a1 1 0 0 0-.71 1.22l.25.94a1 1 0 0 0 .6.66v3.29A4.41 4.41 0 0 0 16.41 60H41.6a4.41 4.41 0 0 0 4.4-4.4v-3.29a1 1 0 0 0 .61-.67l.25-.94a1 1 0 0 0-.71-1.22h-.16v-2.39a1 1 0 0 0 1.88-.16l.25-.94a1 1 0 0 0-.69-1.24zM14 8h30v38H14zm2.4-6h25.2A2.41 2.41 0 0 1 44 4.4V6H14V4.41A2.41 2.41 0 0 1 16.41 2zm25.2 56H16.41A2.41 2.41 0 0 1 14 55.6V48h30v7.6a2.41 2.41 0 0 1-2.4 2.4zM50 35.31a1 1 0 0 0-1.22.71l-.25.94a1 1 0 0 0 .71 1.22 1 1 0 0 0 .26 0 1 1 0 0 0 1-.74l.25-.94a1 1 0 0 0-.75-1.19z"/><path d="M48.69 40a1 1 0 0 0-1.22.71l-.25.94a1 1 0 0 0 .71 1.22 1 1 0 0 0 .26 0 1 1 0 0 0 1-.74l.25-.94a1 1 0 0 0-.75-1.19zm2.53-9.42a1 1 0 0 0-1.22.71l-.25.94a1 1 0 0 0 1.93.52l.25-.94a1 1 0 0 0-.71-1.23zm1.27-4.72a1 1 0 0 0-1.22.71l-.25.94a1 1 0 0 0 .71 1.23 1 1 0 0 0 .26 0 1 1 0 0 0 1-.74l.25-.94a1 1 0 0 0-.75-1.2z"/></g></g></symbol><symbol viewBox="0 0 34.02 34.02" id="youtube" xmlns="http://www.w3.org/2000/svg"><defs><style>.fcls-1{fill:#e9644b}</style></defs><g id="fСлой_2" data-name="Слой 2"><g id="fCapa_1" data-name="Capa 1"><path class="fcls-1" d="M14.74 20.29l5.57-3.27-5.57-3.28v6.55z"/><path class="fcls-1" d="M17 0a17 17 0 1 0 17 17A17 17 0 0 0 17 0zm8.5 20a2.87 2.87 0 0 1-2.92 3H11.43a2.87 2.87 0 0 1-2.93-3v-6a2.87 2.87 0 0 1 2.93-3h11.15a2.87 2.87 0 0 1 2.93 3z"/></g></g></symbol></svg>