<?xml version="1.0" encoding="utf-8"?><svg xmlns="http://www.w3.org/2000/svg" xmlns:xlink="http://www.w3.org/1999/xlink"><symbol viewBox="0 0 252.15 477.17" id="arr-l" xmlns="http://www.w3.org/2000/svg"><title>arr-l</title><g data-name="Слой 2"><path d="M32.68 238.58l215.5-215.5A13.51 13.51 0 0 0 229.08 4L4 229.08a13.46 13.46 0 0 0 0 19.1l225.1 225a13.59 13.59 0 0 0 9.5 4 13.17 13.17 0 0 0 9.5-4 13.46 13.46 0 0 0 0-19.1z" data-name="Capa 1"/></g></symbol><symbol viewBox="0 0 480 480" id="head-1" xmlns="http://www.w3.org/2000/svg"><style>path{fill:#0099b5}</style><title>head-1</title><g id="bСлой_2" data-name="Слой 2"><g id="bCapa_1" data-name="Capa 1"><path d="M474.2 24.3l-56-16a8 8 0 0 0-7.85 2L396.69 24H248V8a8 8 0 0 0-8-8h-32a8 8 0 0 0-8 8 8 8 0 0 1-16 0 8 8 0 0 0-8-8H8a8 8 0 0 0-8 8v80a8 8 0 0 0 8 8h168a8 8 0 0 0 8-8 8 8 0 0 1 16 0 8 8 0 0 0 8 8h32a8 8 0 0 0 8-8V72h148.69l13.66 13.66A8 8 0 0 0 416 88a8.14 8.14 0 0 0 2.19-.3l56-16A8 8 0 0 0 480 64V32a8 8 0 0 0-5.8-7.7zM232 80h-17.36a24 24 0 0 0-45.26 0H16V16h153.37a24 24 0 0 0 45.26 0H232zm232-32v10l-45.67 13-12.67-12.66A8 8 0 0 0 400 56H248V40h152a8 8 0 0 0 5.66-2.34L418.33 25 464 38z"/><path d="M32 32h88v16H32zm104 0h16v16h-16zm312 352H132l-21.6-28.8a8 8 0 0 0-6.4-3.2H32a8 8 0 0 0-6.4 3.2l-24 32A8 8 0 0 0 8 400h51.72l10.66 16-10.66 16H8a8 8 0 0 0-6.4 12.8l24 32A8 8 0 0 0 32 480h72a8 8 0 0 0 6.4-3.2L132 448h316a32 32 0 0 0 0-64zm11.3 43.3A15.89 15.89 0 0 1 448 432H128a8 8 0 0 0-6.4 3.2L100 464H36l-12-16h40a8 8 0 0 0 6.66-3.56l16-24a8 8 0 0 0 0-8.87l-16-24A8 8 0 0 0 64 384H24l12-16h64l21.6 28.8a8 8 0 0 0 6.4 3.2h320a16 16 0 0 1 11.3 27.3z"/><path d="M432 408h16v16h-16zm-8-224h-56.39A80.15 80.15 0 0 0 288 112H184a80.11 80.11 0 0 0-79.6 72H56c-32.06 0-56 33.79-56 64v40a8 8 0 0 0 8 8h56.72a47.94 47.94 0 0 0 94.56 0h153.44a47.94 47.94 0 0 0 94.56 0H472a8 8 0 0 0 8-8v-40c0-30.21-23.94-64-56-64zM112 320a32 32 0 1 1 32-32 32 32 0 0 1-32 32zm120-136h-79a32 32 0 0 1 31-24h48zm128 136a32 32 0 1 1 32-32 32 32 0 0 1-32 32zm104-40h-56.66c0-.18-.1-.35-.14-.54a47.9 47.9 0 0 0-1.86-7.1c-.14-.42-.3-.83-.46-1.25a48 48 0 0 0-3.06-6.6c-.18-.3-.37-.59-.54-.9a47.63 47.63 0 0 0-4.31-6.2c0-.06-.1-.1-.14-.15a48.49 48.49 0 0 0-5.29-5.36c-.22-.18-.41-.38-.62-.57a48.93 48.93 0 0 0-5.94-4.26c-.35-.22-.7-.43-1.06-.64a48.41 48.41 0 0 0-6.52-3.14l-1.19-.44a47.32 47.32 0 0 0-7.19-2c-.31-.06-.64-.09-1-.14a44.94 44.94 0 0 0-16.11 0l-1 .14a47.32 47.32 0 0 0-7.19 2c-.4.14-.8.28-1.19.44a48 48 0 0 0-6.53 3.14c-.36.21-.7.42-1.06.64a48.08 48.08 0 0 0-5.94 4.26c-.22.18-.41.38-.62.57a49.2 49.2 0 0 0-5.29 5.36c0 .06-.1.1-.14.15a47.72 47.72 0 0 0-4.31 6.21c-.18.3-.37.58-.54.89a48.13 48.13 0 0 0-3.06 6.61c-.16.42-.31.82-.46 1.25a46.68 46.68 0 0 0-1.86 7.1c0 .18-.11.35-.14.54H248V200h80a8 8 0 0 0 8-8 48 48 0 0 0-48-48H184a48 48 0 0 0-48 48 8 8 0 0 0 8 8h88v80h-72.66c0-.18-.1-.35-.14-.54a47.9 47.9 0 0 0-1.86-7.1c-.14-.42-.3-.83-.46-1.25a48 48 0 0 0-3.06-6.6c-.18-.3-.37-.59-.54-.9a47.63 47.63 0 0 0-4.31-6.2c0-.06-.1-.1-.14-.15a48.49 48.49 0 0 0-5.29-5.36c-.22-.18-.41-.38-.62-.57a48.93 48.93 0 0 0-5.94-4.26c-.35-.22-.7-.43-1.06-.64a48.41 48.41 0 0 0-6.52-3.14l-1.19-.44a47.32 47.32 0 0 0-7.19-2c-.31-.06-.64-.09-1-.14a44.94 44.94 0 0 0-16.11 0l-1 .14a47.32 47.32 0 0 0-7.19 2c-.4.14-.8.28-1.19.44a48 48 0 0 0-6.53 3.14c-.36.21-.7.42-1.06.64a48.08 48.08 0 0 0-5.94 4.26c-.22.18-.41.38-.62.57a49.2 49.2 0 0 0-5.29 5.36c0 .06-.1.1-.14.15a47.72 47.72 0 0 0-4.31 6.21c-.18.3-.37.58-.54.89a48.12 48.12 0 0 0-3.06 6.61c-.16.42-.31.82-.46 1.25a46.68 46.68 0 0 0-1.86 7.1c0 .18-.11.35-.14.54H16V248c0-21.74 17.84-48 40-48h56a8 8 0 0 0 8-8 64.07 64.07 0 0 1 64-64h104a64.11 64.11 0 0 1 64 64 8 8 0 0 0 8 8h64c22.16 0 40 26.26 40 48zm-216-96v-24h40a32 32 0 0 1 31 24z"/><path d="M192 216h24v16h-24zm104 0h24v16h-24z"/></g></g></symbol><symbol viewBox="0 0 452.26 318.93" id="head-2" xmlns="http://www.w3.org/2000/svg"><style>path{fill:#0099b5}</style><title>head-2</title><g id="cСлой_2" data-name="Слой 2"><path d="M405 94.87a9 9 0 0 0-9 9v53.41h-18.3v-45.12a9 9 0 0 0-9-9H327l-7.78-25.93a9 9 0 0 0-8.62-6.41H247V48h40a9 9 0 0 0 9-9V9a9 9 0 0 0-9-9H158a9 9 0 0 0-9 9v30a9 9 0 0 0 9 9h40v22.82h-92.62a9 9 0 0 0-7.9 4.7l-15 27.65H47.23a9 9 0 0 0-9 9v45.11H18V92.93a9 9 0 0 0-18 0v186a9 9 0 0 0 18 0V214.6h20.23v47.64a9 9 0 0 0 9 9h74.94l34.26 44.21a9 9 0 0 0 7.11 3.49h205.18a9 9 0 0 0 9-9V214.6H396V268a9 9 0 0 0 9 9 47.3 47.3 0 0 0 47.24-47.24v-87.65A47.3 47.3 0 0 0 405 94.87zM18 196.6v-21.33h20.23v21.33zM167.06 18H278v12H167zm49 30H229v22.82h-12.9zM56.23 121.16h6.4v132.08h-6.4zm77.46 135.56a9 9 0 0 0-7.11-3.49h-46V121.16h7.16a9 9 0 0 0 7.9-4.7l15-27.65h193.23l7.78 25.93a9 9 0 0 0 8.62 6.41h16.15v179.78H167.95zm226 44.21h-5.3V121.16h5.3zm18-104.33v-21.33H396v21.33zm56.54 33.16A29.3 29.3 0 0 1 414 257.59V114.28a29.29 29.29 0 0 1 20.24 27.83z" id="cCapa_1" data-name="Capa 1"/></g></symbol><symbol viewBox="0 0 454.76 454.76" id="head-3" xmlns="http://www.w3.org/2000/svg"><style>path{fill:#0099b5}</style><title>head-3</title><g id="dСлой_2" data-name="Слой 2"><g id="dCapa_1" data-name="Capa 1"><path d="M388.16 66.6A227.38 227.38 0 0 0 66.6 388.16 227.38 227.38 0 0 0 388.16 66.6zM227.38 436.76C111.93 436.76 18 342.83 18 227.38S111.93 18 227.38 18s209.38 93.93 209.38 209.38-93.93 209.38-209.38 209.38z"/><path d="M227.38 56.94c-94 0-170.44 76.46-170.44 170.44s76.46 170.44 170.44 170.44 170.44-76.46 170.44-170.44S321.36 56.94 227.38 56.94zm0 322.89c-84.06 0-152.44-68.39-152.44-152.44S143.32 74.93 227.38 74.93s152.44 68.39 152.44 152.44-68.39 152.45-152.44 152.45z"/><path d="M259 227.38A31.64 31.64 0 1 0 227.38 259 31.67 31.67 0 0 0 259 227.38zm-45.28 0A13.64 13.64 0 1 1 227.38 241a13.65 13.65 0 0 1-13.64-13.62z"/><path d="M227.38 87.89c-76.92 0-139.49 62.57-139.49 139.49s62.58 139.49 139.49 139.49 139.49-62.58 139.49-139.49S304.29 87.89 227.38 87.89zm121.49 139.49a121 121 0 0 1-6 37.57L293.7 232.6a6.25 6.25 0 0 1 0-10.44l49.21-32.35a121 121 0 0 1 5.96 37.57zm-31.24-81.24l-52.57 26.41a6.25 6.25 0 0 1-9-5.22l-3.41-58.79a121.53 121.53 0 0 1 64.98 37.59zm-115.48-37.61l-3.41 58.8a6.25 6.25 0 0 1-9 5.22l-52.57-26.41a121.53 121.53 0 0 1 64.98-37.61zm-96.26 118.85a121 121 0 0 1 6-37.57l49.21 32.35a6.25 6.25 0 0 1 0 10.44l-49.21 32.35a121 121 0 0 1-6-37.57zm31.24 81.24l52.57-26.41a6.25 6.25 0 0 1 9 5.22l3.41 58.8a121.53 121.53 0 0 1-64.98-37.61zm83.19 40l-3.61-62.27a24.25 24.25 0 0 0-35.09-20.26l-55.71 28a121.49 121.49 0 0 1-7.08-12.21l52.11-34.26a24.25 24.25 0 0 0 0-40.52l-52.11-34.26a121.79 121.79 0 0 1 7.08-12.21l55.71 28a24.25 24.25 0 0 0 35.1-20.26l3.61-62.28c2.34-.13 4.69-.21 7.06-.21s4.72.08 7.05.21l3.56 62.28a24.23 24.23 0 0 0 35.09 20.26l55.71-28a121.61 121.61 0 0 1 7.08 12.21l-52.11 34.26a24.25 24.25 0 0 0 0 40.52l52.12 34.26a121.66 121.66 0 0 1-7.08 12.21l-55.71-28a24.25 24.25 0 0 0-35.1 20.29l-3.61 62.28c-2.34.13-4.68.21-7.05.21s-4.68-.08-7.02-.21zm32.28-2.43l3.41-58.8a6.25 6.25 0 0 1 9-5.22l52.57 26.42a121.53 121.53 0 0 1-64.98 37.64z"/></g></g></symbol><symbol viewBox="0 0 295.24 295.24" id="head-4" xmlns="http://www.w3.org/2000/svg"><style>path,rect{fill:#0099b5}</style><title>head-4</title><g id="eСлой_2" data-name="Слой 2"><g id="eLayer_1" data-name="Layer 1"><path d="M128.57 219v23.81H33.33v9.52H261.9v-9.52h-95.23V219H281a14.3 14.3 0 0 0 14.29-14.29V14.29A14.3 14.3 0 0 0 281 0H14.29A14.3 14.3 0 0 0 0 14.29v190.47A14.3 14.3 0 0 0 14.29 219h114.28zm28.57 23.81h-19V219h19zM9.52 204.76V14.29a4.77 4.77 0 0 1 4.76-4.76H281a4.77 4.77 0 0 1 4.76 4.76v190.47a4.77 4.77 0 0 1-4.76 4.76H14.29a4.77 4.77 0 0 1-4.77-4.76z"/><path d="M276.19 38.1H19V181h257.19zm-9.52 133.33H28.57V47.62h238.1v123.81zm-133.34 19.05h28.57V200h-28.57z"/><path d="M61.9 138.1h34a19 19 0 0 0 36.74 0h44.21a19 19 0 0 0 36.74 0h29.25v-37.47l-35-5-14.49-29H126l-19.21 28.88-44.89 5zm52.38 4.76a9.52 9.52 0 1 1 9.52-9.52 9.53 9.53 0 0 1-9.51 9.52zm81 0a9.52 9.52 0 1 1 9.52-9.52 9.53 9.53 0 0 1-9.56 9.52zM71.43 109l40.83-4.54 18.86-28.29h56.41l14.09 28.17 31.71 4.53v19.68h-19.72a19 19 0 0 0-36.74 0h-44.21a19 19 0 0 0-36.74 0H71.43z"/><path d="M179.63 81h-39.32l-15.87 23.81h63.12zm-37.4 14.24l3.18-4.76h27.35l1.59 4.76zm-99.37-38.1h28.57v9.52H42.86zm0 19.05h28.57v9.52H42.86zm0 23.81h9.52v9.52h-9.52zm0 52.38h42.86v9.52H42.86zm176.19-95.24h33.33v9.52h-33.33zm0 19.05h33.33v9.52h-33.33zm0 76.19h33.33v9.52h-33.33zm-85.72 0h9.52v9.52h-9.52zm19.05 0h9.52v9.52h-9.52zM42.86 119.05h9.52v9.52h-9.52zM261.9 257.14a33.37 33.37 0 0 0-33.33 33.33v4.76h66.67v-4.76a33.37 33.37 0 0 0-33.34-33.33zm-23.33 28.57a23.81 23.81 0 0 1 46.66 0zM4.76 271.43H19v14.29H4.76v9.52H219v-33.33H4.76zm190.48 0h14.29v14.29h-14.29zm-23.81 0h14.29v14.29h-14.29zm-23.81 0h14.28v14.29h-14.28zm-23.81 0h14.29v14.29h-14.29zm-23.81 0h14.29v14.29H100zm-23.81 0h14.29v14.29H76.19zm-23.81 0h14.29v14.29H52.38zm-23.81 0h14.29v14.29H28.57zM133.33 19.05h9.52v9.52h-9.52zm19.05 0h9.52v9.52h-9.52z"/></g></g></symbol><symbol viewBox="0 0 503.6 512.04" id="head-5" xmlns="http://www.w3.org/2000/svg"><style>path{fill:#0099b5}</style><title>head-5</title><g id="fСлой_2" data-name="Слой 2"><path d="M452.4 0a51.2 51.2 0 1 0 51.2 51.2A51.35 51.35 0 0 0 452.4 0zm0 85.33a34.13 34.13 0 1 1 34.13-34.13 34.23 34.23 0 0 1-34.13 34.17zm-28.16 29.91c-30.72-7.68-62.29 8.53-72.53 38.4l-46.94 136.53a12.09 12.09 0 0 1-12.8 7.68l-86.19-10.24c-12.8-1.71-24.75 6-28.16 17.92l-57.17 164.69c-2.56 11.09 0 22.19 7.68 29.87S145.2 512 154.59 512c3.41 0 6 0 8.53-.85 11.95-3.41 21.33-11.95 24.75-23l47.79-116.91a7.86 7.86 0 0 1 9.39-6l128.85 17.92c13.65 1.71 27.31-6.83 31.57-19.63L464.35 192c6-15.36 4.27-32.43-3.41-46.93s-20.49-25.57-36.7-29.83zm24.75 70l-58.88 171.49a11.52 11.52 0 0 1-12.8 7.68l-128.86-17.92c-12.8-1.71-24.75 6-28.16 17.07l-48.64 118.61c-1.71 6-6.83 10.24-12.8 11.95-6.83 1.71-12.8 0-18.77-6-3.41-2.56-4.27-8.53-3.41-12.8l57.17-165.52c.85-3.41 4.27-6 8.53-6a2.65 2.65 0 0 0 1.71-.85l86.19 10.24A28.88 28.88 0 0 0 321 293.58L367.92 157c7.68-21.33 30.72-33.28 52.05-27.31 11.95 3.41 20.48 11.09 26.45 21.33 5.13 11.15 6.83 23.1 2.58 34.19zM94 128h128v34.13c0 3.41 1.71 6.83 5.12 7.68.85.85 2.56.85 3.41.85a7.74 7.74 0 0 0 6-2.56l76.8-76.8a8.25 8.25 0 0 0 0-11.95L236.5 2.59a7.79 7.79 0 0 0-9.38-1.7c-3.42.85-5.12 4.26-5.12 7.68V42.7H94c-5.12 0-8.53 3.41-8.53 8.53v68.27c0 5.12 3.41 8.5 8.53 8.5zm8.53-68.27h128c5.12 0 8.53-3.41 8.53-8.53V29l56.32 56.32-56.32 56.32V119.5c0-5.12-3.41-8.53-8.53-8.53h-128v-51.2zm10.24 205.69a2.26 2.26 0 0 1-.36-.51q12.22.3 24.48 1.32a3.29 3.29 0 0 0 .63.9v.87l2.56 5.12c2.56 5.12 5.12 11.09 5.12 17.07 0 11.95-11.09 24.75-14.51 28.16a8.25 8.25 0 0 0 0 11.95 7.75 7.75 0 0 0 6 2.56 13.61 13.61 0 0 0 6.83-2.56c.85-.85 19.63-18.77 19.63-40.11 0-8.67-3.05-16.1-6.06-21.8q14.54 1.88 29.1 4.74c2.56 0 5.12 0 6.83-1.71s3.41-3.41 3.41-6l8.53-85.33c0-4.27-2.56-8.53-6.83-9.39-52.08-11.95-137.41-11.95-191.13 0-4.27.85-7.68 5.12-6.83 9.39l8.53 85.33c0 2.56 1.71 4.27 3.41 6a12.13 12.13 0 0 0 5.12 1.71h1.67q16.54-3.36 33.28-5.36v.23l2.56 5.12c2.56 5.12 5.12 11.09 5.12 17.07 0 11.95-10.24 24.75-14.51 28.16a8.25 8.25 0 0 0 0 11.95 7.75 7.75 0 0 0 6 2.56 9.21 9.21 0 0 0 6-2.56c.85-.85 19.63-18.77 19.63-40.11 0-9.9-4-18.2-7.34-24.14q11.89-.92 23.84-1.15a7.28 7.28 0 0 0 1.42 2.25v.85l2.56 5.12c2.56 5.12 5.12 11.09 5.12 17.07 0 11.95-10.24 24.75-14.51 28.16a8.25 8.25 0 0 0 0 11.95 7.75 7.75 0 0 0 6 2.56 13.61 13.61 0 0 0 6.83-2.56c.85-.85 19.63-18.77 19.63-40.11-.08-10.26-4.34-18.79-7.76-24.77zm-94.72-79.36c48.64-9.39 121.17-9.39 169 0l-6.83 68.27c-10.9-1.76-21.66-3.22-32.39-4.34a27.06 27.06 0 0 1-2.6-11c0-6 2.56-11.95 5.12-17.07l2.56-5.12c1.71-4.27 0-9.39-4.27-11.09s-9.39 0-11.09 4.27c0 1.71-.85 2.56-1.71 4.27-3.41 6-7.68 14.51-7.68 24.75a39.13 39.13 0 0 0 1.19 9.45c-8.35-.54-16.73-.85-25.19-.9a25.39 25.39 0 0 1-1.6-8.55c0-6 2.56-11.95 5.12-17.07l2.56-5.12c1.71-4.27 0-9.39-4.27-11.09s-9.39 0-11.09 4.27c0 1.71-.85 2.56-1.71 4.27-3.41 6-7.68 14.51-7.68 24.75a38.9 38.9 0 0 0 1 8.83q-12.15.46-24.29 1.62A26.66 26.66 0 0 1 59.86 239c0-6 2.56-11.95 5.12-17.07l2.56-5.12c1.71-4.27 0-9.39-4.27-11.09s-9.39 0-11.09 4.27c0 1.71-.85 2.56-1.71 4.27-3.41 6-7.68 14.51-7.68 24.75a40.42 40.42 0 0 0 2 12.4q-10 1.29-19.94 3z" id="fLayer_1" data-name="Layer 1"/></g></symbol><symbol viewBox="0 0 295.24 295.24" id="head-6" xmlns="http://www.w3.org/2000/svg"><style>path{fill:#0099b5}</style><title>head-6</title><g id="gСлой_2" data-name="Слой 2"><g id="gLayer_1" data-name="Layer 1"><path d="M223.81 107.89V100A28.57 28.57 0 0 0 211 76.19a28.55 28.55 0 0 0 12.81-23.81V28.57A28.6 28.6 0 0 0 195.24 0H28.57A28.6 28.6 0 0 0 0 28.57v23.81a28.57 28.57 0 0 0 12.81 23.81A28.56 28.56 0 0 0 0 100v23.81a28.57 28.57 0 0 0 12.81 23.81A28.56 28.56 0 0 0 0 171.43v23.81a28.6 28.6 0 0 0 28.57 28.57h79.32a95.18 95.18 0 1 0 115.92-115.92zm43.88 39.72a85.18 85.18 0 0 1 17.91 50.31l-10.55-10.56a75.91 75.91 0 0 0-19.87-39.75zm-8.57-9.52h-14.87a75.65 75.65 0 0 0-42.37-14.19l8.87-8.87a85.36 85.36 0 0 1 48.37 23.07zm-45.51-42.85h-48.08L182.68 81h12.56a19 19 0 0 1 18.37 14.24zm-103-23.81H68.39L51.25 57.14h42.26zm-2.27-14.29h42.27l17.19 14.29h-42.27zM125.53 81h42.27l-17.14 14.24h-42.27zm69.7-9.52h-12.55l-17.15-14.34h48.08a19 19 0 0 1-18.37 14.29zM167.8 9.52l-17.14 14.29h-42.27l17.14-14.29zm-57.14 0L93.51 23.81H51.25L68.39 9.52zm-82.09 0h24.94L36.37 23.81H10.2A19 19 0 0 1 28.57 9.52zm-19 23.81h161.86v-9.52h-5.9l17.15-14.29h12.56a19 19 0 0 1 18.37 14.29H200v9.52h14.29v14.29H9.52zm.68 23.81h26.12l17.14 14.29H28.57A19 19 0 0 1 10.2 57.14zM28.57 81h24.94L36.37 95.24H10.2A19 19 0 0 1 28.57 81zm-19 23.81h30.3L68.39 81h42.27L93.51 95.24h-3v9.52h123.77V106a92.55 92.55 0 0 0-64.2 13H9.52zm188.4 9.63l-10.56 10.55a75.91 75.91 0 0 0-39.75 19.87v-12.55a85.18 85.18 0 0 1 50.26-17.92zm-89.53 14.18h28.83a95.62 95.62 0 0 0-12.63 13.49zm2.27 14.28H68.39l-17.14-14.33h42.26zm27.44-2v14.88a75.65 75.65 0 0 0-14.19 42.37l-8.96-8.9a85.37 85.37 0 0 1 23.09-48.37zM10.2 128.57h26.17l17.14 14.29H28.57a19 19 0 0 1-18.37-14.29zm18.37 23.81h24.94l-17.14 14.29H10.2a19 19 0 0 1 18.37-14.29zm0 61.9A19 19 0 0 1 10.2 200h26.17l17.14 14.29zm79.33-38.1a89.83 89.83 0 0 0-1.94 38.1H68.39L51.25 200H81v-9.52H9.52v-14.29H81v-9.52H51.25l17.14-14.29h49.26a94.94 94.94 0 0 0-6.75 14.29H90.48v9.52zm24.41 76.19a85.18 85.18 0 0 1-17.91-50.31l10.55 10.56a75.91 75.91 0 0 0 19.87 39.75zM189.25 285a85.37 85.37 0 0 1-48.38-23.06h14.88a75.65 75.65 0 0 0 42.37 14.19zm-55.92-85A66.67 66.67 0 1 1 200 266.67 66.74 66.74 0 0 1 133.33 200zm119 67.69a85.18 85.18 0 0 1-50.31 17.91l10.56-10.55a75.91 75.91 0 0 0 39.75-19.87zm9.53-8.57v-14.87a75.65 75.65 0 0 0 14.19-42.37l8.87 8.87a85.38 85.38 0 0 1-23.01 48.37z"/><path d="M247.62 200A47.62 47.62 0 1 0 200 247.62 47.67 47.67 0 0 0 247.62 200zm-85.71 0A38.1 38.1 0 1 1 200 238.1a38.14 38.14 0 0 1-38.09-38.1zm19.04-176.19h9.52v9.52h-9.52zM71.43 95.24h9.52v9.52h-9.52zm-18.85 0h9.52v9.52h-9.52z"/><path d="M200 252.38v9.52a61.79 61.79 0 0 0 41.27-15.77l-6.35-7.1A52.29 52.29 0 0 1 200 252.38zm-109.52-61.9H100V200h-9.52zm13.99 59.62l-8.35 4.58a125.18 125.18 0 0 0 34.34 39.62l5.72-7.61a115.65 115.65 0 0 1-31.71-36.59z"/></g></g></symbol><symbol viewBox="0 0 204.8 143.36" id="head-7" xmlns="http://www.w3.org/2000/svg"><style>path{fill:#0099b5}</style><title>head-7</title><g id="hСлой_2" data-name="Слой 2"><g id="hCapa_1" data-name="Capa 1"><path d="M41 124.25a3.41 3.41 0 0 0-3.41 3.41v8.87H6.83v-23.89a3.41 3.41 0 0 0-6.83 0v27.31a3.41 3.41 0 0 0 3.41 3.41H41a3.41 3.41 0 0 0 3.41-3.41v-12.29a3.41 3.41 0 0 0-3.41-3.41zm160.39-15.02a3.41 3.41 0 0 0-3.41 3.41v23.89h-30.73V128a3.41 3.41 0 0 0-6.83 0v11.95a3.41 3.41 0 0 0 3.41 3.41h37.55a3.41 3.41 0 0 0 3.41-3.41v-27.31a3.42 3.42 0 0 0-3.4-3.41z"/><path d="M201.39 78.51a3.41 3.41 0 0 0-3.39 3.41v28.92a12.05 12.05 0 0 1-12 12h-54.93a3.41 3.41 0 1 0 0 6.83h54.86a18.89 18.89 0 0 0 18.87-18.87V81.92a3.42 3.42 0 0 0-3.41-3.41zM70.66 122.88h-51.8a12.05 12.05 0 0 1-12-12V82.94a3.41 3.41 0 1 0-6.83 0v27.9a18.89 18.89 0 0 0 18.87 18.87h51.76a3.41 3.41 0 1 0 0-6.83zm112.46-80.29l-1.68-11.78A36.07 36.07 0 0 0 145.91 0h-87a36.07 36.07 0 0 0-35.55 30.82L21.69 42.5a3.41 3.41 0 0 0 6.76 1l1.67-11.68a29.21 29.21 0 0 1 28.77-25h87a29.21 29.21 0 0 1 28.77 25l1.68 11.78a3.42 3.42 0 0 0 3.38 2.93 3.61 3.61 0 0 0 .49 0 3.41 3.41 0 0 0 2.91-3.94z"/><path d="M190.09 51.64A30.48 30.48 0 0 1 183 40.71a3.41 3.41 0 0 0-5.5-1.29 31.52 31.52 0 0 1-21.38 8.37H48.71a31.52 31.52 0 0 1-21.38-8.37 3.41 3.41 0 0 0-5.5 1.29 30.45 30.45 0 0 1-7.11 10.93A48.72 48.72 0 0 0 0 87.61c.25 13.8 11.88 25 25.92 25h152.95c14 0 25.67-11.23 25.92-25a48.73 48.73 0 0 0-14.7-35.97zm-11.22 54.17H25.93a19 19 0 0 1-19.1-18.32 42 42 0 0 1 12.66-31 37 37 0 0 0 6.8-9.14 38.28 38.28 0 0 0 22.41 7.26h107.4a38.27 38.27 0 0 0 22.41-7.24 36.88 36.88 0 0 0 6.8 9.14 42 42 0 0 1 12.66 31 19 19 0 0 1-19.1 18.3zM57 14.65a3.41 3.41 0 0 0-4.83 0L42 24.89a3.41 3.41 0 1 0 4.83 4.83L57 19.48a3.41 3.41 0 0 0 0-4.83z"/><path d="M74.09 11.24a3.41 3.41 0 0 0-4.83 0l-25.6 25.6a3.41 3.41 0 1 0 4.83 4.83l25.6-25.6a3.41 3.41 0 0 0 0-4.83zm65.86 16.07a23.92 23.92 0 0 0-23.9 23.89 3.41 3.41 0 0 0 6.83 0 17.07 17.07 0 1 1 34.13 0 3.41 3.41 0 1 0 6.83 0 23.92 23.92 0 0 0-23.89-23.89zM41 78.51H13.65a3.41 3.41 0 0 0-3.41 3.41v6.83A10.25 10.25 0 0 0 20.48 99H41a10.24 10.24 0 0 0 0-20.48zm0 13.65H20.48a3.42 3.42 0 0 1-3.41-3.41v-3.42H41a3.41 3.41 0 1 1 0 6.83zm150.15-13.65h-27.31a10.24 10.24 0 1 0 0 20.48h20.48a10.25 10.25 0 0 0 10.24-10.24v-6.83a3.41 3.41 0 0 0-3.41-3.41zm-3.41 10.24a3.42 3.42 0 0 1-3.41 3.41h-20.49a3.41 3.41 0 0 1 0-6.83h23.89v3.41zm-58.03 17.06h-58a3.41 3.41 0 0 0-3.41 3.41v20.48a3.41 3.41 0 0 0 3.41 3.41h58a3.41 3.41 0 0 0 3.41-3.41v-20.47a3.41 3.41 0 0 0-3.41-3.42zm-3.41 20.48H75.09v-13.65h51.2zm8.53-51.2H70A11.95 11.95 0 0 0 70 99h64.85a11.95 11.95 0 0 0 0-23.89zm0 17.07H70a5.12 5.12 0 0 1 0-10.24h64.85a5.12 5.12 0 0 1 0 10.24z"/><path d="M81.92 75.09a3.41 3.41 0 0 0-3.41 3.41v17.07a3.41 3.41 0 0 0 6.83 0V78.51a3.41 3.41 0 0 0-3.42-3.42zm20.48 0a3.41 3.41 0 0 0-3.4 3.42v17.06a3.41 3.41 0 0 0 6.83 0V78.51a3.41 3.41 0 0 0-3.43-3.42zm20.48 0a3.41 3.41 0 0 0-3.41 3.41v17.07a3.41 3.41 0 0 0 6.83 0V78.51a3.41 3.41 0 0 0-3.42-3.42z"/></g></g></symbol><symbol viewBox="0 0 472.75 512" id="head-8" xmlns="http://www.w3.org/2000/svg"><style>path{fill:#0099b5}</style><title>head-8</title><g id="iСлой_2" data-name="Слой 2"><g id="iLayer_1" data-name="Layer 1"><path d="M465.92 380.59L454 378c-6-.85-10.24-5.12-12.8-10.24-2.56-6-1.71-11.09 1.71-16.21l7.68-10.24a8.94 8.94 0 0 0-.85-11.09l-17.07-17.07a11.29 11.29 0 0 0-6-2.38V42.67a25.14 25.14 0 0 0-25.6-25.6H290.13A17.12 17.12 0 0 0 273.07 0H153.6a17.12 17.12 0 0 0-17.07 17.07H25.6A25.14 25.14 0 0 0 0 42.67V486.4A25.14 25.14 0 0 0 25.6 512h346.45c4.27 0 7.68-3.41 11.95-7.68l1.71-9.39c.85-6 5.12-10.24 10.24-12.8s11.09-1.71 16.21 1.71l7.68 5.12a8.94 8.94 0 0 0 11.09-.85L448 471c2.56-3.41 3.41-7.68.85-11.09l-6.85-10.2c-3.41-5.12-4.27-11.09-1.71-16.21q3.84-9 12.8-10.24l12.8-1.71a9.19 9.19 0 0 0 6.83-8.53v-23.9a8.31 8.31 0 0 0-6.8-8.53zM153.6 85.33h119.47a17.12 17.12 0 0 0 17.07-17.07h88.75v220.08a8.13 8.13 0 0 0-3.41-.77h-23.91a8.58 8.58 0 0 0-6.67 2.9 8.35 8.35 0 0 0-2.72 4.78l-3.41 16.21a15.19 15.19 0 0 1-4.12 8.35 22.45 22.45 0 0 1-5.26 3.6c-6 1.71-11.09 1.71-16.21-1.71l-13.65-9.39a8.94 8.94 0 0 0-11.09.85l-9 9-8.11 8.11a6.43 6.43 0 0 0-1.62 1.77 9 9 0 0 0-.09 10.17l7.68 10.24c3.41 5.12 4.27 11.09 1.71 16.21a22.4 22.4 0 0 1-3.6 5.26 15.19 15.19 0 0 1-8.35 4.12l-11.95 2.56a8.36 8.36 0 0 0-4.78 2.72 8.58 8.58 0 0 0-2.9 6.67v23.89a8.58 8.58 0 0 0 2.9 6.67 8.36 8.36 0 0 0 4.78 2.72l12.8 1.71a15.19 15.19 0 0 1 8.35 4.12 22.41 22.41 0 0 1 3.6 5.26c2.56 5.12 1.71 11.09-1.71 16.21l-6.83 10.24H51.2V68.27h85.33a17.12 17.12 0 0 0 17.07 17.06zm250.88-51.2c5.12 0 8.53 3.41 8.53 8.53v274.78l-.85.85c-5.12 3.41-11.09 4.27-16.21 1.71a21 21 0 0 1-3.41-1.84V68.27a17.12 17.12 0 0 0-17.07-17.07h-85.34V34.13zM153.6 17.07h119.47v51.2H153.6v-51.2zM17.07 486.4V42.67c0-5.12 3.41-8.53 8.53-8.53h110.93V51.2H51.2a17.12 17.12 0 0 0-17.07 17.07V460.8a17.12 17.12 0 0 0 17.07 17.07h227L289.28 489a8.94 8.94 0 0 0 11.09.85l10.24-7.68c5.12-3.41 11.09-4.27 16.21-1.71s9.39 6.83 10.24 12.8l.37 1.71H25.6c-5.12-.04-8.53-3.45-8.53-8.57zm434.35-78.51l-6 .85c-11.09 1.71-21.33 8.53-25.6 19.63-4.27 10.24-3.41 23 3.41 32.43l4.27 4.27-6.83 6.83-1.67-.9c-10.24-7.68-22.19-8.53-33.28-4.27-11.09 5.12-18.77 14.51-20.48 26.45v1.71h-9.39l-1.71-6c-1.71-11.09-9.39-20.48-20.48-24.75a33.88 33.88 0 0 0-32.43 4.27l-4.23 3.48-6.83-6.83 2.56-4.27c6.83-9.39 7.68-21.33 3.41-32.43a32.44 32.44 0 0 0-25.6-19.63l-6-.85v-9.39l6-1.71c11.09-1.71 20.48-9.39 24.75-20.48a33.88 33.88 0 0 0-4.29-32.41l-3.41-4.27 6.83-6.83 7.68 5.12a32.31 32.31 0 0 0 31.57 3.41c11.09-4.27 17.92-13.65 20.48-24.75l1.71-9.39h9.39l.85 6.83c1.71 11.09 9.39 21.33 19.63 25.6s23 3.41 32.43-3.41l4.58-3.06 6.51 7.32-3.41 4.27a33.88 33.88 0 0 0-4.27 32.43 35.42 35.42 0 0 0 24.75 20.48l5.12.85v9.39z"/><path d="M358.4 358.4a42.67 42.67 0 1 0 42.67 42.67 42.25 42.25 0 0 0-42.67-42.67zm0 68.27a25.6 25.6 0 1 1 25.6-25.6 25.14 25.14 0 0 1-25.6 25.6zM99 178.35a22 22 0 0 0-22.2 22.18v33.28c0 12.8 9.39 22.19 22.2 22.19h13a34.13 34.13 0 0 0 66.09 0h70.44a34.13 34.13 0 0 0 66.09 0h13c12.8 0 22.19-9.39 23-22.19v-33.28a22 22 0 0 0-22.19-22.19h-18.07l-33-46.08a27.21 27.21 0 0 0-23-11.95h-36.99a10 10 0 0 0-8.07 0h-36.93a27.21 27.21 0 0 0-23 11.95l-33 46.08H99zm46.08 86.19a17.07 17.07 0 1 1 17.07-17.07 17.12 17.12 0 0 1-17.08 17.06zm136.53 0a17.07 17.07 0 1 1 17.07-17.07 17.12 17.12 0 0 1-17.08 17.06zm52.05-64v33.28a5.51 5.51 0 0 1-5.12 5.12h-13.66c-4.27-14.51-15.36-25.6-31.57-25.6h-1.71a34.27 34.27 0 0 0-33 25.6h-69.4c-4.27-14.51-17.07-25.6-33.28-25.6h-.85a34.27 34.27 0 0 0-33 25.6H99a5.51 5.51 0 0 1-5.12-5.12v-33.29a5.51 5.51 0 0 1 5.12-5.12h16.64a8.83 8.83 0 0 0 3.84.85H307.2a8.83 8.83 0 0 0 3.84-.85h17.49a5.51 5.51 0 0 1 5.12 5.12zm-70.83-59.74l26.7 37.55h-67.66v-41.82h31.57c4.27 0 7.68 1.71 9.39 4.27zm-100.69 0a13.7 13.7 0 0 1 9.39-4.27h33.27v41.81h-68.53zm51.19 183.47h-128c-5.12 0-8.53 3.41-8.53 8.53s3.41 8.53 8.53 8.53h128c5.12 0 8.53-3.41 8.53-8.53s-3.41-8.53-8.53-8.53zm0 42.66h-128c-5.12 0-8.53 3.41-8.53 8.53s3.41 8.54 8.53 8.54h128c5.12 0 8.53-3.41 8.53-8.53s-3.41-8.54-8.53-8.54zm0 42.67h-128c-5.12 0-8.53 3.41-8.53 8.53s3.41 8.53 8.53 8.53h128c5.12 0 8.53-3.41 8.53-8.53s-3.41-8.53-8.53-8.53z"/></g></g></symbol><symbol viewBox="0 0 97.75 97.75" id="soc-1" xmlns="http://www.w3.org/2000/svg"><style>path{fill:#0099b5}</style><title>soc-1</title><g id="jСлой_2" data-name="Слой 2"><path d="M48.88 0a48.88 48.88 0 1 0 48.87 48.88A48.88 48.88 0 0 0 48.88 0zm24.79 54.16a92.94 92.94 0 0 1 6.73 6.77 19.19 19.19 0 0 1 2.41 3.47c.93 1.8.09 3.78-1.52 3.88h-10a7.74 7.74 0 0 1-6.38-2.6c-1.38-1.41-2.67-2.91-4-4.37a9.36 9.36 0 0 0-1.8-1.6 2.09 2.09 0 0 0-3.33.81 10.49 10.49 0 0 0-1.08 4.68c-.11 2.36-.82 3-3.19 3.09a25.64 25.64 0 0 1-14.33-3.08 31.63 31.63 0 0 1-9.64-9 121.63 121.63 0 0 1-12.69-22.65c-.8-1.78-.22-2.74 1.75-2.77 3.27-.06 6.54-.06 9.8 0a2.88 2.88 0 0 1 2.72 2 60.84 60.84 0 0 0 6.64 12.31 10.53 10.53 0 0 0 2.51 2.76c1.16.8 2 .53 2.59-.76a8.4 8.4 0 0 0 .58-2.58 38.59 38.59 0 0 0-.16-9A3.78 3.78 0 0 0 38.07 32c-1-.18-.82-.53-.35-1.08a3.6 3.6 0 0 1 3.07-1.53h11.32c1.78.35 2.18 1.15 2.42 2.95v12.6c0 .69.35 2.76 1.6 3.21 1 .33 1.66-.47 2.26-1.1a39.1 39.1 0 0 0 6.38-9.79c.76-1.55 1.42-3.16 2.06-4.76a2.44 2.44 0 0 1 2.56-1.75h10.9a5.67 5.67 0 0 1 1 .06c1.84.31 2.34 1.1 1.77 2.9a27.14 27.14 0 0 1-4.33 7.51c-1.82 2.52-3.76 4.94-5.56 7.47-1.69 2.31-1.56 3.46.5 5.47z" id="jCapa_1" data-name="Capa 1"/></g></symbol><symbol viewBox="0 0 486.39 486.39" id="soc-2" xmlns="http://www.w3.org/2000/svg"><defs><style>path{fill:#0099b5}</style></defs><title>soc-2</title><g id="kСлой_2" data-name="Слой 2"><path class="kcls-1" d="M243.2 0C108.89 0 0 108.89 0 243.2s108.89 243.2 243.2 243.2 243.2-108.89 243.2-243.2S377.5 0 243.2 0zm62.87 243.16h-39.85v145.92h-54.73V243.2H175v-50.28h36.48l-.06-29.61c0-41 11.13-66 59.43-66h40.25v50.31h-25.16c-18.82 0-19.73 7-19.73 20.12l-.06 25.17h45.23z" id="kCapa_1" data-name="Capa 1"/></g></symbol><symbol viewBox="0 0 97.75 97.75" id="soc-3" xmlns="http://www.w3.org/2000/svg"><style>path,polygon{fill:#0099b5}</style><title>soc-3</title><g id="lСлой_2" data-name="Слой 2"><g id="lCapa_1" data-name="Capa 1"><path d="M25.68 52.48h3.87v20.97h3.67V52.48h3.94v-3.43H25.68v3.43zM56.67 55a4.46 4.46 0 0 0-3.41 2v-8H50v24.46h3.29v-1.77a4.49 4.49 0 0 0 3.41 2 2.61 2.61 0 0 0 2.63-2 14.48 14.48 0 0 0 .31-3.69v-7.24a14 14 0 0 0-.33-3.65A2.61 2.61 0 0 0 56.67 55zm-.33 13.21c0 1.64-.48 2.45-1.43 2.45a2.35 2.35 0 0 1-1.64-.81V58.81a2.37 2.37 0 0 1 1.64-.8c1 0 1.43.84 1.43 2.48zm-12.52.96c-.73 1-1.42 1.54-2.08 1.54-.44 0-.69-.26-.77-.77a10.18 10.18 0 0 1 0-1.28V55.27h-3.3v14.38a9.27 9.27 0 0 0 .29 2.71 2 2 0 0 0 2.12 1.35c1.21 0 2.46-.73 3.77-2.23v2h3.3V55.27h-3.3zm2.83-30.7c1.07 0 1.59-.85 1.59-2.55v-7.74c0-1.7-.51-2.55-1.59-2.55s-1.59.85-1.59 2.55v7.73c0 1.71.52 2.56 1.59 2.56z"/><path d="M48.88 0a48.88 48.88 0 1 0 48.87 48.88A48.87 48.87 0 0 0 48.88 0zm5.44 22.86h3.32v13.53a7.84 7.84 0 0 0 0 1.29c.07.52.33.78.78.78.67 0 1.37-.52 2.1-1.56v-14h3.33v18.34h-3.29v-2c-1.33 1.52-2.59 2.26-3.81 2.26a2 2 0 0 1-2.15-1.37 9.29 9.29 0 0 1-.29-2.73V22.86zm-12.58 6a7.14 7.14 0 0 1 1-4.33 4.94 4.94 0 0 1 7.76 0 7.22 7.22 0 0 1 1 4.33v6.44a7.19 7.19 0 0 1-1 4.32 4.95 4.95 0 0 1-7.76 0 7.12 7.12 0 0 1-1-4.32zm-8.91-12.28l2.62 9.69L38 16.58h3.7l-4.44 14.67v10h-3.69v-10a60.74 60.74 0 0 0-2.26-7.8c-.78-2.29-1.59-4.58-2.37-6.87zm42.36 58.48a6.89 6.89 0 0 1-5.89 5.36 183.17 183.17 0 0 1-20.42.75 183.16 183.16 0 0 1-20.42-.75 6.89 6.89 0 0 1-5.89-5.36c-1-4.13-1-8.64-1-12.89a58.41 58.41 0 0 1 1-12.89 6.88 6.88 0 0 1 5.89-5.36 183.19 183.19 0 0 1 20.42-.76 183.17 183.17 0 0 1 20.42.76 6.89 6.89 0 0 1 5.9 5.36c.95 4.13.94 8.64.94 12.89a58.34 58.34 0 0 1-.95 12.89z"/><path d="M67.17 55a4.68 4.68 0 0 0-3.95 1.86 7.09 7.09 0 0 0-1 4.28v6.37a7 7 0 0 0 1.06 4.28 4.72 4.72 0 0 0 4 1.86 4.56 4.56 0 0 0 4-2 4.69 4.69 0 0 0 .77-2c0-.33.07-1.06.07-2.12v-.48h-3.41a21.59 21.59 0 0 1-.07 2.23 1.42 1.42 0 0 1-1.47 1.32c-1.13 0-1.69-.84-1.69-2.52V65h6.59v-3.81a7.15 7.15 0 0 0-1-4.28 4.58 4.58 0 0 0-3.9-1.91zm1.61 7.17h-3.3v-1.64q0-2.52 1.65-2.52c1.09 0 1.64.84 1.64 2.52z"/></g></g></symbol></svg>