<svg xmlns="http://www.w3.org/2000/svg" xmlns:xlink="http://www.w3.org/1999/xlink" viewBox="0 0 390.82 512"><defs><style>.cls-1{fill:none;}.cls-2{clip-path:url(#clip-path);}.cls-3{fill:#d91619;}</style><clipPath id="clip-path" transform="translate(0)"><rect class="cls-1" width="390.82" height="512"/></clipPath></defs><title>advantages-1</title><g id="Слой_2" data-name="Слой 2"><g id="Слой_1-2" data-name="Слой 1"><g class="cls-2"><path d="M383.22,0H7.6A7.6,7.6,0,0,0,0,7.6V437.08a7.6,7.6,0,1,0,15.21,0V15.21H375.62V496.79H15.21V435.42a7.6,7.6,0,1,0-15.21,0v69A7.6,7.6,0,0,0,7.6,512H383.22a7.6,7.6,0,0,0,7.6-7.6V7.6a7.6,7.6,0,0,0-7.6-7.6" transform="translate(0)"/><path class="cls-3" d="M46.56,303.71,105.3,469.93a7.61,7.61,0,0,0,9.69,4.66l235.39-82.41a7.61,7.61,0,0,0,4.66-9.69L329.1,308.38a7.6,7.6,0,0,0-14.35,5l23.43,66.93-221,77.39L63.43,305.86l221-77.39,30.17,85.77a7.61,7.61,0,0,0,14.36-5L296.3,216.27a7.61,7.61,0,0,0-9.69-4.66L51.23,294a7.6,7.6,0,0,0-4.67,9.69" transform="translate(0)"/><path class="cls-3" d="M129.27,440.14a7.6,7.6,0,0,0,2.51-.43L315.5,375.39a7.6,7.6,0,1,0-5-14.35L126.76,425.36a7.6,7.6,0,0,0,2.51,14.78" transform="translate(0)"/><path class="cls-3" d="M279.51,251.15a7.6,7.6,0,0,0-9.69-4.66L86.11,310.81a7.6,7.6,0,1,0,5,14.35l183.72-64.32a7.6,7.6,0,0,0,4.67-9.69" transform="translate(0)"/><path d="M258.34,46.12H132.49a7.6,7.6,0,0,0,0,15.21H258.34a7.6,7.6,0,0,0,0-15.21" transform="translate(0)"/><path d="M327,94.78H147A7.6,7.6,0,0,0,147,110H327a7.6,7.6,0,1,0,0-15.21" transform="translate(0)"/><path d="M63.87,94.78a7.6,7.6,0,0,0,0,15.21h57.79a7.6,7.6,0,1,0,0-15.21Z" transform="translate(0)"/><path d="M327,143.45H262.58a7.6,7.6,0,0,0,0,15.21H327a7.6,7.6,0,0,0,0-15.21" transform="translate(0)"/><path d="M63.87,158.65H237.23a7.6,7.6,0,1,0,0-15.21H63.87a7.6,7.6,0,1,0,0,15.21" transform="translate(0)"/><polygon class="cls-3" points="110.56 361.29 105.59 363.04 101.32 350.88 95.84 352.8 100.11 364.96 95.14 366.71 89.48 350.59 104.9 345.18 110.56 361.29"/><path class="cls-3" d="M110.43,352.3A8.09,8.09,0,0,1,115.82,341a8.94,8.94,0,0,1,7,0,8.64,8.64,0,0,1,4.3,5.29,10.52,10.52,0,0,1,.68,5,7.19,7.19,0,0,1-1.76,3.78,9.62,9.62,0,0,1-4.13,2.58,10.91,10.91,0,0,1-4.82.72,7.21,7.21,0,0,1-3.86-1.73,9.69,9.69,0,0,1-2.76-4.32m5-1.73a5.73,5.73,0,0,0,2.14,3.19,3.64,3.64,0,0,0,5-1.72q.51-1.35-.44-4.06a5.28,5.28,0,0,0-2.09-3,3.33,3.33,0,0,0-2.86-.18,3.21,3.21,0,0,0-2,1.92,5.75,5.75,0,0,0,.33,3.85" transform="translate(0)"/><path class="cls-3" d="M155.29,345.59l-5.61,2-3.4-3.49a7.75,7.75,0,0,0-1.72-1.46,1.56,1.56,0,0,0-1.2,0L145.6,349l-5,1.74-2.24-6.38a1.58,1.58,0,0,0-.95.75,7.61,7.61,0,0,0-.42,2.22l-.47,4.85-5.61,2,.64-5.18a12,12,0,0,1,.76-3.3,4.63,4.63,0,0,1,1.44-1.86,3.39,3.39,0,0,1-1.54-.42,5.51,5.51,0,0,1-1.42-1.32,3.61,3.61,0,0,0-1.56-1.21,3.23,3.23,0,0,0-2.06.18l-.25.09-1.2-3.41a21.66,21.66,0,0,1,4.13-1.13,3.55,3.55,0,0,1,2.18.29,7.94,7.94,0,0,1,1.9,1.76,11.58,11.58,0,0,0,2,2.07,1.44,1.44,0,0,0,1.18.1L135,334.61l5-1.74,2.17,6.19a1.43,1.43,0,0,0,.85-.82,11.81,11.81,0,0,0,.27-2.86,7.69,7.69,0,0,1,.37-2.56,3.58,3.58,0,0,1,1.53-1.59,21.65,21.65,0,0,1,3.93-1.7l1.2,3.41L150,333a3.23,3.23,0,0,0-1.72,1.15,3.65,3.65,0,0,0-.46,1.92,5.67,5.67,0,0,1-.29,1.92,3.36,3.36,0,0,1-.94,1.29,4.69,4.69,0,0,1,2.3.56,12.28,12.28,0,0,1,2.65,2.09Z" transform="translate(0)"/><polygon class="cls-3" points="166.85 323.42 172.51 339.54 167.83 341.18 164.72 332.33 161.8 343.3 157.1 344.95 151.44 328.83 156.13 327.18 159.26 336.1 162.2 325.05 166.85 323.42"/><path class="cls-3" d="M182.87,326.05a3.7,3.7,0,0,1,4.18,2.63,5.1,5.1,0,0,1-.46,4.52,8.3,8.3,0,0,1-4.61,3.32q-5.67,2-8.72-2.29l4.58-2a2.18,2.18,0,0,0,2.84.89,2.29,2.29,0,0,0,1.39-1.07,2,2,0,0,0,0-1.63,1.89,1.89,0,0,0-1.18-1.21,3,3,0,0,0-2,.09l-1.35.48-1-2.88,1.07-.37a2.27,2.27,0,0,0,1.33-1,1.91,1.91,0,0,0,.06-1.58q-.46-1.31-2.1-.73a1.85,1.85,0,0,0-1.44,2.2l-4.63,1q-.38-4.57,5-6.47a8.74,8.74,0,0,1,5.11-.49,3.84,3.84,0,0,1,2.8,2.54,3.59,3.59,0,0,1-.9,4.06" transform="translate(0)"/><polygon class="cls-3" points="185.7 316.8 190.68 315.05 192.66 320.69 198.1 318.78 196.12 313.14 201.12 311.38 206.78 327.5 201.78 329.26 199.49 322.74 194.05 324.65 196.34 331.17 191.36 332.92 185.7 316.8"/><polygon class="cls-3" points="204.42 310.22 217.77 305.54 218.98 308.98 210.62 311.91 211.52 314.47 219.27 311.75 220.43 315.04 212.68 317.76 213.79 320.94 222.39 317.92 223.67 321.57 210.08 326.34 204.42 310.22"/><polygon class="cls-3" points="220.72 304.5 225.69 302.75 227.68 308.39 233.12 306.48 231.14 300.84 236.14 299.08 241.8 315.2 236.8 316.96 234.51 310.44 229.07 312.35 231.36 318.87 226.38 320.62 220.72 304.5"/><polygon class="cls-3" points="239.47 297.91 244.45 296.17 246.43 301.81 251.88 299.89 249.9 294.25 254.9 292.5 260.56 308.62 255.56 310.37 253.27 303.85 247.82 305.76 250.11 312.28 245.13 314.03 239.47 297.91"/><path class="cls-3" d="M272.84,301.31l-5.65,2,.15,2.94L262.25,308l.4-18.24,5.43-1.91,11.72,14-5.22,1.83Zm-2.26-3.12L266.77,293l.27,6.41Z" transform="translate(0)"/><path class="cls-3" d="M290.63,298.05l-2.3-6.54-.44.15a2.21,2.21,0,0,0-1.09.8,4,4,0,0,0-.46,1.56l-.93,5.86-5.63,2,.77-5.52a6.65,6.65,0,0,1,.35-1.25,3.57,3.57,0,0,1,1.59-2.18,6.45,6.45,0,0,1-2,0,5,5,0,0,1-3.68-6,4,4,0,0,1,1.45-2.16,12.79,12.79,0,0,1,3.39-1.64l8.3-2.91,5.66,16.12Zm-4.52-12.86-2.19.77a3.17,3.17,0,0,0-1.71,1.07,1.73,1.73,0,0,0,.57,2.2,1.4,1.4,0,0,0,1,.22,8,8,0,0,0,1.4-.24l2.1-.74Z" transform="translate(0)"/><polygon class="cls-3" points="121.6 382.45 109.91 386.56 116.31 404.8 108.86 407.42 100.37 383.24 119.52 376.52 121.6 382.45"/><path class="cls-3" d="M144.85,390.3l-8.48,3,.22,4.41L129,400.36l.6-27.37,8.15-2.86,17.58,21-7.82,2.75Zm-3.38-4.68-5.72-7.75.41,9.62Z" transform="translate(0)"/><path class="cls-3" d="M149.13,366.12l12.42-4.36q4.06-1.42,6.76-.21a7.67,7.67,0,0,1,3.95,4.78,7.9,7.9,0,0,1-.19,6.49q-1.48,2.83-6,4.42L162,378.69l3.15,9-7.5,2.64Zm11.12,7.67,1.83-.64a5,5,0,0,0,2.77-1.82,2.57,2.57,0,0,0,.2-2.23,2.85,2.85,0,0,0-1.44-1.66,4.19,4.19,0,0,0-3.13.21l-2.13.75Z" transform="translate(0)"/><path class="cls-3" d="M195.51,372.5l-8.48,3,.22,4.41-7.63,2.68.6-27.37,8.15-2.86,17.58,21-7.82,2.75Zm-3.38-4.68-5.72-7.75.41,9.62Z" transform="translate(0)"/><polygon class="cls-3" points="199.86 348.3 207.33 345.68 210.31 354.14 218.47 351.27 215.5 342.81 223 340.17 231.49 364.35 223.99 366.99 220.55 357.21 212.39 360.07 215.82 369.85 208.35 372.48 199.86 348.3"/><polygon class="cls-3" points="226.27 339.03 248.98 331.05 251.07 337.02 243.45 339.7 249.85 357.9 242.38 360.53 235.98 342.32 228.36 345 226.27 339.03"/><polygon class="cls-3" points="275.5 321.74 283.99 345.92 276.96 348.38 272.3 335.11 267.92 351.56 260.86 354.04 252.37 329.86 259.42 327.38 264.11 340.76 268.51 324.19 275.5 321.74"/><path class="cls-3" d="M302.85,339.29l-3.45-9.81-.66.23a3.32,3.32,0,0,0-1.63,1.2,6,6,0,0,0-.7,2.34L295,342l-8.44,3,1.16-8.28a10.19,10.19,0,0,1,.52-1.87,5.35,5.35,0,0,1,2.38-3.26,9.58,9.58,0,0,1-3,0,7.5,7.5,0,0,1-5.52-9,6,6,0,0,1,2.18-3.24,19.11,19.11,0,0,1,5.08-2.46l12.45-4.37,8.49,24.18ZM296.08,320l-3.28,1.15a4.75,4.75,0,0,0-2.57,1.61,2.6,2.6,0,0,0,.85,3.29,2.09,2.09,0,0,0,1.48.33,12,12,0,0,0,2.1-.36l3.15-1.11Z" transform="translate(0)"/></g></g></g></svg>