<svg xmlns="http://www.w3.org/2000/svg" xmlns:xlink="http://www.w3.org/1999/xlink" viewBox="0 0 202.5 233.31"><defs><style>.cls-1{fill:none;}.cls-2{fill:#d91619;}.cls-3{clip-path:url(#clip-path);}</style><clipPath id="clip-path"><rect class="cls-1" width="202.5" height="233.31"/></clipPath></defs><title>advantages-3</title><g id="Слой_2" data-name="Слой 2"><g id="Слой_1-2" data-name="Слой 1"><polygon class="cls-2" points="52.5 37.36 52.5 96.96 56.23 105.16 63.33 105.16 76.33 91 74 66.67 80.67 58.33 91 57.67 97 60.29 103.13 71.26 102 88.67 103.13 98.33 111.67 101.54 128.67 101.54 146.33 103.33 151.67 108.67 154 116.65 154 155.67 152.33 167.33 148.33 172.79 142.67 175 125.67 177 85.33 177 76.67 175.33 70.67 170.33 64.67 167.33 60 167.33 69.33 180.67 85.33 194 106.33 206.33 116.25 212 135.33 201 154 191.67 165.67 179 177.33 159.67 183 140.67 183 109.67 183 65.67 183 45.33 183 35 166.67 32 142 27.33 120 22 114.67 19.67 91.33 28.33 69.33 32.67 52.5 34.33 52.5 37.36"/><g class="cls-3"><path d="M194.14,15.29A205.06,205.06,0,0,1,117.64.56L116.25,0l-1.39.56a205.1,205.1,0,0,1-76.5,14.73H30V94H11.25A11.26,11.26,0,0,0,0,105.29V169a11.26,11.26,0,0,0,11.25,11.25H45A97.32,97.32,0,0,0,80.78,214l35.47,19.34L151.71,214a97.38,97.38,0,0,0,50.79-85.55V15.29ZM7.5,169V105.29a3.75,3.75,0,0,1,3.75-3.75H45a3.75,3.75,0,0,1,3.75,3.75V169A3.75,3.75,0,0,1,45,172.79H11.25A3.75,3.75,0,0,1,7.5,169m48.75-56.28A23.83,23.83,0,0,0,78.75,89V69.66a9.38,9.38,0,0,1,18.75,0v23.6a12,12,0,0,0,12,12H137a13,13,0,0,1,13,13V159.8a13,13,0,0,1-13,13H81.76a8.86,8.86,0,0,1-7.39-4,16.36,16.36,0,0,0-13.63-7.29H56.25ZM195,128.42a89.9,89.9,0,0,1-46.87,79l-31.88,17.39L84.37,207.38a90,90,0,0,1-32.18-29.77,11.17,11.17,0,0,0,4-7.84,82.06,82.06,0,0,0,31.79,31l28.29,15.43,28.28-15.43a82.39,82.39,0,0,0,43-72.37V40.54H180v87.88a74.89,74.89,0,0,1-39.05,65.79l-24.7,13.47L91.56,194.21a74.59,74.59,0,0,1-26.12-23.76A8.77,8.77,0,0,1,68.13,173a16.36,16.36,0,0,0,13.63,7.29H137A20.51,20.51,0,0,0,157.5,159.8V118.27A20.51,20.51,0,0,0,137,97.79H109.52A4.53,4.53,0,0,1,105,93.26V69.66a16.87,16.87,0,0,0-33.75,0V89a16.27,16.27,0,0,1-15,16.17A11.16,11.16,0,0,0,52.5,97V37.36A227.51,227.51,0,0,0,116.25,24.1,227.48,227.48,0,0,0,180,37.36v4.18h7.5V30.22l-3.58-.16a220,220,0,0,1-66.37-13.46l-1.3-.48-1.31.48A220,220,0,0,1,48.57,30.05L45,30.22V94H37.5V22.79h.85A212.49,212.49,0,0,0,116.25,8.07a212.53,212.53,0,0,0,77.89,14.71H195V128.42Z"/><rect x="15" y="157.79" width="26.25" height="7.5"/></g></g></g></svg>