<svg xmlns="http://www.w3.org/2000/svg" xmlns:xlink="http://www.w3.org/1999/xlink" viewBox="0 0 232.5 232.5"><defs><style>.cls-1{fill:none;}.cls-2{clip-path:url(#clip-path);}.cls-3{clip-path:url(#clip-path-2);}.cls-4{fill:#d91619;}</style><clipPath id="clip-path" transform="translate(0 0)"><rect class="cls-1" width="232.5" height="232.5"/></clipPath><clipPath id="clip-path-2" transform="translate(0 0)"><rect class="cls-1" x="32.77" y="10.1" width="114.55" height="151.57"/></clipPath></defs><title>advantages-2</title><g id="Слой_2" data-name="Слой 2"><g id="Слой_1-2" data-name="Слой 1"><polyline points="159.54 105 157.5 105 157.5 165 165 165 165 105 163.03 105 162.96 105"/><g class="cls-2"><path d="M33.94,161.25H15v22.5H11.25a11.25,11.25,0,0,0,0,22.5h22.5a26.25,26.25,0,1,0,52.5,0H157.5a26.25,26.25,0,0,0,52.5,0h11.25a11.25,11.25,0,0,0,0-22.5H217.5V142.5H202.14L198.39,105H165v56.25H146.06M191.6,112.5l3,30H165v-30ZM15,198.75H11.25a3.75,3.75,0,0,1,0-7.5H15ZM60,225a18.75,18.75,0,1,1,18.75-18.75A18.77,18.77,0,0,1,60,225m85.12-56.25H157.5v30H85.15a26.24,26.24,0,0,0-50.29,0H22.5v-30H34.88M183.75,225a18.75,18.75,0,1,1,18.75-18.75A18.77,18.77,0,0,1,183.75,225M210,198.75h-1.11A26.21,26.21,0,0,0,165,187.91V150h45Zm11.25,0H217.5v-7.5h3.75a3.75,3.75,0,0,1,0,7.5" transform="translate(0 0)"/><path d="M60,195a11.25,11.25,0,1,0,11.25,11.25A11.26,11.26,0,0,0,60,195m0,15a3.75,3.75,0,1,1,3.75-3.75A3.75,3.75,0,0,1,60,210" transform="translate(0 0)"/><path d="M183.75,195A11.25,11.25,0,1,0,195,206.25,11.26,11.26,0,0,0,183.75,195m0,15a3.75,3.75,0,1,1,3.75-3.75,3.75,3.75,0,0,1-3.75,3.75" transform="translate(0 0)"/><path d="M86.58,108.58" transform="translate(0 0)"/></g><g class="cls-3"><path class="cls-4" d="M22.67,198.75H157.42V3.37c0-.05,0-.12,0-.17s-.05-.33-.08-.49a3.64,3.64,0,0,0-.12-.48.8.8,0,0,0,0-.16,2.34,2.34,0,0,0-.17-.26,3,3,0,0,0-.26-.45,4.15,4.15,0,0,0-.31-.36,3.57,3.57,0,0,0-.36-.31,3.09,3.09,0,0,0-.45-.26,2.39,2.39,0,0,0-.26-.17.87.87,0,0,0-.16,0A4,4,0,0,0,154.7.1L154.19,0,154,0H26l-.15,0c-.18,0-.35.05-.53.08a4.55,4.55,0,0,0-.46.12.88.88,0,0,0-.17,0,2.38,2.38,0,0,0-.26.17A3,3,0,0,0,24,.69a3.68,3.68,0,0,0-.36.31,4.33,4.33,0,0,0-.31.36,3.13,3.13,0,0,0-.26.45,2.49,2.49,0,0,0-.17.26,1.05,1.05,0,0,0,0,.16,3.8,3.8,0,0,0-.12.48c0,.16-.06.33-.08.49s0,.11,0,.17V181.91M145.92,6.75l-3.37,3.35h-105L34.16,6.75ZM32.77,192H29.41V11.5l3.35,3.37ZM39.51,16.84H140.57V192H39.51ZM150.67,192h-3.35V14.87l3.35-3.37Z" transform="translate(0 0)"/><path class="cls-4" d="M136.76,21.3H42.83V53.68h93.93Zm-7.09,25.32H49.92V28.38h79.76Z" transform="translate(0 0)"/><path class="cls-4" d="M42.83,181.06h93.93V145.68H42.83Zm7.08-28.3h79.76V174H49.92Z" transform="translate(0 0)"/><path class="cls-4" d="M110.07,103.23H42.83v35.38h93.93V106.75H110.07Zm19.61,10.61v17.69H49.92V110.3H103v3.54Z" transform="translate(0 0)"/><path class="cls-4" d="M110.07,92.6h26.69V60.76H42.83V96.15h67.24ZM103,89.06H49.92V67.85h79.76V85.54H103Z" transform="translate(0 0)"/><path class="cls-4" d="M134.29,96.15H117.14a3.54,3.54,0,1,0,0,7.09h17.15a3.54,3.54,0,1,0,0-7.09" transform="translate(0 0)"/></g></g></g></svg>