<svg xmlns="http://www.w3.org/2000/svg" xmlns:xlink="http://www.w3.org/1999/xlink" viewBox="0 0 48 48"><defs><style>.cls-1{fill:none;}.cls-2{fill:#d81f27;}.cls-3{clip-path:url(#clip-path);}.cls-4{fill:#231f20;}</style><clipPath id="clip-path"><rect class="cls-1" width="48" height="48"/></clipPath></defs><title>advantages-4</title><g id="Слой_2" data-name="Слой 2"><g id="Слой_1-2" data-name="Слой 1"><path class="cls-2" d="M8,31.2H27.2V5.6H8Zm8.8-17.6H9.6V7.2h7.2Zm8.8,8H18.4V15.2h7.2Zm-8.8,0H9.6V15.2h7.2ZM9.6,23.2h7.2v6.4H9.6Zm8.8,0h7.2v6.4H18.4Zm7.2-9.6H18.4V7.2h7.2Z"/><path class="cls-2" d="M8,44.8H27.2v-12H8ZM9.6,34.4h16v8.8H9.6Z"/><g class="cls-3"><path class="cls-4" d="M44.8,41.6v-.8h.8v-4h-4v-5l.13-.06a4.91,4.91,0,0,0,2.56-2.87,3.84,3.84,0,0,0-.14-2.55,1.14,1.14,0,0,1,0-1.08,6.06,6.06,0,0,0,.72-1.34,4.23,4.23,0,0,0,.32-2.41,2.59,2.59,0,0,0-.53-1.12.85.85,0,0,1-.17-.69,2.9,2.9,0,0,0-.24-1.91A3.32,3.32,0,0,0,41.76,16a2.52,2.52,0,0,0-2.23.62l-.42.36a2.94,2.94,0,0,0-1.45,2,3.21,3.21,0,0,0,.08,1.46,1,1,0,0,1-.16.85,4.62,4.62,0,0,0-.42,4.3,2.81,2.81,0,0,0,.33.57,1.06,1.06,0,0,1,.18.88,3.15,3.15,0,0,0-.09.5,6.6,6.6,0,0,0,.2,2,3.55,3.55,0,0,0,1,2,2.06,2.06,0,0,0,1.26.49V36.8H36v4h.8v.8h-4V0H2.4V41.6H0V48H48V41.6ZM39.33,29.26a5.25,5.25,0,0,1-.17-1.49,1.6,1.6,0,0,1,0-.26,2.68,2.68,0,0,0-.44-2.22,1.24,1.24,0,0,1-.15-.25,3,3,0,0,1,.28-2.76,2.61,2.61,0,0,0,.38-2.2,1.57,1.57,0,0,1,0-.72,1.31,1.31,0,0,1,.67-.94l.73-.59a.89.89,0,0,1,.65-.22l.26,0a1.73,1.73,0,0,1,1.32.85,1.33,1.33,0,0,1,.1.84,2.46,2.46,0,0,0,.49,2,1,1,0,0,1,.2.42,2.72,2.72,0,0,1-.25,1.5,4.61,4.61,0,0,1-.52,1,2.7,2.7,0,0,0-.21,2.65,2.22,2.22,0,0,1,.08,1.45A3.43,3.43,0,0,1,41,30.28a2.4,2.4,0,0,1-.33.15.78.78,0,0,0-.22.06.77.77,0,0,1-.68-.06,2.45,2.45,0,0,1-.45-1.16M37.6,38.4H44v.8H37.6Zm-35.2,8H1.6V43.2h.8ZM6.4,4H28.8V46.4H6.4ZM31.2,46.4h-.8V2.4H4.8v44H4V1.6H31.2Zm5.6,0h-4V43.2h4Zm6.4,0H38.4V40.8h4.8Zm3.2,0H44.8V43.2h1.6Z"/></g></g></g></svg>