<svg xmlns="http://www.w3.org/2000/svg" xmlns:xlink="http://www.w3.org/1999/xlink" width="13" height="13" viewBox="0 0 13 13"><defs><path id="kwbfa" d="M1235 390.5c0 3.6-2.9 6.5-6.5 6.5s-6.5-2.9-6.5-6.5 2.9-6.5 6.5-6.5 6.5 2.9 6.5 6.5zm-2.75-2.42l-.41-.42a.29.29 0 0 0-.41 0h-.03l-3.96 4.11a.14.14 0 0 1-.21 0l-1.63-1.74-.03-.03a.29.29 0 0 0-.4 0l-.42.41a.32.32 0 0 0-.1.2c0 .07.04.16.1.21l.06.06 2.3 2.49c.03.05.12.08.2.08.1 0 .16-.03.21-.08l4.73-4.9c.12-.13.12-.3 0-.4z"/></defs><g><g transform="translate(-1222 -384)"><use fill="#39b54a" xlink:href="#kwbfa"/></g></g></svg>