<svg xmlns="http://www.w3.org/2000/svg" xmlns:xlink="http://www.w3.org/1999/xlink" viewBox="0 0 130.24 132"><defs><style>.cls-1{fill:none;}.cls-2{clip-path:url(#clip-path);}.cls-3{fill:#00b694;}.cls-4{fill:#003370;}.cls-5{fill:#000d36;}.cls-6{fill:#d35921;}.cls-7{fill:#590800;}.cls-8{clip-path:url(#clip-path-3);}.cls-9{fill:url(#Безымянный_градиент_4);}.cls-10{fill:#fff;}.cls-11{fill:#e1784e;}.cls-12{clip-path:url(#clip-path-5);}.cls-13{fill:url(#Безымянный_градиент_2);}.cls-14{opacity:0.2;}.cls-15{clip-path:url(#clip-path-7);}.cls-16{fill:#b26485;}.cls-17{fill:#840400;}.cls-18{clip-path:url(#clip-path-8);}.cls-19{fill:url(#Безымянный_градиент_5);}.cls-20{opacity:0.5;}.cls-21{clip-path:url(#clip-path-10);}.cls-22{clip-path:url(#clip-path-11);}.cls-23{clip-path:url(#clip-path-12);}.cls-24{fill:url(#Безымянный_градиент_4-2);}.cls-25{fill:#a4daec;}.cls-26{fill:#b7efeb;}.cls-27{fill:#e6ffff;}.cls-28{clip-path:url(#clip-path-14);}.cls-29{fill:url(#Безымянный_градиент_5-2);}</style><clipPath id="clip-path" transform="translate(0)"><rect class="cls-1" y="1.75" width="130.24" height="130.25"/></clipPath><clipPath id="clip-path-3" transform="translate(0)"><path class="cls-1" d="M49.89,28c-6.33,1-9.63,7.89-10.3,9.59A11.09,11.09,0,0,0,40,41.4c1,5.14,3.41,13.59,3.18,14.94-.32,1.84-1.46,5.61-.74,7.51.62,1.59,3.73,10.48,5.81,13.92a3.86,3.86,0,0,0,1.06,1.3c1.83,1,13.48.13,15.37-1.64s10.3-11.1,11.47-15c1.43-4.8-.67-25.06-4.6-29.36-3.21-3.51-11.41-5.38-17.75-5.38a24.55,24.55,0,0,0-3.92.29"/></clipPath><linearGradient id="Безымянный_градиент_4" y1="132.01" x2="1" y2="132.01" gradientTransform="matrix(0, -52.02, -52.02, 0, 6925.2, 78.58)" gradientUnits="userSpaceOnUse"><stop offset="0" stop-color="#fdc38b"/><stop offset="1" stop-color="#fda37d"/></linearGradient><clipPath id="clip-path-5" transform="translate(0)"><path class="cls-1" d="M58.47,13.48a32.29,32.29,0,0,0-21.05,9.63,35.2,35.2,0,0,0-6.36,8.09L35.68,29l-1.21,6.68L33,43.49S41.81,32,53.27,29.35c8.7-2,16.39,2.29,18.81,6.12s3.13,19.6,3.13,19.6l1.33-.36a18.25,18.25,0,0,1,3.2-7.46s4.07-16.31,2.91-20.54c-.77-2.79-7.64-7.93-14.48-10.92a24.09,24.09,0,0,0-9-2.33l-.72,0"/></clipPath><linearGradient id="Безымянный_градиент_2" y1="132.04" x2="1" y2="132.04" gradientTransform="matrix(52.28, 0, 0, -52.28, 31.47, 6937.63)" gradientUnits="userSpaceOnUse"><stop offset="0" stop-color="#7d1831"/><stop offset="1" stop-color="#5c0000"/></linearGradient><clipPath id="clip-path-7" transform="translate(0)"><rect class="cls-1" x="31.06" y="13.46" width="37.11" height="22.2"/></clipPath><clipPath id="clip-path-8" transform="translate(0)"><path class="cls-1" d="M75.76,82.24l0,0,0,0s0,0,0,0l-.06.09c0,.05-.07.11-.11.19l0,0a2.75,2.75,0,0,0-.15.25.17.17,0,0,0,0,.07l-.19.3-1,1.56c-.11.18-.23.35-.35.54-.61.94-1.31,2-2.08,3.14l-.26.38c-.25.38-.52.76-.79,1.15l-.77,1.08c-.41.58-.83,1.16-1.26,1.72h0l0,0,0,.05c-.4.53-.8,1-1.2,1.54a25.91,25.91,0,0,1-2.9,3.15l-.32.26a4.52,4.52,0,0,1-.91.59.46.46,0,0,1-.15.06l-.31.09-.17,0a.86.86,0,0,1-.36-.08,2.24,2.24,0,0,1-.45-.31,1,1,0,0,1-.19-.18l-.29-.31q-.12-.14-.24-.3c-.08-.1-.16-.22-.24-.33A14,14,0,0,1,60.07,96l-.25-.45c-.21-.38-.42-.79-.63-1.21s-.41-.85-.61-1.29l-.24-.53c-.08-.18-.16-.37-.25-.56h0c-.6-1.38-1.15-2.79-1.61-4-.11-.32-.22-.62-.33-.9h0c-.51-1.38-.85-2.38-.92-2.61l0-.05-.06,0h0l-.11,0-.13,0-.33.15a21.42,21.42,0,0,0-4,2.37c-.42.3-.83.62-1.24,1a33.07,33.07,0,0,0-2.89,2.68l-.83.89c-.69.76-1.36,1.57-2,2.4-.26.35-.51.7-.76,1.05s-.67,1-1,1.46-.6,1-.89,1.49a26.81,26.81,0,0,0-1.77,3.79c-.15.38-.28.76-.39,1.14s-.23.75-.32,1.13c-.45,1.81-.89,4.27-1.29,6.89-.66,4.35-1.37,13.43-1.76,18.25l1,0,8.5-.28c.94.31,1.89.59,2.84.85a14.78,14.78,0,0,1,2.4.6h0a64.46,64.46,0,0,0,14,1.72h.92a64.48,64.48,0,0,0,10.74-.89c1.5-.24,3-.54,4.44-.89.81-.19,1.61-.4,2.41-.63a65.09,65.09,0,0,0,26.16-14.48c-.39-2.61-.9-5.63-1.55-8.67-1.43-6.79-3.52-13.63-6.39-16a22.9,22.9,0,0,0-4.32-2.81l-.43-.21a22.14,22.14,0,0,0-2.62-1l-.45-.13-1-.27-1-.21c-1.78-.36-3.35-.49-4.64-.67-.32,0-.62-.1-.9-.16l-.8-.18-.9-.22-1.45-.38-.5-.14-.64-.18L81,83.81l-1.23-.35-.36-.11-.38-.11-.42-.12-.64-.2-.58-.18c-.18-.05-.36-.1-.52-.16l-.07,0-.54-.16-.25-.08-.29-.09Z"/></clipPath><linearGradient id="Безымянный_градиент_5" y1="132" x2="1" y2="132" gradientTransform="matrix(73.41, 0, 0, -73.41, 35.46, 9797.48)" gradientUnits="userSpaceOnUse"><stop offset="0" stop-color="#ca0000"/><stop offset="1" stop-color="#a80009"/></linearGradient><clipPath id="clip-path-10" transform="translate(0)"><rect class="cls-1" x="37.22" y="82.24" width="70.1" height="28.64"/></clipPath><clipPath id="clip-path-11" transform="translate(0)"><rect class="cls-1" x="68.55" y="82.24" width="17.82" height="48.88"/></clipPath><clipPath id="clip-path-12" transform="translate(0)"><path class="cls-1" d="M85.27,51.51c-.28.17-1.55.41-1.89,1.49-.27.88,1,4.63,1.58,6.71h0c.14.48.25.86.31,1.11a39.6,39.6,0,0,1,.45,4.75,10.08,10.08,0,0,0-2.06-.51,1.72,1.72,0,0,0-.94.1c-.75.41-1.67,1-1.67,1l-1.48.25a3.55,3.55,0,0,0-2.27,1.75,3.07,3.07,0,0,0-2.5,1c-1,1.16-1.48,9.66-1.48,9.66a3.17,3.17,0,0,0,2.48-.33c1.25-.75.67-3.92,1.17-4.25s2.5.58,2.59,1.17-2.51,7-2.18,8.5a10.82,10.82,0,0,0,1.2,2.66h0a4.34,4.34,0,0,1,.3.78A12.47,12.47,0,0,1,79,90.2c0,.8-.1,1.42-.1,1.42,2.66,1.46,5.75-1.2,5.75-1.2s.2-.53.51-1.38a78.59,78.59,0,0,0,2.91-9.37c.14-.81.31-2.18.48-3.82.5-4.93,1-12.23.6-13.38-.5-1.52-3.52-11-3.85-11h0"/></clipPath><linearGradient id="Безымянный_градиент_4-2" y1="132.01" y2="132.01" gradientTransform="matrix(0, -38.03, -38.03, 0, 5102.37, 91.3)" xlink:href="#Безымянный_градиент_4"/><clipPath id="clip-path-14" transform="translate(0)"><path class="cls-1" d="M85.13,88.95,85,89c-.31.07-1,.23-2,.52l-.77.24a7.35,7.35,0,0,1-3.25.14,5.73,5.73,0,0,1-.73-.14s.2,6.35.56,14.61.86,18.32,1.48,25.88c.81-.19,1.61-.4,2.41-.63a64.3,64.3,0,0,0,16.74-7.37l0,0c-1.7-3.88-4.63-10.73-7.4-17.2-3.37-7.86-6.49-15.18-6.82-16l0-.07Z"/></clipPath><linearGradient id="Безымянный_градиент_5-2" x1="0" y1="132" x2="1" y2="132" gradientTransform="matrix(21.19, 0, 0, -21.19, 78.26, 2906.73)" xlink:href="#Безымянный_градиент_5"/></defs><title>s-as-2</title><g id="Слой_2" data-name="Слой 2"><g id="Слой_1-2" data-name="Слой 1"><g class="cls-2"><g class="cls-2"><path class="cls-3" d="M130.24,66.87a65.19,65.19,0,0,1-30.79,55.35,64.34,64.34,0,0,1-16.74,7.37c-.8.23-1.6.44-2.41.63-1.46.35-2.94.65-4.44.89a64.49,64.49,0,0,1-10.74.89H64.2a64.45,64.45,0,0,1-14-1.72h0q-1.21-.27-2.4-.6c-1-.26-1.9-.54-2.84-.85l-8.5.28-1,0L17,129.73l-14.85.49,14.93-19.35,0,0a65.11,65.11,0,1,1,113.08-44" transform="translate(0)"/><path class="cls-4" d="M54.37,60.9c-.76,6.41-4.92,11.18-9.3,10.66S37.77,65.42,38.53,59s4.92-11.18,9.3-10.66,7.3,6.13,6.54,12.54" transform="translate(0)"/><path class="cls-5" d="M54,60.86c-.6,5.06-3.89,8.82-7.34,8.41s-5.76-4.84-5.16-9.9,3.88-8.82,7.34-8.41,5.76,4.84,5.16,9.9" transform="translate(0)"/><path class="cls-6" d="M68.39,72.11s1.25,7.5,1.88,8.13,5.51,2,5.51,2S70,85.79,65.12,86.89s-13.36-.46-13.36-.46,5.71-3.28,6.63-4.36.25-3.71.25-3.71Z" transform="translate(0)"/><path class="cls-7" d="M33,43.49s5.91-3,6.35-3,3.1-6,3.1-6-7.07,4.62-7.87,6.22A30.17,30.17,0,0,1,33,43.49" transform="translate(0)"/></g><g class="cls-8"><rect class="cls-9" x="33.16" y="23.57" width="50.7" height="60.66" transform="translate(-12.17 17.39) rotate(-15.34)"/></g><g class="cls-2"><path class="cls-10" d="M50.2,51s-3.85-3.58-5.59-2.75-1.15,4.5-1.15,4.5.94-.19,2.39-.56S50.2,51,50.2,51" transform="translate(0)"/><path class="cls-10" d="M58.14,49a9.24,9.24,0,0,0,3,.06,30.11,30.11,0,0,0,5.21-1.18s-4-4.16-5.75-3.7S58.14,49,58.14,49" transform="translate(0)"/><path class="cls-7" d="M58.91,39.85l-1.2-4.36,1.37,2,.85-2.32A25.66,25.66,0,0,1,65.58,38a12.11,12.11,0,0,1,3.61,3.79l-.59,1.38a39.12,39.12,0,0,0-6.1-2.45c-1.89-.58-3.59-.9-3.59-.9" transform="translate(0)"/><path class="cls-7" d="M47.17,43.34l-.92-5.23-.49,2.24-1.18-1.78a22.07,22.07,0,0,0-3.37,3.82,8.85,8.85,0,0,0-1.85,5.06l1.38,1.06a42.12,42.12,0,0,1,6.43-5.17" transform="translate(0)"/><path class="cls-7" d="M59.07,49,58.14,49s-.53-5.12,1.78-5.85,6.46,4.74,6.46,4.74-4.2-4.14-6.14-3.26C59.09,45.1,59.07,49,59.07,49" transform="translate(0)"/><path class="cls-7" d="M62.47,46.3c.39,1.36,0,2.65-.79,2.89s-1.8-.68-2.18-2,0-2.65.78-2.89,1.8.68,2.19,2" transform="translate(0)"/><path class="cls-7" d="M46.42,49.63c.33,1.22,0,2.37-.72,2.57s-1.6-.62-1.93-1.84,0-2.37.72-2.57,1.6.62,1.93,1.84" transform="translate(0)"/><path class="cls-7" d="M50.2,51s-3.14-4.72-5.62-3.9C41.68,48,43,52.84,43,52.84l1-.27s-1.09-3.62.7-4.11C47,47.84,50.2,51,50.2,51" transform="translate(0)"/><polygon class="cls-10" points="48.37 50.17 45.17 49.97 47.32 50.96 48.37 50.17"/><polygon class="cls-10" points="64.12 47.21 60.88 46.75 63.13 47.74 64.12 47.21"/><path class="cls-7" d="M46.58,64.31l.6.48s4.88,4.72,7.3,4.95c5.28.48,8.17-4.1,9.29-6.39A15.32,15.32,0,0,1,66.93,59l-.56-.52a48.36,48.36,0,0,1-10.6,4.29,54.8,54.8,0,0,1-9.2,1.56" transform="translate(0)"/><path class="cls-7" d="M65.13,57.62a10.54,10.54,0,0,1,2.11,1.49,14.36,14.36,0,0,1,1.14,1.46,20,20,0,0,0-2.3-1.47,1.53,1.53,0,0,1-1-1.48" transform="translate(0)"/><path class="cls-11" d="M58.38,56.41a25.45,25.45,0,0,1-4.09,2.43,6.37,6.37,0,0,1-3.72.5s1.68,1.85,3,1.65,2.82-2.53,2.82-2.53a1.1,1.1,0,0,0,1.37.21c.73-.48.59-2.26.59-2.26" transform="translate(0)"/><path class="cls-11" d="M65.52,47.06a10.59,10.59,0,0,0-4.22.18A8.51,8.51,0,0,0,58.14,49a15.48,15.48,0,0,0,4.09.21,17.15,17.15,0,0,0,4.15-1.32Z" transform="translate(0)"/><path class="cls-11" d="M43,52.65A5.33,5.33,0,0,1,45.65,51a17.07,17.07,0,0,1,4.54,0s-2.38,1.16-4.15,1.9a24.53,24.53,0,0,1-3,1.07Z" transform="translate(0)"/><path class="cls-11" d="M76.17,62.43C75,66.33,66.6,75.67,64.7,77.43s-13.54,2.68-15.38,1.64a3.85,3.85,0,0,1-1.06-1.3s10.58-1.41,13.23-3,12.41-11,13.34-16.9-4-17.86-7.22-21.75S55.47,31.2,48.41,33.14A12.06,12.06,0,0,0,40,41.4a11.1,11.1,0,0,1-.42-3.84c.67-1.7,4-8.54,10.3-9.59s17.74.8,21.67,5.1,6,24.57,4.6,29.36" transform="translate(0)"/><path class="cls-11" d="M88.57,46.26a20.13,20.13,0,0,1-1.85,7.36c-1.66,3.26-7.44,6.56-8.83,6.68a2.05,2.05,0,0,1-1.35-.36h0a2.36,2.36,0,0,1-.7-.73l-.07-6.64a25.88,25.88,0,0,1,4.79-6.09c2.83-2.51,6.65-3.84,7.28-3.41s.81,1.64.73,3.2" transform="translate(0)"/><path class="cls-6" d="M88.57,46.26a20.13,20.13,0,0,1-1.85,7.36c-1.66,3.26-7.44,6.56-8.83,6.68a2.05,2.05,0,0,1-1.35-.36h0l0-4.28s3.1-4.81,6.63-7a20.76,20.76,0,0,1,5.35-2.36" transform="translate(0)"/></g><g class="cls-12"><rect class="cls-13" x="26.49" y="7.22" width="61.89" height="54.09" transform="translate(-7.02 16.41) rotate(-15.34)"/></g><g class="cls-2"><path class="cls-7" d="M69,32.38s-7-8.84-15.81-8.91-17.79,6.94-17.79,6.94L35,32.52s8.13-6.41,15-7.2C60.38,24.15,69,32.38,69,32.38" transform="translate(0)"/><path class="cls-7" d="M45.67,17s9.77-1.81,17.13,3.52a22.47,22.47,0,0,1,8.51,13.91s-1.19-8.88-7-14.11a23.17,23.17,0,0,0-13.06-5.57Z" transform="translate(0)"/><path class="cls-7" d="M75.55,19.82a52.67,52.67,0,0,1,0,9.84,25,25,0,0,1-2.4,8.52A61.75,61.75,0,0,0,76.9,29.7c.84-3,.68-8.46.68-8.46Z" transform="translate(0)"/><path class="cls-7" d="M73.62,40.24a30.66,30.66,0,0,1,5.27-.42c2,.12,2.41.47,2.41.47l.7-3.71s-5.15,2.32-6.3,2.65a7.28,7.28,0,0,0-2.07,1" transform="translate(0)"/><path class="cls-7" d="M74.18,43.59a27.51,27.51,0,0,1,3.75.78l2.35.63-.36,2.08Z" transform="translate(0)"/><g class="cls-14"><g class="cls-15"><path class="cls-16" d="M68.17,15.79c-4.43,3.69-11.46,9.1-17.49,11.73s-12.41,6-16.21,8.14L35.68,29l-4.62,2.24a35.17,35.17,0,0,1,6.36-8.09,32.29,32.29,0,0,1,21.05-9.63c2.67-.2,6.18.77,9.7,2.31" transform="translate(0)"/></g></g><path class="cls-4" d="M90.16,53.62C89.4,60,85.24,64.8,80.87,64.28s-7.3-6.13-6.54-12.54,4.92-11.18,9.3-10.66,7.3,6.13,6.54,12.54" transform="translate(0)"/><path class="cls-5" d="M89.8,53.58c-.6,5.06-3.89,8.82-7.34,8.41s-5.76-4.84-5.16-9.9,3.89-8.82,7.34-8.41,5.76,4.84,5.16,9.9" transform="translate(0)"/><path class="cls-4" d="M83.62,41.09l-3.35.62v0c-.21-.68-5.68-18-12.1-22.87C59.76,12.49,53,14.32,53,14.32s2-1,3.59-1.72h0a8.75,8.75,0,0,1,1.52-.53c1.31-.25,12,0,17.68,4.25,5,3.72,6.89,6.09,7.77,12.25a53.24,53.24,0,0,1,.08,12.52" transform="translate(0)"/><path class="cls-5" d="M81.43,41.24l-1.16.47v0c-.21-.68-5.68-18-12.1-22.87C59.76,12.49,53,14.32,53,14.32s2-1,3.59-1.72h0c4.64.2,14.91,3.68,16.57,6.26s8.29,22.38,8.29,22.38" transform="translate(0)"/><path class="cls-4" d="M64.12,68.39l.14-.13.86-.83s2.65-1.6,6.85-3.55,10.58-9.94,10.58-9.94-4.09,7.37-9.07,10.74a21.39,21.39,0,0,1-9.37,3.72" transform="translate(0)"/><path class="cls-5" d="M82.86,53.93S77.8,61.86,72.14,64.86a47.32,47.32,0,0,1-8,3.53l1,2.66a32,32,0,0,0,7.45-3c4.25-2.31,10.28-11.61,10.28-11.61Z" transform="translate(0)"/><path class="cls-17" d="M55.15,84.38,36.44,129.09l-1,0L17,129.73c1.51-6.74,8.1-31.93,10-34.42,2.75-3.5,12.18-5.92,15.61-6.83,4.46-1.18,10.73-3.47,12.19-4l.13,0,.11,0Z" transform="translate(0)"/><path class="cls-17" d="M37,125.63a130,130,0,0,1,2-15.47c.91-4.6,2.19-9.19,4-12.29a46.59,46.59,0,0,1,9.5-11.33c1.44-1.23,2.46-2,2.7-2.15l.06,0Z" transform="translate(0)"/></g><g class="cls-18"><rect class="cls-19" x="35.46" y="82.23" width="73.41" height="49.77"/></g><g class="cls-2"><g class="cls-20"><g class="cls-21"><path class="cls-17" d="M107.32,106.45a57.65,57.65,0,0,1-13.18-1.11c-8.13-1.65-26-1.35-42.38,1.53-7.4,1.3-11.87,2.78-14.54,4,.4-2.62.84-5.08,1.29-6.89,2-8,9.81-16.93,16.7-19.63,0,0,4.25,12.88,7,14.25S75.77,82.24,75.77,82.24s6.57,2.08,9.82,2.75,9,.28,15.34,5.48c2.87,2.35,5,9.19,6.39,16" transform="translate(0)"/></g></g><g class="cls-20"><g class="cls-22"><path class="cls-17" d="M86.37,100.49h0l-.5,4L82.71,129.6c-.8.23-1.6.44-2.41.63-1.46.35-2.94.65-4.44.89,0-3-.35-9.1-2.37-19.63-.51-2.66-1-4.95-1.43-6.91-.81-3.61-1.5-6.14-2-7.88a28,28,0,0,0-1-2.9,4.18,4.18,0,0,0-.42-.82l0,0,0,0,7.12-10.59,0,0h0l.29.09,1.38.41,3.61,1.08.25.07.17.57,1.54,5v0l.09.29.42,1.36Z" transform="translate(0)"/></g></g></g><g class="cls-23"><rect class="cls-24" x="68.11" y="50.1" width="26.61" height="44.38" transform="translate(-16.22 24.11) rotate(-15.34)"/></g><g class="cls-2"><path class="cls-25" d="M58.07,92.06s2.32,7.68,5.07,7.39S69,93.74,69,93.74L63.54,81.86H60.1Z" transform="translate(0)"/><path class="cls-26" d="M55.21,84.36l2.86-4.2,4.07,1.08S58.43,94.32,57,94.49s-1.8-10.13-1.8-10.13" transform="translate(0)"/><path class="cls-26" d="M62.14,81.24l8-3.25,5.59,4.25s-5.08,15-6.46,15.25-7.17-16.25-7.17-16.25" transform="translate(0)"/><path class="cls-27" d="M64.12,86.24s1-4.19,2.2-5S71,78.62,71,78.62L70.18,78l-8,3.25-4.07-1.08-.82,1.2,4,3,.93-2.12Z" transform="translate(0)"/><path class="cls-11" d="M75.09,68.88s6.76.53,7.47.73,1,2.67,1,2.67a13.64,13.64,0,0,0,0-3.23c-.25-.34-6.24-.89-6.24-.89s-1.68,0-2.21.71" transform="translate(0)"/><path class="cls-11" d="M80,66.35a51.08,51.08,0,0,1,5.84,1.14c.56.34.57,2.25.57,2.25a12.09,12.09,0,0,0-.2-2.69,43,43,0,0,0-5.12-.89Z" transform="translate(0)"/><path class="cls-11" d="M88.56,67.44c-.07-.21-.38-1.07-.92-1.27s-4-1.1-4-1.1a10.07,10.07,0,0,1,2.06.51,39.55,39.55,0,0,0-.45-4.75c-.06-.25-.17-.63-.31-1.11,0,0,.64,1.24.73,1.44s1.63,2.67,2.1,3.27a9.75,9.75,0,0,1,.77,3" transform="translate(0)"/><path class="cls-11" d="M88.53,75.85c-.17,1.64-.34,3-.48,3.82A78.47,78.47,0,0,1,85.14,89L81,90.66l-2-.46a12.54,12.54,0,0,0-.1-2.83,4.41,4.41,0,0,0-.3-.78h0a31.34,31.34,0,0,0,7.18-6.42,31,31,0,0,0,2.77-4.31" transform="translate(0)"/></g><g class="cls-28"><rect class="cls-29" x="78.26" y="88.94" width="21.19" height="41.29"/></g><g class="cls-2"><path class="cls-17" d="M93,125.77a29.87,29.87,0,0,0-1.46-11.16c-1.09-3.16-2.37-6.68-3.62-10-.51-1.4-1-2.76-1.52-4.07h0c-1.44-3.81-2.71-7.1-3.45-9l-.54-1.38-.14-.37.78-.21L85,89l.12,0h.05l0,.07c.33.79,3.45,8.11,6.82,16,2.77,6.47,5.7,13.32,7.4,17.2l0,.05A64.38,64.38,0,0,1,93,125.77" transform="translate(0)"/><path class="cls-10" d="M48.65,64.62a54.5,54.5,0,0,0,7.94-1.5,48.65,48.65,0,0,0,9.16-3.81s-2.38,2.54-2.94,3.18c-1.87,2.16-7.74,3.56-10,3.67a6.8,6.8,0,0,1-4.18-1.54" transform="translate(0)"/><path class="cls-10" d="M55.15,69.39,55,68.77a18.51,18.51,0,0,0,3.94-1.29,17.11,17.11,0,0,0,2.67-1.69,7.11,7.11,0,0,1-3.3,3,10.47,10.47,0,0,1-3.12.65" transform="translate(0)"/></g></g></g></g></svg>