<svg xmlns="http://www.w3.org/2000/svg" xmlns:xlink="http://www.w3.org/1999/xlink" viewBox="0 0 277.08 370.44"><defs><style>.cls-1{fill:url(#Безымянный_градиент_2);}.cls-2{fill:url(#Безымянный_градиент_4);}.cls-3,.cls-57,.cls-7{fill:none;}.cls-4{isolation:isolate;}.cls-5{clip-path:url(#clip-path);}.cls-6{fill:#bc6839;}.cls-7{stroke:#994f29;stroke-width:2px;}.cls-57,.cls-7{stroke-miterlimit:10;}.cls-8{fill:#c6c4c5;}.cls-9{fill:#757575;}.cls-10{fill:#b6e2ff;}.cls-11{fill:#d2efff;}.cls-12,.cls-23{opacity:0.5;}.cls-12{mix-blend-mode:multiply;}.cls-13{clip-path:url(#clip-path-3);}.cls-14{clip-path:url(#clip-path-4);}.cls-15{mask:url(#mask);}.cls-16{fill:url(#Безымянный_градиент);}.cls-17{fill:#994f29;}.cls-18{fill:#ffb797;}.cls-19{fill:#6788b7;}.cls-20{fill:#352e2c;}.cls-21{fill:#41608f;}.cls-22{clip-path:url(#clip-path-5);}.cls-24{clip-path:url(#clip-path-6);}.cls-25{fill:#32507c;}.cls-26{clip-path:url(#clip-path-7);}.cls-27{clip-path:url(#clip-path-8);}.cls-28{clip-path:url(#clip-path-9);}.cls-29{clip-path:url(#clip-path-10);}.cls-30{clip-path:url(#clip-path-11);}.cls-31{clip-path:url(#clip-path-12);}.cls-32{clip-path:url(#clip-path-13);}.cls-33{clip-path:url(#clip-path-14);}.cls-34{clip-path:url(#clip-path-15);}.cls-35{clip-path:url(#clip-path-16);}.cls-36{clip-path:url(#clip-path-17);}.cls-37{clip-path:url(#clip-path-18);}.cls-38{clip-path:url(#clip-path-19);}.cls-39{clip-path:url(#clip-path-20);}.cls-40{clip-path:url(#clip-path-21);}.cls-41{clip-path:url(#clip-path-22);}.cls-42{clip-path:url(#clip-path-23);}.cls-43{clip-path:url(#clip-path-24);}.cls-44{clip-path:url(#clip-path-25);}.cls-45{clip-path:url(#clip-path-26);}.cls-46{clip-path:url(#clip-path-27);}.cls-47{fill:#d64034;}.cls-48{fill:#f98070;}.cls-49{fill:#f2f2f2;}.cls-50{clip-path:url(#clip-path-29);}.cls-51{mask:url(#mask-2);}.cls-52{fill:url(#Безымянный_градиент_3);}.cls-53{fill:#f98575;}.cls-54{fill:#ce7e15;}.cls-55{fill:#b26912;}.cls-56{fill:#f09d23;}.cls-57{stroke:#fff;stroke-width:1.5px;}.cls-58{fill:#f9b564;}.cls-59{fill:#ba0f40;}.cls-60{fill:#990e3c;}.cls-61{fill:#fff;}.cls-62{fill:#d3c9c5;}.cls-63{fill:#514b4a;}.cls-64{fill:#dbdbdb;}</style><linearGradient id="Безымянный_градиент_2" y1="370.43" x2="1" y2="370.43" gradientTransform="matrix(65.17, 0, 0, -65.17, 99.41, 24337.59)" gradientUnits="userSpaceOnUse"><stop offset="0" stop-color="#fff"/><stop offset="1"/></linearGradient><linearGradient id="Безымянный_градиент_4" y1="370.43" x2="1" y2="370.43" gradientTransform="matrix(0, -19.4, -19.4, 0, 7275.01, 85.19)" gradientUnits="userSpaceOnUse"><stop offset="0" stop-color="#fff"/><stop offset="0.09" stop-color="#f2f2f2"/><stop offset="0.26" stop-color="#cfcfcf"/><stop offset="0.48" stop-color="#979797"/><stop offset="0.76" stop-color="#4a4a4a"/><stop offset="1"/></linearGradient><clipPath id="clip-path"><rect class="cls-3" width="277.08" height="370.43"/></clipPath><clipPath id="clip-path-3"><rect class="cls-3" x="99.41" y="25.9" width="65.17" height="344.54"/></clipPath><clipPath id="clip-path-4"><path class="cls-3" d="M158.42,146.38,125,117.89V115l-1.92-1.34a14.94,14.94,0,0,0-7.33-6.52,33.5,33.5,0,0,0,4.93-9.23h1.86V87.39a14,14,0,0,0,2.62-6,14.36,14.36,0,0,0,.12-16.18c-.26-6.06-1.4-13.9-7-19.15A27.54,27.54,0,0,0,99.41,25.9V370.43h28.65V355.81h-.59V330.87H125V219l3.73-4.4a19.29,19.29,0,0,0,4.14-8.4l13.51-16-1.27-1.09,15.31-18a17.57,17.57,0,0,0-2-24.73"/></clipPath><mask id="mask" x="99.41" y="25.9" width="67.26" height="344.54" maskUnits="userSpaceOnUse"><rect class="cls-1" x="99.41" y="25.9" width="67.26" height="344.54"/></mask><linearGradient id="Безымянный_градиент" y1="370.43" x2="1" y2="370.43" gradientTransform="matrix(65.17, 0, 0, -65.17, 99.41, 24337.6)" gradientUnits="userSpaceOnUse"><stop offset="0" stop-color="#aa572e"/><stop offset="1" stop-color="#aa572e"/></linearGradient><clipPath id="clip-path-5"><path class="cls-3" d="M89.37,114.54H81.31a30,30,0,0,0-16.24,4.76l-.07,0-.08.14c-.39.25-.77.51-1.15.78v1.2l-22.57,39.1a10.12,10.12,0,0,0-1.32,4.2L37.19,196.1l14.59,1.25,2.46-28.74a7.58,7.58,0,0,1,1-3.14l8.54-14.79v32.49H115V143l19,16.21a2.22,2.22,0,0,1,.25,3.14L119.19,180,131,190.21l21.76-25.57a7.55,7.55,0,0,0-.85-10.64L115,122.5v-2.32a30,30,0,0,0-17.54-5.64Z"/></clipPath><clipPath id="clip-path-6"><rect class="cls-3" x="18.56" y="99.18" width="5.56" height="104.64"/></clipPath><clipPath id="clip-path-7"><rect class="cls-3" x="33.36" y="99.18" width="5.56" height="104.64"/></clipPath><clipPath id="clip-path-8"><rect class="cls-3" x="48.17" y="99.18" width="5.56" height="104.64"/></clipPath><clipPath id="clip-path-9"><rect class="cls-3" x="62.98" y="99.18" width="5.56" height="104.64"/></clipPath><clipPath id="clip-path-10"><rect class="cls-3" x="77.79" y="99.18" width="5.56" height="104.64"/></clipPath><clipPath id="clip-path-11"><rect class="cls-3" x="92.6" y="99.18" width="5.56" height="104.64"/></clipPath><clipPath id="clip-path-12"><rect class="cls-3" x="107.4" y="99.18" width="5.56" height="104.64"/></clipPath><clipPath id="clip-path-13"><rect class="cls-3" x="122.21" y="99.18" width="5.56" height="104.64"/></clipPath><clipPath id="clip-path-14"><rect class="cls-3" x="137.02" y="99.18" width="5.56" height="104.64"/></clipPath><clipPath id="clip-path-15"><rect class="cls-3" x="151.83" y="99.18" width="5.56" height="104.64"/></clipPath><clipPath id="clip-path-16"><rect class="cls-3" x="166.63" y="99.18" width="5.56" height="104.64"/></clipPath><clipPath id="clip-path-17"><rect class="cls-3" y="74.67" width="190.75" height="5.56"/></clipPath><clipPath id="clip-path-18"><rect class="cls-3" y="89.48" width="190.75" height="5.56"/></clipPath><clipPath id="clip-path-19"><rect class="cls-3" y="104.29" width="190.75" height="5.56"/></clipPath><clipPath id="clip-path-20"><rect class="cls-3" y="119.1" width="190.75" height="5.56"/></clipPath><clipPath id="clip-path-21"><rect class="cls-3" y="133.91" width="190.75" height="5.56"/></clipPath><clipPath id="clip-path-22"><rect class="cls-3" y="148.71" width="190.75" height="5.56"/></clipPath><clipPath id="clip-path-23"><rect class="cls-3" y="163.52" width="190.75" height="5.56"/></clipPath><clipPath id="clip-path-24"><rect class="cls-3" y="178.33" width="190.75" height="5.56"/></clipPath><clipPath id="clip-path-25"><rect class="cls-3" y="193.14" width="190.75" height="5.56"/></clipPath><clipPath id="clip-path-26"><rect class="cls-3" y="207.94" width="190.75" height="5.56"/></clipPath><clipPath id="clip-path-27"><rect class="cls-3" y="222.75" width="190.75" height="5.56"/></clipPath><clipPath id="clip-path-29"><path class="cls-3" d="M86.5,68.65V85.79a2.26,2.26,0,0,0,4.52,0V68.65Z"/></clipPath><mask id="mask-2" x="86.5" y="68.65" width="4.52" height="19.4" maskUnits="userSpaceOnUse"><rect class="cls-2" x="86.5" y="68.65" width="4.52" height="19.4"/></mask><linearGradient id="Безымянный_градиент_3" y1="370.43" x2="1" y2="370.43" gradientTransform="matrix(0, -19.4, -19.4, 0, 7275.01, 85.19)" gradientUnits="userSpaceOnUse"><stop offset="0" stop-color="#ff5450"/><stop offset="0.2" stop-color="#ff5f5d"/><stop offset="0.58" stop-color="#fd7b7e"/><stop offset="1" stop-color="#fca2ac"/></linearGradient></defs><title>s-as-3</title><g class="cls-4"><g id="Слой_2" data-name="Слой 2"><g id="Слой_1-2" data-name="Слой 1"><g class="cls-5"><rect class="cls-6" x="99.41" width="177.67" height="370.43"/><rect class="cls-7" x="109.41" y="10" width="157.67" height="350.43"/><g class="cls-5"><path class="cls-8" d="M252.41,200.75h0a6.33,6.33,0,0,0,6.33-6.33V162.28a6.33,6.33,0,1,0-12.67,0v32.13a6.33,6.33,0,0,0,6.33,6.33"/><path class="cls-9" d="M250,190.67a2.46,2.46,0,1,0,2.46-2.46,2.46,2.46,0,0,0-2.46,2.46"/><rect class="cls-10" x="138.58" y="241.1" width="99.33" height="99.33"/><rect class="cls-10" x="138.58" y="30" width="99.33" height="171.82"/><polygon class="cls-11" points="237.91 37.14 138.58 136.48 138.58 86.17 194.75 30 237.91 30 237.91 37.14"/><polygon class="cls-11" points="138.58 150.17 237.71 51.04 237.71 61.79 138.12 161.38 138.58 150.17"/><polygon class="cls-11" points="150.58 201.82 237.97 114.42 237.97 129.42 165.45 201.94 150.58 201.82"/><polygon class="cls-11" points="237.97 252.16 149.64 340.49 164.33 340.49 238.03 266.79 237.97 252.16"/><polygon class="cls-11" points="237.91 289.42 186.96 340.37 217.33 340.37 237.91 319.79 237.91 289.42"/><rect class="cls-6" x="181.41" y="236.17" width="13.67" height="109.2"/><rect class="cls-6" x="181.41" y="22.67" width="13.67" height="186.48"/><g class="cls-12"><g class="cls-13"><g class="cls-14"><g class="cls-15"><rect class="cls-16" x="99.41" y="25.9" width="67.26" height="344.54"/></g></g></g></g><path class="cls-17" d="M181.41,201.82H138.58V30h42.83Zm0-173.82H138.58a2,2,0,0,0-2,2V201.82a2,2,0,0,0,2,2h42.83a2,2,0,0,0,2-2V30a2,2,0,0,0-2-2"/><path class="cls-17" d="M181.41,340.44H138.58V241.1h42.83Zm0-101.33H138.58a2,2,0,0,0-2,2v99.33a2,2,0,0,0,2,2h42.83a2,2,0,0,0,2-2V241.1a2,2,0,0,0-2-2"/><path class="cls-17" d="M237.91,340.44H195.08V241.1h42.83Zm0-101.33H195.08a2,2,0,0,0-2,2v99.33a2,2,0,0,0,2,2h42.83a2,2,0,0,0,2-2V241.1a2,2,0,0,0-2-2"/><path class="cls-17" d="M237.91,201.82H195.08V30h42.83Zm0-173.82H195.08a2,2,0,0,0-2,2V201.82a2,2,0,0,0,2,2h42.83a2,2,0,0,0,2-2V30a2,2,0,0,0-2-2"/><path class="cls-18" d="M123.28,193.31v8.82a9.29,9.29,0,0,1-2.2,6l-6.11,7.2V186.16Z"/><polygon class="cls-19" points="117.7 178.76 112.92 184.42 127.54 196.99 132.32 191.32 117.7 178.76"/><path class="cls-20" d="M78.42,53.44s-2.59-4-8.52-2.24c-7.71,2.24-7.71,11.36-7.71,20.61v7.12A4.07,4.07,0,0,0,66.25,83s3.31-29,12.17-29.56"/><path class="cls-20" d="M99.1,53.44s2.59-4,8.52-2.24c7.71,2.24,7.71,11.36,7.71,20.61v7.12A4.07,4.07,0,0,1,111.27,83S108,54,99.1,53.44"/><path class="cls-21" d="M151.93,154,115,122.5v-2.32a30,30,0,0,0-17.54-5.64H81.31a29.94,29.94,0,0,0-16.24,4.76l-.08,0-.08.15c-.39.25-.77.51-1.15.78v1.21l-22.57,39.1a10.11,10.11,0,0,0-1.32,4.2L37.19,196.1l14.6,1.25,2.46-28.74a7.55,7.55,0,0,1,1-3.13l8.54-14.79v32.49H115V143l19,16.21a2.22,2.22,0,0,1,.25,3.14L119.19,180,131,190.21l21.76-25.57a7.55,7.55,0,0,0-.85-10.64"/></g><g class="cls-22"><g class="cls-23"><g class="cls-24"><rect class="cls-25" x="18.56" y="99.18" width="5.56" height="104.64"/></g></g><g class="cls-23"><g class="cls-26"><rect class="cls-25" x="33.37" y="99.18" width="5.56" height="104.64"/></g></g><g class="cls-23"><g class="cls-27"><rect class="cls-25" x="48.17" y="99.18" width="5.56" height="104.64"/></g></g><g class="cls-23"><g class="cls-28"><rect class="cls-25" x="62.98" y="99.18" width="5.56" height="104.64"/></g></g><g class="cls-23"><g class="cls-29"><rect class="cls-25" x="77.79" y="99.18" width="5.56" height="104.64"/></g></g><g class="cls-23"><g class="cls-30"><rect class="cls-25" x="92.59" y="99.18" width="5.56" height="104.64"/></g></g><g class="cls-23"><g class="cls-31"><rect class="cls-25" x="107.4" y="99.18" width="5.56" height="104.64"/></g></g><g class="cls-23"><g class="cls-32"><rect class="cls-25" x="122.21" y="99.18" width="5.56" height="104.64"/></g></g><g class="cls-23"><g class="cls-33"><rect class="cls-25" x="137.02" y="99.18" width="5.56" height="104.64"/></g></g><g class="cls-23"><g class="cls-34"><rect class="cls-25" x="151.83" y="99.18" width="5.56" height="104.64"/></g></g><g class="cls-23"><g class="cls-35"><rect class="cls-25" x="166.63" y="99.18" width="5.56" height="104.64"/></g></g><g class="cls-23"><g class="cls-36"><rect class="cls-25" y="74.68" width="190.75" height="5.56"/></g></g><g class="cls-23"><g class="cls-37"><rect class="cls-25" y="89.48" width="190.75" height="5.56"/></g></g><g class="cls-23"><g class="cls-38"><rect class="cls-25" y="104.29" width="190.75" height="5.56"/></g></g><g class="cls-23"><g class="cls-39"><rect class="cls-25" y="119.1" width="190.75" height="5.56"/></g></g><g class="cls-23"><g class="cls-40"><rect class="cls-25" y="133.91" width="190.75" height="5.56"/></g></g><g class="cls-23"><g class="cls-41"><rect class="cls-25" y="148.71" width="190.75" height="5.56"/></g></g><g class="cls-23"><g class="cls-42"><rect class="cls-25" y="163.52" width="190.75" height="5.56"/></g></g><g class="cls-23"><g class="cls-43"><rect class="cls-25" y="178.33" width="190.75" height="5.56"/></g></g><g class="cls-23"><g class="cls-44"><rect class="cls-25" y="193.14" width="190.75" height="5.56"/></g></g><g class="cls-23"><g class="cls-45"><rect class="cls-25" y="207.94" width="190.75" height="5.56"/></g></g><g class="cls-23"><g class="cls-46"><rect class="cls-25" y="222.75" width="190.75" height="5.56"/></g></g></g><g class="cls-5"><path class="cls-18" d="M81.9,95.71v19.91a7.46,7.46,0,1,0,14.93,0V95.71Z"/><path class="cls-18" d="M64.24,68.77a4.41,4.41,0,1,0,4.41,4.41,4.41,4.41,0,0,0-4.41-4.41"/><path class="cls-18" d="M113.27,68.77a4.41,4.41,0,1,0,4.41,4.41,4.41,4.41,0,0,0-4.41-4.41"/><path class="cls-18" d="M88.76,49.9h0A23.75,23.75,0,0,0,65,73.65V86.81a23.75,23.75,0,0,0,47.5,0V73.65A23.75,23.75,0,0,0,88.76,49.9"/><path class="cls-20" d="M112.51,73.65a23.63,23.63,0,0,0-3.17-11.86V87.4H68.18V61.79A23.63,23.63,0,0,0,65,73.65V87.87h0a23.73,23.73,0,0,0,47.42,0h0Z"/><path class="cls-20" d="M88.76,84.7c-7-2.7-14.65,2.7-14.65,2.7h29.31S95.77,82,88.76,84.7"/><path class="cls-47" d="M99.1,90.19H78.42s-.19,8.55,10.34,8.55S99.1,90.19,99.1,90.19"/><path class="cls-48" d="M96.51,96.18c-1.37-1.58-3.72-2.92-7.75-2.92S82.38,94.6,81,96.18c1.52,1.44,3.92,2.57,7.75,2.57s6.23-1.13,7.75-2.57"/><path class="cls-49" d="M98.87,91.95a7.92,7.92,0,0,0,.22-1.75H78.42a8,8,0,0,0,.22,1.75Z"/></g><g class="cls-50"><g class="cls-51"><rect class="cls-52" x="86.5" y="68.65" width="4.52" height="19.4"/></g></g><g class="cls-5"><path class="cls-20" d="M77.51,67.28a4.76,4.76,0,0,1,4.27,2.65,4.29,4.29,0,0,0-8.53,0,4.76,4.76,0,0,1,4.27-2.65"/><path class="cls-20" d="M100,67.28a4.76,4.76,0,0,1,4.26,2.65,4.29,4.29,0,0,0-8.53,0A4.76,4.76,0,0,1,100,67.28"/><path class="cls-53" d="M77.51,75A3.53,3.53,0,1,0,81,78.56,3.53,3.53,0,0,0,77.51,75"/><path class="cls-20" d="M77.51,69.26a2,2,0,1,0,2,2,2,2,0,0,0-2-2"/><path class="cls-53" d="M100,75a3.53,3.53,0,1,0,3.53,3.53A3.53,3.53,0,0,0,100,75"/><path class="cls-20" d="M100,69.26a2,2,0,1,0,2,2,2,2,0,0,0-2-2"/><path class="cls-20" d="M74.51,57.09s-3.33,10.62-9,11.85c0,0-1.21-13.82,9.06-14.7Z"/><path class="cls-20" d="M103,57.09s3.33,10.62,9,11.85c0,0,1.21-13.82-9.06-14.7Z"/><path class="cls-20" d="M88.76,52s-4,8.48-14.25,5c0,0,3.59-8.44,14.25-5"/><path class="cls-20" d="M88.07,52s4,8.48,14.25,5c0,0-3.59-8.44-14.25-5"/><path class="cls-54" d="M91.69,34.75A17.27,17.27,0,0,1,109,52a73.64,73.64,0,0,1-20.2,2.67A73.62,73.62,0,0,1,68.56,52,17.27,17.27,0,0,1,85.83,34.75Z"/><path class="cls-55" d="M88.76,31.11a2.18,2.18,0,1,0,2.18,2.18,2.18,2.18,0,0,0-2.18-2.18"/><path class="cls-56" d="M88.76,54.17A87.22,87.22,0,0,0,109,52s-3.75,11.33-20.2,11.33S68.56,52,68.56,52a87.22,87.22,0,0,0,20.2,2.15"/><path class="cls-19" d="M82,111.64l7.39,11.44-2.9,4.5a1.76,1.76,0,0,1-3-.1l-6.92-12.55Z"/><path class="cls-19" d="M96.76,111.64l-7.39,11.44,2.9,4.5a1.76,1.76,0,0,0,3-.1l6.92-12.55Z"/><path class="cls-54" d="M112.21,147H66.52a2.76,2.76,0,0,0-2.76,2.76V348.49H82.88V237.55h13V348.49H115V149.8a2.76,2.76,0,0,0-2.76-2.76"/><rect class="cls-57" x="65.18" y="141.03" width="3.46" height="6.61" rx="1.5" ry="1.5"/><path class="cls-54" d="M68.38,142.4H65.44a1.68,1.68,0,0,1-1.68-1.68V121a5,5,0,0,1,5-5,1.31,1.31,0,0,1,1.31,1.31v23.44a1.68,1.68,0,0,1-1.68,1.68"/><rect class="cls-57" x="110.1" y="141.03" width="3.46" height="6.61" rx="1.5" ry="1.5"/><path class="cls-54" d="M110.36,142.4h2.94a1.68,1.68,0,0,0,1.68-1.68V121a5,5,0,0,0-5-5,1.31,1.31,0,0,0-1.31,1.31v23.44a1.68,1.68,0,0,0,1.68,1.68"/><path class="cls-58" d="M75.73,159.21V172a13.17,13.17,0,0,0,4.43,9.85l.21.18a13.56,13.56,0,0,0,18,0l.21-.18A13.18,13.18,0,0,0,103,172V159.21Z"/><path class="cls-8" d="M58.26,223.39h-3.6a10.35,10.35,0,1,0-20.69,0h-3.6a13.95,13.95,0,0,1,27.9,0"/><path class="cls-59" d="M14.28,233.37v34.31a6.13,6.13,0,0,0,6.13,6.13H68.2a6.13,6.13,0,0,0,6.13-6.13V233.37Z"/><path class="cls-60" d="M14.28,264v3.71a6.13,6.13,0,0,0,6.13,6.13H68.2a6.13,6.13,0,0,0,6.13-6.13V264Z"/><path class="cls-8" d="M74.33,233.64v-5.17a6.13,6.13,0,0,0-6.13-6.13H20.41a6.13,6.13,0,0,0-6.13,6.13v5.17Z"/><path class="cls-8" d="M24.53,238.73H23.8a2.11,2.11,0,0,1-2.11-2.11v-4.77h5v4.77a2.11,2.11,0,0,1-2.11,2.11"/><path class="cls-8" d="M64.82,238.73h-.73A2.11,2.11,0,0,1,62,236.62v-4.77h4.95v4.77a2.11,2.11,0,0,1-2.11,2.11"/><path class="cls-61" d="M87.15,47.13l4-4a1.82,1.82,0,0,1,1.39-.51,1.75,1.75,0,0,0,1.8-2.08L93.06,41.8l-1.2-.18-.18-1.2L93,39.14a1.75,1.75,0,0,0-2.08,1.8,1.82,1.82,0,0,1-.51,1.38l-4,4a1.82,1.82,0,0,1-1.38.52,1.75,1.75,0,0,0-1.8,2.08l1.28-1.28,1.2.18.18,1.2-1.28,1.28a1.75,1.75,0,0,0,2.08-1.8,1.82,1.82,0,0,1,.52-1.39"/><path class="cls-61" d="M90.64,45.61a.76.76,0,0,1-.72-.19l-4.76-4.76.16-.15-.95-1.22-1,1,1.22.95.16-.15,4.76,4.76a.76.76,0,0,1,.19.72.74.74,0,0,0,.19.7l2.54,2.54a.46.46,0,0,0,.64,0l.85-.85a.46.46,0,0,0,0-.64L91.33,45.8a.74.74,0,0,0-.7-.2"/><path class="cls-18" d="M37.33,201.82l0,13.42A1.71,1.71,0,0,0,39,216.93l9.64.14a1.71,1.71,0,0,0,1.73-1.6l1-13.4Z"/><polygon class="cls-19" points="34.91 195.32 34.48 202.24 53.71 203.52 54.13 196.61 34.91 195.32"/><rect class="cls-62" x="67.09" y="345.5" width="12.46" height="14.78"/><rect class="cls-62" x="99.19" y="345.5" width="12.46" height="14.78"/><rect class="cls-58" x="61.26" y="340.87" width="24.12" height="7.63"/><path class="cls-20" d="M84.37,365.81a11,11,0,1,0-22.1,0Z"/><rect class="cls-63" x="60.67" y="365.81" width="25.3" height="4.63"/><path class="cls-20" d="M116.46,365.81a11,11,0,1,0-22.09,0Z"/><rect class="cls-63" x="92.77" y="365.81" width="25.3" height="4.63"/><rect class="cls-58" x="93.35" y="340.87" width="24.12" height="7.63"/><path class="cls-64" d="M254,173.26H269a2.32,2.32,0,0,1,0,4.64H254a2.32,2.32,0,0,1,0-4.64"/></g></g></g></g></g></svg>