<svg xmlns="http://www.w3.org/2000/svg" xmlns:xlink="http://www.w3.org/1999/xlink" viewBox="0 0 140.86 195.22"><defs><style>.cls-1{fill:none;}.cls-2{isolation:isolate;}.cls-3{clip-path:url(#clip-path);}.cls-15,.cls-4{mix-blend-mode:multiply;}.cls-5{clip-path:url(#clip-path-3);}.cls-6{fill:#d0d2d3;}.cls-7{fill:#ffb795;}.cls-8{fill:#e89270;}.cls-9{fill:#231f20;}.cls-10{fill:#386794;}.cls-11,.cls-15{opacity:0.5;}.cls-11,.cls-34{mix-blend-mode:soft-light;}.cls-12{clip-path:url(#clip-path-4);}.cls-13{fill:#fff;}.cls-14{clip-path:url(#clip-path-5);}.cls-16{clip-path:url(#clip-path-6);}.cls-17{fill:#91c3ff;}.cls-18{fill:#e6e7e8;}.cls-19{clip-path:url(#clip-path-7);}.cls-20{fill:#f9a883;}.cls-21{fill:#4a0f00;}.cls-22{fill:#262262;}.cls-23{clip-path:url(#clip-path-8);}.cls-24{fill:#d38363;}.cls-25{fill:#3c2415;}.cls-26{fill:#aa1b30;}.cls-27{clip-path:url(#clip-path-9);}.cls-28{clip-path:url(#clip-path-10);}.cls-29{fill:#bcbec0;}.cls-30{clip-path:url(#clip-path-11);}.cls-31{fill:#594a42;}.cls-32{fill:#bdf;}.cls-33{fill:#c3996c;}.cls-35{clip-path:url(#clip-path-12);}.cls-36{clip-path:url(#clip-path-13);}</style><clipPath id="clip-path" transform="translate(0)"><rect class="cls-1" width="140.86" height="195.22"/></clipPath><clipPath id="clip-path-3" transform="translate(0)"><rect class="cls-1" x="41.73" y="180.86" width="75.32" height="14.36"/></clipPath><clipPath id="clip-path-4" transform="translate(0)"><rect class="cls-1" x="96.31" y="183.83" width="6.4" height="5.16"/></clipPath><clipPath id="clip-path-5" transform="translate(0)"><rect class="cls-1" x="56.59" y="183.83" width="6.4" height="5.16"/></clipPath><clipPath id="clip-path-6" transform="translate(0)"><rect class="cls-1" x="67.99" y="131.52" width="22.93" height="43.87"/></clipPath><clipPath id="clip-path-7" transform="translate(0)"><rect class="cls-1" x="62.68" y="23" width="37.32" height="42.9"/></clipPath><clipPath id="clip-path-8" transform="translate(0)"><rect class="cls-1" x="71.17" y="125.07" width="14.37" height="2.35"/></clipPath><clipPath id="clip-path-9" transform="translate(0)"><rect class="cls-1" x="63.19" y="6.63" width="36.83" height="16.04"/></clipPath><clipPath id="clip-path-10" transform="translate(0)"><rect class="cls-1" x="61.61" y="72.05" width="70.71" height="47.54"/></clipPath><clipPath id="clip-path-11" transform="translate(0)"><rect class="cls-1" x="24.36" y="76.23" width="34.35" height="21.8"/></clipPath><clipPath id="clip-path-12" transform="translate(0)"><rect class="cls-1" x="121.26" y="35.48" width="17.28" height="18.36"/></clipPath><clipPath id="clip-path-13" transform="translate(0)"><rect class="cls-1" x="122.46" y="40.58" width="17.06" height="18.12"/></clipPath></defs><title>s-as-1</title><g class="cls-2"><g id="Слой_2" data-name="Слой 2"><g id="Слой_1-2" data-name="Слой 1"><g class="cls-3"><g class="cls-3"><g class="cls-4"><g class="cls-5"><path class="cls-6" d="M117,188c0,4-16.86,7.18-37.66,7.18S41.73,192,41.73,188s16.86-7.18,37.66-7.18S117,184.07,117,188" transform="translate(0)"/></g></g><path class="cls-7" d="M123.6,66.53a18.14,18.14,0,0,0-1-2.36c-1-1.72-1.06-1.82-.71-3.73a46.79,46.79,0,0,1,1.42-6.06c.67-1.34,2.6-.38,2.29.4a11.24,11.24,0,0,0-.71,5.44c1-1.68,1.76-6.71,1.76-6.71s.68-3.93,1.17-5.83c.34-1.34,1.38-.85,1.93-.24.2.23.14.81.14.81l-.86,4.82s-1.23,4.18-.89,4.14c1.24-.07,1.93-4.79,1.93-4.79s.8-3,1.26-5.27c.42-2,2.19-1.45,2,.54a20.27,20.27,0,0,1-.86,4.27s-1.45,5.56-1.1,5.72c.95,0,1.14-1.41,1.71-3.25.49-1.6.66-3.74,1.29-5.32.71-1.8,2-.71,2,.2a19,19,0,0,1-1.17,5.08c-.48,1.63-.77,4.3-.4,4.56,1.78-.68,1.12-3.77,2.39-5.84.52-.86,1.55-.43,1.54.78a12.65,12.65,0,0,1-.85,4c-.71,2.19-.76,4.65-1.45,6.84a8.26,8.26,0,0,1-2.54,3.71c-1,.79-2.3,4.46-3,5.37-1.19,1.51-6.6-.43-7-1.67-.19-.55.69-3.31-.24-5.64" transform="translate(0)"/><path class="cls-8" d="M132.62,62.65a10.41,10.41,0,0,0-1.57-.95,11.24,11.24,0,0,0-3.52-1.06l-1-.14.68.8a10.58,10.58,0,0,1,.84,1.19,10.7,10.7,0,0,1,.67,1.31,7.61,7.61,0,0,1,.41,1.41,5.7,5.7,0,0,1,0,1.51,4.76,4.76,0,0,0,.12-3.12,7.54,7.54,0,0,0-.59-1.48c-.09-.18-.19-.35-.3-.52.26,0,.51.1.76.18a14.85,14.85,0,0,1,1.66.53,17,17,0,0,1,1.61.7,14.42,14.42,0,0,1,1.56.87,8.24,8.24,0,0,0-1.34-1.23" transform="translate(0)"/><path class="cls-9" d="M80.06,175.38l.31,12,3,.91L85,185.81,86.34,189s8.53,3.23,15.57,2.38c2.57-.85-.76-5.11-3-6.57s-8.28-4.44-8.28-4.44-1.47-3.89-1.41-5-9.2,0-9.2,0" transform="translate(0)"/><path class="cls-9" d="M78.45,175.38l-.31,12-3,.91-1.64-2.46L72.16,189s-8.53,3.23-15.57,2.38c-2.57-.85.76-5.11,3-6.57s8.28-4.44,8.28-4.44,1.47-3.89,1.41-5,9.2,0,9.2,0" transform="translate(0)"/><path class="cls-10" d="M79.26,118.13c-4.39-.13-16.83-1.5-16.83-1.5L68,175.38H79.26s-1.43-46.08,0-46.08,0,46.08,0,46.08h11.6l5.23-58.76s-12.44,1.37-16.83,1.5" transform="translate(0)"/><g class="cls-11"><g class="cls-12"><path class="cls-13" d="M97.79,184.15a17.21,17.21,0,0,1,4,2.39,3.27,3.27,0,0,1,.93,1.3.93.93,0,0,1-1,1.14c-.72-.14-2.92-3-4.59-4.21s-.2-1,.72-.62" transform="translate(0)"/></g></g><g class="cls-11"><g class="cls-14"><path class="cls-13" d="M61.51,184.15a17.23,17.23,0,0,0-4,2.39,3.26,3.26,0,0,0-.93,1.3.93.93,0,0,0,1,1.14c.72-.14,2.92-3,4.59-4.21s.2-1-.72-.62" transform="translate(0)"/></g></g><g class="cls-15"><g class="cls-16"><path class="cls-10" d="M78.83,131.52c-1,5-3.22,16.83-3.22,17.33a25.91,25.91,0,0,0,1.16,3.68L76,155.89s1.69,15.57,0,16.94c-1.24,1-5.73,1.64-8.05,1.92l0,.33,2.63.31h8.61s-1.07-34.68-.43-43.87" transform="translate(0)"/><path class="cls-10" d="M90.91,174.79c-2.17-.24-7.12-.9-8.44-2-1.69-1.37,0-16.94,0-16.94l-.73-3.37a25.88,25.88,0,0,0,1.16-3.68c0-.5-2.26-12.31-3.22-17.33.65,9.19-.43,43.87-.43,43.87h8.61l3-.36Z" transform="translate(0)"/></g></g><path class="cls-7" d="M21.87,87.65a18.05,18.05,0,0,1-2.15-1.36c-1.52-1.3-1.61-1.36-3.55-1.35a46.57,46.57,0,0,0-6.21.33c-1.44.42-.83,2.49,0,2.33a11.24,11.24,0,0,1,5.48.25c-1.84.72-6.91.57-6.91.57s-4,0-5.94.14c-1.38.11-1.07,1.21-.57,1.85.19.24.78.28.78.28H7.67s4.33-.49,4.23-.15c-.29,1.21-5.05,1.06-5.05,1.06s-3.11.26-5.41.32c-2.06.06-1.81,1.9.19,2A20.19,20.19,0,0,0,6,93.85s5.73-.46,5.82-.08c-.21.92-1.59.87-3.5,1.11-1.66.2-3.8,0-5.47.34-1.9.39-1,1.85-.15,2A19,19,0,0,0,7.88,97c1.69-.19,4.37,0,4.56.41-1,1.63-3.91.45-6.17,1.33-.94.36-.69,1.46.5,1.65a12.65,12.65,0,0,0,4.12-.13c2.28-.32,4.71.06,7-.23A8.27,8.27,0,0,0,22,98.13c1-.88,4.79-1.48,5.82-2,1.69-.91.74-6.58-.41-7.22-.51-.29-3.38.1-5.51-1.23" transform="translate(0)"/><path class="cls-8" d="M16.47,95.86a10.39,10.39,0,0,1-.66-1.71,11.23,11.23,0,0,1-.43-3.65l0-1,.67.81a10.27,10.27,0,0,0,2.2,1.92,7.51,7.51,0,0,0,1.32.65,5.65,5.65,0,0,0,1.48.31A4.76,4.76,0,0,1,18,92.72a7.64,7.64,0,0,1-1.36-.84c-.16-.12-.31-.25-.46-.39,0,.26,0,.52,0,.78A15.08,15.08,0,0,0,16.46,94a16.58,16.58,0,0,0,.41,1.71,14.34,14.34,0,0,0,.58,1.69,8.24,8.24,0,0,1-1-1.54" transform="translate(0)"/><path class="cls-17" d="M123.25,70.12c-.12.37-.29.89-.46,1.34s-.34.94-.53,1.41c-.36.94-.75,1.86-1.17,2.77a37,37,0,0,1-2.75,5.07,13.79,13.79,0,0,1-3.14,3.52,2.87,2.87,0,0,1-1.12.53.35.35,0,0,0-.16,0,.26.26,0,0,0-.13,0,.09.09,0,0,0-.08,0,.3.3,0,0,0-.15,0,8.86,8.86,0,0,1-2.88-2.31,31.29,31.29,0,0,1-3.25-4.48c-1-1.66-2-3.44-2.86-5.26-.44-.91-.87-1.84-1.28-2.77s-.82-1.92-1.12-2.73a9.93,9.93,0,0,0-4.24-2.8,9.32,9.32,0,0,0-4-.7c-3.49.23-11.63-.44-14.63,1.88-3-2.33-11.14-1.65-14.63-1.88a9.22,9.22,0,0,0-3.82.61s-.43.13-1,.37h0c-.28.12-.6.26-.93.43l-.52.24a16,16,0,0,0-6.47,5.46c-3.38,4.93-9.59,13.45-10.32,14.14-3.38,3.22-7.89,2.58-12.19,2.66l-5,.22v9.94c5.93.11,4.5.24,10.42.32A24.89,24.89,0,0,0,47,95.26c3.48-1.94,5.48-5.47,7.74-8.51l3.2-4.32.4,4.4c.59,10,2.79,27.39,4.09,29.79.93,1.72,13,3,16.83,3s15.9-1.24,16.83-3c1.31-2.42,3.53-20.11,4.1-30a36.8,36.8,0,0,0,2.72,3.15,23.32,23.32,0,0,0,3.23,2.78,14.74,14.74,0,0,0,4.57,2.22c.48.11,1,.21,1.45.3s1,.09,1.55.1,1-.06,1.5-.1,1-.18,1.45-.29a13.26,13.26,0,0,0,4.69-2.4A23.53,23.53,0,0,0,126.75,86,46.51,46.51,0,0,0,130,79.45q.67-1.65,1.25-3.32c.19-.56.38-1.12.55-1.68s.34-1.1.52-1.78Z" transform="translate(0)"/><path class="cls-9" d="M130.34,74.64a.76.76,0,1,1-.44-1,.8.8,0,0,1,.44,1" transform="translate(0)"/><path class="cls-9" d="M129.1,78.65a.76.76,0,1,1-.44-1,.8.8,0,0,1,.44,1" transform="translate(0)"/><path class="cls-9" d="M127.56,82.21a.76.76,0,1,1-.44-1,.8.8,0,0,1,.44,1" transform="translate(0)"/><polygon class="cls-13" points="70.67 63.61 79.36 91.34 87.23 63.29 70.67 63.61"/><polygon class="cls-10" points="63.61 69.65 70.12 72.94 67.19 76.23 79.36 91.34 71.48 61.12 63.61 69.65"/><polygon class="cls-10" points="95.11 69.65 88.6 72.94 91.53 76.23 79.36 91.34 87.23 61.12 95.11 69.65"/><polygon class="cls-18" points="86.58 63.73 79.79 65.25 72.05 63.61 74.95 74.26 79.65 66.95 83.96 74 86.58 63.73"/><path class="cls-7" d="M106,43.49a16.37,16.37,0,0,0-1.65,2.06c-.42.79-.56,1.74-1.36,2.27-2.44,1.61-4.2-1-3.81-3.16.49-2.69-.17-7.53,2.86-9,2.39-1.2,4.75,1.37,5,3.6a7,7,0,0,1-1,4.28" transform="translate(0)"/><path class="cls-7" d="M52.36,43.49A16.45,16.45,0,0,1,54,45.55c.42.79.56,1.74,1.36,2.27,2.44,1.61,4.2-1,3.81-3.16-.49-2.69.17-7.53-2.86-9-2.39-1.2-4.75,1.37-5,3.6a7,7,0,0,0,1,4.28" transform="translate(0)"/><path class="cls-7" d="M100,41.11c0,13.7-9.24,24.8-20.65,24.8S58.71,54.8,58.71,41.11,63,16.31,79.36,16.31c15.71,0,20.65,11.1,20.65,24.8" transform="translate(0)"/><g class="cls-15"><g class="cls-19"><path class="cls-20" d="M95.13,23c2.54,4.34,3.54,10,3.54,16.15,0,13.7-9.24,24.8-20.65,24.8-6.1,0-11.57-3.18-15.35-8.22,3.76,6.17,9.83,10.19,16.68,10.19,11.4,0,20.64-11.1,20.64-24.8C100,34,98.65,27.53,95.13,23" transform="translate(0)"/></g></g><path class="cls-21" d="M92.67,10.37C87.15,7,80.24,6.44,74,7.65c-5.71,1.11-13.68,4.3-16.37,9.92-3.85,8-.93,18.68-.93,18.68s.64,5.92,2,6c1-11.42,2.5-25.93,20.62-25.93,16.79,0,19.49,12.92,20.64,24.24,1-.23,1.37-4.91,1.53-5.25,1-4.73,1.66-10.89-.85-16.37-1.58-3.44-5.46-7-8-8.57" transform="translate(0)"/><polygon class="cls-22" points="77.11 70.92 78.12 74.96 76.57 80.65 79.36 91.34 82.14 80.65 80.76 74.9 82.14 70.92 79.65 66.95 77.11 70.92"/><path class="cls-9" d="M80.69,96.78a1.4,1.4,0,1,1-1.4-1.4,1.4,1.4,0,0,1,1.4,1.4" transform="translate(0)"/><path class="cls-9" d="M80.69,103.68a1.4,1.4,0,1,1-1.4-1.4,1.4,1.4,0,0,1,1.4,1.4" transform="translate(0)"/><path class="cls-9" d="M80.69,110.58a1.4,1.4,0,1,1-1.4-1.4,1.4,1.4,0,0,1,1.4,1.4" transform="translate(0)"/><g class="cls-15"><g class="cls-23"><path class="cls-10" d="M71.17,125.39s7.27,4.78,14.37-.32c-1.36.39-6.62,3.38-14.37.32" transform="translate(0)"/></g></g><path class="cls-24" d="M104.27,38a13.09,13.09,0,0,0-2.1,2.11,3.29,3.29,0,0,0-.83,2.55,1.85,1.85,0,0,0,.63,1.08,1.21,1.21,0,0,0,1.15.09c.8-.28,1.47-1.29.87-2.05h0a.82.82,0,0,0-.76-.31,1.73,1.73,0,0,0-.82.47,1.59,1.59,0,0,1,.78-.65.94.94,0,0,1,.55,0,1.18,1.18,0,0,1,.49.27h0a1.51,1.51,0,0,1,.27,1.61,2.18,2.18,0,0,1-1.18,1.17,1.75,1.75,0,0,1-1.72-.12,2.3,2.3,0,0,1-.86-1.46,2.6,2.6,0,0,1,.21-1.63,4.51,4.51,0,0,1,.88-1.31A8.6,8.6,0,0,1,104.27,38" transform="translate(0)"/><path class="cls-24" d="M54,38a13.09,13.09,0,0,1,2.1,2.11A3.29,3.29,0,0,1,57,42.7a1.85,1.85,0,0,1-.63,1.08,1.21,1.21,0,0,1-1.15.09c-.8-.28-1.47-1.29-.87-2.05h0a.82.82,0,0,1,.76-.31,1.72,1.72,0,0,1,.82.47,1.58,1.58,0,0,0-.77-.65.94.94,0,0,0-.55,0,1.18,1.18,0,0,0-.49.27h0a1.51,1.51,0,0,0-.27,1.61A2.18,2.18,0,0,0,55,44.4a1.75,1.75,0,0,0,1.72-.12,2.31,2.31,0,0,0,.86-1.46,2.6,2.6,0,0,0-.21-1.63,4.51,4.51,0,0,0-.88-1.31A8.6,8.6,0,0,0,54,38" transform="translate(0)"/><path class="cls-8" d="M79.36,37.51a12.77,12.77,0,0,1-.48,4.37A10.5,10.5,0,0,1,78,44a6.22,6.22,0,0,1-1.46,1.91l-.41.35a2.16,2.16,0,0,0-.32.3,1.88,1.88,0,0,0-.28.32,1.55,1.55,0,0,0-.21.33,1.17,1.17,0,0,0,0,1.27,2.91,2.91,0,0,0,1.48.94,12.16,12.16,0,0,0,2.07.43,6.23,6.23,0,0,1-2.21.36,3.45,3.45,0,0,1-2.31-.9A2.32,2.32,0,0,1,73.74,48a2.8,2.8,0,0,1,.2-1.43,2.52,2.52,0,0,1,.32-.6,3.32,3.32,0,0,1,.4-.51,3.4,3.4,0,0,1,.45-.44l.24-.2.17-.15a6.05,6.05,0,0,0,1.19-1.43,15.34,15.34,0,0,0,1-1.78c.59-1.25,1.11-2.57,1.68-3.92" transform="translate(0)"/><path class="cls-25" d="M63.92,34.06l-1.73-1.75A10.14,10.14,0,0,1,74.39,31l-1.24,2.13a7.76,7.76,0,0,0-9.23.91" transform="translate(0)"/><path class="cls-25" d="M63.34,40.91a4.17,4.17,0,0,1,1.24-3,4.69,4.69,0,0,1,6.35-.3,3.36,3.36,0,0,1,1.23,3,4.68,4.68,0,0,0-4.4-2.42A5,5,0,0,0,65.4,39a7.25,7.25,0,0,0-2.05,2" transform="translate(0)"/><path class="cls-25" d="M93.06,34.06a7.7,7.7,0,0,0-9.24-.92L82.58,31a10.14,10.14,0,0,1,12.2,1.3l-1.73,1.75.87-.87Z" transform="translate(0)"/><path class="cls-25" d="M93.63,40.91a4.17,4.17,0,0,0-1.24-3,4.69,4.69,0,0,0-6.35-.3,3.36,3.36,0,0,0-1.23,3,4.68,4.68,0,0,1,4.39-2.42,5,5,0,0,1,2.38.75,7.25,7.25,0,0,1,2.05,2" transform="translate(0)"/><path class="cls-26" d="M72.2,53.31s10.58,1.81,15.08-2.2c0,0-.93,7.91-7.54,8.26s-7.54-6.06-7.54-6.06" transform="translate(0)"/><path class="cls-13" d="M72.2,53.31a9.87,9.87,0,0,0,7.54,2.53c4.46-.53,7.18-3.57,7.54-4.73-4.5,4-15.08,2.2-15.08,2.2" transform="translate(0)"/><path class="cls-21" d="M98.75,10A8.79,8.79,0,0,0,100,6.63a34.55,34.55,0,0,1-7.81,2.78,23.27,23.27,0,0,0,2.87-3.76A11.46,11.46,0,0,0,96.8,0c0,.86-4.28,2.67-5,2.85a16.67,16.67,0,0,1-4.22,0,50.86,50.86,0,0,0-7.74.41C74.76,4,69.65,6.09,66.94,10.68c-1,1.66-3.1,8.76-3.75,10.35,0,0,11.1,3.6,20.3.13a35.09,35.09,0,0,0,14.12-9.57A13.23,13.23,0,0,0,98.75,10" transform="translate(0)"/><path class="cls-8" d="M86.58,49.69a2.23,2.23,0,0,1,1.2.39,2.81,2.81,0,0,1,.89.94A2.67,2.67,0,0,1,89,52.26a2.33,2.33,0,0,1-.27,1.23c-.14-.41-.23-.77-.36-1.11a5.19,5.19,0,0,0-.45-1,9,9,0,0,0-1.39-1.74" transform="translate(0)"/><path class="cls-8" d="M79,61.12a7.89,7.89,0,0,0,1.57-.23,9.9,9.9,0,0,0,1.47-.48,13.57,13.57,0,0,0,1.39-.69l1.38-.82c-.15.23-.33.44-.51.65a6.75,6.75,0,0,1-.61.57A6.05,6.05,0,0,1,82.3,61a4.36,4.36,0,0,1-3.27.14" transform="translate(0)"/><g class="cls-15"><g class="cls-27"><path class="cls-21" d="M83.49,21.16a35.1,35.1,0,0,0,14.12-9.57A13.24,13.24,0,0,0,98.75,10,8.81,8.81,0,0,0,100,6.63,32.45,32.45,0,0,1,80,16.72a8.57,8.57,0,0,0,3.17-4.45S72.5,20.58,63.19,21c0,0,11.1,3.6,20.31.13" transform="translate(0)"/></g></g><g class="cls-15"><g class="cls-28"><path class="cls-17" d="M130.12,72c-2.23,6.87-9.05,20.31-15.61,20.59-6.85.29-14.32-12.46-14.32-12.46l-1-1.78s-3,24.3-6.13,30.78c-2.72,5.6-23.1,4.8-31.41,4.6a13,13,0,0,0,.82,2.85c.93,1.72,13,3,16.83,3s15.9-1.24,16.83-3c1.31-2.42,3.53-20.11,4.1-30,.31.4.63.79,1,1.19.55.66,1.13,1.32,1.76,2a23.32,23.32,0,0,0,3.23,2.78,14.73,14.73,0,0,0,4.57,2.22c.48.11,1,.21,1.45.3s1,.09,1.55.1,1-.06,1.5-.1,1-.18,1.45-.29a13.26,13.26,0,0,0,4.69-2.4A23.52,23.52,0,0,0,126.75,86,46.61,46.61,0,0,0,130,79.45q.67-1.65,1.25-3.32.29-.84.55-1.68c.18-.58.34-1.1.52-1.78Z" transform="translate(0)"/></g></g><path class="cls-9" d="M96,116.49c-16.79,5.31-33.13.23-33.26.18l-.35-.14-.24-.26-.13,3a.49.49,0,0,0,.3.48c1.35.58,6.8,2.69,16,2.69A63.86,63.86,0,0,0,96.17,120a.51.51,0,0,0,.37-.46l.12-2.55a.5.5,0,0,0-.65-.5" transform="translate(0)"/><path class="cls-29" d="M80.39,122.78H76.71a2.09,2.09,0,1,1,0-4.18h3.68a2.09,2.09,0,0,1,0,4.18m-3.68-3.36a1.27,1.27,0,0,0,0,2.54h3.68a1.27,1.27,0,0,0,0-2.54Z" transform="translate(0)"/><g class="cls-15"><g class="cls-30"><path class="cls-17" d="M43.34,93.43c-4.87,2.72-15.41,2.29-19,2v2.24c5.92.11,4.5.24,10.42.32A24.91,24.91,0,0,0,47,95.26c3.48-1.94,5.48-5.47,7.74-8.51l3.2-4.32.77-6.2s-9.45,13.89-15.37,17.2" transform="translate(0)"/></g></g><path class="cls-31" d="M138.16,33.06H122.63a2.71,2.71,0,0,0-2.71,2.71V60.87a2.71,2.71,0,0,0,2.71,2.71h15.53a2.71,2.71,0,0,0,2.71-2.71V35.76a2.71,2.71,0,0,0-2.71-2.71" transform="translate(0)"/><rect class="cls-32" x="121.26" y="35.48" width="18.26" height="23.21"/><path class="cls-33" d="M131.72,61.37A1.32,1.32,0,1,1,130.39,60a1.32,1.32,0,0,1,1.32,1.32" transform="translate(0)"/><g class="cls-34"><g class="cls-35"><path class="cls-13" d="M121.26,53.84c5.62-6,12.58-13.34,17.28-18.36h-7.33L121.26,46Z" transform="translate(0)"/></g></g><g class="cls-34"><g class="cls-36"><path class="cls-13" d="M126.13,58.7l13.39-14.21v-3.9c-4.79,5.1-11.29,12-17.06,18.11Z" transform="translate(0)"/></g></g></g></g></g></g></g></svg>