<svg xmlns="http://www.w3.org/2000/svg" xmlns:xlink="http://www.w3.org/1999/xlink" viewBox="0 0 309.65 377.18"><defs><style>.cls-1{fill:none;}.cls-2{clip-path:url(#clip-path);}.cls-3{opacity:0.1;}.cls-4{clip-path:url(#clip-path-3);}.cls-5{fill:#590800;}.cls-6{fill:#811629;}.cls-7{fill:#2a0800;}.cls-8{opacity:0.22;}.cls-9{clip-path:url(#clip-path-5);}.cls-10{fill:#7c081f;}.cls-11{fill:#d8c7c5;}.cls-12{fill:#ffac73;}.cls-13{fill:#e3784e;}.cls-14{fill:#a1e0f2;}.cls-15{fill:#907a74;}.cls-16{clip-path:url(#clip-path-7);}.cls-17{fill:url(#Безымянный_градиент_7);}.cls-18{fill:#ffbe92;}.cls-19{opacity:0.58;}.cls-20{clip-path:url(#clip-path-9);}.cls-21{fill:#6da4f2;}.cls-22{clip-path:url(#clip-path-10);}.cls-23{fill:url(#Безымянный_градиент_7-2);}.cls-24{fill:#02357f;}.cls-25{fill:#2a7baf;}.cls-26{opacity:0.25;}.cls-27{clip-path:url(#clip-path-12);}.cls-28{fill:#2af8ff;}.cls-29{opacity:0.26;}.cls-30{clip-path:url(#clip-path-13);}.cls-31{fill:#fff594;}.cls-32{clip-path:url(#clip-path-14);}.cls-33{fill:#b70400;}.cls-34{fill:#b0cbff;}.cls-35{fill:#023592;}.cls-36{opacity:0.31;}.cls-37{clip-path:url(#clip-path-15);}.cls-38{fill:#2a0081;}.cls-39{fill:#2aa6af;}.cls-40{fill:#2abcc3;}.cls-41{fill:#07002d;}.cls-42{fill:#d25838;}.cls-43{fill:#fff;}.cls-44{clip-path:url(#clip-path-16);}.cls-45{fill:url(#Безымянный_градиент_5);}.cls-46{clip-path:url(#clip-path-18);}.cls-47{fill:url(#Безымянный_градиент_5-2);}.cls-48{opacity:0.5;}.cls-49{clip-path:url(#clip-path-20);}.cls-50{clip-path:url(#clip-path-21);}.cls-51{clip-path:url(#clip-path-22);}.cls-52{clip-path:url(#clip-path-23);}.cls-53{clip-path:url(#clip-path-24);}.cls-54{fill:url(#Безымянный_градиент_5-3);}.cls-55{fill:#bae9ff;}.cls-56{fill:#faca17;}.cls-57{fill:#fa9b00;}.cls-58{clip-path:url(#clip-path-26);}.cls-59{clip-path:url(#clip-path-27);}.cls-60{fill:url(#Безымянный_градиент_7-3);}.cls-61{clip-path:url(#clip-path-29);}.cls-62{fill:url(#Безымянный_градиент_7-4);}</style><clipPath id="clip-path"><rect class="cls-1" y="2.89" width="309.65" height="374.29"/></clipPath><clipPath id="clip-path-3"><rect class="cls-1" x="26.98" y="360.25" width="282.67" height="16.93"/></clipPath><clipPath id="clip-path-5"><rect class="cls-1" x="15.31" y="12.93" width="133.19" height="349.83"/></clipPath><clipPath id="clip-path-7"><path class="cls-1" d="M133.86,149.68c-4.75,1.13-4.46,4.92-3.62,7.83s1.46,4.17,5.58,3.89c3.26-.22,16.25-2.35,16.84-2,1.55.88,6.74,28.12,10.83,27.79s-1.69-35.5-3-37.5c-.55-.87-4.75-1.19-9.71-1.19-6.48,0-14.26.56-16.95,1.19"/></clipPath><linearGradient id="Безымянный_градиент_7" y1="377.19" x2="1" y2="377.19" gradientTransform="translate(167.68 11765.22) rotate(180) scale(30.75)" gradientUnits="userSpaceOnUse"><stop offset="0" stop-color="#0071bf"/><stop offset="1" stop-color="#00397f"/></linearGradient><clipPath id="clip-path-9"><rect class="cls-1" x="194.26" y="112.22" width="43.79" height="11.88"/></clipPath><clipPath id="clip-path-10"><path class="cls-1" d="M205.18,112.76a162.75,162.75,0,0,0-11.38,27c-.78,2.47-1.53,5-2.2,7.7v0a113.41,113.41,0,0,0-2.49,12.62c0,.25-.08.52-.11.78-.51,3.88-1,8.48-1.37,13.65-2.16,27.48-2.89,71.19-2.3,110.26.7,46.42,3.75,62.6,3.75,62.6h7s10.61-48.84,14.79-72.71c2.07,7.49,4.3,15.18,6.62,22.77,5.55,18.15,15.63,48.53,15.63,48.53h8.24s.32-5.21.4-13.48c.11-10.67,0-26.43-.9-42.56-.68-11.9-2.54-29.64-4.08-48.08q-.28-3.38-.54-6.77c-1.83-23.74-2.83-47.58.17-60.66.44-1.91.88-3.82,1.33-5.71q.83-3.49,1.66-6.88c4.73-19.28,9.22-35.78,9.39-36.39L247.27,128s-9.6,23.69-15.23,30.13a6.32,6.32,0,0,1-1.46,1.2,94.67,94.67,0,0,1,1.6-19c.38-2,.85-4.11,1.42-6.22,3.52-12.9,11.15-16,11.15-16s-.13-1.51-.91-1.74-6.33-.78-7-.43c-.52.26-7.17,15.76-11.59,23.88-1.53,2.8-2.8,4.73-3.45,4.85-2.58.47-20.6-.8-22.86-2.4a2.51,2.51,0,0,1-.68-2.45c.79-7.14,13.84-26.12,13.84-26.72,0-.38-2.56-1.16-4.57-1.16-1.07,0-2,.22-2.32.84"/></clipPath><linearGradient id="Безымянный_градиент_7-2" y1="377.18" y2="377.18" gradientTransform="translate(89053.51 111.93) rotate(90) scale(235.53)" xlink:href="#Безымянный_градиент_7"/><clipPath id="clip-path-12"><rect class="cls-1" x="230.04" y="168.29" width="11.81" height="165.11"/></clipPath><clipPath id="clip-path-13"><rect class="cls-1" x="240.7" y="357.8" width="14.68" height="10.12"/></clipPath><clipPath id="clip-path-14"><rect class="cls-1" x="163.05" y="354.48" width="26.02" height="5.77"/></clipPath><clipPath id="clip-path-15"><rect class="cls-1" x="187.61" y="125.59" width="60.99" height="49.08"/></clipPath><clipPath id="clip-path-16"><path class="cls-1" d="M217.67,71.74c-2,.65-2.84,3.42-1.94,6.18S219,82.4,221,81.75s2.85-3.42,1.94-6.18c-.78-2.37-2.61-4-4.36-4a2.76,2.76,0,0,0-.86.14"/></clipPath><linearGradient id="Безымянный_градиент_5" y1="377.14" x2="1" y2="377.14" gradientTransform="translate(223.16 2919.78) rotate(180) scale(7.54)" gradientUnits="userSpaceOnUse"><stop offset="0" stop-color="#a43113"/><stop offset="1" stop-color="#6f160d"/></linearGradient><clipPath id="clip-path-18"><path class="cls-1" d="M198.95,76.8c-1.55.4-2.25,2.89-1.56,5.57s2.5,4.52,4,4.13,2.25-2.89,1.56-5.57c-.62-2.43-2.18-4.18-3.62-4.18a1.73,1.73,0,0,0-.43.05"/></clipPath><linearGradient id="Безымянный_градиент_5-2" y1="377.15" y2="377.15" gradientTransform="matrix(-5.79, 0, 0, -7.16, 203.22, 2782.05)" xlink:href="#Безымянный_градиент_5"/><clipPath id="clip-path-20"><rect class="cls-1" x="204.94" y="90.87" width="5.2" height="2.06"/></clipPath><clipPath id="clip-path-21"><rect class="cls-1" x="204.23" y="99.29" width="5.11" height="1.15"/></clipPath><clipPath id="clip-path-22"><rect class="cls-1" x="206.6" y="104.65" width="5.11" height="1.15"/></clipPath><clipPath id="clip-path-23"><rect class="cls-1" x="210.85" y="89.86" width="2.05" height="1.14"/></clipPath><clipPath id="clip-path-24"><path class="cls-1" d="M225,36.32c1.15,2.67.61,8.92.61,8.92s-29.89-10.18-42,2.62S193,71,193,71s-1-7.94,11.93-14S225,51.55,225,51.55s10.27,8.89,12.91,16.38a67.54,67.54,0,0,1,3.3,13.51l3.53-5.07s3-22.94-3.69-28.8a12.76,12.76,0,0,0-13.94-2,12.86,12.86,0,0,1,4.53-4.85,22.16,22.16,0,0,1,7.72-3.09s-5.07-1.56-8.7,1.23a11.66,11.66,0,0,0-3.77,4.15c.38-1.18,1.23-4.45.13-7.06a8.5,8.5,0,0,0-4.79-4.36,24.6,24.6,0,0,1,2.8,4.79"/></clipPath><linearGradient id="Безымянный_градиент_5-3" y1="377.31" y2="377.31" gradientTransform="translate(244.71 23537) rotate(-180) scale(62.23)" xlink:href="#Безымянный_градиент_5"/><clipPath id="clip-path-26"><rect class="cls-1" x="236.81" y="116.53" width="16.41" height="39.86"/></clipPath><clipPath id="clip-path-27"><path class="cls-1" d="M141.9,148.78s18.6,5.57,20.68,10.27c0,0,5.41-10.09,4-10.57a27,27,0,0,0-4.06-.15c-7,0-20.62.45-20.62.45"/></clipPath><linearGradient id="Безымянный_градиент_7-3" y1="377.13" y2="377.13" gradientTransform="translate(167.74 8459.48) rotate(180) scale(22.02)" xlink:href="#Безымянный_градиент_7"/><clipPath id="clip-path-29"><path class="cls-1" d="M156.49,172.56a10.1,10.1,0,0,1-.61,5.27c-1.12,2.91-3.39,4.6-3.48,5.25s2.1,4.93,2.1,4.93a16.38,16.38,0,0,0,9.72.23c6.43-1.86,7.18-4.32,7.18-4.32s-.32-6-.77-6.14-3.09-.34-4.55-2a6.76,6.76,0,0,1-1.61-3.58s-2,.56-8,.33"/></clipPath><linearGradient id="Безымянный_градиент_7-4" y1="377.19" y2="377.19" gradientTransform="matrix(0, 18.52, 18.52, 0, -6822.81, 172.31)" xlink:href="#Безымянный_градиент_7"/></defs><title>s-as-4</title><g id="Слой_2" data-name="Слой 2"><g id="Слой_1-2" data-name="Слой 1"><g class="cls-2"><g class="cls-2"><g class="cls-3"><g class="cls-4"><path d="M27,368.71c0,4.68,63.28,8.46,141.33,8.46s141.33-3.79,141.33-8.46-63.28-8.46-141.33-8.46S27,364,27,368.71"/></g></g></g><polygon class="cls-5" points="15.31 19.37 44.81 362.76 58.93 362.58 140.3 361.53 147.75 44.76 148.5 12.93 15.31 19.37"/><path class="cls-6" d="M138.74,24.84l-8.16,158.09L44,187.84,27.44,33.37ZM46,183.66l81.1-2.73,8.65-149.4L33.24,34.93Z"/><path class="cls-6" d="M131.9,200.43l-2.41,154-73.32,1.84L47,203.43ZM57.37,350.12l69,2,3.82-148.53-80.57,1.16Z"/><polygon class="cls-7" points="15.31 19.36 8.49 24.84 39.49 362.76 44.81 362.76 15.31 19.36"/><g class="cls-2"><g class="cls-8"><g class="cls-9"><path class="cls-7" d="M15.31,19.37l29.5,343.39,14.12-.18C58.62,339.36,58,220,76,157.42,93.29,97.3,136.41,55.08,147.75,44.76l.75-31.83Z"/></g></g></g><polygon class="cls-10" points="0 2.89 36.87 362.86 45.62 362.83 15.61 15.71 156.93 9.83 136.86 362.54 148.74 362.5 171.96 2.89 0 2.89"/><polygon class="cls-7" points="15.61 15.71 15.93 19.34 148.5 12.93 135.63 362.46 136.86 362.54 156.93 9.83 15.61 15.71"/><g class="cls-2"><path class="cls-7" d="M37,193.67a6.29,6.29,0,1,0,6.29-6.29A6.29,6.29,0,0,0,37,193.67"/><path class="cls-11" d="M39.69,193.67A6.29,6.29,0,1,0,46,187.38a6.29,6.29,0,0,0-6.29,6.29"/><path class="cls-12" d="M142.3,139.6l.32.43,0,0c.49.65,1.47,1.94,2.81,3.67l.07.09c7.85,10.14,27.67,35,33.12,34.43,4.84-.47,11.94-13.64,15.67-21.29,1.54-3.16,2.51-5.37,2.51-5.37l5-23.7,3.33-15.64s-8,1.34-12.8,10.67c-1.7,3.33-3.87,8.28-6.14,13.31-4.08,9-8.48,18.28-10.95,18.52-3.18.32-21.76-12.11-27.93-16.31l-2-1.37Z"/><path class="cls-13" d="M142.83,140l.55.78,0,0v0l2.06,2.89.07.09c7.85,10.14,27.67,35,33.12,34.43,4.84-.47,11.94-13.64,15.67-21.29l2.54-13.44,5-15.63,3.33-15.64s-8,1.34-12.8,10.67c-1.7,3.33-3.87,8.28-6.14,13.31a48,48,0,0,1-.67,7.29c-1,5.86-6.61,16.4-15.49,15.87-4.7-.28-12.09-5.7-18-10.74-5.05-4.33-9-8.36-9.29-8.63"/><path class="cls-14" d="M183.5,136.53c.1,0,.75-.08,4.87,2.78,4.61,3.2,4.86,4.22,4.86,4.22a.13.13,0,0,0,0-.06l7.64-19.94,4.32-11.26h0a8.55,8.55,0,0,0-1.74.06,15.44,15.44,0,0,0-9.21,5.17c-.35.38-.71.79-1.06,1.23-5.59,7-9.55,17.39-9.7,17.81"/><polygon class="cls-15" points="137.76 154.08 117.8 157.65 116.43 158.74 117.93 159.05 136.26 156.56 137.76 154.08"/></g><g class="cls-16"><rect class="cls-17" x="122.22" y="141.75" width="52.27" height="52.5" transform="translate(-61.36 88.93) rotate(-27.9)"/></g><g class="cls-2"><path class="cls-12" d="M131.53,119.45c.89,3,2.31,7,3,9.93s3,7.93,6.15,10.12a20.63,20.63,0,0,0,4.24,2.51c.57.31,4.19,4.7,6.3,7.31l.43.52.45.56.66.81h0a13.32,13.32,0,0,0,3.1-5l-.07-.06c-.49-.37-3.33-2.57-5.55-4.65h0a16.16,16.16,0,0,1-2.45-2.71c-1.49-2.41-1.85-15-2.94-17.14s-4.09-9.53-5.1-10.39a3.66,3.66,0,0,0-1-.64,2,2,0,0,0-.72-.15h0s-1-1.47-1.57-1.56c-.16,0-.31.47-.46,1.19l-.06.42a10.13,10.13,0,0,0,.32,2.64c.21,1.2.84,2.87.82,3,0-.11-.75-1.27-1.6-2.48-1-1.4-2.37-4.39-2.85-4.3-1.29.26,1.6,7.59,2.43,9.69,1,2.6,1.62,4.7,1.62,4.7l.21-.06c-.21-.25-2-4.44-3-6.38-1-2.1-4.09-6.16-4.47-5.78s1.41,5.36,2.18,7.93"/><path class="cls-13" d="M136.17,113.16c.21,1.2.83,2.88.82,3,0-.11-.75-1.27-1.6-2.48v.05a21.3,21.3,0,0,0,2.56,4.12c1.28,1.44,3,6.57,3.06,6.9a18.07,18.07,0,0,0-.75-5.88c-1-3.54-4.35-8.74-4.35-8.74l-.06.42a10.12,10.12,0,0,0,.32,2.64"/><path class="cls-13" d="M137.94,110.47a33.07,33.07,0,0,1,3.78,6.72,17.9,17.9,0,0,1,1.57,5.53,23.75,23.75,0,0,0-2.27-8.16c-1.52-2.76-2.34-3.94-2.34-3.94Z"/><path class="cls-18" d="M133.29,111.13s4.06,4.72,5.21,7.13a23.47,23.47,0,0,1,1.64,5.15s-3-5.66-5.08-7.91a6,6,0,0,1-1.77-4.36"/><path class="cls-12" d="M136.85,133.31a31.83,31.83,0,0,1-3.43-4.12c-1.78-2.52-2.07-3.79-4.1-5.24-1.6-1.14-4,.12-3.67.53a14.33,14.33,0,0,1,3.32,3.91c1.47,2.56,3.42,6.66,5.9,8.34s10.46,5.48,10.46,5.48Z"/><path class="cls-14" d="M190.86,154.23c1.88,2,39.27,7.39,40.92,6s22.13-36.21,16.61-40.77c-2.09-1.73-6.24-2.78-10.34-3.41a92.58,92.58,0,0,0-11.2-1,5.38,5.38,0,0,1-5.11,2.06c-3.57-.35-3-2.88-3-2.88s-12.62-2.35-13.5-2a1.52,1.52,0,0,0-.32.51l0,0c-.56,1.09-1.7,3.77-3.09,7.26l-.06.15c-.4,1-.82,2.08-1.26,3.2-2.86,7.38-6.31,16.87-8.25,23.37-1.21,4.06-1.83,6.95-1.36,7.45"/><g class="cls-19"><g class="cls-20"><path class="cls-21" d="M194.26,117.49l6.14,5.85.07.07.42.12.67.18,1.44.39,31.66-5L238,116a92.59,92.59,0,0,0-11.2-.95,5.38,5.38,0,0,1-5.11,2.06c-3.57-.35-3-2.88-3-2.88s-12.62-2.35-13.5-2h0a1.7,1.7,0,0,0-.31.5l.14-.34s-.55,0-1.57-.11a15.44,15.44,0,0,0-9.21,5.17"/></g></g><path class="cls-13" d="M218.72,115.24a5,5,0,0,0,7.13,1.91h0a3.62,3.62,0,0,0,1-1l-.09-2.24-.18-4.4s0-.09,0-.13a1.06,1.06,0,0,1,0-.13l-.12-2.89-.06-1.46-6.8-1.25-.28,3.77-.22,3-.12,1.56Z"/></g><g class="cls-22"><rect class="cls-23" x="184.72" y="111.93" width="64.09" height="235.53"/></g><g class="cls-2"><polygon class="cls-12" points="195.23 346.74 194.49 354.61 190.04 354.61 190.04 345.34 195.23 346.74"/><path class="cls-5" d="M158.62,362c.79,1.41,36.27.39,36.62,0s-.74-7.42-.74-7.42h-3.21a26.74,26.74,0,0,0-3.71-.14,57.06,57.06,0,0,0-9.95,1.15,119.1,119.1,0,0,0-14.48,3.8c-3,1-4.87,2-4.53,2.61"/><path class="cls-24" d="M185.35,284.35c.7,46.42,3.75,62.6,3.75,62.6h7l14.79-72.71s-6.43-23.31-8.43-36.94c-3-20.32-.26-30.89,4.82-48.21,1.3-4.44,7.6-15,10-18.32A46.34,46.34,0,0,1,230.23,159l.34-.2a97.24,97.24,0,0,1,1.65-19c.38-2,.85-4.11,1.43-6.22,3.52-12.9,11.15-16,11.15-16s-.13-1.51-.91-1.74-6.33-.78-7-.43c-.53.26-7.16,15.76-11.59,23.88-1.53,2.8-2.79,4.73-3.45,4.85-2.58.47-20.6-.81-22.86-2.4a2.51,2.51,0,0,1-.69-2.45c.79-7.14,13.81-25.61,13.81-26.21s-5.93-2.6-6.86-.83a162.9,162.9,0,0,0-11.38,27c-.78,2.47-1.53,5-2.2,7.7v0a113.85,113.85,0,0,0-2.49,12.61c0,.25-.08.52-.11.78-.51,3.88-1,8.48-1.37,13.65-2.16,27.48-2.89,71.19-2.3,110.26"/><polygon class="cls-12" points="240.09 345.55 240.09 356.1 236.41 357.36 234.24 345.55 240.09 345.55"/><path class="cls-5" d="M236,361.61a49.06,49.06,0,0,0,8,9.82c3.87,3.4,12.79,1.67,14.66.85.56-.24-1.14-2.23-3.24-4.36-1.79-1.81-3.88-3.72-5.13-4.74-2.47-2-5.4-4-7.48-5.38-1.59-1-2.67-1.7-2.67-1.7h-3.87s-.7,4.69-.23,5.51"/><path class="cls-25" d="M185.29,335.42h0c.51,3.63,2.19,12.41,2.7,12.49s7.83,1,8.13.5c.18-.28,1.05-3.18,1.83-6a41.52,41.52,0,0,0,1.29-5.32c-.15-.43-13.91-3.73-14.1-3.23a7.64,7.64,0,0,0,.14,1.54"/><polygon class="cls-25" points="185.65 216.59 181.83 218.47 185.27 237.3 185.65 216.59"/><path class="cls-24" d="M236.29,234.67l-.45-6.12s-3.07-1.87-9.87-5.09-12.72-6.86-12.72-6.86,7.56,10.32,12.72,14.07a21.13,21.13,0,0,0,10.33,4"/><path class="cls-25" d="M213.25,216.59v5.63s2.81,4.57,12.07,11.13c3,2.15,5.3,3.74,7,4.93h0c3.5,2.45,4.52,3.13,4.52,3.13l.56-6.11-1.11-.66-1.07-.65-.51-.32c-.56-.35-1.2-.76-1.91-1.22l-.7-.45h0c-2.77-1.81-6.42-4.32-10.42-7.45-7.46-5.81-8.44-8-8.44-8"/><g class="cls-26"><g class="cls-27"><path class="cls-28" d="M234.71,233.69l.51.32-2.91,4.28h0c0,.81-1,36.21-.7,63.41.32,27.51,1.55,31.69,1.55,31.69l8.66-1.32c.11-10.67,0-26.43-.9-42.56-.68-11.9-2.54-29.64-4.08-48.08l.56-6.12-1.11-.66c-1.83-23.74-2.83-47.58.17-60.66.44-1.91.88-3.82,1.33-5.71,0,0-4.14,2.12-5.08,4.62s-2.83,22.39-2.65,37.51c.18,14.87,2,21.39,2.05,21.59h0l.69.45Z"/></g></g><g class="cls-29"><g class="cls-30"><path class="cls-31" d="M240.69,359.2s1.09,4.5,7.84,7.25a20.52,20.52,0,0,0,6.84,1.47c-1.79-1.81-3.88-3.72-5.13-4.74-2.47-2-5.4-4-7.48-5.38-1.95.45-2.07,1.4-2.07,1.4"/></g></g><g class="cls-29"><g class="cls-32"><path class="cls-31" d="M163.05,359.47s2.6,1.46,12.6.38,13.42-5.23,13.42-5.23l-1.5-.14a57,57,0,0,0-10,1.15,119.13,119.13,0,0,0-14.48,3.8Z"/></g></g><polygon class="cls-13" points="190.04 349.49 194.72 352.13 195.06 348.55 190.04 348.15 190.04 349.49"/><polygon class="cls-13" points="240.09 351.45 235.04 349.9 234.51 347.01 240.09 347.22 240.09 351.45"/><path class="cls-33" d="M234.71,233.69s6.61-11.51,6.53-13.1-3.25-1.92-4.25-1.5S232.11,232,232.11,232l2.61,1.67"/><path class="cls-34" d="M226.46,228.14s4.18-3,5.65-7,.7-8.75,0-8.75-.53,6.67-2.41,9.08-5.58,2.92-5.58,2.92a49,49,0,0,1,.65-6c.6-3.67,4.43-6.21,4.3-6.79s-5.71,2.25-7,5.92a41,41,0,0,0-1.64,6.08Z"/><path class="cls-35" d="M212.49,225.63s.38,13.3,2.48,22.55,5,14,5,14-10.69-10.75-12.44-16.5,4.92-20,4.92-20"/><g class="cls-36"><g class="cls-37"><path class="cls-38" d="M187.61,174.59c1.25.06,3.31.11,6,0a111,111,0,0,0,23.25-3.26l.42-.1c17.31-4.36,22.11-9.37,22.11-9.37,4.73-19.28,9-35.7,9.18-36.31L247.28,128s-9.6,23.69-15.23,30.13a6.28,6.28,0,0,1-1.46,1.2,94.71,94.71,0,0,1,1.6-19l-7-.51c-1.53,2.8-2.79,4.73-3.45,4.85-2.58.47-20.6-.81-22.87-2.4a2.51,2.51,0,0,1-.68-2.45H193.8c-.78,2.47-1.53,5-2.2,7.7v0l-2.49,12.61c0,.25-.07.52-.11.78-.51,3.88-1,8.48-1.37,13.65"/></g></g><path class="cls-39" d="M185.29,335.42h0c.41.05,9.81,1.09,11.4,2s1.26,5,1.26,5a41.52,41.52,0,0,0,1.29-5.32c-.15-.43-13.91-3.73-14.1-3.23a7.64,7.64,0,0,0,.14,1.54"/><path class="cls-25" d="M209,143.59s-9.13,51.83-9,80.33a131.34,131.34,0,0,0,10.9,50.82s-11.55-20.15-11.72-50.82,9.14-80.4,9.14-80.4Z"/><polygon class="cls-25" points="224.54 158.63 223.63 161.41 209.48 160.02 209.06 157.39 224.54 158.63"/><polygon class="cls-25" points="201.61 247.64 202.37 250.31 195.6 335.97 195.3 335.9 201.61 247.64"/><path class="cls-40" d="M240.7,332.3s-.37-21.87-2.5-48.25-3-39.38-3-39.38l-1.1,2s1.9,19.73,3.4,38.31,2.8,47.29,2.8,47.29Z"/><path class="cls-41" d="M236.29,242.18a43.41,43.41,0,0,1-12.43-5.92,46.81,46.81,0,0,1-11.37-10.63v1.73a53.14,53.14,0,0,0,11.29,9.69,40.52,40.52,0,0,0,12.51,5.38Z"/><path class="cls-25" d="M228.72,334.53a31.86,31.86,0,0,0,1.3,5.09.07.07,0,0,1,0,0h0c1,3.45,2.38,7.35,2.71,7.29.57-.12,8.36.65,8.51,0s1.68-10,1.84-13.56c0-.77,0-1.27-.11-1.33-.68-.35-14.06,1.87-14.26,2.46"/><path class="cls-39" d="M230,339.62c-.11-.4-.73-2.87,0-3.86s13-2.36,13-2.36c0-.77,0-1.27-.11-1.33-.68-.35-14.06,1.87-14.26,2.46a31.86,31.86,0,0,0,1.3,5.09"/><path class="cls-12" d="M174.49,165.52v5s2.92.93,7.48,2.28l.06,0c.27.08,1.46.44,3.28,1l.73.21.09,0c15.09,4.38,40.23,11,46.42,8.76,5.2-1.9,11.35-18,15.34-32.65,2.92-10.71,4.68-20.67,4.1-23.83-1.37-7.5-7.23-8.21-7.23-8.21-9.59-1.19-14,15.55-17.26,29.25L226.4,152c-1.57,6.63-2.93,11.75-4.66,12.39-5.42,2-47.25,1.1-47.25,1.1"/><path class="cls-13" d="M219.31,123.68c8.42.83,11.27-8.44,11.27-8.44a6.88,6.88,0,0,1-2.85-1.28,1.84,1.84,0,0,1-.41-.53,13.32,13.32,0,0,1-.74-3.94c0-.05,0-.09,0-.13a1.06,1.06,0,0,1,0-.13s-6.74-1.25-7.48,1.16a6.12,6.12,0,0,1-1,1.94l0,0a3.22,3.22,0,0,1-3.59,1.16s-3.63,9.34,4.79,10.17"/><path class="cls-42" d="M218.13,112.33a1.81,1.81,0,0,1,.83-.38,6,6,0,0,1,3.82.86,11.69,11.69,0,0,0,4,1.08c.34,0,.66.06,1,.07a1.85,1.85,0,0,1-.41-.53,13.36,13.36,0,0,1-.74-3.94s0-.09,0-.13a1.16,1.16,0,0,1,0-.13l-.12-2.89-7.14,1.06-.22,3a6.15,6.15,0,0,1-.95,1.94"/><path class="cls-12" d="M197.12,103.94h0l.5.43a18,18,0,0,0,5.33,2.92c10.3,3.75,40.79.87,42.56-19.51S230.44,46.6,220.76,45c-12-2-32.27,13.55-29.68,19.61A72.8,72.8,0,0,1,194,73h0c1.7,6,2.78,12.8.77,16.51a11.57,11.57,0,0,0,2.35,14.47"/><path class="cls-43" d="M217.3,82.58c-2.94-1.39-4-13.59-.83-14.46,5.49-1.49,11.49,5.19,11,10.06s-8.73,5.06-10.14,4.4"/><path class="cls-43" d="M205.63,84.5c-1.24,3.24-5.33,2.85-7.36,1.52s-2.19-10.8,2.24-13.12c3.2-1.68,6.1,9.07,5.12,11.6"/></g><g class="cls-44"><rect class="cls-45" x="213.37" y="70.47" width="11.89" height="13.06" transform="matrix(0.95, -0.31, 0.31, 0.95, -13.07, 72.22)"/></g><g class="cls-2"><path class="cls-5" d="M216.61,77.95c.59,1.81,2.12,2.93,3.41,2.5s1.86-2.23,1.27-4-2.12-2.93-3.41-2.5-1.86,2.23-1.27,4"/></g><g class="cls-46"><rect class="cls-47" x="195.54" y="76.03" width="9.29" height="11.56" transform="translate(-14.04 52.27) rotate(-14.38)"/></g><g class="cls-2"><path class="cls-5" d="M198.4,82.28c.45,1.75,1.63,3,2.65,2.7s1.47-1.89,1-3.64-1.63-3-2.65-2.7-1.47,1.89-1,3.64"/><path class="cls-43" d="M219.38,77.83c.14.36,1.75.08,3.59-.64s3.22-1.59,3.08-2-1.75-.08-3.59.64-3.22,1.59-3.08,1.95"/><path class="cls-43" d="M200.06,82.59c.12.31,1.45.09,3-.5s2.65-1.32,2.53-1.64-1.45-.09-3,.5-2.65,1.32-2.53,1.64"/><path class="cls-13" d="M227.44,78.18A14.09,14.09,0,0,0,223.34,68c-5.44-5.23-8.58,2-8.58,2s2.42-2.63,6.55-.89c5.63,2.36,6.13,9.11,6.13,9.11"/><path class="cls-13" d="M203.27,74.19s-1.64-.7-4.17.75c-1.8,1-2.05,3.78-2.05,3.78s.11-3.37,1.58-5.08c2.56-3,4.64.55,4.64.55"/><path class="cls-13" d="M207.05,95.13c9-1.63,9.19-5.93,9.19-5.93s.44-2.41-2.33-5.32a19.28,19.28,0,0,0-1.83-1.71h0a20.11,20.11,0,0,0-6.59-3.77s2,5.93-1.64,9.27c-2.05,1.88-3.3,3.83-3.25,5.3v0c.06,1.82,2.06,2.94,6.46,2.15"/><path class="cls-5" d="M224.89,90.41A49.39,49.39,0,0,1,210,97.22c-8,1.93-11.92.21-11.92.21l.1,1a31.22,31.22,0,0,0,12-.31c5.7-1.51,14.94-7.11,14.94-7.11Z"/><path class="cls-5" d="M221.11,89.2a7.13,7.13,0,0,1,4.27,1.21,7.66,7.66,0,0,1,3.21,3s-2.84-1.68-4.23-2.4-3.25-1.79-3.25-1.79"/><path class="cls-5" d="M200,95.5a4.85,4.85,0,0,0-1.23,2.15,8.48,8.48,0,0,0-.17,3.48s-1.14-2.27-.6-3.64a4,4,0,0,1,2-2"/><g class="cls-48"><g class="cls-49"><path class="cls-43" d="M204.95,92.78c.1.29,1.34.14,2.77-.35s2.51-1.12,2.41-1.41-1.34-.14-2.78.35-2.51,1.12-2.41,1.41"/></g></g><g class="cls-48"><g class="cls-50"><path class="cls-43" d="M204.23,100c0,.31,1.17.5,2.58.43s2.54-.38,2.52-.7-1.17-.5-2.58-.43-2.54.38-2.52.69"/></g></g><g class="cls-48"><g class="cls-51"><path class="cls-43" d="M206.6,105.36c0,.31,1.17.5,2.58.43s2.54-.38,2.52-.7-1.17-.5-2.58-.43-2.54.38-2.52.69"/></g></g><g class="cls-48"><g class="cls-52"><path class="cls-43" d="M210.86,90.78c.09.25.61.3,1.17.11s.94-.55.86-.8-.61-.3-1.17-.11-.94.55-.86.8"/></g></g><path class="cls-42" d="M207.05,95.13c9-1.63,9.19-5.93,9.19-5.93s.44-2.41-2.33-5.32a19.28,19.28,0,0,0-1.83-1.71c.18.31,4.59,8.43-2.13,10.84s-9.36-.05-9.36-.05v0c.06,1.82,2.06,2.94,6.46,2.15"/><path class="cls-5" d="M216.27,88.77S215.6,92,209.64,94s-8.37.46-8.37.46,2.14,2.61,8.69.27c6.88-2.45,6.3-6,6.3-6"/><path class="cls-13" d="M197.15,104l.5.43a18,18,0,0,0,5.32,2.92c10.3,3.75,40.79.87,42.56-19.51S230.44,46.6,220.76,45c-12-2-32.27,13.55-29.68,19.61A72.63,72.63,0,0,1,194,73a26.9,26.9,0,0,1,22.82-13.47c16.35-.53,26,26.1,21.44,35.34s-21.46,11.89-28.45,11.88A32.9,32.9,0,0,1,197.15,104"/><path class="cls-13" d="M216,98.69s-3.07,4.06-5.75,5-5.76-2.85-5.76-2.85a8.81,8.81,0,0,0,5,.35A34.73,34.73,0,0,0,216,98.69"/><path class="cls-5" d="M216,98.69a44.12,44.12,0,0,1-6.1,2.08,10.47,10.47,0,0,1-5.4.07,8.73,8.73,0,0,0,5.57,1.08c2.9-.56,5.94-3.23,5.94-3.23"/><path class="cls-5" d="M211.75,61.28a44,44,0,0,1,6.87.39,25.3,25.3,0,0,1,9.8,3.45s1.14-3.8.27-4.93-7-3.44-10.77-3.81c-4.1-.4-5.51,0-5.51,0l-.48,2.77-2.38-2Z"/></g><g class="cls-53"><rect class="cls-54" x="164.18" y="16.59" width="90.73" height="79.78" transform="matrix(0.88, -0.47, 0.47, 0.88, -2.07, 104.61)"/></g><g class="cls-2"><path class="cls-13" d="M248.32,90.65c3.3-1.2,5-6,5.29-10.3a14.33,14.33,0,0,0-.57-5.19c-.68-2-1.92-3.08-3.71-2.41-6,2.23-8.14,8.68-8.14,8.68l.19,5.87s1.45,5.34,6.95,3.36"/><path class="cls-42" d="M243,85.79s1.56-.82,5-3.11a16.11,16.11,0,0,1,5.64-2.33,14.33,14.33,0,0,0-.57-5.19s-2-.35-5.44,2.88A17.82,17.82,0,0,0,243,85.79"/><path class="cls-5" d="M198.43,67.73A13.29,13.29,0,0,0,195.78,71a19.41,19.41,0,0,0-1.66,3.3,17.58,17.58,0,0,1-1.6-2.93c-.39-1.12.27-4.09,2.17-5.83C196,64.32,196.43,64,196.43,64l.7,1.47.68-2Z"/><path class="cls-13" d="M214,179.6c-8.5-.42-21.32-3.74-27.86-5.57,15.09,4.38,40.23,11,46.42,8.76,5.2-1.9,11.35-18,15.34-32.65l-14.4-5-6,2.17L226.4,152s9.41,4.09,11,11.43S225.82,180.18,214,179.6"/><path class="cls-55" d="M225.66,147.18s10.06.68,16.19,3.46a29.4,29.4,0,0,1,3,1.54,17.53,17.53,0,0,1,4.73,3.9,4.69,4.69,0,0,1,.34.47s0-.05,0-.16c.63-2.63,8.82-37.8-3.17-39.73-3.89-.63-7.19,1.13-9.93,4.07-7.82,8.4-11.15,26.45-11.15,26.45"/><path class="cls-56" d="M255.25,54.47s-2-30.38-36.54-32.88c-33.64-2.44-40.05,26.15-40.05,26.15s15.13-9.6,41.87-5.52,34.72,12.25,34.72,12.25"/><path class="cls-57" d="M245.22,60.67s12.64-.64,12.14-6.19S242.11,40.55,211,39.55,171.49,47,171.36,50.11s8.51,5.2,8.51,5.2,5.62-11.91,34.49-10.46,30.85,15.82,30.85,15.82"/><path class="cls-57" d="M244.93,37.21c.49-2.08-22.59-12-28.08-7.94s27.37,11,28.08,7.94"/><g class="cls-19"><g class="cls-58"><path class="cls-21" d="M236.81,120.73h0s5,.44,8,10.07,0,21.37,0,21.37l4.73,3.9.38.31c.63-2.63,8.82-37.8-3.17-39.73-3.89-.63-7.19,1.13-9.93,4.07"/></g></g></g><g class="cls-59"><rect class="cls-60" x="140.9" y="142.85" width="28.08" height="21.68" transform="translate(-53.9 90.35) rotate(-27.9)"/></g><g class="cls-2"><path class="cls-11" d="M128.39,152.42l-6.34,2.51a6.57,6.57,0,0,0-.08,2.85,3.61,3.61,0,0,0,1.77,2.38l5.67-.16s-2.12-4.74-1-7.58"/><path class="cls-41" d="M132.55,150.11l-3.58.76a11.21,11.21,0,0,0-1,5.85,7.06,7.06,0,0,0,3.18,4.9l3.28-.19s-3.45-4-1.9-11.33"/><polygon class="cls-41" points="153.38 147.76 152.78 151.01 151.09 151.01 149.34 147.76 153.38 147.76"/><polygon class="cls-41" points="146.22 147.91 145.49 150.86 143.68 150.86 142.3 148.33 146.22 147.91"/></g><g class="cls-61"><rect class="cls-62" x="149.64" y="168.46" width="24.44" height="25.09" transform="translate(-73.84 239.37) rotate(-62.1)"/></g><g class="cls-2"><path class="cls-41" d="M153.38,185.71s5.56,1.09,10.16-.18a20,20,0,0,0,7.71-3.91l.16,2.32s-.69,3.41-7,4.95c-6.55,1.6-9.95-.85-9.95-.85Z"/><path class="cls-12" d="M185.5,165.52s-8.51.59-11,0-4.37-3.12-6.5-4.11a18.06,18.06,0,0,0-5.22-1.21l.4,2.57a27.92,27.92,0,0,1-6.27,0,7.45,7.45,0,0,1-3.59-2.05,1.76,1.76,0,0,0-.76,1.37c0,.88,1.19,1.67,1.19,1.67s-1.31.6-1.19,1.69a1.79,1.79,0,0,0,.88,1.44,1.53,1.53,0,0,0-.7,1.56,1.84,1.84,0,0,0,1.32,1.44,6.93,6.93,0,0,0,1.09,2.26c.88,1.25,5.64,1.69,11.1,1.09s6.69-2.29,8.63-2.79,11.26.07,11.26.07a10.88,10.88,0,0,0-.63-5"/><path class="cls-13" d="M152.78,162.77a10,10,0,0,0,4.33,2.57,16.73,16.73,0,0,0,3.41.71,40.54,40.54,0,0,1-6-1.09,3.75,3.75,0,0,1-1.74-2.19"/><path class="cls-13" d="M152.66,165.93a4.85,4.85,0,0,0,2.73,1.44,22.62,22.62,0,0,0,3.06.66,37.34,37.34,0,0,1-4.26-.59,2.66,2.66,0,0,1-1.53-1.5"/><path class="cls-13" d="M153,169.14a9.87,9.87,0,0,0,2.74,1.29c1.58.46,3.06.75,3.06.75s-2.84-.12-3.69-.25-2.11-1.79-2.11-1.79"/></g></g></g></g></svg>