<svg xmlns="http://www.w3.org/2000/svg" xmlns:xlink="http://www.w3.org/1999/xlink" width="59" height="60" viewBox="0 0 59 60"><defs><path id="b8eia" d="M109.36 1592.3a5.26 5.26 0 0 1 1.48 3.89 6.41 6.41 0 0 1-2.82 5.42 10.1 10.1 0 0 1-3.36 1.52c-1.22.3-2.77.45-4.63.45H89.3v-24.13h9.48c2.08 0 4.24.07 5.2.2 1 .14 1.96.43 2.87.86.98.46 1.7 1.09 2.19 1.86.48.8.72 1.69.72 2.69a5.1 5.1 0 0 1-1 3.09 6.38 6.38 0 0 1-2.78 2.08v.12c1.7.32 2.39.97 3.38 1.95zm-13.59-3.3h3.4c.9 0 1.64-.18 2.21-.53.57-.36.85-.99.85-1.9 0-1-.37-1.65-1.12-1.98a7.68 7.68 0 0 0-2.48-.34h-2.86zm7.36 6.72c0-1.12-.45-1.9-1.33-2.3-.5-.24-1.2-.36-2.1-.38h-3.93v5.74h3.87c.9 0 1.6-.12 2.11-.37.92-.47 1.38-1.36 1.38-2.7zm23.86-4.2c0 15.72-12.56 28.51-28 28.51s-28-12.79-28-28.51c0-15.73 12.56-28.51 28-28.51s28 12.78 28 28.5zm-2.16 0c0-14.51-11.59-26.32-25.84-26.32s-25.84 11.8-25.84 26.32c0 14.51 11.6 26.32 25.84 26.32 14.25 0 25.84-11.8 25.84-26.32z"/></defs><g><g transform="translate(-69 -1562)"><use fill="#fff" xlink:href="#b8eia"/></g></g></svg>