<svg xmlns="http://www.w3.org/2000/svg" xmlns:xlink="http://www.w3.org/1999/xlink" width="59" height="60" viewBox="0 0 59 60"><defs><path id="2y3va" d="M999.64 1586.17a7.12 7.12 0 0 1-7.2 7 7.13 7.13 0 0 1-7.1-7.11 7.14 7.14 0 0 1 14.3.1zm.9 9.8a8.63 8.63 0 0 1-3.1 1.98c-1.1.42-2.31.64-3.51.78.18.2.26.29.38.4l4.89 4.87c.55.55.67 1.24.36 1.89a1.93 1.93 0 0 1-1.8 1.11 1.76 1.76 0 0 1-1.15-.58c-1.23-1.22-2.49-2.43-3.69-3.68-.35-.36-.52-.29-.83.03-1.24 1.26-2.5 2.5-3.76 3.74-.56.55-1.24.65-1.9.34a1.9 1.9 0 0 1-1.1-1.76c.01-.48.25-.85.59-1.18l4.83-4.8.36-.38c-2.2-.23-4.17-.76-5.87-2.07-.2-.17-.43-.32-.62-.5-.74-.71-.81-1.52-.23-2.35.5-.72 1.35-.9 2.22-.5.17.08.33.18.49.29a9.68 9.68 0 0 0 10.66.1c.3-.24.64-.44 1.03-.54.76-.19 1.46.09 1.87.74.46.75.46 1.48-.11 2.06zm-4.54-9.9a3.47 3.47 0 0 0-3.5-3.47 3.48 3.48 0 1 0 .02 6.95 3.46 3.46 0 0 0 3.48-3.48zm23.99 6.45c0 15.72-12.56 28.51-28 28.51s-28-12.79-28-28.51c0-15.72 12.56-28.51 28-28.51s28 12.79 28 28.5zm-2.16 0c0-14.51-11.59-26.32-25.84-26.32s-25.84 11.8-25.84 26.32c0 14.51 11.6 26.32 25.84 26.32 14.25 0 25.84-11.8 25.84-26.32z"/></defs><g><g transform="translate(-962 -1563)"><use fill="#fff" xlink:href="#2y3va"/></g></g></svg>