<svg xmlns="http://www.w3.org/2000/svg" xmlns:xlink="http://www.w3.org/1999/xlink" width="61" height="63" viewBox="0 0 61 63"><defs><path id="a92aa" d="M396 1621c-15.98 0-29-13.47-29-30.02 0-16.55 13.02-30.02 29-30.02 16 0 29 13.47 29 30.02 0 16.55-13 30.01-29 30.01zm0-57.73c-14.76 0-26.76 12.43-26.76 27.7 0 15.28 12 27.71 26.77 27.71 14.76 0 26.77-12.43 26.77-27.7 0-15.28-12.01-27.7-26.77-27.7zm4.43 16.2v3.66c0 .27-.2.5-.44.5h-1.88c-1.3 0-1.54.56-1.54 1.67v2.3h3.29c.12 0 .23.06.31.15.08.1.13.21.13.35v3.94c0 .27-.2.5-.44.5h-3.29v9.95c0 .27-.2.5-.44.5h-3.66c-.24 0-.44-.23-.44-.5v-9.96h-2.81c-.24 0-.44-.22-.44-.49v-3.94c0-.28.2-.5.44-.5h2.81v-2.72c0-3.59 2.03-5.9 5.17-5.9h2.8c.23 0 .43.22.43.49z"/></defs><g><g transform="translate(-366 -1559)"><use fill="#fff" xlink:href="#a92aa"/></g></g></svg>