<svg xmlns="http://www.w3.org/2000/svg" xmlns:xlink="http://www.w3.org/1999/xlink" width="60" height="62" viewBox="0 0 60 62"><defs><path id="86nna" d="M690.63 1597.17a6.9 6.9 0 0 0 6.77-7c0-1.07-.01-1.67-.42-2.58h7.76v8.31c0 4.06-3.2 7.38-7.13 7.38h-14.25a7.26 7.26 0 0 1-7.13-7.38v-8.3h8.07c-.4.9-.43 1.5-.43 2.57 0 3.87 3.02 7 6.76 7zm9.54-15.13v-2.54a.8.8 0 0 0-.79-.81h-2.44a.8.8 0 0 0-.8.81v2.54c.01.45.36.81.8.81h2.45a.8.8 0 0 0 .78-.81zm-2.56-8.27c3.93 0 7.13 3.51 7.13 7.83v3.52h-8.77c-1.11-.87-1.53-2.35-5.49-2.35-3.95 0-4.12 1.48-5.23 2.35h-9.02v-3.52c0-4.32 3.2-7.83 7.13-7.83zm-6.98 19.3a2.87 2.87 0 0 1-2.7-2.79 2.87 2.87 0 0 1 2.7-3.02c1.55 0 2.8 1.3 2.8 2.9 0 1.61-1.25 2.92-2.8 2.92zm-.15 24.96c-15.71 0-28.5-13.23-28.5-29.5 0-16.28 12.79-29.52 28.5-29.52 15.72 0 28.5 13.24 28.5 29.51 0 16.28-12.78 29.51-28.5 29.51zm0-56.75c-14.5 0-26.3 12.22-26.3 27.24 0 15.02 11.8 27.25 26.3 27.25 14.51 0 26.31-12.23 26.31-27.25s-11.8-27.24-26.3-27.24z"/></defs><g><g transform="translate(-660 -1558)"><use fill="#fff" xlink:href="#86nna"/></g></g></svg>