<?xml version="1.0" encoding="utf-8"?><svg xmlns="http://www.w3.org/2000/svg" xmlns:xlink="http://www.w3.org/1999/xlink"><symbol viewBox="0 0 50 62" id="advan-1" xmlns="http://www.w3.org/2000/svg"><path d="M24.987 34.803a1.192 1.192 0 0 0 0-2.384 1.192 1.192 0 0 0 0 2.384z"/><path d="M24.308 60.801a1.188 1.188 0 0 0 1.384 0C37.822 52.127 50 48.322 50 30.474V8.378c0-.62-.475-1.136-1.091-1.188l-3.095-.259C38.72 6.34 31.741 4.005 25.631.181a1.19 1.19 0 0 0-1.262 0c-6.11 3.824-13.09 6.158-20.184 6.75l-3.094.259A1.191 1.191 0 0 0 0 8.378v22.096C0 48.824 13.889 53.35 24.308 60.8zM2.381 9.474l2.002-.167C11.61 8.704 18.722 6.385 25 2.59c6.278 3.794 13.39 6.113 20.616 6.716l2.003.167v21c0 16.093-10.711 19.546-22.62 27.899C14.545 51.109 2.38 46.987 2.38 30.473V9.475z"/><path d="M24.306 52.138a1.18 1.18 0 0 0 1.387-.031c10.778-7.468 17.164-9.925 17.164-21.632V14.843c0-.59-.431-1.092-1.014-1.18a52.412 52.412 0 0 1-16.297-5.275 1.21 1.21 0 0 0-1.145.026 52.378 52.378 0 0 1-16.245 5.25 1.191 1.191 0 0 0-1.013 1.179v15.632c0 11.817 6.994 14.717 17.163 21.663zM9.524 15.86a54.724 54.724 0 0 0 14.273-4.49v17.474a1.191 1.191 0 1 0 2.381 0V11.357a54.76 54.76 0 0 0 14.298 4.502v14.616c0 9.689-4.533 11.801-14.298 18.413v-10.51a1.191 1.191 0 1 0-2.38 0v10.544c-9.124-6.08-14.274-8.679-14.274-18.447V15.86z"/></symbol><symbol viewBox="0 0 58 50" id="advan-2" xmlns="http://www.w3.org/2000/svg"><path d="M52.37 29.76l-.015-.003a.878.878 0 0 0-1.056.65C48.318 42.887 35.796 50.583 23.332 47.6A23.212 23.212 0 0 1 7.749 34.93l-1.756.367c5.676 12.575 20.46 18.161 33.02 12.479a24.978 24.978 0 0 0 13.992-16.948.879.879 0 0 0-.634-1.068zm-40.598 1.637a.88.88 0 0 0-.204-.419L8.15 27.165 4.773 23.39a.877.877 0 0 0-1.527.268L1.639 28.53.042 33.396a.88.88 0 0 0 .992 1.132l5.009-1.052 5.029-1.053c.476-.09.79-.55.7-1.026zm-6.061.356l-3.527.745 1.121-3.426 1.126-3.421 2.4 2.68 2.4 2.682-3.52.74zm51.733-15.601a.878.878 0 0 0-1.037-.68l-5.009 1.052-5.004 1.028a.879.879 0 0 0-.496 1.445l3.417 3.813 3.378 3.774a.877.877 0 0 0 1.527-.268l1.592-4.871 1.592-4.871a.876.876 0 0 0 .04-.422zm-3.288 4.776l-1.121 3.421-2.4-2.68-2.4-2.682 3.52-.74 3.522-.74-1.121 3.421zM18.453 2.223A24.978 24.978 0 0 0 4.46 19.171a.879.879 0 1 0 1.706.407C9.154 7.1 21.678-.592 34.142 2.398A23.211 23.211 0 0 1 49.716 15.07l1.755-.367C45.796 2.127 31.012-3.46 18.452 2.223z"/><path d="M37.938 9.518a.878.878 0 0 0-.878-.879H25.708a.878.878 0 0 0-.833.606l-5.282 16.182a.88.88 0 0 0 .818 1.212h3.968l-3.472 13.54a.88.88 0 0 0 1.488.874l14.675-17.09a.88.88 0 0 0-.66-1.49h-5.147L37.799 10a.88.88 0 0 0 .14-.482zM29.036 22.97a.88.88 0 0 0 .778 1.281h4.677l-11 12.806 2.847-11.063a.879.879 0 0 0-.848-1.092h-3.87l4.722-14.499h9.264L29.035 22.97z"/></symbol><symbol viewBox="0 0 50 51" id="advan-3" xmlns="http://www.w3.org/2000/svg"><path d="M40.43 14.527c.54 0 .977-.438.977-.977V2.93A2.933 2.933 0 0 0 38.477 0H2.93A2.933 2.933 0 0 0 0 2.93v44.142a2.933 2.933 0 0 0 2.93 2.93h35.548a2.933 2.933 0 0 0 2.93-2.93v-7.195a.977.977 0 0 0-1.954 0v7.195a.978.978 0 0 1-.976.976H2.93a.978.978 0 0 1-.977-.976V2.93c0-.539.438-.977.977-.977h35.548c.538 0 .976.438.976.977v10.62c0 .54.438.977.977.977z"/><path d="M20.703 5.274c-4.954 0-8.984 4.03-8.984 8.984a8.96 8.96 0 0 0 2.82 6.53 8.95 8.95 0 0 0 6.164 2.454 8.95 8.95 0 0 0 6.164-2.454 8.96 8.96 0 0 0 2.821-6.53c0-4.954-4.03-8.984-8.985-8.984zm0 16.016a6.994 6.994 0 0 1-4.247-1.433 4.851 4.851 0 0 1 4.247-2.474c1.788 0 3.39.952 4.248 2.474a6.994 6.994 0 0 1-4.248 1.433zm-1.562-7.422v-.635a1.564 1.564 0 0 1 3.125 0v.634c0 .862-.701 1.563-1.563 1.563a1.564 1.564 0 0 1-1.562-1.563zm7.22 4.559a6.775 6.775 0 0 0-2.877-2.412c.46-.595.735-1.34.735-2.148v-.634a3.52 3.52 0 0 0-3.516-3.516 3.52 3.52 0 0 0-3.515 3.516v.634c0 .809.274 1.553.734 2.148a6.775 6.775 0 0 0-2.877 2.412 6.993 6.993 0 0 1-1.373-4.169 7.04 7.04 0 0 1 7.031-7.031 7.04 7.04 0 0 1 7.032 7.031c0 1.56-.511 3.001-1.373 4.169zm-.383 24.348h-5.274a.977.977 0 0 0 0 1.953h5.274a.977.977 0 0 0 0-1.953zm-.001-5.469H12.109a.977.977 0 0 0 0 1.953h13.868a.977.977 0 0 0 0-1.953zm0-5.469H12.109a.977.977 0 0 0 0 1.953h13.868a.977.977 0 0 0 0-1.953zM8.629 26.654a.984.984 0 0 0-.691-.286.983.983 0 0 0-.69.286.984.984 0 0 0-.287.69c0 .257.104.51.286.691a.986.986 0 0 0 .69.286.986.986 0 0 0 .692-.286.984.984 0 0 0 .286-.69.984.984 0 0 0-.286-.69zm0 5.469a.986.986 0 0 0-.691-.286.986.986 0 0 0-.69.286.984.984 0 0 0-.287.69c0 .257.104.51.286.69a.985.985 0 0 0 .69.287.986.986 0 0 0 .692-.286.984.984 0 0 0 .286-.69.984.984 0 0 0-.286-.691zm0 5.469a.986.986 0 0 0-.691-.286.986.986 0 0 0-.69.286.984.984 0 0 0-.287.69c0 .257.104.51.286.69a.984.984 0 0 0 .69.287c.258 0 .51-.105.692-.286a.984.984 0 0 0 .286-.69.984.984 0 0 0-.286-.691zm17.348-11.224H12.109a.977.977 0 0 0 0 1.953h13.868a.977.977 0 0 0 0-1.953zM47.95 12.727a4.076 4.076 0 0 0-3.113-.41 4.076 4.076 0 0 0-2.49 1.911l-12.29 21.286a.979.979 0 0 0-.124.38l-.865 7.749a.977.977 0 0 0 1.55.895l6.277-4.624c.109-.08.2-.181.267-.298l12.29-21.286a4.106 4.106 0 0 0-1.502-5.603zM31.256 41.64l.452-4.046 2.827 1.632-3.279 2.414zm4.703-3.847l-3.722-2.149 9.863-17.08 3.722 2.148-9.862 17.082zm11.8-20.44l-.962 1.667-3.721-2.149.962-1.667c.287-.497.75-.853 1.305-1.001a2.134 2.134 0 0 1 1.63.214c.497.287.853.75 1.001 1.305a2.134 2.134 0 0 1-.214 1.63z"/></symbol><symbol viewBox="0 0 10 17" id="arr-left" xmlns="http://www.w3.org/2000/svg"><path d="M1.256 7.967l6.373-6.88a.984.984 0 0 1 1.467 0 1.184 1.184 0 0 1 0 1.585L3.458 8.76l5.638 6.088a1.185 1.185 0 0 1 0 1.584.985.985 0 0 1-1.467 0l-6.373-6.88a1.164 1.164 0 0 1-.304-.792c0-.286.102-.573.304-.792z"/></symbol><symbol viewBox="0 0 9 17" id="arr-right" xmlns="http://www.w3.org/2000/svg"><path d="M8.457 9.551l-6.373 6.88a.984.984 0 0 1-1.468 0 1.185 1.185 0 0 1 0-1.585L6.255 8.76.617 2.672a1.185 1.185 0 0 1 0-1.585.985.985 0 0 1 1.467 0l6.373 6.88c.202.219.303.505.303.792 0 .287-.1.574-.303.792z"/></symbol><symbol viewBox="0 0 344.96 344.96" id="check" xmlns="http://www.w3.org/2000/svg"><g data-name="Слой 2"><path d="M321.85 86.24l-40-23.11-23.1-40H212.5L172.48 0l-40 23.11H86.24l-23.11 40-40 23.1v46.21L0 172.48l23.11 40v46.21l40 23.11 23.11 40h46.21l40 23.1 40-23.11h46.21l23.11-40 40-23.11V212.5l23.11-40-23.11-40V86.24zM156.91 243.07a16.79 16.79 0 0 1-23.34 0l-50.45-50.44a16.19 16.19 0 0 1 0-22.89l13.35-13.35a16.19 16.19 0 0 1 22.89 0l25.87 25.87 80.34-80.35a16.19 16.19 0 0 1 22.89 0l13.35 13.35a16.19 16.19 0 0 1 0 22.89z" data-name="Capa 1"/></g></symbol><symbol viewBox="0 0 17 12" id="right-arrow" xmlns="http://www.w3.org/2000/svg"><path d="M11.274.665a.574.574 0 0 0-.806 0 .547.547 0 0 0 0 .78l4.088 3.999H1.066a.556.556 0 1 0 0 1.112h13.491l-4.088 3.99a.557.557 0 0 0 0 .789c.226.22.589.22.806 0l5.057-4.945a.535.535 0 0 0 0-.78L11.274.665z"/></symbol><symbol viewBox="0 0 28 25" id="telegram" xmlns="http://www.w3.org/2000/svg"><path d="M6.737 14.006l3.483 8.49 4.533-4.421 7.774 6.025L28 .1 0 11.475l6.737 2.531zM20 6.986l-8.57 7.624-1.068 3.923-1.972-4.809L20 6.987z"/></symbol><symbol viewBox="0 0 26 27" id="whatsapp" xmlns="http://www.w3.org/2000/svg"><path d="M13.003.1h-.006C5.829.1 0 5.93 0 13.1a12.9 12.9 0 0 0 2.475 7.62l-1.62 4.83 4.997-1.598a12.888 12.888 0 0 0 7.151 2.148C20.171 26.1 26 20.268 26 13.1S20.171.1 13.003.1zm7.565 18.358c-.314.886-1.559 1.62-2.552 1.835-.679.144-1.566.26-4.553-.979-3.82-1.582-6.28-5.464-6.472-5.716-.184-.252-1.544-2.056-1.544-3.922 0-1.865.947-2.773 1.33-3.163.313-.32.831-.467 1.328-.467.161 0 .306.008.436.015.382.016.574.039.825.642.314.755 1.078 2.62 1.169 2.813.092.191.185.451.055.703-.122.26-.229.376-.42.597-.193.22-.374.39-.566.627-.176.206-.374.427-.153.81.221.373.985 1.62 2.11 2.62 1.45 1.292 2.627 1.705 3.048 1.88.313.13.687.1.916-.144.291-.314.65-.834 1.016-1.346.26-.367.588-.412.933-.283.35.122 2.208 1.04 2.59 1.23.382.192.634.283.726.444.091.161.091.917-.222 1.804z"/></symbol><symbol viewBox="0 0 29 34" id="why-1" xmlns="http://www.w3.org/2000/svg"><path d="M27.819 6.422A54.727 54.727 0 0 1 14.65.837a.692.692 0 0 0-.703 0A53.23 53.23 0 0 1 .78 6.422a.692.692 0 0 0-.51.667v7.072c0 7.281 3.36 12.102 6.178 14.863 3.034 2.973 6.568 4.617 7.851 4.617 1.283 0 4.818-1.644 7.852-4.617 2.818-2.761 6.177-7.581 6.177-14.863V7.089a.692.692 0 0 0-.51-.667zm-.875 7.739c0 6.8-3.133 11.298-5.762 13.874-2.984 2.924-6.174 4.222-6.883 4.222-.709 0-3.899-1.298-6.882-4.222-2.629-2.576-5.762-7.073-5.762-13.874V7.615a54.503 54.503 0 0 0 12.644-5.38 56.23 56.23 0 0 0 12.645 5.38v6.546z"/><path d="M8.166 7.537a.692.692 0 0 0-.898-.39A56.304 56.304 0 0 1 3.497 8.48a.692.692 0 0 0-.485.66v2.673a.692.692 0 0 0 1.384 0V9.646a57.696 57.696 0 0 0 3.38-1.211.692.692 0 0 0 .39-.898zm1.314.132a.692.692 0 0 0 .277-.058l.013-.006a.69.69 0 0 0 .354-.911.694.694 0 0 0-.913-.355l-.011.005a.69.69 0 0 0 .28 1.325zm13.065 15.388a.692.692 0 0 0-.958.2 16.84 16.84 0 0 1-1.989 2.485 17.674 17.674 0 0 1-1.985 1.766.692.692 0 0 0 .84 1.1 19.077 19.077 0 0 0 2.14-1.904 18.213 18.213 0 0 0 2.153-2.69.692.692 0 0 0-.2-.957zm-6.539 5.536l-.04.023a.692.692 0 0 0 .694 1.198l.046-.027a.692.692 0 1 0-.7-1.194zM9.582 15.779a2.235 2.235 0 0 0-1.591-.66A2.253 2.253 0 0 0 6.4 18.962l4.086 4.087c.425.425.99.659 1.591.659s1.166-.234 1.591-.66l8.531-8.53a2.253 2.253 0 0 0 0-3.183 2.235 2.235 0 0 0-1.591-.659c-.601 0-1.166.234-1.591.66l-6.94 6.939-2.495-2.495zm10.413-3.466a.86.86 0 0 1 .613-.254.867.867 0 0 1 .613 1.479L12.69 22.07a.86.86 0 0 1-.613.254.861.861 0 0 1-.613-.254l-4.086-4.086a.867.867 0 0 1 1.225-1.226l2.985 2.985a.692.692 0 0 0 .978 0l7.43-7.429z"/></symbol><symbol viewBox="0 0 33 37" id="why-10" xmlns="http://www.w3.org/2000/svg"><path d="M23.01.833a.696.696 0 0 0-.696.696V4.73a.696.696 0 0 0 1.392 0V1.528a.696.696 0 0 0-.696-.695zM7.004 22.547a.696.696 0 1 0 0 1.393.696.696 0 0 0 0-1.393z"/><path d="M32.755 21.155a2.787 2.787 0 0 0-2.784-2.784h-5.196c.804-2.06 1.13-4.485 1.067-6.644a7.96 7.96 0 0 0-.049-.8 2.788 2.788 0 0 0-2.782-2.717 2.787 2.787 0 0 0-2.784 2.784v.696c0 4.402-5.652 6.875-9.918 7.935a2.09 2.09 0 0 0-1.914-1.254h-6.96a.696.696 0 0 0-.696.696v16.704c0 .384.312.696.696.696h6.96c.85 0 1.581-.51 1.907-1.24l.984.256c2.43.634 3.769.984 7.024.984h7.485a2.787 2.787 0 0 0 2.784-2.784c0-.572-.174-1.105-.471-1.548a2.785 2.785 0 0 0 1.863-2.628c0-.57-.17-1.104-.466-1.55a2.785 2.785 0 0 0 1.386-4.174 2.785 2.785 0 0 0 1.864-2.628zM9.09 34.38a.697.697 0 0 1-.696.696H2.131V19.763h6.264c.384 0 .696.313.696.696v13.92zm20.88-11.832h-3.48a.696.696 0 0 0 0 1.392h2.088a1.392 1.392 0 1 1 0 2.784h-3.48a.696.696 0 0 0 0 1.392h2.088a1.392 1.392 0 1 1 0 2.784h-3.48a.696.696 0 0 0 0 1.392h2.088c.767 0 1.392.625 1.392 1.392 0 .767-.625 1.392-1.392 1.392H18.31c-3.077 0-4.278-.314-6.672-.94-.351-.09-.736-.191-1.155-.298v-12.82c5.037-1.199 11.136-4.127 11.136-9.327v-.696a1.393 1.393 0 0 1 2.784-.002v.002c0 .302.377 4.014-1.136 7.377h-2.344a.696.696 0 0 0 0 1.392h9.048a1.392 1.392 0 1 1 0 2.784z"/><path d="M7.004 25.331a.696.696 0 0 0-.696.696v5.568a.696.696 0 0 0 1.392 0v-5.568a.696.696 0 0 0-.696-.696zM17.443 9.602h-2.784a.696.696 0 0 0 0 1.392h2.784a.696.696 0 0 0 0-1.392zm13.921 0H28.58a.696.696 0 0 0 0 1.392h2.784a.696.696 0 0 0 0-1.392zM29.408 3.9a.696.696 0 0 0-.984 0l-1.968 1.968a.696.696 0 0 0 .984.985l1.968-1.968a.696.696 0 0 0 0-.985zm-9.842 1.968L17.596 3.9a.696.696 0 0 0-.984.985l1.968 1.968a.696.696 0 0 0 .985-.985z"/></symbol><symbol viewBox="0 0 33 33" id="why-2" xmlns="http://www.w3.org/2000/svg"><path d="M5.048 8.318a8.167 8.167 0 0 1 7.298-4.475.63.63 0 1 0 0-1.26 9.459 9.459 0 0 0-8.42 5.162.63.63 0 0 0 1.122.573zm-1.05 1.872a.472.472 0 1 1-.945 0 .472.472 0 0 1 .945 0z"/><path d="M31.293 25.65a.593.593 0 0 0-.068-.05l-3.103-1.98c-1.913-1.22-4.248-3.161-5.894-4.784a11.844 11.844 0 0 0 2.114-6.787C24.342 5.44 18.96.062 12.346.062c-6.6 0-11.97 5.37-11.97 11.97 0 6.61 5.381 11.987 11.996 11.987 2.411 0 4.715-.708 6.698-2.053 1.644 1.66 3.707 4.022 4.951 5.973l1.896 2.971a.687.687 0 0 0 .05.068 3.782 3.782 0 0 0 5.875-.12c1.197-1.528 1.053-3.855-.549-5.208zm-12.531-5.01a10.613 10.613 0 0 1-6.39 2.12c-5.92 0-10.736-4.813-10.736-10.727 0-5.906 4.805-10.71 10.71-10.71 5.92 0 10.736 4.811 10.736 10.726 0 3.546-1.72 6.651-4.32 8.59zm1.32.558a12.2 12.2 0 0 0 1.37-1.358c.62.607 1.328 1.25 2.063 1.878l-1.53 1.53a50.84 50.84 0 0 0-1.903-2.05zm10.768 8.884a2.522 2.522 0 0 1-3.895.113l-1.871-2.934c-.574-.898-1.356-1.946-2.277-3.053l1.681-1.682c1.052.85 2.066 1.59 2.957 2.157l3.065 1.955c.998.87 1.152 2.407.34 3.444z"/><path d="M18.647 16.506h-.63V5.796a.63.63 0 0 0-.63-.63h-3.78a.63.63 0 0 0-.63.63v3.15h-3.15a.63.63 0 0 0-.63.63v3.15h-3.15a.63.63 0 0 0-.63.63v3.15h-.63a.63.63 0 0 0 0 1.26h13.86a.63.63 0 0 0 0-1.26zm-9.45 0h-2.52v-2.52h2.52v2.52zm3.78 0h-2.52v-6.3h2.52v6.3zm3.78 0h-2.52V6.426h2.52v10.08z"/></symbol><symbol viewBox="0 0 33 33" id="why-3" xmlns="http://www.w3.org/2000/svg"><path d="M11.15.071a8.06 8.06 0 0 0-8.06 8.06v5.91a3.765 3.765 0 0 0 3.761 3.761h.537v-1.074h-.537a2.69 2.69 0 0 1-2.687-2.687v-5.91a6.985 6.985 0 1 1 13.97 0v5.91a2.69 2.69 0 0 1-2.686 2.687h-.537v1.074h.537a3.766 3.766 0 0 0 3.761-3.76V8.13A8.06 8.06 0 0 0 11.15.07zM4.831 25.394l.393-.618-.908-.576-.392.619a5.356 5.356 0 0 0 .221 6.062v1.429H5.22v-1.612a.537.537 0 0 0-.118-.336 4.28 4.28 0 0 1-.27-4.968zM29.956.071H22.97a2.69 2.69 0 0 0-2.687 2.687V8.13a2.69 2.69 0 0 0 2.687 2.686h1.074v2.15a.537.537 0 0 0 .918.38l2.529-2.53h2.464a2.69 2.69 0 0 0 2.686-2.686V2.758A2.69 2.69 0 0 0 29.956.07zm1.612 8.06c0 .89-.722 1.612-1.612 1.612h-2.687a.537.537 0 0 0-.38.157l-1.769 1.77v-1.39a.537.537 0 0 0-.537-.537H22.97c-.89 0-1.612-.722-1.612-1.612V2.758c0-.89.721-1.612 1.612-1.612h6.985c.89 0 1.612.721 1.612 1.612V8.13z"/><path d="M26.732 2.758H22.97v1.074h3.76V2.758zm3.224 0h-2.15v1.074h2.15V2.758zm0 2.149H22.97v1.075h6.985V4.907zm-3.224 2.149H22.97V8.13h3.76V7.056zm-8.357 17.763l-.392-.62-.908.577.393.619a4.28 4.28 0 0 1-.271 4.967.537.537 0 0 0-.118.336v1.612h1.075v-1.429a5.356 5.356 0 0 0 .221-6.062z"/><path d="M32.105 18.34H27.27a3.761 3.761 0 0 0-3.753 3.608l-1.62 2.915v-2.225a3.765 3.765 0 0 0-3.761-3.76H16.17l-.015-.012-.01.011H14.91a1.075 1.075 0 0 1-1.075-1.075v-1.264a5.373 5.373 0 0 0 2.687-4.646V7.593a5.393 5.393 0 0 0-.645-2.55.537.537 0 0 0-.698-.23L6.085 9.09a.537.537 0 0 0-.309.487v2.314a5.373 5.373 0 0 0 2.687 4.646v1.264c0 .594-.481 1.075-1.075 1.075H4.165a3.766 3.766 0 0 0-3.762 3.761v9.672h1.075v-9.672a2.69 2.69 0 0 1 2.687-2.686h1.71l4.838 6.76c.1.14.259.223.43.225h.007a.54.54 0 0 0 .43-.215l5.104-6.77h1.45a2.69 2.69 0 0 1 2.687 2.686v4.299a.537.537 0 0 0 1.007.26l2.533-4.559h3.08l-5.238 9.672h1.222l5.241-9.672h.215a3.766 3.766 0 0 0 3.761-3.76.537.537 0 0 0-.537-.538zM6.851 11.892V9.919l8.297-3.904c.198.502.3 1.038.3 1.578v4.299a4.298 4.298 0 1 1-8.597 0zm4.31 13.6l-1.658-2.316h3.404l-1.746 2.317zm2.56-3.391H8.73l-1.538-2.15h.195a2.15 2.15 0 0 0 2.15-2.149v-.785c1.049.33 2.174.33 3.224 0v.785a2.15 2.15 0 0 0 2.149 2.15h.43L13.72 22.1zm15.16-.537h-4.245a2.69 2.69 0 0 1 2.633-2.15h4.245a2.691 2.691 0 0 1-2.633 2.15z"/></symbol><symbol viewBox="0 0 31 34" id="why-4" xmlns="http://www.w3.org/2000/svg"><path d="M24.533 27.75a.529.529 0 0 0 .198-.412V3.225a.53.53 0 0 0-.53-.53H8.858A3.01 3.01 0 0 0 5.985.574c-1.328 0-2.49.885-2.872 2.121H1.414a.53.53 0 0 0-.53.53v30.053c0 .293.237.53.53.53h16.843a.53.53 0 0 0 .417-.198l5.86-5.86zm-5.742 4.243v-4.125h4.125l-4.125 4.125zM5.986 1.634c.754 0 1.409.432 1.731 1.061H4.254a1.956 1.956 0 0 1 1.731-1.06zm-4.04 2.122H7.93v3.712a.885.885 0 0 1-1.768 0V5.347a.53.53 0 1 0-1.06 0v2.121c0 1.072.872 1.945 1.944 1.945a1.947 1.947 0 0 0 1.945-1.945V3.756h14.68v23.052h-5.41a.53.53 0 0 0-.53.53v5.41H1.944V3.755z"/><path d="M19.958 25.004a.53.53 0 1 0 0-1.06H5.656a.53.53 0 1 0 0 1.06h14.302zM5.656 21.822h14.302a.53.53 0 1 0 0-1.06H5.656a.53.53 0 1 0 0 1.06zm0-3.182h14.302a.53.53 0 1 0 0-1.06H5.656a.53.53 0 1 0 0 1.06zm0-3.182h14.302a.53.53 0 1 0 0-1.06H5.656a.53.53 0 1 0 0 1.06zm0-3.181h14.302a.53.53 0 1 0 0-1.061H5.656a.53.53 0 1 0 0 1.06zM27.03 2.695h-.708a.53.53 0 1 0 0 1.06h.177v28.992h-5.662a.53.53 0 1 0 0 1.06h6.192a.53.53 0 0 0 .53-.53V3.226a.53.53 0 0 0-.53-.53zm2.828 0h-.708a.53.53 0 1 0 0 1.06h.177v28.992h-.177a.53.53 0 1 0 0 1.06h.708a.53.53 0 0 0 .53-.53V3.226a.53.53 0 0 0-.53-.53z"/></symbol><symbol viewBox="0 0 34 33" id="why-5" xmlns="http://www.w3.org/2000/svg"><path d="M26.132 23.879c.26-2.149.39-4.312.388-6.476.524-.29.977-.693 1.327-1.178.993-1.4 1.073-3.4.246-5.947a.617.617 0 0 0-.246-.32l-.414-.278a9.301 9.301 0 0 0-2.22-6.304C23.363 1.33 20.53.292 16.775.292c-3.756 0-6.594 1.061-8.438 3.084a9.301 9.301 0 0 0-2.22 6.304l-.414.278a.617.617 0 0 0-.246.32c-1.431 4.41.166 6.31 1.53 7.112-.039 2.175.079 4.35.35 6.508C3.983 25.21.35 27.549.455 31.471c0 .34.277.617.617.617h31.352c.34 0 .617-.276.617-.617.099-3.942-3.571-6.285-6.908-7.593zM7.006 15.855c-1.228-1.234-.994-3.297-.464-5.015l.524-.352a.617.617 0 0 0 .272-.573 8.247 8.247 0 0 1 1.9-5.743c1.597-1.752 4.126-2.658 7.506-2.67 3.38-.013 5.91.918 7.513 2.689a8.247 8.247 0 0 1 1.9 5.742.617.617 0 0 0 .27.574l.531.351c.617 2.054.586 3.615-.141 4.645-.1.14-.215.27-.34.388-.216-4.681-1.314-8.19-3.3-10.454a8.346 8.346 0 0 0-3.262-2.295h-.056a10.19 10.19 0 0 0-3.54-.66 7.475 7.475 0 0 0-5.928 2.541c-2.351 2.66-3.173 6.99-3.385 10.832zm14.383 5.686l.006-.024a6.99 6.99 0 0 0 .999-1.647c.154-.364.278-.739.37-1.123l1.635-.69a5.34 5.34 0 0 0 .894-.161 53.622 53.622 0 0 1-.358 5.551 28.355 28.355 0 0 0-3.528-.931v-.876a.58.58 0 0 0-.018-.099zm-2.665-1.764a.69.69 0 1 1-.69-.69.69.69 0 0 1 .678.715l.012-.025zm-.697-1.9l.006-.024a1.924 1.924 0 1 0 1.906 2.072l1.326-.561c-1.085 2.547-3.738 3.522-4.509 3.756-3.38-1.85-5.131-3.7-5.063-5.502.11-2.874 4.712-4.934 5.236-5.18a7.118 7.118 0 0 0 2.813-2.036c1.585 2.893 2.22 5.385 1.918 7.45l-2.035.858a1.925 1.925 0 0 0-1.598-.832zm-9.813-1.023l.024-.019c.118-3.861.802-8.413 3.084-11.028a6.168 6.168 0 0 1 4.984-2.122c.91.007 1.814.148 2.683.42a4.934 4.934 0 0 0 .222 1.708c.266 1.024.537 2.078 0 3.084v.043a.617.617 0 0 0-.03.062c0 .055-.47 1.326-2.733 2.307-.975.419-5.841 2.707-5.977 6.26-.05 1.283.524 2.535 1.703 3.757a.617.617 0 0 0-.08.283v.87a28.348 28.348 0 0 0-3.59.95 46.954 46.954 0 0 1-.296-6.205.617.617 0 0 0 .006-.37zm16.043-.043a.616.616 0 0 0-.222.049l-1.049.444c.099-2.32-.74-5.045-2.541-8.123a5.551 5.551 0 0 0 0-3.701 10.85 10.85 0 0 1-.197-.858 7.168 7.168 0 0 1 2.023 1.604c1.893 2.165 2.911 5.638 3.028 10.362a3.956 3.956 0 0 1-1.042.223zm-8.13 14.026H1.707c.487-4.633 8.018-6.57 10.374-7.069v1.08c0 1.4 1.703 2.467 4.046 2.646v3.343zm-2.812-5.983v-2.468a20.224 20.224 0 0 0 3.084 1.956.622.622 0 0 0 .29.074h.135a9.35 9.35 0 0 0 3.356-1.678v2.128c0 .586-1.339 1.43-3.43 1.43-2.09 0-3.435-.875-3.435-1.442zm4.046 5.983V27.5c2.344-.16 4.046-1.234 4.046-2.646v-1.08c2.375.494 9.869 2.424 10.375 7.069l-14.421-.006z"/></symbol><symbol viewBox="0 0 36 35" id="why-6" xmlns="http://www.w3.org/2000/svg"><path d="M7.966 33.847l-1.015-1.43a.674.674 0 1 0-1.1.78l1.015 1.43a.673.673 0 1 0 1.1-.78zm7.78.253l-1.105-5.266a9.93 9.93 0 0 0-4.2-6.235l-2.359-1.586a2.373 2.373 0 0 0-3.008.307v-8.125a2.244 2.244 0 0 0-1.768-2.204 2.246 2.246 0 0 0-1.902.443 2.247 2.247 0 0 0-.844 1.76V23.65c0 1.37.419 2.684 1.212 3.802l1.202 1.693a.673.673 0 1 0 1.1-.78L2.87 26.67a5.19 5.19 0 0 1-.963-3.02V13.194c0-.277.124-.536.34-.709a.904.904 0 0 1 .766-.178.903.903 0 0 1 .712.887v8.295c0 1.174.431 2.293 1.215 3.164.033.04.068.08.104.118l1.47 1.561.695.739.007.006 1.04 1.108a.674.674 0 0 0 .984-.923L7.537 25.45l-1.546-1.645-.012-.013a1.138 1.138 0 0 1 .022-1.491 1.02 1.02 0 0 1 1.328-.17l2.358 1.586a8.589 8.589 0 0 1 3.633 5.393l1.105 5.265a.675.675 0 0 0 1.32-.277z"/><path d="M5.555 30.452l-.005-.006a.674.674 0 0 0-1.097.783l.004.006a.674.674 0 1 0 1.098-.783zM34.24 11.434a2.247 2.247 0 0 0-1.902-.443 2.244 2.244 0 0 0-1.768 2.204v8.125a2.373 2.373 0 0 0-3.008-.307L25.203 22.6a9.93 9.93 0 0 0-4.2 6.235L19.898 34.1a.674.674 0 1 0 1.32.277l1.105-5.265a8.59 8.59 0 0 1 3.632-5.393l2.36-1.586a1.02 1.02 0 0 1 1.327.17c.38.428.384 1.056.023 1.49l-.013.014-3.249 3.457a.674.674 0 0 0 .983.923c.01-.01 2.765-2.94 3.213-3.414.036-.038.07-.078.104-.118a4.712 4.712 0 0 0 1.215-3.164v-8.295c0-.43.293-.794.712-.887a.907.907 0 0 1 1.106.887V23.65a5.19 5.19 0 0 1-.963 3.02l-5.095 7.177a.674.674 0 0 0 1.1.781l5.094-7.176a6.532 6.532 0 0 0 1.212-3.802V13.195c0-.688-.308-1.33-.844-1.76z"/><path d="M26.363 13.311l-1.2-.287v-.215a3.016 3.016 0 0 0 1.292-2.473v-1.56a3.021 3.021 0 0 0-3.018-3.017c-.747 0-1.43.273-1.958.724a3.944 3.944 0 0 0-3.648-2.455 3.944 3.944 0 0 0-3.65 2.46 3.004 3.004 0 0 0-1.964-.73 3.021 3.021 0 0 0-3.018 3.019v1.559c0 1.022.511 1.927 1.29 2.473v.215l-1.199.287a3.159 3.159 0 0 0-2.433 3.082v1.26c0 .372.302.674.675.674h3.098a4.21 4.21 0 0 0-.008.247v2.425c0 .372.302.674.675.674h4.053a.674.674 0 1 0 0-1.349h-.697v-1.393a.674.674 0 0 0-1.348 0v1.393H11.97v-1.75c0-1.3.883-2.42 2.148-2.724l1.85-.443 1.239 2.817a.675.675 0 0 0 1.235 0l1.237-2.813 1.844.44a2.792 2.792 0 0 1 2.15 2.725v1.748H22.34v-1.393a.674.674 0 0 0-1.348 0v1.393h-.764a.674.674 0 1 0 0 1.349h4.12a.674.674 0 0 0 .675-.674v-2.423c0-.084-.004-.166-.008-.249h3.107a.674.674 0 0 0 .674-.674v-1.26c0-1.472-1-2.74-2.433-3.082zm-2.926-6.204c.883 0 1.608.69 1.665 1.56h-.937c-.788 0-1.564-.19-2.261-.551a1.672 1.672 0 0 1 1.533-1.009zm-1.67 3.13c.001-.032.003-.065.003-.098v-.6c.756.313 1.57.476 2.395.476h.941v.321c0 .92-.749 1.67-1.67 1.67-.92 0-1.669-.75-1.669-1.67v-.098zm-6.526-2.27a2.593 2.593 0 0 1 2.59-2.59c1.288 0 2.36.945 2.558 2.178l-1.136-.667a.674.674 0 0 0-.858.149 2.905 2.905 0 0 1-2.232 1.042h-.922v-.112zm-3.024-.86c.686 0 1.276.416 1.533 1.009a4.915 4.915 0 0 1-2.261.55h-.938a1.672 1.672 0 0 1 1.666-1.559zm-1.67 2.908h.942c.825 0 1.64-.163 2.397-.477v.798c0 .92-.748 1.67-1.669 1.67-.92 0-1.67-.75-1.67-1.67v-.32zm3.258 4.524a4.135 4.135 0 0 0-2.866 2.44H8.206v-.586c0-.846.575-1.574 1.398-1.77l1.717-.41a.674.674 0 0 0 .518-.656v-.227a3.03 3.03 0 0 0 .754 0v.193l-.001.03a.674.674 0 0 0 .548.663l1.006.241-.341.082zm1.88-1.047a3.169 3.169 0 0 0-.54-.182l-1.204-.289v-.21c.217-.152.414-.331.585-.534.3.464.696.86 1.16 1.163v.052zm2.93.99l-.79 1.796-.79-1.8v-.48a3.947 3.947 0 0 0 1.58.002v.483zm-.784-1.753a2.593 2.593 0 0 1-2.59-2.59v-.712h.922a4.25 4.25 0 0 0 2.865-1.107l1.39.817v1.101a2.593 2.593 0 0 1-2.587 2.491zm2.132.765v-.045c.467-.302.866-.7 1.17-1.166.17.2.364.378.58.528v.21l-1.205.289c-.188.045-.37.107-.545.184zm7.485 3.484h-2.743a4.134 4.134 0 0 0-2.867-2.438l-.34-.08 1.012-.243a.675.675 0 0 0 .551-.664v-.223a3.044 3.044 0 0 0 .754 0v.226c0 .313.214.584.517.656l1.718.41a1.815 1.815 0 0 1 1.398 1.771v.585z"/><path d="M18.299 20.521a.68.68 0 0 0-.954 0 .678.678 0 0 0 0 .954.679.679 0 0 0 .477.198.68.68 0 0 0 .477-.197.68.68 0 0 0 .197-.477.681.681 0 0 0-.197-.478zM17.822.387a.674.674 0 0 0-.674.674v1.01a.674.674 0 1 0 1.348 0V1.06a.674.674 0 0 0-.674-.674zm-2.484 2.2l-.708-.707a.674.674 0 1 0-.953.954l.708.707a.672.672 0 0 0 .953 0 .674.674 0 0 0 0-.954zm6.612-.69a.674.674 0 0 0-.953 0l-.702.703a.674.674 0 1 0 .954.953l.702-.702a.674.674 0 0 0 0-.954z"/></symbol><symbol viewBox="0 0 41 30" id="why-7" xmlns="http://www.w3.org/2000/svg"><path d="M39.831 8.177L32.263.61a.623.623 0 0 0-.88 0l-3.785 3.783a.623.623 0 0 0 0 .882l.378.377-.868.867a1.948 1.948 0 0 1-2.174.382 5.414 5.414 0 0 0-2.222-.48 5.36 5.36 0 0 0-2.577.659 4.195 4.195 0 0 0-2.44.13c-.735.267-1.523.101-2.057-.432L14.08 5.22l.186-.186a.623.623 0 0 0 0-.88L10.482.368a.623.623 0 0 0-.882 0L1.177 8.793a.623.623 0 0 0 0 .881l3.783 3.784a.623.623 0 0 0 .882 0l.226-.225 1.098 1.098c.277.277.46.623.531 1a9.786 9.786 0 0 0 2.711 5.147l.207.207a2.227 2.227 0 0 0-.616 1.543c0 .599.233 1.162.657 1.586a2.236 2.236 0 0 0 1.698.653 2.238 2.238 0 0 0 2.24 2.355l.05-.001a2.236 2.236 0 0 0 2.24 2.291 2.229 2.229 0 0 0 1.688-.766c.22.076.454.117.69.117a2.08 2.08 0 0 0 1.482-.614c.21-.21.369-.457.473-.726l.064.064c.408.408.944.612 1.48.612a2.089 2.089 0 0 0 1.966-1.365c.365.266.798.399 1.231.399a2.09 2.09 0 0 0 2.096-2.095c0-.169-.02-.335-.06-.495.4-.081.767-.277 1.06-.572.396-.395.614-.921.614-1.48 0-.442-.136-.861-.386-1.213l.5-.5a9.782 9.782 0 0 0 2.722-5.211c.06-.332.224-.64.476-.892l1.86-1.86.326.327a.622.622 0 0 0 .882 0L39.83 9.06a.623.623 0 0 0 0-.882zm-34.43 3.96L2.5 9.233l7.54-7.543 2.903 2.903L5.4 12.136zm7.546 10.796a.998.998 0 0 1-1.41-1.41.993.993 0 0 1 .705-.291.998.998 0 0 1 .705 1.7zm2.35 2.35a.99.99 0 0 1-.704.293.998.998 0 0 1 0-1.993.998.998 0 0 1 .705 1.7zm2.291 2.291a.99.99 0 0 1-.704.292.998.998 0 1 1 .705-1.701.998.998 0 0 1 0 1.41zm10.585-4.784a.842.842 0 0 1-.6.249.842.842 0 0 1-.6-.249l-6.046-6.044a.623.623 0 0 0-.88.881l6.511 6.512c.16.16.249.373.249.6a.85.85 0 0 1-1.449.6l-1.099-1.098-.018-.02-.006-.005-5.05-5.05a.623.623 0 0 0-.881.881l5.066 5.067a.84.84 0 0 1 .24.591.85.85 0 0 1-1.448.6l-5.494-5.493a.623.623 0 1 0-.881.88l4.072 4.073.003.004a.84.84 0 0 1 .249.599c0 .226-.089.44-.25.6a.841.841 0 0 1-.76.233 2.241 2.241 0 0 0-2.217-2.575l-.05.002a2.236 2.236 0 0 0-2.241-2.292c-.038 0-.075 0-.112.002a2.238 2.238 0 0 0-2.745-2.294l-.447-.447a8.544 8.544 0 0 1-2.366-4.494 3.148 3.148 0 0 0-.876-1.653l-1.097-1.1L13.2 6.1l1.558 1.558a3.177 3.177 0 0 0 2.248.919c.374 0 .752-.065 1.116-.197.177-.064.36-.11.545-.14l-3.859 3.86a2.483 2.483 0 0 0-.732 1.766c0 .668.26 1.296.732 1.768a2.49 2.49 0 0 0 1.767.73c.64 0 1.28-.243 1.768-.73l1.938-1.938.524.525.023.022.02.02v.001h.001l.018.018 7.307 7.307a.843.843 0 0 1 0 1.2zm3.925-9.296c-.432.432-.716.97-.82 1.553a8.542 8.542 0 0 1-2.378 4.55l-.479.478-3.942-3.942a3.18 3.18 0 0 0 1.473-.226.623.623 0 0 0-.472-1.153c-1.605.656-3.527-1.153-3.742-1.361l-.01-.01-.022-.022-.02-.02-.525-.525.595-.595a.623.623 0 1 0-.881-.881l-1.034 1.034h-.002v.002l-2.378 2.378a1.255 1.255 0 0 1-2.14-.886c0-.335.13-.65.367-.886l4.105-4.104a4.113 4.113 0 0 1 2.92-1.21 4.16 4.16 0 0 1 1.706.368 3.2 3.2 0 0 0 3.57-.635l.868-.868 5.1 5.101-1.859 1.86zm3.509-1.973L28.92 4.834l2.903-2.902 6.686 6.686-2.902 2.903z"/><path d="M36.234 9.718a.623.623 0 1 0 0-1.247.623.623 0 0 0 0 1.247zm-31.157.615a.623.623 0 1 0 0-1.246.623.623 0 0 0 0 1.246z"/></symbol><symbol viewBox="0 0 31 36" id="why-8" xmlns="http://www.w3.org/2000/svg"><path d="M29.576 6.17L18.884.38c-1.014-.548-2.409-.126-2.958.888L9.67 12.89H2.065c-.972 0-1.733.76-1.733 1.732v18.806c0 .972.76 1.733 1.733 1.733h24.3c.971 0 1.732-.76 1.732-1.733v-4.395h.718c.38 0 .676-.296.676-.676v-5.029a.667.667 0 0 0-.676-.676h-.718v-4.945c0-.803-.592-1.52-1.353-1.69l3.72-6.888a2.215 2.215 0 0 0-.888-2.958zm-7.607-2.577l-6.677 12.382H13.39l7.142-13.143 1.437.76zm-4.818-1.69c.212-.381.719-.55 1.1-.339l1.056.592-7.438 13.819H9.545L17.15 1.902zM1.642 14.58c0-.127.17-.338.38-.338h6.889l-.93 1.69H2.022c-.126 0-.253 0-.38.043V14.58zm25.06 18.848c0 .211-.169.38-.38.38h-24.3a.379.379 0 0 1-.38-.38v-15.72c0-.212.17-.38.38-.38H26.28c.21 0 .38.168.38.38v4.944h-2.578c-1.141 0-2.028.93-2.028 2.028v2.325c0 1.14.93 2.028 2.028 2.028h2.62v4.395zm1.352-9.424h.043v3.677h-4.015a.668.668 0 0 1-.676-.676V24.68c0-.38.296-.676.676-.676h3.973zm1.184-15.551l-4.057 7.522h-8.368l6.34-11.706L28.9 7.396c.422.17.55.676.338 1.057z"/><path d="M26.66 7.819l-.338-.17c-.845-.464-1.986-.126-2.451.72l-.423.802c-.211.423-.296.93-.127 1.395a1.7 1.7 0 0 0 .888 1.056l.338.17c.253.126.55.21.845.21.676 0 1.268-.38 1.606-.93l.423-.802c.422-.887.084-1.986-.761-2.451zm-.465 1.817l-.423.803a.477.477 0 0 1-.633.169l-.338-.211c-.085-.043-.17-.17-.212-.254-.042-.127-.042-.253.042-.338l.423-.803c.085-.127.254-.253.423-.253.084 0 .126 0 .21.042l.339.169a.657.657 0 0 1 .169.676z"/></symbol><symbol viewBox="0 0 31 37" id="why-9" xmlns="http://www.w3.org/2000/svg"><path d="M22.121 11.195L15.825 9.01a.534.534 0 0 0-.35 0l-4.012 1.392a.534.534 0 1 0 .35 1.01l3.837-1.332 5.733 1.99c-.143 1.389-.975 6.253-5.733 9.372-2.293-1.501-3.955-3.565-4.942-6.139-.77-2.008-.819-3.592-.82-3.616a.534.534 0 0 0-1.068.023c.002.071.047 1.756.874 3.934a13.83 13.83 0 0 0 5.674 6.885.534.534 0 0 0 .564 0 13.83 13.83 0 0 0 5.674-6.885c.828-2.178.872-3.863.874-3.933a.534.534 0 0 0-.359-.516z"/><path d="M18.618 13.794a.534.534 0 0 0-.755 0l-2.704 2.704-1.583-1.583a.534.534 0 1 0-.756.755l1.961 1.961a.532.532 0 0 0 .756 0l3.081-3.081a.534.534 0 0 0 0-.756z"/><path d="M27.494 22.282c.138-.701.268-1.364.506-1.936.223-.538.59-1.077.978-1.647.72-1.056 1.464-2.149 1.464-3.475s-.744-2.418-1.464-3.475c-.389-.57-.755-1.108-.979-1.647-.237-.572-.367-1.234-.505-1.935-.242-1.238-.494-2.518-1.389-3.413-.895-.896-2.175-1.147-3.413-1.39-.7-.137-1.363-.267-1.936-.505-.538-.223-1.076-.59-1.646-.978-1.057-.72-2.15-1.464-3.476-1.464-1.325 0-2.418.744-3.475 1.464-.57.388-1.108.755-1.646.978-.573.238-1.235.368-1.936.505-1.238.243-2.517.494-3.413 1.39-.895.895-1.146 2.175-1.39 3.412-.137.702-.267 1.364-.504 1.936-.224.539-.59 1.077-.978 1.647-.72 1.057-1.465 2.15-1.465 3.475 0 1.326.745 2.419 1.465 3.475.388.57.755 1.108.978 1.647.237.572.367 1.235.505 1.936.242 1.237.494 2.517 1.389 3.412.275.276.587.49.922.661l-3.483 6.51a.534.534 0 0 0 .456.785l3.562.099 2.058 2.908a.534.534 0 0 0 .907-.056l3.86-7.214c.673.373 1.388.645 2.188.645.8 0 1.516-.272 2.19-.645l3.86 7.214a.534.534 0 0 0 .906.056l2.058-2.908 3.562-.099a.534.534 0 0 0 .456-.785l-3.483-6.51c.335-.172.647-.385.922-.66.895-.896 1.147-2.176 1.39-3.413zM9.052 35.334l-1.713-2.42a.534.534 0 0 0-.422-.226l-2.964-.082 3.136-5.862c.485.142.99.242 1.488.34.31.061.612.12.903.189l-1.971 3.684a.534.534 0 0 0 .942.504l2.07-3.868c.535.223 1.071.588 1.638.974l.377.255-3.484 6.512zm18.264-2.728l-2.964.082a.534.534 0 0 0-.421.226l-1.714 2.42-3.484-6.512c.127-.084.252-.17.377-.255.567-.386 1.103-.751 1.639-.975l2.07 3.869a.534.534 0 1 0 .941-.504l-1.97-3.684c.29-.068.592-.128.902-.189a16.791 16.791 0 0 0 1.488-.34l3.136 5.862zm-4.83-6.57c-.721.141-1.468.288-2.14.566-.639.265-1.248.68-1.838 1.082-.965.658-1.877 1.28-2.873 1.28-.997 0-1.909-.622-2.874-1.28-.59-.401-1.2-.817-1.839-1.082-.671-.278-1.418-.425-2.14-.566-1.13-.222-2.197-.432-2.863-1.097-.665-.665-.874-1.733-1.096-2.863-.142-.722-.288-1.468-.567-2.14-.265-.64-.68-1.249-1.082-1.838-.657-.965-1.279-1.877-1.279-2.874 0-.996.622-1.908 1.28-2.874.4-.59.816-1.199 1.081-1.838.279-.671.425-1.418.567-2.14.222-1.13.431-2.198 1.096-2.863.666-.665 1.733-.875 2.864-1.096.721-.142 1.468-.289 2.139-.567.64-.265 1.25-.68 1.839-1.082.965-.658 1.877-1.279 2.873-1.279.997 0 1.909.621 2.874 1.28.59.4 1.2.816 1.839 1.081.671.278 1.418.425 2.14.567 1.13.221 2.197.431 2.863 1.096.665.665.874 1.733 1.096 2.863.142.722.288 1.469.567 2.14.265.64.68 1.249 1.082 1.838.657.966 1.279 1.878 1.279 2.874 0 .997-.622 1.909-1.28 2.874-.4.59-.816 1.199-1.081 1.839-.279.67-.425 1.417-.567 2.139-.222 1.13-.431 2.198-1.097 2.863-.665.665-1.732.875-2.863 1.097z"/><path d="M22.38 6.78a10.79 10.79 0 0 0-14.39.8 10.79 10.79 0 0 0-.799 14.39.533.533 0 1 0 .834-.668 9.724 9.724 0 0 1 .721-12.967 9.723 9.723 0 0 1 12.967-.72.534.534 0 0 0 .668-.834zm1.698 1.698a.534.534 0 0 0-.834.668 9.723 9.723 0 0 1-.72 12.967 9.723 9.723 0 0 1-12.967.721.534.534 0 0 0-.668.834 10.787 10.787 0 0 0 14.39-.8 10.79 10.79 0 0 0 .8-14.39z"/></symbol></svg>