<svg xmlns="http://www.w3.org/2000/svg" xmlns:xlink="http://www.w3.org/1999/xlink" width="31" height="31" viewBox="0 0 31 31"><defs><path id="a1200" d="M813 3457a14.01 14.01 0 1 1 14 14c-7.71 0-14-6.29-14-14zm1.98 0c0 6.63 5.4 12.02 12.02 12.02 6.63 0 12.02-5.4 12.02-12.02 0-6.63-5.4-12.03-12.02-12.03-6.63 0-12.02 5.4-12.02 12.03zm8.8 5.59l5.65-5.66-5.66-5.67a.99.99 0 0 1 1.4-1.4l6.36 6.37c.2.2.29.43.29.7 0 .26-.1.5-.29.7l-6.36 6.36a1 1 0 0 1-.7.29c-.27 0-.5-.1-.7-.3a.99.99 0 0 1 0-1.4z"/></defs><g transform="translate(-811 -3441)"><use fill="#fff" xlink:href="#a1200"/></g></svg>