<svg xmlns="http://www.w3.org/2000/svg" xmlns:xlink="http://www.w3.org/1999/xlink" width="51" height="47" viewBox="0 0 51 47"><defs><path id="a" d="M1396.45 52.6c.6 0 1.1.5 1.1 1.1 0 .6-.5 1.1-1.1 1.1-.6 0-1.09-.5-1.09-1.1 0-.6.5-1.1 1.1-1.1zm37.1 0c.6 0 1.09.5 1.09 1.1a1.1 1.1 0 1 1-2.18 0c0-.6.48-1.1 1.09-1.1zm-27.28 11v8.8c0 .66-.43 1.1-1.09 1.1-.65 0-1.09-.44-1.09-1.1v-8.8c0-.66.44-1.1 1.1-1.1.65 0 1.08.44 1.08 1.1zm6.55 0v8.8c0 .66-.44 1.1-1.1 1.1-.65 0-1.08-.44-1.08-1.1v-8.8c0-.66.43-1.1 1.09-1.1.65 0 1.09.44 1.09 1.1zm6.54 0v8.8c0 .66-.43 1.1-1.09 1.1-.65 0-1.09-.44-1.09-1.1v-8.8c0-.66.44-1.1 1.1-1.1.65 0 1.08.44 1.08 1.1zm6.55 0v8.8c0 .66-.44 1.1-1.1 1.1-.65 0-1.08-.44-1.08-1.1v-8.8c0-.66.43-1.1 1.09-1.1.65 0 1.09.44 1.09 1.1zM1439 51.5v4.4c0 1.87-1.42 3.3-3.27 3.3h-.11l-1.86 16.83a3.3 3.3 0 0 1-3.27 2.97h-30.98a3.3 3.3 0 0 1-3.27-2.97l-1.86-16.83h-.1a3.23 3.23 0 0 1-3.28-3.3v-4.4c0-1.87 1.42-3.3 3.27-3.3h3.6l3.6-8.91a3.09 3.09 0 0 1 3.06-2.1h1.74v-1.1c0-.65.44-1.1 1.1-1.1h15.27c.65 0 1.09.45 1.09 1.1v1.1h2.72c1.42 0 2.73 1 3.06 2.32l2.62 8.69h3.6a3.23 3.23 0 0 1 3.27 3.3zm-30.55-12.1h13.1v-2.2h-13.1zm28.48 16.5v-4.4c0-.66-.44-1.1-1.1-1.1h-4.36c-.54 0-.98-.33-1.09-.77l-2.83-9.46c-.22-.44-.66-.77-1.1-.77h-2.72v1.1c0 .66-.44 1.1-1.1 1.1h-15.27c-.65 0-1.09-.44-1.09-1.1v-1.1h-1.74c-.55 0-.88.22-1.1.66l-3.16 8.14H1427c.65 0 1.1.44 1.1 1.1 0 .66-.45 1.1-1.1 1.1h-32.73c-.65 0-1.09.44-1.09 1.1v4.4c0 .66.44 1.1 1.1 1.1h1.08c.55 0 .99.44 1.1.99l1.96 17.82c.1.55.54.99 1.09.99h30.98c.55 0 .98-.44 1.1-.99l1.85-16.61h-33.71c-.66 0-1.1-.44-1.1-1.1 0-.66.44-1.1 1.1-1.1h36c.65 0 1.09-.44 1.09-1.1z"/></defs><g transform="translate(-1389 -33)"><use fill="#fff" xlink:href="#a"/></g></svg>