<svg xmlns="http://www.w3.org/2000/svg" xmlns:xlink="http://www.w3.org/1999/xlink" width="63" height="59" viewBox="0 0 63 59"><defs><path id="8ki2a" d="M627.91 771.86a2.7 2.7 0 0 1-2.68-2.71v-5.44a2.7 2.7 0 0 1 2.68-2.7 2.7 2.7 0 0 1 2.68 2.7v5.44a2.7 2.7 0 0 1-2.68 2.7zm-37.55 5.43h48.28V780h-48.28zm10.06-5.43a2.03 2.03 0 0 1-2.02-2.04v-6.77c0-1.14.9-2.05 2.02-2.05h1.34c1.11 0 2 .92 2 2.05v6.77c0 1.13-.9 2.04-2 2.04zm6.03-5.43h16.1v2.72h-16.1zm-21.46 0h10.73v2.72h-8.05v46.13h53.65v-46.13h-8.05v-2.72h10.74v48.85c0 2.71-2.69 2.71-2.69 2.71h-53.38s-2.95 0-2.95-2.71z"/></defs><g><g transform="translate(-583 -760)"><use fill="#e6e6e6" xlink:href="#8ki2a"/></g></g></svg>