<svg xmlns="http://www.w3.org/2000/svg" xmlns:xlink="http://www.w3.org/1999/xlink" width="63" height="63" viewBox="0 0 63 63"><defs><path id="a4" d="M1564 479.46V516h-8v-4h-40v4h-8v-36.54a5.98 5.98 0 0 1 4-10.46 6 6 0 0 1 4 10.46V487h40v-7.54a5.98 5.98 0 0 1 4-10.46 6 6 0 0 1 4 10.46zm-8 9.54h-5v5h5zm-21 0h-5v5h5zm2 5h5v-5h-5zm-9-5h-5v5h5zm-5 7v14h5v-14zm7 14h5v-14h-5zm7 0h5v-14h-5zm7 0h5v-14h-5zm5-16v-5h-5v5zm-33-5v5h5v-5zm-8-14a4 4 0 0 0 1.61 3.19h.01c.17.13.34.23.52.33l.06.03c.17.09.35.16.53.22l.09.03c.77.24 1.6.24 2.36 0l.1-.03c.17-.06.35-.13.52-.22l.06-.03c.18-.1.35-.2.51-.32l.03-.02a3.98 3.98 0 0 0-2.4-7.18 4 4 0 0 0-4 4zm6 5.65c-.31.1-.63.2-.96.25l-.06.01a6 6 0 0 1-1.96 0h-.06a5.96 5.96 0 0 1-.96-.26V514h4zm2 29.35h5v-14h-5zm40 0v-14h-5v14zm6-29.35c-.31.1-.63.2-.96.25l-.06.01a5.99 5.99 0 0 1-1.96 0h-.06a5.98 5.98 0 0 1-.96-.26V514h4zm2-5.65a4 4 0 0 0-8 0c0 1.3.64 2.46 1.61 3.19h.01a4.08 4.08 0 0 0 3.56.61l.1-.03a4.27 4.27 0 0 0 1.1-.57l.02-.02a3.98 3.98 0 0 0 1.6-3.18zm-43.45 1.17a1 1 0 0 1 .55-1.7l2.77-.4 1.17-2.39a10.5 10.5 0 0 1 9.96-9.66V457a1 1 0 0 1 2 0v5.12a10.5 10.5 0 0 1 8.97 9.88h2.03a1 1 0 0 1 1 1v5a1 1 0 0 1-1 1h-6a1 1 0 0 1-1-1v-5a1 1 0 0 1 1-1h1.97a8.5 8.5 0 0 0-6.97-7.86v11.26c.18.1.34.24.47.42l2.46 3.52c.38.54.43 1.19.15 1.73-.3.58-.92.93-1.62.93h-4.92a1.8 1.8 0 0 1-1.62-.92c-.28-.55-.23-1.2.15-1.74l2.46-3.52c.13-.18.3-.31.47-.42v-11.37a8.5 8.5 0 0 0-7.97 7.8l1.1 2.23 2.77.4a1 1 0 0 1 .55 1.71l-2 1.95.47 2.76a1 1 0 0 1-1.45 1.05l-2.47-1.3-2.47 1.3a1 1 0 0 1-1.45-1.05l.47-2.76zM1547 474h-4v3h4zm-11 3.21l-1.95 2.79h3.9zm-12.6-1.06l.92.9a1 1 0 0 1 .29.9l-.22 1.27 1.14-.6a1 1 0 0 1 .93 0l1.15.6-.22-1.28a1 1 0 0 1 .29-.88l.93-.9-1.29-.2a1 1 0 0 1-.75-.54l-.57-1.16-.57 1.16a1 1 0 0 1-.76.55z"/></defs><g transform="translate(-1504 -454)"><use fill="#c7c7c6" xlink:href="#a4"/></g></svg>