<svg xmlns="http://www.w3.org/2000/svg" xmlns:xlink="http://www.w3.org/1999/xlink" width="68" height="61" viewBox="0 0 68 61"><defs><path id="a5" d="M1573 597.07c0 5.6-2.18 10.88-6.15 14.85l-26.84 26.86-.13.11a20.92 20.92 0 0 1-14.79 6.1c-9.42 0-17.09-7.66-17.09-17.1a13.93 13.93 0 0 1 4.1-9.87l26.9-26.93a13.87 13.87 0 0 1 9.88-4.1c6.32 0 11.47 5.16 11.47 11.48 0 2.53-.99 4.91-2.78 6.7l-26.9 26.93-.1.08a9.44 9.44 0 0 1-6.6 2.7 7.88 7.88 0 0 1-7.87-7.88 6.6 6.6 0 0 1 6.59-6.6 1.47 1.47 0 0 1 0 2.95 3.65 3.65 0 0 0-3.65 3.65 4.93 4.93 0 0 0 4.93 4.93c3.6 0 6.53-2.93 6.53-6.53 0-4.7-3.83-8.53-8.53-8.53a11.04 11.04 0 0 0-11.03 11.03c0 7.8 6.35 14.16 14.15 14.16 9.96 0 18.06-8.1 18.06-18.07a1.47 1.47 0 0 1 .43-1.04l26.91-26.92a1.47 1.47 0 0 1 2.51 1.04zm-52.77 16.96c.57-.07 1.15-.1 1.74-.1 6.24 0 11.34 5.01 11.46 11.23l22.06-22.07a6.5 6.5 0 0 0 1.91-4.62c0-4.7-3.82-8.53-8.52-8.53-2.95 0-5.72 1.15-7.8 3.23zm49.39-12.97l-23.54 23.55c-.04 1.57-.26 3.1-.64 4.57l19.33-19.34a17.94 17.94 0 0 0 4.85-8.78z"/><clipPath id="b"><use fill="#fff" xlink:href="#a"/></clipPath></defs><g transform="translate(-1506 -585)"><use fill="#fff" xlink:href="#a5"/><use fill="#fff" fill-opacity="0" stroke="#fff" stroke-miterlimit="50" stroke-width=".2" clip-path="url(&quot;#b&quot;)" xlink:href="#a5"/></g></svg>