<svg xmlns="http://www.w3.org/2000/svg" xmlns:xlink="http://www.w3.org/1999/xlink" width="81" height="54" viewBox="0 0 81 54"><defs><path id="a2" d="M1575.89 405.97l-2.56 10.02a2.5 2.5 0 0 1-2.6 1.88h-2.43V423h-3.1l-5.13-5.13h-45.14l-5.13 5.13h-3.1v-5.13h-2.63a2.49 2.49 0 0 1-2.4-1.88l-2.56-10.02a3.72 3.72 0 0 1 0-1.84l2.56-10.02a2.47 2.47 0 0 1 2-1.82l5.6-3.35v-9.21a6.74 6.74 0 0 1 6.74-6.73h16.04a6.72 6.72 0 0 1 5.45 2.8 6.72 6.72 0 0 1 5.46-2.8H1559a6.74 6.74 0 0 1 6.74 6.73l-.05 9.18 5.64 3.38c.97.18 1.75.85 2 1.82l2.56 10.02c.15.6.15 1.24 0 1.84zm-7.3-12.33l-3.36-2.01-1.5 5.26-.42 1.47 1.57 1.97 1.47 1.83 2.06-8.05c.04-.16.1-.32.17-.47zm-57.94 10.13h53.7l-3.08-3.85h-47.53zm28.14-24.06v17.65h22.13l2.25-7.87v-9.76c0-2.3-1.87-4.17-4.17-4.17h-16.04a4.17 4.17 0 0 0-4.17 4.15zm-26.95.02v9.76l2.25 7.87h22.13v-17.63-.02a4.17 4.17 0 0 0-4.17-4.15h-16.04a4.17 4.17 0 0 0-4.17 4.17zm-5.42 13.9c.07.16.13.32.17.48l2.06 8.06 3.05-3.82-1.92-6.73zm.28 21.7v-10.28c0-.1-.01-.19-.04-.28l-2.55-10.02-2.51 10.02c-.05.18-.05.38 0 .56l2.56 10.02zm4.6 2.54h-2.03v2.03zm54.44-2.56v-8.98h-56.47v8.98zm0 2.56h-2.04l2.04 2.03zm7.66-13.1l-2.55-9.98-2.51 9.98c-.02.09-.04.19-.04.28v10.26h2.5l2.6-9.98c.05-.18.05-.38 0-.56z"/></defs><g transform="translate(-1497 -371)"><use fill="#fff" xlink:href="#a2"/><use fill="#fff" fill-opacity="0" stroke="#fff" stroke-miterlimit="50" stroke-width=".1" xlink:href="#a2"/></g></svg>