<svg xmlns="http://www.w3.org/2000/svg" xmlns:xlink="http://www.w3.org/1999/xlink" width="45" height="58" viewBox="0 0 45 58"><defs><path id="a6" d="M1555.72 733.67c.07 2.7.41 5.77.22 8.7-.19 3.06-.96 5.96-3.2 8.12a11.4 11.4 0 0 1-4.28 2.55c-4.53 1.56-10.44 1.24-15.18 1.48-5.32.26-10.65.34-15.98.48-.8.02-1.25-.54-1.34-1.16a1.39 1.39 0 0 1-.25-.82c-.01-14.8-.52-36.06-.7-50.86 0-.17.02-.32.06-.46-.12-.8.32-1.7 1.35-1.7 12.32.02 24.64.5 36.96.18.97-.02 1.42.79 1.35 1.55.04.13.06.27.06.43-.03 3.52.03 7.05.15 10.57.22 6.98.6 13.96.78 20.94zm-8.18 6.59c1.88-.13 3.7.11 5.47.67-.07-10.47-1.08-27.37-1.05-37.84-11.37.24-22.74-.15-34.11-.2.18 14.24.65 34.95.69 49.2 0-.06 14.93-.43 16.11-.46 1.52-.05 3.11.06 4.62-.14 2.46-.3 5.04-.24 6.49-2.68 1.2-2.01.84-4.62.06-6.73-.38-1.05.45-1.73 1.32-1.73.12-.05.25-.08.4-.09zm5.58 3.77l-.02-.05a11.3 11.3 0 0 0-4.02-.87c.6 2.6.31 5.01-.83 6.97 2.5-1.06 4.45-2.96 4.87-6.05z"/></defs><g transform="translate(-1513 -699)"><use fill="#fff" xlink:href="#a6"/></g></svg>