<svg xmlns="http://www.w3.org/2000/svg" xmlns:xlink="http://www.w3.org/1999/xlink" width="75" height="54" viewBox="0 0 75 54">
	<defs><path id="a1" d="M1571 176.94v20.59c0 .81-.66 1.47-1.48 1.47s-1.48-.66-1.48-1.47v-4.41h-65.08v4.4c0 .82-.66 1.48-1.48 1.48s-1.48-.66-1.48-1.47v-20.59a7.38 7.38 0 0 1 5.92-7.2v-13.39a7.38 7.38 0 0 1 7.4-7.35h44.37c4.07 0 7.4 3.3 7.4 7.35v13.39a7.38 7.38 0 0 1 5.91 7.2zm-62.13-7.35h4.08a4.35 4.35 0 0 1-.15-2.54l1.48-5.89a4.43 4.43 0 0 1 4.3-3.34h9.52a4.43 4.43 0 0 1 4.44 4.41v5.89c0 .51-.1 1-.27 1.47h6.46a4.34 4.34 0 0 1-.27-1.47v-5.89c0-2.43 1.99-4.4 4.44-4.4h9.52a4.42 4.42 0 0 1 4.3 3.33l1.48 5.89c.22.86.14 1.73-.15 2.54h4.07v-13.24c0-2.43-1.99-4.41-4.43-4.41h-44.38a4.43 4.43 0 0 0-4.44 4.41zm46.46-1.83l-1.48-5.88a1.48 1.48 0 0 0-1.43-1.12h-9.52c-.82 0-1.48.66-1.48 1.47v5.89c0 .8.66 1.47 1.48 1.47h11a1.47 1.47 0 0 0 1.43-1.83zm-27.23-7h-9.52c-.68 0-1.27.46-1.44 1.12l-1.48 5.88a1.47 1.47 0 0 0 1.43 1.83h11.01c.82 0 1.48-.66 1.48-1.48v-5.88c0-.81-.66-1.47-1.48-1.47zm39.94 29.42v-2.95h-65.08v2.95zm0-5.89v-7.35c0-2.43-1.99-4.41-4.44-4.41h-56.2a4.43 4.43 0 0 0-4.44 4.41v7.35z"/></defs><g transform="translate(-1498 -147)"><use fill="#fff" xlink:href="#a1"/><use fill="#fff" fill-opacity="0" stroke="#fff" stroke-miterlimit="50" stroke-width=".7" xlink:href="#a1"/></g></svg>