<svg xmlns="http://www.w3.org/2000/svg" xmlns:xlink="http://www.w3.org/1999/xlink" width="64" height="64" viewBox="0 0 64 64"><defs><path id="a3" d="M1567 291.48v15.25c0 .7-.57 1.27-1.27 1.27h-5.08c-.7 0-1.28-.57-1.28-1.27v-3.81h-45.75v3.8c0 .71-.56 1.28-1.27 1.28h-5.08c-.7 0-1.27-.57-1.27-1.27v-15.25c0-1.16.53-2.18 1.34-2.88.02-.08.02-.16.06-.23l11.3-22.61V250.8c0-2.1 1.72-3.81 3.82-3.81h27.96c2.1 0 3.81 1.7 3.81 3.81v14.95l11.3 22.61c.04.07.05.15.07.23.81.7 1.34 1.72 1.34 2.88zm-45.75-26.69h3.79l.5-2.52a6.37 6.37 0 0 1 6.23-5.1h9.46a6.37 6.37 0 0 1 6.23 5.1l.5 2.52h3.79v-13.98c0-.7-.57-1.27-1.27-1.27h-27.96c-.7 0-1.27.57-1.27 1.27zm24.22.52l-.5-2.54a3.82 3.82 0 0 0-3.74-3.06h-9.46a3.82 3.82 0 0 0-3.74 3.06l-.5 2.54a3.8 3.8 0 0 0 3.74 4.56h10.47a3.8 3.8 0 0 0 3.73-4.56zm-34.87 22.36h51.8l-10.16-20.34h-4.3a6.32 6.32 0 0 1-6.2 5.09h-10.48a6.33 6.33 0 0 1-6.2-5.09h-4.3zm.48 17.79v-2.54h-2.54v2.54zm53.38-2.54h-2.54v2.54h2.54zm0-11.44c0-.7-.57-1.27-1.27-1.27h-53.38c-.7 0-1.27.57-1.27 1.27v8.9h55.92z"/></defs><g transform="translate(-1504 -245)"><use fill="#fff" xlink:href="#a3"/></g></svg>