<svg xmlns="http://www.w3.org/2000/svg" xmlns:xlink="http://www.w3.org/1999/xlink" width="88" height="70" viewBox="0 0 88 70"><defs><path id="a9" d="M1093 1698.2c0 3.29-1.34 6.26-3.5 8.41a21.8 21.8 0 0 0-11.34-6.6 30.48 30.48 0 0 0-30.6-22.33 18.56 18.56 0 0 1 15.05-7.68c9.5 0 17.35 7.12 18.44 16.3 6.6 0 11.95 5.33 11.95 11.9zm-3.53 22.84c0 8.81-7.17 15.96-16.02 15.96h-49.43a15.99 15.99 0 0 1-16.02-15.96 16 16 0 0 1 16.02-15.96 24.86 24.86 0 0 1 24.72-21.85 24.86 24.86 0 0 1 24.71 21.85 16 16 0 0 1 16.02 15.96z"/></defs><g transform="translate(-1006 -1668)"><use fill="#ebebeb" xlink:href="#a9"/></g></svg>