<svg xmlns="http://www.w3.org/2000/svg" xmlns:xlink="http://www.w3.org/1999/xlink" width="16" height="16" viewBox="0 0 16 16"><defs><path id="a" d="M875.7 4377.71l-4.99 5a1 1 0 0 1-1.43-1.43l4.28-4.28-4.28-4.28a1 1 0 1 1 1.43-1.42l5 4.99a1 1 0 0 1 0 1.42zm-6-.2l-3.96 4.17a.98.98 0 0 1-1.45 0c-.4-.42-.4-1.1 0-1.52l3.25-3.42-3.25-3.41c-.4-.42-.4-1.1 0-1.52a.98.98 0 0 1 1.45 0l3.96 4.18c.4.42.4 1.1 0 1.51z"/></defs><g transform="translate(-862 -4369)"><use fill="#2fa7df" xlink:href="#a"/></g></svg>