<svg xmlns="http://www.w3.org/2000/svg" xmlns:xlink="http://www.w3.org/1999/xlink" width="39" height="50" viewBox="0 0 39 50"><defs><path id="yps4a" d="M408 1685a16 16 0 1 1 0 32 16 16 0 0 1 0-32z"/><path id="yps4b" d="M418 1706.81a9.82 9.82 0 0 1-4.24 8.09 6.97 6.97 0 0 0-2.98 5.75v2.65a.7.7 0 1 1-1.4 0v-2.65a8.36 8.36 0 0 1 3.59-6.9 8.42 8.42 0 0 0 3.64-6.94.7.7 0 1 1 1.39 0zm0-8.66v6.26a.7.7 0 1 1-1.4 0v-6.26a1.98 1.98 0 0 0-3.94 0v6.88a.7.7 0 0 1-.77.7l-8.42 8.42a.7.7 0 0 1-.98 0l-9.66-9.68v1.52c0 3.38 1.17 6.7 3.3 9.33.1.12.16.28.16.44v7.54a.7.7 0 1 1-1.4 0v-7.3a16.28 16.28 0 0 1-3.46-10.01v-2.92l-1.04-1.04a8.12 8.12 0 0 1-2.08-3.54.7.7 0 0 1 1.34-.38 6.78 6.78 0 0 0 1.72 2.93l11.61 11.63 8.28-8.3v-6.22a3.38 3.38 0 0 1 6.74 0zm-.84-3.32a.7.7 0 0 1-.86-.47 6.78 6.78 0 0 0-9.04-4.38c-.84.34-1.59.84-2.23 1.49l-.15.15-1.4 1.4a.7.7 0 0 1-1 0l-1.54-1.55a6.7 6.7 0 0 0-3.95-1.93 6.76 6.76 0 0 0-7.6 6.7v.01a.7.7 0 1 1-1.39-.06 8.12 8.12 0 0 1 3.43-6.6v-.51a3.17 3.17 0 0 1 3.18-3.18c.66 0 1.27.2 1.78.54v-2.39a3.18 3.18 0 0 1 4.96-2.63v-1.24a3.18 3.18 0 0 1 6.35 0v.5a3.15 3.15 0 0 1 4.03.38c.6.6.93 1.4.93 2.25v5.3a8.18 8.18 0 0 1 4.98 5.36.7.7 0 0 1-.48.86zm-21.07-6.74a1.77 1.77 0 0 0-2.74-.28c-.27.27-.44.61-.5.98a8.17 8.17 0 0 1 3.24-.7zm5.26 1.87v-5.9a1.78 1.78 0 1 0-3.57 0v4.2c1.32.26 2.53.84 3.57 1.7zm4.95-6.65v-3.13a1.77 1.77 0 0 0-1.78-1.78c-.98 0-1.78.8-1.78 1.78v11.12l.24.24 1.06-1.06a8.12 8.12 0 0 1 2.26-1.6v-5.57zm4.96 0a1.78 1.78 0 0 0-1.78-1.79c-.98 0-1.78.8-1.78 1.79v5.06a8.2 8.2 0 0 1 3.56-.15z"/></defs><g><g transform="translate(-386 -1675)"><use fill="#febc36" xlink:href="#yps4a"/></g><g transform="translate(-386 -1675)"><use fill="#084267" xlink:href="#yps4b"/></g></g></svg>