<svg xmlns="http://www.w3.org/2000/svg" xmlns:xlink="http://www.w3.org/1999/xlink" width="41" height="36" viewBox="0 0 41 36"><defs><path id="a" d="M1013 80.3a7.28 7.28 0 0 1-7.4 7.12 7.28 7.28 0 0 1-7.4-7.13h-.01l5.34-12.96c-.18-.28-.3-.6-.36-.95h-4.04l-.18.87a2.14 2.14 0 0 1-1.99 1.64h-.4v20.64h4.1c.9 0 1.87.72 2.13 1.6l.68 2.26c.27.88-.26 1.6-1.16 1.6h-15.62c-.9 0-1.43-.72-1.16-1.6l.67-2.25a2.38 2.38 0 0 1 2.13-1.61h4.11V68.89h-.4c-.91 0-1.8-.74-2-1.64l-.18-.87h-4.03c-.06.35-.19.67-.37.95l5.34 12.97a7.28 7.28 0 0 1-7.4 7.12 7.28 7.28 0 0 1-7.4-7.13l5.34-12.96c-.26-.4-.4-.87-.4-1.38a2.5 2.5 0 0 1 2.46-2.53c1.08 0 1.99.71 2.33 1.7h3.87l-.1-.47c-.2-.91.4-1.65 1.3-1.65h7.4c.9 0 1.49.74 1.3 1.65l-.1.47h3.87a2.47 2.47 0 0 1 2.33-1.7 2.5 2.5 0 0 1 2.46 2.53c0 .5-.15.98-.4 1.38l5.33 12.93v.03zm-30.84-14.35c0 .7.56 1.26 1.24 1.26.68 0 1.23-.57 1.23-1.26 0-.7-.55-1.27-1.23-1.27-.68 0-1.24.57-1.24 1.27zm7.26 15.58h-12.05a6.12 6.12 0 0 0 6.03 4.63 6.12 6.12 0 0 0 6.02-4.63zm-4.94-13.32a2.4 2.4 0 0 1-2.17 0l-4.97 12.05h12.1zm3.85 22.58c-.36 0-.84.36-.95.72l-.67 2.23h15.57l-.67-2.23c-.1-.36-.58-.72-.95-.72zm6.99-1.26V68.89h-1.64v20.64zm2.98-25.26h-7.5l-.1.01v.1l.55 2.6c.07.32.46.65.78.65h4.93c.32 0 .72-.33.79-.65l.54-2.6c.02-.06 0-.1 0-.1zm6.06 1.68c0 .7.56 1.26 1.24 1.26.68 0 1.23-.57 1.23-1.26 0-.7-.55-1.27-1.23-1.27-.68 0-1.24.57-1.24 1.27zm7.26 15.58h-12.05a6.12 6.12 0 0 0 6.03 4.63 6.12 6.12 0 0 0 6.02-4.63zm.03-1.27l-4.97-12.05a2.4 2.4 0 0 1-2.17 0l-4.97 12.05z"/></defs><g transform="translate(-974 -61)"><use fill="#fdc012" xlink:href="#a"/><use fill="#fff" fill-opacity="0" stroke="#fdc012" stroke-miterlimit="50" stroke-width=".3" xlink:href="#a"/></g></svg>