<svg xmlns="http://www.w3.org/2000/svg" xmlns:xlink="http://www.w3.org/1999/xlink" width="24" height="18" viewBox="0 0 24 18"><defs><path id="a" d="M902 6024.5c0 .44-.13.84-.34 1.2l-6.63-7.06 6.56-5.47c.26.39.41.84.41 1.33zm-19.63-12.19c.38-.2.8-.31 1.25-.31h15.75c.46 0 .88.12 1.26.31l-9.13 7.6zm18.39 14.3c-.4.25-.88.39-1.39.39h-15.75c-.5 0-.98-.14-1.38-.38l6.71-7.16 2.12 1.76c.12.1.28.15.43.15.15 0 .3-.05.43-.15l2.11-1.76zm-12.8-7.98l-6.62 7.07c-.21-.36-.34-.76-.34-1.2v-10c0-.49.15-.94.4-1.33z"/></defs><g transform="translate(-879 -6010)"><use fill="#084267" xlink:href="#a"/></g></svg>