<svg xmlns="http://www.w3.org/2000/svg" xmlns:xlink="http://www.w3.org/1999/xlink" width="20" height="20" viewBox="0 0 20 20"><defs><path id="a" d="M538.64 82.66l-2.47-2.48c-.5-.49-1.3-.47-1.82.04l-1.24 1.24-.25-.13a12.39 12.39 0 0 1-3-2.17c-1.13-1.14-1.72-2.22-2.16-3.01l-.13-.24.83-.84.41-.41a1.3 1.3 0 0 0 .03-1.82l-2.47-2.48c-.49-.5-1.3-.48-1.81.04l-.7.7.02.02a4.04 4.04 0 0 0-.83 2.04c-.32 2.71.91 5.19 4.27 8.55 4.63 4.65 8.37 4.3 8.53 4.28a4.2 4.2 0 0 0 2.04-.83l.01.01.7-.69c.52-.51.53-1.33.04-1.82z"/></defs><g transform="translate(-521 -68)"><use fill="#084267" xlink:href="#a"/></g></svg>