<?xml version="1.0" encoding="UTF-8" standalone="no"?>
<svg
   xmlns:dc="http://purl.org/dc/elements/1.1/"
   xmlns:cc="http://creativecommons.org/ns#"
   xmlns:rdf="http://www.w3.org/1999/02/22-rdf-syntax-ns#"
   xmlns:svg="http://www.w3.org/2000/svg"
   xmlns="http://www.w3.org/2000/svg"
   xmlns:xlink="http://www.w3.org/1999/xlink"
   xmlns:sodipodi="http://sodipodi.sourceforge.net/DTD/sodipodi-0.dtd"
   xmlns:inkscape="http://www.inkscape.org/namespaces/inkscape"
   width="27"
   height="31"
   viewBox="0 0 27 31"
   version="1.1"
   id="svg11"
   sodipodi:docname="login.svg"
   inkscape:version="0.92.1 r15371">
  <metadata
     id="metadata15">
    <rdf:RDF>
      <cc:Work
         rdf:about="">
        <dc:format>image/svg+xml</dc:format>
        <dc:type
           rdf:resource="http://purl.org/dc/dcmitype/StillImage" />
        <dc:title></dc:title>
      </cc:Work>
    </rdf:RDF>
  </metadata>
  <sodipodi:namedview
     pagecolor="#ffffff"
     bordercolor="#666666"
     borderopacity="1"
     objecttolerance="10"
     gridtolerance="10"
     guidetolerance="10"
     inkscape:pageopacity="0"
     inkscape:pageshadow="2"
     inkscape:window-width="640"
     inkscape:window-height="480"
     id="namedview13"
     showgrid="false"
     inkscape:zoom="7.6129032"
     inkscape:cx="13.5"
     inkscape:cy="15.5"
     inkscape:window-x="0"
     inkscape:window-y="0"
     inkscape:window-maximized="0"
     inkscape:current-layer="svg11" />
  <defs
     id="defs3">
    <path
       id="a44"
       d="M1195.77 62.19v5.62c0 1.55-1.17 2.81-2.61 2.81h-4.7v.95c0 1.34-1.02 2.43-2.26 2.43-.31 0-.61-.07-.9-.2l-5.93-2.74a2.44 2.44 0 0 1-1.37-2.23v-19.4c0-1.34 1.01-2.43 2.26-2.43.08 0 .16.02.23.03l.12-.03h12.55c1.44 0 2.61 1.26 2.61 2.81v5.63c0 .3-.23.56-.52.56-.29 0-.52-.25-.52-.56V49.8c0-.93-.7-1.69-1.57-1.69h-10l3.93 1.82a2.44 2.44 0 0 1 1.36 2.23V69.5h4.7c.87 0 1.58-.76 1.58-1.69V62.2c0-.31.23-.57.52-.57.29 0 .52.26.52.57zm-8.36-10.02c0-.52-.29-1-.74-1.2l-5.94-2.74c-.15-.07-.3-.1-.47-.1-.67 0-1.21.58-1.21 1.3v19.4c0 .52.28 1 .73 1.2l5.94 2.74c.15.07.31.1.48.1.67 0 1.2-.58 1.2-1.3zm-1.05 7.77v2.25c0 .3-.23.56-.52.56-.29 0-.52-.25-.52-.56v-2.25c0-.31.23-.57.52-.57.29 0 .52.26.52.57zM1201 58.8l-.01.07-.03.15a.55.55 0 0 1-.08.13l-.03.05-3.14 3.38a.5.5 0 0 1-.37.16.5.5 0 0 1-.37-.16.6.6 0 0 1 0-.8l2.25-2.42h-9.2c-.29 0-.52-.25-.52-.56 0-.3.23-.56.52-.56h9.2l-2.25-2.41a.6.6 0 0 1 0-.8.5.5 0 0 1 .74 0l3.13 3.37c.05.05.1.12.12.19l.01.06.03.15z" />
  </defs>
  <g
     transform="translate(-1176 -45)"
     id="g9">
    <use
       fill="#2fa8df"
       xlink:href="#a44"
       id="use5" />
    <use
       fill="#fff"
       fill-opacity="0"
       stroke="#2fa8df"
       stroke-miterlimit="50"
       stroke-width=".3"
       xlink:href="#a44"
       id="use7" />
  </g>
</svg>
