<svg xmlns="http://www.w3.org/2000/svg" viewBox="0 0 49.33 49.33"><defs><style>.cls-1{fill:#fff;}.cls-2{fill:#3baae3;}.cls-3{fill:#4a494a;}</style></defs><title>prod-i-2</title><g id="Слой_2" data-name="Слой 2"><g id="Слой_1-2" data-name="Слой 1"><path class="cls-1" d="M24.67,46.33A21.67,21.67,0,1,1,46.33,24.67,21.69,21.69,0,0,1,24.67,46.33Z"/><path class="cls-2" d="M24.67,4A20.67,20.67,0,1,1,4,24.67,20.69,20.69,0,0,1,24.67,4m0-2A22.67,22.67,0,1,0,47.33,24.67,22.67,22.67,0,0,0,24.67,2Z"/><path class="cls-3" d="M24.67,2A22.67,22.67,0,1,1,2,24.67,22.67,22.67,0,0,1,24.67,2m0-2A24.67,24.67,0,1,0,49.33,24.67,24.69,24.69,0,0,0,24.67,0Z"/><path class="cls-2" d="M26.58,36.82a3.72,3.72,0,0,1-3.71-3.71h1.77a2,2,0,0,0,1.95,1.95,2.2,2.2,0,0,0,2.19-2.19,2.47,2.47,0,0,0-2.46-2.46H14.15V28.63H26.31a4.24,4.24,0,0,1,4.23,4.23A4,4,0,0,1,26.58,36.82Z"/><path class="cls-2" d="M33,26.95H9.27V25.18H33A4.68,4.68,0,0,0,37.7,20.5a4.23,4.23,0,0,0-4.23-4.23,3.82,3.82,0,0,0-3.81,3.81H27.89a5.59,5.59,0,0,1,5.58-5.58,6,6,0,0,1,6,6A6.45,6.45,0,0,1,33,26.95Z"/><path class="cls-2" d="M23,23.5H14.15V21.73H23a1.78,1.78,0,0,0,1.78-1.78,1.57,1.57,0,0,0-1.57-1.57,1.37,1.37,0,0,0-1.37,1.37H20a3.14,3.14,0,0,1,3.14-3.14,3.34,3.34,0,0,1,3.34,3.34A3.55,3.55,0,0,1,23,23.5Z"/></g></g></svg>