<?xml version="1.0" encoding="UTF-8" standalone="no"?>
<svg
   xmlns:dc="http://purl.org/dc/elements/1.1/"
   xmlns:cc="http://creativecommons.org/ns#"
   xmlns:rdf="http://www.w3.org/1999/02/22-rdf-syntax-ns#"
   xmlns:svg="http://www.w3.org/2000/svg"
   xmlns="http://www.w3.org/2000/svg"
   xmlns:xlink="http://www.w3.org/1999/xlink"
   xmlns:sodipodi="http://sodipodi.sourceforge.net/DTD/sodipodi-0.dtd"
   xmlns:inkscape="http://www.inkscape.org/namespaces/inkscape"
   width="22"
   height="23"
   viewBox="0 0 22 23"
   version="1.1"
   id="svg9"
   sodipodi:docname="prod-i-2.svg"
   inkscape:version="0.92.1 r15371">
  <metadata
     id="metadata13">
    <rdf:RDF>
      <cc:Work
         rdf:about="">
        <dc:format>image/svg+xml</dc:format>
        <dc:type
           rdf:resource="http://purl.org/dc/dcmitype/StillImage" />
        <dc:title></dc:title>
      </cc:Work>
    </rdf:RDF>
  </metadata>
  <sodipodi:namedview
     pagecolor="#ffffff"
     bordercolor="#666666"
     borderopacity="1"
     objecttolerance="10"
     gridtolerance="10"
     guidetolerance="10"
     inkscape:pageopacity="0"
     inkscape:pageshadow="2"
     inkscape:window-width="640"
     inkscape:window-height="480"
     id="namedview11"
     showgrid="false"
     inkscape:zoom="10.26087"
     inkscape:cx="11"
     inkscape:cy="11.5"
     inkscape:window-x="0"
     inkscape:window-y="0"
     inkscape:window-maximized="0"
     inkscape:current-layer="svg9" />
  <defs
     id="defs3">
    <path
       id="a"
       d="M673 1837.08c0-.48.4-.88.89-.88h14.34a2 2 0 0 0 2-2 2 2 0 0 0-2-1.98h-.02a2 2 0 0 0-1.27.48c-.3.3-.46.76-.46 1.36a.88.88 0 0 1-1.77 0c0-1.1.34-1.98 1-2.63a3.75 3.75 0 0 1 6.29 2.78c0 2.07-1.7 3.76-3.77 3.76h-14.34a.88.88 0 0 1-.89-.89zm0-3.45c0-.49.4-.88.89-.88h6.83a2 2 0 0 0 2-2 2 2 0 0 0-2-1.99h-.02a2 2 0 0 0-1.27.49c-.3.3-.45.76-.45 1.36a.88.88 0 0 1-1.77 0c0-1.1.33-1.99 1-2.63a3.77 3.77 0 0 1 6.29 2.78c0 2.07-1.7 3.75-3.78 3.75h-6.83a.88.88 0 0 1-.89-.88zm19 9.61a3.77 3.77 0 0 1-3.76 3.76h-.03c-.28 0-1.54-.06-2.5-.98-.66-.64-1-1.53-1-2.63a.88.88 0 0 1 1.77 0c0 .6.16 1.06.46 1.36a2 2 0 0 0 1.27.49h.02a2 2 0 0 0 2-2 2 2 0 0 0-2-2h-14.34a.88.88 0 1 1 0-1.75h14.34a3.77 3.77 0 0 1 3.77 3.75z" />
  </defs>
  <g
     transform="translate(-671 -1825)"
     id="g7">
    <use
       fill="#2fa7df"
       xlink:href="#a"
       id="use5" />
  </g>
</svg>
