<svg xmlns="http://www.w3.org/2000/svg" viewBox="0 0 49.33 49.33"><defs><style>.cls-1{fill:#fff;}.cls-2{fill:#3baae3;}.cls-3{fill:#4a494a;}</style></defs><title>prod-i-1</title><g id="Слой_2" data-name="Слой 2"><g id="Слой_1-2" data-name="Слой 1"><path class="cls-1" d="M24.67,46.33A21.67,21.67,0,1,1,46.33,24.67,21.69,21.69,0,0,1,24.67,46.33Z"/><path class="cls-2" d="M24.67,4A20.67,20.67,0,1,1,4,24.67,20.69,20.69,0,0,1,24.67,4m0-2A22.67,22.67,0,1,0,47.33,24.67,22.67,22.67,0,0,0,24.67,2Z"/><path class="cls-3" d="M24.67,2A22.67,22.67,0,1,1,2,24.67,22.67,22.67,0,0,1,24.67,2m0-2A24.67,24.67,0,1,0,49.33,24.67,24.69,24.69,0,0,0,24.67,0Z"/><path class="cls-2" d="M19.49,26.22c1.24-.54,2.07-2,2.07-4,0-3.43-2.24-4.14-5-4.14h-4a.65.65,0,0,0-.73.61V35.25a.65.65,0,0,0,.73.61h4.58c2.7,0,4.82-1.31,4.82-5v-.44C22,27.92,21,26.83,19.49,26.22Zm-6-6.67h3.09c2,0,3.41.58,3.41,2.82s-1.07,3.14-3.31,3.14H13.45Zm6.94,11.22c0,2.51-1.29,3.6-3.41,3.6H13.45V26.9H17c2.12,0,3.41.93,3.41,3.46Z"/><path class="cls-2" d="M35.14,18.06c-2.85,0-5.06,1.41-5.06,5.19V30.8c0,3.8,2.22,5.21,5.06,5.21s5.06-1.41,5.06-5.21V23.25C40.21,19.48,38,18.06,35.14,18.06ZM38.6,30.8c0,2.56-1.29,3.73-3.46,3.73s-3.46-1.17-3.46-3.73V23.25c0-2.53,1.29-3.7,3.46-3.7s3.46,1.17,3.46,3.7Z"/><path class="cls-2" d="M33.93,12.51V10.46a.59.59,0,0,0-.59-.59H31.29a6.15,6.15,0,0,0-5.55,3.52,6.15,6.15,0,0,0-5.55-3.52H18.13a.59.59,0,0,0-.59.59v2.05a6.15,6.15,0,0,0,6.14,6.14H25V35.23c0,.41.39.63.8.63s.8-.22.8-.63V18.65h1.22A6.15,6.15,0,0,0,33.93,12.51ZM31.29,11h1.47v1.47a5,5,0,0,1-5,5h-.63l2.75-2.75a.59.59,0,1,0-.83-.83l-2.75,2.75V16A5,5,0,0,1,31.29,11ZM18.72,12.51V11h1.47a5,5,0,0,1,5,5v.63l-4.2-4.21a.59.59,0,1,0-.83.83l4.2,4.21h-.63A5,5,0,0,1,18.72,12.51Z"/><path class="cls-2" d="M30.74,13.65a.59.59,0,0,0,.42-.17l.21-.21a.59.59,0,0,0-.83-.83l-.21.21a.59.59,0,0,0,.42,1Z"/></g></g></svg>