<?xml version="1.0" encoding="UTF-8" standalone="no"?>
<svg
   xmlns:dc="http://purl.org/dc/elements/1.1/"
   xmlns:cc="http://creativecommons.org/ns#"
   xmlns:rdf="http://www.w3.org/1999/02/22-rdf-syntax-ns#"
   xmlns:svg="http://www.w3.org/2000/svg"
   xmlns="http://www.w3.org/2000/svg"
   xmlns:xlink="http://www.w3.org/1999/xlink"
   xmlns:sodipodi="http://sodipodi.sourceforge.net/DTD/sodipodi-0.dtd"
   xmlns:inkscape="http://www.inkscape.org/namespaces/inkscape"
   width="26"
   height="24"
   viewBox="0 0 26 24"
   version="1.1"
   id="svg11"
   sodipodi:docname="prod-i-1.svg"
   inkscape:version="0.92.1 r15371">
  <metadata
     id="metadata15">
    <rdf:RDF>
      <cc:Work
         rdf:about="">
        <dc:format>image/svg+xml</dc:format>
        <dc:type
           rdf:resource="http://purl.org/dc/dcmitype/StillImage" />
        <dc:title></dc:title>
      </cc:Work>
    </rdf:RDF>
  </metadata>
  <sodipodi:namedview
     pagecolor="#ffffff"
     bordercolor="#666666"
     borderopacity="1"
     objecttolerance="10"
     gridtolerance="10"
     guidetolerance="10"
     inkscape:pageopacity="0"
     inkscape:pageshadow="2"
     inkscape:window-width="640"
     inkscape:window-height="480"
     id="namedview13"
     showgrid="false"
     inkscape:zoom="9.8333333"
     inkscape:cx="13"
     inkscape:cy="12"
     inkscape:window-x="0"
     inkscape:window-y="0"
     inkscape:window-maximized="0"
     inkscape:current-layer="svg11" />
  <defs
     id="defs3">
    <path
       id="a123"
       d="M616.86 1841.71v.34c0 2.83-1.64 3.84-3.74 3.84h-3.55c-.36 0-.57-.23-.57-.47v-12.68c0-.32.28-.47.57-.47h3.1c2.11 0 3.85.54 3.85 3.17 0 1.56-.64 2.66-1.6 3.07 1.15.47 1.94 1.3 1.94 3.2zm-6.63-3.74h2.47c1.74 0 2.57-.63 2.57-2.4 0-1.72-1.1-2.16-2.64-2.16h-2.4zm5.39 3.7c0-1.93-1-2.64-2.65-2.64h-2.74v5.72h2.74c1.64 0 2.65-.84 2.65-2.76zm15.38-5.43v5.77c0 2.9-1.72 3.99-3.93 3.99s-3.93-1.08-3.93-3.99v-5.77c0-2.89 1.72-3.97 3.93-3.97s3.93 1.08 3.93 3.97zm-1.25 0c0-1.94-1-2.83-2.68-2.83-1.68 0-2.69.89-2.69 2.83v5.77c0 1.96 1 2.85 2.69 2.85 1.68 0 2.68-.9 2.68-2.85zm-3.62-9.8v1.58c0 2.6-2.14 4.7-4.77 4.7h-.94v12.68c0 .32-.33.49-.63.49-.32 0-.62-.17-.62-.49v-12.68h-1a4.74 4.74 0 0 1-4.77-4.7v-1.57c0-.25.2-.45.46-.45h1.6c1.9 0 3.54 1.1 4.3 2.7a4.78 4.78 0 0 1 4.32-2.7h1.59c.25 0 .46.2.46.45zm-6.82 4.74v-.48c0-2.1-1.73-3.8-3.86-3.8h-1.13v1.12c0 2.1 1.73 3.8 3.85 3.8h.5l-3.27-3.22a.45.45 0 0 1 0-.63.46.46 0 0 1 .64 0zm5.9-3.16v-1.12h-1.13a3.83 3.83 0 0 0-3.86 3.8v.48l2.14-2.1a.46.46 0 0 1 .64 0c.18.17.18.46 0 .63l-2.13 2.1h.49c2.12 0 3.85-1.7 3.85-3.79zm-1.08.58l-.16.16a.46.46 0 0 1-.65 0 .45.45 0 0 1 0-.63l.17-.16a.46.46 0 0 1 .64 0c.18.17.18.46 0 .63z" />
  </defs>
  <g
     transform="translate(-607 -1824)"
     id="g9">
    <use
       fill="#42aae0"
       xlink:href="#a123"
       id="use5" />
    <use
       fill="#fff"
       fill-opacity="0"
       stroke="#2fa7df"
       stroke-miterlimit="50"
       stroke-width=".5"
       xlink:href="#a"
       id="use7" />
  </g>
</svg>
