<?xml version="1.0" encoding="UTF-8" standalone="no"?>
<svg
   xmlns:dc="http://purl.org/dc/elements/1.1/"
   xmlns:cc="http://creativecommons.org/ns#"
   xmlns:rdf="http://www.w3.org/1999/02/22-rdf-syntax-ns#"
   xmlns:svg="http://www.w3.org/2000/svg"
   xmlns="http://www.w3.org/2000/svg"
   xmlns:xlink="http://www.w3.org/1999/xlink"
   xmlns:sodipodi="http://sodipodi.sourceforge.net/DTD/sodipodi-0.dtd"
   xmlns:inkscape="http://www.inkscape.org/namespaces/inkscape"
   width="23.503584"
   height="23.494184"
   viewBox="0 0 23.503584 23.494184"
   version="1.1"
   id="svg11"
   sodipodi:docname="reg.svg"
   inkscape:version="0.92.1 r15371">
  <metadata
     id="metadata15">
    <rdf:RDF>
      <cc:Work
         rdf:about="">
        <dc:format>image/svg+xml</dc:format>
        <dc:type
           rdf:resource="http://purl.org/dc/dcmitype/StillImage" />
        <dc:title></dc:title>
      </cc:Work>
    </rdf:RDF>
  </metadata>
  <sodipodi:namedview
     pagecolor="#ffffff"
     bordercolor="#666666"
     borderopacity="1"
     objecttolerance="10"
     gridtolerance="10"
     guidetolerance="10"
     inkscape:pageopacity="0"
     inkscape:pageshadow="2"
     inkscape:window-width="640"
     inkscape:window-height="480"
     id="namedview13"
     showgrid="false"
     fit-margin-top="0"
     fit-margin-left="0"
     fit-margin-right="0"
     fit-margin-bottom="0"
     inkscape:zoom="8.7407407"
     inkscape:cx="11.753584"
     inkscape:cy="11.744185"
     inkscape:window-x="0"
     inkscape:window-y="0"
     inkscape:window-maximized="0"
     inkscape:current-layer="svg11" />
  <defs
     id="defs3">
    <path
       id="a55"
       d="m 1191.4,82.32 c -0.06,-0.38 -0.64,-1.36 -2.87,-1.36 -2.35,0 -3.84,2.27 -3.84,3.83 v 2.88 c 0,0.26 -0.22,0.48 -0.48,0.48 a 6.19,6.19 0 0 0 0.38,1.57 c 0.28,0.19 0.58,0.58 0.58,1.3 0,0.64 0.63,1.5 1.26,2.03 0.11,0.09 0.18,0.22 0.18,0.36 0,0.61 -0.56,3.11 -2.22,3.8 l -4.3,1.43 c -0.78,0.26 -1.37,0.9 -1.57,1.7 l -0.58,2.3 a 0.48,0.48 0 0 1 -0.58,0.34 0.48,0.48 0 0 1 -0.35,-0.58 l 0.58,-2.3 c 0.28,-1.12 1.1,-2 2.2,-2.37 l 4.26,-1.41 c 1,-0.42 1.48,-2.08 1.58,-2.7 -0.74,-0.68 -1.42,-1.69 -1.42,-2.6 0,-0.34 -0.1,-0.48 -0.16,-0.5 -0.15,-0.04 -0.23,-0.14 -0.29,-0.28 a 7.15,7.15 0 0 1 -0.5,-2.21 c 0.05,-0.21 0.2,-0.52 0.47,-0.7 V 84.8 c 0,-2 1.82,-4.8 4.8,-4.8 2.94,0 3.74,1.51 3.83,2.26 0.5,0.36 0.97,1 0.97,2.54 v 2.54 c 0.27,0.18 0.42,0.49 0.47,0.7 l 0.01,0.11 c 0,0.8 -0.46,1.97 -0.51,2.1 a 0.48,0.48 0 0 1 -0.33,0.29 c -0.01,0.01 -0.12,0.15 -0.12,0.49 0,0.87 -0.34,1.32 -0.55,1.58 l -0.07,0.1 a 0.48,0.48 0 0 1 -0.8,-0.53 l 0.11,-0.15 c 0.17,-0.21 0.35,-0.46 0.35,-1 0,-0.72 0.3,-1.11 0.58,-1.3 a 6.2,6.2 0 0 0 0.38,-1.5 0.32,0.32 0 0 0 -0.05,-0.1 c -0.27,0 -0.43,-0.19 -0.43,-0.45 V 84.8 c 0,-1.41 -0.45,-1.7 -0.65,-1.82 -0.11,-0.07 -0.3,-0.2 -0.34,-0.46 0,-0.06 0,-0.12 0.02,-0.19 z m 8.6,14.43 v 5.75 c 0,0.26 -0.22,0.48 -0.48,0.48 h -7.69 a 0.48,0.48 0 0 1 -0.48,-0.48 v -5.75 c 0,-0.26 0.22,-0.48 0.48,-0.48 h 0.48 v -0.48 a 3.365,3.365 0 0 1 6.73,0 v 0.48 h 0.48 c 0.26,0 0.48,0.22 0.48,0.48 z m -6.73,-0.48 h 4.8 v -0.48 a 2.4,2.4 0 0 0 -4.8,0 z m 5.77,5.75 v -4.8 h -6.73 v 4.8 z m -4.32,-2.87 a 0.96,0.96 0 0 1 1.92,0 c 0,0.35 -0.2,0.64 -0.48,0.8 v 0.63 a 0.48,0.48 0 0 1 -0.96,0 v -0.62 a 0.94,0.94 0 0 1 -0.48,-0.81 z"
       inkscape:connector-curvature="0" />
  </defs>
  <g
     transform="translate(-1176.7464,-79.75)"
     id="g9">
    <use
       xlink:href="#a55"
       id="use5"
       style="fill:#2fa8df"
       x="0"
       y="0"
       width="100%"
       height="100%" />
    <use
       stroke-miterlimit="50"
       xlink:href="#a55"
       id="use7"
       style="fill:#ffffff;fill-opacity:0;stroke:#2fa8df;stroke-width:0.5;stroke-miterlimit:50"
       x="0"
       y="0"
       width="100%"
       height="100%" />
  </g>
</svg>
