<?xml version="1.0" encoding="UTF-8" standalone="no"?>
<svg
   xmlns:dc="http://purl.org/dc/elements/1.1/"
   xmlns:cc="http://creativecommons.org/ns#"
   xmlns:rdf="http://www.w3.org/1999/02/22-rdf-syntax-ns#"
   xmlns:svg="http://www.w3.org/2000/svg"
   xmlns="http://www.w3.org/2000/svg"
   xmlns:xlink="http://www.w3.org/1999/xlink"
   xmlns:sodipodi="http://sodipodi.sourceforge.net/DTD/sodipodi-0.dtd"
   xmlns:inkscape="http://www.inkscape.org/namespaces/inkscape"
   width="34.987511"
   height="35.018002"
   viewBox="0 0 34.987511 35.018002"
   version="1.1"
   id="svg9"
   sodipodi:docname="search.svg"
   inkscape:version="0.92.1 r15371">
  <metadata
     id="metadata13">
    <rdf:RDF>
      <cc:Work
         rdf:about="">
        <dc:format>image/svg+xml</dc:format>
        <dc:type
           rdf:resource="http://purl.org/dc/dcmitype/StillImage" />
        <dc:title></dc:title>
      </cc:Work>
    </rdf:RDF>
  </metadata>
  <sodipodi:namedview
     pagecolor="#ffffff"
     bordercolor="#666666"
     borderopacity="1"
     objecttolerance="10"
     gridtolerance="10"
     guidetolerance="10"
     inkscape:pageopacity="0"
     inkscape:pageshadow="2"
     inkscape:window-width="640"
     inkscape:window-height="480"
     id="namedview11"
     showgrid="false"
     fit-margin-top="0"
     fit-margin-left="0"
     fit-margin-right="0"
     fit-margin-bottom="0"
     inkscape:zoom="6.2105263"
     inkscape:cx="17.500011"
     inkscape:cy="18.008003"
     inkscape:window-x="0"
     inkscape:window-y="0"
     inkscape:window-maximized="0"
     inkscape:current-layer="svg9" />
  <defs
      >
    <path
       id="a33"
       d="m 1088.7,94.69 a 1.02,1.02 0 0 1 -1.48,0 l -8.5,-8.5 A 14.95,14.95 0 0 1 1054,74.92 c -0.01,-8.23 6.68,-14.93 14.92,-14.93 a 14.94,14.94 0 0 1 11.26,24.7 l 8.5,8.51 c 0.41,0.4 0.41,1.08 0,1.48 z m -19.78,-6.93 a 12.84,12.84 0 0 0 0,-25.66 12.84,12.84 0 0 0 0,25.66 z"
       inkscape:connector-curvature="0" />
  </defs>
  <g
     transform="translate(-1054,-59.99)"
     id="g7">
    <use
       xlink:href="#a33"
       id="use5"
       style="fill:#fdc012"
       x="0"
       y="0"
       width="100%"
       height="100%" />
  </g>
</svg>
