<svg xmlns="http://www.w3.org/2000/svg" xmlns:xlink="http://www.w3.org/1999/xlink" width="33" height="33" viewBox="0 0 33 33"><defs><path id="aq" d="M1559 5891v13c0 4.41-3.59 8-8 8h-13c-4.41 0-8-3.59-8-8v-13c0-4.41 3.59-8 8-8h13c4.41 0 8 3.59 8 8zm-2.57 13v-13c0-3-2.44-5.43-5.43-5.43h-13c-3 0-5.43 2.44-5.43 5.43v13c0 3 2.44 5.43 5.43 5.43h13c3 0 5.43-2.44 5.43-5.43zm-4.46-6.5a7.48 7.48 0 1 1-14.96-.02 7.48 7.48 0 0 1 14.96.02zm-2.57 0a4.9 4.9 0 1 0-9.81.01 4.9 4.9 0 0 0 9.8-.01zm4.22-9.1a1.9 1.9 0 0 1 0 2.67 1.9 1.9 0 0 1-3.22-1.33 1.9 1.9 0 0 1 1.89-1.9c.5 0 .98.2 1.33.56z"/></defs><g transform="translate(-1528 -5881)"><use fill="#c5c1c1" xlink:href="#aq"/><use fill="#fff" fill-opacity="0" stroke="#c5c1c1" stroke-miterlimit="50" xlink:href="#aq"/></g></svg>