<svg xmlns="http://www.w3.org/2000/svg" xmlns:xlink="http://www.w3.org/1999/xlink" width="20" height="31" viewBox="0 0 20 31"><defs><path id="aw" d="M1586.36 5903.86c-2.14-.22-4.06-.75-5.71-2.03-.2-.16-.42-.32-.6-.5-.73-.68-.8-1.48-.23-2.3.49-.69 1.31-.87 2.16-.47.17.07.33.17.48.27a9.41 9.41 0 0 0 10.39.1c.3-.23.63-.42 1-.52a1.6 1.6 0 0 1 1.83.72c.45.73.44 1.45-.11 2.02a8.41 8.41 0 0 1-3.02 1.94c-1.08.42-2.27.63-3.43.77l.37.4 4.76 4.75c.54.55.65 1.22.36 1.85a1.88 1.88 0 0 1-1.77 1.1c-.45-.03-.8-.26-1.11-.57-1.2-1.2-2.42-2.38-3.6-3.6-.34-.36-.5-.3-.8.02-1.21 1.23-2.44 2.45-3.67 3.66-.55.54-1.21.64-1.85.33a1.87 1.87 0 0 1-1.09-1.72c.03-.47.26-.83.58-1.15l4.71-4.7.35-.37zm1.3-5.44a6.97 6.97 0 0 1-6.91-6.96 6.98 6.98 0 1 1 13.94.1 6.96 6.96 0 0 1-7.02 6.86zm3.47-6.95a3.4 3.4 0 0 0-3.4-3.4 3.4 3.4 0 1 0 .01 6.8c1.9 0 3.4-1.52 3.4-3.4z"/></defs><g transform="translate(-1578 -5883)"><use fill="#c5c1c1" xlink:href="#aw"/></g></svg>