<?xml version="1.0" encoding="UTF-8" standalone="no"?>
<svg
   xmlns:dc="http://purl.org/dc/elements/1.1/"
   xmlns:cc="http://creativecommons.org/ns#"
   xmlns:rdf="http://www.w3.org/1999/02/22-rdf-syntax-ns#"
   xmlns:svg="http://www.w3.org/2000/svg"
   xmlns="http://www.w3.org/2000/svg"
   xmlns:xlink="http://www.w3.org/1999/xlink"
   xmlns:sodipodi="http://sodipodi.sourceforge.net/DTD/sodipodi-0.dtd"
   xmlns:inkscape="http://www.inkscape.org/namespaces/inkscape"
   width="24"
   height="18"
   viewBox="0 0 24 18"
   version="1.1"
   id="svg9"
   sodipodi:docname="soc-5.svg"
   inkscape:version="0.92.1 r15371">
  <metadata
     id="metadata13">
    <rdf:RDF>
      <cc:Work
         rdf:about="">
        <dc:format>image/svg+xml</dc:format>
        <dc:type
           rdf:resource="http://purl.org/dc/dcmitype/StillImage" />
        <dc:title></dc:title>
      </cc:Work>
    </rdf:RDF>
  </metadata>
  <sodipodi:namedview
     pagecolor="#ffffff"
     bordercolor="#666666"
     borderopacity="1"
     objecttolerance="10"
     gridtolerance="10"
     guidetolerance="10"
     inkscape:pageopacity="0"
     inkscape:pageshadow="2"
     inkscape:window-width="640"
     inkscape:window-height="480"
     id="namedview11"
     showgrid="false"
     inkscape:zoom="13.111111"
     inkscape:cx="12"
     inkscape:cy="9"
     inkscape:window-x="0"
     inkscape:window-y="0"
     inkscape:window-maximized="0"
     inkscape:current-layer="svg9" />
  <defs
     id="defs3">
    <path
       id="a13"
       d="M494 838.95v3.8c0 2.42-.37 3.81-1.25 4.67-.85.83-2.17 1.17-4.55 1.17h-9.97c-4.9 0-5.8-1.96-5.8-5.83v-3.81c0-2 0-3.44.75-4.42.78-1.01 2.24-1.42 5.05-1.42h9.97c2.74 0 4.18.39 4.96 1.33.78.95.84 2.4.84 4.5zm-7.35 1.8c0-.27-.15-.51-.38-.63l-4.52-2.4a.69.69 0 0 0-.68.02.71.71 0 0 0-.34.61v4.81c0 .25.13.48.34.6a.69.69 0 0 0 .68.03l4.53-2.41a.71.71 0 0 0 .37-.63z" />
  </defs>
  <g
     transform="translate(-471 -832)"
     id="g7">
    <use
       fill="#c5c1c1"
       xlink:href="#a13"
       id="use5" />
  </g>
</svg>
