<?xml version="1.0" encoding="UTF-8" standalone="no"?>
<svg
   xmlns:dc="http://purl.org/dc/elements/1.1/"
   xmlns:cc="http://creativecommons.org/ns#"
   xmlns:rdf="http://www.w3.org/1999/02/22-rdf-syntax-ns#"
   xmlns:svg="http://www.w3.org/2000/svg"
   xmlns="http://www.w3.org/2000/svg"
   xmlns:xlink="http://www.w3.org/1999/xlink"
   xmlns:sodipodi="http://sodipodi.sourceforge.net/DTD/sodipodi-0.dtd"
   xmlns:inkscape="http://www.inkscape.org/namespaces/inkscape"
   width="22.270479"
   height="13.385932"
   viewBox="0 0 22.270479 13.385932"
   version="1.1"
   id="svg9"
   sodipodi:docname="soc-1.svg"
   inkscape:version="0.92.1 r15371">
  <metadata
     id="metadata13">
    <rdf:RDF>
      <cc:Work
         rdf:about="">
        <dc:format>image/svg+xml</dc:format>
        <dc:type
           rdf:resource="http://purl.org/dc/dcmitype/StillImage" />
        <dc:title></dc:title>
      </cc:Work>
    </rdf:RDF>
  </metadata>
  <sodipodi:namedview
     pagecolor="#ffffff"
     bordercolor="#666666"
     borderopacity="1"
     objecttolerance="10"
     gridtolerance="10"
     guidetolerance="10"
     inkscape:pageopacity="0"
     inkscape:pageshadow="2"
     inkscape:window-width="640"
     inkscape:window-height="480"
     id="namedview11"
     showgrid="false"
     fit-margin-top="0"
     fit-margin-left="0"
     fit-margin-right="0"
     fit-margin-bottom="0"
     inkscape:zoom="13.882353"
     inkscape:cx="10.999113"
     inkscape:cy="6.6959318"
     inkscape:window-x="0"
     inkscape:window-y="0"
     inkscape:window-maximized="0"
     inkscape:current-layer="svg9" />
  <defs
     id="defs3">
    <path
       id="a17"
       d="m 339.17,842.32 c 0.74,0.76 1.52,1.48 2.18,2.32 0.3,0.38 0.57,0.76 0.78,1.2 0.3,0.62 0.03,1.3 -0.5,1.33 h -3.24 c -0.83,0.07 -1.5,-0.28 -2.06,-0.89 -0.45,-0.49 -0.87,-1 -1.3,-1.5 -0.18,-0.2 -0.36,-0.4 -0.58,-0.55 -0.45,-0.3 -0.83,-0.22 -1.08,0.27 a 3.8,3.8 0 0 0 -0.35,1.61 c -0.03,0.81 -0.26,1.02 -1.03,1.06 a 7.91,7.91 0 0 1 -4.64,-1.06 10.54,10.54 0 0 1 -3.13,-3.1 42.54,42.54 0 0 1 -4.1,-7.78 c -0.27,-0.6 -0.08,-0.94 0.56,-0.95 1.06,-0.02 2.12,-0.02 3.18,0 0.43,0 0.71,0.27 0.88,0.7 0.57,1.5 1.27,2.91 2.15,4.23 0.24,0.35 0.47,0.7 0.81,0.95 0.38,0.27 0.67,0.18 0.84,-0.26 0.12,-0.28 0.17,-0.59 0.2,-0.89 0.07,-1.04 0.09,-2.08 -0.06,-3.11 -0.1,-0.65 -0.43,-1.07 -1.04,-1.19 -0.31,-0.06 -0.27,-0.18 -0.12,-0.37 0.26,-0.32 0.51,-0.53 1,-0.53 h 3.67 c 0.57,0.13 0.7,0.4 0.78,1.02 v 4.32 c 0,0.24 0.12,0.94 0.52,1.1 0.33,0.11 0.54,-0.16 0.73,-0.38 a 13.5,13.5 0 0 0 2.07,-3.37 c 0.25,-0.53 0.46,-1.08 0.67,-1.63 0.15,-0.41 0.4,-0.61 0.83,-0.6 h 3.52 c 0.11,0 0.22,0 0.32,0.02 0.6,0.1 0.75,0.38 0.57,1 -0.29,0.96 -0.85,1.77 -1.4,2.58 -0.6,0.86 -1.22,1.7 -1.8,2.56 -0.54,0.8 -0.5,1.2 0.17,1.89 z"
       inkscape:connector-curvature="0" />
  </defs>
  <g
     transform="translate(-320.00089,-833.81)"
     id="g7">
    <use
       xlink:href="#a17"
       id="use5"
       style="fill:#c5c1c1"
       x="0"
       y="0"
       width="100%"
       height="100%" />
  </g>
</svg>
