<?xml version="1.0" encoding="UTF-8" standalone="no"?>
<svg
   xmlns:dc="http://purl.org/dc/elements/1.1/"
   xmlns:cc="http://creativecommons.org/ns#"
   xmlns:rdf="http://www.w3.org/1999/02/22-rdf-syntax-ns#"
   xmlns:svg="http://www.w3.org/2000/svg"
   xmlns="http://www.w3.org/2000/svg"
   xmlns:xlink="http://www.w3.org/1999/xlink"
   xmlns:sodipodi="http://sodipodi.sourceforge.net/DTD/sodipodi-0.dtd"
   xmlns:inkscape="http://www.inkscape.org/namespaces/inkscape"
   width="22"
   height="22"
   viewBox="0 0 22 22"
   version="1.1"
   id="svg9"
   sodipodi:docname="soc-4.svg"
   inkscape:version="0.92.1 r15371">
  <metadata
     id="metadata13">
    <rdf:RDF>
      <cc:Work
         rdf:about="">
        <dc:format>image/svg+xml</dc:format>
        <dc:type
           rdf:resource="http://purl.org/dc/dcmitype/StillImage" />
        <dc:title></dc:title>
      </cc:Work>
    </rdf:RDF>
  </metadata>
  <sodipodi:namedview
     pagecolor="#ffffff"
     bordercolor="#666666"
     borderopacity="1"
     objecttolerance="10"
     gridtolerance="10"
     guidetolerance="10"
     inkscape:pageopacity="0"
     inkscape:pageshadow="2"
     inkscape:window-width="640"
     inkscape:window-height="480"
     id="namedview11"
     showgrid="false"
     inkscape:zoom="10.727273"
     inkscape:cx="11"
     inkscape:cy="11"
     inkscape:window-x="0"
     inkscape:window-y="0"
     inkscape:window-maximized="0"
     inkscape:current-layer="svg9" />
  <defs
     id="defs3">
    <path
       id="a12"
       d="M440.21 837.41v12.28a.3.3 0 0 1-.3.3h-3.77a.3.3 0 0 1-.3-.3v-12.28c0-.17.13-.3.3-.3h3.77c.17 0 .3.13.3.3zm.3-3.9a2.5 2.5 0 0 1-2.48 2.53 2.5 2.5 0 0 1-2.5-2.52 2.5 2.5 0 0 1 2.5-2.52 2.5 2.5 0 0 1 2.48 2.52zm13.82 9.45v6.73a.3.3 0 0 1-.3.3h-3.77a.3.3 0 0 1-.3-.3v-5.97c0-1.67-.13-2.95-1.66-2.95-1.4 0-1.96.8-1.96 2.85v6.07a.3.3 0 0 1-.3.3h-3.76a.3.3 0 0 1-.3-.3v-12.28c0-.17.13-.3.3-.3h3.6c.18 0 .31.13.31.3v.8a4.4 4.4 0 0 1 3.32-1.41c4.25 0 4.82 3.11 4.82 6.16z" />
  </defs>
  <g
     transform="translate(-434 -829)"
     id="g7">
    <use
       fill="#c5c1c1"
       xlink:href="#a12"
       id="use5" />
  </g>
</svg>
