<?xml version="1.0" encoding="UTF-8" standalone="no"?>
<svg
   xmlns:dc="http://purl.org/dc/elements/1.1/"
   xmlns:cc="http://creativecommons.org/ns#"
   xmlns:rdf="http://www.w3.org/1999/02/22-rdf-syntax-ns#"
   xmlns:svg="http://www.w3.org/2000/svg"
   xmlns="http://www.w3.org/2000/svg"
   xmlns:xlink="http://www.w3.org/1999/xlink"
   xmlns:sodipodi="http://sodipodi.sourceforge.net/DTD/sodipodi-0.dtd"
   xmlns:inkscape="http://www.inkscape.org/namespaces/inkscape"
   width="13"
   height="22"
   viewBox="0 0 13 22"
   version="1.1"
   id="svg9"
   sodipodi:docname="soc-2.svg"
   inkscape:version="0.92.1 r15371">
  <metadata
     id="metadata13">
    <rdf:RDF>
      <cc:Work
         rdf:about="">
        <dc:format>image/svg+xml</dc:format>
        <dc:type
           rdf:resource="http://purl.org/dc/dcmitype/StillImage" />
        <dc:title></dc:title>
      </cc:Work>
    </rdf:RDF>
  </metadata>
  <sodipodi:namedview
     pagecolor="#ffffff"
     bordercolor="#666666"
     borderopacity="1"
     objecttolerance="10"
     gridtolerance="10"
     guidetolerance="10"
     inkscape:pageopacity="0"
     inkscape:pageshadow="2"
     inkscape:window-width="640"
     inkscape:window-height="480"
     id="namedview11"
     showgrid="false"
     inkscape:zoom="10.727273"
     inkscape:cx="6.5"
     inkscape:cy="11"
     inkscape:window-x="0"
     inkscape:window-y="0"
     inkscape:window-maximized="0"
     inkscape:current-layer="svg9" />
  <defs
     id="defs3">
    <path
       id="a15"
       d="M364.86 841.12h2.1v8.57c0 .17.15.3.32.3h3.59a.3.3 0 0 0 .3-.3v-8.53h2.44a.3.3 0 0 0 .3-.27l.38-3.16a.3.3 0 0 0-.08-.24.31.31 0 0 0-.23-.1h-2.8v-1.98c0-.6.32-.9.97-.9h1.83a.3.3 0 0 0 .3-.3v-2.9a.3.3 0 0 0-.3-.3h-2.53l-.11-.01c-.44 0-1.96.08-3.16 1.17a3.24 3.24 0 0 0-1.1 2.9v2.32h-2.22a.3.3 0 0 0-.32.3v3.12c0 .17.14.3.32.3z" />
  </defs>
  <g
     transform="translate(-363 -829)"
     id="g7">
    <use
       fill="#c5c1c1"
       xlink:href="#a15"
       id="use5" />
  </g>
</svg>
