<?xml version="1.0" encoding="UTF-8" standalone="no"?>
<svg
   xmlns:dc="http://purl.org/dc/elements/1.1/"
   xmlns:cc="http://creativecommons.org/ns#"
   xmlns:rdf="http://www.w3.org/1999/02/22-rdf-syntax-ns#"
   xmlns:svg="http://www.w3.org/2000/svg"
   xmlns="http://www.w3.org/2000/svg"
   xmlns:xlink="http://www.w3.org/1999/xlink"
   xmlns:sodipodi="http://sodipodi.sourceforge.net/DTD/sodipodi-0.dtd"
   xmlns:inkscape="http://www.inkscape.org/namespaces/inkscape"
   width="22"
   height="20"
   viewBox="0 0 22 20"
   version="1.1"
   id="svg9"
   sodipodi:docname="soc-3.svg"
   inkscape:version="0.92.1 r15371">
  <metadata
     id="metadata13">
    <rdf:RDF>
      <cc:Work
         rdf:about="">
        <dc:format>image/svg+xml</dc:format>
        <dc:type
           rdf:resource="http://purl.org/dc/dcmitype/StillImage" />
        <dc:title></dc:title>
      </cc:Work>
    </rdf:RDF>
  </metadata>
  <sodipodi:namedview
     pagecolor="#ffffff"
     bordercolor="#666666"
     borderopacity="1"
     objecttolerance="10"
     gridtolerance="10"
     guidetolerance="10"
     inkscape:pageopacity="0"
     inkscape:pageshadow="2"
     inkscape:window-width="640"
     inkscape:window-height="480"
     id="namedview11"
     showgrid="false"
     inkscape:zoom="11.8"
     inkscape:cx="11"
     inkscape:cy="10"
     inkscape:window-x="1906"
     inkscape:window-y="105"
     inkscape:window-maximized="0"
     inkscape:current-layer="svg9" />
  <defs
     id="defs3">
    <path
       id="a14"
       d="M416.3 834.36c-.3.14-.62.26-.94.36.38-.46.67-1 .85-1.58a.35.35 0 0 0-.1-.36.3.3 0 0 0-.36-.03c-.69.43-1.42.74-2.2.92a4.09 4.09 0 0 0-2.92-1.26 4.32 4.32 0 0 0-4.15 5 10.55 10.55 0 0 1-7.35-4.13.3.3 0 0 0-.27-.12c-.1 0-.2.07-.25.16a4.63 4.63 0 0 0 .43 5.1 3.5 3.5 0 0 1-.56-.27.3.3 0 0 0-.3 0 .34.34 0 0 0-.17.29v.06c0 1.59.81 3.02 2.05 3.8a3.5 3.5 0 0 1-.32-.04.3.3 0 0 0-.3.1.35.35 0 0 0-.06.32 4.28 4.28 0 0 0 3.07 2.97 7.1 7.1 0 0 1-4.84 1.14.31.31 0 0 0-.34.22c-.05.15 0 .3.13.4a10.83 10.83 0 0 0 6.1 1.89c4.26 0 6.92-2.13 8.41-3.91a12.82 12.82 0 0 0 2.9-8.45 8.42 8.42 0 0 0 1.88-2.1.35.35 0 0 0-.02-.4.3.3 0 0 0-.37-.08z" />
  </defs>
  <g
     transform="translate(-396 -831)"
     id="g7">
    <use
       fill="#c5c1c1"
       xlink:href="#a14"
       id="use5" />
  </g>
</svg>
