<svg xmlns="http://www.w3.org/2000/svg" xmlns:xlink="http://www.w3.org/1999/xlink" width="44" height="35" viewBox="0 0 44 35"><defs><path id="gjjea" d="M322 1678v-23h38v23z"/><path id="gjjeb" d="M324.36 1663.37a.69.69 0 0 1 0-.97.68.68 0 0 1 .97 0c.12.12.2.3.2.48a.68.68 0 0 1-.68.69.68.68 0 0 1-.49-.2zm9.44 0a.69.69 0 0 1 0-.97.68.68 0 0 1 .96 0 .69.69 0 0 1 0 .97.68.68 0 0 1-.96 0zm18.87 0a.69.69 0 0 1 0-.97.68.68 0 0 1 .97 0 .7.7 0 0 1 0 .97.68.68 0 0 1-.97 0zm-9.43 0a.7.7 0 0 1 0-.97.68.68 0 0 1 .96 0 .7.7 0 0 1 0 .97c-.13.12-.3.2-.48.2a.68.68 0 0 1-.48-.2zm15.76-3.46v21.2c0 .38-.3.68-.68.68h-1.54v4.52c0 .38-.3.69-.69.69h-3.02a.68.68 0 0 1-.68-.69v-1.64h-26.78v1.64c0 .38-.3.69-.68.69h-3.02a.68.68 0 0 1-.69-.69v-4.52h-1.54a.68.68 0 0 1-.68-.68v-21.2a2.9 2.9 0 0 1 2.9-2.91h34.2c1.6 0 2.9 1.3 2.9 2.91zm-38.64 13.37h.95v-.86c0-.87.7-1.58 1.56-1.58h1.02a10.69 10.69 0 0 1-2.39-1.8.69.69 0 0 1 0-.98c2.01-2.02 4.68-3.13 7.53-3.13 2.84 0 5.5 1.1 7.52 3.13.26.27.26.7 0 .97-.72.72-1.53 1.33-2.4 1.81h9.7a10.62 10.62 0 0 1-2.4-1.8.69.69 0 0 1 0-.98 10.6 10.6 0 0 1 15.05 0c.26.27.26.7 0 .97-.73.73-1.54 1.34-2.4 1.81h1.03c.86 0 1.56.71 1.56 1.58v.86h.95v-13.37c0-.85-.69-1.54-1.53-1.54h-34.22c-.84 0-1.53.7-1.53 1.54zm34.97 0v-.86a.2.2 0 0 0-.2-.2h-32.26a.2.2 0 0 0-.2.2v.86zm-.32-4.73c-3.46-3-8.61-3-12.08 0 3.47 3 8.62 3 12.08 0zm-19.94 0a9.17 9.17 0 0 0-6.04-2.25c-2.24 0-4.36.79-6.04 2.25a9.17 9.17 0 0 0 6.04 2.25c2.24 0 4.35-.8 6.04-2.25zm-10.83 17.08v-3.84h-1.65v3.84zm28.15-2.33v-1.5h-26.78v1.5zm3.02-1.5h-1.65v3.83h1.65zm2.23-7.15h-37.28v5.77h37.28z"/></defs><g><g transform="translate(-317 -1653)"><use fill="#febc36" xlink:href="#gjjea"/></g><g transform="translate(-317 -1653)"><use fill="#084267" xlink:href="#gjjeb"/></g></g></svg>