<?xml version="1.0" encoding="UTF-8" standalone="no"?>
<svg
   xmlns:dc="http://purl.org/dc/elements/1.1/"
   xmlns:cc="http://creativecommons.org/ns#"
   xmlns:rdf="http://www.w3.org/1999/02/22-rdf-syntax-ns#"
   xmlns:svg="http://www.w3.org/2000/svg"
   xmlns="http://www.w3.org/2000/svg"
   id="svg8"
   version="1.1"
   viewBox="0 0 36.512502 27.498078"
   height="27.498077mm"
   width="36.512501mm">
  <defs
     id="defs2" />
  <metadata
     id="metadata5">
    <rdf:RDF>
      <cc:Work
         rdf:about="">
        <dc:format>image/svg+xml</dc:format>
        <dc:type
           rdf:resource="http://purl.org/dc/dcmitype/StillImage" />
        <dc:title></dc:title>
      </cc:Work>
    </rdf:RDF>
  </metadata>
  <g
     transform="translate(182.52413,-155.52688)"
     id="layer1">
    <path
       id="path21"
       d=""
       style="fill:#000000;stroke-width:0.26458335" />
    <path
       id="path3735"
       d="m -180.47361,182.73603 c -0.40018,-0.14616 -0.7276,-0.36092 -0.7276,-0.47724 0,-0.251 9.90814,-9.79858 10.16862,-9.79858 0.0985,0 0.85724,0.45543 1.686,1.01205 3.8547,2.58897 6.30272,2.58897 10.15742,0 0.82876,-0.55662 1.58746,-1.01205 1.686,-1.01205 0.25793,0 10.16862,9.5463 10.16862,9.79475 0,0.68732 -2.23048,0.78782 -17.03896,0.7677 -9.57926,-0.013 -15.6467,-0.12104 -16.1001,-0.28663 z m -2.05052,-10.79844 v -7.46192 l 0.76777,0.64604 c 0.42228,0.35532 2.45304,1.75356 4.5128,3.1072 l 3.74502,2.46117 -1.13936,1.17177 c -0.62664,0.64447 -2.6574,2.60409 -4.51279,4.35471 l -3.37344,3.18295 z m 31.90365,3.09151 -4.47657,-4.30217 3.41823,-2.2203 c 1.88003,-1.22117 3.92425,-2.62509 4.54271,-3.11982 l 1.12448,-0.89952 v 7.42604 c 0,4.08433 -0.0298,7.42423 -0.0661,7.422 -0.0364,-0.002 -2.0806,-1.94003 -4.54271,-4.30623 z m -15.89636,-2.78468 c -2.52949,-1.40607 -12.70712,-8.32041 -13.84631,-9.40673 -2.14443,-2.04489 -2.67042,-4.10571 -1.50277,-5.88778 0.93017,-1.41961 0.97239,-1.42303 17.57232,-1.42303 10.22137,0 15.58555,0.0941 16.08193,0.28221 2.65111,1.00448 2.89004,3.95896 0.52804,6.52945 -1.04996,1.14263 -12.30312,8.88247 -14.6703,10.09011 -1.46792,0.74888 -2.57218,0.70001 -4.16291,-0.18423 z"
       style="fill:#2a457a;stroke-width:0.26458332" />
  </g>
</svg>
