<?xml version="1.0" encoding="UTF-8" standalone="no"?>
<svg
   xmlns:dc="http://purl.org/dc/elements/1.1/"
   xmlns:cc="http://creativecommons.org/ns#"
   xmlns:rdf="http://www.w3.org/1999/02/22-rdf-syntax-ns#"
   xmlns:svg="http://www.w3.org/2000/svg"
   xmlns="http://www.w3.org/2000/svg"
   id="svg8"
   version="1.1"
   viewBox="0 0 20.88877 29.30713"
   height="29.307129mm"
   width="20.888769mm">
  <defs
     id="defs2" />
  <metadata
     id="metadata5">
    <rdf:RDF>
      <cc:Work
         rdf:about="">
        <dc:format>image/svg+xml</dc:format>
        <dc:type
           rdf:resource="http://purl.org/dc/dcmitype/StillImage" />
        <dc:title></dc:title>
      </cc:Work>
    </rdf:RDF>
  </metadata>
  <g
     transform="translate(151.94389,-148.44634)"
     id="layer1">
    <path
       id="path21"
       d=""
       style="fill:#000000;stroke-width:0.26458335" />
    <path
       id="path3748"
       d="m -146.15151,171.39991 c -5.19686,-7.43091 -5.78088,-8.64406 -5.7923,-12.03192 -0.0132,-3.92424 1.63875,-7.2711 4.54776,-9.21367 2.05945,-1.37524 3.29179,-1.72426 6.02875,-1.70741 2.9008,0.0179 4.74879,0.71688 6.7638,2.55849 3.53747,3.23305 4.59035,8.99889 2.42867,13.29995 -0.42558,0.84677 -8.4804,12.6209 -9.19759,13.44456 -0.10315,0.11847 -2.25374,-2.73903 -4.77909,-6.35 z m 6.61997,-9.5624 c 1.68445,-0.90337 2.3248,-3.10499 1.44336,-4.96248 -1.18407,-2.49524 -5.0491,-2.62597 -6.62292,-0.22401 -0.60748,0.92712 -0.60748,3.00446 0,3.93158 1.07962,1.64771 3.39924,2.20971 5.17956,1.25491 z"
       style="fill:#020202;stroke-width:0.26458332" />
  </g>
</svg>
