<?xml version="1.0" encoding="UTF-8" standalone="no"?>
<svg
   xmlns:dc="http://purl.org/dc/elements/1.1/"
   xmlns:cc="http://creativecommons.org/ns#"
   xmlns:rdf="http://www.w3.org/1999/02/22-rdf-syntax-ns#"
   xmlns:svg="http://www.w3.org/2000/svg"
   xmlns="http://www.w3.org/2000/svg"
   id="svg8"
   version="1.1"
   viewBox="0 0 25.82916 25.674872"
   height="25.674871mm"
   width="25.829159mm">
  <defs
     id="defs2" />
  <metadata
     id="metadata5">
    <rdf:RDF>
      <cc:Work
         rdf:about="">
        <dc:format>image/svg+xml</dc:format>
        <dc:type
           rdf:resource="http://purl.org/dc/dcmitype/StillImage" />
        <dc:title></dc:title>
      </cc:Work>
    </rdf:RDF>
  </metadata>
  <g
     transform="translate(155.36973,-150.35497)"
     id="layer1">
    <path
       id="path21"
       d=""
       style="fill:#000000;stroke-width:0.26458335" />
    <path
       id="path3761"
       d="m -146.52814,175.46572 c -8.80684,-3.02894 -11.73757,-14.02094 -5.56069,-20.85592 2.61719,-2.89604 5.69351,-4.25483 9.633,-4.25483 3.9395,0 7.01581,1.35879 9.63301,4.25483 6.19715,6.85742 3.22698,17.88535 -5.61978,20.86561 -2.20589,0.74311 -5.90964,0.73867 -8.08554,-0.01 z m 5.19679,-3.70961 c 0.64286,-0.77428 0.60716,-2.47158 -0.0661,-3.14489 -0.82621,-0.82621 -2.71117,-0.73364 -3.42038,0.16798 -0.61743,0.78493 -0.70547,2.11658 -0.18523,2.80152 0.83291,1.0966 2.8278,1.19189 3.67175,0.17539 z m -0.0661,-6.35692 c 0,-0.63288 0.23282,-1.0268 0.97735,-1.65365 3.23569,-2.72423 4.01721,-4.05726 3.62584,-6.18459 -0.28167,-1.5311 -1.98842,-3.09025 -3.80762,-3.47834 -2.19064,-0.46734 -5.36701,0.0642 -7.07612,1.184 l -0.60067,0.39357 0.66694,1.31615 c 0.36682,0.72388 0.75423,1.31226 0.86092,1.30751 0.10669,-0.005 0.84883,-0.23899 1.64919,-0.52053 1.775,-0.62439 3.12796,-0.66497 3.90988,-0.11729 1.15481,0.80886 0.56884,2.23561 -1.50978,3.6761 -0.59372,0.41145 -1.30261,1.11849 -1.57531,1.5712 -0.54654,0.90733 -0.94152,2.66915 -0.68972,3.07657 0.0884,0.14305 0.92762,0.26008 1.86492,0.26008 h 1.70418 z"
       style="fill:#2a457a;stroke-width:0.26458335" />
  </g>
</svg>
