<svg xmlns="http://www.w3.org/2000/svg" xmlns:xlink="http://www.w3.org/1999/xlink" width="12" height="11" viewBox="0 0 12 11"><defs><path id="a" d="M546.03 72.73c-.3-.32-.7-.32-1 0l-.71.7c-.07.07-.12.08-.2.04-.14-.09-.31-.15-.46-.25a7.4 7.4 0 0 1-1.76-1.6 4.29 4.29 0 0 1-.63-1.02c-.02-.07-.02-.11.04-.18.25-.22.47-.45.7-.69.33-.33.33-.7 0-1.03l-.56-.56c-.2-.2-.37-.39-.57-.57-.3-.3-.7-.3-1 0l-.71.7c-.23.22-.34.48-.37.78-.04.48.08.95.25 1.4a8.7 8.7 0 0 0 1.53 2.55 9.36 9.36 0 0 0 3.14 2.45c.55.26 1.1.47 1.7.51.44.03.8-.09 1.1-.42.2-.23.44-.43.64-.65.32-.32.32-.71 0-1.03l-1.13-1.13z"/></defs><g transform="translate(-537 -66)"><use fill="#2b467b" xlink:href="#a"/></g></svg>