<?xml version="1.0" encoding="UTF-8" standalone="no"?>
<!-- Created with Inkscape (http://www.inkscape.org/) -->

<svg
   xmlns:dc="http://purl.org/dc/elements/1.1/"
   xmlns:cc="http://creativecommons.org/ns#"
   xmlns:rdf="http://www.w3.org/1999/02/22-rdf-syntax-ns#"
   xmlns:svg="http://www.w3.org/2000/svg"
   xmlns="http://www.w3.org/2000/svg"
   xmlns:sodipodi="http://sodipodi.sourceforge.net/DTD/sodipodi-0.dtd"
   xmlns:inkscape="http://www.inkscape.org/namespaces/inkscape"
   width="62.476002mm"
   height="62.425362mm"
   viewBox="0 0 62.476005 62.425363"
   version="1.1"
   id="svg8"
   inkscape:version="0.92.1 r15371"
   sodipodi:docname="i-user.svg">
  <defs
     id="defs2" />
  <sodipodi:namedview
     id="base"
     pagecolor="#ffffff"
     bordercolor="#666666"
     borderopacity="1.0"
     inkscape:pageopacity="0.0"
     inkscape:pageshadow="2"
     inkscape:zoom="1.979899"
     inkscape:cx="104.89306"
     inkscape:cy="112.22375"
     inkscape:document-units="mm"
     inkscape:current-layer="layer1"
     showgrid="false"
     inkscape:window-width="1297"
     inkscape:window-height="735"
     inkscape:window-x="1445"
     inkscape:window-y="0"
     inkscape:window-maximized="0"
     fit-margin-top="0"
     fit-margin-left="0"
     fit-margin-right="0"
     fit-margin-bottom="0" />
  <metadata
     id="metadata5">
    <rdf:RDF>
      <cc:Work
         rdf:about="">
        <dc:format>image/svg+xml</dc:format>
        <dc:type
           rdf:resource="http://purl.org/dc/dcmitype/StillImage" />
        <dc:title></dc:title>
      </cc:Work>
    </rdf:RDF>
  </metadata>
  <g
     inkscape:label="Layer 1"
     inkscape:groupmode="layer"
     id="layer1"
     transform="translate(170.47877,-118.33745)">
    <path
       style="fill:#000000;stroke-width:0.26458335"
       d=""
       id="path21"
       inkscape:connector-curvature="0" />
    <path
       style="fill:#2a457a;stroke-width:0.26458332"
       d="m -168.25742,180.32568 c -1.60893,-0.79301 -2.03086,-1.73619 -2.13175,-4.76524 l -0.0896,-2.69172 1.08711,-1.86139 c 2.39184,-4.0954 5.50557,-7.22879 8.85117,-8.90707 1.73748,-0.87158 1.95212,-0.91372 4.65409,-0.91372 2.63199,0 2.94767,-0.0575 4.45723,-0.81183 2.98981,-1.49403 4.28073,-3.7344 4.28073,-7.42914 0,-1.98196 -0.0443,-2.13032 -1.15259,-3.85547 -0.63393,-0.9868 -1.48231,-2.62762 -1.88529,-3.64627 -0.40299,-1.01864 -1.06993,-2.23747 -1.48211,-2.7085 -1.32852,-1.51823 -1.55712,-3.55556 -0.60752,-5.4143 0.24617,-0.48184 0.36567,-1.68786 0.36702,-3.70416 0.004,-6.19688 0.7441,-9.27268 2.77378,-11.53018 3.30599,-3.67705 10.27192,-4.82413 16.14192,-2.65809 2.17498,0.80257 4.56376,3.16704 5.43303,5.37773 0.55245,1.40496 0.64106,2.16555 0.7706,6.61458 0.12372,4.2491 0.22388,5.16944 0.64719,5.94694 0.58482,1.07413 0.66787,3.28635 0.15964,4.25244 -0.18765,0.3567 -0.68091,1.03964 -1.09613,1.51764 -0.41523,0.47801 -0.75495,1.02009 -0.75495,1.20462 0,0.49204 -1.94415,4.35007 -2.88822,5.73149 -0.90006,1.31702 -0.99187,2.12618 -0.52672,4.64242 0.51381,2.77942 1.84987,4.54013 4.33857,5.7175 1.43599,0.67935 1.86181,0.75218 4.39863,0.75237 2.68968,2e-4 2.8885,0.0401 4.69102,0.94188 3.25839,1.63011 7.26077,5.8301 9.161,9.61332 0.65763,1.30927 0.70929,1.63635 0.62693,3.96875 -0.0747,2.11584 -0.18866,2.68054 -0.67986,3.36916 -1.27668,1.78981 0.59365,1.68691 -30.53842,1.68024 -25.37843,-0.005 -28.2233,-0.048 -29.00646,-0.434 z"
       id="path3787"
       inkscape:connector-curvature="0" />
  </g>
</svg>
