<svg xmlns="http://www.w3.org/2000/svg" xmlns:xlink="http://www.w3.org/1999/xlink" width="44" height="43" viewBox="0 0 44 43"><defs><path id="a" d="M764.8 5563c-11.26 0-20.42-8.97-20.42-20s9.16-20 20.43-20c11.26 0 20.42 8.97 20.42 20s-9.16 20-20.42 20zm0-38.46c-10.4 0-18.85 8.28-18.85 18.46 0 10.18 8.46 18.46 18.86 18.46 10.4 0 18.85-8.28 18.85-18.46 0-10.18-8.46-18.46-18.85-18.46zm3.12 10.79v2.44c0 .18-.14.33-.3.33h-1.33c-.92 0-1.09.37-1.09 1.11v1.54h2.32a.3.3 0 0 1 .22.1c.06.06.09.14.09.23v2.63c0 .18-.14.33-.31.33h-2.32v6.63c0 .18-.13.33-.3.33h-2.59a.32.32 0 0 1-.3-.33v-6.63h-1.98a.32.32 0 0 1-.31-.33v-2.63c0-.18.14-.33.3-.33H762v-1.81c0-2.4 1.43-3.94 3.64-3.94h1.97c.17 0 .31.15.31.33z"/></defs><g transform="translate(-743 -5521)"><use fill="#042e6f" xlink:href="#a"/></g></svg>