<?xml version="1.0" encoding="UTF-8"?>
<svg width="88px" height="34px" viewBox="0 0 88 34" version="1.1" xmlns="http://www.w3.org/2000/svg" xmlns:xlink="http://www.w3.org/1999/xlink">
    <!-- Generator: sketchtool 49.3 (51167) - http://www.bohemiancoding.com/sketch -->
    <title>EBDEA5AC-5C36-44DC-960C-5A6892588D57</title>
    <desc>Created with sketchtool.</desc>
    <defs></defs>
    <g id="Symbols" stroke="none" stroke-width="1" fill="none" fill-rule="evenodd">
        <g id="header" transform="translate(-68.000000, -66.000000)" fill="#FFFFFF" fill-rule="nonzero">
            <g id="aeg-seeklogo.com" transform="translate(68.000000, 66.000000)">
                <path d="M8.93828459,0.615382668 L10.9203349,5.68469966 L0,33.2155777 L4.33200629,33.2155777 L7.43020283,25.4038704 L18.6314387,25.4038704 L21.6865472,33.2155777 L30.4972248,33.2155777 L17.7489623,0.615382668 L8.93828459,0.615382668 Z M8.91674057,21.656407 L13.0705943,11.1835777 L17.1656164,21.656407 L8.91674057,21.656407 Z" id="A"></path>
                <polygon id="E" points="42.5071903 14.8298704 42.5071903 4.5403095 55.4261478 4.5403095 56.9831179 0.615382668 34.2583145 0.615382668 34.2583145 33.2155777 55.762566 33.2155777 57.3195362 29.2898216 42.5071903 29.2898216 42.5071903 18.6395289 52.8077201 18.6395289 54.3191164 14.8298704"></polygon>
                <path d="M74.1213899,18.6395289 L79.5579418,18.6395289 L79.5579418,29.671285 C78.907478,29.8495777 78.1625519,29.9548948 77.3737091,29.9540655 C70.0445975,29.9540655 67.9001384,23.155724 67.9001384,17.1418704 C67.9001384,11.3718216 69.7404953,4.5403095 76.8251651,4.5403095 L84.3763459,4.5403095 L85.9324874,0.615382668 L75.9393742,0.615382668 C66.2354481,0.615382668 59.3861053,7.32665088 59.3861053,17.1418704 C59.3861053,26.8360167 65.9644906,33.6683582 76.1655865,33.6683582 C81.2474906,33.6683582 84.5420692,32.6989436 87.2533019,31.7519192 L87.2533019,14.8298704 L75.6327862,14.8298704 L74.1213899,18.6395289 Z" id="G"></path>
            </g>
        </g>
    </g>
</svg>