<svg xmlns="http://www.w3.org/2000/svg" xmlns:xlink="http://www.w3.org/1999/xlink" width="67" height="64" viewBox="0 0 67 64"><defs><path id="oyu1a" d="M134.57 466.419v-6.835c4.793-.328 8.273-2.523 8.273-5.41v-2.207c4.855 1.009 20.177 4.968 21.212 14.452zm-8.272-12.239v-4.345a15.265 15.265 0 0 0 6.696 1.41h.63c2.31.044 4.6-.439 6.697-1.41v4.345c0 1.197-2.737 2.922-7.012 2.922-4.275 0-7.011-1.725-7.011-2.922zm5.76 12.2h-29.494c.997-9.47 16.4-13.43 21.219-14.451v2.257c0 2.863 3.482 5.044 8.275 5.41zm5.035-23.96a1.122 1.122 0 1 1-2.245 0 1.122 1.122 0 0 1 2.245 0zm-16.306-7.238l.05.012a1.26 1.26 0 0 0-.315-.845c-1.728-1.98-2.522-3.783-2.308-5.271a3.342 3.342 0 0 1 1.148-2.131c1.664 0 7.566-.316 11.35-3.582a28.437 28.437 0 0 0 13.998 3.784c.844 0 1.702 0 2.597-.14a3.329 3.329 0 0 1 1.135 2.069c.215 1.463-.58 3.291-2.307 5.271a1.26 1.26 0 0 0-.316.845v.656l-7.34 3.935a3.632 3.632 0 1 0 1.136 2.635 3.404 3.404 0 0 0 0-.34l5.788-3.103a13.873 13.873 0 0 1-3.38 6.659 11.236 11.236 0 0 1-8.36 3.127h-.631a11.262 11.262 0 0 1-8.348-3.114c-3.985-3.973-3.897-10.404-3.897-10.467zm25.612-10.58a25.979 25.979 0 0 1-15.07-3.784 1.261 1.261 0 0 0-1.639.164c-2.522 2.711-7.125 3.342-9.345 3.48.681-8.915 6.079-10.858 10.619-10.858a12.19 12.19 0 0 1 2.156.177c.167.034.338.034.505 0a12.251 12.251 0 0 1 2.156-.177c4.502 0 9.925 1.993 10.555 10.985zm-28.688 10.34a5.474 5.474 0 0 1-2.674-1.955l.063.013c-1.262-1.841-1.375-4.628-.253-8.31l.921-.619c.388-.258.6-.709.555-1.172a14.903 14.903 0 0 1 3.431-10.38c2.851-3.227 7.43-4.842 13.56-4.867 6.13-.025 10.71 1.64 13.611 4.868a14.903 14.903 0 0 1 3.431 10.379c-.046.463.168.914.555 1.172l.92.618c1.124 3.67 1.048 6.47-.251 8.31a5.5 5.5 0 0 1-2.687 1.956 8.397 8.397 0 0 0 2.056-6.306 5.902 5.902 0 0 0-2.031-3.53c-.542-12.612-9.385-14.024-13.194-14.024a15.903 15.903 0 0 0-2.41.176 15.882 15.882 0 0 0-2.409-.176c-3.784 0-12.614 1.387-13.194 14.023a5.901 5.901 0 0 0-2.056 3.519 8.385 8.385 0 0 0 2.056 6.305zm25.132 14.452v-1.16c.328-.265.643-.555.946-.858a17.239 17.239 0 0 0 4.363-9.61 8.475 8.475 0 0 0 5.473-3.253c1.829-2.585 1.993-6.305.467-10.971-.09-.27-.267-.5-.504-.656l-.694-.467a17.1 17.1 0 0 0-4.086-11.513c-3.392-3.821-8.6-5.75-15.499-5.776-6.885 0-12.106 1.955-15.498 5.725a17.1 17.1 0 0 0-4.086 11.514l-.694.467a1.261 1.261 0 0 0-.504.655c-1.526 4.692-1.362 8.387.466 10.972a8.5 8.5 0 0 0 5.473 3.291 17.252 17.252 0 0 0 4.376 9.622c.3.302.616.589.946.858v1.16c-4.83.933-24.112 5.46-23.784 18.324 0 .696.565 1.26 1.261 1.26h64.101c.697 0 1.261-.564 1.261-1.26.328-12.863-18.954-17.39-23.784-18.324z"/></defs><g><g transform="translate(-100 -405)"><use fill="#848e99" xlink:href="#oyu1a"/></g></g></svg>