<svg xmlns="http://www.w3.org/2000/svg" xmlns:xlink="http://www.w3.org/1999/xlink" width="74" height="64" viewBox="0 0 74 64"><defs><path id="pe4ka" d="M598.527 410.412h-2.825v-2.823h1.413c.778 0 1.412.634 1.412 1.412zm0 54.572c0 .781-.631 1.417-1.408 1.417h-66.228a1.413 1.413 0 0 1-1.408-1.417v-52.062h69.044zm-69.044-55.983c0-.778.634-1.411 1.412-1.411h1.413v2.822h-2.825zm5.298-1.412h2.824v2.823h-2.824zm5.297 0h2.815v2.823h-2.815zm5.298 0h47.843v2.823h-47.843zm51.734-2.499h-66.22c-2.145 0-3.89 1.756-3.89 3.915v55.98c0 2.159 1.745 3.915 3.89 3.915h66.22c2.145 0 3.89-1.756 3.89-3.915v-55.98c0-2.159-1.745-3.915-3.89-3.915z"/><path id="pe4kb" d="M594.463 415.76h-60.921c-.686 0-1.242.56-1.242 1.25s.556 1.25 1.242 1.25h60.921c.686 0 1.242-.56 1.242-1.25s-.556-1.25-1.242-1.25z"/><path id="pe4kc" d="M575.923 454.252c.776 0 1.407.635 1.407 1.416 0 .781-.631 1.417-1.407 1.417a1.413 1.413 0 0 1-1.407-1.417c0-.78.63-1.416 1.407-1.416zm-22.51 2.833a1.416 1.416 0 0 1 0-2.833 1.416 1.416 0 0 1 0 2.833zm5.707-7.08c.162 0 .325-.01.49-.031l16.795-2.113c1.943-.244 3.408-1.914 3.408-3.885v-10.975c0-.69-.556-1.25-1.241-1.25h-7.947c-.685 0-1.241.56-1.241 1.25s.555 1.25 1.241 1.25h6.705v9.725c0 .713-.53 1.317-1.233 1.405l-16.795 2.113a1.402 1.402 0 0 1-1.492-.908l-4.597-12.335h6.817c.686 0 1.242-.56 1.242-1.25s-.556-1.25-1.242-1.25h-7.748l-1.04-2.79a3.91 3.91 0 0 0-3.643-2.541h-2.137c-.686 0-1.242.56-1.242 1.25s.556 1.25 1.242 1.25h2.137c.583 0 1.113.369 1.318.918l6.567 17.626c.161.432.392.818.674 1.154l-1.918 3.217a3.875 3.875 0 0 0-.832-.09c-2.145 0-3.89 1.756-3.89 3.914 0 2.16 1.745 3.916 3.89 3.916 1.711 0 3.166-1.118 3.686-2.666h15.143c.519 1.548 1.975 2.666 3.686 2.666 2.145 0 3.89-1.757 3.89-3.916 0-2.158-1.745-3.915-3.89-3.915-1.711 0-3.167 1.118-3.686 2.666h-15.143a3.92 3.92 0 0 0-.726-1.287l1.914-3.211c.272.06.552.093.838.093z"/><path id="pe4kd" d="M570.176 437.445a1.236 1.236 0 0 0-1.756 0l-1.854 1.865V425c0-.69-.555-1.25-1.241-1.25s-1.242.56-1.242 1.25v14.31l-1.854-1.865a1.236 1.236 0 0 0-1.755 0 1.255 1.255 0 0 0 0 1.767l3.973 3.998a1.234 1.234 0 0 0 1.756 0l3.973-3.998a1.255 1.255 0 0 0 0-1.767z"/></defs><g><g transform="translate(-527 -405)"><use fill="#848e99" xlink:href="#pe4ka"/></g><g transform="translate(-527 -405)"><use fill="#848e99" xlink:href="#pe4kb"/></g><g transform="translate(-527 -405)"><use fill="#848e99" xlink:href="#pe4kc"/></g><g transform="translate(-527 -405)"><use fill="#848e99" xlink:href="#pe4kd"/></g></g></svg>