<svg xmlns="http://www.w3.org/2000/svg" xmlns:xlink="http://www.w3.org/1999/xlink" width="114" height="80" viewBox="0 0 114 80"><defs><path id="4k6ga" d="M443.06 2662.918h113.446v-79.778H443.06z"/><path id="4k6gb" d="M507.48 2625.233H491.14s-.629 0-.629-1.257c0 0 0-.628.315-.942l1.257-.628v-.628-14.134s.314-.628 0-.943c-.315 0-.943-.314-.943-.314s-.314-.628-.314-1.256c0 0 0-.314.628-.943h16.027s.314-.314.943.315c.628.628 2.2 2.513 2.514 3.14 0 0 .314 1.57-.943 1.885 0 0-.943 0-1.886-.628 0 0-.628-.943-1.57-1.57h-7.857v5.653h7.228s.314-.314.628-.314c0 0 .943-1.256 2.2-.942 0 0 1.257.314.314 2.198-1.57 2.2-1.885 2.513-1.885 2.827 0 0-.629.942-1.257.629 0 0-.943.313-1.257-.629 0 0 0-.314-.629-.314h-5.028v5.34h6.285s.943 0 1.571-.314c0 0 .943-.628 1.572-1.257 0 0 .942-.628 1.885-.628 0 0 .943.628.629 1.257 0 0 0 1.256-2.514 4.083 0 0-.629.314-.943.314"/><path id="4k6gc" d="M533.877 2622.402s-3.77 2.826-8.799 2.826c0 0-4.714.629-8.171-3.14 0 0-3.457-3.142-3.457-7.853 0 0 0-4.397 3.771-7.852 0 0 2.829-2.513 6.285-2.513 0 0 1.572 0 4.086.628 0 0 1.257.314 1.885 0 0 0 .943-.628 2.2.628 0 0 .943 1.257 1.257 3.456v1.256s-.314 1.884-2.2.314c0 0-2.2-2.513-3.457-2.827 0 0-2.514-.942-4.399.628 0 0-2.514 1.256-2.514 6.282 0 4.711 1.257 6.282 3.456 7.538 0 0 .943.629 2.83.315 0 0 .942 0 .942-1.257v-4.083s0-.628-.315-.628c0 0-.942-.314-.942-1.57 0-.943 1.257-.943 1.257-.943h6.913s.943 0 .943 1.256c0 0 0 .314-.628.943l-.315.314v.628s-.314.942 0 2.512v.943s.629.314.629.942c0 .628-.629 1.257-1.257 1.257"/><path id="4k6gd" d="M472.28 2618.013s1.886-5.032 2.2-5.346h.314l2.2 5.346h-4.714zm16.028 6.593c.314-.314.314-.628.314-.628 0-.943-1.257-1.256-1.257-1.256-.943-.314-1.257-.943-1.257-.943l-7.542-16.96c0-.314-.629-.629-.629-.629h-6.914s-.942 0-.942.942c0 .943.628.943.628.943 1.257.314 1.571.942 1.571.942.943 1.257.315 2.198.315 2.198s-4.714 10.68-5.343 11.936c-.628 1.257-1.57 1.57-1.885 1.57-.314.314-1.257.314-1.257 1.257 0 1.256.943.942.943.942h5.028c1.571 0 1.257-.942 1.257-.942 0-.943-.629-1.256-.629-1.256-.628 0-.314-.628-.314-.628l.314-.629h7.857l1.885 3.455h6.6s.628 0 1.257-.314z"/><path id="4k6ge" d="M468.195 2638.113c.312 0 .938 0 .938-.314 0-.629-.312-.629-.938-.629h-.626v.943h.626zm-.63 3.769h-1.885v-6.282h2.514c.629 0 1.257 0 1.886.314.628.314.942.942.942 1.57 0 .629-.314 1.257-.628 1.571-.629.314-1.257.628-1.886.628h-.942z"/><path id="4k6gf" d="M473.854 2638.735c0 .627 0 1.567.625 1.567.938 0 .938-.94.938-1.567 0-.626 0-1.879-.938-1.879-.625 0-.625 1.253-.625 1.88zm3.766.006c0 1.884-1.257 3.14-3.142 3.14-1.571 0-2.828-1.256-2.828-3.14 0-1.885 1.257-3.141 2.828-3.141 1.885 0 3.142 1.256 3.142 3.14z"/><path id="4k6gg" d="M484.85 2641.882h-1.572l-.943-3.455-.628 3.455h-1.886l-1.571-6.282h1.885l.943 3.455.629-3.455h1.571l.943 3.455.628-3.455h1.571l-1.57 6.282"/><path id="4k6gh" d="M492.08 2641.882h-4.4v-6.282h4.4v1.57h-2.514v.943h2.2v1.256h-2.2v.943h2.514v1.57"/><path id="4k6gi" d="M496.484 2638.103c.629 0 .943 0 .943-.623 0 0 0-.312-.314-.312 0-.312-.314-.312-.314-.312h-.943v1.247h.628zm.943 3.779l-.943-2.513h-.628v2.513h-1.886v-6.282h3.143c.628 0 1.257 0 1.571.314.629.314.629.942.629 1.57 0 .943-.315 1.257-.943 1.571l.943 2.827z"/><path id="4k6gj" d="M507.163 2641.882h-1.886v-4.712h-1.257v-1.57h4.4v1.57h-1.257v4.712"/><path id="4k6gk" d="M511.246 2638.735c0 .627 0 1.567.937 1.567.938 0 .938-.94.938-1.567 0-.626 0-1.879-.938-1.879-.937 0-.937 1.253-.937 1.88zm3.77.006c0 1.884-.942 3.14-2.828 3.14-1.885 0-2.828-1.256-2.828-3.14 0-1.885.943-3.141 2.828-3.141 1.886 0 2.829 1.256 2.829 3.14z"/><path id="4k6gl" d="M518.165 2638.735c0 .627 0 1.567.938 1.567s.938-.94.938-1.567c0-.626 0-1.879-.938-1.879s-.938 1.253-.938 1.88zm3.771.006c0 1.884-.943 3.14-2.828 3.14-1.886 0-2.828-1.256-2.828-3.14 0-1.885.942-3.141 2.828-3.141 1.885 0 2.828 1.256 2.828 3.14z"/><path id="4k6gm" d="M527.91 2641.882h-4.4v-6.282h1.886v4.712h2.514v1.57"/><path id="4k6gn" d="M530.421 2639.683c.314.629.628.629 1.257.629.314 0 .628 0 .628-.315 0-.314-.314-.314-.628-.314-1.257-.314-2.514-.628-2.514-2.198 0-.629.314-.943.628-1.571.63-.314 1.257-.314 1.886-.314.943 0 1.885.314 2.514 1.57l-1.57.315c-.316-.315-.63-.629-.944-.629-.314 0-.629.314-.629.629 0 .314.315.314.63.314.627 0 1.256.314 1.57.314.63.314.943.942.943 1.57 0 1.57-1.257 2.199-2.514 2.199-1.571 0-2.514-.629-2.828-1.885l1.571-.314"/></defs><g><g transform="translate(-443 -2583)"><g><use fill="#d83233" xlink:href="#4k6ga"/></g><g><use fill="#fffffe" xlink:href="#4k6gb"/></g><g><use fill="#fffffe" xlink:href="#4k6gc"/></g><g><use fill="#fffffe" xlink:href="#4k6gd"/></g><g><use fill="#fffffe" xlink:href="#4k6ge"/></g><g><use fill="#fffffe" xlink:href="#4k6gf"/></g><g><use fill="#fffffe" xlink:href="#4k6gg"/></g><g><use fill="#fffffe" xlink:href="#4k6gh"/></g><g><use fill="#fffffe" xlink:href="#4k6gi"/></g><g><use fill="#fffffe" xlink:href="#4k6gj"/></g><g><use fill="#fffffe" xlink:href="#4k6gk"/></g><g><use fill="#fffffe" xlink:href="#4k6gl"/></g><g><use fill="#fffffe" xlink:href="#4k6gm"/></g><g><use fill="#fffffe" xlink:href="#4k6gn"/></g></g></g></svg>