<svg xmlns="http://www.w3.org/2000/svg" xmlns:xlink="http://www.w3.org/1999/xlink" width="104" height="32" viewBox="0 0 104 32"><defs><path id="plx1a" d="M80.809 3450.092h-1.36v-5.923h1.295v-4.143h-1.327v-4.596h-4.855v4.596h-1.327v4.143h1.327v5.923H73.17v4.24h7.639z"/><path id="plx1b" d="M89.616 3450.127c-1.62 0-2.95-1.424-2.95-3.204 0-1.748 1.33-3.205 2.95-3.205s2.948 1.424 2.948 3.205c0 1.78-1.328 3.204-2.948 3.204zm9.03-5.956v-4.143H92.43v1.004c-1.133-.971-2.524-1.392-4.046-1.392-3.657 0-6.635 3.399-6.635 7.606 0 4.208 2.978 7.607 6.635 7.607 1.49 0 2.816-.518 3.95-1.457v1.003h6.31v-4.304H97.48v-5.924z"/><path id="plx1c" d="M38.376 3445.366c0-.777.26-1.586 1.425-1.586 1.197 0 1.456.809 1.424 1.586v8.933h4.887v-8.933c0-.81.26-1.586 1.424-1.586 1.165 0 1.424.809 1.424 1.586v8.933h6.377v-4.208H54.01v-5.923c0-3.237-1.683-4.758-4.046-4.758-1.65 0-3.043.647-4.143 1.877-.68-1.1-1.457-1.877-3.593-1.877-1.78.032-2.945.615-3.949 1.813v-1.198H32v4.175h1.36v5.891H32v4.24h6.344v-8.965z"/><path id="plx1d" d="M64.113 3443.064c1.392 0 2.525 1.1 2.525 2.46H61.62c0-1.328 1.294-2.46 2.492-2.46zm.065 11.91c4.078-.032 6.99-2.556 7.541-4.79h-5.114c-.615.712-1.748.907-2.46.842-1.424-.097-2.427-.81-2.46-2.654h10.293c.065-.421.13-.745.097-1.165-.032-4.079-3.075-7.8-7.897-7.736-4.985.097-7.898 3.657-7.898 7.768 0 4.92 3.787 7.768 7.898 7.736z"/><path id="plx1e" d="M32 3459.07v-.5h102.09v.5z"/><path id="plx1f" d="M133.664 3434.696h-.356v-.592h.421c.291 0 .356.099.356.263-.032.165-.097.296-.42.33zm.356.217c.292-.065.454-.26.454-.518 0-.518-.421-.615-.842-.615h-.712v2.233h.356v-.97h.291c.13 0 .227 0 .324.096.097.098.097.292.13.486 0 .13.064.259.064.388h.453a3.819 3.819 0 0 1-.13-.647c-.031-.259-.064-.42-.388-.453z"/><path id="plx1g" d="M133.695 3436.453c-.871 0-1.549-.71-1.549-1.548 0-.84.71-1.549 1.549-1.549.87 0 1.548.71 1.548 1.549a1.57 1.57 0 0 1-1.548 1.548zm.005-3.453c-1.068 0-1.91.842-1.91 1.877 0 1.068.842 1.91 1.91 1.91 1.035 0 1.877-.842 1.877-1.91A1.879 1.879 0 0 0 133.7 3433z"/><path id="plx1h" d="M109.423 3450.123c-1.619 0-2.946-1.424-2.946-3.172 0-1.747 1.327-3.172 2.946-3.172 1.618 0 2.945 1.425 2.945 3.172 0 1.748-1.327 3.172-2.945 3.172zm1.197-10.487c-1.52 0-2.913.421-4.045 1.392v-6.538h-6.215v4.11h1.165v11.459h-1.165v4.24h6.312v-1.004a6.007 6.007 0 0 0 3.948 1.457c3.658 0 6.636-3.399 6.636-7.574 0-4.143-2.978-7.542-6.636-7.542z"/><path id="plx1i" d="M42.1 3464.073h.68v-1.295h1.197v-.518H42.78v-.744h1.294v-.486H42.1z"/><path id="plx1j" d="M54.56 3464.07v-3.04h.65v3.04z"/><path id="plx1k" d="M49.284 3462.297c-.453-.097-.647-.162-.647-.453 0-.259.194-.42.485-.42.453 0 .486.355.486.452h.615c0-.097 0-.356-.162-.55-.227-.291-.615-.356-.906-.356-.842 0-1.198.453-1.198.939 0 .518.389.744 1.133.906.388.097.583.13.583.42 0 .26-.227.421-.583.421-.55 0-.55-.42-.55-.582h-.68c0 .291 0 1.036 1.165 1.036.842 0 1.295-.454 1.295-1.004.032-.55-.486-.68-1.036-.809z"/><path id="plx1l" d="M45.627 3462.745h1.295v-.485h-1.295v-.744h1.36v-.486H44.98v3.043h2.071v-.518h-1.424z"/><path id="plx1m" d="M52.584 3462.297c-.453-.097-.647-.162-.647-.453 0-.259.194-.42.485-.42.453 0 .486.355.486.452h.615c0-.097 0-.356-.162-.55-.227-.291-.615-.356-.906-.356-.842 0-1.198.453-1.198.939 0 .518.389.744 1.133.906.388.097.583.13.583.42 0 .26-.227.421-.583.421-.55 0-.55-.42-.55-.582h-.68c0 .291 0 1.036 1.165 1.036.842 0 1.295-.454 1.295-1.004s-.518-.68-1.036-.809z"/><path id="plx1n" d="M64.566 3462.917l.453-1.304.42 1.304zm.064-1.887l-1.1 3.043h.615l.227-.648h1.197l.227.648h.647l-1.068-3.043z"/><path id="plx1o" d="M58.19 3463.398c-.13.194-.292.29-.583.29-.292 0-.454-.129-.55-.258-.195-.227-.227-.55-.227-.842 0-.356.064-.68.226-.874a.691.691 0 0 1 .55-.258c.324 0 .583.161.68.55.065.194.065.388.065.55.032.453-.065.68-.162.842zm-.583-2.428c-1.101 0-1.457.81-1.457 1.618 0 .292.032.777.388 1.133.292.292.68.421 1.069.421.258 0 .744-.065 1.068-.42.259-.292.388-.745.388-1.198 0-.292-.065-.777-.388-1.133-.292-.356-.745-.421-1.068-.421z"/><path id="plx1p" d="M67.99 3461.03h-.68v3.043h1.974v-.518H67.99z"/><path id="plx1q" d="M62.134 3463.425L61 3461.03h-.971v3.043h.615v-2.525l1.198 2.525h.906v-3.043h-.615z"/><path id="plx1r" d="M40.257 3463.398c-.13.194-.292.29-.583.29s-.453-.129-.55-.258c-.194-.227-.227-.55-.227-.842 0-.356.065-.68.227-.874a.691.691 0 0 1 .55-.258c.324 0 .583.161.68.55.065.194.065.388.065.55.064.453-.065.68-.162.842zm-.55-2.428c-1.101 0-1.457.81-1.457 1.618 0 .292.032.777.388 1.133.292.292.68.421 1.069.421.258 0 .744-.065 1.068-.42.259-.292.388-.745.388-1.198 0-.292-.065-.777-.388-1.133-.324-.356-.745-.421-1.068-.421z"/><path id="plx1s" d="M72.716 3462.39h-.259v-.874h.324c.194 0 .55 0 .55.42-.032.453-.42.453-.615.453zm.033-1.36h-.939v3.043h.647v-1.198h.453c.162 0 .454 0 .68-.13a.982.982 0 0 0 .389-.809.896.896 0 0 0-.195-.582c-.226-.292-.615-.324-1.035-.324z"/><path id="plx1t" d="M36.561 3462.255c-.097.097-.259.097-.323.097h-.518v-.841h.453c.194 0 .324 0 .42.065.065.032.162.129.162.356-.032.194-.161.29-.194.323zm.745 1.004c-.065-.389-.097-.648-.55-.712.161-.033.647-.162.647-.745a.744.744 0 0 0-.26-.582c-.258-.227-.582-.227-.905-.195H35.04v3.043h.68v-1.23h.582c.097 0 .26 0 .324.162.032.13.13.874.162 1.068h.712c-.032-.065-.065-.097-.097-.227-.033-.064-.033-.226-.097-.582z"/><path id="plx1u" d="M32.906 3462.39h-.259v-.874h.324c.194 0 .55 0 .55.42 0 .453-.388.453-.615.453zm.033-1.36H32v3.043h.647v-1.198h.453c.162 0 .454 0 .68-.13a.982.982 0 0 0 .389-.809.896.896 0 0 0-.195-.582c-.226-.292-.582-.324-1.035-.324z"/><path id="plx1v" d="M122.5 3464.07v-3.04h.65v3.04z"/><path id="plx1w" d="M111.04 3463.398c-.13.194-.292.29-.583.29-.292 0-.454-.129-.55-.258-.195-.227-.227-.55-.227-.842 0-.356.064-.68.226-.874a.691.691 0 0 1 .55-.258c.324 0 .583.161.68.55.065.194.065.388.065.55.032.453-.065.68-.162.842zm-.583-2.428c-1.101 0-1.457.81-1.457 1.618 0 .292.032.777.388 1.133.292.292.68.421 1.069.421.258 0 .744-.065 1.068-.42.259-.292.388-.745.388-1.198 0-.292-.065-.777-.388-1.133-.292-.356-.745-.421-1.068-.421z"/><path id="plx1x" d="M126.117 3463.398c-.129.194-.29.29-.58.29-.291 0-.452-.129-.55-.258-.193-.227-.225-.55-.225-.842 0-.356.065-.68.226-.874a.688.688 0 0 1 .548-.258c.323 0 .581.161.678.55.065.194.065.388.065.55.032.453-.065.68-.162.842zm-.58-2.428c-1.101 0-1.457.81-1.457 1.618 0 .292.032.777.388 1.133.292.292.68.421 1.069.421.258 0 .744-.065 1.068-.42.259-.292.388-.745.388-1.198 0-.292-.065-.777-.388-1.133-.292-.356-.745-.421-1.068-.421z"/><path id="plx1y" d="M119.23 3461.548h.906v2.525h.68v-2.525h.906v-.518h-2.492z"/><path id="plx1z" d="M113.537 3461.03h-.647v3.043h1.974v-.518h-1.327z"/><path id="plx1A" d="M117.704 3462.845c0 .291-.032.42-.097.518-.162.259-.485.259-.582.259-.648 0-.648-.421-.648-.745v-1.845h-.647v1.813c0 .291 0 .518.162.744.291.453.841.518 1.133.518.615 0 1.327-.291 1.327-1.197V3461h-.648z"/><path id="plx1B" d="M130.074 3463.425l-1.165-2.395h-.939v3.043h.615v-2.525l1.198 2.525h.873v-3.043h-.582z"/><path id="plx1C" d="M76.788 3463.398c-.129.194-.29.29-.579.29-.29 0-.45-.129-.547-.258-.192-.227-.225-.55-.225-.842 0-.356.065-.68.225-.874a.685.685 0 0 1 .547-.258c.322 0 .579.161.675.55.065.194.065.388.065.55.032.453-.065.68-.161.842zm-.541-2.428c-1.101 0-1.457.81-1.457 1.618 0 .292.032.777.388 1.133.292.292.68.421 1.069.421.258 0 .744-.065 1.068-.42.259-.292.388-.745.388-1.198 0-.292-.065-.777-.388-1.133-.324-.356-.745-.421-1.068-.421z"/><path id="plx1D" d="M133.014 3462.297c-.42-.097-.647-.162-.647-.453 0-.259.194-.42.485-.42.453 0 .486.355.486.452h.615c0-.097 0-.356-.162-.55-.227-.291-.615-.356-.906-.356-.842 0-1.198.453-1.198.939 0 .518.389.744 1.133.906.388.097.583.13.583.42 0 .26-.227.421-.583.421-.55 0-.55-.42-.55-.582h-.68c0 .291 0 1.036 1.165 1.036.842 0 1.295-.454 1.295-1.004s-.518-.68-1.036-.809z"/><path id="plx1E" d="M83.947 3462.745h1.295v-.485h-1.295v-.744h1.36v-.486H83.3v3.043h2.071v-.518h-1.424z"/><path id="plx1F" d="M87.79 3462.255c-.095.097-.256.097-.32.097h-.513v-.841h.45c.191 0 .32 0 .416.065.064.032.16.129.16.356-.032.194-.16.29-.192.323zm.753 1.004c-.064-.389-.097-.648-.55-.712.162-.033.647-.162.647-.745a.744.744 0 0 0-.259-.582c-.258-.227-.582-.227-.906-.195H86.31v3.043h.68v-1.23h.582c.097 0 .26 0 .324.162.032.13.13.874.162 1.068h.712c-.032-.065-.065-.097-.097-.227-.033-.064-.065-.226-.13-.582z"/><path id="plx1G" d="M90.65 3461.548h.906v2.525h.68v-2.525h.906v-.518H90.65z"/><path id="plx1H" d="M81.36 3463.328l-.55-2.298h-.745l-.582 2.298-.486-2.298h-.647l.744 3.043h.713l.614-2.33.55 2.33h.713l.777-3.043h-.615z"/><path id="plx1I" d="M99.457 3463.398c-.13.194-.292.29-.583.29s-.453-.129-.55-.258c-.194-.227-.227-.55-.227-.842 0-.356.065-.68.227-.874a.691.691 0 0 1 .55-.258c.324 0 .583.161.68.55.065.194.065.388.065.55.064.453-.033.68-.162.842zm-.55-2.428c-1.101 0-1.457.81-1.457 1.618 0 .292.032.777.388 1.133.292.292.68.421 1.069.421.258 0 .744-.065 1.068-.42.259-.292.388-.745.388-1.198 0-.292-.065-.777-.388-1.133-.292-.356-.745-.421-1.068-.421z"/><path id="plx1J" d="M107.094 3462.297c-.42-.097-.647-.162-.647-.453 0-.259.194-.42.485-.42.453 0 .486.355.486.452h.615c0-.097 0-.356-.162-.55-.227-.291-.615-.356-.906-.356-.842 0-1.198.453-1.198.939 0 .518.389.744 1.133.906.388.097.583.13.583.42 0 .26-.227.421-.583.421-.55 0-.55-.42-.55-.582h-.68c0 .291 0 1.036 1.165 1.036.842 0 1.295-.454 1.295-1.004s-.518-.68-1.036-.809z"/><path id="plx1K" d="M101.977 3461.03h-.647v3.043h1.942v-.518h-1.295z"/><path id="plx1L" d="M95.686 3463.398c-.128.194-.289.29-.577.29a.634.634 0 0 1-.545-.258c-.192-.227-.224-.55-.224-.842 0-.356.064-.68.224-.874a.682.682 0 0 1 .545-.258c.32 0 .577.161.673.55.064.194.064.388.064.55.032.453-.064.68-.16.842zm-.54-2.428c-1.1 0-1.456.81-1.456 1.618 0 .292.032.777.388 1.133.292.292.68.421 1.069.421.258 0 .744-.065 1.068-.42.259-.292.388-.745.388-1.198 0-.292-.065-.777-.388-1.133-.324-.356-.745-.421-1.068-.421z"/><path id="plx1M" d="M126.122 3450.156c-1.65 0-2.977-1.424-2.977-3.204 0-1.78 1.327-3.205 2.977-3.205 1.651 0 2.978 1.424 2.978 3.205-.032 1.78-1.36 3.204-2.978 3.204zm-.032-10.746c-4.402 0-7.93 3.43-7.93 7.703 0 4.24 3.528 7.704 7.93 7.704 4.402 0 7.93-3.431 7.93-7.704 0-4.272-3.528-7.703-7.93-7.703z"/></defs><g><g transform="translate(-32 -3433)"><g><g><use fill="#007162" xlink:href="#plx1a"/></g><g><use fill="#007162" xlink:href="#plx1b"/></g><g><use fill="#007162" xlink:href="#plx1c"/></g><g><use fill="#007162" xlink:href="#plx1d"/></g><g><use fill="#007162" xlink:href="#plx1e"/></g><g><g><use fill="#007162" xlink:href="#plx1f"/></g><g><use fill="#007162" xlink:href="#plx1g"/></g></g></g><g><use fill="#007162" xlink:href="#plx1h"/></g><g><g><use fill="#007162" xlink:href="#plx1i"/></g><g><use fill="#007162" xlink:href="#plx1j"/></g><g><use fill="#007162" xlink:href="#plx1k"/></g><g><use fill="#007162" xlink:href="#plx1l"/></g><g><use fill="#007162" xlink:href="#plx1m"/></g><g><use fill="#007162" xlink:href="#plx1n"/></g><g><use fill="#007162" xlink:href="#plx1o"/></g><g><use fill="#007162" xlink:href="#plx1p"/></g><g><use fill="#007162" xlink:href="#plx1q"/></g><g><use fill="#007162" xlink:href="#plx1r"/></g><g><use fill="#007162" xlink:href="#plx1s"/></g><g><use fill="#007162" xlink:href="#plx1t"/></g><g><use fill="#007162" xlink:href="#plx1u"/></g><g><use fill="#007162" xlink:href="#plx1v"/></g><g><use fill="#007162" xlink:href="#plx1w"/></g><g><use fill="#007162" xlink:href="#plx1x"/></g><g><use fill="#007162" xlink:href="#plx1y"/></g><g><use fill="#007162" xlink:href="#plx1z"/></g><g><use fill="#007162" xlink:href="#plx1A"/></g><g><use fill="#007162" xlink:href="#plx1B"/></g><g><use fill="#007162" xlink:href="#plx1C"/></g><g><use fill="#007162" xlink:href="#plx1D"/></g><g><use fill="#007162" xlink:href="#plx1E"/></g><g><use fill="#007162" xlink:href="#plx1F"/></g><g><use fill="#007162" xlink:href="#plx1G"/></g><g><use fill="#007162" xlink:href="#plx1H"/></g><g><use fill="#007162" xlink:href="#plx1I"/></g><g><use fill="#007162" xlink:href="#plx1J"/></g><g><use fill="#007162" xlink:href="#plx1K"/></g><g><use fill="#007162" xlink:href="#plx1L"/></g></g><g><use fill="#007162" xlink:href="#plx1M"/></g></g></g></svg>