<svg xmlns="http://www.w3.org/2000/svg" xmlns:xlink="http://www.w3.org/1999/xlink" width="117" height="70" viewBox="0 0 117 70"><defs><path id="bwc3a" d="M937.03 2606.4v5.39h-9.71v3.24h7.71v5.4h-7.71v3.54h9.71v5.4H921v-22.97zm60.58-.16v5.4h-9.71v3.24h7.71v5.39h-7.71v3.55h9.71v5.39h-16.03v-22.97zm-43.16 17.58v5.39h-14.8v-22.97h6.32v17.58zm10.48-12.03v-5.39h14.8v5.39h-4.16v17.58h-6.32v-17.58zm61.51 8.48v8.94h-6.32v-22.97h6.32v8.64h5.24v-8.48h6.32v22.97h-6.32v-9.1zm-69.68 9.1v-22.97h6.32v22.97zm52.123-18.052c-2.413 0-3.234 3.532-3.234 6.951 0 3.419 1.033 6.143 3.234 6.143s3.028-3.735 3.028-3.735l5.714.406s-1.597 8.385-8.742 8.385c-7.145 0-9.683-5.515-9.683-11.446 0-5.932 2.146-11.912 9.683-11.912 7.536 0 8.742 8.947 8.742 8.947l-5.947.494s-.383-4.233-2.795-4.233z"/><path id="bwc3b" d="M929.02 2589h100.968l-9.786 13.57h-5.377l6.668-9.253h-83.996l6.668 9.253h-5.358zm50.484 70l-18.347-25.44h5.34l12.998 18.04 13-18.04h5.357z"/></defs><g><g transform="translate(-921 -2589)"><g><use fill="#e7302a" xlink:href="#bwc3a"/></g><g><use fill="#e7302a" xlink:href="#bwc3b"/></g></g></g></svg>