<?xml version="1.0" encoding="UTF-8"?>
<svg width="168px" height="41px" viewBox="0 0 168 41" version="1.1" xmlns="http://www.w3.org/2000/svg" xmlns:xlink="http://www.w3.org/1999/xlink">
    <!-- Generator: sketchtool 49.3 (51167) - http://www.bohemiancoding.com/sketch -->
    <title>E325672A-692A-4705-8FE6-B18C0F40328B</title>
    <desc>Created with sketchtool.</desc>
    <defs></defs>
    <g id="дизайн" stroke="none" stroke-width="1" fill="none" fill-rule="evenodd">
        <g id="Main_page_makita" transform="translate(-68.000000, -62.000000)">
            <g id="Makita-01" transform="translate(68.000000, 62.000000)">
                <path d="M61.2024,35.1257454 L65.3856,24.6007168 L60.0936,24.6007168 L55.8936,35.1257454 L61.2024,35.1257454 Z M147.9744,35.1257454 L152.1576,24.6007168 L146.8488,24.6007168 L142.6656,35.1257454 L147.9744,35.1257454 Z M121.4808,40.994536 C120.6912,40.6575894 118.4904,39.5274522 118.2048,37.2831145 L114.1224,41 L104.6136,40.994536 C103.6728,40.73363 101.9592,39.8857995 101.4216,37.1633618 L97.4904,40.989072 L89.1912,41 L85.6464,29.5019242 L81.2616,40.989072 L73.3152,40.989072 L74.8104,37.1310332 C71.6184,39.7879028 70.6272,40.711774 70.3416,41 L63.588,40.994536 C61.0512,39.8206868 60.8664,37.1037132 60.8664,37.1037132 C57.5736,39.7988308 56.5488,40.700846 56.2464,40.994536 L50.3496,40.989072 C48.1824,39.9727681 47.4936,37.2234658 47.4936,37.2234658 C44.2008,39.6522135 42.2856,40.989072 42.2856,40.989072 L31.584,40.989072 L37.9344,24.6007168 L32.2728,24.6007168 L26.1408,40.989072 L18.2448,40.989072 L25.4856,20.7699979 L20.3112,20.7699979 L12.6,40.989072 L4.704,40.989072 L13.776,16.9388238 L0,16.9388238 L0,10 L24.1416,10 L22.7808,14.0697688 L35.8512,14.0697688 L34.3728,18.2538263 L47.5608,18.2538263 L41.5128,34.8866955 L47.6784,34.8866955 L52.4832,22.9214477 C52.4832,22.9214477 54.3312,18.2538263 58.6488,18.2538263 L75.2976,18.2538263 L69.384,35.0064481 L75.5496,35.0064481 L85.0416,10 L92.5512,10 L86.7552,26.5135719 L95.3904,18.2538263 L104.3952,18.2538263 L93.5424,28.9040716 L95.1384,35.1257454 L101.808,35.0660968 L108.4608,18.134529 L115.9704,18.134529 L109.9392,35.0064481 L118.5744,35.0064481 L122.8752,23.6390529 L117.8184,23.6390529 L119.8008,18.134529 L124.6056,18.134529 L127.932,10 L135.6936,10 L132.7368,17.895479 L137.3064,17.895479 L135.4584,23.5193003 L130.5192,23.5193003 L126.4536,34.8866955 L135.0888,34.8866955 L139.1544,23.9974002 C139.1544,23.9974002 140.8848,18.3790429 145.9416,18.2538263 L162.204,18.2538263 L156.1728,34.8866955 L168,34.8866955 L168,40.989072 L152.2248,40.989072 C152.2248,40.989072 148.5288,40.5109721 147.9072,37.1633618 L144.0768,40.989072 L138.6672,40.989072 C138.6672,40.989072 135.2064,40.5109721 134.7192,37.1633618 L130.7712,40.994536 L121.4808,40.994536 Z" id="Fill-3" fill="#FFFFFE"></path>
                <polyline id="Fill-5" fill="#FFFFFE" points="109 16 111.275862 10 119 10 116.724138 16 109 16"></polyline>
                <g id="Group-4" transform="translate(156.000000, 0.000000)">
                    <path d="M6,12 C2.6862915,12 0,9.3137085 0,6 C0,2.6862915 2.6862915,0 6,0 C9.3137085,0 12,2.6862915 12,6 C12,9.3137085 9.3137085,12 6,12 Z M6,11 C8.76142375,11 11,8.76142375 11,6 C11,3.23857625 8.76142375,1 6,1 C3.23857625,1 1,3.23857625 1,6 C1,8.76142375 3.23857625,11 6,11 Z" id="Combined-Shape" fill="#FFF5F5"></path>
                    <path d="M8.644,9.003 L7.429,9.003 L6.097,6.762 L5.053,6.762 L5.053,9.003 L4,9.003 L4,3 L6.637,3 C7.22500294,3 7.6989982,3.17399826 8.059,3.522 C8.4190018,3.87000174 8.599,4.32299721 8.599,4.881 C8.599,5.38500252 8.46100138,5.78849848 8.185,6.0915 C7.90899862,6.39450151 7.57300198,6.57899967 7.177,6.645 L8.644,9.003 Z M6.493,5.835 C6.7930015,5.835 7.03899904,5.74800087 7.231,5.574 C7.42300096,5.39999913 7.519,5.16900144 7.519,4.881 C7.519,4.59299856 7.42300096,4.36200087 7.231,4.188 C7.03899904,4.01399913 6.7930015,3.927 6.493,3.927 L5.053,3.927 L5.053,5.835 L6.493,5.835 Z" id="R" fill="#FFFFFF"></path>
                </g>
            </g>
        </g>
    </g>
</svg>