<?xml version="1.0" encoding="UTF-8"?>
<svg width="62px" height="16px" viewBox="0 0 62 16" version="1.1" xmlns="http://www.w3.org/2000/svg" xmlns:xlink="http://www.w3.org/1999/xlink">
    <!-- Generator: sketchtool 49.3 (51167) - http://www.bohemiancoding.com/sketch -->
    <title>D255DA15-7E61-4EC8-8603-E874173FB8D1</title>
    <desc>Created with sketchtool.</desc>
    <defs></defs>
    <g id="Page-1" stroke="none" stroke-width="1" fill="none" fill-rule="evenodd">
        <g id="AEG-rioby" transform="translate(-194.000000, -188.000000)" fill="#FFFFFF">
            <g id="Ryobi" transform="translate(194.000000, 188.000000)">
                <path d="M9.08173913,9.14817391 C9.57495652,9.14817391 10.0410435,9.03026087 10.4532174,8.82052174 L10.453913,8.816 C11.9074783,8.07686957 12.898087,6.60556522 12.898087,4.91026087 C12.898087,2.78573913 11.3398261,1.01078261 9.26573913,0.592695652 L9.21217391,0.579478261 C9.00591304,0.54226087 8.57286957,0.476173913 8.35547826,0.476173913 L0.262608696,0.476173913 L0.262608696,3.65113043 L8.07478261,3.65113043 C8.15547826,3.65113043 8.29773913,3.66643478 8.43547826,3.67791304 C9.10365217,3.75478261 9.62295652,4.32243478 9.62295652,5.01113043 C9.62295652,5.69982609 9.10365217,6.26817391 8.43547826,6.34469565 C8.32069565,6.35582609 8.15026087,6.36834783 8.07617391,6.36834783 L1.74434783,6.36834783 L1.7453913,15.4841739 L5.13252174,15.4796522 L5.13252174,9.32208696 L5.15547826,9.32208696 L9.39930435,15.4796522 L13.418087,15.4796522 L9.03408696,9.14678261 L9.08173913,9.14817391" id="Fill-2"></path>
                <polygon id="Fill-3" points="54.2852174 15.4782609 57.6726957 15.4782609 57.6726957 0.560695652 54.2852174 0.560695652"></polygon>
                <polyline id="Fill-4" points="19.2633043 5.67095652 22.4271304 0.558608696 26.2806957 0.558608696 20.9530435 9.14295652 20.9530435 15.4789565 17.5641739 15.4789565 17.5641739 9.14295652 12.2431304 0.558608696 16.0963478 0.558608696 19.2633043 5.67095652"></polyline>
                <path d="M45.1474783,11.2041739 L45.144,9.32730435 L47.6650435,9.32730435 C47.8142609,9.32730435 48.0111304,9.34226087 48.1947826,9.36 C48.9634783,9.40104348 49.5735652,10.0382609 49.5735652,10.8173913 C49.5735652,11.5965217 48.9634783,12.2330435 48.1947826,12.2751304 C48.074087,12.2862609 47.8125217,12.2998261 47.6636522,12.2998261 L45.144,12.2998261 L45.1474783,11.2793043 L45.1474783,11.2041739 Z M41.7565217,11.2657391 L41.7565217,15.4810435 L47.4765217,15.4810435 C47.938087,15.477913 48.5537391,15.416 48.7405217,15.3916522 C51.1050435,15.0869565 52.930087,13.1464348 52.930087,10.7944348 C52.930087,10.0521739 52.7478261,9.35026087 52.4246957,8.72765217 L52.4170435,8.712 C52.1613913,8.22226087 51.7537391,7.82469565 51.2577391,7.58086957 L51.242087,7.58086957 C51.5735652,7.32904348 51.8427826,6.99930435 52.0226087,6.61878261 L52.0316522,6.60869565 C52.2598261,6.13947826 52.4316522,5.59165217 52.4316522,5.06017391 C52.4316522,2.6466087 50.8626087,0.964869565 48.5558261,0.657043478 C48.3951304,0.634086957 47.8991304,0.560695652 47.4862609,0.560695652 L40.7690435,0.560695652 L40.7690435,3.73252174 L47.6591304,3.73252174 C47.7457391,3.73252174 47.9422609,3.75478261 48.08,3.7666087 C48.7575652,3.83026087 49.2876522,4.40034783 49.2876522,5.09426087 C49.2876522,5.78817391 48.7575652,6.35895652 48.08,6.4226087 C47.9481739,6.43965217 47.7533913,6.45426087 47.661913,6.45426087 L41.7565217,6.45426087 L41.7565217,11.2657391 Z" id="Fill-5"></path>
                <path d="M24.6076522,8.01913043 C24.6076522,3.71095652 28.1001739,0.218434783 32.4083478,0.218434783 C36.7165217,0.218434783 40.2086957,3.71095652 40.2086957,8.01913043 C40.2086957,12.3273043 36.7165217,15.8198261 32.4083478,15.8198261 C28.1001739,15.8198261 24.6076522,12.3273043 24.6076522,8.01913043 Z M32.4083478,12.4215652 C34.8396522,12.4215652 36.8107826,10.4504348 36.8107826,8.01913043 C36.8107826,5.58782609 34.8396522,3.61669565 32.4083478,3.61669565 C29.9770435,3.61669565 28.005913,5.58782609 28.005913,8.01913043 C28.005913,10.4504348 29.9770435,12.4215652 32.4083478,12.4215652 Z" id="Fill-6"></path>
                <path d="M60.0424348,15.4667826 C60.7878261,15.4667826 61.3923478,14.8622609 61.3923478,14.1165217 C61.3923478,13.3711304 60.7878261,12.7669565 60.0424348,12.7669565 C59.2966957,12.7669565 58.6925217,13.3711304 58.6925217,14.1165217 C58.6925217,14.8622609 59.2966957,15.4667826 60.0424348,15.4667826" id="Fill-7"></path>
                <path d="M60.0546087,15.2372174 C60.6667826,15.2372174 61.1627826,14.7408696 61.1627826,14.1290435 C61.1627826,13.5168696 60.6667826,13.0205217 60.0546087,13.0205217 C59.4424348,13.0205217 58.946087,13.5168696 58.946087,14.1290435 C58.946087,14.7408696 59.4424348,15.2372174 60.0546087,15.2372174" id="Fill-8"></path>
                <path d="M60.4295652,14.1137391 C60.7481739,13.8956522 60.6737391,13.405913 60.210087,13.3450435 L59.4904348,13.3450435 L59.4904348,14.864 L59.7895652,14.864 L59.7895652,14.2782609 C59.7895652,14.2782609 59.8869565,14.2782609 60.0636522,14.2782609 C60.2713043,14.2782609 60.2646957,14.4361739 60.32,14.5467826 C60.338087,14.5833043 60.325913,14.869913 60.325913,14.869913 L60.6246957,14.869913 C60.6246957,14.869913 60.6246957,14.5408696 60.6246957,14.4003478 C60.6246957,14.330087 60.4907826,14.138087 60.4295652,14.1137391" id="Fill-9"></path>
            </g>
        </g>
    </g>
</svg>