<?xml version="1.0" encoding="UTF-8"?>
<svg width="74px" height="12px" viewBox="0 0 74 12" version="1.1" xmlns="http://www.w3.org/2000/svg" xmlns:xlink="http://www.w3.org/1999/xlink">
    <!-- Generator: sketchtool 49.3 (51167) - http://www.bohemiancoding.com/sketch -->
    <title>F2FA96DE-BAAE-4EFD-8F74-704AA1F287BF</title>
    <desc>Created with sketchtool.</desc>
    <defs></defs>
    <g id="Page-1" stroke="none" stroke-width="1" fill="none" fill-rule="evenodd">
        <g id="Dewalt-Stanley" transform="translate(-250.000000, -193.000000)" fill="#000000" fill-rule="nonzero">
            <g id="stanley-seeklogo.com" transform="translate(250.000000, 193.000000)">
                <g id="Group">
                    <path d="M5.673903,0.0529411765 C6.30623557,0.176470588 6.9556582,0.282352941 7.58799076,0.441176471 C8.25450346,0.6 8.15196305,0.511764706 8.08360277,1.18235294 C8.01524249,1.78235294 7.94688222,2.38235294 7.87852194,2.98235294 C7.22909931,2.80588235 6.61385681,2.55882353 5.96443418,2.47058824 C5.29792148,2.38235294 4.59722864,2.43529412 3.91362587,2.48823529 C3.52055427,2.52352941 3.21293303,2.78823529 3.14457275,3.24705882 C3.09330254,3.67058824 3.24711316,3.98823529 3.7256351,4.2 C4.30669746,4.46470588 4.90484988,4.62352941 5.48591224,4.85294118 C6.08406467,5.1 6.71639723,5.31176471 7.28036952,5.62941176 C9.29699769,6.75882353 9.02355658,9.98823529 7.29745958,11.0117647 C6.54549654,11.4705882 5.72517321,11.6823529 4.88775982,11.7705882 C3.38383372,11.9470588 1.91408776,11.7705882 0.461431871,11.4 C0.187990762,11.3294118 0.0854503464,11.2058824 0.119630485,10.9058824 C0.23926097,10.2 0.324711316,9.47647059 0.427251732,8.7 C0.563972286,8.77058824 0.683602771,8.82352941 0.803233256,8.87647059 C2.03371824,9.44117647 3.31547344,9.65294118 4.64849885,9.40588235 C4.81939954,9.37058824 5.0073903,9.3 5.16120092,9.21176471 C5.72517321,8.89411765 5.82771363,8.18823529 5.33210162,7.78235294 C5.0073903,7.51764706 4.59722864,7.34117647 4.18706697,7.18235294 C3.46928406,6.9 2.73441109,6.70588235 2.03371824,6.40588235 C1.09376443,6 0.393071594,5.32941176 0.170900693,4.25294118 C-0.205080831,2.29411765 0.769053118,0.811764706 2.78568129,0.3 C3.17875289,0.194117647 3.57182448,0.141176471 3.96489607,0.0529411765 C4.54595843,0.0529411765 5.10993072,0.0529411765 5.673903,0.0529411765 Z" id="Shape"></path>
                    <path d="M53.5773672,0.3 C56.2775982,0.3 58.960739,0.3 61.67806,0.3 C61.67806,0.988235294 61.67806,1.65882353 61.67806,2.32941176 C61.67806,2.61176471 61.4729792,2.52352941 61.3191686,2.52352941 C59.8836028,2.52352941 58.465127,2.52352941 57.0295612,2.52352941 C56.8928406,2.52352941 56.7561201,2.52352941 56.6023095,2.52352941 C56.6023095,3.28235294 56.6023095,4.00588235 56.6023095,4.76470588 C58.1233256,4.76470588 59.6443418,4.76470588 61.182448,4.76470588 C61.182448,5.54117647 61.182448,6.26470588 61.182448,7.04117647 C59.6614319,7.04117647 58.1404157,7.04117647 56.6023095,7.04117647 C56.6023095,7.81764706 56.6023095,8.55882353 56.6023095,9.37058824 C58.3113164,9.37058824 60.0545035,9.37058824 61.7976905,9.37058824 C61.7976905,10.1470588 61.7976905,10.8882353 61.7976905,11.6294118 C59.0461894,11.6294118 56.3117783,11.6294118 53.5602771,11.6294118 C53.5773672,7.85294118 53.5773672,4.09411765 53.5773672,0.3 Z" id="Shape"></path>
                    <path d="M29.7025404,11.6647059 C28.7113164,11.6647059 27.7542725,11.6647059 26.7972286,11.6470588 C26.7117783,11.6470588 26.5750577,11.5058824 26.5408776,11.4 C26.3357968,10.8176471 26.147806,10.2176471 25.9769053,9.63529412 C25.9256351,9.44117647 25.8230947,9.37058824 25.6351039,9.38823529 C24.4387991,9.38823529 23.2424942,9.38823529 22.0461894,9.38823529 C21.8411085,9.38823529 21.7727483,9.45882353 21.704388,9.65294118 C21.5163972,10.2529412 21.3284065,10.8352941 21.1233256,11.4176471 C21.0891455,11.5235294 20.9353349,11.6647059 20.8327945,11.6647059 C19.978291,11.6823529 19.1066975,11.6823529 18.2009238,11.6823529 C18.2351039,11.5588235 18.252194,11.4529412 18.2863741,11.3470588 C19.5510393,7.76470588 20.8157044,4.18235294 22.0803695,0.6 C22.1658199,0.370588235 22.2683603,0.282352941 22.4905312,0.3 C23.4475751,0.317647059 24.3875289,0.317647059 25.3445727,0.3 C25.5325635,0.3 25.6351039,0.335294118 25.7034642,0.529411765 C27.0023095,4.18235294 28.3182448,7.81764706 29.6341801,11.4705882 C29.6683603,11.5058824 29.6683603,11.5588235 29.7025404,11.6647059 Z M23.926097,2.85882353 C23.8919169,2.85882353 23.8748268,2.85882353 23.8406467,2.85882353 C23.3963048,4.30588235 22.934873,5.75294118 22.4905312,7.2 C23.4133949,7.2 24.3191686,7.2 25.2420323,7.2 C24.7976905,5.73529412 24.3533487,4.28823529 23.926097,2.85882353 Z" id="Shape"></path>
                    <path d="M41.3237875,11.6647059 C40.5376443,11.6647059 39.8027714,11.6823529 39.0849885,11.6470588 C38.965358,11.6470588 38.8115473,11.5058824 38.7090069,11.4 C37.2905312,9.6 35.8720554,7.78235294 34.4535797,5.96470588 C34.3681293,5.85882353 34.2997691,5.77058824 34.1630485,5.59411765 C34.1630485,7.65882353 34.1630485,9.63529412 34.1630485,11.6470588 C33.1889145,11.6470588 32.2660508,11.6470588 31.326097,11.6470588 C31.326097,7.87058824 31.326097,4.09411765 31.326097,0.3 C32.0951501,0.3 32.8471132,0.3 33.5819861,0.3 C33.6845266,0.3 33.804157,0.405882353 33.8725173,0.494117647 C36.3163972,3.58235294 38.7431871,6.67058824 41.1699769,9.77647059 C41.2383372,9.86470588 41.3066975,9.97058824 41.3066975,10.0764706 C41.3408776,10.5705882 41.3237875,11.1 41.3237875,11.6647059 Z" id="Shape"></path>
                    <path d="M66.9759815,11.6470588 C66.9759815,11.5058824 66.9588915,11.3647059 66.9588915,11.2235294 C66.9588915,10.0588235 66.9759815,8.91176471 66.9418014,7.74705882 C66.9418014,7.5 66.8734411,7.23529412 66.7538106,7.04117647 C65.5404157,4.90588235 64.3270208,2.78823529 63.1136259,0.670588235 C63.0452656,0.564705882 62.9939954,0.458823529 62.9256351,0.3 C64.0364896,0.3 65.0789838,0.3 66.1385681,0.317647059 C66.2411085,0.317647059 66.360739,0.476470588 66.4290993,0.6 C67.0443418,1.87058824 67.6424942,3.15882353 68.2577367,4.42941176 C68.3090069,4.53529412 68.3773672,4.65882353 68.4457275,4.81764706 C68.8387991,3.97058824 69.2147806,3.17647059 69.5907621,2.38235294 C69.8812933,1.78235294 70.1547344,1.16470588 70.4452656,0.564705882 C70.4965358,0.458823529 70.6503464,0.317647059 70.7528868,0.317647059 C71.7953811,0.3 72.8207852,0.3 73.9316397,0.3 C73.8461894,0.458823529 73.7949192,0.582352941 73.7265589,0.688235294 C72.5473441,2.75294118 71.3681293,4.83529412 70.1889145,6.9 C70.0009238,7.21764706 69.9154734,7.53529412 69.9154734,7.90588235 C69.9325635,9.01764706 69.9154734,10.1294118 69.9154734,11.2235294 C69.9154734,11.3647059 69.8983834,11.4882353 69.8983834,11.6470588 C68.9242494,11.6470588 67.9672055,11.6470588 66.9759815,11.6470588 Z" id="Shape"></path>
                    <path d="M15.551963,11.6470588 C14.560739,11.6470588 13.6036952,11.6470588 12.6124711,11.6470588 C12.6124711,8.64705882 12.6124711,5.64705882 12.6124711,2.61176471 C11.5357968,2.61176471 10.5274827,2.61176471 9.48498845,2.61176471 C9.48498845,1.83529412 9.48498845,1.07647059 9.48498845,0.317647059 C12.5441109,0.317647059 15.6032333,0.317647059 18.6794457,0.317647059 C18.6794457,1.05882353 18.6794457,1.8 18.6794457,2.59411765 C17.6540416,2.59411765 16.6286374,2.59411765 15.551963,2.59411765 C15.551963,5.62941176 15.551963,8.62941176 15.551963,11.6470588 Z" id="Shape"></path>
                    <path d="M51.7829099,9.3 C51.7829099,10.1117647 51.7829099,10.8529412 51.7829099,11.6294118 C49.1852194,11.6294118 46.6046189,11.6294118 43.9898383,11.6294118 C43.9898383,7.87058824 43.9898383,4.11176471 43.9898383,0.317647059 C44.9639723,0.317647059 45.9381062,0.317647059 46.9635104,0.317647059 C46.9635104,3.3 46.9635104,6.28235294 46.9635104,9.3 C48.604157,9.3 50.1764434,9.3 51.7829099,9.3 Z" id="Shape"></path>
                    <path d="M36.8290993,0.317647059 C38.3672055,0.317647059 39.8369515,0.317647059 41.3066975,0.317647059 C41.3066975,2.20588235 41.3066975,4.07647059 41.3066975,6.05294118 C39.7856813,4.09411765 38.3330254,2.22352941 36.8290993,0.317647059 Z" id="Shape"></path>
                </g>
            </g>
        </g>
    </g>
</svg>