<?xml version="1.0" encoding="UTF-8" standalone="no"?>
<!-- Generator: Adobe Illustrator 19.0.0, SVG Export Plug-In . SVG Version: 6.00 Build 0)  -->

<svg
   xmlns:dc="http://purl.org/dc/elements/1.1/"
   xmlns:cc="http://creativecommons.org/ns#"
   xmlns:rdf="http://www.w3.org/1999/02/22-rdf-syntax-ns#"
   xmlns:svg="http://www.w3.org/2000/svg"
   xmlns="http://www.w3.org/2000/svg"
   xmlns:sodipodi="http://sodipodi.sourceforge.net/DTD/sodipodi-0.dtd"
   xmlns:inkscape="http://www.inkscape.org/namespaces/inkscape"
   version="1.1"
   id="Layer_1"
   x="0px"
   y="0px"
   viewBox="0 0 512 512"
   style="enable-background:new 0 0 512 512;"
   xml:space="preserve"
   width="512px"
   height="512px"
   sodipodi:docname="clock.svg"
   inkscape:version="0.92.1 r15371"><metadata
     id="metadata51"><rdf:RDF><cc:Work
         rdf:about=""><dc:format>image/svg+xml</dc:format><dc:type
           rdf:resource="http://purl.org/dc/dcmitype/StillImage" /><dc:title></dc:title></cc:Work></rdf:RDF></metadata><defs
     id="defs49" /><sodipodi:namedview
     pagecolor="#ffffff"
     bordercolor="#666666"
     borderopacity="1"
     objecttolerance="10"
     gridtolerance="10"
     guidetolerance="10"
     inkscape:pageopacity="0"
     inkscape:pageshadow="2"
     inkscape:window-width="640"
     inkscape:window-height="480"
     id="namedview47"
     showgrid="false"
     inkscape:zoom="0.4609375"
     inkscape:cx="256"
     inkscape:cy="256"
     inkscape:window-x="0"
     inkscape:window-y="0"
     inkscape:window-maximized="0"
     inkscape:current-layer="Layer_1" /><g
     id="g14"><g
       id="g12"><g
         id="g10"><path
           d="M320,64c-105.865,0-192,86.135-192,192s86.135,192,192,192s192-86.135,192-192S425.865,64,320,64z M320,426.667     c-94.104,0-170.667-76.563-170.667-170.667S225.896,85.333,320,85.333S490.667,161.896,490.667,256S414.104,426.667,320,426.667z     "
           fill="#f78200"
           id="path2" /><path
           d="M21.333,256c0-40.365,14.448-79.583,40.677-110.427c3.813-4.479,3.271-11.219-1.219-15.031     c-4.458-3.802-11.219-3.292-15.031,1.219C16.25,166.448,0,210.573,0,256s16.25,89.552,45.76,124.24     c2.115,2.49,5.115,3.76,8.125,3.76c2.448,0,4.906-0.833,6.906-2.542c4.49-3.813,5.031-10.552,1.219-15.031     C35.781,335.583,21.333,296.365,21.333,256z"
           fill="#f78200"
           id="path4" /><path
           d="M85.333,256c0-40.365,14.448-79.583,40.677-110.427c3.813-4.479,3.271-11.219-1.219-15.031     c-4.469-3.802-11.229-3.292-15.031,1.219C80.25,166.448,64,210.573,64,256s16.25,89.552,45.76,124.24     c2.115,2.49,5.115,3.76,8.125,3.76c2.448,0,4.906-0.833,6.906-2.542c4.49-3.813,5.031-10.552,1.219-15.031     C99.781,335.583,85.333,296.365,85.333,256z"
           fill="#f78200"
           id="path6" /><path
           d="M340.281,261.198c0.441-1.707,1.052-3.355,1.052-5.198c0-7.792-4.409-14.329-10.667-18.053v-99.28     c0-5.896-4.771-10.667-10.667-10.667s-10.667,4.771-10.667,10.667v99.28c-6.258,3.724-10.667,10.262-10.667,18.053     c0,11.76,9.573,21.333,21.333,21.333c1.842,0,3.491-0.611,5.198-1.052l51.26,51.26c2.083,2.083,4.813,3.125,7.542,3.125     c2.729,0,5.458-1.042,7.542-3.125c4.167-4.167,4.167-10.917,0-15.083L340.281,261.198z"
           fill="#f78200"
           id="path8" /></g></g></g><g
     id="g16" /><g
     id="g18" /><g
     id="g20" /><g
     id="g22" /><g
     id="g24" /><g
     id="g26" /><g
     id="g28" /><g
     id="g30" /><g
     id="g32" /><g
     id="g34" /><g
     id="g36" /><g
     id="g38" /><g
     id="g40" /><g
     id="g42" /><g
     id="g44" /></svg>