<?xml version="1.0" encoding="UTF-8" standalone="no"?>
<!-- Generator: Adobe Illustrator 16.0.0, SVG Export Plug-In . SVG Version: 6.00 Build 0)  -->

<svg
   xmlns:dc="http://purl.org/dc/elements/1.1/"
   xmlns:cc="http://creativecommons.org/ns#"
   xmlns:rdf="http://www.w3.org/1999/02/22-rdf-syntax-ns#"
   xmlns:svg="http://www.w3.org/2000/svg"
   xmlns="http://www.w3.org/2000/svg"
   xmlns:sodipodi="http://sodipodi.sourceforge.net/DTD/sodipodi-0.dtd"
   xmlns:inkscape="http://www.inkscape.org/namespaces/inkscape"
   version="1.1"
   id="Capa_1"
   x="0px"
   y="0px"
   width="512px"
   height="512px"
   viewBox="0 0 46.164 46.164"
   style="enable-background:new 0 0 46.164 46.164;"
   xml:space="preserve"
   sodipodi:docname="prod-i-3.svg"
   inkscape:version="0.92.1 r15371"><metadata
     id="metadata41"><rdf:RDF><cc:Work
         rdf:about=""><dc:format>image/svg+xml</dc:format><dc:type
           rdf:resource="http://purl.org/dc/dcmitype/StillImage" /><dc:title></dc:title></cc:Work></rdf:RDF></metadata><defs
     id="defs39" /><sodipodi:namedview
     pagecolor="#ffffff"
     bordercolor="#666666"
     borderopacity="1"
     objecttolerance="10"
     gridtolerance="10"
     guidetolerance="10"
     inkscape:pageopacity="0"
     inkscape:pageshadow="2"
     inkscape:window-width="640"
     inkscape:window-height="480"
     id="namedview37"
     showgrid="false"
     inkscape:zoom="0.4609375"
     inkscape:cx="256"
     inkscape:cy="256"
     inkscape:window-x="0"
     inkscape:window-y="0"
     inkscape:window-maximized="0"
     inkscape:current-layer="Capa_1" /><g
     id="g4"><path
       d="M45.153,40.657l-4.03-24.075c-0.379-2.27-2.345-3.929-4.646-3.929h-6.055c0.71-1.237,1.116-2.67,1.116-4.196   C31.538,3.794,27.745,0,23.081,0c-4.663,0-8.457,3.794-8.457,8.457c0,1.526,0.406,2.959,1.116,4.196H9.685   c-2.302,0-4.267,1.661-4.646,3.931L1.01,40.662c-0.229,1.365,0.156,2.77,1.051,3.826c0.896,1.057,2.21,1.676,3.596,1.676h34.852   c1.386,0,2.7-0.619,3.596-1.676C44.999,43.43,45.383,42.023,45.153,40.657z M23.082,4.927c1.946,0,3.53,1.584,3.53,3.531   c0,1.947-1.584,3.53-3.53,3.53c-1.947,0-3.531-1.584-3.531-3.531S21.135,4.927,23.082,4.927z"
       fill="#f78200"
       id="path2" /></g><g
     id="g6" /><g
     id="g8" /><g
     id="g10" /><g
     id="g12" /><g
     id="g14" /><g
     id="g16" /><g
     id="g18" /><g
     id="g20" /><g
     id="g22" /><g
     id="g24" /><g
     id="g26" /><g
     id="g28" /><g
     id="g30" /><g
     id="g32" /><g
     id="g34" /></svg>