<?xml version="1.0" encoding="UTF-8" standalone="no"?>
<!-- Generator: Adobe Illustrator 21.0.0, SVG Export Plug-In . SVG Version: 6.00 Build 0)  -->

<svg
   xmlns:dc="http://purl.org/dc/elements/1.1/"
   xmlns:cc="http://creativecommons.org/ns#"
   xmlns:rdf="http://www.w3.org/1999/02/22-rdf-syntax-ns#"
   xmlns:svg="http://www.w3.org/2000/svg"
   xmlns="http://www.w3.org/2000/svg"
   xmlns:sodipodi="http://sodipodi.sourceforge.net/DTD/sodipodi-0.dtd"
   xmlns:inkscape="http://www.inkscape.org/namespaces/inkscape"
   version="1.1"
   id="Layer_1"
   x="0px"
   y="0px"
   viewBox="0 0 512 512"
   style="enable-background:new 0 0 512 512;"
   xml:space="preserve"
   sodipodi:docname="tel.svg"
   inkscape:version="0.92.1 r15371"><metadata
     id="metadata33"><rdf:RDF><cc:Work
         rdf:about=""><dc:format>image/svg+xml</dc:format><dc:type
           rdf:resource="http://purl.org/dc/dcmitype/StillImage" /><dc:title></dc:title></cc:Work></rdf:RDF></metadata><defs
     id="defs31" /><sodipodi:namedview
     pagecolor="#ffffff"
     bordercolor="#666666"
     borderopacity="1"
     objecttolerance="10"
     gridtolerance="10"
     guidetolerance="10"
     inkscape:pageopacity="0"
     inkscape:pageshadow="2"
     inkscape:window-width="640"
     inkscape:window-height="480"
     id="namedview29"
     showgrid="false"
     inkscape:zoom="0.4609375"
     inkscape:cx="256"
     inkscape:cy="256"
     inkscape:window-x="0"
     inkscape:window-y="0"
     inkscape:window-maximized="0"
     inkscape:current-layer="Layer_1" /><style
     type="text/css"
     id="style2">
	.st0{fill:#F78200;stroke:#F78200;stroke-width:2;stroke-miterlimit:10;}
</style><g
     id="g8"><g
       id="g6"><path
         class="st0"
         d="M505.4,405.8L399.6,300.1c-8.9-8.9-23.2-8.9-32.1,0l-45.7,45.7c-4.3,4.3-6.7,10-6.7,16.1    c0,11.5,6.7,16.1,18.5,27.9L315.4,408c-6.8,6.8-17.9,6.8-24.7,0L157.6,274.9c-2.9-2.9-7.7-2.9-10.6,0c-2.9,2.9-2.9,7.7,0,10.6    l133.1,133.1c12.7,12.7,33.2,12.7,45.9,0l18.3-18.3c4.2,4.2,45.5,45.5,61.1,61.1c-48.4,48.3-123.4,45.3-168.4,0.4L49.8,274.6    C4.3,229.1,2.5,153.8,50.1,106.2l61.1,61.1l-18.3,18.3c-12.7,12.7-12.7,33.2,0,45.9l33.3,33.3c2.9,2.9,7.7,2.9,10.6,0    c2.9-2.9,2.9-7.7,0-10.6l-33.3-33.3c-6.8-6.8-6.8-17.9,0-24.7l18.3-18.3l12.7,12.7c8.9,8.9,23.2,8.9,32.1,0    c48.8-48.8,12.7-12.7,45.7-45.7c8.9-8.9,8.9-23.2,0-32.1L106.6,7.1c-8.9-8.9-23.2-8.9-32.1,0c-9.7,9.7-37.7,37.7-45.7,45.7    c-4.3,4.3-6.6,10-6.6,16.1c0,11.5,6.8,16.2,17.4,26.8c-53.2,53.2-52.1,137.9-0.4,189.6l187.2,187.2    c51.1,51.1,135.7,53.5,189.6-0.4c11.5,11.5,16.1,18.2,27.7,18.2c6.1,0,11.8-2.4,16.1-6.7l45.7-45.7    C514.2,429.1,514.2,414.7,505.4,405.8z M90.6,15.4c2.1,0,4,0.8,5.4,2.3C210.1,131.8,202.9,124,203.7,126.6    c0.4,1.2,0.4,2.5,0.2,3.8c-0.6,2.9-1.2,3-12.9,14.8L74.3,28.5C85.8,17,86.5,15.4,90.6,15.4z M39.4,74.3c-3-3-3-7.9,0-10.9    l24.3-24.3l116.6,116.6c-26.2,26.2-25.5,26.5-29.7,26.5C146,182.3,153.5,188.4,39.4,74.3z M443.6,475.3c-2.1,0-4-0.8-5.4-2.3    c-115.3-115.3-108-106.6-108-111.2c0-4.2,0.4-3.6,26.5-29.7l116.6,116.6C447.2,474.9,447.9,475.3,443.6,475.3z M494.7,427.3    l-10.8,10.8L367.3,321.5c11.7-11.7,12-12.7,15.5-13c2.3-0.2,4.5,0.5,6.2,2.2c113.9,113.9,106.9,106.3,107.7,109    C497.5,422.3,496.8,425.3,494.7,427.3z"
         id="path4" /></g></g><g
     id="g14"><g
       id="g12"><path
         class="st0"
         d="M283.1,173c-4.1,0-7.5,3.4-7.5,7.5s3.4,7.5,7.5,7.5c22.9,0,41.5,18.6,41.5,41.5c0,4.1,3.4,7.5,7.5,7.5    s7.5-3.4,7.5-7.5C339.6,198.4,314.3,173,283.1,173z"
         id="path10" /></g></g><g
     id="g20"><g
       id="g18"><path
         class="st0"
         d="M283.1,97.3c-4.1,0-7.5,3.4-7.5,7.5c0,4.1,3.4,7.5,7.5,7.5c64.7,0,117.2,52.6,117.2,117.2    c0,4.1,3.4,7.5,7.5,7.5s7.5-3.4,7.5-7.5C415.4,156.6,356.1,97.3,283.1,97.3z"
         id="path16" /></g></g><g
     id="g26"><g
       id="g24"><path
         class="st0"
         d="M283.1,20.9c-4.1,0-7.5,3.4-7.5,7.5s3.4,7.5,7.5,7.5c106.8,0,193.6,86.9,193.6,193.6c0,4.1,3.4,7.5,7.5,7.5    s7.5-3.4,7.5-7.5C491.8,114.5,398.2,20.9,283.1,20.9z"
         id="path22" /></g></g></svg>