<svg id="Layer_14" data-name="Layer 14" xmlns="http://www.w3.org/2000/svg" xmlns:xlink="http://www.w3.org/1999/xlink" viewBox="0 0 22 22"><defs><style>.cls-1{clip-path:url(#clip-path);}.cls-2{isolation:isolate;}.cls-3{clip-path:url(#clip-path-2);}.cls-4{clip-path:url(#clip-path-3);}.cls-5{fill-rule:evenodd;}</style><clipPath id="clip-path"><path d="M-8.78,2.5A5.8,5.8,0,0,0-12.66,4l-.34.31L-13.34,4A5.8,5.8,0,0,0-17.22,2.5,5.16,5.16,0,0,0-22.5,7.65c0,3.06,1.69,5.08,8.1,10.62l1.31,1.19a.13.13,0,0,0,.09,0,.13.13,0,0,0,.09,0l1.77-1.6C-5,12.35-3.5,10.49-3.5,7.65A5.16,5.16,0,0,0-8.78,2.5Zm0-1h0A6.16,6.16,0,0,1-2.5,7.65c0,3.26-1.59,5.21-8,11l-1.77,1.6a1.13,1.13,0,0,1-.76.29,1.13,1.13,0,0,1-.76-.29L-15.06,19c-6.65-5.75-8.44-7.88-8.44-11.37A6.16,6.16,0,0,1-17.22,1.5,6.81,6.81,0,0,1-13,3,6.81,6.81,0,0,1-8.78,1.5Z"/></clipPath><clipPath id="clip-path-2"><rect x="-29" y="-4" width="32" height="30"/></clipPath><clipPath id="clip-path-3"><rect x="-24" y="1" width="22" height="20"/></clipPath></defs><title>_</title><path d="M-8.78,2.5A5.8,5.8,0,0,0-12.66,4l-.34.31L-13.34,4A5.8,5.8,0,0,0-17.22,2.5,5.16,5.16,0,0,0-22.5,7.65c0,3.06,1.69,5.08,8.1,10.62l1.31,1.19a.13.13,0,0,0,.09,0,.13.13,0,0,0,.09,0l1.77-1.6C-5,12.35-3.5,10.49-3.5,7.65A5.16,5.16,0,0,0-8.78,2.5Zm0-1h0A6.16,6.16,0,0,1-2.5,7.65c0,3.26-1.59,5.21-8,11l-1.77,1.6a1.13,1.13,0,0,1-.76.29,1.13,1.13,0,0,1-.76-.29L-15.06,19c-6.65-5.75-8.44-7.88-8.44-11.37A6.16,6.16,0,0,1-17.22,1.5,6.81,6.81,0,0,1-13,3,6.81,6.81,0,0,1-8.78,1.5Z"/><g class="cls-1"><g class="cls-2"><rect x="-29" y="-4" width="32" height="30"/><g class="cls-3"><rect x="-24" y="1" width="22" height="20"/><g class="cls-4"><rect x="-28.5" y="-3.5" width="31" height="29"/></g></g></g></g><polygon class="cls-5" points="17 7.5 17.5 8 11 14.5 4.5 8 5 7.5 11 13.5 17 7.5"/></svg>