<svg width="88" height="88" viewBox="0 0 88 88" fill="none" xmlns="http://www.w3.org/2000/svg">
<path fill-rule="evenodd" clip-rule="evenodd" d="M2.625 0L2.29688 7.58594H0.34375L0 0H2.625ZM1.28125 8.42188C1.6875 8.42188 2.01823 8.55208 2.27344 8.8125C2.52865 9.07292 2.65625 9.38281 2.65625 9.74219C2.65625 10.112 2.52734 10.4258 2.26953 10.6836C2.01172 10.9414 1.70313 11.0703 1.34375 11.0703C0.979165 11.0703 0.66797 10.9414 0.410156 10.6836C0.152342 10.4258 0.0234375 10.1146 0.0234375 9.75C0.0234375 9.375 0.156249 9.0599 0.421875 8.80469C0.687501 8.54948 0.973957 8.42188 1.28125 8.42188Z" transform="translate(40 20) scale(4)" fill="#4A4A4A"/>
<mask id="mask0" mask-type="alpha" maskUnits="userSpaceOnUse" x="40" y="20" width="11" height="45">
<path fill-rule="evenodd" clip-rule="evenodd" d="M2.625 0L2.29688 7.58594H0.34375L0 0H2.625ZM1.28125 8.42188C1.6875 8.42188 2.01823 8.55208 2.27344 8.8125C2.52865 9.07292 2.65625 9.38281 2.65625 9.74219C2.65625 10.112 2.52734 10.4258 2.26953 10.6836C2.01172 10.9414 1.70313 11.0703 1.34375 11.0703C0.979165 11.0703 0.66797 10.9414 0.410156 10.6836C0.152342 10.4258 0.0234375 10.1146 0.0234375 9.75C0.0234375 9.375 0.156249 9.0599 0.421875 8.80469C0.687501 8.54948 0.973957 8.42188 1.28125 8.42188Z" transform="translate(40 20) scale(4)" fill="white"/>
</mask>
<g mask="url(#mask0)">
<path fill-rule="evenodd" clip-rule="evenodd" d="M0 0H22V22H0V0Z" transform="scale(4)" fill="#CE0000"/>
</g>
</svg>
