<?xml version="1.0" encoding="UTF-8" standalone="no"?>
<svg
   xmlns:dc="http://purl.org/dc/elements/1.1/"
   xmlns:cc="http://creativecommons.org/ns#"
   xmlns:rdf="http://www.w3.org/1999/02/22-rdf-syntax-ns#"
   xmlns:svg="http://www.w3.org/2000/svg"
   xmlns="http://www.w3.org/2000/svg"
   id="svg8"
   version="1.1"
   viewBox="0 0 78.09594 78.263199"
   height="78.263199mm"
   width="78.09594mm">
  <defs
     id="defs2" />
  <metadata
     id="metadata5">
    <rdf:RDF>
      <cc:Work
         rdf:about="">
        <dc:format>image/svg+xml</dc:format>
        <dc:type
           rdf:resource="http://purl.org/dc/dcmitype/StillImage" />
        <dc:title></dc:title>
      </cc:Work>
    </rdf:RDF>
  </metadata>
  <g
     transform="translate(-55.424143,-101.36412)"
     id="layer1">
    <path
       id="path21"
       d="m 85.95569,179.48311 c -0.54875,-0.0573 -0.92868,-0.21584 -0.84428,-0.35239 0.0857,-0.13866 -0.30825,-0.24828 -0.89219,-0.24828 -0.685389,0 -1.098118,-0.13674 -1.197943,-0.39688 -0.09559,-0.2491 -0.500186,-0.39687 -1.086641,-0.39687 -0.513888,0 -0.934344,-0.11907 -0.934344,-0.26459 0,-0.14552 -0.364214,-0.26458 -0.809365,-0.26458 -0.472202,0 -0.741245,-0.11022 -0.645843,-0.26458 0.09491,-0.15357 -0.164206,-0.26459 -0.617536,-0.26459 -0.450198,0 -0.845571,-0.16812 -0.933353,-0.39687 -0.08376,-0.21828 -0.394157,-0.39688 -0.689766,-0.39688 -0.295608,0 -0.53747,-0.11906 -0.53747,-0.26458 0,-0.14552 -0.238125,-0.26458 -0.529167,-0.26458 -0.291042,0 -0.529167,-0.11907 -0.529167,-0.26459 0,-0.14552 -0.304683,-0.26458 -0.677073,-0.26458 -0.37239,0 -0.608786,-0.11049 -0.525324,-0.24553 0.08346,-0.13505 -0.08811,-0.32167 -0.38126,-0.41471 -0.293155,-0.093 -0.533009,-0.28021 -0.533009,-0.41592 0,-0.13572 -0.238125,-0.24676 -0.529167,-0.24676 -0.291041,0 -0.529166,-0.11906 -0.529166,-0.26458 0,-0.14552 -0.119063,-0.26458 -0.264584,-0.26458 -0.145521,0 -0.484815,-0.20836 -0.753987,-0.46302 -0.752951,-0.71237 -1.617771,-1.38907 -1.775212,-1.38907 -0.07805,0 -0.41776,-0.29765 -0.75492,-0.66146 -0.337161,-0.3638 -0.694075,-0.66145 -0.793143,-0.66145 -0.286427,0 -1.478988,-1.27037 -1.478988,-1.57548 0,-0.15213 -0.0893,-0.27675 -0.198437,-0.27693 -0.262343,-5.3e-4 -1.653646,-1.20217 -1.653646,-1.42834 0,-0.0971 -0.416719,-0.5932 -0.926042,-1.10252 -0.509323,-0.50932 -0.926187,-1.01137 -0.926364,-1.11566 -1.78e-4,-0.10429 -0.297835,-0.53556 -0.661459,-0.95837 -0.363624,-0.42282 -0.661135,-0.8851 -0.661135,-1.0273 0,-0.1422 -0.221094,-0.4511 -0.491319,-0.68645 -0.270225,-0.23535 -0.575905,-0.6958 -0.679288,-1.02322 -0.103383,-0.32743 -0.306035,-0.59532 -0.450338,-0.59532 -0.144302,0 -0.194716,-0.10946 -0.11203,-0.24325 0.08269,-0.13379 -0.0078,-0.40168 -0.201046,-0.59531 -0.193262,-0.19363 -0.574457,-0.85808 -0.8471,-1.47654 -0.272644,-0.61846 -0.591865,-1.12448 -0.709381,-1.12448 -0.117516,0 -0.213665,-0.29766 -0.213665,-0.66146 0,-0.3638 -0.119062,-0.66146 -0.264583,-0.66146 -0.145521,0 -0.264583,-0.29765 -0.264583,-0.66146 0,-0.3638 -0.119063,-0.66145 -0.264584,-0.66145 -0.145521,0 -0.264583,-0.34745 -0.264583,-0.77211 0,-0.97633 -0.251975,-1.64816 -0.549243,-1.46444 -0.126067,0.0779 -0.212964,-0.29053 -0.193106,-0.81876 0.02166,-0.57616 -0.113726,-1.05302 -0.338377,-1.19187 -0.557787,-0.34473 -0.557787,-18.67759 0,-19.02232 0.224651,-0.13884 0.360037,-0.61571 0.338377,-1.19186 -0.01986,-0.52823 0.06704,-0.89667 0.193106,-0.81876 0.297268,0.18372 0.549243,-0.48812 0.549243,-1.46444 0,-0.42466 0.119062,-0.77211 0.264583,-0.77211 0.145521,0 0.264584,-0.29766 0.264584,-0.66146 0,-0.3638 0.119062,-0.66146 0.264583,-0.66146 0.145521,0 0.264583,-0.29765 0.264583,-0.66146 0,-0.3638 0.10112,-0.66145 0.224711,-0.66145 0.123591,0 0.445658,-0.53578 0.715704,-1.19063 0.270046,-0.65484 0.585645,-1.19062 0.70133,-1.19062 0.115687,0 0.210339,-0.23813 0.210339,-0.52917 0,-0.29104 0.111039,-0.52917 0.246753,-0.52917 0.135715,0 0.33134,-0.26789 0.434723,-0.59531 0.103383,-0.32742 0.409063,-0.78787 0.679288,-1.02322 0.270225,-0.23535 0.491319,-0.54425 0.491319,-0.68645 0,-0.1422 0.297511,-0.60448 0.661135,-1.0273 0.363624,-0.42282 0.661281,-0.85409 0.661459,-0.95838 1.77e-4,-0.10429 0.417041,-0.60633 0.926364,-1.11566 0.509323,-0.50932 0.926042,-1.00545 0.926042,-1.10251 0,-0.22617 1.391303,-1.42792 1.653646,-1.42834 0.10914,-1.8e-4 0.198437,-0.15066 0.198437,-0.3344 0,-0.18375 0.320215,-0.5707 0.711589,-0.8599 0.391374,-0.2892 1.050323,-0.85324 1.464331,-1.25342 0.414008,-0.40018 0.806807,-0.72761 0.872886,-0.72761 0.138554,0 1.040293,-0.71434 1.753457,-1.38906 0.269172,-0.25466 0.675024,-0.46302 0.901894,-0.46302 0.226869,0 0.338905,-0.11906 0.248968,-0.26458 -0.08994,-0.14552 0.08163,-0.26459 0.38126,-0.26459 0.29963,0 0.544782,-0.10517 0.544782,-0.23372 0,-0.12855 0.250104,-0.29913 0.555788,-0.37907 0.306039,-0.08 0.477362,-0.27224 0.38126,-0.42773 -0.106323,-0.17203 0.09007,-0.28239 0.502545,-0.28239 0.37239,0 0.677073,-0.11907 0.677073,-0.26459 0,-0.14552 0.160302,-0.26458 0.356225,-0.26458 0.530469,0 2.025025,-0.7954 2.025025,-1.07771 0,-0.13486 0.364215,-0.24521 0.809365,-0.24521 0.472203,0 0.741246,-0.11022 0.645844,-0.26458 -0.0954,-0.15436 0.173641,-0.26458 0.645843,-0.26458 0.445151,0 0.809365,-0.11907 0.809365,-0.26459 0,-0.14552 0.420456,-0.26458 0.934344,-0.26458 0.586455,0 0.991053,-0.14777 1.086641,-0.39688 0.09982,-0.26013 0.512554,-0.39687 1.197943,-0.39687 0.5751,0 0.98208,-0.10283 0.9044,-0.22852 -0.24723,-0.40004 2.43696,-0.56063 9.37042,-0.56063 6.93347,0 9.61766,0.16059 9.37042,0.56063 -0.0777,0.12569 0.32931,0.22852 0.90441,0.22852 0.68538,0 1.09811,0.13674 1.19794,0.39687 0.0956,0.24911 0.50018,0.39688 1.08664,0.39688 0.51389,0 0.93434,0.11906 0.93434,0.26458 0,0.14552 0.29766,0.26459 0.66146,0.26459 0.3638,0 0.66146,0.11906 0.66146,0.26458 0,0.14552 0.35719,0.26458 0.79375,0.26458 0.43656,0 0.79375,0.11035 0.79375,0.24521 0,0.28231 1.49456,1.07771 2.02502,1.07771 0.19593,0 0.35623,0.11906 0.35623,0.26458 0,0.14552 0.30468,0.26459 0.67707,0.26459 0.41247,0 0.60887,0.11036 0.50255,0.28239 -0.0961,0.15549 0.0752,0.3477 0.38126,0.42773 0.30568,0.0799 0.55579,0.25052 0.55579,0.37907 0,0.12855 0.23812,0.23372 0.52916,0.23372 0.29104,0 0.52917,0.11907 0.52917,0.26459 0,0.14552 0.11906,0.26458 0.26458,0.26458 0.14552,0 0.48482,0.20836 0.75399,0.46302 0.75295,0.71236 1.61777,1.38906 1.77521,1.38906 0.078,0 0.41776,0.29766 0.75492,0.66146 0.33716,0.3638 0.69407,0.66146 0.79315,0.66146 0.28642,0 1.47898,1.27036 1.47898,1.57547 0,0.15214 0.0893,0.27676 0.19844,0.27694 0.26234,4.2e-4 1.65365,1.20217 1.65365,1.42834 0,0.0971 0.41671,0.59319 0.92604,1.10251 0.50932,0.50933 0.92618,1.01137 0.92636,1.11566 1.8e-4,0.10429 0.29783,0.53556 0.66146,0.95838 0.36362,0.42282 0.66114,0.8851 0.66114,1.0273 0,0.1422 0.22109,0.4511 0.49131,0.68645 0.27023,0.23535 0.57591,0.6958 0.67929,1.02322 0.10338,0.32742 0.29901,0.59531 0.43473,0.59531 0.13571,0 0.24675,0.23813 0.24675,0.52917 0,0.29104 0.0947,0.52917 0.21034,0.52917 0.11568,0 0.43128,0.53578 0.70133,1.19062 0.27004,0.65485 0.59211,1.19063 0.7157,1.19063 0.12359,0 0.22471,0.29765 0.22471,0.66145 0,0.36381 0.11906,0.66146 0.26459,0.66146 0.14552,0 0.26458,0.29766 0.26458,0.66146 0,0.3638 0.11906,0.66146 0.26458,0.66146 0.14552,0 0.26459,0.34745 0.26459,0.77211 0,0.97632 0.25197,1.64816 0.54924,1.46444 0.12606,-0.0779 0.21296,0.29053 0.1931,0.81876 -0.0217,0.57615 0.11373,1.05302 0.33838,1.19186 0.31133,0.19242 0.37448,1.78671 0.37448,9.45426 0,8.36389 -0.0423,9.26514 -0.45436,9.67718 -0.32624,0.32625 -0.40785,0.68689 -0.28942,1.27902 0.10906,0.54531 0.0707,0.76642 -0.11323,0.65274 -0.32777,-0.20257 -0.59819,0.39452 -0.59819,1.32079 0,0.75172 -0.42395,1.26164 -1.27296,1.53111 -0.32275,0.10243 -0.51853,0.29673 -0.43506,0.43178 0.0835,0.13504 -0.0807,0.24553 -0.36473,0.24553 -0.28406,0 -0.58501,-0.17859 -0.66877,-0.39687 -0.0838,-0.21828 -0.2836,-0.39688 -0.44408,-0.39688 -0.65073,0 -1.04774,-0.79487 -1.04774,-2.09776 0,-0.738 0.11906,-1.34182 0.26459,-1.34182 0.14552,0 0.26458,-0.48328 0.26458,-1.07395 0,-0.59067 0.10552,-1.00873 0.2345,-0.92902 0.29674,0.1834 0.55095,-0.74627 0.55564,-2.03193 0.002,-0.5457 0.12267,-0.99218 0.26819,-0.99218 0.16837,0 0.26459,-2.11667 0.26459,-5.82084 0,-3.70416 -0.0962,-5.82083 -0.26459,-5.82083 -0.14552,0 -0.26621,-0.44648 -0.26819,-0.99219 -0.005,-1.28566 -0.2589,-2.21532 -0.55564,-2.03193 -0.12898,0.0797 -0.2345,-0.33834 -0.2345,-0.92901 0,-0.59068 -0.11906,-1.07395 -0.26458,-1.07395 -0.14553,0 -0.26459,-0.35719 -0.26459,-0.79375 0,-0.43657 -0.11906,-0.79375 -0.26458,-0.79375 -0.14552,0 -0.26458,-0.28492 -0.26458,-0.63315 0,-0.34824 -0.16372,-0.69598 -0.36381,-0.77276 -0.20009,-0.0768 -0.3638,-0.44033 -0.3638,-0.80788 0,-0.36756 -0.19457,-0.86285 -0.43238,-1.10066 -0.23781,-0.23781 -0.36473,-0.54185 -0.28204,-0.67563 0.0827,-0.13379 0.0242,-0.24326 -0.12986,-0.24326 -0.15411,0 -0.2802,-0.16401 -0.2802,-0.36447 0,-0.20047 -0.17728,-0.51161 -0.39396,-0.69144 -0.21668,-0.17983 -0.32819,-0.43337 -0.24781,-0.56343 0.0804,-0.13006 -0.04,-0.30791 -0.2675,-0.39521 -0.22751,-0.0873 -0.41364,-0.38412 -0.41364,-0.65959 0,-0.27547 -0.0934,-0.50086 -0.20754,-0.50086 -0.11415,0 -0.43311,-0.38695 -0.7088,-0.85989 -0.27569,-0.47295 -0.71808,-1.05246 -0.98309,-1.28781 -0.265,-0.23535 -0.48182,-0.50865 -0.48182,-0.60734 0,-0.2859 -1.27078,-1.47829 -1.57548,-1.47829 -0.15213,0 -0.24684,-0.0912 -0.21046,-0.20257 0.0889,-0.27229 -2.59731,-2.97243 -2.95711,-2.97243 -0.15622,0 -0.28404,-0.11906 -0.28404,-0.26458 0,-0.14552 -0.18562,-0.26459 -0.41249,-0.26459 -0.22687,0 -0.3442,-0.11049 -0.26074,-0.24553 0.0835,-0.13505 -0.0881,-0.32166 -0.38126,-0.41471 -0.29316,-0.093 -0.53301,-0.28021 -0.53301,-0.41592 0,-0.13571 -0.17859,-0.24675 -0.39687,-0.24675 -0.21828,0 -0.39688,-0.11907 -0.39688,-0.26459 0,-0.14552 -0.23812,-0.26458 -0.52916,-0.26458 -0.29105,0 -0.52917,-0.11906 -0.52917,-0.26458 0,-0.14552 -0.16586,-0.26459 -0.36857,-0.26459 -0.20271,0 -0.4371,-0.17859 -0.52086,-0.39687 -0.0838,-0.21828 -0.39416,-0.39688 -0.68977,-0.39688 -0.29561,0 -0.53747,-0.11906 -0.53747,-0.26458 0,-0.14552 -0.23812,-0.26458 -0.52916,-0.26458 -0.29105,0 -0.52917,-0.11907 -0.52917,-0.26459 0,-0.14552 -0.35719,-0.26458 -0.79375,-0.26458 -0.49389,0 -0.76876,-0.12494 -0.72761,-0.33073 0.0372,-0.18601 -0.25223,-0.36736 -0.66145,-0.41445 -0.40019,-0.046 -0.72761,-0.19487 -0.72761,-0.33073 0,-0.13585 -0.41672,-0.24701 -0.92604,-0.24701 -0.50932,0 -0.92604,-0.11906 -0.92604,-0.26458 0,-0.14552 -0.48328,-0.26458 -1.07395,-0.26458 -0.59067,0 -1.00807,-0.10659 -0.92756,-0.23686 0.20306,-0.32856 -0.49752,-0.55689 -1.70868,-0.55689 -0.5616,0 -1.09467,-0.11907 -1.1846,-0.26459 -0.22136,-0.35815 -11.6849,-0.35815 -11.90625,0 -0.0899,0.14552 -0.62301,0.26459 -1.1846,0.26459 -1.21117,0 -1.91174,0.22833 -1.70869,0.55689 0.0805,0.13027 -0.33688,0.23686 -0.92756,0.23686 -0.59067,0 -1.073945,0.11906 -1.073945,0.26458 0,0.14552 -0.416718,0.26458 -0.926041,0.26458 -0.509323,0 -0.926042,0.11116 -0.926042,0.24701 0,0.13586 -0.327422,0.28469 -0.727604,0.33073 -0.40923,0.0471 -0.698661,0.22844 -0.661458,0.41445 0.04116,0.20579 -0.233716,0.33073 -0.727605,0.33073 -0.436562,0 -0.79375,0.11906 -0.79375,0.26458 0,0.14552 -0.238125,0.26459 -0.529166,0.26459 -0.291042,0 -0.529167,0.11906 -0.529167,0.26458 0,0.14552 -0.241862,0.26458 -0.53747,0.26458 -0.295609,0 -0.606004,0.1786 -0.689766,0.39688 -0.08376,0.21828 -0.318151,0.39687 -0.520863,0.39687 -0.202712,0 -0.368568,0.11907 -0.368568,0.26459 0,0.14552 -0.238125,0.26458 -0.529166,0.26458 -0.291042,0 -0.529167,0.11906 -0.529167,0.26458 0,0.14552 -0.178594,0.26459 -0.396875,0.26459 -0.218281,0 -0.396875,0.11104 -0.396875,0.24675 0,0.13571 -0.239854,0.32288 -0.533009,0.41592 -0.293154,0.0931 -0.464721,0.27966 -0.38126,0.41471 0.08346,0.13504 -0.03387,0.24553 -0.260741,0.24553 -0.226869,0 -0.41249,0.11907 -0.41249,0.26459 0,0.14552 -0.127818,0.26458 -0.284041,0.26458 -0.359797,0 -3.046016,2.70014 -2.957105,2.97243 0.03638,0.11141 -0.05833,0.20257 -0.210464,0.20257 -0.304701,0 -1.575473,1.19239 -1.575473,1.47829 0,0.0987 -0.216822,0.37199 -0.481827,0.60734 -0.265005,0.23535 -0.707395,0.81486 -0.983088,1.28781 -0.275693,0.47294 -0.594653,0.85989 -0.708798,0.85989 -0.114145,0 -0.207537,0.16402 -0.207537,0.36448 0,0.20046 -0.177283,0.51161 -0.393962,0.69144 -0.216679,0.17983 -0.328715,0.43253 -0.248968,0.56156 0.07975,0.12903 0.02117,0.23461 -0.130164,0.23461 -0.151337,0 -0.349865,0.29765 -0.441173,0.66145 -0.09131,0.36381 -0.279198,0.66146 -0.417531,0.66146 -0.138333,0 -0.183863,0.10947 -0.101177,0.24326 0.08269,0.13378 -0.04423,0.43782 -0.282041,0.67563 -0.237809,0.23781 -0.43238,0.7331 -0.43238,1.10066 0,0.36755 -0.163711,0.7311 -0.363802,0.80788 -0.200091,0.0768 -0.363802,0.42452 -0.363802,0.77276 0,0.34823 -0.119063,0.63315 -0.264583,0.63315 -0.145521,0 -0.264584,0.35718 -0.264584,0.79375 0,0.43656 -0.119062,0.79375 -0.264583,0.79375 -0.145521,0 -0.264583,0.48327 -0.264583,1.07395 0,0.59067 -0.105527,1.00872 -0.234503,0.92901 -0.296736,-0.18339 -0.550953,0.74627 -0.555634,2.03193 -0.002,0.54571 -0.122676,0.99219 -0.268197,0.99219 -0.168371,0 -0.264583,2.11667 -0.264583,5.82083 0,3.70417 0.09621,5.82084 0.264583,5.82084 0.145521,0 0.266209,0.44648 0.268197,0.99218 0.0047,1.28566 0.258898,2.21533 0.555634,2.03193 0.128976,-0.0797 0.234503,0.33835 0.234503,0.92902 0,0.59067 0.119062,1.07395 0.264583,1.07395 0.145521,0 0.264583,0.35719 0.264583,0.79375 0,0.43656 0.119063,0.79375 0.264584,0.79375 0.14552,0 0.264583,0.28492 0.264583,0.63315 0,0.34823 0.163711,0.69597 0.363802,0.77276 0.200091,0.0768 0.363802,0.44033 0.363802,0.80788 0,0.36755 0.194571,0.86285 0.43238,1.10066 0.237809,0.23781 0.371012,0.53167 0.296008,0.65303 -0.07501,0.12136 -0.04633,0.26059 0.06371,0.3094 0.110048,0.0488 0.407712,0.50546 0.661476,1.01479 0.570419,1.14487 0.990115,1.8006 1.589131,2.48284 0.254662,0.29005 0.463021,0.61855 0.463021,0.73002 0,0.11147 0.297656,0.50032 0.661459,0.86412 0.363802,0.36381 0.661458,0.73182 0.661458,0.81781 0,0.26866 1.284609,1.45521 1.575473,1.45521 0.152136,0 0.246845,0.0911 0.210464,0.20257 -0.08891,0.27229 2.597308,2.97243 2.957105,2.97243 0.156223,0 0.284041,0.11906 0.284041,0.26458 0,0.14552 0.198438,0.26458 0.440972,0.26458 0.242535,0 0.365635,0.0753 0.273556,0.16742 -0.194809,0.19481 0.950642,1.1555 1.377725,1.1555 0.158949,0 0.288997,0.11906 0.288997,0.26458 0,0.14552 0.238125,0.26459 0.529167,0.26459 0.291041,0 0.529166,0.11906 0.529166,0.26458 0,0.14552 0.165856,0.26458 0.368568,0.26458 0.202712,0 0.4371,0.1786 0.520863,0.39688 0.08376,0.21828 0.394157,0.39687 0.689766,0.39687 0.295608,0 0.53747,0.11907 0.53747,0.26459 0,0.14552 0.238125,0.26458 0.529167,0.26458 0.291041,0 0.529166,0.11906 0.529166,0.26458 0,0.14552 0.357188,0.26459 0.79375,0.26459 0.493889,0 0.768762,0.12494 0.727605,0.33073 -0.0372,0.18601 0.252228,0.36736 0.661458,0.41444 0.400182,0.0461 0.727604,0.19488 0.727604,0.33073 0,0.13586 0.416719,0.24701 0.926042,0.24701 0.509323,0 0.926041,0.11907 0.926041,0.26459 0,0.14552 0.483278,0.26458 1.073948,0.26458 0.59068,0 1.00808,0.10659 0.92756,0.23686 -0.21057,0.34071 0.51012,0.55689 1.85659,0.55689 0.64294,0 1.16899,0.11906 1.16899,0.26458 0,0.16835 2.11146,0.26459 5.80522,0.26459 3.58474,0 5.86776,-0.10121 5.96874,-0.26459 0.0899,-0.14552 0.69601,-0.26458 1.34683,-0.26458 0.80776,0 1.23165,-0.12596 1.33561,-0.39688 0.10339,-0.26943 0.52552,-0.39687 1.31461,-0.39687 0.63928,0 1.16232,-0.11906 1.16232,-0.26458 0,-0.14552 0.35719,-0.26459 0.79375,-0.26459 0.43656,0 0.79375,-0.11115 0.79375,-0.24701 0,-0.13585 0.32742,-0.28468 0.72761,-0.33073 0.40922,-0.0471 0.69866,-0.22843 0.66145,-0.41444 -0.0412,-0.20579 0.23372,-0.33073 0.72761,-0.33073 0.43656,0 0.79375,-0.11907 0.79375,-0.26459 0,-0.14552 0.23812,-0.26458 0.52917,-0.26458 0.29104,0 0.52916,-0.11906 0.52916,-0.26458 0,-0.14552 0.24186,-0.26459 0.53747,-0.26459 0.29561,0 0.60601,-0.17859 0.68977,-0.39687 0.0993,-0.25874 0.51082,-0.39688 1.18232,-0.39688 1.46554,0 2.08836,0.70161 2.08836,2.35257 0,1.16541 -0.0669,1.31103 -0.67228,1.46297 -0.36975,0.0928 -0.60085,0.2843 -0.51355,0.42555 0.0873,0.14126 -0.14596,0.25683 -0.51835,0.25683 -0.37239,0 -0.67707,0.11906 -0.67707,0.26458 0,0.14552 -0.23813,0.26459 -0.52917,0.26459 -0.29104,0 -0.52916,0.11906 -0.52916,0.26458 0,0.14552 -0.24187,0.26458 -0.53747,0.26458 -0.29562,0 -0.60601,0.1786 -0.68977,0.39688 -0.0838,0.21828 -0.43721,0.39687 -0.78545,0.39687 -0.34823,0 -0.63315,0.11907 -0.63315,0.26459 0,0.14552 -0.35719,0.26458 -0.79375,0.26458 -0.43656,0 -0.79375,0.11906 -0.79375,0.26458 0,0.14552 -0.34868,0.26459 -0.77485,0.26459 -0.42617,0 -0.95344,0.17859 -1.17172,0.39687 -0.21829,0.21828 -0.82913,0.39688 -1.35744,0.39688 -0.5283,0 -0.897,0.10283 -0.81932,0.22852 0.0777,0.12568 -0.48084,0.30324 -1.24115,0.39457 -1.45364,0.17461 -14.9535,0.15646 -16.66762,-0.0224 z M 78.371347,151.0843 c -5.102518,-5.10252 -9.277305,-9.38877 -9.277305,-9.525 0,-0.13623 -0.119062,-0.2477 -0.264583,-0.2477 -0.145521,0 -0.264583,-0.35718 -0.264583,-0.79375 0,-0.43656 0.119062,-0.79375 0.264583,-0.79375 0.145521,0 0.264583,-0.1081 0.264583,-0.24022 0,-0.31812 17.956368,-18.28061 18.274378,-18.28061 0.13555,0 0.24646,-0.11906 0.24646,-0.26458 0,-0.14552 0.47625,-0.26459 1.05833,-0.26459 0.58208,0 1.05833,0.11907 1.05833,0.26459 0,0.14552 0.1786,0.26458 0.39688,0.26458 0.30868,0 0.39687,0.35278 0.39687,1.5875 0,0.92796 -0.11492,1.5875 -0.27661,1.5875 -0.35845,0 -1.72804,1.37126 -1.64162,1.64362 0.0364,0.11466 -0.058,0.20846 -0.20962,0.20846 -0.36539,0 -9.66521,9.29247 -9.57996,9.57239 0.03638,0.11946 -0.05802,0.2172 -0.209777,0.2172 -0.151758,0 -1.288719,1.01279 -2.526581,2.25065 l -2.250658,2.25066 8.061016,8.06809 c 4.43356,4.43745 8.18989,8.0681 8.34741,8.0681 0.17366,0 0.2864,0.62494 0.2864,1.5875 0,1.23472 -0.0882,1.5875 -0.39687,1.5875 -0.21828,0 -0.39688,0.11906 -0.39688,0.26458 0,0.14552 -0.46865,0.26458 -1.04144,0.26458 -1.01602,0 -1.26798,-0.22653 -10.318753,-9.2773 z m -0.810638,-8.71436 c 0,-0.14552 -0.185621,-0.26459 -0.41249,-0.26459 -0.226869,0 -0.338905,-0.11906 -0.248969,-0.26458 0.08994,-0.14552 0.03743,-0.26458 -0.116676,-0.26458 -0.154109,0 -0.280199,-0.47625 -0.280199,-1.05834 0,-0.58208 0.12609,-1.05833 0.280199,-1.05833 0.154109,0 0.206613,-0.11906 0.116676,-0.26458 -0.08994,-0.14552 0.0221,-0.26459 0.248969,-0.26459 0.226869,0 0.41249,-0.11906 0.41249,-0.26458 0,-0.17414 7.099651,-0.26458 20.769791,-0.26458 13.67014,0 20.76979,0.0904 20.76979,0.26458 0,0.14552 0.1786,0.26458 0.39688,0.26458 0.21828,0 0.39687,0.1786 0.39687,0.39688 0,0.21828 0.11906,0.39687 0.26459,0.39687 0.14552,0 0.26458,0.35719 0.26458,0.79375 0,0.43657 -0.11906,0.79375 -0.26458,0.79375 -0.14553,0 -0.26459,0.1786 -0.26459,0.39688 0,0.21828 -0.17859,0.39687 -0.39687,0.39687 -0.21828,0 -0.39688,0.11907 -0.39688,0.26459 0,0.17414 -7.09965,0.26458 -20.76979,0.26458 -13.67014,0 -20.769791,-0.0904 -20.769791,-0.26458 z"
       style="fill:none;stroke-width:0.26458332" />
  </g>
</svg>
