<svg xmlns="http://www.w3.org/2000/svg" width="158" height="172"  viewBox="0 0 646.37 707.52"><defs><style>.cls-1{fill:#348899;}.cls-2{fill:#999;stroke:#fff;stroke-miterlimit:10;stroke-width:10px;}</style></defs><title>buy-i</title><g id="Слой_2" data-name="Слой 2"><g id="Слой_1-2" data-name="Слой 1"><path class="cls-1" d="M333.62,476.81c-2.24-24.24-4.69-48.46-6.73-72.71-3.53-41.9-7.36-83.79-9.14-125.82-1.23-29-2.43-58.07-.6-87.11.29-4.61-.9-6.91-5-9-24.88-12.61-49.62-25.5-74.47-38.18-2.27-1.16-4.39-3.2-7.6-2.85l.92,5.55Q259,315.63,287,484.54ZM263.76,255.33c-.46-2.61-.3-4.35,3.05-3.08a5.29,5.29,0,0,0,.95.18c11.47,2,11.47,2,13.35,13.48l.79,4.79c1.14,6.92,1.14,6.92-6.09,6.32-1.45-.12-2.9-.34-4.35-.34-3.11,0-4.59-1.39-5-4.59C265.79,266.48,264.75,260.91,263.76,255.33Zm44,193.28c-12-.52-12-.46-14.12-13.15-.5-3-1-6.1-1.53-9.13-.52-2.77.49-3.56,3.15-2.85q4.93,1.32,9.94,2.37a3.52,3.52,0,0,1,3,3.32c.88,5.45,1.72,10.91,2.73,16.34C311.4,448.35,310.21,448.72,307.72,448.61Zm-27-91.4c-.32-2.1.38-3,2.7-2.4,3.58,1,7.2,1.77,10.82,2.56,1.7.37,2.33,1.46,2.58,3,.86,5.42,1.72,10.85,2.7,16.25.55,3-.77,3.55-3.46,3.42-11.66-.56-11.66-.5-13.69-12.85C281.77,363.9,281.19,360.56,280.68,357.21Zm12.45-18.78c1.17,8.19,2.52,7.84-6.34,7.06-9.06-.8-7.93.7-9.51-8.62-.73-4.31-1.37-8.64-2.16-12.94-.51-2.77.12-4.16,3.22-3.14a8,8,0,0,0,1,.16c11.31,2.21,11.31,2.21,13.21,13.65C292.71,335.87,292.95,337.15,293.13,338.43Zm10.19,60.9c.15,4,1.17,8,1.9,12,.42,2.28-.18,3.48-2.7,3.12l-.49,0c-11.94-.23-11.94-.23-14.1-13.27l-.64-3.84c-1.46-8.87-1.51-8.56,7.54-7C300.36,391.23,303.1,393.57,303.32,399.33Zm19,29.69c.57,4.8,1.38,9.58,2.35,14.31.9,4.37-2.42,3.66-4.69,4.16s-4.9,1.29-5.21-2.64c-.2-2.56-.8-5.09-1.22-7.64a34,34,0,0,0-.83-4.76c-1.43-4.46.05-6.38,4.76-6.8C320.49,425.39,321.94,425.77,322.33,429ZM287.52,208.51a49,49,0,0,0-.46-5.71c.35-3.27-3.08-8.82-.06-11,2.76-2,7.66,1.92,11.63,3.16,8.32,2.59,8.27,2.77,8.11,11.56-.2,11.34-.17,10.95-11.37,10.13C289.63,216.2,287.25,214.09,287.52,208.51Zm11.42,18.65c6.94.54,6.91.54,7.37,7.59.26,3.87.64,7.74,1,11.61.23,2.45-.82,3.3-3.16,2.65-.94-.26-1.86-.56-2.8-.78C292,246,292,246.05,290.43,236.55,288.73,226.37,288.73,226.37,298.94,227.17Zm-5.66,42.57q-.24-2.42-.49-4.84c-.73-6.92-.68-7.12,5.89-5.49,10.28,2.54,8.5-.39,10,13.48.3,3.07.51,6.15.94,9.2.36,2.57-.23,3.84-3.06,2.8-.15-.06-.32-.06-.48-.1C291.79,280.54,294.62,283.5,293.28,269.74Zm2.29,28.65c-1.19-4.21.65-5.22,4.35-4.81a11.43,11.43,0,0,0,2.43,0c4.47-.47,6.65,1.39,6.31,6a13.8,13.8,0,0,0,.23,2.41h.1c.2,3.07.17,6.17.67,9.19.66,4-1.1,4-4.34,3.78-5.3-.36-8.36-2.16-8.33-8A31.68,31.68,0,0,0,295.57,298.39ZM301,325.93c10.37-2.37,10.36-2.43,12.47,10.42l.24,1.44c1.84,11.18,1.83,11.09-9.33,11.59-2.37.11-3.22-.78-3.55-2.82-.92-5.58-1.81-11.17-2.81-16.74C297.59,327.31,298.71,326.46,301,325.93ZM305.27,357c4-.65,5.49.26,5.87,4.27a134.27,134.27,0,0,0,2.24,13.84c.82,4.07-2.25,3.55-4.42,3.88s-5,2-5.44-2.21c-.31-2.72-.87-5.41-1.32-8.12a46.36,46.36,0,0,0-1-5.71C300.06,359.14,301.21,357.65,305.27,357Zm6.32,34.46c3.16-.35,4.74-.09,5.11,3.48.5,4.8,1.45,9.56,2.31,14.32.83,4.59-2.95,3.21-5,3.79s-4.55,1.47-4.88-2.3c-.23-2.72-.85-5.41-1.3-8.12a32.74,32.74,0,0,0-.83-4.76C305.58,393.53,307.22,391.94,311.59,391.45Zm-25-92.69c2.24,13.54,2.25,13.46-10.29,12-2.32-.26-3.53-.94-3.89-3.31-.92-6.09-2-12.17-3-18.25-.42-2.55.28-3.83,3.11-2.9a9.61,9.61,0,0,0,2.36.57C283.21,287.41,287.59,291.44,286.57,298.77Zm-10.31-56.49c-2,2.41-6.66-.39-10.1,0-4,.42-5.1-1.6-5.41-5-.22-2.41-.76-4.79-1.16-7.18-.44-2.71-.7-5.48-1.39-8.13-1.17-4.49.69-4.84,4.43-3.94,11,2.64,11.07,2.55,12.76,13.56C275.95,235.21,278.45,239.68,276.26,242.28Zm-21.31-39.89a53.57,53.57,0,0,0-1.13-7.2c-.47-2.88-.9-5.77-1.44-8.63-.47-2.51,0-3.89,3-3a3.92,3.92,0,0,0,.47.12c12.06,2.17,12.06,2.17,14.19,15,1.72,10.37,1.73,10.21-8.62,9.61C257.28,208.05,255.06,206.75,254.95,202.39Z"/><path class="cls-1" d="M178,292.74c9.61,34.24,17.78,68.86,25.72,103.53,7.5,32.76,14.32,65.65,21,98.58l50.76-8.41q-14.27-85.17-28.31-170.39-13.93-84.14-27.9-168.28c-.25-1.48.27-3.66-1.66-4.18-1.67-.45-2.23,1.57-3.2,2.56q-12.75,13-25.45,26.14-18,18.5-35.93,37c-1.61,1.66-2.25,3-1.12,5.49C163.44,239.81,170.61,266.34,178,292.74Z"/><path class="cls-1" d="M264.37,134.89c2.66,11.55,8.67,19,19.72,22.55,3.45,1.12,6.16,4.1,10.42,4.41-1-6-1.94-11.61-2.84-17.2-.25-1.58-.63-3.06,1.37-4.14,4.71-2.53,9.3-5.3,13.91-8,2.33-1.37,3.66-1.37,4.07,1.87a147.58,147.58,0,0,0,2.66,15.85c.95,4-.23,6.35-3.59,8.45-3.1,1.93-5.81,4.49-9.21,7.18,7.38,3.88,14.16,7.62,21.12,11,2.75,1.34,3.63,2.79,3.34,6a423.05,423.05,0,0,0-1.63,47.66q1.33,64.3,6.84,128.38c1,12.13.91,24.49,3.35,36.33,5.41,26.29,11,52.53,16.25,78.86l64.44-10.67-.1-.58Q376.73,234.18,338.8,5.57c-.31-1.84-.17-3.84-1.34-5.57-2.1.59-3.16,2.3-4.45,3.69q-23.77,25.42-47.5,50.87c-10.3,11-20.66,22-30.9,33.09C253,89.44,251,91,252.06,94.36,256.44,107.79,261.21,121.16,264.37,134.89ZM364.72,418.14c-2.62.68-5.15,1.21-5.51-2.92-.3-3.54-1.11-7-1.69-10.56-.6-3.68-1.12-7.37-1.85-11-.49-2.46.33-3.41,2.8-3.92,7.44-1.53,7.41-1.64,8.69,6,1,5.92,1.82,11.86,3,17.74C371.12,418.54,367.21,417.5,364.72,418.14ZM389,384.65q.76,4.55,1.51,9.1l1,6.22c1.7,10.27,1.67,10.21-7.35,15.49-2.44,1.43-3,.48-3.41-1.78-1.36-8.47-2.65-16.95-4.26-25.36-.76-4,2.38-5.1,4.45-6.72C388.09,376,387.38,375.16,389,384.65Zm-7.63-45.88c.63,3,1,6.07,1.54,9.11L384,354.6c1.64,9.89,1,11.13-7.4,16.39-2.17,1.35-2.8.65-3.15-1.47-1.41-8.64-2.81-17.29-4.3-25.91-.7-4,2.91-5.13,4.93-7.14,1.6-1.59,3-4.89,5.5-3.92C381.55,333.32,380.89,336.6,381.34,338.77Zm-11.76-13.83c-2.49,1.53-3.34,1.22-3.79-1.54-1.36-8.48-2.73-17-4.22-25.42-.66-3.78,2.33-5.2,4.49-6.83,1.95-1.47,3.47-5,6.06-3.91,2,.86,1.31,4.39,1.8,6.72.59,2.85,1,5.75,1.46,8.63.34,2.08.33,4.3,1.1,6.21C379.61,316.6,375.81,321.12,369.58,324.94Zm.1-52.15c-2.68,3.4-7.12,5.42-10.88,7.94-1.62,1.08-2.72.53-3-1.44q-2.2-13.43-4.4-26.85a3.17,3.17,0,0,1,1.61-3.25c2.75-2,5.52-4,8.08-6.2,3.49-3,4.44-1.45,4.88,2.23.48,4,1.28,8,1.94,12,.32,1.92.72,3.83.94,5.75C369.18,266.3,371.55,270.41,369.68,272.78Zm-13.24-41c-9.43,5.12-9.31,5.35-11.07-5.31-1-5.92-1.9-11.86-3-17.76-.38-2.12-.1-3.72,1.86-5,3.38-2.23,6.67-4.61,9.94-7,2.22-1.63,3.46-1.3,3.9,1.54.69,4.49,1.47,9,2.21,13.45.49,2.88.59,5.89,1.52,8.62C363.8,226.13,361.39,229.15,356.44,231.83Zm-1.58-53c.19,1.24,1,2.94-.22,3.66-4.44,2.67-9,5.17-13.63,7.46-1.43.7-1.8-1-2-2.06-1.49-8.8-2.94-17.6-4.41-26.4a3,3,0,0,1,1.45-3.32c3.82-2.44,7.61-4.94,11.47-7.33,2.38-1.48,2.73.41,3,2.07.78,4.47,1.5,9,2.24,13.44C353.5,170.5,354.22,174.65,354.86,178.82Zm-11.1-39.06c-3.32,2-6.44,4.36-9.6,6.62-2.25,1.61-3.71,1.77-4.22-1.56-1.29-8.33-2.7-16.65-4.13-25a4.25,4.25,0,0,1,1.68-4.67c4-3,8-6.06,12-9.16,2.49-2,3.29-.78,3.67,1.74.65,4.33,1.41,8.64,2.13,13a110,110,0,0,0,1.92,11C348.23,135.56,346.95,137.83,343.77,139.76Zm-26.08-70c4.78-3.06,9.54-6.16,14.23-9.36,2.18-1.49,3.2-1,3.6,1.51.73,4.49,1.48,9,2.22,13.45.72,4.32,1.36,8.66,2.18,13a4,4,0,0,1-2.19,4.82q-7,3.92-13.87,8.07c-2.17,1.32-3.49,1.42-4-1.55q-2-12.75-4.23-25.46A3.91,3.91,0,0,1,317.69,69.74ZM363,370.69c.66,3-.2,4.35-3.16,5.3-10.21,3.3-8.32,2.94-9.86-5.64-1.08-6.07-1.84-12.21-3.11-18.24-.73-3.46,0-5.23,3.52-6.47,8-2.79,7.92-3,9.3,5.36l1.35,8.17C361.72,363,362.2,366.89,363,370.69Zm-8-46c.93,2.92.59,4.4-2.74,5.12-10.4,2.28-8.22,3.18-10-6.47-.3-1.59-.53-3.2-.8-4.79-.52-3.2-1-6.41-1.61-9.59-.41-2,0-3.26,1.88-4.37,6.44-3.78,6.7-3.69,8.67,3.74C351.82,313.82,353.28,319.3,355,324.7Zm-9.42-39.36a3.34,3.34,0,0,1-.11,1.88c-.36.94-12.12,4.71-13.16,4.33s-1.17-1.46-1.32-2.39q-1.69-10.08-3.33-20.17a3.67,3.67,0,0,1,1.41-3.87c3-2.24,5.84-4.59,9.52-7.5C341.08,267.48,343.35,276.4,345.58,285.34ZM280.37,99.26q7-5.18,13.92-10.58c2.25-1.75,3.34-1.66,4.37,1.37,2.44,7.21,5.26,14.29,8,21.38.91,2.33.72,3.72-1.78,5-4.73,2.48-9.23,5.38-13.79,8.16-1.45.89-2.69,1.28-3.51-.65q-4.49-10.5-8.94-21C278.22,101.19,279,100.23,280.37,99.26Z"/><path class="cls-1" d="M608.86,431.23c-8.52-52.77-16.51-105.62-21.33-158.91-2.51-27.66-4.95-55.35-3.42-83.14.27-4.94-1.24-7.28-5.15-9.51C558.8,168.2,538.74,156.54,518.64,145c-2.26-1.3-4.55-2.56-7.75-4.36l1.47,8.86q24,144.9,48,289.81Zm-59.5-109c-.84-3.68.72-3.87,3.49-2.93.31.1.61.23.92.31,9.42,2.5,9.42,2.5,11,12.17,1.68,10.13,1.7,10-8.33,8.16-3.2-.59-4.76-1.85-5.06-5.23A93,93,0,0,0,549.36,322.27Zm25.72,71.47c.54,2.74.07,3.76-3.13,3.25-10.39-1.68-10.41-1.56-12.26-12.71-1.69-10.2-1.73-10,8.13-7.63,3.53.86,5.19,2.45,5.48,6.08A98.33,98.33,0,0,0,575.08,393.73ZM568.53,354c.46,4.19,1.26,8.34,2,12.49.44,2.38-.15,3.42-2.74,2.77-3-.74-6-1.46-9-2-1.86-.34-2.23-1.57-2.46-3.09-.36-2.41-.79-4.8-1.18-7.2-1.87-11.32-1.91-11.2,9-7.8C566.93,350,568.22,351.16,568.53,354Zm11.26,12.45c-.6-2.84.53-3.25,3.06-3,8.12.79,8.13.71,9.82,10.91-.09,2.43,2.48,6.1.25,7.79s-5.65-1.1-8.58-1.75c-1.92-.43-2.54-1.65-2.8-3.42C581,373.46,580.52,369.94,579.79,366.46Zm-9.91-59.92c-.41-2.24.41-2.82,2.61-2.66,8.6.63,8.6.57,10.32,10.92-.08,2.46,2.5,6.15.33,7.86s-5.6-1.27-8.59-1.7a3.07,3.07,0,0,1-2.76-2.92C571.23,314.21,570.58,310.37,569.88,306.54Zm28.89,94.88c1.67,10,.6,11-9.53,8.5-1-.24-2.07-.37-2.27-1.46-.86-4.61-1.61-9.24-2.37-13.86a1.17,1.17,0,0,1,.17-.92c3-2.56,6.48-.53,9.71-1,1.87-.3,3.06.48,3.28,2.56S598.43,399.35,598.78,401.43ZM580.23,294.07c-2.3,2-5.49-1.28-8.42-1.79-4.72-.81-5.11-4.45-5.69-8.25-1.7-11.08-1.86-10.8,8.9-7.69,5.62,1.63,2.93,6.42,4.68,9.19C579.77,288.68,582.09,292.43,580.23,294.07Zm-1.48-36c1.58,9.58,1.58,9.58-7.79,7a30.37,30.37,0,0,0-4.67-1.28c-3-.33-4-2-4.31-4.8a99.78,99.78,0,0,0-1.73-10.52c-.73-3.41-.29-5.14,3.66-3.4a24.16,24.16,0,0,0,3.7,1.14C577.2,248.64,577.2,248.63,578.75,258.06Zm-24.67-68c.12-1.75.83-1.85,2.12-1.49,4.52,1.27,9.24,2.09,13.49,4,3.72,1.65,1.78,6.16,3,8.7,1.62,9.84,1.62,9.84-7,6.91C556.81,205.17,553.4,199.72,554.08,190.05Zm1.33,28.52c-.38-2.32,1.13-2.28,2.73-1.81,4,1.17,8,2.4,12.09,3.55a3.76,3.76,0,0,1,2.84,3.5c.29,2.08.67,4.15,1,6.22,1.6,9.41,1.6,9.41-7.35,6.09-3-1.11-7.37-1.08-8.57-3.85C556.35,228.09,556.17,223.19,555.41,218.57Zm20.12,115.25c2.53-1.39,6.24.49,9.32,1.41,1.53.46,1.46.7,2.8,8.81a3.71,3.71,0,0,1,.15,1c-.29,2.62,2.89,6.17-.47,7.69-3.85,1.75-10.28-3.09-11-7.35a27.72,27.72,0,0,1-.61-3.85C575.64,338.83,573.19,335.11,575.53,333.82Zm2.93,80.48c1.87,11.29,1.9,11.15-8.39,9.2-3.1-.59-4.41-1.87-4.76-4.94-.51-4.51-1.36-9-2.19-13.46-.47-2.54.26-3.41,2.76-2.46a7.13,7.13,0,0,0,1.85.59C575.31,403.82,579.25,407.62,578.46,414.3ZM552.1,255c.54,2.81-.56,3.59-3.14,2.79l-.47-.12c-10.1-2.08-10.1-2.08-11.81-12.43l-.39-2.39c-1.4-8.44-1.47-8.18,7-5.86,4.66,1.27,7.14,3.43,7.25,8.45A59.21,59.21,0,0,0,552.1,255Zm-16.51-73.27c3.47.89,5.18,2.5,5.46,6.17a103.07,103.07,0,0,0,1.85,11.53c.49,2.57-.5,3.29-2.86,2.69a4.45,4.45,0,0,0-.47-.12c-10.28-1.42-10.28-1.42-12.15-12.72C525.71,179.07,525.68,179.2,535.59,181.74Zm-3.49,35.91c-1.92-11.59-1.94-11.53,9.26-7.61,2.39.84,3.8,1.93,4.09,4.64.46,4.18,1.28,8.32,2,12.47.41,2.33-.21,3.5-2.78,2.83l-.47-.12C531.61,226.87,534.46,230.37,532.1,217.66Zm10.13,61.63c-.5-4.65-1.38-9.27-2.24-13.87-.45-2.42.39-2.88,2.54-2.19,3.07,1,6.15,2,9.27,2.8a3.2,3.2,0,0,1,2.62,3c.33,2.4.77,4.78,1.17,7.18,1.75,10.51,1.78,10.39-8.62,8C544,283.57,542.57,282.4,542.24,279.29Zm4.29,25.7a25.43,25.43,0,0,0-.68-4.33c-1.7-10.28-1.74-10.11,8.4-7.54,3.43.87,4.87,2.51,5.17,5.88a62,62,0,0,0,1.59,9.6c1,4.1.18,5.91-4.33,4.51a11.45,11.45,0,0,0-2.86-.55C548.94,312.37,546.47,310,546.53,305Z"/><path class="cls-1" d="M477.64,453c-.34-2.56-.74-5.12-1.07-7.68-5-39.2-13.66-77.73-21.86-116.33-1.91-9-1.75-9.12-10.8-10.54-3-.47-4.47-1.57-4.87-4.76a175.26,175.26,0,0,0-3.22-19.22c-1.22-5.07.22-7.2,5.34-7.32,2.44-.06,4.43-.58,3.49-4.09-7.08-26.48-12.12-53.55-22.69-79-1.06-2.56-.63-4.11,1.36-5.87,4.07-3.62,7.94-7.46,12.52-11.8-4-.74-7.12-1.5-10.3-1.84-2.42-.26-3.43-1.26-3.37-3.68.16-6.81.25-13.63.3-20.45,0-2.34,1-3.17,3.34-2.79,4,.66,8,1.38,12,1.71,3.09.26,4.08,1.57,4.11,4.61,0,5,.55,10.08.89,15.58,7.92-6.63,8-6.63,7.71-15.38-1-33.27-2.14-66.53-2.92-99.8-.1-4.4-2.5-5.83-5.53-7.51Q396.8,31.61,351.51,6.41c-1-.57-2-1.79-3.74-.63L349,13.32Q386.08,237.13,423.11,461c.05.33.13.67.21,1ZM414.82,92.41c-.56-7.26-1.06-14.52-1.69-21.77-.25-2.87.1-4.27,3.58-3.09,5.81,2,11.73,3.65,17.67,5.2,2.17.57,2.83,1.67,2.91,3.71.28,7.11.61,14.23,1,21.33.15,2.57-.51,3.54-3.3,2.91-5.2-1.17-10.48-2-15.71-3C415.2,96.84,415.21,96.79,414.82,92.41Zm4.94,45.88c-.59-8.25-1.35-16.48-2.2-24.71-.35-3.41.66-4.35,4.05-3.41,4.83,1.35,9.76,2.37,14.67,3.39,2.07.43,3.26,1.32,3.09,2.8.21,9,.31,17.28.62,25.54.12,3.28-1.08,3.87-4.05,3.07-4.06-1.09-8.21-1.92-12.36-2.64C421.17,141.91,420,140.94,419.77,138.29Zm16.18,246.18c0,2.56.78,5.12,1.2,7.68.63,3.84,1.17,7.7,1.93,11.51.65,3.26-.5,3.87-3.6,3.37-7.27-1.19-7.3-1.06-8.5-8.38-1-6.24-2-12.49-3.13-18.7-.62-3.3-.37-4.55,3.74-4.12C433.23,376.42,435.92,378.73,435.95,384.47Zm-8-48.91c.49,7.73,2.26,15.38,3.68,23,.64,3.46,0,4.4-3.82,4-5.35-.58-8.14-2.48-8.29-8.21-.11-4-1.22-8-1.88-12-.88-5.28-1.71-10.56-2.64-15.83-.47-2.64,0-3.54,3-2.66C424,325.63,427.51,328.64,428,335.56ZM411,223q-5.76-1.91-11.62-3.55c-1.91-.53-2.45-1.81-2.71-3.55-.63-4.17-1.36-8.32-2-12.48s-1.33-8.33-2.08-12.48c-.43-2.37.49-3,2.63-2.28q6.18,2.17,12.34,4.43c1.73.63,2.36,2,2.64,3.75,1.26,7.85,2.52,15.69,3.9,23.52C414.58,223.21,413.69,223.87,411,223Zm-5.84-43.56a4.61,4.61,0,0,0-.45-.17c-14.93-5.07-14.93-5.07-17.52-20.74-.69-4.15-1.37-8.31-2.07-12.46-.41-2.42.64-3,2.72-2.15,4.78,2,9.52,4,14.33,6,2,.8,2.42,2.37,2.72,4.19,1.21,7.51,2.39,15,3.75,22.52C409.28,180,408.3,180.87,405.19,179.43ZM397.56,133c-4.21-1.18-8.4-2.43-12.65-3.45-2.14-.51-2.84-1.81-3.13-3.74-.64-4.17-1.36-8.32-2-12.48-.67-4-1.25-8-2-12-.48-2.44.17-3.46,2.68-2.68,4.79,1.49,9.56,3.05,14.35,4.57,1.67.53,2.06,1.88,2.3,3.38,1.29,7.84,2.51,15.69,3.94,23.5C401.59,133.42,400.14,133.69,397.56,133ZM443.07,331c10,.82,8-1.19,9.69,8,.45,2.39.8,4.79,1.2,7.18.59,3.67,1.09,7.37,1.85,11,.61,2.92-.24,4.08-3.33,4.21-7.82.33-7.81.44-9.12-7.41-1.09-6.54-2.11-13.1-3.27-19.63C439.62,331.78,440.35,330.81,443.07,331ZM449,372.26c5.43.53,8.71,2.33,8.61,8.39,0,2.55.77,5.12,1.19,7.68h0c.69,4.16,1.36,8.32,2.07,12.48.37,2.12-.3,2.84-2.59,2.7-7.36-.45-8.33-1.21-9.54-8.52-1.06-6.4-2-12.81-3.2-19.19C445,372.76,445.62,371.93,449,372.26ZM370.35,56.86c-.69-3.81.87-3.71,3.66-2.65q7.93,3,16,5.72c2.76.92,4.25,2.48,4.54,5.5.33,3.54,1.11,7,1.69,10.54.65,4,1.28,8,2,12,.43,2.45-.24,3.36-2.82,2.5-6-2-12-3.87-18-5.78a4.2,4.2,0,0,1-3.06-3.86C373.08,72.81,371.79,64.82,370.35,56.86Zm30.26,177c1-.51,1.81.32,2.65.81,3.36,1.93,6.7,3.9,10.13,5.7,1.82,1,2.4,2.42,2.68,4.27.57,3.84,1.25,7.66,1.88,11.49.65,4,1.28,8,2,12,.41,2.3.22,3.67-2.57,2.21q-5.15-2.71-10.34-5.35a5.05,5.05,0,0,1-2.93-4.1c-1.23-8-2.62-16-3.9-23.95C400.06,235.84,399.27,234.53,400.61,233.81Zm9.34,62c-1-6.19-1.66-10.35-2.42-14.48-.44-2.42.06-3.63,2.66-2.32,3.75,1.89,7.43,3.91,11.17,5.83,1.54.79,1.73,2.21,2,3.66,1.35,8.14,2.64,16.29,4.07,24.41.49,2.81-.12,3.76-2.86,2.25a3.79,3.79,0,0,0-.87-.43C412.6,312.07,409.49,304,409.95,295.86Z"/><path class="cls-1" d="M434.41,207.07c2.46,7.9,5.09,15.74,7.38,23.71,11.68,40.62,20.19,82,28.84,123.3,6.69,32,12.73,64,19.1,96.07.05.27.11.53.16.78l58.86-9.75L500.59,150.26l-1.16-7a7.64,7.64,0,0,0-1.67.62q-31.28,29.24-62.59,58.46C433.4,204,433.88,205.36,434.41,207.07Z"/><path class="cls-2" d="M641.25,176.77c-2.48,9.52-2.82,19.36-4.1,29.05-3.25,24.75-6.11,49.55-9.16,74.33q-7.22,58.72-14.49,117.44-3,24-5.8,48.08c-1.76,14.71-6.67,20-21.29,22.76Q443,495.7,299.59,522.85c-4.66.88-6.68,2.62-7.33,7.35-1.91,13.84-4.15,27.64-6.54,41.41-.8,4.6.53,5.26,4.81,4.44q63.32-12.23,126.69-24.16Q506.35,534.94,595.49,518c3.42-.65,6.82-1.45,10.39-.83,8,1.38,13.65,7.35,14.13,15.17.51,8.23-4.25,15-12.34,17.08-4.67,1.19-9.48,1.84-14.21,2.87-1.36.29-3.41-.17-3.82,1.6s1.52,2.42,2.57,3.38C604.7,568.68,611,583,611.54,599.69c1.22,35.87-29.57,64.5-65.31,61.32a59.93,59.93,0,0,1-54-68.54,50.92,50.92,0,0,1,5.8-18c.55-1,1.46-2.17.83-3.23-.89-1.5-2.43-.52-3.63-.3q-59.68,11.29-119.34,22.69c-1.21.23-3-.13-3.39,1.48s1.4,2.06,2.31,2.93c22.28,21.5,26.46,51.11,9.91,77.2-11.41,18-28.63,27.14-49.94,27.24s-38.56-9.1-50.19-26.76c-12.2-18.53-13.44-38.59-4.15-59,.64-1.42,2.59-2.79,1.24-4.41-1-1.25-2.82-.17-4.24.06-2.8.45-5.56,1.07-8.36,1.54-13.46,2.3-22.6-6.58-20.52-20,3-19.24,6-38.48,9.11-57.69.65-3.93.33-5.42-4.32-4.52-15.68,3-22.79-1.05-28.53-15.82Q197.62,446,170.51,376.14q-26.92-69.4-53.79-138.82c-.18-.47-.35-.94-.52-1.41-5.93-16.77-6-16.58-23.22-19.63-22.12-3.91-44.15-8.32-66.27-12.2C18.18,202.59,11.4,199,6.84,191.5l-1.68-8.84c1.47-4.37,2.15-9.12,5.57-12.59a20.83,20.83,0,0,1,19.64-6.16q37.54,7,75.06,14.09,10.06,1.88,20.14,3.64c9.11,1.59,15.23,6.46,18.63,15.3,15.16,39.48,30.53,78.88,45.84,118.31q23.6,60.78,47.22,121.55c6.32,16.31,12.65,32.61,18.73,49,1.32,3.55,2.94,4.35,6.6,3.65q150.77-28.8,301.58-57.35c3.29-.62,5.19-1.56,5.66-5.45,5-42,10.24-83.93,15.37-125.9,3.91-32.05,7.69-64.12,11.73-96.16.51-4.08,0-5.18-4.41-4.52-32.95,5-65.93,9.77-98.91,14.6Q436.72,223,379.84,231.31q-68.75,10-137.51,20c-13.59,2-23-3.41-25.63-14.69-2.88-12.37,4.61-22.75,18.15-24.81,14.33-2.18,28.7-4.11,43-6.2q40.56-5.91,81.11-11.88,72-10.51,143.94-21c36.11-5.26,72.26-10.24,108.31-15.88,12.06-1.89,21.75,0,28.32,11.09ZM360.72,637.95A26.34,26.34,0,0,0,330,616.32c-14.42,2.5-24.38,16.45-21.9,30.69A27.12,27.12,0,0,0,339.3,669,26.74,26.74,0,0,0,360.72,637.95Zm217-41.67a26.68,26.68,0,0,0-52.45,9.87,26.69,26.69,0,1,0,52.45-9.87Z"/></g></g></svg>