<svg xmlns="http://www.w3.org/2000/svg" width="155" height="155"   viewBox="0 0 1821 1821"><defs><style>.cls-1{fill:#989898;}.cls-2{fill:#348798;}</style></defs><title>calendar</title><g id="Слой_2" data-name="Слой 2"><g id="Слой_1-2" data-name="Слой 1"><path class="cls-1" d="M0,340c2.76-8.52,3-17.63,6-26.1C23.08,266.17,56.12,237.1,106.45,229c20-3.2,40.26-.75,60.39-1.31,3.86-.11,4.19,2.17,4.19,5.18q0,26,.1,52c.39,58,42.55,105.16,100.24,112.23,60.88,7.46,117.39-35.78,125.72-96.19,2-14.77.64-29.61,1-44.42.19-8,.07-16,0-24,0-3.68,1-5.8,5.32-4.88a26.61,26.61,0,0,0,5.49.1q331.74,0,663.47,0c9.77,0,8.81-1.59,8.9,8.63.17,18.15-.3,36.29.56,54.45,1.24,26.17,10.68,48.92,27.89,68.42,25.06,28.4,57,41.05,94.45,38.41,49.63-3.5,90.32-39.37,101.77-88.36a112.73,112.73,0,0,0,2.93-25.72c0-17,.09-34-.07-51,0-3.62.88-5,4.73-4.92,16.46.43,32.89-.67,49.4.07,50.33,2.25,97,38.6,111.12,87.15a149,149,0,0,1,5.81,41.84q.06,216,0,432c0,8.18,0,8.19-8,8.19h-97.5c-8.68,0-8.7,0-8.69-8.51q.07-105.24.15-210.49c0-8.65-.25-8.89-9-8.89H122.88c-8.75,0-8.88.14-8.88,9q0,385.73,0,771.47c0,1.67-.08,3.34.06,5,.57,6.56,4.15,10.3,10.67,11.08a50.51,50.51,0,0,0,6,.16h658c8.3,0,8.31,0,8.31,8.1q0,49.25,0,98.5c0,7-.57,7.58-7.77,7.55-50.32-.18-100.63-.55-150.94-.57-171-.07-342-.55-513,.26-58.48.28-112.16-42.25-123-100.94-.72-3.88-.68-7.92-2.32-11.62Z"/><path class="cls-1" d="M1342,1821c-8.39-1-16.77-2-25.16-2.85a452.13,452.13,0,0,1-108.12-24.9c-55.79-20.32-105.24-51-149.17-90.89-57.9-52.55-100.51-115.12-125-189.62-10.28-31.22-16.63-63.28-20.69-95.88a471.25,471.25,0,0,1-2.6-83.27,413.61,413.61,0,0,1,33.52-143c26.58-61.57,64.79-115.09,113.44-161,50.18-47.35,109.06-79.81,175-99.66a450.16,450.16,0,0,1,78.95-16.66,454.76,454.76,0,0,1,86.68-1.64,473.57,473.57,0,0,1,108.92,21.07A438.29,438.29,0,0,1,1624,990.51a470.6,470.6,0,0,1,64.71,54.06q86.86,87,117.52,206.14c7.45,28.91,12.63,58.15,13.88,88,0,1.16,0,2.35.88,3.27v47c-.9.93-.82,2.13-.87,3.29a390.23,390.23,0,0,1-8,63.25c-20.82,100.09-69.06,184.28-145.89,252-48.65,42.85-103.71,74.27-165.78,93.22a474.87,474.87,0,0,1-85.33,17.49c-8.38,1-16.88.9-25.16,2.8Zm365-455.25c.24-186.31-150.58-341.22-340.68-341.43-189.42-.21-340.58,152.22-341.83,338.87-1.28,191.37,153.93,343.74,341,343.72C1555.26,1706.9,1707.26,1552.27,1707,1365.75Z"/><path class="cls-1" d="M1204,0c1.8,1.36,4,1.39,6.1,1.93A56.2,56.2,0,0,1,1252,56.32c0,76.29.15,152.58-.09,228.87-.07,23.77-11.71,41.26-33,51-21.52,9.84-42.3,6.63-60.72-8.46-13.59-11.12-20.05-26-20.08-43.35q-.21-113.44,0-226.88c.07-27.84,16.85-48.79,43.84-56,1.37-.37,3.08-.05,4.1-1.48Z"/><path class="cls-2" d="M797,1138.52q0,53.24,0,106.47c0,6.83-.18,7-7,7H576c-6.85,0-7-.15-7-7q0-107,0-213.95c0-6.84.18-7,7-7H790c6.8,0,7,.22,7,7Q797,1084.78,797,1138.52Z"/><path class="cls-2" d="M797,796.55q0,53.48,0,107c0,6.83-1,7.65-8,7.07-2-.16-4-.17-6-.17H576.6c-7.6,0-7.6,0-7.6-7.36q0-106.47,0-212.93c0-7.38.12-7.54,7.52-7.53q89.47.11,178.93.24c11.49,0,23-.2,34.47-.23,6.81,0,7.07.3,7.07,7Q797,743.07,797,796.55Z"/><path class="cls-2" d="M455.41,1138.53q0,53.23,0,106.46c0,6.89-.12,7-7,7H234.54c-6.7,0-7-.23-6.94-7.06.06-20.82.25-41.64.23-62.47q-.05-75.47-.24-150.93c0-7.45.09-7.53,7.49-7.54H448c7.4,0,7.41,0,7.41,7.57Q455.42,1085.05,455.41,1138.53Z"/><path class="cls-2" d="M910.34,797q0-54.48,0-109c0-3.62,1.29-5.65,5.23-5.48,4.32.19,8.66.26,13,.26q95.72,0,191.44,0c3.49,0,7-.23,10.48-.23,7.69,0,8,.24,8,7.72,0,6-.23,12-.23,18q0,93,0,185.94,0,5.74.22,11.48c.14,3.68-1.86,5.11-5.18,5.08-3.16,0-6.31-.37-9.46-.37q-99.72,0-199.43,0c-13.72,0-13.72,0-13.72-13.95q0-49.73,0-99.47Z"/><path class="cls-2" d="M455.41,796.86q0,53.5,0,107c0,6.65-.54,7.11-7.16,6.66-1.83-.12-3.66-.1-5.49-.1h-208c-7.09,0-7.17-.06-7.16-7.3.07-33.83.24-67.65.23-101.48,0-37-.16-74-.23-111,0-8,.07-8.05,8.08-8q92.24.11,184.48.24c9.5,0,19-.22,28.49-.22,6.52,0,6.76.3,6.77,6.75Q455.42,743.11,455.41,796.86Z"/><path class="cls-2" d="M1308.84,1251.31q0-81.5,0-163c0-7.12.57-7.53,7.66-7.47,19.33.17,38.67-.32,58,.39,72.9,2.68,136,28.88,188.73,79.58,47,45.25,74.8,100.44,84.51,164.82,2.56,17,2.84,34.16,2.86,51.31q0,18.75,0,37.5c0,8.13,0,8.14-7.91,8.14q-131,0-262,0c-21,0-42,.17-63,.24-8.6,0-8.85-.27-8.85-9Q1308.84,1332.56,1308.84,1251.31Z"/></g></g></svg>