<svg xmlns="http://www.w3.org/2000/svg" xmlns:xlink="http://www.w3.org/1999/xlink" width="15" height="14" viewBox="0 0 15 14"><defs><path id="66rha" d="M683.99 586.684c-.395.4-1.036.4-1.431 0a1.032 1.032 0 0 1 0-1.447l4.173-4.22h-10.72c-.559 0-1.012-.457-1.012-1.023 0-.565.453-1.024 1.013-1.024h10.72l-4.174-4.218a1.032 1.032 0 0 1 0-1.448c.395-.4 1.036-.4 1.432 0l5.729 5.791c.242.245.318.582.262.9.056.317-.02.653-.262.899z"/></defs><g><g transform="translate(-675 -573)"><use fill="#fff" xlink:href="#66rha"/></g></g></svg>