<svg xmlns="http://www.w3.org/2000/svg" xmlns:xlink="http://www.w3.org/1999/xlink" width="32" height="32" viewBox="0 0 32 32"><defs><path id="i5wda" d="M1510 2401c-8.837 0-16-7.164-16-16 0-8.837 7.163-16 16-16s16 7.163 16 16c0 8.836-7.163 16-16 16zm6.535-15.122a.982.982 0 0 0 .26-.878.982.982 0 0 0-.26-.879l-5.656-5.657a1 1 0 1 0-1.415 1.414l4.122 4.122H1503a1 1 0 1 0 0 2h10.586l-4.122 4.121a1 1 0 1 0 1.415 1.415z"/></defs><g><g transform="translate(-1494 -2369)"><use fill="#fff" xlink:href="#i5wda"/></g></g></svg>