<svg xmlns="http://www.w3.org/2000/svg" xmlns:xlink="http://www.w3.org/1999/xlink" width="50" height="50" viewBox="0 0 50 50"><defs><path id="8iika" d="M424.415 581.44l-18.997 12.188c-1.033.668-2.418.372-2.418-.61v-26.036c0-1.139 1.291-1.215 2.418-.61l18.997 12.188a2.06 2.06 0 0 1 0 2.88zM411 605c-13.807 0-25-11.193-25-25s11.193-25 25-25 25 11.193 25 25-11.193 25-25 25zm0-48c-12.703 0-23 10.297-23 23 0 12.702 10.297 23 23 23 12.702 0 23-10.298 23-23 0-12.703-10.298-23-23-23z"/><linearGradient id="8iikb" x1="411" x2="411" y1="555" y2="605" gradientUnits="userSpaceOnUse"><stop offset="0" stop-opacity=".24"/><stop offset="1" stop-color="#fff" stop-opacity=".24"/></linearGradient></defs><g><g transform="translate(-386 -555)"><use fill="#fff" xlink:href="#8iika"/><use fill="url(#8iikb)" xlink:href="#8iika"/></g></g></svg>