<svg xmlns="http://www.w3.org/2000/svg" width="13" height="13" viewBox="0 0 13 13"><path fill="#c5c5c5" d="M11.33 0C12.25 0 13 .7 13 1.7v9.6c0 1-.75 1.7-1.67 1.7H1.67C.75 13 0 12.3 0 11.3V1.7C0 .7.75 0 1.67 0zM8.88 2v1.4c0 .4.27.6.59.6h1.47c.32 0 .58-.2.58-.6V2c0-.3-.26-.6-.58-.6H9.47c-.32 0-.59.3-.59.6zm1.51 3.5a3.94 3.94 0 0 1-3.88 5 3.94 3.94 0 0 1-4.04-3.9c0-.4.06-.8.17-1.1h-1.2V11c0 .3.24.5.52.5h9.05c.29 0 .52-.2.52-.5V5.5zM6.51 3.9A2.63 2.63 0 0 0 3.9 6.5C3.9 7.9 5.07 9 6.51 9s2.61-1.1 2.61-2.5-1.17-2.6-2.61-2.6z"/></svg>