<svg xmlns="http://www.w3.org/2000/svg" width="16" height="18" viewBox="0 0 16 18"><path fill="#c5c5c5" d="M13.53 13.2h-1.05v-.6c0-.3.23-.5.5-.5h.07c.27 0 .5.2.5.5zm-3.46-.9v2.8c0 .2-.22.4-.49.4s-.48-.2-.48-.4v-2.8c0-.2.21-.4.48-.4s.49.2.49.4zM16 10.4v5.3c0 1.3-1.18 2.3-2.62 2.3H2.62C1.18 18 0 17 0 15.7v-5.3c0-1.3 1.18-2.3 2.62-2.3h10.76c1.44 0 2.62 1 2.62 2.3zM3.34 16.3l-.01-5.6h1.34v-.9H1.11v.8l1.11.1v5.6zm2.88-4.8v3c0 .4.03.6 0 .7-.09.2-.5.5-.65 0-.03 0-.01-.3-.01-.7v-3H4.45v3c.01.4-.01.8.01.9.03.3.02.6.29.8.5.3 1.45-.1 1.69-.6v.7h.9v-4.8zm4.67 3.4v-2.5c0-.9-.75-1.5-1.78-.7V9.8H8v6.4h.91l.08-.4c1.17 1 1.91.3 1.9-.9zm3.49-.3h-.84v.5c0 .3-.21.5-.46.5h-.16c-.25 0-.46-.2-.46-.5V14h1.92v-.7c0-.5-.02-1-.06-1.3-.14-.8-1.47-1-2.15-.5-.21.1-.37.3-.46.6-.1.2-.14.6-.14 1v1.5c0 2.5 3.19 2.1 2.81 0zM9.99 6.1l-.02-.8V1.9h1.02v3.9c0 .2.18.4.4.4.23 0 .41-.2.41-.4V1.9h.98v5h-1.24l.02-.4c-.09.1-.19.3-.31.4-.13 0-.27.1-.43.1-.18 0-.34-.1-.45-.1a.66.66 0 0 1-.27-.4.87.87 0 0 1-.11-.4zM6.47 2.6c.08-.2.23-.4.45-.6.22-.2.5-.2.84-.2.29 0 .53 0 .74.1.21.1.37.3.48.4.11.2.18.4.23.5.04.2.06.5.06.8v1.3c0 .5-.02.8-.06 1-.04.2-.12.4-.24.6-.13.2-.29.3-.48.4-.2.1-.42.1-.67.1-.29 0-.53 0-.72-.1-.2 0-.35-.2-.46-.3-.11-.2-.19-.3-.23-.6-.05-.2-.07-.5-.07-.9V3.8c0-.5.04-.9.13-1.2zm.84 3.1c0 .3.22.5.49.5s.5-.2.5-.5V3.1c0-.3-.23-.5-.5-.5s-.49.2-.49.5zM3.88 7h1.17V3.3L6.43 0H5.15l-.73 2.4L3.67 0H2.41l1.47 3.3z"/></svg>