<?xml version="1.0" encoding="UTF-8"?>
<svg width="200px" height="200px" viewBox="0 0 200 200" version="1.1" xmlns="http://www.w3.org/2000/svg" xmlns:xlink="http://www.w3.org/1999/xlink">
    <!-- Generator: sketchtool 49.3 (51167) - http://www.bohemiancoding.com/sketch -->
    <title>1D1450CC-B71A-4845-A3F8-E4A70DAC273B</title>
    <desc>Created with sketchtool.</desc>
    <defs></defs>
    <g id="Page-5" stroke="none" stroke-width="1" fill="none" fill-rule="evenodd">
        <g id="Bosch_403" transform="translate(-620.000000, -283.000000)" fill="#D0D0D0">
            <g id="403" transform="translate(620.000000, 283.000000)">
                <path d="M195.068359,19.5236207 L58.364868,19.5236207 L56.088257,4.38995352 C55.7235719,1.95922852 53.6743164,0.1953125 51.2145996,0.1953125 L7.56225586,0.1953125 C5.10406484,0.1953125 3.05328359,1.95922852 2.68859844,4.39147969 C-0.0961304687,22.9232789 0.0274658203,22.0352172 0.0106811719,22.2824098 C-0.00457765625,22.5082398 0.00152587891,87.3031617 0,194.868469 C0,197.587586 2.21252422,199.80011 4.93164062,199.80011 L195.068359,199.80011 C197.787476,199.80011 200,197.587586 200,194.868469 L200,24.4552613 C200,21.7361449 197.787476,19.5236207 195.068359,19.5236207 Z M8.41369609,6.11267109 L50.3646852,6.11267109 L52.3818969,19.5236207 L6.39495859,19.5236207 L8.41369609,6.11267109 Z M194.082641,193.882752 L5.91735859,193.882752 L5.91735859,49.507141 L194.082641,49.507141 L194.082641,193.882752 Z M194.082641,43.5897828 L5.91735859,43.5897828 L5.91735859,25.4409789 L194.082641,25.4409789 L194.082641,43.5897828 Z" id="Shape" fill-rule="nonzero"></path>
                <path d="M13.0844117,37.2756957 L131.031799,37.2756957 C132.666016,37.2756957 133.990479,35.9512328 133.990479,34.3170164 C133.990479,32.6828004 132.666016,31.3583375 131.031799,31.3583375 L13.0844117,31.3583375 C11.4501953,31.3583375 10.1257324,32.6828004 10.1257324,34.3170164 C10.1257324,35.9512328 11.4501953,37.2756957 13.0844117,37.2756957 Z" id="Shape" fill-rule="nonzero"></path>
                <path d="M142.866516,37.2756957 L170.610046,37.2756957 C172.244263,37.2756957 173.568726,35.9512328 173.568726,34.3170164 C173.568726,32.6828004 172.244263,31.3583375 170.610046,31.3583375 L142.866516,31.3583375 C141.2323,31.3583375 139.907837,32.6828004 139.907837,34.3170164 C139.907837,35.9512328 141.2323,37.2756957 142.866516,37.2756957 Z" id="Shape" fill-rule="nonzero"></path>
                <path d="M186.915588,34.3170164 C186.915588,36.4959719 185.150146,38.2614137 182.971191,38.2614137 C180.792236,38.2614137 179.026795,36.4959719 179.026795,34.3170164 C179.026795,32.1380617 180.792236,30.3726195 182.971191,30.3726195 C185.150146,30.3726195 186.915588,32.1380617 186.915588,34.3170164 Z" id="Shape" fill-rule="nonzero"></path>
                <path d="M34.3536375,147.264099 L165.646363,147.264099 C168.510437,147.264099 170.840454,144.934082 170.840454,142.070007 L170.840454,68.434143 C170.840454,65.5700684 168.510437,63.2400512 165.646363,63.2400512 L66.9723512,63.2400512 C65.3381348,63.2400512 64.0136719,64.5645141 64.0136719,66.1987305 C64.0136719,67.8329469 65.3381348,69.1574098 66.9723512,69.1574098 L164.923096,69.1574098 L164.923096,141.346741 L35.0769043,141.346741 L35.0769043,69.1574098 L55.1376344,69.1574098 C56.7718508,69.1574098 58.0963133,67.8329469 58.0963133,66.1987305 C58.0963133,64.5645141 56.7718508,63.2400512 55.1376344,63.2400512 L34.3536375,63.2400512 C31.4895629,63.2400512 29.1595461,65.5700684 29.1595461,68.434143 L29.1595461,142.070007 C29.1595461,144.934082 31.4895629,147.264099 34.3536375,147.264099 Z" id="Shape" fill-rule="nonzero"></path>
                <path d="M167.225647,159.547424 L32.7743531,159.547424 C31.1401367,159.547424 29.8156738,160.871887 29.8156738,162.506104 C29.8156738,164.14032 31.1401367,165.464783 32.7743531,165.464783 L167.225647,165.464783 C168.859863,165.464783 170.184326,164.14032 170.184326,162.506104 C170.184326,160.871887 168.859863,159.547424 167.225647,159.547424 Z" id="Shape" fill-rule="nonzero"></path>
                <path d="M167.225647,177.709961 L123.503113,177.709961 C121.868896,177.709961 120.544434,179.034424 120.544434,180.66864 C120.544434,182.302856 121.868896,183.62732 123.503113,183.62732 L167.225647,183.62732 C168.859863,183.62732 170.184326,182.302856 170.184326,180.66864 C170.184326,179.034424 168.859863,177.709961 167.225647,177.709961 Z" id="Shape" fill-rule="nonzero"></path>
                <path d="M111.668396,177.709961 L32.7743531,177.709961 C31.1401367,177.709961 29.8156738,179.034424 29.8156738,180.66864 C29.8156738,182.302856 31.1401367,183.62732 32.7743531,183.62732 L111.668396,183.62732 C113.302613,183.62732 114.627075,182.302856 114.627075,180.66864 C114.627075,179.034424 113.302613,177.709961 111.668396,177.709961 Z" id="Shape" fill-rule="nonzero"></path>
                <path d="M73.9239999,123 L73.9239999,115.209 L55.0029999,115.209 L55.0029999,109.856 L72.7579999,84.522 L79.1709999,84.522 L79.1709999,110.651 L84.3119999,110.651 L84.3119999,115.209 L79.1709999,115.209 L79.1709999,123 L73.9239999,123 Z M73.9239999,89.875 L60.1439999,110.651 L73.9239999,110.651 L73.9239999,89.875 Z M100.53,84.575 C108.798,84.575 114.151,92.207 114.151,104.026 C114.151,115.845 108.798,123.53 100.583,123.53 C92.156,123.53 86.909,115.898 86.909,103.814 C86.909,92.26 92.368,84.575 100.53,84.575 Z M100.53,89.133 C95.707,89.133 92.686,94.804 92.686,103.867 C92.686,113.407 95.601,118.972 100.636,118.972 C105.406,118.972 108.374,113.248 108.374,104.026 C108.374,94.751 105.406,89.133 100.53,89.133 Z M123.638,95.334 L118.921,94.062 C119.875,90.882 121.147,88.974 123.373,87.225 C125.599,85.476 128.514,84.575 131.8,84.575 C138.69,84.575 143.619,88.815 143.619,94.804 C143.619,98.62 141.711,101.217 137.63,102.966 C142.4,104.503 144.732,107.577 144.732,112.347 C144.732,119.184 139.485,123.53 131.27,123.53 C127.189,123.53 123.585,122.364 121.041,120.191 C118.815,118.283 117.755,116.375 117.066,113.089 L122.26,111.87 C123.479,116.64 126.447,118.972 131.376,118.972 C136.252,118.972 138.955,116.587 138.955,112.347 C138.955,108.001 136.093,105.563 131.005,105.563 L127.295,105.563 L127.295,101.005 L130.74,101.005 C135.404,101.005 138.107,98.832 138.107,95.069 C138.107,91.412 135.616,89.133 131.694,89.133 C127.666,89.133 125.175,91.041 123.638,95.334 Z"></path>
            </g>
        </g>
    </g>
</svg>