<svg xmlns="http://www.w3.org/2000/svg" xmlns:xlink="http://www.w3.org/1999/xlink" width="69" height="64" viewBox="0 0 69 64"><defs><path id="hvi9a" d="M963.299 431.327h-4.375l4.375-2.9zm47.96-23.977v29.364l-19.082 10.123-3.127-2.073a1.14 1.14 0 0 0-1.26 0l-3.127 2.072-19.084-10.122V407.35zm6.658 23.987h-4.377v-2.912zm-4.377 2.27h3.578l-3.578 1.888zm7.02.755v31.289l-26.22-17.38zm-2.633 32.273h-59.004l29.502-19.553zm-61.647-32.273l26.22 13.908-26.22 17.38zm7.019 1.132l-3.576-1.887h3.576zm59.031-3.977l-8.79-5.828V406.21c0-.63-.51-1.14-1.14-1.14h-47.96c-.63 0-1.141.51-1.141 1.14v19.48l-8.789 5.827c-.307.204-.51.553-.51.95v35.308c0 .63.51 1.14 1.14 1.14h66.56c.63 0 1.14-.51 1.14-1.14v-35.308c0-.397-.203-.746-.51-.95z"/><path id="hvi9b" d="M988.003 426.382a2.65 2.65 0 0 1-2.648-2.645 2.65 2.65 0 0 1 2.648-2.645 2.65 2.65 0 0 1 2.649 2.645 2.65 2.65 0 0 1-2.649 2.645zm.42 8.672h9.085a1.14 1.14 0 0 0 0-2.28h-9.084c-4.38 0-7.944-3.563-7.944-7.944v-.336c0-4.38 3.564-7.944 7.944-7.944s7.943 3.564 7.943 7.944v.841c0 .948-.77 1.72-1.72 1.72-.947 0-1.719-.772-1.719-1.72v-1.598a4.93 4.93 0 0 0-4.925-4.925 4.93 4.93 0 0 0-4.925 4.925 4.93 4.93 0 0 0 4.925 4.925 4.903 4.903 0 0 0 3.244-1.224 4 4 0 0 0 3.4 1.897c2.206 0 4-1.794 4-4v-.841c0-5.638-4.586-10.224-10.223-10.224-5.638 0-10.224 4.586-10.224 10.224v.336c0 5.638 4.586 10.224 10.224 10.224z"/></defs><g><g transform="translate(-954 -405)"><use fill="#848e99" xlink:href="#hvi9a"/></g><g transform="translate(-954 -405)"><use fill="#848e99" xlink:href="#hvi9b"/></g></g></svg>