<?xml version="1.0" encoding="UTF-8"?>
<svg width="156px" height="43px" viewBox="0 0 156 43" version="1.1" xmlns="http://www.w3.org/2000/svg" xmlns:xlink="http://www.w3.org/1999/xlink">
    <!-- Generator: sketchtool 49.3 (51167) - http://www.bohemiancoding.com/sketch -->
    <title>88B432F0-2D51-441C-8E29-57B4E6BB65C3</title>
    <desc>Created with sketchtool.</desc>
    <defs>
        <polygon id="path-1" points="0 48.0925926 159.770909 48.0925926 159.770909 0.299444444 0 0.299444444"></polygon>
    </defs>
    <g id="Page-1" stroke="none" stroke-width="1" fill="none" fill-rule="evenodd">
        <g id="Dewalt-Stanley" transform="translate(-70.000000, -57.000000)">
            <g id="Page-1" transform="translate(68.000000, 54.000000)">
                <polygon id="Fill-2" fill="#FFCA05" points="133.365636 18.9434 133.360182 10.5453444 157.164727 10.5453444 157.164727 18.9434 150.708364 18.9434 150.708364 39.1123444 139.519273 39.1123444 139.519273 18.9434"></polygon>
                <polygon id="Fill-3" fill="#FFCA05" points="137.108545 39.09465 117.369455 39.09465 117.369455 10.4024278 128.568545 10.4024278 128.568545 30.7047611 137.108545 30.7047611"></polygon>
                <path d="M102.954545,28.3369722 L101.51,21.6430278 L99.9327273,28.3369722 L102.954545,28.3369722 Z M97.3309091,39.094287 L86.0918182,39.094287 L95.6272727,10.4020648 L107.319091,10.4020648 L116.358182,39.094287 L105.559091,39.094287 L104.54,35.3103981 L98.3090909,35.3103981 L97.3309091,39.094287 Z" id="Fill-4" fill="#FFCA05"></path>
                <polygon id="Fill-5" fill="#FFCA05" points="73.5950909 10.4284704 76.5169091 23.2864333 79.3032727 10.4457111 90.3450909 10.4457111 81.8223636 39.1225074 71.7969091 39.1225074 68.7078182 26.4641741 65.3741818 39.1225074 55.3550909 39.1225074 47.6196364 10.4457111 58.4632727 10.4457111 61.166 23.3862481 64.1778182 10.4284704"></polygon>
                <polygon id="Fill-6" fill="#FFCA05" points="48.2919091 39.0938333 32.2500909 39.0938333 32.2500909 16.3641852 47.9173636 16.3641852 47.9173636 22.4900926 40.5955455 22.4900926 40.5955455 24.7831111 47.1519091 24.7831111 47.1355455 30.7021296 40.5955455 30.7021296 40.5955455 32.9688333 48.2882727 32.9688333"></polygon>
                <g id="Group-13" transform="translate(0.000000, 0.607872)">
                    <path d="M19.4384545,23.7552 C19.4384545,21.6264222 18.9639091,20.1645889 18.0211818,19.3733296 C17.0793636,18.581163 15.4711818,18.1855333 13.2039091,18.1855333 L13.2039091,29.4392 C15.563,29.4392 17.1939091,29.0054593 18.0920909,28.1370704 C18.9893636,27.2695889 19.4384545,25.8032185 19.4384545,23.7552 M15.3348182,38.5014778 L2.99118182,38.5014778 L2.99118182,9.72032963 L15.573,9.72032963 C20.3520909,9.72032963 24.0048182,10.8264593 26.5239091,13.0387185 C29.2039091,15.3861815 30.5439091,18.8806074 30.5439091,23.5138296 C30.5439091,28.7386815 29.1620909,32.5915333 26.4048182,35.0687556 C23.8593636,37.3536074 20.1657273,38.5014778 15.3348182,38.5014778" id="Fill-7" fill="#FFCA05"></path>
                    <mask id="mask-2" fill="white">
                        <use xlink:href="#path-1"></use>
                    </mask>
                    <g id="Clip-10"></g>
                    <polygon id="Fill-9" fill="#FFCA05" mask="url(#mask-2)" points="3.01818182 6.81462963 157.13 6.81462963 157.13 3.19044444 3.01818182 3.19044444"></polygon>
                    <polygon id="Fill-11" fill="#FFCA05" mask="url(#mask-2)" points="3.01818182 45.3331667 157.13 45.3331667 157.13 41.7089815 3.01818182 41.7089815"></polygon>
                    <path d="M154.468273,33.1629278 C154.807364,33.1629278 155.139182,33.2309833 155.465545,33.3698167 C155.790091,33.5068352 156.070091,33.6955759 156.305545,33.9342241 C156.540091,34.1774093 156.721,34.4587056 156.847364,34.7753907 C156.974636,35.0920759 157.037364,35.4223722 157.037364,35.7653722 C157.037364,36.0539278 156.985545,36.3379463 156.880091,36.62015 C156.774636,36.9023537 156.624636,37.1609648 156.428273,37.3977981 C156.178273,37.6972426 155.883727,37.9250019 155.541909,38.0819833 C155.199182,38.2389648 154.825545,38.3179093 154.421,38.3179093 C154.141,38.3179093 153.863727,38.2670944 153.591,38.1672796 C153.317364,38.0665574 153.063727,37.9240944 152.831909,37.7380759 C152.526455,37.4894463 152.292818,37.1927241 152.129182,36.8479093 C151.963727,36.5030944 151.881,36.134687 151.881,35.7435944 C151.881,35.4060389 151.946455,35.0793722 152.075545,34.7645019 C152.204636,34.4496315 152.390091,34.17015 152.632818,33.9269648 C152.871909,33.684687 153.151909,33.4977611 153.471,33.3643722 C153.791,33.2291685 154.122818,33.1629278 154.468273,33.1629278 Z M156.704636,35.7472241 C156.704636,35.12565 156.485545,34.5920944 156.047364,34.1483722 C155.609182,33.70465 155.083727,33.4823352 154.468273,33.4823352 C153.851909,33.4823352 153.321909,33.70465 152.879182,34.1483722 C152.436455,34.5920944 152.214636,35.12565 152.214636,35.7472241 C152.214636,36.3742426 152.433727,36.9050759 152.869182,37.3424463 C153.306455,37.7798167 153.837364,37.9985019 154.461,37.9985019 C155.079182,37.9985019 155.606455,37.7780019 156.045545,37.3360944 C156.485545,36.8923722 156.704636,36.3633537 156.704636,35.7472241 Z M154.541,34.239113 C154.889182,34.239113 155.169182,34.3044463 155.380091,34.4360204 C155.590091,34.5675944 155.695545,34.7372796 155.695545,34.9450759 C155.695545,35.145613 155.615545,35.3035019 155.456455,35.4205574 C155.296455,35.5385204 155.031,35.6292611 154.661,35.693687 C154.895545,35.7644648 155.071909,35.8579278 155.191,35.9722611 C155.309182,36.0884093 155.392818,36.2444833 155.441,36.4422981 C155.452818,36.4903907 155.465545,36.5629833 155.477364,36.6591685 C155.507364,36.8787611 155.577364,36.98765 155.688273,36.98765 C155.755545,36.98765 155.810091,36.9540759 155.850091,36.885113 C155.889182,36.81615 155.909182,36.722687 155.909182,36.6047241 L155.909182,36.5929278 C155.914636,36.5675204 155.917364,36.5439278 155.917364,36.5212426 L156.079182,36.5212426 L156.079182,36.6119833 C156.079182,36.8025389 156.029182,36.9513537 155.927364,37.0593352 C155.826455,37.1655019 155.683727,37.2199463 155.500091,37.2199463 C155.386455,37.2199463 155.285545,37.1999833 155.201,37.1618722 C155.113727,37.1228537 155.051,37.0675019 155.010091,36.9958167 C154.961909,36.9059833 154.935545,36.7744093 154.930091,36.5992796 C154.924636,36.4250574 154.915545,36.3070944 154.901,36.2462981 C154.860091,36.0793352 154.780091,35.9522981 154.661,35.8688167 C154.542818,35.78715 154.383727,35.7454093 154.184636,35.7454093 L154.080091,35.7454093 L154.080091,36.6328537 C154.080091,36.7571685 154.110091,36.8433722 154.173727,36.8932796 C154.234636,36.9440944 154.347364,36.9767611 154.512818,36.9912796 L154.512818,37.1509833 L153.100091,37.1509833 L153.100091,36.9912796 C153.267364,36.9822056 153.382818,36.9513537 153.444636,36.9014463 C153.507364,36.8497241 153.540091,36.7617056 153.540091,36.6328537 L153.540091,34.7672241 C153.540091,34.6392796 153.508273,34.5485389 153.446455,34.4977241 C153.385545,34.4450944 153.269182,34.4133352 153.100091,34.4015389 L153.100091,34.239113 L154.541,34.239113 Z M154.080091,34.6474463 L154.080091,35.5893352 C154.108273,35.5920574 154.138273,35.5938722 154.165545,35.595687 C154.193727,35.5965944 154.220091,35.5975019 154.243727,35.5975019 L154.312818,35.5975019 C154.566455,35.5975019 154.763727,35.54215 154.903727,35.4341685 C155.044636,35.3252796 155.115545,35.1719278 155.115545,34.9732056 C155.115545,34.8007981 155.055545,34.6592426 154.933727,34.5539833 C154.811909,34.4469093 154.650091,34.3942796 154.447364,34.3942796 C154.323727,34.3942796 154.231,34.41515 154.171909,34.4577981 C154.110091,34.5004463 154.080091,34.5630574 154.080091,34.6474463 Z" id="Fill-12" fill="#FFCA05" mask="url(#mask-2)"></path>
                </g>
            </g>
        </g>
    </g>
</svg>