<?xml version="1.0" encoding="UTF-8"?>
<svg width="109px" height="65px" viewBox="0 0 109 65" version="1.1" xmlns="http://www.w3.org/2000/svg" xmlns:xlink="http://www.w3.org/1999/xlink">
    <!-- Generator: sketchtool 49.3 (51167) - http://www.bohemiancoding.com/sketch -->
    <title>1A3C6A80-C7C6-4509-A8F4-E7C69458D026</title>
    <desc>Created with sketchtool.</desc>
    <defs></defs>
    <g id="Symbols" stroke="none" stroke-width="1" fill="none" fill-rule="evenodd">
        <g id="header" transform="translate(-66.000000, -46.000000)" fill="#FFFFFF">
            <g id="Group-20" transform="translate(66.000000, 46.000000)">
                <path d="M50.621613,21.1474713 L50.621613,37.4530294 L44.7586578,37.4530294 L44.7586578,21.1474713 L40.7546884,21.1474713 L40.7546884,16.1413788 L54.4825835,16.1413788 L54.4825835,21.1474713 L50.621613,21.1474713 Z M23.1658229,32.3039058 L31.0307628,32.3039058 L31.0307628,37.3099982 L17.3028677,37.3099982 L17.3028677,32.3039058 L17.3028677,15.9983476 L23.1658229,15.9983476 L23.1658229,32.3039058 Z M102.673215,24.0080955 L102.673215,16.1413788 L108.53617,16.1413788 L108.53617,37.4530294 L102.673215,37.4530294 L102.673215,29.0141879 L97.8112522,29.0141879 L97.8112522,37.3099982 L91.948297,37.3099982 L91.948297,15.9983476 L97.8112522,15.9983476 L97.8112522,24.0080955 L102.673215,24.0080955 Z M62.0615255,21.0044401 L62.0615255,24.0080955 L69.2114709,24.0080955 L69.2114709,29.0141879 L62.0615255,29.0141879 L62.0615255,32.3039058 L71.0704566,32.3039058 L71.0704566,37.3099982 L56.1985703,37.3099982 L56.1985703,32.3039058 L56.1985703,21.0044401 L56.1985703,15.9983476 L71.0704566,15.9983476 L71.0704566,21.0044401 L62.0615255,21.0044401 Z M5.86295518,21.1474713 L5.86295518,24.1511267 L13.0129005,24.1511267 L13.0129005,29.1572191 L5.86295518,29.1572191 L5.86295518,32.446937 L14.8718863,32.446937 L14.8718863,37.4530294 L0,37.4530294 L0,32.446937 L0,21.1474713 L0,16.1413788 L14.8718863,16.1413788 L14.8718863,21.1474713 L5.86295518,21.1474713 Z M33.1757464,16.1413788 L39.0387015,16.1413788 L39.0387015,37.4530294 L33.1757464,37.4530294 L33.1757464,16.1413788 Z M84.1182439,24.6344007 C83.8815761,22.0167817 83.0172661,20.7079722 81.525314,20.7079722 C79.2873857,20.7079722 78.5253711,23.9841189 78.5253711,27.1558475 C78.5253711,30.3275761 79.4833397,32.8548331 81.525314,32.8548331 C82.8866301,32.8548331 83.8229616,31.6997251 84.3343083,29.3895092 L89.6348688,29.7661557 C88.6474041,34.9517941 85.9442192,37.5446133 81.525314,37.5446133 C74.8969561,37.5446133 72.542836,32.4288924 72.542836,26.9265374 C72.542836,21.4241825 74.5340423,15.8764645 81.525314,15.8764645 C86.1861617,15.8764645 88.8893467,18.6432026 89.6348688,24.1766789 L84.1182439,24.6344007 Z" id="Combined-Shape"></path>
                <path d="M37.247593,41.3360202 L42.2010311,41.3360202 L54.2597181,58.070672 L66.3184052,41.3360202 L71.2885772,41.3360202 L54.2680851,64.9361702 L37.247593,41.3360202 Z M16.5135389,12.5867466 L7.43594315,0 L101.100227,0 L92.0226313,12.5867466 L87.0346112,12.5867466 L93.2185533,4.00487393 L15.300883,4.00487393 L21.4848251,12.5867466 L16.5135389,12.5867466 Z" id="Combined-Shape"></path>
            </g>
        </g>
    </g>
</svg>