<svg xmlns="http://www.w3.org/2000/svg" xmlns:xlink="http://www.w3.org/1999/xlink" width="160" height="48" viewBox="0 0 160 48"><defs><path id="rjaea" d="M1140 2647.703h159.77v-47.793H1140z"/><path id="rjaeb" d="M1273.365 2617.948l-.005-8.398h23.805v8.398h-6.457v20.169h-11.189v-20.169z"/><path id="rjaec" d="M1277.11 2638.092h-19.74V2609.4h11.2v20.302h8.54z"/><path id="rjaed" d="M1237.33 2638.092h-11.24l9.535-28.692h11.692l9.04 28.692h-10.8l-1.019-3.784h-6.23zm5.623-10.757l-1.445-6.694-1.577 6.694z"/><path id="rjaee" d="M1213.595 2609.43l2.922 12.858 2.787-12.84h11.041l-8.522 28.676h-10.026l-3.089-12.658-3.333 12.658h-10.02l-7.735-28.677h10.844l2.702 12.94 3.012-12.957z"/><path id="rjaef" d="M1188.292 2638.09h-16.042v-22.73h15.667v6.126h-7.322v2.293h6.557l-.017 5.919h-6.54v2.267h7.693z"/><path id="rjaeg" d="M1155.334 2638.111h-12.344v-28.781h12.582c4.779 0 8.432 1.106 10.95 3.318 2.68 2.348 4.02 5.842 4.02 10.476 0 5.224-1.381 9.077-4.138 11.554-2.546 2.285-6.24 3.433-11.07 3.433m4.113-14.746c0-2.129-.475-3.59-1.42-4.382-.943-.792-2.553-1.188-4.824-1.188v11.254c2.363 0 3.996-.434 4.896-1.302.898-.868 1.348-2.334 1.348-4.382"/><path id="rjaei" d="M1143.02 2606.424h154.112v-3.624H1143.02z"/><path id="rjaej" d="M1143.02 2644.944h154.112v-3.624H1143.02z"/><path id="rjaek" d="M1294.08 2634.255c0-.084.029-.146.09-.188.059-.043.15-.063.273-.063.2 0 .36.052.482.158.12.105.18.246.18.417 0 .197-.07.35-.21.458-.139.107-.334.162-.585.162h-.069c-.023 0-.05 0-.077-.002-.027-.001-.057-.003-.085-.006zm-.98-.407v.162c.168.012.285.044.345.097.062.05.094.14.094.269v1.863c0 .128-.033.216-.095.268-.062.05-.178.08-.345.09v.159h1.413v-.16c-.166-.014-.278-.047-.34-.097-.063-.05-.093-.136-.093-.26v-.887h.105c.199 0 .358.042.476.124.12.083.2.21.24.377.015.06.024.178.03.352a.92.92 0 0 0 .08.396c.04.072.103.127.19.166a.727.727 0 0 0 .3.058c.183 0 .325-.054.426-.16.102-.108.152-.257.152-.447v-.09h-.162a.339.339 0 0 1-.008.07v.013c0 .117-.02.21-.059.28-.04.068-.094.102-.162.102-.11 0-.18-.109-.21-.328a1.968 1.968 0 0 0-.037-.217.958.958 0 0 0-.25-.469c-.12-.114-.295-.208-.53-.278.37-.065.635-.155.795-.273a.558.558 0 0 0 .24-.475c0-.207-.106-.377-.316-.508-.21-.131-.49-.197-.839-.197zm3.604 1.506c0 .616-.22 1.145-.66 1.589-.439.442-.966.662-1.584.662a2.168 2.168 0 0 1-1.592-.656 2.175 2.175 0 0 1-.654-1.595c0-.621.221-1.155.664-1.598a2.167 2.167 0 0 1 1.59-.666c.615 0 1.14.222 1.578.666.439.443.658.977.658 1.598zm-2.237-2.584c-.345 0-.677.066-.997.201-.32.134-.6.32-.838.563a2.537 2.537 0 0 0-.557.838 2.56 2.56 0 0 0-.195.979c0 .39.083.76.248 1.104.164.345.397.642.703.89.232.186.485.329.759.43.273.1.55.15.83.15a2.66 2.66 0 0 0 1.12-.236c.343-.157.637-.385.887-.684.197-.237.347-.496.452-.778a2.42 2.42 0 0 0 .157-.855 2.63 2.63 0 0 0-.731-1.83 2.572 2.572 0 0 0-.84-.565 2.522 2.522 0 0 0-.998-.207z"/><clipPath id="rjaeh"><use xlink:href="#rjaea"/></clipPath></defs><g><g transform="translate(-1140 -2600)"><g><use fill="#231f20" xlink:href="#rjaea"/></g><g><use fill="#ffca05" xlink:href="#rjaeb"/></g><g><use fill="#ffca05" xlink:href="#rjaec"/></g><g><use fill="#ffca05" xlink:href="#rjaed"/></g><g><use fill="#ffca05" xlink:href="#rjaee"/></g><g><use fill="#ffca05" xlink:href="#rjaef"/></g><g><g><use fill="#ffca05" xlink:href="#rjaeg"/></g><g/><g clip-path="url(#rjaeh)"><use fill="#ffca05" xlink:href="#rjaei"/></g><g clip-path="url(#rjaeh)"><use fill="#ffca05" xlink:href="#rjaej"/></g><g clip-path="url(#rjaeh)"><use fill="#ffca05" xlink:href="#rjaek"/></g></g></g></g></svg>