<?xml version="1.0" encoding="UTF-8"?>
<svg width="172px" height="52px" viewBox="0 0 172 52" version="1.1" xmlns="http://www.w3.org/2000/svg" xmlns:xlink="http://www.w3.org/1999/xlink">
    <!-- Generator: sketchtool 49.3 (51167) - http://www.bohemiancoding.com/sketch -->
    <title>0A6E697B-0137-445E-A5B7-F9E9B677A4B4</title>
    <desc>Created with sketchtool.</desc>
    <defs></defs>
    <g id="-" stroke="none" stroke-width="1" fill="none" fill-rule="evenodd">
        <g id="header" transform="translate(-68.000000, -56.000000)" fill="#FFFFFF" fill-rule="nonzero">
            <g id="metabo-seeklogo.com" transform="translate(68.000000, 56.000000)">
                <g id="Group">
                    <polygon id="Shape" points="80.8412371 28.3051546 78.5896907 28.3051546 78.5896907 18.4948454 80.7340206 18.4948454 80.7340206 11.6329897 78.5360825 11.6329897 78.5360825 4.02061856 70.4948454 4.02061856 70.4948454 11.6329897 68.2969072 11.6329897 68.2969072 18.4948454 70.4948454 18.4948454 70.4948454 28.3051546 68.1896907 28.3051546 68.1896907 35.3278351 80.8412371 35.3278351"></polygon>
                    <path d="M110.379381,18.4948454 L110.379381,11.6329897 L100.086598,11.6329897 L100.086598,13.2948454 C98.2103093,11.6865979 95.9051546,10.9896907 93.385567,10.9896907 C87.3278351,10.9896907 82.3958763,16.6185567 82.3958763,23.5876289 C82.3958763,30.556701 87.3278351,36.185567 93.385567,36.185567 C95.8515464,36.185567 98.0494845,35.3278351 99.9257732,33.7731959 L99.9257732,35.4350515 L110.379381,35.4350515 L110.379381,28.3051546 L108.449485,28.3051546 L108.449485,18.4948454 L110.379381,18.4948454 Z M95.4226804,28.3587629 C92.742268,28.3587629 90.5443299,26 90.5443299,23.0515464 C90.5443299,20.156701 92.742268,17.7443299 95.4226804,17.7443299 C98.1030928,17.7443299 100.301031,20.1030928 100.301031,23.0515464 C100.301031,26 98.1030928,28.3587629 95.4226804,28.3587629 Z" id="Shape"></path>
                    <path d="M10.5608247,20.4783505 C10.5608247,19.1917526 10.9896907,17.8515464 12.9195876,17.8515464 C14.9030928,17.8515464 15.3319588,19.1917526 15.2783505,20.4783505 L15.2783505,35.2742268 L23.3731959,35.2742268 L23.3731959,20.4783505 C23.3731959,19.1381443 23.8020619,17.8515464 25.7319588,17.8515464 C27.6618557,17.8515464 28.0907216,19.1917526 28.0907216,20.4783505 L28.0907216,35.2742268 L38.6515464,35.2742268 L38.6515464,28.3051546 L36.4536082,28.3051546 L36.4536082,18.4948454 C36.4536082,13.1340206 33.6659794,10.614433 29.7525773,10.614433 C27.0185567,10.614433 24.7134021,11.6865979 22.8907216,13.7237113 C21.7649485,11.9010309 20.4783505,10.614433 16.9402062,10.614433 C13.9917526,10.6680412 12.0618557,11.6329897 10.4,13.6164948 L10.4,11.6329897 L0,11.6329897 L0,18.5484536 L2.25154639,18.5484536 L2.25154639,28.3051546 L0,28.3051546 L0,35.3278351 L10.5072165,35.3278351 L10.5072165,20.4783505 L10.5608247,20.4783505 Z" id="Shape"></path>
                    <path d="M53.2865979,36.4 C60.0412371,36.3463918 64.8659794,32.1649485 65.7773196,28.4659794 L57.3072165,28.4659794 C56.2886598,29.6453608 54.4123711,29.9670103 53.2329897,29.8597938 C50.8742268,29.6989691 49.2123711,28.5195876 49.1587629,25.4639175 L66.2061856,25.4639175 C66.3134021,24.7670103 66.4206186,24.2309278 66.3670103,23.5340206 C66.3134021,16.7793814 61.2742268,10.614433 53.2865979,10.7216495 C45.0309278,10.8824742 40.2061856,16.7793814 40.2061856,23.5876289 C40.2061856,31.7360825 46.4783505,36.4536082 53.2865979,36.4 Z M53.1793814,16.6721649 C55.4845361,16.6721649 57.3608247,18.4948454 57.3608247,20.7463918 L49.0515464,20.7463918 C49.0515464,18.5484536 51.1958763,16.6721649 53.1793814,16.6721649 Z" id="Shape"></path>
                    <rect id="Rectangle-path" x="0" y="42.3505155" width="169.080412" height="1"></rect>
                    <g transform="translate(165.113402, 0.000000)" id="Shape">
                        <path d="M3.85979381,3.1628866 C4.34226804,3.0556701 4.61030928,2.73402062 4.61030928,2.30515464 C4.61030928,1.44742268 3.91340206,1.28659794 3.21649485,1.28659794 L2.0371134,1.28659794 L2.0371134,4.98556701 L2.62680412,4.98556701 L2.62680412,3.37731959 L3.10927835,3.37731959 C3.32371134,3.37731959 3.48453608,3.37731959 3.64536082,3.53814433 C3.80618557,3.69896907 3.80618557,4.02061856 3.85979381,4.34226804 C3.85979381,4.55670103 3.96701031,4.77113402 3.96701031,4.98556701 L4.71752577,4.98556701 C4.61030928,4.66391753 4.55670103,4.28865979 4.50309278,3.91340206 C4.44948454,3.48453608 4.39587629,3.21649485 3.85979381,3.1628866 Z M3.27010309,2.78762887 L2.68041237,2.78762887 L2.68041237,1.82268041 L3.37731959,1.82268041 C3.85979381,1.82268041 3.96701031,1.98350515 3.96701031,2.25154639 C3.91340206,2.51958763 3.80618557,2.73402062 3.27010309,2.78762887 Z"></path>
                        <path d="M3.32371134,0 C1.55463918,0 0.160824742,1.39381443 0.160824742,3.10927835 C0.160824742,4.87835052 1.55463918,6.27216495 3.32371134,6.27216495 C5.03917526,6.27216495 6.43298969,4.87835052 6.43298969,3.10927835 C6.43298969,1.39381443 5.03917526,0 3.32371134,0 Z M3.32371134,5.73608247 C1.87628866,5.73608247 0.750515464,4.55670103 0.750515464,3.1628866 C0.750515464,1.76907216 1.92989691,0.589690722 3.32371134,0.589690722 C4.77113402,0.589690722 5.89690722,1.76907216 5.89690722,3.1628866 C5.89690722,4.55670103 4.71752577,5.73608247 3.32371134,5.73608247 Z"></path>
                    </g>
                </g>
                <path d="M130.214433,10.9896907 C127.694845,10.9896907 125.389691,11.6865979 123.513402,13.2948454 L123.513402,2.46597938 L113.220619,2.46597938 L113.220619,9.2742268 L115.150515,9.2742268 L115.150515,28.2515464 L113.220619,28.2515464 L113.220619,35.2742268 L123.674227,35.2742268 L123.674227,33.6123711 C125.496907,35.1670103 127.748454,36.0247423 130.214433,36.0247423 C136.272165,36.0247423 141.204124,30.3958763 141.204124,23.4804124 C141.204124,16.6185567 136.272165,10.9896907 130.214433,10.9896907 Z M128.230928,28.3587629 C125.550515,28.3587629 123.352577,26 123.352577,23.1051546 C123.352577,20.2103093 125.550515,17.8515464 128.230928,17.8515464 C130.91134,17.8515464 133.109278,20.2103093 133.109278,23.1051546 C133.109278,26 130.91134,28.3587629 128.230928,28.3587629 Z" id="Shape"></path>
                <g id="Group" transform="translate(0.000000, 46.103093)">
                    <polygon id="Shape" points="16.7257732 5.36082474 17.8515464 5.36082474 17.8515464 3.21649485 19.8350515 3.21649485 19.8350515 2.35876289 17.8515464 2.35876289 17.8515464 1.1257732 19.9958763 1.1257732 19.9958763 0.321649485 16.7257732 0.321649485"></polygon>
                    <rect id="Rectangle-path" x="37.3649485" y="0.321649485" width="1.07216495" height="5.03917526"></rect>
                    <path d="M28.6268041,2.41237113 C27.8762887,2.25154639 27.5546392,2.1443299 27.5546392,1.66185567 C27.5546392,1.23298969 27.8762887,0.964948454 28.3587629,0.964948454 C29.1092784,0.964948454 29.1628866,1.55463918 29.1628866,1.71546392 L30.1814433,1.71546392 C30.1814433,1.55463918 30.1814433,1.1257732 29.9134021,0.804123711 C29.5381443,0.321649485 28.8948454,0.21443299 28.4123711,0.21443299 C27.0185567,0.21443299 26.428866,0.964948454 26.428866,1.76907216 C26.428866,2.62680412 27.0721649,3.00206186 28.3051546,3.27010309 C28.9484536,3.43092784 29.2701031,3.48453608 29.2701031,3.96701031 C29.2701031,4.39587629 28.8948454,4.66391753 28.3051546,4.66391753 C27.3938144,4.66391753 27.3938144,3.96701031 27.3938144,3.69896907 L26.2680412,3.69896907 C26.2680412,4.1814433 26.2680412,5.41443299 28.1979381,5.41443299 C29.5917526,5.41443299 30.342268,4.66391753 30.342268,3.75257732 C30.3958763,2.84123711 29.5381443,2.62680412 28.6268041,2.41237113 Z" id="Shape"></path>
                    <polygon id="Shape" points="22.5690722 3.1628866 24.7134021 3.1628866 24.7134021 2.35876289 22.5690722 2.35876289 22.5690722 1.1257732 24.8206186 1.1257732 24.8206186 0.321649485 21.4969072 0.321649485 21.4969072 5.36082474 24.9278351 5.36082474 24.9278351 4.50309278 22.5690722 4.50309278"></polygon>
                    <path d="M34.0948454,2.41237113 C33.3443299,2.25154639 33.0226804,2.1443299 33.0226804,1.66185567 C33.0226804,1.23298969 33.3443299,0.964948454 33.8268041,0.964948454 C34.5773196,0.964948454 34.6309278,1.55463918 34.6309278,1.71546392 L35.6494845,1.71546392 C35.6494845,1.55463918 35.6494845,1.1257732 35.3814433,0.804123711 C35.0061856,0.321649485 34.3628866,0.21443299 33.8804124,0.21443299 C32.4865979,0.21443299 31.8969072,0.964948454 31.8969072,1.76907216 C31.8969072,2.62680412 32.5402062,3.00206186 33.7731959,3.27010309 C34.4164948,3.43092784 34.7381443,3.48453608 34.7381443,3.96701031 C34.7381443,4.39587629 34.3628866,4.66391753 33.7731959,4.66391753 C32.8618557,4.66391753 32.8618557,3.96701031 32.8618557,3.69896907 L31.7360825,3.69896907 C31.7360825,4.1814433 31.7360825,5.41443299 33.6659794,5.41443299 C35.0597938,5.41443299 35.8103093,4.66391753 35.8103093,3.75257732 C35.8103093,2.84123711 34.9525773,2.62680412 34.0948454,2.41237113 Z" id="Shape"></path>
                    <path d="M54.0371134,0.321649485 L52.214433,5.36082474 L53.2329897,5.36082474 L53.6082474,4.28865979 L55.5917526,4.28865979 L55.9670103,5.36082474 L57.0391753,5.36082474 L55.2701031,0.321649485 L54.0371134,0.321649485 Z M53.9298969,3.43092784 L54.6804124,1.28659794 L55.3773196,3.43092784 L53.9298969,3.43092784 Z" id="Shape"></path>
                    <path d="M42.4041237,0.21443299 C40.5814433,0.21443299 39.9917526,1.55463918 39.9917526,2.89484536 C39.9917526,3.37731959 40.0453608,4.1814433 40.6350515,4.77113402 C41.1175258,5.25360825 41.7608247,5.46804124 42.4041237,5.46804124 C42.8329897,5.46804124 43.6371134,5.36082474 44.1731959,4.77113402 C44.6020619,4.28865979 44.8164948,3.53814433 44.8164948,2.78762887 C44.8164948,2.30515464 44.7092784,1.50103093 44.1731959,0.911340206 C43.6907216,0.321649485 42.9402062,0.21443299 42.4041237,0.21443299 Z M43.3690722,4.23505155 C43.1546392,4.55670103 42.8865979,4.71752577 42.4041237,4.71752577 C41.9216495,4.71752577 41.6536082,4.50309278 41.4927835,4.28865979 C41.171134,3.91340206 41.1175258,3.37731959 41.1175258,2.89484536 C41.1175258,2.30515464 41.2247423,1.76907216 41.4927835,1.44742268 C41.7072165,1.17938144 42.028866,1.0185567 42.4041237,1.0185567 C42.9402062,1.0185567 43.3690722,1.28659794 43.5298969,1.92989691 C43.6371134,2.25154639 43.6371134,2.57319588 43.6371134,2.84123711 C43.6907216,3.59175258 43.5298969,3.96701031 43.3690722,4.23505155 Z" id="Shape"></path>
                    <polygon id="Shape" points="59.6123711 0.321649485 58.4865979 0.321649485 58.4865979 5.36082474 61.756701 5.36082474 61.756701 4.50309278 59.6123711 4.50309278"></polygon>
                    <polygon id="Shape" points="49.9092784 4.28865979 48.0329897 0.321649485 46.4247423 0.321649485 46.4247423 5.36082474 47.443299 5.36082474 47.443299 1.17938144 49.4268041 5.36082474 50.9278351 5.36082474 50.9278351 0.321649485 49.9092784 0.321649485"></polygon>
                    <path d="M12.7587629,0.21443299 C10.9360825,0.21443299 10.3463918,1.55463918 10.3463918,2.89484536 C10.3463918,3.37731959 10.4,4.1814433 10.9896907,4.77113402 C11.4721649,5.25360825 12.1154639,5.46804124 12.7587629,5.46804124 C13.1876289,5.46804124 13.9917526,5.36082474 14.5278351,4.77113402 C14.956701,4.28865979 15.171134,3.53814433 15.171134,2.78762887 C15.171134,2.30515464 15.0639175,1.50103093 14.5278351,0.911340206 C13.9917526,0.321649485 13.2948454,0.21443299 12.7587629,0.21443299 Z M13.6701031,4.23505155 C13.4556701,4.55670103 13.1876289,4.71752577 12.7051546,4.71752577 C12.2226804,4.71752577 11.9546392,4.50309278 11.7938144,4.28865979 C11.4721649,3.91340206 11.4185567,3.37731959 11.4185567,2.89484536 C11.4185567,2.30515464 11.5257732,1.76907216 11.7938144,1.44742268 C12.0082474,1.17938144 12.3298969,1.0185567 12.7051546,1.0185567 C13.2412371,1.0185567 13.6701031,1.28659794 13.8309278,1.92989691 C13.9381443,2.25154639 13.9381443,2.57319588 13.9381443,2.84123711 C14.0453608,3.59175258 13.8309278,3.96701031 13.6701031,4.23505155 Z" id="Shape"></path>
                    <path d="M67.4927835,0.321649485 L65.9381443,0.321649485 L65.9381443,5.36082474 L67.0103093,5.36082474 L67.0103093,3.37731959 L67.7608247,3.37731959 C68.028866,3.37731959 68.5113402,3.37731959 68.8865979,3.1628866 C69.2618557,2.89484536 69.5298969,2.41237113 69.5298969,1.82268041 C69.5298969,1.55463918 69.4762887,1.17938144 69.2082474,0.857731959 C68.8329897,0.375257732 68.1896907,0.321649485 67.4927835,0.321649485 Z M67.4391753,2.57319588 L67.0103093,2.57319588 L67.0103093,1.1257732 L67.5463918,1.1257732 C67.8680412,1.1257732 68.457732,1.1257732 68.457732,1.82268041 C68.4041237,2.57319588 67.7608247,2.57319588 67.4391753,2.57319588 Z" id="Shape"></path>
                    <path d="M8.79175258,4.02061856 C8.68453608,3.37731959 8.63092784,2.94845361 7.88041237,2.84123711 C8.14845361,2.78762887 8.95257732,2.57319588 8.95257732,1.60824742 C8.95257732,1.28659794 8.84536082,0.911340206 8.52371134,0.643298969 C8.09484536,0.268041237 7.55876289,0.268041237 7.02268041,0.321649485 L5.03917526,0.321649485 L5.03917526,5.36082474 L6.16494845,5.36082474 L6.16494845,3.32371134 L7.12989691,3.32371134 C7.29072165,3.32371134 7.55876289,3.32371134 7.66597938,3.59175258 C7.71958763,3.80618557 7.88041237,5.03917526 7.93402062,5.36082474 L9.11340206,5.36082474 C9.05979381,5.25360825 9.00618557,5.2 8.95257732,4.98556701 C8.89896907,4.87835052 8.89896907,4.61030928 8.79175258,4.02061856 Z M7.55876289,2.35876289 C7.39793814,2.51958763 7.12989691,2.51958763 7.02268041,2.51958763 L6.16494845,2.51958763 L6.16494845,1.1257732 L6.91546392,1.1257732 C7.2371134,1.1257732 7.45154639,1.1257732 7.61237113,1.23298969 C7.71958763,1.28659794 7.88041237,1.44742268 7.88041237,1.82268041 C7.82680412,2.1443299 7.61237113,2.30515464 7.55876289,2.35876289 Z" id="Shape"></path>
                    <path d="M1.55463918,0.321649485 L0,0.321649485 L0,5.36082474 L1.07216495,5.36082474 L1.07216495,3.37731959 L1.82268041,3.37731959 C2.09072165,3.37731959 2.57319588,3.37731959 2.94845361,3.1628866 C3.32371134,2.89484536 3.59175258,2.41237113 3.59175258,1.82268041 C3.59175258,1.55463918 3.53814433,1.17938144 3.27010309,0.857731959 C2.89484536,0.375257732 2.30515464,0.321649485 1.55463918,0.321649485 Z M1.50103093,2.57319588 L1.07216495,2.57319588 L1.07216495,1.1257732 L1.60824742,1.1257732 C1.92989691,1.1257732 2.51958763,1.1257732 2.51958763,1.82268041 C2.51958763,2.57319588 1.87628866,2.57319588 1.50103093,2.57319588 Z" id="Shape"></path>
                    <rect id="Rectangle-path" x="149.88866" y="0.321649485" width="1.07216495" height="5.03917526"></rect>
                    <path d="M129.946392,0.21443299 C128.123711,0.21443299 127.534021,1.55463918 127.534021,2.89484536 C127.534021,3.37731959 127.587629,4.1814433 128.17732,4.77113402 C128.659794,5.25360825 129.303093,5.46804124 129.946392,5.46804124 C130.375258,5.46804124 131.179381,5.36082474 131.715464,4.77113402 C132.14433,4.28865979 132.358763,3.53814433 132.358763,2.78762887 C132.358763,2.30515464 132.251546,1.50103093 131.715464,0.911340206 C131.23299,0.321649485 130.482474,0.21443299 129.946392,0.21443299 Z M130.91134,4.23505155 C130.696907,4.55670103 130.428866,4.71752577 129.946392,4.71752577 C129.463918,4.71752577 129.195876,4.50309278 129.035052,4.28865979 C128.713402,3.91340206 128.659794,3.37731959 128.659794,2.89484536 C128.659794,2.30515464 128.76701,1.76907216 129.035052,1.44742268 C129.249485,1.17938144 129.571134,1.0185567 129.946392,1.0185567 C130.482474,1.0185567 130.91134,1.28659794 131.072165,1.92989691 C131.179381,2.25154639 131.179381,2.57319588 131.179381,2.84123711 C131.23299,3.59175258 131.072165,3.96701031 130.91134,4.23505155 Z" id="Shape"></path>
                    <path d="M154.927835,0.21443299 C153.105155,0.21443299 152.515464,1.55463918 152.515464,2.89484536 C152.515464,3.37731959 152.569072,4.1814433 153.158763,4.77113402 C153.641237,5.25360825 154.284536,5.46804124 154.927835,5.46804124 C155.356701,5.46804124 156.160825,5.36082474 156.696907,4.77113402 C157.125773,4.28865979 157.340206,3.53814433 157.340206,2.78762887 C157.340206,2.30515464 157.23299,1.50103093 156.696907,0.911340206 C156.214433,0.321649485 155.463918,0.21443299 154.927835,0.21443299 Z M155.892784,4.23505155 C155.678351,4.55670103 155.410309,4.71752577 154.927835,4.71752577 C154.445361,4.71752577 154.17732,4.50309278 154.016495,4.28865979 C153.694845,3.91340206 153.641237,3.37731959 153.641237,2.89484536 C153.641237,2.30515464 153.748454,1.76907216 154.016495,1.44742268 C154.230928,1.17938144 154.552577,1.0185567 154.927835,1.0185567 C155.463918,1.0185567 155.892784,1.28659794 156.053608,1.92989691 C156.160825,2.25154639 156.160825,2.57319588 156.160825,2.84123711 C156.214433,3.59175258 156.053608,3.96701031 155.892784,4.23505155 Z" id="Shape"></path>
                    <polygon id="Shape" points="144.474227 1.17938144 145.975258 1.17938144 145.975258 5.36082474 147.101031 5.36082474 147.101031 1.17938144 148.602062 1.17938144 148.602062 0.321649485 144.474227 0.321649485"></polygon>
                    <polygon id="Shape" points="135.039175 0.321649485 133.96701 0.321649485 133.96701 5.36082474 137.237113 5.36082474 137.237113 4.50309278 135.039175 4.50309278"></polygon>
                    <path d="M141.954639,3.32371134 C141.954639,3.80618557 141.901031,4.02061856 141.793814,4.1814433 C141.525773,4.61030928 140.989691,4.61030928 140.828866,4.61030928 C139.756701,4.61030928 139.756701,3.91340206 139.756701,3.37731959 L139.756701,0.321649485 L138.684536,0.321649485 L138.684536,3.32371134 C138.684536,3.80618557 138.684536,4.1814433 138.952577,4.55670103 C139.435052,5.30721649 140.346392,5.41443299 140.828866,5.41443299 C141.847423,5.41443299 143.026804,4.93195876 143.026804,3.43092784 L143.026804,0.268041237 L141.954639,0.268041237 L141.954639,3.32371134 Z" id="Shape"></path>
                    <polygon id="Shape" points="162.43299 4.28865979 160.503093 0.321649485 158.948454 0.321649485 158.948454 5.36082474 159.96701 5.36082474 159.96701 1.17938144 161.950515 5.36082474 163.397938 5.36082474 163.397938 0.321649485 162.43299 0.321649485"></polygon>
                    <path d="M73.2824742,0.21443299 C71.4597938,0.21443299 70.8701031,1.55463918 70.8701031,2.89484536 C70.8701031,3.37731959 70.9237113,4.1814433 71.5134021,4.77113402 C71.9958763,5.25360825 72.6391753,5.46804124 73.2824742,5.46804124 C73.7113402,5.46804124 74.5154639,5.36082474 75.0515464,4.77113402 C75.4804124,4.28865979 75.6948454,3.53814433 75.6948454,2.78762887 C75.6948454,2.30515464 75.5876289,1.50103093 75.0515464,0.911340206 C74.5154639,0.321649485 73.8185567,0.21443299 73.2824742,0.21443299 Z M74.1938144,4.23505155 C73.9793814,4.55670103 73.7113402,4.71752577 73.228866,4.71752577 C72.7463918,4.71752577 72.4783505,4.50309278 72.3175258,4.28865979 C71.9958763,3.91340206 71.942268,3.37731959 71.942268,2.89484536 C71.942268,2.30515464 72.0494845,1.76907216 72.3175258,1.44742268 C72.5319588,1.17938144 72.8536082,1.0185567 73.228866,1.0185567 C73.7649485,1.0185567 74.1938144,1.28659794 74.3546392,1.92989691 C74.4618557,2.25154639 74.4618557,2.57319588 74.4618557,2.84123711 C74.5154639,3.59175258 74.3546392,3.96701031 74.1938144,4.23505155 Z" id="Shape"></path>
                    <path d="M167.31134,2.41237113 C166.614433,2.25154639 166.239175,2.1443299 166.239175,1.66185567 C166.239175,1.23298969 166.560825,0.964948454 167.043299,0.964948454 C167.793814,0.964948454 167.847423,1.55463918 167.847423,1.71546392 L168.865979,1.71546392 C168.865979,1.55463918 168.865979,1.1257732 168.597938,0.804123711 C168.22268,0.321649485 167.579381,0.21443299 167.096907,0.21443299 C165.703093,0.21443299 165.113402,0.964948454 165.113402,1.76907216 C165.113402,2.62680412 165.756701,3.00206186 166.989691,3.27010309 C167.63299,3.43092784 167.954639,3.48453608 167.954639,3.96701031 C167.954639,4.39587629 167.579381,4.66391753 166.989691,4.66391753 C166.078351,4.66391753 166.078351,3.96701031 166.078351,3.69896907 L164.952577,3.69896907 C164.952577,4.1814433 164.952577,5.41443299 166.882474,5.41443299 C168.276289,5.41443299 169.026804,4.66391753 169.026804,3.75257732 C169.026804,2.84123711 168.169072,2.62680412 167.31134,2.41237113 Z" id="Shape"></path>
                    <polygon id="Shape" points="86.0412371 3.1628866 88.185567 3.1628866 88.185567 2.35876289 86.0412371 2.35876289 86.0412371 1.1257732 88.2927835 1.1257732 88.2927835 0.321649485 84.9690722 0.321649485 84.9690722 5.36082474 88.4 5.36082474 88.4 4.50309278 86.0412371 4.50309278"></polygon>
                    <path d="M93.6536082,4.02061856 C93.5463918,3.37731959 93.4927835,2.94845361 92.742268,2.84123711 C93.0103093,2.78762887 93.814433,2.57319588 93.814433,1.60824742 C93.814433,1.28659794 93.7072165,0.911340206 93.385567,0.643298969 C92.956701,0.268041237 92.4206186,0.268041237 91.8845361,0.321649485 L89.9546392,0.321649485 L89.9546392,5.36082474 L91.0804124,5.36082474 L91.0804124,3.32371134 L92.0453608,3.32371134 C92.2061856,3.32371134 92.4742268,3.32371134 92.5814433,3.59175258 C92.6350515,3.80618557 92.7958763,5.03917526 92.8494845,5.36082474 L94.028866,5.36082474 C93.9752577,5.25360825 93.9216495,5.2 93.8680412,4.98556701 C93.814433,4.87835052 93.7608247,4.61030928 93.6536082,4.02061856 Z M92.4206186,2.35876289 C92.2597938,2.51958763 91.9917526,2.51958763 91.8845361,2.51958763 L91.0268041,2.51958763 L91.0268041,1.1257732 L91.7773196,1.1257732 C92.0989691,1.1257732 92.3134021,1.1257732 92.4742268,1.23298969 C92.5814433,1.28659794 92.742268,1.44742268 92.742268,1.82268041 C92.6886598,2.1443299 92.4742268,2.30515464 92.4206186,2.35876289 Z" id="Shape"></path>
                    <polygon id="Shape" points="97.1381443 1.17938144 98.6391753 1.17938144 98.6391753 5.36082474 99.7649485 5.36082474 99.7649485 1.17938144 101.265979 1.17938144 101.265979 0.321649485 97.1381443 0.321649485"></polygon>
                    <polygon id="Shape" points="81.7525773 4.12783505 80.8412371 0.321649485 79.6082474 0.321649485 78.643299 4.12783505 77.8391753 0.321649485 76.7670103 0.321649485 78 5.36082474 79.1793814 5.36082474 80.1979381 1.50103093 81.1092784 5.36082474 82.2886598 5.36082474 83.5752577 0.321649485 82.556701 0.321649485"></polygon>
                    <path d="M110.808247,0.21443299 C108.985567,0.21443299 108.395876,1.55463918 108.395876,2.89484536 C108.395876,3.37731959 108.449485,4.1814433 109.039175,4.77113402 C109.521649,5.25360825 110.164948,5.46804124 110.808247,5.46804124 C111.237113,5.46804124 112.041237,5.36082474 112.57732,4.77113402 C113.006186,4.28865979 113.220619,3.53814433 113.220619,2.78762887 C113.220619,2.30515464 113.113402,1.50103093 112.57732,0.911340206 C112.094845,0.321649485 111.34433,0.21443299 110.808247,0.21443299 Z M111.719588,4.23505155 C111.505155,4.55670103 111.237113,4.71752577 110.754639,4.71752577 C110.272165,4.71752577 110.004124,4.50309278 109.843299,4.28865979 C109.521649,3.91340206 109.468041,3.37731959 109.468041,2.89484536 C109.468041,2.30515464 109.575258,1.76907216 109.843299,1.44742268 C110.057732,1.17938144 110.379381,1.0185567 110.754639,1.0185567 C111.290722,1.0185567 111.719588,1.28659794 111.880412,1.92989691 C111.987629,2.25154639 111.987629,2.57319588 111.987629,2.84123711 C112.094845,3.59175258 111.934021,3.96701031 111.719588,4.23505155 Z" id="Shape"></path>
                    <path d="M124.371134,2.41237113 C123.674227,2.25154639 123.298969,2.1443299 123.298969,1.66185567 C123.298969,1.23298969 123.620619,0.964948454 124.103093,0.964948454 C124.853608,0.964948454 124.907216,1.55463918 124.907216,1.71546392 L125.925773,1.71546392 C125.925773,1.55463918 125.925773,1.1257732 125.657732,0.804123711 C125.282474,0.321649485 124.639175,0.21443299 124.156701,0.21443299 C122.762887,0.21443299 122.173196,0.964948454 122.173196,1.76907216 C122.173196,2.62680412 122.816495,3.00206186 124.049485,3.27010309 C124.692784,3.43092784 125.014433,3.48453608 125.014433,3.96701031 C125.014433,4.39587629 124.639175,4.66391753 124.049485,4.66391753 C123.138144,4.66391753 123.138144,3.96701031 123.138144,3.69896907 L122.012371,3.69896907 C122.012371,4.1814433 122.012371,5.41443299 123.942268,5.41443299 C125.336082,5.41443299 126.086598,4.66391753 126.086598,3.75257732 C126.086598,2.84123711 125.228866,2.62680412 124.371134,2.41237113 Z" id="Shape"></path>
                    <polygon id="Shape" points="115.901031 0.321649485 114.828866 0.321649485 114.828866 5.36082474 118.045361 5.36082474 118.045361 4.50309278 115.901031 4.50309278"></polygon>
                    <path d="M104.589691,0.21443299 C102.76701,0.21443299 102.17732,1.55463918 102.17732,2.89484536 C102.17732,3.37731959 102.230928,4.1814433 102.820619,4.77113402 C103.303093,5.25360825 103.946392,5.46804124 104.589691,5.46804124 C105.018557,5.46804124 105.82268,5.36082474 106.358763,4.77113402 C106.787629,4.28865979 107.002062,3.53814433 107.002062,2.78762887 C107.002062,2.30515464 106.894845,1.50103093 106.358763,0.911340206 C105.82268,0.321649485 105.125773,0.21443299 104.589691,0.21443299 Z M105.501031,4.23505155 C105.286598,4.55670103 105.018557,4.71752577 104.536082,4.71752577 C104.053608,4.71752577 103.785567,4.50309278 103.624742,4.28865979 C103.303093,3.91340206 103.249485,3.37731959 103.249485,2.89484536 C103.249485,2.30515464 103.356701,1.76907216 103.624742,1.44742268 C103.839175,1.17938144 104.160825,1.0185567 104.536082,1.0185567 C105.072165,1.0185567 105.501031,1.28659794 105.661856,1.92989691 C105.769072,2.25154639 105.769072,2.57319588 105.769072,2.84123711 C105.82268,3.59175258 105.661856,3.96701031 105.501031,4.23505155 Z" id="Shape"></path>
                </g>
                <path d="M155.839175,10.614433 C148.548454,10.614433 142.705155,16.2969072 142.705155,23.3731959 C142.705155,30.3958763 148.548454,36.1319588 155.839175,36.1319588 C163.129897,36.1319588 168.973196,30.4494845 168.973196,23.3731959 C168.973196,16.2969072 163.129897,10.614433 155.839175,10.614433 Z M155.892784,28.4123711 C153.158763,28.4123711 150.960825,26.0536082 150.960825,23.1051546 C150.960825,20.156701 153.158763,17.7979381 155.892784,17.7979381 C158.626804,17.7979381 160.824742,20.156701 160.824742,23.1051546 C160.771134,26.0536082 158.573196,28.4123711 155.892784,28.4123711 Z" id="Shape"></path>
            </g>
        </g>
    </g>
</svg>