<?xml version="1.0" standalone="no"?>
<!DOCTYPE svg PUBLIC "-//W3C//DTD SVG 1.1//EN" "http://www.w3.org/Graphics/SVG/1.1/DTD/svg11.dtd" >
<svg xmlns="http://www.w3.org/2000/svg">
<metadata></metadata>
<defs>
<font id="pt_serifbold_italic" horiz-adv-x="1146" >
<font-face units-per-em="2048" ascent="1593" descent="-455" />
<missing-glyph horiz-adv-x="552" />
<glyph unicode="&#xfb01;" horiz-adv-x="1183" d="M-150 -365q25 12 62 40t74 77t68.5 122t47.5 175l129 846h-145v80q41 23 87 40t87 27l14 72q27 127 76 210t118 131t156 66.5t189 18.5q113 0 209 -29.5t145 -64.5q-2 -29 -14 -64.5t-35.5 -68.5t-56.5 -58.5t-76 -37.5l-174 215q-35 -2 -73 -14.5t-72.5 -45.5t-65.5 -91 t-49 -155l-19 -102h134q39 0 95 1t116.5 4t117 8t92.5 12l37 -25l-170 -883h144v-69q-27 -18 -62 -35t-74.5 -29t-80.5 -19t-78 -7q-78 0 -108.5 29.5t-30.5 64.5q0 41 6 80t16 86l127 643l-307 10l-127 -807q-20 -145 -84 -241.5t-140.5 -155t-154.5 -87t-127 -38.5z" />
<glyph unicode="&#xfb02;" horiz-adv-x="1220" d="M-150 -365q25 12 62 40t74 77t68.5 122t47.5 175l129 846h-145v80q41 23 87 40t87 27l14 72q47 225 164 325.5t310 100.5q41 0 75.5 -4t68.5 -9t68.5 -8t71.5 1q43 8 86 13t78 7l41 -22l-256 -1377h143v-69q-20 -16 -55 -32.5t-77 -29t-87 -20.5t-86 -8 q-70 0 -101.5 29.5t-31.5 64.5q0 41 6.5 80t16.5 86q37 188 66.5 336.5t51 263t38 196.5t26.5 140q25 133 31 178q-29 27 -61 46t-75 19q-37 0 -70.5 -10t-64 -41t-56.5 -89t-44 -155l-19 -102h195q4 -23 0 -62.5t-27 -66.5h-194q-29 -190 -58.5 -377.5t-60.5 -378.5 q-25 -164 -86 -268t-137 -168.5t-155 -94.5t-136 -42z" />
<glyph horiz-adv-x="2048" />
<glyph horiz-adv-x="2048" />
<glyph unicode="&#xd;" horiz-adv-x="552" />
<glyph unicode=" "  horiz-adv-x="552" />
<glyph unicode="&#x09;" horiz-adv-x="552" />
<glyph unicode="&#xa0;" horiz-adv-x="552" />
<glyph unicode="!" horiz-adv-x="710" d="M147 145q0 74 47.5 119t124.5 45q78 0 127.5 -45t49.5 -119t-49.5 -117.5t-127.5 -43.5t-125 43.5t-47 117.5zM299 844l111 569q23 10 66.5 16.5t90.5 6.5t88 -6.5t62 -16.5l-123 -569l-180 -398h-90z" />
<glyph unicode="&#x22;" horiz-adv-x="806" d="M147 1372q16 27 57.5 44.5t88.5 17.5q43 0 80 -15.5t41 -46.5l-160 -377h-78zM466 1372q16 27 57.5 44.5t88.5 17.5q43 0 80 -15.5t41 -46.5l-160 -377h-78z" />
<glyph unicode="#" d="M49 451l68 131h157l121 270h-157l65 131h152l151 332h144l-150 -332h254l152 332h143l-152 -332h162l-72 -131h-149l-121 -270h156l-74 -131h-141l-148 -332h-143l147 332h-254l-147 -332h-145l147 332h-166zM420 582h254l121 270h-254z" />
<glyph unicode="$" d="M27 80q25 94 56.5 162.5t63.5 115.5h84l62 -198q16 -16 52 -31.5t89 -19.5l107 499q-55 37 -110.5 75t-101.5 86t-75 110.5t-29 148.5q0 90 35 165t99.5 131t155.5 90t204 40l22 102h144l-23 -100q98 -4 177 -21.5t145 -48.5q-18 -84 -48 -137t-59 -94h-86l-82 148 q-35 10 -73 16l-99 -461q55 -35 110.5 -72.5t101.5 -88t75 -116t29 -157.5q0 -88 -34 -164t-97.5 -134t-157.5 -96t-213 -50l-27 -123h-143l25 118q-55 2 -115 13.5t-112 26t-93 31.5t-59 34zM522 1122q0 -66 30 -109.5t77 -80.5l84 387q-86 -12 -138.5 -62.5t-52.5 -134.5z M559 117q76 16 131 65t55 135q0 68 -27.5 117t-72.5 90z" />
<glyph unicode="%" horiz-adv-x="1693" d="M112 1032q0 88 37 166t101.5 136.5t151.5 91t187 32.5q156 0 243 -72.5t87 -195.5q0 -102 -41 -181t-108.5 -134.5t-153.5 -84t-174 -28.5q-68 0 -128 18.5t-105.5 54t-71 86t-25.5 111.5zM118 61l1360 1403l99 -86l-1362 -1405zM356 1008q0 -55 25.5 -98.5t87.5 -43.5 q37 0 73.5 22.5t67.5 66.5t49 112t18 160q0 47 -23.5 87t-86.5 40q-37 0 -75 -24.5t-67.5 -71t-49 -109.5t-19.5 -141zM764 248q0 88 37 166t101.5 136.5t151.5 91t187 32.5q156 0 243 -72.5t87 -195.5q0 -102 -41 -181t-108.5 -134.5t-153.5 -84t-174 -28.5 q-68 0 -128 18.5t-105.5 54t-71 86t-25.5 111.5zM1008 224q0 -55 25.5 -98.5t87.5 -43.5q37 0 73.5 22.5t67.5 66.5t49 112t18 160q0 47 -23.5 87t-86.5 40q-37 0 -75 -24.5t-67.5 -71t-49 -109.5t-19.5 -141z" />
<glyph unicode="&#x26;" horiz-adv-x="1839" d="M133 336q0 98 46 184t113.5 157t145.5 125t144 87q-37 55 -55.5 117.5t-18.5 121.5q0 74 31.5 134.5t86 104.5t128 67.5t157.5 23.5q154 0 223.5 -63.5t69.5 -169.5q0 -61 -29.5 -119.5t-77.5 -110t-106.5 -95.5t-113.5 -75q102 -197 297 -413q20 23 51.5 76t61.5 120.5 t49.5 143t17.5 143.5q-31 6 -52.5 18.5t-44.5 30.5l17 80h467l-19 -80q-61 -33 -145 -49q-29 -88 -68 -174t-82 -162t-87 -135t-80 -92q59 -63 121.5 -112.5t125.5 -90.5l95 -49l-17 -80h-356q-37 25 -85 58.5t-89 86.5q-39 -33 -90.5 -63.5t-110.5 -54t-123.5 -38 t-130.5 -14.5q-131 0 -220 32t-144.5 83t-79 115.5t-23.5 130.5zM457 399q0 -55 17.5 -104t50 -86t81.5 -58.5t113 -21.5q61 0 131 26t127 83q-53 55 -105.5 126.5t-96.5 145.5t-78.5 143.5t-53.5 118.5q-86 -76 -135 -170t-51 -203zM756 1153q0 -63 22.5 -121.5 t57.5 -113.5q80 53 136 129.5t56 164.5q0 53 -22.5 93.5t-81.5 40.5q-72 0 -120 -55.5t-48 -137.5z" />
<glyph unicode="'" horiz-adv-x="487" d="M147 1372q16 27 57.5 44.5t88.5 17.5q43 0 80 -15.5t41 -46.5l-160 -377h-78z" />
<glyph unicode="(" horiz-adv-x="765" d="M113 262q0 231 74.5 418.5t191.5 334t259 252t275 171.5l48 -64q-102 -86 -204 -198.5t-185 -251t-134 -303t-51 -353.5q0 -92 10.5 -175t35 -159.5t63.5 -149.5t96 -146l-82 -68q-86 59 -158.5 129t-126 154t-83 185t-29.5 224z" />
<glyph unicode=")" horiz-adv-x="765" d="M-164 -362q92 74 193.5 184t184.5 254.5t137.5 317.5t54.5 374q0 86 -8.5 162t-32 147.5t-62.5 143t-100 153.5l76 64q205 -135 303 -309.5t98 -401.5q0 -215 -70.5 -398.5t-183.5 -331t-254 -255t-285 -172.5z" />
<glyph unicode="*" horiz-adv-x="948" d="M246 1273q8 34 26.5 67.5t45 59t51.5 27.5l184 -217q0 -31 -25 -45l-278 58q-12 16 -4 50zM249 1032q-9 35 1 53l276 54q27 -14 27 -43l-180 -217q-23 0 -48.5 25.5t-46 59t-29.5 68.5zM494 1497q10 20 42.5 29.5t71.5 9.5t72 -9t43 -30l-86 -268q-27 -16 -55 0zM496 805 l88 268q27 16 55 0l90 -264q-10 -16 -43 -25.5t-72 -9.5q-41 -2 -74.5 6t-43.5 25zM666 1208l188 217q25 2 47.5 -19.5t39.5 -53t24.5 -67.5t-0.5 -60l-275 -62q-25 18 -24 45zM670 1092q0 27 24 43l267 -50q12 -23 6 -57.5t-24.5 -67t-44.5 -56t-50 -23.5z" />
<glyph unicode="+" d="M113 623v163h379v402h163v-402h379v-163h-379v-414h-163v414h-379z" />
<glyph unicode="," horiz-adv-x="626" d="M-45 -268q43 12 81 36.5t67.5 55.5t49 65.5t25.5 67.5q-18 37 -55 59.5t-78 36.5q-2 43 14.5 86t44 80t62.5 62.5t65 31.5q86 -4 134.5 -51t48.5 -147q0 -84 -40 -163t-101.5 -142.5t-138.5 -107.5t-152 -60z" />
<glyph unicode="-" horiz-adv-x="847" d="M129 485l41 185h588l-41 -185h-588z" />
<glyph unicode="." horiz-adv-x="591" d="M49 145q0 74 47 119t125 45t127 -45t49 -119t-49 -117.5t-127 -43.5t-125 43.5t-47 117.5z" />
<glyph unicode="/" horiz-adv-x="704" d="M-88 -219l745 1685l123 -51l-747 -1687z" />
<glyph unicode="0" d="M23 451q0 188 45 369t133 322.5t219 228.5t305 87q125 0 209 -41t134 -108.5t70.5 -153.5t20.5 -176q0 -195 -47 -376t-136 -320.5t-220 -223.5t-299 -84q-127 0 -211 41t-133.5 107.5t-69.5 152t-20 175.5zM330 397q0 -61 7 -116.5t24.5 -98.5t47 -68.5t74.5 -25.5 q55 0 104.5 39t90.5 106.5t73.5 158.5t54 196.5t34 219.5t12.5 226q0 66 -7 122t-25.5 98t-48.5 67t-73 25q-57 0 -107 -41t-91 -112t-73 -165t-53.5 -199.5t-32.5 -216.5t-11 -215z" />
<glyph unicode="1" d="M164 0l18 88q106 45 224 70l200 940l39 121q-59 -16 -125.5 -23.5t-132.5 -5.5l6 76q117 29 254 78t260 114h70l-277 -1300q47 -10 95.5 -27.5t95.5 -42.5l-19 -88h-708z" />
<glyph unicode="2" d="M-6 0l29 131q72 53 161.5 123t184 150.5t184.5 171t159.5 184.5t112.5 190.5t43 188.5q0 76 -46 126t-144 50q-68 0 -135 -19l-144 -317h-69q-6 31 -14.5 72t-14.5 86t-10 89t-4 81q39 27 86 54.5t103 49t125 34.5t149 13q113 0 188.5 -26.5t121.5 -69.5t65.5 -99.5 t19.5 -117.5q0 -129 -73 -249t-182.5 -226.5t-237.5 -197.5t-236 -163l-121 -71v-9l125 13h352l150 229h69q-2 -49 -8 -115.5t-14 -133t-18.5 -126t-18.5 -96.5h-938z" />
<glyph unicode="3" d="M25 98l120 213h60q10 -14 26.5 -37.5t34 -50t34.5 -53.5t30 -45q45 -16 125 -16q74 0 132 29.5t98 78.5t61.5 113.5t21.5 132.5q0 61 -17.5 100t-49 61.5t-74.5 31t-92 8.5h-113l10 79l385 404l94 72v8l-112 -13h-301l-125 -208h-70q0 43 1 102t5 118.5t9.5 115 t13.5 92.5h887l-15 -101l-432 -432l-119 -90v-4l72 14q170 -10 250 -99t80 -230q0 -104 -36 -198.5t-113 -165.5t-197.5 -112t-290.5 -41q-61 0 -121.5 9.5t-113 26t-93.5 39t-65 48.5z" />
<glyph unicode="4" d="M-29 369l19 92l997 997h111l-203 -956h252l-29 -133h-252l-49 -232q76 -16 146 -49l-19 -88h-633l19 88q104 35 198 49l50 232h-607zM168 487l149 15h289l92 436l58 143h-6l-111 -143l-375 -383z" />
<glyph unicode="5" d="M14 98l127 203h60q12 -14 26.5 -36.5t28.5 -47t27.5 -49.5t23.5 -43q18 -8 45 -12t56 -4q92 0 158.5 29.5t109.5 79.5t63.5 114.5t20.5 134.5q0 121 -82 172t-223 49l-181 -2l242 748h535l120 112h70q-6 -31 -18.5 -80t-29.5 -100t-35.5 -97t-33.5 -71h-559l-100 -293 h135q109 0 190.5 -26.5t136 -74.5t82 -113.5t27.5 -143.5q0 -121 -40 -224.5t-120.5 -181.5t-204.5 -122t-292 -44q-127 0 -222.5 38t-142.5 85z" />
<glyph unicode="6" d="M70 397q0 176 72.5 347t211 315.5t336 252t447.5 158.5l12 -88q-256 -78 -432 -242.5t-262 -424.5q47 63 134 105t195 42q170 0 248 -87t78 -228q0 -109 -38 -212.5t-112.5 -183t-189.5 -128t-268 -48.5q-96 0 -176 26t-136.5 78t-88 132t-31.5 186zM377 354q0 -53 7 -99 t24.5 -81t48 -55.5t78.5 -20.5q68 0 119 43t83.5 107.5t49 140t16.5 141.5q0 98 -36 143.5t-126 45.5q-63 0 -122.5 -36t-94.5 -83q-6 -14 -14.5 -43t-15.5 -64.5t-12 -71.5t-5 -67z" />
<glyph unicode="7" d="M133 0q131 293 296 563.5t390 542.5l105 98l-103 -10h-434l-125 -209h-69q0 43 2 105.5t6 126t11 122t13 95.5h959v-91q-152 -168 -266.5 -326.5t-203.5 -319t-159 -331.5t-131 -366h-291z" />
<glyph unicode="8" d="M16 281q0 74 30 140t84 120.5t131 96.5t173 69q-96 72 -145 146.5t-49 182.5q0 86 33.5 163t99 134.5t162 91t221.5 33.5q197 0 296 -76.5t99 -212.5q0 -63 -26.5 -121.5t-73.5 -109.5t-116 -90t-151 -64q74 -47 122 -91t78 -89t41 -95t11 -108q0 -86 -39 -162.5 t-112.5 -135t-181 -93.5t-242.5 -35q-209 0 -327 77t-118 229zM303 297q0 -98 57.5 -148.5t135.5 -50.5q70 0 118 23.5t77.5 59.5t43 80t13.5 87q0 45 -18.5 84t-51.5 75t-78 70.5t-98 73.5q-55 -35 -93 -80t-61.5 -93t-34 -95t-10.5 -86zM518 1096q0 -74 55.5 -143.5 t139.5 -121.5q90 80 130 166t40 172q0 72 -37 119t-121 47q-49 0 -88 -19.5t-65.5 -52t-40 -75.5t-13.5 -92z" />
<glyph unicode="9" d="M59 63q256 78 432.5 243t262.5 425q-47 -63 -134.5 -105t-195.5 -42q-170 0 -248 86t-78 227q0 109 38 212t113 183t189.5 129t268.5 49q96 0 176 -25.5t136 -78.5t88 -133t32 -186q0 -176 -73 -347.5t-211 -315.5t-335.5 -251.5t-447.5 -157.5zM406 915q0 -98 35.5 -143 t125.5 -45q63 0 123 35t94 82q6 14 14.5 44t15.5 65.5t12 71.5t5 67q0 51 -7 98t-24.5 82t-48 55.5t-77.5 20.5q-68 0 -119 -43t-84 -107.5t-49 -140.5t-16 -142z" />
<glyph unicode=":" horiz-adv-x="698" d="M115 145q0 74 47 119t125 45t127 -45t49 -119t-49 -117.5t-127 -43.5t-125 43.5t-47 117.5zM217 879q0 74 47 118.5t125 44.5t127 -45t49 -118q0 -74 -49 -118t-127 -44t-125 44t-47 118z" />
<glyph unicode=";" horiz-adv-x="684" d="M-12 -268q43 12 80.5 36.5t67.5 55.5t49.5 65.5t25.5 67.5q-18 37 -55 59.5t-78 36.5q-2 43 14.5 86t44 80t62 62.5t65.5 31.5q86 -4 134 -51t48 -147q0 -84 -39.5 -163t-101 -142.5t-138.5 -107.5t-153 -60zM209 879q0 74 47 118.5t125 44.5t127 -45t49 -118 q0 -74 -49 -118t-127 -44t-125 44t-47 118z" />
<glyph unicode="&#x3c;" d="M125 664v63l788 481l74 -133l-436 -262l-168 -70l166 -63l477 -281l-115 -188z" />
<glyph unicode="=" d="M113 449v163h921v-163h-921zM113 797v164h921v-164h-921z" />
<glyph unicode="&#x3e;" d="M121 1018l115 190l786 -452v-64l-789 -481l-71 133l436 262l166 70l-164 63z" />
<glyph unicode="?" horiz-adv-x="1034" d="M291 145q0 74 47 119t125 45t127 -45t49 -119t-49 -117.5t-127 -43.5t-125 43.5t-47 117.5zM304 1267q-3 46 1 87q88 47 189.5 75.5t236.5 28.5q180 0 283.5 -73.5t103.5 -208.5q0 -102 -42 -173t-105.5 -126.5t-140 -101.5t-145.5 -96t-121 -112.5t-66 -150.5h-68 q-10 98 14.5 173t67.5 136t96.5 112.5t100.5 102.5t78.5 105.5t31.5 119.5q0 82 -43 121t-114 39q-49 0 -84 -8t-56 -21l-104 -270h-70q-6 27 -15 67t-17.5 84t-11.5 90z" />
<glyph unicode="@" horiz-adv-x="2103" d="M156 483q0 223 76.5 403.5t208.5 307.5t308.5 195.5t376.5 68.5q195 0 358 -54t279.5 -155.5t182 -248t65.5 -332.5q0 -143 -52 -261t-136 -203t-190.5 -131t-215.5 -46q-61 0 -106 15t-74 52t-38 96.5t3 147.5h-8q-18 -55 -54 -111.5t-82 -100.5t-101.5 -71.5 t-112.5 -27.5q-139 0 -210 90t-71 229q0 121 40 240t110.5 212t169 151.5t215.5 58.5q72 0 120 -13.5t97 -42.5q49 23 117.5 33t138.5 8l-101 -569q-25 -131 -21.5 -195.5t60.5 -64.5q47 0 107.5 30.5t114 93t90.5 158t37 222.5q0 156 -56.5 278.5t-156 206.5t-235.5 128 t-294 44q-178 0 -326.5 -62.5t-255 -173t-166 -263t-59.5 -330.5q0 -182 60.5 -318.5t167 -228.5t253 -138.5t318.5 -46.5q59 0 135 14.5t137 43.5l33 -117q-72 -41 -158 -57.5t-190 -16.5q-182 0 -347 53.5t-290 160t-198.5 266t-73.5 372.5zM844 340q0 -70 24.5 -110 t83.5 -40q35 0 71 29t69.5 75t65.5 104.5t59 115.5l57 336q-23 16 -47.5 23.5t-59.5 7.5q-70 0 -129 -53.5t-102 -134.5t-67.5 -176t-24.5 -177z" />
<glyph unicode="A" horiz-adv-x="1482" d="M-90 0l14 78q37 20 78 35.5t82 23.5l811 1321h149l232 -1321q39 -8 77 -24.5t64 -34.5l-16 -78h-631l14 78q43 20 91.5 35.5t91.5 23.5l-49 326h-453l-195 -326q43 -6 86 -21.5t78 -37.5l-14 -78h-510zM535 596h366l-57 391v176h-4l-78 -180z" />
<glyph unicode="B" horiz-adv-x="1318" d="M-49 -2l14 78q45 23 92 39t90 20l246 1159q-41 8 -82 23.5t-73 36.5l16 78h326q78 0 150.5 6t162.5 6q98 0 180 -15.5t140.5 -47t91 -84t32.5 -126.5q0 -86 -29.5 -153.5t-81.5 -118.5t-124 -84t-156 -49v-8q55 -4 110.5 -20.5t99.5 -49.5t71.5 -83t27.5 -120 q0 -111 -44 -201.5t-130 -157.5t-215 -103.5t-299 -36.5q-43 0 -93 2t-101 4t-98.5 4t-79.5 2h-244zM442 133q27 -6 58 -10t94 -4q76 0 139.5 26.5t108.5 74.5t70.5 112.5t25.5 140.5q0 113 -72.5 149.5t-203.5 36.5h-109zM582 793h65q35 0 71 3t66 7q123 47 184.5 135 t61.5 205q0 80 -47 124t-154 44q-43 0 -76.5 -2t-62.5 -6z" />
<glyph unicode="C" horiz-adv-x="1335" d="M121 551q0 203 59.5 369.5t173 286.5t278.5 185.5t374 65.5q135 0 242.5 -19.5t174.5 -52.5q-6 -33 -20 -84t-32.5 -107t-39 -110.5t-39.5 -91.5h-86l-47 310q-18 10 -61 16t-86 6q-119 0 -218.5 -57.5t-172 -162t-112.5 -252.5t-40 -331q0 -115 33 -193.5t85 -127.5 t114.5 -70.5t121.5 -21.5t102.5 11t63.5 23l160 287h86q0 -33 -2 -79t-8 -98t-14.5 -103.5t-18.5 -92.5q-43 -23 -95.5 -38t-105.5 -25t-102 -14.5t-86 -4.5q-188 0 -317.5 51.5t-211 133.5t-117.5 184t-36 207z" />
<glyph unicode="D" horiz-adv-x="1503" d="M-49 0l14 78q39 20 86 36t96 23l246 1159q-47 10 -87 25.5t-68 34.5l16 78h238q35 0 87 2t108 5t108.5 6t89.5 3q172 0 291.5 -37t194.5 -104.5t108.5 -160.5t33.5 -206q0 -117 -20 -232.5t-67.5 -222t-121 -198.5t-181 -161t-249 -107.5t-323.5 -38.5q-27 0 -73 3t-99 6 t-105.5 6t-91.5 3h-231zM455 123q31 -4 69.5 -6t61.5 -2q166 0 278.5 78.5t182 202.5t99.5 275.5t30 297.5q0 84 -16.5 149.5t-55.5 109.5t-104.5 66.5t-161.5 22.5q-37 0 -70 -2t-61 -6z" />
<glyph unicode="E" horiz-adv-x="1232" d="M-49 0l14 78q41 18 87 34t95 25l246 1159q-41 8 -82 23.5t-73 36.5l16 78h1077q-20 -92 -51 -190.5t-68 -184.5h-86l-43 241h-383l-106 -501h252l123 157h63q-10 -100 -35.5 -223t-58.5 -229h-66l-55 162h-252l-110 -533h397l164 260h86q0 -37 -3 -86t-8.5 -102 t-13.5 -106.5t-18 -98.5h-1108z" />
<glyph unicode="F" horiz-adv-x="1171" d="M-49 0l14 78q37 18 77 33.5t85 25.5l246 1159q-86 25 -135 60l16 78h1071q-8 -41 -21.5 -89.5t-28.5 -98.5t-32.5 -98t-36.5 -89h-86l-43 241h-397l-115 -538h283l125 158h63q-4 -51 -13 -110.5t-22.5 -121t-30 -119t-30.5 -102.5h-63l-56 162h-282l-105 -492 q92 -12 164 -59l-14 -78h-633z" />
<glyph unicode="G" horiz-adv-x="1452" d="M121 553q0 203 60.5 368.5t174 285.5t279.5 185.5t375 65.5q68 0 134 -5t126.5 -14t110 -22.5t79.5 -30.5q-6 -31 -20.5 -78.5t-32.5 -103t-38.5 -111t-41.5 -100.5h-84l-47 312q-29 10 -81 15t-97 5q-137 0 -240.5 -66.5t-172 -179t-102.5 -260t-34 -309.5 q0 -106 24.5 -182t66.5 -125t98.5 -71.5t121.5 -22.5q59 0 124 16t102 39l81 385q-51 4 -96 20.5t-80 38.5l17 78h559l-17 -78q-23 -18 -56.5 -33.5t-82.5 -25.5l-96 -459q-51 -27 -115.5 -48.5t-131 -35.5t-128 -22.5t-106.5 -8.5q-139 0 -256 35t-201 106.5t-130 180.5 t-46 256z" />
<glyph unicode="H" horiz-adv-x="1568" d="M-49 0l14 78q41 20 89 36t93 23l246 1159q-47 8 -88 24.5t-67 35.5l16 78h620l-16 -78q-31 -23 -74 -37t-84 -23l-106 -495h543l106 495q-88 23 -133 60l16 78h621l-16 -78q-39 -23 -87.5 -38t-93.5 -22l-245 -1159q45 -8 85 -24.5t68 -34.5l-14 -78h-621l15 78 q35 18 75.5 34.5t83.5 24.5l111 531h-543l-110 -531q70 -14 131 -59l-15 -78h-620z" />
<glyph unicode="I" horiz-adv-x="755" d="M-29 0l15 78q96 45 180 59l246 1159q-41 6 -81 21.5t-73 38.5l16 78h639l-16 -78q-41 -23 -89 -38t-89 -22l-246 -1159q39 -8 80 -22.5t72 -36.5l-15 -78h-639z" />
<glyph unicode="J" horiz-adv-x="739" d="M-88 -274q39 27 75 65.5t69.5 97t64.5 142.5t57 205l223 1060q-43 8 -84 23.5t-69 36.5l16 78h633l-16 -78q-35 -23 -83 -38t-89 -22l-222 -1048q-35 -168 -107.5 -275.5t-155.5 -171t-161.5 -92t-125.5 -37.5z" />
<glyph unicode="K" horiz-adv-x="1443" d="M-49 0l14 78q45 23 91 37t91 22l246 1159q-47 6 -88 22.5t-67 37.5l16 78h620l-16 -78q-29 -16 -71 -32.5t-87 -27.5l-110 -520l121 29l432 491q-41 10 -77 25.5t-60 34.5l16 78h557l-16 -78q-37 -23 -85 -38t-89 -22l-496 -497q33 -68 80 -150t99 -170t108.5 -178 t111.5 -172l86 -59l-14 -70h-344l-72 57q-37 61 -75.5 136t-75.5 156t-71 163t-60 160h-99l-112 -535q41 -10 74.5 -26.5t56.5 -32.5l-15 -78h-620z" />
<glyph unicode="L" horiz-adv-x="1181" d="M-49 0l14 78q53 25 98.5 39t83.5 20l246 1159q-45 8 -86 22.5t-69 37.5l16 78h672l-17 -78q-45 -23 -101 -38t-108 -22l-245 -1163h395l213 367h86q0 -47 -6 -110.5t-16.5 -133.5t-23.5 -137.5t-28 -118.5h-1124z" />
<glyph unicode="M" horiz-adv-x="1896" d="M-49 0l14 78q35 18 88 39.5t101 29.5l241 1149q-41 8 -83 22.5t-72 37.5l16 78h555l129 -834l16 -197h2l97 201l504 830h516l-17 -78q-37 -23 -81 -37t-87 -23l-245 -1161q41 -8 77.5 -24.5t63.5 -32.5l-17 -78h-612l17 78q45 20 88 34t90 25l180 856l61 240h-16 l-113 -219l-612 -1014h-92l-182 1006l-25 239h-18l-54 -260l-176 -840q37 -8 81 -26.5t79 -40.5l-16 -78h-498z" />
<glyph unicode="N" horiz-adv-x="1546" d="M-49 0l14 78q92 57 191 82l237 1118q-35 14 -74.5 36.5t-62.5 43.5l14 76h435l411 -852l62 -176h8l31 176l143 684q-45 16 -87 39.5t-71 50.5l17 78h505l-16 -78q-47 -35 -96 -56.5t-96 -33.5l-275 -1291h-166l-508 1045l-49 158h-6l-18 -164l-183 -854q37 -10 83 -34 t75 -48l-14 -78h-504z" />
<glyph unicode="O" horiz-adv-x="1538" d="M121 555q0 188 58.5 353t168 287t268 192.5t359.5 70.5q137 0 243.5 -40t180.5 -114.5t111.5 -181t37.5 -239.5q0 -168 -51 -331t-155.5 -291t-261 -207t-367.5 -79q-141 0 -252 44t-186.5 122t-114.5 184.5t-39 229.5zM469 516q0 -205 77 -306t208 -101 q117 0 200.5 75.5t139 193.5t81 264t25.5 288q0 182 -62.5 288.5t-205.5 106.5q-80 0 -144.5 -36t-117 -97.5t-90 -142t-62 -171t-37 -183.5t-12.5 -179z" />
<glyph unicode="P" horiz-adv-x="1298" d="M-49 0l14 78q90 43 182 59l246 1159q-45 8 -84 23.5t-71 36.5l16 78h258q82 0 189.5 8t195.5 8q106 0 197.5 -18.5t156 -58.5t101.5 -105.5t37 -159.5q0 -121 -45.5 -224.5t-131.5 -179t-210.5 -119.5t-282.5 -44h-33.5t-51.5 1t-53.5 2t-39.5 3l-86 -410 q53 -8 103 -23.5t89 -35.5l-14 -78h-682zM569 682q18 -4 55.5 -6t59.5 -2q88 0 155.5 31.5t113.5 90t71 137.5t25 175q0 47 -11.5 86t-37 66.5t-69.5 42t-110 14.5q-41 0 -68.5 -4t-50.5 -8z" />
<glyph unicode="Q" horiz-adv-x="1558" d="M121 555q0 188 58.5 353t168 287t268 192.5t359.5 70.5q137 0 243.5 -40t180.5 -114.5t111.5 -181t37.5 -239.5q0 -168 -51 -331t-155.5 -291t-261 -207t-367.5 -79q-141 0 -252 44t-186.5 122t-114.5 184.5t-39 229.5zM336 -176l70 90q68 12 132 12q32 0 63 -3 q93 -9 181 -30.5t175 -48t179 -42.5q86 -16 178 -16h11q98 1 211 36l10 -51q-45 -39 -94 -75t-102.5 -64.5t-107.5 -45t-109 -16.5q-94 0 -182.5 34t-181.5 78t-198.5 84.5t-234.5 57.5zM469 516q0 -205 77 -306t208 -101q117 0 200.5 75.5t139 193.5t81 264t25.5 288 q0 182 -62.5 288.5t-205.5 106.5q-80 0 -144.5 -36t-117 -97.5t-90 -142t-62 -171t-37 -183.5t-12.5 -179z" />
<glyph unicode="R" horiz-adv-x="1417" d="M-49 0l14 78q51 25 95 38t87 21l246 1159q-100 23 -155 60l16 78h217q41 0 93 2t109.5 5t117 6t112.5 3q227 0 337 -88t110 -250q0 -76 -25 -146.5t-73 -131t-118.5 -106.5t-164.5 -73q53 -129 132 -262t154 -258l86 -65l-14 -70h-326l-75 68q-70 113 -128.5 261 t-84.5 292h-156l-102 -484q43 -12 77.5 -27.5t63.5 -31.5l-14 -78h-631zM580 733h118q84 0 146.5 32t103.5 86t61.5 123.5t20.5 147.5v7q0 99 -52 143q-54 46 -169 45q-33 0 -59.5 -4t-49.5 -8z" />
<glyph unicode="S" horiz-adv-x="1138" d="M31 72q12 49 30.5 103t39 108.5t42 102.5t39.5 85h84l21 -301q20 -20 73.5 -40.5t112.5 -20.5q63 0 118.5 11t95.5 35.5t62.5 64.5t22.5 97q0 74 -39 126.5t-96 95.5t-126 85t-126 95t-96 124.5t-39 176.5q0 109 43 190.5t118.5 137t180 83t229.5 27.5t228.5 -17.5 t181.5 -54.5q-10 -41 -26.5 -94t-36 -105t-39 -98.5t-33.5 -76.5h-84l-35 280q-29 16 -77 24.5t-99 8.5q-53 0 -99.5 -11t-80 -35t-54 -60.5t-20.5 -88.5q0 -72 40 -125t98 -97t128 -88t128 -98t98 -126t40 -172q0 -217 -160.5 -333t-459.5 -116q-66 0 -132.5 8.5t-126 22.5 t-104.5 30.5t-65 35.5z" />
<glyph unicode="T" horiz-adv-x="1355" d="M186 950q0 41 5.5 104.5t12.5 131t17 134t23 114.5h1304q-10 -49 -27.5 -115t-38 -133.5t-42 -130t-39.5 -105.5h-86l-55 350h-238l-248 -1163q51 -10 100.5 -24.5t86.5 -34.5l-17 -78h-704l16 78q45 18 100.5 34t110.5 25l248 1163h-238l-207 -350h-84z" />
<glyph unicode="U" horiz-adv-x="1464" d="M213 555l156 741q-41 8 -85 22.5t-71 37.5l16 78h631l-16 -78q-74 -43 -168 -60l-162 -764q-15 -73 -15 -132q-1 -102 45 -158q72 -90 226 -90q143 0 239.5 82.5t139.5 283.5l162 768q-47 10 -93.5 28.5t-72.5 41.5l16 78h508l-16 -78q-37 -27 -87 -43.5t-98 -26.5 l-163 -770q-55 -264 -202 -399t-419 -135q-292 0 -410 154q-79 103 -80 257q0 75 19 162z" />
<glyph unicode="V" horiz-adv-x="1492" d="M197 1356l16 78h676l-17 -78q-37 -18 -84 -33.5t-96 -26.5l117 -807l6 -192h4l86 197l430 802q-47 10 -89 24.5t-70 35.5l16 78h520l-16 -78q-29 -16 -71 -32.5t-89 -27.5l-745 -1296l-205 -25l-248 1321q-43 10 -81 25.5t-60 34.5z" />
<glyph unicode="W" horiz-adv-x="2107" d="M197 1356l16 78h657l-16 -78q-39 -20 -86 -34.5t-94 -25.5l35 -725l-11 -266h4l127 277l455 852h123l106 -842l17 -266h4l106 270l316 700q-41 6 -84 21.5t-78 38.5l16 78h517l-17 -78q-37 -23 -80 -37t-82 -23l-637 -1296l-219 -25l-106 992l-514 -967l-219 -25 l-119 1321q-84 18 -137 60z" />
<glyph unicode="X" horiz-adv-x="1480" d="M-74 0l17 78q35 23 72.5 36t78.5 23l539 586l-258 573q-37 10 -68 24.5t-59 35.5l16 78h647l-16 -78q-29 -16 -68 -31.5t-92 -28.5l158 -409l338 409q-39 10 -77 25.5t-67 34.5l17 78h508l-17 -78q-33 -20 -70.5 -34.5t-80.5 -25.5l-481 -536l286 -623q45 -10 80 -24.5 t64 -34.5l-15 -78h-661l14 78q37 18 76 33.5t84 25.5l-191 449l-372 -451q41 -10 74.5 -22.5t64.5 -34.5l-16 -78h-525z" />
<glyph unicode="Y" horiz-adv-x="1423" d="M197 1356l16 78h666l-17 -78q-29 -16 -69.5 -32.5t-94.5 -27.5l179 -551l391 551q-43 10 -82 25.5t-68 34.5l17 78h510l-17 -78q-35 -20 -76 -35.5t-82 -24.5l-546 -696l-99 -463q39 -6 76 -22.5t68 -36.5l-17 -78h-630l16 78q39 18 86 34.5t94 24.5l98 461l-266 698 q-45 8 -85 23.5t-68 36.5z" />
<glyph unicode="Z" horiz-adv-x="1292" d="M10 0v133l1006 1167h-471l-183 -292h-86q0 45 3.5 102t10.5 115.5t15 113t19 95.5h1056v-134l-1007 -1167h540l191 299h84q0 -43 -4 -98t-10.5 -112.5t-15.5 -115t-19 -106.5h-1129z" />
<glyph unicode="[" horiz-adv-x="663" d="M-37 -471l404 1905h479l-25 -113h-213l-356 -1679h213l-23 -113h-479z" />
<glyph unicode="\" horiz-adv-x="782" d="M-115 1405l119 59l848 -1677l-117 -61z" />
<glyph unicode="]" horiz-adv-x="663" d="M-145 -471l22 113h211l356 1679h-213l25 113h479l-403 -1905h-477z" />
<glyph unicode="^" horiz-adv-x="1040" d="M199 889l381 567h94l348 -567h-246l-162 276l-36 109l-54 -111l-182 -274h-143z" />
<glyph unicode="_" horiz-adv-x="839" d="M-88 -238h840v-163h-840v163z" />
<glyph unicode="`" horiz-adv-x="690" d="M299 1458v60q12 12 53 23t87 17.5t87 7.5t56 -3l149 -357l-92 -45z" />
<glyph unicode="a" horiz-adv-x="1153" d="M57 285q0 160 44 298t125 241.5t196 161.5t256 58q53 0 91 -12t81 -31q53 20 114.5 30.5t147.5 10.5l-172 -901h143v-69q-20 -16 -54 -32.5t-74 -29t-82 -20.5t-78 -8q-72 0 -102.5 30.5t-30.5 63.5q0 37 10 97t30 153h-8q-27 -66 -66.5 -128.5t-91 -111.5t-113 -80 t-132.5 -31q-106 0 -170 78t-64 232zM348 319q0 -94 22.5 -137t69.5 -43q39 0 81 35t80 87t69.5 114.5t54.5 116.5l76 405q-25 16 -46.5 23.5t-56.5 7.5q-82 0 -147.5 -54.5t-110.5 -141.5t-68.5 -195.5t-23.5 -217.5z" />
<glyph unicode="b" horiz-adv-x="1157" d="M49 84l248 1286l-135 27v65q39 14 96 27.5t115.5 24t113 17.5t86.5 9l43 -22l-157 -777h10q33 61 74 116.5t89 98.5t101 68t115 25q53 0 99 -19.5t80 -59.5t53.5 -102.5t19.5 -148.5q0 -152 -41 -286t-122 -236.5t-201 -162t-275 -59.5q-66 0 -128.5 8.5t-116.5 22.5 t-97 34.5t-70 43.5zM350 133q23 -20 57.5 -30.5t69.5 -10.5q70 0 130.5 51.5t105.5 135t70.5 193.5t25.5 226q0 86 -27 136.5t-84 50.5q-43 0 -83 -35t-73.5 -84t-60 -102.5t-43.5 -90.5z" />
<glyph unicode="c" horiz-adv-x="911" d="M55 340q0 143 44 272t124 226.5t193.5 154t253.5 56.5q92 0 160.5 -19.5t91.5 -46.5v-8q0 -21 -8 -49q-10 -34 -28 -67.5t-43.5 -63t-51.5 -41.5l-125 178q-55 0 -111.5 -38t-101.5 -108.5t-74 -170t-29 -224.5t51.5 -183t137.5 -58q41 0 78.5 13t70.5 31.5t60.5 40 t48.5 39.5l47 -51q-27 -43 -70 -88t-99.5 -80t-124 -57.5t-142.5 -22.5q-162 0 -257.5 96.5t-95.5 268.5z" />
<glyph unicode="d" horiz-adv-x="1167" d="M59 297q0 145 40 279.5t117 238t188.5 165.5t254.5 62q68 0 100 -8t66 -24l70 360l-141 27v69q31 12 84 25t113.5 23t118.5 17t95 9l41 -22l-264 -1377h148v-69q-20 -16 -54.5 -32.5t-74 -29t-82.5 -20.5t-80 -8q-72 0 -102.5 32.5t-30.5 67.5t10 100.5t29 143.5h-9 q-31 -72 -72.5 -135.5t-92 -110.5t-110 -76t-124.5 -29q-104 0 -171 80t-67 242zM350 317q0 -178 90 -178q43 0 85 36t80 89t70 114.5t54 113.5l74 403q-27 16 -50.5 23.5t-56.5 7.5q-78 0 -142.5 -52.5t-109.5 -137.5t-69.5 -194.5t-24.5 -224.5z" />
<glyph unicode="e" horiz-adv-x="966" d="M55 356q0 141 45 266.5t126 220.5t192.5 150.5t245.5 55.5q123 0 202.5 -56.5t79.5 -154.5q0 -139 -138 -229.5t-448 -112.5q-6 -29 -9 -58.5t-3 -56.5q0 -117 59.5 -179.5t151.5 -62.5q39 0 78 12.5t75 33t65.5 44t51.5 45.5l50 -51q-23 -41 -66 -85t-100.5 -79.5 t-127 -59.5t-145.5 -24q-182 0 -283.5 99.5t-101.5 281.5zM375 600q152 4 245 67.5t93 166.5q0 41 -22 69.5t-75 28.5q-70 0 -134 -76t-107 -256z" />
<glyph unicode="f" horiz-adv-x="647" d="M-150 -365q25 12 62 40t74 77t68.5 122t47.5 175l129 846h-145v80q41 23 87 40t87 27l14 72q27 127 73 210t107.5 131t139.5 66.5t168 18.5q66 0 133.5 -11t108.5 -34q1 -10 1 -21q0 -20 -5 -42q-7 -33 -22 -64t-35.5 -55.5t-45.5 -36.5l-147 156q-29 -6 -56.5 -19.5 t-52.5 -44.5t-48.5 -88t-41.5 -154l-19 -102h226q4 -23 0 -62.5t-27 -66.5h-225l-127 -807q-20 -145 -84 -241.5t-140.5 -155t-154.5 -87t-127 -38.5z" />
<glyph unicode="g" horiz-adv-x="1064" d="M-121 -195q0 106 92 179t234 120q-53 23 -85 54.5t-32 81.5q0 31 18.5 63.5t47 63t63.5 56.5t70 42q-31 6 -65 24.5t-61.5 46t-46 65.5t-18.5 81q0 80 35 147.5t100.5 115.5t158.5 76t212 28q117 0 191.5 -27t109.5 -55q20 18 55 37.5t75 37t80 31.5t73 25q10 -18 13 -49 q1 -15 1 -31t-1 -32q-3 -32 -13 -60.5t-27 -46.5l-203 22q10 -16 17.5 -43t7.5 -59q0 -74 -35 -140.5t-101.5 -115.5t-159.5 -79t-210 -30q-35 0 -56.5 1t-47.5 7q-10 -8 -23.5 -17t-27 -19.5t-22.5 -23.5t-9 -30q0 -31 51 -47t127 -28.5t166 -29t165.5 -47t127 -82.5 t51.5 -138q0 -94 -60.5 -170t-157.5 -130.5t-219 -84t-247 -29.5q-102 0 -180 19.5t-130.5 53t-78 76.5t-25.5 90zM154 -141q0 -82 63 -129t172 -47q55 0 107.5 13t93.5 38.5t66.5 64.5t25.5 92q0 49 -40 79t-101.5 49.5t-134 31.5t-138.5 29q-57 -43 -85.5 -102.5 t-28.5 -118.5zM381 678q0 -72 36 -101.5t77 -29.5q49 0 85.5 20.5t61.5 54t37 78.5t12 97q0 61 -28.5 100t-83.5 39q-49 0 -86 -20.5t-61.5 -55.5t-37 -82t-12.5 -100z" />
<glyph unicode="h" horiz-adv-x="1189" d="M43 0l276 1370l-135 27v65q31 12 79 25t104.5 25t116 20t112.5 8l43 -18l-172 -797h10q39 66 87 125t101.5 103t113 70t120.5 26q94 0 145.5 -54.5t51.5 -134.5q0 -55 -10.5 -118.5t-24.5 -123.5l-117 -477h152v-69q-41 -33 -120 -61.5t-179 -28.5q-68 0 -98.5 27.5 t-30.5 66.5q0 37 9 75.5t19 90.5l76 342q14 63 25.5 115.5t11.5 99.5q0 37 -15.5 61.5t-45.5 24.5q-47 0 -94.5 -34t-88.5 -81t-72.5 -98t-46.5 -86l-120 -586h-283z" />
<glyph unicode="i" horiz-adv-x="622" d="M86 76q0 41 6 80t17 86l139 635l-127 28v70q31 12 82 25.5t108.5 23.5t113.5 17.5t99 7.5l37 -25l-184 -883h143v-69q-27 -18 -62.5 -35t-75.5 -29t-81 -19t-78 -7q-78 0 -107.5 29.5t-29.5 64.5zM291 1366q0 70 47 108.5t119 38.5q78 0 124 -38.5t46 -108.5 q0 -66 -46 -104.5t-124 -38.5q-72 0 -119 38.5t-47 104.5z" />
<glyph unicode="j" horiz-adv-x="612" d="M-166 -371q25 12 57.5 39t65.5 76t64.5 124t54.5 181l168 830l-121 26v70q31 14 78 27.5t101 23.5t109.5 16.5t104.5 6.5l41 -25l-188 -936q-31 -145 -92.5 -241.5t-133 -156t-145.5 -88t-131 -36.5zM291 1366q0 70 47 108.5t119 38.5q78 0 124 -38.5t46 -108.5 q0 -66 -46 -104.5t-124 -38.5q-72 0 -119 38.5t-47 104.5z" />
<glyph unicode="k" horiz-adv-x="1103" d="M43 0l272 1370l-137 27v69q29 12 76 25t102.5 24t115.5 18t118 7l43 -22l-191 -938h66q35 27 71.5 63.5t69.5 73.5t58.5 72.5t40.5 60.5q2 14 3 38.5t0 50.5t-2 49.5t-4 35.5q35 12 88.5 19.5t108.5 7.5t103.5 -7.5t70.5 -19.5q-27 -68 -79 -133.5t-112.5 -122.5 t-118.5 -103.5t-95 -72.5q14 -39 43.5 -98.5t66.5 -124t78 -125t76 -103.5h110v-69q-20 -16 -52 -32.5t-68.5 -29t-75.5 -20.5t-76 -8q-49 0 -91 22t-77 88q-57 98 -91 194.5t-65 182.5l-67 20l-92 -489h-287z" />
<glyph unicode="l" horiz-adv-x="612" d="M68 76q0 41 6 80t16 86l223 1128l-139 27v69q29 12 78 25t106.5 24t118 18t111.5 7l41 -22l-269 -1377h146v-69q-20 -16 -55 -32.5t-77 -29t-87 -20.5t-86 -8q-70 0 -101.5 29.5t-31.5 64.5z" />
<glyph unicode="m" horiz-adv-x="1738" d="M57 0l183 879l-117 26v70q33 16 81 30.5t101 23.5t108.5 14.5t102.5 5.5l43 -25l-80 -299h8q31 55 75 113.5t99.5 104.5t119 76t128.5 30q25 0 51.5 -8.5t50 -30t38 -58.5t14.5 -94q0 -29 -5 -65.5t-14 -67.5q35 63 82.5 122.5t101.5 103.5t114.5 71t125.5 27 q78 0 127.5 -49.5t49.5 -135.5q0 -66 -12.5 -125t-26.5 -125l-117 -473h143v-69q-20 -16 -56 -32.5t-77 -29t-84 -20.5t-80 -8q-74 0 -102.5 29.5t-28.5 66.5q0 59 29 164l88 372q10 47 22.5 101.5t12.5 85.5q0 39 -13.5 61.5t-48.5 22.5t-71.5 -25.5t-71.5 -67.5 t-66.5 -95.5t-56.5 -108.5l-133 -588h-274l124 575q14 63 24.5 123t10.5 111q0 76 -57 76q-29 0 -65.5 -27t-73.5 -68.5t-70 -95t-51 -108.5l-119 -586h-287z" />
<glyph unicode="n" horiz-adv-x="1204" d="M57 0l176 879l-120 26l4 70q29 14 74 27.5t98 23.5t109.5 16.5t107.5 6.5l41 -25l-64 -299h11q37 68 86 127t104 102t116.5 69t125.5 26q86 0 135 -55.5t49 -147.5q0 -47 -10 -107.5t-25 -120.5l-112 -477h147v-69q-20 -16 -54 -32.5t-74 -29t-83 -20.5t-82 -8 q-70 0 -101.5 26.5t-31.5 61.5q0 43 10.5 92t20.5 94l71 328q14 63 25.5 112t11.5 103q0 35 -15 60.5t-54 25.5t-81 -30t-82 -74t-74 -97t-54 -98l-123 -586h-283z" />
<glyph unicode="o" horiz-adv-x="1124" d="M59 393q0 111 37 226.5t113 211t191.5 157t271.5 61.5q184 0 288.5 -100.5t104.5 -299.5q0 -135 -41 -257t-119 -215t-189.5 -147.5t-254.5 -54.5q-86 0 -160 26t-128 78t-84 130t-30 184zM350 313q0 -104 40 -162.5t110 -58.5q59 0 109 50.5t87 135t57.5 194.5t20.5 228 q0 113 -35.5 172.5t-101.5 59.5q-82 0 -136.5 -61.5t-88 -154.5t-48 -201.5t-14.5 -201.5z" />
<glyph unicode="p" horiz-adv-x="1171" d="M-35 -383l271 1260l-119 28v70q33 14 84 27.5t106 23.5t108.5 16.5t94.5 6.5l41 -25l-68 -283h9q33 63 74.5 120t90 98.5t104.5 65.5t120 24q104 0 172.5 -82t68.5 -230q0 -166 -47 -306t-128 -241.5t-192.5 -158t-240.5 -56.5q-59 0 -97 9.5t-79 31.5l-62 -288 q35 -6 73 -23.5t65 -36.5v-78h-422zM365 127q27 -18 52 -26.5t75 -8.5q70 0 131 55.5t107 143.5t71.5 198.5t25.5 219.5q0 86 -26.5 131t-77.5 45q-43 0 -83 -32t-75 -79t-63.5 -102.5t-46.5 -100.5z" />
<glyph unicode="q" horiz-adv-x="1118" d="M53 303q0 147 40 281.5t123 237t208 162.5t295 60q61 0 121.5 -7t112 -17t90 -22.5t59.5 -22.5l-266 -1245q33 -6 69.5 -22.5t65.5 -39.5v-78h-422l-19 17l158 704h-8q-27 -59 -64.5 -118.5t-87 -107.5t-110 -79t-131.5 -31q-106 0 -170 84t-64 244zM344 319 q0 -180 102 -180q39 0 78 34t74 85t65.5 111.5t53.5 113.5l82 422q-37 23 -109 23q-84 0 -147.5 -54.5t-108.5 -141.5t-67.5 -195.5t-22.5 -217.5z" />
<glyph unicode="r" horiz-adv-x="890" d="M57 0l183 879l-117 26v70q35 16 81 29.5t98 22.5t107.5 14.5t106.5 7.5l41 -25l-53 -254h8q61 119 141 199t187 80q29 0 57.5 -5.5t52.5 -19.5q1 -11 1 -23q0 -33 -8 -70q-11 -50 -29.5 -95t-43 -80t-47.5 -47l-180 120q-39 -16 -87 -73.5t-81 -145.5l-131 -610h-287z " />
<glyph unicode="s" horiz-adv-x="884" d="M-2 51v10q0 61 24 119q26 64 74 99l199 -187q68 0 121 32.5t53 100.5q0 45 -24.5 81t-61.5 71t-81 68.5t-81 76.5t-61.5 95.5t-24.5 121.5q0 156 111.5 233t304.5 77q33 0 73 -3.5t80.5 -11.5t78.5 -19t69 -30q1 -7 1 -14q0 -19 -4 -45q-5 -36 -18.5 -71.5t-35 -65 t-52.5 -39.5l-163 182q-66 0 -110 -26.5t-44 -94.5q0 -45 25.5 -82t62.5 -70.5t82 -68.5t82 -77t62.5 -95t25.5 -123q0 -78 -35 -137.5t-95.5 -100.5t-144 -61.5t-182.5 -20.5q-104 0 -187 24t-124 52z" />
<glyph unicode="t" horiz-adv-x="751" d="M92 895v80q39 25 86 42t92 27l33 156q14 12 45 23.5t68 20.5t74.5 17.5t68.5 12.5l43 -25l-49 -225h240q1 -9 1 -19q0 -19 -4 -45q-8 -40 -24 -65h-240l-118 -530q-8 -39 -12.5 -69t-4.5 -54q0 -53 26.5 -78t71.5 -25q51 0 96.5 12.5t86.5 34.5l26 -53 q-25 -27 -65.5 -54.5t-92 -51t-110.5 -38t-121 -14.5q-106 0 -159.5 49.5t-53.5 135.5q0 47 8.5 100t16.5 90l119 545h-148z" />
<glyph unicode="u" horiz-adv-x="1198" d="M86 168q0 45 13.5 129t33 183.5t43 205t41.5 193.5l-121 26v70q33 12 82 24.5t102.5 22.5t108.5 17.5t100 9.5l46 -25q-33 -154 -67 -292t-62 -292q-10 -49 -21.5 -108.5t-11.5 -118.5q0 -37 19.5 -55.5t47.5 -18.5q51 0 101.5 40t92.5 96.5t73.5 116t46.5 97.5l106 535 h277l-162 -883h143v-69q-20 -16 -54 -32.5t-74 -29t-84 -20.5t-87 -8q-74 0 -101.5 29.5t-27.5 62.5q0 37 8.5 102.5t32.5 151.5h-8q-27 -49 -68 -110.5t-96 -116t-127 -90.5t-158 -36q-84 0 -136 50.5t-52 142.5z" />
<glyph unicode="v" horiz-adv-x="985" d="M16 895v70q25 14 60 28.5t77 26.5t86 20.5t87 8.5q55 0 77.5 -30t28.5 -75l78 -590l12 -137h4l66 141q55 100 100 204t78 218q0 23 -5 58.5t-10 72.5t-11.5 69t-10.5 44q29 12 71 18.5t84 6.5t81 -6.5t61 -18.5q-31 -127 -87 -261t-128 -267.5t-156 -259t-172 -236.5 l-188 -25l-152 904z" />
<glyph unicode="w" horiz-adv-x="1560" d="M16 895v70q25 14 61 28.5t76 26.5t81.5 20.5t80.5 8.5q55 0 86 -28t35 -73l47 -586l-4 -147h4l58 150l284 618l162 41q41 -154 74 -325t55 -337l10 -145h4l56 139q55 106 95 204.5t71 205.5q0 23 -6.5 60.5t-12.5 77.5t-13 74t-11 46q29 12 71.5 18.5t85.5 6.5 q41 0 79 -6.5t61 -18.5q-31 -127 -82 -260t-116 -265t-138.5 -259t-153.5 -240l-211 -25l-92 523l-6 157h-6l-68 -159q-59 -121 -128.5 -251t-139.5 -245l-219 -25l-99 904z" />
<glyph unicode="x" horiz-adv-x="1036" d="M-55 14q18 61 70.5 135t117 145t131 133t113.5 99l-125 340l-141 17v69q29 16 68.5 32.5t82.5 29t87 20.5t79 8q53 0 81 -27.5t42 -72.5l92 -324q39 41 82 98.5t66 104.5q2 14 1 41t-4.5 56.5t-8.5 55t-7 38.5q73 26 160 26h6q41 0 80 -7t61 -19q-18 -61 -68 -135 t-111.5 -143.5t-124 -128t-101.5 -89.5l135 -358l141 -17v-69q-20 -14 -57 -29.5t-80 -29t-88 -22.5t-82 -9q-53 0 -84 26.5t-45 71.5l-102 334q-41 -47 -88.5 -102.5t-73.5 -106.5q-2 -16 -2 -43t2 -55.5t5 -54t7 -38.5q-35 -14 -81 -20t-91 -6t-84 6t-61 20z" />
<glyph unicode="y" horiz-adv-x="997" d="M-27 -387q-2 11 -2 22q0 21 7 45q10 39 29.5 76t46 68t55.5 41l153 -109q14 10 37 29.5t45.5 49.5t45 71t40.5 94l-283 879l-131 16v70q10 8 41 21t73 27.5t89 25t92 10.5q55 0 86 -27t41 -74l158 -620l10 -123h4l43 121q41 98 80 211.5t62 212.5q0 23 -7.5 62.5 t-15.5 81.5t-16 78t-13 48q29 12 72 18t86 6t80 -6t59 -18q-53 -244 -162.5 -506t-252.5 -514q-119 -211 -237 -319.5t-271 -108.5q-43 0 -79 11t-65 30z" />
<glyph unicode="z" horiz-adv-x="958" d="M-43 74l293 301v2l391 407h-28q-68 0 -145 8q-93 10 -192 25l-94 -147l-69 12l28 289q12 80 117 80q41 0 102.5 -7.5t138 -17.5t166 -19.5t185.5 -15.5l53 58q29 -2 59.5 -28t34.5 -60l-659 -689q104 -23 202.5 -56.5t184.5 -80.5l137 135l68 -28l-90 -289 q-10 -31 -40 -51.5t-71 -20.5q-43 0 -103.5 26.5t-136 60.5t-161.5 67t-181 45l-96 -98q-16 0 -32.5 8t-31 20.5t-23.5 28.5q-7 13 -7 28v7z" />
<glyph unicode="{" horiz-adv-x="729" d="M84 432l20 98q39 0 73 16.5t61.5 46.5t47 68.5t29.5 83.5l101 472q20 98 81.5 157.5t159.5 59.5h248l-22 -113h-72q-55 0 -87 -28.5t-46 -94.5l-96 -450q-14 -68 -46 -115t-71 -77t-82 -45t-80 -19l-4 -13q31 -4 61.5 -17t56 -38t42 -60.5t16.5 -84.5q0 -31 -6 -64 l-96 -451q-6 -29 -6 -47q0 -76 88 -75h69l-22 -113h-248q-76 0 -118 37t-42 110q0 35 8 68l99 465q10 47 10 80q0 68 -33 105.5t-94 37.5z" />
<glyph unicode="|" horiz-adv-x="481" d="M233 -266v1700h144v-1700h-144z" />
<glyph unicode="}" horiz-adv-x="729" d="M-137 -471l22 113h72q55 0 87 28.5t46 93.5l96 453q14 68 43 115t65 76.5t76 45t76 19.5l3 12q-29 2 -58 15.5t-51.5 36t-35.5 57.5t-13 82q0 39 8 74l96 448q4 12 4 23.5v21.5q2 78 -88 78h-69l24 113h250q76 0 117 -38t41 -110q0 -35 -8 -67l-99 -463q-10 -47 -10 -80 q0 -143 127 -144l-22 -98q-78 0 -134.5 -62.5t-74.5 -152.5l-101 -473q-20 -98 -81.5 -157.5t-159.5 -59.5h-248z" />
<glyph unicode="~" d="M166 639q53 119 135 181.5t158 62.5q51 0 100 -21.5t96 -48.5t95.5 -48.5t99.5 -21.5q37 0 77 15.5t81 54.5l47 -61q-47 -98 -114 -146.5t-138 -48.5q-53 0 -103.5 21.5t-99.5 48t-98 48t-99 21.5q-45 0 -91 -24.5t-93 -87.5z" />
<glyph unicode="&#xa1;" horiz-adv-x="710" d="M37 -381l123 569l180 398h90l25 -398l-111 -569q-25 -12 -68 -17t-90 -5t-89 5t-60 17zM262 885q0 74 47 119t125 45t127 -45.5t49 -118.5q0 -74 -49 -118t-127 -44t-125 44t-47 118z" />
<glyph unicode="&#xa2;" d="M96 358q0 133 44 251t125 209t193.5 149.5t248.5 72.5l67 312h158l-66 -310q16 -2 29.5 -2t30.5 -4q63 -4 126.5 -17t92.5 -36q2 -23 -7.5 -56.5t-27.5 -67.5t-44 -63.5t-54 -41.5l-125 178q-31 0 -62 -6l-166 -774q98 10 162 49t103 73l49 -51q-53 -84 -138 -145.5 t-196 -83.5l-70 -342h-157l69 325q-174 10 -279.5 107.5t-105.5 273.5zM391 377q0 -92 39 -146.5t102 -72.5l158 731q-68 -31 -123 -80t-94 -115.5t-60.5 -146.5t-21.5 -170z" />
<glyph unicode="&#xa3;" d="M-18 0l22 111q51 18 93 39.5t76 46t61.5 54.5t54.5 64q31 43 50 100.5t19 94.5q0 45 -4 74.5t-14 58.5h-229l28 125h158q-25 66 -39 132.5t-14 125.5q0 199 132 315.5t421 116.5q129 0 239.5 -21.5t184.5 -56.5q-10 -33 -27.5 -82t-38 -101t-42 -101t-40.5 -84h-69 l-23 280q-37 16 -80 24.5t-96 8.5q-96 0 -159.5 -35t-80.5 -112q-10 -49 -7 -97.5t9 -83.5t12.5 -60.5t11.5 -50t11 -52t12 -66.5h256l-28 -125h-219q-6 -63 -25.5 -100t-52.5 -86q-12 -41 -45 -88t-86 -84l-80 -47v-9l104 13h363l149 229h70q-4 -47 -10 -112.5t-14.5 -133 t-17.5 -128t-17 -97.5h-979z" />
<glyph unicode="&#xa4;" d="M70 365l151 151l82 29q-27 35 -37 72.5t-10 91.5q0 96 47 161l-82 31l-151 152l159 159l152 -151l31 -82q33 23 70.5 35t88.5 12q109 -2 166 -45l31 80l150 147l157 -157l-149 -150l-78 -29q18 -35 28.5 -73.5t12.5 -91.5q2 -45 -9.5 -86t-31.5 -76l78 -29l149 -151 l-160 -160l-149 149l-29 80q-31 -18 -73.5 -30.5t-90.5 -12.5q-53 2 -92 13.5t-73 29.5l-27 -78l-152 -151zM399 709q-2 -74 48 -121t124 -49q74 2 124 49t50 121t-50 122t-124 48q-74 2 -124 -47.5t-48 -122.5z" />
<glyph unicode="&#xa5;" d="M63 1356l17 78h670l-17 -78q-57 -31 -164 -60l148 -577l385 577q-45 10 -84 25.5t-68 34.5l17 78h493l-16 -78q-35 -20 -81 -36.5t-87 -23.5l-436 -596h239l-28 -133h-291l-27 -116h293l-29 -134h-290l-39 -180q39 -6 75.5 -22.5t67.5 -36.5l-16 -78h-631l16 78 q39 18 86 34.5t94 24.5l39 180h-293l29 134h291l27 116h-293l28 133h234l-205 596q-45 8 -85 24.5t-69 35.5z" />
<glyph unicode="&#xa6;" horiz-adv-x="481" d="M199 -266v655h143v-655h-143zM199 778v656h143v-656h-143z" />
<glyph unicode="&#xa7;" horiz-adv-x="1159" d="M168 610q0 100 80 173t198 120q-43 23 -79.5 49.5t-65.5 60.5t-45 77t-16 98q0 61 27.5 111.5t78.5 85t121 54t156 19.5q111 0 199.5 -16.5t162.5 -38.5q-8 -66 -21.5 -120t-37.5 -116h-70l-106 158q-25 10 -46.5 13t-54.5 3q-70 0 -102.5 -35.5t-32.5 -80.5 q0 -55 44 -93t109.5 -70t142.5 -63.5t142.5 -73.5t109.5 -100.5t44 -142.5q0 -53 -23.5 -98t-60.5 -83t-83 -68t-91 -52q74 -41 125 -96.5t51 -145.5q0 -143 -112.5 -225t-317.5 -82q-98 0 -197.5 20.5t-177.5 57.5q4 74 25.5 124t54.5 109h70l120 -172q23 -16 45.5 -19 t47.5 -3q66 0 117 35t51 96q0 55 -43 92t-107.5 64.5t-140.5 56.5t-140.5 68.5t-107.5 98t-43 150.5zM442 672q0 -45 25 -79t64.5 -60.5t91 -48t106.5 -44.5q41 35 71.5 83t30.5 93t-23.5 80t-61 61.5t-88 48t-103.5 44.5q-45 -33 -79 -80t-34 -98z" />
<glyph unicode="&#xa8;" horiz-adv-x="1064" d="M358 1350q0 66 41 104.5t109 38.5q66 0 107.5 -39t41.5 -104q0 -61 -42 -100.5t-107 -39.5q-68 0 -109 39.5t-41 100.5zM807 1350q0 66 41 104.5t106 38.5q68 0 110 -39t42 -104q0 -61 -42 -100.5t-110 -39.5q-66 0 -106.5 39.5t-40.5 100.5z" />
<glyph unicode="&#xa9;" horiz-adv-x="1665" d="M133 594q0 170 60.5 304t162 226.5t231.5 141.5t271 49t271.5 -49t231.5 -141.5t161.5 -226.5t60.5 -304t-60.5 -304t-161.5 -226.5t-231.5 -141.5t-271.5 -49q-147 0 -279.5 49t-231.5 141.5t-156.5 226.5t-57.5 304zM270 594q0 -137 47.5 -247.5t127 -188.5t186 -120 t227.5 -42q125 0 232.5 42t186.5 120t124 188.5t45 247.5q0 141 -49 251.5t-130 187.5t-187.5 118t-221.5 41q-129 0 -236.5 -42t-185.5 -120t-122 -188.5t-44 -247.5zM446 596q0 106 38 186t98.5 133.5t137.5 81t154 27.5q98 0 170 -17.5t115 -43.5q2 -18 0 -49t-6 -65 t-9 -66.5t-11 -53.5h-70l-62 170q-14 10 -38.5 11t-51.5 1q-92 0 -140 -77.5t-48 -237.5q0 -68 11 -126t36 -100t63.5 -65.5t94.5 -23.5q33 0 57.5 5t32.5 13l57 152h70q4 -16 9 -42t8 -56.5t4 -61.5t-1 -55q-35 -29 -108.5 -48.5t-155.5 -19.5q-100 0 -183 27.5t-143.5 82 t-94.5 134.5t-34 184z" />
<glyph unicode="&#xaa;" horiz-adv-x="942" d="M53 1001q0 104 37 188.5t98.5 144t140.5 91t163 31.5q49 0 97 -12t83 -35l178 45l37 -20l-109 -523l103 -20l-2 -57q-41 -25 -117 -42.5t-141 -17.5q-47 0 -65.5 23.5t-14.5 58.5l18 117h-8q-14 -29 -41 -64t-62.5 -64.5t-82 -50t-101.5 -20.5q-104 0 -157.5 61.5 t-53.5 165.5zM301 1028q0 -53 20.5 -84t61.5 -31q25 0 54.5 17.5t56 44t50 58.5t36.5 59l43 208q-29 12 -52.5 22.5t-54.5 10.5q-41 0 -79 -20.5t-68.5 -58t-49 -95t-18.5 -131.5z" />
<glyph unicode="&#xab;" horiz-adv-x="1024" d="M78 530l588 457l63 -74l-385 -391l238 -366l-97 -76zM520 530l461 455l72 -74l-308 -387l160 -366l-102 -74z" />
<glyph unicode="&#xac;" horiz-adv-x="1120" d="M113 637v184h888v-442h-163v258h-725z" />
<glyph unicode="&#xad;" horiz-adv-x="847" d="M129 485l41 185h588l-41 -185h-588z" />
<glyph unicode="&#xae;" horiz-adv-x="1433" d="M236 924q0 135 47 241.5t126.5 180t184 112.5t219.5 39q117 0 222.5 -39t184 -112.5t125 -180t46.5 -241.5t-47.5 -242t-127 -180.5t-184 -112.5t-219.5 -39q-117 0 -222.5 39t-184 112.5t-124.5 180.5t-46 242zM362 924q0 -106 36 -191.5t97.5 -146t143.5 -92t174 -31.5 q96 0 179 31.5t143.5 91t94.5 144.5t34 194q0 106 -36 191t-97.5 144.5t-143.5 92t-174 32.5q-98 0 -180 -32.5t-142.5 -92t-94.5 -144.5t-34 -191zM537 633v67q35 12 71 19v440q-23 2 -39 7t-32 16v63h106q37 0 88 4t84 4q111 0 180.5 -39.5t69.5 -132.5q0 -63 -39 -103 t-96 -58q18 -31 33.5 -55.5t32 -48t38 -47.5t49.5 -50l47 -25v-61h-131l-57 22q-51 61 -76.5 123t-48.5 121h-67v-180q27 -2 41 -7t28 -12v-67h-282zM750 977h59q49 0 75.5 24.5t24.5 79.5q-2 47 -29.5 67.5t-74.5 20.5q-23 0 -33 -1t-22 -5v-186z" />
<glyph unicode="&#xaf;" horiz-adv-x="1005" d="M397 1268l31 143h602l-31 -143h-602z" />
<glyph unicode="&#xb0;" horiz-adv-x="835" d="M250 1169q0 63 23.5 116.5t63.5 91.5t94 59.5t114 21.5q59 0 113.5 -18.5t94.5 -54t63.5 -90t23.5 -126.5q0 -68 -23.5 -121t-63.5 -90.5t-94.5 -57t-113.5 -19.5t-113.5 19.5t-94.5 57t-63.5 90.5t-23.5 121zM391 1169q0 -78 46 -121.5t108 -43.5q66 0 109.5 40.5 t43.5 124.5q0 80 -44 123t-109 43q-68 0 -111 -44t-43 -122z" />
<glyph unicode="&#xb1;" d="M113 336v164h921v-164h-921zM113 868v164h379v402h163v-402h379v-164h-379v-270h-163v270h-379z" />
<glyph unicode="&#xb2;" horiz-adv-x="901" d="M170 790l25 105q106 59 206.5 124.5t177 133t124 134t47.5 128.5q0 47 -28 71.5t-89 24.5q-29 0 -57.5 -6t-53.5 -18l-104 -216h-55q-6 25 -12.5 67t-11.5 86t-8 83t-1 59q80 47 163 73t201 26q164 0 232.5 -58.5t68.5 -150.5q0 -74 -43 -142.5t-117.5 -132t-174 -121 t-211.5 -106.5v-12l63 14h244l119 137h63q0 -35 -4 -80t-9 -88t-11.5 -78.5t-12.5 -56.5h-731z" />
<glyph unicode="&#xb3;" horiz-adv-x="901" d="M174 866l117 217h55q16 -27 33.5 -77t30.5 -91q36 -20 116 -20q49 0 85 16t57.5 42t32 56.5t10.5 59.5q0 49 -28 77.5t-116 28.5h-77l16 72l186 176l117 86v4l-129 -8h-145l-117 -170h-64q-4 27 -5 70t1 89t5.5 88t7.5 64h680l-19 -92l-244 -207l-94 -63l-2 -2l66 8 q88 -4 147.5 -52t59.5 -143q0 -66 -24 -125t-79 -103t-144 -69.5t-218 -25.5q-41 0 -87 7t-90.5 20.5t-81 31t-59.5 35.5z" />
<glyph unicode="&#xb4;" horiz-adv-x="1089" d="M489 1196l242 367q16 4 54 3t79 -7.5t75 -17.5t44 -23v-50l-412 -317z" />
<glyph unicode="&#xb6;" horiz-adv-x="1120" d="M207 1024q0 86 25.5 161t75.5 130t128 87t182 32h463v-88q-35 -16 -71.5 -28.5t-83.5 -21.5v-1103q0 -137 -20.5 -226.5t-60.5 -143.5t-98.5 -82t-134.5 -44q-41 -59 -101 -89t-124 -42l-33 67q45 18 85 46t69 74t46 118t17 178v586q-66 0 -130 20.5t-116.5 66.5t-85 121 t-32.5 181zM653 -227q84 27 113 132t29 288v1114h-90v-1258q0 -82 -11.5 -152.5t-40.5 -123.5z" />
<glyph unicode="&#xb7;" horiz-adv-x="481" d="M102 657q0 74 47 119t125 45t127 -45t49 -119t-49 -117.5t-127 -43.5t-125 43.5t-47 117.5z" />
<glyph unicode="&#xb8;" horiz-adv-x="911" d="M143 -446q35 6 69 16t59.5 25.5t41 36t15.5 46.5q-2 35 -22.5 58.5t-86.5 30.5l125 235h127l-88 -141q111 -6 155 -42t46 -104q0 -63 -41 -108t-105.5 -75t-143.5 -44t-151 -14v80z" />
<glyph unicode="&#xb9;" horiz-adv-x="901" d="M207 791l14 61q61 29 115.5 49.5t108.5 30.5l94 440l30 92q-27 -6 -57.5 -10t-62 -5t-61.5 0t-54 3l18 86q98 12 206 49t192 78h82l-156 -733q104 -25 188 -80l-14 -61h-643z" />
<glyph unicode="&#xba;" horiz-adv-x="913" d="M53 1032q0 88 37 166t101.5 136.5t151.5 91t187 32.5q156 0 243 -72.5t87 -195.5q0 -102 -41 -181t-108.5 -134.5t-153.5 -84t-174 -28.5q-68 0 -128 18.5t-105.5 54t-71 86t-25.5 111.5zM297 1008q0 -55 25.5 -98.5t87.5 -43.5q37 0 73.5 22.5t67.5 66.5t49 112t18 160 q0 47 -23.5 87t-86.5 40q-37 0 -75 -24.5t-67.5 -71t-49 -109.5t-19.5 -141z" />
<glyph unicode="&#xbb;" horiz-adv-x="1024" d="M53 156l307 387l-159 366l102 74l283 -446l-461 -455zM377 154l385 391l-238 366l97 76l407 -450l-588 -457z" />
<glyph unicode="&#xbc;" horiz-adv-x="1951" d="M125 578l14 61q61 29 115.5 49.5t108.5 30.5l94 440l30 92q-27 -6 -57.5 -10t-62 -5t-61.5 0t-54 3l18 86q98 12 206 49t192 78h82l-156 -733q104 -25 188 -80l-14 -61h-643zM362 61l1360 1403l99 -86l-1362 -1405zM1011 232l15 75l678 568h143l-111 -520h174l-26 -123 h-174l-23 -111q29 -8 56.5 -22.5t52.5 -36.5l-15 -62h-501l14 62q35 18 77 34.5t85 24.5l24 111h-469zM1208 340l113 15h184l45 210l39 89h-6l-86 -89l-205 -178z" />
<glyph unicode="&#xbd;" horiz-adv-x="2101" d="M125 578l14 61q61 29 115.5 49.5t108.5 30.5l94 440l30 92q-27 -6 -57.5 -10t-62 -5t-61.5 0t-54 3l18 86q98 12 206 49t192 78h82l-156 -733q104 -25 188 -80l-14 -61h-643zM350 61l1360 1403l99 -86l-1362 -1405zM1194 0l25 105q106 59 206.5 124.5t177 133t124 134 t47.5 128.5q0 47 -28 71.5t-89 24.5q-29 0 -57.5 -6t-53.5 -18l-104 -216h-55q-6 25 -12.5 67t-11.5 86t-8 83t-1 59q80 47 163 73t201 26q164 0 232.5 -58.5t68.5 -150.5q0 -74 -43 -142.5t-117.5 -132t-174 -121t-211.5 -106.5v-12l63 14h244l119 137h63q0 -35 -4 -80 t-9 -88t-11.5 -78.5t-12.5 -56.5h-731z" />
<glyph unicode="&#xbe;" horiz-adv-x="1996" d="M123 653l117 217h55q16 -27 33.5 -77t30.5 -91q36 -20 116 -20q49 0 85 16t57.5 42t32 56.5t10.5 59.5q0 49 -28 77.5t-116 28.5h-77l16 72l186 176l117 86v4l-129 -8h-145l-117 -170h-64q-4 27 -5 70t1 89t5.5 88t7.5 64h680l-19 -92l-244 -207l-94 -63l-2 -2l66 8 q88 -4 147.5 -52t59.5 -143q0 -66 -24 -125t-79 -103t-144 -69.5t-218 -25.5q-41 0 -87 7t-90.5 20.5t-81 31t-59.5 35.5zM399 61l1360 1403l99 -86l-1362 -1405zM1060 232l15 75l678 568h143l-111 -520h174l-26 -123h-174l-23 -111q29 -8 56.5 -22.5t52.5 -36.5l-15 -62 h-501l14 62q35 18 77 34.5t85 24.5l24 111h-469zM1257 340l113 15h184l45 210l39 89h-6l-86 -89l-205 -178z" />
<glyph unicode="&#xbf;" horiz-adv-x="995" d="M-49 -143q0 100 42 171.5t106.5 126t141 100.5t145.5 97t121 113.5t66 150.5h68q10 -98 -14.5 -173.5t-67.5 -137t-97 -113t-101.5 -102.5t-79 -105.5t-31.5 -119.5q0 -82 44 -120t116 -38q98 0 137 29l104 270h70q10 -41 25.5 -107.5t19.5 -134.5q2 -23 1 -44t-3 -42 q-86 -47 -188.5 -75.5t-235.5 -28.5q-182 0 -285.5 73.5t-103.5 209.5zM444 885q0 74 47.5 119t124.5 45q78 0 127.5 -45.5t49.5 -118.5q0 -74 -49.5 -118t-127.5 -44t-125 44t-47 118z" />
<glyph unicode="&#xc0;" horiz-adv-x="1482" d="M-90 0l14 78q37 20 78 35.5t82 23.5l811 1321h149l232 -1321q39 -8 77 -24.5t64 -34.5l-16 -78h-631l14 78q43 20 91.5 35.5t91.5 23.5l-49 326h-453l-195 -326q43 -6 86 -21.5t78 -37.5l-14 -78h-510zM521 1722v41q6 18 44 33.5t86 27t94 16.5t69 -1l260 -274l-70 -39z M535 596h366l-57 391v176h-4l-78 -180z" />
<glyph unicode="&#xc1;" horiz-adv-x="1482" d="M-90 0l14 78q37 20 78 35.5t82 23.5l811 1321h149l232 -1321q39 -8 77 -24.5t64 -34.5l-16 -78h-631l14 78q43 20 91.5 35.5t91.5 23.5l-49 326h-453l-195 -326q43 -6 86 -21.5t78 -37.5l-14 -78h-510zM535 596h366l-57 391v176h-4l-78 -180zM887 1575l291 264 q33 2 75 -4t81.5 -17.5t71.5 -25.5t44 -29v-41l-506 -196z" />
<glyph unicode="&#xc2;" horiz-adv-x="1482" d="M-90 0l14 78q37 20 78 35.5t82 23.5l811 1321h149l232 -1321q39 -8 77 -24.5t64 -34.5l-16 -78h-631l14 78q43 20 91.5 35.5t91.5 23.5l-49 326h-453l-195 -326q43 -6 86 -21.5t78 -37.5l-14 -78h-510zM535 596h366l-57 391v176h-4l-78 -180zM635 1579l352 240 q25 14 68 10q39 0 59 -10l164 -234l-57 -61l-213 114l-316 -116z" />
<glyph unicode="&#xc3;" horiz-adv-x="1482" d="M-90 0l14 78q37 20 78 35.5t82 23.5l811 1321h149l232 -1321q39 -8 77 -24.5t64 -34.5l-16 -78h-631l14 78q43 20 91.5 35.5t91.5 23.5l-49 326h-453l-195 -326q43 -6 86 -21.5t78 -37.5l-14 -78h-510zM535 596h366l-57 391v176h-4l-78 -180zM664 1655q156 139 276 139 q37 0 71 -10t64.5 -22.5t61 -22.5t63.5 -10q27 0 59.5 9t65.5 31l45 -96q-66 -66 -123 -99.5t-131 -33.5q-39 0 -72.5 11.5t-66.5 23.5t-63.5 23.5t-63.5 11.5q-29 0 -62.5 -11.5t-66.5 -39.5z" />
<glyph unicode="&#xc4;" horiz-adv-x="1482" d="M-90 0l14 78q37 20 78 35.5t82 23.5l811 1321h149l232 -1321q39 -8 77 -24.5t64 -34.5l-16 -78h-631l14 78q43 20 91.5 35.5t91.5 23.5l-49 326h-453l-195 -326q43 -6 86 -21.5t78 -37.5l-14 -78h-510zM535 596h366l-57 391v176h-4l-78 -180zM567 1624q0 66 47.5 98.5 t118.5 32.5q72 0 119 -32.5t47 -98.5q0 -57 -47 -89t-119 -32t-119 32t-47 89zM1069 1624q0 66 48 98.5t120 32.5t119 -32.5t47 -98.5q0 -57 -47 -89t-119 -32t-120 32t-48 89z" />
<glyph unicode="&#xc5;" horiz-adv-x="1482" d="M-90 0l14 78q37 20 78 35.5t82 23.5l805 1309q-160 18 -160 145q0 43 22.5 81t63.5 65.5t99.5 44t129.5 16.5q98 0 158 -34.5t60 -112.5t-62.5 -131.5t-155.5 -67.5l232 -1315q39 -8 77 -24.5t64 -34.5l-16 -78h-631l14 78q43 20 91.5 35.5t91.5 23.5l-49 326h-453 l-195 -326q43 -6 86 -21.5t78 -37.5l-14 -78h-510zM535 596h366l-57 391v176h-4l-78 -180zM899 1608q0 -33 25.5 -48.5t56.5 -15.5q49 0 80 22.5t31 55.5q0 41 -22.5 57.5t-61.5 16.5q-47 0 -78 -23.5t-31 -64.5z" />
<glyph unicode="&#xc6;" horiz-adv-x="1951" d="M-90 0l14 78q37 20 78 35.5t80 23.5l958 1170q-29 10 -57.5 21t-50.5 28l16 78h1102q-20 -92 -52 -190.5t-67 -184.5h-86l-43 241h-383l-106 -501h252l123 157h63q-4 -49 -13 -107t-21.5 -117.5t-28 -118t-31.5 -109.5h-66l-55 162h-252l-113 -533h400l164 260h86 q0 -39 -3 -88t-8.5 -101t-13.5 -105.5t-18 -98.5h-1098l14 78q37 16 81 32.5t91 26.5l78 363h-373l-282 -363q78 -18 143 -59l-14 -78h-508zM674 633h301l131 584h-4l-111 -185z" />
<glyph unicode="&#xc7;" horiz-adv-x="1335" d="M121 551q0 203 59.5 369.5t173 286.5t278.5 185.5t374 65.5q135 0 242.5 -19.5t174.5 -52.5q-6 -33 -20 -84t-32.5 -107t-39 -110.5t-39.5 -91.5h-86l-47 310q-18 10 -61 16t-86 6q-119 0 -218.5 -57.5t-172 -162t-112.5 -252.5t-40 -331q0 -115 33 -193.5t85 -127.5 t114.5 -70.5t121.5 -21.5t102.5 11t63.5 23l160 287h86q0 -33 -2 -79t-8 -98t-14.5 -103.5t-18.5 -92.5q-39 -20 -86 -35.5t-96 -24.5t-96.5 -14.5t-86.5 -7.5l-71 -118q119 -4 170 -45t51 -113q0 -78 -52.5 -131t-126 -87t-155.5 -49.5t-141 -15.5v95q37 4 72.5 14 t65.5 28.5t47.5 44t17.5 60.5q-2 37 -22.5 59.5t-92.5 26.5l110 236q-160 14 -269 68t-179 134t-100.5 176.5t-30.5 192.5z" />
<glyph unicode="&#xc8;" horiz-adv-x="1232" d="M-49 0l14 78q41 18 87 34.5t95 24.5l246 1159q-41 8 -82 23.5t-73 36.5l16 78h1077q-20 -92 -51 -190.5t-68 -184.5h-86l-43 241h-383l-106 -501h252l123 157h63q-10 -100 -35.5 -223t-58.5 -229h-66l-55 162h-252l-110 -533h397l164 260h86q0 -37 -3 -86t-8.5 -102 t-13.5 -106.5t-18 -98.5h-1108zM441 1722v41q6 18 44 33.5t86 27t94 16.5t69 -1l260 -274l-70 -39z" />
<glyph unicode="&#xc9;" horiz-adv-x="1232" d="M-49 0l14 78q41 18 87 34.5t95 24.5l246 1159q-41 8 -82 23.5t-73 36.5l16 78h1077q-20 -92 -51 -190.5t-68 -184.5h-86l-43 241h-383l-106 -501h252l123 157h63q-10 -100 -35.5 -223t-58.5 -229h-66l-55 162h-252l-110 -533h397l164 260h86q0 -37 -3 -86t-8.5 -102 t-13.5 -106.5t-18 -98.5h-1108zM688 1575l291 264q33 2 75 -4t81.5 -17.5t71.5 -25.5t44 -29v-41l-506 -196z" />
<glyph unicode="&#xca;" horiz-adv-x="1232" d="M-49 0l14 78q41 18 87 34.5t95 24.5l246 1159q-41 8 -82 23.5t-73 36.5l16 78h1077q-20 -92 -51 -190.5t-68 -184.5h-86l-43 241h-383l-106 -501h252l123 157h63q-10 -100 -35.5 -223t-58.5 -229h-66l-55 162h-252l-110 -533h397l164 260h86q0 -37 -3 -86t-8.5 -102 t-13.5 -106.5t-18 -98.5h-1108zM532 1579l352 240q25 14 68 10q39 0 59 -10l164 -234l-57 -61l-213 114l-316 -116z" />
<glyph unicode="&#xcb;" horiz-adv-x="1232" d="M-49 0l14 78q41 18 87 34.5t95 24.5l246 1159q-41 8 -82 23.5t-73 36.5l16 78h1077q-20 -92 -51 -190.5t-68 -184.5h-86l-43 241h-383l-106 -501h252l123 157h63q-10 -100 -35.5 -223t-58.5 -229h-66l-55 162h-252l-110 -533h397l164 260h86q0 -37 -3 -86t-8.5 -102 t-13.5 -106.5t-18 -98.5h-1108zM428 1624q0 66 47.5 98.5t118.5 32.5q72 0 119 -32.5t47 -98.5q0 -57 -47 -89t-119 -32t-119 32t-47 89zM930 1624q0 66 48 98.5t120 32.5t119 -32.5t47 -98.5q0 -57 -47 -89t-119 -32t-120 32t-48 89z" />
<glyph unicode="&#xcc;" horiz-adv-x="755" d="M-29 0l15 78q96 45 180 59l246 1159q-41 6 -81 21.5t-73 38.5l16 78h639l-16 -78q-41 -23 -89 -38t-89 -22l-246 -1159q39 -8 80 -22.5t72 -36.5l-15 -78h-639zM232 1722v41q6 18 44 33.5t86 27t94 16.5t69 -1l260 -274l-70 -39z" />
<glyph unicode="&#xcd;" horiz-adv-x="755" d="M-29 0l15 78q96 45 180 59l246 1159q-41 6 -81 21.5t-73 38.5l16 78h639l-16 -78q-41 -23 -89 -38t-89 -22l-246 -1159q39 -8 80 -22.5t72 -36.5l-15 -78h-639zM385 1575l291 264q33 2 75 -4t81.5 -17.5t71.5 -25.5t44 -29v-41l-506 -196z" />
<glyph unicode="&#xce;" horiz-adv-x="755" d="M-29 0l15 78q96 45 180 59l246 1159q-41 6 -81 21.5t-73 38.5l16 78h639l-16 -78q-41 -23 -89 -38t-89 -22l-246 -1159q39 -8 80 -22.5t72 -36.5l-15 -78h-639zM270 1579l352 240q25 14 68 10q39 0 59 -10l164 -234l-57 -61l-213 114l-316 -116z" />
<glyph unicode="&#xcf;" horiz-adv-x="755" d="M-29 0l15 78q96 45 180 59l246 1159q-41 6 -81 21.5t-73 38.5l16 78h639l-16 -78q-41 -23 -89 -38t-89 -22l-246 -1159q39 -8 80 -22.5t72 -36.5l-15 -78h-639zM194 1624q0 66 47.5 98.5t118.5 32.5q72 0 119 -32.5t47 -98.5q0 -57 -47 -89t-119 -32t-119 32t-47 89z M696 1624q0 66 48 98.5t120 32.5t119 -32.5t47 -98.5q0 -57 -47 -89t-119 -32t-120 32t-48 89z" />
<glyph unicode="&#xd0;" horiz-adv-x="1503" d="M-49 0l14 78q39 20 86 35.5t96 23.5l113 537h-178l27 123h178l106 499q-47 10 -87 25.5t-68 34.5l16 78h238q35 0 87 2t108 5t108.5 6t89.5 3q172 0 291.5 -37t194.5 -104.5t108.5 -160.5t33.5 -206q0 -117 -20 -232.5t-67.5 -222t-121 -198.5t-181 -161t-249 -107.5 t-323.5 -38.5q-27 0 -73 3t-99 6t-105.5 6t-91.5 3h-231zM438 123q31 -4 78 -6t70 -2q166 0 278.5 78.5t182 202.5t99.5 275.5t30 297.5q0 84 -16.5 149.5t-55.5 109.5t-104.5 66.5t-161.5 22.5q-37 0 -78 -2t-70 -6l-110 -512h311l-27 -123h-309z" />
<glyph unicode="&#xd1;" horiz-adv-x="1546" d="M-49 0l14 78q92 57 191 82l237 1118q-35 14 -74.5 36.5t-62.5 43.5l14 76h435l411 -852l62 -176h8l31 176l143 684q-45 16 -87 39.5t-71 50.5l17 78h505l-16 -78q-47 -35 -96 -56.5t-96 -33.5l-275 -1291h-166l-508 1045l-49 158h-6l-18 -164l-183 -854q37 -10 83 -34 t75 -48l-14 -78h-504zM641 1655q156 139 276 139q37 0 71 -10t64.5 -22.5t61 -22.5t63.5 -10q27 0 59.5 9t65.5 31l45 -96q-66 -66 -123 -99.5t-131 -33.5q-39 0 -72.5 11.5t-66.5 23.5t-63.5 23.5t-63.5 11.5q-29 0 -62.5 -11.5t-66.5 -39.5z" />
<glyph unicode="&#xd2;" horiz-adv-x="1538" d="M121 555q0 188 58.5 353t168 287t268 192.5t359.5 70.5q137 0 243.5 -40t180.5 -114.5t111.5 -181t37.5 -239.5q0 -168 -51 -331t-155.5 -291t-261 -207t-367.5 -79q-141 0 -252 44t-186.5 122t-114.5 184.5t-39 229.5zM469 516q0 -205 77 -306t208 -101 q117 0 200.5 75.5t139 193.5t81 264t25.5 288q0 182 -62.5 288.5t-205.5 106.5q-80 0 -144.5 -36t-117 -97.5t-90 -142t-62 -171t-37 -183.5t-12.5 -179zM621 1722v41q6 18 44 33.5t86 27t94 16.5t69 -1l260 -274l-70 -39z" />
<glyph unicode="&#xd3;" horiz-adv-x="1538" d="M121 555q0 188 58.5 353t168 287t268 192.5t359.5 70.5q137 0 243.5 -40t180.5 -114.5t111.5 -181t37.5 -239.5q0 -168 -51 -331t-155.5 -291t-261 -207t-367.5 -79q-141 0 -252 44t-186.5 122t-114.5 184.5t-39 229.5zM469 516q0 -205 77 -306t208 -101 q117 0 200.5 75.5t139 193.5t81 264t25.5 288q0 182 -62.5 288.5t-205.5 106.5q-80 0 -144.5 -36t-117 -97.5t-90 -142t-62 -171t-37 -183.5t-12.5 -179zM795 1575l291 264q33 2 75 -4t81.5 -17.5t71.5 -25.5t44 -29v-41l-506 -196z" />
<glyph unicode="&#xd4;" horiz-adv-x="1538" d="M121 555q0 188 58.5 353t168 287t268 192.5t359.5 70.5q137 0 243.5 -40t180.5 -114.5t111.5 -181t37.5 -239.5q0 -168 -51 -331t-155.5 -291t-261 -207t-367.5 -79q-141 0 -252 44t-186.5 122t-114.5 184.5t-39 229.5zM469 516q0 -205 77 -306t208 -101 q117 0 200.5 75.5t139 193.5t81 264t25.5 288q0 182 -62.5 288.5t-205.5 106.5q-80 0 -144.5 -36t-117 -97.5t-90 -142t-62 -171t-37 -183.5t-12.5 -179zM663 1579l352 240q25 14 68 10q39 0 59 -10l164 -234l-57 -61l-213 114l-316 -116z" />
<glyph unicode="&#xd5;" horiz-adv-x="1538" d="M121 555q0 188 58.5 353t168 287t268 192.5t359.5 70.5q137 0 243.5 -40t180.5 -114.5t111.5 -181t37.5 -239.5q0 -168 -51 -331t-155.5 -291t-261 -207t-367.5 -79q-141 0 -252 44t-186.5 122t-114.5 184.5t-39 229.5zM469 516q0 -205 77 -306t208 -101 q117 0 200.5 75.5t139 193.5t81 264t25.5 288q0 182 -62.5 288.5t-205.5 106.5q-80 0 -144.5 -36t-117 -97.5t-90 -142t-62 -171t-37 -183.5t-12.5 -179zM652 1655q156 139 276 139q37 0 71 -10t64.5 -22.5t61 -22.5t63.5 -10q27 0 59.5 9t65.5 31l45 -96 q-66 -66 -123 -99.5t-131 -33.5q-39 0 -72.5 11.5t-66.5 23.5t-63.5 23.5t-63.5 11.5q-29 0 -62.5 -11.5t-66.5 -39.5z" />
<glyph unicode="&#xd6;" horiz-adv-x="1538" d="M121 555q0 188 58.5 353t168 287t268 192.5t359.5 70.5q137 0 243.5 -40t180.5 -114.5t111.5 -181t37.5 -239.5q0 -168 -51 -331t-155.5 -291t-261 -207t-367.5 -79q-141 0 -252 44t-186.5 122t-114.5 184.5t-39 229.5zM469 516q0 -205 77 -306t208 -101 q117 0 200.5 75.5t139 193.5t81 264t25.5 288q0 182 -62.5 288.5t-205.5 106.5q-80 0 -144.5 -36t-117 -97.5t-90 -142t-62 -171t-37 -183.5t-12.5 -179zM579 1624q0 66 47.5 98.5t118.5 32.5q72 0 119 -32.5t47 -98.5q0 -57 -47 -89t-119 -32t-119 32t-47 89zM1081 1624 q0 66 48 98.5t120 32.5t119 -32.5t47 -98.5q0 -57 -47 -89t-119 -32t-120 32t-48 89z" />
<glyph unicode="&#xd7;" d="M186 436l269 269l-265 264l117 114l264 -262l267 266l116 -114l-268 -268l272 -273l-116 -117l-273 273l-266 -266z" />
<glyph unicode="&#xd8;" horiz-adv-x="1538" d="M121 555q0 188 58.5 353t168 287t268 192.5t359.5 70.5q98 0 180 -20.5t148 -59.5l77 92l103 -84l-76 -90q72 -76 106.5 -180t34.5 -233q0 -168 -51 -331t-155.5 -291t-261 -207t-367.5 -79q-104 0 -190.5 25t-153.5 68l-90 -105l-101 88l86 101q-72 78 -107.5 180 t-35.5 223zM479 639q-6 -115 17 -215l645 764q-29 66 -80 101.5t-129 35.5q-109 0 -189.5 -62.5t-137 -162t-87.5 -221t-39 -240.5zM528 258q70 -149 226 -149q109 0 186.5 60t129.5 158.5t81 221.5t39 248q6 117 -16 223z" />
<glyph unicode="&#xd9;" horiz-adv-x="1464" d="M213 555l156 741q-41 8 -85 22.5t-71 37.5l16 78h631l-16 -78q-74 -43 -168 -60l-162 -764q-41 -201 30.5 -290.5t225.5 -89.5q143 0 239.5 82.5t139.5 283.5l162 768q-47 10 -93.5 28.5t-72.5 41.5l16 78h508l-16 -78q-37 -27 -87 -43.5t-98 -26.5l-163 -770 q-55 -264 -202 -399t-419 -135q-293 0 -410.5 153.5t-60.5 419.5zM582 1722v41q6 18 44 33.5t86 27t94 16.5t69 -1l260 -274l-70 -39z" />
<glyph unicode="&#xda;" horiz-adv-x="1464" d="M213 555l156 741q-41 8 -85 22.5t-71 37.5l16 78h631l-16 -78q-74 -43 -168 -60l-162 -764q-41 -201 30.5 -290.5t225.5 -89.5q143 0 239.5 82.5t139.5 283.5l162 768q-47 10 -93.5 28.5t-72.5 41.5l16 78h508l-16 -78q-37 -27 -87 -43.5t-98 -26.5l-163 -770 q-55 -264 -202 -399t-419 -135q-293 0 -410.5 153.5t-60.5 419.5zM948 1575l291 264q33 2 75 -4t81.5 -17.5t71.5 -25.5t44 -29v-41l-506 -196z" />
<glyph unicode="&#xdb;" horiz-adv-x="1464" d="M213 555l156 741q-41 8 -85 22.5t-71 37.5l16 78h631l-16 -78q-74 -43 -168 -60l-162 -764q-41 -201 30.5 -290.5t225.5 -89.5q143 0 239.5 82.5t139.5 283.5l162 768q-47 10 -93.5 28.5t-72.5 41.5l16 78h508l-16 -78q-37 -27 -87 -43.5t-98 -26.5l-163 -770 q-55 -264 -202 -399t-419 -135q-293 0 -410.5 153.5t-60.5 419.5zM676 1579l352 240q25 14 68 10q39 0 59 -10l164 -234l-57 -61l-213 114l-316 -116z" />
<glyph unicode="&#xdc;" horiz-adv-x="1464" d="M213 555l156 741q-41 8 -85 22.5t-71 37.5l16 78h631l-16 -78q-74 -43 -168 -60l-162 -764q-41 -201 30.5 -290.5t225.5 -89.5q143 0 239.5 82.5t139.5 283.5l162 768q-47 10 -93.5 28.5t-72.5 41.5l16 78h508l-16 -78q-37 -27 -87 -43.5t-98 -26.5l-163 -770 q-55 -264 -202 -399t-419 -135q-293 0 -410.5 153.5t-60.5 419.5zM610 1624q0 66 47.5 98.5t118.5 32.5q72 0 119 -32.5t47 -98.5q0 -57 -47 -89t-119 -32t-119 32t-47 89zM1112 1624q0 66 48 98.5t120 32.5t119 -32.5t47 -98.5q0 -57 -47 -89t-119 -32t-120 32t-48 89z" />
<glyph unicode="&#xdd;" horiz-adv-x="1423" d="M197 1356l16 78h666l-17 -78q-29 -16 -69.5 -32.5t-94.5 -27.5l179 -551l391 551q-43 10 -82 25.5t-68 34.5l17 78h510l-17 -78q-35 -20 -76 -35.5t-82 -24.5l-546 -696l-99 -463q39 -6 76 -22.5t68 -36.5l-17 -78h-630l16 78q39 18 86 34.5t94 24.5l98 461l-266 698 q-45 8 -85 23.5t-68 36.5zM879 1575l291 264q33 2 75 -4t81.5 -17.5t71.5 -25.5t44 -29v-41l-506 -196z" />
<glyph unicode="&#xde;" horiz-adv-x="1288" d="M-49 0l12 68q90 43 182 59l250 1180q-41 6 -82 22.5t-73 36.5l14 68h641l-14 -68q-41 -23 -89.5 -38t-89.5 -21l-18 -93q43 4 91 7.5t87 3.5q223 0 348 -82t125 -254q0 -125 -50 -224.5t-139 -169t-213 -106.5t-269 -37h-33t-48.5 1t-48 2t-32.5 3l-49 -229 q53 -6 105 -23.5t87 -37.5l-12 -68h-682zM528 494q18 -6 55.5 -7.5t59.5 -1.5q82 0 146.5 29t110.5 81t70.5 122.5t24.5 154.5q0 106 -50 163t-177 57q-41 0 -65.5 -3.5t-47.5 -9.5z" />
<glyph unicode="&#xdf;" horiz-adv-x="1353" d="M-150 -365q25 12 62 40t74 77t68.5 122t47.5 175l129 846h-145v80q41 23 87 40t87 27l14 72q25 127 91.5 210t152.5 131t181.5 66.5t179.5 18.5q199 0 299 -71.5t110 -194.5q2 -23 -1 -46.5t-7 -49.5q-63 -10 -130 -32t-121 -60.5t-89 -94t-35 -133.5q0 -49 25.5 -87 t62.5 -73.5t82 -72.5t82 -80t62.5 -96.5t25.5 -122.5q0 -78 -34.5 -142.5t-95 -110.5t-144.5 -72t-183 -26q-104 0 -175.5 19.5t-112.5 48.5q0 63 24.5 121.5t73.5 93.5l176 -166q33 0 64.5 13.5t56.5 35t39 51t14 64.5q0 51 -24.5 90t-61.5 74t-81 68.5t-80.5 73.5 t-61.5 90t-25 118q0 92 34 161.5t89.5 121t126 86.5t146.5 57q23 104 -24.5 165.5t-145.5 61.5q-41 0 -86 -12t-85 -44t-72 -90t-46 -151l-172 -1038q-20 -145 -84 -241.5t-140.5 -155t-154.5 -87t-127 -38.5z" />
<glyph unicode="&#xe0;" horiz-adv-x="1153" d="M57 285q0 160 44 298t125 241.5t196 161.5t256 58q53 0 91 -12t81 -31q53 20 114.5 30.5t147.5 10.5l-172 -901h143v-69q-20 -16 -54 -32.5t-74 -29t-82 -20.5t-78 -8q-72 0 -102.5 30.5t-30.5 63.5q0 37 10 97t30 153h-8q-27 -66 -66.5 -128.5t-91 -111.5t-113 -80 t-132.5 -31q-106 0 -170 78t-64 232zM348 319q0 -94 22.5 -137t69.5 -43q39 0 81 35t80 87t69.5 114.5t54.5 116.5l76 405q-25 16 -46.5 23.5t-56.5 7.5q-82 0 -147.5 -54.5t-110.5 -141.5t-68.5 -195.5t-23.5 -217.5zM375 1458v60q12 12 53 23t87 17.5t87 7.5t56 -3 l149 -357l-92 -45z" />
<glyph unicode="&#xe1;" horiz-adv-x="1153" d="M57 285q0 160 44 298t125 241.5t196 161.5t256 58q53 0 91 -12t81 -31q53 20 114.5 30.5t147.5 10.5l-172 -901h143v-69q-20 -16 -54 -32.5t-74 -29t-82 -20.5t-78 -8q-72 0 -102.5 30.5t-30.5 63.5q0 37 10 97t30 153h-8q-27 -66 -66.5 -128.5t-91 -111.5t-113 -80 t-132.5 -31q-106 0 -170 78t-64 232zM348 319q0 -94 22.5 -137t69.5 -43q39 0 81 35t80 87t69.5 114.5t54.5 116.5l76 405q-25 16 -46.5 23.5t-56.5 7.5q-82 0 -147.5 -54.5t-110.5 -141.5t-68.5 -195.5t-23.5 -217.5zM589 1196l242 367q16 4 54 3t79 -7.5t75 -17.5t44 -23 v-50l-412 -317z" />
<glyph unicode="&#xe2;" horiz-adv-x="1153" d="M57 285q0 160 44 298t125 241.5t196 161.5t256 58q53 0 91 -12t81 -31q53 20 114.5 30.5t147.5 10.5l-172 -901h143v-69q-20 -16 -54 -32.5t-74 -29t-82 -20.5t-78 -8q-72 0 -102.5 30.5t-30.5 63.5q0 37 10 97t30 153h-8q-27 -66 -66.5 -128.5t-91 -111.5t-113 -80 t-132.5 -31q-106 0 -170 78t-64 232zM348 319q0 -94 22.5 -137t69.5 -43q39 0 81 35t80 87t69.5 114.5t54.5 116.5l76 405q-25 16 -46.5 23.5t-56.5 7.5q-82 0 -147.5 -54.5t-110.5 -141.5t-68.5 -195.5t-23.5 -217.5zM439 1233l327 381q6 6 21.5 9t32.5 3q35 0 53 -12 l131 -379l-84 -53l-154 200l-241 -200z" />
<glyph unicode="&#xe3;" horiz-adv-x="1153" d="M57 285q0 160 44 298t125 241.5t196 161.5t256 58q53 0 91 -12t81 -31q53 20 114.5 30.5t147.5 10.5l-172 -901h143v-69q-20 -16 -54 -32.5t-74 -29t-82 -20.5t-78 -8q-72 0 -102.5 30.5t-30.5 63.5q0 37 10 97t30 153h-8q-27 -66 -66.5 -128.5t-91 -111.5t-113 -80 t-132.5 -31q-106 0 -170 78t-64 232zM348 319q0 -94 22.5 -137t69.5 -43q39 0 81 35t80 87t69.5 114.5t54.5 116.5l76 405q-25 16 -46.5 23.5t-56.5 7.5q-82 0 -147.5 -54.5t-110.5 -141.5t-68.5 -195.5t-23.5 -217.5zM397 1348q76 78 144.5 108.5t115.5 30.5q37 0 69 -10.5 t60.5 -22.5t58.5 -22.5t60 -10.5q27 0 53.5 5.5t59.5 25.5l45 -86q-61 -70 -127 -101.5t-113 -31.5q-37 0 -69.5 11t-63 23.5t-60.5 24t-61 11.5q-27 0 -54.5 -9.5t-59.5 -31.5z" />
<glyph unicode="&#xe4;" horiz-adv-x="1153" d="M57 285q0 160 44 298t125 241.5t196 161.5t256 58q53 0 91 -12t81 -31q53 20 114.5 30.5t147.5 10.5l-172 -901h143v-69q-20 -16 -54 -32.5t-74 -29t-82 -20.5t-78 -8q-72 0 -102.5 30.5t-30.5 63.5q0 37 10 97t30 153h-8q-27 -66 -66.5 -128.5t-91 -111.5t-113 -80 t-132.5 -31q-106 0 -170 78t-64 232zM348 319q0 -94 22.5 -137t69.5 -43q39 0 81 35t80 87t69.5 114.5t54.5 116.5l76 405q-25 16 -46.5 23.5t-56.5 7.5q-82 0 -147.5 -54.5t-110.5 -141.5t-68.5 -195.5t-23.5 -217.5zM358 1350q0 66 41 104.5t109 38.5q66 0 107.5 -39 t41.5 -104q0 -61 -42 -100.5t-107 -39.5q-68 0 -109 39.5t-41 100.5zM807 1350q0 66 41 104.5t106 38.5q68 0 110 -39t42 -104q0 -61 -42 -100.5t-110 -39.5q-66 0 -106.5 39.5t-40.5 100.5z" />
<glyph unicode="&#xe5;" horiz-adv-x="1153" d="M57 285q0 160 44 298t125 241.5t196 161.5t256 58q53 0 91 -12t81 -31q53 20 114.5 30.5t147.5 10.5l-172 -901h143v-69q-20 -16 -54 -32.5t-74 -29t-82 -20.5t-78 -8q-72 0 -102.5 30.5t-30.5 63.5q0 37 10 97t30 153h-8q-27 -66 -66.5 -128.5t-91 -111.5t-113 -80 t-132.5 -31q-106 0 -170 78t-64 232zM348 319q0 -94 22.5 -137t69.5 -43q39 0 81 35t80 87t69.5 114.5t54.5 116.5l76 405q-25 16 -46.5 23.5t-56.5 7.5q-82 0 -147.5 -54.5t-110.5 -141.5t-68.5 -195.5t-23.5 -217.5zM530 1360q0 98 74 167.5t207 69.5q90 0 140.5 -47 t50.5 -118q0 -47 -18.5 -90.5t-53.5 -76t-85 -51t-114 -18.5q-96 0 -148.5 44t-52.5 120zM684 1364q0 -31 17.5 -48.5t44.5 -17.5q37 0 69.5 34t32.5 93q0 70 -57 70q-51 0 -79 -39t-28 -92z" />
<glyph unicode="&#xe6;" horiz-adv-x="1599" d="M39 238q0 184 170 271t493 64q53 174 39 266.5t-116 92.5q-55 0 -111 -21l-117 -215h-90q-27 45 -49 108.5t-22 129.5q90 53 210.5 84t241.5 31q117 0 185.5 -31t84.5 -74q59 47 140.5 76t181.5 29q123 0 203 -56.5t80 -154.5q0 -139 -137.5 -229.5t-448.5 -112.5 q-4 -29 -7 -58.5t-3 -56.5q0 -117 59 -179.5t152 -62.5q39 0 77.5 12.5t73.5 33t64.5 44t52.5 45.5l49 -51q-23 -41 -66 -85t-100 -79.5t-126.5 -59.5t-145.5 -24q-279 0 -361 226h-2q-49 -96 -145 -161t-217 -65q-137 0 -215 74t-78 189zM338 276q0 -70 36 -103.5t89 -33.5 q37 0 69.5 16.5t60.5 42t48.5 58.5t32.5 66q-2 39 0 81.5t6 77.5q-166 20 -254 -38t-88 -167zM991 600q154 4 247 67.5t93 166.5q0 41 -22.5 69.5t-75.5 28.5q-68 0 -132.5 -76t-109.5 -256z" />
<glyph unicode="&#xe7;" horiz-adv-x="911" d="M55 340q0 143 44 272t124 226.5t193.5 154t253.5 56.5q92 0 160.5 -19.5t91.5 -46.5q2 -23 -7.5 -56.5t-28 -67.5t-44 -63.5t-51.5 -41.5l-125 178q-55 0 -111.5 -38t-101.5 -108.5t-74 -170t-29 -224.5t51.5 -183t137.5 -58q41 0 78.5 13t70.5 31.5t60.5 40t48.5 39.5 l47 -51q-25 -39 -60.5 -78t-83 -72.5t-103.5 -58t-120 -34.5l-74 -119q111 -6 155 -42t46 -104q0 -63 -41 -108t-105.5 -75t-143 -44t-150.5 -14v80q35 6 68.5 16t59 25.5t41 36t15.5 46.5q-2 35 -22.5 58.5t-85.5 30.5l112 213q-139 16 -218 109t-79 251z" />
<glyph unicode="&#xe8;" horiz-adv-x="966" d="M55 356q0 141 45 266.5t126 220.5t192.5 150.5t245.5 55.5q123 0 202.5 -56.5t79.5 -154.5q0 -139 -138 -229.5t-448 -112.5q-6 -29 -9 -58.5t-3 -56.5q0 -117 59.5 -179.5t151.5 -62.5q39 0 78 12.5t75 33t65.5 44t51.5 45.5l50 -51q-23 -41 -66 -85t-100.5 -79.5 t-127 -59.5t-145.5 -24q-182 0 -283.5 99.5t-101.5 281.5zM358 1458v60q12 12 53 23t87 17.5t87 7.5t56 -3l149 -357l-92 -45zM375 600q152 4 245 67.5t93 166.5q0 41 -22 69.5t-75 28.5q-70 0 -134 -76t-107 -256z" />
<glyph unicode="&#xe9;" horiz-adv-x="966" d="M55 356q0 141 45 266.5t126 220.5t192.5 150.5t245.5 55.5q123 0 202.5 -56.5t79.5 -154.5q0 -139 -138 -229.5t-448 -112.5q-6 -29 -9 -58.5t-3 -56.5q0 -117 59.5 -179.5t151.5 -62.5q39 0 78 12.5t75 33t65.5 44t51.5 45.5l50 -51q-23 -41 -66 -85t-100.5 -79.5 t-127 -59.5t-145.5 -24q-182 0 -283.5 99.5t-101.5 281.5zM375 600q152 4 245 67.5t93 166.5q0 41 -22 69.5t-75 28.5q-70 0 -134 -76t-107 -256zM522 1196l242 367q16 4 54 3t79 -7.5t75 -17.5t44 -23v-50l-412 -317z" />
<glyph unicode="&#xea;" horiz-adv-x="966" d="M55 356q0 141 45 266.5t126 220.5t192.5 150.5t245.5 55.5q123 0 202.5 -56.5t79.5 -154.5q0 -139 -138 -229.5t-448 -112.5q-6 -29 -9 -58.5t-3 -56.5q0 -117 59.5 -179.5t151.5 -62.5q39 0 78 12.5t75 33t65.5 44t51.5 45.5l50 -51q-23 -41 -66 -85t-100.5 -79.5 t-127 -59.5t-145.5 -24q-182 0 -283.5 99.5t-101.5 281.5zM371 1233l327 381q6 6 21.5 9t32.5 3q35 0 53 -12l131 -379l-84 -53l-154 200l-241 -200zM375 600q152 4 245 67.5t93 166.5q0 41 -22 69.5t-75 28.5q-70 0 -134 -76t-107 -256z" />
<glyph unicode="&#xeb;" horiz-adv-x="966" d="M55 356q0 141 45 266.5t126 220.5t192.5 150.5t245.5 55.5q123 0 202.5 -56.5t79.5 -154.5q0 -139 -138 -229.5t-448 -112.5q-6 -29 -9 -58.5t-3 -56.5q0 -117 59.5 -179.5t151.5 -62.5q39 0 78 12.5t75 33t65.5 44t51.5 45.5l50 -51q-23 -41 -66 -85t-100.5 -79.5 t-127 -59.5t-145.5 -24q-182 0 -283.5 99.5t-101.5 281.5zM284 1350q0 66 41 104.5t109 38.5q66 0 107.5 -39t41.5 -104q0 -61 -42 -100.5t-107 -39.5q-68 0 -109 39.5t-41 100.5zM375 600q152 4 245 67.5t93 166.5q0 41 -22 69.5t-75 28.5q-70 0 -134 -76t-107 -256z M733 1350q0 66 41 104.5t106 38.5q68 0 110 -39t42 -104q0 -61 -42 -100.5t-110 -39.5q-66 0 -106.5 39.5t-40.5 100.5z" />
<glyph unicode="&#xec;" horiz-adv-x="622" d="M86 76q0 41 6 80t17 86l139 635l-127 28v70q31 12 82 25.5t108.5 23.5t113.5 17.5t99 7.5l37 -25l-184 -883h143v-69q-27 -18 -62.5 -35t-75.5 -29t-81 -19t-78 -7q-78 0 -107.5 29.5t-29.5 64.5zM106 1458v60q12 12 53 23t87 17.5t87 7.5t56 -3l149 -357l-92 -45z" />
<glyph unicode="&#xed;" horiz-adv-x="622" d="M86 76q0 41 6 80t17 86l139 635l-127 28v70q31 12 82 25.5t108.5 23.5t113.5 17.5t99 7.5l37 -25l-184 -883h143v-69q-27 -18 -62.5 -35t-75.5 -29t-81 -19t-78 -7q-78 0 -107.5 29.5t-29.5 64.5zM301 1196l242 367q16 4 54 3t79 -7.5t75 -17.5t44 -23v-50l-412 -317z " />
<glyph unicode="&#xee;" horiz-adv-x="622" d="M86 76q0 41 6 80t17 86l139 635l-127 28v70q31 12 82 25.5t108.5 23.5t113.5 17.5t99 7.5l37 -25l-184 -883h143v-69q-27 -18 -62.5 -35t-75.5 -29t-81 -19t-78 -7q-78 0 -107.5 29.5t-29.5 64.5zM166 1233l327 381q6 6 21.5 9t32.5 3q35 0 53 -12l131 -379l-84 -53 l-154 200l-241 -200z" />
<glyph unicode="&#xef;" horiz-adv-x="622" d="M71 1350q0 66 41 104.5t109 38.5q66 0 107.5 -39t41.5 -104q0 -61 -42 -100.5t-107 -39.5q-68 0 -109 39.5t-41 100.5zM86 76q0 41 6 80t17 86l139 635l-127 28v70q31 12 82 25.5t108.5 23.5t113.5 17.5t99 7.5l37 -25l-184 -883h143v-69q-27 -18 -62.5 -35t-75.5 -29 t-81 -19t-78 -7q-78 0 -107.5 29.5t-29.5 64.5zM520 1350q0 66 41 104.5t106 38.5q68 0 110 -39t42 -104q0 -61 -42 -100.5t-110 -39.5q-66 0 -106.5 39.5t-40.5 100.5z" />
<glyph unicode="&#xf0;" horiz-adv-x="1085" d="M43 350q0 147 48 273.5t130 217.5t190.5 143t227.5 52q41 0 82 -8t63 -24q0 66 -11 123t-32 104l-200 -84l-49 110l192 82q-39 51 -89 86t-108 54v57h261q35 -12 74.5 -40t80.5 -71l195 82l47 -108l-170 -74q41 -70 65.5 -163t24.5 -216q0 -205 -48 -382t-136 -308 t-213 -206t-277 -75q-76 0 -140.5 26t-110.5 73t-71.5 116.5t-25.5 159.5zM334 315q0 -45 6 -86t19.5 -71.5t38 -48t61.5 -17.5q61 0 116.5 62.5t98.5 170t69.5 251t30.5 307.5q-31 20 -63.5 28.5t-65.5 8.5q-84 0 -143.5 -57.5t-96 -146.5t-54 -195.5t-17.5 -205.5z" />
<glyph unicode="&#xf1;" horiz-adv-x="1204" d="M57 0l176 879l-120 26l4 70q29 14 74 27.5t98 23.5t109.5 16.5t107.5 6.5l41 -25l-64 -299h11q37 68 86 127t104 102t116.5 69t125.5 26q86 0 135 -55.5t49 -147.5q0 -47 -10 -107.5t-25 -120.5l-112 -477h147v-69q-20 -16 -54 -32.5t-74 -29t-83 -20.5t-82 -8 q-70 0 -101.5 26.5t-31.5 61.5q0 43 10.5 92t20.5 94l71 328q14 63 25.5 112t11.5 103q0 35 -15 60.5t-54 25.5t-81 -30t-82 -74t-74 -97t-54 -98l-123 -586h-283zM413 1348q76 78 144.5 108.5t115.5 30.5q37 0 69 -10.5t60.5 -22.5t58.5 -22.5t60 -10.5q27 0 53.5 5.5 t59.5 25.5l45 -86q-61 -70 -127 -101.5t-113 -31.5q-37 0 -69.5 11t-63 23.5t-60.5 24t-61 11.5q-27 0 -54.5 -9.5t-59.5 -31.5z" />
<glyph unicode="&#xf2;" horiz-adv-x="1124" d="M59 393q0 111 37 226.5t113 211t191.5 157t271.5 61.5q184 0 288.5 -100.5t104.5 -299.5q0 -135 -41 -257t-119 -215t-189.5 -147.5t-254.5 -54.5q-86 0 -160 26t-128 78t-84 130t-30 184zM350 313q0 -104 40 -162.5t110 -58.5q59 0 109 50.5t87 135t57.5 194.5t20.5 228 q0 113 -35.5 172.5t-101.5 59.5q-82 0 -136.5 -61.5t-88 -154.5t-48 -201.5t-14.5 -201.5zM367 1458v60q12 12 53 23t87 17.5t87 7.5t56 -3l149 -357l-92 -45z" />
<glyph unicode="&#xf3;" horiz-adv-x="1124" d="M59 393q0 111 37 226.5t113 211t191.5 157t271.5 61.5q184 0 288.5 -100.5t104.5 -299.5q0 -135 -41 -257t-119 -215t-189.5 -147.5t-254.5 -54.5q-86 0 -160 26t-128 78t-84 130t-30 184zM350 313q0 -104 40 -162.5t110 -58.5q59 0 109 50.5t87 135t57.5 194.5t20.5 228 q0 113 -35.5 172.5t-101.5 59.5q-82 0 -136.5 -61.5t-88 -154.5t-48 -201.5t-14.5 -201.5zM550 1196l242 367q16 4 54 3t79 -7.5t75 -17.5t44 -23v-50l-412 -317z" />
<glyph unicode="&#xf4;" horiz-adv-x="1124" d="M59 393q0 111 37 226.5t113 211t191.5 157t271.5 61.5q184 0 288.5 -100.5t104.5 -299.5q0 -135 -41 -257t-119 -215t-189.5 -147.5t-254.5 -54.5q-86 0 -160 26t-128 78t-84 130t-30 184zM350 313q0 -104 40 -162.5t110 -58.5q59 0 109 50.5t87 135t57.5 194.5t20.5 228 q0 113 -35.5 172.5t-101.5 59.5q-82 0 -136.5 -61.5t-88 -154.5t-48 -201.5t-14.5 -201.5zM406 1233l327 381q6 6 21.5 9t32.5 3q35 0 53 -12l131 -379l-84 -53l-154 200l-241 -200z" />
<glyph unicode="&#xf5;" horiz-adv-x="1124" d="M59 393q0 111 37 226.5t113 211t191.5 157t271.5 61.5q184 0 288.5 -100.5t104.5 -299.5q0 -135 -41 -257t-119 -215t-189.5 -147.5t-254.5 -54.5q-86 0 -160 26t-128 78t-84 130t-30 184zM350 313q0 -104 40 -162.5t110 -58.5q59 0 109 50.5t87 135t57.5 194.5t20.5 228 q0 113 -35.5 172.5t-101.5 59.5q-82 0 -136.5 -61.5t-88 -154.5t-48 -201.5t-14.5 -201.5zM387 1348q76 78 144.5 108.5t115.5 30.5q37 0 69 -10.5t60.5 -22.5t58.5 -22.5t60 -10.5q27 0 53.5 5.5t59.5 25.5l45 -86q-61 -70 -127 -101.5t-113 -31.5q-37 0 -69.5 11t-63 23.5 t-60.5 24t-61 11.5q-27 0 -54.5 -9.5t-59.5 -31.5z" />
<glyph unicode="&#xf6;" horiz-adv-x="1124" d="M59 393q0 111 37 226.5t113 211t191.5 157t271.5 61.5q184 0 288.5 -100.5t104.5 -299.5q0 -135 -41 -257t-119 -215t-189.5 -147.5t-254.5 -54.5q-86 0 -160 26t-128 78t-84 130t-30 184zM309 1350q0 66 41 104.5t109 38.5q66 0 107.5 -39t41.5 -104q0 -61 -42 -100.5 t-107 -39.5q-68 0 -109 39.5t-41 100.5zM350 313q0 -104 40 -162.5t110 -58.5q59 0 109 50.5t87 135t57.5 194.5t20.5 228q0 113 -35.5 172.5t-101.5 59.5q-82 0 -136.5 -61.5t-88 -154.5t-48 -201.5t-14.5 -201.5zM758 1350q0 66 41 104.5t106 38.5q68 0 110 -39t42 -104 q0 -61 -42 -100.5t-110 -39.5q-66 0 -106.5 39.5t-40.5 100.5z" />
<glyph unicode="&#xf7;" d="M113 627v164h921v-164h-921zM399 317q0 74 47.5 119t124.5 45q78 0 127.5 -45t49.5 -119t-49.5 -117.5t-127.5 -43.5t-125 43.5t-47 117.5zM399 1098q0 74 47.5 119t124.5 45q78 0 127.5 -45.5t49.5 -118.5q0 -74 -49.5 -118t-127.5 -44t-125 44t-47 118z" />
<glyph unicode="&#xf8;" horiz-adv-x="1124" d="M-27 -33l154 168q-68 102 -68 258q0 111 37 226.5t113 211t191.5 157t271.5 61.5q141 0 237 -66l135 150l99 -84l-142 -156q63 -98 64 -244q0 -135 -41 -257t-119 -215t-189.5 -147.5t-254.5 -54.5q-147 0 -244 70l-149 -164zM356 379l400 440q-31 113 -119 113 q-72 0 -121 -45t-81 -115t-48 -153.5t-22 -161.5q-4 -20 -5.5 -39t-3.5 -39zM369 207q31 -115 131 -115q51 0 95 39t77 103.5t54.5 149.5t29.5 177q4 20 6 41t4 43z" />
<glyph unicode="&#xf9;" horiz-adv-x="1198" d="M86 168q0 45 13.5 129t33 183.5t43 205t41.5 193.5l-121 26v70q33 12 82 24.5t102.5 22.5t108.5 17.5t100 9.5l46 -25q-33 -154 -67 -292t-62 -292q-10 -49 -21.5 -108.5t-11.5 -118.5q0 -37 19.5 -55.5t47.5 -18.5q51 0 101.5 40t92.5 96.5t73.5 116t46.5 97.5l106 535 h277l-162 -883h143v-69q-20 -16 -54 -32.5t-74 -29t-84 -20.5t-87 -8q-74 0 -101.5 29.5t-27.5 62.5q0 37 8.5 102.5t32.5 151.5h-8q-27 -49 -68 -110.5t-96 -116t-127 -90.5t-158 -36q-84 0 -136 50.5t-52 142.5zM383 1458v60q12 12 53 23t87 17.5t87 7.5t56 -3l149 -357 l-92 -45z" />
<glyph unicode="&#xfa;" horiz-adv-x="1198" d="M86 168q0 45 13.5 129t33 183.5t43 205t41.5 193.5l-121 26v70q33 12 82 24.5t102.5 22.5t108.5 17.5t100 9.5l46 -25q-33 -154 -67 -292t-62 -292q-10 -49 -21.5 -108.5t-11.5 -118.5q0 -37 19.5 -55.5t47.5 -18.5q51 0 101.5 40t92.5 96.5t73.5 116t46.5 97.5l106 535 h277l-162 -883h143v-69q-20 -16 -54 -32.5t-74 -29t-84 -20.5t-87 -8q-74 0 -101.5 29.5t-27.5 62.5q0 37 8.5 102.5t32.5 151.5h-8q-27 -49 -68 -110.5t-96 -116t-127 -90.5t-158 -36q-84 0 -136 50.5t-52 142.5zM587 1196l242 367q16 4 54 3t79 -7.5t75 -17.5t44 -23v-50 l-412 -317z" />
<glyph unicode="&#xfb;" horiz-adv-x="1198" d="M86 168q0 45 13.5 129t33 183.5t43 205t41.5 193.5l-121 26v70q33 12 82 24.5t102.5 22.5t108.5 17.5t100 9.5l46 -25q-33 -154 -67 -292t-62 -292q-10 -49 -21.5 -108.5t-11.5 -118.5q0 -37 19.5 -55.5t47.5 -18.5q51 0 101.5 40t92.5 96.5t73.5 116t46.5 97.5l106 535 h277l-162 -883h143v-69q-20 -16 -54 -32.5t-74 -29t-84 -20.5t-87 -8q-74 0 -101.5 29.5t-27.5 62.5q0 37 8.5 102.5t32.5 151.5h-8q-27 -49 -68 -110.5t-96 -116t-127 -90.5t-158 -36q-84 0 -136 50.5t-52 142.5zM437 1233l327 381q6 6 21.5 9t32.5 3q35 0 53 -12l131 -379 l-84 -53l-154 200l-241 -200z" />
<glyph unicode="&#xfc;" horiz-adv-x="1198" d="M86 168q0 45 13.5 129t33 183.5t43 205t41.5 193.5l-121 26v70q33 12 82 24.5t102.5 22.5t108.5 17.5t100 9.5l46 -25q-33 -154 -67 -292t-62 -292q-10 -49 -21.5 -108.5t-11.5 -118.5q0 -37 19.5 -55.5t47.5 -18.5q51 0 101.5 40t92.5 96.5t73.5 116t46.5 97.5l106 535 h277l-162 -883h143v-69q-20 -16 -54 -32.5t-74 -29t-84 -20.5t-87 -8q-74 0 -101.5 29.5t-27.5 62.5q0 37 8.5 102.5t32.5 151.5h-8q-27 -49 -68 -110.5t-96 -116t-127 -90.5t-158 -36q-84 0 -136 50.5t-52 142.5zM348 1350q0 66 41 104.5t109 38.5q66 0 107.5 -39 t41.5 -104q0 -61 -42 -100.5t-107 -39.5q-68 0 -109 39.5t-41 100.5zM797 1350q0 66 41 104.5t106 38.5q68 0 110 -39t42 -104q0 -61 -42 -100.5t-110 -39.5q-66 0 -106.5 39.5t-40.5 100.5z" />
<glyph unicode="&#xfd;" horiz-adv-x="997" d="M-27 -387q-6 29 4.5 67.5t30 75.5t46 68t55.5 41l153 -109q14 10 37 29.5t45.5 49.5t45 71t40.5 94l-283 879l-131 16v70q10 8 41 21t73 27.5t89 25t92 10.5q55 0 86 -27t41 -74l158 -620l10 -123h4l43 121q41 98 80 211.5t62 212.5q0 23 -7.5 62.5t-15.5 81.5t-16 78 t-13 48q29 12 72 18t86 6t80 -6t59 -18q-53 -244 -162.5 -506t-252.5 -514q-119 -211 -237 -319.5t-271 -108.5q-43 0 -79 11t-65 30zM528 1196l242 367q16 4 54 3t79 -7.5t75 -17.5t44 -23v-50l-412 -317z" />
<glyph unicode="&#xfe;" horiz-adv-x="1171" d="M-35 -383l371 1772l-119 28v70q33 14 84 27.5t106.5 23.5t108.5 16.5t94 6.5l41 -25l-168 -795h9q33 63 74.5 120t90 98.5t104.5 65.5t120 24q104 0 172.5 -82t68.5 -230q0 -166 -47 -306t-128 -241.5t-192.5 -158t-240.5 -56.5q-59 0 -97 9.5t-79 31.5l-62 -288 q35 -6 73 -23.5t65 -36.5v-78h-422zM365 127q27 -18 52 -26.5t75 -8.5q70 0 131 55.5t107 143.5t71.5 198.5t25.5 219.5q0 86 -26.5 131t-77.5 45q-43 0 -83 -32t-75 -79t-63.5 -102.5t-46.5 -100.5z" />
<glyph unicode="&#xff;" horiz-adv-x="997" d="M-27 -387q-6 29 4.5 67.5t30 75.5t46 68t55.5 41l153 -109q14 10 37 29.5t45.5 49.5t45 71t40.5 94l-283 879l-131 16v70q10 8 41 21t73 27.5t89 25t92 10.5q55 0 86 -27t41 -74l158 -620l10 -123h4l43 121q41 98 80 211.5t62 212.5q0 23 -7.5 62.5t-15.5 81.5t-16 78 t-13 48q29 12 72 18t86 6t80 -6t59 -18q-53 -244 -162.5 -506t-252.5 -514q-119 -211 -237 -319.5t-271 -108.5q-43 0 -79 11t-65 30zM262 1350q0 66 41 104.5t109 38.5q66 0 107.5 -39t41.5 -104q0 -61 -42 -100.5t-107 -39.5q-68 0 -109 39.5t-41 100.5zM711 1350 q0 66 41 104.5t106 38.5q68 0 110 -39t42 -104q0 -61 -42 -100.5t-110 -39.5q-66 0 -106.5 39.5t-40.5 100.5z" />
<glyph unicode="&#x131;" horiz-adv-x="622" d="M86 76q0 41 6 80t17 86l139 635l-127 28v70q31 12 82 25.5t108.5 23.5t113.5 17.5t99 7.5l37 -25l-184 -883h143v-69q-27 -18 -62.5 -35t-75.5 -29t-81 -19t-78 -7q-78 0 -107.5 29.5t-29.5 64.5z" />
<glyph unicode="&#x152;" horiz-adv-x="2015" d="M121 528q0 193 56 363t164 296t264.5 198.5t359.5 72.5q20 0 52 -2t65.5 -5t65.5 -8t56 -9h910q-23 -92 -53.5 -190.5t-65.5 -184.5h-86l-43 241h-383l-107 -501h252l123 157h64q-10 -100 -36 -223t-59 -229h-65l-56 162h-251l-113 -533h399l164 260h86q0 -39 -3 -88 t-8 -101t-13.5 -105.5t-18.5 -98.5h-938q-49 -10 -97 -17.5t-97 -7.5q-152 0 -262.5 39t-182 112t-107.5 174t-36 228zM469 483q0 -84 12.5 -153.5t43 -118.5t80.5 -75.5t126 -26.5q49 0 102.5 13t100.5 36l233 1106q-41 27 -96 44t-119 17q-115 0 -204 -72.5t-151 -191.5 t-95 -270.5t-33 -307.5z" />
<glyph unicode="&#x153;" horiz-adv-x="1667" d="M59 393q0 111 37 226.5t113 211t191.5 157t271.5 61.5q100 0 183 -36t126 -106q74 68 170 105t197 37q123 0 202.5 -56.5t79.5 -154.5q0 -139 -137 -229.5t-449 -112.5q-4 -29 -7 -58.5t-3 -56.5q0 -117 59.5 -179.5t151.5 -62.5q39 0 78 12.5t74 33t64.5 44t51.5 45.5 l50 -51q-23 -41 -66 -85t-100.5 -79.5t-127 -59.5t-145.5 -24q-117 0 -190.5 39.5t-114.5 94.5q-72 -72 -168 -103t-190 -31q-86 0 -160 26t-128 78t-84 130t-30 184zM350 313q0 -104 40 -162.5t110 -58.5q59 0 109 50.5t86 135t56.5 194.5t20.5 228q0 113 -34.5 172.5 t-100.5 59.5q-82 0 -136.5 -61.5t-88 -154.5t-48 -201.5t-14.5 -201.5zM1059 600q154 4 247 67.5t93 166.5q0 41 -23 69.5t-76 28.5q-68 0 -132 -76t-109 -256z" />
<glyph unicode="&#x178;" horiz-adv-x="1423" d="M197 1356l16 78h666l-17 -78q-29 -16 -69.5 -32.5t-94.5 -27.5l179 -551l391 551q-43 10 -82 25.5t-68 34.5l17 78h510l-17 -78q-35 -20 -76 -35.5t-82 -24.5l-546 -696l-99 -463q39 -6 76 -22.5t68 -36.5l-17 -78h-630l16 78q39 18 86 34.5t94 24.5l98 461l-266 698 q-45 8 -85 23.5t-68 36.5zM592 1624q0 66 47.5 98.5t118.5 32.5q72 0 119 -32.5t47 -98.5q0 -57 -47 -89t-119 -32t-119 32t-47 89zM1094 1624q0 66 48 98.5t120 32.5t119 -32.5t47 -98.5q0 -57 -47 -89t-119 -32t-120 32t-48 89z" />
<glyph unicode="&#x192;" d="M41 -369q25 12 61.5 41t73.5 78t68.5 123t48.5 176l117 846h-144v80q41 23 87 40t87 27l15 72q27 127 72.5 210t107 131t138.5 66.5t167 18.5q66 0 133.5 -11t110.5 -34q4 -29 -3 -62.5t-22.5 -64.5t-37 -55.5t-46.5 -36.5l-145 156q-29 -6 -56.5 -18.5t-52 -44.5 t-47 -89t-43.5 -154l-20 -102h227q4 -23 -1 -62.5t-26 -66.5h-227l-115 -807q-23 -145 -86 -241.5t-140 -155t-153.5 -87t-126.5 -38.5z" />
<glyph unicode="&#x2c6;" horiz-adv-x="921" d="M367 1233l327 381q6 6 21.5 9t32.5 3q35 0 53 -12l131 -379l-84 -53l-154 200l-241 -200z" />
<glyph unicode="&#x2c7;" horiz-adv-x="798" d="M375 1569q2 6 14 15t27.5 17.5t31 14.5t25.5 6l164 -190l278 190q20 0 51 -19.5t35 -31.5l-354 -371q-8 -6 -23.5 -8t-31.5 -2q-31 0 -51 10z" />
<glyph unicode="&#x2d8;" horiz-adv-x="1044" d="M444 1487l76 45q33 -53 83 -88t116 -37q37 0 77 6t77.5 20.5t72.5 37t62 53.5l67 -41q-23 -59 -60.5 -111.5t-85.5 -91.5t-103.5 -61.5t-112.5 -22.5q-121 0 -192.5 81t-76.5 210z" />
<glyph unicode="&#x2d9;" horiz-adv-x="657" d="M391 1366q0 70 47 108.5t119 38.5q78 0 124 -38.5t46 -108.5q0 -66 -46 -104.5t-124 -38.5q-72 0 -119 38.5t-47 104.5z" />
<glyph unicode="&#x2da;" horiz-adv-x="966" d="M446 1360q0 98 74 167.5t207 69.5q90 0 140.5 -47t50.5 -118q0 -47 -18.5 -90.5t-53.5 -76t-85 -51t-114 -18.5q-96 0 -148.5 44t-52.5 120zM600 1364q0 -31 17.5 -48.5t44.5 -17.5q37 0 69.5 34t32.5 93q0 70 -57 70q-51 0 -79 -39t-28 -92z" />
<glyph unicode="&#x2db;" horiz-adv-x="886" d="M115 -274q0 61 31.5 110t89 89t135.5 73t170 59h80q-39 -18 -83 -49t-82 -69.5t-62.5 -85t-24.5 -97.5q0 -47 25.5 -74.5t74.5 -27.5q35 0 90 18v-84q-16 -12 -38.5 -21t-49.5 -15.5t-51.5 -10.5t-42.5 -4q-141 0 -201.5 55.5t-60.5 133.5z" />
<glyph unicode="&#x2dc;" horiz-adv-x="894" d="M229 1348q76 78 144.5 108.5t115.5 30.5q37 0 69 -10.5t60.5 -22.5t58.5 -22.5t60 -10.5q27 0 53.5 5.5t59.5 25.5l45 -86q-61 -70 -127 -101.5t-113 -31.5q-37 0 -69.5 11t-63 23.5t-60.5 24t-61 11.5q-27 0 -54.5 -9.5t-59.5 -31.5z" />
<glyph unicode="&#x2dd;" horiz-adv-x="1320" d="M510 1239l139 334q12 4 47 2t73 -8t69.5 -15.5t38.5 -21.5v-49l-283 -283zM778 1243l273 330q14 4 46.5 2t69.5 -10.5t69 -20.5t44 -28v-46l-426 -272z" />
<glyph unicode="&#x3a9;" horiz-adv-x="1632" d="M61 0q0 37 3.5 98.5t9.5 129t13 133t15 110.5h70l90 -242h344q-90 33 -176 86.5t-153.5 127t-108.5 170t-41 216.5q0 147 51 264t144.5 198t223.5 124t285 43q160 0 286 -42t213 -120.5t134 -193.5t47 -262q0 -127 -44 -228.5t-112.5 -176.5t-151.5 -126t-159 -80h324 l92 242h70q8 -47 16 -113.5t13.5 -134t8.5 -128t3 -95.5h-651v244q43 20 88 71.5t81.5 125t60.5 166.5t24 200q0 240 -87.5 379t-255.5 139q-100 0 -169.5 -36t-113.5 -100.5t-63.5 -155.5t-19.5 -204q0 -111 26.5 -207t66.5 -172.5t87 -130t88 -75.5v-244h-672z" />
<glyph unicode="&#x3c0;" horiz-adv-x="1388" d="M57 18q59 63 121 163t115 213.5t94 230t62 215.5h-35q-57 0 -108.5 -30t-110.5 -91l-41 16q29 74 59.5 130.5t73.5 95t101 58t140 17.5q23 0 88.5 -2t153.5 -4t185.5 -4t181.5 -2q66 0 108.5 1t71.5 7t50.5 16.5t45.5 28.5l33 -18q-25 -102 -84 -160.5t-148 -58.5h-24 l-148 -693l132 -16l-15 -72q-33 -12 -79 -25.5t-98 -23.5t-106.5 -18t-105.5 -10h-70l183 858h-299l-54 -252q-41 -195 -95 -344.5t-111 -243.5q-16 -8 -45 -10t-62 -2q-29 0 -55.5 1t-48 3t-34.5 4t-13 4z" />
<glyph unicode="&#x401;" horiz-adv-x="1232" d="M-49 0l14 78q41 18 87 34.5t95 24.5l246 1159q-41 8 -82 23.5t-73 36.5l16 78h1077q-20 -92 -51 -190.5t-68 -184.5h-86l-43 241h-383l-106 -501h252l123 157h63q-10 -100 -35.5 -223t-58.5 -229h-66l-55 162h-252l-110 -533h397l164 260h86q0 -37 -3 -86t-8.5 -102 t-13.5 -106.5t-18 -98.5h-1108zM432 1624q0 66 47.5 98.5t118.5 32.5q72 0 119 -32.5t47 -98.5q0 -57 -47 -89t-119 -32t-119 32t-47 89zM934 1624q0 66 48 98.5t120 32.5t119 -32.5t47 -98.5q0 -57 -47 -89t-119 -32t-120 32t-48 89z" />
<glyph unicode="&#x402;" horiz-adv-x="1640" d="M174 950q2 41 8 104.5t13.5 131t16.5 134t19 114.5h1305q-10 -51 -25.5 -107.5t-33 -112t-37 -107.5t-37.5 -95h-86l-70 288h-237l-109 -507q78 41 171 65.5t208 24.5q166 0 248 -82.5t82 -229.5q0 -154 -53.5 -265t-141.5 -182t-200.5 -102.5t-231.5 -27.5l6 92 q152 35 233 155.5t81 307.5q0 43 -7.5 79t-27 60.5t-53 37.5t-87.5 13q-68 0 -131 -19.5t-120 -49.5l-113 -533q31 -10 58.5 -26.5t49.5 -32.5l-14 -78h-629l15 78q45 18 100 34.5t113 24.5l245 1163h-237l-205 -350h-86z" />
<glyph unicode="&#x403;" horiz-adv-x="1099" d="M-49 0l14 78q94 45 182 59l246 1159q-41 8 -81 22.5t-74 37.5l16 78h1049q-8 -49 -23.5 -113t-34 -131.5t-40 -132t-44.5 -115.5h-84l-51 358h-326l-245 -1163q47 -8 94 -24.5t88 -34.5l-14 -78h-672zM696 1575l291 264q33 2 75 -4t81.5 -17.5t71.5 -25.5t44 -29v-41 l-506 -196z" />
<glyph unicode="&#x404;" horiz-adv-x="1345" d="M121 551q0 203 59.5 369.5t173 286.5t278.5 185.5t374 65.5q135 0 242.5 -19.5t174.5 -52.5q-6 -33 -20 -84t-32.5 -107t-39 -110.5t-39.5 -91.5h-86l-47 310q-18 10 -61 16t-86 6q-96 0 -180 -37t-152 -107.5t-115 -171t-71 -229.5l544 33q8 -47 -5 -109.5t-29 -103.5 q-117 16 -259.5 26.5t-271.5 14.5q-2 -29 -3 -58.5t-1 -60.5q0 -115 33 -193.5t85 -127.5t114.5 -70.5t121.5 -21.5t102.5 11t63.5 23l160 287h86q0 -33 -2 -79t-8 -98t-14.5 -103.5t-18.5 -92.5q-43 -23 -95.5 -38t-105.5 -25t-102 -14.5t-86 -4.5q-188 0 -317.5 51.5 t-211 133.5t-117.5 184t-36 207z" />
<glyph unicode="&#x405;" horiz-adv-x="1138" d="M31 72q12 49 30.5 103t39 108.5t42 102.5t39.5 85h84l21 -301q20 -20 73.5 -40.5t112.5 -20.5q63 0 118.5 11t95.5 35.5t62.5 64.5t22.5 97q0 74 -39 126.5t-96 95.5t-126 85t-126 95t-96 124.5t-39 176.5q0 109 43 190.5t118.5 137t180 83t229.5 27.5t228.5 -17.5 t181.5 -54.5q-10 -41 -26.5 -94t-36 -105t-39 -98.5t-33.5 -76.5h-84l-35 280q-29 16 -77 24.5t-99 8.5q-53 0 -99.5 -11t-80 -35t-54 -60.5t-20.5 -88.5q0 -72 40 -125t98 -97t128 -88t128 -98t98 -126t40 -172q0 -217 -160.5 -333t-459.5 -116q-66 0 -132.5 8.5t-126 22.5 t-104.5 30.5t-65 35.5z" />
<glyph unicode="&#x406;" horiz-adv-x="755" d="M-29 0l15 78q96 45 180 59l246 1159q-41 6 -81 21.5t-73 38.5l16 78h639l-16 -78q-41 -23 -89 -38t-89 -22l-246 -1159q39 -8 80 -22.5t72 -36.5l-15 -78h-639z" />
<glyph unicode="&#x407;" horiz-adv-x="755" d="M-29 0l15 78q96 45 180 59l246 1159q-41 6 -81 22.5t-73 37.5l16 78h639l-16 -78q-41 -23 -89 -38t-89 -22l-246 -1159q39 -8 80 -22.5t72 -36.5l-15 -78h-639zM274 1624q0 66 40 98.5t110 32.5q68 0 109.5 -32.5t41.5 -98.5q0 -57 -41.5 -89t-109.5 -32q-70 0 -110 32 t-40 89zM694 1624q0 66 42 98.5t110 32.5q70 0 109.5 -32.5t39.5 -98.5q0 -57 -40 -89t-109 -32q-68 0 -110 32t-42 89z" />
<glyph unicode="&#x408;" horiz-adv-x="739" d="M-88 -274q39 27 75 65.5t69.5 97t64.5 142.5t57 205l223 1060q-43 8 -84 23.5t-69 36.5l16 78h633l-16 -78q-35 -23 -83 -38t-89 -22l-222 -1048q-35 -168 -107.5 -275.5t-155.5 -171t-161.5 -92t-125.5 -37.5z" />
<glyph unicode="&#x409;" horiz-adv-x="1972" d="M-57 193v33.5t2 33.5l71 78l234 -59q39 57 82 138t88 199.5t91 280.5t93 379q-61 10 -113.5 32.5t-87.5 47.5l17 78h1194l-17 -78q-43 -20 -92 -35.5t-100 -24.5l-94 -438q39 6 91 10t93 4q211 0 329 -87t118 -244q0 -156 -63.5 -260.5t-163 -168t-221.5 -91t-239 -27.5 q-10 0 -41.5 1t-72.5 2t-84 2t-74 1h-315l14 78q41 20 84 35.5t86 23.5l246 1163h-334q-74 -311 -139.5 -519t-126 -343t-117.5 -214t-113 -136q-51 -53 -116.5 -83t-120.5 -30q-18 8 -33.5 31t-27 52.5t-18.5 64.5t-9 70zM1159 135q6 -2 20.5 -4t30 -3t30.5 -1h24 q70 0 132 28.5t108 82t73 132.5t27 177q0 92 -45 142t-166 50q-66 0 -109 -12z" />
<glyph unicode="&#x40a;" horiz-adv-x="2115" d="M-49 0l16 78q41 20 89 35.5t91 23.5l246 1159q-47 8 -88 24.5t-67 35.5l16 78h620l-16 -78q-35 -20 -76 -36.5t-82 -23.5l-98 -469h543l98 469q-41 8 -68.5 21.5t-64.5 38.5l16 78h633l-16 -78q-41 -20 -90 -35.5t-103 -24.5l-98 -471q39 6 90 10.5t92 4.5q211 0 331 -84 t120 -240q0 -152 -62.5 -253t-162 -160.5t-221 -84t-238.5 -24.5q-10 0 -42 1t-73 2t-84 2t-74 1h-305l17 78q41 23 76.5 37t80.5 22l119 557h-543l-118 -557q72 -14 133 -59l-17 -78h-620zM1305 135q14 -4 51 -6t55 -2q70 0 130.5 24.5t106.5 73.5t72.5 123t26.5 172 q0 82 -46 134.5t-167 52.5q-68 0 -111 -13z" />
<glyph unicode="&#x40b;" horiz-adv-x="1716" d="M176 950q0 41 5 104.5t13.5 131t18.5 134t20 114.5h1305q-10 -49 -25.5 -104.5t-34 -111t-37 -107.5t-36.5 -95h-86l-70 284h-237l-109 -512q63 35 160.5 64t212.5 29q66 0 122 -16.5t97 -50.5t65.5 -86t26.5 -126q4 -70 -14 -151l-66 -314q35 -6 71 -22.5t62 -36.5 l-14 -78h-455l89 424q12 61 17 117.5t-7.5 99.5t-47 69.5t-102.5 26.5t-127 -19.5t-116 -51.5l-113 -529q31 -10 61.5 -26.5t53.5 -32.5l-17 -78h-633l17 78q45 16 100 33.5t111 25.5l245 1163h-235l-207 -350h-84z" />
<glyph unicode="&#x40c;" horiz-adv-x="1443" d="M-49 0l14 78q45 23 91 37t91 22l246 1159q-47 6 -88 22.5t-67 37.5l16 78h620l-16 -78q-29 -16 -71 -32.5t-87 -27.5l-110 -520l121 29l432 491q-41 10 -77 25.5t-60 34.5l16 78h557l-16 -78q-37 -23 -85 -38t-89 -22l-496 -497q33 -68 80 -150t99 -170t108.5 -178 t111.5 -172l86 -59l-14 -70h-344l-72 57q-37 61 -75.5 136t-75.5 156t-71 163t-60 160h-99l-112 -535q41 -10 74.5 -26.5t56.5 -32.5l-15 -78h-620zM782 1575l291 264q33 2 75 -4t81.5 -17.5t71.5 -25.5t44 -29v-41l-506 -196z" />
<glyph unicode="&#x40e;" horiz-adv-x="1390" d="M195 1356l16 78h637l-17 -78q-33 -18 -76.5 -33.5t-90.5 -26.5l190 -555l14 -131h4l70 135l303 551q-47 10 -82 25.5t-63 34.5l16 78h496l-17 -78q-27 -16 -66.5 -32.5t-90.5 -27.5l-578 -915q-141 -211 -271 -314.5t-255 -76.5q-23 18 -38 54t-23.5 77t-9.5 81t3 64 l72 62l266 -76q23 18 43.5 45t40.5 59l-364 940q-37 10 -71 24.5t-58 35.5zM653 1747q16 16 45 29.5t62.5 23.5t68.5 16.5t64 6.5l69 -27v-123q20 -10 40 -17t52 -7q43 0 88.5 9t85 29.5t71.5 49t48 69.5q25 -2 52.5 -14t39.5 -29q-16 -41 -50 -84t-89 -78.5t-132 -59 t-179 -23.5q-86 0 -150.5 21.5t-105.5 55t-60.5 73.5t-19.5 79z" />
<glyph unicode="&#x40f;" horiz-adv-x="1546" d="M-49 0l16 78q41 25 88 38t92 21l246 1159q-39 4 -78 18.5t-77 41.5l16 78h614l-16 -78q-23 -16 -60.5 -32.5t-91.5 -27.5l-245 -1163h520l246 1163q-39 10 -69 24.5t-58 35.5l16 78h614l-16 -78q-35 -18 -79 -34.5t-101 -25.5l-246 -1159q41 -8 81 -22.5t75 -36.5 l-17 -78h-583q-29 -86 -81 -198.5t-112 -211.5h-90q-12 102 -19.5 207t1.5 203h-586z" />
<glyph unicode="&#x410;" horiz-adv-x="1482" d="M-90 0l14 78q37 20 78 35.5t82 23.5l811 1321h149l232 -1321q39 -8 77 -24.5t64 -34.5l-16 -78h-631l14 78q43 20 91.5 35.5t91.5 23.5l-49 326h-453l-195 -326q43 -6 86 -21.5t78 -37.5l-14 -78h-510zM535 596h366l-57 391v176h-4l-78 -180z" />
<glyph unicode="&#x411;" horiz-adv-x="1302" d="M-49 0l14 78q86 43 182 59l246 1159q-94 16 -155 60l16 78h1100q-10 -49 -25.5 -105.5t-34 -114t-38 -110.5t-37.5 -96h-84l-66 292h-369l-98 -466q49 8 106.5 11t98.5 3q207 0 324.5 -77t117.5 -245q0 -127 -51 -226t-142 -166.5t-216 -103.5t-275 -36q-10 0 -51 1 t-91 2t-101.5 2t-81.5 1h-289zM455 135q8 -2 23.5 -4t33.5 -3t34.5 -1h26.5q80 0 143.5 31.5t106.5 85t65.5 125t22.5 149.5q0 94 -43 145.5t-166 51.5q-33 0 -67.5 -3t-61.5 -10z" />
<glyph unicode="&#x412;" horiz-adv-x="1318" d="M-49 -2l14 78q45 23 92 39t90 20l246 1159q-41 8 -82 23.5t-73 36.5l16 78h326q78 0 150.5 6t162.5 6q98 0 180 -15.5t140.5 -47t91 -84t32.5 -126.5q0 -86 -29.5 -153.5t-81.5 -118.5t-124 -84t-156 -49v-8q55 -4 110.5 -20.5t99.5 -49.5t71.5 -83t27.5 -120 q0 -111 -44 -201.5t-130 -157.5t-215 -103.5t-299 -36.5q-43 0 -93 2t-101 4t-98.5 4t-79.5 2h-244zM442 133q27 -6 58 -10t94 -4q76 0 139.5 26.5t108.5 74.5t70.5 112.5t25.5 140.5q0 113 -72.5 149.5t-203.5 36.5h-109zM582 793h65q35 0 71 3t66 7q123 47 184.5 135 t61.5 205q0 80 -47 124t-154 44q-43 0 -76.5 -2t-62.5 -6z" />
<glyph unicode="&#x413;" horiz-adv-x="1099" d="M-49 0l14 78q94 45 182 59l246 1159q-41 8 -81 22.5t-74 37.5l16 78h1049q-8 -49 -23.5 -113t-34 -131.5t-40 -132t-44.5 -115.5h-84l-51 358h-326l-245 -1163q47 -8 94 -24.5t88 -34.5l-14 -78h-672z" />
<glyph unicode="&#x414;" horiz-adv-x="1480" d="M-98 -334q-2 51 2 114.5t10 128t14.5 124t16.5 100.5h178q78 86 152.5 213t140 277.5t119 317.5t88.5 335q-51 10 -107.5 30.5t-93.5 49.5l16 78h1176l-17 -78q-33 -20 -80 -34.5t-100 -25.5l-246 -1163h242q-10 -47 -26.5 -107.5t-37 -124t-44 -125t-45.5 -110.5h-80 l-31 334h-979l-190 -334h-78zM295 133h569l246 1167h-326q-61 -238 -124.5 -425t-126 -330.5t-123 -244.5t-115.5 -167z" />
<glyph unicode="&#x415;" horiz-adv-x="1232" d="M-49 0l14 78q41 18 87 34.5t95 24.5l246 1159q-41 8 -82 23.5t-73 36.5l16 78h1077q-20 -92 -51 -190.5t-68 -184.5h-86l-43 241h-383l-106 -501h252l123 157h63q-10 -100 -35.5 -223t-58.5 -229h-66l-55 162h-252l-110 -533h397l164 260h86q0 -37 -3 -86t-8.5 -102 t-13.5 -106.5t-18 -98.5h-1108z" />
<glyph unicode="&#x416;" horiz-adv-x="2091" d="M-76 0l15 70l94 49q92 82 177 171t162 177t146.5 169t128.5 146l-244 514q-39 10 -70.5 26.5t-53.5 33.5l16 78h526l-16 -78q-29 -18 -72 -33.5t-86 -26.5l189 -505h143l108 505q-39 12 -68.5 27.5t-49.5 32.5l16 78h531l-17 -78q-47 -33 -131 -60l-113 -524l136 33 l397 491q-37 10 -69.5 25.5t-61.5 34.5l16 78h551l-16 -78q-33 -18 -75 -33.5t-85 -26.5l-487 -516q37 -68 78.5 -148.5t89 -167.5t99.5 -175t109 -170l76 -49l-14 -70h-332l-74 70q-90 141 -141 292.5t-102 311.5h-117l-111 -537q63 -20 117 -59l-16 -78h-551l14 78 q35 18 73 33.5t83 25.5l116 555l-135 -33q-98 -150 -200.5 -302t-231.5 -287l-102 -70h-365z" />
<glyph unicode="&#x417;" horiz-adv-x="1198" d="M12 76q8 33 23.5 77t34 91t40 94t44.5 86h84l22 -283q23 -14 71 -23t91 -9q174 0 272.5 100t98.5 268q0 186 -222 187l-161 -27q-4 37 5 85t29 87l64 -2q35 -2 82 0t82 6q100 43 163.5 132t63.5 194q0 92 -45 139t-154 47q-94 -4 -151 -39l-156 -260h-86q-2 72 1 160 t24 184q49 27 104.5 43.5t111.5 26.5t109.5 14t96.5 4q98 0 183 -16.5t147.5 -51t97.5 -92t35 -139.5q0 -53 -17.5 -110.5t-58.5 -111.5t-109.5 -99t-171.5 -72v-8q45 -4 91 -22.5t84 -52.5t61.5 -84t23.5 -120q0 -117 -48 -210t-138 -158.5t-217 -100.5t-285 -35 q-137 0 -248.5 30t-171.5 71z" />
<glyph unicode="&#x418;" horiz-adv-x="1589" d="M-49 0l14 78q45 20 91 36.5t91 22.5l246 1159q-41 8 -82 22.5t-73 37.5l16 78h616l-16 -78q-35 -18 -76 -33.5t-88 -26.5l-166 -778l-55 -160l129 170l676 719l10 49q-45 10 -83 24.5t-66 35.5l16 78h616l-16 -78q-39 -23 -86 -37t-94 -23l-246 -1159q45 -8 84 -23.5 t72 -35.5l-17 -78h-616l14 78q31 14 75 31.5t91 27.5l166 776l57 162l-121 -164l-688 -729l-8 -45q45 -10 83 -26.5t67 -32.5l-17 -78h-616z" />
<glyph unicode="&#x419;" horiz-adv-x="1589" d="M-49 0l14 78q45 20 91 36.5t91 22.5l246 1159q-41 8 -82 22.5t-73 37.5l16 78h616l-16 -78q-35 -18 -76 -33.5t-88 -26.5l-166 -778l-55 -160l129 170l676 719l10 49q-45 10 -83 24.5t-66 35.5l16 78h616l-16 -78q-39 -23 -86 -37t-94 -23l-246 -1159q45 -8 84 -23.5 t72 -35.5l-17 -78h-616l14 78q31 14 75 31.5t91 27.5l166 776l57 162l-121 -164l-688 -729l-8 -45q45 -10 83 -26.5t67 -32.5l-17 -78h-616zM668 1747q16 16 45 29.5t62.5 23.5t68.5 16.5t64 6.5l69 -27v-123q20 -10 40 -17t52 -7q43 0 88.5 9t85 29.5t71.5 49t48 69.5 q25 -2 52.5 -14t39.5 -29q-16 -41 -50 -84t-89 -78.5t-132 -59t-179 -23.5q-86 0 -150.5 21.5t-105.5 55t-60.5 73.5t-19.5 79z" />
<glyph unicode="&#x41a;" horiz-adv-x="1443" d="M-49 0l14 78q45 23 91 37t91 22l246 1159q-47 6 -88 22.5t-67 37.5l16 78h620l-16 -78q-29 -16 -71 -32.5t-87 -27.5l-110 -520l121 29l432 491q-41 10 -77 25.5t-60 34.5l16 78h557l-16 -78q-37 -23 -85 -38t-89 -22l-496 -497q33 -68 80 -150t99 -170t108.5 -178 t111.5 -172l86 -59l-14 -70h-344l-72 57q-37 61 -75.5 136t-75.5 156t-71 163t-60 160h-99l-112 -535q41 -10 74.5 -26.5t56.5 -32.5l-15 -78h-620z" />
<glyph unicode="&#x41b;" horiz-adv-x="1425" d="M-53 176q-4 45 0 84l71 78l234 -59q39 57 82 138t88 199.5t91 280.5t93 379q-61 10 -113.5 32.5t-86.5 47.5l16 78h1182l-17 -78q-35 -18 -82 -34.5t-98 -25.5l-246 -1159q43 -8 83 -24.5t71 -34.5l-15 -78h-630l14 78q41 18 84 33.5t86 25.5l246 1163h-334 q-74 -311 -139.5 -519t-126 -343t-117.5 -215t-113 -137q-51 -53 -116.5 -82t-120.5 -29q-25 10 -42.5 42t-28.5 73t-15 86z" />
<glyph unicode="&#x41c;" horiz-adv-x="1896" d="M-49 0l14 78q35 18 88 39.5t101 29.5l241 1149q-41 8 -83 22.5t-72 37.5l16 78h555l129 -834l16 -197h2l97 201l504 830h516l-17 -78q-37 -23 -81 -37t-87 -23l-245 -1161q41 -8 77.5 -24.5t63.5 -32.5l-17 -78h-612l17 78q45 20 88 34.5t90 24.5l180 856l61 240h-16 l-113 -219l-612 -1014h-92l-182 1006l-25 239h-18l-54 -260l-176 -840q37 -8 81 -26.5t79 -40.5l-16 -78h-498z" />
<glyph unicode="&#x41d;" horiz-adv-x="1568" d="M-49 0l14 78q41 20 89 35.5t93 23.5l246 1159q-47 8 -88 24.5t-67 35.5l16 78h620l-16 -78q-31 -23 -74 -37t-84 -23l-106 -495h543l106 495q-88 23 -133 60l16 78h621l-16 -78q-39 -23 -87.5 -38t-93.5 -22l-245 -1159q45 -8 85 -24.5t68 -34.5l-14 -78h-621l15 78 q35 18 75.5 34.5t83.5 24.5l111 531h-543l-110 -531q70 -14 131 -59l-15 -78h-620z" />
<glyph unicode="&#x41e;" horiz-adv-x="1538" d="M121 555q0 188 58.5 353t168 287t268 192.5t359.5 70.5q137 0 243.5 -40t180.5 -114.5t111.5 -181t37.5 -239.5q0 -168 -51 -331t-155.5 -291t-261 -207t-367.5 -79q-141 0 -252 44t-186.5 122t-114.5 184.5t-39 229.5zM469 516q0 -205 77 -306t208 -101 q117 0 200.5 75.5t139 193.5t81 264t25.5 288q0 182 -62.5 288.5t-205.5 106.5q-80 0 -144.5 -36t-117 -97.5t-90 -142t-62 -171t-37 -183.5t-12.5 -179z" />
<glyph unicode="&#x41f;" horiz-adv-x="1546" d="M-49 0l14 78q35 16 80 33.5t102 25.5l246 1159q-41 8 -81 22.5t-74 37.5l16 78h1470l-16 -78q-41 -25 -88 -38t-92 -22l-246 -1159q76 -8 154 -59l-15 -78h-614l14 78q25 16 62 32.5t92 26.5l246 1163h-521l-245 -1163q72 -20 125 -59l-15 -78h-614z" />
<glyph unicode="&#x420;" horiz-adv-x="1298" d="M-49 0l14 78q90 43 182 59l246 1159q-45 8 -84 23.5t-71 36.5l16 78h258q82 0 189.5 8t195.5 8q106 0 197.5 -18.5t156 -58.5t101.5 -105.5t37 -159.5q0 -121 -45.5 -224.5t-131.5 -179t-210.5 -119.5t-282.5 -44h-33.5t-51.5 1t-53.5 2t-39.5 3l-86 -410 q53 -8 103 -23.5t89 -35.5l-14 -78h-682zM569 682q18 -4 55.5 -6t59.5 -2q88 0 155.5 31.5t113.5 90t71 137.5t25 175q0 47 -11.5 86t-37 66.5t-69.5 42t-110 14.5q-41 0 -68.5 -4t-50.5 -8z" />
<glyph unicode="&#x421;" horiz-adv-x="1335" d="M121 551q0 203 59.5 369.5t173 286.5t278.5 185.5t374 65.5q135 0 242.5 -19.5t174.5 -52.5q-6 -33 -20 -84t-32.5 -107t-39 -110.5t-39.5 -91.5h-86l-47 310q-18 10 -61 16t-86 6q-119 0 -218.5 -57.5t-172 -162t-112.5 -252.5t-40 -331q0 -115 33 -193.5t85 -127.5 t114.5 -70.5t121.5 -21.5t102.5 11t63.5 23l160 287h86q0 -33 -2 -79t-8 -98t-14.5 -103.5t-18.5 -92.5q-43 -23 -95.5 -38t-105.5 -25t-102 -14.5t-86 -4.5q-188 0 -317.5 51.5t-211 133.5t-117.5 184t-36 207z" />
<glyph unicode="&#x422;" horiz-adv-x="1355" d="M186 950q0 41 5.5 104.5t12.5 131t17 134t23 114.5h1304q-10 -49 -27.5 -115t-38 -133.5t-42 -130t-39.5 -105.5h-86l-55 350h-238l-248 -1163q51 -10 100.5 -24.5t86.5 -34.5l-17 -78h-704l16 78q45 18 100.5 34.5t110.5 24.5l248 1163h-238l-207 -350h-84z" />
<glyph unicode="&#x423;" horiz-adv-x="1390" d="M195 1356l16 78h637l-17 -78q-33 -18 -76.5 -33.5t-90.5 -26.5l190 -555l14 -131h4l70 135l303 551q-47 10 -82 25.5t-63 34.5l16 78h496l-17 -78q-27 -16 -66.5 -32.5t-90.5 -27.5l-578 -915q-141 -211 -271 -314.5t-255 -76.5q-23 18 -38 54t-23.5 77t-9.5 81t3 64 l72 62l266 -76q23 18 43.5 45t40.5 59l-364 940q-37 10 -71 24.5t-58 35.5z" />
<glyph unicode="&#x424;" horiz-adv-x="1722" d="M104 600q0 125 40 237.5t119 198.5t198 136.5t276 50.5q27 0 76 -2t84 -4l16 79q-45 12 -79.5 27.5t-53.5 32.5l17 76h559l-15 -76q-23 -16 -60.5 -32.5t-88.5 -27.5l-18 -86q47 8 103 10.5t89 2.5q106 0 181 -32t122 -84t68.5 -117.5t21.5 -133.5q0 -131 -41 -244.5 t-120.5 -198.5t-196.5 -133.5t-268 -48.5h-31t-44.5 2.5t-47 4.5t-41.5 6l-23 -111q37 -10 69 -26.5t52 -32.5l-14 -76h-559l14 76q31 18 73 33.5t85 23.5l22 109q-47 -6 -94 -7.5t-82 -1.5q-86 0 -161 25t-129 73t-86 116.5t-32 154.5zM426 596q0 -66 17.5 -111t47 -73.5 t66.5 -42t76 -13.5q47 0 84 11l155 727q-25 4 -45 4h-45q-80 0 -145.5 -38t-112.5 -105.5t-72.5 -160t-25.5 -198.5zM991 360q18 -4 46 -5t44 -1q84 0 149.5 42t112 113t70 162t23.5 191q0 70 -16.5 115t-44 71.5t-61.5 37t-71 10.5q-25 0 -47 -2t-51 -9z" />
<glyph unicode="&#x425;" horiz-adv-x="1480" d="M-74 0l17 78q35 23 72.5 36t78.5 23l539 586l-258 573q-37 10 -68 24.5t-59 35.5l16 78h647l-16 -78q-29 -16 -68 -31.5t-92 -28.5l158 -409l338 409q-39 10 -77 25.5t-67 34.5l17 78h508l-17 -78q-33 -20 -70.5 -34.5t-80.5 -25.5l-481 -536l286 -623q45 -10 80 -24.5 t64 -34.5l-15 -78h-661l14 78q37 18 76 33.5t84 25.5l-191 449l-372 -451q41 -10 74.5 -22.5t64.5 -34.5l-16 -78h-525z" />
<glyph unicode="&#x426;" horiz-adv-x="1583" d="M-49 0l14 78q33 16 79 32.5t103 26.5l246 1159q-41 6 -81 21.5t-74 38.5l16 78h610l-16 -78q-29 -16 -64.5 -31.5t-83.5 -28.5l-245 -1163h510l247 1163q-35 8 -66.5 24.5t-58.5 35.5l17 78h612l-16 -78q-45 -25 -90 -38t-90 -22l-248 -1163h241q-12 -53 -29.5 -115.5 t-38 -125t-43 -122t-42.5 -104.5h-80l-31 334h-1298z" />
<glyph unicode="&#x427;" horiz-adv-x="1398" d="M207 1356l16 78h580l-17 -78q-25 -16 -60.5 -32.5t-76.5 -27.5l-63 -299q-16 -76 -20.5 -136t11 -102t53.5 -64.5t103 -22.5q68 0 132.5 19.5t123.5 51.5l117 553q-70 20 -115 60l17 78h569l-16 -78q-29 -18 -68 -34.5t-80 -25.5l-246 -1159q37 -8 69 -25.5t52 -33.5 l-14 -78h-631l14 78q53 23 104.5 39t98.5 20l103 484q-66 -35 -168.5 -64t-225.5 -29q-82 0 -148.5 25t-107.5 77t-54 134t11 197l72 335q-37 6 -74 22.5t-61 37.5z" />
<glyph unicode="&#x428;" horiz-adv-x="2054" d="M-49 0l14 78q37 18 80 34.5t82 24.5l246 1159q-37 8 -75 23.5t-60 36.5l16 78h565l-16 -78q-20 -14 -52 -31.5t-71 -28.5l-248 -1163h383l248 1163q-31 10 -57.5 24.5t-42.5 35.5l16 78h530l-16 -78q-23 -16 -55.5 -32.5t-67.5 -27.5l-248 -1163h383l248 1163 q-61 16 -104 60l16 78h567l-16 -78q-70 -43 -156 -60l-245 -1159q37 -10 69.5 -25.5t59.5 -33.5l-15 -78h-1978z" />
<glyph unicode="&#x429;" horiz-adv-x="2111" d="M-49 0l14 78q35 16 76 33.5t86 25.5l246 1159q-37 6 -75 22.5t-60 37.5l16 78h565l-16 -78q-23 -16 -55.5 -32.5t-67.5 -27.5l-248 -1163h383l248 1163q-63 23 -100 60l16 78h530l-16 -78q-23 -16 -54.5 -32.5t-68.5 -27.5l-248 -1163h383l248 1163q-31 10 -57.5 24.5 t-46.5 35.5l16 78h580l-17 -78q-33 -20 -78 -35.5t-90 -24.5l-248 -1163h242q-10 -49 -27.5 -110.5t-38 -124t-43 -123t-44.5 -109.5h-80l-31 334h-1839z" />
<glyph unicode="&#x42a;" horiz-adv-x="1568" d="M186 950q0 51 5.5 117t12.5 132.5t17 128t21 106.5h950l-16 -78q-39 -20 -93.5 -35.5t-107.5 -24.5l-94 -438q39 8 96 11t98 3q100 0 185.5 -18t146.5 -58t96 -102.5t35 -148.5q0 -143 -53 -246.5t-148.5 -171.5t-227.5 -100.5t-288 -32.5q-10 0 -43 1t-76 2t-87 2t-74 1 h-316l15 78q41 20 87 35.5t95 23.5l246 1163h-213l-185 -350h-84zM729 135q8 -2 23.5 -4t32 -3t33 -1h26.5q164 0 260 110.5t96 307.5q0 88 -49 141t-178 53q-74 0 -119 -12z" />
<glyph unicode="&#x42b;" horiz-adv-x="1898" d="M-49 0l14 78q41 20 89 36.5t93 22.5l246 1159q-41 8 -82 22.5t-73 37.5l16 78h655l-16 -78q-37 -20 -88 -36.5t-105 -23.5l-94 -438q39 8 96.5 11t98.5 3q123 0 204.5 -27.5t132 -73.5t72 -105.5t21.5 -120.5q0 -137 -48 -240.5t-136.5 -172.5t-214 -103.5t-279.5 -34.5 q-10 0 -44 1t-78 2t-89 2t-76 1h-315zM455 135q16 -4 51 -6t57 -2q80 0 141.5 34t103.5 92t63.5 135t21.5 165q0 39 -8 72.5t-29.5 59.5t-60 40t-97.5 14q-74 0 -118 -12zM1153 0l16 78q35 18 77 33.5t85 25.5l246 1159q-37 8 -76 22.5t-71 37.5l16 78h631l-17 -78 q-74 -43 -176 -60l-246 -1159q49 -8 86 -25.5t66 -33.5l-16 -78h-621z" />
<glyph unicode="&#x42c;" horiz-adv-x="1294" d="M-49 0l14 78q41 20 89 36.5t93 22.5l246 1159q-41 8 -82 22.5t-73 37.5l16 78h664l-17 -78q-37 -20 -92 -36.5t-109 -23.5l-94 -438q39 8 96.5 11t98.5 3q123 0 210 -24.5t143 -67.5t83 -103.5t27 -131.5q0 -143 -53.5 -246.5t-147.5 -171.5t-225 -100.5t-285 -32.5 q-10 0 -44 1t-78 2t-89 2t-76 1h-315zM455 135q8 -2 23.5 -4t31.5 -3t32.5 -1h26.5q164 0 260.5 110.5t96.5 307.5q0 88 -49.5 141t-178.5 53q-74 0 -118 -12z" />
<glyph unicode="&#x42d;" horiz-adv-x="1327" d="M33 78q6 39 19.5 87t30.5 97t36.5 97.5t38.5 89.5h86l43 -308q23 -16 64.5 -24t88.5 -8q92 0 179.5 35.5t160 108.5t124.5 180.5t75 250.5l-541 -61q-2 41 6.5 100t36.5 108l520 -8q27 238 -61 370t-268 132q-47 0 -98.5 -11t-79.5 -28l-164 -266h-84q0 23 3 65.5t8 92 t13.5 100.5t20.5 92q43 25 98 41t112.5 27.5t114 15.5t99.5 4q164 0 281.5 -41t193.5 -117.5t111.5 -184t35.5 -238.5q0 -195 -59 -360t-175 -285.5t-285 -188.5t-388 -68q-141 0 -240.5 29t-156.5 74z" />
<glyph unicode="&#x42e;" horiz-adv-x="2101" d="M-49 0l14 78q43 20 88 35.5t94 23.5l246 1159q-41 6 -81 21.5t-74 38.5l16 78h631l-17 -78q-29 -16 -68.5 -32.5t-99.5 -27.5l-106 -495h221q37 141 102.5 262t161 208t219 137t275.5 50q156 0 259 -45t165.5 -119.5t88 -171t25.5 -196.5q0 -166 -51 -336t-152.5 -306.5 t-254 -222.5t-355.5 -86q-160 0 -265 57.5t-165.5 153t-79 221t-0.5 261.5h-223l-110 -531q47 -10 81.5 -26.5t59.5 -32.5l-14 -78h-631zM1100 518q-4 -205 49 -307t182 -102q109 0 192 78.5t139 204.5t85 285t29 320q0 61 -9.5 121t-36 106t-74.5 73.5t-122 27.5 q-72 0 -131.5 -39t-107.5 -103.5t-84.5 -148.5t-61.5 -174t-37 -179t-12 -163z" />
<glyph unicode="&#x42f;" horiz-adv-x="1406" d="M-92 0l14 70l101 49q162 141 269 262t200 225q-37 12 -77 39t-72 67t-53.5 94t-21.5 122q0 248 178.5 378t532.5 134q20 0 53 -1t71 -2t77 -2t69 -1h324l-17 -78q-29 -16 -77.5 -32.5t-102.5 -27.5l-246 -1159q49 -10 88 -26.5t68 -32.5l-16 -78h-635l16 78 q37 18 81 33.5t91 25.5l97 451h-164q-94 -139 -183.5 -271.5t-203.5 -250.5l-97 -66h-364zM598 920q0 -53 17.5 -93.5t46 -67t62.5 -38.5t69 -12q14 0 36.5 1t46 2t43 3t29.5 4l121 577q-16 4 -51 7.5t-60 3.5q-96 0 -164.5 -33t-111.5 -86t-63.5 -123t-20.5 -145z" />
<glyph unicode="&#x430;" horiz-adv-x="1153" d="M57 285q0 160 44 298t125 241.5t196 161.5t256 58q53 0 91 -12t81 -31q53 20 114.5 30.5t147.5 10.5l-172 -901h143v-69q-20 -16 -54 -32.5t-74 -29t-82 -20.5t-78 -8q-72 0 -102.5 30.5t-30.5 63.5q0 37 10 97t30 153h-8q-27 -66 -66.5 -128.5t-91 -111.5t-113 -80 t-132.5 -31q-106 0 -170 78t-64 232zM348 319q0 -94 22.5 -137t69.5 -43q39 0 81 35t80 87t69.5 114.5t54.5 116.5l76 405q-25 16 -46.5 23.5t-56.5 7.5q-82 0 -147.5 -54.5t-110.5 -141.5t-68.5 -195.5t-23.5 -217.5z" />
<glyph unicode="&#x431;" horiz-adv-x="1116" d="M63 432q0 141 25 275.5t74 251t120.5 211t163.5 155.5q57 39 125 62.5t140.5 37t147.5 19.5t149 10l122 107h70q0 -35 -9 -74t-23.5 -78t-34 -76t-41.5 -63q-29 -35 -75 -43t-114 -13q-150 -12 -261.5 -37.5t-192 -82t-133 -154.5t-83.5 -254h11q94 160 231 251t281 91 q145 0 227 -94t82 -260q0 -131 -44 -257t-124 -224.5t-190.5 -158t-245.5 -59.5q-86 0 -159 27t-126 82t-83 141t-30 207zM354 342q0 -129 37 -189.5t98 -60.5q53 0 103.5 45t89.5 122t62.5 180.5t23.5 219.5q0 111 -33 158t-96 47q-41 0 -78 -19.5t-66.5 -47t-51 -60 t-33.5 -57.5q-25 -51 -40.5 -138t-15.5 -200z" />
<glyph unicode="&#x432;" horiz-adv-x="1062" d="M55 338q0 100 20.5 189t55.5 164t81 134.5t99 100.5q76 61 173.5 92t244.5 31q117 0 198 -51.5t81 -155.5q0 -90 -78 -162t-205 -113q70 -4 116 -23.5t74.5 -49t41 -63.5t12.5 -66q0 -68 -36 -136.5t-104.5 -125t-167 -92.5t-223.5 -36q-92 0 -162.5 27t-120 75 t-75 114.5t-25.5 146.5zM350 303q0 -90 35 -150.5t107 -60.5q31 0 62.5 17.5t57 49t43 75t17.5 96.5q0 84 -35 116.5t-109 47.5q-33 -6 -79 -10.5t-84 -6.5q-4 -23 -9.5 -64.5t-5.5 -109.5zM377 573q76 -4 140.5 17.5t109.5 58.5t70.5 85t25.5 102q0 37 -15.5 66.5 t-54.5 29.5q-78 0 -151.5 -82t-124.5 -277z" />
<glyph unicode="&#x433;" horiz-adv-x="864" d="M35 211q0 80 35.5 139.5t89 107.5t116 86t115.5 75.5t89 77.5t36 89q0 41 -19.5 70t-68.5 29q-35 0 -69.5 -12.5t-67.5 -32t-60.5 -42t-48.5 -40.5l-51 55q27 37 70 78t98 77t119.5 58.5t136.5 22.5q131 0 195.5 -64.5t64.5 -153.5q0 -80 -36 -141t-89 -110.5t-115.5 -90 t-115.5 -79.5t-89 -80t-36 -92q0 -45 29.5 -72t89.5 -27q39 0 77.5 12.5t73.5 31t65.5 41t55.5 42.5l47 -49q-27 -37 -72 -80t-104 -78.5t-133 -59.5t-156 -24q-55 0 -105 16.5t-87 47.5t-58.5 75t-21.5 97z" />
<glyph unicode="&#x434;" horiz-adv-x="1085" d="M43 350q0 147 48 273.5t130 217.5t190.5 143t227.5 52q41 0 82 -8t63 -24q0 63 -11 133.5t-39.5 131t-76 99.5t-120.5 39q-72 0 -127.5 -16.5t-102.5 -44.5l-33 53q59 61 170 103t234 42q78 0 148.5 -32.5t124 -104.5t84 -185.5t30.5 -275.5q0 -205 -48 -382t-136 -308 t-213 -206t-277 -75q-76 0 -140.5 26t-110.5 73t-71.5 116.5t-25.5 159.5zM334 315q0 -45 6 -86t19.5 -71.5t38 -48t61.5 -17.5q61 0 116.5 62.5t98.5 170t69.5 251t30.5 307.5q-31 20 -63.5 28.5t-65.5 8.5q-84 0 -143.5 -57.5t-96 -146.5t-54 -195.5t-17.5 -205.5z" />
<glyph unicode="&#x435;" horiz-adv-x="966" d="M55 356q0 141 45 266.5t126 220.5t192.5 150.5t245.5 55.5q123 0 202.5 -56.5t79.5 -154.5q0 -139 -138 -229.5t-448 -112.5q-6 -29 -9 -58.5t-3 -56.5q0 -117 59.5 -179.5t151.5 -62.5q39 0 78 12.5t75 33t65.5 44t51.5 45.5l50 -51q-23 -41 -66 -85t-100.5 -79.5 t-127 -59.5t-145.5 -24q-182 0 -283.5 99.5t-101.5 281.5zM375 600q152 4 245 67.5t93 166.5q0 41 -22 69.5t-75 28.5q-70 0 -134 -76t-107 -256z" />
<glyph unicode="&#x436;" horiz-adv-x="1814" d="M-35 43q-4 27 2 59.5t20.5 64.5t37 58.5t51.5 38.5l106 -141q43 14 83 61t71 121t48 170t17 213q0 100 -23.5 142t-70.5 42q-45 0 -84 -25.5t-67 -53.5l-39 41q55 80 143 141t211 61q47 0 84 -21.5t61.5 -58t38 -85t13.5 -99.5q0 -53 -4.5 -103.5t-12.5 -97.5h152l92 453 h260l-94 -453h149q29 100 75 186.5t107.5 148t135.5 96t160 34.5q63 0 99 -10t75 -35q2 -23 -3.5 -52.5t-19.5 -60t-35.5 -58t-52.5 -44.5l-111 129q-31 -12 -66.5 -52t-65 -109.5t-50 -171t-20.5 -236.5q0 -84 29.5 -134t93.5 -50q35 0 72.5 22.5t66.5 50.5l35 -47 q-23 -33 -59 -66.5t-80 -61t-94 -45t-99 -17.5q-63 0 -107.5 21.5t-72 59t-40 88t-12.5 107.5q0 53 3.5 102.5t11.5 98.5h-148l-94 -465h-258l94 465h-153q-29 -104 -75 -192.5t-107.5 -152t-136.5 -98t-161 -34.5q-63 0 -106 16t-76 39z" />
<glyph unicode="&#x437;" horiz-adv-x="948" d="M-31 84q0 31 13.5 65.5t34 66.5t46 56.5t52.5 34.5l129 -205q16 -4 38.5 -7t39.5 -3q45 0 88 15.5t77.5 46t56 74.5t21.5 102q0 68 -36.5 106.5t-125.5 48.5l-133 -36q-16 27 -16 68.5t16 68.5h136q111 35 152.5 99.5t41.5 123.5q0 123 -139 123q-16 0 -40 -3t-44 -7 q-31 -33 -69 -89.5t-68 -97.5q-20 8 -40 32t-33 56.5t-17.5 67.5t8.5 65q39 29 140 61t249 32q154 0 250 -50.5t96 -154.5q0 -92 -64.5 -166t-210.5 -125q63 0 109.5 -17.5t76.5 -46t44 -65.5t14 -74q0 -78 -37 -146.5t-104.5 -118.5t-164.5 -80t-218 -30q-57 0 -112.5 8.5 t-104.5 22.5t-88 33.5t-64 44.5z" />
<glyph unicode="&#x438;" horiz-adv-x="1198" d="M86 168q0 45 13.5 129t33 183.5t43 205t41.5 193.5l-121 26v70q33 12 82 24.5t102.5 22.5t108.5 17.5t100 9.5l46 -25q-33 -154 -67 -292t-62 -292q-10 -49 -21.5 -108.5t-11.5 -118.5q0 -37 19.5 -55.5t47.5 -18.5q51 0 101.5 40t92.5 96.5t73.5 116t46.5 97.5l106 535 h277l-162 -883h143v-69q-20 -16 -54 -32.5t-74 -29t-84 -20.5t-87 -8q-74 0 -101.5 29.5t-27.5 62.5q0 37 8.5 102.5t32.5 151.5h-8q-27 -49 -68 -110.5t-96 -116t-127 -90.5t-158 -36q-84 0 -136 50.5t-52 142.5z" />
<glyph unicode="&#x439;" horiz-adv-x="1198" d="M86 168q0 45 13.5 129t33 183.5t43 205t41.5 193.5l-121 26v70q33 12 82 24.5t102.5 22.5t108.5 17.5t100 9.5l46 -25q-33 -154 -67 -292t-62 -292q-10 -49 -21.5 -108.5t-11.5 -118.5q0 -37 19.5 -55.5t47.5 -18.5q51 0 101.5 40t92.5 96.5t73.5 116t46.5 97.5l106 535 h277l-162 -883h143v-69q-20 -16 -54 -32.5t-74 -29t-84 -20.5t-87 -8q-74 0 -101.5 29.5t-27.5 62.5q0 37 8.5 102.5t32.5 151.5h-8q-27 -49 -68 -110.5t-96 -116t-127 -90.5t-158 -36q-84 0 -136 50.5t-52 142.5zM420 1399q29 25 85 48t113 28l70 -27v-160q20 -10 39.5 -17 t52.5 -7q76 0 147.5 47t106.5 135q23 -2 51.5 -13.5t38.5 -27.5q-12 -43 -42 -90t-78 -86t-115.5 -64.5t-155.5 -25.5t-148.5 22.5t-97.5 59t-52 83t-15 95.5z" />
<glyph unicode="&#x43a;" horiz-adv-x="1140" d="M57 0l172 879l-137 26v70q29 12 76 25.5t102.5 23.5t115.5 17.5t118 7.5l43 -23l-90 -446h65q37 27 75 63.5t73 73.5t62.5 72.5t39.5 60.5q2 14 3 38.5t0 50.5t-2 49.5t-3 35.5q35 12 89 19.5t110 7.5q53 0 101 -7.5t71 -19.5q-27 -66 -81 -131.5t-116.5 -122.5 t-122 -104.5t-96.5 -73.5q14 -39 45 -98.5t69 -124t77.5 -126t72.5 -102.5h111v-69q-20 -16 -52 -32.5t-69 -29t-76 -20.5t-76 -8q-49 0 -88.5 23t-74.5 89q-57 98 -93 193.5t-67 181.5l-66 20l-94 -489h-287z" />
<glyph unicode="&#x43b;" horiz-adv-x="1163" d="M-45 125q4 37 17.5 72.5t35.5 60.5l180 -57q39 49 77 130t72 175t59.5 191.5t39.5 176.5q-41 10 -85 30t-66 40v80h809l-168 -883h149v-69q-41 -33 -129 -61.5t-194 -28.5q-59 0 -88 28.5t-29 63.5q0 45 9 96t20 98l127 639h-203q-27 -117 -57.5 -235.5t-68.5 -226 t-84 -199.5t-102 -158q-57 -68 -125.5 -95.5t-164.5 -17.5q-20 20 -28.5 61.5t-2.5 88.5z" />
<glyph unicode="&#x43c;" horiz-adv-x="1605" d="M-45 135q4 33 15.5 62.5t31.5 52.5l166 -49q37 47 70.5 122.5t63.5 168t55.5 193.5t45.5 200q-35 12 -72.5 30.5t-54.5 38.5v70h461l74 -535l8 -145h6l82 152l332 528h297l-174 -883h151v-69q-20 -16 -55 -32.5t-76 -29t-88 -20.5t-92 -8q-63 0 -94 25.5t-31 58.5 q0 49 13.5 111.5t23.5 109.5l82 350q4 18 10 41.5t14.5 49.5t15.5 50.5t13 40.5h-6l-504 -819h-129l-69 676l-11 147h-8q-23 -92 -47 -195.5t-57 -204.5t-75 -192.5t-97 -156.5q-49 -59 -124 -83t-140 -16q-18 23 -25.5 68t-1.5 92z" />
<glyph unicode="&#x43d;" horiz-adv-x="1212" d="M57 0l174 879l-118 26v70q29 14 78 27.5t106 23.5t113.5 16.5t99.5 6.5l41 -25l-92 -449h323l86 449h283l-176 -883h145v-69q-20 -16 -56 -32.5t-79 -29t-89 -20.5t-89 -8q-68 0 -95.5 28.5t-27.5 59.5q0 39 13.5 93t23.5 101l39 195h-324l-96 -459h-283z" />
<glyph unicode="&#x43e;" horiz-adv-x="1124" d="M59 393q0 111 37 226.5t113 211t191.5 157t271.5 61.5q184 0 288.5 -100.5t104.5 -299.5q0 -135 -41 -257t-119 -215t-189.5 -147.5t-254.5 -54.5q-86 0 -160 26t-128 78t-84 130t-30 184zM350 313q0 -104 40 -162.5t110 -58.5q59 0 109 50.5t87 135t57.5 194.5t20.5 228 q0 113 -35.5 172.5t-101.5 59.5q-82 0 -136.5 -61.5t-88 -154.5t-48 -201.5t-14.5 -201.5z" />
<glyph unicode="&#x43f;" horiz-adv-x="1204" d="M57 0l176 879l-120 26l4 70q29 14 74 27.5t98 23.5t109.5 16.5t107.5 6.5l41 -25l-64 -299h11q37 68 86 127t104 102t116.5 69t125.5 26q86 0 135 -55.5t49 -147.5q0 -47 -10 -107.5t-25 -120.5l-112 -477h147v-69q-20 -16 -54 -32.5t-74 -29t-83 -20.5t-82 -8 q-70 0 -101.5 26.5t-31.5 61.5q0 43 10.5 92t20.5 94l71 328q14 63 25.5 112t11.5 103q0 35 -15 60.5t-54 25.5t-81 -30t-82 -74t-74 -97t-54 -98l-123 -586h-283z" />
<glyph unicode="&#x440;" horiz-adv-x="1171" d="M-35 -383l271 1260l-119 28v70q33 14 84 27.5t106 23.5t108.5 16.5t94.5 6.5l41 -25l-68 -283h9q33 63 74.5 120t90 98.5t104.5 65.5t120 24q104 0 172.5 -82t68.5 -230q0 -166 -47 -306t-128 -241.5t-192.5 -158t-240.5 -56.5q-59 0 -97 9.5t-79 31.5l-62 -288 q35 -6 73 -23.5t65 -36.5v-78h-422zM365 127q27 -18 52 -26.5t75 -8.5q70 0 131 55.5t107 143.5t71.5 198.5t25.5 219.5q0 86 -26.5 131t-77.5 45q-43 0 -83 -32t-75 -79t-63.5 -102.5t-46.5 -100.5z" />
<glyph unicode="&#x441;" horiz-adv-x="911" d="M55 340q0 143 44 272t124 226.5t193.5 154t253.5 56.5q92 0 160.5 -19.5t91.5 -46.5q2 -23 -7.5 -56.5t-28 -67.5t-44 -63.5t-51.5 -41.5l-125 178q-55 0 -111.5 -38t-101.5 -108.5t-74 -170t-29 -224.5t51.5 -183t137.5 -58q41 0 78.5 13t70.5 31.5t60.5 40t48.5 39.5 l47 -51q-27 -43 -70 -88t-99.5 -80t-124 -57.5t-142.5 -22.5q-162 0 -257.5 96.5t-95.5 268.5z" />
<glyph unicode="&#x442;" horiz-adv-x="1738" d="M57 0l183 879l-117 26v70q33 16 81 30.5t101 23.5t108.5 14.5t102.5 5.5l43 -25l-80 -299h8q31 55 75 113.5t99.5 104.5t119 76t128.5 30q25 0 51.5 -8.5t50 -30t38 -58.5t14.5 -94q0 -29 -5 -65.5t-14 -67.5q35 63 82.5 122.5t101.5 103.5t114.5 71t125.5 27 q78 0 127.5 -49.5t49.5 -135.5q0 -66 -12.5 -125t-26.5 -125l-117 -473h143v-69q-20 -16 -56 -32.5t-77 -29t-84 -20.5t-80 -8q-74 0 -102.5 29.5t-28.5 66.5q0 59 29 164l88 372q10 47 22.5 101.5t12.5 85.5q0 39 -13.5 61.5t-48.5 22.5t-71.5 -25.5t-71.5 -67.5 t-66.5 -95.5t-56.5 -108.5l-133 -588h-274l124 575q14 63 24.5 123t10.5 111q0 76 -57 76q-29 0 -65.5 -27t-73.5 -68.5t-70 -95t-51 -108.5l-119 -586h-287z" />
<glyph unicode="&#x443;" horiz-adv-x="997" d="M-27 -387q-6 29 4.5 67.5t30 75.5t46 68t55.5 41l153 -109q14 10 37 29.5t45.5 49.5t45 71t40.5 94l-283 879l-131 16v70q10 8 41 21t73 27.5t89 25t92 10.5q55 0 86 -27t41 -74l158 -620l10 -123h4l43 121q41 98 80 211.5t62 212.5q0 23 -7.5 62.5t-15.5 81.5t-16 78 t-13 48q29 12 72 18t86 6t80 -6t59 -18q-53 -244 -162.5 -506t-252.5 -514q-119 -211 -237 -319.5t-271 -108.5q-43 0 -79 11t-65 30z" />
<glyph unicode="&#x444;" horiz-adv-x="1548" d="M55 285q0 168 40 308t110.5 240.5t166 155.5t208.5 55q49 0 91 -12t68 -35l64 371l-137 29v69q31 12 75.5 24.5t97 23t106.5 16.5t104 10l41 -22l-115 -596q37 45 111.5 86t173.5 41q47 0 90 -15.5t74.5 -52.5t50 -95.5t18.5 -144.5q0 -172 -40 -312t-111.5 -241.5 t-171 -157t-216.5 -55.5q-47 0 -86 17.5t-59 42.5l-61 -305q35 -6 71.5 -24.5t65.5 -37.5v-78h-402l-16 21l106 500q-47 -59 -108.5 -99.5t-157.5 -40.5q-45 0 -90 15.5t-81 52.5t-58.5 96.5t-22.5 149.5zM342 272q0 -161 88 -161q39 0 83 29.5t77 72.5l127 682 q-39 33 -107 33q-55 0 -104 -51.5t-85 -140.5t-57.5 -207.5t-21.5 -256.5zM829 123q33 -31 105 -31q55 0 105.5 54.5t87 146.5t58 214t21.5 257q0 72 -24.5 108.5t-65.5 36.5q-53 0 -91 -24.5t-71 -59.5z" />
<glyph unicode="&#x445;" horiz-adv-x="1036" d="M-55 14q18 61 70.5 135t117 145t131 133t113.5 99l-125 340l-141 17v69q29 16 68.5 32.5t82.5 29t87 20.5t79 8q53 0 81 -27.5t42 -72.5l92 -324q39 41 82 98.5t66 104.5q2 14 1 41t-4.5 56.5t-8.5 55t-7 38.5q76 27 166 26q41 0 80 -7t61 -19q-18 -61 -68 -135 t-111.5 -143.5t-124 -128t-101.5 -89.5l135 -358l141 -17v-69q-20 -14 -57 -29.5t-80 -29t-88 -22.5t-82 -9q-53 0 -84 26.5t-45 71.5l-102 334q-41 -47 -88.5 -102.5t-73.5 -106.5q-2 -16 -2 -43t2 -55.5t5 -54t7 -38.5q-35 -14 -81 -20t-91 -6t-84 6t-61 20z" />
<glyph unicode="&#x446;" horiz-adv-x="1218" d="M86 168q0 45 13.5 129t33 183.5t43 205t41.5 193.5l-121 26v70q33 12 82 24.5t102.5 22.5t108.5 17.5t100 9.5l46 -25q-33 -154 -67 -292t-62 -292q-10 -49 -21.5 -108.5t-11.5 -118.5q0 -37 19.5 -55.5t47.5 -18.5q51 0 101.5 40t92.5 96.5t73.5 116t46.5 97.5l106 535 h277l-162 -883h158v-82q-27 -27 -36.5 -57.5t-10.5 -64t2.5 -70.5t1.5 -74q0 -55 -28 -93t-71 -63.5t-97 -39t-110 -17.5l-12 60q59 16 76.5 59t15.5 96q0 41 9.5 72t28 58.5t46 55t64.5 58.5l-6 8q-31 -20 -87.5 -42.5t-109.5 -22.5q-66 0 -92.5 29.5t-26.5 62.5 q0 37 8.5 102.5t32.5 151.5h-8q-27 -49 -68 -110.5t-96 -116t-127 -90.5t-158 -36q-84 0 -136 50.5t-52 142.5z" />
<glyph unicode="&#x447;" horiz-adv-x="1110" d="M49 905v70q33 12 82 24.5t102.5 22.5t108.5 17.5t100 9.5l45 -25q-41 -166 -71.5 -288t-30.5 -189q0 -86 84 -86q57 0 118.5 38t96.5 89l90 436h279l-187 -883h144v-69q-20 -16 -54 -32.5t-74 -29t-84 -20.5t-87 -8q-74 0 -101.5 30.5t-27.5 65.5q0 41 12 100l80 318h-8 q-61 -82 -160.5 -140.5t-214.5 -58.5q-86 0 -139.5 46t-53.5 136q0 41 5.5 81t14.5 86t22.5 102.5t29.5 130.5z" />
<glyph unicode="&#x448;" horiz-adv-x="1718" d="M86 168q0 45 13.5 129t33 183.5t43 205t41.5 193.5l-121 26v70q33 12 82 24.5t102.5 22.5t108.5 17.5t100 9.5l46 -25q-33 -154 -67 -292t-62 -292q-10 -49 -21.5 -108.5t-11.5 -118.5q0 -37 19.5 -55.5t47.5 -18.5q49 0 91 40t78 96.5t61.5 116t40.5 97.5l108 535h277 q-33 -154 -67 -292t-62 -292q-10 -49 -21.5 -108.5t-11.5 -118.5q0 -37 19.5 -55.5t47.5 -18.5q49 0 92.5 40t78 96.5t61.5 116t41 97.5l106 535h277l-162 -883h143v-69q-20 -16 -54 -32.5t-74 -29t-84 -20.5t-87 -8q-74 0 -101.5 29.5t-27.5 62.5q0 37 8.5 102.5 t32.5 151.5h-8q-27 -49 -62.5 -110.5t-86 -116t-119 -90.5t-160.5 -36q-78 0 -118 43t-40 113q0 43 7.5 89t25.5 108h-8q-27 -49 -61.5 -110.5t-83 -116t-113 -90.5t-150.5 -36q-84 0 -136 50.5t-52 142.5z" />
<glyph unicode="&#x449;" horiz-adv-x="1738" d="M86 168q0 45 13.5 129t33 183.5t43 205t41.5 193.5l-121 26v70q33 12 82 24.5t102.5 22.5t108.5 17.5t100 9.5l46 -25q-33 -154 -67 -292t-62 -292q-10 -49 -21.5 -108.5t-11.5 -118.5q0 -37 19.5 -55.5t47.5 -18.5q49 0 91 40t78 96.5t61.5 116t40.5 97.5l108 535h277 q-33 -154 -67 -292t-62 -292q-10 -49 -21.5 -108.5t-11.5 -118.5q0 -37 19.5 -55.5t47.5 -18.5q49 0 92.5 40t78 96.5t61.5 116t41 97.5l106 535h277l-162 -883h158v-82q-25 -27 -34 -57.5t-11 -64t1 -70.5t3 -74q0 -55 -28 -93t-71 -63.5t-97 -39t-109 -17.5l-15 60 q59 16 76.5 59t17.5 96q0 41 9.5 72t28 58.5t46 55t64.5 58.5l-6 8q-31 -20 -88.5 -42.5t-110.5 -22.5q-68 0 -93.5 29.5t-25.5 62.5q0 37 8.5 102.5t32.5 151.5h-8q-27 -49 -62.5 -110.5t-86 -116t-119 -90.5t-160.5 -36q-78 0 -118 43t-40 113q0 43 7.5 89t25.5 108h-8 q-27 -49 -61.5 -110.5t-83 -116t-113 -90.5t-150.5 -36q-84 0 -136 50.5t-52 142.5z" />
<glyph unicode="&#x44a;" horiz-adv-x="1052" d="M31 702l49 269q12 80 117 80q39 0 87 -7.5t107.5 -16.5t133 -18.5t163.5 -15.5q27 14 53.5 27.5t53.5 28.5q27 -10 45 -42t14 -67q-53 -25 -108.5 -63.5t-105.5 -90t-92 -115t-73 -136.5h8q74 61 154 97t178 36q41 0 78 -13.5t65.5 -40t46 -69.5t17.5 -101 q0 -98 -47 -183t-125 -148.5t-178.5 -100.5t-206.5 -37q-57 0 -116.5 14.5t-109 49.5t-81 91t-31.5 140q0 68 28.5 143.5t79 150.5t118 142.5t145.5 120.5q-63 -10 -147.5 -5t-155.5 16l-95 -148zM414 231q0 -59 26.5 -99t79.5 -40q43 0 82 22.5t67.5 62.5t46 93.5 t17.5 114.5t-32.5 90t-71.5 29q-51 0 -100 -19.5t-78 -54.5q-37 -111 -37 -199z" />
<glyph unicode="&#x44b;" horiz-adv-x="1515" d="M88 227q0 63 15.5 142.5t41 164t57 173t62.5 172.5l-112 26v70q31 14 81 27.5t107 22.5t116.5 15.5t108.5 8.5l45 -25q-25 -66 -47 -122t-43.5 -113.5t-43 -119t-44.5 -134.5h8q53 59 126 106t177 47q37 0 72 -12t62.5 -37t45 -62.5t17.5 -91.5q0 -92 -43 -183 t-119 -163.5t-181 -118t-228 -45.5q-59 0 -109.5 14.5t-89.5 44t-60.5 78t-21.5 115.5zM375 209q0 -57 18.5 -87t65.5 -30q39 0 73.5 27.5t61.5 74t43 103.5t16 119q0 53 -27.5 80.5t-62.5 27.5q-47 0 -83.5 -29.5t-65.5 -64.5q-18 -55 -28.5 -108.5t-10.5 -112.5zM977 76 q0 41 6 80t16 86l170 782h285l-186 -883h143v-69q-27 -18 -62.5 -35t-75.5 -29t-81 -19t-78 -7q-78 0 -107.5 29.5t-29.5 64.5z" />
<glyph unicode="&#x44c;" horiz-adv-x="1001" d="M88 227q0 63 15.5 142.5t41 164t57 173t62.5 172.5l-112 26v70q31 14 81 27.5t107 22.5t116.5 15.5t108.5 8.5l45 -25q-25 -66 -47 -122t-43.5 -113.5t-43 -119t-44.5 -134.5h8q27 29 63 56t79 49t91 35t101 13q37 0 72 -12t62.5 -37t45 -62.5t17.5 -91.5q0 -98 -46 -189 t-126 -163t-188.5 -115t-231.5 -43q-63 0 -116.5 14.5t-92.5 44t-60.5 78t-21.5 115.5zM375 215q0 -57 23.5 -90t70.5 -33q43 0 83 27.5t68.5 74t46 103.5t17.5 119q0 53 -28.5 80.5t-65.5 27.5q-53 0 -100 -29.5t-76 -64.5q-18 -55 -28.5 -108.5t-10.5 -106.5z" />
<glyph unicode="&#x44d;" horiz-adv-x="991" d="M-31 84q0 31 13.5 65.5t34 66.5t46 56.5t52.5 34.5l129 -205q16 -4 35.5 -7t35.5 -3q51 0 101.5 26.5t93.5 77t75.5 122t49.5 163.5l-334 -47q-8 12 -12 33.5t-4 45.5t4 45.5t12 33.5h344q0 10 1 20.5t1 20.5q0 141 -51 220t-131 79q-33 0 -78 -10q-16 -16 -34.5 -41 t-38 -51.5t-39 -52t-35.5 -46.5q-20 8 -39 34t-32 60.5t-17.5 71.5t6.5 68q49 33 148.5 58.5t238.5 25.5q86 0 158.5 -26t126 -74t83 -117.5t29.5 -159.5q0 -150 -45 -278t-126 -221t-191.5 -145.5t-241.5 -52.5q-57 0 -112.5 8.5t-104.5 22.5t-88 33.5t-64 44.5z" />
<glyph unicode="&#x44e;" horiz-adv-x="1617" d="M57 0l174 879l-118 26v70q29 14 78 27.5t106 23.5t113.5 16.5t99.5 6.5l41 -25l-92 -449h151q23 90 67 175.5t112.5 152t161.5 106.5t214 40q184 0 289 -100.5t105 -299.5q0 -135 -41 -257t-118 -215t-184.5 -147.5t-242.5 -54.5q-82 0 -152.5 26t-122 78t-81 130 t-29.5 184q0 16 1 32.5t3 33.5h-156l-96 -459h-283zM866 313q0 -104 33 -162.5t90 -58.5q59 0 110.5 50.5t88.5 135t58.5 194.5t21.5 228q0 113 -31.5 172.5t-97.5 59.5q-70 0 -121 -61.5t-85 -154.5t-50.5 -201.5t-16.5 -201.5z" />
<glyph unicode="&#x44f;" horiz-adv-x="1134" d="M-49 70v71h94q35 23 76 59t81 77.5t75.5 82.5t60.5 76q-78 23 -126 85.5t-48 160.5q0 80 40 146.5t111.5 113.5t174 73.5t225.5 26.5q45 0 93 -3t94 -8t89 -13t76 -19l-168 -858h145v-69q-20 -16 -56 -32.5t-80 -29t-91 -20.5t-92 -8q-66 0 -91.5 27.5t-25.5 56.5 q0 37 8.5 83t18.5 93l33 166l-113 -17q-41 -72 -89 -155.5t-114 -161.5q-45 -53 -89 -72.5t-95 -19.5q-78 0 -135.5 29.5t-81.5 58.5zM459 653q0 -66 43 -110.5t141 -44.5h43l88 415q-20 4 -48 8.5t-48 4.5q-47 0 -87 -21.5t-68.5 -59.5t-46 -87t-17.5 -105z" />
<glyph unicode="&#x451;" horiz-adv-x="966" d="M55 356q0 141 45 266.5t126 220.5t192.5 150.5t245.5 55.5q123 0 202.5 -56.5t79.5 -154.5q0 -139 -138 -229.5t-448 -112.5q-6 -29 -9 -58.5t-3 -56.5q0 -117 59.5 -179.5t151.5 -62.5q39 0 78 12.5t75 33t65.5 44t51.5 45.5l50 -51q-23 -41 -66 -85t-100.5 -79.5 t-127 -59.5t-145.5 -24q-182 0 -283.5 99.5t-101.5 281.5zM309 1350q0 66 41 104.5t109 38.5q66 0 107.5 -39t41.5 -104q0 -61 -42 -100.5t-107 -39.5q-68 0 -109 39.5t-41 100.5zM375 600q152 4 245 67.5t93 166.5q0 41 -22 69.5t-75 28.5q-70 0 -134 -76t-107 -256z M758 1350q0 66 41 104.5t106 38.5q68 0 110 -39t42 -104q0 -61 -42 -100.5t-110 -39.5q-66 0 -106.5 39.5t-40.5 100.5z" />
<glyph unicode="&#x452;" horiz-adv-x="1148" d="M43 0l223 1104h-160l29 125h156l28 141l-135 27v65q31 12 79 25.5t104.5 25t116 19.5t112.5 8l43 -18l-64 -293h312l-29 -125h-309l-82 -379h10q156 262 391 262q94 0 153.5 -54t59.5 -142q0 -45 -4 -79t-16 -94l-129 -618q-29 -113 -86.5 -191.5t-127 -129t-141 -78 t-128.5 -35.5l-33 63q25 12 58.5 41t66 74t61.5 108.5t45 147.5l125 584q10 49 16.5 81.5t6.5 65.5q0 43 -23.5 67.5t-54.5 24.5q-43 0 -85 -24.5t-78 -60.5t-64.5 -76.5t-43.5 -75.5l-120 -586h-283z" />
<glyph unicode="&#x453;" horiz-adv-x="864" d="M35 211q0 80 35.5 139.5t89 107.5t116 86t115.5 75.5t89 77.5t36 89q0 41 -19.5 70t-68.5 29q-35 0 -69.5 -12.5t-67.5 -32t-60.5 -42t-48.5 -40.5l-51 55q27 37 70 78t98 77t119.5 58.5t136.5 22.5q131 0 195.5 -64.5t64.5 -153.5q0 -80 -36 -141t-89 -110.5t-115.5 -90 t-115.5 -79.5t-89 -80t-36 -92q0 -45 29.5 -72t89.5 -27q39 0 77.5 12.5t73.5 31t65.5 41t55.5 42.5l47 -49q-27 -37 -72 -80t-104 -78.5t-133 -59.5t-156 -24q-55 0 -105 16.5t-87 47.5t-58.5 75t-21.5 97zM512 1196l242 367q16 4 54 3t79 -7.5t75 -17.5t44 -23v-50 l-412 -317z" />
<glyph unicode="&#x454;" horiz-adv-x="942" d="M55 352q0 147 44 270t123 214.5t188.5 144.5t240.5 63q31 2 59.5 2.5t57.5 -4.5q141 -12 184 -59q2 -23 -7 -56.5t-27.5 -67.5t-44 -63.5t-52.5 -41.5l-125 178q-45 0 -94 -21.5t-94 -64.5t-82 -109.5t-57 -154.5l327 26q8 -27 -2 -76t-30 -75l-312 4q0 -14 -1 -28.5 t-1 -29.5q0 -68 18.5 -115.5t48 -78.5t69.5 -45t83 -14q41 0 79 13t71 31.5t60.5 40t47.5 39.5l47 -51q-27 -43 -69.5 -88t-99 -80t-124 -57.5t-143.5 -22.5q-80 0 -150.5 26t-121.5 74t-81 117.5t-30 159.5z" />
<glyph unicode="&#x455;" horiz-adv-x="884" d="M-2 51q-2 66 23.5 129.5t74.5 98.5l199 -187q68 0 121 32.5t53 100.5q0 45 -24.5 81t-61.5 71t-81 68.5t-81 76.5t-61.5 95.5t-24.5 121.5q0 156 111.5 233t304.5 77q33 0 73 -3.5t80.5 -11.5t78.5 -19t69 -30q2 -23 -3 -58.5t-18.5 -71.5t-35 -65.5t-52.5 -39.5 l-163 182q-66 0 -110 -26.5t-44 -94.5q0 -45 25.5 -82t62.5 -70.5t82 -68.5t82 -77t62.5 -95t25.5 -123q0 -78 -35 -137.5t-95.5 -100.5t-144 -61.5t-182.5 -20.5q-104 0 -187 24t-124 52z" />
<glyph unicode="&#x456;" horiz-adv-x="622" d="M86 76q0 41 6 80t17 86l139 635l-127 28v70q31 12 82 25.5t108.5 23.5t113.5 17.5t99 7.5l37 -25l-184 -883h143v-69q-27 -18 -62.5 -35t-75.5 -29t-81 -19t-78 -7q-78 0 -107.5 29.5t-29.5 64.5zM291 1366q0 70 47 108.5t119 38.5q78 0 124 -38.5t46 -108.5 q0 -66 -46 -104.5t-124 -38.5q-72 0 -119 38.5t-47 104.5z" />
<glyph unicode="&#x457;" horiz-adv-x="720" d="M117 76q0 41 6 80t16 86l140 635l-127 28v70q31 12 82 25.5t108 23.5t113.5 17.5t99.5 7.5l37 -25l-184 -883h143v-69q-27 -18 -62.5 -35t-75.5 -29t-81 -19t-78 -7q-78 0 -107.5 29.5t-29.5 64.5zM137 1368q0 68 40 105.5t102 37.5q66 0 101.5 -37.5t35.5 -105.5 q0 -61 -38 -99t-99 -38q-68 0 -105 38t-37 99zM504 1368q0 68 40 105.5t99 37.5q68 0 103.5 -37.5t35.5 -105.5q0 -61 -37.5 -99t-101.5 -38q-66 0 -102.5 38t-36.5 99z" />
<glyph unicode="&#x458;" horiz-adv-x="612" d="M-166 -371q25 12 57.5 39t65.5 76t64.5 124t54.5 181l168 830l-121 26v70q31 14 78 27.5t101 23.5t109.5 16.5t104.5 6.5l41 -25l-188 -936q-31 -145 -92.5 -241.5t-133 -156t-145.5 -88t-131 -36.5zM291 1366q0 70 47 108.5t119 38.5q78 0 124 -38.5t46 -108.5 q0 -66 -46 -104.5t-124 -38.5q-72 0 -119 38.5t-47 104.5z" />
<glyph unicode="&#x459;" horiz-adv-x="1579" d="M-45 125q4 37 17.5 72.5t35.5 60.5l180 -57q39 49 77 130t72 175t59.5 191.5t39.5 176.5q-41 10 -85 30t-66 40v80h850q-18 -61 -34 -117.5t-31 -115t-30.5 -121t-29.5 -135.5h8q27 29 62.5 56t78.5 49t91 35t102 13q37 0 71.5 -12t62 -37t45 -62.5t17.5 -91.5 q0 -98 -46 -189t-126 -163t-188.5 -115t-231.5 -43q-127 0 -208.5 61.5t-81.5 190.5q0 63 13 147.5t34.5 174.5t47 183t48.5 175h-221q-27 -117 -57.5 -235.5t-68.5 -226t-84 -199.5t-102 -158q-57 -68 -125.5 -95.5t-164.5 -17.5q-20 20 -28.5 61.5t-2.5 88.5zM952 215 q0 -57 23.5 -90t71.5 -33q43 0 82.5 27.5t68.5 74t46.5 103.5t17.5 119q0 53 -29 80.5t-66 27.5q-53 0 -100 -29.5t-76 -64.5q-18 -55 -28.5 -108.5t-10.5 -106.5z" />
<glyph unicode="&#x45a;" horiz-adv-x="1632" d="M57 0l174 879l-118 26v70q29 14 78 27.5t106 23.5t113.5 16.5t99.5 6.5l41 -25l-92 -449h323l95 449h299q-14 -57 -26.5 -112.5t-27 -115t-29 -124t-32.5 -137.5h8q53 59 141 106t195 47q35 0 70.5 -12t63.5 -37t45.5 -62.5t17.5 -91.5q0 -98 -46.5 -189t-127 -163 t-188 -115t-230.5 -43q-129 0 -211 56.5t-82 179.5q0 18 5 53t12 72t15.5 70.5t12.5 52.5h-326l-96 -459h-283zM1004 215q0 -57 24.5 -90t69.5 -33q43 0 83 27.5t68.5 74t46 103.5t17.5 119q0 53 -28 80.5t-66 27.5q-51 0 -99.5 -29.5t-75.5 -64.5q-18 -55 -29 -108.5 t-11 -106.5z" />
<glyph unicode="&#x45b;" horiz-adv-x="1189" d="M43 0l223 1104h-160l29 125h156l28 141l-135 27v65q31 12 79 25.5t104.5 25t116 19.5t112.5 8l43 -18l-64 -293h312l-29 -125h-309l-82 -379h10q78 133 175.5 197.5t219.5 64.5q94 0 150.5 -55t56.5 -141q0 -41 -3 -83t-15 -90l-117 -477h152v-69q-41 -33 -120 -61.5 t-179 -28.5q-68 0 -98.5 27.5t-30.5 66.5q0 37 9 75.5t19 90.5l76 342q20 94 21 153q0 37 -20.5 61.5t-51.5 24.5q-47 0 -90 -24.5t-79 -60.5t-63.5 -76.5t-42.5 -75.5l-120 -586h-283z" />
<glyph unicode="&#x45c;" horiz-adv-x="1140" d="M57 0l172 879l-137 26v70q29 12 76 25.5t102.5 23.5t115.5 17.5t118 7.5l43 -23l-90 -446h65q37 27 75 63.5t73 73.5t62.5 72.5t39.5 60.5q2 14 3 38.5t0 50.5t-2 49.5t-3 35.5q35 12 89 19.5t110 7.5q53 0 101 -7.5t71 -19.5q-27 -66 -81 -131.5t-116.5 -122.5 t-122 -104.5t-96.5 -73.5q14 -39 45 -98.5t69 -124t77.5 -126t72.5 -102.5h111v-69q-20 -16 -52 -32.5t-69 -29t-76 -20.5t-76 -8q-49 0 -88.5 23t-74.5 89q-57 98 -93 193.5t-67 181.5l-66 20l-94 -489h-287zM550 1196l242 367q16 4 54 3t79 -7.5t75 -17.5t44 -23v-50 l-412 -317z" />
<glyph unicode="&#x45e;" horiz-adv-x="997" d="M-27 -387q-6 29 4.5 67.5t30 75.5t46 68t55.5 41l153 -109q14 10 37 29.5t45.5 49.5t45 71t40.5 94l-283 879l-131 16v70q10 8 41 21t73 27.5t89 25t92 10.5q55 0 86 -27t41 -74l158 -620l10 -123h4l43 121q41 98 80 211.5t62 212.5q0 23 -7.5 62.5t-15.5 81.5t-16 78 t-13 48q29 12 72 18t86 6t80 -6t59 -18q-53 -244 -162.5 -506t-252.5 -514q-119 -211 -237 -319.5t-271 -108.5q-43 0 -79 11t-65 30zM283 1399q29 25 85 48t113 28l70 -27v-160q20 -10 39.5 -17t52.5 -7q76 0 147.5 47t106.5 135q23 -2 51.5 -13.5t38.5 -27.5 q-12 -43 -42 -90t-78 -86t-115.5 -64.5t-155.5 -25.5t-148.5 22.5t-97.5 59t-52 83t-15 95.5z" />
<glyph unicode="&#x45f;" horiz-adv-x="1198" d="M86 168q0 45 13.5 129t33 183.5t43 205t41.5 193.5l-121 26v70q33 12 82 24.5t102.5 22.5t108.5 17.5t100 9.5l46 -25q-33 -154 -67 -292t-62 -292q-10 -49 -21.5 -108.5t-11.5 -118.5q0 -37 19.5 -55.5t47.5 -18.5q51 0 101.5 40t92.5 96.5t73.5 116t46.5 97.5l106 535 h277l-162 -883h143v-69q-20 -16 -54 -32.5t-74 -29t-84 -20.5t-87 -8q-74 0 -101.5 29.5t-27.5 62.5q0 37 8.5 102.5t32.5 151.5h-8q-27 -49 -68 -110.5t-96 -116t-127 -90.5t-158 -36q-84 0 -136 50.5t-52 142.5zM393 -438q37 18 44 47t1 61.5t-18 68.5t-12 71 q0 72 40.5 116.5t129.5 89.5l47 -28q-27 -31 -25 -61.5t15.5 -64.5t28.5 -71t15 -80q0 -41 -21.5 -74.5t-55 -59.5t-77.5 -43t-87 -23z" />
<glyph unicode="&#x462;" horiz-adv-x="1587" d="M176 803q0 41 5 101.5t12.5 125t16.5 128t19 110.5h453l18 86q-41 8 -81.5 22.5t-73.5 36.5l14 70h664l-15 -70q-37 -20 -92 -35.5t-108 -23.5l-19 -86h508q-10 -45 -25.5 -95.5t-32 -98.5t-33.5 -93t-32 -80h-86l-65 242h-260l-68 -320q39 6 95.5 9.5t96.5 3.5 q236 0 352.5 -80t116.5 -250q0 -242 -181 -377t-527 -135q-10 0 -44 1t-78 2t-89 2t-76 1h-315l14 78q41 20 89 36.5t93 22.5l213 1006h-190l-205 -340h-84zM750 135q8 -2 23 -4t31.5 -3t33 -1h26.5q68 0 132.5 20.5t113.5 65.5t79 117.5t30 175.5q0 96 -53.5 146t-182.5 50 q-39 0 -65.5 -3t-51.5 -7z" />
<glyph unicode="&#x463;" horiz-adv-x="1540" d="M57 0l183 879l-117 26v70q33 16 81 30.5t101 23.5t108.5 14.5t102.5 5.5l43 -25l-80 -299h8q31 55 72 113.5t92 104.5t111.5 76t126.5 30q25 0 51.5 -8.5t50 -29t37.5 -55t14 -86.5q0 -29 -9 -68.5t-22.5 -84.5t-27.5 -92t-25 -90h9q27 29 64.5 56t82.5 49t95.5 35 t103.5 13q37 0 71.5 -12t62.5 -37t45 -62.5t17 -91.5q0 -98 -46 -189t-126 -163t-188.5 -115t-230.5 -43q-127 0 -209 56.5t-82 177.5q0 59 20.5 146t46 176.5t46 166t20.5 115.5q0 72 -58 72q-25 0 -58.5 -27t-67 -68.5t-64.5 -95t-49 -108.5l-119 -586h-287zM903 201 q0 -47 29 -78t76 -31q43 0 81.5 27.5t68.5 74t47.5 103.5t17.5 119q0 53 -29 80.5t-66 27.5q-53 0 -100 -29.5t-76 -64.5q-18 -55 -33.5 -109.5t-15.5 -119.5z" />
<glyph unicode="&#x472;" horiz-adv-x="1538" d="M121 555q0 188 58.5 353t168 287t268 192.5t359.5 70.5q137 0 243.5 -40t180.5 -114.5t111.5 -181t37.5 -239.5q0 -168 -51 -331t-155.5 -291t-261 -207t-367.5 -79q-141 0 -252 44t-186.5 122t-114.5 184.5t-39 229.5zM459 516q0 -205 82 -306t213 -101q90 0 160.5 44 t123 117.5t88 171t54.5 203.5q-51 -51 -109.5 -73.5t-103.5 -22.5q-49 0 -90 21.5t-80 46t-77 46t-79 21.5q-35 0 -83 -10t-93 -45q-6 -60 -6 -113zM487 768q51 47 104.5 75.5t98.5 39.5q47 6 82 -2q41 -6 77 -26.5t69.5 -42t67.5 -39t73 -17.5q27 0 67.5 4t75.5 22 q4 39 6 76t2 72q0 182 -67.5 288.5t-210.5 106.5q-94 0 -169 -47t-130 -126t-91 -179.5t-55 -204.5z" />
<glyph unicode="&#x473;" horiz-adv-x="1124" d="M59 393q0 111 37 226.5t113 211t191.5 157t271.5 61.5q184 0 288.5 -100.5t104.5 -299.5q0 -135 -41 -257t-119 -215t-189.5 -147.5t-254.5 -54.5q-86 0 -160 26t-128 78t-84 130t-30 184zM350 313q0 -104 40 -162.5t110 -58.5q43 0 82 27.5t70.5 76t55 114t37.5 143.5 q-74 -59 -137 -60q-33 0 -55.5 13.5t-41.5 30t-37.5 29.5t-43.5 13q-31 0 -74 -30q-6 -72 -6 -136zM375 578q45 35 85 50t68 15q31 0 53.5 -13.5t42 -28.5t38 -27.5t43.5 -12.5t61 19q4 29 6 59.5t2 60.5q0 113 -35.5 172.5t-101.5 59.5q-55 0 -98 -30t-76 -79t-54.5 -113.5 t-33.5 -131.5z" />
<glyph unicode="&#x474;" horiz-adv-x="1548" d="M197 1356l16 78h682l-16 -78q-80 -41 -181 -60l99 -766l4 -192h4l78 194q76 162 156.5 300.5t159.5 248t147.5 188.5t119.5 122q43 37 84 51t76 16q25 -6 44.5 -29.5t34.5 -56.5t24.5 -70.5t11.5 -74.5v-31.5t-2 -30.5l-80 -71l-207 57q-74 -82 -166 -215t-187 -292 t-183.5 -333t-155.5 -336h-172l-250 1321q-37 8 -76 23.5t-65 36.5z" />
<glyph unicode="&#x475;" horiz-adv-x="1087" d="M16 895v70q25 14 60 28.5t77 26.5t86 20.5t87 8.5q55 0 77.5 -30t28.5 -75l78 -590l12 -137h4l56 145q31 72 66.5 153t76.5 160t87 150.5t99 126.5q47 49 100.5 72t92.5 23h13t11 -3q20 -12 37 -33.5t28 -48t17.5 -57.5t6.5 -59v-21.5t-3 -21.5l-75 -80l-181 51 q-59 -74 -119.5 -176t-115.5 -210.5t-105.5 -211t-87.5 -176.5l-231 -25l-152 904z" />
<glyph unicode="&#x48a;" horiz-adv-x="1634" d="M-49 0l14 78q45 20 91 36.5t91 22.5l246 1159q-41 8 -82 22.5t-73 37.5l16 78h616l-16 -78q-35 -18 -76 -33.5t-88 -26.5l-166 -778l-55 -160l129 170l676 719l10 49q-45 10 -83 24.5t-66 35.5l16 78h616l-16 -78q-39 -23 -86 -37t-94 -23l-246 -1163h223l19 -27 q-8 -39 -42 -99t-83 -124.5t-110.5 -124t-123.5 -92.5h-110l172 334h-422l14 78q31 14 75 31.5t91 27.5l166 776l57 162l-121 -164l-688 -729l-8 -45q45 -10 83 -26.5t67 -32.5l-17 -78h-616zM664 1747q16 16 44.5 29.5t62.5 23.5t68.5 16.5t63.5 6.5l70 -27v-123 q20 -10 39.5 -17t52.5 -7q43 0 89 9t86 29.5t71.5 49t48.5 69.5q23 -2 51.5 -14t38.5 -29q-14 -41 -48 -84t-89.5 -78.5t-133.5 -59t-180 -23.5q-86 0 -150.5 21.5t-105.5 55t-60 73.5t-19 79z" />
<glyph unicode="&#x48b;" horiz-adv-x="1218" d="M86 168q0 45 13.5 129t33 183.5t43 205t41.5 193.5l-121 26v70q33 12 82 24.5t102.5 22.5t108.5 17.5t100 9.5l46 -25q-33 -154 -67 -292t-62 -292q-10 -49 -21.5 -108.5t-11.5 -118.5q0 -37 19.5 -55.5t47.5 -18.5q51 0 101.5 40t92.5 96.5t73.5 116t46.5 97.5l106 535 h277l-162 -883h158v-82q-27 -27 -36.5 -57.5t-10.5 -64t2.5 -70.5t1.5 -74q0 -55 -28 -93t-71 -63.5t-97 -39t-110 -17.5l-12 60q59 16 76.5 59t15.5 96q0 41 9.5 72t28 58.5t46 55t64.5 58.5l-6 8q-31 -20 -87.5 -42.5t-109.5 -22.5q-66 0 -92.5 29.5t-26.5 62.5 q0 37 8.5 102.5t32.5 151.5h-8q-27 -49 -68 -110.5t-96 -116t-127 -90.5t-158 -36q-84 0 -136 50.5t-52 142.5zM422 1399q29 25 84 48t115 28l69 -27v-160q20 -10 40 -17t52 -7q76 0 146.5 47t105.5 135q25 -2 52.5 -13.5t39.5 -27.5q-12 -43 -41.5 -90t-78 -86t-116 -64.5 t-155.5 -25.5t-148.5 22.5t-97 59t-52 83t-15.5 95.5z" />
<glyph unicode="&#x48c;" horiz-adv-x="1390" d="M45 0l16 78q41 20 88.5 36.5t92.5 22.5l188 889h-268l26 131h271l28 139q-41 8 -80.5 22.5t-74.5 37.5l16 78h664l-17 -78q-37 -20 -92 -36.5t-108 -23.5l-29 -139h403l-26 -131h-406l-35 -168q39 8 95.5 11t97.5 3q123 0 210 -24.5t144.5 -67.5t84 -103.5t26.5 -131.5 q0 -143 -53.5 -246.5t-148.5 -171.5t-225 -100.5t-286 -32.5q-10 0 -44 1t-77 2t-88 2t-76 1h-317zM549 135q8 -2 23.5 -4t33 -3t33.5 -1h27q162 0 259 110.5t97 307.5q0 88 -50 141t-179 53q-39 0 -67 -3t-52 -9z" />
<glyph unicode="&#x48d;" horiz-adv-x="1009" d="M61 901l29 125h166q27 104 50.5 198.5t39.5 166.5l-123 26v70q31 14 80 27.5t105.5 22.5t116 15.5t108.5 8.5l41 -25q-10 -33 -24.5 -87t-31 -121.5t-34 -145.5t-35.5 -156h317l-28 -125h-318q-27 -117 -48 -215t-34 -151h8q53 59 141.5 106t194.5 47q35 0 71 -12 t63.5 -37t45 -62.5t17.5 -91.5q0 -98 -46 -189t-127 -163t-188.5 -115t-230.5 -43q-63 0 -117.5 14.5t-93.5 44t-60.5 78t-21.5 115.5q0 39 11.5 111t30 162t42 194.5t47.5 206.5h-164zM381 215q0 -57 24.5 -90t69.5 -33q43 0 83 27.5t68.5 74t46 103.5t17.5 119 q0 53 -27.5 80.5t-66.5 27.5q-51 0 -99 -29.5t-75 -64.5q-18 -55 -29.5 -108.5t-11.5 -106.5z" />
<glyph unicode="&#x48e;" horiz-adv-x="1298" d="M-49 0l14 78q90 43 182 59l246 1159q-45 8 -84 23.5t-71 36.5l16 78h258q82 0 189.5 8t195.5 8q106 0 197.5 -18.5t156 -58.5t101.5 -105.5t37 -159.5q0 -182 -102.5 -323.5t-295.5 -202.5l53 -131l-190 -72l-63 168q-27 -4 -56.5 -5t-62.5 -1q-23 0 -65 1t-66 5 l-86 -410q53 -8 103 -23.5t89 -35.5l-14 -78h-682zM569 682q18 -4 55.5 -6t59.5 -2q53 0 94 8l-80 207l113 43l76 -197q78 53 120 150.5t42 222.5q0 47 -11.5 86t-37 66.5t-69.5 42t-110 14.5q-41 0 -68.5 -4t-50.5 -8z" />
<glyph unicode="&#x48f;" horiz-adv-x="1171" d="M-35 -383l271 1260l-119 28v70q33 14 84 27.5t106 23.5t108.5 16.5t94.5 6.5l41 -25l-68 -283h9q33 63 74.5 120t90 98.5t104.5 65.5t120 24q104 0 172.5 -82t68.5 -230q0 -211 -73.5 -377.5t-196.5 -265.5l115 -155l-144 -99l-129 174q-90 -39 -180 -39q-59 0 -97 9.5 t-79 31.5l-62 -288q35 -6 73 -23.5t65 -36.5v-78h-422zM365 127q27 -18 52 -26.5t75 -8.5q68 0 135 58l-119 161l96 74l98 -137q57 92 91 215t34 246q0 86 -26.5 131t-77.5 45q-43 0 -83 -32t-75 -79t-63.5 -102.5t-46.5 -100.5z" />
<glyph unicode="&#x490;" horiz-adv-x="1091" d="M-49 0l14 78q98 47 182 59l246 1159q-41 8 -82 22.5t-73 37.5l16 78h799l190 307h84q-2 -49 -8 -109.5t-15.5 -121t-19.5 -116t-18 -94.5h-566l-245 -1163q47 -6 94 -22.5t88 -36.5l-14 -78h-672z" />
<glyph unicode="&#x491;" horiz-adv-x="909" d="M70 0l190 887q-35 6 -68.5 22.5t-56.5 34.5l2 80h629l170 283h84q-2 -45 -6 -101.5t-11.5 -113t-16.5 -108.5t-17 -89h-412l-192 -895h-295z" />
<glyph unicode="&#x492;" horiz-adv-x="1110" d="M-59 0l14 78q94 45 182 59l107 506h-168l30 143h166l111 510q-41 8 -81 22.5t-75 37.5l17 78h1048q-8 -49 -23.5 -113t-33.5 -131.5t-39.5 -132t-44.5 -115.5h-84l-51 358h-326l-110 -514h278l-31 -143h-276l-107 -506q47 -8 94.5 -24.5t88.5 -34.5l-15 -78h-671z" />
<glyph unicode="&#x493;" horiz-adv-x="1024" d="M37 401l29 125h149l76 353q-35 6 -72 26.5t-53 38.5v80h883q-16 -74 -49 -170t-72 -178h-84l-51 231h-213l-82 -381h288l-28 -125h-285l-86 -401h-283l84 401h-151z" />
<glyph unicode="&#x494;" horiz-adv-x="1337" d="M-49 0l14 78q47 23 92 37t90 22l246 1159q-41 8 -81 22.5t-74 37.5l16 78h1049q-10 -49 -24.5 -107.5t-32 -119t-37 -120t-40.5 -110.5h-84l-59 323h-326l-120 -567q66 35 153.5 63.5t204.5 28.5q346 0 346 -329q0 -145 -46 -274.5t-133 -225.5t-212 -152.5t-283 -58.5 l8 92q94 29 163 91.5t113 144.5t64.5 178t20.5 194q-2 111 -43 154t-131 43q-66 0 -129.5 -20.5t-120.5 -51.5l-100 -473q39 -10 73.5 -26.5t63.5 -32.5l-14 -78h-627z" />
<glyph unicode="&#x495;" horiz-adv-x="1081" d="M57 0l187 877q-35 6 -72 27.5t-49 39.5v80h891q-14 -74 -43 -170t-68 -178h-84l-61 231h-213l-115 -528q31 35 64.5 68.5t74.5 60.5t89.5 43t105.5 16q102 0 168.5 -55t66.5 -150q0 -82 -17 -172t-52 -176t-85 -163.5t-115.5 -139t-146.5 -100.5t-175 -45l-33 63 q45 12 88 54.5t81 101.5t68.5 130t53 140.5t35 133t12.5 108.5q0 49 -23.5 77.5t-68.5 28.5q-61 0 -116.5 -31.5t-90.5 -76.5l-62 -295h-295z" />
<glyph unicode="&#x496;" horiz-adv-x="2123" d="M-76 0l15 70l94 49q92 82 177 171t162 177t146.5 169t128.5 146l-244 514q-39 10 -70.5 26.5t-53.5 33.5l16 78h526l-16 -78q-29 -18 -72 -33.5t-86 -26.5l189 -505h143l108 505q-39 12 -68.5 27.5t-49.5 32.5l16 78h531l-17 -78q-47 -33 -131 -60l-113 -524l136 33 l397 491q-37 10 -69.5 25.5t-61.5 34.5l16 78h551l-16 -78q-33 -18 -75 -33.5t-85 -26.5l-487 -516q35 -66 75.5 -144.5t86.5 -163.5t97.5 -172t106.5 -167h168q-12 -53 -29.5 -115.5t-38 -125t-43 -122t-42.5 -104.5h-80l-31 334h-164l-74 70q-90 141 -141 292.5 t-102 311.5h-117l-111 -537q63 -20 117 -59l-16 -78h-551l14 78q35 18 73 33.5t83 25.5l116 555l-135 -33q-98 -150 -200.5 -302t-231.5 -287l-102 -70h-365z" />
<glyph unicode="&#x497;" horiz-adv-x="1814" d="M-35 43q-4 27 2 59.5t20.5 64.5t37 58.5t51.5 38.5l106 -141q43 14 83 61t71 121t48 170t17 213q0 100 -23.5 142t-70.5 42q-45 0 -84 -25.5t-67 -53.5l-39 41q55 80 143 141t211 61q47 0 84 -21.5t61.5 -58t38 -85t13.5 -99.5q0 -53 -4.5 -103.5t-12.5 -97.5h152l92 453 h260l-94 -453h149q29 100 75 186.5t107.5 148t135.5 96t160 34.5q63 0 99 -10t75 -35q2 -23 -3.5 -52.5t-19.5 -60t-35.5 -58t-52.5 -44.5l-111 129q-31 -12 -66.5 -52t-65 -109.5t-50 -171t-20.5 -236.5q0 -84 29.5 -134t93.5 -50q35 0 72.5 22.5t66.5 50.5l35 -47 q-6 -10 -12.5 -18t-14.5 -19q-23 -41 -30 -87t-6 -93t4 -90t3 -78q0 -55 -27.5 -93t-70.5 -63.5t-97 -39t-110 -17.5l-14 60q59 16 76.5 59t17.5 96q0 41 7 72t23.5 58.5t43 54t63.5 59.5l-4 6q-43 -27 -90 -42t-94 -15q-63 0 -107.5 21.5t-72 59t-40 88t-12.5 107.5 q0 53 3.5 102.5t11.5 98.5h-148l-94 -465h-258l94 465h-153q-29 -104 -75 -192.5t-107.5 -152t-136.5 -98t-161 -34.5q-63 0 -106 16t-76 39z" />
<glyph unicode="&#x498;" horiz-adv-x="1198" d="M12 76q8 33 23.5 77t34 91t40 94t44.5 86h84l22 -283q23 -14 71 -23t91 -9q174 0 272.5 100t98.5 268q0 186 -222 187l-161 -27q-4 37 5 85t29 87l64 -2q35 -2 82 0t82 6q100 43 163.5 132t63.5 194q0 92 -45 139t-154 47q-94 -4 -151 -39l-156 -260h-86q-2 72 1 160 t24 184q49 27 104.5 43.5t111.5 26.5t109.5 14t96.5 4q98 0 183 -16.5t147.5 -51t97.5 -92t35 -139.5q0 -53 -17.5 -110.5t-58.5 -111.5t-109.5 -99t-171.5 -72v-8q45 -4 91 -22.5t84 -52.5t61.5 -84t23.5 -120q0 -203 -138 -331t-380 -160q-14 -41 -34.5 -91.5t-45 -102.5 t-52.5 -105.5t-58 -98.5h-90q-12 98 -19.5 199.5t-1.5 194.5q-94 10 -169 35.5t-120 56.5z" />
<glyph unicode="&#x499;" horiz-adv-x="948" d="M-31 84q0 31 13.5 65.5t34 66.5t46 56.5t52.5 34.5l129 -205q16 -4 38.5 -7t39.5 -3q45 0 88 15.5t77.5 46t56 74.5t21.5 102q0 68 -36.5 106.5t-125.5 48.5l-133 -36q-16 27 -16 68.5t16 68.5h136q111 35 152.5 99.5t41.5 123.5q0 123 -139 123q-16 0 -40 -3t-44 -7 q-31 -33 -69 -89.5t-68 -97.5q-20 8 -40 32t-33 56.5t-17.5 67.5t8.5 65q39 29 140 61t249 32q154 0 250 -50.5t96 -154.5q0 -92 -64.5 -166t-210.5 -125q63 0 109.5 -17.5t76.5 -46t44 -65.5t14 -74q0 -70 -28.5 -131t-83 -110.5t-132 -82t-176.5 -44.5q-23 -31 -19.5 -61 t17 -62.5t28.5 -69.5t15 -78t-21.5 -74.5t-55 -59.5t-77.5 -43t-87 -23l-25 51q37 18 44 47t1 61.5t-18.5 68.5t-12.5 71q0 53 24 92t73 73q-55 0 -109.5 8.5t-101.5 22.5t-85 33.5t-63 44.5z" />
<glyph unicode="&#x49a;" horiz-adv-x="1492" d="M-49 0l14 78q45 23 91 37t91 22l246 1159q-47 6 -88 22.5t-67 37.5l16 78h620l-16 -78q-29 -16 -71 -32.5t-87 -27.5l-110 -520l121 29l432 491q-41 10 -77 25.5t-60 34.5l16 78h557l-16 -78q-37 -23 -85 -38t-89 -22l-496 -497q33 -68 79 -150t98 -169t108.5 -176 t109.5 -171h172q-12 -53 -29.5 -115.5t-38 -125t-43 -122t-42.5 -104.5h-80l-31 334h-176l-72 57q-37 61 -75.5 136t-75.5 156t-71 163t-60 160h-99l-112 -535q41 -10 74.5 -26.5t56.5 -32.5l-15 -78h-620z" />
<glyph unicode="&#x49b;" horiz-adv-x="1189" d="M57 0l172 879l-137 26v70q29 12 76 25.5t102.5 23.5t115.5 17.5t118 7.5l43 -23l-90 -446h65q37 27 75 63.5t73 73.5t62.5 72.5t39.5 60.5q2 14 3 38.5t0 50.5t-2 49.5t-3 35.5q35 12 89 19.5t110 7.5q53 0 101 -7.5t71 -19.5q-27 -66 -81 -131.5t-116.5 -122.5 t-122 -104.5t-96.5 -73.5q14 -39 45 -98.5t70 -124t78.5 -126t72.5 -102.5h137v-82q-27 -27 -36 -57.5t-10 -64t2 -70.5t1 -74q0 -55 -27.5 -93t-70.5 -63.5t-97 -39t-110 -17.5l-12 60q59 16 76.5 59t15.5 96q0 82 37 132t90 98l-6 6q-31 -20 -73 -34.5t-83 -14.5h-6 q-45 0 -83 23.5t-72 88.5q-57 98 -93 193.5t-67 181.5l-66 20l-94 -489h-287z" />
<glyph unicode="&#x49c;" horiz-adv-x="1607" d="M-49 0l14 78q45 20 91 35.5t91 23.5l246 1159q-47 6 -87 22.5t-68 37.5l16 78h616l-16 -78q-29 -16 -71 -32.5t-87 -27.5l-110 -522l100 10l64 303h133l-62 -292l68 10l428 491q-41 10 -78 26.5t-59 33.5l16 78h549l-16 -78q-41 -23 -88.5 -38t-86.5 -22l-481 -489 q31 -68 74 -152t94 -173t107.5 -180t109.5 -173l86 -59l-14 -70h-342l-72 57q-37 61 -76 137t-74.5 157t-68.5 164t-57 159h-45l-64 -297h-133l64 297h-99l-112 -537q41 -10 74.5 -25.5t56.5 -33.5l-15 -78h-616z" />
<glyph unicode="&#x49d;" horiz-adv-x="1302" d="M57 0l172 879l-137 26v70q29 12 76 25.5t102.5 23.5t115.5 17.5t118 7.5l43 -23l-90 -446h96l55 251h121l-55 -251h43q37 27 68.5 63.5t58 73.5t48 72.5t34.5 60.5q2 14 3 38.5t0 50.5t-2 49.5t-3 35.5q35 12 89 19.5t109 7.5q53 0 101.5 -7.5t70.5 -19.5 q-27 -66 -76 -131.5t-104 -123.5t-109.5 -105.5t-91.5 -73.5q14 -39 40 -98.5t57.5 -124t65.5 -125t67 -101.5h110v-69q-20 -16 -52 -32.5t-68.5 -29t-75.5 -20.5t-76 -8q-49 0 -89 23.5t-75 88.5q-29 49 -47 100.5t-31.5 101.5t-22.5 94t-18 79l-47 2l-51 -242h-121l53 252 l-94 8l-94 -489h-287z" />
<glyph unicode="&#x49e;" horiz-adv-x="1474" d="M-2 0l16 78q90 43 181 59l192 910h-229l28 129h230l24 120q-47 6 -87 22.5t-68 37.5l16 78h621l-17 -78q-29 -16 -69.5 -32.5t-87.5 -27.5l-25 -120h186l-28 -129h-187l-57 -275l137 29l422 495q-41 10 -77 26.5t-60 33.5l16 78h537l-17 -78q-41 -23 -88 -38t-86 -22 l-463 -481q31 -63 74 -147t92.5 -176.5t103.5 -186.5t107 -176l86 -59l-14 -70h-342l-72 57q-37 61 -72.5 136t-71.5 157t-68.5 164t-59.5 158h-105l-114 -535q43 -8 76.5 -25.5t56.5 -33.5l-17 -78h-620z" />
<glyph unicode="&#x49f;" horiz-adv-x="1103" d="M43 0l221 1124h-158l29 125h156l24 121l-137 27v69q29 12 76 25.5t102.5 24t115.5 17.5t118 7l43 -22l-55 -269h309l-29 -125h-307l-109 -544h66q35 27 71.5 63.5t69.5 73.5t58.5 72.5t40.5 60.5q2 14 3 38.5t0 50.5t-2 49.5t-4 35.5q35 12 88.5 19.5t108.5 7.5 t103.5 -7.5t70.5 -19.5q-27 -68 -79 -133.5t-112.5 -122.5t-118.5 -103.5t-95 -72.5q14 -39 43.5 -98.5t66.5 -124t78 -125t76 -103.5h110v-69q-20 -16 -52 -32.5t-68.5 -29t-75.5 -20.5t-76 -8q-49 0 -91 22.5t-77 87.5q-57 98 -91 194.5t-65 182.5l-67 20l-92 -489h-287z " />
<glyph unicode="&#x4a0;" horiz-adv-x="1691" d="M186 991q0 51 4.5 111.5t11.5 120t15 115t16 96.5h908l-17 -78q-29 -16 -70.5 -32.5t-86.5 -27.5l-111 -520l121 29l428 491q-41 8 -77 25.5t-58 34.5l16 78h541l-17 -78q-39 -23 -86 -38t-86 -22l-469 -481q35 -66 77 -150.5t90 -176t100.5 -184.5t105.5 -175l86 -59 l-14 -70h-342l-74 57q-37 61 -72.5 136t-69.5 156t-66 163t-58 160h-98l-113 -535q41 -10 74.5 -26.5t56.5 -32.5l-14 -78h-621l14 78q90 43 183 59l245 1163h-213l-174 -309h-86z" />
<glyph unicode="&#x4a1;" horiz-adv-x="1277" d="M23 645q0 39 2 88t6 101.5t9 101.5t13 88h631l-90 -444h65q37 27 75 63.5t73 73.5t62.5 72.5t39.5 60.5q2 14 3 38.5t0 50.5t-2 49.5t-3 35.5q35 12 89.5 19.5t109.5 7.5q53 0 101 -7.5t71 -19.5q-27 -66 -81 -131.5t-116.5 -122.5t-122 -104.5t-96.5 -73.5 q14 -39 45 -98.5t69 -124t78 -126t72 -102.5h111v-69q-20 -16 -52 -32.5t-69 -29t-76 -20.5t-75 -8q-49 0 -89 23.5t-75 88.5q-57 98 -93 193.5t-67 181.5l-66 20l-94 -489h-286l180 907h-127l-156 -262h-69z" />
<glyph unicode="&#x4a2;" horiz-adv-x="1601" d="M-49 0l14 78q41 20 89 35.5t93 23.5l246 1159q-47 8 -88 24.5t-67 35.5l16 78h620l-16 -78q-31 -23 -74 -37t-84 -23l-106 -495h543l106 495q-88 23 -133 60l16 78h621l-16 -78q-39 -23 -87.5 -38t-93.5 -22l-245 -1163h223q-12 -53 -29.5 -115.5t-38 -125t-43 -122 t-43.5 -104.5h-80l-30 334h-441l15 78q35 18 75.5 34.5t83.5 24.5l111 531h-543l-110 -531q70 -14 131 -59l-15 -78h-620z" />
<glyph unicode="&#x4a3;" horiz-adv-x="1228" d="M57 0l174 879l-118 26v70q29 14 78 27.5t106 23.5t113.5 16.5t99.5 6.5l41 -25l-92 -449h323l86 449h283l-176 -883h158v-82q-27 -27 -36.5 -57.5t-10.5 -64t2.5 -70.5t1.5 -74q0 -55 -28 -93t-71 -63.5t-97 -39t-110 -17.5l-12 60q59 16 76.5 59t15.5 96q0 41 9.5 72 t28 58.5t46 55t64.5 58.5l-6 8q-16 -10 -40 -21.5t-52.5 -21.5t-59 -16t-57.5 -6q-59 0 -86 28.5t-27 59.5q0 39 13.5 93t23.5 101l39 195h-324l-96 -459h-283z" />
<glyph unicode="&#x4a4;" horiz-adv-x="1949" d="M-49 0l14 78q41 18 89 34.5t93 24.5l246 1159q-47 8 -88 24.5t-67 35.5l16 78h620l-16 -78q-33 -20 -75 -36.5t-83 -23.5l-106 -495h543l106 495q-37 8 -75 24.5t-58 35.5l16 78h1026q-8 -49 -23 -113t-33.5 -131.5t-41 -132t-43.5 -115.5h-84l-51 358h-326l-245 -1163 q47 -8 94 -24.5t88 -34.5l-14 -78h-650l15 78q80 45 159 59l113 531h-545l-110 -531q76 -18 131 -59l-15 -78h-620z" />
<glyph unicode="&#x4a5;" horiz-adv-x="1529" d="M57 0l174 879l-118 26v70q29 14 78 27.5t106 23.5t113.5 16.5t99.5 6.5l41 -25l-92 -449h323l86 449h699q-10 -39 -26.5 -90t-36 -106.5t-40 -108.5t-39.5 -94h-86l-30 282h-183l-151 -766h145v-69q-20 -16 -56 -32.5t-79 -29t-89 -20.5t-89 -8q-68 0 -95.5 28.5 t-27.5 59.5q0 39 13.5 93t23.5 101l39 195h-324l-96 -459h-283z" />
<glyph unicode="&#x4a6;" horiz-adv-x="2162" d="M-51 -2l14 78q35 16 80 33.5t102 25.5l246 1159q-41 8 -81 22.5t-74 37.5l16 78h1470l-16 -78q-43 -25 -89 -38t-91 -22l-121 -563q66 35 154 63.5t204 28.5q346 1 346 -329q0 -145 -46 -274.5t-133 -225.5t-212 -152.5t-282 -58.5l8 92q94 29 162.5 91.5t112.5 144.5 t64.5 178t20.5 194q-2 111 -43 154t-131 43q-66 0 -129 -20.5t-121 -51.5l-100 -473q37 -10 65.5 -24.5t57.5 -34.5l-14 -78h-584l14 78q25 16 62 31.5t92 27.5l246 1163h-521l-245 -1163q37 -10 66.5 -24.5t58.5 -34.5l-15 -78h-614z" />
<glyph unicode="&#x4a7;" horiz-adv-x="1617" d="M57 0l176 879l-120 26l4 70q29 14 74 27.5t98 23.5t109.5 16.5t107.5 6.5l41 -25l-64 -299h11q37 68 86 127t104 102t116.5 69t125.5 26q86 0 135 -55.5t49 -147.5q0 -47 -10 -107.5t-25 -120.5l-57 -239q31 35 64.5 68.5t74.5 60.5t89 43t106 16q102 0 168.5 -55 t66.5 -150q0 -82 -17.5 -172t-52 -176t-85 -163.5t-116 -139t-146 -100.5t-175.5 -45l-32 63q45 12 88 54.5t80.5 101.5t68.5 130t53.5 140.5t34.5 133t12 108.5q0 49 -23.5 77.5t-68.5 28.5q-61 0 -116.5 -31.5t-90.5 -76.5l-61 -295h-278l124 584q14 63 25.5 112t11.5 103 q0 35 -15 60.5t-54 25.5t-81 -30t-82 -74t-74 -97t-54 -98l-123 -586h-283z" />
<glyph unicode="&#x4a8;" horiz-adv-x="1867" d="M121 565q0 227 71.5 396t184 280t247 164t261.5 53q82 -2 146.5 -28.5t90.5 -73.5l-28 -47q-23 10 -59 13t-52 3q-117 0 -213 -55.5t-164.5 -156.5t-107.5 -244.5t-39 -319.5q0 -119 30.5 -202t81 -136t116 -77.5t136.5 -24.5q39 0 80 5t74 19q-43 29 -85 77t-75 112.5 t-52.5 142.5t-19.5 166q0 170 54.5 303t145.5 224t208 139.5t240 48.5q102 0 190 -29t153.5 -84t103.5 -137t38 -191q0 -125 -43 -246.5t-120 -225t-183.5 -181.5t-235.5 -115q18 -14 52 -21t67 -7q61 0 122.5 18t115.5 63l28 -45q-37 -72 -125 -121t-210 -49q-94 0 -163 27 t-106 61q-31 -20 -71.5 -36.5t-88 -27.5t-97.5 -17.5t-97 -6.5q-117 0 -225.5 35t-192.5 107.5t-134 184.5t-50 263zM1053 621q0 -63 10 -126t25.5 -117t35 -99.5t37.5 -71.5q76 55 145.5 137t121 183.5t82 220t30.5 247.5q0 109 -45 163t-121 54q-72 0 -131 -48t-101 -130 t-65.5 -189t-23.5 -224z" />
<glyph unicode="&#x4a9;" horiz-adv-x="1458" d="M55 406q0 145 53.5 263.5t140.5 202.5t198.5 130.5t228.5 46.5q98 0 139 -32t31 -83l-15 -14q-43 12 -86 12q-68 -2 -139 -38t-128.5 -103.5t-94.5 -164t-37 -216.5q0 -59 17.5 -115.5t55.5 -102t96 -73t140 -27.5q27 0 65 3t54 9q-45 14 -87 43t-73.5 71t-50 95.5 t-18.5 116.5q0 115 50 207t128 156.5t172 98.5t184 34q156 0 240 -82t84 -228q0 -98 -41 -186t-101.5 -155.5t-132 -112.5t-133.5 -60q27 -10 65 -13t73 -1q47 2 90 17.5t77 41.5l13 -30q-12 -37 -36 -64.5t-52.5 -44t-61.5 -25t-63 -8.5q-70 0 -136.5 16.5t-97.5 43.5 q-29 -12 -65.5 -23.5t-76.5 -18.5t-81 -12.5t-74 -5.5q-127 0 -223 33t-160.5 91.5t-97.5 137t-33 169.5zM774 393q0 -168 107 -250q33 20 74.5 64.5t78.5 111t62.5 152.5t25.5 188q0 150 -114 150q-37 0 -79 -29.5t-76 -85t-56.5 -132.5t-22.5 -169z" />
<glyph unicode="&#x4aa;" horiz-adv-x="1335" d="M121 551q0 203 59.5 369.5t173 286.5t278.5 185.5t374 65.5q135 0 242.5 -19.5t174.5 -52.5q-6 -33 -20 -84t-32.5 -107t-39 -110.5t-39.5 -91.5h-86l-47 310q-18 10 -61 16t-86 6q-119 0 -218.5 -57.5t-172 -162t-112.5 -252.5t-40 -331q0 -115 33 -193.5t85 -127.5 t114.5 -70.5t121.5 -21.5t102.5 11t63.5 23l160 287h86q0 -33 -2 -79t-8 -98t-14.5 -103.5t-18.5 -92.5q-59 -33 -138 -50t-151 -23q-29 -84 -79 -192.5t-109 -201.5h-90q-12 98 -19.5 203t0.5 201q-133 25 -225 81t-149.5 133t-84 165t-26.5 178z" />
<glyph unicode="&#x4ab;" horiz-adv-x="911" d="M55 340q0 143 44 272t124 226.5t193.5 154t253.5 56.5q92 0 160.5 -19.5t91.5 -46.5q2 -23 -7.5 -56.5t-28 -67.5t-44 -63.5t-51.5 -41.5l-125 178q-55 0 -111.5 -38t-101.5 -108.5t-74 -170t-29 -224.5t51.5 -183t137.5 -58q41 0 78.5 13t70.5 31.5t60.5 40t48.5 39.5 l47 -51q-25 -41 -63 -81t-87 -73.5t-108.5 -57t-124.5 -31.5q-23 -31 -19 -61t18.5 -62.5t29 -68.5t14.5 -77t-21.5 -74.5t-55.5 -59.5t-78 -43t-87 -23l-24 51q37 18 44 47t0.5 61.5t-18.5 68.5t-12 71q0 55 23.5 94t76.5 73q-137 16 -217 110.5t-80 252.5z" />
<glyph unicode="&#x4ac;" horiz-adv-x="1355" d="M186 950q0 41 5.5 104.5t12.5 131t17 134t23 114.5h1304q-10 -49 -27.5 -115t-38 -133.5t-42 -130t-39.5 -105.5h-86l-55 350h-238l-248 -1167h68h168q-12 -53 -29.5 -115.5t-38 -125t-43 -122t-43.5 -104.5h-80l-31 334h-505l16 78q45 18 100.5 34.5t110.5 24.5 l248 1163h-238l-207 -350h-84z" />
<glyph unicode="&#x4ad;" horiz-adv-x="1753" d="M57 0l183 879l-117 26v70q33 16 81 30.5t101 23.5t108.5 14.5t102.5 5.5l43 -25l-80 -299h8q31 55 75 113.5t99.5 104.5t119 76t128.5 30q25 0 51.5 -8.5t50 -30t38 -58.5t14.5 -94q0 -29 -5 -65.5t-14 -67.5q35 63 82.5 122.5t101.5 103.5t114.5 71t125.5 27 q78 0 127.5 -49.5t49.5 -135.5q0 -66 -12.5 -125t-26.5 -125l-117 -473h160v-82q-27 -27 -36 -57.5t-10 -64t2 -70.5t1 -74q0 -55 -28 -93t-71 -63.5t-97 -39t-110 -17.5l-12 60q59 16 76.5 59t15.5 96q0 41 9.5 72t28 58.5t46 55t64.5 58.5l-6 8q-31 -20 -82 -42.5 t-109 -22.5q-72 0 -99.5 29.5t-27.5 66.5q0 59 29 164l88 372q10 47 22.5 101.5t12.5 85.5q0 39 -13.5 61.5t-48.5 22.5t-71.5 -25.5t-71.5 -67.5t-66.5 -95.5t-56.5 -108.5l-133 -588h-274l124 575q14 63 24.5 123t10.5 111q0 76 -57 76q-29 0 -65.5 -27t-73.5 -68.5 t-70 -95t-51 -108.5l-119 -586h-287z" />
<glyph unicode="&#x4ae;" horiz-adv-x="1423" d="M197 1356l16 78h666l-17 -78q-29 -16 -69.5 -32.5t-94.5 -27.5l179 -551l391 551q-43 10 -82 25.5t-68 34.5l17 78h510l-17 -78q-35 -20 -76 -35.5t-82 -24.5l-546 -696l-99 -463q39 -6 76 -22.5t68 -36.5l-17 -78h-630l16 78q39 18 86 34.5t94 24.5l98 461l-266 698 q-45 8 -85 23.5t-68 36.5z" />
<glyph unicode="&#x4af;" horiz-adv-x="985" d="M16 895v70q25 14 60 28.5t77 26.5t86 20.5t87 8.5q55 0 77.5 -30t28.5 -75l88 -655l12 -137h5l65 141q25 49 49.5 109.5t46 125t40 130t32.5 122.5q0 23 -5 58.5t-10 72.5t-11.5 69t-10.5 44q29 12 72 18.5t86 6.5q41 0 79 -6.5t60 -18.5q-31 -127 -76 -261t-103 -268.5 t-128 -260t-152 -234.5l-57 -272q35 -6 73 -23.5t64 -36.5v-78h-422l-26 27l90 383l-146 879z" />
<glyph unicode="&#x4b0;" horiz-adv-x="1423" d="M197 1356l16 78h666l-17 -78q-29 -16 -69.5 -32.5t-94.5 -27.5l179 -551l391 551q-43 10 -82 25.5t-68 34.5l17 78h510l-17 -78q-35 -20 -76 -35.5t-82 -24.5l-544 -694h284l-28 -137h-287l-70 -328q39 -6 76 -22.5t68 -36.5l-17 -78h-630l16 78q39 18 86 34.5t94 24.5 l70 328h-291l31 137h286l-264 694q-45 8 -85 23.5t-68 36.5z" />
<glyph unicode="&#x4b1;" horiz-adv-x="985" d="M16 895v70q25 14 60 28.5t77 26.5t86 20.5t87 8.5q55 0 77.5 -30t28.5 -75l88 -655l12 -137h5l65 141q25 49 49.5 109.5t46 125t40 130t32.5 122.5q0 23 -5 58.5t-10 72.5t-11.5 69t-10.5 44q29 12 72 18.5t86 6.5q41 0 79 -6.5t60 -18.5q-29 -109 -65.5 -224.5 t-82.5 -231t-102.5 -228.5t-120.5 -215h179l-29 -125h-238l-57 -272q35 -6 73 -23.5t64 -36.5v-78h-422l-26 27l90 383h-236l29 125h186l-125 754z" />
<glyph unicode="&#x4b2;" horiz-adv-x="1513" d="M-74 0l17 78q35 23 72.5 36t78.5 23l539 586l-258 573q-37 10 -68 24.5t-59 35.5l16 78h647l-16 -78q-29 -16 -68 -31.5t-92 -28.5l158 -409l338 409q-39 10 -77 25.5t-67 34.5l17 78h508l-17 -78q-33 -20 -70.5 -34.5t-80.5 -25.5l-481 -536l288 -627h217 q-12 -53 -29.5 -115.5t-38 -125t-43 -122t-42.5 -104.5h-80l-31 334h-487l14 78q37 18 76 33.5t84 25.5l-191 449l-372 -451q41 -10 74.5 -22.5t64.5 -34.5l-16 -78h-525z" />
<glyph unicode="&#x4b3;" horiz-adv-x="1046" d="M-55 14q18 61 70.5 135t117 145t131 133t113.5 99l-125 340l-141 17v69q29 16 68.5 32.5t82.5 29t87 20.5t79 8q53 0 81 -27.5t42 -72.5l92 -324q39 41 82 98.5t66 104.5q2 14 1 41t-4.5 56.5t-8.5 55t-7 38.5q76 27 166 26q41 0 80 -7t61 -19q-18 -61 -68 -135 t-111.5 -143.5t-124 -128t-101.5 -89.5l135 -358l149 -17v-82q-27 -27 -36 -57.5t-10 -64t2.5 -70.5t0.5 -74q0 -55 -27.5 -93t-70.5 -63.5t-97 -39t-110 -17.5l-12 60q59 16 76.5 59t15.5 96q0 41 9.5 72t27.5 58.5t46 55t65 58.5l-7 8q-16 -10 -37.5 -21.5t-47 -21.5 t-52 -16t-51.5 -6q-53 0 -84 26.5t-45 71.5l-102 334q-41 -47 -88.5 -102.5t-73.5 -106.5q-2 -16 -2 -43t2 -55.5t5 -54t7 -38.5q-35 -14 -81 -20t-91 -6t-84 6t-61 20z" />
<glyph unicode="&#x4b4;" horiz-adv-x="1949" d="M186 950q0 41 6.5 104.5t13.5 131t17 134t21 114.5h1183q-10 -49 -28.5 -115t-39 -133.5t-41 -130t-38.5 -105.5h-84l-43 361h-135l-248 -1178h567l246 1163q-61 20 -96 60l16 78h580l-17 -78q-45 -25 -90 -39t-90 -21l-248 -1163h242q-10 -53 -27.5 -115.5t-39 -126 t-44 -122t-43.5 -103.5h-79l-39 334h-1368l16 78q45 16 100.5 33.5t110.5 25.5l250 1174h-242l-205 -361h-84z" />
<glyph unicode="&#x4b5;" horiz-adv-x="1218" d="M86 168q0 45 13.5 129t33 183.5t43 205t41.5 193.5l-121 26v70q33 12 82 24.5t102.5 22.5t108.5 17.5t100 9.5l46 -25q-33 -154 -67 -292t-62 -292q-10 -49 -21.5 -108.5t-11.5 -118.5q0 -37 19.5 -55.5t47.5 -18.5q51 0 101.5 40t92.5 96.5t73.5 116t46.5 97.5l106 535 h277l-162 -883h158v-82q-27 -27 -36.5 -57.5t-10.5 -64t2.5 -70.5t1.5 -74q0 -55 -28 -93t-71 -63.5t-97 -39t-110 -17.5l-12 60q59 16 76.5 59t15.5 96q0 41 9.5 72t28 58.5t46 55t64.5 58.5l-6 8q-31 -20 -87.5 -42.5t-109.5 -22.5q-66 0 -92.5 29.5t-26.5 62.5 q0 37 8.5 102.5t32.5 151.5h-8q-27 -49 -68 -110.5t-96 -116t-127 -90.5t-158 -36q-84 0 -136 50.5t-52 142.5zM415 1268l31 143h602l-31 -143h-602z" />
<glyph unicode="&#x4b6;" horiz-adv-x="1443" d="M207 1356l16 78h580l-17 -78q-25 -16 -60.5 -32.5t-76.5 -27.5l-63 -299q-16 -76 -20.5 -136t11 -102t53.5 -64.5t103 -22.5q68 0 132.5 19.5t123.5 51.5l117 553q-70 20 -115 60l17 78h569l-16 -78q-29 -18 -68 -34.5t-80 -25.5l-246 -1163h234q-12 -53 -29.5 -115.5 t-38 -125t-43 -122t-43.5 -104.5h-80l-30 334h-494l14 78q53 23 104.5 39t98.5 20l103 484q-66 -35 -168.5 -64t-225.5 -29q-82 0 -148.5 25t-107.5 77t-54 134t11 197l72 335q-37 6 -74 22.5t-61 37.5z" />
<glyph unicode="&#x4b7;" horiz-adv-x="1130" d="M49 905v70q33 12 82 24.5t102.5 22.5t108.5 17.5t100 9.5l45 -25q-41 -166 -71.5 -288t-30.5 -189q0 -86 84 -86q57 0 118.5 38t96.5 89l88 436h277l-162 -883h157v-82q-25 -27 -35 -57.5t-11 -64t2.5 -70.5t3.5 -74q0 -55 -28 -93t-71 -63.5t-97 -39t-110 -17.5l-14 60 q59 16 76.5 59t17.5 96q0 41 9.5 72t28 58.5t46 55t64.5 58.5l-6 8q-31 -20 -87.5 -42.5t-111.5 -22.5q-68 0 -93.5 30.5t-25.5 65.5q0 41 12 100l62 318h-8q-61 -82 -161.5 -140.5t-215.5 -58.5q-86 0 -139.5 46t-53.5 136q0 41 5.5 81t14.5 86t22.5 102.5t29.5 130.5z" />
<glyph unicode="&#x4b8;" horiz-adv-x="1486" d="M207 1356l16 78h590l-16 -78q-27 -16 -67 -32.5t-81 -27.5l-65 -311q-16 -70 -19.5 -127t12 -98t53.5 -64.5t105 -23.5l64 301h133l-64 -293q59 10 113.5 26.5t95.5 36.5l117 553q-66 18 -115 60l17 78h569l-16 -78q-29 -18 -68 -33.5t-80 -26.5l-246 -1159 q39 -10 70 -26.5t53 -32.5l-16 -78h-631l17 78q51 23 102 38t98 21l103 484q-35 -16 -89.5 -34t-119.5 -32l-60 -283h-133l58 263l-140 -7q-133 0 -220 68t-93 213q-2 66 16 152l72 335q-37 6 -71.5 22.5t-63.5 37.5z" />
<glyph unicode="&#x4b9;" horiz-adv-x="1232" d="M49 905v70q33 12 82 24.5t102.5 22.5t108.5 17.5t100 9.5l45 -25q-41 -166 -71.5 -288t-30.5 -189q0 -86 84 -86h30.5t30.5 2l64 297h121l-58 -271q47 16 84 43t66 56l88 436h276l-161 -883h143v-69q-20 -16 -54 -32.5t-74 -29t-84 -20.5t-87 -8q-74 0 -101.5 30.5 t-27.5 65.5q0 41 12 100l62 318h-8q-27 -33 -67 -65t-93 -60l-45 -213h-121l35 166q-47 -12 -100.5 -19.5t-108.5 -7.5q-86 0 -139.5 46t-53.5 136q0 41 5.5 81t14.5 86t22.5 102.5t29.5 130.5z" />
<glyph unicode="&#x4ba;" horiz-adv-x="1398" d="M-49 0l16 78q29 18 68 34.5t80 25.5l246 1159q-37 8 -69 25.5t-52 33.5l14 78h631l-14 -78q-53 -23 -104.5 -39t-98.5 -20l-103 -484q66 35 168.5 64t225.5 29q82 0 148.5 -25t107.5 -77t54 -134t-11 -197l-72 -335q37 -6 74 -22.5t61 -37.5l-16 -78h-580l17 78 q25 16 60.5 32.5t76.5 27.5l63 299q16 76 20.5 136t-11 102t-53.5 64.5t-103 22.5q-68 0 -132.5 -19.5t-123.5 -51.5l-117 -553q70 -20 115 -60l-17 -78h-569z" />
<glyph unicode="&#x4bb;" horiz-adv-x="1189" d="M43 0l276 1370l-135 27v65q31 12 79 25.5t104.5 25t116 19.5t112.5 8l43 -18l-172 -797h10q39 66 87 125t101.5 103t113 70t120.5 26q94 0 145.5 -54.5t51.5 -134.5q0 -55 -10.5 -118.5t-24.5 -123.5l-117 -477h152v-69q-41 -33 -120 -61.5t-179 -28.5q-68 0 -98.5 27.5 t-30.5 66.5q0 37 9 75.5t19 90.5l76 342q14 63 25.5 115.5t11.5 99.5q0 37 -15.5 61.5t-45.5 24.5q-47 0 -94.5 -34t-88.5 -81t-72.5 -98t-46.5 -86l-120 -586h-283z" />
<glyph unicode="&#x4bc;" horiz-adv-x="1734" d="M98 954q0 88 39 161t92 112q47 -4 104.5 -32t96.5 -67l4 -59l-182 -145q10 -53 59 -82t115 -31q43 178 120 301t179 200t227 111.5t260 34.5q121 0 222.5 -28.5t174 -85t112.5 -139.5t40 -191q0 -123 -26.5 -213t-40.5 -123h-957q-25 -207 38 -328t176.5 -167t260 -20.5 t289.5 111.5l19 -67q-53 -59 -121 -102.5t-139.5 -72t-143.5 -43t-131 -14.5q-145 0 -262 44t-195.5 132.5t-111.5 219.5t-10 307q-61 2 -117 18.5t-97.5 48t-67.5 84t-26 125.5zM762 811h629q18 66 26 140.5t8 125.5q0 111 -52 179.5t-175 68.5q-162 0 -275.5 -130 t-160.5 -384z" />
<glyph unicode="&#x4bd;" horiz-adv-x="1187" d="M41 690q-2 27 0 58q4 72 46 135t95 104q25 2 50.5 -9t49 -29.5t40 -42t20.5 -46.5l-2 -35l-176 -127q4 -49 46 -72.5t103 -25.5q31 96 85.5 178t128 142.5t164.5 94.5t194 34q123 0 202.5 -56.5t79.5 -154.5q0 -139 -137 -229.5t-448 -112.5q-4 -29 -7.5 -58.5 t-3.5 -56.5q0 -117 59.5 -179.5t151.5 -62.5q39 0 78 12.5t74 33t64.5 44t52.5 45.5l49 -51q-23 -41 -66 -85t-100 -79.5t-127 -59.5t-145 -24q-182 0 -284 99.5t-102 281.5q0 35 3.5 69t7.5 69q-123 10 -180.5 63t-65.5 133zM596 600q154 4 247 67.5t93 166.5 q0 41 -22.5 69.5t-75.5 28.5q-68 0 -132.5 -76t-109.5 -256z" />
<glyph unicode="&#x4be;" horiz-adv-x="1734" d="M98 954q0 88 39 161t92 112q47 -4 104.5 -32t96.5 -67l4 -59l-182 -145q10 -53 59 -82t115 -31q43 178 120 301t179 200t227 111.5t260 34.5q121 0 222.5 -28.5t174 -85t112.5 -139.5t40 -191q0 -123 -26.5 -213t-40.5 -123h-957q-25 -207 38 -328t176.5 -167t260 -20.5 t289.5 111.5l19 -67q-72 -82 -171.5 -134.5t-199.5 -74.5h2q-14 -43 -34.5 -94t-46.5 -104.5t-54.5 -107.5t-59.5 -102h-90q-12 98 -19 202t1 196h2q-115 16 -206 68.5t-150.5 138.5t-84 206.5t-3.5 276.5q-61 2 -117 18.5t-97.5 48t-67.5 84t-26 125.5zM762 811h629 q14 51 23 112.5t11 123.5q4 55 -6 90q-16 90 -67.5 139t-153.5 49q-162 0 -275.5 -130t-160.5 -384z" />
<glyph unicode="&#x4bf;" horiz-adv-x="1187" d="M41 690q-2 27 0 58q4 72 46 135t95 104q25 2 50.5 -9t49 -29.5t40 -42t20.5 -46.5l-2 -35l-176 -127q4 -49 46 -72.5t103 -25.5q31 96 85.5 178t128 142.5t164.5 94.5t194 34q123 0 202.5 -56.5t79.5 -154.5q0 -139 -137 -229.5t-448 -112.5q-4 -29 -7.5 -58.5 t-3.5 -56.5q0 -117 59.5 -179.5t151.5 -62.5q39 0 78 12.5t74 33t64.5 44t52.5 45.5l49 -51q-20 -39 -59.5 -80t-90.5 -75.5t-113.5 -59t-129.5 -31.5q-23 -29 -19 -59.5t18.5 -62t29 -67.5t14.5 -77t-21.5 -74.5t-56.5 -59.5t-78 -43t-86 -23l-25 51q37 18 43 47t0 61.5 t-17 68.5t-11 71q-2 55 22.5 95t77.5 75q-154 16 -238 113t-84 263q0 35 3.5 69t7.5 69q-123 10 -180.5 63t-65.5 133zM596 600q154 4 247 67.5t93 166.5q0 41 -22.5 69.5t-75.5 28.5q-68 0 -132.5 -76t-109.5 -256z" />
<glyph unicode="&#x4c0;" horiz-adv-x="755" d="M-29 0l15 78q96 45 180 59l246 1159q-41 6 -81 21.5t-73 38.5l16 78h639l-16 -78q-41 -23 -89 -38t-89 -22l-246 -1159q39 -8 80 -22.5t72 -36.5l-15 -78h-639z" />
<glyph unicode="&#x4c3;" horiz-adv-x="1443" d="M-49 0l14 78q45 20 91 35.5t91 23.5l246 1159q-47 6 -87 22.5t-68 37.5l16 78h620l-16 -78q-29 -16 -71 -32.5t-87 -27.5l-110 -520l123 29l420 491q-41 10 -72 26.5t-55 33.5l16 78h537l-17 -78q-37 -23 -86 -38t-88 -22l-463 -487q57 -37 124 -103.5t122 -154.5 t92 -195.5t37 -224.5q-2 -121 -46 -223.5t-129 -177t-211 -117.5t-290 -45l6 92q82 12 147.5 49t110.5 92.5t70 127t25 153.5q0 111 -28 201t-69 163.5t-93 129t-101 96.5h-105l-112 -535q41 -8 74.5 -24.5t56.5 -34.5l-15 -78h-620z" />
<glyph unicode="&#x4c4;" horiz-adv-x="1140" d="M57 0l172 879l-137 26v70q29 12 76 25.5t102.5 23.5t115.5 17.5t118 7.5l43 -23l-90 -446h65q37 27 75 63.5t73 73.5t62.5 72.5t39.5 60.5q2 14 3 38.5t0 50.5t-2 49.5t-3 35.5q35 12 89 19.5t110 7.5q53 0 101 -7.5t71 -19.5q-27 -66 -82 -132.5t-120 -124.5 t-127 -106.5t-103 -78.5q47 -27 103 -79t105.5 -120t82 -147.5t32.5 -161.5q0 -121 -45 -215.5t-126 -159t-192.5 -99t-244.5 -34.5l10 94q63 16 116.5 54t91.5 88.5t59.5 111.5t21.5 123q0 68 -21.5 134.5t-53.5 123.5t-68.5 104t-67.5 78l-74 12l-94 -489h-287z" />
<glyph unicode="&#x4c5;" horiz-adv-x="1470" d="M-53 176q-4 45 0 84l71 78l234 -59q39 57 82 138t88 199.5t91 280.5t93 379q-61 10 -113.5 32.5t-86.5 47.5l16 78h1182l-17 -78q-35 -18 -82 -34.5t-98 -25.5l-246 -1163h209l19 -27q-8 -39 -42 -99t-83.5 -124.5t-110.5 -124t-123 -92.5h-110l172 334h-422l14 78 q41 18 84 33.5t86 25.5l246 1163h-334q-74 -311 -139.5 -519t-126 -343t-117.5 -215t-113 -137q-51 -53 -116.5 -82t-120.5 -29q-25 10 -42.5 42t-28.5 73t-15 86z" />
<glyph unicode="&#x4c6;" horiz-adv-x="1212" d="M-45 125q4 37 17.5 72.5t35.5 60.5l180 -57q39 49 77 130t72 175t59.5 191.5t39.5 176.5q-41 10 -85 30t-66 40v80h809l-168 -883h229l27 -37q-31 -104 -89.5 -194t-134 -157.5t-166 -111.5t-184.5 -59l-24 51q113 49 195.5 151.5t123.5 223.5q-16 -10 -54 -18t-79 -8 h-18q-59 0 -88 28.5t-29 63.5q0 45 9 96t20 98l127 639h-203q-27 -117 -57.5 -235.5t-68.5 -226t-84 -199.5t-102 -158q-57 -68 -125.5 -95.5t-164.5 -17.5q-20 20 -28.5 61.5t-2.5 88.5z" />
<glyph unicode="&#x4c7;" horiz-adv-x="1579" d="M-49 0l14 78q41 18 89 34.5t93 24.5l246 1159q-47 8 -88 24.5t-67 35.5l16 78h620l-16 -78q-35 -20 -76 -36.5t-82 -23.5l-106 -495h543l106 495q-43 8 -75.5 24.5t-57.5 35.5l16 78h621l-16 -78q-39 -23 -87.5 -37t-93.5 -23l-274 -1296q-31 -139 -81 -224t-124 -131 t-172 -61.5t-223 -15.5l6 92q59 12 104 32.5t79 58.5t58.5 97.5t45.5 151.5l139 668h-543l-110 -531q70 -14 131 -59l-15 -78h-620z" />
<glyph unicode="&#x4c8;" horiz-adv-x="1206" d="M57 0l174 879l-118 26v70q29 14 78 27.5t106 23.5t113.5 16.5t99.5 6.5l41 -25l-92 -449h323l86 449h283l-193 -1006q-23 -115 -80 -196.5t-127.5 -135t-145.5 -83t-132 -37.5l-35 63q25 12 58.5 41t66.5 74t61.5 108.5t47.5 147.5l88 459h-324l-96 -459h-283z" />
<glyph unicode="&#x4c9;" horiz-adv-x="1613" d="M-49 0l14 78q41 20 89 35.5t93 23.5l246 1159q-47 8 -88 24.5t-67 35.5l16 78h620l-16 -78q-31 -23 -74 -37t-84 -23l-106 -495h543l106 495q-88 23 -133 60l16 78h621l-16 -78q-39 -23 -87.5 -38t-93.5 -22l-245 -1163h219l18 -27q-8 -39 -42 -99t-83 -124.5 t-110.5 -124t-122.5 -92.5h-111l172 334h-422l15 78q35 18 75.5 34.5t83.5 24.5l111 531h-543l-110 -531q70 -14 131 -59l-15 -78h-620z" />
<glyph unicode="&#x4ca;" horiz-adv-x="1261" d="M57 0l174 879l-118 26v70q29 14 78 27.5t106 23.5t113.5 16.5t99.5 6.5l41 -25l-92 -449h323l86 449h283l-176 -883h229l27 -37q-31 -104 -89.5 -194t-134 -157.5t-165.5 -111.5t-185 -59l-24 51q113 49 195.5 151.5t123.5 223.5q-16 -10 -54 -18t-79 -8h-12 q-68 0 -95.5 28.5t-27.5 59.5q0 39 13.5 93t23.5 101l39 195h-324l-96 -459h-283z" />
<glyph unicode="&#x4cb;" horiz-adv-x="1398" d="M207 1356l16 78h580l-17 -78q-25 -16 -60.5 -32.5t-76.5 -27.5l-63 -299q-16 -76 -20.5 -136t11 -102t53.5 -64.5t103 -22.5q68 0 132.5 19.5t123.5 51.5l117 553q-70 20 -115 60l17 78h569l-16 -78q-29 -18 -68 -34.5t-80 -25.5l-246 -1159q37 -8 69 -25.5t52 -33.5 l-14 -78h-443l-174 -334h-79q0 47 3 105.5t9 122t14 125t19 114.5h235h2l103 488q-66 -35 -168.5 -64t-225.5 -29q-82 0 -148.5 25t-107.5 77t-54 134t11 197l72 335q-37 6 -74 22.5t-61 37.5z" />
<glyph unicode="&#x4cc;" horiz-adv-x="1110" d="M49 905v70q33 12 82 24.5t102.5 22.5t108.5 17.5t100 9.5l45 -25q-41 -166 -71.5 -288t-30.5 -189q0 -86 84 -86q57 0 118.5 38t96.5 89l90 436h279l-187 -883h144v-69q-20 -16 -54 -32.5t-74 -29t-84 -20.5t-87 -8q-74 0 -101.5 30.5t-27.5 65.5q0 41 12 100l80 318h-8 q-61 -82 -160.5 -140.5t-214.5 -58.5q-86 0 -139.5 46t-53.5 136q0 41 5.5 81t14.5 86t22.5 102.5t29.5 130.5zM373 -438q37 18 44 47t1 61.5t-18.5 68.5t-12.5 71q0 72 41 116.5t129 89.5l47 -28q-27 -31 -24.5 -61.5t15.5 -64.5t28.5 -71t15.5 -80q0 -41 -21.5 -74.5 t-55.5 -59.5t-78 -43t-87 -23z" />
<glyph unicode="&#x4cd;" horiz-adv-x="1941" d="M-49 0l14 78q35 18 88 39.5t101 29.5l241 1149q-41 8 -83 22.5t-72 37.5l16 78h555l129 -834l16 -197h2l97 201l504 830h516l-17 -78q-37 -23 -81 -37t-87 -23l-245 -1163h213l20 -27q-8 -39 -42 -99t-84 -124.5t-110.5 -124t-121.5 -92.5h-111l172 334h-424l17 78 q45 20 88 34.5t90 24.5l180 856l61 240h-16l-113 -219l-612 -1014h-92l-182 1006l-25 239h-18l-54 -260l-176 -840q37 -8 81 -26.5t79 -40.5l-16 -78h-498z" />
<glyph unicode="&#x4ce;" horiz-adv-x="1648" d="M-45 135q4 33 15.5 62.5t31.5 52.5l166 -49q37 47 70.5 122.5t63.5 168t55.5 193.5t45.5 200q-35 12 -72.5 30.5t-54.5 38.5v70h461l74 -535l8 -145h6l82 152l332 528h297l-174 -883h229l27 -37q-31 -104 -89.5 -194t-134 -157.5t-165.5 -111.5t-185 -59l-24 51 q113 49 195.5 151.5t123.5 223.5q-16 -10 -54 -18t-79 -8h-4q-63 0 -94 25.5t-31 58.5q0 49 13.5 111.5t23.5 109.5l82 350q4 18 10 41.5t14.5 49.5t15.5 50.5t13 40.5h-6l-504 -819h-129l-69 676l-11 147h-8q-23 -92 -47 -195.5t-57 -204.5t-75 -192.5t-97 -156.5 q-49 -59 -124 -83t-140 -16q-18 23 -25.5 68t-1.5 92z" />
<glyph unicode="&#x4cf;" horiz-adv-x="612" d="M49 27l264 1343l-139 27v69q29 12 78 24.5t106.5 24t118 18.5t111.5 7l41 -22l-269 -1383q35 -6 73 -22.5t65 -34.5v-78h-422z" />
<glyph unicode="&#x4d0;" horiz-adv-x="1482" d="M-90 0l14 78q37 20 78 35.5t82 23.5l811 1321h149l232 -1321q39 -8 77 -24.5t64 -34.5l-16 -78h-631l14 78q43 20 91.5 35.5t91.5 23.5l-49 326h-453l-195 -326q43 -6 86 -21.5t78 -37.5l-14 -78h-510zM535 596h366l-57 391v176h-4l-78 -180zM649 1747q16 16 45 29.5 t62.5 23.5t68.5 16.5t64 6.5l69 -27v-123q20 -10 40 -17t52 -7q43 0 88.5 9t85 29.5t71.5 49t48 69.5q25 -2 52.5 -14t39.5 -29q-16 -41 -50 -84t-89 -78.5t-132 -59t-179 -23.5q-86 0 -150.5 21.5t-105.5 55t-60.5 73.5t-19.5 79z" />
<glyph unicode="&#x4d1;" horiz-adv-x="1153" d="M57 285q0 160 44 298t125 241.5t196 161.5t256 58q53 0 91 -12t81 -31q53 20 114.5 30.5t147.5 10.5l-172 -901h143v-69q-20 -16 -54 -32.5t-74 -29t-82 -20.5t-78 -8q-72 0 -102.5 30.5t-30.5 63.5q0 37 10 97t30 153h-8q-27 -66 -66.5 -128.5t-91 -111.5t-113 -80 t-132.5 -31q-106 0 -170 78t-64 232zM348 319q0 -94 22.5 -137t69.5 -43q39 0 81 35t80 87t69.5 114.5t54.5 116.5l76 405q-25 16 -46.5 23.5t-56.5 7.5q-82 0 -147.5 -54.5t-110.5 -141.5t-68.5 -195.5t-23.5 -217.5zM414 1399q29 25 85 48t113 28l70 -27v-160 q20 -10 39.5 -17t52.5 -7q76 0 147.5 47t106.5 135q23 -2 51.5 -13.5t38.5 -27.5q-12 -43 -42 -90t-78 -86t-115.5 -64.5t-155.5 -25.5t-148.5 22.5t-97.5 59t-52 83t-15 95.5z" />
<glyph unicode="&#x4d2;" horiz-adv-x="1482" d="M-90 0l14 78q37 20 78 35.5t82 23.5l811 1321h149l232 -1321q39 -8 77 -24.5t64 -34.5l-16 -78h-631l14 78q43 20 91.5 35.5t91.5 23.5l-49 326h-453l-195 -326q43 -6 86 -21.5t78 -37.5l-14 -78h-510zM535 596h366l-57 391v176h-4l-78 -180zM559 1624q0 66 47.5 98.5 t118.5 32.5q72 0 119 -32.5t47 -98.5q0 -57 -47 -89t-119 -32t-119 32t-47 89zM1061 1624q0 66 48 98.5t120 32.5t119 -32.5t47 -98.5q0 -57 -47 -89t-119 -32t-120 32t-48 89z" />
<glyph unicode="&#x4d3;" horiz-adv-x="1153" d="M57 285q0 160 44 298t125 241.5t196 161.5t256 58q53 0 91 -12t81 -31q53 20 114.5 30.5t147.5 10.5l-172 -901h143v-69q-20 -16 -54 -32.5t-74 -29t-82 -20.5t-78 -8q-72 0 -102.5 30.5t-30.5 63.5q0 37 10 97t30 153h-8q-27 -66 -66.5 -128.5t-91 -111.5t-113 -80 t-132.5 -31q-106 0 -170 78t-64 232zM348 319q0 -94 22.5 -137t69.5 -43q39 0 81 35t80 87t69.5 114.5t54.5 116.5l76 405q-25 16 -46.5 23.5t-56.5 7.5q-82 0 -147.5 -54.5t-110.5 -141.5t-68.5 -195.5t-23.5 -217.5zM370 1350q0 66 41 104.5t109 38.5q66 0 107.5 -39 t41.5 -104q0 -61 -42 -100.5t-107 -39.5q-68 0 -109 39.5t-41 100.5zM819 1350q0 66 41 104.5t106 38.5q68 0 110 -39t42 -104q0 -61 -42 -100.5t-110 -39.5q-66 0 -106.5 39.5t-40.5 100.5z" />
<glyph unicode="&#x4d4;" horiz-adv-x="1951" d="M-90 0l14 78q37 20 78 35.5t80 23.5l958 1170q-29 10 -57.5 21t-50.5 28l16 78h1102q-20 -92 -52 -190.5t-67 -184.5h-86l-43 241h-383l-106 -501h252l123 157h63q-4 -49 -13 -107t-21.5 -117.5t-28 -118t-31.5 -109.5h-66l-55 162h-252l-113 -533h400l164 260h86 q0 -39 -3 -88t-8.5 -101t-13.5 -105.5t-18 -98.5h-1098l14 78q37 16 81 32.5t91 26.5l78 363h-373l-282 -363q78 -18 143 -59l-14 -78h-508zM674 633h301l131 584h-4l-111 -185z" />
<glyph unicode="&#x4d5;" horiz-adv-x="1599" d="M39 238q0 184 170 271t493 64q53 174 39 266.5t-116 92.5q-55 0 -111 -21l-117 -215h-90q-27 45 -49 108.5t-22 129.5q90 53 210.5 84t241.5 31q117 0 185.5 -31t84.5 -74q59 47 140.5 76t181.5 29q123 0 203 -56.5t80 -154.5q0 -139 -137.5 -229.5t-448.5 -112.5 q-4 -29 -7 -58.5t-3 -56.5q0 -117 59 -179.5t152 -62.5q39 0 77.5 12.5t73.5 33t64.5 44t52.5 45.5l49 -51q-23 -41 -66 -85t-100 -79.5t-126.5 -59.5t-145.5 -24q-279 0 -361 226h-2q-49 -96 -145 -161t-217 -65q-137 0 -215 74t-78 189zM338 276q0 -70 36 -103.5t89 -33.5 q37 0 69.5 16.5t60.5 42t48.5 58.5t32.5 66q-2 39 0 81.5t6 77.5q-166 20 -254 -38t-88 -167zM991 600q154 4 247 67.5t93 166.5q0 41 -22.5 69.5t-75.5 28.5q-68 0 -132.5 -76t-109.5 -256z" />
<glyph unicode="&#x4d6;" horiz-adv-x="1232" d="M-49 0l14 78q41 18 87 34.5t95 24.5l246 1159q-41 8 -82 23.5t-73 36.5l16 78h1077q-20 -92 -51 -190.5t-68 -184.5h-86l-43 241h-383l-106 -501h252l123 157h63q-10 -100 -35.5 -223t-58.5 -229h-66l-55 162h-252l-110 -533h397l164 260h86q0 -37 -3 -86t-8.5 -102 t-13.5 -106.5t-18 -98.5h-1108zM518 1747q16 16 45 29.5t62.5 23.5t68.5 16.5t64 6.5l69 -27v-123q20 -10 40 -17t52 -7q43 0 88.5 9t85 29.5t71.5 49t48 69.5q25 -2 52.5 -14t39.5 -29q-16 -41 -50 -84t-89 -78.5t-132 -59t-179 -23.5q-86 0 -150.5 21.5t-105.5 55 t-60.5 73.5t-19.5 79z" />
<glyph unicode="&#x4d7;" horiz-adv-x="966" d="M55 356q0 141 45 266.5t126 220.5t192.5 150.5t245.5 55.5q123 0 202.5 -56.5t79.5 -154.5q0 -139 -138 -229.5t-448 -112.5q-6 -29 -9 -58.5t-3 -56.5q0 -117 59.5 -179.5t151.5 -62.5q39 0 78 12.5t75 33t65.5 44t51.5 45.5l50 -51q-23 -41 -66 -85t-100.5 -79.5 t-127 -59.5t-145.5 -24q-182 0 -283.5 99.5t-101.5 281.5zM332 1399q29 25 85 48t113 28l70 -27v-160q20 -10 39.5 -17t52.5 -7q76 0 147.5 47t106.5 135q23 -2 51.5 -13.5t38.5 -27.5q-12 -43 -42 -90t-78 -86t-115.5 -64.5t-155.5 -25.5t-148.5 22.5t-97.5 59t-52 83 t-15 95.5zM375 600q152 4 245 67.5t93 166.5q0 41 -22 69.5t-75 28.5q-70 0 -134 -76t-107 -256z" />
<glyph unicode="&#x4d8;" horiz-adv-x="1474" d="M121 487q0 31 3 67t9 75t14.5 75.5t18.5 69.5h983q43 291 -33 421t-282 130q-23 0 -50.5 -2t-55.5 -6t-52.5 -9t-38.5 -14l-182 -315h-84q-2 47 1 101.5t8 107.5t12 99t16 77q45 20 103 37.5t121.5 30t129 19.5t127.5 7q174 0 288.5 -43t183.5 -114.5t96.5 -166 t27.5 -198.5q0 -178 -43 -351t-140.5 -308.5t-254 -218.5t-383.5 -83q-119 0 -218.5 30t-172 92.5t-112.5 158.5t-40 231zM461 418q0 -174 62.5 -241.5t185.5 -67.5q92 0 161.5 44t120.5 117.5t84 170t51 200.5h-632q-6 -20 -12.5 -50t-10.5 -60.5t-7 -60.5t-3 -52z" />
<glyph unicode="&#x4d9;" horiz-adv-x="1036" d="M49 244q0 63 34 131.5t108.5 121t194.5 80t292 13.5q4 10 4 26.5v26.5q0 115 -47 178.5t-143 63.5q-47 0 -89.5 -15.5t-77 -40t-64.5 -53t-52 -55.5l-55 47q18 43 58 93t97.5 91t132 69t164.5 28q168 0 269.5 -96.5t101.5 -284.5q0 -141 -42 -266.5t-120 -220.5 t-188.5 -150.5t-247.5 -55.5q-68 0 -128.5 15.5t-105.5 48.5t-70.5 84t-25.5 121zM317 215q0 -123 109 -123q68 0 134.5 95.5t103.5 297.5q-88 14 -154 -2t-109 -55t-63.5 -94t-20.5 -119z" />
<glyph unicode="&#x4da;" horiz-adv-x="1474" d="M121 487q0 31 3 67t9 75t14.5 75.5t18.5 69.5h983q43 291 -33 421t-282 130q-23 0 -50.5 -2t-55.5 -6t-52.5 -9t-38.5 -14l-182 -315h-84q-2 47 1 101.5t8 107.5t12 99t16 77q45 20 103 37.5t121.5 30t129 19.5t127.5 7q174 0 288.5 -43t183.5 -114.5t96.5 -166 t27.5 -198.5q0 -178 -43 -351t-140.5 -308.5t-254 -218.5t-383.5 -83q-119 0 -218.5 30t-172 92.5t-112.5 158.5t-40 231zM461 418q0 -174 62.5 -241.5t185.5 -67.5q92 0 161.5 44t120.5 117.5t84 170t51 200.5h-632q-6 -20 -12.5 -50t-10.5 -60.5t-7 -60.5t-3 -52z M495 1624q0 66 47.5 98.5t118.5 32.5q72 0 119 -32.5t47 -98.5q0 -57 -47 -89t-119 -32t-119 32t-47 89zM997 1624q0 66 48 98.5t120 32.5t119 -32.5t47 -98.5q0 -57 -47 -89t-119 -32t-120 32t-48 89z" />
<glyph unicode="&#x4db;" horiz-adv-x="1036" d="M49 244q0 63 34 131.5t108.5 121t194.5 80t292 13.5q4 10 4 26.5v26.5q0 115 -47 178.5t-143 63.5q-47 0 -89.5 -15.5t-77 -40t-64.5 -53t-52 -55.5l-55 47q18 43 58 93t97.5 91t132 69t164.5 28q168 0 269.5 -96.5t101.5 -284.5q0 -141 -42 -266.5t-120 -220.5 t-188.5 -150.5t-247.5 -55.5q-68 0 -128.5 15.5t-105.5 48.5t-70.5 84t-25.5 121zM252 1350q0 66 41 104.5t109 38.5q66 0 107.5 -39t41.5 -104q0 -61 -42 -100.5t-107 -39.5q-68 0 -109 39.5t-41 100.5zM317 215q0 -123 109 -123q68 0 134.5 95.5t103.5 297.5 q-88 14 -154 -2t-109 -55t-63.5 -94t-20.5 -119zM701 1350q0 66 41 104.5t106 38.5q68 0 110 -39t42 -104q0 -61 -42 -100.5t-110 -39.5q-66 0 -106.5 39.5t-40.5 100.5z" />
<glyph unicode="&#x4dc;" horiz-adv-x="2091" d="M-76 0l15 70l94 49q92 82 177 171t162 177t146.5 169t128.5 146l-244 514q-39 10 -70.5 26.5t-53.5 33.5l16 78h526l-16 -78q-29 -18 -72 -33.5t-86 -26.5l189 -505h143l108 505q-39 12 -68.5 27.5t-49.5 32.5l16 78h531l-17 -78q-47 -33 -131 -60l-113 -524l136 33 l397 491q-37 10 -69.5 25.5t-61.5 34.5l16 78h551l-16 -78q-33 -18 -75 -33.5t-85 -26.5l-487 -516q37 -68 78.5 -148.5t89 -167.5t99.5 -175t109 -170l76 -49l-14 -70h-332l-74 70q-90 141 -141 292.5t-102 311.5h-117l-111 -537q63 -20 117 -59l-16 -78h-551l14 78 q35 18 73 33.5t83 25.5l116 555l-135 -33q-98 -150 -200.5 -302t-231.5 -287l-102 -70h-365zM862 1624q0 66 47.5 98.5t118.5 32.5q72 0 119 -32.5t47 -98.5q0 -57 -47 -89t-119 -32t-119 32t-47 89zM1364 1624q0 66 48 98.5t120 32.5t119 -32.5t47 -98.5q0 -57 -47 -89 t-119 -32t-120 32t-48 89z" />
<glyph unicode="&#x4dd;" horiz-adv-x="1814" d="M-35 43q-4 27 2 59.5t20.5 64.5t37 58.5t51.5 38.5l106 -141q43 14 83 61t71 121t48 170t17 213q0 100 -23.5 142t-70.5 42q-45 0 -84 -25.5t-67 -53.5l-39 41q55 80 143 141t211 61q47 0 84 -21.5t61.5 -58t38 -85t13.5 -99.5q0 -53 -4.5 -103.5t-12.5 -97.5h152l92 453 h260l-94 -453h149q29 100 75 186.5t107.5 148t135.5 96t160 34.5q63 0 99 -10t75 -35q2 -23 -3.5 -52.5t-19.5 -60t-35.5 -58t-52.5 -44.5l-111 129q-31 -12 -66.5 -52t-65 -109.5t-50 -171t-20.5 -236.5q0 -84 29.5 -134t93.5 -50q35 0 72.5 22.5t66.5 50.5l35 -47 q-23 -33 -59 -66.5t-80 -61t-94 -45t-99 -17.5q-63 0 -107.5 21.5t-72 59t-40 88t-12.5 107.5q0 53 3.5 102.5t11.5 98.5h-148l-94 -465h-258l94 465h-153q-29 -104 -75 -192.5t-107.5 -152t-136.5 -98t-161 -34.5q-63 0 -106 16t-76 39zM690 1350q0 66 41 104.5t109 38.5 q66 0 107.5 -39t41.5 -104q0 -61 -42 -100.5t-107 -39.5q-68 0 -109 39.5t-41 100.5zM1139 1350q0 66 41 104.5t106 38.5q68 0 110 -39t42 -104q0 -61 -42 -100.5t-110 -39.5q-66 0 -106.5 39.5t-40.5 100.5z" />
<glyph unicode="&#x4de;" horiz-adv-x="1198" d="M12 76q8 33 23.5 77t34 91t40 94t44.5 86h84l22 -283q23 -14 71 -23t91 -9q174 0 272.5 100t98.5 268q0 186 -222 187l-161 -27q-4 37 5 85t29 87l64 -2q35 -2 82 0t82 6q100 43 163.5 132t63.5 194q0 92 -45 139t-154 47q-94 -4 -151 -39l-156 -260h-86q-2 72 1 160 t24 184q49 27 104.5 43.5t111.5 26.5t109.5 14t96.5 4q98 0 183 -16.5t147.5 -51t97.5 -92t35 -139.5q0 -53 -17.5 -110.5t-58.5 -111.5t-109.5 -99t-171.5 -72v-8q45 -4 91 -22.5t84 -52.5t61.5 -84t23.5 -120q0 -117 -48 -210t-138 -158.5t-217 -100.5t-285 -35 q-137 0 -248.5 30t-171.5 71zM370 1624q0 66 47.5 98.5t118.5 32.5q72 0 119 -32.5t47 -98.5q0 -57 -47 -89t-119 -32t-119 32t-47 89zM872 1624q0 66 48 98.5t120 32.5t119 -32.5t47 -98.5q0 -57 -47 -89t-119 -32t-120 32t-48 89z" />
<glyph unicode="&#x4df;" horiz-adv-x="948" d="M-31 84q0 31 13.5 65.5t34 66.5t46 56.5t52.5 34.5l129 -205q16 -4 38.5 -7t39.5 -3q45 0 88 15.5t77.5 46t56 74.5t21.5 102q0 68 -36.5 106.5t-125.5 48.5l-133 -36q-16 27 -16 68.5t16 68.5h136q111 35 152.5 99.5t41.5 123.5q0 123 -139 123q-16 0 -40 -3t-44 -7 q-31 -33 -69 -89.5t-68 -97.5q-20 8 -40 32t-33 56.5t-17.5 67.5t8.5 65q39 29 140 61t249 32q154 0 250 -50.5t96 -154.5q0 -92 -64.5 -166t-210.5 -125q63 0 109.5 -17.5t76.5 -46t44 -65.5t14 -74q0 -78 -37 -146.5t-104.5 -118.5t-164.5 -80t-218 -30q-57 0 -112.5 8.5 t-104.5 22.5t-88 33.5t-64 44.5zM192 1350q0 66 41 104.5t109 38.5q66 0 107.5 -39t41.5 -104q0 -61 -42 -100.5t-107 -39.5q-68 0 -109 39.5t-41 100.5zM641 1350q0 66 41 104.5t106 38.5q68 0 110 -39t42 -104q0 -61 -42 -100.5t-110 -39.5q-66 0 -106.5 39.5t-40.5 100.5 z" />
<glyph unicode="&#x4e0;" horiz-adv-x="1218" d="M29 55q6 33 23.5 80t39 99.5t46 102.5t44.5 87h84l23 -291q20 -12 65 -18t99 -6q111 0 182.5 35.5t113.5 91t57 121t15 124.5q0 106 -63.5 152.5t-186.5 46.5l-141 -29q-4 37 2 79t29 85l119 2l325 357l92 71v8l-145 -16h-348l-131 -225h-70q-2 45 0 103.5t5 116.5 t9.5 111.5t14.5 90.5h956l-20 -101l-410 -426l-119 -96q106 0 183 -25.5t127.5 -68.5t75 -99.5t24.5 -119.5q0 -133 -52.5 -230.5t-146.5 -163t-222 -97.5t-277 -32q-57 0 -119 6.5t-118 16.5t-105.5 25.5t-79.5 31.5z" />
<glyph unicode="&#x4e1;" horiz-adv-x="952" d="M-158 -311l97 192h59q29 -29 58.5 -79t47.5 -87q18 -8 38 -12t55 -4q63 0 122.5 30.5t104.5 83t72.5 121t27.5 146.5q0 92 -47 143t-135 56l-145 -27q-4 27 3 71t25 72h117l264 348l72 78l2 8l-113 -12h-278l-105 -207h-69q-4 43 -7.5 99.5t-2.5 114t4.5 110.5t11.5 90 h819v-100l-352 -439l-96 -96q176 -4 256.5 -84t80.5 -219q0 -113 -49 -208t-133 -164.5t-198.5 -108.5t-243.5 -39q-125 0 -220.5 34.5t-142.5 88.5z" />
<glyph unicode="&#x4e2;" horiz-adv-x="1589" d="M-49 0l14 78q45 20 91 36.5t91 22.5l246 1159q-41 8 -82 22.5t-73 37.5l16 78h616l-16 -78q-35 -18 -76 -33.5t-88 -26.5l-166 -778l-55 -160l129 170l676 719l10 49q-45 10 -83 24.5t-66 35.5l16 78h616l-16 -78q-39 -23 -86 -37t-94 -23l-246 -1159q45 -8 84 -23.5 t72 -35.5l-17 -78h-616l14 78q31 14 75 31.5t91 27.5l166 776l57 162l-121 -164l-688 -729l-8 -45q45 -10 83 -26.5t67 -32.5l-17 -78h-616zM704 1595l31 144h663l-30 -144h-664z" />
<glyph unicode="&#x4e3;" horiz-adv-x="1198" d="M86 168q0 45 13.5 129t33 183.5t43 205t41.5 193.5l-121 26v70q33 12 82 24.5t102.5 22.5t108.5 17.5t100 9.5l46 -25q-33 -154 -67 -292t-62 -292q-10 -49 -21.5 -108.5t-11.5 -118.5q0 -37 19.5 -55.5t47.5 -18.5q51 0 101.5 40t92.5 96.5t73.5 116t46.5 97.5l106 535 h277l-162 -883h143v-69q-20 -16 -54 -32.5t-74 -29t-84 -20.5t-87 -8q-74 0 -101.5 29.5t-27.5 62.5q0 37 8.5 102.5t32.5 151.5h-8q-27 -49 -68 -110.5t-96 -116t-127 -90.5t-158 -36q-84 0 -136 50.5t-52 142.5zM389 1268l31 143h602l-31 -143h-602z" />
<glyph unicode="&#x4e4;" horiz-adv-x="1589" d="M-49 0l14 78q45 20 91 36.5t91 22.5l246 1159q-41 8 -82 22.5t-73 37.5l16 78h616l-16 -78q-35 -18 -76 -33.5t-88 -26.5l-166 -778l-55 -160l129 170l676 719l10 49q-45 10 -83 24.5t-66 35.5l16 78h616l-16 -78q-39 -23 -86 -37t-94 -23l-246 -1159q45 -8 84 -23.5 t72 -35.5l-17 -78h-616l14 78q31 14 75 31.5t91 27.5l166 776l57 162l-121 -164l-688 -729l-8 -45q45 -10 83 -26.5t67 -32.5l-17 -78h-616zM616 1624q0 66 47.5 98.5t118.5 32.5q72 0 119 -32.5t47 -98.5q0 -57 -47 -89t-119 -32t-119 32t-47 89zM1118 1624q0 66 48 98.5 t120 32.5t119 -32.5t47 -98.5q0 -57 -47 -89t-119 -32t-120 32t-48 89z" />
<glyph unicode="&#x4e5;" horiz-adv-x="1198" d="M86 168q0 45 13.5 129t33 183.5t43 205t41.5 193.5l-121 26v70q33 12 82 24.5t102.5 22.5t108.5 17.5t100 9.5l46 -25q-33 -154 -67 -292t-62 -292q-10 -49 -21.5 -108.5t-11.5 -118.5q0 -37 19.5 -55.5t47.5 -18.5q51 0 101.5 40t92.5 96.5t73.5 116t46.5 97.5l106 535 h277l-162 -883h143v-69q-20 -16 -54 -32.5t-74 -29t-84 -20.5t-87 -8q-74 0 -101.5 29.5t-27.5 62.5q0 37 8.5 102.5t32.5 151.5h-8q-27 -49 -68 -110.5t-96 -116t-127 -90.5t-158 -36q-84 0 -136 50.5t-52 142.5zM340 1350q0 66 41 104.5t109 38.5q66 0 107.5 -39 t41.5 -104q0 -61 -42 -100.5t-107 -39.5q-68 0 -109 39.5t-41 100.5zM789 1350q0 66 41 104.5t106 38.5q68 0 110 -39t42 -104q0 -61 -42 -100.5t-110 -39.5q-66 0 -106.5 39.5t-40.5 100.5z" />
<glyph unicode="&#x4e6;" horiz-adv-x="1538" d="M121 555q0 188 58.5 353t168 287t268 192.5t359.5 70.5q137 0 243.5 -40t180.5 -114.5t111.5 -181t37.5 -239.5q0 -168 -51 -331t-155.5 -291t-261 -207t-367.5 -79q-141 0 -252 44t-186.5 122t-114.5 184.5t-39 229.5zM469 516q0 -205 77 -306t208 -101 q117 0 200.5 75.5t139 193.5t81 264t25.5 288q0 182 -62.5 288.5t-205.5 106.5q-80 0 -144.5 -36t-117 -97.5t-90 -142t-62 -171t-37 -183.5t-12.5 -179zM565 1624q0 66 47.5 98.5t118.5 32.5q72 0 119 -32.5t47 -98.5q0 -57 -47 -89t-119 -32t-119 32t-47 89zM1067 1624 q0 66 48 98.5t120 32.5t119 -32.5t47 -98.5q0 -57 -47 -89t-119 -32t-120 32t-48 89z" />
<glyph unicode="&#x4e7;" horiz-adv-x="1124" d="M59 393q0 111 37 226.5t113 211t191.5 157t271.5 61.5q184 0 288.5 -100.5t104.5 -299.5q0 -135 -41 -257t-119 -215t-189.5 -147.5t-254.5 -54.5q-86 0 -160 26t-128 78t-84 130t-30 184zM317 1350q0 66 41 104.5t109 38.5q66 0 107.5 -39t41.5 -104q0 -61 -42 -100.5 t-107 -39.5q-68 0 -109 39.5t-41 100.5zM350 313q0 -104 40 -162.5t110 -58.5q59 0 109 50.5t87 135t57.5 194.5t20.5 228q0 113 -35.5 172.5t-101.5 59.5q-82 0 -136.5 -61.5t-88 -154.5t-48 -201.5t-14.5 -201.5zM766 1350q0 66 41 104.5t106 38.5q68 0 110 -39t42 -104 q0 -61 -42 -100.5t-110 -39.5q-66 0 -106.5 39.5t-40.5 100.5z" />
<glyph unicode="&#x4e8;" horiz-adv-x="1538" d="M121 555q0 188 58.5 353t168 287t268 192.5t359.5 70.5q135 0 241.5 -40t180 -114.5t112.5 -181t39 -239.5q0 -168 -51 -331t-155.5 -291t-261 -207t-367.5 -79q-141 0 -252 44t-186.5 122t-114.5 184.5t-39 229.5zM469 516q0 -205 77 -306t208 -101q90 0 160.5 44 t121.5 118.5t85 172t53 205.5h-699q-6 -67 -6 -133zM500 807h694q2 20 3 40.5t1 43.5q2 31 0 59.5t-6 57.5q-16 150 -75.5 233.5t-184.5 83.5q-90 0 -161 -44t-124 -115.5t-90 -165t-57 -193.5z" />
<glyph unicode="&#x4e9;" horiz-adv-x="1124" d="M59 393q0 111 37 226.5t113 211t191.5 157t271.5 61.5q184 0 288.5 -100.5t104.5 -299.5q0 -135 -41 -257t-119 -215t-189.5 -147.5t-254.5 -54.5q-86 0 -160 26t-128 78t-84 130t-30 184zM350 313q0 -104 40 -162.5t110 -58.5q43 0 80.5 26.5t70.5 74t56.5 112 t40.5 139.5h-392q-6 -68 -6 -131zM375 569h393q6 63 6 131q0 113 -35.5 172.5t-101.5 59.5q-57 0 -100 -30t-75 -81t-53.5 -116.5t-33.5 -135.5z" />
<glyph unicode="&#x4ea;" horiz-adv-x="1538" d="M121 555q0 188 58.5 353t168 287t268 192.5t359.5 70.5q135 0 241.5 -40t180 -114.5t112.5 -181t39 -239.5q0 -168 -51 -331t-155.5 -291t-261 -207t-367.5 -79q-141 0 -252 44t-186.5 122t-114.5 184.5t-39 229.5zM469 516q0 -205 77 -306t208 -101q90 0 160.5 44 t121.5 118.5t85 172t53 205.5h-699q-6 -67 -6 -133zM500 807h694q2 20 3 40.5t1 43.5q2 31 0 59.5t-6 57.5q-16 150 -75.5 233.5t-184.5 83.5q-90 0 -161 -44t-124 -115.5t-90 -165t-57 -193.5zM573 1624q0 66 47.5 98.5t118.5 32.5q72 0 119 -32.5t47 -98.5q0 -57 -47 -89 t-119 -32t-119 32t-47 89zM1075 1624q0 66 48 98.5t120 32.5t119 -32.5t47 -98.5q0 -57 -47 -89t-119 -32t-120 32t-48 89z" />
<glyph unicode="&#x4eb;" horiz-adv-x="1124" d="M59 393q0 111 37 226.5t113 211t191.5 157t271.5 61.5q184 0 288.5 -100.5t104.5 -299.5q0 -135 -41 -257t-119 -215t-189.5 -147.5t-254.5 -54.5q-86 0 -160 26t-128 78t-84 130t-30 184zM319 1350q0 66 41 104.5t109 38.5q66 0 107.5 -39t41.5 -104q0 -61 -42 -100.5 t-107 -39.5q-68 0 -109 39.5t-41 100.5zM350 313q0 -104 40 -162.5t110 -58.5q43 0 80.5 26.5t70.5 74t56.5 112t40.5 139.5h-392q-6 -68 -6 -131zM375 569h393q6 63 6 131q0 113 -35.5 172.5t-101.5 59.5q-57 0 -100 -30t-75 -81t-53.5 -116.5t-33.5 -135.5zM768 1350 q0 66 41 104.5t106 38.5q68 0 110 -39t42 -104q0 -61 -42 -100.5t-110 -39.5q-66 0 -106.5 39.5t-40.5 100.5z" />
<glyph unicode="&#x4ec;" horiz-adv-x="1327" d="M33 78q6 39 19.5 87t30.5 97t36.5 97.5t38.5 89.5h86l43 -308q23 -16 64.5 -24t88.5 -8q92 0 179.5 35.5t160 108.5t124.5 180.5t75 250.5l-541 -61q-2 41 6.5 100t36.5 108l520 -8q27 238 -61 370t-268 132q-47 0 -98.5 -11t-79.5 -28l-164 -266h-84q0 23 3 65.5t8 92 t13.5 100.5t20.5 92q43 25 98 41t112.5 27.5t114 15.5t99.5 4q164 0 281.5 -41t193.5 -117.5t111.5 -184t35.5 -238.5q0 -195 -59 -360t-175 -285.5t-285 -188.5t-388 -68q-141 0 -240.5 29t-156.5 74zM350 1624q0 66 47.5 98.5t118.5 32.5q72 0 119 -32.5t47 -98.5 q0 -57 -47 -89t-119 -32t-119 32t-47 89zM852 1624q0 66 48 98.5t120 32.5t119 -32.5t47 -98.5q0 -57 -47 -89t-119 -32t-120 32t-48 89z" />
<glyph unicode="&#x4ed;" horiz-adv-x="991" d="M-31 84q0 31 13.5 65.5t34 66.5t46 56.5t52.5 34.5l129 -205q16 -4 35.5 -7t35.5 -3q51 0 101.5 26.5t93.5 77t75.5 122t49.5 163.5l-334 -47q-8 12 -12 33.5t-4 45.5t4 45.5t12 33.5h344q0 10 1 20.5t1 20.5q0 141 -51 220t-131 79q-33 0 -78 -10q-16 -16 -34.5 -41 t-38 -51.5t-39 -52t-35.5 -46.5q-20 8 -39 34t-32 60.5t-17.5 71.5t6.5 68q49 33 148.5 58.5t238.5 25.5q86 0 158.5 -26t126 -74t83 -117.5t29.5 -159.5q0 -150 -45 -278t-126 -221t-191.5 -145.5t-241.5 -52.5q-57 0 -112.5 8.5t-104.5 22.5t-88 33.5t-64 44.5zM204 1350 q0 66 41 104.5t109 38.5q66 0 107.5 -39t41.5 -104q0 -61 -42 -100.5t-107 -39.5q-68 0 -109 39.5t-41 100.5zM653 1350q0 66 41 104.5t106 38.5q68 0 110 -39t42 -104q0 -61 -42 -100.5t-110 -39.5q-66 0 -106.5 39.5t-40.5 100.5z" />
<glyph unicode="&#x4ee;" horiz-adv-x="1390" d="M195 1356l16 78h637l-17 -78q-33 -18 -76.5 -33.5t-90.5 -26.5l190 -555l14 -131h4l70 135l303 551q-47 10 -82 25.5t-63 34.5l16 78h496l-17 -78q-27 -16 -66.5 -32.5t-90.5 -27.5l-578 -915q-141 -211 -271 -314.5t-255 -76.5q-23 18 -38 54t-23.5 77t-9.5 81t3 64 l72 62l266 -76q23 18 43.5 45t40.5 59l-364 940q-37 10 -71 24.5t-58 35.5zM637 1595l31 144h663l-30 -144h-664z" />
<glyph unicode="&#x4ef;" horiz-adv-x="997" d="M-27 -387q-6 29 4.5 67.5t30 75.5t46 68t55.5 41l153 -109q14 10 37 29.5t45.5 49.5t45 71t40.5 94l-283 879l-131 16v70q10 8 41 21t73 27.5t89 25t92 10.5q55 0 86 -27t41 -74l158 -620l10 -123h4l43 121q41 98 80 211.5t62 212.5q0 23 -7.5 62.5t-15.5 81.5t-16 78 t-13 48q29 12 72 18t86 6t80 -6t59 -18q-53 -244 -162.5 -506t-252.5 -514q-119 -211 -237 -319.5t-271 -108.5q-43 0 -79 11t-65 30zM313 1268l31 143h602l-31 -143h-602z" />
<glyph unicode="&#x4f0;" horiz-adv-x="1390" d="M195 1356l16 78h637l-17 -78q-33 -18 -76.5 -33.5t-90.5 -26.5l190 -555l14 -131h4l70 135l303 551q-47 10 -82 25.5t-63 34.5l16 78h496l-17 -78q-27 -16 -66.5 -32.5t-90.5 -27.5l-578 -915q-141 -211 -271 -314.5t-255 -76.5q-23 18 -38 54t-23.5 77t-9.5 81t3 64 l72 62l266 -76q23 18 43.5 45t40.5 59l-364 940q-37 10 -71 24.5t-58 35.5zM559 1624q0 66 47.5 98.5t118.5 32.5q72 0 119 -32.5t47 -98.5q0 -57 -47 -89t-119 -32t-119 32t-47 89zM1061 1624q0 66 48 98.5t120 32.5t119 -32.5t47 -98.5q0 -57 -47 -89t-119 -32t-120 32 t-48 89z" />
<glyph unicode="&#x4f1;" horiz-adv-x="997" d="M-27 -387q-6 29 4.5 67.5t30 75.5t46 68t55.5 41l153 -109q14 10 37 29.5t45.5 49.5t45 71t40.5 94l-283 879l-131 16v70q10 8 41 21t73 27.5t89 25t92 10.5q55 0 86 -27t41 -74l158 -620l10 -123h4l43 121q41 98 80 211.5t62 212.5q0 23 -7.5 62.5t-15.5 81.5t-16 78 t-13 48q29 12 72 18t86 6t80 -6t59 -18q-53 -244 -162.5 -506t-252.5 -514q-119 -211 -237 -319.5t-271 -108.5q-43 0 -79 11t-65 30zM247 1350q0 66 41 104.5t109 38.5q66 0 107.5 -39t41.5 -104q0 -61 -42 -100.5t-107 -39.5q-68 0 -109 39.5t-41 100.5zM696 1350 q0 66 41 104.5t106 38.5q68 0 110 -39t42 -104q0 -61 -42 -100.5t-110 -39.5q-66 0 -106.5 39.5t-40.5 100.5z" />
<glyph unicode="&#x4f2;" horiz-adv-x="1390" d="M195 1356l16 78h637l-17 -78q-33 -18 -76.5 -33.5t-90.5 -26.5l190 -555l14 -131h4l70 135l303 551q-47 10 -82 25.5t-63 34.5l16 78h496l-17 -78q-27 -16 -66.5 -32.5t-90.5 -27.5l-578 -915q-141 -211 -271 -314.5t-255 -76.5q-23 18 -38 54t-23.5 77t-9.5 81t3 64 l72 62l266 -76q23 18 43.5 45t40.5 59l-364 940q-37 10 -71 24.5t-58 35.5zM662 1581l143 238q12 2 44 -3.5t66.5 -13.5t63.5 -19t35 -22v-28l-277 -199zM971 1577l235 242q14 2 46 -3.5t68 -14.5t65.5 -21.5t39.5 -24.5l-2 -20l-372 -205z" />
<glyph unicode="&#x4f3;" horiz-adv-x="997" d="M-27 -387q-6 29 4.5 67.5t30 75.5t46 68t55.5 41l153 -109q14 10 37 29.5t45.5 49.5t45 71t40.5 94l-283 879l-131 16v70q10 8 41 21t73 27.5t89 25t92 10.5q55 0 86 -27t41 -74l158 -620l10 -123h4l43 121q41 98 80 211.5t62 212.5q0 23 -7.5 62.5t-15.5 81.5t-16 78 t-13 48q29 12 72 18t86 6t80 -6t59 -18q-53 -244 -162.5 -506t-252.5 -514q-119 -211 -237 -319.5t-271 -108.5q-43 0 -79 11t-65 30zM379 1239l139 334q12 4 47 2t73 -8t69.5 -15.5t38.5 -21.5v-49l-283 -283zM647 1243l273 330q14 4 46.5 2t69.5 -10.5t69 -20.5t44 -28 v-46l-426 -272z" />
<glyph unicode="&#x4f4;" horiz-adv-x="1398" d="M207 1356l16 78h580l-17 -78q-25 -16 -60.5 -32.5t-76.5 -27.5l-63 -299q-16 -76 -20.5 -136t11 -102t53.5 -64.5t103 -22.5q68 0 132.5 19.5t123.5 51.5l117 553q-70 20 -115 60l17 78h569l-16 -78q-29 -18 -68 -34.5t-80 -25.5l-246 -1159q37 -8 69 -25.5t52 -33.5 l-14 -78h-631l14 78q53 23 104.5 39t98.5 20l103 484q-66 -35 -168.5 -64t-225.5 -29q-82 0 -148.5 25t-107.5 77t-54 134t11 197l72 335q-37 6 -74 22.5t-61 37.5zM510 1624q0 66 47.5 98.5t118.5 32.5q72 0 119 -32.5t47 -98.5q0 -57 -47 -89t-119 -32t-119 32t-47 89z M1012 1624q0 66 48 98.5t120 32.5t119 -32.5t47 -98.5q0 -57 -47 -89t-119 -32t-120 32t-48 89z" />
<glyph unicode="&#x4f5;" horiz-adv-x="1110" d="M49 905v70q33 12 82 24.5t102.5 22.5t108.5 17.5t100 9.5l45 -25q-41 -166 -71.5 -288t-30.5 -189q0 -86 84 -86q57 0 118.5 38t96.5 89l90 436h279l-187 -883h144v-69q-20 -16 -54 -32.5t-74 -29t-84 -20.5t-87 -8q-74 0 -101.5 30.5t-27.5 65.5q0 41 12 100l80 318h-8 q-61 -82 -160.5 -140.5t-214.5 -58.5q-86 0 -139.5 46t-53.5 136q0 41 5.5 81t14.5 86t22.5 102.5t29.5 130.5zM286 1350q0 66 41 104.5t109 38.5q66 0 107.5 -39t41.5 -104q0 -61 -42 -100.5t-107 -39.5q-68 0 -109 39.5t-41 100.5zM735 1350q0 66 41 104.5t106 38.5 q68 0 110 -39t42 -104q0 -61 -42 -100.5t-110 -39.5q-66 0 -106.5 39.5t-40.5 100.5z" />
<glyph unicode="&#x4f6;" horiz-adv-x="1099" d="M-49 0l14 78q94 45 182 59l246 1159q-41 8 -81 22.5t-74 37.5l16 78h1049q-8 -49 -23.5 -113t-34 -131.5t-40 -132t-44.5 -115.5h-84l-51 358h-326l-247 -1167h225q-12 -53 -29.5 -115.5t-38 -125t-43 -122t-43.5 -104.5h-80l-30 334h-463z" />
<glyph unicode="&#x4f7;" horiz-adv-x="864" d="M35 211q0 80 35.5 139.5t89 107.5t116 86t115.5 75.5t89 77.5t36 89q0 41 -19.5 70t-68.5 29q-35 0 -69.5 -12.5t-67.5 -32t-60.5 -42t-48.5 -40.5l-51 55q27 37 70 78t98 77t119.5 58.5t136.5 22.5q131 0 195.5 -64.5t64.5 -153.5q0 -80 -36 -141t-89 -110.5t-115.5 -90 t-115.5 -79.5t-89 -80t-36 -92q0 -45 29.5 -72t89.5 -27q39 0 77.5 12.5t73.5 31t65.5 41t55.5 42.5l53 -80q-51 -51 -70.5 -101t-22.5 -99t3 -97.5t6 -95.5q0 -55 -27.5 -93t-70.5 -63.5t-97.5 -39t-109.5 -17.5l-12 60q59 16 76.5 59t15.5 96q0 82 27.5 135.5t99.5 116.5 l-6 8q-16 -10 -45 -23.5t-66 -25.5t-82 -21.5t-90 -9.5q-55 0 -105 16.5t-87 47.5t-58.5 75t-21.5 97z" />
<glyph unicode="&#x4f8;" horiz-adv-x="1898" d="M-49 0l14 78q41 20 89 36.5t93 22.5l246 1159q-41 8 -82 22.5t-73 37.5l16 78h655l-16 -78q-37 -20 -88 -36.5t-105 -23.5l-94 -438q39 8 96.5 11t98.5 3q123 0 204.5 -27.5t132 -73.5t72 -105.5t21.5 -120.5q0 -137 -48 -240.5t-136.5 -172.5t-214 -103.5t-279.5 -34.5 q-10 0 -44 1t-78 2t-89 2t-76 1h-315zM455 135q16 -4 51 -6t57 -2q80 0 141.5 34t103.5 92t63.5 135t21.5 165q0 39 -8 72.5t-29.5 59.5t-60 40t-97.5 14q-74 0 -118 -12zM770 1624q0 66 47.5 98.5t118.5 32.5q72 0 119 -32.5t47 -98.5q0 -57 -47 -89t-119 -32t-119 32 t-47 89zM1153 0l16 78q35 18 77 33.5t85 25.5l246 1159q-37 8 -76 22.5t-71 37.5l16 78h631l-17 -78q-74 -43 -176 -60l-246 -1159q49 -8 86 -25.5t66 -33.5l-16 -78h-621zM1272 1624q0 66 48 98.5t120 32.5t119 -32.5t47 -98.5q0 -57 -47 -89t-119 -32t-120 32t-48 89z" />
<glyph unicode="&#x4f9;" horiz-adv-x="1515" d="M88 227q0 63 15.5 142.5t41 164t57 173t62.5 172.5l-112 26v70q31 14 81 27.5t107 22.5t116.5 15.5t108.5 8.5l45 -25q-25 -66 -47 -122t-43.5 -113.5t-43 -119t-44.5 -134.5h8q53 59 126 106t177 47q37 0 72 -12t62.5 -37t45 -62.5t17.5 -91.5q0 -92 -43 -183 t-119 -163.5t-181 -118t-228 -45.5q-59 0 -109.5 14.5t-89.5 44t-60.5 78t-21.5 115.5zM375 209q0 -57 18.5 -87t65.5 -30q39 0 73.5 27.5t61.5 74t43 103.5t16 119q0 53 -27.5 80.5t-62.5 27.5q-47 0 -83.5 -29.5t-65.5 -64.5q-18 -55 -28.5 -108.5t-10.5 -112.5zM532 1350 q0 66 41 104.5t109 38.5q66 0 107.5 -39t41.5 -104q0 -61 -42 -100.5t-107 -39.5q-68 0 -109 39.5t-41 100.5zM977 76q0 41 6 80t16 86l170 782h285l-186 -883h143v-69q-27 -18 -62.5 -35t-75.5 -29t-81 -19t-78 -7q-78 0 -107.5 29.5t-29.5 64.5zM981 1350q0 66 41 104.5 t106 38.5q68 0 110 -39t42 -104q0 -61 -42 -100.5t-110 -39.5q-66 0 -106.5 39.5t-40.5 100.5z" />
<glyph unicode="&#x4fc;" horiz-adv-x="1480" d="M-47 0l14 78q41 23 82 36t80 23l539 578l-267 581q-76 23 -127 60l17 78h649l-16 -78q-29 -14 -68 -29.5t-92 -30.5l166 -407l332 407q-37 8 -81 25.5t-73 34.5l16 78h514l-16 -78q-33 -16 -76 -32.5t-86 -27.5l-471 -524q86 -174 139.5 -287.5t82 -192.5t37.5 -137.5 t9 -121.5q0 -115 -48 -203t-129 -146.5t-185 -88t-217 -27.5l6 92q119 33 192.5 119t73.5 209q0 45 -6 91t-29.5 111.5t-67.5 163t-120 246.5l-389 -465q41 -6 80 -21.5t69 -35.5l-16 -78h-518z" />
<glyph unicode="&#x4fd;" horiz-adv-x="1036" d="M-55 14q18 61 70.5 135t117 145t131 133t113.5 99l-125 340l-141 17v69q29 16 68.5 32.5t82.5 29t87 20.5t79 8q53 0 81 -27.5t42 -72.5l92 -324q39 41 82 98.5t66 104.5q2 14 1 41t-4.5 56.5t-8.5 55t-7 38.5q76 27 166 26q41 0 80 -7t61 -19q-18 -61 -68 -135 t-111.5 -144.5t-123 -131t-100.5 -95.5q18 -49 47 -119t55.5 -145.5t45 -150.5t18.5 -132q0 -98 -42 -166.5t-108.5 -115t-150.5 -71t-168 -32.5l-23 72q104 29 152.5 101.5t48.5 162.5q0 59 -15.5 127.5t-37 136.5t-45 130.5t-41.5 109.5q-41 -47 -88.5 -102.5 t-73.5 -106.5q-2 -16 -2 -43t2 -55.5t5 -54t7 -38.5q-35 -14 -81 -20t-91 -6t-84 6t-61 20z" />
<glyph unicode="&#x2013;" horiz-adv-x="1271" d="M137 485l41 185h987l-41 -185h-987z" />
<glyph unicode="&#x2014;" horiz-adv-x="1804" d="M137 485l41 185h1520l-41 -185h-1520z" />
<glyph unicode="&#x2018;" horiz-adv-x="620" d="M291 1305q0 74 35.5 141t92 122.5t125 93.5t134.5 52l29 -88q-76 -23 -127.5 -76t-61.5 -108q16 -33 54 -52.5t73 -31.5q2 -37 -14.5 -75t-43 -69.5t-58 -54t-58.5 -29.5q-72 4 -126 45.5t-54 129.5z" />
<glyph unicode="&#x2019;" horiz-adv-x="620" d="M248 936q76 23 127 76t62 108q-16 33 -54.5 52.5t-72.5 31.5q-2 37 14 75t43 69.5t57.5 54t59.5 29.5q72 -4 126 -45t54 -130q0 -74 -36 -141t-92 -122.5t-125 -93.5t-134 -52z" />
<glyph unicode="&#x201a;" horiz-adv-x="630" d="M8 -217q76 23 127 76t62 108q-16 33 -54.5 52.5t-72.5 31.5q-2 37 14 75t43 69.5t57.5 54t59.5 29.5q72 -4 126 -45t54 -130q0 -74 -36 -141t-92 -122.5t-125 -93.5t-134 -52z" />
<glyph unicode="&#x201c;" horiz-adv-x="1040" d="M291 1305q0 74 35.5 141t92 122.5t125 93.5t134.5 52l29 -88q-76 -23 -127.5 -76t-61.5 -108q16 -33 54 -52.5t73 -31.5q2 -37 -14.5 -75t-43 -69.5t-58 -54t-58.5 -29.5q-72 4 -126 45.5t-54 129.5zM711 1305q0 74 35.5 141t92 122.5t125 93.5t134.5 52l29 -88 q-76 -23 -127.5 -76t-61.5 -108q16 -33 54 -52.5t73 -31.5q2 -37 -14.5 -75t-43 -69.5t-58 -54t-58.5 -29.5q-72 4 -126 45.5t-54 129.5z" />
<glyph unicode="&#x201d;" horiz-adv-x="1040" d="M248 936q76 23 127 76t62 108q-16 33 -54.5 52.5t-72.5 31.5q-2 37 14 75t43 69.5t57.5 54t59.5 29.5q72 -4 126 -45t54 -130q0 -74 -36 -141t-92 -122.5t-125 -93.5t-134 -52zM667 936q76 23 127 76t62 108q-16 33 -54.5 52.5t-72.5 31.5q-2 37 14 75t43 69.5t57.5 54 t59.5 29.5q72 -4 126 -45t54 -130q0 -74 -36 -141t-92 -122.5t-125 -93.5t-134 -52z" />
<glyph unicode="&#x201e;" horiz-adv-x="1050" d="M8 -217q76 23 127 76t62 108q-16 33 -54.5 52.5t-72.5 31.5q-2 37 14 75t43 69.5t57.5 54t59.5 29.5q72 -4 126 -45t54 -130q0 -74 -36 -141t-92 -122.5t-125 -93.5t-134 -52zM428 -217q76 23 127 76t62 108q-16 33 -54.5 52.5t-72.5 31.5q-2 37 14 75t43 69.5t57.5 54 t59.5 29.5q72 -4 126 -45t54 -130q0 -74 -36 -141t-92 -122.5t-125 -93.5t-134 -52z" />
<glyph unicode="&#x2020;" horiz-adv-x="1028" d="M137 948q0 45 6.5 83t20.5 59h53l330 -105l-111 373v55q23 12 67 19.5t93 7.5t93 -7.5t65 -19.5v-55l-111 -373l330 105h53q12 -23 18.5 -71t6.5 -97q0 -45 -6.5 -81t-18.5 -53h-57l-326 105l94 -250v-70l-106 -983h-72l-106 985v68l94 250l-330 -105h-53 q-14 18 -20.5 64.5t-6.5 95.5z" />
<glyph unicode="&#x2021;" horiz-adv-x="1028" d="M137 92q0 49 6.5 95t18.5 65h53l330 -105l-94 347v57l94 342l-330 -105h-53q-10 18 -17.5 63.5t-7.5 96.5q0 43 6.5 82t18.5 60h53l330 -105l-111 373v55q23 12 68 18.5t92 6.5q49 0 93 -6.5t65 -18.5v-55l-111 -373l330 105h53q12 -18 18.5 -64.5t6.5 -97.5 q0 -43 -6.5 -82t-18.5 -58h-57l-326 105l94 -342v-59l-94 -345l326 105h57q14 -18 19.5 -57t5.5 -84q0 -49 -6.5 -95.5t-18.5 -64.5h-53l-330 104l111 -372v-56q-20 -16 -64.5 -23t-93.5 -7q-47 0 -92 7t-68 23v56l111 372l-330 -104h-53q-12 20 -18.5 58t-6.5 83z" />
<glyph unicode="&#x2022;" horiz-adv-x="987" d="M215 637q0 70 24.5 129t67.5 100t100.5 64.5t122.5 23.5q68 0 126.5 -21.5t101.5 -62.5t67.5 -100t24.5 -133t-24.5 -133.5t-67.5 -100.5t-101.5 -62.5t-126.5 -21.5q-66 0 -123 21.5t-100 62.5t-67.5 100.5t-24.5 133.5z" />
<glyph unicode="&#x2026;" horiz-adv-x="1923" d="M49 145q0 74 47 119t125 45t127 -45t49 -119t-49 -117.5t-127 -43.5t-125 43.5t-47 117.5zM715 145q0 74 47 119t125 45t127 -45t49 -119t-49 -117.5t-127 -43.5t-125 43.5t-47 117.5zM1380 145q0 74 47 119t125 45t127 -45t49 -119t-49 -117.5t-127 -43.5t-125 43.5 t-47 117.5z" />
<glyph unicode="&#x2030;" horiz-adv-x="2549" d="M112 1032q0 88 37 166t101.5 136.5t151.5 91t187 32.5q156 0 243 -72.5t87 -195.5q0 -102 -41 -181t-108.5 -134.5t-153.5 -84t-174 -28.5q-68 0 -128 18.5t-105.5 54t-71 86t-25.5 111.5zM118 61l1360 1403l99 -86l-1362 -1405zM356 1008q0 -55 25.5 -98.5t87.5 -43.5 q37 0 73.5 22.5t67.5 66.5t49 112t18 160q0 47 -23.5 87t-86.5 40q-37 0 -75 -24.5t-67.5 -71t-49 -109.5t-19.5 -141zM764 248q0 88 37 166t101.5 136.5t151.5 91t187 32.5q156 0 243 -72.5t87 -195.5q0 -102 -41 -181t-108.5 -134.5t-153.5 -84t-174 -28.5 q-68 0 -128 18.5t-105.5 54t-71 86t-25.5 111.5zM1008 224q0 -55 25.5 -98.5t87.5 -43.5q37 0 73.5 22.5t67.5 66.5t49 112t18 160q0 47 -23.5 87t-86.5 40q-37 0 -75 -24.5t-67.5 -71t-49 -109.5t-19.5 -141zM1614 248q0 88 37 166t101.5 136.5t151.5 91t187 32.5 q156 0 243 -72.5t87 -195.5q0 -102 -41 -181t-108.5 -134.5t-153.5 -84t-174 -28.5q-68 0 -128 18.5t-105.5 54t-71 86t-25.5 111.5zM1858 224q0 -55 25.5 -98.5t87.5 -43.5q37 0 73.5 22.5t67.5 66.5t49 112t18 160q0 47 -23.5 87t-86.5 40q-37 0 -75 -24.5t-67.5 -71 t-49 -109.5t-19.5 -141z" />
<glyph unicode="&#x2039;" horiz-adv-x="632" d="M78 530l514 457l61 -76l-301 -389l154 -364l-90 -68z" />
<glyph unicode="&#x203a;" horiz-adv-x="632" d="M53 168l307 393l-147 361l90 65l330 -442l-520 -455z" />
<glyph unicode="&#x2044;" horiz-adv-x="649" d="M-406 61l1360 1403l99 -86l-1362 -1405z" />
<glyph unicode="&#x20ac;" d="M-76 514l64 137h135q2 33 6 65t10 64h-159l65 138h129q39 121 105.5 221t157.5 170.5t203 109.5t245 39q135 0 241.5 -19.5t173.5 -52.5q-6 -33 -20 -84t-32.5 -107t-39 -110.5t-39.5 -91.5h-86l-47 310q-18 10 -59 16t-82 6q-135 0 -243.5 -106.5t-166.5 -300.5h494 l-66 -138h-460q-6 -31 -9.5 -63.5t-7.5 -65.5h418l-66 -137h-358q0 -113 22.5 -189.5t60.5 -124.5t88 -69.5t106 -21.5q59 0 99 11t60 23l160 287h86q0 -33 -2 -79t-8 -98t-14.5 -103.5t-18.5 -92.5q-43 -23 -94 -38t-103.5 -25t-101.5 -14.5t-86 -4.5q-164 0 -271.5 47.5 t-172 123t-91 172t-30.5 196.5h-195z" />
</font>
</defs>
</svg>
