<svg xmlns="http://www.w3.org/2000/svg" xmlns:xlink="http://www.w3.org/1999/xlink" width="501" height="354" viewBox="0 0 501 354"><defs><path id="p2bqa" d="M835 10222v-10h366v10z"/><path id="p2bqb" d="M830 10217v-10h376v10z"/><path id="p2bqc" d="M825 10212v-236h386v236z"/><path id="p2bqd" d="M836 9990a4 4 0 1 1 0 8 4 4 0 0 1 0-8zm0 22a4 4 0 1 1 0 8 4 4 0 0 1 0-8zm0 112a4 4 0 1 1 0 8 4 4 0 0 1 0-8zm0-67a4 4 0 1 1 0 8 4 4 0 0 1 0-8zm0-22a4 4 0 1 1 0 8 4 4 0 0 1 0-8zm0 67a4 4 0 1 1 0 8 4 4 0 0 1 0-8zm0 67a4 4 0 1 1 0 8 4 4 0 0 1 0-8zm0-90a4 4 0 1 1 0 8 4 4 0 0 1 0-8zm0 67a4 4 0 1 1 0 8 4 4 0 0 1 0-8zm0 45a4 4 0 1 1 0 8 4 4 0 0 1 0-8z"/><path id="p2bqk" d="M818 9992h15a2 2 0 1 1 0 4h-15a2 2 0 1 1 0-4zm0 45h15a2 2 0 1 1 0 4h-15a2 2 0 1 1 0-4zm0 44h15a2 2 0 1 1 0 4h-15a2 2 0 1 1 0-4zm0 45h15a2 2 0 1 1 0 4h-15a2 2 0 1 1 0-4zm0 67h15a2 2 0 1 1 0 4h-15a2 2 0 1 1 0-4zm0-135h15a2 2 0 1 1 0 4h-15a2 2 0 1 1 0-4zm0 46h15a2 2 0 1 1 0 4h-15a2 2 0 1 1 0-4zm0 67h15a2 2 0 1 1 0 4h-15a2 2 0 1 1 0-4zm0-23h15a2 2 0 1 1 0 4h-15a2 2 0 1 1 0-4zm0-134h15a2 2 0 1 1 0 4h-15a2 2 0 1 1 0-4z"/><clipPath id="p2bqe"><use fill="#fff" xlink:href="#p2bqa"/></clipPath><clipPath id="p2bqf"><use fill="#fff" xlink:href="#p2bqb"/></clipPath><mask id="p2bqh" width="2" height="2" x="-1" y="-1"><path fill="#fff" d="M825 9976h386v236H825z"/><use xlink:href="#p2bqc"/></mask><filter id="p2bqg" width="552" height="423" x="742" y="9893" filterUnits="userSpaceOnUse"><feOffset dy="21" in="SourceGraphic" result="FeOffset1092Out"/><feGaussianBlur in="FeOffset1092Out" result="FeGaussianBlur1093Out" stdDeviation="29.2 29.2"/></filter><clipPath id="p2bqi"><use fill="#fff" xlink:href="#p2bqc"/></clipPath><clipPath id="p2bqj"><use fill="#fff" xlink:href="#p2bqd"/></clipPath></defs><g><g transform="translate(-769 -9939)"><use fill="#003b5b" xlink:href="#p2bqa"/><use fill="#fff" fill-opacity="0" stroke="#eff3f9" stroke-linecap="round" stroke-linejoin="round" stroke-miterlimit="50" stroke-width="2" clip-path="url(&quot;#p2bqe&quot;)" xlink:href="#p2bqa"/></g><g transform="translate(-769 -9939)"><use fill="#003b5b" xlink:href="#p2bqb"/><use fill="#fff" fill-opacity="0" stroke="#eff3f9" stroke-linecap="round" stroke-linejoin="round" stroke-miterlimit="50" stroke-width="2" clip-path="url(&quot;#p2bqf&quot;)" xlink:href="#p2bqb"/></g><g transform="translate(-769 -9939)"><g filter="url(#p2bqg)"><use fill="none" stroke-opacity=".27" stroke-width="0" mask="url(&quot;#p2bqh&quot;)" xlink:href="#p2bqc"/><use fill-opacity=".27" xlink:href="#p2bqc"/></g><use fill="#003b5b" xlink:href="#p2bqc"/><use fill="#fff" fill-opacity="0" stroke="#e0e7ea" stroke-linecap="round" stroke-linejoin="round" stroke-miterlimit="50" stroke-width="2" clip-path="url(&quot;#p2bqi&quot;)" xlink:href="#p2bqc"/></g><g transform="translate(-769 -9939)"><use fill="#fff" xlink:href="#p2bqd"/><use fill="#fff" fill-opacity="0" stroke="#fff" stroke-linecap="round" stroke-linejoin="round" stroke-miterlimit="50" stroke-width="2" clip-path="url(&quot;#p2bqj&quot;)" xlink:href="#p2bqd"/></g><g transform="translate(-769 -9939)"><use fill="#fff" xlink:href="#p2bqk"/></g></g></svg>