<svg xmlns="http://www.w3.org/2000/svg" xmlns:xlink="http://www.w3.org/1999/xlink" width="253" height="89" viewBox="0 0 253 89"><defs><path id="60wia" d="M653 2438.998c0-5.737 4.393-10.45 10-10.955V2399a5 5 0 0 1 5-5h219a5 5 0 0 1 5 5v79a5 5 0 0 1-5 5H668a5 5 0 0 1-5-5v-28.047c-5.607-.505-10-5.216-10-10.955zM642.5 2436a3.5 3.5 0 1 1 0 7 3.5 3.5 0 0 1 0-7z"/><path id="60wib" d="M653 2438.998c0-5.737 4.393-10.45 10-10.955V2399a5 5 0 0 1 5-5h219a5 5 0 0 1 5 5v79a5 5 0 0 1-5 5H668a5 5 0 0 1-5-5v-28.047c-5.607-.505-10-5.216-10-10.955zM642.5 2436a3.5 3.5 0 1 1 0 7 3.5 3.5 0 0 1 0-7z"/><clipPath id="60wic"><use fill="#fff" xlink:href="#60wia"/></clipPath></defs><g><g transform="translate(-639 -2394)"><use fill="#003b5b" xlink:href="#60wib"/><use fill="#fff" fill-opacity="0" stroke="#e0e7ea" stroke-linecap="round" stroke-linejoin="round" stroke-miterlimit="50" stroke-width="2" clip-path="url(&quot;#60wic&quot;)" xlink:href="#60wib"/></g></g></svg>