<?xml version="1.0" encoding="utf-8"?><svg xmlns="http://www.w3.org/2000/svg" xmlns:xlink="http://www.w3.org/1999/xlink"><symbol viewBox="0 0 344.96 344.96" id="check" xmlns="http://www.w3.org/2000/svg"><defs><style>.acls-1{fill:#e75713}</style></defs><g id="aСлой_2" data-name="Слой 2"><path class="acls-1" d="M321.85 86.24l-40-23.11-23.1-40H212.5L172.48 0l-40 23.11H86.24l-23.11 40-40 23.1v46.21L0 172.48l23.11 40v46.21l40 23.11 23.11 40h46.21l40 23.1 40-23.11h46.21l23.11-40 40-23.11V212.5l23.11-40-23.11-40V86.24zM156.91 243.07a16.79 16.79 0 0 1-23.34 0l-50.45-50.44a16.19 16.19 0 0 1 0-22.89l13.35-13.35a16.19 16.19 0 0 1 22.89 0l25.87 25.87 80.34-80.35a16.19 16.19 0 0 1 22.89 0l13.35 13.35a16.19 16.19 0 0 1 0 22.89z" id="aCapa_1" data-name="Capa 1"/></g></symbol><symbol viewBox="0 0 31 22" id="head-i-1" xmlns="http://www.w3.org/2000/svg"><defs><path id="ba" d="M394.88 310.1l-1.83 1.78.43 2.5a.5.5 0 0 1-.72.52l-2.26-1.18-2.26 1.18a.5.5 0 0 1-.72-.52l.43-2.5-1.83-1.77a.5.5 0 0 1 .28-.86l2.52-.36 1.13-2.28a.5.5 0 0 1 .9 0l1.13 2.28 2.52.36a.5.5 0 1 1 .28.85zm-1.43 0l-1.78-.26a.5.5 0 0 1-.37-.27l-.8-1.6-.8 1.6a.5.5 0 0 1-.37.27l-1.78.26 1.28 1.25a.5.5 0 0 1 .15.44l-.3 1.76 1.59-.83a.5.5 0 0 1 .46 0l1.6.83-.3-1.76a.5.5 0 0 1 .14-.44zm-12.58-3.55a11.2 11.2 0 0 0-.47 3.15l.06-.11c.64-1.16 1.69-2 2.96-2.37a.5.5 0 0 1 .62.34 4.93 4.93 0 0 1-2.97 5.98 11.1 11.1 0 0 0 4.38 5.54.5.5 0 1 1-.55.84c-.66-.43-1.27-.93-1.83-1.48a4.92 4.92 0 0 1-3.35.88 4.93 4.93 0 0 1-3.34-1.78.5.5 0 0 1 .07-.7 4.97 4.97 0 0 1 4.66-.88c-.27-.45-.5-.91-.71-1.39l-.5.03a4.94 4.94 0 0 1-4.9-4.19.5.5 0 0 1 .42-.57 4.94 4.94 0 0 1 4.05 1.2c-.05-.53-.08-1.06-.06-1.59a4.94 4.94 0 0 1-3.48-5.82.5.5 0 0 1 .6-.37 4.92 4.92 0 0 1 3.44 2.8c.13-.38.27-.77.43-1.15a4.89 4.89 0 0 1-.93-6.7.5.5 0 0 1 .7-.12 4.92 4.92 0 0 1 2.08 3.84c.23-.27.47-.54.73-.8a.5.5 0 0 1 .7.71c-.35.36-.68.74-.99 1.13a4.94 4.94 0 0 1 3.77-.19c.26.1.4.38.3.64a4.96 4.96 0 0 1-5.9 3.13zm-2.09-.59a3.93 3.93 0 0 0-1.96-1.58c-.15 1.75.9 3.4 2.56 4.02a3.9 3.9 0 0 0-.6-2.44zm1.19 7.64a3.96 3.96 0 0 0-3.8-2.82h-.06a3.94 3.94 0 0 0 3.85 2.82zm2.3 4.17a3.98 3.98 0 0 0-4.75-.48 3.92 3.92 0 0 0 4.76.48zm-1.37-5.23a3.94 3.94 0 0 0 2.3-4.18 3.92 3.92 0 0 0-2.3 4.18zm.4-6.91c1.73.36 3.5-.49 4.31-2.05a3.94 3.94 0 0 0-4.32 2.05zm-.5-1.7c.82-1.55.5-3.48-.8-4.69a3.9 3.9 0 0 0 .8 4.7zm19.8 10.64c-.2.48-.44.94-.7 1.38a4.91 4.91 0 0 1 4.65.88.5.5 0 0 1 .07.7 4.96 4.96 0 0 1-6.69.91c-.56.55-1.18 1.05-1.83 1.48a.5.5 0 0 1-.7-.14.5.5 0 0 1 .15-.7 11.3 11.3 0 0 0 4.38-5.54 4.9 4.9 0 0 1-2.97-5.98.5.5 0 0 1 .62-.34 4.93 4.93 0 0 1 3.02 2.48c0-1.06-.16-2.12-.47-3.15a4.98 4.98 0 0 1-5.9-3.13.5.5 0 0 1 .3-.64 4.94 4.94 0 0 1 3.78.2c-.3-.4-.64-.78-1-1.14a.5.5 0 0 1 .7-.7c.27.25.51.52.74.8a4.9 4.9 0 0 1 2.08-3.84.5.5 0 0 1 .7.1 4.92 4.92 0 0 1-.93 6.7c.16.39.3.78.43 1.17a4.94 4.94 0 0 1 3.44-2.81.5.5 0 0 1 .6.37 4.88 4.88 0 0 1-3.48 5.82c.02.53 0 1.06-.06 1.59a4.97 4.97 0 0 1 4.04-1.2c.28.04.47.3.42.57a4.9 4.9 0 0 1-4.88 4.19c-.17 0-.34-.01-.5-.03zm1.02-6.17a3.91 3.91 0 0 0 2.56-4.02 3.95 3.95 0 0 0-2.56 4.02zm-.59 5.2a3.96 3.96 0 0 0 3.86-2.82 3.96 3.96 0 0 0-3.86 2.82zm-1.32-7.97a3.94 3.94 0 0 0-4.32-2.05 3.97 3.97 0 0 0 4.32 2.05zm1.28-6.39a3.9 3.9 0 0 0-.8 4.7 3.93 3.93 0 0 0 .8-4.7zm-2.27 18.53c1.5.92 3.46.72 4.76-.48a3.94 3.94 0 0 0-4.76.48zm-.91-9.41a3.92 3.92 0 0 0 2.3 4.18 3.94 3.94 0 0 0-2.3-4.18z"/></defs><use xlink:href="#ba" transform="translate(-375 -298)"/></symbol><symbol viewBox="0 0 31 23" id="head-i-2" xmlns="http://www.w3.org/2000/svg"><defs><path id="ca" d="M384.3 346.33v4.21c0 .29-.23.52-.52.52h-3.61a.52.52 0 0 1-.52-.52v-4.2c0-.3.23-.53.52-.53h3.61c.29 0 .52.23.52.52zm-1.03 3.69v-3.17h-2.59v3.17zm9.81-3.69v4.21c0 .29-.23.52-.52.52h-3.61a.52.52 0 0 1-.52-.52v-4.2c0-.3.23-.53.52-.53h3.61c.29 0 .52.23.52.52zm-1.03.52h-2.59v3.17h2.59zm1.03 6.82v4.2c0 .3-.23.52-.52.52h-3.61a.52.52 0 0 1-.52-.52v-4.2c0-.3.23-.53.52-.53h3.61c.29 0 .52.24.52.53zm-1.03.52h-2.59v3.16h2.59zm9.3-7.86v4.21c0 .29-.24.52-.52.52h-3.62a.52.52 0 0 1-.51-.52v-4.2c0-.3.23-.53.51-.53h3.62c.28 0 .52.23.52.52zm-1.04.52h-2.58v3.17h2.58zm-16.01 6.82v4.2c0 .3-.23.52-.52.52h-3.61a.52.52 0 0 1-.52-.52v-4.2c0-.3.23-.53.52-.53h3.61c.29 0 .52.24.52.53zm-1.03 3.68v-3.16h-2.59v3.16zm18.08-3.68v4.2c0 .3-.24.52-.52.52h-3.62a.52.52 0 0 1-.51-.52v-4.2c0-.3.23-.53.51-.53h3.62c.28 0 .52.24.52.53zm-1.04.52h-2.58v3.16h2.58zm3.1-16.2c.29 0 .52.24.52.53v2.08h.52c.28 0 .51.24.51.52v2.6c0 .3-.23.53-.51.53h-.52v15.7H406V361h-31v-1.04h2.07v-15.71h-.52a.52.52 0 0 1-.52-.52v-2.6c0-.3.23-.53.52-.53h.52v-2.08c0-.29.23-.52.51-.52zm-25.31 2.61h24.8v-1.56h-24.8zm24.8 19.36v-15.71h-24.8v15.7zm1.03-16.75v-1.57h-26.86v1.57z"/></defs><use xlink:href="#ca" transform="translate(-375 -338)"/></symbol><symbol viewBox="0 0 28 26" id="head-i-3" xmlns="http://www.w3.org/2000/svg"><defs><path id="da" d="M403.13 383.1l-.3.3c-.43.43-.95.7-1.5.81a3.22 3.22 0 0 1-.5 3.95l-2.82 2.8-.1.1-.47.47a1.59 1.59 0 0 1-2.25 0l-.45-.45-1.65 7.46a2.75 2.75 0 0 1 2.56 2.74v.17c0 .3-.24.55-.55.55h-4.66c-.75 0-1.37-.62-1.37-1.38v-9.76l-2.89-2.88a.56.56 0 0 1 .1-.86l-2.44-1.69a.55.55 0 0 1-.14-.77.55.55 0 0 1 .76-.14l2.84 1.96 2.33-1.47-8.73-4.8-1.02 1.01 1.6 1.15a.55.55 0 0 1-.63.9l-2.14-1.53a.54.54 0 0 1-.2-.3l-1.72-1.07a1.67 1.67 0 0 1-.3-2.6c.55-.56 1.4-.66 2.06-.24l2.31 1.44c.07.01.14.03.2.07l6.55 3.6-.4-.41a.55.55 0 0 1 0-.78l.04-.05-.73-.73h-.1c-.42 0-.82-.15-1.13-.46l-.59-.58a1.6 1.6 0 0 1 0-2.26l.9-.9a1.59 1.59 0 0 1 2.26 0l.58.58c.34.34.49.8.46 1.24l.72.73.06-.06a.55.55 0 0 1 .78 0l1.6 1.61c.15.15.36.2.55.13l2.34-.77a2.7 2.7 0 0 1 2.79.66l.09.09c.11-.54.38-1.06.8-1.48l.31-.31a2.96 2.96 0 0 1 4.2 0 2.98 2.98 0 0 1 0 4.2zm-23.24-3.44l-1.92-1.2a.57.57 0 0 0-.7.08.57.57 0 0 0 .1.9l1.69 1.05zm17.6 4.3l1.46-.27a3.11 3.11 0 0 1-.87-1.05zm-9.83-5.43c.2-.2.2-.5 0-.7l-.58-.59a.49.49 0 0 0-.35-.14.49.49 0 0 0-.35.14l-.9.9a.5.5 0 0 0 0 .7l.58.6c.2.18.5.18.7 0zm.36 2.09l.82-.83-.44-.44-.82.82zm4.89 19.01h-2.74v1c0 .14.12.27.27.27h4.07a1.65 1.65 0 0 0-1.6-1.27zm.52-7.73l-.9 1.46a.54.54 0 0 1-.47.26.55.55 0 0 1-.4-.16l-1.5-1.5v6.57h1.8zm.53-2.91l-3.32-3.31-3.2 2 4.52 4.51.5-.81-1.5-1.5a.55.55 0 0 1 0-.79.55.55 0 0 1 .78 0l1.32 1.33zm3.34-7.28l-.34-.34a1.61 1.61 0 0 0-1.67-.4l-2.33.78c-.6.2-1.23.04-1.67-.4l-1.22-1.22-1.7 1.7 2.04 2.06 2.9-.65c.3-.07.6.12.66.41.07.3-.12.6-.41.66l-2.23.5 3.15 3.15zm-.02 8.22a.5.5 0 0 0-.14-.35l-.77-.77-.01-.01a.52.52 0 0 1-.18-.11.5.5 0 0 0-.51.12l-.47.47a.5.5 0 0 0-.09.12l-.06.25c0 .12.06.24.15.33l.77.78c.2.19.5.19.7 0l.28-.29a.5.5 0 0 1 .06-.07l.18-.17a.5.5 0 0 0 .1-.3zm3.4-4.07c0-.47-.15-.93-.44-1.3l-3.3.63-1.08 2.38c.2-.02.39 0 .57.05l1.03-1.03a.55.55 0 0 1 .78 0c.21.21.21.56 0 .78l-.88.87.56.56c.12.12.21.26.29.4l1.84-1.83c.4-.4.63-.93.63-1.5zm1.68-6.2a1.86 1.86 0 0 0-2.64 0l-.31.32a1.88 1.88 0 0 0 0 2.65c.72.73 1.9.73 2.64 0l.3-.31c.73-.73.73-1.92 0-2.65zm-19.11 4.23a.55.55 0 0 1-.55.55.55.55 0 0 1-.55-.55c0-.14.06-.29.16-.39.1-.1.25-.16.39-.16s.29.06.39.16c.1.1.16.25.16.4zm7.12 4.06a.55.55 0 0 1-.55.55.55.55 0 0 1-.54-.55.55.55 0 0 1 .94-.39c.1.1.15.25.15.4zm-6.4 0a.55.55 0 0 1-.77.13l-4.48-3.17a.55.55 0 0 1-.14-.77c.18-.25.52-.3.77-.13l4.48 3.17c.25.17.3.52.13.77z"/></defs><use xlink:href="#da" transform="translate(-376 -376)"/></symbol></svg>