<svg xmlns="http://www.w3.org/2000/svg" viewBox="0 0 1270.78 298.85"><title>logo</title><g id="Слой_2" data-name="Слой 2"><g id="Слой_1-2" data-name="Слой 1"><path d="M708.35,239.14C697.72,257.2,687,275.2,676.56,293.38c-1.86,3.24-3.88,4.4-7.47,4.18-4.79-.29-9.61-.07-15.28-.07l5.38-59.14-.88-.2q-6.09,17.85-12.18,35.7c-2.31,6.77-4.48,13.59-7,20.28-.51,1.36-2.21,3.14-3.44,3.21-6.46.32-12.95.15-20.32.15l24.43-72.15c-10.88,0-21.16-.12-31.43.15-1.31,0-2.56,2.1-4.65,3.94l14.65,5.41-4.75,13.82c-4.37-1.52-8.62-2.77-12.67-4.48-2.52-1.07-4-.92-6,1.25-3.43,3.81-7.4,7.14-11.74,11.23l24.23,9.88c-1.2,3.71-2.39,7.47-3.65,11.22-.2.6-.76,1.59-1.06,1.56-5.94-.67-5.39,4.8-7.1,7.8-1.58,2.76-2.77,4.18-6.08,2.59-3.57-1.71-7.37-3-11.41-4.53l3.69-12.71c-4.92-2.81-9.62-5.58-14.42-8.17a5,5,0,0,0-3.27-.34c-25.1,6.26-55.81-7.75-65.93-35.93-1-2.81-2.79-2.73-5-2.73q-24,0-48,0h-6c4.49-13.12,8.75-25.85,13.34-38.45.36-1,3-1.62,4.61-1.64,12.48-.13,25-.07,37.81-.07l-1.8-10L505.58,171l-1.66-16.79L491,152.62V142.11c-2.26-.11-4-.27-5.81-.27-10,0-20,.18-30-.11-4-.11-6.42.85-7,5-.6,4.64-3,6.2-7.81,5.87-7-.48-14,0-21-.2-3.22-.11-4.55,1-5.58,4.06-7.64,22.87-15.59,45.64-23.21,68.51-1.1,3.31-2.58,4.34-6,4.24-8.65-.25-17.31-.08-27.06-.08l25.94-76.69H352.76l3.15-10.6c-4.17,0-7.84-.38-11.36.19-1.33.22-2.83,2.44-3.38,4q-12.54,36.32-24.83,72.72c-3.51,10.32-3.49,10.32-14.49,10.32-4.33,0-8.71-.4-13,.11-5,.6-6.85-1.66-8.29-6.05-5.11-15.6-10.61-31.08-17-46.73-1.8,5.18-3.63,10.34-5.39,15.53-3.74,11-7.53,22-11.12,33.12-1,3-2.33,4.21-5.62,4.1-8-.26-16-.08-24.89-.08l29.59-87.26c-5.67,0-10.78-.33-15.78.23-1.28.14-2.84,2.95-3.24,4.75-1,4.57-3.33,5.86-8,5.75-15.15-.35-30.31-.13-45.79-.13L168.7,166.2h47.74c-2.35,6.93-4.34,13.37-6.83,19.61-.4,1-3,1.58-4.61,1.6-13,.13-26,.18-39,0-3.32,0-5.17.7-6.06,4.14-1.16,4.47-2.85,8.81-4.5,13.76h52.91c-2.57,7.61-4.86,14.71-7.45,21.7a4.31,4.31,0,0,1-3.32,2.06c-27,.12-54,.09-81.95.09l29.56-87.21c-6.66,0-12.72-.2-18.73.2-1,.07-2.22,2.59-2.76,4.18-8.9,26-17.8,51.92-26.43,78-1.28,3.88-3,5.06-7,5-14.33-.26-28.66-.18-43,0-2.82,0-4.1-.87-5-3.51Q21.63,165.52.87,105.38c-.36-1.05-.5-2.19-.87-3.87,9.85,0,19.3-.15,28.73.19,1.17,0,2.72,2.51,3.29,4.13q13.66,39.1,27.08,78.28c.81,2.34,1.65,4.68,3,8.54l22.37-65.52H683.14V116.32h-6.41q-306.74,0-613.47.17c-6,0-8.8-1.68-9.88-7.26A77.83,77.83,0,0,0,51,101.48h6.8q217,0,434,.1c4.7,0,7.94-.54,9.06-5.78.21-1,2.66-2.21,3.9-2a79.22,79.22,0,0,1,9.79,2.47l7.59-15.14-10.34-8.38L520.89,59l11.64,6.53,11.24-12.66-7.88-10.76,12.89-11.25L557.16,41,572,31.23l-4.85-12.4c4.19-2.07,8.23-4.27,12.47-6,1-.4,3.14.42,3.84,1.37a96.13,96.13,0,0,1,5.3,8.76l16-5.26L603.5,4.42l16-3.23L623.24,14l16.79-1L642.23,0l15.61.9a8.22,8.22,0,0,1,.71,1.59c.33,3.92-.83,9.66,1.27,11.34,3.27,2.61,8.72,2.6,13.3,3.34,1,.16,2.68-1,3.22-2,1.58-2.89,2.75-6,4.35-9.67L696.3,10.8,693,23.67l15,7.6,8.45-10.34,13.73,9.14-6.57,11.63,12.76,11.23L747.13,45l10.79,12.45-6.16,6.62c1.59.51,2.77.91,4,1.26,17,5.15,29.64,15.64,37.05,31.82,1.64,3.59,3.4,4.4,7,4.38,19.83-.16,39.67,0,59.5-.15,3.35,0,4.94.84,6,4.2,3.8,11.84,8,23.55,12.37,36.22h-5.86c-24.33,0-48.66.05-73-.06-3.38,0-5,1.11-6.86,4.1-4.84,7.63-10.6,14.67-16.21,22.24l11.77,3.63L785.2,185h250.27c-1.57,4.7-2.78,8.76-4.34,12.69a4.42,4.42,0,0,1-2.9,2,23.67,23.67,0,0,1-5,.11H608.7l.51,10.53h652.9c-2.46,7.25-4.55,13.83-7,20.26-.36.91-2.72,1.46-4.17,1.47-11.16.12-22.35.48-33.49-.1-5.86-.3-8.62,1.63-9.39,7.18a40.55,40.55,0,0,1-1.17,4.39h40.59c-2,6.17-3.67,11.66-5.78,17-.38.95-2.71,1.56-4.16,1.57q-16.75.19-33.5,0c-2.72,0-4.28.58-5,3.47-.92,3.67-2.36,7.22-3.79,11.46h45.38c-2.27,6.64-4.21,12.6-6.41,18.47a3.8,3.8,0,0,1-2.88,1.91c-23.15.11-46.3.08-70.28.08l24.35-71.86H1168.3c-5.63,16.53-11.32,33.19-17,49.85-2.09,6.14-4.26,12.26-6.2,18.45-.81,2.58-2,3.76-4.88,3.64-6.16-.25-12.34-.26-18.49,0-3.09.13-4.34-1.07-5.27-3.86-4.26-12.78-8.74-25.49-13.15-38.22-.32-.91-.73-1.8-1.53-3.78-3.74,10.89-7.11,20.82-10.55,30.72-1.69,4.86-2.15,11.62-5.59,14-3.66,2.53-10.2.92-15.49,1.06-2.79.07-5.58,0-9,0l24.47-72.16c-5.85,0-11.1-.26-16.29.19-1.23.11-2.74,2.43-3.29,4-7.35,21.22-14.64,42.46-21.71,63.77-1.08,3.27-2.5,4.4-5.94,4.27-7.3-.28-14.62-.09-22.7-.09l24.45-72.16c-5.51,0-10.52-.29-15.45.18-1.47.14-3.43,2.2-4,3.79-7.33,21-14.56,42.13-21.51,63.3-1.27,3.88-3,5.19-7,5-7-.36-14-.1-21.87-.1l11.4-34.31c-9.19,0-17.66-.14-26.1.16-1.15,0-2.73,2.1-3.25,3.54-3.2,8.92-6.28,17.89-9.12,26.92-.91,2.91-2.32,3.83-5.3,3.75-7.48-.2-15-.07-23.18-.07l24.39-72h-19l1.2,12.32-25,5.27c-2.88-12.15-10.86-15.52-21.55-9.23a25.61,25.61,0,0,0-7.17,6.1c-6.29,8.09-9.47,17.55-10.38,27.65-.59,6.46,2.81,10,9.25,10.49a19.88,19.88,0,0,0,17.3-7.2c2.38-2.76,4.42-5.82,7-9.26l20.93,6.89C905.47,280.2,897,289,885.29,294.26c-12.5,5.57-25.63,5.68-38.67,2.42-11.38-2.85-18-13.39-17-26.05a70.81,70.81,0,0,1,18-41.91c.75-.85,1.52-1.69,2.73-3H811l2.3,71.44H785.48V283.18c-9.33,0-18.44-.14-27.54.16-1.31,0-3.14,1.93-3.73,3.38-3.73,9.14-10.26,12.41-19.93,10.89-4.48-.7-9.15-.12-14.81-.12l50.92-72.15c-11.11,0-21.33-.16-31.54.21-1.24,0-2.89,2.77-3.5,4.54-7.16,20.75-14.32,41.51-21.09,62.39-1.37,4.22-3.41,5.31-7.46,5.08-5.45-.31-10.93-.08-17.13-.08l19.65-58ZM552.49,141.82v8.66c1.86.22,3.67.42,5.48.64,19.94,2.47,34.77,12.64,44.37,30.16,1.77,3.23,3.64,3.93,6.94,3.92,34.33-.1,68.66-.06,103-.06,8.78,0,8.78,0,11.27-8.72,0-.16.05-.33.11-.7-1.33-.52-2.72-1-4.09-1.6-13.43-5.61-23.73-14.77-30.14-27.84-1.79-3.65-3.81-4.55-7.56-4.54-41.16.12-82.33.07-123.5.07Zm-24.2-40.34c6,0,10.81-.22,15.59.07,3.58.22,5.49-1,7.44-4.14,20.24-32.86,49.72-50.17,88.38-50.84,24.89-.43,47,7.9,66.26,23.68,1.24,1,3.65,1.78,5,1.27,5.24-2,10.26-4.55,15.3-6.87-21.37-24-61.41-42.44-105.18-35.09C578.08,36.8,547.77,61.22,528.29,101.48Zm38.65-.5c.51.21.66.33.81.33q58.24.09,116.48.11a3.76,3.76,0,0,0,2.85-1.28c3.36-5.84,6.52-11.79,9.77-17.74C657,47,593.67,57.88,566.94,101Zm192,57.46c19.45-7.63,29.24-32.93,21.12-53.34-7.67-19.3-31.8-32.08-48.21-25.22Zm-198.27,8.34a42.23,42.23,0,0,0-50,30.91c-5,19.3,6.06,42.74,22.88,47.88ZM543,248.91c18.39,6.76,42.7-7.42,49.23-28.23,6.3-20.06-4.88-45.61-22.22-50.1ZM722.22,82.84c-20.45,9.38-29.36,33.83-20.58,54.62,7.88,18.66,31.19,30.58,47.74,24.16ZM856,126.91c-.58-9.3-1.86-10.6-10.19-10.6H798v10.6Zm-572.1,15.24,13.64,39.63,1,0L312,142.15Zm682.57,83.38-5.31,15.95c9,0,17.41.07,25.85-.09a3.87,3.87,0,0,0,2.89-2c1.72-4.44,3.12-9,4.76-13.89Zm164,30.94,1.12.19,10.59-31.11h-22.32Zm-451.2-30.89L676,260l1.06.23,20.32-34.65ZM495,199.85c-10.12,0-19.7-.06-29.27.09A4,4,0,0,0,463,202c-1.15,2.52-1.89,5.22-2.92,8.22H494.4Zm24.32-39.93c5.63-2.35,11-4.53,16.24-6.86a3.09,3.09,0,0,0,1.61-2.12c.19-2.91.08-5.85.08-8.71H519.34ZM768.89,263.59h17.52V236.13Zm-10.73-87.81c-5.33.74-10.05,1.81-14.8,2-5.07.16-6.41,2.64-6.08,7.42,4.33,0,8.5-.38,12.57.1,4.79.56,7.09-1.2,7.51-5.87A30.28,30.28,0,0,1,758.17,175.78Z"/><path d="M1270.78,185.15c-1.66,4.81-2.81,9-4.61,12.84-.5,1.08-2.94,1.74-4.5,1.75-14.5.13-29,.08-43.49.08H1094.39c1.67-4.86,2.94-9.09,4.67-13.13.37-.87,2.39-1.45,3.66-1.47,8-.13,16-.07,24-.07h144.07Z"/><path d="M1081,185.15c-1.56,4.64-2.75,8.6-4.27,12.43a3.91,3.91,0,0,1-2.79,2.12c-8.11.17-16.23.1-25.07.1,1.56-4.64,2.75-8.73,4.38-12.64a4.43,4.43,0,0,1,3.4-1.92C1064.46,185.07,1072.27,185.15,1081,185.15Z"/></g></g></svg>