<?xml version="1.0" encoding="utf-8"?>
<!-- Generator: Adobe Illustrator 22.0.1, SVG Export Plug-In . SVG Version: 6.00 Build 0)  -->
<svg version="1.1" id="Layer_1" xmlns="http://www.w3.org/2000/svg" xmlns:xlink="http://www.w3.org/1999/xlink" x="0px" y="0px"
	 viewBox="0 0 359.9 359.9" style="enable-background:new 0 0 359.9 359.9;" xml:space="preserve">
<style type="text/css">
	.st0{fill:#FFFFFF;}
</style>
<g id="XMLID_961_">
	<g>
		<g>
			<path class="st0" d="M95.9,93.6c9,0,17.4-3.5,23.8-9.9c2.1-2.1,4-4.6,5.5-7.2c7.3-1.5,14-5.1,19.3-10.5
				c7.3-7.3,11.3-17,11.3-27.3s-4-20-11.3-27.3C137.2,4,127.5,0,117.1,0s-20,4-27.3,11.3c-5.3,5.3-8.9,12-10.5,19.3
				c-2.6,1.5-5.1,3.3-7.2,5.5c-6.4,6.4-9.9,14.8-9.9,23.8c0,9,3.5,17.4,9.9,23.8C78.4,90.1,86.9,93.6,95.9,93.6z M86.2,50.2
				c1.5-1.5,3.3-2.6,5.4-3.3l6.6-2.2l0.3-6.9c0.2-4.7,2.1-9.1,5.4-12.4c3.5-3.5,8.2-5.5,13.2-5.5s9.7,1.9,13.2,5.5
				c7.3,7.3,7.3,19.1,0,26.4c-3.3,3.3-7.7,5.2-12.4,5.4l-6.9,0.3l-2.2,6.6c-0.7,2-1.8,3.9-3.3,5.4c-2.6,2.6-6,4-9.7,4
				c-3.7,0-7.1-1.4-9.7-4s-4-6-4-9.7C82.2,56.3,83.6,52.8,86.2,50.2z"/>
			<path class="st0" d="M290,213.1v-31.4l-64.8,31.4v-32.6l-88.5,50l-9.5-128.3H59.9L54,190.6H5.2v92.6V315v45h125.5H198h31.3h77.4
				h48V181.7L290,213.1z M78.6,122.2h30l1.8,24.3H76.9L78.6,122.2z M75.6,166.5h36.3l1.8,24.1H74L75.6,166.5z M72.7,210.6h42.5
				l2,26.3H70.9L72.7,210.6z M25.2,210.6h27.4l-4.8,72.6H25.2V210.6z M117.9,339.9H25.2v-25v-11.7h41.3l3.1-46.3h48.3L117.9,339.9
				L117.9,339.9z M178,339.9h-40.1v-36.3H178V339.9z M286.7,339.9h-37.4v-36.3h37.4V339.9z M306.7,339.9v-56.3h-77.4v56.3H198v-56.3
				h-60.1v-30.8l67.3-38v30.3l64.8-31.4v31.4l64.8-31.4v126.3L306.7,339.9L306.7,339.9z"/>
		</g>
	</g>
</g>
</svg>
