<?xml version="1.0" encoding="utf-8"?>
<!-- Generator: Adobe Illustrator 22.0.1, SVG Export Plug-In . SVG Version: 6.00 Build 0)  -->
<svg version="1.1" id="Layer_1" xmlns="http://www.w3.org/2000/svg" xmlns:xlink="http://www.w3.org/1999/xlink" x="0px" y="0px"
	 viewBox="0 0 359.3 359.3" style="enable-background:new 0 0 359.3 359.3;" xml:space="preserve">
<style type="text/css">
	.st0{fill:#FFFFFF;}
</style>
<g id="XMLID_891_">
	<g>
		<path class="st0" d="M347.5,296.7h-72L232.3,64.6h38.1v42.1h20V64.6h19.3v-20h-80.1V0h-99.9v44.6H49.6v20h19.3v42.1h20V64.6H127
			L83.9,296.7h-72v20h25.4v42.6h88.1v-42.6H234v42.6h88.1v-42.6h25.4L347.5,296.7L347.5,296.7z M230.3,163l-37.8-46.7L216.2,87
			L230.3,163z M222.6,185.4l-43,39.7l-43-39.7l43-53.2L222.6,185.4z M150.7,64.6h57.8l-28.9,35.8L150.7,64.6z M149.7,20h59.9v24.6
			h-59.9L149.7,20L149.7,20z M143.1,87l23.7,29.3L129,163L143.1,87z M105.3,339.3H57.2v-22.6h22.9h25.2L105.3,339.3L105.3,339.3z
			 M104.6,294.4l17.7-95.1l42.6,39.4L104.6,294.4z M131.6,296.7l48-44.4l48,44.4H131.6z M194.4,238.7l42.6-39.4l17.7,95.1
			L194.4,238.7z M254,339.3v-22.6h25.2h22.9v22.6H254z"/>
	</g>
</g>
</svg>
