<?xml version="1.0" encoding="utf-8"?>
<!-- Generator: Adobe Illustrator 22.0.1, SVG Export Plug-In . SVG Version: 6.00 Build 0)  -->
<svg version="1.1" id="Layer_1" xmlns="http://www.w3.org/2000/svg" xmlns:xlink="http://www.w3.org/1999/xlink" x="0px" y="0px"
	 viewBox="0 0 350.1 350.1" style="enable-background:new 0 0 350.1 350.1;" xml:space="preserve">
<style type="text/css">
	.st0{fill:#FFFFFF;}
</style>
<g id="XMLID_788_">
	<g>
		<g>
			<path class="st0" d="M344.5,190.1l1.2-0.2L320.6,36.8h-64.4l-18.6,113.6l-13-40.3h-61.9l-25.8,80H4.1v160H346v-160H344.5z
				 M273.2,56.8h30.4l21.8,133.3h-74L273.2,56.8z M177.3,130.1h32.8l19.4,60h-71.5L177.3,130.1z M326,330.1H24.1v-120H326V330.1z"/>
			<path class="st0" d="M119.8,233.8h-75v72.6h75V233.8z M99.8,286.4h-35v-32.6h35V286.4z"/>
			<path class="st0" d="M212.6,233.8h-75v72.6h75V233.8z M192.6,286.4h-35v-32.6h35V286.4z"/>
			<path class="st0" d="M305.3,233.8h-75v72.6h75V233.8z M285.3,286.4h-35v-32.6h35V286.4z"/>
			<path class="st0" d="M151.5,76.5c1.5,2.6,3.3,5.1,5.5,7.2c6.4,6.4,14.8,9.9,23.8,9.9c9,0,17.4-3.5,23.8-9.9
				c6.4-6.4,9.9-14.8,9.9-23.8s-3.5-17.4-9.9-23.8c-2.1-2.1-4.6-4-7.2-5.5c-1.5-7.3-5.1-14-10.5-19.3C179.6,4,169.9,0,159.5,0
				c-10.3,0-20,4-27.3,11.3c-7.3,7.3-11.3,17-11.3,27.3c0,10.3,4,20,11.3,27.3C137.5,71.3,144.2,74.9,151.5,76.5z M146.3,25.5
				c3.5-3.5,8.2-5.5,13.2-5.5c5,0,9.7,1.9,13.2,5.5c3.3,3.3,5.2,7.7,5.4,12.4l0.3,6.9l6.6,2.2c2,0.7,3.9,1.8,5.4,3.3
				c2.6,2.6,4,6,4,9.7s-1.4,7.1-4,9.7c-2.6,2.6-6,4-9.7,4s-7.1-1.4-9.7-4c-1.5-1.5-2.6-3.3-3.3-5.4l-2.2-6.6l-6.9-0.3
				c-4.7-0.2-9.1-2.1-12.4-5.4c-3.5-3.5-5.5-8.2-5.5-13.2C140.9,33.7,142.8,29,146.3,25.5z"/>
		</g>
	</g>
</g>
</svg>
