<?xml version="1.0" encoding="utf-8"?>
<!-- Generator: Adobe Illustrator 22.0.1, SVG Export Plug-In . SVG Version: 6.00 Build 0)  -->
<svg version="1.1" id="Layer_1" xmlns="http://www.w3.org/2000/svg" xmlns:xlink="http://www.w3.org/1999/xlink" x="0px" y="0px"
	 viewBox="0 0 334 334" style="enable-background:new 0 0 334 334;" xml:space="preserve">
<style type="text/css">
	.st0{fill:#FFFFFF;}
</style>
<g id="XMLID_903_">
	<g>
		<path class="st0" d="M239.7,270.8V100.6h27.5v-20h-63.9V47.9h13.9v-20H177V0h-20v27.9h-40.1v20h13.9v32.6H66.8v20h27.5v170.2H35.8
			V334h262.4v-63.2H239.7z M219.7,103.4v77l-38.5-38.5L219.7,103.4z M192.1,270.8h-50.2l25.1-25.1L192.1,270.8z M136.3,186.7
			L167,156l30.7,30.7L167,217.4L136.3,186.7z M181.1,231.6l38.5-38.5v77L181.1,231.6z M150.8,47.9h32.4v32.6h-32.4V47.9z
			 M194.2,100.6L167,127.8l-27.2-27.2H194.2z M114.3,103.4l38.5,38.5l-38.5,38.5C114.3,180.4,114.3,103.4,114.3,103.4z M114.3,193.1
			l38.5,38.5l-38.5,38.5C114.3,270.1,114.3,193.1,114.3,193.1z M278.2,314L278.2,314H55.8v-23.2h222.4V314z"/>
	</g>
</g>
</svg>
