<?xml version="1.0" encoding="utf-8"?>
<!-- Generator: Adobe Illustrator 22.0.1, SVG Export Plug-In . SVG Version: 6.00 Build 0)  -->
<svg version="1.1" id="Слой_1" xmlns="http://www.w3.org/2000/svg" xmlns:xlink="http://www.w3.org/1999/xlink" x="0px" y="0px"
	 viewBox="0 0 522 517.7" style="enable-background:new 0 0 522 517.7;" xml:space="preserve">
<style type="text/css">
	.st0{fill:#007AB5;}
	.st1{fill:#FFFFFF;}
</style>
<g>
	
		<ellipse transform="matrix(0.7071 -0.7071 0.7071 0.7071 -106.9023 260.9324)" class="st0" cx="261.5" cy="259.5" rx="219.7" ry="219.7"/>
	<path class="st0" d="M261.8,515.1c-2.5,0-4.6-2-4.6-4.6c0-2.5,2-4.6,4.6-4.6c13.2,0,26.3-1.1,39.2-3.1c2.5-0.4,4.8,1.3,5.2,3.8
		c0.4,2.5-1.3,4.8-3.8,5.2C289.1,514,275.4,515.1,261.8,515.1L261.8,515.1z M340.6,502.4c-1.9,0-3.7-1.2-4.3-3.1
		c-0.8-2.4,0.5-5,2.9-5.8c18.6-6.2,36.6-14.6,53.2-25.1c2.2-1.3,5-0.7,6.3,1.4c1.3,2.1,0.7,5-1.4,6.3c-17.3,10.9-35.9,19.6-55.2,26
		C341.5,502.3,341.1,502.4,340.6,502.4z M123,473.5c-0.9,0-1.7-0.2-2.5-0.8c-42.1-27.9-74.7-67.1-94.4-113.4c-1-2.3,0.1-5,2.4-6
		c2.3-1,5,0.1,6,2.4c19,44.6,50.4,82.5,91,109.3c2.1,1.4,2.7,4.2,1.3,6.3C126,472.8,124.5,473.5,123,473.5z M470.8,402.8
		c-0.9,0-1.7-0.2-2.5-0.8c-2.1-1.4-2.7-4.2-1.3-6.3c26.8-40.4,41-87.5,41-136.2c0-2.5,2-4.6,4.6-4.6c2.5,0,4.6,2,4.6,4.6
		c0,50.5-14.7,99.3-42.5,141.2C473.7,402.1,472.3,402.8,470.8,402.8z M10.6,257.9c0,0-0.1,0-0.1,0c-2.5-0.1-4.5-2.2-4.5-4.7
		c0.5-20.5,3.4-40.8,8.7-60.4c0.7-2.4,3.2-3.9,5.6-3.2c2.4,0.7,3.9,3.2,3.2,5.6c-5.1,18.9-7.9,38.5-8.4,58.3
		C15.1,256,13.1,257.9,10.6,257.9z M492.5,165.6c-1.8,0-3.5-1-4.2-2.8c-5.1-12-11.3-23.7-18.3-34.8c-1.4-2.1-0.7-5,1.4-6.3
		c2.1-1.4,5-0.7,6.3,1.4c7.3,11.5,13.6,23.6,19,36.1c1,2.3-0.1,5-2.4,6C493.7,165.5,493.1,165.6,492.5,165.6z M32.6,160.9
		c-0.6,0-1.3-0.1-1.9-0.4c-2.3-1-3.3-3.8-2.3-6.1c5.6-12.3,12.2-24.4,19.7-35.7c1.4-2.1,4.2-2.7,6.3-1.3c2.1,1.4,2.7,4.2,1.3,6.3
		c-7.2,10.9-13.6,22.5-19,34.4C36,159.9,34.4,160.9,32.6,160.9z M449.8,98.1c-1.3,0-2.5-0.5-3.4-1.6c-13-14.8-27.8-28-43.9-39.2
		c-2.1-1.4-2.6-4.3-1.1-6.4c1.4-2.1,4.3-2.6,6.4-1.1c16.7,11.7,32,25.4,45.5,40.7c1.7,1.9,1.5,4.8-0.4,6.5
		C452,97.7,450.9,98.1,449.8,98.1z M163.3,33c-1.8,0-3.5-1-4.2-2.8c-1-2.3,0.1-5,2.4-6c31.7-13.5,65.3-20.3,100.1-20.3
		c15.6,0,31.3,1.4,46.6,4.2c2.5,0.5,4.1,2.8,3.7,5.3c-0.5,2.5-2.8,4.2-5.3,3.7c-14.7-2.7-29.8-4.1-44.9-4.1
		c-33.5,0-65.9,6.6-96.5,19.6C164.5,32.9,163.9,33,163.3,33z"/>
</g>
<path class="st1" d="M193.3,222.1h-26.4c-2.4,0-4.4,2-4.4,4.4v26.4c0,2.4,2,4.4,4.4,4.4h26.4c2.4,0,4.4-2,4.4-4.4v-26.4
	C197.7,224.1,195.7,222.1,193.3,222.1z M188.9,248.5h-17.6v-17.6h17.6V248.5z"/>
<path class="st1" d="M237.3,222.1h-26.4c-2.4,0-4.4,2-4.4,4.4v26.4c0,2.4,2,4.4,4.4,4.4h26.4c2.4,0,4.4-2,4.4-4.4v-26.4
	C241.7,224.1,239.7,222.1,237.3,222.1z M232.9,248.5h-17.6v-17.6h17.6V248.5z"/>
<path class="st1" d="M281.4,222.1h-26.4c-2.4,0-4.4,2-4.4,4.4v26.4c0,2.4,2,4.4,4.4,4.4h26.4c2.4,0,4.4-2,4.4-4.4v-26.4
	C285.8,224.1,283.8,222.1,281.4,222.1z M277,248.5h-17.6v-17.6H277V248.5z"/>
<path class="st1" d="M299,257.3h26.4c2.4,0,4.4-2,4.4-4.4v-26.4c0-2.4-2-4.4-4.4-4.4H299c-2.4,0-4.4,2-4.4,4.4v26.4
	C294.6,255.4,296.6,257.3,299,257.3z M303.4,230.9H321v17.6h-17.6V230.9z"/>
<path class="st1" d="M193.3,266.1h-26.4c-2.4,0-4.4,2-4.4,4.4V297c0,2.4,2,4.4,4.4,4.4h26.4c2.4,0,4.4-2,4.4-4.4v-26.4
	C197.7,268.1,195.7,266.1,193.3,266.1z M188.9,292.6h-17.6V275h17.6V292.6z"/>
<path class="st1" d="M237.3,266.1h-26.4c-2.4,0-4.4,2-4.4,4.4V297c0,2.4,2,4.4,4.4,4.4h26.4c2.4,0,4.4-2,4.4-4.4v-26.4
	C241.7,268.1,239.7,266.1,237.3,266.1z M232.9,292.6h-17.6V275h17.6V292.6z"/>
<path class="st1" d="M281.4,266.1h-26.4c-2.4,0-4.4,2-4.4,4.4V297c0,2.4,2,4.4,4.4,4.4h26.4c2.4,0,4.4-2,4.4-4.4v-26.4
	C285.8,268.1,283.8,266.1,281.4,266.1z M277,292.6h-17.6V275H277V292.6z"/>
<path class="st1" d="M299,301.4h26.4c2.4,0,4.4-2,4.4-4.4v-26.4c0-2.4-2-4.4-4.4-4.4H299c-2.4,0-4.4,2-4.4,4.4V297
	C294.6,299.4,296.6,301.4,299,301.4z M303.4,275H321v17.6h-17.6V275z"/>
<path class="st1" d="M193.3,310.2h-26.4c-2.4,0-4.4,2-4.4,4.4V341c0,2.4,2,4.4,4.4,4.4h26.4c2.4,0,4.4-2,4.4-4.4v-26.4
	C197.7,312.2,195.7,310.2,193.3,310.2z M188.9,336.6h-17.6V319h17.6V336.6z"/>
<path class="st1" d="M237.3,310.2h-26.4c-2.4,0-4.4,2-4.4,4.4V341c0,2.4,2,4.4,4.4,4.4h26.4c2.4,0,4.4-2,4.4-4.4v-26.4
	C241.7,312.2,239.7,310.2,237.3,310.2z M232.9,336.6h-17.6V319h17.6V336.6z"/>
<path class="st1" d="M281.4,310.2h-26.4c-2.4,0-4.4,2-4.4,4.4V341c0,2.4,2,4.4,4.4,4.4h26.4c2.4,0,4.4-2,4.4-4.4v-26.4
	C285.8,312.2,283.8,310.2,281.4,310.2z M277,336.6h-17.6V319H277V336.6z"/>
<path class="st1" d="M364.3,313.8V158c0-2.4-2-4.4-4.4-4.4h-22v-4.4c0-7.3-5.9-13.2-13.2-13.2c-7.3,0-13.2,5.9-13.2,13.2v4.4h-8.8
	v-4.4c0-7.3-5.9-13.2-13.2-13.2c-7.3,0-13.2,5.9-13.2,13.2v4.4h-8.8v-4.4c0-7.3-5.9-13.2-13.2-13.2c-7.3,0-13.2,5.9-13.2,13.2v4.4
	h-8.8v-4.4c0-7.3-5.9-13.2-13.2-13.2c-7.3,0-13.2,5.9-13.2,13.2v4.4h-8.8v-4.4c0-7.3-5.9-13.2-13.2-13.2c-7.3,0-13.2,5.9-13.2,13.2
	v4.4h-22c-2.4,0-4.4,2-4.4,4.4v211.4c0,2.4,2,4.4,4.4,4.4h155.7c12.1,21.1,39.1,28.3,60.1,16.1c21.1-12.1,28.3-39.1,16.1-60.1
	C376.5,323.2,371,317.6,364.3,313.8z M320.2,149.2c0-2.4,2-4.4,4.4-4.4c2.4,0,4.4,2,4.4,4.4v17.6c0,2.4-2,4.4-4.4,4.4
	c-2.4,0-4.4-2-4.4-4.4V149.2z M285,149.2c0-2.4,2-4.4,4.4-4.4c2.4,0,4.4,2,4.4,4.4v17.6c0,2.4-2,4.4-4.4,4.4c-2.4,0-4.4-2-4.4-4.4
	V149.2z M249.7,149.2c0-2.4,2-4.4,4.4-4.4s4.4,2,4.4,4.4v17.6c0,2.4-2,4.4-4.4,4.4s-4.4-2-4.4-4.4V149.2z M214.5,149.2
	c0-2.4,2-4.4,4.4-4.4c2.4,0,4.4,2,4.4,4.4v17.6c0,2.4-2,4.4-4.4,4.4c-2.4,0-4.4-2-4.4-4.4V149.2z M179.2,149.2c0-2.4,2-4.4,4.4-4.4
	c2.4,0,4.4,2,4.4,4.4v17.6c0,2.4-2,4.4-4.4,4.4c-2.4,0-4.4-2-4.4-4.4V149.2z M152.8,162.4h17.6v4.4c0,7.3,5.9,13.2,13.2,13.2
	c7.3,0,13.2-5.9,13.2-13.2v-4.4h8.8v4.4c0,7.3,5.9,13.2,13.2,13.2c7.3,0,13.2-5.9,13.2-13.2v-4.4h8.8v4.4c0,7.3,5.9,13.2,13.2,13.2
	c7.3,0,13.2-5.9,13.2-13.2v-4.4h8.8v4.4c0,7.3,5.9,13.2,13.2,13.2c7.3,0,13.2-5.9,13.2-13.2v-4.4h8.8v4.4c0,7.3,5.9,13.2,13.2,13.2
	c7.3,0,13.2-5.9,13.2-13.2v-4.4h17.6v35.2H152.8V162.4z M152.8,365.1V206.5h202.6v103.3c-23.2-7.3-47.9,5.6-55.2,28.8
	c-2.7,8.6-2.7,17.8,0,26.4H152.8z M342.2,387.1c-19.5,0-35.2-15.8-35.2-35.2c0-19.5,15.8-35.2,35.2-35.2s35.2,15.8,35.2,35.2
	C377.4,371.3,361.7,387.1,342.2,387.1z"/>
<path class="st1" d="M349.1,333.2l-18.9,15.2l-10.4-10.4c-1.7-1.7-4.5-1.7-6.2,0c-1.7,1.7-1.7,4.5,0,6.2l13.2,13.2
	c1.6,1.6,4.1,1.7,5.9,0.3l22-17.6c1.9-1.5,2.2-4.3,0.7-6.2C353.8,332,351,331.7,349.1,333.2L349.1,333.2z"/>
</svg>
