<?xml version="1.0" encoding="utf-8"?>
<!-- Generator: Adobe Illustrator 22.0.1, SVG Export Plug-In . SVG Version: 6.00 Build 0)  -->
<svg version="1.1" id="Слой_1" xmlns="http://www.w3.org/2000/svg" xmlns:xlink="http://www.w3.org/1999/xlink" x="0px" y="0px"
	 viewBox="0 0 522 517.7" style="enable-background:new 0 0 522 517.7;" xml:space="preserve">
<style type="text/css">
	.st0{fill:#007AB5;}
	.st1{display:none;}
	.st2{display:inline;}
	.st3{fill:#FFFFFF;}
</style>
<g>
	
		<ellipse transform="matrix(0.7071 -0.7071 0.7071 0.7071 -106.9023 260.9324)" class="st0" cx="261.5" cy="259.5" rx="219.7" ry="219.7"/>
	<path class="st0" d="M261.8,515.1c-2.5,0-4.6-2-4.6-4.6c0-2.5,2-4.6,4.6-4.6c13.2,0,26.3-1.1,39.2-3.1c2.5-0.4,4.8,1.3,5.2,3.8
		c0.4,2.5-1.3,4.8-3.8,5.2C289.1,514,275.4,515.1,261.8,515.1L261.8,515.1z M340.6,502.4c-1.9,0-3.7-1.2-4.3-3.1
		c-0.8-2.4,0.5-5,2.9-5.8c18.6-6.2,36.6-14.6,53.2-25.1c2.2-1.3,5-0.7,6.3,1.4c1.3,2.1,0.7,5-1.4,6.3c-17.3,10.9-35.9,19.6-55.2,26
		C341.5,502.3,341.1,502.4,340.6,502.4z M123,473.5c-0.9,0-1.7-0.2-2.5-0.8c-42.1-27.9-74.7-67.1-94.4-113.4c-1-2.3,0.1-5,2.4-6
		c2.3-1,5,0.1,6,2.4c19,44.6,50.4,82.5,91,109.3c2.1,1.4,2.7,4.2,1.3,6.3C126,472.8,124.5,473.5,123,473.5z M470.8,402.8
		c-0.9,0-1.7-0.2-2.5-0.8c-2.1-1.4-2.7-4.2-1.3-6.3c26.8-40.4,41-87.5,41-136.2c0-2.5,2-4.6,4.6-4.6c2.5,0,4.6,2,4.6,4.6
		c0,50.5-14.7,99.3-42.5,141.2C473.7,402.1,472.3,402.8,470.8,402.8z M10.6,257.9c0,0-0.1,0-0.1,0c-2.5-0.1-4.5-2.2-4.5-4.7
		c0.5-20.5,3.4-40.8,8.7-60.4c0.7-2.4,3.2-3.9,5.6-3.2c2.4,0.7,3.9,3.2,3.2,5.6c-5.1,18.9-7.9,38.5-8.4,58.3
		C15.1,256,13.1,257.9,10.6,257.9z M492.5,165.6c-1.8,0-3.5-1-4.2-2.8c-5.1-12-11.3-23.7-18.3-34.8c-1.4-2.1-0.7-5,1.4-6.3
		c2.1-1.4,5-0.7,6.3,1.4c7.3,11.5,13.6,23.6,19,36.1c1,2.3-0.1,5-2.4,6C493.7,165.5,493.1,165.6,492.5,165.6z M32.6,160.9
		c-0.6,0-1.3-0.1-1.9-0.4c-2.3-1-3.3-3.8-2.3-6.1c5.6-12.3,12.2-24.4,19.7-35.7c1.4-2.1,4.2-2.7,6.3-1.3c2.1,1.4,2.7,4.2,1.3,6.3
		c-7.2,10.9-13.6,22.5-19,34.4C36,159.9,34.4,160.9,32.6,160.9z M449.8,98.1c-1.3,0-2.5-0.5-3.4-1.6c-13-14.8-27.8-28-43.9-39.2
		c-2.1-1.4-2.6-4.3-1.1-6.4c1.4-2.1,4.3-2.6,6.4-1.1c16.7,11.7,32,25.4,45.5,40.7c1.7,1.9,1.5,4.8-0.4,6.5
		C452,97.7,450.9,98.1,449.8,98.1z M163.3,33c-1.8,0-3.5-1-4.2-2.8c-1-2.3,0.1-5,2.4-6c31.7-13.5,65.3-20.3,100.1-20.3
		c15.6,0,31.3,1.4,46.6,4.2c2.5,0.5,4.1,2.8,3.7,5.3c-0.5,2.5-2.8,4.2-5.3,3.7c-14.7-2.7-29.8-4.1-44.9-4.1
		c-33.5,0-65.9,6.6-96.5,19.6C164.5,32.9,163.9,33,163.3,33z"/>
</g>
<g class="st1">
	<g class="st2">
		<path class="st3" d="M388.3,153.9l-16.5-16.5c-10.7-10.7-28.8-11.4-40.3-1.4l-28.9,25.1c-0.4,0.3-0.7,0.7-0.9,1.1l-28.2,46.9
			l-18.1,6c-1.5,0.5-2.7,1.8-3.1,3.3c-0.4,1.6,0.1,3.2,1.2,4.4l49.3,49.3c0.9,0.9,2.1,1.4,3.3,1.4c0.4,0,0.7,0,1.1-0.1
			c1.6-0.4,2.8-1.5,3.3-3.1l6-18.1l47.6-28.7c0.4-0.3,0.8-0.6,1.1-0.9l24.5-28.4C399.7,182.7,399,164.7,388.3,153.9z M382.7,188.2
			l-24,27.8l-48.4,29.2c-0.9,0.6-1.7,1.5-2,2.5l-4.2,12.6L293,249.2c0,0,0,0,0,0l-16.4-16.4c0,0,0,0,0,0l-11.1-11.1l12.6-4.2
			c1.1-0.4,1.9-1.1,2.5-2l28.7-47.7l28.4-24.6c7.9-6.8,20.3-6.4,27.7,0.9l16.5,16.5C389.1,167.9,389.5,180.3,382.7,188.2z"/>
	</g>
</g>
<g class="st1">
	<g class="st2">
		<path class="st3" d="M375.1,315.7c-13.6-13.6-33.7-18.4-51.9-12.5l-98.7-98.7c5.9-18.2,1.2-38.3-12.5-51.9
			c-14.4-14.4-35.9-18.9-54.8-11.4c-1.5,0.6-2.5,1.8-2.9,3.4c-0.3,1.5,0.2,3.1,1.3,4.2l29.6,29.6L165.4,198l-29.6-29.6
			c-1.1-1.1-2.7-1.6-4.2-1.3c-1.5,0.3-2.8,1.4-3.4,2.9c-7.4,18.9-2.9,40.4,11.4,54.8c13.6,13.6,33.7,18.4,51.9,12.5l36.9,36.9
			l-46,46l-29.2,16.3c-0.8,0.5-1.5,1.1-1.9,2l-13.1,26.3c-0.9,1.8-0.5,3.9,0.9,5.4l16.4,16.4c0.9,0.9,2.1,1.4,3.3,1.4
			c0.7,0,1.4-0.2,2.1-0.5l26.3-13.1c0.8-0.4,1.5-1.1,2-1.9l16.3-29.2l46-46l38.8,38.8c-5.9,18.2-1.2,38.3,12.5,51.9
			c9.8,9.8,22.8,15,36.2,15c6.3,0,12.6-1.2,18.6-3.5c1.5-0.6,2.5-1.8,2.9-3.4c0.3-1.5-0.2-3.1-1.3-4.2l-29.6-29.6l19.7-19.7
			l29.6,29.6c1.1,1.1,2.7,1.6,4.2,1.3c1.5-0.3,2.8-1.4,3.4-2.9C394,351.5,389.5,330,375.1,315.7z M198.5,337.1
			c-0.3,0.3-0.6,0.6-0.8,1l-16,28.6l-22,11L148.1,366l11-22l28.6-16c0.4-0.2,0.7-0.5,1-0.8l46.4-46.4l9.9,9.9L198.5,337.1z M380,360
			l-27.3-27.3c-1.8-1.8-4.8-1.8-6.6,0l-26.3,26.3c-0.9,0.9-1.4,2.1-1.4,3.3c0,1.2,0.5,2.4,1.4,3.3l27.3,27.3
			c-13.5,2.7-27.7-1.5-37.7-11.5c-11.8-11.8-15.4-29.4-9.4-44.8c0.7-1.7,0.3-3.7-1-5L196.1,228.7c-0.9-0.9-2.1-1.4-3.3-1.4
			c-0.6,0-1.1,0.1-1.7,0.3c-15.5,6.1-33.1,2.4-44.8-9.4c-10-10-14.1-24.2-11.5-37.7l27.3,27.3c1.8,1.8,4.8,1.8,6.6,0l26.3-26.3
			c1.8-1.8,1.8-4.8,0-6.6l-27.3-27.3c13.5-2.7,27.7,1.5,37.7,11.5c11.8,11.8,15.4,29.4,9.4,44.8c-0.7,1.7-0.3,3.7,1,5l102.9,102.9
			c1.3,1.3,3.3,1.7,5,1c15.5-6.1,33.1-2.4,44.8,9.4C378.5,332.2,382.7,346.4,380,360z"/>
	</g>
</g>
<g>
	<g>
		<path class="st3" d="M399.9,278.9h-23.8v-30.8c0-3.5-2.3-5.8-5.8-5.8H267.4v-25h23.8c7,0,12.2-5.2,12.2-12.2v-58.7
			c0-7-5.2-12.2-12.2-12.2h-59.3c-7,0-12.2,5.2-12.2,12.2v59.3c0,7,5.2,12.2,12.2,12.2h23.8v24.4H152.9c-3.5,0-5.8,2.3-5.8,5.8v30.8
			h-23.8c-7,0-12.2,5.2-12.2,12.2v59.3c0,7,5.2,12.2,12.2,12.2h59.3c7,0,12.2-5.2,12.2-12.2v-59.3c0-7-5.2-12.2-12.2-12.2h-23.8v-25
			h97.1v25h-23.8c-7,0-12.2,5.2-12.2,12.2v59.3c0,7,5.2,12.2,12.2,12.2h59.3c7,0,12.2-5.2,12.2-12.2v-59.3c0-7-5.2-12.2-12.2-12.2
			h-23.8v-25h97.1v25h-23.8c-7,0-12.2,5.2-12.2,12.2v59.3c0,7,5.2,12.2,12.2,12.2h59.3c7,0,12.2-5.2,12.2-12.2v-59.3
			C412.1,284.2,406.3,278.9,399.9,278.9z M183.1,291.1C182.5,290.5,183.1,290.5,183.1,291.1v59.3c0,0.6,0,0.6-0.6,0.6h-59.3
			c-0.6,0-0.6,0-0.6-0.6v-59.3c0-0.6,0-0.6,0.6-0.6L183.1,291.1z M291.8,291.1C291.2,290.5,291.8,290.5,291.8,291.1v59.3
			c0,0.6,0,0.6-0.6,0.6h-59.3c-0.6,0-0.6,0-0.6-0.6v-59.3c0-0.6,0-0.6,0.6-0.6L291.8,291.1z M231.3,205.1
			C231.9,205.7,231.3,205.7,231.3,205.1v-58.7c0-0.6,0-0.6,0.6-0.6h59.3c0.6,0,0.6,0,0.6,0.6v59.3c0,0.6,0,0.6-0.6,0.6L231.3,205.1z
			 M400.5,349.8C400.5,350.4,399.9,350.4,400.5,349.8l-59.9,0.6c-0.6,0-0.6,0-0.6-0.6v-58.7c0-0.6,0-0.6,0.6-0.6h59.3
			c0.6,0,0.6,0,0.6,0.6V349.8z"/>
	</g>
</g>
</svg>
