<?xml version="1.0" encoding="utf-8"?><svg xmlns="http://www.w3.org/2000/svg" xmlns:xlink="http://www.w3.org/1999/xlink"><symbol viewBox="0 0 66.01 63.95" id="cach" xmlns="http://www.w3.org/2000/svg"><defs><style>.acls-1{fill:#b60104}</style></defs><g id="aСлой_2" data-name="Слой 2"><g id="aСлой_1-2" data-name="Слой 1"><path id="a_3mdha" data-name="3mdha" class="acls-1" d="M11.83 13L35.39 1.33C39.71-.48 38.6-.9 40.35 3l1.4 2.8-26.32 7.14zM53 5l1.63 8H23.88l18.87-5.18L53 5m9.2 14.21v10.06h-22a6.28 6.28 0 0 0-6.29 6.25v8.2a6.29 6.29 0 0 0 6.3 6.28h22v10.26A3.7 3.7 0 0 1 58.5 64H3.71A3.7 3.7 0 0 1 0 60.26v-41a3.8 3.8 0 0 1 .82-2.3 3.7 3.7 0 0 1 2.9-1.39h54.77a3.69 3.69 0 0 1 3.7 3.69zm3.8 16.3v8.2a3.66 3.66 0 0 1-2.5 3.49 4 4 0 0 1-1.2.2H40.21a3.7 3.7 0 0 1-3.7-3.69v-8.2a3.7 3.7 0 0 1 3.7-3.69h22.1a3.8 3.8 0 0 1 2.5 1A3.69 3.69 0 0 1 66 35.51zm-18 4.83v-1.22a1.84 1.84 0 0 0-1.85-1.84h-1.29a1.84 1.84 0 0 0-1.14.4 1.8 1.8 0 0 0-.7 1.44v1.22a1.84 1.84 0 0 0 1.84 1.85h1.24a1.85 1.85 0 0 0 1.9-1.85z"/></g></g></symbol><symbol viewBox="0 0 344.96 344.96" id="check" xmlns="http://www.w3.org/2000/svg"><defs><style>.bcls-1{fill:#e75713}</style></defs><g id="bСлой_2" data-name="Слой 2"><path class="bcls-1" d="M321.85 86.24l-40-23.11-23.1-40H212.5L172.48 0l-40 23.11H86.24l-23.11 40-40 23.1v46.21L0 172.48l23.11 40v46.21l40 23.11 23.11 40h46.21l40 23.1 40-23.11h46.21l23.11-40 40-23.11V212.5l23.11-40-23.11-40V86.24zM156.91 243.07a16.79 16.79 0 0 1-23.34 0l-50.45-50.44a16.19 16.19 0 0 1 0-22.89l13.35-13.35a16.19 16.19 0 0 1 22.89 0l25.87 25.87 80.34-80.35a16.19 16.19 0 0 1 22.89 0l13.35 13.35a16.19 16.19 0 0 1 0 22.89z" id="bCapa_1" data-name="Capa 1"/></g></symbol><symbol viewBox="0 0 81 72.77" id="creditcard" xmlns="http://www.w3.org/2000/svg"><defs><style>.ccls-1{fill:#134e2e}</style></defs><g id="cСлой_2" data-name="Слой 2"><g id="cСлой_1-2" data-name="Слой 1"><path id="csey6a" class="ccls-1" d="M64.57 21.4H23.9a9.87 9.87 0 0 0-9.9 9.83v14.15a1.64 1.64 0 0 1-2.3 1.47l-8.63-3.7a5.12 5.12 0 0 1-2.62-6.78L15.43 3A5.18 5.18 0 0 1 22.26.45L65 19.27a1.11 1.11 0 0 1-.46 2.12zm9.79 44.77v-17.4H25.3v17.41zm-50.48 6.6a5.22 5.22 0 0 1-5.23-5.2V31.21A5.22 5.22 0 0 1 23.88 26h51.88A5.22 5.22 0 0 1 81 31.21v36.35a5.22 5.22 0 0 1-5.24 5.2zM74.36 32.6H25.3v5.46h49.06z"/></g></g></symbol><symbol id="postpay" viewBox="0 0 72 81" xmlns="http://www.w3.org/2000/svg"><style>.dst0{fill:#d89c00}</style><path id="d_x39_wnbb" class="dst0" d="M24.2 54.2c-.1-.1-.2-.3-.2-.5v-2.6c0-.3.3-.6.6-.7h4.6V48h-4.5c-.3 0-.6-.3-.7-.6v-3.2c0-.2.1-.3.2-.5s.3-.2.5-.2h4.5v-13c0-.2.1-.3.2-.5.1-.1.3-.2.5-.2h11c2.7 0 4.9.8 6.6 2.5 1.7 1.7 2.7 4.1 2.6 6.5 0 2.7-.9 4.8-2.6 6.5-1.8 1.7-4.2 2.6-6.6 2.5H34v2.4h10.3c.3 0 .6.3.7.6v2.7c0 .2-.1.3-.2.5-.1.1-.3.2-.5.2H33.9v4c0 .2-.1.3-.2.5-.1.1-.3.2-.5.2h-3.4c-.3 0-.6-.3-.7-.6v-4.1h-4.5c-.1.2-.3.1-.4 0zm9.7-10.6h6.5c1.4 0 2.6-.4 3.5-1.3.9-.9 1.4-2.1 1.3-3.3 0-1.4-.4-2.5-1.3-3.3-.9-.9-2.2-1.3-3.5-1.3h-6.5v9.2z"/><path id="d_x39_wnba" class="dst0" d="M71 45.6C70.9 64.6 55.5 80 36.5 80S2.1 64.6 2 45.6c0-17.4 13-32 30.2-34.1V7.9h-5.6V1h19.5v7h-5.6v3.5c4.2.5 8.2 1.8 11.8 3.7l4.3-5.6 6.9 5.2-4 5.3C66.8 26.6 71 35.8 71 45.6zm-8.7 0c0-14.2-11.5-25.8-25.8-25.8-14.2 0-25.8 11.5-25.8 25.8s11.5 25.8 25.8 25.8 25.8-11.6 25.8-25.8z"/></symbol></svg>