<?xml version="1.0" encoding="utf-8"?><svg xmlns="http://www.w3.org/2000/svg" xmlns:xlink="http://www.w3.org/1999/xlink"><symbol viewBox="0 0 11 21" id="arr-left" xmlns="http://www.w3.org/2000/svg"><defs><path id="aa" d="M1534.72 474l10.27 10.8-.68.72-.33-.34-9.3 9.83-.67-.7 9.3-9.83-9.27-9.77z"/></defs><use xlink:href="#aa" transform="translate(-1534 -474)"/></symbol><symbol viewBox="0 0 19 35" id="arr-right" xmlns="http://www.w3.org/2000/svg"><defs><path id="ba" d="M354.75 557.21l17.7 17.7-.7.71-.35-.34L354.7 592l-.69-.7 16.7-16.72-16.67-16.67z"/></defs><use xlink:href="#ba" transform="translate(-354 -557)"/></symbol><symbol viewBox="0 0 32 15" id="back" xmlns="http://www.w3.org/2000/svg"><defs><path id="ca" d="M342.96 1251.92l-6.09 6.08H366v1h-29.3l6.29 6.32-.7.69-6.7-6.73-.34.34-.7-.7 7.7-7.7z"/></defs><use xlink:href="#ca" transform="translate(-334 -1251)"/></symbol><symbol viewBox="0 0 344.96 344.96" id="check" xmlns="http://www.w3.org/2000/svg"><g data-name="Слой 2"><path d="M321.85 86.24l-40-23.11-23.1-40H212.5L172.48 0l-40 23.11H86.24l-23.11 40-40 23.1v46.21L0 172.48l23.11 40v46.21l40 23.11 23.11 40h46.21l40 23.1 40-23.11h46.21l23.11-40 40-23.11V212.5l23.11-40-23.11-40V86.24zM156.91 243.07a16.79 16.79 0 0 1-23.34 0l-50.45-50.44a16.19 16.19 0 0 1 0-22.89l13.35-13.35a16.19 16.19 0 0 1 22.89 0l25.87 25.87 80.34-80.35a16.19 16.19 0 0 1 22.89 0l13.35 13.35a16.19 16.19 0 0 1 0 22.89z" data-name="Capa 1"/></g></symbol><symbol viewBox="0 0 30 16" id="email" xmlns="http://www.w3.org/2000/svg"><defs><path id="ea" d="M1060.44 40h-20.59a.67.67 0 0 1-.65-.68v-3.95h-3.36a.67.67 0 0 1-.65-.68c0-.38.3-.69.65-.69h3.36v-.84c0-.37.3-.68.66-.68.35 0 .65.3.65.68v4.5l5.7-6a.68.68 0 0 1 .08-.07l-5.78-5.39v2.7c0 .38-.3.69-.65.69a.67.67 0 0 1-.66-.68V24.6l.01-.03.01-.03v-.03l.02-.04v-.03l.02-.03.01-.03.02-.03.01-.03.02-.03.02-.02.02-.03.02-.02a.56.56 0 0 1 .1-.1l.02-.01.03-.02.03-.01.03-.02.03-.01a.69.69 0 0 1 .15-.04h.03a.4.4 0 0 1 .04 0l.02-.01h20.49c.36 0 .65.3.65.68v14.73l-.01.04-.01.03v.03l-.02.04-.01.03-.01.03-.02.03-.01.02-.02.04-.02.02-.02.03a.74.74 0 0 1-.03.04h-.01v.02a.8.8 0 0 1-.05.03l-.02.02-.03.02-.03.02-.02.02-.03.01-.03.02h-.03l-.03.02h-.03l-.03.02h-.04zm-.74-2.34v-12.3h-18.13l8.54 7.96 7.32-6.53c.28-.24.69-.2.92.08a.7.7 0 0 1-.08.96l-4.28 3.83h.01zm-18.27.97h17.35l-5.7-6a.7.7 0 0 1-.08-.1l-2.48 2.22a.63.63 0 0 1-.85 0l-2.43-2.28a.68.68 0 0 1-.12.17zM1031 31.11c0-.38.3-.68.65-.68h10.99c.36 0 .65.3.65.68 0 .38-.3.69-.65.69h-10.99a.67.67 0 0 1-.65-.69z"/></defs><use xlink:href="#ea" transform="translate(-1031 -24)"/></symbol><symbol viewBox="0 0 48 54" id="face" xmlns="http://www.w3.org/2000/svg"><defs><path id="fa" d="M1429.47 3125.43a1.9 1.9 0 1 1 0 3.81 1.9 1.9 0 0 1 0-3.81zm21.06 0a1.9 1.9 0 1 1 0 3.8 1.9 1.9 0 0 1 0-3.8zm-18.3-3.07a1.02 1.02 0 0 1-1.45 1.45 1.85 1.85 0 0 0-2.63 0 1.02 1.02 0 1 1-1.43-1.45 3.87 3.87 0 0 1 5.5 0zm21.05 0a1.02 1.02 0 0 1-1.43 1.45 1.86 1.86 0 0 0-2.63 0 1.02 1.02 0 1 1-1.44-1.45 3.9 3.9 0 0 1 5.5 0zm-9.88 13.07c.4.4.4 1.04 0 1.44a4.77 4.77 0 0 1-6.8 0 1.02 1.02 0 0 1 1.44-1.44 2.75 2.75 0 0 0 3.92 0c.4-.4 1.04-.4 1.44 0zm15.69-3.48c-.68 3.9-2.53 7.5-5.39 10.37a19.24 19.24 0 0 1-13.7 5.68 19.12 19.12 0 0 1-13.72-5.77 19.56 19.56 0 0 1-5.34-10.27 5.65 5.65 0 0 1-.32-11.16v-10.14c-.23.14-.45.3-.66.5-.6.58-1.47.67-2.17.23-.7-.45-1-1.28-.73-2.06l.5-1.47c.27-.8.66-1.54 1.16-2.2.56-5.29 4.22-9 10.58-10.76a25.31 25.31 0 0 1 14.94.49l6.39 2.17a6.55 6.55 0 0 1 8.75 6.2v17.04a5.65 5.65 0 0 1-.29 11.15zm-7.41-32.58l.08 11.2c0 3.29 2.42 6.03 5.58 6.52v-13.33c0-1.54-.74-2.92-2.03-3.78a4.45 4.45 0 0 0-3.63-.61zm-26.25 9.67a17.87 17.87 0 0 0 13.18 2.6 17.88 17.88 0 0 0 11.11-7l-.08-5.26-6.05-2.06a23.29 23.29 0 0 0-13.74-.46c-4.5 1.24-7.37 3.46-8.55 6.62a7.73 7.73 0 0 1 6.85-.16 5.73 5.73 0 0 0 6.67-1.4l.25-.28a1.02 1.02 0 1 1 1.52 1.35l-.25.29a7.77 7.77 0 0 1-9.05 1.89 5.7 5.7 0 0 0-7.8 3.34l-.2.59a5.5 5.5 0 0 1 6.14-.06zm-4.76 20.8a20.1 20.1 0 0 1-.05-1.43v-5.52a3.62 3.62 0 0 0 .05 6.94zm36.67-1.24v-9.46a8.65 8.65 0 0 1-7.61-8.58v-2.76a19.89 19.89 0 0 1-10.74 5.85c-5.1.97-10.32-.06-14.67-2.9a3.51 3.51 0 0 0-1.66-.57v18.23c0 4.67 1.8 9.07 5.07 12.39a17.22 17.22 0 0 0 24.53.08 17.26 17.26 0 0 0 5.08-12.28zm4.62-2.25c0-1.63-1.09-3.02-2.58-3.46v5.71c0 .41-.02.82-.04 1.23a3.62 3.62 0 0 0 2.62-3.48z"/></defs><use xlink:href="#fa" transform="translate(-1416 -3094)"/></symbol><symbol viewBox="0 0 20 20" id="po-1" xmlns="http://www.w3.org/2000/svg"><defs><path id="ga" d="M381.72 292.4h.01l-.33.28-.1.08-.47.36-.2.14a9.99 9.99 0 0 1-1.4.8l-.08.03a9.9 9.9 0 0 1-3.24.87h-.1a10.1 10.1 0 0 1-1.62 0h-.1a10 10 0 0 1-.8-.11l-.07-.01a9.9 9.9 0 0 1-2.42-.77l-.05-.02a9.97 9.97 0 0 1-.68-.36l-.14-.07a10.22 10.22 0 0 1-1.3-.92l-.07-.05-.32-.28A10.01 10.01 0 1 1 385 285a9.97 9.97 0 0 1-3.27 7.4zm-12.91-.5l.27-.18 2.88-1.57a.81.81 0 0 0 .42-.7v-1.06a6.83 6.83 0 0 1-1.12-2.32c-.31-.26-.5-.63-.5-1.03v-1.29c0-.31.12-.62.33-.86v-1.7a2.93 2.93 0 0 1 .69-2.13c.67-.76 1.75-1.15 3.22-1.15 1.47 0 2.55.39 3.22 1.15.77.88.7 1.94.69 2.13v1.7c.2.24.32.55.32.86v1.3c0 .51-.3.97-.76 1.19a7.41 7.41 0 0 1-1.17 2.16v1.07c0 .31.17.59.45.73l3.07 1.54c.11.05.22.12.33.2a9.28 9.28 0 1 0-15.42-6.93c0 2.73 1.19 5.19 3.08 6.89z"/></defs><use xlink:href="#ga" transform="translate(-365 -275)"/></symbol><symbol viewBox="0 0 22 24" id="po-2" xmlns="http://www.w3.org/2000/svg"><defs><path id="ha" d="M362.14 337.14a2.57 2.57 0 0 1 1.71-3.27c1.42-.45 2.95.29 3.42 1.65l5.3 15.43a3.7 3.7 0 0 0-1.54-.05l-5.14-14.95a1.26 1.26 0 0 0-1.58-.76 1.2 1.2 0 0 0-.8 1.51.69.69 0 0 1-.46.88.73.73 0 0 1-.91-.44zm21.82 12.55a.69.69 0 0 1-.46.88l-8.43 2.67v-.05c-.16-.45-.4-.85-.72-1.19l8.7-2.75c.38-.12.79.08.91.44zm-9.59 3.72a2.71 2.71 0 0 1-1.8 3.45c-1.5.47-3.11-.3-3.6-1.74a2.71 2.71 0 0 1 1.8-3.45c1.5-.47 3.11.3 3.6 1.74zm-1.35.43a1.44 1.44 0 0 0-1.8-.87c-.74.24-1.15 1-.9 1.72.24.72 1.05 1.11 1.8.87.74-.23 1.15-1 .9-1.72zm7.83-15.06l2.95 8.59a.34.34 0 0 1-.23.44l-9.29 2.94a.37.37 0 0 1-.46-.22l-2.95-8.6a.35.35 0 0 1 .23-.43l9.3-2.94c.18-.06.39.04.45.22zm-1.23 4.99l-3.16-1.67-1.5 3.15.99.44.65-1.37 1.18 3.42 1.12-.35-1.17-3.42 1.36.72zm-2.9-4.85l-5.95 1.89a.23.23 0 0 1-.3-.15l-1.88-5.49a.22.22 0 0 1 .15-.28l1.6-.5h.02v-.01l.86-.27.7 2.04.97-.3-.7-2.05.85-.27h.02l1.62-.52c.12-.04.25.03.3.14l1.88 5.5a.22.22 0 0 1-.15.27z"/></defs><use xlink:href="#ha" transform="translate(-362 -333)"/></symbol><symbol viewBox="0 0 18 14" id="po-3" xmlns="http://www.w3.org/2000/svg"><defs><path id="ia" d="M382 405.7l-1.06 8.85a.52.52 0 0 1-.52.45h-14.84c-.27 0-.5-.2-.52-.45l-1.06-8.86a.5.5 0 0 1 .13-.4c.1-.1.25-.17.4-.17h16.94c.15 0 .3.06.4.17.1.11.14.26.13.4zm-8.74 6.69l-.37-3.07a.52.52 0 0 0-.52-.45h-5.27a.52.52 0 0 0-.53.57l.37 3.06c.03.26.25.46.52.46h5.28c.31 0 .56-.27.52-.57zm7.62-6.25h-7.1l.28.72h6.74zm-.32-2.04h-15.12v-.85c0-.28.24-.51.53-.51h5.97l.57-1.42c.08-.2.27-.32.49-.32h7.03c.3 0 .53.23.53.51z"/></defs><use xlink:href="#ia" transform="translate(-364 -401)"/></symbol><symbol viewBox="0 0 18 18" id="po-4" xmlns="http://www.w3.org/2000/svg"><defs><path id="ja" d="M384 478.25c.02.27-.17.5-.44.53l-1.97.22h-.06a.5.5 0 0 1-.33-.13.48.48 0 0 1-.16-.37l.05-1.27-1.29.04a.47.47 0 0 1-.37-.14.5.5 0 0 1-.14-.36l.05-1.27-1.3.04a.49.49 0 0 1-.5-.5l.04-1.28-1.28.05a.5.5 0 0 1-.37-.14l-2.36-2.33a5.5 5.5 0 0 1-5.98-1.15 5.34 5.34 0 0 1 0-7.61 5.45 5.45 0 0 1 3.85-1.58 5.45 5.45 0 0 1 5.45 5.38c0 .74-.15 1.45-.43 2.1l7.17 7.1c.09.07.14.18.15.3zm-13.21-14.68c-.6-.6-1.59-.6-2.2 0-.6.6-.6 1.56 0 2.16.61.6 1.6.6 2.2 0 .6-.6.6-1.56 0-2.16zm11.3 11.95l-6.16-6.09c-.14.2-.3.4-.47.57l6.1 6.04a.37.37 0 0 0 .53 0 .36.36 0 0 0 0-.52z"/></defs><use xlink:href="#ja" transform="translate(-366 -461)"/></symbol><symbol viewBox="0 0 20 21" id="search" xmlns="http://www.w3.org/2000/svg"><defs><path id="ka" d="M1573.9 70c4.92 0 8.91 4.04 8.91 9.02 0 2.14-.73 4.1-1.96 5.65l4.16 4.21-2.1 2.13-4.29-4.34a8.79 8.79 0 0 1-4.71 1.36 8.96 8.96 0 0 1-8.91-9.01 8.96 8.96 0 0 1 8.9-9.02zm-5.93 9.02a5.98 5.98 0 0 0 5.94 6.01c3.28 0 5.93-2.7 5.93-6.01a5.98 5.98 0 0 0-5.93-6.02 5.98 5.98 0 0 0-5.94 6.02z"/></defs><use xlink:href="#ka" transform="translate(-1565 -70)"/></symbol><symbol viewBox="0 0 21 15" id="submit" xmlns="http://www.w3.org/2000/svg"><defs><path id="la" d="M1218.56 1462.37a.3.3 0 0 0-.29-.11l-19.82 3.94c-.1.02-.2.1-.22.2-.02.1.02.22.1.29l4.53 3.58c.08.07.2.08.3.04l5.76-2.44-4.77 2.97a.27.27 0 0 0-.13.2l-.73 4.95c-.02.11.04.22.14.28a.29.29 0 0 0 .31-.01l3.4-2.4 2.97 2.3a.3.3 0 0 0 .23.06.28.28 0 0 0 .2-.13l8.04-13.42a.27.27 0 0 0-.02-.3z"/></defs><use xlink:href="#la" transform="translate(-1198 -1462)"/></symbol><symbol viewBox="0 0 20 20" id="tel" xmlns="http://www.w3.org/2000/svg"><defs><path id="ma" d="M1224.3 36.4c.46.44.7.97.7 1.53 0 .55-.24 1.09-.68 1.55l-.59.58c-.28.27-.55.52-.78.8 0 .02-.02.02-.02.03a3.4 3.4 0 0 1-2.88 1.1c-1.54-.1-2.93-.68-3.96-1.16a21.16 21.16 0 0 1-7.05-5.5 19.28 19.28 0 0 1-3.45-5.72c-.3-.8-.68-2.01-.57-3.32.07-.81.4-1.51.97-2.09l1.53-1.53.01-.01c.45-.43.98-.66 1.53-.66s1.07.23 1.51.66a21.3 21.3 0 0 1 1.27 1.26l1.22 1.22c.95.94.95 2.16 0 3.1l-.37.38c-.34.34-.68.69-1.05 1.02.28.6.65 1.2 1.22 1.91a15.44 15.44 0 0 0 3.7 3.36l.45.24.34.18 1.43-1.41c.45-.46.98-.7 1.53-.7.56 0 1.09.25 1.53.7zm-.86.84l-2.48-2.47v-.01c-.15-.15-.38-.33-.65-.33-.29 0-.53.19-.68.34l-1.54 1.53c-.08.08-.31.31-.69.31a.98.98 0 0 1-.44-.11l-.06-.03a5.79 5.79 0 0 0-.44-.24 6.06 6.06 0 0 1-.56-.3 16.49 16.49 0 0 1-4-3.62 9.8 9.8 0 0 1-1.46-2.4c-.08-.26-.16-.64.23-1.02l.02-.03c.4-.35.75-.7 1.13-1.09l.39-.38c.48-.48.48-.92 0-1.4l-1.23-1.22-.43-.43a22.86 22.86 0 0 0-.82-.82.96.96 0 0 0-.66-.31c-.23 0-.46.11-.68.32l-1.54 1.53c-.37.37-.57.8-.62 1.33-.06.82.09 1.69.5 2.8.69 1.83 1.71 3.53 3.25 5.37 1.86 2.21 4.1 3.95 6.64 5.18a9.79 9.79 0 0 0 3.72 1.05c.7 0 1.23-.22 1.69-.7.28-.33.57-.63.87-.9l.55-.55c.46-.48.46-.95 0-1.4z"/></defs><use xlink:href="#ma" transform="translate(-1205 -22)"/></symbol><symbol viewBox="0 0 22 22" id="user" xmlns="http://www.w3.org/2000/svg"><defs><path id="na" d="M1426.11 39.43a11.03 11.03 0 0 1-16.22 0A10.97 10.97 0 0 1 1407 32a.65.65 0 1 1 1.3 0c0 2.02.63 3.96 1.78 5.59v-.01l.03-.08.09-.22.04-.1.08-.18.06-.12a7.17 7.17 0 0 1 .23-.44l.07-.1.1-.18.06-.1.13-.18.04-.07.19-.24.04-.06.15-.18.07-.09.13-.14.09-.1a8.31 8.31 0 0 1 .58-.55l.1-.08.16-.13.07-.06.25-.18.04-.03.21-.14.1-.06.16-.1.1-.06a7.31 7.31 0 0 1 .74-.36l.1-.05.2-.08c.04 0 .06-.02.1-.03l.29-.1.03-.01.27-.08.06-.02a4.15 4.15 0 1 1 5.52 0 7.57 7.57 0 0 1 3.9 2.51.65.65 0 0 1-1 .83 6.26 6.26 0 0 0-4.86-2.29h-1.88l-.1.01-.18.01-.1.02c-.06 0-.12 0-.17.02l-.12.01-.15.03-.12.02-.15.03-.12.03-.14.03-.12.04-.14.04-.12.04-.13.04a4.92 4.92 0 0 0-.5.2l-.1.06a7.71 7.71 0 0 0-.37.19l-.1.06a5.8 5.8 0 0 0-.77.54l-.1.08a9.46 9.46 0 0 0-.2.17l-.1.1a5.38 5.38 0 0 0-.18.19l-.08.09-.1.1-.08.1-.1.1-.06.1-.1.12-.06.1-.09.12-.06.1-.08.13-.06.1-.08.14-.05.09-.08.17-.04.07c-.08.16-.15.33-.21.5l-.03.07-.06.19-.03.1-.05.16c0 .04-.02.07-.03.11 0 .05-.02.1-.03.14a9.72 9.72 0 0 0 14.07-.24A9.7 9.7 0 0 0 1411.29 25a.65.65 0 0 1-.9-.94 11.01 11.01 0 0 1 15.72 15.37zm-10.97-9.66a2.86 2.86 0 1 0 5.73-.01 2.86 2.86 0 0 0-5.73 0z"/></defs><use xlink:href="#na" transform="translate(-1407 -21)"/></symbol></svg>