<?xml version="1.0" encoding="UTF-8" standalone="no"?>
<!-- Generator: Adobe Illustrator 19.0.0, SVG Export Plug-In . SVG Version: 6.00 Build 0)  -->

<svg
   xmlns:dc="http://purl.org/dc/elements/1.1/"
   xmlns:cc="http://creativecommons.org/ns#"
   xmlns:rdf="http://www.w3.org/1999/02/22-rdf-syntax-ns#"
   xmlns:svg="http://www.w3.org/2000/svg"
   xmlns="http://www.w3.org/2000/svg"
   xmlns:sodipodi="http://sodipodi.sourceforge.net/DTD/sodipodi-0.dtd"
   xmlns:inkscape="http://www.inkscape.org/namespaces/inkscape"
   version="1.1"
   id="Capa_1"
   x="0px"
   y="0px"
   viewBox="0 0 490.4 490.4"
   style="enable-background:new 0 0 490.4 490.4;"
   xml:space="preserve"
   sodipodi:docname="up-arrow.svg"
   inkscape:version="0.92.1 r15371"><metadata
     id="metadata45"><rdf:RDF><cc:Work
         rdf:about=""><dc:format>image/svg+xml</dc:format><dc:type
           rdf:resource="http://purl.org/dc/dcmitype/StillImage" /><dc:title></dc:title></cc:Work></rdf:RDF></metadata><defs
     id="defs43" /><sodipodi:namedview
     pagecolor="#ffffff"
     bordercolor="#666666"
     borderopacity="1"
     objecttolerance="10"
     gridtolerance="10"
     guidetolerance="10"
     inkscape:pageopacity="0"
     inkscape:pageshadow="2"
     inkscape:window-width="640"
     inkscape:window-height="480"
     id="namedview41"
     showgrid="false"
     inkscape:zoom="0.48123981"
     inkscape:cx="245.2"
     inkscape:cy="245.2"
     inkscape:window-x="0"
     inkscape:window-y="0"
     inkscape:window-maximized="0"
     inkscape:current-layer="Capa_1" /><g
     id="g8"><g
       id="g6"><path
         d="M245.2,490.4c135.2,0,245.2-110,245.2-245.2S380.4,0,245.2,0S0,110,0,245.2S110,490.4,245.2,490.4z M245.2,24.5    c121.7,0,220.7,99,220.7,220.7s-99,220.7-220.7,220.7s-220.7-99-220.7-220.7S123.5,24.5,245.2,24.5z"
         id="path2" /><path
         d="M185,216.2l48-48v183.4c0,6.8,5.5,12.3,12.3,12.3c6.8,0,12.3-5.5,12.3-12.3V168.3l48,48c2.4,2.4,5.5,3.6,8.7,3.6    s6.3-1.2,8.7-3.6c4.8-4.8,4.8-12.5,0-17.3l-68.9-68.9c-4.8-4.8-12.5-4.8-17.3,0L167.9,199c-4.8,4.8-4.8,12.5,0,17.3    C172.4,221,180.2,221,185,216.2z"
         id="path4" /></g></g><g
     id="g10" /><g
     id="g12" /><g
     id="g14" /><g
     id="g16" /><g
     id="g18" /><g
     id="g20" /><g
     id="g22" /><g
     id="g24" /><g
     id="g26" /><g
     id="g28" /><g
     id="g30" /><g
     id="g32" /><g
     id="g34" /><g
     id="g36" /><g
     id="g38" /></svg>