<svg xmlns="http://www.w3.org/2000/svg" viewBox="0 0 66.01 63.95"><defs><style>.cls-1{fill:#b60104;}</style></defs><title>cach</title><g id="Слой_2" data-name="Слой 2"><g id="Слой_1-2" data-name="Слой 1"><path id="_3mdha" data-name="3mdha" class="cls-1" d="M11.83,13,35.39,1.33C39.71-.48,38.6-.9,40.35,3l1.4,2.8L15.43,12.94ZM53,5l1.63,8H23.88L42.75,7.82,53,5M62.2,19.21V29.27h-22a6.28,6.28,0,0,0-6.29,6.25v8.2A6.29,6.29,0,0,0,40.21,50h22V60.26A3.7,3.7,0,0,1,58.5,64H3.71A3.7,3.7,0,0,1,0,60.26H0v-41a3.8,3.8,0,0,1,.82-2.3,3.7,3.7,0,0,1,2.9-1.39H58.49a3.69,3.69,0,0,1,3.7,3.69ZM66,35.51v8.2a3.66,3.66,0,0,1-2.5,3.49,4,4,0,0,1-1.2.2H40.21a3.7,3.7,0,0,1-3.7-3.69v-8.2a3.7,3.7,0,0,1,3.7-3.69h22.1a3.8,3.8,0,0,1,2.5,1A3.69,3.69,0,0,1,66,35.51ZM48,40.34V39.12a1.84,1.84,0,0,0-1.85-1.84H44.86a1.84,1.84,0,0,0-1.14.4,1.8,1.8,0,0,0-.7,1.44v1.22a1.84,1.84,0,0,0,1.84,1.85H46.1A1.85,1.85,0,0,0,48,40.34Z"/></g></g></svg>