<svg xmlns="http://www.w3.org/2000/svg" viewBox="0 0 81 72.77"><defs><style>.cls-1{fill:#134e2e;}</style></defs><title>creditcard</title><g id="Слой_2" data-name="Слой 2"><g id="Слой_1-2" data-name="Слой 1"><path id="sey6a" class="cls-1" d="M64.57,21.4H23.9A9.87,9.87,0,0,0,14,31.23V45.38a1.64,1.64,0,0,1-2.3,1.47l-8.63-3.7A5.12,5.12,0,0,1,.45,36.37L15.43,3A5.18,5.18,0,0,1,22.26.45L65,19.27a1.11,1.11,0,0,1-.46,2.12Zm9.79,44.77V48.77H25.3V66.18Zm-50.48,6.6a5.22,5.22,0,0,1-5.23-5.2V31.21A5.22,5.22,0,0,1,23.88,26H75.76A5.22,5.22,0,0,1,81,31.21V67.56a5.22,5.22,0,0,1-5.24,5.2ZM74.36,32.6H25.3v5.46H74.36Z"/></g></g></svg>