<svg xmlns="http://www.w3.org/2000/svg" viewBox="0 0 292.79 146.93"><defs><style>.cls-1{fill:#10007c;}</style></defs><title>e-cheque</title><g id="Слой_2" data-name="Слой 2"><g id="svg3208"><g id="layer1"><g id="g2903"><g id="g2846"><path id="path2842" class="cls-1" d="M52,128.47H43a1.27,1.27,0,0,0-1.25,1.25v6A1.27,1.27,0,0,0,43,137h9a1.27,1.27,0,0,0,1.25-1.25v-6A1.27,1.27,0,0,0,52,128.47Z"/><path id="path2844" class="cls-1" d="M112.34,36.23H95V8.36A8.37,8.37,0,0,0,86.68,0H8.36A8.37,8.37,0,0,0,0,8.36v130.2a8.37,8.37,0,0,0,8.36,8.36H86.68A8.37,8.37,0,0,0,95,138.57V86.72h17.3A3.77,3.77,0,0,0,116.11,83V40a3.77,3.77,0,0,0-3.76-3.76ZM40.89,6.68H54.15a2.09,2.09,0,0,1,0,4.18H40.89a2.09,2.09,0,0,1,0-4.18ZM57.44,135.75A5.44,5.44,0,0,1,52,141.19H43a5.44,5.44,0,0,1-5.44-5.44v-6A5.44,5.44,0,0,1,43,124.29h9a5.44,5.44,0,0,1,5.44,5.44Zm27.82-18.32a2.1,2.1,0,0,1-2.09,2.09H11.87a2.1,2.1,0,0,1-2.09-2.09V18.65a2.1,2.1,0,0,1,2.09-2.09h71.3a2.1,2.1,0,0,1,2.09,2.09V36.23H56.51A3.77,3.77,0,0,0,52.74,40V83a3.77,3.77,0,0,0,3.76,3.76h4.15V96.1a2.77,2.77,0,0,0,2.7,3,3.17,3.17,0,0,0,2-.77L79,87.31a3.54,3.54,0,0,1,1.66-.59h4.58ZM68.8,63.88c-2.23-.21-6-1.23-6-5.66s3.82-5.7,6.08-5.7a8,8,0,0,1,4.18,1.38,1.94,1.94,0,0,1,.48,2.65,5.87,5.87,0,0,1-.83,1.23.67.67,0,0,1-.84-.13A4.14,4.14,0,0,0,69,56.54c-.87,0-2.33.2-2.33,1.54,0,.65.25,1.54,2.41,1.72,2.86.23,6.15,1.11,6.15,5.84a5.77,5.77,0,0,1-6.2,6,7.5,7.5,0,0,1-6.39-2.94.74.74,0,0,1-.13-.7c.16-.38.79-1.44.79-1.44a1.63,1.63,0,0,1,1.44-.88,1.69,1.69,0,0,1,1,.35,7.52,7.52,0,0,0,3.34,1.42h.07a2.07,2.07,0,0,0,2.23-1.9C71.38,64.62,70.95,64,68.8,63.88Zm26.57,6.69a1,1,0,0,1-1,1H92.79a1,1,0,0,1-1-1V59.5a.78.78,0,0,0,0-.15l-.1.12-4.56,6.27c-.19.26-.64.76-1,.76s-.78-.5-1-.77l-4.45-6.29-.09-.11a.79.79,0,0,0,0,.14v11.1a1,1,0,0,1-1,1H78a1,1,0,0,1-1-1V54.68a1,1,0,0,1,1-1h2a2,2,0,0,1,1.49.77l4.36,6.18a.35.35,0,0,0,.62,0l4.36-6.18a2,2,0,0,1,1.49-.77h2a1,1,0,0,1,1,1V70.57Zm7.95,1a7.5,7.5,0,0,1-6.4-3c-.07-.09-.26-.3-.06-.8.14-.35.72-1.33.72-1.33A1.63,1.63,0,0,1,99,65.65a1.69,1.69,0,0,1,1,.35,7.52,7.52,0,0,0,3.34,1.42h.07a2.07,2.07,0,0,0,2.23-1.9c0-.9-.43-1.49-2.57-1.65s-6-1.23-6-5.66,3.82-5.7,6.08-5.7a8,8,0,0,1,4.18,1.38,1.94,1.94,0,0,1,.48,2.65s-.62.91-.82,1.22-.64.09-.72,0a3.93,3.93,0,0,0-3.06-1.24c-.87,0-2.33.2-2.33,1.54,0,.65.25,1.54,2.41,1.72,2.86.23,6.15,1.11,6.15,5.84a5.77,5.77,0,0,1-6.2,6Z"/></g></g><g id="g3155"><g id="g3099"><path id="path3097" class="cls-1" d="M218.93,3,145.06,58.13v87.71H292.79V58.13ZM198.49,42.33a21.36,21.36,0,0,1,8.94-8.92,27.32,27.32,0,0,1,13-3,24.48,24.48,0,0,1,11,2.4,17.2,17.2,0,0,1,7.37,6.85,19.41,19.41,0,0,1,2.54,9.69,18.2,18.2,0,0,1-3.87,11.32A14.92,14.92,0,0,1,225,67.05a5.41,5.41,0,0,1-3.07-.71,3.52,3.52,0,0,1-1.38-2.1,9.22,9.22,0,0,1-6.67,2.82,9,9,0,0,1-6.77-2.8,10.41,10.41,0,0,1-2.69-7.49,18.23,18.23,0,0,1,3.24-10.54c2.63-3.87,6-5.81,10.07-5.81a7,7,0,0,1,6.45,3.35l.61-2.73h6.5l-3.71,17.61a14.32,14.32,0,0,0-.35,2.16,1.36,1.36,0,0,0,.28.92.87.87,0,0,0,.66.31,5.43,5.43,0,0,0,3.06-1.43,13.52,13.52,0,0,0,4.05-5,14.64,14.64,0,0,0,1.56-6.52A13.28,13.28,0,0,0,232.53,39c-2.92-2.69-7-4.06-12.22-4.06A21.82,21.82,0,0,0,209,37.66a17.29,17.29,0,0,0-7,7.64,23.59,23.59,0,0,0-2.34,10.25A17.73,17.73,0,0,0,202.31,65a15.25,15.25,0,0,0,7.35,6.21,28.31,28.31,0,0,0,10.83,1.94,28,28,0,0,0,10.09-1.64,15.47,15.47,0,0,0,6.81-4.91h5.21a17.87,17.87,0,0,1-7.52,7.83,28.84,28.84,0,0,1-14.2,3.23,33,33,0,0,1-14-2.73,18.55,18.55,0,0,1-8.79-8.08,24.25,24.25,0,0,1-2.85-11.64,26.37,26.37,0,0,1,3.26-12.87ZM150.26,59.87l54.5,36.55-54.5,42.19Zm4.14,81.55,64.53-49.94,64.51,49.94Zm133.17-2.81L233.08,96.42l54.49-36.55v78.74Zm-66-92.26a6.26,6.26,0,0,1,1.3,4.26,17.12,17.12,0,0,1-1,5.35,12.57,12.57,0,0,1-2.25,4.39,6.29,6.29,0,0,1-1.84,1.53,5.2,5.2,0,0,1-2.62.69,4,4,0,0,1-3.14-1.47,7,7,0,0,1-1.25-4.58,18.72,18.72,0,0,1,.9-5.37,10.15,10.15,0,0,1,2.7-4.66,5.7,5.7,0,0,1,3.9-1.64A4.12,4.12,0,0,1,221.59,46.35Z"/></g></g></g></g></g></svg>