<svg xmlns="http://www.w3.org/2000/svg" xmlns:xlink="http://www.w3.org/1999/xlink" width="112" height="111" viewBox="0 0 112 111"><defs><path id="vysja" d="M205 757.5a54.14 54.14 0 0 1-15.96 38.54A54.14 54.14 0 0 1 150.5 812a54.14 54.14 0 0 1-38.54-15.96A54.14 54.14 0 0 1 96 757.5a54.14 54.14 0 0 1 15.96-38.54A54.15 54.15 0 0 1 150.5 703a54.14 54.14 0 0 1 38.54 15.96A54.14 54.14 0 0 1 205 757.5zm-42.36 0l14.16-14.15a2.8 2.8 0 0 0 .82-1.99c0-.75-.3-1.46-.82-1.99l-7.85-7.84a2.79 2.79 0 0 0-1.98-.82c-.76 0-1.46.29-2 .82l-14.15 14.16a.73.73 0 0 1-1 0l-14.15-14.16a2.79 2.79 0 0 0-1.99-.82c-.75 0-1.46.29-1.99.82l-7.84 7.84a2.79 2.79 0 0 0-.82 1.99c0 .75.29 1.46.82 1.99L138 757.5c.27.27.27.73 0 1l-13.59 13.58a2.79 2.79 0 0 0-.82 1.99c0 .75.3 1.46.82 1.99l7.85 7.84a2.8 2.8 0 0 0 3.97 0l13.59-13.58a.73.73 0 0 1 1 0l13.57 13.58a2.8 2.8 0 0 0 2 .82c.74 0 1.45-.29 1.98-.82l7.84-7.84a2.81 2.81 0 0 0 0-3.98l-13.58-13.58a.71.71 0 0 1 0-1z"/></defs><g><g transform="translate(-95 -702)"><use fill="#130078" xlink:href="#vysja"/></g></g></svg>