<?xml version="1.0" encoding="UTF-8" standalone="no"?>
<svg
   xmlns:dc="http://purl.org/dc/elements/1.1/"
   xmlns:cc="http://creativecommons.org/ns#"
   xmlns:rdf="http://www.w3.org/1999/02/22-rdf-syntax-ns#"
   xmlns:svg="http://www.w3.org/2000/svg"
   xmlns="http://www.w3.org/2000/svg"
   style="fill:none"
   id="svg836"
   version="1.1"
   viewBox="0 0 223.28624 156.82619"
   height="156.82619"
   width="223.28624">
  <path
     id="path-1"
     d="M 56.95508,1.3802367e-7 C 56.08891,1.3802367e-7 55.26776,0.39560014 54.72071,1.0781301 50.63538,6.1762301 42.71876,16.5121 35.60157,28.45118 26.42957,43.83761 21.7793,56.55992 21.7793,66.26172 c 0,19.7099 15.77857,35.74414 35.17383,35.74414 19.39526,0 35.17578,-16.03424 35.17578,-35.74414 2.6e-4,-9.70814 -4.65,-22.4319 -13.82227,-37.8164 C 71.18946,16.5073 63.2731,6.1746201 59.1875,1.0781301 58.64071,0.39560014 57.82099,-2.6986198e-4 56.95508,1.3802367e-7 Z M 191.84961,5.2441401 c -0.33214,0.0203 -0.6675,0.0744 -1.00195,0.16407 L 86.89454,33.26368 c 1.89479,3.6816 3.52695,7.20359 4.89062,10.5625 H 169 c 3.878,0 7,3.12199 7,7 v 73.4746 L 219.57813,112.625 c 2.67561,-0.71693 4.25209,-3.44742 3.53516,-6.12304 L 196.97266,8.9433601 c -0.62731,-2.34117 -2.79803,-3.84111 -5.12305,-3.69922 z M 4.91211,48.50196 C 2.19128,48.50196 0,50.67763 0,53.38086 v 98.56446 c 0,2.70322 2.19128,4.88086 4.91211,4.88086 H 166 c 2.72084,0 4.91211,-2.17764 4.91211,-4.88086 V 53.38086 c 0,-2.70323 -2.19127,-4.8789 -4.91211,-4.8789 H 93.54102 C 95.8319,55.11073 97.00014,61.02101 97,66.17578 c 0,22.4139 -17.9439,40.6504 -40,40.6504 -22.0561,0 -40,-18.2365 -40,-40.6504 0,-5.15292 1.17052,-11.06393 3.4629,-17.67382 z m 30.73438,7.36718 c 0,0 1.21351,0.8035 1.13867,1.50391 -0.0896,0.83768 -0.13476,1.65657 -0.13476,2.43164 0,13.50029 10.70523,24.80485 24.90039,26.29492 0.70648,0.0742 1.25808,0.61206 1.31445,1.28125 0.0565,0.66928 -0.39871,1.28136 -1.08399,1.45899 -2.05393,0.53377 -4.18583,0.80468 -6.33789,0.80468 -13.14108,0 -23.83203,-10.09247 -23.83203,-22.49804 0,-2.99484 0.77739,-6.49471 2.31055,-10.40039 0.25897,-0.65996 1.72461,-0.87696 1.72461,-0.87696 z m 77.93945,68.36719 c 3.2891,0 5.46093,0.89841 6.51563,2.69531 0.59371,1.0078 0.89062,2.26958 0.89062,3.78516 v 5.05078 c 0,2.3594 -0.74216,4.06248 -2.22656,5.10938 -1.1875,0.8359 -2.92975,1.2539 -5.22656,1.2539 -3.3907,0 -5.62493,-0.84375 -6.70313,-2.53125 -0.6093,-0.9375 -0.91406,-2.15233 -0.91406,-3.64453 v -5.41406 c 0,-2.4296 0.75392,-4.12896 2.26172,-5.09766 1.2422,-0.7969 3.04304,-1.19923 5.40234,-1.20703 z m -40.35937,0.29297 h 6.78515 c 1.92968,0 3.35163,0.4375 4.26563,1.3125 0.9141,0.875 1.37109,2.30074 1.37109,4.27734 0,1.9765 -0.44142,3.42978 -1.32422,4.35938 -0.875,0.9219 -2.42582,1.38281 -4.65234,1.38281 h -2.96484 v 5.96485 h -3.48047 z m 15.65625,0 h 7.46484 c 2.2343,0 3.75399,0.45307 4.55859,1.35938 0.8126,0.90629 1.21875,2.1367 1.21875,3.6914 0,1.5469 -0.22658,2.67584 -0.67968,3.38672 -0.44532,0.7032 -1.06638,1.21094 -1.86328,1.52344 l 3.33984,7.33594 H 99.3125 l -3.03515,-6.83204 h -3.91406 v 6.83204 h -3.48047 z m 34.47656,0 h 3.62109 l 3.63282,5.61328 3.51562,-5.61328 h 3.84375 l -5.47266,8.51953 5.67188,8.77735 h -3.83203 l -3.72656,-5.8711 -3.76172,5.8711 h -3.63282 l 5.56641,-8.76563 z m 17.10937,0 h 9.75 v 2.58984 h -3.1289 v 12.10547 h 3.1289 v 2.60157 h -9.75 v -2.60157 h 3.15235 v -12.10547 h -3.15235 z m -26.90625,2.4375 c -1.3516,0 -2.38285,0.23432 -3.09375,0.70312 -0.7032,0.46871 -1.05468,1.26955 -1.05468,2.40235 v 6.26953 c 0,1.1328 0.34767,1.92581 1.04297,2.37891 0.6953,0.4532 1.73046,0.67968 3.10546,0.67968 1.3828,0 2.3828,-0.22257 3,-0.66797 0.625,-0.45309 0.9375,-1.25 0.9375,-2.39062 v -6.26953 c 0,-1.125 -0.31641,-1.92193 -0.94921,-2.39063 -0.6328,-0.4766 -1.62889,-0.71482 -2.98829,-0.71484 z m -36.85546,0.0352 v 6.3164 h 3.51562 c 0.84374,0 1.41404,-0.23824 1.71094,-0.71484 0.3047,-0.4843 0.45703,-1.27731 0.45703,-2.37891 0,-1.5781 -0.34767,-2.57038 -1.04297,-2.97656 -0.2735,-0.1563 -0.60937,-0.23829 -1.00781,-0.24609 z m 15.65625,0 v 5.50781 h 4.27734 c 0.8203,0 1.3828,-0.23051 1.6875,-0.69141 0.3125,-0.4688 0.46875,-1.17579 0.46875,-2.12109 0,-1.7969 -0.67183,-2.69531 -2.01563,-2.69531 z"
     style="fill:#213e8b" />
</svg>
