<svg width="225" height="166" viewBox="0 0 225 166" fill="none" xmlns="http://www.w3.org/2000/svg">
<g id="Frame" clip-path="url(#clip0)">
<rect id="Rectangle" width="172.41" height="111" rx="5" transform="translate(29.1423 57.9118) rotate(-15)" fill="#213E8B"/>
<g id="Rectangle_2" transform="translate(0 55)">
<rect width="174" height="111" rx="5" fill="#213E8B"/>
<rect x="-2" y="-2" width="178" height="115" rx="7" stroke="white" stroke-width="4"/>
</g>
<path id="Vector" d="M42.5397 1.22644C47.1858 7.02212 56.188 18.7718 64.2816 32.3476C74.7122 49.8427 80.0003 64.3112 80 75.3512C80 97.7651 62.0561 116 40 116C17.9439 116 0 97.7651 0 75.3512C0 64.3184 5.28869 49.8521 15.719 32.3548C23.8126 18.7778 32.8148 7.02424 37.4606 1.22674C38.0827 0.450571 39.0153 0 40.0003 0C40.985 -0.000302447 41.9179 0.450268 42.5397 1.22644Z" transform="translate(17)" fill="white"/>
<g id="drop-silhouette">
<g id="Group">
<g id="Vector_2" transform="translate(17)">
<path d="M64.2816 32.3476C56.188 18.7718 47.1858 7.02212 42.5397 1.22644C41.9179 0.450268 40.985 -0.000302447 40.0003 1.5232e-07C39.0153 1.5232e-07 38.0827 0.450571 37.4606 1.22674C32.8148 7.02424 23.8126 18.7778 15.719 32.3548C5.28869 49.8521 0 64.3184 0 75.3512C0 97.7651 17.9439 116 40 116C62.0561 116 80 97.7651 80 75.3512C80.0003 64.3112 74.7122 49.8427 64.2816 32.3476ZM45.4891 101.028C43.1534 101.635 40.7289 101.943 38.2816 101.943C23.3377 101.943 11.1801 90.4654 11.1801 76.3579C11.1801 72.9522 12.0644 68.973 13.8079 64.5315C14.1024 63.781 15.7687 63.5344 15.7687 63.5344C15.7687 63.5344 17.1503 64.4476 17.0652 65.2441C16.9633 66.1967 16.9115 67.1272 16.9115 68.0086C16.9115 83.361 29.0847 96.2173 45.2273 97.9118C46.0307 97.9962 46.6575 98.6069 46.7216 99.3679C46.7859 100.129 46.2684 100.826 45.4891 101.028Z" fill="#213E8B"/>
<path d="M64.2816 32.3476C56.188 18.7718 47.1858 7.02212 42.5397 1.22644C41.9179 0.450268 40.985 -0.000302447 40.0003 1.5232e-07C39.0153 1.5232e-07 38.0827 0.450571 37.4606 1.22674C32.8148 7.02424 23.8126 18.7778 15.719 32.3548C5.28869 49.8521 0 64.3184 0 75.3512C0 97.765 17.9439 116 40 116C62.0561 116 80 97.765 80 75.3512C80.0003 64.3112 74.7122 49.8427 64.2816 32.3476ZM45.4891 101.028C43.1534 101.635 40.7289 101.943 38.2816 101.943C23.3377 101.943 11.1801 90.4654 11.1801 76.3579C11.1801 72.9522 12.0644 68.973 13.8079 64.5315C14.1024 63.781 15.7687 63.5344 15.7687 63.5344C15.7687 63.5344 17.1503 64.4476 17.0652 65.2441C16.9633 66.1967 16.9115 67.1272 16.9115 68.0086C16.9115 83.361 29.0847 96.2173 45.2273 97.9118C46.0307 97.9962 46.6575 98.6069 46.7216 99.3679C46.7859 100.129 46.2684 100.826 45.4891 101.028Z" stroke="white" stroke-width="4"/>
</g>
</g>
</g>
<path id="proxI" d="M5.70703 20.4922H9.22266C10.0664 20.4922 10.6367 20.2539 10.9336 19.7773C11.2383 19.293 11.3906 18.5 11.3906 17.3984C11.3906 15.8203 11.043 14.8281 10.3477 14.4219C10.0742 14.2656 9.73828 14.1836 9.33984 14.1758H5.70703V20.4922ZM2.22656 29V11.7031H9.01172C10.9414 11.7031 12.3633 12.1406 13.2773 13.0156C14.1914 13.8906 14.6484 15.3164 14.6484 17.293C14.6484 19.2695 14.207 20.7227 13.3242 21.6523C12.4492 22.5742 10.8984 23.0352 8.67188 23.0352H5.70703V29H2.22656ZM21.3633 19.6836H25.6406C26.4609 19.6836 27.0234 19.4531 27.3281 18.9922C27.6406 18.5234 27.7969 17.8164 27.7969 16.8711C27.7969 15.0742 27.125 14.1758 25.7812 14.1758H21.3633V19.6836ZM17.8828 29V11.7031H25.3477C27.582 11.7031 29.1016 12.1562 29.9062 13.0625C30.7188 13.9688 31.125 15.1992 31.125 16.7539C31.125 18.3008 30.8984 19.4297 30.4453 20.1406C30 20.8438 29.3789 21.3516 28.582 21.6641L31.9219 29H28.3125L25.2773 22.168H21.3633V29H17.8828ZM42.5391 29.3047C39.1484 29.3047 36.9141 28.4609 35.8359 26.7734C35.2266 25.8359 34.9219 24.6211 34.9219 23.1289V17.7148C34.9219 15.2852 35.6758 13.5859 37.1836 12.6172C38.4258 11.8203 40.2266 11.418 42.5859 11.4102C45.875 11.4102 48.0469 12.3086 49.1016 14.1055C49.6953 15.1133 49.9922 16.375 49.9922 17.8906V22.9414C49.9922 25.3008 49.25 27.0039 47.7656 28.0508C46.5781 28.8867 44.8359 29.3047 42.5391 29.3047ZM38.4141 23.5156C38.4141 24.6484 38.7617 25.4414 39.457 25.8945C40.1523 26.3477 41.1875 26.5742 42.5625 26.5742C43.9453 26.5742 44.9453 26.3516 45.5625 25.9062C46.1875 25.4531 46.5 24.6562 46.5 23.5156V17.2461C46.5 16.1211 46.1836 15.3242 45.5508 14.8555C44.918 14.3789 43.9219 14.1406 42.5625 14.1406C41.2109 14.1406 40.1797 14.375 39.4688 14.8438C38.7656 15.3125 38.4141 16.1133 38.4141 17.2461V23.5156ZM52.2188 29L57.7852 20.2344L52.3594 11.7031H55.9805L59.6133 17.3164L63.1289 11.7031H66.9727L61.5 20.2227L67.1719 29H63.3398L59.6133 23.1289L55.8516 29H52.2188ZM69.4688 29V26.3984H72.6211V14.293H69.4688V11.7031H79.2188V14.293H76.0898V26.3984H79.2188V29H69.4688Z" transform="translate(71 122)" fill="white"/>
</g>
<defs>
<clipPath id="clip0">
<rect width="224.407" height="166" fill="white"/>
</clipPath>
</defs>
</svg>
