<svg xmlns="http://www.w3.org/2000/svg" xmlns:xlink="http://www.w3.org/1999/xlink" width="102" height="101" viewBox="0 0 102 101"><defs><path id="lc1xa" d="M198 298.5c0 27.3-22.2 49.5-49.5 49.5S99 325.8 99 298.5s22.2-49.5 49.5-49.5 49.5 22.2 49.5 49.5zm-41.25-10.31c0-1.14-.92-2.07-2.06-2.07h-16.5c-1.14 0-2.07.93-2.07 2.07v8.25c0 1.14.93 2.06 2.07 2.06h2.06v30.94c0 1.14.92 2.06 2.06 2.06h12.38c1.14 0 2.06-.92 2.06-2.06zm0-14.44a8.26 8.26 0 1 0-16.52.02 8.26 8.26 0 0 0 16.52-.02z"/></defs><g><g transform="translate(-97 -248)"><use fill="#130078" xlink:href="#lc1xa"/></g></g></svg>