<svg xmlns="http://www.w3.org/2000/svg" xmlns:xlink="http://www.w3.org/1999/xlink" width="91" height="134" viewBox="0 0 91 134"><defs><path id="8ezva" d="M625.25 395.69v-10.94h47.63v10.94zm3.8-16s-5.35-31.55-5.9-39.58c-.59-8.43.63-10.36 1.68-11.78 1.05-1.43 21.07-29.26 25.17-31.33v38s-.02 6.08 6 6c3.5-.04 5.99-1.68 8-8 1.11-3.49 5.45-21.22 13.09-20.67 10.59.75 3.82 13.33 2.95 19.36-.87 6.04-2.32 14.84-2.95 21.06-.64 6.21-3.77 23.6-10.12 26.94zm25.28-46.73v-63.48s-.94-5.48 5.06-5.48h46.78s3.79.52 3.79 5.48v73.16s.73 4.63-4.64 4.63h-23.75s2.07-12.04 2.68-13.9c.62-1.84 2.06-9.06 2.53-12.2.36-2.3 1.15-8.4-4.21-11.79-5.79-3.65-11.43-.06-15.57 4.62-4.44 5-7 19-7 19s-.28 2-3 2c-2.51 0-2.67-2.04-2.67-2.04zm30.36-42.8a3 3 0 0 0 3 3h5.38a3 3 0 0 0 3-3v-9.19a3 3 0 0 0-3-3h-5.38a3 3 0 0 0-3 3zm-20.66 6.59v-17.59h-2.97v17.59zm5.47 0v-17.59h-2.53v17.59zm26.97 59.58l13.07 13.23-3.05 3.1-10.02-10.16-10.01 10.15-3.05-3.09zm0 14.4l13.07 13.24-3.05 3.09-10.02-10.15-10.01 10.15-3.05-3.09z"/></defs><g><g transform="translate(-621 -263)"><use fill="#130078" xlink:href="#8ezva"/></g></g></svg>