<svg xmlns="http://www.w3.org/2000/svg" xmlns:xlink="http://www.w3.org/1999/xlink" width="94" height="96" viewBox="0 0 94 96"><defs><path id="zrlha" d="M132.57 932.2a8.12 8.12 0 0 1 2.49 6c0 2.35-.83 4.35-2.49 5.99a8.16 8.16 0 0 1-5.95 2.47 8.13 8.13 0 0 1-5.98-2.47 8.17 8.17 0 0 1-2.46-6c0-2.34.82-4.34 2.46-5.99a8.13 8.13 0 0 1 5.98-2.46c2.3 0 4.29.82 5.95 2.46zm-10.58-13.68a9.02 9.02 0 0 1-6.62 2.76 9.02 9.02 0 0 1-6.62-2.76 9.06 9.06 0 0 1-2.76-6.64c0-2.59.92-4.8 2.76-6.64a9.02 9.02 0 0 1 6.62-2.76c2.58 0 4.79.92 6.62 2.76a9.07 9.07 0 0 1 2.76 6.64c0 2.58-.92 4.8-2.76 6.64zm53.83-29.64a4.53 4.53 0 0 1-1.38-3.32c0-1.29.46-2.4 1.38-3.32a4.51 4.51 0 0 1 3.31-1.38c1.29 0 2.4.46 3.31 1.38a4.53 4.53 0 0 1 1.38 3.32c0 1.3-.46 2.4-1.38 3.32a4.5 4.5 0 0 1-3.31 1.38 4.5 4.5 0 0 1-3.31-1.38zm-41.9-10.63a9.98 9.98 0 0 1 3.02 7.31c0 2.86-1.01 5.3-3.02 7.32a9.93 9.93 0 0 1-7.3 3.02c-2.85 0-5.28-1-7.3-3.02a9.97 9.97 0 0 1-3.01-7.32c0-2.86 1-5.3 3.02-7.31a9.93 9.93 0 0 1 7.3-3.03c2.84 0 5.28 1.01 7.29 3.03zM196 911.88c0 1.57-.55 2.9-1.64 4a5.42 5.42 0 0 1-3.99 1.64c-1.56 0-2.89-.55-3.98-1.65a5.44 5.44 0 0 1-1.64-3.99c0-1.57.54-2.9 1.64-4a5.42 5.42 0 0 1 3.98-1.64c1.56 0 2.9.55 3.99 1.64a5.44 5.44 0 0 1 1.64 4zm-12.25 21.67a6.34 6.34 0 0 1 1.93 4.65c0 1.8-.64 3.35-1.93 4.64a6.31 6.31 0 0 1-4.63 1.94 6.3 6.3 0 0 1-4.63-1.94 6.34 6.34 0 0 1-1.94-4.64c0-1.8.65-3.35 1.94-4.65a6.31 6.31 0 0 1 4.63-1.93c1.8 0 3.34.64 4.63 1.93zm-25.58 10.6a7.25 7.25 0 0 1 2.2 5.32c0 2.08-.74 3.85-2.2 5.32a7.22 7.22 0 0 1-5.3 2.2 7.22 7.22 0 0 1-5.3-2.2 7.25 7.25 0 0 1-2.2-5.32c0-2.07.73-3.84 2.2-5.31a7.22 7.22 0 0 1 5.3-2.2c2.07 0 3.83.73 5.3 2.2zm2.67-77.86a10.9 10.9 0 0 1 3.28 8c0 3.13-1.1 5.79-3.28 7.98a10.83 10.83 0 0 1-7.97 3.3c-3.13 0-5.79-1.1-7.98-3.3a10.89 10.89 0 0 1-3.28-7.99c0-3.13 1.1-5.8 3.28-7.99a10.84 10.84 0 0 1 7.98-3.28c3.12 0 5.78 1.1 7.97 3.28z"/></defs><g><g transform="translate(-104 -862)"><use fill="#130078" xlink:href="#zrlha"/></g></g></svg>