<svg xmlns="http://www.w3.org/2000/svg" xmlns:xlink="http://www.w3.org/1999/xlink" width="103" height="130" viewBox="0 0 103 130"><defs><path id="1l42a" d="M644 86h70v107l-6-6-5 6-5-6-4 6-6-6-5 6-4-6-6 6-4.72-6.3L671 175s1.15-9.72 2-18h33v-4h-32.25c.42-1.98.97-4.43 1.5-7H706v-4h-29.97c.44-2.47.8-4.9.97-7h29v-4h-29c-.87-6.89-10.5-6.37-12-6-8 1.97-15 27-15 27s-.69 1.88-2 2c-2.33.2-4 1.1-4-5.87V86zm62 20v-4h-52v4zm0 11v-4h-52v4zm-89.75 95.69v-10.94h47.63v10.94zm3.8-16s-5.35-31.55-5.9-39.58c-.59-8.43.63-10.36 1.68-11.78 1.05-1.43 21.07-29.26 25.17-31.33v38s-.02 6.08 6 6c3.5-.04 5.99-1.68 8-8 1.11-3.49 5.45-21.22 13.09-20.67 10.59.75 3.82 13.33 2.95 19.36-.87 6.04-2.32 14.84-2.95 21.06-.64 6.21-3.77 23.6-10.12 26.94z"/></defs><g><g transform="translate(-612 -84)"><use fill="#130078" xlink:href="#1l42a"/></g></g></svg>