<svg xmlns="http://www.w3.org/2000/svg" xmlns:xlink="http://www.w3.org/1999/xlink" width="91" height="135" viewBox="0 0 91 135"><defs><path id="g6tfa" d="M625.25 956.69v-10.94h47.63v10.94zm3.8-16s-5.35-31.55-5.9-39.58c-.59-8.43.63-10.36 1.68-11.78 1.05-1.43 21.07-29.26 25.17-31.33v38s-.02 6.08 6 6c3.5-.04 5.99-1.68 8-8 1.11-3.49 5.45-21.22 13.09-20.67 10.59.75 3.82 13.33 2.95 19.36-.87 6.04-2.32 14.84-2.95 21.06-.64 6.21-3.77 23.6-10.12 26.94zm25.28-46.73L654 825h56l-.04 5.48c-.04 5.16-.33 78.5-.12 77.36 0 0 .85.43-4.52.43h-23.75s2.07-12.04 2.68-13.9c.62-1.84 2.06-9.06 2.53-12.2.36-2.3 1.15-8.4-4.21-11.79-5.79-3.65-11.43-.06-15.57 4.62-4.44 5-7 19-7 19s-.28 2-3 2c-2.51 0-2.67-2.04-2.67-2.04zM654 825c-.04 0 0 0 0 0zm29 109.64l3.04-3.11 9.97 10.23 9.96-10.23 3.04 3.11L696 948zm0-14.52l3.04-3.12 9.97 10.23 9.96-10.23 3.04 3.12-13 13.34zm13-68.26v-8.93a1.8 1.8 0 0 0-1.81-1.79h-16.32v-5.35a1.8 1.8 0 0 0-1.8-1.79c-1 0-1.82.8-1.82 1.79v5.35h-5.44c-1 0-1.81.8-1.81 1.79 0 .98.81 1.78 1.81 1.78h5.44v5.36c0 .99.81 1.79 1.81 1.79s1.81-.8 1.81-1.79v-5.36h3.63v7.15a7.2 7.2 0 0 0 7.25 7.14c4 0 7.25-3.2 7.25-7.14zm-10.88 0v-7.15h7.25v7.15a3.6 3.6 0 0 1-3.62 3.57c-2 0-3.63-1.6-3.63-3.57z"/></defs><g><g transform="translate(-621 -823)"><use fill="#130078" xlink:href="#g6tfa"/></g></g></svg>