<?xml version="1.0" encoding="utf-8"?>
<!-- Generator: Adobe Illustrator 21.1.0, SVG Export Plug-In . SVG Version: 6.00 Build 0)  -->
<svg version="1.1" id="Слой_1" xmlns="http://www.w3.org/2000/svg" xmlns:xlink="http://www.w3.org/1999/xlink" x="0px" y="0px"
	 viewBox="0 0 72 81" style="enable-background:new 0 0 72 81;" xml:space="preserve">
<style type="text/css">
	.st0{fill:#D89C00;}
</style>
<path id="_x39_wnbb" class="st0" d="M24.2,54.2c-0.1-0.1-0.2-0.3-0.2-0.5v-2.6c0-0.3,0.3-0.6,0.6-0.7c0,0,0,0,0.1,0h4.5V48h-4.5
	c-0.3,0-0.6-0.3-0.7-0.6c0,0,0,0,0-0.1v-3.1c0-0.2,0.1-0.3,0.2-0.5s0.3-0.2,0.5-0.2h4.5v-13c0-0.2,0.1-0.3,0.2-0.5
	c0.1-0.1,0.3-0.2,0.5-0.2h11c2.7,0,4.9,0.8,6.6,2.5c1.7,1.7,2.7,4.1,2.6,6.5c0,2.7-0.9,4.8-2.6,6.5c-1.8,1.7-4.2,2.6-6.6,2.5h-6.9
	v2.4h10.3c0.3,0,0.6,0.3,0.7,0.6c0,0,0,0,0,0.1v2.6c0,0.2-0.1,0.3-0.2,0.5c-0.1,0.1-0.3,0.2-0.5,0.2H33.9v4c0,0.2-0.1,0.3-0.2,0.5
	c-0.1,0.1-0.3,0.2-0.5,0.2h-3.4c-0.3,0-0.6-0.3-0.7-0.6c0,0,0,0,0-0.1v-4h-4.5C24.5,54.4,24.3,54.3,24.2,54.2L24.2,54.2z M33.9,43.6
	h6.5c1.4,0,2.6-0.4,3.5-1.3c0.9-0.9,1.4-2.1,1.3-3.3c0-1.4-0.4-2.5-1.3-3.3c-0.9-0.9-2.2-1.3-3.5-1.3h-6.5V43.6z"/>
<path id="_x39_wnba" class="st0" d="M71,45.6C70.9,64.6,55.5,80,36.5,80C17.5,80,2.1,64.6,2,45.6c0-17.4,13-32,30.2-34.1V7.9h-5.6V1
	h19.5v7h-5.6v3.5c4.2,0.5,8.2,1.8,11.8,3.7l4.3-5.6l6.9,5.2l-4,5.3C66.8,26.6,71,35.8,71,45.6L71,45.6z M62.3,45.6
	c0-14.2-11.5-25.8-25.8-25.8c-14.2,0-25.8,11.5-25.8,25.8s11.5,25.8,25.8,25.8S62.3,59.8,62.3,45.6L62.3,45.6z"/>
</svg>
