<svg xmlns="http://www.w3.org/2000/svg" xmlns:xlink="http://www.w3.org/1999/xlink" width="107" height="106" viewBox="0 0 107 106"><defs><path id="62bha" d="M203 602c0 28.67-23.33 52-52 52s-52-23.33-52-52 23.33-52 52-52 52 23.33 52 52zm-47.67 28.17a6.5 6.5 0 1 0-13.01.01 6.5 6.5 0 0 0 13.01-.01zM172.67 589A21.7 21.7 0 0 0 151 567.33 21.7 21.7 0 0 0 129.33 589v2.17c0 1.2.97 2.16 2.17 2.16h8.67c1.2 0 2.16-.97 2.16-2.16V589a8.68 8.68 0 0 1 17.34 0 8.68 8.68 0 0 1-8.67 8.67 8.68 8.68 0 0 0-8.67 8.66v10.84c0 1.2.97 2.16 2.17 2.16h8.67c1.2 0 2.16-.97 2.16-2.16v-6.93A21.64 21.64 0 0 0 172.67 589z"/></defs><g><g transform="translate(-97 -549)"><use fill="#130078" xlink:href="#62bha"/></g></g></svg>