<svg xmlns="http://www.w3.org/2000/svg" xmlns:xlink="http://www.w3.org/1999/xlink" width="118" height="107" viewBox="0 0 118 107"><defs><path id="7msca" d="M205.48 492.33a11.06 11.06 0 0 1-9.7 5.67h-91.6c-4.05 0-7.67-2.12-9.7-5.67a11.34 11.34 0 0 1 0-11.34l45.8-80.32a11.06 11.06 0 0 1 9.7-5.67c4.05 0 7.68 2.12 9.7 5.67l45.8 80.32a11.35 11.35 0 0 1 0 11.34zm-48.2-14.78a7.34 7.34 0 0 0-7.3-7.38 7.34 7.34 0 0 0-7.29 7.38 7.34 7.34 0 0 0 7.3 7.38 7.34 7.34 0 0 0 7.28-7.38zm.04-24.17v-34.1a3.5 3.5 0 0 0-3.47-3.52h-7.73a3.5 3.5 0 0 0-3.47 3.52v34.1a7.4 7.4 0 0 0 7.33 7.43 7.4 7.4 0 0 0 7.34-7.43z"/></defs><g><g transform="translate(-91 -393)"><use fill="#130078" xlink:href="#7msca"/></g></g></svg>