<?xml version="1.0" encoding="utf-8"?><svg xmlns="http://www.w3.org/2000/svg" xmlns:xlink="http://www.w3.org/1999/xlink"><symbol viewBox="0 0 28 54" id="arr-left" xmlns="http://www.w3.org/2000/svg"><path d="M27 1L1 27l26 26"/></symbol><symbol viewBox="0 0 23 16" id="check" xmlns="http://www.w3.org/2000/svg"><path d="M1 6.5l8 8L22.5 1"/></symbol><symbol viewBox="0 0 17 17" id="close" xmlns="http://www.w3.org/2000/svg"><path fill-rule="evenodd" clip-rule="evenodd" d="M7.396 8.104L0 15.5l.707.707 7.397-7.396 7.396 7.396.707-.707-7.396-7.396L16.207.707 15.5 0 8.104 7.396.707 0 0 .707l7.396 7.397z"/></symbol><symbol viewBox="0 0 44 47" id="infrastructure-i-1" xmlns="http://www.w3.org/2000/svg"><path fill-rule="evenodd" clip-rule="evenodd" d="M31.059 24.389a7.44 7.44 0 0 0-5.229 6.147h-.007c-.89 0-1.887.086-2.938.253a.916.916 0 0 0 .289 1.809c1.294-.207 2.482-.276 3.434-.201a.914.914 0 0 0 .988-.906 5.62 5.62 0 0 1 3.998-5.351 5.65 5.65 0 0 1 7.045 3.75 5.65 5.65 0 0 1-3.75 7.046 5.62 5.62 0 0 1-6.306-2.207.914.914 0 0 0-1.324-.2c-1.42 1.126-3.705 2.221-6.27 3.004-2.564.782-5.07 1.15-6.878 1.008a.914.914 0 0 0-.987.905 5.62 5.62 0 0 1-3.998 5.351 5.65 5.65 0 0 1-7.045-3.75 5.606 5.606 0 0 1 .416-4.3 5.607 5.607 0 0 1 3.335-2.746 5.62 5.62 0 0 1 6.304 2.207.915.915 0 0 0 1.325.2c.748-.594 1.772-1.2 2.961-1.75a.915.915 0 1 0-.77-1.662c-.967.45-1.845.937-2.584 1.435a7.44 7.44 0 0 0-7.771-2.181A7.426 7.426 0 0 0 .88 35.886a7.427 7.427 0 0 0-.552 5.695c.982 3.218 3.952 5.294 7.154 5.294a7.45 7.45 0 0 0 2.177-.326 7.44 7.44 0 0 0 5.23-6.148h.008c1.9 0 4.255-.394 6.626-1.117 2.375-.724 4.551-1.715 6.128-2.778a7.44 7.44 0 0 0 7.77 2.181c3.943-1.203 6.171-5.389 4.968-9.33-1.203-3.943-5.39-6.171-9.331-4.968z"/><path fill-rule="evenodd" clip-rule="evenodd" d="M30.251 32.428a.915.915 0 0 0 .916-.908 2.063 2.063 0 0 1 1.469-1.964 2.075 2.075 0 0 1 2.587 1.377.915.915 0 1 0 1.751-.534 3.907 3.907 0 0 0-4.873-2.594 3.886 3.886 0 0 0-2.765 3.7.915.915 0 0 0 .908.923h.007zM6.874 37.417a2.063 2.063 0 0 1 2.315.81.916.916 0 0 0 1.511-1.035 3.887 3.887 0 0 0-4.36-1.526 3.878 3.878 0 0 0-2.307 1.899 3.878 3.878 0 0 0-.287 2.974.915.915 0 1 0 1.75-.535 2.061 2.061 0 0 1 .153-1.579 2.06 2.06 0 0 1 1.225-1.008zm35.7-34.133c-2.31-3.414-6.966-4.312-10.38-2.002a7.44 7.44 0 0 0-3.188 7.414c-.851.262-1.783.638-2.74 1.109a.915.915 0 1 0 .808 1.643c1.176-.578 2.29-.994 3.223-1.203a.915.915 0 0 0 .677-1.156 5.619 5.619 0 0 1 2.247-6.29 5.65 5.65 0 0 1 7.837 1.51 5.65 5.65 0 0 1-1.512 7.838 5.62 5.62 0 0 1-6.675-.254.915.915 0 0 0-1.324.199c-1.026 1.494-2.887 3.213-5.108 4.715-2.22 1.503-4.508 2.592-6.277 2.988a.913.913 0 0 0-.677 1.156 5.619 5.619 0 0 1-2.246 6.29 5.607 5.607 0 0 1-4.232.868 5.605 5.605 0 0 1-3.605-2.379 5.65 5.65 0 0 1 1.51-7.837 5.62 5.62 0 0 1 6.676.254.916.916 0 0 0 1.325-.198c.54-.788 1.34-1.668 2.316-2.545a.916.916 0 0 0-1.226-1.361 18.835 18.835 0 0 0-2.048 2.132 7.44 7.44 0 0 0-8.068.201c-3.414 2.31-4.312 6.967-2.002 10.38a7.428 7.428 0 0 0 4.775 3.151 7.426 7.426 0 0 0 5.605-1.149 7.44 7.44 0 0 0 3.188-7.414c1.817-.558 3.956-1.628 6.012-3.02 2.056-1.391 3.845-2.978 5.04-4.458a7.44 7.44 0 0 0 8.067-.202c3.414-2.31 4.312-6.967 2.002-10.38z"/><path fill-rule="evenodd" clip-rule="evenodd" d="M35.222 5.756a2.06 2.06 0 0 1 1.554-.319 2.06 2.06 0 0 1 1.324.875.915.915 0 1 0 1.517-1.026 3.878 3.878 0 0 0-2.494-1.646 3.877 3.877 0 0 0-2.927.6 3.887 3.887 0 0 0-1.554 4.35.916.916 0 0 0 1.754-.524c-.26-.87.072-1.799.826-2.31zM12.915 20.851a2.063 2.063 0 0 1 2.45.092.915.915 0 1 0 1.14-1.433 3.887 3.887 0 0 0-4.617-.175 3.908 3.908 0 0 0-1.045 5.42.915.915 0 1 0 1.517-1.026 2.075 2.075 0 0 1 .555-2.878zm7.463 11.678a.917.917 0 0 0-.915-.916.917.917 0 0 0-.916.916c0 .504.411.915.916.915a.917.917 0 0 0 .915-.915zm3.129-19.139a.917.917 0 0 0 .916-.916.918.918 0 0 0-.916-.915.918.918 0 0 0-.916.915c0 .505.411.916.916.916z"/></symbol><symbol viewBox="0 0 75 55" id="infrastructure-i-2" xmlns="http://www.w3.org/2000/svg"><path d="M57.495 16.986h-39.99v8.095h39.99v-8.095zm-2.197 5.91H19.702v-3.725h35.596v3.725z"/><path d="M75 2.39h-5.764c-3.44 0-6.237 2.781-6.237 6.2v19.82H50.508c-3.578 0-6.488 2.895-6.488 6.451v6.015h4.002l-2.754 7.707h-4.483l-.209-.208V26.901H38.38v22.38l1.496 1.487h4.612l-.732 2.047h-12.51l-.733-2.047h4.613l1.496-1.488V26.901h-2.197v21.475l-.209.207h-4.483l-2.754-7.707h4.002v-6.015c0-3.556-2.91-6.45-6.488-6.45H12.001V8.59C12 5.17 9.203 2.39 5.764 2.39H0v38.486h5.2L.153 55h6.712l5.047-14.124h8.353L25.313 55h24.374l5.048-14.124h8.353L68.135 55h6.712L69.8 40.876H75V2.39zM5.314 52.815H3.265l4.267-11.939H9.58l-4.266 11.94zM2.197 38.692v-1.894h12.207v-2.184H2.197V4.574h3.567c2.228 0 4.04 1.802 4.04 4.016v22.005h14.688c2.366 0 4.291 1.914 4.291 4.266v3.83H2.197zm24.667 14.123l-4.267-11.939h2.049l4.267 11.94h-2.05zm21.272 0h-2.048l4.266-11.939h2.05l-4.268 11.94zm23.599 0h-2.05L65.42 40.876h2.048l4.267 11.94zm1.068-14.123H46.217v-1.894h12.207v-2.184h-12.2c.13-2.238 2.001-4.019 4.284-4.019h14.688V8.59c0-2.214 1.813-4.016 4.04-4.016h3.567v34.117z"/><path d="M35.523 13.999v2.184h3.954V14H38.6V8.537h-2.2v.91h-.879v2.185h.88V14h-.88z"/><path d="M33.735 6.395h7.53l1.495 8.95 2.167-.359-1.8-10.776H40.55c.107-.318.166-.658.166-1.012C40.716 1.435 39.273 0 37.499 0c-1.773 0-3.216 1.434-3.216 3.198 0 .354.058.694.166 1.012h-2.576l-1.8 10.776 2.167.358 1.495-8.95zm2.746-3.197c0-.559.456-1.013 1.018-1.013s1.02.454 1.02 1.013c0 .558-.458 1.012-1.02 1.012a1.017 1.017 0 0 1-1.018-1.012zM8.339 24.849H6.14v-8.977h2.2v8.977zm0-10.433H6.14V12.23h2.2v2.185zm0-3.641H6.14V8.59h2.2v2.185zm62.999 15.919H69.14v-12.29h2.197v12.29zm0-13.745H69.14v-2.185h2.197v2.184zm0-3.641H69.14V7.123h2.197v2.185zM53.09 22.125h-4.83v-2.184h4.83v2.184zm-6.295 0h-2.197v-2.184h2.197v2.184zm-3.662 0h-2.198v-2.184h2.198v2.184z"/></symbol><symbol viewBox="0 0 50 50" id="infrastructure-i-3" xmlns="http://www.w3.org/2000/svg"><path d="M35.407 16.852l-.535-1.761a3.825 3.825 0 0 0-7.244 0l-.535 1.76a9.89 9.89 0 0 0-.275 4.584 4.31 4.31 0 0 0 2.22 3.004l-.6 13.394a2.64 2.64 0 0 0 .667 2.052 2.91 2.91 0 0 0 4.297 0 2.603 2.603 0 0 0 .666-1.996l-.602-13.452a4.31 4.31 0 0 0 2.217-3.002 9.89 9.89 0 0 0-.276-4.583zm-1.366 4.293a2.642 2.642 0 0 1-1.73 1.99.833.833 0 0 0-.538.818l.633 14.068a.964.964 0 0 1-.25.755 1.287 1.287 0 0 1-1.812 0 1 1 0 0 1-.245-.81l.629-14.013a.833.833 0 0 0-.54-.817 2.642 2.642 0 0 1-1.729-1.991 8.219 8.219 0 0 1 .23-3.805l.534-1.762a2.16 2.16 0 0 1 4.054 0l.535 1.762a8.228 8.228 0 0 1 .229 3.805zM22.5 12.5a.833.833 0 0 0-.833.833v7.155l-2.256 2.256a.833.833 0 0 0-.244.631l.729 14.583a1.14 1.14 0 0 1-.315.85 1.173 1.173 0 0 1-1.66.007l-.007-.008a1.135 1.135 0 0 1-.315-.849l.734-14.583a.833.833 0 0 0-.243-.63l-2.257-2.257v-7.155a.833.833 0 0 0-1.666 0v7.5c0 .221.088.433.244.59l2.238 2.239-.71 14.215a2.815 2.815 0 1 0 5.623 0l-.711-14.215 2.238-2.24a.833.833 0 0 0 .244-.589v-7.5a.833.833 0 0 0-.833-.833z"/><path d="M17.5 12.5a.833.833 0 0 0-.833.833V20a.833.833 0 0 0 1.666 0v-6.667a.833.833 0 0 0-.833-.833zm2.5 0a.833.833 0 0 0-.833.833V20a.833.833 0 0 0 1.666 0v-6.667A.833.833 0 0 0 20 12.5z"/><path d="M25 0C11.193 0 0 11.193 0 25s11.193 25 25 25 25-11.193 25-25C49.984 11.2 38.8.016 25 0zm0 48.333C12.113 48.333 1.667 37.887 1.667 25 1.667 12.113 12.113 1.667 25 1.667c12.887 0 23.333 10.446 23.333 23.333C48.32 37.88 37.88 48.319 25 48.333z"/><path d="M27.705 40.643a.833.833 0 0 0-.942-.745h.003a15.303 15.303 0 0 1-3.532 0 .834.834 0 0 0-.194 1.655 16.88 16.88 0 0 0 3.917 0 .833.833 0 0 0 .748-.91zM37.75 14.262a.833.833 0 0 0-1.174-.103l-.003.003a.833.833 0 0 0-.1 1.174c5.024 5.964 4.64 14.784-.885 20.289a.834.834 0 0 0 1.177 1.18c6.14-6.115 6.568-15.915.985-22.543zm-18.334-2.247l-.002-1-.002 1h.004z"/><path d="M28.93 8.799a16.814 16.814 0 0 0-9.808.602.833.833 0 0 0 .584 1.56 15.14 15.14 0 0 1 8.833-.542.833.833 0 1 0 .392-1.62zM14.374 35.583A14.903 14.903 0 0 1 10 25a14.889 14.889 0 0 1 2.867-8.823.833.833 0 1 0-1.346-.982 16.667 16.667 0 0 0 1.672 21.568.835.835 0 1 0 1.181-1.18z"/></symbol><symbol viewBox="0 0 50 50" id="infrastructure-i-4" xmlns="http://www.w3.org/2000/svg"><path d="M49.023 20.166h-8.007v-2.067a.977.977 0 0 0-.977-.977H18.945a.977.977 0 0 0 0 1.953h20.117v7.487c0 6.577-3.51 12.69-9.18 16.016H11.134a18.606 18.606 0 0 1-9.182-16.016v-7.486h6.543a.977.977 0 0 0 0-1.954H.976A.977.977 0 0 0 0 18.1v8.463c0 3.692.992 7.311 2.87 10.467a20.617 20.617 0 0 0 4.83 5.55H.977a.977.977 0 0 0-.977.976A6.453 6.453 0 0 0 6.445 50h30.47a6.453 6.453 0 0 0 6.444-6.445.977.977 0 0 0-.976-.977h-9.069a20.627 20.627 0 0 0 4.522-5.046h2.757c5.187 0 9.407-4.22 9.407-9.407v-6.983a.977.977 0 0 0-.977-.976zM41.3 44.531a4.5 4.5 0 0 1-4.385 3.516H6.445A4.5 4.5 0 0 1 2.06 44.53H41.3zm-.283-17.968v-.538h3.125v2.1a3.552 3.552 0 0 1-3.548 3.548h-.222c.426-1.66.645-3.378.645-5.11zm7.03 1.562c0 4.11-3.343 7.454-7.453 7.454H38.93c.312-.636.59-1.288.834-1.953h.828a5.507 5.507 0 0 0 5.502-5.501v-3.076a.977.977 0 0 0-.977-.977h-4.101V22.12h7.03v6.006zM21.44 5.405l-.508-.638a2.545 2.545 0 0 1-.002-3.183A.977.977 0 1 0 19.4.37a4.49 4.49 0 0 0 .005 5.614l.508.638a3.327 3.327 0 0 1 .003 4.16l-.52.655a.976.976 0 1 0 1.53 1.214l.52-.656a5.271 5.271 0 0 0-.006-6.59zM26.853 7.6l-.508-.637a2.546 2.546 0 0 1-.002-3.183.976.976 0 1 0-1.53-1.215 4.49 4.49 0 0 0 .005 5.614l.508.638a3.327 3.327 0 0 1 .003 4.16l-.52.656a.976.976 0 1 0 1.53 1.214l.52-.656a5.271 5.271 0 0 0-.006-6.59zm-10.826 0l-.508-.637a2.546 2.546 0 0 1-.003-3.183.976.976 0 1 0-1.53-1.215 4.49 4.49 0 0 0 .005 5.614l.508.638a3.327 3.327 0 0 1 .004 4.16l-.52.656a.977.977 0 0 0 1.529 1.214l.52-.656a5.271 5.271 0 0 0-.005-6.59z"/><path d="M14.676 17.408a.984.984 0 0 0-.69-.286.984.984 0 0 0-.691.286.986.986 0 0 0-.286.69c0 .258.104.51.286.692a.983.983 0 0 0 .69.285.983.983 0 0 0 .69-.285.98.98 0 0 0 0-1.382zm20.676 8.178a.977.977 0 0 0-.977.977c0 3.624-1.47 7.187-4.034 9.773a.977.977 0 0 0 1.387 1.375c2.924-2.95 4.6-7.013 4.6-11.148a.977.977 0 0 0-.976-.977zM28.7 38.987a.977.977 0 0 0-1.33-.371l-.023.013a.976.976 0 1 0 .96 1.7l.022-.012a.977.977 0 0 0 .37-1.33z"/></symbol><symbol viewBox="0 0 8 13" id="sm-left" xmlns="http://www.w3.org/2000/svg"><path d="M7 12L1 6.5 7 1"/></symbol><symbol viewBox="0 0 8 13" id="sm-right" xmlns="http://www.w3.org/2000/svg"><path d="M1 1l6 5.5L1 12"/></symbol><symbol viewBox="0 0 16 18" id="user" xmlns="http://www.w3.org/2000/svg"><path d="M7.935 9.699h.119c1.092-.019 1.976-.403 2.628-1.137 1.435-1.618 1.196-4.39 1.17-4.656C11.76 1.92 10.82.97 10.044.526 9.467.194 8.792.015 8.04 0h-.063C7.562 0 6.749.067 5.97.51c-.782.444-1.737 1.395-1.83 3.396-.026.265-.264 3.038 1.17 4.656.65.734 1.533 1.118 2.625 1.137zm-2.8-5.7c0-.01.004-.022.004-.03.123-2.672 2.02-2.959 2.833-2.959h.045c1.006.023 2.717.433 2.833 2.96 0 .01 0 .022.003.03.004.026.265 2.56-.92 3.895-.47.53-1.096.79-1.92.797h-.037c-.82-.007-1.45-.268-1.916-.797C4.878 6.568 5.132 4.022 5.135 4z"/><path d="M15.654 14.299v-.011c0-.03-.003-.06-.003-.094-.023-.738-.071-2.464-1.689-3.015l-.037-.011c-1.681-.43-3.08-1.398-3.094-1.41a.503.503 0 1 0-.578.824c.064.045 1.547 1.078 3.403 1.555.869.31.966 1.237.992 2.087 0 .034 0 .063.004.093.003.336-.019.854-.079 1.152-.603.343-2.97 1.528-6.571 1.528-3.586 0-5.968-1.189-6.575-1.532-.06-.298-.086-.816-.079-1.151 0-.03.004-.06.004-.094.026-.85.123-1.778.992-2.087 1.856-.477 3.34-1.513 3.403-1.554a.503.503 0 1 0-.578-.824c-.015.011-1.405.98-3.094 1.409l-.037.011C.42 11.73.372 13.456.349 14.191a.75.75 0 0 1-.003.093v.011c-.004.194-.008 1.189.19 1.688a.478.478 0 0 0 .194.235C.84 16.293 3.52 18 8.006 18c4.484 0 7.164-1.71 7.276-1.782a.499.499 0 0 0 .194-.235c.186-.495.182-1.49.178-1.684z"/></symbol></svg>