<?xml version="1.0" encoding="utf-8"?><svg xmlns="http://www.w3.org/2000/svg" xmlns:xlink="http://www.w3.org/1999/xlink"><symbol viewBox="0 0 28 54" id="arr-left" xmlns="http://www.w3.org/2000/svg"><path d="M27 1L1 27l26 26"/></symbol><symbol viewBox="0 0 23 16" id="check" xmlns="http://www.w3.org/2000/svg"><path d="M1 6.5l8 8L22.5 1"/></symbol><symbol viewBox="0 0 41 41" id="clock" xmlns="http://www.w3.org/2000/svg"><path d="M12.875 7.434c-7.1 4.099-9.54 13.209-5.442 20.308 4.1 7.1 13.21 9.54 20.309 5.442 7.099-4.099 9.54-13.21 5.441-20.309-4.099-7.099-13.209-9.54-20.308-5.441zm13.285 23.01c-5.589 3.227-12.76 1.306-15.987-4.283-3.227-5.59-1.305-12.761 4.284-15.988 5.588-3.226 12.76-1.305 15.987 4.284 3.227 5.589 1.305 12.76-4.284 15.987z"/><path d="M26.789 16.037l-5.786 3.34-4.017-6.956a1.224 1.224 0 1 0-2.12 1.224l4.629 8.017a1.224 1.224 0 0 0 1.672.448l6.846-3.953a1.224 1.224 0 0 0-1.224-2.12z"/></symbol><symbol viewBox="0 0 17 17" id="close" xmlns="http://www.w3.org/2000/svg"><path fill-rule="evenodd" clip-rule="evenodd" d="M7.396 8.104L0 15.5l.707.707 7.397-7.396 7.396 7.396.707-.707-7.396-7.396L16.207.707 15.5 0 8.104 7.396.707 0 0 .707l7.396 7.397z"/></symbol><symbol viewBox="0 0 47 47" id="event" xmlns="http://www.w3.org/2000/svg"><g clip-path="url(#eclip0)"><path d="M11.916 15.932h-4.78a.796.796 0 0 0-.796.796v4.78c0 .44.356.796.796.796h4.78c.44 0 .796-.356.796-.796v-4.78a.796.796 0 0 0-.796-.796zm-.797 4.779H7.933v-3.186h3.186v3.186zm8.761-4.779h-4.779a.797.797 0 0 0-.796.796v4.78c0 .44.357.796.796.796h4.78c.44 0 .796-.356.796-.796v-4.78a.797.797 0 0 0-.796-.796zm-.796 4.779h-3.186v-3.186h3.186v3.186zm8.764-4.779h-4.78a.797.797 0 0 0-.797.796v4.78c0 .44.357.796.797.796h4.78c.44 0 .796-.356.796-.796v-4.78a.797.797 0 0 0-.796-.796zm-.797 4.779h-3.186v-3.186h3.186v3.186zm3.982 1.593h4.78c.44 0 .796-.356.796-.796v-4.78a.796.796 0 0 0-.797-.796h-4.78a.796.796 0 0 0-.796.796v4.78c0 .44.357.796.797.796zm.796-4.78h3.187v3.187H31.83v-3.186zm-19.913 6.372h-4.78a.797.797 0 0 0-.796.797v4.78c0 .44.356.796.796.796h4.78c.44 0 .796-.357.796-.797v-4.779a.797.797 0 0 0-.796-.797zm-.797 4.78H7.933V25.49h3.186v3.186zm8.761-4.78h-4.779a.797.797 0 0 0-.796.797v4.78c0 .44.357.796.796.796h4.78c.44 0 .796-.357.796-.797v-4.779a.797.797 0 0 0-.796-.797zm-.796 4.78h-3.186V25.49h3.186v3.186zm8.764-4.78h-4.78a.797.797 0 0 0-.797.797v4.78c0 .44.357.796.797.796h4.78c.44 0 .796-.357.796-.797v-4.779a.797.797 0 0 0-.796-.797zm-.797 4.78h-3.186V25.49h3.186v3.186zm3.982 1.594h4.78c.44 0 .796-.358.796-.798v-4.779a.797.797 0 0 0-.797-.797h-4.78a.797.797 0 0 0-.796.797v4.78c0 .44.357.796.797.796zm.796-4.78h3.187v3.186H31.83V25.49zm-19.913 6.372h-4.78a.796.796 0 0 0-.796.797v4.78c0 .44.356.796.796.796h4.78c.44 0 .796-.357.796-.797v-4.78a.796.796 0 0 0-.796-.796zm-.797 4.78H7.933v-3.187h3.186v3.187zm8.761-4.78h-4.779a.796.796 0 0 0-.796.797v4.78c0 .44.357.796.796.796h4.78c.44 0 .796-.357.796-.797v-4.78a.797.797 0 0 0-.796-.796zm-.796 4.78h-3.186v-3.187h3.186v3.187zm8.764-4.78h-4.78a.797.797 0 0 0-.797.797v4.78c0 .44.357.796.797.796h4.78c.44 0 .796-.357.796-.797v-4.78a.796.796 0 0 0-.796-.796zm-.797 4.78h-3.186v-3.187h3.186v3.187z"/><path d="M41.389 32.144V3.983a.797.797 0 0 0-.797-.797H36.61V2.39a2.39 2.39 0 0 0-4.779 0v.796h-1.593V2.39a2.39 2.39 0 0 0-4.78 0v.796h-1.593V2.39a2.39 2.39 0 1 0-4.779 0v.796h-1.593V2.39a2.39 2.39 0 0 0-4.78 0v.796H11.12V2.39a2.39 2.39 0 0 0-4.779 0v.796H2.357a.796.796 0 0 0-.796.797v38.235c0 .44.356.797.796.797h28.161a7.96 7.96 0 1 0 10.87-10.871zM33.423 2.39a.796.796 0 1 1 1.593 0v3.186a.797.797 0 1 1-1.593 0V2.39zm-6.372 0a.797.797 0 0 1 1.593 0v3.186a.797.797 0 0 1-1.593 0V2.39zm-6.373 0a.796.796 0 1 1 1.593 0v3.186a.797.797 0 1 1-1.593 0V2.39zm-6.372 0a.796.796 0 0 1 1.593 0v3.186a.797.797 0 0 1-1.593 0V2.39zm-6.373 0a.796.796 0 1 1 1.593 0v3.186a.797.797 0 1 1-1.593 0V2.39zm-4.78 2.39H6.34v.796a2.39 2.39 0 1 0 4.78 0V4.78h1.592v.796a2.39 2.39 0 1 0 4.78 0V4.78h1.593v.796a2.39 2.39 0 1 0 4.78 0V4.78h1.593v.796a2.39 2.39 0 0 0 4.779 0V4.78h1.593v.796a2.39 2.39 0 1 0 4.78 0V4.78h3.186v6.372H3.154V4.78zm0 36.642V12.745h36.643v18.688a7.966 7.966 0 0 0-9.989 9.989H3.154zm34.253 3.982a6.373 6.373 0 1 1 6.373-6.372 6.38 6.38 0 0 1-6.373 6.372z"/><path d="M40.094 36.02l-3.424 2.74-1.885-1.886a.797.797 0 0 0-1.127 1.127l2.39 2.39a.797.797 0 0 0 1.061.059l3.983-3.187a.797.797 0 1 0-.996-1.245z"/></g><defs><clipPath id="eclip0"><path d="M0 0h47v47H0z"/></clipPath></defs></symbol><symbol viewBox="0 0 23 24" id="facebook" xmlns="http://www.w3.org/2000/svg"><path d="M11.5 0C5.159 0 0 5.217 0 11.63c0 6.413 5.159 11.63 11.5 11.63 6.34 0 11.5-5.217 11.5-11.63C23 5.217 17.841 0 11.5 0zm2.86 12.04h-1.871v6.744H9.717V12.04H8.399V9.656h1.318V8.114c0-1.104.518-2.83 2.797-2.83l2.055.009v2.314h-1.491c-.243 0-.588.122-.588.649v1.4h2.112l-.242 2.384z"/></symbol><symbol viewBox="0 0 44 47" id="infrastructure-i-1" xmlns="http://www.w3.org/2000/svg"><path fill-rule="evenodd" clip-rule="evenodd" d="M31.059 24.389a7.44 7.44 0 0 0-5.229 6.147h-.007c-.89 0-1.887.086-2.938.253a.916.916 0 0 0 .289 1.809c1.294-.207 2.482-.276 3.434-.201a.914.914 0 0 0 .988-.906 5.62 5.62 0 0 1 3.998-5.351 5.65 5.65 0 0 1 7.045 3.75 5.65 5.65 0 0 1-3.75 7.046 5.62 5.62 0 0 1-6.306-2.207.914.914 0 0 0-1.324-.2c-1.42 1.126-3.705 2.221-6.27 3.004-2.564.782-5.07 1.15-6.878 1.008a.914.914 0 0 0-.987.905 5.62 5.62 0 0 1-3.998 5.351 5.65 5.65 0 0 1-7.045-3.75 5.606 5.606 0 0 1 .416-4.3 5.607 5.607 0 0 1 3.335-2.746 5.62 5.62 0 0 1 6.304 2.207.915.915 0 0 0 1.325.2c.748-.594 1.772-1.2 2.961-1.75a.915.915 0 1 0-.77-1.662c-.967.45-1.845.937-2.584 1.435a7.44 7.44 0 0 0-7.771-2.181A7.426 7.426 0 0 0 .88 35.886a7.427 7.427 0 0 0-.552 5.695c.982 3.218 3.952 5.294 7.154 5.294a7.45 7.45 0 0 0 2.177-.326 7.44 7.44 0 0 0 5.23-6.148h.008c1.9 0 4.255-.394 6.626-1.117 2.375-.724 4.551-1.715 6.128-2.778a7.44 7.44 0 0 0 7.77 2.181c3.943-1.203 6.171-5.389 4.968-9.33-1.203-3.943-5.39-6.171-9.331-4.968z"/><path fill-rule="evenodd" clip-rule="evenodd" d="M30.251 32.428a.915.915 0 0 0 .916-.908 2.063 2.063 0 0 1 1.469-1.964 2.075 2.075 0 0 1 2.587 1.377.915.915 0 1 0 1.751-.534 3.907 3.907 0 0 0-4.873-2.594 3.886 3.886 0 0 0-2.765 3.7.915.915 0 0 0 .908.923h.007zM6.874 37.417a2.063 2.063 0 0 1 2.315.81.916.916 0 0 0 1.511-1.035 3.887 3.887 0 0 0-4.36-1.526 3.878 3.878 0 0 0-2.307 1.899 3.878 3.878 0 0 0-.287 2.974.915.915 0 1 0 1.75-.535 2.061 2.061 0 0 1 .153-1.579 2.06 2.06 0 0 1 1.225-1.008zm35.7-34.133c-2.31-3.414-6.966-4.312-10.38-2.002a7.44 7.44 0 0 0-3.188 7.414c-.851.262-1.783.638-2.74 1.109a.915.915 0 1 0 .808 1.643c1.176-.578 2.29-.994 3.223-1.203a.915.915 0 0 0 .677-1.156 5.619 5.619 0 0 1 2.247-6.29 5.65 5.65 0 0 1 7.837 1.51 5.65 5.65 0 0 1-1.512 7.838 5.62 5.62 0 0 1-6.675-.254.915.915 0 0 0-1.324.199c-1.026 1.494-2.887 3.213-5.108 4.715-2.22 1.503-4.508 2.592-6.277 2.988a.913.913 0 0 0-.677 1.156 5.619 5.619 0 0 1-2.246 6.29 5.607 5.607 0 0 1-4.232.868 5.605 5.605 0 0 1-3.605-2.379 5.65 5.65 0 0 1 1.51-7.837 5.62 5.62 0 0 1 6.676.254.916.916 0 0 0 1.325-.198c.54-.788 1.34-1.668 2.316-2.545a.916.916 0 0 0-1.226-1.361 18.835 18.835 0 0 0-2.048 2.132 7.44 7.44 0 0 0-8.068.201c-3.414 2.31-4.312 6.967-2.002 10.38a7.428 7.428 0 0 0 4.775 3.151 7.426 7.426 0 0 0 5.605-1.149 7.44 7.44 0 0 0 3.188-7.414c1.817-.558 3.956-1.628 6.012-3.02 2.056-1.391 3.845-2.978 5.04-4.458a7.44 7.44 0 0 0 8.067-.202c3.414-2.31 4.312-6.967 2.002-10.38z"/><path fill-rule="evenodd" clip-rule="evenodd" d="M35.222 5.756a2.06 2.06 0 0 1 1.554-.319 2.06 2.06 0 0 1 1.324.875.915.915 0 1 0 1.517-1.026 3.878 3.878 0 0 0-2.494-1.646 3.877 3.877 0 0 0-2.927.6 3.887 3.887 0 0 0-1.554 4.35.916.916 0 0 0 1.754-.524c-.26-.87.072-1.799.826-2.31zM12.915 20.851a2.063 2.063 0 0 1 2.45.092.915.915 0 1 0 1.14-1.433 3.887 3.887 0 0 0-4.617-.175 3.908 3.908 0 0 0-1.045 5.42.915.915 0 1 0 1.517-1.026 2.075 2.075 0 0 1 .555-2.878zm7.463 11.678a.917.917 0 0 0-.915-.916.917.917 0 0 0-.916.916c0 .504.411.915.916.915a.917.917 0 0 0 .915-.915zm3.129-19.139a.917.917 0 0 0 .916-.916.918.918 0 0 0-.916-.915.918.918 0 0 0-.916.915c0 .505.411.916.916.916z"/></symbol><symbol viewBox="0 0 75 55" id="infrastructure-i-2" xmlns="http://www.w3.org/2000/svg"><path d="M57.495 16.986h-39.99v8.095h39.99v-8.095zm-2.197 5.91H19.702v-3.725h35.596v3.725z"/><path d="M75 2.39h-5.764c-3.44 0-6.237 2.781-6.237 6.2v19.82H50.508c-3.578 0-6.488 2.895-6.488 6.451v6.015h4.002l-2.754 7.707h-4.483l-.209-.208V26.901H38.38v22.38l1.496 1.487h4.612l-.732 2.047h-12.51l-.733-2.047h4.613l1.496-1.488V26.901h-2.197v21.475l-.209.207h-4.483l-2.754-7.707h4.002v-6.015c0-3.556-2.91-6.45-6.488-6.45H12.001V8.59C12 5.17 9.203 2.39 5.764 2.39H0v38.486h5.2L.153 55h6.712l5.047-14.124h8.353L25.313 55h24.374l5.048-14.124h8.353L68.135 55h6.712L69.8 40.876H75V2.39zM5.314 52.815H3.265l4.267-11.939H9.58l-4.266 11.94zM2.197 38.692v-1.894h12.207v-2.184H2.197V4.574h3.567c2.228 0 4.04 1.802 4.04 4.016v22.005h14.688c2.366 0 4.291 1.914 4.291 4.266v3.83H2.197zm24.667 14.123l-4.267-11.939h2.049l4.267 11.94h-2.05zm21.272 0h-2.048l4.266-11.939h2.05l-4.268 11.94zm23.599 0h-2.05L65.42 40.876h2.048l4.267 11.94zm1.068-14.123H46.217v-1.894h12.207v-2.184h-12.2c.13-2.238 2.001-4.019 4.284-4.019h14.688V8.59c0-2.214 1.813-4.016 4.04-4.016h3.567v34.117z"/><path d="M35.523 13.999v2.184h3.954V14H38.6V8.537h-2.2v.91h-.879v2.185h.88V14h-.88z"/><path d="M33.735 6.395h7.53l1.495 8.95 2.167-.359-1.8-10.776H40.55c.107-.318.166-.658.166-1.012C40.716 1.435 39.273 0 37.499 0c-1.773 0-3.216 1.434-3.216 3.198 0 .354.058.694.166 1.012h-2.576l-1.8 10.776 2.167.358 1.495-8.95zm2.746-3.197c0-.559.456-1.013 1.018-1.013s1.02.454 1.02 1.013c0 .558-.458 1.012-1.02 1.012a1.017 1.017 0 0 1-1.018-1.012zM8.339 24.849H6.14v-8.977h2.2v8.977zm0-10.433H6.14V12.23h2.2v2.185zm0-3.641H6.14V8.59h2.2v2.185zm62.999 15.919H69.14v-12.29h2.197v12.29zm0-13.745H69.14v-2.185h2.197v2.184zm0-3.641H69.14V7.123h2.197v2.185zM53.09 22.125h-4.83v-2.184h4.83v2.184zm-6.295 0h-2.197v-2.184h2.197v2.184zm-3.662 0h-2.198v-2.184h2.198v2.184z"/></symbol><symbol viewBox="0 0 50 50" id="infrastructure-i-3" xmlns="http://www.w3.org/2000/svg"><path d="M35.407 16.852l-.535-1.761a3.825 3.825 0 0 0-7.244 0l-.535 1.76a9.89 9.89 0 0 0-.275 4.584 4.31 4.31 0 0 0 2.22 3.004l-.6 13.394a2.64 2.64 0 0 0 .667 2.052 2.91 2.91 0 0 0 4.297 0 2.603 2.603 0 0 0 .666-1.996l-.602-13.452a4.31 4.31 0 0 0 2.217-3.002 9.89 9.89 0 0 0-.276-4.583zm-1.366 4.293a2.642 2.642 0 0 1-1.73 1.99.833.833 0 0 0-.538.818l.633 14.068a.964.964 0 0 1-.25.755 1.287 1.287 0 0 1-1.812 0 1 1 0 0 1-.245-.81l.629-14.013a.833.833 0 0 0-.54-.817 2.642 2.642 0 0 1-1.729-1.991 8.219 8.219 0 0 1 .23-3.805l.534-1.762a2.16 2.16 0 0 1 4.054 0l.535 1.762a8.228 8.228 0 0 1 .229 3.805zM22.5 12.5a.833.833 0 0 0-.833.833v7.155l-2.256 2.256a.833.833 0 0 0-.244.631l.729 14.583a1.14 1.14 0 0 1-.315.85 1.173 1.173 0 0 1-1.66.007l-.007-.008a1.135 1.135 0 0 1-.315-.849l.734-14.583a.833.833 0 0 0-.243-.63l-2.257-2.257v-7.155a.833.833 0 0 0-1.666 0v7.5c0 .221.088.433.244.59l2.238 2.239-.71 14.215a2.815 2.815 0 1 0 5.623 0l-.711-14.215 2.238-2.24a.833.833 0 0 0 .244-.589v-7.5a.833.833 0 0 0-.833-.833z"/><path d="M17.5 12.5a.833.833 0 0 0-.833.833V20a.833.833 0 0 0 1.666 0v-6.667a.833.833 0 0 0-.833-.833zm2.5 0a.833.833 0 0 0-.833.833V20a.833.833 0 0 0 1.666 0v-6.667A.833.833 0 0 0 20 12.5z"/><path d="M25 0C11.193 0 0 11.193 0 25s11.193 25 25 25 25-11.193 25-25C49.984 11.2 38.8.016 25 0zm0 48.333C12.113 48.333 1.667 37.887 1.667 25 1.667 12.113 12.113 1.667 25 1.667c12.887 0 23.333 10.446 23.333 23.333C48.32 37.88 37.88 48.319 25 48.333z"/><path d="M27.705 40.643a.833.833 0 0 0-.942-.745h.003a15.303 15.303 0 0 1-3.532 0 .834.834 0 0 0-.194 1.655 16.88 16.88 0 0 0 3.917 0 .833.833 0 0 0 .748-.91zM37.75 14.262a.833.833 0 0 0-1.174-.103l-.003.003a.833.833 0 0 0-.1 1.174c5.024 5.964 4.64 14.784-.885 20.289a.834.834 0 0 0 1.177 1.18c6.14-6.115 6.568-15.915.985-22.543zm-18.334-2.247l-.002-1-.002 1h.004z"/><path d="M28.93 8.799a16.814 16.814 0 0 0-9.808.602.833.833 0 0 0 .584 1.56 15.14 15.14 0 0 1 8.833-.542.833.833 0 1 0 .392-1.62zM14.374 35.583A14.903 14.903 0 0 1 10 25a14.889 14.889 0 0 1 2.867-8.823.833.833 0 1 0-1.346-.982 16.667 16.667 0 0 0 1.672 21.568.835.835 0 1 0 1.181-1.18z"/></symbol><symbol viewBox="0 0 50 50" id="infrastructure-i-4" xmlns="http://www.w3.org/2000/svg"><path d="M49.023 20.166h-8.007v-2.067a.977.977 0 0 0-.977-.977H18.945a.977.977 0 0 0 0 1.953h20.117v7.487c0 6.577-3.51 12.69-9.18 16.016H11.134a18.606 18.606 0 0 1-9.182-16.016v-7.486h6.543a.977.977 0 0 0 0-1.954H.976A.977.977 0 0 0 0 18.1v8.463c0 3.692.992 7.311 2.87 10.467a20.617 20.617 0 0 0 4.83 5.55H.977a.977.977 0 0 0-.977.976A6.453 6.453 0 0 0 6.445 50h30.47a6.453 6.453 0 0 0 6.444-6.445.977.977 0 0 0-.976-.977h-9.069a20.627 20.627 0 0 0 4.522-5.046h2.757c5.187 0 9.407-4.22 9.407-9.407v-6.983a.977.977 0 0 0-.977-.976zM41.3 44.531a4.5 4.5 0 0 1-4.385 3.516H6.445A4.5 4.5 0 0 1 2.06 44.53H41.3zm-.283-17.968v-.538h3.125v2.1a3.552 3.552 0 0 1-3.548 3.548h-.222c.426-1.66.645-3.378.645-5.11zm7.03 1.562c0 4.11-3.343 7.454-7.453 7.454H38.93c.312-.636.59-1.288.834-1.953h.828a5.507 5.507 0 0 0 5.502-5.501v-3.076a.977.977 0 0 0-.977-.977h-4.101V22.12h7.03v6.006zM21.44 5.405l-.508-.638a2.545 2.545 0 0 1-.002-3.183A.977.977 0 1 0 19.4.37a4.49 4.49 0 0 0 .005 5.614l.508.638a3.327 3.327 0 0 1 .003 4.16l-.52.655a.976.976 0 1 0 1.53 1.214l.52-.656a5.271 5.271 0 0 0-.006-6.59zM26.853 7.6l-.508-.637a2.546 2.546 0 0 1-.002-3.183.976.976 0 1 0-1.53-1.215 4.49 4.49 0 0 0 .005 5.614l.508.638a3.327 3.327 0 0 1 .003 4.16l-.52.656a.976.976 0 1 0 1.53 1.214l.52-.656a5.271 5.271 0 0 0-.006-6.59zm-10.826 0l-.508-.637a2.546 2.546 0 0 1-.003-3.183.976.976 0 1 0-1.53-1.215 4.49 4.49 0 0 0 .005 5.614l.508.638a3.327 3.327 0 0 1 .004 4.16l-.52.656a.977.977 0 0 0 1.529 1.214l.52-.656a5.271 5.271 0 0 0-.005-6.59z"/><path d="M14.676 17.408a.984.984 0 0 0-.69-.286.984.984 0 0 0-.691.286.986.986 0 0 0-.286.69c0 .258.104.51.286.692a.983.983 0 0 0 .69.285.983.983 0 0 0 .69-.285.98.98 0 0 0 0-1.382zm20.676 8.178a.977.977 0 0 0-.977.977c0 3.624-1.47 7.187-4.034 9.773a.977.977 0 0 0 1.387 1.375c2.924-2.95 4.6-7.013 4.6-11.148a.977.977 0 0 0-.976-.977zM28.7 38.987a.977.977 0 0 0-1.33-.371l-.023.013a.976.976 0 1 0 .96 1.7l.022-.012a.977.977 0 0 0 .37-1.33z"/></symbol><symbol viewBox="0 0 23 24" id="instagram" xmlns="http://www.w3.org/2000/svg"><path fill-rule="evenodd" clip-rule="evenodd" d="M11.5 23.26c6.351 0 11.5-5.207 11.5-11.63C23 5.207 17.851 0 11.5 0S0 5.207 0 11.63c0 6.423 5.149 11.63 11.5 11.63zM8.403 11.848c0-1.654 1.33-3 2.966-3 1.635 0 2.966 1.346 2.966 3s-1.33 3-2.966 3c-1.635 0-2.966-1.346-2.966-3zm1.022 0c0 1.084.872 1.967 1.944 1.967a1.958 1.958 0 0 0 1.945-1.967 1.958 1.958 0 0 0-1.945-1.966 1.958 1.958 0 0 0-1.944 1.966zm4.522-5.82H8.791c-1.752 0-3.177 1.441-3.177 3.212v5.216c0 1.771 1.425 3.212 3.177 3.212h5.156c1.752 0 3.177-1.441 3.177-3.212V9.239c0-1.77-1.425-3.212-3.176-3.212zm2.156 8.428c0 1.201-.967 2.18-2.155 2.18H8.79c-1.189 0-2.155-.979-2.155-2.18V9.239c0-1.201.966-2.18 2.155-2.18h5.156c1.189 0 2.156.979 2.156 2.18v5.216zM13.93 8.194a.747.747 0 0 1 .53-.222c.197 0 .39.08.529.222a.765.765 0 0 1 0 1.071.752.752 0 0 1-.53.222.75.75 0 0 1-.749-.757c0-.2.08-.396.22-.536z"/></symbol><symbol viewBox="0 0 28 28" id="mail" xmlns="http://www.w3.org/2000/svg"><path d="M22.67 19.42a.447.447 0 0 1-.308-.122l-5.195-4.874a.45.45 0 1 1 .618-.657l5.195 4.874a.45.45 0 0 1-.31.78zm-17.341.001a.452.452 0 0 1-.31-.78l5.197-4.874a.452.452 0 0 1 .619.658l-5.197 4.873a.447.447 0 0 1-.31.123z"/><path d="M25.743 23.953H2.257A2.26 2.26 0 0 1 0 21.695V6.305a2.26 2.26 0 0 1 2.257-2.258h23.486A2.26 2.26 0 0 1 28 6.304v15.391a2.26 2.26 0 0 1-2.257 2.258zM2.257 4.95c-.746 0-1.354.607-1.354 1.354v15.391c0 .747.608 1.355 1.354 1.355h23.486c.747 0 1.354-.608 1.354-1.355V6.305c0-.748-.608-1.355-1.354-1.355H2.257z"/><path d="M14 16.268c-.6 0-1.2-.2-1.657-.597L.75 5.557a.453.453 0 0 1-.045-.637.454.454 0 0 1 .638-.043l11.593 10.112c.577.503 1.552.503 2.128 0L26.642 4.893a.452.452 0 0 1 .594.68L15.658 15.67a2.523 2.523 0 0 1-1.658.598z"/></symbol><symbol viewBox="0 0 20 29" id="mark" xmlns="http://www.w3.org/2000/svg"><path fill-rule="evenodd" clip-rule="evenodd" d="M17.53 14.974c.93-2.02 1.47-3.728 1.47-4.887C19 5.06 14.962 1 10 1s-9 4.06-9 9.087c0 1.16.54 2.867 1.47 4.887.914 1.982 2.14 4.133 3.38 6.132A112.07 112.07 0 0 0 10 27.303a116.776 116.776 0 0 0 4.15-6.197c1.24-2 2.466-4.15 3.38-6.132zm-6.911 13.181C12.799 25.137 20 14.815 20 10.087 20 4.517 15.523 0 10 0S0 4.516 0 10.087c0 4.727 7.2 15.05 9.381 18.068.39.539.619.845.619.845s.23-.306.619-.845z"/><path fill-rule="evenodd" clip-rule="evenodd" d="M10 13a3 3 0 1 0 0-6 3 3 0 0 0 0 6zm0 1a4 4 0 1 0 0-8 4 4 0 0 0 0 8z"/></symbol><symbol viewBox="0 0 46 46" id="placeholder" xmlns="http://www.w3.org/2000/svg"><path d="M22.259 4.498v1.438h1.483v-1.44a6.687 6.687 0 0 1 5.892 5.891h-1.44v1.484h1.437a6.683 6.683 0 0 1-1.46 3.482l1.148.94a8.177 8.177 0 0 0 1.843-5.164c0-4.5-3.662-8.161-8.162-8.161a8.177 8.177 0 0 0-5.164 1.843l.94 1.148a6.684 6.684 0 0 1 3.483-1.46zm5.905 12.95l-.94-1.149a6.685 6.685 0 0 1-3.483 1.461v-1.437h-1.484v1.44a6.687 6.687 0 0 1-5.891-5.892h1.44v-1.484h-1.438a6.684 6.684 0 0 1 1.462-3.482l-1.15-.94a8.177 8.177 0 0 0-1.842 5.164c0 4.5 3.661 8.162 8.161 8.162a8.177 8.177 0 0 0 5.165-1.843zM11.129 32.645h5.194v1.484h-5.194v-1.483zm0 2.968h5.194v1.484h-5.194v-1.484zM6.678 23.742h5.193v1.484H6.678v-1.484zm0 2.968h5.193v1.484H6.678V26.71zm23 5.935h5.193v1.484h-5.193v-1.483zm0 2.968h5.193v1.484h-5.193v-1.484zm4.451-11.871h5.194v1.484h-5.194v-1.484zm0 2.968h5.194v1.484h-5.194V26.71z"/><path d="M42.29 23.742v-2.968H31.161v2.968h-3.413l4.212-5.715a11.056 11.056 0 0 0 2.169-6.602v-.296C34.129 4.992 29.137 0 23 0S11.871 4.992 11.871 11.129v.296c0 2.393.75 4.675 2.17 6.602l4.21 5.715H14.84v-2.968H3.709v2.968H0V46h46V23.742h-3.71zm-1.483-1.484v16.323h-2.968v-1.484h1.484v-1.484h-1.484v-1.484h1.484v-1.484h-1.484v-1.484h1.484v-1.484h-6.678v-7.419h8.161zm-4.452 8.903v7.42h-8.161v-7.42h8.16zm-23-19.736v-.296c0-5.318 4.327-9.645 9.645-9.645s9.645 4.327 9.645 9.645v.296c0 2.073-.65 4.052-1.88 5.722L23 27.685l-7.765-10.538a9.584 9.584 0 0 1-1.88-5.722zm4.451 27.156h-8.16v-7.42h8.16v7.42zM5.194 22.258h8.16v7.42H6.678v1.483h1.484v1.484H6.677v1.484h1.484v1.484H6.677v1.484h1.484v1.484H5.194V22.258zm39.322 22.258H1.484v-19.29H3.71v14.839h17.064V38.58H19.29v-8.904h-4.45v-4.451h4.506L23 30.186l3.655-4.96h4.506v4.451H26.71v8.904h-1.484v1.483H42.29V25.227h2.226v19.29z"/></symbol><symbol viewBox="0 0 8 13" id="sm-left" xmlns="http://www.w3.org/2000/svg"><path d="M7 12L1 6.5 7 1"/></symbol><symbol viewBox="0 0 8 13" id="sm-right" xmlns="http://www.w3.org/2000/svg"><path d="M1 1l6 5.5L1 12"/></symbol><symbol viewBox="0 0 494.65 494.64" id="square" xmlns="http://www.w3.org/2000/svg"><defs><style>.qcls-2{fill:#0c95ec}</style></defs><g id="qСлой_2" data-name="Слой 2"><g id="qСлой_1-2" data-name="Слой 1"><path d="M248 .1q120 0 240-.1c4.94 0 6.65.86 6.64 6.34q-.25 241.24 0 482.48c0 4.31-.74 5.83-5.54 5.82q-96-.28-192 0c-4.13 0-6-.59-5.59-5.31a126 126 0 0 0 0-17.49c-.19-3.62 1.09-4.36 4.49-4.35 34.5.12 69 .07 103.5.07 21.17 0 42.33-.11 63.5.1 3.84 0 4.6-1.08 4.6-4.73q-.14-215.74 0-431.48c0-3.76-1-4.71-4.71-4.71q-215.49.15-431 0c-4.5 0-5.07 1.67-5.06 5.51.11 54.83 0 109.67.2 164.5 0 5.19-1.42 6.6-6.37 6.19a110.82 110.82 0 0 0-16 0c-3.83.17-4.66-1.26-4.66-4.89.13-31.17.07-62.33.07-93.5 0-33 .09-66-.1-99C0 1.16 1.1 0 5.53 0Q126.78.21 248 .1z"/><path class="qcls-2" d="M117.51 484.93c-32.83 0-65.65-.06-98.47.09-4.09 0-5.66-.6-5.65-5.31q.29-99.72 0-199.44c0-3.95 1-4.91 4.93-4.91q99.72.19 199.44 0c4.17 0 5.24 1.07 5.23 5.23q-.21 99.48 0 198.94c0 4.45-1.19 5.54-5.57 5.52-33.27-.2-66.59-.12-99.91-.12zm.49-182.48c-24.31 0-48.63 0-72.94-.06-3.11 0-4.71.24-4.7 4.14q.23 73.7 0 147.4c0 3.58 1.12 4.4 4.53 4.39q73.19-.15 146.39 0c4 0 5.06-1.05 5-5q-.2-72.94 0-145.9c0-4.42-1.51-5.07-5.42-5.05-24.23.16-48.55.08-72.86.08zm273.1-178.7c-5.47 5.38-10.28 9.89-14.86 14.62q-45.58 47-91 94.08c-3.25 3.39-5.11 3.9-8.34.1a122.55 122.55 0 0 0-12.14-11.86c-2.39-2.12-2.63-3.43-.23-5.87q38.58-39.49 76.94-79.21c10.05-10.36 20.08-20.74 30.2-31.19-1.65-1.47-3.2-.87-4.58-.87-17 0-34-.12-51 0-3.41 0-4.67-.77-4.5-4.38.29-6.31.19-12.66 0-19-.07-2.72.61-3.77 3.57-3.76q49.49.15 99 0c2.8 0 3.69.79 3.68 3.64q-.13 49.47 0 99c0 2.86-.91 3.73-3.71 3.65-6.33-.17-12.67-.24-19 0-3.44.15-4.12-1.21-4.1-4.33.13-16.16.06-32.32.06-48.48z"/></g></g></symbol><symbol viewBox="0 0 25 25" id="tel" xmlns="http://www.w3.org/2000/svg"><g clip-path="url(#rclip0)"><path d="M20.093 25c-1.04 0-2.296-.26-3.678-.782-3.029-1.142-6.324-3.399-9.28-6.354C4.18 14.91 1.924 11.612.782 8.584-.258 5.83-.26 3.569.775 2.535c.148-.149.3-.308.456-.473.945-.993 2.012-2.11 3.426-2.06.975.04 1.919.645 2.886 1.849 2.857 3.553 1.569 4.82.078 6.288l-.263.26c-.244.244-.705 1.374 3.582 5.66 1.4 1.4 2.592 2.424 3.546 3.043.6.39 1.674.98 2.115.54l.265-.267c1.466-1.488 2.732-2.772 6.284.083 1.203.967 1.807 1.91 1.848 2.887.058 1.413-1.068 2.483-2.062 3.427-.164.156-.324.307-.473.455-.514.515-1.335.773-2.37.773zM4.556.84c-1.005 0-1.912.956-2.715 1.801-.162.17-.318.335-.472.489-.77.77-.693 2.794.199 5.158 1.101 2.92 3.29 6.11 6.163 8.983 2.873 2.871 6.061 5.06 8.982 6.16 2.363.894 4.387.97 5.157.2.153-.154.318-.31.488-.47.864-.822 1.843-1.752 1.8-2.783-.029-.71-.545-1.472-1.534-2.267-2.96-2.38-3.787-1.54-5.159-.148l-.269.272c-.656.657-1.721.511-3.168-.429-1.003-.652-2.242-1.713-3.682-3.154-3.557-3.557-4.695-5.734-3.582-6.85l.268-.264C8.427 6.165 9.27 5.337 6.89 2.376 6.092 1.388 5.33.872 4.622.842L4.556.84z"/></g><defs><clipPath id="rclip0"><path d="M0 0h25v25H0z"/></clipPath></defs></symbol><symbol viewBox="0 0 16 18" id="user" xmlns="http://www.w3.org/2000/svg"><path d="M7.935 9.699h.119c1.092-.019 1.976-.403 2.628-1.137 1.435-1.618 1.196-4.39 1.17-4.656C11.76 1.92 10.82.97 10.044.526 9.467.194 8.792.015 8.04 0h-.063C7.562 0 6.749.067 5.97.51c-.782.444-1.737 1.395-1.83 3.396-.026.265-.264 3.038 1.17 4.656.65.734 1.533 1.118 2.625 1.137zm-2.8-5.7c0-.01.004-.022.004-.03.123-2.672 2.02-2.959 2.833-2.959h.045c1.006.023 2.717.433 2.833 2.96 0 .01 0 .022.003.03.004.026.265 2.56-.92 3.895-.47.53-1.096.79-1.92.797h-.037c-.82-.007-1.45-.268-1.916-.797C4.878 6.568 5.132 4.022 5.135 4z"/><path d="M15.654 14.299v-.011c0-.03-.003-.06-.003-.094-.023-.738-.071-2.464-1.689-3.015l-.037-.011c-1.681-.43-3.08-1.398-3.094-1.41a.503.503 0 1 0-.578.824c.064.045 1.547 1.078 3.403 1.555.869.31.966 1.237.992 2.087 0 .034 0 .063.004.093.003.336-.019.854-.079 1.152-.603.343-2.97 1.528-6.571 1.528-3.586 0-5.968-1.189-6.575-1.532-.06-.298-.086-.816-.079-1.151 0-.03.004-.06.004-.094.026-.85.123-1.778.992-2.087 1.856-.477 3.34-1.513 3.403-1.554a.503.503 0 1 0-.578-.824c-.015.011-1.405.98-3.094 1.409l-.037.011C.42 11.73.372 13.456.349 14.191a.75.75 0 0 1-.003.093v.011c-.004.194-.008 1.189.19 1.688a.478.478 0 0 0 .194.235C.84 16.293 3.52 18 8.006 18c4.484 0 7.164-1.71 7.276-1.782a.499.499 0 0 0 .194-.235c.186-.495.182-1.49.178-1.684z"/></symbol><symbol viewBox="0 0 23 24" id="vk" xmlns="http://www.w3.org/2000/svg"><path d="M11.5 0C5.149 0 0 5.207 0 11.63c0 6.423 5.149 11.63 11.5 11.63S23 18.053 23 11.63C23 5.207 17.851 0 11.5 0zm5.833 12.888c.536.53 1.104 1.028 1.585 1.612.213.258.414.526.567.826.218.429.02.899-.358.924H16.77c-.609.05-1.093-.198-1.501-.618-.326-.335-.629-.694-.942-1.04a2.21 2.21 0 0 0-.425-.382c-.32-.211-.6-.147-.784.193-.188.345-.23.728-.248 1.112-.026.562-.193.709-.75.735-1.192.056-2.322-.126-3.372-.734-.927-.535-1.644-1.291-2.269-2.147-1.217-1.669-2.149-3.5-2.986-5.384-.189-.424-.05-.651.412-.66a64.838 64.838 0 0 1 2.307 0c.313.004.52.185.64.484a14.531 14.531 0 0 0 1.563 2.93c.17.243.344.485.591.657.273.189.481.127.61-.182a2.03 2.03 0 0 0 .136-.615c.06-.719.068-1.437-.038-2.153-.066-.448-.315-.738-.756-.822-.225-.044-.192-.128-.083-.258.19-.224.368-.363.723-.363h2.662c.42.082.514.273.57.7l.003 2.992c-.005.165.082.655.376.764.235.078.39-.113.531-.263.639-.685 1.093-1.494 1.5-2.33.18-.37.335-.752.486-1.134.112-.283.286-.423.602-.418l2.563.003c.076 0 .152.001.227.014.432.075.55.263.417.689-.21.67-.62 1.227-1.019 1.787-.428.598-.884 1.176-1.308 1.777-.39.55-.36.827.124 1.304z"/></symbol><symbol viewBox="0 0 23 24" id="youtube" xmlns="http://www.w3.org/2000/svg"><path fill-rule="evenodd" clip-rule="evenodd" d="M11.5 23.26c6.351 0 11.5-5.207 11.5-11.63C23 5.207 17.851 0 11.5 0S0 5.207 0 11.63c0 6.423 5.149 11.63 11.5 11.63zm3.32-17.445c1.83 0 2.788.254 3.307.874.521.623.56 1.578.56 2.963v2.503c0 1.588-.248 2.505-.832 3.066-.569.548-1.448.77-3.034.77H8.179c-3.269 0-3.867-1.291-3.867-3.836V9.652c0-1.313 0-2.262.505-2.907.516-.66 1.49-.93 3.362-.93h6.642zm-4.295 7.02l3.016-1.586a.467.467 0 0 0 0-.827l-3.017-1.575a.461.461 0 0 0-.454.015.467.467 0 0 0-.223.399v3.16a.467.467 0 0 0 .464.467.46.46 0 0 0 .214-.053z"/></symbol></svg>