<?xml version="1.0" encoding="UTF-8" standalone="no"?>
<!-- Created with Inkscape (http://www.inkscape.org/) -->

<svg
   xmlns:dc="http://purl.org/dc/elements/1.1/"
   xmlns:cc="http://creativecommons.org/ns#"
   xmlns:rdf="http://www.w3.org/1999/02/22-rdf-syntax-ns#"
   xmlns:svg="http://www.w3.org/2000/svg"
   xmlns="http://www.w3.org/2000/svg"
   xmlns:sodipodi="http://sodipodi.sourceforge.net/DTD/sodipodi-0.dtd"
   xmlns:inkscape="http://www.inkscape.org/namespaces/inkscape"
   width="135.49533mm"
   height="135.45996mm"
   viewBox="0 0 135.49535 135.45995"
   version="1.1"
   id="svg8"
   inkscape:version="0.92.1 r15371"
   sodipodi:docname="about-4.svg">
  <defs
     id="defs2" />
  <sodipodi:namedview
     id="base"
     pagecolor="#ffffff"
     bordercolor="#666666"
     borderopacity="1.0"
     inkscape:pageopacity="0.0"
     inkscape:pageshadow="2"
     inkscape:zoom="0.35"
     inkscape:cx="455.29969"
     inkscape:cy="-73.39254"
     inkscape:document-units="mm"
     inkscape:current-layer="layer1"
     showgrid="false"
     fit-margin-top="0"
     fit-margin-left="0"
     fit-margin-right="0"
     fit-margin-bottom="0"
     inkscape:window-width="1366"
     inkscape:window-height="715"
     inkscape:window-x="-8"
     inkscape:window-y="-8"
     inkscape:window-maximized="1" />
  <metadata
     id="metadata5">
    <rdf:RDF>
      <cc:Work
         rdf:about="">
        <dc:format>image/svg+xml</dc:format>
        <dc:type
           rdf:resource="http://purl.org/dc/dcmitype/StillImage" />
        <dc:title></dc:title>
      </cc:Work>
    </rdf:RDF>
  </metadata>
  <g
     inkscape:label="Layer 1"
     inkscape:groupmode="layer"
     id="layer1"
     transform="translate(14.631371,-84.231692)">
    <path
       style="fill:#6f317f;stroke-width:0.26458332"
       d="m -2.8430744,219.40487 c -2.3466065,-0.44104 -5.5559513,-2.19562 -7.4132326,-4.0529 -1.931422,-1.93143 -3.615996,-5.09585 -4.077929,-7.66027 -0.39618,-2.1994 -0.39618,-109.225293 0,-111.424683 0.461933,-2.56442 2.146507,-5.72884 4.077929,-7.66027 1.931422,-1.93142 5.0958422,-3.61599 7.6602632,-4.07792 2.19939585,-0.39618 109.2252838,-0.39618 111.4246838,0 2.56442,0.46193 5.72884,2.1465 7.66026,4.07792 1.93142,1.93143 3.616,5.09585 4.07793,7.66027 0.39618,2.19939 0.39618,109.225283 0,111.424683 -0.46193,2.56442 -2.14651,5.72884 -4.07793,7.66027 -1.93142,1.93142 -5.09584,3.61599 -7.66026,4.07792 -2.02543,0.36485 -109.72576345,0.34071 -111.6717144,-0.025 z M 107.62216,213.62695 c 3.70477,-0.70259 6.43753,-3.42849 7.13754,-7.11963 0.17589,-0.9275 0.26909,-17.25963 0.26909,-47.15574 v -45.7368 H 53.116298 -8.7961992 v 45.7368 c 0,29.42177 0.094496,46.23508 0.2649054,47.13364 0.6816978,3.59458 3.4420564,6.43982 6.9081379,7.12057 1.68828785,0.33158 107.5003859,0.35208 109.2453159,0.0212 z M 15.861442,207.0607 c -1.065096,-0.99495 -1.167273,-1.85136 -1.06322,-8.91155 0.09331,-6.33102 0.204153,-6.8231 1.689447,-7.49985 0.48206,-0.21964 5.014325,-0.30536 16.145181,-0.30536 17.193381,0 16.442454,-0.077 17.212253,1.76538 0.521566,1.24827 0.514877,12.69948 -0.0081,13.95125 -0.766738,1.83506 0.121627,1.74587 -17.389045,1.74587 H 16.659762 Z m 28.523606,-7.98551 v -2.91042 H 32.61109 20.837133 v 2.91042 2.91042 H 32.61109 44.385048 Z m 12.995505,8.2998 c -1.206527,-0.84509 -1.353839,-1.7482 -1.353839,-8.2998 0,-6.62299 0.140581,-7.44867 1.409801,-8.28029 0.628642,-0.4119 2.028454,-0.45096 16.163231,-0.45096 11.130856,0 15.663121,0.0857 16.145181,0.30536 1.485294,0.67675 1.596141,1.16883 1.689446,7.49985 0.104053,7.06019 0.0019,7.9166 -1.06322,8.91155 l -0.798319,0.74574 H 73.784687 c -14.168066,0 -15.851356,-0.0443 -16.404134,-0.43145 z m 28.01491,-8.2998 v -2.91042 H 73.621505 61.847547 v 2.91042 2.91042 H 73.621505 85.395463 Z M 47.539339,183.84795 c -6.543005,-1.18485 -12.877447,-4.54119 -17.504785,-9.27499 -5.966137,-6.10342 -9.197421,-14.04111 -9.197421,-22.5936 0,-8.4401 3.067431,-16.12731 8.858794,-22.2008 9.970966,-10.4567 25.302648,-13.10227 38.071741,-6.56949 15.914787,8.14214 22.238678,27.54989 14.137121,43.38622 -4.694748,9.17696 -13.267809,15.49824 -23.420109,17.26865 -2.777654,0.48438 -8.226104,0.47642 -10.945341,-0.016 z m 10.207167,-6.06179 c 4.1012,-0.74834 7.742465,-2.2062 10.595668,-4.2422 0.924631,-0.65981 1.751102,-1.31283 1.836599,-1.45117 0.430089,-0.6959 -2.156597,-4.27706 -4.748704,-6.57439 -3.419438,-3.03058 -7.608771,-4.59328 -12.313771,-4.59328 -3.183207,0 -5.617107,0.56542 -8.466666,1.96689 -1.809237,0.88982 -2.719028,1.57361 -4.653132,3.49724 -2.317525,2.30497 -4.288292,5.14432 -3.950261,5.69126 0.08967,0.14509 0.91676,0.80165 1.837984,1.45902 5.275265,3.76435 13.209089,5.46063 19.862283,4.24663 z m -23.862529,-13.5134 c 1.891406,-2.41284 4.307369,-4.44804 7.222236,-6.08401 l 2.216964,-1.24427 -1.314158,-1.4379 c -3.91763,-4.28651 -4.627253,-10.73821 -1.797863,-16.34568 1.105313,-2.19058 4.064863,-5.10236 6.290559,-6.18903 5.825167,-2.84407 12.298608,-1.8003 16.830343,2.71368 2.90055,2.88919 4.36445,6.2661 4.403587,10.15817 0.03753,3.73248 -1.199149,7.13215 -3.51696,9.66821 l -1.319054,1.44325 1.959293,1.07532 c 3.651985,2.00433 6.607291,4.75439 9.424571,8.77004 0.386525,0.55094 0.426691,0.51697 1.466853,-1.24039 1.463656,-2.47285 2.356069,-4.57074 3.075884,-7.23079 0.853038,-3.15238 0.862772,-9.69589 0.01897,-12.74642 -1.364721,-4.9337 -3.59505,-8.81314 -7.057194,-12.27528 -3.461642,-3.46164 -7.338697,-5.6908 -12.275288,-7.05781 -2.945944,-0.81577 -9.846886,-0.81577 -12.792831,0 -4.93659,1.36701 -8.813646,3.59617 -12.275287,7.05781 -3.462145,3.46214 -5.692473,7.34158 -7.057194,12.27528 -0.843809,3.05053 -0.834075,9.59404 0.01897,12.74642 0.719815,2.66005 1.612228,4.75794 3.075885,7.23079 1.040161,1.75736 1.080328,1.79133 1.466852,1.24039 0.218575,-0.31155 1.089269,-1.44905 1.934877,-2.52778 z m 22.857586,-10.16359 c 1.869789,-0.81038 3.798279,-2.88942 4.558712,-4.91462 0.795015,-2.11729 0.69714,-4.95555 -0.236754,-6.86558 -1.745337,-3.56962 -5.6412,-5.5746 -9.460185,-4.86862 -4.166335,0.77018 -6.973334,3.96777 -7.171152,8.16901 -0.19652,4.17358 2.162635,7.57861 6.170572,8.90616 1.522085,0.50415 4.463119,0.29989 6.138807,-0.42635 z m 58.287227,-50.77703 c 0,-2.45399 -0.12109,-5.100323 -0.26909,-5.880743 -0.70001,-3.69114 -3.43277,-6.41704 -7.13754,-7.11963 -1.93843,-0.36762 -107.09460625,-0.36358 -109.0338244,0.004 -3.6911337,0.70001 -6.4170337,3.43277 -7.1196294,7.13754 -0.1456981,0.76826 -0.2649054,3.404653 -0.2649054,5.858643 v 4.46181 H 53.116298 115.02879 Z M -1.0231905,101.5961 c -1.1331063,-0.49751 -1.6875923,-1.38602 -1.6875923,-2.704213 0,-3.06384 4.2597494,-3.84697 5.4485831,-1.00169 0.9795364,2.344363 -1.437546,4.726043 -3.7609908,3.705903 z m 12.3353235,0.19791 c -1.057477,-0.33086 -1.60063,-0.76938 -2.002879,-1.61706 -0.849154,-1.789453 0.496519,-4.024673 2.422986,-4.024673 2.383804,0 3.70575,2.13875 2.619863,4.238633 -0.538051,1.04048 -2.017083,1.72312 -3.03997,1.4031 z m 11.458718,-0.11944 c -1.129734,-0.31806 -1.933718,-1.49502 -1.933718,-2.830803 0,-3.01952 4.27292,-3.76733 5.448583,-0.95357 0.472731,1.1314 0.231925,2.282613 -0.648603,3.100753 -0.847285,0.78725 -1.741024,1.00041 -2.866262,0.68362 z"
       id="path164"
       inkscape:connector-curvature="0" />
  </g>
</svg>
