<?xml version="1.0" encoding="UTF-8" standalone="no"?>
<!-- Created with Inkscape (http://www.inkscape.org/) -->

<svg
   xmlns:dc="http://purl.org/dc/elements/1.1/"
   xmlns:cc="http://creativecommons.org/ns#"
   xmlns:rdf="http://www.w3.org/1999/02/22-rdf-syntax-ns#"
   xmlns:svg="http://www.w3.org/2000/svg"
   xmlns="http://www.w3.org/2000/svg"
   xmlns:sodipodi="http://sodipodi.sourceforge.net/DTD/sodipodi-0.dtd"
   xmlns:inkscape="http://www.inkscape.org/namespaces/inkscape"
   width="95.779831mm"
   height="135.37627mm"
   viewBox="0 0 95.779842 135.37626"
   version="1.1"
   id="svg8"
   inkscape:version="0.92.1 r15371"
   sodipodi:docname="about-3.svg">
  <defs
     id="defs2" />
  <sodipodi:namedview
     id="base"
     pagecolor="#ffffff"
     bordercolor="#666666"
     borderopacity="1.0"
     inkscape:pageopacity="0.0"
     inkscape:pageshadow="2"
     inkscape:zoom="0.35"
     inkscape:cx="342.10267"
     inkscape:cy="510.68691"
     inkscape:document-units="mm"
     inkscape:current-layer="layer1"
     showgrid="false"
     fit-margin-top="0"
     fit-margin-left="0"
     fit-margin-right="0"
     fit-margin-bottom="0"
     inkscape:window-width="1366"
     inkscape:window-height="715"
     inkscape:window-x="-8"
     inkscape:window-y="-8"
     inkscape:window-maximized="1" />
  <metadata
     id="metadata5">
    <rdf:RDF>
      <cc:Work
         rdf:about="">
        <dc:format>image/svg+xml</dc:format>
        <dc:type
           rdf:resource="http://purl.org/dc/dcmitype/StillImage" />
        <dc:title></dc:title>
      </cc:Work>
    </rdf:RDF>
  </metadata>
  <g
     inkscape:label="Layer 1"
     inkscape:groupmode="layer"
     id="layer1"
     transform="translate(-15.318675,-238.85308)">
    <path
       style="fill:#6f317f;stroke-width:0.26458332"
       d="m 26.109154,373.83782 c -5.024731,-1.21816 -9.471901,-5.72919 -10.497751,-10.6485 -0.20245,-0.97078 -0.29239,-9.74903 -0.29239,-28.53681 0,-29.93452 -0.0666,-28.65877 1.66998,-31.9736 1.59706,-3.04845 5.54783,-6.20956 8.582623,-6.86717 l 0.859895,-0.18633 0.006,-9.70242 c 0.0033,-5.33632 0.119716,-11.16467 0.258696,-12.95187 0.712073,-9.15683 4.269869,-16.97526 10.609495,-23.31489 14.404207,-14.4042 37.401567,-14.4042 51.805774,0 6.339625,6.33963 9.897421,14.15806 10.609494,23.31489 0.138981,1.7872 0.255395,7.61555 0.258697,12.95187 l 0.006,9.70242 0.859893,0.18633 c 3.03479,0.65761 6.98557,3.81872 8.58262,6.86717 1.73662,3.31483 1.66999,2.03908 1.66999,31.9736 0,18.78778 -0.0899,27.56603 -0.29239,28.53681 -0.76648,3.67552 -3.90349,7.72569 -7.31167,9.44006 -3.35579,1.68802 -1.46016,1.61329 -40.417816,1.59337 -29.272001,-0.015 -35.717984,-0.0821 -36.967148,-0.38493 z m 73.952056,-5.76875 c 1.75443,-0.68048 3.94471,-2.75298 4.71824,-4.46453 l 0.63018,-1.39438 v -27.51667 -27.51666 l -0.74246,-1.51195 c -0.91068,-1.8545 -2.66535,-3.44903 -4.58636,-4.16777 -1.419476,-0.53109 -1.892024,-0.53799 -36.872217,-0.53799 -34.980193,0 -35.452741,0.007 -36.87222,0.53799 -1.92101,0.71874 -3.67568,2.31327 -4.58636,4.16777 l -0.74246,1.51195 v 27.51666 27.51667 l 0.62377,1.37947 c 1.08569,2.40101 3.518565,4.28812 6.230714,4.83297 0.595659,0.11967 16.799265,0.19957 36.008014,0.17757 33.337827,-0.0382 34.98254,-0.0623 36.191159,-0.5311 z M 56.397837,356.92186 c -0.513342,-0.22314 -1.031443,-0.73728 -1.290592,-1.28072 -0.413756,-0.86765 -0.384474,-1.2468 0.660051,-8.54654 0.601157,-4.20123 1.092626,-7.77502 1.092155,-7.94175 -5.3e-4,-0.16674 -0.594712,-0.68423 -1.32053,-1.14999 -4.860094,-3.11871 -7.407767,-9.60064 -5.959256,-15.16186 0.885452,-3.39947 3.318619,-6.7009 6.361494,-8.63154 4.093268,-2.5971 10.4416,-2.5971 14.534868,0 8.740283,5.54554 9.025422,17.82512 0.549461,23.66274 -0.806792,0.55566 -1.467282,1.13933 -1.467753,1.29704 -5.29e-4,0.15772 0.490998,3.72413 1.092155,7.92536 1.532448,10.70963 1.886987,10.2269 -7.498944,10.21041 -4.47039,-0.008 -6.102789,-0.10047 -6.753109,-0.38315 z m 9.192006,-5.25876 c 0,-0.0528 -0.421428,-2.9996 -0.936509,-6.54843 -1.099992,-7.5788 -1.164428,-8.67905 -0.562118,-9.59829 0.250497,-0.38231 1.275099,-1.0616 2.359742,-1.56446 3.437954,-1.5939 5.081257,-4.08889 5.088054,-7.72509 0.0033,-1.78865 -0.111104,-2.35098 -0.738505,-3.62861 -0.417187,-0.84956 -1.269494,-1.97587 -1.945457,-2.57087 -4.186727,-3.6853 -10.796532,-2.40169 -13.238371,2.57087 -0.627401,1.27763 -0.741847,1.83996 -0.738505,3.62861 0.0068,3.6362 1.6501,6.13119 5.088054,7.72509 1.084643,0.50286 2.109245,1.18215 2.359742,1.56446 0.60231,0.91924 0.537874,2.01949 -0.562118,9.59829 -0.515081,3.54883 -0.936509,6.49562 -0.936509,6.54843 0,0.0528 1.071563,0.096 2.38125,0.096 1.309687,0 2.38125,-0.0432 2.38125,-0.096 z M 37.809602,284.48881 c 7.94e-4,-7.84839 0.09819,-11.24817 0.370507,-12.92566 2.009838,-12.38095 12.560842,-21.40403 25.028484,-21.40403 12.467642,0 23.018646,9.02308 25.028484,21.40403 0.272312,1.67749 0.369766,5.07727 0.370507,12.92566 l 10e-4,10.64948 h 2.794658 2.794659 l -0.100724,-12.36927 c -0.09565,-11.74566 -0.130299,-12.48214 -0.687332,-14.60795 -4.758304,-18.15918 -23.355516,-28.07382 -40.90378,-21.80681 -6.338845,2.26379 -12.306312,7.22214 -15.972125,13.27118 -1.226087,2.0232 -2.850126,5.95393 -3.526615,8.53563 -0.557033,2.12581 -0.591685,2.86229 -0.687332,14.60795 l -0.100724,12.36927 h 2.794659 2.794658 l 0.0011,-10.64948 z m 45.178899,-0.66146 c -0.100725,-10.55657 -0.145754,-11.44834 -0.675159,-13.37117 -2.365369,-8.59116 -10.328645,-14.73162 -19.104749,-14.73162 -8.776104,0 -16.73938,6.14046 -19.104749,14.73162 -0.529405,1.92283 -0.574434,2.8146 -0.675159,13.37117 l -0.107923,11.31094 h 19.887831 19.887831 z"
       id="path151"
       inkscape:connector-curvature="0" />
  </g>
</svg>
