<?xml version="1.0" encoding="UTF-8" standalone="no"?>
<!-- Created with Inkscape (http://www.inkscape.org/) -->

<svg
   xmlns:dc="http://purl.org/dc/elements/1.1/"
   xmlns:cc="http://creativecommons.org/ns#"
   xmlns:rdf="http://www.w3.org/1999/02/22-rdf-syntax-ns#"
   xmlns:svg="http://www.w3.org/2000/svg"
   xmlns="http://www.w3.org/2000/svg"
   xmlns:sodipodi="http://sodipodi.sourceforge.net/DTD/sodipodi-0.dtd"
   xmlns:inkscape="http://www.inkscape.org/namespaces/inkscape"
   width="135.41907mm"
   height="135.43732mm"
   viewBox="0 0 135.41908 135.43731"
   version="1.1"
   id="svg8"
   inkscape:version="0.92.1 r15371"
   sodipodi:docname="about-1.svg">
  <defs
     id="defs2" />
  <sodipodi:namedview
     id="base"
     pagecolor="#ffffff"
     bordercolor="#666666"
     borderopacity="1.0"
     inkscape:pageopacity="0.0"
     inkscape:pageshadow="2"
     inkscape:zoom="0.35"
     inkscape:cx="962.26658"
     inkscape:cy="113.74515"
     inkscape:document-units="mm"
     inkscape:current-layer="layer1"
     showgrid="false"
     fit-margin-top="0"
     fit-margin-left="0"
     fit-margin-right="0"
     fit-margin-bottom="0"
     inkscape:window-width="1366"
     inkscape:window-height="715"
     inkscape:window-x="-8"
     inkscape:window-y="-8"
     inkscape:window-maximized="1" />
  <metadata
     id="metadata5">
    <rdf:RDF>
      <cc:Work
         rdf:about="">
        <dc:format>image/svg+xml</dc:format>
        <dc:type
           rdf:resource="http://purl.org/dc/dcmitype/StillImage" />
        <dc:title></dc:title>
      </cc:Work>
    </rdf:RDF>
  </metadata>
  <g
     inkscape:label="Layer 1"
     inkscape:groupmode="layer"
     id="layer1"
     transform="translate(148.76636,-133.76786)">
    <path
       style="fill:#6f317f;stroke-width:0.26458332"
       d="m -136.97807,268.92219 c -2.39282,-0.44972 -5.56654,-2.19848 -7.43939,-4.09919 -1.94676,-1.97572 -3.5936,-5.07042 -4.05177,-7.61398 -0.39618,-2.1994 -0.39618,-109.22529 0,-111.42468 0.45817,-2.54356 2.10501,-5.63826 4.05177,-7.61398 1.94551,-1.97445 5.07559,-3.65392 7.68642,-4.12421 1.06099,-0.19112 12.46897,-0.28131 35.18958,-0.27821 37.256126,0.005 35.614865,-0.0682 39.064376,1.74447 3.361293,1.76631 5.695735,4.40414 7.112222,8.03653 l 0.672203,1.72378 0.07731,16.59416 c 0.08508,18.26325 0.128248,17.73661 -1.523855,18.59095 -0.980217,0.50689 -1.682049,0.50735 -2.65979,0.002 -1.481015,-0.76598 -1.439439,-0.29673 -1.582203,-17.85675 l -0.132291,-16.27187 -0.686417,-1.45521 c -1.258445,-2.66792 -3.602823,-4.46065 -6.568839,-5.02314 -1.941909,-0.36828 -65.835836,-0.36774 -67.777916,5.7e-4 -3.69113,0.70001 -6.41703,3.43277 -7.11963,7.13754 -0.36388,1.91875 -0.36388,107.09297 0,109.01172 0.7026,3.70477 3.4285,6.43753 7.11963,7.13754 1.94208,0.36831 65.836007,0.36885 67.777916,5.3e-4 2.966016,-0.56249 5.310394,-2.35522 6.568839,-5.02314 l 0.686417,-1.45517 0.132291,-16.27187 c 0.142764,-17.56002 0.101188,-17.09077 1.582203,-17.85664 0.977741,-0.50561 1.679573,-0.50515 2.65979,0.002 1.652103,0.85434 1.608937,0.3277 1.523855,18.59095 l -0.07731,16.59405 -0.672203,1.72378 c -1.416487,3.63239 -3.750929,6.27022 -7.112222,8.03653 -3.45639,1.81628 -1.767007,1.74259 -39.311406,1.71487 -19.89793,-0.015 -34.41232,-0.12785 -35.18958,-0.27393 z m 96.014145,-41.22649 c -0.96396,-0.38948 -1.69019,-1.56878 -1.69019,-2.74463 0,-1.06804 0.11207,-1.19273 9.71863,-10.81224 l 9.71863,-9.73173 h -35.143953 c -32.348348,0 -35.20343,-0.0351 -35.891646,-0.44168 -1.960588,-1.15815 -1.875088,-4.00981 0.149022,-4.97031 0.763574,-0.36234 4.844317,-0.40885 35.874079,-0.40885 h 35.012498 l -9.71863,-9.73173 c -9.65112,-9.66414 -9.71863,-9.73936 -9.71863,-10.82762 0,-1.95864 1.90048,-3.40607 3.74731,-2.85399 0.88606,0.26488 24.79352,24.13426 25.26693,25.22669 0.78926,1.82129 0.89296,1.69488 -12.04039,14.67526 -6.64348,6.66763 -12.40057,12.29334 -12.79353,12.50156 -0.79275,0.42007 -1.64468,0.46088 -2.49013,0.11927 z"
       id="path125"
       inkscape:connector-curvature="0" />
  </g>
</svg>
