<?xml version="1.0" encoding="UTF-8" standalone="no"?>
<!-- Created with Inkscape (http://www.inkscape.org/) -->

<svg
   xmlns:dc="http://purl.org/dc/elements/1.1/"
   xmlns:cc="http://creativecommons.org/ns#"
   xmlns:rdf="http://www.w3.org/1999/02/22-rdf-syntax-ns#"
   xmlns:svg="http://www.w3.org/2000/svg"
   xmlns="http://www.w3.org/2000/svg"
   xmlns:sodipodi="http://sodipodi.sourceforge.net/DTD/sodipodi-0.dtd"
   xmlns:inkscape="http://www.inkscape.org/namespaces/inkscape"
   width="135.45486mm"
   height="95.809959mm"
   viewBox="0 0 135.45488 95.809955"
   version="1.1"
   id="svg8"
   inkscape:version="0.92.1 r15371"
   sodipodi:docname="about-2.svg">
  <defs
     id="defs2" />
  <sodipodi:namedview
     id="base"
     pagecolor="#ffffff"
     bordercolor="#666666"
     borderopacity="1.0"
     inkscape:pageopacity="0.0"
     inkscape:pageshadow="2"
     inkscape:zoom="0.35"
     inkscape:cx="903.95856"
     inkscape:cy="500.47423"
     inkscape:document-units="mm"
     inkscape:current-layer="layer1"
     showgrid="false"
     fit-margin-top="0"
     fit-margin-left="0"
     fit-margin-right="0"
     fit-margin-bottom="0"
     inkscape:window-width="1366"
     inkscape:window-height="715"
     inkscape:window-x="-8"
     inkscape:window-y="-8"
     inkscape:window-maximized="1" />
  <metadata
     id="metadata5">
    <rdf:RDF>
      <cc:Work
         rdf:about="">
        <dc:format>image/svg+xml</dc:format>
        <dc:type
           rdf:resource="http://purl.org/dc/dcmitype/StillImage" />
        <dc:title></dc:title>
      </cc:Work>
    </rdf:RDF>
  </metadata>
  <g
     inkscape:label="Layer 1"
     inkscape:groupmode="layer"
     id="layer1"
     transform="translate(133.33903,-275.71729)">
    <path
       style="fill:#6f317f;stroke-width:0.26458332"
       d="m -111.38451,371.14584 c -4.71522,-1.30759 -8.0883,-4.43882 -9.77989,-9.07865 l -0.74509,-2.04368 -1.41824,-0.42457 c -2.23629,-0.66946 -3.53098,-1.45022 -5.52665,-3.33283 -2.20851,-2.08339 -3.78999,-4.9923 -4.21969,-7.76153 -0.16753,-1.07966 -0.26615,-12.60202 -0.26495,-30.95625 0.002,-24.84743 0.0605,-29.48511 0.39244,-30.89282 1.20915,-5.12843 5.67821,-9.57985 10.66103,-10.61895 2.23707,-0.46652 100.554544,-0.40253 102.315938,0.0666 4.799275,1.27819 8.197334,4.39728 9.910815,9.09716 l 0.7450879,2.04368 1.418241,0.42369 c 4.981654,1.48823 8.931536,5.98736 9.740748,11.09524 0.174956,1.10435 0.271773,12.18226 0.270542,30.95625 -0.0016,24.84743 -0.06054,29.48511 -0.392438,30.89282 -1.20914804,5.12843 -5.678209,9.57985 -10.661027,10.61896 -2.1404029,0.44635 -100.8260469,0.36437 -102.4468669,-0.0851 z m 102.8620849,-5.94123 c 1.813049,-0.8194 3.824774,-3.00508 4.470318,-4.85687 0.4596,-1.3184 0.485299,-2.97535 0.485299,-31.29003 0,-33.01154 0.124687,-30.45743 -1.6095,-32.96893 -0.701249,-1.01557 -2.497963,-2.42463 -3.483729,-2.73209 l -0.595313,-0.18568 v 27.4789 c 0,30.10987 0.06391,28.81658 -1.5854519,32.08395 -0.917228,1.81702 -3.260476,4.32756 -5.170029,5.53913 -0.722871,0.45865 -2.088216,1.09753 -3.034102,1.41973 l -1.719791,0.58582 -47.562408,0.0724 -47.562408,0.0724 0.43765,0.85364 c 0.9946,1.93993 2.82733,3.54319 4.86113,4.25246 1.06759,0.37232 6.33058,0.40955 50.932288,0.36028 l 49.7416639,-0.0549 z M -20.27271,354.05201 c 1.921007,-0.71874 3.675681,-2.31327 4.586358,-4.16777 l 0.742461,-1.51195 V 318.0775 287.78271 l -0.693161,-1.47809 c -0.881076,-1.87881 -2.299943,-3.29767 -4.178749,-4.17875 l -1.47809,-0.69316 h -50.006247 -50.006252 l -1.39438,0.63018 c -1.81305,0.8194 -3.82478,3.00508 -4.47032,4.85687 -0.4596,1.3184 -0.4853,2.97535 -0.4853,31.29003 0,28.19842 0.027,29.95808 0.47526,30.95625 0.75777,1.68742 1.70485,2.90356 2.96712,3.81005 2.35475,1.69106 -1.49352,1.57487 52.837801,1.59527 49.312344,0.0185 49.67582,0.0148 51.103499,-0.51935 z m -75.422347,-5.43016 c -10.647673,-1.55283 -20.178103,-9.17234 -24.139743,-19.29956 -1.60261,-4.09677 -2.00268,-6.41142 -1.9893,-11.50937 0.0152,-5.787 0.77177,-9.01929 3.26553,-13.95086 8.64501,-17.09606 31.076433,-22.16713 46.372824,-10.48351 5.650192,4.3157 9.573712,10.41227 11.383004,17.68749 0.796171,3.20143 0.863036,9.95775 0.132236,13.36146 -3.429762,15.97411 -18.762813,26.56591 -35.024551,24.19435 z m 7.329,-5.68276 c 3.111096,-0.3276 5.837243,-1.07798 8.597099,-2.36637 2.263587,-1.05671 5.161528,-3.06723 5.161528,-3.58093 0,-0.51846 -2.047134,-3.51679 -3.357811,-4.91801 -4.913246,-5.25266 -12.861136,-6.96344 -19.841466,-4.27088 -1.90289,0.73401 -4.784313,2.70261 -6.251243,4.27088 -1.31068,1.40122 -3.35781,4.39955 -3.35781,4.91801 0,0.5137 2.89794,2.52422 5.16152,3.58093 2.636583,1.23084 5.579763,2.06909 8.259273,2.35233 2.90359,0.30693 2.8488,0.3068 5.62891,0.014 z m -18.506573,-15.92711 c 0.93514,-0.833 2.73352,-2.12616 3.9964,-2.8737 l 2.29614,-1.35915 -1.17089,-1.43754 c -3.60611,-4.42733 -4.31014,-10.0329 -1.90167,-15.14113 1.05472,-2.237 3.976893,-5.21797 6.222193,-6.34739 5.70355,-2.86898 11.856498,-1.83811 16.375735,2.74362 2.839873,2.87914 4.066042,5.85919 4.066042,9.88199 0,3.24611 -1.084635,6.16326 -3.30528,8.88961 -1.293207,1.58771 -1.366018,1.73629 -0.850845,1.73629 0.599329,0 4.496538,2.55421 6.123863,4.01355 0.863976,0.77478 2.256314,2.33316 3.094085,3.46307 l 1.523222,2.05437 0.772311,-1.12747 c 1.089012,-1.58981 1.875951,-3.20488 2.60958,-5.35573 4.746643,-13.91626 -3.107775,-28.57854 -17.535334,-32.73419 -1.795388,-0.51714 -2.702299,-0.60168 -6.454519,-0.60168 -3.75222,0 -4.65913,0.0845 -6.45452,0.60168 -9.873143,2.84381 -16.820653,10.47922 -18.557133,20.3945 -1.05679,6.0343 0.35456,12.9117 3.63138,17.69542 l 0.77231,1.12747 1.52334,-2.05453 c 0.83784,-1.12999 2.28845,-2.73607 3.22359,-3.56906 z m 18.866593,-6.82664 c 1.921004,-0.71874 3.675678,-2.31327 4.586355,-4.16777 1.002361,-2.04121 1.046628,-5.03501 0.105569,-7.13966 -1.288806,-2.88238 -4.468184,-4.9107 -7.697484,-4.9107 -3.2293,0 -6.40868,2.02832 -7.69748,4.9107 -0.94106,2.10465 -0.89679,5.09845 0.10557,7.13966 1.90051,3.87021 6.52833,5.69023 10.59747,4.16777 z m 34.585624,16.65722 c -1.114575,-1.11457 -1.13049,-2.52755 -0.04218,-3.74578 l 0.771917,-0.86407 14.640062,-0.0802 c 9.764878,-0.0535 14.960739,0.0132 15.603044,0.20031 1.973998,0.57494 2.539204,3.03296 1.041744,4.53042 l -0.773395,0.7734 h -15.213546 -15.213541 z m 0,-16.93333 c -1.114575,-1.11458 -1.13049,-2.52755 -0.04218,-3.74578 l 0.771917,-0.86407 14.640062,-0.0802 c 9.764878,-0.0535 14.960739,0.0132 15.603044,0.20031 1.973998,0.57494 2.539204,3.03296 1.041744,4.53042 l -0.773395,0.77339 h -15.213546 -15.213541 z m 0,-16.93333 c -1.114575,-1.11458 -1.13049,-2.52756 -0.04218,-3.74579 l 0.771917,-0.86407 14.640062,-0.0802 c 9.764878,-0.0535 14.960739,0.0132 15.603044,0.2003 1.973998,0.57494 2.539204,3.03296 1.041744,4.53042 l -0.773395,0.7734 h -15.213546 -15.213541 z"
       id="path138"
       inkscape:connector-curvature="0" />
  </g>
</svg>
