<?xml version="1.0" encoding="UTF-8" standalone="no"?>
<!-- Created with Inkscape (http://www.inkscape.org/) -->

<svg
   xmlns:dc="http://purl.org/dc/elements/1.1/"
   xmlns:cc="http://creativecommons.org/ns#"
   xmlns:rdf="http://www.w3.org/1999/02/22-rdf-syntax-ns#"
   xmlns:svg="http://www.w3.org/2000/svg"
   xmlns="http://www.w3.org/2000/svg"
   xmlns:sodipodi="http://sodipodi.sourceforge.net/DTD/sodipodi-0.dtd"
   xmlns:inkscape="http://www.inkscape.org/namespaces/inkscape"
   width="135.28767mm"
   height="96.085953mm"
   viewBox="0 0 135.28769 96.085948"
   version="1.1"
   id="svg8"
   inkscape:version="0.92.1 r15371"
   sodipodi:docname="mail.svg">
  <defs
     id="defs2" />
  <sodipodi:namedview
     id="base"
     pagecolor="#ffffff"
     bordercolor="#666666"
     borderopacity="1.0"
     inkscape:pageopacity="0.0"
     inkscape:pageshadow="2"
     inkscape:zoom="0.35"
     inkscape:cx="414.78386"
     inkscape:cy="94.981858"
     inkscape:document-units="mm"
     inkscape:current-layer="layer1"
     showgrid="false"
     fit-margin-top="0"
     fit-margin-left="0"
     fit-margin-right="0"
     fit-margin-bottom="0"
     inkscape:window-width="1366"
     inkscape:window-height="715"
     inkscape:window-x="-8"
     inkscape:window-y="-8"
     inkscape:window-maximized="1" />
  <metadata
     id="metadata5">
    <rdf:RDF>
      <cc:Work
         rdf:about="">
        <dc:format>image/svg+xml</dc:format>
        <dc:type
           rdf:resource="http://purl.org/dc/dcmitype/StillImage" />
        <dc:title></dc:title>
      </cc:Work>
    </rdf:RDF>
  </metadata>
  <g
     inkscape:label="Layer 1"
     inkscape:groupmode="layer"
     id="layer1"
     transform="translate(3.9115622,-168.15477)">
    <path
       style="fill:#000000;stroke-width:0.26458332"
       d="m 4.8196326,264.04945 c -4.23788003,-0.84046 -7.717247,-4.41933 -8.520419,-8.76409 -0.175019,-0.94677 -0.243114,-14.82733 -0.196506,-40.05637 l 0.07132,-38.60756 0.604674,-1.49556 c 1.172898,-2.90098 3.46544597,-5.19353 6.366424,-6.36643 l 1.495568,-0.60467 H 63.775069 122.90944 l 1.49557,0.60467 c 2.90098,1.1729 5.19353,3.46545 6.36642,6.36643 l 0.60468,1.49556 v 39.55521 39.55521 l -0.60468,1.49556 c -1.17289,2.90098 -3.46544,5.19353 -6.36642,6.36643 l -1.49557,0.60467 -58.472913,0.0389 c -32.160103,0.0214 -58.9877054,-0.0632 -59.6168944,-0.18797 z M 123.17402,259.35568 c 1.72894,-0.79656 2.60192,-1.66172 3.35424,-3.32421 l 0.61452,-1.35796 v -38.49687 c 0,-26.12742 -0.0886,-38.69268 -0.27564,-39.10628 -0.26131,-0.57773 -1.42607,0.39192 -22.40633,18.65312 -12.171888,10.5944 -22.138397,19.3285 -22.147803,19.40912 -0.0094,0.0806 5.635164,5.43843 12.543495,11.90625 6.908328,6.46781 12.693618,12.07819 12.856198,12.4675 0.5838,1.39793 -0.97264,3.14635 -2.46699,2.77129 -0.60721,-0.1524 -6.108768,-5.20168 -22.720976,-20.85308 l -3.607628,-3.39897 -3.271538,2.84829 c -3.946305,3.43576 -5.100399,4.34325 -6.314249,4.96501 -3.081271,1.57831 -8.031229,1.57831 -11.1125,0 -1.214752,-0.62222 -2.36787,-1.52917 -6.328621,-4.97757 l -3.285913,-2.86086 -1.608879,1.56594 c -7.184482,6.99274 -24.112423,22.56603 -24.68521,22.70979 -1.500026,0.37649 -3.05794,-1.3686 -2.472763,-2.76984 0.16258,-0.38931 5.947871,-5.99969 12.856202,-12.4675 6.908332,-6.46782 12.552751,-11.82563 12.543158,-11.90625 -0.0096,-0.0806 -9.975186,-8.81721 -22.145757,-19.41464 C 2.0402316,177.38814 0.94920357,176.47985 0.68504457,177.06484 c -0.189763,0.42023 -0.277681,12.8037 -0.277681,39.1118 v 38.49687 l 0.60823603,1.31962 c 1.011617,2.19479 2.489309,3.34841 4.906671,3.83058 0.604822,0.12064 26.9362374,0.20182 58.5142564,0.18041 l 57.414583,-0.0389 z M 67.265611,221.97296 c 1.084908,-0.55657 10.205254,-8.42571 47.945429,-41.36786 l 8.47026,-7.39341 -0.9151,-0.41179 c -0.81919,-0.36865 -7.00116,-0.4118 -58.991131,-0.4118 -51.874999,0 -58.1732514,0.0438 -58.9864854,0.4099 l -0.910446,0.4099 27.5750544,24.06077 c 15.166279,13.23342 27.898949,24.23307 28.294821,24.44365 2.417077,1.28578 5.322935,1.38652 7.517598,0.26064 z"
       id="path112"
       inkscape:connector-curvature="0" />
  </g>
</svg>
