<?xml version="1.0" encoding="UTF-8" standalone="no"?>
<!-- Created with Inkscape (http://www.inkscape.org/) -->

<svg
   xmlns:dc="http://purl.org/dc/elements/1.1/"
   xmlns:cc="http://creativecommons.org/ns#"
   xmlns:rdf="http://www.w3.org/1999/02/22-rdf-syntax-ns#"
   xmlns:svg="http://www.w3.org/2000/svg"
   xmlns="http://www.w3.org/2000/svg"
   xmlns:sodipodi="http://sodipodi.sourceforge.net/DTD/sodipodi-0.dtd"
   xmlns:inkscape="http://www.inkscape.org/namespaces/inkscape"
   width="94.625809mm"
   height="134.95911mm"
   viewBox="0 0 94.625819 134.9591"
   version="1.1"
   id="svg8"
   inkscape:version="0.92.1 r15371"
   sodipodi:docname="mark.svg">
  <defs
     id="defs2" />
  <sodipodi:namedview
     id="base"
     pagecolor="#ffffff"
     bordercolor="#666666"
     borderopacity="1.0"
     inkscape:pageopacity="0.0"
     inkscape:pageshadow="2"
     inkscape:zoom="0.35"
     inkscape:cx="307.5318"
     inkscape:cy="636.1795"
     inkscape:document-units="mm"
     inkscape:current-layer="layer1"
     showgrid="false"
     fit-margin-top="0"
     fit-margin-left="0"
     fit-margin-right="0"
     fit-margin-bottom="0"
     inkscape:window-width="1366"
     inkscape:window-height="715"
     inkscape:window-x="-8"
     inkscape:window-y="-8"
     inkscape:window-maximized="1" />
  <metadata
     id="metadata5">
    <rdf:RDF>
      <cc:Work
         rdf:about="">
        <dc:format>image/svg+xml</dc:format>
        <dc:type
           rdf:resource="http://purl.org/dc/dcmitype/StillImage" />
        <dc:title></dc:title>
      </cc:Work>
    </rdf:RDF>
  </metadata>
  <g
     inkscape:label="Layer 1"
     inkscape:groupmode="layer"
     id="layer1"
     transform="translate(-24.465544,-272.47349)">
    <path
       style="fill:#000000;stroke-width:0.26458332"
       d="M 51.653598,378.70808 C 34.481257,353.93095 31.43575,349.39506 29.835684,346.21309 c -3.952876,-7.86088 -5.624923,-15.8066 -5.338937,-25.3711 0.595704,-19.92266 9.997416,-35.41994 26.529646,-43.73004 3.727931,-1.87388 9.230822,-3.57036 14.006438,-4.31803 2.728915,-0.42724 10.764834,-0.42724 13.493749,0 4.775615,0.74767 10.278506,2.44415 14.006438,4.31803 16.542662,8.31535 25.935422,23.79819 26.529082,43.73004 0.28794,9.6672 -1.54641,18.13343 -5.64664,26.06146 -0.95815,1.85265 -8.08816,12.38535 -21.403055,31.61739 -10.981443,15.8616 -20.063975,28.87185 -20.1834,28.91166 -0.119428,0.0398 -9.198358,-12.88618 -20.175407,-28.72442 z m 38.200982,-5.69047 c 9.868421,-14.29003 18.41233,-26.85466 18.98646,-27.92139 9.26274,-17.21003 6.52549,-40.93046 -6.29479,-54.54938 -8.059517,-8.56159 -18.914175,-13.22881 -30.766545,-13.22881 -9.793588,0 -18.557831,3.03705 -26.315692,9.1191 -2.390219,1.8739 -5.259946,4.77951 -7.064449,7.15278 -10.623307,13.97171 -12.177675,35.71998 -3.681201,51.50631 0.994686,1.84811 36.785353,53.90326 37.061342,53.90326 0.07276,0 8.206454,-11.69185 18.074875,-25.98187 z M 68.139399,336.05233 c -5.102894,-1.3371 -8.834781,-4.25626 -11.158043,-8.72805 -1.398288,-2.69141 -1.942623,-4.89365 -1.96194,-7.9375 -0.01945,-3.06549 0.364699,-4.77814 1.691388,-7.54062 1.771412,-3.68851 4.373951,-6.2914 8.057443,-8.05852 2.754638,-1.32152 4.467365,-1.7068 7.540625,-1.69629 10.982126,0.0376 19.060217,10.07066 16.801213,20.86731 -1.011521,4.83444 -4.669301,9.53496 -9.131578,11.73475 -3.830809,1.8885 -7.994229,2.36639 -11.839108,1.35892 z m 7.37078,-4.86981 c 4.207539,-1.27708 7.317348,-4.38689 8.594431,-8.59443 0.203153,-0.66932 0.370655,-2.18056 0.372232,-3.35833 0.0046,-3.42709 -1.180021,-6.26057 -3.616703,-8.6509 -4.919446,-4.82587 -12.446457,-4.80172 -17.303683,0.0555 -3.210475,3.21048 -4.358971,7.46338 -3.190103,11.81302 1.473431,5.483 6.075183,9.06637 11.677936,9.09358 1.236927,0.006 2.796577,-0.15529 3.46589,-0.35844 z"
       id="path99"
       inkscape:connector-curvature="0" />
  </g>
</svg>
