<?xml version="1.0" encoding="UTF-8" standalone="no"?>
<!-- Created with Inkscape (http://www.inkscape.org/) -->

<svg
   xmlns:dc="http://purl.org/dc/elements/1.1/"
   xmlns:cc="http://creativecommons.org/ns#"
   xmlns:rdf="http://www.w3.org/1999/02/22-rdf-syntax-ns#"
   xmlns:svg="http://www.w3.org/2000/svg"
   xmlns="http://www.w3.org/2000/svg"
   xmlns:sodipodi="http://sodipodi.sourceforge.net/DTD/sodipodi-0.dtd"
   xmlns:inkscape="http://www.inkscape.org/namespaces/inkscape"
   width="126.43719mm"
   height="135.44984mm"
   viewBox="0 0 126.4372 135.44984"
   version="1.1"
   id="svg8"
   inkscape:version="0.92.1 r15371"
   sodipodi:docname="obr-i-4.svg">
  <defs
     id="defs2" />
  <sodipodi:namedview
     id="base"
     pagecolor="#ffffff"
     bordercolor="#666666"
     borderopacity="1.0"
     inkscape:pageopacity="0.0"
     inkscape:pageshadow="2"
     inkscape:zoom="0.35"
     inkscape:cx="352.55328"
     inkscape:cy="150.28726"
     inkscape:document-units="mm"
     inkscape:current-layer="layer1"
     showgrid="false"
     fit-margin-top="0"
     fit-margin-left="0"
     fit-margin-right="0"
     fit-margin-bottom="0"
     inkscape:window-width="1366"
     inkscape:window-height="715"
     inkscape:window-x="-8"
     inkscape:window-y="-8"
     inkscape:window-maximized="1" />
  <metadata
     id="metadata5">
    <rdf:RDF>
      <cc:Work
         rdf:about="">
        <dc:format>image/svg+xml</dc:format>
        <dc:type
           rdf:resource="http://purl.org/dc/dcmitype/StillImage" />
        <dc:title></dc:title>
      </cc:Work>
    </rdf:RDF>
  </metadata>
  <g
     inkscape:label="Layer 1"
     inkscape:groupmode="layer"
     id="layer1"
     transform="translate(-12.553612,-53.146998)">
    <path
       style="fill:#f33ef7;stroke-width:0.26458332"
       d="m 114.41669,188.21125 c -1.34225,-0.74395 -1.65518,-2.32763 -0.97475,-4.93299 0.51628,-1.97683 1.47599,-3.59819 2.98347,-5.04035 2.59089,-2.47863 4.64061,-3.15118 9.60382,-3.15118 2.11562,0 3.88763,0.14566 4.86313,0.39975 3.67015,0.95595 6.46111,3.65303 7.61919,7.36288 0.88422,2.83259 0.54561,4.63404 -1.02169,5.43557 -0.89855,0.45952 -22.23409,0.39139 -23.07317,-0.0737 z m 18.35296,-5.55661 c -1.06238,-1.6214 -3.50148,-2.54083 -6.74042,-2.54083 -3.23894,0 -5.67804,0.91943 -6.74042,2.54083 l -0.41553,0.63417 h 7.15595 7.15595 z M 22.785774,169.55756 c -1.414469,-1.26383 -1.23884,-2.0031 1.892158,-7.96458 1.49035,-2.83765 2.94035,-5.3975 3.22222,-5.68854 0.507946,-0.52448 0.905203,-0.52977 44.799846,-0.5976 l 44.287362,-0.0684 0.75062,0.64411 c 0.44298,0.38013 1.88012,2.84809 3.50646,6.02157 2.52788,4.93266 2.74007,5.46055 2.56533,6.38225 -0.13968,0.73674 -0.41607,1.14235 -1.03604,1.52037 -0.83007,0.50612 -1.74451,0.51557 -49.987718,0.51654 l -49.142181,9.9e-4 z m 93.099546,-6.70781 -1.19314,-2.18281 -41.820819,-0.067 -41.820819,-0.067 -1.061696,2.11161 c -0.583934,1.16138 -1.061697,2.17378 -1.061697,2.24977 0,0.076 19.834045,0.13816 44.075654,0.13816 H 117.07845 Z M 58.612182,150.88026 c -0.430459,-0.36221 -0.846341,-0.98729 -0.924182,-1.38907 -0.121261,-0.62587 0.09477,-3.13212 0.740606,-8.59204 l 0.147497,-1.24695 -19.256248,-0.0799 c -17.571905,-0.073 -19.360392,-0.12034 -20.446873,-0.54177 -1.70089,-0.65975 -3.697223,-2.24791 -4.698658,-3.73798 -1.754853,-2.61109 -1.664181,-0.35806 -1.588053,-39.459875 l 0.069,-35.44277 0.703899,-1.50155 c 1.383093,-2.95039 3.870018,-4.91278 6.969018,-5.49911 1.159593,-0.2194 15.60143,-0.27916 53.578125,-0.22172 l 51.990627,0.0786 1.71979,0.82245 c 3.14908,1.50597 5.095,4.19234 5.58191,7.70589 0.15509,1.11918 0.22548,15.13914 0.18045,35.94389 l -0.0738,34.109025 -0.63423,1.57456 c -0.88214,2.19004 -3.30612,4.62272 -5.45118,5.47075 l -1.5875,0.6276 -18.18176,0.0748 -18.18175,0.0748 0.11734,0.71893 c 0.0645,0.39541 0.31081,2.54079 0.54726,4.76751 0.34874,3.28424 0.36793,4.19819 0.10162,4.84112 -0.65571,1.58301 -0.43049,1.56135 -16.227608,1.56135 H 59.394833 Z m 26.142048,-4.80202 c 0,-0.23842 -0.141,-1.78623 -0.31335,-3.43958 l -0.31335,-3.00609 H 73.994882 63.86223 l -0.124204,0.59531 c -0.127349,0.61038 -0.679627,5.48465 -0.679627,5.99822 0,0.19981 3.259386,0.28563 10.847917,0.28563 9.873474,0 10.847914,-0.0389 10.847914,-0.43349 z m 41.1602,-12.39506 c 1.53016,-0.89673 2.23147,-2.37935 2.23147,-4.71748 v -1.76855 H 72.809792 17.473687 l 0.147746,1.95355 c 0.20171,2.66707 1.088143,4.19472 2.839185,4.89295 0.431011,0.17187 18.713388,0.26955 52.49641,0.28048 l 51.835082,0.0168 z m 2.22566,-41.741765 c -0.006,-28.64929 -0.0274,-30.01164 -0.49834,-31.04857 -0.27088,-0.59648 -0.89335,-1.37038 -1.38325,-1.71979 l -0.89073,-0.63528 -52.279337,-0.0681 -52.279339,-0.0681 -0.877582,0.59725 c -1.165843,0.79344 -1.835435,1.73705 -2.128114,2.99899 -0.136685,0.58934 -0.243436,13.75829 -0.24702,30.47275 l -0.0063,29.434895 h 55.297916 55.297916 l -0.006,-29.964065 z"
       id="path47"
       inkscape:connector-curvature="0" />
  </g>
</svg>
