<?xml version="1.0" encoding="UTF-8" standalone="no"?>
<svg
   xmlns:dc="http://purl.org/dc/elements/1.1/"
   xmlns:cc="http://creativecommons.org/ns#"
   xmlns:rdf="http://www.w3.org/1999/02/22-rdf-syntax-ns#"
   xmlns:svg="http://www.w3.org/2000/svg"
   xmlns="http://www.w3.org/2000/svg"
   id="svg8"
   version="1.1"
   viewBox="0 0 117.2891 135.32996"
   height="135.32996mm"
   width="117.2891mm">
  <defs
     id="defs2" />
  <metadata
     id="metadata5">
    <rdf:RDF>
      <cc:Work
         rdf:about="">
        <dc:format>image/svg+xml</dc:format>
        <dc:type
           rdf:resource="http://purl.org/dc/dcmitype/StillImage" />
        <dc:title></dc:title>
      </cc:Work>
    </rdf:RDF>
  </metadata>
  <g
     transform="translate(170.58362,-125.01187)"
     id="layer1">
    <path
       id="path21"
       d="m -129.80977,260.11809 c -2.87903,-0.47961 -6.77006,-2.17341 -9.29199,-4.04489 -0.49212,-0.36519 -1.79199,-2.00892 -2.88861,-3.65274 -3.89359,-5.83644 -7.86356,-10.19031 -13.14996,-14.42154 -7.69875,-6.16206 -11.73683,-13.01928 -12.12025,-20.58181 -0.0952,-1.87703 -0.21752,-2.29639 -1.08075,-3.70417 -1.4876,-2.42602 -2.05959,-4.53471 -2.212,-8.15467 -0.0785,-1.86543 -9.1e-4,-3.94752 0.19237,-5.15937 0.38304,-2.40164 1.65656,-6.53282 2.57416,-8.35036 0.64147,-1.27059 0.6468,-1.33556 0.32935,-4.01423 -0.45505,-3.83967 -0.2015,-10.21047 0.51542,-12.95053 0.92726,-3.54396 2.45377,-6.29456 4.78971,-8.6305 l 2.03383,-2.03383 0.16479,-3.1345 c 0.19181,-3.64871 0.85106,-6.28287 2.22833,-8.90382 0.98794,-1.88007 3.99537,-5.34342 5.19965,-5.98793 0.48709,-0.26069 0.69268,-0.58476 0.69268,-1.09188 0,-1.08901 0.95409,-3.91319 1.84082,-5.44899 2.3066,-3.99499 7.296,-7.54859 13.17903,-9.38649 1.41199,-0.44111 2.2675,-0.92992 3.54127,-2.02332 4.3078,-3.69785 9.07814,-4.40574 13.85034,-2.0553 2.13095,1.04955 4.81854,3.22677 6.35,5.14415 0.58208,0.72877 1.12021,1.33096 1.19584,1.3382 0.0756,0.007 0.61141,-0.59281 1.19063,-1.33346 1.48384,-1.89741 4.17153,-4.07851 6.34478,-5.14889 4.758049,-2.34347 9.301839,-1.69433 13.748919,1.96419 1.46988,1.20924 2.33463,1.68673 4.11046,2.26968 7.7697,2.55055 13.1429,7.60411 14.36074,13.50644 0.30945,1.49975 0.46068,1.71913 2.73586,3.96875 1.98353,1.96124 2.60107,2.77793 3.50114,4.63021 1.45176,2.9876 1.89226,4.80107 2.08028,8.56425 l 0.1569,3.14029 2.02435,2.01908 c 2.3337,2.32764 3.57807,4.49575 4.65717,8.11435 0.59987,2.01156 0.72805,3.03208 0.84476,6.72529 0.0846,2.67602 0.015,5.32707 -0.18057,6.87917 l -0.31816,2.52528 0.93543,2.01514 c 0.51449,1.10834 1.25776,3.19193 1.65171,4.63021 0.63356,2.3131 0.71853,3.10389 0.73593,6.84839 0.0227,4.88394 -0.37648,6.65189 -2.18041,9.6573 -0.96858,1.61367 -1.04142,1.88305 -1.18046,4.36562 -0.39728,7.09368 -4.40661,13.72287 -11.9653,19.78393 -5.31277,4.26014 -9.14525,8.452 -13.04513,14.26839 -2.24332,3.34575 -2.47806,3.58128 -5.10247,5.11988 -4.00692,2.34909 -8.42128,3.3739 -12.08176,2.80481 -4.992739,-0.7762 -9.546969,-4.54986 -12.262619,-10.16087 -0.33454,-0.69122 -0.67987,-1.25677 -0.7674,-1.25677 -0.0875,0 -0.43367,0.56555 -0.76921,1.25677 -1.71974,3.54268 -4.90426,7.1377 -7.62221,8.60474 -2.76033,1.48992 -6.25069,2.03387 -9.53739,1.48635 z m 5.36905,-4.085 c 3.82731,-0.99689 7.11927,-4.56275 9.41088,-10.1939 l 0.76763,-1.88629 v -53.79776 -53.79777 l -1.33011,-1.65736 c -1.69583,-2.11304 -3.95756,-4.02765 -5.81364,-4.9214 -1.92379,-0.92634 -4.82452,-1.00226 -6.61458,-0.1731 -1.92162,0.8901 -4.06071,2.83239 -6.08392,5.5242 -2.03667,2.70971 -2.74614,3.1567 -3.94358,2.4846 -0.3693,-0.20728 -0.78048,-0.75703 -0.91373,-1.22165 l -0.24228,-0.84478 -1.22127,0.70268 c -3.62998,2.08859 -6.27354,4.96208 -7.09308,7.71004 -0.59151,1.98333 -0.58437,5.0136 0.0174,7.37897 0.45794,1.80011 0.4609,1.96255 0.0472,2.59392 -0.57149,0.87221 -1.40562,1.16875 -2.3558,0.83752 -0.80542,-0.28077 -1.30857,-1.18041 -1.63546,-2.92418 l -0.18969,-1.01196 -0.87386,0.84697 c -1.21029,1.17306 -2.41517,3.54101 -3.03508,5.96484 -0.98899,3.86691 -0.52853,8.80658 1.3505,14.48773 0.57048,1.72482 1.03724,3.36734 1.03724,3.65004 0,0.70754 -1.16667,1.81287 -1.91347,1.81287 -1.28952,0 -1.7371,-0.67277 -2.86837,-4.3115 -0.5974,-1.92154 -1.14513,-3.6723 -1.21718,-3.89058 -0.0963,-0.29162 -0.37729,-0.11618 -1.05962,0.66146 -1.22092,1.39146 -2.06028,3.0762 -2.79334,5.6067 -0.53163,1.8352 -0.598,2.64306 -0.59361,7.22559 0.004,3.88754 0.12417,5.77898 0.48857,7.67291 0.81746,4.24869 0.83174,4.62737 0.19836,5.26075 -0.35219,0.35219 -0.8962,0.56009 -1.46561,0.56009 -0.78817,0 -0.94156,0.11143 -1.18365,0.85989 -1.48991,4.6064 -1.46758,9.91839 0.0565,13.4376 0.7281,1.68124 2.70771,4.06928 4.26869,5.14938 3.21359,2.22361 3.72183,3.19435 2.37667,4.53951 -0.78284,0.78284 -1.7595,0.72735 -3.02213,-0.17172 -1.03128,-0.73434 -1.14732,-0.67722 -0.93624,0.46086 0.30022,1.61877 1.69673,4.71619 3.04672,6.75757 1.83944,2.78149 3.64772,4.66793 7.44029,7.76187 5.73942,4.68216 9.37438,8.66502 13.40738,14.69058 1.03731,1.54982 2.21876,3.05278 2.62544,3.33993 2.3608,1.6669 6.66005,3.19097 9.08435,3.22037 0.66065,0.008 1.90963,-0.16996 2.77551,-0.39549 z m -5.101,-5.27586 c -2.99763,-0.83862 -5.77156,-2.7096 -9.08362,-6.12679 -2.64061,-2.72442 -4.83076,-5.4512 -6.81001,-8.47859 -1.63084,-2.49448 -1.74615,-3.48827 -0.51124,-4.4062 0.9675,-0.71916 1.91202,-0.38911 2.92064,1.02057 3.39236,4.74129 5.10027,6.91664 6.93003,8.82673 3.68137,3.84297 6.66057,5.58978 9.53343,5.58978 1.09959,0 1.5809,0.12854 1.98153,0.52917 0.69618,0.69617 0.67057,1.66249 -0.0661,2.49652 -0.76879,0.87035 -2.89366,1.10859 -4.89462,0.54881 z m 9.10978,-7.75482 c -0.237,-0.26188 -0.61649,-1.00213 -0.8433,-1.64498 -1.32186,-3.74655 -4.47549,-6.57539 -8.69913,-7.80324 -1.33139,-0.38705 -1.58548,-0.56843 -1.92094,-1.3713 -0.34472,-0.82504 -0.34058,-0.99549 0.0383,-1.57371 0.76166,-1.16243 1.45482,-1.28462 3.61605,-0.6374 3.54822,1.06257 6.99437,3.49869 8.80227,6.22241 1.0432,1.57164 2.26608,4.55089 2.26608,5.52074 0,1.48154 -2.27163,2.37887 -3.25932,1.28748 z m -26.51549,-12.49372 c -0.82659,-0.30722 -1.26388,-0.98581 -1.23732,-1.92004 0.0312,-1.09856 0.79093,-1.70639 2.38238,-1.90614 4.28203,-0.53745 6.21785,-1.19201 7.68409,-2.59822 1.7023,-1.63261 2.10094,-3.20295 1.52018,-5.98831 -0.49753,-2.38614 -1.59731,-4.44356 -3.89077,-7.27867 -3.89835,-4.81903 -6.51075,-9.62235 -7.64469,-14.05601 -0.95938,-3.75117 -0.53077,-5.51645 1.32657,-5.46364 1.23191,0.035 1.82099,0.74848 2.11634,2.56317 0.72744,4.46956 3.24652,9.49825 7.16139,14.29586 0.83122,1.01865 1.94516,2.5367 2.47543,3.37344 0.53028,0.83675 1.09698,1.52136 1.25935,1.52136 0.16236,0 0.95049,0.43495 1.75139,0.96656 3.68661,2.44702 6.61428,2.59804 8.34255,0.43033 1.11797,-1.40223 2.78879,-1.4207 3.50344,-0.0387 0.68678,1.32807 -0.12512,2.77572 -2.45775,4.38226 -1.28367,0.8841 -1.59976,0.97948 -3.58518,1.08187 -1.75938,0.0907 -2.48214,0.003 -3.76488,-0.45689 -0.87313,-0.31305 -1.79586,-0.63707 -2.05052,-0.72003 -0.41015,-0.13362 -0.46303,0.0531 -0.46303,1.63525 0,2.25166 -0.32838,3.3446 -1.54529,5.14318 -1.96007,2.89692 -5.57154,4.53663 -11.287,5.12461 -0.58208,0.0599 -1.30059,0.0188 -1.59668,-0.0912 z m -2.95341,-9.39704 c -2.92159,-1.45589 -5.22534,-4.72918 -6.99111,-9.93331 -0.79314,-2.33757 -0.85783,-2.81313 -1.04081,-7.65185 -0.26374,-6.97463 -0.85564,-9.70068 -2.81495,-12.96459 -1.07096,-1.78405 -1.11758,-2.68112 -0.17777,-3.42038 1.54417,-1.21464 2.8607,-0.32393 4.47163,3.02534 1.70456,3.54392 2.49062,7.92317 2.49956,13.92534 0.004,2.49295 0.13099,3.51545 0.66846,5.37014 1.3215,4.56022 3.51912,7.70788 5.83395,8.356 1.22698,0.34353 2.23342,1.2954 2.23342,2.11231 0,0.2518 -0.24676,0.77152 -0.54837,1.15495 -0.73534,0.93483 -2.29065,0.94463 -4.13401,0.0261 z m 13.54593,-20.85613 c -1.86956,-0.87614 -3.47722,-2.75448 -5.23956,-6.12174 -2.13221,-4.07395 -3.42933,-5.42396 -5.21149,-5.42396 -1.38049,0 -2.38125,-0.83396 -2.38125,-1.98437 0,-1.19749 0.99523,-1.98438 2.50974,-1.98438 3.36533,0 6.31109,2.65772 8.83583,7.97186 1.84078,3.87451 3.62154,4.94286 6.11693,3.66981 1.35598,-0.69177 2.15815,-0.66847 2.8643,0.0832 0.82187,0.87485 0.73941,1.93244 -0.2206,2.82922 -1.72887,1.61501 -4.96521,2.0423 -7.2739,0.96037 z m 8.99583,-8.2794 c -0.29104,-0.0615 -0.79555,-0.16869 -1.12113,-0.23809 -0.87296,-0.1861 -1.47604,-1.2514 -1.26147,-2.22831 0.25848,-1.17685 1.38155,-1.68271 3.27279,-1.47413 1.87563,0.20685 4.9554,-0.18269 6.23134,-0.78817 0.62417,-0.29618 1.16409,-0.83382 1.50144,-1.49509 0.6755,-1.32407 1.63731,-1.7294 2.7944,-1.17762 1.15544,0.55099 1.35364,1.59171 0.60602,3.1822 -0.67861,1.44367 -1.7292,2.393 -3.60015,3.25315 -1.82505,0.83905 -6.49246,1.37435 -8.42324,0.96606 z m -10.11109,-3.12772 c -1.04854,-0.45589 -1.32531,-1.37118 -0.86924,-2.87453 0.66965,-2.20735 0.22525,-7.87689 -0.84106,-10.73025 -1.57124,-4.20449 -1.87477,-5.31297 -1.99996,-7.30359 -0.1731,-2.7525 0.26472,-5.46117 1.34953,-8.34926 1.54546,-4.1145 3.68274,-7.12886 5.05456,-7.12886 h 0.72235 l -0.57386,-0.8599 c -1.58568,-2.37605 -1.96452,-3.62997 -1.97842,-6.54844 -0.0127,-2.67474 0.0206,-2.84049 0.8954,-4.45404 1.00015,-1.84471 3.24736,-4.05893 4.88202,-4.81033 1.67711,-0.77092 3.07289,-9.7e-4 3.07289,1.69508 0,0.5084 -0.43475,1.01447 -1.82325,2.12233 -2.90824,2.32044 -3.73478,4.25273 -3.0192,7.05829 0.43655,1.71155 1.2008,2.92713 3.39514,5.40013 1.92337,2.16762 2.19383,2.80387 1.58612,3.73135 -0.93897,1.43305 -2.22037,1.28364 -4.01448,-0.46809 -1.01221,-0.9883 -1.11083,-1.02981 -1.26825,-0.5338 -0.0939,0.2958 -0.48067,0.99331 -0.85953,1.55001 -3.37174,4.95462 -4.39666,10.91773 -2.60704,15.16811 1.23292,2.92822 1.42295,3.54658 1.87787,6.11088 0.94318,5.31648 0.31705,10.54906 -1.35338,11.31016 -0.36858,0.16793 -0.69431,0.30068 -0.72384,0.29498 -0.0295,-0.006 -0.4365,-0.1768 -0.90437,-0.38023 z m 10.44518,-9.27776 c -1.0917,-0.60174 -1.13204,-1.3602 -0.22324,-4.1973 1.30627,-4.07788 1.69962,-7.03089 1.69504,-12.72498 -0.004,-5.4137 -0.23859,-7.88661 -1.32074,-13.94408 -0.65493,-3.666 -0.66966,-3.92848 -0.25596,-4.55986 0.56539,-0.8629 1.64508,-1.13867 2.5306,-0.64635 0.55939,0.311 0.7813,0.79134 1.25287,2.71198 0.79348,3.23175 1.37139,7.3984 1.70454,12.28956 0.32158,4.72132 0.14892,8.66829 -0.56344,12.88 -0.50913,3.01015 -1.85164,7.4006 -2.43797,7.97298 -0.55686,0.5436 -1.61526,0.6405 -2.3817,0.21805 z m 33.278549,76.46728 c 1.72185,-0.44247 4.99775,-1.9086 6.23828,-2.79193 0.43061,-0.30662 1.51228,-1.64746 2.40371,-2.97965 4.00974,-5.99224 8.69238,-11.11677 14.12871,-15.46199 3.98733,-3.18704 6.6333,-6.27289 8.43791,-9.84067 0.85525,-1.69085 1.72146,-4.11106 1.72146,-4.80979 0,-0.44182 -0.12167,-0.41974 -1.29418,0.2349 -1.08263,0.60446 -1.4177,0.67912 -2.0499,0.45679 -0.95069,-0.33434 -1.57959,-1.55251 -1.25555,-2.43197 0.1287,-0.34932 1.1865,-1.3139 2.35067,-2.14353 2.42738,-1.72984 4.27745,-3.98693 5.17035,-6.30781 1.10255,-2.86583 1.02685,-7.95708 -0.18128,-12.19047 -0.37915,-1.32857 -0.43592,-1.38906 -1.30368,-1.38906 -1.05549,0 -1.96599,-0.76632 -1.9648,-1.65365 5.3e-4,-0.32742 0.26047,-1.84547 0.57785,-3.37344 0.47882,-2.30523 0.58002,-3.70139 0.59451,-8.20208 0.0188,-5.85186 -0.19887,-7.26367 -1.58841,-10.30026 -0.76118,-1.66344 -2.47199,-3.86243 -2.75687,-3.54357 -0.10702,0.11979 -0.38743,0.9917 -0.62314,1.93758 -0.79617,3.19498 -1.84893,5.64336 -2.6103,6.07071 -0.90815,0.50973 -2.02426,0.14761 -2.57627,-0.83588 -0.37291,-0.66438 -0.33442,-0.90848 0.58357,-3.70067 1.43114,-4.35302 1.78585,-6.06795 1.96322,-9.49174 0.19108,-3.6886 -0.27511,-6.20136 -1.65318,-8.91055 -0.76138,-1.49682 -2.24042,-3.50478 -2.58157,-3.50478 -0.0517,0 -0.23965,0.65118 -0.41776,1.44708 -0.17811,0.7959 -0.52541,1.69601 -0.77177,2.00025 -0.5197,0.64181 -1.92947,0.78052 -2.56575,0.25245 -0.88096,-0.73113 -0.92593,-1.21012 -0.36373,-3.87388 1.33799,-6.33957 -0.88093,-10.81442 -7.14616,-14.41148 l -1.21044,-0.69496 -0.2674,0.81832 c -0.14707,0.45007 -0.57331,0.98947 -0.9472,1.19866 -1.20719,0.67542 -1.91196,0.23294 -3.95191,-2.48114 -2.02469,-2.69378 -4.16492,-4.63646 -6.08392,-5.52234 -1.86486,-0.8609 -4.431489,-0.75752 -6.619879,0.26662 -1.82774,0.85537 -4.41593,3.05955 -6.12391,5.21532 l -1.01454,1.28053 v 53.70873 53.70872 l 0.80792,2.02845 c 3.24053,8.13604 8.65421,11.83883 14.945339,10.22218 z m -4.17192,-5.07538 c -0.78784,-0.1197 -1.79176,-1.1998 -1.79176,-1.92772 0,-0.2518 0.24676,-0.77152 0.54837,-1.15495 0.46589,-0.59227 0.75442,-0.69736 1.91823,-0.69861 1.97599,-0.002 3.05416,-0.37514 5.24665,-1.81515 3.04046,-1.99696 7.69233,-7.12676 10.63387,-11.72641 1.50619,-2.35521 2.42292,-2.79594 3.70991,-1.7836 0.4826,0.37962 0.69714,0.79829 0.69714,1.36048 0,1.53062 -3.81271,6.89403 -7.92824,11.15282 -5.00036,5.17442 -9.01288,7.20409 -13.03417,6.59314 z m -7.990169,-7.89935 c -0.93995,-0.93995 -0.78718,-2.26244 0.57859,-5.00858 1.95704,-3.93502 5.602769,-6.86247 10.216619,-8.20375 1.83136,-0.5324 2.85384,-0.24766 3.34191,0.93064 0.54219,1.30895 -0.091,2.14473 -2.12131,2.79987 -0.944,0.30462 -2.23929,0.82168 -2.87842,1.14903 -2.34595,1.20155 -4.809239,4.05835 -5.716459,6.62966 -0.2263,0.64141 -0.60537,1.38047 -0.84237,1.64235 -0.5343,0.59039 -2.01407,0.62527 -2.57856,0.0608 z m 26.464679,-12.58905 c -7.56224,-0.95741 -11.49852,-4.28003 -11.75406,-9.92161 l -0.0977,-2.15624 -1.4953,0.68524 c -1.09585,0.50218 -2.07118,0.71561 -3.65109,0.79894 -1.9042,0.10043 -2.32108,0.0347 -3.571879,-0.56343 -3.26744,-1.5624 -4.66029,-4.12136 -2.96789,-5.4526 1.02972,-0.80998 1.5244,-0.68793 3.139319,0.77455 1.34136,1.21474 1.56852,1.32291 2.77809,1.32291 1.58769,0 3.31195,-0.62176 5.36298,-1.93387 0.83957,-0.5371 1.64472,-0.97654 1.78923,-0.97654 0.1445,0 0.67114,-0.63846 1.17032,-1.41879 0.49917,-0.78034 1.65855,-2.35792 2.5764,-3.50573 4.03822,-5.05002 6.33996,-9.64044 7.1062,-14.17213 0.18824,-1.11328 0.48682,-1.9367 0.8075,-2.22691 0.67167,-0.60786 1.94363,-0.58544 2.6468,0.0466 0.50862,0.4572 0.55029,0.70243 0.4234,2.49149 -0.33009,4.65423 -3.07554,10.16225 -8.69043,17.43509 -2.34752,3.0407 -3.17846,4.93312 -3.34237,7.61211 -0.15077,2.46404 0.2251,3.53294 1.69833,4.82973 1.42949,1.25828 3.57846,2.02983 6.70792,2.40833 1.88092,0.2275 2.34638,0.38157 2.84427,0.94146 0.32743,0.3682 0.59532,0.8943 0.59532,1.16911 0,0.62871 -1.02037,1.77165 -1.7198,1.9264 -0.29104,0.0644 -1.35106,0.013 -2.3556,-0.11416 z m 1.55876,-9.22399 c -0.6074,-0.67117 -0.62104,-1.95275 -0.0278,-2.60832 0.24982,-0.27605 0.98158,-0.64956 1.62612,-0.83002 2.28993,-0.64114 4.49512,-3.80982 5.81065,-8.34947 0.52968,-1.82782 0.66483,-2.88657 0.66858,-5.23785 0.009,-5.80643 0.86923,-10.60355 2.52586,-14.08987 1.59168,-3.34963 3.20184,-4.38231 4.56707,-2.9291 0.80477,0.85665 0.71968,1.72955 -0.34016,3.48961 -1.89471,3.14646 -2.47265,5.82371 -2.76993,12.83136 -0.192,4.52584 -0.30743,5.43553 -0.94002,7.40833 -1.04741,3.26647 -2.85129,6.60798 -4.43673,8.21863 -2.31095,2.34769 -5.53985,3.36061 -6.68368,2.0967 z m -14.87291,-20.80704 c -1.44729,-0.51248 -2.71879,-1.70193 -2.71879,-2.54335 0,-0.92298 0.96037,-2.04619 1.74954,-2.04619 0.35904,0 1.11956,0.23812 1.69005,0.52917 2.5991,1.32596 4.15439,0.29484 6.51405,-4.3187 1.75629,-3.43384 3.74663,-5.73599 5.78907,-6.69599 2.62712,-1.23482 5.15938,-0.5686 5.15938,1.3574 0,1.16816 -0.9988,1.98437 -2.42827,1.98437 -1.58069,0 -3.23354,1.69365 -4.97541,5.09825 -2.09658,4.09788 -3.52749,5.75313 -5.79166,6.69961 -1.13915,0.4762 -3.54888,0.44501 -4.98796,-0.0646 z m -8.936499,-8.58487 c -3.32809,-0.47513 -5.43235,-1.7485 -6.61168,-4.00099 -0.68682,-1.3118 -0.72788,-1.53031 -0.42503,-2.26144 0.72701,-1.75518 2.77425,-1.6687 3.70541,0.15652 0.88524,1.73522 3.46106,2.4972 7.980139,2.3607 1.97023,-0.0595 2.18144,-0.0149 2.64867,0.55995 1.08413,1.3338 0.32284,2.85092 -1.61857,3.2255 -1.43896,0.27765 -3.55742,0.26263 -5.678939,-0.0402 z m 13.554379,-3.148 c -1.03424,-0.81353 -1.51599,-2.74301 -1.51499,-6.06771 7.9e-4,-2.85865 0.54654,-6.76869 1.18114,-8.46355 0.19508,-0.52101 0.68041,-1.72087 1.07851,-2.66637 1.03618,-2.46093 1.17943,-5.46512 0.40336,-8.45906 -0.57924,-2.2346 -1.82108,-5.00634 -3.05974,-6.82919 -0.36434,-0.53618 -0.66245,-1.26216 -0.66245,-1.61329 0,-0.58626 -0.11762,-0.52719 -1.43937,0.72287 -1.72112,1.62777 -2.66081,1.83785 -3.69796,0.82674 -0.93565,-0.91215 -0.65718,-1.91557 1.04018,-3.74807 2.96047,-3.1962 4.42145,-6.27703 3.94611,-8.32131 -0.33921,-1.45882 -1.48254,-3.03377 -3.15853,-4.35088 -0.92974,-0.73065 -1.76686,-1.56927 -1.86028,-1.86361 -0.25845,-0.81429 0.36216,-2.01613 1.19013,-2.30476 2.10888,-0.73517 6.81545,3.78778 7.52619,7.23256 0.55384,2.68436 0.008,5.58191 -1.53204,8.13594 l -0.91749,1.52136 h 0.68312 c 1.06115,0 2.56724,1.81328 4.0251,4.84608 1.63338,3.39795 2.11786,5.18657 2.31314,8.5397 0.18325,3.14648 -0.27961,5.67832 -1.51608,8.29282 -1.41845,2.99932 -1.93288,8.58134 -1.17285,12.72651 0.32289,1.761 -1.48005,2.92491 -2.8552,1.84322 z m -10.51167,-9.06746 c -1.2968,-0.6681 -2.948849,-6.87384 -3.432369,-12.89338 -0.43469,-5.41157 0.18645,-13.67734 1.48122,-19.71145 0.55261,-2.57536 0.829499,-3.1935 1.584609,-3.53756 0.91846,-0.41847 1.25328,-0.37774 2.05065,0.24947 0.8488,0.66766 0.86935,1.18716 0.17812,4.50271 -0.92914,4.45675 -1.39047,9.16114 -1.39872,14.2635 -0.009,5.39112 0.37078,8.40549 1.53256,12.17309 0.38104,1.23569 0.75269,2.60807 0.82588,3.04974 0.2485,1.49945 -1.42085,2.62571 -2.82195,1.90388 z"
       style="fill:#f33ef7;stroke-width:0.26458332" />
  </g>
</svg>
