<?xml version="1.0" encoding="UTF-8" standalone="no"?>
<!-- Created with Inkscape (http://www.inkscape.org/) -->

<svg
   xmlns:dc="http://purl.org/dc/elements/1.1/"
   xmlns:cc="http://creativecommons.org/ns#"
   xmlns:rdf="http://www.w3.org/1999/02/22-rdf-syntax-ns#"
   xmlns:svg="http://www.w3.org/2000/svg"
   xmlns="http://www.w3.org/2000/svg"
   xmlns:sodipodi="http://sodipodi.sourceforge.net/DTD/sodipodi-0.dtd"
   xmlns:inkscape="http://www.inkscape.org/namespaces/inkscape"
   width="135.46848mm"
   height="93.661514mm"
   viewBox="0 0 135.46849 93.661511"
   version="1.1"
   id="svg8"
   inkscape:version="0.92.1 r15371"
   sodipodi:docname="obr-i-1.svg">
  <defs
     id="defs2" />
  <sodipodi:namedview
     id="base"
     pagecolor="#ffffff"
     bordercolor="#666666"
     borderopacity="1.0"
     inkscape:pageopacity="0.0"
     inkscape:pageshadow="2"
     inkscape:zoom="0.35"
     inkscape:cx="394.42091"
     inkscape:cy="135.69367"
     inkscape:document-units="mm"
     inkscape:current-layer="layer1"
     showgrid="false"
     fit-margin-top="0"
     fit-margin-left="0"
     fit-margin-right="0"
     fit-margin-bottom="0"
     inkscape:window-width="1366"
     inkscape:window-height="715"
     inkscape:window-x="-8"
     inkscape:window-y="-8"
     inkscape:window-maximized="1" />
  <metadata
     id="metadata5">
    <rdf:RDF>
      <cc:Work
         rdf:about="">
        <dc:format>image/svg+xml</dc:format>
        <dc:type
           rdf:resource="http://purl.org/dc/dcmitype/StillImage" />
        <dc:title></dc:title>
      </cc:Work>
    </rdf:RDF>
  </metadata>
  <g
     inkscape:label="Layer 1"
     inkscape:groupmode="layer"
     id="layer1"
     transform="translate(-1.4761329,-181.35087)">
    <path
       style="fill:#f33ef7;stroke-width:0.26458332"
       d="m 114.55409,273.59137 c -1.14616,-0.78149 -5.71396,-3.93665 -10.15065,-7.01146 l -8.066709,-5.59056 -13.761412,-0.0106 c -15.064538,-0.0116 -14.789745,0.0161 -15.610167,-1.57047 -0.321712,-0.62214 -0.400201,-1.91807 -0.400201,-6.60789 v -5.83397 H 60.214594 53.86424 l -12.904022,8.9543 c -7.097212,4.92487 -13.161413,9.09206 -13.476,9.26042 -1.299919,0.6957 -3.302589,0.15079 -4.139349,-1.12626 -0.504976,-0.77069 -0.571328,-2.47941 -0.133585,-3.44015 0.196463,-0.43119 5.227174,-4.07762 14.344437,-10.39735 l 14.04186,-9.73325 7.417538,-0.13229 7.41754,-0.1323 0.06852,-13.85311 c 0.06691,-13.52847 0.08135,-13.87114 0.61617,-14.62222 1.081492,-1.51882 1.316865,-1.55487 10.150085,-1.55487 h 8.082931 v -11.1125 -11.1125 H 46.721202 8.0920369 v 26.19375 26.19375 l 9.4588541,0.002 c 8.904244,0.002 9.504348,0.0317 10.234764,0.51322 2.158369,1.42281 1.948584,4.49908 -0.389258,5.70803 -0.633566,0.32752 -2.5859,0.39148 -11.953161,0.39148 -12.5167541,0 -12.4773568,0.005 -13.4823179,-1.8684 -0.4601175,-0.85794 -0.4834639,-2.35565 -0.4834639,-31.01509 0,-33.2496 -0.1095551,-31.1318 1.6664909,-32.21472 0.8308589,-0.50661 1.6633894,-0.5165 43.5528119,-0.51747 40.196512,-9.3e-4 42.75208,0.0262 43.494035,0.46203 0.433549,0.25467 1.010094,0.87789 1.281213,1.38494 0.461724,0.86352 0.492945,1.74746 0.492945,13.95677 v 13.03486 h 21.10464 c 19.93435,0 21.15464,0.0268 22.00612,0.48346 0.49581,0.26591 1.11903,0.88913 1.38494,1.38493 0.45747,0.85301 0.48346,2.12222 0.48346,23.60676 0,24.7293 0.0708,23.54802 -1.4856,24.77232 -0.68097,0.53565 -0.97659,0.55253 -9.67572,0.55253 -9.85015,0 -10.13148,-0.0407 -10.92691,-1.57884 -0.22074,-0.42687 -0.40135,-1.25433 -0.40135,-1.83879 0,-0.85483 0.17517,-1.23783 0.89572,-1.95838 0.49265,-0.49265 1.28144,-0.97286 1.75287,-1.06715 0.47143,-0.0943 3.64022,-0.17143 7.04177,-0.17143 h 6.18464 v -18.78541 -18.78542 h -28.575 -28.574996 v 18.78542 18.78541 l 12.236979,0.0116 c 9.304752,0.009 12.45888,0.0933 13.16302,0.35252 1.536647,0.56569 21.576107,14.64078 21.920257,15.39611 0.43406,0.95265 0.37676,2.8046 -0.1082,3.49698 -0.56163,0.80184 -1.75506,1.38027 -2.84779,1.38027 -0.66016,0 -1.47085,-0.38529 -2.98971,-1.42089 z"
       id="path86"
       inkscape:connector-curvature="0" />
  </g>
</svg>
