<?xml version="1.0" encoding="UTF-8" standalone="no"?>
<!-- Created with Inkscape (http://www.inkscape.org/) -->

<svg
   xmlns:dc="http://purl.org/dc/elements/1.1/"
   xmlns:cc="http://creativecommons.org/ns#"
   xmlns:rdf="http://www.w3.org/1999/02/22-rdf-syntax-ns#"
   xmlns:svg="http://www.w3.org/2000/svg"
   xmlns="http://www.w3.org/2000/svg"
   xmlns:sodipodi="http://sodipodi.sourceforge.net/DTD/sodipodi-0.dtd"
   xmlns:inkscape="http://www.inkscape.org/namespaces/inkscape"
   width="112.66907mm"
   height="135.39377mm"
   viewBox="0 0 112.66908 135.39376"
   version="1.1"
   id="svg8"
   inkscape:version="0.92.1 r15371"
   sodipodi:docname="obr-i-3.svg">
  <defs
     id="defs2" />
  <sodipodi:namedview
     id="base"
     pagecolor="#ffffff"
     bordercolor="#666666"
     borderopacity="1.0"
     inkscape:pageopacity="0.0"
     inkscape:pageshadow="2"
     inkscape:zoom="0.35"
     inkscape:cx="316.98737"
     inkscape:cy="500.57292"
     inkscape:document-units="mm"
     inkscape:current-layer="layer1"
     showgrid="false"
     fit-margin-top="0"
     fit-margin-left="0"
     fit-margin-right="0"
     fit-margin-bottom="0"
     inkscape:window-width="1366"
     inkscape:window-height="715"
     inkscape:window-x="-8"
     inkscape:window-y="-8"
     inkscape:window-maximized="1" />
  <metadata
     id="metadata5">
    <rdf:RDF>
      <cc:Work
         rdf:about="">
        <dc:format>image/svg+xml</dc:format>
        <dc:type
           rdf:resource="http://purl.org/dc/dcmitype/StillImage" />
        <dc:title></dc:title>
      </cc:Work>
    </rdf:RDF>
  </metadata>
  <g
     inkscape:label="Layer 1"
     inkscape:groupmode="layer"
     id="layer1"
     transform="translate(-21.963759,-145.88282)">
    <path
       style="fill:#f33ef7;stroke-width:0.26458332"
       d="m 49.208303,280.68128 c -1.976873,-0.9978 -2.362687,-2.01302 -2.367904,-6.23085 -0.0048,-3.85086 0.138783,-4.37407 1.574641,-5.73938 0.789371,-0.75059 1.349021,-0.89526 10.805393,-2.79314 l 9.972906,-2.00156 v -3.01555 -3.01554 l -2.305291,-0.46367 C 52.646035,254.55707 39.783274,245.86651 31.510687,233.5193 23.141685,221.0282 20.12532,205.87785 23.055977,191.05369 c 3.836999,-19.40874 18.499038,-35.9687 37.457626,-42.30633 15.413527,-5.15256 32.809345,-3.27862 46.536707,5.0131 17.88555,10.80338 28.313,29.87599 27.54261,50.37751 -0.41176,10.95762 -3.46047,20.42575 -9.46068,29.38133 -8.25742,12.32456 -20.51611,20.65406 -35.036817,23.80673 l -2.645834,0.57445 v 3.00793 3.00794 l 9.972906,2.00156 c 9.456375,1.89788 10.016025,2.04255 10.805395,2.79314 1.43585,1.36531 1.5794,1.88852 1.57464,5.73938 -0.005,4.21783 -0.39103,5.23305 -2.36791,6.23085 l -1.17945,0.59531 H 78.321464 50.387755 Z m 56.365247,-6.24483 v -2.6068 l -10.120315,-2.0235 -10.120312,-2.0235 h -7.011459 -7.011459 l -10.120312,2.0235 -10.120313,2.0235 v 2.6068 2.60681 h 27.252084 27.252086 z m -22.545802,-13.46663 0.07607,-2.44739 h -4.772427 -4.77243 v 2.33715 c 0,1.28544 0.08209,2.41924 0.182422,2.51957 0.10033,0.10034 2.21369,0.14995 4.696354,0.11025 l 4.513932,-0.0722 z m 2.569758,-7.10158 c 12.988674,-1.79268 25.065354,-8.70769 33.530794,-19.19946 5.91815,-7.33475 9.94372,-17.13428 11.06936,-26.94635 0.3864,-3.3682 0.18431,-10.85857 -0.37478,-13.89062 -2.08753,-11.32122 -6.90641,-20.63433 -14.71956,-28.44748 -7.84734,-7.84735 -17.436731,-12.76397 -28.712064,-14.72112 -3.686453,-0.63988 -12.453131,-0.63988 -16.139584,0 -11.275333,1.95715 -20.864722,6.87377 -28.712068,14.72112 -7.813148,7.81315 -12.632026,17.12626 -14.719559,28.44748 -0.559084,3.03205 -0.76118,10.52242 -0.37478,13.89062 2.51268,21.9027 17.830235,39.52635 39.176199,45.07429 6.337107,1.64704 13.156004,2.01281 19.976042,1.07152 z M 75.476365,226.74513 c -2.976944,-0.34628 -4.993312,-0.94798 -7.911576,-2.36087 -6.272298,-3.03677 -10.944329,-8.5317 -12.940441,-15.21968 -0.56111,-1.88 -0.734383,-3.10941 -0.840539,-5.96377 -0.158464,-4.26097 0.264303,-6.82956 1.691741,-10.27842 2.918383,-7.05118 8.646517,-12.18627 16.155046,-14.48249 2.122384,-0.64906 2.706111,-0.71109 6.690868,-0.71109 3.984757,0 4.568484,0.062 6.690868,0.71109 7.508529,2.29622 13.236663,7.43131 16.155048,14.48249 1.42744,3.44886 1.8502,6.01745 1.69174,10.27842 -0.10616,2.85436 -0.27943,4.08377 -0.84054,5.96377 -1.99611,6.68798 -6.668143,12.18291 -12.940441,15.21968 -3.038779,1.47124 -4.816766,1.9837 -8.243133,2.37586 -2.633303,0.3014 -2.638846,0.30139 -5.358641,-0.015 z m 5.585254,-4.21419 c 4.608848,-0.66627 8.408188,-2.61146 11.819012,-6.05111 4.012311,-4.04622 5.840497,-8.57123 5.83642,-14.44594 -0.0078,-11.18682 -9.128821,-20.23691 -20.395587,-20.23691 -11.266766,0 -20.387819,9.05009 -20.395587,20.23691 -0.0028,4.04803 0.553064,6.29223 2.490357,10.05417 1.368538,2.6575 4.740042,6.16277 7.454188,7.74992 4.064508,2.37681 8.75474,3.33432 13.191197,2.69296 z m -6.812606,-5.14396 c -4.057594,-1.1551 -7.792056,-4.13674 -9.798503,-7.82324 -1.503373,-2.76219 -2.127885,-7.33537 -1.451043,-10.62568 0.522877,-2.54184 2.209905,-5.62211 4.159911,-7.59538 6.274107,-6.34896 16.050065,-6.34896 22.324172,0 2.036456,2.06075 3.677735,5.12969 4.201364,7.85591 0.417171,2.17194 0.182726,5.79949 -0.51792,8.01376 -1.369176,4.32704 -5.149151,8.15325 -9.704104,9.8228 -1.987772,0.72858 -7.192304,0.92732 -9.213877,0.35183 z m 6.952279,-4.1369 c 3.566907,-0.8041 6.73431,-3.80452 7.985575,-7.56457 0.845775,-2.54155 0.661247,-5.65131 -0.480057,-8.09023 -3.454604,-7.38231 -13.055309,-9.05896 -18.557799,-3.24089 -3.835135,4.05508 -4.291372,10.02799 -1.105162,14.46833 2.824126,3.93574 7.226554,5.53897 12.157443,4.42736 z m 0.620334,-9.14432 c -0.43145,-0.17359 -1.118912,-1.49784 -1.118912,-2.15534 0,-0.86283 -1.006827,-1.8678 -2.061985,-2.05818 -1.397609,-0.25218 -1.789854,-0.50921 -2.16716,-1.42011 -0.711338,-1.71732 0.736669,-3.14678 2.806666,-2.77072 3.060679,0.55603 5.307579,2.95627 5.599853,5.98201 0.102756,1.06379 0.02408,1.33243 -0.561705,1.91823 -0.64616,0.64616 -1.643319,0.84749 -2.496757,0.50411 z m -5.314212,-33.97749 c -5.808085,-1.77214 -6.441183,-9.76958 -0.974889,-12.31502 5.237676,-2.43897 10.846208,2.56662 9.02371,8.05364 -0.510246,1.53622 -1.945396,3.15297 -3.419922,3.85268 -1.220459,0.57914 -3.430683,0.77429 -4.628899,0.4087 z m 3.421902,-4.71881 c 0.985967,-0.98597 1.016222,-2.07243 0.08842,-3.17506 -0.969629,-1.15233 -2.422917,-1.15233 -3.392546,0 -0.927801,1.10263 -0.897546,2.18909 0.08842,3.17506 0.527841,0.52784 1.038336,0.77339 1.607852,0.77339 0.569516,0 1.080011,-0.24555 1.607852,-0.77339 z"
       id="path60"
       inkscape:connector-curvature="0" />
  </g>
</svg>
