<?xml version="1.0" encoding="UTF-8" standalone="no"?>
<!-- Created with Inkscape (http://www.inkscape.org/) -->

<svg
   xmlns:dc="http://purl.org/dc/elements/1.1/"
   xmlns:cc="http://creativecommons.org/ns#"
   xmlns:rdf="http://www.w3.org/1999/02/22-rdf-syntax-ns#"
   xmlns:svg="http://www.w3.org/2000/svg"
   xmlns="http://www.w3.org/2000/svg"
   xmlns:sodipodi="http://sodipodi.sourceforge.net/DTD/sodipodi-0.dtd"
   xmlns:inkscape="http://www.inkscape.org/namespaces/inkscape"
   width="90.222916mm"
   height="135.52979mm"
   viewBox="0 0 90.222926 135.52978"
   version="1.1"
   id="svg8"
   inkscape:version="0.92.1 r15371"
   sodipodi:docname="obr-i-2.svg">
  <defs
     id="defs2" />
  <sodipodi:namedview
     id="base"
     pagecolor="#ffffff"
     bordercolor="#666666"
     borderopacity="1.0"
     inkscape:pageopacity="0.0"
     inkscape:pageshadow="2"
     inkscape:zoom="0.35"
     inkscape:cx="289.84449"
     inkscape:cy="624.40758"
     inkscape:document-units="mm"
     inkscape:current-layer="layer1"
     showgrid="false"
     fit-margin-top="0"
     fit-margin-left="0"
     fit-margin-right="0"
     fit-margin-bottom="0"
     inkscape:window-width="1366"
     inkscape:window-height="715"
     inkscape:window-x="-8"
     inkscape:window-y="-8"
     inkscape:window-maximized="1" />
  <metadata
     id="metadata5">
    <rdf:RDF>
      <cc:Work
         rdf:about="">
        <dc:format>image/svg+xml</dc:format>
        <dc:type
           rdf:resource="http://purl.org/dc/dcmitype/StillImage" />
        <dc:title></dc:title>
      </cc:Work>
    </rdf:RDF>
  </metadata>
  <g
     inkscape:label="Layer 1"
     inkscape:groupmode="layer"
     id="layer1"
     transform="translate(-29.145311,-268.78815)">
    <path
       style="fill:#f33ef7;stroke-width:0.26458332"
       d="m 33.767417,403.88255 c -1.571621,-0.48448 -3.143524,-1.85776 -3.962861,-3.46212 l -0.659245,-1.29087 v -57.94375 -57.94375 l 0.553465,-1.19062 c 0.785877,-1.6906 1.711218,-2.69014 3.189348,-3.4451 l 1.28427,-0.65595 14.750521,-0.0766 c 8.112787,-0.0421 14.750522,-0.12445 14.750522,-0.18292 0,-0.0585 -0.654844,-1.4406 -1.455209,-3.07139 -1.696749,-3.45724 -1.783736,-4.15081 -0.641156,-5.11222 1.836356,-1.5452 2.726904,-0.81544 5.264319,4.31379 l 1.977327,3.99706 h 5.570945 5.570945 l 3.141816,-4.20936 c 3.728805,-4.99581 4.534559,-5.5415 6.141469,-4.1593 1.300871,1.11896 1.053875,2.05008 -1.421935,5.36032 l -2.151062,2.87605 14.335124,0.13229 14.33512,0.13229 1.28427,0.65595 c 1.47813,0.75496 2.40347,1.7545 3.18935,3.4451 l 0.55347,1.19062 v 57.94375 57.94375 l -0.65925,1.29087 c -0.84308,1.65084 -2.40109,2.98091 -4.07357,3.47759 -1.91854,0.56974 -79.017434,0.55499 -80.867993,-0.0155 z m 79.775553,-4.35444 c 1.46837,-0.55827 1.46974,-0.57696 1.39544,-18.98173 l -0.0681,-16.87099 H 74.25677 33.643227 l -0.06811,16.87099 c -0.0736,18.23183 -0.06085,18.41604 1.313121,18.96746 0.856441,0.34371 77.751522,0.35767 78.654732,0.0143 z m -61.126352,-7.2657 c -0.891264,-0.89126 -0.876859,-2.21966 0.03334,-3.07476 0.594563,-0.55856 0.933636,-0.64143 2.624517,-0.64143 1.690881,0 2.029955,0.0829 2.624519,0.64143 0.910201,0.8551 0.924605,2.1835 0.03334,3.07476 -0.575448,0.57545 -0.878232,0.64944 -2.657859,0.64944 -1.779627,0 -2.082411,-0.074 -2.65786,-0.64944 z m 11.3266,0.0541 c -0.641794,-0.69262 -0.783667,-1.35869 -0.510921,-2.39868 0.278786,-1.06303 1.525254,-1.50392 4.251875,-1.50392 3.372361,0 4.366697,0.55087 4.382935,2.42819 0.0064,0.7419 -0.157158,1.10323 -0.688727,1.52136 -0.614984,0.48374 -1.061664,0.54837 -3.790336,0.54837 -2.86793,0 -3.133373,-0.0434 -3.644826,-0.59532 z m 13.591943,0.047 c -0.531048,-0.41772 -0.69714,-0.78406 -0.69714,-1.53761 0,-1.82061 1.529593,-2.66622 4.187261,-2.31487 2.212404,0.2925 3.142848,2.22859 1.778498,3.70075 -0.589201,0.63576 -0.829067,0.7001 -2.610152,0.7001 -1.583592,0 -2.095593,-0.10561 -2.658467,-0.54837 z m 11.294658,-0.047 c -0.798711,-0.88732 -0.914612,-1.45383 -0.500301,-2.44542 0.496874,-1.18918 1.70202,-1.54213 4.845537,-1.41908 2.11119,0.0826 2.49018,0.17289 3.08887,0.73562 0.90983,0.85518 0.92409,2.18368 0.033,3.07476 -0.61658,0.61658 -0.80833,0.64944 -3.79034,0.64944 -2.922074,0 -3.178241,-0.0415 -3.676766,-0.59532 z m -36.213201,-9.04995 c -1.158976,-1.15897 -0.760468,-2.98841 0.778418,-3.5735 0.999676,-0.38007 41.123793,-0.38007 42.123469,0 1.53889,0.58509 1.93739,2.41453 0.77842,3.5735 l -0.64943,0.64943 H 74.25677 53.06605 Z m 9.537027,-8.66597 c -0.813165,-0.46635 -1.173795,-1.05912 -1.173795,-1.92939 0,-0.89495 0.374409,-1.48943 1.222547,-1.94115 0.819275,-0.43635 23.689472,-0.43635 24.508747,0 0.848138,0.45172 1.222547,1.0462 1.222547,1.94115 0,0.89495 -0.374409,1.48944 -1.222547,1.94116 -0.811893,0.43242 -23.802193,0.4214 -24.557499,-0.0118 z M 52.792738,357.1795 c 1.27355,-2.64084 2.507096,-3.61292 7.904136,-6.22874 4.950476,-2.39939 5.313773,-2.7586 3.679873,-3.63851 -2.232152,-1.2021 -5.224412,-4.94901 -6.293268,-7.88045 -0.358074,-0.98205 -0.809858,-1.69256 -1.255065,-1.9738 -0.872887,-0.5514 -1.481327,-1.27208 -2.213836,-2.62221 -0.484363,-0.89276 -0.574935,-1.49296 -0.578937,-3.83646 -0.0053,-3.07959 0.275286,-4.02512 1.663346,-5.60604 0.590024,-0.672 0.932704,-1.45298 1.210538,-2.75888 0.421786,-1.98249 1.097944,-4.01856 1.992053,-5.99853 0.560692,-1.24162 0.563812,-1.3178 0.158367,-3.86803 -0.55861,-3.51362 -0.544338,-3.65111 0.485992,-4.68144 1.392674,-1.39267 2.4522,-1.2207 4.609145,0.7481 0.628708,0.57386 1.938395,1.41741 2.910416,1.87455 1.727703,0.81254 1.879982,0.83511 6.794397,1.00675 7.430522,0.25953 10.517247,1.20979 13.748547,4.2325 1.908853,1.78564 3.339066,4.25596 3.919792,6.77041 0.258082,1.11745 0.655164,1.95573 1.244187,2.62659 1.432476,1.6315 1.710772,2.55411 1.705478,5.65402 -0.004,2.3435 -0.09457,2.9437 -0.578937,3.83646 -0.732507,1.35013 -1.340948,2.07081 -2.213835,2.62221 -0.445207,0.28124 -0.896991,0.99175 -1.255065,1.9738 -1.068856,2.93144 -4.061116,6.67835 -6.293268,7.88045 -1.581044,0.85144 -1.238205,1.19943 3.649948,3.70477 5.257544,2.69467 6.713983,3.85651 7.929513,6.3256 l 0.83816,1.70254 h 9.224095 9.22409 v -37.13447 c 0,-26.49542 -0.084,-37.3755 -0.29327,-37.97575 -0.58672,-1.68307 0.31278,-1.61894 -22.708897,-1.61894 H 71.088647 l 0.566065,1.16513 0.566066,1.16513 2.142474,0.0971 c 3.708683,0.16809 6.557426,2.00906 8.056454,5.20641 0.938623,2.00203 0.996882,5.33706 0.126286,7.22937 -1.774894,3.85791 -5.974379,6.0874 -9.942867,5.27864 -2.055374,-0.41887 -3.471133,-1.22597 -4.933588,-2.81255 -1.75142,-1.90006 -2.276832,-3.28126 -2.264217,-5.95215 0.01196,-2.53322 0.513548,-3.98671 1.934094,-5.60462 0.457567,-0.52114 0.83194,-1.08328 0.83194,-1.2492 0,-0.16592 -0.477579,-1.25153 -1.061286,-2.41247 L 66.048781,282.316 H 50.825053 c -16.772632,0 -16.44564,-0.0311 -17.020849,1.61894 -0.209247,0.60025 -0.293268,11.48033 -0.293268,37.97575 v 37.13447 l 9.194271,-0.007 9.194271,-0.007 0.89326,-1.85227 z m 38.66195,1.65058 c 0,-0.60192 -1.93166,-1.85418 -6.482292,-4.20235 -4.804902,-2.47938 -5.053394,-2.6462 -5.622396,-3.77457 -0.482423,-0.95667 -0.595313,-1.62074 -0.595313,-3.50192 v -2.32138 l 1.630106,-0.82287 c 3.233561,-1.6323 5.650339,-4.75547 6.586218,-8.51131 0.172241,-0.69122 0.429863,-1.25677 0.572497,-1.25677 0.651254,0 2.014596,-0.8825 2.287019,-1.4804 0.165685,-0.36364 0.301244,-1.38564 0.301244,-2.27112 0,-1.50332 -0.06258,-1.66898 -0.94488,-2.50109 -0.519684,-0.49013 -1.038019,-0.89114 -1.15185,-0.89114 -0.113835,0 -0.344387,-0.83209 -0.512342,-1.84909 -1.086303,-6.57782 -5.127517,-9.24043 -14.059679,-9.26341 -3.789936,-0.01 -6.227368,-0.3928 -8.202083,-1.28899 l -1.190625,-0.54034 -0.169794,1.2454 c -0.09338,0.68497 -0.433808,1.84071 -0.756494,2.56831 -1.051899,2.37186 -1.821855,4.87744 -2.142522,6.97218 -0.290547,1.89798 -0.383172,2.09992 -1.212527,2.64357 -0.493871,0.32374 -1.012531,0.89 -1.152575,1.25835 -0.347139,0.91304 -0.32099,3.11056 0.04661,3.91737 0.272423,0.5979 1.635765,1.4804 2.287019,1.4804 0.142634,0 0.400256,0.56555 0.572497,1.25677 0.935879,3.75584 3.352657,6.87901 6.586218,8.51131 l 1.630106,0.82287 v 2.33583 c 0,1.91591 -0.108641,2.54546 -0.604325,3.50192 -0.578477,1.11622 -0.829505,1.27926 -5.869133,3.81193 -3.913089,1.96652 -5.430938,2.8666 -5.911876,3.50573 l -0.647068,0.85989 h 17.364118 c 9.550265,0 17.364118,-0.0968 17.364118,-0.21508 z m -15.53164,-60.99654 c 1.162092,-0.48556 2.502696,-2.07313 2.717498,-3.21812 0.369419,-1.96917 -0.594662,-4.03787 -2.28323,-4.89931 -1.8146,-0.92574 -1.948595,-0.7314 -0.913246,1.32453 0.511151,1.01502 0.929367,2.22773 0.929367,2.69493 0,1.19886 -0.893254,2.07418 -2.116667,2.07418 -1.183745,0 -1.738079,-0.55181 -2.923741,-2.91042 l -0.864534,-1.71979 -0.342886,0.79375 c -1.536042,3.55578 2.221738,7.35427 5.797439,5.86025 z"
       id="path73"
       inkscape:connector-curvature="0" />
  </g>
</svg>
