<?xml version="1.0" encoding="UTF-8" standalone="no"?>
<!-- Created with Inkscape (http://www.inkscape.org/) -->

<svg
   xmlns:dc="http://purl.org/dc/elements/1.1/"
   xmlns:cc="http://creativecommons.org/ns#"
   xmlns:rdf="http://www.w3.org/1999/02/22-rdf-syntax-ns#"
   xmlns:svg="http://www.w3.org/2000/svg"
   xmlns="http://www.w3.org/2000/svg"
   xmlns:sodipodi="http://sodipodi.sourceforge.net/DTD/sodipodi-0.dtd"
   xmlns:inkscape="http://www.inkscape.org/namespaces/inkscape"
   width="130.63055mm"
   height="135.31088mm"
   viewBox="0 0 130.63056 135.31088"
   version="1.1"
   id="svg8"
   inkscape:version="0.92.1 r15371"
   sodipodi:docname="search.svg">
  <defs
     id="defs2" />
  <sodipodi:namedview
     id="base"
     pagecolor="#ffffff"
     bordercolor="#666666"
     borderopacity="1.0"
     inkscape:pageopacity="0.0"
     inkscape:pageshadow="2"
     inkscape:zoom="0.35"
     inkscape:cx="310.81191"
     inkscape:cy="682.79683"
     inkscape:document-units="mm"
     inkscape:current-layer="layer1"
     showgrid="false"
     fit-margin-top="0"
     fit-margin-left="0"
     fit-margin-right="0"
     fit-margin-bottom="0"
     inkscape:window-width="1366"
     inkscape:window-height="715"
     inkscape:window-x="-8"
     inkscape:window-y="-8"
     inkscape:window-maximized="1" />
  <metadata
     id="metadata5">
    <rdf:RDF>
      <cc:Work
         rdf:about="">
        <dc:format>image/svg+xml</dc:format>
        <dc:type
           rdf:resource="http://purl.org/dc/dcmitype/StillImage" />
        <dc:title></dc:title>
      </cc:Work>
    </rdf:RDF>
  </metadata>
  <g
     inkscape:label="Layer 1"
     inkscape:groupmode="layer"
     id="layer1"
     transform="translate(-23.597684,-194.17912)">
    <path
       style="fill:#000000;stroke-width:0.26458332"
       d="m 145.13,329.21783 c -0.58208,-0.19188 -1.32153,-0.49039 -1.64321,-0.66337 -0.32169,-0.17297 -8.09162,-8.10602 -17.26653,-17.62898 l -16.68164,-17.31449 -2.31264,1.46384 c -5.94483,3.7629 -12.644573,6.32414 -20.039733,7.66099 -3.193563,0.5773 -11.440654,0.79475 -14.966822,0.39462 -12.354768,-1.40196 -23.781979,-6.92802 -32.636639,-15.78269 -10.815239,-10.81523 -16.542066,-25.39675 -15.94233,-40.592 0.310539,-7.86801 1.793234,-13.97162 5.159034,-21.23749 4.318276,-9.32201 12.32609,-18.13663 21.517069,-23.68494 13.259815,-8.00456 29.993374,-9.85716 44.807188,-4.96067 14.165123,4.68206 25.390313,14.44738 32.112923,27.93651 9.17075,18.4014 6.92209,40.98039 -5.69924,57.22671 -1.20356,1.54923 -1.35899,1.87594 -1.07775,2.26524 0.18076,0.25021 7.4724,7.86761 16.20365,16.92757 9.646,10.00913 16.17277,16.98841 16.63389,17.78711 1.95694,3.3896 0.72635,7.71456 -2.73036,9.59594 -1.61962,0.88151 -3.8478,1.1299 -5.43686,0.6061 z M 85.201873,288.60104 c 7.796161,-1.37517 15.454847,-5.31518 21.100987,-10.85539 8.03996,-7.88912 12.24154,-17.85319 12.23083,-29.00552 -0.009,-9.33958 -2.82857,-17.49643 -8.59719,-24.87084 -9.67022,-12.36208 -25.523501,-17.91665 -41.006502,-14.3676 -8.727852,2.00062 -17.424513,7.65745 -22.901927,14.89677 -4.04013,5.33971 -6.709688,11.71717 -7.808058,18.65312 -0.869876,5.49307 -0.192886,13.0829 1.652002,18.52084 5.392435,15.89458 20.163388,26.99016 36.7309,27.59135 2.041601,0.0741 6.727065,-0.23254 8.598958,-0.56273 z"
       id="path34"
       inkscape:connector-curvature="0" />
  </g>
</svg>
