<?xml version="1.0" encoding="UTF-8" standalone="no"?>
<svg
   xmlns:dc="http://purl.org/dc/elements/1.1/"
   xmlns:cc="http://creativecommons.org/ns#"
   xmlns:rdf="http://www.w3.org/1999/02/22-rdf-syntax-ns#"
   xmlns:svg="http://www.w3.org/2000/svg"
   xmlns="http://www.w3.org/2000/svg"
   id="svg8"
   version="1.1"
   viewBox="0 0 135.30489 135.35034"
   height="135.35034mm"
   width="135.30489mm">
  <defs
     id="defs2" />
  <metadata
     id="metadata5">
    <rdf:RDF>
      <cc:Work
         rdf:about="">
        <dc:format>image/svg+xml</dc:format>
        <dc:type
           rdf:resource="http://purl.org/dc/dcmitype/StillImage" />
        <dc:title></dc:title>
      </cc:Work>
    </rdf:RDF>
  </metadata>
  <g
     transform="translate(-22.382229,-152.94499)"
     id="layer1">
    <path
       id="path21"
       d="m 128.05833,288.21996 c -2.1446,-0.19214 -6.16939,-0.91308 -8.73125,-1.56396 C 103.95161,282.74958 86.3963,272.56221 69.453125,257.71407 65.37094,254.13665 56.470495,245.2362 52.893077,241.15402 36.33591,222.26068 25.899509,203.17984 22.864554,186.25298 c -0.684777,-3.81921 -0.632114,-10.35044 0.105207,-13.04765 0.989689,-3.62041 1.862803,-4.89771 6.776003,-9.91275 6.367931,-6.49993 9.532297,-8.76202 13.774736,-9.84705 2.452301,-0.62719 3.858688,-0.65702 6.326636,-0.13417 5.516736,1.16874 11.490186,6.42212 17.182678,15.11139 3.41331,5.21022 4.898178,8.96486 5.13039,12.97271 0.274418,4.73626 -1.312643,7.94701 -6.700173,13.55498 -1.905159,1.98312 -3.6018,3.86573 -3.770313,4.18358 -0.926425,1.74747 0.177038,5.64902 2.766536,9.78172 3.418922,5.45643 7.673967,10.53769 15.445496,18.44459 8.20928,8.35229 14.2932,13.71933 19.79742,17.46469 5.06371,3.4456 7.92589,4.60324 10.97437,4.43869 0.5654,-0.0305 1.66227,-0.92625 4.66579,-3.81021 4.2557,-4.08629 6.46491,-5.61903 9.41012,-6.52871 5.58213,-1.72414 12.39264,0.64998 21.42113,7.46732 2.60634,1.96803 6.15186,5.35863 7.71463,7.37756 2.3148,2.99045 3.78934,6.85107 3.80186,9.95399 0.007,1.76742 -0.7686,4.77291 -1.72299,6.67553 -1.44984,2.8903 -3.79302,5.72999 -8.61694,10.44281 -5.07165,4.95484 -6.37661,5.84241 -9.94533,6.76428 -2.04827,0.52911 -6.80237,0.84136 -9.34348,0.61368 z m 6.55891,-4.70856 c 3.89965,-0.58558 4.75038,-1.13065 10.12504,-6.48722 6.5913,-6.56912 8.29094,-9.34547 8.27236,-13.51287 -0.004,-0.94589 -0.19064,-2.22813 -0.41428,-2.84943 -1.42157,-3.9494 -5.74675,-8.49109 -12.3712,-12.99048 -5.94028,-4.0347 -10.07419,-5.36532 -13.74617,-4.4246 -2.51494,0.6443 -4.35708,1.92155 -8.46777,5.87115 -4.38433,4.21252 -5.24052,4.69821 -8.21055,4.6576 -6.26514,-0.0857 -15.04594,-5.70896 -27.4008,-17.54764 -20.084113,-19.24501 -28.116333,-31.71353 -24.989112,-38.79092 0.299797,-0.67849 1.904021,-2.58614 4.074438,-4.84507 1.968968,-2.04928 3.998767,-4.41541 4.510661,-5.25808 1.892141,-3.1148 2.127306,-6.10321 0.775237,-9.85147 -1.516004,-4.20271 -5.920271,-10.62869 -10.128143,-14.77731 -3.788611,-3.73526 -6.372527,-5.10139 -9.683409,-5.11969 -4.052826,-0.0224 -6.865741,1.71362 -13.378024,8.25638 -5.295333,5.32011 -5.832022,6.15311 -6.514293,10.11078 -0.765744,4.44188 0.110041,10.97652 2.441472,18.21697 7.531567,23.38989 29.097478,50.77847 55.021673,69.87721 14.7288,10.85092 31.08235,18.28945 42.99374,19.55601 3.06539,0.32595 4.42718,0.30841 7.08913,-0.0913 z"
       style="fill:#000000;stroke-width:0.26458332" />
  </g>
</svg>
