<?xml version="1.0" encoding="iso-8859-1"?>
<!-- Generator: Adobe Illustrator 19.0.0, SVG Export Plug-In . SVG Version: 6.00 Build 0)  -->
<svg version="1.1" id="Capa_1" xmlns="http://www.w3.org/2000/svg" xmlns:xlink="http://www.w3.org/1999/xlink" x="0px" y="0px"
	 viewBox="0 0 512 512" style="enable-background:new 0 0 512 512;" xml:space="preserve">
<g>
	<g>
		<path d="M496.997,220.797c8.286,0,15.003-6.717,15.003-15.003c0-8.286-6.717-15.003-15.003-15.003h-45.509v-21.213h45.509
			c8.286,0,15.003-6.717,15.003-15.003s-6.717-15.003-15.003-15.003h-45.689c-2.594-41.933-35.999-75.639-77.801-78.719V15.087
			c0-8.286-6.717-15.003-15.003-15.003S343.5,6.801,343.5,15.087v45.509h-17.864V15.087c0-8.286-6.717-15.003-15.003-15.003
			s-15.003,6.717-15.003,15.003v45.509h-21.212V15.087c0-8.286-6.717-15.003-15.003-15.003s-15.003,6.717-15.003,15.003v45.509
			h-22.493V15.087c0-8.286-6.717-15.003-15.003-15.003s-15.003,6.717-15.003,15.003v45.509h-21.212V15.087
			c0-8.286-6.717-15.003-15.003-15.003s-15.003,6.717-15.003,15.003v45.617c-42.65,2.132-77.024,36.142-79.771,78.63h-45.92
			C6.717,139.335,0,146.052,0,154.338s6.717,15.003,15.003,15.003h45.72v17.864h-45.72C6.717,187.204,0,193.922,0,202.207
			s6.717,15.003,15.003,15.003h45.72v21.212h-45.72C6.717,238.423,0,245.14,0,253.426s6.717,15.003,15.003,15.003h45.72v22.493
			h-45.72C6.717,290.922,0,297.639,0,305.925s6.717,15.003,15.003,15.003h45.72v21.212h-45.72C6.717,342.14,0,348.858,0,357.143
			s6.717,15.003,15.003,15.003h45.882c2.479,42.012,35.886,75.819,77.722,78.95v45.816c0,8.286,6.717,15.003,15.003,15.003
			s15.003-6.717,15.003-15.003V451.36h17.865v45.553c0,8.286,6.717,15.003,15.003,15.003s15.003-6.717,15.003-15.003V451.36h21.212
			v45.553c0,8.286,6.717,15.003,15.003,15.003c8.287,0,15.003-6.717,15.003-15.003V451.36h22.492v45.553
			c0,8.286,6.717,15.003,15.003,15.003s15.003-6.717,15.003-15.003V451.36h21.213v45.553c0,8.286,6.717,15.003,15.003,15.003
			s15.003-6.717,15.003-15.003v-45.658c42.774-2.09,77.25-36.239,79.886-78.87h45.689c8.286,0,15.003-6.717,15.003-15.003
			c0-8.286-6.717-15.003-15.003-15.003h-45.509v-17.864h45.509c8.286,0,15.003-6.717,15.003-15.003s-6.717-15.003-15.003-15.003
			h-45.509v-21.213h45.509c8.286,0,15.003-6.717,15.003-15.003s-6.717-15.003-15.003-15.003h-45.509v-22.492H496.997z
			 M364.334,346.541c0,10.343-8.414,18.757-18.757,18.757H164.452v-0.001c-10.343,0-18.757-8.414-18.757-18.757V165.416
			c0-10.343,8.415-18.757,18.757-18.757h181.125c10.343,0,18.757,8.414,18.757,18.757V346.541z"/>
	</g>
</g>
<g>
	<g>
		<path d="M324.772,176.665H185.258c-5.278,0-9.557,4.279-9.557,9.557v139.513c0,5.278,4.279,9.557,9.557,9.557h139.514
			c5.278,0,9.557-4.279,9.557-9.557V186.221C334.328,180.943,330.049,176.665,324.772,176.665z M239.303,206.143
			c0.05-0.48,0.12-0.971,0.22-1.45c0.09-0.48,0.21-0.96,0.36-1.43c0.14-0.461,0.3-0.931,0.49-1.381c0.19-0.449,0.4-0.899,0.63-1.33
			c0.23-0.43,0.48-0.85,0.75-1.26s0.57-0.81,0.87-1.18c0.32-0.39,0.65-0.75,0.99-1.1c0.35-0.351,0.72-0.681,1.1-0.99
			c0.38-0.311,0.78-0.601,1.19-0.87c0.4-0.271,0.83-0.53,1.26-0.76c0.43-0.23,0.87-0.44,1.32-0.62c0.46-0.19,0.92-0.36,1.39-0.5
			c0.46-0.141,0.94-0.26,1.42-0.36c0.48-0.1,0.97-0.17,1.46-0.22c4.431-0.45,8.942,1.18,12.083,4.321
			c0.341,0.35,0.681,0.71,0.99,1.1c0.311,0.37,0.601,0.77,0.87,1.18c0.271,0.41,0.53,0.83,0.76,1.26
			c0.221,0.431,0.44,0.881,0.62,1.33c0.19,0.45,0.36,0.92,0.5,1.381c0.141,0.47,0.26,0.949,0.36,1.43c0.1,0.479,0.17,0.97,0.22,1.45
			c0.05,0.489,0.07,0.989,0.07,1.479c0.001,3.952-1.599,7.813-4.39,10.603c-0.35,0.35-0.72,0.68-1.1,0.989
			c-0.38,0.311-0.77,0.61-1.18,0.88c-0.41,0.271-0.83,0.521-1.26,0.75c-0.431,0.23-0.881,0.44-1.33,0.631
			c-0.45,0.189-0.92,0.35-1.381,0.489c-0.47,0.15-0.949,0.271-1.43,0.36c-0.48,0.1-0.97,0.18-1.45,0.22
			c-0.49,0.05-0.99,0.08-1.48,0.08s-0.98-0.03-1.47-0.08c-0.49-0.04-0.98-0.12-1.46-0.22c-0.48-0.09-0.96-0.21-1.42-0.36
			c-0.47-0.14-0.93-0.3-1.39-0.489c-0.45-0.19-0.89-0.4-1.32-0.631c-0.43-0.229-0.86-0.479-1.26-0.75
			c-0.41-0.27-0.81-0.569-1.19-0.88c-0.38-0.31-0.75-0.64-1.1-0.989c-2.791-2.791-4.391-6.651-4.391-10.603
			C239.223,207.133,239.253,206.632,239.303,206.143z M239.303,255.154c0.04-0.48,0.12-0.971,0.22-1.45
			c0.09-0.48,0.21-0.96,0.36-1.43c0.14-0.461,0.3-0.931,0.49-1.381c0.19-0.449,0.4-0.899,0.63-1.33c0.23-0.43,0.48-0.85,0.75-1.26
			c0.27-0.41,0.57-0.81,0.87-1.18c0.32-0.38,0.65-0.75,0.99-1.1c0.35-0.351,0.72-0.681,1.1-0.99c0.38-0.311,0.78-0.601,1.19-0.87
			c0.4-0.271,0.83-0.53,1.26-0.76c0.43-0.23,0.87-0.44,1.32-0.62c0.46-0.19,0.92-0.36,1.39-0.5c0.46-0.141,0.94-0.26,1.42-0.36
			s0.97-0.17,1.46-0.22c4.431-0.45,8.942,1.18,12.083,4.321c0.341,0.35,0.681,0.72,0.99,1.1c0.311,0.37,0.601,0.77,0.87,1.18
			c0.271,0.41,0.53,0.83,0.76,1.26c0.221,0.431,0.44,0.881,0.62,1.33c0.19,0.45,0.36,0.92,0.5,1.381
			c0.141,0.47,0.26,0.949,0.36,1.43c0.09,0.479,0.17,0.97,0.22,1.45c0.05,0.489,0.07,0.989,0.07,1.479c0,0.49-0.019,0.98-0.069,1.47
			s-0.13,0.98-0.22,1.46c-0.101,0.48-0.22,0.95-0.36,1.421c-0.14,0.47-0.31,0.93-0.5,1.38c-0.18,0.46-0.399,0.899-0.62,1.33
			c-0.229,0.43-0.489,0.859-0.76,1.26c-0.27,0.41-0.56,0.81-0.87,1.189c-0.31,0.381-0.649,0.75-0.99,1.091
			c-0.35,0.35-0.72,0.68-1.1,0.989c-0.38,0.311-0.77,0.61-1.18,0.88c-0.41,0.271-0.83,0.521-1.26,0.75
			c-0.431,0.23-0.881,0.44-1.33,0.631c-0.45,0.18-0.92,0.35-1.381,0.489c-0.47,0.15-0.949,0.271-1.43,0.36
			c-0.48,0.1-0.97,0.17-1.45,0.22c-0.49,0.05-0.99,0.08-1.48,0.08s-0.98-0.03-1.47-0.08c-0.49-0.05-0.98-0.12-1.46-0.22
			c-0.48-0.09-0.96-0.21-1.42-0.36c-0.47-0.14-0.93-0.31-1.39-0.489c-0.45-0.19-0.89-0.4-1.32-0.631
			c-0.43-0.229-0.86-0.479-1.26-0.75c-0.41-0.27-0.81-0.569-1.19-0.88c-0.38-0.31-0.75-0.64-1.1-0.989
			c-0.34-0.341-0.67-0.71-0.99-1.091c-0.3-0.38-0.6-0.779-0.87-1.189c-0.27-0.4-0.52-0.83-0.75-1.26
			c-0.23-0.431-0.44-0.87-0.63-1.33c-0.19-0.45-0.35-0.91-0.49-1.38c-0.15-0.471-0.27-0.94-0.36-1.421
			c-0.1-0.479-0.18-0.97-0.22-1.46c-0.05-0.489-0.08-0.979-0.08-1.47C239.223,256.143,239.253,255.643,239.303,255.154z
			 M219.83,317.246c-0.35,0.35-0.72,0.68-1.1,0.989c-0.37,0.311-0.77,0.61-1.18,0.88c-0.41,0.271-0.83,0.521-1.26,0.75
			c-0.43,0.23-0.88,0.44-1.33,0.631c-0.45,0.18-0.92,0.35-1.38,0.489c-0.47,0.15-0.95,0.271-1.43,0.36
			c-0.48,0.1-0.97,0.17-1.45,0.22c-0.49,0.05-0.99,0.08-1.48,0.08c-0.49,0-0.98-0.03-1.47-0.08s-0.98-0.12-1.46-0.22
			c-0.48-0.09-0.96-0.21-1.42-0.36c-0.47-0.14-0.94-0.31-1.39-0.489c-0.45-0.19-0.89-0.4-1.32-0.631
			c-0.43-0.229-0.86-0.479-1.27-0.75c-0.4-0.27-0.8-0.569-1.18-0.88c-0.38-0.31-0.75-0.64-1.1-0.989
			c-0.34-0.341-0.67-0.71-0.99-1.091c-0.3-0.38-0.6-0.779-0.87-1.189c-0.27-0.4-0.52-0.83-0.75-1.26
			c-0.23-0.431-0.44-0.87-0.63-1.33c-0.19-0.45-0.35-0.91-0.49-1.38c-0.15-0.471-0.27-0.94-0.36-1.421
			c-0.1-0.479-0.18-0.97-0.22-1.46c-0.05-0.489-0.08-0.979-0.08-1.47c0-0.491,0.03-0.99,0.08-1.479c0.04-0.48,0.12-0.971,0.22-1.45
			c0.09-0.48,0.21-0.96,0.36-1.43c0.14-0.461,0.3-0.931,0.49-1.381c0.19-0.449,0.4-0.899,0.63-1.33c0.23-0.43,0.48-0.85,0.75-1.26
			c0.27-0.41,0.57-0.81,0.87-1.18c0.32-0.38,0.65-0.75,0.99-1.1c0.35-0.341,0.72-0.681,1.1-0.99c0.38-0.311,0.78-0.601,1.18-0.87
			c0.41-0.271,0.84-0.53,1.27-0.76c0.43-0.221,0.87-0.44,1.32-0.62c0.45-0.19,0.92-0.36,1.39-0.5c0.46-0.141,0.94-0.26,1.42-0.36
			c0.48-0.1,0.97-0.17,1.46-0.22c0.98-0.101,1.97-0.101,2.951,0c0.48,0.05,0.97,0.12,1.45,0.22c0.48,0.101,0.96,0.22,1.43,0.36
			c0.46,0.14,0.93,0.31,1.38,0.5c0.45,0.18,0.9,0.399,1.33,0.62c0.43,0.229,0.85,0.489,1.26,0.76c0.41,0.27,0.81,0.56,1.18,0.87
			c0.38,0.31,0.75,0.649,1.1,0.99c0.35,0.35,0.68,0.72,0.99,1.1c0.31,0.37,0.6,0.77,0.87,1.18c0.27,0.41,0.53,0.83,0.76,1.26
			c0.23,0.431,0.44,0.881,0.62,1.33c0.19,0.45,0.36,0.92,0.5,1.381c0.14,0.47,0.26,0.949,0.36,1.43c0.1,0.479,0.17,0.97,0.22,1.45
			c0.05,0.489,0.07,0.989,0.07,1.479C224.221,310.595,222.621,314.456,219.83,317.246z M224.151,258.104
			c-0.05,0.49-0.13,0.98-0.22,1.46c-0.1,0.48-0.22,0.95-0.36,1.421c-0.14,0.47-0.31,0.93-0.5,1.38c-0.18,0.46-0.4,0.899-0.62,1.33
			c-0.23,0.43-0.49,0.859-0.76,1.26c-0.27,0.41-0.56,0.81-0.87,1.189c-0.31,0.381-0.65,0.75-0.99,1.091
			c-0.35,0.35-0.72,0.68-1.1,0.989c-0.38,0.311-0.77,0.61-1.18,0.88c-0.41,0.271-0.83,0.521-1.26,0.75
			c-0.43,0.23-0.88,0.44-1.33,0.631c-0.45,0.18-0.92,0.35-1.38,0.489c-0.47,0.15-0.95,0.271-1.43,0.36
			c-0.48,0.1-0.97,0.17-1.45,0.22c-0.49,0.05-0.99,0.08-1.48,0.08c-0.49,0-0.98-0.03-1.47-0.08s-0.98-0.12-1.46-0.22
			c-0.48-0.09-0.96-0.21-1.42-0.36c-0.47-0.14-0.93-0.31-1.39-0.489c-0.45-0.19-0.89-0.4-1.32-0.631
			c-0.43-0.229-0.86-0.479-1.26-0.75c-0.41-0.27-0.81-0.569-1.19-0.88c-0.38-0.31-0.75-0.64-1.09-0.989
			c-0.35-0.341-0.68-0.71-1-1.091c-0.3-0.38-0.6-0.779-0.87-1.189c-0.27-0.4-0.52-0.83-0.75-1.26c-0.23-0.431-0.44-0.87-0.63-1.33
			c-0.19-0.45-0.35-0.91-0.49-1.38c-0.15-0.471-0.27-0.94-0.36-1.421c-0.1-0.479-0.18-0.97-0.22-1.46
			c-0.05-0.489-0.08-0.979-0.08-1.47c0-0.491,0.03-0.99,0.08-1.479c0.04-0.48,0.12-0.971,0.22-1.45c0.09-0.48,0.21-0.96,0.36-1.43
			c0.14-0.461,0.3-0.931,0.49-1.381c0.19-0.449,0.4-0.899,0.63-1.33c0.23-0.43,0.48-0.85,0.75-1.26c0.27-0.41,0.57-0.81,0.87-1.18
			c0.32-0.38,0.65-0.75,1-1.1c0.34-0.351,0.71-0.681,1.09-0.99c0.38-0.311,0.78-0.601,1.19-0.87c0.4-0.271,0.83-0.53,1.26-0.76
			c0.43-0.23,0.87-0.44,1.32-0.62c0.46-0.19,0.92-0.36,1.39-0.5c0.46-0.141,0.94-0.26,1.42-0.36c0.48-0.1,0.97-0.17,1.46-0.22
			c4.431-0.45,8.942,1.18,12.083,4.321c0.34,0.35,0.68,0.72,0.99,1.1c0.31,0.37,0.6,0.77,0.87,1.18c0.27,0.41,0.53,0.83,0.76,1.26
			c0.22,0.431,0.44,0.881,0.62,1.33c0.19,0.45,0.36,0.92,0.5,1.381c0.14,0.47,0.26,0.949,0.36,1.43c0.09,0.479,0.17,0.97,0.22,1.45
			c0.05,0.489,0.07,0.989,0.07,1.479C224.221,257.124,224.201,257.614,224.151,258.104z M219.83,218.226
			c-0.35,0.35-0.72,0.68-1.1,0.989c-0.38,0.311-0.77,0.61-1.18,0.88c-0.41,0.271-0.83,0.521-1.26,0.75
			c-0.43,0.23-0.88,0.44-1.33,0.631c-0.45,0.189-0.92,0.35-1.38,0.489c-0.47,0.15-0.95,0.271-1.43,0.36
			c-0.48,0.1-0.97,0.18-1.45,0.22c-0.49,0.05-0.99,0.08-1.48,0.08c-0.49,0-0.98-0.03-1.47-0.08c-0.49-0.04-0.98-0.12-1.46-0.22
			c-0.48-0.09-0.96-0.21-1.42-0.36c-0.47-0.14-0.93-0.3-1.38-0.489c-0.46-0.19-0.9-0.4-1.33-0.631c-0.43-0.229-0.86-0.479-1.26-0.75
			c-0.41-0.27-0.81-0.569-1.19-0.88c-0.38-0.31-0.75-0.64-1.1-0.989c-2.791-2.791-4.391-6.651-4.391-10.603
			c0-0.49,0.03-0.99,0.08-1.479c0.05-0.48,0.12-0.971,0.22-1.45c0.09-0.48,0.21-0.96,0.36-1.43c0.14-0.461,0.31-0.931,0.49-1.381
			c0.19-0.449,0.4-0.899,0.63-1.33c0.23-0.43,0.48-0.85,0.75-1.26c0.27-0.41,0.57-0.81,0.87-1.18c0.32-0.39,0.65-0.75,0.99-1.1
			c0.35-0.351,0.72-0.681,1.1-0.99c0.38-0.311,0.78-0.601,1.19-0.87c0.4-0.271,0.83-0.53,1.26-0.76c0.43-0.23,0.87-0.44,1.33-0.62
			c0.45-0.19,0.91-0.36,1.38-0.5c0.46-0.141,0.94-0.26,1.42-0.36s0.97-0.17,1.46-0.22c4.441-0.45,8.942,1.18,12.083,4.321
			c0.35,0.35,0.68,0.71,0.99,1.1c0.31,0.37,0.6,0.77,0.87,1.18c0.27,0.41,0.53,0.83,0.76,1.26c0.23,0.431,0.44,0.881,0.62,1.33
			c0.19,0.45,0.36,0.92,0.5,1.381c0.14,0.47,0.26,0.949,0.36,1.43c0.1,0.479,0.17,0.97,0.22,1.45c0.05,0.489,0.07,0.989,0.07,1.479
			C224.221,211.574,222.621,215.435,219.83,218.226z M269.16,308.114c-0.05,0.49-0.13,0.98-0.22,1.46
			c-0.101,0.48-0.22,0.95-0.36,1.421c-0.14,0.47-0.31,0.93-0.5,1.38c-0.18,0.46-0.399,0.899-0.62,1.33
			c-0.229,0.43-0.489,0.859-0.76,1.26c-0.27,0.41-0.56,0.81-0.87,1.189c-0.31,0.381-0.649,0.75-0.99,1.091
			c-0.35,0.35-0.72,0.68-1.1,0.989c-0.37,0.311-0.77,0.61-1.18,0.88c-0.41,0.271-0.83,0.521-1.26,0.75
			c-0.431,0.23-0.881,0.44-1.33,0.631c-0.45,0.18-0.92,0.35-1.381,0.489c-0.47,0.15-0.949,0.271-1.43,0.36
			c-0.48,0.1-0.97,0.17-1.45,0.22c-0.49,0.05-0.99,0.08-1.48,0.08s-0.98-0.03-1.47-0.08c-0.49-0.05-0.98-0.12-1.46-0.22
			c-0.48-0.09-0.96-0.21-1.42-0.36c-0.47-0.14-0.93-0.31-1.38-0.489c-0.46-0.19-0.9-0.4-1.33-0.631
			c-0.43-0.229-0.86-0.479-1.26-0.75c-0.41-0.27-0.81-0.569-1.19-0.88c-0.38-0.31-0.75-0.64-1.09-0.989
			c-0.35-0.341-0.68-0.71-0.99-1.091c-0.31-0.38-0.61-0.779-0.88-1.189c-0.27-0.4-0.52-0.83-0.75-1.26
			c-0.23-0.431-0.44-0.87-0.63-1.33c-0.19-0.45-0.35-0.91-0.5-1.38c-0.14-0.471-0.26-0.94-0.36-1.421
			c-0.09-0.479-0.17-0.97-0.21-1.46c-0.05-0.489-0.08-0.979-0.08-1.47c0-0.491,0.03-0.99,0.08-1.479c0.04-0.48,0.12-0.971,0.21-1.45
			c0.1-0.48,0.22-0.96,0.36-1.43c0.15-0.461,0.31-0.931,0.5-1.381c0.19-0.449,0.4-0.899,0.63-1.33c0.23-0.43,0.48-0.85,0.75-1.26
			c0.27-0.41,0.57-0.81,0.88-1.18c0.31-0.38,0.64-0.75,0.99-1.1c3.131-3.142,7.642-4.772,12.082-4.321
			c0.48,0.05,0.97,0.12,1.45,0.22c0.48,0.101,0.96,0.22,1.43,0.36c0.461,0.14,0.931,0.31,1.381,0.5
			c0.449,0.18,0.899,0.399,1.33,0.62c0.43,0.229,0.85,0.489,1.26,0.76c0.41,0.27,0.81,0.56,1.18,0.87c0.38,0.31,0.75,0.649,1.1,0.99
			c0.341,0.35,0.681,0.72,0.99,1.1c0.311,0.37,0.601,0.77,0.87,1.18c0.271,0.41,0.53,0.83,0.76,1.26
			c0.221,0.431,0.44,0.881,0.62,1.33c0.19,0.45,0.36,0.92,0.5,1.381c0.141,0.47,0.26,0.949,0.36,1.43
			c0.09,0.479,0.17,0.97,0.22,1.45c0.05,0.489,0.07,0.989,0.07,1.479S269.21,307.624,269.16,308.114z M283.313,206.143
			c0.05-0.48,0.12-0.971,0.22-1.45c0.09-0.48,0.21-0.96,0.36-1.43c0.14-0.461,0.3-0.931,0.489-1.381
			c0.19-0.449,0.4-0.899,0.631-1.33c0.229-0.43,0.479-0.85,0.75-1.26c0.27-0.41,0.569-0.81,0.88-1.18c0.31-0.39,0.64-0.75,0.989-1.1
			c3.132-3.142,7.643-4.772,12.082-4.321c0.48,0.05,0.971,0.12,1.45,0.22c0.48,0.101,0.96,0.22,1.43,0.36
			c0.461,0.14,0.931,0.31,1.381,0.5c0.449,0.18,0.899,0.39,1.33,0.62c0.43,0.229,0.85,0.489,1.26,0.76
			c0.41,0.27,0.81,0.56,1.18,0.87c0.38,0.31,0.75,0.64,1.1,0.99c0.341,0.35,0.681,0.71,0.99,1.1c0.311,0.37,0.601,0.77,0.87,1.18
			c0.271,0.41,0.53,0.83,0.76,1.26c0.221,0.431,0.44,0.881,0.62,1.33c0.19,0.45,0.36,0.92,0.5,1.381
			c0.141,0.47,0.26,0.949,0.36,1.43c0.1,0.479,0.17,0.97,0.22,1.45c0.05,0.489,0.07,0.989,0.07,1.479
			c0,3.952-1.6,7.813-4.391,10.603c-0.35,0.35-0.72,0.68-1.1,0.989c-0.38,0.311-0.77,0.61-1.18,0.88
			c-0.41,0.271-0.83,0.521-1.26,0.75c-0.431,0.23-0.881,0.44-1.33,0.631c-0.45,0.189-0.92,0.35-1.381,0.489
			c-0.47,0.15-0.949,0.271-1.43,0.36c-0.479,0.1-0.97,0.18-1.45,0.22c-0.489,0.05-0.989,0.08-1.479,0.08
			c-0.49,0-0.98-0.03-1.47-0.08c-0.49-0.04-0.98-0.12-1.46-0.22c-0.48-0.09-0.961-0.21-1.421-0.36c-0.47-0.14-0.93-0.3-1.39-0.489
			c-0.45-0.19-0.89-0.4-1.32-0.631c-0.43-0.229-0.859-0.479-1.26-0.75c-0.41-0.27-0.81-0.569-1.189-0.88
			c-0.381-0.31-0.75-0.64-1.091-0.989c-2.801-2.791-4.4-6.651-4.4-10.603C283.233,207.133,283.263,206.632,283.313,206.143z
			 M313.238,256.634c0,0.49-0.019,0.98-0.069,1.47s-0.12,0.98-0.22,1.46c-0.101,0.48-0.22,0.95-0.36,1.421
			c-0.14,0.47-0.31,0.93-0.5,1.38c-0.18,0.46-0.399,0.899-0.62,1.33c-0.229,0.43-0.489,0.859-0.76,1.26
			c-0.27,0.41-0.56,0.81-0.87,1.189c-0.31,0.381-0.649,0.75-0.99,1.091c-0.35,0.35-0.72,0.68-1.1,0.989
			c-0.38,0.311-0.77,0.61-1.18,0.88c-0.41,0.271-0.83,0.521-1.26,0.75c-0.431,0.23-0.881,0.44-1.33,0.631
			c-0.45,0.18-0.92,0.35-1.381,0.489c-0.47,0.15-0.949,0.271-1.43,0.36c-0.479,0.1-0.97,0.17-1.45,0.22
			c-0.489,0.05-0.989,0.08-1.479,0.08c-0.49,0-0.98-0.03-1.47-0.08c-0.49-0.05-0.98-0.12-1.46-0.22
			c-0.48-0.09-0.961-0.21-1.421-0.36c-0.47-0.14-0.93-0.31-1.38-0.489c-0.46-0.19-0.899-0.4-1.33-0.631
			c-0.43-0.229-0.859-0.479-1.26-0.75c-0.41-0.27-0.81-0.569-1.189-0.88c-0.381-0.31-0.75-0.64-1.091-0.989
			c-0.35-0.341-0.68-0.71-1-1.091c-0.3-0.38-0.6-0.779-0.869-1.189c-0.271-0.4-0.521-0.83-0.75-1.26
			c-0.23-0.431-0.44-0.87-0.631-1.33c-0.18-0.45-0.35-0.91-0.489-1.38c-0.15-0.471-0.271-0.94-0.36-1.421
			c-0.1-0.479-0.17-0.97-0.22-1.46c-0.05-0.489-0.08-0.979-0.08-1.47c0-0.491,0.03-0.99,0.08-1.479c0.05-0.48,0.12-0.971,0.22-1.45
			c0.09-0.48,0.21-0.96,0.36-1.43c0.14-0.461,0.31-0.931,0.489-1.381c0.19-0.449,0.4-0.899,0.631-1.33
			c0.229-0.43,0.479-0.85,0.75-1.26c0.27-0.41,0.569-0.81,0.869-1.18c0.32-0.38,0.65-0.75,1-1.1c0.341-0.351,0.71-0.681,1.091-0.99
			c0.38-0.311,0.779-0.601,1.189-0.87c0.4-0.271,0.83-0.53,1.26-0.76c0.431-0.23,0.87-0.44,1.32-0.62c0.45-0.19,0.92-0.36,1.39-0.5
			c0.46-0.141,0.94-0.26,1.421-0.36c0.479-0.1,0.97-0.17,1.46-0.22c4.431-0.45,8.941,1.18,12.081,4.321
			c0.341,0.35,0.681,0.72,0.99,1.1c0.311,0.37,0.601,0.77,0.87,1.18c0.271,0.41,0.53,0.83,0.76,1.26
			c0.221,0.431,0.44,0.881,0.62,1.33c0.19,0.45,0.36,0.92,0.5,1.381c0.141,0.47,0.26,0.949,0.36,1.43c0.1,0.479,0.17,0.97,0.22,1.45
			C313.218,255.643,313.238,256.144,313.238,256.634z M313.169,308.114c-0.05,0.49-0.13,0.98-0.22,1.46
			c-0.101,0.48-0.22,0.95-0.36,1.421c-0.14,0.47-0.31,0.93-0.5,1.38c-0.18,0.46-0.399,0.899-0.62,1.33
			c-0.229,0.43-0.489,0.859-0.76,1.26c-0.27,0.41-0.56,0.81-0.87,1.189c-0.31,0.381-0.649,0.75-0.99,1.091
			c-0.35,0.35-0.72,0.68-1.1,0.989c-0.37,0.311-0.77,0.61-1.18,0.88c-0.41,0.271-0.83,0.521-1.26,0.75
			c-0.431,0.23-0.881,0.44-1.33,0.631c-0.45,0.18-0.92,0.35-1.381,0.489c-0.47,0.15-0.949,0.271-1.43,0.36
			c-0.479,0.1-0.97,0.17-1.45,0.22c-0.489,0.05-0.989,0.08-1.479,0.08c-0.49,0-0.98-0.03-1.47-0.08c-0.49-0.05-0.98-0.12-1.46-0.22
			c-0.48-0.09-0.961-0.21-1.421-0.36c-0.47-0.14-0.93-0.31-1.38-0.489c-0.46-0.19-0.899-0.4-1.33-0.631
			c-0.43-0.229-0.859-0.479-1.26-0.75c-0.41-0.27-0.81-0.569-1.189-0.88c-0.381-0.31-0.75-0.64-1.091-0.989
			c-2.801-2.791-4.4-6.651-4.4-10.603c0-0.49,0.03-0.99,0.08-1.479c0.04-0.48,0.12-0.971,0.21-1.45c0.1-0.48,0.22-0.96,0.359-1.43
			c0.15-0.461,0.311-0.931,0.5-1.381c0.19-0.449,0.4-0.899,0.631-1.33c0.229-0.43,0.479-0.85,0.75-1.26
			c0.27-0.41,0.569-0.81,0.869-1.18c0.32-0.38,0.65-0.75,1-1.1c0.341-0.341,0.71-0.681,1.091-0.99
			c0.38-0.311,0.779-0.601,1.189-0.87c0.4-0.271,0.83-0.53,1.26-0.76c0.431-0.221,0.87-0.44,1.32-0.62c0.46-0.19,0.92-0.36,1.39-0.5
			c0.46-0.141,0.94-0.26,1.421-0.36c0.479-0.1,0.97-0.17,1.46-0.22c0.979-0.101,1.97-0.101,2.95,0c0.48,0.05,0.971,0.12,1.45,0.22
			c0.48,0.101,0.96,0.22,1.43,0.36c0.461,0.14,0.931,0.31,1.381,0.5c0.449,0.18,0.899,0.399,1.33,0.62
			c0.43,0.229,0.85,0.489,1.26,0.76c0.41,0.27,0.81,0.56,1.18,0.87c0.38,0.31,0.75,0.649,1.1,0.99c0.341,0.35,0.681,0.72,0.99,1.1
			c0.311,0.37,0.601,0.77,0.87,1.18c0.271,0.41,0.53,0.83,0.76,1.26c0.221,0.431,0.44,0.881,0.62,1.33
			c0.19,0.45,0.36,0.92,0.5,1.381c0.141,0.47,0.26,0.949,0.36,1.43c0.09,0.479,0.17,0.97,0.22,1.45
			c0.05,0.489,0.07,0.989,0.07,1.479S313.219,307.624,313.169,308.114z"/>
	</g>
</g>
<g>
</g>
<g>
</g>
<g>
</g>
<g>
</g>
<g>
</g>
<g>
</g>
<g>
</g>
<g>
</g>
<g>
</g>
<g>
</g>
<g>
</g>
<g>
</g>
<g>
</g>
<g>
</g>
<g>
</g>
</svg>
