<?xml version="1.0" encoding="UTF-8" standalone="no"?>
<svg
   xmlns:dc="http://purl.org/dc/elements/1.1/"
   xmlns:cc="http://creativecommons.org/ns#"
   xmlns:rdf="http://www.w3.org/1999/02/22-rdf-syntax-ns#"
   xmlns:svg="http://www.w3.org/2000/svg"
   xmlns="http://www.w3.org/2000/svg"
   id="svg8"
   version="1.1"
   viewBox="0 0 67.457726 67.493782"
   height="67.493782mm"
   width="67.457726mm">
  <defs
     id="defs2" />
  <metadata
     id="metadata5">
    <rdf:RDF>
      <cc:Work
         rdf:about="">
        <dc:format>image/svg+xml</dc:format>
        <dc:type
           rdf:resource="http://purl.org/dc/dcmitype/StillImage" />
        <dc:title></dc:title>
      </cc:Work>
    </rdf:RDF>
  </metadata>
  <g
     transform="translate(92.693014,-84.866512)"
     id="layer1">
    <path
       id="path21"
       d="m -62.933033,152.19266 c -8.089622,-1.12581 -14.883028,-4.50815 -20.26365,-10.08899 -4.585053,-4.75568 -7.499062,-10.22376 -8.8713,-16.64683 -0.833375,-3.9008 -0.833375,-9.8224 0,-13.7232 2.829117,-13.242318 12.999775,-23.412978 26.242097,-26.242098 3.900805,-0.833374 9.822401,-0.833374 13.723205,0 13.24232,2.82912 23.41298,12.99978 26.2421,26.242098 0.83495,3.90817 0.83349,9.82112 -0.003,13.74077 -2.81915,13.204 -13.16212,23.53083 -26.23872,26.19777 -3.11973,0.63626 -8.232737,0.88198 -10.83035,0.52048 z m 9.561917,-1.99162 c 13.290785,-2.45616 23.556475,-12.72185 26.012625,-26.01263 0.52855,-2.86007 0.52855,-8.32626 0,-11.18634 -2.45862,-13.304168 -12.70845,-23.553998 -26.012625,-26.012618 -2.860072,-0.52855 -8.326262,-0.52855 -11.186334,0 -13.304171,2.45862 -23.554,12.70845 -26.012627,26.012618 -0.859784,4.65248 -0.426251,10.81164 1.09208,15.51505 3.531581,10.93994 12.855506,19.21381 24.296006,21.5598 3.07291,0.63013 8.749892,0.68979 11.810875,0.12412 z m -10.752542,-2.06745 -1.5875,-0.30189 -0.132291,-11.59866 -0.132292,-11.59866 -0.742358,-0.63832 c -1.000904,-0.86063 -2.371378,-0.85593 -3.238418,0.0111 l -0.649432,0.64943 v 10.72766 c 0,5.9002 -0.0893,10.72706 -0.198438,10.72636 -0.261393,-0.002 -3.808066,-1.82147 -4.233333,-2.17208 -0.253188,-0.20875 -0.330729,-2.46249 -0.330729,-9.61269 v -9.34001 l -0.684978,-0.81405 c -0.901332,-1.07117 -2.447298,-1.14541 -3.42809,-0.16462 l -0.649432,0.64943 v 7.42037 c 0,4.33353 -0.101131,7.42035 -0.243108,7.42035 -0.383502,0 -3.33683,-3.79561 -4.481039,-5.75902 -1.391314,-2.38744 -2.302874,-4.61508 -3.088565,-7.54773 -0.928633,-3.4662 -0.889664,-3.92224 0.380725,-4.45557 1.344053,-0.56427 2.008029,-1.60246 2.008029,-3.13976 0,-1.5373 -0.663976,-2.57549 -2.008029,-3.13975 -1.270389,-0.53334 -1.309358,-0.98938 -0.380725,-4.45558 0.785691,-2.93265 1.697251,-5.16029 3.088565,-7.54773 1.144209,-1.96341 4.097537,-5.759018 4.481039,-5.759018 0.141977,0 0.243108,3.086818 0.243108,7.420358 v 7.42036 l 0.649432,0.64943 c 0.867023,0.86702 2.237504,0.87174 3.238418,0.0111 l 0.742358,-0.63828 0.132292,-9.60238 0.132292,-9.602388 1.719791,-0.97546 c 0.945886,-0.5365 1.987683,-1.05591 2.315104,-1.15424 l 0.595313,-0.17878 v 10.745478 10.74548 l 0.649432,0.64943 c 0.86704,0.86704 2.237514,0.87174 3.238418,0.0111 l 0.742358,-0.63832 0.132292,-11.57978 0.132291,-11.579778 0.674243,-0.18016 c 0.370832,-0.0991 1.353098,-0.26498 2.182813,-0.36865 l 1.508569,-0.18848 v 11.678098 c 0,8.37096 0.08717,11.84176 0.3078,12.25601 0.467188,0.87718 1.052939,1.22255 2.07345,1.22255 1.020511,0 1.606262,-0.34537 2.07345,-1.22255 0.220633,-0.41425 0.3078,-3.88505 0.3078,-12.25601 V 88.659192 l 1.508569,0.18848 c 0.829715,0.10367 1.811981,0.26956 2.182813,0.36865 l 0.67424,0.18016 0.13229,11.579778 0.1323,11.57978 0.74235,0.63832 c 1.00091,0.86063 2.37138,0.85593 3.23842,-0.0111 l 0.64943,-0.64943 V 101.78835 91.042872 l 0.59532,0.17878 c 0.32742,0.0983 1.36922,0.61774 2.3151,1.15424 l 1.71979,0.97546 0.13229,9.558218 0.1323,9.55822 0.64143,0.68245 c 0.87469,0.93063 2.42639,0.94597 3.33934,0.033 l 0.64943,-0.64943 v -7.42036 c 0,-4.13742 0.10378,-7.420358 0.23457,-7.420358 0.23215,0 2.60185,2.827608 3.66404,4.372068 1.91696,2.78733 4.109,8.49154 4.45979,11.60545 l 0.15238,1.35269 -1.05404,0.43212 c -1.36492,0.55957 -2.03278,1.59111 -2.03278,3.13975 0,1.54864 0.66786,2.58019 2.03278,3.13976 l 1.05404,0.43212 -0.15238,1.35268 c -0.35079,3.11391 -2.54283,8.81812 -4.45979,11.60545 -1.06219,1.54446 -3.43189,4.37207 -3.66404,4.37207 -0.13079,0 -0.23457,-3.28294 -0.23457,-7.42035 v -7.42037 l -0.64943,-0.64943 c -0.98079,-0.98079 -2.52676,-0.90655 -3.42809,0.16462 l -0.68498,0.81405 v 9.34001 c 0,7.15261 -0.0774,9.40281 -0.33073,9.60817 -0.40109,0.3252 -4.02853,2.17789 -4.26417,2.17789 -0.0922,0 -0.1676,-4.82745 -0.1676,-10.72765 v -10.72766 l -0.64943,-0.64943 c -0.86704,-0.86704 -2.23751,-0.87174 -3.23842,-0.0111 l -0.74235,0.63832 -0.1323,11.59675 -0.13229,11.59676 -1.719789,0.32028 c -0.945885,0.17616 -1.928151,0.32585 -2.182812,0.33264 -0.434155,0.0116 -0.463021,-0.71453 -0.463021,-11.64671 0,-11.93123 -0.03448,-12.36873 -1.035405,-13.13721 -0.541287,-0.41559 -2.150403,-0.41559 -2.69169,0 -1.000924,0.76848 -1.035405,1.20597 -1.035405,13.13721 v 11.65906 l -0.595312,-0.0288 c -0.327422,-0.0159 -1.309688,-0.16469 -2.182813,-0.33073 z"
       style="fill:#000000;stroke-width:0.26458332" />
  </g>
</svg>
