<?xml version="1.0" encoding="iso-8859-1"?>
<!-- Generator: Adobe Illustrator 19.0.0, SVG Export Plug-In . SVG Version: 6.00 Build 0)  -->
<svg version="1.1" id="Layer_1" xmlns="http://www.w3.org/2000/svg" xmlns:xlink="http://www.w3.org/1999/xlink" x="0px" y="0px"
	 viewBox="0 0 512 512" style="enable-background:new 0 0 512 512;" xml:space="preserve">
<g>
	<g>
		<path d="M446.418,353.31H162.017V113.506h196.197v21.796h-24.191c-9.425,0-17.067,7.641-17.067,17.067v52.57l-27.119,41.696
			c-3.68,5.658-3.68,12.954,0,18.611l29.879,45.939c3.27,5.028,8.74,7.763,14.322,7.763c3.19,0,6.417-0.893,9.29-2.763
			c7.901-5.139,10.14-15.71,5.002-23.612l-23.826-36.633l18.779-28.873h64l18.779,28.873l-23.826,36.633
			c-5.139,7.902-2.9,18.473,5.002,23.612c2.873,1.869,6.1,2.763,9.29,2.763c5.581,0,11.052-2.735,14.322-7.763l29.879-45.939
			c3.68-5.658,3.68-12.954,0-18.611l-27.124-41.697v-52.569c0-9.425-7.641-17.067-17.067-17.067h-24.191v-38.86
			c0-0.001,0-0.002,0-0.005V34.162c0-9.425-7.641-17.067-17.067-17.067H157.899C146.192,6.281,130.682,0,113.812,0
			C86.158,0,62.133,16.802,52.609,42.803c-8.577,23.417-3.426,48.691,12.984,66.536v261.043c0,0.038,0.006,0.073,0.006,0.11v45.096
			h397.885v-45.211C463.484,360.951,455.843,353.31,446.418,353.31z M137.6,85.416c-0.196,0.232-0.378,0.472-0.56,0.712
			c-0.93,1.005-1.95,1.982-3.072,2.925c-0.02,0.018-0.041,0.035-0.063,0.053c-11.639,9.879-28.55,9.875-40.222-0.018
			C81.482,78.765,81.022,64.474,84.66,54.544c3.614-9.867,13.17-20.411,29.152-20.411c15.99,0,25.565,10.638,29.192,20.593
			c1.228,3.368,1.98,7.237,1.96,11.28C144.808,72.913,142.368,79.78,137.6,85.416z"/>
	</g>
</g>
<g>
	<g>
		<path d="M65.599,449.721v45.212c0,9.425,7.641,17.067,17.067,17.067h363.752c9.425,0,17.067-7.641,17.067-17.067v-45.212H65.599z"
			/>
	</g>
</g>
<g>
</g>
<g>
</g>
<g>
</g>
<g>
</g>
<g>
</g>
<g>
</g>
<g>
</g>
<g>
</g>
<g>
</g>
<g>
</g>
<g>
</g>
<g>
</g>
<g>
</g>
<g>
</g>
<g>
</g>
</svg>
