<?xml version="1.0" encoding="UTF-8" standalone="no"?>
<svg
   xmlns:dc="http://purl.org/dc/elements/1.1/"
   xmlns:cc="http://creativecommons.org/ns#"
   xmlns:rdf="http://www.w3.org/1999/02/22-rdf-syntax-ns#"
   xmlns:svg="http://www.w3.org/2000/svg"
   xmlns="http://www.w3.org/2000/svg"
   id="svg8"
   height="512px"
   width="512px"
   enable-background="new 0 0 512 512"
   viewBox="0 0 512 512"
   version="1.1">
  <metadata
     id="metadata14">
    <rdf:RDF>
      <cc:Work
         rdf:about="">
        <dc:format>image/svg+xml</dc:format>
        <dc:type
           rdf:resource="http://purl.org/dc/dcmitype/StillImage" />
        <dc:title></dc:title>
      </cc:Work>
    </rdf:RDF>
  </metadata>
  <defs
     id="defs12" />
  <g
     id="g6">
    <path
       id="path2"
       fill="#FFFFFF"
       d="m256,136.001c13.254,0 24-10.75 24-24s-10.746-24-24-24c-13.254,0-24,10.75-24,24s10.746,24 24,24z" />
    <path
       id="path4"
       fill="#FFFFFF"
       d="m495.998,431.997v-16c0-8.836-7.164-16-16-16h-4.467l-11.533-34.593v-173.406h32c7.047,0 13.273-4.617 15.312-11.367 2.047-6.742-0.57-14.031-6.437-17.945l-239.998-159.999c-5.375-3.578-12.375-3.578-17.75-1.19904e-14l-239.998,159.999c-5.867,3.914-8.484,11.203-6.437,17.945 2.039,6.75 8.266,11.367 15.312,11.367h32v173.405l-11.533,34.593h-4.467c-8.836,0-16,7.164-16,16v16c-8.836,0-16,7.164-16,16v48c0,8.836 7.164,16 16,16h479.996c8.836,0 16-7.164 16-16v-48c0-8.835-7.164-15.999-16-15.999zm-63.179-58.937l8.984,26.937h-25.805-25.804l8.984-26.937c0.547-1.633 0.82-3.344 0.82-5.063v-175.999h32v175.999c0.001,1.719 0.274,3.43 0.821,5.063zm-117.286,26.937l-11.533-34.594v-173.405h63.999v173.405l-11.533,34.593h-40.933zm-159.999,.001l-11.533-34.593v-173.406h63.999v173.405l-11.533,34.593h-40.933zm83.646-26.936c0.547-1.633 0.82-3.344 0.82-5.063v-175.999h32v175.999c0,1.719 0.273,3.43 0.82,5.063l8.984,26.937h-51.609l8.985-26.937zm16.82-337.834l187.155,124.772h-374.31l187.155-124.772zm-176.819,337.834c0.547-1.633 0.82-3.344 0.82-5.063v-175.999h32v175.999c0,1.719 0.273,3.43 0.82,5.063l8.984,26.937h-25.804-25.804l8.984-26.937zm400.817,106.936h-447.996v-16c8.836,0 16-7.164 16-16v-16h48 48 63.998 96 63.999 48 48v16c0,8.836 7.164,16 16,16v16z" />
  </g>
</svg>
