<?xml version="1.0" encoding="UTF-8" standalone="no"?>
<!-- Generator: Adobe Illustrator 17.1.0, SVG Export Plug-In . SVG Version: 6.00 Build 0)  -->

<svg
   xmlns:dc="http://purl.org/dc/elements/1.1/"
   xmlns:cc="http://creativecommons.org/ns#"
   xmlns:rdf="http://www.w3.org/1999/02/22-rdf-syntax-ns#"
   xmlns:svg="http://www.w3.org/2000/svg"
   xmlns="http://www.w3.org/2000/svg"
   xmlns:sodipodi="http://sodipodi.sourceforge.net/DTD/sodipodi-0.dtd"
   xmlns:inkscape="http://www.inkscape.org/namespaces/inkscape"
   version="1.1"
   id="Capa_1"
   x="0px"
   y="0px"
   viewBox="0 0 424.666 424.666"
   style="enable-background:new 0 0 424.666 424.666;"
   xml:space="preserve"
   sodipodi:docname="s-for-1.svg"
   inkscape:version="0.92.1 r15371"><metadata
     id="metadata63"><rdf:RDF><cc:Work
         rdf:about=""><dc:format>image/svg+xml</dc:format><dc:type
           rdf:resource="http://purl.org/dc/dcmitype/StillImage" /><dc:title></dc:title></cc:Work></rdf:RDF></metadata><defs
     id="defs61" /><sodipodi:namedview
     pagecolor="#ffffff"
     bordercolor="#666666"
     borderopacity="1"
     objecttolerance="10"
     gridtolerance="10"
     guidetolerance="10"
     inkscape:pageopacity="0"
     inkscape:pageshadow="2"
     inkscape:window-width="697"
     inkscape:window-height="480"
     id="namedview59"
     showgrid="false"
     inkscape:zoom="0.55573088"
     inkscape:cx="212.33299"
     inkscape:cy="212.33299"
     inkscape:window-x="0"
     inkscape:window-y="0"
     inkscape:window-maximized="0"
     inkscape:current-layer="Capa_1" /><g
     id="g26"><path
       d="M281.274,34.114h-4.876V8c0-4.418-3.582-8-8-8H156.69c-4.418,0-8,3.582-8,8v26.114h-5.299   c-23.34,0-43.059,20.663-43.059,45.121v302.372c0,23.742,19.316,43.059,43.059,43.059h137.883   c23.742,0,43.059-19.316,43.059-43.059V77.173C324.333,53.431,305.017,34.114,281.274,34.114z M164.69,16h95.708v26.095   c0,0.007-0.001,0.013-0.001,0.019s0.001,0.013,0.001,0.019v33.032H164.69V16z M308.333,381.607   c0,14.92-12.139,27.059-27.059,27.059H143.392c-14.92,0-27.059-12.139-27.059-27.059V79.235c0-15.513,12.644-29.121,27.059-29.121   h5.299v25.052h-8.54c-4.418,0-8,3.582-8,8s3.582,8,8,8h16.54h111.708h15.893c4.418,0,8-3.582,8-8s-3.582-8-8-8h-7.893V50.114h4.876   c14.92,0,27.059,12.139,27.059,27.059V381.607z"
       id="path2" /><path
       d="M164.583,224.916h-15.785c-8.822,0-16,7.178-16,16v7.918c0,8.822,7.178,16,16,16h15.785c8.822,0,16-7.178,16-16v-7.918   C180.583,232.094,173.405,224.916,164.583,224.916z M148.798,248.834v-7.918h15.785l0.001,7.918H148.798z"
       id="path4" /><path
       d="M220.611,224.916h-15.785c-8.822,0-16,7.178-16,16v7.918c0,8.822,7.178,16,16,16h15.785c8.822,0,16-7.178,16-16v-7.918   C236.611,232.094,229.434,224.916,220.611,224.916z M204.826,248.834v-7.918h15.785l0.002,7.918H204.826z"
       id="path6" /><path
       d="M276.291,224.916h-15.785c-8.822,0-16,7.178-16,16v7.918c0,8.822,7.178,16,16,16h15.785c8.822,0,16-7.178,16-16v-7.918   C292.291,232.094,285.113,224.916,276.291,224.916z M260.506,248.834v-7.918h15.785l0.002,7.918H260.506z"
       id="path8" /><path
       d="M164.583,273.303h-15.785c-8.822,0-16,7.178-16,16v7.918c0,8.822,7.178,16,16,16h15.785c8.822,0,16-7.178,16-16v-7.918   C180.583,280.48,173.405,273.303,164.583,273.303z M148.798,297.221v-7.918h15.785l0.001,7.918H148.798z"
       id="path10" /><path
       d="M220.611,273.303h-15.785c-8.822,0-16,7.178-16,16v7.918c0,8.822,7.178,16,16,16h15.785c8.822,0,16-7.178,16-16v-7.918   C236.611,280.48,229.434,273.303,220.611,273.303z M204.826,297.221v-7.918h15.785l0.002,7.918H204.826z"
       id="path12" /><path
       d="M276.291,273.303h-15.785c-8.822,0-16,7.178-16,16v7.918c0,8.822,7.178,16,16,16h15.785c8.822,0,16-7.178,16-16v-7.918   C292.291,280.48,285.113,273.303,276.291,273.303z M260.506,297.221v-7.918h15.785l0.002,7.918H260.506z"
       id="path14" /><path
       d="M164.583,320.803h-15.785c-8.822,0-16,7.178-16,16v7.918c0,8.822,7.178,16,16,16h15.785c8.822,0,16-7.178,16-16v-7.918   C180.583,327.98,173.405,320.803,164.583,320.803z M148.798,344.721v-7.918h15.785l0.001,7.918H148.798z"
       id="path16" /><path
       d="M220.611,320.803h-15.785c-8.822,0-16,7.178-16,16v7.918c0,8.822,7.178,16,16,16h15.785c8.822,0,16-7.178,16-16v-7.918   C236.611,327.98,229.434,320.803,220.611,320.803z M204.826,344.721v-7.918h15.785l0.002,7.918H204.826z"
       id="path18" /><path
       d="M276.291,320.803h-15.785c-8.822,0-16,7.178-16,16v7.918c0,8.822,7.178,16,16,16h15.785c8.822,0,16-7.178,16-16v-7.918   C292.291,327.98,285.113,320.803,276.291,320.803z M260.506,344.721v-7.918h15.785l0.002,7.918H260.506z"
       id="path20" /><path
       d="M228.611,376.916h-31.785c-4.418,0-8,3.582-8,8s3.582,8,8,8h31.785c4.418,0,8-3.582,8-8S233.029,376.916,228.611,376.916z"
       id="path22" /><path
       d="M148.15,201.166h128c8.822,0,16-7.178,16-16v-57c0-8.822-7.178-16-16-16h-128c-8.822,0-16,7.178-16,16v57   C132.15,193.988,139.328,201.166,148.15,201.166z M148.15,128.166h20.352l14.324,14.324c1.562,1.562,3.609,2.343,5.657,2.343   s4.095-0.781,5.657-2.343c3.125-3.125,3.125-8.189,0-11.314l-3.01-3.01h85.02l0.002,57h-28.021l-30.31-30.31   c-3.124-3.122-8.189-3.123-11.314,0c-3.125,3.125-3.125,8.19,0,11.314l18.995,18.995H148.15V128.166z"
       id="path24" /></g><g
     id="g28" /><g
     id="g30" /><g
     id="g32" /><g
     id="g34" /><g
     id="g36" /><g
     id="g38" /><g
     id="g40" /><g
     id="g42" /><g
     id="g44" /><g
     id="g46" /><g
     id="g48" /><g
     id="g50" /><g
     id="g52" /><g
     id="g54" /><g
     id="g56" /></svg>