<?xml version="1.0" encoding="UTF-8" standalone="no"?>
<!-- Generator: Adobe Illustrator 19.0.0, SVG Export Plug-In . SVG Version: 6.00 Build 0)  -->

<svg
   xmlns:dc="http://purl.org/dc/elements/1.1/"
   xmlns:cc="http://creativecommons.org/ns#"
   xmlns:rdf="http://www.w3.org/1999/02/22-rdf-syntax-ns#"
   xmlns:svg="http://www.w3.org/2000/svg"
   xmlns="http://www.w3.org/2000/svg"
   xmlns:sodipodi="http://sodipodi.sourceforge.net/DTD/sodipodi-0.dtd"
   xmlns:inkscape="http://www.inkscape.org/namespaces/inkscape"
   version="1.1"
   id="Capa_1"
   x="0px"
   y="0px"
   viewBox="0 0 508 508"
   style="enable-background:new 0 0 508 508;"
   xml:space="preserve"
   sodipodi:docname="s-for-6.svg"
   inkscape:version="0.92.1 r15371"><metadata
     id="metadata193"><rdf:RDF><cc:Work
         rdf:about=""><dc:format>image/svg+xml</dc:format><dc:type
           rdf:resource="http://purl.org/dc/dcmitype/StillImage" /><dc:title></dc:title></cc:Work></rdf:RDF></metadata><defs
     id="defs191" /><sodipodi:namedview
     pagecolor="#ffffff"
     bordercolor="#666666"
     borderopacity="1"
     objecttolerance="10"
     gridtolerance="10"
     guidetolerance="10"
     inkscape:pageopacity="0"
     inkscape:pageshadow="2"
     inkscape:window-width="697"
     inkscape:window-height="480"
     id="namedview189"
     showgrid="false"
     inkscape:zoom="0.46456693"
     inkscape:cx="254"
     inkscape:cy="254"
     inkscape:window-x="0"
     inkscape:window-y="0"
     inkscape:window-maximized="0"
     inkscape:current-layer="Capa_1" /><g
     id="g6"><g
       id="g4"><path
         d="M139.3,393.3c-18.1,0-32.8,18.4-32.8,41c0,22.6,14.7,41,32.8,41c18.1,0,32.8-18.4,32.8-41S157.4,393.3,139.3,393.3z     M139.3,458.8c-8.9,0-16.4-11.3-16.4-24.6c0-13.3,7.5-24.6,16.4-24.6c8.9,0,16.4,11.3,16.4,24.6    C155.7,447.6,148.2,458.8,139.3,458.8z"
         id="path2" /></g></g><g
     id="g12"><g
       id="g10"><rect
         x="65.5"
         y="426.1"
         width="16.4"
         height="16.4"
         id="rect8" /></g></g><g
     id="g18"><g
       id="g16"><rect
         x="196.6"
         y="426.1"
         width="16.4"
         height="16.4"
         id="rect14" /></g></g><g
     id="g24"><g
       id="g22"><path
         d="M426.1,245.8V0H81.9v360.5H41H0v41V467v41h41h196.6h41v-41v-24.6h24.6V508H508V245.8H426.1z M16.4,376.9h23.4    c-3,11.5-12,20.4-23.4,23.4V376.9z M16.4,491.6v-23.4c11.5,3,20.4,12,23.4,23.4H16.4z M262.2,491.6h-23.4    c3-11.5,12-20.4,23.4-23.4V491.6z M262.2,451.3c-20.6,3.5-36.8,19.7-40.3,40.3H56.7C53.2,471,37,454.8,16.4,451.3v-34.1    c20.6-3.5,36.8-19.7,40.3-40.3h165.2c3.5,20.6,19.7,36.8,40.3,40.3V451.3z M262.2,400.3c-11.5-3-20.4-12-23.4-23.4h23.4V400.3z     M303.2,426.1h-24.6v-24.6v-41h-41H98.3V16.4h311.4v229.4H303.2V426.1z M491.6,491.6H319.5V262.2h172.1V491.6z"
         id="path20" /></g></g><g
     id="g30"><g
       id="g28"><path
         d="M335.9,278.6v65.5h139.3v-65.5H335.9z M458.8,327.7H352.3V295h106.5V327.7z"
         id="path26" /></g></g><g
     id="g36"><g
       id="g34"><rect
         x="335.9"
         y="360.5"
         width="16.4"
         height="16.4"
         id="rect32" /></g></g><g
     id="g42"><g
       id="g40"><rect
         x="376.9"
         y="360.5"
         width="16.4"
         height="16.4"
         id="rect38" /></g></g><g
     id="g48"><g
       id="g46"><rect
         x="417.9"
         y="360.5"
         width="16.4"
         height="16.4"
         id="rect44" /></g></g><g
     id="g54"><g
       id="g52"><rect
         x="458.8"
         y="360.5"
         width="16.4"
         height="16.4"
         id="rect50" /></g></g><g
     id="g60"><g
       id="g58"><rect
         x="335.9"
         y="393.3"
         width="16.4"
         height="16.4"
         id="rect56" /></g></g><g
     id="g66"><g
       id="g64"><rect
         x="376.9"
         y="393.3"
         width="16.4"
         height="16.4"
         id="rect62" /></g></g><g
     id="g72"><g
       id="g70"><rect
         x="417.9"
         y="393.3"
         width="16.4"
         height="16.4"
         id="rect68" /></g></g><g
     id="g78"><g
       id="g76"><rect
         x="458.8"
         y="393.3"
         width="16.4"
         height="16.4"
         id="rect74" /></g></g><g
     id="g84"><g
       id="g82"><rect
         x="335.9"
         y="426.1"
         width="16.4"
         height="16.4"
         id="rect80" /></g></g><g
     id="g90"><g
       id="g88"><rect
         x="376.9"
         y="426.1"
         width="16.4"
         height="16.4"
         id="rect86" /></g></g><g
     id="g96"><g
       id="g94"><rect
         x="417.9"
         y="426.1"
         width="16.4"
         height="16.4"
         id="rect92" /></g></g><g
     id="g102"><g
       id="g100"><rect
         x="458.8"
         y="426.1"
         width="16.4"
         height="16.4"
         id="rect98" /></g></g><g
     id="g108"><g
       id="g106"><rect
         x="335.9"
         y="458.8"
         width="16.4"
         height="16.4"
         id="rect104" /></g></g><g
     id="g114"><g
       id="g112"><rect
         x="376.9"
         y="458.8"
         width="16.4"
         height="16.4"
         id="rect110" /></g></g><g
     id="g120"><g
       id="g118"><rect
         x="417.9"
         y="458.8"
         width="16.4"
         height="16.4"
         id="rect116" /></g></g><g
     id="g126"><g
       id="g124"><rect
         x="458.8"
         y="458.8"
         width="16.4"
         height="16.4"
         id="rect122" /></g></g><g
     id="g132"><g
       id="g130"><path
         d="M122.9,41v131.1h114.7V41H122.9z M221.2,155.7h-81.9V57.4h81.9V155.7z"
         id="path128" /></g></g><g
     id="g138"><g
       id="g136"><rect
         x="262.2"
         y="98.3"
         width="122.9"
         height="16.4"
         id="rect134" /></g></g><g
     id="g144"><g
       id="g142"><rect
         x="262.2"
         y="155.7"
         width="122.9"
         height="16.4"
         id="rect140" /></g></g><g
     id="g150"><g
       id="g148"><rect
         x="122.9"
         y="213"
         width="262.2"
         height="16.4"
         id="rect146" /></g></g><g
     id="g156"><g
       id="g154"><rect
         x="122.9"
         y="278.6"
         width="155.7"
         height="16.4"
         id="rect152" /></g></g><g
     id="g158" /><g
     id="g160" /><g
     id="g162" /><g
     id="g164" /><g
     id="g166" /><g
     id="g168" /><g
     id="g170" /><g
     id="g172" /><g
     id="g174" /><g
     id="g176" /><g
     id="g178" /><g
     id="g180" /><g
     id="g182" /><g
     id="g184" /><g
     id="g186" /></svg>