<?xml version="1.0" encoding="UTF-8" standalone="no"?>
<!-- Generator: Adobe Illustrator 19.0.0, SVG Export Plug-In . SVG Version: 6.00 Build 0)  -->

<svg
   xmlns:dc="http://purl.org/dc/elements/1.1/"
   xmlns:cc="http://creativecommons.org/ns#"
   xmlns:rdf="http://www.w3.org/1999/02/22-rdf-syntax-ns#"
   xmlns:svg="http://www.w3.org/2000/svg"
   xmlns="http://www.w3.org/2000/svg"
   xmlns:sodipodi="http://sodipodi.sourceforge.net/DTD/sodipodi-0.dtd"
   xmlns:inkscape="http://www.inkscape.org/namespaces/inkscape"
   version="1.1"
   id="Capa_1"
   x="0px"
   y="0px"
   viewBox="0 0 512 512"
   style="enable-background:new 0 0 512 512;"
   xml:space="preserve"
   sodipodi:docname="s-for-2.svg"
   inkscape:version="0.92.1 r15371"><metadata
     id="metadata59"><rdf:RDF><cc:Work
         rdf:about=""><dc:format>image/svg+xml</dc:format><dc:type
           rdf:resource="http://purl.org/dc/dcmitype/StillImage" /><dc:title></dc:title></cc:Work></rdf:RDF></metadata><defs
     id="defs57" /><sodipodi:namedview
     pagecolor="#ffffff"
     bordercolor="#666666"
     borderopacity="1"
     objecttolerance="10"
     gridtolerance="10"
     guidetolerance="10"
     inkscape:pageopacity="0"
     inkscape:pageshadow="2"
     inkscape:window-width="697"
     inkscape:window-height="480"
     id="namedview55"
     showgrid="false"
     inkscape:zoom="0.4609375"
     inkscape:cx="256"
     inkscape:cy="256"
     inkscape:window-x="0"
     inkscape:window-y="0"
     inkscape:window-maximized="0"
     inkscape:current-layer="Capa_1" /><g
     id="g22"><g
       id="g20"><g
         id="g18"><circle
           cx="317.003"
           cy="294.828"
           r="7.277"
           id="circle2" /><circle
           cx="284.216"
           cy="354.523"
           r="7.277"
           id="circle4" /><path
           d="M366.548,273.656c-1.074-4-5.191-6.374-9.188-5.3c-4.001,1.073-6.374,5.187-5.301,9.188     c2.242,8.355,3.379,16.98,3.379,25.636v188.586c0,2.887-2.348,5.235-5.234,5.235H161.796c-2.887,0-5.234-2.348-5.234-5.235V445     c0-4.142-3.357-7.5-7.5-7.5s-7.5,3.358-7.5,7.5v46.765c0,11.158,9.077,20.235,20.234,20.235h188.408     c11.157,0,20.234-9.077,20.234-20.235V303.179C370.439,293.211,369.129,283.278,366.548,273.656z"
           id="path6" /><path
           d="M189.129,446.816c0,13.815,11.239,25.054,25.055,25.054h83.634c13.814,0,25.054-11.239,25.054-25.054v-45.839     c0-13.815-11.239-25.054-25.054-25.054h-83.634c-13.815,0-25.055,11.239-25.055,25.054V446.816z M204.129,400.977     c0-5.544,4.511-10.054,10.055-10.054h83.634c5.544,0,10.054,4.51,10.054,10.054v45.839c0,5.544-4.51,10.054-10.054,10.054     h-83.634c-5.544,0-10.055-4.51-10.055-10.054V400.977z"
           id="path8" /><circle
           cx="196.629"
           cy="328.317"
           r="7.277"
           id="circle10" /><path
           d="M220.507,420.553h70.986c4.143,0,7.5-3.358,7.5-7.5c0-4.142-3.357-7.5-7.5-7.5h-70.986c-4.143,0-7.5,3.358-7.5,7.5     C213.007,417.195,216.364,420.553,220.507,420.553z"
           id="path12" /><path
           d="M274.728,430.135h-37.456c-4.143,0-7.5,3.358-7.5,7.5c0,4.142,3.357,7.5,7.5,7.5h37.456c4.143,0,7.5-3.358,7.5-7.5     C282.228,433.493,278.871,430.135,274.728,430.135z"
           id="path14" /><path
           d="M149.061,420.165c4.143,0,7.5-3.358,7.5-7.5V303.179c0-24.018,8.828-47.235,24.508-65.168l45.563,36.525     c-3.998,5.768-6.348,12.759-6.348,20.292c0,19.694,16.022,35.716,35.716,35.716c19.694,0,35.716-16.022,35.716-35.716     c0-7.533-2.351-14.525-6.348-20.292l45.568-36.529c3.997,4.564,7.571,9.489,10.673,14.724c1.401,2.364,3.897,3.677,6.459,3.677     c1.301,0,2.618-0.338,3.817-1.049c3.563-2.112,4.739-6.713,2.628-10.276c-5.67-9.564-12.695-18.232-20.883-25.763     c-18.847-17.333-29.656-41.96-29.656-67.565v-59.04c6.79-2.211,11.715-8.594,11.715-16.113V16.949     C315.69,7.603,308.087,0,298.741,0H213.26c-9.346,0-16.949,7.603-16.949,16.949v59.652c0,7.519,4.925,13.902,11.716,16.113v59.04     c0,25.605-10.81,50.232-29.657,67.565c-1.138,1.047-2.245,2.121-3.336,3.21c-0.014,0.014-0.029,0.028-0.043,0.043     c-21.295,21.283-33.429,50.393-33.429,80.607v109.486C141.561,416.807,144.919,420.165,149.061,420.165z M256,315.544     c-11.423,0-20.716-9.293-20.716-20.716c0-11.422,9.293-20.715,20.716-20.715c11.423,0,20.716,9.293,20.716,20.715     C276.716,306.251,267.423,315.544,256,315.544z M211.311,16.949L211.311,16.949c0-1.075,0.874-1.949,1.949-1.949h85.481     c1.074,0,1.948,0.874,1.948,1.949v59.652c0,1.075-0.874,1.949-1.948,1.949h-39.604c-4.143,0-7.5,3.358-7.5,7.5     c0,4.142,3.357,7.5,7.5,7.5h29.837v58.204c0,9.769,1.361,19.413,3.952,28.678l-35.352,28.339     c-0.941,0.755-2.207,0.755-3.146,0.001l-35.353-28.341c2.591-9.265,3.952-18.909,3.952-28.678V93.55h6.76     c4.143,0,7.5-3.358,7.5-7.5c0-4.142-3.357-7.5-7.5-7.5H213.26c-1.075,0-1.949-0.874-1.949-1.949V16.949z M213.691,195.342     l31.356,25.136c3.225,2.584,7.089,3.875,10.953,3.875c3.865,0,7.73-1.292,10.956-3.877l31.354-25.134     c1.296,2.898,2.72,5.738,4.269,8.512l-29.799,23.888c-4.856,3.894-10.659,5.952-16.779,5.952c-6.119,0-11.921-2.058-16.778-5.952     l-29.8-23.888C210.971,201.08,212.395,198.24,213.691,195.342z M201.168,216.463l28.672,22.983     c7.441,5.963,16.73,9.248,26.16,9.248c9.432,0,18.723-3.285,26.162-9.248l28.67-22.982c2.896,3.808,6.059,7.431,9.471,10.841     l-45.996,36.872c-5.357-3.212-11.619-5.064-18.307-5.064c-6.688,0-12.95,1.852-18.307,5.064l-45.996-36.871     C195.109,223.894,198.272,220.271,201.168,216.463z"
           id="path16" /></g></g></g><g
     id="g24" /><g
     id="g26" /><g
     id="g28" /><g
     id="g30" /><g
     id="g32" /><g
     id="g34" /><g
     id="g36" /><g
     id="g38" /><g
     id="g40" /><g
     id="g42" /><g
     id="g44" /><g
     id="g46" /><g
     id="g48" /><g
     id="g50" /><g
     id="g52" /></svg>