<?xml version="1.0" encoding="UTF-8" standalone="no"?>
<svg
   xmlns:dc="http://purl.org/dc/elements/1.1/"
   xmlns:cc="http://creativecommons.org/ns#"
   xmlns:rdf="http://www.w3.org/1999/02/22-rdf-syntax-ns#"
   xmlns:svg="http://www.w3.org/2000/svg"
   xmlns="http://www.w3.org/2000/svg"
   id="svg8"
   version="1.1"
   viewBox="0 0 56.321812 56.389637"
   height="56.389637mm"
   width="56.321812mm">
  <defs
     id="defs2" />
  <metadata
     id="metadata5">
    <rdf:RDF>
      <cc:Work
         rdf:about="">
        <dc:format>image/svg+xml</dc:format>
        <dc:type
           rdf:resource="http://purl.org/dc/dcmitype/StillImage" />
        <dc:title></dc:title>
      </cc:Work>
    </rdf:RDF>
  </metadata>
  <g
     transform="translate(-14.053815,-141.16595)"
     id="layer1">
    <path
       id="path36"
       d="m 14.829919,197.1415 c -0.369146,-0.4448 -0.876775,0.0887 18.909239,-19.87191 l 7.65078,-7.71829 -13.85319,-13.91693 C 14.401447,142.43862 13.707316,141.69372 14.141984,141.25994 c 0.434656,-0.43376 1.173376,0.25929 14.247904,13.367 7.58422,7.60347 13.86009,13.82474 13.94638,13.82506 0.0863,2.6e-4 6.30658,-6.22071 13.82285,-13.82448 12.91239,-13.06273 13.69146,-13.80047 14.12863,-13.37917 0.43739,0.42152 -0.29059,1.2093 -13.31756,14.41171 l -13.78023,13.96582 13.49798,13.58064 c 11.20638,11.275 13.44384,13.64586 13.1791,13.96485 -0.17538,0.21132 -0.4263,0.38422 -0.55759,0.38422 -0.1313,0 -6.28047,-6.08825 -13.66482,-13.52944 l -13.42611,-13.52945 -13.33175,13.52945 c -7.33246,7.44119 -13.417572,13.52944 -13.522466,13.52944 -0.104894,0 -0.345366,-0.18634 -0.534383,-0.41409 z"
       style="fill:#626262;stroke-width:0.26458335" />
  </g>
</svg>
