<?xml version="1.0" encoding="UTF-8" standalone="no"?>
<svg
   xmlns:dc="http://purl.org/dc/elements/1.1/"
   xmlns:cc="http://creativecommons.org/ns#"
   xmlns:rdf="http://www.w3.org/1999/02/22-rdf-syntax-ns#"
   xmlns:svg="http://www.w3.org/2000/svg"
   xmlns="http://www.w3.org/2000/svg"
   id="svg8"
   version="1.1"
   viewBox="0 0 28.336351 24.637587"
   height="24.637587mm"
   width="28.336351mm">
  <defs
     id="defs2" />
  <metadata
     id="metadata5">
    <rdf:RDF>
      <cc:Work
         rdf:about="">
        <dc:format>image/svg+xml</dc:format>
        <dc:type
           rdf:resource="http://purl.org/dc/dcmitype/StillImage" />
        <dc:title></dc:title>
      </cc:Work>
    </rdf:RDF>
  </metadata>
  <g
     transform="translate(-42.664936,-149.27631)"
     id="layer1">
    <path
       id="path21"
       d="m 51.065913,169.33474 c -2.951263,-2.55034 -5.777287,-5.19589 -6.280054,-5.87902 -2.176631,-2.95744 -2.733233,-6.7387 -1.41224,-9.59403 1.380941,-2.9849 3.813908,-4.58326 6.972809,-4.58085 2.214429,0.002 3.995377,0.78894 5.465177,2.41584 l 0.93369,1.03348 0.83309,-0.9923 c 1.29957,-1.54794 3.45938,-2.4768 5.72319,-2.46136 2.18615,0.0149 3.35299,0.45471 4.88965,1.84299 2.23174,2.01625 3.22716,4.91831 2.64823,7.72076 -0.35706,1.72849 -1.28807,3.71461 -2.40779,5.13654 -0.84103,1.06803 -11.14998,9.84369 -11.67289,9.93674 -0.17981,0.032 -2.7416,-2.02846 -5.692862,-4.57879 z m -4.622821,-12.08199 c 0.144374,-0.1819 0.405026,-0.77332 0.579225,-1.31426 0.385147,-1.196 1.568051,-2.24334 2.793306,-2.4732 1.226238,-0.23005 1.61033,-0.71762 1.025795,-1.30215 -0.507187,-0.50719 -1.414272,-0.41505 -2.912298,0.29581 -1.704799,0.80898 -3.110653,3.41227 -2.479546,4.5915 0.328128,0.61312 0.620243,0.6726 0.993518,0.2023 z"
       style="fill:#000000;stroke-width:0.26458332" />
  </g>
</svg>
