<svg xmlns="http://www.w3.org/2000/svg"  width="24" height="23" viewBox="0 0 307.23 295"><title>calendar</title><g id="Слой_2" data-name="Слой 2"><g id="Слой_1-2" data-name="Слой 1"><path d="M237.23,0h10V29h60V295H.23c-.06-1.83-.18-3.66-.18-5.48Q0,174.89,0,60.26C0,50,0,39.72,0,28.87H60.23V0h10V28.59h167Zm.29,39.23H69.88V60.89H59.66V39.29H10.37V284.61H297V39.27H247.37V61.08h-9.86Z"/><path d="M105.07,119.31v9.26H50.82v-9.26Z"/><path d="M180.81,119.41v9.23H126.7v-9.23Z"/><path d="M256.57,119.32v9.39H202.49v-9.39Z"/><path d="M104.95,155.23v9.38H50.86v-9.38Z"/><path d="M180.88,155.3v9.24H126.7V155.3Z"/><path d="M202.37,164.54V155.3h54.19v9.24Z"/><path d="M50.84,200.67v-9.25h54.05v9.25Z"/><path d="M180.82,191.51v9.24H126.7v-9.24Z"/><path d="M202.51,191.3h53.92v9.49H202.51Z"/><path d="M51.44,236.64v-9.39h54.07v9.39Z"/><path d="M181.18,227.31v9.38H127.43v-9.38Z"/></g></g></svg>