<?xml version="1.0" encoding="utf-8"?><svg xmlns="http://www.w3.org/2000/svg" xmlns:xlink="http://www.w3.org/1999/xlink"><symbol viewBox="0 0 376.5 512" id="apple" xmlns="http://www.w3.org/2000/svg"><path d="M314.7 268.7c-.2-36.7 16.4-64.4 50-84.8-18.8-26.9-47.2-41.7-84.7-44.6-35.5-2.8-74.3 20.7-88.5 20.7-15 0-49.4-19.7-76.4-19.7C59.3 141.2 0 184.8 0 273.5c0 26.2 4.8 53.3 14.4 81.2 12.8 36.7 59 126.7 107.2 125.2 25.2-.6 43-17.9 75.8-17.9 31.8 0 48.3 17.9 76.4 17.9 48.6-.7 90.4-82.5 102.6-119.3-65.2-30.7-61.7-90-61.7-91.9zm-56.6-164.2c27.3-32.4 24.8-61.9 24-72.5-24.1 1.4-52 16.4-67.9 34.9-17.5 19.8-27.8 44.3-25.6 71.9 26.1 2 49.9-11.4 69.5-34.3z"/></symbol><symbol viewBox="0 0 317.25 316" id="call" xmlns="http://www.w3.org/2000/svg"><g data-name="Слой 2"><g data-name="Слой 1"><path d="M197.25 316c-1.61-.35-3.2-.8-4.82-1-8.48-1.23-16.47-3.6-23.81-8.34-52.77-34.05-100-74.19-137.68-124.86-11.66-15.69-21.8-32.35-27.21-51.36-4.56-16-5.52-32.24.53-48.11a45.45 45.45 0 0 1 8.34-14C22.4 57.4 32.77 47 43 36.55c4.44-4.52 8.32-4.45 12.94.1q38.29 37.69 76.5 75.47c4.85 4.8 4.84 9 .09 13.81-5.72 5.83-11.58 11.51-17.28 17.36-7.78 8-7.64 18 .47 25.51q19 17.7 38.28 35.16c7.37 6.69 16.58 6.49 23.78-.41 5.29-5.07 10.36-10.38 15.59-15.51 4.55-4.46 8.39-4.47 13 .08q36.11 36 72.13 72.07c3.42 3.42 3.83 7.14.33 10.55-11.56 11.27-23.07 22.62-35.25 33.2-7.66 6.65-17.45 9.51-27.5 11-1.63.24-3.22.69-4.83 1zm-82.34-196.14L48.37 53.29C41.83 59.86 35 67.17 27.68 73.92c-6.27 5.78-9.9 12.89-10.18 21-.33 9.72-.43 19.76 1.59 29.19 4.23 19.75 15.36 36.4 27.38 52.21 36.88 48.54 83.07 86.55 134.94 118a25.62 25.62 0 0 0 7.44 2.71c22 5.11 41.25.49 57.08-16.17 5-5.25 10-10.49 14.6-15.3l-62.71-62.69c-3.13 3.37-6.37 7.18-9.95 10.65a34 34 0 0 1-47 .61q-18.63-17-37.16-34.14c-15-13.82-15.51-33.64-1.3-48.17 4.3-4.37 8.87-8.5 12.5-11.96zM170.25 0c7.85 1.29 15.75 2.26 23.54 3.94 61.12 13.17 109.85 63.94 120.49 125.39 1.08 6.21 2 12.45 3 18.68v12c-2.63 4.25-6.29 6.44-11.29 4.86s-5.72-5.77-5.82-10.41C298.52 79.37 237.74 18.52 163 17.15c-4.51-.08-8.89-.19-10.62-5.4-1.58-4.75.2-8.13 5.86-11.75z"/><path d="M167.23 50.38c51.24 3.9 90.48 39.26 99.43 89.87a109.58 109.58 0 0 1 1.34 14.92c.26 6.78-2.55 10.08-8.14 10.14-5.44.06-8.52-3.4-8.72-9.84-.74-24.57-9.5-45.8-27-63.08-16.9-16.67-37.46-24.91-61.2-25.22-6.31-.08-9.19-2.14-9.77-6.93-.63-5.19 2.42-9.24 7.61-9.81a59.24 59.24 0 0 1 6.45-.05z"/><path d="M224.25 153.5c.2 7.3-2.28 10.6-8 10.69s-8.62-3.19-8.93-10.19a45.55 45.55 0 0 0-43.93-44c-.83 0-1.67 0-2.5-.09-4.67-.54-7.77-3.8-7.83-8.2-.06-4.2 2.79-7.6 7.7-7.36 6.92.34 14 .92 20.63 2.89 24.61 7.32 42.15 30.76 42.86 56.26z"/></g></g></symbol><symbol viewBox="0 0 512 512" id="check" xmlns="http://www.w3.org/2000/svg"><path d="M435.848 83.466L172.804 346.51l-96.652-96.652c-4.686-4.686-12.284-4.686-16.971 0l-28.284 28.284c-4.686 4.686-4.686 12.284 0 16.971l133.421 133.421c4.686 4.686 12.284 4.686 16.971 0l299.813-299.813c4.686-4.686 4.686-12.284 0-16.971l-28.284-28.284c-4.686-4.686-12.284-4.686-16.97 0z"/></symbol><symbol id="close" viewBox="0 0 22 22" xmlns="http://www.w3.org/2000/svg"><defs><style>.dcls-1{fill:none;stroke:#101213;stroke-width:1px;filter:url(#dfilter)}.dcls-2{fill:#e3e0e0;fill-rule:evenodd;filter:url(#dfilter-2)}</style><filter id="dfilter" x=".5" y=".5" width="21" height="21" filterUnits="userSpaceOnUse"><feFlood result="flood" flood-color="#f94242"/><feComposite result="composite" operator="in" in2="SourceGraphic"/><feBlend result="blend" in2="SourceGraphic"/></filter><filter id="dfilter-2" x="299" y="3697" width="9" height="9" filterUnits="userSpaceOnUse"><feFlood result="flood" flood-color="#f94242"/><feComposite result="composite" operator="in" in2="SourceGraphic"/><feBlend result="blend" in2="SourceGraphic"/></filter></defs><g filter="url(#dfilter)"><circle id="dЭллипс_694" data-name="Эллипс 694" class="dcls-1" cx="11" cy="11" r="10.5" filter="none"/></g><use xlink:href="#dЭллипс_694" filter="none"/><path id="dФигура_652_копия" data-name="Фигура 652 копия" class="dcls-2" d="M306.729 3697l1.273 1.59-7.731 7.41-1.271-1.59zm-6.458 0l-1.271 1.59 7.731 7.41 1.273-1.59z" transform="translate(-292.5 -3690.5)"/></symbol><symbol viewBox="0 0 320.2 426.4" id="doc" xmlns="http://www.w3.org/2000/svg"><path d="M0 397.2v-368c.4-.7.6-1.5.9-2.3C4.2 10.2 16.4 0 33.2 0c55.3 0 110.6.1 166 0 9.4-.2 18.5 3.6 25 10.4 28.1 28.2 56.3 56.4 84.5 84.4 8 7.9 11.6 16.9 11.6 28.1-.2 89.5-.2 178.9-.1 268.4.1 3.3-.1 6.7-.7 9.9-3.4 15.6-16 25-33.3 25H33.3c-15.7 0-28-9.4-31.8-23.9-.6-1.6-1-3.4-1.5-5.1zM192.3 21.1H35.7c-10.6 0-14 3.4-14 14.1v357c0 9.3 3.7 13.1 13 13.1h251c9.9 0 13.4-3.6 13.4-13.7V127.8h-6.5c-22.3 0-44.7.1-67 0-19.4-.1-33.1-13.8-33.2-33.1-.1-19.2 0-38.3 0-57.5-.1-5.1-.1-10.3-.1-16.1zm21.6 10.6c-.1 1.1-.2 2.2-.2 3.3v58.5c0 9.5 3.5 13 12.9 13.1h58c1.4 0 2.8-.2 3.9-.3l-74.6-74.6z"/><path d="M160.1 255.9H77.7c-1.8 0-3.6-.2-5.4-.6-5.6-1.4-9-7-7.6-12.6.9-3.7 3.8-6.6 7.4-7.5 1.8-.4 3.6-.6 5.4-.6h165.4c7.3 0 11.6 2.7 12.9 7.9 1.9 7.4-3.3 13.4-11.8 13.4-16.6.1-33.3 0-50 0h-33.9zm.4 42.4H76.6c-7.3 0-12.1-4.1-12.2-10.3-.1-6.4 4.8-10.8 12.3-10.8h167.4c4.7 0 9.2 1.1 10.6 5.7 1 3.6.8 7.3-.5 10.8-1.6 4.1-6 4.7-10.2 4.7-27.9-.1-55.7-.1-83.5-.1zm0 21.7h83.9c7.3 0 11.5 3.8 11.7 10.1.3 5.6-3.9 10.4-9.5 10.9-1 .1-2 .1-3 .1H76.7c-7.7 0-12.7-4.7-12.3-11.2.4-5.9 4.9-9.8 11.6-9.8 28.2-.1 56.3-.1 84.5-.1zm-.3-149.7H75.8c-8.3 0-13.3-6.7-10.6-14 1.8-5 5.7-7.1 10.9-7h167.4c6.5 0 10.4 2.3 12.1 6.8 2.7 7.1-2.3 14.2-10.4 14.2-24.3.1-48.6 0-72.9 0h-12.1zm.9 21.7h83.4c7 0 11.3 3.7 11.6 9.7.5 5.8-3.8 10.8-9.5 11.3-.8.1-1.7.1-2.5.1H76.7c-7.5 0-12.4-4.4-12.3-10.8.2-5.9 4.7-10.2 11.2-10.2h85.5zm-54.2-64.2c-10 0-20 .1-30 0-7.7-.1-12.5-4.2-12.5-10.6s4.9-10.6 12.5-10.6c20.1-.1 40.3-.1 60.5 0 7.5 0 12.4 4.5 12.2 10.9s-4.9 10.3-12.2 10.4c-10.2 0-20.4-.1-30.5-.1z"/></symbol><symbol viewBox="0 0 264 512" id="facebook-f" xmlns="http://www.w3.org/2000/svg"><path d="M76.7 512V283H0v-91h76.7v-71.7C76.7 42.4 124.3 0 193.8 0c33.3 0 61.9 2.5 70.2 3.6V85h-48.2c-37.8 0-45.1 18-45.1 44.3V192H256l-11.7 91h-73.6v229"/></symbol><symbol viewBox="0 0 512 512" id="google-play" xmlns="http://www.w3.org/2000/svg"><path d="M325.3 234.3L104.6 13l280.8 161.2-60.1 60.1zM47 0C34 6.8 25.3 19.2 25.3 35.3v441.3c0 16.1 8.7 28.5 21.7 35.3l256.6-256L47 0zm425.2 225.6l-58.9-34.1-65.7 64.5 65.7 64.5 60.1-34.1c18-14.3 18-46.5-1.2-60.8zM104.6 499l280.8-161.2-60.1-60.1L104.6 499z"/></symbol><symbol viewBox="0 0 453 423.36" id="home" xmlns="http://www.w3.org/2000/svg"><defs><style>.hcls-1{fill:#fcda33}</style></defs><g id="hСлой_2" data-name="Слой 2"><path class="hcls-1" d="M453 192v8c-1.45.92-1.31 2.61-1.83 3.95a24.9 24.9 0 0 1-27.07 15.91c-5.57-.84-10.08-3.92-14.54-7.34-1.19 2.21-.67 4.22-.67 6.12q-.05 93.45 0 186.9c0 10.25-4.05 15.38-13.86 17.82-36.47 0-72.94-.16-109.41 0-4.37 0-5.93-.86-5.92-5.67.19-52.63 0-105.25.23-157.88 0-4.94-1.41-6-6.13-6q-47.21.32-94.43 0c-4.88 0-6 1.32-6 6.1.17 52.63.05 105.25.21 157.88 0 4.43-1.23 5.58-5.61 5.56-37-.17-73.94-.09-110.91-.09-9.6-3.51-12.72-7.95-12.72-18.35q0-93.36-.06-186.72c0-1.74.56-3.6-.49-5.23-1.31-.24-1.84.8-2.59 1.36-15.06 11.42-34.22 5.34-39.95-12.7-.29-.91-.1-2-1.2-2.58v-8c2.75-5.59 5.18-11.22 10.24-15.49 53.7-45.27 107.14-90.87 161-136C187.46 26 202.12 10.29 221 0h10c4.46 2 9 3.77 12.88 7.07q97.25 82.53 194.71 164.8c6.64 5.6 12.24 11.53 14.41 20.13z" id="hСлой_1-2" data-name="Слой 1"/></g></symbol><symbol viewBox="0 0 448 512" id="instagram" xmlns="http://www.w3.org/2000/svg"><path d="M224.1 141c-63.6 0-114.9 51.3-114.9 114.9s51.3 114.9 114.9 114.9S339 319.5 339 255.9 287.7 141 224.1 141zm0 189.6c-41.1 0-74.7-33.5-74.7-74.7s33.5-74.7 74.7-74.7 74.7 33.5 74.7 74.7-33.6 74.7-74.7 74.7zm146.4-194.3c0 14.9-12 26.8-26.8 26.8-14.9 0-26.8-12-26.8-26.8s12-26.8 26.8-26.8 26.8 12 26.8 26.8zm76.1 27.2c-1.7-35.9-9.9-67.7-36.2-93.9-26.2-26.2-58-34.4-93.9-36.2-37-2.1-147.9-2.1-184.9 0-35.8 1.7-67.6 9.9-93.9 36.1s-34.4 58-36.2 93.9c-2.1 37-2.1 147.9 0 184.9 1.7 35.9 9.9 67.7 36.2 93.9s58 34.4 93.9 36.2c37 2.1 147.9 2.1 184.9 0 35.9-1.7 67.7-9.9 93.9-36.2 26.2-26.2 34.4-58 36.2-93.9 2.1-37 2.1-147.8 0-184.8zM398.8 388c-7.8 19.6-22.9 34.7-42.6 42.6-29.5 11.7-99.5 9-132.1 9s-102.7 2.6-132.1-9c-19.6-7.8-34.7-22.9-42.6-42.6-11.7-29.5-9-99.5-9-132.1s-2.6-102.7 9-132.1c7.8-19.6 22.9-34.7 42.6-42.6 29.5-11.7 99.5-9 132.1-9s102.7-2.6 132.1 9c19.6 7.8 34.7 22.9 42.6 42.6 11.7 29.5 9 99.5 9 132.1s2.7 102.7-9 132.1z"/></symbol><symbol viewBox="0 0 319 512" id="mobile" xmlns="http://www.w3.org/2000/svg"><defs><style>.jcls-1{fill:#010101}</style></defs><g id="jСлой_2" data-name="Слой 2"><path class="jcls-1" d="M319 55v403c-1.83 1-1.26 2.92-1.65 4.37-6.89 25.67-23.3 41.58-48.92 48.27-1.8.47-4-.51-5.43 1.36H54c-.73-1.82-2.58-1.26-3.86-1.6-26.41-7-42.48-24-48.8-50.45-.32-1.32.45-3.11-1.34-4V56c1.82-1.39 1.28-3.6 1.72-5.4C7.8 25.9 23.16 10 47.21 2.29 49.79 1.46 52.68 1.71 55 0h208c.33.3.63.8 1 .86 26.82 4.36 43.85 20 52.49 45.39.98 2.89.62 6.14 2.51 8.75zm-32 185q0-85.5.11-171c0-4.15-1-5.12-5.11-5.11q-122.74.21-245.49 0c-4.54 0-5.61 1.12-5.61 5.62q.2 170.49 0 341c0 4.55 1.12 5.61 5.62 5.61q122.74-.22 245.49 0c4.16 0 5.11-1 5.1-5.11Q286.87 325.5 287 240zM127 463.85A32 32 0 1 0 159.26 432 32 32 0 0 0 127 463.85z" id="jСлой_1-2" data-name="Слой 1"/></g></symbol><symbol viewBox="0 0 256 256" id="pen" xmlns="http://www.w3.org/2000/svg"><g data-name="Слой 2"><path d="M111 0c13.72 8.1 27.41 16.24 41.16 24.29 13.06 7.64 26.17 15.19 39.59 23-.81 1.57-1.48 3-2.27 4.38q-52.69 91.46-105.33 183A10.47 10.47 0 0 1 77 240c-18 4.67-36 9.55-54 14.39a33.93 33.93 0 0 0-4 1.61h-2c-2.93-11.34-5.79-22.7-8.83-34-2.61-9.7-5.44-19.34-8.17-29v-3a40.66 40.66 0 0 0 3.17-4.18q35.64-61.75 71.21-123.54Q92.27 31.18 110 0zM80 210.39l67-116.32-54.68-31.66-67 116.33zm74.81-129.85l15.88-27.49L116 21.44l-15.87 27.44zM29 235.61L72.24 224l-54.85-31.74zM112 256v-16h144v16z" data-name="Слой 1"/></g></symbol><symbol viewBox="0 0 512 512" id="phone-call" xmlns="http://www.w3.org/2000/svg"><path d="M99 0c8.3 10.6 17.2 20.7 24.6 31.9 18.8 28.3 36 57.6 50.7 88.3 4.7 9.9 4.7 10.5-3.6 17.8-10.6 9.4-21.7 18.2-32 27.9-18.1 16.9-17.2 15.3-9.8 37.8 13.8 42.1 36.7 79 66 112 24.5 27.6 52.4 50.7 86.8 65 12.4 5.3 25.6 8.6 39.1 9.8 8.5.7 15.9-.9 22.3-7.4 10.5-10.7 21.3-21.1 32.4-31.2 9.9-8.9 11.1-9 22.9-2.6 36 19.6 70.6 41.5 103.2 66.5 3.8 2.9 7 6.7 10.4 10v2c-4.7 4.7-9 9.7-14.1 13.9-30.8 25.9-62.6 50.5-98 70.1h-19c-7.2-1.2-14.4-2.2-21.6-3.6-38.3-7.8-72.9-24.3-105.2-45.6C174.7 410 109.5 343 57.7 263.2 34.4 227.3 16 188.9 5.5 147.1c-2.3-9-3.8-18.2-5.7-27.3v-8c.4-.3.7-.6 1-.9C28.7 70.6 59.3 32.7 96 0h3zm413 244l-43.6 6.5c-.6-57.4-19.7-106.7-59.9-146.9s-89.5-59.4-147-60L268 0h12c1.2.4 2.5.7 3.8.9 23.9 1.7 47.2 6.5 69.4 15.7 85.1 35.1 137 97.9 154.9 188.4 1.8 9.3 2.6 18.7 3.9 28.1V244z"/><path d="M402.4 259.7l-43.6 6.2c4.8-33-3.1-62.2-26.7-85.8s-52.7-31.8-86.1-26.9l6.1-43.4c81.5-10.7 159.9 61 150.3 149.9z"/></symbol><symbol viewBox="0 0 384 512" id="times" xmlns="http://www.w3.org/2000/svg"><path d="M231.6 256l130.1-130.1c4.7-4.7 4.7-12.3 0-17l-22.6-22.6c-4.7-4.7-12.3-4.7-17 0L192 216.4 61.9 86.3c-4.7-4.7-12.3-4.7-17 0l-22.6 22.6c-4.7 4.7-4.7 12.3 0 17L152.4 256 22.3 386.1c-4.7 4.7-4.7 12.3 0 17l22.6 22.6c4.7 4.7 12.3 4.7 17 0L192 295.6l130.1 130.1c4.7 4.7 12.3 4.7 17 0l22.6-22.6c4.7-4.7 4.7-12.3 0-17L231.6 256z"/></symbol><symbol viewBox="0 0 576 512" id="vk" xmlns="http://www.w3.org/2000/svg"><path d="M545 117.7c3.7-12.5 0-21.7-17.8-21.7h-58.9c-15 0-21.9 7.9-25.6 16.7 0 0-30 73.1-72.4 120.5-13.7 13.7-20 18.1-27.5 18.1-3.7 0-9.4-4.4-9.4-16.9V117.7c0-15-4.2-21.7-16.6-21.7h-92.6c-9.4 0-15 7-15 13.5 0 14.2 21.2 17.5 23.4 57.5v86.8c0 19-3.4 22.5-10.9 22.5-20 0-68.6-73.4-97.4-157.4-5.8-16.3-11.5-22.9-26.6-22.9H38.8c-16.8 0-20.2 7.9-20.2 16.7 0 15.6 20 93.1 93.1 195.5C160.4 378.1 229 416 291.4 416c37.5 0 42.1-8.4 42.1-22.9 0-66.8-3.4-73.1 15.4-73.1 8.7 0 23.7 4.4 58.7 38.1 40 40 46.6 57.9 69 57.9h58.9c16.8 0 25.3-8.4 20.4-25-11.2-34.9-86.9-106.7-90.3-111.5-8.7-11.2-6.2-16.2 0-26.2.1-.1 72-101.3 79.4-135.6z"/></symbol><symbol viewBox="0 0 576 512" id="youtube" xmlns="http://www.w3.org/2000/svg"><path d="M549.655 124.083c-6.281-23.65-24.787-42.276-48.284-48.597C458.781 64 288 64 288 64S117.22 64 74.629 75.486c-23.497 6.322-42.003 24.947-48.284 48.597-11.412 42.867-11.412 132.305-11.412 132.305s0 89.438 11.412 132.305c6.281 23.65 24.787 41.5 48.284 47.821C117.22 448 288 448 288 448s170.78 0 213.371-11.486c23.497-6.321 42.003-24.171 48.284-47.821 11.412-42.867 11.412-132.305 11.412-132.305s0-89.438-11.412-132.305zm-317.51 213.508V175.185l142.739 81.205-142.739 81.201z"/></symbol></svg>