<?xml version="1.0" encoding="utf-8"?><svg xmlns="http://www.w3.org/2000/svg" xmlns:xlink="http://www.w3.org/1999/xlink"><symbol viewBox="0 0 25 38" id="avatar" xmlns="http://www.w3.org/2000/svg"><defs><path id="aa" d="M198.7 483.9c-.5-.57-1.36-.6-1.91-.08-.55.52-.6 1.4-.09 1.98a10.33 10.33 0 0 1 2.58 6.86v6.01c0 .29-.22.52-.5.52H180.2a.51.51 0 0 1-.5-.52v-6.01c0-5.6 4.4-10.14 9.79-10.14 4.93 0 8.95-4.15 8.95-9.26 0-5.11-4-9.26-8.94-9.26-4.94 0-8.96 4.16-8.96 9.27a9.6 9.6 0 0 0 1.06 4.38c.36.69 1.18.93 1.84.57.66-.37.9-1.22.55-1.9a6.68 6.68 0 0 1-.74-3.05c0-3.57 2.8-6.47 6.25-6.47 3.44 0 6.24 2.9 6.24 6.47 0 3.56-2.8 6.46-6.24 6.46-6.9 0-12.5 5.8-12.5 12.93v6.02a3.27 3.27 0 0 0 3.2 3.32h18.6c1.76 0 3.2-1.49 3.2-3.32v-6.02c0-3.25-1.17-6.36-3.3-8.76z"/></defs><use xlink:href="#aa" transform="translate(-177 -464)"/></symbol><symbol viewBox="0 0 344.96 344.96" id="check" xmlns="http://www.w3.org/2000/svg"><g data-name="Слой 2"><path d="M321.85 86.24l-40-23.11-23.1-40H212.5L172.48 0l-40 23.11H86.24l-23.11 40-40 23.1v46.21L0 172.48l23.11 40v46.21l40 23.11 23.11 40h46.21l40 23.1 40-23.11h46.21l23.11-40 40-23.11V212.5l23.11-40-23.11-40V86.24zM156.91 243.07a16.79 16.79 0 0 1-23.34 0l-50.45-50.44a16.19 16.19 0 0 1 0-22.89l13.35-13.35a16.19 16.19 0 0 1 22.89 0l25.87 25.87 80.34-80.35a16.19 16.19 0 0 1 22.89 0l13.35 13.35a16.19 16.19 0 0 1 0 22.89z" data-name="Capa 1"/></g></symbol><symbol viewBox="0 0 11 6" id="down" xmlns="http://www.w3.org/2000/svg"><defs><path id="ca" d="M1741 117.67l-5.33 5.32-.17-.17-.17.17-5.32-5.32.66-.67 4.83 4.83 4.83-4.83z"/></defs><use xlink:href="#ca" transform="translate(-1730 -117)"/></symbol><symbol viewBox="0 0 25 28" id="download" xmlns="http://www.w3.org/2000/svg"><defs><path id="da" d="M861.71 652.33H841.3a2.31 2.31 0 0 0-2.29 2.34 2.31 2.31 0 0 0 2.29 2.33h20.42a2.31 2.31 0 0 0 2.29-2.33 2.31 2.31 0 0 0-2.29-2.34zm-11.9-2.56c.41.42.95.64 1.5.68l.19.02.2-.02a2.32 2.32 0 0 0 1.5-.68l7.31-7.4c.92-.93.92-2.43 0-3.36a2.33 2.33 0 0 0-3.32 0l-3.38 3.42v-11.1a2.32 2.32 0 0 0-2.31-2.33 2.32 2.32 0 0 0-2.31 2.33v11.1l-3.38-3.42a2.33 2.33 0 0 0-3.32 0 2.39 2.39 0 0 0 0 3.36z"/></defs><use xlink:href="#da" transform="translate(-839 -629)"/></symbol><symbol viewBox="0 0 26 23" id="input-file" xmlns="http://www.w3.org/2000/svg"><defs><path id="ea" d="M1298 913.3v5.74c0 .58-.4.96-1 .96h-24c-.6 0-1-.38-1-.96v-5.75c0-.57.4-.96 1-.96h2c.6 0 1 .39 1 .96v2.4c0 .28.2.48.5.48h17c.3 0 .5-.2.5-.48v-2.4c0-.57.4-.96 1-.96h2c.6 0 1 .39 1 .96zm-19.7-8.92a.85.85 0 0 1-.3-.67c0-.29.1-.48.3-.67l6-5.75c.2-.2.5-.29.7-.29.2 0 .5.1.7.29l6 5.75c.2.19.3.38.3.67 0 .29-.1.48-.3.67l-1.4 1.34a.9.9 0 0 1-.7.29c-.3 0-.5-.1-.7-.29l-1-.96c-.4-.29-.9 0-.9.39v6.32c0 .58-.4.96-1 .96h-2c-.6 0-1-.38-1-.96v-6.32c0-.48-.6-.68-.9-.39l-1 .96a.9.9 0 0 1-.7.29c-.3 0-.5-.1-.7-.29z"/></defs><use xlink:href="#ea" transform="translate(-1272 -897)"/></symbol><symbol viewBox="0 0 20 26" id="map" xmlns="http://www.w3.org/2000/svg"><defs><path id="fa" d="M874 1741.36c0 .67-.06 1.33-.18 1.96l-.07.33c-.15.72-.38 1.4-.67 2.05-1 2.48-3.33 6.6-8.53 11.07a.85.85 0 0 1-1.1 0c-5.2-4.48-7.53-8.6-8.53-11.06-.29-.65-.52-1.34-.67-2.06l-.07-.32a10.8 10.8 0 0 1-.13-2.98c.48-5.14 4.61-9.16 9.6-9.34 5.68-.21 10.35 4.5 10.35 10.35zm-2.98-.34a7.01 7.01 0 1 0-14.02.01 7.01 7.01 0 0 0 14.02-.01z"/><path id="fb" d="M868 1739h-2v4h-4v-4h-2v10h2v-4h4v4h2z"/></defs><use xlink:href="#fa" transform="translate(-854 -1731)"/><use xlink:href="#fb" transform="translate(-854 -1731)"/></symbol><symbol viewBox="0 0 16 16" id="pensil" xmlns="http://www.w3.org/2000/svg"><defs><path id="ga" d="M1617 17.94c0 .78-.3 1.52-.86 2.08l-9.31 9.3a.5.5 0 0 1-.2.13l-4.98 1.53a.5.5 0 0 1-.62-.65l2-5.5a.49.49 0 0 1 .12-.18l8.83-8.8a2.92 2.92 0 0 1 4.16.01c.55.56.86 1.3.86 2.08zM1606.38 27h-.88a.5.5 0 0 1-.5-.5v-1h-1.15l-.85 2.34c.24.13.48.28.68.48.23.23.4.52.5.83l1.87-.57zm7.6-7.04a1.93 1.93 0 0 0-1.94-1.94c-.52 0-1.01.2-1.38.57l-5.95 5.91h.79c.28 0 .5.22.5.5v1h1a.5.5 0 0 1 .49.6l-.18.83 6.1-6.1c.36-.36.56-.85.56-1.37zm2.02-2.02a1.93 1.93 0 0 0-1.94-1.94c-.52 0-1 .2-1.37.57l-.47.46a2.91 2.91 0 0 1 2.74 2.75l.47-.47c.37-.37.57-.85.57-1.37zm-3.15 1.2c.2.2.2.52 0 .71l-5 5a.5.5 0 0 1-.7-.7l5-5c.2-.2.5-.2.7 0z"/></defs><use xlink:href="#ga" transform="translate(-1601 -15)"/></symbol><symbol viewBox="0 0 24 24" id="tel" xmlns="http://www.w3.org/2000/svg"><defs><path id="ha" d="M1537.26 120.36a.61.61 0 0 1 0 .86.62.62 0 0 1-.87 0 .62.62 0 0 1 0-.86.62.62 0 0 1 .87 0zm-5.42-7.75a.6.6 0 1 1-.25 1.2.6.6 0 1 1 .25-1.2zm4.48 3a.61.61 0 1 1-.85-.15.62.62 0 0 1 .85.16zm-1.95-1.94a.61.61 0 0 1-.68 1.02.61.61 0 0 1-.17-.85.62.62 0 0 1 .85-.17zm2.3 4a.6.6 0 1 1 .24 1.2.6.6 0 0 1-.72-.47.62.62 0 0 1 .47-.73zm-7.04-4.93a.62.62 0 0 1 0 .86.62.62 0 0 1-.87 0 .61.61 0 0 1 0-.86.62.62 0 0 1 .87 0zm12.03 7.77a.61.61 0 0 1 0 .86.62.62 0 0 1-.86 0 .61.61 0 0 1 0-.86.61.61 0 0 1 .86 0zm-1.1-5.58a.6.6 0 1 1-.55-1.09c.3-.14.67-.02.82.28a.6.6 0 0 1-.27.8zm-5.5-5.49a.6.6 0 0 1 .82-.27.6.6 0 0 1-.27 1.15.59.59 0 0 1-.27-.07.6.6 0 0 1-.28-.8zm-4.38-.86a.6.6 0 0 1 .63-.58.6.6 0 0 1-.02 1.22h-.02a.62.62 0 0 1-.6-.64zm2.23.2a.6.6 0 1 1 .45.74.61.61 0 0 1-.45-.74zm6.55 4.2a.6.6 0 0 1-.39.14.61.61 0 1 1 .48-1c.21.27.17.65-.1.86zm1.91 5.12a.61.61 0 0 1 .04 1.22h-.02a.61.61 0 0 1-.02-1.22zm-.89-1.47a.61.61 0 0 1 .44-.74c.33-.08.66.12.74.44a.61.61 0 0 1-.59.77.6.6 0 0 1-.59-.47zm-3.47-6.1a.6.6 0 0 1 .86-.08c.26.21.3.59.1.85a.6.6 0 0 1-.48.23.61.61 0 0 1-.48-1zm-8.39-1.34a.62.62 0 0 1 0-.86.62.62 0 0 1 .87 0 .62.62 0 0 1 0 .86.62.62 0 0 1-.87 0zm9.21 17.08c.95.95.94 2.2-.01 3.16l-.5.5c-.33.31-.64.61-.93.93a3.4 3.4 0 0 1-2.65 1.14l-.28-.01a10.72 10.72 0 0 1-4.12-1.2 21.93 21.93 0 0 1-7.22-5.64 19.92 19.92 0 0 1-3.52-5.88c-.34-.9-.71-2.1-.6-3.43a3.2 3.2 0 0 1 1-2.13l.93-.93.65-.65c.45-.45 1-.69 1.56-.69s1.1.24 1.56.7l.88.87a409.8 409.8 0 0 0 .78.78l.87.87c.96.97.97 2.21 0 3.18l-.29.3-1.16 1.15c.28.63.69 1.27 1.27 1.98a15.78 15.78 0 0 0 3.81 3.47 6.2 6.2 0 0 0 .83.44c.45-.46.9-.92 1.36-1.36l.12-.11c.45-.46 1-.7 1.56-.7s1.1.25 1.56.7c.83.82 1.7 1.68 2.54 2.56zm-.83.85l-2.55-2.54c-.15-.15-.4-.34-.7-.34-.3 0-.55.18-.7.34l-.13.12-1.45 1.45a.94.94 0 0 1-.69.32.97.97 0 0 1-.47-.13l-.38-.19a7.77 7.77 0 0 1-.7-.37 16.92 16.92 0 0 1-4.1-3.73 9.76 9.76 0 0 1-1.52-2.43.92.92 0 0 1 .22-1.09c.43-.4.86-.83 1.27-1.25l.3-.3c.48-.5.47-.97-.01-1.46l-.87-.87-.38-.37-.4-.4a68.1 68.1 0 0 0-.88-.88c-.16-.16-.4-.34-.7-.34-.3 0-.56.19-.71.34l-.63.63-.97.95c-.39.37-.58.8-.62 1.35-.06.85.1 1.75.53 2.91.7 1.9 1.79 3.7 3.32 5.52 1.9 2.26 4.2 4.06 6.81 5.33a9.5 9.5 0 0 0 3.65 1.07c.86.05 1.47-.18 1.96-.72.31-.36.65-.69.98-1l.49-.48c.48-.48.48-.97.03-1.44z"/></defs><use xlink:href="#ha" transform="translate(-1518 -108)"/></symbol></svg>