<svg width="245" height="123" viewBox="0 0 245 123" fill="none" xmlns="http://www.w3.org/2000/svg">
<path d="M60.6952 109.489H56.9399V122.187H53.9269V109.489H50.1608V106.849H60.6952V109.489Z" fill="#00579C"/>
<path d="M71.4085 122.187H62.5702V106.849H71.4085V109.489H65.5831V112.755H70.7691V115.27H65.5831V119.546H71.4085V122.187Z" fill="#00579C"/>
<path d="M86.9231 122.187H83.585L80.4203 116.71L77.2394 122.187H73.923L78.7675 114.227L74.2752 106.849H77.597L80.4203 111.749L83.2382 106.849H86.56L82.0731 114.227L86.9231 122.187Z" fill="#00579C"/>
<path d="M101.159 122.187H98.1457V115.27H91.6267V122.187H88.6138V106.849H91.6267V112.689H98.1457V106.849H101.159V122.187Z" fill="#00579C"/>
<path d="M116.917 114.504C116.985 113.078 116.498 111.681 115.557 110.608C114.605 109.668 113.322 109.141 111.986 109.141C110.649 109.141 109.367 109.668 108.415 110.608C107.536 111.712 107.057 113.083 107.057 114.496C107.057 115.909 107.536 117.279 108.415 118.383C108.882 118.855 109.437 119.23 110.049 119.485C110.661 119.741 111.317 119.872 111.98 119.872C112.643 119.872 113.3 119.741 113.912 119.485C114.524 119.23 115.079 118.855 115.546 118.383C116.486 117.317 116.978 115.926 116.917 114.504ZM120.12 114.504C120.149 115.582 119.956 116.654 119.553 117.653C119.15 118.652 118.546 119.558 117.779 120.312C116.218 121.805 114.145 122.637 111.988 122.637C109.832 122.637 107.759 121.805 106.198 120.312C104.693 118.755 103.852 116.672 103.852 114.504C103.852 112.336 104.693 110.253 106.198 108.696C107.76 107.206 109.833 106.375 111.988 106.375C114.144 106.375 116.217 107.206 117.779 108.696C118.547 109.45 119.151 110.355 119.554 111.355C119.957 112.354 120.15 113.426 120.12 114.504Z" fill="#00579C"/>
<path d="M133.732 122.187H130.719V109.386H126.324V117.134C126.324 119.035 126.044 120.406 125.485 121.247C124.925 122.087 123.98 122.506 122.65 122.502C122.106 122.503 121.566 122.395 121.063 122.187V119.524C121.451 119.772 121.898 119.911 122.358 119.927C122.511 119.936 122.664 119.901 122.798 119.824C122.932 119.748 123.041 119.635 123.111 119.497C123.373 118.716 123.478 117.891 123.42 117.069V106.849H133.716L133.732 122.187Z" fill="#00579C"/>
<path d="M149.534 114.504C149.602 113.078 149.114 111.681 148.174 110.608C147.222 109.668 145.939 109.141 144.603 109.141C143.266 109.141 141.983 109.668 141.031 110.608C140.153 111.712 139.674 113.083 139.674 114.496C139.674 115.909 140.153 117.279 141.031 118.383C141.498 118.855 142.054 119.23 142.666 119.485C143.278 119.741 143.934 119.872 144.597 119.872C145.26 119.872 145.916 119.741 146.528 119.485C147.14 119.23 147.696 118.855 148.163 118.383C149.103 117.317 149.594 115.926 149.534 114.504ZM152.736 114.504C152.766 115.582 152.573 116.654 152.17 117.653C151.767 118.652 151.163 119.558 150.395 120.312C148.835 121.805 146.762 122.637 144.605 122.637C142.449 122.637 140.375 121.805 138.815 120.312C137.31 118.755 136.469 116.672 136.469 114.504C136.469 112.336 137.31 110.253 138.815 108.696C140.377 107.206 142.45 106.375 144.605 106.375C146.761 106.375 148.834 107.206 150.395 108.696C151.164 109.45 151.768 110.355 152.171 111.355C152.574 112.354 152.766 113.426 152.736 114.504Z" fill="#00579C"/>
<path d="M163.282 109.489H158.497V122.187H155.484V106.849H163.282V109.489Z" fill="#00579C"/>
<path d="M178.211 122.209H175.198V112.673L165.585 122.947V106.827H168.587V116.346L178.211 106.093V122.209Z" fill="#00579C"/>
<path d="M193.346 122.209H190.339V112.673L180.725 122.947V106.827H183.722V116.346L193.346 106.093V122.209Z" fill="#00579C"/>
<path d="M87.1128 85.0772L83.7422 77.4705L80.4149 85.0772H87.1128ZM96.9915 95.1886H91.5726L88.9931 89.3097H78.54L75.928 95.1886H70.509L83.7422 67.321L96.9915 95.1886Z" fill="#00579C"/>
<path d="M112.972 87.0603C112.972 84.4233 111.657 83.1048 109.027 83.1048H105.234V90.7115H108.593C111.513 90.7223 112.972 89.5053 112.972 87.0603ZM111.205 75.8079C111.205 73.9986 110.051 73.0912 107.759 73.0912H105.228V78.8505H108.48C110.297 78.8541 111.205 77.8399 111.205 75.8079ZM118.396 87.0603C118.442 88.0972 118.277 89.1326 117.912 90.1038C117.547 91.0751 116.989 91.962 116.272 92.711C114.636 94.3627 112.197 95.1886 108.957 95.1886H100.086V68.6304H108.019C113.687 68.6304 116.521 70.9523 116.521 75.596C116.521 77.8997 115.618 79.5587 113.812 80.5729C115.213 81.0115 116.422 81.9186 117.237 83.1429C118.013 84.2994 118.418 85.6664 118.396 87.0603Z" fill="#00579C"/>
<path d="M143.79 95.2266H138.577V78.7147L121.93 96.5035V68.5924H127.126V85.0717L143.79 67.321V95.2266Z" fill="#00579C"/>
<path d="M163.493 85.0772L160.123 77.4705L156.801 85.0772H163.493ZM173.377 95.1886H167.958L165.374 89.3097H154.926L152.335 95.1886H146.917L160.155 67.321L173.377 95.1886Z" fill="#00579C"/>
<path fill-rule="evenodd" clip-rule="evenodd" d="M112.246 50.8689L115.942 42.4798H128.541L132.247 50.8689H112.246Z" fill="#00579C"/>
<path d="M96.3087 55.1558L122.054 0.947449L147.832 55.1558H138.214L122.054 18.546L105.922 55.1558H96.3087Z" fill="#00579C"/>
<path d="M103.18 36.0848L92.678 19.4207V16.552H112.468L103.18 36.0848ZM94.3525 36.1934L84.2407 20.1325L20.4973 27.0926L0.0623779 16.5302H90.7434V19.9641L100.958 36.1934H94.3525ZM41.2466 37.8234L23.6078 28.7172L83.2165 22.1972L85.0318 25.0768L41.2466 37.8234ZM56.3492 45.6203L43.7501 39.1003L86.1265 26.7775L87.7522 29.3366L56.3492 45.6203ZM72.3677 53.8898L58.4626 46.7124L88.7709 30.9937L92.1199 36.313L72.3677 53.8898Z" fill="#00579C"/>
<path d="M140.918 36.0848L151.42 19.4207V16.552H131.63L140.918 36.0848ZM149.745 36.1934L159.857 20.1325L223.6 27.0926L244.062 16.5302H153.354V19.9641L143.123 36.1934H149.745ZM202.851 37.8234L220.49 28.7172L160.881 22.1972L159.066 25.0768L202.851 37.8234ZM187.738 45.6094L200.337 39.0894L157.96 26.7666L156.335 29.3257L187.738 45.6094ZM171.719 53.8789L185.624 46.7015L155.316 30.9829L151.967 36.3021L171.719 53.8789Z" fill="#00579C"/>
</svg>
