<svg xmlns="http://www.w3.org/2000/svg" width="300" height="42"  viewBox="0 0 2226.15 312.09"><defs><style>.cls-1{fill:#f5ed25;}.cls-2{fill:#242021;}</style></defs><title>logo</title><g id="Слой_2" data-name="Слой 2"><g id="Слой_1-2" data-name="Слой 1"><path class="cls-1" d="M1813,312.09q6.34-49.45,12.67-98.89c3.82-30,7.55-60,11.37-90q6.24-49,12.58-97.9c1.08-8.4,2.25-16.79,3.38-25.19q184.25,0,368.5-.09c3.75,0,5,.82,4.58,4.6a99.26,99.26,0,0,0-.08,10.49c-1.12.56-.92,1.65-1,2.61-.85,6.94-1.71,13.87-2.53,20.81q-4.73,40.15-9.44,80.31-4.22,35.94-8.42,71.88Q2199.8,231.34,2195,272c-1.6,13.38-3.31,26.74-5,40.11ZM1951.87,205c2.37-2.49,3.59-3.82,4.87-5.1,10.46-10.5,20.45-21.43,29.85-32.9,5.49-6.7,10.59-13.67,14-21.73,8.73-20.6,4.32-42.66-11.46-55.5-25.36-20.64-75.61-14-85.27,31.43a25.22,25.22,0,0,0-.08,10.9c1.52,6.75,7.17,12.26,13.49,13.06,8.21,1,12.19-1.05,16.33-8.43,3.26-5.8,4.59-12.51,8.52-18,4.57-6.35,11.25-8.59,17.4-5.91s9.1,9.24,7.69,16.7c-1.51,8-6,14.35-10.83,20.55-14.45,18.74-30.65,36-46.32,53.67-2.87,3.24-5.84,6.41-7.84,10.3-4.93,9.62-.58,19.41,9.81,22.39a28.57,28.57,0,0,0,7.9.94q33.23.07,66.45,0a33.81,33.81,0,0,0,12.24-2c7-2.69,10.45-7.35,10.37-14.24s-3.63-11.75-10.47-14.2a31.5,31.5,0,0,0-10.74-2C1976.35,205,1964.91,205,1951.87,205Zm165.43-65.36h-.21c0-9.66.35-19.34-.09-29-.5-11-4.14-20.68-14.39-26.36-13-7.23-28.23-3.08-37.21,10.76-13.86,21.36-27.22,43-40.69,64.65a48,48,0,0,0-7.36,22c-.84,10.92,5.11,18.9,15.88,20.54a51.07,51.07,0,0,0,7.45.57c13.5.05,27,.12,40.49,0,3.06,0,4,.8,3.92,3.9-.13,7-.6,14,.9,20.92,1,4.77,3.19,8.74,8,10.67,10.83,4.32,22.08-2.36,23-13.92a125.05,125.05,0,0,0,.19-16.48c-.2-3.78,1-5.3,4.79-5.51,5.35-.3,9.91-2.48,11.3-8.13,2.86-11.67-.66-20-12.58-21-3-.26-3.48-1.49-3.45-4.06C2117.36,159.29,2117.3,149.45,2117.3,139.62Z"/><path class="cls-2" d="M0,216.09q18.49-49.93,37-99.85c2.42-6.53,4.42-13.23,7.67-19.44,5.59-10.71,14-16.67,26.52-15.7,11.67.9,19,7.71,22.77,18.17,11.15,31.11,21.95,62.34,32.88,93.53,2.69,7.68,5.58,15.3,8,23,4.6,14.45-3.76,24.74-18.8,23.33-6.25-.58-10.27-4.36-13.12-9.57-3.63-6.62-5.14-14-7.43-21.12-.91-2.83-2-4-5.11-4-15.66.17-31.32.13-47,0-2.64,0-3.77.86-4.52,3.39C37,214.46,35,221,32.47,227.3,27.73,239.16,16.39,243,6.61,236.52,3.4,234.39,2,231.08,0,228.09ZM67.47,120C62,136.87,56.7,153.37,51.32,169.85c-.83,2.53-.45,3.53,2.54,3.47,8.8-.18,17.62-.24,26.42,0,3.95.12,4.29-1,3.16-4.48-4.47-13.7-8.65-27.5-13-41.24C69.66,125.16,69.45,122.44,67.47,120Z"/><path class="cls-2" d="M669.53,159c0,17.23-2.74,32-10.37,45.51-12,21.29-30.77,32.08-54.58,34.48-11.63,1.17-23.27.46-34.51-3.38-22.25-7.59-36.63-23-43.82-45a95.05,95.05,0,0,1-.79-57.54c8.9-29.8,28.94-47.63,60.13-51.37,32.32-3.87,61.59,9.14,75.9,39.48A87.15,87.15,0,0,1,669.53,159Zm-36.5-.24a54.44,54.44,0,0,0-3.18-20c-5.06-14.26-14.36-24-30.13-25.43-14.77-1.34-26.24,4.87-32.94,17.93-9.27,18.06-9.7,37.07-1.18,55.37,11.07,23.78,42.2,26.83,58.13,6.21C631.09,183.26,633.1,172.05,633,158.74Z"/><path class="cls-2" d="M1227.18,164.12c-.29,19-5.67,39.45-22.11,55.74-10.92,10.82-24.27,16.82-39.36,18.68-22.68,2.79-43.85-.83-61.63-16.45-12-10.58-19.14-24.13-22.37-39.69-3.9-18.77-3.53-37.47,3.39-55.5,10.62-27.66,31.18-43,60.55-45.52,26-2.25,48.83,5.09,65.41,26.53C1223.05,123.4,1227.21,141.51,1227.18,164.12ZM1117.84,161a52.14,52.14,0,0,0,4.25,23.43c5.92,13.24,15.81,21.26,30.72,21.76s26-6.21,32.15-19.44c8.72-18.72,8.3-37.9-1.32-56.21-6.21-11.82-16.77-17.74-30.34-17.44-13.41.3-22.94,7-29.27,18.5C1119.16,140.45,1117.68,150.09,1117.84,161Z"/><path class="cls-2" d="M279.08,155.62a2.91,2.91,0,0,0,2.05,1.54c17.74,6.77,24.65,17.93,22.29,39.58-2.57,23.58-18.57,38.09-43.52,40.19-17.1,1.44-34.29,1.1-51.42.25-13.14-.65-18.13-5.67-18.22-18.77q-.39-57,0-114c.11-15,6.67-21.39,21.63-21.25,16.61.15,33.32-1.66,49.83,1.77a57.79,57.79,0,0,1,12.73,4.23c21.39,10,29.09,35,17,55.35C288.53,149.53,284,152.81,279.08,155.62Zm-53.91,33.25c0,5,0,10,0,14.95,0,1.35-.62,3.33,1.82,3.24,9.58-.33,19.29,1.23,28.71-1.66,7.63-2.34,11.13-7.89,10.78-16.87-.36-9.54-4.07-14.53-12.23-16.33-8.87-2-17.87-.77-26.82-1.11-2.21-.08-2.32,1.18-2.31,2.84C225.2,178.91,225.17,183.89,225.17,188.87Zm.35-60.54h-.35c0,4,.09,8,0,12-.06,2.08.51,3,2.77,3,6.49-.17,13,.18,19.46-.36,9-.75,13.11-5.23,13.46-13.63s-4-13.63-12.6-15.2a38.25,38.25,0,0,0-7.93-.78c-4.92.15-11.52-2.2-14.28,1C223.64,117.11,225.52,123.53,225.52,128.33Z"/><path class="cls-2" d="M727,161.89q0-27.23,0-54.47c0-16.26,8-24.31,24.2-24.32q42.72,0,85.45,0c16.81,0,24.94,7.33,25.09,24.05.31,36.31.13,72.62,0,108.93a42.71,42.71,0,0,1-1.36,9.86c-2.27,9.34-7.42,13.36-16.58,13.32-8.73,0-13.65-4.15-16.06-13.35A50.4,50.4,0,0,1,826.5,213c0-31.31-.08-62.63.09-93.94,0-4-1.14-5-5-4.93q-27.48.3-55,0c-3.69,0-4.71.82-4.69,4.62.17,32.31.08,64.63.12,96.94a42.13,42.13,0,0,1-1.13,10.39c-2.22,8.83-7.63,13.14-16.32,13.14s-14.13-4.15-16.38-13A41.54,41.54,0,0,1,727,215.85C727,197.87,727,179.88,727,161.89Z"/><path class="cls-2" d="M1319.17,139.49c12.45-12.83,24-24.77,35.6-36.65,5.93-6.07,11.59-12.43,18.3-17.68,9-7,20.48-4.55,25.71,5.58,2.78,5.37,2.44,10.73-1.59,15.37-4.26,4.89-8.71,9.63-13.31,14.21-9.78,9.77-19.63,19.47-29.63,29-2.54,2.42-2.9,3.77-.32,6.61,14.66,16.14,29.07,32.51,43.55,48.8a45.37,45.37,0,0,1,7.87,11.48c3.31,7.39,1.73,14.21-4.41,19.27a16.2,16.2,0,0,1-20.29.66,57.1,57.1,0,0,1-9.19-9.14c-14.21-16.55-28.38-33.13-42.7-49.58-1.16-1.33-1.74-4.8-4.65-3.07-2.58,1.54-5.19,3.09-5.07,7.19.34,11,.1,22,.12,33,0,5-.38,10-2.23,14.72-2.59,6.62-7.4,9.89-14.57,10-8.18.13-13-2.7-15.89-9.53a36.11,36.11,0,0,1-2.5-14.16q0-55.23,0-110.46a43.69,43.69,0,0,1,1.33-10.88c2.27-8.88,7.66-13.15,16.32-13.14s14,4.34,16.3,13.22c1.68,6.38,1.19,12.9,1.22,19.39C1319.2,121.84,1319.17,130,1319.17,139.49Z"/><path class="cls-2" d="M1581.63,239.27c-9.51.17-14.76-4.1-17.69-11.05a183.56,183.56,0,0,1-6.78-19.78c-.86-2.94-2.08-3.93-5.14-3.9q-23.24.23-46.49,0c-3.14,0-4.26,1.12-5.16,3.93-2.38,7.42-4,15.13-7.76,22-4.14,7.71-11.72,10.65-19.92,8.15-7.44-2.27-11.75-9-11.13-17.42a37.79,37.79,0,0,1,2.29-10.67c5.15-13.67,10.1-27.42,15.15-41.12q12-32.49,24-65a53.87,53.87,0,0,1,5.4-11.2C1520,75.59,1544.6,76.79,1554,95.8c6,12.08,9.33,25.21,13.85,37.87,9.42,26.43,18.55,53,27.79,79.47.55,1.57,1.07,3.15,1.47,4.76C1600.21,230.39,1593.12,239.33,1581.63,239.27Zm-69.64-66c10.9,0,21.35,0,31.8,0,3.68,0,1.88-2.18,1.42-3.65q-5.87-19-11.84-38c-1.19-3.79-2.39-7.57-4-12.55Z"/><path class="cls-2" d="M915.49,161q0-26.47,0-52.95c0-1.17,0-2.33,0-3.5.61-15.36,6.56-21.45,22-21.41,15,0,30-1,44.9.68,29.13,3.23,49.4,24.92,45.17,60-3.29,27.28-20.82,42.77-48.57,44-8.14.36-16.32.34-24.46.12-3.39-.09-4.05,1-4.06,4.19,0,10.15.75,20.32-.45,30.43-1.37,11.52-7.51,17-18.33,16.63-7-.22-12.06-4-14.39-11a40.05,40.05,0,0,1-1.77-12.79Q915.5,188.25,915.49,161Zm35-25.5c0,5.67,0,11.33,0,17,0,1.62-.36,3.49,2.31,3.41,7.48-.22,15,.68,22.4-1,9.21-2.13,14.44-9,14.61-18.88s-4.73-16.68-14.16-19.09c-7.52-1.92-15.22-1.2-22.86-1.35-2.66,0-2.3,1.81-2.3,3.44C950.48,124.53,950.49,130,950.49,135.53Z"/><path class="cls-2" d="M1726,170.1v48a30.53,30.53,0,0,1-1.7,9.79c-2.65,7.86-7.45,11.37-15.56,11.4-8.54,0-13.31-3.39-16-11.48A40,40,0,0,1,1691,215c0-31.49,0-63,.1-94.47,0-3.6-.66-4.84-4.55-4.72-7.45.25-15,.76-22.29-1.63-7.5-2.45-11.16-6.89-11.25-14-.1-8,3.24-12.64,11-15.23a37,37,0,0,1,11.78-1.88q33,0,66,0A36,36,0,0,1,1754,85.23c6.87,2.49,10.19,7.27,10.2,14.36s-3.34,11.84-10.25,14.31c-6.23,2.23-12.75,2.1-19.26,2-8.49-.06-8.49,0-8.49,8.67q0,22.74,0,45.48Z"/><path class="cls-2" d="M398.83,169.33c0-16.33-.09-32.66.08-49,0-3.39-.71-4.63-4.34-4.51-6.47.22-13,.49-19.43-.77-10.2-2-14.77-7.42-14.31-17.1.28-5.76,3.27-9.59,8.37-12a33.13,33.13,0,0,1,14.07-2.88q33.24-.09,66.48,0a33.48,33.48,0,0,1,13.14,2.6c6.22,2.65,9.18,7.42,9.11,14.11-.07,6.51-3.15,11-9.17,13.54-7.31,3.1-15,2.91-22.62,2.42-5.38-.35-6.36,1.49-6.32,6.51.25,30.15.12,60.31.13,90.47,0,5.35-.28,10.66-2.1,15.75-2.66,7.4-7.57,10.74-15.58,10.74-8.2,0-12.66-3.1-15.54-10.7a35.42,35.42,0,0,1-2-12.74Q398.85,192.57,398.83,169.33Z"/><path class="cls-2" d="M1951.87,205c13,0,24.48,0,35.92,0a31.5,31.5,0,0,1,10.74,2c6.84,2.45,10.39,7.28,10.47,14.2s-3.38,11.55-10.37,14.24a33.81,33.81,0,0,1-12.24,2q-33.23.07-66.45,0a28.57,28.57,0,0,1-7.9-.94c-10.39-3-14.75-12.77-9.81-22.39,2-3.89,5-7.06,7.84-10.3,15.67-17.69,31.87-34.93,46.32-53.67,4.78-6.2,9.32-12.59,10.83-20.55,1.41-7.46-1.6-14-7.69-16.7s-12.83-.44-17.4,5.91c-3.94,5.47-5.27,12.18-8.52,18-4.14,7.37-8.12,9.48-16.33,8.43-6.32-.8-12-6.31-13.49-13.06a25.22,25.22,0,0,1,.08-10.9c9.66-45.43,59.91-52.07,85.27-31.43,15.78,12.84,20.19,34.9,11.46,55.5-3.41,8.06-8.52,15-14,21.73-9.39,11.47-19.38,22.4-29.85,32.9C1955.46,201.16,1954.24,202.49,1951.87,205Z"/><path class="cls-2" d="M2117.3,139.62c0,9.83.06,19.66,0,29.49,0,2.57.47,3.79,3.45,4.06,11.92,1.05,15.45,9.38,12.58,21-1.39,5.65-5.94,7.83-11.3,8.13-3.81.21-5,1.73-4.79,5.51a125.05,125.05,0,0,1-.19,16.48c-.92,11.56-12.18,18.24-23,13.92-4.84-1.93-7-5.9-8-10.67-1.5-6.91-1-13.94-.9-20.92.06-3.1-.86-3.94-3.92-3.9-13.5.16-27,.1-40.49,0a51.07,51.07,0,0,1-7.45-.57c-10.77-1.64-16.71-9.62-15.88-20.54a48,48,0,0,1,7.36-22c13.47-21.61,26.83-43.29,40.69-64.65,9-13.84,24.17-18,37.21-10.76,10.25,5.68,13.89,15.39,14.39,26.36.44,9.64.09,19.32.09,29ZM2085,114.81,2048.87,173c11.8,0,22.58,0,33.36,0,2.25,0,2.81-.87,2.8-2.94C2085,152.16,2085,134.24,2085,114.81Z"/><path class="cls-1" d="M2085,114.81c0,19.43,0,37.35,0,55.27,0,2.07-.55,3-2.8,2.94-10.78-.09-21.56,0-33.36,0Z"/></g></g></svg>