<?xml version="1.0" encoding="iso-8859-1"?>
<!-- Generator: Adobe Illustrator 19.0.0, SVG Export Plug-In . SVG Version: 6.00 Build 0)  -->
<svg xmlns="http://www.w3.org/2000/svg" xmlns:xlink="http://www.w3.org/1999/xlink" version="1.1" id="Capa_1" x="0px" y="0px" viewBox="0 0 480 480" style="enable-background:new 0 0 480 480;" xml:space="preserve" width="512px" height="512px">
<g>
	<g>
		<path d="M440,239.997c4.416,0,8-3.584,8-8v-24h24c4.416,0,8-3.584,8-8v-32c0-2.632-1.296-5.096-3.456-6.584l-232-160    c-2.736-1.88-6.352-1.88-9.088,0l-232,160C1.296,162.901,0,165.365,0,167.997v32c0,4.416,3.584,8,8,8h24v24c0,4.416,3.584,8,8,8h8    v160h-8c-4.416,0-8,3.584-8,8v24H8c-4.416,0-8,3.584-8,8v32c0,4.416,3.584,8,8,8h464c4.416,0,8-3.584,8-8v-32c0-4.416-3.584-8-8-8    h-24v-24c0-4.416-3.584-8-8-8h-8v-160H440z M240,17.717l206.312,142.28H33.688L240,17.717z M40,191.997H16v-16h448v16h-24h-80H120    H40z M424,415.997h8v16h-64v-16h8H424z M384,399.997v-160h32v160H384z M368,399.997h-8c-4.416,0-8,3.584-8,8v24h-24v-110.56    c0-33.544-18.64-63.704-48.648-78.712c-24.648-12.312-54.072-12.312-78.712,0c-30,15.008-48.64,45.168-48.64,78.712v110.56h-24    v-24c0-4.416-3.584-8-8-8h-8v-160h8c4.416,0,8-3.584,8-8v-24h224v24c0,4.416,3.584,8,8,8h8V399.997z M312,321.437v110.56H168    v-110.56c0-27.448,15.248-52.12,39.8-64.4c20.168-10.08,44.24-10.08,64.4,0C296.752,269.317,312,293.997,312,321.437z M56,223.997    h-8v-16h64v16h-8H56z M96,239.997v160H64v-160H96z M48,415.997h8h48h8v16H48V415.997z M440,447.997h24v16H16v-16h24h80h40h160h40    H440z M424,223.997h-48h-8v-16h64v16H424z" fill="#b50000"/>
	</g>
</g>
<g>
	<g>
		<path d="M240,63.997c-22.056,0-40,17.944-40,40c0,22.056,17.944,40,40,40c22.056,0,40-17.944,40-40    C280,81.941,262.056,63.997,240,63.997z M240,127.997c-13.232,0-24-10.768-24-24s10.768-24,24-24s24,10.768,24,24    S253.232,127.997,240,127.997z" fill="#b50000"/>
	</g>
</g>
<g>
	<g>
		<path d="M260.8,353.597l-28.032-21.024c1.288-2.704,4.048-4.576,7.232-4.576c4.408,0,8,3.592,8,8h16    c0-10.416-6.712-19.216-16-22.528v-9.472h-16v9.472c-9.288,3.312-16,12.112-16,22.528c0,2.52,1.184,4.888,3.2,6.4l28.032,21.024    c-1.288,2.704-4.048,4.576-7.232,4.576c-4.408,0-8-3.592-8-8h-16c0,10.416,6.712,19.216,16,22.528v9.472h16v-9.472    c9.288-3.312,16-12.112,16-22.528C264,357.477,262.816,355.109,260.8,353.597z" fill="#b50000"/>
	</g>
</g>
<g>
</g>
<g>
</g>
<g>
</g>
<g>
</g>
<g>
</g>
<g>
</g>
<g>
</g>
<g>
</g>
<g>
</g>
<g>
</g>
<g>
</g>
<g>
</g>
<g>
</g>
<g>
</g>
<g>
</g>
</svg>
