<?xml version="1.0" encoding="iso-8859-1"?>
<!-- Generator: Adobe Illustrator 19.0.0, SVG Export Plug-In . SVG Version: 6.00 Build 0)  -->
<svg xmlns="http://www.w3.org/2000/svg" xmlns:xlink="http://www.w3.org/1999/xlink" version="1.1" id="Capa_1" x="0px" y="0px" viewBox="0 0 480 480" style="enable-background:new 0 0 480 480;" xml:space="preserve" width="512px" height="512px">
<g>
	<g>
		<path d="M480,352v-80c0-21.008-32.192-32-64-32c-11.008,0-21.76,1.328-31.176,3.8l-0.952-5.232    c-0.344-1.896-1.368-3.608-2.872-4.824l-12.968-10.368c2.584,0.368,5.232,0.624,7.968,0.624c23.12,0,48-7.504,48-24    c0-16.496-24.88-24-48-24c-5.744,0-11.192,0.928-16.232,2.36l7.392-14.784c1.24-2.48,1.104-5.424-0.352-7.784S362.776,152,360,152    h-96c-2.776,0-5.344,1.44-6.808,3.8c-1.464,2.36-1.592,5.304-0.352,7.784l21.112,42.216L243,233.752    c-1.504,1.208-2.528,2.92-2.872,4.824l-0.952,5.232C229.76,241.328,219.008,240,208,240c-31.808,0-64,10.992-64,32v80    c0,6.232,2.88,11.56,7.696,16H88c-4.416,0-8,3.576-8,8v32v32v32c0,4.424,3.584,8,8,8h144h96h144c4.416,0,8-3.576,8-8v-32v-32v-32    c0-4.336-3.456-7.808-7.752-7.952C477.096,363.6,480,358.256,480,352z M376,192c18.776,0,29.736,5.384,31.8,8    c-2.064,2.616-13.024,8-31.8,8c-10.328,0-19.784-4.224-26.152-8C356.584,196,365.856,192,376,192z M276.944,168h70.112    l-11.84,23.68l-3.512,7.024L331.056,200h-38.112L276.944,168z M208,256c10.168,0,19.976,1.256,28.312,3.584l-4.72,25.952    c-0.224,0.048-0.44,0.112-0.664,0.16c-3.168,0.664-6.488,1.184-9.904,1.56c-0.696,0.08-1.4,0.136-2.104,0.2    c-3.576,0.32-7.208,0.544-10.92,0.544c-29.776,0-48-10.36-48-16S178.224,256,208,256z M160,293.872    c0.144,0.08,0.312,0.136,0.456,0.208c1.8,0.96,3.736,1.832,5.752,2.656c0.44,0.176,0.872,0.36,1.328,0.536    c2.256,0.864,4.616,1.656,7.08,2.36c0.112,0.032,0.232,0.064,0.352,0.096C185.008,302.544,196.52,304,208,304    c0.624,0,1.232-0.048,1.856-0.056c0.744-0.008,1.48-0.048,2.232-0.072c2.144-0.064,4.272-0.152,6.376-0.32    c1.112-0.08,2.2-0.2,3.296-0.312c1.752-0.176,3.48-0.376,5.184-0.624c0.52-0.072,1.064-0.112,1.576-0.192l-0.04,0.216    l-0.376-0.072l-3.976,21.84c-0.04,0.24-0.08,0.488-0.096,0.736c-5.16,0.464-10.568,0.696-16.032,0.696    c-28.168,0-44.944-5.872-48-9.128V293.872z M224,464H96v-16h128V464z M224,432H96v-16h128V432z M224,400H96v-16h128V400z M208,368    c-29.776,0-48-10.36-48-16v-17.288c17.52,6.8,43.696,7.136,48,7.136c7.36,0,14.504-0.528,21.328-1.296l11.272,22.544    C231.664,366.176,220.048,368,208,368z M320,408v32v24h-80v-24v-32v-24h48h32V408z M328,368h-39.128    c-3.392-1.048-15.904-6.128-28.912-11.616c-0.008-0.008-0.016-0.016-0.032-0.016l-6.088-2.576l-10.872-21.736    c0.032-1.288-0.216-2.584-0.808-3.768l-1.528-3.056l1.568-8.64l4.192-23.04l5.792-31.888l3.144-17.28L290.808,216h42.384    l35.472,28.376l3.144,17.28l5.792,31.888l4.192,23.04l1.856,10.224l-1.28,2.56L370.2,353.704l-2.056,0.824l-4.12,1.648    c-0.008,0-0.016,0.008-0.016,0.008L334.464,368H328z M464,464H336v-16h128V464z M464,432H336v-16h128V432z M464,400H336v-16h128    V400z M464,352c0,5.64-18.224,16-48,16c-12.064,0-23.672-1.816-32.6-4.904l10.584-21.168C402,343.272,410.848,344,420,344    c15.344,0,32.096-1.944,44-6.688V352z M464,319.048c-2.68,3.176-18.048,8.952-44,8.952c-7.032,0-13.848-0.456-20.112-1.32    c-0.008-0.04-0.008-0.072-0.016-0.112l-3.752-20.648l-0.632-3.496c0.512,0.08,1.056,0.112,1.568,0.192    c1.728,0.248,3.48,0.448,5.256,0.632c1.064,0.104,2.112,0.224,3.184,0.304c2.176,0.168,4.376,0.264,6.592,0.328    c0.664,0.016,1.328,0.056,1.992,0.064c0.64,0.008,1.272,0.056,1.92,0.056c11.512,0,23.048-1.464,33.12-4.296    c0.08-0.024,0.152-0.04,0.232-0.064c2.48-0.704,4.856-1.504,7.128-2.376c0.44-0.168,0.864-0.344,1.288-0.52    c2.024-0.824,3.968-1.704,5.776-2.664c0.144-0.072,0.312-0.128,0.456-0.208V319.048z M416,288c-3.712,0-7.344-0.224-10.92-0.552    c-0.704-0.064-1.408-0.12-2.104-0.2c-3.416-0.376-6.728-0.888-9.904-1.56c-0.224-0.048-0.44-0.112-0.664-0.16l-4.72-25.952    C396.024,257.256,405.832,256,416,256c29.776,0,48,10.36,48,16S445.776,288,416,288z" fill="#b50000"/>
	</g>
</g>
<g>
	<g>
		<path d="M332.8,297.6l-28.032-21.024c1.288-2.704,4.048-4.576,7.232-4.576c4.408,0,8,3.584,8,8h16c0-13.232-10.768-24-24-24    s-24,10.768-24,24c0,2.512,1.184,4.888,3.2,6.4l28.032,21.024C317.944,310.128,315.184,312,312,312c-4.408,0-8-3.584-8-8h-16    c0,10.416,6.712,19.216,16,22.528V336h16v-9.472c9.288-3.312,16-12.112,16-22.528C336,301.488,334.816,299.112,332.8,297.6z" fill="#b50000"/>
	</g>
</g>
<g>
	<g>
		<polygon points="304,248 304,256 312,256 320,256 320,248   " fill="#b50000"/>
	</g>
</g>
<g>
	<g>
		<path d="M112,0C50.24,0,0,50.24,0,112s50.24,112,112,112s112-50.24,112-112S173.76,0,112,0z M112,208c-52.936,0-96-43.064-96-96    c0-52.936,43.064-96,96-96c52.936,0,96,43.064,96,96C208,164.936,164.936,208,112,208z" fill="#b50000"/>
	</g>
</g>
<g>
	<g>
		<polygon points="157.656,77.656 146.344,66.344 112,100.688 77.656,66.344 66.344,77.656 100.688,112 66.344,146.344     77.656,157.656 112,123.312 146.344,157.656 157.656,146.344 123.312,112   " fill="#b50000"/>
	</g>
</g>
<g>
</g>
<g>
</g>
<g>
</g>
<g>
</g>
<g>
</g>
<g>
</g>
<g>
</g>
<g>
</g>
<g>
</g>
<g>
</g>
<g>
</g>
<g>
</g>
<g>
</g>
<g>
</g>
<g>
</g>
</svg>
