<?xml version="1.0" encoding="iso-8859-1"?>
<!-- Generator: Adobe Illustrator 19.0.0, SVG Export Plug-In . SVG Version: 6.00 Build 0)  -->
<svg xmlns="http://www.w3.org/2000/svg" xmlns:xlink="http://www.w3.org/1999/xlink" version="1.1" id="Capa_1" x="0px" y="0px" viewBox="0 0 480 480" style="enable-background:new 0 0 480 480;" xml:space="preserve" width="512px" height="512px">
<g>
	<g>
		<path d="M279.6,413.464l-30.08-90.2l18.912-12.608l-8.872-13.312L240,310.384l-19.56-13.04l-8.872,13.312l18.912,12.608    l-30.064,90.2c-1.088,3.272,0.032,6.864,2.792,8.928l32,24c1.424,1.064,3.112,1.6,4.8,1.6c1.688,0,3.376-0.536,4.8-1.6l32-24    C279.56,420.328,280.688,416.728,279.6,413.464z M240,430l-22.584-16.944L240,345.296l22.584,67.76L240,430z" fill="#b50000"/>
	</g>
</g>
<g>
	<g>
		<path d="M448.856,273.064C453.36,265.76,456,257.192,456,248v-56c0-4.416-3.584-8-8-8h-80c-4.416,0-8,3.584-8,8v56    c0,9.192,2.64,17.76,7.144,25.064c-11.68,2.664-21.32,10.472-26.64,20.888c-11.496-15.16-27.456-26.76-46.072-32.944    C314.84,244.88,328,219.976,328,192v-8.968c16-3.656,28-17.936,28-35.032s-12-31.376-28-35.032V104c0-30.88-25.12-56-56-56H120    c-4.416,0-8,3.584-8,8v16c0,23.736,17.336,43.448,40,47.28V192c0,27.976,13.16,52.88,33.568,69.016    c-18.616,6.184-34.576,17.784-46.072,32.944c-5.32-10.416-14.96-18.224-26.64-20.888C117.36,265.76,120,257.192,120,248v-56    c0-4.416-3.584-8-8-8H32c-4.416,0-8,3.584-8,8v56c0,9.192,2.64,17.76,7.144,25.064C13.352,277.12,0,293,0,312v160    c0,4.416,3.584,8,8,8h120h224h120c4.416,0,8-3.584,8-8V312C480,293,466.648,277.12,448.856,273.064z M328,129.672    c7.056,3.088,12,10.144,12,18.328s-4.944,15.24-12,18.328V129.672z M40,200h64v28.688L84.688,248H64v16h24    c2.12,0,4.16-0.84,5.656-2.344l9.968-9.968c-1.04,8.944-5.704,16.728-12.568,21.872c-0.016,0.016-0.04,0.016-0.056,0.032    c-1.312,0.976-2.688,1.808-4.096,2.56c-0.176,0.096-0.344,0.192-0.52,0.28c-1.368,0.696-2.776,1.28-4.208,1.76    c-0.24,0.08-0.488,0.152-0.736,0.232c-6.152,1.912-12.744,1.912-18.896,0c-0.248-0.08-0.488-0.144-0.728-0.224    c-1.432-0.488-2.84-1.064-4.208-1.76c-0.176-0.088-0.344-0.192-0.52-0.28c-1.408-0.752-2.784-1.584-4.096-2.56    c-0.016-0.016-0.04-0.016-0.056-0.032C45.136,267.712,40,258.48,40,248V200z M86.96,388.408L72,398.384l-14.96-9.976L72,323.576    L86.96,388.408z M128,313.744c-2.504,5.776-4.472,11.816-5.808,18.104c-0.064,0.304-0.152,0.608-0.216,0.912    c-0.536,2.648-0.944,5.336-1.256,8.048c-0.064,0.536-0.176,1.072-0.224,1.608c-0.32,3.16-0.496,6.352-0.496,9.584v112H16V312    c0-13.232,10.768-24,24-24h5.52c4.984,3.312,10.608,5.72,16.656,6.984L40.2,390.2c-0.744,3.248,0.592,6.616,3.36,8.456l24,16    C68.904,415.552,70.456,416,72,416s3.096-0.448,4.44-1.344l24-16c2.768-1.84,4.104-5.208,3.36-8.456l-21.976-95.216    c6.048-1.264,11.672-3.672,16.656-6.984H104c13.232,0,24,10.768,24,24V313.744z M128,72v-8h144c22.056,0,40,17.944,40,40v16    v47.192c-18.232-3.712-32-19.88-32-39.192v-16c0-4.416-3.584-8-8-8H160C142.352,104,128,89.648,128,72z M168,192v-72h96v8    c0,25.048,16.528,46.296,39.248,53.44L276.688,208H216v16h64c2.12,0,4.16-0.84,5.656-2.344l26.168-26.168    c-1.328,27.48-18.08,50.928-41.816,61.872c-2.336,1.072-4.704,2.032-7.112,2.84c-0.008,0-0.008,0.008-0.016,0.008    c-14.864,5.016-30.888,5.016-45.752,0c-0.008,0-0.008-0.008-0.016-0.008c-2.408-0.816-4.776-1.768-7.112-2.84    C185.256,245.96,168,220.984,168,192z M344,464H136V352c0-2.736,0.16-5.456,0.44-8.152c0.056-0.552,0.16-1.096,0.224-1.64    c0.28-2.248,0.624-4.488,1.096-6.704c0.08-0.36,0.168-0.72,0.248-1.08c1.216-5.312,2.952-10.52,5.264-15.592    c0.04-0.08,0.024-0.176,0.056-0.256c11.12-24.224,33.96-42.048,61.8-45.816C215.832,277.4,227.616,280,240,280    c12.384,0,24.168-2.6,34.864-7.24c27.84,3.768,50.68,21.592,61.8,45.816c0.032,0.08,0.016,0.176,0.056,0.256    c2.32,5.064,4.056,10.28,5.264,15.592c0.08,0.36,0.176,0.712,0.248,1.08c0.472,2.216,0.816,4.456,1.096,6.704    c0.064,0.552,0.168,1.088,0.224,1.64C343.84,346.544,344,349.264,344,352V464z M376,200h64v28.688L420.688,248H400v16h24    c2.12,0,4.16-0.84,5.656-2.344l9.968-9.968c-1.04,8.944-5.704,16.728-12.568,21.872c-0.016,0.016-0.04,0.016-0.056,0.032    c-1.312,0.976-2.688,1.808-4.096,2.56c-0.176,0.096-0.344,0.192-0.52,0.28c-1.368,0.696-2.776,1.28-4.208,1.76    c-0.24,0.08-0.488,0.152-0.736,0.232c-6.152,1.912-12.744,1.912-18.896,0c-0.248-0.08-0.488-0.144-0.728-0.224    c-1.432-0.488-2.84-1.064-4.208-1.76c-0.176-0.088-0.344-0.192-0.52-0.28c-1.408-0.752-2.784-1.584-4.096-2.56    c-0.016-0.016-0.04-0.016-0.056-0.032C381.136,267.712,376,258.48,376,248V200z M422.96,388.408L408,398.384l-14.96-9.976    L408,323.576L422.96,388.408z M464,464H360V352c0-3.232-0.176-6.424-0.488-9.584c-0.056-0.536-0.16-1.072-0.224-1.608    c-0.312-2.72-0.72-5.408-1.256-8.048c-0.064-0.304-0.152-0.608-0.216-0.912c-1.336-6.288-3.304-12.328-5.808-18.104V312    c0-13.232,10.768-24,24-24h5.52c4.984,3.312,10.608,5.72,16.656,6.984L376.208,390.2c-0.744,3.248,0.592,6.616,3.36,8.456l24,16    c1.336,0.896,2.888,1.344,4.432,1.344s3.096-0.448,4.44-1.344l24-16c2.768-1.84,4.104-5.208,3.36-8.456l-21.976-95.216    c6.048-1.264,11.672-3.672,16.656-6.984H440c13.232,0,24,10.768,24,24V464z" fill="#b50000"/>
	</g>
</g>
<g>
	<g>
		<rect x="400" y="152" width="16" height="16" fill="#b50000"/>
	</g>
</g>
<g>
	<g>
		<rect x="400" y="120" width="16" height="16" fill="#b50000"/>
	</g>
</g>
<g>
	<g>
		<rect x="432" y="120" width="16" height="16" fill="#b50000"/>
	</g>
</g>
<g>
	<g>
		<rect x="368" y="120" width="16" height="16" fill="#b50000"/>
	</g>
</g>
<g>
	<g>
		<rect x="64" y="152" width="16" height="16" fill="#b50000"/>
	</g>
</g>
<g>
	<g>
		<rect x="64" y="120" width="16" height="16" fill="#b50000"/>
	</g>
</g>
<g>
	<g>
		<rect x="96" y="120" width="16" height="16" fill="#b50000"/>
	</g>
</g>
<g>
	<g>
		<rect x="32" y="120" width="16" height="16" fill="#b50000"/>
	</g>
</g>
<g>
	<g>
		<rect x="368" y="32" width="16" height="16" fill="#b50000"/>
	</g>
</g>
<g>
	<g>
		<rect x="400" y="32" width="16" height="16" fill="#b50000"/>
	</g>
</g>
<g>
	<g>
		<rect x="432" y="32" width="16" height="16" fill="#b50000"/>
	</g>
</g>
<g>
	<g>
		<path d="M472,0H344c-4.416,0-8,3.584-8,8v64c0,4.416,3.584,8,8,8h20.688l-10.344,10.344c-2.504,2.504-3.064,6.36-1.368,9.48    c1.416,2.608,4.136,4.176,7.024,4.176c0.552,0,1.12-0.056,1.672-0.176l112-24C477.36,79.032,480,75.776,480,72V8    C480,3.584,476.416,0,472,0z M464,65.528l-79.184,16.968l4.84-4.84c2.288-2.288,2.976-5.728,1.736-8.72    C390.152,65.952,387.232,64,384,64h-32V16h112V65.528z" fill="#b50000"/>
	</g>
</g>
<g>
</g>
<g>
</g>
<g>
</g>
<g>
</g>
<g>
</g>
<g>
</g>
<g>
</g>
<g>
</g>
<g>
</g>
<g>
</g>
<g>
</g>
<g>
</g>
<g>
</g>
<g>
</g>
<g>
</g>
</svg>
