<?xml version="1.0" encoding="UTF-8" standalone="no"?>
<!-- Generator: Adobe Illustrator 16.0.0, SVG Export Plug-In . SVG Version: 6.00 Build 0)  -->

<svg
   xmlns:dc="http://purl.org/dc/elements/1.1/"
   xmlns:cc="http://creativecommons.org/ns#"
   xmlns:rdf="http://www.w3.org/1999/02/22-rdf-syntax-ns#"
   xmlns:svg="http://www.w3.org/2000/svg"
   xmlns="http://www.w3.org/2000/svg"
   xmlns:sodipodi="http://sodipodi.sourceforge.net/DTD/sodipodi-0.dtd"
   xmlns:inkscape="http://www.inkscape.org/namespaces/inkscape"
   version="1.1"
   id="Capa_1"
   x="0px"
   y="0px"
   width="305.308px"
   height="305.308px"
   viewBox="0 0 305.308 305.308"
   style="enable-background:new 0 0 305.308 305.308;"
   xml:space="preserve"
   sodipodi:docname="header-i-2.svg"
   inkscape:version="0.92.1 r15371"><metadata
     id="metadata47"><rdf:RDF><cc:Work
         rdf:about=""><dc:format>image/svg+xml</dc:format><dc:type
           rdf:resource="http://purl.org/dc/dcmitype/StillImage" /><dc:title></dc:title></cc:Work></rdf:RDF></metadata><defs
     id="defs45" /><sodipodi:namedview
     pagecolor="#ffffff"
     bordercolor="#666666"
     borderopacity="1"
     objecttolerance="10"
     gridtolerance="10"
     guidetolerance="10"
     inkscape:pageopacity="0"
     inkscape:pageshadow="2"
     inkscape:window-width="640"
     inkscape:window-height="480"
     id="namedview43"
     showgrid="false"
     inkscape:zoom="0.77298986"
     inkscape:cx="152.65401"
     inkscape:cy="152.65401"
     inkscape:window-x="0"
     inkscape:window-y="0"
     inkscape:window-maximized="0"
     inkscape:current-layer="Capa_1" /><g
     id="g10"><g
       id="g8"><path
         d="M91.699,44.068c-5.181-4.469-11.91-7.185-19.286-7.185c-16.329,0-29.564,13.241-29.564,29.567    c0,4.427,1.002,8.616,2.747,12.386C58.378,64.341,74.042,52.441,91.699,44.068z"
         id="path2" /><path
         d="M152.656,305.308c72.993,0,132.169-59.176,132.169-132.167c0-65.368-47.463-119.611-109.808-130.245v-5.375v-5.383V18.124    h11.465c3.79,0,6.866-4.055,6.866-9.062c0-5.004-3.076-9.062-6.866-9.062h-67.658c-3.795,0-6.872,4.058-6.872,9.062    c0,5.007,3.076,9.062,6.872,9.062h11.459v14.009v5.383v5.375c-11.131,1.9-21.777,5.186-31.771,9.683    c-18.077,8.129-33.989,20.187-46.652,35.108c-19.555,23.042-31.379,52.858-31.379,85.454    C20.487,246.132,79.663,305.308,152.656,305.308z M74.79,95.899c7.438-7.498,15.943-13.93,25.277-19.045    c15.625-8.57,33.546-13.463,52.594-13.463c60.52,0,109.748,49.234,109.748,109.75c0,60.518-49.229,109.751-109.748,109.751    c-60.517,0-109.75-49.233-109.75-109.751C42.906,143.043,55.098,115.747,74.79,95.899z"
         id="path4" /><path
         d="M86.296,239.499c4.246,4.246,8.898,8.088,13.888,11.459c2.496,1.683,5.08,3.257,7.736,4.696    c13.297,7.224,28.536,11.33,44.731,11.33c2.025,0,4.034-0.067,6.025-0.197c9.963-0.626,19.506-2.812,28.387-6.317    c3.552-1.397,7-3.014,10.324-4.82c2.662-1.444,5.24-3.009,7.736-4.696c4.992-3.377,9.642-7.208,13.888-11.46    c16.984-16.983,27.485-40.44,27.485-66.357c0-25.914-10.501-49.378-27.485-66.36c-4.246-4.248-8.896-8.085-13.888-11.459    c-2.496-1.686-5.079-3.254-7.736-4.699c-3.324-1.807-6.772-3.412-10.324-4.818c-8.876-3.5-18.424-5.69-28.387-6.319    c-1.991-0.13-4-0.192-6.025-0.192c-16.2,0-31.434,4.104-44.731,11.325c-2.662,1.444-5.24,3.014-7.736,4.699    c-4.994,3.373-9.647,7.21-13.888,11.459c-16.984,16.981-27.488,40.441-27.488,66.36C58.813,199.058,69.317,222.515,86.296,239.499    z M152.656,98.462v70.309l-70.682,27.165C69.462,147.196,103.676,98.462,152.656,98.462z"
         id="path6" /></g></g><g
     id="g12" /><g
     id="g14" /><g
     id="g16" /><g
     id="g18" /><g
     id="g20" /><g
     id="g22" /><g
     id="g24" /><g
     id="g26" /><g
     id="g28" /><g
     id="g30" /><g
     id="g32" /><g
     id="g34" /><g
     id="g36" /><g
     id="g38" /><g
     id="g40" /></svg>