<?xml version="1.0" encoding="UTF-8" standalone="no"?>
<!-- Generator: Adobe Illustrator 18.1.1, SVG Export Plug-In . SVG Version: 6.00 Build 0)  -->

<svg
   xmlns:dc="http://purl.org/dc/elements/1.1/"
   xmlns:cc="http://creativecommons.org/ns#"
   xmlns:rdf="http://www.w3.org/1999/02/22-rdf-syntax-ns#"
   xmlns:svg="http://www.w3.org/2000/svg"
   xmlns="http://www.w3.org/2000/svg"
   xmlns:sodipodi="http://sodipodi.sourceforge.net/DTD/sodipodi-0.dtd"
   xmlns:inkscape="http://www.inkscape.org/namespaces/inkscape"
   version="1.1"
   id="Capa_1"
   x="0px"
   y="0px"
   viewBox="0 0 23.382 23.382"
   style="enable-background:new 0 0 23.382 23.382;"
   xml:space="preserve"
   sodipodi:docname="header-i-1.svg"
   inkscape:version="0.92.1 r15371"><metadata
     id="metadata77"><rdf:RDF><cc:Work
         rdf:about=""><dc:format>image/svg+xml</dc:format><dc:type
           rdf:resource="http://purl.org/dc/dcmitype/StillImage" /><dc:title></dc:title></cc:Work></rdf:RDF></metadata><defs
     id="defs75" /><sodipodi:namedview
     pagecolor="#ffffff"
     bordercolor="#666666"
     borderopacity="1"
     objecttolerance="10"
     gridtolerance="10"
     guidetolerance="10"
     inkscape:pageopacity="0"
     inkscape:pageshadow="2"
     inkscape:window-width="640"
     inkscape:window-height="480"
     id="namedview73"
     showgrid="false"
     inkscape:zoom="10.093234"
     inkscape:cx="11.691"
     inkscape:cy="11.691"
     inkscape:window-x="0"
     inkscape:window-y="0"
     inkscape:window-maximized="0"
     inkscape:current-layer="Capa_1" /><g
     id="g40"><path
       d="M14.58,15.181c0.438-0.732,1.082-1.107,1.936-1.117c0.854-0.01,1.285-0.445,1.299-1.301   c0.012-0.852,0.383-1.496,1.115-1.932c0.734-0.438,0.893-1.027,0.475-1.773c-0.416-0.744-0.416-1.488,0-2.234   c0.418-0.744,0.26-1.332-0.475-1.77c-0.732-0.439-1.104-1.082-1.115-1.938c-0.014-0.852-0.445-1.287-1.299-1.297   c-0.854-0.012-1.498-0.385-1.936-1.117c-0.438-0.734-1.027-0.893-1.771-0.475c-0.744,0.416-1.49,0.416-2.234,0   C9.83-0.19,9.241-0.032,8.803,0.702C8.366,1.435,7.721,1.808,6.868,1.819c-0.852,0.01-1.285,0.445-1.297,1.297   C5.557,3.972,5.186,4.614,4.454,5.054C3.72,5.492,3.559,6.079,3.979,6.824c0.418,0.746,0.418,1.49,0,2.234   c-0.42,0.746-0.26,1.336,0.475,1.773c0.732,0.436,1.104,1.08,1.117,1.932c0.012,0.855,0.445,1.291,1.297,1.301   c0.854,0.01,1.498,0.385,1.936,1.117c0.438,0.734,1.027,0.893,1.771,0.473c0.744-0.412,1.49-0.412,2.234,0   C13.553,16.073,14.143,15.915,14.58,15.181z M11.694,12.614c-2.582,0-4.674-2.092-4.674-4.674c0-2.58,2.092-4.672,4.674-4.672   c2.58,0,4.672,2.092,4.672,4.672C16.366,10.522,14.274,12.614,11.694,12.614z"
       id="path2" /><path
       d="M6.793,14.749c-0.898,0-1.018-0.418-1.018-0.418l-3.507,6.893l2.812-0.316l1.555,2.34c0,0,3.24-6.76,3.24-6.715   C8.196,16.491,8.864,14.794,6.793,14.749z"
       id="path4" /><path
       d="M17.563,14.601c-2.562,0.268-2.041,0.904-2.627,1.398c-0.674,0.719-1.516,0.578-1.516,0.578l3.955,6.805l0.973-2.52   l2.766,0.361L17.563,14.601z"
       id="path6" /><polygon
       points="12.67,6.909 11.692,4.929 10.713,6.909 8.524,7.229 10.106,8.772 9.733,10.954 11.692,9.925 13.651,10.954    13.278,8.772 14.86,7.229  "
       id="polygon8" /><g
       id="g10" /><g
       id="g12" /><g
       id="g14" /><g
       id="g16" /><g
       id="g18" /><g
       id="g20" /><g
       id="g22" /><g
       id="g24" /><g
       id="g26" /><g
       id="g28" /><g
       id="g30" /><g
       id="g32" /><g
       id="g34" /><g
       id="g36" /><g
       id="g38" /></g><g
     id="g42" /><g
     id="g44" /><g
     id="g46" /><g
     id="g48" /><g
     id="g50" /><g
     id="g52" /><g
     id="g54" /><g
     id="g56" /><g
     id="g58" /><g
     id="g60" /><g
     id="g62" /><g
     id="g64" /><g
     id="g66" /><g
     id="g68" /><g
     id="g70" /></svg>