<?xml version="1.0" encoding="UTF-8" standalone="no"?>
<svg
   xmlns:dc="http://purl.org/dc/elements/1.1/"
   xmlns:cc="http://creativecommons.org/ns#"
   xmlns:rdf="http://www.w3.org/1999/02/22-rdf-syntax-ns#"
   xmlns:svg="http://www.w3.org/2000/svg"
   xmlns="http://www.w3.org/2000/svg"
   xmlns:sodipodi="http://sodipodi.sourceforge.net/DTD/sodipodi-0.dtd"
   xmlns:inkscape="http://www.inkscape.org/namespaces/inkscape"
   version="1.1"
   viewBox="0 0 280 280"
   enable-background="new 0 0 280 280"
   width="512px"
   height="512px"
   id="svg8"
   sodipodi:docname="payment-i-4.svg"
   inkscape:version="0.92.1 r15371">
  <metadata
     id="metadata14">
    <rdf:RDF>
      <cc:Work
         rdf:about="">
        <dc:format>image/svg+xml</dc:format>
        <dc:type
           rdf:resource="http://purl.org/dc/dcmitype/StillImage" />
        <dc:title></dc:title>
      </cc:Work>
    </rdf:RDF>
  </metadata>
  <defs
     id="defs12" />
  <sodipodi:namedview
     pagecolor="#ffffff"
     bordercolor="#666666"
     borderopacity="1"
     objecttolerance="10"
     gridtolerance="10"
     guidetolerance="10"
     inkscape:pageopacity="0"
     inkscape:pageshadow="2"
     inkscape:window-width="640"
     inkscape:window-height="480"
     id="namedview10"
     showgrid="false"
     inkscape:zoom="0.4609375"
     inkscape:cx="256"
     inkscape:cy="256"
     inkscape:window-x="0"
     inkscape:window-y="0"
     inkscape:window-maximized="0"
     inkscape:current-layer="svg8" />
  <g
     id="g6">
    <path
       d="M189,47V16h-25.514C159.951,6,150.92,0,140.333,0s-19.618,6-23.153,16H90v31H189z"
       fill="#ff5320"
       id="path2" />
    <path
       d="m206,16v31.055 14.189 2.756h-132v-0.818-16.127-31.055h-33v264h198v-264h-33zm-66,229h-66v-16h66v16zm0-66h-66v-16h66v16zm0-66h-66v-16h66v16zm38.582,146.313l-16.657-16.656 11.314-11.314 5.343,5.344 16.343-16.344 11.314,11.314-27.657,27.656zm0-66l-16.657-16.656 11.314-11.314 5.343,5.344 16.343-16.344 11.314,11.314-27.657,27.656zm0-66l-16.657-16.656 11.314-11.314 5.343,5.344 16.343-16.344 11.314,11.314-27.657,27.656z"
       fill="#ff5320"
       id="path4" />
  </g>
</svg>
