<?xml version="1.0" encoding="UTF-8" standalone="no"?>
<!-- Generator: Adobe Illustrator 18.1.1, SVG Export Plug-In . SVG Version: 6.00 Build 0)  -->

<svg
   xmlns:dc="http://purl.org/dc/elements/1.1/"
   xmlns:cc="http://creativecommons.org/ns#"
   xmlns:rdf="http://www.w3.org/1999/02/22-rdf-syntax-ns#"
   xmlns:svg="http://www.w3.org/2000/svg"
   xmlns="http://www.w3.org/2000/svg"
   xmlns:sodipodi="http://sodipodi.sourceforge.net/DTD/sodipodi-0.dtd"
   xmlns:inkscape="http://www.inkscape.org/namespaces/inkscape"
   version="1.1"
   id="Capa_1"
   x="0px"
   y="0px"
   viewBox="0 0 489.231 489.231"
   style="enable-background:new 0 0 489.231 489.231;"
   xml:space="preserve"
   width="512px"
   height="512px"
   sodipodi:docname="payment-i-2.svg"
   inkscape:version="0.92.1 r15371"><metadata
     id="metadata48"><rdf:RDF><cc:Work
         rdf:about=""><dc:format>image/svg+xml</dc:format><dc:type
           rdf:resource="http://purl.org/dc/dcmitype/StillImage" /><dc:title></dc:title></cc:Work></rdf:RDF></metadata><defs
     id="defs46" /><sodipodi:namedview
     pagecolor="#ffffff"
     bordercolor="#666666"
     borderopacity="1"
     objecttolerance="10"
     gridtolerance="10"
     guidetolerance="10"
     inkscape:pageopacity="0"
     inkscape:pageshadow="2"
     inkscape:window-width="640"
     inkscape:window-height="480"
     id="namedview44"
     showgrid="false"
     inkscape:zoom="0.4609375"
     inkscape:cx="256"
     inkscape:cy="256"
     inkscape:window-x="0"
     inkscape:window-y="0"
     inkscape:window-maximized="0"
     inkscape:current-layer="Capa_1" /><g
     id="g11"><g
       id="Icons_7_"><g
         id="g8"><path
           d="M336.068,201.163c-0.206-4.691-2.499-9.045-6.271-11.85l-13.723-10.21l-63.965-47.605l-48.347-35.961L193.5,87.893     c-0.552-0.409-1.212-0.621-1.886-0.621c-0.332,0-0.646,0.047-0.958,0.147l-72.487,23.066c-1.131,0.362-1.947,1.329-2.153,2.499     c-0.189,1.179,0.298,2.356,1.259,3.064l5.154,3.764l48.959,35.78l64.815,47.363l14.522,10.608     c3.802,2.783,6.128,7.146,6.349,11.851l8.143,174.325l0.062,1.162c0.033,0.958,0.521,1.839,1.29,2.404     c0.552,0.401,1.212,0.607,1.87,0.607c0.267,0,0.551-0.034,0.819-0.103l71.936-19.419c1.415-0.385,2.387-1.705,2.326-3.182     l-0.189-4.786L336.068,201.163z"
           fill="#ff5320"
           id="path2" /><path
           d="M233.153,230.631l-26.01-19.007l-62.347,18.609l-66.247-46.931l63.793-19.041l-39.401-28.788     c-2.875-2.128-5.045-4.855-6.853-7.794l-78.851,23.537c-8.85,2.641-15.402,10.107-16.912,19.213     c-1.476,8.998,2.262,18.004,9.602,23.377c-4.98,3.672-8.566,9.079-9.602,15.389c-1.476,8.998,2.262,18.009,9.602,23.378     c-4.98,3.677-8.566,9.076-9.602,15.394c-1.476,8.992,2.262,18.013,9.588,23.372c-4.967,3.677-8.552,9.076-9.588,15.386     c-1.476,8.998,2.262,18.013,9.602,23.372c-4.98,3.677-8.566,9.084-9.602,15.394c-1.51,9.118,2.326,18.28,9.87,23.623     l116.273,82.379c4.134,2.925,9.021,4.44,13.956,4.44c2.327,0,4.652-0.331,6.917-1.006l94.55-28.228     c-0.345-1.532-0.66-3.081-0.722-4.674L233.153,230.631z"
           fill="#ff5320"
           id="path4" /><path
           d="M488.912,241.264c1.479-8.989-2.262-18.004-9.603-23.369c4.984-3.68,8.566-9.079,9.603-15.389     c1.479-8.998-2.262-18.004-9.603-23.377c4.984-3.672,8.566-9.076,9.603-15.389c1.493-9.115-2.326-18.277-9.853-23.62     L362.756,57.738c-6.037-4.282-13.706-5.555-20.857-3.432L232.635,86.919l48.329,35.966l63.481-18.946l66.245,46.931     l-65.852,19.662c9.227,7.173,14.851,17.893,15.338,29.634l7.012,169.127l104.815-31.284c8.847-2.649,15.416-10.107,16.909-19.213     c1.479-8.998-2.262-18.013-9.603-23.38c4.984-3.669,8.566-9.076,9.603-15.386c1.479-8.998-2.262-18.004-9.603-23.372     C484.294,252.981,487.876,247.574,488.912,241.264z"
           fill="#ff5320"
           id="path6" /></g></g></g><g
     id="g13" /><g
     id="g15" /><g
     id="g17" /><g
     id="g19" /><g
     id="g21" /><g
     id="g23" /><g
     id="g25" /><g
     id="g27" /><g
     id="g29" /><g
     id="g31" /><g
     id="g33" /><g
     id="g35" /><g
     id="g37" /><g
     id="g39" /><g
     id="g41" /></svg>