<?xml version="1.0" encoding="UTF-8" standalone="no"?>
<!-- Generator: Adobe Illustrator 18.1.1, SVG Export Plug-In . SVG Version: 6.00 Build 0)  -->

<svg
   xmlns:dc="http://purl.org/dc/elements/1.1/"
   xmlns:cc="http://creativecommons.org/ns#"
   xmlns:rdf="http://www.w3.org/1999/02/22-rdf-syntax-ns#"
   xmlns:svg="http://www.w3.org/2000/svg"
   xmlns="http://www.w3.org/2000/svg"
   xmlns:sodipodi="http://sodipodi.sourceforge.net/DTD/sodipodi-0.dtd"
   xmlns:inkscape="http://www.inkscape.org/namespaces/inkscape"
   version="1.1"
   id="Capa_1"
   x="0px"
   y="0px"
   viewBox="0 0 17.412 17.412"
   style="enable-background:new 0 0 17.412 17.412;"
   xml:space="preserve"
   width="512px"
   height="512px"
   sodipodi:docname="payment-i-3.svg"
   inkscape:version="0.92.1 r15371"><metadata
     id="metadata47"><rdf:RDF><cc:Work
         rdf:about=""><dc:format>image/svg+xml</dc:format><dc:type
           rdf:resource="http://purl.org/dc/dcmitype/StillImage" /><dc:title></dc:title></cc:Work></rdf:RDF></metadata><defs
     id="defs45" /><sodipodi:namedview
     pagecolor="#ffffff"
     bordercolor="#666666"
     borderopacity="1"
     objecttolerance="10"
     gridtolerance="10"
     guidetolerance="10"
     inkscape:pageopacity="0"
     inkscape:pageshadow="2"
     inkscape:window-width="640"
     inkscape:window-height="480"
     id="namedview43"
     showgrid="false"
     inkscape:zoom="0.4609375"
     inkscape:cx="256"
     inkscape:cy="256"
     inkscape:window-x="0"
     inkscape:window-y="0"
     inkscape:window-maximized="0"
     inkscape:current-layer="Capa_1" /><g
     id="g10"><g
       id="g8"><path
         d="M12.253,8.654c-0.692,0-0.994,0.782-0.994,1.761c-0.015,1.023,0.331,1.762,0.994,1.762    c0.647,0,0.963-0.663,0.963-1.762C13.216,9.422,12.96,8.654,12.253,8.654z"
         fill="#ff5320"
         id="path2" /><path
         d="M15.962,0.001H1.452C0.65,0.001,0,0.651,0,1.452v14.509c0,0.801,0.65,1.451,1.452,1.451h14.51    c0.801,0,1.45-0.65,1.45-1.451V1.453C17.412,0.651,16.763,0.001,15.962,0.001z M2.496,6.41c0-1.747,1.069-3.071,2.74-3.071    c1.687,0,2.635,1.234,2.635,2.906c0,2.047-1.295,3.117-2.71,3.117C3.671,9.361,2.496,8.247,2.496,6.41z M5.281,13.456    l5.616-10.117h1.235L6.5,13.456H5.281z M12.207,13.427c-1.476,0-2.649-1.114-2.664-2.952c0-1.746,1.068-3.07,2.739-3.07    c1.687,0,2.636,1.234,2.636,2.905C14.918,12.357,13.623,13.427,12.207,13.427z"
         fill="#ff5320"
         id="path4" /><path
         d="M5.191,4.588c-0.677,0-0.994,0.782-0.994,1.762c0,1.023,0.346,1.761,1.009,1.761    c0.648,0,0.963-0.662,0.963-1.761C6.169,5.356,5.899,4.588,5.191,4.588z"
         fill="#ff5320"
         id="path6" /></g></g><g
     id="g12" /><g
     id="g14" /><g
     id="g16" /><g
     id="g18" /><g
     id="g20" /><g
     id="g22" /><g
     id="g24" /><g
     id="g26" /><g
     id="g28" /><g
     id="g30" /><g
     id="g32" /><g
     id="g34" /><g
     id="g36" /><g
     id="g38" /><g
     id="g40" /></svg>