<?xml version="1.0" encoding="UTF-8" standalone="no"?>
<!-- Generator: Adobe Illustrator 18.0.0, SVG Export Plug-In . SVG Version: 6.00 Build 0)  -->

<svg
   xmlns:dc="http://purl.org/dc/elements/1.1/"
   xmlns:cc="http://creativecommons.org/ns#"
   xmlns:rdf="http://www.w3.org/1999/02/22-rdf-syntax-ns#"
   xmlns:svg="http://www.w3.org/2000/svg"
   xmlns="http://www.w3.org/2000/svg"
   xmlns:sodipodi="http://sodipodi.sourceforge.net/DTD/sodipodi-0.dtd"
   xmlns:inkscape="http://www.inkscape.org/namespaces/inkscape"
   version="1.1"
   id="Capa_1"
   x="0px"
   y="0px"
   viewBox="0 0 491.541 491.541"
   style="enable-background:new 0 0 491.541 491.541;"
   xml:space="preserve"
   width="512px"
   height="512px"
   sodipodi:docname="zamer-1.svg"
   inkscape:version="0.92.1 r15371"><metadata
     id="metadata45"><rdf:RDF><cc:Work
         rdf:about=""><dc:format>image/svg+xml</dc:format><dc:type
           rdf:resource="http://purl.org/dc/dcmitype/StillImage" /><dc:title></dc:title></cc:Work></rdf:RDF></metadata><defs
     id="defs43" /><sodipodi:namedview
     pagecolor="#ffffff"
     bordercolor="#666666"
     borderopacity="1"
     objecttolerance="10"
     gridtolerance="10"
     guidetolerance="10"
     inkscape:pageopacity="0"
     inkscape:pageshadow="2"
     inkscape:window-width="640"
     inkscape:window-height="480"
     id="namedview41"
     showgrid="false"
     inkscape:zoom="0.4609375"
     inkscape:cx="256"
     inkscape:cy="256"
     inkscape:window-x="0"
     inkscape:window-y="0"
     inkscape:window-maximized="0"
     inkscape:current-layer="Capa_1" /><g
     id="g8"><path
       d="M350.373,116.048H24.445C10.942,116.048,0,126.988,0,140.492V466.42c0,13.503,10.942,24.445,24.445,24.445h325.928   c13.503,0,24.444-10.942,24.444-24.445V140.492C374.817,126.988,363.876,116.048,350.373,116.048z M325.928,441.975H48.889V164.936   h277.039V441.975z"
       fill="#ff5320"
       id="path2" /><path
       d="M486.695,411.913h-26.513V126.63h26.513c1.958,0,3.724-1.178,4.472-2.991c0.756-1.814,0.342-3.892-1.05-5.283   l-42.802-42.802c-1.894-1.894-4.965-1.894-6.858,0l-42.803,42.802c-1.392,1.392-1.806,3.469-1.05,5.283   c0.749,1.813,2.515,2.991,4.473,2.991h26.513v285.283h-26.513c-1.958,0-3.724,1.177-4.473,2.991   c-0.755,1.815-0.342,3.893,1.05,5.285l42.803,42.802c1.893,1.894,4.965,1.894,6.858,0l42.802-42.802   c1.393-1.392,1.807-3.469,1.05-5.285C490.419,413.09,488.654,411.913,486.695,411.913z"
       fill="#ff5320"
       id="path4" /><path
       d="M70.676,94.563c1.392,1.392,3.469,1.806,5.284,1.05c1.814-0.747,2.992-2.514,2.992-4.472V64.628h285.283v26.513   c0,1.958,1.177,3.725,2.991,4.472c1.814,0.756,3.891,0.342,5.284-1.05l42.802-42.802c1.894-1.895,1.894-4.967,0-6.86L372.51,2.1   c-1.393-1.393-3.469-1.807-5.284-1.051c-1.814,0.748-2.991,2.514-2.991,4.472v26.515H78.952V5.521c0-1.957-1.177-3.724-2.992-4.472   c-1.814-0.756-3.892-0.342-5.284,1.051L27.875,44.901c-1.894,1.893-1.894,4.965,0,6.86L70.676,94.563z"
       fill="#ff5320"
       id="path6" /></g><g
     id="g10" /><g
     id="g12" /><g
     id="g14" /><g
     id="g16" /><g
     id="g18" /><g
     id="g20" /><g
     id="g22" /><g
     id="g24" /><g
     id="g26" /><g
     id="g28" /><g
     id="g30" /><g
     id="g32" /><g
     id="g34" /><g
     id="g36" /><g
     id="g38" /></svg>