<?xml version="1.0" encoding="UTF-8" standalone="no"?>
<!-- Generator: Adobe Illustrator 19.0.0, SVG Export Plug-In . SVG Version: 6.00 Build 0)  -->

<svg
   xmlns:dc="http://purl.org/dc/elements/1.1/"
   xmlns:cc="http://creativecommons.org/ns#"
   xmlns:rdf="http://www.w3.org/1999/02/22-rdf-syntax-ns#"
   xmlns:svg="http://www.w3.org/2000/svg"
   xmlns="http://www.w3.org/2000/svg"
   xmlns:sodipodi="http://sodipodi.sourceforge.net/DTD/sodipodi-0.dtd"
   xmlns:inkscape="http://www.inkscape.org/namespaces/inkscape"
   version="1.1"
   id="Capa_1"
   x="0px"
   y="0px"
   viewBox="0 0 512 512"
   style="enable-background:new 0 0 512 512;"
   xml:space="preserve"
   width="512px"
   height="512px"
   sodipodi:docname="zamer-3.svg"
   inkscape:version="0.92.1 r15371"><metadata
     id="metadata79"><rdf:RDF><cc:Work
         rdf:about=""><dc:format>image/svg+xml</dc:format><dc:type
           rdf:resource="http://purl.org/dc/dcmitype/StillImage" /><dc:title></dc:title></cc:Work></rdf:RDF></metadata><defs
     id="defs77" /><sodipodi:namedview
     pagecolor="#ffffff"
     bordercolor="#666666"
     borderopacity="1"
     objecttolerance="10"
     gridtolerance="10"
     guidetolerance="10"
     inkscape:pageopacity="0"
     inkscape:pageshadow="2"
     inkscape:window-width="640"
     inkscape:window-height="480"
     id="namedview75"
     showgrid="false"
     inkscape:zoom="0.4609375"
     inkscape:cx="256"
     inkscape:cy="256"
     inkscape:window-x="0"
     inkscape:window-y="0"
     inkscape:window-maximized="0"
     inkscape:current-layer="Capa_1" /><g
     id="g6"><g
       id="g4"><rect
         x="361"
         y="272"
         width="30"
         height="150"
         fill="#ff5320"
         id="rect2" /></g></g><g
     id="g12"><g
       id="g10"><rect
         x="121"
         y="392"
         width="30"
         height="30"
         fill="#ff5320"
         id="rect8" /></g></g><g
     id="g18"><g
       id="g16"><rect
         x="241"
         y="392"
         width="30"
         height="30"
         fill="#ff5320"
         id="rect14" /></g></g><g
     id="g24"><g
       id="g22"><rect
         x="241"
         y="272"
         width="30"
         height="30"
         fill="#ff5320"
         id="rect20" /></g></g><g
     id="g30"><g
       id="g28"><rect
         x="121"
         y="272"
         width="30"
         height="30"
         fill="#ff5320"
         id="rect26" /></g></g><g
     id="g36"><g
       id="g34"><path
         d="M436,0H76C51.186,0,31,20.186,31,45v422c0,24.814,20.186,45,45,45h360c24.814,0,45-20.186,45-45V45    C481,20.186,460.814,0,436,0z M181,437c0,8.291-6.709,15-15,15h-60c-8.291,0-15-6.709-15-15v-60c0-8.291,6.709-15,15-15h60    c8.291,0,15,6.709,15,15V437z M181,317c0,8.291-6.709,15-15,15h-60c-8.291,0-15-6.709-15-15v-60c0-8.291,6.709-15,15-15h60    c8.291,0,15,6.709,15,15V317z M301,437c0,8.291-6.709,15-15,15h-60c-8.291,0-15-6.709-15-15v-60c0-8.291,6.709-15,15-15h60    c8.291,0,15,6.709,15,15V437z M301,317c0,8.291-6.709,15-15,15h-60c-8.291,0-15-6.709-15-15v-60c0-8.291,6.709-15,15-15h60    c8.291,0,15,6.709,15,15V317z M421,437c0,8.291-6.709,15-15,15h-60c-8.291,0-15-6.709-15-15V257c0-8.291,6.709-15,15-15h60    c8.291,0,15,6.709,15,15V437z M421,197c0,8.291-6.709,15-15,15H106c-8.291,0-15-6.709-15-15V75c0-8.291,6.709-15,15-15h300    c8.291,0,15,6.709,15,15V197z"
         fill="#ff5320"
         id="path32" /></g></g><g
     id="g42"><g
       id="g40"><rect
         x="121"
         y="90"
         width="270"
         height="92"
         fill="#ff5320"
         id="rect38" /></g></g><g
     id="g44" /><g
     id="g46" /><g
     id="g48" /><g
     id="g50" /><g
     id="g52" /><g
     id="g54" /><g
     id="g56" /><g
     id="g58" /><g
     id="g60" /><g
     id="g62" /><g
     id="g64" /><g
     id="g66" /><g
     id="g68" /><g
     id="g70" /><g
     id="g72" /></svg>