<?xml version="1.0" encoding="UTF-8" standalone="no"?>
<!-- Generator: Adobe Illustrator 19.0.0, SVG Export Plug-In . SVG Version: 6.00 Build 0)  -->

<svg
   xmlns:dc="http://purl.org/dc/elements/1.1/"
   xmlns:cc="http://creativecommons.org/ns#"
   xmlns:rdf="http://www.w3.org/1999/02/22-rdf-syntax-ns#"
   xmlns:svg="http://www.w3.org/2000/svg"
   xmlns="http://www.w3.org/2000/svg"
   xmlns:sodipodi="http://sodipodi.sourceforge.net/DTD/sodipodi-0.dtd"
   xmlns:inkscape="http://www.inkscape.org/namespaces/inkscape"
   version="1.1"
   id="Layer_1"
   x="0px"
   y="0px"
   viewBox="0 0 512.058 512.058"
   style="enable-background:new 0 0 512.058 512.058;"
   xml:space="preserve"
   width="512px"
   height="512px"
   sodipodi:docname="zamer-2.svg"
   inkscape:version="0.92.1 r15371"><metadata
     id="metadata59"><rdf:RDF><cc:Work
         rdf:about=""><dc:format>image/svg+xml</dc:format><dc:type
           rdf:resource="http://purl.org/dc/dcmitype/StillImage" /><dc:title></dc:title></cc:Work></rdf:RDF></metadata><defs
     id="defs57" /><sodipodi:namedview
     pagecolor="#ffffff"
     bordercolor="#666666"
     borderopacity="1"
     objecttolerance="10"
     gridtolerance="10"
     guidetolerance="10"
     inkscape:pageopacity="0"
     inkscape:pageshadow="2"
     inkscape:window-width="640"
     inkscape:window-height="480"
     id="namedview55"
     showgrid="false"
     inkscape:zoom="0.4609375"
     inkscape:cx="256"
     inkscape:cy="256"
     inkscape:window-x="0"
     inkscape:window-y="0"
     inkscape:window-maximized="0"
     inkscape:current-layer="Layer_1" /><g
     transform="translate(0 -1)"
     id="g22"><g
       id="g20"><g
         id="g18"><polygon
           points="443.035,166.61 346.498,70.081 322.365,94.213 418.903,190.751    "
           fill="#ff5320"
           id="polygon2" /><path
           d="M500.838,108.81c7.125-7.117,11.051-16.597,11.051-26.658c0-10.078-3.925-19.55-11.051-26.667l-43.204-43.213     c-7.117-7.125-16.589-11.051-26.667-11.051c-10.069,0-19.541,3.925-26.658,11.051l-45.747,45.739l96.538,96.538L500.838,108.81z"
           fill="#ff5320"
           id="path4" /><path
           d="M18.293,400.466L0.194,503.037c-0.486,2.748,0.401,5.555,2.364,7.518c1.621,1.621,3.789,2.5,6.033,2.5     c0.495,0,0.99-0.043,1.485-0.128l98.901-17.459l-90.573-95.334C18.378,400.244,18.31,400.347,18.293,400.466z"
           fill="#ff5320"
           id="path6" /><path
           d="M70.698,430.413c0.051-0.06,0.068-0.136,0.128-0.188l281.6-281.6c0.034-0.043,0.094-0.051,0.128-0.085l-42.257-42.257     L29.516,387.064L70.698,430.413z"
           fill="#ff5320"
           id="path8" /><path
           d="M364.578,160.559c-0.034,0.043-0.051,0.094-0.085,0.128l-281.6,281.6c-0.162,0.171-0.384,0.222-0.563,0.375l41.25,43.418     l283.255-283.264L364.578,160.559z"
           fill="#ff5320"
           id="path10" /><path
           d="M19.554,117.103l42.249-42.24c3.328-3.328,8.73-3.328,12.066,0c3.328,3.337,3.328,8.738,0,12.066l-42.24,42.24     l12.066,12.075l30.174-30.174c3.328-3.328,8.73-3.328,12.066,0c3.328,3.336,3.328,8.738,0,12.066L55.761,153.31l12.075,12.066     l42.24-42.24c3.328-3.328,8.73-3.328,12.066,0c3.337,3.337,3.337,8.738,0,12.066l-42.24,42.24l12.066,12.066l30.174-30.165     c3.337-3.337,8.73-3.337,12.066,0c3.337,3.328,3.337,8.73,0,12.066l-30.174,30.174l12.075,12.066l42.231-42.24     c3.337-3.337,8.738-3.337,12.066,0c3.337,3.328,3.337,8.73,0,12.066l-42.231,42.24l13.85,13.841c1.664,1.673,3.849,2.5,6.033,2.5     c2.176,0,4.361-0.828,6.033-2.5l84.471-84.471c3.337-3.336,3.337-8.73,0-12.066L104.043,8.491     c-9.993-9.984-26.231-9.984-36.207,0L7.488,68.83c-9.984,9.984-9.984,26.223,0,36.207L19.554,117.103z"
           fill="#ff5320"
           id="path12" /><path
           d="M423.759,407.815c-4.344,0-8.687,1.647-11.989,4.949c-6.613,6.605-6.613,17.365,0,23.979     c6.613,6.596,17.374,6.596,23.97,0c6.613-6.613,6.613-17.365,0-23.979C432.437,409.462,428.102,407.815,423.759,407.815z"
           fill="#ff5320"
           id="path14" /><path
           d="M506.176,410.62L365.828,270.289c-3.337-3.337-8.73-3.337-12.066,0l-84.471,84.471c-3.336,3.337-3.336,8.73,0,12.066     l15.77,15.778l30.165-30.174c3.337-3.336,8.73-3.336,12.066,0c3.337,3.337,3.337,8.73,0,12.066l-30.165,30.174l12.066,12.066     l42.24-42.24c3.336-3.336,8.73-3.336,12.066,0c3.336,3.337,3.336,8.738,0,12.066l-42.24,42.24l88.363,88.371     c3.917,3.917,9.071,5.871,14.217,5.871s10.291-1.954,14.208-5.871l68.13-68.13C514.018,431.211,514.018,418.453,506.176,410.62z      M447.808,448.807c-6.622,6.63-15.343,9.941-24.047,9.941c-8.713,0-17.425-3.311-24.064-9.941     c-13.252-13.261-13.252-34.842,0-48.111c13.269-13.244,34.859-13.261,48.111,0C461.069,413.965,461.069,435.546,447.808,448.807z     "
           fill="#ff5320"
           id="path16" /></g></g></g><g
     id="g24" /><g
     id="g26" /><g
     id="g28" /><g
     id="g30" /><g
     id="g32" /><g
     id="g34" /><g
     id="g36" /><g
     id="g38" /><g
     id="g40" /><g
     id="g42" /><g
     id="g44" /><g
     id="g46" /><g
     id="g48" /><g
     id="g50" /><g
     id="g52" /></svg>