<svg xmlns="http://www.w3.org/2000/svg" xmlns:xlink="http://www.w3.org/1999/xlink" width="70" height="66" viewBox="0 0 70 66"><defs><path id="m3aia" d="M991.17 13563.85a2.86 2.86 0 0 0-4 0l-31.7 31.26-7.2-7.09a2.85 2.85 0 0 0-4 0 2.76 2.76 0 0 0 0 3.95l9.2 9.06a2.84 2.84 0 0 0 4 0l33.7-33.23a2.76 2.76 0 0 0 0-3.95zm-20.65 2.69c.64-1.41 0-3.06-1.43-3.68a33.65 33.65 0 0 0-13.6-2.86h-.02a33.49 33.49 0 0 0-23.65 9.65 32.56 32.56 0 0 0-9.82 23.33c0 8.81 3.47 17.1 9.79 23.34a33.48 33.48 0 0 0 23.66 9.68h.02c8.93 0 17.33-3.43 23.65-9.65a32.56 32.56 0 0 0 9.81-23.33v-2.81a2.8 2.8 0 0 0-2.82-2.8 2.8 2.8 0 0 0-2.83 2.8v2.8c0 7.33-2.9 14.21-8.16 19.4a27.83 27.83 0 0 1-19.65 8.01h-.02c-15.33 0-27.8-12.32-27.8-27.44.01-7.32 2.9-14.2 8.16-19.38a27.83 27.83 0 0 1 19.66-8.03h.01c3.92 0 7.73.8 11.3 2.38 1.43.62 3.1 0 3.74-1.41z"/></defs><g><g transform="translate(-922 -13560)"><use fill="#b5060b" xlink:href="#m3aia"/></g></g></svg>