<svg xmlns="http://www.w3.org/2000/svg" xmlns:xlink="http://www.w3.org/1999/xlink" width="21" height="21" viewBox="0 0 21 21"><defs><path id="25ipa" d="M1230.27 7595.1c.48.48.73 1.04.73 1.62 0 .58-.25 1.14-.71 1.63-.2.21-.41.41-.62.6-.3.3-.58.56-.82.86l-.02.02a3.57 3.57 0 0 1-3.03 1.16c-1.62-.1-3.07-.71-4.16-1.22a22.23 22.23 0 0 1-7.4-5.78 20.27 20.27 0 0 1-3.62-6 8.21 8.21 0 0 1-.6-3.49c.07-.85.42-1.59 1.02-2.19l1.61-1.61.01-.01c.47-.45 1.03-.7 1.6-.7.58 0 1.13.25 1.59.7a20.87 20.87 0 0 1 1.33 1.32l1.29 1.29c.99.98.99 2.26 0 3.25l-.4.4c-.35.35-.7.72-1.1 1.07.3.64.69 1.27 1.28 2a16.21 16.21 0 0 0 3.89 3.54l.47.25.36.18 1.5-1.48a2.28 2.28 0 0 1 1.61-.72c.59 0 1.14.25 1.6.73zm-.9.9l-2.6-2.6h-.02c-.14-.16-.39-.35-.68-.35-.3 0-.55.2-.71.35l-1.62 1.61c-.08.08-.32.33-.72.33-.15 0-.3-.04-.46-.12l-.06-.03c-.14-.09-.3-.17-.47-.25-.19-.1-.39-.2-.58-.32-1.52-.95-2.9-2.2-4.2-3.8a10.31 10.31 0 0 1-1.54-2.52c-.09-.27-.16-.67.24-1.07l.03-.03c.4-.36.79-.74 1.18-1.14l.41-.4c.5-.5.5-.97 0-1.47l-1.29-1.28-.45-.46a22.02 22.02 0 0 0-.86-.85c-.15-.15-.4-.33-.7-.33-.23 0-.48.12-.71.33l-1.61 1.6c-.4.4-.6.85-.66 1.4-.07.86.1 1.78.53 2.95a19.1 19.1 0 0 0 3.4 5.64 21.03 21.03 0 0 0 6.98 5.44 10.27 10.27 0 0 0 3.9 1.1c.74 0 1.3-.24 1.78-.75.3-.34.6-.64.91-.94.2-.2.4-.37.58-.57.48-.5.48-1 0-1.47zm0 1.47z"/></defs><g><g opacity=".5" transform="translate(-1210 -7580)"><use fill="#9b0306" xlink:href="#25ipa"/></g></g></svg>