<svg xmlns="http://www.w3.org/2000/svg" xmlns:xlink="http://www.w3.org/1999/xlink" width="24" height="24" viewBox="0 0 24 24"><defs><path id="qa9fa" d="M428.99 11783.94c.05.39-.07.73-.36 1.02l-3.38 3.35a1.9 1.9 0 0 1-.6.43 2.48 2.48 0 0 1-1.2.26 11.74 11.74 0 0 1-4.2-.98 22.11 22.11 0 0 1-3.55-1.95 26.46 26.46 0 0 1-4.22-3.56 27.8 27.8 0 0 1-2.94-3.35 23.98 23.98 0 0 1-1.88-2.96c-.48-.9-.83-1.73-1.07-2.47-.24-.74-.4-1.37-.48-1.9a6.3 6.3 0 0 1-.08-1.77 2.45 2.45 0 0 1 .66-1.33l3.38-3.38c.24-.23.5-.35.81-.35.22 0 .42.06.59.19.17.13.31.28.43.47l2.72 5.16c.15.27.2.57.12.89-.06.32-.2.6-.43.81l-1.24 1.25a.43.43 0 0 0-.1.16.63.63 0 0 0-.03.2c.07.35.22.76.46 1.22.2.4.51.9.94 1.48.42.59 1.02 1.26 1.8 2.02.76.78 1.44 1.39 2.03 1.82.6.43 1.1.75 1.49.95.4.2.7.33.91.37l.32.07a.6.6 0 0 0 .17-.04.44.44 0 0 0 .16-.09l1.45-1.47c.3-.28.66-.41 1.07-.41.29 0 .51.05.68.15h.03l4.9 2.9c.36.22.57.5.64.84z"/></defs><g><g transform="translate(-405 -11765)"><use fill="#b81015" xlink:href="#qa9fa"/></g></g></svg>