<?xml version="1.0" encoding="utf-8"?><svg xmlns="http://www.w3.org/2000/svg" xmlns:xlink="http://www.w3.org/1999/xlink"><symbol viewBox="0 0 512 505.29" id="about-i-1" xmlns="http://www.w3.org/2000/svg"><g data-name="Слой 2"><path d="M210.78 30a10.13 10.13 0 0 0-13.24-5.45c-65.83 27.43-97 72-111.47 104.49a188.13 188.13 0 0 0-14.89 52.49l-58.43-15.71a10.13 10.13 0 0 0-12.21 13l46.8 138.33a10.12 10.12 0 0 0 16.28 4.36l109.69-96.4a10.12 10.12 0 0 0-4.06-17.39l-46-12.32A10.13 10.13 0 0 0 118 215l27.7 7.42-84.06 73.88-35.86-106 51.92 13.89a10.13 10.13 0 0 0 12.75-9.82c0-1 1-103.71 114.89-151.18A10.12 10.12 0 0 0 210.78 30zm264.4 97.84a188.13 188.13 0 0 0-38-39.14l42.77-42.77a10.13 10.13 0 0 0-5.17-17.09L331.57.2a10.13 10.13 0 0 0-11.91 11.91L348.3 155.3a10.12 10.12 0 0 0 17.09 5.17L399 126.82a10.12 10.12 0 1 0-14.32-14.32l-20.28 20.28L342.49 23l109.75 22-38 38a10.14 10.14 0 0 0 2.11 15.93C420 101 505.63 152.14 489.85 274a10.12 10.12 0 0 0 8.74 11.34 10.24 10.24 0 0 0 1.31.08 10.13 10.13 0 0 0 10-8.83c9.19-70.7-13.81-119.92-34.72-148.75zm-14.12 255.01a10.12 10.12 0 0 0-6.53-7L316.2 329.09a10.12 10.12 0 0 0-13 12.21l12.32 46A10.12 10.12 0 1 0 335 382l-7.42-27.7 106 35.86-73.88 84.07-13.91-51.92a10.12 10.12 0 0 0-14.79-6.09c-.89.52-90.29 51-188.37-23.9a10.13 10.13 0 0 0-12.3 16.09c56.67 43.3 110.8 48 146.22 44.3a188.17 188.17 0 0 0 52.9-13.35l15.66 58.43a10.12 10.12 0 0 0 17.38 4.06l96.4-109.69a10.12 10.12 0 0 0 2.17-9.31z" data-name="Layer 1"/></g></symbol><symbol viewBox="0 0 455.44 496.7" id="about-i-2" xmlns="http://www.w3.org/2000/svg"><g data-name="Слой 2"><g data-name="Слой 1"><g data-name="Слой_1"><path d="M443.85 264a327.56 327.56 0 0 0 11.62-86.3V95a13.46 13.46 0 0 0-12.9-13.45C401 79.63 368 50.07 365.72 12.74A13.52 13.52 0 0 0 352.27 0h-249.1a13.52 13.52 0 0 0-13.46 12.73c-2.23 37.34-35.25 66.9-76.81 68.78A13.46 13.46 0 0 0 0 95v82.75A327.58 327.58 0 0 0 11.62 264q2.31 8.47 5.06 16.79 2.38 7.2 5.09 14.3 3.13 8.21 6.68 16.25a344 344 0 0 0 19.7 38q2.26 3.76 4.61 7.47 2.55 4 5.2 7.95 4.49 6.66 9.28 13.13 5.67 7.64 11.72 15c31.69 38.32 71.67 70.65 117.52 94.75l6.69 3.51a56.51 56.51 0 0 0 49 0l6.72-3.53c45.84-24.09 85.82-56.42 117.52-94.75q6.05-7.32 11.73-15 4.8-6.47 9.28-13.13 2.65-3.94 5.2-7.95 2.35-3.71 4.61-7.47a343.84 343.84 0 0 0 19.7-38q3.55-8 6.68-16.25 2.71-7.11 5.09-14.3 2.84-8.29 5.15-16.77zm-57.48 85.71v.05c-32.73 50.6-79.54 92.84-135.55 122.28l-23.07 12.12-23.07-12.12c-56-29.43-102.8-71.67-135.54-122.26l-.05-.08c-.5-.78-1-1.55-1.51-2.33-32.72-51.54-50-110.22-50-169.68V98.78c47.33-3.78 84.8-37.88 89.33-81.25h241.62c4.53 43.36 42 77.44 89.37 81.25v78.92c0 59.46-17.3 118.13-50 169.68-.52.79-1.03 1.56-1.53 2.34z"/><path d="M300.74 248a7.33 7.33 0 0 0-9.87 3.16A56.4 56.4 0 0 1 276.65 269a64.24 64.24 0 0 1-22 11.7 90.47 90.47 0 0 1-26.92 4 93.43 93.43 0 0 1-26.33-3.35 58 58 0 0 1-19.34-9.75 60.34 60.34 0 0 1-14.35-16.42 116.38 116.38 0 0 1-9-18.66l23.29-9.73c2 3.5 8.7 15 10.65 17.77a49.83 49.83 0 0 0 8.71 9.56 38 38 0 0 0 11.45 6.59 42 42 0 0 0 14.45 2.35 43.75 43.75 0 0 0 17.76-3.4 39.7 39.7 0 0 0 12.87-8.88 37.06 37.06 0 0 0 7.89-12.52 39 39 0 0 0 2.59-13.75 69.53 69.53 0 0 0-1.51-15 25.35 25.35 0 0 0-8.26-13.78c-4-3.52-9.78-6.22-17.13-8a105.17 105.17 0 0 0-21.11-2.42V168.6a86.26 86.26 0 0 0 17.66-2.33c6.69-1.73 12.11-4.27 16.12-7.55A27.26 27.26 0 0 0 263 146a46.26 46.26 0 0 0 2.2-14.48c0-11.21-3.12-20.06-9.29-26.29s-14.81-9.4-25.65-9.4a40.37 40.37 0 0 0-13.12 2.07 38.78 38.78 0 0 0-10.79 5.68 38 38 0 0 0-8.21 8.49 35.42 35.42 0 0 0-5 10.51c-.63 1.73-1.32 4.06-2.11 6.74l-.14.48-.4 1.36-26.18-4.5a73.24 73.24 0 0 1 7.19-19.75 65.19 65.19 0 0 1 6-9 7.33 7.33 0 1 0-11.5-9.1 79.84 79.84 0 0 0-7.31 11.05 88.55 88.55 0 0 0-8.94 25 13.54 13.54 0 0 0 10.94 16.1l28.31 4.82a13.51 13.51 0 0 0 15.24-9.42l.71-2.4.14-.48c.72-2.45 1.41-4.77 1.88-6 .07-.2.14-.4.2-.6a20.79 20.79 0 0 1 3-6.35 23.38 23.38 0 0 1 5.05-5.22 24.08 24.08 0 0 1 6.72-3.51 25.81 25.81 0 0 1 8.36-1.28c6.79 0 11.91 1.7 15.23 5.06s5 8.76 5 16a31.64 31.64 0 0 1-1.47 9.89 12.67 12.67 0 0 1-4.21 5.94c-2.32 1.9-6 3.53-10.51 4.7a74.05 74.05 0 0 1-15.55 1.89 13.45 13.45 0 0 0-13.05 13.51v18.92a13.46 13.46 0 0 0 13.26 13.5 93.69 93.69 0 0 1 19 2.07c6.26 1.53 9.41 3.45 10.94 4.79a10.83 10.83 0 0 1 3.61 5.94 54.9 54.9 0 0 1 1.16 11.81 24.38 24.38 0 0 1-1.65 8.58 22.48 22.48 0 0 1-4.79 7.59 25.19 25.19 0 0 1-8.17 5.57 29.33 29.33 0 0 1-11.84 2.15 27.47 27.47 0 0 1-9.41-1.45 23.42 23.42 0 0 1-7.07-4.06 35.16 35.16 0 0 1-6.14-6.76c-1.06-1.51-5.55-9-10.44-17.53a13.56 13.56 0 0 0-11.71-6.77 13.41 13.41 0 0 0-5.19 1l-25.24 10.5a13.48 13.48 0 0 0-7.47 17.23 132.3 132.3 0 0 0 10.57 22.15 74.9 74.9 0 0 0 17.87 20.37 72.55 72.55 0 0 0 24.19 12.25 107.89 107.89 0 0 0 30.5 4 105.13 105.13 0 0 0 31.28-4.7 78.87 78.87 0 0 0 27-14.39 71 71 0 0 0 17.91-22.42 7.33 7.33 0 0 0-3.16-9.87zm-15.5-75.07a48.23 48.23 0 0 0 12.17-11.64 50.54 50.54 0 0 0 7.77-16.46 77.59 77.59 0 0 0 2.48-20.49 60.89 60.89 0 0 0-20.52-46.06 71.3 71.3 0 0 0-23.73-13.78 91.64 91.64 0 0 0-30.86-4.92 100 100 0 0 0-29.94 4.37 78.85 78.85 0 0 0-6.16 2.2 7.33 7.33 0 1 0 5.49 13.6 70.26 70.26 0 0 1 5.05-1.81 85.41 85.41 0 0 1 25.56-3.7 77.11 77.11 0 0 1 25.92 4.07 56.77 56.77 0 0 1 18.89 10.86A46.23 46.23 0 0 1 293 124.31a63 63 0 0 1-2 16.59 36 36 0 0 1-5.47 11.71 33.68 33.68 0 0 1-8.87 8.35 54.39 54.39 0 0 1-10.52 5.22 7.33 7.33 0 0 0 .06 13.75c20.11 7.35 30.18 20.84 30.79 41.24a7.33 7.33 0 0 0 7.33 7.11h.22a7.33 7.33 0 0 0 7.11-7.55c-.63-21.07-9.71-37.36-26.45-47.83z"/><path d="M397.17 236.11a8.77 8.77 0 0 0-10.63 6.37 278.6 278.6 0 0 1-35.24 81.68c-28.75 45.28-70.48 83.16-120.68 109.54l-2.91 1.53-2.91-1.53c-50.2-26.39-91.93-64.26-120.67-109.54a278.6 278.6 0 0 1-35.27-81.81 8.77 8.77 0 0 0-17 4.25 296.12 296.12 0 0 0 37.48 87c30.39 47.86 74.41 87.86 127.32 115.66l4.94 2.6a13.14 13.14 0 0 0 12.24 0l4.94-2.6c52.91-27.81 96.93-67.8 127.32-115.66a296.14 296.14 0 0 0 37.44-86.81 8.77 8.77 0 0 0-6.37-10.64z" data-name="2537165878240"/></g></g></g></symbol><symbol viewBox="0 0 590.17 464.61" id="about-i-3" xmlns="http://www.w3.org/2000/svg"><defs><style>.ccls-1{fill:#2b2a29}</style></defs><g id="cСлой_2" data-name="Слой 2"><g id="cСлой_1-2" data-name="Слой 1"><path class="ccls-1" d="M250.83 225.88l-23.37-23.38a9.08 9.08 0 1 0-12.83 12.83l7.88 7.89h-10.4a73.16 73.16 0 0 0-33.14 8 54.82 54.82 0 0 1-49.75 0 73 73 0 0 0-66.27 0 54.83 54.83 0 0 1-49.75 0 9.08 9.08 0 1 0-8.26 16.16 73 73 0 0 0 66.27 0 54.83 54.83 0 0 1 49.75 0 73 73 0 0 0 66.27 0 55.16 55.16 0 0 1 25-6h10.27l-7.88 7.88a9.07 9.07 0 1 0 12.83 12.83l23.38-23.38a9.07 9.07 0 0 0 0-12.83zM581.1 0H60.23a9.07 9.07 0 0 0-9.08 9.08v58.11a9.08 9.08 0 0 0 18.15 0v-49h76v40.88a9.08 9.08 0 1 0 18.15 0V18.15h52.77v40.92a9.08 9.08 0 0 0 18.15 0V18.15h52.77v387.69a9.08 9.08 0 0 0 18.15 0V18.15h52.81V356.4a9.08 9.08 0 0 0 18.15 0V18.15H429v387.69a9.08 9.08 0 0 0 18.15 0V18.15h53.95V356.4a9.08 9.08 0 0 0 18.15 0V18.15H572v428.3H234.4v-41.21a9.08 9.08 0 1 0-18.15 0v41.22h-52.77v-41.22a9.08 9.08 0 1 0-18.15 0v41.22h-76v-49.08a9.08 9.08 0 1 0-18.15 0v58.15a9.07 9.07 0 0 0 9.08 9.08H581.1a9.07 9.07 0 0 0 9.08-9.08V9.08A9.07 9.07 0 0 0 581.1 0zM373.59 399.42a9.07 9.07 0 1 0 2.66 6.42 9.16 9.16 0 0 0-2.66-6.42zm143 0a9.07 9.07 0 1 0 2.66 6.42 9.16 9.16 0 0 0-2.66-6.42zM250.83 132.05L228 109.25a9.08 9.08 0 0 0-12.84 12.84l7.31 7.31h-10.4a73.17 73.17 0 0 0-33.14 8 54.82 54.82 0 0 1-49.75 0 73 73 0 0 0-66.27 0 54.82 54.82 0 0 1-49.75 0 9.07 9.07 0 1 0-8.26 16.16 73 73 0 0 0 66.27 0 54.83 54.83 0 0 1 49.75 0 73 73 0 0 0 66.27 0 54.93 54.93 0 0 1 24.9-6h10.41l-7.3 7.3a9.08 9.08 0 1 0 12.8 12.82l22.8-22.8a9.07 9.07 0 0 0 0-12.83zm0 187.18l-23.48-23.48a9.08 9.08 0 0 0-12.83 12.83l8 8h-10.4a73.16 73.16 0 0 0-33.14 8 54.82 54.82 0 0 1-49.75 0 73 73 0 0 0-66.27 0 54.82 54.82 0 0 1-49.75 0A9.08 9.08 0 1 0 5 340.7a73 73 0 0 0 66.27 0 54.82 54.82 0 0 1 49.75 0 73 73 0 0 0 66.27 0 55.16 55.16 0 0 1 25-6h10.21l-8 8a9.08 9.08 0 1 0 12.83 12.84l23.48-23.48a9.07 9.07 0 0 0 0-12.83z" id="cСлой_1-3" data-name="Слой_1"/></g></g></symbol><symbol viewBox="0 0 292.21 335.75" id="about-i-4" xmlns="http://www.w3.org/2000/svg"><defs><style>.dcls-1{fill:#2b2a29}</style></defs><g id="dСлой_2" data-name="Слой 2"><g id="dСлой_1-2" data-name="Слой 1"><path class="dcls-1" d="M166.37 28.21a21.38 21.38 0 1 0-40.52 0l.31.93-89.42 51.62-.65-.62a21.38 21.38 0 1 0-21.65 35.73l.81.28v105.32l-.81.28a21.38 21.38 0 1 0 21.76 35.62l.65-.63L125.67 308l-.23.89a21.38 21.38 0 1 0 41.34 0l-.23-.89 88.82-51.28.65.63a21.38 21.38 0 1 0 21.76-35.62l-.81-.28V116.16l.81-.28a21.38 21.38 0 1 0-21.65-35.73l-.65.62-89.43-51.63zm-7.91 268.73a21.38 21.38 0 0 0-24.71 0l-.63.45-90.58-52.3.08-.78a21.73 21.73 0 0 0 .13-2.33A21.38 21.38 0 0 0 29 222l-.77-.29V115.94l.77-.29a21.38 21.38 0 0 0 13.61-22.49l-.09-.78 91.93-53.07.61.37a21.4 21.4 0 0 0 22.12 0l.61-.37 91.91 53.07-.09.78a21.38 21.38 0 0 0 13.64 22.48l.77.29v105.76l-.77.29a21.38 21.38 0 0 0-13.78 20 21.72 21.72 0 0 0 .13 2.33l.08.78-90.58 52.3-.63-.45zm-12.36 7.8a9.64 9.64 0 1 1-9.64 9.64 9.64 9.64 0 0 1 9.65-9.64zm124.73-53.12a9.64 9.64 0 1 1 9.64-9.64 9.64 9.64 0 0 1-9.63 9.63zM21.38 232.33a9.64 9.64 0 1 1-9.65 9.67 9.64 9.64 0 0 1 9.65-9.67zm249.46-127a9.64 9.64 0 1 1 9.64-9.64 9.64 9.64 0 0 1-9.64 9.61zM21.38 86a9.64 9.64 0 1 1-9.64 9.64A9.64 9.64 0 0 1 21.38 86zm124.73-74.27a9.64 9.64 0 1 1-9.64 9.64 9.64 9.64 0 0 1 9.64-9.64zm85.74 110l-84-48a3.51 3.51 0 0 0-3.49 0l-84 48a3.52 3.52 0 0 0-1.77 3.06v88a3.52 3.52 0 0 0 1.77 3.06l84 48a3.51 3.51 0 0 0 3.49 0l84-48a3.52 3.52 0 0 0 1.77-3.06v-88a3.52 3.52 0 0 0-1.77-3.06zm-10.36 86.36l-75.38 43.07-75.39-43.04v-78.61l75.38-43.07 75.38 43.07v78.61z" id="dСлой_1-3" data-name="Слой_1"/></g></g></symbol><symbol viewBox="0 0 59.98 59.99" id="about-i-5" xmlns="http://www.w3.org/2000/svg"><g data-name="Слой 2"><g data-name="Capa 1"><path d="M1 31a1 1 0 0 0 1-1A28 28 0 0 1 47.3 8H42a1 1 0 0 0 0 2h9V1a1 1 0 0 0-2 0v5.81A30 30 0 0 0 0 30a1 1 0 0 0 1 1z"/><path d="M30 8a22 22 0 1 0 22 22A22 22 0 0 0 30 8zm0 42a20 20 0 1 1 20-20 20 20 0 0 1-20 20z"/><path d="M30 15a1 1 0 0 0 1-1v-2a1 1 0 0 0-2 0v2a1 1 0 0 0 1 1zm0 30a1 1 0 0 0-1 1v2a1 1 0 0 0 2 0v-2a1 1 0 0 0-1-1zm16-14h2a1 1 0 1 0 0-2h-2a1 1 0 0 0 0 2zm-32-2h-2a1 1 0 0 0 0 2h2a1 1 0 0 0 0-2zm17-3.86V20a1 1 0 0 0-2 0v5.14A4 4 0 0 0 26 29a4 4 0 0 0 .57 2l-8.27 8.27a1 1 0 1 0 1.41 1.41L28 32.43a4 4 0 0 0 2 .57 4 4 0 0 0 1-7.86zM30 31a2 2 0 1 1 2-2 2 2 0 0 1-2 2zM11.89 52.66a1 1 0 0 0 .21 1.4 1 1 0 0 0 .59.19 1 1 0 0 0 .81-.4 1 1 0 0 0-.21-1.4 1 1 0 0 0-1.4.21zm-4.66-6.39a1 1 0 1 0-.81 1.59 1 1 0 0 0 .58-.19 1 1 0 0 0 .23-1.4zm.39 2.18a1 1 0 0 0-.08 1.41 1 1 0 0 0 .75.34 1 1 0 1 0-.67-1.75zm3.44 2.15a1 1 0 1 0-.68 1.74 1 1 0 0 0 .74-.32 1 1 0 0 0-.06-1.41zm-5.39-6.76a1 1 0 1 0-.86 1.49 1 1 0 0 0 .49-.13 1 1 0 0 0 .37-1.36zm53.27-11.72a1 1 0 1 0-1-1 1 1 0 0 0 1.06 1zM1.26 34a1 1 0 0 0-.21-2 1 1 0 0 0 .1 2zm.56 2.93a1 1 0 0 0-.41-2 1 1 0 0 0 .2 2 .75.75 0 0 0 .21 0zm2.54 4.32a1 1 0 0 0-1.83.81 1 1 0 0 0 .92.6 1 1 0 0 0 .4-.09 1 1 0 0 0 .51-1.32zm-1.03-2.7a1 1 0 0 0-1.25-.65 1 1 0 0 0 .3 2 1.1 1.1 0 0 0 .31 0 1 1 0 0 0 .64-1.35zM29.46 58a1 1 0 1 0 0 2 1 1 0 0 0 1-1 1 1 0 0 0-1-1zm22.67-10.86a1 1 0 0 0 .17 1.4 1 1 0 0 0 .62.21 1 1 0 1 0-.79-1.61zm-6.3 5.94a1 1 0 0 0-.25 1.39 1 1 0 0 0 .82.43 1 1 0 1 0-.57-1.82zm2.3-1.76a1 1 0 1 0 1.41.11 1 1 0 0 0-1.41-.11zm7.03-6.88a1 1 0 0 0-1.06 1.7 1 1 0 0 0 .53.15 1 1 0 0 0 .85-.47 1 1 0 0 0-.32-1.38zm-4.92 4.89a1 1 0 0 0 0 1.41 1 1 0 0 0 1.41 0 1 1 0 1 0-1.44-1.38zm8.61-16.22a1 1 0 0 0-1.13.85 1 1 0 0 0 .85 1.13h.14a1 1 0 0 0 .14-2zm-.47 2.96a1 1 0 0 0-.49 2 .94.94 0 0 0 .24 0 1 1 0 0 0 .25-2zM15.7 54.06a1 1 0 0 0-1 1.72 1 1 0 0 0 .51.14 1 1 0 0 0 .52-1.86zM57.6 39a1 1 0 0 0-.69 1.88 1 1 0 0 0 .34.06A1 1 0 0 0 57.6 39zm-1.08 2.77a1 1 0 1 0-.88 1.8 1 1 0 0 0 .44.1 1 1 0 0 0 .44-1.9zM26.57 57.79a1 1 0 1 0-.24 2h.12a1 1 0 0 0 .12-2zm-5.63-1.29a1 1 0 1 0-.65 1.89 1.26 1.26 0 0 0 .33 0 1 1 0 0 0 .32-1.94zm2.78.79a1 1 0 1 0-.45 2 .9.9 0 0 0 .23 0 1 1 0 0 0 .22-2zm-5.46-1.87a1 1 0 0 0-1.33.48 1 1 0 0 0 .48 1.33 1 1 0 0 0 .42.09 1 1 0 0 0 .43-1.9zm16.96 2.09a1 1 0 0 0 .19 2h.18a1 1 0 0 0 .8-1.17 1 1 0 0 0-1.17-.83zm2.78-.68a1 1 0 0 0-.67 1.24 1 1 0 0 0 1 .71 1 1 0 0 0 .29 0 1 1 0 1 0-.62-1.95zm2.76-.98a1 1 0 0 0 .38 1.92 1.09 1.09 0 0 0 .39-.07 1 1 0 0 0-.77-1.85zm-8.41 2.05a1 1 0 0 0 .09 2h.08a1 1 0 0 0 .91-1.07 1 1 0 0 0-1.08-.93zm11.02-3.3a1 1 0 0 0 .48 1.88.9.9 0 0 0 .47-.13 1 1 0 1 0-1-1.75z"/></g></g></symbol><symbol viewBox="0 0 344.96 344.96" id="check" xmlns="http://www.w3.org/2000/svg"><defs><style>.fcls-1{fill:#e75713}</style></defs><g id="fСлой_2" data-name="Слой 2"><path class="fcls-1" d="M321.85 86.24l-40-23.11-23.1-40H212.5L172.48 0l-40 23.11H86.24l-23.11 40-40 23.1v46.21L0 172.48l23.11 40v46.21l40 23.11 23.11 40h46.21l40 23.1 40-23.11h46.21l23.11-40 40-23.11V212.5l23.11-40-23.11-40V86.24zM156.91 243.07a16.79 16.79 0 0 1-23.34 0l-50.45-50.44a16.19 16.19 0 0 1 0-22.89l13.35-13.35a16.19 16.19 0 0 1 22.89 0l25.87 25.87 80.34-80.35a16.19 16.19 0 0 1 22.89 0l13.35 13.35a16.19 16.19 0 0 1 0 22.89z" id="fCapa_1" data-name="Capa 1"/></g></symbol><symbol viewBox="0 0 512 512" id="clock" xmlns="http://www.w3.org/2000/svg"><g data-name="Слой 2"><g data-name="Layer 1"><path d="M437 75A256 256 0 1 0 75 437 256 256 0 1 0 437 75zM256 470.64c-118.35 0-214.64-96.29-214.64-214.64S137.65 41.36 256 41.36 470.64 137.65 470.64 256 374.35 470.64 256 470.64z"/><path d="M341.22 312l-64.54-64.54V114.81a20.68 20.68 0 0 0-41.36 0V256a20.68 20.68 0 0 0 6.06 14.63L312 341.22A20.68 20.68 0 1 0 341.22 312z"/></g></g></symbol><symbol viewBox="0 0 512 511.94" id="installation-1" xmlns="http://www.w3.org/2000/svg"><g data-name="Слой 2"><g data-name="Capa 1"><path d="M510.36 215.54l-82-125A10 10 0 0 0 420 86H92.38A10 10 0 0 0 84 90.5L1.91 215.15a10 10 0 0 0 .57 12.46l41.62 47.53a10 10 0 1 0 15-13.17L32 231h134.5l67.59 230.75-76.37-87.21a10 10 0 1 0-15 13.17l105.79 120.82a10 10 0 0 0 15 0L376.18 379.9a10 10 0 0 0-15-13.17l-83.21 95L345.51 231H480l-62.18 71a10 10 0 1 0 15 13.17l76.71-87.61a10 10 0 0 0 .83-12.02zM28.57 211l63.79-96.82L155.85 211zm82.32-105h126.62l-63.31 96.54zM256 114.24L319.5 211h-127zm0 351.14L187.39 231h137.28zm82-262.58L274.54 106h127zm18.53 8.2L420 114.24 483.48 211z"/><path d="M157.19 327a46.83 46.83 0 0 1-46.78-46.78 10 10 0 0 0-20 0A46.83 46.83 0 0 1 43.63 327a10 10 0 1 0 0 20 46.83 46.83 0 0 1 46.78 46.78 10 10 0 0 0 20 0A46.83 46.83 0 0 1 157.19 347a10 10 0 0 0 0-20zm-56.78 31.66A67.3 67.3 0 0 0 78.75 337a67.29 67.29 0 0 0 21.66-21.66A67.3 67.3 0 0 0 122.07 337a67.3 67.3 0 0 0-21.66 21.65zM502 40a30 30 0 0 1-30-30 10 10 0 1 0-20 0 30 30 0 0 1-30 30 10 10 0 0 0 0 20 30 30 0 0 1 30 30 10 10 0 1 0 20 0 30 30 0 0 1 30-30 10 10 0 0 0 0-20zm-40 20a50.43 50.43 0 0 0-10-10 50.43 50.43 0 0 0 10-10 50.43 50.43 0 0 0 10 10 50.38 50.38 0 0 0-10 10zm-59.22 275.34a10 10 0 1 0 2.93 7.07 10 10 0 0 0-2.93-7.07z"/></g></g></symbol><symbol viewBox="0 0 512 512" id="installation-2" xmlns="http://www.w3.org/2000/svg"><g data-name="Слой 2"><g data-name="Capa 1"><path d="M375.07 141.93A10 10 0 1 0 378 149a10.07 10.07 0 0 0-2.93-7.07zM150 282H70a10 10 0 0 0-10 10v80a10 10 0 0 0 10 10h80a10 10 0 0 0 10-10v-80a10 10 0 0 0-10-10zm-10 80H80v-60h60zm365.83-152.24a10 10 0 0 0-10.9 2.17L393 313.83 274.24 432.62l-62.3 62.3A10 10 0 0 0 219 512h283a10 10 0 0 0 10-10V219a10 10 0 0 0-6.17-9.24zM492 492H243.14l38.16-38.16 9.55 9.55A10 10 0 0 0 305 449.24l-9.55-9.55 25.46-25.46 9.55 9.55a10 10 0 1 0 14.14-14.14l-9.6-9.54 25.46-25.46 9.55 9.55A10 10 0 0 0 384.19 370l-9.55-9.55L400.1 335l9.55 9.55a10 10 0 0 0 14.14-14.14l-9.55-9.55 25.46-25.46 9.55 9.55a10 10 0 1 0 14.14-14.14l-9.55-9.55L492 243.14z"/><path d="M455.83 330.47a10 10 0 0 0-10.9 2.17L332.64 444.93a10 10 0 0 0 7.07 17.07H452a10 10 0 0 0 10-10V339.71a10 10 0 0 0-6.17-9.24zM442 442h-78.15L442 363.85zm21.06-292.74a10 10 0 0 0-10.51-2.32l-68.28 25a10 10 0 0 0-3.63 2.32l-19.2 19.2L236.07 68.1a10 10 0 0 0-14.14 0L71 219H34.14L229 24.14l106.93 106.93a10 10 0 0 0 14.14-14.14l-114-114a10 10 0 0 0-14.14 0l-219 219A10 10 0 0 0 10 239h10v263a10 10 0 0 0 10 10h159a10 10 0 0 0 0-20H40V239h35.17a10 10 0 0 0 7.07-2.93L229 89.31l118.29 118.3L199 355.9V266h70a10 10 0 0 0 0-20h-80a10 10 0 0 0-10 10v116a10 10 0 0 0 .58 3.32l-9 9A40.6 40.6 0 0 0 228 441.7l84.33-84.33a10 10 0 1 0-14.14-14.14l-63.89 63.89L205.2 378l182.71-182.72L417 224.41l-69.82 69.82a10 10 0 0 0 14.14 14.14l76.69-76.69a10 10 0 0 0 2.32-3.63l25-68.28a10 10 0 0 0-2.27-10.51zm-242.87 272l-6.3 6.3a20.6 20.6 0 0 1-29.13-29.13l6.3-6.3zm206.9-215.09l-20.94-20.94 33-12.1z"/><path d="M336.69 318.9a10 10 0 1 0 2.93 7.07 10.07 10.07 0 0 0-2.93-7.07zM229 151a38 38 0 1 0 38 38 38 38 0 0 0-38-38zm0 56a18 18 0 1 1 18-18 18 18 0 0 1-18 18z"/></g></g></symbol><symbol viewBox="0 0 512 340" id="installation-3" xmlns="http://www.w3.org/2000/svg"><g data-name="Слой 2"><g data-name="Capa 1"><path d="M248.11 92.55l-.35-.35a10 10 0 0 0-14.11 14.18l.24.24a10 10 0 1 0 14.21-14.07zM170 128a42 42 0 1 0 42 42 42 42 0 0 0-42-42zm0 64a22 22 0 1 1 22-22 22 22 0 0 1-22 22zm103.47 54a30 30 0 1 0 30 30 30 30 0 0 0-30-30zm0 40a10 10 0 1 1 10-10 10 10 0 0 1-10 10z"/><path d="M502 240H380v-38a10 10 0 0 0-10-10h-30v-22a169.12 169.12 0 0 0-12-62.84v-49.9a31.11 31.11 0 0 0-31.08-31.07H262a10 10 0 0 0-1.3.1A169 169 0 0 0 170 0C76.26 0 0 76.26 0 170v8.49C0 267.55 72.45 340 161.51 340H191a10 10 0 0 0 0-20h-29.49C84 320 20.83 257.33 20 180h40.45a110 110 0 0 0 187.33 67.78 110.49 110.49 0 0 0 25.66-115.26 10 10 0 0 0-18.81 6.8 90 90 0 0 1-148.27 94.32 90 90 0 0 1 91.86-149.13 10 10 0 1 0 6.25-19A111.25 111.25 0 0 0 180 60.42V20.34C258.07 25.5 320 90.65 320 170v150h-50a10 10 0 0 0 0 20h60a10 10 0 0 0 10-10v-30h152v15a10 10 0 1 0 20 0v-65a10 10 0 0 0-10-10zM160 60.38A110.17 110.17 0 0 0 60.45 160H20.34C25.29 85.24 85.24 25.29 160 20.34zm148 10.46a171.4 171.4 0 0 0-21.64-24.66h10.57A11.09 11.09 0 0 1 308 57.26zM360 250v30h-20v-68h20zm132 30H380v-20h112z"/><path d="M235.4 322.93a10 10 0 1 0 2.93 7.07 10.05 10.05 0 0 0-2.93-7.07z"/></g></g></symbol><symbol viewBox="0 0 405.04 512" id="installation-4" xmlns="http://www.w3.org/2000/svg"><g data-name="Слой 2"><g data-name="Capa 1"><path d="M187.23 45.21A49.09 49.09 0 0 0 153.3 92a10 10 0 1 0 20 0 29.14 29.14 0 0 1 20.13-27.78 10 10 0 0 0-6.2-19zm38.39 3.32A10 10 0 0 0 215.85 66l.21.11a10 10 0 0 0 9.56-17.56zM67.79 25.76l29.57 17.07a10 10 0 0 0 10-17.32L77.79 8.44a10 10 0 0 0-10 17.32zM353.4 167.57l-38-21.92a10 10 0 1 0-10 17.32l38 21.92a10 10 0 1 0 10-17.32zM87.92 92a10 10 0 0 0-10-10H10a10 10 0 0 0 0 20h67.92a10 10 0 0 0 10-10zM395 82h-.25a10 10 0 0 0 0 20h.25a10 10 0 0 0 0-20z"/><path d="M365.31 82H294a92 92 0 1 0-175.63 47.05L68.8 157.66a10 10 0 1 0 10 17.34l49.52-28.59c.86 1.18 1.75 2.34 2.67 3.47 3.79 4.67 7.22 8.71 10.33 12.34-41.11 17.81-72 53.56-85.92 100.07-8.83 29.56.23 76.79 6.22 108q.73 3.8 1.35 7.1v.05c.52 2.77 1 5.25 1.32 7.39 11.16 67.81 20.92 76.71 53 97.14 4.43 2.82 9.45 6 15 9.74l.61.39c22.85 13.19 46.26 19.88 69.6 19.88 23.35 0 46.78-6.69 69.64-19.89l.61-.38c5.5-3.73 10.52-6.92 15-9.74 32.1-20.42 41.86-29.32 53-97.13.63-3.85 1.58-8.81 2.69-14.56 6-31.25 15-78.47 6.22-108-13.9-46.52-44.83-82.28-85.94-100.08 3.11-3.63 6.55-7.67 10.33-12.34A92.16 92.16 0 0 0 294 102h71.36a10 10 0 0 0 0-20zM277 465.11c-4.47 2.84-9.52 6.05-15.14 9.86-39.37 22.61-79.29 22.62-118.66 0-5.62-3.8-10.67-7-15.14-9.86-26.75-17-33.53-21.34-43.38-79.68h14.4a50.69 50.69 0 0 0 99.38 0h8.12a50.69 50.69 0 0 0 99.38 0h14.4c-9.84 58.34-16.63 62.67-43.36 79.68zm-158.9-89.68a30.69 30.69 0 1 1 30.69 30.69 30.72 30.72 0 0 1-30.7-30.69zm168.87 0a30.69 30.69 0 1 1 0-.05.23.23 0 0 0 .03.08zm37-10H306a50.69 50.69 0 0 0-99.38 0h-8.12a50.48 50.48 0 0 0-10-21.52c32.85-15.22 60.26-31.73 81.74-49.24 9.92 12.23 30.33 33.86 58.38 45.73-1.62 9.11-3.22 17.68-4.62 25.03zm6.51-97.43c4 13.24 3.3 32.5 1 51.77-31.24-15.27-51.18-44.8-51.4-45.12a10 10 0 0 0-15-1.94c-22.85 20.42-54.53 39.64-94.17 57.16a50.67 50.67 0 0 0-71.86 35.57H81c-5.31-27.67-13.82-72.89-6.49-97.44 12.77-42.75 41.76-75 80.1-89.62a40.41 40.41 0 0 1 8.11 21 10 10 0 0 0-7.74 9.73v37.09a24.59 24.59 0 0 0 24.56 24.56h45.86a24.59 24.59 0 0 0 24.6-24.52v-37.1a10 10 0 0 0-7.74-9.73 40.42 40.42 0 0 1 8.11-21c38.35 14.54 67.35 46.84 80.11 89.59zM175 246.24v-27.1h55v27.09a4.62 4.62 0 0 1-4.56 4.56h-45.85a4.62 4.62 0 0 1-4.59-4.55zm83.47-109c-4.5 5.56-8.56 10.27-12.13 14.43-13.86 16.11-22.28 25.88-24.16 47.45h-39.35c-1.88-21.56-10.3-31.34-24.16-47.45-3.58-4.16-7.63-8.87-12.13-14.43a73.08 73.08 0 0 1-6.35-9.22v-.06A71.12 71.12 0 0 1 130.52 92a72 72 0 1 1 144 0 71.16 71.16 0 0 1-16.01 45.27zM55.82 176.72A10 10 0 0 0 42.17 173l-.42.24a10 10 0 1 0 10 17.34l.43-.24a10 10 0 0 0 3.64-13.62z"/><path d="M310.45 39.69a10 10 0 0 0 5-1.34l34.1-19.69a10 10 0 1 0-10-17.32L305.44 21a10 10 0 0 0 5 18.66z"/></g></g></symbol><symbol viewBox="0 0 426.43 512" id="map" xmlns="http://www.w3.org/2000/svg"><g data-name="Слой 2"><g data-name="Layer 1"><path d="M364 62.45A213.21 213.21 0 0 0 0 213.22c0 37.66 11 76.86 32.61 116.53 16.82 30.85 40.15 62.1 69.33 92.9 49.17 51.9 97.76 84.52 99.81 85.88a20.68 20.68 0 0 0 22.94 0c2-1.36 50.64-34 99.81-85.88 29.18-30.8 52.5-62.05 69.33-92.9 21.64-39.67 32.61-78.88 32.61-116.53A211.82 211.82 0 0 0 364 62.45zM213.22 465.9C173 436.16 41.37 329.74 41.37 213.21c0-94.76 77.09-171.85 171.85-171.85s171.85 77.09 171.85 171.85c0 116.54-131.7 222.96-171.85 252.69z"/><path d="M213.22 128.35a84.86 84.86 0 1 0 84.86 84.86 85 85 0 0 0-84.86-84.86zm0 128.35a43.49 43.49 0 1 1 43.49-43.49 43.54 43.54 0 0 1-43.49 43.5z"/></g></g></symbol><symbol viewBox="0 0 166.8 191.25" id="play" xmlns="http://www.w3.org/2000/svg"><g data-name="Слой 2"><path d="M150.7 66.61a6 6 0 1 0-6.35 10.18 22.2 22.2 0 0 1 0 37.67l-98.41 61.37A22.19 22.19 0 0 1 12 157V34.26a22.19 22.19 0 0 1 33.94-18.83l57.29 35.72A6 6 0 1 0 109.58 41L52.29 5.25a33.77 33.77 0 0 0-34.69-.89A33.77 33.77 0 0 0 0 34.26V157a33.77 33.77 0 0 0 17.6 29.9 33.77 33.77 0 0 0 34.69-.9l98.42-61.37a34.19 34.19 0 0 0 0-58z" data-name="Capa 1"/></g></symbol><symbol viewBox="0 0 557.44 474.1" id="warning-1" xmlns="http://www.w3.org/2000/svg"><defs><style>.ncls-1{fill:#2b2a29}</style></defs><g id="nСлой_2" data-name="Слой 2"><g id="nСлой_1-2" data-name="Слой 1"><path class="ncls-1" d="M319.49 399.39a95.56 95.56 0 0 0 163-59.67v-.62l.61-.14a95.58 95.58 0 0 0 7.2-184.41l-.92-.29.4-.88A95.6 95.6 0 0 0 357.6 29.74l-.6.26-.45-.47A95.59 95.59 0 0 0 204.49 48.1l-.32.56-.63-.16a95.63 95.63 0 0 0-114.9 121.11l.17.53-.42.36a95.56 95.56 0 0 0 55.38 167.67l.84.06v.84q-.16 2.77-.16 5.55a95.56 95.56 0 0 0 173.74 54.88l.58-.83zm151.76-79.2a10.29 10.29 0 0 0-9 10.42v1.42a75 75 0 0 1-136.57 42.81 10.29 10.29 0 0 0-17.76 1.52A75 75 0 0 1 166.4 330a10.29 10.29 0 0 0-10.09-12.29h-.65c-1.62.1-3.23.16-4.85.16A75 75 0 0 1 107 182a10.29 10.29 0 0 0 3.5-12.27 75 75 0 0 1 95.33-99 10.3 10.3 0 0 0 13-5.49 75 75 0 0 1 127.93-15.55 10.29 10.29 0 0 0 13.91 2.21 75 75 0 0 1 104.48 103.7 10.29 10.29 0 0 0 7.14 15.91 75 75 0 0 1-1 148.68zm-33.63 4.66a10.29 10.29 0 0 0-11.36 9.09q-.15 1.34-.39 2.67a10.29 10.29 0 1 0 20.25 3.62q.36-2 .58-4a10.3 10.3 0 0 0-9.09-11.36zm-23.5 33.86a41.06 41.06 0 0 1-49 6.27 10.29 10.29 0 0 0-10.22 17.86 61.63 61.63 0 0 0 73.55-9.39 10.29 10.29 0 1 0-14.36-14.74zm-181.86-118.1c-4 0-8.22.89-8.62 5.59s-1.14 9.64-3.91 13.7c-4.08 6-11 7.65-17.88 7.65-15.81 0-23.06-8.86-23.06-24.33v-53c0-15.22 7-24.33 22.7-24.33 13.6 0 21.46 6.82 22.15 20.29.24 4.69 4.93 5.56 8.8 5.56 6.86 0 8.8-2.23 8.8-9.16a29.3 29.3 0 0 0-3.64-14.4c-7.25-13-22.81-17.69-36.84-17.69-8.86 0-18.06 1.83-25.39 7-10.73 7.62-14.17 20.09-14.17 32.7v53c0 12.6 3.4 25.12 14.12 32.75 7.3 5.19 16.45 7 25.26 7 13.86 0 28.82-4.65 36.34-17.14a30.8 30.8 0 0 0 4.31-16.05c.01-6.92-2.12-9.14-8.97-9.14zm67.35-90.11c-25.69 0-39.93 13.58-39.93 39.74v53c0 26.17 14.23 39.74 39.93 39.74s40.11-13.62 40.11-39.74v-53c0-26.13-14.52-39.74-40.11-39.74zm22.51 92.72c0 14.92-7.12 24.33-22.51 24.33s-22.33-9.37-22.33-24.33v-53c0-15 6.82-24.33 22.33-24.33s22.51 9.42 22.51 24.33zM430 266.46h-54.41v-7.77c0-21.68 59-34.13 59-72.82 0-21.42-17.51-35.38-38.11-35.38-11.82 0-24.2 4.76-31.21 14.64a28.53 28.53 0 0 0-5.27 16.74c0 5.71 1.67 9.89 7.89 9.89a11.36 11.36 0 0 0 7-2.1 5.65 5.65 0 0 0 2.38-4.34c0-11.92 7.57-18.87 19.24-18.87 6 0 11.65 1.89 15.66 6.5a20.62 20.62 0 0 1 4.83 13.47c0 28.71-59.53 43.27-59.53 72.27v17.66c0 3.44 4.77 5.52 7.71 5.52H430a5 5 0 0 0 3.73-2.31 9.61 9.61 0 0 0 1.79-5.57 8.86 8.86 0 0 0-1.78-5.37 5 5 0 0 0-3.74-2.15zM36 446.67a41.42 41.42 0 0 0 78-27.88l-.15-.43.27-.37a41.42 41.42 0 0 0-63-53.54l-.33.34-.47-.1a41.42 41.42 0 1 0-15 81.42l.5.08.17.48zm58.71-37.87a10.29 10.29 0 0 0-2 13.06A20.84 20.84 0 1 1 54.23 435 10.29 10.29 0 0 0 44 425.88h-.86c-.58 0-1.16.08-1.75.08a20.84 20.84 0 1 1 8.69-39.77 10.29 10.29 0 0 0 13.06-3.95 20.83 20.83 0 1 1 31.57 26.56z" id="nСлой_1-3" data-name="Слой_1"/></g></g></symbol><symbol viewBox="0 0 452.04 459.03" id="warning-2" xmlns="http://www.w3.org/2000/svg"><defs><style>.ocls-1{fill:#2b2a29}.ocls-2{fill:#1f1b20}</style></defs><g id="oСлой_2" data-name="Слой 2"><g id="oСлой_1-2" data-name="Слой 1"><g id="oСлой_1-3" data-name="Слой_1"><g id="o_1973431826976" data-name="1973431826976"><path class="ocls-1" d="M448.4 308.24c-7-6-13.94-11.94-21.27-17.46a168.26 168.26 0 0 0-24.29-15.45c-21.4-11-44.12-15.42-68.06-15.42s-46.66 4.44-68.06 15.42a168.27 168.27 0 0 0-24.29 15.45c-7.33 5.52-14.31 11.49-21.27 17.46-8.64 7.41-17.28 14.84-26.67 21.29A122.76 122.76 0 0 1 163 345.42c-13.53 4.41-27.69 6.14-41.88 6.14s-28.36-1.73-41.88-6.14a122.75 122.75 0 0 1-31.51-15.88c-9.38-6.46-18-13.88-26.67-21.29a10.41 10.41 0 0 0-13.58 15.8c7 6 13.94 11.94 21.27 17.46A168.29 168.29 0 0 0 53 357c21.4 11 44.12 15.42 68.06 15.42s46.66-4.44 68.06-15.42a168.32 168.32 0 0 0 24.29-15.45c7.33-5.52 14.31-11.49 21.27-17.46 8.64-7.41 17.28-14.84 26.67-21.29a122.76 122.76 0 0 1 31.51-15.88c13.53-4.41 27.69-6.14 41.88-6.14s28.35 1.73 41.88 6.14a122.74 122.74 0 0 1 31.51 15.88c9.39 6.46 18 13.89 26.67 21.3a10.41 10.41 0 1 0 13.56-15.81zm-13.48-155.37A10.41 10.41 0 0 0 452 144.1a10.37 10.37 0 0 0-3.6-7.11c-7-6-13.94-11.94-21.27-17.46a168.28 168.28 0 0 0-24.29-15.45c-21.4-11-44.12-15.42-68.06-15.42s-46.66 4.44-68.06 15.42a168.29 168.29 0 0 0-24.29 15.45c-7.33 5.52-14.31 11.49-21.27 17.46-8.64 7.41-17.28 14.84-26.67 21.29A122.76 122.76 0 0 1 163 174.17c-13.53 4.41-27.69 6.14-41.88 6.14s-28.36-1.73-41.88-6.14a122.76 122.76 0 0 1-31.51-15.88C38.32 151.83 29.68 144.4 21 137a10.41 10.41 0 1 0-13.52 15.8c7 6 13.94 11.94 21.27 17.46A168.29 168.29 0 0 0 53 185.71c21.4 11 44.12 15.42 68.06 15.42s46.66-4.44 68.06-15.42a168.32 168.32 0 0 0 24.29-15.45c7.33-5.52 14.31-11.49 21.27-17.46 8.64-7.41 17.28-14.84 26.67-21.3a122.76 122.76 0 0 1 31.51-15.88c13.53-4.41 27.69-6.14 41.88-6.14s28.35 1.73 41.88 6.14a122.74 122.74 0 0 1 31.51 15.88c9.38 6.46 18 13.89 26.66 21.29l.08.07z"/><circle class="ocls-2" cx="13.03" cy="233.18" r="13.03"/><circle class="ocls-2" cx="13.03" cy="61.62" r="13.03"/><circle class="ocls-2" cx="13.03" cy="404.74" r="13.03"/><circle class="ocls-2" cx="120.64" cy="274.44" r="13.03"/><circle class="ocls-2" cx="120.64" cy="102.88" r="13.03"/><circle class="ocls-2" cx="120.64" cy="446" r="13.03"/><circle class="ocls-2" cx="228.26" cy="227.39" r="13.03"/><circle class="ocls-2" cx="228.26" cy="55.83" r="13.03"/><circle class="ocls-2" cx="228.26" cy="398.95" r="13.03"/><circle class="ocls-2" cx="335.87" cy="184.59" r="13.03"/><circle class="ocls-2" cx="335.87" cy="13.03" r="13.03"/><circle class="ocls-2" cx="335.87" cy="356.15" r="13.03"/></g></g></g></g></symbol><symbol viewBox="0 0 484.53 484.53" id="warning-3" xmlns="http://www.w3.org/2000/svg"><defs><style>.pcls-1{fill:#2b2a29}</style></defs><g id="pСлой_2" data-name="Слой 2"><g id="pСлой_1-2" data-name="Слой 1"><path class="pcls-1" d="M242.27 484.53c133.58 0 242.26-108.68 242.26-242.25S375.85 0 242.27 0 0 108.69 0 242.27s108.69 242.26 242.27 242.26zm0-465C365.11 19.49 465 119.44 465 242.27S365.1 465 242.27 465 19.49 365.11 19.49 242.27 119.43 19.49 242.27 19.49zM191 147a37.44 37.44 0 1 0-37.44-37.44A37.48 37.48 0 0 0 191 147zm0-57.83a20.39 20.39 0 1 1-20.39 20.39A20.41 20.41 0 0 1 191 89.14zm201.33 127.48a37.44 37.44 0 1 0-37.44-37.43 37.48 37.48 0 0 0 37.44 37.43zm0-57.83a20.39 20.39 0 1 1-20.39 20.39 20.41 20.41 0 0 1 20.39-20.39zM232.5 430.28a37.44 37.44 0 1 0-37.44-37.43 37.48 37.48 0 0 0 37.44 37.43zm0-57.83a20.39 20.39 0 1 1-20.39 20.39 20.41 20.41 0 0 1 20.39-20.38zM95.6 305.18a37.44 37.44 0 1 0-37.44-37.43 37.48 37.48 0 0 0 37.44 37.43zm0-57.83a20.39 20.39 0 1 1-20.4 20.4 20.41 20.41 0 0 1 20.4-20.4zm165.7 43a37.44 37.44 0 1 0-37.44-37.43 37.48 37.48 0 0 0 37.44 37.41zm0-57.83a20.39 20.39 0 1 1-20.39 20.39 20.41 20.41 0 0 1 20.39-20.4z" id="pСлой_1-3" data-name="Слой_1"/></g></g></symbol><symbol viewBox="0 0 446.37 349.34" id="warning-4" xmlns="http://www.w3.org/2000/svg"><defs><style>.qcls-1{fill:#2b2a29}</style></defs><g id="qСлой_2" data-name="Слой 2"><g id="qСлой_1-2" data-name="Слой 1"><path class="qcls-1" d="M54.5 345.51c9.67-11.27 18.77-22.17 25.6-35.48 8.66-16.87 12.15-34.62 12.15-53.52S88.77 219.85 80.1 203c-6.83-13.32-15.93-24.21-25.6-35.48a243.11 243.11 0 0 1-16.11-20.17c-11.7-17-16.32-33.84-16.32-54.48s4.62-37.46 16.32-54.47A243.05 243.05 0 0 1 54.5 18.2 11 11 0 0 0 37.75 3.84C28.08 15.11 19 26 12.15 39.32 3.49 56.2 0 73.95 0 92.85s3.49 36.65 12.15 53.52c6.84 13.32 15.93 24.21 25.6 35.49A243.12 243.12 0 0 1 53.86 202c11.7 17 16.32 33.84 16.32 54.48S65.57 294 53.86 311a243 243 0 0 1-16.11 20.17 11 11 0 0 0 16.75 14.34zm177.06 0c9.67-11.27 18.77-22.17 25.6-35.48 8.66-16.87 12.15-34.62 12.15-53.52s-3.49-36.65-12.15-53.52c-6.84-13.32-15.93-24.21-25.6-35.49a243 243 0 0 1-16.11-20.17c-11.7-17-16.32-33.84-16.32-54.47s4.62-37.47 16.33-54.48a243.11 243.11 0 0 1 16.1-20.18 11 11 0 1 0-16.75-14.36C205.14 15.11 196 26 189.21 39.32c-8.66 16.87-12.15 34.62-12.15 53.52s3.49 36.65 12.15 53.52c6.83 13.32 15.93 24.21 25.6 35.49A243.07 243.07 0 0 1 230.92 202c11.7 17 16.32 33.84 16.32 54.48S242.62 294 230.92 311a243 243 0 0 1-16.11 20.17 11 11 0 0 0 16.75 14.37zM391.87 3.84C382.2 15.11 373.1 26 366.26 39.32c-8.66 16.87-12.15 34.62-12.15 53.52s3.49 36.65 12.15 53.52c6.83 13.32 15.93 24.21 25.6 35.49A243.17 243.17 0 0 1 408 202c11.7 17 16.32 33.84 16.32 54.48S419.68 294 408 311a243.16 243.16 0 0 1-16.11 20.17 11 11 0 1 0 16.75 14.37c9.67-11.27 18.77-22.17 25.6-35.48 8.66-16.87 12.15-34.62 12.15-53.52s-3.49-36.65-12.15-53.52c-6.83-13.32-15.93-24.21-25.6-35.49a242.93 242.93 0 0 1-16.11-20.17c-11.7-17-16.32-33.84-16.32-54.47s4.62-37.47 16.32-54.48a243.1 243.1 0 0 1 16.09-20.21 11 11 0 1 0-16.75-14.36z" id="qСлой_1-3" data-name="Слой_1"/></g></g></symbol><symbol viewBox="0 0 363.19 348.1" id="warning-5" xmlns="http://www.w3.org/2000/svg"><g data-name="Слой 2"><g data-name="Слой 1"><path d="M111.67 124.77a111.67 111.67 0 1 0 111.66 111.66 111.79 111.79 0 0 0-111.66-111.66zm0 208.33a96.67 96.67 0 1 1 96.67-96.67 96.78 96.78 0 0 1-96.67 96.67z"/><path d="M111.67 166.43a7.5 7.5 0 1 0 0 15 55.06 55.06 0 0 1 55 55 7.5 7.5 0 0 0 15 0 70.08 70.08 0 0 0-70-70zM298.33 62.29a64.85 64.85 0 1 0 64.86 64.86 64.93 64.93 0 0 0-64.86-64.86zm0 114.71a49.85 49.85 0 1 1 49.86-49.85A49.91 49.91 0 0 1 298.33 177z"/><path d="M302 150.38a26.94 26.94 0 0 1-26.91-26.91 7.5 7.5 0 0 0-15 0A42 42 0 0 0 302 165.38a7.5 7.5 0 0 0 0-15zM123.36 89a44.51 44.51 0 1 0-44.51-44.49A44.56 44.56 0 0 0 123.36 89zm0-74a29.51 29.51 0 1 1-29.51 29.51A29.55 29.55 0 0 1 123.36 15z"/></g></g></symbol><symbol viewBox="0 0 512 512" id="warning-6" xmlns="http://www.w3.org/2000/svg"><g data-name="Слой 2"><g data-name="Capa 1"><path d="M416 326a10 10 0 1 0 10 10 10 10 0 0 0-10-10zm-120 0a10 10 0 1 0 10 10 10 10 0 0 0-10-10zm-20-200a10 10 0 1 0 10 10 10 10 0 0 0-10-10zM176 86a10 10 0 1 0 10 10 10 10 0 0 0-10-10zM76 286a10 10 0 1 0 10 10 10 10 0 0 0-10-10z"/><path d="M438.76 73.23c-97.65-97.64-267.9-97.63-365.54 0s-97.68 267.85 0 365.54c98.08 98.07 268.3 97.23 365.54 0 98.24-98.21 97.11-268.42 0-365.54zm-14.14 351.4c-89.83 89.82-247.43 89.82-337.25 0s-89.82-247.43 0-337.25 247.43-89.82 337.25 0 89.82 247.41 0 337.24z"/><path d="M350.54 91.18A189.73 189.73 0 0 0 210.8 71.5a10 10 0 0 0 4.73 19.43 169.8 169.8 0 0 1 125.07 17.6 10 10 0 1 0 9.94-17.35zM245.9 136.06a10 10 0 0 0-11.51-8.21 129 129 0 0 0-70.31 36.23 10 10 0 1 0 14.14 14.14 109.11 109.11 0 0 1 59.46-30.65 10 10 0 0 0 8.22-11.51zm91.3 38.73a30 30 0 0 0-42.42 0l-8.37 8.37a32 32 0 0 1-37 6 30 30 0 1 0-26.84 53.66 91.88 91.88 0 0 0 106.24-17.24l8.38-8.38a30 30 0 0 0 .01-42.41zm-14.14 28.28l-8.38 8.38a71.9 71.9 0 0 1-83.16 13.5 10 10 0 1 1 9-17.89 52 52 0 0 0 60.07-9.74l8.38-8.38a10 10 0 0 1 14.14 14.14zM186 266a80 80 0 1 0 80 80 80.08 80.08 0 0 0-80-80zm0 140a60 60 0 1 1 60-60 60.06 60.06 0 0 1-60 60z"/><path d="M196 306a30 30 0 1 0 30 30 30 30 0 0 0-30-30zm0 40a10 10 0 1 1 10-10 10 10 0 0 1-10 10zM96 186a30 30 0 1 0 30 30 30 30 0 0 0-30-30zm0 40a10 10 0 1 1 10-10 10 10 0 0 1-10 10zm320 20h-60a30 30 0 1 0 0 60h60a30 30 0 0 0 0-60zm0 40h-60a10 10 0 1 1 0-20h60a10 10 0 1 1 0 20zm-37.59 67.55a30 30 0 0 0-42.43 0L293.55 396A30 30 0 0 0 336 438.41L378.42 396a30 30 0 0 0-.01-42.45zm-14.14 28.29l-42.43 42.43a10 10 0 1 1-14.15-14.15l42.43-42.43a10 10 0 1 1 14.15 14.15zM406 166a20 20 0 1 0 20 20 20 20 0 0 0-20-20z"/></g></g></symbol><symbol viewBox="0 0 485.21 485.21" id="zoom" xmlns="http://www.w3.org/2000/svg"><g data-name="Слой 2"><g data-name="Capa 1"><path d="M471.88 407.57L360.57 296.24a214.27 214.27 0 0 1-64.33 64.32l111.32 111.33a45.48 45.48 0 0 0 64.32-64.32zM363.91 182c0-100.48-81.47-182-182-182S0 81.47 0 182s81.47 182 182 182 181.91-81.56 181.91-182zM182 318.42c-75.3 0-136.51-61.21-136.51-136.42S106.7 45.49 182 45.49 318.42 106.7 318.42 182 257.2 318.42 182 318.42z"/><path d="M75.82 182h30.32A75.9 75.9 0 0 1 182 106.14V75.82A106.27 106.27 0 0 0 75.82 182z"/></g></g></symbol></svg>