<svg xmlns="http://www.w3.org/2000/svg" xmlns:xlink="http://www.w3.org/1999/xlink" width="55" height="55" viewBox="0 0 55 55"><defs><path id="a" d="M1458 3651c0 14.34-11.66 26-26 26s-26-11.66-26-26 11.66-26 26-26 26 11.66 26 26zm-2 0c0-13.23-10.77-24-24-24s-24 10.77-24 24 10.77 24 24 24 24-10.77 24-24zm-10.5 0a1 1 0 0 1-1 1H1433v12a1 1 0 0 1-2 0v-12h-11.5a1 1 0 1 1 0-2h11.5v-11a1 1 0 1 1 2 0v11h11.5a1 1 0 0 1 1 1z"/></defs><g transform="translate(-1404 -3623)"><use fill="#4a494a" xlink:href="#a"/></g></svg>