<svg xmlns="http://www.w3.org/2000/svg" xmlns:xlink="http://www.w3.org/1999/xlink" width="32" height="32" viewBox="0 0 32 32">
    <defs>
        <path id="a" d="M12 22c-1.1 0-2 .9-2 2s.9 2 2 2 2-.9 2-2-.9-2-2-2zM6 6v2h2l3.6 7.6-1.4 2.4c-.1.3-.2.7-.2 1 0 1.1.9 2 2 2h12v-2H12.4c-.1 0-.2-.1-.2-.2v-.1l.9-1.7h7.4c.8 0 1.4-.4 1.7-1l3.6-6.5c.2-.2.2-.3.2-.5 0-.6-.4-1-1-1H10.2l-.9-2H6zm16 16c-1.1 0-2 .9-2 2s.9 2 2 2 2-.9 2-2-.9-2-2-2z"/>
    </defs>
    <g fill="none" fill-rule="evenodd">
        <mask id="b" fill="#fff">
            <use xlink:href="#a"/>
        </mask>
        <use fill="#D0D0D0" fill-rule="nonzero" xlink:href="#a"/>
        <g fill="#D0D0D0" mask="url(#b)">
            <path d="M0 0h32v32H0z"/>
        </g>
    </g>
</svg>
