<?xml version="1.0" encoding="UTF-8"?>
<svg width="20px" height="20px" viewBox="0 0 20 20" version="1.1" xmlns="http://www.w3.org/2000/svg" xmlns:xlink="http://www.w3.org/1999/xlink">
    <!-- Generator: Sketch 49.3 (51167) - http://www.bohemiancoding.com/sketch -->
    <title>Color / Interface</title>
    <desc>Created with Sketch.</desc>
    <defs>
        <path d="M12.7142857,7.52653061 C12.7142857,9 11.522449,10.1918367 10.0489796,10.1918367 C8.5755102,10.1918367 7.38367347,9 7.38367347,7.52653061 C7.38367347,6.05306122 8.5755102,4.86122449 10.0489796,4.86122449 C11.522449,4.86122449 12.7142857,6.05714286 12.7142857,7.52653061 Z M10,0 C4.48571429,0 0,4.48571429 0,10 C0,15.5142857 4.48571429,20 10,20 C15.5142857,20 20,15.5142857 20,10 C20,4.48571429 15.5142857,0 10,0 Z M14.5836735,16.5183673 C14.2489796,13.8367347 13.0979592,11.0897959 10,11.0897959 C6.87755102,11.0897959 5.83265306,13.877551 5.50612245,16.5795918 C3.40816327,15.1428571 2.02857143,12.7306122 2.02857143,10 C2.02857143,5.60408163 5.60408163,2.02857143 10,2.02857143 C14.3959184,2.02857143 17.9714286,5.60408163 17.9714286,10 C17.9714286,12.6897959 16.6326531,15.0734694 14.5836735,16.5183673 Z" id="path-1"></path>
    </defs>
    <g id="Symbols" stroke="none" stroke-width="1" fill="none" fill-rule="evenodd">
        <g id="Icon-/-user-Copy" transform="translate(-2.000000, -2.000000)">
            <g id="Color-/-Interface" transform="translate(2.000000, 2.000000)">
                <mask id="mask-2" fill="white">
                    <use xlink:href="#path-1"></use>
                </mask>
                <use id="Mask" fill="#000000" fill-rule="nonzero" xlink:href="#path-1"></use>
                <g id="Color-/-White" mask="url(#mask-2)" fill="#FFFFFF">
                    <g transform="translate(-5.000000, -5.000000)" id="Rectangle-4-Copy-3">
                        <rect x="0" y="0" width="30" height="30"></rect>
                    </g>
                </g>
            </g>
        </g>
    </g>
</svg>