<svg xmlns="http://www.w3.org/2000/svg" xmlns:xlink="http://www.w3.org/1999/xlink" width="320" height="8" viewBox="0 0 320 8">
    <defs>
        <path id="a" d="M0 0h719.906v7.877H0z"/>
        <linearGradient id="b" x1="-9.611%" x2="116.539%" y1="47.343%" y2="47.343%">
            <stop offset="0%" stop-color="#942331"/>
            <stop offset="3.61%" stop-color="#931813"/>
            <stop offset="8.46%" stop-color="#B12638"/>
            <stop offset="12.37%" stop-color="#AF1917"/>
            <stop offset="15.08%" stop-color="#C81517"/>
            <stop offset="16.97%" stop-color="#D51317"/>
            <stop offset="21.42%" stop-color="#88357F"/>
            <stop offset="24.36%" stop-color="#853580"/>
            <stop offset="26.38%" stop-color="#6E368C"/>
            <stop offset="28.02%" stop-color="#503C8E"/>
            <stop offset="29.11%" stop-color="#3A4190"/>
            <stop offset="31.92%" stop-color="#1A3982"/>
            <stop offset="32.42%" stop-color="#14387F"/>
            <stop offset="41.81%" stop-color="#312A6F"/>
            <stop offset="49.4%" stop-color="#283587"/>
            <stop offset="51.79%" stop-color="#25428F"/>
            <stop offset="55.81%" stop-color="#1D61A1"/>
            <stop offset="57.35%" stop-color="#286FA7"/>
            <stop offset="62.82%" stop-color="#4D9EB9"/>
            <stop offset="65.56%" stop-color="#5BB0C0"/>
            <stop offset="67.1%" stop-color="#54ADBF"/>
            <stop offset="69.39%" stop-color="#3FA5BB"/>
            <stop offset="72.13%" stop-color="#1F97B4"/>
            <stop offset="74.26%" stop-color="#008BAE"/>
            <stop offset="77.76%" stop-color="#008F9B"/>
            <stop offset="84.81%" stop-color="#009B6A"/>
            <stop offset="88.75%" stop-color="#00A24C"/>
            <stop offset="88.97%" stop-color="#00A24D"/>
            <stop offset="100%" stop-color="#00937D"/>
        </linearGradient>
        <path id="d" d="M1.47 0L.135 4.775l.789 3.102H87.72V0z"/>
        <linearGradient id="e" x1="83.752%" x2="39.443%" y1="-420.354%" y2="199.34%">
            <stop offset="0%" stop-color="#312A6F"/>
            <stop offset="24.27%" stop-color="#312A6F"/>
            <stop offset="48.77%" stop-color="#2E2C72"/>
            <stop offset="68.86%" stop-color="#24337A"/>
            <stop offset="87.35%" stop-color="#123E88"/>
            <stop offset="100%" stop-color="#024995"/>
        </linearGradient>
        <path id="g" d="M.216 0L2.64 4.775.948 7.877h45.907l-.79-3.102L47.402 0z"/>
        <linearGradient id="h" x1="162.536%" x2="-122.297%" y1="50.871%" y2="50.871%">
            <stop offset="0%" stop-color="#14387F"/>
            <stop offset="20.99%" stop-color="#1C3880"/>
            <stop offset="53.6%" stop-color="#323882"/>
            <stop offset="93.55%" stop-color="#563985"/>
            <stop offset="100%" stop-color="#5C3986"/>
        </linearGradient>
        <path id="j" d="M0 0h719.906v7.877H0z"/>
        <path id="k" d="M0 0h719.906v7.877H0z"/>
        <path id="l" d="M0 0h719.906v7.877H0z"/>
        <path id="m" d="M0 0h719.906v7.877H0z"/>
        <path id="n" d="M0 0h719.906v7.877H0z"/>
        <path id="o" d="M0 0h719.906v7.877H0z"/>
        <path id="p" d="M0 0h719.906v7.877H0z"/>
        <path id="q" d="M0 0h719.906v7.877H0z"/>
        <path id="r" d="M.132 0l.656 2.457 1.445 5.42h58.181c.761-2.643 1.517-5.27 2.262-7.877H.132z"/>
        <linearGradient id="s" x1="50.117%" x2="50.117%" y1="-1338.082%" y2="1460.305%">
            <stop offset="0%" stop-color="#00B5DD"/>
            <stop offset="27.73%" stop-color="#00AFD6"/>
            <stop offset="68.64%" stop-color="#009DC2"/>
            <stop offset="100%" stop-color="#008BAE"/>
        </linearGradient>
        <path id="u" d="M0 0h719.906v7.877H0z"/>
        <path id="w" d="M0 0h719.906v7.877H0z"/>
        <path id="x" d="M1.246 0l-.99 7.877h76.403l-1.44-5.42L74.565 0H1.245z"/>
        <linearGradient id="y" x1="-9.206%" x2="113.269%" y1="-307.88%" y2="424.724%">
            <stop offset="0%" stop-color="#009AD2"/>
            <stop offset="28.72%" stop-color="#169FCE"/>
            <stop offset="88.38%" stop-color="#4FADC2"/>
            <stop offset="100%" stop-color="#5BB0C0"/>
        </linearGradient>
        <path id="A" d="M.313 0l.966 4.775-.628 3.102h49.607L50.261 0z"/>
        <linearGradient id="B" x1="49.617%" x2="49.617%" y1="-1338.082%" y2="1460.305%">
            <stop offset="0%" stop-color="#174290"/>
            <stop offset="29.56%" stop-color="#1D4E99"/>
            <stop offset="83.13%" stop-color="#2C6EB1"/>
            <stop offset="100%" stop-color="#327AB9"/>
        </linearGradient>
        <path id="D" d="M.118 0L.116 7.877H44.55L45.537 0H.118z"/>
        <linearGradient id="E" x1="50.49%" x2="50.49%" y1="1459.954%" y2="-1338.433%">
            <stop offset="0%" stop-color="#3E9AC9"/>
            <stop offset="46.06%" stop-color="#2E7EB5"/>
            <stop offset="100%" stop-color="#1D61A1"/>
        </linearGradient>
    </defs>
    <g fill="none" fill-rule="evenodd">
        <g transform="translate(-278)">
            <mask id="c" fill="#fff">
                <use xlink:href="#a"/>
            </mask>
            <path fill="url(#b)" fill-rule="nonzero" d="M0 0h719.906v7.877H0z" mask="url(#c)"/>
        </g>
        <g transform="translate(15)">
            <mask id="f" fill="#fff">
                <use xlink:href="#d"/>
            </mask>
            <path fill="url(#e)" fill-rule="nonzero" d="M89.866.196l-4.33 15.497L-2.011 7.68l4.33-15.497z" mask="url(#f)"/>
        </g>
        <g transform="translate(-31)">
            <mask id="i" fill="#fff">
                <use xlink:href="#g"/>
            </mask>
            <path fill="url(#h)" fill-rule="nonzero" d="M.216 0h47.186v7.877H.216z" mask="url(#i)"/>
        </g>
        <g transform="translate(292.5)">
            <mask id="t" fill="#fff">
                <use xlink:href="#r"/>
            </mask>
            <path fill="url(#s)" fill-rule="nonzero" d="M.132 0h62.544v7.877H.132z" mask="url(#t)"/>
        </g>
        <g transform="translate(-278)">
            <mask id="v" fill="#fff">
                <use xlink:href="#u"/>
            </mask>
            <path fill="#283587" fill-rule="nonzero" d="M380.599-105.442v220.43L402.818 4.776z" mask="url(#v)"/>
        </g>
        <g transform="translate(218)">
            <mask id="z" fill="#fff">
                <use xlink:href="#x"/>
            </mask>
            <path fill="url(#y)" fill-rule="nonzero" d="M71.542-10.933L80.1 7.349 5.374 18.811-3.186.528z" mask="url(#z)"/>
        </g>
        <g transform="translate(123.5)">
            <mask id="C" fill="#fff">
                <use xlink:href="#A"/>
            </mask>
            <path fill="url(#B)" fill-rule="nonzero" d="M.313 0H50.26v7.877H.313z" mask="url(#C)"/>
        </g>
        <g transform="translate(173.5)">
            <mask id="F" fill="#fff">
                <use xlink:href="#D"/>
            </mask>
            <path fill="url(#E)" fill-rule="nonzero" d="M.116 0h45.421v7.877H.116z" mask="url(#F)"/>
        </g>
    </g>
</svg>
