<svg xmlns="http://www.w3.org/2000/svg" xmlns:xlink="http://www.w3.org/1999/xlink" width="24" height="24" viewBox="0 0 24 24">
    <defs>
        <path id="a" d="M10.171 6.021A2.13 2.13 0 0 1 8.04 8.153a2.13 2.13 0 0 1-2.132-2.132 2.133 2.133 0 0 1 4.264 0zM8 0C3.589 0 0 3.589 0 8s3.589 8 8 8 8-3.589 8-8-3.589-8-8-8zm3.667 13.215C11.399 11.069 10.478 8.872 8 8.872c-2.498 0-3.334 2.23-3.595 4.392A6.373 6.373 0 0 1 1.623 8 6.384 6.384 0 0 1 8 1.623 6.384 6.384 0 0 1 14.377 8a6.373 6.373 0 0 1-2.71 5.215z"/>
    </defs>
    <g fill="none" fill-rule="evenodd" transform="translate(4 4)">
        <mask id="b" fill="#fff">
            <use xlink:href="#a"/>
        </mask>
        <use fill="#000" fill-rule="nonzero" xlink:href="#a"/>
        <g fill="#D0D0D0" mask="url(#b)">
            <path d="M-4-4h24v24H-4z"/>
        </g>
    </g>
</svg>
